<?xml version="1.0" encoding="UTF-8"?>
<!--Generator: Apple Native CoreSVG 148-->
<!DOCTYPE svg
PUBLIC "-//W3C//DTD SVG 1.1//EN"
       "http://www.w3.org/Graphics/SVG/1.1/DTD/svg11.dtd">
<svg version="1.1" xmlns="http://www.w3.org/2000/svg" xmlns:xlink="http://www.w3.org/1999/xlink" width="3300" height="2200">
 <!--glyph: "uni100559.medium", point size: 100.000000, font version: "Version 16.0d11e1", template writer version: "8"-->
 <g id="Notes">
  <rect height="2200" id="artboard" style="fill:white;opacity:1" width="3300" x="0" y="0"/>
  <line id="" style="fill:none;stroke:black;opacity:1;stroke-width:0.5;" x1="263" x2="3036" y1="292" y2="292"/>
  <text style="stroke:none;fill:black;font-family:-apple-system,&quot;SF Pro Display&quot;,&quot;SF Pro Text&quot;,Helvetica,sans-serif;font-weight:bold;" transform="matrix(1 0 0 1 263 322)">Weight/Scale Variations</text>
  <text style="stroke:none;fill:black;font-family:-apple-system,&quot;SF Pro Display&quot;,&quot;SF Pro Text&quot;,Helvetica,sans-serif;text-anchor:middle;" transform="matrix(1 0 0 1 559.711 322)">Ultralight</text>
  <text style="stroke:none;fill:black;font-family:-apple-system,&quot;SF Pro Display&quot;,&quot;SF Pro Text&quot;,Helvetica,sans-serif;text-anchor:middle;" transform="matrix(1 0 0 1 856.422 322)">Thin</text>
  <text style="stroke:none;fill:black;font-family:-apple-system,&quot;SF Pro Display&quot;,&quot;SF Pro Text&quot;,Helvetica,sans-serif;text-anchor:middle;" transform="matrix(1 0 0 1 1153.13 322)">Light</text>
  <text style="stroke:none;fill:black;font-family:-apple-system,&quot;SF Pro Display&quot;,&quot;SF Pro Text&quot;,Helvetica,sans-serif;text-anchor:middle;" transform="matrix(1 0 0 1 1449.84 322)">Regular</text>
  <text style="stroke:none;fill:black;font-family:-apple-system,&quot;SF Pro Display&quot;,&quot;SF Pro Text&quot;,Helvetica,sans-serif;text-anchor:middle;" transform="matrix(1 0 0 1 1746.56 322)">Medium</text>
  <text style="stroke:none;fill:black;font-family:-apple-system,&quot;SF Pro Display&quot;,&quot;SF Pro Text&quot;,Helvetica,sans-serif;text-anchor:middle;" transform="matrix(1 0 0 1 2043.27 322)">Semibold</text>
  <text style="stroke:none;fill:black;font-family:-apple-system,&quot;SF Pro Display&quot;,&quot;SF Pro Text&quot;,Helvetica,sans-serif;text-anchor:middle;" transform="matrix(1 0 0 1 2339.98 322)">Bold</text>
  <text style="stroke:none;fill:black;font-family:-apple-system,&quot;SF Pro Display&quot;,&quot;SF Pro Text&quot;,Helvetica,sans-serif;text-anchor:middle;" transform="matrix(1 0 0 1 2636.69 322)">Heavy</text>
  <text style="stroke:none;fill:black;font-family:-apple-system,&quot;SF Pro Display&quot;,&quot;SF Pro Text&quot;,Helvetica,sans-serif;text-anchor:middle;" transform="matrix(1 0 0 1 2933.4 322)">Black</text>
  <line id="" style="fill:none;stroke:black;opacity:1;stroke-width:0.5;" x1="263" x2="3036" y1="1903" y2="1903"/>
  <g id="" transform="matrix(1 0 0 1 263 1933)">
   <path d="M 9.24805 0.830078 C 13.5547 0.830078 17.1387 -2.74414 17.1387 -7.05078 C 17.1387 -11.3574 13.5449 -14.9316 9.23828 -14.9316 C 4.94141 -14.9316 1.36719 -11.3574 1.36719 -7.05078 C 1.36719 -2.74414 4.95117 0.830078 9.24805 0.830078 Z M 9.24805 -0.654297 C 5.70312 -0.654297 2.87109 -3.49609 2.87109 -7.05078 C 2.87109 -10.6055 5.69336 -13.4473 9.23828 -13.4473 C 12.793 -13.4473 15.6348 -10.6055 15.6445 -7.05078 C 15.6543 -3.49609 12.8027 -0.654297 9.24805 -0.654297 Z M 9.22852 -3.62305 C 9.69727 -3.62305 9.9707 -3.93555 9.9707 -4.45312 L 9.9707 -6.31836 L 12.002 -6.31836 C 12.5 -6.31836 12.832 -6.57227 12.832 -7.04102 C 12.832 -7.51953 12.5195 -7.7832 12.002 -7.7832 L 9.9707 -7.7832 L 9.9707 -9.81445 C 9.9707 -10.332 9.69727 -10.6543 9.22852 -10.6543 C 8.75977 -10.6543 8.50586 -10.3125 8.50586 -9.81445 L 8.50586 -7.7832 L 6.49414 -7.7832 C 5.97656 -7.7832 5.64453 -7.51953 5.64453 -7.04102 C 5.64453 -6.57227 5.99609 -6.31836 6.49414 -6.31836 L 8.50586 -6.31836 L 8.50586 -4.45312 C 8.50586 -3.95508 8.75977 -3.62305 9.22852 -3.62305 Z"/>
  </g>
  <g id="" transform="matrix(1 0 0 1 281.506 1933)">
   <path d="M 11.709 2.91016 C 17.1582 2.91016 21.6699 -1.61133 21.6699 -7.05078 C 21.6699 -12.5 17.1484 -17.0117 11.6992 -17.0117 C 6.25977 -17.0117 1.74805 -12.5 1.74805 -7.05078 C 1.74805 -1.61133 6.26953 2.91016 11.709 2.91016 Z M 11.709 1.25 C 7.09961 1.25 3.41797 -2.44141 3.41797 -7.05078 C 3.41797 -11.6602 7.08984 -15.3516 11.6992 -15.3516 C 16.3086 -15.3516 20 -11.6602 20.0098 -7.05078 C 20.0195 -2.44141 16.3184 1.25 11.709 1.25 Z M 11.6797 -2.66602 C 12.207 -2.66602 12.5098 -3.01758 12.5098 -3.59375 L 12.5098 -6.23047 L 15.3223 -6.23047 C 15.8691 -6.23047 16.25 -6.51367 16.25 -7.03125 C 16.25 -7.55859 15.8887 -7.86133 15.3223 -7.86133 L 12.5098 -7.86133 L 12.5098 -10.6836 C 12.5098 -11.25 12.207 -11.6113 11.6797 -11.6113 C 11.1621 -11.6113 10.8789 -11.2305 10.8789 -10.6836 L 10.8789 -7.86133 L 8.07617 -7.86133 C 7.50977 -7.86133 7.13867 -7.55859 7.13867 -7.03125 C 7.13867 -6.51367 7.5293 -6.23047 8.07617 -6.23047 L 10.8789 -6.23047 L 10.8789 -3.59375 C 10.8789 -3.03711 11.1621 -2.66602 11.6797 -2.66602 Z"/>
  </g>
  <g id="" transform="matrix(1 0 0 1 304.924 1933)">
   <path d="M 14.9707 5.66406 C 21.9336 5.66406 27.6953 -0.0976562 27.6953 -7.05078 C 27.6953 -14.0137 21.9238 -19.7754 14.9609 -19.7754 C 8.00781 -19.7754 2.25586 -14.0137 2.25586 -7.05078 C 2.25586 -0.0976562 8.01758 5.66406 14.9707 5.66406 Z M 14.9707 3.84766 C 8.93555 3.84766 4.08203 -1.01562 4.08203 -7.05078 C 4.08203 -13.0957 8.92578 -17.9492 14.9609 -17.9492 C 21.0059 -17.9492 25.8594 -13.0957 25.8691 -7.05078 C 25.8789 -1.01562 21.0156 3.84766 14.9707 3.84766 Z M 14.9414 -1.38672 C 15.5176 -1.38672 15.8594 -1.77734 15.8594 -2.38281 L 15.8594 -6.13281 L 19.7754 -6.13281 C 20.3711 -6.13281 20.7812 -6.46484 20.7812 -7.02148 C 20.7812 -7.59766 20.3906 -7.93945 19.7754 -7.93945 L 15.8594 -7.93945 L 15.8594 -11.8652 C 15.8594 -12.4805 15.5176 -12.8711 14.9414 -12.8711 C 14.375 -12.8711 14.0527 -12.4609 14.0527 -11.8652 L 14.0527 -7.93945 L 10.1465 -7.93945 C 9.53125 -7.93945 9.13086 -7.59766 9.13086 -7.02148 C 9.13086 -6.46484 9.55078 -6.13281 10.1465 -6.13281 L 14.0527 -6.13281 L 14.0527 -2.38281 C 14.0527 -1.79688 14.375 -1.38672 14.9414 -1.38672 Z"/>
  </g>
  <text style="stroke:none;fill:black;font-family:-apple-system,&quot;SF Pro Display&quot;,&quot;SF Pro Text&quot;,Helvetica,sans-serif;font-weight:bold;" transform="matrix(1 0 0 1 263 1953)">Design Variations</text>
  <text style="stroke:none;fill:black;font-family:-apple-system,&quot;SF Pro Display&quot;,&quot;SF Pro Text&quot;,Helvetica,sans-serif;" transform="matrix(1 0 0 1 263 1971)">Symbols are supported in up to nine weights and three scales.</text>
  <text style="stroke:none;fill:black;font-family:-apple-system,&quot;SF Pro Display&quot;,&quot;SF Pro Text&quot;,Helvetica,sans-serif;" transform="matrix(1 0 0 1 263 1989)">For optimal layout with text and other symbols, vertically align</text>
  <text style="stroke:none;fill:black;font-family:-apple-system,&quot;SF Pro Display&quot;,&quot;SF Pro Text&quot;,Helvetica,sans-serif;" transform="matrix(1 0 0 1 263 2007)">symbols with the adjacent text.</text>
  <line id="" style="fill:none;stroke:#00AEEF;stroke-width:0.5;opacity:1.0;" x1="776" x2="776" y1="1919" y2="1933"/>
  <g id="" transform="matrix(1 0 0 1 776 1933)">
   <path d="M 3.31055 0.126953 C 3.82812 0.126953 4.08203 -0.0683594 4.26758 -0.605469 L 5.52734 -4.0625 L 11.2891 -4.0625 L 12.5488 -0.605469 C 12.7344 -0.0683594 12.9883 0.126953 13.4961 0.126953 C 14.0137 0.126953 14.3457 -0.185547 14.3457 -0.673828 C 14.3457 -0.839844 14.3164 -0.986328 14.2383 -1.20117 L 9.6582 -13.3887 C 9.43359 -13.9941 9.0332 -14.2871 8.4082 -14.2871 C 7.80273 -14.2871 7.39258 -13.9941 7.17773 -13.3984 L 2.59766 -1.19141 C 2.51953 -0.976562 2.49023 -0.830078 2.49023 -0.664062 C 2.49023 -0.175781 2.80273 0.126953 3.31055 0.126953 Z M 6.00586 -5.53711 L 8.37891 -12.1094 L 8.42773 -12.1094 L 10.8008 -5.53711 Z"/>
  </g>
  <line id="" style="fill:none;stroke:#00AEEF;stroke-width:0.5;opacity:1.0;" x1="792.836" x2="792.836" y1="1919" y2="1933"/>
  <text style="stroke:none;fill:black;font-family:-apple-system,&quot;SF Pro Display&quot;,&quot;SF Pro Text&quot;,Helvetica,sans-serif;font-weight:bold;" transform="matrix(1 0 0 1 776 1953)">Margins</text>
  <text style="stroke:none;fill:black;font-family:-apple-system,&quot;SF Pro Display&quot;,&quot;SF Pro Text&quot;,Helvetica,sans-serif;" transform="matrix(1 0 0 1 776 1971)">Leading and trailing margins on the left and right side of each symbol</text>
  <text style="stroke:none;fill:black;font-family:-apple-system,&quot;SF Pro Display&quot;,&quot;SF Pro Text&quot;,Helvetica,sans-serif;" transform="matrix(1 0 0 1 776 1989)">can be adjusted by modifying the x-location of the margin guidelines.</text>
  <text style="stroke:none;fill:black;font-family:-apple-system,&quot;SF Pro Display&quot;,&quot;SF Pro Text&quot;,Helvetica,sans-serif;" transform="matrix(1 0 0 1 776 2007)">Modifications are automatically applied proportionally to all</text>
  <text style="stroke:none;fill:black;font-family:-apple-system,&quot;SF Pro Display&quot;,&quot;SF Pro Text&quot;,Helvetica,sans-serif;" transform="matrix(1 0 0 1 776 2025)">scales and weights.</text>
  <g id="" transform="matrix(1 0 0 1 1289 1933)">
   <path d="M 2.8418 1.86523 L 4.54102 3.57422 C 5.40039 4.44336 6.38672 4.38477 7.31445 3.35938 L 17.4902 -7.85156 C 17.7539 -7.76367 18.0273 -7.7832 18.3398 -7.8418 L 19.4043 -8.03711 L 20.0684 -7.36328 L 20.0293 -6.80664 C 19.9902 -6.30859 20.1172 -5.92773 20.6055 -5.44922 L 21.3672 -4.70703 C 21.8457 -4.22852 22.4609 -4.19922 22.9297 -4.66797 L 25.8398 -7.58789 C 26.3086 -8.05664 26.2891 -8.65234 25.8105 -9.13086 L 25.0391 -9.89258 C 24.5605 -10.3711 24.1895 -10.5273 23.7109 -10.4883 L 23.1348 -10.4395 L 22.4902 -11.0742 L 22.7344 -12.1973 C 22.8613 -12.7637 22.7051 -13.2031 22.1191 -13.7891 L 19.9219 -15.9766 C 16.582 -19.2969 12.1484 -19.2188 9.25781 -16.3281 C 8.83789 -15.918 8.80859 -15.3418 9.04297 -14.9512 C 9.27734 -14.5898 9.73633 -14.3555 10.3809 -14.5215 C 11.8457 -14.8633 13.3691 -14.9219 14.7949 -13.9844 L 14.209 -12.5293 C 14.0137 -12.0508 13.9844 -11.6504 14.1113 -11.2891 L 3.04688 -0.898438 C 2.06055 0.0195312 1.98242 0.996094 2.8418 1.86523 Z M 10.752 -15.957 C 13.1836 -17.7344 16.4746 -17.4316 18.7012 -15.2051 L 21.1328 -12.793 C 21.3672 -12.5586 21.4062 -12.373 21.3379 -12.0312 L 21.0156 -10.5469 L 22.5195 -9.0625 L 23.5059 -9.12109 C 23.7598 -9.13086 23.8379 -9.11133 24.0332 -8.91602 L 24.6094 -8.33984 L 22.168 -5.89844 L 21.5918 -6.47461 C 21.3965 -6.66992 21.3672 -6.74805 21.377 -7.01172 L 21.4453 -7.98828 L 19.9512 -9.47266 L 18.4277 -9.21875 C 18.1055 -9.15039 17.959 -9.17969 17.7148 -9.41406 L 15.7129 -11.416 C 15.459 -11.6504 15.4297 -11.8164 15.5859 -12.1875 L 16.4648 -14.2773 C 14.9023 -15.7324 12.8711 -16.3574 10.8398 -15.7617 C 10.6836 -15.7227 10.625 -15.8496 10.752 -15.957 Z M 5.27344 2.30469 L 4.10156 1.14258 C 3.63281 0.683594 3.74023 0.341797 4.14062 -0.0195312 L 14.9512 -10.1953 L 16.416 -8.71094 L 6.42578 2.27539 C 6.07422 2.67578 5.74219 2.77344 5.27344 2.30469 Z"/>
  </g>
  <text style="stroke:none;fill:black;font-family:-apple-system,&quot;SF Pro Display&quot;,&quot;SF Pro Text&quot;,Helvetica,sans-serif;font-weight:bold;" transform="matrix(1 0 0 1 1289 1953)">Exporting</text>
  <text style="stroke:none;fill:black;font-family:-apple-system,&quot;SF Pro Display&quot;,&quot;SF Pro Text&quot;,Helvetica,sans-serif;" transform="matrix(1 0 0 1 1289 1971)">Symbols should be outlined when exporting to ensure the</text>
  <text style="stroke:none;fill:black;font-family:-apple-system,&quot;SF Pro Display&quot;,&quot;SF Pro Text&quot;,Helvetica,sans-serif;" transform="matrix(1 0 0 1 1289 1989)">design is preserved when submitting to Xcode.</text>
  <text id="template-version" style="stroke:none;fill:black;font-family:-apple-system,&quot;SF Pro Display&quot;,&quot;SF Pro Text&quot;,Helvetica,sans-serif;text-anchor:end;" transform="matrix(1 0 0 1 3036 1933)">Template v.2.0</text>
  <text style="stroke:none;fill:black;font-family:-apple-system,&quot;SF Pro Display&quot;,&quot;SF Pro Text&quot;,Helvetica,sans-serif;text-anchor:end;" transform="matrix(1 0 0 1 3036 1951)">Requires Xcode 12 or greater</text>
  <text style="stroke:none;fill:black;font-family:-apple-system,&quot;SF Pro Display&quot;,&quot;SF Pro Text&quot;,Helvetica,sans-serif;text-anchor:end;" transform="matrix(1 0 0 1 3036 1969)">Generated from 17.square.fill</text>
  <text style="stroke:none;fill:black;font-family:-apple-system,&quot;SF Pro Display&quot;,&quot;SF Pro Text&quot;,Helvetica,sans-serif;text-anchor:end;" transform="matrix(1 0 0 1 3036 1987)">Typeset at 100 points</text>
  <text style="stroke:none;fill:black;font-family:-apple-system,&quot;SF Pro Display&quot;,&quot;SF Pro Text&quot;,Helvetica,sans-serif;" transform="matrix(1 0 0 1 263 726)">Small</text>
  <text style="stroke:none;fill:black;font-family:-apple-system,&quot;SF Pro Display&quot;,&quot;SF Pro Text&quot;,Helvetica,sans-serif;" transform="matrix(1 0 0 1 263 1156)">Medium</text>
  <text style="stroke:none;fill:black;font-family:-apple-system,&quot;SF Pro Display&quot;,&quot;SF Pro Text&quot;,Helvetica,sans-serif;" transform="matrix(1 0 0 1 263 1586)">Large</text>
 </g>
 <g id="Guides">
  <g id="H-reference" style="fill:#27AAE1;stroke:none;" transform="matrix(1 0 0 1 339 696)">
   <path d="M 0.976562 0 L 3.66211 0 L 12.9883 -24.4629 L 45.7031 -24.4629 L 55.0781 0 L 57.7148 0 L 30.6152 -70.459 L 28.125 -70.459 Z M 29.2969 -67.1387 L 29.3945 -67.1387 L 44.873 -26.709 L 13.8672 -26.709 Z"/>
  </g>
  <line id="Baseline-S" style="fill:none;stroke:#27AAE1;opacity:1;stroke-width:0.5;" x1="263" x2="3036" y1="696" y2="696"/>
  <line id="Capline-S" style="fill:none;stroke:#27AAE1;opacity:1;stroke-width:0.5;" x1="263" x2="3036" y1="625.541" y2="625.541"/>
  <g id="H-reference" style="fill:#27AAE1;stroke:none;" transform="matrix(1 0 0 1 339 1126)">
   <path d="M 0.976562 0 L 3.66211 0 L 12.9883 -24.4629 L 45.7031 -24.4629 L 55.0781 0 L 57.7148 0 L 30.6152 -70.459 L 28.125 -70.459 Z M 29.2969 -67.1387 L 29.3945 -67.1387 L 44.873 -26.709 L 13.8672 -26.709 Z"/>
  </g>
  <line id="Baseline-M" style="fill:none;stroke:#27AAE1;opacity:1;stroke-width:0.5;" x1="263" x2="3036" y1="1126" y2="1126"/>
  <line id="Capline-M" style="fill:none;stroke:#27AAE1;opacity:1;stroke-width:0.5;" x1="263" x2="3036" y1="1055.54" y2="1055.54"/>
  <g id="H-reference" style="fill:#27AAE1;stroke:none;" transform="matrix(1 0 0 1 339 1556)">
   <path d="M 0.976562 0 L 3.66211 0 L 12.9883 -24.4629 L 45.7031 -24.4629 L 55.0781 0 L 57.7148 0 L 30.6152 -70.459 L 28.125 -70.459 Z M 29.2969 -67.1387 L 29.3945 -67.1387 L 44.873 -26.709 L 13.8672 -26.709 Z"/>
  </g>
  <line id="Baseline-L" style="fill:none;stroke:#27AAE1;opacity:1;stroke-width:0.5;" x1="263" x2="3036" y1="1556" y2="1556"/>
  <line id="Capline-L" style="fill:none;stroke:#27AAE1;opacity:1;stroke-width:0.5;" x1="263" x2="3036" y1="1485.54" y2="1485.54"/>
  <line id="left-margin" style="fill:none;stroke:#00AEEF;stroke-width:0.5;opacity:1.0;" x1="1392.45" x2="1392.45" y1="1030.79" y2="1150.12"/>
  <line id="right-margin" style="fill:none;stroke:#00AEEF;stroke-width:0.5;opacity:1.0;" x1="1507.24" x2="1507.24" y1="1030.79" y2="1150.12"/>
 </g>
 <g id="Symbols">
  <g id="Black-L" transform="matrix(1 0 0 1 2855.62 1556)">
   <path d="M 39.9902 26.5137 L 115.576 26.5137 C 130.811 26.5137 139.502 17.8711 139.502 2.68555 L 139.502 -73.0957 C 139.502 -88.2812 130.811 -96.875 115.576 -96.875 L 39.9902 -96.875 C 24.7559 -96.875 16.0645 -88.2812 16.0645 -73.0957 L 16.0645 2.68555 C 16.0645 17.8711 24.7559 26.5137 39.9902 26.5137 Z M 64.0625 -9.22852 C 59.8633 -9.22852 57.7637 -11.7188 57.7637 -16.5527 L 57.7637 -45.9473 L 57.5195 -45.9473 L 54.4922 -42.9688 C 52.832 -41.2109 51.6113 -40.4297 49.5117 -40.4297 C 46.7285 -40.4297 44.4336 -42.8711 44.4336 -45.7031 C 44.4336 -48.1934 45.459 -49.9512 47.8027 -52.1484 L 54.2969 -57.7148 C 57.6172 -60.6934 59.7656 -61.4258 62.5 -61.4258 C 67.627 -61.4258 70.3125 -58.3496 70.3125 -53.125 L 70.3125 -16.5527 C 70.3125 -11.7188 68.2129 -9.22852 64.0625 -9.22852 Z M 89.4531 -9.22852 C 85.5957 -9.22852 82.6172 -11.9141 82.6172 -15.9668 C 82.6172 -17.7734 83.0078 -18.9453 83.8379 -20.5566 L 97.7051 -48.1934 L 97.7051 -48.6816 L 83.5938 -48.6816 C 80.0781 -48.6816 77.0508 -50.7324 77.0508 -54.541 C 77.0508 -58.3496 79.9316 -60.4492 83.5938 -60.4492 L 103.174 -60.4492 C 109.277 -60.4492 111.914 -56.7383 111.914 -52.4414 C 111.914 -50.6836 111.523 -48.9746 110.693 -47.0215 L 96.1914 -14.5996 C 94.6777 -10.9863 93.0176 -9.22852 89.4531 -9.22852 Z"/>
  </g>
  <g id="Heavy-L" transform="matrix(1 0 0 1 2559.93 1556)">
   <path d="M 38.8184 25.4883 L 114.697 25.4883 C 129.346 25.4883 137.451 17.4316 137.451 2.88086 L 137.451 -73.2422 C 137.451 -87.793 129.346 -95.8496 114.697 -95.8496 L 38.8184 -95.8496 C 24.2188 -95.8496 16.0645 -87.793 16.0645 -73.2422 L 16.0645 2.88086 C 16.0645 17.4316 24.2188 25.4883 38.8184 25.4883 Z M 62.3535 -9.0332 C 58.6426 -9.0332 56.7383 -11.2305 56.7383 -15.4785 L 56.7383 -47.7051 L 56.4453 -47.7051 L 52.2461 -44.0918 C 50.6836 -42.5293 49.6582 -41.9434 47.8516 -41.9434 C 45.3125 -41.9434 43.1641 -44.1895 43.1641 -46.7773 C 43.1641 -49.0234 44.1406 -50.5859 46.1914 -52.4414 L 53.6133 -58.3984 C 56.5918 -60.9863 58.5449 -61.6699 61.0352 -61.6699 C 65.5273 -61.6699 68.0176 -58.9355 68.0176 -54.3945 L 68.0176 -15.4785 C 68.0176 -11.2305 66.0645 -9.0332 62.3535 -9.0332 Z M 87.5488 -8.98438 C 84.082 -8.98438 81.4453 -11.4258 81.4453 -15.0391 C 81.4453 -16.6504 81.7871 -17.6758 82.5195 -19.1406 L 97.998 -49.7559 L 97.998 -50.2441 L 81.5918 -50.2441 C 78.4668 -50.2441 75.7812 -52.0996 75.7812 -55.4688 C 75.7812 -58.8379 78.3203 -60.7422 81.5918 -60.7422 L 102.881 -60.7422 C 108.252 -60.7422 110.742 -57.373 110.742 -53.4668 C 110.742 -51.8555 110.4 -50.293 109.521 -48.3887 L 93.6035 -13.7695 C 92.1875 -10.5469 90.625 -8.98438 87.5488 -8.98438 Z"/>
  </g>
  <g id="Bold-L" transform="matrix(1 0 0 1 2264.37 1556)">
   <path d="M 37.5 24.3652 L 113.721 24.3652 C 127.637 24.3652 135.156 16.8945 135.156 3.07617 L 135.156 -73.3887 C 135.156 -87.207 127.637 -94.7266 113.721 -94.7266 L 37.5 -94.7266 C 23.6328 -94.7266 16.0645 -87.2559 16.0645 -73.3887 L 16.0645 3.07617 C 16.0645 16.8945 23.6328 24.3652 37.5 24.3652 Z M 60.4492 -8.78906 C 57.2754 -8.78906 55.5664 -10.7422 55.5664 -14.2578 L 55.5664 -49.707 L 55.2246 -49.707 L 49.7559 -45.3613 C 48.291 -44.043 47.4609 -43.6035 45.9473 -43.6035 C 43.7012 -43.6035 41.748 -45.6055 41.748 -47.9492 C 41.748 -49.9023 42.627 -51.3184 44.3848 -52.832 L 52.8809 -59.1309 C 55.5176 -61.3281 57.1777 -61.9141 59.4238 -61.9141 C 63.1836 -61.9141 65.3809 -59.5703 65.3809 -55.7617 L 65.3809 -14.2578 C 65.3809 -10.7422 63.623 -8.78906 60.4492 -8.78906 Z M 85.4004 -8.74023 C 82.4219 -8.74023 80.127 -10.8887 80.127 -13.9648 C 80.127 -15.3809 80.3711 -16.3086 81.0059 -17.5293 L 98.3398 -51.5137 L 98.3398 -52.002 L 79.3457 -52.002 C 76.6113 -52.002 74.4141 -53.6621 74.4141 -56.543 C 74.4141 -59.4238 76.5137 -61.084 79.3457 -61.084 L 102.49 -61.084 C 107.08 -61.084 109.424 -58.1543 109.424 -54.6387 C 109.424 -53.1738 109.131 -51.7578 108.252 -49.8535 L 90.625 -12.793 C 89.3555 -10.0586 87.9883 -8.74023 85.4004 -8.74023 Z"/>
  </g>
  <g id="Semibold-L" transform="matrix(1 0 0 1 1968.44 1556)">
   <path d="M 36.6211 23.584 L 113.037 23.584 C 126.514 23.584 133.594 16.5039 133.594 3.17383 L 133.594 -73.5352 C 133.594 -86.8164 126.514 -93.9453 113.037 -93.9453 L 36.6211 -93.9453 C 23.1934 -93.9453 16.0645 -86.8652 16.0645 -73.5352 L 16.0645 3.17383 C 16.0645 16.5527 23.1934 23.584 36.6211 23.584 Z M 59.1309 -8.64258 C 56.3477 -8.64258 54.7363 -10.4004 54.7363 -13.4277 L 54.7363 -51.0742 L 54.3945 -51.0742 L 48.0469 -46.2402 C 46.6309 -45.0684 45.9473 -44.7754 44.6289 -44.7754 C 42.5781 -44.7754 40.7715 -46.582 40.7715 -48.7793 C 40.7715 -50.5371 41.6016 -51.8066 43.1641 -53.0762 L 52.3926 -59.668 C 54.7363 -61.5234 56.2012 -62.1094 58.3496 -62.1094 C 61.5723 -62.1094 63.5742 -60.0098 63.5742 -56.7383 L 63.5742 -13.4277 C 63.5742 -10.4004 61.9629 -8.64258 59.1309 -8.64258 Z M 83.9355 -8.59375 C 81.25 -8.59375 79.1992 -10.5469 79.1992 -13.2324 C 79.1992 -14.5508 79.4434 -15.3809 79.9805 -16.4551 L 98.584 -52.7344 L 98.584 -53.2227 L 77.832 -53.2227 C 75.3418 -53.2227 73.4863 -54.7363 73.4863 -57.2754 C 73.4863 -59.8145 75.293 -61.3281 77.832 -61.3281 L 102.246 -61.3281 C 106.299 -61.3281 108.496 -58.6914 108.496 -55.4199 C 108.496 -54.0527 108.252 -52.7832 107.373 -50.9277 L 88.623 -12.1582 C 87.4512 -9.7168 86.1328 -8.59375 83.9355 -8.59375 Z"/>
  </g>
  <g id="Medium-L" transform="matrix(1 0 0 1 1672.31 1556)">
   <path d="M 35.9375 22.998 L 112.5 22.998 C 125.635 22.998 132.422 16.2109 132.422 3.27148 L 132.422 -73.6328 C 132.422 -86.5234 125.635 -93.3105 112.5 -93.3105 L 35.9375 -93.3105 C 22.9004 -93.3105 16.0645 -86.5723 16.0645 -73.6328 L 16.0645 3.27148 C 16.0645 16.2598 22.9004 22.998 35.9375 22.998 Z M 58.1055 -8.49609 C 55.6641 -8.49609 54.1016 -10.1074 54.1016 -12.793 L 54.1016 -52.0996 L 53.7598 -52.0996 L 46.7285 -46.9238 C 45.4102 -45.8496 44.7754 -45.6543 43.6523 -45.6543 C 41.748 -45.6543 40.0391 -47.3633 40.0391 -49.4141 C 40.0391 -51.0254 40.8203 -52.1973 42.2363 -53.2715 L 52.002 -60.0586 C 54.1992 -61.7188 55.4688 -62.2559 57.4707 -62.2559 C 60.3516 -62.2559 62.207 -60.3516 62.207 -57.4707 L 62.207 -12.793 C 62.207 -10.1074 60.6934 -8.49609 58.1055 -8.49609 Z M 82.8613 -8.44727 C 80.3711 -8.44727 78.5156 -10.2539 78.5156 -12.6953 C 78.5156 -13.8672 78.7109 -14.6484 79.248 -15.625 L 98.7305 -53.6621 L 98.7305 -54.1016 L 76.6602 -54.1016 C 74.4141 -54.1016 72.7539 -55.5664 72.7539 -57.8125 C 72.7539 -60.0586 74.3652 -61.5234 76.6602 -61.5234 L 102.051 -61.5234 C 105.664 -61.5234 107.812 -59.082 107.812 -56.0059 C 107.812 -54.7363 107.617 -53.5645 106.689 -51.709 L 87.0605 -11.6699 C 85.9863 -9.47266 84.7656 -8.44727 82.8613 -8.44727 Z"/>
  </g>
  <g id="Regular-L" transform="matrix(1 0 0 1 1376.38 1556)">
   <path d="M 35.0586 22.2168 L 111.816 22.2168 C 124.463 22.2168 130.859 15.8691 130.859 3.41797 L 130.859 -73.7305 C 130.859 -86.1816 124.463 -92.5293 111.816 -92.5293 L 35.0586 -92.5293 C 22.4609 -92.5293 16.0645 -86.2305 16.0645 -73.7305 L 16.0645 3.41797 C 16.0645 15.918 22.4609 22.2168 35.0586 22.2168 Z M 56.7871 -8.34961 C 54.7363 -8.34961 53.3203 -9.76562 53.3203 -11.9629 L 53.3203 -53.4668 L 52.9785 -53.4668 L 45.0195 -47.7539 C 43.75 -46.875 43.2617 -46.8262 42.334 -46.8262 C 40.6738 -46.8262 39.1113 -48.3398 39.1113 -50.1953 C 39.1113 -51.6602 39.7949 -52.6855 40.9668 -53.5645 L 51.5137 -60.5957 C 53.418 -61.9141 54.541 -62.4512 56.3965 -62.4512 C 58.7891 -62.4512 60.4004 -60.791 60.4004 -58.3984 L 60.4004 -11.9629 C 60.4004 -9.76562 59.0332 -8.34961 56.7871 -8.34961 Z M 81.3965 -8.30078 C 79.248 -8.30078 77.6367 -9.91211 77.6367 -11.9629 C 77.6367 -13.0371 77.7344 -13.6719 78.2227 -14.5508 L 98.9746 -54.834 L 98.9746 -55.3223 L 75.1465 -55.3223 C 73.1445 -55.3223 71.8262 -56.5918 71.8262 -58.4961 C 71.8262 -60.4492 73.1445 -61.7676 75.1465 -61.7676 L 101.758 -61.7676 C 104.883 -61.7676 106.934 -59.5703 106.934 -56.7871 C 106.934 -55.6152 106.738 -54.541 105.859 -52.7344 L 85.0586 -10.9863 C 84.082 -9.13086 82.959 -8.30078 81.3965 -8.30078 Z"/>
  </g>
  <g id="Light-L" transform="matrix(1 0 0 1 1080.5 1556)">
   <path d="M 34.0332 21.4355 L 111.23 21.4355 C 123.096 21.4355 129.199 15.2344 129.199 3.56445 L 129.199 -73.8281 C 129.199 -85.5469 123.096 -91.6992 111.23 -91.6992 L 34.0332 -91.6992 C 22.168 -91.6992 16.0645 -85.6445 16.0645 -73.8281 L 16.0645 3.56445 C 16.0645 15.3809 22.168 21.4355 34.0332 21.4355 Z M 55.8594 -8.78906 C 54.248 -8.78906 53.0762 -9.91211 53.0762 -11.6699 L 53.0762 -54.7363 L 52.7832 -54.7363 L 43.5059 -48.3398 C 42.5781 -47.7051 42.2363 -47.7051 41.5039 -47.7051 C 40.1367 -47.7051 38.916 -48.9258 38.916 -50.3906 C 38.916 -51.5137 39.4043 -52.3438 40.3809 -53.0273 L 51.7578 -60.5469 C 53.2227 -61.5234 54.1016 -61.9141 55.5664 -61.9141 C 57.4219 -61.9141 58.7402 -60.6445 58.7402 -58.6914 L 58.7402 -11.6699 C 58.7402 -9.91211 57.666 -8.78906 55.8594 -8.78906 Z M 79.9805 -8.74023 C 78.2227 -8.74023 77.002 -10.0586 77.002 -11.6699 C 77.002 -12.4512 77.1484 -12.9883 77.4902 -13.6719 L 99.0234 -55.8594 L 99.0234 -56.25 L 73.877 -56.25 C 72.2168 -56.25 71.1426 -57.2754 71.1426 -58.8379 C 71.1426 -60.4004 72.2168 -61.4746 73.877 -61.4746 L 101.025 -61.4746 C 103.613 -61.4746 105.371 -59.7656 105.371 -57.5195 C 105.371 -56.4941 105.176 -55.7129 104.443 -54.248 L 82.9102 -10.8887 C 82.1777 -9.375 81.25 -8.74023 79.9805 -8.74023 Z"/>
  </g>
  <g id="Thin-L" transform="matrix(1 0 0 1 784.889 1556)">
   <path d="M 32.666 20.3613 L 110.352 20.3613 C 121.24 20.3613 127.002 14.4531 127.002 3.75977 L 127.002 -73.9746 C 127.002 -84.7168 121.24 -90.5762 110.352 -90.5762 L 32.666 -90.5762 C 21.7773 -90.5762 16.0645 -84.8633 16.0645 -73.9746 L 16.0645 3.75977 C 16.0645 14.6484 21.7773 20.3613 32.666 20.3613 Z M 54.6875 -9.375 C 53.6621 -9.375 52.832 -10.1074 52.832 -11.2305 L 52.832 -56.4453 L 52.5879 -56.4453 L 41.4551 -49.1211 C 41.0156 -48.877 40.8203 -48.877 40.4297 -48.877 C 39.4531 -48.877 38.6719 -49.707 38.6719 -50.6348 C 38.6719 -51.3184 38.916 -51.8555 39.5996 -52.3438 L 52.0996 -60.4492 C 52.9297 -60.9863 53.4668 -61.1816 54.4434 -61.1816 C 55.6641 -61.1816 56.543 -60.4004 56.543 -59.1309 L 56.543 -11.2305 C 56.543 -10.1074 55.8594 -9.375 54.6875 -9.375 Z M 78.1738 -9.375 C 76.9043 -9.375 76.2207 -10.3027 76.2207 -11.2305 C 76.2207 -11.7188 76.3184 -12.1094 76.5137 -12.5 L 99.1211 -57.1777 L 99.1211 -57.4707 L 72.168 -57.4707 C 70.9961 -57.4707 70.2637 -58.2031 70.2637 -59.2773 C 70.2637 -60.3516 70.9961 -61.084 72.168 -61.084 L 100.049 -61.084 C 101.953 -61.084 103.271 -60.0586 103.271 -58.4473 C 103.271 -57.7148 103.076 -57.2266 102.637 -56.2012 L 80.127 -10.6934 C 79.6387 -9.76562 79.0527 -9.375 78.1738 -9.375 Z"/>
  </g>
  <g id="Ultralight-L" transform="matrix(1 0 0 1 488.739 1556)">
   <path d="M 31.9824 19.7754 L 109.961 19.7754 C 120.312 19.7754 125.879 14.0625 125.879 3.85742 L 125.879 -74.0723 C 125.879 -84.2773 120.312 -89.9902 109.961 -89.9902 L 31.9824 -89.9902 C 21.582 -89.9902 16.0645 -84.4727 16.0645 -74.0723 L 16.0645 3.85742 C 16.0645 14.2578 21.582 19.7754 31.9824 19.7754 Z M 77.2461 -9.66797 C 76.2207 -9.66797 75.7812 -10.4004 75.7812 -11.0352 C 75.7812 -11.377 75.8789 -11.6211 75.9766 -11.9141 L 99.1699 -57.8613 L 99.1699 -58.1055 L 71.3379 -58.1055 C 70.4102 -58.1055 69.8242 -58.6426 69.8242 -59.5215 C 69.8242 -60.3516 70.4102 -60.9375 71.3379 -60.9375 L 99.5605 -60.9375 C 101.074 -60.9375 102.197 -60.2051 102.197 -58.8867 C 102.197 -58.3008 102.002 -58.0078 101.66 -57.2266 L 78.6621 -10.5957 C 78.3691 -9.96094 77.9297 -9.66797 77.2461 -9.66797 Z M 54.0527 -9.66797 C 53.3203 -9.66797 52.6855 -10.2051 52.6855 -11.0352 L 52.6855 -57.3242 L 52.4414 -57.3242 L 40.4297 -49.5605 C 40.2344 -49.4629 40.0879 -49.4629 39.8438 -49.4629 C 39.0625 -49.4629 38.5254 -50.0977 38.5254 -50.7812 C 38.5254 -51.2207 38.623 -51.6602 39.209 -52.002 L 52.2949 -60.4004 C 52.7832 -60.6934 53.1738 -60.8398 53.8574 -60.8398 C 54.7363 -60.8398 55.4199 -60.3027 55.4199 -59.3262 L 55.4199 -11.0352 C 55.4199 -10.2051 54.9805 -9.66797 54.0527 -9.66797 Z"/>
  </g>
  <g id="Black-M" transform="matrix(1 0 0 1 2872.19 1126)">
   <path d="M 31.9824 13.5742 L 90.4297 13.5742 C 102.686 13.5742 109.961 6.29883 109.961 -5.95703 L 109.961 -64.4043 C 109.961 -76.6602 102.686 -83.9355 90.4297 -83.9355 L 31.9824 -83.9355 C 19.7266 -83.9355 12.4512 -76.6602 12.4512 -64.4043 L 12.4512 -5.95703 C 12.4512 6.29883 19.7266 13.5742 31.9824 13.5742 Z M 51.5137 -15.625 C 47.8027 -15.625 46.0938 -17.6758 46.0938 -22.0215 L 46.0938 -41.8457 L 45.8984 -41.8457 L 44.4336 -40.0391 C 43.1641 -38.5254 42.1387 -37.6953 40.2344 -37.6953 C 37.8418 -37.6953 36.0352 -39.7461 36.0352 -41.9922 C 36.0352 -44.0918 36.8164 -45.6055 38.916 -47.6074 L 43.0664 -51.709 C 45.8496 -54.3457 47.7539 -54.8828 49.9023 -54.8828 C 54.541 -54.8828 56.7871 -52.2461 56.7871 -47.6074 L 56.7871 -22.0215 C 56.7871 -17.6758 55.0781 -15.625 51.5137 -15.625 Z M 71.1426 -15.625 C 67.8223 -15.625 65.2832 -17.8711 65.2832 -21.3867 C 65.2832 -22.9004 65.6738 -23.877 66.3574 -25.293 L 75.3906 -43.75 L 75.3906 -44.043 L 66.7969 -44.043 C 63.7695 -44.043 60.9863 -45.752 60.9863 -49.1211 C 60.9863 -52.4902 63.5742 -54.248 66.7969 -54.248 L 80.0293 -54.248 C 85.4004 -54.248 87.4512 -51.0742 87.4512 -47.5586 C 87.4512 -46.1426 87.1094 -44.6777 86.5723 -43.3594 L 77.002 -20.3125 C 75.7324 -17.1875 74.4141 -15.625 71.1426 -15.625 Z"/>
  </g>
  <g id="Heavy-M" transform="matrix(1 0 0 1 2576.39 1126)">
   <path d="M 31.0059 12.6465 L 89.6484 12.6465 C 101.416 12.6465 108.154 5.9082 108.154 -5.81055 L 108.154 -64.5508 C 108.154 -76.2695 101.416 -83.0566 89.6484 -83.0566 L 31.0059 -83.0566 C 19.2383 -83.0566 12.4512 -76.3184 12.4512 -64.5508 L 12.4512 -5.81055 C 12.4512 5.9082 19.2383 12.6465 31.0059 12.6465 Z M 49.8535 -15.2832 C 46.582 -15.2832 45.0195 -17.1387 45.0195 -20.9473 L 45.0195 -43.457 L 44.7754 -43.457 L 42.3828 -41.1133 C 41.1621 -39.7461 40.2344 -39.1113 38.5742 -39.1113 C 36.4258 -39.1113 34.7168 -41.0156 34.7168 -43.1152 C 34.7168 -45.0195 35.498 -46.3867 37.3047 -48.0957 L 42.2852 -52.4414 C 44.8242 -54.7852 46.4844 -55.3223 48.584 -55.3223 C 52.5879 -55.3223 54.6387 -52.9297 54.6387 -48.877 L 54.6387 -20.9473 C 54.6387 -17.1387 53.0762 -15.2832 49.8535 -15.2832 Z M 69.4336 -15.2344 C 66.4062 -15.2344 64.1602 -17.334 64.1602 -20.459 C 64.1602 -21.8262 64.502 -22.7051 65.0879 -23.9746 L 75.6836 -45.166 L 75.6836 -45.5078 L 64.9414 -45.5078 C 62.207 -45.5078 59.8145 -47.0703 59.8145 -50.0488 C 59.8145 -53.0273 62.0605 -54.6387 64.9414 -54.6387 L 79.834 -54.6387 C 84.5703 -54.6387 86.5723 -51.7578 86.5723 -48.5352 C 86.5723 -47.168 86.2793 -45.8496 85.6934 -44.4336 L 74.6582 -19.4336 C 73.4863 -16.6504 72.2656 -15.2344 69.4336 -15.2344 Z"/>
  </g>
  <g id="Bold-M" transform="matrix(1 0 0 1 2280.68 1126)">
   <path d="M 29.8828 11.6699 L 88.7207 11.6699 C 99.9512 11.6699 106.152 5.46875 106.152 -5.66406 L 106.152 -64.6973 C 106.152 -75.8789 99.9512 -82.0312 88.7207 -82.0312 L 29.8828 -82.0312 C 18.6523 -82.0312 12.4512 -75.8789 12.4512 -64.6973 L 12.4512 -5.66406 C 12.4512 5.51758 18.6523 11.6699 29.8828 11.6699 Z M 47.998 -14.8926 C 45.2148 -14.8926 43.75 -16.5527 43.75 -19.7266 L 43.75 -45.2148 L 43.5059 -45.2148 L 40.0879 -42.334 C 38.916 -41.1133 38.1348 -40.6738 36.7676 -40.6738 C 34.8145 -40.6738 33.2031 -42.3828 33.2031 -44.3848 C 33.2031 -46.0449 33.9355 -47.2656 35.498 -48.6816 L 41.4062 -53.3203 C 43.7012 -55.2246 45.1172 -55.7617 47.0703 -55.7617 C 50.4395 -55.7617 52.2949 -53.7109 52.2949 -50.293 L 52.2949 -19.7266 C 52.2949 -16.5527 50.7812 -14.8926 47.998 -14.8926 Z M 67.4805 -14.8438 C 64.8926 -14.8438 62.8906 -16.6992 62.8906 -19.3848 C 62.8906 -20.6055 63.1348 -21.4355 63.7207 -22.5098 L 76.0254 -46.7773 L 76.0254 -47.168 L 62.8906 -47.168 C 60.498 -47.168 58.4961 -48.584 58.4961 -51.123 C 58.4961 -53.6133 60.4004 -55.0781 62.8906 -55.0781 L 79.6387 -55.0781 C 83.6914 -55.0781 85.5957 -52.5391 85.5957 -49.5605 C 85.5957 -48.3398 85.3516 -47.1191 84.668 -45.6543 L 72.0703 -18.4082 C 70.9961 -16.0156 69.8242 -14.8438 67.4805 -14.8438 Z"/>
  </g>
  <g id="Semibold-M" transform="matrix(1 0 0 1 1984.65 1126)">
   <path d="M 29.1016 10.9863 L 88.0859 10.9863 C 98.9746 10.9863 104.785 5.17578 104.785 -5.56641 L 104.785 -64.8438 C 104.785 -75.5859 98.9746 -81.3477 88.0859 -81.3477 L 29.1016 -81.3477 C 18.2617 -81.3477 12.4512 -75.5859 12.4512 -64.8438 L 12.4512 -5.56641 C 12.4512 5.22461 18.2617 10.9863 29.1016 10.9863 Z M 46.7285 -14.5996 C 44.2871 -14.5996 42.9199 -16.1621 42.9199 -18.8477 L 42.9199 -46.4844 L 42.6758 -46.4844 L 38.5254 -43.1641 C 37.3047 -42.0898 36.6699 -41.7969 35.498 -41.7969 C 33.7402 -41.7969 32.1777 -43.3594 32.1777 -45.2148 C 32.1777 -46.7773 32.9102 -47.9004 34.2773 -49.0234 L 40.8203 -53.9062 C 42.9199 -55.5664 44.1895 -56.0547 45.9961 -56.0547 C 48.9258 -56.0547 50.6348 -54.248 50.6348 -51.2695 L 50.6348 -18.8477 C 50.6348 -16.1621 49.2188 -14.5996 46.7285 -14.5996 Z M 66.1621 -14.5996 C 63.8184 -14.5996 62.0117 -16.2598 62.0117 -18.6523 C 62.0117 -19.7754 62.207 -20.5078 62.7441 -21.4844 L 76.2695 -47.9004 L 76.2695 -48.291 L 61.4258 -48.291 C 59.3262 -48.291 57.6172 -49.6094 57.6172 -51.8066 C 57.6172 -54.0527 59.2285 -55.3711 61.4258 -55.3711 L 79.541 -55.3711 C 83.1055 -55.3711 84.9609 -53.0762 84.9609 -50.293 C 84.9609 -49.1211 84.7168 -47.998 83.9844 -46.4844 L 70.2637 -17.7246 C 69.2383 -15.5762 68.1641 -14.5996 66.1621 -14.5996 Z"/>
  </g>
  <g id="Medium-M" transform="matrix(1 0 0 1 1688.47 1126)">
   <path d="M 28.5156 10.4492 L 87.6465 10.4492 C 98.2422 10.4492 103.711 4.98047 103.711 -5.46875 L 103.711 -64.8926 C 103.711 -75.3418 98.2422 -80.8105 87.6465 -80.8105 L 28.5156 -80.8105 C 17.9688 -80.8105 12.4512 -75.3906 12.4512 -64.8926 L 12.4512 -5.46875 C 12.4512 4.98047 17.9688 10.4492 28.5156 10.4492 Z M 45.8008 -14.4043 C 43.6035 -14.4043 42.2852 -15.8203 42.2852 -18.2129 L 42.2852 -47.4121 L 41.9922 -47.4121 L 37.3535 -43.7988 C 36.1328 -42.8223 35.5469 -42.627 34.5215 -42.627 C 32.9102 -42.627 31.3965 -44.0918 31.3965 -45.8984 C 31.3965 -47.3145 32.1289 -48.3398 33.3496 -49.3164 L 40.3809 -54.3457 C 42.2852 -55.8105 43.457 -56.2988 45.2148 -56.2988 C 47.8027 -56.2988 49.4141 -54.6387 49.4141 -52.0508 L 49.4141 -18.2129 C 49.4141 -15.8203 48.0469 -14.4043 45.8008 -14.4043 Z M 65.1855 -14.3555 C 63.0371 -14.3555 61.377 -15.918 61.377 -18.1152 C 61.377 -19.1406 61.5234 -19.8242 62.0117 -20.7031 L 76.416 -48.7305 L 76.416 -49.1699 L 60.3516 -49.1699 C 58.3984 -49.1699 56.9336 -50.3906 56.9336 -52.3926 C 56.9336 -54.3945 58.3496 -55.6152 60.3516 -55.6152 L 79.4434 -55.6152 C 82.6172 -55.6152 84.4238 -53.4668 84.4238 -50.8301 C 84.4238 -49.707 84.2285 -48.6816 83.4961 -47.1191 L 68.8965 -17.2363 C 67.9199 -15.2344 66.8945 -14.3555 65.1855 -14.3555 Z"/>
  </g>
  <g id="Regular-M" transform="matrix(1 0 0 1 1392.45 1126)">
   <path d="M 27.7832 9.76562 L 87.0117 9.76562 C 97.2656 9.76562 102.344 4.6875 102.344 -5.37109 L 102.344 -64.9902 C 102.344 -75.0488 97.2656 -80.127 87.0117 -80.127 L 27.7832 -80.127 C 17.5781 -80.127 12.4512 -75.0977 12.4512 -64.9902 L 12.4512 -5.37109 C 12.4512 4.73633 17.5781 9.76562 27.7832 9.76562 Z M 44.5312 -14.1602 C 42.6758 -14.1602 41.4062 -15.4297 41.4062 -17.3828 L 41.4062 -48.6328 L 41.1133 -48.6328 L 35.791 -44.6289 C 34.6191 -43.75 34.1309 -43.7012 33.3008 -43.7012 C 31.8359 -43.7012 30.4199 -45.0195 30.4199 -46.7285 C 30.4199 -48.0469 31.0547 -48.9746 32.0801 -49.707 L 39.7461 -54.9316 C 41.5527 -56.1523 42.5293 -56.6406 44.1895 -56.6406 C 46.3379 -56.6406 47.7539 -55.127 47.7539 -53.0273 L 47.7539 -17.3828 C 47.7539 -15.4297 46.4844 -14.1602 44.5312 -14.1602 Z M 63.8672 -14.1113 C 61.9629 -14.1113 60.498 -15.4785 60.498 -17.3828 C 60.498 -18.3594 60.5957 -18.9453 61.0352 -19.7266 L 76.6602 -49.8535 L 76.6602 -50.293 L 58.9844 -50.293 C 57.2266 -50.293 56.0547 -51.416 56.0547 -53.0762 C 56.0547 -54.7852 57.2266 -55.957 58.9844 -55.957 L 79.2969 -55.957 C 82.0312 -55.957 83.7891 -54.0039 83.7891 -51.5625 C 83.7891 -50.4883 83.5938 -49.5605 82.8125 -47.9492 L 67.1387 -16.5527 C 66.2109 -14.8438 65.2344 -14.1113 63.8672 -14.1113 Z"/>
  </g>
  <g id="Light-M" transform="matrix(1 0 0 1 1096.47 1126)">
   <path d="M 26.8555 9.0332 L 86.4746 9.0332 C 95.9961 9.0332 100.879 4.15039 100.879 -5.22461 L 100.879 -65.0879 C 100.879 -74.5117 95.9961 -79.3945 86.4746 -79.3945 L 26.8555 -79.3945 C 17.334 -79.3945 12.4512 -74.5605 12.4512 -65.0879 L 12.4512 -5.22461 C 12.4512 4.19922 17.334 9.0332 26.8555 9.0332 Z M 43.7012 -14.5508 C 42.2363 -14.5508 41.2598 -15.5762 41.2598 -17.0898 L 41.2598 -49.7559 L 40.9668 -49.7559 L 34.375 -45.1172 C 33.5449 -44.5312 33.2031 -44.4824 32.5684 -44.4824 C 31.3477 -44.4824 30.2246 -45.5566 30.2246 -46.9238 C 30.2246 -47.9004 30.7129 -48.6328 31.5918 -49.2676 L 39.9902 -54.8828 C 41.3574 -55.8105 42.1387 -56.1523 43.4082 -56.1523 C 45.1172 -56.1523 46.2891 -54.9805 46.2891 -53.2715 L 46.2891 -17.0898 C 46.2891 -15.5762 45.3125 -14.5508 43.7012 -14.5508 Z M 62.6465 -14.502 C 61.084 -14.502 59.9609 -15.6738 59.9609 -17.0898 C 59.9609 -17.8223 60.0586 -18.3105 60.3516 -18.8965 L 76.709 -50.7324 L 76.709 -51.123 L 57.8125 -51.123 C 56.3965 -51.123 55.4688 -52.002 55.4688 -53.3691 C 55.4688 -54.7852 56.3965 -55.6641 57.8125 -55.6641 L 78.6133 -55.6641 C 80.8594 -55.6641 82.373 -54.1504 82.373 -52.1484 C 82.373 -51.3184 82.2266 -50.5859 81.5918 -49.2676 L 65.2344 -16.4062 C 64.502 -15.0879 63.7207 -14.502 62.6465 -14.502 Z"/>
  </g>
  <g id="Thin-M" transform="matrix(1 0 0 1 800.758 1126)">
   <path d="M 25.6348 8.05664 L 85.7422 8.05664 C 94.3848 8.05664 98.877 3.4668 98.877 -5.0293 L 98.877 -65.2344 C 98.877 -73.7305 94.3848 -78.3691 85.7422 -78.3691 L 25.6348 -78.3691 C 16.9922 -78.3691 12.4512 -73.877 12.4512 -65.2344 L 12.4512 -5.0293 C 12.4512 3.56445 16.9922 8.05664 25.6348 8.05664 Z M 42.627 -15.0879 C 41.6992 -15.0879 41.0156 -15.7227 41.0156 -16.748 L 41.0156 -51.3184 L 40.7715 -51.3184 L 32.5684 -45.8496 C 32.1289 -45.5566 31.9336 -45.5566 31.543 -45.5566 C 30.7129 -45.5566 30.0293 -46.2891 30.0293 -47.1191 C 30.0293 -47.7539 30.2734 -48.2422 30.8594 -48.6328 L 40.2832 -54.7852 C 41.0645 -55.3223 41.6016 -55.5176 42.4316 -55.5176 C 43.5059 -55.5176 44.2871 -54.7852 44.2871 -53.6621 L 44.2871 -16.748 C 44.2871 -15.7227 43.7012 -15.0879 42.627 -15.0879 Z M 60.9863 -15.0391 C 59.9121 -15.0391 59.2285 -15.8691 59.2285 -16.748 C 59.2285 -17.1875 59.3262 -17.5293 59.4727 -17.8711 L 76.8066 -51.9531 L 76.8066 -52.1973 L 56.2988 -52.1973 C 55.3223 -52.1973 54.6387 -52.832 54.6387 -53.7598 C 54.6387 -54.7363 55.3223 -55.3711 56.2988 -55.3711 L 77.7344 -55.3711 C 79.3457 -55.3711 80.4688 -54.3945 80.4688 -53.0273 C 80.4688 -52.3926 80.3223 -51.9531 79.9316 -51.0742 L 62.6953 -16.2598 C 62.2559 -15.4297 61.7676 -15.0391 60.9863 -15.0391 Z"/>
  </g>
  <g id="Ultralight-M" transform="matrix(1 0 0 1 504.535 1126)">
   <path d="M 25 7.56836 L 85.3516 7.56836 C 93.5059 7.56836 97.9004 3.125 97.9004 -4.98047 L 97.9004 -65.2832 C 97.9004 -73.3887 93.5059 -77.832 85.3516 -77.832 L 25 -77.832 C 16.7969 -77.832 12.4512 -73.4863 12.4512 -65.2832 L 12.4512 -4.98047 C 12.4512 3.22266 16.7969 7.56836 25 7.56836 Z M 60.1562 -15.332 C 59.2773 -15.332 58.8867 -15.9668 58.8867 -16.5527 C 58.8867 -16.8457 58.9355 -17.0898 59.0332 -17.334 L 76.8555 -52.5879 L 76.8555 -52.7344 L 55.5176 -52.7344 C 54.7363 -52.7344 54.248 -53.2227 54.248 -53.9551 C 54.248 -54.6875 54.7363 -55.1758 55.5176 -55.1758 L 77.2949 -55.1758 C 78.6133 -55.1758 79.4922 -54.541 79.4922 -53.418 C 79.4922 -52.9297 79.3945 -52.6367 79.1016 -51.9531 L 61.4258 -16.1621 C 61.084 -15.5762 60.7422 -15.332 60.1562 -15.332 Z M 42.0898 -15.332 C 41.4062 -15.332 40.8691 -15.8203 40.8691 -16.5527 L 40.8691 -52.0996 L 40.6738 -52.0996 L 31.6406 -46.1914 C 31.3965 -46.0938 31.2988 -46.0938 31.0547 -46.0938 C 30.3711 -46.0938 29.8828 -46.6309 29.8828 -47.2168 C 29.8828 -47.6562 30.0293 -47.998 30.5176 -48.3398 L 40.4785 -54.7852 C 40.918 -55.0781 41.3086 -55.1758 41.8945 -55.1758 C 42.6758 -55.1758 43.3105 -54.6875 43.3105 -53.8574 L 43.3105 -16.5527 C 43.3105 -15.8203 42.8711 -15.332 42.0898 -15.332 Z"/>
  </g>
  <g id="Black-S" transform="matrix(1 0 0 1 2885.5 696)">
   <path d="M 25 2.92969 L 70.8008 2.92969 C 80.3711 2.92969 86.0352 -2.73438 86.0352 -12.3047 L 86.0352 -58.1055 C 86.0352 -67.6758 80.3711 -73.3398 70.8008 -73.3398 L 25 -73.3398 C 15.4297 -73.3398 9.76562 -67.6758 9.76562 -58.1055 L 9.76562 -12.3047 C 9.76562 -2.73438 15.4297 2.92969 25 2.92969 Z M 40.2344 -19.8242 C 37.3535 -19.8242 36.0352 -21.4355 36.0352 -24.8047 L 36.0352 -40.5273 L 35.8887 -40.5273 L 34.668 -39.0625 C 33.6914 -37.8906 32.8613 -37.2559 31.3965 -37.2559 C 29.541 -37.2559 28.125 -38.8672 28.125 -40.625 C 28.125 -42.2363 28.7598 -43.4082 30.3711 -44.9707 L 33.6914 -48.1934 C 35.8398 -50.2441 37.3047 -50.6836 39.0137 -50.6836 C 42.5781 -50.6836 44.3359 -48.6328 44.3359 -45.0195 L 44.3359 -24.8047 C 44.3359 -21.4355 43.0176 -19.8242 40.2344 -19.8242 Z M 55.6152 -19.8242 C 53.0273 -19.8242 51.0742 -21.582 51.0742 -24.3164 C 51.0742 -25.4883 51.3672 -26.2695 51.9043 -27.3438 L 59.082 -41.9922 L 59.082 -42.2363 L 52.1973 -42.2363 C 49.8535 -42.2363 47.7051 -43.5547 47.7051 -46.1914 C 47.7051 -48.7793 49.707 -50.1465 52.1973 -50.1465 L 62.6953 -50.1465 C 66.8457 -50.1465 68.457 -47.7051 68.457 -44.9707 C 68.457 -43.8477 68.2129 -42.7246 67.7734 -41.6504 L 60.1562 -23.4863 C 59.1797 -21.0449 58.1543 -19.8242 55.6152 -19.8242 Z"/>
  </g>
  <g id="Heavy-S" transform="matrix(1 0 0 1 2589.4 696)">
   <path d="M 24.3652 2.34375 L 70.2637 2.34375 C 79.541 2.34375 84.8145 -2.97852 84.8145 -12.207 L 84.8145 -58.2031 C 84.8145 -67.4316 79.541 -72.7539 70.2637 -72.7539 L 24.3652 -72.7539 C 15.0879 -72.7539 9.76562 -67.4316 9.76562 -58.2031 L 9.76562 -12.207 C 9.76562 -2.97852 15.0879 2.34375 24.3652 2.34375 Z M 39.0625 -19.5312 C 36.4746 -19.5312 35.2051 -20.9961 35.2051 -24.0234 L 35.2051 -41.6016 L 35.0586 -41.6016 L 33.252 -39.8438 C 32.2754 -38.7695 31.543 -38.2324 30.2246 -38.2324 C 28.5156 -38.2324 27.1484 -39.7461 27.1484 -41.4551 C 27.1484 -42.9688 27.7344 -44.043 29.1992 -45.4102 L 33.0566 -48.7793 C 35.1074 -50.6348 36.4258 -51.0254 38.0859 -51.0254 C 41.2109 -51.0254 42.8711 -49.1699 42.8711 -45.9473 L 42.8711 -24.0234 C 42.8711 -20.9961 41.6016 -19.5312 39.0625 -19.5312 Z M 54.4434 -19.4824 C 52.0508 -19.4824 50.293 -21.1426 50.293 -23.6328 C 50.293 -24.707 50.5371 -25.4395 51.0254 -26.416 L 59.3262 -43.0176 L 59.3262 -43.2617 L 50.9277 -43.2617 C 48.7793 -43.2617 46.875 -44.5312 46.875 -46.875 C 46.875 -49.2188 48.6328 -50.4883 50.9277 -50.4883 L 62.6465 -50.4883 C 66.3574 -50.4883 67.9688 -48.1934 67.9688 -45.6055 C 67.9688 -44.5312 67.7246 -43.5059 67.2363 -42.334 L 58.5938 -22.8027 C 57.666 -20.6055 56.6406 -19.4824 54.4434 -19.4824 Z"/>
  </g>
  <g id="Bold-S" transform="matrix(1 0 0 1 2293.35 696)">
   <path d="M 23.6328 1.66016 L 69.6289 1.66016 C 78.6133 1.66016 83.4961 -3.22266 83.4961 -12.1094 L 83.4961 -58.3008 C 83.4961 -67.1875 78.6133 -72.0703 69.6289 -72.0703 L 23.6328 -72.0703 C 14.6973 -72.0703 9.76562 -67.1875 9.76562 -58.3008 L 9.76562 -12.1094 C 9.76562 -3.22266 14.6973 1.66016 23.6328 1.66016 Z M 37.7441 -19.1895 C 35.498 -19.1895 34.2773 -20.5566 34.2773 -23.0957 L 34.2773 -42.8223 L 34.082 -42.8223 L 31.6895 -40.6738 C 30.6641 -39.6973 30.0293 -39.3555 28.9062 -39.3555 C 27.3438 -39.3555 26.0254 -40.7715 26.0254 -42.3828 C 26.0254 -43.7988 26.6113 -44.7754 27.8809 -45.8984 L 32.373 -49.4141 C 34.2285 -51.0254 35.4004 -51.4648 37.0117 -51.4648 C 39.7461 -51.4648 41.2598 -49.7559 41.2598 -47.0215 L 41.2598 -23.0957 C 41.2598 -20.5566 40.0391 -19.1895 37.7441 -19.1895 Z M 53.125 -19.1406 C 51.0254 -19.1406 49.3652 -20.6543 49.3652 -22.8516 C 49.3652 -23.877 49.5605 -24.5117 50 -25.3906 L 59.5703 -44.0918 L 59.5703 -44.4336 L 49.4629 -44.4336 C 47.5586 -44.4336 45.9473 -45.5566 45.9473 -47.6074 C 45.9473 -49.6582 47.4609 -50.8789 49.4629 -50.8789 L 62.5488 -50.8789 C 65.8203 -50.8789 67.3828 -48.7793 67.3828 -46.3379 C 67.3828 -45.3125 67.1875 -44.3359 66.6504 -43.1152 L 56.8359 -22.0703 C 55.957 -20.0684 54.9805 -19.1406 53.125 -19.1406 Z"/>
  </g>
  <g id="Semibold-S" transform="matrix(1 0 0 1 1997.1 696)">
   <path d="M 23.0957 1.17188 L 69.1895 1.17188 C 77.9297 1.17188 82.5684 -3.36914 82.5684 -12.0117 L 82.5684 -58.3984 C 82.5684 -67.041 77.9297 -71.582 69.1895 -71.582 L 23.0957 -71.582 C 14.4043 -71.582 9.76562 -67.041 9.76562 -58.3984 L 9.76562 -12.0117 C 9.76562 -3.36914 14.4043 1.17188 23.0957 1.17188 Z M 36.8652 -18.9453 C 34.8145 -18.9453 33.6426 -20.2148 33.6426 -22.4609 L 33.6426 -43.7012 L 33.4473 -43.7012 L 30.6152 -41.2598 C 29.541 -40.3809 29.0039 -40.1367 28.0273 -40.1367 C 26.5625 -40.1367 25.2441 -41.4551 25.2441 -43.0176 C 25.2441 -44.3359 25.8789 -45.2637 27.002 -46.2402 L 31.8848 -49.9023 C 33.6426 -51.3184 34.7168 -51.709 36.2793 -51.709 C 38.6719 -51.709 40.1367 -50.1953 40.1367 -47.7539 L 40.1367 -22.4609 C 40.1367 -20.2148 38.916 -18.9453 36.8652 -18.9453 Z M 52.1973 -18.8965 C 50.293 -18.8965 48.7305 -20.3125 48.7305 -22.3145 C 48.7305 -23.291 48.9258 -23.877 49.3164 -24.707 L 59.7168 -44.873 L 59.7168 -45.2148 L 48.4863 -45.2148 C 46.6797 -45.2148 45.3125 -46.3379 45.3125 -48.1445 C 45.3125 -50 46.6797 -51.123 48.4863 -51.123 L 62.5488 -51.123 C 65.4785 -51.123 66.9922 -49.1699 66.9922 -46.8262 C 66.9922 -45.8496 66.8457 -44.9219 66.2109 -43.6035 L 55.6152 -21.5332 C 54.7852 -19.7266 53.8574 -18.8965 52.1973 -18.8965 Z"/>
  </g>
  <g id="Medium-S" transform="matrix(1 0 0 1 1700.75 696)">
   <path d="M 22.7051 0.830078 L 68.8965 0.830078 C 77.4414 0.830078 81.8359 -3.51562 81.8359 -11.9629 L 81.8359 -58.4473 C 81.8359 -66.8945 77.4414 -71.2402 68.8965 -71.2402 L 22.7051 -71.2402 C 14.209 -71.2402 9.76562 -66.8945 9.76562 -58.4473 L 9.76562 -11.9629 C 9.76562 -3.51562 14.209 0.830078 22.7051 0.830078 Z M 36.1816 -18.75 C 34.2773 -18.75 33.1543 -19.9707 33.1543 -22.0215 L 33.1543 -44.3359 L 32.959 -44.3359 L 29.7852 -41.748 C 28.7109 -40.8691 28.2227 -40.7227 27.3438 -40.7227 C 25.9766 -40.7227 24.6582 -41.9922 24.6582 -43.5059 C 24.6582 -44.7754 25.293 -45.6543 26.3184 -46.4844 L 31.543 -50.2441 C 33.2031 -51.5137 34.2285 -51.9531 35.6934 -51.9531 C 37.8906 -51.9531 39.2578 -50.4883 39.2578 -48.291 L 39.2578 -22.0215 C 39.2578 -19.9707 38.0859 -18.75 36.1816 -18.75 Z M 51.5137 -18.7012 C 49.707 -18.7012 48.291 -20.0195 48.291 -21.9238 C 48.291 -22.8027 48.3887 -23.3887 48.8281 -24.1699 L 59.8633 -45.459 L 59.8633 -45.8008 L 47.7051 -45.8008 C 46.0449 -45.8008 44.8242 -46.875 44.8242 -48.5352 C 44.8242 -50.2441 46.0449 -51.3184 47.7051 -51.3184 L 62.5 -51.3184 C 65.1855 -51.3184 66.6992 -49.4629 66.6992 -47.2168 C 66.6992 -46.2891 66.5527 -45.3613 65.918 -44.043 L 54.6875 -21.1426 C 53.8574 -19.4824 52.9785 -18.7012 51.5137 -18.7012 Z"/>
  </g>
  <g id="Regular-S" transform="matrix(1 0 0 1 1404.51 696)">
   <path d="M 22.2168 0.390625 L 68.457 0.390625 C 76.8066 0.390625 80.9082 -3.71094 80.9082 -11.9141 L 80.9082 -58.4961 C 80.9082 -66.6992 76.8066 -70.8008 68.457 -70.8008 L 22.2168 -70.8008 C 13.916 -70.8008 9.76562 -66.6992 9.76562 -58.4961 L 9.76562 -11.9141 C 9.76562 -3.71094 13.916 0.390625 22.2168 0.390625 Z M 35.2539 -18.5059 C 33.6426 -18.5059 32.5195 -19.6289 32.5195 -21.3867 L 32.5195 -45.166 L 32.3242 -45.166 L 28.7109 -42.334 C 27.6367 -41.5039 27.1973 -41.5039 26.4648 -41.5039 C 25.1465 -41.5039 23.877 -42.6758 23.877 -44.1895 C 23.877 -45.3613 24.5117 -46.1426 25.3906 -46.8262 L 31.0547 -50.6836 C 32.6172 -51.8066 33.5449 -52.1973 35.0098 -52.1973 C 36.8652 -52.1973 38.1348 -50.9277 38.1348 -49.0234 L 38.1348 -21.3867 C 38.1348 -19.6289 37.0117 -18.5059 35.2539 -18.5059 Z M 50.6348 -18.457 C 48.9746 -18.457 47.6562 -19.6777 47.6562 -21.3867 C 47.6562 -22.2168 47.7539 -22.7539 48.1445 -23.4375 L 60.0098 -46.2402 L 60.0098 -46.6309 L 46.7285 -46.6309 C 45.2148 -46.6309 44.1895 -47.6074 44.1895 -49.0723 C 44.1895 -50.5859 45.2148 -51.5625 46.7285 -51.5625 L 62.4512 -51.5625 C 64.7949 -51.5625 66.3086 -49.8535 66.3086 -47.7051 C 66.3086 -46.8262 66.2109 -45.9473 65.4785 -44.5312 L 53.5156 -20.6543 C 52.7344 -19.1406 51.8066 -18.457 50.6348 -18.457 Z"/>
  </g>
  <g id="Light-S" transform="matrix(1 0 0 1 1108.46 696)">
   <path d="M 21.3867 -0.292969 L 67.9688 -0.292969 C 75.7324 -0.292969 79.5898 -4.15039 79.5898 -11.7676 L 79.5898 -58.5938 C 79.5898 -66.2109 75.7324 -70.1172 67.9688 -70.1172 L 21.3867 -70.1172 C 13.6719 -70.1172 9.76562 -66.2598 9.76562 -58.5938 L 9.76562 -11.7676 C 9.76562 -4.15039 13.6719 -0.292969 21.3867 -0.292969 Z M 34.5703 -18.8477 C 33.252 -18.8477 32.373 -19.7754 32.373 -21.1426 L 32.373 -46.1914 L 32.1777 -46.1914 L 27.4902 -42.7734 C 26.6602 -42.2363 26.3672 -42.1875 25.7812 -42.1875 C 24.7559 -42.1875 23.7305 -43.1152 23.7305 -44.3359 C 23.7305 -45.2148 24.2188 -45.8496 24.9512 -46.3867 L 31.25 -50.6348 C 32.4707 -51.4648 33.1543 -51.8066 34.3262 -51.8066 C 35.791 -51.8066 36.8164 -50.7812 36.8164 -49.2676 L 36.8164 -21.1426 C 36.8164 -19.7754 35.9375 -18.8477 34.5703 -18.8477 Z M 49.5605 -18.8477 C 48.1934 -18.8477 47.168 -19.8242 47.168 -21.1426 C 47.168 -21.7773 47.2656 -22.2168 47.5586 -22.7539 L 60.0586 -47.0215 L 60.0586 -47.3633 L 45.752 -47.3633 C 44.4824 -47.3633 43.6523 -48.1445 43.6523 -49.3164 C 43.6523 -50.5371 44.4824 -51.3672 45.752 -51.3672 L 61.8652 -51.3672 C 63.8184 -51.3672 65.0879 -50 65.0879 -48.2422 C 65.0879 -47.5098 64.9414 -46.875 64.4043 -45.752 L 51.8066 -20.5566 C 51.2207 -19.3359 50.4883 -18.8477 49.5605 -18.8477 Z"/>
  </g>
  <g id="Thin-S" transform="matrix(1 0 0 1 812.599 696)">
   <path d="M 20.3125 -1.12305 L 67.334 -1.12305 C 74.2676 -1.12305 77.8809 -4.78516 77.8809 -11.6211 L 77.8809 -58.6914 C 77.8809 -65.5762 74.2676 -69.2383 67.334 -69.2383 L 20.3125 -69.2383 C 13.3789 -69.2383 9.76562 -65.625 9.76562 -58.6914 L 9.76562 -11.6211 C 9.76562 -4.6875 13.3789 -1.12305 20.3125 -1.12305 Z M 33.5938 -19.3359 C 32.7637 -19.3359 32.1777 -19.9219 32.1777 -20.8008 L 32.1777 -47.5098 L 31.9824 -47.5098 L 25.8789 -43.4082 C 25.4395 -43.1152 25.2441 -43.1152 24.9023 -43.1152 C 24.1699 -43.1152 23.584 -43.75 23.584 -44.4824 C 23.584 -45.0684 23.7793 -45.5078 24.3164 -45.8496 L 31.4941 -50.5859 C 32.2266 -51.0742 32.666 -51.2207 33.4473 -51.2207 C 34.375 -51.2207 35.1074 -50.5859 35.1074 -49.6094 L 35.1074 -20.8008 C 35.1074 -19.9219 34.5215 -19.3359 33.5938 -19.3359 Z M 48.0957 -19.3359 C 47.168 -19.3359 46.5332 -20.0195 46.5332 -20.8008 C 46.5332 -21.2402 46.6309 -21.4844 46.7773 -21.8262 L 60.1562 -48.0957 L 60.1562 -48.291 L 44.3848 -48.291 C 43.5547 -48.291 42.9688 -48.877 42.9688 -49.6582 C 42.9688 -50.5371 43.5547 -51.0742 44.3848 -51.0742 L 61.084 -51.0742 C 62.4512 -51.0742 63.4277 -50.1953 63.4277 -48.9746 C 63.4277 -48.4863 63.2812 -48.0469 62.9395 -47.3145 L 49.6094 -20.4102 C 49.2188 -19.6289 48.7793 -19.3359 48.0957 -19.3359 Z"/>
  </g>
  <g id="Ultralight-S" transform="matrix(1 0 0 1 516.352 696)">
   <path d="M 19.7754 -1.5625 L 66.9922 -1.5625 C 73.5352 -1.5625 76.9531 -5.12695 76.9531 -11.5234 L 76.9531 -58.7891 C 76.9531 -65.2344 73.5352 -68.75 66.9922 -68.75 L 19.7754 -68.75 C 13.2324 -68.75 9.76562 -65.2832 9.76562 -58.7891 L 9.76562 -11.5234 C 9.76562 -5.0293 13.2324 -1.5625 19.7754 -1.5625 Z M 33.1055 -19.5801 C 32.5195 -19.5801 32.0801 -20.0195 32.0801 -20.6543 L 32.0801 -48.2422 L 31.8848 -48.2422 L 25.0488 -43.75 C 24.8047 -43.6035 24.707 -43.6035 24.4629 -43.6035 C 23.877 -43.6035 23.4375 -44.0918 23.4375 -44.6289 C 23.4375 -44.9707 23.584 -45.3125 23.9746 -45.5566 L 31.6406 -50.5371 C 32.1289 -50.8301 32.4219 -50.9277 32.959 -50.9277 C 33.6426 -50.9277 34.1797 -50.4883 34.1797 -49.7559 L 34.1797 -20.6543 C 34.1797 -20.0195 33.7891 -19.5801 33.1055 -19.5801 Z M 47.3633 -19.5801 C 46.6309 -19.5801 46.2402 -20.1172 46.2402 -20.6543 C 46.2402 -20.8984 46.2891 -21.1426 46.3867 -21.3379 L 60.2051 -48.6328 L 60.2051 -48.8281 L 43.7012 -48.8281 C 43.0176 -48.8281 42.627 -49.2188 42.627 -49.8535 C 42.627 -50.4883 43.0176 -50.9277 43.7012 -50.9277 L 60.6934 -50.9277 C 61.7676 -50.9277 62.5488 -50.293 62.5488 -49.3652 C 62.5488 -48.9746 62.4512 -48.6816 62.207 -48.0957 L 48.4375 -20.3125 C 48.1934 -19.7754 47.8516 -19.5801 47.3633 -19.5801 Z"/>
  </g>
 </g>
</svg>
