<?xml version="1.0" encoding="UTF-8"?>
<!--Generator: Apple Native CoreSVG 148-->
<!DOCTYPE svg
PUBLIC "-//W3C//DTD SVG 1.1//EN"
       "http://www.w3.org/Graphics/SVG/1.1/DTD/svg11.dtd">
<svg version="1.1" xmlns="http://www.w3.org/2000/svg" xmlns:xlink="http://www.w3.org/1999/xlink" width="3300" height="2200">
 <!--glyph: "uni100528.medium", point size: 100.000000, font version: "Version 16.0d11e1", template writer version: "8"-->
 <g id="Notes">
  <rect height="2200" id="artboard" style="fill:white;opacity:1" width="3300" x="0" y="0"/>
  <line id="" style="fill:none;stroke:black;opacity:1;stroke-width:0.5;" x1="263" x2="3036" y1="292" y2="292"/>
  <text style="stroke:none;fill:black;font-family:-apple-system,&quot;SF Pro Display&quot;,&quot;SF Pro Text&quot;,Helvetica,sans-serif;font-weight:bold;" transform="matrix(1 0 0 1 263 322)">Weight/Scale Variations</text>
  <text style="stroke:none;fill:black;font-family:-apple-system,&quot;SF Pro Display&quot;,&quot;SF Pro Text&quot;,Helvetica,sans-serif;text-anchor:middle;" transform="matrix(1 0 0 1 559.711 322)">Ultralight</text>
  <text style="stroke:none;fill:black;font-family:-apple-system,&quot;SF Pro Display&quot;,&quot;SF Pro Text&quot;,Helvetica,sans-serif;text-anchor:middle;" transform="matrix(1 0 0 1 856.422 322)">Thin</text>
  <text style="stroke:none;fill:black;font-family:-apple-system,&quot;SF Pro Display&quot;,&quot;SF Pro Text&quot;,Helvetica,sans-serif;text-anchor:middle;" transform="matrix(1 0 0 1 1153.13 322)">Light</text>
  <text style="stroke:none;fill:black;font-family:-apple-system,&quot;SF Pro Display&quot;,&quot;SF Pro Text&quot;,Helvetica,sans-serif;text-anchor:middle;" transform="matrix(1 0 0 1 1449.84 322)">Regular</text>
  <text style="stroke:none;fill:black;font-family:-apple-system,&quot;SF Pro Display&quot;,&quot;SF Pro Text&quot;,Helvetica,sans-serif;text-anchor:middle;" transform="matrix(1 0 0 1 1746.56 322)">Medium</text>
  <text style="stroke:none;fill:black;font-family:-apple-system,&quot;SF Pro Display&quot;,&quot;SF Pro Text&quot;,Helvetica,sans-serif;text-anchor:middle;" transform="matrix(1 0 0 1 2043.27 322)">Semibold</text>
  <text style="stroke:none;fill:black;font-family:-apple-system,&quot;SF Pro Display&quot;,&quot;SF Pro Text&quot;,Helvetica,sans-serif;text-anchor:middle;" transform="matrix(1 0 0 1 2339.98 322)">Bold</text>
  <text style="stroke:none;fill:black;font-family:-apple-system,&quot;SF Pro Display&quot;,&quot;SF Pro Text&quot;,Helvetica,sans-serif;text-anchor:middle;" transform="matrix(1 0 0 1 2636.69 322)">Heavy</text>
  <text style="stroke:none;fill:black;font-family:-apple-system,&quot;SF Pro Display&quot;,&quot;SF Pro Text&quot;,Helvetica,sans-serif;text-anchor:middle;" transform="matrix(1 0 0 1 2933.4 322)">Black</text>
  <line id="" style="fill:none;stroke:black;opacity:1;stroke-width:0.5;" x1="263" x2="3036" y1="1903" y2="1903"/>
  <g id="" transform="matrix(1 0 0 1 263 1933)">
   <path d="M 9.24805 0.830078 C 13.5547 0.830078 17.1387 -2.74414 17.1387 -7.05078 C 17.1387 -11.3574 13.5449 -14.9316 9.23828 -14.9316 C 4.94141 -14.9316 1.36719 -11.3574 1.36719 -7.05078 C 1.36719 -2.74414 4.95117 0.830078 9.24805 0.830078 Z M 9.24805 -0.654297 C 5.70312 -0.654297 2.87109 -3.49609 2.87109 -7.05078 C 2.87109 -10.6055 5.69336 -13.4473 9.23828 -13.4473 C 12.793 -13.4473 15.6348 -10.6055 15.6445 -7.05078 C 15.6543 -3.49609 12.8027 -0.654297 9.24805 -0.654297 Z M 9.22852 -3.62305 C 9.69727 -3.62305 9.9707 -3.93555 9.9707 -4.45312 L 9.9707 -6.31836 L 12.002 -6.31836 C 12.5 -6.31836 12.832 -6.57227 12.832 -7.04102 C 12.832 -7.51953 12.5195 -7.7832 12.002 -7.7832 L 9.9707 -7.7832 L 9.9707 -9.81445 C 9.9707 -10.332 9.69727 -10.6543 9.22852 -10.6543 C 8.75977 -10.6543 8.50586 -10.3125 8.50586 -9.81445 L 8.50586 -7.7832 L 6.49414 -7.7832 C 5.97656 -7.7832 5.64453 -7.51953 5.64453 -7.04102 C 5.64453 -6.57227 5.99609 -6.31836 6.49414 -6.31836 L 8.50586 -6.31836 L 8.50586 -4.45312 C 8.50586 -3.95508 8.75977 -3.62305 9.22852 -3.62305 Z"/>
  </g>
  <g id="" transform="matrix(1 0 0 1 281.506 1933)">
   <path d="M 11.709 2.91016 C 17.1582 2.91016 21.6699 -1.61133 21.6699 -7.05078 C 21.6699 -12.5 17.1484 -17.0117 11.6992 -17.0117 C 6.25977 -17.0117 1.74805 -12.5 1.74805 -7.05078 C 1.74805 -1.61133 6.26953 2.91016 11.709 2.91016 Z M 11.709 1.25 C 7.09961 1.25 3.41797 -2.44141 3.41797 -7.05078 C 3.41797 -11.6602 7.08984 -15.3516 11.6992 -15.3516 C 16.3086 -15.3516 20 -11.6602 20.0098 -7.05078 C 20.0195 -2.44141 16.3184 1.25 11.709 1.25 Z M 11.6797 -2.66602 C 12.207 -2.66602 12.5098 -3.01758 12.5098 -3.59375 L 12.5098 -6.23047 L 15.3223 -6.23047 C 15.8691 -6.23047 16.25 -6.51367 16.25 -7.03125 C 16.25 -7.55859 15.8887 -7.86133 15.3223 -7.86133 L 12.5098 -7.86133 L 12.5098 -10.6836 C 12.5098 -11.25 12.207 -11.6113 11.6797 -11.6113 C 11.1621 -11.6113 10.8789 -11.2305 10.8789 -10.6836 L 10.8789 -7.86133 L 8.07617 -7.86133 C 7.50977 -7.86133 7.13867 -7.55859 7.13867 -7.03125 C 7.13867 -6.51367 7.5293 -6.23047 8.07617 -6.23047 L 10.8789 -6.23047 L 10.8789 -3.59375 C 10.8789 -3.03711 11.1621 -2.66602 11.6797 -2.66602 Z"/>
  </g>
  <g id="" transform="matrix(1 0 0 1 304.924 1933)">
   <path d="M 14.9707 5.66406 C 21.9336 5.66406 27.6953 -0.0976562 27.6953 -7.05078 C 27.6953 -14.0137 21.9238 -19.7754 14.9609 -19.7754 C 8.00781 -19.7754 2.25586 -14.0137 2.25586 -7.05078 C 2.25586 -0.0976562 8.01758 5.66406 14.9707 5.66406 Z M 14.9707 3.84766 C 8.93555 3.84766 4.08203 -1.01562 4.08203 -7.05078 C 4.08203 -13.0957 8.92578 -17.9492 14.9609 -17.9492 C 21.0059 -17.9492 25.8594 -13.0957 25.8691 -7.05078 C 25.8789 -1.01562 21.0156 3.84766 14.9707 3.84766 Z M 14.9414 -1.38672 C 15.5176 -1.38672 15.8594 -1.77734 15.8594 -2.38281 L 15.8594 -6.13281 L 19.7754 -6.13281 C 20.3711 -6.13281 20.7812 -6.46484 20.7812 -7.02148 C 20.7812 -7.59766 20.3906 -7.93945 19.7754 -7.93945 L 15.8594 -7.93945 L 15.8594 -11.8652 C 15.8594 -12.4805 15.5176 -12.8711 14.9414 -12.8711 C 14.375 -12.8711 14.0527 -12.4609 14.0527 -11.8652 L 14.0527 -7.93945 L 10.1465 -7.93945 C 9.53125 -7.93945 9.13086 -7.59766 9.13086 -7.02148 C 9.13086 -6.46484 9.55078 -6.13281 10.1465 -6.13281 L 14.0527 -6.13281 L 14.0527 -2.38281 C 14.0527 -1.79688 14.375 -1.38672 14.9414 -1.38672 Z"/>
  </g>
  <text style="stroke:none;fill:black;font-family:-apple-system,&quot;SF Pro Display&quot;,&quot;SF Pro Text&quot;,Helvetica,sans-serif;font-weight:bold;" transform="matrix(1 0 0 1 263 1953)">Design Variations</text>
  <text style="stroke:none;fill:black;font-family:-apple-system,&quot;SF Pro Display&quot;,&quot;SF Pro Text&quot;,Helvetica,sans-serif;" transform="matrix(1 0 0 1 263 1971)">Symbols are supported in up to nine weights and three scales.</text>
  <text style="stroke:none;fill:black;font-family:-apple-system,&quot;SF Pro Display&quot;,&quot;SF Pro Text&quot;,Helvetica,sans-serif;" transform="matrix(1 0 0 1 263 1989)">For optimal layout with text and other symbols, vertically align</text>
  <text style="stroke:none;fill:black;font-family:-apple-system,&quot;SF Pro Display&quot;,&quot;SF Pro Text&quot;,Helvetica,sans-serif;" transform="matrix(1 0 0 1 263 2007)">symbols with the adjacent text.</text>
  <line id="" style="fill:none;stroke:#00AEEF;stroke-width:0.5;opacity:1.0;" x1="776" x2="776" y1="1919" y2="1933"/>
  <g id="" transform="matrix(1 0 0 1 776 1933)">
   <path d="M 3.31055 0.126953 C 3.82812 0.126953 4.08203 -0.0683594 4.26758 -0.605469 L 5.52734 -4.0625 L 11.2891 -4.0625 L 12.5488 -0.605469 C 12.7344 -0.0683594 12.9883 0.126953 13.4961 0.126953 C 14.0137 0.126953 14.3457 -0.185547 14.3457 -0.673828 C 14.3457 -0.839844 14.3164 -0.986328 14.2383 -1.20117 L 9.6582 -13.3887 C 9.43359 -13.9941 9.0332 -14.2871 8.4082 -14.2871 C 7.80273 -14.2871 7.39258 -13.9941 7.17773 -13.3984 L 2.59766 -1.19141 C 2.51953 -0.976562 2.49023 -0.830078 2.49023 -0.664062 C 2.49023 -0.175781 2.80273 0.126953 3.31055 0.126953 Z M 6.00586 -5.53711 L 8.37891 -12.1094 L 8.42773 -12.1094 L 10.8008 -5.53711 Z"/>
  </g>
  <line id="" style="fill:none;stroke:#00AEEF;stroke-width:0.5;opacity:1.0;" x1="792.836" x2="792.836" y1="1919" y2="1933"/>
  <text style="stroke:none;fill:black;font-family:-apple-system,&quot;SF Pro Display&quot;,&quot;SF Pro Text&quot;,Helvetica,sans-serif;font-weight:bold;" transform="matrix(1 0 0 1 776 1953)">Margins</text>
  <text style="stroke:none;fill:black;font-family:-apple-system,&quot;SF Pro Display&quot;,&quot;SF Pro Text&quot;,Helvetica,sans-serif;" transform="matrix(1 0 0 1 776 1971)">Leading and trailing margins on the left and right side of each symbol</text>
  <text style="stroke:none;fill:black;font-family:-apple-system,&quot;SF Pro Display&quot;,&quot;SF Pro Text&quot;,Helvetica,sans-serif;" transform="matrix(1 0 0 1 776 1989)">can be adjusted by modifying the x-location of the margin guidelines.</text>
  <text style="stroke:none;fill:black;font-family:-apple-system,&quot;SF Pro Display&quot;,&quot;SF Pro Text&quot;,Helvetica,sans-serif;" transform="matrix(1 0 0 1 776 2007)">Modifications are automatically applied proportionally to all</text>
  <text style="stroke:none;fill:black;font-family:-apple-system,&quot;SF Pro Display&quot;,&quot;SF Pro Text&quot;,Helvetica,sans-serif;" transform="matrix(1 0 0 1 776 2025)">scales and weights.</text>
  <g id="" transform="matrix(1 0 0 1 1289 1933)">
   <path d="M 2.8418 1.86523 L 4.54102 3.57422 C 5.40039 4.44336 6.38672 4.38477 7.31445 3.35938 L 17.4902 -7.85156 C 17.7539 -7.76367 18.0273 -7.7832 18.3398 -7.8418 L 19.4043 -8.03711 L 20.0684 -7.36328 L 20.0293 -6.80664 C 19.9902 -6.30859 20.1172 -5.92773 20.6055 -5.44922 L 21.3672 -4.70703 C 21.8457 -4.22852 22.4609 -4.19922 22.9297 -4.66797 L 25.8398 -7.58789 C 26.3086 -8.05664 26.2891 -8.65234 25.8105 -9.13086 L 25.0391 -9.89258 C 24.5605 -10.3711 24.1895 -10.5273 23.7109 -10.4883 L 23.1348 -10.4395 L 22.4902 -11.0742 L 22.7344 -12.1973 C 22.8613 -12.7637 22.7051 -13.2031 22.1191 -13.7891 L 19.9219 -15.9766 C 16.582 -19.2969 12.1484 -19.2188 9.25781 -16.3281 C 8.83789 -15.918 8.80859 -15.3418 9.04297 -14.9512 C 9.27734 -14.5898 9.73633 -14.3555 10.3809 -14.5215 C 11.8457 -14.8633 13.3691 -14.9219 14.7949 -13.9844 L 14.209 -12.5293 C 14.0137 -12.0508 13.9844 -11.6504 14.1113 -11.2891 L 3.04688 -0.898438 C 2.06055 0.0195312 1.98242 0.996094 2.8418 1.86523 Z M 10.752 -15.957 C 13.1836 -17.7344 16.4746 -17.4316 18.7012 -15.2051 L 21.1328 -12.793 C 21.3672 -12.5586 21.4062 -12.373 21.3379 -12.0312 L 21.0156 -10.5469 L 22.5195 -9.0625 L 23.5059 -9.12109 C 23.7598 -9.13086 23.8379 -9.11133 24.0332 -8.91602 L 24.6094 -8.33984 L 22.168 -5.89844 L 21.5918 -6.47461 C 21.3965 -6.66992 21.3672 -6.74805 21.377 -7.01172 L 21.4453 -7.98828 L 19.9512 -9.47266 L 18.4277 -9.21875 C 18.1055 -9.15039 17.959 -9.17969 17.7148 -9.41406 L 15.7129 -11.416 C 15.459 -11.6504 15.4297 -11.8164 15.5859 -12.1875 L 16.4648 -14.2773 C 14.9023 -15.7324 12.8711 -16.3574 10.8398 -15.7617 C 10.6836 -15.7227 10.625 -15.8496 10.752 -15.957 Z M 5.27344 2.30469 L 4.10156 1.14258 C 3.63281 0.683594 3.74023 0.341797 4.14062 -0.0195312 L 14.9512 -10.1953 L 16.416 -8.71094 L 6.42578 2.27539 C 6.07422 2.67578 5.74219 2.77344 5.27344 2.30469 Z"/>
  </g>
  <text style="stroke:none;fill:black;font-family:-apple-system,&quot;SF Pro Display&quot;,&quot;SF Pro Text&quot;,Helvetica,sans-serif;font-weight:bold;" transform="matrix(1 0 0 1 1289 1953)">Exporting</text>
  <text style="stroke:none;fill:black;font-family:-apple-system,&quot;SF Pro Display&quot;,&quot;SF Pro Text&quot;,Helvetica,sans-serif;" transform="matrix(1 0 0 1 1289 1971)">Symbols should be outlined when exporting to ensure the</text>
  <text style="stroke:none;fill:black;font-family:-apple-system,&quot;SF Pro Display&quot;,&quot;SF Pro Text&quot;,Helvetica,sans-serif;" transform="matrix(1 0 0 1 1289 1989)">design is preserved when submitting to Xcode.</text>
  <text id="template-version" style="stroke:none;fill:black;font-family:-apple-system,&quot;SF Pro Display&quot;,&quot;SF Pro Text&quot;,Helvetica,sans-serif;text-anchor:end;" transform="matrix(1 0 0 1 3036 1933)">Template v.2.0</text>
  <text style="stroke:none;fill:black;font-family:-apple-system,&quot;SF Pro Display&quot;,&quot;SF Pro Text&quot;,Helvetica,sans-serif;text-anchor:end;" transform="matrix(1 0 0 1 3036 1951)">Requires Xcode 12 or greater</text>
  <text style="stroke:none;fill:black;font-family:-apple-system,&quot;SF Pro Display&quot;,&quot;SF Pro Text&quot;,Helvetica,sans-serif;text-anchor:end;" transform="matrix(1 0 0 1 3036 1969)">Generated from 30.circle.fill</text>
  <text style="stroke:none;fill:black;font-family:-apple-system,&quot;SF Pro Display&quot;,&quot;SF Pro Text&quot;,Helvetica,sans-serif;text-anchor:end;" transform="matrix(1 0 0 1 3036 1987)">Typeset at 100 points</text>
  <text style="stroke:none;fill:black;font-family:-apple-system,&quot;SF Pro Display&quot;,&quot;SF Pro Text&quot;,Helvetica,sans-serif;" transform="matrix(1 0 0 1 263 726)">Small</text>
  <text style="stroke:none;fill:black;font-family:-apple-system,&quot;SF Pro Display&quot;,&quot;SF Pro Text&quot;,Helvetica,sans-serif;" transform="matrix(1 0 0 1 263 1156)">Medium</text>
  <text style="stroke:none;fill:black;font-family:-apple-system,&quot;SF Pro Display&quot;,&quot;SF Pro Text&quot;,Helvetica,sans-serif;" transform="matrix(1 0 0 1 263 1586)">Large</text>
 </g>
 <g id="Guides">
  <g id="H-reference" style="fill:#27AAE1;stroke:none;" transform="matrix(1 0 0 1 339 696)">
   <path d="M 0.976562 0 L 3.66211 0 L 12.9883 -24.4629 L 45.7031 -24.4629 L 55.0781 0 L 57.7148 0 L 30.6152 -70.459 L 28.125 -70.459 Z M 29.2969 -67.1387 L 29.3945 -67.1387 L 44.873 -26.709 L 13.8672 -26.709 Z"/>
  </g>
  <line id="Baseline-S" style="fill:none;stroke:#27AAE1;opacity:1;stroke-width:0.5;" x1="263" x2="3036" y1="696" y2="696"/>
  <line id="Capline-S" style="fill:none;stroke:#27AAE1;opacity:1;stroke-width:0.5;" x1="263" x2="3036" y1="625.541" y2="625.541"/>
  <g id="H-reference" style="fill:#27AAE1;stroke:none;" transform="matrix(1 0 0 1 339 1126)">
   <path d="M 0.976562 0 L 3.66211 0 L 12.9883 -24.4629 L 45.7031 -24.4629 L 55.0781 0 L 57.7148 0 L 30.6152 -70.459 L 28.125 -70.459 Z M 29.2969 -67.1387 L 29.3945 -67.1387 L 44.873 -26.709 L 13.8672 -26.709 Z"/>
  </g>
  <line id="Baseline-M" style="fill:none;stroke:#27AAE1;opacity:1;stroke-width:0.5;" x1="263" x2="3036" y1="1126" y2="1126"/>
  <line id="Capline-M" style="fill:none;stroke:#27AAE1;opacity:1;stroke-width:0.5;" x1="263" x2="3036" y1="1055.54" y2="1055.54"/>
  <g id="H-reference" style="fill:#27AAE1;stroke:none;" transform="matrix(1 0 0 1 339 1556)">
   <path d="M 0.976562 0 L 3.66211 0 L 12.9883 -24.4629 L 45.7031 -24.4629 L 55.0781 0 L 57.7148 0 L 30.6152 -70.459 L 28.125 -70.459 Z M 29.2969 -67.1387 L 29.3945 -67.1387 L 44.873 -26.709 L 13.8672 -26.709 Z"/>
  </g>
  <line id="Baseline-L" style="fill:none;stroke:#27AAE1;opacity:1;stroke-width:0.5;" x1="263" x2="3036" y1="1556" y2="1556"/>
  <line id="Capline-L" style="fill:none;stroke:#27AAE1;opacity:1;stroke-width:0.5;" x1="263" x2="3036" y1="1485.54" y2="1485.54"/>
  <line id="left-margin" style="fill:none;stroke:#00AEEF;stroke-width:0.5;opacity:1.0;" x1="1391.3" x2="1391.3" y1="1030.79" y2="1150.12"/>
  <line id="right-margin" style="fill:none;stroke:#00AEEF;stroke-width:0.5;opacity:1.0;" x1="1508.39" x2="1508.39" y1="1030.79" y2="1150.12"/>
 </g>
 <g id="Symbols">
  <g id="Black-L" transform="matrix(1 0 0 1 2854.05 1556)">
   <path d="M 79.3457 32.8613 C 116.748 32.8613 147.412 2.19727 147.412 -35.2051 C 147.412 -72.6074 116.748 -103.271 79.2969 -103.271 C 41.8945 -103.271 11.2793 -72.6074 11.2793 -35.2051 C 11.2793 2.19727 41.9434 32.8613 79.3457 32.8613 Z M 99.2676 -9.0332 C 88.8672 -9.0332 81.9824 -17.1387 81.9824 -35.3027 C 81.9824 -53.418 88.8672 -61.5723 99.2676 -61.5723 C 109.57 -61.5723 116.895 -53.418 116.895 -35.3027 C 116.895 -17.1387 109.57 -9.0332 99.2676 -9.0332 Z M 58.9844 -9.0332 C 51.123 -9.0332 44.2871 -13.8672 42.7734 -19.1406 C 42.4316 -20.166 42.1875 -21.1914 42.1875 -22.2656 C 42.1875 -25.8301 44.9219 -27.7832 47.5098 -27.7832 C 49.9512 -27.7832 51.5625 -26.709 52.7832 -24.707 C 54.3457 -22.0215 56.5918 -20.7031 59.2285 -20.7031 C 62.1582 -20.7031 64.1602 -22.8027 64.1602 -25.1465 C 64.1602 -27.9785 62.2559 -29.7852 59.082 -29.7852 L 58.0566 -29.7852 C 54.1504 -29.7852 52.2949 -32.2266 52.2949 -35.6445 C 52.2949 -39.1113 54.4434 -41.4551 58.0566 -41.4551 L 58.9844 -41.4551 C 61.9141 -41.4551 63.3789 -43.6035 63.3789 -45.8496 C 63.3789 -48.584 61.5234 -50.293 58.9355 -50.293 C 56.3477 -50.293 54.6387 -49.0723 53.1738 -46.3379 C 52.0996 -44.3848 50.4883 -43.2129 47.998 -43.2129 C 45.0195 -43.2129 42.9199 -45.2148 42.9199 -48.6328 C 42.9199 -49.8047 43.0664 -50.8301 43.6035 -52.1973 C 45.2637 -56.543 50.8789 -61.5723 59.1797 -61.5723 C 69.3359 -61.5723 75.9277 -56.1035 75.9277 -47.7539 C 75.9277 -42.5781 72.4121 -37.7441 67.7246 -37.0117 L 67.7246 -36.4258 C 73.291 -35.9863 77.0996 -30.7617 77.0996 -24.3652 C 77.0996 -15.0879 70.0684 -9.0332 58.9844 -9.0332 Z M 99.4141 -21.3867 C 102.393 -21.3867 104.199 -25 104.199 -35.3027 C 104.199 -45.5566 102.344 -49.2188 99.4141 -49.2188 C 96.5332 -49.2188 94.6777 -45.5566 94.6777 -35.3027 C 94.6777 -25 96.5332 -21.3867 99.4141 -21.3867 Z"/>
  </g>
  <g id="Heavy-L" transform="matrix(1 0 0 1 2558.39 1556)">
   <path d="M 78.2715 31.7871 C 115.088 31.7871 145.312 1.5625 145.312 -35.2051 C 145.312 -72.0215 115.039 -102.246 78.2715 -102.246 C 41.4551 -102.246 11.2793 -72.0215 11.2793 -35.2051 C 11.2793 1.5625 41.5039 31.7871 78.2715 31.7871 Z M 98.584 -8.74023 C 88.0371 -8.74023 81.0547 -17.4316 81.0547 -35.3027 C 81.0547 -53.1738 88.0371 -61.9141 98.584 -61.9141 C 109.082 -61.9141 116.455 -53.1738 116.455 -35.3027 C 116.455 -17.4316 109.082 -8.74023 98.584 -8.74023 Z M 57.5684 -8.74023 C 49.5117 -8.74023 42.7246 -13.6719 41.1621 -19.0918 C 40.8203 -20.0684 40.625 -20.9961 40.625 -22.0215 C 40.625 -25.1465 43.0176 -27.002 45.459 -27.002 C 47.7051 -27.002 49.1699 -25.9766 50.293 -24.0234 C 51.9043 -20.8496 54.541 -19.1895 57.7637 -19.1895 C 61.5723 -19.1895 64.209 -21.7285 64.209 -24.8047 C 64.209 -28.2715 61.7188 -30.5176 57.7637 -30.5176 L 56.0547 -30.5176 C 52.5879 -30.5176 50.8789 -32.7148 50.8789 -35.7422 C 50.8789 -38.916 52.832 -41.0156 56.0547 -41.0156 L 57.6172 -41.0156 C 61.1816 -41.0156 63.1836 -43.5059 63.1836 -46.4355 C 63.1836 -49.6582 60.8887 -51.709 57.6172 -51.709 C 54.3457 -51.709 52.2461 -50.1465 50.7812 -46.9238 C 49.8535 -45.0195 48.3887 -43.8965 46.0938 -43.8965 C 43.3594 -43.8965 41.4062 -45.8008 41.4062 -48.877 C 41.4062 -49.9512 41.5527 -50.8789 41.9922 -52.1484 C 43.6523 -56.9336 49.4629 -61.9141 57.8125 -61.9141 C 67.8223 -61.9141 74.4629 -56.3477 74.4629 -48.0469 C 74.4629 -42.7246 70.752 -37.7441 65.918 -36.9629 L 65.918 -36.4258 C 71.7285 -35.9375 75.7812 -30.6152 75.7812 -24.1699 C 75.7812 -14.8926 68.6035 -8.74023 57.5684 -8.74023 Z M 98.7305 -19.7754 C 102.588 -19.7754 104.98 -24.4629 104.98 -35.3027 C 104.98 -46.1426 102.539 -50.8301 98.7305 -50.8301 C 94.9707 -50.8301 92.5293 -46.1426 92.5293 -35.3027 C 92.5293 -24.4629 94.9707 -19.7754 98.7305 -19.7754 Z"/>
  </g>
  <g id="Bold-L" transform="matrix(1 0 0 1 2262.88 1556)">
   <path d="M 77.0996 30.5664 C 113.232 30.5664 142.92 0.878906 142.92 -35.2539 C 142.92 -71.3379 113.184 -101.074 77.0508 -101.074 C 40.9668 -101.074 11.2793 -71.3379 11.2793 -35.2539 C 11.2793 0.878906 41.0156 30.5664 77.0996 30.5664 Z M 97.8516 -8.39844 C 87.1582 -8.39844 80.0293 -17.7734 80.0293 -35.3027 C 80.0293 -52.8809 87.1582 -62.2559 97.8516 -62.2559 C 108.545 -62.2559 115.918 -52.8809 115.918 -35.3027 C 115.918 -17.7734 108.545 -8.39844 97.8516 -8.39844 Z M 56.0059 -8.39844 C 47.7539 -8.39844 40.9668 -13.4277 39.3066 -18.9941 C 39.0625 -19.9219 38.8672 -20.7031 38.8672 -21.6797 C 38.8672 -24.4629 40.918 -26.1719 43.2129 -26.1719 C 45.2148 -26.1719 46.5332 -25.1465 47.5098 -23.2422 C 49.1211 -19.5312 52.1973 -17.5293 56.1523 -17.5293 C 60.9375 -17.5293 64.209 -20.5566 64.209 -24.4141 C 64.209 -28.6133 61.1328 -31.3477 56.3477 -31.3477 L 53.7598 -31.3477 C 50.8301 -31.3477 49.2676 -33.3008 49.2676 -35.8887 C 49.2676 -38.6719 51.0254 -40.5273 53.7598 -40.5273 L 56.1035 -40.5273 C 60.3516 -40.5273 62.9883 -43.4082 62.9883 -47.0215 C 62.9883 -50.8301 60.1562 -53.3203 56.0547 -53.3203 C 52.0996 -53.3203 49.5605 -51.3184 48.1445 -47.6074 C 47.3633 -45.7031 46.0449 -44.6777 43.9453 -44.6777 C 41.4551 -44.6777 39.7461 -46.3867 39.7461 -49.1699 C 39.7461 -50.0977 39.8438 -50.9277 40.1855 -52.0508 C 41.8457 -57.3242 47.9004 -62.2559 56.2988 -62.2559 C 66.1133 -62.2559 72.8027 -56.6895 72.8027 -48.4375 C 72.8027 -42.8711 68.8965 -37.6953 63.8184 -36.9141 L 63.8184 -36.4258 C 69.9219 -35.8887 74.2676 -30.5176 74.2676 -23.877 C 74.2676 -14.6973 66.9434 -8.39844 56.0059 -8.39844 Z M 97.9492 -18.0176 C 102.783 -18.0176 105.859 -23.8281 105.859 -35.3027 C 105.859 -46.8262 102.783 -52.6367 97.9492 -52.6367 C 93.1641 -52.6367 90.0879 -46.8262 90.0879 -35.3027 C 90.0879 -23.8281 93.1641 -18.0176 97.9492 -18.0176 Z"/>
  </g>
  <g id="Semibold-L" transform="matrix(1 0 0 1 1966.97 1556)">
   <path d="M 76.2695 29.7363 C 111.914 29.7363 141.309 0.390625 141.309 -35.2539 C 141.309 -70.8984 111.865 -100.244 76.2695 -100.244 C 40.625 -100.244 11.2793 -70.8984 11.2793 -35.2539 C 11.2793 0.390625 40.6738 29.7363 76.2695 29.7363 Z M 97.3633 -8.1543 C 86.5234 -8.1543 79.2969 -18.0176 79.2969 -35.3516 C 79.2969 -52.6855 86.5234 -62.5 97.3633 -62.5 C 108.203 -62.5 115.527 -52.6855 115.527 -35.3516 C 115.527 -18.0176 108.203 -8.1543 97.3633 -8.1543 Z M 54.9316 -8.1543 C 46.5332 -8.1543 39.7461 -13.2812 38.0859 -18.9453 C 37.8418 -19.7754 37.6953 -20.5566 37.6953 -21.4844 C 37.6953 -23.9746 39.4531 -25.5859 41.6016 -25.5859 C 43.5059 -25.5859 44.6777 -24.6094 45.5566 -22.7051 C 47.2168 -18.6035 50.5859 -16.3574 55.0293 -16.3574 C 60.498 -16.3574 64.2578 -19.7266 64.2578 -24.1699 C 64.2578 -28.8086 60.6934 -31.8848 55.3223 -31.8848 L 52.1973 -31.8848 C 49.6582 -31.8848 48.1934 -33.6426 48.1934 -35.9863 C 48.1934 -38.5254 49.7559 -40.1855 52.1973 -40.1855 L 55.0293 -40.1855 C 59.7656 -40.1855 62.8418 -43.3594 62.8418 -47.4609 C 62.8418 -51.6602 59.668 -54.3945 55.0293 -54.3945 C 50.5859 -54.3945 47.7051 -52.1484 46.3379 -48.0957 C 45.6055 -46.1914 44.4336 -45.2148 42.4805 -45.2148 C 40.1367 -45.2148 38.623 -46.8262 38.623 -49.3164 C 38.623 -50.2441 38.6719 -50.9766 38.9648 -51.9531 C 40.625 -57.666 46.8262 -62.5 55.2246 -62.5 C 64.9414 -62.5 71.6797 -56.8848 71.6797 -48.6816 C 71.6797 -42.9199 67.627 -37.6953 62.4512 -36.8652 L 62.4512 -36.4258 C 68.7012 -35.8398 73.2422 -30.4199 73.2422 -23.7305 C 73.2422 -14.5508 65.8203 -8.1543 54.9316 -8.1543 Z M 97.4121 -16.7969 C 102.979 -16.7969 106.445 -23.3887 106.445 -35.3516 C 106.445 -47.2656 102.93 -53.8574 97.4121 -53.8574 C 91.9434 -53.8574 88.4277 -47.2656 88.4277 -35.3516 C 88.4277 -23.3887 91.9434 -16.7969 97.4121 -16.7969 Z"/>
  </g>
  <g id="Medium-L" transform="matrix(1 0 0 1 1670.87 1556)">
   <path d="M 75.6836 29.1504 C 110.938 29.1504 140.088 0 140.088 -35.2539 C 140.088 -70.5078 110.889 -99.6582 75.6348 -99.6582 C 40.3809 -99.6582 11.2793 -70.5078 11.2793 -35.2539 C 11.2793 0 40.3809 29.1504 75.6836 29.1504 Z M 96.9727 -7.95898 C 86.084 -7.95898 78.7598 -18.1641 78.7598 -35.3516 C 78.7598 -52.4902 86.084 -62.6953 96.9727 -62.6953 C 107.91 -62.6953 115.234 -52.4902 115.234 -35.3516 C 115.234 -18.1641 107.91 -7.95898 96.9727 -7.95898 Z M 54.1016 -7.95898 C 45.6055 -7.95898 38.8184 -13.1348 37.1094 -18.9453 C 36.9141 -19.7266 36.7676 -20.4102 36.7676 -21.2891 C 36.7676 -23.584 38.3301 -25.0977 40.4297 -25.0977 C 42.2363 -25.0977 43.2617 -24.1699 44.0918 -22.3145 C 45.8008 -17.9199 49.3652 -15.4785 54.1992 -15.4785 C 60.1562 -15.4785 64.2578 -19.1406 64.2578 -23.9746 C 64.2578 -28.9551 60.4004 -32.3242 54.5898 -32.3242 L 50.9766 -32.3242 C 48.7305 -32.3242 47.3633 -33.9355 47.3633 -36.084 C 47.3633 -38.4277 48.8281 -39.8926 50.9766 -39.8926 L 54.248 -39.8926 C 59.3262 -39.8926 62.7441 -43.3105 62.7441 -47.8027 C 62.7441 -52.2461 59.2773 -55.2734 54.248 -55.2734 C 49.4141 -55.2734 46.2891 -52.7832 44.9219 -48.4375 C 44.2871 -46.5332 43.2129 -45.6055 41.3574 -45.6055 C 39.1602 -45.6055 37.7441 -47.168 37.7441 -49.4629 C 37.7441 -50.293 37.793 -51.0254 38.0371 -51.9043 C 39.6973 -57.8613 45.9961 -62.6953 54.4434 -62.6953 C 64.0625 -62.6953 70.8008 -57.0312 70.8008 -48.877 C 70.8008 -43.0176 66.6504 -37.6953 61.377 -36.8164 L 61.377 -36.4258 C 67.7734 -35.791 72.4609 -30.3223 72.4609 -23.584 C 72.4609 -14.4531 64.9414 -7.95898 54.1016 -7.95898 Z M 97.0215 -15.8691 C 103.076 -15.8691 106.885 -23.0957 106.885 -35.3516 C 106.885 -47.6074 103.027 -54.834 97.0215 -54.834 C 91.0645 -54.834 87.1582 -47.6074 87.1582 -35.3516 C 87.1582 -23.0957 91.0645 -15.8691 97.0215 -15.8691 Z"/>
  </g>
  <g id="Regular-L" transform="matrix(1 0 0 1 1374.97 1556)">
   <path d="M 74.8535 28.3203 C 109.668 28.3203 138.477 -0.488281 138.477 -35.2539 C 138.477 -70.0684 109.619 -98.877 74.8047 -98.877 C 40.0391 -98.877 11.2793 -70.0684 11.2793 -35.2539 C 11.2793 -0.488281 40.0879 28.3203 74.8535 28.3203 Z M 96.4844 -7.71484 C 85.4492 -7.71484 78.0762 -18.4082 78.0762 -35.3516 C 78.0762 -52.2949 85.4492 -62.9883 96.4844 -62.9883 C 107.568 -62.9883 114.893 -52.2949 114.893 -35.3516 C 114.893 -18.4082 107.568 -7.71484 96.4844 -7.71484 Z M 53.0273 -7.71484 C 44.3848 -7.71484 37.6465 -12.9883 35.8887 -18.8965 C 35.6934 -19.6289 35.5469 -20.2637 35.5469 -21.0938 C 35.5469 -23.0957 36.9141 -24.5117 38.8672 -24.5117 C 40.5273 -24.5117 41.4551 -23.6328 42.1875 -21.7773 C 43.9453 -17.041 47.8027 -14.3555 53.0762 -14.3555 C 59.7168 -14.3555 64.2578 -18.3105 64.2578 -23.7305 C 64.2578 -29.1992 60.0098 -32.9102 53.6133 -32.9102 L 49.4141 -32.9102 C 47.5586 -32.9102 46.2891 -34.3262 46.2891 -36.1816 C 46.2891 -38.2812 47.5586 -39.5508 49.4141 -39.5508 L 53.2227 -39.5508 C 58.7402 -39.5508 62.5977 -43.2617 62.5977 -48.2422 C 62.5977 -53.0762 58.7891 -56.3477 53.1738 -56.3477 C 47.9004 -56.3477 44.4824 -53.6133 43.1152 -48.9258 C 42.5781 -47.0215 41.6504 -46.1426 39.8926 -46.1426 C 37.8906 -46.1426 36.6211 -47.5586 36.6211 -49.6582 C 36.6211 -50.4395 36.6699 -51.0742 36.8164 -51.8555 C 38.4766 -58.1543 44.9219 -62.9883 53.418 -62.9883 C 62.8906 -62.9883 69.6777 -57.2754 69.6777 -49.1211 C 69.6777 -43.1152 65.4297 -37.6465 59.9609 -36.7676 L 59.9609 -36.4258 C 66.5527 -35.791 71.4355 -30.2734 71.4355 -23.4375 C 71.4355 -14.3066 63.8184 -7.71484 53.0273 -7.71484 Z M 96.4844 -14.6484 C 103.223 -14.6484 107.52 -22.6562 107.52 -35.3516 C 107.52 -48.0469 103.174 -56.0547 96.4844 -56.0547 C 89.8438 -56.0547 85.498 -48.0469 85.498 -35.3516 C 85.498 -22.6562 89.8438 -14.6484 96.4844 -14.6484 Z"/>
  </g>
  <g id="Light-L" transform="matrix(1 0 0 1 1079.18 1556)">
   <path d="M 73.9258 27.3926 C 108.301 27.3926 136.621 -0.927734 136.621 -35.2539 C 136.621 -69.6289 108.252 -97.9492 73.9258 -97.9492 C 39.5508 -97.9492 11.2793 -69.6289 11.2793 -35.2539 C 11.2793 -0.927734 39.5996 27.3926 73.9258 27.3926 Z M 95.5566 -8.30078 C 84.7168 -8.30078 77.3926 -18.9453 77.3926 -35.3516 C 77.3926 -51.7578 84.7168 -62.4023 95.5566 -62.4023 C 106.445 -62.4023 113.721 -51.7578 113.721 -35.3516 C 113.721 -18.9453 106.445 -8.30078 95.5566 -8.30078 Z M 52.4902 -8.30078 C 44.0918 -8.30078 37.5488 -13.3301 35.7422 -19.0918 C 35.5469 -19.7266 35.4492 -20.3125 35.4492 -21.0449 C 35.4492 -22.7051 36.5234 -23.877 38.1348 -23.877 C 39.5508 -23.877 40.332 -23.0957 40.8691 -21.582 C 42.5781 -16.6016 47.0215 -13.623 52.4902 -13.623 C 59.7168 -13.623 64.5508 -17.8711 64.5508 -23.7305 C 64.5508 -29.4434 59.8145 -33.5449 53.125 -33.5449 L 48.4375 -33.5449 C 46.875 -33.5449 45.8984 -34.668 45.8984 -36.1816 C 45.8984 -37.8906 46.9238 -38.916 48.4375 -38.916 L 52.6855 -38.916 C 58.5938 -38.916 62.8418 -42.9688 62.8418 -48.291 C 62.8418 -53.5156 58.6914 -57.0801 52.5391 -57.0801 C 46.8262 -57.0801 43.0176 -54.0039 41.8457 -49.1211 C 41.4551 -47.5098 40.625 -46.7773 39.209 -46.7773 C 37.4512 -46.7773 36.4746 -47.9492 36.4746 -49.707 C 36.4746 -50.3418 36.5234 -50.9766 36.7188 -51.6602 C 38.2812 -57.959 44.7266 -62.4023 52.6855 -62.4023 C 61.9141 -62.4023 68.5547 -56.8359 68.5547 -48.9746 C 68.5547 -43.0176 64.3066 -37.5977 58.7402 -36.6699 L 58.7402 -36.4258 C 65.332 -35.7422 70.3613 -30.2246 70.3613 -23.5352 C 70.3613 -14.6973 62.8906 -8.30078 52.4902 -8.30078 Z M 95.5566 -13.8184 C 102.979 -13.8184 107.861 -22.3145 107.861 -35.3516 C 107.861 -48.3887 102.93 -56.8848 95.5566 -56.8848 C 88.1836 -56.8848 83.3008 -48.3887 83.3008 -35.3516 C 83.3008 -22.3145 88.1836 -13.8184 95.5566 -13.8184 Z"/>
  </g>
  <g id="Thin-L" transform="matrix(1 0 0 1 783.693 1556)">
   <path d="M 72.7051 26.1719 C 106.494 26.1719 134.18 -1.51367 134.18 -35.2539 C 134.18 -69.043 106.494 -96.7285 72.7051 -96.7285 C 38.9648 -96.7285 11.2793 -69.043 11.2793 -35.2539 C 11.2793 -1.51367 38.9648 26.1719 72.7051 26.1719 Z M 94.3359 -9.0332 C 83.7402 -9.0332 76.4648 -19.6289 76.4648 -35.3516 C 76.4648 -51.0742 83.7402 -61.6699 94.3359 -61.6699 C 104.932 -61.6699 112.207 -51.0742 112.207 -35.3516 C 112.207 -19.6289 104.932 -9.0332 94.3359 -9.0332 Z M 51.7578 -9.0332 C 43.7012 -9.0332 37.4512 -13.7695 35.5957 -19.3359 C 35.4004 -19.873 35.2539 -20.3613 35.2539 -21.0449 C 35.2539 -22.1191 35.9863 -23.0469 37.1582 -23.0469 C 38.2324 -23.0469 38.7695 -22.4121 39.1602 -21.2891 C 40.8203 -15.9668 45.9473 -12.6953 51.7578 -12.6953 C 59.668 -12.6953 64.9414 -17.2363 64.9414 -23.7793 C 64.9414 -29.7852 59.6191 -34.4238 52.4414 -34.4238 L 47.168 -34.4238 C 45.9961 -34.4238 45.3613 -35.1562 45.3613 -36.2305 C 45.3613 -37.4023 46.0449 -38.0859 47.168 -38.0859 L 52.002 -38.0859 C 58.4473 -38.0859 63.1836 -42.627 63.1836 -48.3398 C 63.1836 -54.1016 58.5938 -58.0078 51.709 -58.0078 C 45.459 -58.0078 41.1133 -54.4922 40.1855 -49.4141 C 39.8926 -48.1445 39.2578 -47.6074 38.2812 -47.6074 C 36.9141 -47.6074 36.3281 -48.4863 36.3281 -49.7559 C 36.3281 -50.2441 36.377 -50.8301 36.5723 -51.416 C 38.0371 -57.7148 44.4824 -61.6699 51.709 -61.6699 C 60.6445 -61.6699 67.1387 -56.2988 67.1387 -48.7793 C 67.1387 -42.9199 62.793 -37.5488 57.1289 -36.5234 L 57.1289 -36.4258 C 63.7695 -35.6934 68.8965 -30.2246 68.8965 -23.7305 C 68.8965 -15.1855 61.6699 -9.0332 51.7578 -9.0332 Z M 94.3359 -12.7441 C 102.637 -12.7441 108.35 -21.875 108.35 -35.3516 C 108.35 -48.8281 102.637 -57.959 94.3359 -57.959 C 86.0352 -57.959 80.3223 -48.8281 80.3223 -35.3516 C 80.3223 -21.875 86.0352 -12.7441 94.3359 -12.7441 Z"/>
  </g>
  <g id="Ultralight-L" transform="matrix(1 0 0 1 487.616 1556)">
   <path d="M 72.1191 25.5371 C 105.566 25.5371 132.91 -1.80664 132.91 -35.2539 C 132.91 -68.75 105.566 -96.0938 72.1191 -96.0938 C 38.623 -96.0938 11.2793 -68.75 11.2793 -35.2539 C 11.2793 -1.80664 38.623 25.5371 72.1191 25.5371 Z M 93.7012 -9.375 C 83.252 -9.375 76.0254 -20.0195 76.0254 -35.3516 C 76.0254 -50.6836 83.252 -61.3281 93.7012 -61.3281 C 104.199 -61.3281 111.426 -50.6836 111.426 -35.3516 C 111.426 -20.0195 104.199 -9.375 93.7012 -9.375 Z M 51.3672 -9.375 C 43.5059 -9.375 37.3535 -13.9648 35.498 -19.4824 C 35.3516 -19.9219 35.2051 -20.4102 35.2051 -21.0449 C 35.2051 -21.875 35.7422 -22.6074 36.6699 -22.6074 C 37.5488 -22.6074 37.9883 -22.0703 38.2324 -21.1426 C 39.9414 -15.6738 45.4102 -12.207 51.3672 -12.207 C 59.668 -12.207 65.1367 -16.9434 65.1367 -23.7793 C 65.1367 -29.9805 59.5215 -34.8145 52.0996 -34.8145 L 46.4844 -34.8145 C 45.5566 -34.8145 45.0684 -35.4004 45.0684 -36.2305 C 45.0684 -37.1582 45.6055 -37.6465 46.4844 -37.6465 L 51.6113 -37.6465 C 58.3496 -37.6465 63.3789 -42.4316 63.3789 -48.3887 C 63.3789 -54.3945 58.4961 -58.4961 51.2695 -58.4961 C 44.7754 -58.4961 40.1367 -54.7852 39.3066 -49.5605 C 39.1113 -48.4375 38.5742 -47.998 37.793 -47.998 C 36.6211 -47.998 36.2305 -48.7305 36.2305 -49.7559 C 36.2305 -50.1953 36.3281 -50.7324 36.4746 -51.2695 C 37.8906 -57.5684 44.3359 -61.3281 51.2207 -61.3281 C 60.0098 -61.3281 66.4062 -56.0547 66.4062 -48.6328 C 66.4062 -42.8711 62.0605 -37.5 56.2988 -36.4258 L 56.2988 -36.377 C 62.9883 -35.6445 68.1641 -30.1758 68.1641 -23.8281 C 68.1641 -15.4297 61.0352 -9.375 51.3672 -9.375 Z M 93.7012 -12.1582 C 102.441 -12.1582 108.594 -21.6309 108.594 -35.3516 C 108.594 -49.0723 102.441 -58.5449 93.7012 -58.5449 C 84.9609 -58.5449 78.8086 -49.0723 78.8086 -35.3516 C 78.8086 -21.6309 84.9609 -12.1582 93.7012 -12.1582 Z"/>
  </g>
  <g id="Black-M" transform="matrix(1 0 0 1 2870.97 1126)">
   <path d="M 62.4023 18.457 C 91.9922 18.457 116.113 -5.61523 116.113 -35.2051 C 116.113 -64.7949 91.9922 -88.8672 62.4023 -88.8672 C 32.8125 -88.8672 8.74023 -64.7949 8.74023 -35.2051 C 8.74023 -5.61523 32.8125 18.457 62.4023 18.457 Z M 77.2949 -15.625 C 69.5312 -15.625 64.4043 -21.0938 64.4043 -35.2539 C 64.4043 -49.4141 69.5312 -54.8828 77.2949 -54.8828 C 84.9609 -54.8828 90.625 -49.4141 90.625 -35.2539 C 90.625 -21.0938 84.9609 -15.625 77.2949 -15.625 Z M 47.3145 -15.625 C 41.6016 -15.625 36.377 -19.1406 35.2539 -22.9492 C 34.9609 -23.8281 34.7656 -24.707 34.7656 -25.5859 C 34.7656 -28.5645 37.1582 -30.127 39.1602 -30.127 C 41.1621 -30.127 42.5293 -29.3457 43.6035 -27.9297 C 44.7266 -26.3184 46.2402 -25.5859 47.5586 -25.5859 C 48.9258 -25.5859 49.8535 -26.7578 49.8535 -27.8809 C 49.8535 -29.3945 48.9258 -30.3223 47.2168 -30.3223 C 43.7012 -30.3223 42.1875 -32.4219 42.1875 -35.3516 C 42.1875 -38.3301 44.043 -40.332 47.2168 -40.332 L 47.2656 -40.332 C 48.9258 -40.332 49.5117 -41.6992 49.5117 -42.7246 C 49.5117 -44.3848 48.4863 -45.3613 47.168 -45.3613 C 45.8008 -45.3613 44.8242 -44.6777 43.7012 -43.1152 C 42.7734 -41.748 41.4062 -40.8203 39.4043 -40.8203 C 36.9629 -40.8203 35.2051 -42.4316 35.2051 -45.3125 C 35.2051 -46.2891 35.4004 -47.168 35.8887 -48.3887 C 37.1094 -51.123 41.2109 -54.8828 47.3145 -54.8828 C 55.2734 -54.8828 60.2539 -50.7812 60.2539 -44.3848 C 60.2539 -40.7227 57.7148 -37.207 54.2969 -36.6211 L 54.2969 -36.1328 C 58.3496 -35.8887 60.9863 -31.8848 60.9863 -27.1973 C 60.9863 -20.0684 55.7617 -15.625 47.3145 -15.625 Z M 77.4902 -26.1719 C 78.9551 -26.1719 79.8828 -27.8809 79.8828 -35.2539 C 79.8828 -42.627 78.9551 -44.3359 77.4902 -44.3359 C 76.0742 -44.3359 75.0977 -42.627 75.0977 -35.2539 C 75.0977 -27.8809 76.0742 -26.1719 77.4902 -26.1719 Z"/>
  </g>
  <g id="Heavy-M" transform="matrix(1 0 0 1 2575.19 1126)">
   <path d="M 61.5234 17.5293 C 90.5273 17.5293 114.258 -6.20117 114.258 -35.2051 C 114.258 -64.2578 90.5273 -87.9883 61.4746 -87.9883 C 32.4707 -87.9883 8.74023 -64.2578 8.74023 -35.2051 C 8.74023 -6.20117 32.4707 17.5293 61.5234 17.5293 Z M 76.8555 -15.1367 C 68.8477 -15.1367 63.5742 -21.2891 63.5742 -35.2539 C 63.5742 -49.2676 68.8477 -55.4199 76.8555 -55.4199 C 84.7168 -55.4199 90.3809 -49.2676 90.3809 -35.2539 C 90.3809 -21.2891 84.7168 -15.1367 76.8555 -15.1367 Z M 45.8984 -15.1367 C 39.9414 -15.1367 34.668 -18.8477 33.5449 -22.8027 C 33.252 -23.6328 33.0566 -24.4141 33.0566 -25.2441 C 33.0566 -27.9785 35.2051 -29.4922 37.1094 -29.4922 C 38.9648 -29.4922 40.2344 -28.6621 41.2109 -27.1973 C 42.3828 -25.1465 44.1895 -24.1699 46.1426 -24.1699 C 48.291 -24.1699 49.8047 -25.7324 49.8047 -27.4902 C 49.8047 -29.6387 48.3398 -31.0059 45.9473 -31.0059 L 45.2637 -31.0059 C 42.1875 -31.0059 40.7715 -32.8613 40.7715 -35.498 C 40.7715 -38.1836 42.4316 -39.9902 45.2637 -39.9902 L 45.8984 -39.9902 C 48.1445 -39.9902 49.2676 -41.6504 49.2676 -43.3594 C 49.2676 -45.4102 47.8027 -46.7285 45.8496 -46.7285 C 43.8965 -46.7285 42.5781 -45.752 41.4551 -43.75 C 40.625 -42.2852 39.3555 -41.4062 37.5 -41.4062 C 35.2051 -41.4062 33.5938 -42.9688 33.5938 -45.5566 C 33.5938 -46.4355 33.7402 -47.2656 34.1797 -48.3887 C 35.4004 -51.5625 39.7461 -55.4199 45.9961 -55.4199 C 53.8574 -55.4199 58.9355 -51.2207 58.9355 -44.7754 C 58.9355 -40.8691 56.2012 -37.207 52.6367 -36.6211 L 52.6367 -36.1328 C 56.8848 -35.8398 59.8145 -31.7871 59.8145 -26.9043 C 59.8145 -19.7754 54.3945 -15.1367 45.8984 -15.1367 Z M 77.002 -24.6582 C 79.1992 -24.6582 80.6641 -27.3438 80.6641 -35.2539 C 80.6641 -43.1641 79.1992 -45.8984 77.002 -45.8984 C 74.7559 -45.8984 73.3398 -43.1641 73.3398 -35.2539 C 73.3398 -27.3438 74.7559 -24.6582 77.002 -24.6582 Z"/>
  </g>
  <g id="Bold-M" transform="matrix(1 0 0 1 2279.5 1126)">
   <path d="M 60.498 16.5039 C 88.8672 16.5039 112.207 -6.83594 112.207 -35.2051 C 112.207 -63.623 88.8672 -86.9629 60.4492 -86.9629 C 32.0312 -86.9629 8.74023 -63.623 8.74023 -35.2051 C 8.74023 -6.83594 32.0801 16.5039 60.498 16.5039 Z M 76.3184 -14.5996 C 68.1152 -14.5996 62.6465 -21.4844 62.6465 -35.3027 C 62.6465 -49.0723 68.1152 -55.957 76.3184 -55.957 C 84.4727 -55.957 90.1855 -49.0723 90.1855 -35.3027 C 90.1855 -21.4844 84.4727 -14.5996 76.3184 -14.5996 Z M 44.3848 -14.5996 C 38.0859 -14.5996 32.8125 -18.457 31.5918 -22.7051 C 31.3477 -23.4375 31.2012 -24.1211 31.2012 -24.9023 C 31.2012 -27.2949 33.0078 -28.7109 34.8633 -28.7109 C 36.5723 -28.7109 37.6465 -27.9297 38.5254 -26.416 C 39.7461 -23.877 41.8945 -22.5586 44.5312 -22.5586 C 47.6074 -22.5586 49.7559 -24.5605 49.7559 -27.0996 C 49.7559 -29.8828 47.7539 -31.6895 44.5312 -31.6895 L 43.0664 -31.6895 C 40.4785 -31.6895 39.1602 -33.3984 39.1602 -35.6445 C 39.1602 -38.0371 40.625 -39.6484 43.0664 -39.6484 L 44.3848 -39.6484 C 47.2656 -39.6484 48.9258 -41.6504 48.9258 -43.9941 C 48.9258 -46.582 47.0703 -48.291 44.3848 -48.291 C 41.748 -48.291 40.0391 -46.9727 38.916 -44.4336 C 38.2324 -42.9199 37.1094 -42.0898 35.3516 -42.0898 C 33.252 -42.0898 31.8359 -43.5059 31.8359 -45.8496 C 31.8359 -46.6797 31.9336 -47.3633 32.2266 -48.291 C 33.4961 -52.0996 38.0859 -55.957 44.5312 -55.957 C 52.2949 -55.957 57.4219 -51.6602 57.4219 -45.2637 C 57.4219 -41.0645 54.541 -37.1582 50.7324 -36.5723 L 50.7324 -36.1328 C 55.2734 -35.791 58.4961 -31.6406 58.4961 -26.6113 C 58.4961 -19.4336 52.8809 -14.5996 44.3848 -14.5996 Z M 76.416 -22.9492 C 79.541 -22.9492 81.4941 -26.7578 81.4941 -35.3027 C 81.4941 -43.7988 79.4922 -47.6074 76.416 -47.6074 C 73.291 -47.6074 71.3379 -43.7988 71.3379 -35.3027 C 71.3379 -26.7578 73.291 -22.9492 76.416 -22.9492 Z"/>
  </g>
  <g id="Semibold-M" transform="matrix(1 0 0 1 1983.5 1126)">
   <path d="M 59.7656 15.8203 C 87.7441 15.8203 110.791 -7.27539 110.791 -35.2539 C 110.791 -63.2324 87.6953 -86.2793 59.7656 -86.2793 C 31.7871 -86.2793 8.74023 -63.2324 8.74023 -35.2539 C 8.74023 -7.27539 31.7871 15.8203 59.7656 15.8203 Z M 75.9277 -14.2578 C 67.5781 -14.2578 62.0117 -21.6309 62.0117 -35.3027 C 62.0117 -48.9746 67.5781 -56.3477 75.9277 -56.3477 C 84.2773 -56.3477 89.9902 -48.9746 89.9902 -35.3027 C 89.9902 -21.6309 84.2773 -14.2578 75.9277 -14.2578 Z M 43.3105 -14.2578 C 36.8164 -14.2578 31.4941 -18.2129 30.2246 -22.6074 C 30.0293 -23.291 29.8828 -23.9258 29.8828 -24.707 C 29.8828 -26.8555 31.4941 -28.2227 33.3008 -28.2227 C 34.9121 -28.2227 35.8887 -27.4414 36.6699 -25.8789 C 37.9395 -22.9492 40.2832 -21.4355 43.4082 -21.4355 C 47.1191 -21.4355 49.707 -23.7793 49.707 -26.8066 C 49.707 -30.0781 47.3145 -32.1777 43.5547 -32.1777 L 41.5039 -32.1777 C 39.3066 -32.1777 38.0371 -33.7402 38.0371 -35.791 C 38.0371 -37.9395 39.4043 -39.4043 41.5039 -39.4043 L 43.3594 -39.4043 C 46.6309 -39.4043 48.7305 -41.6016 48.7305 -44.4824 C 48.7305 -47.4121 46.5332 -49.3164 43.3594 -49.3164 C 40.2832 -49.3164 38.3301 -47.8027 37.207 -44.873 C 36.5723 -43.3594 35.5469 -42.5293 33.8867 -42.5293 C 31.9336 -42.5293 30.6152 -43.8965 30.6152 -46.0449 C 30.6152 -46.7773 30.6641 -47.4609 30.9082 -48.291 C 32.1777 -52.4902 36.9141 -56.3477 43.5547 -56.3477 C 51.1719 -56.3477 56.3965 -52.002 56.3965 -45.5566 C 56.3965 -41.1621 53.3691 -37.1582 49.4141 -36.5234 L 49.4141 -36.1816 C 54.1992 -35.7422 57.5684 -31.543 57.5684 -26.3672 C 57.5684 -19.1895 51.8555 -14.2578 43.3105 -14.2578 Z M 75.9766 -21.7773 C 79.7363 -21.7773 82.0801 -26.3672 82.0801 -35.3027 C 82.0801 -44.2383 79.7363 -48.8281 75.9766 -48.8281 C 72.3145 -48.8281 69.9707 -44.2383 69.9707 -35.3027 C 69.9707 -26.3672 72.3145 -21.7773 75.9766 -21.7773 Z"/>
  </g>
  <g id="Medium-M" transform="matrix(1 0 0 1 1687.3 1126)">
   <path d="M 59.2285 15.2344 C 86.9141 15.2344 109.766 -7.61719 109.766 -35.2539 C 109.766 -62.8906 86.8652 -85.7422 59.1797 -85.7422 C 31.543 -85.7422 8.74023 -62.8906 8.74023 -35.2539 C 8.74023 -7.61719 31.5918 15.2344 59.2285 15.2344 Z M 75.6836 -13.9648 C 67.1875 -13.9648 61.5234 -21.7285 61.5234 -35.3027 C 61.5234 -48.877 67.1875 -56.6406 75.6836 -56.6406 C 84.1797 -56.6406 89.8926 -48.877 89.8926 -35.3027 C 89.8926 -21.7285 84.1797 -13.9648 75.6836 -13.9648 Z M 42.4805 -13.9648 C 35.8398 -13.9648 30.5176 -18.0664 29.1992 -22.5098 C 29.0039 -23.1934 28.9062 -23.7793 28.9062 -24.5117 C 28.9062 -26.5137 30.3223 -27.832 32.0801 -27.832 C 33.6426 -27.832 34.5703 -27.0508 35.2539 -25.4883 C 36.5723 -22.2656 39.0625 -20.5566 42.5781 -20.5566 C 46.7773 -20.5566 49.6582 -23.1934 49.6582 -26.5625 C 49.6582 -30.2246 46.9727 -32.5684 42.8223 -32.5684 L 40.3809 -32.5684 C 38.3789 -32.5684 37.207 -33.9844 37.207 -35.8398 C 37.207 -37.8906 38.4766 -39.209 40.3809 -39.209 L 42.5781 -39.209 C 46.1914 -39.209 48.584 -41.6016 48.584 -44.8242 C 48.584 -47.998 46.1426 -50.1465 42.5781 -50.1465 C 39.1602 -50.1465 37.0117 -48.4375 35.8887 -45.2637 C 35.3027 -43.6523 34.375 -42.8711 32.7637 -42.8711 C 30.9082 -42.8711 29.6387 -44.1895 29.6387 -46.1914 C 29.6387 -46.9238 29.6875 -47.5098 29.8828 -48.2422 C 31.2012 -52.7832 36.084 -56.6406 42.7734 -56.6406 C 50.3418 -56.6406 55.6152 -52.2461 55.6152 -45.8008 C 55.6152 -41.2598 52.4902 -37.1582 48.4375 -36.5234 L 48.4375 -36.1816 C 53.3203 -35.6934 56.8848 -31.4941 56.8848 -26.2207 C 56.8848 -18.9941 51.0254 -13.9648 42.4805 -13.9648 Z M 75.6836 -20.8984 C 79.9316 -20.8984 82.5195 -26.0742 82.5195 -35.3027 C 82.5195 -44.5312 79.8828 -49.707 75.6836 -49.707 C 71.5332 -49.707 68.8965 -44.5312 68.8965 -35.3027 C 68.8965 -26.0742 71.5332 -20.8984 75.6836 -20.8984 Z"/>
  </g>
  <g id="Regular-M" transform="matrix(1 0 0 1 1391.3 1126)">
   <path d="M 58.5449 14.5508 C 85.791 14.5508 108.35 -8.05664 108.35 -35.2539 C 108.35 -62.5 85.7422 -85.0586 58.4961 -85.0586 C 31.2988 -85.0586 8.74023 -62.5 8.74023 -35.2539 C 8.74023 -8.05664 31.3477 14.5508 58.5449 14.5508 Z M 75.293 -13.623 C 66.6504 -13.623 60.8887 -21.875 60.8887 -35.3027 C 60.8887 -48.7793 66.6504 -57.0312 75.293 -57.0312 C 83.9844 -57.0312 89.6973 -48.7793 89.6973 -35.3027 C 89.6973 -21.875 83.9844 -13.623 75.293 -13.623 Z M 41.4062 -13.623 C 34.5703 -13.623 29.248 -17.8223 27.8809 -22.4609 C 27.7344 -23.0469 27.6367 -23.584 27.6367 -24.2676 C 27.6367 -26.0742 28.8086 -27.2949 30.5664 -27.2949 C 31.9824 -27.2949 32.8125 -26.5137 33.4473 -24.9512 C 34.8145 -21.3867 37.5 -19.4824 41.4551 -19.4824 C 46.2891 -19.4824 49.6582 -22.4121 49.6582 -26.3184 C 49.6582 -30.4199 46.582 -33.0566 41.8457 -33.0566 L 38.8672 -33.0566 C 37.207 -33.0566 36.084 -34.3262 36.084 -35.9375 C 36.084 -37.793 37.2559 -38.9648 38.8672 -38.9648 L 41.5527 -38.9648 C 45.6055 -38.9648 48.3887 -41.6016 48.3887 -45.2637 C 48.3887 -48.7793 45.6055 -51.1719 41.6016 -51.1719 C 37.6953 -51.1719 35.3027 -49.2676 34.1797 -45.7031 C 33.6914 -44.0918 32.8613 -43.3105 31.3477 -43.3105 C 29.5898 -43.3105 28.4668 -44.5801 28.4668 -46.3867 C 28.4668 -47.0703 28.4668 -47.5586 28.5645 -48.1934 C 29.8828 -53.125 34.9609 -57.0312 41.7969 -57.0312 C 49.2676 -57.0312 54.5898 -52.5391 54.5898 -46.0938 C 54.5898 -41.3574 51.3184 -37.1582 47.168 -36.4746 L 47.168 -36.1816 C 52.2461 -35.6934 55.957 -31.3965 55.957 -26.0254 C 55.957 -18.7988 50 -13.623 41.4062 -13.623 Z M 75.293 -19.7754 C 80.127 -19.7754 83.1055 -25.6836 83.1055 -35.3027 C 83.1055 -44.9707 80.0781 -50.8789 75.293 -50.8789 C 70.5566 -50.8789 67.5293 -44.9707 67.5293 -35.3027 C 67.5293 -25.6836 70.5566 -19.7754 75.293 -19.7754 Z"/>
  </g>
  <g id="Light-M" transform="matrix(1 0 0 1 1095.42 1126)">
   <path d="M 57.7148 13.7207 C 84.5215 13.7207 106.689 -8.44727 106.689 -35.2539 C 106.689 -62.1094 84.5215 -84.2285 57.666 -84.2285 C 30.8594 -84.2285 8.74023 -62.1094 8.74023 -35.2539 C 8.74023 -8.44727 30.9082 13.7207 57.7148 13.7207 Z M 74.4629 -14.1113 C 65.9668 -14.1113 60.2539 -22.3633 60.2539 -35.3027 C 60.2539 -48.291 65.9668 -56.543 74.4629 -56.543 C 83.0078 -56.543 88.6719 -48.291 88.6719 -35.3027 C 88.6719 -22.3633 83.0078 -14.1113 74.4629 -14.1113 Z M 40.918 -14.1113 C 34.2773 -14.1113 29.1504 -18.1152 27.7832 -22.6074 C 27.6367 -23.1445 27.5391 -23.6328 27.5391 -24.2676 C 27.5391 -25.6836 28.4668 -26.709 29.8828 -26.709 C 31.1035 -26.709 31.7383 -26.0742 32.2754 -24.7559 C 33.5938 -20.9961 36.7676 -18.7988 40.9668 -18.7988 C 46.2891 -18.7988 49.9023 -21.9727 49.9023 -26.3184 C 49.9023 -30.6152 46.4355 -33.6426 41.3574 -33.6426 L 37.9883 -33.6426 C 36.6211 -33.6426 35.7422 -34.668 35.7422 -35.9863 C 35.7422 -37.4512 36.6699 -38.3789 37.9883 -38.3789 L 41.0645 -38.3789 C 45.459 -38.3789 48.584 -41.3574 48.584 -45.3125 C 48.584 -49.2188 45.5566 -51.8066 41.0156 -51.8066 C 36.7676 -51.8066 33.9844 -49.6094 33.0078 -45.8984 C 32.6172 -44.5312 31.9336 -43.8965 30.7129 -43.8965 C 29.1992 -43.8965 28.3203 -44.9219 28.3203 -46.4355 C 28.3203 -46.9727 28.3691 -47.4609 28.4668 -48.0469 C 29.7363 -52.9297 34.7656 -56.543 41.1621 -56.543 C 48.4375 -56.543 53.6133 -52.1973 53.6133 -45.9473 C 53.6133 -41.3086 50.3418 -37.1094 46.0449 -36.377 L 46.0449 -36.1816 C 51.1719 -35.6445 54.9805 -31.3477 54.9805 -26.123 C 54.9805 -19.1406 49.1699 -14.1113 40.918 -14.1113 Z M 74.4629 -18.9941 C 79.9316 -18.9941 83.4473 -25.3906 83.4473 -35.3027 C 83.4473 -45.2637 79.8828 -51.6113 74.4629 -51.6113 C 69.0918 -51.6113 65.5273 -45.2637 65.5273 -35.3027 C 65.5273 -25.3906 69.0918 -18.9941 74.4629 -18.9941 Z"/>
  </g>
  <g id="Thin-M" transform="matrix(1 0 0 1 799.806 1126)">
   <path d="M 56.6406 12.5977 C 82.9102 12.5977 104.492 -8.98438 104.492 -35.2539 C 104.492 -61.5723 82.9102 -83.1543 56.5918 -83.1543 C 30.3223 -83.1543 8.74023 -61.5723 8.74023 -35.2539 C 8.74023 -8.98438 30.3223 12.5977 56.6406 12.5977 Z M 73.3887 -14.7461 C 65.0879 -14.7461 59.4727 -22.998 59.4727 -35.3027 C 59.4727 -47.6562 65.0879 -55.9082 73.3887 -55.9082 C 81.6406 -55.9082 87.3047 -47.6562 87.3047 -35.3027 C 87.3047 -22.998 81.6406 -14.7461 73.3887 -14.7461 Z M 40.2832 -14.7461 C 33.9355 -14.7461 29.0527 -18.5059 27.6367 -22.8516 C 27.4902 -23.291 27.3926 -23.6816 27.3926 -24.2188 C 27.3926 -25.1953 28.0273 -25.9766 29.0039 -25.9766 C 29.9316 -25.9766 30.3711 -25.4395 30.7129 -24.4629 C 32.0312 -20.459 35.8398 -17.9688 40.2832 -17.9688 C 46.2402 -17.9688 50.2441 -21.4355 50.2441 -26.3184 C 50.2441 -30.957 46.2891 -34.4238 40.7715 -34.4238 L 36.8164 -34.4238 C 35.8398 -34.4238 35.2539 -35.0586 35.2539 -35.9863 C 35.2539 -37.0117 35.8887 -37.5977 36.8164 -37.5977 L 40.4297 -37.5977 C 45.3125 -37.5977 48.9258 -41.0156 48.9258 -45.4102 C 48.9258 -49.707 45.4102 -52.6855 40.2344 -52.6855 C 35.5469 -52.6855 32.2754 -50.0488 31.4941 -46.1914 C 31.25 -45.0684 30.7129 -44.6289 29.8828 -44.6289 C 28.7109 -44.6289 28.1738 -45.4102 28.1738 -46.4355 C 28.1738 -46.875 28.2227 -47.3633 28.3691 -47.8516 C 29.541 -52.6855 34.5215 -55.9082 40.2832 -55.9082 C 47.2656 -55.9082 52.3438 -51.709 52.3438 -45.752 C 52.3438 -41.2109 48.9746 -37.0605 44.6289 -36.2793 L 44.6289 -36.1328 C 49.7559 -35.5957 53.7109 -31.3477 53.7109 -26.2695 C 53.7109 -19.5801 48.0469 -14.7461 40.2832 -14.7461 Z M 73.3887 -18.0176 C 79.5898 -18.0176 83.8867 -25 83.8867 -35.3027 C 83.8867 -45.6543 79.5898 -52.6367 73.3887 -52.6367 C 67.1387 -52.6367 62.8906 -45.6543 62.8906 -35.3027 C 62.8906 -25 67.1387 -18.0176 73.3887 -18.0176 Z"/>
  </g>
  <g id="Ultralight-M" transform="matrix(1 0 0 1 503.656 1126)">
   <path d="M 56.0547 12.0605 C 82.0801 12.0605 103.369 -9.22852 103.369 -35.2539 C 103.369 -61.2793 82.0801 -82.5684 56.0547 -82.5684 C 30.0293 -82.5684 8.74023 -61.2793 8.74023 -35.2539 C 8.74023 -9.22852 30.0293 12.0605 56.0547 12.0605 Z M 72.8027 -15.0879 C 64.6484 -15.0879 59.0332 -23.3398 59.0332 -35.3027 C 59.0332 -47.3145 64.6484 -55.5664 72.8027 -55.5664 C 80.957 -55.5664 86.5723 -47.3145 86.5723 -35.3027 C 86.5723 -23.3398 80.957 -15.0879 72.8027 -15.0879 Z M 39.9414 -15.0879 C 33.7891 -15.0879 28.9551 -18.7012 27.5391 -22.998 C 27.4414 -23.3398 27.2949 -23.7305 27.2949 -24.2188 C 27.2949 -24.9512 27.7832 -25.5859 28.5645 -25.5859 C 29.2969 -25.5859 29.6875 -25.1465 29.9316 -24.3652 C 31.2012 -20.166 35.3516 -17.5293 39.9414 -17.5293 C 46.2402 -17.5293 50.4395 -21.1426 50.4395 -26.3672 C 50.4395 -31.1035 46.1914 -34.8145 40.4785 -34.8145 L 36.2305 -34.8145 C 35.4492 -34.8145 35.0098 -35.2539 35.0098 -35.9863 C 35.0098 -36.8164 35.498 -37.207 36.2305 -37.207 L 40.0879 -37.207 C 45.2637 -37.207 49.0723 -40.8691 49.0723 -45.4102 C 49.0723 -50 45.3613 -53.125 39.8438 -53.125 C 34.9121 -53.125 31.3965 -50.293 30.7129 -46.2891 C 30.5664 -45.3613 30.127 -45.0195 29.4434 -45.0195 C 28.4668 -45.0195 28.125 -45.6055 28.125 -46.4844 C 28.125 -46.8262 28.1738 -47.2656 28.2715 -47.7051 C 29.3945 -52.5879 34.375 -55.5664 39.8438 -55.5664 C 46.6797 -55.5664 51.6602 -51.4648 51.6602 -45.6543 C 51.6602 -41.1621 48.291 -37.0117 43.8965 -36.1816 L 43.8965 -36.1328 C 49.0723 -35.5469 53.0273 -31.3477 53.0273 -26.3672 C 53.0273 -19.8242 47.5098 -15.0879 39.9414 -15.0879 Z M 72.8027 -17.5293 C 79.4434 -17.5293 84.082 -24.7559 84.082 -35.3027 C 84.082 -45.8496 79.4434 -53.125 72.8027 -53.125 C 66.1621 -53.125 61.5234 -45.8496 61.5234 -35.3027 C 61.5234 -24.7559 66.1621 -17.5293 72.8027 -17.5293 Z"/>
  </g>
  <g id="Black-S" transform="matrix(1 0 0 1 2884.57 696)">
   <path d="M 48.8281 6.78711 C 71.9727 6.78711 90.8203 -12.0605 90.8203 -35.2051 C 90.8203 -58.3496 71.9727 -77.1973 48.8281 -77.1973 C 25.6836 -77.1973 6.83594 -58.3496 6.83594 -35.2051 C 6.83594 -12.0605 25.6836 6.78711 48.8281 6.78711 Z M 60.5469 -19.8242 C 54.4434 -19.8242 50.3906 -24.1699 50.3906 -35.2539 C 50.3906 -46.3379 54.4434 -50.6836 60.5469 -50.6836 C 66.5527 -50.6836 70.9961 -46.3379 70.9961 -35.2539 C 70.9961 -24.1699 66.5527 -19.8242 60.5469 -19.8242 Z M 36.9629 -19.8242 C 32.4707 -19.8242 28.3691 -22.6074 27.4902 -25.5859 C 27.2461 -26.2695 27.0996 -26.9531 27.0996 -27.6367 C 27.0996 -29.9805 28.9551 -31.2012 30.5176 -31.2012 C 32.0801 -31.2012 33.1543 -30.5664 33.9844 -29.4434 C 34.8633 -28.1738 36.084 -27.5879 37.1582 -27.5879 C 38.2812 -27.5879 39.0625 -28.5156 39.0625 -29.4434 C 39.0625 -30.6641 38.2812 -31.4453 36.9141 -31.4453 L 36.8652 -31.4453 C 34.1309 -31.4453 32.959 -33.0566 32.959 -35.3516 C 32.959 -37.6465 34.375 -39.209 36.8652 -39.209 L 36.9141 -39.209 C 38.2812 -39.209 38.7695 -40.2832 38.7695 -41.1621 C 38.7695 -42.4805 37.9395 -43.2617 36.8652 -43.2617 C 35.7422 -43.2617 34.9609 -42.7246 34.082 -41.4551 C 33.3496 -40.3809 32.2754 -39.6484 30.7129 -39.6484 C 28.8086 -39.6484 27.4414 -40.918 27.4414 -43.1641 C 27.4414 -43.8965 27.5879 -44.5801 27.9785 -45.5566 C 28.9551 -47.7051 32.1777 -50.6836 36.9629 -50.6836 C 43.2129 -50.6836 47.1191 -47.4609 47.1191 -42.4316 C 47.1191 -39.5508 45.1172 -36.7676 42.4316 -36.3281 L 42.4316 -35.9375 C 45.6055 -35.7422 47.7051 -32.6172 47.7051 -28.9062 C 47.7051 -23.3398 43.6035 -19.8242 36.9629 -19.8242 Z M 60.6934 -28.0273 C 61.8652 -28.0273 62.6465 -29.4434 62.6465 -35.2539 C 62.6465 -41.0645 61.8652 -42.4805 60.6934 -42.4805 C 59.5215 -42.4805 58.7402 -41.0645 58.7402 -35.2539 C 58.7402 -29.4434 59.5215 -28.0273 60.6934 -28.0273 Z"/>
  </g>
  <g id="Heavy-S" transform="matrix(1 0 0 1 2588.47 696)">
   <path d="M 48.2422 6.15234 C 70.9961 6.15234 89.5996 -12.4512 89.5996 -35.2051 C 89.5996 -57.959 70.9961 -76.6113 48.1934 -76.6113 C 25.4395 -76.6113 6.83594 -57.959 6.83594 -35.2051 C 6.83594 -12.4512 25.4395 6.15234 48.2422 6.15234 Z M 60.2539 -19.3848 C 54.0039 -19.3848 49.8047 -24.2676 49.8047 -35.2539 C 49.8047 -46.2891 54.0039 -51.123 60.2539 -51.123 C 66.5039 -51.123 70.9473 -46.2891 70.9473 -35.2539 C 70.9473 -24.2676 66.5039 -19.3848 60.2539 -19.3848 Z M 35.9375 -19.3848 C 31.25 -19.3848 27.0996 -22.3145 26.1719 -25.4883 C 25.9277 -26.123 25.8301 -26.7578 25.8301 -27.3926 C 25.8301 -29.541 27.4902 -30.7617 29.0527 -30.7617 C 30.5176 -30.7617 31.4941 -30.127 32.2754 -28.9062 C 33.2031 -27.3438 34.5703 -26.5625 36.1328 -26.5625 C 37.793 -26.5625 39.0137 -27.7832 39.0137 -29.1504 C 39.0137 -30.8105 37.8906 -31.8848 35.9863 -31.8848 L 35.4492 -31.8848 C 33.0078 -31.8848 31.8848 -33.3496 31.8848 -35.4492 C 31.8848 -37.5977 33.2031 -39.0137 35.4492 -39.0137 L 35.9375 -39.0137 C 37.6953 -39.0137 38.5254 -40.2832 38.5254 -41.6016 C 38.5254 -43.2129 37.4512 -44.2383 35.9375 -44.2383 C 34.375 -44.2383 33.3984 -43.5059 32.4707 -41.8945 C 31.8359 -40.7715 30.8594 -40.0391 29.3457 -40.0391 C 27.5391 -40.0391 26.2207 -41.2598 26.2207 -43.3594 C 26.2207 -44.043 26.3672 -44.6777 26.6602 -45.5566 C 27.6855 -48.0957 31.0547 -51.123 36.0352 -51.123 C 42.2363 -51.123 46.1914 -47.8027 46.1914 -42.7734 C 46.1914 -39.6973 44.0918 -36.7676 41.2598 -36.3281 L 41.2598 -35.9375 C 44.6289 -35.6934 46.9238 -32.5195 46.9238 -28.6621 C 46.9238 -23.0469 42.627 -19.3848 35.9375 -19.3848 Z M 60.4004 -26.9531 C 62.1094 -26.9531 63.1836 -29.0527 63.1836 -35.2539 C 63.1836 -41.4551 62.1094 -43.6035 60.4004 -43.6035 C 58.6914 -43.6035 57.6172 -41.4551 57.6172 -35.2539 C 57.6172 -29.0527 58.6914 -26.9531 60.4004 -26.9531 Z"/>
  </g>
  <g id="Bold-S" transform="matrix(1 0 0 1 2292.44 696)">
   <path d="M 47.5586 5.46875 C 69.873 5.46875 88.2324 -12.8906 88.2324 -35.2539 C 88.2324 -57.5684 69.873 -75.9277 47.5098 -75.9277 C 25.1953 -75.9277 6.83594 -57.5684 6.83594 -35.2539 C 6.83594 -12.8906 25.1953 5.46875 47.5586 5.46875 Z M 59.9609 -18.9453 C 53.4668 -18.9453 49.2188 -24.3652 49.2188 -35.3027 C 49.2188 -46.1914 53.4668 -51.6113 59.9609 -51.6113 C 66.4062 -51.6113 70.8984 -46.1914 70.8984 -35.3027 C 70.8984 -24.3652 66.4062 -18.9453 59.9609 -18.9453 Z M 34.8145 -18.9453 C 29.834 -18.9453 25.6348 -22.0215 24.707 -25.3418 C 24.5117 -25.9766 24.4141 -26.5137 24.4141 -27.1484 C 24.4141 -29.1016 25.8301 -30.2734 27.3926 -30.2734 C 28.8086 -30.2734 29.6875 -29.5898 30.3711 -28.3691 C 31.3477 -26.3672 32.9102 -25.3906 34.9609 -25.3906 C 37.2559 -25.3906 38.916 -26.9531 38.916 -28.8574 C 38.916 -31.0059 37.4023 -32.3242 34.9609 -32.3242 L 33.8867 -32.3242 C 31.7871 -32.3242 30.7129 -33.7402 30.7129 -35.5957 C 30.7129 -37.5 31.9336 -38.8184 33.8867 -38.8184 L 34.8633 -38.8184 C 37.0117 -38.8184 38.2812 -40.332 38.2812 -42.1387 C 38.2812 -44.0918 36.8652 -45.3613 34.8633 -45.3613 C 32.8613 -45.3613 31.5918 -44.3848 30.7129 -42.3828 C 30.127 -41.1621 29.248 -40.4785 27.7832 -40.4785 C 26.0742 -40.4785 24.9023 -41.6504 24.9023 -43.5547 C 24.9023 -44.1895 24.9512 -44.7754 25.1953 -45.5078 C 26.2207 -48.5352 29.834 -51.6113 35.0098 -51.6113 C 41.1133 -51.6113 45.166 -48.1934 45.166 -43.1152 C 45.166 -39.7949 42.9199 -36.7676 39.9414 -36.2793 L 39.9414 -35.9375 C 43.5059 -35.6445 45.9961 -32.4219 45.9961 -28.418 C 45.9961 -22.7539 41.6016 -18.9453 34.8145 -18.9453 Z M 60.0586 -25.7324 C 62.4023 -25.7324 63.8184 -28.6621 63.8184 -35.3027 C 63.8184 -41.8945 62.3535 -44.8242 60.0586 -44.8242 C 57.7637 -44.8242 56.2988 -41.8945 56.2988 -35.3027 C 56.2988 -28.6621 57.7637 -25.7324 60.0586 -25.7324 Z"/>
  </g>
  <g id="Semibold-S" transform="matrix(1 0 0 1 1996.2 696)">
   <path d="M 47.0703 4.98047 C 69.0918 4.98047 87.3047 -13.1836 87.3047 -35.2539 C 87.3047 -57.2754 69.0918 -75.4883 47.0215 -75.4883 C 25 -75.4883 6.83594 -57.2754 6.83594 -35.2539 C 6.83594 -13.1836 25.0488 4.98047 47.0703 4.98047 Z M 59.7656 -18.6035 C 53.125 -18.6035 48.7793 -24.4141 48.7793 -35.3027 C 48.7793 -46.1426 53.125 -51.9531 59.7656 -51.9531 C 66.3574 -51.9531 70.8496 -46.1426 70.8496 -35.3027 C 70.8496 -24.4141 66.3574 -18.6035 59.7656 -18.6035 Z M 34.0332 -18.6035 C 28.8574 -18.6035 24.6582 -21.8262 23.6816 -25.293 C 23.4863 -25.8301 23.4375 -26.3672 23.4375 -26.9531 C 23.4375 -28.7598 24.707 -29.9316 26.2695 -29.9316 C 27.5879 -29.9316 28.418 -29.248 29.0527 -27.9785 C 30.0781 -25.7324 31.7383 -24.6094 34.1309 -24.6094 C 36.9141 -24.6094 38.8672 -26.3672 38.8672 -28.6133 C 38.8672 -31.1035 37.1094 -32.666 34.2285 -32.666 L 32.7637 -32.666 C 30.957 -32.666 29.8828 -33.9355 29.8828 -35.6445 C 29.8828 -37.5 31.0059 -38.6719 32.7637 -38.6719 L 34.082 -38.6719 C 36.5723 -38.6719 38.0859 -40.332 38.0859 -42.4805 C 38.0859 -44.6777 36.4746 -46.0938 34.1309 -46.0938 C 31.8359 -46.0938 30.3711 -44.9707 29.4434 -42.7246 C 28.9551 -41.4551 28.125 -40.7715 26.709 -40.7715 C 25.0977 -40.7715 23.9746 -41.9434 23.9746 -43.7012 C 23.9746 -44.3359 24.0234 -44.8242 24.2188 -45.5078 C 25.2441 -48.8281 28.9551 -51.9531 34.2773 -51.9531 C 40.3809 -51.9531 44.4824 -48.4863 44.4824 -43.3594 C 44.4824 -39.8926 42.0898 -36.7676 39.0625 -36.2793 L 39.0625 -35.9863 C 42.7734 -35.6445 45.4102 -32.373 45.4102 -28.2715 C 45.4102 -22.5586 40.8691 -18.6035 34.0332 -18.6035 Z M 59.8145 -24.9023 C 62.5977 -24.9023 64.209 -28.3691 64.209 -35.3027 C 64.209 -42.1875 62.5488 -45.6543 59.8145 -45.6543 C 57.0801 -45.6543 55.4199 -42.1875 55.4199 -35.3027 C 55.4199 -28.3691 57.0801 -24.9023 59.8145 -24.9023 Z"/>
  </g>
  <g id="Medium-S" transform="matrix(1 0 0 1 1699.83 696)">
   <path d="M 46.7285 4.63867 C 68.5547 4.63867 86.6211 -13.4277 86.6211 -35.2539 C 86.6211 -57.0801 68.5059 -75.1465 46.6797 -75.1465 C 24.8535 -75.1465 6.83594 -57.0801 6.83594 -35.2539 C 6.83594 -13.4277 24.9023 4.63867 46.7285 4.63867 Z M 59.6191 -18.3594 C 52.8809 -18.3594 48.4375 -24.4629 48.4375 -35.3027 C 48.4375 -46.0938 52.8809 -52.2461 59.6191 -52.2461 C 66.3574 -52.2461 70.8008 -46.0938 70.8008 -35.3027 C 70.8008 -24.4629 66.3574 -18.3594 59.6191 -18.3594 Z M 33.4473 -18.3594 C 28.1738 -18.3594 23.9258 -21.6309 22.9004 -25.1953 C 22.7539 -25.7812 22.6562 -26.2207 22.6562 -26.8555 C 22.6562 -28.5156 23.877 -29.6387 25.3906 -29.6387 C 26.6602 -29.6387 27.4414 -29.0039 28.0762 -27.6367 C 29.1016 -25.2441 30.8594 -23.9746 33.5449 -23.9746 C 36.6211 -23.9746 38.8184 -25.9277 38.8184 -28.4668 C 38.8184 -31.2012 36.8652 -32.9102 33.6914 -32.9102 L 31.9336 -32.9102 C 30.2734 -32.9102 29.248 -34.1309 29.248 -35.6934 C 29.248 -37.4512 30.3223 -38.5742 31.9336 -38.5742 L 33.5449 -38.5742 C 36.2305 -38.5742 37.9395 -40.332 37.9395 -42.7246 C 37.9395 -45.1172 36.1816 -46.6797 33.5938 -46.6797 C 31.0059 -46.6797 29.4922 -45.459 28.5156 -43.0176 C 28.0762 -41.6992 27.2949 -41.0156 25.9277 -41.0156 C 24.3652 -41.0156 23.2422 -42.1387 23.2422 -43.7988 C 23.2422 -44.3848 23.291 -44.873 23.4375 -45.5078 C 24.5117 -49.0234 28.3203 -52.2461 33.7402 -52.2461 C 39.7949 -52.2461 43.9453 -48.6816 43.9453 -43.5547 C 43.9453 -39.9902 41.5039 -36.7676 38.3789 -36.2793 L 38.3789 -35.9863 C 42.1875 -35.5957 44.9219 -32.2754 44.9219 -28.125 C 44.9219 -22.3633 40.2832 -18.3594 33.4473 -18.3594 Z M 59.6191 -24.2676 C 62.6953 -24.2676 64.5508 -28.1738 64.5508 -35.3027 C 64.5508 -42.4316 62.6953 -46.2891 59.6191 -46.2891 C 56.5918 -46.2891 54.7852 -42.4316 54.7852 -35.3027 C 54.7852 -28.1738 56.5918 -24.2676 59.6191 -24.2676 Z"/>
  </g>
  <g id="Regular-S" transform="matrix(1 0 0 1 1403.58 696)">
   <path d="M 46.2402 4.15039 C 67.7734 4.15039 85.6934 -13.7207 85.6934 -35.2539 C 85.6934 -56.7871 67.7246 -74.6582 46.1914 -74.6582 C 24.707 -74.6582 6.83594 -56.7871 6.83594 -35.2539 C 6.83594 -13.7207 24.7559 4.15039 46.2402 4.15039 Z M 59.375 -18.0664 C 52.5391 -18.0664 47.998 -24.5605 47.998 -35.3027 C 47.998 -46.0449 52.5391 -52.5391 59.375 -52.5391 C 66.3086 -52.5391 70.8008 -46.0449 70.8008 -35.3027 C 70.8008 -24.5605 66.3086 -18.0664 59.375 -18.0664 Z M 32.666 -18.0664 C 27.1973 -18.0664 22.9492 -21.4355 21.9238 -25.1465 C 21.7773 -25.6348 21.7285 -26.0742 21.7285 -26.6602 C 21.7285 -28.2227 22.7539 -29.2969 24.2676 -29.2969 C 25.4883 -29.2969 26.2207 -28.6621 26.7578 -27.2461 C 27.832 -24.6094 29.7363 -23.1934 32.7148 -23.1934 C 36.2793 -23.1934 38.7695 -25.3906 38.7695 -28.2227 C 38.7695 -31.3477 36.5723 -33.252 33.0078 -33.252 L 30.8594 -33.252 C 29.4434 -33.252 28.4668 -34.375 28.4668 -35.791 C 28.4668 -37.4023 29.4434 -38.4277 30.8594 -38.4277 L 32.7637 -38.4277 C 35.791 -38.4277 37.793 -40.332 37.793 -43.0664 C 37.793 -45.6543 35.791 -47.4121 32.8613 -47.4121 C 29.9805 -47.4121 28.2715 -46.0449 27.2949 -43.3594 C 26.9043 -41.9434 26.1719 -41.3086 24.8535 -41.3086 C 23.3887 -41.3086 22.3633 -42.3828 22.3633 -43.9453 C 22.3633 -44.5312 22.3633 -44.9707 22.4609 -45.459 C 23.4863 -49.3164 27.4414 -52.5391 33.0566 -52.5391 C 39.0137 -52.5391 43.2617 -48.9746 43.2617 -43.8477 C 43.2617 -40.0879 40.7227 -36.7676 37.5 -36.2793 L 37.5 -35.9863 C 41.4551 -35.5957 44.3359 -32.2266 44.3359 -27.9297 C 44.3359 -22.168 39.5508 -18.0664 32.666 -18.0664 Z M 59.375 -23.4863 C 62.8906 -23.4863 64.9414 -27.8809 64.9414 -35.3027 C 64.9414 -42.7246 62.8418 -47.1191 59.375 -47.1191 C 55.957 -47.1191 53.9062 -42.7246 53.9062 -35.3027 C 53.9062 -27.8809 55.957 -23.4863 59.375 -23.4863 Z"/>
  </g>
  <g id="Light-S" transform="matrix(1 0 0 1 1107.6 696)">
   <path d="M 45.5078 3.41797 C 66.6992 3.41797 84.2285 -14.0625 84.2285 -35.2539 C 84.2285 -56.4453 66.6504 -73.9258 45.5078 -73.9258 C 24.3164 -73.9258 6.83594 -56.4453 6.83594 -35.2539 C 6.83594 -14.0625 24.3652 3.41797 45.5078 3.41797 Z M 58.6426 -18.5059 C 51.9531 -18.5059 47.4609 -24.9512 47.4609 -35.3027 C 47.4609 -45.6543 51.9531 -52.0996 58.6426 -52.0996 C 65.3809 -52.0996 69.873 -45.6543 69.873 -35.3027 C 69.873 -24.9512 65.3809 -18.5059 58.6426 -18.5059 Z M 32.2266 -18.5059 C 26.9531 -18.5059 22.8516 -21.6797 21.8262 -25.293 C 21.6797 -25.7324 21.6309 -26.123 21.6309 -26.6602 C 21.6309 -27.8809 22.4609 -28.8086 23.6816 -28.8086 C 24.707 -28.8086 25.293 -28.2227 25.7324 -27.0996 C 26.8066 -24.2188 29.1016 -22.6074 32.2754 -22.6074 C 36.2793 -22.6074 39.0137 -25 39.0137 -28.2227 C 39.0137 -31.543 36.4258 -33.7402 32.5684 -33.7402 L 30.0781 -33.7402 C 28.9062 -33.7402 28.125 -34.668 28.125 -35.791 C 28.125 -37.1094 28.9551 -37.9395 30.0781 -37.9395 L 32.373 -37.9395 C 35.6934 -37.9395 37.9883 -40.1367 37.9883 -43.1152 C 37.9883 -45.9961 35.6934 -47.998 32.373 -47.998 C 29.1504 -47.998 27.0996 -46.3379 26.3184 -43.5059 C 25.9766 -42.334 25.3906 -41.7969 24.3164 -41.7969 C 23.0469 -41.7969 22.2656 -42.6758 22.2656 -43.9941 C 22.2656 -44.4824 22.2656 -44.873 22.3633 -45.3125 C 23.3398 -49.1699 27.2949 -52.0996 32.4707 -52.0996 C 38.2812 -52.0996 42.3828 -48.6328 42.3828 -43.7012 C 42.3828 -40.0391 39.7949 -36.7188 36.5234 -36.1816 L 36.5234 -35.9863 C 40.4785 -35.5469 43.457 -32.2266 43.457 -28.0273 C 43.457 -22.4609 38.8184 -18.5059 32.2266 -18.5059 Z M 58.6426 -22.8027 C 62.6953 -22.8027 65.2344 -27.6367 65.2344 -35.3027 C 65.2344 -42.9688 62.6465 -47.8027 58.6426 -47.8027 C 54.6875 -47.8027 52.0996 -42.9688 52.0996 -35.3027 C 52.0996 -27.6367 54.6875 -22.8027 58.6426 -22.8027 Z"/>
  </g>
  <g id="Thin-S" transform="matrix(1 0 0 1 811.867 696)">
   <path d="M 44.5801 2.49023 C 65.2832 2.49023 82.2754 -14.5508 82.2754 -35.2539 C 82.2754 -55.957 65.2344 -72.998 44.5312 -72.998 C 23.8281 -72.998 6.83594 -55.957 6.83594 -35.2539 C 6.83594 -14.5508 23.877 2.49023 44.5801 2.49023 Z M 57.7148 -19.043 C 51.1719 -19.043 46.7285 -25.5371 46.7285 -35.3027 C 46.7285 -45.0684 51.1719 -51.5625 57.7148 -51.5625 C 64.209 -51.5625 68.6523 -45.0684 68.6523 -35.3027 C 68.6523 -25.5371 64.209 -19.043 57.7148 -19.043 Z M 31.6895 -19.043 C 26.6602 -19.043 22.7539 -22.0215 21.6797 -25.4883 C 21.582 -25.8301 21.4844 -26.1719 21.4844 -26.6113 C 21.4844 -27.4902 22.0215 -28.125 22.9004 -28.125 C 23.6816 -28.125 24.0723 -27.6855 24.3652 -26.8555 C 25.3906 -23.7305 28.2715 -21.875 31.6895 -21.875 C 36.2305 -21.875 39.3066 -24.5117 39.3066 -28.2715 C 39.3066 -31.7871 36.2793 -34.4238 32.0801 -34.4238 L 29.0527 -34.4238 C 28.2227 -34.4238 27.7344 -35.0098 27.7344 -35.8398 C 27.7344 -36.7188 28.2715 -37.2559 29.0527 -37.2559 L 31.7871 -37.2559 C 35.5469 -37.2559 38.2324 -39.8438 38.2324 -43.1641 C 38.2324 -46.4844 35.5957 -48.7305 31.6895 -48.7305 C 28.0762 -48.7305 25.6348 -46.7773 24.9512 -43.75 C 24.7559 -42.8223 24.3164 -42.4316 23.584 -42.4316 C 22.6074 -42.4316 22.1191 -43.1152 22.1191 -43.9941 C 22.1191 -44.3848 22.168 -44.7754 22.2656 -45.166 C 23.1934 -48.9746 27.0996 -51.5625 31.7383 -51.5625 C 37.2559 -51.5625 41.2598 -48.2422 41.2598 -43.5059 C 41.2598 -39.9414 38.623 -36.6699 35.2539 -36.084 L 35.2539 -35.9375 C 39.2578 -35.5469 42.334 -32.1777 42.334 -28.1738 C 42.334 -22.9004 37.8906 -19.043 31.6895 -19.043 Z M 57.7148 -21.9238 C 62.4512 -21.9238 65.625 -27.2949 65.625 -35.3027 C 65.625 -43.3105 62.4023 -48.6816 57.7148 -48.6816 C 52.9785 -48.6816 49.7559 -43.3105 49.7559 -35.3027 C 49.7559 -27.2949 52.9785 -21.9238 57.7148 -21.9238 Z"/>
  </g>
  <g id="Ultralight-S" transform="matrix(1 0 0 1 515.644 696)">
   <path d="M 44.043 1.95312 C 64.502 1.95312 81.2988 -14.7949 81.2988 -35.2539 C 81.2988 -55.7129 64.502 -72.4609 44.043 -72.4609 C 23.584 -72.4609 6.83594 -55.7129 6.83594 -35.2539 C 6.83594 -14.7949 23.584 1.95312 44.043 1.95312 Z M 57.1777 -19.3848 C 50.7812 -19.3848 46.3867 -25.8301 46.3867 -35.3027 C 46.3867 -44.7754 50.7812 -51.2207 57.1777 -51.2207 C 63.623 -51.2207 68.0176 -44.7754 68.0176 -35.3027 C 68.0176 -25.8301 63.623 -19.3848 57.1777 -19.3848 Z M 31.3477 -19.3848 C 26.5137 -19.3848 22.7051 -22.2168 21.582 -25.5859 C 21.4844 -25.9277 21.3867 -26.2207 21.3867 -26.6113 C 21.3867 -27.2461 21.8262 -27.7832 22.5098 -27.7832 C 23.1445 -27.7832 23.4375 -27.3926 23.6328 -26.7578 C 24.6582 -23.4863 27.832 -21.4844 31.3477 -21.4844 C 36.2305 -21.4844 39.4531 -24.2676 39.4531 -28.2715 C 39.4531 -31.9336 36.1816 -34.7656 31.7871 -34.7656 L 28.5156 -34.7656 C 27.8809 -34.7656 27.4902 -35.2051 27.4902 -35.8398 C 27.4902 -36.5234 27.9297 -36.9141 28.5156 -36.9141 L 31.4941 -36.9141 C 35.4492 -36.9141 38.3789 -39.6973 38.3789 -43.2129 C 38.3789 -46.7285 35.5469 -49.1211 31.3477 -49.1211 C 27.5391 -49.1211 24.8535 -46.9727 24.2676 -43.8477 C 24.1211 -43.1152 23.7793 -42.7734 23.1934 -42.7734 C 22.3633 -42.7734 22.0215 -43.3105 22.0215 -44.043 C 22.0215 -44.3359 22.0703 -44.6777 22.168 -45.0195 C 23.0469 -48.877 27.002 -51.2207 31.3477 -51.2207 C 36.7188 -51.2207 40.6738 -47.998 40.6738 -43.4082 C 40.6738 -39.8926 38.0371 -36.6211 34.5703 -35.9863 L 34.5703 -35.9375 C 38.623 -35.498 41.748 -32.1777 41.748 -28.2715 C 41.748 -23.0957 37.3535 -19.3848 31.3477 -19.3848 Z M 57.1777 -21.4844 C 62.3047 -21.4844 65.8203 -27.0996 65.8203 -35.3027 C 65.8203 -43.5059 62.3047 -49.1211 57.1777 -49.1211 C 52.0996 -49.1211 48.584 -43.5059 48.584 -35.3027 C 48.584 -27.0996 52.0996 -21.4844 57.1777 -21.4844 Z"/>
  </g>
 </g>
</svg>
