<?xml version="1.0" encoding="UTF-8"?>
<!--Generator: Apple Native CoreSVG 148-->
<!DOCTYPE svg
PUBLIC "-//W3C//DTD SVG 1.1//EN"
       "http://www.w3.org/Graphics/SVG/1.1/DTD/svg11.dtd">
<svg version="1.1" xmlns="http://www.w3.org/2000/svg" xmlns:xlink="http://www.w3.org/1999/xlink" width="3300" height="2200">
 <!--glyph: "uni1006C6.medium", point size: 100.000000, font version: "Version 16.0d11e1", template writer version: "8"-->
 <g id="Notes">
  <rect height="2200" id="artboard" style="fill:white;opacity:1" width="3300" x="0" y="0"/>
  <line id="" style="fill:none;stroke:black;opacity:1;stroke-width:0.5;" x1="263" x2="3036" y1="292" y2="292"/>
  <text style="stroke:none;fill:black;font-family:-apple-system,&quot;SF Pro Display&quot;,&quot;SF Pro Text&quot;,Helvetica,sans-serif;font-weight:bold;" transform="matrix(1 0 0 1 263 322)">Weight/Scale Variations</text>
  <text style="stroke:none;fill:black;font-family:-apple-system,&quot;SF Pro Display&quot;,&quot;SF Pro Text&quot;,Helvetica,sans-serif;text-anchor:middle;" transform="matrix(1 0 0 1 559.711 322)">Ultralight</text>
  <text style="stroke:none;fill:black;font-family:-apple-system,&quot;SF Pro Display&quot;,&quot;SF Pro Text&quot;,Helvetica,sans-serif;text-anchor:middle;" transform="matrix(1 0 0 1 856.422 322)">Thin</text>
  <text style="stroke:none;fill:black;font-family:-apple-system,&quot;SF Pro Display&quot;,&quot;SF Pro Text&quot;,Helvetica,sans-serif;text-anchor:middle;" transform="matrix(1 0 0 1 1153.13 322)">Light</text>
  <text style="stroke:none;fill:black;font-family:-apple-system,&quot;SF Pro Display&quot;,&quot;SF Pro Text&quot;,Helvetica,sans-serif;text-anchor:middle;" transform="matrix(1 0 0 1 1449.84 322)">Regular</text>
  <text style="stroke:none;fill:black;font-family:-apple-system,&quot;SF Pro Display&quot;,&quot;SF Pro Text&quot;,Helvetica,sans-serif;text-anchor:middle;" transform="matrix(1 0 0 1 1746.56 322)">Medium</text>
  <text style="stroke:none;fill:black;font-family:-apple-system,&quot;SF Pro Display&quot;,&quot;SF Pro Text&quot;,Helvetica,sans-serif;text-anchor:middle;" transform="matrix(1 0 0 1 2043.27 322)">Semibold</text>
  <text style="stroke:none;fill:black;font-family:-apple-system,&quot;SF Pro Display&quot;,&quot;SF Pro Text&quot;,Helvetica,sans-serif;text-anchor:middle;" transform="matrix(1 0 0 1 2339.98 322)">Bold</text>
  <text style="stroke:none;fill:black;font-family:-apple-system,&quot;SF Pro Display&quot;,&quot;SF Pro Text&quot;,Helvetica,sans-serif;text-anchor:middle;" transform="matrix(1 0 0 1 2636.69 322)">Heavy</text>
  <text style="stroke:none;fill:black;font-family:-apple-system,&quot;SF Pro Display&quot;,&quot;SF Pro Text&quot;,Helvetica,sans-serif;text-anchor:middle;" transform="matrix(1 0 0 1 2933.4 322)">Black</text>
  <line id="" style="fill:none;stroke:black;opacity:1;stroke-width:0.5;" x1="263" x2="3036" y1="1903" y2="1903"/>
  <g id="" transform="matrix(1 0 0 1 263 1933)">
   <path d="M 9.24805 0.830078 C 13.5547 0.830078 17.1387 -2.74414 17.1387 -7.05078 C 17.1387 -11.3574 13.5449 -14.9316 9.23828 -14.9316 C 4.94141 -14.9316 1.36719 -11.3574 1.36719 -7.05078 C 1.36719 -2.74414 4.95117 0.830078 9.24805 0.830078 Z M 9.24805 -0.654297 C 5.70312 -0.654297 2.87109 -3.49609 2.87109 -7.05078 C 2.87109 -10.6055 5.69336 -13.4473 9.23828 -13.4473 C 12.793 -13.4473 15.6348 -10.6055 15.6445 -7.05078 C 15.6543 -3.49609 12.8027 -0.654297 9.24805 -0.654297 Z M 9.22852 -3.62305 C 9.69727 -3.62305 9.9707 -3.93555 9.9707 -4.45312 L 9.9707 -6.31836 L 12.002 -6.31836 C 12.5 -6.31836 12.832 -6.57227 12.832 -7.04102 C 12.832 -7.51953 12.5195 -7.7832 12.002 -7.7832 L 9.9707 -7.7832 L 9.9707 -9.81445 C 9.9707 -10.332 9.69727 -10.6543 9.22852 -10.6543 C 8.75977 -10.6543 8.50586 -10.3125 8.50586 -9.81445 L 8.50586 -7.7832 L 6.49414 -7.7832 C 5.97656 -7.7832 5.64453 -7.51953 5.64453 -7.04102 C 5.64453 -6.57227 5.99609 -6.31836 6.49414 -6.31836 L 8.50586 -6.31836 L 8.50586 -4.45312 C 8.50586 -3.95508 8.75977 -3.62305 9.22852 -3.62305 Z"/>
  </g>
  <g id="" transform="matrix(1 0 0 1 281.506 1933)">
   <path d="M 11.709 2.91016 C 17.1582 2.91016 21.6699 -1.61133 21.6699 -7.05078 C 21.6699 -12.5 17.1484 -17.0117 11.6992 -17.0117 C 6.25977 -17.0117 1.74805 -12.5 1.74805 -7.05078 C 1.74805 -1.61133 6.26953 2.91016 11.709 2.91016 Z M 11.709 1.25 C 7.09961 1.25 3.41797 -2.44141 3.41797 -7.05078 C 3.41797 -11.6602 7.08984 -15.3516 11.6992 -15.3516 C 16.3086 -15.3516 20 -11.6602 20.0098 -7.05078 C 20.0195 -2.44141 16.3184 1.25 11.709 1.25 Z M 11.6797 -2.66602 C 12.207 -2.66602 12.5098 -3.01758 12.5098 -3.59375 L 12.5098 -6.23047 L 15.3223 -6.23047 C 15.8691 -6.23047 16.25 -6.51367 16.25 -7.03125 C 16.25 -7.55859 15.8887 -7.86133 15.3223 -7.86133 L 12.5098 -7.86133 L 12.5098 -10.6836 C 12.5098 -11.25 12.207 -11.6113 11.6797 -11.6113 C 11.1621 -11.6113 10.8789 -11.2305 10.8789 -10.6836 L 10.8789 -7.86133 L 8.07617 -7.86133 C 7.50977 -7.86133 7.13867 -7.55859 7.13867 -7.03125 C 7.13867 -6.51367 7.5293 -6.23047 8.07617 -6.23047 L 10.8789 -6.23047 L 10.8789 -3.59375 C 10.8789 -3.03711 11.1621 -2.66602 11.6797 -2.66602 Z"/>
  </g>
  <g id="" transform="matrix(1 0 0 1 304.924 1933)">
   <path d="M 14.9707 5.66406 C 21.9336 5.66406 27.6953 -0.0976562 27.6953 -7.05078 C 27.6953 -14.0137 21.9238 -19.7754 14.9609 -19.7754 C 8.00781 -19.7754 2.25586 -14.0137 2.25586 -7.05078 C 2.25586 -0.0976562 8.01758 5.66406 14.9707 5.66406 Z M 14.9707 3.84766 C 8.93555 3.84766 4.08203 -1.01562 4.08203 -7.05078 C 4.08203 -13.0957 8.92578 -17.9492 14.9609 -17.9492 C 21.0059 -17.9492 25.8594 -13.0957 25.8691 -7.05078 C 25.8789 -1.01562 21.0156 3.84766 14.9707 3.84766 Z M 14.9414 -1.38672 C 15.5176 -1.38672 15.8594 -1.77734 15.8594 -2.38281 L 15.8594 -6.13281 L 19.7754 -6.13281 C 20.3711 -6.13281 20.7812 -6.46484 20.7812 -7.02148 C 20.7812 -7.59766 20.3906 -7.93945 19.7754 -7.93945 L 15.8594 -7.93945 L 15.8594 -11.8652 C 15.8594 -12.4805 15.5176 -12.8711 14.9414 -12.8711 C 14.375 -12.8711 14.0527 -12.4609 14.0527 -11.8652 L 14.0527 -7.93945 L 10.1465 -7.93945 C 9.53125 -7.93945 9.13086 -7.59766 9.13086 -7.02148 C 9.13086 -6.46484 9.55078 -6.13281 10.1465 -6.13281 L 14.0527 -6.13281 L 14.0527 -2.38281 C 14.0527 -1.79688 14.375 -1.38672 14.9414 -1.38672 Z"/>
  </g>
  <text style="stroke:none;fill:black;font-family:-apple-system,&quot;SF Pro Display&quot;,&quot;SF Pro Text&quot;,Helvetica,sans-serif;font-weight:bold;" transform="matrix(1 0 0 1 263 1953)">Design Variations</text>
  <text style="stroke:none;fill:black;font-family:-apple-system,&quot;SF Pro Display&quot;,&quot;SF Pro Text&quot;,Helvetica,sans-serif;" transform="matrix(1 0 0 1 263 1971)">Symbols are supported in up to nine weights and three scales.</text>
  <text style="stroke:none;fill:black;font-family:-apple-system,&quot;SF Pro Display&quot;,&quot;SF Pro Text&quot;,Helvetica,sans-serif;" transform="matrix(1 0 0 1 263 1989)">For optimal layout with text and other symbols, vertically align</text>
  <text style="stroke:none;fill:black;font-family:-apple-system,&quot;SF Pro Display&quot;,&quot;SF Pro Text&quot;,Helvetica,sans-serif;" transform="matrix(1 0 0 1 263 2007)">symbols with the adjacent text.</text>
  <line id="" style="fill:none;stroke:#00AEEF;stroke-width:0.5;opacity:1.0;" x1="776" x2="776" y1="1919" y2="1933"/>
  <g id="" transform="matrix(1 0 0 1 776 1933)">
   <path d="M 3.31055 0.126953 C 3.82812 0.126953 4.08203 -0.0683594 4.26758 -0.605469 L 5.52734 -4.0625 L 11.2891 -4.0625 L 12.5488 -0.605469 C 12.7344 -0.0683594 12.9883 0.126953 13.4961 0.126953 C 14.0137 0.126953 14.3457 -0.185547 14.3457 -0.673828 C 14.3457 -0.839844 14.3164 -0.986328 14.2383 -1.20117 L 9.6582 -13.3887 C 9.43359 -13.9941 9.0332 -14.2871 8.4082 -14.2871 C 7.80273 -14.2871 7.39258 -13.9941 7.17773 -13.3984 L 2.59766 -1.19141 C 2.51953 -0.976562 2.49023 -0.830078 2.49023 -0.664062 C 2.49023 -0.175781 2.80273 0.126953 3.31055 0.126953 Z M 6.00586 -5.53711 L 8.37891 -12.1094 L 8.42773 -12.1094 L 10.8008 -5.53711 Z"/>
  </g>
  <line id="" style="fill:none;stroke:#00AEEF;stroke-width:0.5;opacity:1.0;" x1="792.836" x2="792.836" y1="1919" y2="1933"/>
  <text style="stroke:none;fill:black;font-family:-apple-system,&quot;SF Pro Display&quot;,&quot;SF Pro Text&quot;,Helvetica,sans-serif;font-weight:bold;" transform="matrix(1 0 0 1 776 1953)">Margins</text>
  <text style="stroke:none;fill:black;font-family:-apple-system,&quot;SF Pro Display&quot;,&quot;SF Pro Text&quot;,Helvetica,sans-serif;" transform="matrix(1 0 0 1 776 1971)">Leading and trailing margins on the left and right side of each symbol</text>
  <text style="stroke:none;fill:black;font-family:-apple-system,&quot;SF Pro Display&quot;,&quot;SF Pro Text&quot;,Helvetica,sans-serif;" transform="matrix(1 0 0 1 776 1989)">can be adjusted by modifying the x-location of the margin guidelines.</text>
  <text style="stroke:none;fill:black;font-family:-apple-system,&quot;SF Pro Display&quot;,&quot;SF Pro Text&quot;,Helvetica,sans-serif;" transform="matrix(1 0 0 1 776 2007)">Modifications are automatically applied proportionally to all</text>
  <text style="stroke:none;fill:black;font-family:-apple-system,&quot;SF Pro Display&quot;,&quot;SF Pro Text&quot;,Helvetica,sans-serif;" transform="matrix(1 0 0 1 776 2025)">scales and weights.</text>
  <g id="" transform="matrix(1 0 0 1 1289 1933)">
   <path d="M 2.8418 1.86523 L 4.54102 3.57422 C 5.40039 4.44336 6.38672 4.38477 7.31445 3.35938 L 17.4902 -7.85156 C 17.7539 -7.76367 18.0273 -7.7832 18.3398 -7.8418 L 19.4043 -8.03711 L 20.0684 -7.36328 L 20.0293 -6.80664 C 19.9902 -6.30859 20.1172 -5.92773 20.6055 -5.44922 L 21.3672 -4.70703 C 21.8457 -4.22852 22.4609 -4.19922 22.9297 -4.66797 L 25.8398 -7.58789 C 26.3086 -8.05664 26.2891 -8.65234 25.8105 -9.13086 L 25.0391 -9.89258 C 24.5605 -10.3711 24.1895 -10.5273 23.7109 -10.4883 L 23.1348 -10.4395 L 22.4902 -11.0742 L 22.7344 -12.1973 C 22.8613 -12.7637 22.7051 -13.2031 22.1191 -13.7891 L 19.9219 -15.9766 C 16.582 -19.2969 12.1484 -19.2188 9.25781 -16.3281 C 8.83789 -15.918 8.80859 -15.3418 9.04297 -14.9512 C 9.27734 -14.5898 9.73633 -14.3555 10.3809 -14.5215 C 11.8457 -14.8633 13.3691 -14.9219 14.7949 -13.9844 L 14.209 -12.5293 C 14.0137 -12.0508 13.9844 -11.6504 14.1113 -11.2891 L 3.04688 -0.898438 C 2.06055 0.0195312 1.98242 0.996094 2.8418 1.86523 Z M 10.752 -15.957 C 13.1836 -17.7344 16.4746 -17.4316 18.7012 -15.2051 L 21.1328 -12.793 C 21.3672 -12.5586 21.4062 -12.373 21.3379 -12.0312 L 21.0156 -10.5469 L 22.5195 -9.0625 L 23.5059 -9.12109 C 23.7598 -9.13086 23.8379 -9.11133 24.0332 -8.91602 L 24.6094 -8.33984 L 22.168 -5.89844 L 21.5918 -6.47461 C 21.3965 -6.66992 21.3672 -6.74805 21.377 -7.01172 L 21.4453 -7.98828 L 19.9512 -9.47266 L 18.4277 -9.21875 C 18.1055 -9.15039 17.959 -9.17969 17.7148 -9.41406 L 15.7129 -11.416 C 15.459 -11.6504 15.4297 -11.8164 15.5859 -12.1875 L 16.4648 -14.2773 C 14.9023 -15.7324 12.8711 -16.3574 10.8398 -15.7617 C 10.6836 -15.7227 10.625 -15.8496 10.752 -15.957 Z M 5.27344 2.30469 L 4.10156 1.14258 C 3.63281 0.683594 3.74023 0.341797 4.14062 -0.0195312 L 14.9512 -10.1953 L 16.416 -8.71094 L 6.42578 2.27539 C 6.07422 2.67578 5.74219 2.77344 5.27344 2.30469 Z"/>
  </g>
  <text style="stroke:none;fill:black;font-family:-apple-system,&quot;SF Pro Display&quot;,&quot;SF Pro Text&quot;,Helvetica,sans-serif;font-weight:bold;" transform="matrix(1 0 0 1 1289 1953)">Exporting</text>
  <text style="stroke:none;fill:black;font-family:-apple-system,&quot;SF Pro Display&quot;,&quot;SF Pro Text&quot;,Helvetica,sans-serif;" transform="matrix(1 0 0 1 1289 1971)">Symbols should be outlined when exporting to ensure the</text>
  <text style="stroke:none;fill:black;font-family:-apple-system,&quot;SF Pro Display&quot;,&quot;SF Pro Text&quot;,Helvetica,sans-serif;" transform="matrix(1 0 0 1 1289 1989)">design is preserved when submitting to Xcode.</text>
  <text id="template-version" style="stroke:none;fill:black;font-family:-apple-system,&quot;SF Pro Display&quot;,&quot;SF Pro Text&quot;,Helvetica,sans-serif;text-anchor:end;" transform="matrix(1 0 0 1 3036 1933)">Template v.2.0</text>
  <text style="stroke:none;fill:black;font-family:-apple-system,&quot;SF Pro Display&quot;,&quot;SF Pro Text&quot;,Helvetica,sans-serif;text-anchor:end;" transform="matrix(1 0 0 1 3036 1951)">Requires Xcode 12 or greater</text>
  <text style="stroke:none;fill:black;font-family:-apple-system,&quot;SF Pro Display&quot;,&quot;SF Pro Text&quot;,Helvetica,sans-serif;text-anchor:end;" transform="matrix(1 0 0 1 3036 1969)">Generated from 36.square.fill</text>
  <text style="stroke:none;fill:black;font-family:-apple-system,&quot;SF Pro Display&quot;,&quot;SF Pro Text&quot;,Helvetica,sans-serif;text-anchor:end;" transform="matrix(1 0 0 1 3036 1987)">Typeset at 100 points</text>
  <text style="stroke:none;fill:black;font-family:-apple-system,&quot;SF Pro Display&quot;,&quot;SF Pro Text&quot;,Helvetica,sans-serif;" transform="matrix(1 0 0 1 263 726)">Small</text>
  <text style="stroke:none;fill:black;font-family:-apple-system,&quot;SF Pro Display&quot;,&quot;SF Pro Text&quot;,Helvetica,sans-serif;" transform="matrix(1 0 0 1 263 1156)">Medium</text>
  <text style="stroke:none;fill:black;font-family:-apple-system,&quot;SF Pro Display&quot;,&quot;SF Pro Text&quot;,Helvetica,sans-serif;" transform="matrix(1 0 0 1 263 1586)">Large</text>
 </g>
 <g id="Guides">
  <g id="H-reference" style="fill:#27AAE1;stroke:none;" transform="matrix(1 0 0 1 339 696)">
   <path d="M 0.976562 0 L 3.66211 0 L 12.9883 -24.4629 L 45.7031 -24.4629 L 55.0781 0 L 57.7148 0 L 30.6152 -70.459 L 28.125 -70.459 Z M 29.2969 -67.1387 L 29.3945 -67.1387 L 44.873 -26.709 L 13.8672 -26.709 Z"/>
  </g>
  <line id="Baseline-S" style="fill:none;stroke:#27AAE1;opacity:1;stroke-width:0.5;" x1="263" x2="3036" y1="696" y2="696"/>
  <line id="Capline-S" style="fill:none;stroke:#27AAE1;opacity:1;stroke-width:0.5;" x1="263" x2="3036" y1="625.541" y2="625.541"/>
  <g id="H-reference" style="fill:#27AAE1;stroke:none;" transform="matrix(1 0 0 1 339 1126)">
   <path d="M 0.976562 0 L 3.66211 0 L 12.9883 -24.4629 L 45.7031 -24.4629 L 55.0781 0 L 57.7148 0 L 30.6152 -70.459 L 28.125 -70.459 Z M 29.2969 -67.1387 L 29.3945 -67.1387 L 44.873 -26.709 L 13.8672 -26.709 Z"/>
  </g>
  <line id="Baseline-M" style="fill:none;stroke:#27AAE1;opacity:1;stroke-width:0.5;" x1="263" x2="3036" y1="1126" y2="1126"/>
  <line id="Capline-M" style="fill:none;stroke:#27AAE1;opacity:1;stroke-width:0.5;" x1="263" x2="3036" y1="1055.54" y2="1055.54"/>
  <g id="H-reference" style="fill:#27AAE1;stroke:none;" transform="matrix(1 0 0 1 339 1556)">
   <path d="M 0.976562 0 L 3.66211 0 L 12.9883 -24.4629 L 45.7031 -24.4629 L 55.0781 0 L 57.7148 0 L 30.6152 -70.459 L 28.125 -70.459 Z M 29.2969 -67.1387 L 29.3945 -67.1387 L 44.873 -26.709 L 13.8672 -26.709 Z"/>
  </g>
  <line id="Baseline-L" style="fill:none;stroke:#27AAE1;opacity:1;stroke-width:0.5;" x1="263" x2="3036" y1="1556" y2="1556"/>
  <line id="Capline-L" style="fill:none;stroke:#27AAE1;opacity:1;stroke-width:0.5;" x1="263" x2="3036" y1="1485.54" y2="1485.54"/>
  <line id="left-margin" style="fill:none;stroke:#00AEEF;stroke-width:0.5;opacity:1.0;" x1="1392.45" x2="1392.45" y1="1030.79" y2="1150.12"/>
  <line id="right-margin" style="fill:none;stroke:#00AEEF;stroke-width:0.5;opacity:1.0;" x1="1507.24" x2="1507.24" y1="1030.79" y2="1150.12"/>
 </g>
 <g id="Symbols">
  <g id="Black-L" transform="matrix(1 0 0 1 2855.62 1556)">
   <path d="M 39.9902 26.5137 L 115.576 26.5137 C 130.811 26.5137 139.502 17.8711 139.502 2.68555 L 139.502 -73.0957 C 139.502 -88.2812 130.811 -96.875 115.576 -96.875 L 39.9902 -96.875 C 24.7559 -96.875 16.0645 -88.2812 16.0645 -73.0957 L 16.0645 2.68555 C 16.0645 17.8711 24.7559 26.5137 39.9902 26.5137 Z M 57.959 -8.98438 C 50.0977 -8.98438 43.2129 -13.8672 41.6992 -19.0918 C 41.3574 -20.166 41.1621 -21.1914 41.1621 -22.2656 C 41.1621 -25.8301 43.8477 -27.7344 46.4355 -27.7344 C 48.8281 -27.7344 50.5371 -26.709 51.709 -24.707 C 53.3203 -22.0215 55.5664 -20.7031 58.1543 -20.7031 C 61.1328 -20.7031 63.1348 -22.7539 63.1348 -25.1465 C 63.1348 -27.9785 61.2793 -29.7363 58.0078 -29.7363 L 57.0801 -29.7363 C 53.0762 -29.7363 51.2695 -32.1777 51.2695 -35.5957 C 51.2695 -39.1113 53.418 -41.4551 57.0801 -41.4551 L 57.959 -41.4551 C 60.8887 -41.4551 62.4023 -43.5547 62.4023 -45.8496 C 62.4023 -48.5352 60.4492 -50.2441 57.959 -50.2441 C 55.3223 -50.2441 53.6621 -49.0234 52.0996 -46.2891 C 51.0254 -44.3848 49.4629 -43.2129 46.9238 -43.2129 C 43.9453 -43.2129 41.8457 -45.2148 41.8457 -48.6328 C 41.8457 -49.7559 41.9922 -50.7812 42.5781 -52.1973 C 44.1895 -56.4941 49.8047 -61.5234 58.1055 -61.5234 C 68.2617 -61.5234 74.8535 -56.0547 74.8535 -47.7051 C 74.8535 -42.5781 71.2891 -37.7441 66.6504 -37.0117 L 66.6504 -36.377 C 72.2168 -35.9863 76.0254 -30.7129 76.0254 -24.3652 C 76.0254 -15.0879 68.9453 -8.98438 57.959 -8.98438 Z M 100.098 -8.98438 C 93.2617 -8.98438 87.5 -11.9141 84.4238 -18.6523 C 82.5195 -22.9492 81.4453 -28.5156 81.4453 -34.9121 C 81.4453 -52.3926 89.8438 -61.5234 101.172 -61.5234 C 107.959 -61.5234 112.598 -58.4473 114.404 -54.7852 C 115.137 -53.4668 115.381 -52.3926 115.381 -50.8301 C 115.381 -47.8027 112.891 -45.9473 110.4 -45.9473 C 108.154 -45.9473 106.787 -46.8262 105.762 -48.0469 C 104.492 -49.4141 103.223 -50.6348 100.83 -50.6348 C 96.6309 -50.6348 93.3105 -46.1426 93.3105 -39.5508 C 93.3105 -38.3301 93.3594 -37.5977 93.4082 -36.9141 L 93.7988 -36.9141 C 95.3613 -40.1367 98.3398 -42.9688 103.662 -42.9688 C 110.693 -42.9688 117.041 -37.3535 117.041 -27.4902 C 117.041 -16.1621 110.205 -8.98438 100.098 -8.98438 Z M 99.4629 -19.5312 C 102.734 -19.5312 104.98 -22.2656 104.98 -26.3184 C 104.98 -30.2734 102.686 -33.0078 99.4629 -33.0078 C 96.1426 -33.0078 93.75 -30.2734 93.75 -26.3184 C 93.75 -22.2656 96.1426 -19.5312 99.4629 -19.5312 Z"/>
  </g>
  <g id="Heavy-L" transform="matrix(1 0 0 1 2559.93 1556)">
   <path d="M 38.8184 25.4883 L 114.697 25.4883 C 129.346 25.4883 137.451 17.4316 137.451 2.88086 L 137.451 -73.2422 C 137.451 -87.793 129.346 -95.8496 114.697 -95.8496 L 38.8184 -95.8496 C 24.2188 -95.8496 16.0645 -87.793 16.0645 -73.2422 L 16.0645 2.88086 C 16.0645 17.4316 24.2188 25.4883 38.8184 25.4883 Z M 56.2988 -8.69141 C 48.2422 -8.69141 41.3574 -13.623 39.7949 -19.043 C 39.502 -20.0195 39.3555 -20.9473 39.3555 -21.9727 C 39.3555 -25.1465 41.6992 -27.002 44.1406 -27.002 C 46.3867 -27.002 47.9004 -25.9277 48.9746 -24.0234 C 50.5859 -20.8008 53.2227 -19.1895 56.4941 -19.1895 C 60.3027 -19.1895 62.8906 -21.6797 62.8906 -24.7559 C 62.8906 -28.2227 60.4492 -30.4688 56.4941 -30.4688 L 54.7852 -30.4688 C 51.2207 -30.4688 49.6094 -32.666 49.6094 -35.7422 C 49.6094 -38.8672 51.5137 -40.9668 54.7852 -40.9668 L 56.3477 -40.9668 C 59.8633 -40.9668 61.9141 -43.457 61.9141 -46.3867 C 61.9141 -49.6094 59.5215 -51.6602 56.3477 -51.6602 C 53.0762 -51.6602 50.9766 -50.0977 49.4629 -46.875 C 48.5352 -44.9707 47.1191 -43.8477 44.7754 -43.8477 C 42.041 -43.8477 40.0879 -45.752 40.0879 -48.8281 C 40.0879 -49.9023 40.2344 -50.8301 40.7227 -52.0996 C 42.334 -56.8848 48.1445 -61.8652 56.4941 -61.8652 C 66.5039 -61.8652 73.0957 -56.3477 73.0957 -48.0469 C 73.0957 -42.6758 69.3848 -37.6953 64.5996 -36.9141 L 64.5996 -36.377 C 70.4102 -35.9375 74.4141 -30.6152 74.4141 -24.1211 C 74.4141 -14.8926 67.2363 -8.69141 56.2988 -8.69141 Z M 99.1699 -8.64258 C 92.334 -8.64258 86.6699 -11.5234 83.5449 -18.1152 C 81.5918 -22.3633 80.5176 -27.9785 80.5176 -34.668 C 80.5176 -52.5391 88.7207 -61.8652 100.293 -61.8652 C 107.227 -61.8652 112.012 -58.5449 113.77 -54.7363 C 114.355 -53.5156 114.6 -52.5391 114.6 -51.1719 C 114.6 -48.4375 112.402 -46.7285 110.156 -46.7285 C 108.057 -46.7285 106.787 -47.5586 105.811 -48.877 C 104.395 -50.5859 102.734 -51.9531 99.9512 -51.9531 C 94.873 -51.9531 91.1133 -46.6309 91.1133 -38.5254 C 91.1133 -37.5488 91.1621 -36.9629 91.2109 -36.377 L 91.6016 -36.377 C 93.2129 -39.8926 96.6309 -42.9688 102.295 -42.9688 C 109.717 -42.9688 116.357 -37.207 116.357 -27.1484 C 116.357 -15.7715 109.375 -8.64258 99.1699 -8.64258 Z M 98.6328 -18.2129 C 102.686 -18.2129 105.469 -21.3867 105.469 -26.1719 C 105.469 -30.8105 102.637 -33.9844 98.6328 -33.9844 C 94.5312 -33.9844 91.6504 -30.7617 91.6504 -26.2207 C 91.6504 -21.4355 94.5801 -18.2129 98.6328 -18.2129 Z"/>
  </g>
  <g id="Bold-L" transform="matrix(1 0 0 1 2264.37 1556)">
   <path d="M 37.5 24.3652 L 113.721 24.3652 C 127.637 24.3652 135.156 16.8945 135.156 3.07617 L 135.156 -73.3887 C 135.156 -87.207 127.637 -94.7266 113.721 -94.7266 L 37.5 -94.7266 C 23.6328 -94.7266 16.0645 -87.2559 16.0645 -73.3887 L 16.0645 3.07617 C 16.0645 16.8945 23.6328 24.3652 37.5 24.3652 Z M 54.4434 -8.30078 C 46.1914 -8.30078 39.3555 -13.3789 37.6953 -18.9453 C 37.4512 -19.8242 37.3047 -20.6543 37.3047 -21.6309 C 37.3047 -24.4141 39.3066 -26.123 41.6016 -26.123 C 43.6035 -26.123 44.9707 -25.0977 45.8496 -23.1934 C 47.5586 -19.4824 50.6348 -17.4805 54.5898 -17.4805 C 59.375 -17.4805 62.6465 -20.5078 62.6465 -24.3652 C 62.6465 -28.5645 59.5703 -31.2988 54.7363 -31.2988 L 52.1973 -31.2988 C 49.2188 -31.2988 47.7051 -33.2031 47.7051 -35.8398 C 47.7051 -38.623 49.4141 -40.4785 52.1973 -40.4785 L 54.541 -40.4785 C 58.7402 -40.4785 61.4258 -43.3594 61.4258 -46.9727 C 61.4258 -50.7812 58.5449 -53.2715 54.541 -53.2715 C 50.5371 -53.2715 47.998 -51.2695 46.582 -47.5586 C 45.752 -45.6543 44.4824 -44.6289 42.3828 -44.6289 C 39.8438 -44.6289 38.1836 -46.3379 38.1836 -49.1211 C 38.1836 -50.0488 38.2812 -50.8789 38.623 -52.002 C 40.2832 -57.2754 46.3379 -62.207 54.6875 -62.207 C 64.502 -62.207 71.1914 -56.6406 71.1914 -48.3887 C 71.1914 -42.7734 67.2852 -37.6465 62.2559 -36.8652 L 62.2559 -36.377 C 68.3105 -35.8398 72.6562 -30.4688 72.6562 -23.8281 C 72.6562 -14.6484 65.332 -8.30078 54.4434 -8.30078 Z M 98.1445 -8.30078 C 91.3086 -8.30078 85.7422 -11.084 82.5684 -17.5293 C 80.5664 -21.6797 79.4434 -27.3438 79.4434 -34.3262 C 79.4434 -52.6855 87.4023 -62.207 99.2676 -62.207 C 106.396 -62.207 111.328 -58.5938 113.037 -54.6387 C 113.525 -53.6133 113.77 -52.7832 113.77 -51.6113 C 113.77 -49.1699 111.865 -47.6074 109.814 -47.6074 C 107.91 -47.6074 106.787 -48.4375 105.811 -49.7559 C 104.297 -51.8555 102.148 -53.418 98.9258 -53.418 C 92.9199 -53.418 88.7207 -47.168 88.7207 -37.4023 C 88.7207 -36.6699 88.7207 -36.2305 88.7695 -35.791 L 89.1602 -35.791 C 90.8203 -39.6484 94.6777 -43.0176 100.781 -43.0176 C 108.643 -43.0176 115.576 -37.0605 115.576 -26.8066 C 115.576 -15.332 108.447 -8.30078 98.1445 -8.30078 Z M 97.7051 -16.748 C 102.637 -16.748 105.957 -20.4102 105.957 -25.9766 C 105.957 -31.3965 102.588 -35.0586 97.7051 -35.0586 C 92.7734 -35.0586 89.3066 -31.3477 89.3066 -26.0742 C 89.3066 -20.5566 92.7734 -16.748 97.7051 -16.748 Z"/>
  </g>
  <g id="Semibold-L" transform="matrix(1 0 0 1 1968.44 1556)">
   <path d="M 36.6211 23.584 L 113.037 23.584 C 126.514 23.584 133.594 16.5039 133.594 3.17383 L 133.594 -73.5352 C 133.594 -86.8164 126.514 -93.9453 113.037 -93.9453 L 36.6211 -93.9453 C 23.1934 -93.9453 16.0645 -86.8652 16.0645 -73.5352 L 16.0645 3.17383 C 16.0645 16.5527 23.1934 23.584 36.6211 23.584 Z M 53.1738 -8.05664 C 44.7754 -8.05664 37.9395 -13.2324 36.2793 -18.8965 C 36.0352 -19.7266 35.8887 -20.5078 35.8887 -21.3867 C 35.8887 -23.9258 37.6953 -25.4883 39.8438 -25.4883 C 41.6992 -25.4883 42.9199 -24.5605 43.75 -22.6562 C 45.459 -18.5547 48.8281 -16.3086 53.2715 -16.3086 C 58.7402 -16.3086 62.4512 -19.6777 62.4512 -24.1211 C 62.4512 -28.7598 58.9355 -31.8359 53.5156 -31.8359 L 50.3906 -31.8359 C 47.8027 -31.8359 46.4355 -33.5938 46.4355 -35.9375 C 46.4355 -38.4766 47.9492 -40.1367 50.3906 -40.1367 L 53.2715 -40.1367 C 57.959 -40.1367 61.084 -43.3105 61.084 -47.4121 C 61.084 -51.5625 57.8613 -54.3457 53.2715 -54.3457 C 48.8281 -54.3457 45.9473 -52.0996 44.5312 -48.0469 C 43.8477 -46.1426 42.6758 -45.166 40.7227 -45.166 C 38.3789 -45.166 36.8164 -46.7773 36.8164 -49.2676 C 36.8164 -50.1465 36.9141 -50.9277 37.207 -51.9043 C 38.8184 -57.5684 45.0684 -62.4512 53.418 -62.4512 C 63.1836 -62.4512 69.8242 -56.8359 69.8242 -48.6328 C 69.8242 -42.8711 65.8203 -37.6465 60.6445 -36.7676 L 60.6445 -36.377 C 66.8945 -35.791 71.4355 -30.3711 71.4355 -23.6816 C 71.4355 -14.502 64.0137 -8.05664 53.1738 -8.05664 Z M 97.4121 -8.05664 C 90.5762 -8.05664 85.0586 -10.791 81.9336 -17.1387 C 79.834 -21.2402 78.7109 -26.9531 78.7109 -34.1309 C 78.7109 -52.832 86.5234 -62.4512 98.584 -62.4512 C 105.859 -62.4512 110.889 -58.6426 112.5 -54.6387 C 112.988 -53.7109 113.135 -52.8809 113.135 -51.8555 C 113.135 -49.6582 111.523 -48.1934 109.619 -48.1934 C 107.812 -48.1934 106.787 -48.9746 105.859 -50.3418 C 104.248 -52.7344 101.807 -54.4434 98.2422 -54.4434 C 91.6016 -54.4434 87.0117 -47.5586 87.0117 -36.6211 C 87.0117 -36.0352 87.0605 -35.6934 87.0605 -35.3516 L 87.4512 -35.3516 C 89.1602 -39.502 93.3594 -43.0664 99.7559 -43.0664 C 107.91 -43.0664 115.039 -36.9629 115.039 -26.5137 C 115.039 -15.0391 107.812 -8.05664 97.4121 -8.05664 Z M 97.0215 -15.7227 C 102.637 -15.7227 106.299 -19.7266 106.299 -25.8789 C 106.299 -31.7871 102.539 -35.8398 97.0703 -35.8398 C 91.5527 -35.8398 87.6953 -31.7383 87.6953 -25.9277 C 87.6953 -19.9219 91.5527 -15.7227 97.0215 -15.7227 Z"/>
  </g>
  <g id="Medium-L" transform="matrix(1 0 0 1 1672.31 1556)">
   <path d="M 35.9375 22.998 L 112.5 22.998 C 125.635 22.998 132.422 16.2109 132.422 3.27148 L 132.422 -73.6328 C 132.422 -86.5234 125.635 -93.3105 112.5 -93.3105 L 35.9375 -93.3105 C 22.9004 -93.3105 16.0645 -86.5723 16.0645 -73.6328 L 16.0645 3.27148 C 16.0645 16.2598 22.9004 22.998 35.9375 22.998 Z M 52.1973 -7.91016 C 43.7012 -7.91016 36.8652 -13.0859 35.1562 -18.8477 C 34.9121 -19.6289 34.8145 -20.3613 34.8145 -21.2402 C 34.8145 -23.5352 36.4258 -25.0488 38.4766 -25.0488 C 40.2832 -25.0488 41.3574 -24.1211 42.1387 -22.2656 C 43.8477 -17.8711 47.4609 -15.4297 52.2461 -15.4297 C 58.252 -15.4297 62.3535 -19.043 62.3535 -23.9258 C 62.3535 -28.9062 58.4961 -32.2754 52.6367 -32.2754 L 49.0723 -32.2754 C 46.7773 -32.2754 45.459 -33.8867 45.459 -36.0352 C 45.459 -38.3301 46.8262 -39.8438 49.0723 -39.8438 L 52.3438 -39.8438 C 57.373 -39.8438 60.8398 -43.2617 60.8398 -47.7539 C 60.8398 -52.1973 57.3242 -55.1758 52.3438 -55.1758 C 47.5098 -55.1758 44.3848 -52.7344 43.0176 -48.3887 C 42.3828 -46.4844 41.3086 -45.5566 39.4531 -45.5566 C 37.2559 -45.5566 35.8398 -47.0703 35.8398 -49.4141 C 35.8398 -50.2441 35.8887 -50.9766 36.1328 -51.8555 C 37.7441 -57.8125 44.0918 -62.6465 52.4902 -62.6465 C 62.1094 -62.6465 68.8477 -56.9824 68.8477 -48.8281 C 68.8477 -42.9199 64.6973 -37.5977 59.4238 -36.7676 L 59.4238 -36.377 C 65.8203 -35.7422 70.5078 -30.2734 70.5078 -23.5352 C 70.5078 -14.3555 62.9883 -7.91016 52.1973 -7.91016 Z M 96.875 -7.86133 C 90.0391 -7.86133 84.5703 -10.5469 81.3965 -16.7969 C 79.2969 -20.8984 78.1738 -26.6113 78.1738 -33.9355 C 78.1738 -52.8809 85.8398 -62.6465 98.0469 -62.6465 C 105.42 -62.6465 110.547 -58.6914 112.158 -54.5898 C 112.549 -53.7598 112.695 -52.9785 112.695 -52.0996 C 112.695 -50.0488 111.23 -48.6816 109.473 -48.6816 C 107.764 -48.6816 106.787 -49.4141 105.859 -50.8301 C 104.199 -53.418 101.514 -55.2246 97.7539 -55.2246 C 90.5762 -55.2246 85.7422 -47.8516 85.7422 -36.0352 C 85.7422 -35.5957 85.791 -35.3516 85.791 -35.0586 L 86.1816 -35.0586 C 87.8906 -39.3555 92.334 -43.0664 98.9258 -43.0664 C 107.324 -43.0664 114.6 -36.9141 114.6 -26.3184 C 114.6 -14.8438 107.324 -7.86133 96.875 -7.86133 Z M 96.5332 -14.9414 C 102.588 -14.9414 106.592 -19.1895 106.592 -25.7812 C 106.592 -32.0801 102.49 -36.377 96.582 -36.377 C 90.625 -36.377 86.4746 -32.0312 86.4746 -25.8789 C 86.4746 -19.4336 90.625 -14.9414 96.5332 -14.9414 Z"/>
  </g>
  <g id="Regular-L" transform="matrix(1 0 0 1 1376.38 1556)">
   <path d="M 35.0586 22.2168 L 111.816 22.2168 C 124.463 22.2168 130.859 15.8691 130.859 3.41797 L 130.859 -73.7305 C 130.859 -86.1816 124.463 -92.5293 111.816 -92.5293 L 35.0586 -92.5293 C 22.4609 -92.5293 16.0645 -86.2305 16.0645 -73.7305 L 16.0645 3.41797 C 16.0645 15.918 22.4609 22.2168 35.0586 22.2168 Z M 50.9277 -7.66602 C 42.2852 -7.66602 35.498 -12.8906 33.7402 -18.7988 C 33.5449 -19.5312 33.3984 -20.166 33.3984 -20.9961 C 33.3984 -23.0469 34.8145 -24.4629 36.7188 -24.4629 C 38.3789 -24.4629 39.3555 -23.5352 40.0391 -21.7285 C 41.748 -16.9434 45.7031 -14.2578 50.9766 -14.2578 C 57.6172 -14.2578 62.1582 -18.2617 62.1582 -23.6328 C 62.1582 -29.1016 57.8613 -32.8125 51.4648 -32.8125 L 47.3145 -32.8125 C 45.3613 -32.8125 44.1895 -34.2285 44.1895 -36.084 C 44.1895 -38.1836 45.4102 -39.502 47.3145 -39.502 L 51.123 -39.502 C 56.5918 -39.502 60.498 -43.1641 60.498 -48.1445 C 60.498 -52.9785 56.6406 -56.25 51.0742 -56.25 C 45.752 -56.25 42.334 -53.5156 41.0156 -48.8281 C 40.4785 -46.9238 39.5508 -46.0449 37.793 -46.0449 C 35.791 -46.0449 34.5215 -47.5098 34.5215 -49.5605 C 34.5215 -50.3418 34.5215 -51.0254 34.7168 -51.7578 C 36.3281 -58.1055 42.8223 -62.8906 51.2207 -62.8906 C 60.791 -62.8906 67.4805 -57.1777 67.4805 -49.0723 C 67.4805 -43.0176 63.2812 -37.5977 57.8613 -36.6699 L 57.8613 -36.377 C 64.4043 -35.6934 69.2871 -30.1758 69.2871 -23.3398 C 69.2871 -14.209 61.6699 -7.66602 50.9277 -7.66602 Z M 96.1914 -7.61719 C 89.3555 -7.61719 83.9355 -10.2539 80.7617 -16.4062 C 78.6133 -20.459 77.4414 -26.1719 77.4414 -33.7402 C 77.4414 -53.0273 84.9609 -62.8906 97.3633 -62.8906 C 104.883 -62.8906 110.059 -58.7402 111.621 -54.541 C 111.963 -53.8086 112.109 -53.125 112.109 -52.3438 C 112.109 -50.5371 110.889 -49.2676 109.229 -49.2676 C 107.666 -49.2676 106.787 -50 105.859 -51.416 C 104.102 -54.2969 101.123 -56.25 97.0703 -56.25 C 89.209 -56.25 84.082 -48.2422 84.082 -35.2539 L 84.082 -34.6191 L 84.4727 -34.6191 C 86.2305 -39.209 91.0645 -43.1152 97.9004 -43.1152 C 106.592 -43.1152 114.062 -36.8164 114.062 -26.0742 C 114.062 -14.5508 106.689 -7.61719 96.1914 -7.61719 Z M 95.8984 -13.916 C 102.588 -13.916 106.934 -18.5059 106.934 -25.6836 C 106.934 -32.5195 102.441 -37.1582 95.9473 -37.1582 C 89.4043 -37.1582 84.8633 -32.4219 84.8633 -25.7812 C 84.8633 -18.7988 89.4043 -13.916 95.8984 -13.916 Z"/>
  </g>
  <g id="Light-L" transform="matrix(1 0 0 1 1080.5 1556)">
   <path d="M 34.0332 21.4355 L 111.23 21.4355 C 123.096 21.4355 129.199 15.2344 129.199 3.56445 L 129.199 -73.8281 C 129.199 -85.5469 123.096 -91.6992 111.23 -91.6992 L 34.0332 -91.6992 C 22.168 -91.6992 16.0645 -85.6445 16.0645 -73.8281 L 16.0645 3.56445 C 16.0645 15.3809 22.168 21.4355 34.0332 21.4355 Z M 50.1465 -8.20312 C 41.748 -8.20312 35.2051 -13.2324 33.3984 -18.9941 C 33.2031 -19.6289 33.1055 -20.2148 33.1055 -20.9961 C 33.1055 -22.6074 34.1797 -23.8281 35.791 -23.8281 C 37.207 -23.8281 37.9883 -23.0469 38.5254 -21.4844 C 40.2344 -16.5039 44.6777 -13.5742 50.1953 -13.5742 C 57.373 -13.5742 62.2559 -17.7734 62.2559 -23.6816 C 62.2559 -29.3457 57.5195 -33.4473 50.7812 -33.4473 L 46.1426 -33.4473 C 44.5312 -33.4473 43.5547 -34.6191 43.5547 -36.1328 C 43.5547 -37.8418 44.5801 -38.8672 46.1426 -38.8672 L 50.3906 -38.8672 C 56.25 -38.8672 60.5469 -42.8711 60.5469 -48.1934 C 60.5469 -53.418 56.3477 -56.9824 50.2441 -56.9824 C 44.5312 -56.9824 40.7227 -53.9062 39.5508 -49.0723 C 39.1113 -47.4121 38.3301 -46.6797 36.9141 -46.6797 C 35.1562 -46.6797 34.1797 -47.9004 34.1797 -49.6094 C 34.1797 -50.293 34.2285 -50.8789 34.375 -51.5625 C 35.9375 -57.9102 42.4316 -62.3535 50.3418 -62.3535 C 59.6191 -62.3535 66.2109 -56.7871 66.2109 -48.877 C 66.2109 -42.9688 61.9629 -37.5488 56.4453 -36.5723 L 56.4453 -36.3281 C 63.0371 -35.6445 68.0176 -30.1758 68.0176 -23.4863 C 68.0176 -14.5996 60.5469 -8.20312 50.1465 -8.20312 Z M 95.1172 -8.1543 C 87.9883 -8.1543 82.8613 -11.084 79.834 -16.9922 C 77.7344 -21.0449 76.709 -26.6602 76.709 -33.6914 C 76.709 -52.2461 83.9844 -62.3535 96.1914 -62.3535 C 103.955 -62.3535 109.131 -57.7148 110.547 -53.8086 C 110.791 -53.2227 110.889 -52.6855 110.889 -52.0996 C 110.889 -50.6348 109.961 -49.6094 108.545 -49.6094 C 107.275 -49.6094 106.592 -50.2441 105.859 -51.3672 C 104.004 -54.7852 100.488 -56.9824 95.9961 -56.9824 C 87.4512 -56.9824 82.0312 -48.4863 82.0312 -34.4727 L 82.0312 -33.8867 L 82.2754 -33.8867 C 84.3262 -38.8672 89.6484 -42.7246 96.4844 -42.7246 C 105.518 -42.7246 112.793 -36.2305 112.793 -26.0742 C 112.793 -15.0879 105.566 -8.1543 95.1172 -8.1543 Z M 94.9707 -13.3301 C 102.246 -13.3301 107.08 -18.1641 107.08 -25.7324 C 107.08 -32.959 102.148 -37.8418 95.0195 -37.8418 C 87.8906 -37.8418 82.8613 -32.8125 82.8613 -25.7812 C 82.8613 -18.5059 87.8906 -13.3301 94.9707 -13.3301 Z"/>
  </g>
  <g id="Thin-L" transform="matrix(1 0 0 1 784.889 1556)">
   <path d="M 32.666 20.3613 L 110.352 20.3613 C 121.24 20.3613 127.002 14.4531 127.002 3.75977 L 127.002 -73.9746 C 127.002 -84.7168 121.24 -90.5762 110.352 -90.5762 L 32.666 -90.5762 C 21.7773 -90.5762 16.0645 -84.8633 16.0645 -73.9746 L 16.0645 3.75977 C 16.0645 14.6484 21.7773 20.3613 32.666 20.3613 Z M 49.1699 -8.93555 C 41.1133 -8.93555 34.8145 -13.6719 33.0078 -19.2871 C 32.8125 -19.7754 32.666 -20.3125 32.666 -20.9473 C 32.666 -22.0703 33.3984 -22.9492 34.5703 -22.9492 C 35.6445 -22.9492 36.1816 -22.3633 36.5723 -21.1914 C 38.2324 -15.8691 43.3594 -12.5977 49.1699 -12.5977 C 57.0801 -12.5977 62.3535 -17.1875 62.3535 -23.6816 C 62.3535 -29.6875 57.0801 -34.3262 49.8535 -34.3262 L 44.5801 -34.3262 C 43.4082 -34.3262 42.7734 -35.0586 42.7734 -36.1328 C 42.7734 -37.3535 43.457 -37.9883 44.5801 -37.9883 L 49.4141 -37.9883 C 55.8594 -37.9883 60.5957 -42.5293 60.5957 -48.291 C 60.5957 -54.0039 56.0059 -57.959 49.1211 -57.959 C 42.9199 -57.959 38.5254 -54.4434 37.5977 -49.3652 C 37.3047 -48.0469 36.7188 -47.5098 35.6934 -47.5098 C 34.3262 -47.5098 33.7402 -48.3887 33.7402 -49.6582 C 33.7402 -50.1953 33.7891 -50.7324 33.9844 -51.3184 C 35.4492 -57.6172 41.8945 -61.6211 49.1211 -61.6211 C 58.0566 -61.6211 64.5508 -56.25 64.5508 -48.6816 C 64.5508 -42.8711 60.2051 -37.4512 54.541 -36.4258 L 54.541 -36.3281 C 61.1816 -35.5957 66.3086 -30.127 66.3086 -23.6328 C 66.3086 -15.0879 59.082 -8.93555 49.1699 -8.93555 Z M 93.75 -8.93555 C 86.1328 -8.93555 81.3477 -12.1582 78.6621 -17.7734 C 76.6113 -21.875 75.7812 -27.2949 75.7812 -33.5938 C 75.7812 -51.2695 82.7637 -61.6211 94.6777 -61.6211 C 102.686 -61.6211 107.91 -56.3965 109.131 -52.832 C 109.229 -52.4902 109.326 -52.1484 109.326 -51.7578 C 109.326 -50.8301 108.74 -50.0488 107.617 -50.0488 C 106.787 -50.0488 106.299 -50.5371 105.908 -51.2695 C 103.857 -55.3711 99.6094 -57.959 94.6289 -57.959 C 85.0586 -57.959 79.2969 -48.8281 79.2969 -33.4473 L 79.2969 -32.8613 L 79.3945 -32.8613 C 81.7383 -38.4277 87.8418 -42.2363 94.5801 -42.2363 C 104.102 -42.2363 111.035 -35.4492 111.035 -26.0254 C 111.035 -15.7715 104.053 -8.93555 93.75 -8.93555 Z M 93.75 -12.5488 C 101.855 -12.5488 107.324 -17.7246 107.324 -25.7812 C 107.324 -33.5938 101.758 -38.7207 93.8477 -38.7207 C 85.9375 -38.7207 80.2246 -33.3496 80.2246 -25.8301 C 80.2246 -18.0664 85.8398 -12.5488 93.75 -12.5488 Z"/>
  </g>
  <g id="Ultralight-L" transform="matrix(1 0 0 1 488.739 1556)">
   <path d="M 31.9824 19.7754 L 109.961 19.7754 C 120.312 19.7754 125.879 14.0625 125.879 3.85742 L 125.879 -74.0723 C 125.879 -84.2773 120.312 -89.9902 109.961 -89.9902 L 31.9824 -89.9902 C 21.582 -89.9902 16.0645 -84.4727 16.0645 -74.0723 L 16.0645 3.85742 C 16.0645 14.2578 21.582 19.7754 31.9824 19.7754 Z M 48.6328 -9.32617 C 40.7715 -9.32617 34.668 -13.916 32.8125 -19.4336 C 32.6172 -19.873 32.4707 -20.3125 32.4707 -20.9473 C 32.4707 -21.7773 33.0078 -22.5098 33.9355 -22.5098 C 34.8145 -22.5098 35.2539 -21.9727 35.5469 -21.0449 C 37.207 -15.5762 42.6758 -12.1094 48.6328 -12.1094 C 56.9336 -12.1094 62.4512 -16.8457 62.4512 -23.6816 C 62.4512 -29.8828 56.8359 -34.7656 49.4141 -34.7656 L 43.75 -34.7656 C 42.8223 -34.7656 42.334 -35.3027 42.334 -36.1816 C 42.334 -37.0605 42.9199 -37.5488 43.75 -37.5488 L 48.877 -37.5488 C 55.6152 -37.5488 60.6445 -42.334 60.6445 -48.3398 C 60.6445 -54.2969 55.8105 -58.4473 48.5352 -58.4473 C 42.041 -58.4473 37.4023 -54.6875 36.5723 -49.5117 C 36.377 -48.3887 35.8887 -47.9492 35.1074 -47.9492 C 33.8867 -47.9492 33.4961 -48.6816 33.4961 -49.6582 C 33.4961 -50.1465 33.5938 -50.6836 33.7402 -51.2207 C 35.1562 -57.4707 41.6016 -61.2305 48.5352 -61.2305 C 57.2754 -61.2305 63.6719 -55.957 63.6719 -48.584 C 63.6719 -42.8223 59.3262 -37.4023 53.5645 -36.377 L 53.5645 -36.3281 C 60.2539 -35.5957 65.4297 -30.127 65.4297 -23.7305 C 65.4297 -15.3809 58.3496 -9.32617 48.6328 -9.32617 Z M 93.0176 -9.32617 C 85.2051 -9.32617 80.6152 -12.6953 78.0273 -18.1641 C 76.0254 -22.2656 75.293 -27.6367 75.293 -33.5449 C 75.293 -50.7812 82.1289 -61.2305 93.8477 -61.2305 C 102.051 -61.2305 107.275 -55.6641 108.35 -52.2949 C 108.398 -52.1484 108.496 -51.8555 108.496 -51.6113 C 108.496 -50.9277 108.105 -50.2441 107.129 -50.2441 C 106.494 -50.2441 106.152 -50.7324 105.908 -51.2695 C 103.809 -55.6641 99.1699 -58.4473 93.8965 -58.4473 C 83.8379 -58.4473 77.8809 -49.0234 77.8809 -32.9102 L 77.8809 -32.373 L 77.9297 -32.373 C 80.4199 -38.2324 86.8652 -41.9922 93.6035 -41.9922 C 103.369 -41.9922 110.156 -35.0586 110.156 -26.0254 C 110.156 -16.1621 103.271 -9.32617 93.0176 -9.32617 Z M 93.1641 -12.1582 C 101.611 -12.1582 107.422 -17.4805 107.422 -25.7812 C 107.422 -33.8867 101.562 -39.209 93.2129 -39.209 C 84.9121 -39.209 78.9062 -33.6426 78.9062 -25.8789 C 78.9062 -17.8711 84.8145 -12.1582 93.1641 -12.1582 Z"/>
  </g>
  <g id="Black-M" transform="matrix(1 0 0 1 2872.19 1126)">
   <path d="M 31.9824 13.5742 L 90.4297 13.5742 C 102.686 13.5742 109.961 6.29883 109.961 -5.95703 L 109.961 -64.4043 C 109.961 -76.6602 102.686 -83.9355 90.4297 -83.9355 L 31.9824 -83.9355 C 19.7266 -83.9355 12.4512 -76.6602 12.4512 -64.4043 L 12.4512 -5.95703 C 12.4512 6.29883 19.7266 13.5742 31.9824 13.5742 Z M 46.7773 -15.625 C 41.0645 -15.625 35.791 -19.1406 34.668 -22.9492 C 34.4238 -23.8281 34.2285 -24.707 34.2285 -25.5859 C 34.2285 -28.5645 36.5234 -30.127 38.623 -30.127 C 40.5273 -30.127 41.9922 -29.3457 43.0176 -27.9297 C 44.1895 -26.3184 45.6543 -25.6348 46.9727 -25.6348 C 48.3887 -25.6348 49.2676 -26.7578 49.2676 -27.8809 C 49.2676 -29.3945 48.3887 -30.3711 46.6797 -30.3711 C 43.1152 -30.3711 41.6504 -32.4219 41.6504 -35.3516 C 41.6504 -38.3301 43.5059 -40.332 46.6797 -40.332 C 48.3887 -40.332 48.9746 -41.6992 48.9746 -42.7246 C 48.9746 -44.3848 47.9004 -45.3613 46.6309 -45.3613 C 45.2637 -45.3613 44.2871 -44.6777 43.1152 -43.1152 C 42.1387 -41.748 40.8203 -40.8203 38.7695 -40.8203 C 36.3281 -40.8203 34.5703 -42.4316 34.5703 -45.3125 C 34.5703 -46.2891 34.7656 -47.168 35.3516 -48.4375 C 36.5234 -51.123 40.625 -54.8828 46.7773 -54.8828 C 54.6875 -54.8828 59.668 -50.7812 59.668 -44.3848 C 59.668 -40.7227 57.1289 -37.207 53.7109 -36.6211 L 53.7109 -36.1328 C 57.7148 -35.8887 60.4004 -31.8848 60.4004 -27.1973 C 60.4004 -20.1172 55.1758 -15.625 46.7773 -15.625 Z M 78.2715 -15.625 C 72.7539 -15.625 68.3594 -18.1152 66.1133 -23.4375 C 64.7461 -26.8066 64.0137 -31.0547 64.0137 -35.3516 C 64.0137 -47.9492 70.7031 -54.8828 79.0039 -54.8828 C 84.1309 -54.8828 87.5977 -52.5879 88.9648 -50.0488 C 89.5996 -48.9258 89.8438 -48.0469 89.8438 -46.6797 C 89.8438 -44.1895 87.6465 -42.6758 85.5469 -42.6758 C 83.7402 -42.6758 82.6172 -43.3594 81.9336 -44.0918 C 81.0059 -44.9219 80.3223 -45.752 78.7598 -45.752 C 76.2695 -45.752 74.1211 -43.1152 74.1211 -39.502 C 74.1211 -38.3301 74.1699 -37.5488 74.2676 -36.8652 L 74.5117 -36.8652 C 75.7324 -39.1113 77.7832 -40.9668 81.4453 -40.9668 C 86.5234 -40.9668 90.9668 -36.7676 90.9668 -29.6875 C 90.9668 -21.2402 85.9375 -15.625 78.2715 -15.625 Z M 77.6855 -24.5605 C 79.4922 -24.5605 80.8594 -26.1719 80.8594 -28.5645 C 80.8594 -30.9082 79.541 -32.5684 77.6855 -32.5684 C 75.8301 -32.5684 74.4141 -30.9082 74.4141 -28.5645 C 74.4141 -26.123 75.8301 -24.5605 77.6855 -24.5605 Z"/>
  </g>
  <g id="Heavy-M" transform="matrix(1 0 0 1 2576.39 1126)">
   <path d="M 31.0059 12.6465 L 89.6484 12.6465 C 101.416 12.6465 108.154 5.9082 108.154 -5.81055 L 108.154 -64.5508 C 108.154 -76.2695 101.416 -83.0566 89.6484 -83.0566 L 31.0059 -83.0566 C 19.2383 -83.0566 12.4512 -76.3184 12.4512 -64.5508 L 12.4512 -5.81055 C 12.4512 5.9082 19.2383 12.6465 31.0059 12.6465 Z M 45.166 -15.1367 C 39.1602 -15.1367 33.8379 -18.8477 32.7148 -22.8027 C 32.4707 -23.6328 32.2754 -24.4141 32.2754 -25.2441 C 32.2754 -27.9785 34.375 -29.4434 36.3281 -29.4434 C 38.1348 -29.4434 39.4531 -28.6621 40.3809 -27.1973 C 41.6016 -25.1465 43.3594 -24.1699 45.3125 -24.1699 C 47.5098 -24.1699 48.9746 -25.7324 48.9746 -27.4902 C 48.9746 -29.5898 47.6074 -30.957 45.166 -30.957 L 44.4824 -30.957 C 41.3574 -30.957 39.9902 -32.8613 39.9902 -35.498 C 39.9902 -38.1836 41.6504 -39.9902 44.4824 -39.9902 L 45.1172 -39.9902 C 47.3633 -39.9902 48.4863 -41.6504 48.4863 -43.3105 C 48.4863 -45.4102 46.9727 -46.7285 45.0684 -46.7285 C 43.1152 -46.7285 41.7969 -45.752 40.625 -43.7012 C 39.7949 -42.2852 38.5742 -41.4062 36.6699 -41.4062 C 34.375 -41.4062 32.7637 -42.9199 32.7637 -45.5566 C 32.7637 -46.4355 32.9102 -47.2168 33.3984 -48.3398 C 34.6191 -51.5625 38.916 -55.3711 45.2148 -55.3711 C 53.0273 -55.3711 58.1055 -51.1719 58.1055 -44.7754 C 58.1055 -40.8691 55.3711 -37.1582 51.8066 -36.5723 L 51.8066 -36.1328 C 56.0547 -35.8398 58.9844 -31.7871 58.9844 -26.9043 C 58.9844 -19.7754 53.5645 -15.1367 45.166 -15.1367 Z M 77.5391 -15.1367 C 72.1191 -15.1367 67.7246 -17.4805 65.4297 -22.7051 C 63.9648 -26.0254 63.1836 -30.3223 63.1836 -35.0586 C 63.1836 -48.291 69.6777 -55.3711 78.3203 -55.3711 C 83.5938 -55.3711 87.1582 -52.9297 88.5254 -50.1953 C 89.0625 -49.1699 89.3066 -48.3887 89.3066 -47.168 C 89.3066 -44.8242 87.3535 -43.457 85.4492 -43.457 C 83.7402 -43.457 82.666 -44.0918 81.9824 -44.9707 C 80.957 -46.0938 79.9316 -47.0215 78.0762 -47.0215 C 74.8535 -47.0215 72.3145 -43.6035 72.3145 -38.623 C 72.3145 -37.6465 72.3633 -37.0117 72.4121 -36.4746 L 72.6562 -36.4746 C 73.9258 -38.9648 76.2695 -41.1133 80.3223 -41.1133 C 85.7422 -41.1133 90.5273 -36.7676 90.5273 -29.3457 C 90.5273 -20.7031 85.3027 -15.1367 77.5391 -15.1367 Z M 77.0508 -23.2422 C 79.541 -23.2422 81.2988 -25.293 81.2988 -28.3691 C 81.2988 -31.3965 79.541 -33.4473 77.0508 -33.4473 C 74.5117 -33.4473 72.6562 -31.3477 72.6562 -28.3691 C 72.6562 -25.293 74.5117 -23.2422 77.0508 -23.2422 Z"/>
  </g>
  <g id="Bold-M" transform="matrix(1 0 0 1 2280.68 1126)">
   <path d="M 29.8828 11.6699 L 88.7207 11.6699 C 99.9512 11.6699 106.152 5.46875 106.152 -5.66406 L 106.152 -64.6973 C 106.152 -75.8789 99.9512 -82.0312 88.7207 -82.0312 L 29.8828 -82.0312 C 18.6523 -82.0312 12.4512 -75.8789 12.4512 -64.6973 L 12.4512 -5.66406 C 12.4512 5.51758 18.6523 11.6699 29.8828 11.6699 Z M 43.3105 -14.5996 C 37.0605 -14.5996 31.7383 -18.457 30.4688 -22.6562 C 30.2734 -23.3887 30.127 -24.1211 30.127 -24.9023 C 30.127 -27.2949 31.9336 -28.7109 33.7891 -28.7109 C 35.498 -28.7109 36.6211 -27.8809 37.4512 -26.416 C 38.7207 -23.8281 40.8203 -22.5098 43.457 -22.5098 C 46.582 -22.5098 48.6816 -24.5605 48.6816 -27.0508 C 48.6816 -29.8828 46.7285 -31.6895 43.457 -31.6895 L 42.041 -31.6895 C 39.3555 -31.6895 38.1348 -33.3496 38.1348 -35.6445 C 38.1348 -38.0371 39.5996 -39.5996 42.041 -39.5996 L 43.3594 -39.5996 C 46.1914 -39.5996 47.9004 -41.6016 47.9004 -43.9941 C 47.9004 -46.582 45.9473 -48.2422 43.3594 -48.2422 C 40.7227 -48.2422 39.0137 -46.9238 37.8906 -44.3848 C 37.1582 -42.8711 36.084 -42.041 34.2773 -42.041 C 32.2266 -42.041 30.7617 -43.5059 30.7617 -45.8496 C 30.7617 -46.6309 30.8594 -47.3145 31.2012 -48.291 C 32.4707 -52.0996 37.0117 -55.957 43.5059 -55.957 C 51.2207 -55.957 56.3477 -51.6113 56.3477 -45.2148 C 56.3477 -41.0156 53.4668 -37.1582 49.6582 -36.5234 L 49.6582 -36.1328 C 54.1992 -35.7422 57.4219 -31.5918 57.4219 -26.5625 C 57.4219 -19.3848 51.8066 -14.5996 43.3105 -14.5996 Z M 76.709 -14.5508 C 71.3867 -14.5508 67.041 -16.7969 64.5996 -21.875 C 63.0859 -25.0977 62.207 -29.4922 62.207 -34.7168 C 62.207 -48.6816 68.5547 -55.957 77.5879 -55.957 C 82.959 -55.957 86.7188 -53.3203 88.0371 -50.3418 C 88.5254 -49.4141 88.7207 -48.6816 88.7207 -47.6562 C 88.7207 -45.6055 87.0605 -44.2871 85.3027 -44.2871 C 83.6914 -44.2871 82.7637 -44.9219 81.9824 -45.9473 C 80.9082 -47.3633 79.541 -48.4375 77.2949 -48.4375 C 73.2422 -48.4375 70.2637 -44.1406 70.2637 -37.5977 C 70.2637 -36.8652 70.2637 -36.4258 70.3125 -36.0352 L 70.6055 -36.0352 C 71.8262 -38.8184 74.5605 -41.2598 79.0527 -41.2598 C 84.8633 -41.2598 90.0391 -36.7676 90.0391 -28.9062 C 90.0391 -20.0684 84.6191 -14.5508 76.709 -14.5508 Z M 76.2695 -21.7773 C 79.5898 -21.7773 81.7871 -24.3164 81.7871 -28.1738 C 81.7871 -31.8848 79.541 -34.4238 76.2695 -34.4238 C 72.998 -34.4238 70.6543 -31.8848 70.6543 -28.2227 C 70.6543 -24.4141 72.998 -21.7773 76.2695 -21.7773 Z"/>
  </g>
  <g id="Semibold-M" transform="matrix(1 0 0 1 1984.65 1126)">
   <path d="M 29.1016 10.9863 L 88.0859 10.9863 C 98.9746 10.9863 104.785 5.17578 104.785 -5.56641 L 104.785 -64.8438 C 104.785 -75.5859 98.9746 -81.3477 88.0859 -81.3477 L 29.1016 -81.3477 C 18.2617 -81.3477 12.4512 -75.5859 12.4512 -64.8438 L 12.4512 -5.56641 C 12.4512 5.22461 18.2617 10.9863 29.1016 10.9863 Z M 42.0898 -14.209 C 35.5957 -14.209 30.2246 -18.2129 28.9551 -22.5586 C 28.7598 -23.2422 28.6621 -23.877 28.6621 -24.6582 C 28.6621 -26.8555 30.2246 -28.1738 32.0312 -28.1738 C 33.6426 -28.1738 34.668 -27.3926 35.4004 -25.8301 C 36.7188 -22.9492 39.0625 -21.3867 42.1875 -21.3867 C 45.8984 -21.3867 48.4863 -23.7305 48.4863 -26.7578 C 48.4863 -30.0293 46.0938 -32.1289 42.2852 -32.1289 L 40.332 -32.1289 C 38.0371 -32.1289 36.8164 -33.6914 36.8164 -35.7422 C 36.8164 -37.9395 38.1348 -39.3555 40.332 -39.3555 L 42.1387 -39.3555 C 45.4102 -39.3555 47.5098 -41.6016 47.5098 -44.4336 C 47.5098 -47.3633 45.2637 -49.2676 42.1387 -49.2676 C 39.0625 -49.2676 37.1094 -47.7539 35.9863 -44.8242 C 35.3516 -43.3105 34.375 -42.4805 32.666 -42.4805 C 30.7129 -42.4805 29.3457 -43.8477 29.3457 -45.9961 C 29.3457 -46.7773 29.4434 -47.4121 29.6875 -48.2422 C 30.957 -52.4414 35.6934 -56.2988 42.2852 -56.2988 C 49.9512 -56.2988 55.127 -51.9531 55.127 -45.5078 C 55.127 -41.1133 52.0996 -37.1094 48.1934 -36.4746 L 48.1934 -36.1328 C 52.9297 -35.6934 56.2988 -31.4941 56.2988 -26.3184 C 56.2988 -19.1406 50.5859 -14.209 42.0898 -14.209 Z M 76.123 -14.1602 C 70.8984 -14.1602 66.5527 -16.2598 64.0625 -21.2891 C 62.4512 -24.5117 61.5723 -28.9551 61.5723 -34.4727 C 61.5723 -48.9746 67.7246 -56.2988 77.0508 -56.2988 C 82.5684 -56.2988 86.377 -53.5645 87.7441 -50.4395 C 88.1348 -49.6094 88.2812 -48.9258 88.2812 -48.0469 C 88.2812 -46.0938 86.8164 -44.873 85.2051 -44.873 C 83.6914 -44.873 82.8125 -45.5078 82.0312 -46.6309 C 80.8594 -48.1934 79.248 -49.4141 76.7578 -49.4141 C 72.1191 -49.4141 68.8477 -44.5312 68.8477 -36.9141 C 68.8477 -36.377 68.8477 -36.0352 68.8477 -35.7422 L 69.1895 -35.7422 C 70.4102 -38.7207 73.3887 -41.3574 78.1738 -41.3574 C 84.2773 -41.3574 89.7461 -36.7676 89.7461 -28.6133 C 89.7461 -19.6289 84.1309 -14.1602 76.123 -14.1602 Z M 75.7812 -20.8008 C 79.6387 -20.8008 82.1777 -23.6328 82.1777 -28.0273 C 82.1777 -32.2266 79.541 -35.1074 75.7812 -35.1074 C 71.9727 -35.1074 69.2871 -32.2266 69.2871 -28.0762 C 69.2871 -23.7793 71.9727 -20.8008 75.7812 -20.8008 Z"/>
  </g>
  <g id="Medium-M" transform="matrix(1 0 0 1 1688.47 1126)">
   <path d="M 28.5156 10.4492 L 87.6465 10.4492 C 98.2422 10.4492 103.711 4.98047 103.711 -5.46875 L 103.711 -64.8926 C 103.711 -75.3418 98.2422 -80.8105 87.6465 -80.8105 L 28.5156 -80.8105 C 17.9688 -80.8105 12.4512 -75.3906 12.4512 -64.8926 L 12.4512 -5.46875 C 12.4512 4.98047 17.9688 10.4492 28.5156 10.4492 Z M 41.1133 -13.916 C 34.4727 -13.916 29.1016 -18.0176 27.832 -22.4609 C 27.6367 -23.1445 27.5391 -23.7305 27.5391 -24.4629 C 27.5391 -26.5137 28.9551 -27.7832 30.7129 -27.7832 C 32.2266 -27.7832 33.2031 -27.002 33.8867 -25.4395 C 35.2051 -22.2168 37.6953 -20.5078 41.2109 -20.5078 C 45.4102 -20.5078 48.3398 -23.1445 48.3398 -26.5137 C 48.3398 -30.1758 45.6543 -32.5195 41.4062 -32.5195 L 39.0137 -32.5195 C 37.0117 -32.5195 35.8398 -33.9355 35.8398 -35.791 C 35.8398 -37.8418 37.0605 -39.1602 39.0137 -39.1602 L 41.2109 -39.1602 C 44.8242 -39.1602 47.2168 -41.5527 47.2168 -44.7754 C 47.2168 -47.9492 44.7266 -50.0977 41.2598 -50.0977 C 37.793 -50.0977 35.6445 -48.3887 34.5215 -45.166 C 33.9355 -43.6035 33.0566 -42.8223 31.4453 -42.8223 C 29.5898 -42.8223 28.3203 -44.1406 28.3203 -46.1426 C 28.3203 -46.875 28.3691 -47.4609 28.5645 -48.1934 C 29.834 -52.6855 34.7168 -56.5918 41.4062 -56.5918 C 49.0234 -56.5918 54.248 -52.1973 54.248 -45.752 C 54.248 -41.2109 51.0742 -37.1094 47.0703 -36.4746 L 47.0703 -36.1328 C 52.002 -35.6445 55.4688 -31.4453 55.4688 -26.1719 C 55.4688 -18.9453 49.6582 -13.916 41.1133 -13.916 Z M 75.6836 -13.8672 C 70.5078 -13.8672 66.1621 -15.918 63.623 -20.8496 C 62.0117 -24.0234 61.084 -28.5156 61.084 -34.3262 C 61.084 -49.1699 67.1387 -56.5918 76.6602 -56.5918 C 82.2266 -56.5918 86.1328 -53.7598 87.4512 -50.5371 C 87.8418 -49.7559 87.9883 -49.1211 87.9883 -48.291 C 87.9883 -46.4844 86.6699 -45.3125 85.1562 -45.3125 C 83.6914 -45.3125 82.8125 -45.9473 82.0312 -47.1191 C 80.8105 -48.877 79.0039 -50.1465 76.3672 -50.1465 C 71.2891 -50.1465 67.7734 -44.8242 67.7734 -36.377 C 67.7734 -35.9863 67.7734 -35.7422 67.7734 -35.498 L 68.1152 -35.498 C 69.3359 -38.623 72.5098 -41.4551 77.5391 -41.4551 C 83.8379 -41.4551 89.502 -36.7676 89.502 -28.418 C 89.502 -19.2871 83.7891 -13.8672 75.6836 -13.8672 Z M 75.3906 -20.0684 C 79.6387 -20.0684 82.4219 -23.1445 82.4219 -27.9297 C 82.4219 -32.5195 79.541 -35.6445 75.3906 -35.6445 C 71.1426 -35.6445 68.2617 -32.4707 68.2617 -27.9785 C 68.2617 -23.291 71.1914 -20.0684 75.3906 -20.0684 Z"/>
  </g>
  <g id="Regular-M" transform="matrix(1 0 0 1 1392.45 1126)">
   <path d="M 27.7832 9.76562 L 87.0117 9.76562 C 97.2656 9.76562 102.344 4.6875 102.344 -5.37109 L 102.344 -64.9902 C 102.344 -75.0488 97.2656 -80.127 87.0117 -80.127 L 27.7832 -80.127 C 17.5781 -80.127 12.4512 -75.0977 12.4512 -64.9902 L 12.4512 -5.37109 C 12.4512 4.73633 17.5781 9.76562 27.7832 9.76562 Z M 39.8926 -13.5254 C 33.0566 -13.5254 27.6367 -17.7246 26.3184 -22.3633 C 26.123 -22.998 26.0742 -23.5352 26.0742 -24.2188 C 26.0742 -26.0254 27.2949 -27.2461 29.0039 -27.2461 C 30.4199 -27.2461 31.2988 -26.4648 31.8848 -24.8535 C 33.252 -21.3379 35.9863 -19.3848 39.9414 -19.3848 C 44.7754 -19.3848 48.0957 -22.3145 48.0957 -26.2207 C 48.0957 -30.3223 45.0684 -33.0078 40.2832 -33.0078 L 37.3535 -33.0078 C 35.6445 -33.0078 34.5703 -34.2773 34.5703 -35.8887 C 34.5703 -37.7441 35.6445 -38.916 37.3535 -38.916 L 40.0391 -38.916 C 44.043 -38.916 46.8262 -41.5527 46.8262 -45.2148 C 46.8262 -48.7305 44.043 -51.123 40.0879 -51.123 C 36.1816 -51.123 33.7402 -49.1699 32.6172 -45.6543 C 32.1777 -44.043 31.3477 -43.2617 29.834 -43.2617 C 28.0762 -43.2617 26.9531 -44.5312 26.9531 -46.3379 C 26.9531 -46.9727 26.9531 -47.5098 27.0508 -48.1445 C 28.3691 -53.0762 33.3984 -56.9824 40.2344 -56.9824 C 47.7539 -56.9824 53.0273 -52.4902 53.0273 -46.0449 C 53.0273 -41.3086 49.7559 -37.1094 45.6543 -36.4258 L 45.6543 -36.1328 C 50.7324 -35.5957 54.3945 -31.2988 54.3945 -25.9277 C 54.3945 -18.7012 48.4375 -13.5254 39.8926 -13.5254 Z M 75.1465 -13.4766 C 70.0195 -13.4766 65.6738 -15.4297 63.0859 -20.3125 C 61.377 -23.4375 60.4492 -27.9297 60.4492 -34.082 C 60.4492 -49.4141 66.3574 -56.9824 76.123 -56.9824 C 81.8359 -56.9824 85.8398 -54.0039 87.1582 -50.6348 C 87.4512 -49.9512 87.5488 -49.3652 87.5488 -48.6816 C 87.5488 -47.0215 86.4746 -45.8984 85.0586 -45.8984 C 83.6426 -45.8984 82.8613 -46.5332 82.0312 -47.8027 C 80.7617 -49.7559 78.7598 -51.123 75.8301 -51.123 C 70.166 -51.123 66.3574 -45.166 66.3574 -35.6934 L 66.3574 -35.2051 L 66.6992 -35.2051 C 67.9688 -38.5254 71.3379 -41.5527 76.6602 -41.5527 C 83.252 -41.5527 89.1602 -36.7676 89.1602 -28.125 C 89.1602 -18.8965 83.3008 -13.4766 75.1465 -13.4766 Z M 74.8535 -19.043 C 79.6875 -19.043 82.7637 -22.4609 82.7637 -27.832 C 82.7637 -32.8613 79.541 -36.3281 74.8535 -36.3281 C 70.1172 -36.3281 66.8945 -32.8125 66.8945 -27.8809 C 66.8945 -22.7051 70.166 -19.043 74.8535 -19.043 Z"/>
  </g>
  <g id="Light-M" transform="matrix(1 0 0 1 1096.47 1126)">
   <path d="M 26.8555 9.0332 L 86.4746 9.0332 C 95.9961 9.0332 100.879 4.15039 100.879 -5.22461 L 100.879 -65.0879 C 100.879 -74.5117 95.9961 -79.3945 86.4746 -79.3945 L 26.8555 -79.3945 C 17.334 -79.3945 12.4512 -74.5605 12.4512 -65.0879 L 12.4512 -5.22461 C 12.4512 4.19922 17.334 9.0332 26.8555 9.0332 Z M 39.209 -14.0625 C 32.6172 -14.0625 27.3926 -18.0176 26.0254 -22.5586 C 25.8789 -23.0957 25.7812 -23.584 25.7812 -24.2188 C 25.7812 -25.6348 26.7578 -26.6602 28.1738 -26.6602 C 29.3457 -26.6602 30.0781 -26.0254 30.5176 -24.6582 C 31.8848 -20.8984 35.1074 -18.75 39.2578 -18.75 C 44.5801 -18.75 48.1934 -21.9238 48.1934 -26.2695 C 48.1934 -30.5664 44.7266 -33.5938 39.6484 -33.5938 L 36.2793 -33.5938 C 34.9121 -33.5938 34.0332 -34.5703 34.0332 -35.9375 C 34.0332 -37.4023 34.9121 -38.3301 36.2793 -38.3301 L 39.3555 -38.3301 C 43.75 -38.3301 46.875 -41.3086 46.875 -45.2637 C 46.875 -49.1211 43.7988 -51.7578 39.3066 -51.7578 C 35.0586 -51.7578 32.2754 -49.5605 31.2988 -45.8496 C 30.9082 -44.4336 30.2246 -43.8477 29.0039 -43.8477 C 27.5391 -43.8477 26.6113 -44.873 26.6113 -46.3379 C 26.6113 -46.9238 26.6602 -47.4121 26.8066 -47.998 C 28.0273 -52.8809 33.0566 -56.4941 39.4043 -56.4941 C 46.7285 -56.4941 51.9043 -52.0996 51.9043 -45.8984 C 51.9043 -41.2598 48.584 -37.0605 44.3848 -36.3281 L 44.3848 -36.084 C 49.4629 -35.5957 53.2715 -31.2988 53.2715 -26.0742 C 53.2715 -19.043 47.4121 -14.0625 39.209 -14.0625 Z M 74.2188 -14.0137 C 68.7988 -14.0137 64.6973 -16.1621 62.3047 -20.8496 C 60.6445 -23.9746 59.7656 -28.3691 59.7656 -34.0332 C 59.7656 -48.7793 65.5273 -56.4941 75.0977 -56.4941 C 81.0059 -56.4941 85.0098 -53.125 86.1816 -49.9512 C 86.377 -49.4629 86.4746 -48.9746 86.4746 -48.4375 C 86.4746 -47.1191 85.6445 -46.1914 84.4238 -46.1914 C 83.3008 -46.1914 82.666 -46.7285 82.0312 -47.7539 C 80.6641 -50.1465 78.1738 -51.7578 74.9023 -51.7578 C 68.5547 -51.7578 64.502 -45.4102 64.502 -35.0098 L 64.502 -34.5215 L 64.7461 -34.5215 C 66.2109 -38.2324 70.1172 -41.2109 75.3906 -41.2109 C 82.2754 -41.2109 87.9883 -36.2793 87.9883 -28.125 C 87.9883 -19.3848 82.3242 -14.0137 74.2188 -14.0137 Z M 74.0234 -18.5059 C 79.3945 -18.5059 82.9102 -22.168 82.9102 -27.832 C 82.9102 -33.252 79.2969 -36.9141 74.0723 -36.9141 C 68.7988 -36.9141 65.1367 -33.2031 65.1367 -27.8809 C 65.1367 -22.4121 68.7988 -18.5059 74.0234 -18.5059 Z"/>
  </g>
  <g id="Thin-M" transform="matrix(1 0 0 1 800.758 1126)">
   <path d="M 25.6348 8.05664 L 85.7422 8.05664 C 94.3848 8.05664 98.877 3.4668 98.877 -5.0293 L 98.877 -65.2344 C 98.877 -73.7305 94.3848 -78.3691 85.7422 -78.3691 L 25.6348 -78.3691 C 16.9922 -78.3691 12.4512 -73.877 12.4512 -65.2344 L 12.4512 -5.0293 C 12.4512 3.56445 16.9922 8.05664 25.6348 8.05664 Z M 38.3301 -14.6973 C 31.9824 -14.6973 27.0996 -18.457 25.6836 -22.8027 C 25.5371 -23.2422 25.4395 -23.6328 25.4395 -24.1699 C 25.4395 -25.1465 26.0742 -25.8789 27.0508 -25.8789 C 27.9785 -25.8789 28.418 -25.3906 28.7598 -24.4141 C 30.0781 -20.3613 33.8867 -17.9199 38.3301 -17.9199 C 44.3359 -17.9199 48.291 -21.3867 48.291 -26.2695 C 48.291 -30.8594 44.3359 -34.3262 38.8184 -34.3262 L 34.8633 -34.3262 C 33.8867 -34.3262 33.3008 -35.0098 33.3008 -35.9375 C 33.3008 -36.9629 33.9355 -37.5488 34.8633 -37.5488 L 38.4766 -37.5488 C 43.3594 -37.5488 46.9727 -40.9668 46.9727 -45.3125 C 46.9727 -49.6582 43.457 -52.6367 38.2812 -52.6367 C 33.5938 -52.6367 30.3223 -50 29.541 -46.0938 C 29.2969 -45.0195 28.8086 -44.5801 27.9297 -44.5801 C 26.7578 -44.5801 26.2207 -45.3125 26.2207 -46.3867 C 26.2207 -46.8262 26.2695 -47.2656 26.416 -47.7539 C 27.5879 -52.6367 32.5684 -55.8105 38.3301 -55.8105 C 45.3125 -55.8105 50.3906 -51.6113 50.3906 -45.7031 C 50.3906 -41.1621 47.0215 -36.9629 42.6758 -36.1816 L 42.6758 -36.084 C 47.8516 -35.5469 51.7578 -31.2988 51.7578 -26.2207 C 51.7578 -19.5312 46.0938 -14.6973 38.3301 -14.6973 Z M 72.9492 -14.6973 C 67.1387 -14.6973 63.3789 -17.0898 61.2305 -21.5332 C 59.6191 -24.707 58.9355 -28.9551 58.9355 -33.9844 C 58.9355 -47.9004 64.4043 -55.8105 73.6816 -55.8105 C 79.8828 -55.8105 83.8867 -51.9043 84.8633 -49.0723 C 84.9609 -48.7793 85.0586 -48.4375 85.0586 -48.0957 C 85.0586 -47.2656 84.5215 -46.582 83.5938 -46.582 C 82.8613 -46.582 82.4219 -47.0215 82.0801 -47.7051 C 80.5176 -50.7324 77.3926 -52.6367 73.6328 -52.6367 C 66.4551 -52.6367 62.0605 -45.7031 62.0605 -34.082 L 62.0605 -33.6426 L 62.1582 -33.6426 C 63.916 -37.793 68.457 -40.7715 73.7305 -40.7715 C 81.0059 -40.7715 86.4258 -35.5957 86.4258 -28.125 C 86.4258 -20.0195 80.957 -14.6973 72.9492 -14.6973 Z M 72.9492 -17.8223 C 79.0039 -17.8223 83.1055 -21.7285 83.1055 -27.8809 C 83.1055 -33.8379 78.9551 -37.7441 72.998 -37.7441 C 67.041 -37.7441 62.7441 -33.6426 62.7441 -27.9297 C 62.7441 -22.0215 66.9922 -17.8223 72.9492 -17.8223 Z"/>
  </g>
  <g id="Ultralight-M" transform="matrix(1 0 0 1 504.535 1126)">
   <path d="M 25 7.56836 L 85.3516 7.56836 C 93.5059 7.56836 97.9004 3.125 97.9004 -4.98047 L 97.9004 -65.2832 C 97.9004 -73.3887 93.5059 -77.832 85.3516 -77.832 L 25 -77.832 C 16.7969 -77.832 12.4512 -73.4863 12.4512 -65.2832 L 12.4512 -4.98047 C 12.4512 3.22266 16.7969 7.56836 25 7.56836 Z M 37.8418 -15.0391 C 31.6895 -15.0391 26.9043 -18.6523 25.4883 -22.9492 C 25.3418 -23.291 25.2441 -23.6816 25.2441 -24.1699 C 25.2441 -24.9023 25.7324 -25.4883 26.5137 -25.4883 C 27.2461 -25.4883 27.5879 -25.0977 27.832 -24.2676 C 29.1504 -20.1172 33.3008 -17.4805 37.8418 -17.4805 C 44.1895 -17.4805 48.3887 -21.0938 48.3887 -26.2695 C 48.3887 -31.0547 44.0918 -34.7168 38.4277 -34.7168 L 34.1797 -34.7168 C 33.3496 -34.7168 32.959 -35.2051 32.959 -35.9375 C 32.959 -36.7188 33.4473 -37.1582 34.1797 -37.1582 L 38.0371 -37.1582 C 43.1641 -37.1582 46.9727 -40.7715 46.9727 -45.3613 C 46.9727 -49.9512 43.3105 -53.0762 37.793 -53.0762 C 32.8613 -53.0762 29.3457 -50.2441 28.6621 -46.2402 C 28.4668 -45.3125 28.0273 -44.9707 27.3926 -44.9707 C 26.416 -44.9707 26.0254 -45.5566 26.0254 -46.4355 C 26.0254 -46.7773 26.0742 -47.2168 26.2207 -47.6562 C 27.3438 -52.4902 32.3242 -55.4688 37.793 -55.4688 C 44.6289 -55.4688 49.6094 -51.3672 49.6094 -45.6055 C 49.6094 -41.1133 46.2402 -36.9629 41.7969 -36.1328 L 41.7969 -36.084 C 46.9727 -35.498 50.9766 -31.25 50.9766 -26.2695 C 50.9766 -19.7754 45.459 -15.0391 37.8418 -15.0391 Z M 72.3145 -15.0391 C 66.3086 -15.0391 62.6953 -17.5781 60.6445 -21.875 C 59.082 -25.0488 58.4961 -29.248 58.4961 -33.9355 C 58.4961 -47.4609 63.8184 -55.4688 72.998 -55.4688 C 79.2969 -55.4688 83.3496 -51.2695 84.2285 -48.6328 C 84.2773 -48.4375 84.3262 -48.1934 84.3262 -47.9492 C 84.3262 -47.3633 83.9844 -46.8262 83.1543 -46.8262 C 82.6172 -46.8262 82.3242 -47.168 82.0801 -47.6562 C 80.4688 -50.9766 77.002 -53.0762 72.998 -53.0762 C 65.332 -53.0762 60.791 -45.8496 60.791 -33.5938 L 60.791 -33.1543 L 60.8398 -33.1543 C 62.7441 -37.5977 67.627 -40.5273 72.8516 -40.5273 C 80.3223 -40.5273 85.6445 -35.2539 85.6445 -28.0762 C 85.6445 -20.3125 80.2734 -15.0391 72.3145 -15.0391 Z M 72.3633 -17.4805 C 78.8086 -17.4805 83.2031 -21.5332 83.2031 -27.9297 C 83.2031 -34.082 78.7598 -38.1836 72.4609 -38.1836 C 66.1133 -38.1836 61.5234 -33.8867 61.5234 -27.9785 C 61.5234 -21.8262 66.0645 -17.4805 72.3633 -17.4805 Z"/>
  </g>
  <g id="Black-S" transform="matrix(1 0 0 1 2885.5 696)">
   <path d="M 25 2.92969 L 70.8008 2.92969 C 80.3711 2.92969 86.0352 -2.73438 86.0352 -12.3047 L 86.0352 -58.1055 C 86.0352 -67.6758 80.3711 -73.3398 70.8008 -73.3398 L 25 -73.3398 C 15.4297 -73.3398 9.76562 -67.6758 9.76562 -58.1055 L 9.76562 -12.3047 C 9.76562 -2.73438 15.4297 2.92969 25 2.92969 Z M 36.5234 -19.8242 C 32.0312 -19.8242 27.8809 -22.6074 27.002 -25.5859 C 26.8066 -26.2695 26.6602 -26.9531 26.6602 -27.6367 C 26.6602 -29.9805 28.4668 -31.2012 30.0781 -31.2012 C 31.5918 -31.2012 32.7148 -30.5664 33.4961 -29.4434 C 34.4238 -28.1738 35.5957 -27.5879 36.6699 -27.5879 C 37.8418 -27.5879 38.5742 -28.5156 38.5742 -29.4434 C 38.5742 -30.6641 37.8418 -31.4453 36.4746 -31.4453 L 36.4258 -31.4453 C 33.6426 -31.4453 32.5195 -33.0566 32.5195 -35.3516 C 32.5195 -37.6465 33.9355 -39.209 36.4258 -39.209 L 36.4746 -39.209 C 37.8418 -39.209 38.3301 -40.2832 38.3301 -41.1621 C 38.3301 -42.4805 37.4512 -43.2617 36.4258 -43.2617 C 35.3027 -43.2617 34.5215 -42.7246 33.5938 -41.4551 C 32.8613 -40.3809 31.8359 -39.6484 30.2246 -39.6484 C 28.3203 -39.6484 26.9531 -40.918 26.9531 -43.1641 C 26.9531 -43.8965 27.0996 -44.5801 27.5391 -45.5566 C 28.4668 -47.7051 31.6895 -50.6836 36.5234 -50.6836 C 42.7246 -50.6836 46.6309 -47.4609 46.6309 -42.4316 C 46.6309 -39.5508 44.6289 -36.7676 41.9434 -36.3281 L 41.9434 -35.9375 C 45.1172 -35.7422 47.2168 -32.6172 47.2168 -28.9062 C 47.2168 -23.3398 43.1152 -19.8242 36.5234 -19.8242 Z M 61.2793 -19.8242 C 56.9824 -19.8242 53.5156 -21.7773 51.7578 -25.9277 C 50.6836 -28.5645 50.0977 -31.8848 50.0977 -35.3027 C 50.0977 -45.2148 55.3223 -50.6836 61.8652 -50.6836 C 65.8691 -50.6836 68.6035 -48.877 69.6777 -46.875 C 70.166 -45.9961 70.3613 -45.3125 70.3613 -44.2383 C 70.3613 -42.2852 68.6523 -41.1133 67.041 -41.1133 C 65.625 -41.1133 64.7461 -41.6504 64.209 -42.2363 C 63.4766 -42.9199 62.8906 -43.5547 61.6699 -43.5547 C 59.668 -43.5547 57.959 -41.4551 57.959 -38.5254 C 57.959 -37.5977 58.0078 -37.0117 58.0566 -36.4746 L 58.252 -36.4746 C 59.2285 -38.2812 60.8398 -39.7461 63.7207 -39.7461 C 67.7246 -39.7461 71.2402 -36.4258 71.2402 -30.8594 C 71.2402 -24.2188 67.2852 -19.8242 61.2793 -19.8242 Z M 60.8398 -26.7578 C 62.3047 -26.7578 63.3789 -28.0762 63.3789 -29.9805 C 63.3789 -31.8848 62.3047 -33.2031 60.8398 -33.2031 C 59.3262 -33.2031 58.2031 -31.8848 58.2031 -29.9805 C 58.2031 -28.0273 59.3262 -26.7578 60.8398 -26.7578 Z"/>
  </g>
  <g id="Heavy-S" transform="matrix(1 0 0 1 2589.4 696)">
   <path d="M 24.3652 2.34375 L 70.2637 2.34375 C 79.541 2.34375 84.8145 -2.97852 84.8145 -12.207 L 84.8145 -58.2031 C 84.8145 -67.4316 79.541 -72.7539 70.2637 -72.7539 L 24.3652 -72.7539 C 15.0879 -72.7539 9.76562 -67.4316 9.76562 -58.2031 L 9.76562 -12.207 C 9.76562 -2.97852 15.0879 2.34375 24.3652 2.34375 Z M 35.3516 -19.3848 C 30.6152 -19.3848 26.4648 -22.3145 25.5371 -25.4883 C 25.3418 -26.123 25.2441 -26.7578 25.2441 -27.3926 C 25.2441 -29.541 26.8555 -30.7617 28.418 -30.7617 C 29.8828 -30.7617 30.9082 -30.0781 31.6406 -28.9062 C 32.6172 -27.2949 33.9355 -26.5625 35.498 -26.5625 C 37.207 -26.5625 38.3789 -27.7832 38.3789 -29.1504 C 38.3789 -30.8105 37.2559 -31.8359 35.4004 -31.8359 L 34.8633 -31.8359 C 32.373 -31.8359 31.2988 -33.3496 31.2988 -35.4492 C 31.2988 -37.5977 32.6172 -39.0137 34.8633 -39.0137 L 35.3516 -39.0137 C 37.0605 -39.0137 37.9395 -40.2832 37.9395 -41.6016 C 37.9395 -43.2129 36.7676 -44.2383 35.3027 -44.2383 C 33.7891 -44.2383 32.7637 -43.5059 31.8359 -41.8945 C 31.2012 -40.7227 30.2246 -40.0391 28.7109 -40.0391 C 26.9043 -40.0391 25.5859 -41.2598 25.5859 -43.3594 C 25.5859 -44.043 25.7324 -44.6777 26.0742 -45.5078 C 27.0508 -48.0957 30.4199 -51.123 35.4492 -51.123 C 41.6016 -51.123 45.5566 -47.8027 45.5566 -42.7246 C 45.5566 -39.6484 43.457 -36.7676 40.625 -36.2793 L 40.625 -35.9375 C 43.9941 -35.6934 46.2402 -32.5195 46.2402 -28.6621 C 46.2402 -23.0469 41.9922 -19.3848 35.3516 -19.3848 Z M 60.8398 -19.3848 C 56.6406 -19.3848 53.125 -21.1914 51.3184 -25.293 C 50.1465 -27.8809 49.5117 -31.2988 49.5117 -35.0586 C 49.5117 -45.5566 54.6387 -51.123 61.4746 -51.123 C 65.5273 -51.123 68.3594 -49.2188 69.4336 -47.0703 C 69.873 -46.2402 70.0684 -45.6055 70.0684 -44.6289 C 70.0684 -42.7734 68.5059 -41.6504 67.041 -41.6504 C 65.625 -41.6504 64.7949 -42.1875 64.209 -42.9199 C 63.4277 -43.75 62.6953 -44.4336 61.2305 -44.4336 C 58.7402 -44.4336 56.7383 -41.7969 56.7383 -37.8906 C 56.7383 -37.1582 56.7871 -36.6699 56.8359 -36.2305 L 57.0801 -36.2305 C 58.0078 -38.1836 59.8145 -39.8926 62.9883 -39.8926 C 67.2363 -39.8926 71.0449 -36.4746 71.0449 -30.5664 C 71.0449 -23.7305 66.9434 -19.3848 60.8398 -19.3848 Z M 60.4004 -25.8301 C 62.3535 -25.8301 63.7207 -27.4414 63.7207 -29.834 C 63.7207 -32.1777 62.3535 -33.7891 60.4004 -33.7891 C 58.4473 -33.7891 57.0312 -32.1777 57.0312 -29.834 C 57.0312 -27.4414 58.4473 -25.8301 60.4004 -25.8301 Z"/>
  </g>
  <g id="Bold-S" transform="matrix(1 0 0 1 2293.35 696)">
   <path d="M 23.6328 1.66016 L 69.6289 1.66016 C 78.6133 1.66016 83.4961 -3.22266 83.4961 -12.1094 L 83.4961 -58.3008 C 83.4961 -67.1875 78.6133 -72.0703 69.6289 -72.0703 L 23.6328 -72.0703 C 14.6973 -72.0703 9.76562 -67.1875 9.76562 -58.3008 L 9.76562 -12.1094 C 9.76562 -3.22266 14.6973 1.66016 23.6328 1.66016 Z M 34.0332 -18.8965 C 29.0527 -18.8965 24.8535 -21.9727 23.877 -25.3418 C 23.7305 -25.9277 23.6328 -26.5137 23.6328 -27.0996 C 23.6328 -29.1016 25.0488 -30.2246 26.6113 -30.2246 C 27.9785 -30.2246 28.9062 -29.5898 29.541 -28.3203 C 30.5664 -26.3672 32.1289 -25.3418 34.1309 -25.3418 C 36.5234 -25.3418 38.1348 -26.9043 38.1348 -28.8086 C 38.1348 -30.957 36.6699 -32.3242 34.1797 -32.3242 L 33.1055 -32.3242 C 30.957 -32.3242 29.9316 -33.6914 29.9316 -35.5469 C 29.9316 -37.5 31.1035 -38.8184 33.1055 -38.8184 L 34.082 -38.8184 C 36.2305 -38.8184 37.5 -40.2832 37.5 -42.0898 C 37.5 -44.043 36.0352 -45.3125 34.082 -45.3125 C 32.0801 -45.3125 30.8594 -44.3848 29.8828 -42.3828 C 29.3457 -41.1621 28.4668 -40.4297 27.002 -40.4297 C 25.293 -40.4297 24.1211 -41.6504 24.1211 -43.5547 C 24.1211 -44.1895 24.1699 -44.7266 24.4629 -45.5078 C 25.4395 -48.4863 29.0039 -51.6113 34.2285 -51.6113 C 40.332 -51.6113 44.3848 -48.1934 44.3848 -43.1152 C 44.3848 -39.7949 42.0898 -36.7188 39.1602 -36.2793 L 39.1602 -35.9375 C 42.7246 -35.6445 45.2148 -32.373 45.2148 -28.418 C 45.2148 -22.7539 40.7715 -18.8965 34.0332 -18.8965 Z M 60.3027 -18.8965 C 56.25 -18.8965 52.7344 -20.5566 50.7812 -24.6094 C 49.5605 -27.1484 48.877 -30.6152 48.877 -34.8145 C 48.877 -45.9473 53.8574 -51.6113 60.9863 -51.6113 C 65.1855 -51.6113 68.1152 -49.6582 69.1895 -47.2168 C 69.5801 -46.4844 69.7266 -45.8984 69.7266 -45.0684 C 69.7266 -43.3594 68.4082 -42.2852 66.9922 -42.2852 C 65.6738 -42.2852 64.8926 -42.8223 64.2578 -43.6523 C 63.3789 -44.6777 62.4512 -45.459 60.791 -45.459 C 57.7148 -45.459 55.4199 -42.1875 55.4199 -37.207 C 55.4199 -36.6699 55.4688 -36.3281 55.4688 -35.9863 L 55.7129 -35.9863 C 56.6406 -38.1348 58.6914 -40.0391 62.207 -40.0391 C 66.6992 -40.0391 70.8496 -36.5723 70.8496 -30.2734 C 70.8496 -23.1934 66.5039 -18.8965 60.3027 -18.8965 Z M 59.9609 -24.8047 C 62.4512 -24.8047 64.0625 -26.7578 64.0625 -29.6875 C 64.0625 -32.5195 62.4023 -34.4727 59.9609 -34.4727 C 57.4707 -34.4727 55.7617 -32.5195 55.7617 -29.7363 C 55.7617 -26.8066 57.4707 -24.8047 59.9609 -24.8047 Z"/>
  </g>
  <g id="Semibold-S" transform="matrix(1 0 0 1 1997.1 696)">
   <path d="M 23.0957 1.17188 L 69.1895 1.17188 C 77.9297 1.17188 82.5684 -3.36914 82.5684 -12.0117 L 82.5684 -58.3984 C 82.5684 -67.041 77.9297 -71.582 69.1895 -71.582 L 23.0957 -71.582 C 14.4043 -71.582 9.76562 -67.041 9.76562 -58.3984 L 9.76562 -12.0117 C 9.76562 -3.36914 14.4043 1.17188 23.0957 1.17188 Z M 33.1543 -18.5547 C 27.9785 -18.5547 23.7305 -21.7773 22.7539 -25.2441 C 22.5586 -25.8301 22.5098 -26.3184 22.5098 -26.9531 C 22.5098 -28.7598 23.8281 -29.8828 25.3418 -29.8828 C 26.6602 -29.8828 27.5391 -29.1992 28.125 -27.9297 C 29.1504 -25.6836 30.8594 -24.5605 33.252 -24.5605 C 36.0352 -24.5605 37.9395 -26.3184 37.9395 -28.5645 C 37.9395 -31.1035 36.2305 -32.6172 33.3008 -32.6172 L 31.8848 -32.6172 C 29.9805 -32.6172 29.0039 -33.9355 29.0039 -35.5957 C 29.0039 -37.4512 30.0781 -38.6719 31.8848 -38.6719 L 33.2031 -38.6719 C 35.6445 -38.6719 37.207 -40.2832 37.207 -42.4316 C 37.207 -44.6289 35.5469 -46.0449 33.252 -46.0449 C 30.9082 -46.0449 29.4922 -44.9707 28.5645 -42.7246 C 28.0273 -41.4062 27.2461 -40.7227 25.8301 -40.7227 C 24.2188 -40.7227 23.0469 -41.8945 23.0469 -43.6523 C 23.0469 -44.2871 23.0957 -44.8242 23.291 -45.459 C 24.3164 -48.7793 28.0762 -51.9531 33.3496 -51.9531 C 39.4531 -51.9531 43.5547 -48.4375 43.5547 -43.3594 C 43.5547 -39.8926 41.1621 -36.7188 38.1348 -36.2305 L 38.1348 -35.9375 C 41.8457 -35.5957 44.4824 -32.3242 44.4824 -28.2227 C 44.4824 -22.5098 39.8926 -18.5547 33.1543 -18.5547 Z M 59.9609 -18.5547 C 55.957 -18.5547 52.4414 -20.1172 50.4395 -24.1211 C 49.1699 -26.6113 48.4375 -30.127 48.4375 -34.668 C 48.4375 -46.1914 53.3203 -51.9531 60.6934 -51.9531 C 64.9414 -51.9531 67.9688 -49.9023 69.043 -47.3633 C 69.3848 -46.6797 69.5312 -46.0938 69.5312 -45.3613 C 69.5312 -43.75 68.3105 -42.7246 66.9922 -42.7246 C 65.6738 -42.7246 64.9414 -43.2617 64.2578 -44.1895 C 63.3789 -45.3125 62.2559 -46.1426 60.4492 -46.1426 C 56.9824 -46.1426 54.4922 -42.4316 54.4922 -36.7676 C 54.4922 -36.3281 54.4922 -36.084 54.541 -35.8398 L 54.834 -35.8398 C 55.7129 -38.0371 57.8613 -40.1367 61.6699 -40.1367 C 66.3086 -40.1367 70.7031 -36.6211 70.7031 -30.0781 C 70.7031 -22.8516 66.2598 -18.5547 59.9609 -18.5547 Z M 59.6191 -24.0723 C 62.4512 -24.0723 64.3066 -26.2207 64.3066 -29.5898 C 64.3066 -32.7637 62.4023 -34.9609 59.6191 -34.9609 C 56.7871 -34.9609 54.834 -32.7637 54.834 -29.6387 C 54.834 -26.3184 56.8359 -24.0723 59.6191 -24.0723 Z"/>
  </g>
  <g id="Medium-S" transform="matrix(1 0 0 1 1700.75 696)">
   <path d="M 22.7051 0.830078 L 68.8965 0.830078 C 77.4414 0.830078 81.8359 -3.51562 81.8359 -11.9629 L 81.8359 -58.4473 C 81.8359 -66.8945 77.4414 -71.2402 68.8965 -71.2402 L 22.7051 -71.2402 C 14.209 -71.2402 9.76562 -66.8945 9.76562 -58.4473 L 9.76562 -11.9629 C 9.76562 -3.51562 14.209 0.830078 22.7051 0.830078 Z M 32.4707 -18.3105 C 27.1484 -18.3105 22.9004 -21.582 21.875 -25.1465 C 21.7285 -25.7324 21.6797 -26.2207 21.6797 -26.8066 C 21.6797 -28.5156 22.8516 -29.5898 24.3652 -29.5898 C 25.6348 -29.5898 26.4648 -28.9551 27.0508 -27.6367 C 28.0762 -25.1953 29.8828 -23.9258 32.5195 -23.9258 C 35.6445 -23.9258 37.8418 -25.8789 37.8418 -28.418 C 37.8418 -31.1523 35.8887 -32.8613 32.666 -32.8613 L 30.957 -32.8613 C 29.248 -32.8613 28.2715 -34.082 28.2715 -35.6934 C 28.2715 -37.4023 29.2969 -38.5254 30.957 -38.5254 L 32.5684 -38.5254 C 35.2051 -38.5254 36.9629 -40.2832 36.9629 -42.6758 C 36.9629 -45.0684 35.1562 -46.6309 32.6172 -46.6309 C 30.0293 -46.6309 28.4668 -45.4102 27.5391 -42.9688 C 27.0508 -41.6504 26.2695 -40.9668 24.9023 -40.9668 C 23.3398 -40.9668 22.2656 -42.0898 22.2656 -43.75 C 22.2656 -44.3848 22.3145 -44.8242 22.4609 -45.459 C 23.4863 -49.0234 27.2949 -52.1973 32.7148 -52.1973 C 38.7695 -52.1973 42.9199 -48.6328 42.9199 -43.5547 C 42.9199 -39.9414 40.4785 -36.7188 37.3535 -36.2305 L 37.3535 -35.9375 C 41.2109 -35.5957 43.8965 -32.2754 43.8965 -28.0762 C 43.8965 -22.3633 39.2578 -18.3105 32.4707 -18.3105 Z M 59.668 -18.3105 C 55.7617 -18.3105 52.2461 -19.7754 50.1953 -23.7305 C 48.877 -26.2207 48.0957 -29.7852 48.0957 -34.5215 C 48.0957 -46.4355 52.9297 -52.1973 60.4492 -52.1973 C 64.7461 -52.1973 67.8223 -50.1465 68.8965 -47.4609 C 69.2383 -46.8262 69.3359 -46.2891 69.3359 -45.5566 C 69.3359 -44.043 68.2129 -43.0176 66.9434 -43.0176 C 65.7227 -43.0176 64.9414 -43.5547 64.2578 -44.5801 C 63.3301 -45.752 62.1582 -46.6797 60.2051 -46.6797 C 56.4453 -46.6797 53.8086 -42.627 53.8086 -36.377 C 53.8086 -36.084 53.8086 -35.8887 53.8086 -35.6934 L 54.1016 -35.6934 C 54.9805 -37.9883 57.2754 -40.2344 61.2305 -40.2344 C 66.0645 -40.2344 70.5566 -36.6211 70.5566 -29.8828 C 70.5566 -22.5586 66.0156 -18.3105 59.668 -18.3105 Z M 59.375 -23.5352 C 62.5 -23.5352 64.502 -25.8789 64.502 -29.4922 C 64.502 -32.959 62.4512 -35.3027 59.375 -35.3027 C 56.25 -35.3027 54.1504 -32.9102 54.1504 -29.541 C 54.1504 -25.9766 56.2988 -23.5352 59.375 -23.5352 Z"/>
  </g>
  <g id="Regular-S" transform="matrix(1 0 0 1 1404.51 696)">
   <path d="M 22.2168 0.390625 L 68.457 0.390625 C 76.8066 0.390625 80.9082 -3.71094 80.9082 -11.9141 L 80.9082 -58.4961 C 80.9082 -66.6992 76.8066 -70.8008 68.457 -70.8008 L 22.2168 -70.8008 C 13.916 -70.8008 9.76562 -66.6992 9.76562 -58.4961 L 9.76562 -11.9141 C 9.76562 -3.71094 13.916 0.390625 22.2168 0.390625 Z M 31.5918 -18.0176 C 26.123 -18.0176 21.7773 -21.3867 20.752 -25.0977 C 20.6055 -25.5859 20.5566 -26.0254 20.5566 -26.6113 C 20.5566 -28.2227 21.6309 -29.248 23.0957 -29.248 C 24.3652 -29.248 25.0977 -28.6133 25.6348 -27.1973 C 26.709 -24.5605 28.6133 -23.1445 31.6406 -23.1445 C 35.1562 -23.1445 37.6465 -25.3418 37.6465 -28.1738 C 37.6465 -31.2988 35.4492 -33.2031 31.8359 -33.2031 L 29.7852 -33.2031 C 28.3203 -33.2031 27.3438 -34.3262 27.3438 -35.7422 C 27.3438 -37.3535 28.3203 -38.3789 29.7852 -38.3789 L 31.6895 -38.3789 C 34.6191 -38.3789 36.6699 -40.2832 36.6699 -43.0176 C 36.6699 -45.6055 34.6191 -47.3633 31.7871 -47.3633 C 28.8574 -47.3633 27.1484 -45.9961 26.2207 -43.3105 C 25.7812 -41.8945 25.0977 -41.2598 23.7305 -41.2598 C 22.2656 -41.2598 21.2402 -42.334 21.2402 -43.8965 C 21.2402 -44.4824 21.2402 -44.9219 21.3379 -45.4102 C 22.4121 -49.2676 26.3672 -52.4902 31.8848 -52.4902 C 37.9395 -52.4902 42.0898 -48.9258 42.0898 -43.7988 C 42.0898 -40.0391 39.5508 -36.7188 36.377 -36.2305 L 36.377 -35.9375 C 40.332 -35.5469 43.1641 -32.1777 43.1641 -27.8809 C 43.1641 -22.1191 38.4277 -18.0176 31.5918 -18.0176 Z M 59.3262 -17.9688 C 55.4688 -17.9688 51.9531 -19.3359 49.8047 -23.291 C 48.4863 -25.7324 47.6562 -29.2969 47.6562 -34.375 C 47.6562 -46.6797 52.3926 -52.4902 60.1562 -52.4902 C 64.502 -52.4902 67.627 -50.3906 68.75 -47.6074 C 69.043 -46.9727 69.1406 -46.4844 69.1406 -45.8496 C 69.1406 -44.3848 68.1152 -43.457 66.9434 -43.457 C 65.7227 -43.457 64.9902 -43.9941 64.2578 -45.1172 C 63.3301 -46.3867 61.9629 -47.3633 59.8633 -47.3633 C 55.7617 -47.3633 52.8809 -42.9199 52.8809 -35.9375 L 52.8809 -35.5469 L 53.2227 -35.5469 C 54.0527 -37.9395 56.4941 -40.332 60.6934 -40.332 C 65.6738 -40.332 70.4102 -36.6699 70.4102 -29.6875 C 70.4102 -22.2168 65.7715 -17.9688 59.3262 -17.9688 Z M 59.0332 -22.8027 C 62.5488 -22.8027 64.7461 -25.3906 64.7461 -29.3945 C 64.7461 -33.1543 62.4512 -35.791 59.0332 -35.791 C 55.6152 -35.791 53.2715 -33.1543 53.2715 -29.4434 C 53.2715 -25.5371 55.6641 -22.8027 59.0332 -22.8027 Z"/>
  </g>
  <g id="Light-S" transform="matrix(1 0 0 1 1108.46 696)">
   <path d="M 21.3867 -0.292969 L 67.9688 -0.292969 C 75.7324 -0.292969 79.5898 -4.15039 79.5898 -11.7676 L 79.5898 -58.5938 C 79.5898 -66.2109 75.7324 -70.1172 67.9688 -70.1172 L 21.3867 -70.1172 C 13.6719 -70.1172 9.76562 -66.2598 9.76562 -58.5938 L 9.76562 -11.7676 C 9.76562 -4.15039 13.6719 -0.292969 21.3867 -0.292969 Z M 31.0059 -18.457 C 25.6836 -18.457 21.582 -21.6309 20.5078 -25.2441 C 20.3613 -25.6836 20.3125 -26.0742 20.3125 -26.6113 C 20.3125 -27.8809 21.1914 -28.7598 22.3633 -28.7598 C 23.3887 -28.7598 24.0234 -28.1738 24.4141 -27.0508 C 25.4883 -24.1699 27.832 -22.5586 31.0059 -22.5586 C 35.0098 -22.5586 37.7441 -24.9512 37.7441 -28.1738 C 37.7441 -31.4941 35.1562 -33.6914 31.2988 -33.6914 L 28.8086 -33.6914 C 27.6367 -33.6914 26.8555 -34.6191 26.8555 -35.7422 C 26.8555 -37.0605 27.6367 -37.8906 28.8086 -37.8906 L 31.1035 -37.8906 C 34.375 -37.8906 36.7188 -40.0879 36.7188 -43.0664 C 36.7188 -45.9473 34.4238 -47.9492 31.1035 -47.9492 C 27.8809 -47.9492 25.8789 -46.2891 25.0488 -43.457 C 24.707 -42.2852 24.1211 -41.748 23.0469 -41.748 C 21.7773 -41.748 20.9961 -42.627 20.9961 -43.9453 C 20.9961 -44.4336 20.9961 -44.8242 21.0938 -45.2637 C 22.1191 -49.1211 26.0254 -52.0508 31.2012 -52.0508 C 37.0117 -52.0508 41.1133 -48.584 41.1133 -43.6523 C 41.1133 -39.9902 38.5254 -36.6699 35.2539 -36.1328 L 35.2539 -35.9375 C 39.2578 -35.498 42.1875 -32.1777 42.1875 -27.9785 C 42.1875 -22.4121 37.5488 -18.457 31.0059 -18.457 Z M 58.4961 -18.4082 C 54.3945 -18.4082 51.0742 -20.0195 49.1211 -23.7305 C 47.8027 -26.2207 47.0703 -29.6875 47.0703 -34.3262 C 47.0703 -46.0938 51.6602 -52.0508 59.2285 -52.0508 C 63.7695 -52.0508 66.8945 -49.6094 67.8711 -47.0215 C 68.0664 -46.5332 68.1641 -46.1426 68.1641 -45.6543 C 68.1641 -44.4824 67.3828 -43.7012 66.4062 -43.7012 C 65.4297 -43.7012 64.8438 -44.1895 64.2578 -45.0684 C 63.2324 -46.7773 61.4746 -47.9492 59.0332 -47.9492 C 54.3457 -47.9492 51.2207 -43.1152 51.2207 -35.3027 L 51.2207 -34.9609 L 51.4648 -34.9609 C 52.5391 -37.6953 55.4199 -40.0391 59.5703 -40.0391 C 64.8438 -40.0391 69.3848 -36.2305 69.3848 -29.6875 C 69.3848 -22.6074 64.8438 -18.4082 58.4961 -18.4082 Z M 58.3008 -22.3633 C 62.3047 -22.3633 64.8926 -25.0977 64.8926 -29.4434 C 64.8926 -33.5449 62.207 -36.3281 58.3496 -36.3281 C 54.3945 -36.3281 51.709 -33.4961 51.709 -29.4922 C 51.709 -25.293 54.4434 -22.3633 58.3008 -22.3633 Z"/>
  </g>
  <g id="Thin-S" transform="matrix(1 0 0 1 812.599 696)">
   <path d="M 20.3125 -1.12305 L 67.334 -1.12305 C 74.2676 -1.12305 77.8809 -4.78516 77.8809 -11.6211 L 77.8809 -58.6914 C 77.8809 -65.5762 74.2676 -69.2383 67.334 -69.2383 L 20.3125 -69.2383 C 13.3789 -69.2383 9.76562 -65.625 9.76562 -58.6914 L 9.76562 -11.6211 C 9.76562 -4.6875 13.3789 -1.12305 20.3125 -1.12305 Z M 30.1758 -18.9941 C 25.1953 -18.9941 21.2891 -21.9727 20.166 -25.4395 C 20.0684 -25.7812 19.9707 -26.123 19.9707 -26.5625 C 19.9707 -27.4414 20.5566 -28.0762 21.4355 -28.0762 C 22.168 -28.0762 22.6074 -27.6367 22.8516 -26.8066 C 23.9258 -23.6816 26.8066 -21.8262 30.2246 -21.8262 C 34.7656 -21.8262 37.8418 -24.4629 37.8418 -28.2227 C 37.8418 -31.7383 34.8145 -34.375 30.5664 -34.375 L 27.5879 -34.375 C 26.7578 -34.375 26.2207 -34.9609 26.2207 -35.791 C 26.2207 -36.6699 26.7578 -37.207 27.5879 -37.207 L 30.3223 -37.207 C 34.0332 -37.207 36.7676 -39.7949 36.7676 -43.1152 C 36.7676 -46.4355 34.1309 -48.6816 30.2246 -48.6816 C 26.6113 -48.6816 24.1211 -46.7285 23.4863 -43.7012 C 23.291 -42.7734 22.8516 -42.3828 22.0703 -42.3828 C 21.1426 -42.3828 20.6543 -43.0664 20.6543 -43.9453 C 20.6543 -44.3359 20.6543 -44.7266 20.752 -45.1172 C 21.6797 -48.9258 25.6348 -51.5137 30.2246 -51.5137 C 35.791 -51.5137 39.7461 -48.1934 39.7461 -43.457 C 39.7461 -39.8926 37.1582 -36.6211 33.7402 -36.0352 L 33.7402 -35.8887 C 37.793 -35.498 40.8203 -32.1289 40.8203 -28.125 C 40.8203 -22.8516 36.377 -18.9941 30.1758 -18.9941 Z M 57.373 -18.9941 C 52.9297 -18.9941 49.9023 -20.8496 48.1445 -24.3652 C 46.9238 -26.8555 46.3379 -30.1758 46.3379 -34.2773 C 46.3379 -45.3125 50.6836 -51.5137 58.0078 -51.5137 C 62.793 -51.5137 65.9668 -48.5352 66.748 -46.2402 C 66.8457 -45.9961 66.8945 -45.7031 66.8945 -45.4102 C 66.8945 -44.6289 66.4551 -44.043 65.6738 -44.043 C 64.9902 -44.043 64.6484 -44.4336 64.3066 -45.0195 C 63.1348 -47.2656 60.791 -48.6816 57.9102 -48.6816 C 52.4414 -48.6816 49.0723 -43.3594 49.0723 -34.5215 L 49.0723 -34.1309 L 49.2188 -34.1309 C 50.4883 -37.3535 53.9551 -39.6484 58.0566 -39.6484 C 63.7207 -39.6484 68.0176 -35.6445 68.0176 -29.6387 C 68.0176 -23.1934 63.6719 -18.9941 57.373 -18.9941 Z M 57.373 -21.7285 C 61.9629 -21.7285 65.0879 -24.7559 65.0879 -29.4434 C 65.0879 -34.0332 61.9141 -37.0605 57.373 -37.0605 C 52.832 -37.0605 49.6094 -33.8867 49.6094 -29.4922 C 49.6094 -24.9512 52.832 -21.7285 57.373 -21.7285 Z"/>
  </g>
  <g id="Ultralight-S" transform="matrix(1 0 0 1 516.352 696)">
   <path d="M 19.7754 -1.5625 L 66.9922 -1.5625 C 73.5352 -1.5625 76.9531 -5.12695 76.9531 -11.5234 L 76.9531 -58.7891 C 76.9531 -65.2344 73.5352 -68.75 66.9922 -68.75 L 19.7754 -68.75 C 13.2324 -68.75 9.76562 -65.2832 9.76562 -58.7891 L 9.76562 -11.5234 C 9.76562 -5.0293 13.2324 -1.5625 19.7754 -1.5625 Z M 29.7852 -19.3359 C 24.9023 -19.3359 21.1426 -22.168 20.0195 -25.5371 C 19.9219 -25.8789 19.8242 -26.1719 19.8242 -26.5625 C 19.8242 -27.1973 20.2148 -27.7344 20.8984 -27.7344 C 21.5332 -27.7344 21.8262 -27.3438 22.0703 -26.709 C 23.0957 -23.4375 26.2695 -21.4355 29.7852 -21.4355 C 34.668 -21.4355 37.8906 -24.2188 37.8906 -28.2227 C 37.8906 -31.8848 34.6191 -34.7168 30.2246 -34.7168 L 26.9531 -34.7168 C 26.2695 -34.7168 25.9277 -35.1562 25.9277 -35.791 C 25.9277 -36.4746 26.3184 -36.8652 26.9531 -36.8652 L 29.9316 -36.8652 C 33.8867 -36.8652 36.8164 -39.6484 36.8164 -43.1641 C 36.8164 -46.6797 33.9844 -49.0723 29.7363 -49.0723 C 25.9277 -49.0723 23.2422 -46.9238 22.7051 -43.7988 C 22.5098 -43.0664 22.168 -42.7246 21.582 -42.7246 C 20.8008 -42.7246 20.459 -43.2617 20.459 -43.9941 C 20.459 -44.2871 20.5078 -44.6289 20.6055 -44.9707 C 21.4844 -48.8281 25.3906 -51.1719 29.7363 -51.1719 C 35.1562 -51.1719 39.0625 -47.9492 39.0625 -43.3594 C 39.0625 -39.8438 36.4258 -36.5723 33.0078 -35.9375 L 33.0078 -35.8887 C 37.0605 -35.4492 40.1367 -32.1289 40.1367 -28.2227 C 40.1367 -23.0469 35.791 -19.3359 29.7852 -19.3359 Z M 56.8359 -19.3359 C 52.1973 -19.3359 49.3164 -21.2891 47.6562 -24.707 C 46.4355 -27.1484 45.9473 -30.4688 45.9473 -34.2285 C 45.9473 -44.9219 50.1465 -51.1719 57.373 -51.1719 C 62.2559 -51.1719 65.4297 -47.998 66.1621 -45.8496 C 66.2109 -45.6543 66.2598 -45.459 66.2598 -45.2637 C 66.2598 -44.7266 65.918 -44.2383 65.2832 -44.2383 C 64.7949 -44.2383 64.5508 -44.5312 64.3066 -44.9707 C 63.0371 -47.5098 60.4492 -49.0723 57.373 -49.0723 C 51.5137 -49.0723 47.9492 -43.5059 47.9492 -34.082 L 47.9492 -33.7402 L 48.0469 -33.7402 C 49.4629 -37.1582 53.2227 -39.4531 57.3242 -39.4531 C 63.1348 -39.4531 67.2852 -35.3027 67.2852 -29.6387 C 67.2852 -23.4863 63.0859 -19.3359 56.8359 -19.3359 Z M 56.8359 -21.3867 C 61.8164 -21.3867 65.1855 -24.5605 65.1855 -29.4922 C 65.1855 -34.2773 61.7676 -37.4023 56.8848 -37.4023 C 52.0508 -37.4023 48.5352 -34.1309 48.5352 -29.541 C 48.5352 -24.8047 52.002 -21.3867 56.8359 -21.3867 Z"/>
  </g>
 </g>
</svg>
