<?xml version="1.0" encoding="UTF-8"?>
<!--Generator: Apple Native CoreSVG 148-->
<!DOCTYPE svg
PUBLIC "-//W3C//DTD SVG 1.1//EN"
       "http://www.w3.org/Graphics/SVG/1.1/DTD/svg11.dtd">
<svg version="1.1" xmlns="http://www.w3.org/2000/svg" xmlns:xlink="http://www.w3.org/1999/xlink" width="3300" height="2200">
 <!--glyph: "uni1006C9.medium", point size: 100.000000, font version: "Version 16.0d11e1", template writer version: "8"-->
 <g id="Notes">
  <rect height="2200" id="artboard" style="fill:white;opacity:1" width="3300" x="0" y="0"/>
  <line id="" style="fill:none;stroke:black;opacity:1;stroke-width:0.5;" x1="263" x2="3036" y1="292" y2="292"/>
  <text style="stroke:none;fill:black;font-family:-apple-system,&quot;SF Pro Display&quot;,&quot;SF Pro Text&quot;,Helvetica,sans-serif;font-weight:bold;" transform="matrix(1 0 0 1 263 322)">Weight/Scale Variations</text>
  <text style="stroke:none;fill:black;font-family:-apple-system,&quot;SF Pro Display&quot;,&quot;SF Pro Text&quot;,Helvetica,sans-serif;text-anchor:middle;" transform="matrix(1 0 0 1 559.711 322)">Ultralight</text>
  <text style="stroke:none;fill:black;font-family:-apple-system,&quot;SF Pro Display&quot;,&quot;SF Pro Text&quot;,Helvetica,sans-serif;text-anchor:middle;" transform="matrix(1 0 0 1 856.422 322)">Thin</text>
  <text style="stroke:none;fill:black;font-family:-apple-system,&quot;SF Pro Display&quot;,&quot;SF Pro Text&quot;,Helvetica,sans-serif;text-anchor:middle;" transform="matrix(1 0 0 1 1153.13 322)">Light</text>
  <text style="stroke:none;fill:black;font-family:-apple-system,&quot;SF Pro Display&quot;,&quot;SF Pro Text&quot;,Helvetica,sans-serif;text-anchor:middle;" transform="matrix(1 0 0 1 1449.84 322)">Regular</text>
  <text style="stroke:none;fill:black;font-family:-apple-system,&quot;SF Pro Display&quot;,&quot;SF Pro Text&quot;,Helvetica,sans-serif;text-anchor:middle;" transform="matrix(1 0 0 1 1746.56 322)">Medium</text>
  <text style="stroke:none;fill:black;font-family:-apple-system,&quot;SF Pro Display&quot;,&quot;SF Pro Text&quot;,Helvetica,sans-serif;text-anchor:middle;" transform="matrix(1 0 0 1 2043.27 322)">Semibold</text>
  <text style="stroke:none;fill:black;font-family:-apple-system,&quot;SF Pro Display&quot;,&quot;SF Pro Text&quot;,Helvetica,sans-serif;text-anchor:middle;" transform="matrix(1 0 0 1 2339.98 322)">Bold</text>
  <text style="stroke:none;fill:black;font-family:-apple-system,&quot;SF Pro Display&quot;,&quot;SF Pro Text&quot;,Helvetica,sans-serif;text-anchor:middle;" transform="matrix(1 0 0 1 2636.69 322)">Heavy</text>
  <text style="stroke:none;fill:black;font-family:-apple-system,&quot;SF Pro Display&quot;,&quot;SF Pro Text&quot;,Helvetica,sans-serif;text-anchor:middle;" transform="matrix(1 0 0 1 2933.4 322)">Black</text>
  <line id="" style="fill:none;stroke:black;opacity:1;stroke-width:0.5;" x1="263" x2="3036" y1="1903" y2="1903"/>
  <g id="" transform="matrix(1 0 0 1 263 1933)">
   <path d="M 9.24805 0.830078 C 13.5547 0.830078 17.1387 -2.74414 17.1387 -7.05078 C 17.1387 -11.3574 13.5449 -14.9316 9.23828 -14.9316 C 4.94141 -14.9316 1.36719 -11.3574 1.36719 -7.05078 C 1.36719 -2.74414 4.95117 0.830078 9.24805 0.830078 Z M 9.24805 -0.654297 C 5.70312 -0.654297 2.87109 -3.49609 2.87109 -7.05078 C 2.87109 -10.6055 5.69336 -13.4473 9.23828 -13.4473 C 12.793 -13.4473 15.6348 -10.6055 15.6445 -7.05078 C 15.6543 -3.49609 12.8027 -0.654297 9.24805 -0.654297 Z M 9.22852 -3.62305 C 9.69727 -3.62305 9.9707 -3.93555 9.9707 -4.45312 L 9.9707 -6.31836 L 12.002 -6.31836 C 12.5 -6.31836 12.832 -6.57227 12.832 -7.04102 C 12.832 -7.51953 12.5195 -7.7832 12.002 -7.7832 L 9.9707 -7.7832 L 9.9707 -9.81445 C 9.9707 -10.332 9.69727 -10.6543 9.22852 -10.6543 C 8.75977 -10.6543 8.50586 -10.3125 8.50586 -9.81445 L 8.50586 -7.7832 L 6.49414 -7.7832 C 5.97656 -7.7832 5.64453 -7.51953 5.64453 -7.04102 C 5.64453 -6.57227 5.99609 -6.31836 6.49414 -6.31836 L 8.50586 -6.31836 L 8.50586 -4.45312 C 8.50586 -3.95508 8.75977 -3.62305 9.22852 -3.62305 Z"/>
  </g>
  <g id="" transform="matrix(1 0 0 1 281.506 1933)">
   <path d="M 11.709 2.91016 C 17.1582 2.91016 21.6699 -1.61133 21.6699 -7.05078 C 21.6699 -12.5 17.1484 -17.0117 11.6992 -17.0117 C 6.25977 -17.0117 1.74805 -12.5 1.74805 -7.05078 C 1.74805 -1.61133 6.26953 2.91016 11.709 2.91016 Z M 11.709 1.25 C 7.09961 1.25 3.41797 -2.44141 3.41797 -7.05078 C 3.41797 -11.6602 7.08984 -15.3516 11.6992 -15.3516 C 16.3086 -15.3516 20 -11.6602 20.0098 -7.05078 C 20.0195 -2.44141 16.3184 1.25 11.709 1.25 Z M 11.6797 -2.66602 C 12.207 -2.66602 12.5098 -3.01758 12.5098 -3.59375 L 12.5098 -6.23047 L 15.3223 -6.23047 C 15.8691 -6.23047 16.25 -6.51367 16.25 -7.03125 C 16.25 -7.55859 15.8887 -7.86133 15.3223 -7.86133 L 12.5098 -7.86133 L 12.5098 -10.6836 C 12.5098 -11.25 12.207 -11.6113 11.6797 -11.6113 C 11.1621 -11.6113 10.8789 -11.2305 10.8789 -10.6836 L 10.8789 -7.86133 L 8.07617 -7.86133 C 7.50977 -7.86133 7.13867 -7.55859 7.13867 -7.03125 C 7.13867 -6.51367 7.5293 -6.23047 8.07617 -6.23047 L 10.8789 -6.23047 L 10.8789 -3.59375 C 10.8789 -3.03711 11.1621 -2.66602 11.6797 -2.66602 Z"/>
  </g>
  <g id="" transform="matrix(1 0 0 1 304.924 1933)">
   <path d="M 14.9707 5.66406 C 21.9336 5.66406 27.6953 -0.0976562 27.6953 -7.05078 C 27.6953 -14.0137 21.9238 -19.7754 14.9609 -19.7754 C 8.00781 -19.7754 2.25586 -14.0137 2.25586 -7.05078 C 2.25586 -0.0976562 8.01758 5.66406 14.9707 5.66406 Z M 14.9707 3.84766 C 8.93555 3.84766 4.08203 -1.01562 4.08203 -7.05078 C 4.08203 -13.0957 8.92578 -17.9492 14.9609 -17.9492 C 21.0059 -17.9492 25.8594 -13.0957 25.8691 -7.05078 C 25.8789 -1.01562 21.0156 3.84766 14.9707 3.84766 Z M 14.9414 -1.38672 C 15.5176 -1.38672 15.8594 -1.77734 15.8594 -2.38281 L 15.8594 -6.13281 L 19.7754 -6.13281 C 20.3711 -6.13281 20.7812 -6.46484 20.7812 -7.02148 C 20.7812 -7.59766 20.3906 -7.93945 19.7754 -7.93945 L 15.8594 -7.93945 L 15.8594 -11.8652 C 15.8594 -12.4805 15.5176 -12.8711 14.9414 -12.8711 C 14.375 -12.8711 14.0527 -12.4609 14.0527 -11.8652 L 14.0527 -7.93945 L 10.1465 -7.93945 C 9.53125 -7.93945 9.13086 -7.59766 9.13086 -7.02148 C 9.13086 -6.46484 9.55078 -6.13281 10.1465 -6.13281 L 14.0527 -6.13281 L 14.0527 -2.38281 C 14.0527 -1.79688 14.375 -1.38672 14.9414 -1.38672 Z"/>
  </g>
  <text style="stroke:none;fill:black;font-family:-apple-system,&quot;SF Pro Display&quot;,&quot;SF Pro Text&quot;,Helvetica,sans-serif;font-weight:bold;" transform="matrix(1 0 0 1 263 1953)">Design Variations</text>
  <text style="stroke:none;fill:black;font-family:-apple-system,&quot;SF Pro Display&quot;,&quot;SF Pro Text&quot;,Helvetica,sans-serif;" transform="matrix(1 0 0 1 263 1971)">Symbols are supported in up to nine weights and three scales.</text>
  <text style="stroke:none;fill:black;font-family:-apple-system,&quot;SF Pro Display&quot;,&quot;SF Pro Text&quot;,Helvetica,sans-serif;" transform="matrix(1 0 0 1 263 1989)">For optimal layout with text and other symbols, vertically align</text>
  <text style="stroke:none;fill:black;font-family:-apple-system,&quot;SF Pro Display&quot;,&quot;SF Pro Text&quot;,Helvetica,sans-serif;" transform="matrix(1 0 0 1 263 2007)">symbols with the adjacent text.</text>
  <line id="" style="fill:none;stroke:#00AEEF;stroke-width:0.5;opacity:1.0;" x1="776" x2="776" y1="1919" y2="1933"/>
  <g id="" transform="matrix(1 0 0 1 776 1933)">
   <path d="M 3.31055 0.126953 C 3.82812 0.126953 4.08203 -0.0683594 4.26758 -0.605469 L 5.52734 -4.0625 L 11.2891 -4.0625 L 12.5488 -0.605469 C 12.7344 -0.0683594 12.9883 0.126953 13.4961 0.126953 C 14.0137 0.126953 14.3457 -0.185547 14.3457 -0.673828 C 14.3457 -0.839844 14.3164 -0.986328 14.2383 -1.20117 L 9.6582 -13.3887 C 9.43359 -13.9941 9.0332 -14.2871 8.4082 -14.2871 C 7.80273 -14.2871 7.39258 -13.9941 7.17773 -13.3984 L 2.59766 -1.19141 C 2.51953 -0.976562 2.49023 -0.830078 2.49023 -0.664062 C 2.49023 -0.175781 2.80273 0.126953 3.31055 0.126953 Z M 6.00586 -5.53711 L 8.37891 -12.1094 L 8.42773 -12.1094 L 10.8008 -5.53711 Z"/>
  </g>
  <line id="" style="fill:none;stroke:#00AEEF;stroke-width:0.5;opacity:1.0;" x1="792.836" x2="792.836" y1="1919" y2="1933"/>
  <text style="stroke:none;fill:black;font-family:-apple-system,&quot;SF Pro Display&quot;,&quot;SF Pro Text&quot;,Helvetica,sans-serif;font-weight:bold;" transform="matrix(1 0 0 1 776 1953)">Margins</text>
  <text style="stroke:none;fill:black;font-family:-apple-system,&quot;SF Pro Display&quot;,&quot;SF Pro Text&quot;,Helvetica,sans-serif;" transform="matrix(1 0 0 1 776 1971)">Leading and trailing margins on the left and right side of each symbol</text>
  <text style="stroke:none;fill:black;font-family:-apple-system,&quot;SF Pro Display&quot;,&quot;SF Pro Text&quot;,Helvetica,sans-serif;" transform="matrix(1 0 0 1 776 1989)">can be adjusted by modifying the x-location of the margin guidelines.</text>
  <text style="stroke:none;fill:black;font-family:-apple-system,&quot;SF Pro Display&quot;,&quot;SF Pro Text&quot;,Helvetica,sans-serif;" transform="matrix(1 0 0 1 776 2007)">Modifications are automatically applied proportionally to all</text>
  <text style="stroke:none;fill:black;font-family:-apple-system,&quot;SF Pro Display&quot;,&quot;SF Pro Text&quot;,Helvetica,sans-serif;" transform="matrix(1 0 0 1 776 2025)">scales and weights.</text>
  <g id="" transform="matrix(1 0 0 1 1289 1933)">
   <path d="M 2.8418 1.86523 L 4.54102 3.57422 C 5.40039 4.44336 6.38672 4.38477 7.31445 3.35938 L 17.4902 -7.85156 C 17.7539 -7.76367 18.0273 -7.7832 18.3398 -7.8418 L 19.4043 -8.03711 L 20.0684 -7.36328 L 20.0293 -6.80664 C 19.9902 -6.30859 20.1172 -5.92773 20.6055 -5.44922 L 21.3672 -4.70703 C 21.8457 -4.22852 22.4609 -4.19922 22.9297 -4.66797 L 25.8398 -7.58789 C 26.3086 -8.05664 26.2891 -8.65234 25.8105 -9.13086 L 25.0391 -9.89258 C 24.5605 -10.3711 24.1895 -10.5273 23.7109 -10.4883 L 23.1348 -10.4395 L 22.4902 -11.0742 L 22.7344 -12.1973 C 22.8613 -12.7637 22.7051 -13.2031 22.1191 -13.7891 L 19.9219 -15.9766 C 16.582 -19.2969 12.1484 -19.2188 9.25781 -16.3281 C 8.83789 -15.918 8.80859 -15.3418 9.04297 -14.9512 C 9.27734 -14.5898 9.73633 -14.3555 10.3809 -14.5215 C 11.8457 -14.8633 13.3691 -14.9219 14.7949 -13.9844 L 14.209 -12.5293 C 14.0137 -12.0508 13.9844 -11.6504 14.1113 -11.2891 L 3.04688 -0.898438 C 2.06055 0.0195312 1.98242 0.996094 2.8418 1.86523 Z M 10.752 -15.957 C 13.1836 -17.7344 16.4746 -17.4316 18.7012 -15.2051 L 21.1328 -12.793 C 21.3672 -12.5586 21.4062 -12.373 21.3379 -12.0312 L 21.0156 -10.5469 L 22.5195 -9.0625 L 23.5059 -9.12109 C 23.7598 -9.13086 23.8379 -9.11133 24.0332 -8.91602 L 24.6094 -8.33984 L 22.168 -5.89844 L 21.5918 -6.47461 C 21.3965 -6.66992 21.3672 -6.74805 21.377 -7.01172 L 21.4453 -7.98828 L 19.9512 -9.47266 L 18.4277 -9.21875 C 18.1055 -9.15039 17.959 -9.17969 17.7148 -9.41406 L 15.7129 -11.416 C 15.459 -11.6504 15.4297 -11.8164 15.5859 -12.1875 L 16.4648 -14.2773 C 14.9023 -15.7324 12.8711 -16.3574 10.8398 -15.7617 C 10.6836 -15.7227 10.625 -15.8496 10.752 -15.957 Z M 5.27344 2.30469 L 4.10156 1.14258 C 3.63281 0.683594 3.74023 0.341797 4.14062 -0.0195312 L 14.9512 -10.1953 L 16.416 -8.71094 L 6.42578 2.27539 C 6.07422 2.67578 5.74219 2.77344 5.27344 2.30469 Z"/>
  </g>
  <text style="stroke:none;fill:black;font-family:-apple-system,&quot;SF Pro Display&quot;,&quot;SF Pro Text&quot;,Helvetica,sans-serif;font-weight:bold;" transform="matrix(1 0 0 1 1289 1953)">Exporting</text>
  <text style="stroke:none;fill:black;font-family:-apple-system,&quot;SF Pro Display&quot;,&quot;SF Pro Text&quot;,Helvetica,sans-serif;" transform="matrix(1 0 0 1 1289 1971)">Symbols should be outlined when exporting to ensure the</text>
  <text style="stroke:none;fill:black;font-family:-apple-system,&quot;SF Pro Display&quot;,&quot;SF Pro Text&quot;,Helvetica,sans-serif;" transform="matrix(1 0 0 1 1289 1989)">design is preserved when submitting to Xcode.</text>
  <text id="template-version" style="stroke:none;fill:black;font-family:-apple-system,&quot;SF Pro Display&quot;,&quot;SF Pro Text&quot;,Helvetica,sans-serif;text-anchor:end;" transform="matrix(1 0 0 1 3036 1933)">Template v.2.0</text>
  <text style="stroke:none;fill:black;font-family:-apple-system,&quot;SF Pro Display&quot;,&quot;SF Pro Text&quot;,Helvetica,sans-serif;text-anchor:end;" transform="matrix(1 0 0 1 3036 1951)">Requires Xcode 12 or greater</text>
  <text style="stroke:none;fill:black;font-family:-apple-system,&quot;SF Pro Display&quot;,&quot;SF Pro Text&quot;,Helvetica,sans-serif;text-anchor:end;" transform="matrix(1 0 0 1 3036 1969)">Generated from 38.square</text>
  <text style="stroke:none;fill:black;font-family:-apple-system,&quot;SF Pro Display&quot;,&quot;SF Pro Text&quot;,Helvetica,sans-serif;text-anchor:end;" transform="matrix(1 0 0 1 3036 1987)">Typeset at 100 points</text>
  <text style="stroke:none;fill:black;font-family:-apple-system,&quot;SF Pro Display&quot;,&quot;SF Pro Text&quot;,Helvetica,sans-serif;" transform="matrix(1 0 0 1 263 726)">Small</text>
  <text style="stroke:none;fill:black;font-family:-apple-system,&quot;SF Pro Display&quot;,&quot;SF Pro Text&quot;,Helvetica,sans-serif;" transform="matrix(1 0 0 1 263 1156)">Medium</text>
  <text style="stroke:none;fill:black;font-family:-apple-system,&quot;SF Pro Display&quot;,&quot;SF Pro Text&quot;,Helvetica,sans-serif;" transform="matrix(1 0 0 1 263 1586)">Large</text>
 </g>
 <g id="Guides">
  <g id="H-reference" style="fill:#27AAE1;stroke:none;" transform="matrix(1 0 0 1 339 696)">
   <path d="M 0.976562 0 L 3.66211 0 L 12.9883 -24.4629 L 45.7031 -24.4629 L 55.0781 0 L 57.7148 0 L 30.6152 -70.459 L 28.125 -70.459 Z M 29.2969 -67.1387 L 29.3945 -67.1387 L 44.873 -26.709 L 13.8672 -26.709 Z"/>
  </g>
  <line id="Baseline-S" style="fill:none;stroke:#27AAE1;opacity:1;stroke-width:0.5;" x1="263" x2="3036" y1="696" y2="696"/>
  <line id="Capline-S" style="fill:none;stroke:#27AAE1;opacity:1;stroke-width:0.5;" x1="263" x2="3036" y1="625.541" y2="625.541"/>
  <g id="H-reference" style="fill:#27AAE1;stroke:none;" transform="matrix(1 0 0 1 339 1126)">
   <path d="M 0.976562 0 L 3.66211 0 L 12.9883 -24.4629 L 45.7031 -24.4629 L 55.0781 0 L 57.7148 0 L 30.6152 -70.459 L 28.125 -70.459 Z M 29.2969 -67.1387 L 29.3945 -67.1387 L 44.873 -26.709 L 13.8672 -26.709 Z"/>
  </g>
  <line id="Baseline-M" style="fill:none;stroke:#27AAE1;opacity:1;stroke-width:0.5;" x1="263" x2="3036" y1="1126" y2="1126"/>
  <line id="Capline-M" style="fill:none;stroke:#27AAE1;opacity:1;stroke-width:0.5;" x1="263" x2="3036" y1="1055.54" y2="1055.54"/>
  <g id="H-reference" style="fill:#27AAE1;stroke:none;" transform="matrix(1 0 0 1 339 1556)">
   <path d="M 0.976562 0 L 3.66211 0 L 12.9883 -24.4629 L 45.7031 -24.4629 L 55.0781 0 L 57.7148 0 L 30.6152 -70.459 L 28.125 -70.459 Z M 29.2969 -67.1387 L 29.3945 -67.1387 L 44.873 -26.709 L 13.8672 -26.709 Z"/>
  </g>
  <line id="Baseline-L" style="fill:none;stroke:#27AAE1;opacity:1;stroke-width:0.5;" x1="263" x2="3036" y1="1556" y2="1556"/>
  <line id="Capline-L" style="fill:none;stroke:#27AAE1;opacity:1;stroke-width:0.5;" x1="263" x2="3036" y1="1485.54" y2="1485.54"/>
  <line id="left-margin" style="fill:none;stroke:#00AEEF;stroke-width:0.5;opacity:1.0;" x1="1392.45" x2="1392.45" y1="1030.79" y2="1150.12"/>
  <line id="right-margin" style="fill:none;stroke:#00AEEF;stroke-width:0.5;opacity:1.0;" x1="1507.24" x2="1507.24" y1="1030.79" y2="1150.12"/>
 </g>
 <g id="Symbols">
  <g id="Black-L" transform="matrix(1 0 0 1 2855.62 1556)">
   <path d="M 39.9902 26.5137 L 115.576 26.5137 C 130.811 26.5137 139.502 17.8711 139.502 2.68555 L 139.502 -73.0957 C 139.502 -88.2812 130.811 -96.875 115.576 -96.875 L 39.9902 -96.875 C 24.7559 -96.875 16.0645 -88.2812 16.0645 -73.0957 L 16.0645 2.68555 C 16.0645 17.8711 24.7559 26.5137 39.9902 26.5137 Z M 42.6758 6.29883 C 38.4766 6.29883 36.3281 4.39453 36.3281 -0.146484 L 36.3281 -70.2148 C 36.3281 -74.7559 38.4766 -76.6602 42.6758 -76.6602 L 112.842 -76.6602 C 117.09 -76.6602 119.238 -74.7559 119.238 -70.2148 L 119.238 -0.146484 C 119.238 4.39453 117.09 6.29883 112.842 6.29883 Z M 58.7891 -10.6934 C 69.0918 -10.6934 75.7324 -16.3574 75.7324 -25.0488 C 75.7324 -31.0059 72.168 -35.9375 66.9434 -36.3281 L 66.9434 -36.8652 C 71.2891 -37.5977 74.6094 -42.0898 74.6094 -46.9238 C 74.6094 -54.6875 68.457 -59.8145 58.9355 -59.8145 C 51.2207 -59.8145 45.8984 -55.127 44.3848 -51.0742 C 43.8965 -49.8047 43.7012 -48.877 43.7012 -47.7539 C 43.7012 -44.5801 45.7031 -42.6758 48.4375 -42.6758 C 50.8301 -42.6758 52.2949 -43.7988 53.3203 -45.6055 C 54.6875 -48.1445 56.2988 -49.3652 58.7891 -49.3652 C 61.1328 -49.3652 62.9395 -47.7539 62.9395 -45.166 C 62.9395 -43.0176 61.5723 -41.0156 58.7891 -41.0156 L 57.9102 -41.0156 C 54.541 -41.0156 52.4902 -38.8184 52.4902 -35.5957 C 52.4902 -32.4219 54.248 -30.127 57.9102 -30.127 L 58.8379 -30.127 C 61.9141 -30.127 63.6719 -28.4668 63.6719 -25.7812 C 63.6719 -23.5352 61.7676 -21.582 58.9844 -21.582 C 56.543 -21.582 54.3945 -22.8027 52.9297 -25.3906 C 51.8066 -27.1973 50.2441 -28.2227 47.998 -28.2227 C 45.6055 -28.2227 43.0664 -26.3672 43.0664 -23.0957 C 43.0664 -22.0703 43.2617 -21.1426 43.5547 -20.166 C 45.0195 -15.2832 51.416 -10.6934 58.7891 -10.6934 Z M 97.6074 -10.6934 C 107.91 -10.6934 114.795 -16.2598 114.795 -24.6582 C 114.795 -30.8594 111.084 -34.9609 105.762 -36.3281 L 105.762 -36.8652 C 109.912 -37.9395 113.086 -41.8457 113.086 -47.0703 C 113.086 -54.6875 106.885 -59.8145 97.6562 -59.8145 C 88.4277 -59.8145 82.2266 -54.6875 82.2266 -47.0703 C 82.2266 -41.8457 85.4004 -37.9883 89.5508 -36.8652 L 89.5508 -36.3281 C 84.2285 -34.9609 80.5176 -30.8105 80.5176 -24.6582 C 80.5176 -16.2598 87.3535 -10.6934 97.6074 -10.6934 Z M 97.6562 -41.2109 C 94.9219 -41.2109 93.1641 -43.1641 93.1641 -45.8496 C 93.1641 -48.5352 94.9707 -50.4883 97.6562 -50.4883 C 100.342 -50.4883 102.197 -48.5352 102.197 -45.8496 C 102.197 -43.1641 100.391 -41.2109 97.6562 -41.2109 Z M 97.6562 -20.166 C 94.4824 -20.166 92.2363 -22.4609 92.2363 -25.6836 C 92.2363 -28.8086 94.4824 -31.2012 97.6562 -31.2012 C 100.928 -31.2012 103.076 -28.8574 103.076 -25.6836 C 103.076 -22.4609 100.879 -20.166 97.6562 -20.166 Z"/>
  </g>
  <g id="Heavy-L" transform="matrix(1 0 0 1 2559.93 1556)">
   <path d="M 38.8184 25.4883 L 114.697 25.4883 C 129.346 25.4883 137.451 17.4316 137.451 2.88086 L 137.451 -73.2422 C 137.451 -87.793 129.346 -95.8496 114.697 -95.8496 L 38.8184 -95.8496 C 24.2188 -95.8496 16.0645 -87.793 16.0645 -73.2422 L 16.0645 2.88086 C 16.0645 17.4316 24.2188 25.4883 38.8184 25.4883 Z M 40.918 8.00781 C 36.084 8.00781 33.5938 5.71289 33.5938 0.585938 L 33.5938 -70.9473 C 33.5938 -76.0742 36.084 -78.3691 40.918 -78.3691 L 112.549 -78.3691 C 117.383 -78.3691 119.922 -76.0742 119.922 -70.9473 L 119.922 0.585938 C 119.922 5.71289 117.383 8.00781 112.549 8.00781 Z M 57.2754 -10.1562 C 67.627 -10.1562 74.4141 -15.9668 74.4141 -24.7559 C 74.4141 -30.8105 70.5566 -35.8887 65.0879 -36.3281 L 65.0879 -36.8164 C 69.6777 -37.5977 73.1445 -42.2363 73.1445 -47.3145 C 73.1445 -55.1758 66.8945 -60.4004 57.4707 -60.4004 C 49.6094 -60.4004 44.043 -55.7129 42.5293 -51.1719 C 42.0898 -50 41.9434 -49.1211 41.9434 -48.0957 C 41.9434 -45.166 43.75 -43.4082 46.3379 -43.4082 C 48.5352 -43.4082 49.8535 -44.4824 50.7812 -46.2891 C 52.1484 -49.3164 54.1504 -50.8789 57.2754 -50.8789 C 60.4004 -50.8789 62.6465 -48.877 62.6465 -45.8008 C 62.6465 -43.0176 60.6934 -40.625 57.3242 -40.625 L 55.7617 -40.625 C 52.7344 -40.625 50.9277 -38.6719 50.9277 -35.7422 C 50.9277 -32.8613 52.4902 -30.8105 55.7617 -30.8105 L 57.4219 -30.8105 C 61.2305 -30.8105 63.5742 -28.6621 63.5742 -25.3418 C 63.5742 -22.3633 61.084 -19.9707 57.4219 -19.9707 C 54.3457 -19.9707 51.8066 -21.5332 50.293 -24.5605 C 49.2676 -26.416 47.8516 -27.3926 45.752 -27.3926 C 43.457 -27.3926 41.2109 -25.6836 41.2109 -22.7051 C 41.2109 -21.7285 41.4062 -20.8496 41.6992 -19.9219 C 43.1641 -14.8438 49.6582 -10.1562 57.2754 -10.1562 Z M 97.168 -10.1562 C 107.568 -10.1562 114.648 -15.8691 114.648 -24.4141 C 114.648 -30.6152 110.84 -35.0098 105.176 -36.377 L 105.176 -36.8652 C 109.668 -38.0371 112.842 -42.1387 112.842 -47.4121 C 112.842 -55.127 106.543 -60.4004 97.2168 -60.4004 C 87.9395 -60.4004 81.5918 -55.127 81.5918 -47.4121 C 81.5918 -42.1387 84.7656 -38.1348 89.3066 -36.8652 L 89.3066 -36.377 C 83.5938 -35.0098 79.834 -30.6152 79.834 -24.4141 C 79.834 -15.8203 86.7676 -10.1562 97.168 -10.1562 Z M 97.2168 -40.7227 C 93.8477 -40.7227 91.6016 -43.0664 91.6016 -46.3379 C 91.6016 -49.5605 93.8965 -51.9043 97.2168 -51.9043 C 100.586 -51.9043 102.881 -49.5605 102.881 -46.3379 C 102.881 -43.0664 100.635 -40.7227 97.2168 -40.7227 Z M 97.2656 -18.75 C 93.2617 -18.75 90.4297 -21.4844 90.4297 -25.293 C 90.4297 -29.0527 93.2617 -31.7871 97.2656 -31.7871 C 101.27 -31.7871 104.053 -29.0527 104.053 -25.293 C 104.053 -21.4844 101.221 -18.75 97.2656 -18.75 Z"/>
  </g>
  <g id="Bold-L" transform="matrix(1 0 0 1 2264.37 1556)">
   <path d="M 37.5 24.3652 L 113.721 24.3652 C 127.637 24.3652 135.156 16.8945 135.156 3.07617 L 135.156 -73.3887 C 135.156 -87.207 127.637 -94.7266 113.721 -94.7266 L 37.5 -94.7266 C 23.6328 -94.7266 16.0645 -87.2559 16.0645 -73.3887 L 16.0645 3.07617 C 16.0645 16.8945 23.6328 24.3652 37.5 24.3652 Z M 38.9648 9.91211 C 33.4473 9.91211 30.5176 7.17773 30.5176 1.41602 L 30.5176 -71.7285 C 30.5176 -77.5391 33.4473 -80.2734 38.9648 -80.2734 L 112.256 -80.2734 C 117.725 -80.2734 120.703 -77.5391 120.703 -71.7285 L 120.703 1.41602 C 120.703 7.17773 117.725 9.91211 112.256 9.91211 Z M 55.5664 -9.52148 C 65.9668 -9.52148 72.9492 -15.5273 72.9492 -24.3652 C 72.9492 -30.6152 68.7988 -35.791 62.9883 -36.3281 L 62.9883 -36.7676 C 67.8223 -37.5488 71.5332 -42.4316 71.5332 -47.8027 C 71.5332 -55.6641 65.1855 -61.0352 55.7617 -61.0352 C 47.8027 -61.0352 41.9922 -56.3477 40.4297 -51.2207 C 40.0879 -50.1953 39.9902 -49.4141 39.9902 -48.4863 C 39.9902 -45.8984 41.6016 -44.2383 43.9453 -44.2383 C 45.9961 -44.2383 47.168 -45.2637 47.9492 -47.0703 C 49.3164 -50.6348 51.7578 -52.5879 55.6152 -52.5879 C 59.5215 -52.5879 62.3047 -50.1465 62.3047 -46.5332 C 62.3047 -43.0176 59.7168 -40.1855 55.6152 -40.1855 L 53.3203 -40.1855 C 50.7324 -40.1855 49.1211 -38.4766 49.1211 -35.8398 C 49.1211 -33.3496 50.5859 -31.543 53.3203 -31.543 L 55.8594 -31.543 C 60.498 -31.543 63.4766 -28.8574 63.4766 -24.8535 C 63.4766 -21.0938 60.3027 -18.1641 55.6641 -18.1641 C 51.8555 -18.1641 48.877 -20.0684 47.3145 -23.6816 C 46.3867 -25.4883 45.166 -26.4648 43.2129 -26.4648 C 41.0645 -26.4648 39.1602 -24.8535 39.1602 -22.2168 C 39.1602 -21.2891 39.3066 -20.5566 39.5508 -19.6777 C 41.1133 -14.3555 47.6562 -9.52148 55.5664 -9.52148 Z M 96.6797 -9.52148 C 107.227 -9.52148 114.404 -15.4297 114.404 -24.1699 C 114.404 -30.4199 110.498 -35.1074 104.541 -36.4258 L 104.541 -36.8652 C 109.424 -38.1836 112.598 -42.4316 112.598 -47.7539 C 112.598 -55.6641 106.152 -61.0352 96.7773 -61.0352 C 87.3535 -61.0352 80.9082 -55.6641 80.9082 -47.7539 C 80.9082 -42.4316 84.0332 -38.2812 88.9648 -36.8652 L 88.9648 -36.4258 C 82.959 -35.1074 79.1016 -30.3711 79.1016 -24.1211 C 79.1016 -15.3809 86.1816 -9.52148 96.6797 -9.52148 Z M 96.7773 -40.1855 C 92.6758 -40.1855 89.8438 -43.0176 89.8438 -46.875 C 89.8438 -50.7324 92.6758 -53.4668 96.7773 -53.4668 C 100.83 -53.4668 103.662 -50.7324 103.662 -46.875 C 103.662 -43.0176 100.83 -40.1855 96.7773 -40.1855 Z M 96.7773 -17.1387 C 91.8945 -17.1387 88.4277 -20.3125 88.4277 -24.8535 C 88.4277 -29.248 91.8945 -32.4707 96.7773 -32.4707 C 101.709 -32.4707 105.127 -29.2969 105.127 -24.8535 C 105.127 -20.3125 101.611 -17.1387 96.7773 -17.1387 Z"/>
  </g>
  <g id="Semibold-L" transform="matrix(1 0 0 1 1968.44 1556)">
   <path d="M 36.6211 23.584 L 113.037 23.584 C 126.514 23.584 133.594 16.5039 133.594 3.17383 L 133.594 -73.5352 C 133.594 -86.8164 126.514 -93.9453 113.037 -93.9453 L 36.6211 -93.9453 C 23.1934 -93.9453 16.0645 -86.8652 16.0645 -73.5352 L 16.0645 3.17383 C 16.0645 16.5527 23.1934 23.584 36.6211 23.584 Z M 37.5977 11.2793 C 31.6406 11.2793 28.418 8.20312 28.418 1.95312 L 28.418 -72.3145 C 28.418 -78.5156 31.6406 -81.5918 37.5977 -81.5918 L 112.061 -81.5918 C 117.969 -81.5918 121.24 -78.5156 121.24 -72.3145 L 121.24 1.95312 C 121.24 8.20312 117.969 11.2793 112.061 11.2793 Z M 54.3457 -9.08203 C 64.7949 -9.08203 71.9727 -15.2344 71.9727 -24.0723 C 71.9727 -30.5176 67.5781 -35.7422 61.5234 -36.3281 L 61.5234 -36.7188 C 66.5527 -37.5488 70.4102 -42.5781 70.4102 -48.1445 C 70.4102 -56.0059 63.9648 -61.4258 54.6387 -61.4258 C 46.582 -61.4258 40.5762 -56.7871 39.0137 -51.2695 C 38.7207 -50.3418 38.623 -49.6582 38.623 -48.7793 C 38.623 -46.3867 40.0879 -44.8242 42.334 -44.8242 C 44.2383 -44.8242 45.3125 -45.752 45.9961 -47.6074 C 47.3145 -51.5625 50.1465 -53.7598 54.4922 -53.7598 C 58.9355 -53.7598 62.0605 -51.0254 62.0605 -47.0215 C 62.0605 -42.9688 59.0332 -39.8926 54.4922 -39.8926 L 51.6602 -39.8926 C 49.3652 -39.8926 47.8516 -38.3301 47.8516 -35.9375 C 47.8516 -33.6914 49.2188 -32.0312 51.6602 -32.0312 L 54.7363 -32.0312 C 60.0098 -32.0312 63.3789 -29.0039 63.3789 -24.5117 C 63.3789 -20.2148 59.7656 -16.8945 54.4434 -16.8945 C 50.1465 -16.8945 46.875 -19.0918 45.2637 -23.0957 C 44.4336 -24.9023 43.3105 -25.8301 41.5039 -25.8301 C 39.4531 -25.8301 37.7441 -24.2676 37.7441 -21.9238 C 37.7441 -20.9961 37.8418 -20.3125 38.0859 -19.4824 C 39.6973 -14.0137 46.2402 -9.08203 54.3457 -9.08203 Z M 96.3379 -9.08203 C 106.982 -9.08203 114.307 -15.1367 114.307 -23.9746 C 114.307 -30.2734 110.303 -35.1562 104.102 -36.4746 L 104.102 -36.9141 C 109.229 -38.2812 112.451 -42.6758 112.451 -48.0469 C 112.451 -56.0059 105.859 -61.4258 96.4355 -61.4258 C 87.0117 -61.4258 80.4199 -56.0059 80.4199 -48.0469 C 80.4199 -42.6758 83.5449 -38.4277 88.7695 -36.9141 L 88.7695 -36.4746 C 82.5195 -35.1562 78.5645 -30.2246 78.5645 -23.9258 C 78.5645 -15.0391 85.7422 -9.08203 96.3379 -9.08203 Z M 96.4355 -39.8438 C 91.8457 -39.8438 88.6719 -42.9688 88.6719 -47.2168 C 88.6719 -51.5137 91.8457 -54.541 96.4355 -54.541 C 101.025 -54.541 104.199 -51.5137 104.199 -47.2168 C 104.199 -42.9688 101.025 -39.8438 96.4355 -39.8438 Z M 96.4844 -16.0645 C 90.9668 -16.0645 87.0605 -19.5312 87.0605 -24.5117 C 87.0605 -29.3945 90.9668 -32.959 96.4844 -32.959 C 102.002 -32.959 105.859 -29.4434 105.859 -24.5117 C 105.859 -19.5312 101.904 -16.0645 96.4844 -16.0645 Z"/>
  </g>
  <g id="Medium-L" transform="matrix(1 0 0 1 1672.31 1556)">
   <path d="M 35.9375 22.998 L 112.5 22.998 C 125.635 22.998 132.422 16.2109 132.422 3.27148 L 132.422 -73.6328 C 132.422 -86.5234 125.635 -93.3105 112.5 -93.3105 L 35.9375 -93.3105 C 22.9004 -93.3105 16.0645 -86.5723 16.0645 -73.6328 L 16.0645 3.27148 C 16.0645 16.2598 22.9004 22.998 35.9375 22.998 Z M 36.5723 12.2559 C 30.2246 12.2559 26.8066 8.98438 26.8066 2.39258 L 26.8066 -72.7051 C 26.8066 -79.2969 30.2246 -82.6172 36.5723 -82.6172 L 111.865 -82.6172 C 118.115 -82.6172 121.68 -79.2969 121.68 -72.7051 L 121.68 2.39258 C 121.68 8.98438 118.115 12.2559 111.865 12.2559 Z M 53.4668 -8.78906 C 63.916 -8.78906 71.1914 -14.9902 71.1914 -23.877 C 71.1914 -30.4199 66.6504 -35.7422 60.4492 -36.3281 L 60.4492 -36.6699 C 65.5762 -37.5488 69.5801 -42.6758 69.5801 -48.3887 C 69.5801 -56.2988 63.0859 -61.7676 53.7598 -61.7676 C 45.6055 -61.7676 39.4531 -57.1289 37.8906 -51.3184 C 37.6465 -50.4395 37.5977 -49.8047 37.5977 -48.9746 C 37.5977 -46.7285 38.9648 -45.2637 41.1133 -45.2637 C 42.8711 -45.2637 43.8965 -46.1426 44.5312 -47.998 C 45.8496 -52.2461 48.877 -54.6387 53.6133 -54.6387 C 58.4961 -54.6387 61.9141 -51.709 61.9141 -47.3633 C 61.9141 -42.9688 58.4961 -39.6484 53.6133 -39.6484 L 50.3906 -39.6484 C 48.291 -39.6484 46.9238 -38.2324 46.9238 -36.0352 C 46.9238 -33.9355 48.2422 -32.4219 50.3906 -32.4219 L 53.9062 -32.4219 C 59.6191 -32.4219 63.3301 -29.1016 63.3301 -24.2676 C 63.3301 -19.5312 59.375 -15.9668 53.5645 -15.9668 C 48.8281 -15.9668 45.3125 -18.3594 43.7012 -22.6074 C 42.9199 -24.4141 41.8945 -25.3418 40.1855 -25.3418 C 38.1836 -25.3418 36.6211 -23.877 36.6211 -21.6797 C 36.6211 -20.8008 36.7676 -20.166 37.0117 -19.3848 C 38.6719 -13.7695 45.2148 -8.78906 53.4668 -8.78906 Z M 96.0938 -8.78906 C 106.787 -8.78906 114.16 -14.8926 114.16 -23.8281 C 114.16 -30.127 110.156 -35.2051 103.76 -36.5234 L 103.76 -36.9141 C 109.131 -38.3789 112.305 -42.8223 112.305 -48.2422 C 112.305 -56.25 105.664 -61.7676 96.1914 -61.7676 C 86.7188 -61.7676 80.0293 -56.25 80.0293 -48.2422 C 80.0293 -42.8223 83.1543 -38.5254 88.623 -36.9141 L 88.623 -36.5234 C 82.1777 -35.2051 78.1738 -30.0781 78.1738 -23.7793 C 78.1738 -14.8438 85.4004 -8.78906 96.0938 -8.78906 Z M 96.1914 -39.5508 C 91.2109 -39.5508 87.7441 -42.9199 87.7441 -47.5098 C 87.7441 -52.1484 91.2109 -55.3711 96.1914 -55.3711 C 101.123 -55.3711 104.59 -52.1484 104.59 -47.5098 C 104.59 -42.9199 101.123 -39.5508 96.1914 -39.5508 Z M 96.2402 -15.1855 C 90.2832 -15.1855 85.9863 -18.9453 85.9863 -24.3164 C 85.9863 -29.541 90.2832 -33.3008 96.2402 -33.3008 C 102.197 -33.3008 106.396 -29.541 106.396 -24.3164 C 106.396 -18.9453 102.1 -15.1855 96.2402 -15.1855 Z"/>
  </g>
  <g id="Regular-L" transform="matrix(1 0 0 1 1376.38 1556)">
   <path d="M 35.0586 22.2168 L 111.816 22.2168 C 124.463 22.2168 130.859 15.8691 130.859 3.41797 L 130.859 -73.7305 C 130.859 -86.1816 124.463 -92.5293 111.816 -92.5293 L 35.0586 -92.5293 C 22.4609 -92.5293 16.0645 -86.2305 16.0645 -73.7305 L 16.0645 3.41797 C 16.0645 15.918 22.4609 22.2168 35.0586 22.2168 Z M 35.2539 13.5742 C 28.418 13.5742 24.707 9.96094 24.707 2.97852 L 24.707 -73.291 C 24.707 -80.2734 28.418 -83.8867 35.2539 -83.8867 L 111.67 -83.8867 C 118.359 -83.8867 122.217 -80.2734 122.217 -73.291 L 122.217 2.97852 C 122.217 9.96094 118.359 13.5742 111.67 13.5742 Z M 52.2949 -8.34961 C 62.793 -8.34961 70.2148 -14.6973 70.2148 -23.6328 C 70.2148 -30.2734 65.4297 -35.6934 59.0332 -36.3281 L 59.0332 -36.6211 C 64.3555 -37.5488 68.457 -42.8223 68.457 -48.7305 C 68.457 -56.6406 61.9141 -62.207 52.5879 -62.207 C 44.3848 -62.207 38.0371 -57.5684 36.4746 -51.3672 C 36.3281 -50.6348 36.2793 -50 36.2793 -49.2188 C 36.2793 -47.2168 37.5 -45.8008 39.4531 -45.8008 C 41.1621 -45.8008 42.041 -46.6797 42.5781 -48.5352 C 43.8965 -53.125 47.2656 -55.8105 52.4414 -55.8105 C 57.9102 -55.8105 61.6699 -52.5879 61.6699 -47.8516 C 61.6699 -42.9688 57.8613 -39.3555 52.4902 -39.3555 L 48.7305 -39.3555 C 46.9238 -39.3555 45.7031 -38.0859 45.7031 -36.084 C 45.7031 -34.2773 46.875 -32.9102 48.7305 -32.9102 L 52.832 -32.9102 C 59.082 -32.9102 63.2812 -29.248 63.2812 -23.9258 C 63.2812 -18.6523 58.8379 -14.6973 52.3438 -14.6973 C 47.168 -14.6973 43.3594 -17.334 41.6504 -22.0215 C 40.9668 -23.7793 40.0391 -24.707 38.4277 -24.707 C 36.5723 -24.707 35.2051 -23.291 35.2051 -21.3379 C 35.2051 -20.5078 35.3516 -19.9219 35.5469 -19.1895 C 37.2559 -13.4277 43.8477 -8.34961 52.2949 -8.34961 Z M 95.752 -8.34961 C 106.543 -8.34961 114.014 -14.5996 114.014 -23.6328 C 114.014 -29.9805 109.961 -35.2539 103.32 -36.5723 L 103.32 -36.9141 C 108.936 -38.4766 112.158 -43.0176 112.158 -48.4863 C 112.158 -56.5918 105.371 -62.207 95.8496 -62.207 C 86.3281 -62.207 79.541 -56.5918 79.541 -48.4863 C 79.541 -43.0176 82.666 -38.623 88.3789 -36.9141 L 88.3789 -36.5723 C 81.6895 -35.2539 77.6855 -29.9316 77.6855 -23.584 C 77.6855 -14.502 85.0098 -8.34961 95.752 -8.34961 Z M 95.8496 -39.209 C 90.4297 -39.209 86.5723 -42.8711 86.5723 -47.8516 C 86.5723 -52.9297 90.3809 -56.4453 95.8496 -56.4453 C 101.318 -56.4453 105.127 -52.9297 105.127 -47.8516 C 105.127 -42.8711 101.27 -39.209 95.8496 -39.209 Z M 95.8984 -14.1113 C 89.3555 -14.1113 84.6191 -18.1641 84.6191 -23.9746 C 84.6191 -29.6875 89.3555 -33.7891 95.8984 -33.7891 C 102.49 -33.7891 107.129 -29.7363 107.129 -23.9746 C 107.129 -18.1641 102.393 -14.1113 95.8984 -14.1113 Z"/>
  </g>
  <g id="Light-L" transform="matrix(1 0 0 1 1080.5 1556)">
   <path d="M 34.0332 21.4355 L 111.23 21.4355 C 123.096 21.4355 129.199 15.2344 129.199 3.56445 L 129.199 -73.8281 C 129.199 -85.5469 123.096 -91.6992 111.23 -91.6992 L 34.0332 -91.6992 C 22.168 -91.6992 16.0645 -85.6445 16.0645 -73.8281 L 16.0645 3.56445 C 16.0645 15.3809 22.168 21.4355 34.0332 21.4355 Z M 34.1797 14.7949 C 26.709 14.7949 22.7051 10.8398 22.7051 3.22266 L 22.7051 -73.4863 C 22.7051 -81.1523 26.709 -85.0586 34.1797 -85.0586 L 111.035 -85.0586 C 118.359 -85.0586 122.559 -81.1523 122.559 -73.4863 L 122.559 3.22266 C 122.559 10.8398 118.359 14.7949 111.035 14.7949 Z M 51.4648 -8.64258 C 61.6699 -8.64258 68.9941 -14.8926 68.9941 -23.6816 C 68.9941 -30.2246 64.1113 -35.6445 57.5684 -36.3281 L 57.5684 -36.5723 C 63.0371 -37.5 67.2852 -42.8223 67.2852 -48.6816 C 67.2852 -56.4453 60.7422 -61.9141 51.6113 -61.9141 C 43.7988 -61.9141 37.4512 -57.5684 35.8887 -51.3184 C 35.7422 -50.6348 35.6934 -50.0488 35.6934 -49.3652 C 35.6934 -47.7051 36.6699 -46.5332 38.3789 -46.5332 C 39.7461 -46.5332 40.5273 -47.2656 40.9668 -48.877 C 42.0898 -53.6621 45.8984 -56.6895 51.5137 -56.6895 C 57.5684 -56.6895 61.7188 -53.1738 61.7188 -47.998 C 61.7188 -42.7734 57.4707 -38.7695 51.6602 -38.7695 L 47.4609 -38.7695 C 45.9473 -38.7695 44.9219 -37.7441 44.9219 -36.1328 C 44.9219 -34.6191 45.8984 -33.5449 47.4609 -33.5449 L 52.0508 -33.5449 C 58.6914 -33.5449 63.3789 -29.4434 63.3789 -23.8281 C 63.3789 -18.0176 58.5938 -13.8184 51.4648 -13.8184 C 46.0449 -13.8184 41.6504 -16.748 39.9902 -21.6797 C 39.4531 -23.1934 38.6719 -23.9746 37.3047 -23.9746 C 35.7422 -23.9746 34.668 -22.8027 34.668 -21.1914 C 34.668 -20.459 34.7656 -19.873 34.9609 -19.2383 C 36.7188 -13.5742 43.1641 -8.64258 51.4648 -8.64258 Z M 94.9219 -8.64258 C 105.469 -8.64258 112.988 -14.8438 112.988 -23.7305 C 112.988 -30.0293 108.691 -35.3027 102.246 -36.5723 L 102.246 -36.9141 C 107.715 -38.4277 111.084 -43.0176 111.084 -48.3398 C 111.084 -56.3477 104.346 -61.9141 94.9707 -61.9141 C 85.5957 -61.9141 78.8574 -56.3477 78.8574 -48.3398 C 78.8574 -43.0176 82.1777 -38.5742 87.7441 -36.9141 L 87.7441 -36.5723 C 81.2012 -35.3027 77.002 -29.9805 77.002 -23.7305 C 77.002 -14.7949 84.375 -8.64258 94.9219 -8.64258 Z M 94.9707 -38.8184 C 88.8184 -38.8184 84.5215 -42.7246 84.5215 -47.998 C 84.5215 -53.418 88.7695 -57.1289 94.9707 -57.1289 C 101.172 -57.1289 105.42 -53.418 105.42 -47.998 C 105.42 -42.7246 101.123 -38.8184 94.9707 -38.8184 Z M 95.0195 -13.3789 C 87.7441 -13.3789 82.4707 -17.7734 82.4707 -23.9258 C 82.4707 -29.9316 87.7441 -34.2773 95.0195 -34.2773 C 102.344 -34.2773 107.52 -29.9805 107.52 -23.9258 C 107.52 -17.7734 102.246 -13.3789 95.0195 -13.3789 Z"/>
  </g>
  <g id="Thin-L" transform="matrix(1 0 0 1 784.889 1556)">
   <path d="M 32.666 20.3613 L 110.352 20.3613 C 121.24 20.3613 127.002 14.4531 127.002 3.75977 L 127.002 -73.9746 C 127.002 -84.7168 121.24 -90.5762 110.352 -90.5762 L 32.666 -90.5762 C 21.7773 -90.5762 16.0645 -84.8633 16.0645 -73.9746 L 16.0645 3.75977 C 16.0645 14.6484 21.7773 20.3613 32.666 20.3613 Z M 32.8125 16.4062 C 24.4141 16.4062 19.9707 12.0117 19.9707 3.56445 L 19.9707 -73.7793 C 19.9707 -82.2754 24.4141 -86.6699 32.8125 -86.6699 L 110.205 -86.6699 C 118.359 -86.6699 123.047 -82.2754 123.047 -73.7793 L 123.047 3.56445 C 123.047 12.0117 118.359 16.4062 110.205 16.4062 Z M 50.3418 -9.0332 C 60.2051 -9.0332 67.4316 -15.1855 67.4316 -23.6816 C 67.4316 -30.127 62.3047 -35.5957 55.6641 -36.3281 L 55.6641 -36.4258 C 61.3281 -37.4512 65.625 -42.8223 65.625 -48.6328 C 65.625 -56.1523 59.1797 -61.5234 50.293 -61.5234 C 43.0664 -61.5234 36.6211 -57.5684 35.1562 -51.2695 C 35.0098 -50.6836 34.9609 -50.1465 34.9609 -49.6094 C 34.9609 -48.3398 35.498 -47.4609 36.9141 -47.4609 C 37.8906 -47.4609 38.4766 -47.998 38.7695 -49.3164 C 39.6973 -54.3945 44.043 -57.8613 50.293 -57.8613 C 57.1289 -57.8613 61.7676 -53.9551 61.7676 -48.2422 C 61.7676 -42.4805 56.9824 -37.9883 50.5371 -37.9883 L 45.752 -37.9883 C 44.6777 -37.9883 43.9453 -37.3047 43.9453 -36.1328 C 43.9453 -35.0586 44.5801 -34.3262 45.752 -34.3262 L 51.0254 -34.3262 C 58.2031 -34.3262 63.4766 -29.7363 63.4766 -23.7305 C 63.4766 -17.2363 58.252 -12.6465 50.3418 -12.6465 C 44.5312 -12.6465 39.4531 -15.918 37.7441 -21.2402 C 37.3535 -22.3633 36.8164 -22.998 35.791 -22.998 C 34.6191 -22.998 33.8867 -22.1191 33.8867 -20.9961 C 33.8867 -20.3613 34.0332 -19.8242 34.2285 -19.3359 C 36.0352 -13.7695 42.2852 -9.0332 50.3418 -9.0332 Z M 93.7988 -9.0332 C 104.053 -9.0332 111.572 -15.2344 111.572 -23.877 C 111.572 -30.0293 107.08 -35.3516 100.83 -36.5723 L 100.83 -36.8652 C 106.055 -38.3301 109.668 -43.0176 109.668 -48.1934 C 109.668 -56.0059 102.979 -61.5234 93.8477 -61.5234 C 84.668 -61.5234 77.9785 -56.0059 77.9785 -48.1934 C 77.9785 -43.0176 81.543 -38.5254 86.8652 -36.8652 L 86.8652 -36.5723 C 80.5664 -35.3516 76.0742 -30.0293 76.0742 -23.877 C 76.0742 -15.1367 83.5449 -9.0332 93.7988 -9.0332 Z M 93.8477 -38.2812 C 86.7676 -38.2812 81.8359 -42.4805 81.8359 -48.1934 C 81.8359 -54.0039 86.6699 -58.1055 93.8477 -58.1055 C 100.977 -58.1055 105.811 -54.0039 105.811 -48.1934 C 105.811 -42.4805 100.928 -38.2812 93.8477 -38.2812 Z M 93.8477 -12.4512 C 85.5957 -12.4512 79.6387 -17.2363 79.6387 -23.877 C 79.6387 -30.2734 85.5957 -34.9121 93.8477 -34.9121 C 102.1 -34.9121 108.008 -30.2734 108.008 -23.877 C 108.008 -17.2363 102.1 -12.4512 93.8477 -12.4512 Z"/>
  </g>
  <g id="Ultralight-L" transform="matrix(1 0 0 1 488.739 1556)">
   <path d="M 31.9824 19.7754 L 109.961 19.7754 C 120.312 19.7754 125.879 14.0625 125.879 3.85742 L 125.879 -74.0723 C 125.879 -84.2773 120.312 -89.9902 109.961 -89.9902 L 31.9824 -89.9902 C 21.582 -89.9902 16.0645 -84.4727 16.0645 -74.0723 L 16.0645 3.85742 C 16.0645 14.2578 21.582 19.7754 31.9824 19.7754 Z M 32.1289 17.2363 C 23.1934 17.2363 18.6035 12.6465 18.6035 3.75977 L 18.6035 -73.9258 C 18.6035 -82.8125 23.1934 -87.4512 32.1289 -87.4512 L 109.766 -87.4512 C 118.359 -87.4512 123.291 -82.8125 123.291 -73.9258 L 123.291 3.75977 C 123.291 12.6465 118.359 17.2363 109.766 17.2363 Z M 49.7559 -9.22852 C 59.4727 -9.22852 66.6016 -15.332 66.6016 -23.6816 C 66.6016 -30.127 61.4258 -35.5957 54.6875 -36.3281 L 54.6875 -36.377 C 60.4492 -37.4512 64.8438 -42.8223 64.8438 -48.584 C 64.8438 -56.0547 58.3984 -61.3281 49.6094 -61.3281 C 42.6758 -61.3281 36.2305 -57.5684 34.8145 -51.2695 C 34.6191 -50.7324 34.5703 -50.1465 34.5703 -49.707 C 34.5703 -48.6816 34.9609 -47.9492 36.1328 -47.9492 C 36.9141 -47.9492 37.4512 -48.3887 37.6465 -49.5117 C 38.4766 -54.7363 43.1641 -58.4961 49.6094 -58.4961 C 56.8848 -58.4961 61.7676 -54.3457 61.7676 -48.3398 C 61.7676 -42.3828 56.7383 -37.5488 50 -37.5488 L 44.873 -37.5488 C 43.9941 -37.5488 43.4082 -37.1094 43.4082 -36.1816 C 43.4082 -35.3027 43.8965 -34.7656 44.873 -34.7656 L 50.4883 -34.7656 C 57.959 -34.7656 63.5742 -29.8828 63.5742 -23.6816 C 63.5742 -16.7969 58.0566 -12.0605 49.7559 -12.0605 C 43.7988 -12.0605 38.2812 -15.5273 36.6211 -20.9961 C 36.3281 -21.9727 35.8887 -22.4609 35.0098 -22.4609 C 34.082 -22.4609 33.4961 -21.7285 33.4961 -20.8984 C 33.4961 -20.2637 33.6914 -19.8242 33.8379 -19.3848 C 35.6934 -13.8184 41.8457 -9.22852 49.7559 -9.22852 Z M 93.2617 -9.22852 C 103.32 -9.22852 110.889 -15.4297 110.889 -23.9746 C 110.889 -30.0293 106.25 -35.3516 100.098 -36.5723 L 100.098 -36.8652 C 105.176 -38.3301 108.936 -42.9688 108.936 -48.0957 C 108.936 -55.8594 102.295 -61.3281 93.2617 -61.3281 C 84.2285 -61.3281 77.5391 -55.8594 77.5391 -48.0957 C 77.5391 -42.9688 81.25 -38.4766 86.377 -36.8652 L 86.377 -36.5723 C 80.2734 -35.3516 75.6348 -30.0781 75.6348 -23.9746 C 75.6348 -15.332 83.1055 -9.22852 93.2617 -9.22852 Z M 93.2617 -38.0371 C 85.6934 -38.0371 80.4688 -42.3828 80.4688 -48.2422 C 80.4688 -54.2969 85.5957 -58.5938 93.2617 -58.5938 C 100.879 -58.5938 106.006 -54.2969 106.006 -48.2422 C 106.006 -42.3828 100.781 -38.0371 93.2617 -38.0371 Z M 93.2617 -11.9629 C 84.4727 -11.9629 78.1738 -16.9434 78.1738 -23.8281 C 78.1738 -30.4688 84.4727 -35.2539 93.2617 -35.2539 C 102.002 -35.2539 108.301 -30.4199 108.301 -23.8281 C 108.301 -16.9434 102.002 -11.9629 93.2617 -11.9629 Z"/>
  </g>
  <g id="Black-M" transform="matrix(1 0 0 1 2872.19 1126)">
   <path d="M 31.9824 13.5742 L 90.4297 13.5742 C 102.686 13.5742 109.961 6.29883 109.961 -5.95703 L 109.961 -64.4043 C 109.961 -76.6602 102.686 -83.9355 90.4297 -83.9355 L 31.9824 -83.9355 C 19.7266 -83.9355 12.4512 -76.6602 12.4512 -64.4043 L 12.4512 -5.95703 C 12.4512 6.29883 19.7266 13.5742 31.9824 13.5742 Z M 34.9121 -4.73633 C 32.0801 -4.73633 30.7617 -5.81055 30.7617 -8.88672 L 30.7617 -61.4746 C 30.7617 -64.5508 32.0801 -65.6738 34.9121 -65.6738 L 87.5 -65.6738 C 90.332 -65.6738 91.6504 -64.5508 91.6504 -61.4746 L 91.6504 -8.88672 C 91.6504 -5.81055 90.332 -4.73633 87.5 -4.73633 Z M 47.168 -17.1387 C 54.9805 -17.1387 59.8145 -21.2402 59.8145 -27.832 C 59.8145 -32.1777 57.3242 -35.8398 53.6133 -36.084 L 53.6133 -36.5234 C 56.7871 -37.0605 59.1309 -40.2832 59.1309 -43.7012 C 59.1309 -49.6094 54.541 -53.3691 47.168 -53.3691 C 41.5527 -53.3691 37.7441 -49.9023 36.6211 -47.4121 C 36.1328 -46.2891 35.9375 -45.459 35.9375 -44.5801 C 35.9375 -41.8945 37.5488 -40.3809 39.8438 -40.3809 C 41.6992 -40.3809 42.9688 -41.2598 43.8477 -42.4805 C 44.873 -43.9453 45.8008 -44.5801 47.0703 -44.5801 C 48.2422 -44.5801 49.2188 -43.7012 49.2188 -42.1875 C 49.2188 -41.1621 48.6816 -39.9414 47.1191 -39.9414 C 44.1406 -39.9414 42.4805 -38.0859 42.4805 -35.3516 C 42.4805 -32.6172 43.8477 -30.7129 47.1191 -30.7129 C 48.6816 -30.7129 49.5117 -29.834 49.5117 -28.4668 C 49.5117 -27.3926 48.6816 -26.3672 47.3633 -26.3672 C 46.1914 -26.3672 44.7754 -27.002 43.7012 -28.4668 C 42.7734 -29.7852 41.4551 -30.5176 39.6484 -30.5176 C 37.793 -30.5176 35.5957 -29.1016 35.5957 -26.3184 C 35.5957 -25.5371 35.791 -24.707 36.0352 -23.877 C 37.0605 -20.4102 41.9434 -17.1387 47.168 -17.1387 Z M 75.7812 -17.1387 C 83.4961 -17.1387 88.6719 -21.2402 88.6719 -27.4414 C 88.6719 -32.1289 85.791 -34.9609 82.1777 -35.9863 L 82.1777 -36.4258 C 84.8145 -37.1094 87.3535 -39.9414 87.3535 -43.8965 C 87.3535 -49.6094 82.7637 -53.3691 75.7812 -53.3691 C 68.8477 -53.3691 64.2578 -49.6094 64.2578 -43.8965 C 64.2578 -39.9414 66.7969 -37.1094 69.4336 -36.4258 L 69.4336 -35.9863 C 65.8203 -34.9609 62.9395 -32.1289 62.9395 -27.4414 C 62.9395 -21.2402 68.1152 -17.1387 75.7812 -17.1387 Z M 75.7812 -40.2832 C 74.1699 -40.2832 73.1934 -41.3574 73.1934 -42.8711 C 73.1934 -44.3848 74.2188 -45.5566 75.7812 -45.5566 C 77.3926 -45.5566 78.418 -44.3848 78.418 -42.8711 C 78.418 -41.3574 77.4414 -40.2832 75.7812 -40.2832 Z M 75.7812 -25.0977 C 73.9746 -25.0977 72.7539 -26.5137 72.7539 -28.3203 C 72.7539 -30.127 73.9746 -31.543 75.7812 -31.543 C 77.5879 -31.543 78.8086 -30.127 78.8086 -28.3203 C 78.8086 -26.5137 77.5879 -25.0977 75.7812 -25.0977 Z"/>
  </g>
  <g id="Heavy-M" transform="matrix(1 0 0 1 2576.39 1126)">
   <path d="M 31.0059 12.6465 L 89.6484 12.6465 C 101.416 12.6465 108.154 5.9082 108.154 -5.81055 L 108.154 -64.5508 C 108.154 -76.2695 101.416 -83.0566 89.6484 -83.0566 L 31.0059 -83.0566 C 19.2383 -83.0566 12.4512 -76.3184 12.4512 -64.5508 L 12.4512 -5.81055 C 12.4512 5.9082 19.2383 12.6465 31.0059 12.6465 Z M 33.252 -3.17383 C 29.9316 -3.17383 28.2715 -4.63867 28.2715 -8.1543 L 28.2715 -62.207 C 28.2715 -65.7715 29.9316 -67.2363 33.252 -67.2363 L 87.3535 -67.2363 C 90.6738 -67.2363 92.334 -65.7715 92.334 -62.207 L 92.334 -8.1543 C 92.334 -4.63867 90.6738 -3.17383 87.3535 -3.17383 Z M 45.752 -16.4551 C 53.6133 -16.4551 58.6914 -20.752 58.6914 -27.4414 C 58.6914 -31.9824 55.957 -35.791 51.9531 -36.084 L 51.9531 -36.4746 C 55.3223 -37.0605 57.8613 -40.4785 57.8613 -44.1406 C 57.8613 -50.1465 53.125 -54.0527 45.8008 -54.0527 C 39.9414 -54.0527 35.8887 -50.5371 34.7168 -47.5098 C 34.3262 -46.4844 34.1797 -45.752 34.1797 -44.9219 C 34.1797 -42.4316 35.6934 -41.0156 37.793 -41.0156 C 39.5508 -41.0156 40.7227 -41.8457 41.5039 -43.1641 C 42.5781 -45.0684 43.7988 -46.0449 45.6543 -46.0449 C 47.5098 -46.0449 48.877 -44.7754 48.877 -42.8223 C 48.877 -41.2109 47.8516 -39.6484 45.7031 -39.6484 L 45.0684 -39.6484 C 42.4316 -39.6484 40.918 -37.9883 40.918 -35.498 C 40.918 -33.0078 42.1875 -31.2988 45.0684 -31.2988 L 45.752 -31.2988 C 48.0469 -31.2988 49.3652 -29.9805 49.3652 -27.9785 C 49.3652 -26.2695 47.998 -24.8047 45.8984 -24.8047 C 44.043 -24.8047 42.3828 -25.7812 41.2598 -27.6855 C 40.3809 -29.0527 39.209 -29.7852 37.5 -29.7852 C 35.6445 -29.7852 33.6914 -28.418 33.6914 -25.9277 C 33.6914 -25.1465 33.8867 -24.3652 34.082 -23.6328 C 35.2051 -19.9219 40.1367 -16.4551 45.752 -16.4551 Z M 75.5371 -16.4551 C 83.4473 -16.4551 88.7207 -20.7031 88.7207 -27.1484 C 88.7207 -31.8848 85.8398 -35.0098 81.7871 -36.084 L 81.7871 -36.4746 C 84.8633 -37.2559 87.4023 -40.2832 87.4023 -44.2871 C 87.4023 -50.1465 82.666 -54.0527 75.5371 -54.0527 C 68.457 -54.0527 63.7207 -50.1465 63.7207 -44.2871 C 63.7207 -40.2832 66.2109 -37.3047 69.2871 -36.4746 L 69.2871 -36.084 C 65.2832 -35.0098 62.3535 -31.8848 62.3535 -27.1484 C 62.3535 -20.7031 67.6758 -16.4551 75.5371 -16.4551 Z M 75.5371 -39.8438 C 73.3887 -39.8438 72.0215 -41.3574 72.0215 -43.3594 C 72.0215 -45.4102 73.4375 -46.875 75.5371 -46.875 C 77.6855 -46.875 79.1016 -45.4102 79.1016 -43.3594 C 79.1016 -41.3574 77.7344 -39.8438 75.5371 -39.8438 Z M 75.5859 -23.7305 C 73.0957 -23.7305 71.3867 -25.4883 71.3867 -27.8809 C 71.3867 -30.2734 73.0957 -32.0801 75.5859 -32.0801 C 78.0762 -32.0801 79.7363 -30.3223 79.7363 -27.8809 C 79.7363 -25.4883 78.0273 -23.7305 75.5859 -23.7305 Z"/>
  </g>
  <g id="Bold-M" transform="matrix(1 0 0 1 2280.68 1126)">
   <path d="M 29.8828 11.6699 L 88.7207 11.6699 C 99.9512 11.6699 106.152 5.46875 106.152 -5.66406 L 106.152 -64.6973 C 106.152 -75.8789 99.9512 -82.0312 88.7207 -82.0312 L 29.8828 -82.0312 C 18.6523 -82.0312 12.4512 -75.8789 12.4512 -64.6973 L 12.4512 -5.66406 C 12.4512 5.51758 18.6523 11.6699 29.8828 11.6699 Z M 31.3965 -1.41602 C 27.5391 -1.41602 25.5371 -3.27148 25.5371 -7.32422 L 25.5371 -63.0371 C 25.5371 -67.1387 27.5391 -68.9453 31.3965 -68.9453 L 87.207 -68.9453 C 91.0156 -68.9453 93.0664 -67.1387 93.0664 -63.0371 L 93.0664 -7.32422 C 93.0664 -3.27148 91.0156 -1.41602 87.207 -1.41602 Z M 44.0918 -15.6738 C 52.1484 -15.6738 57.4219 -20.2148 57.4219 -27.0508 C 57.4219 -31.7871 54.3945 -35.6934 50.0977 -36.084 L 50.0977 -36.4258 C 53.7109 -37.0605 56.4453 -40.7227 56.4453 -44.6777 C 56.4453 -50.7812 51.5625 -54.834 44.2383 -54.834 C 38.1348 -54.834 33.7891 -51.2207 32.6172 -47.5586 C 32.2754 -46.6797 32.1777 -46.0449 32.1777 -45.2637 C 32.1777 -43.0664 33.5449 -41.6992 35.5469 -41.6992 C 37.207 -41.6992 38.2324 -42.5293 38.8672 -43.8965 C 39.9414 -46.3867 41.6016 -47.6562 44.1406 -47.6562 C 46.6797 -47.6562 48.4863 -46.0449 48.4863 -43.5547 C 48.4863 -41.2598 46.875 -39.3555 44.1406 -39.3555 L 42.8223 -39.3555 C 40.5273 -39.3555 39.1602 -37.8418 39.1602 -35.6445 C 39.1602 -33.4473 40.3809 -31.8848 42.8223 -31.8848 L 44.2383 -31.8848 C 47.3633 -31.8848 49.2676 -30.1758 49.2676 -27.4902 C 49.2676 -25.0488 47.2168 -23.0957 44.2383 -23.0957 C 41.6992 -23.0957 39.6484 -24.3652 38.4766 -26.8066 C 37.6953 -28.2227 36.6699 -29.0039 35.0586 -29.0039 C 33.3008 -29.0039 31.5918 -27.6855 31.5918 -25.4395 C 31.5918 -24.707 31.7383 -24.0234 31.9336 -23.3398 C 33.1055 -19.3359 38.1348 -15.6738 44.0918 -15.6738 Z M 75.2441 -15.6738 C 83.3496 -15.6738 88.8184 -20.166 88.8184 -26.8066 C 88.8184 -31.6406 85.8398 -35.1074 81.3965 -36.1328 L 81.3965 -36.4746 C 84.9609 -37.4512 87.4512 -40.625 87.4512 -44.7266 C 87.4512 -50.7324 82.5195 -54.834 75.293 -54.834 C 68.0664 -54.834 63.1348 -50.7324 63.1348 -44.7266 C 63.1348 -40.625 65.5762 -37.5 69.1406 -36.4746 L 69.1406 -36.1328 C 64.6973 -35.1074 61.7676 -31.5918 61.7676 -26.8066 C 61.7676 -20.1172 67.1387 -15.6738 75.2441 -15.6738 Z M 75.293 -39.4043 C 72.5586 -39.4043 70.7031 -41.3086 70.7031 -43.8965 C 70.7031 -46.5332 72.5586 -48.3887 75.293 -48.3887 C 77.9785 -48.3887 79.834 -46.5332 79.834 -43.8965 C 79.834 -41.3086 78.0273 -39.4043 75.293 -39.4043 Z M 75.293 -22.168 C 72.0703 -22.168 69.7754 -24.3652 69.7754 -27.4414 C 69.7754 -30.4688 72.0703 -32.666 75.293 -32.666 C 78.5645 -32.666 80.8105 -30.4688 80.8105 -27.4414 C 80.8105 -24.3652 78.5156 -22.168 75.293 -22.168 Z"/>
  </g>
  <g id="Semibold-M" transform="matrix(1 0 0 1 1984.65 1126)">
   <path d="M 29.1016 10.9863 L 88.0859 10.9863 C 98.9746 10.9863 104.785 5.17578 104.785 -5.56641 L 104.785 -64.8438 C 104.785 -75.5859 98.9746 -81.3477 88.0859 -81.3477 L 29.1016 -81.3477 C 18.2617 -81.3477 12.4512 -75.5859 12.4512 -64.8438 L 12.4512 -5.56641 C 12.4512 5.22461 18.2617 10.9863 29.1016 10.9863 Z M 30.127 -0.195312 C 25.8789 -0.195312 23.6328 -2.34375 23.6328 -6.78711 L 23.6328 -63.623 C 23.6328 -68.0664 25.8789 -70.166 30.127 -70.166 L 87.1094 -70.166 C 91.2598 -70.166 93.6035 -68.0664 93.6035 -63.623 L 93.6035 -6.78711 C 93.6035 -2.34375 91.2598 -0.195312 87.1094 -0.195312 Z M 42.9688 -15.1367 C 51.0742 -15.1367 56.5918 -19.8242 56.5918 -26.7578 C 56.5918 -31.6406 53.3691 -35.6934 48.8281 -36.084 L 48.8281 -36.4258 C 52.5391 -37.0605 55.4688 -40.8691 55.4688 -45.0684 C 55.4688 -51.1719 50.4883 -55.3711 43.2129 -55.3711 C 36.9141 -55.3711 32.373 -51.709 31.1523 -47.6562 C 30.9082 -46.875 30.8105 -46.2891 30.8105 -45.5566 C 30.8105 -43.457 32.0801 -42.1875 33.9355 -42.1875 C 35.5469 -42.1875 36.4746 -42.9688 37.1094 -44.4336 C 38.1836 -47.2656 40.0879 -48.7305 43.0664 -48.7305 C 46.0938 -48.7305 48.2422 -46.875 48.2422 -44.043 C 48.2422 -41.3086 46.1914 -39.1113 43.0664 -39.1113 L 41.2598 -39.1113 C 39.209 -39.1113 37.9395 -37.793 37.9395 -35.7422 C 37.9395 -33.7891 39.1113 -32.3242 41.2598 -32.3242 L 43.2129 -32.3242 C 46.875 -32.3242 49.1699 -30.2734 49.1699 -27.1484 C 49.1699 -24.2188 46.6797 -21.9238 43.0664 -21.9238 C 40.0391 -21.9238 37.793 -23.3887 36.5723 -26.2207 C 35.8887 -27.6855 34.9121 -28.4668 33.3984 -28.4668 C 31.6406 -28.4668 30.1758 -27.1973 30.1758 -25.0977 C 30.1758 -24.3652 30.2734 -23.8281 30.4688 -23.1445 C 31.6895 -18.9453 36.7676 -15.1367 42.9688 -15.1367 Z M 75.0488 -15.1367 C 83.252 -15.1367 88.8672 -19.7754 88.8672 -26.5625 C 88.8672 -31.4453 85.8887 -35.1562 81.1523 -36.1816 L 81.1523 -36.5234 C 85.0586 -37.5488 87.4512 -40.8691 87.4512 -45.0195 C 87.4512 -51.1719 82.4219 -55.3711 75.0977 -55.3711 C 67.7734 -55.3711 62.7441 -51.1719 62.7441 -45.0195 C 62.7441 -40.8691 65.1367 -37.6465 69.043 -36.5234 L 69.043 -36.1816 C 64.3066 -35.1562 61.3281 -31.4453 61.3281 -26.5625 C 61.3281 -19.7266 66.7969 -15.1367 75.0488 -15.1367 Z M 75.0977 -39.0625 C 71.9727 -39.0625 69.8242 -41.3086 69.8242 -44.2871 C 69.8242 -47.3145 71.9727 -49.4141 75.0977 -49.4141 C 78.2227 -49.4141 80.3711 -47.3145 80.3711 -44.2871 C 80.3711 -41.3086 78.2227 -39.0625 75.0977 -39.0625 Z M 75.1465 -21.1426 C 71.3867 -21.1426 68.7012 -23.584 68.7012 -27.0996 C 68.7012 -30.5664 71.3867 -33.1055 75.1465 -33.1055 C 78.9062 -33.1055 81.543 -30.6152 81.543 -27.0996 C 81.543 -23.584 78.8574 -21.1426 75.1465 -21.1426 Z"/>
  </g>
  <g id="Medium-M" transform="matrix(1 0 0 1 1688.47 1126)">
   <path d="M 28.5156 10.4492 L 87.6465 10.4492 C 98.2422 10.4492 103.711 4.98047 103.711 -5.46875 L 103.711 -64.8926 C 103.711 -75.3418 98.2422 -80.8105 87.6465 -80.8105 L 28.5156 -80.8105 C 17.9688 -80.8105 12.4512 -75.3906 12.4512 -64.8926 L 12.4512 -5.46875 C 12.4512 4.98047 17.9688 10.4492 28.5156 10.4492 Z M 29.1504 0.732422 C 24.6582 0.732422 22.168 -1.61133 22.168 -6.34766 L 22.168 -64.0137 C 22.168 -68.75 24.6582 -71.0938 29.1504 -71.0938 L 87.0117 -71.0938 C 91.4551 -71.0938 93.9941 -68.75 93.9941 -64.0137 L 93.9941 -6.34766 C 93.9941 -1.61133 91.4551 0.732422 87.0117 0.732422 Z M 42.1387 -14.7461 C 50.293 -14.7461 55.957 -19.5801 55.957 -26.5137 C 55.957 -31.543 52.5391 -35.6445 47.8516 -36.084 L 47.8516 -36.377 C 51.709 -37.0605 54.7363 -40.9668 54.7363 -45.3613 C 54.7363 -51.5137 49.707 -55.7617 42.3828 -55.7617 C 35.9375 -55.7617 31.25 -52.0508 30.0293 -47.7051 C 29.834 -46.9727 29.7852 -46.4355 29.7852 -45.7031 C 29.7852 -43.7988 31.0059 -42.5293 32.7637 -42.5293 C 34.3262 -42.5293 35.1562 -43.3105 35.7422 -44.8242 C 36.8164 -47.9492 38.916 -49.6094 42.2363 -49.6094 C 45.6543 -49.6094 48.0469 -47.5098 48.0469 -44.4336 C 48.0469 -41.3086 45.7031 -38.9648 42.2363 -38.9648 L 40.0391 -38.9648 C 38.2324 -38.9648 37.0117 -37.6953 37.0117 -35.791 C 37.0117 -34.0332 38.1836 -32.666 40.0391 -32.666 L 42.4316 -32.666 C 46.4844 -32.666 49.0723 -30.3711 49.0723 -26.8555 C 49.0723 -23.584 46.2891 -20.9961 42.1875 -20.9961 C 38.8184 -20.9961 36.377 -22.6562 35.1074 -25.7812 C 34.4727 -27.2461 33.5449 -28.0273 32.1289 -28.0273 C 30.4199 -28.0273 29.0527 -26.8066 29.0527 -24.8535 C 29.0527 -24.1699 29.1504 -23.6328 29.3457 -22.9492 C 30.5664 -18.6523 35.6934 -14.7461 42.1387 -14.7461 Z M 74.9023 -14.7461 C 83.2031 -14.7461 88.916 -19.4824 88.916 -26.416 C 88.916 -31.3477 85.8887 -35.1562 80.957 -36.2305 L 80.957 -36.5234 C 85.1074 -37.6465 87.5 -41.0645 87.5 -45.2637 C 87.5 -51.5137 82.373 -55.7617 74.9512 -55.7617 C 67.5781 -55.7617 62.4023 -51.5137 62.4023 -45.2637 C 62.4023 -41.0645 64.7949 -37.7441 68.9941 -36.5234 L 68.9941 -36.2305 C 64.0137 -35.1562 60.9863 -31.2988 60.9863 -26.3672 C 60.9863 -19.4336 66.5527 -14.7461 74.9023 -14.7461 Z M 74.9512 -38.8672 C 71.5332 -38.8672 69.1406 -41.2598 69.1406 -44.5801 C 69.1406 -47.9004 71.5332 -50.1953 74.9512 -50.1953 C 78.3691 -50.1953 80.7617 -47.9004 80.7617 -44.5801 C 80.7617 -41.2598 78.3691 -38.8672 74.9512 -38.8672 Z M 75 -20.3125 C 70.8496 -20.3125 67.8711 -22.998 67.8711 -26.8555 C 67.8711 -30.6641 70.8496 -33.3984 75 -33.3984 C 79.1992 -33.3984 82.0801 -30.7129 82.0801 -26.8555 C 82.0801 -22.998 79.1016 -20.3125 75 -20.3125 Z"/>
  </g>
  <g id="Regular-M" transform="matrix(1 0 0 1 1392.45 1126)">
   <path d="M 27.7832 9.76562 L 87.0117 9.76562 C 97.2656 9.76562 102.344 4.6875 102.344 -5.37109 L 102.344 -64.9902 C 102.344 -75.0488 97.2656 -80.127 87.0117 -80.127 L 27.7832 -80.127 C 17.5781 -80.127 12.4512 -75.0977 12.4512 -64.9902 L 12.4512 -5.37109 C 12.4512 4.73633 17.5781 9.76562 27.7832 9.76562 Z M 27.8809 1.9043 C 22.998 1.9043 20.3125 -0.683594 20.3125 -5.76172 L 20.3125 -64.5996 C 20.3125 -69.6777 22.998 -72.2656 27.8809 -72.2656 L 86.9141 -72.2656 C 91.748 -72.2656 94.4824 -69.6777 94.4824 -64.5996 L 94.4824 -5.76172 C 94.4824 -0.683594 91.748 1.9043 86.9141 1.9043 Z M 41.0156 -14.209 C 49.3164 -14.209 55.0781 -19.1895 55.0781 -26.2207 C 55.0781 -31.3965 51.5137 -35.5957 46.582 -36.084 L 46.582 -36.377 C 50.5859 -37.0605 53.7598 -41.1133 53.7598 -45.7031 C 53.7598 -51.9531 48.6328 -56.2988 41.3574 -56.2988 C 34.7168 -56.2988 29.834 -52.5391 28.5645 -47.7539 C 28.4668 -47.1191 28.418 -46.6309 28.418 -45.9961 C 28.418 -44.2383 29.541 -43.0176 31.2012 -43.0176 C 32.666 -43.0176 33.4473 -43.7988 33.9355 -45.3613 C 35.0098 -48.7793 37.4023 -50.6836 41.2109 -50.6836 C 45.0684 -50.6836 47.7539 -48.3398 47.7539 -44.9219 C 47.7539 -41.3574 45.0195 -38.7695 41.1621 -38.7695 L 38.5254 -38.7695 C 36.9141 -38.7695 35.8398 -37.6465 35.8398 -35.8887 C 35.8398 -34.3262 36.9141 -33.1055 38.5254 -33.1055 L 41.3574 -33.1055 C 46.0449 -33.1055 48.9746 -30.4688 48.9746 -26.5137 C 48.9746 -22.7051 45.752 -19.8242 41.0645 -19.8242 C 37.207 -19.8242 34.5215 -21.7285 33.252 -25.1465 C 32.666 -26.709 31.8359 -27.4902 30.4688 -27.4902 C 28.8086 -27.4902 27.6367 -26.2695 27.6367 -24.5605 C 27.6367 -23.877 27.6855 -23.3887 27.8809 -22.7539 C 29.1504 -18.2617 34.375 -14.209 41.0156 -14.209 Z M 74.6582 -14.209 C 83.1543 -14.209 88.9648 -19.0918 88.9648 -26.1719 C 88.9648 -31.1523 85.8887 -35.2051 80.6641 -36.2793 L 80.6641 -36.5723 C 85.1562 -37.793 87.5488 -41.3086 87.5488 -45.5566 C 87.5488 -51.9043 82.2754 -56.2988 74.7559 -56.2988 C 67.2852 -56.2988 62.0117 -51.9043 62.0117 -45.5566 C 62.0117 -41.3086 64.3555 -37.8906 68.8965 -36.5723 L 68.8965 -36.2793 C 63.5742 -35.2051 60.5957 -31.1035 60.5957 -26.123 C 60.5957 -18.9941 66.2109 -14.209 74.6582 -14.209 Z M 74.7559 -38.5254 C 70.9473 -38.5254 68.2617 -41.2598 68.2617 -44.9707 C 68.2617 -48.6816 70.9473 -51.2207 74.7559 -51.2207 C 78.6133 -51.2207 81.2988 -48.6816 81.2988 -44.9707 C 81.2988 -41.2598 78.6133 -38.5254 74.7559 -38.5254 Z M 74.8047 -19.2871 C 70.166 -19.2871 66.7969 -22.2656 66.7969 -26.5625 C 66.7969 -30.7617 70.166 -33.8379 74.8047 -33.8379 C 79.541 -33.8379 82.8125 -30.8105 82.8125 -26.5625 C 82.8125 -22.2656 79.4434 -19.2871 74.8047 -19.2871 Z"/>
  </g>
  <g id="Light-M" transform="matrix(1 0 0 1 1096.47 1126)">
   <path d="M 26.8555 9.0332 L 86.4746 9.0332 C 95.9961 9.0332 100.879 4.15039 100.879 -5.22461 L 100.879 -65.0879 C 100.879 -74.5117 95.9961 -79.3945 86.4746 -79.3945 L 26.8555 -79.3945 C 17.334 -79.3945 12.4512 -74.5605 12.4512 -65.0879 L 12.4512 -5.22461 C 12.4512 4.19922 17.334 9.0332 26.8555 9.0332 Z M 26.9531 2.97852 C 21.4844 2.97852 18.5059 0.0976562 18.5059 -5.56641 L 18.5059 -64.7949 C 18.5059 -70.4102 21.4844 -73.3398 26.9531 -73.3398 L 86.3281 -73.3398 C 91.748 -73.3398 94.8242 -70.4102 94.8242 -64.7949 L 94.8242 -5.56641 C 94.8242 0.0976562 91.748 2.97852 86.3281 2.97852 Z M 40.2344 -14.502 C 48.291 -14.502 54.0039 -19.3848 54.0039 -26.2695 C 54.0039 -31.3477 50.293 -35.5957 45.2637 -36.084 L 45.2637 -36.2793 C 49.4141 -37.0117 52.6855 -41.1133 52.6855 -45.6543 C 52.6855 -51.7578 47.6074 -56.0547 40.4297 -56.0547 C 34.2285 -56.0547 29.2969 -52.5391 28.0762 -47.7051 C 27.9297 -47.168 27.9297 -46.6797 27.9297 -46.1426 C 27.9297 -44.6777 28.7598 -43.6523 30.2246 -43.6523 C 31.4453 -43.6523 32.0801 -44.2871 32.4707 -45.6543 C 33.3984 -49.2676 36.1816 -51.4648 40.332 -51.4648 C 44.7754 -51.4648 47.8027 -48.877 47.8027 -45.0684 C 47.8027 -41.1621 44.7266 -38.2324 40.3809 -38.2324 L 37.3535 -38.2324 C 36.0352 -38.2324 35.1562 -37.3535 35.1562 -35.9375 C 35.1562 -34.6191 36.0352 -33.6426 37.3535 -33.6426 L 40.6738 -33.6426 C 45.6543 -33.6426 49.0723 -30.6641 49.0723 -26.4648 C 49.0723 -22.168 45.5078 -19.043 40.2832 -19.043 C 36.1816 -19.043 33.0566 -21.1914 31.7383 -24.8535 C 31.25 -26.1719 30.5664 -26.8066 29.4434 -26.8066 C 28.0762 -26.8066 27.0996 -25.8301 27.0996 -24.4141 C 27.0996 -23.7793 27.1973 -23.3398 27.3438 -22.8027 C 28.7109 -18.4082 33.7402 -14.502 40.2344 -14.502 Z M 73.9258 -14.502 C 82.2266 -14.502 88.0371 -19.3359 88.0371 -26.2695 C 88.0371 -31.2012 84.8145 -35.2539 79.7363 -36.2793 L 79.7363 -36.5234 C 84.0332 -37.7441 86.5723 -41.2598 86.5723 -45.459 C 86.5723 -51.709 81.3477 -56.0547 73.9746 -56.0547 C 66.6504 -56.0547 61.4258 -51.709 61.4258 -45.459 C 61.4258 -41.2598 63.916 -37.8418 68.2617 -36.5234 L 68.2617 -36.2793 C 63.1836 -35.2539 59.9609 -31.1523 59.9609 -26.2695 C 59.9609 -19.2383 65.6738 -14.502 73.9258 -14.502 Z M 73.9746 -38.1836 C 69.5312 -38.1836 66.4062 -41.1133 66.4062 -45.0684 C 66.4062 -49.1211 69.5312 -51.9043 73.9746 -51.9043 C 78.4668 -51.9043 81.543 -49.1211 81.543 -45.0684 C 81.543 -41.1133 78.4668 -38.1836 73.9746 -38.1836 Z M 74.0234 -18.6523 C 68.7012 -18.6523 64.8926 -21.875 64.8926 -26.5137 C 64.8926 -31.0059 68.7012 -34.2773 74.0234 -34.2773 C 79.3945 -34.2773 83.1543 -31.0547 83.1543 -26.5137 C 83.1543 -21.875 79.2969 -18.6523 74.0234 -18.6523 Z"/>
  </g>
  <g id="Thin-M" transform="matrix(1 0 0 1 800.758 1126)">
   <path d="M 25.6348 8.05664 L 85.7422 8.05664 C 94.3848 8.05664 98.877 3.4668 98.877 -5.0293 L 98.877 -65.2344 C 98.877 -73.7305 94.3848 -78.3691 85.7422 -78.3691 L 25.6348 -78.3691 C 16.9922 -78.3691 12.4512 -73.877 12.4512 -65.2344 L 12.4512 -5.0293 C 12.4512 3.56445 16.9922 8.05664 25.6348 8.05664 Z M 25.7324 4.44336 C 19.3848 4.44336 16.0645 1.12305 16.0645 -5.22461 L 16.0645 -65.0391 C 16.0645 -71.4355 19.3848 -74.7559 25.7324 -74.7559 L 85.5957 -74.7559 C 91.748 -74.7559 95.2637 -71.4355 95.2637 -65.0391 L 95.2637 -5.22461 C 95.2637 1.12305 91.748 4.44336 85.5957 4.44336 Z M 39.2578 -14.8438 C 46.9727 -14.8438 52.5879 -19.6289 52.5879 -26.2695 C 52.5879 -31.2988 48.6816 -35.5469 43.5547 -36.084 L 43.5547 -36.1816 C 47.9004 -36.9629 51.2207 -41.1133 51.2207 -45.6055 C 51.2207 -51.5137 46.1914 -55.6641 39.2578 -55.6641 C 33.5449 -55.6641 28.5645 -52.5391 27.4414 -47.7051 C 27.2949 -47.2168 27.2461 -46.7773 27.2461 -46.3379 C 27.2461 -45.2637 27.7832 -44.5312 28.9062 -44.5312 C 29.7852 -44.5312 30.2734 -44.9707 30.5176 -46.0449 C 31.2988 -49.9023 34.5215 -52.5391 39.209 -52.5391 C 44.3848 -52.5391 47.8516 -49.5605 47.8516 -45.2637 C 47.8516 -40.918 44.2871 -37.5 39.4043 -37.5 L 35.791 -37.5 C 34.8633 -37.5 34.2773 -36.9629 34.2773 -35.9375 C 34.2773 -35.0098 34.8145 -34.375 35.791 -34.375 L 39.7461 -34.375 C 45.2148 -34.375 49.1699 -30.9082 49.1699 -26.3184 C 49.1699 -21.4355 45.2148 -18.0176 39.2578 -18.0176 C 34.8633 -18.0176 31.0547 -20.459 29.7363 -24.4629 C 29.3945 -25.4395 28.9551 -25.9277 28.0762 -25.9277 C 27.0996 -25.9277 26.416 -25.1953 26.416 -24.2676 C 26.416 -23.7305 26.5625 -23.291 26.6602 -22.9004 C 28.0762 -18.5547 32.959 -14.8438 39.2578 -14.8438 Z M 72.9492 -14.8438 C 80.957 -14.8438 86.7676 -19.6289 86.7676 -26.416 C 86.7676 -31.2012 83.3496 -35.3027 78.418 -36.2793 L 78.418 -36.5234 C 82.5195 -37.6465 85.3027 -41.2598 85.3027 -45.3125 C 85.3027 -51.416 80.127 -55.6641 72.9492 -55.6641 C 65.8203 -55.6641 60.6445 -51.416 60.6445 -45.3125 C 60.6445 -41.2598 63.3301 -37.793 67.4805 -36.5234 L 67.4805 -36.2793 C 62.5977 -35.3027 59.1309 -31.2012 59.1309 -26.416 C 59.1309 -19.5801 64.9414 -14.8438 72.9492 -14.8438 Z M 72.9492 -37.7441 C 67.6758 -37.7441 64.0137 -40.918 64.0137 -45.2148 C 64.0137 -49.6582 67.627 -52.7344 72.9492 -52.7344 C 78.3203 -52.7344 81.9336 -49.6582 81.9336 -45.2148 C 81.9336 -40.918 78.2715 -37.7441 72.9492 -37.7441 Z M 72.998 -17.7734 C 66.7969 -17.7734 62.3535 -21.3867 62.3535 -26.4648 C 62.3535 -31.2988 66.7969 -34.8633 72.998 -34.8633 C 79.1992 -34.8633 83.5938 -31.3477 83.5938 -26.4648 C 83.5938 -21.3867 79.1504 -17.7734 72.998 -17.7734 Z"/>
  </g>
  <g id="Ultralight-M" transform="matrix(1 0 0 1 504.535 1126)">
   <path d="M 25 7.56836 L 85.3516 7.56836 C 93.5059 7.56836 97.9004 3.125 97.9004 -4.98047 L 97.9004 -65.2832 C 97.9004 -73.3887 93.5059 -77.832 85.3516 -77.832 L 25 -77.832 C 16.7969 -77.832 12.4512 -73.4863 12.4512 -65.2832 L 12.4512 -4.98047 C 12.4512 3.22266 16.7969 7.56836 25 7.56836 Z M 25.0977 5.17578 C 18.3594 5.17578 14.8438 1.66016 14.8438 -5.07812 L 14.8438 -65.1855 C 14.8438 -71.9727 18.3594 -75.4395 25.0977 -75.4395 L 85.2051 -75.4395 C 91.748 -75.4395 95.5078 -71.9727 95.5078 -65.1855 L 95.5078 -5.07812 C 95.5078 1.66016 91.748 5.17578 85.2051 5.17578 Z M 38.7207 -15.0391 C 46.3379 -15.0391 51.8555 -19.7754 51.8555 -26.2695 C 51.8555 -31.25 47.8516 -35.498 42.6758 -36.084 L 42.6758 -36.1328 C 47.1191 -36.9629 50.4883 -41.1133 50.4883 -45.6055 C 50.4883 -51.416 45.5078 -55.5176 38.6719 -55.5176 C 33.2031 -55.5176 28.2227 -52.5391 27.0996 -47.6562 C 26.9531 -47.2168 26.9043 -46.7773 26.9043 -46.4355 C 26.9043 -45.5566 27.2461 -44.9707 28.2227 -44.9707 C 28.9062 -44.9707 29.3457 -45.3125 29.541 -46.2402 C 30.2246 -50.2441 33.6914 -53.0762 38.6719 -53.0762 C 44.1895 -53.0762 47.8516 -49.9512 47.8516 -45.3613 C 47.8516 -40.8203 44.043 -37.1582 38.916 -37.1582 L 35.0098 -37.1582 C 34.2773 -37.1582 33.7891 -36.7188 33.7891 -35.9375 C 33.7891 -35.2051 34.2285 -34.7168 35.0098 -34.7168 L 39.3066 -34.7168 C 44.9707 -34.7168 49.2188 -31.0547 49.2188 -26.2695 C 49.2188 -21.0938 45.0684 -17.4316 38.7207 -17.4316 C 34.1797 -17.4316 30.0293 -20.0684 28.7109 -24.2676 C 28.4668 -25.0488 28.125 -25.4883 27.3438 -25.4883 C 26.5625 -25.4883 26.0742 -24.9023 26.0742 -24.1699 C 26.0742 -23.6816 26.2207 -23.291 26.3184 -22.9004 C 27.7832 -18.6035 32.5684 -15.0391 38.7207 -15.0391 Z M 72.4609 -15.0391 C 80.2734 -15.0391 86.1328 -19.8242 86.1328 -26.4648 C 86.1328 -31.2012 82.5684 -35.3027 77.7832 -36.2793 L 77.7832 -36.5234 C 81.7871 -37.6465 84.668 -41.2598 84.668 -45.2148 C 84.668 -51.2695 79.4922 -55.5176 72.4609 -55.5176 C 65.4297 -55.5176 60.2539 -51.2695 60.2539 -45.2148 C 60.2539 -41.2598 63.0371 -37.7441 67.0898 -36.5234 L 67.0898 -36.2793 C 62.3047 -35.3027 58.7402 -31.2012 58.7402 -26.4648 C 58.7402 -19.7754 64.5508 -15.0391 72.4609 -15.0391 Z M 72.4609 -37.5 C 66.748 -37.5 62.793 -40.8203 62.793 -45.3125 C 62.793 -49.9512 66.6504 -53.1738 72.4609 -53.1738 C 78.2227 -53.1738 82.0801 -49.9512 82.0801 -45.3125 C 82.0801 -40.8203 78.125 -37.5 72.4609 -37.5 Z M 72.4609 -17.334 C 65.8203 -17.334 61.0352 -21.1426 61.0352 -26.416 C 61.0352 -31.4941 65.8203 -35.1562 72.4609 -35.1562 C 79.1016 -35.1562 83.8379 -31.4941 83.8379 -26.416 C 83.8379 -21.1426 79.1016 -17.334 72.4609 -17.334 Z"/>
  </g>
  <g id="Black-S" transform="matrix(1 0 0 1 2885.5 696)">
   <path d="M 25 2.92969 L 70.8008 2.92969 C 80.3711 2.92969 86.0352 -2.73438 86.0352 -12.3047 L 86.0352 -58.1055 C 86.0352 -67.6758 80.3711 -73.3398 70.8008 -73.3398 L 25 -73.3398 C 15.4297 -73.3398 9.76562 -67.6758 9.76562 -58.1055 L 9.76562 -12.3047 C 9.76562 -2.73438 15.4297 2.92969 25 2.92969 Z M 27.2461 -11.2305 C 25 -11.2305 23.9258 -12.1094 23.9258 -14.5508 L 23.9258 -55.8594 C 23.9258 -58.3008 25 -59.1797 27.2461 -59.1797 L 68.5547 -59.1797 C 70.8008 -59.1797 71.875 -58.3008 71.875 -55.8594 L 71.875 -14.5508 C 71.875 -12.1094 70.8008 -11.2305 68.5547 -11.2305 Z M 36.8652 -20.9961 C 42.9688 -20.9961 46.7773 -24.2188 46.7773 -29.3945 C 46.7773 -32.8125 44.8242 -35.6934 41.8945 -35.8887 L 41.8945 -36.2305 C 44.3848 -36.6699 46.2402 -39.209 46.2402 -41.8945 C 46.2402 -46.5332 42.627 -49.5117 36.8652 -49.5117 C 32.4219 -49.5117 29.4434 -46.7773 28.5645 -44.7754 C 28.1738 -43.8965 28.0273 -43.2617 28.0273 -42.5781 C 28.0273 -40.4785 29.2969 -39.3066 31.0547 -39.3066 C 32.5195 -39.3066 33.4961 -39.9902 34.1797 -40.9668 C 35.0098 -42.1387 35.7422 -42.6758 36.7676 -42.6758 C 37.7441 -42.6758 38.5254 -41.9434 38.5254 -40.7227 C 38.5254 -39.8926 38.0859 -38.916 36.8164 -38.916 L 36.7676 -38.916 C 34.4727 -38.916 33.1543 -37.4512 33.1543 -35.3516 C 33.1543 -33.2031 34.2285 -31.7383 36.7676 -31.7383 L 36.8164 -31.7383 C 38.0859 -31.7383 38.7695 -31.0059 38.7695 -29.8828 C 38.7695 -29.0039 38.0859 -28.1738 37.0117 -28.1738 C 36.0352 -28.1738 34.9121 -28.7109 34.082 -29.8828 C 33.3496 -30.9082 32.3242 -31.4941 30.9082 -31.4941 C 29.4434 -31.4941 27.7344 -30.3711 27.7344 -28.2227 C 27.7344 -27.5879 27.8809 -26.9531 28.0762 -26.3184 C 28.9062 -23.584 32.7148 -20.9961 36.8652 -20.9961 Z M 59.375 -20.9961 C 65.4297 -20.9961 69.4824 -24.2188 69.4824 -29.1016 C 69.4824 -32.7637 67.2363 -35.0098 64.3555 -35.8398 L 64.3555 -36.1816 C 66.4551 -36.7188 68.457 -38.9648 68.457 -42.041 C 68.457 -46.5332 64.8438 -49.5117 59.375 -49.5117 C 53.9062 -49.5117 50.293 -46.5332 50.293 -42.041 C 50.293 -38.9648 52.2949 -36.7188 54.3945 -36.1816 L 54.3945 -35.8398 C 51.5137 -35.0098 49.2676 -32.7637 49.2676 -29.1016 C 49.2676 -24.2188 53.3203 -20.9961 59.375 -20.9961 Z M 59.375 -39.1602 C 58.0566 -39.1602 57.2754 -40.0391 57.2754 -41.2598 C 57.2754 -42.4805 58.1055 -43.4082 59.375 -43.4082 C 60.6445 -43.4082 61.4746 -42.4805 61.4746 -41.2598 C 61.4746 -40.0391 60.6934 -39.1602 59.375 -39.1602 Z M 59.375 -27.1973 C 57.9102 -27.1973 56.9336 -28.3203 56.9336 -29.7852 C 56.9336 -31.25 57.9102 -32.373 59.375 -32.373 C 60.8398 -32.373 61.8164 -31.25 61.8164 -29.7852 C 61.8164 -28.3203 60.8398 -27.1973 59.375 -27.1973 Z"/>
  </g>
  <g id="Heavy-S" transform="matrix(1 0 0 1 2589.4 696)">
   <path d="M 24.3652 2.34375 L 70.2637 2.34375 C 79.541 2.34375 84.8145 -2.97852 84.8145 -12.207 L 84.8145 -58.2031 C 84.8145 -67.4316 79.541 -72.7539 70.2637 -72.7539 L 24.3652 -72.7539 C 15.0879 -72.7539 9.76562 -67.4316 9.76562 -58.2031 L 9.76562 -12.207 C 9.76562 -2.97852 15.0879 2.34375 24.3652 2.34375 Z M 26.0742 -10.1562 C 23.5352 -10.1562 22.2656 -11.2793 22.2656 -14.0137 L 22.2656 -56.3965 C 22.2656 -59.1309 23.5352 -60.2539 26.0742 -60.2539 L 68.5059 -60.2539 C 71.0449 -60.2539 72.3633 -59.1309 72.3633 -56.3965 L 72.3633 -14.0137 C 72.3633 -11.2793 71.0449 -10.1562 68.5059 -10.1562 Z M 35.8398 -20.459 C 42.041 -20.459 46.0449 -23.8281 46.0449 -29.1016 C 46.0449 -32.666 43.8965 -35.6445 40.7715 -35.8887 L 40.7715 -36.2305 C 43.4082 -36.6699 45.4102 -39.3555 45.4102 -42.2852 C 45.4102 -46.9727 41.6992 -50.0488 35.8887 -50.0488 C 31.25 -50.0488 28.0762 -47.2656 27.1484 -44.8242 C 26.8555 -44.043 26.709 -43.457 26.709 -42.8223 C 26.709 -40.8691 27.9297 -39.6973 29.5898 -39.6973 C 31.0547 -39.6973 31.9336 -40.3809 32.5684 -41.4551 C 33.3984 -42.9688 34.375 -43.7012 35.791 -43.7012 C 37.207 -43.7012 38.2812 -42.7246 38.2812 -41.2109 C 38.2812 -39.9414 37.4512 -38.7695 35.8398 -38.7695 L 35.3516 -38.7695 C 33.252 -38.7695 32.0312 -37.4023 32.0312 -35.4492 C 32.0312 -33.4961 33.0566 -32.0801 35.3516 -32.0801 L 35.8398 -32.0801 C 37.6465 -32.0801 38.6719 -31.1035 38.6719 -29.541 C 38.6719 -28.2227 37.5977 -27.0996 35.9375 -27.0996 C 34.5215 -27.0996 33.252 -27.832 32.373 -29.2969 C 31.6895 -30.4199 30.7129 -31.0059 29.3457 -31.0059 C 27.9297 -31.0059 26.3672 -29.9316 26.3672 -27.9297 C 26.3672 -27.2949 26.4648 -26.709 26.6602 -26.123 C 27.5391 -23.1934 31.3965 -20.459 35.8398 -20.459 Z M 59.2773 -20.459 C 65.4785 -20.459 69.6289 -23.7793 69.6289 -28.8574 C 69.6289 -32.5684 67.3828 -35.0586 64.209 -35.8887 L 64.209 -36.1816 C 66.6504 -36.8652 68.6035 -39.209 68.6035 -42.3828 C 68.6035 -46.9727 64.8438 -50.0488 59.2773 -50.0488 C 53.7109 -50.0488 49.9512 -46.9727 49.9512 -42.3828 C 49.9512 -39.209 51.9043 -36.8652 54.3457 -36.1816 L 54.3457 -35.8887 C 51.1719 -35.0586 48.9258 -32.5684 48.9258 -28.8574 C 48.9258 -23.7793 53.0273 -20.459 59.2773 -20.459 Z M 59.2773 -38.8672 C 57.6172 -38.8672 56.5918 -40.0391 56.5918 -41.6016 C 56.5918 -43.2129 57.666 -44.3848 59.2773 -44.3848 C 60.8887 -44.3848 61.9629 -43.2129 61.9629 -41.6016 C 61.9629 -40.0391 60.9375 -38.8672 59.2773 -38.8672 Z M 59.2773 -26.2207 C 57.373 -26.2207 56.0547 -27.5879 56.0547 -29.4922 C 56.0547 -31.3477 57.373 -32.7148 59.2773 -32.7148 C 61.1816 -32.7148 62.5 -31.3477 62.5 -29.4922 C 62.5 -27.5879 61.1816 -26.2207 59.2773 -26.2207 Z"/>
  </g>
  <g id="Bold-S" transform="matrix(1 0 0 1 2293.35 696)">
   <path d="M 23.6328 1.66016 L 69.6289 1.66016 C 78.6133 1.66016 83.4961 -3.22266 83.4961 -12.1094 L 83.4961 -58.3008 C 83.4961 -67.1875 78.6133 -72.0703 69.6289 -72.0703 L 23.6328 -72.0703 C 14.6973 -72.0703 9.76562 -67.1875 9.76562 -58.3008 L 9.76562 -12.1094 C 9.76562 -3.22266 14.6973 1.66016 23.6328 1.66016 Z M 24.8047 -8.93555 C 21.9238 -8.93555 20.3613 -10.3516 20.3613 -13.4277 L 20.3613 -56.9824 C 20.3613 -60.0586 21.9238 -61.4746 24.8047 -61.4746 L 68.457 -61.4746 C 71.3379 -61.4746 72.9004 -60.0586 72.9004 -56.9824 L 72.9004 -13.4277 C 72.9004 -10.3516 71.3379 -8.93555 68.457 -8.93555 Z M 34.668 -19.8242 C 41.0156 -19.8242 45.2148 -23.3887 45.2148 -28.8086 C 45.2148 -32.5195 42.8711 -35.5957 39.502 -35.8887 L 39.502 -36.1816 C 42.2852 -36.6699 44.4336 -39.5508 44.4336 -42.6758 C 44.4336 -47.4609 40.625 -50.6836 34.8633 -50.6836 C 29.9316 -50.6836 26.5625 -47.8027 25.5859 -44.9219 C 25.3418 -44.2383 25.293 -43.7012 25.293 -43.0664 C 25.293 -41.2598 26.416 -40.1855 27.9785 -40.1855 C 29.3945 -40.1855 30.1758 -40.8203 30.7617 -41.9922 C 31.5918 -43.8965 32.8125 -44.8242 34.7168 -44.8242 C 36.6211 -44.8242 37.9883 -43.6035 37.9883 -41.748 C 37.9883 -39.9902 36.7676 -38.5742 34.7168 -38.5742 L 33.7402 -38.5742 C 31.9336 -38.5742 30.7617 -37.3535 30.7617 -35.5469 C 30.7617 -33.7891 31.7871 -32.5195 33.7402 -32.5195 L 34.7656 -32.5195 C 37.1582 -32.5195 38.5742 -31.2012 38.5742 -29.1504 C 38.5742 -27.3438 37.0117 -25.8789 34.7656 -25.8789 C 32.8125 -25.8789 31.3477 -26.8066 30.4199 -28.7109 C 29.7852 -29.8828 28.9551 -30.4688 27.6367 -30.4688 C 26.1719 -30.4688 24.8047 -29.3945 24.8047 -27.5879 C 24.8047 -26.9531 24.9023 -26.4648 25.0977 -25.8789 C 25.9766 -22.7539 29.9805 -19.8242 34.668 -19.8242 Z M 59.1309 -19.8242 C 65.5273 -19.8242 69.8242 -23.3398 69.8242 -28.6133 C 69.8242 -32.4219 67.5293 -35.1074 64.0137 -35.9375 L 64.0137 -36.2305 C 66.8457 -36.9629 68.75 -39.4531 68.75 -42.7246 C 68.75 -47.4609 64.8926 -50.6836 59.1797 -50.6836 C 53.4668 -50.6836 49.6094 -47.4609 49.6094 -42.7246 C 49.6094 -39.4531 51.4648 -37.0117 54.3457 -36.2305 L 54.3457 -35.9375 C 50.7812 -35.1074 48.5352 -32.373 48.5352 -28.5645 C 48.5352 -23.291 52.7344 -19.8242 59.1309 -19.8242 Z M 59.1797 -38.5742 C 57.1777 -38.5742 55.8105 -40.0391 55.8105 -42.041 C 55.8105 -44.043 57.1777 -45.459 59.1797 -45.459 C 61.1328 -45.459 62.5 -44.043 62.5 -42.041 C 62.5 -40.0391 61.1816 -38.5742 59.1797 -38.5742 Z M 59.1797 -25.0977 C 56.7871 -25.0977 55.0781 -26.7578 55.0781 -29.1016 C 55.0781 -31.4453 56.7871 -33.1543 59.1797 -33.1543 C 61.6211 -33.1543 63.2812 -31.4453 63.2812 -29.1016 C 63.2812 -26.7578 61.5723 -25.0977 59.1797 -25.0977 Z"/>
  </g>
  <g id="Semibold-S" transform="matrix(1 0 0 1 1997.1 696)">
   <path d="M 23.0957 1.17188 L 69.1895 1.17188 C 77.9297 1.17188 82.5684 -3.36914 82.5684 -12.0117 L 82.5684 -58.3984 C 82.5684 -67.041 77.9297 -71.582 69.1895 -71.582 L 23.0957 -71.582 C 14.4043 -71.582 9.76562 -67.041 9.76562 -58.3984 L 9.76562 -12.0117 C 9.76562 -3.36914 14.4043 1.17188 23.0957 1.17188 Z M 23.877 -8.10547 C 20.752 -8.10547 19.0918 -9.7168 19.0918 -12.9883 L 19.0918 -57.4219 C 19.0918 -60.6934 20.752 -62.3047 23.877 -62.3047 L 68.4082 -62.3047 C 71.5332 -62.3047 73.2422 -60.6934 73.2422 -57.4219 L 73.2422 -12.9883 C 73.2422 -9.7168 71.5332 -8.10547 68.4082 -8.10547 Z M 33.8867 -19.3848 C 40.332 -19.3848 44.6777 -23.0957 44.6777 -28.5645 C 44.6777 -32.4219 42.1875 -35.5957 38.623 -35.8887 L 38.623 -36.1816 C 41.5527 -36.6699 43.7988 -39.6484 43.7988 -42.9688 C 43.7988 -47.8027 39.8926 -51.123 34.1309 -51.123 C 29.0527 -51.123 25.4883 -48.1445 24.5117 -44.9707 C 24.3164 -44.3359 24.2676 -43.8477 24.2676 -43.2617 C 24.2676 -41.5527 25.3418 -40.4785 26.9043 -40.4785 C 28.2227 -40.4785 29.0039 -41.1621 29.4922 -42.3828 C 30.3711 -44.5312 31.7383 -45.6055 33.9844 -45.6055 C 36.1816 -45.6055 37.7441 -44.1895 37.7441 -42.0898 C 37.7441 -40.0391 36.2793 -38.4766 33.9355 -38.4766 L 32.666 -38.4766 C 31.0059 -38.4766 29.9316 -37.3047 29.9316 -35.5957 C 29.9316 -33.9844 30.9082 -32.8125 32.666 -32.8125 L 34.0332 -32.8125 C 36.8164 -32.8125 38.4766 -31.2988 38.4766 -28.9062 C 38.4766 -26.7578 36.6211 -25.0488 33.9844 -25.0488 C 31.6895 -25.0488 30.0781 -26.123 29.1016 -28.2715 C 28.5156 -29.4922 27.6855 -30.127 26.416 -30.127 C 25 -30.127 23.7305 -29.0527 23.7305 -27.3438 C 23.7305 -26.7578 23.8281 -26.2695 23.9746 -25.7324 C 24.9512 -22.4121 28.9551 -19.3848 33.8867 -19.3848 Z M 59.0332 -19.3848 C 65.5762 -19.3848 69.9707 -22.998 69.9707 -28.418 C 69.9707 -32.2754 67.6758 -35.1562 63.8672 -35.9863 L 63.8672 -36.2305 C 66.9922 -37.0605 68.8477 -39.6484 68.8477 -42.9688 C 68.8477 -47.8027 64.8926 -51.123 59.082 -51.123 C 53.3203 -51.123 49.3164 -47.8027 49.3164 -42.9688 C 49.3164 -39.6484 51.1719 -37.1582 54.2969 -36.2305 L 54.2969 -35.9863 C 50.4883 -35.1562 48.2422 -32.2266 48.2422 -28.3691 C 48.2422 -22.998 52.5391 -19.3848 59.0332 -19.3848 Z M 59.082 -38.3789 C 56.8359 -38.3789 55.2734 -40.0391 55.2734 -42.2852 C 55.2734 -44.5801 56.8359 -46.1914 59.082 -46.1914 C 61.3281 -46.1914 62.8906 -44.5801 62.8906 -42.2852 C 62.8906 -40.0391 61.3281 -38.3789 59.082 -38.3789 Z M 59.1309 -24.3652 C 56.3965 -24.3652 54.4434 -26.2207 54.4434 -28.8574 C 54.4434 -31.4941 56.3965 -33.3984 59.1309 -33.3984 C 61.9141 -33.3984 63.7695 -31.543 63.7695 -28.8574 C 63.7695 -26.2207 61.8164 -24.3652 59.1309 -24.3652 Z"/>
  </g>
  <g id="Medium-S" transform="matrix(1 0 0 1 1700.75 696)">
   <path d="M 22.7051 0.830078 L 68.8965 0.830078 C 77.4414 0.830078 81.8359 -3.51562 81.8359 -11.9629 L 81.8359 -58.4473 C 81.8359 -66.8945 77.4414 -71.2402 68.8965 -71.2402 L 22.7051 -71.2402 C 14.209 -71.2402 9.76562 -66.8945 9.76562 -58.4473 L 9.76562 -11.9629 C 9.76562 -3.51562 14.209 0.830078 22.7051 0.830078 Z M 23.1934 -7.4707 C 19.9219 -7.4707 18.0664 -9.22852 18.0664 -12.6953 L 18.0664 -57.7148 C 18.0664 -61.1816 19.9219 -62.9395 23.1934 -62.9395 L 68.4082 -62.9395 C 71.6797 -62.9395 73.5352 -61.1816 73.5352 -57.7148 L 73.5352 -12.6953 C 73.5352 -9.22852 71.6797 -7.4707 68.4082 -7.4707 Z M 33.3008 -19.0918 C 39.7949 -19.0918 44.2383 -22.9004 44.2383 -28.418 C 44.2383 -32.373 41.6504 -35.5469 37.9883 -35.8887 L 37.9883 -36.1816 C 40.9668 -36.6699 43.3105 -39.7461 43.3105 -43.1641 C 43.3105 -48.0957 39.3555 -51.416 33.5449 -51.416 C 28.3691 -51.416 24.707 -48.4375 23.6816 -45.0195 C 23.5352 -44.4336 23.5352 -43.9941 23.5352 -43.4082 C 23.5352 -41.7969 24.5605 -40.7227 26.0254 -40.7227 C 27.3438 -40.7227 28.0762 -41.3574 28.5645 -42.627 C 29.4434 -45.0195 30.957 -46.1914 33.3984 -46.1914 C 35.8887 -46.1914 37.5977 -44.6777 37.5977 -42.3828 C 37.5977 -40.0879 35.9375 -38.3789 33.3496 -38.3789 L 31.8359 -38.3789 C 30.2734 -38.3789 29.248 -37.3047 29.248 -35.6934 C 29.248 -34.1797 30.2246 -33.0078 31.8359 -33.0078 L 33.4961 -33.0078 C 36.5723 -33.0078 38.4277 -31.3477 38.4277 -28.7109 C 38.4277 -26.2695 36.3281 -24.3652 33.3496 -24.3652 C 30.7617 -24.3652 29.0527 -25.5859 28.0762 -27.9297 C 27.5391 -29.1992 26.7578 -29.834 25.5371 -29.834 C 24.1211 -29.834 22.9492 -28.8086 22.9492 -27.1484 C 22.9492 -26.5625 22.998 -26.1719 23.1445 -25.5859 C 24.1211 -22.2168 28.1738 -19.0918 33.3008 -19.0918 Z M 58.9355 -19.0918 C 65.5762 -19.0918 70.0195 -22.7539 70.0195 -28.2715 C 70.0195 -32.1777 67.7246 -35.1562 63.7695 -35.9863 L 63.7695 -36.2793 C 67.0898 -37.1582 68.9453 -39.7949 68.9453 -43.1641 C 68.9453 -48.0469 64.8926 -51.416 59.0332 -51.416 C 53.1738 -51.416 49.1211 -48.0469 49.1211 -43.1641 C 49.1211 -39.7949 50.9277 -37.2559 54.2969 -36.2793 L 54.2969 -35.9863 C 50.293 -35.1562 48.0469 -32.1289 48.0469 -28.2227 C 48.0469 -22.7051 52.3438 -19.0918 58.9355 -19.0918 Z M 59.0332 -38.1836 C 56.5918 -38.1836 54.8828 -40.0391 54.8828 -42.5293 C 54.8828 -45.0195 56.5918 -46.7285 59.0332 -46.7285 C 61.4746 -46.7285 63.1836 -45.0195 63.1836 -42.5293 C 63.1836 -40.0391 61.4746 -38.1836 59.0332 -38.1836 Z M 59.082 -23.7793 C 56.1035 -23.7793 53.9062 -25.7812 53.9062 -28.7109 C 53.9062 -31.543 56.1035 -33.6426 59.082 -33.6426 C 62.1094 -33.6426 64.1602 -31.5918 64.1602 -28.7109 C 64.1602 -25.7812 62.0117 -23.7793 59.082 -23.7793 Z"/>
  </g>
  <g id="Regular-S" transform="matrix(1 0 0 1 1404.51 696)">
   <path d="M 22.2168 0.390625 L 68.457 0.390625 C 76.8066 0.390625 80.9082 -3.71094 80.9082 -11.9141 L 80.9082 -58.4961 C 80.9082 -66.6992 76.8066 -70.8008 68.457 -70.8008 L 22.2168 -70.8008 C 13.916 -70.8008 9.76562 -66.6992 9.76562 -58.4961 L 9.76562 -11.9141 C 9.76562 -3.71094 13.916 0.390625 22.2168 0.390625 Z M 22.3145 -6.68945 C 18.7988 -6.68945 16.7969 -8.54492 16.7969 -12.2559 L 16.7969 -58.1543 C 16.7969 -61.8164 18.7988 -63.7207 22.3145 -63.7207 L 68.3594 -63.7207 C 71.875 -63.7207 73.877 -61.8164 73.877 -58.1543 L 73.877 -12.2559 C 73.877 -8.54492 71.875 -6.68945 68.3594 -6.68945 Z M 32.5195 -18.6523 C 39.1113 -18.6523 43.7012 -22.6074 43.7012 -28.1738 C 43.7012 -32.2754 40.918 -35.5469 37.1094 -35.8887 L 37.1094 -36.1816 C 40.1855 -36.6699 42.6758 -39.8438 42.6758 -43.457 C 42.6758 -48.3887 38.623 -51.8555 32.8125 -51.8555 C 27.4414 -51.8555 23.6328 -48.7793 22.6074 -45.0684 C 22.5098 -44.5312 22.5098 -44.1406 22.5098 -43.5547 C 22.5098 -42.041 23.5352 -41.0156 24.9512 -41.0156 C 26.2207 -41.0156 26.9043 -41.6992 27.2949 -43.0176 C 28.2227 -45.6543 29.8828 -46.9727 32.666 -46.9727 C 35.4492 -46.9727 37.4023 -45.2637 37.4023 -42.7246 C 37.4023 -40.0879 35.4492 -38.2324 32.6172 -38.2324 L 30.7129 -38.2324 C 29.3457 -38.2324 28.418 -37.2559 28.418 -35.7422 C 28.418 -34.375 29.3457 -33.3008 30.7129 -33.3008 L 32.7637 -33.3008 C 36.2305 -33.3008 38.3301 -31.4453 38.3301 -28.4668 C 38.3301 -25.6836 35.9375 -23.5352 32.5684 -23.5352 C 29.6387 -23.5352 27.7832 -24.9023 26.7578 -27.4902 C 26.2695 -28.8086 25.5371 -29.4922 24.3652 -29.4922 C 22.9492 -29.4922 21.875 -28.4668 21.875 -26.9531 C 21.875 -26.3672 21.9238 -25.9766 22.0703 -25.4395 C 23.0957 -21.875 27.1973 -18.6523 32.5195 -18.6523 Z M 58.8867 -18.6523 C 65.625 -18.6523 70.166 -22.4609 70.166 -28.0762 C 70.166 -32.0312 67.8223 -35.2051 63.6719 -36.0352 L 63.6719 -36.2793 C 67.2363 -37.2559 69.043 -39.9902 69.043 -43.4082 C 69.043 -48.3887 64.8926 -51.8555 58.9844 -51.8555 C 53.0273 -51.8555 48.877 -48.3887 48.877 -43.4082 C 48.877 -39.9902 50.6348 -37.3535 54.248 -36.2793 L 54.248 -36.0352 C 50.0488 -35.2051 47.7539 -31.9824 47.7539 -28.0273 C 47.7539 -22.4121 52.1484 -18.6523 58.8867 -18.6523 Z M 58.9844 -37.9883 C 56.2988 -37.9883 54.3457 -40.0391 54.3457 -42.7734 C 54.3457 -45.5566 56.25 -47.4609 58.9844 -47.4609 C 61.6699 -47.4609 63.5742 -45.5566 63.5742 -42.7734 C 63.5742 -40.0391 61.6699 -37.9883 58.9844 -37.9883 Z M 58.9844 -23.0469 C 55.6641 -23.0469 53.2715 -25.2441 53.2715 -28.4668 C 53.2715 -31.6406 55.6641 -33.8867 58.9844 -33.8867 C 62.4023 -33.8867 64.6973 -31.6895 64.6973 -28.4668 C 64.6973 -25.2441 62.3047 -23.0469 58.9844 -23.0469 Z"/>
  </g>
  <g id="Light-S" transform="matrix(1 0 0 1 1108.46 696)">
   <path d="M 21.3867 -0.292969 L 67.9688 -0.292969 C 75.7324 -0.292969 79.5898 -4.15039 79.5898 -11.7676 L 79.5898 -58.5938 C 79.5898 -66.2109 75.7324 -70.1172 67.9688 -70.1172 L 21.3867 -70.1172 C 13.6719 -70.1172 9.76562 -66.2598 9.76562 -58.5938 L 9.76562 -11.7676 C 9.76562 -4.15039 13.6719 -0.292969 21.3867 -0.292969 Z M 21.4844 -5.71289 C 17.4316 -5.71289 15.1855 -7.86133 15.1855 -12.0605 L 15.1855 -58.3008 C 15.1855 -62.5 17.4316 -64.6973 21.4844 -64.6973 L 67.8711 -64.6973 C 71.875 -64.6973 74.1699 -62.5 74.1699 -58.3008 L 74.1699 -12.0605 C 74.1699 -7.86133 71.875 -5.71289 67.8711 -5.71289 Z M 31.8359 -18.8965 C 38.2324 -18.8965 42.7246 -22.7539 42.7246 -28.1738 C 42.7246 -32.2266 39.8438 -35.498 35.9375 -35.8887 L 35.9375 -36.084 C 39.1602 -36.6211 41.6992 -39.8438 41.6992 -43.4082 C 41.6992 -48.2422 37.6953 -51.6113 32.0312 -51.6113 C 27.002 -51.6113 23.1445 -48.7793 22.168 -45.0195 C 22.0703 -44.5801 22.0703 -44.1895 22.0703 -43.7012 C 22.0703 -42.4805 22.8516 -41.6016 24.0723 -41.6016 C 25.0977 -41.6016 25.6836 -42.1387 26.0254 -43.2617 C 26.8066 -46.0449 28.8086 -47.6562 31.9336 -47.6562 C 35.2051 -47.6562 37.4512 -45.7031 37.4512 -42.8711 C 37.4512 -39.9414 35.1562 -37.793 31.9336 -37.793 L 29.6875 -37.793 C 28.5645 -37.793 27.832 -37.0117 27.832 -35.7422 C 27.832 -34.6191 28.5645 -33.7891 29.6875 -33.7891 L 32.1289 -33.7891 C 35.9375 -33.7891 38.4277 -31.5918 38.4277 -28.3691 C 38.4277 -25.1953 35.7422 -22.8516 31.8359 -22.8516 C 28.7109 -22.8516 26.4648 -24.4141 25.4395 -27.2461 C 25 -28.3203 24.4629 -28.9062 23.4375 -28.9062 C 22.2656 -28.9062 21.4355 -28.0273 21.4355 -26.8066 C 21.4355 -26.3184 21.4844 -25.9277 21.6309 -25.4883 C 22.6562 -21.9727 26.6602 -18.8965 31.8359 -18.8965 Z M 58.2031 -18.8965 C 64.7949 -18.8965 69.3359 -22.6562 69.3359 -28.1738 C 69.3359 -32.0312 66.8457 -35.2539 62.8418 -36.0352 L 62.8418 -36.2793 C 66.2598 -37.207 68.2129 -39.9902 68.2129 -43.3105 C 68.2129 -48.1934 64.0625 -51.6113 58.252 -51.6113 C 52.4902 -51.6113 48.3398 -48.1934 48.3398 -43.3105 C 48.3398 -39.9902 50.2441 -37.3047 53.7109 -36.2793 L 53.7109 -36.0352 C 49.6582 -35.2539 47.2168 -32.0312 47.2168 -28.125 C 47.2168 -22.6074 51.6602 -18.8965 58.2031 -18.8965 Z M 58.252 -37.6953 C 55.0293 -37.6953 52.7344 -39.8926 52.7344 -42.8711 C 52.7344 -45.9473 55.0293 -48.0469 58.252 -48.0469 C 61.5234 -48.0469 63.8184 -45.9473 63.8184 -42.8711 C 63.8184 -39.8926 61.5234 -37.6953 58.252 -37.6953 Z M 58.3008 -22.4609 C 54.3945 -22.4609 51.5625 -24.9023 51.5625 -28.418 C 51.5625 -31.8359 54.3945 -34.3262 58.3008 -34.3262 C 62.2559 -34.3262 64.9902 -31.8848 64.9902 -28.418 C 64.9902 -24.9023 62.207 -22.4609 58.3008 -22.4609 Z"/>
  </g>
  <g id="Thin-S" transform="matrix(1 0 0 1 812.599 696)">
   <path d="M 20.3125 -1.12305 L 67.334 -1.12305 C 74.2676 -1.12305 77.8809 -4.78516 77.8809 -11.6211 L 77.8809 -58.6914 C 77.8809 -65.5762 74.2676 -69.2383 67.334 -69.2383 L 20.3125 -69.2383 C 13.3789 -69.2383 9.76562 -65.625 9.76562 -58.6914 L 9.76562 -11.6211 C 9.76562 -4.6875 13.3789 -1.12305 20.3125 -1.12305 Z M 20.4102 -4.44336 C 15.625 -4.44336 13.0859 -6.93359 13.0859 -11.8164 L 13.0859 -58.5449 C 13.0859 -63.3789 15.625 -65.918 20.4102 -65.918 L 67.2363 -65.918 C 71.875 -65.918 74.5605 -63.3789 74.5605 -58.5449 L 74.5605 -11.8164 C 74.5605 -6.93359 71.875 -4.44336 67.2363 -4.44336 Z M 30.957 -19.1895 C 37.0605 -19.1895 41.4551 -22.9492 41.4551 -28.2227 C 41.4551 -32.1777 38.4277 -35.498 34.4727 -35.8887 L 34.4727 -35.9863 C 37.8418 -36.6211 40.4297 -39.8438 40.4297 -43.4082 C 40.4297 -48.0469 36.4746 -51.3184 31.0059 -51.3184 C 26.416 -51.3184 22.5098 -48.7793 21.6309 -45.0195 C 21.5332 -44.5801 21.4844 -44.2383 21.4844 -43.8965 C 21.4844 -42.9688 21.9727 -42.334 22.9004 -42.334 C 23.6328 -42.334 24.0723 -42.7246 24.2676 -43.6035 C 24.9023 -46.6309 27.3926 -48.584 30.957 -48.584 C 34.8633 -48.584 37.4512 -46.3379 37.4512 -43.0664 C 37.4512 -39.7461 34.7656 -37.1582 31.0547 -37.1582 L 28.3691 -37.1582 C 27.5391 -37.1582 27.002 -36.6699 27.002 -35.791 C 27.002 -34.9609 27.5391 -34.4238 28.3691 -34.4238 L 31.3477 -34.4238 C 35.498 -34.4238 38.5254 -31.7871 38.5254 -28.2715 C 38.5254 -24.5605 35.498 -21.9238 30.957 -21.9238 C 27.5391 -21.9238 24.707 -23.7793 23.6816 -26.9043 C 23.3887 -27.6855 22.998 -28.125 22.2656 -28.125 C 21.3867 -28.125 20.8496 -27.4902 20.8496 -26.6602 C 20.8496 -26.2207 20.9473 -25.9277 21.0449 -25.5371 C 22.1191 -22.1191 25.9766 -19.1895 30.957 -19.1895 Z M 57.3242 -19.1895 C 63.6719 -19.1895 68.2129 -22.9492 68.2129 -28.2715 C 68.2129 -32.0801 65.5762 -35.2539 61.7188 -36.0352 L 61.7188 -36.2305 C 64.9414 -37.1582 67.0898 -39.9414 67.0898 -43.1641 C 67.0898 -47.9492 62.9883 -51.3184 57.373 -51.3184 C 51.7578 -51.3184 47.6562 -47.9492 47.6562 -43.1641 C 47.6562 -39.9414 49.7559 -37.2559 53.0273 -36.2305 L 53.0273 -36.0352 C 49.1699 -35.2539 46.4844 -32.0312 46.4844 -28.2715 C 46.4844 -22.9004 51.0254 -19.1895 57.3242 -19.1895 Z M 57.373 -37.2559 C 53.3691 -37.2559 50.6348 -39.6973 50.6348 -43.0176 C 50.6348 -46.4355 53.3691 -48.7793 57.373 -48.7793 C 61.377 -48.7793 64.1113 -46.4355 64.1113 -43.0176 C 64.1113 -39.6973 61.3281 -37.2559 57.373 -37.2559 Z M 57.373 -21.7285 C 52.6855 -21.7285 49.3164 -24.5117 49.3164 -28.3691 C 49.3164 -32.0801 52.6855 -34.8145 57.373 -34.8145 C 62.0605 -34.8145 65.4297 -32.1289 65.4297 -28.3691 C 65.4297 -24.5117 62.0605 -21.7285 57.373 -21.7285 Z"/>
  </g>
  <g id="Ultralight-S" transform="matrix(1 0 0 1 516.352 696)">
   <path d="M 19.7754 -1.5625 L 66.9922 -1.5625 C 73.5352 -1.5625 76.9531 -5.12695 76.9531 -11.5234 L 76.9531 -58.7891 C 76.9531 -65.2344 73.5352 -68.75 66.9922 -68.75 L 19.7754 -68.75 C 13.2324 -68.75 9.76562 -65.2832 9.76562 -58.7891 L 9.76562 -11.5234 C 9.76562 -5.0293 13.2324 -1.5625 19.7754 -1.5625 Z M 19.873 -3.75977 C 14.6484 -3.75977 11.9629 -6.44531 11.9629 -11.6699 L 11.9629 -58.6426 C 11.9629 -63.8672 14.6484 -66.5527 19.873 -66.5527 L 66.8945 -66.5527 C 71.875 -66.5527 74.7559 -63.8672 74.7559 -58.6426 L 74.7559 -11.6699 C 74.7559 -6.44531 71.875 -3.75977 66.8945 -3.75977 Z M 30.4688 -19.3359 C 36.4746 -19.3359 40.8203 -23.0469 40.8203 -28.2227 C 40.8203 -32.1289 37.6953 -35.4492 33.6914 -35.8887 L 33.6914 -35.9375 C 37.1094 -36.5723 39.7461 -39.8438 39.7461 -43.3594 C 39.7461 -47.9492 35.8398 -51.1719 30.4688 -51.1719 C 26.0742 -51.1719 22.2168 -48.7793 21.2891 -44.9707 C 21.1914 -44.6289 21.1426 -44.2871 21.1426 -43.9941 C 21.1426 -43.2617 21.4844 -42.7246 22.3145 -42.7246 C 22.9004 -42.7246 23.2422 -43.0664 23.3887 -43.7988 C 23.9746 -46.9238 26.6113 -49.0723 30.4199 -49.0723 C 34.668 -49.0723 37.5 -46.6797 37.5 -43.1641 C 37.5 -39.6484 34.5703 -36.8164 30.6152 -36.8164 L 27.6367 -36.8164 C 27.002 -36.8164 26.6113 -36.4746 26.6113 -35.791 C 26.6113 -35.1562 27.002 -34.7168 27.6367 -34.7168 L 30.9082 -34.7168 C 35.3027 -34.7168 38.5742 -31.8848 38.5742 -28.2227 C 38.5742 -24.2676 35.3516 -21.4355 30.4688 -21.4355 C 26.9531 -21.4355 23.7793 -23.4863 22.7539 -26.709 C 22.5586 -27.3926 22.2656 -27.7344 21.6309 -27.7344 C 20.9473 -27.7344 20.5078 -27.1973 20.5078 -26.5625 C 20.5078 -26.1719 20.6055 -25.8789 20.7031 -25.5859 C 21.8262 -22.2168 25.6348 -19.3359 30.4688 -19.3359 Z M 56.8848 -19.3359 C 63.0859 -19.3359 67.6758 -23.0957 67.6758 -28.3691 C 67.6758 -32.0801 64.8926 -35.3027 61.1328 -36.0352 L 61.1328 -36.2305 C 64.2578 -37.1094 66.5039 -39.9414 66.5039 -43.0664 C 66.5039 -47.8516 62.4512 -51.1719 56.8848 -51.1719 C 51.3672 -51.1719 47.3145 -47.8516 47.3145 -43.0664 C 47.3145 -39.9414 49.4629 -37.207 52.6855 -36.2305 L 52.6855 -36.0352 C 48.877 -35.3027 46.1426 -32.0801 46.1426 -28.3691 C 46.1426 -23.0469 50.6836 -19.3359 56.8848 -19.3359 Z M 56.8848 -37.0605 C 52.5391 -37.0605 49.5117 -39.5996 49.5117 -43.1152 C 49.5117 -46.6797 52.4902 -49.1699 56.8848 -49.1699 C 61.2793 -49.1699 64.2578 -46.6797 64.2578 -43.1152 C 64.2578 -39.5996 61.2305 -37.0605 56.8848 -37.0605 Z M 56.8848 -21.3379 C 51.8066 -21.3379 48.1445 -24.2676 48.1445 -28.3203 C 48.1445 -32.2266 51.8066 -35.1074 56.8848 -35.1074 C 61.9629 -35.1074 65.625 -32.2266 65.625 -28.3203 C 65.625 -24.2676 61.9629 -21.3379 56.8848 -21.3379 Z"/>
  </g>
 </g>
</svg>
