<?xml version="1.0" encoding="UTF-8"?>
<!--Generator: Apple Native CoreSVG 148-->
<!DOCTYPE svg
PUBLIC "-//W3C//DTD SVG 1.1//EN"
       "http://www.w3.org/Graphics/SVG/1.1/DTD/svg11.dtd">
<svg version="1.1" xmlns="http://www.w3.org/2000/svg" xmlns:xlink="http://www.w3.org/1999/xlink" width="3300" height="2200">
 <!--glyph: "uni100617.medium", point size: 100.000000, font version: "Version 16.0d11e1", template writer version: "8"-->
 <g id="Notes">
  <rect height="2200" id="artboard" style="fill:white;opacity:1" width="3300" x="0" y="0"/>
  <line id="" style="fill:none;stroke:black;opacity:1;stroke-width:0.5;" x1="263" x2="3036" y1="292" y2="292"/>
  <text style="stroke:none;fill:black;font-family:-apple-system,&quot;SF Pro Display&quot;,&quot;SF Pro Text&quot;,Helvetica,sans-serif;font-weight:bold;" transform="matrix(1 0 0 1 263 322)">Weight/Scale Variations</text>
  <text style="stroke:none;fill:black;font-family:-apple-system,&quot;SF Pro Display&quot;,&quot;SF Pro Text&quot;,Helvetica,sans-serif;text-anchor:middle;" transform="matrix(1 0 0 1 559.711 322)">Ultralight</text>
  <text style="stroke:none;fill:black;font-family:-apple-system,&quot;SF Pro Display&quot;,&quot;SF Pro Text&quot;,Helvetica,sans-serif;text-anchor:middle;" transform="matrix(1 0 0 1 856.422 322)">Thin</text>
  <text style="stroke:none;fill:black;font-family:-apple-system,&quot;SF Pro Display&quot;,&quot;SF Pro Text&quot;,Helvetica,sans-serif;text-anchor:middle;" transform="matrix(1 0 0 1 1153.13 322)">Light</text>
  <text style="stroke:none;fill:black;font-family:-apple-system,&quot;SF Pro Display&quot;,&quot;SF Pro Text&quot;,Helvetica,sans-serif;text-anchor:middle;" transform="matrix(1 0 0 1 1449.84 322)">Regular</text>
  <text style="stroke:none;fill:black;font-family:-apple-system,&quot;SF Pro Display&quot;,&quot;SF Pro Text&quot;,Helvetica,sans-serif;text-anchor:middle;" transform="matrix(1 0 0 1 1746.56 322)">Medium</text>
  <text style="stroke:none;fill:black;font-family:-apple-system,&quot;SF Pro Display&quot;,&quot;SF Pro Text&quot;,Helvetica,sans-serif;text-anchor:middle;" transform="matrix(1 0 0 1 2043.27 322)">Semibold</text>
  <text style="stroke:none;fill:black;font-family:-apple-system,&quot;SF Pro Display&quot;,&quot;SF Pro Text&quot;,Helvetica,sans-serif;text-anchor:middle;" transform="matrix(1 0 0 1 2339.98 322)">Bold</text>
  <text style="stroke:none;fill:black;font-family:-apple-system,&quot;SF Pro Display&quot;,&quot;SF Pro Text&quot;,Helvetica,sans-serif;text-anchor:middle;" transform="matrix(1 0 0 1 2636.69 322)">Heavy</text>
  <text style="stroke:none;fill:black;font-family:-apple-system,&quot;SF Pro Display&quot;,&quot;SF Pro Text&quot;,Helvetica,sans-serif;text-anchor:middle;" transform="matrix(1 0 0 1 2933.4 322)">Black</text>
  <line id="" style="fill:none;stroke:black;opacity:1;stroke-width:0.5;" x1="263" x2="3036" y1="1903" y2="1903"/>
  <g id="" transform="matrix(1 0 0 1 263 1933)">
   <path d="M 9.24805 0.830078 C 13.5547 0.830078 17.1387 -2.74414 17.1387 -7.05078 C 17.1387 -11.3574 13.5449 -14.9316 9.23828 -14.9316 C 4.94141 -14.9316 1.36719 -11.3574 1.36719 -7.05078 C 1.36719 -2.74414 4.95117 0.830078 9.24805 0.830078 Z M 9.24805 -0.654297 C 5.70312 -0.654297 2.87109 -3.49609 2.87109 -7.05078 C 2.87109 -10.6055 5.69336 -13.4473 9.23828 -13.4473 C 12.793 -13.4473 15.6348 -10.6055 15.6445 -7.05078 C 15.6543 -3.49609 12.8027 -0.654297 9.24805 -0.654297 Z M 9.22852 -3.62305 C 9.69727 -3.62305 9.9707 -3.93555 9.9707 -4.45312 L 9.9707 -6.31836 L 12.002 -6.31836 C 12.5 -6.31836 12.832 -6.57227 12.832 -7.04102 C 12.832 -7.51953 12.5195 -7.7832 12.002 -7.7832 L 9.9707 -7.7832 L 9.9707 -9.81445 C 9.9707 -10.332 9.69727 -10.6543 9.22852 -10.6543 C 8.75977 -10.6543 8.50586 -10.3125 8.50586 -9.81445 L 8.50586 -7.7832 L 6.49414 -7.7832 C 5.97656 -7.7832 5.64453 -7.51953 5.64453 -7.04102 C 5.64453 -6.57227 5.99609 -6.31836 6.49414 -6.31836 L 8.50586 -6.31836 L 8.50586 -4.45312 C 8.50586 -3.95508 8.75977 -3.62305 9.22852 -3.62305 Z"/>
  </g>
  <g id="" transform="matrix(1 0 0 1 281.506 1933)">
   <path d="M 11.709 2.91016 C 17.1582 2.91016 21.6699 -1.61133 21.6699 -7.05078 C 21.6699 -12.5 17.1484 -17.0117 11.6992 -17.0117 C 6.25977 -17.0117 1.74805 -12.5 1.74805 -7.05078 C 1.74805 -1.61133 6.26953 2.91016 11.709 2.91016 Z M 11.709 1.25 C 7.09961 1.25 3.41797 -2.44141 3.41797 -7.05078 C 3.41797 -11.6602 7.08984 -15.3516 11.6992 -15.3516 C 16.3086 -15.3516 20 -11.6602 20.0098 -7.05078 C 20.0195 -2.44141 16.3184 1.25 11.709 1.25 Z M 11.6797 -2.66602 C 12.207 -2.66602 12.5098 -3.01758 12.5098 -3.59375 L 12.5098 -6.23047 L 15.3223 -6.23047 C 15.8691 -6.23047 16.25 -6.51367 16.25 -7.03125 C 16.25 -7.55859 15.8887 -7.86133 15.3223 -7.86133 L 12.5098 -7.86133 L 12.5098 -10.6836 C 12.5098 -11.25 12.207 -11.6113 11.6797 -11.6113 C 11.1621 -11.6113 10.8789 -11.2305 10.8789 -10.6836 L 10.8789 -7.86133 L 8.07617 -7.86133 C 7.50977 -7.86133 7.13867 -7.55859 7.13867 -7.03125 C 7.13867 -6.51367 7.5293 -6.23047 8.07617 -6.23047 L 10.8789 -6.23047 L 10.8789 -3.59375 C 10.8789 -3.03711 11.1621 -2.66602 11.6797 -2.66602 Z"/>
  </g>
  <g id="" transform="matrix(1 0 0 1 304.924 1933)">
   <path d="M 14.9707 5.66406 C 21.9336 5.66406 27.6953 -0.0976562 27.6953 -7.05078 C 27.6953 -14.0137 21.9238 -19.7754 14.9609 -19.7754 C 8.00781 -19.7754 2.25586 -14.0137 2.25586 -7.05078 C 2.25586 -0.0976562 8.01758 5.66406 14.9707 5.66406 Z M 14.9707 3.84766 C 8.93555 3.84766 4.08203 -1.01562 4.08203 -7.05078 C 4.08203 -13.0957 8.92578 -17.9492 14.9609 -17.9492 C 21.0059 -17.9492 25.8594 -13.0957 25.8691 -7.05078 C 25.8789 -1.01562 21.0156 3.84766 14.9707 3.84766 Z M 14.9414 -1.38672 C 15.5176 -1.38672 15.8594 -1.77734 15.8594 -2.38281 L 15.8594 -6.13281 L 19.7754 -6.13281 C 20.3711 -6.13281 20.7812 -6.46484 20.7812 -7.02148 C 20.7812 -7.59766 20.3906 -7.93945 19.7754 -7.93945 L 15.8594 -7.93945 L 15.8594 -11.8652 C 15.8594 -12.4805 15.5176 -12.8711 14.9414 -12.8711 C 14.375 -12.8711 14.0527 -12.4609 14.0527 -11.8652 L 14.0527 -7.93945 L 10.1465 -7.93945 C 9.53125 -7.93945 9.13086 -7.59766 9.13086 -7.02148 C 9.13086 -6.46484 9.55078 -6.13281 10.1465 -6.13281 L 14.0527 -6.13281 L 14.0527 -2.38281 C 14.0527 -1.79688 14.375 -1.38672 14.9414 -1.38672 Z"/>
  </g>
  <text style="stroke:none;fill:black;font-family:-apple-system,&quot;SF Pro Display&quot;,&quot;SF Pro Text&quot;,Helvetica,sans-serif;font-weight:bold;" transform="matrix(1 0 0 1 263 1953)">Design Variations</text>
  <text style="stroke:none;fill:black;font-family:-apple-system,&quot;SF Pro Display&quot;,&quot;SF Pro Text&quot;,Helvetica,sans-serif;" transform="matrix(1 0 0 1 263 1971)">Symbols are supported in up to nine weights and three scales.</text>
  <text style="stroke:none;fill:black;font-family:-apple-system,&quot;SF Pro Display&quot;,&quot;SF Pro Text&quot;,Helvetica,sans-serif;" transform="matrix(1 0 0 1 263 1989)">For optimal layout with text and other symbols, vertically align</text>
  <text style="stroke:none;fill:black;font-family:-apple-system,&quot;SF Pro Display&quot;,&quot;SF Pro Text&quot;,Helvetica,sans-serif;" transform="matrix(1 0 0 1 263 2007)">symbols with the adjacent text.</text>
  <line id="" style="fill:none;stroke:#00AEEF;stroke-width:0.5;opacity:1.0;" x1="776" x2="776" y1="1919" y2="1933"/>
  <g id="" transform="matrix(1 0 0 1 776 1933)">
   <path d="M 3.31055 0.126953 C 3.82812 0.126953 4.08203 -0.0683594 4.26758 -0.605469 L 5.52734 -4.0625 L 11.2891 -4.0625 L 12.5488 -0.605469 C 12.7344 -0.0683594 12.9883 0.126953 13.4961 0.126953 C 14.0137 0.126953 14.3457 -0.185547 14.3457 -0.673828 C 14.3457 -0.839844 14.3164 -0.986328 14.2383 -1.20117 L 9.6582 -13.3887 C 9.43359 -13.9941 9.0332 -14.2871 8.4082 -14.2871 C 7.80273 -14.2871 7.39258 -13.9941 7.17773 -13.3984 L 2.59766 -1.19141 C 2.51953 -0.976562 2.49023 -0.830078 2.49023 -0.664062 C 2.49023 -0.175781 2.80273 0.126953 3.31055 0.126953 Z M 6.00586 -5.53711 L 8.37891 -12.1094 L 8.42773 -12.1094 L 10.8008 -5.53711 Z"/>
  </g>
  <line id="" style="fill:none;stroke:#00AEEF;stroke-width:0.5;opacity:1.0;" x1="792.836" x2="792.836" y1="1919" y2="1933"/>
  <text style="stroke:none;fill:black;font-family:-apple-system,&quot;SF Pro Display&quot;,&quot;SF Pro Text&quot;,Helvetica,sans-serif;font-weight:bold;" transform="matrix(1 0 0 1 776 1953)">Margins</text>
  <text style="stroke:none;fill:black;font-family:-apple-system,&quot;SF Pro Display&quot;,&quot;SF Pro Text&quot;,Helvetica,sans-serif;" transform="matrix(1 0 0 1 776 1971)">Leading and trailing margins on the left and right side of each symbol</text>
  <text style="stroke:none;fill:black;font-family:-apple-system,&quot;SF Pro Display&quot;,&quot;SF Pro Text&quot;,Helvetica,sans-serif;" transform="matrix(1 0 0 1 776 1989)">can be adjusted by modifying the x-location of the margin guidelines.</text>
  <text style="stroke:none;fill:black;font-family:-apple-system,&quot;SF Pro Display&quot;,&quot;SF Pro Text&quot;,Helvetica,sans-serif;" transform="matrix(1 0 0 1 776 2007)">Modifications are automatically applied proportionally to all</text>
  <text style="stroke:none;fill:black;font-family:-apple-system,&quot;SF Pro Display&quot;,&quot;SF Pro Text&quot;,Helvetica,sans-serif;" transform="matrix(1 0 0 1 776 2025)">scales and weights.</text>
  <g id="" transform="matrix(1 0 0 1 1289 1933)">
   <path d="M 2.8418 1.86523 L 4.54102 3.57422 C 5.40039 4.44336 6.38672 4.38477 7.31445 3.35938 L 17.4902 -7.85156 C 17.7539 -7.76367 18.0273 -7.7832 18.3398 -7.8418 L 19.4043 -8.03711 L 20.0684 -7.36328 L 20.0293 -6.80664 C 19.9902 -6.30859 20.1172 -5.92773 20.6055 -5.44922 L 21.3672 -4.70703 C 21.8457 -4.22852 22.4609 -4.19922 22.9297 -4.66797 L 25.8398 -7.58789 C 26.3086 -8.05664 26.2891 -8.65234 25.8105 -9.13086 L 25.0391 -9.89258 C 24.5605 -10.3711 24.1895 -10.5273 23.7109 -10.4883 L 23.1348 -10.4395 L 22.4902 -11.0742 L 22.7344 -12.1973 C 22.8613 -12.7637 22.7051 -13.2031 22.1191 -13.7891 L 19.9219 -15.9766 C 16.582 -19.2969 12.1484 -19.2188 9.25781 -16.3281 C 8.83789 -15.918 8.80859 -15.3418 9.04297 -14.9512 C 9.27734 -14.5898 9.73633 -14.3555 10.3809 -14.5215 C 11.8457 -14.8633 13.3691 -14.9219 14.7949 -13.9844 L 14.209 -12.5293 C 14.0137 -12.0508 13.9844 -11.6504 14.1113 -11.2891 L 3.04688 -0.898438 C 2.06055 0.0195312 1.98242 0.996094 2.8418 1.86523 Z M 10.752 -15.957 C 13.1836 -17.7344 16.4746 -17.4316 18.7012 -15.2051 L 21.1328 -12.793 C 21.3672 -12.5586 21.4062 -12.373 21.3379 -12.0312 L 21.0156 -10.5469 L 22.5195 -9.0625 L 23.5059 -9.12109 C 23.7598 -9.13086 23.8379 -9.11133 24.0332 -8.91602 L 24.6094 -8.33984 L 22.168 -5.89844 L 21.5918 -6.47461 C 21.3965 -6.66992 21.3672 -6.74805 21.377 -7.01172 L 21.4453 -7.98828 L 19.9512 -9.47266 L 18.4277 -9.21875 C 18.1055 -9.15039 17.959 -9.17969 17.7148 -9.41406 L 15.7129 -11.416 C 15.459 -11.6504 15.4297 -11.8164 15.5859 -12.1875 L 16.4648 -14.2773 C 14.9023 -15.7324 12.8711 -16.3574 10.8398 -15.7617 C 10.6836 -15.7227 10.625 -15.8496 10.752 -15.957 Z M 5.27344 2.30469 L 4.10156 1.14258 C 3.63281 0.683594 3.74023 0.341797 4.14062 -0.0195312 L 14.9512 -10.1953 L 16.416 -8.71094 L 6.42578 2.27539 C 6.07422 2.67578 5.74219 2.77344 5.27344 2.30469 Z"/>
  </g>
  <text style="stroke:none;fill:black;font-family:-apple-system,&quot;SF Pro Display&quot;,&quot;SF Pro Text&quot;,Helvetica,sans-serif;font-weight:bold;" transform="matrix(1 0 0 1 1289 1953)">Exporting</text>
  <text style="stroke:none;fill:black;font-family:-apple-system,&quot;SF Pro Display&quot;,&quot;SF Pro Text&quot;,Helvetica,sans-serif;" transform="matrix(1 0 0 1 1289 1971)">Symbols should be outlined when exporting to ensure the</text>
  <text style="stroke:none;fill:black;font-family:-apple-system,&quot;SF Pro Display&quot;,&quot;SF Pro Text&quot;,Helvetica,sans-serif;" transform="matrix(1 0 0 1 1289 1989)">design is preserved when submitting to Xcode.</text>
  <text id="template-version" style="stroke:none;fill:black;font-family:-apple-system,&quot;SF Pro Display&quot;,&quot;SF Pro Text&quot;,Helvetica,sans-serif;text-anchor:end;" transform="matrix(1 0 0 1 3036 1933)">Template v.2.0</text>
  <text style="stroke:none;fill:black;font-family:-apple-system,&quot;SF Pro Display&quot;,&quot;SF Pro Text&quot;,Helvetica,sans-serif;text-anchor:end;" transform="matrix(1 0 0 1 3036 1951)">Requires Xcode 12 or greater</text>
  <text style="stroke:none;fill:black;font-family:-apple-system,&quot;SF Pro Display&quot;,&quot;SF Pro Text&quot;,Helvetica,sans-serif;text-anchor:end;" transform="matrix(1 0 0 1 3036 1969)">Generated from 4.alt.circle</text>
  <text style="stroke:none;fill:black;font-family:-apple-system,&quot;SF Pro Display&quot;,&quot;SF Pro Text&quot;,Helvetica,sans-serif;text-anchor:end;" transform="matrix(1 0 0 1 3036 1987)">Typeset at 100 points</text>
  <text style="stroke:none;fill:black;font-family:-apple-system,&quot;SF Pro Display&quot;,&quot;SF Pro Text&quot;,Helvetica,sans-serif;" transform="matrix(1 0 0 1 263 726)">Small</text>
  <text style="stroke:none;fill:black;font-family:-apple-system,&quot;SF Pro Display&quot;,&quot;SF Pro Text&quot;,Helvetica,sans-serif;" transform="matrix(1 0 0 1 263 1156)">Medium</text>
  <text style="stroke:none;fill:black;font-family:-apple-system,&quot;SF Pro Display&quot;,&quot;SF Pro Text&quot;,Helvetica,sans-serif;" transform="matrix(1 0 0 1 263 1586)">Large</text>
 </g>
 <g id="Guides">
  <g id="H-reference" style="fill:#27AAE1;stroke:none;" transform="matrix(1 0 0 1 339 696)">
   <path d="M 0.976562 0 L 3.66211 0 L 12.9883 -24.4629 L 45.7031 -24.4629 L 55.0781 0 L 57.7148 0 L 30.6152 -70.459 L 28.125 -70.459 Z M 29.2969 -67.1387 L 29.3945 -67.1387 L 44.873 -26.709 L 13.8672 -26.709 Z"/>
  </g>
  <line id="Baseline-S" style="fill:none;stroke:#27AAE1;opacity:1;stroke-width:0.5;" x1="263" x2="3036" y1="696" y2="696"/>
  <line id="Capline-S" style="fill:none;stroke:#27AAE1;opacity:1;stroke-width:0.5;" x1="263" x2="3036" y1="625.541" y2="625.541"/>
  <g id="H-reference" style="fill:#27AAE1;stroke:none;" transform="matrix(1 0 0 1 339 1126)">
   <path d="M 0.976562 0 L 3.66211 0 L 12.9883 -24.4629 L 45.7031 -24.4629 L 55.0781 0 L 57.7148 0 L 30.6152 -70.459 L 28.125 -70.459 Z M 29.2969 -67.1387 L 29.3945 -67.1387 L 44.873 -26.709 L 13.8672 -26.709 Z"/>
  </g>
  <line id="Baseline-M" style="fill:none;stroke:#27AAE1;opacity:1;stroke-width:0.5;" x1="263" x2="3036" y1="1126" y2="1126"/>
  <line id="Capline-M" style="fill:none;stroke:#27AAE1;opacity:1;stroke-width:0.5;" x1="263" x2="3036" y1="1055.54" y2="1055.54"/>
  <g id="H-reference" style="fill:#27AAE1;stroke:none;" transform="matrix(1 0 0 1 339 1556)">
   <path d="M 0.976562 0 L 3.66211 0 L 12.9883 -24.4629 L 45.7031 -24.4629 L 55.0781 0 L 57.7148 0 L 30.6152 -70.459 L 28.125 -70.459 Z M 29.2969 -67.1387 L 29.3945 -67.1387 L 44.873 -26.709 L 13.8672 -26.709 Z"/>
  </g>
  <line id="Baseline-L" style="fill:none;stroke:#27AAE1;opacity:1;stroke-width:0.5;" x1="263" x2="3036" y1="1556" y2="1556"/>
  <line id="Capline-L" style="fill:none;stroke:#27AAE1;opacity:1;stroke-width:0.5;" x1="263" x2="3036" y1="1485.54" y2="1485.54"/>
  <line id="left-margin" style="fill:none;stroke:#00AEEF;stroke-width:0.5;opacity:1.0;" x1="1391.3" x2="1391.3" y1="1030.79" y2="1150.12"/>
  <line id="right-margin" style="fill:none;stroke:#00AEEF;stroke-width:0.5;opacity:1.0;" x1="1508.39" x2="1508.39" y1="1030.79" y2="1150.12"/>
 </g>
 <g id="Symbols">
  <g id="Black-L" transform="matrix(1 0 0 1 2854.05 1556)">
   <path d="M 79.3457 32.8613 C 116.748 32.8613 147.412 2.19727 147.412 -35.2051 C 147.412 -72.6074 116.748 -103.271 79.2969 -103.271 C 41.8945 -103.271 11.2793 -72.6074 11.2793 -35.2051 C 11.2793 2.19727 41.9434 32.8613 79.3457 32.8613 Z M 79.3457 12.4023 C 52.9785 12.4023 31.7383 -8.83789 31.7383 -35.2051 C 31.7383 -61.5723 52.9297 -82.8125 79.2969 -82.8125 C 105.664 -82.8125 126.953 -61.5723 126.953 -35.2051 C 127.002 -8.83789 105.713 12.4023 79.3457 12.4023 Z M 53.125 -25.1465 C 53.125 -19.1895 56.7871 -16.1621 62.2559 -16.1621 L 81.0547 -16.1621 L 81.0547 -14.7461 C 81.0547 -9.32617 84.082 -6.5918 88.7207 -6.5918 C 93.4082 -6.5918 96.4355 -9.32617 96.4355 -14.7461 L 96.4355 -16.1621 L 97.7539 -16.1621 C 102.734 -16.1621 105.762 -18.8477 105.762 -23.1934 C 105.762 -27.4414 102.783 -30.127 97.8027 -30.127 L 96.4355 -30.127 L 96.4355 -35.5469 C 96.4355 -40.0879 93.3594 -43.0176 88.6719 -43.0176 C 83.9844 -43.0176 81.0547 -39.9902 81.0547 -35.5469 L 81.0547 -30.127 L 72.1191 -30.127 C 75.4883 -36.8652 79.6875 -45.6055 82.5684 -51.6602 C 83.6914 -54.248 84.082 -55.5664 84.082 -57.4707 C 84.082 -61.3281 80.7617 -64.4043 76.2695 -64.4043 C 72.6074 -64.4043 70.5078 -62.7441 68.8477 -59.5215 C 64.1602 -50.6836 60.1074 -42.7246 55.7129 -33.9355 C 54.1016 -30.4688 53.125 -27.8809 53.125 -25.1465 Z"/>
  </g>
  <g id="Heavy-L" transform="matrix(1 0 0 1 2558.39 1556)">
   <path d="M 78.2715 31.7871 C 115.088 31.7871 145.312 1.5625 145.312 -35.2051 C 145.312 -72.0215 115.039 -102.246 78.2715 -102.246 C 41.4551 -102.246 11.2793 -72.0215 11.2793 -35.2051 C 11.2793 1.5625 41.5039 31.7871 78.2715 31.7871 Z M 78.2715 14.0137 C 51.0254 14.0137 29.0527 -7.95898 29.0527 -35.2051 C 29.0527 -62.5 50.9766 -84.4727 78.2715 -84.4727 C 105.518 -84.4727 127.49 -62.5 127.539 -35.2051 C 127.539 -7.95898 105.566 14.0137 78.2715 14.0137 Z M 52.7832 -24.7559 C 52.7832 -19.5801 56.0059 -16.8457 60.9375 -16.8457 L 80.957 -16.8457 L 80.957 -13.916 C 80.957 -9.08203 83.5938 -6.5918 87.7441 -6.5918 C 91.9434 -6.5918 94.5801 -9.08203 94.5801 -13.916 L 94.5801 -16.8457 L 96.7285 -16.8457 C 101.123 -16.8457 103.76 -19.2383 103.76 -23.0957 C 103.76 -26.8555 101.172 -29.1992 96.7773 -29.1992 L 94.5801 -29.1992 L 94.5801 -36.7188 C 94.5801 -40.918 91.8945 -43.5547 87.6953 -43.5547 C 83.5449 -43.5547 80.957 -40.8203 80.957 -36.7188 L 80.957 -29.1992 L 69.7266 -29.1992 C 73.584 -36.8164 78.2715 -45.9961 81.8359 -53.1738 C 82.8125 -55.3711 83.2031 -56.543 83.2031 -58.2031 C 83.2031 -61.6211 80.3223 -64.4531 76.3184 -64.4531 C 73.1445 -64.4531 71.2402 -62.9883 69.7266 -60.1074 C 64.5996 -50.6836 59.9121 -41.7969 55.0293 -32.2754 C 53.6133 -29.3457 52.7832 -27.1484 52.7832 -24.7559 Z"/>
  </g>
  <g id="Bold-L" transform="matrix(1 0 0 1 2262.88 1556)">
   <path d="M 77.0996 30.5664 C 113.232 30.5664 142.92 0.878906 142.92 -35.2539 C 142.92 -71.3379 113.184 -101.074 77.0508 -101.074 C 40.9668 -101.074 11.2793 -71.3379 11.2793 -35.2539 C 11.2793 0.878906 41.0156 30.5664 77.0996 30.5664 Z M 77.0996 15.8203 C 48.8281 15.8203 26.0742 -6.98242 26.0742 -35.2539 C 26.0742 -63.5254 48.7793 -86.2793 77.0508 -86.2793 C 105.371 -86.2793 128.125 -63.5254 128.174 -35.2539 C 128.174 -6.98242 105.371 15.8203 77.0996 15.8203 Z M 52.4414 -24.3164 C 52.4414 -19.9707 55.1758 -17.5781 59.4238 -17.5781 L 80.8105 -17.5781 L 80.8105 -12.9883 C 80.8105 -8.83789 83.0566 -6.5918 86.6211 -6.5918 C 90.2832 -6.5918 92.5293 -8.78906 92.5293 -12.9883 L 92.5293 -17.5781 L 95.6055 -17.5781 C 99.3164 -17.5781 101.611 -19.6777 101.611 -22.998 C 101.611 -26.1719 99.3652 -28.1738 95.6543 -28.1738 L 92.5293 -28.1738 L 92.5293 -38.0859 C 92.5293 -41.7969 90.2344 -44.0918 86.6211 -44.0918 C 83.0078 -44.0918 80.8105 -41.748 80.8105 -38.0859 L 80.8105 -28.1738 L 66.9922 -28.1738 C 71.4844 -36.7676 76.709 -46.4355 81.0547 -54.8828 C 81.8359 -56.5918 82.1777 -57.666 82.1777 -59.0332 C 82.1777 -62.0117 79.8828 -64.502 76.3672 -64.502 C 73.6816 -64.502 72.0703 -63.2324 70.7031 -60.7422 C 65.1367 -50.6348 59.668 -40.7227 54.1992 -30.4688 C 53.0762 -28.125 52.4414 -26.2695 52.4414 -24.3164 Z"/>
  </g>
  <g id="Semibold-L" transform="matrix(1 0 0 1 1966.97 1556)">
   <path d="M 76.2695 29.7363 C 111.914 29.7363 141.309 0.390625 141.309 -35.2539 C 141.309 -70.8984 111.865 -100.244 76.2695 -100.244 C 40.625 -100.244 11.2793 -70.8984 11.2793 -35.2539 C 11.2793 0.390625 40.6738 29.7363 76.2695 29.7363 Z M 76.2695 17.041 C 47.3145 17.041 24.0234 -6.25 24.0234 -35.2539 C 24.0234 -64.209 47.2656 -87.5488 76.2695 -87.5488 C 105.225 -87.5488 128.564 -64.209 128.613 -35.2539 C 128.662 -6.25 105.273 17.041 76.2695 17.041 Z M 52.1973 -24.0234 C 52.1973 -20.2637 54.5898 -18.1152 58.3984 -18.1152 L 80.7129 -18.1152 L 80.7129 -12.3047 C 80.7129 -8.64258 82.7148 -6.64062 85.8887 -6.64062 C 89.1113 -6.64062 91.0645 -8.59375 91.0645 -12.3047 L 91.0645 -18.1152 L 94.873 -18.1152 C 98.0957 -18.1152 100.098 -19.9707 100.098 -22.9004 C 100.098 -25.6836 98.0957 -27.4902 94.873 -27.4902 L 91.0645 -27.4902 L 91.0645 -38.9648 C 91.0645 -42.4316 89.1113 -44.4824 85.8398 -44.4824 C 82.666 -44.4824 80.7129 -42.3828 80.7129 -38.9648 L 80.7129 -27.4902 L 65.1367 -27.4902 C 70.0195 -36.7188 75.6348 -46.7773 80.5176 -56.0547 C 81.1523 -57.4707 81.4941 -58.4473 81.4941 -59.6191 C 81.4941 -62.3047 79.541 -64.502 76.3672 -64.502 C 74.0723 -64.502 72.6074 -63.4277 71.3867 -61.1816 C 65.4785 -50.6348 59.5215 -39.9902 53.6621 -29.1992 C 52.6855 -27.2949 52.1973 -25.6836 52.1973 -24.0234 Z"/>
  </g>
  <g id="Medium-L" transform="matrix(1 0 0 1 1670.87 1556)">
   <path d="M 75.6836 29.1504 C 110.938 29.1504 140.088 0 140.088 -35.2539 C 140.088 -70.5078 110.889 -99.6582 75.6348 -99.6582 C 40.3809 -99.6582 11.2793 -70.5078 11.2793 -35.2539 C 11.2793 0 40.3809 29.1504 75.6836 29.1504 Z M 75.6836 18.0176 C 46.1426 18.0176 22.4609 -5.76172 22.4609 -35.2539 C 22.4609 -64.7461 46.1426 -88.5254 75.6348 -88.5254 C 105.127 -88.5254 128.906 -64.7461 128.906 -35.2539 C 128.955 -5.76172 105.176 18.0176 75.6836 18.0176 Z M 52.002 -23.7793 C 52.002 -20.5078 54.1504 -18.5059 57.6172 -18.5059 L 80.6641 -18.5059 L 80.6641 -11.8164 C 80.6641 -8.49609 82.4219 -6.64062 85.3027 -6.64062 C 88.2324 -6.64062 89.9902 -8.44727 89.9902 -11.8164 L 89.9902 -18.5059 L 94.2871 -18.5059 C 97.168 -18.5059 98.9258 -20.2148 98.9258 -22.8516 C 98.9258 -25.3418 97.168 -26.9531 94.2871 -26.9531 L 89.9902 -26.9531 L 89.9902 -39.6973 C 89.9902 -42.9199 88.2324 -44.7754 85.2539 -44.7754 C 82.4219 -44.7754 80.6641 -42.8711 80.6641 -39.6973 L 80.6641 -26.9531 L 63.7207 -26.9531 C 68.8965 -36.7188 74.8047 -47.0215 80.0781 -56.9336 C 80.6641 -58.1055 80.957 -58.9844 80.957 -60.0586 C 80.957 -62.5 79.2969 -64.5508 76.416 -64.5508 C 74.3652 -64.5508 73.0469 -63.5742 71.9238 -61.5234 C 65.7715 -50.6348 59.4238 -39.4043 53.2715 -28.2715 C 52.3926 -26.6602 52.002 -25.2441 52.002 -23.7793 Z"/>
  </g>
  <g id="Regular-L" transform="matrix(1 0 0 1 1374.97 1556)">
   <path d="M 74.8535 28.3203 C 109.668 28.3203 138.477 -0.488281 138.477 -35.2539 C 138.477 -70.0684 109.619 -98.877 74.8047 -98.877 C 40.0391 -98.877 11.2793 -70.0684 11.2793 -35.2539 C 11.2793 -0.488281 40.0879 28.3203 74.8535 28.3203 Z M 74.8535 19.2383 C 44.6777 19.2383 20.4102 -5.07812 20.4102 -35.2539 C 20.4102 -65.4785 44.6289 -89.7461 74.8047 -89.7461 C 105.029 -89.7461 129.297 -65.4785 129.346 -35.2539 C 129.395 -5.07812 105.078 19.2383 74.8535 19.2383 Z M 51.7578 -23.4863 C 51.7578 -20.8008 53.6133 -18.9941 56.5918 -18.9941 L 80.5664 -18.9941 L 80.5664 -11.1816 C 80.5664 -8.30078 82.0801 -6.64062 84.5215 -6.64062 C 87.1094 -6.64062 88.5742 -8.25195 88.5742 -11.1816 L 88.5742 -18.9941 L 93.5059 -18.9941 C 95.9473 -18.9941 97.4609 -20.5078 97.4609 -22.8027 C 97.4609 -24.8535 95.9473 -26.2695 93.5059 -26.2695 L 88.5742 -26.2695 L 88.5742 -40.5762 C 88.5742 -43.5547 87.1094 -45.166 84.5215 -45.166 C 82.0801 -45.166 80.5664 -43.5059 80.5664 -40.5762 L 80.5664 -26.2695 L 61.9141 -26.2695 C 67.4805 -36.6699 73.7305 -47.3145 79.541 -58.0566 C 80.0293 -58.9355 80.2734 -59.7656 80.2734 -60.5957 C 80.2734 -62.7441 78.9551 -64.5996 76.416 -64.5996 C 74.7559 -64.5996 73.584 -63.7207 72.5586 -61.9629 C 66.1133 -50.6348 59.2773 -38.6719 52.6855 -27.002 C 52.0508 -25.8301 51.7578 -24.6582 51.7578 -23.4863 Z"/>
  </g>
  <g id="Light-L" transform="matrix(1 0 0 1 1079.18 1556)">
   <path d="M 73.9258 27.3926 C 108.301 27.3926 136.621 -0.927734 136.621 -35.2539 C 136.621 -69.6289 108.252 -97.9492 73.9258 -97.9492 C 39.5508 -97.9492 11.2793 -69.6289 11.2793 -35.2539 C 11.2793 -0.927734 39.5996 27.3926 73.9258 27.3926 Z M 73.9258 20.5078 C 43.1152 20.5078 18.2129 -4.44336 18.2129 -35.2539 C 18.2129 -66.1133 43.0664 -91.0156 73.9258 -91.0156 C 104.736 -91.0156 129.688 -66.1133 129.736 -35.2539 C 129.736 -4.44336 104.785 20.5078 73.9258 20.5078 Z M 52.1484 -23.3887 C 52.1484 -21.2891 53.6133 -19.9219 56.0059 -19.9219 L 80.4199 -19.9219 L 80.4199 -10.2539 C 80.4199 -8.00781 81.5918 -6.73828 83.5449 -6.73828 C 85.5469 -6.73828 86.7188 -8.00781 86.7188 -10.2539 L 86.7188 -19.9219 L 92.5781 -19.9219 C 94.4824 -19.9219 95.7031 -21.0938 95.7031 -22.9004 C 95.7031 -24.6094 94.4824 -25.7324 92.5781 -25.7324 L 86.7188 -25.7324 L 86.7188 -41.0645 C 86.7188 -43.3105 85.5469 -44.5801 83.5449 -44.5801 C 81.5918 -44.5801 80.4199 -43.3105 80.4199 -41.0645 L 80.4199 -25.7324 L 60.1562 -25.7324 C 65.5273 -35.9375 72.9492 -48.1445 78.7109 -58.8867 C 79.0527 -59.5215 79.248 -60.1562 79.248 -60.8398 C 79.248 -62.5 78.2715 -63.916 76.2207 -63.916 C 74.9023 -63.916 73.9746 -63.2324 73.2422 -61.9141 C 66.9922 -51.123 59.2773 -37.6953 52.9785 -26.3184 C 52.3438 -25.2441 52.1484 -24.3164 52.1484 -23.3887 Z"/>
  </g>
  <g id="Thin-L" transform="matrix(1 0 0 1 783.693 1556)">
   <path d="M 72.7051 26.1719 C 106.494 26.1719 134.18 -1.51367 134.18 -35.2539 C 134.18 -69.043 106.494 -96.7285 72.7051 -96.7285 C 38.9648 -96.7285 11.2793 -69.043 11.2793 -35.2539 C 11.2793 -1.51367 38.9648 26.1719 72.7051 26.1719 Z M 72.7051 22.168 C 41.0156 22.168 15.2832 -3.56445 15.2832 -35.2539 C 15.2832 -66.9922 41.0156 -92.7246 72.7051 -92.7246 C 104.395 -92.7246 130.176 -66.9922 130.176 -35.2539 C 130.176 -3.56445 104.443 22.168 72.7051 22.168 Z M 52.6855 -23.291 C 52.6855 -21.9727 53.6133 -21.1426 55.2246 -21.1426 L 80.2246 -21.1426 L 80.2246 -9.0332 C 80.2246 -7.61719 81.0059 -6.83594 82.2266 -6.83594 C 83.4473 -6.83594 84.2285 -7.61719 84.2285 -9.0332 L 84.2285 -21.1426 L 91.3574 -21.1426 C 92.5781 -21.1426 93.4082 -21.875 93.4082 -23.0957 C 93.4082 -24.2676 92.5781 -25 91.3574 -25 L 84.2285 -25 L 84.2285 -41.6504 C 84.2285 -43.0664 83.4473 -43.8477 82.2266 -43.8477 C 81.0059 -43.8477 80.2246 -43.0664 80.2246 -41.6504 L 80.2246 -25 L 57.8613 -25 C 62.9883 -34.9609 71.875 -49.2676 77.5879 -59.9121 C 77.7832 -60.3027 77.8809 -60.6934 77.8809 -61.1816 C 77.8809 -62.1582 77.2949 -63.0859 75.9277 -63.0859 C 75.0488 -63.0859 74.5605 -62.5977 74.0723 -61.8164 C 68.2129 -51.8066 59.2773 -36.4258 53.3203 -25.3906 C 52.7832 -24.4629 52.6855 -23.877 52.6855 -23.291 Z"/>
  </g>
  <g id="Ultralight-L" transform="matrix(1 0 0 1 487.616 1556)">
   <path d="M 72.1191 25.5371 C 105.566 25.5371 132.91 -1.80664 132.91 -35.2539 C 132.91 -68.75 105.566 -96.0938 72.1191 -96.0938 C 38.623 -96.0938 11.2793 -68.75 11.2793 -35.2539 C 11.2793 -1.80664 38.623 25.5371 72.1191 25.5371 Z M 72.1191 23.0469 C 39.9414 23.0469 13.7695 -3.125 13.7695 -35.2539 C 13.7695 -67.4316 39.9414 -93.6035 72.1191 -93.6035 C 104.248 -93.6035 130.42 -67.4316 130.42 -35.2539 C 130.42 -3.125 104.248 23.0469 72.1191 23.0469 Z M 52.9785 -23.2422 C 52.9785 -22.3145 53.6621 -21.7285 54.834 -21.7285 L 80.127 -21.7285 L 80.127 -8.44727 C 80.127 -7.42188 80.6641 -6.93359 81.543 -6.93359 C 82.4219 -6.93359 82.959 -7.42188 82.959 -8.44727 L 82.959 -21.7285 L 90.7227 -21.7285 C 91.6016 -21.7285 92.2363 -22.2656 92.2363 -23.1445 C 92.2363 -24.0723 91.6016 -24.6582 90.7227 -24.6582 L 82.959 -24.6582 L 82.959 -41.9434 C 82.959 -42.9199 82.4219 -43.457 81.543 -43.457 C 80.6641 -43.457 80.127 -42.9199 80.127 -41.9434 L 80.127 -24.6582 L 56.6895 -24.6582 C 61.7188 -34.4727 71.2891 -49.8535 77.002 -60.4492 C 77.1484 -60.6934 77.1973 -60.9863 77.1973 -61.3281 C 77.1973 -61.9629 76.8066 -62.6465 75.7812 -62.6465 C 75.1465 -62.6465 74.8535 -62.3047 74.5117 -61.7676 C 68.7988 -52.1484 59.2773 -35.7422 53.4668 -24.9023 C 53.0273 -24.0723 52.9785 -23.6816 52.9785 -23.2422 Z"/>
  </g>
  <g id="Black-M" transform="matrix(1 0 0 1 2870.97 1126)">
   <path d="M 62.4023 18.457 C 91.9922 18.457 116.113 -5.61523 116.113 -35.2051 C 116.113 -64.7949 91.9922 -88.8672 62.4023 -88.8672 C 32.8125 -88.8672 8.74023 -64.7949 8.74023 -35.2051 C 8.74023 -5.61523 32.8125 18.457 62.4023 18.457 Z M 62.4023 0.195312 C 42.8711 0.195312 27.002 -15.625 27.002 -35.2051 C 27.002 -54.7363 42.8711 -70.6055 62.4023 -70.6055 C 81.9824 -70.6055 97.8027 -54.7363 97.8027 -35.2051 C 97.8027 -15.625 81.9824 0.195312 62.4023 0.195312 Z M 41.7969 -27.8809 C 41.7969 -22.6074 45.0195 -20.0195 49.7559 -20.0195 L 62.8906 -20.0195 L 62.8906 -19.9707 C 62.8906 -15.332 65.5273 -13.0859 69.5801 -13.0859 C 73.584 -13.0859 76.2207 -15.332 76.2207 -19.9707 L 76.2207 -20.0195 L 76.6113 -20.0195 C 81.0059 -20.0195 83.6426 -22.3633 83.6426 -26.123 C 83.6426 -29.8828 81.0547 -32.2266 76.6602 -32.2266 L 76.2207 -32.2266 L 76.2207 -34.082 C 76.2207 -37.793 73.5352 -40.2832 69.4824 -40.2832 C 65.4785 -40.2832 62.8906 -37.6953 62.8906 -34.082 L 62.8906 -32.2266 L 58.2031 -32.2266 C 60.0098 -36.1816 63.1836 -43.1641 64.502 -46.3379 C 65.4785 -48.8281 65.8203 -49.8535 65.8203 -51.5625 C 65.8203 -54.834 62.793 -57.4219 58.9355 -57.4219 C 55.6641 -57.4219 53.9062 -55.957 52.5391 -53.2715 C 49.6094 -47.5098 46.8262 -41.7969 44.2871 -36.0352 C 42.7734 -32.666 41.7969 -30.4199 41.7969 -27.8809 Z"/>
  </g>
  <g id="Heavy-M" transform="matrix(1 0 0 1 2575.19 1126)">
   <path d="M 61.5234 17.5293 C 90.5273 17.5293 114.258 -6.20117 114.258 -35.2051 C 114.258 -64.2578 90.5273 -87.9883 61.4746 -87.9883 C 32.4707 -87.9883 8.74023 -64.2578 8.74023 -35.2051 C 8.74023 -6.20117 32.4707 17.5293 61.5234 17.5293 Z M 61.5234 1.61133 C 41.1133 1.61133 24.6582 -14.8438 24.6582 -35.2051 C 24.6582 -55.6152 41.1133 -72.0703 61.4746 -72.0703 C 81.8848 -72.0703 98.3398 -55.6152 98.3398 -35.2051 C 98.3398 -14.8438 81.8848 1.61133 61.5234 1.61133 Z M 41.3574 -27.4902 C 41.3574 -22.8516 44.1895 -20.5078 48.4375 -20.5078 L 62.793 -20.5078 L 62.793 -19.2871 C 62.793 -15.1367 65.1367 -13.0859 68.75 -13.0859 C 72.3633 -13.0859 74.707 -15.1367 74.707 -19.2871 L 74.707 -20.5078 L 75.7324 -20.5078 C 79.6387 -20.5078 81.9824 -22.6074 81.9824 -25.9766 C 81.9824 -29.2969 79.6875 -31.3477 75.7812 -31.3477 L 74.707 -31.3477 L 74.707 -35.3027 C 74.707 -38.7207 72.3145 -40.9668 68.7012 -40.9668 C 65.0879 -40.9668 62.793 -38.6719 62.793 -35.3027 L 62.793 -31.3477 L 56.0547 -31.3477 C 58.4473 -36.3281 61.8652 -43.4082 63.916 -47.8027 C 64.7949 -49.8535 65.0879 -50.8301 65.0879 -52.3438 C 65.0879 -55.2734 62.5 -57.6172 59.0332 -57.6172 C 56.2012 -57.6172 54.5898 -56.3477 53.3203 -53.9062 C 49.8535 -47.3633 46.6309 -41.0156 43.457 -34.4238 C 42.1387 -31.6406 41.3574 -29.6387 41.3574 -27.4902 Z"/>
  </g>
  <g id="Bold-M" transform="matrix(1 0 0 1 2279.5 1126)">
   <path d="M 60.498 16.5039 C 88.8672 16.5039 112.207 -6.83594 112.207 -35.2051 C 112.207 -63.623 88.8672 -86.9629 60.4492 -86.9629 C 32.0312 -86.9629 8.74023 -63.623 8.74023 -35.2051 C 8.74023 -6.83594 32.0801 16.5039 60.498 16.5039 Z M 60.498 3.22266 C 39.1602 3.22266 22.0703 -13.916 22.0703 -35.2051 C 22.0703 -56.543 39.1602 -73.6816 60.4492 -73.6816 C 81.7383 -73.6816 98.9258 -56.543 98.9258 -35.2051 C 98.9746 -13.916 81.7871 3.22266 60.498 3.22266 Z M 40.8203 -27.0508 C 40.8203 -23.1445 43.2617 -21.0938 46.9727 -21.0938 L 62.6953 -21.0938 L 62.6953 -18.5547 C 62.6953 -14.9414 64.6973 -13.0371 67.8223 -13.0371 C 70.9961 -13.0371 72.998 -14.8926 72.998 -18.5547 L 72.998 -21.0938 L 74.8047 -21.0938 C 78.0762 -21.0938 80.0781 -22.9004 80.0781 -25.8301 C 80.0781 -28.6133 78.125 -30.4199 74.8535 -30.4199 L 72.998 -30.4199 L 72.998 -36.6211 C 72.998 -39.7949 70.9473 -41.7969 67.7734 -41.7969 C 64.6484 -41.7969 62.6953 -39.7461 62.6953 -36.6211 L 62.6953 -30.4199 L 53.5645 -30.4199 C 56.6895 -36.4746 60.4004 -43.6523 63.3301 -49.4141 C 64.0137 -51.0254 64.3066 -51.9531 64.3066 -53.1738 C 64.3066 -55.7617 62.207 -57.8613 59.1309 -57.8613 C 56.7871 -57.8613 55.3223 -56.7871 54.1992 -54.6387 C 50.1465 -47.168 46.3867 -40.1367 42.4805 -32.666 C 41.4551 -30.4688 40.8203 -28.8086 40.8203 -27.0508 Z"/>
  </g>
  <g id="Semibold-M" transform="matrix(1 0 0 1 1983.5 1126)">
   <path d="M 59.7656 15.8203 C 87.7441 15.8203 110.791 -7.27539 110.791 -35.2539 C 110.791 -63.2324 87.6953 -86.2793 59.7656 -86.2793 C 31.7871 -86.2793 8.74023 -63.2324 8.74023 -35.2539 C 8.74023 -7.27539 31.7871 15.8203 59.7656 15.8203 Z M 59.7656 4.3457 C 37.8418 4.3457 20.2637 -13.3301 20.2637 -35.2539 C 20.2637 -57.1777 37.793 -74.8047 59.7656 -74.8047 C 81.6895 -74.8047 99.3164 -57.1777 99.3652 -35.2539 C 99.3652 -13.3301 81.6895 4.3457 59.7656 4.3457 Z M 40.4785 -26.709 C 40.4785 -23.3887 42.627 -21.4844 45.9473 -21.4844 L 62.6465 -21.4844 L 62.6465 -18.0176 C 62.6465 -14.7949 64.4043 -13.0371 67.1875 -13.0371 C 70.0684 -13.0371 71.7773 -14.7461 71.7773 -18.0176 L 71.7773 -21.4844 L 74.1211 -21.4844 C 77.002 -21.4844 78.7598 -23.0957 78.7598 -25.6836 C 78.7598 -28.1738 77.0508 -29.7363 74.1699 -29.7363 L 71.7773 -29.7363 L 71.7773 -37.5488 C 71.7773 -40.5273 70.0195 -42.334 67.1875 -42.334 C 64.3555 -42.334 62.6465 -40.4785 62.6465 -37.5488 L 62.6465 -29.7363 L 51.9043 -29.7363 C 55.4688 -36.5723 59.375 -43.7988 62.8906 -50.5371 C 63.4766 -51.8555 63.7695 -52.6855 63.7695 -53.7598 C 63.7695 -56.1035 61.9629 -58.0566 59.2285 -58.0566 C 57.1777 -58.0566 55.8594 -57.0801 54.834 -55.127 C 50.3418 -47.0703 46.2402 -39.5508 41.8457 -31.3965 C 40.9668 -29.6875 40.4785 -28.2227 40.4785 -26.709 Z"/>
  </g>
  <g id="Medium-M" transform="matrix(1 0 0 1 1687.3 1126)">
   <path d="M 59.2285 15.2344 C 86.9141 15.2344 109.766 -7.61719 109.766 -35.2539 C 109.766 -62.8906 86.8652 -85.7422 59.1797 -85.7422 C 31.543 -85.7422 8.74023 -62.8906 8.74023 -35.2539 C 8.74023 -7.61719 31.5918 15.2344 59.2285 15.2344 Z M 59.2285 5.17578 C 36.8164 5.17578 18.8965 -12.8418 18.8965 -35.2539 C 18.8965 -57.666 36.8164 -75.6348 59.1797 -75.6348 C 81.5918 -75.6348 99.6094 -57.666 99.6582 -35.2539 C 99.707 -12.8418 81.6406 5.17578 59.2285 5.17578 Z M 40.2344 -26.4648 C 40.2344 -23.5352 42.1387 -21.7773 45.166 -21.7773 L 62.5977 -21.7773 L 62.5977 -17.627 C 62.5977 -14.6973 64.1602 -13.0371 66.6992 -13.0371 C 69.3359 -13.0371 70.8984 -14.6484 70.8984 -17.627 L 70.8984 -21.7773 L 73.6328 -21.7773 C 76.2207 -21.7773 77.7832 -23.291 77.7832 -25.6348 C 77.7832 -27.7832 76.2207 -29.248 73.6328 -29.248 L 70.8984 -29.248 L 70.8984 -38.2324 C 70.8984 -41.0645 69.3359 -42.7246 66.6992 -42.7246 C 64.1602 -42.7246 62.5977 -41.0156 62.5977 -38.2324 L 62.5977 -29.248 L 50.6348 -29.248 C 54.5898 -36.6699 58.6426 -43.9453 62.5488 -51.3672 C 63.0859 -52.4902 63.3301 -53.2715 63.3301 -54.1992 C 63.3301 -56.3477 61.8164 -58.1543 59.2773 -58.1543 C 57.4707 -58.1543 56.25 -57.3242 55.2734 -55.4688 C 50.4883 -46.9727 46.0938 -39.0625 41.3574 -30.4688 C 40.625 -29.0527 40.2344 -27.7832 40.2344 -26.4648 Z"/>
  </g>
  <g id="Regular-M" transform="matrix(1 0 0 1 1391.3 1126)">
   <path d="M 58.5449 14.5508 C 85.791 14.5508 108.35 -8.05664 108.35 -35.2539 C 108.35 -62.5 85.7422 -85.0586 58.4961 -85.0586 C 31.2988 -85.0586 8.74023 -62.5 8.74023 -35.2539 C 8.74023 -8.05664 31.3477 14.5508 58.5449 14.5508 Z M 58.5449 6.25 C 35.498 6.25 17.0898 -12.207 17.0898 -35.2539 C 17.0898 -58.3008 35.4492 -76.7578 58.4961 -76.7578 C 81.543 -76.7578 100 -58.3008 100.049 -35.2539 C 100.098 -12.207 81.5918 6.25 58.5449 6.25 Z M 39.8926 -26.1719 C 39.8926 -23.7305 41.5039 -22.168 44.1895 -22.168 L 62.5488 -22.168 L 62.5488 -17.1387 C 62.5488 -14.5508 63.8672 -13.0371 66.0645 -13.0371 C 68.4082 -13.0371 69.7266 -14.502 69.7266 -17.1387 L 69.7266 -22.168 L 72.998 -22.168 C 75.1465 -22.168 76.5137 -23.4863 76.5137 -25.4883 C 76.5137 -27.3438 75.1465 -28.5645 72.998 -28.5645 L 69.7266 -28.5645 L 69.7266 -39.1602 C 69.7266 -41.7969 68.4082 -43.2617 66.0645 -43.2617 C 63.8672 -43.2617 62.5488 -41.748 62.5488 -39.1602 L 62.5488 -28.5645 L 48.9746 -28.5645 C 53.3691 -36.7676 57.6172 -44.0918 62.1582 -52.4902 C 62.5488 -53.2715 62.793 -54.0039 62.793 -54.7363 C 62.793 -56.6895 61.6211 -58.3496 59.375 -58.3496 C 57.8613 -58.3496 56.7871 -57.6172 55.8594 -55.957 C 50.7324 -46.875 45.9473 -38.4766 40.7227 -29.248 C 40.1367 -28.2715 39.8926 -27.2461 39.8926 -26.1719 Z"/>
  </g>
  <g id="Light-M" transform="matrix(1 0 0 1 1095.42 1126)">
   <path d="M 57.7148 13.7207 C 84.5215 13.7207 106.689 -8.44727 106.689 -35.2539 C 106.689 -62.1094 84.5215 -84.2285 57.666 -84.2285 C 30.8594 -84.2285 8.74023 -62.1094 8.74023 -35.2539 C 8.74023 -8.44727 30.9082 13.7207 57.7148 13.7207 Z M 57.7148 7.37305 C 34.082 7.37305 15.0879 -11.6699 15.0879 -35.2539 C 15.0879 -58.8867 34.082 -77.9297 57.666 -77.9297 C 81.2988 -77.9297 100.342 -58.8867 100.391 -35.2539 C 100.391 -11.6699 81.3477 7.37305 57.7148 7.37305 Z M 40.2344 -26.123 C 40.2344 -24.2188 41.5527 -22.9492 43.6523 -22.9492 L 62.4023 -22.9492 L 62.4023 -16.3086 C 62.4023 -14.2578 63.4277 -13.0859 65.1855 -13.0859 C 66.9922 -13.0859 68.0664 -14.2578 68.0664 -16.3086 L 68.0664 -22.9492 L 72.168 -22.9492 C 73.877 -22.9492 74.9512 -24.0234 74.9512 -25.6348 C 74.9512 -27.0996 73.877 -28.0762 72.168 -28.0762 L 68.0664 -28.0762 L 68.0664 -39.5508 C 68.0664 -41.6016 66.9922 -42.7246 65.1855 -42.7246 C 63.4277 -42.7246 62.4023 -41.5527 62.4023 -39.5508 L 62.4023 -28.0762 L 47.4121 -28.0762 C 51.6602 -36.1328 56.8848 -44.873 61.377 -53.1738 C 61.6699 -53.8086 61.8652 -54.3945 61.8652 -54.9805 C 61.8652 -56.4453 60.9863 -57.7637 59.1797 -57.7637 C 58.0078 -57.7637 57.1777 -57.1777 56.4453 -55.9082 C 51.5137 -47.3145 45.9473 -37.5977 40.918 -28.6133 C 40.4297 -27.7344 40.2344 -26.9043 40.2344 -26.123 Z"/>
  </g>
  <g id="Thin-M" transform="matrix(1 0 0 1 799.806 1126)">
   <path d="M 56.6406 12.5977 C 82.9102 12.5977 104.492 -8.98438 104.492 -35.2539 C 104.492 -61.5723 82.9102 -83.1543 56.5918 -83.1543 C 30.3223 -83.1543 8.74023 -61.5723 8.74023 -35.2539 C 8.74023 -8.98438 30.3223 12.5977 56.6406 12.5977 Z M 56.6406 8.88672 C 32.2266 8.88672 12.4512 -10.8887 12.4512 -35.2539 C 12.4512 -59.6191 32.2266 -79.4434 56.5918 -79.4434 C 81.0059 -79.4434 100.781 -59.6191 100.781 -35.2539 C 100.781 -10.8887 81.0059 8.88672 56.6406 8.88672 Z M 40.7227 -26.0254 C 40.7227 -24.8047 41.5527 -24.0234 42.9688 -24.0234 L 62.207 -24.0234 L 62.207 -15.1855 C 62.207 -13.916 62.8906 -13.2324 64.0137 -13.2324 C 65.1367 -13.2324 65.8203 -13.916 65.8203 -15.1855 L 65.8203 -24.0234 L 71.0449 -24.0234 C 72.168 -24.0234 72.9004 -24.707 72.9004 -25.7812 C 72.9004 -26.8066 72.168 -27.4414 71.0449 -27.4414 L 65.8203 -27.4414 L 65.8203 -40.0391 C 65.8203 -41.3574 65.1367 -42.041 64.0137 -42.041 C 62.8906 -42.041 62.207 -41.3574 62.207 -40.0391 L 62.207 -27.4414 L 45.3613 -27.4414 C 49.3652 -35.2539 55.9082 -45.8984 60.3516 -54.1504 C 60.5469 -54.4922 60.6445 -54.834 60.6445 -55.2734 C 60.6445 -56.1523 60.1074 -56.9824 58.8867 -56.9824 C 58.1543 -56.9824 57.666 -56.5918 57.2266 -55.8594 C 52.5879 -47.9492 45.9473 -36.4258 41.2598 -27.7832 C 40.8203 -27.0508 40.7227 -26.5137 40.7227 -26.0254 Z"/>
  </g>
  <g id="Ultralight-M" transform="matrix(1 0 0 1 503.656 1126)">
   <path d="M 56.0547 12.0605 C 82.0801 12.0605 103.369 -9.22852 103.369 -35.2539 C 103.369 -61.2793 82.0801 -82.5684 56.0547 -82.5684 C 30.0293 -82.5684 8.74023 -61.2793 8.74023 -35.2539 C 8.74023 -9.22852 30.0293 12.0605 56.0547 12.0605 Z M 56.0547 9.66797 C 31.2988 9.66797 11.1328 -10.498 11.1328 -35.2539 C 11.1328 -60.0586 31.2988 -80.1758 56.0547 -80.1758 C 80.8594 -80.1758 100.977 -60.0586 100.977 -35.2539 C 100.977 -10.498 80.8594 9.66797 56.0547 9.66797 Z M 40.9668 -25.9766 C 40.9668 -25.1465 41.5527 -24.6094 42.5781 -24.6094 L 62.1094 -24.6094 L 62.1094 -14.6484 C 62.1094 -13.7207 62.5977 -13.2812 63.3789 -13.2812 C 64.1602 -13.2812 64.6484 -13.7207 64.6484 -14.6484 L 64.6484 -24.6094 L 70.5078 -24.6094 C 71.2891 -24.6094 71.8262 -25.0488 71.8262 -25.8789 C 71.8262 -26.6602 71.2891 -27.1484 70.5078 -27.1484 L 64.6484 -27.1484 L 64.6484 -40.332 C 64.6484 -41.2109 64.1602 -41.6992 63.3789 -41.6992 C 62.5977 -41.6992 62.1094 -41.2109 62.1094 -40.332 L 62.1094 -27.1484 L 44.2871 -27.1484 C 48.1934 -34.7656 55.4199 -46.3867 59.8633 -54.6387 C 59.9609 -54.8828 60.0098 -55.0781 60.0098 -55.4199 C 60.0098 -56.0059 59.668 -56.5918 58.7402 -56.5918 C 58.2031 -56.5918 57.9102 -56.2988 57.6172 -55.8105 C 53.125 -48.2422 45.9473 -35.8398 41.4062 -27.3926 C 41.0156 -26.709 40.9668 -26.3184 40.9668 -25.9766 Z"/>
  </g>
  <g id="Black-S" transform="matrix(1 0 0 1 2884.57 696)">
   <path d="M 48.8281 6.78711 C 71.9727 6.78711 90.8203 -12.0605 90.8203 -35.2051 C 90.8203 -58.3496 71.9727 -77.1973 48.8281 -77.1973 C 25.6836 -77.1973 6.83594 -58.3496 6.83594 -35.2051 C 6.83594 -12.0605 25.6836 6.78711 48.8281 6.78711 Z M 48.8281 -7.37305 C 33.4473 -7.37305 20.9961 -19.8242 20.9961 -35.2051 C 20.9961 -50.5859 33.4473 -63.0371 48.8281 -63.0371 C 64.209 -63.0371 76.6602 -50.5859 76.6602 -35.2051 C 76.6602 -19.8242 64.209 -7.37305 48.8281 -7.37305 Z M 32.7148 -29.4434 C 32.7148 -25.3418 35.2051 -23.3398 38.8672 -23.3398 L 49.2676 -23.3398 L 49.2676 -23.2422 C 49.2676 -19.6289 51.3184 -17.8711 54.4434 -17.8711 C 57.5684 -17.8711 59.6191 -19.6289 59.6191 -23.2422 L 59.6191 -23.3398 L 59.9609 -23.3398 C 63.3789 -23.3398 65.4297 -25.1465 65.4297 -28.0762 C 65.4297 -31.0059 63.4277 -32.8125 60.0098 -32.8125 L 59.6191 -32.8125 L 59.6191 -34.4238 C 59.6191 -37.3047 57.5195 -39.2578 54.3945 -39.2578 C 51.2695 -39.2578 49.2676 -37.2559 49.2676 -34.4238 L 49.2676 -32.8125 L 45.459 -32.8125 C 46.9238 -35.9863 49.4141 -41.4551 50.4883 -44.043 C 51.2695 -45.9473 51.5137 -46.7773 51.5137 -48.0957 C 51.5137 -50.6348 49.1699 -52.6367 46.1914 -52.6367 C 43.6523 -52.6367 42.2852 -51.5137 41.2109 -49.4141 C 38.8672 -44.8242 36.6699 -40.332 34.6191 -35.7422 C 33.4473 -33.1543 32.7148 -31.3965 32.7148 -29.4434 Z"/>
  </g>
  <g id="Heavy-S" transform="matrix(1 0 0 1 2588.47 696)">
   <path d="M 48.2422 6.15234 C 70.9961 6.15234 89.5996 -12.4512 89.5996 -35.2051 C 89.5996 -57.959 70.9961 -76.6113 48.1934 -76.6113 C 25.4395 -76.6113 6.83594 -57.959 6.83594 -35.2051 C 6.83594 -12.4512 25.4395 6.15234 48.2422 6.15234 Z M 48.2422 -6.39648 C 32.2754 -6.39648 19.4336 -19.2871 19.4336 -35.2051 C 19.4336 -51.1719 32.2754 -64.0137 48.1934 -64.0137 C 64.1602 -64.0137 77.002 -51.1719 77.0508 -35.2051 C 77.0508 -19.2871 64.1602 -6.39648 48.2422 -6.39648 Z M 32.3242 -29.1504 C 32.3242 -25.4883 34.5703 -23.6328 37.9395 -23.6328 L 49.2188 -23.6328 L 49.2188 -22.8027 C 49.2188 -19.5312 51.0742 -17.8711 53.9062 -17.8711 C 56.7871 -17.8711 58.6426 -19.4824 58.6426 -22.8027 L 58.6426 -23.6328 L 59.4238 -23.6328 C 62.4512 -23.6328 64.3066 -25.293 64.3066 -27.9297 C 64.3066 -30.5664 62.5 -32.2266 59.4238 -32.2266 L 58.6426 -32.2266 L 58.6426 -35.3027 C 58.6426 -38.0371 56.7383 -39.8438 53.8574 -39.8438 C 51.0254 -39.8438 49.2188 -37.9883 49.2188 -35.3027 L 49.2188 -32.2266 L 43.9453 -32.2266 C 45.8984 -36.1816 48.4863 -41.5527 50.1465 -45.0684 C 50.8301 -46.6797 51.0742 -47.4609 51.0742 -48.6328 C 51.0742 -50.9766 49.0234 -52.8809 46.2891 -52.8809 C 44.043 -52.8809 42.7734 -51.8555 41.748 -49.9023 C 38.9648 -44.6777 36.5234 -39.8438 33.9355 -34.5703 C 32.959 -32.4219 32.3242 -30.8594 32.3242 -29.1504 Z"/>
  </g>
  <g id="Bold-S" transform="matrix(1 0 0 1 2292.44 696)">
   <path d="M 47.5586 5.46875 C 69.873 5.46875 88.2324 -12.8906 88.2324 -35.2539 C 88.2324 -57.5684 69.873 -75.9277 47.5098 -75.9277 C 25.1953 -75.9277 6.83594 -57.5684 6.83594 -35.2539 C 6.83594 -12.8906 25.1953 5.46875 47.5586 5.46875 Z M 47.5586 -5.32227 C 30.957 -5.32227 17.6758 -18.6523 17.6758 -35.2539 C 17.6758 -51.8066 30.957 -65.1367 47.5098 -65.1367 C 64.1113 -65.1367 77.4414 -51.8066 77.4414 -35.2539 C 77.4414 -18.6523 64.1113 -5.32227 47.5586 -5.32227 Z M 31.8848 -28.8086 C 31.8848 -25.6836 33.8867 -23.9746 36.8652 -23.9746 L 49.1699 -23.9746 L 49.1699 -22.3633 C 49.1699 -19.3848 50.7812 -17.8223 53.3203 -17.8223 C 55.9082 -17.8223 57.5195 -19.3848 57.5195 -22.3633 L 57.5195 -23.9746 L 58.7891 -23.9746 C 61.4258 -23.9746 63.0859 -25.4395 63.0859 -27.832 C 63.0859 -30.0781 61.4746 -31.543 58.7891 -31.543 L 57.5195 -31.543 L 57.5195 -36.2793 C 57.5195 -38.8672 55.9082 -40.5273 53.3203 -40.5273 C 50.7324 -40.5273 49.1699 -38.8184 49.1699 -36.2793 L 49.1699 -31.543 L 42.2852 -31.543 C 44.7754 -36.377 47.4609 -41.6504 49.7559 -46.2402 C 50.3418 -47.5098 50.5859 -48.291 50.5859 -49.2676 C 50.5859 -51.416 48.877 -53.125 46.3867 -53.125 C 44.4824 -53.125 43.3105 -52.2461 42.334 -50.4395 C 39.1113 -44.4824 36.3281 -39.2578 33.2031 -33.3008 C 32.373 -31.5918 31.8848 -30.2734 31.8848 -28.8086 Z"/>
  </g>
  <g id="Semibold-S" transform="matrix(1 0 0 1 1996.2 696)">
   <path d="M 47.0703 4.98047 C 69.0918 4.98047 87.3047 -13.1836 87.3047 -35.2539 C 87.3047 -57.2754 69.0918 -75.4883 47.0215 -75.4883 C 25 -75.4883 6.83594 -57.2754 6.83594 -35.2539 C 6.83594 -13.1836 25.0488 4.98047 47.0703 4.98047 Z M 47.0703 -4.58984 C 30.0781 -4.58984 16.4551 -18.2129 16.4551 -35.2539 C 16.4551 -52.2461 30.0293 -65.8691 47.0215 -65.8691 C 64.0625 -65.8691 77.6855 -52.2461 77.7344 -35.2539 C 77.7344 -18.2129 64.0625 -4.58984 47.0703 -4.58984 Z M 31.5918 -28.5645 C 31.5918 -25.7812 33.3984 -24.1699 36.1328 -24.1699 L 49.1211 -24.1699 L 49.1211 -22.0215 C 49.1211 -19.2871 50.5859 -17.8223 52.9297 -17.8223 C 55.3223 -17.8223 56.7871 -19.2871 56.7871 -22.0215 L 56.7871 -24.1699 L 58.3496 -24.1699 C 60.7422 -24.1699 62.207 -25.5859 62.207 -27.7344 C 62.207 -29.7363 60.7422 -31.0547 58.3496 -31.0547 L 56.7871 -31.0547 L 56.7871 -36.9141 C 56.7871 -39.4531 55.3223 -40.9668 52.8809 -40.9668 C 50.5371 -40.9668 49.1211 -39.4043 49.1211 -36.9141 L 49.1211 -31.0547 L 41.1133 -31.0547 C 43.9941 -36.5234 46.7285 -41.6992 49.5117 -47.0215 C 50 -48.0957 50.2441 -48.8281 50.2441 -49.707 C 50.2441 -51.6602 48.7793 -53.3203 46.4844 -53.3203 C 44.7754 -53.3203 43.6523 -52.4902 42.7734 -50.8301 C 39.209 -44.3359 36.1816 -38.8672 32.666 -32.4219 C 31.9824 -31.0547 31.5918 -29.834 31.5918 -28.5645 Z"/>
  </g>
  <g id="Medium-S" transform="matrix(1 0 0 1 1699.83 696)">
   <path d="M 46.7285 4.63867 C 68.5547 4.63867 86.6211 -13.4277 86.6211 -35.2539 C 86.6211 -57.0801 68.5059 -75.1465 46.6797 -75.1465 C 24.8535 -75.1465 6.83594 -57.0801 6.83594 -35.2539 C 6.83594 -13.4277 24.9023 4.63867 46.7285 4.63867 Z M 46.7285 -4.00391 C 29.3945 -4.00391 15.5273 -17.9199 15.5273 -35.2539 C 15.5273 -52.5879 29.3457 -66.4551 46.6797 -66.4551 C 64.0137 -66.4551 77.8809 -52.5879 77.9297 -35.2539 C 77.9785 -17.9199 64.0625 -4.00391 46.7285 -4.00391 Z M 31.3477 -28.418 C 31.3477 -25.8789 33.0078 -24.3652 35.5957 -24.3652 L 49.0723 -24.3652 L 49.0723 -21.7773 C 49.0723 -19.2383 50.4395 -17.8223 52.5879 -17.8223 C 54.8828 -17.8223 56.2012 -19.1895 56.2012 -21.7773 L 56.2012 -24.3652 L 58.0078 -24.3652 C 60.2051 -24.3652 61.5723 -25.6348 61.5723 -27.6367 C 61.5723 -29.4922 60.2051 -30.7129 58.0078 -30.7129 L 56.2012 -30.7129 L 56.2012 -37.4512 C 56.2012 -39.8926 54.834 -41.3086 52.5879 -41.3086 C 50.4395 -41.3086 49.0723 -39.8438 49.0723 -37.4512 L 49.0723 -30.7129 L 40.2344 -30.7129 C 43.4082 -36.6211 46.1914 -41.748 49.3164 -47.6074 C 49.7559 -48.5352 50 -49.2188 50 -50 C 50 -51.9043 48.6816 -53.4668 46.5332 -53.4668 C 44.9707 -53.4668 43.9453 -52.6855 43.0664 -51.123 C 39.2578 -44.2383 36.1328 -38.5742 32.2754 -31.7383 C 31.6895 -30.6152 31.3477 -29.541 31.3477 -28.418 Z"/>
  </g>
  <g id="Regular-S" transform="matrix(1 0 0 1 1403.58 696)">
   <path d="M 46.2402 4.15039 C 67.7734 4.15039 85.6934 -13.7207 85.6934 -35.2539 C 85.6934 -56.7871 67.7246 -74.6582 46.1914 -74.6582 C 24.707 -74.6582 6.83594 -56.7871 6.83594 -35.2539 C 6.83594 -13.7207 24.7559 4.15039 46.2402 4.15039 Z M 46.2402 -3.27148 C 28.5156 -3.27148 14.3555 -17.4805 14.3555 -35.2539 C 14.3555 -53.0273 28.4668 -67.2363 46.1914 -67.2363 C 63.9648 -67.2363 78.1738 -53.0273 78.2227 -35.2539 C 78.2715 -17.4805 64.0137 -3.27148 46.2402 -3.27148 Z M 31.0547 -28.1738 C 31.0547 -25.9766 32.5195 -24.6094 34.8633 -24.6094 L 49.0723 -24.6094 L 49.0723 -21.4355 C 49.0723 -19.1406 50.2441 -17.7734 52.1973 -17.7734 C 54.2969 -17.7734 55.4688 -19.0918 55.4688 -21.4355 L 55.4688 -24.6094 L 57.5684 -24.6094 C 59.5215 -24.6094 60.6934 -25.7812 60.6934 -27.5391 C 60.6934 -29.1504 59.5215 -30.2246 57.5684 -30.2246 L 55.4688 -30.2246 L 55.4688 -38.0859 C 55.4688 -40.4297 54.2969 -41.748 52.1973 -41.748 C 50.2441 -41.748 49.0723 -40.3809 49.0723 -38.0859 L 49.0723 -30.2246 L 39.1113 -30.2246 C 42.6758 -36.7676 45.5078 -41.7969 49.0723 -48.3887 C 49.4141 -49.1211 49.6582 -49.7559 49.6582 -50.4395 C 49.6582 -52.1484 48.584 -53.6133 46.582 -53.6133 C 45.2637 -53.6133 44.2871 -52.9785 43.5059 -51.5137 C 39.3555 -44.0918 35.9863 -38.1836 31.7871 -30.8594 C 31.2988 -30.0293 31.0547 -29.1016 31.0547 -28.1738 Z"/>
  </g>
  <g id="Light-S" transform="matrix(1 0 0 1 1107.6 696)">
   <path d="M 45.5078 3.41797 C 66.6992 3.41797 84.2285 -14.0625 84.2285 -35.2539 C 84.2285 -56.4453 66.6504 -73.9258 45.5078 -73.9258 C 24.3164 -73.9258 6.83594 -56.4453 6.83594 -35.2539 C 6.83594 -14.0625 24.3652 3.41797 45.5078 3.41797 Z M 45.5078 -2.29492 C 27.2461 -2.29492 12.5977 -16.9922 12.5977 -35.2539 C 12.5977 -53.5156 27.1973 -68.2129 45.5078 -68.2129 C 63.7695 -68.2129 78.4668 -53.5156 78.5156 -35.2539 C 78.5156 -16.9922 63.8184 -2.29492 45.5078 -2.29492 Z M 31.3965 -28.125 C 31.3965 -26.416 32.5195 -25.293 34.4238 -25.293 L 48.9258 -25.293 L 48.9258 -20.7031 C 48.9258 -18.8965 49.8535 -17.8711 51.416 -17.8711 C 53.0273 -17.8711 53.9551 -18.8965 53.9551 -20.7031 L 53.9551 -25.293 L 56.8359 -25.293 C 58.3496 -25.293 59.3262 -26.2207 59.3262 -27.6367 C 59.3262 -28.9551 58.3496 -29.834 56.8359 -29.834 L 53.9551 -29.834 L 53.9551 -38.4277 C 53.9551 -40.2832 53.0273 -41.3086 51.416 -41.3086 C 49.8535 -41.3086 48.9258 -40.2344 48.9258 -38.4277 L 48.9258 -29.834 L 37.7441 -29.834 C 41.1133 -36.1816 44.8242 -42.4805 48.3887 -49.0234 C 48.6816 -49.5605 48.8281 -50.0977 48.8281 -50.6348 C 48.8281 -51.9531 47.998 -53.125 46.4355 -53.125 C 45.3613 -53.125 44.6289 -52.5879 43.9941 -51.4648 C 40.0391 -44.5312 35.9863 -37.4023 31.9824 -30.3223 C 31.543 -29.5898 31.3965 -28.8574 31.3965 -28.125 Z"/>
  </g>
  <g id="Thin-S" transform="matrix(1 0 0 1 811.867 696)">
   <path d="M 44.5801 2.49023 C 65.2832 2.49023 82.2754 -14.5508 82.2754 -35.2539 C 82.2754 -55.957 65.2344 -72.998 44.5312 -72.998 C 23.8281 -72.998 6.83594 -55.957 6.83594 -35.2539 C 6.83594 -14.5508 23.877 2.49023 44.5801 2.49023 Z M 44.5801 -0.927734 C 25.5859 -0.927734 10.2539 -16.3086 10.2539 -35.2539 C 10.2539 -54.1992 25.5859 -69.5801 44.5312 -69.5801 C 63.5254 -69.5801 78.8574 -54.1992 78.8574 -35.2539 C 78.8574 -16.3086 63.5254 -0.927734 44.5801 -0.927734 Z M 31.7871 -28.0273 C 31.7871 -26.9531 32.5684 -26.2695 33.7891 -26.2695 L 48.7793 -26.2695 L 48.7793 -19.7754 C 48.7793 -18.6035 49.3652 -17.9688 50.3906 -17.9688 C 51.3672 -17.9688 52.002 -18.6035 52.002 -19.7754 L 52.002 -26.2695 L 55.9082 -26.2695 C 56.8848 -26.2695 57.5195 -26.8555 57.5195 -27.7832 C 57.5195 -28.7109 56.8848 -29.248 55.9082 -29.248 L 52.002 -29.248 L 52.002 -38.916 C 52.002 -40.0879 51.3672 -40.7227 50.3906 -40.7227 C 49.3652 -40.7227 48.7793 -40.0879 48.7793 -38.916 L 48.7793 -29.248 L 35.9375 -29.248 C 39.1113 -35.4004 43.9941 -43.3594 47.5098 -49.8535 C 47.6562 -50.1953 47.7539 -50.4883 47.7539 -50.8789 C 47.7539 -51.709 47.2656 -52.4414 46.1914 -52.4414 C 45.5078 -52.4414 45.0684 -52.0996 44.6777 -51.416 C 41.0156 -45.0684 35.9863 -36.377 32.2266 -29.5898 C 31.8848 -28.9551 31.7871 -28.5156 31.7871 -28.0273 Z"/>
  </g>
  <g id="Ultralight-S" transform="matrix(1 0 0 1 515.644 696)">
   <path d="M 44.043 1.95312 C 64.502 1.95312 81.2988 -14.7949 81.2988 -35.2539 C 81.2988 -55.7129 64.502 -72.4609 44.043 -72.4609 C 23.584 -72.4609 6.83594 -55.7129 6.83594 -35.2539 C 6.83594 -14.7949 23.584 1.95312 44.043 1.95312 Z M 44.043 -0.244141 C 24.7559 -0.244141 9.08203 -15.9668 9.08203 -35.2539 C 9.08203 -54.541 24.7559 -70.2637 44.043 -70.2637 C 63.3789 -70.2637 79.0527 -54.541 79.0527 -35.2539 C 79.0527 -15.9668 63.3789 -0.244141 44.043 -0.244141 Z M 32.0312 -27.9785 C 32.0312 -27.2461 32.5684 -26.7578 33.4473 -26.7578 L 48.6816 -26.7578 L 48.6816 -19.2383 C 48.6816 -18.457 49.1211 -18.0176 49.8535 -18.0176 C 50.5371 -18.0176 50.9766 -18.457 50.9766 -19.2383 L 50.9766 -26.7578 L 55.3711 -26.7578 C 56.1035 -26.7578 56.543 -27.1973 56.543 -27.8809 C 56.543 -28.5645 56.1035 -28.9551 55.3711 -28.9551 L 50.9766 -28.9551 L 50.9766 -39.1602 C 50.9766 -39.9902 50.5371 -40.3809 49.8535 -40.3809 C 49.1211 -40.3809 48.6816 -39.9414 48.6816 -39.1602 L 48.6816 -28.9551 L 34.9609 -28.9551 C 38.0859 -35.0098 43.5547 -43.8477 47.0215 -50.293 C 47.1191 -50.5371 47.2168 -50.7324 47.2168 -50.9766 C 47.2168 -51.5625 46.875 -52.0996 46.0938 -52.0996 C 45.6055 -52.0996 45.3125 -51.8066 45.0195 -51.3672 C 41.5039 -45.3613 35.9863 -35.8398 32.373 -29.1992 C 32.0801 -28.6133 32.0312 -28.3203 32.0312 -27.9785 Z"/>
  </g>
 </g>
</svg>
