<?xml version="1.0" encoding="UTF-8"?>
<!--Generator: Apple Native CoreSVG 148-->
<!DOCTYPE svg
PUBLIC "-//W3C//DTD SVG 1.1//EN"
       "http://www.w3.org/Graphics/SVG/1.1/DTD/svg11.dtd">
<svg version="1.1" xmlns="http://www.w3.org/2000/svg" xmlns:xlink="http://www.w3.org/1999/xlink" width="3300" height="2200">
 <!--glyph: "uni1006CF.medium", point size: 100.000000, font version: "Version 16.0d11e1", template writer version: "8"-->
 <g id="Notes">
  <rect height="2200" id="artboard" style="fill:white;opacity:1" width="3300" x="0" y="0"/>
  <line id="" style="fill:none;stroke:black;opacity:1;stroke-width:0.5;" x1="263" x2="3036" y1="292" y2="292"/>
  <text style="stroke:none;fill:black;font-family:-apple-system,&quot;SF Pro Display&quot;,&quot;SF Pro Text&quot;,Helvetica,sans-serif;font-weight:bold;" transform="matrix(1 0 0 1 263 322)">Weight/Scale Variations</text>
  <text style="stroke:none;fill:black;font-family:-apple-system,&quot;SF Pro Display&quot;,&quot;SF Pro Text&quot;,Helvetica,sans-serif;text-anchor:middle;" transform="matrix(1 0 0 1 559.711 322)">Ultralight</text>
  <text style="stroke:none;fill:black;font-family:-apple-system,&quot;SF Pro Display&quot;,&quot;SF Pro Text&quot;,Helvetica,sans-serif;text-anchor:middle;" transform="matrix(1 0 0 1 856.422 322)">Thin</text>
  <text style="stroke:none;fill:black;font-family:-apple-system,&quot;SF Pro Display&quot;,&quot;SF Pro Text&quot;,Helvetica,sans-serif;text-anchor:middle;" transform="matrix(1 0 0 1 1153.13 322)">Light</text>
  <text style="stroke:none;fill:black;font-family:-apple-system,&quot;SF Pro Display&quot;,&quot;SF Pro Text&quot;,Helvetica,sans-serif;text-anchor:middle;" transform="matrix(1 0 0 1 1449.84 322)">Regular</text>
  <text style="stroke:none;fill:black;font-family:-apple-system,&quot;SF Pro Display&quot;,&quot;SF Pro Text&quot;,Helvetica,sans-serif;text-anchor:middle;" transform="matrix(1 0 0 1 1746.56 322)">Medium</text>
  <text style="stroke:none;fill:black;font-family:-apple-system,&quot;SF Pro Display&quot;,&quot;SF Pro Text&quot;,Helvetica,sans-serif;text-anchor:middle;" transform="matrix(1 0 0 1 2043.27 322)">Semibold</text>
  <text style="stroke:none;fill:black;font-family:-apple-system,&quot;SF Pro Display&quot;,&quot;SF Pro Text&quot;,Helvetica,sans-serif;text-anchor:middle;" transform="matrix(1 0 0 1 2339.98 322)">Bold</text>
  <text style="stroke:none;fill:black;font-family:-apple-system,&quot;SF Pro Display&quot;,&quot;SF Pro Text&quot;,Helvetica,sans-serif;text-anchor:middle;" transform="matrix(1 0 0 1 2636.69 322)">Heavy</text>
  <text style="stroke:none;fill:black;font-family:-apple-system,&quot;SF Pro Display&quot;,&quot;SF Pro Text&quot;,Helvetica,sans-serif;text-anchor:middle;" transform="matrix(1 0 0 1 2933.4 322)">Black</text>
  <line id="" style="fill:none;stroke:black;opacity:1;stroke-width:0.5;" x1="263" x2="3036" y1="1903" y2="1903"/>
  <g id="" transform="matrix(1 0 0 1 263 1933)">
   <path d="M 9.24805 0.830078 C 13.5547 0.830078 17.1387 -2.74414 17.1387 -7.05078 C 17.1387 -11.3574 13.5449 -14.9316 9.23828 -14.9316 C 4.94141 -14.9316 1.36719 -11.3574 1.36719 -7.05078 C 1.36719 -2.74414 4.95117 0.830078 9.24805 0.830078 Z M 9.24805 -0.654297 C 5.70312 -0.654297 2.87109 -3.49609 2.87109 -7.05078 C 2.87109 -10.6055 5.69336 -13.4473 9.23828 -13.4473 C 12.793 -13.4473 15.6348 -10.6055 15.6445 -7.05078 C 15.6543 -3.49609 12.8027 -0.654297 9.24805 -0.654297 Z M 9.22852 -3.62305 C 9.69727 -3.62305 9.9707 -3.93555 9.9707 -4.45312 L 9.9707 -6.31836 L 12.002 -6.31836 C 12.5 -6.31836 12.832 -6.57227 12.832 -7.04102 C 12.832 -7.51953 12.5195 -7.7832 12.002 -7.7832 L 9.9707 -7.7832 L 9.9707 -9.81445 C 9.9707 -10.332 9.69727 -10.6543 9.22852 -10.6543 C 8.75977 -10.6543 8.50586 -10.3125 8.50586 -9.81445 L 8.50586 -7.7832 L 6.49414 -7.7832 C 5.97656 -7.7832 5.64453 -7.51953 5.64453 -7.04102 C 5.64453 -6.57227 5.99609 -6.31836 6.49414 -6.31836 L 8.50586 -6.31836 L 8.50586 -4.45312 C 8.50586 -3.95508 8.75977 -3.62305 9.22852 -3.62305 Z"/>
  </g>
  <g id="" transform="matrix(1 0 0 1 281.506 1933)">
   <path d="M 11.709 2.91016 C 17.1582 2.91016 21.6699 -1.61133 21.6699 -7.05078 C 21.6699 -12.5 17.1484 -17.0117 11.6992 -17.0117 C 6.25977 -17.0117 1.74805 -12.5 1.74805 -7.05078 C 1.74805 -1.61133 6.26953 2.91016 11.709 2.91016 Z M 11.709 1.25 C 7.09961 1.25 3.41797 -2.44141 3.41797 -7.05078 C 3.41797 -11.6602 7.08984 -15.3516 11.6992 -15.3516 C 16.3086 -15.3516 20 -11.6602 20.0098 -7.05078 C 20.0195 -2.44141 16.3184 1.25 11.709 1.25 Z M 11.6797 -2.66602 C 12.207 -2.66602 12.5098 -3.01758 12.5098 -3.59375 L 12.5098 -6.23047 L 15.3223 -6.23047 C 15.8691 -6.23047 16.25 -6.51367 16.25 -7.03125 C 16.25 -7.55859 15.8887 -7.86133 15.3223 -7.86133 L 12.5098 -7.86133 L 12.5098 -10.6836 C 12.5098 -11.25 12.207 -11.6113 11.6797 -11.6113 C 11.1621 -11.6113 10.8789 -11.2305 10.8789 -10.6836 L 10.8789 -7.86133 L 8.07617 -7.86133 C 7.50977 -7.86133 7.13867 -7.55859 7.13867 -7.03125 C 7.13867 -6.51367 7.5293 -6.23047 8.07617 -6.23047 L 10.8789 -6.23047 L 10.8789 -3.59375 C 10.8789 -3.03711 11.1621 -2.66602 11.6797 -2.66602 Z"/>
  </g>
  <g id="" transform="matrix(1 0 0 1 304.924 1933)">
   <path d="M 14.9707 5.66406 C 21.9336 5.66406 27.6953 -0.0976562 27.6953 -7.05078 C 27.6953 -14.0137 21.9238 -19.7754 14.9609 -19.7754 C 8.00781 -19.7754 2.25586 -14.0137 2.25586 -7.05078 C 2.25586 -0.0976562 8.01758 5.66406 14.9707 5.66406 Z M 14.9707 3.84766 C 8.93555 3.84766 4.08203 -1.01562 4.08203 -7.05078 C 4.08203 -13.0957 8.92578 -17.9492 14.9609 -17.9492 C 21.0059 -17.9492 25.8594 -13.0957 25.8691 -7.05078 C 25.8789 -1.01562 21.0156 3.84766 14.9707 3.84766 Z M 14.9414 -1.38672 C 15.5176 -1.38672 15.8594 -1.77734 15.8594 -2.38281 L 15.8594 -6.13281 L 19.7754 -6.13281 C 20.3711 -6.13281 20.7812 -6.46484 20.7812 -7.02148 C 20.7812 -7.59766 20.3906 -7.93945 19.7754 -7.93945 L 15.8594 -7.93945 L 15.8594 -11.8652 C 15.8594 -12.4805 15.5176 -12.8711 14.9414 -12.8711 C 14.375 -12.8711 14.0527 -12.4609 14.0527 -11.8652 L 14.0527 -7.93945 L 10.1465 -7.93945 C 9.53125 -7.93945 9.13086 -7.59766 9.13086 -7.02148 C 9.13086 -6.46484 9.55078 -6.13281 10.1465 -6.13281 L 14.0527 -6.13281 L 14.0527 -2.38281 C 14.0527 -1.79688 14.375 -1.38672 14.9414 -1.38672 Z"/>
  </g>
  <text style="stroke:none;fill:black;font-family:-apple-system,&quot;SF Pro Display&quot;,&quot;SF Pro Text&quot;,Helvetica,sans-serif;font-weight:bold;" transform="matrix(1 0 0 1 263 1953)">Design Variations</text>
  <text style="stroke:none;fill:black;font-family:-apple-system,&quot;SF Pro Display&quot;,&quot;SF Pro Text&quot;,Helvetica,sans-serif;" transform="matrix(1 0 0 1 263 1971)">Symbols are supported in up to nine weights and three scales.</text>
  <text style="stroke:none;fill:black;font-family:-apple-system,&quot;SF Pro Display&quot;,&quot;SF Pro Text&quot;,Helvetica,sans-serif;" transform="matrix(1 0 0 1 263 1989)">For optimal layout with text and other symbols, vertically align</text>
  <text style="stroke:none;fill:black;font-family:-apple-system,&quot;SF Pro Display&quot;,&quot;SF Pro Text&quot;,Helvetica,sans-serif;" transform="matrix(1 0 0 1 263 2007)">symbols with the adjacent text.</text>
  <line id="" style="fill:none;stroke:#00AEEF;stroke-width:0.5;opacity:1.0;" x1="776" x2="776" y1="1919" y2="1933"/>
  <g id="" transform="matrix(1 0 0 1 776 1933)">
   <path d="M 3.31055 0.126953 C 3.82812 0.126953 4.08203 -0.0683594 4.26758 -0.605469 L 5.52734 -4.0625 L 11.2891 -4.0625 L 12.5488 -0.605469 C 12.7344 -0.0683594 12.9883 0.126953 13.4961 0.126953 C 14.0137 0.126953 14.3457 -0.185547 14.3457 -0.673828 C 14.3457 -0.839844 14.3164 -0.986328 14.2383 -1.20117 L 9.6582 -13.3887 C 9.43359 -13.9941 9.0332 -14.2871 8.4082 -14.2871 C 7.80273 -14.2871 7.39258 -13.9941 7.17773 -13.3984 L 2.59766 -1.19141 C 2.51953 -0.976562 2.49023 -0.830078 2.49023 -0.664062 C 2.49023 -0.175781 2.80273 0.126953 3.31055 0.126953 Z M 6.00586 -5.53711 L 8.37891 -12.1094 L 8.42773 -12.1094 L 10.8008 -5.53711 Z"/>
  </g>
  <line id="" style="fill:none;stroke:#00AEEF;stroke-width:0.5;opacity:1.0;" x1="792.836" x2="792.836" y1="1919" y2="1933"/>
  <text style="stroke:none;fill:black;font-family:-apple-system,&quot;SF Pro Display&quot;,&quot;SF Pro Text&quot;,Helvetica,sans-serif;font-weight:bold;" transform="matrix(1 0 0 1 776 1953)">Margins</text>
  <text style="stroke:none;fill:black;font-family:-apple-system,&quot;SF Pro Display&quot;,&quot;SF Pro Text&quot;,Helvetica,sans-serif;" transform="matrix(1 0 0 1 776 1971)">Leading and trailing margins on the left and right side of each symbol</text>
  <text style="stroke:none;fill:black;font-family:-apple-system,&quot;SF Pro Display&quot;,&quot;SF Pro Text&quot;,Helvetica,sans-serif;" transform="matrix(1 0 0 1 776 1989)">can be adjusted by modifying the x-location of the margin guidelines.</text>
  <text style="stroke:none;fill:black;font-family:-apple-system,&quot;SF Pro Display&quot;,&quot;SF Pro Text&quot;,Helvetica,sans-serif;" transform="matrix(1 0 0 1 776 2007)">Modifications are automatically applied proportionally to all</text>
  <text style="stroke:none;fill:black;font-family:-apple-system,&quot;SF Pro Display&quot;,&quot;SF Pro Text&quot;,Helvetica,sans-serif;" transform="matrix(1 0 0 1 776 2025)">scales and weights.</text>
  <g id="" transform="matrix(1 0 0 1 1289 1933)">
   <path d="M 2.8418 1.86523 L 4.54102 3.57422 C 5.40039 4.44336 6.38672 4.38477 7.31445 3.35938 L 17.4902 -7.85156 C 17.7539 -7.76367 18.0273 -7.7832 18.3398 -7.8418 L 19.4043 -8.03711 L 20.0684 -7.36328 L 20.0293 -6.80664 C 19.9902 -6.30859 20.1172 -5.92773 20.6055 -5.44922 L 21.3672 -4.70703 C 21.8457 -4.22852 22.4609 -4.19922 22.9297 -4.66797 L 25.8398 -7.58789 C 26.3086 -8.05664 26.2891 -8.65234 25.8105 -9.13086 L 25.0391 -9.89258 C 24.5605 -10.3711 24.1895 -10.5273 23.7109 -10.4883 L 23.1348 -10.4395 L 22.4902 -11.0742 L 22.7344 -12.1973 C 22.8613 -12.7637 22.7051 -13.2031 22.1191 -13.7891 L 19.9219 -15.9766 C 16.582 -19.2969 12.1484 -19.2188 9.25781 -16.3281 C 8.83789 -15.918 8.80859 -15.3418 9.04297 -14.9512 C 9.27734 -14.5898 9.73633 -14.3555 10.3809 -14.5215 C 11.8457 -14.8633 13.3691 -14.9219 14.7949 -13.9844 L 14.209 -12.5293 C 14.0137 -12.0508 13.9844 -11.6504 14.1113 -11.2891 L 3.04688 -0.898438 C 2.06055 0.0195312 1.98242 0.996094 2.8418 1.86523 Z M 10.752 -15.957 C 13.1836 -17.7344 16.4746 -17.4316 18.7012 -15.2051 L 21.1328 -12.793 C 21.3672 -12.5586 21.4062 -12.373 21.3379 -12.0312 L 21.0156 -10.5469 L 22.5195 -9.0625 L 23.5059 -9.12109 C 23.7598 -9.13086 23.8379 -9.11133 24.0332 -8.91602 L 24.6094 -8.33984 L 22.168 -5.89844 L 21.5918 -6.47461 C 21.3965 -6.66992 21.3672 -6.74805 21.377 -7.01172 L 21.4453 -7.98828 L 19.9512 -9.47266 L 18.4277 -9.21875 C 18.1055 -9.15039 17.959 -9.17969 17.7148 -9.41406 L 15.7129 -11.416 C 15.459 -11.6504 15.4297 -11.8164 15.5859 -12.1875 L 16.4648 -14.2773 C 14.9023 -15.7324 12.8711 -16.3574 10.8398 -15.7617 C 10.6836 -15.7227 10.625 -15.8496 10.752 -15.957 Z M 5.27344 2.30469 L 4.10156 1.14258 C 3.63281 0.683594 3.74023 0.341797 4.14062 -0.0195312 L 14.9512 -10.1953 L 16.416 -8.71094 L 6.42578 2.27539 C 6.07422 2.67578 5.74219 2.77344 5.27344 2.30469 Z"/>
  </g>
  <text style="stroke:none;fill:black;font-family:-apple-system,&quot;SF Pro Display&quot;,&quot;SF Pro Text&quot;,Helvetica,sans-serif;font-weight:bold;" transform="matrix(1 0 0 1 1289 1953)">Exporting</text>
  <text style="stroke:none;fill:black;font-family:-apple-system,&quot;SF Pro Display&quot;,&quot;SF Pro Text&quot;,Helvetica,sans-serif;" transform="matrix(1 0 0 1 1289 1971)">Symbols should be outlined when exporting to ensure the</text>
  <text style="stroke:none;fill:black;font-family:-apple-system,&quot;SF Pro Display&quot;,&quot;SF Pro Text&quot;,Helvetica,sans-serif;" transform="matrix(1 0 0 1 1289 1989)">design is preserved when submitting to Xcode.</text>
  <text id="template-version" style="stroke:none;fill:black;font-family:-apple-system,&quot;SF Pro Display&quot;,&quot;SF Pro Text&quot;,Helvetica,sans-serif;text-anchor:end;" transform="matrix(1 0 0 1 3036 1933)">Template v.2.0</text>
  <text style="stroke:none;fill:black;font-family:-apple-system,&quot;SF Pro Display&quot;,&quot;SF Pro Text&quot;,Helvetica,sans-serif;text-anchor:end;" transform="matrix(1 0 0 1 3036 1951)">Requires Xcode 12 or greater</text>
  <text style="stroke:none;fill:black;font-family:-apple-system,&quot;SF Pro Display&quot;,&quot;SF Pro Text&quot;,Helvetica,sans-serif;text-anchor:end;" transform="matrix(1 0 0 1 3036 1969)">Generated from 41.square</text>
  <text style="stroke:none;fill:black;font-family:-apple-system,&quot;SF Pro Display&quot;,&quot;SF Pro Text&quot;,Helvetica,sans-serif;text-anchor:end;" transform="matrix(1 0 0 1 3036 1987)">Typeset at 100 points</text>
  <text style="stroke:none;fill:black;font-family:-apple-system,&quot;SF Pro Display&quot;,&quot;SF Pro Text&quot;,Helvetica,sans-serif;" transform="matrix(1 0 0 1 263 726)">Small</text>
  <text style="stroke:none;fill:black;font-family:-apple-system,&quot;SF Pro Display&quot;,&quot;SF Pro Text&quot;,Helvetica,sans-serif;" transform="matrix(1 0 0 1 263 1156)">Medium</text>
  <text style="stroke:none;fill:black;font-family:-apple-system,&quot;SF Pro Display&quot;,&quot;SF Pro Text&quot;,Helvetica,sans-serif;" transform="matrix(1 0 0 1 263 1586)">Large</text>
 </g>
 <g id="Guides">
  <g id="H-reference" style="fill:#27AAE1;stroke:none;" transform="matrix(1 0 0 1 339 696)">
   <path d="M 0.976562 0 L 3.66211 0 L 12.9883 -24.4629 L 45.7031 -24.4629 L 55.0781 0 L 57.7148 0 L 30.6152 -70.459 L 28.125 -70.459 Z M 29.2969 -67.1387 L 29.3945 -67.1387 L 44.873 -26.709 L 13.8672 -26.709 Z"/>
  </g>
  <line id="Baseline-S" style="fill:none;stroke:#27AAE1;opacity:1;stroke-width:0.5;" x1="263" x2="3036" y1="696" y2="696"/>
  <line id="Capline-S" style="fill:none;stroke:#27AAE1;opacity:1;stroke-width:0.5;" x1="263" x2="3036" y1="625.541" y2="625.541"/>
  <g id="H-reference" style="fill:#27AAE1;stroke:none;" transform="matrix(1 0 0 1 339 1126)">
   <path d="M 0.976562 0 L 3.66211 0 L 12.9883 -24.4629 L 45.7031 -24.4629 L 55.0781 0 L 57.7148 0 L 30.6152 -70.459 L 28.125 -70.459 Z M 29.2969 -67.1387 L 29.3945 -67.1387 L 44.873 -26.709 L 13.8672 -26.709 Z"/>
  </g>
  <line id="Baseline-M" style="fill:none;stroke:#27AAE1;opacity:1;stroke-width:0.5;" x1="263" x2="3036" y1="1126" y2="1126"/>
  <line id="Capline-M" style="fill:none;stroke:#27AAE1;opacity:1;stroke-width:0.5;" x1="263" x2="3036" y1="1055.54" y2="1055.54"/>
  <g id="H-reference" style="fill:#27AAE1;stroke:none;" transform="matrix(1 0 0 1 339 1556)">
   <path d="M 0.976562 0 L 3.66211 0 L 12.9883 -24.4629 L 45.7031 -24.4629 L 55.0781 0 L 57.7148 0 L 30.6152 -70.459 L 28.125 -70.459 Z M 29.2969 -67.1387 L 29.3945 -67.1387 L 44.873 -26.709 L 13.8672 -26.709 Z"/>
  </g>
  <line id="Baseline-L" style="fill:none;stroke:#27AAE1;opacity:1;stroke-width:0.5;" x1="263" x2="3036" y1="1556" y2="1556"/>
  <line id="Capline-L" style="fill:none;stroke:#27AAE1;opacity:1;stroke-width:0.5;" x1="263" x2="3036" y1="1485.54" y2="1485.54"/>
  <line id="left-margin" style="fill:none;stroke:#00AEEF;stroke-width:0.5;opacity:1.0;" x1="1392.45" x2="1392.45" y1="1030.79" y2="1150.12"/>
  <line id="right-margin" style="fill:none;stroke:#00AEEF;stroke-width:0.5;opacity:1.0;" x1="1507.24" x2="1507.24" y1="1030.79" y2="1150.12"/>
 </g>
 <g id="Symbols">
  <g id="Black-L" transform="matrix(1 0 0 1 2855.62 1556)">
   <path d="M 39.9902 26.5137 L 115.576 26.5137 C 130.811 26.5137 139.502 17.8711 139.502 2.68555 L 139.502 -73.0957 C 139.502 -88.2812 130.811 -96.875 115.576 -96.875 L 39.9902 -96.875 C 24.7559 -96.875 16.0645 -88.2812 16.0645 -73.0957 L 16.0645 2.68555 C 16.0645 17.8711 24.7559 26.5137 39.9902 26.5137 Z M 42.6758 6.29883 C 38.4766 6.29883 36.3281 4.39453 36.3281 -0.146484 L 36.3281 -70.2148 C 36.3281 -74.7559 38.4766 -76.6602 42.6758 -76.6602 L 112.842 -76.6602 C 117.09 -76.6602 119.238 -74.7559 119.238 -70.2148 L 119.238 -0.146484 C 119.238 4.39453 117.09 6.29883 112.842 6.29883 Z M 68.5059 -10.6934 C 71.7773 -10.6934 73.8281 -12.8418 73.8281 -15.9668 L 73.8281 -20.0195 L 74.9023 -20.0195 C 77.9297 -20.0195 79.6387 -21.875 79.6387 -24.9023 C 79.6387 -28.0273 77.9297 -30.0293 74.9023 -30.0293 L 73.8281 -30.0293 L 73.8281 -50.7324 C 73.8281 -56.3965 70.8496 -59.8145 65.0391 -59.8145 C 59.7656 -59.8145 56.6895 -57.7148 54.2969 -52.9785 C 51.1719 -47.0703 47.9004 -39.5508 45.8984 -34.6191 C 44.9707 -32.1777 44.2871 -29.7852 44.2871 -27.0508 C 44.2871 -22.5586 46.8262 -19.873 51.5137 -19.873 L 63.2812 -19.873 L 63.2812 -15.9668 C 63.2812 -12.8906 65.332 -10.6934 68.5059 -10.6934 Z M 101.318 -10.9375 C 105.225 -10.9375 107.178 -13.1836 107.178 -17.7246 L 107.178 -52.002 C 107.178 -56.8359 104.688 -59.7168 99.8535 -59.7168 C 97.3145 -59.7168 95.3125 -59.0332 92.2363 -56.25 L 86.1816 -51.0742 C 83.9355 -48.9746 83.0078 -47.3633 83.0078 -45.0684 C 83.0078 -42.4316 85.1562 -40.1367 87.7441 -40.1367 C 89.7461 -40.1367 90.8691 -40.8691 92.3828 -42.5293 L 95.2148 -45.3125 L 95.5078 -45.3125 L 95.5078 -17.7246 C 95.5078 -13.1836 97.4609 -10.9375 101.318 -10.9375 Z M 63.2812 -29.9316 L 55.5176 -29.9316 L 55.5176 -30.1758 C 57.4219 -34.8633 60.4492 -42.9199 63.0859 -48.6816 L 63.2812 -48.6816 Z"/>
  </g>
  <g id="Heavy-L" transform="matrix(1 0 0 1 2559.93 1556)">
   <path d="M 38.8184 25.4883 L 114.697 25.4883 C 129.346 25.4883 137.451 17.4316 137.451 2.88086 L 137.451 -73.2422 C 137.451 -87.793 129.346 -95.8496 114.697 -95.8496 L 38.8184 -95.8496 C 24.2188 -95.8496 16.0645 -87.793 16.0645 -73.2422 L 16.0645 2.88086 C 16.0645 17.4316 24.2188 25.4883 38.8184 25.4883 Z M 40.918 8.00781 C 36.084 8.00781 33.5938 5.71289 33.5938 0.585938 L 33.5938 -70.9473 C 33.5938 -76.0742 36.084 -78.3691 40.918 -78.3691 L 112.549 -78.3691 C 117.383 -78.3691 119.922 -76.0742 119.922 -70.9473 L 119.922 0.585938 C 119.922 5.71289 117.383 8.00781 112.549 8.00781 Z M 67.5293 -10.2051 C 70.5566 -10.2051 72.3633 -12.207 72.3633 -15.0879 L 72.3633 -20.1172 L 74.1699 -20.1172 C 76.9531 -20.1172 78.5645 -21.7773 78.5645 -24.5605 C 78.5645 -27.3926 76.9531 -29.248 74.1699 -29.248 L 72.3633 -29.248 L 72.3633 -52.2461 C 72.3633 -57.2754 69.5801 -60.4004 64.3555 -60.4004 C 59.5703 -60.4004 56.7871 -58.4961 54.4922 -54.1504 C 50.9277 -47.6074 46.582 -38.9648 44.043 -33.4473 C 43.1641 -31.1523 42.5293 -29.0527 42.5293 -26.6113 C 42.5293 -22.4609 44.9219 -20.0195 49.1699 -20.0195 L 62.7441 -20.0195 L 62.7441 -15.0879 C 62.7441 -12.207 64.5996 -10.2051 67.5293 -10.2051 Z M 100.732 -10.4492 C 104.15 -10.4492 106.006 -12.5 106.006 -16.5039 L 106.006 -53.418 C 106.006 -57.666 103.711 -60.2051 99.5117 -60.2051 C 97.1191 -60.2051 95.3125 -59.5703 92.5293 -57.1289 L 85.498 -51.5625 C 83.4961 -49.7559 82.6172 -48.291 82.6172 -46.1914 C 82.6172 -43.75 84.6191 -41.6504 87.0117 -41.6504 C 88.7207 -41.6504 89.6973 -42.2363 91.1621 -43.7012 L 95.166 -47.1191 L 95.459 -47.1191 L 95.459 -16.5039 C 95.459 -12.5 97.2656 -10.4492 100.732 -10.4492 Z M 62.7441 -29.1504 L 52.832 -29.1504 L 52.832 -29.3945 C 55.1758 -34.5703 59.375 -43.8477 62.5 -50.0977 L 62.7441 -50.0977 Z"/>
  </g>
  <g id="Bold-L" transform="matrix(1 0 0 1 2264.37 1556)">
   <path d="M 37.5 24.3652 L 113.721 24.3652 C 127.637 24.3652 135.156 16.8945 135.156 3.07617 L 135.156 -73.3887 C 135.156 -87.207 127.637 -94.7266 113.721 -94.7266 L 37.5 -94.7266 C 23.6328 -94.7266 16.0645 -87.2559 16.0645 -73.3887 L 16.0645 3.07617 C 16.0645 16.8945 23.6328 24.3652 37.5 24.3652 Z M 38.9648 9.91211 C 33.4473 9.91211 30.5176 7.17773 30.5176 1.41602 L 30.5176 -71.7285 C 30.5176 -77.5391 33.4473 -80.2734 38.9648 -80.2734 L 112.256 -80.2734 C 117.725 -80.2734 120.703 -77.5391 120.703 -71.7285 L 120.703 1.41602 C 120.703 7.17773 117.725 9.91211 112.256 9.91211 Z M 66.3574 -9.61914 C 69.1406 -9.61914 70.752 -11.4258 70.752 -14.0625 L 70.752 -20.2148 L 73.3887 -20.2148 C 75.8301 -20.2148 77.2949 -21.7285 77.2949 -24.1699 C 77.2949 -26.7578 75.8301 -28.3203 73.3887 -28.3203 L 70.752 -28.3203 L 70.752 -53.8574 C 70.752 -58.252 68.1152 -61.0352 63.623 -61.0352 C 59.375 -61.0352 56.8848 -59.375 54.7363 -55.4688 C 50.5859 -48.2422 45.166 -38.2812 41.9922 -32.0801 C 41.1133 -30.0293 40.5762 -28.2227 40.5762 -26.123 C 40.5762 -22.3633 42.8223 -20.166 46.582 -20.166 L 62.1094 -20.166 L 62.1094 -14.0625 C 62.1094 -11.4746 63.7207 -9.61914 66.3574 -9.61914 Z M 100 -9.96094 C 102.979 -9.96094 104.639 -11.7676 104.639 -15.1367 L 104.639 -54.9316 C 104.639 -58.5449 102.637 -60.7422 99.0723 -60.7422 C 96.9238 -60.7422 95.3613 -60.1562 92.8711 -58.1543 L 84.7168 -52.0996 C 83.0078 -50.6348 82.2266 -49.3164 82.2266 -47.4609 C 82.2266 -45.2148 84.0332 -43.3594 86.1816 -43.3594 C 87.5977 -43.3594 88.3789 -43.75 89.7949 -45.0195 L 95.0684 -49.1699 L 95.4102 -49.1699 L 95.4102 -15.1367 C 95.4102 -11.7676 97.0215 -9.96094 100 -9.96094 Z M 62.1094 -28.2715 L 49.8047 -28.2715 L 49.8047 -28.5645 C 52.5879 -34.2773 58.1543 -44.873 61.8652 -51.709 L 62.1094 -51.709 Z"/>
  </g>
  <g id="Semibold-L" transform="matrix(1 0 0 1 1968.44 1556)">
   <path d="M 36.6211 23.584 L 113.037 23.584 C 126.514 23.584 133.594 16.5039 133.594 3.17383 L 133.594 -73.5352 C 133.594 -86.8164 126.514 -93.9453 113.037 -93.9453 L 36.6211 -93.9453 C 23.1934 -93.9453 16.0645 -86.8652 16.0645 -73.5352 L 16.0645 3.17383 C 16.0645 16.5527 23.1934 23.584 36.6211 23.584 Z M 37.5977 11.2793 C 31.6406 11.2793 28.418 8.20312 28.418 1.95312 L 28.418 -72.3145 C 28.418 -78.5156 31.6406 -81.5918 37.5977 -81.5918 L 112.061 -81.5918 C 117.969 -81.5918 121.24 -78.5156 121.24 -72.3145 L 121.24 1.95312 C 121.24 8.20312 117.969 11.2793 112.061 11.2793 Z M 65.625 -9.17969 C 68.1641 -9.17969 69.5801 -10.9375 69.5801 -13.3789 L 69.5801 -20.3125 L 72.8027 -20.3125 C 75.0977 -20.3125 76.4648 -21.6797 76.4648 -23.9258 C 76.4648 -26.2695 75.0488 -27.7344 72.8027 -27.7344 L 69.5801 -27.7344 L 69.5801 -54.9805 C 69.5801 -58.9355 67.1387 -61.4258 63.0859 -61.4258 C 59.2773 -61.4258 56.9336 -59.9609 54.9316 -56.3965 C 50.3906 -48.6816 44.1895 -37.8418 40.5762 -31.1523 C 39.6973 -29.248 39.209 -27.6367 39.209 -25.7812 C 39.209 -22.3145 41.3574 -20.2637 44.8242 -20.2637 L 61.7188 -20.2637 L 61.7188 -13.3789 C 61.7188 -10.9863 63.1348 -9.17969 65.625 -9.17969 Z M 99.5117 -9.61914 C 102.197 -9.61914 103.76 -11.2793 103.76 -14.1602 L 103.76 -56.0059 C 103.76 -59.1309 101.855 -61.1328 98.7793 -61.1328 C 96.7773 -61.1328 95.3613 -60.5957 93.1152 -58.7891 L 84.1797 -52.4414 C 82.666 -51.2207 81.9336 -50.0488 81.9336 -48.3398 C 81.9336 -46.2402 83.6426 -44.5312 85.5957 -44.5312 C 86.8164 -44.5312 87.5 -44.7754 88.8184 -45.9473 L 95.0195 -50.5859 L 95.3613 -50.5859 L 95.3613 -14.1602 C 95.3613 -11.2793 96.875 -9.61914 99.5117 -9.61914 Z M 61.7188 -27.6855 L 47.7539 -27.6855 L 47.7539 -27.9297 C 50.8301 -34.082 57.3242 -45.5566 61.4258 -52.7832 L 61.7188 -52.7832 Z"/>
  </g>
  <g id="Medium-L" transform="matrix(1 0 0 1 1672.31 1556)">
   <path d="M 35.9375 22.998 L 112.5 22.998 C 125.635 22.998 132.422 16.2109 132.422 3.27148 L 132.422 -73.6328 C 132.422 -86.5234 125.635 -93.3105 112.5 -93.3105 L 35.9375 -93.3105 C 22.9004 -93.3105 16.0645 -86.5723 16.0645 -73.6328 L 16.0645 3.27148 C 16.0645 16.2598 22.9004 22.998 35.9375 22.998 Z M 36.5723 12.2559 C 30.2246 12.2559 26.8066 8.98438 26.8066 2.39258 L 26.8066 -72.7051 C 26.8066 -79.2969 30.2246 -82.6172 36.5723 -82.6172 L 111.865 -82.6172 C 118.115 -82.6172 121.68 -79.2969 121.68 -72.7051 L 121.68 2.39258 C 121.68 8.98438 118.115 12.2559 111.865 12.2559 Z M 64.9902 -8.88672 C 67.4316 -8.88672 68.75 -10.5469 68.75 -12.8418 L 68.75 -20.3613 L 72.4121 -20.3613 C 74.5117 -20.3613 75.7812 -21.6309 75.7812 -23.7305 C 75.7812 -25.9277 74.4629 -27.2461 72.4121 -27.2461 L 68.75 -27.2461 L 68.75 -55.8594 C 68.75 -59.4727 66.3574 -61.7676 62.6953 -61.7676 C 59.1309 -61.7676 56.9824 -60.4004 55.0293 -57.0801 C 50.2441 -49.0234 43.4082 -37.5 39.502 -30.4199 C 38.623 -28.6621 38.1836 -27.1973 38.1836 -25.4883 C 38.1836 -22.2656 40.2832 -20.3125 43.457 -20.3125 L 61.377 -20.3125 L 61.377 -12.8418 C 61.377 -10.5957 62.6953 -8.88672 64.9902 -8.88672 Z M 99.1699 -9.32617 C 101.611 -9.32617 103.076 -10.8887 103.076 -13.4766 L 103.076 -56.7871 C 103.076 -59.6191 101.318 -61.4258 98.584 -61.4258 C 96.6309 -61.4258 95.4102 -60.8887 93.3105 -59.3262 L 83.7891 -52.7344 C 82.4219 -51.6602 81.6895 -50.5859 81.6895 -49.0234 C 81.6895 -47.0215 83.3496 -45.4102 85.1562 -45.4102 C 86.2305 -45.4102 86.8164 -45.5566 88.0859 -46.6309 L 94.9707 -51.6602 L 95.3125 -51.6602 L 95.3125 -13.4766 C 95.3125 -10.8887 96.7773 -9.32617 99.1699 -9.32617 Z M 61.377 -27.2461 L 46.1914 -27.2461 L 46.1914 -27.4902 C 49.5117 -33.8867 56.6895 -46.0938 61.084 -53.6133 L 61.377 -53.6133 Z"/>
  </g>
  <g id="Regular-L" transform="matrix(1 0 0 1 1376.38 1556)">
   <path d="M 35.0586 22.2168 L 111.816 22.2168 C 124.463 22.2168 130.859 15.8691 130.859 3.41797 L 130.859 -73.7305 C 130.859 -86.1816 124.463 -92.5293 111.816 -92.5293 L 35.0586 -92.5293 C 22.4609 -92.5293 16.0645 -86.2305 16.0645 -73.7305 L 16.0645 3.41797 C 16.0645 15.918 22.4609 22.2168 35.0586 22.2168 Z M 35.2539 13.5742 C 28.418 13.5742 24.707 9.96094 24.707 2.97852 L 24.707 -73.291 C 24.707 -80.2734 28.418 -83.8867 35.2539 -83.8867 L 111.67 -83.8867 C 118.359 -83.8867 122.217 -80.2734 122.217 -73.291 L 122.217 2.97852 C 122.217 9.96094 118.359 13.5742 111.67 13.5742 Z M 64.2578 -8.49609 C 66.4551 -8.49609 67.627 -10.0098 67.627 -12.1582 L 67.627 -20.4102 L 71.8262 -20.4102 C 73.7305 -20.4102 74.9512 -21.582 74.9512 -23.4863 C 74.9512 -25.4395 73.7305 -26.6113 71.8262 -26.6113 L 67.627 -26.6113 L 67.627 -56.9824 C 67.627 -60.1562 65.3809 -62.207 62.207 -62.207 C 59.0332 -62.207 57.0801 -61.0352 55.2246 -57.959 C 50 -49.4141 42.4316 -37.0605 38.0859 -29.4922 C 37.207 -27.8809 36.8652 -26.6602 36.8652 -25.1465 C 36.8652 -22.168 38.8184 -20.4102 41.6992 -20.4102 L 60.9375 -20.4102 L 60.9375 -12.1582 C 60.9375 -10.0586 62.1094 -8.49609 64.2578 -8.49609 Z M 98.6816 -8.98438 C 100.781 -8.98438 102.148 -10.4004 102.148 -12.5488 L 102.148 -57.8613 C 102.148 -60.2051 100.537 -61.8164 98.291 -61.8164 C 96.4844 -61.8164 95.4102 -61.2793 93.5059 -60.0098 L 83.252 -53.0762 C 82.0801 -52.2461 81.3965 -51.2695 81.3965 -49.8535 C 81.3965 -48.0469 82.959 -46.582 84.5703 -46.582 C 85.4492 -46.582 85.9375 -46.6309 87.1582 -47.5098 L 94.9219 -53.0273 L 95.2637 -53.0273 L 95.2637 -12.5488 C 95.2637 -10.4004 96.6309 -8.98438 98.6816 -8.98438 Z M 60.9375 -26.6113 L 44.1406 -26.6113 L 44.1406 -26.9043 C 47.8027 -33.6914 55.8594 -46.8262 60.6445 -54.6875 L 60.9375 -54.6875 Z"/>
  </g>
  <g id="Light-L" transform="matrix(1 0 0 1 1080.5 1556)">
   <path d="M 34.0332 21.4355 L 111.23 21.4355 C 123.096 21.4355 129.199 15.2344 129.199 3.56445 L 129.199 -73.8281 C 129.199 -85.5469 123.096 -91.6992 111.23 -91.6992 L 34.0332 -91.6992 C 22.168 -91.6992 16.0645 -85.6445 16.0645 -73.8281 L 16.0645 3.56445 C 16.0645 15.3809 22.168 21.4355 34.0332 21.4355 Z M 34.1797 14.7949 C 26.709 14.7949 22.7051 10.8398 22.7051 3.22266 L 22.7051 -73.4863 C 22.7051 -81.1523 26.709 -85.0586 34.1797 -85.0586 L 111.035 -85.0586 C 118.359 -85.0586 122.559 -81.1523 122.559 -73.4863 L 122.559 3.22266 C 122.559 10.8398 118.359 14.7949 111.035 14.7949 Z M 63.4766 -8.88672 C 65.2344 -8.88672 66.1621 -10.1074 66.1621 -11.8164 L 66.1621 -21.1426 L 71.4844 -21.1426 C 72.998 -21.1426 73.9746 -22.1191 73.9746 -23.6328 C 73.9746 -25.1953 72.9492 -26.2207 71.4844 -26.2207 L 66.1621 -26.2207 L 66.1621 -57.7148 C 66.1621 -60.2539 64.4043 -61.9141 61.8164 -61.9141 C 59.2773 -61.9141 57.7148 -60.9863 56.1523 -58.4961 C 51.0254 -50.3906 41.8457 -35.8887 37.2559 -28.4668 C 36.6211 -27.2949 36.3281 -26.2207 36.3281 -25.0488 C 36.3281 -22.5586 37.9883 -21.1426 40.3809 -21.1426 L 60.791 -21.1426 L 60.791 -11.8164 C 60.791 -10.1074 61.8164 -8.88672 63.4766 -8.88672 Z M 97.5586 -9.17969 C 99.2676 -9.17969 100.342 -10.3027 100.342 -12.0117 L 100.342 -58.3496 C 100.342 -60.2539 99.0234 -61.4746 97.2168 -61.4746 C 95.8008 -61.4746 94.9219 -61.1328 93.5059 -60.1562 L 82.3242 -52.7344 C 81.3477 -52.0508 80.8594 -51.2695 80.8594 -50.1953 C 80.8594 -48.7305 82.0801 -47.5586 83.3984 -47.5586 C 84.082 -47.5586 84.4727 -47.5586 85.3516 -48.1934 L 94.5312 -54.4922 L 94.8242 -54.4922 L 94.8242 -12.0117 C 94.8242 -10.3027 95.9473 -9.17969 97.5586 -9.17969 Z M 60.791 -26.2207 L 42.2363 -26.2207 L 42.2363 -26.4648 C 45.8008 -32.8125 56.1035 -48.7305 60.5469 -55.8105 L 60.791 -55.8105 Z"/>
  </g>
  <g id="Thin-L" transform="matrix(1 0 0 1 784.889 1556)">
   <path d="M 32.666 20.3613 L 110.352 20.3613 C 121.24 20.3613 127.002 14.4531 127.002 3.75977 L 127.002 -73.9746 C 127.002 -84.7168 121.24 -90.5762 110.352 -90.5762 L 32.666 -90.5762 C 21.7773 -90.5762 16.0645 -84.8633 16.0645 -73.9746 L 16.0645 3.75977 C 16.0645 14.6484 21.7773 20.3613 32.666 20.3613 Z M 32.8125 16.4062 C 24.4141 16.4062 19.9707 12.0117 19.9707 3.56445 L 19.9707 -73.7793 C 19.9707 -82.2754 24.4141 -86.6699 32.8125 -86.6699 L 110.205 -86.6699 C 118.359 -86.6699 123.047 -82.2754 123.047 -73.7793 L 123.047 3.56445 C 123.047 12.0117 118.359 16.4062 110.205 16.4062 Z M 62.4512 -9.375 C 63.623 -9.375 64.2578 -10.1562 64.2578 -11.2793 L 64.2578 -22.1191 L 70.9961 -22.1191 C 72.0703 -22.1191 72.7051 -22.8516 72.7051 -23.877 C 72.7051 -24.9023 71.9727 -25.6836 70.9961 -25.6836 L 64.2578 -25.6836 L 64.2578 -58.6426 C 64.2578 -60.4004 63.0859 -61.5234 61.3281 -61.5234 C 59.668 -61.5234 58.5449 -60.9375 57.4219 -59.2285 C 52.3438 -51.6602 41.0156 -34.375 36.2305 -27.0996 C 35.8398 -26.4648 35.5957 -25.6348 35.5957 -24.8535 C 35.5957 -23.0469 36.8164 -22.1191 38.6719 -22.1191 L 60.5957 -22.1191 L 60.5957 -11.2793 C 60.5957 -10.1562 61.377 -9.375 62.4512 -9.375 Z M 96.0938 -9.47266 C 97.2656 -9.47266 97.9492 -10.2051 97.9492 -11.3281 L 97.9492 -59.0332 C 97.9492 -60.3516 97.0215 -61.084 95.8496 -61.084 C 94.873 -61.084 94.3359 -60.8887 93.5059 -60.4004 L 81.0547 -52.2949 C 80.3711 -51.8066 80.127 -51.2695 80.127 -50.5859 C 80.127 -49.6582 80.9082 -48.8281 81.8848 -48.8281 C 82.2754 -48.8281 82.4707 -48.8281 82.9102 -49.1211 L 93.9941 -56.3965 L 94.2383 -56.3965 L 94.2383 -11.3281 C 94.2383 -10.2051 95.0684 -9.47266 96.0938 -9.47266 Z M 60.5957 -25.6836 L 39.7461 -25.6836 L 39.7461 -25.8789 C 43.2129 -31.6895 56.3965 -51.3184 60.4492 -57.2266 L 60.5957 -57.2266 Z"/>
  </g>
  <g id="Ultralight-L" transform="matrix(1 0 0 1 488.739 1556)">
   <path d="M 31.9824 19.7754 L 109.961 19.7754 C 120.312 19.7754 125.879 14.0625 125.879 3.85742 L 125.879 -74.0723 C 125.879 -84.2773 120.312 -89.9902 109.961 -89.9902 L 31.9824 -89.9902 C 21.582 -89.9902 16.0645 -84.4727 16.0645 -74.0723 L 16.0645 3.85742 C 16.0645 14.2578 21.582 19.7754 31.9824 19.7754 Z M 32.1289 17.2363 C 23.1934 17.2363 18.6035 12.6465 18.6035 3.75977 L 18.6035 -73.9258 C 18.6035 -82.8125 23.1934 -87.4512 32.1289 -87.4512 L 109.766 -87.4512 C 118.359 -87.4512 123.291 -82.8125 123.291 -73.9258 L 123.291 3.75977 C 123.291 12.6465 118.359 17.2363 109.766 17.2363 Z M 61.9141 -9.66797 C 62.793 -9.66797 63.2812 -10.2051 63.2812 -11.0352 L 63.2812 -22.6562 L 70.752 -22.6562 C 71.582 -22.6562 72.0703 -23.2422 72.0703 -23.9746 C 72.0703 -24.7559 71.4844 -25.3906 70.752 -25.3906 L 63.2812 -25.3906 L 63.2812 -59.1309 C 63.2812 -60.498 62.4023 -61.3281 61.084 -61.3281 C 59.8633 -61.3281 58.9844 -60.8887 58.0566 -59.5703 C 52.9785 -52.2949 40.5762 -33.5938 35.6934 -26.416 C 35.4492 -26.0742 35.2051 -25.293 35.2051 -24.7559 C 35.2051 -23.3398 36.2305 -22.6562 37.793 -22.6562 L 60.498 -22.6562 L 60.498 -11.0352 C 60.498 -10.2051 61.1816 -9.66797 61.9141 -9.66797 Z M 95.3613 -9.61914 C 96.2402 -9.61914 96.7285 -10.1562 96.7285 -10.9863 L 96.7285 -59.4238 C 96.7285 -60.4004 95.9961 -60.8887 95.1172 -60.8887 C 94.4336 -60.8887 94.043 -60.791 93.5059 -60.498 L 80.4199 -52.0508 C 79.834 -51.709 79.7363 -51.2695 79.7363 -50.8301 C 79.7363 -50.1465 80.2734 -49.5117 81.1035 -49.5117 C 81.3477 -49.5117 81.4453 -49.5117 81.6895 -49.5605 L 93.7012 -57.373 L 93.9453 -57.373 L 93.9453 -10.9863 C 93.9453 -10.1562 94.5801 -9.61914 95.3613 -9.61914 Z M 60.498 -25.3906 L 38.4766 -25.3906 L 38.4766 -25.5371 C 41.8945 -31.1523 56.543 -52.6367 60.3516 -57.959 L 60.498 -57.959 Z"/>
  </g>
  <g id="Black-M" transform="matrix(1 0 0 1 2872.19 1126)">
   <path d="M 31.9824 13.5742 L 90.4297 13.5742 C 102.686 13.5742 109.961 6.29883 109.961 -5.95703 L 109.961 -64.4043 C 109.961 -76.6602 102.686 -83.9355 90.4297 -83.9355 L 31.9824 -83.9355 C 19.7266 -83.9355 12.4512 -76.6602 12.4512 -64.4043 L 12.4512 -5.95703 C 12.4512 6.29883 19.7266 13.5742 31.9824 13.5742 Z M 34.9121 -4.73633 C 32.0801 -4.73633 30.7617 -5.81055 30.7617 -8.88672 L 30.7617 -61.4746 C 30.7617 -64.5508 32.0801 -65.6738 34.9121 -65.6738 L 87.5 -65.6738 C 90.332 -65.6738 91.6504 -64.5508 91.6504 -61.4746 L 91.6504 -8.88672 C 91.6504 -5.81055 90.332 -4.73633 87.5 -4.73633 Z M 78.8086 -17.1387 C 82.1289 -17.1387 83.6914 -18.9941 83.6914 -23.0469 L 83.6914 -46.6797 C 83.6914 -50.9277 81.6406 -53.3691 77.3438 -53.3691 C 75.3418 -53.3691 73.584 -52.8809 71.0938 -50.4395 L 67.2363 -46.6797 C 65.2832 -44.7754 64.502 -43.4082 64.502 -41.5039 C 64.502 -39.4043 66.2109 -37.5 68.4082 -37.5 C 70.166 -37.5 71.1914 -38.2812 72.3145 -39.6484 L 73.6328 -41.3574 L 73.8281 -41.3574 L 73.8281 -23.0469 C 73.8281 -18.9941 75.3906 -17.1387 78.8086 -17.1387 Z M 54.0527 -17.1387 C 56.6895 -17.1387 58.4473 -18.7988 58.4473 -21.3379 L 58.4473 -23.6816 L 58.8379 -23.6816 C 61.3281 -23.6816 62.6953 -25.2441 62.6953 -27.7832 C 62.6953 -30.3223 61.3281 -32.0801 58.8379 -32.0801 L 58.4473 -32.0801 L 58.4473 -45.6543 C 58.4473 -50.4883 56.1523 -53.3691 51.123 -53.3691 C 46.7285 -53.3691 44.1406 -51.5625 42.2852 -47.7051 C 40.5762 -44.1406 38.5254 -38.7695 37.6465 -35.8398 C 37.0117 -33.9355 36.377 -31.7871 36.377 -29.4434 C 36.377 -25.7324 38.3789 -23.584 42.334 -23.584 L 49.707 -23.584 L 49.707 -21.3379 C 49.707 -18.7988 51.4648 -17.1387 54.0527 -17.1387 Z M 49.707 -31.9824 L 45.6543 -31.9824 L 45.6543 -32.1289 C 46.5332 -34.8633 48.4375 -40.9668 49.6094 -44.3359 L 49.707 -44.3359 Z"/>
  </g>
  <g id="Heavy-M" transform="matrix(1 0 0 1 2576.39 1126)">
   <path d="M 31.0059 12.6465 L 89.6484 12.6465 C 101.416 12.6465 108.154 5.9082 108.154 -5.81055 L 108.154 -64.5508 C 108.154 -76.2695 101.416 -83.0566 89.6484 -83.0566 L 31.0059 -83.0566 C 19.2383 -83.0566 12.4512 -76.3184 12.4512 -64.5508 L 12.4512 -5.81055 C 12.4512 5.9082 19.2383 12.6465 31.0059 12.6465 Z M 33.252 -3.17383 C 29.9316 -3.17383 28.2715 -4.63867 28.2715 -8.1543 L 28.2715 -62.207 C 28.2715 -65.7715 29.9316 -67.2363 33.252 -67.2363 L 87.3535 -67.2363 C 90.6738 -67.2363 92.334 -65.7715 92.334 -62.207 L 92.334 -8.1543 C 92.334 -4.63867 90.6738 -3.17383 87.3535 -3.17383 Z M 53.125 -16.4551 C 55.6152 -16.4551 57.2266 -18.0664 57.2266 -20.459 L 57.2266 -23.584 L 58.1543 -23.584 C 60.4492 -23.584 61.7676 -25.0488 61.7676 -27.3438 C 61.7676 -29.7363 60.4492 -31.2988 58.1543 -31.2988 L 57.2266 -31.2988 L 57.2266 -47.0703 C 57.2266 -51.416 54.9805 -54.0527 50.4883 -54.0527 C 46.4355 -54.0527 44.0918 -52.4414 42.2852 -48.8281 C 40.0391 -44.5312 37.2559 -38.4277 35.8398 -34.8145 C 35.1562 -32.959 34.6191 -31.0547 34.6191 -29.0039 C 34.6191 -25.5371 36.5234 -23.4863 40.1367 -23.4863 L 49.1699 -23.4863 L 49.1699 -20.459 C 49.1699 -18.0664 50.7324 -16.4551 53.125 -16.4551 Z M 78.418 -16.5527 C 81.3965 -16.5527 82.8613 -18.3105 82.8613 -21.8262 L 82.8613 -48.0469 C 82.8613 -51.8066 80.957 -54.0039 77.1973 -54.0039 C 75.293 -54.0039 73.7305 -53.5156 71.3867 -51.3672 L 66.6992 -47.2656 C 64.9902 -45.6543 64.2578 -44.3848 64.2578 -42.6758 C 64.2578 -40.625 65.8691 -38.916 67.8711 -38.916 C 69.4336 -38.916 70.3125 -39.502 71.4355 -40.7715 L 73.6816 -42.9688 L 73.877 -42.9688 L 73.877 -21.8262 C 73.877 -18.3105 75.3906 -16.5527 78.418 -16.5527 Z M 49.1699 -31.2012 L 43.2129 -31.2012 L 43.2129 -31.3965 C 44.5312 -34.8145 47.168 -41.4551 49.0234 -45.6055 L 49.1699 -45.6055 Z"/>
  </g>
  <g id="Bold-M" transform="matrix(1 0 0 1 2280.68 1126)">
   <path d="M 29.8828 11.6699 L 88.7207 11.6699 C 99.9512 11.6699 106.152 5.46875 106.152 -5.66406 L 106.152 -64.6973 C 106.152 -75.8789 99.9512 -82.0312 88.7207 -82.0312 L 29.8828 -82.0312 C 18.6523 -82.0312 12.4512 -75.8789 12.4512 -64.6973 L 12.4512 -5.66406 C 12.4512 5.51758 18.6523 11.6699 29.8828 11.6699 Z M 31.3965 -1.41602 C 27.5391 -1.41602 25.5371 -3.27148 25.5371 -7.32422 L 25.5371 -63.0371 C 25.5371 -67.1387 27.5391 -68.9453 31.3965 -68.9453 L 87.207 -68.9453 C 91.0156 -68.9453 93.0664 -67.1387 93.0664 -63.0371 L 93.0664 -7.32422 C 93.0664 -3.27148 91.0156 -1.41602 87.207 -1.41602 Z M 52.1484 -15.7227 C 54.4434 -15.7227 55.8105 -17.2363 55.8105 -19.4336 L 55.8105 -23.5352 L 57.373 -23.5352 C 59.4727 -23.5352 60.6934 -24.8047 60.6934 -26.9043 C 60.6934 -29.0527 59.4238 -30.4199 57.373 -30.4199 L 55.8105 -30.4199 L 55.8105 -48.6816 C 55.8105 -52.4902 53.7109 -54.834 49.7559 -54.834 C 46.1426 -54.834 43.9941 -53.418 42.2852 -50.0977 C 39.4043 -44.9219 35.8887 -38.0371 33.7891 -33.5938 C 33.1055 -31.8848 32.6172 -30.3223 32.6172 -28.4668 C 32.6172 -25.3418 34.4727 -23.4375 37.6953 -23.4375 L 48.5352 -23.4375 L 48.5352 -19.4336 C 48.5352 -17.2852 49.9023 -15.7227 52.1484 -15.7227 Z M 77.9297 -15.9668 C 80.5664 -15.9668 81.9336 -17.5293 81.9336 -20.459 L 81.9336 -49.5605 C 81.9336 -52.7344 80.2246 -54.6875 77.0508 -54.6875 C 75.2441 -54.6875 73.877 -54.1992 71.7773 -52.3926 L 66.1621 -47.9492 C 64.6484 -46.6309 63.9648 -45.5078 63.9648 -43.9453 C 63.9648 -42.0898 65.4785 -40.4785 67.2852 -40.4785 C 68.6035 -40.4785 69.3359 -40.8691 70.459 -41.9922 L 73.7305 -44.7754 L 73.9746 -44.7754 L 73.9746 -20.459 C 73.9746 -17.5293 75.3418 -15.9668 77.9297 -15.9668 Z M 48.5352 -30.3711 L 40.4785 -30.3711 L 40.4785 -30.5664 C 42.334 -34.7168 45.8008 -42.041 48.3398 -47.0215 L 48.5352 -47.0215 Z"/>
  </g>
  <g id="Semibold-M" transform="matrix(1 0 0 1 1984.65 1126)">
   <path d="M 29.1016 10.9863 L 88.0859 10.9863 C 98.9746 10.9863 104.785 5.17578 104.785 -5.56641 L 104.785 -64.8438 C 104.785 -75.5859 98.9746 -81.3477 88.0859 -81.3477 L 29.1016 -81.3477 C 18.2617 -81.3477 12.4512 -75.5859 12.4512 -64.8438 L 12.4512 -5.56641 C 12.4512 5.22461 18.2617 10.9863 29.1016 10.9863 Z M 30.127 -0.195312 C 25.8789 -0.195312 23.6328 -2.34375 23.6328 -6.78711 L 23.6328 -63.623 C 23.6328 -68.0664 25.8789 -70.166 30.127 -70.166 L 87.1094 -70.166 C 91.2598 -70.166 93.6035 -68.0664 93.6035 -63.623 L 93.6035 -6.78711 C 93.6035 -2.34375 91.2598 -0.195312 87.1094 -0.195312 Z M 51.4648 -15.1855 C 53.6133 -15.1855 54.8828 -16.6504 54.8828 -18.7988 L 54.8828 -23.4375 L 56.8359 -23.4375 C 58.7402 -23.4375 59.9121 -24.6094 59.9121 -26.5625 C 59.9121 -28.6133 58.7402 -29.834 56.8359 -29.834 L 54.8828 -29.834 L 54.8828 -49.7559 C 54.8828 -53.2227 52.7832 -55.3711 49.2676 -55.3711 C 45.9473 -55.3711 43.9453 -54.0527 42.2852 -50.9766 C 38.9648 -45.2148 34.9121 -37.7441 32.373 -32.8125 C 31.6406 -31.1523 31.25 -29.7852 31.25 -28.125 C 31.25 -25.1465 33.0566 -23.3887 36.0352 -23.3887 L 48.0957 -23.3887 L 48.0957 -18.7988 C 48.0957 -16.6992 49.3164 -15.1855 51.4648 -15.1855 Z M 77.6367 -15.5273 C 79.9805 -15.5273 81.2988 -16.9434 81.2988 -19.5312 L 81.2988 -50.6348 C 81.2988 -53.418 79.6875 -55.1758 76.9531 -55.1758 C 75.1953 -55.1758 74.0234 -54.6875 72.0215 -53.0762 L 65.7715 -48.4375 C 64.4043 -47.3145 63.7695 -46.2891 63.7695 -44.8242 C 63.7695 -43.0664 65.2344 -41.5527 66.8945 -41.5527 C 68.0176 -41.5527 68.6523 -41.8457 69.7754 -42.8711 L 73.7793 -46.0449 L 74.0234 -46.0449 L 74.0234 -19.5312 C 74.0234 -16.9434 75.3418 -15.5273 77.6367 -15.5273 Z M 48.0957 -29.7852 L 38.5742 -29.7852 L 38.5742 -30.0293 C 40.8203 -34.6191 44.8242 -42.4316 47.8516 -47.998 L 48.0957 -47.998 Z"/>
  </g>
  <g id="Medium-M" transform="matrix(1 0 0 1 1688.47 1126)">
   <path d="M 28.5156 10.4492 L 87.6465 10.4492 C 98.2422 10.4492 103.711 4.98047 103.711 -5.46875 L 103.711 -64.8926 C 103.711 -75.3418 98.2422 -80.8105 87.6465 -80.8105 L 28.5156 -80.8105 C 17.9688 -80.8105 12.4512 -75.3906 12.4512 -64.8926 L 12.4512 -5.46875 C 12.4512 4.98047 17.9688 10.4492 28.5156 10.4492 Z M 29.1504 0.732422 C 24.6582 0.732422 22.168 -1.61133 22.168 -6.34766 L 22.168 -64.0137 C 22.168 -68.75 24.6582 -71.0938 29.1504 -71.0938 L 87.0117 -71.0938 C 91.4551 -71.0938 93.9941 -68.75 93.9941 -64.0137 L 93.9941 -6.34766 C 93.9941 -1.61133 91.4551 0.732422 87.0117 0.732422 Z M 50.9277 -14.7949 C 53.0273 -14.7949 54.1504 -16.2598 54.1504 -18.2617 L 54.1504 -23.3887 L 56.3965 -23.3887 C 58.252 -23.3887 59.375 -24.5117 59.375 -26.3672 C 59.375 -28.2715 58.252 -29.3945 56.3965 -29.3945 L 54.1504 -29.3945 L 54.1504 -50.5859 C 54.1504 -53.7598 52.1484 -55.7617 48.877 -55.7617 C 45.8008 -55.7617 43.8965 -54.5898 42.2852 -51.6602 C 38.623 -45.4102 34.1797 -37.5488 31.3477 -32.1777 C 30.5664 -30.6152 30.2246 -29.3457 30.2246 -27.832 C 30.2246 -25.0488 31.9824 -23.3887 34.7168 -23.3887 L 47.7539 -23.3887 L 47.7539 -18.2617 C 47.7539 -16.2598 48.877 -14.7949 50.9277 -14.7949 Z M 77.3926 -15.1855 C 79.541 -15.1855 80.8105 -16.5527 80.8105 -18.8477 L 80.8105 -51.416 C 80.8105 -53.9062 79.2969 -55.5176 76.8555 -55.5176 C 75.1953 -55.5176 74.0723 -55.0293 72.2168 -53.6133 L 65.4297 -48.8281 C 64.2578 -47.8516 63.623 -46.875 63.623 -45.5078 C 63.623 -43.7988 65.0391 -42.3828 66.6016 -42.3828 C 67.5781 -42.3828 68.1152 -42.5781 69.2383 -43.5059 L 73.7793 -46.9727 L 74.0234 -46.9727 L 74.0234 -18.8477 C 74.0234 -16.5527 75.293 -15.1855 77.3926 -15.1855 Z M 47.7539 -29.3457 L 37.1582 -29.3457 L 37.1582 -29.5898 C 39.6484 -34.5703 44.0918 -42.7246 47.5098 -48.7305 L 47.7539 -48.7305 Z"/>
  </g>
  <g id="Regular-M" transform="matrix(1 0 0 1 1392.45 1126)">
   <path d="M 27.7832 9.76562 L 87.0117 9.76562 C 97.2656 9.76562 102.344 4.6875 102.344 -5.37109 L 102.344 -64.9902 C 102.344 -75.0488 97.2656 -80.127 87.0117 -80.127 L 27.7832 -80.127 C 17.5781 -80.127 12.4512 -75.0977 12.4512 -64.9902 L 12.4512 -5.37109 C 12.4512 4.73633 17.5781 9.76562 27.7832 9.76562 Z M 27.8809 1.9043 C 22.998 1.9043 20.3125 -0.683594 20.3125 -5.76172 L 20.3125 -64.5996 C 20.3125 -69.6777 22.998 -72.2656 27.8809 -72.2656 L 86.9141 -72.2656 C 91.748 -72.2656 94.4824 -69.6777 94.4824 -64.5996 L 94.4824 -5.76172 C 94.4824 -0.683594 91.748 1.9043 86.9141 1.9043 Z M 50.2441 -14.3066 C 52.1973 -14.3066 53.2227 -15.6738 53.2227 -17.5781 L 53.2227 -23.3398 L 55.8594 -23.3398 C 57.5684 -23.3398 58.6426 -24.3164 58.6426 -26.0254 C 58.6426 -27.7832 57.5684 -28.8086 55.8594 -28.8086 L 53.2227 -28.8086 L 53.2227 -51.6602 C 53.2227 -54.4922 51.2695 -56.2988 48.3887 -56.2988 C 45.5566 -56.2988 43.8477 -55.2246 42.2363 -52.5391 C 38.1836 -45.7031 33.252 -37.3047 29.9805 -31.3965 C 29.1504 -29.8828 28.9062 -28.8086 28.9062 -27.4902 C 28.9062 -24.9023 30.5664 -23.3398 33.0566 -23.3398 L 47.3145 -23.3398 L 47.3145 -17.5781 C 47.3145 -15.7227 48.3398 -14.3066 50.2441 -14.3066 Z M 77.0996 -14.7949 C 78.9551 -14.7949 80.1758 -16.0156 80.1758 -17.9199 L 80.1758 -52.4902 C 80.1758 -54.541 78.8086 -56.0059 76.7578 -56.0059 C 75.1465 -56.0059 74.2188 -55.5176 72.4609 -54.3457 L 65.0391 -49.2676 C 64.0137 -48.5352 63.4277 -47.6562 63.4277 -46.3867 C 63.4277 -44.7266 64.7949 -43.457 66.2109 -43.457 C 66.9922 -43.457 67.4805 -43.5059 68.6035 -44.3848 L 73.8281 -48.2422 L 74.0723 -48.2422 L 74.0723 -17.9199 C 74.0723 -16.0156 75.293 -14.7949 77.0996 -14.7949 Z M 47.3145 -28.8086 L 35.2539 -28.8086 L 35.2539 -29.0039 C 38.1348 -34.5215 43.1641 -43.1152 47.0703 -49.707 L 47.3145 -49.707 Z"/>
  </g>
  <g id="Light-M" transform="matrix(1 0 0 1 1096.47 1126)">
   <path d="M 26.8555 9.0332 L 86.4746 9.0332 C 95.9961 9.0332 100.879 4.15039 100.879 -5.22461 L 100.879 -65.0879 C 100.879 -74.5117 95.9961 -79.3945 86.4746 -79.3945 L 26.8555 -79.3945 C 17.334 -79.3945 12.4512 -74.5605 12.4512 -65.0879 L 12.4512 -5.22461 C 12.4512 4.19922 17.334 9.0332 26.8555 9.0332 Z M 26.9531 2.97852 C 21.4844 2.97852 18.5059 0.0976562 18.5059 -5.56641 L 18.5059 -64.7949 C 18.5059 -70.4102 21.4844 -73.3398 26.9531 -73.3398 L 86.3281 -73.3398 C 91.748 -73.3398 94.8242 -70.4102 94.8242 -64.7949 L 94.8242 -5.56641 C 94.8242 0.0976562 91.748 2.97852 86.3281 2.97852 Z M 49.5117 -14.6484 C 51.123 -14.6484 51.9531 -15.7227 51.9531 -17.2363 L 51.9531 -24.0234 L 55.5664 -24.0234 C 56.9336 -24.0234 57.7637 -24.8047 57.7637 -26.1719 C 57.7637 -27.5879 56.8848 -28.418 55.5664 -28.418 L 51.9531 -28.418 L 51.9531 -52.3438 C 51.9531 -54.5898 50.3418 -56.0547 48.0957 -56.0547 C 45.8008 -56.0547 44.4336 -55.2246 43.1152 -53.0273 C 39.0625 -46.5332 32.7148 -36.2793 29.248 -30.4688 C 28.6621 -29.3457 28.3691 -28.418 28.3691 -27.3926 C 28.3691 -25.2441 29.834 -24.0234 31.8848 -24.0234 L 47.168 -24.0234 L 47.168 -17.2363 C 47.168 -15.7715 48.0469 -14.6484 49.5117 -14.6484 Z M 76.123 -14.9414 C 77.6367 -14.9414 78.5645 -15.9668 78.5645 -17.4805 L 78.5645 -52.9297 C 78.5645 -54.5898 77.4414 -55.7129 75.8301 -55.7129 C 74.5605 -55.7129 73.7793 -55.3711 72.4609 -54.4922 L 64.209 -48.9746 C 63.3789 -48.3398 62.9395 -47.6562 62.9395 -46.6797 C 62.9395 -45.3613 64.0137 -44.3359 65.1855 -44.3359 C 65.7715 -44.3359 66.1133 -44.3848 66.9434 -44.9707 L 73.4375 -49.5117 L 73.6816 -49.5117 L 73.6816 -17.4805 C 73.6816 -15.9668 74.6582 -14.9414 76.123 -14.9414 Z M 47.168 -28.418 L 33.5938 -28.418 L 33.5938 -28.6133 C 36.377 -33.7402 43.3594 -44.8242 46.9727 -50.6836 L 47.168 -50.6836 Z"/>
  </g>
  <g id="Thin-M" transform="matrix(1 0 0 1 800.758 1126)">
   <path d="M 25.6348 8.05664 L 85.7422 8.05664 C 94.3848 8.05664 98.877 3.4668 98.877 -5.0293 L 98.877 -65.2344 C 98.877 -73.7305 94.3848 -78.3691 85.7422 -78.3691 L 25.6348 -78.3691 C 16.9922 -78.3691 12.4512 -73.877 12.4512 -65.2344 L 12.4512 -5.0293 C 12.4512 3.56445 16.9922 8.05664 25.6348 8.05664 Z M 25.7324 4.44336 C 19.3848 4.44336 16.0645 1.12305 16.0645 -5.22461 L 16.0645 -65.0391 C 16.0645 -71.4355 19.3848 -74.7559 25.7324 -74.7559 L 85.5957 -74.7559 C 91.748 -74.7559 95.2637 -71.4355 95.2637 -65.0391 L 95.2637 -5.22461 C 95.2637 1.12305 91.748 4.44336 85.5957 4.44336 Z M 48.6328 -15.0879 C 49.6582 -15.0879 50.2441 -15.7715 50.2441 -16.7969 L 50.2441 -24.8535 L 55.127 -24.8535 C 56.0547 -24.8535 56.6406 -25.4883 56.6406 -26.3672 C 56.6406 -27.2949 56.0059 -27.9297 55.127 -27.9297 L 50.2441 -27.9297 L 50.2441 -53.1738 C 50.2441 -54.6875 49.1699 -55.6641 47.6562 -55.6641 C 46.1426 -55.6641 45.2148 -55.1758 44.2383 -53.6621 C 40.2832 -47.7051 31.9336 -34.9121 28.3203 -29.248 C 27.9297 -28.6133 27.7344 -27.8809 27.7344 -27.2461 C 27.7344 -25.6836 28.7598 -24.8535 30.3223 -24.8535 L 47.0215 -24.8535 L 47.0215 -16.7969 C 47.0215 -15.7715 47.6562 -15.0879 48.6328 -15.0879 Z M 74.8047 -15.1855 C 75.8301 -15.1855 76.416 -15.8691 76.416 -16.8457 L 76.416 -53.5645 C 76.416 -54.6875 75.6348 -55.3711 74.5605 -55.3711 C 73.7305 -55.3711 73.2422 -55.1758 72.4609 -54.6875 L 63.0859 -48.5352 C 62.5 -48.1445 62.2559 -47.6562 62.2559 -47.0703 C 62.2559 -46.1914 62.9395 -45.5078 63.7695 -45.5078 C 64.1602 -45.5078 64.3555 -45.5078 64.7949 -45.8008 L 72.9492 -51.2207 L 73.1445 -51.2207 L 73.1445 -16.8457 C 73.1445 -15.8691 73.877 -15.1855 74.8047 -15.1855 Z M 47.0215 -27.9297 L 31.3477 -27.9297 L 31.3477 -28.0762 C 34.082 -32.7637 43.6035 -47.1191 46.875 -52.002 L 47.0215 -52.002 Z"/>
  </g>
  <g id="Ultralight-M" transform="matrix(1 0 0 1 504.535 1126)">
   <path d="M 25 7.56836 L 85.3516 7.56836 C 93.5059 7.56836 97.9004 3.125 97.9004 -4.98047 L 97.9004 -65.2832 C 97.9004 -73.3887 93.5059 -77.832 85.3516 -77.832 L 25 -77.832 C 16.7969 -77.832 12.4512 -73.4863 12.4512 -65.2832 L 12.4512 -4.98047 C 12.4512 3.22266 16.7969 7.56836 25 7.56836 Z M 25.0977 5.17578 C 18.3594 5.17578 14.8438 1.66016 14.8438 -5.07812 L 14.8438 -65.1855 C 14.8438 -71.9727 18.3594 -75.4395 25.0977 -75.4395 L 85.2051 -75.4395 C 91.748 -75.4395 95.5078 -71.9727 95.5078 -65.1855 L 95.5078 -5.07812 C 95.5078 1.66016 91.748 5.17578 85.2051 5.17578 Z M 48.1445 -15.332 C 48.9258 -15.332 49.3652 -15.8203 49.3652 -16.5527 L 49.3652 -25.3418 L 54.8828 -25.3418 C 55.6152 -25.3418 56.0547 -25.8301 56.0547 -26.4648 C 56.0547 -27.1484 55.5664 -27.6855 54.8828 -27.6855 L 49.3652 -27.6855 L 49.3652 -53.6133 C 49.3652 -54.7852 48.584 -55.5176 47.4121 -55.5176 C 46.3379 -55.5176 45.6055 -55.127 44.7754 -54.0039 C 40.8691 -48.291 31.543 -34.2285 27.832 -28.6133 C 27.5879 -28.2715 27.3926 -27.6367 27.3926 -27.1484 C 27.3926 -25.9277 28.2715 -25.3418 29.541 -25.3418 L 46.9238 -25.3418 L 46.9238 -16.5527 C 46.9238 -15.8203 47.4609 -15.332 48.1445 -15.332 Z M 74.1211 -15.332 C 74.9023 -15.332 75.3418 -15.8203 75.3418 -16.5527 L 75.3418 -53.8574 C 75.3418 -54.6875 74.707 -55.1758 73.9258 -55.1758 C 73.3398 -55.1758 72.9492 -55.0781 72.4609 -54.7852 L 62.5488 -48.3398 C 62.0605 -48.0469 61.9141 -47.6562 61.9141 -47.2656 C 61.9141 -46.6309 62.4023 -46.0938 63.0859 -46.0938 C 63.3301 -46.0938 63.4277 -46.0938 63.6719 -46.1914 L 72.7051 -52.0996 L 72.9004 -52.0996 L 72.9004 -16.5527 C 72.9004 -15.8203 73.4375 -15.332 74.1211 -15.332 Z M 46.9238 -27.6855 L 30.1758 -27.6855 L 30.1758 -27.832 C 32.8613 -32.2266 43.75 -48.3398 46.7773 -52.6367 L 46.9238 -52.6367 Z"/>
  </g>
  <g id="Black-S" transform="matrix(1 0 0 1 2885.5 696)">
   <path d="M 25 2.92969 L 70.8008 2.92969 C 80.3711 2.92969 86.0352 -2.73438 86.0352 -12.3047 L 86.0352 -58.1055 C 86.0352 -67.6758 80.3711 -73.3398 70.8008 -73.3398 L 25 -73.3398 C 15.4297 -73.3398 9.76562 -67.6758 9.76562 -58.1055 L 9.76562 -12.3047 C 9.76562 -2.73438 15.4297 2.92969 25 2.92969 Z M 27.2461 -11.2305 C 25 -11.2305 23.9258 -12.1094 23.9258 -14.5508 L 23.9258 -55.8594 C 23.9258 -58.3008 25 -59.1797 27.2461 -59.1797 L 68.5547 -59.1797 C 70.8008 -59.1797 71.875 -58.3008 71.875 -55.8594 L 71.875 -14.5508 C 71.875 -12.1094 70.8008 -11.2305 68.5547 -11.2305 Z M 42.2852 -20.9961 C 44.3359 -20.9961 45.7031 -22.3145 45.7031 -24.2676 L 45.7031 -26.1719 L 46.0449 -26.1719 C 47.998 -26.1719 49.0723 -27.3926 49.0723 -29.3457 C 49.0723 -31.3477 47.998 -32.7148 46.0449 -32.7148 L 45.7031 -32.7148 L 45.7031 -43.5059 C 45.7031 -47.2656 43.8965 -49.5117 39.9902 -49.5117 C 36.5723 -49.5117 34.5703 -48.0957 33.1055 -45.0684 C 31.7383 -42.2363 30.0781 -37.9883 29.3457 -35.6445 C 28.8574 -34.1309 28.3691 -32.4707 28.3691 -30.6641 C 28.3691 -27.7832 29.9316 -26.0742 33.0078 -26.0742 L 38.916 -26.0742 L 38.916 -24.2676 C 38.916 -22.3145 40.2832 -20.9961 42.2852 -20.9961 Z M 61.7188 -20.9961 C 64.3066 -20.9961 65.5273 -22.4609 65.5273 -25.5859 L 65.5273 -44.2871 C 65.5273 -47.6074 63.916 -49.5117 60.5957 -49.5117 C 59.0332 -49.5117 57.666 -49.1211 55.7129 -47.2168 L 52.6367 -44.2383 C 51.123 -42.7734 50.5371 -41.6992 50.5371 -40.2344 C 50.5371 -38.5742 51.8555 -37.1094 53.5645 -37.1094 C 54.9316 -37.1094 55.7129 -37.6953 56.5918 -38.7695 L 57.7148 -40.1367 L 57.8613 -40.1367 L 57.8613 -25.5859 C 57.8613 -22.4609 59.082 -20.9961 61.7188 -20.9961 Z M 38.916 -32.6172 L 35.5957 -32.6172 L 35.5957 -32.7637 C 36.3281 -34.9609 37.8418 -39.7461 38.8184 -42.4316 L 38.916 -42.4316 Z"/>
  </g>
  <g id="Heavy-S" transform="matrix(1 0 0 1 2589.4 696)">
   <path d="M 24.3652 2.34375 L 70.2637 2.34375 C 79.541 2.34375 84.8145 -2.97852 84.8145 -12.207 L 84.8145 -58.2031 C 84.8145 -67.4316 79.541 -72.7539 70.2637 -72.7539 L 24.3652 -72.7539 C 15.0879 -72.7539 9.76562 -67.4316 9.76562 -58.2031 L 9.76562 -12.207 C 9.76562 -2.97852 15.0879 2.34375 24.3652 2.34375 Z M 26.0742 -10.1562 C 23.5352 -10.1562 22.2656 -11.2793 22.2656 -14.0137 L 22.2656 -56.3965 C 22.2656 -59.1309 23.5352 -60.2539 26.0742 -60.2539 L 68.5059 -60.2539 C 71.0449 -60.2539 72.3633 -59.1309 72.3633 -56.3965 L 72.3633 -14.0137 C 72.3633 -11.2793 71.0449 -10.1562 68.5059 -10.1562 Z M 41.6504 -20.459 C 43.6523 -20.459 44.9219 -21.7285 44.9219 -23.6328 L 44.9219 -26.0254 L 45.5566 -26.0254 C 47.3633 -26.0254 48.4375 -27.1484 48.4375 -29.0039 C 48.4375 -30.9082 47.3633 -32.1777 45.5566 -32.1777 L 44.9219 -32.1777 L 44.9219 -44.5312 C 44.9219 -47.9492 43.1152 -50.0488 39.5508 -50.0488 C 36.3281 -50.0488 34.4727 -48.7793 33.0078 -45.8984 C 31.2012 -42.4316 29.1992 -37.8418 28.0273 -34.9609 C 27.4902 -33.4473 27.0508 -31.9824 27.0508 -30.3223 C 27.0508 -27.5879 28.6133 -25.9766 31.4453 -25.9766 L 38.4766 -25.9766 L 38.4766 -23.6328 C 38.4766 -21.7285 39.7461 -20.459 41.6504 -20.459 Z M 61.5234 -20.5566 C 63.8672 -20.5566 65.0879 -21.9238 65.0879 -24.707 L 65.0879 -45.2637 C 65.0879 -48.2422 63.5742 -50 60.5957 -50 C 59.082 -50 57.8125 -49.6094 55.957 -47.9004 L 52.3438 -44.7266 C 50.9766 -43.457 50.3906 -42.4805 50.3906 -41.0645 C 50.3906 -39.4531 51.709 -38.0859 53.2715 -38.0859 C 54.4922 -38.0859 55.1758 -38.5254 56.1035 -39.5508 L 57.7637 -41.2109 L 57.959 -41.2109 L 57.959 -24.707 C 57.959 -21.9238 59.1309 -20.5566 61.5234 -20.5566 Z M 38.4766 -32.0801 L 33.8867 -32.0801 L 33.8867 -32.2266 C 35.0098 -34.9609 36.8652 -39.9414 38.3789 -43.3105 L 38.4766 -43.3105 Z"/>
  </g>
  <g id="Bold-S" transform="matrix(1 0 0 1 2293.35 696)">
   <path d="M 23.6328 1.66016 L 69.6289 1.66016 C 78.6133 1.66016 83.4961 -3.22266 83.4961 -12.1094 L 83.4961 -58.3008 C 83.4961 -67.1875 78.6133 -72.0703 69.6289 -72.0703 L 23.6328 -72.0703 C 14.6973 -72.0703 9.76562 -67.1875 9.76562 -58.3008 L 9.76562 -12.1094 C 9.76562 -3.22266 14.6973 1.66016 23.6328 1.66016 Z M 24.8047 -8.93555 C 21.9238 -8.93555 20.3613 -10.3516 20.3613 -13.4277 L 20.3613 -56.9824 C 20.3613 -60.0586 21.9238 -61.4746 24.8047 -61.4746 L 68.457 -61.4746 C 71.3379 -61.4746 72.9004 -60.0586 72.9004 -56.9824 L 72.9004 -13.4277 C 72.9004 -10.3516 71.3379 -8.93555 68.457 -8.93555 Z M 40.9668 -19.8242 C 42.8711 -19.8242 43.9941 -21.0938 43.9941 -22.9004 L 43.9941 -25.8789 L 44.9707 -25.8789 C 46.6797 -25.8789 47.7051 -26.9043 47.7051 -28.6621 C 47.7051 -30.4199 46.6797 -31.543 44.9707 -31.543 L 43.9941 -31.543 L 43.9941 -45.6543 C 43.9941 -48.7793 42.2363 -50.6836 39.0137 -50.6836 C 36.084 -50.6836 34.3262 -49.5117 32.9102 -46.8262 C 30.6152 -42.627 28.2227 -37.6465 26.5625 -34.1797 C 25.9766 -32.7148 25.6348 -31.4453 25.6348 -29.9316 C 25.6348 -27.3926 27.1484 -25.8301 29.7363 -25.8301 L 38.0371 -25.8301 L 38.0371 -22.9004 C 38.0371 -21.1426 39.1602 -19.8242 40.9668 -19.8242 Z M 61.2793 -20.0684 C 63.4277 -20.0684 64.5508 -21.3379 64.5508 -23.7305 L 64.5508 -46.3867 C 64.5508 -48.9746 63.1348 -50.5859 60.5957 -50.5859 C 59.1309 -50.5859 58.0078 -50.1465 56.25 -48.6816 L 52.002 -45.3125 C 50.7812 -44.2383 50.2441 -43.3594 50.2441 -42.041 C 50.2441 -40.4785 51.5137 -39.1602 52.9785 -39.1602 C 54.0039 -39.1602 54.5898 -39.502 55.5664 -40.4297 L 57.8613 -42.4805 L 58.0566 -42.4805 L 58.0566 -23.7305 C 58.0566 -21.3379 59.1797 -20.0684 61.2793 -20.0684 Z M 38.0371 -31.4941 L 32.0312 -31.4941 L 32.0312 -31.6406 C 33.5449 -35.0098 35.791 -40.1367 37.8418 -44.2871 L 38.0371 -44.2871 Z"/>
  </g>
  <g id="Semibold-S" transform="matrix(1 0 0 1 1997.1 696)">
   <path d="M 23.0957 1.17188 L 69.1895 1.17188 C 77.9297 1.17188 82.5684 -3.36914 82.5684 -12.0117 L 82.5684 -58.3984 C 82.5684 -67.041 77.9297 -71.582 69.1895 -71.582 L 23.0957 -71.582 C 14.4043 -71.582 9.76562 -67.041 9.76562 -58.3984 L 9.76562 -12.0117 C 9.76562 -3.36914 14.4043 1.17188 23.0957 1.17188 Z M 23.877 -8.10547 C 20.752 -8.10547 19.0918 -9.7168 19.0918 -12.9883 L 19.0918 -57.4219 C 19.0918 -60.6934 20.752 -62.3047 23.877 -62.3047 L 68.4082 -62.3047 C 71.5332 -62.3047 73.2422 -60.6934 73.2422 -57.4219 L 73.2422 -12.9883 C 73.2422 -9.7168 71.5332 -8.10547 68.4082 -8.10547 Z M 40.5273 -19.3848 C 42.334 -19.3848 43.4082 -20.6543 43.4082 -22.4121 L 43.4082 -25.7812 L 44.6289 -25.7812 C 46.2402 -25.7812 47.2168 -26.7578 47.2168 -28.418 C 47.2168 -30.0781 46.2402 -31.1035 44.6289 -31.1035 L 43.4082 -31.1035 L 43.4082 -46.4355 C 43.4082 -49.3164 41.6504 -51.123 38.6719 -51.123 C 35.8887 -51.123 34.2285 -50 32.8125 -47.4609 C 30.2246 -42.7734 27.5391 -37.5488 25.5859 -33.5938 C 24.9512 -32.2266 24.6094 -31.0547 24.6094 -29.6875 C 24.6094 -27.1973 26.123 -25.7324 28.5645 -25.7324 L 37.6953 -25.7324 L 37.6953 -22.4121 C 37.6953 -20.7031 38.7207 -19.3848 40.5273 -19.3848 Z M 61.1328 -19.7266 C 63.0859 -19.7266 64.209 -20.8984 64.209 -23.0957 L 64.209 -47.168 C 64.209 -49.4629 62.8906 -50.9277 60.5957 -50.9277 C 59.1309 -50.9277 58.1055 -50.5371 56.4453 -49.2188 L 51.7578 -45.7031 C 50.6836 -44.7754 50.0977 -43.9453 50.0977 -42.6758 C 50.0977 -41.1621 51.3672 -39.9414 52.7344 -39.9414 C 53.6621 -39.9414 54.1992 -40.1367 55.1758 -41.0156 L 57.9102 -43.3105 L 58.1055 -43.3105 L 58.1055 -23.0957 C 58.1055 -20.8984 59.2285 -19.7266 61.1328 -19.7266 Z M 37.6953 -31.1035 L 30.7129 -31.1035 L 30.7129 -31.25 C 32.5195 -35.0098 35.0098 -40.2832 37.5 -44.9219 L 37.6953 -44.9219 Z"/>
  </g>
  <g id="Medium-S" transform="matrix(1 0 0 1 1700.75 696)">
   <path d="M 22.7051 0.830078 L 68.8965 0.830078 C 77.4414 0.830078 81.8359 -3.51562 81.8359 -11.9629 L 81.8359 -58.4473 C 81.8359 -66.8945 77.4414 -71.2402 68.8965 -71.2402 L 22.7051 -71.2402 C 14.209 -71.2402 9.76562 -66.8945 9.76562 -58.4473 L 9.76562 -11.9629 C 9.76562 -3.51562 14.209 0.830078 22.7051 0.830078 Z M 23.1934 -7.4707 C 19.9219 -7.4707 18.0664 -9.22852 18.0664 -12.6953 L 18.0664 -57.7148 C 18.0664 -61.1816 19.9219 -62.9395 23.1934 -62.9395 L 68.4082 -62.9395 C 71.6797 -62.9395 73.5352 -61.1816 73.5352 -57.7148 L 73.5352 -12.6953 C 73.5352 -9.22852 71.6797 -7.4707 68.4082 -7.4707 Z M 40.1367 -19.0918 C 41.9434 -19.0918 42.9199 -20.3125 42.9199 -22.0703 L 42.9199 -25.6836 L 44.3359 -25.6836 C 45.8496 -25.6836 46.8262 -26.6113 46.8262 -28.2227 C 46.8262 -29.834 45.8496 -30.8105 44.3359 -30.8105 L 42.9199 -30.8105 L 42.9199 -47.0215 C 42.9199 -49.707 41.1621 -51.416 38.4277 -51.416 C 35.7422 -51.416 34.1797 -50.3906 32.7637 -47.9492 C 29.8828 -42.8711 27.002 -37.4512 24.8047 -33.2031 C 24.1211 -31.8359 23.877 -30.7617 23.877 -29.4922 C 23.877 -27.0996 25.3418 -25.6836 27.6367 -25.6836 L 37.4512 -25.6836 L 37.4512 -22.0703 C 37.4512 -20.3613 38.4277 -19.0918 40.1367 -19.0918 Z M 61.0352 -19.4336 C 62.8418 -19.4336 63.9648 -20.6055 63.9648 -22.5586 L 63.9648 -47.7539 C 63.9648 -49.8535 62.6465 -51.2207 60.5957 -51.2207 C 59.1797 -51.2207 58.2031 -50.8301 56.5918 -49.6094 L 51.6113 -45.9961 C 50.5859 -45.2148 50.0488 -44.3848 50.0488 -43.2129 C 50.0488 -41.6992 51.2695 -40.5273 52.5879 -40.5273 C 53.418 -40.5273 53.9062 -40.625 54.8828 -41.5039 L 57.959 -43.9453 L 58.1543 -43.9453 L 58.1543 -22.5586 C 58.1543 -20.6055 59.2285 -19.4336 61.0352 -19.4336 Z M 37.4512 -30.7617 L 29.7363 -30.7617 L 29.7363 -30.957 C 31.7383 -35.0098 34.4727 -40.4297 37.2559 -45.459 L 37.4512 -45.459 Z"/>
  </g>
  <g id="Regular-S" transform="matrix(1 0 0 1 1404.51 696)">
   <path d="M 22.2168 0.390625 L 68.457 0.390625 C 76.8066 0.390625 80.9082 -3.71094 80.9082 -11.9141 L 80.9082 -58.4961 C 80.9082 -66.6992 76.8066 -70.8008 68.457 -70.8008 L 22.2168 -70.8008 C 13.916 -70.8008 9.76562 -66.6992 9.76562 -58.4961 L 9.76562 -11.9141 C 9.76562 -3.71094 13.916 0.390625 22.2168 0.390625 Z M 22.3145 -6.68945 C 18.7988 -6.68945 16.7969 -8.54492 16.7969 -12.2559 L 16.7969 -58.1543 C 16.7969 -61.8164 18.7988 -63.7207 22.3145 -63.7207 L 68.3594 -63.7207 C 71.875 -63.7207 73.877 -61.8164 73.877 -58.1543 L 73.877 -12.2559 C 73.877 -8.54492 71.875 -6.68945 68.3594 -6.68945 Z M 39.6973 -18.6523 C 41.4551 -18.6523 42.334 -19.873 42.334 -21.582 L 42.334 -25.5859 L 43.9453 -25.5859 C 45.4102 -25.5859 46.3379 -26.4648 46.3379 -27.9297 C 46.3379 -29.4922 45.4102 -30.3711 43.9453 -30.3711 L 42.334 -30.3711 L 42.334 -47.8027 C 42.334 -50.2441 40.5762 -51.8555 38.0859 -51.8555 C 35.5957 -51.8555 34.082 -50.9277 32.7148 -48.584 C 29.4922 -43.0176 26.3184 -37.3535 23.8281 -32.666 C 23.0957 -31.2988 22.8516 -30.4199 22.8516 -29.248 C 22.8516 -26.9531 24.3652 -25.5859 26.4648 -25.5859 L 37.1582 -25.5859 L 37.1582 -21.582 C 37.1582 -19.9219 37.9883 -18.6523 39.6973 -18.6523 Z M 60.8887 -19.1406 C 62.5488 -19.1406 63.623 -20.2148 63.623 -21.9238 L 63.623 -48.4863 C 63.623 -50.3418 62.4023 -51.6113 60.5957 -51.6113 C 59.1797 -51.6113 58.3496 -51.2207 56.7871 -50.0977 L 51.3672 -46.3867 C 50.4883 -45.7031 49.9023 -44.9707 49.9023 -43.8477 C 49.9023 -42.3828 51.123 -41.2598 52.3926 -41.2598 C 53.0762 -41.2598 53.5156 -41.3086 54.541 -42.0898 L 58.0078 -44.7754 L 58.252 -44.7754 L 58.252 -21.9238 C 58.252 -20.2148 59.2773 -19.1406 60.8887 -19.1406 Z M 37.1582 -30.3711 L 28.4668 -30.3711 L 28.4668 -30.5664 C 30.7129 -35.0586 33.7402 -40.5762 36.9141 -46.0938 L 37.1582 -46.0938 Z"/>
  </g>
  <g id="Light-S" transform="matrix(1 0 0 1 1108.46 696)">
   <path d="M 21.3867 -0.292969 L 67.9688 -0.292969 C 75.7324 -0.292969 79.5898 -4.15039 79.5898 -11.7676 L 79.5898 -58.5938 C 79.5898 -66.2109 75.7324 -70.1172 67.9688 -70.1172 L 21.3867 -70.1172 C 13.6719 -70.1172 9.76562 -66.2598 9.76562 -58.5938 L 9.76562 -11.7676 C 9.76562 -4.15039 13.6719 -0.292969 21.3867 -0.292969 Z M 21.4844 -5.71289 C 17.4316 -5.71289 15.1855 -7.86133 15.1855 -12.0605 L 15.1855 -58.3008 C 15.1855 -62.5 17.4316 -64.6973 21.4844 -64.6973 L 67.8711 -64.6973 C 71.875 -64.6973 74.1699 -62.5 74.1699 -58.3008 L 74.1699 -12.0605 C 74.1699 -7.86133 71.875 -5.71289 67.8711 -5.71289 Z M 39.0625 -18.9453 C 40.4785 -18.9453 41.1621 -19.9219 41.1621 -21.2891 L 41.1621 -26.1719 L 43.6523 -26.1719 C 44.8242 -26.1719 45.6055 -26.9043 45.6055 -28.0762 C 45.6055 -29.2969 44.8242 -30.0293 43.6523 -30.0293 L 41.1621 -30.0293 L 41.1621 -48.3887 C 41.1621 -50.3418 39.7949 -51.6113 37.793 -51.6113 C 35.791 -51.6113 34.5703 -50.8789 33.4473 -48.9746 C 30.2734 -43.75 25.8301 -36.4258 23.1934 -31.8359 C 22.6562 -30.8105 22.4121 -30.0781 22.4121 -29.1504 C 22.4121 -27.2461 23.6328 -26.1719 25.4395 -26.1719 L 37.0117 -26.1719 L 37.0117 -21.2891 C 37.0117 -19.9707 37.7441 -18.9453 39.0625 -18.9453 Z M 60.0098 -19.2871 C 61.3281 -19.2871 62.1582 -20.166 62.1582 -21.4844 L 62.1582 -48.9258 C 62.1582 -50.3906 61.1816 -51.3672 59.7656 -51.3672 C 58.6426 -51.3672 57.959 -51.0742 56.7871 -50.2441 L 50.6348 -46.0938 C 49.9023 -45.5566 49.4629 -44.9707 49.4629 -44.0918 C 49.4629 -42.9199 50.4395 -42.041 51.4648 -42.041 C 52.002 -42.041 52.2949 -42.041 53.0762 -42.627 L 57.666 -45.9473 L 57.9102 -45.9473 L 57.9102 -21.4844 C 57.9102 -20.166 58.7402 -19.2871 60.0098 -19.2871 Z M 37.0117 -30.0293 L 26.9531 -30.0293 L 26.9531 -30.2246 C 29.1992 -34.375 33.8867 -42.0898 36.8164 -46.9727 L 37.0117 -46.9727 Z"/>
  </g>
  <g id="Thin-S" transform="matrix(1 0 0 1 812.599 696)">
   <path d="M 20.3125 -1.12305 L 67.334 -1.12305 C 74.2676 -1.12305 77.8809 -4.78516 77.8809 -11.6211 L 77.8809 -58.6914 C 77.8809 -65.5762 74.2676 -69.2383 67.334 -69.2383 L 20.3125 -69.2383 C 13.3789 -69.2383 9.76562 -65.625 9.76562 -58.6914 L 9.76562 -11.6211 C 9.76562 -4.6875 13.3789 -1.12305 20.3125 -1.12305 Z M 20.4102 -4.44336 C 15.625 -4.44336 13.0859 -6.93359 13.0859 -11.8164 L 13.0859 -58.5449 C 13.0859 -63.3789 15.625 -65.918 20.4102 -65.918 L 67.2363 -65.918 C 71.875 -65.918 74.5605 -63.3789 74.5605 -58.5449 L 74.5605 -11.8164 C 74.5605 -6.93359 71.875 -4.44336 67.2363 -4.44336 Z M 38.2812 -19.3848 C 39.209 -19.3848 39.6973 -19.9707 39.6973 -20.8496 L 39.6973 -26.9531 L 43.2617 -26.9531 C 44.0918 -26.9531 44.5801 -27.4414 44.5801 -28.2715 C 44.5801 -29.0527 44.043 -29.6387 43.2617 -29.6387 L 39.6973 -29.6387 L 39.6973 -49.1211 C 39.6973 -50.4395 38.7695 -51.3184 37.4023 -51.3184 C 36.084 -51.3184 35.2539 -50.8789 34.4238 -49.5605 C 31.2988 -44.7754 25.1953 -35.2539 22.3633 -30.7617 C 22.0215 -30.1758 21.875 -29.5898 21.875 -29.0039 C 21.875 -27.6855 22.7539 -26.9531 24.0723 -26.9531 L 36.8652 -26.9531 L 36.8652 -20.8496 C 36.8652 -19.9707 37.4023 -19.3848 38.2812 -19.3848 Z M 58.8379 -19.4824 C 59.7656 -19.4824 60.3027 -20.0684 60.3027 -20.9473 L 60.3027 -49.4629 C 60.3027 -50.4395 59.6191 -51.0742 58.6426 -51.0742 C 57.9102 -51.0742 57.4707 -50.8789 56.7871 -50.4395 L 49.6582 -45.752 C 49.1211 -45.4102 48.9258 -44.9707 48.9258 -44.4336 C 48.9258 -43.6523 49.5117 -43.0664 50.2441 -43.0664 C 50.5859 -43.0664 50.7324 -43.0664 51.1719 -43.3594 L 57.2754 -47.4121 L 57.4219 -47.4121 L 57.4219 -20.9473 C 57.4219 -20.0684 58.0078 -19.4824 58.8379 -19.4824 Z M 36.8652 -29.6387 L 25 -29.6387 L 25 -29.7363 C 27.1484 -33.4961 34.1309 -44.1406 36.7188 -48.0957 L 36.8652 -48.0957 Z"/>
  </g>
  <g id="Ultralight-S" transform="matrix(1 0 0 1 516.352 696)">
   <path d="M 19.7754 -1.5625 L 66.9922 -1.5625 C 73.5352 -1.5625 76.9531 -5.12695 76.9531 -11.5234 L 76.9531 -58.7891 C 76.9531 -65.2344 73.5352 -68.75 66.9922 -68.75 L 19.7754 -68.75 C 13.2324 -68.75 9.76562 -65.2832 9.76562 -58.7891 L 9.76562 -11.5234 C 9.76562 -5.0293 13.2324 -1.5625 19.7754 -1.5625 Z M 19.873 -3.75977 C 14.6484 -3.75977 11.9629 -6.44531 11.9629 -11.6699 L 11.9629 -58.6426 C 11.9629 -63.8672 14.6484 -66.5527 19.873 -66.5527 L 66.8945 -66.5527 C 71.875 -66.5527 74.7559 -63.8672 74.7559 -58.6426 L 74.7559 -11.6699 C 74.7559 -6.44531 71.875 -3.75977 66.8945 -3.75977 Z M 37.8418 -19.5801 C 38.5254 -19.5801 38.916 -20.0195 38.916 -20.6543 L 38.916 -27.3438 L 43.0664 -27.3438 C 43.7012 -27.3438 44.043 -27.7832 44.043 -28.3691 C 44.043 -28.9551 43.6523 -29.3945 43.0664 -29.3945 L 38.916 -29.3945 L 38.916 -49.5117 C 38.916 -50.5371 38.2324 -51.1719 37.207 -51.1719 C 36.2305 -51.1719 35.5957 -50.8301 34.9609 -49.8535 C 31.8359 -45.3125 24.8535 -34.6191 21.9238 -30.2246 C 21.6797 -29.8828 21.5332 -29.3457 21.5332 -28.9062 C 21.5332 -27.8809 22.2656 -27.3438 23.3398 -27.3438 L 36.7676 -27.3438 L 36.7676 -20.6543 C 36.7676 -20.0195 37.2559 -19.5801 37.8418 -19.5801 Z M 58.252 -19.5801 C 58.9355 -19.5801 59.3262 -20.0195 59.3262 -20.6543 L 59.3262 -49.7559 C 59.3262 -50.4883 58.7891 -50.9277 58.1055 -50.9277 C 57.5684 -50.9277 57.2266 -50.7812 56.7871 -50.5371 L 49.1211 -45.5566 C 48.7305 -45.2637 48.584 -44.9707 48.584 -44.5801 C 48.584 -44.043 49.0234 -43.6035 49.6094 -43.6035 C 49.8047 -43.6035 49.9512 -43.6035 50.1953 -43.7012 L 57.0312 -48.1934 L 57.1777 -48.1934 L 57.1777 -20.6543 C 57.1777 -20.0195 57.666 -19.5801 58.252 -19.5801 Z M 36.7676 -29.3945 L 23.9746 -29.3945 L 23.9746 -29.4922 C 26.0742 -33.0078 34.2285 -45.166 36.6699 -48.6816 L 36.7676 -48.6816 Z"/>
  </g>
 </g>
</svg>
