<?xml version="1.0" encoding="UTF-8"?>
<!--Generator: Apple Native CoreSVG 148-->
<!DOCTYPE svg
PUBLIC "-//W3C//DTD SVG 1.1//EN"
       "http://www.w3.org/Graphics/SVG/1.1/DTD/svg11.dtd">
<svg version="1.1" xmlns="http://www.w3.org/2000/svg" xmlns:xlink="http://www.w3.org/1999/xlink" width="3300" height="2200">
 <!--glyph: "uni1006AB.medium", point size: 100.000000, font version: "Version 16.0d11e1", template writer version: "8"-->
 <g id="Notes">
  <rect height="2200" id="artboard" style="fill:white;opacity:1" width="3300" x="0" y="0"/>
  <line id="" style="fill:none;stroke:black;opacity:1;stroke-width:0.5;" x1="263" x2="3036" y1="292" y2="292"/>
  <text style="stroke:none;fill:black;font-family:-apple-system,&quot;SF Pro Display&quot;,&quot;SF Pro Text&quot;,Helvetica,sans-serif;font-weight:bold;" transform="matrix(1 0 0 1 263 322)">Weight/Scale Variations</text>
  <text style="stroke:none;fill:black;font-family:-apple-system,&quot;SF Pro Display&quot;,&quot;SF Pro Text&quot;,Helvetica,sans-serif;text-anchor:middle;" transform="matrix(1 0 0 1 559.711 322)">Ultralight</text>
  <text style="stroke:none;fill:black;font-family:-apple-system,&quot;SF Pro Display&quot;,&quot;SF Pro Text&quot;,Helvetica,sans-serif;text-anchor:middle;" transform="matrix(1 0 0 1 856.422 322)">Thin</text>
  <text style="stroke:none;fill:black;font-family:-apple-system,&quot;SF Pro Display&quot;,&quot;SF Pro Text&quot;,Helvetica,sans-serif;text-anchor:middle;" transform="matrix(1 0 0 1 1153.13 322)">Light</text>
  <text style="stroke:none;fill:black;font-family:-apple-system,&quot;SF Pro Display&quot;,&quot;SF Pro Text&quot;,Helvetica,sans-serif;text-anchor:middle;" transform="matrix(1 0 0 1 1449.84 322)">Regular</text>
  <text style="stroke:none;fill:black;font-family:-apple-system,&quot;SF Pro Display&quot;,&quot;SF Pro Text&quot;,Helvetica,sans-serif;text-anchor:middle;" transform="matrix(1 0 0 1 1746.56 322)">Medium</text>
  <text style="stroke:none;fill:black;font-family:-apple-system,&quot;SF Pro Display&quot;,&quot;SF Pro Text&quot;,Helvetica,sans-serif;text-anchor:middle;" transform="matrix(1 0 0 1 2043.27 322)">Semibold</text>
  <text style="stroke:none;fill:black;font-family:-apple-system,&quot;SF Pro Display&quot;,&quot;SF Pro Text&quot;,Helvetica,sans-serif;text-anchor:middle;" transform="matrix(1 0 0 1 2339.98 322)">Bold</text>
  <text style="stroke:none;fill:black;font-family:-apple-system,&quot;SF Pro Display&quot;,&quot;SF Pro Text&quot;,Helvetica,sans-serif;text-anchor:middle;" transform="matrix(1 0 0 1 2636.69 322)">Heavy</text>
  <text style="stroke:none;fill:black;font-family:-apple-system,&quot;SF Pro Display&quot;,&quot;SF Pro Text&quot;,Helvetica,sans-serif;text-anchor:middle;" transform="matrix(1 0 0 1 2933.4 322)">Black</text>
  <line id="" style="fill:none;stroke:black;opacity:1;stroke-width:0.5;" x1="263" x2="3036" y1="1903" y2="1903"/>
  <g id="" transform="matrix(1 0 0 1 263 1933)">
   <path d="M 9.24805 0.830078 C 13.5547 0.830078 17.1387 -2.74414 17.1387 -7.05078 C 17.1387 -11.3574 13.5449 -14.9316 9.23828 -14.9316 C 4.94141 -14.9316 1.36719 -11.3574 1.36719 -7.05078 C 1.36719 -2.74414 4.95117 0.830078 9.24805 0.830078 Z M 9.24805 -0.654297 C 5.70312 -0.654297 2.87109 -3.49609 2.87109 -7.05078 C 2.87109 -10.6055 5.69336 -13.4473 9.23828 -13.4473 C 12.793 -13.4473 15.6348 -10.6055 15.6445 -7.05078 C 15.6543 -3.49609 12.8027 -0.654297 9.24805 -0.654297 Z M 9.22852 -3.62305 C 9.69727 -3.62305 9.9707 -3.93555 9.9707 -4.45312 L 9.9707 -6.31836 L 12.002 -6.31836 C 12.5 -6.31836 12.832 -6.57227 12.832 -7.04102 C 12.832 -7.51953 12.5195 -7.7832 12.002 -7.7832 L 9.9707 -7.7832 L 9.9707 -9.81445 C 9.9707 -10.332 9.69727 -10.6543 9.22852 -10.6543 C 8.75977 -10.6543 8.50586 -10.3125 8.50586 -9.81445 L 8.50586 -7.7832 L 6.49414 -7.7832 C 5.97656 -7.7832 5.64453 -7.51953 5.64453 -7.04102 C 5.64453 -6.57227 5.99609 -6.31836 6.49414 -6.31836 L 8.50586 -6.31836 L 8.50586 -4.45312 C 8.50586 -3.95508 8.75977 -3.62305 9.22852 -3.62305 Z"/>
  </g>
  <g id="" transform="matrix(1 0 0 1 281.506 1933)">
   <path d="M 11.709 2.91016 C 17.1582 2.91016 21.6699 -1.61133 21.6699 -7.05078 C 21.6699 -12.5 17.1484 -17.0117 11.6992 -17.0117 C 6.25977 -17.0117 1.74805 -12.5 1.74805 -7.05078 C 1.74805 -1.61133 6.26953 2.91016 11.709 2.91016 Z M 11.709 1.25 C 7.09961 1.25 3.41797 -2.44141 3.41797 -7.05078 C 3.41797 -11.6602 7.08984 -15.3516 11.6992 -15.3516 C 16.3086 -15.3516 20 -11.6602 20.0098 -7.05078 C 20.0195 -2.44141 16.3184 1.25 11.709 1.25 Z M 11.6797 -2.66602 C 12.207 -2.66602 12.5098 -3.01758 12.5098 -3.59375 L 12.5098 -6.23047 L 15.3223 -6.23047 C 15.8691 -6.23047 16.25 -6.51367 16.25 -7.03125 C 16.25 -7.55859 15.8887 -7.86133 15.3223 -7.86133 L 12.5098 -7.86133 L 12.5098 -10.6836 C 12.5098 -11.25 12.207 -11.6113 11.6797 -11.6113 C 11.1621 -11.6113 10.8789 -11.2305 10.8789 -10.6836 L 10.8789 -7.86133 L 8.07617 -7.86133 C 7.50977 -7.86133 7.13867 -7.55859 7.13867 -7.03125 C 7.13867 -6.51367 7.5293 -6.23047 8.07617 -6.23047 L 10.8789 -6.23047 L 10.8789 -3.59375 C 10.8789 -3.03711 11.1621 -2.66602 11.6797 -2.66602 Z"/>
  </g>
  <g id="" transform="matrix(1 0 0 1 304.924 1933)">
   <path d="M 14.9707 5.66406 C 21.9336 5.66406 27.6953 -0.0976562 27.6953 -7.05078 C 27.6953 -14.0137 21.9238 -19.7754 14.9609 -19.7754 C 8.00781 -19.7754 2.25586 -14.0137 2.25586 -7.05078 C 2.25586 -0.0976562 8.01758 5.66406 14.9707 5.66406 Z M 14.9707 3.84766 C 8.93555 3.84766 4.08203 -1.01562 4.08203 -7.05078 C 4.08203 -13.0957 8.92578 -17.9492 14.9609 -17.9492 C 21.0059 -17.9492 25.8594 -13.0957 25.8691 -7.05078 C 25.8789 -1.01562 21.0156 3.84766 14.9707 3.84766 Z M 14.9414 -1.38672 C 15.5176 -1.38672 15.8594 -1.77734 15.8594 -2.38281 L 15.8594 -6.13281 L 19.7754 -6.13281 C 20.3711 -6.13281 20.7812 -6.46484 20.7812 -7.02148 C 20.7812 -7.59766 20.3906 -7.93945 19.7754 -7.93945 L 15.8594 -7.93945 L 15.8594 -11.8652 C 15.8594 -12.4805 15.5176 -12.8711 14.9414 -12.8711 C 14.375 -12.8711 14.0527 -12.4609 14.0527 -11.8652 L 14.0527 -7.93945 L 10.1465 -7.93945 C 9.53125 -7.93945 9.13086 -7.59766 9.13086 -7.02148 C 9.13086 -6.46484 9.55078 -6.13281 10.1465 -6.13281 L 14.0527 -6.13281 L 14.0527 -2.38281 C 14.0527 -1.79688 14.375 -1.38672 14.9414 -1.38672 Z"/>
  </g>
  <text style="stroke:none;fill:black;font-family:-apple-system,&quot;SF Pro Display&quot;,&quot;SF Pro Text&quot;,Helvetica,sans-serif;font-weight:bold;" transform="matrix(1 0 0 1 263 1953)">Design Variations</text>
  <text style="stroke:none;fill:black;font-family:-apple-system,&quot;SF Pro Display&quot;,&quot;SF Pro Text&quot;,Helvetica,sans-serif;" transform="matrix(1 0 0 1 263 1971)">Symbols are supported in up to nine weights and three scales.</text>
  <text style="stroke:none;fill:black;font-family:-apple-system,&quot;SF Pro Display&quot;,&quot;SF Pro Text&quot;,Helvetica,sans-serif;" transform="matrix(1 0 0 1 263 1989)">For optimal layout with text and other symbols, vertically align</text>
  <text style="stroke:none;fill:black;font-family:-apple-system,&quot;SF Pro Display&quot;,&quot;SF Pro Text&quot;,Helvetica,sans-serif;" transform="matrix(1 0 0 1 263 2007)">symbols with the adjacent text.</text>
  <line id="" style="fill:none;stroke:#00AEEF;stroke-width:0.5;opacity:1.0;" x1="776" x2="776" y1="1919" y2="1933"/>
  <g id="" transform="matrix(1 0 0 1 776 1933)">
   <path d="M 3.31055 0.126953 C 3.82812 0.126953 4.08203 -0.0683594 4.26758 -0.605469 L 5.52734 -4.0625 L 11.2891 -4.0625 L 12.5488 -0.605469 C 12.7344 -0.0683594 12.9883 0.126953 13.4961 0.126953 C 14.0137 0.126953 14.3457 -0.185547 14.3457 -0.673828 C 14.3457 -0.839844 14.3164 -0.986328 14.2383 -1.20117 L 9.6582 -13.3887 C 9.43359 -13.9941 9.0332 -14.2871 8.4082 -14.2871 C 7.80273 -14.2871 7.39258 -13.9941 7.17773 -13.3984 L 2.59766 -1.19141 C 2.51953 -0.976562 2.49023 -0.830078 2.49023 -0.664062 C 2.49023 -0.175781 2.80273 0.126953 3.31055 0.126953 Z M 6.00586 -5.53711 L 8.37891 -12.1094 L 8.42773 -12.1094 L 10.8008 -5.53711 Z"/>
  </g>
  <line id="" style="fill:none;stroke:#00AEEF;stroke-width:0.5;opacity:1.0;" x1="792.836" x2="792.836" y1="1919" y2="1933"/>
  <text style="stroke:none;fill:black;font-family:-apple-system,&quot;SF Pro Display&quot;,&quot;SF Pro Text&quot;,Helvetica,sans-serif;font-weight:bold;" transform="matrix(1 0 0 1 776 1953)">Margins</text>
  <text style="stroke:none;fill:black;font-family:-apple-system,&quot;SF Pro Display&quot;,&quot;SF Pro Text&quot;,Helvetica,sans-serif;" transform="matrix(1 0 0 1 776 1971)">Leading and trailing margins on the left and right side of each symbol</text>
  <text style="stroke:none;fill:black;font-family:-apple-system,&quot;SF Pro Display&quot;,&quot;SF Pro Text&quot;,Helvetica,sans-serif;" transform="matrix(1 0 0 1 776 1989)">can be adjusted by modifying the x-location of the margin guidelines.</text>
  <text style="stroke:none;fill:black;font-family:-apple-system,&quot;SF Pro Display&quot;,&quot;SF Pro Text&quot;,Helvetica,sans-serif;" transform="matrix(1 0 0 1 776 2007)">Modifications are automatically applied proportionally to all</text>
  <text style="stroke:none;fill:black;font-family:-apple-system,&quot;SF Pro Display&quot;,&quot;SF Pro Text&quot;,Helvetica,sans-serif;" transform="matrix(1 0 0 1 776 2025)">scales and weights.</text>
  <g id="" transform="matrix(1 0 0 1 1289 1933)">
   <path d="M 2.8418 1.86523 L 4.54102 3.57422 C 5.40039 4.44336 6.38672 4.38477 7.31445 3.35938 L 17.4902 -7.85156 C 17.7539 -7.76367 18.0273 -7.7832 18.3398 -7.8418 L 19.4043 -8.03711 L 20.0684 -7.36328 L 20.0293 -6.80664 C 19.9902 -6.30859 20.1172 -5.92773 20.6055 -5.44922 L 21.3672 -4.70703 C 21.8457 -4.22852 22.4609 -4.19922 22.9297 -4.66797 L 25.8398 -7.58789 C 26.3086 -8.05664 26.2891 -8.65234 25.8105 -9.13086 L 25.0391 -9.89258 C 24.5605 -10.3711 24.1895 -10.5273 23.7109 -10.4883 L 23.1348 -10.4395 L 22.4902 -11.0742 L 22.7344 -12.1973 C 22.8613 -12.7637 22.7051 -13.2031 22.1191 -13.7891 L 19.9219 -15.9766 C 16.582 -19.2969 12.1484 -19.2188 9.25781 -16.3281 C 8.83789 -15.918 8.80859 -15.3418 9.04297 -14.9512 C 9.27734 -14.5898 9.73633 -14.3555 10.3809 -14.5215 C 11.8457 -14.8633 13.3691 -14.9219 14.7949 -13.9844 L 14.209 -12.5293 C 14.0137 -12.0508 13.9844 -11.6504 14.1113 -11.2891 L 3.04688 -0.898438 C 2.06055 0.0195312 1.98242 0.996094 2.8418 1.86523 Z M 10.752 -15.957 C 13.1836 -17.7344 16.4746 -17.4316 18.7012 -15.2051 L 21.1328 -12.793 C 21.3672 -12.5586 21.4062 -12.373 21.3379 -12.0312 L 21.0156 -10.5469 L 22.5195 -9.0625 L 23.5059 -9.12109 C 23.7598 -9.13086 23.8379 -9.11133 24.0332 -8.91602 L 24.6094 -8.33984 L 22.168 -5.89844 L 21.5918 -6.47461 C 21.3965 -6.66992 21.3672 -6.74805 21.377 -7.01172 L 21.4453 -7.98828 L 19.9512 -9.47266 L 18.4277 -9.21875 C 18.1055 -9.15039 17.959 -9.17969 17.7148 -9.41406 L 15.7129 -11.416 C 15.459 -11.6504 15.4297 -11.8164 15.5859 -12.1875 L 16.4648 -14.2773 C 14.9023 -15.7324 12.8711 -16.3574 10.8398 -15.7617 C 10.6836 -15.7227 10.625 -15.8496 10.752 -15.957 Z M 5.27344 2.30469 L 4.10156 1.14258 C 3.63281 0.683594 3.74023 0.341797 4.14062 -0.0195312 L 14.9512 -10.1953 L 16.416 -8.71094 L 6.42578 2.27539 C 6.07422 2.67578 5.74219 2.77344 5.27344 2.30469 Z"/>
  </g>
  <text style="stroke:none;fill:black;font-family:-apple-system,&quot;SF Pro Display&quot;,&quot;SF Pro Text&quot;,Helvetica,sans-serif;font-weight:bold;" transform="matrix(1 0 0 1 1289 1953)">Exporting</text>
  <text style="stroke:none;fill:black;font-family:-apple-system,&quot;SF Pro Display&quot;,&quot;SF Pro Text&quot;,Helvetica,sans-serif;" transform="matrix(1 0 0 1 1289 1971)">Symbols should be outlined when exporting to ensure the</text>
  <text style="stroke:none;fill:black;font-family:-apple-system,&quot;SF Pro Display&quot;,&quot;SF Pro Text&quot;,Helvetica,sans-serif;" transform="matrix(1 0 0 1 1289 1989)">design is preserved when submitting to Xcode.</text>
  <text id="template-version" style="stroke:none;fill:black;font-family:-apple-system,&quot;SF Pro Display&quot;,&quot;SF Pro Text&quot;,Helvetica,sans-serif;text-anchor:end;" transform="matrix(1 0 0 1 3036 1933)">Template v.2.0</text>
  <text style="stroke:none;fill:black;font-family:-apple-system,&quot;SF Pro Display&quot;,&quot;SF Pro Text&quot;,Helvetica,sans-serif;text-anchor:end;" transform="matrix(1 0 0 1 3036 1951)">Requires Xcode 12 or greater</text>
  <text style="stroke:none;fill:black;font-family:-apple-system,&quot;SF Pro Display&quot;,&quot;SF Pro Text&quot;,Helvetica,sans-serif;text-anchor:end;" transform="matrix(1 0 0 1 3036 1969)">Generated from 42.circle</text>
  <text style="stroke:none;fill:black;font-family:-apple-system,&quot;SF Pro Display&quot;,&quot;SF Pro Text&quot;,Helvetica,sans-serif;text-anchor:end;" transform="matrix(1 0 0 1 3036 1987)">Typeset at 100 points</text>
  <text style="stroke:none;fill:black;font-family:-apple-system,&quot;SF Pro Display&quot;,&quot;SF Pro Text&quot;,Helvetica,sans-serif;" transform="matrix(1 0 0 1 263 726)">Small</text>
  <text style="stroke:none;fill:black;font-family:-apple-system,&quot;SF Pro Display&quot;,&quot;SF Pro Text&quot;,Helvetica,sans-serif;" transform="matrix(1 0 0 1 263 1156)">Medium</text>
  <text style="stroke:none;fill:black;font-family:-apple-system,&quot;SF Pro Display&quot;,&quot;SF Pro Text&quot;,Helvetica,sans-serif;" transform="matrix(1 0 0 1 263 1586)">Large</text>
 </g>
 <g id="Guides">
  <g id="H-reference" style="fill:#27AAE1;stroke:none;" transform="matrix(1 0 0 1 339 696)">
   <path d="M 0.976562 0 L 3.66211 0 L 12.9883 -24.4629 L 45.7031 -24.4629 L 55.0781 0 L 57.7148 0 L 30.6152 -70.459 L 28.125 -70.459 Z M 29.2969 -67.1387 L 29.3945 -67.1387 L 44.873 -26.709 L 13.8672 -26.709 Z"/>
  </g>
  <line id="Baseline-S" style="fill:none;stroke:#27AAE1;opacity:1;stroke-width:0.5;" x1="263" x2="3036" y1="696" y2="696"/>
  <line id="Capline-S" style="fill:none;stroke:#27AAE1;opacity:1;stroke-width:0.5;" x1="263" x2="3036" y1="625.541" y2="625.541"/>
  <g id="H-reference" style="fill:#27AAE1;stroke:none;" transform="matrix(1 0 0 1 339 1126)">
   <path d="M 0.976562 0 L 3.66211 0 L 12.9883 -24.4629 L 45.7031 -24.4629 L 55.0781 0 L 57.7148 0 L 30.6152 -70.459 L 28.125 -70.459 Z M 29.2969 -67.1387 L 29.3945 -67.1387 L 44.873 -26.709 L 13.8672 -26.709 Z"/>
  </g>
  <line id="Baseline-M" style="fill:none;stroke:#27AAE1;opacity:1;stroke-width:0.5;" x1="263" x2="3036" y1="1126" y2="1126"/>
  <line id="Capline-M" style="fill:none;stroke:#27AAE1;opacity:1;stroke-width:0.5;" x1="263" x2="3036" y1="1055.54" y2="1055.54"/>
  <g id="H-reference" style="fill:#27AAE1;stroke:none;" transform="matrix(1 0 0 1 339 1556)">
   <path d="M 0.976562 0 L 3.66211 0 L 12.9883 -24.4629 L 45.7031 -24.4629 L 55.0781 0 L 57.7148 0 L 30.6152 -70.459 L 28.125 -70.459 Z M 29.2969 -67.1387 L 29.3945 -67.1387 L 44.873 -26.709 L 13.8672 -26.709 Z"/>
  </g>
  <line id="Baseline-L" style="fill:none;stroke:#27AAE1;opacity:1;stroke-width:0.5;" x1="263" x2="3036" y1="1556" y2="1556"/>
  <line id="Capline-L" style="fill:none;stroke:#27AAE1;opacity:1;stroke-width:0.5;" x1="263" x2="3036" y1="1485.54" y2="1485.54"/>
  <line id="left-margin" style="fill:none;stroke:#00AEEF;stroke-width:0.5;opacity:1.0;" x1="1391.3" x2="1391.3" y1="1030.79" y2="1150.12"/>
  <line id="right-margin" style="fill:none;stroke:#00AEEF;stroke-width:0.5;opacity:1.0;" x1="1508.39" x2="1508.39" y1="1030.79" y2="1150.12"/>
 </g>
 <g id="Symbols">
  <g id="Black-L" transform="matrix(1 0 0 1 2854.05 1556)">
   <path d="M 79.3457 32.8613 C 116.748 32.8613 147.412 2.19727 147.412 -35.2051 C 147.412 -72.6074 116.748 -103.271 79.2969 -103.271 C 41.8945 -103.271 11.2793 -72.6074 11.2793 -35.2051 C 11.2793 2.19727 41.9434 32.8613 79.3457 32.8613 Z M 79.3457 12.4023 C 52.9785 12.4023 31.7383 -8.83789 31.7383 -35.2051 C 31.7383 -61.5723 52.9297 -82.8125 79.2969 -82.8125 C 105.664 -82.8125 126.953 -61.5723 126.953 -35.2051 C 127.002 -8.83789 105.713 12.4023 79.3457 12.4023 Z M 68.2617 -10.6934 C 71.5332 -10.6934 73.584 -12.8418 73.584 -15.9668 L 73.584 -20.0195 L 74.6582 -20.0195 C 77.6855 -20.0195 79.3945 -21.875 79.3945 -24.9023 C 79.3945 -28.0273 77.6855 -30.0293 74.6582 -30.0293 L 73.584 -30.0293 L 73.584 -50.7324 C 73.584 -56.3965 70.6055 -59.8145 64.7461 -59.8145 C 59.5215 -59.8145 56.3965 -57.7148 54.0039 -52.9785 C 50.9277 -47.0703 47.6074 -39.5508 45.6543 -34.6191 C 44.7266 -32.1777 44.043 -29.7852 44.043 -27.0508 C 44.043 -22.5586 46.582 -19.873 51.2207 -19.873 L 63.0371 -19.873 L 63.0371 -15.9668 C 63.0371 -12.8906 65.0879 -10.6934 68.2617 -10.6934 Z M 89.1602 -11.7188 L 108.496 -11.7188 C 111.914 -11.7188 114.111 -13.8184 114.111 -17.3828 C 114.111 -20.8008 111.914 -22.8027 108.496 -22.8027 L 98.9746 -22.8027 L 98.9746 -23.3398 L 105.518 -30.957 C 110.059 -36.2305 112.744 -40.4297 112.695 -45.9961 C 112.549 -54.1016 106.982 -59.8145 97.9004 -59.8145 C 90.918 -59.8145 84.8633 -55.7129 83.1543 -49.6582 C 82.9102 -48.6328 82.7148 -47.7539 82.7148 -46.6797 C 82.7148 -43.6523 84.668 -41.5527 87.6953 -41.5527 C 90.5273 -41.5527 91.9922 -43.1152 92.7246 -45.2637 C 93.6035 -47.7051 95.3125 -49.0723 97.6074 -49.0723 C 100.195 -49.0723 102.1 -47.2656 102.1 -44.9707 C 102.1 -42.0898 99.8047 -39.8438 97.1191 -36.6211 L 86.3281 -23.9258 C 84.2773 -21.582 83.4961 -19.6777 83.4961 -17.4316 C 83.4961 -13.9648 85.9863 -11.7188 89.1602 -11.7188 Z M 63.0371 -29.9316 L 55.2734 -29.9316 L 55.2734 -30.1758 C 57.1777 -34.8633 60.2051 -42.9199 62.8418 -48.6816 L 63.0371 -48.6816 Z"/>
  </g>
  <g id="Heavy-L" transform="matrix(1 0 0 1 2558.39 1556)">
   <path d="M 78.2715 31.7871 C 115.088 31.7871 145.312 1.5625 145.312 -35.2051 C 145.312 -72.0215 115.039 -102.246 78.2715 -102.246 C 41.4551 -102.246 11.2793 -72.0215 11.2793 -35.2051 C 11.2793 1.5625 41.5039 31.7871 78.2715 31.7871 Z M 78.2715 14.0137 C 51.0254 14.0137 29.0527 -7.95898 29.0527 -35.2051 C 29.0527 -62.5 50.9766 -84.4727 78.2715 -84.4727 C 105.518 -84.4727 127.49 -62.5 127.539 -35.2051 C 127.539 -7.95898 105.566 14.0137 78.2715 14.0137 Z M 66.8457 -10.1562 C 69.873 -10.1562 71.6797 -12.1582 71.6797 -15.0879 L 71.6797 -20.0684 L 73.5352 -20.0684 C 76.2695 -20.0684 77.8809 -21.7773 77.8809 -24.5605 C 77.8809 -27.3926 76.2695 -29.248 73.5352 -29.248 L 71.6797 -29.248 L 71.6797 -52.1973 C 71.6797 -57.2754 68.8965 -60.3516 63.6719 -60.3516 C 58.9355 -60.3516 56.1035 -58.4473 53.8086 -54.1504 C 50.2441 -47.6074 45.9473 -38.9648 43.3594 -33.3984 C 42.4805 -31.1523 41.8457 -29.0039 41.8457 -26.6113 C 41.8457 -22.4609 44.2871 -20.0195 48.5352 -20.0195 L 62.0605 -20.0195 L 62.0605 -15.0879 C 62.0605 -12.207 63.916 -10.1562 66.8457 -10.1562 Z M 87.8418 -11.2305 L 108.789 -11.2305 C 111.816 -11.2305 113.818 -13.1348 113.818 -16.3086 C 113.818 -19.3848 111.816 -21.1914 108.789 -21.1914 L 96.875 -21.1914 L 96.875 -21.7285 L 104.98 -31.1523 C 109.619 -36.5723 112.451 -40.8203 112.402 -46.4844 C 112.305 -54.6875 106.543 -60.3516 97.3145 -60.3516 C 90.1855 -60.3516 84.0332 -56.1035 82.3242 -49.9512 C 82.0801 -48.9746 81.9336 -48.1445 81.9336 -47.168 C 81.9336 -44.3848 83.6914 -42.4805 86.4746 -42.4805 C 89.0137 -42.4805 90.332 -43.8965 91.0645 -45.8984 C 92.041 -48.9746 94.2383 -50.6348 97.168 -50.6348 C 100.439 -50.6348 102.734 -48.4863 102.734 -45.5566 C 102.734 -42.3828 100.293 -39.8438 97.4121 -36.4746 L 85.1562 -22.0703 C 83.3496 -20.0195 82.666 -18.3594 82.666 -16.4062 C 82.666 -13.2324 84.9121 -11.2305 87.8418 -11.2305 Z M 62.0605 -29.1504 L 52.1484 -29.1504 L 52.1484 -29.3945 C 54.4922 -34.5703 58.6914 -43.7988 61.8164 -50.0977 L 62.0605 -50.0977 Z"/>
  </g>
  <g id="Bold-L" transform="matrix(1 0 0 1 2262.88 1556)">
   <path d="M 77.0996 30.5664 C 113.232 30.5664 142.92 0.878906 142.92 -35.2539 C 142.92 -71.3379 113.184 -101.074 77.0508 -101.074 C 40.9668 -101.074 11.2793 -71.3379 11.2793 -35.2539 C 11.2793 0.878906 41.0156 30.5664 77.0996 30.5664 Z M 77.0996 15.8203 C 48.8281 15.8203 26.0742 -6.98242 26.0742 -35.2539 C 26.0742 -63.5254 48.7793 -86.2793 77.0508 -86.2793 C 105.371 -86.2793 128.125 -63.5254 128.174 -35.2539 C 128.174 -6.98242 105.371 15.8203 77.0996 15.8203 Z M 65.2344 -9.57031 C 67.9688 -9.57031 69.5801 -11.4258 69.5801 -14.0625 L 69.5801 -20.166 L 72.2168 -20.166 C 74.707 -20.166 76.1719 -21.6797 76.1719 -24.1699 C 76.1719 -26.709 74.6582 -28.3203 72.2168 -28.3203 L 69.5801 -28.3203 L 69.5801 -53.8574 C 69.5801 -58.252 66.9922 -60.9863 62.4512 -60.9863 C 58.252 -60.9863 55.7129 -59.3262 53.6133 -55.4199 C 49.4629 -48.1934 44.043 -38.2812 40.8203 -32.0312 C 39.9414 -30.0293 39.4531 -28.1738 39.4531 -26.0742 C 39.4531 -22.3145 41.6992 -20.1172 45.459 -20.1172 L 60.9863 -20.1172 L 60.9863 -14.0625 C 60.9863 -11.4258 62.5977 -9.57031 65.2344 -9.57031 Z M 86.3281 -10.6445 L 109.131 -10.6445 C 111.719 -10.6445 113.477 -12.3535 113.477 -15.1367 C 113.477 -17.8223 111.719 -19.4336 109.131 -19.4336 L 94.5312 -19.4336 L 94.5312 -19.9219 L 104.443 -31.3965 C 109.18 -36.8652 112.109 -41.2109 112.061 -46.9727 C 112.012 -55.3711 106.055 -60.9863 96.6797 -60.9863 C 89.4043 -60.9863 83.0566 -56.543 81.3965 -50.2441 C 81.2012 -49.3164 81.0547 -48.584 81.0547 -47.6562 C 81.0547 -45.166 82.6172 -43.457 85.1074 -43.457 C 87.3535 -43.457 88.5254 -44.7266 89.209 -46.6309 C 90.332 -50.3418 92.9688 -52.3926 96.6309 -52.3926 C 100.684 -52.3926 103.418 -49.8535 103.418 -46.1914 C 103.418 -42.6758 100.781 -39.8438 97.8027 -36.3281 L 83.8379 -19.9219 C 82.373 -18.2617 81.7871 -16.8457 81.7871 -15.1855 C 81.7871 -12.4023 83.6914 -10.6445 86.3281 -10.6445 Z M 60.9863 -28.2715 L 48.6816 -28.2715 L 48.6816 -28.5156 C 51.4648 -34.2285 57.0312 -44.8242 60.7422 -51.6602 L 60.9863 -51.6602 Z"/>
  </g>
  <g id="Semibold-L" transform="matrix(1 0 0 1 1966.97 1556)">
   <path d="M 76.2695 29.7363 C 111.914 29.7363 141.309 0.390625 141.309 -35.2539 C 141.309 -70.8984 111.865 -100.244 76.2695 -100.244 C 40.625 -100.244 11.2793 -70.8984 11.2793 -35.2539 C 11.2793 0.390625 40.6738 29.7363 76.2695 29.7363 Z M 76.2695 17.041 C 47.3145 17.041 24.0234 -6.25 24.0234 -35.2539 C 24.0234 -64.209 47.2656 -87.5488 76.2695 -87.5488 C 105.225 -87.5488 128.564 -64.209 128.613 -35.2539 C 128.662 -6.25 105.273 17.041 76.2695 17.041 Z M 64.1602 -9.17969 C 66.6992 -9.17969 68.1641 -10.8887 68.1641 -13.3301 L 68.1641 -20.2637 L 71.3379 -20.2637 C 73.6328 -20.2637 75 -21.6309 75 -23.877 C 75 -26.2207 73.584 -27.6855 71.3379 -27.6855 L 68.1641 -27.6855 L 68.1641 -54.9805 C 68.1641 -58.8867 65.6738 -61.4258 61.6211 -61.4258 C 57.8125 -61.4258 55.4688 -59.9121 53.4668 -56.3477 C 48.9258 -48.6328 42.7246 -37.793 39.1113 -31.1035 C 38.2324 -29.1992 37.7441 -27.5879 37.7441 -25.7324 C 37.7441 -22.2656 39.9414 -20.2148 43.3594 -20.2148 L 60.2539 -20.2148 L 60.2539 -13.3301 C 60.2539 -10.9375 61.6699 -9.17969 64.1602 -9.17969 Z M 85.2539 -10.2539 L 109.375 -10.2539 C 111.67 -10.2539 113.232 -11.8164 113.232 -14.3066 C 113.232 -16.748 111.67 -18.2129 109.375 -18.2129 L 92.9199 -18.2129 L 92.9199 -18.6523 L 104.053 -31.543 C 108.838 -37.1094 111.865 -41.5039 111.865 -47.3145 C 111.816 -55.8105 105.713 -61.4258 96.2402 -61.4258 C 88.8184 -61.4258 82.373 -56.8359 80.7617 -50.4395 C 80.6152 -49.6094 80.4688 -48.877 80.4688 -48.0469 C 80.4688 -45.7031 81.8848 -44.1406 84.1797 -44.1406 C 86.1816 -44.1406 87.2559 -45.3125 87.9395 -47.1191 C 89.1602 -51.3184 92.1387 -53.6133 96.2891 -53.6133 C 100.879 -53.6133 103.906 -50.7812 103.906 -46.6309 C 103.906 -42.9199 101.123 -39.8438 98.0469 -36.1816 L 82.9102 -18.457 C 81.6895 -17.0898 81.2012 -15.8203 81.2012 -14.3555 C 81.2012 -11.8652 82.8613 -10.2539 85.2539 -10.2539 Z M 60.2539 -27.6367 L 46.2891 -27.6367 L 46.2891 -27.8809 C 49.4141 -34.0332 55.8594 -45.5078 59.9609 -52.7344 L 60.2539 -52.7344 Z"/>
  </g>
  <g id="Medium-L" transform="matrix(1 0 0 1 1670.87 1556)">
   <path d="M 75.6836 29.1504 C 110.938 29.1504 140.088 0 140.088 -35.2539 C 140.088 -70.5078 110.889 -99.6582 75.6348 -99.6582 C 40.3809 -99.6582 11.2793 -70.5078 11.2793 -35.2539 C 11.2793 0 40.3809 29.1504 75.6836 29.1504 Z M 75.6836 18.0176 C 46.1426 18.0176 22.4609 -5.76172 22.4609 -35.2539 C 22.4609 -64.7461 46.1426 -88.5254 75.6348 -88.5254 C 105.127 -88.5254 128.906 -64.7461 128.906 -35.2539 C 128.955 -5.76172 105.176 18.0176 75.6836 18.0176 Z M 63.3301 -8.83789 C 65.7227 -8.83789 67.041 -10.498 67.041 -12.793 L 67.041 -20.3125 L 70.7031 -20.3125 C 72.8027 -20.3125 74.0723 -21.582 74.0723 -23.6816 C 74.0723 -25.8789 72.7539 -27.1973 70.7031 -27.1973 L 67.041 -27.1973 L 67.041 -55.8105 C 67.041 -59.4238 64.6973 -61.7188 60.9863 -61.7188 C 57.4707 -61.7188 55.2734 -60.3516 53.3691 -57.0312 C 48.5352 -48.9746 41.748 -37.4512 37.793 -30.3711 C 36.9141 -28.6133 36.5234 -27.1484 36.5234 -25.4395 C 36.5234 -22.168 38.5742 -20.2637 41.748 -20.2637 L 59.668 -20.2637 L 59.668 -12.793 C 59.668 -10.5469 60.9863 -8.83789 63.3301 -8.83789 Z M 84.4727 -9.96094 L 109.521 -9.96094 C 111.621 -9.96094 113.086 -11.4258 113.086 -13.6719 C 113.086 -15.9668 111.621 -17.2852 109.521 -17.2852 L 91.6992 -17.2852 L 91.6992 -17.7246 L 103.711 -31.6895 C 108.594 -37.3047 111.719 -41.6992 111.67 -47.6074 C 111.67 -56.1523 105.469 -61.7188 95.8984 -61.7188 C 88.4277 -61.7188 81.8359 -57.0312 80.2734 -50.5859 C 80.127 -49.8047 79.9805 -49.1211 79.9805 -48.3398 C 79.9805 -46.1426 81.2988 -44.6777 83.4473 -44.6777 C 85.3516 -44.6777 86.2793 -45.752 86.9629 -47.5098 C 88.2324 -52.0508 91.5039 -54.541 96.0449 -54.541 C 101.025 -54.541 104.297 -51.5137 104.297 -46.9727 C 104.297 -43.1152 101.416 -39.8438 98.2422 -36.084 L 82.2266 -17.334 C 81.1523 -16.1621 80.7129 -15.0391 80.7129 -13.7207 C 80.7129 -11.4258 82.2266 -9.96094 84.4727 -9.96094 Z M 59.668 -27.1484 L 44.4824 -27.1484 L 44.4824 -27.4414 C 47.8027 -33.8379 54.9805 -46.0449 59.375 -53.5645 L 59.668 -53.5645 Z"/>
  </g>
  <g id="Regular-L" transform="matrix(1 0 0 1 1374.97 1556)">
   <path d="M 74.8535 28.3203 C 109.668 28.3203 138.477 -0.488281 138.477 -35.2539 C 138.477 -70.0684 109.619 -98.877 74.8047 -98.877 C 40.0391 -98.877 11.2793 -70.0684 11.2793 -35.2539 C 11.2793 -0.488281 40.0879 28.3203 74.8535 28.3203 Z M 74.8535 19.2383 C 44.6777 19.2383 20.4102 -5.07812 20.4102 -35.2539 C 20.4102 -65.4785 44.6289 -89.7461 74.8047 -89.7461 C 105.029 -89.7461 129.297 -65.4785 129.346 -35.2539 C 129.395 -5.07812 105.078 19.2383 74.8535 19.2383 Z M 62.207 -8.44727 C 64.4531 -8.44727 65.625 -9.96094 65.625 -12.1094 L 65.625 -20.3613 L 69.8242 -20.3613 C 71.7285 -20.3613 72.9492 -21.4844 72.9492 -23.4375 C 72.9492 -25.3906 71.6797 -26.5625 69.8242 -26.5625 L 65.625 -26.5625 L 65.625 -56.9336 C 65.625 -60.0586 63.3789 -62.1582 60.1562 -62.1582 C 56.9824 -62.1582 55.0293 -60.9375 53.2227 -57.9102 C 47.998 -49.3652 40.4297 -36.9629 36.0352 -29.4434 C 35.2051 -27.832 34.8633 -26.5625 34.8633 -25.0977 C 34.8633 -22.1191 36.8164 -20.3613 39.6973 -20.3613 L 58.9355 -20.3613 L 58.9355 -12.1094 C 58.9355 -10.0098 60.1074 -8.44727 62.207 -8.44727 Z M 83.4473 -9.57031 L 109.766 -9.57031 C 111.523 -9.57031 112.842 -10.8887 112.842 -12.8906 C 112.842 -14.8926 111.523 -16.1133 109.766 -16.1133 L 90.1367 -16.1133 L 90.1367 -16.4551 L 103.369 -31.8359 C 108.252 -37.5 111.475 -41.9922 111.475 -47.9492 C 111.475 -56.5918 105.127 -62.1582 95.459 -62.1582 C 87.8418 -62.1582 81.2012 -57.3242 79.6387 -50.7812 C 79.541 -50.0488 79.3945 -49.4141 79.3945 -48.6816 C 79.3945 -46.6797 80.5664 -45.3125 82.5195 -45.3125 C 84.1797 -45.3125 85.0586 -46.3379 85.7422 -47.998 C 87.0605 -52.9785 90.6738 -55.7617 95.7031 -55.7617 C 101.221 -55.7617 104.736 -52.4414 104.736 -47.4121 C 104.736 -43.3105 101.758 -39.8438 98.4863 -35.9863 L 81.3477 -15.918 C 80.4688 -14.9902 80.127 -14.0137 80.127 -12.8906 C 80.127 -10.8887 81.3965 -9.57031 83.4473 -9.57031 Z M 58.9355 -26.5625 L 42.0898 -26.5625 L 42.0898 -26.8066 C 45.752 -33.6426 53.8574 -46.7285 58.6426 -54.6387 L 58.9355 -54.6387 Z"/>
  </g>
  <g id="Light-L" transform="matrix(1 0 0 1 1079.18 1556)">
   <path d="M 73.9258 27.3926 C 108.301 27.3926 136.621 -0.927734 136.621 -35.2539 C 136.621 -69.6289 108.252 -97.9492 73.9258 -97.9492 C 39.5508 -97.9492 11.2793 -69.6289 11.2793 -35.2539 C 11.2793 -0.927734 39.5996 27.3926 73.9258 27.3926 Z M 73.9258 20.5078 C 43.1152 20.5078 18.2129 -4.44336 18.2129 -35.2539 C 18.2129 -66.1133 43.0664 -91.0156 73.9258 -91.0156 C 104.736 -91.0156 129.688 -66.1133 129.736 -35.2539 C 129.736 -4.44336 104.785 20.5078 73.9258 20.5078 Z M 61.0352 -8.78906 C 62.8418 -8.78906 63.7695 -10.0098 63.7695 -11.6699 L 63.7695 -21.0449 L 69.043 -21.0449 C 70.6055 -21.0449 71.582 -22.0215 71.582 -23.5352 C 71.582 -25.0977 70.5566 -26.123 69.043 -26.123 L 63.7695 -26.123 L 63.7695 -57.6172 C 63.7695 -60.1562 62.0117 -61.8164 59.4238 -61.8164 C 56.8848 -61.8164 55.3223 -60.8887 53.7598 -58.3984 C 48.584 -50.293 39.4043 -35.791 34.8633 -28.3691 C 34.2285 -27.1973 33.8867 -26.123 33.8867 -24.9512 C 33.8867 -22.4609 35.5469 -21.0449 37.9883 -21.0449 L 58.3984 -21.0449 L 58.3984 -11.6699 C 58.3984 -10.0098 59.375 -8.78906 61.0352 -8.78906 Z M 82.3242 -9.66797 L 108.984 -9.66797 C 110.498 -9.66797 111.523 -10.7422 111.523 -12.3047 C 111.523 -13.916 110.498 -14.9414 108.984 -14.9414 L 87.5977 -14.9414 L 87.5977 -15.2344 L 101.953 -31.9336 C 107.178 -37.9883 110.059 -42.3828 110.059 -47.8516 C 110.059 -56.3477 103.857 -61.8164 94.4336 -61.8164 C 86.7188 -61.8164 80.0781 -56.9824 78.6621 -50.293 C 78.5645 -49.6094 78.4668 -49.0234 78.4668 -48.3887 C 78.4668 -46.7773 79.4434 -45.6543 81.0547 -45.6543 C 82.5195 -45.6543 83.252 -46.4844 83.6914 -47.9492 C 84.7168 -53.2715 88.8184 -56.5918 94.5801 -56.5918 C 100.732 -56.5918 104.59 -53.0273 104.59 -47.5586 C 104.59 -43.457 102.002 -40.0391 98.3887 -35.7422 L 80.4688 -14.8926 C 79.7852 -14.1602 79.4922 -13.3789 79.4922 -12.4512 C 79.4922 -10.6934 80.6152 -9.66797 82.3242 -9.66797 Z M 58.3984 -26.123 L 39.8438 -26.123 L 39.8438 -26.3672 C 43.4082 -32.7148 53.6621 -48.6328 58.1543 -55.7129 L 58.3984 -55.7129 Z"/>
  </g>
  <g id="Thin-L" transform="matrix(1 0 0 1 783.693 1556)">
   <path d="M 72.7051 26.1719 C 106.494 26.1719 134.18 -1.51367 134.18 -35.2539 C 134.18 -69.043 106.494 -96.7285 72.7051 -96.7285 C 38.9648 -96.7285 11.2793 -69.043 11.2793 -35.2539 C 11.2793 -1.51367 38.9648 26.1719 72.7051 26.1719 Z M 72.7051 22.168 C 41.0156 22.168 15.2832 -3.56445 15.2832 -35.2539 C 15.2832 -66.9922 41.0156 -92.7246 72.7051 -92.7246 C 104.395 -92.7246 130.176 -66.9922 130.176 -35.2539 C 130.176 -3.56445 104.443 22.168 72.7051 22.168 Z M 59.5215 -9.22852 C 60.6934 -9.22852 61.377 -10.0098 61.377 -11.1328 L 61.377 -21.9727 L 68.0664 -21.9727 C 69.1406 -21.9727 69.7754 -22.7051 69.7754 -23.7305 C 69.7754 -24.7559 69.0918 -25.5371 68.0664 -25.5371 L 61.377 -25.5371 L 61.377 -58.4961 C 61.377 -60.2539 60.1562 -61.377 58.3984 -61.377 C 56.7383 -61.377 55.6641 -60.791 54.4922 -59.082 C 49.4141 -51.5137 38.0859 -34.2285 33.3008 -26.9531 C 32.9102 -26.3184 32.666 -25.4883 32.666 -24.707 C 32.666 -22.9004 33.8867 -21.9727 35.7422 -21.9727 L 57.666 -21.9727 L 57.666 -11.1328 C 57.666 -10.0098 58.4473 -9.22852 59.5215 -9.22852 Z M 80.8105 -9.76562 L 107.959 -9.76562 C 109.082 -9.76562 109.766 -10.5469 109.766 -11.5723 C 109.766 -12.5977 109.082 -13.3789 107.959 -13.3789 L 84.2285 -13.3789 L 84.2285 -13.5742 L 100.146 -32.0801 C 105.811 -38.623 108.252 -42.8711 108.252 -47.7539 C 108.252 -56.0059 102.197 -61.377 93.0664 -61.377 C 85.2539 -61.377 78.5645 -56.4453 77.3926 -49.6582 C 77.2949 -49.0234 77.1973 -48.584 77.1973 -47.998 C 77.1973 -46.875 77.9297 -46.0449 79.1016 -46.0449 C 80.2734 -46.0449 80.9082 -46.7285 81.0547 -47.8516 C 81.5918 -53.6133 86.4258 -57.7148 93.1152 -57.7148 C 100.049 -57.7148 104.346 -53.8086 104.346 -47.7539 C 104.346 -43.6523 102.344 -40.2832 98.2422 -35.4492 L 79.3457 -13.5742 C 78.9062 -13.0371 78.7109 -12.5488 78.7109 -11.8164 C 78.7109 -10.498 79.5898 -9.76562 80.8105 -9.76562 Z M 57.666 -25.5371 L 36.8164 -25.5371 L 36.8164 -25.6836 C 40.332 -31.543 53.4668 -51.1719 57.5195 -57.0801 L 57.666 -57.0801 Z"/>
  </g>
  <g id="Ultralight-L" transform="matrix(1 0 0 1 487.616 1556)">
   <path d="M 72.1191 25.5371 C 105.566 25.5371 132.91 -1.80664 132.91 -35.2539 C 132.91 -68.75 105.566 -96.0938 72.1191 -96.0938 C 38.623 -96.0938 11.2793 -68.75 11.2793 -35.2539 C 11.2793 -1.80664 38.623 25.5371 72.1191 25.5371 Z M 72.1191 23.0469 C 39.9414 23.0469 13.7695 -3.125 13.7695 -35.2539 C 13.7695 -67.4316 39.9414 -93.6035 72.1191 -93.6035 C 104.248 -93.6035 130.42 -67.4316 130.42 -35.2539 C 130.42 -3.125 104.248 23.0469 72.1191 23.0469 Z M 58.7402 -9.47266 C 59.6191 -9.47266 60.1074 -10.0098 60.1074 -10.8398 L 60.1074 -22.4609 L 67.5293 -22.4609 C 68.4082 -22.4609 68.8965 -23.0469 68.8965 -23.8281 C 68.8965 -24.5605 68.3105 -25.2441 67.5293 -25.2441 L 60.1074 -25.2441 L 60.1074 -58.9844 C 60.1074 -60.3027 59.2285 -61.1328 57.9102 -61.1328 C 56.6406 -61.1328 55.8105 -60.7422 54.8828 -59.375 C 49.8047 -52.1484 37.4023 -33.4473 32.5195 -26.2207 C 32.2266 -25.8789 32.0312 -25.1465 32.0312 -24.6094 C 32.0312 -23.1445 33.0566 -22.4609 34.5703 -22.4609 L 57.3242 -22.4609 L 57.3242 -10.8398 C 57.3242 -10.0098 58.0078 -9.47266 58.7402 -9.47266 Z M 80.0293 -9.81445 L 107.422 -9.81445 C 108.398 -9.81445 108.838 -10.4492 108.838 -11.1816 C 108.838 -11.9629 108.398 -12.5977 107.422 -12.5977 L 82.4707 -12.5977 L 82.4707 -12.7441 L 99.1699 -32.1777 C 105.078 -38.9648 107.324 -43.1152 107.324 -47.7051 C 107.324 -55.8594 101.318 -61.1328 92.3828 -61.1328 C 84.4727 -61.1328 77.7832 -56.2012 76.709 -49.3652 C 76.6602 -48.7305 76.5625 -48.3398 76.5625 -47.8027 C 76.5625 -46.9727 77.1484 -46.2402 78.0762 -46.2402 C 79.1504 -46.2402 79.6875 -46.8262 79.6875 -47.8027 C 79.9805 -53.7598 85.2051 -58.3008 92.3828 -58.3008 C 99.707 -58.3008 104.248 -54.1992 104.248 -47.8516 C 104.248 -43.75 102.539 -40.3809 98.1445 -35.2539 L 78.7598 -12.8906 C 78.418 -12.5 78.2715 -12.1582 78.2715 -11.4746 C 78.2715 -10.3516 79.0527 -9.81445 80.0293 -9.81445 Z M 57.3242 -25.2441 L 35.3027 -25.2441 L 35.3027 -25.3906 C 38.7207 -30.957 53.3203 -52.4414 57.1777 -57.8125 L 57.3242 -57.8125 Z"/>
  </g>
  <g id="Black-M" transform="matrix(1 0 0 1 2870.97 1126)">
   <path d="M 62.4023 18.457 C 91.9922 18.457 116.113 -5.61523 116.113 -35.2051 C 116.113 -64.7949 91.9922 -88.8672 62.4023 -88.8672 C 32.8125 -88.8672 8.74023 -64.7949 8.74023 -35.2051 C 8.74023 -5.61523 32.8125 18.457 62.4023 18.457 Z M 62.4023 0.195312 C 42.8711 0.195312 27.002 -15.625 27.002 -35.2051 C 27.002 -54.7363 42.8711 -70.6055 62.4023 -70.6055 C 81.9824 -70.6055 97.8027 -54.7363 97.8027 -35.2051 C 97.8027 -15.625 81.9824 0.195312 62.4023 0.195312 Z M 54.1992 -17.1387 C 56.8359 -17.1387 58.5938 -18.7988 58.5938 -21.3379 L 58.5938 -23.6816 L 58.9844 -23.6816 C 61.4746 -23.6816 62.8906 -25.2441 62.8906 -27.7832 C 62.8906 -30.3223 61.4746 -32.0801 58.9844 -32.0801 L 58.5938 -32.0801 L 58.5938 -45.6543 C 58.5938 -50.4883 56.2988 -53.3691 51.2695 -53.3691 C 46.875 -53.3691 44.2871 -51.5625 42.4316 -47.7051 C 40.7227 -44.1406 38.6719 -38.7695 37.793 -35.8398 C 37.1582 -33.9355 36.5234 -31.7871 36.5234 -29.4434 C 36.5234 -25.7324 38.5254 -23.584 42.4805 -23.584 L 49.9023 -23.584 L 49.9023 -21.3379 C 49.9023 -18.7988 51.6602 -17.1387 54.1992 -17.1387 Z M 70.3613 -17.7246 L 83.252 -17.7246 C 86.2793 -17.7246 88.0859 -19.4824 88.0859 -22.5098 C 88.0859 -25.3906 86.2793 -27.0996 83.252 -27.0996 L 78.125 -27.0996 L 78.125 -27.5391 L 81.6895 -31.6895 C 85.3027 -35.8887 87.0605 -38.9648 86.9629 -42.9199 C 86.8652 -48.9746 82.8125 -53.3691 76.123 -53.3691 C 70.8496 -53.3691 66.3574 -50.3906 65.0391 -45.8008 C 64.7949 -44.9219 64.6973 -44.2383 64.6973 -43.3105 C 64.6973 -40.8691 66.3086 -39.1113 68.7988 -39.1113 C 71.2891 -39.1113 72.5098 -40.4297 72.998 -42.0898 C 73.3398 -43.3594 74.4141 -44.2871 75.6836 -44.2871 C 77.0508 -44.2871 78.2227 -43.2617 78.2227 -42.041 C 78.2227 -40.2344 76.8555 -38.8672 74.7559 -36.377 L 68.0176 -28.5156 C 66.1133 -26.3184 65.4297 -24.6582 65.4297 -22.6562 C 65.4297 -19.6289 67.627 -17.7246 70.3613 -17.7246 Z M 49.9023 -31.9824 L 45.8008 -31.9824 L 45.8008 -32.1289 C 46.6797 -34.8633 48.584 -40.9668 49.7559 -44.3359 L 49.9023 -44.3359 Z"/>
  </g>
  <g id="Heavy-M" transform="matrix(1 0 0 1 2575.19 1126)">
   <path d="M 61.5234 17.5293 C 90.5273 17.5293 114.258 -6.20117 114.258 -35.2051 C 114.258 -64.2578 90.5273 -87.9883 61.4746 -87.9883 C 32.4707 -87.9883 8.74023 -64.2578 8.74023 -35.2051 C 8.74023 -6.20117 32.4707 17.5293 61.5234 17.5293 Z M 61.5234 1.61133 C 41.1133 1.61133 24.6582 -14.8438 24.6582 -35.2051 C 24.6582 -55.6152 41.1133 -72.0703 61.4746 -72.0703 C 81.8848 -72.0703 98.3398 -55.6152 98.3398 -35.2051 C 98.3398 -14.8438 81.8848 1.61133 61.5234 1.61133 Z M 52.9297 -16.4551 C 55.4199 -16.4551 56.9824 -18.0664 56.9824 -20.4102 L 56.9824 -23.584 L 57.959 -23.584 C 60.2539 -23.584 61.5723 -25.0488 61.5723 -27.3438 C 61.5723 -29.7363 60.2539 -31.2988 57.959 -31.2988 L 56.9824 -31.2988 L 56.9824 -47.0703 C 56.9824 -51.416 54.7852 -54.0527 50.2441 -54.0527 C 46.2402 -54.0527 43.8965 -52.4414 42.0898 -48.8281 C 39.8438 -44.5312 37.0605 -38.4277 35.5957 -34.7656 C 34.9609 -32.959 34.4238 -31.0547 34.4238 -29.0039 C 34.4238 -25.5371 36.3281 -23.4863 39.9414 -23.4863 L 48.9746 -23.4863 L 48.9746 -20.4102 C 48.9746 -18.0664 50.5371 -16.4551 52.9297 -16.4551 Z M 69.1406 -17.1875 L 83.7891 -17.1875 C 86.4746 -17.1875 88.1348 -18.7988 88.1348 -21.4844 C 88.1348 -24.1211 86.4746 -25.6836 83.7891 -25.6836 L 76.5137 -25.6836 L 76.5137 -26.0742 L 81.4941 -31.8848 C 85.1074 -36.084 87.0605 -39.2578 87.0117 -43.457 C 86.9141 -49.6582 82.666 -54.0527 75.7324 -54.0527 C 70.3125 -54.0527 65.7227 -50.9277 64.4043 -46.2402 C 64.1602 -45.4102 64.0625 -44.7754 64.0625 -43.8965 C 64.0625 -41.6016 65.5273 -39.9902 67.8711 -39.9902 C 70.0684 -39.9902 71.1914 -41.2109 71.7285 -42.8223 C 72.2656 -44.6777 73.6816 -45.8008 75.4395 -45.8008 C 77.4414 -45.8008 78.9062 -44.4336 78.9062 -42.6758 C 78.9062 -40.4785 77.2949 -38.8184 75.1465 -36.2793 L 66.9434 -26.709 C 65.332 -24.8047 64.7461 -23.3398 64.7461 -21.582 C 64.7461 -18.8965 66.6992 -17.1875 69.1406 -17.1875 Z M 48.9746 -31.2012 L 43.0176 -31.2012 L 43.0176 -31.3965 C 44.3359 -34.7656 46.9727 -41.4551 48.8281 -45.5566 L 48.9746 -45.5566 Z"/>
  </g>
  <g id="Bold-M" transform="matrix(1 0 0 1 2279.5 1126)">
   <path d="M 60.498 16.5039 C 88.8672 16.5039 112.207 -6.83594 112.207 -35.2051 C 112.207 -63.623 88.8672 -86.9629 60.4492 -86.9629 C 32.0312 -86.9629 8.74023 -63.623 8.74023 -35.2051 C 8.74023 -6.83594 32.0801 16.5039 60.498 16.5039 Z M 60.498 3.22266 C 39.1602 3.22266 22.0703 -13.916 22.0703 -35.2051 C 22.0703 -56.543 39.1602 -73.6816 60.4492 -73.6816 C 81.7383 -73.6816 98.9258 -56.543 98.9258 -35.2051 C 98.9746 -13.916 81.7871 3.22266 60.498 3.22266 Z M 51.5625 -15.7227 C 53.8574 -15.7227 55.2246 -17.2363 55.2246 -19.4336 L 55.2246 -23.4863 L 56.7871 -23.4863 C 58.8379 -23.4863 60.0586 -24.7559 60.0586 -26.9043 C 60.0586 -29.0527 58.8379 -30.4199 56.7871 -30.4199 L 55.2246 -30.4199 L 55.2246 -48.6816 C 55.2246 -52.4902 53.0762 -54.834 49.1699 -54.834 C 45.5566 -54.834 43.4082 -53.3691 41.6504 -50.0977 C 38.7695 -44.9219 35.3027 -38.0371 33.2031 -33.5938 C 32.5195 -31.8848 32.0312 -30.2734 32.0312 -28.4668 C 32.0312 -25.293 33.8867 -23.4375 37.1094 -23.4375 L 47.9492 -23.4375 L 47.9492 -19.4336 C 47.9492 -17.2363 49.3164 -15.7227 51.5625 -15.7227 Z M 67.8223 -16.5039 L 84.375 -16.5039 C 86.6699 -16.5039 88.1348 -17.9688 88.1348 -20.3613 C 88.1348 -22.7051 86.6699 -24.0723 84.375 -24.0723 L 74.707 -24.0723 L 74.707 -24.4629 L 81.2988 -32.1289 C 84.9121 -36.2793 87.1094 -39.5996 87.0605 -44.043 C 87.0117 -50.4395 82.5195 -54.834 75.3418 -54.834 C 69.7754 -54.834 64.9414 -51.4648 63.6719 -46.6797 C 63.4766 -45.9473 63.3789 -45.3125 63.3789 -44.5801 C 63.3789 -42.4316 64.6973 -41.0156 66.7969 -41.0156 C 68.75 -41.0156 69.7266 -42.0898 70.3125 -43.6523 C 71.0938 -46.0938 72.8516 -47.4609 75.2441 -47.4609 C 77.8809 -47.4609 79.7363 -45.752 79.7363 -43.3105 C 79.7363 -40.8203 77.7832 -38.7695 75.5859 -36.1816 L 65.7715 -24.6582 C 64.4531 -23.1445 63.916 -21.9238 63.916 -20.4102 C 63.916 -18.0176 65.5762 -16.5039 67.8223 -16.5039 Z M 47.9492 -30.3711 L 39.8438 -30.3711 L 39.8438 -30.5664 C 41.748 -34.668 45.2148 -42.041 47.7539 -46.9727 L 47.9492 -46.9727 Z"/>
  </g>
  <g id="Semibold-M" transform="matrix(1 0 0 1 1983.5 1126)">
   <path d="M 59.7656 15.8203 C 87.7441 15.8203 110.791 -7.27539 110.791 -35.2539 C 110.791 -63.2324 87.6953 -86.2793 59.7656 -86.2793 C 31.7871 -86.2793 8.74023 -63.2324 8.74023 -35.2539 C 8.74023 -7.27539 31.7871 15.8203 59.7656 15.8203 Z M 59.7656 4.3457 C 37.8418 4.3457 20.2637 -13.3301 20.2637 -35.2539 C 20.2637 -57.1777 37.793 -74.8047 59.7656 -74.8047 C 81.6895 -74.8047 99.3164 -57.1777 99.3652 -35.2539 C 99.3652 -13.3301 81.6895 4.3457 59.7656 4.3457 Z M 50.5859 -15.1855 C 52.7832 -15.1855 54.0039 -16.6504 54.0039 -18.75 L 54.0039 -23.4375 L 55.957 -23.4375 C 57.9102 -23.4375 59.082 -24.6094 59.082 -26.5625 C 59.082 -28.5645 57.8613 -29.834 55.957 -29.834 L 54.0039 -29.834 L 54.0039 -49.7559 C 54.0039 -53.1738 51.9531 -55.3711 48.3887 -55.3711 C 45.0684 -55.3711 43.0664 -54.0527 41.4062 -50.9766 C 38.0859 -45.166 34.082 -37.7441 31.543 -32.7637 C 30.8105 -31.1523 30.4199 -29.7363 30.4199 -28.0762 C 30.4199 -25.1465 32.1777 -23.3887 35.1562 -23.3887 L 47.2168 -23.3887 L 47.2168 -18.75 C 47.2168 -16.6992 48.4375 -15.1855 50.5859 -15.1855 Z M 66.8945 -16.0645 L 84.7656 -16.0645 C 86.8164 -16.0645 88.1836 -17.4316 88.1836 -19.5801 C 88.1836 -21.7285 86.8164 -22.998 84.7656 -22.998 L 73.4863 -22.998 L 73.4863 -23.3398 L 81.1523 -32.2754 C 84.7656 -36.4746 87.1094 -39.8438 87.1094 -44.4336 C 87.0605 -50.9766 82.4219 -55.3711 75.0488 -55.3711 C 69.3848 -55.3711 64.4531 -51.9043 63.1836 -47.0215 C 63.0371 -46.3379 62.8906 -45.7031 62.8906 -45.0195 C 62.8906 -43.0176 64.1113 -41.6992 66.0645 -41.6992 C 67.8223 -41.6992 68.7012 -42.6758 69.2871 -44.1895 C 70.2637 -47.1191 72.2656 -48.6328 75.0488 -48.6328 C 78.1738 -48.6328 80.2734 -46.6309 80.2734 -43.7988 C 80.2734 -41.0156 78.125 -38.7695 75.8789 -36.084 L 64.9414 -23.2422 C 63.8184 -22.0215 63.3789 -20.8984 63.3789 -19.6289 C 63.3789 -17.4316 64.8438 -16.0645 66.8945 -16.0645 Z M 47.2168 -29.7852 L 37.6953 -29.7852 L 37.6953 -29.9805 C 39.9414 -34.6191 43.9941 -42.3828 46.9727 -47.9492 L 47.2168 -47.9492 Z"/>
  </g>
  <g id="Medium-M" transform="matrix(1 0 0 1 1687.3 1126)">
   <path d="M 59.2285 15.2344 C 86.9141 15.2344 109.766 -7.61719 109.766 -35.2539 C 109.766 -62.8906 86.8652 -85.7422 59.1797 -85.7422 C 31.543 -85.7422 8.74023 -62.8906 8.74023 -35.2539 C 8.74023 -7.61719 31.5918 15.2344 59.2285 15.2344 Z M 59.2285 5.17578 C 36.8164 5.17578 18.8965 -12.8418 18.8965 -35.2539 C 18.8965 -57.666 36.8164 -75.6348 59.1797 -75.6348 C 81.5918 -75.6348 99.6094 -57.666 99.6582 -35.2539 C 99.707 -12.8418 81.6406 5.17578 59.2285 5.17578 Z M 49.8535 -14.7949 C 51.9531 -14.7949 53.0762 -16.2109 53.0762 -18.2617 L 53.0762 -23.3887 L 55.3223 -23.3887 C 57.1777 -23.3887 58.3008 -24.4629 58.3008 -26.3184 C 58.3008 -28.2227 57.1777 -29.3457 55.3223 -29.3457 L 53.0762 -29.3457 L 53.0762 -50.5859 C 53.0762 -53.7598 51.0742 -55.7617 47.8027 -55.7617 C 44.7266 -55.7617 42.8223 -54.541 41.2109 -51.6602 C 37.5488 -45.4102 33.1055 -37.5488 30.2734 -32.1777 C 29.4922 -30.6152 29.1504 -29.3457 29.1504 -27.832 C 29.1504 -25 30.9082 -23.3398 33.6426 -23.3398 L 46.6797 -23.3398 L 46.6797 -18.2617 C 46.6797 -16.2598 47.8027 -14.7949 49.8535 -14.7949 Z M 66.2109 -15.7715 L 85.1074 -15.7715 C 86.9141 -15.7715 88.1836 -16.9922 88.1836 -18.9941 C 88.1836 -20.9961 86.9141 -22.168 85.1074 -22.168 L 72.5586 -22.168 L 72.5586 -22.5098 L 81.0059 -32.373 C 84.6191 -36.5723 87.1582 -40.0391 87.1582 -44.7266 C 87.1094 -51.3672 82.3242 -55.7617 74.8047 -55.7617 C 69.0918 -55.7617 64.0625 -52.1973 62.793 -47.2656 C 62.6465 -46.582 62.5488 -45.9961 62.5488 -45.3613 C 62.5488 -43.457 63.6719 -42.1875 65.5273 -42.1875 C 67.1387 -42.1875 67.9199 -43.1152 68.5547 -44.6289 C 69.6289 -47.8516 71.8262 -49.5117 74.9512 -49.5117 C 78.418 -49.5117 80.7129 -47.3145 80.7129 -44.1406 C 80.7129 -41.2109 78.3691 -38.7207 76.0742 -36.0352 L 64.3066 -22.2168 C 63.3789 -21.1426 62.9883 -20.166 62.9883 -18.9941 C 62.9883 -16.9922 64.3066 -15.7715 66.2109 -15.7715 Z M 46.6797 -29.3457 L 36.084 -29.3457 L 36.084 -29.541 C 38.5742 -34.5703 43.0176 -42.6758 46.4355 -48.7305 L 46.6797 -48.7305 Z"/>
  </g>
  <g id="Regular-M" transform="matrix(1 0 0 1 1391.3 1126)">
   <path d="M 58.5449 14.5508 C 85.791 14.5508 108.35 -8.05664 108.35 -35.2539 C 108.35 -62.5 85.7422 -85.0586 58.4961 -85.0586 C 31.2988 -85.0586 8.74023 -62.5 8.74023 -35.2539 C 8.74023 -8.05664 31.3477 14.5508 58.5449 14.5508 Z M 58.5449 6.25 C 35.498 6.25 17.0898 -12.207 17.0898 -35.2539 C 17.0898 -58.3008 35.4492 -76.7578 58.4961 -76.7578 C 81.543 -76.7578 100 -58.3008 100.049 -35.2539 C 100.098 -12.207 81.5918 6.25 58.5449 6.25 Z M 48.877 -14.2578 C 50.8789 -14.2578 51.9043 -15.625 51.9043 -17.5781 L 51.9043 -23.291 L 54.541 -23.291 C 56.2012 -23.291 57.2754 -24.3164 57.2754 -26.0254 C 57.2754 -27.7832 56.2012 -28.7598 54.541 -28.7598 L 51.9043 -28.7598 L 51.9043 -51.6602 C 51.9043 -54.4434 49.9023 -56.25 47.0703 -56.25 C 44.2383 -56.25 42.5293 -55.2246 40.918 -52.5391 C 36.8652 -45.6543 31.9336 -37.2559 28.6133 -31.3477 C 27.832 -29.8828 27.5391 -28.8086 27.5391 -27.4902 C 27.5391 -24.8535 29.248 -23.291 31.7383 -23.291 L 45.9961 -23.291 L 45.9961 -17.5781 C 45.9961 -15.6738 46.9727 -14.2578 48.877 -14.2578 Z M 65.2832 -15.332 L 85.498 -15.332 C 87.0605 -15.332 88.2324 -16.4551 88.2324 -18.2129 C 88.2324 -20.0195 87.0605 -21.0938 85.498 -21.0938 L 71.2891 -21.0938 L 71.2891 -21.3867 L 80.8594 -32.5195 C 84.4727 -36.7188 87.1582 -40.2832 87.1582 -45.1172 C 87.1582 -51.9043 82.2266 -56.25 74.5605 -56.25 C 68.75 -56.25 63.5742 -52.5879 62.3047 -47.5586 C 62.1582 -46.9727 62.0605 -46.3867 62.0605 -45.8496 C 62.0605 -44.043 63.0859 -42.8711 64.7949 -42.8711 C 66.2109 -42.8711 66.9434 -43.75 67.5781 -45.166 C 68.7988 -48.8281 71.2891 -50.6348 74.8047 -50.6348 C 78.7109 -50.6348 81.25 -48.2422 81.25 -44.5801 C 81.25 -41.4062 78.7109 -38.7207 76.3672 -35.9375 L 63.5254 -20.8008 C 62.7441 -20.0195 62.4512 -19.1406 62.4512 -18.2129 C 62.4512 -16.4551 63.5742 -15.332 65.2832 -15.332 Z M 45.9961 -28.7598 L 33.9355 -28.7598 L 33.9355 -29.0039 C 36.8164 -34.4727 41.8457 -43.0664 45.7031 -49.6582 L 45.9961 -49.6582 Z"/>
  </g>
  <g id="Light-M" transform="matrix(1 0 0 1 1095.42 1126)">
   <path d="M 57.7148 13.7207 C 84.5215 13.7207 106.689 -8.44727 106.689 -35.2539 C 106.689 -62.1094 84.5215 -84.2285 57.666 -84.2285 C 30.8594 -84.2285 8.74023 -62.1094 8.74023 -35.2539 C 8.74023 -8.44727 30.9082 13.7207 57.7148 13.7207 Z M 57.7148 7.37305 C 34.082 7.37305 15.0879 -11.6699 15.0879 -35.2539 C 15.0879 -58.8867 34.082 -77.9297 57.666 -77.9297 C 81.2988 -77.9297 100.342 -58.8867 100.391 -35.2539 C 100.391 -11.6699 81.3477 7.37305 57.7148 7.37305 Z M 47.8516 -14.5996 C 49.4141 -14.5996 50.2441 -15.6738 50.2441 -17.1875 L 50.2441 -23.9258 L 53.8574 -23.9258 C 55.2246 -23.9258 56.0547 -24.7559 56.0547 -26.123 C 56.0547 -27.5391 55.1758 -28.3691 53.8574 -28.3691 L 50.2441 -28.3691 L 50.2441 -52.2461 C 50.2441 -54.4922 48.6816 -55.957 46.3867 -55.957 C 44.1406 -55.957 42.7246 -55.127 41.4062 -52.9785 C 37.4023 -46.4844 31.0059 -36.1816 27.5391 -30.4199 C 26.9531 -29.2969 26.709 -28.3691 26.709 -27.3438 C 26.709 -25.1953 28.125 -23.9258 30.2246 -23.9258 L 45.5078 -23.9258 L 45.5078 -17.1875 C 45.5078 -15.6738 46.3379 -14.5996 47.8516 -14.5996 Z M 64.3066 -15.3809 L 84.8145 -15.3809 C 86.084 -15.3809 87.0117 -16.3086 87.0117 -17.7246 C 87.0117 -19.1406 86.084 -20.0195 84.8145 -20.0195 L 68.9941 -20.0195 L 68.9941 -20.2637 L 79.6387 -32.6172 C 83.5449 -37.1582 85.9375 -40.5762 85.9375 -45.0684 C 85.9375 -51.709 81.0547 -55.957 73.6328 -55.957 C 67.7246 -55.957 62.5488 -52.2461 61.4258 -47.1191 C 61.3281 -46.582 61.2305 -46.0938 61.2305 -45.5566 C 61.2305 -44.1406 62.0605 -43.1641 63.4766 -43.1641 C 64.6973 -43.1641 65.332 -43.8965 65.7715 -45.1172 C 66.6992 -49.0723 69.6777 -51.416 73.7793 -51.416 C 78.2715 -51.416 81.1035 -48.7305 81.1035 -44.7266 C 81.1035 -41.5527 78.9551 -38.8672 76.2695 -35.7422 L 62.7441 -19.9219 C 62.1582 -19.2383 61.9141 -18.6035 61.9141 -17.7734 C 61.9141 -16.3086 62.8418 -15.3809 64.3066 -15.3809 Z M 45.5078 -28.3691 L 31.8848 -28.3691 L 31.8848 -28.5645 C 34.7168 -33.6914 41.6504 -44.7754 45.2637 -50.6348 L 45.5078 -50.6348 Z"/>
  </g>
  <g id="Thin-M" transform="matrix(1 0 0 1 799.806 1126)">
   <path d="M 56.6406 12.5977 C 82.9102 12.5977 104.492 -8.98438 104.492 -35.2539 C 104.492 -61.5723 82.9102 -83.1543 56.5918 -83.1543 C 30.3223 -83.1543 8.74023 -61.5723 8.74023 -35.2539 C 8.74023 -8.98438 30.3223 12.5977 56.6406 12.5977 Z M 56.6406 8.88672 C 32.2266 8.88672 12.4512 -10.8887 12.4512 -35.2539 C 12.4512 -59.6191 32.2266 -79.4434 56.5918 -79.4434 C 81.0059 -79.4434 100.781 -59.6191 100.781 -35.2539 C 100.781 -10.8887 81.0059 8.88672 56.6406 8.88672 Z M 46.4355 -14.9902 C 47.5098 -14.9902 48.0957 -15.6738 48.0957 -16.6992 L 48.0957 -24.7559 L 52.9785 -24.7559 C 53.9062 -24.7559 54.4922 -25.3906 54.4922 -26.2695 C 54.4922 -27.1973 53.8574 -27.832 52.9785 -27.832 L 48.0957 -27.832 L 48.0957 -53.0762 C 48.0957 -54.5898 47.0215 -55.5664 45.459 -55.5664 C 43.9941 -55.5664 43.0664 -55.0781 42.0898 -53.5645 C 38.1348 -47.6074 29.7852 -34.8145 26.1719 -29.1504 C 25.7812 -28.5156 25.5859 -27.7832 25.5859 -27.1484 C 25.5859 -25.5859 26.6113 -24.7559 28.1738 -24.7559 L 44.873 -24.7559 L 44.873 -16.6992 C 44.873 -15.6738 45.5078 -14.9902 46.4355 -14.9902 Z M 62.9395 -15.4785 L 83.8867 -15.4785 C 84.8633 -15.4785 85.4492 -16.1621 85.4492 -17.041 C 85.4492 -17.9688 84.8633 -18.6523 83.8867 -18.6523 L 65.9668 -18.6523 L 65.9668 -18.7988 L 77.9785 -32.7637 C 82.2754 -37.7441 84.2773 -41.0156 84.2773 -44.9707 C 84.2773 -51.416 79.541 -55.5664 72.4121 -55.5664 C 66.3574 -55.5664 61.2305 -51.8066 60.2539 -46.582 C 60.1562 -46.0449 60.1074 -45.6543 60.1074 -45.2148 C 60.1074 -44.2383 60.7422 -43.5059 61.7188 -43.5059 C 62.6953 -43.5059 63.1836 -44.0918 63.3789 -45.0195 C 63.916 -49.3652 67.5293 -52.4414 72.4609 -52.4414 C 77.6855 -52.4414 80.9082 -49.4629 80.9082 -44.9219 C 80.9082 -41.6992 79.248 -39.0625 76.1719 -35.4492 L 61.7188 -18.75 C 61.3281 -18.2617 61.1816 -17.8711 61.1816 -17.1875 C 61.1816 -16.1133 61.9141 -15.4785 62.9395 -15.4785 Z M 44.873 -27.832 L 29.1992 -27.832 L 29.1992 -27.9785 C 31.9336 -32.6172 41.4551 -47.0215 44.7266 -51.8555 L 44.873 -51.8555 Z"/>
  </g>
  <g id="Ultralight-M" transform="matrix(1 0 0 1 503.656 1126)">
   <path d="M 56.0547 12.0605 C 82.0801 12.0605 103.369 -9.22852 103.369 -35.2539 C 103.369 -61.2793 82.0801 -82.5684 56.0547 -82.5684 C 30.0293 -82.5684 8.74023 -61.2793 8.74023 -35.2539 C 8.74023 -9.22852 30.0293 12.0605 56.0547 12.0605 Z M 56.0547 9.66797 C 31.2988 9.66797 11.1328 -10.498 11.1328 -35.2539 C 11.1328 -60.0586 31.2988 -80.1758 56.0547 -80.1758 C 80.8594 -80.1758 100.977 -60.0586 100.977 -35.2539 C 100.977 -10.498 80.8594 9.66797 56.0547 9.66797 Z M 45.752 -15.1855 C 46.5332 -15.1855 46.9727 -15.6738 46.9727 -16.4062 L 46.9727 -25.1953 L 52.4902 -25.1953 C 53.2227 -25.1953 53.6621 -25.6836 53.6621 -26.3672 C 53.6621 -27.002 53.1738 -27.5879 52.4902 -27.5879 L 46.9727 -27.5879 L 46.9727 -53.5156 C 46.9727 -54.6387 46.1914 -55.3711 45.0195 -55.3711 C 43.9453 -55.3711 43.2129 -55.0293 42.4316 -53.8574 C 38.4766 -48.1445 29.1992 -34.082 25.4395 -28.4668 C 25.1953 -28.125 25 -27.4902 25 -27.002 C 25 -25.7812 25.8789 -25.1953 27.1484 -25.1953 L 44.5312 -25.1953 L 44.5312 -16.4062 C 44.5312 -15.6738 45.0684 -15.1855 45.752 -15.1855 Z M 62.2559 -15.5273 L 83.3984 -15.5273 C 84.2285 -15.5273 84.6191 -16.0645 84.6191 -16.6992 C 84.6191 -17.3828 84.2285 -17.9199 83.3984 -17.9199 L 64.4531 -17.9199 L 64.4531 -18.0664 L 77.1484 -32.8125 C 81.6406 -38.0371 83.4473 -41.2598 83.4473 -44.9219 C 83.4473 -51.2695 78.7598 -55.3711 71.8262 -55.3711 C 65.6738 -55.3711 60.5469 -51.5625 59.668 -46.2891 C 59.6191 -45.752 59.5215 -45.459 59.5215 -45.0195 C 59.5215 -44.2871 60.0098 -43.7012 60.8398 -43.7012 C 61.6699 -43.7012 62.1094 -44.1895 62.1582 -44.9707 C 62.4512 -49.5605 66.4062 -52.9297 71.8262 -52.9297 C 77.3926 -52.9297 80.8105 -49.8047 80.8105 -44.9707 C 80.8105 -41.7969 79.3945 -39.209 76.0742 -35.3027 L 61.2305 -18.1152 C 60.9375 -17.7734 60.791 -17.4805 60.791 -16.8945 C 60.791 -16.0156 61.4258 -15.5273 62.2559 -15.5273 Z M 44.5312 -27.5879 L 27.832 -27.5879 L 27.832 -27.6855 C 30.4688 -32.0801 41.3574 -48.1934 44.4336 -52.4902 L 44.5312 -52.4902 Z"/>
  </g>
  <g id="Black-S" transform="matrix(1 0 0 1 2884.57 696)">
   <path d="M 48.8281 6.78711 C 71.9727 6.78711 90.8203 -12.0605 90.8203 -35.2051 C 90.8203 -58.3496 71.9727 -77.1973 48.8281 -77.1973 C 25.6836 -77.1973 6.83594 -58.3496 6.83594 -35.2051 C 6.83594 -12.0605 25.6836 6.78711 48.8281 6.78711 Z M 48.8281 -7.37305 C 33.4473 -7.37305 20.9961 -19.8242 20.9961 -35.2051 C 20.9961 -50.5859 33.4473 -63.0371 48.8281 -63.0371 C 64.209 -63.0371 76.6602 -50.5859 76.6602 -35.2051 C 76.6602 -19.8242 64.209 -7.37305 48.8281 -7.37305 Z M 42.3828 -20.9961 C 44.4336 -20.9961 45.8008 -22.3145 45.8008 -24.2676 L 45.8008 -26.1719 L 46.1426 -26.1719 C 48.0957 -26.1719 49.1699 -27.3926 49.1699 -29.3457 C 49.1699 -31.3477 48.0957 -32.7148 46.1426 -32.7148 L 45.8008 -32.7148 L 45.8008 -43.5059 C 45.8008 -47.2656 43.9941 -49.5117 40.0879 -49.5117 C 36.6699 -49.5117 34.668 -48.0957 33.2031 -45.0684 C 31.8359 -42.2363 30.1758 -37.9883 29.4434 -35.6445 C 28.9551 -34.1309 28.4668 -32.4707 28.4668 -30.6641 C 28.4668 -27.7832 30.0293 -26.0742 33.1055 -26.0742 L 39.0137 -26.0742 L 39.0137 -24.2676 C 39.0137 -22.3145 40.3809 -20.9961 42.3828 -20.9961 Z M 55.0293 -21.4844 L 65.2832 -21.4844 C 67.627 -21.4844 69.043 -22.8516 69.043 -25.1953 C 69.043 -27.4414 67.627 -28.7598 65.2832 -28.7598 L 61.1328 -28.7598 L 61.1328 -29.1016 L 64.0137 -32.4707 C 66.8457 -35.7422 68.2129 -38.1836 68.1641 -41.3086 C 68.0664 -46.0449 64.8926 -49.5117 59.6191 -49.5117 C 55.4688 -49.5117 51.9531 -47.168 50.9277 -43.5547 C 50.7324 -42.8711 50.6348 -42.334 50.6348 -41.6016 C 50.6348 -39.6973 51.9043 -38.3301 53.8574 -38.3301 C 55.7617 -38.3301 56.7383 -39.3555 57.1289 -40.6738 C 57.4219 -41.6992 58.252 -42.4316 59.2773 -42.4316 C 60.4004 -42.4316 61.3281 -41.6016 61.3281 -40.625 C 61.3281 -39.1602 60.2539 -38.0859 58.5938 -36.1328 L 53.2227 -29.834 C 51.7578 -28.125 51.2207 -26.8555 51.2207 -25.293 C 51.2207 -22.9492 52.9297 -21.4844 55.0293 -21.4844 Z M 39.0137 -32.6172 L 35.6934 -32.6172 L 35.6934 -32.7637 C 36.4258 -34.9609 37.9395 -39.7461 38.916 -42.4316 L 39.0137 -42.4316 Z"/>
  </g>
  <g id="Heavy-S" transform="matrix(1 0 0 1 2588.47 696)">
   <path d="M 48.2422 6.15234 C 70.9961 6.15234 89.5996 -12.4512 89.5996 -35.2051 C 89.5996 -57.959 70.9961 -76.6113 48.1934 -76.6113 C 25.4395 -76.6113 6.83594 -57.959 6.83594 -35.2051 C 6.83594 -12.4512 25.4395 6.15234 48.2422 6.15234 Z M 48.2422 -6.39648 C 32.2754 -6.39648 19.4336 -19.2871 19.4336 -35.2051 C 19.4336 -51.1719 32.2754 -64.0137 48.1934 -64.0137 C 64.1602 -64.0137 77.002 -51.1719 77.0508 -35.2051 C 77.0508 -19.2871 64.1602 -6.39648 48.2422 -6.39648 Z M 41.5527 -20.459 C 43.5059 -20.459 44.7754 -21.7285 44.7754 -23.6328 L 44.7754 -26.0254 L 45.4102 -26.0254 C 47.2656 -26.0254 48.291 -27.1484 48.291 -29.0039 C 48.291 -30.9082 47.2656 -32.1777 45.4102 -32.1777 L 44.7754 -32.1777 L 44.7754 -44.5312 C 44.7754 -47.9492 42.9688 -50.0488 39.4043 -50.0488 C 36.1816 -50.0488 34.3262 -48.7793 32.8613 -45.8984 C 31.0547 -42.4316 29.0527 -37.8418 27.9297 -34.9609 C 27.3438 -33.4473 26.9531 -31.9824 26.9531 -30.3223 C 26.9531 -27.5879 28.4668 -25.9766 31.3477 -25.9766 L 38.3789 -25.9766 L 38.3789 -23.6328 C 38.3789 -21.7285 39.5996 -20.459 41.5527 -20.459 Z M 54.248 -21.0449 L 65.7715 -21.0449 C 67.8711 -21.0449 69.1895 -22.3145 69.1895 -24.4629 C 69.1895 -26.5625 67.8711 -27.7832 65.7715 -27.7832 L 60.1562 -27.7832 L 60.1562 -28.125 L 64.0137 -32.6172 C 66.7969 -35.8398 68.3594 -38.3789 68.3594 -41.6992 C 68.2617 -46.582 64.8926 -50.0488 59.4238 -50.0488 C 55.2246 -50.0488 51.5625 -47.6074 50.5371 -43.8965 C 50.3418 -43.2617 50.2441 -42.7734 50.2441 -42.0898 C 50.2441 -40.2832 51.416 -38.9648 53.2715 -38.9648 C 55.0293 -38.9648 55.9082 -39.9414 56.3477 -41.2598 C 56.8359 -42.6758 57.8613 -43.5059 59.2285 -43.5059 C 60.7422 -43.5059 61.9141 -42.4316 61.9141 -41.0645 C 61.9141 -39.3555 60.5469 -38.0371 58.8867 -36.084 L 52.4902 -28.5645 C 51.2207 -27.0508 50.7324 -25.9277 50.7324 -24.5605 C 50.7324 -22.4121 52.2461 -21.0449 54.248 -21.0449 Z M 38.3789 -32.0801 L 33.7891 -32.0801 L 33.7891 -32.2266 C 34.8633 -34.9609 36.7188 -39.9414 38.2324 -43.3105 L 38.3789 -43.3105 Z"/>
  </g>
  <g id="Bold-S" transform="matrix(1 0 0 1 2292.44 696)">
   <path d="M 47.5586 5.46875 C 69.873 5.46875 88.2324 -12.8906 88.2324 -35.2539 C 88.2324 -57.5684 69.873 -75.9277 47.5098 -75.9277 C 25.1953 -75.9277 6.83594 -57.5684 6.83594 -35.2539 C 6.83594 -12.8906 25.1953 5.46875 47.5586 5.46875 Z M 47.5586 -5.32227 C 30.957 -5.32227 17.6758 -18.6523 17.6758 -35.2539 C 17.6758 -51.8066 30.957 -65.1367 47.5098 -65.1367 C 64.1113 -65.1367 77.4414 -51.8066 77.4414 -35.2539 C 77.4414 -18.6523 64.1113 -5.32227 47.5586 -5.32227 Z M 40.5762 -19.8242 C 42.4805 -19.8242 43.6035 -21.0938 43.6035 -22.9004 L 43.6035 -25.8789 L 44.5801 -25.8789 C 46.2891 -25.8789 47.3145 -26.9043 47.3145 -28.6621 C 47.3145 -30.4199 46.2891 -31.543 44.5801 -31.543 L 43.6035 -31.543 L 43.6035 -45.6543 C 43.6035 -48.7793 41.8457 -50.6836 38.623 -50.6836 C 35.6934 -50.6836 33.9355 -49.5117 32.5195 -46.8262 C 30.2246 -42.627 27.832 -37.6465 26.1719 -34.1309 C 25.5859 -32.7148 25.2441 -31.4453 25.2441 -29.9316 C 25.2441 -27.3438 26.7578 -25.8301 29.3457 -25.8301 L 37.6465 -25.8301 L 37.6465 -22.9004 C 37.6465 -21.1426 38.7695 -19.8242 40.5762 -19.8242 Z M 53.3203 -20.5566 L 66.3086 -20.5566 C 68.1641 -20.5566 69.3848 -21.7285 69.3848 -23.6816 C 69.3848 -25.5859 68.1641 -26.709 66.3086 -26.709 L 59.0332 -26.709 L 59.0332 -27.002 L 64.0137 -32.7637 C 66.748 -35.9863 68.5547 -38.623 68.5547 -42.1387 C 68.5059 -47.2168 64.9414 -50.6836 59.2285 -50.6836 C 54.8828 -50.6836 51.123 -48.0469 50.0977 -44.3359 C 49.9512 -43.75 49.8535 -43.2129 49.8535 -42.627 C 49.8535 -40.918 50.9277 -39.6973 52.6367 -39.6973 C 54.1992 -39.6973 54.9805 -40.5762 55.4688 -41.8457 C 56.2012 -43.75 57.4219 -44.6777 59.1797 -44.6777 C 61.1328 -44.6777 62.5488 -43.3594 62.5488 -41.5527 C 62.5488 -39.5996 60.8887 -37.9883 59.2285 -36.0352 L 51.6602 -27.0996 C 50.6348 -25.8789 50.1953 -24.9023 50.1953 -23.6816 C 50.1953 -21.7773 51.5137 -20.5566 53.3203 -20.5566 Z M 37.6465 -31.4941 L 31.6406 -31.4941 L 31.6406 -31.6406 C 33.1543 -35.0098 35.4004 -40.1367 37.4512 -44.2871 L 37.6465 -44.2871 Z"/>
  </g>
  <g id="Semibold-S" transform="matrix(1 0 0 1 1996.2 696)">
   <path d="M 47.0703 4.98047 C 69.0918 4.98047 87.3047 -13.1836 87.3047 -35.2539 C 87.3047 -57.2754 69.0918 -75.4883 47.0215 -75.4883 C 25 -75.4883 6.83594 -57.2754 6.83594 -35.2539 C 6.83594 -13.1836 25.0488 4.98047 47.0703 4.98047 Z M 47.0703 -4.58984 C 30.0781 -4.58984 16.4551 -18.2129 16.4551 -35.2539 C 16.4551 -52.2461 30.0293 -65.8691 47.0215 -65.8691 C 64.0625 -65.8691 77.6855 -52.2461 77.7344 -35.2539 C 77.7344 -18.2129 64.0625 -4.58984 47.0703 -4.58984 Z M 39.9414 -19.3848 C 41.7969 -19.3848 42.8223 -20.6543 42.8223 -22.4121 L 42.8223 -25.7812 L 44.043 -25.7812 C 45.6543 -25.7812 46.6309 -26.7578 46.6309 -28.3691 C 46.6309 -30.0781 45.6543 -31.1035 44.043 -31.1035 L 42.8223 -31.1035 L 42.8223 -46.4355 C 42.8223 -49.3164 41.0645 -51.123 38.1348 -51.123 C 35.3516 -51.123 33.6426 -50 32.2754 -47.4609 C 29.6387 -42.7734 26.9531 -37.5488 25 -33.5938 C 24.3652 -32.2266 24.0723 -31.0547 24.0723 -29.6875 C 24.0723 -27.1973 25.5371 -25.7324 27.9785 -25.7324 L 37.1094 -25.7324 L 37.1094 -22.4121 C 37.1094 -20.7031 38.1348 -19.3848 39.9414 -19.3848 Z M 52.7344 -20.2148 L 66.6992 -20.2148 C 68.3105 -20.2148 69.4824 -21.2891 69.4824 -23.0957 C 69.4824 -24.9023 68.3105 -25.9277 66.6992 -25.9277 L 58.3008 -25.9277 L 58.3008 -26.2695 L 63.9648 -32.8613 C 66.6992 -36.0352 68.7012 -38.7695 68.6523 -42.4805 C 68.6523 -47.6562 64.9414 -51.123 59.082 -51.123 C 54.6875 -51.123 50.8301 -48.3887 49.7559 -44.6289 C 49.6582 -44.043 49.5605 -43.5547 49.5605 -43.0176 C 49.5605 -41.3574 50.5859 -40.2344 52.1973 -40.2344 C 53.6133 -40.2344 54.3457 -41.0156 54.8828 -42.2852 C 55.7129 -44.4824 57.1289 -45.5078 59.1309 -45.5078 C 61.4258 -45.5078 62.9883 -44.043 62.9883 -41.8945 C 62.9883 -39.7461 61.1328 -37.9395 59.4727 -35.9863 L 51.123 -26.123 C 50.1953 -25.0977 49.8535 -24.1699 49.8535 -23.0957 C 49.8535 -21.3379 51.0254 -20.2148 52.7344 -20.2148 Z M 37.1094 -31.0547 L 30.127 -31.0547 L 30.127 -31.25 C 31.9336 -35.0098 34.4727 -40.2832 36.9629 -44.9219 L 37.1094 -44.9219 Z"/>
  </g>
  <g id="Medium-S" transform="matrix(1 0 0 1 1699.83 696)">
   <path d="M 46.7285 4.63867 C 68.5547 4.63867 86.6211 -13.4277 86.6211 -35.2539 C 86.6211 -57.0801 68.5059 -75.1465 46.6797 -75.1465 C 24.8535 -75.1465 6.83594 -57.0801 6.83594 -35.2539 C 6.83594 -13.4277 24.9023 4.63867 46.7285 4.63867 Z M 46.7285 -4.00391 C 29.3945 -4.00391 15.5273 -17.9199 15.5273 -35.2539 C 15.5273 -52.5879 29.3457 -66.4551 46.6797 -66.4551 C 64.0137 -66.4551 77.8809 -52.5879 77.9297 -35.2539 C 77.9785 -17.9199 64.0625 -4.00391 46.7285 -4.00391 Z M 39.4531 -19.0918 C 41.2598 -19.0918 42.2363 -20.3125 42.2363 -22.0703 L 42.2363 -25.6836 L 43.6035 -25.6836 C 45.166 -25.6836 46.1426 -26.6113 46.1426 -28.2227 C 46.1426 -29.834 45.166 -30.7617 43.6035 -30.7617 L 42.2363 -30.7617 L 42.2363 -47.0215 C 42.2363 -49.707 40.4785 -51.416 37.6953 -51.416 C 35.0586 -51.416 33.4473 -50.3906 32.0801 -47.9492 C 29.1992 -42.8711 26.3184 -37.4512 24.1211 -33.2031 C 23.4375 -31.8359 23.1445 -30.7617 23.1445 -29.4922 C 23.1445 -27.0996 24.6582 -25.6836 26.9531 -25.6836 L 36.7676 -25.6836 L 36.7676 -22.0703 C 36.7676 -20.3613 37.6953 -19.0918 39.4531 -19.0918 Z M 52.2461 -19.9219 L 66.9434 -19.9219 C 68.457 -19.9219 69.5801 -20.9961 69.5801 -22.7051 C 69.5801 -24.4141 68.457 -25.3906 66.9434 -25.3906 L 57.7148 -25.3906 L 57.7148 -25.6836 L 63.9648 -32.959 C 66.6992 -36.1328 68.7988 -38.8672 68.75 -42.7246 C 68.75 -47.998 64.9414 -51.416 58.9844 -51.416 C 54.541 -51.416 50.5859 -48.6328 49.5117 -44.8242 C 49.4141 -44.2871 49.3164 -43.7988 49.3164 -43.3105 C 49.3164 -41.6504 50.293 -40.625 51.8555 -40.625 C 53.1738 -40.625 53.8574 -41.3574 54.3945 -42.627 C 55.3711 -45.0684 56.9336 -46.1426 59.1309 -46.1426 C 61.6211 -46.1426 63.3301 -44.5312 63.3301 -42.1875 C 63.3301 -39.8438 61.3281 -37.8906 59.668 -35.9375 L 50.6836 -25.3418 C 49.9023 -24.4629 49.5605 -23.6328 49.5605 -22.6562 C 49.5605 -20.9961 50.6348 -19.9219 52.2461 -19.9219 Z M 36.7676 -30.7617 L 29.0039 -30.7617 L 29.0039 -30.957 C 31.0547 -35.0098 33.7402 -40.3809 36.5234 -45.459 L 36.7676 -45.459 Z"/>
  </g>
  <g id="Regular-S" transform="matrix(1 0 0 1 1403.58 696)">
   <path d="M 46.2402 4.15039 C 67.7734 4.15039 85.6934 -13.7207 85.6934 -35.2539 C 85.6934 -56.7871 67.7246 -74.6582 46.1914 -74.6582 C 24.707 -74.6582 6.83594 -56.7871 6.83594 -35.2539 C 6.83594 -13.7207 24.7559 4.15039 46.2402 4.15039 Z M 46.2402 -3.27148 C 28.5156 -3.27148 14.3555 -17.4805 14.3555 -35.2539 C 14.3555 -53.0273 28.4668 -67.2363 46.1914 -67.2363 C 63.9648 -67.2363 78.1738 -53.0273 78.2227 -35.2539 C 78.2715 -17.4805 64.0137 -3.27148 46.2402 -3.27148 Z M 38.8184 -18.6523 C 40.5273 -18.6523 41.4551 -19.873 41.4551 -21.582 L 41.4551 -25.5859 L 43.0664 -25.5859 C 44.5312 -25.5859 45.459 -26.416 45.459 -27.9297 C 45.459 -29.4922 44.5312 -30.3711 43.0664 -30.3711 L 41.4551 -30.3711 L 41.4551 -47.8027 C 41.4551 -50.2441 39.6973 -51.8555 37.207 -51.8555 C 34.7168 -51.8555 33.2031 -50.9277 31.8359 -48.5352 C 28.6133 -43.0176 25.4395 -37.3535 22.9492 -32.666 C 22.2168 -31.2988 21.9727 -30.4199 21.9727 -29.248 C 21.9727 -26.9531 23.4375 -25.5859 25.5859 -25.5859 L 36.2305 -25.5859 L 36.2305 -21.582 C 36.2305 -19.9219 37.1094 -18.6523 38.8184 -18.6523 Z M 51.6602 -19.5801 L 67.334 -19.5801 C 68.6523 -19.5801 69.6777 -20.6055 69.6777 -22.1191 C 69.6777 -23.7305 68.6523 -24.6582 67.334 -24.6582 L 56.9824 -24.6582 L 56.9824 -24.9023 L 63.9648 -33.0566 C 66.6504 -36.1816 68.8965 -39.0137 68.8965 -43.0176 C 68.8965 -48.3887 64.9414 -51.8555 58.8379 -51.8555 C 54.3457 -51.8555 50.293 -48.9746 49.2188 -45.1172 C 49.1211 -44.6289 49.0234 -44.1406 49.0234 -43.6523 C 49.0234 -42.0898 49.9512 -41.1133 51.416 -41.1133 C 52.5879 -41.1133 53.2227 -41.7969 53.8086 -43.0664 C 54.9316 -45.8008 56.6406 -46.9238 59.082 -46.9238 C 61.9141 -46.9238 63.7695 -45.166 63.7695 -42.4805 C 63.7695 -39.9902 61.5723 -37.8906 59.9121 -35.8887 L 50.1465 -24.3652 C 49.4629 -23.6816 49.1699 -22.9004 49.1699 -22.1191 C 49.1699 -20.6055 50.1465 -19.5801 51.6602 -19.5801 Z M 36.2305 -30.3711 L 27.5879 -30.3711 L 27.5879 -30.5664 C 29.834 -35.0098 32.8613 -40.5273 36.0352 -46.0938 L 36.2305 -46.0938 Z"/>
  </g>
  <g id="Light-S" transform="matrix(1 0 0 1 1107.6 696)">
   <path d="M 45.5078 3.41797 C 66.6992 3.41797 84.2285 -14.0625 84.2285 -35.2539 C 84.2285 -56.4453 66.6504 -73.9258 45.5078 -73.9258 C 24.3164 -73.9258 6.83594 -56.4453 6.83594 -35.2539 C 6.83594 -14.0625 24.3652 3.41797 45.5078 3.41797 Z M 45.5078 -2.29492 C 27.2461 -2.29492 12.5977 -16.9922 12.5977 -35.2539 C 12.5977 -53.5156 27.1973 -68.2129 45.5078 -68.2129 C 63.7695 -68.2129 78.4668 -53.5156 78.5156 -35.2539 C 78.5156 -16.9922 63.8184 -2.29492 45.5078 -2.29492 Z M 37.8906 -18.9453 C 39.2578 -18.9453 39.9902 -19.873 39.9902 -21.2402 L 39.9902 -26.123 L 42.4805 -26.123 C 43.6523 -26.123 44.3848 -26.8555 44.3848 -28.0273 C 44.3848 -29.2969 43.6035 -30.0293 42.4805 -30.0293 L 39.9902 -30.0293 L 39.9902 -48.3398 C 39.9902 -50.293 38.623 -51.6113 36.6211 -51.6113 C 34.6191 -51.6113 33.3984 -50.8789 32.2754 -48.9746 C 29.1016 -43.75 24.6582 -36.377 21.9727 -31.8359 C 21.4355 -30.8105 21.2402 -30.0293 21.2402 -29.1016 C 21.2402 -27.2461 22.4609 -26.123 24.2676 -26.123 L 35.8398 -26.123 L 35.8398 -21.2402 C 35.8398 -19.9219 36.5723 -18.9453 37.8906 -18.9453 Z M 50.7324 -19.6289 L 66.6992 -19.6289 C 67.8223 -19.6289 68.6523 -20.459 68.6523 -21.6797 C 68.6523 -22.9492 67.8223 -23.7305 66.6992 -23.7305 L 54.9316 -23.7305 L 54.9316 -23.9258 L 62.8906 -33.1543 C 65.8203 -36.5723 67.8223 -39.3066 67.8223 -42.9688 C 67.8223 -48.1934 63.9648 -51.6113 58.0566 -51.6113 C 53.418 -51.6113 49.3652 -48.6816 48.4375 -44.7266 C 48.3887 -44.2871 48.291 -43.8477 48.291 -43.4082 C 48.291 -42.1875 49.0234 -41.3574 50.2441 -41.3574 C 51.2695 -41.3574 51.8066 -41.9434 52.2461 -43.0176 C 53.0762 -45.9961 55.1758 -47.6074 58.2031 -47.6074 C 61.4746 -47.6074 63.623 -45.6055 63.623 -42.627 C 63.623 -40.1367 61.7676 -38.0371 59.8145 -35.6934 L 49.4629 -23.584 C 48.9258 -22.998 48.6816 -22.4121 48.6816 -21.7285 C 48.6816 -20.459 49.5117 -19.6289 50.7324 -19.6289 Z M 35.8398 -30.0293 L 25.7812 -30.0293 L 25.7812 -30.1758 C 27.9785 -34.3262 32.7148 -42.041 35.6445 -46.9238 L 35.8398 -46.9238 Z"/>
  </g>
  <g id="Thin-S" transform="matrix(1 0 0 1 811.867 696)">
   <path d="M 44.5801 2.49023 C 65.2832 2.49023 82.2754 -14.5508 82.2754 -35.2539 C 82.2754 -55.957 65.2344 -72.998 44.5312 -72.998 C 23.8281 -72.998 6.83594 -55.957 6.83594 -35.2539 C 6.83594 -14.5508 23.877 2.49023 44.5801 2.49023 Z M 44.5801 -0.927734 C 25.5859 -0.927734 10.2539 -16.3086 10.2539 -35.2539 C 10.2539 -54.1992 25.5859 -69.5801 44.5312 -69.5801 C 63.5254 -69.5801 78.8574 -54.1992 78.8574 -35.2539 C 78.8574 -16.3086 63.5254 -0.927734 44.5801 -0.927734 Z M 36.6699 -19.2871 C 37.5977 -19.2871 38.0859 -19.9219 38.0859 -20.8008 L 38.0859 -26.8555 L 41.6504 -26.8555 C 42.4805 -26.8555 42.9688 -27.3926 42.9688 -28.1738 C 42.9688 -29.0039 42.4316 -29.541 41.6504 -29.541 L 38.0859 -29.541 L 38.0859 -49.0723 C 38.0859 -50.3906 37.1582 -51.2695 35.791 -51.2695 C 34.5215 -51.2695 33.6426 -50.7812 32.8125 -49.4629 C 29.7363 -44.6777 23.584 -35.1562 20.752 -30.7129 C 20.4102 -30.127 20.2637 -29.541 20.2637 -28.9062 C 20.2637 -27.5879 21.1426 -26.8555 22.4609 -26.8555 L 35.2539 -26.8555 L 35.2539 -20.8008 C 35.2539 -19.9219 35.8398 -19.2871 36.6699 -19.2871 Z M 49.5605 -19.7266 L 65.918 -19.7266 C 66.6992 -19.7266 67.2363 -20.3125 67.2363 -21.1426 C 67.2363 -21.9238 66.6992 -22.5098 65.918 -22.5098 L 52.2949 -22.5098 L 52.2949 -22.6562 L 61.4258 -33.252 C 64.6973 -37.0605 66.3574 -39.6973 66.3574 -42.8711 C 66.3574 -47.9492 62.5977 -51.2695 56.9824 -51.2695 C 52.2461 -51.2695 48.1934 -48.291 47.4121 -44.2383 C 47.3633 -43.7988 47.3145 -43.5059 47.3145 -43.1152 C 47.3145 -42.2852 47.8516 -41.6504 48.6816 -41.6504 C 49.5117 -41.6504 49.9023 -42.1387 50.0977 -42.9199 C 50.5859 -46.2402 53.3203 -48.4863 57.0312 -48.4863 C 60.9863 -48.4863 63.4277 -46.2402 63.4277 -42.7734 C 63.4277 -40.2832 62.0117 -38.1836 59.7168 -35.4492 L 48.584 -22.5586 C 48.1934 -22.1191 48.0469 -21.7773 48.0469 -21.2402 C 48.0469 -20.2637 48.6816 -19.7266 49.5605 -19.7266 Z M 35.2539 -29.541 L 23.3887 -29.541 L 23.3887 -29.6875 C 25.5371 -33.3984 32.5195 -44.043 35.1562 -48.0469 L 35.2539 -48.0469 Z"/>
  </g>
  <g id="Ultralight-S" transform="matrix(1 0 0 1 515.644 696)">
   <path d="M 44.043 1.95312 C 64.502 1.95312 81.2988 -14.7949 81.2988 -35.2539 C 81.2988 -55.7129 64.502 -72.4609 44.043 -72.4609 C 23.584 -72.4609 6.83594 -55.7129 6.83594 -35.2539 C 6.83594 -14.7949 23.584 1.95312 44.043 1.95312 Z M 44.043 -0.244141 C 24.7559 -0.244141 9.08203 -15.9668 9.08203 -35.2539 C 9.08203 -54.541 24.7559 -70.2637 44.043 -70.2637 C 63.3789 -70.2637 79.0527 -54.541 79.0527 -35.2539 C 79.0527 -15.9668 63.3789 -0.244141 44.043 -0.244141 Z M 36.0352 -19.4824 C 36.7188 -19.4824 37.1094 -19.9219 37.1094 -20.5566 L 37.1094 -27.2461 L 41.2598 -27.2461 C 41.8945 -27.2461 42.2363 -27.6855 42.2363 -28.2715 C 42.2363 -28.8574 41.8457 -29.2969 41.2598 -29.2969 L 37.1094 -29.2969 L 37.1094 -49.4141 C 37.1094 -50.4395 36.4258 -51.0742 35.4004 -51.0742 C 34.4238 -51.0742 33.7891 -50.7324 33.1543 -49.7559 C 30.0293 -45.2148 23.0469 -34.5215 20.1172 -30.127 C 19.873 -29.7852 19.7266 -29.248 19.7266 -28.8086 C 19.7266 -27.7832 20.459 -27.2461 21.5332 -27.2461 L 34.9609 -27.2461 L 34.9609 -20.5566 C 34.9609 -19.9219 35.4492 -19.4824 36.0352 -19.4824 Z M 48.9746 -19.7754 L 65.4785 -19.7754 C 66.1621 -19.7754 66.5039 -20.2148 66.5039 -20.8008 C 66.5039 -21.3867 66.1621 -21.875 65.4785 -21.875 L 50.8789 -21.875 L 50.8789 -21.9727 L 60.6934 -33.3496 C 64.1602 -37.3535 65.625 -39.8926 65.625 -42.8223 C 65.625 -47.8516 61.9141 -51.0742 56.4453 -51.0742 C 51.6602 -51.0742 47.6074 -48.0957 46.875 -43.9453 C 46.8262 -43.5547 46.7773 -43.3105 46.7773 -42.9688 C 46.7773 -42.334 47.2168 -41.7969 47.9004 -41.7969 C 48.584 -41.7969 48.9746 -42.2363 49.0234 -42.8711 C 49.3164 -46.3867 52.3438 -48.9746 56.4453 -48.9746 C 60.6934 -48.9746 63.3301 -46.582 63.3301 -42.8711 C 63.3301 -40.3809 62.1582 -38.3301 59.6191 -35.3516 L 48.0957 -22.0215 C 47.8516 -21.6797 47.7539 -21.4355 47.7539 -20.9473 C 47.7539 -20.166 48.2422 -19.7754 48.9746 -19.7754 Z M 34.9609 -29.2969 L 22.168 -29.2969 L 22.168 -29.3945 C 24.2676 -32.9102 32.4219 -45.0684 34.8633 -48.584 L 34.9609 -48.584 Z"/>
  </g>
 </g>
</svg>
