<?xml version="1.0" encoding="UTF-8"?>
<!--Generator: Apple Native CoreSVG 148-->
<!DOCTYPE svg
PUBLIC "-//W3C//DTD SVG 1.1//EN"
       "http://www.w3.org/Graphics/SVG/1.1/DTD/svg11.dtd">
<svg version="1.1" xmlns="http://www.w3.org/2000/svg" xmlns:xlink="http://www.w3.org/1999/xlink" width="3300" height="2200">
 <!--glyph: "uni1006D4.medium", point size: 100.000000, font version: "Version 16.0d11e1", template writer version: "8"-->
 <g id="Notes">
  <rect height="2200" id="artboard" style="fill:white;opacity:1" width="3300" x="0" y="0"/>
  <line id="" style="fill:none;stroke:black;opacity:1;stroke-width:0.5;" x1="263" x2="3036" y1="292" y2="292"/>
  <text style="stroke:none;fill:black;font-family:-apple-system,&quot;SF Pro Display&quot;,&quot;SF Pro Text&quot;,Helvetica,sans-serif;font-weight:bold;" transform="matrix(1 0 0 1 263 322)">Weight/Scale Variations</text>
  <text style="stroke:none;fill:black;font-family:-apple-system,&quot;SF Pro Display&quot;,&quot;SF Pro Text&quot;,Helvetica,sans-serif;text-anchor:middle;" transform="matrix(1 0 0 1 559.711 322)">Ultralight</text>
  <text style="stroke:none;fill:black;font-family:-apple-system,&quot;SF Pro Display&quot;,&quot;SF Pro Text&quot;,Helvetica,sans-serif;text-anchor:middle;" transform="matrix(1 0 0 1 856.422 322)">Thin</text>
  <text style="stroke:none;fill:black;font-family:-apple-system,&quot;SF Pro Display&quot;,&quot;SF Pro Text&quot;,Helvetica,sans-serif;text-anchor:middle;" transform="matrix(1 0 0 1 1153.13 322)">Light</text>
  <text style="stroke:none;fill:black;font-family:-apple-system,&quot;SF Pro Display&quot;,&quot;SF Pro Text&quot;,Helvetica,sans-serif;text-anchor:middle;" transform="matrix(1 0 0 1 1449.84 322)">Regular</text>
  <text style="stroke:none;fill:black;font-family:-apple-system,&quot;SF Pro Display&quot;,&quot;SF Pro Text&quot;,Helvetica,sans-serif;text-anchor:middle;" transform="matrix(1 0 0 1 1746.56 322)">Medium</text>
  <text style="stroke:none;fill:black;font-family:-apple-system,&quot;SF Pro Display&quot;,&quot;SF Pro Text&quot;,Helvetica,sans-serif;text-anchor:middle;" transform="matrix(1 0 0 1 2043.27 322)">Semibold</text>
  <text style="stroke:none;fill:black;font-family:-apple-system,&quot;SF Pro Display&quot;,&quot;SF Pro Text&quot;,Helvetica,sans-serif;text-anchor:middle;" transform="matrix(1 0 0 1 2339.98 322)">Bold</text>
  <text style="stroke:none;fill:black;font-family:-apple-system,&quot;SF Pro Display&quot;,&quot;SF Pro Text&quot;,Helvetica,sans-serif;text-anchor:middle;" transform="matrix(1 0 0 1 2636.69 322)">Heavy</text>
  <text style="stroke:none;fill:black;font-family:-apple-system,&quot;SF Pro Display&quot;,&quot;SF Pro Text&quot;,Helvetica,sans-serif;text-anchor:middle;" transform="matrix(1 0 0 1 2933.4 322)">Black</text>
  <line id="" style="fill:none;stroke:black;opacity:1;stroke-width:0.5;" x1="263" x2="3036" y1="1903" y2="1903"/>
  <g id="" transform="matrix(1 0 0 1 263 1933)">
   <path d="M 9.24805 0.830078 C 13.5547 0.830078 17.1387 -2.74414 17.1387 -7.05078 C 17.1387 -11.3574 13.5449 -14.9316 9.23828 -14.9316 C 4.94141 -14.9316 1.36719 -11.3574 1.36719 -7.05078 C 1.36719 -2.74414 4.95117 0.830078 9.24805 0.830078 Z M 9.24805 -0.654297 C 5.70312 -0.654297 2.87109 -3.49609 2.87109 -7.05078 C 2.87109 -10.6055 5.69336 -13.4473 9.23828 -13.4473 C 12.793 -13.4473 15.6348 -10.6055 15.6445 -7.05078 C 15.6543 -3.49609 12.8027 -0.654297 9.24805 -0.654297 Z M 9.22852 -3.62305 C 9.69727 -3.62305 9.9707 -3.93555 9.9707 -4.45312 L 9.9707 -6.31836 L 12.002 -6.31836 C 12.5 -6.31836 12.832 -6.57227 12.832 -7.04102 C 12.832 -7.51953 12.5195 -7.7832 12.002 -7.7832 L 9.9707 -7.7832 L 9.9707 -9.81445 C 9.9707 -10.332 9.69727 -10.6543 9.22852 -10.6543 C 8.75977 -10.6543 8.50586 -10.3125 8.50586 -9.81445 L 8.50586 -7.7832 L 6.49414 -7.7832 C 5.97656 -7.7832 5.64453 -7.51953 5.64453 -7.04102 C 5.64453 -6.57227 5.99609 -6.31836 6.49414 -6.31836 L 8.50586 -6.31836 L 8.50586 -4.45312 C 8.50586 -3.95508 8.75977 -3.62305 9.22852 -3.62305 Z"/>
  </g>
  <g id="" transform="matrix(1 0 0 1 281.506 1933)">
   <path d="M 11.709 2.91016 C 17.1582 2.91016 21.6699 -1.61133 21.6699 -7.05078 C 21.6699 -12.5 17.1484 -17.0117 11.6992 -17.0117 C 6.25977 -17.0117 1.74805 -12.5 1.74805 -7.05078 C 1.74805 -1.61133 6.26953 2.91016 11.709 2.91016 Z M 11.709 1.25 C 7.09961 1.25 3.41797 -2.44141 3.41797 -7.05078 C 3.41797 -11.6602 7.08984 -15.3516 11.6992 -15.3516 C 16.3086 -15.3516 20 -11.6602 20.0098 -7.05078 C 20.0195 -2.44141 16.3184 1.25 11.709 1.25 Z M 11.6797 -2.66602 C 12.207 -2.66602 12.5098 -3.01758 12.5098 -3.59375 L 12.5098 -6.23047 L 15.3223 -6.23047 C 15.8691 -6.23047 16.25 -6.51367 16.25 -7.03125 C 16.25 -7.55859 15.8887 -7.86133 15.3223 -7.86133 L 12.5098 -7.86133 L 12.5098 -10.6836 C 12.5098 -11.25 12.207 -11.6113 11.6797 -11.6113 C 11.1621 -11.6113 10.8789 -11.2305 10.8789 -10.6836 L 10.8789 -7.86133 L 8.07617 -7.86133 C 7.50977 -7.86133 7.13867 -7.55859 7.13867 -7.03125 C 7.13867 -6.51367 7.5293 -6.23047 8.07617 -6.23047 L 10.8789 -6.23047 L 10.8789 -3.59375 C 10.8789 -3.03711 11.1621 -2.66602 11.6797 -2.66602 Z"/>
  </g>
  <g id="" transform="matrix(1 0 0 1 304.924 1933)">
   <path d="M 14.9707 5.66406 C 21.9336 5.66406 27.6953 -0.0976562 27.6953 -7.05078 C 27.6953 -14.0137 21.9238 -19.7754 14.9609 -19.7754 C 8.00781 -19.7754 2.25586 -14.0137 2.25586 -7.05078 C 2.25586 -0.0976562 8.01758 5.66406 14.9707 5.66406 Z M 14.9707 3.84766 C 8.93555 3.84766 4.08203 -1.01562 4.08203 -7.05078 C 4.08203 -13.0957 8.92578 -17.9492 14.9609 -17.9492 C 21.0059 -17.9492 25.8594 -13.0957 25.8691 -7.05078 C 25.8789 -1.01562 21.0156 3.84766 14.9707 3.84766 Z M 14.9414 -1.38672 C 15.5176 -1.38672 15.8594 -1.77734 15.8594 -2.38281 L 15.8594 -6.13281 L 19.7754 -6.13281 C 20.3711 -6.13281 20.7812 -6.46484 20.7812 -7.02148 C 20.7812 -7.59766 20.3906 -7.93945 19.7754 -7.93945 L 15.8594 -7.93945 L 15.8594 -11.8652 C 15.8594 -12.4805 15.5176 -12.8711 14.9414 -12.8711 C 14.375 -12.8711 14.0527 -12.4609 14.0527 -11.8652 L 14.0527 -7.93945 L 10.1465 -7.93945 C 9.53125 -7.93945 9.13086 -7.59766 9.13086 -7.02148 C 9.13086 -6.46484 9.55078 -6.13281 10.1465 -6.13281 L 14.0527 -6.13281 L 14.0527 -2.38281 C 14.0527 -1.79688 14.375 -1.38672 14.9414 -1.38672 Z"/>
  </g>
  <text style="stroke:none;fill:black;font-family:-apple-system,&quot;SF Pro Display&quot;,&quot;SF Pro Text&quot;,Helvetica,sans-serif;font-weight:bold;" transform="matrix(1 0 0 1 263 1953)">Design Variations</text>
  <text style="stroke:none;fill:black;font-family:-apple-system,&quot;SF Pro Display&quot;,&quot;SF Pro Text&quot;,Helvetica,sans-serif;" transform="matrix(1 0 0 1 263 1971)">Symbols are supported in up to nine weights and three scales.</text>
  <text style="stroke:none;fill:black;font-family:-apple-system,&quot;SF Pro Display&quot;,&quot;SF Pro Text&quot;,Helvetica,sans-serif;" transform="matrix(1 0 0 1 263 1989)">For optimal layout with text and other symbols, vertically align</text>
  <text style="stroke:none;fill:black;font-family:-apple-system,&quot;SF Pro Display&quot;,&quot;SF Pro Text&quot;,Helvetica,sans-serif;" transform="matrix(1 0 0 1 263 2007)">symbols with the adjacent text.</text>
  <line id="" style="fill:none;stroke:#00AEEF;stroke-width:0.5;opacity:1.0;" x1="776" x2="776" y1="1919" y2="1933"/>
  <g id="" transform="matrix(1 0 0 1 776 1933)">
   <path d="M 3.31055 0.126953 C 3.82812 0.126953 4.08203 -0.0683594 4.26758 -0.605469 L 5.52734 -4.0625 L 11.2891 -4.0625 L 12.5488 -0.605469 C 12.7344 -0.0683594 12.9883 0.126953 13.4961 0.126953 C 14.0137 0.126953 14.3457 -0.185547 14.3457 -0.673828 C 14.3457 -0.839844 14.3164 -0.986328 14.2383 -1.20117 L 9.6582 -13.3887 C 9.43359 -13.9941 9.0332 -14.2871 8.4082 -14.2871 C 7.80273 -14.2871 7.39258 -13.9941 7.17773 -13.3984 L 2.59766 -1.19141 C 2.51953 -0.976562 2.49023 -0.830078 2.49023 -0.664062 C 2.49023 -0.175781 2.80273 0.126953 3.31055 0.126953 Z M 6.00586 -5.53711 L 8.37891 -12.1094 L 8.42773 -12.1094 L 10.8008 -5.53711 Z"/>
  </g>
  <line id="" style="fill:none;stroke:#00AEEF;stroke-width:0.5;opacity:1.0;" x1="792.836" x2="792.836" y1="1919" y2="1933"/>
  <text style="stroke:none;fill:black;font-family:-apple-system,&quot;SF Pro Display&quot;,&quot;SF Pro Text&quot;,Helvetica,sans-serif;font-weight:bold;" transform="matrix(1 0 0 1 776 1953)">Margins</text>
  <text style="stroke:none;fill:black;font-family:-apple-system,&quot;SF Pro Display&quot;,&quot;SF Pro Text&quot;,Helvetica,sans-serif;" transform="matrix(1 0 0 1 776 1971)">Leading and trailing margins on the left and right side of each symbol</text>
  <text style="stroke:none;fill:black;font-family:-apple-system,&quot;SF Pro Display&quot;,&quot;SF Pro Text&quot;,Helvetica,sans-serif;" transform="matrix(1 0 0 1 776 1989)">can be adjusted by modifying the x-location of the margin guidelines.</text>
  <text style="stroke:none;fill:black;font-family:-apple-system,&quot;SF Pro Display&quot;,&quot;SF Pro Text&quot;,Helvetica,sans-serif;" transform="matrix(1 0 0 1 776 2007)">Modifications are automatically applied proportionally to all</text>
  <text style="stroke:none;fill:black;font-family:-apple-system,&quot;SF Pro Display&quot;,&quot;SF Pro Text&quot;,Helvetica,sans-serif;" transform="matrix(1 0 0 1 776 2025)">scales and weights.</text>
  <g id="" transform="matrix(1 0 0 1 1289 1933)">
   <path d="M 2.8418 1.86523 L 4.54102 3.57422 C 5.40039 4.44336 6.38672 4.38477 7.31445 3.35938 L 17.4902 -7.85156 C 17.7539 -7.76367 18.0273 -7.7832 18.3398 -7.8418 L 19.4043 -8.03711 L 20.0684 -7.36328 L 20.0293 -6.80664 C 19.9902 -6.30859 20.1172 -5.92773 20.6055 -5.44922 L 21.3672 -4.70703 C 21.8457 -4.22852 22.4609 -4.19922 22.9297 -4.66797 L 25.8398 -7.58789 C 26.3086 -8.05664 26.2891 -8.65234 25.8105 -9.13086 L 25.0391 -9.89258 C 24.5605 -10.3711 24.1895 -10.5273 23.7109 -10.4883 L 23.1348 -10.4395 L 22.4902 -11.0742 L 22.7344 -12.1973 C 22.8613 -12.7637 22.7051 -13.2031 22.1191 -13.7891 L 19.9219 -15.9766 C 16.582 -19.2969 12.1484 -19.2188 9.25781 -16.3281 C 8.83789 -15.918 8.80859 -15.3418 9.04297 -14.9512 C 9.27734 -14.5898 9.73633 -14.3555 10.3809 -14.5215 C 11.8457 -14.8633 13.3691 -14.9219 14.7949 -13.9844 L 14.209 -12.5293 C 14.0137 -12.0508 13.9844 -11.6504 14.1113 -11.2891 L 3.04688 -0.898438 C 2.06055 0.0195312 1.98242 0.996094 2.8418 1.86523 Z M 10.752 -15.957 C 13.1836 -17.7344 16.4746 -17.4316 18.7012 -15.2051 L 21.1328 -12.793 C 21.3672 -12.5586 21.4062 -12.373 21.3379 -12.0312 L 21.0156 -10.5469 L 22.5195 -9.0625 L 23.5059 -9.12109 C 23.7598 -9.13086 23.8379 -9.11133 24.0332 -8.91602 L 24.6094 -8.33984 L 22.168 -5.89844 L 21.5918 -6.47461 C 21.3965 -6.66992 21.3672 -6.74805 21.377 -7.01172 L 21.4453 -7.98828 L 19.9512 -9.47266 L 18.4277 -9.21875 C 18.1055 -9.15039 17.959 -9.17969 17.7148 -9.41406 L 15.7129 -11.416 C 15.459 -11.6504 15.4297 -11.8164 15.5859 -12.1875 L 16.4648 -14.2773 C 14.9023 -15.7324 12.8711 -16.3574 10.8398 -15.7617 C 10.6836 -15.7227 10.625 -15.8496 10.752 -15.957 Z M 5.27344 2.30469 L 4.10156 1.14258 C 3.63281 0.683594 3.74023 0.341797 4.14062 -0.0195312 L 14.9512 -10.1953 L 16.416 -8.71094 L 6.42578 2.27539 C 6.07422 2.67578 5.74219 2.77344 5.27344 2.30469 Z"/>
  </g>
  <text style="stroke:none;fill:black;font-family:-apple-system,&quot;SF Pro Display&quot;,&quot;SF Pro Text&quot;,Helvetica,sans-serif;font-weight:bold;" transform="matrix(1 0 0 1 1289 1953)">Exporting</text>
  <text style="stroke:none;fill:black;font-family:-apple-system,&quot;SF Pro Display&quot;,&quot;SF Pro Text&quot;,Helvetica,sans-serif;" transform="matrix(1 0 0 1 1289 1971)">Symbols should be outlined when exporting to ensure the</text>
  <text style="stroke:none;fill:black;font-family:-apple-system,&quot;SF Pro Display&quot;,&quot;SF Pro Text&quot;,Helvetica,sans-serif;" transform="matrix(1 0 0 1 1289 1989)">design is preserved when submitting to Xcode.</text>
  <text id="template-version" style="stroke:none;fill:black;font-family:-apple-system,&quot;SF Pro Display&quot;,&quot;SF Pro Text&quot;,Helvetica,sans-serif;text-anchor:end;" transform="matrix(1 0 0 1 3036 1933)">Template v.2.0</text>
  <text style="stroke:none;fill:black;font-family:-apple-system,&quot;SF Pro Display&quot;,&quot;SF Pro Text&quot;,Helvetica,sans-serif;text-anchor:end;" transform="matrix(1 0 0 1 3036 1951)">Requires Xcode 12 or greater</text>
  <text style="stroke:none;fill:black;font-family:-apple-system,&quot;SF Pro Display&quot;,&quot;SF Pro Text&quot;,Helvetica,sans-serif;text-anchor:end;" transform="matrix(1 0 0 1 3036 1969)">Generated from 43.square.fill</text>
  <text style="stroke:none;fill:black;font-family:-apple-system,&quot;SF Pro Display&quot;,&quot;SF Pro Text&quot;,Helvetica,sans-serif;text-anchor:end;" transform="matrix(1 0 0 1 3036 1987)">Typeset at 100 points</text>
  <text style="stroke:none;fill:black;font-family:-apple-system,&quot;SF Pro Display&quot;,&quot;SF Pro Text&quot;,Helvetica,sans-serif;" transform="matrix(1 0 0 1 263 726)">Small</text>
  <text style="stroke:none;fill:black;font-family:-apple-system,&quot;SF Pro Display&quot;,&quot;SF Pro Text&quot;,Helvetica,sans-serif;" transform="matrix(1 0 0 1 263 1156)">Medium</text>
  <text style="stroke:none;fill:black;font-family:-apple-system,&quot;SF Pro Display&quot;,&quot;SF Pro Text&quot;,Helvetica,sans-serif;" transform="matrix(1 0 0 1 263 1586)">Large</text>
 </g>
 <g id="Guides">
  <g id="H-reference" style="fill:#27AAE1;stroke:none;" transform="matrix(1 0 0 1 339 696)">
   <path d="M 0.976562 0 L 3.66211 0 L 12.9883 -24.4629 L 45.7031 -24.4629 L 55.0781 0 L 57.7148 0 L 30.6152 -70.459 L 28.125 -70.459 Z M 29.2969 -67.1387 L 29.3945 -67.1387 L 44.873 -26.709 L 13.8672 -26.709 Z"/>
  </g>
  <line id="Baseline-S" style="fill:none;stroke:#27AAE1;opacity:1;stroke-width:0.5;" x1="263" x2="3036" y1="696" y2="696"/>
  <line id="Capline-S" style="fill:none;stroke:#27AAE1;opacity:1;stroke-width:0.5;" x1="263" x2="3036" y1="625.541" y2="625.541"/>
  <g id="H-reference" style="fill:#27AAE1;stroke:none;" transform="matrix(1 0 0 1 339 1126)">
   <path d="M 0.976562 0 L 3.66211 0 L 12.9883 -24.4629 L 45.7031 -24.4629 L 55.0781 0 L 57.7148 0 L 30.6152 -70.459 L 28.125 -70.459 Z M 29.2969 -67.1387 L 29.3945 -67.1387 L 44.873 -26.709 L 13.8672 -26.709 Z"/>
  </g>
  <line id="Baseline-M" style="fill:none;stroke:#27AAE1;opacity:1;stroke-width:0.5;" x1="263" x2="3036" y1="1126" y2="1126"/>
  <line id="Capline-M" style="fill:none;stroke:#27AAE1;opacity:1;stroke-width:0.5;" x1="263" x2="3036" y1="1055.54" y2="1055.54"/>
  <g id="H-reference" style="fill:#27AAE1;stroke:none;" transform="matrix(1 0 0 1 339 1556)">
   <path d="M 0.976562 0 L 3.66211 0 L 12.9883 -24.4629 L 45.7031 -24.4629 L 55.0781 0 L 57.7148 0 L 30.6152 -70.459 L 28.125 -70.459 Z M 29.2969 -67.1387 L 29.3945 -67.1387 L 44.873 -26.709 L 13.8672 -26.709 Z"/>
  </g>
  <line id="Baseline-L" style="fill:none;stroke:#27AAE1;opacity:1;stroke-width:0.5;" x1="263" x2="3036" y1="1556" y2="1556"/>
  <line id="Capline-L" style="fill:none;stroke:#27AAE1;opacity:1;stroke-width:0.5;" x1="263" x2="3036" y1="1485.54" y2="1485.54"/>
  <line id="left-margin" style="fill:none;stroke:#00AEEF;stroke-width:0.5;opacity:1.0;" x1="1392.45" x2="1392.45" y1="1030.79" y2="1150.12"/>
  <line id="right-margin" style="fill:none;stroke:#00AEEF;stroke-width:0.5;opacity:1.0;" x1="1507.24" x2="1507.24" y1="1030.79" y2="1150.12"/>
 </g>
 <g id="Symbols">
  <g id="Black-L" transform="matrix(1 0 0 1 2855.62 1556)">
   <path d="M 39.9902 26.5137 L 115.576 26.5137 C 130.811 26.5137 139.502 17.8711 139.502 2.68555 L 139.502 -73.0957 C 139.502 -88.2812 130.811 -96.875 115.576 -96.875 L 39.9902 -96.875 C 24.7559 -96.875 16.0645 -88.2812 16.0645 -73.0957 L 16.0645 2.68555 C 16.0645 17.8711 24.7559 26.5137 39.9902 26.5137 Z M 66.4062 -9.0332 C 62.9883 -9.0332 60.791 -11.377 60.791 -14.6973 L 60.791 -18.8477 L 48.2422 -18.8477 C 43.2617 -18.8477 40.4785 -21.7285 40.4785 -26.5137 C 40.4785 -29.3945 41.2598 -31.9824 42.2363 -34.668 C 44.3359 -39.8438 47.8516 -47.8516 51.123 -54.1504 C 53.6621 -59.2285 57.0312 -61.4746 62.6465 -61.4746 C 68.9453 -61.4746 72.0703 -57.8125 72.0703 -51.8066 L 72.0703 -29.7363 L 73.1934 -29.7363 C 76.416 -29.7363 78.2715 -27.5391 78.2715 -24.1699 C 78.2715 -20.9473 76.416 -18.9453 73.1934 -18.9453 L 72.0703 -18.9453 L 72.0703 -14.6973 C 72.0703 -11.3281 69.873 -9.0332 66.4062 -9.0332 Z M 98.7305 -9.0332 C 90.8691 -9.0332 84.0332 -13.916 82.4707 -19.0918 C 82.1777 -20.166 81.9824 -21.1914 81.9824 -22.2656 C 81.9824 -25.7812 84.668 -27.7344 87.2559 -27.7344 C 89.5996 -27.7344 91.3086 -26.709 92.4805 -24.707 C 94.043 -22.0215 96.2891 -20.7031 98.9746 -20.7031 C 101.904 -20.7031 103.857 -22.7539 103.857 -25.1465 C 103.857 -27.9785 102.051 -29.7363 98.8281 -29.7363 L 97.8027 -29.7363 C 93.8477 -29.7363 92.041 -32.1777 92.041 -35.5957 C 92.041 -39.1113 94.1895 -41.4551 97.8027 -41.4551 L 98.7305 -41.4551 C 101.66 -41.4551 103.125 -43.5547 103.125 -45.8496 C 103.125 -48.5352 101.221 -50.2441 98.7305 -50.2441 C 96.0938 -50.2441 94.3848 -48.9746 92.8711 -46.2402 C 91.7969 -44.3848 90.2344 -43.2129 87.6953 -43.2129 C 84.7168 -43.2129 82.6172 -45.2148 82.6172 -48.6328 C 82.6172 -49.7559 82.8125 -50.7812 83.3496 -52.1973 C 85.0098 -56.4941 90.5762 -61.4746 98.9258 -61.4746 C 109.033 -61.4746 115.625 -56.0059 115.625 -47.7051 C 115.625 -42.5293 112.061 -37.7441 107.422 -37.0117 L 107.422 -36.377 C 113.037 -35.9863 116.797 -30.7129 116.797 -24.3652 C 116.797 -15.0879 109.766 -9.0332 98.7305 -9.0332 Z M 60.791 -29.6387 L 60.791 -49.5605 L 60.5469 -49.5605 C 57.8125 -43.4082 54.5898 -34.8633 52.5391 -29.8828 L 52.5391 -29.6387 Z"/>
  </g>
  <g id="Heavy-L" transform="matrix(1 0 0 1 2559.93 1556)">
   <path d="M 38.8184 25.4883 L 114.697 25.4883 C 129.346 25.4883 137.451 17.4316 137.451 2.88086 L 137.451 -73.2422 C 137.451 -87.793 129.346 -95.8496 114.697 -95.8496 L 38.8184 -95.8496 C 24.2188 -95.8496 16.0645 -87.793 16.0645 -73.2422 L 16.0645 2.88086 C 16.0645 17.4316 24.2188 25.4883 38.8184 25.4883 Z M 65.0879 -8.74023 C 61.9629 -8.74023 60.0098 -10.8887 60.0098 -13.9648 L 60.0098 -19.1406 L 45.8008 -19.1406 C 41.2598 -19.1406 38.7207 -21.7285 38.7207 -26.123 C 38.7207 -28.7109 39.3555 -31.0059 40.332 -33.3984 C 43.0176 -39.209 47.5098 -48.291 51.2695 -55.1758 C 53.6133 -59.7656 56.6895 -61.8164 61.7676 -61.8164 C 67.334 -61.8164 70.2637 -58.4961 70.2637 -53.125 L 70.2637 -28.9551 L 72.1191 -28.9551 C 75.0977 -28.9551 76.7578 -27.002 76.7578 -23.9258 C 76.7578 -20.9961 75.0977 -19.1895 72.1191 -19.1895 L 70.2637 -19.1895 L 70.2637 -13.9648 C 70.2637 -10.8887 68.3105 -8.74023 65.0879 -8.74023 Z M 97.998 -8.74023 C 89.9414 -8.74023 83.1055 -13.6719 81.4941 -19.043 C 81.2012 -20.0195 81.0547 -20.9473 81.0547 -21.9727 C 81.0547 -25.1465 83.4473 -27.002 85.8398 -27.002 C 88.0371 -27.002 89.5996 -25.9277 90.625 -24.0234 C 92.2363 -20.8008 94.873 -19.1895 98.1445 -19.1895 C 101.953 -19.1895 104.541 -21.6797 104.541 -24.7559 C 104.541 -28.2227 102.148 -30.4688 98.1445 -30.4688 L 96.4355 -30.4688 C 92.9199 -30.4688 91.2598 -32.666 91.2598 -35.7422 C 91.2598 -38.8672 93.2129 -40.9668 96.4355 -40.9668 L 98.0469 -40.9668 C 101.562 -40.9668 103.564 -43.457 103.564 -46.3867 C 103.564 -49.6094 101.221 -51.6602 97.998 -51.6602 C 94.7754 -51.6602 92.627 -50.0488 91.1621 -46.875 C 90.1855 -44.9707 88.8184 -43.8477 86.4746 -43.8477 C 83.6914 -43.8477 81.7871 -45.752 81.7871 -48.8281 C 81.7871 -49.9023 81.9336 -50.8301 82.4219 -52.0996 C 84.0332 -56.8848 89.8438 -61.8164 98.1934 -61.8164 C 108.203 -61.8164 114.795 -56.2988 114.795 -48.0469 C 114.795 -42.627 111.084 -37.6953 106.25 -36.9141 L 106.25 -36.377 C 112.061 -35.9375 116.113 -30.6152 116.113 -24.1211 C 116.113 -14.8926 108.936 -8.74023 97.998 -8.74023 Z M 60.0098 -28.8574 L 60.0098 -50.8789 L 59.7656 -50.8789 C 56.4941 -44.2383 52.0996 -34.5703 49.6582 -29.1016 L 49.6582 -28.8574 Z"/>
  </g>
  <g id="Bold-L" transform="matrix(1 0 0 1 2264.37 1556)">
   <path d="M 37.5 24.3652 L 113.721 24.3652 C 127.637 24.3652 135.156 16.8945 135.156 3.07617 L 135.156 -73.3887 C 135.156 -87.207 127.637 -94.7266 113.721 -94.7266 L 37.5 -94.7266 C 23.6328 -94.7266 16.0645 -87.2559 16.0645 -73.3887 L 16.0645 3.07617 C 16.0645 16.8945 23.6328 24.3652 37.5 24.3652 Z M 63.6719 -8.44727 C 60.8398 -8.44727 59.1797 -10.4004 59.1797 -13.1836 L 59.1797 -19.4336 L 43.0664 -19.4336 C 39.0625 -19.4336 36.6699 -21.7773 36.6699 -25.6836 C 36.6699 -27.9297 37.2559 -29.8828 38.1836 -32.0312 C 41.5039 -38.4766 47.0703 -48.7793 51.3672 -56.3477 C 53.6133 -60.4492 56.25 -62.207 60.7422 -62.207 C 65.5273 -62.207 68.2617 -59.2773 68.2617 -54.6387 L 68.2617 -28.0762 L 70.9473 -28.0762 C 73.5352 -28.0762 75.0977 -26.3672 75.0977 -23.6816 C 75.0977 -21.0938 73.584 -19.4824 70.9473 -19.4824 L 68.2617 -19.4824 L 68.2617 -13.1836 C 68.2617 -10.3516 66.5527 -8.44727 63.6719 -8.44727 Z M 97.168 -8.34961 C 88.8672 -8.34961 82.0801 -13.4277 80.4199 -18.9453 C 80.127 -19.8242 79.9805 -20.6543 79.9805 -21.6309 C 79.9805 -24.4141 82.0312 -26.123 84.2773 -26.123 C 86.3281 -26.123 87.6465 -25.0977 88.5742 -23.1934 C 90.1855 -19.4824 93.2617 -17.4805 97.2656 -17.4805 C 102.051 -17.4805 105.322 -20.5078 105.322 -24.3652 C 105.322 -28.5645 102.295 -31.2988 97.4609 -31.2988 L 94.873 -31.2988 C 91.8945 -31.2988 90.3809 -33.2031 90.3809 -35.8398 C 90.3809 -38.623 92.0898 -40.4785 94.873 -40.4785 L 97.2168 -40.4785 C 101.416 -40.4785 104.102 -43.3594 104.102 -46.9727 C 104.102 -50.7812 101.221 -53.2715 97.2168 -53.2715 C 93.2617 -53.2715 90.6738 -51.2695 89.2578 -47.5586 C 88.4277 -45.6543 87.207 -44.6289 85.0586 -44.6289 C 82.5195 -44.6289 80.8594 -46.3379 80.8594 -49.1211 C 80.8594 -50.0488 80.957 -50.8789 81.3477 -52.002 C 82.959 -57.2754 89.0137 -62.207 97.3633 -62.207 C 107.227 -62.207 113.867 -56.5918 113.867 -48.3887 C 113.867 -42.7734 109.961 -37.6465 104.932 -36.8652 L 104.932 -36.377 C 111.035 -35.8398 115.332 -30.4688 115.332 -23.8281 C 115.332 -14.6484 108.008 -8.34961 97.168 -8.34961 Z M 59.1797 -28.0273 L 59.1797 -52.3438 L 58.8867 -52.3438 C 55.0781 -45.2148 49.3652 -34.2773 46.4844 -28.2715 L 46.4844 -28.0273 Z"/>
  </g>
  <g id="Semibold-L" transform="matrix(1 0 0 1 1968.44 1556)">
   <path d="M 36.6211 23.584 L 113.037 23.584 C 126.514 23.584 133.594 16.5039 133.594 3.17383 L 133.594 -73.5352 C 133.594 -86.8164 126.514 -93.9453 113.037 -93.9453 L 36.6211 -93.9453 C 23.1934 -93.9453 16.0645 -86.8652 16.0645 -73.5352 L 16.0645 3.17383 C 16.0645 16.5527 23.1934 23.584 36.6211 23.584 Z M 62.6953 -8.20312 C 60.0586 -8.20312 58.5938 -10.0586 58.5938 -12.5977 L 58.5938 -19.6289 L 41.1621 -19.6289 C 37.5488 -19.6289 35.3027 -21.7773 35.3027 -25.4395 C 35.3027 -27.3926 35.791 -29.1016 36.7188 -31.0547 C 40.4297 -37.9883 46.7773 -49.1211 51.4648 -57.1289 C 53.5645 -60.8887 56.0059 -62.4512 60.0586 -62.4512 C 64.3066 -62.4512 66.8457 -59.8145 66.8457 -55.6641 L 66.8457 -27.4902 L 70.1172 -27.4902 C 72.5098 -27.4902 73.9258 -25.9766 73.9258 -23.4863 C 73.9258 -21.1426 72.5098 -19.6777 70.1172 -19.6777 L 66.8457 -19.6777 L 66.8457 -12.5977 C 66.8457 -10.0098 65.332 -8.20312 62.6953 -8.20312 Z M 96.582 -8.10547 C 88.1348 -8.10547 81.3477 -13.2324 79.6387 -18.8965 C 79.4434 -19.7266 79.2969 -20.5078 79.2969 -21.3867 C 79.2969 -23.877 81.1035 -25.4883 83.2031 -25.4883 C 85.1074 -25.4883 86.3281 -24.5605 87.1582 -22.6562 C 88.8184 -18.5547 92.1875 -16.3086 96.6797 -16.3086 C 102.1 -16.3086 105.811 -19.6777 105.811 -24.1211 C 105.811 -28.7598 102.344 -31.8359 96.9238 -31.8359 L 93.7988 -31.8359 C 91.2109 -31.8359 89.7949 -33.5938 89.7949 -35.9375 C 89.7949 -38.4766 91.3574 -40.1367 93.7988 -40.1367 L 96.6797 -40.1367 C 101.367 -40.1367 104.492 -43.3105 104.492 -47.4121 C 104.492 -51.5625 101.221 -54.3457 96.6797 -54.3457 C 92.2363 -54.3457 89.3066 -52.0996 87.9395 -47.998 C 87.207 -46.1426 86.084 -45.166 84.082 -45.166 C 81.7383 -45.166 80.2246 -46.7773 80.2246 -49.2676 C 80.2246 -50.1465 80.3223 -50.9277 80.6152 -51.9043 C 82.2266 -57.5684 88.4277 -62.4512 96.8262 -62.4512 C 106.543 -62.4512 113.232 -56.7871 113.232 -48.6328 C 113.232 -42.8711 109.229 -37.6465 104.053 -36.7676 L 104.053 -36.377 C 110.303 -35.791 114.844 -30.3711 114.844 -23.6816 C 114.844 -14.502 107.373 -8.10547 96.582 -8.10547 Z M 58.5938 -27.4414 L 58.5938 -53.3691 L 58.3008 -53.3691 C 54.0527 -45.8496 47.4609 -34.082 44.2383 -27.6855 L 44.2383 -27.4414 Z"/>
  </g>
  <g id="Medium-L" transform="matrix(1 0 0 1 1672.31 1556)">
   <path d="M 35.9375 22.998 L 112.5 22.998 C 125.635 22.998 132.422 16.2109 132.422 3.27148 L 132.422 -73.6328 C 132.422 -86.5234 125.635 -93.3105 112.5 -93.3105 L 35.9375 -93.3105 C 22.9004 -93.3105 16.0645 -86.5723 16.0645 -73.6328 L 16.0645 3.27148 C 16.0645 16.2598 22.9004 22.998 35.9375 22.998 Z M 61.9141 -8.00781 C 59.4727 -8.00781 58.1543 -9.76562 58.1543 -12.207 L 58.1543 -19.8242 L 39.7461 -19.8242 C 36.377 -19.8242 34.2285 -21.8262 34.2285 -25.1953 C 34.2285 -27.002 34.668 -28.5156 35.5957 -30.3711 C 39.6484 -37.6465 46.5332 -49.3652 51.5625 -57.7148 C 53.5645 -61.2305 55.8105 -62.6465 59.5215 -62.6465 C 63.3789 -62.6465 65.8203 -60.2051 65.8203 -56.4453 L 65.8203 -27.002 L 69.4824 -27.002 C 71.6797 -27.002 73.0469 -25.6348 73.0469 -23.3887 C 73.0469 -21.1914 71.7285 -19.8242 69.4824 -19.8242 L 65.8203 -19.8242 L 65.8203 -12.207 C 65.8203 -9.7168 64.4043 -8.00781 61.9141 -8.00781 Z M 96.1426 -7.91016 C 87.5488 -7.91016 80.8105 -13.0859 79.1016 -18.8477 C 78.8574 -19.6289 78.7598 -20.3613 78.7598 -21.2402 C 78.7598 -23.4863 80.3711 -25.0488 82.4219 -25.0488 C 84.1797 -25.0488 85.3027 -24.1211 86.084 -22.2656 C 87.7441 -17.8711 91.3574 -15.4297 96.1914 -15.4297 C 102.148 -15.4297 106.201 -19.043 106.201 -23.9258 C 106.201 -28.9062 102.441 -32.2754 96.582 -32.2754 L 92.9688 -32.2754 C 90.6738 -32.2754 89.3555 -33.8867 89.3555 -36.0352 C 89.3555 -38.3301 90.7715 -39.8438 92.9688 -39.8438 L 96.2891 -39.8438 C 101.27 -39.8438 104.736 -43.2617 104.736 -47.7539 C 104.736 -52.1973 101.27 -55.1758 96.2402 -55.1758 C 91.4062 -55.1758 88.2812 -52.7344 86.9629 -48.3887 C 86.2793 -46.4844 85.2539 -45.5566 83.3984 -45.5566 C 81.1523 -45.5566 79.7363 -47.0703 79.7363 -49.4141 C 79.7363 -50.2441 79.834 -50.9766 80.0293 -51.8555 C 81.6406 -57.8125 88.0371 -62.6465 96.3867 -62.6465 C 106.055 -62.6465 112.744 -56.9824 112.744 -48.8281 C 112.744 -42.9199 108.643 -37.5977 103.369 -36.7676 L 103.369 -36.377 C 109.766 -35.7422 114.404 -30.2734 114.404 -23.5352 C 114.404 -14.3555 106.934 -7.91016 96.1426 -7.91016 Z M 58.1543 -27.002 L 58.1543 -54.1504 L 57.8613 -54.1504 C 53.3203 -46.3379 45.9961 -33.8867 42.5781 -27.2461 L 42.5781 -27.002 Z"/>
  </g>
  <g id="Regular-L" transform="matrix(1 0 0 1 1376.38 1556)">
   <path d="M 35.0586 22.2168 L 111.816 22.2168 C 124.463 22.2168 130.859 15.8691 130.859 3.41797 L 130.859 -73.7305 C 130.859 -86.1816 124.463 -92.5293 111.816 -92.5293 L 35.0586 -92.5293 C 22.4609 -92.5293 16.0645 -86.2305 16.0645 -73.7305 L 16.0645 3.41797 C 16.0645 15.918 22.4609 22.2168 35.0586 22.2168 Z M 60.9375 -7.8125 C 58.7402 -7.8125 57.5684 -9.42383 57.5684 -11.6211 L 57.5684 -20.0195 L 37.8906 -20.0195 C 34.9121 -20.0195 32.8613 -21.8262 32.8613 -24.9023 C 32.8613 -26.4648 33.2031 -27.7344 34.1309 -29.3945 C 38.623 -37.1582 46.2891 -49.707 51.6113 -58.4961 C 53.5156 -61.6699 55.5176 -62.8906 58.8379 -62.8906 C 62.1582 -62.8906 64.4043 -60.7422 64.4043 -57.4707 L 64.4043 -26.416 L 68.7012 -26.416 C 70.6543 -26.416 71.875 -25.1953 71.875 -23.1934 C 71.875 -21.2402 70.7031 -20.0195 68.7012 -20.0195 L 64.4043 -20.0195 L 64.4043 -11.6211 C 64.4043 -9.375 63.2324 -7.8125 60.9375 -7.8125 Z M 95.5566 -7.66602 C 86.8652 -7.66602 80.127 -12.8906 78.3691 -18.7988 C 78.125 -19.5312 78.0273 -20.166 78.0273 -20.9961 C 78.0273 -22.998 79.4434 -24.4629 81.3477 -24.4629 C 83.0078 -24.4629 83.9844 -23.5352 84.668 -21.7285 C 86.377 -16.9434 90.2832 -14.2578 95.6055 -14.2578 C 102.197 -14.2578 106.738 -18.2617 106.738 -23.6328 C 106.738 -29.1016 102.49 -32.8125 96.0938 -32.8125 L 91.8945 -32.8125 C 89.9902 -32.8125 88.7695 -34.2285 88.7695 -36.084 C 88.7695 -38.1836 90.0391 -39.502 91.8945 -39.502 L 95.752 -39.502 C 101.172 -39.502 105.127 -43.1641 105.127 -48.1445 C 105.127 -52.9785 101.27 -56.25 95.7031 -56.25 C 90.3809 -56.25 86.9141 -53.5156 85.6445 -48.8281 C 85.0586 -46.9238 84.1309 -46.0449 82.4219 -46.0449 C 80.3711 -46.0449 79.1504 -47.5098 79.1504 -49.5605 C 79.1504 -50.3418 79.1504 -51.0254 79.3457 -51.7578 C 80.9082 -58.1055 87.4512 -62.8906 95.8496 -62.8906 C 105.42 -62.8906 112.109 -57.1777 112.109 -49.0723 C 112.109 -43.0176 107.861 -37.5977 102.49 -36.6699 L 102.49 -36.377 C 109.033 -35.6934 113.916 -30.1758 113.916 -23.3398 C 113.916 -14.209 106.299 -7.66602 95.5566 -7.66602 Z M 57.5684 -26.416 L 57.5684 -55.1758 L 57.2266 -55.1758 C 52.2949 -47.0215 44.1406 -33.6914 40.3809 -26.709 L 40.3809 -26.416 Z"/>
  </g>
  <g id="Light-L" transform="matrix(1 0 0 1 1080.5 1556)">
   <path d="M 34.0332 21.4355 L 111.23 21.4355 C 123.096 21.4355 129.199 15.2344 129.199 3.56445 L 129.199 -73.8281 C 129.199 -85.5469 123.096 -91.6992 111.23 -91.6992 L 34.0332 -91.6992 C 22.168 -91.6992 16.0645 -85.6445 16.0645 -73.8281 L 16.0645 3.56445 C 16.0645 15.3809 22.168 21.4355 34.0332 21.4355 Z M 60.1562 -8.44727 C 58.4473 -8.44727 57.4219 -9.7168 57.4219 -11.4746 L 57.4219 -20.8984 L 36.7676 -20.8984 C 34.2773 -20.8984 32.5684 -22.3633 32.5684 -24.8535 C 32.5684 -26.0742 32.8613 -27.1973 33.5938 -28.418 C 38.1836 -35.9863 47.4121 -50.5859 52.6855 -58.8379 C 54.248 -61.377 55.8594 -62.3535 58.4961 -62.3535 C 61.1328 -62.3535 62.9395 -60.6445 62.9395 -58.0078 L 62.9395 -26.0742 L 68.2617 -26.0742 C 69.8242 -26.0742 70.8496 -25.0488 70.8496 -23.4863 C 70.8496 -21.9238 69.873 -20.8984 68.2617 -20.8984 L 62.9395 -20.8984 L 62.9395 -11.4746 C 62.9395 -9.66797 61.9629 -8.44727 60.1562 -8.44727 Z M 94.3848 -8.20312 C 85.9863 -8.20312 79.4434 -13.2324 77.6367 -18.9941 C 77.4414 -19.6289 77.3438 -20.2148 77.3438 -20.9961 C 77.3438 -22.6074 78.418 -23.8281 80.0293 -23.8281 C 81.4453 -23.8281 82.2266 -23.0469 82.7637 -21.4844 C 84.4727 -16.5039 88.916 -13.5742 94.4336 -13.5742 C 101.611 -13.5742 106.445 -17.7734 106.445 -23.6816 C 106.445 -29.3457 101.758 -33.4473 95.0195 -33.4473 L 90.332 -33.4473 C 88.7695 -33.4473 87.7441 -34.6191 87.7441 -36.1328 C 87.7441 -37.8418 88.8184 -38.8672 90.332 -38.8672 L 94.6289 -38.8672 C 100.488 -38.8672 104.785 -42.8711 104.785 -48.1934 C 104.785 -53.418 100.586 -56.9824 94.4824 -56.9824 C 88.7695 -56.9824 84.9121 -53.9062 83.7891 -49.0723 C 83.3496 -47.4121 82.5684 -46.6797 81.1523 -46.6797 C 79.3457 -46.6797 78.418 -47.9004 78.418 -49.6094 C 78.418 -50.293 78.4668 -50.8789 78.6133 -51.5625 C 80.1758 -57.9102 86.6699 -62.3535 94.5801 -62.3535 C 103.857 -62.3535 110.449 -56.7871 110.449 -48.877 C 110.449 -42.9688 106.201 -37.5488 100.684 -36.5723 L 100.684 -36.3281 C 107.275 -35.6445 112.256 -30.1758 112.256 -23.4863 C 112.256 -14.5996 104.785 -8.20312 94.3848 -8.20312 Z M 57.4219 -26.0742 L 57.4219 -56.1035 L 57.1777 -56.1035 C 52.6367 -48.877 42.2852 -32.8125 38.6719 -26.3184 L 38.6719 -26.0742 Z"/>
  </g>
  <g id="Thin-L" transform="matrix(1 0 0 1 784.889 1556)">
   <path d="M 32.666 20.3613 L 110.352 20.3613 C 121.24 20.3613 127.002 14.4531 127.002 3.75977 L 127.002 -73.9746 C 127.002 -84.7168 121.24 -90.5762 110.352 -90.5762 L 32.666 -90.5762 C 21.7773 -90.5762 16.0645 -84.8633 16.0645 -73.9746 L 16.0645 3.75977 C 16.0645 14.6484 21.7773 20.3613 32.666 20.3613 Z M 59.1309 -9.32617 C 58.0566 -9.32617 57.2754 -10.0586 57.2754 -11.2305 L 57.2754 -22.0703 L 35.3027 -22.0703 C 33.4473 -22.0703 32.1777 -23.0469 32.1777 -24.8047 C 32.1777 -25.5859 32.4219 -26.4648 32.8613 -27.0996 C 37.6465 -34.375 48.9746 -51.709 54.0527 -59.2773 C 55.2246 -61.0352 56.3477 -61.6211 58.0078 -61.6211 C 59.7656 -61.6211 60.9863 -60.498 60.9863 -58.7402 L 60.9863 -25.6348 L 67.7246 -25.6348 C 68.75 -25.6348 69.4336 -24.8535 69.4336 -23.8281 C 69.4336 -22.8027 68.7988 -22.0703 67.7246 -22.0703 L 60.9863 -22.0703 L 60.9863 -11.2305 C 60.9863 -10.0586 60.3516 -9.32617 59.1309 -9.32617 Z M 92.8711 -8.93555 C 84.8145 -8.93555 78.5645 -13.6719 76.709 -19.2871 C 76.5625 -19.7754 76.416 -20.3125 76.416 -20.9473 C 76.416 -22.0703 77.1484 -22.9492 78.3203 -22.9492 C 79.3457 -22.9492 79.9316 -22.3633 80.2734 -21.1914 C 81.9824 -15.8691 87.1094 -12.5977 92.8711 -12.5977 C 100.83 -12.5977 106.104 -17.1875 106.104 -23.6816 C 106.104 -29.6875 100.781 -34.3262 93.6035 -34.3262 L 88.2812 -34.3262 C 87.1094 -34.3262 86.4746 -35.0586 86.4746 -36.1328 C 86.4746 -37.3535 87.207 -37.9883 88.2812 -37.9883 L 93.1152 -37.9883 C 99.5605 -37.9883 104.346 -42.5293 104.346 -48.291 C 104.346 -54.0039 99.707 -57.959 92.8223 -57.959 C 86.6211 -57.959 82.2754 -54.4434 81.2988 -49.3652 C 81.0059 -48.0469 80.4199 -47.5098 79.4434 -47.5098 C 78.0273 -47.5098 77.4414 -48.3887 77.4414 -49.6582 C 77.4414 -50.1953 77.5391 -50.7324 77.6855 -51.3184 C 79.1504 -57.6172 85.5957 -61.6211 92.8711 -61.6211 C 101.807 -61.6211 108.252 -56.25 108.252 -48.6816 C 108.252 -42.8711 103.955 -37.4512 98.2422 -36.4258 L 98.2422 -36.3281 C 104.932 -35.5957 110.059 -30.127 110.059 -23.6328 C 110.059 -15.0879 102.832 -8.93555 92.8711 -8.93555 Z M 57.2754 -25.6348 L 57.2754 -57.3242 L 57.1289 -57.3242 C 53.0273 -51.3672 39.8926 -31.6895 36.377 -25.8301 L 36.377 -25.6348 Z"/>
  </g>
  <g id="Ultralight-L" transform="matrix(1 0 0 1 488.739 1556)">
   <path d="M 31.9824 19.7754 L 109.961 19.7754 C 120.312 19.7754 125.879 14.0625 125.879 3.85742 L 125.879 -74.0723 C 125.879 -84.2773 120.312 -89.9902 109.961 -89.9902 L 31.9824 -89.9902 C 21.582 -89.9902 16.0645 -84.4727 16.0645 -74.0723 L 16.0645 3.85742 C 16.0645 14.2578 21.582 19.7754 31.9824 19.7754 Z M 58.5938 -9.76562 C 57.9102 -9.76562 57.2266 -10.2539 57.2266 -11.084 L 57.2266 -22.7051 L 34.5215 -22.7051 C 33.0078 -22.7051 31.9824 -23.3887 31.9824 -24.8047 C 31.9824 -25.3418 32.2266 -26.0742 32.4707 -26.416 C 37.3535 -33.5938 49.7559 -52.2949 54.7852 -59.5215 C 55.7129 -60.8398 56.5918 -61.2305 57.7637 -61.2305 C 59.082 -61.2305 60.0098 -60.4004 60.0098 -59.082 L 60.0098 -25.4395 L 67.4316 -25.4395 C 68.1641 -25.4395 68.75 -24.7559 68.75 -24.0234 C 68.75 -23.291 68.2617 -22.7051 67.4316 -22.7051 L 60.0098 -22.7051 L 60.0098 -11.084 C 60.0098 -10.2539 59.5215 -9.76562 58.5938 -9.76562 Z M 92.0898 -9.32617 C 84.2285 -9.32617 78.125 -13.916 76.2695 -19.4336 C 76.0742 -19.873 75.9277 -20.3125 75.9277 -20.9473 C 75.9277 -21.7773 76.4648 -22.5098 77.4414 -22.5098 C 78.3203 -22.5098 78.7109 -21.9727 79.0039 -21.0449 C 80.6641 -15.5762 86.1816 -12.1094 92.0898 -12.1094 C 100.391 -12.1094 105.908 -16.8457 105.908 -23.6816 C 105.908 -29.8828 100.293 -34.7656 92.8711 -34.7656 L 87.207 -34.7656 C 86.2793 -34.7656 85.791 -35.3027 85.791 -36.1816 C 85.791 -37.0605 86.377 -37.5488 87.207 -37.5488 L 92.334 -37.5488 C 99.0723 -37.5488 104.102 -42.334 104.102 -48.3398 C 104.102 -54.2969 99.2676 -58.4473 91.9922 -58.4473 C 85.498 -58.4473 80.9082 -54.6875 80.0293 -49.5117 C 79.834 -48.3887 79.3457 -47.9492 78.5645 -47.9492 C 77.3438 -47.9492 76.9531 -48.6816 76.9531 -49.6582 C 76.9531 -50.1465 77.0508 -50.6836 77.1973 -51.2207 C 78.6621 -57.4707 85.0586 -61.2305 91.9922 -61.2305 C 100.732 -61.2305 107.129 -55.957 107.129 -48.584 C 107.129 -42.8223 102.783 -37.4023 97.0215 -36.377 L 97.0215 -36.3281 C 103.711 -35.5957 108.887 -30.127 108.887 -23.7305 C 108.887 -15.3809 101.807 -9.32617 92.0898 -9.32617 Z M 57.2266 -25.4395 L 57.2266 -57.9102 L 57.0801 -57.9102 C 53.2715 -52.5879 38.623 -31.1523 35.2051 -25.5859 L 35.2051 -25.4395 Z"/>
  </g>
  <g id="Black-M" transform="matrix(1 0 0 1 2872.19 1126)">
   <path d="M 31.9824 13.5742 L 90.4297 13.5742 C 102.686 13.5742 109.961 6.29883 109.961 -5.95703 L 109.961 -64.4043 C 109.961 -76.6602 102.686 -83.9355 90.4297 -83.9355 L 31.9824 -83.9355 C 19.7266 -83.9355 12.4512 -76.6602 12.4512 -64.4043 L 12.4512 -5.95703 C 12.4512 6.29883 19.7266 13.5742 31.9824 13.5742 Z M 52.7832 -15.6738 C 50 -15.6738 48.0469 -17.4805 48.0469 -20.166 L 48.0469 -22.6074 L 40.0879 -22.6074 C 35.8398 -22.6074 33.6426 -25 33.6426 -28.9551 C 33.6426 -31.4453 34.3262 -33.7891 35.0098 -35.9375 C 35.9863 -39.0137 38.2324 -44.8242 40.0391 -48.6816 C 42.041 -52.8809 44.873 -54.834 49.5605 -54.834 C 55.0293 -54.834 57.4707 -51.7578 57.4707 -46.5332 L 57.4707 -31.8359 L 57.959 -31.8359 C 60.6445 -31.8359 62.1094 -29.9316 62.1094 -27.1484 C 62.1094 -24.4629 60.6445 -22.7539 57.959 -22.7539 L 57.4707 -22.7539 L 57.4707 -20.166 C 57.4707 -17.4805 55.5664 -15.6738 52.7832 -15.6738 Z M 76.9531 -15.6738 C 71.2402 -15.6738 66.0156 -19.2383 64.8438 -22.9492 C 64.5996 -23.8281 64.4043 -24.707 64.4043 -25.5859 C 64.4043 -28.5645 66.7969 -30.127 68.7988 -30.127 C 70.7031 -30.127 72.168 -29.3457 73.1445 -27.9297 C 74.2676 -26.3184 75.8301 -25.6348 77.1484 -25.6348 C 78.5645 -25.6348 79.4434 -26.7578 79.4434 -27.8809 C 79.4434 -29.3945 78.5645 -30.3711 76.8555 -30.3711 C 73.291 -30.3711 71.8262 -32.4219 71.8262 -35.3516 C 71.8262 -38.3301 73.6816 -40.332 76.8555 -40.332 C 78.5645 -40.332 79.1016 -41.6992 79.1016 -42.7246 C 79.1016 -44.3848 78.0762 -45.3613 76.8066 -45.3613 C 75.4395 -45.3613 74.4629 -44.6289 73.291 -43.0664 C 72.3145 -41.748 70.9961 -40.8203 68.9453 -40.8203 C 66.5039 -40.8203 64.7461 -42.4316 64.7461 -45.3125 C 64.7461 -46.2891 64.9414 -47.168 65.5273 -48.4375 C 66.748 -51.123 70.8008 -54.834 76.9531 -54.834 C 84.8633 -54.834 89.8438 -50.7324 89.8438 -44.3848 C 89.8438 -40.6738 87.3047 -37.207 83.8867 -36.6211 L 83.8867 -36.1328 C 87.8906 -35.8887 90.5762 -31.8848 90.5762 -27.1973 C 90.5762 -20.1172 85.3516 -15.6738 76.9531 -15.6738 Z M 48.0469 -31.7383 L 48.0469 -45.0684 L 47.9492 -45.0684 C 46.7285 -41.4062 44.6289 -34.8633 43.7012 -31.8848 L 43.7012 -31.7383 Z"/>
  </g>
  <g id="Heavy-M" transform="matrix(1 0 0 1 2576.39 1126)">
   <path d="M 31.0059 12.6465 L 89.6484 12.6465 C 101.416 12.6465 108.154 5.9082 108.154 -5.81055 L 108.154 -64.5508 C 108.154 -76.2695 101.416 -83.0566 89.6484 -83.0566 L 31.0059 -83.0566 C 19.2383 -83.0566 12.4512 -76.3184 12.4512 -64.5508 L 12.4512 -5.81055 C 12.4512 5.9082 19.2383 12.6465 31.0059 12.6465 Z M 51.5625 -15.1855 C 48.9746 -15.1855 47.2656 -16.9434 47.2656 -19.4336 L 47.2656 -22.7051 L 37.6953 -22.7051 C 33.8379 -22.7051 31.7871 -24.9023 31.7871 -28.5645 C 31.7871 -30.8105 32.373 -32.8125 33.0566 -34.8145 C 34.6191 -38.623 37.5 -45.1172 39.8926 -49.707 C 41.7969 -53.6133 44.3848 -55.3223 48.6816 -55.3223 C 53.5645 -55.3223 55.9082 -52.5391 55.9082 -47.8516 L 55.9082 -31.0547 L 56.8848 -31.0547 C 59.375 -31.0547 60.7422 -29.3945 60.7422 -26.8066 C 60.7422 -24.3164 59.375 -22.8027 56.8848 -22.8027 L 55.9082 -22.8027 L 55.9082 -19.4336 C 55.9082 -16.8945 54.1992 -15.1855 51.5625 -15.1855 Z M 76.416 -15.1855 C 70.4102 -15.1855 65.1855 -18.8965 63.9648 -22.8027 C 63.7207 -23.6328 63.5742 -24.4141 63.5742 -25.2441 C 63.5742 -27.9785 65.6738 -29.4434 67.5781 -29.4434 C 69.4336 -29.4434 70.752 -28.6621 71.6309 -27.1973 C 72.8027 -25.1465 74.6094 -24.1699 76.5625 -24.1699 C 78.8086 -24.1699 80.2734 -25.7324 80.2734 -27.4902 C 80.2734 -29.5898 78.8574 -30.957 76.4648 -30.957 L 75.7324 -30.957 C 72.6074 -30.957 71.2402 -32.8613 71.2402 -35.498 C 71.2402 -38.1836 72.9004 -39.9902 75.7324 -39.9902 L 76.416 -39.9902 C 78.6133 -39.9902 79.6875 -41.6504 79.6875 -43.3105 C 79.6875 -45.4102 78.2715 -46.7285 76.3672 -46.7285 C 74.3652 -46.7285 73.0469 -45.7031 71.875 -43.6523 C 71.0449 -42.2852 69.873 -41.4062 67.9199 -41.4062 C 65.625 -41.4062 64.0625 -42.9199 64.0625 -45.5566 C 64.0625 -46.4355 64.209 -47.2168 64.6484 -48.3398 C 65.918 -51.5625 70.166 -55.3223 76.4648 -55.3223 C 84.3262 -55.3223 89.3555 -51.123 89.3555 -44.7754 C 89.3555 -40.8203 86.6699 -37.1582 83.0566 -36.5723 L 83.0566 -36.1328 C 87.3535 -35.8398 90.2344 -31.7871 90.2344 -26.9043 C 90.2344 -19.7754 84.8633 -15.1855 76.416 -15.1855 Z M 47.2656 -30.957 L 47.2656 -46.2402 L 47.1191 -46.2402 C 45.2148 -41.8457 42.4316 -34.8145 40.9668 -31.1523 L 40.9668 -30.957 Z"/>
  </g>
  <g id="Bold-M" transform="matrix(1 0 0 1 2280.68 1126)">
   <path d="M 29.8828 11.6699 L 88.7207 11.6699 C 99.9512 11.6699 106.152 5.46875 106.152 -5.66406 L 106.152 -64.6973 C 106.152 -75.8789 99.9512 -82.0312 88.7207 -82.0312 L 29.8828 -82.0312 C 18.6523 -82.0312 12.4512 -75.8789 12.4512 -64.6973 L 12.4512 -5.66406 C 12.4512 5.51758 18.6523 11.6699 29.8828 11.6699 Z M 50.2441 -14.6484 C 47.8516 -14.6484 46.3867 -16.3086 46.3867 -18.6035 L 46.3867 -22.8027 L 35.0586 -22.8027 C 31.6406 -22.8027 29.6387 -24.7559 29.6387 -28.0762 C 29.6387 -30.0293 30.127 -31.7871 30.9082 -33.5938 C 33.0566 -38.1836 36.7188 -45.4102 39.7461 -50.8789 C 41.5527 -54.3945 43.8477 -55.9082 47.7051 -55.9082 C 51.9043 -55.9082 54.1016 -53.418 54.1016 -49.3652 L 54.1016 -30.2246 L 55.7129 -30.2246 C 57.9102 -30.2246 59.2285 -28.7598 59.2285 -26.416 C 59.2285 -24.2188 57.959 -22.8516 55.7129 -22.8516 L 54.1016 -22.8516 L 54.1016 -18.6035 C 54.1016 -16.2598 52.6367 -14.6484 50.2441 -14.6484 Z M 75.8301 -14.5996 C 69.5312 -14.5996 64.2578 -18.5059 62.9883 -22.6562 C 62.7441 -23.3887 62.6465 -24.1211 62.6465 -24.9023 C 62.6465 -27.2949 64.4531 -28.7109 66.3086 -28.7109 C 67.9688 -28.7109 69.1406 -27.8809 69.9219 -26.416 C 71.1426 -23.8281 73.291 -22.5098 75.9277 -22.5098 C 79.0527 -22.5098 81.1523 -24.5605 81.1523 -27.0508 C 81.1523 -29.8828 79.1992 -31.6895 75.9766 -31.6895 L 74.4629 -31.6895 C 71.875 -31.6895 70.6055 -33.3496 70.6055 -35.6445 C 70.6055 -38.0371 72.0703 -39.5996 74.4629 -39.5996 L 75.8789 -39.5996 C 78.7109 -39.5996 80.3711 -41.6016 80.3711 -43.9941 C 80.3711 -46.582 78.4668 -48.2422 75.8301 -48.2422 C 73.1934 -48.2422 71.4844 -46.9238 70.3613 -44.3359 C 69.6289 -42.8711 68.5547 -42.041 66.7969 -42.041 C 64.6973 -42.041 63.2324 -43.5059 63.2324 -45.8496 C 63.2324 -46.6309 63.3301 -47.3145 63.6719 -48.291 C 64.9414 -52.0996 69.4824 -55.9082 75.9766 -55.9082 C 83.6914 -55.9082 88.8184 -51.6113 88.8184 -45.2148 C 88.8184 -40.9668 85.9375 -37.1582 82.1777 -36.5234 L 82.1777 -36.1328 C 86.7188 -35.7422 89.8926 -31.5918 89.8926 -26.5625 C 89.8926 -19.3848 84.2773 -14.5996 75.8301 -14.5996 Z M 46.3867 -30.1758 L 46.3867 -47.6074 L 46.1914 -47.6074 C 43.5547 -42.334 39.9414 -34.7168 37.9883 -30.3711 L 37.9883 -30.1758 Z"/>
  </g>
  <g id="Semibold-M" transform="matrix(1 0 0 1 1984.65 1126)">
   <path d="M 29.1016 10.9863 L 88.0859 10.9863 C 98.9746 10.9863 104.785 5.17578 104.785 -5.56641 L 104.785 -64.8438 C 104.785 -75.5859 98.9746 -81.3477 88.0859 -81.3477 L 29.1016 -81.3477 C 18.2617 -81.3477 12.4512 -75.5859 12.4512 -64.8438 L 12.4512 -5.56641 C 12.4512 5.22461 18.2617 10.9863 29.1016 10.9863 Z M 49.3164 -14.2578 C 47.0703 -14.2578 45.752 -15.8691 45.752 -18.0664 L 45.752 -22.8516 L 33.2031 -22.8516 C 30.0781 -22.8516 28.1738 -24.707 28.1738 -27.7832 C 28.1738 -29.541 28.6133 -31.0547 29.3945 -32.7637 C 32.0312 -37.8906 36.1816 -45.6055 39.5996 -51.6602 C 41.3574 -54.9316 43.457 -56.2988 47.0215 -56.2988 C 50.7324 -56.2988 52.8809 -54.0039 52.8809 -50.3906 L 52.8809 -29.6387 L 54.8828 -29.6387 C 56.9336 -29.6387 58.1543 -28.3203 58.1543 -26.1719 C 58.1543 -24.1211 56.9824 -22.9004 54.8828 -22.9004 L 52.8809 -22.9004 L 52.8809 -18.0664 C 52.8809 -15.8203 51.5625 -14.2578 49.3164 -14.2578 Z M 75.3906 -14.209 C 68.8965 -14.209 63.5742 -18.2129 62.3047 -22.5586 C 62.1094 -23.2422 62.0117 -23.877 62.0117 -24.6582 C 62.0117 -26.8066 63.5742 -28.1738 65.3809 -28.1738 C 66.9922 -28.1738 68.0176 -27.3926 68.75 -25.8301 C 70.0195 -22.9492 72.3633 -21.3867 75.4883 -21.3867 C 79.1992 -21.3867 81.7871 -23.7305 81.7871 -26.7578 C 81.7871 -30.0293 79.4434 -32.1289 75.6348 -32.1289 L 73.6328 -32.1289 C 71.3379 -32.1289 70.1172 -33.6914 70.1172 -35.7422 C 70.1172 -37.9395 71.4844 -39.3555 73.6328 -39.3555 L 75.4883 -39.3555 C 78.7598 -39.3555 80.8105 -41.6016 80.8105 -44.4336 C 80.8105 -47.3633 78.6133 -49.2676 75.4883 -49.2676 C 72.4121 -49.2676 70.4102 -47.7539 69.2871 -44.8242 C 68.6523 -43.3105 67.6758 -42.4805 66.0156 -42.4805 C 64.0137 -42.4805 62.6953 -43.8477 62.6953 -45.9961 C 62.6953 -46.7773 62.7441 -47.4121 63.0371 -48.2422 C 64.3066 -52.4414 69.043 -56.2988 75.6348 -56.2988 C 83.3008 -56.2988 88.4766 -51.9043 88.4766 -45.5078 C 88.4766 -41.1133 85.4492 -37.1094 81.543 -36.4746 L 81.543 -36.1328 C 86.2793 -35.6934 89.6484 -31.4941 89.6484 -26.3184 C 89.6484 -19.1406 83.8867 -14.209 75.3906 -14.209 Z M 45.752 -29.5898 L 45.752 -48.5352 L 45.5078 -48.5352 C 42.3828 -42.6758 38.2324 -34.6191 35.8887 -29.7852 L 35.8887 -29.5898 Z"/>
  </g>
  <g id="Medium-M" transform="matrix(1 0 0 1 1688.47 1126)">
   <path d="M 28.5156 10.4492 L 87.6465 10.4492 C 98.2422 10.4492 103.711 4.98047 103.711 -5.46875 L 103.711 -64.8926 C 103.711 -75.3418 98.2422 -80.8105 87.6465 -80.8105 L 28.5156 -80.8105 C 17.9688 -80.8105 12.4512 -75.3906 12.4512 -64.8926 L 12.4512 -5.46875 C 12.4512 4.98047 17.9688 10.4492 28.5156 10.4492 Z M 48.584 -13.9648 C 46.4355 -13.9648 45.2637 -15.5273 45.2637 -17.627 L 45.2637 -22.9004 L 31.7871 -22.9004 C 28.9062 -22.9004 27.0996 -24.6094 27.0996 -27.5391 C 27.0996 -29.1504 27.4414 -30.4688 28.2715 -32.1289 C 31.2012 -37.6953 35.7422 -45.752 39.502 -52.2949 C 41.2109 -55.3223 43.2129 -56.5918 46.4844 -56.5918 C 49.8535 -56.5918 52.002 -54.4434 52.002 -51.1719 L 52.002 -29.1992 L 54.2969 -29.1992 C 56.2012 -29.1992 57.373 -27.9785 57.373 -25.9766 C 57.373 -24.0723 56.2012 -22.9004 54.2969 -22.9004 L 52.002 -22.9004 L 52.002 -17.627 C 52.002 -15.4785 50.7812 -13.9648 48.584 -13.9648 Z M 75.0977 -13.916 C 68.4082 -13.916 63.0859 -18.0176 61.7676 -22.4609 C 61.6211 -23.1445 61.5234 -23.7305 61.5234 -24.4629 C 61.5234 -26.4648 62.9395 -27.7832 64.6973 -27.7832 C 66.2109 -27.7832 67.1875 -27.002 67.8223 -25.4395 C 69.1406 -22.2168 71.6309 -20.5078 75.1953 -20.5078 C 79.3457 -20.5078 82.2754 -23.1445 82.2754 -26.5137 C 82.2754 -30.1758 79.6387 -32.5195 75.3906 -32.5195 L 72.9492 -32.5195 C 70.9473 -32.5195 69.7754 -33.9355 69.7754 -35.791 C 69.7754 -37.8418 71.0449 -39.1602 72.9492 -39.1602 L 75.1953 -39.1602 C 78.7598 -39.1602 81.2012 -41.5527 81.2012 -44.7754 C 81.2012 -47.9492 78.7109 -50.0977 75.2441 -50.0977 C 71.7773 -50.0977 69.5801 -48.3887 68.5059 -45.166 C 67.8711 -43.6035 66.9922 -42.8223 65.3809 -42.8223 C 63.4766 -42.8223 62.2559 -44.1406 62.2559 -46.1426 C 62.2559 -46.875 62.3047 -47.4609 62.5488 -48.1934 C 63.7695 -52.6855 68.7012 -56.5918 75.3906 -56.5918 C 82.959 -56.5918 88.1836 -52.1484 88.1836 -45.752 C 88.1836 -41.2109 85.0586 -37.1094 81.0547 -36.4746 L 81.0547 -36.1328 C 85.9375 -35.6445 89.4531 -31.4453 89.4531 -26.1719 C 89.4531 -18.9453 83.5938 -13.916 75.0977 -13.916 Z M 45.2637 -29.1504 L 45.2637 -49.2188 L 45.0195 -49.2188 C 41.5039 -42.9688 36.9141 -34.5703 34.3262 -29.3945 L 34.3262 -29.1504 Z"/>
  </g>
  <g id="Regular-M" transform="matrix(1 0 0 1 1392.45 1126)">
   <path d="M 27.7832 9.76562 L 87.0117 9.76562 C 97.2656 9.76562 102.344 4.6875 102.344 -5.37109 L 102.344 -64.9902 C 102.344 -75.0488 97.2656 -80.127 87.0117 -80.127 L 27.7832 -80.127 C 17.5781 -80.127 12.4512 -75.0977 12.4512 -64.9902 L 12.4512 -5.37109 C 12.4512 4.73633 17.5781 9.76562 27.7832 9.76562 Z M 47.6562 -13.623 C 45.6543 -13.623 44.6777 -15.0879 44.6777 -17.041 L 44.6777 -22.9492 L 29.9805 -22.9492 C 27.3926 -22.9492 25.6348 -24.5605 25.6348 -27.2461 C 25.6348 -28.6133 25.9277 -29.7363 26.7578 -31.2988 C 30.1758 -37.4023 35.2051 -45.9961 39.4043 -53.0762 C 41.0645 -55.8594 42.8223 -56.9824 45.8008 -56.9824 C 48.7305 -56.9824 50.7812 -55.0781 50.7812 -52.1484 L 50.7812 -28.6133 L 53.4668 -28.6133 C 55.2246 -28.6133 56.2988 -27.5391 56.2988 -25.7324 C 56.2988 -23.9746 55.2246 -22.9492 53.4668 -22.9492 L 50.7812 -22.9492 L 50.7812 -17.041 C 50.7812 -15.0391 49.707 -13.623 47.6562 -13.623 Z M 74.707 -13.5254 C 67.7734 -13.5254 62.4512 -17.7246 61.1328 -22.3633 C 60.9375 -22.998 60.8887 -23.5352 60.8887 -24.2188 C 60.8887 -25.9766 62.1094 -27.2461 63.8184 -27.2461 C 65.2344 -27.2461 66.0645 -26.4648 66.6992 -24.8535 C 68.0176 -21.3379 70.752 -19.3848 74.7559 -19.3848 C 79.541 -19.3848 82.8613 -22.3145 82.8613 -26.2207 C 82.8613 -30.3223 79.834 -33.0078 75.0488 -33.0078 L 72.1191 -33.0078 C 70.459 -33.0078 69.3359 -34.2773 69.3359 -35.8887 C 69.3359 -37.7441 70.459 -38.916 72.1191 -38.916 L 74.8535 -38.916 C 78.8086 -38.916 81.6406 -41.5527 81.6406 -45.2148 C 81.6406 -48.7305 78.8574 -51.123 74.9023 -51.123 C 70.9961 -51.123 68.5059 -49.1699 67.4316 -45.6543 C 66.8945 -44.043 66.1133 -43.2617 64.5996 -43.2617 C 62.8418 -43.2617 61.7188 -44.5312 61.7188 -46.3379 C 61.7188 -46.9727 61.7676 -47.5098 61.8652 -48.1445 C 63.1348 -53.0762 68.2129 -56.9824 75.0488 -56.9824 C 82.5684 -56.9824 87.8418 -52.4902 87.8418 -46.0449 C 87.8418 -41.3086 84.5703 -37.1094 80.4199 -36.4258 L 80.4199 -36.1328 C 85.498 -35.5957 89.209 -31.2988 89.209 -25.9277 C 89.209 -18.7012 83.252 -13.5254 74.707 -13.5254 Z M 44.6777 -28.6133 L 44.6777 -50.1465 L 44.3848 -50.1465 C 40.3809 -43.3105 35.2539 -34.5215 32.2754 -28.8086 L 32.2754 -28.6133 Z"/>
  </g>
  <g id="Light-M" transform="matrix(1 0 0 1 1096.47 1126)">
   <path d="M 26.8555 9.0332 L 86.4746 9.0332 C 95.9961 9.0332 100.879 4.15039 100.879 -5.22461 L 100.879 -65.0879 C 100.879 -74.5117 95.9961 -79.3945 86.4746 -79.3945 L 26.8555 -79.3945 C 17.334 -79.3945 12.4512 -74.5605 12.4512 -65.0879 L 12.4512 -5.22461 C 12.4512 4.19922 17.334 9.0332 26.8555 9.0332 Z M 46.9727 -14.209 C 45.4102 -14.209 44.5801 -15.332 44.5801 -16.8945 L 44.5801 -23.7305 L 29.0039 -23.7305 C 26.8555 -23.7305 25.3906 -25 25.3906 -27.2461 C 25.3906 -28.3203 25.6348 -29.248 26.2695 -30.3711 C 29.7852 -36.3281 36.2305 -46.7285 40.3809 -53.3691 C 41.6992 -55.6152 43.1152 -56.4941 45.5078 -56.4941 C 47.8516 -56.4941 49.4629 -54.9805 49.4629 -52.6367 L 49.4629 -28.3203 L 53.0762 -28.3203 C 54.4922 -28.3203 55.3711 -27.3926 55.3711 -25.9766 C 55.3711 -24.6094 54.541 -23.7305 53.0762 -23.7305 L 49.4629 -23.7305 L 49.4629 -16.8945 C 49.4629 -15.2832 48.584 -14.209 46.9727 -14.209 Z M 73.6816 -14.0625 C 67.041 -14.0625 61.8652 -18.0176 60.498 -22.5586 C 60.3516 -23.0957 60.2539 -23.584 60.2539 -24.2188 C 60.2539 -25.6348 61.2305 -26.6602 62.5977 -26.6602 C 63.8184 -26.6602 64.502 -26.0254 64.9902 -24.6582 C 66.3086 -20.8984 69.5312 -18.75 73.6816 -18.75 C 79.0039 -18.75 82.6172 -21.9238 82.6172 -26.2695 C 82.6172 -30.5664 79.1992 -33.5938 74.1211 -33.5938 L 70.7031 -33.5938 C 69.3359 -33.5938 68.457 -34.5703 68.457 -35.9375 C 68.457 -37.4023 69.3848 -38.3301 70.7031 -38.3301 L 73.8281 -38.3301 C 78.1738 -38.3301 81.3477 -41.3086 81.3477 -45.2637 C 81.3477 -49.1211 78.2715 -51.7578 73.7793 -51.7578 C 69.5312 -51.7578 66.6992 -49.5605 65.7715 -45.8496 C 65.332 -44.4336 64.6973 -43.8477 63.4766 -43.8477 C 61.9629 -43.8477 61.084 -44.873 61.084 -46.3379 C 61.084 -46.9238 61.1328 -47.4121 61.2305 -47.998 C 62.4512 -52.8809 67.5293 -56.4941 73.877 -56.4941 C 81.1523 -56.4941 86.377 -52.0996 86.377 -45.8984 C 86.377 -41.2598 83.0566 -37.0605 78.8086 -36.3281 L 78.8086 -36.084 C 83.9355 -35.5957 87.7441 -31.2988 87.7441 -26.0742 C 87.7441 -19.043 81.8848 -14.0625 73.6816 -14.0625 Z M 44.5801 -28.3203 L 44.5801 -50.9766 L 44.3359 -50.9766 C 40.625 -44.9707 33.5938 -33.7402 30.7129 -28.4668 L 30.7129 -28.3203 Z"/>
  </g>
  <g id="Thin-M" transform="matrix(1 0 0 1 800.758 1126)">
   <path d="M 25.6348 8.05664 L 85.7422 8.05664 C 94.3848 8.05664 98.877 3.4668 98.877 -5.0293 L 98.877 -65.2344 C 98.877 -73.7305 94.3848 -78.3691 85.7422 -78.3691 L 25.6348 -78.3691 C 16.9922 -78.3691 12.4512 -73.877 12.4512 -65.2344 L 12.4512 -5.0293 C 12.4512 3.56445 16.9922 8.05664 25.6348 8.05664 Z M 46.0449 -14.9414 C 45.0684 -14.9414 44.4336 -15.6738 44.4336 -16.6504 L 44.4336 -24.8047 L 27.6855 -24.8047 C 26.0742 -24.8047 25.0488 -25.6348 25.0488 -27.1973 C 25.0488 -27.8809 25.2441 -28.6133 25.6348 -29.1992 C 29.2969 -34.9121 37.5977 -47.7539 41.6016 -53.7598 C 42.5781 -55.2734 43.5547 -55.8105 45.0684 -55.8105 C 46.6309 -55.8105 47.7051 -54.834 47.7051 -53.2715 L 47.7051 -27.8809 L 52.5879 -27.8809 C 53.5156 -27.8809 54.1016 -27.2461 54.1016 -26.3184 C 54.1016 -25.3906 53.5645 -24.8047 52.5879 -24.8047 L 47.7051 -24.8047 L 47.7051 -16.6504 C 47.7051 -15.6738 47.1191 -14.9414 46.0449 -14.9414 Z M 72.3145 -14.6973 C 65.9668 -14.6973 61.084 -18.457 59.668 -22.8027 C 59.5215 -23.2422 59.4238 -23.6328 59.4238 -24.1699 C 59.4238 -25.1465 60.0586 -25.8789 61.084 -25.8789 C 61.9629 -25.8789 62.4512 -25.3906 62.7441 -24.4141 C 64.0625 -20.3613 67.8711 -17.9199 72.3145 -17.9199 C 78.3203 -17.9199 82.2754 -21.3867 82.2754 -26.2695 C 82.2754 -30.8594 78.3203 -34.3262 72.8516 -34.3262 L 68.8477 -34.3262 C 67.8711 -34.3262 67.2852 -35.0098 67.2852 -35.9375 C 67.2852 -36.9629 67.9199 -37.5488 68.8477 -37.5488 L 72.5098 -37.5488 C 77.3438 -37.5488 80.957 -40.9668 80.957 -45.3125 C 80.957 -49.6582 77.4902 -52.6367 72.3145 -52.6367 C 67.5781 -52.6367 64.3066 -50 63.5742 -46.0938 C 63.2812 -45.0195 62.793 -44.5801 61.9141 -44.5801 C 60.7422 -44.5801 60.2539 -45.3125 60.2539 -46.3867 C 60.2539 -46.8262 60.3027 -47.2656 60.4004 -47.7539 C 61.5723 -52.6367 66.5527 -55.8105 72.3145 -55.8105 C 79.3457 -55.8105 84.375 -51.6113 84.375 -45.7031 C 84.375 -41.1621 81.0547 -36.9629 76.6602 -36.1816 L 76.6602 -36.084 C 81.8359 -35.5469 85.7422 -31.2988 85.7422 -26.2207 C 85.7422 -19.5312 80.127 -14.6973 72.3145 -14.6973 Z M 44.4336 -27.8809 L 44.4336 -52.0508 L 44.2871 -52.0508 C 41.0156 -47.168 31.4453 -32.7637 28.7109 -28.0273 L 28.7109 -27.8809 Z"/>
  </g>
  <g id="Ultralight-M" transform="matrix(1 0 0 1 504.535 1126)">
   <path d="M 25 7.56836 L 85.3516 7.56836 C 93.5059 7.56836 97.9004 3.125 97.9004 -4.98047 L 97.9004 -65.2832 C 97.9004 -73.3887 93.5059 -77.832 85.3516 -77.832 L 25 -77.832 C 16.7969 -77.832 12.4512 -73.4863 12.4512 -65.2832 L 12.4512 -4.98047 C 12.4512 3.22266 16.7969 7.56836 25 7.56836 Z M 45.6055 -15.332 C 44.9219 -15.332 44.3848 -15.8203 44.3848 -16.5527 L 44.3848 -25.3418 L 27.002 -25.3418 C 25.7324 -25.3418 24.8535 -25.9277 24.8535 -27.1484 C 24.8535 -27.6367 25.0488 -28.2715 25.293 -28.6133 C 29.0039 -34.2285 38.3301 -48.2422 42.2363 -53.9551 C 43.0176 -55.127 43.75 -55.4688 44.873 -55.4688 C 45.9961 -55.4688 46.7773 -54.7852 46.7773 -53.6133 L 46.7773 -27.6855 L 52.3438 -27.6855 C 52.9785 -27.6855 53.4668 -27.1484 53.4668 -26.4648 C 53.4668 -25.8301 53.0762 -25.3418 52.3438 -25.3418 L 46.7773 -25.3418 L 46.7773 -16.5527 C 46.7773 -15.8203 46.3867 -15.332 45.6055 -15.332 Z M 71.6309 -15.0391 C 65.4785 -15.0391 60.6934 -18.6523 59.2285 -22.9492 C 59.1309 -23.291 58.9844 -23.6816 58.9844 -24.1699 C 58.9844 -24.9023 59.4727 -25.4883 60.2539 -25.4883 C 60.9863 -25.4883 61.377 -25.0977 61.6211 -24.2676 C 62.9395 -20.1172 67.041 -17.4805 71.6309 -17.4805 C 77.9297 -17.4805 82.1289 -21.0938 82.1289 -26.2695 C 82.1289 -31.0547 77.8809 -34.7168 72.168 -34.7168 L 67.9199 -34.7168 C 67.1387 -34.7168 66.6992 -35.2051 66.6992 -35.9375 C 66.6992 -36.7188 67.1875 -37.1582 67.9199 -37.1582 L 71.8262 -37.1582 C 76.9531 -37.1582 80.7617 -40.7715 80.7617 -45.3613 C 80.7617 -49.9512 77.0508 -53.0762 71.5332 -53.0762 C 66.6016 -53.0762 63.0859 -50.2441 62.4023 -46.2402 C 62.2559 -45.3125 61.8164 -44.9707 61.1328 -44.9707 C 60.1562 -44.9707 59.8145 -45.5566 59.8145 -46.4355 C 59.8145 -46.7773 59.8633 -47.2168 59.9609 -47.6562 C 61.084 -52.4902 66.0645 -55.4688 71.5332 -55.4688 C 78.3691 -55.4688 83.3496 -51.3672 83.3496 -45.6055 C 83.3496 -41.1133 79.9805 -36.9629 75.5859 -36.1328 L 75.5859 -36.084 C 80.7617 -35.498 84.7168 -31.25 84.7168 -26.2695 C 84.7168 -19.7754 79.1992 -15.0391 71.6309 -15.0391 Z M 44.3848 -27.6855 L 44.3848 -52.6367 L 44.2383 -52.6367 C 41.2109 -48.3398 30.3223 -32.2266 27.6367 -27.832 L 27.6367 -27.6855 Z"/>
  </g>
  <g id="Black-S" transform="matrix(1 0 0 1 2885.5 696)">
   <path d="M 25 2.92969 L 70.8008 2.92969 C 80.3711 2.92969 86.0352 -2.73438 86.0352 -12.3047 L 86.0352 -58.1055 C 86.0352 -67.6758 80.3711 -73.3398 70.8008 -73.3398 L 25 -73.3398 C 15.4297 -73.3398 9.76562 -67.6758 9.76562 -58.1055 L 9.76562 -12.3047 C 9.76562 -2.73438 15.4297 2.92969 25 2.92969 Z M 41.2598 -19.873 C 39.1113 -19.873 37.5977 -21.2891 37.5977 -23.3887 L 37.5977 -25.3418 L 31.25 -25.3418 C 27.9297 -25.3418 26.2207 -27.1973 26.2207 -30.2734 C 26.2207 -32.2266 26.7578 -34.0332 27.2949 -35.6934 C 28.0762 -38.1836 29.8828 -42.7734 31.3477 -45.8496 C 32.9102 -49.1211 35.1074 -50.6348 38.7695 -50.6348 C 43.0176 -50.6348 44.9219 -48.2422 44.9219 -44.1895 L 44.9219 -32.5195 L 45.3125 -32.5195 C 47.4121 -32.5195 48.584 -31.0547 48.584 -28.8574 C 48.584 -26.7578 47.4121 -25.4395 45.3125 -25.4395 L 44.9219 -25.4395 L 44.9219 -23.3887 C 44.9219 -21.2891 43.457 -19.873 41.2598 -19.873 Z M 60.2539 -19.873 C 55.7617 -19.873 51.6602 -22.6562 50.7324 -25.5859 C 50.5371 -26.2695 50.3906 -26.9531 50.3906 -27.6367 C 50.3906 -29.9805 52.2461 -31.2012 53.8086 -31.2012 C 55.3223 -31.2012 56.4453 -30.5664 57.2266 -29.4434 C 58.1055 -28.1738 59.3262 -27.5879 60.4004 -27.5879 C 61.5723 -27.5879 62.3047 -28.5156 62.3047 -29.4434 C 62.3047 -30.6641 61.5723 -31.4453 60.2051 -31.4453 L 60.1562 -31.4453 C 57.373 -31.4453 56.25 -33.0566 56.25 -35.3516 C 56.25 -37.6465 57.666 -39.209 60.1562 -39.209 L 60.2051 -39.209 C 61.5723 -39.209 62.0117 -40.2832 62.0117 -41.1621 C 62.0117 -42.4805 61.1816 -43.2617 60.1562 -43.2617 C 59.0332 -43.2617 58.252 -42.6758 57.3242 -41.4062 C 56.5918 -40.3809 55.5664 -39.6484 53.9551 -39.6484 C 52.0508 -39.6484 50.6836 -40.918 50.6836 -43.1641 C 50.6836 -43.8965 50.8301 -44.5801 51.2695 -45.5566 C 52.2461 -47.7051 55.4199 -50.6348 60.2539 -50.6348 C 66.4551 -50.6348 70.3613 -47.4121 70.3613 -42.4316 C 70.3613 -39.502 68.3594 -36.7676 65.6738 -36.3281 L 65.6738 -35.9375 C 68.8477 -35.7422 70.9473 -32.6172 70.9473 -28.9062 C 70.9473 -23.3398 66.8457 -19.873 60.2539 -19.873 Z M 37.5977 -32.4219 L 37.5977 -43.0176 L 37.5 -43.0176 C 36.4746 -40.0879 34.8145 -34.9609 34.0332 -32.5684 L 34.0332 -32.4219 Z"/>
  </g>
  <g id="Heavy-S" transform="matrix(1 0 0 1 2589.4 696)">
   <path d="M 24.3652 2.34375 L 70.2637 2.34375 C 79.541 2.34375 84.8145 -2.97852 84.8145 -12.207 L 84.8145 -58.2031 C 84.8145 -67.4316 79.541 -72.7539 70.2637 -72.7539 L 24.3652 -72.7539 C 15.0879 -72.7539 9.76562 -67.4316 9.76562 -58.2031 L 9.76562 -12.207 C 9.76562 -2.97852 15.0879 2.34375 24.3652 2.34375 Z M 40.4297 -19.4336 C 38.3301 -19.4336 37.0117 -20.8496 37.0117 -22.8516 L 37.0117 -25.293 L 29.541 -25.293 C 26.4648 -25.293 24.8047 -27.0508 24.8047 -29.9805 C 24.8047 -31.7383 25.293 -33.3496 25.8789 -34.9609 C 27.0508 -37.9883 29.1992 -42.8711 31.1523 -46.6309 C 32.666 -49.707 34.7168 -51.0742 38.1348 -51.0742 C 41.9922 -51.0742 43.8477 -48.8281 43.8477 -45.166 L 43.8477 -31.9824 L 44.5312 -31.9824 C 46.5332 -31.9824 47.6562 -30.6152 47.6562 -28.5645 C 47.6562 -26.6113 46.5332 -25.3906 44.5312 -25.3906 L 43.8477 -25.3906 L 43.8477 -22.8516 C 43.8477 -20.8008 42.5293 -19.4336 40.4297 -19.4336 Z M 59.9609 -19.4336 C 55.2246 -19.4336 51.0742 -22.3633 50.1465 -25.4883 C 49.9512 -26.123 49.8047 -26.7578 49.8047 -27.3926 C 49.8047 -29.541 51.5137 -30.7617 53.0273 -30.7617 C 54.4922 -30.7617 55.5176 -30.0781 56.25 -28.9062 C 57.1777 -27.2949 58.5449 -26.5625 60.1074 -26.5625 C 61.8164 -26.5625 62.9395 -27.7832 62.9395 -29.1504 C 62.9395 -30.8105 61.8652 -31.8359 60.0098 -31.8359 L 59.4727 -31.8359 C 56.9824 -31.8359 55.9082 -33.3496 55.9082 -35.4492 C 55.9082 -37.5977 57.2266 -39.0137 59.4727 -39.0137 L 59.9609 -39.0137 C 61.6699 -39.0137 62.5 -40.2832 62.5 -41.6016 C 62.5 -43.2129 61.377 -44.2383 59.9121 -44.2383 C 58.3984 -44.2383 57.373 -43.457 56.4453 -41.8457 C 55.7617 -40.7227 54.834 -40.0391 53.3203 -40.0391 C 51.4648 -40.0391 50.1953 -41.2598 50.1953 -43.3594 C 50.1953 -44.043 50.3418 -44.6777 50.6836 -45.5078 C 51.6602 -48.0957 55.0293 -51.0742 60.0586 -51.0742 C 66.2109 -51.0742 70.166 -47.7539 70.166 -42.7246 C 70.166 -39.6484 68.0176 -36.7676 65.2344 -36.2793 L 65.2344 -35.9375 C 68.6035 -35.6934 70.8496 -32.5195 70.8496 -28.6621 C 70.8496 -23.0469 66.6016 -19.4336 59.9609 -19.4336 Z M 37.0117 -31.8848 L 37.0117 -43.8477 L 36.8652 -43.8477 C 35.3027 -40.2344 33.3008 -34.9609 32.1289 -32.0312 L 32.1289 -31.8848 Z"/>
  </g>
  <g id="Bold-S" transform="matrix(1 0 0 1 2293.35 696)">
   <path d="M 23.6328 1.66016 L 69.6289 1.66016 C 78.6133 1.66016 83.4961 -3.22266 83.4961 -12.1094 L 83.4961 -58.3008 C 83.4961 -67.1875 78.6133 -72.0703 69.6289 -72.0703 L 23.6328 -72.0703 C 14.6973 -72.0703 9.76562 -67.1875 9.76562 -58.3008 L 9.76562 -12.1094 C 9.76562 -3.22266 14.6973 1.66016 23.6328 1.66016 Z M 39.4531 -18.9453 C 37.5 -18.9453 36.3281 -20.3125 36.3281 -22.2168 L 36.3281 -25.293 L 27.5879 -25.293 C 24.8535 -25.293 23.2422 -26.9043 23.2422 -29.6387 C 23.2422 -31.2012 23.6328 -32.6172 24.2676 -34.1309 C 25.9277 -37.793 28.4668 -43.0176 30.9082 -47.4609 C 32.373 -50.3418 34.2773 -51.5625 37.4023 -51.5625 C 40.8203 -51.5625 42.6758 -49.5117 42.6758 -46.2402 L 42.6758 -31.3477 L 43.7012 -31.3477 C 45.5078 -31.3477 46.582 -30.1758 46.582 -28.2715 C 46.582 -26.416 45.5078 -25.3418 43.7012 -25.3418 L 42.6758 -25.3418 L 42.6758 -22.2168 C 42.6758 -20.2637 41.4551 -18.9453 39.4531 -18.9453 Z M 59.6191 -18.9453 C 54.6387 -18.9453 50.4395 -22.0215 49.4629 -25.3418 C 49.3164 -25.9277 49.2188 -26.5137 49.2188 -27.0996 C 49.2188 -29.0527 50.6836 -30.2246 52.1973 -30.2246 C 53.5645 -30.2246 54.4922 -29.5898 55.127 -28.3203 C 56.1035 -26.3672 57.666 -25.3418 59.7168 -25.3418 C 62.0605 -25.3418 63.6719 -26.9043 63.6719 -28.8086 C 63.6719 -30.957 62.207 -32.3242 59.7168 -32.3242 L 58.6426 -32.3242 C 56.543 -32.3242 55.5176 -33.6914 55.5176 -35.5469 C 55.5176 -37.5 56.6895 -38.8184 58.6426 -38.8184 L 59.668 -38.8184 C 61.8164 -38.8184 63.0859 -40.2832 63.0859 -42.0898 C 63.0859 -44.043 61.6211 -45.3125 59.668 -45.3125 C 57.666 -45.3125 56.3965 -44.3359 55.4688 -42.334 C 54.8828 -41.1621 54.0527 -40.4297 52.5879 -40.4297 C 50.8789 -40.4297 49.6582 -41.6504 49.6582 -43.5547 C 49.6582 -44.1895 49.7559 -44.7266 50.0488 -45.5078 C 51.0254 -48.4863 54.5898 -51.5625 59.8145 -51.5625 C 65.918 -51.5625 69.9707 -48.1445 69.9707 -43.1152 C 69.9707 -39.7461 67.6758 -36.7188 64.7461 -36.2793 L 64.7461 -35.9375 C 68.3105 -35.6445 70.8008 -32.373 70.8008 -28.418 C 70.8008 -22.7539 66.3574 -18.9453 59.6191 -18.9453 Z M 36.3281 -31.2988 L 36.3281 -44.7754 L 36.1328 -44.7754 C 33.9844 -40.4297 31.5918 -35.0098 30.0293 -31.4453 L 30.0293 -31.2988 Z"/>
  </g>
  <g id="Semibold-S" transform="matrix(1 0 0 1 1997.1 696)">
   <path d="M 23.0957 1.17188 L 69.1895 1.17188 C 77.9297 1.17188 82.5684 -3.36914 82.5684 -12.0117 L 82.5684 -58.3984 C 82.5684 -67.041 77.9297 -71.582 69.1895 -71.582 L 23.0957 -71.582 C 14.4043 -71.582 9.76562 -67.041 9.76562 -58.3984 L 9.76562 -12.0117 C 9.76562 -3.36914 14.4043 1.17188 23.0957 1.17188 Z M 38.8184 -18.6035 C 36.9141 -18.6035 35.8398 -19.9707 35.8398 -21.8262 L 35.8398 -25.2441 L 26.2695 -25.2441 C 23.7305 -25.2441 22.1191 -26.8066 22.1191 -29.3945 C 22.1191 -30.8594 22.4609 -32.0801 23.1445 -33.5449 C 25.1953 -37.6953 27.9785 -43.1152 30.7129 -48.0469 C 32.1777 -50.7812 33.9355 -51.9043 36.9141 -51.9043 C 40.0391 -51.9043 41.8457 -50 41.8457 -46.9727 L 41.8457 -30.9082 L 43.1152 -30.9082 C 44.8242 -30.9082 45.8496 -29.834 45.8496 -28.0273 C 45.8496 -26.3184 44.8242 -25.293 43.1152 -25.293 L 41.8457 -25.293 L 41.8457 -21.8262 C 41.8457 -19.9219 40.7227 -18.6035 38.8184 -18.6035 Z M 59.4238 -18.6035 C 54.1992 -18.6035 50 -21.7773 49.0234 -25.2441 C 48.8281 -25.8301 48.7793 -26.3184 48.7793 -26.9531 C 48.7793 -28.7598 50.0977 -29.8828 51.5625 -29.8828 C 52.9297 -29.8828 53.7598 -29.1992 54.3945 -27.9297 C 55.3711 -25.6836 57.0801 -24.5605 59.4727 -24.5605 C 62.2559 -24.5605 64.1602 -26.3184 64.1602 -28.5645 C 64.1602 -31.1035 62.4512 -32.6172 59.5703 -32.6172 L 58.1055 -32.6172 C 56.25 -32.6172 55.2246 -33.9355 55.2246 -35.5957 C 55.2246 -37.4512 56.3477 -38.6719 58.1055 -38.6719 L 59.4727 -38.6719 C 61.9141 -38.6719 63.4277 -40.2832 63.4277 -42.4316 C 63.4277 -44.6289 61.7676 -46.0449 59.5215 -46.0449 C 57.1777 -46.0449 55.7129 -44.9219 54.834 -42.6758 C 54.248 -41.4062 53.4668 -40.7227 52.0508 -40.7227 C 50.4395 -40.7227 49.3164 -41.8945 49.3164 -43.6523 C 49.3164 -44.2871 49.3652 -44.8242 49.5605 -45.459 C 50.5859 -48.7793 54.2969 -51.9043 59.6191 -51.9043 C 65.7227 -51.9043 69.8242 -48.4375 69.8242 -43.3594 C 69.8242 -39.8438 67.4316 -36.7188 64.4043 -36.2305 L 64.4043 -35.9375 C 68.1152 -35.5957 70.7031 -32.3242 70.7031 -28.2227 C 70.7031 -22.5098 66.1621 -18.6035 59.4238 -18.6035 Z M 35.8398 -30.9082 L 35.8398 -45.4102 L 35.6445 -45.4102 C 33.0566 -40.5273 30.4688 -35.0098 28.5645 -31.0547 L 28.5645 -30.9082 Z"/>
  </g>
  <g id="Medium-S" transform="matrix(1 0 0 1 1700.75 696)">
   <path d="M 22.7051 0.830078 L 68.8965 0.830078 C 77.4414 0.830078 81.8359 -3.51562 81.8359 -11.9629 L 81.8359 -58.4473 C 81.8359 -66.8945 77.4414 -71.2402 68.8965 -71.2402 L 22.7051 -71.2402 C 14.209 -71.2402 9.76562 -66.8945 9.76562 -58.4473 L 9.76562 -11.9629 C 9.76562 -3.51562 14.209 0.830078 22.7051 0.830078 Z M 38.3301 -18.3594 C 36.4746 -18.3594 35.498 -19.6777 35.498 -21.4844 L 35.498 -25.2441 L 25.293 -25.2441 C 22.8516 -25.2441 21.2891 -26.7578 21.2891 -29.248 C 21.2891 -30.5664 21.582 -31.6895 22.3145 -33.1543 C 24.5605 -37.5488 27.5879 -43.2129 30.5664 -48.4863 C 32.0312 -51.0742 33.6914 -52.1973 36.5234 -52.1973 C 39.4043 -52.1973 41.2109 -50.3418 41.2109 -47.5098 L 41.2109 -30.6152 L 42.6758 -30.6152 C 44.3359 -30.6152 45.3125 -29.5898 45.3125 -27.8809 C 45.3125 -26.2207 44.3359 -25.2441 42.6758 -25.2441 L 41.2109 -25.2441 L 41.2109 -21.4844 C 41.2109 -19.6289 40.1855 -18.3594 38.3301 -18.3594 Z M 59.2285 -18.3105 C 53.9062 -18.3105 49.6582 -21.6309 48.6328 -25.1465 C 48.4863 -25.7324 48.4375 -26.2207 48.4375 -26.8066 C 48.4375 -28.5156 49.6582 -29.5898 51.123 -29.5898 C 52.4414 -29.5898 53.2227 -28.9551 53.8086 -27.6367 C 54.834 -25.1953 56.5918 -23.9258 59.3262 -23.9258 C 62.4023 -23.9258 64.5508 -25.8789 64.5508 -28.418 C 64.5508 -31.1523 62.6465 -32.8613 59.4238 -32.8613 L 57.7148 -32.8613 C 56.0547 -32.8613 55.0293 -34.082 55.0293 -35.6934 C 55.0293 -37.4023 56.1035 -38.5254 57.7148 -38.5254 L 59.3262 -38.5254 C 61.9629 -38.5254 63.7207 -40.2832 63.7207 -42.6758 C 63.7207 -45.0684 61.9141 -46.6309 59.375 -46.6309 C 56.7871 -46.6309 55.2246 -45.4102 54.2969 -42.9688 C 53.8086 -41.6504 53.0762 -40.9668 51.709 -40.9668 C 50.0977 -40.9668 49.0234 -42.0898 49.0234 -43.75 C 49.0234 -44.3848 49.0723 -44.8242 49.2188 -45.459 C 50.2441 -49.0234 54.1016 -52.1973 59.5215 -52.1973 C 65.5762 -52.1973 69.6777 -48.6328 69.6777 -43.5547 C 69.6777 -39.9414 67.2363 -36.7188 64.1602 -36.2305 L 64.1602 -35.9375 C 67.9688 -35.5957 70.6543 -32.2754 70.6543 -28.0762 C 70.6543 -22.3633 66.0156 -18.3105 59.2285 -18.3105 Z M 35.498 -30.5664 L 35.498 -45.8984 L 35.3027 -45.8984 C 32.373 -40.625 29.541 -35.0098 27.4902 -30.7617 L 27.4902 -30.5664 Z"/>
  </g>
  <g id="Regular-S" transform="matrix(1 0 0 1 1404.51 696)">
   <path d="M 22.2168 0.390625 L 68.457 0.390625 C 76.8066 0.390625 80.9082 -3.71094 80.9082 -11.9141 L 80.9082 -58.4961 C 80.9082 -66.6992 76.8066 -70.8008 68.457 -70.8008 L 22.2168 -70.8008 C 13.916 -70.8008 9.76562 -66.6992 9.76562 -58.4961 L 9.76562 -11.9141 C 9.76562 -3.71094 13.916 0.390625 22.2168 0.390625 Z M 37.6953 -18.0176 C 35.8887 -18.0176 35.0586 -19.3359 35.0586 -21.0449 L 35.0586 -25.2441 L 23.9746 -25.2441 C 21.7285 -25.2441 20.2148 -26.6113 20.2148 -29.0039 C 20.2148 -30.2246 20.459 -31.1523 21.1914 -32.5684 C 23.8281 -37.4512 27.0508 -43.2617 30.4199 -49.0723 C 31.8359 -51.5137 33.3984 -52.4902 36.0352 -52.4902 C 38.623 -52.4902 40.4297 -50.8301 40.4297 -48.291 L 40.4297 -30.1758 L 42.0898 -30.1758 C 43.6523 -30.1758 44.5801 -29.2969 44.5801 -27.6855 C 44.5801 -26.123 43.6523 -25.2441 42.0898 -25.2441 L 40.4297 -25.2441 L 40.4297 -21.0449 C 40.4297 -19.2871 39.4531 -18.0176 37.6953 -18.0176 Z M 59.0332 -18.0176 C 53.5156 -18.0176 49.2188 -21.3867 48.1934 -25.0977 C 48.0469 -25.5859 47.998 -26.0254 47.998 -26.6113 C 47.998 -28.1738 49.0723 -29.248 50.5371 -29.248 C 51.8066 -29.248 52.5391 -28.6133 53.0762 -27.1973 C 54.1504 -24.5605 56.0059 -23.1445 59.082 -23.1445 C 62.5488 -23.1445 65.0391 -25.3418 65.0391 -28.1738 C 65.0391 -31.2988 62.8906 -33.2031 59.2773 -33.2031 L 57.1777 -33.2031 C 55.7129 -33.2031 54.7363 -34.3262 54.7363 -35.7422 C 54.7363 -37.3535 55.7617 -38.3789 57.1777 -38.3789 L 59.1309 -38.3789 C 62.0605 -38.3789 64.1113 -40.2832 64.1113 -43.0176 C 64.1113 -45.6055 62.0605 -47.3633 59.1797 -47.3633 C 56.2988 -47.3633 54.541 -45.9961 53.6621 -43.3105 C 53.1738 -41.8945 52.4902 -41.2598 51.1719 -41.2598 C 49.6582 -41.2598 48.6816 -42.334 48.6816 -43.8965 C 48.6816 -44.4824 48.6816 -44.9219 48.7793 -45.4102 C 49.8047 -49.2676 53.8086 -52.4902 59.3262 -52.4902 C 65.3809 -52.4902 69.5312 -48.9258 69.5312 -43.7988 C 69.5312 -40.0391 66.9922 -36.7188 63.8184 -36.2305 L 63.8184 -35.9375 C 67.7734 -35.5469 70.6055 -32.1777 70.6055 -27.8809 C 70.6055 -22.1191 65.8691 -18.0176 59.0332 -18.0176 Z M 35.0586 -30.1758 L 35.0586 -46.5332 L 34.8145 -46.5332 C 31.4941 -40.7227 28.418 -35.0586 26.0254 -30.3711 L 26.0254 -30.1758 Z"/>
  </g>
  <g id="Light-S" transform="matrix(1 0 0 1 1108.46 696)">
   <path d="M 21.3867 -0.292969 L 67.9688 -0.292969 C 75.7324 -0.292969 79.5898 -4.15039 79.5898 -11.7676 L 79.5898 -58.5938 C 79.5898 -66.2109 75.7324 -70.1172 67.9688 -70.1172 L 21.3867 -70.1172 C 13.6719 -70.1172 9.76562 -66.2598 9.76562 -58.5938 L 9.76562 -11.7676 C 9.76562 -4.15039 13.6719 -0.292969 21.3867 -0.292969 Z M 37.0605 -18.5059 C 35.6934 -18.5059 34.9609 -19.5312 34.9609 -20.8984 L 34.9609 -25.9277 L 23.0957 -25.9277 C 21.2402 -25.9277 19.9707 -27.0508 19.9707 -28.9551 C 19.9707 -29.9316 20.2148 -30.7129 20.752 -31.7871 C 23.4863 -36.4746 27.9785 -43.9453 31.25 -49.3164 C 32.4219 -51.3184 33.6914 -52.0508 35.7422 -52.0508 C 37.8418 -52.0508 39.2578 -50.7324 39.2578 -48.6816 L 39.2578 -29.9316 L 41.748 -29.9316 C 42.9688 -29.9316 43.75 -29.1504 43.75 -27.8809 C 43.75 -26.6602 42.9688 -25.9277 41.748 -25.9277 L 39.2578 -25.9277 L 39.2578 -20.8984 C 39.2578 -19.5312 38.4766 -18.5059 37.0605 -18.5059 Z M 58.1055 -18.457 C 52.7832 -18.457 48.6816 -21.6309 47.6562 -25.2441 C 47.5098 -25.6836 47.4609 -26.0742 47.4609 -26.6113 C 47.4609 -27.832 48.291 -28.7598 49.5117 -28.7598 C 50.5371 -28.7598 51.123 -28.1738 51.5625 -27.0508 C 52.6367 -24.1699 54.9316 -22.5586 58.1543 -22.5586 C 62.1094 -22.5586 64.8438 -24.9512 64.8438 -28.1738 C 64.8438 -31.4941 62.3047 -33.6914 58.4473 -33.6914 L 55.9082 -33.6914 C 54.7363 -33.6914 53.9551 -34.6191 53.9551 -35.7422 C 53.9551 -37.0605 54.7852 -37.8906 55.9082 -37.8906 L 58.2031 -37.8906 C 61.5234 -37.8906 63.8672 -40.0879 63.8672 -43.0664 C 63.8672 -45.9473 61.5234 -47.9492 58.2031 -47.9492 C 55.0293 -47.9492 52.9785 -46.2891 52.1484 -43.457 C 51.8066 -42.2852 51.2207 -41.748 50.1465 -41.748 C 48.877 -41.748 48.0957 -42.627 48.0957 -43.9453 C 48.0957 -44.4336 48.1445 -44.8242 48.2422 -45.2637 C 49.2188 -49.1211 53.1738 -52.0508 58.3008 -52.0508 C 64.1113 -52.0508 68.2129 -48.584 68.2129 -43.6523 C 68.2129 -39.9902 65.6738 -36.6699 62.3535 -36.1328 L 62.3535 -35.9375 C 66.3574 -35.498 69.2871 -32.1777 69.2871 -27.9785 C 69.2871 -22.4121 64.6484 -18.457 58.1055 -18.457 Z M 34.9609 -29.9316 L 34.9609 -47.2656 L 34.7656 -47.2656 C 31.7383 -42.2363 26.9531 -34.375 24.6582 -30.0781 L 24.6582 -29.9316 Z"/>
  </g>
  <g id="Thin-S" transform="matrix(1 0 0 1 812.599 696)">
   <path d="M 20.3125 -1.12305 L 67.334 -1.12305 C 74.2676 -1.12305 77.8809 -4.78516 77.8809 -11.6211 L 77.8809 -58.6914 C 77.8809 -65.5762 74.2676 -69.2383 67.334 -69.2383 L 20.3125 -69.2383 C 13.3789 -69.2383 9.76562 -65.625 9.76562 -58.6914 L 9.76562 -11.6211 C 9.76562 -4.6875 13.3789 -1.12305 20.3125 -1.12305 Z M 36.2793 -19.1895 C 35.4004 -19.1895 34.8633 -19.8242 34.8633 -20.752 L 34.8633 -26.8555 L 21.9238 -26.8555 C 20.6055 -26.8555 19.6777 -27.5879 19.6777 -28.9551 C 19.6777 -29.541 19.873 -30.1758 20.2148 -30.7617 C 23.0469 -35.2539 29.1992 -44.8242 32.373 -49.6582 C 33.2031 -51.0254 34.0332 -51.5137 35.4004 -51.5137 C 36.7676 -51.5137 37.6953 -50.6348 37.6953 -49.2676 L 37.6953 -29.5898 L 41.3086 -29.5898 C 42.0898 -29.5898 42.627 -29.0039 42.627 -28.1738 C 42.627 -27.3926 42.1387 -26.8555 41.3086 -26.8555 L 37.6953 -26.8555 L 37.6953 -20.752 C 37.6953 -19.8242 37.207 -19.1895 36.2793 -19.1895 Z M 56.9336 -18.9941 C 51.9043 -18.9941 47.998 -21.9727 46.9238 -25.4395 C 46.7773 -25.7812 46.7285 -26.123 46.7285 -26.5625 C 46.7285 -27.4414 47.2656 -28.0762 48.1445 -28.0762 C 48.877 -28.0762 49.3164 -27.6367 49.6094 -26.8066 C 50.6348 -23.6816 53.5156 -21.8262 56.9336 -21.8262 C 61.4746 -21.8262 64.5508 -24.4629 64.5508 -28.2227 C 64.5508 -31.7383 61.5234 -34.375 57.3242 -34.375 L 54.2969 -34.375 C 53.4668 -34.375 52.9297 -34.9609 52.9297 -35.791 C 52.9297 -36.6699 53.5156 -37.207 54.2969 -37.207 L 57.0312 -37.207 C 60.791 -37.207 63.5254 -39.7949 63.5254 -43.1152 C 63.5254 -46.4355 60.8398 -48.6816 56.9336 -48.6816 C 53.3203 -48.6816 50.8301 -46.7285 50.1953 -43.7012 C 50 -42.7734 49.5605 -42.3828 48.8281 -42.3828 C 47.8516 -42.3828 47.3633 -43.0664 47.3633 -43.9453 C 47.3633 -44.3359 47.4121 -44.7266 47.5098 -45.1172 C 48.3887 -48.9258 52.3438 -51.5137 56.9824 -51.5137 C 62.5 -51.5137 66.5039 -48.1934 66.5039 -43.457 C 66.5039 -39.8926 63.8672 -36.6211 60.498 -36.0352 L 60.498 -35.8887 C 64.502 -35.498 67.5781 -32.1289 67.5781 -28.125 C 67.5781 -22.8516 63.0859 -18.9941 56.9336 -18.9941 Z M 34.8633 -29.5898 L 34.8633 -48.1934 L 34.7168 -48.1934 C 32.0801 -44.1895 25.0488 -33.4961 22.8516 -29.6875 L 22.8516 -29.5898 Z"/>
  </g>
  <g id="Ultralight-S" transform="matrix(1 0 0 1 516.352 696)">
   <path d="M 19.7754 -1.5625 L 66.9922 -1.5625 C 73.5352 -1.5625 76.9531 -5.12695 76.9531 -11.5234 L 76.9531 -58.7891 C 76.9531 -65.2344 73.5352 -68.75 66.9922 -68.75 L 19.7754 -68.75 C 13.2324 -68.75 9.76562 -65.2832 9.76562 -58.7891 L 9.76562 -11.5234 C 9.76562 -5.0293 13.2324 -1.5625 19.7754 -1.5625 Z M 35.8398 -19.5312 C 35.2539 -19.5312 34.7656 -19.9707 34.7656 -20.6055 L 34.7656 -27.3438 L 21.3379 -27.3438 C 20.2637 -27.3438 19.5312 -27.8809 19.5312 -28.9062 C 19.5312 -29.3457 19.6777 -29.834 19.873 -30.2246 C 22.8027 -34.6191 29.834 -45.3125 32.9102 -49.8535 C 33.5938 -50.8789 34.2285 -51.1719 35.2051 -51.1719 C 36.2305 -51.1719 36.9141 -50.5371 36.9141 -49.5605 L 36.9141 -29.3945 L 41.0645 -29.3945 C 41.6504 -29.3945 42.0898 -28.9062 42.0898 -28.3203 C 42.0898 -27.7344 41.6992 -27.3438 41.0645 -27.3438 L 36.9141 -27.3438 L 36.9141 -20.6055 C 36.9141 -19.9707 36.5234 -19.5312 35.8398 -19.5312 Z M 56.2988 -19.3359 C 51.416 -19.3359 47.6562 -22.168 46.5332 -25.5371 C 46.4355 -25.8789 46.3379 -26.1719 46.3379 -26.5625 C 46.3379 -27.1973 46.7285 -27.7344 47.4121 -27.7344 C 48.0469 -27.7344 48.3398 -27.3438 48.584 -26.709 C 49.6094 -23.4375 52.7344 -21.4355 56.2988 -21.4355 C 61.1328 -21.4355 64.4043 -24.2188 64.4043 -28.2227 C 64.4043 -31.8848 61.1328 -34.7168 56.7383 -34.7168 L 53.4668 -34.7168 C 52.7832 -34.7168 52.3926 -35.1562 52.3926 -35.791 C 52.3926 -36.4746 52.832 -36.8652 53.4668 -36.8652 L 56.4453 -36.8652 C 60.4004 -36.8652 63.3301 -39.6484 63.3301 -43.1641 C 63.3301 -46.6797 60.498 -49.0723 56.25 -49.0723 C 52.4414 -49.0723 49.7559 -46.9238 49.2188 -43.7988 C 49.0234 -43.0664 48.6816 -42.7246 48.0957 -42.7246 C 47.3145 -42.7246 46.9727 -43.2617 46.9727 -43.9941 C 46.9727 -44.2871 47.0215 -44.6289 47.1191 -44.9707 C 47.998 -48.8281 51.9043 -51.1719 56.25 -51.1719 C 61.6699 -51.1719 65.5762 -47.9492 65.5762 -43.3594 C 65.5762 -39.8438 62.9395 -36.5723 59.5215 -35.9375 L 59.5215 -35.8887 C 63.5254 -35.4492 66.6504 -32.1289 66.6504 -28.2227 C 66.6504 -23.0469 62.3047 -19.3359 56.2988 -19.3359 Z M 34.7656 -29.3945 L 34.7656 -48.7305 L 34.668 -48.7305 C 32.2266 -45.166 24.0723 -33.0078 21.9238 -29.4922 L 21.9238 -29.3945 Z"/>
  </g>
 </g>
</svg>
