<?xml version="1.0" encoding="UTF-8"?>
<!--Generator: Apple Native CoreSVG 148-->
<!DOCTYPE svg
PUBLIC "-//W3C//DTD SVG 1.1//EN"
       "http://www.w3.org/Graphics/SVG/1.1/DTD/svg11.dtd">
<svg version="1.1" xmlns="http://www.w3.org/2000/svg" xmlns:xlink="http://www.w3.org/1999/xlink" width="3300" height="2200">
 <!--glyph: "uni10031D.medium", point size: 100.000000, font version: "Version 16.0d11e1", template writer version: "8"-->
 <g id="Notes">
  <rect height="2200" id="artboard" style="fill:white;opacity:1" width="3300" x="0" y="0"/>
  <line id="" style="fill:none;stroke:black;opacity:1;stroke-width:0.5;" x1="263" x2="3036" y1="292" y2="292"/>
  <text style="stroke:none;fill:black;font-family:-apple-system,&quot;SF Pro Display&quot;,&quot;SF Pro Text&quot;,Helvetica,sans-serif;font-weight:bold;" transform="matrix(1 0 0 1 263 322)">Weight/Scale Variations</text>
  <text style="stroke:none;fill:black;font-family:-apple-system,&quot;SF Pro Display&quot;,&quot;SF Pro Text&quot;,Helvetica,sans-serif;text-anchor:middle;" transform="matrix(1 0 0 1 559.711 322)">Ultralight</text>
  <text style="stroke:none;fill:black;font-family:-apple-system,&quot;SF Pro Display&quot;,&quot;SF Pro Text&quot;,Helvetica,sans-serif;text-anchor:middle;" transform="matrix(1 0 0 1 856.422 322)">Thin</text>
  <text style="stroke:none;fill:black;font-family:-apple-system,&quot;SF Pro Display&quot;,&quot;SF Pro Text&quot;,Helvetica,sans-serif;text-anchor:middle;" transform="matrix(1 0 0 1 1153.13 322)">Light</text>
  <text style="stroke:none;fill:black;font-family:-apple-system,&quot;SF Pro Display&quot;,&quot;SF Pro Text&quot;,Helvetica,sans-serif;text-anchor:middle;" transform="matrix(1 0 0 1 1449.84 322)">Regular</text>
  <text style="stroke:none;fill:black;font-family:-apple-system,&quot;SF Pro Display&quot;,&quot;SF Pro Text&quot;,Helvetica,sans-serif;text-anchor:middle;" transform="matrix(1 0 0 1 1746.56 322)">Medium</text>
  <text style="stroke:none;fill:black;font-family:-apple-system,&quot;SF Pro Display&quot;,&quot;SF Pro Text&quot;,Helvetica,sans-serif;text-anchor:middle;" transform="matrix(1 0 0 1 2043.27 322)">Semibold</text>
  <text style="stroke:none;fill:black;font-family:-apple-system,&quot;SF Pro Display&quot;,&quot;SF Pro Text&quot;,Helvetica,sans-serif;text-anchor:middle;" transform="matrix(1 0 0 1 2339.98 322)">Bold</text>
  <text style="stroke:none;fill:black;font-family:-apple-system,&quot;SF Pro Display&quot;,&quot;SF Pro Text&quot;,Helvetica,sans-serif;text-anchor:middle;" transform="matrix(1 0 0 1 2636.69 322)">Heavy</text>
  <text style="stroke:none;fill:black;font-family:-apple-system,&quot;SF Pro Display&quot;,&quot;SF Pro Text&quot;,Helvetica,sans-serif;text-anchor:middle;" transform="matrix(1 0 0 1 2933.4 322)">Black</text>
  <line id="" style="fill:none;stroke:black;opacity:1;stroke-width:0.5;" x1="263" x2="3036" y1="1903" y2="1903"/>
  <g id="" transform="matrix(1 0 0 1 263 1933)">
   <path d="M 9.24805 0.830078 C 13.5547 0.830078 17.1387 -2.74414 17.1387 -7.05078 C 17.1387 -11.3574 13.5449 -14.9316 9.23828 -14.9316 C 4.94141 -14.9316 1.36719 -11.3574 1.36719 -7.05078 C 1.36719 -2.74414 4.95117 0.830078 9.24805 0.830078 Z M 9.24805 -0.654297 C 5.70312 -0.654297 2.87109 -3.49609 2.87109 -7.05078 C 2.87109 -10.6055 5.69336 -13.4473 9.23828 -13.4473 C 12.793 -13.4473 15.6348 -10.6055 15.6445 -7.05078 C 15.6543 -3.49609 12.8027 -0.654297 9.24805 -0.654297 Z M 9.22852 -3.62305 C 9.69727 -3.62305 9.9707 -3.93555 9.9707 -4.45312 L 9.9707 -6.31836 L 12.002 -6.31836 C 12.5 -6.31836 12.832 -6.57227 12.832 -7.04102 C 12.832 -7.51953 12.5195 -7.7832 12.002 -7.7832 L 9.9707 -7.7832 L 9.9707 -9.81445 C 9.9707 -10.332 9.69727 -10.6543 9.22852 -10.6543 C 8.75977 -10.6543 8.50586 -10.3125 8.50586 -9.81445 L 8.50586 -7.7832 L 6.49414 -7.7832 C 5.97656 -7.7832 5.64453 -7.51953 5.64453 -7.04102 C 5.64453 -6.57227 5.99609 -6.31836 6.49414 -6.31836 L 8.50586 -6.31836 L 8.50586 -4.45312 C 8.50586 -3.95508 8.75977 -3.62305 9.22852 -3.62305 Z"/>
  </g>
  <g id="" transform="matrix(1 0 0 1 281.506 1933)">
   <path d="M 11.709 2.91016 C 17.1582 2.91016 21.6699 -1.61133 21.6699 -7.05078 C 21.6699 -12.5 17.1484 -17.0117 11.6992 -17.0117 C 6.25977 -17.0117 1.74805 -12.5 1.74805 -7.05078 C 1.74805 -1.61133 6.26953 2.91016 11.709 2.91016 Z M 11.709 1.25 C 7.09961 1.25 3.41797 -2.44141 3.41797 -7.05078 C 3.41797 -11.6602 7.08984 -15.3516 11.6992 -15.3516 C 16.3086 -15.3516 20 -11.6602 20.0098 -7.05078 C 20.0195 -2.44141 16.3184 1.25 11.709 1.25 Z M 11.6797 -2.66602 C 12.207 -2.66602 12.5098 -3.01758 12.5098 -3.59375 L 12.5098 -6.23047 L 15.3223 -6.23047 C 15.8691 -6.23047 16.25 -6.51367 16.25 -7.03125 C 16.25 -7.55859 15.8887 -7.86133 15.3223 -7.86133 L 12.5098 -7.86133 L 12.5098 -10.6836 C 12.5098 -11.25 12.207 -11.6113 11.6797 -11.6113 C 11.1621 -11.6113 10.8789 -11.2305 10.8789 -10.6836 L 10.8789 -7.86133 L 8.07617 -7.86133 C 7.50977 -7.86133 7.13867 -7.55859 7.13867 -7.03125 C 7.13867 -6.51367 7.5293 -6.23047 8.07617 -6.23047 L 10.8789 -6.23047 L 10.8789 -3.59375 C 10.8789 -3.03711 11.1621 -2.66602 11.6797 -2.66602 Z"/>
  </g>
  <g id="" transform="matrix(1 0 0 1 304.924 1933)">
   <path d="M 14.9707 5.66406 C 21.9336 5.66406 27.6953 -0.0976562 27.6953 -7.05078 C 27.6953 -14.0137 21.9238 -19.7754 14.9609 -19.7754 C 8.00781 -19.7754 2.25586 -14.0137 2.25586 -7.05078 C 2.25586 -0.0976562 8.01758 5.66406 14.9707 5.66406 Z M 14.9707 3.84766 C 8.93555 3.84766 4.08203 -1.01562 4.08203 -7.05078 C 4.08203 -13.0957 8.92578 -17.9492 14.9609 -17.9492 C 21.0059 -17.9492 25.8594 -13.0957 25.8691 -7.05078 C 25.8789 -1.01562 21.0156 3.84766 14.9707 3.84766 Z M 14.9414 -1.38672 C 15.5176 -1.38672 15.8594 -1.77734 15.8594 -2.38281 L 15.8594 -6.13281 L 19.7754 -6.13281 C 20.3711 -6.13281 20.7812 -6.46484 20.7812 -7.02148 C 20.7812 -7.59766 20.3906 -7.93945 19.7754 -7.93945 L 15.8594 -7.93945 L 15.8594 -11.8652 C 15.8594 -12.4805 15.5176 -12.8711 14.9414 -12.8711 C 14.375 -12.8711 14.0527 -12.4609 14.0527 -11.8652 L 14.0527 -7.93945 L 10.1465 -7.93945 C 9.53125 -7.93945 9.13086 -7.59766 9.13086 -7.02148 C 9.13086 -6.46484 9.55078 -6.13281 10.1465 -6.13281 L 14.0527 -6.13281 L 14.0527 -2.38281 C 14.0527 -1.79688 14.375 -1.38672 14.9414 -1.38672 Z"/>
  </g>
  <text style="stroke:none;fill:black;font-family:-apple-system,&quot;SF Pro Display&quot;,&quot;SF Pro Text&quot;,Helvetica,sans-serif;font-weight:bold;" transform="matrix(1 0 0 1 263 1953)">Design Variations</text>
  <text style="stroke:none;fill:black;font-family:-apple-system,&quot;SF Pro Display&quot;,&quot;SF Pro Text&quot;,Helvetica,sans-serif;" transform="matrix(1 0 0 1 263 1971)">Symbols are supported in up to nine weights and three scales.</text>
  <text style="stroke:none;fill:black;font-family:-apple-system,&quot;SF Pro Display&quot;,&quot;SF Pro Text&quot;,Helvetica,sans-serif;" transform="matrix(1 0 0 1 263 1989)">For optimal layout with text and other symbols, vertically align</text>
  <text style="stroke:none;fill:black;font-family:-apple-system,&quot;SF Pro Display&quot;,&quot;SF Pro Text&quot;,Helvetica,sans-serif;" transform="matrix(1 0 0 1 263 2007)">symbols with the adjacent text.</text>
  <line id="" style="fill:none;stroke:#00AEEF;stroke-width:0.5;opacity:1.0;" x1="776" x2="776" y1="1919" y2="1933"/>
  <g id="" transform="matrix(1 0 0 1 776 1933)">
   <path d="M 3.31055 0.126953 C 3.82812 0.126953 4.08203 -0.0683594 4.26758 -0.605469 L 5.52734 -4.0625 L 11.2891 -4.0625 L 12.5488 -0.605469 C 12.7344 -0.0683594 12.9883 0.126953 13.4961 0.126953 C 14.0137 0.126953 14.3457 -0.185547 14.3457 -0.673828 C 14.3457 -0.839844 14.3164 -0.986328 14.2383 -1.20117 L 9.6582 -13.3887 C 9.43359 -13.9941 9.0332 -14.2871 8.4082 -14.2871 C 7.80273 -14.2871 7.39258 -13.9941 7.17773 -13.3984 L 2.59766 -1.19141 C 2.51953 -0.976562 2.49023 -0.830078 2.49023 -0.664062 C 2.49023 -0.175781 2.80273 0.126953 3.31055 0.126953 Z M 6.00586 -5.53711 L 8.37891 -12.1094 L 8.42773 -12.1094 L 10.8008 -5.53711 Z"/>
  </g>
  <line id="" style="fill:none;stroke:#00AEEF;stroke-width:0.5;opacity:1.0;" x1="792.836" x2="792.836" y1="1919" y2="1933"/>
  <text style="stroke:none;fill:black;font-family:-apple-system,&quot;SF Pro Display&quot;,&quot;SF Pro Text&quot;,Helvetica,sans-serif;font-weight:bold;" transform="matrix(1 0 0 1 776 1953)">Margins</text>
  <text style="stroke:none;fill:black;font-family:-apple-system,&quot;SF Pro Display&quot;,&quot;SF Pro Text&quot;,Helvetica,sans-serif;" transform="matrix(1 0 0 1 776 1971)">Leading and trailing margins on the left and right side of each symbol</text>
  <text style="stroke:none;fill:black;font-family:-apple-system,&quot;SF Pro Display&quot;,&quot;SF Pro Text&quot;,Helvetica,sans-serif;" transform="matrix(1 0 0 1 776 1989)">can be adjusted by modifying the x-location of the margin guidelines.</text>
  <text style="stroke:none;fill:black;font-family:-apple-system,&quot;SF Pro Display&quot;,&quot;SF Pro Text&quot;,Helvetica,sans-serif;" transform="matrix(1 0 0 1 776 2007)">Modifications are automatically applied proportionally to all</text>
  <text style="stroke:none;fill:black;font-family:-apple-system,&quot;SF Pro Display&quot;,&quot;SF Pro Text&quot;,Helvetica,sans-serif;" transform="matrix(1 0 0 1 776 2025)">scales and weights.</text>
  <g id="" transform="matrix(1 0 0 1 1289 1933)">
   <path d="M 2.8418 1.86523 L 4.54102 3.57422 C 5.40039 4.44336 6.38672 4.38477 7.31445 3.35938 L 17.4902 -7.85156 C 17.7539 -7.76367 18.0273 -7.7832 18.3398 -7.8418 L 19.4043 -8.03711 L 20.0684 -7.36328 L 20.0293 -6.80664 C 19.9902 -6.30859 20.1172 -5.92773 20.6055 -5.44922 L 21.3672 -4.70703 C 21.8457 -4.22852 22.4609 -4.19922 22.9297 -4.66797 L 25.8398 -7.58789 C 26.3086 -8.05664 26.2891 -8.65234 25.8105 -9.13086 L 25.0391 -9.89258 C 24.5605 -10.3711 24.1895 -10.5273 23.7109 -10.4883 L 23.1348 -10.4395 L 22.4902 -11.0742 L 22.7344 -12.1973 C 22.8613 -12.7637 22.7051 -13.2031 22.1191 -13.7891 L 19.9219 -15.9766 C 16.582 -19.2969 12.1484 -19.2188 9.25781 -16.3281 C 8.83789 -15.918 8.80859 -15.3418 9.04297 -14.9512 C 9.27734 -14.5898 9.73633 -14.3555 10.3809 -14.5215 C 11.8457 -14.8633 13.3691 -14.9219 14.7949 -13.9844 L 14.209 -12.5293 C 14.0137 -12.0508 13.9844 -11.6504 14.1113 -11.2891 L 3.04688 -0.898438 C 2.06055 0.0195312 1.98242 0.996094 2.8418 1.86523 Z M 10.752 -15.957 C 13.1836 -17.7344 16.4746 -17.4316 18.7012 -15.2051 L 21.1328 -12.793 C 21.3672 -12.5586 21.4062 -12.373 21.3379 -12.0312 L 21.0156 -10.5469 L 22.5195 -9.0625 L 23.5059 -9.12109 C 23.7598 -9.13086 23.8379 -9.11133 24.0332 -8.91602 L 24.6094 -8.33984 L 22.168 -5.89844 L 21.5918 -6.47461 C 21.3965 -6.66992 21.3672 -6.74805 21.377 -7.01172 L 21.4453 -7.98828 L 19.9512 -9.47266 L 18.4277 -9.21875 C 18.1055 -9.15039 17.959 -9.17969 17.7148 -9.41406 L 15.7129 -11.416 C 15.459 -11.6504 15.4297 -11.8164 15.5859 -12.1875 L 16.4648 -14.2773 C 14.9023 -15.7324 12.8711 -16.3574 10.8398 -15.7617 C 10.6836 -15.7227 10.625 -15.8496 10.752 -15.957 Z M 5.27344 2.30469 L 4.10156 1.14258 C 3.63281 0.683594 3.74023 0.341797 4.14062 -0.0195312 L 14.9512 -10.1953 L 16.416 -8.71094 L 6.42578 2.27539 C 6.07422 2.67578 5.74219 2.77344 5.27344 2.30469 Z"/>
  </g>
  <text style="stroke:none;fill:black;font-family:-apple-system,&quot;SF Pro Display&quot;,&quot;SF Pro Text&quot;,Helvetica,sans-serif;font-weight:bold;" transform="matrix(1 0 0 1 1289 1953)">Exporting</text>
  <text style="stroke:none;fill:black;font-family:-apple-system,&quot;SF Pro Display&quot;,&quot;SF Pro Text&quot;,Helvetica,sans-serif;" transform="matrix(1 0 0 1 1289 1971)">Symbols should be outlined when exporting to ensure the</text>
  <text style="stroke:none;fill:black;font-family:-apple-system,&quot;SF Pro Display&quot;,&quot;SF Pro Text&quot;,Helvetica,sans-serif;" transform="matrix(1 0 0 1 1289 1989)">design is preserved when submitting to Xcode.</text>
  <text id="template-version" style="stroke:none;fill:black;font-family:-apple-system,&quot;SF Pro Display&quot;,&quot;SF Pro Text&quot;,Helvetica,sans-serif;text-anchor:end;" transform="matrix(1 0 0 1 3036 1933)">Template v.2.0</text>
  <text style="stroke:none;fill:black;font-family:-apple-system,&quot;SF Pro Display&quot;,&quot;SF Pro Text&quot;,Helvetica,sans-serif;text-anchor:end;" transform="matrix(1 0 0 1 3036 1951)">Requires Xcode 12 or greater</text>
  <text style="stroke:none;fill:black;font-family:-apple-system,&quot;SF Pro Display&quot;,&quot;SF Pro Text&quot;,Helvetica,sans-serif;text-anchor:end;" transform="matrix(1 0 0 1 3036 1969)">Generated from ant.circle.fill</text>
  <text style="stroke:none;fill:black;font-family:-apple-system,&quot;SF Pro Display&quot;,&quot;SF Pro Text&quot;,Helvetica,sans-serif;text-anchor:end;" transform="matrix(1 0 0 1 3036 1987)">Typeset at 100 points</text>
  <text style="stroke:none;fill:black;font-family:-apple-system,&quot;SF Pro Display&quot;,&quot;SF Pro Text&quot;,Helvetica,sans-serif;" transform="matrix(1 0 0 1 263 726)">Small</text>
  <text style="stroke:none;fill:black;font-family:-apple-system,&quot;SF Pro Display&quot;,&quot;SF Pro Text&quot;,Helvetica,sans-serif;" transform="matrix(1 0 0 1 263 1156)">Medium</text>
  <text style="stroke:none;fill:black;font-family:-apple-system,&quot;SF Pro Display&quot;,&quot;SF Pro Text&quot;,Helvetica,sans-serif;" transform="matrix(1 0 0 1 263 1586)">Large</text>
 </g>
 <g id="Guides">
  <g id="H-reference" style="fill:#27AAE1;stroke:none;" transform="matrix(1 0 0 1 339 696)">
   <path d="M 0.976562 0 L 3.66211 0 L 12.9883 -24.4629 L 45.7031 -24.4629 L 55.0781 0 L 57.7148 0 L 30.6152 -70.459 L 28.125 -70.459 Z M 29.2969 -67.1387 L 29.3945 -67.1387 L 44.873 -26.709 L 13.8672 -26.709 Z"/>
  </g>
  <line id="Baseline-S" style="fill:none;stroke:#27AAE1;opacity:1;stroke-width:0.5;" x1="263" x2="3036" y1="696" y2="696"/>
  <line id="Capline-S" style="fill:none;stroke:#27AAE1;opacity:1;stroke-width:0.5;" x1="263" x2="3036" y1="625.541" y2="625.541"/>
  <g id="H-reference" style="fill:#27AAE1;stroke:none;" transform="matrix(1 0 0 1 339 1126)">
   <path d="M 0.976562 0 L 3.66211 0 L 12.9883 -24.4629 L 45.7031 -24.4629 L 55.0781 0 L 57.7148 0 L 30.6152 -70.459 L 28.125 -70.459 Z M 29.2969 -67.1387 L 29.3945 -67.1387 L 44.873 -26.709 L 13.8672 -26.709 Z"/>
  </g>
  <line id="Baseline-M" style="fill:none;stroke:#27AAE1;opacity:1;stroke-width:0.5;" x1="263" x2="3036" y1="1126" y2="1126"/>
  <line id="Capline-M" style="fill:none;stroke:#27AAE1;opacity:1;stroke-width:0.5;" x1="263" x2="3036" y1="1055.54" y2="1055.54"/>
  <g id="H-reference" style="fill:#27AAE1;stroke:none;" transform="matrix(1 0 0 1 339 1556)">
   <path d="M 0.976562 0 L 3.66211 0 L 12.9883 -24.4629 L 45.7031 -24.4629 L 55.0781 0 L 57.7148 0 L 30.6152 -70.459 L 28.125 -70.459 Z M 29.2969 -67.1387 L 29.3945 -67.1387 L 44.873 -26.709 L 13.8672 -26.709 Z"/>
  </g>
  <line id="Baseline-L" style="fill:none;stroke:#27AAE1;opacity:1;stroke-width:0.5;" x1="263" x2="3036" y1="1556" y2="1556"/>
  <line id="Capline-L" style="fill:none;stroke:#27AAE1;opacity:1;stroke-width:0.5;" x1="263" x2="3036" y1="1485.54" y2="1485.54"/>
  <line id="left-margin" style="fill:none;stroke:#00AEEF;stroke-width:0.5;opacity:1.0;" x1="1391.3" x2="1391.3" y1="1030.79" y2="1150.12"/>
  <line id="right-margin" style="fill:none;stroke:#00AEEF;stroke-width:0.5;opacity:1.0;" x1="1508.39" x2="1508.39" y1="1030.79" y2="1150.12"/>
 </g>
 <g id="Symbols">
  <g id="Black-L" transform="matrix(1 0 0 1 2854.05 1556)">
   <path d="M 79.3457 32.9102 C 116.748 32.9102 147.412 2.29492 147.412 -35.1074 C 147.412 -72.5586 116.748 -103.174 79.2969 -103.174 C 41.8945 -103.174 11.2793 -72.5586 11.2793 -35.1074 C 11.2793 2.29492 41.9434 32.9102 79.3457 32.9102 Z M 49.8535 -16.2598 C 49.0723 -21.1914 50.9766 -24.0234 56.4453 -25.2441 L 71.3379 -28.5156 C 70.459 -28.8574 69.4824 -29.7363 68.9941 -30.9082 L 58.3496 -31.9336 C 53.125 -32.4219 50.6348 -35.7422 50.6348 -41.1621 L 50.6348 -51.8555 C 50.6348 -54.1992 52.0996 -55.6641 54.4922 -55.6641 C 56.8848 -55.6641 58.2031 -54.1992 58.2031 -51.8555 L 58.2031 -42.7246 C 58.2031 -39.7949 59.8633 -38.916 62.4023 -38.7207 L 68.4082 -38.1348 C 68.6523 -39.1113 69.3848 -40.2344 70.166 -40.7227 C 64.3066 -41.748 61.4746 -45.3125 61.4746 -50.4883 C 61.4746 -53.9551 62.4023 -57.1777 64.1602 -59.8633 L 63.4277 -60.4492 C 59.4727 -63.1836 58.6914 -67.041 61.1816 -71.7285 L 62.7441 -74.7559 C 63.5742 -76.416 64.5996 -77.0996 66.1133 -77.0996 C 67.9688 -77.0996 69.4336 -75.7324 69.4336 -73.9258 C 69.4336 -73.0469 69.3359 -72.5586 68.8477 -71.7773 L 67.6758 -69.6289 C 66.7969 -68.0176 66.8457 -66.3574 67.9199 -65.5273 L 68.7988 -64.9414 C 71.7773 -67.0898 75.5371 -68.4082 79.3457 -68.4082 C 83.1543 -68.4082 86.8652 -67.0898 89.8926 -64.9414 L 90.7227 -65.5273 C 91.8457 -66.3574 91.8945 -68.0176 91.0156 -69.6289 L 89.8438 -71.7773 C 89.3066 -72.5586 89.2578 -73.0469 89.2578 -73.9258 C 89.2578 -75.7324 90.6738 -77.0996 92.5781 -77.0996 C 94.043 -77.0996 95.0684 -76.3672 95.9473 -74.7559 L 97.4609 -71.7285 C 100 -67.0898 99.2188 -63.1836 95.2637 -60.4492 L 94.4824 -59.8633 C 96.2891 -57.1777 97.2168 -53.9551 97.2168 -50.4883 C 97.2168 -45.3125 94.3359 -41.748 88.4766 -40.7227 C 89.2578 -40.2344 89.9902 -39.1113 90.2832 -38.1348 L 96.2402 -38.7207 C 98.8281 -38.916 100.439 -39.7949 100.439 -42.7246 L 100.439 -51.8555 C 100.439 -54.1992 101.758 -55.6641 104.15 -55.6641 C 106.543 -55.6641 108.057 -54.1992 108.057 -51.8555 L 108.057 -41.1621 C 108.057 -35.7422 105.566 -32.4219 100.293 -31.9336 L 89.6484 -30.9082 C 89.1602 -29.7363 88.1836 -28.8574 87.3047 -28.5156 L 102.197 -25.2441 C 107.666 -23.9746 109.619 -21.1914 108.838 -16.2598 L 106.348 -0.146484 C 105.957 2.29492 104.834 3.80859 102.393 3.80859 C 100.098 3.80859 98.291 2.09961 98.6816 -0.78125 L 100.83 -14.7949 C 101.123 -16.5527 100.635 -17.5781 98.9258 -18.2617 C 98.4375 -18.457 97.9492 -18.5547 97.5098 -18.7012 C 97.6562 -18.0664 97.6562 -17.334 97.6562 -16.6992 C 97.6562 -5.51758 89.2578 5.0293 79.3457 5.0293 C 69.4336 5.0293 60.9863 -5.51758 60.9863 -16.6992 C 60.9863 -17.334 61.0352 -18.0664 61.1328 -18.7012 C 60.6934 -18.5547 60.2539 -18.457 59.7168 -18.2617 C 58.0566 -17.5781 57.5195 -16.5527 57.8613 -14.7949 L 59.9609 -0.78125 C 60.3516 2.09961 58.5449 3.80859 56.25 3.80859 C 53.8574 3.80859 52.6855 2.29492 52.3438 -0.146484 Z"/>
  </g>
  <g id="Heavy-L" transform="matrix(1 0 0 1 2558.39 1556)">
   <path d="M 78.2715 31.8848 C 115.088 31.8848 145.312 1.66016 145.312 -35.1562 C 145.312 -71.9238 115.039 -102.148 78.2715 -102.148 C 41.4551 -102.148 11.2793 -71.9238 11.2793 -35.1562 C 11.2793 1.66016 41.5039 31.8848 78.2715 31.8848 Z M 49.0234 -16.748 C 48.291 -21.4844 50.1953 -24.1699 55.4199 -25.3906 L 70.166 -28.6621 C 69.1895 -29.1016 68.2129 -30.127 67.6758 -31.4941 L 57.373 -32.6172 C 52.2949 -33.1055 49.9023 -36.2305 49.9023 -41.3574 L 49.9023 -52.3438 C 49.9023 -54.541 51.2695 -55.8594 53.5156 -55.8594 C 55.7129 -55.8594 56.9336 -54.541 56.9336 -52.3438 L 56.9336 -42.8223 C 56.9336 -39.9902 58.4473 -39.1113 60.9375 -38.916 L 67.2852 -38.1836 C 67.5293 -39.209 68.2617 -40.332 69.043 -40.8691 C 63.2324 -41.8945 60.3516 -45.459 60.3516 -50.6836 C 60.3516 -54.3457 61.4746 -57.8613 63.5254 -60.6445 L 62.8906 -61.1328 C 59.082 -63.8184 58.3496 -67.5781 60.8398 -72.0703 L 62.5488 -75.293 C 63.3789 -76.8066 64.3066 -77.4414 65.7227 -77.4414 C 67.4805 -77.4414 68.8477 -76.1719 68.8477 -74.4629 C 68.8477 -73.6816 68.75 -73.1934 68.2617 -72.4609 L 66.8457 -70.0195 C 65.918 -68.3594 65.8691 -66.7969 66.9922 -65.918 L 67.8711 -65.332 C 70.8496 -67.4316 74.5605 -68.6523 78.2715 -68.6523 C 81.9824 -68.6523 85.6934 -67.4316 88.6719 -65.332 L 89.5508 -65.918 C 90.6738 -66.7969 90.6738 -68.3594 89.6973 -70.0195 L 88.2812 -72.4609 C 87.793 -73.1934 87.7441 -73.6816 87.7441 -74.4629 C 87.7441 -76.1719 89.0625 -77.4414 90.8203 -77.4414 C 92.2363 -77.4414 93.1641 -76.8066 93.9941 -75.293 L 95.752 -72.0703 C 98.2422 -67.627 97.4609 -63.8184 93.6523 -61.1328 L 93.0664 -60.6445 C 95.0684 -57.8613 96.1914 -54.3457 96.1914 -50.6836 C 96.1914 -45.459 93.3105 -41.8457 87.5 -40.8691 C 88.2812 -40.2832 89.0137 -39.209 89.2578 -38.1836 L 95.6055 -38.916 C 98.0957 -39.1602 99.6094 -39.9902 99.6094 -42.8223 L 99.6094 -52.3438 C 99.6094 -54.541 100.83 -55.8594 103.027 -55.8594 C 105.273 -55.8594 106.641 -54.541 106.641 -52.3438 L 106.641 -41.3574 C 106.641 -36.2305 104.248 -33.1055 99.1699 -32.6172 L 88.8672 -31.4941 C 88.3789 -30.127 87.3535 -29.1016 86.377 -28.6621 L 101.123 -25.3906 C 106.396 -24.1699 108.252 -21.4844 107.52 -16.748 L 104.932 -0.146484 C 104.59 2.09961 103.516 3.51562 101.318 3.51562 C 99.1699 3.51562 97.5098 1.95312 97.8516 -0.683594 L 100.098 -15.4297 C 100.439 -17.2363 99.9023 -18.2617 98.0469 -18.9453 C 97.4609 -19.1406 96.875 -19.2871 96.3379 -19.4336 C 96.5332 -18.6523 96.6309 -17.7246 96.6309 -16.7969 C 96.6309 -5.56641 88.1836 5.0293 78.2715 5.0293 C 68.3594 5.0293 59.9121 -5.56641 59.9121 -16.7969 C 59.9121 -17.7246 60.0098 -18.6523 60.2539 -19.4336 C 59.668 -19.2871 59.1309 -19.1406 58.4961 -18.9453 C 56.6406 -18.2617 56.1035 -17.2363 56.4453 -15.4297 L 58.6914 -0.683594 C 59.0332 1.95312 57.373 3.51562 55.2246 3.51562 C 53.0273 3.51562 51.9531 2.09961 51.6113 -0.146484 Z"/>
  </g>
  <g id="Bold-L" transform="matrix(1 0 0 1 2262.88 1556)">
   <path d="M 77.0996 30.6641 C 113.232 30.6641 142.92 0.927734 142.92 -35.1562 C 142.92 -71.2891 113.184 -100.977 77.0508 -100.977 C 40.9668 -100.977 11.2793 -71.2891 11.2793 -35.1562 C 11.2793 0.927734 41.0156 30.6641 77.0996 30.6641 Z M 48.1445 -17.2363 C 47.4121 -21.7773 49.2676 -24.3652 54.248 -25.5371 L 68.8965 -28.8574 C 67.8223 -29.3457 66.6992 -30.5664 66.2109 -32.1777 L 56.2012 -33.3496 C 51.3672 -33.8867 49.1211 -36.7676 49.1211 -41.6016 L 49.1211 -52.9297 C 49.1211 -54.9316 50.3418 -56.1035 52.3926 -56.1035 C 54.3457 -56.1035 55.4688 -54.8828 55.4688 -52.9297 L 55.4688 -42.8711 C 55.4688 -40.2344 56.9336 -39.3555 59.3262 -39.1113 L 66.0156 -38.2812 C 66.3086 -39.3555 66.9922 -40.4297 67.7246 -40.9668 C 61.9629 -42.041 59.1309 -45.6055 59.1309 -50.8301 C 59.1309 -54.834 60.4004 -58.5938 62.7441 -61.5234 L 62.3047 -61.9141 C 58.6426 -64.502 58.0078 -68.2129 60.4004 -72.4609 L 62.3535 -75.8789 C 63.0859 -77.2461 64.0137 -77.832 65.2832 -77.832 C 66.9434 -77.832 68.1641 -76.6602 68.1641 -75.0977 C 68.1641 -74.3652 68.0664 -73.9258 67.627 -73.1934 L 65.8691 -70.459 C 64.8926 -68.7988 64.7461 -67.2852 66.0156 -66.3574 L 66.8457 -65.7227 C 69.8242 -67.7734 73.5352 -68.9453 77.0996 -68.9453 C 80.6641 -68.9453 84.3262 -67.7734 87.3535 -65.7227 L 88.1836 -66.3574 C 89.4043 -67.2852 89.3066 -68.7988 88.2812 -70.459 L 86.5723 -73.1934 C 86.1328 -73.9258 86.0352 -74.3652 86.0352 -75.0977 C 86.0352 -76.6602 87.2559 -77.832 88.8672 -77.832 C 90.1855 -77.832 91.0156 -77.2461 91.7969 -75.8789 L 93.75 -72.4609 C 96.2402 -68.2129 95.5566 -64.502 91.8457 -61.9141 L 91.4062 -61.5234 C 93.75 -58.5938 95.0684 -54.834 95.0684 -50.8301 C 95.0684 -45.6055 92.1875 -41.9922 86.4258 -40.9668 C 87.1582 -40.3809 87.8906 -39.3555 88.1836 -38.2812 L 94.8242 -39.1113 C 97.2656 -39.4043 98.6816 -40.2344 98.6816 -42.8711 L 98.6816 -52.9297 C 98.6816 -54.8828 99.8047 -56.1035 101.807 -56.1035 C 103.857 -56.1035 105.078 -54.8828 105.078 -52.9297 L 105.078 -41.6016 C 105.078 -36.7676 102.832 -33.8867 97.9492 -33.3496 L 87.9395 -32.1777 C 87.4512 -30.5664 86.377 -29.3457 85.3027 -28.8574 L 99.9512 -25.5371 C 104.932 -24.3164 106.787 -21.7773 106.055 -17.2363 L 103.369 -0.0976562 C 103.076 1.95312 102.1 3.22266 100.098 3.22266 C 98.1445 3.22266 96.582 1.75781 96.9727 -0.634766 L 99.3164 -16.0645 C 99.6582 -18.0176 99.0723 -19.043 97.0703 -19.6777 C 96.3379 -19.9219 95.6543 -20.0684 94.9707 -20.2637 C 95.3613 -19.2871 95.5078 -18.1152 95.5078 -16.8945 C 95.5078 -5.61523 86.9629 4.98047 77.0996 4.98047 C 67.1875 4.98047 58.6914 -5.61523 58.6914 -16.8945 C 58.6914 -18.1152 58.8379 -19.2871 59.1797 -20.2637 C 58.4961 -20.0684 57.8125 -19.9219 57.1289 -19.6777 C 55.127 -19.043 54.4922 -18.0176 54.834 -16.0645 L 57.2266 -0.634766 C 57.5195 1.75781 56.0547 3.22266 54.1016 3.22266 C 52.0996 3.22266 51.123 1.95312 50.7812 -0.0976562 Z"/>
  </g>
  <g id="Semibold-L" transform="matrix(1 0 0 1 1966.97 1556)">
   <path d="M 76.2695 29.834 C 111.914 29.834 141.309 0.439453 141.309 -35.1562 C 141.309 -70.8008 111.865 -100.195 76.2695 -100.195 C 40.625 -100.195 11.2793 -70.8008 11.2793 -35.1562 C 11.2793 0.439453 40.6738 29.834 76.2695 29.834 Z M 47.5098 -17.5781 C 46.8262 -22.0215 48.6328 -24.5117 53.418 -25.6348 L 67.9688 -28.9551 C 66.8457 -29.541 65.7227 -30.8594 65.1855 -32.6172 L 55.4199 -33.8379 C 50.7324 -34.4727 48.584 -37.1094 48.584 -41.7969 L 48.584 -53.2715 C 48.584 -55.1758 49.707 -56.25 51.6113 -56.25 C 53.418 -56.25 54.4922 -55.127 54.4922 -53.2715 L 54.4922 -42.9199 C 54.4922 -40.3809 55.8594 -39.502 58.2031 -39.2578 L 65.1367 -38.3301 C 65.4297 -39.4531 66.1133 -40.4785 66.8457 -41.0645 C 61.1328 -42.1387 58.252 -45.752 58.252 -50.9766 C 58.252 -55.1758 59.7168 -59.082 62.2559 -62.1582 L 61.9141 -62.4512 C 58.3496 -65.0391 57.7637 -68.6035 60.1074 -72.7539 L 62.2559 -76.2695 C 62.9395 -77.5879 63.7695 -78.125 64.9902 -78.125 C 66.5527 -78.125 67.6758 -77.002 67.6758 -75.5371 C 67.6758 -74.8535 67.5781 -74.3652 67.1875 -73.7305 L 65.2344 -70.752 C 64.209 -69.0918 64.0137 -67.627 65.2832 -66.6504 L 66.1133 -66.0156 C 69.0918 -67.9688 72.8027 -69.1406 76.2695 -69.1406 C 79.7363 -69.1406 83.4473 -67.9688 86.4258 -66.0156 L 87.2559 -66.6504 C 88.5254 -67.627 88.3301 -69.0918 87.3047 -70.752 L 85.3516 -73.7305 C 84.9609 -74.3652 84.8633 -74.8535 84.8633 -75.5371 C 84.8633 -77.002 85.9863 -78.125 87.5488 -78.125 C 88.7695 -78.125 89.5508 -77.5391 90.2832 -76.2695 L 92.4316 -72.7539 C 94.873 -68.6523 94.1895 -65.0391 90.625 -62.4512 L 90.2832 -62.1582 C 92.8223 -59.082 94.2871 -55.1758 94.2871 -50.9766 C 94.2871 -45.7031 91.4062 -42.1387 85.6934 -41.0645 C 86.4258 -40.4785 87.1094 -39.4043 87.4023 -38.3301 L 94.3359 -39.2578 C 96.6797 -39.5508 98.0469 -40.3809 98.0469 -42.9199 L 98.0469 -53.2715 C 98.0469 -55.127 99.1211 -56.25 100.928 -56.25 C 102.832 -56.25 104.004 -55.127 104.004 -53.2715 L 104.004 -41.7969 C 104.004 -37.1094 101.807 -34.4727 97.1191 -33.8379 L 87.3535 -32.6172 C 86.8164 -30.8594 85.6934 -29.4922 84.5703 -28.9551 L 99.1211 -25.6348 C 103.955 -24.4629 105.713 -22.0215 105.029 -17.5781 L 102.295 -0.0976562 C 102.002 1.80664 101.074 3.02734 99.2188 3.02734 C 97.4121 3.02734 95.9961 1.61133 96.3379 -0.585938 L 98.7793 -16.5527 C 99.1211 -18.5547 98.4863 -19.5801 96.3867 -20.2148 C 95.6055 -20.459 94.8242 -20.6055 94.043 -20.8496 C 94.5312 -19.7266 94.7266 -18.4082 94.7266 -16.9434 C 94.7266 -5.61523 86.1816 4.98047 76.2695 4.98047 C 66.4062 4.98047 57.8125 -5.61523 57.8125 -16.9434 C 57.8125 -18.4082 58.0078 -19.7266 58.4961 -20.8496 C 57.7148 -20.6055 56.9336 -20.459 56.1523 -20.2148 C 54.0527 -19.5801 53.418 -18.5547 53.7598 -16.5527 L 56.2012 -0.585938 C 56.4941 1.61133 55.127 3.02734 53.3203 3.02734 C 51.4648 3.02734 50.5371 1.80664 50.2441 -0.0976562 Z"/>
  </g>
  <g id="Medium-L" transform="matrix(1 0 0 1 1670.87 1556)">
   <path d="M 75.6836 29.1992 C 110.938 29.1992 140.088 0.0976562 140.088 -35.1562 C 140.088 -70.459 110.889 -99.5605 75.6348 -99.5605 C 40.3809 -99.5605 11.2793 -70.459 11.2793 -35.1562 C 11.2793 0.0976562 40.3809 29.1992 75.6836 29.1992 Z M 47.0703 -17.8711 C 46.3867 -22.168 48.1445 -24.6094 52.832 -25.7324 L 67.2852 -29.0527 C 66.1133 -29.6875 64.9414 -31.1035 64.4531 -32.959 L 54.834 -34.2285 C 50.2441 -34.8633 48.1445 -37.4023 48.1445 -41.9434 L 48.1445 -53.5645 C 48.1445 -55.3711 49.2188 -56.3965 51.0254 -56.3965 C 52.7344 -56.3965 53.7598 -55.3223 53.7598 -53.5645 L 53.7598 -42.9688 C 53.7598 -40.4785 55.0293 -39.6484 57.373 -39.4043 L 64.4531 -38.3789 C 64.7949 -39.502 65.4785 -40.5273 66.1621 -41.1133 C 60.498 -42.2363 57.6172 -45.8008 57.6172 -51.0742 C 57.6172 -55.4199 59.1797 -59.4727 61.8652 -62.5977 L 61.6211 -62.8418 C 58.1055 -65.3809 57.5684 -68.9453 59.9121 -72.9492 L 62.1582 -76.5625 C 62.793 -77.7832 63.623 -78.3203 64.7949 -78.3203 C 66.2598 -78.3203 67.334 -77.2461 67.334 -75.8301 C 67.334 -75.1953 67.2363 -74.7559 66.8457 -74.1211 L 64.7461 -70.9961 C 63.7207 -69.3359 63.4766 -67.8711 64.7461 -66.8457 L 65.5762 -66.2109 C 68.5547 -68.1641 72.2656 -69.2871 75.6348 -69.2871 C 79.0527 -69.2871 82.7148 -68.1641 85.7422 -66.2109 L 86.5234 -66.8457 C 87.8418 -67.8711 87.6465 -69.3359 86.5723 -70.9961 L 84.4727 -74.1211 C 84.082 -74.7559 83.9844 -75.1953 83.9844 -75.8301 C 83.9844 -77.2949 85.0586 -78.3203 86.5234 -78.3203 C 87.6953 -78.3203 88.4766 -77.7832 89.1602 -76.5625 L 91.4062 -72.9492 C 93.7988 -68.9941 93.1641 -65.3809 89.6973 -62.8418 L 89.4531 -62.5977 C 92.1387 -59.4727 93.7012 -55.4199 93.7012 -51.0742 C 93.7012 -45.752 90.7715 -42.1875 85.1562 -41.1133 C 85.8398 -40.5273 86.5234 -39.502 86.8164 -38.3789 L 93.9453 -39.4043 C 96.2402 -39.6973 97.5586 -40.4785 97.5586 -42.9688 L 97.5586 -53.5645 C 97.5586 -55.3223 98.584 -56.3965 100.293 -56.3965 C 102.1 -56.3965 103.174 -55.3223 103.174 -53.5645 L 103.174 -41.9434 C 103.174 -37.4023 101.074 -34.8633 96.4355 -34.2285 L 86.8652 -32.959 C 86.377 -31.1035 85.1562 -29.6387 84.0332 -29.0527 L 98.4863 -25.7324 C 103.174 -24.5605 104.932 -22.168 104.248 -17.8711 L 101.465 -0.0976562 C 101.172 1.70898 100.342 2.83203 98.584 2.83203 C 96.875 2.83203 95.5566 1.51367 95.8496 -0.537109 L 98.3887 -16.8945 C 98.7305 -18.9941 98.0469 -19.9707 95.8496 -20.6055 C 95.0195 -20.8496 94.1895 -21.0449 93.3594 -21.2891 C 93.8965 -20.0684 94.0918 -18.6523 94.0918 -16.9922 C 94.0918 -5.66406 85.5469 4.98047 75.6348 4.98047 C 65.7715 4.98047 57.1777 -5.66406 57.1777 -16.9922 C 57.1777 -18.6523 57.4219 -20.0684 57.959 -21.2891 C 57.1289 -21.0449 56.2988 -20.8496 55.4688 -20.6055 C 53.2227 -19.9707 52.5879 -18.9941 52.9297 -16.8945 L 55.4199 -0.537109 C 55.7129 1.51367 54.4434 2.83203 52.6855 2.83203 C 50.9766 2.83203 50.0977 1.70898 49.8535 -0.0976562 Z"/>
  </g>
  <g id="Regular-L" transform="matrix(1 0 0 1 1374.97 1556)">
   <path d="M 74.8535 28.418 C 109.668 28.418 138.477 -0.390625 138.477 -35.2051 C 138.477 -69.9707 109.619 -98.7793 74.8047 -98.7793 C 40.0391 -98.7793 11.2793 -69.9707 11.2793 -35.2051 C 11.2793 -0.390625 40.0879 28.418 74.8535 28.418 Z M 46.4355 -18.2129 C 45.752 -22.3633 47.5098 -24.707 52.002 -25.8301 L 66.4062 -29.1504 C 65.1367 -29.8828 63.916 -31.3965 63.4277 -33.4473 L 54.1016 -34.7656 C 49.6094 -35.4004 47.6074 -37.7441 47.6074 -42.0898 L 47.6074 -53.9551 C 47.6074 -55.6152 48.584 -56.543 50.2441 -56.543 C 51.8066 -56.543 52.7832 -55.5664 52.7832 -53.9551 L 52.7832 -43.0176 C 52.7832 -40.625 54.0039 -39.7949 56.25 -39.502 L 63.623 -38.4766 C 63.916 -39.5996 64.5996 -40.625 65.2832 -41.2109 C 59.6191 -42.334 56.7383 -45.9473 56.7383 -51.2207 C 56.7383 -55.7129 58.4473 -59.9609 61.377 -63.2324 L 61.1816 -63.3789 C 57.8125 -65.8691 57.3242 -69.3359 59.6191 -73.2422 L 62.0117 -76.9531 C 62.6465 -78.125 63.4277 -78.5645 64.502 -78.5645 C 65.8691 -78.5645 66.8945 -77.5879 66.8945 -76.2695 C 66.8945 -75.6836 66.748 -75.2441 66.4062 -74.6094 L 64.1113 -71.3379 C 63.0371 -69.6289 62.6953 -68.2129 64.0625 -67.1387 L 64.8926 -66.5039 C 67.8711 -68.4082 71.5332 -69.4336 74.8535 -69.4336 C 78.125 -69.4336 81.8359 -68.4082 84.8145 -66.5039 L 85.5957 -67.1387 C 86.9629 -68.2129 86.7188 -69.6289 85.5957 -71.3379 L 83.3008 -74.6094 C 82.9102 -75.2441 82.8125 -75.6836 82.8125 -76.2695 C 82.8125 -77.6367 83.7891 -78.5645 85.2051 -78.5645 C 86.2793 -78.5645 87.0117 -78.0762 87.6953 -76.9531 L 90.0879 -73.2422 C 92.4316 -69.3848 91.8457 -65.8691 88.4766 -63.3789 L 88.3301 -63.2324 C 91.2109 -59.9609 92.9199 -55.7129 92.9199 -51.2207 C 92.9199 -45.8496 90.0391 -42.2852 84.4238 -41.2109 C 85.0586 -40.5762 85.7422 -39.5508 86.084 -38.4766 L 93.4082 -39.502 C 95.7031 -39.8438 96.9238 -40.625 96.9238 -43.0176 L 96.9238 -53.9551 C 96.9238 -55.5664 97.9004 -56.543 99.4629 -56.543 C 101.123 -56.543 102.1 -55.5664 102.1 -53.9551 L 102.1 -42.0898 C 102.1 -37.7441 100.098 -35.4004 95.6055 -34.7656 L 86.2793 -33.4473 C 85.7422 -31.3965 84.5215 -29.7852 83.3008 -29.1504 L 97.6562 -25.8301 C 102.197 -24.6582 103.906 -22.3633 103.223 -18.2129 L 100.391 -0.0488281 C 100.146 1.61133 99.3164 2.63672 97.7539 2.63672 C 96.1426 2.63672 94.9219 1.36719 95.2637 -0.488281 L 97.8516 -17.3828 C 98.1934 -19.5312 97.5098 -20.5078 95.166 -21.1426 C 94.2871 -21.3867 93.3594 -21.582 92.4316 -21.8262 C 93.0664 -20.5078 93.3105 -18.8965 93.3105 -17.041 C 93.3105 -5.66406 84.7168 4.98047 74.8535 4.98047 C 64.9414 4.98047 56.3477 -5.66406 56.3477 -17.041 C 56.3477 -18.8965 56.6406 -20.5078 57.2266 -21.8262 C 56.3477 -21.582 55.4199 -21.3867 54.4922 -21.1426 C 52.1973 -20.5078 51.5137 -19.5312 51.8555 -17.3828 L 54.4434 -0.488281 C 54.6875 1.36719 53.5156 2.63672 51.9043 2.63672 C 50.3418 2.63672 49.5605 1.61133 49.2676 -0.0488281 Z"/>
  </g>
  <g id="Light-L" transform="matrix(1 0 0 1 1079.18 1556)">
   <path d="M 73.9258 27.4902 C 108.301 27.4902 136.621 -0.830078 136.621 -35.2051 C 136.621 -69.5312 108.252 -97.8516 73.9258 -97.8516 C 39.5508 -97.8516 11.2793 -69.5312 11.2793 -35.2051 C 11.2793 -0.830078 39.5996 27.4902 73.9258 27.4902 Z M 46.9238 -18.7988 C 46.2402 -22.9004 47.9492 -25.293 52.4414 -26.3672 L 65.4785 -29.3945 C 64.1602 -30.2734 63.0371 -31.9824 62.6465 -34.0332 L 54.3945 -35.2051 C 49.9023 -35.8398 47.9492 -38.0371 47.9492 -42.2852 L 47.9492 -53.6621 C 47.9492 -55.0781 48.7793 -55.8594 50.1953 -55.8594 C 51.5137 -55.8594 52.3438 -55.0293 52.3438 -53.6621 L 52.3438 -42.9688 C 52.3438 -40.5762 53.4668 -39.6484 55.8105 -39.3555 L 62.8906 -38.3301 C 63.2324 -39.4531 63.8184 -40.3809 64.4531 -40.9668 C 59.0332 -42.1875 56.25 -45.6543 56.25 -50.8301 C 56.25 -55.5176 58.0566 -59.9609 61.2793 -63.1836 L 61.1328 -63.3789 C 57.9102 -65.8691 57.5195 -69.043 59.8633 -72.7051 L 62.8906 -76.9531 C 63.3789 -77.9297 64.0625 -78.3203 64.9902 -78.3203 C 66.1621 -78.3203 66.9922 -77.4414 66.9922 -76.3672 C 66.9922 -75.8301 66.8945 -75.3906 66.5527 -74.9023 L 63.5254 -70.8008 C 62.3047 -69.043 62.1094 -67.6758 63.623 -66.5039 L 64.3555 -65.9668 C 67.2363 -67.7734 70.7031 -68.7988 73.9258 -68.7988 C 77.1484 -68.7988 80.6152 -67.7734 83.4961 -65.9668 L 84.2285 -66.5039 C 85.7422 -67.6758 85.5469 -69.043 84.3262 -70.8008 L 81.2988 -74.9023 C 80.957 -75.3906 80.8105 -75.8301 80.8105 -76.3672 C 80.8105 -77.5391 81.6895 -78.3203 82.8613 -78.3203 C 83.7891 -78.3203 84.4238 -77.8809 84.9609 -76.9531 L 87.9883 -72.7051 C 90.4297 -69.0918 89.9414 -65.8691 86.7188 -63.3789 L 86.5723 -63.1836 C 89.7949 -59.9609 91.6016 -55.5176 91.6016 -50.8301 C 91.6016 -45.5566 88.7695 -42.0898 83.3984 -40.918 C 84.0332 -40.332 84.6191 -39.4043 84.9609 -38.3301 L 92.041 -39.3555 C 94.3848 -39.6973 95.5078 -40.5762 95.5078 -42.9688 L 95.5078 -53.6621 C 95.5078 -55.0293 96.3379 -55.8594 97.6562 -55.8594 C 99.1211 -55.8594 99.9023 -55.0293 99.9023 -53.6621 L 99.9023 -42.2852 C 99.9023 -38.0371 97.9492 -35.8398 93.457 -35.2051 L 85.2051 -34.0332 C 84.8145 -31.9336 83.6426 -30.1758 82.373 -29.3945 L 95.4102 -26.3672 C 99.9023 -25.293 101.611 -22.9004 100.928 -18.7988 L 98.1445 -0.830078 C 97.9004 0.537109 97.2168 1.36719 95.8984 1.36719 C 94.5312 1.36719 93.457 0.292969 93.75 -1.2207 L 96.3867 -18.2129 C 96.7285 -20.5566 96.0449 -21.6309 93.7012 -22.2168 C 92.7734 -22.4609 91.748 -22.7539 90.8203 -22.998 C 91.6504 -21.4844 92.041 -19.6289 92.041 -17.4316 C 92.041 -6.29883 83.4961 4.10156 73.9258 4.10156 C 64.3555 4.10156 55.8105 -6.29883 55.8105 -17.4316 C 55.8105 -19.6289 56.2012 -21.4844 57.0312 -22.998 C 56.1035 -22.7539 55.0781 -22.4609 54.1504 -22.2168 C 51.8066 -21.6309 51.123 -20.5566 51.4648 -18.2129 L 54.1016 -1.2207 C 54.3457 0.292969 53.3203 1.36719 51.9531 1.36719 C 50.6348 1.36719 49.9512 0.537109 49.707 -0.830078 Z"/>
  </g>
  <g id="Thin-L" transform="matrix(1 0 0 1 783.693 1556)">
   <path d="M 72.7051 26.2695 C 106.494 26.2695 134.18 -1.41602 134.18 -35.2051 C 134.18 -68.9453 106.494 -96.6309 72.7051 -96.6309 C 38.9648 -96.6309 11.2793 -68.9453 11.2793 -35.2051 C 11.2793 -1.41602 38.9648 26.2695 72.7051 26.2695 Z M 47.5586 -19.5312 C 46.8262 -23.6328 48.584 -26.0742 53.0273 -27.0996 L 64.2578 -29.7363 C 62.8418 -30.8594 61.8652 -32.7148 61.6211 -34.9121 L 54.834 -35.8398 C 50.2441 -36.4746 48.3887 -38.3789 48.3887 -42.5293 L 48.3887 -53.2227 C 48.3887 -54.3457 49.0723 -54.9805 50.1465 -54.9805 C 51.1719 -54.9805 51.8066 -54.2969 51.8066 -53.2227 L 51.8066 -42.8711 C 51.8066 -40.5273 52.7344 -39.502 55.2734 -39.1602 L 61.9629 -38.1836 C 62.2559 -39.2578 62.793 -40.0879 63.3301 -40.6738 C 58.3008 -41.9434 55.5176 -45.3125 55.5176 -50.3418 C 55.5176 -55.2246 57.5684 -59.9121 61.1816 -63.1836 L 60.9863 -63.3301 C 57.959 -65.8203 57.7148 -68.6523 60.2539 -72.0215 L 64.0625 -77.002 C 64.4043 -77.6367 64.9414 -77.9785 65.625 -77.9785 C 66.5039 -77.9785 67.1875 -77.2949 67.1875 -76.5137 C 67.1875 -76.0742 67.041 -75.6348 66.6992 -75.2441 L 62.6953 -70.1172 C 61.377 -68.2617 61.2793 -66.9922 63.0371 -65.7227 L 63.6719 -65.2832 C 66.4062 -66.9434 69.6289 -67.9199 72.7051 -67.9199 C 75.7812 -67.9199 79.0039 -66.9434 81.7871 -65.2832 L 82.373 -65.7227 C 84.1309 -66.9922 84.0332 -68.2617 82.7148 -70.1172 L 78.7109 -75.2441 C 78.3691 -75.6348 78.2227 -76.0742 78.2227 -76.5137 C 78.2227 -77.3926 78.9062 -77.9785 79.7852 -77.9785 C 80.5176 -77.9785 81.0059 -77.6367 81.3965 -77.002 L 85.2051 -72.0215 C 87.7441 -68.6523 87.4512 -65.8203 84.4238 -63.3301 L 84.2773 -63.1836 C 87.8418 -59.9121 89.8926 -55.2246 89.8926 -50.3418 C 89.8926 -45.166 87.0605 -41.7969 82.0801 -40.5762 C 82.666 -40.0391 83.1543 -39.209 83.4961 -38.1836 L 90.1855 -39.1602 C 92.7246 -39.502 93.6523 -40.5273 93.6523 -42.8711 L 93.6523 -53.2227 C 93.6523 -54.2969 94.2383 -54.9805 95.3125 -54.9805 C 96.4355 -54.9805 97.0215 -54.2969 97.0215 -53.2227 L 97.0215 -42.5293 C 97.0215 -38.3789 95.166 -36.4746 90.5762 -35.8398 L 83.7891 -34.9121 C 83.5938 -32.666 82.5195 -30.7129 81.1523 -29.7363 L 92.3828 -27.0996 C 96.8262 -26.0742 98.5352 -23.6328 97.9004 -19.5312 L 95.1172 -1.85547 C 94.9707 -0.830078 94.3848 -0.244141 93.4082 -0.244141 C 92.334 -0.244141 91.5527 -1.12305 91.748 -2.19727 L 94.4336 -19.2871 C 94.8242 -21.875 94.1406 -23.1445 91.7969 -23.6816 C 90.7715 -23.9258 89.6484 -24.2676 88.623 -24.5117 C 89.7949 -22.7051 90.2832 -20.5566 90.2832 -17.9199 C 90.2832 -7.12891 81.8848 2.97852 72.7051 2.97852 C 63.5254 2.97852 55.127 -7.12891 55.127 -17.9199 C 55.127 -20.5566 55.6641 -22.7051 56.7871 -24.5117 C 55.7617 -24.2676 54.6387 -23.9258 53.6133 -23.6816 C 51.2695 -23.1445 50.5859 -21.875 50.9766 -19.2871 L 53.6621 -2.19727 C 53.8574 -1.12305 53.0762 -0.244141 52.0508 -0.244141 C 51.0742 -0.244141 50.4395 -0.830078 50.293 -1.85547 Z"/>
  </g>
  <g id="Ultralight-L" transform="matrix(1 0 0 1 487.616 1556)">
   <path d="M 72.1191 25.6348 C 105.566 25.6348 132.91 -1.70898 132.91 -35.2051 C 132.91 -68.6523 105.566 -95.9961 72.1191 -95.9961 C 38.623 -95.9961 11.2793 -68.6523 11.2793 -35.2051 C 11.2793 -1.70898 38.623 25.6348 72.1191 25.6348 Z M 47.8516 -19.9219 C 47.1191 -24.0234 48.877 -26.4648 53.3203 -27.4902 L 63.623 -29.8828 C 62.1582 -31.1523 61.2305 -33.1055 61.1328 -35.3027 L 55.0293 -36.1328 C 50.4395 -36.7676 48.6328 -38.5742 48.6328 -42.627 L 48.6328 -53.0273 C 48.6328 -54.0039 49.2188 -54.4922 50.0977 -54.4922 C 50.9766 -54.4922 51.5137 -53.9062 51.5137 -53.0273 L 51.5137 -42.8223 C 51.5137 -40.4785 52.3438 -39.4043 54.9316 -39.0625 L 61.4746 -38.1348 C 61.7676 -39.1602 62.2559 -39.9414 62.793 -40.4785 C 57.8613 -41.7969 55.1758 -45.166 55.1758 -50.0977 C 55.1758 -55.0781 57.3242 -59.8633 61.084 -63.1836 L 60.9375 -63.3301 C 58.0078 -65.8203 57.8125 -68.457 60.4004 -71.6797 L 64.6484 -77.002 C 64.9414 -77.4902 65.3809 -77.832 65.9668 -77.832 C 66.6992 -77.832 67.2852 -77.1973 67.2852 -76.5625 C 67.2852 -76.1719 67.1387 -75.7812 66.7969 -75.3906 L 62.3047 -69.7754 C 60.8887 -67.8711 60.8398 -66.6016 62.7441 -65.332 L 63.2812 -64.9414 C 66.0156 -66.5039 69.043 -67.4805 72.0703 -67.4805 C 75.0977 -67.4805 78.1738 -66.5039 80.9082 -64.9414 L 81.4453 -65.332 C 83.3496 -66.6016 83.252 -67.8711 81.8848 -69.7754 L 77.3926 -75.3906 C 77.0508 -75.7812 76.9043 -76.1719 76.9043 -76.5625 C 76.9043 -77.2949 77.4902 -77.832 78.2227 -77.832 C 78.8086 -77.832 79.248 -77.4902 79.541 -77.002 L 83.7891 -71.6797 C 86.377 -68.457 86.1816 -65.8203 83.252 -63.3301 L 83.0566 -63.1836 C 86.8652 -59.8633 89.0137 -55.0781 89.0137 -50.0977 C 89.0137 -44.9707 86.2305 -41.6504 81.3965 -40.4297 C 81.9336 -39.8438 82.373 -39.0625 82.7148 -38.1348 L 89.209 -39.0625 C 91.8457 -39.4043 92.6758 -40.4785 92.6758 -42.8223 L 92.6758 -53.0273 C 92.6758 -53.9062 93.1641 -54.4922 94.0918 -54.4922 C 95.0684 -54.4922 95.5566 -53.9062 95.5566 -53.0273 L 95.5566 -42.627 C 95.5566 -38.5742 93.75 -36.7676 89.1113 -36.1328 L 83.0566 -35.3027 C 82.959 -33.0566 81.9336 -30.957 80.5176 -29.8828 L 90.8691 -27.4902 C 95.2637 -26.4648 96.9727 -24.0234 96.3379 -19.9219 L 93.6035 -2.39258 C 93.457 -1.51367 92.9199 -1.07422 92.1387 -1.07422 C 91.2109 -1.07422 90.5762 -1.85547 90.7227 -2.68555 L 93.457 -19.873 C 93.8965 -22.5586 93.1641 -23.877 90.8203 -24.4629 C 89.7461 -24.707 88.5742 -25.0488 87.5488 -25.293 C 88.8184 -23.3398 89.4043 -21.0449 89.4043 -18.1641 C 89.4043 -7.56836 81.1035 2.39258 72.0703 2.39258 C 63.0859 2.39258 54.7852 -7.56836 54.7852 -18.1641 C 54.7852 -21.0449 55.3711 -23.3398 56.6406 -25.293 C 55.5664 -25.0488 54.4434 -24.707 53.3691 -24.4629 C 51.0254 -23.877 50.293 -22.5586 50.7324 -19.873 L 53.4668 -2.68555 C 53.6133 -1.85547 52.9297 -1.07422 52.0508 -1.07422 C 51.2695 -1.07422 50.7324 -1.51367 50.5859 -2.39258 Z"/>
  </g>
  <g id="Black-M" transform="matrix(1 0 0 1 2870.97 1126)">
   <path d="M 62.4023 18.5547 C 91.9922 18.5547 116.113 -5.56641 116.113 -35.1562 C 116.113 -64.7461 91.9922 -88.8184 62.4023 -88.8184 C 32.8125 -88.8184 8.74023 -64.7461 8.74023 -35.1562 C 8.74023 -5.56641 32.8125 18.5547 62.4023 18.5547 Z M 39.8926 -20.2148 C 39.3066 -24.2676 40.8691 -26.6113 45.3613 -27.5879 L 56.3477 -29.9805 C 55.7129 -30.2246 55.127 -30.7617 54.7852 -31.3965 L 46.7285 -32.0312 C 42.3828 -32.3242 40.332 -35.1562 40.332 -39.5996 L 40.332 -47.2656 C 40.332 -49.2188 41.6016 -50.3906 43.5059 -50.3906 C 45.5078 -50.3906 46.582 -49.2188 46.582 -47.2656 L 46.582 -40.918 C 46.582 -38.4766 47.9004 -37.7441 50.0488 -37.5977 L 54.1016 -37.3047 C 54.2969 -37.9883 54.834 -38.8672 55.4688 -39.209 C 50.9766 -39.9902 48.8281 -42.7246 48.8281 -46.6309 C 48.8281 -49.0234 49.3652 -51.3184 50.5371 -53.2227 L 49.7559 -53.8086 C 46.582 -56.0059 45.9473 -58.9844 47.998 -62.7441 L 49.2676 -65.1855 C 49.9512 -66.5039 50.7812 -67.041 51.9531 -67.041 C 53.4668 -67.041 54.6387 -65.918 54.6387 -64.502 C 54.6387 -63.8184 54.5898 -63.4277 54.1504 -62.793 L 53.2227 -61.0352 C 52.5391 -59.8145 52.7344 -58.4961 53.6133 -57.8613 L 54.1992 -57.5195 C 56.4941 -59.1797 59.3262 -60.2539 62.3535 -60.2539 C 65.4297 -60.2539 68.2129 -59.1797 70.5566 -57.5195 L 71.1426 -57.8613 C 72.0215 -58.4961 72.2168 -59.8145 71.5332 -61.0352 L 70.6055 -62.793 C 70.166 -63.4277 70.1172 -63.8184 70.1172 -64.502 C 70.1172 -65.918 71.2891 -67.041 72.8027 -67.041 C 73.9746 -67.041 74.8047 -66.5039 75.4883 -65.1855 L 76.7578 -62.7441 C 78.8086 -58.9844 78.1738 -56.0059 75 -53.8086 L 74.2188 -53.2227 C 75.3906 -51.3184 75.9277 -49.0234 75.9277 -46.6309 C 75.9277 -42.7246 73.7793 -39.9902 69.2871 -39.209 C 69.9219 -38.8672 70.459 -37.9883 70.6543 -37.3047 L 74.707 -37.5977 C 76.8555 -37.7441 78.1738 -38.4766 78.1738 -40.918 L 78.1738 -47.2656 C 78.1738 -49.2188 79.1992 -50.3906 81.25 -50.3906 C 83.1543 -50.3906 84.4238 -49.2188 84.4238 -47.2656 L 84.4238 -39.5996 C 84.4238 -35.1562 82.373 -32.3242 78.0273 -32.0312 L 69.9219 -31.3965 C 69.6289 -30.7617 69.043 -30.2246 68.4082 -29.9805 L 79.3945 -27.5879 C 83.8867 -26.6113 85.4492 -24.2676 84.8633 -20.2148 L 83.0566 -8.49609 C 82.7148 -6.49414 81.7871 -5.22461 79.7852 -5.22461 C 77.9297 -5.22461 76.416 -6.64062 76.709 -8.98438 L 78.2715 -19.043 C 78.5156 -20.3125 78.125 -21.1914 77.0508 -21.7773 C 76.7578 -21.875 76.5137 -21.9727 76.2695 -22.0215 C 76.3184 -21.6309 76.3184 -21.2402 76.3184 -20.9961 C 76.3184 -12.4512 69.9219 -4.44336 62.3535 -4.44336 C 54.834 -4.44336 48.4375 -12.4512 48.4375 -20.9961 C 48.4375 -21.2402 48.4375 -21.6309 48.4863 -22.0215 C 48.2422 -21.9727 47.998 -21.875 47.7051 -21.7773 C 46.582 -21.1914 46.2402 -20.3125 46.4844 -19.043 L 48.0469 -8.98438 C 48.3398 -6.64062 46.8262 -5.22461 44.9707 -5.22461 C 42.9688 -5.22461 42.041 -6.49414 41.6992 -8.49609 Z"/>
  </g>
  <g id="Heavy-M" transform="matrix(1 0 0 1 2575.19 1126)">
   <path d="M 61.5234 17.627 C 90.5273 17.627 114.258 -6.10352 114.258 -35.1562 C 114.258 -64.1602 90.5273 -87.8906 61.4746 -87.8906 C 32.4707 -87.8906 8.74023 -64.1602 8.74023 -35.1562 C 8.74023 -6.10352 32.4707 17.627 61.5234 17.627 Z M 38.916 -20.5566 C 38.3301 -24.4629 39.8438 -26.6602 44.0918 -27.5879 L 55.3223 -30.0781 C 54.6387 -30.3711 53.9062 -31.0547 53.5645 -31.8848 L 45.5566 -32.6172 C 41.4062 -33.0078 39.4531 -35.5957 39.4531 -39.7949 L 39.4531 -47.9004 C 39.4531 -49.707 40.625 -50.8301 42.4316 -50.8301 C 44.2871 -50.8301 45.3125 -49.707 45.3125 -47.9004 L 45.3125 -41.0156 C 45.3125 -38.7207 46.5332 -37.9883 48.584 -37.8418 L 53.0762 -37.4023 C 53.2715 -38.1348 53.8086 -39.0137 54.4434 -39.4043 C 49.9512 -40.1855 47.7539 -42.9199 47.7539 -46.9238 C 47.7539 -49.5605 48.4375 -52.0508 49.8535 -54.1016 L 49.2188 -54.5898 C 46.1426 -56.6895 45.5566 -59.668 47.5586 -63.2812 L 48.877 -65.7227 C 49.5117 -66.9922 50.293 -67.5293 51.416 -67.5293 C 52.832 -67.5293 53.9551 -66.4551 53.9551 -65.0879 C 53.9551 -64.4531 53.9062 -64.0625 53.5156 -63.4766 L 52.4414 -61.6211 C 51.7578 -60.3516 51.8555 -59.1309 52.7344 -58.4473 L 53.3691 -58.0566 C 55.6641 -59.668 58.4961 -60.6934 61.4746 -60.6934 C 64.4043 -60.6934 67.2852 -59.668 69.5801 -58.0566 L 70.2148 -58.4473 C 71.0938 -59.1309 71.1914 -60.3516 70.459 -61.6211 L 69.4336 -63.4766 C 69.043 -64.0625 68.9941 -64.4531 68.9941 -65.0879 C 68.9941 -66.4551 70.0684 -67.5293 71.5332 -67.5293 C 72.6562 -67.5293 73.3887 -66.9922 74.0723 -65.7227 L 75.3906 -63.2812 C 77.3926 -59.668 76.8066 -56.6895 73.7305 -54.5898 L 73.0957 -54.1016 C 74.4629 -52.0508 75.1953 -49.5605 75.1953 -46.9238 C 75.1953 -42.9199 72.998 -40.1855 68.5059 -39.4043 C 69.0918 -39.0137 69.6777 -38.1348 69.873 -37.4023 L 74.3652 -37.8418 C 76.3672 -37.9883 77.6367 -38.7207 77.6367 -41.0156 L 77.6367 -47.9004 C 77.6367 -49.707 78.6621 -50.8301 80.4688 -50.8301 C 82.3242 -50.8301 83.4473 -49.707 83.4473 -47.9004 L 83.4473 -39.7949 C 83.4473 -35.5957 81.4941 -33.0078 77.3926 -32.6172 L 69.3359 -31.8848 C 68.9941 -31.0547 68.3105 -30.3711 67.627 -30.0781 L 78.8086 -27.5879 C 83.1055 -26.6113 84.6191 -24.4629 84.0332 -20.5566 L 82.1289 -8.25195 C 81.8359 -6.39648 80.957 -5.22461 79.1016 -5.22461 C 77.3438 -5.22461 75.9277 -6.54297 76.2207 -8.74023 L 77.8809 -19.4824 C 78.125 -20.8496 77.7344 -21.6797 76.4648 -22.2168 C 76.0742 -22.3633 75.7324 -22.4609 75.3906 -22.5098 C 75.5371 -22.0215 75.5371 -21.4355 75.5371 -20.9961 C 75.5371 -12.3535 69.0918 -4.24805 61.4746 -4.24805 C 53.8574 -4.24805 47.3633 -12.3535 47.3633 -20.9961 C 47.3633 -21.4355 47.4121 -22.0215 47.5586 -22.5098 C 47.2168 -22.4609 46.875 -22.3633 46.4844 -22.2168 C 45.2148 -21.6797 44.7754 -20.8496 45.0684 -19.4824 L 46.6797 -8.74023 C 46.9727 -6.54297 45.6055 -5.22461 43.8477 -5.22461 C 41.9922 -5.22461 41.1133 -6.39648 40.8203 -8.25195 Z"/>
  </g>
  <g id="Bold-M" transform="matrix(1 0 0 1 2279.5 1126)">
   <path d="M 60.498 16.5527 C 88.8672 16.5527 112.207 -6.73828 112.207 -35.1562 C 112.207 -63.5742 88.8672 -86.9141 60.4492 -86.9141 C 32.0312 -86.9141 8.74023 -63.5742 8.74023 -35.1562 C 8.74023 -6.73828 32.0801 16.5527 60.498 16.5527 Z M 37.8418 -20.9473 C 37.2559 -24.6094 38.7207 -26.709 42.7246 -27.6367 L 54.1504 -30.1758 C 53.3691 -30.5176 52.5879 -31.3477 52.1973 -32.4707 L 44.2383 -33.3008 C 40.332 -33.7402 38.5254 -36.084 38.5254 -40.0391 L 38.5254 -48.584 C 38.5254 -50.293 39.5508 -51.2695 41.2598 -51.2695 C 42.9199 -51.2695 43.8477 -50.2441 43.8477 -48.584 L 43.8477 -41.1133 C 43.8477 -38.9648 45.0195 -38.2812 46.9727 -38.1348 L 51.9043 -37.5488 C 52.0996 -38.3301 52.6855 -39.209 53.2715 -39.5996 C 48.7793 -40.4297 46.5332 -43.2129 46.5332 -47.2168 C 46.5332 -50.1465 47.4609 -52.8809 49.0723 -55.0781 L 48.6328 -55.4199 C 45.7031 -57.5195 45.166 -60.4004 47.0215 -63.8672 L 48.4375 -66.3574 C 49.0234 -67.5293 49.7559 -68.0176 50.8301 -68.0176 C 52.1973 -68.0176 53.2227 -67.041 53.2227 -65.7227 C 53.2227 -65.1367 53.125 -64.7949 52.7832 -64.209 L 51.6113 -62.2559 C 50.8789 -60.9863 50.8301 -59.8145 51.7578 -59.082 L 52.3926 -58.6426 C 54.7363 -60.2539 57.6172 -61.1816 60.4492 -61.1816 C 63.2812 -61.1816 66.1621 -60.2539 68.5059 -58.6426 L 69.1406 -59.082 C 70.0684 -59.8145 70.0195 -60.9863 69.2871 -62.2559 L 68.1641 -64.209 C 67.7734 -64.7949 67.7246 -65.1367 67.7246 -65.7227 C 67.7246 -67.041 68.7012 -68.0176 70.0684 -68.0176 C 71.1426 -68.0176 71.875 -67.5293 72.5098 -66.3574 L 73.877 -63.8672 C 75.7812 -60.4492 75.2441 -57.5195 72.2656 -55.4199 L 71.8262 -55.0781 C 73.4863 -52.8809 74.3652 -50.1465 74.3652 -47.2168 C 74.3652 -43.1641 72.1191 -40.3809 67.627 -39.5996 C 68.2129 -39.1602 68.7988 -38.3301 68.9941 -37.5488 L 73.9746 -38.1348 C 75.8789 -38.3301 77.0508 -38.9648 77.0508 -41.1133 L 77.0508 -48.584 C 77.0508 -50.2441 77.9785 -51.2695 79.6387 -51.2695 C 81.3477 -51.2695 82.373 -50.2441 82.373 -48.584 L 82.373 -40.0391 C 82.373 -36.084 80.5664 -33.7402 76.6602 -33.3008 L 68.7012 -32.4707 C 68.3105 -31.3477 67.5293 -30.5176 66.748 -30.1758 L 78.1738 -27.6367 C 82.2266 -26.6602 83.6914 -24.6094 83.1055 -20.9473 L 81.0547 -8.00781 C 80.8105 -6.29883 79.9805 -5.22461 78.3203 -5.22461 C 76.6602 -5.22461 75.3906 -6.44531 75.6836 -8.44727 L 77.4414 -19.9707 C 77.7344 -21.3867 77.2949 -22.2168 75.8301 -22.7051 C 75.3418 -22.9004 74.8535 -22.998 74.4141 -23.0957 C 74.6094 -22.4609 74.707 -21.7285 74.707 -20.9473 C 74.707 -12.207 68.1152 -4.00391 60.4492 -4.00391 C 52.7832 -4.00391 46.1914 -12.207 46.1914 -20.9473 C 46.1914 -21.7285 46.2891 -22.4609 46.4844 -23.0957 C 46.0449 -22.998 45.5566 -22.9004 45.0684 -22.7051 C 43.6523 -22.2168 43.2129 -21.3867 43.457 -19.9707 L 45.2148 -8.44727 C 45.459 -6.44531 44.2383 -5.22461 42.5781 -5.22461 C 40.918 -5.22461 40.0879 -6.29883 39.8438 -8.00781 Z"/>
  </g>
  <g id="Semibold-M" transform="matrix(1 0 0 1 1983.5 1126)">
   <path d="M 59.7656 15.8691 C 87.7441 15.8691 110.791 -7.22656 110.791 -35.1562 C 110.791 -63.1348 87.6953 -86.2305 59.7656 -86.2305 C 31.7871 -86.2305 8.74023 -63.1348 8.74023 -35.1562 C 8.74023 -7.22656 31.7871 15.8691 59.7656 15.8691 Z M 37.0605 -21.2402 C 36.5234 -24.7559 37.9395 -26.709 41.748 -27.6367 L 53.3691 -30.2734 C 52.5391 -30.6152 51.6602 -31.543 51.2695 -32.8125 L 43.3105 -33.7891 C 39.5996 -34.2285 37.8418 -36.4258 37.8418 -40.1855 L 37.8418 -49.0723 C 37.8418 -50.6348 38.8184 -51.6113 40.4297 -51.6113 C 41.9922 -51.6113 42.8711 -50.6348 42.8711 -49.0723 L 42.8711 -41.2109 C 42.8711 -39.1602 43.9941 -38.4766 45.8496 -38.3301 L 51.123 -37.6465 C 51.3184 -38.4766 51.9043 -39.3066 52.4414 -39.7461 C 47.9492 -40.5762 45.752 -43.3594 45.752 -47.4609 C 45.752 -50.5371 46.7285 -53.4668 48.5352 -55.7617 L 48.1934 -56.0059 C 45.3613 -58.0566 44.873 -60.9375 46.6797 -64.2578 L 48.0957 -66.7969 C 48.6816 -67.9199 49.4141 -68.3594 50.4395 -68.3594 C 51.709 -68.3594 52.6855 -67.4316 52.6855 -66.2109 C 52.6855 -65.625 52.5879 -65.2832 52.2461 -64.7461 L 51.0254 -62.6953 C 50.293 -61.4258 50.1465 -60.2539 51.0742 -59.5215 L 51.7578 -59.0332 C 54.1016 -60.6445 56.9824 -61.5234 59.7656 -61.5234 C 62.5 -61.5234 65.4297 -60.6445 67.7734 -59.0332 L 68.4082 -59.5215 C 69.3359 -60.2539 69.2383 -61.4258 68.457 -62.6953 L 67.2363 -64.7461 C 66.8945 -65.2832 66.8457 -65.625 66.8457 -66.2109 C 66.8457 -67.4316 67.7734 -68.3594 69.0918 -68.3594 C 70.1172 -68.3594 70.8008 -67.8711 71.3867 -66.7969 L 72.8027 -64.2578 C 74.707 -60.9863 74.1699 -58.0566 71.2891 -56.0059 L 70.9473 -55.7617 C 72.7539 -53.4668 73.7793 -50.5371 73.7793 -47.4609 C 73.7793 -43.3594 71.5332 -40.5762 67.041 -39.7461 C 67.627 -39.3066 68.1641 -38.4766 68.4082 -37.6465 L 73.6816 -38.3301 C 75.5371 -38.5254 76.6602 -39.1602 76.6602 -41.2109 L 76.6602 -49.0723 C 76.6602 -50.6348 77.5391 -51.6113 79.1016 -51.6113 C 80.7129 -51.6113 81.6406 -50.6348 81.6406 -49.0723 L 81.6406 -40.1855 C 81.6406 -36.4258 79.9316 -34.2285 76.1719 -33.7891 L 68.2617 -32.8125 C 67.8223 -31.543 66.9434 -30.6152 66.1133 -30.2734 L 77.7344 -27.6367 C 81.5918 -26.6602 83.0078 -24.7559 82.4219 -21.2402 L 80.3711 -7.86133 C 80.127 -6.25 79.3457 -5.22461 77.7832 -5.22461 C 76.2207 -5.22461 75.0488 -6.34766 75.3418 -8.25195 L 77.1484 -20.3125 C 77.4414 -21.7773 76.9531 -22.5586 75.3906 -23.0469 C 74.8047 -23.2422 74.2676 -23.3398 73.7305 -23.4863 C 74.0234 -22.7539 74.1211 -21.875 74.1211 -20.9473 C 74.1211 -12.1094 67.4805 -3.85742 59.7656 -3.85742 C 52.002 -3.85742 45.4102 -12.1094 45.4102 -20.9473 C 45.4102 -21.875 45.5078 -22.7539 45.752 -23.4863 C 45.2148 -23.3398 44.6777 -23.2422 44.1406 -23.0469 C 42.5293 -22.5586 42.0898 -21.7773 42.334 -20.3125 L 44.1895 -8.25195 C 44.4336 -6.34766 43.2617 -5.22461 41.748 -5.22461 C 40.1855 -5.22461 39.4043 -6.25 39.1602 -7.86133 Z"/>
  </g>
  <g id="Medium-M" transform="matrix(1 0 0 1 1687.3 1126)">
   <path d="M 59.2285 15.332 C 86.9141 15.332 109.766 -7.51953 109.766 -35.2051 C 109.766 -62.8418 86.8652 -85.6934 59.1797 -85.6934 C 31.543 -85.6934 8.74023 -62.8418 8.74023 -35.2051 C 8.74023 -7.51953 31.5918 15.332 59.2285 15.332 Z M 36.4746 -21.4355 C 35.9375 -24.8047 37.3047 -26.7578 41.0156 -27.6367 L 52.7832 -30.3223 C 51.9043 -30.7129 50.9766 -31.7383 50.5371 -33.1055 L 42.627 -34.1309 C 39.0137 -34.6191 37.3535 -36.6699 37.3535 -40.2832 L 37.3535 -49.4629 C 37.3535 -50.9277 38.2812 -51.8555 39.7949 -51.8555 C 41.2598 -51.8555 42.1387 -50.9277 42.1387 -49.4629 L 42.1387 -41.2598 C 42.1387 -39.2578 43.2129 -38.623 44.9707 -38.4766 L 50.4883 -37.6953 C 50.7324 -38.5742 51.3184 -39.4043 51.8555 -39.8438 C 47.3633 -40.7227 45.1172 -43.5059 45.1172 -47.6074 C 45.1172 -50.8301 46.1914 -53.8574 48.1445 -56.25 L 47.9004 -56.4941 C 45.1172 -58.4473 44.6289 -61.3281 46.4355 -64.5996 L 47.8516 -67.1387 C 48.4375 -68.2129 49.1211 -68.6523 50.0977 -68.6523 C 51.3672 -68.6523 52.2949 -67.7246 52.2949 -66.5527 C 52.2949 -66.0156 52.1973 -65.625 51.9043 -65.0879 L 50.5859 -63.0371 C 49.8535 -61.7676 49.6582 -60.6445 50.5859 -59.8633 L 51.2207 -59.3262 C 53.6133 -60.8887 56.543 -61.8164 59.2285 -61.8164 C 61.9141 -61.8164 64.8438 -60.8887 67.1875 -59.3262 L 67.8711 -59.8633 C 68.7988 -60.6445 68.6523 -61.7676 67.8223 -63.0371 L 66.5527 -65.0879 C 66.2598 -65.625 66.1621 -66.0156 66.1621 -66.5527 C 66.1621 -67.7734 67.0898 -68.6523 68.3105 -68.6523 C 69.3359 -68.6523 69.9707 -68.1641 70.5566 -67.1387 L 72.0215 -64.5996 C 73.877 -61.377 73.3398 -58.4473 70.5566 -56.4941 L 70.3125 -56.25 C 72.2168 -53.8574 73.3398 -50.8301 73.3398 -47.6074 C 73.3398 -43.457 71.0938 -40.6738 66.6016 -39.8438 C 67.1387 -39.4043 67.7246 -38.5742 67.9688 -37.6953 L 73.4863 -38.4766 C 75.2441 -38.6719 76.3184 -39.2578 76.3184 -41.2598 L 76.3184 -49.4629 C 76.3184 -50.9277 77.1973 -51.8555 78.6621 -51.8555 C 80.1758 -51.8555 81.1035 -50.9277 81.1035 -49.4629 L 81.1035 -40.2832 C 81.1035 -36.6699 79.4434 -34.6191 75.8301 -34.1309 L 67.9199 -33.1055 C 67.4805 -31.7383 66.5527 -30.7129 65.6738 -30.3223 L 77.4414 -27.6367 C 81.1035 -26.709 82.5195 -24.8047 81.9336 -21.4355 L 79.834 -7.71484 C 79.5898 -6.15234 78.8574 -5.22461 77.3438 -5.22461 C 75.8789 -5.22461 74.7559 -6.29883 75.0488 -8.10547 L 76.9531 -20.5566 C 77.1973 -22.0703 76.709 -22.8516 75.0488 -23.3398 C 74.4141 -23.4863 73.8281 -23.6328 73.2422 -23.7793 C 73.5352 -22.998 73.6816 -22.0215 73.6816 -20.8984 C 73.6816 -12.0605 66.9922 -3.75977 59.2285 -3.75977 C 51.4648 -3.75977 44.7754 -12.0605 44.7754 -20.8984 C 44.7754 -22.0215 44.9219 -22.998 45.2148 -23.7793 C 44.6289 -23.6328 43.9941 -23.4863 43.4082 -23.3398 C 41.748 -22.8516 41.2598 -22.0703 41.5039 -20.5566 L 43.4082 -8.10547 C 43.6523 -6.29883 42.5293 -5.22461 41.0645 -5.22461 C 39.5996 -5.22461 38.8672 -6.15234 38.623 -7.71484 Z"/>
  </g>
  <g id="Regular-M" transform="matrix(1 0 0 1 1391.3 1126)">
   <path d="M 58.5449 14.5996 C 85.791 14.5996 108.35 -7.95898 108.35 -35.2051 C 108.35 -62.4023 85.7422 -85.0098 58.4961 -85.0098 C 31.2988 -85.0098 8.74023 -62.4023 8.74023 -35.2051 C 8.74023 -7.95898 31.3477 14.5996 58.5449 14.5996 Z M 35.7422 -21.7285 C 35.2051 -24.9512 36.5234 -26.7578 40.0879 -27.6367 L 52.002 -30.3711 C 51.0742 -30.8594 50.0488 -31.9336 49.6094 -33.4961 L 41.748 -34.6191 C 38.2812 -35.1074 36.7188 -37.0117 36.7188 -40.4297 L 36.7188 -49.9023 C 36.7188 -51.3184 37.5488 -52.1484 38.9648 -52.1484 C 40.2832 -52.1484 41.1133 -51.3184 41.1133 -49.9023 L 41.1133 -41.3086 C 41.1133 -39.4531 42.1387 -38.8672 43.8477 -38.623 L 49.707 -37.793 C 49.9512 -38.7207 50.5371 -39.502 51.0742 -39.9902 C 46.582 -40.8691 44.2871 -43.6523 44.2871 -47.8516 C 44.2871 -51.2207 45.5078 -54.4434 47.6074 -56.9336 L 47.4609 -57.0801 C 44.7754 -58.9844 44.3359 -61.8652 46.0449 -64.9902 L 47.5586 -67.5781 C 48.0957 -68.6035 48.7793 -68.9941 49.707 -68.9941 C 50.9277 -68.9941 51.7578 -68.1152 51.7578 -66.9922 C 51.7578 -66.5039 51.709 -66.1133 51.3672 -65.625 L 50.0488 -63.4766 C 49.2676 -62.207 48.9746 -61.084 49.9023 -60.3027 L 50.5859 -59.7656 C 52.9297 -61.2793 55.9082 -62.1582 58.5449 -62.1582 C 61.1328 -62.1582 64.1113 -61.2793 66.4551 -59.7656 L 67.1387 -60.3027 C 68.1152 -61.084 67.8223 -62.207 67.041 -63.4766 L 65.6738 -65.625 C 65.3809 -66.1133 65.2832 -66.5039 65.2832 -66.9922 C 65.2832 -68.1641 66.1621 -68.9941 67.334 -68.9941 C 68.3105 -68.9941 68.8965 -68.5547 69.4824 -67.5781 L 70.9961 -64.9902 C 72.8027 -61.9141 72.2656 -58.9844 69.5801 -57.0801 L 69.4336 -56.9336 C 71.5332 -54.4434 72.7539 -51.2207 72.7539 -47.8516 C 72.7539 -43.6523 70.5078 -40.8203 66.0156 -39.9902 C 66.5527 -39.502 67.0898 -38.6719 67.334 -37.793 L 73.1934 -38.623 C 74.9023 -38.916 75.9277 -39.4531 75.9277 -41.3086 L 75.9277 -49.9023 C 75.9277 -51.3184 76.7578 -52.1484 78.0762 -52.1484 C 79.541 -52.1484 80.3711 -51.3184 80.3711 -49.9023 L 80.3711 -40.4297 C 80.3711 -37.0117 78.7598 -35.1074 75.3418 -34.6191 L 67.4805 -33.4961 C 66.9922 -31.9336 65.9668 -30.8105 65.0879 -30.3711 L 77.002 -27.6367 C 80.5176 -26.709 81.8848 -24.9512 81.3477 -21.7285 L 79.1016 -7.51953 C 78.9062 -6.10352 78.2227 -5.17578 76.8555 -5.17578 C 75.4395 -5.17578 74.4141 -6.25 74.6582 -7.86133 L 76.6602 -20.8984 C 76.9043 -22.4609 76.416 -23.1934 74.6094 -23.6816 C 73.9258 -23.877 73.2422 -24.0234 72.6074 -24.2188 C 72.9492 -23.291 73.0957 -22.168 73.0957 -20.8984 C 73.0957 -11.9629 66.3574 -3.61328 58.5449 -3.61328 C 50.6836 -3.61328 43.9941 -11.9629 43.9941 -20.8984 C 43.9941 -22.168 44.1406 -23.291 44.4824 -24.2188 C 43.7988 -24.0234 43.1152 -23.877 42.4805 -23.6816 C 40.6738 -23.1934 40.1367 -22.4609 40.4297 -20.8984 L 42.3828 -7.86133 C 42.627 -6.25 41.6016 -5.17578 40.2344 -5.17578 C 38.8672 -5.17578 38.1836 -6.10352 37.9395 -7.51953 Z"/>
  </g>
  <g id="Light-M" transform="matrix(1 0 0 1 1095.42 1126)">
   <path d="M 57.7148 13.7695 C 84.5215 13.7695 106.689 -8.34961 106.689 -35.2051 C 106.689 -62.0117 84.5215 -84.1797 57.666 -84.1797 C 30.8594 -84.1797 8.74023 -62.0117 8.74023 -35.2051 C 8.74023 -8.34961 30.9082 13.7695 57.7148 13.7695 Z M 36.1328 -22.2168 C 35.6445 -25.4395 36.9629 -27.2949 40.4785 -28.125 L 51.1719 -30.6152 C 50.1465 -31.2012 49.2676 -32.4707 48.9258 -34.0332 L 42.041 -35.0098 C 38.5254 -35.498 37.0117 -37.2559 37.0117 -40.625 L 37.0117 -49.6582 C 37.0117 -50.8301 37.7441 -51.5137 38.916 -51.5137 C 40.0879 -51.5137 40.7715 -50.8301 40.7715 -49.6582 L 40.7715 -41.2598 C 40.7715 -39.4043 41.6504 -38.7207 43.457 -38.5254 L 49.0723 -37.6953 C 49.3164 -38.5742 49.8047 -39.3066 50.293 -39.7949 C 46.0449 -40.6738 43.7988 -43.457 43.7988 -47.5098 C 43.7988 -51.0254 45.166 -54.3945 47.5098 -56.9336 L 47.4121 -57.0312 C 44.8242 -58.9844 44.4824 -61.5723 46.2891 -64.502 L 48.3398 -67.5781 C 48.7793 -68.4082 49.3652 -68.75 50.1465 -68.75 C 51.1719 -68.75 51.9043 -68.0176 51.9043 -67.0898 C 51.9043 -66.6504 51.8066 -66.3086 51.5137 -65.8691 L 49.5117 -63.0371 C 48.6328 -61.6699 48.3887 -60.6445 49.5117 -59.7656 L 50.0977 -59.2773 C 52.3926 -60.7422 55.1758 -61.5234 57.7148 -61.5234 C 60.2539 -61.5234 63.0371 -60.7422 65.2832 -59.2773 L 65.918 -59.7656 C 66.9922 -60.6445 66.7969 -61.6699 65.918 -63.0371 L 63.916 -65.8691 C 63.623 -66.3086 63.5254 -66.6504 63.5254 -67.0898 C 63.5254 -68.0664 64.2578 -68.75 65.2832 -68.75 C 66.0645 -68.75 66.6016 -68.3594 67.0898 -67.5781 L 69.1406 -64.502 C 70.9961 -61.6211 70.5566 -58.9844 68.0176 -57.0312 L 67.8711 -56.9336 C 70.2148 -54.3945 71.582 -51.0254 71.582 -47.5098 C 71.582 -43.3594 69.3359 -40.625 65.0879 -39.7461 C 65.5762 -39.3066 66.1133 -38.5254 66.3574 -37.6953 L 71.9238 -38.5254 C 73.7305 -38.7695 74.6582 -39.4043 74.6582 -41.2598 L 74.6582 -49.6582 C 74.6582 -50.8301 75.3418 -51.5137 76.4648 -51.5137 C 77.7344 -51.5137 78.418 -50.8301 78.418 -49.6582 L 78.418 -40.625 C 78.418 -37.2559 76.8555 -35.498 73.3887 -35.0098 L 66.5039 -34.0332 C 66.1621 -32.4219 65.2344 -31.1523 64.2578 -30.6152 L 74.9512 -28.125 C 78.4668 -27.2461 79.7852 -25.4395 79.248 -22.2168 L 77.0508 -8.25195 C 76.9043 -7.03125 76.2695 -6.29883 75.1465 -6.29883 C 73.9746 -6.29883 73.0957 -7.22656 73.3398 -8.54492 L 75.3418 -21.6797 C 75.6348 -23.3887 75.0977 -24.2188 73.291 -24.6582 C 72.5586 -24.8535 71.8262 -25.0488 71.0938 -25.2441 C 71.6797 -24.1211 71.9238 -22.8027 71.9238 -21.2402 C 71.9238 -12.5488 65.2832 -4.3457 57.7148 -4.3457 C 50.1465 -4.3457 43.5059 -12.5488 43.5059 -21.2402 C 43.5059 -22.8027 43.75 -24.1211 44.2871 -25.2441 C 43.6035 -25.0488 42.8223 -24.8535 42.1387 -24.6582 C 40.332 -24.2188 39.7949 -23.3887 40.0879 -21.6797 L 42.0898 -8.54492 C 42.2852 -7.22656 41.4062 -6.29883 40.2832 -6.29883 C 39.1113 -6.29883 38.5254 -7.03125 38.3301 -8.25195 Z"/>
  </g>
  <g id="Thin-M" transform="matrix(1 0 0 1 799.806 1126)">
   <path d="M 56.6406 12.6953 C 82.9102 12.6953 104.492 -8.88672 104.492 -35.2051 C 104.492 -61.4746 82.9102 -83.0566 56.5918 -83.0566 C 30.3223 -83.0566 8.74023 -61.4746 8.74023 -35.2051 C 8.74023 -8.88672 30.3223 12.6953 56.6406 12.6953 Z M 36.7188 -22.9004 C 36.1816 -26.123 37.5 -27.9785 40.9668 -28.7598 L 50.0977 -30.9082 C 48.9746 -31.7383 48.1934 -33.1543 47.998 -34.7656 L 42.3828 -35.5469 C 38.8672 -36.084 37.4023 -37.5977 37.4023 -40.8203 L 37.4023 -49.2676 C 37.4023 -50.1953 37.9883 -50.7324 38.8672 -50.7324 C 39.7461 -50.7324 40.2832 -50.1465 40.2832 -49.2676 L 40.2832 -41.1621 C 40.2832 -39.3555 41.0156 -38.5742 42.9688 -38.3301 L 48.1934 -37.5488 C 48.4863 -38.3789 48.877 -39.0625 49.3164 -39.502 C 45.3613 -40.4785 43.2129 -43.1152 43.2129 -47.0703 C 43.2129 -50.7812 44.7266 -54.3457 47.4121 -56.8848 L 47.3145 -57.0312 C 44.9219 -58.9355 44.6777 -61.2305 46.6309 -63.916 L 49.3652 -67.5781 C 49.707 -68.1641 50.1465 -68.457 50.7324 -68.457 C 51.4648 -68.457 52.0508 -67.8711 52.0508 -67.1875 C 52.0508 -66.8457 51.9043 -66.5039 51.6602 -66.1621 L 48.7793 -62.4023 C 47.8027 -60.9863 47.6562 -60.0098 48.9746 -59.0332 L 49.4629 -58.6914 C 51.6602 -59.9609 54.1992 -60.7422 56.6406 -60.7422 C 59.0332 -60.7422 61.5723 -59.9609 63.7695 -58.6914 L 64.2578 -59.0332 C 65.5762 -60.0098 65.4785 -60.9863 64.4531 -62.4023 L 61.5723 -66.1621 C 61.3281 -66.5039 61.1816 -66.8457 61.1816 -67.1875 C 61.1816 -67.9199 61.7676 -68.457 62.5 -68.457 C 63.0859 -68.457 63.5254 -68.1641 63.8672 -67.5781 L 66.6504 -63.916 C 68.6035 -61.2305 68.3105 -58.9355 65.918 -57.0312 L 65.8203 -56.8848 C 68.5059 -54.3457 70.0684 -50.7812 70.0684 -47.0703 C 70.0684 -43.0176 67.8223 -40.3809 63.916 -39.4531 C 64.3555 -39.0137 64.7949 -38.3301 65.0391 -37.5488 L 70.2637 -38.3301 C 72.2168 -38.5742 72.998 -39.3555 72.998 -41.1621 L 72.998 -49.2676 C 72.998 -50.1465 73.4863 -50.7324 74.3652 -50.7324 C 75.293 -50.7324 75.8301 -50.1465 75.8301 -49.2676 L 75.8301 -40.8203 C 75.8301 -37.5977 74.3652 -36.084 70.8496 -35.5469 L 65.2344 -34.7656 C 65.0391 -33.1055 64.209 -31.6406 63.1836 -30.9082 L 72.2656 -28.7598 C 75.7324 -27.9297 77.0508 -26.123 76.5137 -22.9004 L 74.3652 -9.13086 C 74.2188 -8.25195 73.7305 -7.76367 72.9004 -7.76367 C 72.0215 -7.76367 71.3867 -8.49609 71.5332 -9.42383 L 73.6328 -22.6562 C 73.9258 -24.6094 73.3887 -25.5371 71.582 -25.9766 C 70.8008 -26.1719 69.9707 -26.416 69.1895 -26.5625 C 69.9707 -25.2441 70.3613 -23.6328 70.3613 -21.7285 C 70.3613 -13.2812 63.8184 -5.37109 56.6406 -5.37109 C 49.4141 -5.37109 42.8711 -13.2812 42.8711 -21.7285 C 42.8711 -23.6328 43.2617 -25.2441 44.043 -26.5625 C 43.2617 -26.416 42.4316 -26.1719 41.6504 -25.9766 C 39.8438 -25.5371 39.3066 -24.6094 39.5996 -22.6562 L 41.6992 -9.42383 C 41.8457 -8.49609 41.2109 -7.76367 40.332 -7.76367 C 39.502 -7.76367 39.0137 -8.25195 38.8672 -9.13086 Z"/>
  </g>
  <g id="Ultralight-M" transform="matrix(1 0 0 1 503.656 1126)">
   <path d="M 56.0547 12.1094 C 82.0801 12.1094 103.369 -9.17969 103.369 -35.2051 C 103.369 -61.2305 82.0801 -82.5195 56.0547 -82.5195 C 30.0293 -82.5195 8.74023 -61.2305 8.74023 -35.2051 C 8.74023 -9.17969 30.0293 12.1094 56.0547 12.1094 Z M 37.0117 -23.2422 C 36.4258 -26.416 37.793 -28.3203 41.2109 -29.1016 L 49.5117 -31.0547 C 48.3887 -31.9824 47.6562 -33.4961 47.5098 -35.1562 L 42.5781 -35.8398 C 39.0625 -36.3281 37.5977 -37.7441 37.5977 -40.918 L 37.5977 -49.0723 C 37.5977 -49.9023 38.0859 -50.293 38.8184 -50.293 C 39.5996 -50.293 39.9902 -49.8047 39.9902 -49.0723 L 39.9902 -41.1133 C 39.9902 -39.3066 40.6738 -38.4766 42.6758 -38.2324 L 47.8027 -37.5 C 48.0469 -38.3301 48.3887 -38.916 48.8281 -39.3555 C 44.9707 -40.3809 42.8711 -42.9688 42.8711 -46.8262 C 42.8711 -50.6348 44.4824 -54.3457 47.3633 -56.8848 L 47.2656 -57.0312 C 44.9707 -58.9355 44.7754 -61.0352 46.7773 -63.5742 L 49.9023 -67.627 C 50.1465 -68.0176 50.5371 -68.2617 51.0254 -68.2617 C 51.6113 -68.2617 52.1484 -67.7734 52.1484 -67.2363 C 52.1484 -66.9434 52.002 -66.6016 51.7578 -66.3086 L 48.3887 -62.1094 C 47.3633 -60.6445 47.2656 -59.668 48.7305 -58.6426 L 49.1699 -58.3496 C 51.2695 -59.6191 53.7109 -60.3516 56.0547 -60.3516 C 58.4473 -60.3516 60.8398 -59.6191 62.9395 -58.3496 L 63.3789 -58.6426 C 64.8438 -59.668 64.7949 -60.6445 63.7207 -62.1094 L 60.3516 -66.3086 C 60.1074 -66.6016 60.0098 -66.9434 60.0098 -67.2363 C 60.0098 -67.8711 60.498 -68.2617 61.084 -68.2617 C 61.5723 -68.2617 61.9629 -68.0176 62.207 -67.627 L 65.332 -63.5742 C 67.334 -61.0352 67.1875 -58.9355 64.8926 -57.0312 L 64.7461 -56.8848 C 67.627 -54.3457 69.2383 -50.6348 69.2383 -46.8262 C 69.2383 -42.8711 67.0898 -40.2344 63.2812 -39.3066 C 63.7207 -38.8672 64.1113 -38.2324 64.3555 -37.5 L 69.4336 -38.2324 C 71.4355 -38.4766 72.1191 -39.3066 72.1191 -41.1133 L 72.1191 -49.0723 C 72.1191 -49.8047 72.5586 -50.293 73.291 -50.293 C 74.0723 -50.293 74.5117 -49.8047 74.5117 -49.0723 L 74.5117 -40.918 C 74.5117 -37.7441 73.0957 -36.3281 69.5312 -35.8398 L 64.5996 -35.1562 C 64.4531 -33.3984 63.6719 -31.8359 62.5977 -31.0547 L 70.8984 -29.1016 C 74.3164 -28.3203 75.6348 -26.416 75.1465 -23.2422 L 72.998 -9.61914 C 72.9004 -8.88672 72.4609 -8.54492 71.7773 -8.54492 C 71.0449 -8.54492 70.5078 -9.13086 70.6055 -9.86328 L 72.7539 -23.1445 C 73.0469 -25.1953 72.5098 -26.2207 70.7031 -26.6602 C 69.873 -26.8555 68.9941 -27.0996 68.1641 -27.2949 C 69.1406 -25.8301 69.5801 -24.0723 69.5801 -21.9238 C 69.5801 -13.6719 63.0859 -5.9082 56.0547 -5.9082 C 49.0234 -5.9082 42.5781 -13.6719 42.5781 -21.9238 C 42.5781 -24.0723 43.0176 -25.8301 43.9453 -27.2949 C 43.1152 -27.0996 42.2363 -26.8555 41.4551 -26.6602 C 39.6484 -26.2207 39.0625 -25.1953 39.4043 -23.1445 L 41.5039 -9.86328 C 41.6504 -9.13086 41.0645 -8.54492 40.332 -8.54492 C 39.6484 -8.54492 39.2578 -8.88672 39.1113 -9.61914 Z"/>
  </g>
  <g id="Black-S" transform="matrix(1 0 0 1 2884.57 696)">
   <path d="M 48.8281 6.83594 C 71.9727 6.83594 90.8203 -12.0117 90.8203 -35.1562 C 90.8203 -58.3008 71.9727 -77.1484 48.8281 -77.1484 C 25.6836 -77.1484 6.83594 -58.3008 6.83594 -35.1562 C 6.83594 -12.0117 25.6836 6.83594 48.8281 6.83594 Z M 31.2012 -23.4863 C 30.7129 -26.6602 31.9336 -28.4668 35.4492 -29.248 L 44.0918 -31.1035 C 43.6035 -31.2988 43.1152 -31.7383 42.8711 -32.2754 L 36.5234 -32.7637 C 33.1543 -33.0078 31.543 -35.2051 31.543 -38.6719 L 31.543 -44.7266 C 31.543 -46.2402 32.5195 -47.168 34.0332 -47.168 C 35.5957 -47.168 36.4258 -46.2402 36.4258 -44.7266 L 36.4258 -39.6973 C 36.4258 -37.793 37.4512 -37.207 39.1113 -37.1094 L 42.334 -36.8652 C 42.4805 -37.4023 42.9199 -38.0859 43.4082 -38.3789 C 39.8926 -38.9648 38.1836 -41.1133 38.1836 -44.1895 C 38.1836 -46.0938 38.623 -47.9004 39.5508 -49.4141 L 38.9648 -49.8535 C 36.4746 -51.5625 35.9863 -53.9062 37.5977 -56.8359 L 38.5742 -58.7402 C 39.1113 -59.7656 39.7461 -60.2051 40.6738 -60.2051 C 41.8457 -60.2051 42.7734 -59.3262 42.7734 -58.2031 C 42.7734 -57.666 42.7246 -57.373 42.3828 -56.8848 L 41.6504 -55.5176 C 41.1133 -54.541 41.2598 -53.5156 41.9434 -53.0273 L 42.4316 -52.7344 C 44.2383 -54.0527 46.4355 -54.8828 48.8281 -54.8828 C 51.2207 -54.8828 53.418 -54.0527 55.2246 -52.7344 L 55.7129 -53.0273 C 56.3965 -53.5156 56.543 -54.541 56.0059 -55.5176 L 55.2734 -56.8848 C 54.9316 -57.373 54.8828 -57.666 54.8828 -58.2031 C 54.8828 -59.3262 55.8105 -60.2051 56.9824 -60.2051 C 57.9102 -60.2051 58.5449 -59.7656 59.082 -58.7402 L 60.0586 -56.8359 C 61.6699 -53.9062 61.1816 -51.5625 58.6914 -49.8535 L 58.1055 -49.4141 C 59.0332 -47.9004 59.4727 -46.0938 59.4727 -44.1895 C 59.4727 -41.1133 57.7637 -38.9648 54.248 -38.3789 C 54.7363 -38.0859 55.1758 -37.4023 55.3223 -36.8652 L 58.5449 -37.1094 C 60.2051 -37.207 61.2305 -37.793 61.2305 -39.6973 L 61.2305 -44.7266 C 61.2305 -46.2402 62.0605 -47.168 63.623 -47.168 C 65.1367 -47.168 66.1133 -46.2402 66.1133 -44.7266 L 66.1133 -38.6719 C 66.1133 -35.2051 64.502 -33.0078 61.1328 -32.7637 L 54.7852 -32.2754 C 54.541 -31.7383 54.0527 -31.2988 53.5645 -31.1035 L 62.207 -29.248 C 65.7227 -28.4668 66.9434 -26.6602 66.4551 -23.4863 L 65.0391 -14.2578 C 64.7949 -12.6953 64.0625 -11.7188 62.5 -11.7188 C 61.0352 -11.7188 59.8633 -12.793 60.1074 -14.6484 L 61.3281 -22.5586 C 61.5234 -23.584 61.2305 -24.2676 60.3516 -24.707 C 60.1074 -24.8047 59.9121 -24.8535 59.7168 -24.9023 C 59.7656 -24.6094 59.7656 -24.2676 59.7656 -24.0723 C 59.7656 -17.3828 54.7363 -11.084 48.8281 -11.084 C 42.9199 -11.084 37.8906 -17.3828 37.8906 -24.0723 C 37.8906 -24.2676 37.8906 -24.6094 37.9395 -24.9023 C 37.7441 -24.8535 37.5488 -24.8047 37.3047 -24.707 C 36.4258 -24.2676 36.1328 -23.584 36.3281 -22.5586 L 37.5488 -14.6484 C 37.793 -12.793 36.6211 -11.7188 35.1562 -11.7188 C 33.5938 -11.7188 32.8613 -12.6953 32.6172 -14.2578 Z"/>
  </g>
  <g id="Heavy-S" transform="matrix(1 0 0 1 2588.47 696)">
   <path d="M 48.2422 6.20117 C 70.9961 6.20117 89.5996 -12.4023 89.5996 -35.1562 C 89.5996 -57.9102 70.9961 -76.5625 48.1934 -76.5625 C 25.4395 -76.5625 6.83594 -57.9102 6.83594 -35.1562 C 6.83594 -12.4023 25.4395 6.20117 48.2422 6.20117 Z M 30.4199 -23.6816 C 29.9316 -26.709 31.1035 -28.418 34.4727 -29.1992 L 43.4082 -31.1523 C 42.8711 -31.3477 42.2852 -31.8848 41.9922 -32.5684 L 35.5957 -33.2031 C 32.373 -33.4473 30.8594 -35.498 30.8594 -38.8184 L 30.8594 -45.2148 C 30.8594 -46.6797 31.7871 -47.5586 33.2031 -47.5586 C 34.668 -47.5586 35.498 -46.6797 35.498 -45.2148 L 35.498 -39.7949 C 35.498 -37.9883 36.4746 -37.4023 38.0371 -37.3047 L 41.6016 -36.9629 C 41.748 -37.5488 42.2363 -38.2324 42.6758 -38.5254 C 39.1602 -39.1602 37.4023 -41.3086 37.4023 -44.4336 C 37.4023 -46.5332 37.9883 -48.4863 39.0137 -50.0977 L 38.5742 -50.4395 C 36.1328 -52.0996 35.6934 -54.4434 37.207 -57.2754 L 38.1836 -59.1797 C 38.7207 -60.1562 39.3066 -60.5957 40.2344 -60.5957 C 41.3574 -60.5957 42.2363 -59.7168 42.2363 -58.6426 C 42.2363 -58.1543 42.1875 -57.8613 41.8457 -57.373 L 41.1133 -56.0059 C 40.5762 -55.0293 40.625 -54.0527 41.3086 -53.5156 L 41.8457 -53.1738 C 43.6523 -54.4922 45.8984 -55.2734 48.2422 -55.2734 C 50.5371 -55.2734 52.7832 -54.4922 54.6387 -53.1738 L 55.127 -53.5156 C 55.8105 -54.0527 55.8594 -55.0293 55.3223 -56.0059 L 54.5898 -57.373 C 54.248 -57.8613 54.1992 -58.1543 54.1992 -58.6426 C 54.1992 -59.7168 55.0781 -60.5957 56.25 -60.5957 C 57.1289 -60.5957 57.7148 -60.1562 58.252 -59.1797 L 59.2285 -57.2754 C 60.791 -54.4434 60.3027 -52.0996 57.8613 -50.4395 L 57.4219 -50.0977 C 58.4961 -48.4863 59.0332 -46.5332 59.0332 -44.4336 C 59.0332 -41.3086 57.2754 -39.1602 53.7598 -38.5254 C 54.248 -38.2324 54.6875 -37.5488 54.834 -36.9629 L 58.3984 -37.3047 C 59.9609 -37.4512 60.9863 -37.9883 60.9863 -39.7949 L 60.9863 -45.2148 C 60.9863 -46.6797 61.7676 -47.5586 63.2324 -47.5586 C 64.6973 -47.5586 65.5762 -46.6797 65.5762 -45.2148 L 65.5762 -38.8184 C 65.5762 -35.498 64.0625 -33.4473 60.8398 -33.2031 L 54.4434 -32.5684 C 54.1504 -31.8848 53.5645 -31.3477 53.0273 -31.1523 L 62.0117 -29.1992 C 65.332 -28.418 66.5039 -26.709 66.0645 -23.6816 L 64.5508 -14.0137 C 64.3066 -12.5 63.623 -11.5723 62.1582 -11.5723 C 60.7422 -11.5723 59.6191 -12.5977 59.8633 -14.3555 L 61.1816 -22.8027 C 61.377 -23.877 61.0352 -24.5117 60.0586 -24.9512 C 59.7656 -25.0488 59.4727 -25.0977 59.2285 -25.1953 C 59.2773 -24.8047 59.3262 -24.3652 59.3262 -24.0234 C 59.3262 -17.2363 54.1992 -10.8398 48.2422 -10.8398 C 42.2363 -10.8398 37.1582 -17.2363 37.1582 -24.0234 C 37.1582 -24.3652 37.1582 -24.8047 37.207 -25.1953 C 36.9629 -25.0977 36.7188 -25.0488 36.377 -24.9512 C 35.4004 -24.5117 35.0586 -23.877 35.2539 -22.8027 L 36.5723 -14.3555 C 36.7676 -12.5977 35.6934 -11.5723 34.2773 -11.5723 C 32.8125 -11.5723 32.1289 -12.5 31.8848 -14.0137 Z"/>
  </g>
  <g id="Bold-S" transform="matrix(1 0 0 1 2292.44 696)">
   <path d="M 47.5586 5.51758 C 69.873 5.51758 88.2324 -12.8418 88.2324 -35.2051 C 88.2324 -57.5195 69.873 -75.8789 47.5098 -75.8789 C 25.1953 -75.8789 6.83594 -57.5195 6.83594 -35.2051 C 6.83594 -12.8418 25.1953 5.51758 47.5586 5.51758 Z M 29.4922 -23.9258 C 29.0527 -26.8066 30.1758 -28.418 33.3008 -29.1504 L 42.627 -31.2012 C 41.9922 -31.4453 41.3574 -32.0801 41.0156 -32.9102 L 34.5215 -33.6426 C 31.4941 -33.9844 30.0781 -35.8398 30.0781 -38.9648 L 30.0781 -45.8008 C 30.0781 -47.168 30.9082 -47.998 32.2754 -47.998 C 33.6426 -47.998 34.4238 -47.168 34.4238 -45.8008 L 34.4238 -39.8438 C 34.4238 -38.1836 35.3516 -37.6465 36.8164 -37.5488 L 40.7715 -37.0605 C 40.9668 -37.6953 41.4062 -38.3789 41.8945 -38.7207 C 38.3301 -39.3555 36.5723 -41.5527 36.5723 -44.7266 C 36.5723 -46.9727 37.207 -49.0723 38.4277 -50.8301 L 38.0859 -51.0742 C 35.7422 -52.6855 35.3516 -55.0781 36.7676 -57.8125 L 37.7441 -59.668 C 38.2324 -60.5957 38.8184 -60.9863 39.6973 -60.9863 C 40.8203 -60.9863 41.6504 -60.2051 41.6504 -59.1309 C 41.6504 -58.6426 41.6016 -58.3496 41.3086 -57.9102 L 40.5762 -56.543 C 39.9902 -55.5664 39.9414 -54.6387 40.625 -54.1016 L 41.1621 -53.7109 C 42.9688 -54.9805 45.3125 -55.7617 47.5586 -55.7617 C 49.7559 -55.7617 52.0996 -54.9805 53.9551 -53.7109 L 54.4434 -54.1016 C 55.127 -54.6387 55.0781 -55.5664 54.541 -56.543 L 53.8086 -57.9102 C 53.5156 -58.3496 53.4668 -58.6426 53.4668 -59.1309 C 53.4668 -60.2051 54.248 -60.9863 55.3711 -60.9863 C 56.25 -60.9863 56.8359 -60.5957 57.373 -59.668 L 58.3008 -57.8125 C 59.7656 -55.0781 59.3262 -52.6855 56.9824 -51.0742 L 56.6406 -50.8301 C 57.8613 -49.0723 58.5449 -46.9727 58.5449 -44.7266 C 58.5449 -41.5527 56.7871 -39.3555 53.1738 -38.7207 C 53.6621 -38.3789 54.1016 -37.6953 54.2969 -37.0605 L 58.252 -37.5488 C 59.7168 -37.6953 60.6445 -38.1836 60.6445 -39.8438 L 60.6445 -45.8008 C 60.6445 -47.168 61.4258 -47.998 62.793 -47.998 C 64.1602 -47.998 64.9902 -47.168 64.9902 -45.8008 L 64.9902 -38.9648 C 64.9902 -35.8398 63.5742 -33.9844 60.5469 -33.6426 L 54.0527 -32.9102 C 53.7109 -32.0801 53.0762 -31.4453 52.4902 -31.2012 L 61.7676 -29.1504 C 64.8926 -28.3691 66.0645 -26.8066 65.5762 -23.9258 L 64.0137 -13.7207 C 63.7695 -12.3047 63.1348 -11.4258 61.7676 -11.4258 C 60.4492 -11.4258 59.375 -12.4512 59.6191 -14.0625 L 60.9863 -23.0957 C 61.1816 -24.1699 60.8398 -24.8047 59.7168 -25.1953 C 59.3262 -25.3418 58.9844 -25.3906 58.6426 -25.4883 C 58.7402 -25.0488 58.7891 -24.5117 58.7891 -23.9746 C 58.7891 -17.041 53.6133 -10.5957 47.5586 -10.5957 C 41.4551 -10.5957 36.2793 -17.041 36.2793 -23.9746 C 36.2793 -24.5117 36.3281 -25.0488 36.4258 -25.4883 C 36.084 -25.3906 35.7422 -25.3418 35.3516 -25.1953 C 34.2285 -24.8047 33.8867 -24.1699 34.082 -23.0957 L 35.4492 -14.0625 C 35.6445 -12.4512 34.668 -11.4258 33.3008 -11.4258 C 31.9336 -11.4258 31.2988 -12.3047 31.0547 -13.7207 Z"/>
  </g>
  <g id="Semibold-S" transform="matrix(1 0 0 1 1996.2 696)">
   <path d="M 47.0703 5.0293 C 69.0918 5.0293 87.3047 -13.1348 87.3047 -35.2051 C 87.3047 -57.2266 69.0918 -75.4395 47.0215 -75.4395 C 25 -75.4395 6.83594 -57.2266 6.83594 -35.2051 C 6.83594 -13.1348 25.0488 5.0293 47.0703 5.0293 Z M 28.8574 -24.1211 C 28.4668 -26.8555 29.541 -28.3691 32.5684 -29.1016 L 42.041 -31.25 C 41.4551 -31.4941 40.7227 -32.1777 40.3809 -33.1543 L 33.7891 -33.9844 C 30.9082 -34.3262 29.541 -36.084 29.541 -39.0625 L 29.541 -46.1914 C 29.541 -47.5098 30.3223 -48.291 31.6406 -48.291 C 32.9102 -48.291 33.6914 -47.5098 33.6914 -46.1914 L 33.6914 -39.9414 C 33.6914 -38.3301 34.5703 -37.8418 35.9863 -37.6953 L 40.2344 -37.1582 C 40.3809 -37.8418 40.8691 -38.4766 41.3086 -38.8672 C 37.7441 -39.502 35.9375 -41.6992 35.9375 -44.9219 C 35.9375 -47.3145 36.7188 -49.5117 38.0371 -51.3672 L 37.793 -51.5625 C 35.498 -53.125 35.1074 -55.4688 36.4746 -58.1543 L 37.4023 -59.9609 C 37.8906 -60.8887 38.4766 -61.2793 39.3555 -61.2793 C 40.4297 -61.2793 41.2109 -60.498 41.2109 -59.4727 C 41.2109 -59.0332 41.1621 -58.7402 40.8691 -58.252 L 40.1367 -56.9336 C 39.5996 -55.957 39.4531 -55.0293 40.1367 -54.4922 L 40.6738 -54.0527 C 42.5293 -55.3223 44.873 -56.0547 47.0703 -56.0547 C 49.2676 -56.0547 51.6113 -55.3223 53.4668 -54.0527 L 54.0039 -54.4922 C 54.6875 -55.0293 54.541 -55.957 54.0039 -56.9336 L 53.2227 -58.252 C 52.9785 -58.7402 52.9297 -59.0332 52.9297 -59.4727 C 52.9297 -60.498 53.7109 -61.2793 54.7852 -61.2793 C 55.6152 -61.2793 56.2012 -60.8887 56.7383 -59.9609 L 57.666 -58.1543 C 59.082 -55.5176 58.6426 -53.125 56.3477 -51.5625 L 56.1035 -51.3672 C 57.4219 -49.5117 58.1543 -47.3145 58.1543 -44.9219 C 58.1543 -41.6992 56.3965 -39.4531 52.832 -38.8672 C 53.2715 -38.4766 53.7109 -37.8418 53.9062 -37.1582 L 58.1543 -37.6953 C 59.5215 -37.8418 60.4492 -38.3301 60.4492 -39.9414 L 60.4492 -46.1914 C 60.4492 -47.5098 61.1816 -48.291 62.5 -48.291 C 63.8184 -48.291 64.5996 -47.5098 64.5996 -46.1914 L 64.5996 -39.0625 C 64.5996 -36.084 63.2324 -34.3262 60.3027 -33.9844 L 53.7598 -33.1543 C 53.418 -32.1777 52.6855 -31.4941 52.0508 -31.25 L 61.5723 -29.1016 C 64.5996 -28.3691 65.7227 -26.8555 65.2832 -24.1211 L 63.623 -13.5254 C 63.4277 -12.207 62.793 -11.3281 61.4746 -11.3281 C 60.2051 -11.3281 59.2285 -12.3047 59.4727 -13.8672 L 60.8887 -23.291 C 61.084 -24.4141 60.6934 -24.9512 59.4727 -25.3906 C 59.0332 -25.4883 58.6426 -25.5859 58.252 -25.7324 C 58.3984 -25.1953 58.4473 -24.5605 58.4473 -23.9258 C 58.4473 -16.9434 53.2227 -10.4004 47.0703 -10.4004 C 40.918 -10.4004 35.6934 -16.9434 35.6934 -23.9258 C 35.6934 -24.5605 35.7422 -25.1953 35.8887 -25.7324 C 35.498 -25.5859 35.0586 -25.4883 34.668 -25.3906 C 33.3984 -24.9512 33.0566 -24.4141 33.252 -23.291 L 34.668 -13.8672 C 34.8633 -12.3047 33.9355 -11.3281 32.666 -11.3281 C 31.3477 -11.3281 30.7129 -12.207 30.5176 -13.5254 Z"/>
  </g>
  <g id="Medium-S" transform="matrix(1 0 0 1 1699.83 696)">
   <path d="M 46.7285 4.6875 C 68.5547 4.6875 86.6211 -13.3789 86.6211 -35.2051 C 86.6211 -57.0312 68.5059 -75.0977 46.6797 -75.0977 C 24.8535 -75.0977 6.83594 -57.0312 6.83594 -35.2051 C 6.83594 -13.3789 24.9023 4.6875 46.7285 4.6875 Z M 28.418 -24.2188 C 27.9785 -26.9043 29.0527 -28.3691 31.9824 -29.0527 L 41.6504 -31.2988 C 41.0156 -31.543 40.2344 -32.2754 39.8438 -33.3496 L 33.252 -34.2285 C 30.4688 -34.5703 29.1016 -36.2793 29.1016 -39.1113 L 29.1016 -46.4844 C 29.1016 -47.7539 29.8828 -48.4863 31.1523 -48.4863 C 32.373 -48.4863 33.1055 -47.7539 33.1055 -46.4844 L 33.1055 -39.9902 C 33.1055 -38.4277 34.0332 -37.9395 35.3516 -37.793 L 39.7949 -37.207 C 39.9902 -37.8906 40.4297 -38.5742 40.918 -38.9648 C 37.3047 -39.5996 35.498 -41.7969 35.498 -45.0684 C 35.498 -47.5586 36.3281 -49.8535 37.7441 -51.7578 L 37.5488 -51.9043 C 35.3027 -53.418 34.9121 -55.8105 36.2305 -58.3984 L 37.1582 -60.2051 C 37.6465 -61.1328 38.2324 -61.4746 39.0625 -61.4746 C 40.1367 -61.4746 40.8691 -60.7422 40.8691 -59.7168 C 40.8691 -59.2773 40.8203 -58.9844 40.5762 -58.5449 L 39.8438 -57.2266 C 39.3066 -56.25 39.1113 -55.3223 39.7461 -54.7363 L 40.332 -54.2969 C 42.1875 -55.5664 44.5801 -56.2988 46.7285 -56.2988 C 48.8281 -56.2988 51.2207 -55.5664 53.0762 -54.2969 L 53.6621 -54.7363 C 54.3457 -55.3223 54.1504 -56.25 53.5645 -57.2266 L 52.832 -58.5449 C 52.5879 -58.9844 52.5391 -59.2773 52.5391 -59.7168 C 52.5391 -60.7422 53.2715 -61.4746 54.3457 -61.4746 C 55.1758 -61.4746 55.7129 -61.084 56.25 -60.2051 L 57.1777 -58.3984 C 58.5938 -55.8105 58.1055 -53.418 55.8594 -51.9043 L 55.7129 -51.7578 C 57.0801 -49.8535 57.9102 -47.5586 57.9102 -45.0684 C 57.9102 -41.7969 56.1035 -39.5996 52.5391 -38.9648 C 52.9785 -38.5742 53.418 -37.8906 53.6133 -37.207 L 58.0566 -37.793 C 59.4238 -37.9883 60.3027 -38.4277 60.3027 -39.9902 L 60.3027 -46.4844 C 60.3027 -47.7539 61.0352 -48.4863 62.2559 -48.4863 C 63.5254 -48.4863 64.3066 -47.7539 64.3066 -46.4844 L 64.3066 -39.1113 C 64.3066 -36.2793 62.9883 -34.5703 60.1562 -34.2285 L 53.5645 -33.3496 C 53.1738 -32.2754 52.4414 -31.543 51.7578 -31.2988 L 61.4746 -29.0527 C 64.3555 -28.3203 65.4785 -26.9043 65.0391 -24.2188 L 63.3301 -13.3789 C 63.1348 -12.1094 62.5 -11.2793 61.2793 -11.2793 C 60.0098 -11.2793 59.082 -12.207 59.3262 -13.6719 L 60.791 -23.4375 C 60.9863 -24.5605 60.5957 -25.0977 59.2773 -25.5371 C 58.8379 -25.6348 58.3984 -25.7324 57.959 -25.8789 C 58.1055 -25.3418 58.1543 -24.6094 58.1543 -23.877 C 58.1543 -16.8457 52.8809 -10.2539 46.7285 -10.2539 C 40.5273 -10.2539 35.2539 -16.8457 35.2539 -23.877 C 35.2539 -24.6094 35.3027 -25.3418 35.4492 -25.8789 C 35.0098 -25.7324 34.5703 -25.6348 34.1309 -25.5371 C 32.8125 -25.0977 32.4219 -24.5605 32.6172 -23.4375 L 34.082 -13.6719 C 34.2773 -12.207 33.3984 -11.2793 32.1289 -11.2793 C 30.9082 -11.2793 30.2734 -12.1094 30.0781 -13.3789 Z"/>
  </g>
  <g id="Regular-S" transform="matrix(1 0 0 1 1403.58 696)">
   <path d="M 46.2402 4.19922 C 67.7734 4.19922 85.6934 -13.6719 85.6934 -35.2051 C 85.6934 -56.7383 67.7246 -74.6094 46.1914 -74.6094 C 24.707 -74.6094 6.83594 -56.7383 6.83594 -35.2051 C 6.83594 -13.6719 24.7559 4.19922 46.2402 4.19922 Z M 27.7832 -24.4141 C 27.3926 -26.9531 28.418 -28.3691 31.2012 -29.0527 L 41.1133 -31.3477 C 40.4297 -31.5918 39.5996 -32.4219 39.1602 -33.5938 L 32.5684 -34.5215 C 29.834 -34.9121 28.6133 -36.5234 28.6133 -39.2578 L 28.6133 -46.875 C 28.6133 -48.0469 29.2969 -48.7793 30.5176 -48.7793 C 31.6895 -48.7793 32.373 -48.0469 32.373 -46.875 L 32.373 -40.0391 C 32.373 -38.5742 33.252 -38.1348 34.5215 -37.9883 L 39.2578 -37.3047 C 39.4531 -38.0371 39.8926 -38.6719 40.332 -39.0625 C 36.7188 -39.6973 34.9121 -41.9434 34.9121 -45.2637 C 34.9121 -47.8516 35.8398 -50.293 37.3047 -52.2461 L 37.207 -52.3438 C 35.0586 -53.8574 34.668 -56.2012 35.9375 -58.7891 L 36.8652 -60.5469 C 37.3535 -61.4258 37.8906 -61.7676 38.7207 -61.7676 C 39.7461 -61.7676 40.4785 -61.084 40.4785 -60.0586 C 40.4785 -59.6191 40.4297 -59.375 40.1855 -58.9355 L 39.4531 -57.6172 C 38.916 -56.5918 38.623 -55.7129 39.2578 -55.127 L 39.8438 -54.6875 C 41.748 -55.9082 44.1406 -56.5918 46.2402 -56.5918 C 48.3398 -56.5918 50.7324 -55.9082 52.6367 -54.6875 L 53.2227 -55.127 C 53.8574 -55.7129 53.6133 -56.5918 53.0273 -57.6172 L 52.2949 -58.9355 C 52.0508 -59.375 52.002 -59.6191 52.002 -60.0586 C 52.002 -61.084 52.7344 -61.7676 53.7598 -61.7676 C 54.5898 -61.7676 55.0781 -61.377 55.6152 -60.5469 L 56.543 -58.7891 C 57.9102 -56.25 57.4219 -53.8574 55.2734 -52.3438 L 55.1758 -52.2461 C 56.6406 -50.293 57.5684 -47.8516 57.5684 -45.2637 C 57.5684 -41.9434 55.7617 -39.6973 52.1484 -39.0625 C 52.5879 -38.6719 53.0273 -38.0371 53.2227 -37.3047 L 57.959 -37.9883 C 59.2285 -38.1836 60.1074 -38.5742 60.1074 -40.0391 L 60.1074 -46.875 C 60.1074 -48.0469 60.791 -48.7793 61.9629 -48.7793 C 63.1836 -48.7793 63.8672 -48.0469 63.8672 -46.875 L 63.8672 -39.2578 C 63.8672 -36.5234 62.6465 -34.9121 59.9121 -34.5215 L 53.3203 -33.5938 C 52.8809 -32.4219 52.0508 -31.5918 51.3672 -31.3477 L 61.2793 -29.0527 C 64.0625 -28.3203 65.1367 -26.9531 64.6973 -24.4141 L 62.9395 -13.1836 C 62.7441 -11.9629 62.207 -11.1816 60.9863 -11.1816 C 59.8145 -11.1816 58.8867 -12.0605 59.1309 -13.4766 L 60.6445 -23.6328 C 60.8887 -24.8047 60.4492 -25.293 59.0332 -25.6836 C 58.5449 -25.8301 58.0566 -25.9277 57.5684 -26.0742 C 57.7637 -25.4883 57.8125 -24.707 57.8125 -23.8281 C 57.8125 -16.748 52.4902 -10.0586 46.2402 -10.0586 C 39.9902 -10.0586 34.668 -16.748 34.668 -23.8281 C 34.668 -24.707 34.7168 -25.4883 34.9121 -26.0742 C 34.4238 -25.9277 33.9355 -25.8301 33.4473 -25.6836 C 32.0312 -25.293 31.5918 -24.8047 31.8359 -23.6328 L 33.3496 -13.4766 C 33.5449 -12.0605 32.666 -11.1816 31.4941 -11.1816 C 30.2734 -11.1816 29.7363 -11.9629 29.541 -13.1836 Z"/>
  </g>
  <g id="Light-S" transform="matrix(1 0 0 1 1107.6 696)">
   <path d="M 45.5078 3.4668 C 66.6992 3.4668 84.2285 -14.0137 84.2285 -35.2051 C 84.2285 -56.3965 66.6504 -73.877 45.5078 -73.877 C 24.3164 -73.877 6.83594 -56.3965 6.83594 -35.2051 C 6.83594 -14.0137 24.3652 3.4668 45.5078 3.4668 Z M 28.1738 -24.8535 C 27.7344 -27.3926 28.8086 -28.8086 31.543 -29.4922 L 40.3809 -31.543 C 39.6484 -31.9336 38.8672 -32.8613 38.5742 -34.082 L 32.8125 -34.9121 C 30.0781 -35.3027 28.8574 -36.7188 28.8574 -39.4043 L 28.8574 -46.6309 C 28.8574 -47.6562 29.4922 -48.2422 30.5176 -48.2422 C 31.4453 -48.2422 32.0801 -47.6074 32.0801 -46.6309 L 32.0801 -39.9902 C 32.0801 -38.5254 32.8125 -38.0371 34.1797 -37.8418 L 38.6719 -37.207 C 38.8672 -37.8906 39.3066 -38.5254 39.6973 -38.8672 C 36.2305 -39.5508 34.5215 -41.748 34.5215 -44.9707 C 34.5215 -47.7051 35.498 -50.2441 37.2559 -52.2461 L 37.1582 -52.3438 C 35.1074 -53.8574 34.8145 -55.957 36.1816 -58.3496 L 37.5488 -60.5469 C 37.9395 -61.2793 38.4277 -61.5723 39.1113 -61.5723 C 39.9902 -61.5723 40.5762 -60.9863 40.5762 -60.1562 C 40.5762 -59.7656 40.5273 -59.5215 40.2832 -59.1309 L 38.9648 -57.1777 C 38.3301 -56.1523 38.1348 -55.3223 38.916 -54.6387 L 39.4531 -54.248 C 41.2598 -55.4199 43.5059 -56.0547 45.5078 -56.0547 C 47.5098 -56.0547 49.7559 -55.4199 51.6113 -54.248 L 52.0996 -54.6387 C 52.8809 -55.3223 52.7344 -56.1523 52.0508 -57.1777 L 50.7324 -59.1309 C 50.4883 -59.5215 50.4395 -59.7656 50.4395 -60.1562 C 50.4395 -60.9863 51.0742 -61.5723 51.9043 -61.5723 C 52.5879 -61.5723 53.0273 -61.2305 53.4668 -60.5469 L 54.8828 -58.3496 C 56.2988 -56.0059 55.9082 -53.8574 53.8574 -52.3438 L 53.7598 -52.2461 C 55.5176 -50.2441 56.543 -47.7051 56.543 -44.9707 C 56.543 -41.6992 54.7363 -39.5508 51.3184 -38.8672 C 51.7578 -38.4766 52.1484 -37.8906 52.3438 -37.207 L 56.8359 -37.8418 C 58.2031 -38.0371 58.9844 -38.5254 58.9844 -39.9902 L 58.9844 -46.6309 C 58.9844 -47.6074 59.5703 -48.2422 60.5469 -48.2422 C 61.5723 -48.2422 62.1582 -47.6074 62.1582 -46.6309 L 62.1582 -39.4043 C 62.1582 -36.7188 60.9375 -35.3027 58.2031 -34.9121 L 52.4414 -34.082 C 52.1484 -32.8613 51.3672 -31.8848 50.6348 -31.543 L 59.4727 -29.4922 C 62.2559 -28.7598 63.2812 -27.3926 62.8906 -24.8535 L 61.1328 -13.8184 C 60.9863 -12.793 60.498 -12.1582 59.5215 -12.1582 C 58.4961 -12.1582 57.7637 -12.8906 57.959 -14.0625 L 59.5215 -24.3164 C 59.7168 -25.5859 59.3262 -26.2207 57.9102 -26.5625 C 57.373 -26.709 56.7871 -26.8555 56.25 -27.002 C 56.6406 -26.2207 56.7871 -25.2441 56.7871 -24.1211 C 56.7871 -17.2363 51.5137 -10.7422 45.5078 -10.7422 C 39.502 -10.7422 34.2773 -17.2363 34.2773 -24.1211 C 34.2773 -25.2441 34.4238 -26.2207 34.7656 -27.002 C 34.2285 -26.8555 33.6426 -26.709 33.1055 -26.5625 C 31.6895 -26.2207 31.2988 -25.5859 31.4941 -24.3164 L 33.0566 -14.0625 C 33.252 -12.8906 32.5195 -12.1582 31.4941 -12.1582 C 30.5176 -12.1582 30.0293 -12.793 29.8828 -13.8184 Z"/>
  </g>
  <g id="Thin-S" transform="matrix(1 0 0 1 811.867 696)">
   <path d="M 44.5801 2.53906 C 65.2832 2.53906 82.2754 -14.502 82.2754 -35.2051 C 82.2754 -55.9082 65.2344 -72.9492 44.5312 -72.9492 C 23.8281 -72.9492 6.83594 -55.9082 6.83594 -35.2051 C 6.83594 -14.502 23.877 2.53906 44.5801 2.53906 Z M 28.6621 -25.4395 C 28.2227 -27.9297 29.2969 -29.3945 31.9824 -30.0293 L 39.4043 -31.7871 C 38.5742 -32.373 37.9395 -33.4473 37.7441 -34.7168 L 33.1543 -35.4004 C 30.3711 -35.791 29.1992 -37.0117 29.1992 -39.5508 L 29.1992 -46.2891 C 29.1992 -47.0703 29.6875 -47.5098 30.4688 -47.5098 C 31.2012 -47.5098 31.6406 -47.0703 31.6406 -46.2891 L 31.6406 -39.8926 C 31.6406 -38.4766 32.2266 -37.8906 33.7402 -37.6953 L 37.9395 -37.1094 C 38.1348 -37.7441 38.4766 -38.2812 38.8184 -38.623 C 35.6445 -39.4043 33.9355 -41.5039 33.9355 -44.5801 C 33.9355 -47.4609 35.1074 -50.2441 37.1582 -52.1973 L 37.0605 -52.2949 C 35.1562 -53.8086 34.9609 -55.6641 36.4258 -57.8125 L 38.4766 -60.5957 C 38.7695 -61.084 39.1113 -61.3281 39.5996 -61.3281 C 40.2344 -61.3281 40.7227 -60.8398 40.7227 -60.2539 C 40.7227 -59.9609 40.625 -59.668 40.4297 -59.375 L 38.3301 -56.6406 C 37.5977 -55.5664 37.4512 -54.7363 38.4766 -54.0039 L 38.8672 -53.7109 C 40.5762 -54.7852 42.627 -55.3711 44.5312 -55.3711 C 46.4844 -55.3711 48.4863 -54.7852 50.2441 -53.7109 L 50.6348 -54.0039 C 51.6113 -54.7363 51.5137 -55.5664 50.7812 -56.6406 L 48.6816 -59.375 C 48.4375 -59.668 48.3887 -59.9609 48.3887 -60.2539 C 48.3887 -60.8887 48.8281 -61.3281 49.4629 -61.3281 C 50 -61.3281 50.3418 -61.084 50.6348 -60.5957 L 52.6367 -57.8125 C 54.1504 -55.6641 53.9551 -53.8086 52.0508 -52.2949 L 51.9531 -52.1973 C 54.0039 -50.2441 55.1758 -47.4609 55.1758 -44.5801 C 55.1758 -41.4062 53.418 -39.3066 50.293 -38.623 C 50.6348 -38.2324 50.9766 -37.6953 51.1719 -37.1094 L 55.3711 -37.6953 C 56.8359 -37.8906 57.4707 -38.4766 57.4707 -39.8926 L 57.4707 -46.2891 C 57.4707 -47.0703 57.9102 -47.5098 58.6426 -47.5098 C 59.4238 -47.5098 59.8633 -47.0703 59.8633 -46.2891 L 59.8633 -39.5508 C 59.8633 -37.0117 58.7402 -35.791 55.957 -35.4004 L 51.3184 -34.7168 C 51.1719 -33.3984 50.4883 -32.3242 49.6582 -31.7871 L 57.1289 -30.0293 C 59.8145 -29.3945 60.8398 -27.9297 60.4492 -25.4395 L 58.7891 -14.5996 C 58.6426 -13.8672 58.252 -13.4277 57.5195 -13.4277 C 56.7871 -13.4277 56.25 -14.0137 56.3477 -14.8438 L 58.0078 -25.1953 C 58.2031 -26.6602 57.8125 -27.3926 56.3965 -27.7344 C 55.7617 -27.8809 55.127 -28.0273 54.541 -28.1738 C 55.127 -27.1973 55.4199 -25.9766 55.4199 -24.5605 C 55.4199 -17.8711 50.2441 -11.6211 44.5312 -11.6211 C 38.8184 -11.6211 33.6914 -17.8711 33.6914 -24.5605 C 33.6914 -25.9766 33.9844 -27.1973 34.5703 -28.1738 C 33.9355 -28.0273 33.3008 -27.8809 32.7148 -27.7344 C 31.2988 -27.3926 30.8594 -26.6602 31.1035 -25.1953 L 32.7148 -14.8438 C 32.8613 -14.0137 32.3242 -13.4277 31.543 -13.4277 C 30.8594 -13.4277 30.4688 -13.8672 30.3223 -14.5996 Z"/>
  </g>
  <g id="Ultralight-S" transform="matrix(1 0 0 1 515.644 696)">
   <path d="M 44.043 2.00195 C 64.502 2.00195 81.2988 -14.7461 81.2988 -35.2051 C 81.2988 -55.6641 64.502 -72.4121 44.043 -72.4121 C 23.584 -72.4121 6.83594 -55.6641 6.83594 -35.2051 C 6.83594 -14.7461 23.584 2.00195 44.043 2.00195 Z M 28.9062 -25.7812 C 28.4668 -28.2715 29.541 -29.7363 32.2266 -30.3711 L 38.916 -31.8848 C 38.0371 -32.6172 37.4512 -33.7891 37.3535 -35.0586 L 33.3008 -35.6445 C 30.5176 -36.0352 29.3945 -37.1582 29.3945 -39.6973 L 29.3945 -46.1426 C 29.3945 -46.7773 29.7852 -47.168 30.4199 -47.168 C 31.0547 -47.168 31.3965 -46.7285 31.3965 -46.1426 L 31.3965 -39.8438 C 31.3965 -38.4277 31.9336 -37.793 33.4961 -37.5977 L 37.5488 -37.0117 C 37.7441 -37.6465 38.0371 -38.1836 38.3789 -38.5254 C 35.3027 -39.2578 33.6426 -41.3574 33.6426 -44.3848 C 33.6426 -47.3633 34.9121 -50.1953 37.1094 -52.1973 L 37.0117 -52.2949 C 35.2051 -53.8086 35.0586 -55.5176 36.5723 -57.5195 L 38.9648 -60.5957 C 39.1602 -60.9863 39.4531 -61.1816 39.8926 -61.1816 C 40.3809 -61.1816 40.8203 -60.7422 40.8203 -60.3027 C 40.8203 -60.0586 40.7227 -59.8145 40.5273 -59.5215 L 37.9883 -56.3477 C 37.207 -55.2246 37.1582 -54.4434 38.2324 -53.7109 L 38.5742 -53.418 C 40.2832 -54.4434 42.1875 -55.0293 44.043 -55.0293 C 45.9473 -55.0293 47.8516 -54.4434 49.5117 -53.418 L 49.8535 -53.7109 C 50.9766 -54.4434 50.9277 -55.2246 50.0977 -56.3477 L 47.6074 -59.5215 C 47.4121 -59.8145 47.3145 -60.0586 47.3145 -60.3027 C 47.3145 -60.791 47.7051 -61.1816 48.2422 -61.1816 C 48.6328 -61.1816 48.9258 -60.9375 49.1699 -60.5957 L 51.5137 -57.5195 C 53.0762 -55.5176 52.9297 -53.8086 51.0742 -52.2949 L 50.9766 -52.1973 C 53.2227 -50.1953 54.4434 -47.3633 54.4434 -44.3848 C 54.4434 -41.2598 52.7344 -39.209 49.7559 -38.4766 C 50.0977 -38.1348 50.3906 -37.5977 50.5859 -37.0117 L 54.5898 -37.5977 C 56.1523 -37.793 56.7383 -38.4277 56.7383 -39.8438 L 56.7383 -46.1426 C 56.7383 -46.7285 57.0801 -47.168 57.666 -47.168 C 58.3496 -47.168 58.6914 -46.7285 58.6914 -46.1426 L 58.6914 -39.6973 C 58.6914 -37.1582 57.5684 -36.0352 54.7852 -35.6445 L 50.7812 -35.0586 C 50.6348 -33.7402 50 -32.5195 49.1699 -31.8848 L 55.9082 -30.3711 C 58.5938 -29.7363 59.6191 -28.2715 59.2285 -25.7812 L 57.5684 -15.0391 C 57.4707 -14.4043 57.0801 -14.1113 56.543 -14.1113 C 55.9082 -14.1113 55.4688 -14.5996 55.5664 -15.2344 L 57.2266 -25.6348 C 57.4707 -27.1973 57.0312 -27.9785 55.6152 -28.3203 C 54.9805 -28.4668 54.2969 -28.6621 53.6621 -28.8086 C 54.3945 -27.7344 54.6875 -26.3672 54.6875 -24.7559 C 54.6875 -18.2129 49.6094 -12.1094 44.043 -12.1094 C 38.5254 -12.1094 33.3984 -18.2129 33.3984 -24.7559 C 33.3984 -26.3672 33.7402 -27.7344 34.4238 -28.8086 C 33.8379 -28.6621 33.1543 -28.4668 32.5195 -28.3203 C 31.1035 -27.9785 30.6641 -27.1973 30.9082 -25.6348 L 32.5684 -15.2344 C 32.666 -14.5996 32.1777 -14.1113 31.5918 -14.1113 C 31.0059 -14.1113 30.6641 -14.4043 30.5664 -15.0391 Z"/>
  </g>
 </g>
</svg>
