<?xml version="1.0" encoding="UTF-8"?>
<!--Generator: Apple Native CoreSVG 148-->
<!DOCTYPE svg
PUBLIC "-//W3C//DTD SVG 1.1//EN"
       "http://www.w3.org/Graphics/SVG/1.1/DTD/svg11.dtd">
<svg version="1.1" xmlns="http://www.w3.org/2000/svg" xmlns:xlink="http://www.w3.org/1999/xlink" width="3300" height="2200">
 <!--glyph: "uni100145.medium", point size: 100.000000, font version: "Version 16.0d11e1", template writer version: "8"-->
 <g id="Notes">
  <rect height="2200" id="artboard" style="fill:white;opacity:1" width="3300" x="0" y="0"/>
  <line id="" style="fill:none;stroke:black;opacity:1;stroke-width:0.5;" x1="263" x2="3036" y1="292" y2="292"/>
  <text style="stroke:none;fill:black;font-family:-apple-system,&quot;SF Pro Display&quot;,&quot;SF Pro Text&quot;,Helvetica,sans-serif;font-weight:bold;" transform="matrix(1 0 0 1 263 322)">Weight/Scale Variations</text>
  <text style="stroke:none;fill:black;font-family:-apple-system,&quot;SF Pro Display&quot;,&quot;SF Pro Text&quot;,Helvetica,sans-serif;text-anchor:middle;" transform="matrix(1 0 0 1 559.711 322)">Ultralight</text>
  <text style="stroke:none;fill:black;font-family:-apple-system,&quot;SF Pro Display&quot;,&quot;SF Pro Text&quot;,Helvetica,sans-serif;text-anchor:middle;" transform="matrix(1 0 0 1 856.422 322)">Thin</text>
  <text style="stroke:none;fill:black;font-family:-apple-system,&quot;SF Pro Display&quot;,&quot;SF Pro Text&quot;,Helvetica,sans-serif;text-anchor:middle;" transform="matrix(1 0 0 1 1153.13 322)">Light</text>
  <text style="stroke:none;fill:black;font-family:-apple-system,&quot;SF Pro Display&quot;,&quot;SF Pro Text&quot;,Helvetica,sans-serif;text-anchor:middle;" transform="matrix(1 0 0 1 1449.84 322)">Regular</text>
  <text style="stroke:none;fill:black;font-family:-apple-system,&quot;SF Pro Display&quot;,&quot;SF Pro Text&quot;,Helvetica,sans-serif;text-anchor:middle;" transform="matrix(1 0 0 1 1746.56 322)">Medium</text>
  <text style="stroke:none;fill:black;font-family:-apple-system,&quot;SF Pro Display&quot;,&quot;SF Pro Text&quot;,Helvetica,sans-serif;text-anchor:middle;" transform="matrix(1 0 0 1 2043.27 322)">Semibold</text>
  <text style="stroke:none;fill:black;font-family:-apple-system,&quot;SF Pro Display&quot;,&quot;SF Pro Text&quot;,Helvetica,sans-serif;text-anchor:middle;" transform="matrix(1 0 0 1 2339.98 322)">Bold</text>
  <text style="stroke:none;fill:black;font-family:-apple-system,&quot;SF Pro Display&quot;,&quot;SF Pro Text&quot;,Helvetica,sans-serif;text-anchor:middle;" transform="matrix(1 0 0 1 2636.69 322)">Heavy</text>
  <text style="stroke:none;fill:black;font-family:-apple-system,&quot;SF Pro Display&quot;,&quot;SF Pro Text&quot;,Helvetica,sans-serif;text-anchor:middle;" transform="matrix(1 0 0 1 2933.4 322)">Black</text>
  <line id="" style="fill:none;stroke:black;opacity:1;stroke-width:0.5;" x1="263" x2="3036" y1="1903" y2="1903"/>
  <g id="" transform="matrix(1 0 0 1 263 1933)">
   <path d="M 9.24805 0.830078 C 13.5547 0.830078 17.1387 -2.74414 17.1387 -7.05078 C 17.1387 -11.3574 13.5449 -14.9316 9.23828 -14.9316 C 4.94141 -14.9316 1.36719 -11.3574 1.36719 -7.05078 C 1.36719 -2.74414 4.95117 0.830078 9.24805 0.830078 Z M 9.24805 -0.654297 C 5.70312 -0.654297 2.87109 -3.49609 2.87109 -7.05078 C 2.87109 -10.6055 5.69336 -13.4473 9.23828 -13.4473 C 12.793 -13.4473 15.6348 -10.6055 15.6445 -7.05078 C 15.6543 -3.49609 12.8027 -0.654297 9.24805 -0.654297 Z M 9.22852 -3.62305 C 9.69727 -3.62305 9.9707 -3.93555 9.9707 -4.45312 L 9.9707 -6.31836 L 12.002 -6.31836 C 12.5 -6.31836 12.832 -6.57227 12.832 -7.04102 C 12.832 -7.51953 12.5195 -7.7832 12.002 -7.7832 L 9.9707 -7.7832 L 9.9707 -9.81445 C 9.9707 -10.332 9.69727 -10.6543 9.22852 -10.6543 C 8.75977 -10.6543 8.50586 -10.3125 8.50586 -9.81445 L 8.50586 -7.7832 L 6.49414 -7.7832 C 5.97656 -7.7832 5.64453 -7.51953 5.64453 -7.04102 C 5.64453 -6.57227 5.99609 -6.31836 6.49414 -6.31836 L 8.50586 -6.31836 L 8.50586 -4.45312 C 8.50586 -3.95508 8.75977 -3.62305 9.22852 -3.62305 Z"/>
  </g>
  <g id="" transform="matrix(1 0 0 1 281.506 1933)">
   <path d="M 11.709 2.91016 C 17.1582 2.91016 21.6699 -1.61133 21.6699 -7.05078 C 21.6699 -12.5 17.1484 -17.0117 11.6992 -17.0117 C 6.25977 -17.0117 1.74805 -12.5 1.74805 -7.05078 C 1.74805 -1.61133 6.26953 2.91016 11.709 2.91016 Z M 11.709 1.25 C 7.09961 1.25 3.41797 -2.44141 3.41797 -7.05078 C 3.41797 -11.6602 7.08984 -15.3516 11.6992 -15.3516 C 16.3086 -15.3516 20 -11.6602 20.0098 -7.05078 C 20.0195 -2.44141 16.3184 1.25 11.709 1.25 Z M 11.6797 -2.66602 C 12.207 -2.66602 12.5098 -3.01758 12.5098 -3.59375 L 12.5098 -6.23047 L 15.3223 -6.23047 C 15.8691 -6.23047 16.25 -6.51367 16.25 -7.03125 C 16.25 -7.55859 15.8887 -7.86133 15.3223 -7.86133 L 12.5098 -7.86133 L 12.5098 -10.6836 C 12.5098 -11.25 12.207 -11.6113 11.6797 -11.6113 C 11.1621 -11.6113 10.8789 -11.2305 10.8789 -10.6836 L 10.8789 -7.86133 L 8.07617 -7.86133 C 7.50977 -7.86133 7.13867 -7.55859 7.13867 -7.03125 C 7.13867 -6.51367 7.5293 -6.23047 8.07617 -6.23047 L 10.8789 -6.23047 L 10.8789 -3.59375 C 10.8789 -3.03711 11.1621 -2.66602 11.6797 -2.66602 Z"/>
  </g>
  <g id="" transform="matrix(1 0 0 1 304.924 1933)">
   <path d="M 14.9707 5.66406 C 21.9336 5.66406 27.6953 -0.0976562 27.6953 -7.05078 C 27.6953 -14.0137 21.9238 -19.7754 14.9609 -19.7754 C 8.00781 -19.7754 2.25586 -14.0137 2.25586 -7.05078 C 2.25586 -0.0976562 8.01758 5.66406 14.9707 5.66406 Z M 14.9707 3.84766 C 8.93555 3.84766 4.08203 -1.01562 4.08203 -7.05078 C 4.08203 -13.0957 8.92578 -17.9492 14.9609 -17.9492 C 21.0059 -17.9492 25.8594 -13.0957 25.8691 -7.05078 C 25.8789 -1.01562 21.0156 3.84766 14.9707 3.84766 Z M 14.9414 -1.38672 C 15.5176 -1.38672 15.8594 -1.77734 15.8594 -2.38281 L 15.8594 -6.13281 L 19.7754 -6.13281 C 20.3711 -6.13281 20.7812 -6.46484 20.7812 -7.02148 C 20.7812 -7.59766 20.3906 -7.93945 19.7754 -7.93945 L 15.8594 -7.93945 L 15.8594 -11.8652 C 15.8594 -12.4805 15.5176 -12.8711 14.9414 -12.8711 C 14.375 -12.8711 14.0527 -12.4609 14.0527 -11.8652 L 14.0527 -7.93945 L 10.1465 -7.93945 C 9.53125 -7.93945 9.13086 -7.59766 9.13086 -7.02148 C 9.13086 -6.46484 9.55078 -6.13281 10.1465 -6.13281 L 14.0527 -6.13281 L 14.0527 -2.38281 C 14.0527 -1.79688 14.375 -1.38672 14.9414 -1.38672 Z"/>
  </g>
  <text style="stroke:none;fill:black;font-family:-apple-system,&quot;SF Pro Display&quot;,&quot;SF Pro Text&quot;,Helvetica,sans-serif;font-weight:bold;" transform="matrix(1 0 0 1 263 1953)">Design Variations</text>
  <text style="stroke:none;fill:black;font-family:-apple-system,&quot;SF Pro Display&quot;,&quot;SF Pro Text&quot;,Helvetica,sans-serif;" transform="matrix(1 0 0 1 263 1971)">Symbols are supported in up to nine weights and three scales.</text>
  <text style="stroke:none;fill:black;font-family:-apple-system,&quot;SF Pro Display&quot;,&quot;SF Pro Text&quot;,Helvetica,sans-serif;" transform="matrix(1 0 0 1 263 1989)">For optimal layout with text and other symbols, vertically align</text>
  <text style="stroke:none;fill:black;font-family:-apple-system,&quot;SF Pro Display&quot;,&quot;SF Pro Text&quot;,Helvetica,sans-serif;" transform="matrix(1 0 0 1 263 2007)">symbols with the adjacent text.</text>
  <line id="" style="fill:none;stroke:#00AEEF;stroke-width:0.5;opacity:1.0;" x1="776" x2="776" y1="1919" y2="1933"/>
  <g id="" transform="matrix(1 0 0 1 776 1933)">
   <path d="M 3.31055 0.126953 C 3.82812 0.126953 4.08203 -0.0683594 4.26758 -0.605469 L 5.52734 -4.0625 L 11.2891 -4.0625 L 12.5488 -0.605469 C 12.7344 -0.0683594 12.9883 0.126953 13.4961 0.126953 C 14.0137 0.126953 14.3457 -0.185547 14.3457 -0.673828 C 14.3457 -0.839844 14.3164 -0.986328 14.2383 -1.20117 L 9.6582 -13.3887 C 9.43359 -13.9941 9.0332 -14.2871 8.4082 -14.2871 C 7.80273 -14.2871 7.39258 -13.9941 7.17773 -13.3984 L 2.59766 -1.19141 C 2.51953 -0.976562 2.49023 -0.830078 2.49023 -0.664062 C 2.49023 -0.175781 2.80273 0.126953 3.31055 0.126953 Z M 6.00586 -5.53711 L 8.37891 -12.1094 L 8.42773 -12.1094 L 10.8008 -5.53711 Z"/>
  </g>
  <line id="" style="fill:none;stroke:#00AEEF;stroke-width:0.5;opacity:1.0;" x1="792.836" x2="792.836" y1="1919" y2="1933"/>
  <text style="stroke:none;fill:black;font-family:-apple-system,&quot;SF Pro Display&quot;,&quot;SF Pro Text&quot;,Helvetica,sans-serif;font-weight:bold;" transform="matrix(1 0 0 1 776 1953)">Margins</text>
  <text style="stroke:none;fill:black;font-family:-apple-system,&quot;SF Pro Display&quot;,&quot;SF Pro Text&quot;,Helvetica,sans-serif;" transform="matrix(1 0 0 1 776 1971)">Leading and trailing margins on the left and right side of each symbol</text>
  <text style="stroke:none;fill:black;font-family:-apple-system,&quot;SF Pro Display&quot;,&quot;SF Pro Text&quot;,Helvetica,sans-serif;" transform="matrix(1 0 0 1 776 1989)">can be adjusted by modifying the x-location of the margin guidelines.</text>
  <text style="stroke:none;fill:black;font-family:-apple-system,&quot;SF Pro Display&quot;,&quot;SF Pro Text&quot;,Helvetica,sans-serif;" transform="matrix(1 0 0 1 776 2007)">Modifications are automatically applied proportionally to all</text>
  <text style="stroke:none;fill:black;font-family:-apple-system,&quot;SF Pro Display&quot;,&quot;SF Pro Text&quot;,Helvetica,sans-serif;" transform="matrix(1 0 0 1 776 2025)">scales and weights.</text>
  <g id="" transform="matrix(1 0 0 1 1289 1933)">
   <path d="M 2.8418 1.86523 L 4.54102 3.57422 C 5.40039 4.44336 6.38672 4.38477 7.31445 3.35938 L 17.4902 -7.85156 C 17.7539 -7.76367 18.0273 -7.7832 18.3398 -7.8418 L 19.4043 -8.03711 L 20.0684 -7.36328 L 20.0293 -6.80664 C 19.9902 -6.30859 20.1172 -5.92773 20.6055 -5.44922 L 21.3672 -4.70703 C 21.8457 -4.22852 22.4609 -4.19922 22.9297 -4.66797 L 25.8398 -7.58789 C 26.3086 -8.05664 26.2891 -8.65234 25.8105 -9.13086 L 25.0391 -9.89258 C 24.5605 -10.3711 24.1895 -10.5273 23.7109 -10.4883 L 23.1348 -10.4395 L 22.4902 -11.0742 L 22.7344 -12.1973 C 22.8613 -12.7637 22.7051 -13.2031 22.1191 -13.7891 L 19.9219 -15.9766 C 16.582 -19.2969 12.1484 -19.2188 9.25781 -16.3281 C 8.83789 -15.918 8.80859 -15.3418 9.04297 -14.9512 C 9.27734 -14.5898 9.73633 -14.3555 10.3809 -14.5215 C 11.8457 -14.8633 13.3691 -14.9219 14.7949 -13.9844 L 14.209 -12.5293 C 14.0137 -12.0508 13.9844 -11.6504 14.1113 -11.2891 L 3.04688 -0.898438 C 2.06055 0.0195312 1.98242 0.996094 2.8418 1.86523 Z M 10.752 -15.957 C 13.1836 -17.7344 16.4746 -17.4316 18.7012 -15.2051 L 21.1328 -12.793 C 21.3672 -12.5586 21.4062 -12.373 21.3379 -12.0312 L 21.0156 -10.5469 L 22.5195 -9.0625 L 23.5059 -9.12109 C 23.7598 -9.13086 23.8379 -9.11133 24.0332 -8.91602 L 24.6094 -8.33984 L 22.168 -5.89844 L 21.5918 -6.47461 C 21.3965 -6.66992 21.3672 -6.74805 21.377 -7.01172 L 21.4453 -7.98828 L 19.9512 -9.47266 L 18.4277 -9.21875 C 18.1055 -9.15039 17.959 -9.17969 17.7148 -9.41406 L 15.7129 -11.416 C 15.459 -11.6504 15.4297 -11.8164 15.5859 -12.1875 L 16.4648 -14.2773 C 14.9023 -15.7324 12.8711 -16.3574 10.8398 -15.7617 C 10.6836 -15.7227 10.625 -15.8496 10.752 -15.957 Z M 5.27344 2.30469 L 4.10156 1.14258 C 3.63281 0.683594 3.74023 0.341797 4.14062 -0.0195312 L 14.9512 -10.1953 L 16.416 -8.71094 L 6.42578 2.27539 C 6.07422 2.67578 5.74219 2.77344 5.27344 2.30469 Z"/>
  </g>
  <text style="stroke:none;fill:black;font-family:-apple-system,&quot;SF Pro Display&quot;,&quot;SF Pro Text&quot;,Helvetica,sans-serif;font-weight:bold;" transform="matrix(1 0 0 1 1289 1953)">Exporting</text>
  <text style="stroke:none;fill:black;font-family:-apple-system,&quot;SF Pro Display&quot;,&quot;SF Pro Text&quot;,Helvetica,sans-serif;" transform="matrix(1 0 0 1 1289 1971)">Symbols should be outlined when exporting to ensure the</text>
  <text style="stroke:none;fill:black;font-family:-apple-system,&quot;SF Pro Display&quot;,&quot;SF Pro Text&quot;,Helvetica,sans-serif;" transform="matrix(1 0 0 1 1289 1989)">design is preserved when submitting to Xcode.</text>
  <text id="template-version" style="stroke:none;fill:black;font-family:-apple-system,&quot;SF Pro Display&quot;,&quot;SF Pro Text&quot;,Helvetica,sans-serif;text-anchor:end;" transform="matrix(1 0 0 1 3036 1933)">Template v.2.0</text>
  <text style="stroke:none;fill:black;font-family:-apple-system,&quot;SF Pro Display&quot;,&quot;SF Pro Text&quot;,Helvetica,sans-serif;text-anchor:end;" transform="matrix(1 0 0 1 3036 1951)">Requires Xcode 12 or greater</text>
  <text style="stroke:none;fill:black;font-family:-apple-system,&quot;SF Pro Display&quot;,&quot;SF Pro Text&quot;,Helvetica,sans-serif;text-anchor:end;" transform="matrix(1 0 0 1 3036 1969)">Generated from arrow.left.to.line.alt</text>
  <text style="stroke:none;fill:black;font-family:-apple-system,&quot;SF Pro Display&quot;,&quot;SF Pro Text&quot;,Helvetica,sans-serif;text-anchor:end;" transform="matrix(1 0 0 1 3036 1987)">Typeset at 100 points</text>
  <text style="stroke:none;fill:black;font-family:-apple-system,&quot;SF Pro Display&quot;,&quot;SF Pro Text&quot;,Helvetica,sans-serif;" transform="matrix(1 0 0 1 263 726)">Small</text>
  <text style="stroke:none;fill:black;font-family:-apple-system,&quot;SF Pro Display&quot;,&quot;SF Pro Text&quot;,Helvetica,sans-serif;" transform="matrix(1 0 0 1 263 1156)">Medium</text>
  <text style="stroke:none;fill:black;font-family:-apple-system,&quot;SF Pro Display&quot;,&quot;SF Pro Text&quot;,Helvetica,sans-serif;" transform="matrix(1 0 0 1 263 1586)">Large</text>
 </g>
 <g id="Guides">
  <g id="H-reference" style="fill:#27AAE1;stroke:none;" transform="matrix(1 0 0 1 339 696)">
   <path d="M 0.976562 0 L 3.66211 0 L 12.9883 -24.4629 L 45.7031 -24.4629 L 55.0781 0 L 57.7148 0 L 30.6152 -70.459 L 28.125 -70.459 Z M 29.2969 -67.1387 L 29.3945 -67.1387 L 44.873 -26.709 L 13.8672 -26.709 Z"/>
  </g>
  <line id="Baseline-S" style="fill:none;stroke:#27AAE1;opacity:1;stroke-width:0.5;" x1="263" x2="3036" y1="696" y2="696"/>
  <line id="Capline-S" style="fill:none;stroke:#27AAE1;opacity:1;stroke-width:0.5;" x1="263" x2="3036" y1="625.541" y2="625.541"/>
  <g id="H-reference" style="fill:#27AAE1;stroke:none;" transform="matrix(1 0 0 1 339 1126)">
   <path d="M 0.976562 0 L 3.66211 0 L 12.9883 -24.4629 L 45.7031 -24.4629 L 55.0781 0 L 57.7148 0 L 30.6152 -70.459 L 28.125 -70.459 Z M 29.2969 -67.1387 L 29.3945 -67.1387 L 44.873 -26.709 L 13.8672 -26.709 Z"/>
  </g>
  <line id="Baseline-M" style="fill:none;stroke:#27AAE1;opacity:1;stroke-width:0.5;" x1="263" x2="3036" y1="1126" y2="1126"/>
  <line id="Capline-M" style="fill:none;stroke:#27AAE1;opacity:1;stroke-width:0.5;" x1="263" x2="3036" y1="1055.54" y2="1055.54"/>
  <g id="H-reference" style="fill:#27AAE1;stroke:none;" transform="matrix(1 0 0 1 339 1556)">
   <path d="M 0.976562 0 L 3.66211 0 L 12.9883 -24.4629 L 45.7031 -24.4629 L 55.0781 0 L 57.7148 0 L 30.6152 -70.459 L 28.125 -70.459 Z M 29.2969 -67.1387 L 29.3945 -67.1387 L 44.873 -26.709 L 13.8672 -26.709 Z"/>
  </g>
  <line id="Baseline-L" style="fill:none;stroke:#27AAE1;opacity:1;stroke-width:0.5;" x1="263" x2="3036" y1="1556" y2="1556"/>
  <line id="Capline-L" style="fill:none;stroke:#27AAE1;opacity:1;stroke-width:0.5;" x1="263" x2="3036" y1="1485.54" y2="1485.54"/>
  <line id="left-margin" style="fill:none;stroke:#00AEEF;stroke-width:0.5;opacity:1.0;" x1="1386.88" x2="1386.88" y1="1030.79" y2="1150.12"/>
  <line id="right-margin" style="fill:none;stroke:#00AEEF;stroke-width:0.5;opacity:1.0;" x1="1512.81" x2="1512.81" y1="1030.79" y2="1150.12"/>
 </g>
 <g id="Symbols">
  <g id="Black-L" transform="matrix(1 0 0 1 2845.53 1556)">
   <path d="M 89.8438 16.2598 C 96.3379 16.2598 100.83 11.5723 100.83 5.46875 C 100.83 1.95312 99.2676 -0.634766 97.1191 -2.73438 L 83.7891 -15.9668 L 72.6074 -25.2441 L 86.1816 -24.6582 L 147.656 -24.6582 C 154.883 -24.6582 159.668 -29.1992 159.668 -36.084 C 159.668 -42.9199 154.883 -47.5098 147.656 -47.5098 L 86.1816 -47.5098 L 72.6074 -46.875 L 83.7891 -56.2012 L 97.1191 -69.4824 C 99.2676 -71.582 100.83 -74.1699 100.83 -77.6855 C 100.83 -83.7891 96.3379 -88.4766 89.8438 -88.4766 C 86.8652 -88.4766 84.0332 -87.2559 81.6895 -84.9121 L 41.2109 -44.4824 C 39.1602 -42.4316 37.8906 -39.1602 37.8906 -36.084 C 37.8906 -33.0078 39.1602 -29.7363 41.2109 -27.6855 L 81.6895 12.6953 C 84.0332 15.0391 86.8652 16.2598 89.8438 16.2598 Z M 26.9531 16.2598 C 33.0078 16.2598 37.8906 11.4746 37.8906 5.41992 L 37.8906 -77.5879 C 37.8906 -83.6914 33.0078 -88.4766 26.9531 -88.4766 C 20.9473 -88.4766 16.0645 -83.6914 16.0645 -77.5879 L 16.0645 5.41992 C 16.0645 11.4746 20.9473 16.2598 26.9531 16.2598 Z"/>
  </g>
  <g id="Heavy-L" transform="matrix(1 0 0 1 2550.68 1556)">
   <path d="M 25.5371 14.9414 C 30.8105 14.9414 34.9609 10.8398 34.9609 5.56641 L 34.9609 -35.6445 C 35.1074 -33.1543 36.1816 -30.6152 37.8906 -28.9551 L 78.7598 11.8652 C 80.8105 13.916 83.252 14.9414 85.8398 14.9414 C 91.4062 14.9414 95.3125 10.9375 95.3125 5.61523 C 95.3125 2.63672 93.9941 0.341797 92.1875 -1.41602 L 77.9785 -15.625 L 64.7461 -26.9043 L 78.418 -26.3184 L 145.703 -26.3184 C 151.855 -26.3184 155.957 -30.2734 155.957 -36.1816 C 155.957 -42.0898 151.855 -46.0449 145.703 -46.0449 L 78.418 -46.0449 L 64.7949 -45.459 L 77.9785 -56.7383 L 92.1875 -70.9961 C 93.9941 -72.8027 95.3125 -75.0488 95.3125 -78.0273 C 95.3125 -83.3496 91.4062 -87.3535 85.8398 -87.3535 C 83.252 -87.3535 80.8105 -86.3281 78.7598 -84.3262 L 37.8906 -43.457 C 36.1816 -41.748 35.1074 -39.209 34.9609 -36.7188 L 34.9609 -77.9297 C 34.9609 -83.252 30.8105 -87.3535 25.5371 -87.3535 C 20.2637 -87.3535 16.0645 -83.252 16.0645 -77.9297 L 16.0645 5.56641 C 16.0645 10.8398 20.2637 14.9414 25.5371 14.9414 Z"/>
  </g>
  <g id="Bold-L" transform="matrix(1 0 0 1 2256.02 1556)">
   <path d="M 23.877 13.4766 C 28.3203 13.4766 31.7383 10.1562 31.7383 5.76172 L 31.7383 -35.5957 C 31.8848 -33.6426 32.7637 -31.6895 34.1797 -30.3223 L 75.5371 10.9863 C 77.2461 12.6465 79.1992 13.4766 81.3477 13.4766 C 85.9375 13.4766 89.1602 10.1562 89.1602 5.81055 C 89.1602 3.41797 88.1348 1.46484 86.6699 0 L 71.4355 -15.2344 L 56.0547 -28.7598 L 69.7754 -28.2227 L 143.506 -28.2227 C 148.486 -28.2227 151.855 -31.4941 151.855 -36.3281 C 151.855 -41.1133 148.486 -44.3848 143.506 -44.3848 L 69.7754 -44.3848 L 56.1035 -43.8477 L 71.4355 -57.373 L 86.6699 -72.6562 C 88.1348 -74.1211 89.1602 -76.0742 89.1602 -78.4668 C 89.1602 -82.8125 85.9375 -86.1328 81.3477 -86.1328 C 79.1992 -86.1328 77.2461 -85.3027 75.5371 -83.6426 L 34.1797 -42.2852 C 32.7637 -40.918 31.8848 -38.9648 31.7383 -37.0117 L 31.7383 -78.3203 C 31.7383 -82.7637 28.3203 -86.1328 23.877 -86.1328 C 19.4824 -86.1328 16.0645 -82.7637 16.0645 -78.3203 L 16.0645 5.76172 C 16.0645 10.1562 19.4824 13.4766 23.877 13.4766 Z"/>
  </g>
  <g id="Semibold-L" transform="matrix(1 0 0 1 1960.75 1556)">
   <path d="M 22.8027 12.5 C 26.6113 12.5 29.4922 9.66797 29.4922 5.9082 L 29.4922 -35.6445 C 29.6875 -34.0332 30.4199 -32.4707 31.6406 -31.2988 L 73.291 10.3516 C 74.7559 11.7676 76.416 12.5 78.2227 12.5 C 82.1289 12.5 84.9121 9.66797 84.9121 5.9082 C 84.9121 3.95508 84.1309 2.24609 82.8613 1.02539 L 66.9434 -14.9902 L 50.1465 -30.0293 L 63.8184 -29.541 L 141.992 -29.541 C 146.143 -29.541 148.975 -32.3242 148.975 -36.377 C 148.975 -40.4785 146.143 -43.2617 141.992 -43.2617 L 63.8184 -43.2617 L 50.1953 -42.7734 L 66.9434 -57.7637 L 82.8613 -73.8281 C 84.1309 -75.0488 84.9121 -76.7578 84.9121 -78.7109 C 84.9121 -82.4707 82.1289 -85.3027 78.2227 -85.3027 C 76.416 -85.3027 74.7559 -84.5703 73.291 -83.1543 L 31.6406 -41.4551 C 30.4199 -40.332 29.6875 -38.7695 29.4922 -37.1582 L 29.4922 -78.6133 C 29.4922 -82.4219 26.6113 -85.3027 22.8027 -85.3027 C 18.9941 -85.3027 16.0645 -82.4219 16.0645 -78.6133 L 16.0645 5.9082 C 16.0645 9.66797 18.9941 12.5 22.8027 12.5 Z"/>
  </g>
  <g id="Medium-L" transform="matrix(1 0 0 1 1665.11 1556)">
   <path d="M 21.9238 11.7188 C 25.293 11.7188 27.832 9.32617 27.832 6.00586 L 27.832 -35.6934 C 27.9785 -34.3262 28.6621 -33.0566 29.6875 -32.0312 L 71.582 9.86328 C 72.9004 11.1328 74.3164 11.7188 75.8789 11.7188 C 79.248 11.7188 81.6895 9.27734 81.6895 6.00586 C 81.6895 4.3457 81.0547 2.83203 79.9805 1.75781 L 63.5254 -14.7949 L 45.7031 -31.0059 L 59.2773 -30.5176 L 140.82 -30.5176 C 144.385 -30.5176 146.826 -32.959 146.826 -36.4746 C 146.826 -39.9414 144.385 -42.3828 140.82 -42.3828 L 59.2773 -42.3828 L 45.7031 -41.9434 L 63.5254 -58.1055 L 79.9805 -74.707 C 81.0547 -75.7324 81.6895 -77.2461 81.6895 -78.9551 C 81.6895 -82.1777 79.248 -84.6191 75.8789 -84.6191 C 74.3164 -84.6191 72.9004 -84.0332 71.582 -82.8125 L 29.6875 -40.8691 C 28.6621 -39.8438 27.9785 -38.5742 27.832 -37.207 L 27.832 -78.8086 C 27.832 -82.1777 25.293 -84.6191 21.9238 -84.6191 C 18.6035 -84.6191 16.0645 -82.1777 16.0645 -78.8086 L 16.0645 6.00586 C 16.0645 9.32617 18.6035 11.7188 21.9238 11.7188 Z"/>
  </g>
  <g id="Regular-L" transform="matrix(1 0 0 1 1369.79 1556)">
   <path d="M 20.8496 10.7422 C 23.584 10.7422 25.5859 8.83789 25.5859 6.10352 L 25.5859 -35.791 C 25.7812 -34.7656 26.3184 -33.7891 27.1484 -33.0078 L 69.3848 9.27734 C 70.459 10.2539 71.582 10.7422 72.8516 10.7422 C 75.4883 10.7422 77.4902 8.78906 77.4902 6.15234 C 77.4902 4.88281 77.0508 3.61328 76.2207 2.7832 L 59.082 -14.5508 L 39.8926 -32.2266 L 53.418 -31.7871 L 139.355 -31.7871 C 142.041 -31.7871 144.043 -33.7891 144.043 -36.5234 C 144.043 -39.3066 142.041 -41.2598 139.355 -41.2598 L 53.418 -41.2598 L 39.9414 -40.8691 L 59.082 -58.4961 L 76.2207 -75.8301 C 77.0508 -76.6602 77.4902 -77.9297 77.4902 -79.1992 C 77.4902 -81.8359 75.4883 -83.7891 72.8516 -83.7891 C 71.582 -83.7891 70.459 -83.3496 69.3848 -82.3242 L 27.1484 -40.0879 C 26.3184 -39.2578 25.7812 -38.3301 25.5859 -37.2559 L 25.5859 -79.0527 C 25.5859 -81.8359 23.584 -83.7891 20.8496 -83.7891 C 18.0664 -83.7891 16.0645 -81.8359 16.0645 -79.0527 L 16.0645 6.10352 C 16.0645 8.83789 18.0664 10.7422 20.8496 10.7422 Z"/>
  </g>
  <g id="Light-L" transform="matrix(1 0 0 1 1074.72 1556)">
   <path d="M 19.6289 9.91211 C 21.7285 9.91211 23.2422 8.44727 23.2422 6.44531 L 23.2422 -35.8398 C 23.3887 -35.1562 23.7793 -34.5703 24.3164 -34.0332 L 67.041 8.83789 C 67.8223 9.57031 68.6523 9.91211 69.6289 9.91211 C 71.6309 9.91211 73.1445 8.44727 73.1445 6.49414 C 73.1445 5.51758 72.8027 4.54102 72.168 3.90625 L 50.9277 -17.4805 L 33.8867 -33.4473 L 47.3633 -33.1055 L 137.256 -33.1055 C 139.258 -33.1055 140.771 -34.6191 140.771 -36.6699 C 140.771 -38.7207 139.258 -40.1855 137.256 -40.1855 L 47.3633 -40.1855 L 33.9355 -39.8438 L 50.9277 -55.8594 L 72.168 -77.2461 C 72.8027 -77.832 73.1445 -78.8086 73.1445 -79.7852 C 73.1445 -81.7383 71.6309 -83.252 69.6289 -83.252 C 68.6523 -83.252 67.8223 -82.9102 67.041 -82.1289 L 24.3164 -39.3066 C 23.7793 -38.7695 23.3887 -38.1836 23.2422 -37.5 L 23.2422 -79.6875 C 23.2422 -81.7383 21.7285 -83.252 19.6289 -83.252 C 17.5781 -83.252 16.0645 -81.7383 16.0645 -79.6875 L 16.0645 6.44531 C 16.0645 8.44727 17.5781 9.91211 19.6289 9.91211 Z"/>
  </g>
  <g id="Thin-L" transform="matrix(1 0 0 1 780.153 1556)">
   <path d="M 18.0664 8.83789 C 19.2383 8.83789 20.1172 7.95898 20.1172 6.83594 L 20.1172 -36.084 C 20.2148 -35.8398 20.3613 -35.5957 20.6055 -35.4004 L 63.916 8.25195 C 64.3555 8.64258 64.7949 8.83789 65.3809 8.83789 C 66.5527 8.83789 67.3828 7.95898 67.3828 6.93359 C 67.3828 6.34766 67.1875 5.76172 66.8457 5.41992 L 40.1367 -21.2891 L 26.0254 -35.0586 L 39.4043 -34.8633 L 134.521 -34.8633 C 135.596 -34.8633 136.475 -35.6934 136.475 -36.8164 C 136.475 -37.9395 135.596 -38.7695 134.521 -38.7695 L 39.4043 -38.7695 L 26.0254 -38.5742 L 40.1367 -52.3438 L 66.8457 -79.1016 C 67.1875 -79.3945 67.3828 -79.9805 67.3828 -80.5664 C 67.3828 -81.6406 66.5527 -82.5195 65.3809 -82.5195 C 64.7949 -82.5195 64.3555 -82.3242 63.916 -81.8848 L 20.6055 -38.2812 C 20.3613 -38.0859 20.2148 -37.8418 20.1172 -37.5977 L 20.1172 -80.5176 C 20.1172 -81.6406 19.2383 -82.5195 18.0664 -82.5195 C 16.9434 -82.5195 16.0645 -81.6406 16.0645 -80.5176 L 16.0645 6.83594 C 16.0645 7.95898 16.9434 8.83789 18.0664 8.83789 Z"/>
  </g>
  <g id="Ultralight-L" transform="matrix(1 0 0 1 484.54 1556)">
   <path d="M 17.2852 8.30078 C 17.9199 8.30078 18.5059 7.71484 18.5059 7.03125 L 18.5059 -36.3281 C 18.5547 -36.2305 18.6035 -36.1816 18.7012 -36.084 L 62.3535 7.91016 C 62.5977 8.1543 62.793 8.30078 63.1836 8.30078 C 63.9648 8.30078 64.4043 7.71484 64.4043 7.12891 C 64.4043 6.73828 64.3066 6.34766 64.1113 6.20117 L 34.6191 -23.291 L 22.0215 -35.8887 L 35.3027 -35.791 L 133.105 -35.791 C 133.691 -35.791 134.277 -36.2793 134.277 -36.9141 C 134.277 -37.5977 133.691 -38.0371 133.105 -38.0371 L 35.3027 -38.0371 L 22.0215 -37.9395 L 34.6191 -50.5859 L 64.1113 -80.0293 C 64.3066 -80.2246 64.4043 -80.6152 64.4043 -80.957 C 64.4043 -81.543 63.9648 -82.1289 63.1836 -82.1289 C 62.793 -82.1289 62.5977 -82.0312 62.3535 -81.7871 L 18.7012 -37.7441 C 18.6035 -37.6953 18.5547 -37.5977 18.5059 -37.5488 L 18.5059 -80.9082 C 18.5059 -81.543 17.9199 -82.1289 17.2852 -82.1289 C 16.6504 -82.1289 16.0645 -81.543 16.0645 -80.9082 L 16.0645 7.03125 C 16.0645 7.71484 16.6504 8.30078 17.2852 8.30078 Z"/>
  </g>
  <g id="Black-M" transform="matrix(1 0 0 1 2863.7 1126)">
   <path d="M 73.3398 6.00586 C 79.248 6.00586 83.252 1.75781 83.252 -3.71094 C 83.252 -7.03125 81.6895 -9.27734 79.7363 -11.1816 L 68.457 -22.2656 L 63.7695 -25.9277 L 73.9746 -25.4883 L 115.967 -25.4883 C 122.607 -25.4883 126.953 -29.5898 126.953 -35.8398 C 126.953 -42.041 122.607 -46.1426 115.967 -46.1426 L 73.9746 -46.1426 L 63.7695 -45.7031 L 68.457 -49.3652 L 79.7363 -60.5469 C 81.6895 -62.4023 83.252 -64.6973 83.252 -67.9688 C 83.252 -73.4375 79.248 -77.6855 73.3398 -77.6855 C 70.6055 -77.6855 68.0176 -76.5625 65.9668 -74.4629 L 34.8633 -43.3594 C 33.1055 -41.6016 31.9824 -38.5742 31.9824 -35.8398 C 31.9824 -33.0566 33.1055 -30.0293 34.8633 -28.2715 L 65.9668 2.7832 C 68.0176 4.83398 70.6055 6.00586 73.3398 6.00586 Z M 22.2168 6.00586 C 27.5879 6.00586 31.9824 1.61133 31.9824 -3.80859 L 31.9824 -67.9199 C 31.9824 -73.3398 27.5879 -77.6855 22.2168 -77.6855 C 16.8457 -77.6855 12.4512 -73.3398 12.4512 -67.9199 L 12.4512 -3.80859 C 12.4512 1.61133 16.8457 6.00586 22.2168 6.00586 Z"/>
  </g>
  <g id="Heavy-M" transform="matrix(1 0 0 1 2568.57 1126)">
   <path d="M 20.9473 4.78516 C 25.6348 4.78516 29.4434 1.02539 29.4434 -3.71094 L 29.4434 -35.5957 C 29.541 -33.252 30.5176 -30.8594 31.9824 -29.3457 L 63.3789 2.00195 C 65.2344 3.80859 67.4316 4.78516 69.7754 4.78516 C 74.9023 4.78516 78.3691 1.12305 78.3691 -3.66211 C 78.3691 -6.44531 77.0996 -8.44727 75.3906 -10.0586 L 64.209 -21.1426 L 56.5918 -27.4414 L 67.0898 -26.9531 L 114.355 -26.9531 C 120.02 -26.9531 123.779 -30.5176 123.779 -35.8887 C 123.779 -41.2598 120.02 -44.8242 114.355 -44.8242 L 67.0898 -44.8242 L 56.5918 -44.3359 L 64.209 -50.6348 L 75.3906 -61.7676 C 77.0996 -63.4277 78.3691 -65.4297 78.3691 -68.2129 C 78.3691 -72.9492 74.9023 -76.6113 69.7754 -76.6113 C 67.4316 -76.6113 65.2344 -75.6348 63.3789 -73.8281 L 31.9824 -42.4316 C 30.5176 -40.9668 29.541 -38.5254 29.4434 -36.2305 L 29.4434 -68.1152 C 29.4434 -72.8516 25.6348 -76.6113 20.9473 -76.6113 C 16.2598 -76.6113 12.4512 -72.8516 12.4512 -68.1152 L 12.4512 -3.71094 C 12.4512 1.02539 16.2598 4.78516 20.9473 4.78516 Z"/>
  </g>
  <g id="Bold-M" transform="matrix(1 0 0 1 2273.64 1126)">
   <path d="M 19.5312 3.41797 C 23.4863 3.41797 26.6113 0.390625 26.6113 -3.56445 L 26.6113 -35.5469 C 26.709 -33.6914 27.4902 -31.8359 28.7598 -30.5664 L 60.5469 1.12305 C 62.0605 2.63672 63.8672 3.41797 65.8203 3.41797 C 69.9707 3.41797 72.9004 0.390625 72.9004 -3.56445 C 72.9004 -5.76172 71.9238 -7.4707 70.5566 -8.78906 L 59.4238 -19.9219 L 48.7793 -29.1016 L 59.4238 -28.6621 L 112.549 -28.6621 C 117.139 -28.6621 120.215 -31.5918 120.215 -35.9863 C 120.215 -40.3809 117.139 -43.3594 112.549 -43.3594 L 59.4238 -43.3594 L 48.8281 -42.8711 L 59.4238 -52.0508 L 70.5566 -63.1836 C 71.9238 -64.5508 72.9004 -66.2598 72.9004 -68.457 C 72.9004 -72.4121 69.9707 -75.4395 65.8203 -75.4395 C 63.8672 -75.4395 62.0605 -74.6582 60.5469 -73.1445 L 28.7598 -41.4062 C 27.4902 -40.1367 26.709 -38.2812 26.6113 -36.4258 L 26.6113 -68.4082 C 26.6113 -72.3633 23.4863 -75.4395 19.5312 -75.4395 C 15.5762 -75.4395 12.4512 -72.3633 12.4512 -68.4082 L 12.4512 -3.56445 C 12.4512 0.390625 15.5762 3.41797 19.5312 3.41797 Z"/>
  </g>
  <g id="Semibold-M" transform="matrix(1 0 0 1 1978.15 1126)">
   <path d="M 18.5547 2.49023 C 21.9727 2.49023 24.6094 -0.0976562 24.6094 -3.51562 L 24.6094 -35.5957 C 24.7559 -34.0332 25.4395 -32.5195 26.5625 -31.4453 L 58.5449 0.537109 C 59.9121 1.85547 61.4258 2.49023 63.0859 2.49023 C 66.6016 2.49023 69.1406 -0.0976562 69.1406 -3.4668 C 69.1406 -5.32227 68.3594 -6.83594 67.1875 -7.95898 L 56.1523 -19.043 L 43.5059 -30.2246 L 54.1016 -29.7852 L 111.328 -29.7852 C 115.137 -29.7852 117.773 -32.3242 117.773 -36.0352 C 117.773 -39.7949 115.137 -42.334 111.328 -42.334 L 54.1016 -42.334 L 43.5059 -41.8945 L 56.1523 -53.0273 L 67.1875 -64.209 C 68.3594 -65.332 69.1406 -66.8457 69.1406 -68.6523 C 69.1406 -72.0703 66.6016 -74.6094 63.0859 -74.6094 C 61.4258 -74.6094 59.9121 -73.9746 58.5449 -72.6562 L 26.5625 -40.6738 C 25.4395 -39.5996 24.7559 -38.0859 24.6094 -36.5234 L 24.6094 -68.5547 C 24.6094 -72.0215 21.9727 -74.6094 18.5547 -74.6094 C 15.0879 -74.6094 12.4512 -72.0215 12.4512 -68.5547 L 12.4512 -3.51562 C 12.4512 -0.0976562 15.0879 2.49023 18.5547 2.49023 Z"/>
  </g>
  <g id="Medium-M" transform="matrix(1 0 0 1 1682.37 1126)">
   <path d="M 17.7734 1.75781 C 20.8496 1.75781 23.1445 -0.439453 23.1445 -3.4668 L 23.1445 -35.6445 C 23.2422 -34.2773 23.877 -33.0078 24.8535 -32.0801 L 57.0801 0.0976562 C 58.252 1.2207 59.5703 1.75781 60.9863 1.75781 C 64.0137 1.75781 66.2598 -0.439453 66.2598 -3.41797 C 66.2598 -4.98047 65.6738 -6.29883 64.6484 -7.27539 L 53.6621 -18.4082 L 39.502 -31.0547 L 50.0488 -30.6641 L 110.4 -30.6641 C 113.672 -30.6641 115.918 -32.9102 115.918 -36.084 C 115.918 -39.3066 113.672 -41.5527 110.4 -41.5527 L 50.0488 -41.5527 L 39.5508 -41.1133 L 53.6621 -53.8086 L 64.6484 -64.9414 C 65.6738 -65.918 66.2598 -67.2363 66.2598 -68.7988 C 66.2598 -71.7773 64.0137 -73.9746 60.9863 -73.9746 C 59.5703 -73.9746 58.252 -73.4375 57.0801 -72.3145 L 24.8535 -40.1367 C 23.877 -39.1602 23.2422 -37.8906 23.1445 -36.5723 L 23.1445 -68.7012 C 23.1445 -71.7285 20.8496 -73.9746 17.7734 -73.9746 C 14.7461 -73.9746 12.4512 -71.7285 12.4512 -68.7012 L 12.4512 -3.4668 C 12.4512 -0.439453 14.7461 1.75781 17.7734 1.75781 Z"/>
  </g>
  <g id="Regular-M" transform="matrix(1 0 0 1 1386.88 1126)">
   <path d="M 16.7969 0.830078 C 19.3848 0.830078 21.1914 -0.878906 21.1914 -3.36914 L 21.1914 -35.6934 C 21.2891 -34.668 21.8262 -33.6914 22.6562 -32.9102 L 55.127 -0.488281 C 56.1035 0.439453 57.1289 0.830078 58.252 0.830078 C 60.6934 0.830078 62.5488 -0.927734 62.5488 -3.36914 C 62.5488 -4.49219 62.1094 -5.66406 61.377 -6.44531 L 50.4395 -17.5781 L 34.375 -32.1777 L 44.8242 -31.7871 L 109.18 -31.7871 C 111.67 -31.7871 113.477 -33.6426 113.477 -36.1816 C 113.477 -38.7207 111.67 -40.5273 109.18 -40.5273 L 44.8242 -40.5273 L 34.4238 -40.1367 L 50.4395 -54.7852 L 61.377 -65.8691 C 62.1094 -66.6504 62.5488 -67.8223 62.5488 -68.9941 C 62.5488 -71.3867 60.6934 -73.1934 58.252 -73.1934 C 57.1289 -73.1934 56.1035 -72.7539 55.127 -71.8262 L 22.6562 -39.4531 C 21.8262 -38.623 21.2891 -37.6465 21.1914 -36.6211 L 21.1914 -68.8477 C 21.1914 -71.3867 19.3848 -73.1934 16.7969 -73.1934 C 14.2578 -73.1934 12.4512 -71.3867 12.4512 -68.8477 L 12.4512 -3.36914 C 12.4512 -0.878906 14.2578 0.830078 16.7969 0.830078 Z"/>
  </g>
  <g id="Light-M" transform="matrix(1 0 0 1 1091.63 1126)">
   <path d="M 15.7715 0.146484 C 17.6758 0.146484 19.0918 -1.2207 19.0918 -3.07617 L 19.0918 -35.6934 C 19.1895 -35.0098 19.5801 -34.375 20.1172 -33.8379 L 53.0273 -0.878906 C 53.7598 -0.195312 54.4922 0.146484 55.3711 0.146484 C 57.2266 0.146484 58.6426 -1.2207 58.6426 -3.07617 C 58.6426 -3.95508 58.3008 -4.83398 57.7637 -5.41992 L 43.1152 -20.166 L 28.9551 -33.3008 L 39.4043 -33.0078 L 107.324 -33.0078 C 109.18 -33.0078 110.547 -34.375 110.547 -36.2793 C 110.547 -38.1836 109.18 -39.5508 107.324 -39.5508 L 39.4043 -39.5508 L 28.9551 -39.2578 L 43.1152 -52.3926 L 57.7637 -67.1387 C 58.3008 -67.7246 58.6426 -68.6035 58.6426 -69.4824 C 58.6426 -71.3379 57.2266 -72.7051 55.3711 -72.7051 C 54.4922 -72.7051 53.7598 -72.3633 53.0273 -71.6797 L 20.1172 -38.7207 C 19.5801 -38.1836 19.1895 -37.5977 19.0918 -36.9141 L 19.0918 -69.4336 C 19.0918 -71.3379 17.6758 -72.7051 15.7715 -72.7051 C 13.8672 -72.7051 12.4512 -71.3379 12.4512 -69.4336 L 12.4512 -3.07617 C 12.4512 -1.2207 13.8672 0.146484 15.7715 0.146484 Z"/>
  </g>
  <g id="Thin-M" transform="matrix(1 0 0 1 796.852 1126)">
   <path d="M 14.3555 -0.830078 C 15.4297 -0.830078 16.2598 -1.66016 16.2598 -2.73438 L 16.2598 -35.8398 C 16.3574 -35.5469 16.5527 -35.3027 16.748 -35.0586 L 50.2441 -1.41602 C 50.6348 -1.02539 51.0254 -0.830078 51.5625 -0.830078 C 52.6855 -0.830078 53.4668 -1.66016 53.4668 -2.68555 C 53.4668 -3.22266 53.2715 -3.75977 52.9785 -4.05273 L 33.4473 -23.584 L 21.875 -34.7656 L 32.2754 -34.5703 L 104.834 -34.5703 C 105.859 -34.5703 106.689 -35.3516 106.689 -36.4258 C 106.689 -37.5 105.859 -38.2812 104.834 -38.2812 L 32.2754 -38.2812 L 21.875 -38.0859 L 33.4473 -49.2676 L 52.9785 -68.7988 C 53.2715 -69.1406 53.4668 -69.6777 53.4668 -70.2148 C 53.4668 -71.1914 52.6855 -72.0215 51.5625 -72.0215 C 51.0254 -72.0215 50.6348 -71.8262 50.2441 -71.4355 L 16.748 -37.793 C 16.5527 -37.5977 16.3574 -37.3535 16.2598 -37.0605 L 16.2598 -70.1172 C 16.2598 -71.1914 15.4297 -72.0215 14.3555 -72.0215 C 13.2812 -72.0215 12.4512 -71.1914 12.4512 -70.1172 L 12.4512 -2.73438 C 12.4512 -1.66016 13.2812 -0.830078 14.3555 -0.830078 Z"/>
  </g>
  <g id="Ultralight-M" transform="matrix(1 0 0 1 501.117 1126)">
   <path d="M 13.623 -1.31836 C 14.3066 -1.31836 14.8438 -1.85547 14.8438 -2.53906 L 14.8438 -35.9863 C 14.8926 -35.8887 14.9414 -35.791 15.0391 -35.6934 L 48.7793 -1.70898 C 49.0234 -1.46484 49.2676 -1.31836 49.6094 -1.31836 C 50.3418 -1.31836 50.8301 -1.85547 50.8301 -2.44141 C 50.8301 -2.83203 50.6836 -3.17383 50.5371 -3.36914 L 28.5156 -25.3906 L 18.2617 -35.498 L 28.6133 -35.4004 L 103.613 -35.4004 C 104.199 -35.4004 104.736 -35.8398 104.736 -36.5234 C 104.736 -37.1582 104.199 -37.6465 103.613 -37.6465 L 28.6133 -37.6465 L 18.2617 -37.5488 L 28.5156 -47.6562 L 50.5371 -69.6777 C 50.6836 -69.8242 50.8301 -70.2148 50.8301 -70.5566 C 50.8301 -71.1426 50.3418 -71.6797 49.6094 -71.6797 C 49.2676 -71.6797 49.0234 -71.582 48.7793 -71.3379 L 15.0391 -37.3535 C 14.9414 -37.2559 14.8926 -37.1582 14.8438 -37.0117 L 14.8438 -70.5078 C 14.8438 -71.1426 14.3066 -71.6797 13.623 -71.6797 C 12.9883 -71.6797 12.4512 -71.1426 12.4512 -70.5078 L 12.4512 -2.53906 C 12.4512 -1.85547 12.9883 -1.31836 13.623 -1.31836 Z"/>
  </g>
  <g id="Black-S" transform="matrix(1 0 0 1 2878.88 696)">
   <path d="M 57.2266 -3.02734 C 61.8164 -3.02734 64.8926 -6.29883 64.8926 -10.5469 C 64.8926 -13.0859 63.7207 -14.8438 62.207 -16.3086 L 53.418 -24.9512 L 49.4629 -28.0762 L 57.5195 -27.6855 L 90.7715 -27.6855 C 95.8984 -27.6855 99.2676 -30.8594 99.2676 -35.6934 C 99.2676 -40.5273 95.8984 -43.7012 90.7715 -43.7012 L 57.5195 -43.7012 L 49.4629 -43.3105 L 53.418 -46.4355 L 62.207 -55.127 C 63.7207 -56.5918 64.8926 -58.3496 64.8926 -60.8887 C 64.8926 -65.1367 61.8164 -68.4082 57.2266 -68.4082 C 55.127 -68.4082 53.125 -67.5293 51.5137 -65.918 L 27.1484 -41.5527 C 25.7812 -40.1855 24.9023 -37.8418 24.9023 -35.6934 C 24.9023 -33.5449 25.7812 -31.2012 27.1484 -29.834 L 51.5137 -5.51758 C 53.125 -3.90625 55.127 -3.02734 57.2266 -3.02734 Z M 17.334 -3.02734 C 21.4844 -3.02734 24.9023 -6.39648 24.9023 -10.5957 L 24.9023 -60.8398 C 24.9023 -65.0391 21.4844 -68.4082 17.334 -68.4082 C 13.1836 -68.4082 9.76562 -65.0391 9.76562 -60.8398 L 9.76562 -10.5957 C 9.76562 -6.39648 13.1836 -3.02734 17.334 -3.02734 Z"/>
  </g>
  <g id="Heavy-S" transform="matrix(1 0 0 1 2583.22 696)">
   <path d="M 16.4551 -3.85742 C 20.166 -3.85742 23.1934 -6.83594 23.1934 -10.5469 L 23.1934 -35.6934 C 23.1934 -33.8379 23.9746 -31.8359 25.2441 -30.5664 L 49.8047 -6.05469 C 51.2207 -4.63867 52.9785 -3.85742 54.834 -3.85742 C 58.8379 -3.85742 61.5723 -6.73828 61.5723 -10.498 C 61.5723 -12.6953 60.5957 -14.3066 59.2773 -15.5762 L 50.9766 -23.8281 L 44.6289 -29.0527 L 52.832 -28.7109 L 89.7461 -28.7109 C 94.1895 -28.7109 97.168 -31.4941 97.168 -35.7422 C 97.168 -39.9902 94.1895 -42.7734 89.7461 -42.7734 L 52.832 -42.7734 L 44.6289 -42.4316 L 50.9766 -47.6562 L 59.2773 -55.957 C 60.5957 -57.2266 61.5723 -58.8379 61.5723 -61.0352 C 61.5723 -64.7949 58.8379 -67.6758 54.834 -67.6758 C 52.9785 -67.6758 51.2207 -66.8945 49.8047 -65.4785 L 25.2441 -40.918 C 23.9746 -39.6973 23.2422 -37.7441 23.1934 -35.791 L 23.1934 -60.9375 C 23.1934 -64.6973 20.166 -67.6758 16.4551 -67.6758 C 12.7441 -67.6758 9.76562 -64.6973 9.76562 -60.9375 L 9.76562 -10.5469 C 9.76562 -6.83594 12.7441 -3.85742 16.4551 -3.85742 Z"/>
  </g>
  <g id="Bold-S" transform="matrix(1 0 0 1 2287.71 696)">
   <path d="M 15.5273 -4.83398 C 18.75 -4.83398 21.2891 -7.27539 21.2891 -10.498 L 21.2891 -35.6934 C 21.2891 -34.1797 21.9238 -32.5195 23.0469 -31.3965 L 47.8516 -6.68945 C 49.1211 -5.46875 50.5859 -4.83398 52.1484 -4.83398 C 55.5176 -4.83398 57.9102 -7.27539 57.9102 -10.498 C 57.9102 -12.2559 57.1289 -13.6719 56.0059 -14.7461 L 48.2422 -22.5586 L 39.3555 -30.1758 L 47.6074 -29.834 L 88.623 -29.834 C 92.334 -29.834 94.7754 -32.2266 94.7754 -35.791 C 94.7754 -39.3555 92.334 -41.748 88.623 -41.748 L 47.6074 -41.748 L 39.3555 -41.4062 L 48.2422 -49.0723 L 56.0059 -56.8848 C 57.1289 -57.959 57.9102 -59.375 57.9102 -61.1328 C 57.9102 -64.3555 55.5176 -66.7969 52.1484 -66.7969 C 50.5859 -66.7969 49.1211 -66.1621 47.8516 -64.9414 L 23.0469 -40.1855 C 21.9727 -39.1602 21.3379 -37.5488 21.2891 -35.9375 L 21.2891 -61.084 C 21.2891 -64.3066 18.75 -66.7969 15.5273 -66.7969 C 12.3047 -66.7969 9.76562 -64.3066 9.76562 -61.084 L 9.76562 -10.498 C 9.76562 -7.27539 12.3047 -4.83398 15.5273 -4.83398 Z"/>
  </g>
  <g id="Semibold-S" transform="matrix(1 0 0 1 1991.8 696)">
   <path d="M 14.8438 -5.46875 C 17.7246 -5.46875 19.9707 -7.61719 19.9707 -10.4492 L 19.9707 -35.6934 C 19.9219 -34.4238 20.5566 -32.959 21.582 -31.9824 L 46.5332 -7.08008 C 47.6562 -6.00586 48.9258 -5.46875 50.293 -5.46875 C 53.2227 -5.46875 55.3711 -7.61719 55.3711 -10.4492 C 55.3711 -11.9629 54.7363 -13.2324 53.7598 -14.1602 L 46.3379 -21.6797 L 35.7422 -30.957 L 44.043 -30.6152 L 87.793 -30.6152 C 91.0156 -30.6152 93.1641 -32.7148 93.1641 -35.8398 C 93.1641 -38.9648 91.0156 -41.0645 87.793 -41.0645 L 44.043 -41.0645 L 35.791 -40.7227 L 46.3379 -50 L 53.7598 -57.5195 C 54.7363 -58.4473 55.3711 -59.7168 55.3711 -61.2305 C 55.3711 -64.1113 53.2227 -66.2109 50.293 -66.2109 C 48.9258 -66.2109 47.6562 -65.6738 46.5332 -64.5996 L 21.582 -39.6973 C 20.6055 -38.7695 20.0195 -37.4023 19.9707 -36.0352 L 19.9707 -61.1816 C 19.9707 -64.0625 17.7246 -66.2109 14.8438 -66.2109 C 11.9629 -66.2109 9.76562 -64.0625 9.76562 -61.1816 L 9.76562 -10.4492 C 9.76562 -7.61719 11.9629 -5.46875 14.8438 -5.46875 Z"/>
  </g>
  <g id="Medium-S" transform="matrix(1 0 0 1 1695.7 696)">
   <path d="M 14.3555 -5.95703 C 16.9922 -5.95703 18.9453 -7.86133 18.9453 -10.4492 L 18.9453 -35.7422 C 18.9453 -34.6191 19.4824 -33.3496 20.459 -32.373 L 45.5078 -7.42188 C 46.5332 -6.44531 47.6562 -5.95703 48.877 -5.95703 C 51.4648 -5.95703 53.418 -7.86133 53.418 -10.4492 C 53.418 -11.7188 52.9297 -12.8906 52.0508 -13.7207 L 44.9219 -20.9961 L 33.0566 -31.543 L 41.3086 -31.2012 L 87.207 -31.2012 C 90.0391 -31.2012 91.9434 -33.1055 91.9434 -35.8887 C 91.9434 -38.623 90.0391 -40.5273 87.207 -40.5273 L 41.3086 -40.5273 L 33.1055 -40.1855 L 44.9219 -50.7324 L 52.0508 -58.0078 C 52.9297 -58.8379 53.418 -60.0098 53.418 -61.3281 C 53.418 -63.8672 51.4648 -65.7715 48.877 -65.7715 C 47.6562 -65.7715 46.5332 -65.332 45.5078 -64.3555 L 20.459 -39.3555 C 19.5312 -38.4766 18.9941 -37.2559 18.9453 -36.0352 L 18.9453 -61.2305 C 18.9453 -63.8672 16.9922 -65.7715 14.3555 -65.7715 C 11.7188 -65.7715 9.76562 -63.8672 9.76562 -61.2305 L 9.76562 -10.4492 C 9.76562 -7.86133 11.7188 -5.95703 14.3555 -5.95703 Z"/>
  </g>
  <g id="Regular-S" transform="matrix(1 0 0 1 1399.8 696)">
   <path d="M 13.7207 -6.5918 C 16.0156 -6.5918 17.627 -8.1543 17.627 -10.4004 L 17.627 -35.7422 C 17.627 -34.8145 18.1152 -33.7891 18.9941 -32.959 L 44.1895 -7.8125 C 45.1172 -6.98242 46.0449 -6.5918 47.0703 -6.5918 C 49.2188 -6.5918 50.9277 -8.20312 50.9277 -10.4004 C 50.9277 -11.4258 50.5371 -12.4512 49.8535 -13.1836 L 43.0664 -20.1172 L 29.541 -32.2754 L 37.7441 -31.9824 L 86.4258 -31.9824 C 88.7207 -31.9824 90.332 -33.5938 90.332 -35.8887 C 90.332 -38.1836 88.7207 -39.8438 86.4258 -39.8438 L 37.7441 -39.8438 L 29.5898 -39.502 L 43.0664 -51.6602 L 49.8535 -58.6426 C 50.5371 -59.3262 50.9277 -60.4004 50.9277 -61.4258 C 50.9277 -63.623 49.2188 -65.1855 47.0703 -65.1855 C 46.0449 -65.1855 45.1172 -64.8438 44.1895 -63.9648 L 18.9941 -38.8672 C 18.1641 -38.0859 17.6758 -37.1094 17.627 -36.084 L 17.627 -61.3281 C 17.627 -63.623 16.0156 -65.1855 13.7207 -65.1855 C 11.4258 -65.1855 9.76562 -63.623 9.76562 -61.3281 L 9.76562 -10.4004 C 9.76562 -8.1543 11.4258 -6.5918 13.7207 -6.5918 Z"/>
  </g>
  <g id="Light-S" transform="matrix(1 0 0 1 1104.38 696)">
   <path d="M 12.7441 -7.27539 C 14.502 -7.27539 15.7715 -8.44727 15.7715 -10.1562 L 15.7715 -35.5957 C 15.8691 -34.9121 16.2109 -34.2773 16.748 -33.7891 L 42.334 -8.1543 C 43.0176 -7.51953 43.7012 -7.27539 44.5312 -7.27539 C 46.1914 -7.27539 47.4609 -8.49609 47.4609 -10.1562 C 47.4609 -10.9375 47.168 -11.7188 46.6309 -12.2559 L 36.5723 -22.4121 L 24.7559 -33.3008 L 32.959 -33.0078 L 84.7656 -33.0078 C 86.5234 -33.0078 87.7441 -34.2773 87.7441 -35.9863 C 87.7441 -37.7441 86.5234 -39.0137 84.7656 -39.0137 L 32.959 -39.0137 L 24.8047 -38.7207 L 36.5723 -49.6094 L 46.6309 -59.7656 C 47.168 -60.3027 47.4609 -61.084 47.4609 -61.8652 C 47.4609 -63.5254 46.1914 -64.7461 44.5312 -64.7461 C 43.7012 -64.7461 43.0176 -64.502 42.334 -63.8184 L 16.748 -38.2324 C 16.2109 -37.6953 15.8691 -37.1094 15.7715 -36.4746 L 15.7715 -61.8164 C 15.7715 -63.5254 14.502 -64.7461 12.7441 -64.7461 C 11.0352 -64.7461 9.76562 -63.5254 9.76562 -61.8164 L 9.76562 -10.1562 C 9.76562 -8.44727 11.0352 -7.27539 12.7441 -7.27539 Z"/>
  </g>
  <g id="Thin-S" transform="matrix(1 0 0 1 809.376 696)">
   <path d="M 11.5234 -8.10547 C 12.5488 -8.10547 13.2812 -8.83789 13.2812 -9.81445 L 13.2812 -35.6445 C 13.3789 -35.3516 13.5254 -35.1074 13.7695 -34.8633 L 39.8926 -8.64258 C 40.2832 -8.25195 40.6738 -8.10547 41.1621 -8.10547 C 42.1387 -8.10547 42.8711 -8.83789 42.8711 -9.81445 C 42.8711 -10.3027 42.7246 -10.791 42.4316 -11.084 L 28.0273 -25.4883 L 18.457 -34.5703 L 26.6602 -34.4238 L 82.6172 -34.4238 C 83.5938 -34.4238 84.3262 -35.1562 84.3262 -36.1328 C 84.3262 -37.1582 83.5938 -37.8906 82.6172 -37.8906 L 26.6602 -37.8906 L 18.457 -37.6953 L 28.0273 -46.8262 L 42.4316 -61.2305 C 42.7246 -61.5234 42.8711 -62.0117 42.8711 -62.5 C 42.8711 -63.4277 42.1387 -64.209 41.1621 -64.209 C 40.6738 -64.209 40.2832 -64.0137 39.8926 -63.6719 L 13.7695 -37.4512 C 13.5254 -37.207 13.3789 -36.9141 13.2812 -36.6211 L 13.2812 -62.4512 C 13.2812 -63.4277 12.5488 -64.209 11.5234 -64.209 C 10.5469 -64.209 9.76562 -63.4277 9.76562 -62.4512 L 9.76562 -9.81445 C 9.76562 -8.83789 10.5469 -8.10547 11.5234 -8.10547 Z"/>
  </g>
  <g id="Ultralight-S" transform="matrix(1 0 0 1 513.544 696)">
   <path d="M 10.8887 -8.54492 C 11.5234 -8.54492 12.0117 -9.0332 12.0117 -9.66797 L 12.0117 -35.791 C 12.0605 -35.6445 12.1582 -35.5469 12.2559 -35.4004 L 38.623 -8.88672 C 38.8672 -8.64258 39.0625 -8.54492 39.4043 -8.54492 C 40.0879 -8.54492 40.5273 -9.0332 40.5273 -9.61914 C 40.5273 -9.96094 40.4297 -10.2539 40.2344 -10.4492 L 23.6816 -27.0508 L 15.2832 -35.2539 L 23.3887 -35.1562 L 81.4941 -35.1562 C 82.0801 -35.1562 82.5684 -35.5957 82.5684 -36.2305 C 82.5684 -36.8164 82.0801 -37.3047 81.4941 -37.3047 L 23.3887 -37.3047 L 15.2832 -37.1582 L 23.6816 -45.4102 L 40.2344 -61.9629 C 40.4297 -62.1582 40.5273 -62.5 40.5273 -62.8418 C 40.5273 -63.3789 40.0879 -63.8672 39.4043 -63.8672 C 39.0625 -63.8672 38.8672 -63.7695 38.623 -63.5254 L 12.2559 -37.0117 C 12.1582 -36.9141 12.0605 -36.7676 12.0117 -36.6699 L 12.0117 -62.7441 C 12.0117 -63.3789 11.5234 -63.8672 10.8887 -63.8672 C 10.2539 -63.8672 9.76562 -63.3789 9.76562 -62.7441 L 9.76562 -9.66797 C 9.76562 -9.0332 10.2539 -8.54492 10.8887 -8.54492 Z"/>
  </g>
 </g>
</svg>
