<?xml version="1.0" encoding="UTF-8"?>
<!--Generator: Apple Native CoreSVG 148-->
<!DOCTYPE svg
PUBLIC "-//W3C//DTD SVG 1.1//EN"
       "http://www.w3.org/Graphics/SVG/1.1/DTD/svg11.dtd">
<svg version="1.1" xmlns="http://www.w3.org/2000/svg" xmlns:xlink="http://www.w3.org/1999/xlink" width="3300" height="2200">
 <!--glyph: "uni100C1E.medium", point size: 100.000000, font version: "Version 16.0d11e1", template writer version: "8"-->
 <g id="Notes">
  <rect height="2200" id="artboard" style="fill:white;opacity:1" width="3300" x="0" y="0"/>
  <line id="" style="fill:none;stroke:black;opacity:1;stroke-width:0.5;" x1="263" x2="3036" y1="292" y2="292"/>
  <text style="stroke:none;fill:black;font-family:-apple-system,&quot;SF Pro Display&quot;,&quot;SF Pro Text&quot;,Helvetica,sans-serif;font-weight:bold;" transform="matrix(1 0 0 1 263 322)">Weight/Scale Variations</text>
  <text style="stroke:none;fill:black;font-family:-apple-system,&quot;SF Pro Display&quot;,&quot;SF Pro Text&quot;,Helvetica,sans-serif;text-anchor:middle;" transform="matrix(1 0 0 1 559.711 322)">Ultralight</text>
  <text style="stroke:none;fill:black;font-family:-apple-system,&quot;SF Pro Display&quot;,&quot;SF Pro Text&quot;,Helvetica,sans-serif;text-anchor:middle;" transform="matrix(1 0 0 1 856.422 322)">Thin</text>
  <text style="stroke:none;fill:black;font-family:-apple-system,&quot;SF Pro Display&quot;,&quot;SF Pro Text&quot;,Helvetica,sans-serif;text-anchor:middle;" transform="matrix(1 0 0 1 1153.13 322)">Light</text>
  <text style="stroke:none;fill:black;font-family:-apple-system,&quot;SF Pro Display&quot;,&quot;SF Pro Text&quot;,Helvetica,sans-serif;text-anchor:middle;" transform="matrix(1 0 0 1 1449.84 322)">Regular</text>
  <text style="stroke:none;fill:black;font-family:-apple-system,&quot;SF Pro Display&quot;,&quot;SF Pro Text&quot;,Helvetica,sans-serif;text-anchor:middle;" transform="matrix(1 0 0 1 1746.56 322)">Medium</text>
  <text style="stroke:none;fill:black;font-family:-apple-system,&quot;SF Pro Display&quot;,&quot;SF Pro Text&quot;,Helvetica,sans-serif;text-anchor:middle;" transform="matrix(1 0 0 1 2043.27 322)">Semibold</text>
  <text style="stroke:none;fill:black;font-family:-apple-system,&quot;SF Pro Display&quot;,&quot;SF Pro Text&quot;,Helvetica,sans-serif;text-anchor:middle;" transform="matrix(1 0 0 1 2339.98 322)">Bold</text>
  <text style="stroke:none;fill:black;font-family:-apple-system,&quot;SF Pro Display&quot;,&quot;SF Pro Text&quot;,Helvetica,sans-serif;text-anchor:middle;" transform="matrix(1 0 0 1 2636.69 322)">Heavy</text>
  <text style="stroke:none;fill:black;font-family:-apple-system,&quot;SF Pro Display&quot;,&quot;SF Pro Text&quot;,Helvetica,sans-serif;text-anchor:middle;" transform="matrix(1 0 0 1 2933.4 322)">Black</text>
  <line id="" style="fill:none;stroke:black;opacity:1;stroke-width:0.5;" x1="263" x2="3036" y1="1903" y2="1903"/>
  <g id="" transform="matrix(1 0 0 1 263 1933)">
   <path d="M 9.24805 0.830078 C 13.5547 0.830078 17.1387 -2.74414 17.1387 -7.05078 C 17.1387 -11.3574 13.5449 -14.9316 9.23828 -14.9316 C 4.94141 -14.9316 1.36719 -11.3574 1.36719 -7.05078 C 1.36719 -2.74414 4.95117 0.830078 9.24805 0.830078 Z M 9.24805 -0.654297 C 5.70312 -0.654297 2.87109 -3.49609 2.87109 -7.05078 C 2.87109 -10.6055 5.69336 -13.4473 9.23828 -13.4473 C 12.793 -13.4473 15.6348 -10.6055 15.6445 -7.05078 C 15.6543 -3.49609 12.8027 -0.654297 9.24805 -0.654297 Z M 9.22852 -3.62305 C 9.69727 -3.62305 9.9707 -3.93555 9.9707 -4.45312 L 9.9707 -6.31836 L 12.002 -6.31836 C 12.5 -6.31836 12.832 -6.57227 12.832 -7.04102 C 12.832 -7.51953 12.5195 -7.7832 12.002 -7.7832 L 9.9707 -7.7832 L 9.9707 -9.81445 C 9.9707 -10.332 9.69727 -10.6543 9.22852 -10.6543 C 8.75977 -10.6543 8.50586 -10.3125 8.50586 -9.81445 L 8.50586 -7.7832 L 6.49414 -7.7832 C 5.97656 -7.7832 5.64453 -7.51953 5.64453 -7.04102 C 5.64453 -6.57227 5.99609 -6.31836 6.49414 -6.31836 L 8.50586 -6.31836 L 8.50586 -4.45312 C 8.50586 -3.95508 8.75977 -3.62305 9.22852 -3.62305 Z"/>
  </g>
  <g id="" transform="matrix(1 0 0 1 281.506 1933)">
   <path d="M 11.709 2.91016 C 17.1582 2.91016 21.6699 -1.61133 21.6699 -7.05078 C 21.6699 -12.5 17.1484 -17.0117 11.6992 -17.0117 C 6.25977 -17.0117 1.74805 -12.5 1.74805 -7.05078 C 1.74805 -1.61133 6.26953 2.91016 11.709 2.91016 Z M 11.709 1.25 C 7.09961 1.25 3.41797 -2.44141 3.41797 -7.05078 C 3.41797 -11.6602 7.08984 -15.3516 11.6992 -15.3516 C 16.3086 -15.3516 20 -11.6602 20.0098 -7.05078 C 20.0195 -2.44141 16.3184 1.25 11.709 1.25 Z M 11.6797 -2.66602 C 12.207 -2.66602 12.5098 -3.01758 12.5098 -3.59375 L 12.5098 -6.23047 L 15.3223 -6.23047 C 15.8691 -6.23047 16.25 -6.51367 16.25 -7.03125 C 16.25 -7.55859 15.8887 -7.86133 15.3223 -7.86133 L 12.5098 -7.86133 L 12.5098 -10.6836 C 12.5098 -11.25 12.207 -11.6113 11.6797 -11.6113 C 11.1621 -11.6113 10.8789 -11.2305 10.8789 -10.6836 L 10.8789 -7.86133 L 8.07617 -7.86133 C 7.50977 -7.86133 7.13867 -7.55859 7.13867 -7.03125 C 7.13867 -6.51367 7.5293 -6.23047 8.07617 -6.23047 L 10.8789 -6.23047 L 10.8789 -3.59375 C 10.8789 -3.03711 11.1621 -2.66602 11.6797 -2.66602 Z"/>
  </g>
  <g id="" transform="matrix(1 0 0 1 304.924 1933)">
   <path d="M 14.9707 5.66406 C 21.9336 5.66406 27.6953 -0.0976562 27.6953 -7.05078 C 27.6953 -14.0137 21.9238 -19.7754 14.9609 -19.7754 C 8.00781 -19.7754 2.25586 -14.0137 2.25586 -7.05078 C 2.25586 -0.0976562 8.01758 5.66406 14.9707 5.66406 Z M 14.9707 3.84766 C 8.93555 3.84766 4.08203 -1.01562 4.08203 -7.05078 C 4.08203 -13.0957 8.92578 -17.9492 14.9609 -17.9492 C 21.0059 -17.9492 25.8594 -13.0957 25.8691 -7.05078 C 25.8789 -1.01562 21.0156 3.84766 14.9707 3.84766 Z M 14.9414 -1.38672 C 15.5176 -1.38672 15.8594 -1.77734 15.8594 -2.38281 L 15.8594 -6.13281 L 19.7754 -6.13281 C 20.3711 -6.13281 20.7812 -6.46484 20.7812 -7.02148 C 20.7812 -7.59766 20.3906 -7.93945 19.7754 -7.93945 L 15.8594 -7.93945 L 15.8594 -11.8652 C 15.8594 -12.4805 15.5176 -12.8711 14.9414 -12.8711 C 14.375 -12.8711 14.0527 -12.4609 14.0527 -11.8652 L 14.0527 -7.93945 L 10.1465 -7.93945 C 9.53125 -7.93945 9.13086 -7.59766 9.13086 -7.02148 C 9.13086 -6.46484 9.55078 -6.13281 10.1465 -6.13281 L 14.0527 -6.13281 L 14.0527 -2.38281 C 14.0527 -1.79688 14.375 -1.38672 14.9414 -1.38672 Z"/>
  </g>
  <text style="stroke:none;fill:black;font-family:-apple-system,&quot;SF Pro Display&quot;,&quot;SF Pro Text&quot;,Helvetica,sans-serif;font-weight:bold;" transform="matrix(1 0 0 1 263 1953)">Design Variations</text>
  <text style="stroke:none;fill:black;font-family:-apple-system,&quot;SF Pro Display&quot;,&quot;SF Pro Text&quot;,Helvetica,sans-serif;" transform="matrix(1 0 0 1 263 1971)">Symbols are supported in up to nine weights and three scales.</text>
  <text style="stroke:none;fill:black;font-family:-apple-system,&quot;SF Pro Display&quot;,&quot;SF Pro Text&quot;,Helvetica,sans-serif;" transform="matrix(1 0 0 1 263 1989)">For optimal layout with text and other symbols, vertically align</text>
  <text style="stroke:none;fill:black;font-family:-apple-system,&quot;SF Pro Display&quot;,&quot;SF Pro Text&quot;,Helvetica,sans-serif;" transform="matrix(1 0 0 1 263 2007)">symbols with the adjacent text.</text>
  <line id="" style="fill:none;stroke:#00AEEF;stroke-width:0.5;opacity:1.0;" x1="776" x2="776" y1="1919" y2="1933"/>
  <g id="" transform="matrix(1 0 0 1 776 1933)">
   <path d="M 3.31055 0.126953 C 3.82812 0.126953 4.08203 -0.0683594 4.26758 -0.605469 L 5.52734 -4.0625 L 11.2891 -4.0625 L 12.5488 -0.605469 C 12.7344 -0.0683594 12.9883 0.126953 13.4961 0.126953 C 14.0137 0.126953 14.3457 -0.185547 14.3457 -0.673828 C 14.3457 -0.839844 14.3164 -0.986328 14.2383 -1.20117 L 9.6582 -13.3887 C 9.43359 -13.9941 9.0332 -14.2871 8.4082 -14.2871 C 7.80273 -14.2871 7.39258 -13.9941 7.17773 -13.3984 L 2.59766 -1.19141 C 2.51953 -0.976562 2.49023 -0.830078 2.49023 -0.664062 C 2.49023 -0.175781 2.80273 0.126953 3.31055 0.126953 Z M 6.00586 -5.53711 L 8.37891 -12.1094 L 8.42773 -12.1094 L 10.8008 -5.53711 Z"/>
  </g>
  <line id="" style="fill:none;stroke:#00AEEF;stroke-width:0.5;opacity:1.0;" x1="792.836" x2="792.836" y1="1919" y2="1933"/>
  <text style="stroke:none;fill:black;font-family:-apple-system,&quot;SF Pro Display&quot;,&quot;SF Pro Text&quot;,Helvetica,sans-serif;font-weight:bold;" transform="matrix(1 0 0 1 776 1953)">Margins</text>
  <text style="stroke:none;fill:black;font-family:-apple-system,&quot;SF Pro Display&quot;,&quot;SF Pro Text&quot;,Helvetica,sans-serif;" transform="matrix(1 0 0 1 776 1971)">Leading and trailing margins on the left and right side of each symbol</text>
  <text style="stroke:none;fill:black;font-family:-apple-system,&quot;SF Pro Display&quot;,&quot;SF Pro Text&quot;,Helvetica,sans-serif;" transform="matrix(1 0 0 1 776 1989)">can be adjusted by modifying the x-location of the margin guidelines.</text>
  <text style="stroke:none;fill:black;font-family:-apple-system,&quot;SF Pro Display&quot;,&quot;SF Pro Text&quot;,Helvetica,sans-serif;" transform="matrix(1 0 0 1 776 2007)">Modifications are automatically applied proportionally to all</text>
  <text style="stroke:none;fill:black;font-family:-apple-system,&quot;SF Pro Display&quot;,&quot;SF Pro Text&quot;,Helvetica,sans-serif;" transform="matrix(1 0 0 1 776 2025)">scales and weights.</text>
  <g id="" transform="matrix(1 0 0 1 1289 1933)">
   <path d="M 2.8418 1.86523 L 4.54102 3.57422 C 5.40039 4.44336 6.38672 4.38477 7.31445 3.35938 L 17.4902 -7.85156 C 17.7539 -7.76367 18.0273 -7.7832 18.3398 -7.8418 L 19.4043 -8.03711 L 20.0684 -7.36328 L 20.0293 -6.80664 C 19.9902 -6.30859 20.1172 -5.92773 20.6055 -5.44922 L 21.3672 -4.70703 C 21.8457 -4.22852 22.4609 -4.19922 22.9297 -4.66797 L 25.8398 -7.58789 C 26.3086 -8.05664 26.2891 -8.65234 25.8105 -9.13086 L 25.0391 -9.89258 C 24.5605 -10.3711 24.1895 -10.5273 23.7109 -10.4883 L 23.1348 -10.4395 L 22.4902 -11.0742 L 22.7344 -12.1973 C 22.8613 -12.7637 22.7051 -13.2031 22.1191 -13.7891 L 19.9219 -15.9766 C 16.582 -19.2969 12.1484 -19.2188 9.25781 -16.3281 C 8.83789 -15.918 8.80859 -15.3418 9.04297 -14.9512 C 9.27734 -14.5898 9.73633 -14.3555 10.3809 -14.5215 C 11.8457 -14.8633 13.3691 -14.9219 14.7949 -13.9844 L 14.209 -12.5293 C 14.0137 -12.0508 13.9844 -11.6504 14.1113 -11.2891 L 3.04688 -0.898438 C 2.06055 0.0195312 1.98242 0.996094 2.8418 1.86523 Z M 10.752 -15.957 C 13.1836 -17.7344 16.4746 -17.4316 18.7012 -15.2051 L 21.1328 -12.793 C 21.3672 -12.5586 21.4062 -12.373 21.3379 -12.0312 L 21.0156 -10.5469 L 22.5195 -9.0625 L 23.5059 -9.12109 C 23.7598 -9.13086 23.8379 -9.11133 24.0332 -8.91602 L 24.6094 -8.33984 L 22.168 -5.89844 L 21.5918 -6.47461 C 21.3965 -6.66992 21.3672 -6.74805 21.377 -7.01172 L 21.4453 -7.98828 L 19.9512 -9.47266 L 18.4277 -9.21875 C 18.1055 -9.15039 17.959 -9.17969 17.7148 -9.41406 L 15.7129 -11.416 C 15.459 -11.6504 15.4297 -11.8164 15.5859 -12.1875 L 16.4648 -14.2773 C 14.9023 -15.7324 12.8711 -16.3574 10.8398 -15.7617 C 10.6836 -15.7227 10.625 -15.8496 10.752 -15.957 Z M 5.27344 2.30469 L 4.10156 1.14258 C 3.63281 0.683594 3.74023 0.341797 4.14062 -0.0195312 L 14.9512 -10.1953 L 16.416 -8.71094 L 6.42578 2.27539 C 6.07422 2.67578 5.74219 2.77344 5.27344 2.30469 Z"/>
  </g>
  <text style="stroke:none;fill:black;font-family:-apple-system,&quot;SF Pro Display&quot;,&quot;SF Pro Text&quot;,Helvetica,sans-serif;font-weight:bold;" transform="matrix(1 0 0 1 1289 1953)">Exporting</text>
  <text style="stroke:none;fill:black;font-family:-apple-system,&quot;SF Pro Display&quot;,&quot;SF Pro Text&quot;,Helvetica,sans-serif;" transform="matrix(1 0 0 1 1289 1971)">Symbols should be outlined when exporting to ensure the</text>
  <text style="stroke:none;fill:black;font-family:-apple-system,&quot;SF Pro Display&quot;,&quot;SF Pro Text&quot;,Helvetica,sans-serif;" transform="matrix(1 0 0 1 1289 1989)">design is preserved when submitting to Xcode.</text>
  <text id="template-version" style="stroke:none;fill:black;font-family:-apple-system,&quot;SF Pro Display&quot;,&quot;SF Pro Text&quot;,Helvetica,sans-serif;text-anchor:end;" transform="matrix(1 0 0 1 3036 1933)">Template v.2.0</text>
  <text style="stroke:none;fill:black;font-family:-apple-system,&quot;SF Pro Display&quot;,&quot;SF Pro Text&quot;,Helvetica,sans-serif;text-anchor:end;" transform="matrix(1 0 0 1 3036 1951)">Requires Xcode 12 or greater</text>
  <text style="stroke:none;fill:black;font-family:-apple-system,&quot;SF Pro Display&quot;,&quot;SF Pro Text&quot;,Helvetica,sans-serif;text-anchor:end;" transform="matrix(1 0 0 1 3036 1969)">Generated from arrowshape.turn.up.forward</text>
  <text style="stroke:none;fill:black;font-family:-apple-system,&quot;SF Pro Display&quot;,&quot;SF Pro Text&quot;,Helvetica,sans-serif;text-anchor:end;" transform="matrix(1 0 0 1 3036 1987)">Typeset at 100 points</text>
  <text style="stroke:none;fill:black;font-family:-apple-system,&quot;SF Pro Display&quot;,&quot;SF Pro Text&quot;,Helvetica,sans-serif;" transform="matrix(1 0 0 1 263 726)">Small</text>
  <text style="stroke:none;fill:black;font-family:-apple-system,&quot;SF Pro Display&quot;,&quot;SF Pro Text&quot;,Helvetica,sans-serif;" transform="matrix(1 0 0 1 263 1156)">Medium</text>
  <text style="stroke:none;fill:black;font-family:-apple-system,&quot;SF Pro Display&quot;,&quot;SF Pro Text&quot;,Helvetica,sans-serif;" transform="matrix(1 0 0 1 263 1586)">Large</text>
 </g>
 <g id="Guides">
  <g id="H-reference" style="fill:#27AAE1;stroke:none;" transform="matrix(1 0 0 1 339 696)">
   <path d="M 0.976562 0 L 3.66211 0 L 12.9883 -24.4629 L 45.7031 -24.4629 L 55.0781 0 L 57.7148 0 L 30.6152 -70.459 L 28.125 -70.459 Z M 29.2969 -67.1387 L 29.3945 -67.1387 L 44.873 -26.709 L 13.8672 -26.709 Z"/>
  </g>
  <line id="Baseline-S" style="fill:none;stroke:#27AAE1;opacity:1;stroke-width:0.5;" x1="263" x2="3036" y1="696" y2="696"/>
  <line id="Capline-S" style="fill:none;stroke:#27AAE1;opacity:1;stroke-width:0.5;" x1="263" x2="3036" y1="625.541" y2="625.541"/>
  <g id="H-reference" style="fill:#27AAE1;stroke:none;" transform="matrix(1 0 0 1 339 1126)">
   <path d="M 0.976562 0 L 3.66211 0 L 12.9883 -24.4629 L 45.7031 -24.4629 L 55.0781 0 L 57.7148 0 L 30.6152 -70.459 L 28.125 -70.459 Z M 29.2969 -67.1387 L 29.3945 -67.1387 L 44.873 -26.709 L 13.8672 -26.709 Z"/>
  </g>
  <line id="Baseline-M" style="fill:none;stroke:#27AAE1;opacity:1;stroke-width:0.5;" x1="263" x2="3036" y1="1126" y2="1126"/>
  <line id="Capline-M" style="fill:none;stroke:#27AAE1;opacity:1;stroke-width:0.5;" x1="263" x2="3036" y1="1055.54" y2="1055.54"/>
  <g id="H-reference" style="fill:#27AAE1;stroke:none;" transform="matrix(1 0 0 1 339 1556)">
   <path d="M 0.976562 0 L 3.66211 0 L 12.9883 -24.4629 L 45.7031 -24.4629 L 55.0781 0 L 57.7148 0 L 30.6152 -70.459 L 28.125 -70.459 Z M 29.2969 -67.1387 L 29.3945 -67.1387 L 44.873 -26.709 L 13.8672 -26.709 Z"/>
  </g>
  <line id="Baseline-L" style="fill:none;stroke:#27AAE1;opacity:1;stroke-width:0.5;" x1="263" x2="3036" y1="1556" y2="1556"/>
  <line id="Capline-L" style="fill:none;stroke:#27AAE1;opacity:1;stroke-width:0.5;" x1="263" x2="3036" y1="1485.54" y2="1485.54"/>
  <line id="left-margin" style="fill:none;stroke:#00AEEF;stroke-width:0.5;opacity:1.0;" x1="1387.86" x2="1387.86" y1="1030.79" y2="1150.12"/>
  <line id="right-margin" style="fill:none;stroke:#00AEEF;stroke-width:0.5;opacity:1.0;" x1="1511.83" x2="1511.83" y1="1030.79" y2="1150.12"/>
 </g>
 <g id="Symbols">
  <g id="Black-L" transform="matrix(1 0 0 1 2851.76 1556)">
   <path d="M 87.7441 26.3672 C 92.2363 26.3672 95.7031 24.6582 100 20.6543 L 150.439 -25.9766 C 153.027 -28.418 154.443 -32.1777 154.443 -35.2051 C 154.443 -38.4766 153.076 -41.9434 150.537 -44.3848 L 100 -90.9668 C 95.3125 -95.2148 92.0898 -96.8262 87.793 -96.8262 C 80.8594 -96.8262 75.5371 -91.4062 75.5371 -84.4727 L 75.5371 -66.2598 L 74.9023 -66.2598 C 36.2793 -66.2598 15.2832 -40.9668 15.2832 1.9043 C 15.2832 17.5293 19.5801 25.1953 27.2461 25.1953 C 32.4707 25.1953 36.4258 22.998 39.7461 16.6016 C 46.4844 4.6875 56.2988 -3.71094 74.9023 -3.71094 L 75.5371 -3.71094 L 75.5371 14.209 C 75.5371 21.0938 80.8594 26.3672 87.7441 26.3672 Z M 93.0664 1.36719 C 92.4805 1.36719 91.9922 0.830078 91.9922 0.146484 L 91.9922 -19.6777 C 91.9922 -21.0938 91.3574 -21.6797 89.9414 -21.6797 L 82.8125 -21.6797 C 56.9824 -21.6797 40.7715 -16.0156 32.8125 -1.02539 C 32.666 -0.683594 32.5195 -0.585938 32.2754 -0.585938 C 32.0801 -0.585938 31.9336 -0.732422 31.9336 -1.07422 C 32.373 -30.6641 49.4141 -48.7305 82.8125 -48.7305 L 89.9414 -48.7305 C 91.3574 -48.7305 91.9922 -49.3652 91.9922 -50.7812 L 91.9922 -70.6543 C 91.9922 -71.3867 92.4805 -71.8262 93.0664 -71.8262 C 93.4082 -71.8262 93.7012 -71.7285 93.9941 -71.4844 L 131.299 -36.1816 C 131.689 -35.791 131.836 -35.5469 131.836 -35.2051 C 131.836 -34.9121 131.689 -34.668 131.299 -34.2773 L 93.9941 0.878906 C 93.7012 1.17188 93.4082 1.36719 93.0664 1.36719 Z"/>
  </g>
  <g id="Heavy-L" transform="matrix(1 0 0 1 2555.63 1556)">
   <path d="M 87.8418 25.293 C 91.9434 25.293 95.1172 23.6816 99.0234 20.0684 L 149.268 -26.6113 C 151.855 -29.0039 153.125 -32.4219 153.125 -35.2051 C 153.125 -38.1836 151.904 -41.4062 149.316 -43.8477 L 99.0234 -90.332 C 94.7754 -94.2383 91.8457 -95.752 87.8906 -95.752 C 81.6406 -95.752 76.9531 -90.8691 76.9531 -84.668 L 76.9531 -64.9414 L 75.9766 -64.9414 C 36.1328 -64.9414 15.1367 -39.1602 15.1367 4.83398 C 15.1367 17.8711 19.0918 24.4141 25.6836 24.4141 C 30.2734 24.4141 33.8867 22.5586 36.8652 16.7969 C 44.4336 2.88086 55.7129 -5.12695 75.9766 -5.12695 L 76.9531 -5.12695 L 76.9531 14.4043 C 76.9531 20.6055 81.6406 25.293 87.8418 25.293 Z M 92.5781 3.4668 C 91.9922 3.4668 91.5527 2.97852 91.5527 2.29492 L 91.5527 -18.7988 C 91.5527 -20.2148 90.918 -20.8008 89.5508 -20.8008 L 82.2754 -20.8008 C 55.4199 -20.8008 38.5254 -14.1113 30.6641 1.36719 C 30.4688 1.75781 30.3223 1.9043 30.0781 1.9043 C 29.834 1.9043 29.6387 1.75781 29.6387 1.36719 C 30.2246 -29.1992 46.875 -49.6094 82.2754 -49.6094 L 89.5508 -49.6094 C 90.918 -49.6094 91.5527 -50.2441 91.5527 -51.6602 L 91.5527 -72.9492 C 91.5527 -73.6328 91.9922 -74.0723 92.627 -74.0723 C 92.9688 -74.0723 93.3105 -73.9258 93.6035 -73.6328 L 132.91 -36.377 C 133.398 -35.8887 133.594 -35.5957 133.594 -35.2051 C 133.594 -34.8633 133.398 -34.5703 132.91 -34.082 L 93.6035 2.97852 C 93.2617 3.32031 92.9199 3.4668 92.5781 3.4668 Z"/>
  </g>
  <g id="Bold-L" transform="matrix(1 0 0 1 2259.58 1556)">
   <path d="M 87.9395 24.0723 C 91.6016 24.0723 94.4824 22.6074 97.9492 19.3848 L 147.998 -27.2949 C 150.537 -29.7363 151.611 -32.7148 151.611 -35.2539 C 151.611 -37.8906 150.586 -40.7227 147.998 -43.1641 L 97.9492 -89.6484 C 94.1406 -93.1152 91.5527 -94.5312 88.0371 -94.5312 C 82.5195 -94.5312 78.5156 -90.2832 78.5156 -84.8633 L 78.5156 -63.4277 L 77.1484 -63.4277 C 35.9863 -63.4277 14.9902 -37.1582 14.9902 8.05664 C 14.9902 18.2617 18.5059 23.4863 23.877 23.4863 C 27.7832 23.4863 31.0059 22.0215 33.6426 16.9922 C 42.1875 0.78125 55.0781 -6.73828 77.1484 -6.73828 L 78.5156 -6.73828 L 78.5156 14.5996 C 78.5156 20.0195 82.5195 24.0723 87.9395 24.0723 Z M 92.0898 5.85938 C 91.5039 5.85938 91.0645 5.37109 91.0645 4.73633 L 91.0645 -17.7734 C 91.0645 -19.1895 90.4785 -19.7754 89.0625 -19.7754 L 81.7383 -19.7754 C 53.7109 -19.7754 36.0352 -11.9141 28.2227 4.05273 C 28.0273 4.49219 27.8809 4.6875 27.5879 4.6875 C 27.2949 4.6875 27.0996 4.49219 27.0996 4.05273 C 27.832 -27.5391 43.9941 -50.5859 81.7383 -50.5859 L 89.0625 -50.5859 C 90.4785 -50.5859 91.0645 -51.2207 91.0645 -52.6367 L 91.0645 -75.4883 C 91.0645 -76.123 91.5039 -76.5625 92.0898 -76.5625 C 92.4805 -76.5625 92.8223 -76.3672 93.1641 -76.0742 L 134.766 -36.5723 C 135.303 -36.0352 135.498 -35.6934 135.498 -35.2539 C 135.498 -34.8145 135.352 -34.4238 134.766 -33.8867 L 93.1641 5.32227 C 92.7734 5.66406 92.4316 5.85938 92.0898 5.85938 Z"/>
  </g>
  <g id="Semibold-L" transform="matrix(1 0 0 1 1963.34 1556)">
   <path d="M 87.9883 23.2422 C 91.3574 23.2422 94.043 21.8262 97.168 18.8965 L 147.07 -27.7832 C 149.658 -30.1758 150.586 -32.9102 150.586 -35.2539 C 150.586 -37.6465 149.707 -40.2832 147.119 -42.7246 L 97.168 -89.1602 C 93.7012 -92.3828 91.3574 -93.7012 88.0859 -93.7012 C 83.1543 -93.7012 79.5898 -89.8438 79.5898 -85.0098 L 79.5898 -62.4023 L 77.9785 -62.4023 C 35.8887 -62.4023 14.8438 -35.791 14.8438 10.3027 C 14.8438 18.5547 18.1152 22.8516 22.6562 22.8516 C 26.0742 22.8516 29.0039 21.6797 31.3965 17.1387 C 40.6738 -0.634766 54.6387 -7.8125 77.9785 -7.8125 L 79.5898 -7.8125 L 79.5898 14.7949 C 79.5898 19.5801 83.1543 23.2422 87.9883 23.2422 Z M 91.6992 7.4707 C 91.1133 7.4707 90.7227 7.03125 90.7227 6.39648 L 90.7227 -17.0898 C 90.7227 -18.5059 90.1367 -19.0918 88.7207 -19.0918 L 81.2988 -19.0918 C 52.4902 -19.0918 34.3262 -10.4004 26.5625 5.9082 C 26.3672 6.34766 26.1719 6.64062 25.8789 6.64062 C 25.5371 6.64062 25.3906 6.39648 25.3906 5.95703 C 26.1719 -26.416 42.041 -51.2695 81.2988 -51.2695 L 88.7207 -51.2695 C 90.1367 -51.2695 90.7227 -51.8555 90.7227 -53.2715 L 90.7227 -77.2461 C 90.7227 -77.8809 91.1621 -78.2715 91.748 -78.2715 C 92.1875 -78.2715 92.5293 -78.0273 92.8711 -77.7344 L 135.986 -36.7676 C 136.621 -36.1328 136.865 -35.7422 136.865 -35.2539 C 136.865 -34.8145 136.67 -34.375 135.986 -33.7402 L 92.8711 6.88477 C 92.4316 7.27539 92.0898 7.4707 91.6992 7.4707 Z"/>
  </g>
  <g id="Medium-L" transform="matrix(1 0 0 1 1666.97 1556)">
   <path d="M 88.0859 22.5586 C 91.1621 22.5586 93.6523 21.2891 96.6309 18.5547 L 146.387 -28.125 C 148.975 -30.5664 149.805 -33.1055 149.805 -35.2539 C 149.805 -37.5 149.023 -39.9414 146.387 -42.4316 L 96.6309 -88.8184 C 93.4082 -91.7969 91.2109 -93.1152 88.1348 -93.1152 C 83.5938 -93.1152 80.4199 -89.5508 80.4199 -85.1562 L 80.4199 -61.6211 L 78.6133 -61.6211 C 35.8398 -61.6211 14.7949 -34.7168 14.7949 11.9629 C 14.7949 18.75 17.8223 22.3633 21.7285 22.3633 C 24.7559 22.3633 27.5391 21.3867 29.6875 17.2363 C 39.4531 -1.70898 54.2969 -8.64258 78.6133 -8.64258 L 80.4199 -8.64258 L 80.4199 14.8926 C 80.4199 19.2871 83.5938 22.5586 88.0859 22.5586 Z M 91.4551 8.69141 C 90.8691 8.69141 90.4785 8.30078 90.4785 7.66602 L 90.4785 -16.5527 C 90.4785 -17.9688 89.8926 -18.5547 88.4766 -18.5547 L 81.0059 -18.5547 C 51.5625 -18.5547 33.0078 -9.27734 25.293 7.32422 C 25.0977 7.8125 24.9023 8.10547 24.6094 8.10547 C 24.2188 8.10547 24.0723 7.8125 24.0723 7.37305 C 24.9512 -25.5371 40.5762 -51.8066 81.0059 -51.8066 L 88.4766 -51.8066 C 89.8926 -51.8066 90.4785 -52.3926 90.4785 -53.8086 L 90.4785 -78.5645 C 90.4785 -79.1504 90.8691 -79.541 91.4551 -79.541 C 91.8945 -79.541 92.2852 -79.2969 92.627 -79.0039 L 136.963 -36.8652 C 137.646 -36.2305 137.891 -35.7422 137.891 -35.2539 C 137.891 -34.7656 137.646 -34.3262 136.963 -33.6426 L 92.627 8.10547 C 92.1875 8.54492 91.7969 8.69141 91.4551 8.69141 Z"/>
  </g>
  <g id="Regular-L" transform="matrix(1 0 0 1 1370.69 1556)">
   <path d="M 88.1348 21.7285 C 90.918 21.7285 93.2129 20.5566 95.8496 18.0664 L 145.508 -28.6133 C 148.096 -31.0547 148.828 -33.3008 148.828 -35.2539 C 148.828 -37.3047 148.096 -39.502 145.508 -41.9922 L 95.8496 -88.3301 C 92.9688 -91.0156 91.0156 -92.2852 88.2324 -92.2852 C 84.2285 -92.2852 81.4941 -89.1113 81.4941 -85.2539 L 81.4941 -60.5957 L 79.4434 -60.5957 C 35.7422 -60.5957 14.6484 -33.3496 14.6484 14.209 C 14.6484 19.043 17.4316 21.7285 20.5566 21.7285 C 23.0469 21.7285 25.5859 21.0449 27.4902 17.334 C 37.9395 -3.125 53.8574 -9.7168 79.4434 -9.7168 L 81.4941 -9.7168 L 81.4941 15.0391 C 81.4941 18.8965 84.2285 21.7285 88.1348 21.7285 Z M 91.0645 10.3027 C 90.5273 10.3027 90.1367 9.91211 90.1367 9.32617 L 90.1367 -15.8691 C 90.1367 -17.2852 89.5508 -17.8711 88.1348 -17.8711 L 80.6152 -17.8711 C 50.3906 -17.8711 31.2988 -7.8125 23.6328 9.13086 C 23.4375 9.66797 23.2422 10.0098 22.9004 10.0098 C 22.5098 10.0098 22.3145 9.7168 22.3145 9.22852 C 23.3398 -24.4141 38.623 -52.4414 80.6152 -52.4414 L 88.1348 -52.4414 C 89.5508 -52.4414 90.1367 -53.0762 90.1367 -54.4434 L 90.1367 -80.3223 C 90.1367 -80.8594 90.5273 -81.25 91.1133 -81.25 C 91.6016 -81.25 91.9922 -80.957 92.334 -80.6641 L 138.184 -37.0117 C 138.965 -36.3281 139.209 -35.791 139.209 -35.2539 C 139.209 -34.7168 138.965 -34.2285 138.184 -33.4961 L 92.334 9.7168 C 91.8457 10.1562 91.4551 10.3027 91.0645 10.3027 Z"/>
  </g>
  <g id="Light-L" transform="matrix(1 0 0 1 1075.13 1556)">
   <path d="M 86.6699 20.7031 C 89.1113 20.7031 91.0645 19.5801 93.1641 17.627 L 142.725 -28.7109 C 145.508 -31.3965 146.143 -33.3984 146.143 -35.2539 C 146.143 -37.1582 145.557 -39.1602 142.725 -41.8457 L 93.1641 -87.9883 C 90.918 -90.0879 89.1602 -91.2109 86.7676 -91.2109 C 83.3008 -91.2109 81.1035 -88.5254 81.1035 -85.2051 L 81.1035 -59.375 L 78.7109 -59.375 C 37.207 -59.375 14.3066 -34.4727 14.3066 14.3555 C 14.3066 18.3594 16.6504 20.7031 19.3359 20.7031 C 21.6309 20.7031 23.6328 19.873 25.2441 16.6504 C 34.9121 -3.61328 51.4648 -10.791 78.7109 -10.791 L 81.1035 -10.791 L 81.1035 14.8926 C 81.1035 18.1641 83.3008 20.7031 86.6699 20.7031 Z M 88.7207 12.207 C 88.0859 12.207 87.6953 11.7188 87.6953 11.0352 L 87.6953 -15.2344 C 87.6953 -16.6016 87.207 -17.0898 85.8398 -17.0898 L 79.5898 -17.0898 C 48.877 -17.0898 29.834 -7.4707 21.875 11.0352 C 21.6309 11.6699 21.3867 12.1094 20.8984 12.1094 C 20.4102 12.1094 20.2148 11.7676 20.2148 11.2305 C 20.8008 -27.6367 39.2578 -53.0762 79.5898 -53.0762 L 85.8398 -53.0762 C 87.207 -53.0762 87.6953 -53.6133 87.6953 -54.9316 L 87.6953 -81.9336 C 87.6953 -82.5684 88.1348 -82.959 88.7695 -82.959 C 89.3555 -82.959 89.7461 -82.6172 90.1855 -82.2266 L 137.402 -37.793 C 138.525 -36.7188 138.867 -36.0352 138.867 -35.2539 C 138.867 -34.5215 138.574 -33.7891 137.402 -32.7637 L 90.1367 11.4258 C 89.5508 11.9629 89.1602 12.207 88.7207 12.207 Z"/>
  </g>
  <g id="Thin-L" transform="matrix(1 0 0 1 779.933 1556)">
   <path d="M 84.7656 19.2871 C 86.6699 19.2871 88.2324 18.3105 89.6484 16.9922 L 138.965 -28.8574 C 142.139 -31.8359 142.627 -33.5449 142.627 -35.2539 C 142.627 -37.0117 142.188 -38.6719 138.965 -41.6504 L 89.6484 -87.5 C 88.2324 -88.8184 86.7188 -89.8438 84.8145 -89.8438 C 82.0312 -89.8438 80.5664 -87.7441 80.5664 -85.1562 L 80.5664 -57.7148 L 77.7832 -57.7148 C 39.1113 -57.7148 13.8184 -35.9863 13.8184 14.5508 C 13.8184 17.4805 15.5762 19.2871 17.7734 19.2871 C 19.7754 19.2871 21.0938 18.3594 22.2656 15.7227 C 30.9082 -4.29688 48.3398 -12.207 77.7832 -12.207 L 80.5664 -12.207 L 80.5664 14.6484 C 80.5664 17.2363 82.0312 19.2871 84.7656 19.2871 Z M 85.5957 14.6484 C 84.8633 14.6484 84.4727 14.1113 84.4727 13.3301 L 84.4727 -14.4043 C 84.4727 -15.6738 84.082 -16.0645 82.8125 -16.0645 L 78.2227 -16.0645 C 46.875 -16.0645 27.8809 -7.08008 19.5312 13.5254 C 19.1895 14.3066 18.8965 14.9414 18.3105 14.9414 C 17.627 14.9414 17.3828 14.502 17.3828 13.8672 C 17.5293 -31.9824 40.0879 -53.8574 78.2227 -53.8574 L 82.8125 -53.8574 C 84.082 -53.8574 84.4727 -54.2969 84.4727 -55.5176 L 84.4727 -84.082 C 84.4727 -84.7656 84.9609 -85.2539 85.6445 -85.2539 C 86.377 -85.2539 86.8164 -84.8145 87.3535 -84.3262 L 136.328 -38.7695 C 137.891 -37.3047 138.428 -36.3281 138.428 -35.2539 C 138.428 -34.2285 137.988 -33.252 136.328 -31.7383 L 87.3047 13.7207 C 86.5234 14.4043 86.084 14.6484 85.5957 14.6484 Z"/>
  </g>
  <g id="Ultralight-L" transform="matrix(1 0 0 1 484.003 1556)">
   <path d="M 83.7891 18.6035 C 85.4492 18.6035 86.8164 17.6758 87.8418 16.6992 L 137.061 -28.9551 C 140.381 -32.0801 140.82 -33.5938 140.82 -35.2539 C 140.82 -36.9141 140.479 -38.4277 137.061 -41.6016 L 87.8418 -87.2559 C 86.8164 -88.1836 85.4492 -89.1113 83.7891 -89.1113 C 81.3965 -89.1113 80.2734 -87.3535 80.2734 -85.1074 L 80.2734 -56.8848 L 77.2949 -56.8848 C 40.1367 -56.8848 13.5742 -36.7676 13.5742 14.6484 C 13.5742 17.041 14.9902 18.6035 16.9922 18.6035 C 18.8477 18.6035 19.7754 17.5781 20.752 15.2344 C 28.8574 -4.63867 46.7773 -12.9395 77.2949 -12.9395 L 80.2734 -12.9395 L 80.2734 14.5508 C 80.2734 16.7969 81.3965 18.6035 83.7891 18.6035 Z M 83.9844 15.918 C 83.252 15.918 82.8613 15.332 82.8613 14.502 L 82.8613 -14.0137 C 82.8613 -15.1855 82.4707 -15.5762 81.2988 -15.5762 L 77.4902 -15.5762 C 45.8496 -15.5762 26.8555 -6.83594 18.3105 14.7949 C 17.9688 15.625 17.627 16.4062 16.9434 16.4062 C 16.2109 16.4062 15.9668 15.918 15.9668 15.2344 C 15.8203 -34.1797 40.4785 -54.2969 77.4902 -54.2969 L 81.2988 -54.2969 C 82.4707 -54.2969 82.8613 -54.6875 82.8613 -55.8594 L 82.8613 -85.1562 C 82.8613 -85.9375 83.3496 -86.4258 84.082 -86.4258 C 84.8145 -86.4258 85.3027 -85.8887 85.8887 -85.4004 L 135.791 -39.3066 C 137.598 -37.5977 138.232 -36.4746 138.232 -35.2539 C 138.232 -34.082 137.695 -32.959 135.791 -31.25 L 85.8398 14.9414 C 84.9609 15.6738 84.4727 15.918 83.9844 15.918 Z"/>
  </g>
  <g id="Black-M" transform="matrix(1 0 0 1 2869.95 1126)">
   <path d="M 67.0898 13.4277 C 70.9473 13.4277 73.8281 11.9629 77.3926 8.64258 L 116.699 -27.2949 C 118.799 -29.2969 120.068 -32.5684 120.068 -35.2051 C 120.068 -38.0371 118.848 -41.0645 116.748 -43.0664 L 77.3926 -79.0527 C 73.5352 -82.5684 70.7031 -83.8379 67.0898 -83.8379 C 61.084 -83.8379 56.3965 -79.1504 56.3965 -73.1445 L 56.3965 -60.4004 L 56.2012 -60.4004 C 29.0527 -60.4004 11.8652 -42.7246 11.8652 -10.2539 C 11.8652 4.78516 15.4297 12.1582 22.6074 12.1582 C 27.4414 12.1582 30.6641 9.91211 33.4961 4.3457 C 37.1094 -2.05078 43.1641 -9.47266 56.2012 -9.47266 L 56.3965 -9.47266 L 56.3965 2.73438 C 56.3965 8.78906 61.084 13.4277 67.0898 13.4277 Z M 71.4844 -8.74023 C 70.9961 -8.74023 70.5566 -9.17969 70.5566 -9.81445 L 70.5566 -24.0723 C 70.5566 -25.0977 70.1172 -25.5371 69.043 -25.5371 L 64.3066 -25.5371 C 45.459 -25.5371 33.8379 -22.8027 27.3926 -10.9375 C 27.2949 -10.6934 27.1484 -10.5957 26.9531 -10.5957 C 26.7578 -10.5957 26.6602 -10.6934 26.6602 -10.9375 C 26.6113 -35.4492 42.0898 -44.873 64.3066 -44.873 L 69.043 -44.873 C 70.1172 -44.873 70.5566 -45.2637 70.5566 -46.3379 L 70.5566 -60.498 C 70.5566 -61.1328 70.9961 -61.5234 71.4844 -61.5234 C 71.7285 -61.5234 71.9727 -61.4746 72.2656 -61.2793 L 99.1211 -36.084 C 99.5117 -35.6934 99.6582 -35.498 99.6582 -35.2051 C 99.6582 -34.9609 99.5117 -34.668 99.1211 -34.3262 L 72.2656 -9.13086 C 71.9727 -8.88672 71.7285 -8.74023 71.4844 -8.74023 Z"/>
  </g>
  <g id="Heavy-M" transform="matrix(1 0 0 1 2573.58 1126)">
   <path d="M 67.5781 12.5 C 71.0938 12.5 73.7305 11.1816 77.002 8.10547 L 116.113 -27.9297 C 118.213 -29.8828 119.287 -32.8125 119.287 -35.2051 C 119.287 -37.7441 118.262 -40.4785 116.162 -42.4316 L 77.002 -78.4668 C 73.4375 -81.7383 70.8984 -82.9102 67.627 -82.9102 C 62.207 -82.9102 58.0566 -78.7598 58.0566 -73.3398 L 58.0566 -59.2773 L 57.5684 -59.2773 C 28.5645 -59.2773 11.7676 -40.4785 11.7676 -7.12891 C 11.7676 5.37109 15.0879 11.5234 21.1914 11.5234 C 25.3418 11.5234 28.3691 9.7168 30.9082 4.6875 C 35.6934 -3.95508 43.1152 -10.7422 57.5684 -10.7422 L 58.0566 -10.7422 L 58.0566 2.97852 C 58.0566 8.39844 62.207 12.5 67.5781 12.5 Z M 71.582 -6.88477 C 71.1426 -6.88477 70.7031 -7.32422 70.7031 -7.91016 L 70.7031 -23.2422 C 70.7031 -24.3164 70.2637 -24.7559 69.1895 -24.7559 L 64.0137 -24.7559 C 44.1406 -24.7559 31.7871 -20.752 25.4883 -8.83789 C 25.3418 -8.54492 25.2441 -8.39844 25.0488 -8.39844 C 24.8535 -8.39844 24.707 -8.54492 24.707 -8.83789 C 24.9512 -32.959 39.1113 -45.6543 64.0137 -45.6543 L 69.1895 -45.6543 C 70.2637 -45.6543 70.7031 -46.0938 70.7031 -47.168 L 70.7031 -62.5488 C 70.7031 -63.1348 71.1426 -63.4766 71.582 -63.4766 C 71.875 -63.4766 72.1191 -63.4277 72.3633 -63.2324 L 101.123 -36.084 C 101.514 -35.7422 101.611 -35.498 101.611 -35.2051 C 101.611 -34.9609 101.514 -34.7168 101.123 -34.3262 L 72.3633 -7.27539 C 72.1191 -7.03125 71.875 -6.88477 71.582 -6.88477 Z"/>
  </g>
  <g id="Bold-M" transform="matrix(1 0 0 1 2277.26 1126)">
   <path d="M 68.1152 11.4746 C 71.2402 11.4746 73.6328 10.2539 76.6113 7.51953 L 115.527 -28.6621 C 117.529 -30.5176 118.457 -33.1055 118.457 -35.2051 C 118.457 -37.4512 117.578 -39.8926 115.576 -41.7969 L 76.6113 -77.832 C 73.3887 -80.8105 71.1426 -81.9336 68.1641 -81.9336 C 63.4277 -81.9336 59.9121 -78.2715 59.9121 -73.584 L 59.9121 -58.0078 L 59.082 -58.0078 C 27.9785 -58.0078 11.7188 -37.9395 11.7188 -3.66211 C 11.7188 6.00586 14.6973 10.8398 19.5801 10.8398 C 23.0469 10.8398 25.7812 9.47266 28.0273 5.12695 C 34.1309 -6.05469 43.1152 -12.1582 59.082 -12.1582 L 59.9121 -12.1582 L 59.9121 3.27148 C 59.9121 7.95898 63.4277 11.4746 68.1152 11.4746 Z M 71.7285 -4.88281 C 71.2402 -4.88281 70.8984 -5.22461 70.8984 -5.76172 L 70.8984 -22.3145 C 70.8984 -23.4375 70.459 -23.877 69.3359 -23.877 L 63.7207 -23.877 C 42.6758 -23.877 29.4434 -18.457 23.3398 -6.44531 C 23.2422 -6.15234 23.0957 -6.00586 22.9004 -6.00586 C 22.7051 -6.00586 22.5586 -6.15234 22.5586 -6.44531 C 23.0469 -30.2246 35.8398 -46.5332 63.7207 -46.5332 L 69.3359 -46.5332 C 70.459 -46.5332 70.8984 -47.0215 70.8984 -48.0957 L 70.8984 -64.8926 C 70.8984 -65.3809 71.2891 -65.7227 71.7285 -65.7227 C 72.0215 -65.7227 72.2656 -65.5762 72.5098 -65.3809 L 103.32 -36.1328 C 103.711 -35.7422 103.857 -35.5469 103.857 -35.2051 C 103.857 -34.9609 103.711 -34.7168 103.32 -34.3262 L 72.5098 -5.27344 C 72.2656 -4.98047 71.9727 -4.88281 71.7285 -4.88281 Z"/>
  </g>
  <g id="Semibold-M" transform="matrix(1 0 0 1 1980.82 1126)">
   <path d="M 68.5059 10.791 C 71.3379 10.791 73.584 9.61914 76.3184 7.08008 L 115.088 -29.1504 C 117.041 -31.0059 117.871 -33.3008 117.871 -35.2539 C 117.871 -37.2559 117.09 -39.4531 115.137 -41.3086 L 76.3184 -77.3438 C 73.3398 -80.127 71.3379 -81.25 68.5547 -81.25 C 64.3066 -81.25 61.1816 -77.9297 61.1816 -73.7793 L 61.1816 -57.1289 L 60.1562 -57.1289 C 27.5879 -57.1289 11.6699 -36.1816 11.6699 -1.2207 C 11.6699 6.44531 14.4531 10.3516 18.5059 10.3516 C 21.4355 10.3516 24.0234 9.32617 26.0742 5.41992 C 33.0078 -7.51953 43.1152 -13.1348 60.1562 -13.1348 L 61.1816 -13.1348 L 61.1816 3.4668 C 61.1816 7.61719 64.3066 10.791 68.5059 10.791 Z M 71.7773 -3.4668 C 71.3379 -3.4668 71.0449 -3.80859 71.0449 -4.29688 L 71.0449 -21.6797 C 71.0449 -22.8027 70.5566 -23.291 69.4336 -23.291 L 63.4766 -23.291 C 41.6504 -23.291 27.8809 -16.8945 21.875 -4.78516 C 21.7773 -4.49219 21.6309 -4.3457 21.4355 -4.3457 C 21.2402 -4.3457 21.0938 -4.49219 21.0938 -4.78516 C 21.7773 -28.3203 33.5449 -47.168 63.4766 -47.168 L 69.4336 -47.168 C 70.5566 -47.168 71.0449 -47.6562 71.0449 -48.7305 L 71.0449 -66.4551 C 71.0449 -66.9434 71.3867 -67.2363 71.8262 -67.2363 C 72.1191 -67.2363 72.3633 -67.0898 72.6074 -66.8945 L 104.883 -36.1328 C 105.273 -35.791 105.371 -35.5469 105.371 -35.2539 C 105.371 -34.9609 105.273 -34.7168 104.883 -34.3262 L 72.6074 -3.85742 C 72.3145 -3.56445 72.0703 -3.4668 71.7773 -3.4668 Z"/>
  </g>
  <g id="Medium-M" transform="matrix(1 0 0 1 1684.3 1126)">
   <path d="M 68.75 10.2051 C 71.4355 10.2051 73.5352 9.17969 76.123 6.73828 L 114.795 -29.541 C 116.699 -31.3477 117.432 -33.4473 117.432 -35.2539 C 117.432 -37.1094 116.699 -39.1602 114.795 -40.9668 L 76.123 -77.002 C 73.291 -79.6387 71.4355 -80.7129 68.8477 -80.7129 C 64.9414 -80.7129 62.1582 -77.6855 62.1582 -73.877 L 62.1582 -56.4941 L 60.9375 -56.4941 C 27.2461 -56.4941 11.6211 -34.8633 11.6211 0.585938 C 11.6211 6.78711 14.2578 10.0098 17.6758 10.0098 C 20.2637 10.0098 22.6562 9.17969 24.5605 5.61523 C 32.2266 -8.64258 43.1152 -13.8672 60.9375 -13.8672 L 62.1582 -13.8672 L 62.1582 3.61328 C 62.1582 7.42188 64.9414 10.2051 68.75 10.2051 Z M 71.875 -2.39258 C 71.4355 -2.39258 71.1426 -2.68555 71.1426 -3.17383 L 71.1426 -21.1914 C 71.1426 -22.3145 70.6543 -22.8027 69.5312 -22.8027 L 63.2812 -22.8027 C 40.918 -22.8027 26.6602 -15.7227 20.8008 -3.51562 C 20.6543 -3.22266 20.5078 -3.07617 20.3125 -3.07617 C 20.1172 -3.07617 19.9707 -3.22266 19.9707 -3.56445 C 20.752 -26.8555 31.8359 -47.6074 63.2812 -47.6074 L 69.5312 -47.6074 C 70.6543 -47.6074 71.1426 -48.0957 71.1426 -49.2188 L 71.1426 -67.6758 C 71.1426 -68.1152 71.4355 -68.4082 71.875 -68.4082 C 72.168 -68.4082 72.4609 -68.2617 72.7051 -68.0176 L 106.055 -36.1816 C 106.396 -35.791 106.543 -35.5469 106.543 -35.2539 C 106.543 -34.9609 106.445 -34.7168 106.055 -34.3262 L 72.6562 -2.7832 C 72.4121 -2.53906 72.1191 -2.39258 71.875 -2.39258 Z"/>
  </g>
  <g id="Regular-M" transform="matrix(1 0 0 1 1387.86 1126)">
   <path d="M 69.1406 9.52148 C 71.5332 9.52148 73.4863 8.54492 75.8301 6.34766 L 114.355 -30.0293 C 116.211 -31.7871 116.846 -33.6426 116.846 -35.2539 C 116.846 -36.9141 116.26 -38.7207 114.355 -40.5273 L 75.8301 -76.5625 C 73.2422 -79.0039 71.6309 -80.0293 69.2383 -80.0293 C 65.8203 -80.0293 63.3789 -77.3438 63.3789 -74.0723 L 63.3789 -55.6152 L 61.9629 -55.6152 C 26.8555 -55.6152 11.5723 -33.1055 11.5723 2.97852 C 11.5723 7.17773 13.9648 9.52148 16.6016 9.52148 C 18.6523 9.52148 20.8984 9.0332 22.6074 5.9082 C 31.1035 -10.0586 43.0664 -14.8438 61.9629 -14.8438 L 63.3789 -14.8438 L 63.3789 3.80859 C 63.3789 7.08008 65.8203 9.52148 69.1406 9.52148 Z M 71.9238 -0.976562 C 71.5332 -0.976562 71.2402 -1.26953 71.2402 -1.70898 L 71.2402 -20.6055 C 71.2402 -21.7285 70.752 -22.2168 69.6289 -22.2168 L 63.0859 -22.2168 C 39.8926 -22.2168 25.0977 -14.1602 19.3359 -1.9043 C 19.1895 -1.5625 19.0918 -1.41602 18.8477 -1.41602 C 18.6523 -1.41602 18.5059 -1.5625 18.5059 -1.95312 C 19.4824 -25 29.541 -48.2422 63.0859 -48.2422 L 69.6289 -48.2422 C 70.752 -48.2422 71.2402 -48.7305 71.2402 -49.8535 L 71.2402 -69.2383 C 71.2402 -69.6289 71.5332 -69.9219 71.9727 -69.9219 C 72.2656 -69.9219 72.5586 -69.7266 72.8027 -69.5312 L 107.568 -36.1816 C 107.91 -35.8398 108.057 -35.5469 108.057 -35.2539 C 108.057 -34.9609 107.959 -34.7168 107.568 -34.3262 L 72.7539 -1.41602 C 72.5098 -1.12305 72.2168 -0.976562 71.9238 -0.976562 Z"/>
  </g>
  <g id="Light-M" transform="matrix(1 0 0 1 1092.17 1126)">
   <path d="M 67.8223 8.59375 C 69.873 8.59375 71.5332 7.66602 73.4375 5.9082 L 111.865 -30.127 C 113.916 -32.0801 114.453 -33.7402 114.453 -35.2539 C 114.453 -36.8164 113.965 -38.4277 111.865 -40.4297 L 73.4375 -76.2695 C 71.3867 -78.1738 69.9219 -79.1016 67.8711 -79.1016 C 64.9414 -79.1016 63.0371 -76.8066 63.0371 -73.9746 L 63.0371 -54.4922 L 61.3281 -54.4922 C 28.1738 -54.4922 11.2305 -34.1309 11.2305 3.125 C 11.2305 6.5918 13.2812 8.59375 15.5273 8.59375 C 17.3828 8.59375 19.1895 8.00781 20.5566 5.27344 C 28.418 -10.498 40.9668 -15.8203 61.3281 -15.8203 L 63.0371 -15.8203 L 63.0371 3.66211 C 63.0371 6.49414 64.9414 8.59375 67.8223 8.59375 Z M 69.8242 0.683594 C 69.3359 0.683594 69.0918 0.341797 69.0918 -0.146484 L 69.0918 -20.0195 C 69.0918 -21.0938 68.6523 -21.5332 67.5781 -21.5332 L 62.1582 -21.5332 C 38.5254 -21.5332 23.7793 -13.8672 17.7246 -0.195312 C 17.5781 0.195312 17.3828 0.537109 17.0898 0.537109 C 16.748 0.537109 16.6016 0.292969 16.6016 -0.146484 C 17.2363 -27.9297 30.127 -48.7793 62.1582 -48.7793 L 67.5781 -48.7793 C 68.6523 -48.7793 69.0918 -49.2188 69.0918 -50.293 L 69.0918 -70.7031 C 69.0918 -71.1426 69.3848 -71.4844 69.8242 -71.4844 C 70.2637 -71.4844 70.5566 -71.2402 70.8496 -70.9473 L 106.836 -36.8652 C 107.52 -36.1816 107.764 -35.7422 107.764 -35.2539 C 107.764 -34.7656 107.568 -34.3262 106.836 -33.6426 L 70.8496 0.146484 C 70.4102 0.537109 70.1172 0.683594 69.8242 0.683594 Z"/>
  </g>
  <g id="Thin-M" transform="matrix(1 0 0 1 796.828 1126)">
   <path d="M 66.1133 7.32422 C 67.7246 7.32422 68.9941 6.54297 70.2148 5.37109 L 108.496 -30.2734 C 110.889 -32.5195 111.279 -33.8867 111.279 -35.2539 C 111.279 -36.6211 110.938 -37.9883 108.496 -40.2344 L 70.2148 -75.8301 C 68.9453 -77.0508 67.7246 -77.832 66.1621 -77.832 C 63.8672 -77.832 62.5488 -76.123 62.5488 -73.9258 L 62.5488 -53.0273 L 60.498 -53.0273 C 29.9316 -53.0273 10.791 -35.498 10.791 3.32031 C 10.791 5.81055 12.3047 7.32422 14.1113 7.32422 C 15.7227 7.32422 16.8945 6.64062 17.9199 4.44336 C 24.8047 -11.1328 38.1348 -17.0898 60.498 -17.0898 L 62.5488 -17.0898 L 62.5488 3.4668 C 62.5488 5.66406 63.8672 7.32422 66.1133 7.32422 Z M 66.9922 2.88086 C 66.5039 2.88086 66.1621 2.49023 66.1621 1.9043 L 66.1621 -19.2871 C 66.1621 -20.2637 65.8203 -20.6055 64.8438 -20.6055 L 60.8887 -20.6055 C 36.7676 -20.6055 22.0215 -13.4766 15.625 2.00195 C 15.4297 2.58789 15.1855 3.07617 14.7461 3.07617 C 14.2578 3.07617 14.1113 2.73438 14.1113 2.24609 C 14.3066 -31.7871 30.8594 -49.5117 60.8887 -49.5117 L 64.8438 -49.5117 C 65.8203 -49.5117 66.1621 -49.8535 66.1621 -50.8301 L 66.1621 -72.6074 C 66.1621 -73.1445 66.5527 -73.4863 67.041 -73.4863 C 67.5781 -73.4863 67.9199 -73.1934 68.3105 -72.8516 L 105.908 -37.7441 C 107.031 -36.7188 107.373 -35.9863 107.373 -35.2539 C 107.373 -34.5215 107.08 -33.8379 105.908 -32.7637 L 68.2617 2.24609 C 67.7246 2.73438 67.3828 2.88086 66.9922 2.88086 Z"/>
  </g>
  <g id="Ultralight-M" transform="matrix(1 0 0 1 500.8 1126)">
   <path d="M 65.2344 6.68945 C 66.6016 6.68945 67.7246 5.95703 68.6035 5.12695 L 106.787 -30.3223 C 109.326 -32.7148 109.668 -33.9355 109.668 -35.2539 C 109.668 -36.5723 109.375 -37.793 106.787 -40.1855 L 68.6035 -75.6348 C 67.7246 -76.4648 66.6016 -77.1973 65.2344 -77.1973 C 63.2812 -77.1973 62.3047 -75.7324 62.3047 -73.877 L 62.3047 -52.2949 L 60.0586 -52.2949 C 30.8105 -52.2949 10.5957 -36.1816 10.5957 3.36914 C 10.5957 5.41992 11.8164 6.68945 13.4277 6.68945 C 14.8926 6.68945 15.7227 5.95703 16.5527 4.05273 C 22.9492 -11.4258 36.7188 -17.7246 60.0586 -17.7246 L 62.3047 -17.7246 L 62.3047 3.36914 C 62.3047 5.22461 63.2812 6.68945 65.2344 6.68945 Z M 65.5762 4.05273 C 64.9902 4.05273 64.6973 3.61328 64.6973 2.97852 L 64.6973 -18.8965 C 64.6973 -19.8242 64.4043 -20.1172 63.4766 -20.1172 L 60.3027 -20.1172 C 35.8398 -20.1172 21.0938 -13.3301 14.5508 3.17383 C 14.3066 3.80859 14.0625 4.3457 13.5742 4.3457 C 12.9883 4.3457 12.793 4.00391 12.793 3.4668 C 12.793 -33.7402 31.25 -49.8535 60.3027 -49.8535 L 63.4766 -49.8535 C 64.4043 -49.8535 64.6973 -50.1953 64.6973 -51.123 L 64.6973 -73.584 C 64.6973 -74.1699 65.0879 -74.5605 65.625 -74.5605 C 66.2109 -74.5605 66.6016 -74.1699 67.041 -73.7793 L 105.42 -38.2324 C 106.738 -36.9629 107.178 -36.1328 107.178 -35.2539 C 107.178 -34.375 106.787 -33.5449 105.42 -32.2754 L 66.9434 3.27148 C 66.3086 3.85742 65.9668 4.05273 65.5762 4.05273 Z"/>
  </g>
  <g id="Black-S" transform="matrix(1 0 0 1 2883.69 696)">
   <path d="M 52.6367 2.83203 C 55.6152 2.83203 57.8613 1.70898 60.6445 -0.878906 L 91.4062 -29.0527 C 93.0664 -30.6152 94.043 -33.1543 94.043 -35.2051 C 94.043 -37.4023 93.1152 -39.7461 91.4551 -41.3086 L 60.6445 -69.5312 C 57.6172 -72.2656 55.4199 -73.2422 52.6367 -73.2422 C 47.9492 -73.2422 44.3359 -69.6289 44.3359 -64.9414 L 44.3359 -54.8828 L 44.1406 -54.8828 C 22.7051 -54.8828 9.27734 -40.918 9.27734 -15.4297 C 9.27734 -3.80859 12.0605 1.85547 17.627 1.85547 C 21.3379 1.85547 23.877 0.146484 26.0742 -4.19922 C 29.0039 -9.375 33.8379 -15.1367 44.1406 -15.1367 L 44.3359 -15.1367 L 44.3359 -5.46875 C 44.3359 -0.78125 47.9492 2.83203 52.6367 2.83203 Z M 56.0547 -14.3555 C 55.6641 -14.3555 55.3223 -14.6973 55.3223 -15.1855 L 55.3223 -26.416 C 55.3223 -27.2461 54.9805 -27.5879 54.1504 -27.5879 L 50.3906 -27.5879 C 35.5469 -27.5879 26.3672 -25.3418 21.3379 -16.0645 C 21.2402 -15.8691 21.1426 -15.7715 20.9961 -15.7715 C 20.8496 -15.7715 20.752 -15.8691 20.752 -16.0645 C 20.752 -35.1562 32.7148 -42.8223 50.3906 -42.8223 L 54.1504 -42.8223 C 54.9805 -42.8223 55.3223 -43.1641 55.3223 -43.9941 L 55.3223 -55.1758 C 55.3223 -55.6641 55.6641 -55.957 56.0547 -55.957 C 56.25 -55.957 56.4453 -55.9082 56.6406 -55.7617 L 77.832 -35.8887 C 78.125 -35.5957 78.2227 -35.4492 78.2227 -35.2051 C 78.2227 -35.0098 78.125 -34.8145 77.832 -34.5215 L 56.6406 -14.6484 C 56.4453 -14.4531 56.25 -14.3555 56.0547 -14.3555 Z"/>
  </g>
  <g id="Heavy-S" transform="matrix(1 0 0 1 2587.13 696)">
   <path d="M 53.125 2.24609 C 55.9082 2.24609 58.0078 1.17188 60.6445 -1.26953 L 91.2598 -29.541 C 92.8711 -31.0059 93.7012 -33.3496 93.7012 -35.2051 C 93.7012 -37.207 92.8711 -39.3555 91.3086 -40.8691 L 60.6445 -69.1406 C 57.7637 -71.7285 55.7617 -72.6562 53.1738 -72.6562 C 48.877 -72.6562 45.6543 -69.3359 45.6543 -65.1367 L 45.6543 -54.1504 L 45.2637 -54.1504 C 22.168 -54.1504 9.27734 -39.0625 9.27734 -13.0371 C 9.27734 -3.32031 11.8652 1.46484 16.6504 1.46484 C 19.9219 1.46484 22.3145 0.0976562 24.3164 -3.85742 C 28.2227 -10.791 34.082 -16.0156 45.2637 -16.0156 L 45.6543 -16.0156 L 45.6543 -5.27344 C 45.6543 -1.02539 48.877 2.24609 53.125 2.24609 Z M 56.3477 -13.1348 C 56.0059 -13.1348 55.7129 -13.4277 55.7129 -13.916 L 55.7129 -25.8301 C 55.7129 -26.709 55.3223 -27.0508 54.4922 -27.0508 L 50.2441 -27.0508 C 34.668 -27.0508 24.9512 -23.8281 20.0684 -14.5996 C 19.9707 -14.4043 19.873 -14.3066 19.7266 -14.3066 C 19.5801 -14.3066 19.4824 -14.4531 19.4824 -14.6484 C 19.7266 -32.959 30.4199 -43.3594 50.2441 -43.3594 L 54.4922 -43.3594 C 55.3223 -43.3594 55.7129 -43.75 55.7129 -44.5801 L 55.7129 -56.5918 C 55.7129 -57.0312 56.0059 -57.3242 56.3477 -57.3242 C 56.5918 -57.3242 56.7871 -57.2266 56.9336 -57.0801 L 79.4434 -35.8398 C 79.6875 -35.5957 79.7852 -35.4492 79.7852 -35.2051 C 79.7852 -35.0586 79.6875 -34.8633 79.4434 -34.6191 L 56.9336 -13.4277 C 56.7383 -13.2324 56.543 -13.1348 56.3477 -13.1348 Z"/>
  </g>
  <g id="Bold-S" transform="matrix(1 0 0 1 2290.59 696)">
   <path d="M 53.7109 1.5625 C 56.2012 1.5625 58.1543 0.585938 60.5957 -1.66016 L 91.1133 -30.0781 C 92.627 -31.4941 93.3594 -33.5449 93.3594 -35.2539 C 93.3594 -37.0117 92.627 -38.9648 91.1621 -40.3809 L 60.5957 -68.6523 C 57.959 -71.0938 56.1523 -72.0215 53.7598 -72.0215 C 49.9512 -72.0215 47.0703 -69.043 47.0703 -65.2832 L 47.0703 -53.3203 L 46.4844 -53.3203 C 21.582 -53.3203 9.22852 -37.0117 9.22852 -10.4004 C 9.22852 -2.73438 11.6699 1.07422 15.5762 1.07422 C 18.3105 1.07422 20.5566 0.0488281 22.3633 -3.4668 C 27.3438 -12.3535 34.3262 -16.9922 46.4844 -16.9922 L 47.0703 -16.9922 L 47.0703 -5.0293 C 47.0703 -1.26953 49.9512 1.5625 53.7109 1.5625 Z M 56.7383 -11.7676 C 56.3965 -11.7676 56.1035 -12.0605 56.1035 -12.4512 L 56.1035 -25.2441 C 56.1035 -26.123 55.7129 -26.4648 54.834 -26.4648 L 50.1465 -26.4648 C 33.7402 -26.4648 23.3398 -22.1191 18.6035 -12.9883 C 18.5059 -12.793 18.457 -12.6953 18.3105 -12.6953 C 18.2129 -12.6953 18.0664 -12.8418 18.0664 -13.0371 C 18.5547 -30.4688 27.7832 -43.9941 50.1465 -43.9941 L 54.834 -43.9941 C 55.7129 -43.9941 56.1035 -44.3848 56.1035 -45.2637 L 56.1035 -58.1543 C 56.1035 -58.5449 56.3965 -58.7891 56.7383 -58.7891 C 56.9336 -58.7891 57.1289 -58.7402 57.2754 -58.5938 L 81.2012 -35.791 C 81.4453 -35.5469 81.543 -35.4004 81.543 -35.2539 C 81.543 -35.0586 81.4453 -34.9121 81.2012 -34.668 L 57.2754 -12.0605 C 57.1289 -11.8652 56.9336 -11.7676 56.7383 -11.7676 Z"/>
  </g>
  <g id="Semibold-S" transform="matrix(1 0 0 1 1994 696)">
   <path d="M 54.1016 1.12305 C 56.4453 1.12305 58.3008 0.195312 60.5957 -1.95312 L 91.0156 -30.4688 C 92.4805 -31.8359 93.1152 -33.6914 93.1152 -35.2539 C 93.1152 -36.8652 92.4805 -38.623 91.0156 -40.0391 L 60.5957 -68.3105 C 58.0566 -70.6543 56.4453 -71.582 54.1504 -71.582 C 50.6836 -71.582 48.0957 -68.8477 48.0957 -65.4297 L 48.0957 -52.7344 L 47.3633 -52.7344 C 21.1426 -52.7344 9.22852 -35.5469 9.22852 -8.54492 C 9.22852 -2.39258 11.5723 0.78125 14.7949 0.78125 C 17.1875 0.78125 19.3359 0 21.0449 -3.17383 C 26.7578 -13.4277 34.4727 -17.627 47.3633 -17.627 L 48.0957 -17.627 L 48.0957 -4.83398 C 48.0957 -1.46484 50.6836 1.12305 54.1016 1.12305 Z M 56.9824 -10.8398 C 56.6406 -10.8398 56.3965 -11.084 56.3965 -11.4746 L 56.3965 -24.8047 C 56.3965 -25.6836 56.0059 -26.0742 55.0781 -26.0742 L 50.0488 -26.0742 C 33.0566 -26.0742 22.2168 -20.8984 17.627 -11.8652 C 17.5293 -11.6699 17.4805 -11.6211 17.334 -11.6211 C 17.2363 -11.6211 17.1387 -11.7188 17.1387 -11.9629 C 17.7734 -28.7598 26.0254 -44.4336 50.0488 -44.4336 L 55.0781 -44.4336 C 56.0059 -44.4336 56.3965 -44.8242 56.3965 -45.7031 L 56.3965 -59.2773 C 56.3965 -59.6191 56.6406 -59.8633 56.9824 -59.8633 C 57.1777 -59.8633 57.373 -59.7656 57.5195 -59.6191 L 82.4707 -35.7422 C 82.666 -35.5469 82.7148 -35.4004 82.7148 -35.2539 C 82.7148 -35.1074 82.666 -34.9609 82.4707 -34.7656 L 57.5195 -11.1328 C 57.373 -10.9375 57.1777 -10.8398 56.9824 -10.8398 Z"/>
  </g>
  <g id="Medium-S" transform="matrix(1 0 0 1 1697.39 696)">
   <path d="M 54.3945 0.732422 C 56.5918 0.732422 58.3984 -0.146484 60.5957 -2.14844 L 90.918 -30.7617 C 92.334 -32.0801 92.9199 -33.7891 92.9199 -35.2539 C 92.9199 -36.7676 92.334 -38.4277 90.918 -39.7949 L 60.5957 -68.0664 C 58.1543 -70.3613 56.6406 -71.2402 54.4922 -71.2402 C 51.2207 -71.2402 48.877 -68.7012 48.877 -65.5273 L 48.877 -52.2949 L 47.998 -52.2949 C 20.8496 -52.2949 9.22852 -34.4727 9.22852 -7.17773 C 9.22852 -2.09961 11.4258 0.585938 14.2578 0.585938 C 16.3574 0.585938 18.4082 0 20.0195 -2.97852 C 26.3184 -14.2578 34.6191 -18.1641 47.998 -18.1641 L 48.877 -18.1641 L 48.877 -4.73633 C 48.877 -1.5625 51.2207 0.732422 54.3945 0.732422 Z M 57.1289 -10.1562 C 56.8359 -10.1562 56.5918 -10.3516 56.5918 -10.6934 L 56.5918 -24.4629 C 56.5918 -25.3418 56.2012 -25.7812 55.2734 -25.7812 L 49.9512 -25.7812 C 32.5684 -25.7812 21.3867 -20.0195 16.8945 -11.0352 C 16.7969 -10.8398 16.748 -10.7422 16.6016 -10.7422 C 16.5039 -10.7422 16.4062 -10.8887 16.4062 -11.1328 C 17.1387 -27.4902 24.6582 -44.7266 49.9512 -44.7266 L 55.2734 -44.7266 C 56.2012 -44.7266 56.5918 -45.166 56.5918 -46.0449 L 56.5918 -60.1074 C 56.5918 -60.4004 56.8359 -60.6445 57.1289 -60.6445 C 57.373 -60.6445 57.5684 -60.5469 57.7148 -60.4004 L 83.3984 -35.6934 C 83.5449 -35.5469 83.6426 -35.4004 83.6426 -35.2539 C 83.6426 -35.1074 83.5449 -34.9609 83.3984 -34.8145 L 57.7148 -10.4004 C 57.5684 -10.2539 57.3242 -10.1562 57.1289 -10.1562 Z"/>
  </g>
  <g id="Regular-S" transform="matrix(1 0 0 1 1400.8 696)">
   <path d="M 54.7852 0.292969 C 56.8359 0.292969 58.4961 -0.537109 60.5469 -2.44141 L 90.8203 -31.1035 C 92.1875 -32.373 92.6758 -33.9355 92.6758 -35.2539 C 92.6758 -36.6211 92.1875 -38.1348 90.8203 -39.4531 L 60.5469 -67.7734 C 58.252 -69.9219 56.9336 -70.8008 54.8828 -70.8008 C 51.9531 -70.8008 49.8535 -68.457 49.8535 -65.6738 L 49.8535 -51.709 L 48.877 -51.709 C 20.4102 -51.709 9.22852 -33.0566 9.22852 -5.37109 C 9.22852 -1.70898 11.3281 0.292969 13.5254 0.292969 C 15.2344 0.292969 17.2363 -0.0488281 18.7012 -2.68555 C 25.6836 -15.2832 34.7656 -18.7988 48.877 -18.7988 L 49.8535 -18.7988 L 49.8535 -4.54102 C 49.8535 -1.75781 51.9531 0.292969 54.7852 0.292969 Z M 57.373 -9.22852 C 57.0801 -9.22852 56.8848 -9.42383 56.8848 -9.7168 L 56.8848 -24.0234 C 56.8848 -24.9512 56.4453 -25.3906 55.5176 -25.3906 L 49.8535 -25.3906 C 31.9336 -25.3906 20.3125 -18.8477 15.918 -9.96094 C 15.8203 -9.7168 15.7715 -9.66797 15.625 -9.66797 C 15.5273 -9.66797 15.4297 -9.76562 15.4297 -10.0098 C 16.3574 -25.7812 22.9004 -45.166 49.8535 -45.166 L 55.5176 -45.166 C 56.4453 -45.166 56.8848 -45.6055 56.8848 -46.4844 L 56.8848 -61.1816 C 56.8848 -61.4746 57.0801 -61.6699 57.373 -61.6699 C 57.6172 -61.6699 57.8125 -61.5723 57.959 -61.4258 L 84.6191 -35.6445 C 84.7656 -35.498 84.8145 -35.4004 84.8145 -35.2539 C 84.8145 -35.1074 84.7656 -35.0098 84.6191 -34.8633 L 57.959 -9.47266 C 57.7637 -9.32617 57.5684 -9.22852 57.373 -9.22852 Z"/>
  </g>
  <g id="Light-S" transform="matrix(1 0 0 1 1104.99 696)">
   <path d="M 53.6133 -0.537109 C 55.3711 -0.537109 56.7871 -1.26953 58.4473 -2.83203 L 88.5742 -31.2012 C 90.1367 -32.666 90.5762 -34.0332 90.5762 -35.2539 C 90.5762 -36.5234 90.1367 -37.8418 88.5742 -39.3555 L 58.4473 -67.4805 C 56.6406 -69.1895 55.4199 -69.9707 53.7109 -69.9707 C 51.2207 -69.9707 49.5117 -68.0176 49.5117 -65.625 L 49.5117 -50.7324 L 48.291 -50.7324 C 21.582 -50.7324 8.93555 -33.9844 8.93555 -5.22461 C 8.93555 -2.24609 10.6445 -0.537109 12.5488 -0.537109 C 14.1113 -0.537109 15.6738 -0.976562 16.8945 -3.22266 C 23.291 -15.7227 32.9102 -19.6289 48.291 -19.6289 L 49.5117 -19.6289 L 49.5117 -4.6875 C 49.5117 -2.29492 51.2207 -0.537109 53.6133 -0.537109 Z M 55.5176 -7.71484 C 55.1758 -7.71484 54.9316 -7.95898 54.9316 -8.34961 L 54.9316 -23.5352 C 54.9316 -24.4141 54.5898 -24.7559 53.7109 -24.7559 L 49.0234 -24.7559 C 30.7129 -24.7559 19.1406 -18.6035 14.502 -8.44727 C 14.3555 -8.1543 14.2578 -7.95898 14.0625 -7.95898 C 13.8672 -7.95898 13.7207 -8.10547 13.7207 -8.44727 C 14.3555 -28.3691 23.3887 -45.6543 49.0234 -45.6543 L 53.7109 -45.6543 C 54.5898 -45.6543 54.9316 -45.9961 54.9316 -46.875 L 54.9316 -62.4512 C 54.9316 -62.793 55.1758 -63.0371 55.5176 -63.0371 C 55.8105 -63.0371 56.0547 -62.8418 56.25 -62.6465 L 83.9844 -36.2305 C 84.4238 -35.8398 84.5703 -35.5469 84.5703 -35.2539 C 84.5703 -34.9609 84.4238 -34.668 83.9844 -34.2773 L 56.25 -8.10547 C 55.957 -7.86133 55.7617 -7.71484 55.5176 -7.71484 Z"/>
  </g>
  <g id="Thin-S" transform="matrix(1 0 0 1 809.474 696)">
   <path d="M 52.1484 -1.66016 C 53.4668 -1.66016 54.541 -2.29492 55.6152 -3.32031 L 85.6445 -31.2988 C 87.4512 -33.0078 87.793 -34.1309 87.793 -35.2539 C 87.793 -36.377 87.5 -37.5 85.6445 -39.209 L 55.6152 -67.1387 C 54.4922 -68.2129 53.4668 -68.8477 52.1484 -68.8477 C 50.2441 -68.8477 49.1211 -67.3828 49.1211 -65.5762 L 49.1211 -49.4629 L 47.5586 -49.4629 C 23.0957 -49.4629 8.54492 -35.1562 8.54492 -5.07812 C 8.54492 -2.92969 9.81445 -1.66016 11.3281 -1.66016 C 12.6465 -1.66016 13.6719 -2.14844 14.5508 -3.95508 C 20.1172 -16.2109 30.4199 -20.752 47.5586 -20.752 L 49.1211 -20.752 L 49.1211 -4.88281 C 49.1211 -3.02734 50.2441 -1.66016 52.1484 -1.66016 Z M 53.0273 -5.76172 C 52.6367 -5.76172 52.3926 -6.10352 52.3926 -6.54297 L 52.3926 -22.9004 C 52.3926 -23.6816 52.0996 -23.9746 51.3184 -23.9746 L 47.9492 -23.9746 C 29.1504 -23.9746 17.5781 -18.2617 12.6465 -6.49414 C 12.5 -6.05469 12.3047 -5.71289 12.0117 -5.71289 C 11.6699 -5.71289 11.5234 -5.95703 11.5234 -6.29883 C 11.7676 -31.7871 24.0234 -46.2891 47.9492 -46.2891 L 51.3184 -46.2891 C 52.0996 -46.2891 52.3926 -46.582 52.3926 -47.3633 L 52.3926 -64.1602 C 52.3926 -64.5508 52.6855 -64.8438 53.0762 -64.8438 C 53.4668 -64.8438 53.7109 -64.5996 54.0039 -64.3066 L 83.1543 -37.0605 C 83.9355 -36.2793 84.2285 -35.791 84.2285 -35.2539 C 84.2285 -34.7168 83.9844 -34.2285 83.1543 -33.4473 L 53.9551 -6.29883 C 53.5645 -5.9082 53.3203 -5.76172 53.0273 -5.76172 Z"/>
  </g>
  <g id="Ultralight-S" transform="matrix(1 0 0 1 513.373 696)">
   <path d="M 51.3672 -2.19727 C 52.4902 -2.19727 53.3691 -2.83203 54.1992 -3.56445 L 84.1309 -31.3965 C 86.0352 -33.2031 86.377 -34.2285 86.377 -35.2539 C 86.377 -36.2793 86.084 -37.3047 84.1309 -39.1113 L 54.1992 -66.9434 C 53.3691 -67.6758 52.4902 -68.3105 51.3672 -68.3105 C 49.707 -68.3105 48.877 -67.041 48.877 -65.5273 L 48.877 -48.7793 L 47.168 -48.7793 C 23.877 -48.7793 8.34961 -35.791 8.34961 -4.98047 C 8.34961 -3.27148 9.375 -2.19727 10.6934 -2.19727 C 11.9141 -2.19727 12.6465 -2.7832 13.3301 -4.3457 C 18.5059 -16.5039 29.1504 -21.3379 47.168 -21.3379 L 48.877 -21.3379 L 48.877 -4.98047 C 48.877 -3.41797 49.707 -2.19727 51.3672 -2.19727 Z M 51.7578 -4.78516 C 51.3184 -4.78516 51.0742 -5.12695 51.0742 -5.56641 L 51.0742 -22.5586 C 51.0742 -23.291 50.8301 -23.5352 50.0977 -23.5352 L 47.4121 -23.5352 C 28.3203 -23.5352 16.7969 -18.1152 11.6699 -5.46875 C 11.5234 -4.98047 11.3281 -4.54102 10.9375 -4.54102 C 10.498 -4.54102 10.3516 -4.83398 10.3516 -5.22461 C 10.4004 -33.5449 24.3652 -46.582 47.4121 -46.582 L 50.0977 -46.582 C 50.8301 -46.582 51.0742 -46.875 51.0742 -47.6074 L 51.0742 -65.0391 C 51.0742 -65.4785 51.3672 -65.7715 51.8066 -65.7715 C 52.2461 -65.7715 52.5391 -65.4785 52.832 -65.1855 L 82.7148 -37.4512 C 83.6914 -36.5234 84.0332 -35.8887 84.0332 -35.2539 C 84.0332 -34.6191 83.7402 -33.9844 82.7148 -33.0566 L 52.7832 -5.32227 C 52.3438 -4.93164 52.0508 -4.78516 51.7578 -4.78516 Z"/>
  </g>
 </g>
</svg>
