<?xml version="1.0" encoding="UTF-8"?>
<!--Generator: Apple Native CoreSVG 148-->
<!DOCTYPE svg
PUBLIC "-//W3C//DTD SVG 1.1//EN"
       "http://www.w3.org/Graphics/SVG/1.1/DTD/svg11.dtd">
<svg version="1.1" xmlns="http://www.w3.org/2000/svg" xmlns:xlink="http://www.w3.org/1999/xlink" width="3300" height="2200">
 <!--glyph: "uni100086.medium", point size: 100.000000, font version: "Version 16.0d11e1", template writer version: "8"-->
 <g id="Notes">
  <rect height="2200" id="artboard" style="fill:white;opacity:1" width="3300" x="0" y="0"/>
  <line id="" style="fill:none;stroke:black;opacity:1;stroke-width:0.5;" x1="263" x2="3036" y1="292" y2="292"/>
  <text style="stroke:none;fill:black;font-family:-apple-system,&quot;SF Pro Display&quot;,&quot;SF Pro Text&quot;,Helvetica,sans-serif;font-weight:bold;" transform="matrix(1 0 0 1 263 322)">Weight/Scale Variations</text>
  <text style="stroke:none;fill:black;font-family:-apple-system,&quot;SF Pro Display&quot;,&quot;SF Pro Text&quot;,Helvetica,sans-serif;text-anchor:middle;" transform="matrix(1 0 0 1 559.711 322)">Ultralight</text>
  <text style="stroke:none;fill:black;font-family:-apple-system,&quot;SF Pro Display&quot;,&quot;SF Pro Text&quot;,Helvetica,sans-serif;text-anchor:middle;" transform="matrix(1 0 0 1 856.422 322)">Thin</text>
  <text style="stroke:none;fill:black;font-family:-apple-system,&quot;SF Pro Display&quot;,&quot;SF Pro Text&quot;,Helvetica,sans-serif;text-anchor:middle;" transform="matrix(1 0 0 1 1153.13 322)">Light</text>
  <text style="stroke:none;fill:black;font-family:-apple-system,&quot;SF Pro Display&quot;,&quot;SF Pro Text&quot;,Helvetica,sans-serif;text-anchor:middle;" transform="matrix(1 0 0 1 1449.84 322)">Regular</text>
  <text style="stroke:none;fill:black;font-family:-apple-system,&quot;SF Pro Display&quot;,&quot;SF Pro Text&quot;,Helvetica,sans-serif;text-anchor:middle;" transform="matrix(1 0 0 1 1746.56 322)">Medium</text>
  <text style="stroke:none;fill:black;font-family:-apple-system,&quot;SF Pro Display&quot;,&quot;SF Pro Text&quot;,Helvetica,sans-serif;text-anchor:middle;" transform="matrix(1 0 0 1 2043.27 322)">Semibold</text>
  <text style="stroke:none;fill:black;font-family:-apple-system,&quot;SF Pro Display&quot;,&quot;SF Pro Text&quot;,Helvetica,sans-serif;text-anchor:middle;" transform="matrix(1 0 0 1 2339.98 322)">Bold</text>
  <text style="stroke:none;fill:black;font-family:-apple-system,&quot;SF Pro Display&quot;,&quot;SF Pro Text&quot;,Helvetica,sans-serif;text-anchor:middle;" transform="matrix(1 0 0 1 2636.69 322)">Heavy</text>
  <text style="stroke:none;fill:black;font-family:-apple-system,&quot;SF Pro Display&quot;,&quot;SF Pro Text&quot;,Helvetica,sans-serif;text-anchor:middle;" transform="matrix(1 0 0 1 2933.4 322)">Black</text>
  <line id="" style="fill:none;stroke:black;opacity:1;stroke-width:0.5;" x1="263" x2="3036" y1="1903" y2="1903"/>
  <g id="" transform="matrix(1 0 0 1 263 1933)">
   <path d="M 9.24805 0.830078 C 13.5547 0.830078 17.1387 -2.74414 17.1387 -7.05078 C 17.1387 -11.3574 13.5449 -14.9316 9.23828 -14.9316 C 4.94141 -14.9316 1.36719 -11.3574 1.36719 -7.05078 C 1.36719 -2.74414 4.95117 0.830078 9.24805 0.830078 Z M 9.24805 -0.654297 C 5.70312 -0.654297 2.87109 -3.49609 2.87109 -7.05078 C 2.87109 -10.6055 5.69336 -13.4473 9.23828 -13.4473 C 12.793 -13.4473 15.6348 -10.6055 15.6445 -7.05078 C 15.6543 -3.49609 12.8027 -0.654297 9.24805 -0.654297 Z M 9.22852 -3.62305 C 9.69727 -3.62305 9.9707 -3.93555 9.9707 -4.45312 L 9.9707 -6.31836 L 12.002 -6.31836 C 12.5 -6.31836 12.832 -6.57227 12.832 -7.04102 C 12.832 -7.51953 12.5195 -7.7832 12.002 -7.7832 L 9.9707 -7.7832 L 9.9707 -9.81445 C 9.9707 -10.332 9.69727 -10.6543 9.22852 -10.6543 C 8.75977 -10.6543 8.50586 -10.3125 8.50586 -9.81445 L 8.50586 -7.7832 L 6.49414 -7.7832 C 5.97656 -7.7832 5.64453 -7.51953 5.64453 -7.04102 C 5.64453 -6.57227 5.99609 -6.31836 6.49414 -6.31836 L 8.50586 -6.31836 L 8.50586 -4.45312 C 8.50586 -3.95508 8.75977 -3.62305 9.22852 -3.62305 Z"/>
  </g>
  <g id="" transform="matrix(1 0 0 1 281.506 1933)">
   <path d="M 11.709 2.91016 C 17.1582 2.91016 21.6699 -1.61133 21.6699 -7.05078 C 21.6699 -12.5 17.1484 -17.0117 11.6992 -17.0117 C 6.25977 -17.0117 1.74805 -12.5 1.74805 -7.05078 C 1.74805 -1.61133 6.26953 2.91016 11.709 2.91016 Z M 11.709 1.25 C 7.09961 1.25 3.41797 -2.44141 3.41797 -7.05078 C 3.41797 -11.6602 7.08984 -15.3516 11.6992 -15.3516 C 16.3086 -15.3516 20 -11.6602 20.0098 -7.05078 C 20.0195 -2.44141 16.3184 1.25 11.709 1.25 Z M 11.6797 -2.66602 C 12.207 -2.66602 12.5098 -3.01758 12.5098 -3.59375 L 12.5098 -6.23047 L 15.3223 -6.23047 C 15.8691 -6.23047 16.25 -6.51367 16.25 -7.03125 C 16.25 -7.55859 15.8887 -7.86133 15.3223 -7.86133 L 12.5098 -7.86133 L 12.5098 -10.6836 C 12.5098 -11.25 12.207 -11.6113 11.6797 -11.6113 C 11.1621 -11.6113 10.8789 -11.2305 10.8789 -10.6836 L 10.8789 -7.86133 L 8.07617 -7.86133 C 7.50977 -7.86133 7.13867 -7.55859 7.13867 -7.03125 C 7.13867 -6.51367 7.5293 -6.23047 8.07617 -6.23047 L 10.8789 -6.23047 L 10.8789 -3.59375 C 10.8789 -3.03711 11.1621 -2.66602 11.6797 -2.66602 Z"/>
  </g>
  <g id="" transform="matrix(1 0 0 1 304.924 1933)">
   <path d="M 14.9707 5.66406 C 21.9336 5.66406 27.6953 -0.0976562 27.6953 -7.05078 C 27.6953 -14.0137 21.9238 -19.7754 14.9609 -19.7754 C 8.00781 -19.7754 2.25586 -14.0137 2.25586 -7.05078 C 2.25586 -0.0976562 8.01758 5.66406 14.9707 5.66406 Z M 14.9707 3.84766 C 8.93555 3.84766 4.08203 -1.01562 4.08203 -7.05078 C 4.08203 -13.0957 8.92578 -17.9492 14.9609 -17.9492 C 21.0059 -17.9492 25.8594 -13.0957 25.8691 -7.05078 C 25.8789 -1.01562 21.0156 3.84766 14.9707 3.84766 Z M 14.9414 -1.38672 C 15.5176 -1.38672 15.8594 -1.77734 15.8594 -2.38281 L 15.8594 -6.13281 L 19.7754 -6.13281 C 20.3711 -6.13281 20.7812 -6.46484 20.7812 -7.02148 C 20.7812 -7.59766 20.3906 -7.93945 19.7754 -7.93945 L 15.8594 -7.93945 L 15.8594 -11.8652 C 15.8594 -12.4805 15.5176 -12.8711 14.9414 -12.8711 C 14.375 -12.8711 14.0527 -12.4609 14.0527 -11.8652 L 14.0527 -7.93945 L 10.1465 -7.93945 C 9.53125 -7.93945 9.13086 -7.59766 9.13086 -7.02148 C 9.13086 -6.46484 9.55078 -6.13281 10.1465 -6.13281 L 14.0527 -6.13281 L 14.0527 -2.38281 C 14.0527 -1.79688 14.375 -1.38672 14.9414 -1.38672 Z"/>
  </g>
  <text style="stroke:none;fill:black;font-family:-apple-system,&quot;SF Pro Display&quot;,&quot;SF Pro Text&quot;,Helvetica,sans-serif;font-weight:bold;" transform="matrix(1 0 0 1 263 1953)">Design Variations</text>
  <text style="stroke:none;fill:black;font-family:-apple-system,&quot;SF Pro Display&quot;,&quot;SF Pro Text&quot;,Helvetica,sans-serif;" transform="matrix(1 0 0 1 263 1971)">Symbols are supported in up to nine weights and three scales.</text>
  <text style="stroke:none;fill:black;font-family:-apple-system,&quot;SF Pro Display&quot;,&quot;SF Pro Text&quot;,Helvetica,sans-serif;" transform="matrix(1 0 0 1 263 1989)">For optimal layout with text and other symbols, vertically align</text>
  <text style="stroke:none;fill:black;font-family:-apple-system,&quot;SF Pro Display&quot;,&quot;SF Pro Text&quot;,Helvetica,sans-serif;" transform="matrix(1 0 0 1 263 2007)">symbols with the adjacent text.</text>
  <line id="" style="fill:none;stroke:#00AEEF;stroke-width:0.5;opacity:1.0;" x1="776" x2="776" y1="1919" y2="1933"/>
  <g id="" transform="matrix(1 0 0 1 776 1933)">
   <path d="M 3.31055 0.126953 C 3.82812 0.126953 4.08203 -0.0683594 4.26758 -0.605469 L 5.52734 -4.0625 L 11.2891 -4.0625 L 12.5488 -0.605469 C 12.7344 -0.0683594 12.9883 0.126953 13.4961 0.126953 C 14.0137 0.126953 14.3457 -0.185547 14.3457 -0.673828 C 14.3457 -0.839844 14.3164 -0.986328 14.2383 -1.20117 L 9.6582 -13.3887 C 9.43359 -13.9941 9.0332 -14.2871 8.4082 -14.2871 C 7.80273 -14.2871 7.39258 -13.9941 7.17773 -13.3984 L 2.59766 -1.19141 C 2.51953 -0.976562 2.49023 -0.830078 2.49023 -0.664062 C 2.49023 -0.175781 2.80273 0.126953 3.31055 0.126953 Z M 6.00586 -5.53711 L 8.37891 -12.1094 L 8.42773 -12.1094 L 10.8008 -5.53711 Z"/>
  </g>
  <line id="" style="fill:none;stroke:#00AEEF;stroke-width:0.5;opacity:1.0;" x1="792.836" x2="792.836" y1="1919" y2="1933"/>
  <text style="stroke:none;fill:black;font-family:-apple-system,&quot;SF Pro Display&quot;,&quot;SF Pro Text&quot;,Helvetica,sans-serif;font-weight:bold;" transform="matrix(1 0 0 1 776 1953)">Margins</text>
  <text style="stroke:none;fill:black;font-family:-apple-system,&quot;SF Pro Display&quot;,&quot;SF Pro Text&quot;,Helvetica,sans-serif;" transform="matrix(1 0 0 1 776 1971)">Leading and trailing margins on the left and right side of each symbol</text>
  <text style="stroke:none;fill:black;font-family:-apple-system,&quot;SF Pro Display&quot;,&quot;SF Pro Text&quot;,Helvetica,sans-serif;" transform="matrix(1 0 0 1 776 1989)">can be adjusted by modifying the x-location of the margin guidelines.</text>
  <text style="stroke:none;fill:black;font-family:-apple-system,&quot;SF Pro Display&quot;,&quot;SF Pro Text&quot;,Helvetica,sans-serif;" transform="matrix(1 0 0 1 776 2007)">Modifications are automatically applied proportionally to all</text>
  <text style="stroke:none;fill:black;font-family:-apple-system,&quot;SF Pro Display&quot;,&quot;SF Pro Text&quot;,Helvetica,sans-serif;" transform="matrix(1 0 0 1 776 2025)">scales and weights.</text>
  <g id="" transform="matrix(1 0 0 1 1289 1933)">
   <path d="M 2.8418 1.86523 L 4.54102 3.57422 C 5.40039 4.44336 6.38672 4.38477 7.31445 3.35938 L 17.4902 -7.85156 C 17.7539 -7.76367 18.0273 -7.7832 18.3398 -7.8418 L 19.4043 -8.03711 L 20.0684 -7.36328 L 20.0293 -6.80664 C 19.9902 -6.30859 20.1172 -5.92773 20.6055 -5.44922 L 21.3672 -4.70703 C 21.8457 -4.22852 22.4609 -4.19922 22.9297 -4.66797 L 25.8398 -7.58789 C 26.3086 -8.05664 26.2891 -8.65234 25.8105 -9.13086 L 25.0391 -9.89258 C 24.5605 -10.3711 24.1895 -10.5273 23.7109 -10.4883 L 23.1348 -10.4395 L 22.4902 -11.0742 L 22.7344 -12.1973 C 22.8613 -12.7637 22.7051 -13.2031 22.1191 -13.7891 L 19.9219 -15.9766 C 16.582 -19.2969 12.1484 -19.2188 9.25781 -16.3281 C 8.83789 -15.918 8.80859 -15.3418 9.04297 -14.9512 C 9.27734 -14.5898 9.73633 -14.3555 10.3809 -14.5215 C 11.8457 -14.8633 13.3691 -14.9219 14.7949 -13.9844 L 14.209 -12.5293 C 14.0137 -12.0508 13.9844 -11.6504 14.1113 -11.2891 L 3.04688 -0.898438 C 2.06055 0.0195312 1.98242 0.996094 2.8418 1.86523 Z M 10.752 -15.957 C 13.1836 -17.7344 16.4746 -17.4316 18.7012 -15.2051 L 21.1328 -12.793 C 21.3672 -12.5586 21.4062 -12.373 21.3379 -12.0312 L 21.0156 -10.5469 L 22.5195 -9.0625 L 23.5059 -9.12109 C 23.7598 -9.13086 23.8379 -9.11133 24.0332 -8.91602 L 24.6094 -8.33984 L 22.168 -5.89844 L 21.5918 -6.47461 C 21.3965 -6.66992 21.3672 -6.74805 21.377 -7.01172 L 21.4453 -7.98828 L 19.9512 -9.47266 L 18.4277 -9.21875 C 18.1055 -9.15039 17.959 -9.17969 17.7148 -9.41406 L 15.7129 -11.416 C 15.459 -11.6504 15.4297 -11.8164 15.5859 -12.1875 L 16.4648 -14.2773 C 14.9023 -15.7324 12.8711 -16.3574 10.8398 -15.7617 C 10.6836 -15.7227 10.625 -15.8496 10.752 -15.957 Z M 5.27344 2.30469 L 4.10156 1.14258 C 3.63281 0.683594 3.74023 0.341797 4.14062 -0.0195312 L 14.9512 -10.1953 L 16.416 -8.71094 L 6.42578 2.27539 C 6.07422 2.67578 5.74219 2.77344 5.27344 2.30469 Z"/>
  </g>
  <text style="stroke:none;fill:black;font-family:-apple-system,&quot;SF Pro Display&quot;,&quot;SF Pro Text&quot;,Helvetica,sans-serif;font-weight:bold;" transform="matrix(1 0 0 1 1289 1953)">Exporting</text>
  <text style="stroke:none;fill:black;font-family:-apple-system,&quot;SF Pro Display&quot;,&quot;SF Pro Text&quot;,Helvetica,sans-serif;" transform="matrix(1 0 0 1 1289 1971)">Symbols should be outlined when exporting to ensure the</text>
  <text style="stroke:none;fill:black;font-family:-apple-system,&quot;SF Pro Display&quot;,&quot;SF Pro Text&quot;,Helvetica,sans-serif;" transform="matrix(1 0 0 1 1289 1989)">design is preserved when submitting to Xcode.</text>
  <text id="template-version" style="stroke:none;fill:black;font-family:-apple-system,&quot;SF Pro Display&quot;,&quot;SF Pro Text&quot;,Helvetica,sans-serif;text-anchor:end;" transform="matrix(1 0 0 1 3036 1933)">Template v.2.0</text>
  <text style="stroke:none;fill:black;font-family:-apple-system,&quot;SF Pro Display&quot;,&quot;SF Pro Text&quot;,Helvetica,sans-serif;text-anchor:end;" transform="matrix(1 0 0 1 3036 1951)">Requires Xcode 12 or greater</text>
  <text style="stroke:none;fill:black;font-family:-apple-system,&quot;SF Pro Display&quot;,&quot;SF Pro Text&quot;,Helvetica,sans-serif;text-anchor:end;" transform="matrix(1 0 0 1 3036 1969)">Generated from arrow.down.left.circle</text>
  <text style="stroke:none;fill:black;font-family:-apple-system,&quot;SF Pro Display&quot;,&quot;SF Pro Text&quot;,Helvetica,sans-serif;text-anchor:end;" transform="matrix(1 0 0 1 3036 1987)">Typeset at 100 points</text>
  <text style="stroke:none;fill:black;font-family:-apple-system,&quot;SF Pro Display&quot;,&quot;SF Pro Text&quot;,Helvetica,sans-serif;" transform="matrix(1 0 0 1 263 726)">Small</text>
  <text style="stroke:none;fill:black;font-family:-apple-system,&quot;SF Pro Display&quot;,&quot;SF Pro Text&quot;,Helvetica,sans-serif;" transform="matrix(1 0 0 1 263 1156)">Medium</text>
  <text style="stroke:none;fill:black;font-family:-apple-system,&quot;SF Pro Display&quot;,&quot;SF Pro Text&quot;,Helvetica,sans-serif;" transform="matrix(1 0 0 1 263 1586)">Large</text>
 </g>
 <g id="Guides">
  <g id="H-reference" style="fill:#27AAE1;stroke:none;" transform="matrix(1 0 0 1 339 696)">
   <path d="M 0.976562 0 L 3.66211 0 L 12.9883 -24.4629 L 45.7031 -24.4629 L 55.0781 0 L 57.7148 0 L 30.6152 -70.459 L 28.125 -70.459 Z M 29.2969 -67.1387 L 29.3945 -67.1387 L 44.873 -26.709 L 13.8672 -26.709 Z"/>
  </g>
  <line id="Baseline-S" style="fill:none;stroke:#27AAE1;opacity:1;stroke-width:0.5;" x1="263" x2="3036" y1="696" y2="696"/>
  <line id="Capline-S" style="fill:none;stroke:#27AAE1;opacity:1;stroke-width:0.5;" x1="263" x2="3036" y1="625.541" y2="625.541"/>
  <g id="H-reference" style="fill:#27AAE1;stroke:none;" transform="matrix(1 0 0 1 339 1126)">
   <path d="M 0.976562 0 L 3.66211 0 L 12.9883 -24.4629 L 45.7031 -24.4629 L 55.0781 0 L 57.7148 0 L 30.6152 -70.459 L 28.125 -70.459 Z M 29.2969 -67.1387 L 29.3945 -67.1387 L 44.873 -26.709 L 13.8672 -26.709 Z"/>
  </g>
  <line id="Baseline-M" style="fill:none;stroke:#27AAE1;opacity:1;stroke-width:0.5;" x1="263" x2="3036" y1="1126" y2="1126"/>
  <line id="Capline-M" style="fill:none;stroke:#27AAE1;opacity:1;stroke-width:0.5;" x1="263" x2="3036" y1="1055.54" y2="1055.54"/>
  <g id="H-reference" style="fill:#27AAE1;stroke:none;" transform="matrix(1 0 0 1 339 1556)">
   <path d="M 0.976562 0 L 3.66211 0 L 12.9883 -24.4629 L 45.7031 -24.4629 L 55.0781 0 L 57.7148 0 L 30.6152 -70.459 L 28.125 -70.459 Z M 29.2969 -67.1387 L 29.3945 -67.1387 L 44.873 -26.709 L 13.8672 -26.709 Z"/>
  </g>
  <line id="Baseline-L" style="fill:none;stroke:#27AAE1;opacity:1;stroke-width:0.5;" x1="263" x2="3036" y1="1556" y2="1556"/>
  <line id="Capline-L" style="fill:none;stroke:#27AAE1;opacity:1;stroke-width:0.5;" x1="263" x2="3036" y1="1485.54" y2="1485.54"/>
  <line id="left-margin" style="fill:none;stroke:#00AEEF;stroke-width:0.5;opacity:1.0;" x1="1391.3" x2="1391.3" y1="1030.79" y2="1150.12"/>
  <line id="right-margin" style="fill:none;stroke:#00AEEF;stroke-width:0.5;opacity:1.0;" x1="1508.39" x2="1508.39" y1="1030.79" y2="1150.12"/>
 </g>
 <g id="Symbols">
  <g id="Black-L" transform="matrix(1 0 0 1 2854.05 1556)">
   <path d="M 79.3457 32.8613 C 116.748 32.8613 147.412 2.19727 147.412 -35.2051 C 147.412 -72.6074 116.748 -103.271 79.2969 -103.271 C 41.8945 -103.271 11.2793 -72.6074 11.2793 -35.2051 C 11.2793 2.19727 41.9434 32.8613 79.3457 32.8613 Z M 79.3457 12.4023 C 52.9785 12.4023 31.7383 -8.83789 31.7383 -35.2051 C 31.7383 -61.5723 52.9297 -82.8125 79.2969 -82.8125 C 105.664 -82.8125 126.953 -61.5723 126.953 -35.2051 C 127.002 -8.83789 105.713 12.4023 79.3457 12.4023 Z M 60.1562 -55.3711 C 55.6641 -55.3711 52.9297 -52.0996 52.9297 -47.2168 L 52.9297 -19.5312 C 52.9297 -13.0371 56.7383 -9.42383 63.1836 -9.42383 L 90.918 -9.42383 C 95.9473 -9.42383 99.1699 -12.207 99.1699 -16.6504 C 99.1699 -21.1426 95.9961 -23.877 91.0156 -23.877 L 83.8379 -23.877 L 77.4902 -22.8027 L 85.498 -29.5898 L 103.076 -47.2168 C 104.785 -48.877 105.811 -51.2207 105.811 -53.4668 C 105.811 -58.5449 101.855 -61.9629 97.168 -61.9629 C 94.7754 -61.9629 92.627 -61.1328 90.5762 -59.1797 L 73.1934 -41.8457 L 66.4551 -33.8867 L 67.3828 -40.4297 L 67.3828 -47.1191 C 67.3828 -52.1484 64.5996 -55.3711 60.1562 -55.3711 Z"/>
  </g>
  <g id="Heavy-L" transform="matrix(1 0 0 1 2558.39 1556)">
   <path d="M 78.2715 31.7871 C 115.088 31.7871 145.312 1.5625 145.312 -35.2051 C 145.312 -72.0215 115.039 -102.246 78.2715 -102.246 C 41.4551 -102.246 11.2793 -72.0215 11.2793 -35.2051 C 11.2793 1.5625 41.5039 31.7871 78.2715 31.7871 Z M 78.2715 14.0137 C 51.0254 14.0137 29.0527 -7.95898 29.0527 -35.2051 C 29.0527 -62.5 50.9766 -84.4727 78.2715 -84.4727 C 105.518 -84.4727 127.49 -62.5 127.539 -35.2051 C 127.539 -7.95898 105.566 14.0137 78.2715 14.0137 Z M 58.8379 -54.248 C 54.834 -54.248 52.3926 -51.3672 52.3926 -46.9727 L 52.3926 -18.6035 C 52.3926 -12.8906 55.7129 -9.81445 61.2305 -9.81445 L 89.7461 -9.81445 C 94.1895 -9.81445 97.0703 -12.3047 97.0703 -16.2598 C 97.0703 -20.2637 94.1895 -22.7051 89.8438 -22.7051 L 81.0547 -22.7051 L 74.0234 -21.7285 L 82.2754 -28.9062 L 101.807 -48.4375 C 103.271 -49.9023 104.199 -51.9531 104.199 -53.9062 C 104.199 -58.3984 100.83 -61.3281 96.6309 -61.3281 C 94.4824 -61.3281 92.627 -60.5957 90.918 -58.9355 L 71.5332 -39.5996 L 64.4043 -31.4453 L 65.2832 -38.8184 L 65.2832 -46.9727 C 65.2832 -51.3672 62.793 -54.248 58.8379 -54.248 Z"/>
  </g>
  <g id="Bold-L" transform="matrix(1 0 0 1 2262.88 1556)">
   <path d="M 77.0996 30.5664 C 113.232 30.5664 142.92 0.878906 142.92 -35.2539 C 142.92 -71.3379 113.184 -101.074 77.0508 -101.074 C 40.9668 -101.074 11.2793 -71.3379 11.2793 -35.2539 C 11.2793 0.878906 41.0156 30.5664 77.0996 30.5664 Z M 77.0996 15.8203 C 48.8281 15.8203 26.0742 -6.98242 26.0742 -35.2539 C 26.0742 -63.5254 48.7793 -86.2793 77.0508 -86.2793 C 105.371 -86.2793 128.125 -63.5254 128.174 -35.2539 C 128.174 -6.98242 105.371 15.8203 77.0996 15.8203 Z M 57.3242 -52.9785 C 53.9062 -52.9785 51.7578 -50.4883 51.7578 -46.7773 L 51.7578 -17.5293 C 51.7578 -12.6953 54.541 -10.2539 59.082 -10.2539 L 88.4766 -10.2539 C 92.2363 -10.2539 94.6777 -12.4023 94.6777 -15.8203 C 94.6777 -19.2871 92.2363 -21.4355 88.4766 -21.4355 L 77.9297 -21.4355 L 70.166 -20.5078 L 78.6621 -28.125 L 100.391 -49.8047 C 101.611 -51.0254 102.393 -52.7344 102.393 -54.3945 C 102.393 -58.1543 99.6094 -60.6445 96.0938 -60.6445 C 94.1895 -60.6445 92.627 -60.0098 91.2598 -58.6426 L 69.6777 -37.1094 L 62.1094 -28.6621 L 62.9395 -37.0117 L 62.9395 -46.7773 C 62.9395 -50.5371 60.791 -52.9785 57.3242 -52.9785 Z"/>
  </g>
  <g id="Semibold-L" transform="matrix(1 0 0 1 1966.97 1556)">
   <path d="M 76.2695 29.7363 C 111.914 29.7363 141.309 0.390625 141.309 -35.2539 C 141.309 -70.8984 111.865 -100.244 76.2695 -100.244 C 40.625 -100.244 11.2793 -70.8984 11.2793 -35.2539 C 11.2793 0.390625 40.6738 29.7363 76.2695 29.7363 Z M 76.2695 17.041 C 47.3145 17.041 24.0234 -6.25 24.0234 -35.2539 C 24.0234 -64.209 47.2656 -87.5488 76.2695 -87.5488 C 105.225 -87.5488 128.564 -64.209 128.613 -35.2539 C 128.662 -6.25 105.273 17.041 76.2695 17.041 Z M 56.2988 -52.1484 C 53.2715 -52.1484 51.3184 -49.9023 51.3184 -46.582 L 51.3184 -16.7969 C 51.3184 -12.5977 53.7109 -10.5469 57.6172 -10.5469 L 87.5488 -10.5469 C 90.8691 -10.5469 93.0176 -12.5 93.0176 -15.5273 C 93.0176 -18.6035 90.8691 -20.5566 87.5488 -20.5566 L 75.7812 -20.5566 L 67.5293 -19.6777 L 76.2207 -27.5879 L 99.3652 -50.7812 C 100.439 -51.8066 101.123 -53.2715 101.123 -54.7363 C 101.123 -58.0078 98.7793 -60.2051 95.6543 -60.2051 C 93.9941 -60.2051 92.627 -59.6191 91.4551 -58.4473 L 68.4082 -35.4004 L 60.5469 -26.8066 L 61.3281 -35.791 L 61.3281 -46.6309 C 61.3281 -50 59.375 -52.1484 56.2988 -52.1484 Z"/>
  </g>
  <g id="Medium-L" transform="matrix(1 0 0 1 1670.87 1556)">
   <path d="M 75.6836 29.1504 C 110.938 29.1504 140.088 0 140.088 -35.2539 C 140.088 -70.5078 110.889 -99.6582 75.6348 -99.6582 C 40.3809 -99.6582 11.2793 -70.5078 11.2793 -35.2539 C 11.2793 0 40.3809 29.1504 75.6836 29.1504 Z M 75.6836 18.0176 C 46.1426 18.0176 22.4609 -5.76172 22.4609 -35.2539 C 22.4609 -64.7461 46.1426 -88.5254 75.6348 -88.5254 C 105.127 -88.5254 128.906 -64.7461 128.906 -35.2539 C 128.955 -5.76172 105.176 18.0176 75.6836 18.0176 Z M 55.5664 -51.4648 C 52.7832 -51.4648 51.0254 -49.4141 51.0254 -46.4844 L 51.0254 -16.2598 C 51.0254 -12.5 53.125 -10.791 56.4941 -10.791 L 86.8652 -10.791 C 89.8438 -10.791 91.7969 -12.5488 91.7969 -15.332 C 91.7969 -18.0664 89.8438 -19.873 86.8164 -19.873 L 74.1699 -19.873 L 65.5273 -19.043 L 74.3164 -27.1973 L 98.6328 -51.4648 C 99.5605 -52.3926 100.195 -53.7109 100.195 -54.9805 C 100.195 -57.9102 98.1934 -59.8145 95.3613 -59.8145 C 93.8477 -59.8145 92.627 -59.2773 91.6504 -58.3008 L 67.4316 -34.082 L 59.3262 -25.3418 L 60.1074 -34.8633 L 60.1074 -46.5332 C 60.1074 -49.5605 58.3008 -51.4648 55.5664 -51.4648 Z"/>
  </g>
  <g id="Regular-L" transform="matrix(1 0 0 1 1374.97 1556)">
   <path d="M 74.8535 28.3203 C 109.668 28.3203 138.477 -0.488281 138.477 -35.2539 C 138.477 -70.0684 109.619 -98.877 74.8047 -98.877 C 40.0391 -98.877 11.2793 -70.0684 11.2793 -35.2539 C 11.2793 -0.488281 40.0879 28.3203 74.8535 28.3203 Z M 74.8535 19.2383 C 44.6777 19.2383 20.4102 -5.07812 20.4102 -35.2539 C 20.4102 -65.4785 44.6289 -89.7461 74.8047 -89.7461 C 105.029 -89.7461 129.297 -65.4785 129.346 -35.2539 C 129.395 -5.07812 105.078 19.2383 74.8535 19.2383 Z M 54.541 -50.6348 C 52.1484 -50.6348 50.5859 -48.8281 50.5859 -46.2891 L 50.5859 -15.5273 C 50.5859 -12.4023 52.3438 -11.084 55.0293 -11.084 L 85.9863 -11.084 C 88.5254 -11.084 90.1367 -12.6465 90.1367 -14.9902 C 90.1367 -17.4316 88.4766 -18.9941 85.8887 -18.9941 L 72.0703 -18.9941 L 62.8906 -18.2129 L 71.875 -26.6602 L 97.6562 -52.4414 C 98.4375 -53.1738 98.9746 -54.248 98.9746 -55.3223 C 98.9746 -57.7637 97.3633 -59.375 94.9707 -59.375 C 93.6523 -59.375 92.627 -58.8867 91.8945 -58.1055 L 66.1133 -32.373 L 57.7637 -23.4863 L 58.4961 -33.6426 L 58.4961 -46.3867 C 58.4961 -48.9746 56.9336 -50.6348 54.541 -50.6348 Z"/>
  </g>
  <g id="Light-L" transform="matrix(1 0 0 1 1079.18 1556)">
   <path d="M 73.9258 27.3926 C 108.301 27.3926 136.621 -0.927734 136.621 -35.2539 C 136.621 -69.6289 108.252 -97.9492 73.9258 -97.9492 C 39.5508 -97.9492 11.2793 -69.6289 11.2793 -35.2539 C 11.2793 -0.927734 39.5996 27.3926 73.9258 27.3926 Z M 73.9258 20.5078 C 43.1152 20.5078 18.2129 -4.44336 18.2129 -35.2539 C 18.2129 -66.1133 43.0664 -91.0156 73.9258 -91.0156 C 104.736 -91.0156 129.688 -66.1133 129.736 -35.2539 C 129.736 -4.44336 104.785 20.5078 73.9258 20.5078 Z M 53.0273 -50.3418 C 51.1719 -50.3418 49.9512 -48.9746 49.9512 -46.9727 L 49.9512 -14.7461 C 49.9512 -12.4023 51.2695 -11.377 53.3203 -11.377 L 85.7422 -11.377 C 87.6953 -11.377 88.9648 -12.5488 88.9648 -14.3555 C 88.9648 -16.2109 87.6465 -17.4316 85.6445 -17.4316 L 68.6035 -17.4316 L 59.6191 -16.9434 L 67.4805 -24.4141 L 96.7285 -53.6621 C 97.3633 -54.2969 97.7539 -55.0781 97.7539 -55.957 C 97.7539 -57.8613 96.5332 -59.082 94.6777 -59.082 C 93.6035 -59.082 92.8223 -58.6914 92.2363 -58.1055 L 63.0371 -28.9062 L 55.6152 -21.0938 L 56.1035 -31.7383 L 56.1035 -47.0703 C 56.1035 -49.0723 54.8828 -50.3418 53.0273 -50.3418 Z"/>
  </g>
  <g id="Thin-L" transform="matrix(1 0 0 1 783.693 1556)">
   <path d="M 72.7051 26.1719 C 106.494 26.1719 134.18 -1.51367 134.18 -35.2539 C 134.18 -69.043 106.494 -96.7285 72.7051 -96.7285 C 38.9648 -96.7285 11.2793 -69.043 11.2793 -35.2539 C 11.2793 -1.51367 38.9648 26.1719 72.7051 26.1719 Z M 72.7051 22.168 C 41.0156 22.168 15.2832 -3.56445 15.2832 -35.2539 C 15.2832 -66.9922 41.0156 -92.7246 72.7051 -92.7246 C 104.395 -92.7246 130.176 -66.9922 130.176 -35.2539 C 130.176 -3.56445 104.443 22.168 72.7051 22.168 Z M 50.9766 -49.9512 C 49.9023 -49.9512 49.1211 -49.1211 49.1211 -47.9004 L 49.1211 -13.6719 C 49.1211 -12.4023 49.9023 -11.7188 51.0254 -11.7188 L 85.3516 -11.7188 C 86.5723 -11.7188 87.3535 -12.4023 87.3535 -13.4766 C 87.3535 -14.5996 86.5723 -15.3809 85.3516 -15.3809 L 64.0137 -15.3809 L 55.2734 -15.2832 L 61.7188 -21.4844 L 95.5566 -55.3223 C 95.9473 -55.7129 96.1914 -56.2012 96.1914 -56.8359 C 96.1914 -58.0078 95.459 -58.7402 94.2871 -58.7402 C 93.5547 -58.7402 93.0664 -58.4961 92.6758 -58.1055 L 58.9355 -24.3164 L 52.7832 -17.9199 L 52.8809 -29.248 L 52.8809 -47.9004 C 52.8809 -49.1699 52.1484 -49.9512 50.9766 -49.9512 Z"/>
  </g>
  <g id="Ultralight-L" transform="matrix(1 0 0 1 487.616 1556)">
   <path d="M 72.1191 25.5371 C 105.566 25.5371 132.91 -1.80664 132.91 -35.2539 C 132.91 -68.75 105.566 -96.0938 72.1191 -96.0938 C 38.623 -96.0938 11.2793 -68.75 11.2793 -35.2539 C 11.2793 -1.80664 38.623 25.5371 72.1191 25.5371 Z M 72.1191 23.0469 C 39.9414 23.0469 13.7695 -3.125 13.7695 -35.2539 C 13.7695 -67.4316 39.9414 -93.6035 72.1191 -93.6035 C 104.248 -93.6035 130.42 -67.4316 130.42 -35.2539 C 130.42 -3.125 104.248 23.0469 72.1191 23.0469 Z M 49.9512 -49.707 C 49.2188 -49.707 48.6816 -49.2188 48.6816 -48.3398 L 48.6816 -13.1348 C 48.6816 -12.4512 49.2188 -11.8652 49.8535 -11.8652 L 85.1562 -11.8652 C 86.0352 -11.8652 86.5723 -12.3047 86.5723 -13.0371 C 86.5723 -13.8184 86.0352 -14.3555 85.2051 -14.3555 L 61.6699 -14.3555 L 53.0762 -14.4531 L 58.7402 -19.9707 L 94.9219 -56.2012 C 95.2148 -56.4453 95.4102 -56.7871 95.4102 -57.2754 C 95.4102 -58.0566 94.873 -58.5938 94.0918 -58.5938 C 93.5547 -58.5938 93.2129 -58.3984 92.9199 -58.1055 L 56.8359 -21.9727 L 51.3672 -16.3086 L 51.2695 -27.9785 L 51.2695 -48.3398 C 51.2695 -49.2188 50.7324 -49.707 49.9512 -49.707 Z"/>
  </g>
  <g id="Black-M" transform="matrix(1 0 0 1 2870.97 1126)">
   <path d="M 62.4023 18.457 C 91.9922 18.457 116.113 -5.61523 116.113 -35.2051 C 116.113 -64.7949 91.9922 -88.8672 62.4023 -88.8672 C 32.8125 -88.8672 8.74023 -64.7949 8.74023 -35.2051 C 8.74023 -5.61523 32.8125 18.457 62.4023 18.457 Z M 62.4023 0.195312 C 42.8711 0.195312 27.002 -15.625 27.002 -35.2051 C 27.002 -54.7363 42.8711 -70.6055 62.4023 -70.6055 C 81.9824 -70.6055 97.8027 -54.7363 97.8027 -35.2051 C 97.8027 -15.625 81.9824 0.195312 62.4023 0.195312 Z M 47.6074 -52.1973 C 43.75 -52.1973 41.4551 -49.4141 41.4551 -45.166 L 41.4551 -23.9258 C 41.4551 -18.2617 44.8242 -14.8438 50.6348 -14.8438 L 71.875 -14.8438 C 76.2695 -14.8438 79.1016 -17.1875 79.1016 -20.9961 C 79.1016 -24.8535 76.3184 -27.1484 72.0703 -27.1484 L 66.8457 -27.1484 L 62.9395 -26.416 L 68.2617 -30.6152 L 81.1523 -43.5547 C 82.666 -45.0195 83.5449 -47.1191 83.5449 -49.1211 C 83.5449 -53.6133 79.9316 -56.6406 75.8301 -56.6406 C 73.7793 -56.6406 71.875 -55.957 69.9707 -54.1016 L 57.3242 -41.5039 L 53.125 -36.2305 L 53.7598 -40.3809 L 53.7598 -45.0195 C 53.7598 -49.3652 51.416 -52.1973 47.6074 -52.1973 Z"/>
  </g>
  <g id="Heavy-M" transform="matrix(1 0 0 1 2575.19 1126)">
   <path d="M 61.5234 17.5293 C 90.5273 17.5293 114.258 -6.20117 114.258 -35.2051 C 114.258 -64.2578 90.5273 -87.9883 61.4746 -87.9883 C 32.4707 -87.9883 8.74023 -64.2578 8.74023 -35.2051 C 8.74023 -6.20117 32.4707 17.5293 61.5234 17.5293 Z M 61.5234 1.61133 C 41.1133 1.61133 24.6582 -14.8438 24.6582 -35.2051 C 24.6582 -55.6152 41.1133 -72.0703 61.4746 -72.0703 C 81.8848 -72.0703 98.3398 -55.6152 98.3398 -35.2051 C 98.3398 -14.8438 81.8848 1.61133 61.5234 1.61133 Z M 46.5332 -51.0254 C 43.1152 -51.0254 41.0156 -48.5352 41.0156 -44.7754 L 41.0156 -23.0957 C 41.0156 -18.0664 43.9453 -15.1855 48.9746 -15.1855 L 70.6543 -15.1855 C 74.5605 -15.1855 77.0996 -17.334 77.0996 -20.752 C 77.0996 -24.1699 74.6094 -26.3184 70.8008 -26.3184 L 64.7461 -26.3184 L 60.0586 -25.5371 L 65.8691 -30.4199 L 79.9805 -44.5312 C 81.2988 -45.8496 82.0801 -47.6562 82.0801 -49.4629 C 82.0801 -53.3691 79.0039 -56.0059 75.3418 -56.0059 C 73.4863 -56.0059 71.8262 -55.4199 70.2148 -53.8574 L 56.3477 -39.9902 L 51.4648 -34.1797 L 52.0996 -39.1602 L 52.0996 -44.6777 C 52.0996 -48.5352 50 -51.0254 46.5332 -51.0254 Z"/>
  </g>
  <g id="Bold-M" transform="matrix(1 0 0 1 2279.5 1126)">
   <path d="M 60.498 16.5039 C 88.8672 16.5039 112.207 -6.83594 112.207 -35.2051 C 112.207 -63.623 88.8672 -86.9629 60.4492 -86.9629 C 32.0312 -86.9629 8.74023 -63.623 8.74023 -35.2051 C 8.74023 -6.83594 32.0801 16.5039 60.498 16.5039 Z M 60.498 3.22266 C 39.1602 3.22266 22.0703 -13.916 22.0703 -35.2051 C 22.0703 -56.543 39.1602 -73.6816 60.4492 -73.6816 C 81.7383 -73.6816 98.9258 -56.543 98.9258 -35.2051 C 98.9746 -13.916 81.7871 3.22266 60.498 3.22266 Z M 45.3613 -49.7559 C 42.3828 -49.7559 40.4785 -47.5586 40.4785 -44.2871 L 40.4785 -22.168 C 40.4785 -17.8711 42.9688 -15.625 47.1191 -15.625 L 69.3359 -15.625 C 72.6562 -15.625 74.8535 -17.4805 74.8535 -20.459 C 74.8535 -23.4863 72.7051 -25.3418 69.3848 -25.3418 L 62.3535 -25.3418 L 56.7871 -24.5605 L 63.2324 -30.2246 L 78.6621 -45.7031 C 79.7852 -46.7773 80.4688 -48.291 80.4688 -49.8047 C 80.4688 -53.125 77.9297 -55.3711 74.8047 -55.3711 C 73.1934 -55.3711 71.7773 -54.7852 70.5078 -53.5156 L 55.1758 -38.2324 L 49.5605 -31.8359 L 50.2441 -37.7441 L 50.2441 -44.2871 C 50.2441 -47.6074 48.3398 -49.7559 45.3613 -49.7559 Z"/>
  </g>
  <g id="Semibold-M" transform="matrix(1 0 0 1 1983.5 1126)">
   <path d="M 59.7656 15.8203 C 87.7441 15.8203 110.791 -7.27539 110.791 -35.2539 C 110.791 -63.2324 87.6953 -86.2793 59.7656 -86.2793 C 31.7871 -86.2793 8.74023 -63.2324 8.74023 -35.2539 C 8.74023 -7.27539 31.7871 15.8203 59.7656 15.8203 Z M 59.7656 4.3457 C 37.8418 4.3457 20.2637 -13.3301 20.2637 -35.2539 C 20.2637 -57.1777 37.793 -74.8047 59.7656 -74.8047 C 81.6895 -74.8047 99.3164 -57.1777 99.3652 -35.2539 C 99.3652 -13.3301 81.6895 4.3457 59.7656 4.3457 Z M 44.5801 -48.877 C 41.8945 -48.877 40.1855 -46.875 40.1855 -43.9941 L 40.1855 -21.5332 C 40.1855 -17.7734 42.334 -15.8691 45.8496 -15.8691 L 68.4082 -15.8691 C 71.3867 -15.8691 73.291 -17.5781 73.291 -20.2637 C 73.291 -22.9492 71.3379 -24.6582 68.4082 -24.6582 L 60.6934 -24.6582 L 54.541 -23.9258 L 61.377 -30.0781 L 77.7832 -46.4844 C 78.7109 -47.4121 79.3457 -48.7305 79.3457 -50.0488 C 79.3457 -52.9785 77.1973 -54.8828 74.4141 -54.8828 C 72.9492 -54.8828 71.7773 -54.3945 70.7031 -53.3203 L 54.3945 -37.0605 L 48.291 -30.2734 L 48.9746 -36.7676 L 48.9746 -43.9941 C 48.9746 -46.9727 47.2656 -48.877 44.5801 -48.877 Z"/>
  </g>
  <g id="Medium-M" transform="matrix(1 0 0 1 1687.3 1126)">
   <path d="M 59.2285 15.2344 C 86.9141 15.2344 109.766 -7.61719 109.766 -35.2539 C 109.766 -62.8906 86.8652 -85.7422 59.1797 -85.7422 C 31.543 -85.7422 8.74023 -62.8906 8.74023 -35.2539 C 8.74023 -7.61719 31.5918 15.2344 59.2285 15.2344 Z M 59.2285 5.17578 C 36.8164 5.17578 18.8965 -12.8418 18.8965 -35.2539 C 18.8965 -57.666 36.8164 -75.6348 59.1797 -75.6348 C 81.5918 -75.6348 99.6094 -57.666 99.6582 -35.2539 C 99.707 -12.8418 81.6406 5.17578 59.2285 5.17578 Z M 43.9453 -48.1934 C 41.5039 -48.1934 39.8926 -46.3867 39.8926 -43.75 L 39.8926 -21.0449 C 39.8926 -17.627 41.7969 -16.1133 44.873 -16.1133 L 67.7246 -16.1133 C 70.3613 -16.1133 72.1191 -17.6758 72.1191 -20.1172 C 72.1191 -22.6074 70.3613 -24.1699 67.6758 -24.1699 L 59.4238 -24.1699 L 52.832 -23.3887 L 60.0098 -29.9805 L 77.0996 -47.0703 C 77.9297 -47.9004 78.4668 -49.0234 78.4668 -50.1953 C 78.4668 -52.832 76.6602 -54.541 74.1699 -54.541 C 72.8027 -54.541 71.7285 -54.0527 70.8496 -53.1738 L 53.8086 -36.1328 L 47.2656 -29.0527 L 47.998 -36.0352 L 47.998 -43.7988 C 47.998 -46.4844 46.3867 -48.1934 43.9453 -48.1934 Z"/>
  </g>
  <g id="Regular-M" transform="matrix(1 0 0 1 1391.3 1126)">
   <path d="M 58.5449 14.5508 C 85.791 14.5508 108.35 -8.05664 108.35 -35.2539 C 108.35 -62.5 85.7422 -85.0586 58.4961 -85.0586 C 31.2988 -85.0586 8.74023 -62.5 8.74023 -35.2539 C 8.74023 -8.05664 31.3477 14.5508 58.5449 14.5508 Z M 58.5449 6.25 C 35.498 6.25 17.0898 -12.207 17.0898 -35.2539 C 17.0898 -58.3008 35.4492 -76.7578 58.4961 -76.7578 C 81.543 -76.7578 100 -58.3008 100.049 -35.2539 C 100.098 -12.207 81.5918 6.25 58.5449 6.25 Z M 43.1641 -47.3145 C 41.0156 -47.3145 39.5508 -45.7031 39.5508 -43.4082 L 39.5508 -20.4102 C 39.5508 -17.5293 41.1621 -16.3574 43.6523 -16.3574 L 66.7969 -16.3574 C 69.0918 -16.3574 70.5566 -17.7734 70.5566 -19.9219 C 70.5566 -22.1191 69.043 -23.5352 66.6992 -23.5352 L 57.8125 -23.5352 L 50.5859 -22.7539 L 58.2031 -29.834 L 76.2207 -47.8516 C 76.9043 -48.5352 77.3926 -49.4629 77.3926 -50.4395 C 77.3926 -52.6367 75.9277 -54.1016 73.7793 -54.1016 C 72.6074 -54.1016 71.6797 -53.6621 70.9961 -52.9785 L 53.0273 -34.9609 L 45.9961 -27.4902 L 46.7285 -35.0586 L 46.7285 -43.5059 C 46.7285 -45.8496 45.3125 -47.3145 43.1641 -47.3145 Z"/>
  </g>
  <g id="Light-M" transform="matrix(1 0 0 1 1095.42 1126)">
   <path d="M 57.7148 13.7207 C 84.5215 13.7207 106.689 -8.44727 106.689 -35.2539 C 106.689 -62.1094 84.5215 -84.2285 57.666 -84.2285 C 30.8594 -84.2285 8.74023 -62.1094 8.74023 -35.2539 C 8.74023 -8.44727 30.9082 13.7207 57.7148 13.7207 Z M 57.7148 7.37305 C 34.082 7.37305 15.0879 -11.6699 15.0879 -35.2539 C 15.0879 -58.8867 34.082 -77.9297 57.666 -77.9297 C 81.2988 -77.9297 100.342 -58.8867 100.391 -35.2539 C 100.391 -11.6699 81.3477 7.37305 57.7148 7.37305 Z M 41.748 -47.0703 C 40.1367 -47.0703 39.0137 -45.8008 39.0137 -44.043 L 39.0137 -19.6777 C 39.0137 -17.5293 40.2344 -16.6016 42.0898 -16.6016 L 66.5527 -16.6016 C 68.3594 -16.6016 69.4824 -17.6758 69.4824 -19.3359 C 69.4824 -21.0449 68.3105 -22.1191 66.5039 -22.1191 L 54.7363 -22.1191 L 47.6562 -21.6309 L 54.2969 -27.832 L 75.3906 -48.9746 C 75.9277 -49.5117 76.3184 -50.2441 76.3184 -51.0254 C 76.3184 -52.7344 75.1953 -53.8574 73.5352 -53.8574 C 72.5586 -53.8574 71.875 -53.5156 71.3379 -52.9785 L 50.2441 -31.8848 L 44.0918 -25.3418 L 44.5801 -33.3984 L 44.5801 -44.0918 C 44.5801 -45.8984 43.457 -47.0703 41.748 -47.0703 Z"/>
  </g>
  <g id="Thin-M" transform="matrix(1 0 0 1 799.806 1126)">
   <path d="M 56.6406 12.5977 C 82.9102 12.5977 104.492 -8.98438 104.492 -35.2539 C 104.492 -61.5723 82.9102 -83.1543 56.5918 -83.1543 C 30.3223 -83.1543 8.74023 -61.5723 8.74023 -35.2539 C 8.74023 -8.98438 30.3223 12.5977 56.6406 12.5977 Z M 56.6406 8.88672 C 32.2266 8.88672 12.4512 -10.8887 12.4512 -35.2539 C 12.4512 -59.6191 32.2266 -79.4434 56.5918 -79.4434 C 81.0059 -79.4434 100.781 -59.6191 100.781 -35.2539 C 100.781 -10.8887 81.0059 8.88672 56.6406 8.88672 Z M 39.9414 -46.7285 C 38.9648 -46.7285 38.2812 -45.9473 38.2812 -44.873 L 38.2812 -18.75 C 38.2812 -17.5293 38.9648 -16.8945 40.0391 -16.8945 L 66.2598 -16.8945 C 67.334 -16.8945 68.0664 -17.5781 68.0664 -18.5547 C 68.0664 -19.5801 67.334 -20.3125 66.2109 -20.3125 L 50.6348 -20.3125 L 43.7988 -20.1172 L 49.0723 -25.1953 L 74.3164 -50.4395 C 74.6582 -50.7812 74.9023 -51.2207 74.9023 -51.8066 C 74.9023 -52.832 74.2188 -53.5645 73.1445 -53.5645 C 72.5098 -53.5645 72.0703 -53.3203 71.7285 -52.9785 L 46.582 -27.7832 L 41.5527 -22.5098 L 41.6992 -31.1523 L 41.6992 -44.873 C 41.6992 -45.9961 41.0156 -46.7285 39.9414 -46.7285 Z"/>
  </g>
  <g id="Ultralight-M" transform="matrix(1 0 0 1 503.656 1126)">
   <path d="M 56.0547 12.0605 C 82.0801 12.0605 103.369 -9.22852 103.369 -35.2539 C 103.369 -61.2793 82.0801 -82.5684 56.0547 -82.5684 C 30.0293 -82.5684 8.74023 -61.2793 8.74023 -35.2539 C 8.74023 -9.22852 30.0293 12.0605 56.0547 12.0605 Z M 56.0547 9.66797 C 31.2988 9.66797 11.1328 -10.498 11.1328 -35.2539 C 11.1328 -60.0586 31.2988 -80.1758 56.0547 -80.1758 C 80.8594 -80.1758 100.977 -60.0586 100.977 -35.2539 C 100.977 -10.498 80.8594 9.66797 56.0547 9.66797 Z M 39.0137 -46.5332 C 38.3789 -46.5332 37.8906 -46.0449 37.8906 -45.2637 L 37.8906 -18.2617 C 37.8906 -17.5781 38.3789 -17.0898 39.0137 -17.0898 L 66.0645 -17.0898 C 66.8457 -17.0898 67.334 -17.4805 67.334 -18.1641 C 67.334 -18.8965 66.8457 -19.3359 66.0645 -19.3359 L 48.5352 -19.3359 L 41.7969 -19.3848 L 46.4355 -23.877 L 73.7793 -51.2207 C 74.0234 -51.4648 74.1699 -51.7578 74.1699 -52.1973 C 74.1699 -52.8809 73.6816 -53.3691 72.998 -53.3691 C 72.5098 -53.3691 72.2168 -53.2227 71.9727 -52.9785 L 44.6777 -25.6836 L 40.2344 -21.0449 L 40.2344 -45.2637 C 40.2344 -46.0449 39.7461 -46.5332 39.0137 -46.5332 Z"/>
  </g>
  <g id="Black-S" transform="matrix(1 0 0 1 2884.57 696)">
   <path d="M 48.8281 6.78711 C 71.9727 6.78711 90.8203 -12.0605 90.8203 -35.2051 C 90.8203 -58.3496 71.9727 -77.1973 48.8281 -77.1973 C 25.6836 -77.1973 6.83594 -58.3496 6.83594 -35.2051 C 6.83594 -12.0605 25.6836 6.78711 48.8281 6.78711 Z M 48.8281 -7.37305 C 33.4473 -7.37305 20.9961 -19.8242 20.9961 -35.2051 C 20.9961 -50.5859 33.4473 -63.0371 48.8281 -63.0371 C 64.209 -63.0371 76.6602 -50.5859 76.6602 -35.2051 C 76.6602 -19.8242 64.209 -7.37305 48.8281 -7.37305 Z M 37.207 -48.4375 C 34.2285 -48.4375 32.4219 -46.2891 32.4219 -42.9688 L 32.4219 -26.3184 C 32.4219 -21.9238 35.0586 -19.2871 39.5508 -19.2871 L 56.2012 -19.2871 C 59.6191 -19.2871 61.8164 -21.0938 61.8164 -24.0723 C 61.8164 -27.0508 59.668 -28.8574 56.3477 -28.8574 L 52.2461 -28.8574 L 49.1211 -28.2715 L 53.3203 -31.6406 L 63.4766 -41.7969 C 64.6484 -42.9688 65.332 -44.5801 65.332 -46.1426 C 65.332 -49.6094 62.5488 -51.9531 59.375 -51.9531 C 57.7637 -51.9531 56.2988 -51.416 54.834 -50 L 44.873 -40.0879 L 41.5039 -35.8887 L 41.9922 -39.209 L 41.9922 -42.8711 C 41.9922 -46.2402 40.1855 -48.4375 37.207 -48.4375 Z"/>
  </g>
  <g id="Heavy-S" transform="matrix(1 0 0 1 2588.47 696)">
   <path d="M 48.2422 6.15234 C 70.9961 6.15234 89.5996 -12.4512 89.5996 -35.2051 C 89.5996 -57.959 70.9961 -76.6113 48.1934 -76.6113 C 25.4395 -76.6113 6.83594 -57.959 6.83594 -35.2051 C 6.83594 -12.4512 25.4395 6.15234 48.2422 6.15234 Z M 48.2422 -6.39648 C 32.2754 -6.39648 19.4336 -19.2871 19.4336 -35.2051 C 19.4336 -51.1719 32.2754 -64.0137 48.1934 -64.0137 C 64.1602 -64.0137 77.002 -51.1719 77.0508 -35.2051 C 77.0508 -19.2871 64.1602 -6.39648 48.2422 -6.39648 Z M 36.5723 -47.6074 C 33.8379 -47.6074 32.1289 -45.6055 32.1289 -42.5781 L 32.1289 -25.7812 C 32.1289 -21.7773 34.4727 -19.5312 38.4766 -19.5312 L 55.3223 -19.5312 C 58.3984 -19.5312 60.4004 -21.2402 60.4004 -23.9258 C 60.4004 -26.6602 58.4473 -28.3691 55.4199 -28.3691 L 50.9766 -28.3691 L 47.2168 -27.7344 L 51.9531 -31.7383 L 62.6953 -42.4316 C 63.7207 -43.5059 64.3555 -44.9219 64.3555 -46.3379 C 64.3555 -49.4141 61.9141 -51.5137 59.0332 -51.5137 C 57.5684 -51.5137 56.25 -51.0254 54.9805 -49.8047 L 44.3848 -39.2578 L 40.4297 -34.5215 L 40.9668 -38.4277 L 40.9668 -42.5293 C 40.9668 -45.6055 39.3066 -47.6074 36.5723 -47.6074 Z"/>
  </g>
  <g id="Bold-S" transform="matrix(1 0 0 1 2292.44 696)">
   <path d="M 47.5586 5.46875 C 69.873 5.46875 88.2324 -12.8906 88.2324 -35.2539 C 88.2324 -57.5684 69.873 -75.9277 47.5098 -75.9277 C 25.1953 -75.9277 6.83594 -57.5684 6.83594 -35.2539 C 6.83594 -12.8906 25.1953 5.46875 47.5586 5.46875 Z M 47.5586 -5.32227 C 30.957 -5.32227 17.6758 -18.6523 17.6758 -35.2539 C 17.6758 -51.8066 30.957 -65.1367 47.5098 -65.1367 C 64.1113 -65.1367 77.4414 -51.8066 77.4414 -35.2539 C 77.4414 -18.6523 64.1113 -5.32227 47.5586 -5.32227 Z M 35.8398 -46.6309 C 33.3984 -46.6309 31.8359 -44.8242 31.8359 -42.1387 L 31.8359 -25.1465 C 31.8359 -21.6309 33.8867 -19.8242 37.2559 -19.8242 L 54.3457 -19.8242 C 57.0312 -19.8242 58.7891 -21.3379 58.7891 -23.8281 C 58.7891 -26.2695 57.0312 -27.7832 54.3457 -27.7832 L 49.5117 -27.7832 L 45.0684 -27.1484 L 50.3906 -31.7871 L 61.7676 -43.1641 C 62.6465 -44.0918 63.2324 -45.3125 63.2324 -46.4844 C 63.2324 -49.2188 61.1816 -51.0254 58.6426 -51.0254 C 57.3242 -51.0254 56.2012 -50.5859 55.1758 -49.5605 L 43.8965 -38.3301 L 39.209 -33.0566 L 39.8438 -37.5488 L 39.8438 -42.1387 C 39.8438 -44.873 38.2812 -46.6309 35.8398 -46.6309 Z"/>
  </g>
  <g id="Semibold-S" transform="matrix(1 0 0 1 1996.2 696)">
   <path d="M 47.0703 4.98047 C 69.0918 4.98047 87.3047 -13.1836 87.3047 -35.2539 C 87.3047 -57.2754 69.0918 -75.4883 47.0215 -75.4883 C 25 -75.4883 6.83594 -57.2754 6.83594 -35.2539 C 6.83594 -13.1836 25.0488 4.98047 47.0703 4.98047 Z M 47.0703 -4.58984 C 30.0781 -4.58984 16.4551 -18.2129 16.4551 -35.2539 C 16.4551 -52.2461 30.0293 -65.8691 47.0215 -65.8691 C 64.0625 -65.8691 77.6855 -52.2461 77.7344 -35.2539 C 77.7344 -18.2129 64.0625 -4.58984 47.0703 -4.58984 Z M 35.3516 -45.9961 C 33.0566 -45.9961 31.6406 -44.2871 31.6406 -41.8457 L 31.6406 -24.707 C 31.6406 -21.5332 33.4473 -20.0195 36.377 -20.0195 L 53.6621 -20.0195 C 56.1035 -20.0195 57.7148 -21.4355 57.7148 -23.7305 C 57.7148 -25.9766 56.1035 -27.3926 53.6133 -27.3926 L 48.5352 -27.3926 L 43.6035 -26.709 L 49.3652 -31.8848 L 61.1816 -43.7012 C 61.9629 -44.4824 62.4512 -45.5566 62.4512 -46.6309 C 62.4512 -49.0723 60.6934 -50.6836 58.3984 -50.6836 C 57.1777 -50.6836 56.1523 -50.2441 55.2734 -49.4141 L 43.5059 -37.6465 L 38.4277 -31.9824 L 39.0137 -36.9629 L 39.0137 -41.8945 C 39.0137 -44.3848 37.5977 -45.9961 35.3516 -45.9961 Z"/>
  </g>
  <g id="Medium-S" transform="matrix(1 0 0 1 1699.83 696)">
   <path d="M 46.7285 4.63867 C 68.5547 4.63867 86.6211 -13.4277 86.6211 -35.2539 C 86.6211 -57.0801 68.5059 -75.1465 46.6797 -75.1465 C 24.8535 -75.1465 6.83594 -57.0801 6.83594 -35.2539 C 6.83594 -13.4277 24.9023 4.63867 46.7285 4.63867 Z M 46.7285 -4.00391 C 29.3945 -4.00391 15.5273 -17.9199 15.5273 -35.2539 C 15.5273 -52.5879 29.3457 -66.4551 46.6797 -66.4551 C 64.0137 -66.4551 77.8809 -52.5879 77.9297 -35.2539 C 77.9785 -17.9199 64.0625 -4.00391 46.7285 -4.00391 Z M 34.9609 -45.459 C 32.8125 -45.459 31.4453 -43.8965 31.4453 -41.6504 L 31.4453 -24.3652 C 31.4453 -21.4355 33.1055 -20.166 35.7422 -20.166 L 53.125 -20.166 C 55.4199 -20.166 56.8848 -21.5332 56.8848 -23.6328 C 56.8848 -25.7324 55.3711 -27.0996 53.0762 -27.0996 L 47.7539 -27.0996 L 42.4805 -26.416 L 48.5352 -31.8848 L 60.6934 -44.043 C 61.4258 -44.7754 61.8652 -45.752 61.8652 -46.7285 C 61.8652 -48.9746 60.3516 -50.4395 58.2031 -50.4395 C 57.0312 -50.4395 56.1035 -50.0488 55.3711 -49.2676 L 43.2617 -37.1582 L 37.793 -31.2012 L 38.4277 -36.5234 L 38.4277 -41.6992 C 38.4277 -43.9941 37.0605 -45.459 34.9609 -45.459 Z"/>
  </g>
  <g id="Regular-S" transform="matrix(1 0 0 1 1403.58 696)">
   <path d="M 46.2402 4.15039 C 67.7734 4.15039 85.6934 -13.7207 85.6934 -35.2539 C 85.6934 -56.7871 67.7246 -74.6582 46.1914 -74.6582 C 24.707 -74.6582 6.83594 -56.7871 6.83594 -35.2539 C 6.83594 -13.7207 24.7559 4.15039 46.2402 4.15039 Z M 46.2402 -3.27148 C 28.5156 -3.27148 14.3555 -17.4805 14.3555 -35.2539 C 14.3555 -53.0273 28.4668 -67.2363 46.1914 -67.2363 C 63.9648 -67.2363 78.1738 -53.0273 78.2227 -35.2539 C 78.2715 -17.4805 64.0137 -3.27148 46.2402 -3.27148 Z M 34.4727 -44.8242 C 32.5195 -44.8242 31.25 -43.3594 31.25 -41.3574 L 31.25 -23.9746 C 31.25 -21.3379 32.666 -20.3613 34.9121 -20.3613 L 52.4414 -20.3613 C 54.4922 -20.3613 55.8105 -21.6309 55.8105 -23.5352 C 55.8105 -25.4883 54.4434 -26.7578 52.3438 -26.7578 L 46.7773 -26.7578 L 41.0645 -25.9766 L 47.5098 -31.9824 L 60.0586 -44.5801 C 60.6934 -45.166 61.1328 -45.9961 61.1328 -46.875 C 61.1328 -48.8281 59.8633 -50.0977 57.9102 -50.0977 C 56.8848 -50.0977 56.1035 -49.7559 55.4688 -49.1211 L 42.8711 -36.5234 L 36.9629 -30.1758 L 37.6465 -35.9375 L 37.6465 -41.4551 C 37.6465 -43.5059 36.377 -44.8242 34.4727 -44.8242 Z"/>
  </g>
  <g id="Light-S" transform="matrix(1 0 0 1 1107.6 696)">
   <path d="M 45.5078 3.41797 C 66.6992 3.41797 84.2285 -14.0625 84.2285 -35.2539 C 84.2285 -56.4453 66.6504 -73.9258 45.5078 -73.9258 C 24.3164 -73.9258 6.83594 -56.4453 6.83594 -35.2539 C 6.83594 -14.0625 24.3652 3.41797 45.5078 3.41797 Z M 45.5078 -2.29492 C 27.2461 -2.29492 12.5977 -16.9922 12.5977 -35.2539 C 12.5977 -53.5156 27.1973 -68.2129 45.5078 -68.2129 C 63.7695 -68.2129 78.4668 -53.5156 78.5156 -35.2539 C 78.5156 -16.9922 63.8184 -2.29492 45.5078 -2.29492 Z M 33.252 -44.5801 C 31.7383 -44.5801 30.7617 -43.457 30.7617 -41.8945 L 30.7617 -23.3398 C 30.7617 -21.3379 31.8359 -20.5566 33.5449 -20.5566 L 52.2461 -20.5566 C 53.8086 -20.5566 54.834 -21.5332 54.834 -22.998 C 54.834 -24.5117 53.7598 -25.4883 52.1484 -25.4883 L 44.043 -25.4883 L 38.4766 -25 L 43.9941 -30.2246 L 59.375 -45.5566 C 59.8633 -46.0449 60.1562 -46.6797 60.1562 -47.3633 C 60.1562 -48.9258 59.1797 -49.9023 57.666 -49.9023 C 56.8359 -49.9023 56.25 -49.6094 55.7617 -49.1211 L 40.4297 -33.7891 L 35.2539 -28.2715 L 35.7422 -34.4238 L 35.7422 -41.9434 C 35.7422 -43.5547 34.7168 -44.5801 33.252 -44.5801 Z"/>
  </g>
  <g id="Thin-S" transform="matrix(1 0 0 1 811.867 696)">
   <path d="M 44.5801 2.49023 C 65.2832 2.49023 82.2754 -14.5508 82.2754 -35.2539 C 82.2754 -55.957 65.2344 -72.998 44.5312 -72.998 C 23.8281 -72.998 6.83594 -55.957 6.83594 -35.2539 C 6.83594 -14.5508 23.877 2.49023 44.5801 2.49023 Z M 44.5801 -0.927734 C 25.5859 -0.927734 10.2539 -16.3086 10.2539 -35.2539 C 10.2539 -54.1992 25.5859 -69.5801 44.5312 -69.5801 C 63.5254 -69.5801 78.8574 -54.1992 78.8574 -35.2539 C 78.8574 -16.3086 63.5254 -0.927734 44.5801 -0.927734 Z M 31.6406 -44.2871 C 30.7129 -44.2871 30.127 -43.6035 30.127 -42.627 L 30.127 -22.5098 C 30.127 -21.3867 30.7617 -20.8008 31.7383 -20.8008 L 51.9531 -20.8008 C 52.9297 -20.8008 53.5645 -21.4355 53.5645 -22.3145 C 53.5645 -23.2422 52.9297 -23.877 51.9043 -23.877 L 40.4297 -23.877 L 35.0098 -23.6816 L 39.4043 -27.8809 L 58.3984 -46.875 C 58.7402 -47.168 58.9355 -47.5586 58.9355 -48.0469 C 58.9355 -49.0234 58.3008 -49.6582 57.373 -49.6582 C 56.8359 -49.6582 56.3965 -49.4141 56.1035 -49.1211 L 37.1582 -30.1758 L 33.0078 -25.7812 L 33.2031 -32.4707 L 33.2031 -42.627 C 33.2031 -43.6523 32.5684 -44.2871 31.6406 -44.2871 Z"/>
  </g>
  <g id="Ultralight-S" transform="matrix(1 0 0 1 515.644 696)">
   <path d="M 44.043 1.95312 C 64.502 1.95312 81.2988 -14.7949 81.2988 -35.2539 C 81.2988 -55.7129 64.502 -72.4609 44.043 -72.4609 C 23.584 -72.4609 6.83594 -55.7129 6.83594 -35.2539 C 6.83594 -14.7949 23.584 1.95312 44.043 1.95312 Z M 44.043 -0.244141 C 24.7559 -0.244141 9.08203 -15.9668 9.08203 -35.2539 C 9.08203 -54.541 24.7559 -70.2637 44.043 -70.2637 C 63.3789 -70.2637 79.0527 -54.541 79.0527 -35.2539 C 79.0527 -15.9668 63.3789 -0.244141 44.043 -0.244141 Z M 30.8105 -44.1406 C 30.1758 -44.1406 29.7852 -43.7012 29.7852 -42.9688 L 29.7852 -22.0703 C 29.7852 -21.3867 30.2246 -20.9473 30.8105 -20.9473 L 51.8066 -20.9473 C 52.4902 -20.9473 52.9297 -21.3379 52.9297 -21.9727 C 52.9297 -22.6074 52.4902 -23.0469 51.8066 -23.0469 L 38.5742 -23.0469 L 33.252 -22.998 L 37.0605 -26.709 L 57.9102 -47.5586 C 58.1543 -47.7539 58.3008 -48.0469 58.3008 -48.3887 C 58.3008 -49.0723 57.8613 -49.5117 57.2266 -49.5117 C 56.7871 -49.5117 56.543 -49.3164 56.2988 -49.1211 L 35.498 -28.3203 L 31.8359 -24.5117 L 31.8848 -31.4453 L 31.8848 -42.9688 C 31.8848 -43.7012 31.4453 -44.1406 30.8105 -44.1406 Z"/>
  </g>
 </g>
</svg>
