<?xml version="1.0" encoding="UTF-8"?>
<!--Generator: Apple Native CoreSVG 148-->
<!DOCTYPE svg
PUBLIC "-//W3C//DTD SVG 1.1//EN"
       "http://www.w3.org/Graphics/SVG/1.1/DTD/svg11.dtd">
<svg version="1.1" xmlns="http://www.w3.org/2000/svg" xmlns:xlink="http://www.w3.org/1999/xlink" width="3300" height="2200">
 <!--glyph: "uni100C41.medium", point size: 100.000000, font version: "Version 16.0d11e1", template writer version: "8"-->
 <g id="Notes">
  <rect height="2200" id="artboard" style="fill:white;opacity:1" width="3300" x="0" y="0"/>
  <line id="" style="fill:none;stroke:black;opacity:1;stroke-width:0.5;" x1="263" x2="3036" y1="292" y2="292"/>
  <text style="stroke:none;fill:black;font-family:-apple-system,&quot;SF Pro Display&quot;,&quot;SF Pro Text&quot;,Helvetica,sans-serif;font-weight:bold;" transform="matrix(1 0 0 1 263 322)">Weight/Scale Variations</text>
  <text style="stroke:none;fill:black;font-family:-apple-system,&quot;SF Pro Display&quot;,&quot;SF Pro Text&quot;,Helvetica,sans-serif;text-anchor:middle;" transform="matrix(1 0 0 1 559.711 322)">Ultralight</text>
  <text style="stroke:none;fill:black;font-family:-apple-system,&quot;SF Pro Display&quot;,&quot;SF Pro Text&quot;,Helvetica,sans-serif;text-anchor:middle;" transform="matrix(1 0 0 1 856.422 322)">Thin</text>
  <text style="stroke:none;fill:black;font-family:-apple-system,&quot;SF Pro Display&quot;,&quot;SF Pro Text&quot;,Helvetica,sans-serif;text-anchor:middle;" transform="matrix(1 0 0 1 1153.13 322)">Light</text>
  <text style="stroke:none;fill:black;font-family:-apple-system,&quot;SF Pro Display&quot;,&quot;SF Pro Text&quot;,Helvetica,sans-serif;text-anchor:middle;" transform="matrix(1 0 0 1 1449.84 322)">Regular</text>
  <text style="stroke:none;fill:black;font-family:-apple-system,&quot;SF Pro Display&quot;,&quot;SF Pro Text&quot;,Helvetica,sans-serif;text-anchor:middle;" transform="matrix(1 0 0 1 1746.56 322)">Medium</text>
  <text style="stroke:none;fill:black;font-family:-apple-system,&quot;SF Pro Display&quot;,&quot;SF Pro Text&quot;,Helvetica,sans-serif;text-anchor:middle;" transform="matrix(1 0 0 1 2043.27 322)">Semibold</text>
  <text style="stroke:none;fill:black;font-family:-apple-system,&quot;SF Pro Display&quot;,&quot;SF Pro Text&quot;,Helvetica,sans-serif;text-anchor:middle;" transform="matrix(1 0 0 1 2339.98 322)">Bold</text>
  <text style="stroke:none;fill:black;font-family:-apple-system,&quot;SF Pro Display&quot;,&quot;SF Pro Text&quot;,Helvetica,sans-serif;text-anchor:middle;" transform="matrix(1 0 0 1 2636.69 322)">Heavy</text>
  <text style="stroke:none;fill:black;font-family:-apple-system,&quot;SF Pro Display&quot;,&quot;SF Pro Text&quot;,Helvetica,sans-serif;text-anchor:middle;" transform="matrix(1 0 0 1 2933.4 322)">Black</text>
  <line id="" style="fill:none;stroke:black;opacity:1;stroke-width:0.5;" x1="263" x2="3036" y1="1903" y2="1903"/>
  <g id="" transform="matrix(1 0 0 1 263 1933)">
   <path d="M 9.24805 0.830078 C 13.5547 0.830078 17.1387 -2.74414 17.1387 -7.05078 C 17.1387 -11.3574 13.5449 -14.9316 9.23828 -14.9316 C 4.94141 -14.9316 1.36719 -11.3574 1.36719 -7.05078 C 1.36719 -2.74414 4.95117 0.830078 9.24805 0.830078 Z M 9.24805 -0.654297 C 5.70312 -0.654297 2.87109 -3.49609 2.87109 -7.05078 C 2.87109 -10.6055 5.69336 -13.4473 9.23828 -13.4473 C 12.793 -13.4473 15.6348 -10.6055 15.6445 -7.05078 C 15.6543 -3.49609 12.8027 -0.654297 9.24805 -0.654297 Z M 9.22852 -3.62305 C 9.69727 -3.62305 9.9707 -3.93555 9.9707 -4.45312 L 9.9707 -6.31836 L 12.002 -6.31836 C 12.5 -6.31836 12.832 -6.57227 12.832 -7.04102 C 12.832 -7.51953 12.5195 -7.7832 12.002 -7.7832 L 9.9707 -7.7832 L 9.9707 -9.81445 C 9.9707 -10.332 9.69727 -10.6543 9.22852 -10.6543 C 8.75977 -10.6543 8.50586 -10.3125 8.50586 -9.81445 L 8.50586 -7.7832 L 6.49414 -7.7832 C 5.97656 -7.7832 5.64453 -7.51953 5.64453 -7.04102 C 5.64453 -6.57227 5.99609 -6.31836 6.49414 -6.31836 L 8.50586 -6.31836 L 8.50586 -4.45312 C 8.50586 -3.95508 8.75977 -3.62305 9.22852 -3.62305 Z"/>
  </g>
  <g id="" transform="matrix(1 0 0 1 281.506 1933)">
   <path d="M 11.709 2.91016 C 17.1582 2.91016 21.6699 -1.61133 21.6699 -7.05078 C 21.6699 -12.5 17.1484 -17.0117 11.6992 -17.0117 C 6.25977 -17.0117 1.74805 -12.5 1.74805 -7.05078 C 1.74805 -1.61133 6.26953 2.91016 11.709 2.91016 Z M 11.709 1.25 C 7.09961 1.25 3.41797 -2.44141 3.41797 -7.05078 C 3.41797 -11.6602 7.08984 -15.3516 11.6992 -15.3516 C 16.3086 -15.3516 20 -11.6602 20.0098 -7.05078 C 20.0195 -2.44141 16.3184 1.25 11.709 1.25 Z M 11.6797 -2.66602 C 12.207 -2.66602 12.5098 -3.01758 12.5098 -3.59375 L 12.5098 -6.23047 L 15.3223 -6.23047 C 15.8691 -6.23047 16.25 -6.51367 16.25 -7.03125 C 16.25 -7.55859 15.8887 -7.86133 15.3223 -7.86133 L 12.5098 -7.86133 L 12.5098 -10.6836 C 12.5098 -11.25 12.207 -11.6113 11.6797 -11.6113 C 11.1621 -11.6113 10.8789 -11.2305 10.8789 -10.6836 L 10.8789 -7.86133 L 8.07617 -7.86133 C 7.50977 -7.86133 7.13867 -7.55859 7.13867 -7.03125 C 7.13867 -6.51367 7.5293 -6.23047 8.07617 -6.23047 L 10.8789 -6.23047 L 10.8789 -3.59375 C 10.8789 -3.03711 11.1621 -2.66602 11.6797 -2.66602 Z"/>
  </g>
  <g id="" transform="matrix(1 0 0 1 304.924 1933)">
   <path d="M 14.9707 5.66406 C 21.9336 5.66406 27.6953 -0.0976562 27.6953 -7.05078 C 27.6953 -14.0137 21.9238 -19.7754 14.9609 -19.7754 C 8.00781 -19.7754 2.25586 -14.0137 2.25586 -7.05078 C 2.25586 -0.0976562 8.01758 5.66406 14.9707 5.66406 Z M 14.9707 3.84766 C 8.93555 3.84766 4.08203 -1.01562 4.08203 -7.05078 C 4.08203 -13.0957 8.92578 -17.9492 14.9609 -17.9492 C 21.0059 -17.9492 25.8594 -13.0957 25.8691 -7.05078 C 25.8789 -1.01562 21.0156 3.84766 14.9707 3.84766 Z M 14.9414 -1.38672 C 15.5176 -1.38672 15.8594 -1.77734 15.8594 -2.38281 L 15.8594 -6.13281 L 19.7754 -6.13281 C 20.3711 -6.13281 20.7812 -6.46484 20.7812 -7.02148 C 20.7812 -7.59766 20.3906 -7.93945 19.7754 -7.93945 L 15.8594 -7.93945 L 15.8594 -11.8652 C 15.8594 -12.4805 15.5176 -12.8711 14.9414 -12.8711 C 14.375 -12.8711 14.0527 -12.4609 14.0527 -11.8652 L 14.0527 -7.93945 L 10.1465 -7.93945 C 9.53125 -7.93945 9.13086 -7.59766 9.13086 -7.02148 C 9.13086 -6.46484 9.55078 -6.13281 10.1465 -6.13281 L 14.0527 -6.13281 L 14.0527 -2.38281 C 14.0527 -1.79688 14.375 -1.38672 14.9414 -1.38672 Z"/>
  </g>
  <text style="stroke:none;fill:black;font-family:-apple-system,&quot;SF Pro Display&quot;,&quot;SF Pro Text&quot;,Helvetica,sans-serif;font-weight:bold;" transform="matrix(1 0 0 1 263 1953)">Design Variations</text>
  <text style="stroke:none;fill:black;font-family:-apple-system,&quot;SF Pro Display&quot;,&quot;SF Pro Text&quot;,Helvetica,sans-serif;" transform="matrix(1 0 0 1 263 1971)">Symbols are supported in up to nine weights and three scales.</text>
  <text style="stroke:none;fill:black;font-family:-apple-system,&quot;SF Pro Display&quot;,&quot;SF Pro Text&quot;,Helvetica,sans-serif;" transform="matrix(1 0 0 1 263 1989)">For optimal layout with text and other symbols, vertically align</text>
  <text style="stroke:none;fill:black;font-family:-apple-system,&quot;SF Pro Display&quot;,&quot;SF Pro Text&quot;,Helvetica,sans-serif;" transform="matrix(1 0 0 1 263 2007)">symbols with the adjacent text.</text>
  <line id="" style="fill:none;stroke:#00AEEF;stroke-width:0.5;opacity:1.0;" x1="776" x2="776" y1="1919" y2="1933"/>
  <g id="" transform="matrix(1 0 0 1 776 1933)">
   <path d="M 3.31055 0.126953 C 3.82812 0.126953 4.08203 -0.0683594 4.26758 -0.605469 L 5.52734 -4.0625 L 11.2891 -4.0625 L 12.5488 -0.605469 C 12.7344 -0.0683594 12.9883 0.126953 13.4961 0.126953 C 14.0137 0.126953 14.3457 -0.185547 14.3457 -0.673828 C 14.3457 -0.839844 14.3164 -0.986328 14.2383 -1.20117 L 9.6582 -13.3887 C 9.43359 -13.9941 9.0332 -14.2871 8.4082 -14.2871 C 7.80273 -14.2871 7.39258 -13.9941 7.17773 -13.3984 L 2.59766 -1.19141 C 2.51953 -0.976562 2.49023 -0.830078 2.49023 -0.664062 C 2.49023 -0.175781 2.80273 0.126953 3.31055 0.126953 Z M 6.00586 -5.53711 L 8.37891 -12.1094 L 8.42773 -12.1094 L 10.8008 -5.53711 Z"/>
  </g>
  <line id="" style="fill:none;stroke:#00AEEF;stroke-width:0.5;opacity:1.0;" x1="792.836" x2="792.836" y1="1919" y2="1933"/>
  <text style="stroke:none;fill:black;font-family:-apple-system,&quot;SF Pro Display&quot;,&quot;SF Pro Text&quot;,Helvetica,sans-serif;font-weight:bold;" transform="matrix(1 0 0 1 776 1953)">Margins</text>
  <text style="stroke:none;fill:black;font-family:-apple-system,&quot;SF Pro Display&quot;,&quot;SF Pro Text&quot;,Helvetica,sans-serif;" transform="matrix(1 0 0 1 776 1971)">Leading and trailing margins on the left and right side of each symbol</text>
  <text style="stroke:none;fill:black;font-family:-apple-system,&quot;SF Pro Display&quot;,&quot;SF Pro Text&quot;,Helvetica,sans-serif;" transform="matrix(1 0 0 1 776 1989)">can be adjusted by modifying the x-location of the margin guidelines.</text>
  <text style="stroke:none;fill:black;font-family:-apple-system,&quot;SF Pro Display&quot;,&quot;SF Pro Text&quot;,Helvetica,sans-serif;" transform="matrix(1 0 0 1 776 2007)">Modifications are automatically applied proportionally to all</text>
  <text style="stroke:none;fill:black;font-family:-apple-system,&quot;SF Pro Display&quot;,&quot;SF Pro Text&quot;,Helvetica,sans-serif;" transform="matrix(1 0 0 1 776 2025)">scales and weights.</text>
  <g id="" transform="matrix(1 0 0 1 1289 1933)">
   <path d="M 2.8418 1.86523 L 4.54102 3.57422 C 5.40039 4.44336 6.38672 4.38477 7.31445 3.35938 L 17.4902 -7.85156 C 17.7539 -7.76367 18.0273 -7.7832 18.3398 -7.8418 L 19.4043 -8.03711 L 20.0684 -7.36328 L 20.0293 -6.80664 C 19.9902 -6.30859 20.1172 -5.92773 20.6055 -5.44922 L 21.3672 -4.70703 C 21.8457 -4.22852 22.4609 -4.19922 22.9297 -4.66797 L 25.8398 -7.58789 C 26.3086 -8.05664 26.2891 -8.65234 25.8105 -9.13086 L 25.0391 -9.89258 C 24.5605 -10.3711 24.1895 -10.5273 23.7109 -10.4883 L 23.1348 -10.4395 L 22.4902 -11.0742 L 22.7344 -12.1973 C 22.8613 -12.7637 22.7051 -13.2031 22.1191 -13.7891 L 19.9219 -15.9766 C 16.582 -19.2969 12.1484 -19.2188 9.25781 -16.3281 C 8.83789 -15.918 8.80859 -15.3418 9.04297 -14.9512 C 9.27734 -14.5898 9.73633 -14.3555 10.3809 -14.5215 C 11.8457 -14.8633 13.3691 -14.9219 14.7949 -13.9844 L 14.209 -12.5293 C 14.0137 -12.0508 13.9844 -11.6504 14.1113 -11.2891 L 3.04688 -0.898438 C 2.06055 0.0195312 1.98242 0.996094 2.8418 1.86523 Z M 10.752 -15.957 C 13.1836 -17.7344 16.4746 -17.4316 18.7012 -15.2051 L 21.1328 -12.793 C 21.3672 -12.5586 21.4062 -12.373 21.3379 -12.0312 L 21.0156 -10.5469 L 22.5195 -9.0625 L 23.5059 -9.12109 C 23.7598 -9.13086 23.8379 -9.11133 24.0332 -8.91602 L 24.6094 -8.33984 L 22.168 -5.89844 L 21.5918 -6.47461 C 21.3965 -6.66992 21.3672 -6.74805 21.377 -7.01172 L 21.4453 -7.98828 L 19.9512 -9.47266 L 18.4277 -9.21875 C 18.1055 -9.15039 17.959 -9.17969 17.7148 -9.41406 L 15.7129 -11.416 C 15.459 -11.6504 15.4297 -11.8164 15.5859 -12.1875 L 16.4648 -14.2773 C 14.9023 -15.7324 12.8711 -16.3574 10.8398 -15.7617 C 10.6836 -15.7227 10.625 -15.8496 10.752 -15.957 Z M 5.27344 2.30469 L 4.10156 1.14258 C 3.63281 0.683594 3.74023 0.341797 4.14062 -0.0195312 L 14.9512 -10.1953 L 16.416 -8.71094 L 6.42578 2.27539 C 6.07422 2.67578 5.74219 2.77344 5.27344 2.30469 Z"/>
  </g>
  <text style="stroke:none;fill:black;font-family:-apple-system,&quot;SF Pro Display&quot;,&quot;SF Pro Text&quot;,Helvetica,sans-serif;font-weight:bold;" transform="matrix(1 0 0 1 1289 1953)">Exporting</text>
  <text style="stroke:none;fill:black;font-family:-apple-system,&quot;SF Pro Display&quot;,&quot;SF Pro Text&quot;,Helvetica,sans-serif;" transform="matrix(1 0 0 1 1289 1971)">Symbols should be outlined when exporting to ensure the</text>
  <text style="stroke:none;fill:black;font-family:-apple-system,&quot;SF Pro Display&quot;,&quot;SF Pro Text&quot;,Helvetica,sans-serif;" transform="matrix(1 0 0 1 1289 1989)">design is preserved when submitting to Xcode.</text>
  <text id="template-version" style="stroke:none;fill:black;font-family:-apple-system,&quot;SF Pro Display&quot;,&quot;SF Pro Text&quot;,Helvetica,sans-serif;text-anchor:end;" transform="matrix(1 0 0 1 3036 1933)">Template v.2.0</text>
  <text style="stroke:none;fill:black;font-family:-apple-system,&quot;SF Pro Display&quot;,&quot;SF Pro Text&quot;,Helvetica,sans-serif;text-anchor:end;" transform="matrix(1 0 0 1 3036 1951)">Requires Xcode 12 or greater</text>
  <text style="stroke:none;fill:black;font-family:-apple-system,&quot;SF Pro Display&quot;,&quot;SF Pro Text&quot;,Helvetica,sans-serif;text-anchor:end;" transform="matrix(1 0 0 1 3036 1969)">Generated from arrow.up.forward.square</text>
  <text style="stroke:none;fill:black;font-family:-apple-system,&quot;SF Pro Display&quot;,&quot;SF Pro Text&quot;,Helvetica,sans-serif;text-anchor:end;" transform="matrix(1 0 0 1 3036 1987)">Typeset at 100 points</text>
  <text style="stroke:none;fill:black;font-family:-apple-system,&quot;SF Pro Display&quot;,&quot;SF Pro Text&quot;,Helvetica,sans-serif;" transform="matrix(1 0 0 1 263 726)">Small</text>
  <text style="stroke:none;fill:black;font-family:-apple-system,&quot;SF Pro Display&quot;,&quot;SF Pro Text&quot;,Helvetica,sans-serif;" transform="matrix(1 0 0 1 263 1156)">Medium</text>
  <text style="stroke:none;fill:black;font-family:-apple-system,&quot;SF Pro Display&quot;,&quot;SF Pro Text&quot;,Helvetica,sans-serif;" transform="matrix(1 0 0 1 263 1586)">Large</text>
 </g>
 <g id="Guides">
  <g id="H-reference" style="fill:#27AAE1;stroke:none;" transform="matrix(1 0 0 1 339 696)">
   <path d="M 0.976562 0 L 3.66211 0 L 12.9883 -24.4629 L 45.7031 -24.4629 L 55.0781 0 L 57.7148 0 L 30.6152 -70.459 L 28.125 -70.459 Z M 29.2969 -67.1387 L 29.3945 -67.1387 L 44.873 -26.709 L 13.8672 -26.709 Z"/>
  </g>
  <line id="Baseline-S" style="fill:none;stroke:#27AAE1;opacity:1;stroke-width:0.5;" x1="263" x2="3036" y1="696" y2="696"/>
  <line id="Capline-S" style="fill:none;stroke:#27AAE1;opacity:1;stroke-width:0.5;" x1="263" x2="3036" y1="625.541" y2="625.541"/>
  <g id="H-reference" style="fill:#27AAE1;stroke:none;" transform="matrix(1 0 0 1 339 1126)">
   <path d="M 0.976562 0 L 3.66211 0 L 12.9883 -24.4629 L 45.7031 -24.4629 L 55.0781 0 L 57.7148 0 L 30.6152 -70.459 L 28.125 -70.459 Z M 29.2969 -67.1387 L 29.3945 -67.1387 L 44.873 -26.709 L 13.8672 -26.709 Z"/>
  </g>
  <line id="Baseline-M" style="fill:none;stroke:#27AAE1;opacity:1;stroke-width:0.5;" x1="263" x2="3036" y1="1126" y2="1126"/>
  <line id="Capline-M" style="fill:none;stroke:#27AAE1;opacity:1;stroke-width:0.5;" x1="263" x2="3036" y1="1055.54" y2="1055.54"/>
  <g id="H-reference" style="fill:#27AAE1;stroke:none;" transform="matrix(1 0 0 1 339 1556)">
   <path d="M 0.976562 0 L 3.66211 0 L 12.9883 -24.4629 L 45.7031 -24.4629 L 55.0781 0 L 57.7148 0 L 30.6152 -70.459 L 28.125 -70.459 Z M 29.2969 -67.1387 L 29.3945 -67.1387 L 44.873 -26.709 L 13.8672 -26.709 Z"/>
  </g>
  <line id="Baseline-L" style="fill:none;stroke:#27AAE1;opacity:1;stroke-width:0.5;" x1="263" x2="3036" y1="1556" y2="1556"/>
  <line id="Capline-L" style="fill:none;stroke:#27AAE1;opacity:1;stroke-width:0.5;" x1="263" x2="3036" y1="1485.54" y2="1485.54"/>
  <line id="left-margin" style="fill:none;stroke:#00AEEF;stroke-width:0.5;opacity:1.0;" x1="1392.45" x2="1392.45" y1="1030.79" y2="1150.12"/>
  <line id="right-margin" style="fill:none;stroke:#00AEEF;stroke-width:0.5;opacity:1.0;" x1="1507.24" x2="1507.24" y1="1030.79" y2="1150.12"/>
 </g>
 <g id="Symbols">
  <g id="Black-L" transform="matrix(1 0 0 1 2855.62 1556)">
   <path d="M 39.9902 26.5137 L 115.576 26.5137 C 130.811 26.5137 139.502 17.8711 139.502 2.68555 L 139.502 -73.0957 C 139.502 -88.2812 130.811 -96.875 115.576 -96.875 L 39.9902 -96.875 C 24.7559 -96.875 16.0645 -88.2812 16.0645 -73.0957 L 16.0645 2.68555 C 16.0645 17.8711 24.7559 26.5137 39.9902 26.5137 Z M 42.6758 6.29883 C 38.4766 6.29883 36.3281 4.39453 36.3281 -0.146484 L 36.3281 -70.2148 C 36.3281 -74.7559 38.4766 -76.6602 42.6758 -76.6602 L 112.842 -76.6602 C 117.09 -76.6602 119.238 -74.7559 119.238 -70.2148 L 119.238 -0.146484 C 119.238 4.39453 117.09 6.29883 112.842 6.29883 Z M 97.0215 -16.0156 C 101.465 -16.0156 104.248 -19.2871 104.248 -24.1699 L 104.248 -51.8555 C 104.248 -58.3496 100.391 -61.9629 93.9941 -61.9629 L 66.2598 -61.9629 C 61.2305 -61.9629 57.959 -59.1797 57.959 -54.7363 C 57.959 -50.293 61.1816 -47.5098 66.1133 -47.5098 L 73.3398 -47.5098 L 79.6875 -48.584 L 71.6797 -41.7969 L 54.0527 -24.1699 C 52.3926 -22.5098 51.3672 -20.166 51.3672 -17.9199 C 51.3672 -12.8418 55.2734 -9.42383 60.0098 -9.42383 C 62.4023 -9.42383 64.502 -10.2539 66.5527 -12.2559 L 83.9355 -29.541 L 90.6738 -37.5 L 89.7949 -30.957 L 89.7949 -24.2676 C 89.7949 -19.2383 92.5293 -16.0156 97.0215 -16.0156 Z"/>
  </g>
  <g id="Heavy-L" transform="matrix(1 0 0 1 2559.93 1556)">
   <path d="M 38.8184 25.4883 L 114.697 25.4883 C 129.346 25.4883 137.451 17.4316 137.451 2.88086 L 137.451 -73.2422 C 137.451 -87.793 129.346 -95.8496 114.697 -95.8496 L 38.8184 -95.8496 C 24.2188 -95.8496 16.0645 -87.793 16.0645 -73.2422 L 16.0645 2.88086 C 16.0645 17.4316 24.2188 25.4883 38.8184 25.4883 Z M 40.918 8.00781 C 36.084 8.00781 33.5938 5.71289 33.5938 0.585938 L 33.5938 -70.9473 C 33.5938 -76.0742 36.084 -78.3691 40.918 -78.3691 L 112.549 -78.3691 C 117.383 -78.3691 119.922 -76.0742 119.922 -70.9473 L 119.922 0.585938 C 119.922 5.71289 117.383 8.00781 112.549 8.00781 Z M 96.2402 -16.9434 C 100.195 -16.9434 102.686 -19.8242 102.686 -24.1699 L 102.686 -52.5879 C 102.686 -58.3008 99.3652 -61.377 93.7988 -61.377 L 65.2832 -61.377 C 60.8398 -61.377 58.0078 -58.8867 58.0078 -54.9316 C 58.0078 -50.9277 60.8398 -48.4863 65.2344 -48.4863 L 74.0234 -48.4863 L 81.0059 -49.4629 L 72.7539 -42.2852 L 53.2227 -22.7539 C 51.7578 -21.2891 50.8789 -19.2383 50.8789 -17.2852 C 50.8789 -12.793 54.248 -9.86328 58.3984 -9.86328 C 60.5469 -9.86328 62.4023 -10.5957 64.1602 -12.2559 L 83.4961 -31.5918 L 90.625 -39.7461 L 89.7461 -32.373 L 89.7461 -24.2188 C 89.7461 -19.7754 92.2363 -16.9434 96.2402 -16.9434 Z"/>
  </g>
  <g id="Bold-L" transform="matrix(1 0 0 1 2264.37 1556)">
   <path d="M 37.5 24.3652 L 113.721 24.3652 C 127.637 24.3652 135.156 16.8945 135.156 3.07617 L 135.156 -73.3887 C 135.156 -87.207 127.637 -94.7266 113.721 -94.7266 L 37.5 -94.7266 C 23.6328 -94.7266 16.0645 -87.2559 16.0645 -73.3887 L 16.0645 3.07617 C 16.0645 16.8945 23.6328 24.3652 37.5 24.3652 Z M 38.9648 9.91211 C 33.4473 9.91211 30.5176 7.17773 30.5176 1.41602 L 30.5176 -71.7285 C 30.5176 -77.5391 33.4473 -80.2734 38.9648 -80.2734 L 112.256 -80.2734 C 117.725 -80.2734 120.703 -77.5391 120.703 -71.7285 L 120.703 1.41602 C 120.703 7.17773 117.725 9.91211 112.256 9.91211 Z M 95.3613 -17.9688 C 98.7793 -17.9688 100.928 -20.459 100.928 -24.2188 L 100.928 -53.418 C 100.928 -58.252 98.1445 -60.6934 93.6035 -60.6934 L 64.2578 -60.6934 C 60.4492 -60.6934 58.0078 -58.5449 58.0078 -55.127 C 58.0078 -51.709 60.4492 -49.5117 64.209 -49.5117 L 74.7559 -49.5117 L 82.5195 -50.4395 L 74.0234 -42.8223 L 52.3438 -21.1426 C 51.0742 -19.9219 50.293 -18.2129 50.293 -16.5527 C 50.293 -12.793 53.0762 -10.3027 56.6406 -10.3027 C 58.4961 -10.3027 60.0586 -10.9375 61.4746 -12.3047 L 83.0078 -33.8379 L 90.5762 -42.2852 L 89.7461 -33.9355 L 89.7461 -24.1699 C 89.7461 -20.4102 91.8945 -17.9688 95.3613 -17.9688 Z"/>
  </g>
  <g id="Semibold-L" transform="matrix(1 0 0 1 1968.44 1556)">
   <path d="M 36.6211 23.584 L 113.037 23.584 C 126.514 23.584 133.594 16.5039 133.594 3.17383 L 133.594 -73.5352 C 133.594 -86.8164 126.514 -93.9453 113.037 -93.9453 L 36.6211 -93.9453 C 23.1934 -93.9453 16.0645 -86.8652 16.0645 -73.5352 L 16.0645 3.17383 C 16.0645 16.5527 23.1934 23.584 36.6211 23.584 Z M 37.5977 11.2793 C 31.6406 11.2793 28.418 8.20312 28.418 1.95312 L 28.418 -72.3145 C 28.418 -78.5156 31.6406 -81.5918 37.5977 -81.5918 L 112.061 -81.5918 C 117.969 -81.5918 121.24 -78.5156 121.24 -72.3145 L 121.24 1.95312 C 121.24 8.20312 117.969 11.2793 112.061 11.2793 Z M 94.7266 -18.6523 C 97.7539 -18.6523 99.707 -20.8984 99.707 -24.2188 L 99.707 -54.0039 C 99.707 -58.2031 97.3145 -60.2539 93.457 -60.2539 L 63.5254 -60.2539 C 60.1562 -60.2539 58.0566 -58.3008 58.0566 -55.2734 C 58.0566 -52.1973 60.2051 -50.2441 63.5254 -50.2441 L 75.2441 -50.2441 L 83.5449 -51.123 L 74.8535 -43.2129 L 51.6602 -20.0195 C 50.6348 -18.9941 49.9512 -17.5293 49.9512 -16.0645 C 49.9512 -12.793 52.2461 -10.5957 55.3711 -10.5957 C 57.0801 -10.5957 58.3984 -11.1816 59.5703 -12.3535 L 82.666 -35.4004 L 90.5273 -43.9941 L 89.7461 -35.0098 L 89.7461 -24.1699 C 89.7461 -20.8008 91.6992 -18.6523 94.7266 -18.6523 Z"/>
  </g>
  <g id="Medium-L" transform="matrix(1 0 0 1 1672.31 1556)">
   <path d="M 35.9375 22.998 L 112.5 22.998 C 125.635 22.998 132.422 16.2109 132.422 3.27148 L 132.422 -73.6328 C 132.422 -86.5234 125.635 -93.3105 112.5 -93.3105 L 35.9375 -93.3105 C 22.9004 -93.3105 16.0645 -86.5723 16.0645 -73.6328 L 16.0645 3.27148 C 16.0645 16.2598 22.9004 22.998 35.9375 22.998 Z M 36.5723 12.2559 C 30.2246 12.2559 26.8066 8.98438 26.8066 2.39258 L 26.8066 -72.7051 C 26.8066 -79.2969 30.2246 -82.6172 36.5723 -82.6172 L 111.865 -82.6172 C 118.115 -82.6172 121.68 -79.2969 121.68 -72.7051 L 121.68 2.39258 C 121.68 8.98438 118.115 12.2559 111.865 12.2559 Z M 94.2871 -19.1895 C 97.0215 -19.1895 98.8281 -21.2402 98.8281 -24.2188 L 98.8281 -54.4434 C 98.8281 -58.1543 96.7285 -59.8633 93.3105 -59.8633 L 62.9395 -59.8633 C 59.9609 -59.8633 58.0566 -58.1055 58.0566 -55.3711 C 58.0566 -52.5879 60.0098 -50.8301 62.9883 -50.8301 L 75.6348 -50.8301 L 84.3262 -51.6602 L 75.4883 -43.5059 L 51.2207 -19.1895 C 50.2441 -18.2617 49.6582 -16.9922 49.6582 -15.6738 C 49.6582 -12.7441 51.6602 -10.8398 54.4434 -10.8398 C 56.0059 -10.8398 57.1777 -11.377 58.2031 -12.4023 L 82.4219 -36.6211 L 90.4785 -45.3125 L 89.6973 -35.8398 L 89.6973 -24.1211 C 89.6973 -21.1426 91.5039 -19.1895 94.2871 -19.1895 Z"/>
  </g>
  <g id="Regular-L" transform="matrix(1 0 0 1 1376.38 1556)">
   <path d="M 35.0586 22.2168 L 111.816 22.2168 C 124.463 22.2168 130.859 15.8691 130.859 3.41797 L 130.859 -73.7305 C 130.859 -86.1816 124.463 -92.5293 111.816 -92.5293 L 35.0586 -92.5293 C 22.4609 -92.5293 16.0645 -86.2305 16.0645 -73.7305 L 16.0645 3.41797 C 16.0645 15.918 22.4609 22.2168 35.0586 22.2168 Z M 35.2539 13.5742 C 28.418 13.5742 24.707 9.96094 24.707 2.97852 L 24.707 -73.291 C 24.707 -80.2734 28.418 -83.8867 35.2539 -83.8867 L 111.67 -83.8867 C 118.359 -83.8867 122.217 -80.2734 122.217 -73.291 L 122.217 2.97852 C 122.217 9.96094 118.359 13.5742 111.67 13.5742 Z M 93.7012 -19.9219 C 96.0449 -19.9219 97.6562 -21.6797 97.6562 -24.2188 L 97.6562 -54.9805 C 97.6562 -58.1543 95.8984 -59.4238 93.2129 -59.4238 L 62.207 -59.4238 C 59.7168 -59.4238 58.0566 -57.8613 58.0566 -55.5176 C 58.0566 -53.125 59.7656 -51.5137 62.3047 -51.5137 L 76.1719 -51.5137 L 85.3516 -52.2949 L 76.3672 -43.8965 L 50.5859 -18.1152 C 49.8047 -17.334 49.2676 -16.3086 49.2676 -15.1855 C 49.2676 -12.7441 50.8301 -11.1816 53.2227 -11.1816 C 54.5898 -11.1816 55.5664 -11.6699 56.3477 -12.4023 L 82.0801 -38.1348 L 90.4297 -47.0703 L 89.6973 -36.8652 L 89.6973 -24.1211 C 89.6973 -21.5332 91.3086 -19.9219 93.7012 -19.9219 Z"/>
  </g>
  <g id="Light-L" transform="matrix(1 0 0 1 1080.5 1556)">
   <path d="M 34.0332 21.4355 L 111.23 21.4355 C 123.096 21.4355 129.199 15.2344 129.199 3.56445 L 129.199 -73.8281 C 129.199 -85.5469 123.096 -91.6992 111.23 -91.6992 L 34.0332 -91.6992 C 22.168 -91.6992 16.0645 -85.6445 16.0645 -73.8281 L 16.0645 3.56445 C 16.0645 15.3809 22.168 21.4355 34.0332 21.4355 Z M 34.1797 14.7949 C 26.709 14.7949 22.7051 10.8398 22.7051 3.22266 L 22.7051 -73.4863 C 22.7051 -81.1523 26.709 -85.0586 34.1797 -85.0586 L 111.035 -85.0586 C 118.359 -85.0586 122.559 -81.1523 122.559 -73.4863 L 122.559 3.22266 C 122.559 10.8398 118.359 14.7949 111.035 14.7949 Z M 93.457 -20.2148 C 95.3125 -20.2148 96.5332 -21.582 96.5332 -23.584 L 96.5332 -55.8105 C 96.5332 -58.1543 95.2148 -59.1797 93.1641 -59.1797 L 60.7422 -59.1797 C 58.7891 -59.1797 57.5195 -58.0078 57.5195 -56.2012 C 57.5195 -54.3457 58.8379 -53.125 60.8398 -53.125 L 77.8809 -53.125 L 86.8652 -53.6133 L 79.0039 -46.1426 L 49.7559 -16.8945 C 49.1211 -16.2598 48.7305 -15.4785 48.7305 -14.5996 C 48.7305 -12.6953 49.9512 -11.4746 51.8066 -11.4746 C 52.8809 -11.4746 53.6621 -11.8652 54.248 -12.4512 L 83.4473 -41.6504 L 90.8691 -49.4629 L 90.3809 -38.8184 L 90.3809 -23.4863 C 90.3809 -21.4844 91.6016 -20.2148 93.457 -20.2148 Z"/>
  </g>
  <g id="Thin-L" transform="matrix(1 0 0 1 784.889 1556)">
   <path d="M 32.666 20.3613 L 110.352 20.3613 C 121.24 20.3613 127.002 14.4531 127.002 3.75977 L 127.002 -73.9746 C 127.002 -84.7168 121.24 -90.5762 110.352 -90.5762 L 32.666 -90.5762 C 21.7773 -90.5762 16.0645 -84.8633 16.0645 -73.9746 L 16.0645 3.75977 C 16.0645 14.6484 21.7773 20.3613 32.666 20.3613 Z M 32.8125 16.4062 C 24.4141 16.4062 19.9707 12.0117 19.9707 3.56445 L 19.9707 -73.7793 C 19.9707 -82.2754 24.4141 -86.6699 32.8125 -86.6699 L 110.205 -86.6699 C 118.359 -86.6699 123.047 -82.2754 123.047 -73.7793 L 123.047 3.56445 C 123.047 12.0117 118.359 16.4062 110.205 16.4062 Z M 93.2129 -20.6543 C 94.2871 -20.6543 95.0684 -21.4844 95.0684 -22.7051 L 95.0684 -56.9336 C 95.0684 -58.2031 94.2871 -58.8867 93.1641 -58.8867 L 58.8379 -58.8867 C 57.5684 -58.8867 56.8359 -58.2031 56.8359 -57.1289 C 56.8359 -56.0059 57.6172 -55.2246 58.8379 -55.2246 L 80.1758 -55.2246 L 88.916 -55.3223 L 82.4707 -49.1211 L 48.6328 -15.2832 C 48.2422 -14.8926 47.998 -14.4043 47.998 -13.7695 C 47.998 -12.5977 48.7305 -11.8652 49.9023 -11.8652 C 50.6348 -11.8652 51.123 -12.1094 51.5137 -12.5 L 85.2539 -46.2891 L 91.4062 -52.6855 L 91.3086 -41.3574 L 91.3086 -22.7051 C 91.3086 -21.4355 92.041 -20.6543 93.2129 -20.6543 Z"/>
  </g>
  <g id="Ultralight-L" transform="matrix(1 0 0 1 488.739 1556)">
   <path d="M 31.9824 19.7754 L 109.961 19.7754 C 120.312 19.7754 125.879 14.0625 125.879 3.85742 L 125.879 -74.0723 C 125.879 -84.2773 120.312 -89.9902 109.961 -89.9902 L 31.9824 -89.9902 C 21.582 -89.9902 16.0645 -84.4727 16.0645 -74.0723 L 16.0645 3.85742 C 16.0645 14.2578 21.582 19.7754 31.9824 19.7754 Z M 32.1289 17.2363 C 23.1934 17.2363 18.6035 12.6465 18.6035 3.75977 L 18.6035 -73.9258 C 18.6035 -82.8125 23.1934 -87.4512 32.1289 -87.4512 L 109.766 -87.4512 C 118.359 -87.4512 123.291 -82.8125 123.291 -73.9258 L 123.291 3.75977 C 123.291 12.6465 118.359 17.2363 109.766 17.2363 Z M 93.0664 -20.8984 C 93.7988 -20.8984 94.2871 -21.3867 94.2871 -22.2656 L 94.2871 -57.5195 C 94.2871 -58.2031 93.7988 -58.7402 93.1152 -58.7402 L 57.8613 -58.7402 C 56.9824 -58.7402 56.4453 -58.3008 56.4453 -57.6172 C 56.4453 -56.8359 56.9824 -56.2988 57.8125 -56.2988 L 81.2988 -56.2988 L 89.9414 -56.2012 L 84.2773 -50.6348 L 48.0957 -14.4531 C 47.8027 -14.1602 47.6074 -13.8672 47.6074 -13.3789 C 47.6074 -12.5488 48.1445 -12.0605 48.9258 -12.0605 C 49.4629 -12.0605 49.8047 -12.2559 50.0977 -12.5 L 86.1816 -48.6328 L 91.6504 -54.2969 L 91.748 -42.6758 L 91.748 -22.2656 C 91.748 -21.4355 92.2852 -20.8984 93.0664 -20.8984 Z"/>
  </g>
  <g id="Black-M" transform="matrix(1 0 0 1 2872.19 1126)">
   <path d="M 31.9824 13.5742 L 90.4297 13.5742 C 102.686 13.5742 109.961 6.29883 109.961 -5.95703 L 109.961 -64.4043 C 109.961 -76.6602 102.686 -83.9355 90.4297 -83.9355 L 31.9824 -83.9355 C 19.7266 -83.9355 12.4512 -76.6602 12.4512 -64.4043 L 12.4512 -5.95703 C 12.4512 6.29883 19.7266 13.5742 31.9824 13.5742 Z M 34.9121 -4.73633 C 32.0801 -4.73633 30.7617 -5.81055 30.7617 -8.88672 L 30.7617 -61.4746 C 30.7617 -64.5508 32.0801 -65.6738 34.9121 -65.6738 L 87.5 -65.6738 C 90.332 -65.6738 91.6504 -64.5508 91.6504 -61.4746 L 91.6504 -8.88672 C 91.6504 -5.81055 90.332 -4.73633 87.5 -4.73633 Z M 76.123 -19.2871 C 79.9805 -19.2871 82.2754 -22.0215 82.2754 -26.3184 L 82.2754 -47.5586 C 82.2754 -53.2227 78.9062 -56.6406 73.0957 -56.6406 L 51.8555 -56.6406 C 47.4609 -56.6406 44.6289 -54.2969 44.6289 -50.4883 C 44.6289 -46.6309 47.3633 -44.3359 51.6602 -44.3359 L 56.8359 -44.3359 L 60.7422 -45.0684 L 55.4688 -40.8691 L 42.5781 -27.9297 C 41.0645 -26.416 40.1855 -24.3652 40.1855 -22.3633 C 40.1855 -17.8711 43.7988 -14.8438 47.8516 -14.8438 C 49.9512 -14.8438 51.8555 -15.5273 53.7109 -17.3828 L 66.3574 -29.9316 L 70.6055 -35.2539 L 69.9707 -31.0547 L 69.9707 -26.4648 C 69.9707 -22.1191 72.3145 -19.2871 76.123 -19.2871 Z"/>
  </g>
  <g id="Heavy-M" transform="matrix(1 0 0 1 2576.39 1126)">
   <path d="M 31.0059 12.6465 L 89.6484 12.6465 C 101.416 12.6465 108.154 5.9082 108.154 -5.81055 L 108.154 -64.5508 C 108.154 -76.2695 101.416 -83.0566 89.6484 -83.0566 L 31.0059 -83.0566 C 19.2383 -83.0566 12.4512 -76.3184 12.4512 -64.5508 L 12.4512 -5.81055 C 12.4512 5.9082 19.2383 12.6465 31.0059 12.6465 Z M 33.252 -3.17383 C 29.9316 -3.17383 28.2715 -4.63867 28.2715 -8.1543 L 28.2715 -62.207 C 28.2715 -65.7715 29.9316 -67.2363 33.252 -67.2363 L 87.3535 -67.2363 C 90.6738 -67.2363 92.334 -65.7715 92.334 -62.207 L 92.334 -8.1543 C 92.334 -4.63867 90.6738 -3.17383 87.3535 -3.17383 Z M 75.3418 -20.2148 C 78.7598 -20.2148 80.8594 -22.7051 80.8594 -26.5137 L 80.8594 -48.1445 C 80.8594 -53.1738 77.8809 -56.0547 72.9004 -56.0547 L 51.1719 -56.0547 C 47.2656 -56.0547 44.7754 -53.9062 44.7754 -50.4883 C 44.7754 -47.0703 47.2656 -44.9219 51.0742 -44.9219 L 57.1289 -44.9219 L 61.8164 -45.7031 L 56.0059 -40.8203 L 41.8945 -26.709 C 40.5762 -25.3906 39.7949 -23.584 39.7949 -21.7773 C 39.7949 -17.8711 42.8711 -15.2344 46.4844 -15.2344 C 48.3887 -15.2344 50.0488 -15.8691 51.6602 -17.3828 L 65.5273 -31.25 L 70.4102 -37.0605 L 69.7754 -32.0801 L 69.7754 -26.5625 C 69.7754 -22.7051 71.875 -20.2148 75.3418 -20.2148 Z"/>
  </g>
  <g id="Bold-M" transform="matrix(1 0 0 1 2280.68 1126)">
   <path d="M 29.8828 11.6699 L 88.7207 11.6699 C 99.9512 11.6699 106.152 5.46875 106.152 -5.66406 L 106.152 -64.6973 C 106.152 -75.8789 99.9512 -82.0312 88.7207 -82.0312 L 29.8828 -82.0312 C 18.6523 -82.0312 12.4512 -75.8789 12.4512 -64.6973 L 12.4512 -5.66406 C 12.4512 5.51758 18.6523 11.6699 29.8828 11.6699 Z M 31.3965 -1.41602 C 27.5391 -1.41602 25.5371 -3.27148 25.5371 -7.32422 L 25.5371 -63.0371 C 25.5371 -67.1387 27.5391 -68.9453 31.3965 -68.9453 L 87.207 -68.9453 C 91.0156 -68.9453 93.0664 -67.1387 93.0664 -63.0371 L 93.0664 -7.32422 C 93.0664 -3.27148 91.0156 -1.41602 87.207 -1.41602 Z M 74.4141 -21.2402 C 77.4414 -21.2402 79.2969 -23.4375 79.2969 -26.709 L 79.2969 -48.8281 C 79.2969 -53.0762 76.8066 -55.3711 72.6562 -55.3711 L 50.4395 -55.3711 C 47.1191 -55.3711 44.9707 -53.5156 44.9707 -50.4883 C 44.9707 -47.5098 47.1191 -45.6543 50.3906 -45.6543 L 57.4707 -45.6543 L 63.0371 -46.3867 L 56.5918 -40.7715 L 41.1133 -25.293 C 40.0391 -24.2188 39.3555 -22.7051 39.3555 -21.1914 C 39.3555 -17.8711 41.8457 -15.625 44.9707 -15.625 C 46.6309 -15.625 47.998 -16.2109 49.3164 -17.4316 L 64.5996 -32.7148 L 70.2148 -39.1113 L 69.5801 -33.252 L 69.5801 -26.709 C 69.5801 -23.3887 71.4355 -21.2402 74.4141 -21.2402 Z"/>
  </g>
  <g id="Semibold-M" transform="matrix(1 0 0 1 1984.65 1126)">
   <path d="M 29.1016 10.9863 L 88.0859 10.9863 C 98.9746 10.9863 104.785 5.17578 104.785 -5.56641 L 104.785 -64.8438 C 104.785 -75.5859 98.9746 -81.3477 88.0859 -81.3477 L 29.1016 -81.3477 C 18.2617 -81.3477 12.4512 -75.5859 12.4512 -64.8438 L 12.4512 -5.56641 C 12.4512 5.22461 18.2617 10.9863 29.1016 10.9863 Z M 30.127 -0.195312 C 25.8789 -0.195312 23.6328 -2.34375 23.6328 -6.78711 L 23.6328 -63.623 C 23.6328 -68.0664 25.8789 -70.166 30.127 -70.166 L 87.1094 -70.166 C 91.2598 -70.166 93.6035 -68.0664 93.6035 -63.623 L 93.6035 -6.78711 C 93.6035 -2.34375 91.2598 -0.195312 87.1094 -0.195312 Z M 73.8281 -21.9238 C 76.5137 -21.9238 78.2227 -23.9258 78.2227 -26.8066 L 78.2227 -49.2676 C 78.2227 -53.0273 76.0254 -54.9316 72.5098 -54.9316 L 49.9512 -54.9316 C 46.9727 -54.9316 45.0684 -53.2227 45.0684 -50.5371 C 45.0684 -47.8516 47.0215 -46.1426 49.9512 -46.1426 L 57.666 -46.1426 L 63.8184 -46.875 L 56.9824 -40.7227 L 40.5762 -24.3164 C 39.6484 -23.3887 39.0137 -22.0703 39.0137 -20.752 C 39.0137 -17.8223 41.1621 -15.918 43.9453 -15.918 C 45.4102 -15.918 46.6309 -16.4062 47.6562 -17.4805 L 63.9648 -33.7402 L 70.1172 -40.5273 L 69.3848 -34.0332 L 69.3848 -26.8066 C 69.3848 -23.8281 71.0938 -21.9238 73.8281 -21.9238 Z"/>
  </g>
  <g id="Medium-M" transform="matrix(1 0 0 1 1688.47 1126)">
   <path d="M 28.5156 10.4492 L 87.6465 10.4492 C 98.2422 10.4492 103.711 4.98047 103.711 -5.46875 L 103.711 -64.8926 C 103.711 -75.3418 98.2422 -80.8105 87.6465 -80.8105 L 28.5156 -80.8105 C 17.9688 -80.8105 12.4512 -75.3906 12.4512 -64.8926 L 12.4512 -5.46875 C 12.4512 4.98047 17.9688 10.4492 28.5156 10.4492 Z M 29.1504 0.732422 C 24.6582 0.732422 22.168 -1.61133 22.168 -6.34766 L 22.168 -64.0137 C 22.168 -68.75 24.6582 -71.0938 29.1504 -71.0938 L 87.0117 -71.0938 C 91.4551 -71.0938 93.9941 -68.75 93.9941 -64.0137 L 93.9941 -6.34766 C 93.9941 -1.61133 91.4551 0.732422 87.0117 0.732422 Z M 73.3398 -22.4609 C 75.7812 -22.4609 77.3926 -24.2676 77.3926 -26.9043 L 77.3926 -49.6094 C 77.3926 -53.0273 75.4883 -54.541 72.4121 -54.541 L 49.5605 -54.541 C 46.9238 -54.541 45.166 -52.9785 45.166 -50.5371 C 45.166 -48.0469 46.9238 -46.4844 49.6094 -46.4844 L 57.8613 -46.4844 L 64.4531 -47.2656 L 57.2754 -40.6738 L 40.1855 -23.584 C 39.3555 -22.7539 38.8184 -21.6309 38.8184 -20.459 C 38.8184 -17.8223 40.625 -16.1133 43.1152 -16.1133 C 44.4824 -16.1133 45.5566 -16.6016 46.4355 -17.4805 L 63.4766 -34.5215 L 70.0195 -41.6016 L 69.2871 -34.6191 L 69.2871 -26.8555 C 69.2871 -24.1699 70.8984 -22.4609 73.3398 -22.4609 Z"/>
  </g>
  <g id="Regular-M" transform="matrix(1 0 0 1 1392.45 1126)">
   <path d="M 27.7832 9.76562 L 87.0117 9.76562 C 97.2656 9.76562 102.344 4.6875 102.344 -5.37109 L 102.344 -64.9902 C 102.344 -75.0488 97.2656 -80.127 87.0117 -80.127 L 27.7832 -80.127 C 17.5781 -80.127 12.4512 -75.0977 12.4512 -64.9902 L 12.4512 -5.37109 C 12.4512 4.73633 17.5781 9.76562 27.7832 9.76562 Z M 27.8809 1.9043 C 22.998 1.9043 20.3125 -0.683594 20.3125 -5.76172 L 20.3125 -64.5996 C 20.3125 -69.6777 22.998 -72.2656 27.8809 -72.2656 L 86.9141 -72.2656 C 91.748 -72.2656 94.4824 -69.6777 94.4824 -64.5996 L 94.4824 -5.76172 C 94.4824 -0.683594 91.748 1.9043 86.9141 1.9043 Z M 72.7051 -23.1445 C 74.8535 -23.1445 76.3184 -24.8047 76.3184 -27.0508 L 76.3184 -50.0977 C 76.3184 -52.9785 74.707 -54.1016 72.2168 -54.1016 L 49.0723 -54.1016 C 46.7773 -54.1016 45.3125 -52.6855 45.3125 -50.5371 C 45.3125 -48.3887 46.8262 -46.9727 49.1699 -46.9727 L 58.0566 -46.9727 L 65.2832 -47.7539 L 57.666 -40.6738 L 39.6484 -22.6562 C 38.9648 -21.9727 38.5254 -20.9961 38.5254 -20.0195 C 38.5254 -17.8223 39.9414 -16.4062 42.0898 -16.4062 C 43.2617 -16.4062 44.1895 -16.8457 44.873 -17.5293 L 62.8418 -35.498 L 69.873 -43.0176 L 69.1406 -35.4004 L 69.1406 -26.9531 C 69.1406 -24.6582 70.5566 -23.1445 72.7051 -23.1445 Z"/>
  </g>
  <g id="Light-M" transform="matrix(1 0 0 1 1096.47 1126)">
   <path d="M 26.8555 9.0332 L 86.4746 9.0332 C 95.9961 9.0332 100.879 4.15039 100.879 -5.22461 L 100.879 -65.0879 C 100.879 -74.5117 95.9961 -79.3945 86.4746 -79.3945 L 26.8555 -79.3945 C 17.334 -79.3945 12.4512 -74.5605 12.4512 -65.0879 L 12.4512 -5.22461 C 12.4512 4.19922 17.334 9.0332 26.8555 9.0332 Z M 26.9531 2.97852 C 21.4844 2.97852 18.5059 0.0976562 18.5059 -5.56641 L 18.5059 -64.7949 C 18.5059 -70.4102 21.4844 -73.3398 26.9531 -73.3398 L 86.3281 -73.3398 C 91.748 -73.3398 94.8242 -70.4102 94.8242 -64.7949 L 94.8242 -5.56641 C 94.8242 0.0976562 91.748 2.97852 86.3281 2.97852 Z M 72.5586 -23.4863 C 74.2188 -23.4863 75.293 -24.707 75.293 -26.4648 L 75.293 -50.8301 C 75.293 -52.9785 74.1211 -53.9062 72.2168 -53.9062 L 47.7539 -53.9062 C 45.9473 -53.9062 44.8242 -52.832 44.8242 -51.1719 C 44.8242 -49.5117 45.9961 -48.3887 47.8027 -48.3887 L 59.5703 -48.3887 L 66.6504 -48.877 L 60.0586 -42.6758 L 38.916 -21.5332 C 38.3789 -20.9961 37.9883 -20.2637 37.9883 -19.4824 C 37.9883 -17.7734 39.1113 -16.6504 40.8203 -16.6504 C 41.748 -16.6504 42.4316 -17.041 42.9688 -17.5781 L 64.0625 -38.623 L 70.2148 -45.166 L 69.7266 -37.1582 L 69.7266 -26.416 C 69.7266 -24.6094 70.8496 -23.4863 72.5586 -23.4863 Z"/>
  </g>
  <g id="Thin-M" transform="matrix(1 0 0 1 800.758 1126)">
   <path d="M 25.6348 8.05664 L 85.7422 8.05664 C 94.3848 8.05664 98.877 3.4668 98.877 -5.0293 L 98.877 -65.2344 C 98.877 -73.7305 94.3848 -78.3691 85.7422 -78.3691 L 25.6348 -78.3691 C 16.9922 -78.3691 12.4512 -73.877 12.4512 -65.2344 L 12.4512 -5.0293 C 12.4512 3.56445 16.9922 8.05664 25.6348 8.05664 Z M 25.7324 4.44336 C 19.3848 4.44336 16.0645 1.12305 16.0645 -5.22461 L 16.0645 -65.0391 C 16.0645 -71.4355 19.3848 -74.7559 25.7324 -74.7559 L 85.5957 -74.7559 C 91.748 -74.7559 95.2637 -71.4355 95.2637 -65.0391 L 95.2637 -5.22461 C 95.2637 1.12305 91.748 4.44336 85.5957 4.44336 Z M 72.3145 -23.877 C 73.291 -23.877 73.9746 -24.6094 73.9746 -25.7324 L 73.9746 -51.8066 C 73.9746 -53.0273 73.2422 -53.6621 72.2168 -53.6621 L 45.9961 -53.6621 C 44.9219 -53.6621 44.1895 -52.9785 44.1895 -52.002 C 44.1895 -50.9766 44.9219 -50.2441 46.0449 -50.2441 L 61.6211 -50.2441 L 68.457 -50.4395 L 63.1836 -45.3613 L 37.9395 -20.1172 C 37.5977 -19.7754 37.3535 -19.3359 37.3535 -18.75 C 37.3535 -17.7246 38.0371 -17.041 39.1113 -17.041 C 39.7461 -17.041 40.1855 -17.2363 40.5273 -17.5781 L 65.6738 -42.7734 L 70.7031 -48.0469 L 70.5566 -39.4043 L 70.5566 -25.6836 C 70.5566 -24.5605 71.2402 -23.877 72.3145 -23.877 Z"/>
  </g>
  <g id="Ultralight-M" transform="matrix(1 0 0 1 504.535 1126)">
   <path d="M 25 7.56836 L 85.3516 7.56836 C 93.5059 7.56836 97.9004 3.125 97.9004 -4.98047 L 97.9004 -65.2832 C 97.9004 -73.3887 93.5059 -77.832 85.3516 -77.832 L 25 -77.832 C 16.7969 -77.832 12.4512 -73.4863 12.4512 -65.2832 L 12.4512 -4.98047 C 12.4512 3.22266 16.7969 7.56836 25 7.56836 Z M 25.0977 5.17578 C 18.3594 5.17578 14.8438 1.66016 14.8438 -5.07812 L 14.8438 -65.1855 C 14.8438 -71.9727 18.3594 -75.4395 25.0977 -75.4395 L 85.2051 -75.4395 C 91.748 -75.4395 95.5078 -71.9727 95.5078 -65.1855 L 95.5078 -5.07812 C 95.5078 1.66016 91.748 5.17578 85.2051 5.17578 Z M 72.168 -24.0723 C 72.8516 -24.0723 73.3398 -24.5605 73.3398 -25.3418 L 73.3398 -52.2949 C 73.3398 -53.0273 72.8516 -53.5156 72.168 -53.5156 L 45.1172 -53.5156 C 44.3359 -53.5156 43.8477 -53.0762 43.8477 -52.4414 C 43.8477 -51.709 44.3359 -51.2207 45.1172 -51.2207 L 69.3848 -51.2207 L 64.7949 -46.7285 L 37.4512 -19.3848 C 37.207 -19.1406 37.0117 -18.8477 37.0117 -18.4082 C 37.0117 -17.6758 37.5 -17.1875 38.2324 -17.1875 C 38.7207 -17.1875 39.0137 -17.3828 39.2578 -17.627 L 66.5039 -44.9219 L 70.9473 -49.5117 L 70.9961 -40.5762 L 70.9961 -25.3418 C 70.9961 -24.5605 71.4355 -24.0723 72.168 -24.0723 Z"/>
  </g>
  <g id="Black-S" transform="matrix(1 0 0 1 2885.5 696)">
   <path d="M 25 2.92969 L 70.8008 2.92969 C 80.3711 2.92969 86.0352 -2.73438 86.0352 -12.3047 L 86.0352 -58.1055 C 86.0352 -67.6758 80.3711 -73.3398 70.8008 -73.3398 L 25 -73.3398 C 15.4297 -73.3398 9.76562 -67.6758 9.76562 -58.1055 L 9.76562 -12.3047 C 9.76562 -2.73438 15.4297 2.92969 25 2.92969 Z M 27.2461 -11.2305 C 25 -11.2305 23.9258 -12.1094 23.9258 -14.5508 L 23.9258 -55.8594 C 23.9258 -58.3008 25 -59.1797 27.2461 -59.1797 L 68.5547 -59.1797 C 70.8008 -59.1797 71.875 -58.3008 71.875 -55.8594 L 71.875 -14.5508 C 71.875 -12.1094 70.8008 -11.2305 68.5547 -11.2305 Z M 59.5703 -22.8027 C 62.5488 -22.8027 64.3555 -24.9512 64.3555 -28.2715 L 64.3555 -44.9219 C 64.3555 -49.3164 61.7188 -51.9531 57.2266 -51.9531 L 40.5762 -51.9531 C 37.1582 -51.9531 34.9609 -50.1465 34.9609 -47.168 C 34.9609 -44.1895 37.1094 -42.3828 40.4297 -42.3828 L 44.5312 -42.3828 L 47.6562 -42.9688 L 43.457 -39.5996 L 33.3008 -29.4434 C 32.1289 -28.2715 31.4453 -26.6602 31.4453 -25.0977 C 31.4453 -21.6309 34.2285 -19.2871 37.4023 -19.2871 C 39.0137 -19.2871 40.4785 -19.8242 41.9434 -21.2402 L 51.9043 -31.1523 L 55.2734 -35.3516 L 54.7852 -32.0312 L 54.7852 -28.3691 C 54.7852 -25 56.5918 -22.8027 59.5703 -22.8027 Z"/>
  </g>
  <g id="Heavy-S" transform="matrix(1 0 0 1 2589.4 696)">
   <path d="M 24.3652 2.34375 L 70.2637 2.34375 C 79.541 2.34375 84.8145 -2.97852 84.8145 -12.207 L 84.8145 -58.2031 C 84.8145 -67.4316 79.541 -72.7539 70.2637 -72.7539 L 24.3652 -72.7539 C 15.0879 -72.7539 9.76562 -67.4316 9.76562 -58.2031 L 9.76562 -12.207 C 9.76562 -2.97852 15.0879 2.34375 24.3652 2.34375 Z M 26.0742 -10.1562 C 23.5352 -10.1562 22.2656 -11.2793 22.2656 -14.0137 L 22.2656 -56.3965 C 22.2656 -59.1309 23.5352 -60.2539 26.0742 -60.2539 L 68.5059 -60.2539 C 71.0449 -60.2539 72.3633 -59.1309 72.3633 -56.3965 L 72.3633 -14.0137 C 72.3633 -11.2793 71.0449 -10.1562 68.5059 -10.1562 Z M 58.9844 -23.4863 C 61.7188 -23.4863 63.3789 -25.4395 63.3789 -28.4668 L 63.3789 -45.3125 C 63.3789 -49.2676 61.0352 -51.5137 57.0801 -51.5137 L 40.2344 -51.5137 C 37.1094 -51.5137 35.1562 -49.8535 35.1562 -47.1191 C 35.1562 -44.3848 37.1094 -42.6758 40.1367 -42.6758 L 44.5801 -42.6758 L 48.3398 -43.3105 L 43.6035 -39.3555 L 32.8613 -28.6133 C 31.8359 -27.5879 31.2012 -26.123 31.2012 -24.7559 C 31.2012 -21.6309 33.6426 -19.5312 36.5234 -19.5312 C 37.9883 -19.5312 39.3066 -20.0195 40.5273 -21.2402 L 51.123 -31.7871 L 55.0781 -36.5234 L 54.5898 -32.6172 L 54.5898 -28.5156 C 54.5898 -25.4395 56.25 -23.4863 58.9844 -23.4863 Z"/>
  </g>
  <g id="Bold-S" transform="matrix(1 0 0 1 2293.35 696)">
   <path d="M 23.6328 1.66016 L 69.6289 1.66016 C 78.6133 1.66016 83.4961 -3.22266 83.4961 -12.1094 L 83.4961 -58.3008 C 83.4961 -67.1875 78.6133 -72.0703 69.6289 -72.0703 L 23.6328 -72.0703 C 14.6973 -72.0703 9.76562 -67.1875 9.76562 -58.3008 L 9.76562 -12.1094 C 9.76562 -3.22266 14.6973 1.66016 23.6328 1.66016 Z M 24.8047 -8.93555 C 21.9238 -8.93555 20.3613 -10.3516 20.3613 -13.4277 L 20.3613 -56.9824 C 20.3613 -60.0586 21.9238 -61.4746 24.8047 -61.4746 L 68.457 -61.4746 C 71.3379 -61.4746 72.9004 -60.0586 72.9004 -56.9824 L 72.9004 -13.4277 C 72.9004 -10.3516 71.3379 -8.93555 68.457 -8.93555 Z M 58.3008 -24.2188 C 60.7422 -24.2188 62.3047 -26.0254 62.3047 -28.7109 L 62.3047 -45.7031 C 62.3047 -49.2188 60.3027 -51.0254 56.8848 -51.0254 L 39.7949 -51.0254 C 37.1094 -51.0254 35.3516 -49.5117 35.3516 -47.0703 C 35.3516 -44.5801 37.1094 -43.0664 39.7949 -43.0664 L 44.6289 -43.0664 L 49.0723 -43.7012 L 43.75 -39.0625 L 32.373 -27.6855 C 31.4941 -26.8066 30.9082 -25.5371 30.9082 -24.3652 C 30.9082 -21.6309 32.959 -19.8242 35.498 -19.8242 C 36.8164 -19.8242 37.9395 -20.2637 39.0137 -21.2891 L 50.2441 -32.5195 L 54.9316 -37.793 L 54.2969 -33.3008 L 54.2969 -28.7109 C 54.2969 -25.9766 55.8594 -24.2188 58.3008 -24.2188 Z"/>
  </g>
  <g id="Semibold-S" transform="matrix(1 0 0 1 1997.1 696)">
   <path d="M 23.0957 1.17188 L 69.1895 1.17188 C 77.9297 1.17188 82.5684 -3.36914 82.5684 -12.0117 L 82.5684 -58.3984 C 82.5684 -67.041 77.9297 -71.582 69.1895 -71.582 L 23.0957 -71.582 C 14.4043 -71.582 9.76562 -67.041 9.76562 -58.3984 L 9.76562 -12.0117 C 9.76562 -3.36914 14.4043 1.17188 23.0957 1.17188 Z M 23.877 -8.10547 C 20.752 -8.10547 19.0918 -9.7168 19.0918 -12.9883 L 19.0918 -57.4219 C 19.0918 -60.6934 20.752 -62.3047 23.877 -62.3047 L 68.4082 -62.3047 C 71.5332 -62.3047 73.2422 -60.6934 73.2422 -57.4219 L 73.2422 -12.9883 C 73.2422 -9.7168 71.5332 -8.10547 68.4082 -8.10547 Z M 57.8613 -24.7559 C 60.1074 -24.7559 61.5723 -26.416 61.5723 -28.8574 L 61.5723 -45.9961 C 61.5723 -49.1699 59.7656 -50.6836 56.7871 -50.6836 L 39.5508 -50.6836 C 37.0605 -50.6836 35.498 -49.2676 35.498 -47.0215 C 35.498 -44.7266 37.1094 -43.3105 39.5508 -43.3105 L 44.6777 -43.3105 L 49.5605 -43.9941 L 43.8477 -38.8672 L 32.0312 -27.0508 C 31.25 -26.2207 30.7129 -25.1465 30.7129 -24.0723 C 30.7129 -21.6309 32.4707 -20.0195 34.8145 -20.0195 C 36.0352 -20.0195 37.0117 -20.459 37.9395 -21.2891 L 49.6582 -33.0566 L 54.7852 -38.7207 L 54.1504 -33.7402 L 54.1504 -28.8086 C 54.1504 -26.3184 55.6152 -24.7559 57.8613 -24.7559 Z"/>
  </g>
  <g id="Medium-S" transform="matrix(1 0 0 1 1700.75 696)">
   <path d="M 22.7051 0.830078 L 68.8965 0.830078 C 77.4414 0.830078 81.8359 -3.51562 81.8359 -11.9629 L 81.8359 -58.4473 C 81.8359 -66.8945 77.4414 -71.2402 68.8965 -71.2402 L 22.7051 -71.2402 C 14.209 -71.2402 9.76562 -66.8945 9.76562 -58.4473 L 9.76562 -11.9629 C 9.76562 -3.51562 14.209 0.830078 22.7051 0.830078 Z M 23.1934 -7.4707 C 19.9219 -7.4707 18.0664 -9.22852 18.0664 -12.6953 L 18.0664 -57.7148 C 18.0664 -61.1816 19.9219 -62.9395 23.1934 -62.9395 L 68.4082 -62.9395 C 71.6797 -62.9395 73.5352 -61.1816 73.5352 -57.7148 L 73.5352 -12.6953 C 73.5352 -9.22852 71.6797 -7.4707 68.4082 -7.4707 Z M 57.5195 -25.1465 C 59.6191 -25.1465 60.9863 -26.709 60.9863 -28.9551 L 60.9863 -46.2402 C 60.9863 -49.1699 59.375 -50.4395 56.6895 -50.4395 L 39.3066 -50.4395 C 37.0605 -50.4395 35.5957 -49.0723 35.5957 -46.9727 C 35.5957 -44.873 37.0605 -43.5059 39.3555 -43.5059 L 44.6777 -43.5059 L 49.9512 -44.1895 L 43.8965 -38.6719 L 31.7871 -26.5625 C 31.0547 -25.8301 30.5664 -24.8535 30.5664 -23.877 C 30.5664 -21.6309 32.1289 -20.166 34.2773 -20.166 C 35.4004 -20.166 36.3281 -20.5566 37.1094 -21.3379 L 49.2188 -33.4473 L 54.6875 -39.4043 L 54.0039 -34.082 L 54.0039 -28.9062 C 54.0039 -26.6113 55.3711 -25.1465 57.5195 -25.1465 Z"/>
  </g>
  <g id="Regular-S" transform="matrix(1 0 0 1 1404.51 696)">
   <path d="M 22.2168 0.390625 L 68.457 0.390625 C 76.8066 0.390625 80.9082 -3.71094 80.9082 -11.9141 L 80.9082 -58.4961 C 80.9082 -66.6992 76.8066 -70.8008 68.457 -70.8008 L 22.2168 -70.8008 C 13.916 -70.8008 9.76562 -66.6992 9.76562 -58.4961 L 9.76562 -11.9141 C 9.76562 -3.71094 13.916 0.390625 22.2168 0.390625 Z M 22.3145 -6.68945 C 18.7988 -6.68945 16.7969 -8.54492 16.7969 -12.2559 L 16.7969 -58.1543 C 16.7969 -61.8164 18.7988 -63.7207 22.3145 -63.7207 L 68.3594 -63.7207 C 71.875 -63.7207 73.877 -61.8164 73.877 -58.1543 L 73.877 -12.2559 C 73.877 -8.54492 71.875 -6.68945 68.3594 -6.68945 Z M 57.0312 -25.6348 C 58.9844 -25.6348 60.2539 -27.0996 60.2539 -29.1016 L 60.2539 -46.4844 C 60.2539 -49.1211 58.8379 -50.0977 56.5918 -50.0977 L 39.0625 -50.0977 C 37.0117 -50.0977 35.6934 -48.8281 35.6934 -46.9238 C 35.6934 -45.0195 37.0605 -43.75 39.1602 -43.75 L 44.7266 -43.75 L 50.4395 -44.4824 L 44.043 -38.4766 L 31.4453 -25.9277 C 30.8105 -25.293 30.3711 -24.4629 30.3711 -23.584 C 30.3711 -21.6309 31.6406 -20.3613 33.5938 -20.3613 C 34.6191 -20.3613 35.4492 -20.752 36.0352 -21.3379 L 48.6328 -33.9355 L 54.541 -40.2832 L 53.8574 -34.5215 L 53.8574 -29.0039 C 53.8574 -26.9531 55.127 -25.6348 57.0312 -25.6348 Z"/>
  </g>
  <g id="Light-S" transform="matrix(1 0 0 1 1108.46 696)">
   <path d="M 21.3867 -0.292969 L 67.9688 -0.292969 C 75.7324 -0.292969 79.5898 -4.15039 79.5898 -11.7676 L 79.5898 -58.5938 C 79.5898 -66.2109 75.7324 -70.1172 67.9688 -70.1172 L 21.3867 -70.1172 C 13.6719 -70.1172 9.76562 -66.2598 9.76562 -58.5938 L 9.76562 -11.7676 C 9.76562 -4.15039 13.6719 -0.292969 21.3867 -0.292969 Z M 21.4844 -5.71289 C 17.4316 -5.71289 15.1855 -7.86133 15.1855 -12.0605 L 15.1855 -58.3008 C 15.1855 -62.5 17.4316 -64.6973 21.4844 -64.6973 L 67.8711 -64.6973 C 71.875 -64.6973 74.1699 -62.5 74.1699 -58.3008 L 74.1699 -12.0605 C 74.1699 -7.86133 71.875 -5.71289 67.8711 -5.71289 Z M 56.8848 -25.8789 C 58.3984 -25.8789 59.375 -27.002 59.375 -28.6133 L 59.375 -47.168 C 59.375 -49.1211 58.3008 -49.9512 56.5918 -49.9512 L 37.8906 -49.9512 C 36.3281 -49.9512 35.3027 -48.9746 35.3027 -47.4609 C 35.3027 -45.9961 36.3281 -44.9707 37.9395 -44.9707 L 46.0938 -44.9707 L 51.6602 -45.5078 L 46.0938 -40.2832 L 30.7617 -24.9512 C 30.2734 -24.4629 29.9316 -23.7793 29.9316 -23.0957 C 29.9316 -21.582 30.957 -20.6055 32.4219 -20.6055 C 33.3008 -20.6055 33.8867 -20.8984 34.375 -21.3867 L 49.707 -36.7188 L 54.8828 -42.1875 L 54.3945 -36.084 L 54.3945 -28.5156 C 54.3945 -26.9043 55.3711 -25.8789 56.8848 -25.8789 Z"/>
  </g>
  <g id="Thin-S" transform="matrix(1 0 0 1 812.599 696)">
   <path d="M 20.3125 -1.12305 L 67.334 -1.12305 C 74.2676 -1.12305 77.8809 -4.78516 77.8809 -11.6211 L 77.8809 -58.6914 C 77.8809 -65.5762 74.2676 -69.2383 67.334 -69.2383 L 20.3125 -69.2383 C 13.3789 -69.2383 9.76562 -65.625 9.76562 -58.6914 L 9.76562 -11.6211 C 9.76562 -4.6875 13.3789 -1.12305 20.3125 -1.12305 Z M 20.4102 -4.44336 C 15.625 -4.44336 13.0859 -6.93359 13.0859 -11.8164 L 13.0859 -58.5449 C 13.0859 -63.3789 15.625 -65.918 20.4102 -65.918 L 67.2363 -65.918 C 71.875 -65.918 74.5605 -63.3789 74.5605 -58.5449 L 74.5605 -11.8164 C 74.5605 -6.93359 71.875 -4.44336 67.2363 -4.44336 Z M 56.6895 -26.2207 C 57.5684 -26.2207 58.2031 -26.9043 58.2031 -27.9297 L 58.2031 -48.0469 C 58.2031 -49.1699 57.5684 -49.707 56.543 -49.707 L 36.377 -49.707 C 35.3516 -49.707 34.7168 -49.1211 34.7168 -48.1934 C 34.7168 -47.2656 35.4004 -46.6309 36.377 -46.6309 L 47.9004 -46.6309 L 53.2715 -46.8262 L 48.877 -42.627 L 29.8828 -23.6816 C 29.5898 -23.3398 29.3945 -22.9492 29.3945 -22.4609 C 29.3945 -21.5332 29.9805 -20.8984 30.957 -20.8984 C 31.4941 -20.8984 31.8848 -21.0938 32.1777 -21.3867 L 51.123 -40.3809 L 55.2734 -44.7266 L 55.127 -38.0859 L 55.127 -27.8809 C 55.127 -26.9043 55.7129 -26.2207 56.6895 -26.2207 Z"/>
  </g>
  <g id="Ultralight-S" transform="matrix(1 0 0 1 516.352 696)">
   <path d="M 19.7754 -1.5625 L 66.9922 -1.5625 C 73.5352 -1.5625 76.9531 -5.12695 76.9531 -11.5234 L 76.9531 -58.7891 C 76.9531 -65.2344 73.5352 -68.75 66.9922 -68.75 L 19.7754 -68.75 C 13.2324 -68.75 9.76562 -65.2832 9.76562 -58.7891 L 9.76562 -11.5234 C 9.76562 -5.0293 13.2324 -1.5625 19.7754 -1.5625 Z M 19.873 -3.75977 C 14.6484 -3.75977 11.9629 -6.44531 11.9629 -11.6699 L 11.9629 -58.6426 C 11.9629 -63.8672 14.6484 -66.5527 19.873 -66.5527 L 66.8945 -66.5527 C 71.875 -66.5527 74.7559 -63.8672 74.7559 -58.6426 L 74.7559 -11.6699 C 74.7559 -6.44531 71.875 -3.75977 66.8945 -3.75977 Z M 56.5918 -26.416 C 57.1777 -26.416 57.6172 -26.8555 57.6172 -27.5879 L 57.6172 -48.4863 C 57.6172 -49.1699 57.1777 -49.6094 56.543 -49.6094 L 35.5957 -49.6094 C 34.8633 -49.6094 34.4238 -49.2188 34.4238 -48.584 C 34.4238 -47.9492 34.8633 -47.5098 35.5957 -47.5098 L 48.8281 -47.5098 L 54.1016 -47.5586 L 50.293 -43.8477 L 29.4434 -22.998 C 29.248 -22.8027 29.0527 -22.5098 29.0527 -22.168 C 29.0527 -21.4844 29.4922 -21.0449 30.1758 -21.0449 C 30.5664 -21.0449 30.8594 -21.1914 31.0547 -21.4355 L 51.9043 -42.2363 L 55.5176 -46.0449 L 55.4688 -39.1113 L 55.4688 -27.5879 C 55.4688 -26.8555 55.9082 -26.416 56.5918 -26.416 Z"/>
  </g>
 </g>
</svg>
