<?xml version="1.0" encoding="UTF-8"?>
<!--Generator: Apple Native CoreSVG 148-->
<!DOCTYPE svg
PUBLIC "-//W3C//DTD SVG 1.1//EN"
       "http://www.w3.org/Graphics/SVG/1.1/DTD/svg11.dtd">
<svg version="1.1" xmlns="http://www.w3.org/2000/svg" xmlns:xlink="http://www.w3.org/1999/xlink" width="3300" height="2200">
 <!--glyph: "uni100C54.medium", point size: 100.000000, font version: "Version 16.0d11e1", template writer version: "8"-->
 <g id="Notes">
  <rect height="2200" id="artboard" style="fill:white;opacity:1" width="3300" x="0" y="0"/>
  <line id="" style="fill:none;stroke:black;opacity:1;stroke-width:0.5;" x1="263" x2="3036" y1="292" y2="292"/>
  <text style="stroke:none;fill:black;font-family:-apple-system,&quot;SF Pro Display&quot;,&quot;SF Pro Text&quot;,Helvetica,sans-serif;font-weight:bold;" transform="matrix(1 0 0 1 263 322)">Weight/Scale Variations</text>
  <text style="stroke:none;fill:black;font-family:-apple-system,&quot;SF Pro Display&quot;,&quot;SF Pro Text&quot;,Helvetica,sans-serif;text-anchor:middle;" transform="matrix(1 0 0 1 559.711 322)">Ultralight</text>
  <text style="stroke:none;fill:black;font-family:-apple-system,&quot;SF Pro Display&quot;,&quot;SF Pro Text&quot;,Helvetica,sans-serif;text-anchor:middle;" transform="matrix(1 0 0 1 856.422 322)">Thin</text>
  <text style="stroke:none;fill:black;font-family:-apple-system,&quot;SF Pro Display&quot;,&quot;SF Pro Text&quot;,Helvetica,sans-serif;text-anchor:middle;" transform="matrix(1 0 0 1 1153.13 322)">Light</text>
  <text style="stroke:none;fill:black;font-family:-apple-system,&quot;SF Pro Display&quot;,&quot;SF Pro Text&quot;,Helvetica,sans-serif;text-anchor:middle;" transform="matrix(1 0 0 1 1449.84 322)">Regular</text>
  <text style="stroke:none;fill:black;font-family:-apple-system,&quot;SF Pro Display&quot;,&quot;SF Pro Text&quot;,Helvetica,sans-serif;text-anchor:middle;" transform="matrix(1 0 0 1 1746.56 322)">Medium</text>
  <text style="stroke:none;fill:black;font-family:-apple-system,&quot;SF Pro Display&quot;,&quot;SF Pro Text&quot;,Helvetica,sans-serif;text-anchor:middle;" transform="matrix(1 0 0 1 2043.27 322)">Semibold</text>
  <text style="stroke:none;fill:black;font-family:-apple-system,&quot;SF Pro Display&quot;,&quot;SF Pro Text&quot;,Helvetica,sans-serif;text-anchor:middle;" transform="matrix(1 0 0 1 2339.98 322)">Bold</text>
  <text style="stroke:none;fill:black;font-family:-apple-system,&quot;SF Pro Display&quot;,&quot;SF Pro Text&quot;,Helvetica,sans-serif;text-anchor:middle;" transform="matrix(1 0 0 1 2636.69 322)">Heavy</text>
  <text style="stroke:none;fill:black;font-family:-apple-system,&quot;SF Pro Display&quot;,&quot;SF Pro Text&quot;,Helvetica,sans-serif;text-anchor:middle;" transform="matrix(1 0 0 1 2933.4 322)">Black</text>
  <line id="" style="fill:none;stroke:black;opacity:1;stroke-width:0.5;" x1="263" x2="3036" y1="1903" y2="1903"/>
  <g id="" transform="matrix(1 0 0 1 263 1933)">
   <path d="M 9.24805 0.830078 C 13.5547 0.830078 17.1387 -2.74414 17.1387 -7.05078 C 17.1387 -11.3574 13.5449 -14.9316 9.23828 -14.9316 C 4.94141 -14.9316 1.36719 -11.3574 1.36719 -7.05078 C 1.36719 -2.74414 4.95117 0.830078 9.24805 0.830078 Z M 9.24805 -0.654297 C 5.70312 -0.654297 2.87109 -3.49609 2.87109 -7.05078 C 2.87109 -10.6055 5.69336 -13.4473 9.23828 -13.4473 C 12.793 -13.4473 15.6348 -10.6055 15.6445 -7.05078 C 15.6543 -3.49609 12.8027 -0.654297 9.24805 -0.654297 Z M 9.22852 -3.62305 C 9.69727 -3.62305 9.9707 -3.93555 9.9707 -4.45312 L 9.9707 -6.31836 L 12.002 -6.31836 C 12.5 -6.31836 12.832 -6.57227 12.832 -7.04102 C 12.832 -7.51953 12.5195 -7.7832 12.002 -7.7832 L 9.9707 -7.7832 L 9.9707 -9.81445 C 9.9707 -10.332 9.69727 -10.6543 9.22852 -10.6543 C 8.75977 -10.6543 8.50586 -10.3125 8.50586 -9.81445 L 8.50586 -7.7832 L 6.49414 -7.7832 C 5.97656 -7.7832 5.64453 -7.51953 5.64453 -7.04102 C 5.64453 -6.57227 5.99609 -6.31836 6.49414 -6.31836 L 8.50586 -6.31836 L 8.50586 -4.45312 C 8.50586 -3.95508 8.75977 -3.62305 9.22852 -3.62305 Z"/>
  </g>
  <g id="" transform="matrix(1 0 0 1 281.506 1933)">
   <path d="M 11.709 2.91016 C 17.1582 2.91016 21.6699 -1.61133 21.6699 -7.05078 C 21.6699 -12.5 17.1484 -17.0117 11.6992 -17.0117 C 6.25977 -17.0117 1.74805 -12.5 1.74805 -7.05078 C 1.74805 -1.61133 6.26953 2.91016 11.709 2.91016 Z M 11.709 1.25 C 7.09961 1.25 3.41797 -2.44141 3.41797 -7.05078 C 3.41797 -11.6602 7.08984 -15.3516 11.6992 -15.3516 C 16.3086 -15.3516 20 -11.6602 20.0098 -7.05078 C 20.0195 -2.44141 16.3184 1.25 11.709 1.25 Z M 11.6797 -2.66602 C 12.207 -2.66602 12.5098 -3.01758 12.5098 -3.59375 L 12.5098 -6.23047 L 15.3223 -6.23047 C 15.8691 -6.23047 16.25 -6.51367 16.25 -7.03125 C 16.25 -7.55859 15.8887 -7.86133 15.3223 -7.86133 L 12.5098 -7.86133 L 12.5098 -10.6836 C 12.5098 -11.25 12.207 -11.6113 11.6797 -11.6113 C 11.1621 -11.6113 10.8789 -11.2305 10.8789 -10.6836 L 10.8789 -7.86133 L 8.07617 -7.86133 C 7.50977 -7.86133 7.13867 -7.55859 7.13867 -7.03125 C 7.13867 -6.51367 7.5293 -6.23047 8.07617 -6.23047 L 10.8789 -6.23047 L 10.8789 -3.59375 C 10.8789 -3.03711 11.1621 -2.66602 11.6797 -2.66602 Z"/>
  </g>
  <g id="" transform="matrix(1 0 0 1 304.924 1933)">
   <path d="M 14.9707 5.66406 C 21.9336 5.66406 27.6953 -0.0976562 27.6953 -7.05078 C 27.6953 -14.0137 21.9238 -19.7754 14.9609 -19.7754 C 8.00781 -19.7754 2.25586 -14.0137 2.25586 -7.05078 C 2.25586 -0.0976562 8.01758 5.66406 14.9707 5.66406 Z M 14.9707 3.84766 C 8.93555 3.84766 4.08203 -1.01562 4.08203 -7.05078 C 4.08203 -13.0957 8.92578 -17.9492 14.9609 -17.9492 C 21.0059 -17.9492 25.8594 -13.0957 25.8691 -7.05078 C 25.8789 -1.01562 21.0156 3.84766 14.9707 3.84766 Z M 14.9414 -1.38672 C 15.5176 -1.38672 15.8594 -1.77734 15.8594 -2.38281 L 15.8594 -6.13281 L 19.7754 -6.13281 C 20.3711 -6.13281 20.7812 -6.46484 20.7812 -7.02148 C 20.7812 -7.59766 20.3906 -7.93945 19.7754 -7.93945 L 15.8594 -7.93945 L 15.8594 -11.8652 C 15.8594 -12.4805 15.5176 -12.8711 14.9414 -12.8711 C 14.375 -12.8711 14.0527 -12.4609 14.0527 -11.8652 L 14.0527 -7.93945 L 10.1465 -7.93945 C 9.53125 -7.93945 9.13086 -7.59766 9.13086 -7.02148 C 9.13086 -6.46484 9.55078 -6.13281 10.1465 -6.13281 L 14.0527 -6.13281 L 14.0527 -2.38281 C 14.0527 -1.79688 14.375 -1.38672 14.9414 -1.38672 Z"/>
  </g>
  <text style="stroke:none;fill:black;font-family:-apple-system,&quot;SF Pro Display&quot;,&quot;SF Pro Text&quot;,Helvetica,sans-serif;font-weight:bold;" transform="matrix(1 0 0 1 263 1953)">Design Variations</text>
  <text style="stroke:none;fill:black;font-family:-apple-system,&quot;SF Pro Display&quot;,&quot;SF Pro Text&quot;,Helvetica,sans-serif;" transform="matrix(1 0 0 1 263 1971)">Symbols are supported in up to nine weights and three scales.</text>
  <text style="stroke:none;fill:black;font-family:-apple-system,&quot;SF Pro Display&quot;,&quot;SF Pro Text&quot;,Helvetica,sans-serif;" transform="matrix(1 0 0 1 263 1989)">For optimal layout with text and other symbols, vertically align</text>
  <text style="stroke:none;fill:black;font-family:-apple-system,&quot;SF Pro Display&quot;,&quot;SF Pro Text&quot;,Helvetica,sans-serif;" transform="matrix(1 0 0 1 263 2007)">symbols with the adjacent text.</text>
  <line id="" style="fill:none;stroke:#00AEEF;stroke-width:0.5;opacity:1.0;" x1="776" x2="776" y1="1919" y2="1933"/>
  <g id="" transform="matrix(1 0 0 1 776 1933)">
   <path d="M 3.31055 0.126953 C 3.82812 0.126953 4.08203 -0.0683594 4.26758 -0.605469 L 5.52734 -4.0625 L 11.2891 -4.0625 L 12.5488 -0.605469 C 12.7344 -0.0683594 12.9883 0.126953 13.4961 0.126953 C 14.0137 0.126953 14.3457 -0.185547 14.3457 -0.673828 C 14.3457 -0.839844 14.3164 -0.986328 14.2383 -1.20117 L 9.6582 -13.3887 C 9.43359 -13.9941 9.0332 -14.2871 8.4082 -14.2871 C 7.80273 -14.2871 7.39258 -13.9941 7.17773 -13.3984 L 2.59766 -1.19141 C 2.51953 -0.976562 2.49023 -0.830078 2.49023 -0.664062 C 2.49023 -0.175781 2.80273 0.126953 3.31055 0.126953 Z M 6.00586 -5.53711 L 8.37891 -12.1094 L 8.42773 -12.1094 L 10.8008 -5.53711 Z"/>
  </g>
  <line id="" style="fill:none;stroke:#00AEEF;stroke-width:0.5;opacity:1.0;" x1="792.836" x2="792.836" y1="1919" y2="1933"/>
  <text style="stroke:none;fill:black;font-family:-apple-system,&quot;SF Pro Display&quot;,&quot;SF Pro Text&quot;,Helvetica,sans-serif;font-weight:bold;" transform="matrix(1 0 0 1 776 1953)">Margins</text>
  <text style="stroke:none;fill:black;font-family:-apple-system,&quot;SF Pro Display&quot;,&quot;SF Pro Text&quot;,Helvetica,sans-serif;" transform="matrix(1 0 0 1 776 1971)">Leading and trailing margins on the left and right side of each symbol</text>
  <text style="stroke:none;fill:black;font-family:-apple-system,&quot;SF Pro Display&quot;,&quot;SF Pro Text&quot;,Helvetica,sans-serif;" transform="matrix(1 0 0 1 776 1989)">can be adjusted by modifying the x-location of the margin guidelines.</text>
  <text style="stroke:none;fill:black;font-family:-apple-system,&quot;SF Pro Display&quot;,&quot;SF Pro Text&quot;,Helvetica,sans-serif;" transform="matrix(1 0 0 1 776 2007)">Modifications are automatically applied proportionally to all</text>
  <text style="stroke:none;fill:black;font-family:-apple-system,&quot;SF Pro Display&quot;,&quot;SF Pro Text&quot;,Helvetica,sans-serif;" transform="matrix(1 0 0 1 776 2025)">scales and weights.</text>
  <g id="" transform="matrix(1 0 0 1 1289 1933)">
   <path d="M 2.8418 1.86523 L 4.54102 3.57422 C 5.40039 4.44336 6.38672 4.38477 7.31445 3.35938 L 17.4902 -7.85156 C 17.7539 -7.76367 18.0273 -7.7832 18.3398 -7.8418 L 19.4043 -8.03711 L 20.0684 -7.36328 L 20.0293 -6.80664 C 19.9902 -6.30859 20.1172 -5.92773 20.6055 -5.44922 L 21.3672 -4.70703 C 21.8457 -4.22852 22.4609 -4.19922 22.9297 -4.66797 L 25.8398 -7.58789 C 26.3086 -8.05664 26.2891 -8.65234 25.8105 -9.13086 L 25.0391 -9.89258 C 24.5605 -10.3711 24.1895 -10.5273 23.7109 -10.4883 L 23.1348 -10.4395 L 22.4902 -11.0742 L 22.7344 -12.1973 C 22.8613 -12.7637 22.7051 -13.2031 22.1191 -13.7891 L 19.9219 -15.9766 C 16.582 -19.2969 12.1484 -19.2188 9.25781 -16.3281 C 8.83789 -15.918 8.80859 -15.3418 9.04297 -14.9512 C 9.27734 -14.5898 9.73633 -14.3555 10.3809 -14.5215 C 11.8457 -14.8633 13.3691 -14.9219 14.7949 -13.9844 L 14.209 -12.5293 C 14.0137 -12.0508 13.9844 -11.6504 14.1113 -11.2891 L 3.04688 -0.898438 C 2.06055 0.0195312 1.98242 0.996094 2.8418 1.86523 Z M 10.752 -15.957 C 13.1836 -17.7344 16.4746 -17.4316 18.7012 -15.2051 L 21.1328 -12.793 C 21.3672 -12.5586 21.4062 -12.373 21.3379 -12.0312 L 21.0156 -10.5469 L 22.5195 -9.0625 L 23.5059 -9.12109 C 23.7598 -9.13086 23.8379 -9.11133 24.0332 -8.91602 L 24.6094 -8.33984 L 22.168 -5.89844 L 21.5918 -6.47461 C 21.3965 -6.66992 21.3672 -6.74805 21.377 -7.01172 L 21.4453 -7.98828 L 19.9512 -9.47266 L 18.4277 -9.21875 C 18.1055 -9.15039 17.959 -9.17969 17.7148 -9.41406 L 15.7129 -11.416 C 15.459 -11.6504 15.4297 -11.8164 15.5859 -12.1875 L 16.4648 -14.2773 C 14.9023 -15.7324 12.8711 -16.3574 10.8398 -15.7617 C 10.6836 -15.7227 10.625 -15.8496 10.752 -15.957 Z M 5.27344 2.30469 L 4.10156 1.14258 C 3.63281 0.683594 3.74023 0.341797 4.14062 -0.0195312 L 14.9512 -10.1953 L 16.416 -8.71094 L 6.42578 2.27539 C 6.07422 2.67578 5.74219 2.77344 5.27344 2.30469 Z"/>
  </g>
  <text style="stroke:none;fill:black;font-family:-apple-system,&quot;SF Pro Display&quot;,&quot;SF Pro Text&quot;,Helvetica,sans-serif;font-weight:bold;" transform="matrix(1 0 0 1 1289 1953)">Exporting</text>
  <text style="stroke:none;fill:black;font-family:-apple-system,&quot;SF Pro Display&quot;,&quot;SF Pro Text&quot;,Helvetica,sans-serif;" transform="matrix(1 0 0 1 1289 1971)">Symbols should be outlined when exporting to ensure the</text>
  <text style="stroke:none;fill:black;font-family:-apple-system,&quot;SF Pro Display&quot;,&quot;SF Pro Text&quot;,Helvetica,sans-serif;" transform="matrix(1 0 0 1 1289 1989)">design is preserved when submitting to Xcode.</text>
  <text id="template-version" style="stroke:none;fill:black;font-family:-apple-system,&quot;SF Pro Display&quot;,&quot;SF Pro Text&quot;,Helvetica,sans-serif;text-anchor:end;" transform="matrix(1 0 0 1 3036 1933)">Template v.2.0</text>
  <text style="stroke:none;fill:black;font-family:-apple-system,&quot;SF Pro Display&quot;,&quot;SF Pro Text&quot;,Helvetica,sans-serif;text-anchor:end;" transform="matrix(1 0 0 1 3036 1951)">Requires Xcode 12 or greater</text>
  <text style="stroke:none;fill:black;font-family:-apple-system,&quot;SF Pro Display&quot;,&quot;SF Pro Text&quot;,Helvetica,sans-serif;text-anchor:end;" transform="matrix(1 0 0 1 3036 1969)">Generated from arrow.uturn.forward.circle</text>
  <text style="stroke:none;fill:black;font-family:-apple-system,&quot;SF Pro Display&quot;,&quot;SF Pro Text&quot;,Helvetica,sans-serif;text-anchor:end;" transform="matrix(1 0 0 1 3036 1987)">Typeset at 100 points</text>
  <text style="stroke:none;fill:black;font-family:-apple-system,&quot;SF Pro Display&quot;,&quot;SF Pro Text&quot;,Helvetica,sans-serif;" transform="matrix(1 0 0 1 263 726)">Small</text>
  <text style="stroke:none;fill:black;font-family:-apple-system,&quot;SF Pro Display&quot;,&quot;SF Pro Text&quot;,Helvetica,sans-serif;" transform="matrix(1 0 0 1 263 1156)">Medium</text>
  <text style="stroke:none;fill:black;font-family:-apple-system,&quot;SF Pro Display&quot;,&quot;SF Pro Text&quot;,Helvetica,sans-serif;" transform="matrix(1 0 0 1 263 1586)">Large</text>
 </g>
 <g id="Guides">
  <g id="H-reference" style="fill:#27AAE1;stroke:none;" transform="matrix(1 0 0 1 339 696)">
   <path d="M 0.976562 0 L 3.66211 0 L 12.9883 -24.4629 L 45.7031 -24.4629 L 55.0781 0 L 57.7148 0 L 30.6152 -70.459 L 28.125 -70.459 Z M 29.2969 -67.1387 L 29.3945 -67.1387 L 44.873 -26.709 L 13.8672 -26.709 Z"/>
  </g>
  <line id="Baseline-S" style="fill:none;stroke:#27AAE1;opacity:1;stroke-width:0.5;" x1="263" x2="3036" y1="696" y2="696"/>
  <line id="Capline-S" style="fill:none;stroke:#27AAE1;opacity:1;stroke-width:0.5;" x1="263" x2="3036" y1="625.541" y2="625.541"/>
  <g id="H-reference" style="fill:#27AAE1;stroke:none;" transform="matrix(1 0 0 1 339 1126)">
   <path d="M 0.976562 0 L 3.66211 0 L 12.9883 -24.4629 L 45.7031 -24.4629 L 55.0781 0 L 57.7148 0 L 30.6152 -70.459 L 28.125 -70.459 Z M 29.2969 -67.1387 L 29.3945 -67.1387 L 44.873 -26.709 L 13.8672 -26.709 Z"/>
  </g>
  <line id="Baseline-M" style="fill:none;stroke:#27AAE1;opacity:1;stroke-width:0.5;" x1="263" x2="3036" y1="1126" y2="1126"/>
  <line id="Capline-M" style="fill:none;stroke:#27AAE1;opacity:1;stroke-width:0.5;" x1="263" x2="3036" y1="1055.54" y2="1055.54"/>
  <g id="H-reference" style="fill:#27AAE1;stroke:none;" transform="matrix(1 0 0 1 339 1556)">
   <path d="M 0.976562 0 L 3.66211 0 L 12.9883 -24.4629 L 45.7031 -24.4629 L 55.0781 0 L 57.7148 0 L 30.6152 -70.459 L 28.125 -70.459 Z M 29.2969 -67.1387 L 29.3945 -67.1387 L 44.873 -26.709 L 13.8672 -26.709 Z"/>
  </g>
  <line id="Baseline-L" style="fill:none;stroke:#27AAE1;opacity:1;stroke-width:0.5;" x1="263" x2="3036" y1="1556" y2="1556"/>
  <line id="Capline-L" style="fill:none;stroke:#27AAE1;opacity:1;stroke-width:0.5;" x1="263" x2="3036" y1="1485.54" y2="1485.54"/>
  <line id="left-margin" style="fill:none;stroke:#00AEEF;stroke-width:0.5;opacity:1.0;" x1="1391.3" x2="1391.3" y1="1030.79" y2="1150.12"/>
  <line id="right-margin" style="fill:none;stroke:#00AEEF;stroke-width:0.5;opacity:1.0;" x1="1508.39" x2="1508.39" y1="1030.79" y2="1150.12"/>
 </g>
 <g id="Symbols">
  <g id="Black-L" transform="matrix(1 0 0 1 2854.05 1556)">
   <path d="M 79.3457 32.8613 C 116.748 32.8613 147.412 2.19727 147.412 -35.2051 C 147.412 -72.6074 116.748 -103.271 79.2969 -103.271 C 41.8945 -103.271 11.2793 -72.6074 11.2793 -35.2051 C 11.2793 2.19727 41.9434 32.8613 79.3457 32.8613 Z M 79.3457 12.4023 C 52.9785 12.4023 31.7383 -8.83789 31.7383 -35.2051 C 31.7383 -61.5723 52.9297 -82.8125 79.2969 -82.8125 C 105.664 -82.8125 126.953 -61.5723 126.953 -35.2051 C 127.002 -8.83789 105.713 12.4023 79.3457 12.4023 Z M 46.4844 -28.418 C 46.4844 -13.0371 57.0801 -2.92969 72.2656 -2.92969 L 81.3965 -2.92969 C 85.6445 -2.92969 88.5254 -5.51758 88.5254 -9.47266 C 88.5254 -13.3301 85.5469 -15.7715 81.3965 -15.7715 L 72.2656 -15.7715 C 64.7461 -15.7715 59.668 -20.8496 59.668 -28.5645 C 59.668 -36.4258 64.8926 -41.3086 72.3633 -41.3086 L 90.0391 -41.3086 L 94.6289 -41.748 L 91.0645 -39.2578 L 85.0586 -34.4238 C 83.7891 -33.3984 83.2031 -31.8848 83.2031 -30.4688 C 83.2031 -27.2461 86.0352 -24.5117 89.1113 -24.5117 C 90.625 -24.5117 92.1387 -25.0488 93.2617 -26.123 L 110.254 -43.3105 C 111.426 -44.4824 112.061 -46.0449 112.061 -47.5586 C 112.061 -49.2188 111.377 -50.6836 110.254 -51.9043 L 93.2617 -69.043 C 92.1875 -70.2148 90.7227 -70.752 89.2578 -70.752 C 86.1816 -70.752 83.3008 -67.9688 83.3008 -64.7949 C 83.3008 -63.3301 83.8867 -61.8164 85.1074 -60.7422 L 90.625 -55.8105 L 94.6289 -52.9297 L 90.0391 -53.3691 L 72.3633 -53.3691 C 57.0801 -53.3691 46.4844 -43.5547 46.4844 -28.418 Z"/>
  </g>
  <g id="Heavy-L" transform="matrix(1 0 0 1 2558.39 1556)">
   <path d="M 78.2715 31.7871 C 115.088 31.7871 145.312 1.5625 145.312 -35.2051 C 145.312 -72.0215 115.039 -102.246 78.2715 -102.246 C 41.4551 -102.246 11.2793 -72.0215 11.2793 -35.2051 C 11.2793 1.5625 41.5039 31.7871 78.2715 31.7871 Z M 78.2715 14.0137 C 51.0254 14.0137 29.0527 -7.95898 29.0527 -35.2051 C 29.0527 -62.5 50.9766 -84.4727 78.2715 -84.4727 C 105.518 -84.4727 127.49 -62.5 127.539 -35.2051 C 127.539 -7.95898 105.566 14.0137 78.2715 14.0137 Z M 45.6543 -28.2227 C 45.6543 -13.0371 56.2012 -3.125 71.2402 -3.125 L 80.3223 -3.125 C 84.1309 -3.125 86.7676 -5.41992 86.7676 -9.0332 C 86.7676 -12.5977 84.082 -14.7949 80.3711 -14.7949 L 71.2402 -14.7949 C 63.1348 -14.7949 57.5684 -20.1172 57.5684 -28.418 C 57.5684 -36.7676 63.2812 -41.8457 71.2891 -41.8457 L 89.5508 -41.8457 L 94.8242 -42.2363 L 91.2598 -39.7461 L 84.5703 -33.9844 C 83.3984 -33.0078 82.8613 -31.6406 82.8613 -30.2734 C 82.8613 -27.2949 85.4492 -24.8047 88.2812 -24.8047 C 89.7461 -24.8047 91.0645 -25.293 92.0898 -26.3184 L 109.033 -43.457 C 110.205 -44.6289 110.791 -46.0938 110.791 -47.5586 C 110.791 -49.0723 110.156 -50.4883 109.033 -51.6602 L 92.1387 -68.75 C 91.1133 -69.8242 89.7949 -70.3613 88.4277 -70.3613 C 85.498 -70.3613 82.959 -67.8223 82.959 -64.8438 C 82.959 -63.4766 83.4961 -62.1094 84.6191 -61.1328 L 90.6738 -55.5176 L 94.8242 -52.4902 L 89.5508 -52.832 L 71.2891 -52.832 C 56.2012 -52.832 45.6543 -43.2129 45.6543 -28.2227 Z"/>
  </g>
  <g id="Bold-L" transform="matrix(1 0 0 1 2262.88 1556)">
   <path d="M 77.0996 30.5664 C 113.232 30.5664 142.92 0.878906 142.92 -35.2539 C 142.92 -71.3379 113.184 -101.074 77.0508 -101.074 C 40.9668 -101.074 11.2793 -71.3379 11.2793 -35.2539 C 11.2793 0.878906 41.0156 30.5664 77.0996 30.5664 Z M 77.0996 15.8203 C 48.8281 15.8203 26.0742 -6.98242 26.0742 -35.2539 C 26.0742 -63.5254 48.7793 -86.2793 77.0508 -86.2793 C 105.371 -86.2793 128.125 -63.5254 128.174 -35.2539 C 128.174 -6.98242 105.371 15.8203 77.0996 15.8203 Z M 44.6777 -27.9785 C 44.6777 -12.9883 55.2246 -3.36914 70.0684 -3.36914 L 79.1504 -3.36914 C 82.4707 -3.36914 84.8145 -5.32227 84.8145 -8.59375 C 84.8145 -11.7676 82.4219 -13.6719 79.1992 -13.6719 L 70.0684 -13.6719 C 61.3281 -13.6719 55.2246 -19.3359 55.2246 -28.2715 C 55.2246 -37.1582 61.4746 -42.4316 70.1172 -42.4316 L 89.0625 -42.4316 L 95.0195 -42.7734 L 91.5039 -40.2344 L 84.0332 -33.4961 C 82.959 -32.6172 82.4707 -31.2988 82.4707 -30.0781 C 82.4707 -27.3438 84.7168 -25.0977 87.3535 -25.0977 C 88.7207 -25.0977 89.8926 -25.5859 90.8203 -26.5137 L 107.715 -43.6523 C 108.789 -44.7266 109.375 -46.0938 109.375 -47.5098 C 109.375 -48.9746 108.74 -50.293 107.715 -51.3672 L 90.8691 -68.457 C 89.9414 -69.4336 88.7695 -69.9219 87.4512 -69.9219 C 84.8145 -69.9219 82.5195 -67.627 82.5195 -64.9414 C 82.5195 -63.623 83.0566 -62.4023 84.0332 -61.5234 L 90.7227 -55.2246 L 95.0195 -51.9531 L 89.0625 -52.2949 L 70.1172 -52.2949 C 55.2246 -52.2949 44.6777 -42.8711 44.6777 -27.9785 Z"/>
  </g>
  <g id="Semibold-L" transform="matrix(1 0 0 1 1966.97 1556)">
   <path d="M 76.2695 29.7363 C 111.914 29.7363 141.309 0.390625 141.309 -35.2539 C 141.309 -70.8984 111.865 -100.244 76.2695 -100.244 C 40.625 -100.244 11.2793 -70.8984 11.2793 -35.2539 C 11.2793 0.390625 40.6738 29.7363 76.2695 29.7363 Z M 76.2695 17.041 C 47.3145 17.041 24.0234 -6.25 24.0234 -35.2539 C 24.0234 -64.209 47.2656 -87.5488 76.2695 -87.5488 C 105.225 -87.5488 128.564 -64.209 128.613 -35.2539 C 128.662 -6.25 105.273 17.041 76.2695 17.041 Z M 43.9941 -27.832 C 43.9941 -12.9883 54.5898 -3.51562 69.2871 -3.51562 L 78.3203 -3.51562 C 81.2988 -3.51562 83.4473 -5.27344 83.4473 -8.25195 C 83.4473 -11.1816 81.2988 -12.8906 78.418 -12.8906 L 69.2871 -12.8906 C 60.1074 -12.8906 53.6133 -18.7988 53.6133 -28.1738 C 53.6133 -37.4023 60.2539 -42.8711 69.2871 -42.8711 L 88.7207 -42.8711 L 95.166 -43.1641 L 91.6504 -40.5762 L 83.6426 -33.1543 C 82.666 -32.3242 82.2266 -31.1035 82.2266 -29.9316 C 82.2266 -27.3926 84.2773 -25.3418 86.7188 -25.3418 C 87.9883 -25.3418 89.0625 -25.7812 89.9414 -26.6602 L 106.787 -43.7988 C 107.812 -44.8242 108.398 -46.0938 108.398 -47.4609 C 108.398 -48.877 107.812 -50.1465 106.787 -51.1719 L 89.9902 -68.2129 C 89.1113 -69.1406 88.0371 -69.5801 86.8164 -69.5801 C 84.2773 -69.5801 82.2266 -67.5293 82.2266 -64.9902 C 82.2266 -63.7207 82.7637 -62.5977 83.6914 -61.7676 L 90.7715 -54.9805 L 95.166 -51.6113 L 88.7207 -51.9043 L 69.2871 -51.9043 C 54.541 -51.9043 43.9941 -42.627 43.9941 -27.832 Z"/>
  </g>
  <g id="Medium-L" transform="matrix(1 0 0 1 1670.87 1556)">
   <path d="M 75.6836 29.1504 C 110.938 29.1504 140.088 0 140.088 -35.2539 C 140.088 -70.5078 110.889 -99.6582 75.6348 -99.6582 C 40.3809 -99.6582 11.2793 -70.5078 11.2793 -35.2539 C 11.2793 0 40.3809 29.1504 75.6836 29.1504 Z M 75.6836 18.0176 C 46.1426 18.0176 22.4609 -5.76172 22.4609 -35.2539 C 22.4609 -64.7461 46.1426 -88.5254 75.6348 -88.5254 C 105.127 -88.5254 128.906 -64.7461 128.906 -35.2539 C 128.955 -5.76172 105.176 18.0176 75.6836 18.0176 Z M 43.5059 -27.7344 C 43.5059 -12.9883 54.0527 -3.61328 68.7012 -3.61328 L 77.7344 -3.61328 C 80.4688 -3.61328 82.4219 -5.22461 82.4219 -8.00781 C 82.4219 -10.7422 80.4199 -12.3047 77.7832 -12.3047 L 68.7012 -12.3047 C 59.1309 -12.3047 52.3926 -18.4082 52.3926 -28.0762 C 52.3926 -37.6465 59.2773 -43.1641 68.6523 -43.1641 L 88.4766 -43.1641 L 95.2637 -43.457 L 91.748 -40.8203 L 83.3496 -32.8613 C 82.4707 -32.0801 81.9824 -30.957 81.9824 -29.834 C 81.9824 -27.3926 83.8867 -25.4883 86.2305 -25.4883 C 87.4512 -25.4883 88.4766 -25.9277 89.3066 -26.7578 L 106.104 -43.8965 C 107.08 -44.873 107.666 -46.0938 107.666 -47.4609 C 107.666 -48.8281 107.08 -50.0488 106.104 -51.0254 L 89.3555 -68.0664 C 88.5254 -68.9453 87.5 -69.3359 86.3281 -69.3359 C 83.9355 -69.3359 82.0312 -67.4316 82.0312 -65.0391 C 82.0312 -63.8184 82.5684 -62.7441 83.3984 -61.9629 L 90.8203 -54.834 L 95.2637 -51.3672 L 88.4766 -51.6113 L 68.6523 -51.6113 C 54.0527 -51.6113 43.5059 -42.4316 43.5059 -27.7344 Z"/>
  </g>
  <g id="Regular-L" transform="matrix(1 0 0 1 1374.97 1556)">
   <path d="M 74.8535 28.3203 C 109.668 28.3203 138.477 -0.488281 138.477 -35.2539 C 138.477 -70.0684 109.619 -98.877 74.8047 -98.877 C 40.0391 -98.877 11.2793 -70.0684 11.2793 -35.2539 C 11.2793 -0.488281 40.0879 28.3203 74.8535 28.3203 Z M 74.8535 19.2383 C 44.6777 19.2383 20.4102 -5.07812 20.4102 -35.2539 C 20.4102 -65.4785 44.6289 -89.7461 74.8047 -89.7461 C 105.029 -89.7461 129.297 -65.4785 129.346 -35.2539 C 129.395 -5.07812 105.078 19.2383 74.8535 19.2383 Z M 42.8711 -27.5879 C 42.8711 -12.9883 53.418 -3.80859 67.9199 -3.80859 L 76.9043 -3.80859 C 79.2969 -3.80859 81.1035 -5.17578 81.1035 -7.66602 C 81.1035 -10.1562 79.2969 -11.5723 77.002 -11.5723 L 67.9199 -11.5723 C 57.9102 -11.5723 50.8301 -17.8711 50.8301 -27.9785 C 50.8301 -37.8906 58.0566 -43.6035 67.8711 -43.6035 L 88.1348 -43.6035 L 95.4102 -43.8477 L 91.8945 -41.2109 L 82.959 -32.5684 C 82.1777 -31.7871 81.7383 -30.7617 81.7383 -29.6875 C 81.7383 -27.4414 83.4473 -25.7324 85.5957 -25.7324 C 86.7676 -25.7324 87.6465 -26.123 88.4277 -26.9043 L 105.225 -44.043 C 106.152 -44.9707 106.689 -46.0938 106.689 -47.4121 C 106.689 -48.7305 106.152 -49.9023 105.225 -50.8301 L 88.4766 -67.8711 C 87.6953 -68.6523 86.8164 -69.043 85.6445 -69.043 C 83.4473 -69.043 81.7383 -67.334 81.7383 -65.0879 C 81.7383 -63.916 82.2754 -62.9395 83.0078 -62.2559 L 90.8691 -54.5898 L 95.4102 -50.9766 L 88.1348 -51.2207 L 67.8711 -51.2207 C 53.3691 -51.2207 42.8711 -42.1875 42.8711 -27.5879 Z"/>
  </g>
  <g id="Light-L" transform="matrix(1 0 0 1 1079.18 1556)">
   <path d="M 73.9258 27.3926 C 108.301 27.3926 136.621 -0.927734 136.621 -35.2539 C 136.621 -69.6289 108.252 -97.9492 73.9258 -97.9492 C 39.5508 -97.9492 11.2793 -69.6289 11.2793 -35.2539 C 11.2793 -0.927734 39.5996 27.3926 73.9258 27.3926 Z M 73.9258 20.5078 C 43.1152 20.5078 18.2129 -4.44336 18.2129 -35.2539 C 18.2129 -66.1133 43.0664 -91.0156 73.9258 -91.0156 C 104.736 -91.0156 129.688 -66.1133 129.736 -35.2539 C 129.736 -4.44336 104.785 20.5078 73.9258 20.5078 Z M 42.8223 -27.6855 C 42.8223 -13.8184 52.832 -4.93164 66.9922 -4.93164 L 76.5625 -4.93164 C 78.418 -4.93164 79.7852 -6.00586 79.7852 -7.95898 C 79.7852 -9.86328 78.418 -10.9863 76.6113 -10.9863 L 66.9922 -10.9863 C 56.3965 -10.9863 49.0234 -17.5781 49.0234 -27.9297 C 49.0234 -38.1348 56.4941 -44.3359 66.9434 -44.3359 L 89.2578 -44.3359 L 96.2891 -44.5312 L 92.9688 -41.9922 L 82.666 -31.8848 C 81.9824 -31.25 81.5918 -30.4688 81.5918 -29.5898 C 81.5918 -27.832 82.9102 -26.4648 84.668 -26.4648 C 85.5957 -26.4648 86.3281 -26.8066 86.9141 -27.3926 L 103.662 -44.5312 C 104.443 -45.2637 104.883 -46.2402 104.883 -47.3145 C 104.883 -48.4375 104.443 -49.4141 103.662 -50.1465 L 86.9629 -67.1875 C 86.3281 -67.8223 85.6445 -68.1641 84.7168 -68.1641 C 82.9102 -68.1641 81.5918 -66.7969 81.5918 -65.0391 C 81.5918 -64.1113 82.0801 -63.3301 82.666 -62.7441 L 92.2852 -53.2715 L 96.2891 -50.0977 L 89.2578 -50.293 L 66.9434 -50.293 C 52.832 -50.293 42.8223 -41.5527 42.8223 -27.6855 Z"/>
  </g>
  <g id="Thin-L" transform="matrix(1 0 0 1 783.693 1556)">
   <path d="M 72.7051 26.1719 C 106.494 26.1719 134.18 -1.51367 134.18 -35.2539 C 134.18 -69.043 106.494 -96.7285 72.7051 -96.7285 C 38.9648 -96.7285 11.2793 -69.043 11.2793 -35.2539 C 11.2793 -1.51367 38.9648 26.1719 72.7051 26.1719 Z M 72.7051 22.168 C 41.0156 22.168 15.2832 -3.56445 15.2832 -35.2539 C 15.2832 -66.9922 41.0156 -92.7246 72.7051 -92.7246 C 104.395 -92.7246 130.176 -66.9922 130.176 -35.2539 C 130.176 -3.56445 104.443 22.168 72.7051 22.168 Z M 42.8223 -27.7832 C 42.8223 -14.8926 52.0996 -6.39648 65.7715 -6.39648 L 76.0742 -6.39648 C 77.1973 -6.39648 78.0273 -7.12891 78.0273 -8.30078 C 78.0273 -9.47266 77.1973 -10.2051 76.0742 -10.2051 L 65.7715 -10.2051 C 54.3457 -10.2051 46.6309 -17.1875 46.6309 -27.832 C 46.6309 -38.4277 54.3945 -45.3125 65.7715 -45.3125 L 90.7227 -45.3125 L 97.4121 -45.459 L 94.3848 -43.0176 L 82.2266 -31.0059 C 81.7871 -30.5664 81.4453 -30.0781 81.4453 -29.4434 C 81.4453 -28.3203 82.2266 -27.4414 83.3984 -27.4414 C 84.082 -27.4414 84.5215 -27.7344 84.9121 -28.0762 L 101.66 -45.166 C 102.197 -45.7031 102.539 -46.3867 102.539 -47.2168 C 102.539 -47.998 102.197 -48.7305 101.66 -49.2676 L 84.9121 -66.3086 C 84.5215 -66.6992 84.082 -66.9434 83.4473 -66.9434 C 82.2266 -66.9434 81.4453 -66.1133 81.4453 -64.9414 C 81.4453 -64.3066 81.7871 -63.8672 82.2266 -63.3789 L 94.2383 -51.5137 L 97.4121 -48.9258 L 90.7227 -49.1211 L 65.7715 -49.1211 C 52.0996 -49.1211 42.8223 -40.6738 42.8223 -27.7832 Z"/>
  </g>
  <g id="Ultralight-L" transform="matrix(1 0 0 1 487.616 1556)">
   <path d="M 72.1191 25.5371 C 105.566 25.5371 132.91 -1.80664 132.91 -35.2539 C 132.91 -68.75 105.566 -96.0938 72.1191 -96.0938 C 38.623 -96.0938 11.2793 -68.75 11.2793 -35.2539 C 11.2793 -1.80664 38.623 25.5371 72.1191 25.5371 Z M 72.1191 23.0469 C 39.9414 23.0469 13.7695 -3.125 13.7695 -35.2539 C 13.7695 -67.4316 39.9414 -93.6035 72.1191 -93.6035 C 104.248 -93.6035 130.42 -67.4316 130.42 -35.2539 C 130.42 -3.125 104.248 23.0469 72.1191 23.0469 Z M 42.7734 -27.832 C 42.7734 -15.4297 51.709 -7.17773 65.1855 -7.17773 L 75.8301 -7.17773 C 76.6113 -7.17773 77.0996 -7.71484 77.0996 -8.49609 C 77.0996 -9.27734 76.6113 -9.81445 75.7812 -9.81445 L 65.1855 -9.81445 C 53.3203 -9.81445 45.4102 -16.9922 45.4102 -27.7832 C 45.4102 -38.5742 53.2715 -45.8008 65.1855 -45.8008 L 91.5039 -45.8008 L 97.998 -45.9473 L 95.1172 -43.5547 L 82.0312 -30.5664 C 81.6895 -30.1758 81.3477 -29.8828 81.3477 -29.3457 C 81.3477 -28.5645 81.8848 -27.9297 82.7637 -27.9297 C 83.252 -27.9297 83.5938 -28.1738 83.8867 -28.4668 L 100.586 -45.459 C 101.025 -45.8984 101.318 -46.4844 101.318 -47.1191 C 101.318 -47.8027 101.025 -48.3887 100.586 -48.7793 L 83.8867 -65.8691 C 83.5938 -66.1133 83.252 -66.3574 82.7637 -66.3574 C 81.8848 -66.3574 81.3477 -65.7227 81.3477 -64.9414 C 81.3477 -64.4531 81.6406 -64.1113 82.0312 -63.7207 L 95.2148 -50.5859 L 97.998 -48.3398 L 91.5039 -48.4863 L 65.1855 -48.4863 C 51.709 -48.4863 42.7734 -40.1855 42.7734 -27.832 Z"/>
  </g>
  <g id="Black-M" transform="matrix(1 0 0 1 2870.97 1126)">
   <path d="M 62.4023 18.457 C 91.9922 18.457 116.113 -5.61523 116.113 -35.2051 C 116.113 -64.7949 91.9922 -88.8672 62.4023 -88.8672 C 32.8125 -88.8672 8.74023 -64.7949 8.74023 -35.2051 C 8.74023 -5.61523 32.8125 18.457 62.4023 18.457 Z M 62.4023 0.195312 C 42.8711 0.195312 27.002 -15.625 27.002 -35.2051 C 27.002 -54.7363 42.8711 -70.6055 62.4023 -70.6055 C 81.9824 -70.6055 97.8027 -54.7363 97.8027 -35.2051 C 97.8027 -15.625 81.9824 0.195312 62.4023 0.195312 Z M 37.207 -30.2246 C 37.207 -18.457 45.0684 -10.5469 56.9336 -10.5469 L 64.3066 -10.5469 C 67.8711 -10.5469 70.2637 -12.7441 70.2637 -16.0156 C 70.2637 -19.1406 67.8223 -21.1914 64.2578 -21.1914 L 56.9336 -21.1914 C 51.5625 -21.1914 48.0957 -24.8535 48.0957 -30.2246 C 48.0957 -35.791 51.6113 -39.5996 57.0801 -39.5996 L 70.9961 -39.5996 L 73.584 -39.9902 L 70.8984 -38.1836 L 66.4551 -34.8633 C 65.3809 -34.0332 64.8438 -32.8613 64.8438 -31.7383 C 64.8438 -29.1504 67.2363 -26.9043 69.6777 -26.9043 C 70.8496 -26.9043 72.1191 -27.3438 72.998 -28.2227 L 86.2305 -41.5039 C 87.1582 -42.4316 87.5977 -43.7012 87.5977 -44.7754 C 87.5977 -46.0449 87.0605 -47.168 86.2305 -48.0957 L 72.998 -61.4258 C 72.1191 -62.3535 70.9473 -62.793 69.8242 -62.793 C 67.3828 -62.793 64.9902 -60.498 64.9902 -58.0078 C 64.9902 -56.8848 65.4297 -55.7129 66.4551 -54.834 L 70.9473 -50.8789 L 73.584 -49.1211 L 70.9961 -49.5117 L 57.0801 -49.5117 C 45.166 -49.5117 37.207 -41.748 37.207 -30.2246 Z"/>
  </g>
  <g id="Heavy-M" transform="matrix(1 0 0 1 2575.19 1126)">
   <path d="M 61.5234 17.5293 C 90.5273 17.5293 114.258 -6.20117 114.258 -35.2051 C 114.258 -64.2578 90.5273 -87.9883 61.4746 -87.9883 C 32.4707 -87.9883 8.74023 -64.2578 8.74023 -35.2051 C 8.74023 -6.20117 32.4707 17.5293 61.5234 17.5293 Z M 61.5234 1.61133 C 41.1133 1.61133 24.6582 -14.8438 24.6582 -35.2051 C 24.6582 -55.6152 41.1133 -72.0703 61.4746 -72.0703 C 81.8848 -72.0703 98.3398 -55.6152 98.3398 -35.2051 C 98.3398 -14.8438 81.8848 1.61133 61.5234 1.61133 Z M 36.2793 -30.0293 C 36.2793 -18.2617 44.2871 -10.4492 56.0547 -10.4492 L 63.2324 -10.4492 C 66.5039 -10.4492 68.7012 -12.4512 68.7012 -15.4785 C 68.7012 -18.3594 66.4551 -20.2637 63.2324 -20.2637 L 56.0547 -20.2637 C 50.1953 -20.2637 46.2891 -24.1699 46.2891 -30.0781 C 46.2891 -36.1328 50.2441 -39.9902 56.1035 -39.9902 L 70.2148 -39.9902 L 73.5352 -40.332 L 70.8496 -38.4766 L 65.9668 -34.5215 C 64.9902 -33.7402 64.5508 -32.6172 64.5508 -31.543 C 64.5508 -29.1016 66.6992 -27.0508 69.043 -27.0508 C 70.166 -27.0508 71.3379 -27.4414 72.168 -28.2715 L 85.3027 -41.5527 C 86.2305 -42.4805 86.6699 -43.6523 86.6699 -44.7754 C 86.6699 -45.9961 86.1816 -47.1191 85.3027 -47.998 L 72.168 -61.3281 C 71.3379 -62.207 70.2148 -62.5977 69.1406 -62.5977 C 66.7969 -62.5977 64.6484 -60.498 64.6484 -58.1055 C 64.6484 -56.9824 65.0391 -55.8594 65.9668 -55.0781 L 70.6055 -50.9277 L 73.5352 -48.8281 L 70.2148 -49.1699 L 56.1035 -49.1699 C 44.3359 -49.1699 36.2793 -41.5527 36.2793 -30.0293 Z"/>
  </g>
  <g id="Bold-M" transform="matrix(1 0 0 1 2279.5 1126)">
   <path d="M 60.498 16.5039 C 88.8672 16.5039 112.207 -6.83594 112.207 -35.2051 C 112.207 -63.623 88.8672 -86.9629 60.4492 -86.9629 C 32.0312 -86.9629 8.74023 -63.623 8.74023 -35.2051 C 8.74023 -6.83594 32.0801 16.5039 60.498 16.5039 Z M 60.498 3.22266 C 39.1602 3.22266 22.0703 -13.916 22.0703 -35.2051 C 22.0703 -56.543 39.1602 -73.6816 60.4492 -73.6816 C 81.7383 -73.6816 98.9258 -56.543 98.9258 -35.2051 C 98.9746 -13.916 81.7871 3.22266 60.498 3.22266 Z M 35.2051 -29.7363 C 35.2051 -18.0176 43.4082 -10.4004 55.0293 -10.4004 L 62.0605 -10.4004 C 64.9414 -10.4004 66.9434 -12.1094 66.9434 -14.8438 C 66.9434 -17.5293 64.8926 -19.1895 62.1094 -19.1895 L 55.0293 -19.1895 C 48.6328 -19.1895 44.2383 -23.3887 44.2383 -29.9316 C 44.2383 -36.4746 48.7793 -40.4297 55.0781 -40.4297 L 69.3359 -40.4297 L 73.5352 -40.7227 L 70.752 -38.7695 L 65.4785 -34.1797 C 64.5508 -33.4473 64.1602 -32.373 64.1602 -31.3477 C 64.1602 -29.0527 66.1133 -27.1973 68.2617 -27.1973 C 69.3848 -27.1973 70.4102 -27.5879 71.1914 -28.3691 L 84.3262 -41.6504 C 85.2051 -42.5293 85.6445 -43.6523 85.6445 -44.7754 C 85.6445 -45.9473 85.1562 -47.0215 84.3262 -47.9004 L 71.2402 -61.1816 C 70.459 -62.0117 69.4336 -62.4023 68.3594 -62.4023 C 66.1621 -62.4023 64.209 -60.4492 64.209 -58.2031 C 64.209 -57.1289 64.6484 -56.1035 65.4785 -55.3711 L 70.2637 -50.9277 L 73.5352 -48.5352 L 69.3359 -48.8281 L 55.0781 -48.8281 C 43.4082 -48.8281 35.2051 -41.3574 35.2051 -29.7363 Z"/>
  </g>
  <g id="Semibold-M" transform="matrix(1 0 0 1 1983.5 1126)">
   <path d="M 59.7656 15.8203 C 87.7441 15.8203 110.791 -7.27539 110.791 -35.2539 C 110.791 -63.2324 87.6953 -86.2793 59.7656 -86.2793 C 31.7871 -86.2793 8.74023 -63.2324 8.74023 -35.2539 C 8.74023 -7.27539 31.7871 15.8203 59.7656 15.8203 Z M 59.7656 4.3457 C 37.8418 4.3457 20.2637 -13.3301 20.2637 -35.2539 C 20.2637 -57.1777 37.793 -74.8047 59.7656 -74.8047 C 81.6895 -74.8047 99.3164 -57.1777 99.3652 -35.2539 C 99.3652 -13.3301 81.6895 4.3457 59.7656 4.3457 Z M 34.4727 -29.5898 C 34.4727 -17.8223 42.7734 -10.3027 54.3457 -10.3027 L 61.2305 -10.3027 C 63.8672 -10.3027 65.7227 -11.8652 65.7227 -14.4531 C 65.7227 -16.9922 63.8672 -18.457 61.2793 -18.457 L 54.3457 -18.457 C 47.6074 -18.457 42.8711 -22.9004 42.8711 -29.834 C 42.8711 -36.7188 47.7051 -40.7715 54.3457 -40.7715 L 68.7012 -40.7715 L 73.4863 -41.0156 L 70.7031 -39.0137 L 65.0879 -33.9355 C 64.3066 -33.252 63.8672 -32.2266 63.8672 -31.25 C 63.8672 -29.0527 65.6738 -27.2949 67.7734 -27.2949 C 68.8477 -27.2949 69.7754 -27.6367 70.5566 -28.3691 L 83.6426 -41.6992 C 84.4727 -42.5293 84.9609 -43.6035 84.9609 -44.7266 C 84.9609 -45.9473 84.4727 -46.9727 83.6426 -47.8516 L 70.5566 -61.084 C 69.8242 -61.8652 68.8965 -62.207 67.8711 -62.207 C 65.7227 -62.207 63.916 -60.4492 63.916 -58.252 C 63.916 -57.2266 64.3555 -56.25 65.1367 -55.5176 L 70.0195 -50.9766 L 73.4863 -48.3398 L 68.7012 -48.5352 L 54.3457 -48.5352 C 42.7734 -48.5352 34.4727 -41.2598 34.4727 -29.5898 Z"/>
  </g>
  <g id="Medium-M" transform="matrix(1 0 0 1 1687.3 1126)">
   <path d="M 59.2285 15.2344 C 86.9141 15.2344 109.766 -7.61719 109.766 -35.2539 C 109.766 -62.8906 86.8652 -85.7422 59.1797 -85.7422 C 31.543 -85.7422 8.74023 -62.8906 8.74023 -35.2539 C 8.74023 -7.61719 31.5918 15.2344 59.2285 15.2344 Z M 59.2285 5.17578 C 36.8164 5.17578 18.8965 -12.8418 18.8965 -35.2539 C 18.8965 -57.666 36.8164 -75.6348 59.1797 -75.6348 C 81.5918 -75.6348 99.6094 -57.666 99.6582 -35.2539 C 99.707 -12.8418 81.6406 5.17578 59.2285 5.17578 Z M 33.9355 -29.4434 C 33.9355 -17.7246 42.334 -10.3027 53.8086 -10.3027 L 60.6445 -10.3027 C 63.0371 -10.3027 64.7949 -11.6699 64.7949 -14.1113 C 64.7949 -16.5527 63.0371 -17.9199 60.6934 -17.9199 L 53.8086 -17.9199 C 46.8262 -17.9199 41.7969 -22.4609 41.7969 -29.7852 C 41.7969 -36.9141 46.9238 -40.9668 53.8086 -40.9668 L 68.2617 -40.9668 L 73.4863 -41.2109 L 70.6543 -39.1602 L 64.8438 -33.7402 C 64.0625 -33.1055 63.6719 -32.0801 63.6719 -31.1523 C 63.6719 -29.0039 65.3809 -27.3438 67.3828 -27.3438 C 68.457 -27.3438 69.3359 -27.6855 70.0684 -28.418 L 83.1055 -41.748 C 83.9355 -42.5781 84.4238 -43.6035 84.4238 -44.7266 C 84.4238 -45.8984 83.9355 -46.9727 83.1055 -47.8027 L 70.0684 -60.9863 C 69.3848 -61.7676 68.5059 -62.1094 67.4316 -62.1094 C 65.3809 -62.1094 63.7207 -60.4492 63.7207 -58.3496 C 63.7207 -57.2754 64.1602 -56.3477 64.8926 -55.7129 L 69.8242 -50.9766 L 73.4863 -48.1445 L 68.2617 -48.3887 L 53.8086 -48.3887 C 42.2852 -48.3887 33.9355 -41.1621 33.9355 -29.4434 Z"/>
  </g>
  <g id="Regular-M" transform="matrix(1 0 0 1 1391.3 1126)">
   <path d="M 58.5449 14.5508 C 85.791 14.5508 108.35 -8.05664 108.35 -35.2539 C 108.35 -62.5 85.7422 -85.0586 58.4961 -85.0586 C 31.2988 -85.0586 8.74023 -62.5 8.74023 -35.2539 C 8.74023 -8.05664 31.3477 14.5508 58.5449 14.5508 Z M 58.5449 6.25 C 35.498 6.25 17.0898 -12.207 17.0898 -35.2539 C 17.0898 -58.3008 35.4492 -76.7578 58.4961 -76.7578 C 81.543 -76.7578 100 -58.3008 100.049 -35.2539 C 100.098 -12.207 81.5918 6.25 58.5449 6.25 Z M 33.2031 -29.248 C 33.2031 -17.5293 41.748 -10.2051 53.125 -10.2051 L 59.8145 -10.2051 C 62.0117 -10.2051 63.623 -11.4746 63.623 -13.7207 C 63.623 -15.9668 62.0117 -17.1875 59.9121 -17.1875 L 53.125 -17.1875 C 45.752 -17.1875 40.3809 -21.9727 40.3809 -29.6387 C 40.3809 -37.1582 45.8984 -41.3086 53.0762 -41.3086 L 67.6758 -41.3086 L 73.4375 -41.5039 L 70.6055 -39.4043 L 64.502 -33.5449 C 63.7695 -32.8613 63.4277 -31.9336 63.4277 -31.0059 C 63.4277 -29.0039 64.9414 -27.4414 66.8945 -27.4414 C 67.9199 -27.4414 68.7012 -27.7832 69.3848 -28.4668 L 82.4219 -41.7969 C 83.2031 -42.5781 83.7402 -43.6035 83.7402 -44.7266 C 83.7402 -45.8984 83.2031 -46.9238 82.4219 -47.7051 L 69.4336 -60.8887 C 68.75 -61.6211 67.9688 -61.9629 66.9434 -61.9629 C 64.9414 -61.9629 63.4277 -60.4004 63.4277 -58.3984 C 63.4277 -57.373 63.8672 -56.4941 64.5508 -55.8594 L 69.5801 -50.9766 L 73.4375 -47.9492 L 67.6758 -48.1445 L 53.0762 -48.1445 C 41.6992 -48.1445 33.2031 -41.0156 33.2031 -29.248 Z"/>
  </g>
  <g id="Light-M" transform="matrix(1 0 0 1 1095.42 1126)">
   <path d="M 57.7148 13.7207 C 84.5215 13.7207 106.689 -8.44727 106.689 -35.2539 C 106.689 -62.1094 84.5215 -84.2285 57.666 -84.2285 C 30.8594 -84.2285 8.74023 -62.1094 8.74023 -35.2539 C 8.74023 -8.44727 30.9082 13.7207 57.7148 13.7207 Z M 57.7148 7.37305 C 34.082 7.37305 15.0879 -11.6699 15.0879 -35.2539 C 15.0879 -58.8867 34.082 -77.9297 57.666 -77.9297 C 81.2988 -77.9297 100.342 -58.8867 100.391 -35.2539 C 100.391 -11.6699 81.3477 7.37305 57.7148 7.37305 Z M 33.2031 -29.3457 C 33.2031 -18.2617 41.2109 -11.2305 52.3438 -11.2305 L 59.4727 -11.2305 C 61.1816 -11.2305 62.4023 -12.207 62.4023 -13.9648 C 62.4023 -15.7227 61.1816 -16.6992 59.5703 -16.6992 L 52.3438 -16.6992 C 44.3848 -16.6992 38.7695 -21.6797 38.7695 -29.5898 C 38.7695 -37.3535 44.4824 -41.9434 52.2949 -41.9434 L 68.6523 -41.9434 L 74.2188 -42.1387 L 71.582 -40.0879 L 64.209 -32.9102 C 63.623 -32.373 63.3301 -31.6406 63.3301 -30.9082 C 63.3301 -29.2969 64.502 -28.125 66.0645 -28.125 C 66.8457 -28.125 67.4805 -28.418 68.0176 -28.9551 L 81.0547 -42.2363 C 81.6895 -42.8711 82.1289 -43.7012 82.1289 -44.6289 C 82.1289 -45.6055 81.6895 -46.4355 81.0547 -47.1191 L 68.0664 -60.3027 C 67.5293 -60.8398 66.8945 -61.1328 66.0645 -61.1328 C 64.502 -61.1328 63.3301 -59.9609 63.3301 -58.3496 C 63.3301 -57.5195 63.6719 -56.8359 64.209 -56.3477 L 70.8984 -49.8047 L 74.2188 -47.168 L 68.6523 -47.3145 L 52.2949 -47.3145 C 41.1621 -47.3145 33.2031 -40.4297 33.2031 -29.3457 Z"/>
  </g>
  <g id="Thin-M" transform="matrix(1 0 0 1 799.806 1126)">
   <path d="M 56.6406 12.5977 C 82.9102 12.5977 104.492 -8.98438 104.492 -35.2539 C 104.492 -61.5723 82.9102 -83.1543 56.5918 -83.1543 C 30.3223 -83.1543 8.74023 -61.5723 8.74023 -35.2539 C 8.74023 -8.98438 30.3223 12.5977 56.6406 12.5977 Z M 56.6406 8.88672 C 32.2266 8.88672 12.4512 -10.8887 12.4512 -35.2539 C 12.4512 -59.6191 32.2266 -79.4434 56.5918 -79.4434 C 81.0059 -79.4434 100.781 -59.6191 100.781 -35.2539 C 100.781 -10.8887 81.0059 8.88672 56.6406 8.88672 Z M 33.2031 -29.4434 C 33.2031 -19.2383 40.5273 -12.5488 51.2695 -12.5488 L 59.082 -12.5488 C 60.1074 -12.5488 60.8398 -13.2324 60.8398 -14.3066 C 60.8398 -15.3809 60.1074 -16.0156 59.082 -16.0156 L 51.2695 -16.0156 C 42.5781 -16.0156 36.6699 -21.3379 36.6699 -29.4922 C 36.6699 -37.6465 42.5781 -42.8223 51.2207 -42.8223 L 70.0195 -42.8223 L 75.2441 -42.9688 L 72.8516 -41.0645 L 63.8184 -32.1289 C 63.4277 -31.7383 63.1836 -31.2988 63.1836 -30.7617 C 63.1836 -29.7363 63.8672 -29.0039 64.9414 -29.0039 C 65.4785 -29.0039 65.918 -29.1992 66.2598 -29.541 L 79.1992 -42.7734 C 79.6875 -43.2617 79.9805 -43.8477 79.9805 -44.5312 C 79.9805 -45.2148 79.6875 -45.8496 79.1992 -46.2891 L 66.2598 -59.5215 C 65.918 -59.8633 65.4785 -60.0586 64.9414 -60.0586 C 63.8672 -60.0586 63.1836 -59.3262 63.1836 -58.3008 C 63.1836 -57.7148 63.4766 -57.2754 63.8184 -56.9336 L 72.6074 -48.2422 L 75.2441 -46.0938 L 70.0195 -46.2402 L 51.2207 -46.2402 C 40.5273 -46.2402 33.2031 -39.5996 33.2031 -29.4434 Z"/>
  </g>
  <g id="Ultralight-M" transform="matrix(1 0 0 1 503.656 1126)">
   <path d="M 56.0547 12.0605 C 82.0801 12.0605 103.369 -9.22852 103.369 -35.2539 C 103.369 -61.2793 82.0801 -82.5684 56.0547 -82.5684 C 30.0293 -82.5684 8.74023 -61.2793 8.74023 -35.2539 C 8.74023 -9.22852 30.0293 12.0605 56.0547 12.0605 Z M 56.0547 9.66797 C 31.2988 9.66797 11.1328 -10.498 11.1328 -35.2539 C 11.1328 -60.0586 31.2988 -80.1758 56.0547 -80.1758 C 80.8594 -80.1758 100.977 -60.0586 100.977 -35.2539 C 100.977 -10.498 80.8594 9.66797 56.0547 9.66797 Z M 33.1543 -29.4922 C 33.1543 -19.7266 40.1855 -13.2324 50.6836 -13.2324 L 58.8379 -13.2324 C 59.5703 -13.2324 60.0098 -13.7207 60.0098 -14.4531 C 60.0098 -15.1855 59.5703 -15.6738 58.8379 -15.6738 L 50.6836 -15.6738 C 41.6504 -15.6738 35.5957 -21.1426 35.5957 -29.4434 C 35.5957 -37.7441 41.6504 -43.2617 50.6836 -43.2617 L 70.7031 -43.2617 L 75.7812 -43.4082 L 73.4863 -41.5527 L 63.623 -31.7383 C 63.3301 -31.4453 63.0859 -31.1523 63.0859 -30.7129 C 63.0859 -29.9805 63.5742 -29.4434 64.3555 -29.4434 C 64.7949 -29.4434 65.0879 -29.6387 65.332 -29.8828 L 78.2715 -43.0664 C 78.6621 -43.457 78.9062 -43.9453 78.9062 -44.4824 C 78.9062 -45.0195 78.6621 -45.5078 78.2715 -45.8984 L 65.332 -59.082 C 65.0879 -59.3262 64.7949 -59.5215 64.3555 -59.5215 C 63.5742 -59.5215 63.0859 -58.9844 63.0859 -58.252 C 63.0859 -57.8125 63.3301 -57.5195 63.623 -57.2266 L 73.4863 -47.4121 L 75.7812 -45.5566 L 70.7031 -45.7031 L 50.6836 -45.7031 C 40.1855 -45.7031 33.1543 -39.209 33.1543 -29.4922 Z"/>
  </g>
  <g id="Black-S" transform="matrix(1 0 0 1 2884.57 696)">
   <path d="M 48.8281 6.78711 C 71.9727 6.78711 90.8203 -12.0605 90.8203 -35.2051 C 90.8203 -58.3496 71.9727 -77.1973 48.8281 -77.1973 C 25.6836 -77.1973 6.83594 -58.3496 6.83594 -35.2051 C 6.83594 -12.0605 25.6836 6.78711 48.8281 6.78711 Z M 48.8281 -7.37305 C 33.4473 -7.37305 20.9961 -19.8242 20.9961 -35.2051 C 20.9961 -50.5859 33.4473 -63.0371 48.8281 -63.0371 C 64.209 -63.0371 76.6602 -50.5859 76.6602 -35.2051 C 76.6602 -19.8242 64.209 -7.37305 48.8281 -7.37305 Z M 29.0527 -31.2988 C 29.0527 -22.0703 35.2539 -15.8691 44.5312 -15.8691 L 50.293 -15.8691 C 53.0762 -15.8691 54.9316 -17.5781 54.9316 -20.1172 C 54.9316 -22.5586 53.0273 -24.1699 50.2441 -24.1699 L 44.5312 -24.1699 C 40.2832 -24.1699 37.5488 -27.0508 37.5488 -31.2988 C 37.5488 -35.6934 40.332 -38.6719 44.6289 -38.6719 L 55.5176 -38.6719 L 57.6172 -38.9648 L 55.5176 -37.5488 L 52.002 -34.9121 C 51.1719 -34.2773 50.7812 -33.3496 50.7812 -32.4707 C 50.7812 -30.4688 52.6367 -28.7109 54.541 -28.7109 C 55.4688 -28.7109 56.4453 -29.0527 57.1289 -29.7363 L 67.4805 -40.1367 C 68.2129 -40.8691 68.5547 -41.8457 68.5547 -42.7246 C 68.5547 -43.7012 68.1641 -44.5801 67.4805 -45.3125 L 57.1289 -55.7617 C 56.4453 -56.4941 55.5176 -56.8359 54.6387 -56.8359 C 52.7344 -56.8359 50.8789 -55.0293 50.8789 -53.0762 C 50.8789 -52.1973 51.2207 -51.2695 52.002 -50.5859 L 55.5176 -47.5098 L 57.6172 -46.0938 L 55.5176 -46.3867 L 44.6289 -46.3867 C 35.3027 -46.3867 29.0527 -40.332 29.0527 -31.2988 Z"/>
  </g>
  <g id="Heavy-S" transform="matrix(1 0 0 1 2588.47 696)">
   <path d="M 48.2422 6.15234 C 70.9961 6.15234 89.5996 -12.4512 89.5996 -35.2051 C 89.5996 -57.959 70.9961 -76.6113 48.1934 -76.6113 C 25.4395 -76.6113 6.83594 -57.959 6.83594 -35.2051 C 6.83594 -12.4512 25.4395 6.15234 48.2422 6.15234 Z M 48.2422 -6.39648 C 32.2754 -6.39648 19.4336 -19.2871 19.4336 -35.2051 C 19.4336 -51.1719 32.2754 -64.0137 48.1934 -64.0137 C 64.1602 -64.0137 77.002 -51.1719 77.0508 -35.2051 C 77.0508 -19.2871 64.1602 -6.39648 48.2422 -6.39648 Z M 28.3203 -31.1035 C 28.3203 -21.8262 34.7168 -15.7227 43.9453 -15.7227 L 49.5117 -15.7227 C 52.0996 -15.7227 53.8574 -17.2363 53.8574 -19.6777 C 53.8574 -22.0215 52.0508 -23.4863 49.5117 -23.4863 L 43.9453 -23.4863 C 39.4043 -23.4863 36.3281 -26.5625 36.3281 -31.2012 C 36.3281 -35.9375 39.4531 -38.916 43.9941 -38.916 L 54.7852 -38.916 L 57.5195 -39.1602 L 55.3711 -37.6953 L 51.6602 -34.7168 C 50.8789 -34.1309 50.5371 -33.2031 50.5371 -32.373 C 50.5371 -30.4199 52.2949 -28.7109 54.1504 -28.7109 C 55.0293 -28.7109 55.957 -29.0527 56.6406 -29.7363 L 66.9434 -40.1367 C 67.6758 -40.8691 68.0176 -41.7969 68.0176 -42.7246 C 68.0176 -43.7012 67.627 -44.5801 66.9434 -45.3125 L 56.6406 -55.7129 C 55.957 -56.4453 55.0781 -56.7871 54.1992 -56.7871 C 52.3438 -56.7871 50.5859 -55.0781 50.5859 -53.1738 C 50.5859 -52.2949 50.9766 -51.3672 51.709 -50.7324 L 55.127 -47.6562 L 57.5195 -45.9961 L 54.7852 -46.2402 L 43.9941 -46.2402 C 34.7168 -46.2402 28.3203 -40.2832 28.3203 -31.1035 Z"/>
  </g>
  <g id="Bold-S" transform="matrix(1 0 0 1 2292.44 696)">
   <path d="M 47.5586 5.46875 C 69.873 5.46875 88.2324 -12.8906 88.2324 -35.2539 C 88.2324 -57.5684 69.873 -75.9277 47.5098 -75.9277 C 25.1953 -75.9277 6.83594 -57.5684 6.83594 -35.2539 C 6.83594 -12.8906 25.1953 5.46875 47.5586 5.46875 Z M 47.5586 -5.32227 C 30.957 -5.32227 17.6758 -18.6523 17.6758 -35.2539 C 17.6758 -51.8066 30.957 -65.1367 47.5098 -65.1367 C 64.1113 -65.1367 77.4414 -51.8066 77.4414 -35.2539 C 77.4414 -18.6523 64.1113 -5.32227 47.5586 -5.32227 Z M 27.5391 -30.9082 C 27.5391 -21.5332 34.082 -15.5273 43.2617 -15.5273 L 48.6328 -15.5273 C 51.0254 -15.5273 52.6855 -16.8945 52.6855 -19.1895 C 52.6855 -21.4355 50.9766 -22.7539 48.6816 -22.7539 L 43.2617 -22.7539 C 38.3789 -22.7539 34.9609 -26.0254 34.9609 -31.1035 C 34.9609 -36.1816 38.4766 -39.1602 43.3105 -39.1602 L 54.0039 -39.1602 L 57.373 -39.4043 L 55.1758 -37.8418 L 51.3184 -34.5703 C 50.5859 -33.9355 50.2441 -33.0566 50.2441 -32.2266 C 50.2441 -30.3223 51.8555 -28.7598 53.6621 -28.7598 C 54.5898 -28.7598 55.4199 -29.0527 56.0547 -29.7363 L 66.3574 -40.1367 C 67.0898 -40.8691 67.4316 -41.7969 67.4316 -42.7246 C 67.4316 -43.7012 67.041 -44.5801 66.3574 -45.3125 L 56.1035 -55.7129 C 55.4688 -56.3965 54.6387 -56.6895 53.7598 -56.6895 C 51.9043 -56.6895 50.293 -55.127 50.293 -53.2227 C 50.293 -52.3438 50.6836 -51.5137 51.3672 -50.8789 L 54.6875 -47.8516 L 57.373 -45.8496 L 54.0039 -46.0449 L 43.3105 -46.0449 C 34.082 -46.0449 27.5391 -40.1855 27.5391 -30.9082 Z"/>
  </g>
  <g id="Semibold-S" transform="matrix(1 0 0 1 1996.2 696)">
   <path d="M 47.0703 4.98047 C 69.0918 4.98047 87.3047 -13.1836 87.3047 -35.2539 C 87.3047 -57.2754 69.0918 -75.4883 47.0215 -75.4883 C 25 -75.4883 6.83594 -57.2754 6.83594 -35.2539 C 6.83594 -13.1836 25.0488 4.98047 47.0703 4.98047 Z M 47.0703 -4.58984 C 30.0781 -4.58984 16.4551 -18.2129 16.4551 -35.2539 C 16.4551 -52.2461 30.0293 -65.8691 47.0215 -65.8691 C 64.0625 -65.8691 77.6855 -52.2461 77.7344 -35.2539 C 77.7344 -18.2129 64.0625 -4.58984 47.0703 -4.58984 Z M 27.002 -30.7617 C 27.002 -21.3379 33.6914 -15.3809 42.8223 -15.3809 L 48.0469 -15.3809 C 50.2441 -15.3809 51.8555 -16.6504 51.8555 -18.8477 C 51.8555 -20.9961 50.2441 -22.2656 48.0957 -22.2656 L 42.8223 -22.2656 C 37.6953 -22.2656 34.0332 -25.6348 34.0332 -31.0059 C 34.0332 -36.3281 37.793 -39.3555 42.8223 -39.3555 L 53.4668 -39.3555 L 57.3242 -39.5508 L 55.0293 -37.9395 L 51.0742 -34.4238 C 50.3906 -33.8379 50.0488 -32.959 50.0488 -32.1289 C 50.0488 -30.2734 51.6113 -28.7598 53.3691 -28.7598 C 54.248 -28.7598 55.0293 -29.1016 55.6641 -29.7363 L 65.918 -40.1367 C 66.6504 -40.8691 67.041 -41.748 67.041 -42.7246 C 67.041 -43.7012 66.6504 -44.5801 65.918 -45.3125 L 55.7129 -55.6641 C 55.0781 -56.3477 54.2969 -56.6406 53.418 -56.6406 C 51.6113 -56.6406 50.0977 -55.127 50.0977 -53.3203 C 50.0977 -52.3926 50.4883 -51.5625 51.123 -50.9766 L 54.3945 -47.9492 L 57.3242 -45.752 L 53.4668 -45.9473 L 42.8223 -45.9473 C 33.6426 -45.9473 27.002 -40.1367 27.002 -30.7617 Z"/>
  </g>
  <g id="Medium-S" transform="matrix(1 0 0 1 1699.83 696)">
   <path d="M 46.7285 4.63867 C 68.5547 4.63867 86.6211 -13.4277 86.6211 -35.2539 C 86.6211 -57.0801 68.5059 -75.1465 46.6797 -75.1465 C 24.8535 -75.1465 6.83594 -57.0801 6.83594 -35.2539 C 6.83594 -13.4277 24.9023 4.63867 46.7285 4.63867 Z M 46.7285 -4.00391 C 29.3945 -4.00391 15.5273 -17.9199 15.5273 -35.2539 C 15.5273 -52.5879 29.3457 -66.4551 46.6797 -66.4551 C 64.0137 -66.4551 77.8809 -52.5879 77.9297 -35.2539 C 77.9785 -17.9199 64.0625 -4.00391 46.7285 -4.00391 Z M 26.5625 -30.6641 C 26.5625 -21.1914 33.3496 -15.2832 42.4805 -15.2832 L 47.6074 -15.2832 C 49.707 -15.2832 51.2207 -16.4551 51.2207 -18.6035 C 51.2207 -20.7031 49.6582 -21.875 47.6562 -21.875 L 42.4805 -21.875 C 37.207 -21.875 33.3496 -25.3418 33.3496 -30.957 C 33.3496 -36.4746 37.3047 -39.4531 42.4316 -39.4531 L 53.0273 -39.4531 L 57.2266 -39.6973 L 54.9805 -38.0371 L 50.8789 -34.3262 C 50.2441 -33.7402 49.9023 -32.8613 49.9023 -32.0801 C 49.9023 -30.2246 51.3672 -28.8086 53.125 -28.8086 C 54.0039 -28.8086 54.7852 -29.1016 55.3711 -29.7363 L 65.625 -40.1367 C 66.3574 -40.8691 66.748 -41.748 66.748 -42.7246 C 66.748 -43.7012 66.3086 -44.5801 65.625 -45.3125 L 55.4199 -55.6641 C 54.7852 -56.2988 54.0527 -56.5918 53.1738 -56.5918 C 51.416 -56.5918 49.9512 -55.1758 49.9512 -53.3691 C 49.9512 -52.4414 50.293 -51.6113 50.9277 -51.0742 L 54.1504 -48.0469 L 57.2266 -45.6543 L 53.0273 -45.8496 L 42.4316 -45.8496 C 33.3008 -45.8496 26.5625 -40.0879 26.5625 -30.6641 Z"/>
  </g>
  <g id="Regular-S" transform="matrix(1 0 0 1 1403.58 696)">
   <path d="M 46.2402 4.15039 C 67.7734 4.15039 85.6934 -13.7207 85.6934 -35.2539 C 85.6934 -56.7871 67.7246 -74.6582 46.1914 -74.6582 C 24.707 -74.6582 6.83594 -56.7871 6.83594 -35.2539 C 6.83594 -13.7207 24.7559 4.15039 46.2402 4.15039 Z M 46.2402 -3.27148 C 28.5156 -3.27148 14.3555 -17.4805 14.3555 -35.2539 C 14.3555 -53.0273 28.4668 -67.2363 46.1914 -67.2363 C 63.9648 -67.2363 78.1738 -53.0273 78.2227 -35.2539 C 78.2715 -17.4805 64.0137 -3.27148 46.2402 -3.27148 Z M 26.0254 -30.5176 C 26.0254 -20.9961 32.9102 -15.1367 41.9922 -15.1367 L 47.0215 -15.1367 C 48.9258 -15.1367 50.3906 -16.2109 50.3906 -18.2617 C 50.3906 -20.2637 48.9258 -21.3379 47.1191 -21.3379 L 41.9922 -21.3379 C 36.5234 -21.3379 32.4219 -24.9512 32.4219 -30.9082 C 32.4219 -36.6699 36.6211 -39.6484 41.9434 -39.6484 L 52.4902 -39.6484 L 57.1289 -39.8438 L 54.834 -38.1348 L 50.6348 -34.1797 C 50.0488 -33.5938 49.7559 -32.7637 49.7559 -31.9824 C 49.7559 -30.1758 51.123 -28.8086 52.7832 -28.8086 C 53.7109 -28.8086 54.3945 -29.1016 55.0293 -29.6875 L 65.2344 -40.1367 C 65.918 -40.8691 66.3574 -41.6992 66.3574 -42.7246 C 66.3574 -43.7012 65.918 -44.6289 65.2344 -45.3125 L 55.0781 -55.6152 C 54.4434 -56.2988 53.7598 -56.543 52.832 -56.543 C 51.123 -56.543 49.7559 -55.1758 49.7559 -53.418 C 49.7559 -52.4902 50.0977 -51.709 50.6836 -51.1719 L 53.8574 -48.1445 L 57.1289 -45.5566 L 52.4902 -45.7031 L 41.9434 -45.7031 C 32.8613 -45.7031 26.0254 -40.0391 26.0254 -30.5176 Z"/>
  </g>
  <g id="Light-S" transform="matrix(1 0 0 1 1107.6 696)">
   <path d="M 45.5078 3.41797 C 66.6992 3.41797 84.2285 -14.0625 84.2285 -35.2539 C 84.2285 -56.4453 66.6504 -73.9258 45.5078 -73.9258 C 24.3164 -73.9258 6.83594 -56.4453 6.83594 -35.2539 C 6.83594 -14.0625 24.3652 3.41797 45.5078 3.41797 Z M 45.5078 -2.29492 C 27.2461 -2.29492 12.5977 -16.9922 12.5977 -35.2539 C 12.5977 -53.5156 27.1973 -68.2129 45.5078 -68.2129 C 63.7695 -68.2129 78.4668 -53.5156 78.5156 -35.2539 C 78.5156 -16.9922 63.8184 -2.29492 45.5078 -2.29492 Z M 26.0254 -30.5664 C 26.0254 -21.6797 32.4707 -16.0645 41.3086 -16.0645 L 46.7285 -16.0645 C 48.2422 -16.0645 49.3652 -16.8945 49.3652 -18.457 C 49.3652 -20.0195 48.2422 -20.8984 46.7773 -20.8984 L 41.3086 -20.8984 C 35.3027 -20.8984 31.0059 -24.707 31.0059 -30.8594 C 31.0059 -36.8164 35.4004 -40.2344 41.2598 -40.2344 L 53.418 -40.2344 L 57.8613 -40.3809 L 55.6641 -38.7695 L 50.3906 -33.6426 C 49.9023 -33.2031 49.6582 -32.5195 49.6582 -31.8848 C 49.6582 -30.4688 50.6836 -29.3945 52.0508 -29.3945 C 52.7832 -29.3945 53.3203 -29.6387 53.8086 -30.127 L 64.0137 -40.5273 C 64.5996 -41.1133 64.9414 -41.7969 64.9414 -42.627 C 64.9414 -43.457 64.5996 -44.1895 64.0137 -44.7754 L 53.8574 -55.0781 C 53.3691 -55.6152 52.7832 -55.8594 52.0996 -55.8594 C 50.6836 -55.8594 49.6582 -54.7852 49.6582 -53.3691 C 49.6582 -52.6367 49.9512 -52.002 50.4395 -51.6113 L 55.0293 -47.1191 L 57.8613 -44.873 L 53.418 -45.0195 L 41.2598 -45.0195 C 32.4219 -45.0195 26.0254 -39.502 26.0254 -30.5664 Z"/>
  </g>
  <g id="Thin-S" transform="matrix(1 0 0 1 811.867 696)">
   <path d="M 44.5801 2.49023 C 65.2832 2.49023 82.2754 -14.5508 82.2754 -35.2539 C 82.2754 -55.957 65.2344 -72.998 44.5312 -72.998 C 23.8281 -72.998 6.83594 -55.957 6.83594 -35.2539 C 6.83594 -14.5508 23.877 2.49023 44.5801 2.49023 Z M 44.5801 -0.927734 C 25.5859 -0.927734 10.2539 -16.3086 10.2539 -35.2539 C 10.2539 -54.1992 25.5859 -69.5801 44.5312 -69.5801 C 63.5254 -69.5801 78.8574 -54.1992 78.8574 -35.2539 C 78.8574 -16.3086 63.5254 -0.927734 44.5801 -0.927734 Z M 25.9766 -30.6641 C 25.9766 -22.5098 31.8848 -17.2363 40.332 -17.2363 L 46.3379 -17.2363 C 47.2656 -17.2363 47.9492 -17.7734 47.9492 -18.75 C 47.9492 -19.7266 47.2656 -20.3125 46.3867 -20.3125 L 40.332 -20.3125 C 33.6914 -20.3125 29.1016 -24.4141 29.1016 -30.7617 C 29.1016 -37.0605 33.7402 -41.0156 40.332 -41.0156 L 54.5898 -41.0156 L 58.7402 -41.1133 L 56.7871 -39.5996 L 50.0488 -32.959 C 49.707 -32.6172 49.5117 -32.2266 49.5117 -31.7871 C 49.5117 -30.8594 50.1465 -30.1758 51.0742 -30.1758 C 51.5625 -30.1758 51.9043 -30.3711 52.2461 -30.6641 L 62.4023 -41.0156 C 62.793 -41.4551 63.0371 -41.9434 63.0371 -42.5293 C 63.0371 -43.1152 62.793 -43.6523 62.4023 -44.043 L 52.2461 -54.3945 C 51.9531 -54.7363 51.5625 -54.8828 51.0742 -54.8828 C 50.1465 -54.8828 49.5117 -54.1992 49.5117 -53.3203 C 49.5117 -52.832 49.7559 -52.4414 50.0977 -52.0996 L 56.543 -45.7031 L 58.7402 -43.9453 L 54.5898 -44.043 L 40.332 -44.043 C 31.8848 -44.043 25.9766 -38.8184 25.9766 -30.6641 Z"/>
  </g>
  <g id="Ultralight-S" transform="matrix(1 0 0 1 515.644 696)">
   <path d="M 44.043 1.95312 C 64.502 1.95312 81.2988 -14.7949 81.2988 -35.2539 C 81.2988 -55.7129 64.502 -72.4609 44.043 -72.4609 C 23.584 -72.4609 6.83594 -55.7129 6.83594 -35.2539 C 6.83594 -14.7949 23.584 1.95312 44.043 1.95312 Z M 44.043 -0.244141 C 24.7559 -0.244141 9.08203 -15.9668 9.08203 -35.2539 C 9.08203 -54.541 24.7559 -70.2637 44.043 -70.2637 C 63.3789 -70.2637 79.0527 -54.541 79.0527 -35.2539 C 79.0527 -15.9668 63.3789 -0.244141 44.043 -0.244141 Z M 25.9766 -30.7129 C 25.9766 -22.9492 31.543 -17.8223 39.8438 -17.8223 L 46.1426 -17.8223 C 46.7773 -17.8223 47.2168 -18.2617 47.2168 -18.8965 C 47.2168 -19.5801 46.7773 -19.9707 46.1426 -19.9707 L 39.8438 -19.9707 C 32.8613 -19.9707 28.1738 -24.2676 28.1738 -30.7129 C 28.1738 -37.1582 32.8613 -41.4062 39.8438 -41.4062 L 55.1758 -41.4062 L 59.2285 -41.5039 L 57.373 -40.0391 L 49.9023 -32.6172 C 49.6094 -32.3242 49.4141 -32.0801 49.4141 -31.6895 C 49.4141 -31.0547 49.8535 -30.5664 50.5371 -30.5664 C 50.9277 -30.5664 51.1719 -30.7129 51.416 -30.957 L 61.5723 -41.3086 C 61.8652 -41.6016 62.1094 -42.041 62.1094 -42.4805 C 62.1094 -42.9688 61.8652 -43.3594 61.5723 -43.7012 L 51.416 -54.0527 C 51.1719 -54.248 50.9277 -54.3945 50.5371 -54.3945 C 49.8535 -54.3945 49.4141 -53.9062 49.4141 -53.2715 C 49.4141 -52.9297 49.6582 -52.6367 49.9023 -52.3926 L 57.3242 -44.9707 L 59.2285 -43.457 L 55.1758 -43.5547 L 39.8438 -43.5547 C 31.543 -43.5547 25.9766 -38.4766 25.9766 -30.7129 Z"/>
  </g>
 </g>
</svg>
