<?xml version="1.0" encoding="UTF-8"?>
<!--Generator: Apple Native CoreSVG 148-->
<!DOCTYPE svg
PUBLIC "-//W3C//DTD SVG 1.1//EN"
       "http://www.w3.org/Graphics/SVG/1.1/DTD/svg11.dtd">
<svg version="1.1" xmlns="http://www.w3.org/2000/svg" xmlns:xlink="http://www.w3.org/1999/xlink" width="3300" height="2200">
 <!--glyph: "uni100661.medium", point size: 100.000000, font version: "Version 16.0d11e1", template writer version: "8"-->
 <g id="Notes">
  <rect height="2200" id="artboard" style="fill:white;opacity:1" width="3300" x="0" y="0"/>
  <line id="" style="fill:none;stroke:black;opacity:1;stroke-width:0.5;" x1="263" x2="3036" y1="292" y2="292"/>
  <text style="stroke:none;fill:black;font-family:-apple-system,&quot;SF Pro Display&quot;,&quot;SF Pro Text&quot;,Helvetica,sans-serif;font-weight:bold;" transform="matrix(1 0 0 1 263 322)">Weight/Scale Variations</text>
  <text style="stroke:none;fill:black;font-family:-apple-system,&quot;SF Pro Display&quot;,&quot;SF Pro Text&quot;,Helvetica,sans-serif;text-anchor:middle;" transform="matrix(1 0 0 1 559.711 322)">Ultralight</text>
  <text style="stroke:none;fill:black;font-family:-apple-system,&quot;SF Pro Display&quot;,&quot;SF Pro Text&quot;,Helvetica,sans-serif;text-anchor:middle;" transform="matrix(1 0 0 1 856.422 322)">Thin</text>
  <text style="stroke:none;fill:black;font-family:-apple-system,&quot;SF Pro Display&quot;,&quot;SF Pro Text&quot;,Helvetica,sans-serif;text-anchor:middle;" transform="matrix(1 0 0 1 1153.13 322)">Light</text>
  <text style="stroke:none;fill:black;font-family:-apple-system,&quot;SF Pro Display&quot;,&quot;SF Pro Text&quot;,Helvetica,sans-serif;text-anchor:middle;" transform="matrix(1 0 0 1 1449.84 322)">Regular</text>
  <text style="stroke:none;fill:black;font-family:-apple-system,&quot;SF Pro Display&quot;,&quot;SF Pro Text&quot;,Helvetica,sans-serif;text-anchor:middle;" transform="matrix(1 0 0 1 1746.56 322)">Medium</text>
  <text style="stroke:none;fill:black;font-family:-apple-system,&quot;SF Pro Display&quot;,&quot;SF Pro Text&quot;,Helvetica,sans-serif;text-anchor:middle;" transform="matrix(1 0 0 1 2043.27 322)">Semibold</text>
  <text style="stroke:none;fill:black;font-family:-apple-system,&quot;SF Pro Display&quot;,&quot;SF Pro Text&quot;,Helvetica,sans-serif;text-anchor:middle;" transform="matrix(1 0 0 1 2339.98 322)">Bold</text>
  <text style="stroke:none;fill:black;font-family:-apple-system,&quot;SF Pro Display&quot;,&quot;SF Pro Text&quot;,Helvetica,sans-serif;text-anchor:middle;" transform="matrix(1 0 0 1 2636.69 322)">Heavy</text>
  <text style="stroke:none;fill:black;font-family:-apple-system,&quot;SF Pro Display&quot;,&quot;SF Pro Text&quot;,Helvetica,sans-serif;text-anchor:middle;" transform="matrix(1 0 0 1 2933.4 322)">Black</text>
  <line id="" style="fill:none;stroke:black;opacity:1;stroke-width:0.5;" x1="263" x2="3036" y1="1903" y2="1903"/>
  <g id="" transform="matrix(1 0 0 1 263 1933)">
   <path d="M 9.24805 0.830078 C 13.5547 0.830078 17.1387 -2.74414 17.1387 -7.05078 C 17.1387 -11.3574 13.5449 -14.9316 9.23828 -14.9316 C 4.94141 -14.9316 1.36719 -11.3574 1.36719 -7.05078 C 1.36719 -2.74414 4.95117 0.830078 9.24805 0.830078 Z M 9.24805 -0.654297 C 5.70312 -0.654297 2.87109 -3.49609 2.87109 -7.05078 C 2.87109 -10.6055 5.69336 -13.4473 9.23828 -13.4473 C 12.793 -13.4473 15.6348 -10.6055 15.6445 -7.05078 C 15.6543 -3.49609 12.8027 -0.654297 9.24805 -0.654297 Z M 9.22852 -3.62305 C 9.69727 -3.62305 9.9707 -3.93555 9.9707 -4.45312 L 9.9707 -6.31836 L 12.002 -6.31836 C 12.5 -6.31836 12.832 -6.57227 12.832 -7.04102 C 12.832 -7.51953 12.5195 -7.7832 12.002 -7.7832 L 9.9707 -7.7832 L 9.9707 -9.81445 C 9.9707 -10.332 9.69727 -10.6543 9.22852 -10.6543 C 8.75977 -10.6543 8.50586 -10.3125 8.50586 -9.81445 L 8.50586 -7.7832 L 6.49414 -7.7832 C 5.97656 -7.7832 5.64453 -7.51953 5.64453 -7.04102 C 5.64453 -6.57227 5.99609 -6.31836 6.49414 -6.31836 L 8.50586 -6.31836 L 8.50586 -4.45312 C 8.50586 -3.95508 8.75977 -3.62305 9.22852 -3.62305 Z"/>
  </g>
  <g id="" transform="matrix(1 0 0 1 281.506 1933)">
   <path d="M 11.709 2.91016 C 17.1582 2.91016 21.6699 -1.61133 21.6699 -7.05078 C 21.6699 -12.5 17.1484 -17.0117 11.6992 -17.0117 C 6.25977 -17.0117 1.74805 -12.5 1.74805 -7.05078 C 1.74805 -1.61133 6.26953 2.91016 11.709 2.91016 Z M 11.709 1.25 C 7.09961 1.25 3.41797 -2.44141 3.41797 -7.05078 C 3.41797 -11.6602 7.08984 -15.3516 11.6992 -15.3516 C 16.3086 -15.3516 20 -11.6602 20.0098 -7.05078 C 20.0195 -2.44141 16.3184 1.25 11.709 1.25 Z M 11.6797 -2.66602 C 12.207 -2.66602 12.5098 -3.01758 12.5098 -3.59375 L 12.5098 -6.23047 L 15.3223 -6.23047 C 15.8691 -6.23047 16.25 -6.51367 16.25 -7.03125 C 16.25 -7.55859 15.8887 -7.86133 15.3223 -7.86133 L 12.5098 -7.86133 L 12.5098 -10.6836 C 12.5098 -11.25 12.207 -11.6113 11.6797 -11.6113 C 11.1621 -11.6113 10.8789 -11.2305 10.8789 -10.6836 L 10.8789 -7.86133 L 8.07617 -7.86133 C 7.50977 -7.86133 7.13867 -7.55859 7.13867 -7.03125 C 7.13867 -6.51367 7.5293 -6.23047 8.07617 -6.23047 L 10.8789 -6.23047 L 10.8789 -3.59375 C 10.8789 -3.03711 11.1621 -2.66602 11.6797 -2.66602 Z"/>
  </g>
  <g id="" transform="matrix(1 0 0 1 304.924 1933)">
   <path d="M 14.9707 5.66406 C 21.9336 5.66406 27.6953 -0.0976562 27.6953 -7.05078 C 27.6953 -14.0137 21.9238 -19.7754 14.9609 -19.7754 C 8.00781 -19.7754 2.25586 -14.0137 2.25586 -7.05078 C 2.25586 -0.0976562 8.01758 5.66406 14.9707 5.66406 Z M 14.9707 3.84766 C 8.93555 3.84766 4.08203 -1.01562 4.08203 -7.05078 C 4.08203 -13.0957 8.92578 -17.9492 14.9609 -17.9492 C 21.0059 -17.9492 25.8594 -13.0957 25.8691 -7.05078 C 25.8789 -1.01562 21.0156 3.84766 14.9707 3.84766 Z M 14.9414 -1.38672 C 15.5176 -1.38672 15.8594 -1.77734 15.8594 -2.38281 L 15.8594 -6.13281 L 19.7754 -6.13281 C 20.3711 -6.13281 20.7812 -6.46484 20.7812 -7.02148 C 20.7812 -7.59766 20.3906 -7.93945 19.7754 -7.93945 L 15.8594 -7.93945 L 15.8594 -11.8652 C 15.8594 -12.4805 15.5176 -12.8711 14.9414 -12.8711 C 14.375 -12.8711 14.0527 -12.4609 14.0527 -11.8652 L 14.0527 -7.93945 L 10.1465 -7.93945 C 9.53125 -7.93945 9.13086 -7.59766 9.13086 -7.02148 C 9.13086 -6.46484 9.55078 -6.13281 10.1465 -6.13281 L 14.0527 -6.13281 L 14.0527 -2.38281 C 14.0527 -1.79688 14.375 -1.38672 14.9414 -1.38672 Z"/>
  </g>
  <text style="stroke:none;fill:black;font-family:-apple-system,&quot;SF Pro Display&quot;,&quot;SF Pro Text&quot;,Helvetica,sans-serif;font-weight:bold;" transform="matrix(1 0 0 1 263 1953)">Design Variations</text>
  <text style="stroke:none;fill:black;font-family:-apple-system,&quot;SF Pro Display&quot;,&quot;SF Pro Text&quot;,Helvetica,sans-serif;" transform="matrix(1 0 0 1 263 1971)">Symbols are supported in up to nine weights and three scales.</text>
  <text style="stroke:none;fill:black;font-family:-apple-system,&quot;SF Pro Display&quot;,&quot;SF Pro Text&quot;,Helvetica,sans-serif;" transform="matrix(1 0 0 1 263 1989)">For optimal layout with text and other symbols, vertically align</text>
  <text style="stroke:none;fill:black;font-family:-apple-system,&quot;SF Pro Display&quot;,&quot;SF Pro Text&quot;,Helvetica,sans-serif;" transform="matrix(1 0 0 1 263 2007)">symbols with the adjacent text.</text>
  <line id="" style="fill:none;stroke:#00AEEF;stroke-width:0.5;opacity:1.0;" x1="776" x2="776" y1="1919" y2="1933"/>
  <g id="" transform="matrix(1 0 0 1 776 1933)">
   <path d="M 3.31055 0.126953 C 3.82812 0.126953 4.08203 -0.0683594 4.26758 -0.605469 L 5.52734 -4.0625 L 11.2891 -4.0625 L 12.5488 -0.605469 C 12.7344 -0.0683594 12.9883 0.126953 13.4961 0.126953 C 14.0137 0.126953 14.3457 -0.185547 14.3457 -0.673828 C 14.3457 -0.839844 14.3164 -0.986328 14.2383 -1.20117 L 9.6582 -13.3887 C 9.43359 -13.9941 9.0332 -14.2871 8.4082 -14.2871 C 7.80273 -14.2871 7.39258 -13.9941 7.17773 -13.3984 L 2.59766 -1.19141 C 2.51953 -0.976562 2.49023 -0.830078 2.49023 -0.664062 C 2.49023 -0.175781 2.80273 0.126953 3.31055 0.126953 Z M 6.00586 -5.53711 L 8.37891 -12.1094 L 8.42773 -12.1094 L 10.8008 -5.53711 Z"/>
  </g>
  <line id="" style="fill:none;stroke:#00AEEF;stroke-width:0.5;opacity:1.0;" x1="792.836" x2="792.836" y1="1919" y2="1933"/>
  <text style="stroke:none;fill:black;font-family:-apple-system,&quot;SF Pro Display&quot;,&quot;SF Pro Text&quot;,Helvetica,sans-serif;font-weight:bold;" transform="matrix(1 0 0 1 776 1953)">Margins</text>
  <text style="stroke:none;fill:black;font-family:-apple-system,&quot;SF Pro Display&quot;,&quot;SF Pro Text&quot;,Helvetica,sans-serif;" transform="matrix(1 0 0 1 776 1971)">Leading and trailing margins on the left and right side of each symbol</text>
  <text style="stroke:none;fill:black;font-family:-apple-system,&quot;SF Pro Display&quot;,&quot;SF Pro Text&quot;,Helvetica,sans-serif;" transform="matrix(1 0 0 1 776 1989)">can be adjusted by modifying the x-location of the margin guidelines.</text>
  <text style="stroke:none;fill:black;font-family:-apple-system,&quot;SF Pro Display&quot;,&quot;SF Pro Text&quot;,Helvetica,sans-serif;" transform="matrix(1 0 0 1 776 2007)">Modifications are automatically applied proportionally to all</text>
  <text style="stroke:none;fill:black;font-family:-apple-system,&quot;SF Pro Display&quot;,&quot;SF Pro Text&quot;,Helvetica,sans-serif;" transform="matrix(1 0 0 1 776 2025)">scales and weights.</text>
  <g id="" transform="matrix(1 0 0 1 1289 1933)">
   <path d="M 2.8418 1.86523 L 4.54102 3.57422 C 5.40039 4.44336 6.38672 4.38477 7.31445 3.35938 L 17.4902 -7.85156 C 17.7539 -7.76367 18.0273 -7.7832 18.3398 -7.8418 L 19.4043 -8.03711 L 20.0684 -7.36328 L 20.0293 -6.80664 C 19.9902 -6.30859 20.1172 -5.92773 20.6055 -5.44922 L 21.3672 -4.70703 C 21.8457 -4.22852 22.4609 -4.19922 22.9297 -4.66797 L 25.8398 -7.58789 C 26.3086 -8.05664 26.2891 -8.65234 25.8105 -9.13086 L 25.0391 -9.89258 C 24.5605 -10.3711 24.1895 -10.5273 23.7109 -10.4883 L 23.1348 -10.4395 L 22.4902 -11.0742 L 22.7344 -12.1973 C 22.8613 -12.7637 22.7051 -13.2031 22.1191 -13.7891 L 19.9219 -15.9766 C 16.582 -19.2969 12.1484 -19.2188 9.25781 -16.3281 C 8.83789 -15.918 8.80859 -15.3418 9.04297 -14.9512 C 9.27734 -14.5898 9.73633 -14.3555 10.3809 -14.5215 C 11.8457 -14.8633 13.3691 -14.9219 14.7949 -13.9844 L 14.209 -12.5293 C 14.0137 -12.0508 13.9844 -11.6504 14.1113 -11.2891 L 3.04688 -0.898438 C 2.06055 0.0195312 1.98242 0.996094 2.8418 1.86523 Z M 10.752 -15.957 C 13.1836 -17.7344 16.4746 -17.4316 18.7012 -15.2051 L 21.1328 -12.793 C 21.3672 -12.5586 21.4062 -12.373 21.3379 -12.0312 L 21.0156 -10.5469 L 22.5195 -9.0625 L 23.5059 -9.12109 C 23.7598 -9.13086 23.8379 -9.11133 24.0332 -8.91602 L 24.6094 -8.33984 L 22.168 -5.89844 L 21.5918 -6.47461 C 21.3965 -6.66992 21.3672 -6.74805 21.377 -7.01172 L 21.4453 -7.98828 L 19.9512 -9.47266 L 18.4277 -9.21875 C 18.1055 -9.15039 17.959 -9.17969 17.7148 -9.41406 L 15.7129 -11.416 C 15.459 -11.6504 15.4297 -11.8164 15.5859 -12.1875 L 16.4648 -14.2773 C 14.9023 -15.7324 12.8711 -16.3574 10.8398 -15.7617 C 10.6836 -15.7227 10.625 -15.8496 10.752 -15.957 Z M 5.27344 2.30469 L 4.10156 1.14258 C 3.63281 0.683594 3.74023 0.341797 4.14062 -0.0195312 L 14.9512 -10.1953 L 16.416 -8.71094 L 6.42578 2.27539 C 6.07422 2.67578 5.74219 2.77344 5.27344 2.30469 Z"/>
  </g>
  <text style="stroke:none;fill:black;font-family:-apple-system,&quot;SF Pro Display&quot;,&quot;SF Pro Text&quot;,Helvetica,sans-serif;font-weight:bold;" transform="matrix(1 0 0 1 1289 1953)">Exporting</text>
  <text style="stroke:none;fill:black;font-family:-apple-system,&quot;SF Pro Display&quot;,&quot;SF Pro Text&quot;,Helvetica,sans-serif;" transform="matrix(1 0 0 1 1289 1971)">Symbols should be outlined when exporting to ensure the</text>
  <text style="stroke:none;fill:black;font-family:-apple-system,&quot;SF Pro Display&quot;,&quot;SF Pro Text&quot;,Helvetica,sans-serif;" transform="matrix(1 0 0 1 1289 1989)">design is preserved when submitting to Xcode.</text>
  <text id="template-version" style="stroke:none;fill:black;font-family:-apple-system,&quot;SF Pro Display&quot;,&quot;SF Pro Text&quot;,Helvetica,sans-serif;text-anchor:end;" transform="matrix(1 0 0 1 3036 1933)">Template v.2.0</text>
  <text style="stroke:none;fill:black;font-family:-apple-system,&quot;SF Pro Display&quot;,&quot;SF Pro Text&quot;,Helvetica,sans-serif;text-anchor:end;" transform="matrix(1 0 0 1 3036 1951)">Requires Xcode 12 or greater</text>
  <text style="stroke:none;fill:black;font-family:-apple-system,&quot;SF Pro Display&quot;,&quot;SF Pro Text&quot;,Helvetica,sans-serif;text-anchor:end;" transform="matrix(1 0 0 1 3036 1969)">Generated from arrow.triangle.pull</text>
  <text style="stroke:none;fill:black;font-family:-apple-system,&quot;SF Pro Display&quot;,&quot;SF Pro Text&quot;,Helvetica,sans-serif;text-anchor:end;" transform="matrix(1 0 0 1 3036 1987)">Typeset at 100 points</text>
  <text style="stroke:none;fill:black;font-family:-apple-system,&quot;SF Pro Display&quot;,&quot;SF Pro Text&quot;,Helvetica,sans-serif;" transform="matrix(1 0 0 1 263 726)">Small</text>
  <text style="stroke:none;fill:black;font-family:-apple-system,&quot;SF Pro Display&quot;,&quot;SF Pro Text&quot;,Helvetica,sans-serif;" transform="matrix(1 0 0 1 263 1156)">Medium</text>
  <text style="stroke:none;fill:black;font-family:-apple-system,&quot;SF Pro Display&quot;,&quot;SF Pro Text&quot;,Helvetica,sans-serif;" transform="matrix(1 0 0 1 263 1586)">Large</text>
 </g>
 <g id="Guides">
  <g id="H-reference" style="fill:#27AAE1;stroke:none;" transform="matrix(1 0 0 1 339 696)">
   <path d="M 0.976562 0 L 3.66211 0 L 12.9883 -24.4629 L 45.7031 -24.4629 L 55.0781 0 L 57.7148 0 L 30.6152 -70.459 L 28.125 -70.459 Z M 29.2969 -67.1387 L 29.3945 -67.1387 L 44.873 -26.709 L 13.8672 -26.709 Z"/>
  </g>
  <line id="Baseline-S" style="fill:none;stroke:#27AAE1;opacity:1;stroke-width:0.5;" x1="263" x2="3036" y1="696" y2="696"/>
  <line id="Capline-S" style="fill:none;stroke:#27AAE1;opacity:1;stroke-width:0.5;" x1="263" x2="3036" y1="625.541" y2="625.541"/>
  <g id="H-reference" style="fill:#27AAE1;stroke:none;" transform="matrix(1 0 0 1 339 1126)">
   <path d="M 0.976562 0 L 3.66211 0 L 12.9883 -24.4629 L 45.7031 -24.4629 L 55.0781 0 L 57.7148 0 L 30.6152 -70.459 L 28.125 -70.459 Z M 29.2969 -67.1387 L 29.3945 -67.1387 L 44.873 -26.709 L 13.8672 -26.709 Z"/>
  </g>
  <line id="Baseline-M" style="fill:none;stroke:#27AAE1;opacity:1;stroke-width:0.5;" x1="263" x2="3036" y1="1126" y2="1126"/>
  <line id="Capline-M" style="fill:none;stroke:#27AAE1;opacity:1;stroke-width:0.5;" x1="263" x2="3036" y1="1055.54" y2="1055.54"/>
  <g id="H-reference" style="fill:#27AAE1;stroke:none;" transform="matrix(1 0 0 1 339 1556)">
   <path d="M 0.976562 0 L 3.66211 0 L 12.9883 -24.4629 L 45.7031 -24.4629 L 55.0781 0 L 57.7148 0 L 30.6152 -70.459 L 28.125 -70.459 Z M 29.2969 -67.1387 L 29.3945 -67.1387 L 44.873 -26.709 L 13.8672 -26.709 Z"/>
  </g>
  <line id="Baseline-L" style="fill:none;stroke:#27AAE1;opacity:1;stroke-width:0.5;" x1="263" x2="3036" y1="1556" y2="1556"/>
  <line id="Capline-L" style="fill:none;stroke:#27AAE1;opacity:1;stroke-width:0.5;" x1="263" x2="3036" y1="1485.54" y2="1485.54"/>
  <line id="left-margin" style="fill:none;stroke:#00AEEF;stroke-width:0.5;opacity:1.0;" x1="1411.03" x2="1411.03" y1="1030.79" y2="1150.12"/>
  <line id="right-margin" style="fill:none;stroke:#00AEEF;stroke-width:0.5;opacity:1.0;" x1="1488.66" x2="1488.66" y1="1030.79" y2="1150.12"/>
 </g>
 <g id="Symbols">
  <g id="Black-L" transform="matrix(1 0 0 1 2879.98 1556)">
   <path d="M 42.0898 25.6348 C 47.5586 25.6348 51.123 21.7285 51.123 15.625 L 51.123 -12.0605 C 57.5684 -5.12695 66.1621 0.390625 77.4902 4.93164 C 83.4473 7.42188 88.4277 4.39453 90.1367 0.0488281 C 91.7969 -4.00391 90.4297 -9.22852 84.2773 -12.1094 C 64.8438 -21.0449 51.123 -31.7383 51.123 -54.0039 L 51.123 -58.9844 L 62.0605 -58.9844 C 68.0664 -58.9844 69.9219 -64.2578 65.9668 -69.6777 L 47.8027 -94.4824 C 44.6777 -98.7305 39.502 -98.6328 36.4258 -94.4824 L 18.1641 -69.6777 C 14.2578 -64.3555 15.9668 -58.9844 22.1191 -58.9844 L 33.0078 -58.9844 L 33.0078 15.625 C 33.0078 21.7285 36.5723 25.6348 42.0898 25.6348 Z"/>
  </g>
  <g id="Heavy-L" transform="matrix(1 0 0 1 2584.2 1556)">
   <path d="M 40.2344 25 C 45.1172 25 48.2422 21.582 48.2422 16.1621 L 48.2422 -14.5508 C 55.0781 -6.49414 64.7461 -0.195312 77.1973 4.54102 C 82.4707 6.68945 86.8652 4.00391 88.3301 0.146484 C 89.8438 -3.4668 88.623 -8.00781 83.2031 -10.5469 C 62.9883 -19.3848 48.2422 -31.2988 48.2422 -53.6133 L 48.2422 -61.6699 L 58.8379 -61.6699 C 64.4043 -61.6699 66.0645 -66.3574 62.5488 -71.1914 L 45.3613 -94.8242 C 42.5293 -98.7305 37.9883 -98.6328 35.1562 -94.8242 L 17.9688 -71.2402 C 14.4043 -66.4062 15.9668 -61.6699 21.6309 -61.6699 L 32.2266 -61.6699 L 32.2266 16.1621 C 32.2266 21.582 35.3516 25 40.2344 25 Z"/>
  </g>
  <g id="Bold-L" transform="matrix(1 0 0 1 2288.51 1556)">
   <path d="M 38.1836 24.2188 C 42.4316 24.2188 45.0195 21.3867 45.0195 16.7969 L 45.0195 -17.4316 C 52.1484 -8.10547 63.1348 -0.830078 76.9043 4.05273 C 81.3965 5.81055 85.1074 3.51562 86.377 0.292969 C 87.6465 -2.7832 86.6211 -6.68945 81.9824 -8.78906 C 60.8887 -17.4805 45.0195 -30.8105 45.0195 -53.1738 L 45.0195 -64.6973 L 55.2734 -64.6973 C 60.2539 -64.6973 61.7188 -68.7012 58.6426 -72.9492 L 42.627 -95.2637 C 40.1367 -98.6816 36.2305 -98.6328 33.7402 -95.2637 L 17.6758 -72.9492 C 14.5996 -68.7012 16.0156 -64.6973 21.0938 -64.6973 L 31.3477 -64.6973 L 31.3477 16.7969 C 31.3477 21.3867 33.9355 24.2188 38.1836 24.2188 Z"/>
  </g>
  <g id="Semibold-L" transform="matrix(1 0 0 1 1992.51 1556)">
   <path d="M 36.7676 23.6816 C 40.5273 23.6816 42.7734 21.2402 42.7734 17.2363 L 42.7734 -19.5801 C 50.0488 -9.27734 62.0117 -1.2207 76.6602 3.71094 C 80.6641 5.22461 83.8867 3.17383 85.0098 0.390625 C 86.1328 -2.34375 85.2539 -5.81055 81.1523 -7.61719 C 59.4727 -16.1621 42.7734 -30.4688 42.7734 -52.8809 L 42.7734 -66.748 L 52.7832 -66.748 C 57.4219 -66.748 58.7402 -70.3125 56.0059 -74.1211 L 40.7227 -95.5078 C 38.5254 -98.6328 35.0586 -98.6816 32.7637 -95.5078 L 17.5293 -74.1699 C 14.7461 -70.3125 16.0156 -66.748 20.7031 -66.748 L 30.7129 -66.748 L 30.7129 17.2363 C 30.7129 21.2402 32.959 23.6816 36.7676 23.6816 Z"/>
  </g>
  <g id="Medium-L" transform="matrix(1 0 0 1 1696.34 1556)">
   <path d="M 35.6934 23.291 C 39.1113 23.291 41.1133 21.1426 41.1133 17.5293 L 41.1133 -21.2402 C 48.4375 -10.2051 61.084 -1.5625 76.5137 3.4668 C 80.0781 4.78516 83.0078 2.92969 83.9844 0.439453 C 85.0098 -2.00195 84.1797 -5.07812 80.5664 -6.68945 C 58.3984 -15.1855 41.1133 -30.2246 41.1133 -52.6367 L 41.1133 -68.3105 L 50.9277 -68.3105 C 55.2246 -68.3105 56.4941 -71.5332 53.9551 -75.0488 L 39.3066 -95.752 C 37.2559 -98.6328 34.1309 -98.6816 32.0312 -95.752 L 17.3828 -75.0977 C 14.8438 -71.5332 16.0645 -68.3105 20.4102 -68.3105 L 30.2246 -68.3105 L 30.2246 17.5293 C 30.2246 21.1426 32.2266 23.291 35.6934 23.291 Z"/>
  </g>
  <g id="Regular-L" transform="matrix(1 0 0 1 1400.33 1556)">
   <path d="M 34.2773 22.7539 C 37.2559 22.7539 38.916 21.0449 38.916 17.9688 L 38.916 -23.5352 C 46.1914 -11.4746 59.9121 -1.95312 76.3184 3.125 C 79.3457 4.19922 81.7871 2.63672 82.6172 0.537109 C 83.4961 -1.5625 82.8125 -4.19922 79.7363 -5.51758 C 56.9824 -13.916 38.916 -29.8828 38.916 -52.3438 L 38.916 -70.3613 L 48.4863 -70.3613 C 52.4414 -70.3613 53.5156 -73.0957 51.3184 -76.2207 L 37.4512 -95.9961 C 35.6445 -98.6328 32.959 -98.6816 31.1035 -95.9961 L 17.2363 -76.2695 C 14.9414 -73.0957 16.0645 -70.3613 20.0684 -70.3613 L 29.6387 -70.3613 L 29.6387 17.9688 C 29.6387 21.0449 31.2988 22.7539 34.2773 22.7539 Z"/>
  </g>
  <g id="Light-L" transform="matrix(1 0 0 1 1104.35 1556)">
   <path d="M 33.252 21.582 C 35.498 21.582 36.7188 20.2637 36.7188 17.9688 L 36.7188 -26.6113 C 43.9941 -12.8418 59.3262 -2.29492 76.5625 2.49023 C 78.9062 3.27148 80.7129 2.00195 81.25 0.439453 C 81.8359 -1.17188 81.2988 -3.125 78.9062 -4.05273 C 56.9824 -10.8398 36.7188 -28.3203 36.7188 -50.1953 L 36.7188 -71.8262 L 47.168 -71.8262 C 50.3906 -71.8262 51.416 -74.0723 49.5117 -76.7578 L 35.9375 -96.1426 C 34.375 -98.3398 32.1777 -98.3887 30.5664 -96.1426 L 17.041 -76.8066 C 15.0879 -74.0723 16.1133 -71.8262 19.3359 -71.8262 L 29.7852 -71.8262 L 29.7852 17.9688 C 29.7852 20.2637 31.0547 21.582 33.252 21.582 Z"/>
  </g>
  <g id="Thin-L" transform="matrix(1 0 0 1 808.644 1556)">
   <path d="M 31.9336 20.0684 C 33.1543 20.0684 33.8867 19.2871 33.8867 17.9688 L 33.8867 -31.25 C 40.7715 -14.8438 58.4961 -2.68555 76.9043 1.70898 C 78.3203 2.05078 79.248 1.2207 79.4434 0.292969 C 79.6387 -0.683594 79.248 -1.70898 77.8809 -2.09961 C 56.9824 -6.83594 33.8867 -26.2695 33.8867 -47.3633 L 33.8867 -73.7793 L 45.459 -73.7793 C 47.7539 -73.7793 48.584 -75.3906 47.1191 -77.4414 L 33.9355 -96.2891 C 32.7637 -97.998 31.1523 -97.998 29.9316 -96.2891 L 16.748 -77.4902 C 15.2832 -75.3906 16.1133 -73.7793 18.4082 -73.7793 L 29.9805 -73.7793 L 29.9805 17.9688 C 29.9805 19.2871 30.7129 20.0684 31.9336 20.0684 Z"/>
  </g>
  <g id="Ultralight-L" transform="matrix(1 0 0 1 512.445 1556)">
   <path d="M 31.25 19.2871 C 31.9824 19.2871 32.4219 18.75 32.4219 17.9688 L 32.4219 -33.9844 C 38.8672 -16.0156 58.0078 -2.83203 77.0996 1.26953 C 77.9785 1.41602 78.5156 0.78125 78.5156 0.244141 C 78.4668 -0.390625 78.2227 -0.976562 77.2949 -1.07422 C 56.9824 -4.73633 32.4219 -25.1953 32.4219 -45.8984 L 32.4219 -74.7559 L 44.5801 -74.7559 C 46.3379 -74.7559 47.1191 -76.0254 45.8496 -77.832 L 32.959 -96.3379 C 31.8848 -97.8516 30.6152 -97.8027 29.5898 -96.3379 L 16.6504 -77.832 C 15.3809 -76.0254 16.1621 -74.7559 17.9199 -74.7559 L 30.127 -74.7559 L 30.127 17.9688 C 30.127 18.75 30.5176 19.2871 31.25 19.2871 Z"/>
  </g>
  <g id="Black-M" transform="matrix(1 0 0 1 2891.16 1126)">
   <path d="M 34.5703 12.2559 C 39.209 12.2559 42.3828 8.74023 42.3828 3.4668 L 42.3828 -15.2832 C 47.0703 -10.6934 52.832 -7.12891 60.5469 -3.80859 C 65.7227 -1.61133 70.0684 -4.24805 71.4844 -8.10547 C 72.9004 -11.6211 71.6797 -16.0645 66.3574 -18.6035 C 52.7344 -24.9023 42.3828 -32.2266 42.3828 -49.1699 L 42.3828 -50.7812 L 51.709 -50.7812 C 56.6895 -50.7812 58.3008 -55.4688 54.834 -60.1074 L 39.5508 -80.7129 C 36.8164 -84.375 32.3242 -84.2285 29.6875 -80.7129 L 14.3066 -60.1074 C 10.8887 -55.5176 12.3535 -50.7812 17.4316 -50.7812 L 26.7578 -50.7812 L 26.7578 3.4668 C 26.7578 8.74023 29.9316 12.2559 34.5703 12.2559 Z"/>
  </g>
  <g id="Heavy-M" transform="matrix(1 0 0 1 2595.26 1126)">
   <path d="M 32.8125 11.8164 C 37.0117 11.8164 39.7461 8.74023 39.7461 4.05273 L 39.7461 -17.2852 C 44.8242 -11.8652 51.4648 -7.61719 60.2051 -4.15039 C 64.7949 -2.19727 68.6523 -4.58984 69.9219 -7.95898 C 71.1914 -11.084 70.1172 -15.0879 65.3809 -17.2852 C 50.7324 -23.8281 39.7461 -32.1777 39.7461 -49.3164 L 39.7461 -53.3691 L 48.5352 -53.3691 C 53.1738 -53.3691 54.6387 -57.4707 51.5137 -61.6699 L 37.2559 -81.1035 C 34.8145 -84.375 30.8105 -84.3262 28.418 -81.1035 L 14.1113 -61.6699 C 11.0352 -57.5195 12.3535 -53.3691 17.0898 -53.3691 L 25.8301 -53.3691 L 25.8301 4.05273 C 25.8301 8.74023 28.6133 11.8164 32.8125 11.8164 Z"/>
  </g>
  <g id="Bold-M" transform="matrix(1 0 0 1 2299.45 1126)">
   <path d="M 30.8594 11.3281 C 34.5215 11.3281 36.8652 8.78906 36.8652 4.73633 L 36.8652 -19.6289 C 42.2363 -13.2324 49.9023 -8.1543 59.7656 -4.49219 C 63.7207 -2.88086 67.041 -4.88281 68.1641 -7.76367 C 69.2871 -10.498 68.3594 -13.916 64.3066 -15.8203 C 48.4375 -22.6562 36.8652 -32.1289 36.8652 -49.4629 L 36.8652 -56.2012 L 45.0195 -56.2012 C 49.2188 -56.2012 50.4883 -59.7168 47.8027 -63.3789 L 34.7168 -81.4941 C 32.5684 -84.4238 29.1504 -84.375 27.002 -81.4941 L 13.8672 -63.4277 C 11.1816 -59.7656 12.4023 -56.2012 16.6992 -56.2012 L 24.8047 -56.2012 L 24.8047 4.73633 C 24.8047 8.78906 27.1484 11.3281 30.8594 11.3281 Z"/>
  </g>
  <g id="Semibold-M" transform="matrix(1 0 0 1 2003.37 1126)">
   <path d="M 29.4922 10.9863 C 32.8613 10.9863 34.8633 8.78906 34.8633 5.17578 L 34.8633 -21.3379 C 40.3809 -14.209 48.7793 -8.54492 59.4727 -4.73633 C 62.9883 -3.36914 65.918 -5.12695 66.9434 -7.66602 C 67.9688 -10.0586 67.1875 -13.1348 63.5254 -14.7949 C 46.875 -21.875 34.8633 -32.0801 34.8633 -49.5605 L 34.8633 -58.2031 L 42.5781 -58.2031 C 46.5332 -58.2031 47.6562 -61.2793 45.2637 -64.5996 L 32.959 -81.7871 C 31.0059 -84.4727 27.9785 -84.4238 26.0742 -81.7871 L 13.7207 -64.6484 C 11.3281 -61.3281 12.4023 -58.2031 16.4062 -58.2031 L 24.1211 -58.2031 L 24.1211 5.17578 C 24.1211 8.78906 26.123 10.9863 29.4922 10.9863 Z"/>
  </g>
  <g id="Medium-M" transform="matrix(1 0 0 1 1707.13 1126)">
   <path d="M 28.4668 10.7422 C 31.543 10.7422 33.3496 8.78906 33.3496 5.51758 L 33.3496 -22.7051 C 38.916 -14.9902 47.9492 -8.83789 59.2773 -4.93164 C 62.4512 -3.71094 65.0879 -5.32227 66.0156 -7.56836 C 66.9434 -9.76562 66.2598 -12.5488 62.9883 -14.0625 C 45.7031 -21.2402 33.3496 -32.0312 33.3496 -49.6094 L 33.3496 -59.668 L 40.7227 -59.668 C 44.4336 -59.668 45.5078 -62.5 43.3105 -65.5273 L 31.5918 -81.9824 C 29.834 -84.4727 27.0996 -84.4727 25.3418 -81.9824 L 13.623 -65.5273 C 11.377 -62.5 12.4023 -59.668 16.2109 -59.668 L 23.584 -59.668 L 23.584 5.51758 C 23.584 8.78906 25.3906 10.7422 28.4668 10.7422 Z"/>
  </g>
  <g id="Regular-M" transform="matrix(1 0 0 1 1411.03 1126)">
   <path d="M 27.1484 10.4004 C 29.8828 10.4004 31.3965 8.78906 31.3965 6.00586 L 31.3965 -24.5117 C 36.9629 -16.0645 46.7773 -9.22852 58.9844 -5.17578 C 61.7676 -4.15039 64.0137 -5.56641 64.7949 -7.4707 C 65.6738 -9.375 65.0391 -11.7676 62.2559 -13.0371 C 44.1406 -20.459 31.3965 -31.9824 31.3965 -49.707 L 31.3965 -61.6211 L 38.3301 -61.6211 C 41.7969 -61.6211 42.6758 -64.0137 40.8203 -66.6992 L 29.8828 -82.2754 C 28.3203 -84.4727 25.9766 -84.5215 24.3652 -82.2754 L 13.4277 -66.748 C 11.5234 -64.0137 12.4023 -61.6211 15.918 -61.6211 L 22.8516 -61.6211 L 22.8516 6.00586 C 22.8516 8.78906 24.3652 10.4004 27.1484 10.4004 Z"/>
  </g>
  <g id="Light-M" transform="matrix(1 0 0 1 1115 1126)">
   <path d="M 26.2207 9.32617 C 28.3203 9.32617 29.4434 8.10547 29.4434 6.00586 L 29.4434 -27.1484 C 35.1074 -17.2852 46.2402 -9.57031 59.2285 -5.71289 C 61.377 -4.98047 63.0371 -6.10352 63.5742 -7.56836 C 64.1602 -9.0332 63.6719 -10.8398 61.5234 -11.7188 C 44.1406 -17.7246 29.4434 -30.5664 29.4434 -47.8027 L 29.4434 -62.9395 L 37.1582 -62.9395 C 39.9902 -62.9395 40.7715 -64.8926 39.209 -67.1875 L 28.5645 -82.373 C 27.1973 -84.2773 25.293 -84.2773 23.9258 -82.373 L 13.2812 -67.1875 C 11.6699 -64.8926 12.4512 -62.9395 15.332 -62.9395 L 22.998 -62.9395 L 22.998 6.00586 C 22.998 8.10547 24.1699 9.32617 26.2207 9.32617 Z"/>
  </g>
  <g id="Thin-M" transform="matrix(1 0 0 1 819.166 1126)">
   <path d="M 25.0488 7.95898 C 26.2207 7.95898 26.9043 7.22656 26.9043 6.00586 L 26.9043 -31.1035 C 32.373 -18.9941 45.5566 -9.91211 59.5703 -6.44531 C 60.8398 -6.05469 61.7676 -6.83594 61.9629 -7.66602 C 62.207 -8.54492 61.8652 -9.57031 60.5957 -9.96094 C 44.1895 -14.1113 26.9043 -28.7109 26.9043 -45.2637 L 26.9043 -64.6973 L 35.6445 -64.6973 C 37.5977 -64.6973 38.2812 -66.0645 37.0605 -67.8223 L 26.7578 -82.5195 C 25.7324 -83.9355 24.3652 -83.9844 23.3398 -82.5195 L 13.0859 -67.8223 C 11.8164 -66.0645 12.5 -64.6973 14.502 -64.6973 L 23.2422 -64.6973 L 23.2422 6.00586 C 23.2422 7.22656 23.877 7.95898 25.0488 7.95898 Z"/>
  </g>
  <g id="Ultralight-M" transform="matrix(1 0 0 1 522.895 1126)">
   <path d="M 24.4629 7.22656 C 25.1465 7.22656 25.5859 6.78711 25.5859 6.00586 L 25.5859 -33.3984 C 30.7617 -19.9707 45.1172 -10.1074 59.7168 -6.78711 C 60.5957 -6.64062 61.084 -7.17773 61.1328 -7.71484 C 61.1816 -8.30078 60.9375 -8.88672 60.1074 -9.08203 C 44.1895 -12.2559 25.5859 -27.7832 25.5859 -43.9453 L 25.5859 -65.5762 L 34.8633 -65.5762 C 36.377 -65.5762 37.0117 -66.6504 35.9375 -68.1152 L 25.8789 -82.5684 C 25 -83.7891 23.9258 -83.7891 23.0469 -82.5684 L 12.9883 -68.1152 C 11.9141 -66.6504 12.5488 -65.5762 14.0625 -65.5762 L 23.3398 -65.5762 L 23.3398 6.00586 C 23.3398 6.78711 23.7305 7.22656 24.4629 7.22656 Z"/>
  </g>
  <g id="Black-S" transform="matrix(1 0 0 1 2900.34 696)">
   <path d="M 26.9531 1.95312 C 30.5664 1.95312 33.0078 -0.78125 33.0078 -4.88281 L 33.0078 -19.7266 C 36.7188 -16.1133 41.3086 -13.2324 47.4121 -10.6445 C 51.416 -8.93555 54.7852 -10.9863 55.9082 -13.9648 C 56.9824 -16.6992 56.0547 -20.166 51.9043 -22.1191 C 41.1621 -27.0996 33.0078 -32.9102 33.0078 -46.1914 L 33.0078 -47.6074 L 40.2832 -47.6074 C 44.1406 -47.6074 45.4102 -51.2207 42.7246 -54.834 L 30.8105 -70.8984 C 28.7109 -73.7305 25.1953 -73.6328 23.1445 -70.8984 L 11.1816 -54.834 C 8.54492 -51.2695 9.66797 -47.6074 13.623 -47.6074 L 20.8984 -47.6074 L 20.8984 -4.88281 C 20.8984 -0.78125 23.3398 1.95312 26.9531 1.95312 Z"/>
  </g>
  <g id="Heavy-S" transform="matrix(1 0 0 1 2604.19 696)">
   <path d="M 25.7324 1.70898 C 29.0527 1.70898 31.25 -0.683594 31.25 -4.44336 L 31.25 -21.0449 C 35.1562 -16.8945 40.332 -13.5742 47.1191 -10.8398 C 50.7324 -9.27734 53.8086 -11.1328 54.834 -13.8184 C 55.8594 -16.3086 55.0293 -19.4824 51.2695 -21.2402 C 39.5996 -26.6113 31.25 -33.0078 31.25 -46.4844 L 31.25 -49.4141 L 37.9883 -49.4141 C 41.6504 -49.4141 42.8223 -52.6855 40.3809 -55.957 L 29.248 -71.1914 C 27.2949 -73.7793 24.1211 -73.7305 22.2656 -71.1914 L 11.084 -55.957 C 8.64258 -52.6855 9.7168 -49.4141 13.4277 -49.4141 L 20.166 -49.4141 L 20.166 -4.44336 C 20.166 -0.683594 22.3633 1.70898 25.7324 1.70898 Z"/>
  </g>
  <g id="Bold-S" transform="matrix(1 0 0 1 2308.09 696)">
   <path d="M 24.3164 1.46484 C 27.3926 1.46484 29.2969 -0.585938 29.2969 -3.90625 L 29.2969 -22.5586 C 33.3496 -17.7734 39.1602 -13.9648 46.7773 -11.0352 C 50 -9.7168 52.7344 -11.3281 53.6621 -13.7207 C 54.5898 -15.918 53.8574 -18.75 50.5371 -20.3125 C 37.8906 -26.0254 29.2969 -33.1543 29.2969 -46.8262 L 29.2969 -51.4648 L 35.4492 -51.4648 C 38.8672 -51.4648 39.8926 -54.2969 37.7441 -57.2266 L 27.4414 -71.4844 C 25.7324 -73.8281 22.9492 -73.8281 21.2402 -71.4844 L 10.8887 -57.2754 C 8.74023 -54.2969 9.7168 -51.4648 13.2324 -51.4648 L 19.3848 -51.4648 L 19.3848 -3.90625 C 19.3848 -0.585938 21.2891 1.46484 24.3164 1.46484 Z"/>
  </g>
  <g id="Semibold-S" transform="matrix(1 0 0 1 2011.8 696)">
   <path d="M 23.3887 1.31836 C 26.2207 1.31836 27.9297 -0.537109 27.9297 -3.56445 L 27.9297 -23.6816 C 32.0801 -18.457 38.3789 -14.209 46.5332 -11.1816 C 49.4629 -10.0098 51.9531 -11.4746 52.832 -13.623 C 53.7109 -15.625 53.0762 -18.2129 50 -19.6289 C 36.6699 -25.6348 27.9297 -33.2031 27.9297 -47.0703 L 27.9297 -52.832 L 33.6914 -52.832 C 36.9629 -52.832 37.8906 -55.4199 35.9375 -58.1055 L 26.2207 -71.6797 C 24.6582 -73.877 22.1191 -73.877 20.5566 -71.6797 L 10.791 -58.1543 C 8.83789 -55.4199 9.7168 -52.832 13.0859 -52.832 L 18.8477 -52.832 L 18.8477 -3.56445 C 18.8477 -0.537109 20.5078 1.31836 23.3887 1.31836 Z"/>
  </g>
  <g id="Medium-S" transform="matrix(1 0 0 1 1715.4 696)">
   <path d="M 22.6562 1.17188 C 25.3418 1.17188 26.9043 -0.488281 26.9043 -3.27148 L 26.9043 -24.5117 C 31.1035 -18.9941 37.7441 -14.4043 46.3379 -11.2793 C 49.0723 -10.2051 51.3672 -11.5723 52.1973 -13.5254 C 53.0273 -15.4297 52.4414 -17.8223 49.6094 -19.1406 C 35.7422 -25.3418 26.9043 -33.3008 26.9043 -47.2656 L 26.9043 -53.9062 L 32.3242 -53.9062 C 35.498 -53.9062 36.377 -56.25 34.5703 -58.7891 L 25.293 -71.8262 C 23.8281 -73.877 21.5332 -73.9258 20.0195 -71.8262 L 10.7422 -58.8379 C 8.88672 -56.25 9.7168 -53.9062 12.9395 -53.9062 L 18.4082 -53.9062 L 18.4082 -3.27148 C 18.4082 -0.488281 19.9707 1.17188 22.6562 1.17188 Z"/>
  </g>
  <g id="Regular-S" transform="matrix(1 0 0 1 1419.11 696)">
   <path d="M 21.6797 1.02539 C 24.1699 1.02539 25.5371 -0.390625 25.5371 -2.92969 L 25.5371 -25.6348 C 29.834 -19.6777 36.9141 -14.6973 46.0938 -11.4258 C 48.584 -10.498 50.6348 -11.7188 51.3672 -13.4277 C 52.1484 -15.1367 51.6602 -17.334 49.1211 -18.5059 C 34.5703 -24.9512 25.5371 -33.3984 25.5371 -47.5098 L 25.5371 -55.2734 L 30.5664 -55.2734 C 33.5938 -55.2734 34.375 -57.373 32.7637 -59.668 L 24.0723 -72.0215 C 22.7539 -73.9258 20.7031 -73.9746 19.3359 -72.0215 L 10.6445 -59.668 C 8.98438 -57.373 9.7168 -55.2734 12.793 -55.2734 L 17.8711 -55.2734 L 17.8711 -2.92969 C 17.8711 -0.390625 19.1895 1.02539 21.6797 1.02539 Z"/>
  </g>
  <g id="Light-S" transform="matrix(1 0 0 1 1122.98 696)">
   <path d="M 20.8984 0.0976562 C 22.8027 0.0976562 23.8281 -0.976562 23.8281 -2.92969 L 23.8281 -27.8809 C 28.2715 -20.7031 36.4746 -14.9902 46.3379 -11.9141 C 48.2422 -11.2305 49.7559 -12.207 50.293 -13.5254 C 50.8301 -14.8438 50.4395 -16.5039 48.4863 -17.334 C 34.6191 -22.5586 23.8281 -32.1289 23.8281 -45.8008 L 23.8281 -56.4453 L 29.5898 -56.4453 C 32.0312 -56.4453 32.7148 -58.1543 31.3477 -60.0586 L 22.9004 -72.1191 C 21.7773 -73.7305 20.0684 -73.7793 18.9453 -72.1191 L 10.498 -60.1074 C 9.08203 -58.1543 9.76562 -56.4453 12.2559 -56.4453 L 17.9688 -56.4453 L 17.9688 -2.92969 C 17.9688 -0.976562 19.043 0.0976562 20.8984 0.0976562 Z"/>
  </g>
  <g id="Thin-S" transform="matrix(1 0 0 1 827.052 696)">
   <path d="M 19.873 -1.12305 C 20.9473 -1.12305 21.582 -1.80664 21.582 -2.92969 L 21.582 -31.2012 C 25.9277 -22.168 35.8398 -15.332 46.6309 -12.5488 C 47.7539 -12.1582 48.6328 -12.8418 48.877 -13.623 C 49.1211 -14.4043 48.8281 -15.3809 47.6562 -15.7715 C 34.6191 -19.3359 21.582 -30.4688 21.582 -43.5547 L 21.582 -57.959 L 28.2227 -57.959 C 29.9316 -57.959 30.4688 -59.1797 29.4434 -60.6445 L 21.3379 -72.2168 C 20.459 -73.4863 19.2871 -73.4863 18.4082 -72.2168 L 10.3027 -60.6445 C 9.22852 -59.1797 9.81445 -57.959 11.5234 -57.959 L 18.1641 -57.959 L 18.1641 -2.92969 C 18.1641 -1.80664 18.7988 -1.12305 19.873 -1.12305 Z"/>
  </g>
  <g id="Ultralight-S" transform="matrix(1 0 0 1 530.756 696)">
   <path d="M 19.3359 -1.75781 C 20.0195 -1.75781 20.4102 -2.19727 20.4102 -2.92969 L 20.4102 -33.1543 C 24.5605 -22.998 35.498 -15.4785 46.7773 -12.8418 C 47.5586 -12.6953 48.0469 -13.1348 48.1445 -13.6719 C 48.2422 -14.209 47.998 -14.7949 47.2168 -14.9902 C 34.6191 -17.7246 20.4102 -29.6387 20.4102 -42.3828 L 20.4102 -58.7402 L 27.5391 -58.7402 C 28.8574 -58.7402 29.3457 -59.7168 28.4668 -60.9375 L 20.5078 -72.3145 C 19.8242 -73.3398 18.8477 -73.3398 18.1641 -72.3145 L 10.2051 -60.9375 C 9.32617 -59.7168 9.81445 -58.7402 11.1328 -58.7402 L 18.2617 -58.7402 L 18.2617 -2.92969 C 18.2617 -2.19727 18.6523 -1.75781 19.3359 -1.75781 Z"/>
  </g>
 </g>
</svg>
