<?xml version="1.0" encoding="UTF-8"?>
<!--Generator: Apple Native CoreSVG 148-->
<!DOCTYPE svg
PUBLIC "-//W3C//DTD SVG 1.1//EN"
       "http://www.w3.org/Graphics/SVG/1.1/DTD/svg11.dtd">
<svg version="1.1" xmlns="http://www.w3.org/2000/svg" xmlns:xlink="http://www.w3.org/1999/xlink" width="3300" height="2200">
 <!--glyph: "uni100120.medium", point size: 100.000000, font version: "Version 16.0d11e1", template writer version: "8"-->
 <g id="Notes">
  <rect height="2200" id="artboard" style="fill:white;opacity:1" width="3300" x="0" y="0"/>
  <line id="" style="fill:none;stroke:black;opacity:1;stroke-width:0.5;" x1="263" x2="3036" y1="292" y2="292"/>
  <text style="stroke:none;fill:black;font-family:-apple-system,&quot;SF Pro Display&quot;,&quot;SF Pro Text&quot;,Helvetica,sans-serif;font-weight:bold;" transform="matrix(1 0 0 1 263 322)">Weight/Scale Variations</text>
  <text style="stroke:none;fill:black;font-family:-apple-system,&quot;SF Pro Display&quot;,&quot;SF Pro Text&quot;,Helvetica,sans-serif;text-anchor:middle;" transform="matrix(1 0 0 1 559.711 322)">Ultralight</text>
  <text style="stroke:none;fill:black;font-family:-apple-system,&quot;SF Pro Display&quot;,&quot;SF Pro Text&quot;,Helvetica,sans-serif;text-anchor:middle;" transform="matrix(1 0 0 1 856.422 322)">Thin</text>
  <text style="stroke:none;fill:black;font-family:-apple-system,&quot;SF Pro Display&quot;,&quot;SF Pro Text&quot;,Helvetica,sans-serif;text-anchor:middle;" transform="matrix(1 0 0 1 1153.13 322)">Light</text>
  <text style="stroke:none;fill:black;font-family:-apple-system,&quot;SF Pro Display&quot;,&quot;SF Pro Text&quot;,Helvetica,sans-serif;text-anchor:middle;" transform="matrix(1 0 0 1 1449.84 322)">Regular</text>
  <text style="stroke:none;fill:black;font-family:-apple-system,&quot;SF Pro Display&quot;,&quot;SF Pro Text&quot;,Helvetica,sans-serif;text-anchor:middle;" transform="matrix(1 0 0 1 1746.56 322)">Medium</text>
  <text style="stroke:none;fill:black;font-family:-apple-system,&quot;SF Pro Display&quot;,&quot;SF Pro Text&quot;,Helvetica,sans-serif;text-anchor:middle;" transform="matrix(1 0 0 1 2043.27 322)">Semibold</text>
  <text style="stroke:none;fill:black;font-family:-apple-system,&quot;SF Pro Display&quot;,&quot;SF Pro Text&quot;,Helvetica,sans-serif;text-anchor:middle;" transform="matrix(1 0 0 1 2339.98 322)">Bold</text>
  <text style="stroke:none;fill:black;font-family:-apple-system,&quot;SF Pro Display&quot;,&quot;SF Pro Text&quot;,Helvetica,sans-serif;text-anchor:middle;" transform="matrix(1 0 0 1 2636.69 322)">Heavy</text>
  <text style="stroke:none;fill:black;font-family:-apple-system,&quot;SF Pro Display&quot;,&quot;SF Pro Text&quot;,Helvetica,sans-serif;text-anchor:middle;" transform="matrix(1 0 0 1 2933.4 322)">Black</text>
  <line id="" style="fill:none;stroke:black;opacity:1;stroke-width:0.5;" x1="263" x2="3036" y1="1903" y2="1903"/>
  <g id="" transform="matrix(1 0 0 1 263 1933)">
   <path d="M 9.24805 0.830078 C 13.5547 0.830078 17.1387 -2.74414 17.1387 -7.05078 C 17.1387 -11.3574 13.5449 -14.9316 9.23828 -14.9316 C 4.94141 -14.9316 1.36719 -11.3574 1.36719 -7.05078 C 1.36719 -2.74414 4.95117 0.830078 9.24805 0.830078 Z M 9.24805 -0.654297 C 5.70312 -0.654297 2.87109 -3.49609 2.87109 -7.05078 C 2.87109 -10.6055 5.69336 -13.4473 9.23828 -13.4473 C 12.793 -13.4473 15.6348 -10.6055 15.6445 -7.05078 C 15.6543 -3.49609 12.8027 -0.654297 9.24805 -0.654297 Z M 9.22852 -3.62305 C 9.69727 -3.62305 9.9707 -3.93555 9.9707 -4.45312 L 9.9707 -6.31836 L 12.002 -6.31836 C 12.5 -6.31836 12.832 -6.57227 12.832 -7.04102 C 12.832 -7.51953 12.5195 -7.7832 12.002 -7.7832 L 9.9707 -7.7832 L 9.9707 -9.81445 C 9.9707 -10.332 9.69727 -10.6543 9.22852 -10.6543 C 8.75977 -10.6543 8.50586 -10.3125 8.50586 -9.81445 L 8.50586 -7.7832 L 6.49414 -7.7832 C 5.97656 -7.7832 5.64453 -7.51953 5.64453 -7.04102 C 5.64453 -6.57227 5.99609 -6.31836 6.49414 -6.31836 L 8.50586 -6.31836 L 8.50586 -4.45312 C 8.50586 -3.95508 8.75977 -3.62305 9.22852 -3.62305 Z"/>
  </g>
  <g id="" transform="matrix(1 0 0 1 281.506 1933)">
   <path d="M 11.709 2.91016 C 17.1582 2.91016 21.6699 -1.61133 21.6699 -7.05078 C 21.6699 -12.5 17.1484 -17.0117 11.6992 -17.0117 C 6.25977 -17.0117 1.74805 -12.5 1.74805 -7.05078 C 1.74805 -1.61133 6.26953 2.91016 11.709 2.91016 Z M 11.709 1.25 C 7.09961 1.25 3.41797 -2.44141 3.41797 -7.05078 C 3.41797 -11.6602 7.08984 -15.3516 11.6992 -15.3516 C 16.3086 -15.3516 20 -11.6602 20.0098 -7.05078 C 20.0195 -2.44141 16.3184 1.25 11.709 1.25 Z M 11.6797 -2.66602 C 12.207 -2.66602 12.5098 -3.01758 12.5098 -3.59375 L 12.5098 -6.23047 L 15.3223 -6.23047 C 15.8691 -6.23047 16.25 -6.51367 16.25 -7.03125 C 16.25 -7.55859 15.8887 -7.86133 15.3223 -7.86133 L 12.5098 -7.86133 L 12.5098 -10.6836 C 12.5098 -11.25 12.207 -11.6113 11.6797 -11.6113 C 11.1621 -11.6113 10.8789 -11.2305 10.8789 -10.6836 L 10.8789 -7.86133 L 8.07617 -7.86133 C 7.50977 -7.86133 7.13867 -7.55859 7.13867 -7.03125 C 7.13867 -6.51367 7.5293 -6.23047 8.07617 -6.23047 L 10.8789 -6.23047 L 10.8789 -3.59375 C 10.8789 -3.03711 11.1621 -2.66602 11.6797 -2.66602 Z"/>
  </g>
  <g id="" transform="matrix(1 0 0 1 304.924 1933)">
   <path d="M 14.9707 5.66406 C 21.9336 5.66406 27.6953 -0.0976562 27.6953 -7.05078 C 27.6953 -14.0137 21.9238 -19.7754 14.9609 -19.7754 C 8.00781 -19.7754 2.25586 -14.0137 2.25586 -7.05078 C 2.25586 -0.0976562 8.01758 5.66406 14.9707 5.66406 Z M 14.9707 3.84766 C 8.93555 3.84766 4.08203 -1.01562 4.08203 -7.05078 C 4.08203 -13.0957 8.92578 -17.9492 14.9609 -17.9492 C 21.0059 -17.9492 25.8594 -13.0957 25.8691 -7.05078 C 25.8789 -1.01562 21.0156 3.84766 14.9707 3.84766 Z M 14.9414 -1.38672 C 15.5176 -1.38672 15.8594 -1.77734 15.8594 -2.38281 L 15.8594 -6.13281 L 19.7754 -6.13281 C 20.3711 -6.13281 20.7812 -6.46484 20.7812 -7.02148 C 20.7812 -7.59766 20.3906 -7.93945 19.7754 -7.93945 L 15.8594 -7.93945 L 15.8594 -11.8652 C 15.8594 -12.4805 15.5176 -12.8711 14.9414 -12.8711 C 14.375 -12.8711 14.0527 -12.4609 14.0527 -11.8652 L 14.0527 -7.93945 L 10.1465 -7.93945 C 9.53125 -7.93945 9.13086 -7.59766 9.13086 -7.02148 C 9.13086 -6.46484 9.55078 -6.13281 10.1465 -6.13281 L 14.0527 -6.13281 L 14.0527 -2.38281 C 14.0527 -1.79688 14.375 -1.38672 14.9414 -1.38672 Z"/>
  </g>
  <text style="stroke:none;fill:black;font-family:-apple-system,&quot;SF Pro Display&quot;,&quot;SF Pro Text&quot;,Helvetica,sans-serif;font-weight:bold;" transform="matrix(1 0 0 1 263 1953)">Design Variations</text>
  <text style="stroke:none;fill:black;font-family:-apple-system,&quot;SF Pro Display&quot;,&quot;SF Pro Text&quot;,Helvetica,sans-serif;" transform="matrix(1 0 0 1 263 1971)">Symbols are supported in up to nine weights and three scales.</text>
  <text style="stroke:none;fill:black;font-family:-apple-system,&quot;SF Pro Display&quot;,&quot;SF Pro Text&quot;,Helvetica,sans-serif;" transform="matrix(1 0 0 1 263 1989)">For optimal layout with text and other symbols, vertically align</text>
  <text style="stroke:none;fill:black;font-family:-apple-system,&quot;SF Pro Display&quot;,&quot;SF Pro Text&quot;,Helvetica,sans-serif;" transform="matrix(1 0 0 1 263 2007)">symbols with the adjacent text.</text>
  <line id="" style="fill:none;stroke:#00AEEF;stroke-width:0.5;opacity:1.0;" x1="776" x2="776" y1="1919" y2="1933"/>
  <g id="" transform="matrix(1 0 0 1 776 1933)">
   <path d="M 3.31055 0.126953 C 3.82812 0.126953 4.08203 -0.0683594 4.26758 -0.605469 L 5.52734 -4.0625 L 11.2891 -4.0625 L 12.5488 -0.605469 C 12.7344 -0.0683594 12.9883 0.126953 13.4961 0.126953 C 14.0137 0.126953 14.3457 -0.185547 14.3457 -0.673828 C 14.3457 -0.839844 14.3164 -0.986328 14.2383 -1.20117 L 9.6582 -13.3887 C 9.43359 -13.9941 9.0332 -14.2871 8.4082 -14.2871 C 7.80273 -14.2871 7.39258 -13.9941 7.17773 -13.3984 L 2.59766 -1.19141 C 2.51953 -0.976562 2.49023 -0.830078 2.49023 -0.664062 C 2.49023 -0.175781 2.80273 0.126953 3.31055 0.126953 Z M 6.00586 -5.53711 L 8.37891 -12.1094 L 8.42773 -12.1094 L 10.8008 -5.53711 Z"/>
  </g>
  <line id="" style="fill:none;stroke:#00AEEF;stroke-width:0.5;opacity:1.0;" x1="792.836" x2="792.836" y1="1919" y2="1933"/>
  <text style="stroke:none;fill:black;font-family:-apple-system,&quot;SF Pro Display&quot;,&quot;SF Pro Text&quot;,Helvetica,sans-serif;font-weight:bold;" transform="matrix(1 0 0 1 776 1953)">Margins</text>
  <text style="stroke:none;fill:black;font-family:-apple-system,&quot;SF Pro Display&quot;,&quot;SF Pro Text&quot;,Helvetica,sans-serif;" transform="matrix(1 0 0 1 776 1971)">Leading and trailing margins on the left and right side of each symbol</text>
  <text style="stroke:none;fill:black;font-family:-apple-system,&quot;SF Pro Display&quot;,&quot;SF Pro Text&quot;,Helvetica,sans-serif;" transform="matrix(1 0 0 1 776 1989)">can be adjusted by modifying the x-location of the margin guidelines.</text>
  <text style="stroke:none;fill:black;font-family:-apple-system,&quot;SF Pro Display&quot;,&quot;SF Pro Text&quot;,Helvetica,sans-serif;" transform="matrix(1 0 0 1 776 2007)">Modifications are automatically applied proportionally to all</text>
  <text style="stroke:none;fill:black;font-family:-apple-system,&quot;SF Pro Display&quot;,&quot;SF Pro Text&quot;,Helvetica,sans-serif;" transform="matrix(1 0 0 1 776 2025)">scales and weights.</text>
  <g id="" transform="matrix(1 0 0 1 1289 1933)">
   <path d="M 2.8418 1.86523 L 4.54102 3.57422 C 5.40039 4.44336 6.38672 4.38477 7.31445 3.35938 L 17.4902 -7.85156 C 17.7539 -7.76367 18.0273 -7.7832 18.3398 -7.8418 L 19.4043 -8.03711 L 20.0684 -7.36328 L 20.0293 -6.80664 C 19.9902 -6.30859 20.1172 -5.92773 20.6055 -5.44922 L 21.3672 -4.70703 C 21.8457 -4.22852 22.4609 -4.19922 22.9297 -4.66797 L 25.8398 -7.58789 C 26.3086 -8.05664 26.2891 -8.65234 25.8105 -9.13086 L 25.0391 -9.89258 C 24.5605 -10.3711 24.1895 -10.5273 23.7109 -10.4883 L 23.1348 -10.4395 L 22.4902 -11.0742 L 22.7344 -12.1973 C 22.8613 -12.7637 22.7051 -13.2031 22.1191 -13.7891 L 19.9219 -15.9766 C 16.582 -19.2969 12.1484 -19.2188 9.25781 -16.3281 C 8.83789 -15.918 8.80859 -15.3418 9.04297 -14.9512 C 9.27734 -14.5898 9.73633 -14.3555 10.3809 -14.5215 C 11.8457 -14.8633 13.3691 -14.9219 14.7949 -13.9844 L 14.209 -12.5293 C 14.0137 -12.0508 13.9844 -11.6504 14.1113 -11.2891 L 3.04688 -0.898438 C 2.06055 0.0195312 1.98242 0.996094 2.8418 1.86523 Z M 10.752 -15.957 C 13.1836 -17.7344 16.4746 -17.4316 18.7012 -15.2051 L 21.1328 -12.793 C 21.3672 -12.5586 21.4062 -12.373 21.3379 -12.0312 L 21.0156 -10.5469 L 22.5195 -9.0625 L 23.5059 -9.12109 C 23.7598 -9.13086 23.8379 -9.11133 24.0332 -8.91602 L 24.6094 -8.33984 L 22.168 -5.89844 L 21.5918 -6.47461 C 21.3965 -6.66992 21.3672 -6.74805 21.377 -7.01172 L 21.4453 -7.98828 L 19.9512 -9.47266 L 18.4277 -9.21875 C 18.1055 -9.15039 17.959 -9.17969 17.7148 -9.41406 L 15.7129 -11.416 C 15.459 -11.6504 15.4297 -11.8164 15.5859 -12.1875 L 16.4648 -14.2773 C 14.9023 -15.7324 12.8711 -16.3574 10.8398 -15.7617 C 10.6836 -15.7227 10.625 -15.8496 10.752 -15.957 Z M 5.27344 2.30469 L 4.10156 1.14258 C 3.63281 0.683594 3.74023 0.341797 4.14062 -0.0195312 L 14.9512 -10.1953 L 16.416 -8.71094 L 6.42578 2.27539 C 6.07422 2.67578 5.74219 2.77344 5.27344 2.30469 Z"/>
  </g>
  <text style="stroke:none;fill:black;font-family:-apple-system,&quot;SF Pro Display&quot;,&quot;SF Pro Text&quot;,Helvetica,sans-serif;font-weight:bold;" transform="matrix(1 0 0 1 1289 1953)">Exporting</text>
  <text style="stroke:none;fill:black;font-family:-apple-system,&quot;SF Pro Display&quot;,&quot;SF Pro Text&quot;,Helvetica,sans-serif;" transform="matrix(1 0 0 1 1289 1971)">Symbols should be outlined when exporting to ensure the</text>
  <text style="stroke:none;fill:black;font-family:-apple-system,&quot;SF Pro Display&quot;,&quot;SF Pro Text&quot;,Helvetica,sans-serif;" transform="matrix(1 0 0 1 1289 1989)">design is preserved when submitting to Xcode.</text>
  <text id="template-version" style="stroke:none;fill:black;font-family:-apple-system,&quot;SF Pro Display&quot;,&quot;SF Pro Text&quot;,Helvetica,sans-serif;text-anchor:end;" transform="matrix(1 0 0 1 3036 1933)">Template v.2.0</text>
  <text style="stroke:none;fill:black;font-family:-apple-system,&quot;SF Pro Display&quot;,&quot;SF Pro Text&quot;,Helvetica,sans-serif;text-anchor:end;" transform="matrix(1 0 0 1 3036 1951)">Requires Xcode 12 or greater</text>
  <text style="stroke:none;fill:black;font-family:-apple-system,&quot;SF Pro Display&quot;,&quot;SF Pro Text&quot;,Helvetica,sans-serif;text-anchor:end;" transform="matrix(1 0 0 1 3036 1969)">Generated from arrow.uturn.right.square</text>
  <text style="stroke:none;fill:black;font-family:-apple-system,&quot;SF Pro Display&quot;,&quot;SF Pro Text&quot;,Helvetica,sans-serif;text-anchor:end;" transform="matrix(1 0 0 1 3036 1987)">Typeset at 100 points</text>
  <text style="stroke:none;fill:black;font-family:-apple-system,&quot;SF Pro Display&quot;,&quot;SF Pro Text&quot;,Helvetica,sans-serif;" transform="matrix(1 0 0 1 263 726)">Small</text>
  <text style="stroke:none;fill:black;font-family:-apple-system,&quot;SF Pro Display&quot;,&quot;SF Pro Text&quot;,Helvetica,sans-serif;" transform="matrix(1 0 0 1 263 1156)">Medium</text>
  <text style="stroke:none;fill:black;font-family:-apple-system,&quot;SF Pro Display&quot;,&quot;SF Pro Text&quot;,Helvetica,sans-serif;" transform="matrix(1 0 0 1 263 1586)">Large</text>
 </g>
 <g id="Guides">
  <g id="H-reference" style="fill:#27AAE1;stroke:none;" transform="matrix(1 0 0 1 339 696)">
   <path d="M 0.976562 0 L 3.66211 0 L 12.9883 -24.4629 L 45.7031 -24.4629 L 55.0781 0 L 57.7148 0 L 30.6152 -70.459 L 28.125 -70.459 Z M 29.2969 -67.1387 L 29.3945 -67.1387 L 44.873 -26.709 L 13.8672 -26.709 Z"/>
  </g>
  <line id="Baseline-S" style="fill:none;stroke:#27AAE1;opacity:1;stroke-width:0.5;" x1="263" x2="3036" y1="696" y2="696"/>
  <line id="Capline-S" style="fill:none;stroke:#27AAE1;opacity:1;stroke-width:0.5;" x1="263" x2="3036" y1="625.541" y2="625.541"/>
  <g id="H-reference" style="fill:#27AAE1;stroke:none;" transform="matrix(1 0 0 1 339 1126)">
   <path d="M 0.976562 0 L 3.66211 0 L 12.9883 -24.4629 L 45.7031 -24.4629 L 55.0781 0 L 57.7148 0 L 30.6152 -70.459 L 28.125 -70.459 Z M 29.2969 -67.1387 L 29.3945 -67.1387 L 44.873 -26.709 L 13.8672 -26.709 Z"/>
  </g>
  <line id="Baseline-M" style="fill:none;stroke:#27AAE1;opacity:1;stroke-width:0.5;" x1="263" x2="3036" y1="1126" y2="1126"/>
  <line id="Capline-M" style="fill:none;stroke:#27AAE1;opacity:1;stroke-width:0.5;" x1="263" x2="3036" y1="1055.54" y2="1055.54"/>
  <g id="H-reference" style="fill:#27AAE1;stroke:none;" transform="matrix(1 0 0 1 339 1556)">
   <path d="M 0.976562 0 L 3.66211 0 L 12.9883 -24.4629 L 45.7031 -24.4629 L 55.0781 0 L 57.7148 0 L 30.6152 -70.459 L 28.125 -70.459 Z M 29.2969 -67.1387 L 29.3945 -67.1387 L 44.873 -26.709 L 13.8672 -26.709 Z"/>
  </g>
  <line id="Baseline-L" style="fill:none;stroke:#27AAE1;opacity:1;stroke-width:0.5;" x1="263" x2="3036" y1="1556" y2="1556"/>
  <line id="Capline-L" style="fill:none;stroke:#27AAE1;opacity:1;stroke-width:0.5;" x1="263" x2="3036" y1="1485.54" y2="1485.54"/>
  <line id="left-margin" style="fill:none;stroke:#00AEEF;stroke-width:0.5;opacity:1.0;" x1="1392.45" x2="1392.45" y1="1030.79" y2="1150.12"/>
  <line id="right-margin" style="fill:none;stroke:#00AEEF;stroke-width:0.5;opacity:1.0;" x1="1507.24" x2="1507.24" y1="1030.79" y2="1150.12"/>
 </g>
 <g id="Symbols">
  <g id="Black-L" transform="matrix(1 0 0 1 2855.62 1556)">
   <path d="M 39.9902 25.7324 L 115.576 25.7324 C 130.811 25.7324 139.502 17.0898 139.502 1.9043 L 139.502 -73.877 C 139.502 -89.0625 130.811 -97.7051 115.576 -97.7051 L 39.9902 -97.7051 C 24.7559 -97.7051 16.0645 -89.0625 16.0645 -73.877 L 16.0645 1.9043 C 16.0645 17.0898 24.7559 25.7324 39.9902 25.7324 Z M 42.6758 5.46875 C 38.4766 5.46875 36.3281 3.56445 36.3281 -0.976562 L 36.3281 -71.0449 C 36.3281 -75.5859 38.4766 -77.4414 42.6758 -77.4414 L 112.842 -77.4414 C 117.09 -77.4414 119.238 -75.5859 119.238 -71.0449 L 119.238 -0.976562 C 119.238 3.56445 117.09 5.46875 112.842 5.46875 Z M 44.9707 -29.1992 C 44.9707 -13.8184 55.5664 -3.75977 70.752 -3.75977 L 79.8828 -3.75977 C 84.1309 -3.75977 87.0117 -6.29883 87.0117 -10.3027 C 87.0117 -14.1602 84.082 -16.6016 79.8828 -16.6016 L 70.752 -16.6016 C 63.2324 -16.6016 58.1543 -21.6309 58.1543 -29.3945 C 58.1543 -37.207 63.3789 -42.0898 70.8496 -42.0898 L 88.5254 -42.0898 L 93.1641 -42.5293 L 89.5508 -40.0879 L 83.5449 -35.2051 C 82.2754 -34.1797 81.6895 -32.7148 81.6895 -31.25 C 81.6895 -28.0273 84.5215 -25.293 87.5977 -25.293 C 89.1602 -25.293 90.625 -25.8301 91.748 -26.9531 L 108.74 -44.0918 C 109.912 -45.3125 110.547 -46.875 110.547 -48.3887 C 110.547 -50 109.863 -51.4648 108.74 -52.6855 L 91.748 -69.8242 C 90.6738 -70.9961 89.209 -71.5332 87.7441 -71.5332 C 84.668 -71.5332 81.7871 -68.75 81.7871 -65.5762 C 81.7871 -64.1113 82.373 -62.6465 83.5938 -61.5723 L 89.1113 -56.6406 L 93.1641 -53.7598 L 88.5254 -54.1504 L 70.8496 -54.1504 C 55.6152 -54.1504 44.9707 -44.3359 44.9707 -29.1992 Z"/>
  </g>
  <g id="Heavy-L" transform="matrix(1 0 0 1 2559.93 1556)">
   <path d="M 38.8184 24.707 L 114.697 24.707 C 129.346 24.707 137.451 16.6016 137.451 2.05078 L 137.451 -74.0234 C 137.451 -88.5742 129.346 -96.6797 114.697 -96.6797 L 38.8184 -96.6797 C 24.2188 -96.6797 16.0645 -88.5742 16.0645 -74.0234 L 16.0645 2.05078 C 16.0645 16.6016 24.2188 24.707 38.8184 24.707 Z M 40.918 7.17773 C 36.084 7.17773 33.5938 4.88281 33.5938 -0.244141 L 33.5938 -71.7285 C 33.5938 -76.8555 36.084 -79.1504 40.918 -79.1504 L 112.549 -79.1504 C 117.383 -79.1504 119.922 -76.8555 119.922 -71.7285 L 119.922 -0.244141 C 119.922 4.88281 117.383 7.17773 112.549 7.17773 Z M 44.1895 -29.0527 C 44.1895 -13.8184 54.7363 -3.95508 69.7754 -3.95508 L 78.8574 -3.95508 C 82.666 -3.95508 85.3027 -6.25 85.3027 -9.86328 C 85.3027 -13.4277 82.6172 -15.625 78.9062 -15.625 L 69.7754 -15.625 C 61.6699 -15.625 56.1035 -20.9473 56.1035 -29.248 C 56.1035 -37.5977 61.8164 -42.6758 69.8242 -42.6758 L 88.0859 -42.6758 L 93.3594 -43.0664 L 89.7949 -40.5273 L 83.1055 -34.8145 C 81.9336 -33.8379 81.3965 -32.4219 81.3965 -31.1035 C 81.3965 -28.125 83.9844 -25.5859 86.8164 -25.5859 C 88.2812 -25.5859 89.5996 -26.123 90.625 -27.1484 L 107.568 -44.2871 C 108.74 -45.4102 109.326 -46.875 109.326 -48.3398 C 109.326 -49.9023 108.691 -51.3184 107.568 -52.4414 L 90.6738 -69.5801 C 89.6484 -70.6543 88.3301 -71.1914 86.9629 -71.1914 C 84.0332 -71.1914 81.4941 -68.6035 81.4941 -65.6738 C 81.4941 -64.2578 82.0312 -62.8906 83.1543 -61.9141 L 89.209 -56.3477 L 93.3594 -53.3203 L 88.0859 -53.6621 L 69.8242 -53.6621 C 54.7363 -53.6621 44.1895 -44.043 44.1895 -29.0527 Z"/>
  </g>
  <g id="Bold-L" transform="matrix(1 0 0 1 2264.37 1556)">
   <path d="M 37.5 23.584 L 113.721 23.584 C 127.637 23.584 135.156 16.0645 135.156 2.24609 L 135.156 -74.2188 C 135.156 -88.0371 127.637 -95.5078 113.721 -95.5078 L 37.5 -95.5078 C 23.6328 -95.5078 16.0645 -88.0371 16.0645 -74.2188 L 16.0645 2.24609 C 16.0645 16.1133 23.6328 23.584 37.5 23.584 Z M 38.9648 9.13086 C 33.4473 9.13086 30.5176 6.39648 30.5176 0.585938 L 30.5176 -72.5586 C 30.5176 -78.3203 33.4473 -81.1035 38.9648 -81.1035 L 112.256 -81.1035 C 117.725 -81.1035 120.703 -78.3203 120.703 -72.5586 L 120.703 0.585938 C 120.703 6.39648 117.725 9.13086 112.256 9.13086 Z M 43.2617 -28.8574 C 43.2617 -13.8672 53.8086 -4.19922 68.6523 -4.19922 L 77.7344 -4.19922 C 81.0547 -4.19922 83.3984 -6.15234 83.3984 -9.42383 C 83.3984 -12.5977 81.0059 -14.502 77.7832 -14.502 L 68.6523 -14.502 C 59.9121 -14.502 53.8086 -20.2148 53.8086 -29.1016 C 53.8086 -37.9883 60.0586 -43.2617 68.7012 -43.2617 L 87.6465 -43.2617 L 93.6035 -43.6035 L 90.0879 -41.0645 L 82.6172 -34.3262 C 81.543 -33.4473 81.0547 -32.1777 81.0547 -30.9082 C 81.0547 -28.1738 83.3008 -25.9277 85.9375 -25.9277 C 87.3047 -25.9277 88.4766 -26.416 89.4043 -27.3438 L 106.299 -44.4824 C 107.373 -45.5566 107.959 -46.9238 107.959 -48.3398 C 107.959 -49.8047 107.324 -51.123 106.299 -52.1973 L 89.4531 -69.2871 C 88.5254 -70.2637 87.3535 -70.752 86.0352 -70.752 C 83.3984 -70.752 81.1035 -68.457 81.1035 -65.7715 C 81.1035 -64.4531 81.6406 -63.2324 82.6172 -62.3535 L 89.3066 -56.0547 L 93.6035 -52.7832 L 87.6465 -53.125 L 68.7012 -53.125 C 53.8086 -53.125 43.2617 -43.7012 43.2617 -28.8574 Z"/>
  </g>
  <g id="Semibold-L" transform="matrix(1 0 0 1 1968.44 1556)">
   <path d="M 36.6211 22.8027 L 113.037 22.8027 C 126.514 22.8027 133.594 15.6738 133.594 2.39258 L 133.594 -74.3164 C 133.594 -87.6465 126.514 -94.7266 113.037 -94.7266 L 36.6211 -94.7266 C 23.1934 -94.7266 16.0645 -87.6953 16.0645 -74.3164 L 16.0645 2.39258 C 16.0645 15.7227 23.1934 22.8027 36.6211 22.8027 Z M 37.5977 10.4492 C 31.6406 10.4492 28.418 7.37305 28.418 1.17188 L 28.418 -73.0957 C 28.418 -79.3457 31.6406 -82.4219 37.5977 -82.4219 L 112.061 -82.4219 C 117.969 -82.4219 121.24 -79.3457 121.24 -73.0957 L 121.24 1.17188 C 121.24 7.37305 117.969 10.4492 112.061 10.4492 Z M 42.627 -28.7109 C 42.627 -13.8672 53.1738 -4.3457 67.9199 -4.3457 L 76.9531 -4.3457 C 79.9316 -4.3457 82.0801 -6.10352 82.0801 -9.08203 C 82.0801 -12.0117 79.9316 -13.7207 77.002 -13.7207 L 67.9199 -13.7207 C 58.6914 -13.7207 52.2461 -19.6777 52.2461 -29.0039 C 52.2461 -38.2812 58.8379 -43.7012 67.9199 -43.7012 L 87.3535 -43.7012 L 93.7988 -44.043 L 90.2344 -41.4062 L 82.2266 -33.9844 C 81.2988 -33.1543 80.8105 -31.9824 80.8105 -30.8105 C 80.8105 -28.2227 82.8613 -26.1719 85.3516 -26.1719 C 86.6211 -26.1719 87.6953 -26.6113 88.5742 -27.4902 L 105.42 -44.6289 C 106.445 -45.6543 107.031 -46.9238 107.031 -48.291 C 107.031 -49.707 106.396 -51.0254 105.42 -52.002 L 88.623 -69.0918 C 87.7441 -70.0195 86.6699 -70.459 85.4004 -70.459 C 82.9102 -70.459 80.8594 -68.3594 80.8594 -65.8203 C 80.8594 -64.5996 81.3965 -63.4277 82.2754 -62.5977 L 89.4043 -55.8105 L 93.7988 -52.4414 L 87.3535 -52.7344 L 67.9199 -52.7344 C 53.1738 -52.7344 42.627 -43.457 42.627 -28.7109 Z"/>
  </g>
  <g id="Medium-L" transform="matrix(1 0 0 1 1672.31 1556)">
   <path d="M 35.9375 22.2168 L 112.5 22.2168 C 125.635 22.2168 132.422 15.4297 132.422 2.49023 L 132.422 -74.4141 C 132.422 -87.3535 125.635 -94.1406 112.5 -94.1406 L 35.9375 -94.1406 C 22.9004 -94.1406 16.0645 -87.4023 16.0645 -74.4141 L 16.0645 2.49023 C 16.0645 15.4785 22.9004 22.2168 35.9375 22.2168 Z M 36.5723 11.4746 C 30.2246 11.4746 26.8066 8.1543 26.8066 1.61133 L 26.8066 -73.5352 C 26.8066 -80.0781 30.2246 -83.3984 36.5723 -83.3984 L 111.865 -83.3984 C 118.115 -83.3984 121.68 -80.0781 121.68 -73.5352 L 121.68 1.61133 C 121.68 8.1543 118.115 11.4746 111.865 11.4746 Z M 42.1387 -28.6133 C 42.1387 -13.8672 52.7344 -4.49219 67.334 -4.49219 L 76.3672 -4.49219 C 79.1016 -4.49219 81.0547 -6.10352 81.0547 -8.83789 C 81.0547 -11.5723 79.1016 -13.1836 76.4648 -13.1836 L 67.334 -13.1836 C 57.8125 -13.1836 51.0254 -19.2871 51.0254 -28.9551 C 51.0254 -38.4766 57.9102 -44.043 67.2852 -44.043 L 87.1094 -44.043 L 93.8965 -44.3359 L 90.3809 -41.6992 L 81.9824 -33.7402 C 81.1035 -32.959 80.6641 -31.8359 80.6641 -30.7129 C 80.6641 -28.2715 82.5195 -26.3672 84.8633 -26.3672 C 86.084 -26.3672 87.1094 -26.8066 87.9395 -27.5879 L 104.736 -44.7754 C 105.713 -45.752 106.299 -46.9727 106.299 -48.291 C 106.299 -49.6582 105.713 -50.9277 104.736 -51.9043 L 87.9883 -68.8965 C 87.1582 -69.7754 86.1816 -70.2148 84.9609 -70.2148 C 82.5684 -70.2148 80.6641 -68.3105 80.6641 -65.8691 C 80.6641 -64.6973 81.2012 -63.5742 82.0312 -62.8418 L 89.4531 -55.6641 L 93.8965 -52.1973 L 87.1094 -52.4414 L 67.2852 -52.4414 C 52.6855 -52.4414 42.1387 -43.3105 42.1387 -28.6133 Z"/>
  </g>
  <g id="Regular-L" transform="matrix(1 0 0 1 1376.38 1556)">
   <path d="M 35.0586 21.4355 L 111.816 21.4355 C 124.463 21.4355 130.859 15.0391 130.859 2.63672 L 130.859 -74.5605 C 130.859 -86.9629 124.463 -93.3594 111.816 -93.3594 L 35.0586 -93.3594 C 22.4609 -93.3594 16.0645 -87.0117 16.0645 -74.5605 L 16.0645 2.63672 C 16.0645 15.0879 22.4609 21.4355 35.0586 21.4355 Z M 35.2539 12.793 C 28.418 12.793 24.707 9.17969 24.707 2.14844 L 24.707 -74.0723 C 24.707 -81.1035 28.418 -84.7168 35.2539 -84.7168 L 111.67 -84.7168 C 118.359 -84.7168 122.217 -81.1035 122.217 -74.0723 L 122.217 2.14844 C 122.217 9.17969 118.359 12.793 111.67 12.793 Z M 41.5039 -28.4668 C 41.5039 -13.8672 52.0996 -4.63867 66.5527 -4.63867 L 75.5859 -4.63867 C 77.9785 -4.63867 79.7852 -6.05469 79.7852 -8.54492 C 79.7852 -11.0352 77.9785 -12.4023 75.6836 -12.4023 L 66.5527 -12.4023 C 56.5918 -12.4023 49.4629 -18.75 49.4629 -28.8574 C 49.4629 -38.7695 56.7383 -44.4336 66.5039 -44.4336 L 86.8164 -44.4336 L 94.0918 -44.7266 L 90.5762 -42.041 L 81.6406 -33.3984 C 80.8594 -32.666 80.4199 -31.6406 80.4199 -30.5664 C 80.4199 -28.3203 82.0801 -26.6113 84.2773 -26.6113 C 85.4492 -26.6113 86.3281 -27.002 87.1094 -27.7344 L 103.857 -44.9219 C 104.785 -45.8496 105.371 -46.9727 105.371 -48.291 C 105.371 -49.6094 104.785 -50.7812 103.857 -51.709 L 87.1582 -68.7012 C 86.377 -69.5312 85.498 -69.9219 84.3262 -69.9219 C 82.0801 -69.9219 80.4199 -68.2129 80.4199 -65.9668 C 80.4199 -64.7949 80.957 -63.8184 81.6895 -63.0859 L 89.502 -55.4688 L 94.0918 -51.8555 L 86.8164 -52.0508 L 66.5039 -52.0508 C 52.0508 -52.0508 41.5039 -43.0664 41.5039 -28.4668 Z"/>
  </g>
  <g id="Light-L" transform="matrix(1 0 0 1 1080.5 1556)">
   <path d="M 34.0332 20.6055 L 111.23 20.6055 C 123.096 20.6055 129.199 14.4531 129.199 2.7832 L 129.199 -74.6582 C 129.199 -86.3281 123.096 -92.4805 111.23 -92.4805 L 34.0332 -92.4805 C 22.168 -92.4805 16.0645 -86.4258 16.0645 -74.6582 L 16.0645 2.7832 C 16.0645 14.5508 22.168 20.6055 34.0332 20.6055 Z M 34.1797 14.0137 C 26.709 14.0137 22.7051 10.0586 22.7051 2.39258 L 22.7051 -74.3164 C 22.7051 -81.9336 26.709 -85.8887 34.1797 -85.8887 L 111.035 -85.8887 C 118.359 -85.8887 122.559 -81.9336 122.559 -74.3164 L 122.559 2.39258 C 122.559 10.0586 118.359 14.0137 111.035 14.0137 Z M 41.6016 -28.5645 C 41.6016 -14.6973 51.6113 -5.81055 65.7227 -5.81055 L 75.293 -5.81055 C 77.1484 -5.81055 78.5156 -6.93359 78.5156 -8.83789 C 78.5156 -10.791 77.1484 -11.8652 75.3418 -11.8652 L 65.7227 -11.8652 C 55.127 -11.8652 47.7539 -18.5059 47.7539 -28.8086 C 47.7539 -39.0137 55.2246 -45.2148 65.7227 -45.2148 L 87.9883 -45.2148 L 95.0195 -45.459 L 91.6992 -42.8711 L 81.3965 -32.7637 C 80.7617 -32.1777 80.3711 -31.3477 80.3711 -30.4688 C 80.3711 -28.7109 81.6406 -27.3926 83.3984 -27.3926 C 84.3262 -27.3926 85.0586 -27.7344 85.6445 -28.3203 L 102.441 -45.4102 C 103.174 -46.1914 103.662 -47.1191 103.662 -48.2422 C 103.662 -49.3164 103.174 -50.293 102.441 -51.0742 L 85.6934 -68.0664 C 85.1074 -68.7012 84.375 -69.043 83.4473 -69.043 C 81.6406 -69.043 80.3711 -67.7246 80.3711 -65.918 C 80.3711 -64.9902 80.8105 -64.2578 81.4453 -63.623 L 91.0645 -54.1504 L 95.0195 -51.0254 L 87.9883 -51.2207 L 65.7227 -51.2207 C 51.5625 -51.2207 41.6016 -42.4316 41.6016 -28.5645 Z"/>
  </g>
  <g id="Thin-L" transform="matrix(1 0 0 1 784.889 1556)">
   <path d="M 32.666 19.5312 L 110.352 19.5312 C 121.24 19.5312 127.002 13.6719 127.002 2.97852 L 127.002 -74.8047 C 127.002 -85.498 121.24 -91.3574 110.352 -91.3574 L 32.666 -91.3574 C 21.7773 -91.3574 16.0645 -85.6445 16.0645 -74.8047 L 16.0645 2.97852 C 16.0645 13.8184 21.7773 19.5312 32.666 19.5312 Z M 32.8125 15.625 C 24.4141 15.625 19.9707 11.2305 19.9707 2.73438 L 19.9707 -74.6094 C 19.9707 -83.0566 24.4141 -87.4512 32.8125 -87.4512 L 110.205 -87.4512 C 118.359 -87.4512 123.047 -83.0566 123.047 -74.6094 L 123.047 2.73438 C 123.047 11.2305 118.359 15.625 110.205 15.625 Z M 41.6504 -28.7109 C 41.6504 -15.8203 50.9277 -7.37305 64.6484 -7.37305 L 74.9023 -7.37305 C 76.0742 -7.37305 76.8555 -8.10547 76.8555 -9.27734 C 76.8555 -10.4492 76.0742 -11.1816 74.9023 -11.1816 L 64.6484 -11.1816 C 53.2227 -11.1816 45.5078 -18.1641 45.5078 -28.7598 C 45.5078 -39.3555 53.2227 -46.2402 64.6484 -46.2402 L 89.5996 -46.2402 L 96.2891 -46.4355 L 93.2129 -43.9941 L 81.1035 -31.9336 C 80.6152 -31.4941 80.2734 -31.0059 80.2734 -30.3711 C 80.2734 -29.248 81.0547 -28.418 82.2754 -28.418 C 82.9102 -28.418 83.3984 -28.6621 83.7402 -29.0527 L 100.488 -46.0938 C 101.025 -46.6309 101.367 -47.3633 101.367 -48.1445 C 101.367 -48.9746 101.025 -49.6582 100.488 -50.1953 L 83.7402 -67.2363 C 83.3984 -67.627 82.9102 -67.9199 82.2754 -67.9199 C 81.0547 -67.9199 80.2734 -67.041 80.2734 -65.918 C 80.2734 -65.2832 80.6641 -64.7949 81.1035 -64.3555 L 93.0664 -52.4414 L 96.2891 -49.9023 L 89.5996 -50.0488 L 64.6484 -50.0488 C 50.9277 -50.0488 41.6504 -41.6016 41.6504 -28.7109 Z"/>
  </g>
  <g id="Ultralight-L" transform="matrix(1 0 0 1 488.739 1556)">
   <path d="M 31.9824 18.9941 L 109.961 18.9941 C 120.312 18.9941 125.879 13.2812 125.879 3.07617 L 125.879 -74.8535 C 125.879 -85.1074 120.312 -90.8203 109.961 -90.8203 L 31.9824 -90.8203 C 21.582 -90.8203 16.0645 -85.2539 16.0645 -74.8535 L 16.0645 3.07617 C 16.0645 13.4277 21.582 18.9941 31.9824 18.9941 Z M 32.1289 16.4551 C 23.1934 16.4551 18.6035 11.8164 18.6035 2.92969 L 18.6035 -74.7559 C 18.6035 -83.6426 23.1934 -88.2324 32.1289 -88.2324 L 109.766 -88.2324 C 118.359 -88.2324 123.291 -83.6426 123.291 -74.7559 L 123.291 2.92969 C 123.291 11.8164 118.359 16.4551 109.766 16.4551 Z M 41.6992 -28.8086 C 41.6992 -16.4062 50.5859 -8.1543 64.0625 -8.1543 L 74.707 -8.1543 C 75.4883 -8.1543 76.0254 -8.69141 76.0254 -9.47266 C 76.0254 -10.2539 75.4883 -10.791 74.707 -10.791 L 64.0625 -10.791 C 52.1973 -10.791 44.3359 -17.9688 44.3359 -28.7598 C 44.3359 -39.5508 52.1973 -46.7773 64.0625 -46.7773 L 90.3809 -46.7773 L 96.9238 -46.9238 L 93.9941 -44.5312 L 80.9082 -31.543 C 80.5664 -31.1523 80.2734 -30.8594 80.2734 -30.3223 C 80.2734 -29.541 80.7617 -28.9062 81.6895 -28.9062 C 82.1777 -28.9062 82.5195 -29.1504 82.7637 -29.4434 L 99.5117 -46.4355 C 99.9512 -46.875 100.195 -47.4609 100.195 -48.0957 C 100.195 -48.7793 99.9512 -49.3652 99.5117 -49.7559 L 82.7637 -66.8457 C 82.5195 -67.0898 82.1777 -67.334 81.6895 -67.334 C 80.7617 -67.334 80.2734 -66.6992 80.2734 -65.918 C 80.2734 -65.4297 80.5664 -65.0879 80.9082 -64.6973 L 94.1406 -51.5625 L 96.9238 -49.3164 L 90.3809 -49.4629 L 64.0625 -49.4629 C 50.5859 -49.4629 41.6992 -41.1621 41.6992 -28.8086 Z"/>
  </g>
  <g id="Black-M" transform="matrix(1 0 0 1 2872.19 1126)">
   <path d="M 31.9824 12.9395 L 90.4297 12.9395 C 102.686 12.9395 109.961 5.66406 109.961 -6.5918 L 109.961 -65.0391 C 109.961 -77.2949 102.686 -84.5703 90.4297 -84.5703 L 31.9824 -84.5703 C 19.7266 -84.5703 12.4512 -77.2949 12.4512 -65.0391 L 12.4512 -6.5918 C 12.4512 5.66406 19.7266 12.9395 31.9824 12.9395 Z M 34.9121 -5.37109 C 32.0801 -5.37109 30.7617 -6.44531 30.7617 -9.52148 L 30.7617 -62.1094 C 30.7617 -65.1855 32.0801 -66.3086 34.9121 -66.3086 L 87.5 -66.3086 C 90.332 -66.3086 91.6504 -65.1855 91.6504 -62.1094 L 91.6504 -9.52148 C 91.6504 -6.44531 90.332 -5.37109 87.5 -5.37109 Z M 35.9863 -30.8594 C 35.9863 -19.0918 43.8965 -11.1816 55.7617 -11.1816 L 63.1348 -11.1816 C 66.6992 -11.1816 69.0918 -13.3789 69.0918 -16.6016 C 69.0918 -19.7266 66.6504 -21.8262 63.0371 -21.8262 L 55.7617 -21.8262 C 50.3418 -21.8262 46.9238 -25.4883 46.9238 -30.8594 C 46.9238 -36.4258 50.4395 -40.2344 55.8594 -40.2344 L 69.7754 -40.2344 L 72.4121 -40.5762 L 69.7266 -38.8184 L 65.2344 -35.4492 C 64.1602 -34.668 63.6719 -33.4473 63.6719 -32.3242 C 63.6719 -29.7852 66.0645 -27.5391 68.5059 -27.5391 C 69.6777 -27.5391 70.9473 -27.9785 71.8262 -28.8574 L 85.0098 -42.1387 C 85.9863 -43.0664 86.377 -44.2871 86.377 -45.4102 C 86.377 -46.6797 85.8887 -47.8027 85.0098 -48.7305 L 71.8262 -62.0605 C 70.9473 -62.9883 69.7266 -63.4277 68.6035 -63.4277 C 66.2109 -63.4277 63.8184 -61.1328 63.8184 -58.6426 C 63.8184 -57.5195 64.2578 -56.2988 65.2344 -55.4199 L 69.7754 -51.5137 L 72.4121 -49.7559 L 69.7754 -50.0977 L 55.8594 -50.0977 C 43.9453 -50.0977 35.9863 -42.3828 35.9863 -30.8594 Z"/>
  </g>
  <g id="Heavy-M" transform="matrix(1 0 0 1 2576.39 1126)">
   <path d="M 31.0059 12.0117 L 89.6484 12.0117 C 101.416 12.0117 108.154 5.27344 108.154 -6.44531 L 108.154 -65.1855 C 108.154 -76.9043 101.416 -83.6914 89.6484 -83.6914 L 31.0059 -83.6914 C 19.2383 -83.6914 12.4512 -76.9043 12.4512 -65.1855 L 12.4512 -6.44531 C 12.4512 5.27344 19.2383 12.0117 31.0059 12.0117 Z M 33.252 -3.80859 C 29.9316 -3.80859 28.2715 -5.22461 28.2715 -8.78906 L 28.2715 -62.8418 C 28.2715 -66.4062 29.9316 -67.8223 33.252 -67.8223 L 87.3535 -67.8223 C 90.6738 -67.8223 92.334 -66.4062 92.334 -62.8418 L 92.334 -8.78906 C 92.334 -5.22461 90.6738 -3.80859 87.3535 -3.80859 Z M 35.1074 -30.6152 C 35.1074 -18.8965 43.1152 -11.084 54.8828 -11.084 L 62.1094 -11.084 C 65.332 -11.084 67.5293 -13.0859 67.5293 -16.1133 C 67.5293 -18.9941 65.2832 -20.8984 62.0605 -20.8984 L 54.8828 -20.8984 C 49.0234 -20.8984 45.1172 -24.8047 45.1172 -30.7129 C 45.1172 -36.7676 49.1211 -40.625 54.9805 -40.625 L 69.043 -40.625 L 72.4121 -40.9668 L 69.6777 -39.1113 L 64.7949 -35.1562 C 63.8184 -34.375 63.3789 -33.252 63.3789 -32.1777 C 63.3789 -29.7363 65.5273 -27.6855 67.8711 -27.6855 C 68.9941 -27.6855 70.166 -28.0762 70.9961 -28.9062 L 84.1797 -42.1875 C 85.0586 -43.1152 85.498 -44.2871 85.498 -45.4102 C 85.498 -46.6309 85.0098 -47.7539 84.1797 -48.6328 L 70.9961 -61.9141 C 70.166 -62.8418 69.0918 -63.2324 67.9688 -63.2324 C 65.625 -63.2324 63.4766 -61.084 63.4766 -58.7402 C 63.4766 -57.6172 63.916 -56.4941 64.8438 -55.7129 L 69.4824 -51.5137 L 72.4121 -49.4629 L 69.043 -49.8047 L 54.9805 -49.8047 C 43.1641 -49.8047 35.1074 -42.1875 35.1074 -30.6152 Z"/>
  </g>
  <g id="Bold-M" transform="matrix(1 0 0 1 2280.68 1126)">
   <path d="M 29.8828 11.0352 L 88.7207 11.0352 C 99.9512 11.0352 106.152 4.88281 106.152 -6.29883 L 106.152 -65.332 C 106.152 -76.5137 99.9512 -82.666 88.7207 -82.666 L 29.8828 -82.666 C 18.6523 -82.666 12.4512 -76.5137 12.4512 -65.332 L 12.4512 -6.29883 C 12.4512 4.88281 18.6523 11.0352 29.8828 11.0352 Z M 31.3965 -2.05078 C 27.5391 -2.05078 25.5371 -3.90625 25.5371 -7.95898 L 25.5371 -63.6719 C 25.5371 -67.7246 27.5391 -69.5801 31.3965 -69.5801 L 87.207 -69.5801 C 91.0156 -69.5801 93.0664 -67.7246 93.0664 -63.6719 L 93.0664 -7.95898 C 93.0664 -3.90625 91.0156 -2.05078 87.207 -2.05078 Z M 34.082 -30.3711 C 34.082 -18.6523 42.2852 -11.0352 53.9062 -11.0352 L 60.9375 -11.0352 C 63.8184 -11.0352 65.8203 -12.7441 65.8203 -15.4785 C 65.8203 -18.1641 63.7695 -19.8242 60.9375 -19.8242 L 53.9062 -19.8242 C 47.5098 -19.8242 43.1152 -24.0234 43.1152 -30.5664 C 43.1152 -37.1094 47.6074 -41.0645 53.9551 -41.0645 L 68.2129 -41.0645 L 72.3633 -41.3574 L 69.6289 -39.4043 L 64.3066 -34.8145 C 63.4277 -34.082 63.0371 -33.0078 63.0371 -31.9824 C 63.0371 -29.7363 64.9902 -27.832 67.1387 -27.832 C 68.2617 -27.832 69.2871 -28.2227 70.0684 -29.0039 L 83.2031 -42.2852 C 84.082 -43.1641 84.5215 -44.2871 84.5215 -45.4102 C 84.5215 -46.582 84.0332 -47.6562 83.2031 -48.5352 L 70.1172 -61.8164 C 69.3359 -62.6465 68.3105 -63.0371 67.2363 -63.0371 C 65.0391 -63.0371 63.0859 -61.084 63.0859 -58.8379 C 63.0859 -57.7637 63.5254 -56.7383 64.3555 -56.0059 L 69.1406 -51.5625 L 72.3633 -49.1699 L 68.2129 -49.4629 L 53.9551 -49.4629 C 42.2852 -49.4629 34.082 -41.9922 34.082 -30.3711 Z"/>
  </g>
  <g id="Semibold-M" transform="matrix(1 0 0 1 1984.65 1126)">
   <path d="M 29.1016 10.3516 L 88.0859 10.3516 C 98.9746 10.3516 104.785 4.58984 104.785 -6.20117 L 104.785 -65.4297 C 104.785 -76.2207 98.9746 -81.9824 88.0859 -81.9824 L 29.1016 -81.9824 C 18.2617 -81.9824 12.4512 -76.2207 12.4512 -65.4297 L 12.4512 -6.20117 C 12.4512 4.58984 18.2617 10.3516 29.1016 10.3516 Z M 30.127 -0.830078 C 25.8789 -0.830078 23.6328 -2.97852 23.6328 -7.37305 L 23.6328 -64.209 C 23.6328 -68.6523 25.8789 -70.8008 30.127 -70.8008 L 87.1094 -70.8008 C 91.2598 -70.8008 93.6035 -68.6523 93.6035 -64.209 L 93.6035 -7.37305 C 93.6035 -2.97852 91.2598 -0.830078 87.1094 -0.830078 Z M 33.3984 -30.2246 C 33.3984 -18.457 41.6992 -10.9863 53.2227 -10.9863 L 60.1562 -10.9863 C 62.7441 -10.9863 64.5996 -12.5 64.5996 -15.0879 C 64.5996 -17.627 62.7441 -19.0918 60.2051 -19.0918 L 53.2227 -19.0918 C 46.4844 -19.0918 41.748 -23.5352 41.748 -30.4688 C 41.748 -37.3535 46.6309 -41.4062 53.2715 -41.4062 L 67.627 -41.4062 L 72.3633 -41.6504 L 69.5801 -39.6484 L 64.0137 -34.5703 C 63.1836 -33.8867 62.793 -32.8613 62.793 -31.8848 C 62.793 -29.6875 64.5996 -27.9297 66.6504 -27.9297 C 67.7246 -27.9297 68.7012 -28.2715 69.4336 -29.0527 L 82.5195 -42.334 C 83.3496 -43.1641 83.8379 -44.2383 83.8379 -45.4102 C 83.8379 -46.582 83.3496 -47.6562 82.5195 -48.4863 L 69.4824 -61.7188 C 68.7012 -62.5 67.8223 -62.8906 66.748 -62.8906 C 64.5996 -62.8906 62.8418 -61.084 62.8418 -58.9355 C 62.8418 -57.8613 63.2812 -56.8848 64.0137 -56.2012 L 68.8965 -51.6113 L 72.3633 -48.9746 L 67.627 -49.2188 L 53.2715 -49.2188 C 41.6992 -49.2188 33.3984 -41.8945 33.3984 -30.2246 Z"/>
  </g>
  <g id="Medium-M" transform="matrix(1 0 0 1 1688.47 1126)">
   <path d="M 28.5156 9.81445 L 87.6465 9.81445 C 98.2422 9.81445 103.711 4.3457 103.711 -6.10352 L 103.711 -65.5273 C 103.711 -75.9766 98.2422 -81.4453 87.6465 -81.4453 L 28.5156 -81.4453 C 17.9688 -81.4453 12.4512 -75.9766 12.4512 -65.5273 L 12.4512 -6.10352 C 12.4512 4.39453 17.9688 9.81445 28.5156 9.81445 Z M 29.1504 0.0976562 C 24.6582 0.0976562 22.168 -2.24609 22.168 -6.98242 L 22.168 -64.6484 C 22.168 -69.3848 24.6582 -71.7285 29.1504 -71.7285 L 87.0117 -71.7285 C 91.4551 -71.7285 93.9941 -69.3848 93.9941 -64.6484 L 93.9941 -6.98242 C 93.9941 -2.24609 91.4551 0.0976562 87.0117 0.0976562 Z M 32.8613 -30.0781 C 32.8613 -18.3594 41.2598 -10.9375 52.7344 -10.9375 L 59.5215 -10.9375 C 61.9629 -10.9375 63.7207 -12.3535 63.7207 -14.7461 C 63.7207 -17.1875 61.9629 -18.5547 59.6191 -18.5547 L 52.7344 -18.5547 C 45.7031 -18.5547 40.6738 -23.1445 40.6738 -30.4199 C 40.6738 -37.5488 45.8496 -41.6504 52.7344 -41.6504 L 67.1875 -41.6504 L 72.3633 -41.8945 L 69.5801 -39.8438 L 63.7207 -34.4238 C 62.9883 -33.7402 62.5977 -32.7148 62.5977 -31.7871 C 62.5977 -29.6875 64.2578 -27.9785 66.3086 -27.9785 C 67.334 -27.9785 68.2129 -28.3691 68.9453 -29.0527 L 81.9824 -42.3828 C 82.8613 -43.2129 83.3008 -44.2383 83.3008 -45.4102 C 83.3008 -46.5332 82.8125 -47.6074 81.9824 -48.4375 L 68.9941 -61.6211 C 68.2617 -62.4023 67.3828 -62.7441 66.3574 -62.7441 C 64.3066 -62.7441 62.6465 -61.084 62.6465 -58.9844 C 62.6465 -57.959 63.0859 -56.9824 63.7695 -56.3477 L 68.75 -51.6113 L 72.3633 -48.7793 L 67.1875 -49.0234 L 52.7344 -49.0234 C 41.2109 -49.0234 32.8613 -41.7969 32.8613 -30.0781 Z"/>
  </g>
  <g id="Regular-M" transform="matrix(1 0 0 1 1392.45 1126)">
   <path d="M 27.7832 9.13086 L 87.0117 9.13086 C 97.2656 9.13086 102.344 4.05273 102.344 -6.00586 L 102.344 -65.625 C 102.344 -75.6836 97.2656 -80.7617 87.0117 -80.7617 L 27.7832 -80.7617 C 17.5781 -80.7617 12.4512 -75.7324 12.4512 -65.625 L 12.4512 -6.00586 C 12.4512 4.10156 17.5781 9.13086 27.7832 9.13086 Z M 27.8809 1.26953 C 22.998 1.26953 20.3125 -1.31836 20.3125 -6.39648 L 20.3125 -65.2344 C 20.3125 -70.2637 22.998 -72.9004 27.8809 -72.9004 L 86.9141 -72.9004 C 91.748 -72.9004 94.4824 -70.2637 94.4824 -65.2344 L 94.4824 -6.39648 C 94.4824 -1.31836 91.748 1.26953 86.9141 1.26953 Z M 32.1777 -29.9316 C 32.1777 -18.1641 40.6738 -10.8887 52.0508 -10.8887 L 58.7402 -10.8887 C 60.9375 -10.8887 62.5488 -12.1094 62.5488 -14.3555 C 62.5488 -16.6016 60.9375 -17.8711 58.8379 -17.8711 L 52.0508 -17.8711 C 44.6777 -17.8711 39.3555 -22.6074 39.3555 -30.3223 C 39.3555 -37.8418 44.8242 -41.9434 52.002 -41.9434 L 66.6016 -41.9434 L 72.3633 -42.1387 L 69.5312 -40.0391 L 63.4277 -34.1797 C 62.6953 -33.5449 62.3535 -32.5684 62.3535 -31.6406 C 62.3535 -29.6387 63.8672 -28.0762 65.8203 -28.0762 C 66.8457 -28.0762 67.627 -28.418 68.3105 -29.1016 L 81.3477 -42.4316 C 82.1777 -43.2617 82.666 -44.2383 82.666 -45.3613 C 82.666 -46.5332 82.1777 -47.5586 81.3477 -48.3887 L 68.3594 -61.5234 C 67.6758 -62.2559 66.8945 -62.5977 65.8691 -62.5977 C 63.8672 -62.5977 62.3535 -61.084 62.3535 -59.0332 C 62.3535 -58.0566 62.793 -57.1289 63.4766 -56.543 L 68.5059 -51.6602 L 72.3633 -48.584 L 66.6016 -48.7793 L 52.002 -48.7793 C 40.625 -48.7793 32.1777 -41.6504 32.1777 -29.9316 Z"/>
  </g>
  <g id="Light-M" transform="matrix(1 0 0 1 1096.47 1126)">
   <path d="M 26.8555 8.39844 L 86.4746 8.39844 C 95.9961 8.39844 100.879 3.51562 100.879 -5.85938 L 100.879 -65.7227 C 100.879 -75.1465 95.9961 -79.9805 86.4746 -79.9805 L 26.8555 -79.9805 C 17.334 -79.9805 12.4512 -75.1953 12.4512 -65.7227 L 12.4512 -5.85938 C 12.4512 3.61328 17.334 8.39844 26.8555 8.39844 Z M 26.9531 2.39258 C 21.4844 2.39258 18.5059 -0.537109 18.5059 -6.15234 L 18.5059 -65.4297 C 18.5059 -71.0449 21.4844 -73.9746 26.9531 -73.9746 L 86.3281 -73.9746 C 91.748 -73.9746 94.8242 -71.0449 94.8242 -65.4297 L 94.8242 -6.15234 C 94.8242 -0.537109 91.748 2.39258 86.3281 2.39258 Z M 32.2266 -30.0293 C 32.2266 -18.9453 40.2344 -11.9141 51.3184 -11.9141 L 58.4961 -11.9141 C 60.1562 -11.9141 61.4258 -12.8906 61.4258 -14.6484 C 61.4258 -16.4062 60.1562 -17.3828 58.5449 -17.3828 L 51.3184 -17.3828 C 43.4082 -17.3828 37.793 -22.3633 37.793 -30.2734 C 37.793 -38.0371 43.5059 -42.627 51.3184 -42.627 L 67.6758 -42.627 L 73.2422 -42.8223 L 70.5566 -40.7715 L 63.1836 -33.5938 C 62.6465 -33.0566 62.3047 -32.3242 62.3047 -31.5918 C 62.3047 -29.9805 63.4766 -28.8086 65.0391 -28.8086 C 65.8691 -28.8086 66.5039 -29.1016 67.041 -29.6387 L 80.0293 -42.9199 C 80.7129 -43.5547 81.1035 -44.3848 81.1035 -45.3125 C 81.1035 -46.2891 80.7129 -47.1191 80.0293 -47.8027 L 67.0898 -60.9863 C 66.5527 -61.5234 65.918 -61.8164 65.0879 -61.8164 C 63.4766 -61.8164 62.3047 -60.6445 62.3047 -59.0332 C 62.3047 -58.2031 62.6953 -57.5195 63.2324 -57.0312 L 69.873 -50.4883 L 73.2422 -47.8516 L 67.6758 -47.998 L 51.3184 -47.998 C 40.1855 -47.998 32.2266 -41.1133 32.2266 -30.0293 Z"/>
  </g>
  <g id="Thin-M" transform="matrix(1 0 0 1 800.758 1126)">
   <path d="M 25.6348 7.4707 L 85.7422 7.4707 C 94.3848 7.4707 98.877 2.83203 98.877 -5.66406 L 98.877 -65.8691 C 98.877 -74.3652 94.3848 -79.0039 85.7422 -79.0039 L 25.6348 -79.0039 C 16.9922 -79.0039 12.4512 -74.4629 12.4512 -65.8691 L 12.4512 -5.66406 C 12.4512 2.92969 16.9922 7.4707 25.6348 7.4707 Z M 25.7324 3.80859 C 19.3848 3.80859 16.0645 0.537109 16.0645 -5.85938 L 16.0645 -65.6738 C 16.0645 -72.0703 19.3848 -75.3418 25.7324 -75.3418 L 85.5957 -75.3418 C 91.748 -75.3418 95.2637 -72.0703 95.2637 -65.6738 L 95.2637 -5.85938 C 95.2637 0.537109 91.748 3.80859 85.5957 3.80859 Z M 32.2754 -30.127 C 32.2754 -19.9707 39.5996 -13.2812 50.3418 -13.2812 L 58.1543 -13.2812 C 59.1797 -13.2812 59.9121 -13.9648 59.9121 -15.0391 C 59.9121 -16.0645 59.1797 -16.748 58.1543 -16.748 L 50.3418 -16.748 C 41.6504 -16.748 35.7422 -22.0703 35.7422 -30.2246 C 35.7422 -38.3789 41.6992 -43.5547 50.3418 -43.5547 L 69.0918 -43.5547 L 74.3652 -43.7012 L 71.9238 -41.7969 L 62.8906 -32.8613 C 62.5 -32.4707 62.2559 -32.0312 62.2559 -31.4941 C 62.2559 -30.4688 62.9395 -29.7363 64.0137 -29.7363 C 64.5508 -29.7363 64.9902 -29.9316 65.332 -30.2734 L 78.3203 -43.5059 C 78.7598 -43.9941 79.0527 -44.5801 79.0527 -45.2637 C 79.0527 -45.9473 78.7598 -46.582 78.3203 -47.0215 L 65.332 -60.2051 C 64.9902 -60.5957 64.5996 -60.791 64.0137 -60.791 C 62.9395 -60.791 62.2559 -60.0098 62.2559 -59.0332 C 62.2559 -58.4473 62.5488 -58.0078 62.9395 -57.666 L 71.7285 -48.9258 L 74.3652 -46.8262 L 69.0918 -46.9727 L 50.3418 -46.9727 C 39.5996 -46.9727 32.2754 -40.332 32.2754 -30.127 Z"/>
  </g>
  <g id="Ultralight-M" transform="matrix(1 0 0 1 504.535 1126)">
   <path d="M 25 6.93359 L 85.3516 6.93359 C 93.5059 6.93359 97.9004 2.49023 97.9004 -5.56641 L 97.9004 -65.918 C 97.9004 -73.9746 93.5059 -78.4668 85.3516 -78.4668 L 25 -78.4668 C 16.7969 -78.4668 12.4512 -74.1211 12.4512 -65.918 L 12.4512 -5.56641 C 12.4512 2.58789 16.7969 6.93359 25 6.93359 Z M 25.0977 4.54102 C 18.3594 4.54102 14.8438 1.07422 14.8438 -5.71289 L 14.8438 -65.8203 C 14.8438 -72.5586 18.3594 -76.0742 25.0977 -76.0742 L 85.2051 -76.0742 C 91.748 -76.0742 95.5078 -72.5586 95.5078 -65.8203 L 95.5078 -5.71289 C 95.5078 1.07422 91.748 4.54102 85.2051 4.54102 Z M 32.3242 -30.2246 C 32.3242 -20.459 39.3066 -14.0137 49.8535 -14.0137 L 57.959 -14.0137 C 58.6914 -14.0137 59.1797 -14.502 59.1797 -15.1855 C 59.1797 -15.918 58.6914 -16.4062 57.959 -16.4062 L 49.8535 -16.4062 C 40.7715 -16.4062 34.7168 -21.9238 34.7168 -30.2246 C 34.7168 -38.5254 40.7715 -44.043 49.8535 -44.043 L 69.8242 -44.043 L 74.9023 -44.1406 L 72.6074 -42.2852 L 62.7441 -32.4707 C 62.4512 -32.1777 62.207 -31.8848 62.207 -31.4453 C 62.207 -30.7129 62.6953 -30.1758 63.4766 -30.1758 C 63.916 -30.1758 64.209 -30.3711 64.4531 -30.6152 L 77.3926 -43.8477 C 77.7832 -44.1895 78.0273 -44.6777 78.0273 -45.2148 C 78.0273 -45.8008 77.7832 -46.2891 77.3926 -46.6309 L 64.4531 -59.8633 C 64.209 -60.1074 63.916 -60.2539 63.4766 -60.2539 C 62.6953 -60.2539 62.207 -59.7168 62.207 -58.9844 C 62.207 -58.5938 62.4512 -58.3008 62.7441 -57.959 L 72.6562 -48.1445 L 74.9023 -46.2891 L 69.8242 -46.4355 L 49.8535 -46.4355 C 39.3066 -46.4355 32.3242 -39.9902 32.3242 -30.2246 Z"/>
  </g>
  <g id="Black-S" transform="matrix(1 0 0 1 2885.5 696)">
   <path d="M 25 2.44141 L 70.8008 2.44141 C 80.3711 2.44141 86.0352 -3.22266 86.0352 -12.793 L 86.0352 -58.5938 C 86.0352 -68.1641 80.3711 -73.8281 70.8008 -73.8281 L 25 -73.8281 C 15.4297 -73.8281 9.76562 -68.1641 9.76562 -58.5938 L 9.76562 -12.793 C 9.76562 -3.22266 15.4297 2.44141 25 2.44141 Z M 27.2461 -11.7188 C 25 -11.7188 23.9258 -12.5977 23.9258 -15.0391 L 23.9258 -56.3477 C 23.9258 -58.7891 25 -59.668 27.2461 -59.668 L 68.5547 -59.668 C 70.8008 -59.668 71.875 -58.7891 71.875 -56.3477 L 71.875 -15.0391 C 71.875 -12.5977 70.8008 -11.7188 68.5547 -11.7188 Z M 28.125 -31.7871 C 28.125 -22.5586 34.3262 -16.3574 43.6035 -16.3574 L 49.3652 -16.3574 C 52.1484 -16.3574 54.0039 -18.0664 54.0039 -20.6055 C 54.0039 -23.0469 52.0996 -24.6582 49.3164 -24.6582 L 43.6035 -24.6582 C 39.3555 -24.6582 36.6211 -27.5391 36.6211 -31.7871 C 36.6211 -36.1816 39.4043 -39.1602 43.7012 -39.1602 L 54.5898 -39.1602 L 56.6895 -39.4531 L 54.5898 -38.0371 L 51.0742 -35.4004 C 50.2441 -34.7656 49.8535 -33.8379 49.8535 -32.959 C 49.8535 -30.957 51.709 -29.1992 53.6133 -29.1992 C 54.541 -29.1992 55.5176 -29.541 56.2012 -30.2246 L 66.5527 -40.625 C 67.2852 -41.3574 67.627 -42.334 67.627 -43.2129 C 67.627 -44.1895 67.2363 -45.0684 66.5527 -45.8008 L 56.2012 -56.25 C 55.5176 -56.9824 54.5898 -57.3242 53.7109 -57.3242 C 51.8066 -57.3242 49.9512 -55.5176 49.9512 -53.5645 C 49.9512 -52.6855 50.293 -51.7578 51.0742 -51.0742 L 54.5898 -47.998 L 56.6895 -46.582 L 54.5898 -46.875 L 43.7012 -46.875 C 34.375 -46.875 28.125 -40.8203 28.125 -31.7871 Z"/>
  </g>
  <g id="Heavy-S" transform="matrix(1 0 0 1 2589.4 696)">
   <path d="M 24.3652 1.85547 L 70.2637 1.85547 C 79.541 1.85547 84.8145 -3.4668 84.8145 -12.6953 L 84.8145 -58.6914 C 84.8145 -67.9199 79.541 -73.2422 70.2637 -73.2422 L 24.3652 -73.2422 C 15.0879 -73.2422 9.76562 -67.9199 9.76562 -58.6914 L 9.76562 -12.6953 C 9.76562 -3.4668 15.0879 1.85547 24.3652 1.85547 Z M 26.0742 -10.6445 C 23.5352 -10.6445 22.2656 -11.7676 22.2656 -14.502 L 22.2656 -56.8848 C 22.2656 -59.6191 23.5352 -60.7422 26.0742 -60.7422 L 68.5059 -60.7422 C 71.0449 -60.7422 72.3633 -59.6191 72.3633 -56.8848 L 72.3633 -14.502 C 72.3633 -11.7676 71.0449 -10.6445 68.5059 -10.6445 Z M 27.4414 -31.5918 C 27.4414 -22.3145 33.7891 -16.2109 43.0176 -16.2109 L 48.584 -16.2109 C 51.1719 -16.2109 52.9297 -17.7734 52.9297 -20.166 C 52.9297 -22.5098 51.1719 -23.9746 48.584 -23.9746 L 43.0176 -23.9746 C 38.4766 -23.9746 35.4004 -27.0508 35.4004 -31.6895 C 35.4004 -36.4258 38.5254 -39.4043 43.0664 -39.4043 L 53.9062 -39.4043 L 56.5918 -39.6484 L 54.4434 -38.1836 L 50.7812 -35.2539 C 50 -34.6191 49.6094 -33.6914 49.6094 -32.8613 C 49.6094 -30.9082 51.3672 -29.248 53.2227 -29.248 C 54.1504 -29.248 55.0293 -29.541 55.7129 -30.2246 L 66.0156 -40.625 C 66.748 -41.3574 67.1387 -42.2852 67.1387 -43.2129 C 67.1387 -44.1895 66.6992 -45.0684 66.0156 -45.8008 L 55.7129 -56.2012 C 55.0781 -56.9336 54.1992 -57.2754 53.3203 -57.2754 C 51.416 -57.2754 49.707 -55.5664 49.707 -53.6621 C 49.707 -52.7832 50.0488 -51.8555 50.7812 -51.2207 L 54.1992 -48.1445 L 56.5918 -46.4844 L 53.9062 -46.7285 L 43.0664 -46.7285 C 33.8379 -46.7285 27.4414 -40.7715 27.4414 -31.5918 Z"/>
  </g>
  <g id="Bold-S" transform="matrix(1 0 0 1 2293.35 696)">
   <path d="M 23.6328 1.17188 L 69.6289 1.17188 C 78.6133 1.17188 83.4961 -3.71094 83.4961 -12.5977 L 83.4961 -58.7891 C 83.4961 -67.6758 78.6133 -72.5586 69.6289 -72.5586 L 23.6328 -72.5586 C 14.6973 -72.5586 9.76562 -67.6758 9.76562 -58.7891 L 9.76562 -12.5977 C 9.76562 -3.71094 14.6973 1.17188 23.6328 1.17188 Z M 24.8047 -9.42383 C 21.9238 -9.42383 20.3613 -10.8398 20.3613 -13.916 L 20.3613 -57.4707 C 20.3613 -60.5469 21.9238 -61.9629 24.8047 -61.9629 L 68.457 -61.9629 C 71.3379 -61.9629 72.9004 -60.5469 72.9004 -57.4707 L 72.9004 -13.916 C 72.9004 -10.8398 71.3379 -9.42383 68.457 -9.42383 Z M 26.6602 -31.3965 C 26.6602 -22.0215 33.2031 -16.0156 42.3828 -16.0156 L 47.7539 -16.0156 C 50.0977 -16.0156 51.7578 -17.3828 51.7578 -19.6777 C 51.7578 -21.9238 50.0977 -23.2422 47.8027 -23.2422 L 42.3828 -23.2422 C 37.5 -23.2422 34.082 -26.5137 34.082 -31.5918 C 34.082 -36.6699 37.5977 -39.6484 42.3828 -39.6484 L 53.125 -39.6484 L 56.4941 -39.8926 L 54.2969 -38.3301 L 50.4395 -35.0586 C 49.707 -34.4238 49.3652 -33.5449 49.3652 -32.7148 C 49.3652 -30.8105 50.9766 -29.248 52.7832 -29.248 C 53.6621 -29.248 54.541 -29.5898 55.1758 -30.2246 L 65.4297 -40.625 C 66.1621 -41.3574 66.5527 -42.2852 66.5527 -43.2129 C 66.5527 -44.1895 66.1621 -45.0684 65.4297 -45.8008 L 55.1758 -56.2012 C 54.541 -56.8848 53.7109 -57.1777 52.832 -57.1777 C 51.0254 -57.1777 49.4141 -55.6152 49.4141 -53.7109 C 49.4141 -52.832 49.7559 -52.002 50.4395 -51.3672 L 53.8086 -48.3398 L 56.4941 -46.3379 L 53.125 -46.5332 L 42.3828 -46.5332 C 33.2031 -46.5332 26.6602 -40.6738 26.6602 -31.3965 Z"/>
  </g>
  <g id="Semibold-S" transform="matrix(1 0 0 1 1997.1 696)">
   <path d="M 23.0957 0.683594 L 69.1895 0.683594 C 77.9297 0.683594 82.5684 -3.85742 82.5684 -12.5 L 82.5684 -58.8867 C 82.5684 -67.5293 77.9297 -72.0703 69.1895 -72.0703 L 23.0957 -72.0703 C 14.4043 -72.0703 9.76562 -67.5293 9.76562 -58.8867 L 9.76562 -12.5 C 9.76562 -3.85742 14.4043 0.683594 23.0957 0.683594 Z M 23.877 -8.59375 C 20.752 -8.59375 19.0918 -10.2051 19.0918 -13.4766 L 19.0918 -57.9102 C 19.0918 -61.1816 20.752 -62.793 23.877 -62.793 L 68.4082 -62.793 C 71.5332 -62.793 73.2422 -61.1816 73.2422 -57.9102 L 73.2422 -13.4766 C 73.2422 -10.2051 71.5332 -8.59375 68.4082 -8.59375 Z M 26.123 -31.25 C 26.123 -21.8262 32.7637 -15.8691 41.9434 -15.8691 L 47.168 -15.8691 C 49.3652 -15.8691 50.9766 -17.1387 50.9766 -19.3359 C 50.9766 -21.4844 49.3652 -22.7539 47.2168 -22.7539 L 41.9434 -22.7539 C 36.8164 -22.7539 33.1543 -26.123 33.1543 -31.4941 C 33.1543 -36.8164 36.9141 -39.8438 41.9434 -39.8438 L 52.5879 -39.8438 L 56.3965 -40.0391 L 54.1504 -38.4277 L 50.1953 -34.9121 C 49.5117 -34.3262 49.1699 -33.4473 49.1699 -32.6172 C 49.1699 -30.7617 50.6836 -29.2969 52.4414 -29.2969 C 53.3691 -29.2969 54.1504 -29.5898 54.7852 -30.2246 L 65.0391 -40.625 C 65.7715 -41.3574 66.1621 -42.2363 66.1621 -43.2129 C 66.1621 -44.1895 65.7715 -45.0684 65.0391 -45.8008 L 54.834 -56.1523 C 54.1992 -56.8359 53.418 -57.1289 52.5391 -57.1289 C 50.7324 -57.1289 49.2188 -55.6152 49.2188 -53.8086 C 49.2188 -52.8809 49.5605 -52.0508 50.1953 -51.5137 L 53.5156 -48.4375 L 56.3965 -46.2402 L 52.5879 -46.4355 L 41.9434 -46.4355 C 32.7637 -46.4355 26.123 -40.625 26.123 -31.25 Z"/>
  </g>
  <g id="Medium-S" transform="matrix(1 0 0 1 1700.75 696)">
   <path d="M 22.7051 0.341797 L 68.8965 0.341797 C 77.4414 0.341797 81.8359 -4.00391 81.8359 -12.4512 L 81.8359 -58.9355 C 81.8359 -67.3828 77.4414 -71.7285 68.8965 -71.7285 L 22.7051 -71.7285 C 14.209 -71.7285 9.76562 -67.3828 9.76562 -58.9355 L 9.76562 -12.4512 C 9.76562 -4.00391 14.209 0.341797 22.7051 0.341797 Z M 23.1934 -7.95898 C 19.9219 -7.95898 18.0664 -9.7168 18.0664 -13.1836 L 18.0664 -58.2031 C 18.0664 -61.6699 19.9219 -63.4277 23.1934 -63.4277 L 68.4082 -63.4277 C 71.6797 -63.4277 73.5352 -61.6699 73.5352 -58.2031 L 73.5352 -13.1836 C 73.5352 -9.7168 71.6797 -7.95898 68.4082 -7.95898 Z M 25.6836 -31.1523 C 25.6836 -21.6797 32.4707 -15.7715 41.6016 -15.7715 L 46.7285 -15.7715 C 48.8281 -15.7715 50.3418 -16.9434 50.3418 -19.0918 C 50.3418 -21.1914 48.7793 -22.3633 46.7773 -22.3633 L 41.6016 -22.3633 C 36.3281 -22.3633 32.4707 -25.8301 32.4707 -31.4453 C 32.4707 -36.9629 36.4258 -39.9902 41.5527 -39.9902 L 52.1484 -39.9902 L 56.3477 -40.1855 L 54.1016 -38.5254 L 50 -34.8145 C 49.3652 -34.2285 49.0234 -33.3496 49.0234 -32.5684 C 49.0234 -30.7129 50.4883 -29.2969 52.2461 -29.2969 C 53.125 -29.2969 53.9062 -29.5898 54.4922 -30.2246 L 64.7461 -40.625 C 65.4785 -41.3574 65.8691 -42.2363 65.8691 -43.2129 C 65.8691 -44.1895 65.4297 -45.1172 64.7461 -45.8008 L 54.541 -56.1523 C 53.9062 -56.7871 53.1738 -57.1289 52.2949 -57.1289 C 50.5371 -57.1289 49.0723 -55.6641 49.0723 -53.8574 C 49.0723 -52.9297 49.4141 -52.1484 50.0488 -51.5625 L 53.2715 -48.5352 L 56.3477 -46.1426 L 52.1484 -46.3379 L 41.5527 -46.3379 C 32.4219 -46.3379 25.6836 -40.5762 25.6836 -31.1523 Z"/>
  </g>
  <g id="Regular-S" transform="matrix(1 0 0 1 1404.51 696)">
   <path d="M 22.2168 -0.0976562 L 68.457 -0.0976562 C 76.8066 -0.0976562 80.9082 -4.19922 80.9082 -12.4023 L 80.9082 -58.9844 C 80.9082 -67.1875 76.8066 -71.2891 68.457 -71.2891 L 22.2168 -71.2891 C 13.916 -71.2891 9.76562 -67.1875 9.76562 -58.9844 L 9.76562 -12.4023 C 9.76562 -4.19922 13.916 -0.0976562 22.2168 -0.0976562 Z M 22.3145 -7.17773 C 18.7988 -7.17773 16.7969 -9.0332 16.7969 -12.7441 L 16.7969 -58.6426 C 16.7969 -62.3047 18.7988 -64.209 22.3145 -64.209 L 68.3594 -64.209 C 71.875 -64.209 73.877 -62.3047 73.877 -58.6426 L 73.877 -12.7441 C 73.877 -9.0332 71.875 -7.17773 68.3594 -7.17773 Z M 25.1465 -31.0059 C 25.1465 -21.4844 32.0801 -15.625 41.1621 -15.625 L 46.1426 -15.625 C 48.0957 -15.625 49.5117 -16.748 49.5117 -18.75 C 49.5117 -20.752 48.0957 -21.8262 46.2402 -21.8262 L 41.1621 -21.8262 C 35.6445 -21.8262 31.543 -25.4395 31.543 -31.3965 C 31.543 -37.1582 35.791 -40.1367 41.1133 -40.1367 L 51.6113 -40.1367 L 56.2988 -40.332 L 53.9551 -38.623 L 49.7559 -34.668 C 49.1699 -34.1309 48.877 -33.252 48.877 -32.4707 C 48.877 -30.6641 50.2441 -29.2969 51.9531 -29.2969 C 52.832 -29.2969 53.5156 -29.5898 54.1504 -30.2246 L 64.3555 -40.625 C 65.0391 -41.3574 65.4785 -42.1875 65.4785 -43.2129 C 65.4785 -44.1895 65.0391 -45.1172 64.3555 -45.8008 L 54.1992 -56.1035 C 53.5645 -56.7871 52.8809 -57.0801 51.9531 -57.0801 C 50.2441 -57.0801 48.877 -55.7129 48.877 -53.9062 C 48.877 -53.0273 49.2676 -52.1973 49.8047 -51.709 L 52.9785 -48.6328 L 56.2988 -46.0938 L 51.6113 -46.2402 L 41.1133 -46.2402 C 32.0312 -46.2402 25.1465 -40.5273 25.1465 -31.0059 Z"/>
  </g>
  <g id="Light-S" transform="matrix(1 0 0 1 1108.46 696)">
   <path d="M 21.3867 -0.78125 L 67.9688 -0.78125 C 75.7324 -0.78125 79.5898 -4.63867 79.5898 -12.2559 L 79.5898 -59.082 C 79.5898 -66.6992 75.7324 -70.6055 67.9688 -70.6055 L 21.3867 -70.6055 C 13.6719 -70.6055 9.76562 -66.748 9.76562 -59.082 L 9.76562 -12.2559 C 9.76562 -4.63867 13.6719 -0.78125 21.3867 -0.78125 Z M 21.4844 -6.20117 C 17.4316 -6.20117 15.1855 -8.34961 15.1855 -12.5488 L 15.1855 -58.7891 C 15.1855 -62.9883 17.4316 -65.1855 21.4844 -65.1855 L 67.8711 -65.1855 C 71.875 -65.1855 74.1699 -62.9883 74.1699 -58.7891 L 74.1699 -12.5488 C 74.1699 -8.34961 71.875 -6.20117 67.8711 -6.20117 Z M 25.1953 -31.1035 C 25.1953 -22.168 31.6406 -16.5527 40.4785 -16.5527 L 45.8984 -16.5527 C 47.4121 -16.5527 48.5352 -17.4316 48.5352 -18.9941 C 48.5352 -20.5566 47.4121 -21.4355 45.9961 -21.4355 L 40.4785 -21.4355 C 34.4727 -21.4355 30.1758 -25.2441 30.1758 -31.3477 C 30.1758 -37.3535 34.5703 -40.7715 40.4297 -40.7715 L 52.5879 -40.7715 L 57.0312 -40.918 L 54.8828 -39.3066 L 49.5605 -34.1797 C 49.0723 -33.6914 48.8281 -33.0566 48.8281 -32.4219 C 48.8281 -31.0059 49.9023 -29.9316 51.2207 -29.9316 C 51.9531 -29.9316 52.5391 -30.1758 52.9785 -30.6641 L 63.1836 -41.0645 C 63.7695 -41.6504 64.1113 -42.334 64.1113 -43.1641 C 64.1113 -43.9941 63.7695 -44.7266 63.1836 -45.3125 L 53.0273 -55.6152 C 52.5391 -56.1035 52.002 -56.3477 51.2695 -56.3477 C 49.9023 -56.3477 48.8281 -55.2734 48.8281 -53.9062 C 48.8281 -53.1738 49.1699 -52.5391 49.6094 -52.0996 L 54.1992 -47.6074 L 57.0312 -45.4102 L 52.5879 -45.5078 L 40.4297 -45.5078 C 31.6406 -45.5078 25.1953 -40.0391 25.1953 -31.1035 Z"/>
  </g>
  <g id="Thin-S" transform="matrix(1 0 0 1 812.599 696)">
   <path d="M 20.3125 -1.61133 L 67.334 -1.61133 C 74.2676 -1.61133 77.8809 -5.27344 77.8809 -12.1094 L 77.8809 -59.1797 C 77.8809 -66.0645 74.2676 -69.7266 67.334 -69.7266 L 20.3125 -69.7266 C 13.3789 -69.7266 9.76562 -66.1133 9.76562 -59.1797 L 9.76562 -12.1094 C 9.76562 -5.17578 13.3789 -1.61133 20.3125 -1.61133 Z M 20.4102 -4.93164 C 15.625 -4.93164 13.0859 -7.42188 13.0859 -12.3047 L 13.0859 -59.0332 C 13.0859 -63.8672 15.625 -66.4062 20.4102 -66.4062 L 67.2363 -66.4062 C 71.875 -66.4062 74.5605 -63.8672 74.5605 -59.0332 L 74.5605 -12.3047 C 74.5605 -7.42188 71.875 -4.93164 67.2363 -4.93164 Z M 25.2441 -31.2012 C 25.2441 -23.0469 31.1523 -17.7734 39.5996 -17.7734 L 45.6055 -17.7734 C 46.5332 -17.7734 47.2168 -18.3594 47.2168 -19.3359 C 47.2168 -20.3125 46.5332 -20.8496 45.6543 -20.8496 L 39.5996 -20.8496 C 32.959 -20.8496 28.3691 -25 28.3691 -31.3477 C 28.3691 -37.5977 33.0078 -41.5527 39.5996 -41.5527 L 53.8574 -41.5527 L 58.0078 -41.6992 L 56.0547 -40.1855 L 49.3164 -33.5449 C 48.9746 -33.2031 48.7793 -32.8125 48.7793 -32.3242 C 48.7793 -31.3965 49.4141 -30.7129 50.3418 -30.7129 C 50.8301 -30.7129 51.1719 -30.9082 51.5137 -31.2012 L 61.6699 -41.6016 C 62.0605 -41.9922 62.3047 -42.5293 62.3047 -43.1152 C 62.3047 -43.7012 62.0605 -44.2383 61.6699 -44.6289 L 51.5137 -54.9805 C 51.2207 -55.2734 50.8301 -55.4688 50.3418 -55.4688 C 49.4141 -55.4688 48.7793 -54.7852 48.7793 -53.8574 C 48.7793 -53.3691 49.0234 -52.9785 49.3652 -52.6855 L 55.8105 -46.2891 L 58.0078 -44.5312 L 53.8574 -44.6289 L 39.5996 -44.6289 C 31.1523 -44.6289 25.2441 -39.4043 25.2441 -31.2012 Z"/>
  </g>
  <g id="Ultralight-S" transform="matrix(1 0 0 1 516.352 696)">
   <path d="M 19.7754 -2.05078 L 66.9922 -2.05078 C 73.5352 -2.05078 76.9531 -5.61523 76.9531 -12.0117 L 76.9531 -59.2773 C 76.9531 -65.7227 73.5352 -69.2383 66.9922 -69.2383 L 19.7754 -69.2383 C 13.2324 -69.2383 9.76562 -65.7715 9.76562 -59.2773 L 9.76562 -12.0117 C 9.76562 -5.51758 13.2324 -2.05078 19.7754 -2.05078 Z M 19.873 -4.24805 C 14.6484 -4.24805 11.9629 -6.93359 11.9629 -12.1582 L 11.9629 -59.1309 C 11.9629 -64.3555 14.6484 -67.041 19.873 -67.041 L 66.8945 -67.041 C 71.875 -67.041 74.7559 -64.3555 74.7559 -59.1309 L 74.7559 -12.1582 C 74.7559 -6.93359 71.875 -4.24805 66.8945 -4.24805 Z M 25.293 -31.2988 C 25.293 -23.5352 30.8594 -18.4082 39.1602 -18.4082 L 45.459 -18.4082 C 46.0938 -18.4082 46.5332 -18.8477 46.5332 -19.4824 C 46.5332 -20.166 46.0938 -20.5566 45.459 -20.5566 L 39.1602 -20.5566 C 32.1777 -20.5566 27.4414 -24.8535 27.4414 -31.2988 C 27.4414 -37.7441 32.1777 -41.9922 39.1602 -41.9922 L 54.4922 -41.9922 L 58.5449 -42.0898 L 56.6895 -40.625 L 49.2188 -33.2031 C 48.9258 -32.9102 48.7305 -32.666 48.7305 -32.2754 C 48.7305 -31.6406 49.1699 -31.1523 49.8535 -31.1523 C 50.2441 -31.1523 50.4883 -31.2988 50.7324 -31.543 L 60.8887 -41.8945 C 61.1816 -42.1875 61.377 -42.627 61.377 -43.0664 C 61.377 -43.5547 61.1816 -43.9453 60.8887 -44.2871 L 50.7324 -54.6387 C 50.4883 -54.834 50.2441 -54.9805 49.8535 -54.9805 C 49.1699 -54.9805 48.7305 -54.4922 48.7305 -53.8574 C 48.7305 -53.4668 48.9258 -53.2227 49.2188 -52.9785 L 56.6406 -45.5566 L 58.5449 -44.043 L 54.4922 -44.1406 L 39.1602 -44.1406 C 30.8594 -44.1406 25.293 -39.0625 25.293 -31.2988 Z"/>
  </g>
 </g>
</svg>
