<?xml version="1.0" encoding="UTF-8"?>
<!--Generator: Apple Native CoreSVG 148-->
<!DOCTYPE svg
PUBLIC "-//W3C//DTD SVG 1.1//EN"
       "http://www.w3.org/Graphics/SVG/1.1/DTD/svg11.dtd">
<svg version="1.1" xmlns="http://www.w3.org/2000/svg" xmlns:xlink="http://www.w3.org/1999/xlink" width="3300" height="2200">
 <!--glyph: "uni100006.medium", point size: 100.000000, font version: "Version 16.0d11e1", template writer version: "8"-->
 <g id="Notes">
  <rect height="2200" id="artboard" style="fill:white;opacity:1" width="3300" x="0" y="0"/>
  <line id="" style="fill:none;stroke:black;opacity:1;stroke-width:0.5;" x1="263" x2="3036" y1="292" y2="292"/>
  <text style="stroke:none;fill:black;font-family:-apple-system,&quot;SF Pro Display&quot;,&quot;SF Pro Text&quot;,Helvetica,sans-serif;font-weight:bold;" transform="matrix(1 0 0 1 263 322)">Weight/Scale Variations</text>
  <text style="stroke:none;fill:black;font-family:-apple-system,&quot;SF Pro Display&quot;,&quot;SF Pro Text&quot;,Helvetica,sans-serif;text-anchor:middle;" transform="matrix(1 0 0 1 559.711 322)">Ultralight</text>
  <text style="stroke:none;fill:black;font-family:-apple-system,&quot;SF Pro Display&quot;,&quot;SF Pro Text&quot;,Helvetica,sans-serif;text-anchor:middle;" transform="matrix(1 0 0 1 856.422 322)">Thin</text>
  <text style="stroke:none;fill:black;font-family:-apple-system,&quot;SF Pro Display&quot;,&quot;SF Pro Text&quot;,Helvetica,sans-serif;text-anchor:middle;" transform="matrix(1 0 0 1 1153.13 322)">Light</text>
  <text style="stroke:none;fill:black;font-family:-apple-system,&quot;SF Pro Display&quot;,&quot;SF Pro Text&quot;,Helvetica,sans-serif;text-anchor:middle;" transform="matrix(1 0 0 1 1449.84 322)">Regular</text>
  <text style="stroke:none;fill:black;font-family:-apple-system,&quot;SF Pro Display&quot;,&quot;SF Pro Text&quot;,Helvetica,sans-serif;text-anchor:middle;" transform="matrix(1 0 0 1 1746.56 322)">Medium</text>
  <text style="stroke:none;fill:black;font-family:-apple-system,&quot;SF Pro Display&quot;,&quot;SF Pro Text&quot;,Helvetica,sans-serif;text-anchor:middle;" transform="matrix(1 0 0 1 2043.27 322)">Semibold</text>
  <text style="stroke:none;fill:black;font-family:-apple-system,&quot;SF Pro Display&quot;,&quot;SF Pro Text&quot;,Helvetica,sans-serif;text-anchor:middle;" transform="matrix(1 0 0 1 2339.98 322)">Bold</text>
  <text style="stroke:none;fill:black;font-family:-apple-system,&quot;SF Pro Display&quot;,&quot;SF Pro Text&quot;,Helvetica,sans-serif;text-anchor:middle;" transform="matrix(1 0 0 1 2636.69 322)">Heavy</text>
  <text style="stroke:none;fill:black;font-family:-apple-system,&quot;SF Pro Display&quot;,&quot;SF Pro Text&quot;,Helvetica,sans-serif;text-anchor:middle;" transform="matrix(1 0 0 1 2933.4 322)">Black</text>
  <line id="" style="fill:none;stroke:black;opacity:1;stroke-width:0.5;" x1="263" x2="3036" y1="1903" y2="1903"/>
  <g id="" transform="matrix(1 0 0 1 263 1933)">
   <path d="M 9.24805 0.830078 C 13.5547 0.830078 17.1387 -2.74414 17.1387 -7.05078 C 17.1387 -11.3574 13.5449 -14.9316 9.23828 -14.9316 C 4.94141 -14.9316 1.36719 -11.3574 1.36719 -7.05078 C 1.36719 -2.74414 4.95117 0.830078 9.24805 0.830078 Z M 9.24805 -0.654297 C 5.70312 -0.654297 2.87109 -3.49609 2.87109 -7.05078 C 2.87109 -10.6055 5.69336 -13.4473 9.23828 -13.4473 C 12.793 -13.4473 15.6348 -10.6055 15.6445 -7.05078 C 15.6543 -3.49609 12.8027 -0.654297 9.24805 -0.654297 Z M 9.22852 -3.62305 C 9.69727 -3.62305 9.9707 -3.93555 9.9707 -4.45312 L 9.9707 -6.31836 L 12.002 -6.31836 C 12.5 -6.31836 12.832 -6.57227 12.832 -7.04102 C 12.832 -7.51953 12.5195 -7.7832 12.002 -7.7832 L 9.9707 -7.7832 L 9.9707 -9.81445 C 9.9707 -10.332 9.69727 -10.6543 9.22852 -10.6543 C 8.75977 -10.6543 8.50586 -10.3125 8.50586 -9.81445 L 8.50586 -7.7832 L 6.49414 -7.7832 C 5.97656 -7.7832 5.64453 -7.51953 5.64453 -7.04102 C 5.64453 -6.57227 5.99609 -6.31836 6.49414 -6.31836 L 8.50586 -6.31836 L 8.50586 -4.45312 C 8.50586 -3.95508 8.75977 -3.62305 9.22852 -3.62305 Z"/>
  </g>
  <g id="" transform="matrix(1 0 0 1 281.506 1933)">
   <path d="M 11.709 2.91016 C 17.1582 2.91016 21.6699 -1.61133 21.6699 -7.05078 C 21.6699 -12.5 17.1484 -17.0117 11.6992 -17.0117 C 6.25977 -17.0117 1.74805 -12.5 1.74805 -7.05078 C 1.74805 -1.61133 6.26953 2.91016 11.709 2.91016 Z M 11.709 1.25 C 7.09961 1.25 3.41797 -2.44141 3.41797 -7.05078 C 3.41797 -11.6602 7.08984 -15.3516 11.6992 -15.3516 C 16.3086 -15.3516 20 -11.6602 20.0098 -7.05078 C 20.0195 -2.44141 16.3184 1.25 11.709 1.25 Z M 11.6797 -2.66602 C 12.207 -2.66602 12.5098 -3.01758 12.5098 -3.59375 L 12.5098 -6.23047 L 15.3223 -6.23047 C 15.8691 -6.23047 16.25 -6.51367 16.25 -7.03125 C 16.25 -7.55859 15.8887 -7.86133 15.3223 -7.86133 L 12.5098 -7.86133 L 12.5098 -10.6836 C 12.5098 -11.25 12.207 -11.6113 11.6797 -11.6113 C 11.1621 -11.6113 10.8789 -11.2305 10.8789 -10.6836 L 10.8789 -7.86133 L 8.07617 -7.86133 C 7.50977 -7.86133 7.13867 -7.55859 7.13867 -7.03125 C 7.13867 -6.51367 7.5293 -6.23047 8.07617 -6.23047 L 10.8789 -6.23047 L 10.8789 -3.59375 C 10.8789 -3.03711 11.1621 -2.66602 11.6797 -2.66602 Z"/>
  </g>
  <g id="" transform="matrix(1 0 0 1 304.924 1933)">
   <path d="M 14.9707 5.66406 C 21.9336 5.66406 27.6953 -0.0976562 27.6953 -7.05078 C 27.6953 -14.0137 21.9238 -19.7754 14.9609 -19.7754 C 8.00781 -19.7754 2.25586 -14.0137 2.25586 -7.05078 C 2.25586 -0.0976562 8.01758 5.66406 14.9707 5.66406 Z M 14.9707 3.84766 C 8.93555 3.84766 4.08203 -1.01562 4.08203 -7.05078 C 4.08203 -13.0957 8.92578 -17.9492 14.9609 -17.9492 C 21.0059 -17.9492 25.8594 -13.0957 25.8691 -7.05078 C 25.8789 -1.01562 21.0156 3.84766 14.9707 3.84766 Z M 14.9414 -1.38672 C 15.5176 -1.38672 15.8594 -1.77734 15.8594 -2.38281 L 15.8594 -6.13281 L 19.7754 -6.13281 C 20.3711 -6.13281 20.7812 -6.46484 20.7812 -7.02148 C 20.7812 -7.59766 20.3906 -7.93945 19.7754 -7.93945 L 15.8594 -7.93945 L 15.8594 -11.8652 C 15.8594 -12.4805 15.5176 -12.8711 14.9414 -12.8711 C 14.375 -12.8711 14.0527 -12.4609 14.0527 -11.8652 L 14.0527 -7.93945 L 10.1465 -7.93945 C 9.53125 -7.93945 9.13086 -7.59766 9.13086 -7.02148 C 9.13086 -6.46484 9.55078 -6.13281 10.1465 -6.13281 L 14.0527 -6.13281 L 14.0527 -2.38281 C 14.0527 -1.79688 14.375 -1.38672 14.9414 -1.38672 Z"/>
  </g>
  <text style="stroke:none;fill:black;font-family:-apple-system,&quot;SF Pro Display&quot;,&quot;SF Pro Text&quot;,Helvetica,sans-serif;font-weight:bold;" transform="matrix(1 0 0 1 263 1953)">Design Variations</text>
  <text style="stroke:none;fill:black;font-family:-apple-system,&quot;SF Pro Display&quot;,&quot;SF Pro Text&quot;,Helvetica,sans-serif;" transform="matrix(1 0 0 1 263 1971)">Symbols are supported in up to nine weights and three scales.</text>
  <text style="stroke:none;fill:black;font-family:-apple-system,&quot;SF Pro Display&quot;,&quot;SF Pro Text&quot;,Helvetica,sans-serif;" transform="matrix(1 0 0 1 263 1989)">For optimal layout with text and other symbols, vertically align</text>
  <text style="stroke:none;fill:black;font-family:-apple-system,&quot;SF Pro Display&quot;,&quot;SF Pro Text&quot;,Helvetica,sans-serif;" transform="matrix(1 0 0 1 263 2007)">symbols with the adjacent text.</text>
  <line id="" style="fill:none;stroke:#00AEEF;stroke-width:0.5;opacity:1.0;" x1="776" x2="776" y1="1919" y2="1933"/>
  <g id="" transform="matrix(1 0 0 1 776 1933)">
   <path d="M 3.31055 0.126953 C 3.82812 0.126953 4.08203 -0.0683594 4.26758 -0.605469 L 5.52734 -4.0625 L 11.2891 -4.0625 L 12.5488 -0.605469 C 12.7344 -0.0683594 12.9883 0.126953 13.4961 0.126953 C 14.0137 0.126953 14.3457 -0.185547 14.3457 -0.673828 C 14.3457 -0.839844 14.3164 -0.986328 14.2383 -1.20117 L 9.6582 -13.3887 C 9.43359 -13.9941 9.0332 -14.2871 8.4082 -14.2871 C 7.80273 -14.2871 7.39258 -13.9941 7.17773 -13.3984 L 2.59766 -1.19141 C 2.51953 -0.976562 2.49023 -0.830078 2.49023 -0.664062 C 2.49023 -0.175781 2.80273 0.126953 3.31055 0.126953 Z M 6.00586 -5.53711 L 8.37891 -12.1094 L 8.42773 -12.1094 L 10.8008 -5.53711 Z"/>
  </g>
  <line id="" style="fill:none;stroke:#00AEEF;stroke-width:0.5;opacity:1.0;" x1="792.836" x2="792.836" y1="1919" y2="1933"/>
  <text style="stroke:none;fill:black;font-family:-apple-system,&quot;SF Pro Display&quot;,&quot;SF Pro Text&quot;,Helvetica,sans-serif;font-weight:bold;" transform="matrix(1 0 0 1 776 1953)">Margins</text>
  <text style="stroke:none;fill:black;font-family:-apple-system,&quot;SF Pro Display&quot;,&quot;SF Pro Text&quot;,Helvetica,sans-serif;" transform="matrix(1 0 0 1 776 1971)">Leading and trailing margins on the left and right side of each symbol</text>
  <text style="stroke:none;fill:black;font-family:-apple-system,&quot;SF Pro Display&quot;,&quot;SF Pro Text&quot;,Helvetica,sans-serif;" transform="matrix(1 0 0 1 776 1989)">can be adjusted by modifying the x-location of the margin guidelines.</text>
  <text style="stroke:none;fill:black;font-family:-apple-system,&quot;SF Pro Display&quot;,&quot;SF Pro Text&quot;,Helvetica,sans-serif;" transform="matrix(1 0 0 1 776 2007)">Modifications are automatically applied proportionally to all</text>
  <text style="stroke:none;fill:black;font-family:-apple-system,&quot;SF Pro Display&quot;,&quot;SF Pro Text&quot;,Helvetica,sans-serif;" transform="matrix(1 0 0 1 776 2025)">scales and weights.</text>
  <g id="" transform="matrix(1 0 0 1 1289 1933)">
   <path d="M 2.8418 1.86523 L 4.54102 3.57422 C 5.40039 4.44336 6.38672 4.38477 7.31445 3.35938 L 17.4902 -7.85156 C 17.7539 -7.76367 18.0273 -7.7832 18.3398 -7.8418 L 19.4043 -8.03711 L 20.0684 -7.36328 L 20.0293 -6.80664 C 19.9902 -6.30859 20.1172 -5.92773 20.6055 -5.44922 L 21.3672 -4.70703 C 21.8457 -4.22852 22.4609 -4.19922 22.9297 -4.66797 L 25.8398 -7.58789 C 26.3086 -8.05664 26.2891 -8.65234 25.8105 -9.13086 L 25.0391 -9.89258 C 24.5605 -10.3711 24.1895 -10.5273 23.7109 -10.4883 L 23.1348 -10.4395 L 22.4902 -11.0742 L 22.7344 -12.1973 C 22.8613 -12.7637 22.7051 -13.2031 22.1191 -13.7891 L 19.9219 -15.9766 C 16.582 -19.2969 12.1484 -19.2188 9.25781 -16.3281 C 8.83789 -15.918 8.80859 -15.3418 9.04297 -14.9512 C 9.27734 -14.5898 9.73633 -14.3555 10.3809 -14.5215 C 11.8457 -14.8633 13.3691 -14.9219 14.7949 -13.9844 L 14.209 -12.5293 C 14.0137 -12.0508 13.9844 -11.6504 14.1113 -11.2891 L 3.04688 -0.898438 C 2.06055 0.0195312 1.98242 0.996094 2.8418 1.86523 Z M 10.752 -15.957 C 13.1836 -17.7344 16.4746 -17.4316 18.7012 -15.2051 L 21.1328 -12.793 C 21.3672 -12.5586 21.4062 -12.373 21.3379 -12.0312 L 21.0156 -10.5469 L 22.5195 -9.0625 L 23.5059 -9.12109 C 23.7598 -9.13086 23.8379 -9.11133 24.0332 -8.91602 L 24.6094 -8.33984 L 22.168 -5.89844 L 21.5918 -6.47461 C 21.3965 -6.66992 21.3672 -6.74805 21.377 -7.01172 L 21.4453 -7.98828 L 19.9512 -9.47266 L 18.4277 -9.21875 C 18.1055 -9.15039 17.959 -9.17969 17.7148 -9.41406 L 15.7129 -11.416 C 15.459 -11.6504 15.4297 -11.8164 15.5859 -12.1875 L 16.4648 -14.2773 C 14.9023 -15.7324 12.8711 -16.3574 10.8398 -15.7617 C 10.6836 -15.7227 10.625 -15.8496 10.752 -15.957 Z M 5.27344 2.30469 L 4.10156 1.14258 C 3.63281 0.683594 3.74023 0.341797 4.14062 -0.0195312 L 14.9512 -10.1953 L 16.416 -8.71094 L 6.42578 2.27539 C 6.07422 2.67578 5.74219 2.77344 5.27344 2.30469 Z"/>
  </g>
  <text style="stroke:none;fill:black;font-family:-apple-system,&quot;SF Pro Display&quot;,&quot;SF Pro Text&quot;,Helvetica,sans-serif;font-weight:bold;" transform="matrix(1 0 0 1 1289 1953)">Exporting</text>
  <text style="stroke:none;fill:black;font-family:-apple-system,&quot;SF Pro Display&quot;,&quot;SF Pro Text&quot;,Helvetica,sans-serif;" transform="matrix(1 0 0 1 1289 1971)">Symbols should be outlined when exporting to ensure the</text>
  <text style="stroke:none;fill:black;font-family:-apple-system,&quot;SF Pro Display&quot;,&quot;SF Pro Text&quot;,Helvetica,sans-serif;" transform="matrix(1 0 0 1 1289 1989)">design is preserved when submitting to Xcode.</text>
  <text id="template-version" style="stroke:none;fill:black;font-family:-apple-system,&quot;SF Pro Display&quot;,&quot;SF Pro Text&quot;,Helvetica,sans-serif;text-anchor:end;" transform="matrix(1 0 0 1 3036 1933)">Template v.2.0</text>
  <text style="stroke:none;fill:black;font-family:-apple-system,&quot;SF Pro Display&quot;,&quot;SF Pro Text&quot;,Helvetica,sans-serif;text-anchor:end;" transform="matrix(1 0 0 1 3036 1951)">Requires Xcode 12 or greater</text>
  <text style="stroke:none;fill:black;font-family:-apple-system,&quot;SF Pro Display&quot;,&quot;SF Pro Text&quot;,Helvetica,sans-serif;text-anchor:end;" transform="matrix(1 0 0 1 3036 1969)">Generated from b.circle</text>
  <text style="stroke:none;fill:black;font-family:-apple-system,&quot;SF Pro Display&quot;,&quot;SF Pro Text&quot;,Helvetica,sans-serif;text-anchor:end;" transform="matrix(1 0 0 1 3036 1987)">Typeset at 100 points</text>
  <text style="stroke:none;fill:black;font-family:-apple-system,&quot;SF Pro Display&quot;,&quot;SF Pro Text&quot;,Helvetica,sans-serif;" transform="matrix(1 0 0 1 263 726)">Small</text>
  <text style="stroke:none;fill:black;font-family:-apple-system,&quot;SF Pro Display&quot;,&quot;SF Pro Text&quot;,Helvetica,sans-serif;" transform="matrix(1 0 0 1 263 1156)">Medium</text>
  <text style="stroke:none;fill:black;font-family:-apple-system,&quot;SF Pro Display&quot;,&quot;SF Pro Text&quot;,Helvetica,sans-serif;" transform="matrix(1 0 0 1 263 1586)">Large</text>
 </g>
 <g id="Guides">
  <g id="H-reference" style="fill:#27AAE1;stroke:none;" transform="matrix(1 0 0 1 339 696)">
   <path d="M 0.976562 0 L 3.66211 0 L 12.9883 -24.4629 L 45.7031 -24.4629 L 55.0781 0 L 57.7148 0 L 30.6152 -70.459 L 28.125 -70.459 Z M 29.2969 -67.1387 L 29.3945 -67.1387 L 44.873 -26.709 L 13.8672 -26.709 Z"/>
  </g>
  <line id="Baseline-S" style="fill:none;stroke:#27AAE1;opacity:1;stroke-width:0.5;" x1="263" x2="3036" y1="696" y2="696"/>
  <line id="Capline-S" style="fill:none;stroke:#27AAE1;opacity:1;stroke-width:0.5;" x1="263" x2="3036" y1="625.541" y2="625.541"/>
  <g id="H-reference" style="fill:#27AAE1;stroke:none;" transform="matrix(1 0 0 1 339 1126)">
   <path d="M 0.976562 0 L 3.66211 0 L 12.9883 -24.4629 L 45.7031 -24.4629 L 55.0781 0 L 57.7148 0 L 30.6152 -70.459 L 28.125 -70.459 Z M 29.2969 -67.1387 L 29.3945 -67.1387 L 44.873 -26.709 L 13.8672 -26.709 Z"/>
  </g>
  <line id="Baseline-M" style="fill:none;stroke:#27AAE1;opacity:1;stroke-width:0.5;" x1="263" x2="3036" y1="1126" y2="1126"/>
  <line id="Capline-M" style="fill:none;stroke:#27AAE1;opacity:1;stroke-width:0.5;" x1="263" x2="3036" y1="1055.54" y2="1055.54"/>
  <g id="H-reference" style="fill:#27AAE1;stroke:none;" transform="matrix(1 0 0 1 339 1556)">
   <path d="M 0.976562 0 L 3.66211 0 L 12.9883 -24.4629 L 45.7031 -24.4629 L 55.0781 0 L 57.7148 0 L 30.6152 -70.459 L 28.125 -70.459 Z M 29.2969 -67.1387 L 29.3945 -67.1387 L 44.873 -26.709 L 13.8672 -26.709 Z"/>
  </g>
  <line id="Baseline-L" style="fill:none;stroke:#27AAE1;opacity:1;stroke-width:0.5;" x1="263" x2="3036" y1="1556" y2="1556"/>
  <line id="Capline-L" style="fill:none;stroke:#27AAE1;opacity:1;stroke-width:0.5;" x1="263" x2="3036" y1="1485.54" y2="1485.54"/>
  <line id="left-margin" style="fill:none;stroke:#00AEEF;stroke-width:0.5;opacity:1.0;" x1="1391.3" x2="1391.3" y1="1030.79" y2="1150.12"/>
  <line id="right-margin" style="fill:none;stroke:#00AEEF;stroke-width:0.5;opacity:1.0;" x1="1508.39" x2="1508.39" y1="1030.79" y2="1150.12"/>
 </g>
 <g id="Symbols">
  <g id="Black-L" transform="matrix(1 0 0 1 2854.05 1556)">
   <path d="M 79.3457 32.8613 C 116.748 32.8613 147.412 2.19727 147.412 -35.2051 C 147.412 -72.6074 116.748 -103.271 79.2969 -103.271 C 41.8945 -103.271 11.2793 -72.6074 11.2793 -35.2051 C 11.2793 2.19727 41.9434 32.8613 79.3457 32.8613 Z M 79.3457 12.4023 C 52.9785 12.4023 31.7383 -8.83789 31.7383 -35.2051 C 31.7383 -61.5723 52.9297 -82.8125 79.2969 -82.8125 C 105.664 -82.8125 126.953 -61.5723 126.953 -35.2051 C 127.002 -8.83789 105.713 12.4023 79.3457 12.4023 Z M 65.5762 -7.51953 L 85.5469 -7.51953 C 96.9727 -7.51953 104.883 -13.7695 104.883 -22.8027 C 104.883 -30.6641 99.9512 -35.791 91.4551 -36.8652 L 91.4551 -37.4023 C 98.1445 -38.5254 102.539 -43.2617 102.539 -49.5605 C 102.539 -58.0078 95.752 -63.2324 84.668 -63.2324 L 65.5762 -63.2324 C 58.4961 -63.2324 54.834 -59.5215 54.834 -52.4414 L 54.834 -18.2617 C 54.834 -11.1816 58.4473 -7.51953 65.5762 -7.51953 Z M 72.2168 -41.2598 L 72.2168 -52.002 L 78.8086 -52.002 C 82.7637 -52.002 85.3516 -49.9023 85.3516 -46.7773 C 85.3516 -43.2129 82.7148 -41.2598 77.832 -41.2598 Z M 72.1191 -19.4824 L 72.1191 -31.3477 L 79.1992 -31.3477 C 83.8379 -31.3477 86.6211 -29.1504 86.6211 -25.4883 C 86.6211 -21.5332 83.7891 -19.4824 78.3203 -19.4824 Z"/>
  </g>
  <g id="Heavy-L" transform="matrix(1 0 0 1 2558.39 1556)">
   <path d="M 78.2715 31.7871 C 115.088 31.7871 145.312 1.5625 145.312 -35.2051 C 145.312 -72.0215 115.039 -102.246 78.2715 -102.246 C 41.4551 -102.246 11.2793 -72.0215 11.2793 -35.2051 C 11.2793 1.5625 41.5039 31.7871 78.2715 31.7871 Z M 78.2715 14.0137 C 51.0254 14.0137 29.0527 -7.95898 29.0527 -35.2051 C 29.0527 -62.5 50.9766 -84.4727 78.2715 -84.4727 C 105.518 -84.4727 127.49 -62.5 127.539 -35.2051 C 127.539 -7.95898 105.566 14.0137 78.2715 14.0137 Z M 64.1113 -7.37305 L 83.6914 -7.37305 C 95.459 -7.37305 103.418 -13.623 103.418 -22.8516 C 103.418 -30.6641 98.4375 -35.8398 90.0391 -36.9141 L 90.0391 -37.4023 C 96.582 -38.5742 100.83 -43.4082 100.83 -49.707 C 100.83 -58.1543 93.9941 -63.4766 83.0566 -63.4766 L 64.1113 -63.4766 C 58.0078 -63.4766 54.7852 -60.2539 54.7852 -54.1016 L 54.7852 -16.748 C 54.7852 -10.5957 57.959 -7.37305 64.1113 -7.37305 Z M 70.0195 -40.8691 L 70.0195 -53.3691 L 78.1738 -53.3691 C 82.8125 -53.3691 85.7422 -50.9766 85.7422 -47.2168 C 85.7422 -43.1641 82.5684 -40.8691 76.9043 -40.8691 Z M 69.9707 -18.0664 L 69.9707 -31.8359 L 78.7598 -31.8359 C 84.1797 -31.8359 87.4512 -29.248 87.4512 -24.9512 C 87.4512 -20.4102 84.082 -18.0664 77.3926 -18.0664 Z"/>
  </g>
  <g id="Bold-L" transform="matrix(1 0 0 1 2262.88 1556)">
   <path d="M 77.0996 30.5664 C 113.232 30.5664 142.92 0.878906 142.92 -35.2539 C 142.92 -71.3379 113.184 -101.074 77.0508 -101.074 C 40.9668 -101.074 11.2793 -71.3379 11.2793 -35.2539 C 11.2793 0.878906 41.0156 30.5664 77.0996 30.5664 Z M 77.0996 15.8203 C 48.8281 15.8203 26.0742 -6.98242 26.0742 -35.2539 C 26.0742 -63.5254 48.7793 -86.2793 77.0508 -86.2793 C 105.371 -86.2793 128.125 -63.5254 128.174 -35.2539 C 128.174 -6.98242 105.371 15.8203 77.0996 15.8203 Z M 62.4512 -7.22656 L 81.6895 -7.22656 C 93.75 -7.22656 101.807 -13.4766 101.807 -22.9004 C 101.807 -30.6641 96.7773 -35.9375 88.4277 -36.9629 L 88.4277 -37.4512 C 94.8242 -38.7207 98.9258 -43.6035 98.9258 -49.8535 C 98.9258 -58.3496 92.041 -63.7695 81.25 -63.7695 L 62.4512 -63.7695 C 57.4707 -63.7695 54.7363 -61.0352 54.7363 -55.957 L 54.7363 -15.0391 C 54.7363 -9.96094 57.4219 -7.22656 62.4512 -7.22656 Z M 67.627 -40.4297 L 67.627 -54.8828 L 77.4414 -54.8828 C 82.8613 -54.8828 86.1816 -52.1484 86.1816 -47.8027 C 86.1816 -43.1152 82.4219 -40.4297 75.8301 -40.4297 Z M 67.5781 -16.5039 L 67.5781 -32.373 L 78.3203 -32.373 C 84.6191 -32.373 88.3301 -29.3945 88.3301 -24.3652 C 88.3301 -19.0918 84.4238 -16.5039 76.3184 -16.5039 Z"/>
  </g>
  <g id="Semibold-L" transform="matrix(1 0 0 1 1966.97 1556)">
   <path d="M 76.2695 29.7363 C 111.914 29.7363 141.309 0.390625 141.309 -35.2539 C 141.309 -70.8984 111.865 -100.244 76.2695 -100.244 C 40.625 -100.244 11.2793 -70.8984 11.2793 -35.2539 C 11.2793 0.390625 40.6738 29.7363 76.2695 29.7363 Z M 76.2695 17.041 C 47.3145 17.041 24.0234 -6.25 24.0234 -35.2539 C 24.0234 -64.209 47.2656 -87.5488 76.2695 -87.5488 C 105.225 -87.5488 128.564 -64.209 128.613 -35.2539 C 128.662 -6.25 105.273 17.041 76.2695 17.041 Z M 61.3281 -7.12891 L 80.2734 -7.12891 C 92.627 -7.12891 100.684 -13.3789 100.684 -22.9492 C 100.684 -30.6641 95.6543 -35.9863 87.3535 -37.0117 L 87.3535 -37.4512 C 93.6035 -38.7695 97.6074 -43.7012 97.6074 -50 C 97.6074 -58.4473 90.7227 -63.9648 79.9805 -63.9648 L 61.3281 -63.9648 C 57.0801 -63.9648 54.7363 -61.5723 54.7363 -57.2754 L 54.7363 -13.8672 C 54.7363 -9.57031 57.0312 -7.12891 61.3281 -7.12891 Z M 65.918 -40.0879 L 65.918 -55.957 L 77.002 -55.957 C 82.9102 -55.957 86.4746 -52.9785 86.4746 -48.1445 C 86.4746 -43.1152 82.3242 -40.0879 75.0977 -40.0879 Z M 65.918 -15.4297 L 65.918 -32.7637 L 77.9785 -32.7637 C 84.8633 -32.7637 88.9648 -29.4922 88.9648 -23.9746 C 88.9648 -18.2129 84.6191 -15.4297 75.6348 -15.4297 Z"/>
  </g>
  <g id="Medium-L" transform="matrix(1 0 0 1 1670.87 1556)">
   <path d="M 75.6836 29.1504 C 110.938 29.1504 140.088 0 140.088 -35.2539 C 140.088 -70.5078 110.889 -99.6582 75.6348 -99.6582 C 40.3809 -99.6582 11.2793 -70.5078 11.2793 -35.2539 C 11.2793 0 40.3809 29.1504 75.6836 29.1504 Z M 75.6836 18.0176 C 46.1426 18.0176 22.4609 -5.76172 22.4609 -35.2539 C 22.4609 -64.7461 46.1426 -88.5254 75.6348 -88.5254 C 105.127 -88.5254 128.906 -64.7461 128.906 -35.2539 C 128.955 -5.76172 105.176 18.0176 75.6836 18.0176 Z M 60.498 -7.08008 L 79.1992 -7.08008 C 91.748 -7.08008 99.8535 -13.2812 99.8535 -22.998 C 99.8535 -30.6641 94.7754 -36.0352 86.5234 -37.0605 L 86.5234 -37.4512 C 92.6758 -38.8184 96.6309 -43.7988 96.6309 -50.0488 C 96.6309 -58.5449 89.6973 -64.1113 79.0527 -64.1113 L 60.498 -64.1113 C 56.7871 -64.1113 54.6875 -62.0117 54.6875 -58.252 L 54.6875 -12.9395 C 54.6875 -9.22852 56.7871 -7.08008 60.498 -7.08008 Z M 64.6484 -39.8926 L 64.6484 -56.7383 L 76.6113 -56.7383 C 82.9102 -56.7383 86.7188 -53.6133 86.7188 -48.4375 C 86.7188 -43.0664 82.2266 -39.8926 74.5117 -39.8926 Z M 64.6484 -14.5996 L 64.6484 -33.0566 L 77.7344 -33.0566 C 85.1074 -33.0566 89.4531 -29.5898 89.4531 -23.6816 C 89.4531 -17.5293 84.8145 -14.5996 75.0977 -14.5996 Z"/>
  </g>
  <g id="Regular-L" transform="matrix(1 0 0 1 1374.97 1556)">
   <path d="M 74.8535 28.3203 C 109.668 28.3203 138.477 -0.488281 138.477 -35.2539 C 138.477 -70.0684 109.619 -98.877 74.8047 -98.877 C 40.0391 -98.877 11.2793 -70.0684 11.2793 -35.2539 C 11.2793 -0.488281 40.0879 28.3203 74.8535 28.3203 Z M 74.8535 19.2383 C 44.6777 19.2383 20.4102 -5.07812 20.4102 -35.2539 C 20.4102 -65.4785 44.6289 -89.7461 74.8047 -89.7461 C 105.029 -89.7461 129.297 -65.4785 129.346 -35.2539 C 129.395 -5.07812 105.078 19.2383 74.8535 19.2383 Z M 59.375 -6.98242 L 77.7832 -6.98242 C 90.5762 -6.98242 98.7305 -13.1836 98.7305 -22.998 C 98.7305 -30.6641 93.6523 -36.084 85.4492 -37.1094 L 85.4492 -37.4512 C 91.5039 -38.916 95.3125 -43.8965 95.3125 -50.1953 C 95.3125 -58.6914 88.3789 -64.3066 77.832 -64.3066 L 59.375 -64.3066 C 56.3965 -64.3066 54.6387 -62.5488 54.6387 -59.5215 L 54.6387 -11.8164 C 54.6387 -8.78906 56.3965 -6.98242 59.375 -6.98242 Z M 63.0371 -39.5508 L 63.0371 -57.7637 L 76.123 -57.7637 C 82.959 -57.7637 87.0117 -54.4434 87.0117 -48.7793 C 87.0117 -43.0664 82.1289 -39.5508 73.7793 -39.5508 Z M 63.0371 -13.5254 L 63.0371 -33.4473 L 77.4414 -33.4473 C 85.3516 -33.4473 90.0391 -29.6875 90.0391 -23.291 C 90.0391 -16.6504 85.0098 -13.5254 74.3652 -13.5254 Z"/>
  </g>
  <g id="Light-L" transform="matrix(1 0 0 1 1079.18 1556)">
   <path d="M 73.9258 27.3926 C 108.301 27.3926 136.621 -0.927734 136.621 -35.2539 C 136.621 -69.6289 108.252 -97.9492 73.9258 -97.9492 C 39.5508 -97.9492 11.2793 -69.6289 11.2793 -35.2539 C 11.2793 -0.927734 39.5996 27.3926 73.9258 27.3926 Z M 73.9258 20.5078 C 43.1152 20.5078 18.2129 -4.44336 18.2129 -35.2539 C 18.2129 -66.1133 43.0664 -91.0156 73.9258 -91.0156 C 104.736 -91.0156 129.688 -66.1133 129.736 -35.2539 C 129.736 -4.44336 104.785 20.5078 73.9258 20.5078 Z M 57.959 -6.93359 L 76.416 -6.93359 C 88.916 -6.93359 96.6797 -12.9883 96.6797 -22.7539 C 96.6797 -30.3711 91.6992 -35.7422 83.7402 -36.8164 L 83.7402 -37.1094 C 89.502 -38.4766 93.3105 -43.6035 93.3105 -49.8535 C 93.3105 -58.2031 86.4746 -63.8672 76.3184 -63.8672 L 57.959 -63.8672 C 55.7129 -63.8672 54.3945 -62.5 54.3945 -60.2051 L 54.3945 -10.6445 C 54.3945 -8.34961 55.7129 -6.93359 57.959 -6.93359 Z M 60.8887 -38.7695 L 60.8887 -58.5938 L 75.0488 -58.5938 C 82.4707 -58.5938 86.7676 -54.9805 86.7676 -48.7793 C 86.7676 -42.7734 81.543 -38.7695 73.3887 -38.7695 Z M 60.8887 -12.2559 L 60.8887 -33.7402 L 76.709 -33.7402 C 84.9609 -33.7402 89.8926 -29.6875 89.8926 -22.8516 C 89.8926 -15.7227 84.5703 -12.2559 73.6816 -12.2559 Z"/>
  </g>
  <g id="Thin-L" transform="matrix(1 0 0 1 783.693 1556)">
   <path d="M 72.7051 26.1719 C 106.494 26.1719 134.18 -1.51367 134.18 -35.2539 C 134.18 -69.043 106.494 -96.7285 72.7051 -96.7285 C 38.9648 -96.7285 11.2793 -69.043 11.2793 -35.2539 C 11.2793 -1.51367 38.9648 26.1719 72.7051 26.1719 Z M 72.7051 22.168 C 41.0156 22.168 15.2832 -3.56445 15.2832 -35.2539 C 15.2832 -66.9922 41.0156 -92.7246 72.7051 -92.7246 C 104.395 -92.7246 130.176 -66.9922 130.176 -35.2539 C 130.176 -3.56445 104.443 22.168 72.7051 22.168 Z M 56.0547 -6.88477 L 74.6094 -6.88477 C 86.6211 -6.88477 93.9941 -12.7441 93.9941 -22.4121 C 93.9941 -29.9805 89.1602 -35.3516 81.4941 -36.4258 L 81.4941 -36.6699 C 86.9141 -37.8906 90.6738 -43.1641 90.6738 -49.4629 C 90.6738 -57.5684 83.8867 -63.3301 74.3652 -63.3301 L 56.0547 -63.3301 C 54.7852 -63.3301 54.0527 -62.4512 54.0527 -61.084 L 54.0527 -9.13086 C 54.0527 -7.76367 54.7852 -6.88477 56.0547 -6.88477 Z M 58.1055 -37.6953 L 58.1055 -59.668 L 73.6328 -59.668 C 81.8848 -59.668 86.5234 -55.6641 86.5234 -48.7305 C 86.5234 -42.3828 80.7617 -37.6953 72.8516 -37.6953 Z M 58.1055 -10.5469 L 58.1055 -34.1309 L 75.7812 -34.1309 C 84.4238 -34.1309 89.6973 -29.6387 89.6973 -22.3145 C 89.6973 -14.502 84.0332 -10.5469 72.8027 -10.5469 Z"/>
  </g>
  <g id="Ultralight-L" transform="matrix(1 0 0 1 487.616 1556)">
   <path d="M 72.1191 25.5371 C 105.566 25.5371 132.91 -1.80664 132.91 -35.2539 C 132.91 -68.75 105.566 -96.0938 72.1191 -96.0938 C 38.623 -96.0938 11.2793 -68.75 11.2793 -35.2539 C 11.2793 -1.80664 38.623 25.5371 72.1191 25.5371 Z M 72.1191 23.0469 C 39.9414 23.0469 13.7695 -3.125 13.7695 -35.2539 C 13.7695 -67.4316 39.9414 -93.6035 72.1191 -93.6035 C 104.248 -93.6035 130.42 -67.4316 130.42 -35.2539 C 130.42 -3.125 104.248 23.0469 72.1191 23.0469 Z M 55.127 -6.88477 L 73.6816 -6.88477 C 85.498 -6.88477 92.627 -12.5977 92.627 -22.2168 C 92.627 -29.7852 87.8418 -35.1562 80.3223 -36.2305 L 80.3223 -36.4258 C 85.5469 -37.6465 89.3555 -42.9688 89.3555 -49.2188 C 89.3555 -57.2266 82.6172 -63.0371 73.3398 -63.0371 L 55.127 -63.0371 C 54.2969 -63.0371 53.8574 -62.4512 53.8574 -61.5723 L 53.8574 -8.34961 C 53.8574 -7.4707 54.2969 -6.88477 55.127 -6.88477 Z M 56.6406 -37.1582 L 56.6406 -60.2051 L 72.9004 -60.2051 C 81.543 -60.2051 86.377 -56.0547 86.377 -48.6816 C 86.377 -42.1875 80.3711 -37.1582 72.5586 -37.1582 Z M 56.6406 -9.66797 L 56.6406 -34.3262 L 75.293 -34.3262 C 84.1309 -34.3262 89.5996 -29.6387 89.5996 -22.0215 C 89.5996 -13.916 83.7402 -9.66797 72.3145 -9.66797 Z"/>
  </g>
  <g id="Black-M" transform="matrix(1 0 0 1 2870.97 1126)">
   <path d="M 62.4023 18.457 C 91.9922 18.457 116.113 -5.61523 116.113 -35.2051 C 116.113 -64.7949 91.9922 -88.8672 62.4023 -88.8672 C 32.8125 -88.8672 8.74023 -64.7949 8.74023 -35.2051 C 8.74023 -5.61523 32.8125 18.457 62.4023 18.457 Z M 62.4023 0.195312 C 42.8711 0.195312 27.002 -15.625 27.002 -35.2051 C 27.002 -54.7363 42.8711 -70.6055 62.4023 -70.6055 C 81.9824 -70.6055 97.8027 -54.7363 97.8027 -35.2051 C 97.8027 -15.625 81.9824 0.195312 62.4023 0.195312 Z M 52.002 -13.916 L 68.0176 -13.916 C 76.2695 -13.916 82.1289 -18.7012 82.1289 -25.3906 C 82.1289 -31.4941 78.418 -35.4492 71.875 -36.2305 L 71.875 -36.7188 C 77.0996 -37.4023 80.6641 -41.0645 80.6641 -45.9473 C 80.6641 -52.4414 75.5371 -56.3477 66.9922 -56.3477 L 52.002 -56.3477 C 45.6543 -56.3477 42.4316 -53.0762 42.4316 -46.6797 L 42.4316 -23.5352 C 42.4316 -17.0898 45.6055 -13.916 52.002 -13.916 Z M 57.7148 -39.9902 L 57.7148 -46.7773 L 61.3281 -46.7773 C 63.8672 -46.7773 65.5273 -45.459 65.5273 -43.5059 C 65.5273 -41.3086 64.0137 -39.9902 61.4258 -39.9902 Z M 57.666 -24.2676 L 57.666 -31.7383 L 61.5234 -31.7383 C 64.2578 -31.7383 65.9668 -30.3223 65.9668 -28.125 C 65.9668 -25.6836 64.3066 -24.2676 61.5723 -24.2676 Z"/>
  </g>
  <g id="Heavy-M" transform="matrix(1 0 0 1 2575.19 1126)">
   <path d="M 61.5234 17.5293 C 90.5273 17.5293 114.258 -6.20117 114.258 -35.2051 C 114.258 -64.2578 90.5273 -87.9883 61.4746 -87.9883 C 32.4707 -87.9883 8.74023 -64.2578 8.74023 -35.2051 C 8.74023 -6.20117 32.4707 17.5293 61.5234 17.5293 Z M 61.5234 1.61133 C 41.1133 1.61133 24.6582 -14.8438 24.6582 -35.2051 C 24.6582 -55.6152 41.1133 -72.0703 61.4746 -72.0703 C 81.8848 -72.0703 98.3398 -55.6152 98.3398 -35.2051 C 98.3398 -14.8438 81.8848 1.61133 61.5234 1.61133 Z M 50.7812 -13.7695 L 66.3574 -13.7695 C 75.0488 -13.7695 81.1035 -18.6035 81.1035 -25.5371 C 81.1035 -31.5918 77.2949 -35.5957 70.752 -36.377 L 70.752 -36.8164 C 75.9277 -37.6465 79.3457 -41.3574 79.3457 -46.1914 C 79.3457 -52.7344 74.1211 -56.7383 65.625 -56.7383 L 50.7812 -56.7383 C 45.2637 -56.7383 42.4316 -53.8574 42.4316 -48.3398 L 42.4316 -22.168 C 42.4316 -16.6016 45.2148 -13.7695 50.7812 -13.7695 Z M 55.9082 -39.7949 L 55.9082 -48.0957 L 60.9375 -48.0957 C 64.0137 -48.0957 65.9668 -46.4844 65.9668 -44.043 C 65.9668 -41.3574 64.0137 -39.7949 60.4492 -39.7949 Z M 55.8594 -23.0469 L 55.8594 -32.1777 L 61.2793 -32.1777 C 64.7461 -32.1777 66.8945 -30.4688 66.8945 -27.6855 C 66.8945 -24.6582 64.7461 -23.0469 60.7422 -23.0469 Z"/>
  </g>
  <g id="Bold-M" transform="matrix(1 0 0 1 2279.5 1126)">
   <path d="M 60.498 16.5039 C 88.8672 16.5039 112.207 -6.83594 112.207 -35.2051 C 112.207 -63.623 88.8672 -86.9629 60.4492 -86.9629 C 32.0312 -86.9629 8.74023 -63.623 8.74023 -35.2051 C 8.74023 -6.83594 32.0801 16.5039 60.498 16.5039 Z M 60.498 3.22266 C 39.1602 3.22266 22.0703 -13.916 22.0703 -35.2051 C 22.0703 -56.543 39.1602 -73.6816 60.4492 -73.6816 C 81.7383 -73.6816 98.9258 -56.543 98.9258 -35.2051 C 98.9746 -13.916 81.7871 3.22266 60.498 3.22266 Z M 49.4141 -13.623 L 64.5508 -13.623 C 73.7305 -13.623 79.9316 -18.457 79.9316 -25.6348 C 79.9316 -31.6895 76.0742 -35.7422 69.5312 -36.5234 L 69.5312 -36.9629 C 74.5605 -37.8418 77.832 -41.6016 77.832 -46.4844 C 77.832 -53.0273 72.5586 -57.1777 64.0625 -57.1777 L 49.4141 -57.1777 C 44.873 -57.1777 42.4805 -54.7363 42.4805 -50.1953 L 42.4805 -20.6055 C 42.4805 -16.0645 44.8242 -13.623 49.4141 -13.623 Z M 53.9062 -39.502 L 53.9062 -49.5117 L 60.498 -49.5117 C 64.209 -49.5117 66.5039 -47.6074 66.5039 -44.6289 C 66.5039 -41.3574 63.9648 -39.502 59.4238 -39.502 Z M 53.8574 -21.6797 L 53.8574 -32.7148 L 60.9863 -32.7148 C 65.332 -32.7148 67.9199 -30.6152 67.9199 -27.1973 C 67.9199 -23.5352 65.2344 -21.6797 59.8145 -21.6797 Z"/>
  </g>
  <g id="Semibold-M" transform="matrix(1 0 0 1 1983.5 1126)">
   <path d="M 59.7656 15.8203 C 87.7441 15.8203 110.791 -7.27539 110.791 -35.2539 C 110.791 -63.2324 87.6953 -86.2793 59.7656 -86.2793 C 31.7871 -86.2793 8.74023 -63.2324 8.74023 -35.2539 C 8.74023 -7.27539 31.7871 15.8203 59.7656 15.8203 Z M 59.7656 4.3457 C 37.8418 4.3457 20.2637 -13.3301 20.2637 -35.2539 C 20.2637 -57.1777 37.793 -74.8047 59.7656 -74.8047 C 81.6895 -74.8047 99.3164 -57.1777 99.3652 -35.2539 C 99.3652 -13.3301 81.6895 4.3457 59.7656 4.3457 Z M 48.4863 -13.5254 L 63.2812 -13.5254 C 72.8027 -13.5254 79.1016 -18.3594 79.1016 -25.7324 C 79.1016 -31.7383 75.1953 -35.8398 68.7012 -36.6699 L 68.7012 -37.0117 C 73.6328 -38.0371 76.8066 -41.7969 76.8066 -46.6797 C 76.8066 -53.2715 71.4844 -57.4707 63.0371 -57.4707 L 48.4863 -57.4707 C 44.5801 -57.4707 42.4805 -55.3711 42.4805 -51.416 L 42.4805 -19.5801 C 42.4805 -15.6738 44.5801 -13.5254 48.4863 -13.5254 Z M 52.4902 -39.3555 L 52.4902 -50.5371 L 60.1562 -50.5371 C 64.3066 -50.5371 66.8945 -48.4375 66.8945 -45.0684 C 66.8945 -41.4062 63.9648 -39.3555 58.6914 -39.3555 Z M 52.4902 -20.752 L 52.4902 -33.0566 L 60.791 -33.0566 C 65.7227 -33.0566 68.6523 -30.7617 68.6523 -26.8066 C 68.6523 -22.7539 65.5762 -20.752 59.1797 -20.752 Z"/>
  </g>
  <g id="Medium-M" transform="matrix(1 0 0 1 1687.3 1126)">
   <path d="M 59.2285 15.2344 C 86.9141 15.2344 109.766 -7.61719 109.766 -35.2539 C 109.766 -62.8906 86.8652 -85.7422 59.1797 -85.7422 C 31.543 -85.7422 8.74023 -62.8906 8.74023 -35.2539 C 8.74023 -7.61719 31.5918 15.2344 59.2285 15.2344 Z M 59.2285 5.17578 C 36.8164 5.17578 18.8965 -12.8418 18.8965 -35.2539 C 18.8965 -57.666 36.8164 -75.6348 59.1797 -75.6348 C 81.5918 -75.6348 99.6094 -57.666 99.6582 -35.2539 C 99.707 -12.8418 81.6406 5.17578 59.2285 5.17578 Z M 47.7539 -13.4766 L 62.3047 -13.4766 C 72.0703 -13.4766 78.4668 -18.3105 78.4668 -25.8301 C 78.4668 -31.7871 74.5117 -35.9375 68.0176 -36.7188 L 68.0176 -37.0605 C 72.9492 -38.1348 76.0254 -41.9434 76.0254 -46.8262 C 76.0254 -53.4668 70.6543 -57.7148 62.207 -57.7148 L 47.7539 -57.7148 C 44.3848 -57.7148 42.4805 -55.8105 42.4805 -52.3926 L 42.4805 -18.75 C 42.4805 -15.3809 44.3848 -13.4766 47.7539 -13.4766 Z M 51.416 -39.209 L 51.416 -51.2695 L 59.9121 -51.2695 C 64.4043 -51.2695 67.1875 -49.0234 67.1875 -45.3613 C 67.1875 -41.4551 63.9648 -39.209 58.1543 -39.209 Z M 51.416 -20.0684 L 51.416 -33.3008 L 60.6445 -33.3008 C 66.0156 -33.3008 69.1895 -30.8105 69.1895 -26.5625 C 69.1895 -22.168 65.8203 -20.0684 58.6426 -20.0684 Z"/>
  </g>
  <g id="Regular-M" transform="matrix(1 0 0 1 1391.3 1126)">
   <path d="M 58.5449 14.5508 C 85.791 14.5508 108.35 -8.05664 108.35 -35.2539 C 108.35 -62.5 85.7422 -85.0586 58.4961 -85.0586 C 31.2988 -85.0586 8.74023 -62.5 8.74023 -35.2539 C 8.74023 -8.05664 31.3477 14.5508 58.5449 14.5508 Z M 58.5449 6.25 C 35.498 6.25 17.0898 -12.207 17.0898 -35.2539 C 17.0898 -58.3008 35.4492 -76.7578 58.4961 -76.7578 C 81.543 -76.7578 100 -58.3008 100.049 -35.2539 C 100.098 -12.207 81.5918 6.25 58.5449 6.25 Z M 46.8262 -13.3789 L 61.084 -13.3789 C 71.1914 -13.3789 77.6855 -18.2129 77.6855 -25.9277 C 77.6855 -31.8848 73.6816 -36.0352 67.1875 -36.8652 L 67.1875 -37.1582 C 72.0215 -38.3301 75 -42.1387 75 -46.9727 C 75 -53.6621 69.5801 -58.0078 61.1816 -58.0078 L 46.8262 -58.0078 C 44.0918 -58.0078 42.4805 -56.4453 42.4805 -53.6621 L 42.4805 -17.7246 C 42.4805 -14.9902 44.0918 -13.3789 46.8262 -13.3789 Z M 50.0488 -39.0625 L 50.0488 -52.2461 L 59.6191 -52.2461 C 64.5508 -52.2461 67.5293 -49.8047 67.5293 -45.752 C 67.5293 -41.4551 63.9648 -39.0625 57.4219 -39.0625 Z M 50.0488 -19.1406 L 50.0488 -33.6914 L 60.4492 -33.6914 C 66.4062 -33.6914 69.873 -30.957 69.873 -26.2207 C 69.873 -21.3867 66.1133 -19.1406 58.0078 -19.1406 Z"/>
  </g>
  <g id="Light-M" transform="matrix(1 0 0 1 1095.42 1126)">
   <path d="M 57.7148 13.7207 C 84.5215 13.7207 106.689 -8.44727 106.689 -35.2539 C 106.689 -62.1094 84.5215 -84.2285 57.666 -84.2285 C 30.8594 -84.2285 8.74023 -62.1094 8.74023 -35.2539 C 8.74023 -8.44727 30.9082 13.7207 57.7148 13.7207 Z M 57.7148 7.37305 C 34.082 7.37305 15.0879 -11.6699 15.0879 -35.2539 C 15.0879 -58.8867 34.082 -77.9297 57.666 -77.9297 C 81.2988 -77.9297 100.342 -58.8867 100.391 -35.2539 C 100.391 -11.6699 81.3477 7.37305 57.7148 7.37305 Z M 45.5566 -13.3301 L 59.8633 -13.3301 C 69.6289 -13.3301 75.8301 -18.0664 75.8301 -25.6836 C 75.8301 -31.5918 71.9238 -35.791 65.6738 -36.5723 L 65.6738 -36.8164 C 70.2637 -37.9395 73.2422 -41.8457 73.2422 -46.7285 C 73.2422 -53.2227 67.8711 -57.6172 59.8145 -57.6172 L 45.5566 -57.6172 C 43.457 -57.6172 42.2852 -56.3965 42.2852 -54.248 L 42.2852 -16.6992 C 42.2852 -14.5996 43.457 -13.3301 45.5566 -13.3301 Z M 48.1445 -38.3301 L 48.1445 -52.9785 L 58.6426 -52.9785 C 64.1113 -52.9785 67.334 -50.293 67.334 -45.752 C 67.334 -41.2109 63.4277 -38.3301 57.0312 -38.3301 Z M 48.1445 -17.9688 L 48.1445 -33.9355 L 59.7656 -33.9355 C 66.0156 -33.9355 69.7266 -30.9082 69.7266 -25.8301 C 69.7266 -20.5566 65.7227 -17.9688 57.4219 -17.9688 Z"/>
  </g>
  <g id="Thin-M" transform="matrix(1 0 0 1 799.806 1126)">
   <path d="M 56.6406 12.5977 C 82.9102 12.5977 104.492 -8.98438 104.492 -35.2539 C 104.492 -61.5723 82.9102 -83.1543 56.5918 -83.1543 C 30.3223 -83.1543 8.74023 -61.5723 8.74023 -35.2539 C 8.74023 -8.98438 30.3223 12.5977 56.6406 12.5977 Z M 56.6406 8.88672 C 32.2266 8.88672 12.4512 -10.8887 12.4512 -35.2539 C 12.4512 -59.6191 32.2266 -79.4434 56.5918 -79.4434 C 81.0059 -79.4434 100.781 -59.6191 100.781 -35.2539 C 100.781 -10.8887 81.0059 8.88672 56.6406 8.88672 Z M 43.8477 -13.2812 L 58.2031 -13.2812 C 67.627 -13.2812 73.4375 -17.8711 73.4375 -25.3906 C 73.4375 -31.25 69.6289 -35.4492 63.623 -36.2305 L 63.623 -36.4258 C 67.9199 -37.4512 70.8496 -41.5039 70.8496 -46.3379 C 70.8496 -52.6855 65.5762 -57.1289 58.0566 -57.1289 L 43.8477 -57.1289 C 42.627 -57.1289 41.9434 -56.3477 41.9434 -55.0781 L 41.9434 -15.332 C 41.9434 -14.0625 42.627 -13.2812 43.8477 -13.2812 Z M 45.6055 -37.4023 L 45.6055 -53.9551 L 57.373 -53.9551 C 63.5742 -53.9551 67.0898 -50.9277 67.0898 -45.7031 C 67.0898 -40.8691 62.793 -37.4023 56.5918 -37.4023 Z M 45.6055 -16.4551 L 45.6055 -34.2773 L 58.9355 -34.2773 C 65.5273 -34.2773 69.5801 -30.9082 69.5801 -25.3418 C 69.5801 -19.4336 65.2344 -16.4551 56.5918 -16.4551 Z"/>
  </g>
  <g id="Ultralight-M" transform="matrix(1 0 0 1 503.656 1126)">
   <path d="M 56.0547 12.0605 C 82.0801 12.0605 103.369 -9.22852 103.369 -35.2539 C 103.369 -61.2793 82.0801 -82.5684 56.0547 -82.5684 C 30.0293 -82.5684 8.74023 -61.2793 8.74023 -35.2539 C 8.74023 -9.22852 30.0293 12.0605 56.0547 12.0605 Z M 56.0547 9.66797 C 31.2988 9.66797 11.1328 -10.498 11.1328 -35.2539 C 11.1328 -60.0586 31.2988 -80.1758 56.0547 -80.1758 C 80.8594 -80.1758 100.977 -60.0586 100.977 -35.2539 C 100.977 -10.498 80.8594 9.66797 56.0547 9.66797 Z M 43.0176 -13.2812 L 57.373 -13.2812 C 66.6016 -13.2812 72.2168 -17.7246 72.2168 -25.1953 C 72.2168 -31.0547 68.457 -35.2539 62.5977 -36.0352 L 62.5977 -36.2305 C 66.6992 -37.1582 69.6289 -41.3086 69.6289 -46.1426 C 69.6289 -52.3926 64.4043 -56.8848 57.1289 -56.8848 L 43.0176 -56.8848 C 42.2363 -56.8848 41.7969 -56.3477 41.7969 -55.4688 L 41.7969 -14.6484 C 41.7969 -13.8184 42.2363 -13.2812 43.0176 -13.2812 Z M 44.3359 -36.9141 L 44.3359 -54.4434 L 56.7383 -54.4434 C 63.2812 -54.4434 66.9922 -51.2207 66.9922 -45.6543 C 66.9922 -40.6738 62.4023 -36.9141 56.2988 -36.9141 Z M 44.3359 -15.6738 L 44.3359 -34.4727 L 58.4961 -34.4727 C 65.2832 -34.4727 69.4824 -30.9082 69.4824 -25.0977 C 69.4824 -18.8965 64.9902 -15.6738 56.2012 -15.6738 Z"/>
  </g>
  <g id="Black-S" transform="matrix(1 0 0 1 2884.57 696)">
   <path d="M 48.8281 6.78711 C 71.9727 6.78711 90.8203 -12.0605 90.8203 -35.2051 C 90.8203 -58.3496 71.9727 -77.1973 48.8281 -77.1973 C 25.6836 -77.1973 6.83594 -58.3496 6.83594 -35.2051 C 6.83594 -12.0605 25.6836 6.78711 48.8281 6.78711 Z M 48.8281 -7.37305 C 33.4473 -7.37305 20.9961 -19.8242 20.9961 -35.2051 C 20.9961 -50.5859 33.4473 -63.0371 48.8281 -63.0371 C 64.209 -63.0371 76.6602 -50.5859 76.6602 -35.2051 C 76.6602 -19.8242 64.209 -7.37305 48.8281 -7.37305 Z M 40.6738 -18.5059 L 53.1738 -18.5059 C 59.668 -18.5059 64.3066 -22.2656 64.3066 -27.5391 C 64.3066 -32.3242 61.377 -35.4004 56.25 -36.0352 L 56.25 -36.4258 C 60.3516 -36.9629 63.1348 -39.8438 63.1348 -43.6523 C 63.1348 -48.7305 59.082 -51.8066 52.3926 -51.8066 L 40.6738 -51.8066 C 35.7422 -51.8066 33.252 -49.2676 33.252 -44.3359 L 33.252 -25.9766 C 33.252 -20.9961 35.6934 -18.5059 40.6738 -18.5059 Z M 45.1172 -38.9648 L 45.1172 -44.3848 L 48.0469 -44.3848 C 50.0488 -44.3848 51.3672 -43.3105 51.3672 -41.748 C 51.3672 -39.9902 50.1465 -38.9648 48.0469 -38.9648 Z M 45.0684 -26.5625 L 45.0684 -32.5195 L 48.1934 -32.5195 C 50.3906 -32.5195 51.7578 -31.3965 51.7578 -29.6387 C 51.7578 -27.6855 50.4395 -26.5625 48.1934 -26.5625 Z"/>
  </g>
  <g id="Heavy-S" transform="matrix(1 0 0 1 2588.47 696)">
   <path d="M 48.2422 6.15234 C 70.9961 6.15234 89.5996 -12.4512 89.5996 -35.2051 C 89.5996 -57.959 70.9961 -76.6113 48.1934 -76.6113 C 25.4395 -76.6113 6.83594 -57.959 6.83594 -35.2051 C 6.83594 -12.4512 25.4395 6.15234 48.2422 6.15234 Z M 48.2422 -6.39648 C 32.2754 -6.39648 19.4336 -19.2871 19.4336 -35.2051 C 19.4336 -51.1719 32.2754 -64.0137 48.1934 -64.0137 C 64.1602 -64.0137 77.002 -51.1719 77.0508 -35.2051 C 77.0508 -19.2871 64.1602 -6.39648 48.2422 -6.39648 Z M 39.8926 -18.4082 L 52.0508 -18.4082 C 58.9355 -18.4082 63.7207 -22.2168 63.7207 -27.6367 C 63.7207 -32.4219 60.6934 -35.5469 55.5664 -36.1816 L 55.5664 -36.5234 C 59.6191 -37.1582 62.3047 -40.0879 62.3047 -43.8965 C 62.3047 -49.0234 58.2031 -52.1484 51.5137 -52.1484 L 39.8926 -52.1484 C 35.5469 -52.1484 33.3008 -49.8535 33.3008 -45.5078 L 33.3008 -25.0488 C 33.3008 -20.6543 35.498 -18.4082 39.8926 -18.4082 Z M 43.9453 -38.8672 L 43.9453 -45.2637 L 47.8516 -45.2637 C 50.1953 -45.2637 51.7578 -44.043 51.7578 -42.1387 C 51.7578 -40.0391 50.1953 -38.8672 47.3633 -38.8672 Z M 43.8965 -25.7812 L 43.8965 -32.8613 L 48.0469 -32.8613 C 50.8301 -32.8613 52.4902 -31.4941 52.4902 -29.3457 C 52.4902 -27.002 50.8301 -25.7812 47.6074 -25.7812 Z"/>
  </g>
  <g id="Bold-S" transform="matrix(1 0 0 1 2292.44 696)">
   <path d="M 47.5586 5.46875 C 69.873 5.46875 88.2324 -12.8906 88.2324 -35.2539 C 88.2324 -57.5684 69.873 -75.9277 47.5098 -75.9277 C 25.1953 -75.9277 6.83594 -57.5684 6.83594 -35.2539 C 6.83594 -12.8906 25.1953 5.46875 47.5586 5.46875 Z M 47.5586 -5.32227 C 30.957 -5.32227 17.6758 -18.6523 17.6758 -35.2539 C 17.6758 -51.8066 30.957 -65.1367 47.5098 -65.1367 C 64.1113 -65.1367 77.4414 -51.8066 77.4414 -35.2539 C 77.4414 -18.6523 64.1113 -5.32227 47.5586 -5.32227 Z M 38.9648 -18.3105 L 50.8301 -18.3105 C 58.1055 -18.3105 63.0371 -22.1191 63.0371 -27.7832 C 63.0371 -32.5195 59.9609 -35.6934 54.834 -36.3281 L 54.834 -36.6699 C 58.8379 -37.4023 61.377 -40.332 61.377 -44.1406 C 61.377 -49.3164 57.2266 -52.5391 50.4883 -52.5391 L 38.9648 -52.5391 C 35.3027 -52.5391 33.3496 -50.5371 33.3496 -46.8262 L 33.3496 -23.9746 C 33.3496 -20.2637 35.3027 -18.3105 38.9648 -18.3105 Z M 42.627 -38.7695 L 42.627 -46.2891 L 47.6074 -46.2891 C 50.3906 -46.2891 52.1973 -44.873 52.1973 -42.627 C 52.1973 -40.1367 50.2441 -38.7695 46.582 -38.7695 Z M 42.5781 -24.8535 L 42.5781 -33.2031 L 47.9004 -33.2031 C 51.2695 -33.2031 53.2715 -31.6406 53.2715 -29.0039 C 53.2715 -26.2207 51.2207 -24.8535 46.9727 -24.8535 Z"/>
  </g>
  <g id="Semibold-S" transform="matrix(1 0 0 1 1996.2 696)">
   <path d="M 47.0703 4.98047 C 69.0918 4.98047 87.3047 -13.1836 87.3047 -35.2539 C 87.3047 -57.2754 69.0918 -75.4883 47.0215 -75.4883 C 25 -75.4883 6.83594 -57.2754 6.83594 -35.2539 C 6.83594 -13.1836 25.0488 4.98047 47.0703 4.98047 Z M 47.0703 -4.58984 C 30.0781 -4.58984 16.4551 -18.2129 16.4551 -35.2539 C 16.4551 -52.2461 30.0293 -65.8691 47.0215 -65.8691 C 64.0625 -65.8691 77.6855 -52.2461 77.7344 -35.2539 C 77.7344 -18.2129 64.0625 -4.58984 47.0703 -4.58984 Z M 38.3789 -18.2129 L 49.9512 -18.2129 C 57.5195 -18.2129 62.5488 -22.0703 62.5488 -27.8809 C 62.5488 -32.6172 59.4727 -35.791 54.2969 -36.4258 L 54.2969 -36.7188 C 58.252 -37.5488 60.7422 -40.4785 60.7422 -44.2871 C 60.7422 -49.5117 56.543 -52.7832 49.8047 -52.7832 L 38.3789 -52.7832 C 35.1562 -52.7832 33.3496 -51.0254 33.3496 -47.7539 L 33.3496 -23.291 C 33.3496 -20.0195 35.1074 -18.2129 38.3789 -18.2129 Z M 41.6992 -38.6719 L 41.6992 -46.9727 L 47.4609 -46.9727 C 50.5371 -46.9727 52.4902 -45.4102 52.4902 -42.9199 C 52.4902 -40.1855 50.293 -38.6719 46.0938 -38.6719 Z M 41.6992 -24.2676 L 41.6992 -33.4473 L 47.8027 -33.4473 C 51.6113 -33.4473 53.8574 -31.7383 53.8574 -28.7598 C 53.8574 -25.6836 51.5137 -24.2676 46.5332 -24.2676 Z"/>
  </g>
  <g id="Medium-S" transform="matrix(1 0 0 1 1699.83 696)">
   <path d="M 46.7285 4.63867 C 68.5547 4.63867 86.6211 -13.4277 86.6211 -35.2539 C 86.6211 -57.0801 68.5059 -75.1465 46.6797 -75.1465 C 24.8535 -75.1465 6.83594 -57.0801 6.83594 -35.2539 C 6.83594 -13.4277 24.9023 4.63867 46.7285 4.63867 Z M 46.7285 -4.00391 C 29.3945 -4.00391 15.5273 -17.9199 15.5273 -35.2539 C 15.5273 -52.5879 29.3457 -66.4551 46.6797 -66.4551 C 64.0137 -66.4551 77.8809 -52.5879 77.9297 -35.2539 C 77.9785 -17.9199 64.0625 -4.00391 46.7285 -4.00391 Z M 37.8906 -18.1641 L 49.3164 -18.1641 C 57.0801 -18.1641 62.207 -22.0215 62.207 -27.9297 C 62.207 -32.666 59.082 -35.8887 53.9062 -36.5234 L 53.9062 -36.7676 C 57.8613 -37.6953 60.2539 -40.625 60.2539 -44.4336 C 60.2539 -49.6582 56.0059 -52.9785 49.2676 -52.9785 L 37.8906 -52.9785 C 35.0098 -52.9785 33.3984 -51.3672 33.3984 -48.4375 L 33.3984 -22.7051 C 33.3984 -19.8242 35.0098 -18.1641 37.8906 -18.1641 Z M 41.0156 -38.623 L 41.0156 -47.5098 L 47.3145 -47.5098 C 50.6348 -47.5098 52.6855 -45.8496 52.6855 -43.1641 C 52.6855 -40.1855 50.3418 -38.623 45.6543 -38.623 Z M 41.0156 -23.7793 L 41.0156 -33.6426 L 47.7539 -33.6426 C 51.8555 -33.6426 54.248 -31.7871 54.248 -28.6133 C 54.248 -25.293 51.709 -23.7793 46.1914 -23.7793 Z"/>
  </g>
  <g id="Regular-S" transform="matrix(1 0 0 1 1403.58 696)">
   <path d="M 46.2402 4.15039 C 67.7734 4.15039 85.6934 -13.7207 85.6934 -35.2539 C 85.6934 -56.7871 67.7246 -74.6582 46.1914 -74.6582 C 24.707 -74.6582 6.83594 -56.7871 6.83594 -35.2539 C 6.83594 -13.7207 24.7559 4.15039 46.2402 4.15039 Z M 46.2402 -3.27148 C 28.5156 -3.27148 14.3555 -17.4805 14.3555 -35.2539 C 14.3555 -53.0273 28.4668 -67.2363 46.1914 -67.2363 C 63.9648 -67.2363 78.1738 -53.0273 78.2227 -35.2539 C 78.2715 -17.4805 64.0137 -3.27148 46.2402 -3.27148 Z M 37.3047 -18.1152 L 48.4375 -18.1152 C 56.4941 -18.1152 61.7188 -21.9727 61.7188 -28.0273 C 61.7188 -32.7148 58.5449 -35.9863 53.3691 -36.6211 L 53.3691 -36.8652 C 57.2754 -37.8418 59.6191 -40.7715 59.6191 -44.5801 C 59.6191 -49.9023 55.3711 -53.2715 48.584 -53.2715 L 37.3047 -53.2715 C 34.8633 -53.2715 33.3984 -51.8555 33.3984 -49.3652 L 33.3984 -22.0215 C 33.3984 -19.5801 34.8633 -18.1152 37.3047 -18.1152 Z M 40.1367 -38.5742 L 40.1367 -48.1934 L 47.168 -48.1934 C 50.7812 -48.1934 52.9785 -46.4355 52.9785 -43.5059 C 52.9785 -40.2344 50.3418 -38.5742 45.166 -38.5742 Z M 40.1367 -23.1445 L 40.1367 -33.8867 L 47.6562 -33.8867 C 52.1973 -33.8867 54.834 -31.8848 54.834 -28.3691 C 54.834 -24.7559 52.002 -23.1445 45.752 -23.1445 Z"/>
  </g>
  <g id="Light-S" transform="matrix(1 0 0 1 1107.6 696)">
   <path d="M 45.5078 3.41797 C 66.6992 3.41797 84.2285 -14.0625 84.2285 -35.2539 C 84.2285 -56.4453 66.6504 -73.9258 45.5078 -73.9258 C 24.3164 -73.9258 6.83594 -56.4453 6.83594 -35.2539 C 6.83594 -14.0625 24.3652 3.41797 45.5078 3.41797 Z M 45.5078 -2.29492 C 27.2461 -2.29492 12.5977 -16.9922 12.5977 -35.2539 C 12.5977 -53.5156 27.1973 -68.2129 45.5078 -68.2129 C 63.7695 -68.2129 78.4668 -53.5156 78.5156 -35.2539 C 78.5156 -16.9922 63.8184 -2.29492 45.5078 -2.29492 Z M 36.1816 -18.0664 L 47.3633 -18.0664 C 55.1758 -18.0664 60.1074 -21.8262 60.1074 -27.832 C 60.1074 -32.4707 57.0312 -35.7422 52.0508 -36.377 L 52.0508 -36.6211 C 55.7129 -37.5 58.0566 -40.5273 58.0566 -44.3359 C 58.0566 -49.5117 53.8086 -52.9297 47.3633 -52.9297 L 36.1816 -52.9297 C 34.3262 -52.9297 33.2031 -51.8066 33.2031 -49.9023 L 33.2031 -21.0938 C 33.2031 -19.2383 34.3262 -18.0664 36.1816 -18.0664 Z M 38.4277 -37.9395 L 38.4277 -48.877 L 46.3379 -48.877 C 50.3906 -48.877 52.832 -46.8262 52.832 -43.457 C 52.832 -39.9902 49.9023 -37.9395 44.8242 -37.9395 Z M 38.4277 -22.168 L 38.4277 -34.1309 L 47.0703 -34.1309 C 51.8555 -34.1309 54.6875 -31.8848 54.6875 -28.0273 C 54.6875 -24.0234 51.6602 -22.168 45.2148 -22.168 Z"/>
  </g>
  <g id="Thin-S" transform="matrix(1 0 0 1 811.867 696)">
   <path d="M 44.5801 2.49023 C 65.2832 2.49023 82.2754 -14.5508 82.2754 -35.2539 C 82.2754 -55.957 65.2344 -72.998 44.5312 -72.998 C 23.8281 -72.998 6.83594 -55.957 6.83594 -35.2539 C 6.83594 -14.5508 23.877 2.49023 44.5801 2.49023 Z M 44.5801 -0.927734 C 25.5859 -0.927734 10.2539 -16.3086 10.2539 -35.2539 C 10.2539 -54.1992 25.5859 -69.5801 44.5312 -69.5801 C 63.5254 -69.5801 78.8574 -54.1992 78.8574 -35.2539 C 78.8574 -16.3086 63.5254 -0.927734 44.5801 -0.927734 Z M 34.668 -18.0664 L 45.9473 -18.0664 C 53.3691 -18.0664 58.0078 -21.6797 58.0078 -27.5879 C 58.0078 -32.1777 54.9805 -35.4492 50.2441 -36.084 L 50.2441 -36.2793 C 53.6621 -37.0605 55.957 -40.1855 55.957 -43.9941 C 55.957 -49.0234 51.8066 -52.4902 45.8008 -52.4902 L 34.668 -52.4902 C 33.5938 -52.4902 32.959 -51.8066 32.959 -50.6348 L 32.959 -19.9219 C 32.959 -18.75 33.5938 -18.0664 34.668 -18.0664 Z M 36.2305 -37.1094 L 36.2305 -49.707 L 45.2148 -49.707 C 49.9023 -49.707 52.6367 -47.4121 52.6367 -43.457 C 52.6367 -39.6973 49.3164 -37.1094 44.4336 -37.1094 Z M 36.2305 -20.8008 L 36.2305 -34.4238 L 46.3379 -34.4238 C 51.4648 -34.4238 54.541 -31.8359 54.541 -27.5879 C 54.541 -23.0957 51.2207 -20.8008 44.4824 -20.8008 Z"/>
  </g>
  <g id="Ultralight-S" transform="matrix(1 0 0 1 515.644 696)">
   <path d="M 44.043 1.95312 C 64.502 1.95312 81.2988 -14.7949 81.2988 -35.2539 C 81.2988 -55.7129 64.502 -72.4609 44.043 -72.4609 C 23.584 -72.4609 6.83594 -55.7129 6.83594 -35.2539 C 6.83594 -14.7949 23.584 1.95312 44.043 1.95312 Z M 44.043 -0.244141 C 24.7559 -0.244141 9.08203 -15.9668 9.08203 -35.2539 C 9.08203 -54.541 24.7559 -70.2637 44.043 -70.2637 C 63.3789 -70.2637 79.0527 -54.541 79.0527 -35.2539 C 79.0527 -15.9668 63.3789 -0.244141 44.043 -0.244141 Z M 33.9355 -18.0176 L 45.166 -18.0176 C 52.4414 -18.0176 56.8848 -21.5332 56.8848 -27.4414 C 56.8848 -32.0312 53.9551 -35.3027 49.3164 -35.9375 L 49.3164 -36.084 C 52.5879 -36.8164 54.8828 -40.0391 54.8828 -43.8477 C 54.8828 -48.7305 50.7812 -52.2461 45.0195 -52.2461 L 33.9355 -52.2461 C 33.2031 -52.2461 32.8125 -51.7578 32.8125 -50.9766 L 32.8125 -19.2871 C 32.8125 -18.5059 33.2031 -18.0176 33.9355 -18.0176 Z M 35.0586 -36.6699 L 35.0586 -50.1465 L 44.6289 -50.1465 C 49.6582 -50.1465 52.5391 -47.7051 52.5391 -43.4082 C 52.5391 -39.5508 48.9746 -36.6699 44.1895 -36.6699 Z M 35.0586 -20.1172 L 35.0586 -34.5703 L 45.9473 -34.5703 C 51.2207 -34.5703 54.4434 -31.8359 54.4434 -27.3438 C 54.4434 -22.5586 50.9766 -20.1172 44.1406 -20.1172 Z"/>
  </g>
 </g>
</svg>
