<?xml version="1.0" encoding="UTF-8"?>
<!--Generator: Apple Native CoreSVG 148-->
<!DOCTYPE svg
PUBLIC "-//W3C//DTD SVG 1.1//EN"
       "http://www.w3.org/Graphics/SVG/1.1/DTD/svg11.dtd">
<svg version="1.1" xmlns="http://www.w3.org/2000/svg" xmlns:xlink="http://www.w3.org/1999/xlink" width="3300" height="2200">
 <!--glyph: "uni1004AB.medium", point size: 100.000000, font version: "Version 16.0d11e1", template writer version: "8"-->
 <g id="Notes">
  <rect height="2200" id="artboard" style="fill:white;opacity:1" width="3300" x="0" y="0"/>
  <line id="" style="fill:none;stroke:black;opacity:1;stroke-width:0.5;" x1="263" x2="3036" y1="292" y2="292"/>
  <text style="stroke:none;fill:black;font-family:-apple-system,&quot;SF Pro Display&quot;,&quot;SF Pro Text&quot;,Helvetica,sans-serif;font-weight:bold;" transform="matrix(1 0 0 1 263 322)">Weight/Scale Variations</text>
  <text style="stroke:none;fill:black;font-family:-apple-system,&quot;SF Pro Display&quot;,&quot;SF Pro Text&quot;,Helvetica,sans-serif;text-anchor:middle;" transform="matrix(1 0 0 1 559.711 322)">Ultralight</text>
  <text style="stroke:none;fill:black;font-family:-apple-system,&quot;SF Pro Display&quot;,&quot;SF Pro Text&quot;,Helvetica,sans-serif;text-anchor:middle;" transform="matrix(1 0 0 1 856.422 322)">Thin</text>
  <text style="stroke:none;fill:black;font-family:-apple-system,&quot;SF Pro Display&quot;,&quot;SF Pro Text&quot;,Helvetica,sans-serif;text-anchor:middle;" transform="matrix(1 0 0 1 1153.13 322)">Light</text>
  <text style="stroke:none;fill:black;font-family:-apple-system,&quot;SF Pro Display&quot;,&quot;SF Pro Text&quot;,Helvetica,sans-serif;text-anchor:middle;" transform="matrix(1 0 0 1 1449.84 322)">Regular</text>
  <text style="stroke:none;fill:black;font-family:-apple-system,&quot;SF Pro Display&quot;,&quot;SF Pro Text&quot;,Helvetica,sans-serif;text-anchor:middle;" transform="matrix(1 0 0 1 1746.56 322)">Medium</text>
  <text style="stroke:none;fill:black;font-family:-apple-system,&quot;SF Pro Display&quot;,&quot;SF Pro Text&quot;,Helvetica,sans-serif;text-anchor:middle;" transform="matrix(1 0 0 1 2043.27 322)">Semibold</text>
  <text style="stroke:none;fill:black;font-family:-apple-system,&quot;SF Pro Display&quot;,&quot;SF Pro Text&quot;,Helvetica,sans-serif;text-anchor:middle;" transform="matrix(1 0 0 1 2339.98 322)">Bold</text>
  <text style="stroke:none;fill:black;font-family:-apple-system,&quot;SF Pro Display&quot;,&quot;SF Pro Text&quot;,Helvetica,sans-serif;text-anchor:middle;" transform="matrix(1 0 0 1 2636.69 322)">Heavy</text>
  <text style="stroke:none;fill:black;font-family:-apple-system,&quot;SF Pro Display&quot;,&quot;SF Pro Text&quot;,Helvetica,sans-serif;text-anchor:middle;" transform="matrix(1 0 0 1 2933.4 322)">Black</text>
  <line id="" style="fill:none;stroke:black;opacity:1;stroke-width:0.5;" x1="263" x2="3036" y1="1903" y2="1903"/>
  <g id="" transform="matrix(1 0 0 1 263 1933)">
   <path d="M 9.24805 0.830078 C 13.5547 0.830078 17.1387 -2.74414 17.1387 -7.05078 C 17.1387 -11.3574 13.5449 -14.9316 9.23828 -14.9316 C 4.94141 -14.9316 1.36719 -11.3574 1.36719 -7.05078 C 1.36719 -2.74414 4.95117 0.830078 9.24805 0.830078 Z M 9.24805 -0.654297 C 5.70312 -0.654297 2.87109 -3.49609 2.87109 -7.05078 C 2.87109 -10.6055 5.69336 -13.4473 9.23828 -13.4473 C 12.793 -13.4473 15.6348 -10.6055 15.6445 -7.05078 C 15.6543 -3.49609 12.8027 -0.654297 9.24805 -0.654297 Z M 9.22852 -3.62305 C 9.69727 -3.62305 9.9707 -3.93555 9.9707 -4.45312 L 9.9707 -6.31836 L 12.002 -6.31836 C 12.5 -6.31836 12.832 -6.57227 12.832 -7.04102 C 12.832 -7.51953 12.5195 -7.7832 12.002 -7.7832 L 9.9707 -7.7832 L 9.9707 -9.81445 C 9.9707 -10.332 9.69727 -10.6543 9.22852 -10.6543 C 8.75977 -10.6543 8.50586 -10.3125 8.50586 -9.81445 L 8.50586 -7.7832 L 6.49414 -7.7832 C 5.97656 -7.7832 5.64453 -7.51953 5.64453 -7.04102 C 5.64453 -6.57227 5.99609 -6.31836 6.49414 -6.31836 L 8.50586 -6.31836 L 8.50586 -4.45312 C 8.50586 -3.95508 8.75977 -3.62305 9.22852 -3.62305 Z"/>
  </g>
  <g id="" transform="matrix(1 0 0 1 281.506 1933)">
   <path d="M 11.709 2.91016 C 17.1582 2.91016 21.6699 -1.61133 21.6699 -7.05078 C 21.6699 -12.5 17.1484 -17.0117 11.6992 -17.0117 C 6.25977 -17.0117 1.74805 -12.5 1.74805 -7.05078 C 1.74805 -1.61133 6.26953 2.91016 11.709 2.91016 Z M 11.709 1.25 C 7.09961 1.25 3.41797 -2.44141 3.41797 -7.05078 C 3.41797 -11.6602 7.08984 -15.3516 11.6992 -15.3516 C 16.3086 -15.3516 20 -11.6602 20.0098 -7.05078 C 20.0195 -2.44141 16.3184 1.25 11.709 1.25 Z M 11.6797 -2.66602 C 12.207 -2.66602 12.5098 -3.01758 12.5098 -3.59375 L 12.5098 -6.23047 L 15.3223 -6.23047 C 15.8691 -6.23047 16.25 -6.51367 16.25 -7.03125 C 16.25 -7.55859 15.8887 -7.86133 15.3223 -7.86133 L 12.5098 -7.86133 L 12.5098 -10.6836 C 12.5098 -11.25 12.207 -11.6113 11.6797 -11.6113 C 11.1621 -11.6113 10.8789 -11.2305 10.8789 -10.6836 L 10.8789 -7.86133 L 8.07617 -7.86133 C 7.50977 -7.86133 7.13867 -7.55859 7.13867 -7.03125 C 7.13867 -6.51367 7.5293 -6.23047 8.07617 -6.23047 L 10.8789 -6.23047 L 10.8789 -3.59375 C 10.8789 -3.03711 11.1621 -2.66602 11.6797 -2.66602 Z"/>
  </g>
  <g id="" transform="matrix(1 0 0 1 304.924 1933)">
   <path d="M 14.9707 5.66406 C 21.9336 5.66406 27.6953 -0.0976562 27.6953 -7.05078 C 27.6953 -14.0137 21.9238 -19.7754 14.9609 -19.7754 C 8.00781 -19.7754 2.25586 -14.0137 2.25586 -7.05078 C 2.25586 -0.0976562 8.01758 5.66406 14.9707 5.66406 Z M 14.9707 3.84766 C 8.93555 3.84766 4.08203 -1.01562 4.08203 -7.05078 C 4.08203 -13.0957 8.92578 -17.9492 14.9609 -17.9492 C 21.0059 -17.9492 25.8594 -13.0957 25.8691 -7.05078 C 25.8789 -1.01562 21.0156 3.84766 14.9707 3.84766 Z M 14.9414 -1.38672 C 15.5176 -1.38672 15.8594 -1.77734 15.8594 -2.38281 L 15.8594 -6.13281 L 19.7754 -6.13281 C 20.3711 -6.13281 20.7812 -6.46484 20.7812 -7.02148 C 20.7812 -7.59766 20.3906 -7.93945 19.7754 -7.93945 L 15.8594 -7.93945 L 15.8594 -11.8652 C 15.8594 -12.4805 15.5176 -12.8711 14.9414 -12.8711 C 14.375 -12.8711 14.0527 -12.4609 14.0527 -11.8652 L 14.0527 -7.93945 L 10.1465 -7.93945 C 9.53125 -7.93945 9.13086 -7.59766 9.13086 -7.02148 C 9.13086 -6.46484 9.55078 -6.13281 10.1465 -6.13281 L 14.0527 -6.13281 L 14.0527 -2.38281 C 14.0527 -1.79688 14.375 -1.38672 14.9414 -1.38672 Z"/>
  </g>
  <text style="stroke:none;fill:black;font-family:-apple-system,&quot;SF Pro Display&quot;,&quot;SF Pro Text&quot;,Helvetica,sans-serif;font-weight:bold;" transform="matrix(1 0 0 1 263 1953)">Design Variations</text>
  <text style="stroke:none;fill:black;font-family:-apple-system,&quot;SF Pro Display&quot;,&quot;SF Pro Text&quot;,Helvetica,sans-serif;" transform="matrix(1 0 0 1 263 1971)">Symbols are supported in up to nine weights and three scales.</text>
  <text style="stroke:none;fill:black;font-family:-apple-system,&quot;SF Pro Display&quot;,&quot;SF Pro Text&quot;,Helvetica,sans-serif;" transform="matrix(1 0 0 1 263 1989)">For optimal layout with text and other symbols, vertically align</text>
  <text style="stroke:none;fill:black;font-family:-apple-system,&quot;SF Pro Display&quot;,&quot;SF Pro Text&quot;,Helvetica,sans-serif;" transform="matrix(1 0 0 1 263 2007)">symbols with the adjacent text.</text>
  <line id="" style="fill:none;stroke:#00AEEF;stroke-width:0.5;opacity:1.0;" x1="776" x2="776" y1="1919" y2="1933"/>
  <g id="" transform="matrix(1 0 0 1 776 1933)">
   <path d="M 3.31055 0.126953 C 3.82812 0.126953 4.08203 -0.0683594 4.26758 -0.605469 L 5.52734 -4.0625 L 11.2891 -4.0625 L 12.5488 -0.605469 C 12.7344 -0.0683594 12.9883 0.126953 13.4961 0.126953 C 14.0137 0.126953 14.3457 -0.185547 14.3457 -0.673828 C 14.3457 -0.839844 14.3164 -0.986328 14.2383 -1.20117 L 9.6582 -13.3887 C 9.43359 -13.9941 9.0332 -14.2871 8.4082 -14.2871 C 7.80273 -14.2871 7.39258 -13.9941 7.17773 -13.3984 L 2.59766 -1.19141 C 2.51953 -0.976562 2.49023 -0.830078 2.49023 -0.664062 C 2.49023 -0.175781 2.80273 0.126953 3.31055 0.126953 Z M 6.00586 -5.53711 L 8.37891 -12.1094 L 8.42773 -12.1094 L 10.8008 -5.53711 Z"/>
  </g>
  <line id="" style="fill:none;stroke:#00AEEF;stroke-width:0.5;opacity:1.0;" x1="792.836" x2="792.836" y1="1919" y2="1933"/>
  <text style="stroke:none;fill:black;font-family:-apple-system,&quot;SF Pro Display&quot;,&quot;SF Pro Text&quot;,Helvetica,sans-serif;font-weight:bold;" transform="matrix(1 0 0 1 776 1953)">Margins</text>
  <text style="stroke:none;fill:black;font-family:-apple-system,&quot;SF Pro Display&quot;,&quot;SF Pro Text&quot;,Helvetica,sans-serif;" transform="matrix(1 0 0 1 776 1971)">Leading and trailing margins on the left and right side of each symbol</text>
  <text style="stroke:none;fill:black;font-family:-apple-system,&quot;SF Pro Display&quot;,&quot;SF Pro Text&quot;,Helvetica,sans-serif;" transform="matrix(1 0 0 1 776 1989)">can be adjusted by modifying the x-location of the margin guidelines.</text>
  <text style="stroke:none;fill:black;font-family:-apple-system,&quot;SF Pro Display&quot;,&quot;SF Pro Text&quot;,Helvetica,sans-serif;" transform="matrix(1 0 0 1 776 2007)">Modifications are automatically applied proportionally to all</text>
  <text style="stroke:none;fill:black;font-family:-apple-system,&quot;SF Pro Display&quot;,&quot;SF Pro Text&quot;,Helvetica,sans-serif;" transform="matrix(1 0 0 1 776 2025)">scales and weights.</text>
  <g id="" transform="matrix(1 0 0 1 1289 1933)">
   <path d="M 2.8418 1.86523 L 4.54102 3.57422 C 5.40039 4.44336 6.38672 4.38477 7.31445 3.35938 L 17.4902 -7.85156 C 17.7539 -7.76367 18.0273 -7.7832 18.3398 -7.8418 L 19.4043 -8.03711 L 20.0684 -7.36328 L 20.0293 -6.80664 C 19.9902 -6.30859 20.1172 -5.92773 20.6055 -5.44922 L 21.3672 -4.70703 C 21.8457 -4.22852 22.4609 -4.19922 22.9297 -4.66797 L 25.8398 -7.58789 C 26.3086 -8.05664 26.2891 -8.65234 25.8105 -9.13086 L 25.0391 -9.89258 C 24.5605 -10.3711 24.1895 -10.5273 23.7109 -10.4883 L 23.1348 -10.4395 L 22.4902 -11.0742 L 22.7344 -12.1973 C 22.8613 -12.7637 22.7051 -13.2031 22.1191 -13.7891 L 19.9219 -15.9766 C 16.582 -19.2969 12.1484 -19.2188 9.25781 -16.3281 C 8.83789 -15.918 8.80859 -15.3418 9.04297 -14.9512 C 9.27734 -14.5898 9.73633 -14.3555 10.3809 -14.5215 C 11.8457 -14.8633 13.3691 -14.9219 14.7949 -13.9844 L 14.209 -12.5293 C 14.0137 -12.0508 13.9844 -11.6504 14.1113 -11.2891 L 3.04688 -0.898438 C 2.06055 0.0195312 1.98242 0.996094 2.8418 1.86523 Z M 10.752 -15.957 C 13.1836 -17.7344 16.4746 -17.4316 18.7012 -15.2051 L 21.1328 -12.793 C 21.3672 -12.5586 21.4062 -12.373 21.3379 -12.0312 L 21.0156 -10.5469 L 22.5195 -9.0625 L 23.5059 -9.12109 C 23.7598 -9.13086 23.8379 -9.11133 24.0332 -8.91602 L 24.6094 -8.33984 L 22.168 -5.89844 L 21.5918 -6.47461 C 21.3965 -6.66992 21.3672 -6.74805 21.377 -7.01172 L 21.4453 -7.98828 L 19.9512 -9.47266 L 18.4277 -9.21875 C 18.1055 -9.15039 17.959 -9.17969 17.7148 -9.41406 L 15.7129 -11.416 C 15.459 -11.6504 15.4297 -11.8164 15.5859 -12.1875 L 16.4648 -14.2773 C 14.9023 -15.7324 12.8711 -16.3574 10.8398 -15.7617 C 10.6836 -15.7227 10.625 -15.8496 10.752 -15.957 Z M 5.27344 2.30469 L 4.10156 1.14258 C 3.63281 0.683594 3.74023 0.341797 4.14062 -0.0195312 L 14.9512 -10.1953 L 16.416 -8.71094 L 6.42578 2.27539 C 6.07422 2.67578 5.74219 2.77344 5.27344 2.30469 Z"/>
  </g>
  <text style="stroke:none;fill:black;font-family:-apple-system,&quot;SF Pro Display&quot;,&quot;SF Pro Text&quot;,Helvetica,sans-serif;font-weight:bold;" transform="matrix(1 0 0 1 1289 1953)">Exporting</text>
  <text style="stroke:none;fill:black;font-family:-apple-system,&quot;SF Pro Display&quot;,&quot;SF Pro Text&quot;,Helvetica,sans-serif;" transform="matrix(1 0 0 1 1289 1971)">Symbols should be outlined when exporting to ensure the</text>
  <text style="stroke:none;fill:black;font-family:-apple-system,&quot;SF Pro Display&quot;,&quot;SF Pro Text&quot;,Helvetica,sans-serif;" transform="matrix(1 0 0 1 1289 1989)">design is preserved when submitting to Xcode.</text>
  <text id="template-version" style="stroke:none;fill:black;font-family:-apple-system,&quot;SF Pro Display&quot;,&quot;SF Pro Text&quot;,Helvetica,sans-serif;text-anchor:end;" transform="matrix(1 0 0 1 3036 1933)">Template v.2.0</text>
  <text style="stroke:none;fill:black;font-family:-apple-system,&quot;SF Pro Display&quot;,&quot;SF Pro Text&quot;,Helvetica,sans-serif;text-anchor:end;" transform="matrix(1 0 0 1 3036 1951)">Requires Xcode 12 or greater</text>
  <text style="stroke:none;fill:black;font-family:-apple-system,&quot;SF Pro Display&quot;,&quot;SF Pro Text&quot;,Helvetica,sans-serif;text-anchor:end;" transform="matrix(1 0 0 1 3036 1969)">Generated from bag.circle</text>
  <text style="stroke:none;fill:black;font-family:-apple-system,&quot;SF Pro Display&quot;,&quot;SF Pro Text&quot;,Helvetica,sans-serif;text-anchor:end;" transform="matrix(1 0 0 1 3036 1987)">Typeset at 100 points</text>
  <text style="stroke:none;fill:black;font-family:-apple-system,&quot;SF Pro Display&quot;,&quot;SF Pro Text&quot;,Helvetica,sans-serif;" transform="matrix(1 0 0 1 263 726)">Small</text>
  <text style="stroke:none;fill:black;font-family:-apple-system,&quot;SF Pro Display&quot;,&quot;SF Pro Text&quot;,Helvetica,sans-serif;" transform="matrix(1 0 0 1 263 1156)">Medium</text>
  <text style="stroke:none;fill:black;font-family:-apple-system,&quot;SF Pro Display&quot;,&quot;SF Pro Text&quot;,Helvetica,sans-serif;" transform="matrix(1 0 0 1 263 1586)">Large</text>
 </g>
 <g id="Guides">
  <g id="H-reference" style="fill:#27AAE1;stroke:none;" transform="matrix(1 0 0 1 339 696)">
   <path d="M 0.976562 0 L 3.66211 0 L 12.9883 -24.4629 L 45.7031 -24.4629 L 55.0781 0 L 57.7148 0 L 30.6152 -70.459 L 28.125 -70.459 Z M 29.2969 -67.1387 L 29.3945 -67.1387 L 44.873 -26.709 L 13.8672 -26.709 Z"/>
  </g>
  <line id="Baseline-S" style="fill:none;stroke:#27AAE1;opacity:1;stroke-width:0.5;" x1="263" x2="3036" y1="696" y2="696"/>
  <line id="Capline-S" style="fill:none;stroke:#27AAE1;opacity:1;stroke-width:0.5;" x1="263" x2="3036" y1="625.541" y2="625.541"/>
  <g id="H-reference" style="fill:#27AAE1;stroke:none;" transform="matrix(1 0 0 1 339 1126)">
   <path d="M 0.976562 0 L 3.66211 0 L 12.9883 -24.4629 L 45.7031 -24.4629 L 55.0781 0 L 57.7148 0 L 30.6152 -70.459 L 28.125 -70.459 Z M 29.2969 -67.1387 L 29.3945 -67.1387 L 44.873 -26.709 L 13.8672 -26.709 Z"/>
  </g>
  <line id="Baseline-M" style="fill:none;stroke:#27AAE1;opacity:1;stroke-width:0.5;" x1="263" x2="3036" y1="1126" y2="1126"/>
  <line id="Capline-M" style="fill:none;stroke:#27AAE1;opacity:1;stroke-width:0.5;" x1="263" x2="3036" y1="1055.54" y2="1055.54"/>
  <g id="H-reference" style="fill:#27AAE1;stroke:none;" transform="matrix(1 0 0 1 339 1556)">
   <path d="M 0.976562 0 L 3.66211 0 L 12.9883 -24.4629 L 45.7031 -24.4629 L 55.0781 0 L 57.7148 0 L 30.6152 -70.459 L 28.125 -70.459 Z M 29.2969 -67.1387 L 29.3945 -67.1387 L 44.873 -26.709 L 13.8672 -26.709 Z"/>
  </g>
  <line id="Baseline-L" style="fill:none;stroke:#27AAE1;opacity:1;stroke-width:0.5;" x1="263" x2="3036" y1="1556" y2="1556"/>
  <line id="Capline-L" style="fill:none;stroke:#27AAE1;opacity:1;stroke-width:0.5;" x1="263" x2="3036" y1="1485.54" y2="1485.54"/>
  <line id="left-margin" style="fill:none;stroke:#00AEEF;stroke-width:0.5;opacity:1.0;" x1="1391.3" x2="1391.3" y1="1030.79" y2="1150.12"/>
  <line id="right-margin" style="fill:none;stroke:#00AEEF;stroke-width:0.5;opacity:1.0;" x1="1508.39" x2="1508.39" y1="1030.79" y2="1150.12"/>
 </g>
 <g id="Symbols">
  <g id="Black-L" transform="matrix(1 0 0 1 2854.05 1556)">
   <path d="M 79.3457 32.8613 C 116.748 32.8613 147.412 2.19727 147.412 -35.2051 C 147.412 -72.6074 116.748 -103.271 79.2969 -103.271 C 41.8945 -103.271 11.2793 -72.6074 11.2793 -35.2051 C 11.2793 2.19727 41.9434 32.8613 79.3457 32.8613 Z M 79.3457 12.4023 C 52.9785 12.4023 31.7383 -8.83789 31.7383 -35.2051 C 31.7383 -61.5723 52.9297 -82.8125 79.2969 -82.8125 C 105.664 -82.8125 126.953 -61.5723 126.953 -35.2051 C 127.002 -8.83789 105.713 12.4023 79.3457 12.4023 Z M 51.1719 -15.7715 C 51.1719 -8.74023 55.1758 -4.73633 62.3047 -4.73633 L 96.7285 -4.73633 C 103.516 -4.73633 107.52 -8.74023 107.52 -15.7715 L 107.52 -45.9473 C 107.52 -52.9297 103.467 -56.9336 96.3867 -56.9336 L 93.8965 -56.9336 C 93.7988 -64.7949 87.3535 -70.8496 79.3457 -70.8496 C 71.3379 -70.8496 64.8926 -64.7949 64.7949 -56.9336 L 62.3047 -56.9336 C 55.1758 -56.9336 51.1719 -52.9297 51.1719 -45.9473 Z M 73.7793 -56.9336 C 73.8281 -60.4004 75.9277 -62.8418 79.3457 -62.8418 C 82.7148 -62.8418 84.8633 -60.4004 84.9121 -56.9336 Z"/>
  </g>
  <g id="Heavy-L" transform="matrix(1 0 0 1 2558.39 1556)">
   <path d="M 78.2715 31.7871 C 115.088 31.7871 145.312 1.5625 145.312 -35.2051 C 145.312 -72.0215 115.039 -102.246 78.2715 -102.246 C 41.4551 -102.246 11.2793 -72.0215 11.2793 -35.2051 C 11.2793 1.5625 41.5039 31.7871 78.2715 31.7871 Z M 78.2715 14.0137 C 51.0254 14.0137 29.0527 -7.95898 29.0527 -35.2051 C 29.0527 -62.5 50.9766 -84.4727 78.2715 -84.4727 C 105.518 -84.4727 127.49 -62.5 127.539 -35.2051 C 127.539 -7.95898 105.566 14.0137 78.2715 14.0137 Z M 49.9023 -15.4785 C 49.9023 -8.54492 53.8086 -4.73633 60.791 -4.73633 L 96.2402 -4.73633 C 102.783 -4.73633 106.641 -8.54492 106.641 -15.4785 L 106.641 -46.6797 C 106.641 -53.5156 102.734 -57.373 95.752 -57.373 L 92.5293 -57.373 C 92.4316 -64.9414 86.1816 -70.9473 78.2715 -70.9473 C 70.3613 -70.9473 64.1113 -64.9414 64.0137 -57.373 L 60.791 -57.373 C 53.8086 -57.373 49.9023 -53.5645 49.9023 -46.6797 Z M 72.168 -57.373 C 72.2168 -61.084 74.5605 -63.6719 78.2715 -63.6719 C 81.9824 -63.6719 84.3262 -61.084 84.4238 -57.373 Z"/>
  </g>
  <g id="Bold-L" transform="matrix(1 0 0 1 2262.88 1556)">
   <path d="M 77.0996 30.5664 C 113.232 30.5664 142.92 0.878906 142.92 -35.2539 C 142.92 -71.3379 113.184 -101.074 77.0508 -101.074 C 40.9668 -101.074 11.2793 -71.3379 11.2793 -35.2539 C 11.2793 0.878906 41.0156 30.5664 77.0996 30.5664 Z M 77.0996 15.8203 C 48.8281 15.8203 26.0742 -6.98242 26.0742 -35.2539 C 26.0742 -63.5254 48.7793 -86.2793 77.0508 -86.2793 C 105.371 -86.2793 128.125 -63.5254 128.174 -35.2539 C 128.174 -6.98242 105.371 15.8203 77.0996 15.8203 Z M 48.5352 -15.1367 C 48.5352 -8.34961 52.2461 -4.6875 59.082 -4.6875 L 95.6543 -4.6875 C 102.002 -4.6875 105.664 -8.34961 105.664 -15.1367 L 105.664 -47.4609 C 105.664 -54.1992 101.953 -57.8613 95.1172 -57.8613 L 91.0156 -57.8613 C 90.918 -65.1367 84.8633 -71.0449 77.0996 -71.0449 C 69.3359 -71.0449 63.2812 -65.1367 63.1836 -57.8613 L 59.082 -57.8613 C 52.2461 -57.8613 48.5352 -54.248 48.5352 -47.4609 Z M 70.3613 -57.8613 C 70.459 -61.8652 72.998 -64.5508 77.0996 -64.5508 C 81.2012 -64.5508 83.7402 -61.8652 83.8379 -57.8613 Z"/>
  </g>
  <g id="Semibold-L" transform="matrix(1 0 0 1 1966.97 1556)">
   <path d="M 76.2695 29.7363 C 111.914 29.7363 141.309 0.390625 141.309 -35.2539 C 141.309 -70.8984 111.865 -100.244 76.2695 -100.244 C 40.625 -100.244 11.2793 -70.8984 11.2793 -35.2539 C 11.2793 0.390625 40.6738 29.7363 76.2695 29.7363 Z M 76.2695 17.041 C 47.3145 17.041 24.0234 -6.25 24.0234 -35.2539 C 24.0234 -64.209 47.2656 -87.5488 76.2695 -87.5488 C 105.225 -87.5488 128.564 -64.209 128.613 -35.2539 C 128.662 -6.25 105.273 17.041 76.2695 17.041 Z M 47.5586 -14.8438 C 47.5586 -8.20312 51.1719 -4.6875 57.959 -4.6875 L 95.2637 -4.6875 C 101.465 -4.6875 105.029 -8.20312 105.029 -14.8438 L 105.029 -48.0469 C 105.029 -54.6387 101.416 -58.2031 94.6289 -58.2031 L 89.9902 -58.2031 C 89.8438 -65.2832 83.9355 -71.1426 76.2695 -71.1426 C 68.6035 -71.1426 62.6953 -65.2832 62.5977 -58.2031 L 57.959 -58.2031 C 51.1719 -58.2031 47.5586 -54.6875 47.5586 -48.0469 Z M 69.1406 -58.2031 C 69.2383 -62.4023 71.9238 -65.1367 76.2695 -65.1367 C 80.6152 -65.1367 83.3496 -62.4023 83.4473 -58.2031 Z"/>
  </g>
  <g id="Medium-L" transform="matrix(1 0 0 1 1670.87 1556)">
   <path d="M 75.6836 29.1504 C 110.938 29.1504 140.088 0 140.088 -35.2539 C 140.088 -70.5078 110.889 -99.6582 75.6348 -99.6582 C 40.3809 -99.6582 11.2793 -70.5078 11.2793 -35.2539 C 11.2793 0 40.3809 29.1504 75.6836 29.1504 Z M 75.6836 18.0176 C 46.1426 18.0176 22.4609 -5.76172 22.4609 -35.2539 C 22.4609 -64.7461 46.1426 -88.5254 75.6348 -88.5254 C 105.127 -88.5254 128.906 -64.7461 128.906 -35.2539 C 128.955 -5.76172 105.176 18.0176 75.6836 18.0176 Z M 46.8262 -14.6973 C 46.8262 -8.10547 50.3418 -4.63867 57.0312 -4.63867 L 94.9707 -4.63867 C 101.025 -4.63867 104.492 -8.10547 104.492 -14.6973 L 104.492 -48.4375 C 104.492 -55.0293 100.977 -58.4473 94.2871 -58.4473 L 89.209 -58.4473 C 89.0625 -65.332 83.252 -71.1914 75.6836 -71.1914 C 68.0664 -71.1914 62.2559 -65.332 62.1582 -58.4473 L 57.0312 -58.4473 C 50.3418 -58.4473 46.8262 -55.0781 46.8262 -48.4375 Z M 68.1641 -58.4473 C 68.3105 -62.8418 71.1426 -65.625 75.6836 -65.625 C 80.2246 -65.625 83.0566 -62.8418 83.1543 -58.4473 Z"/>
  </g>
  <g id="Regular-L" transform="matrix(1 0 0 1 1374.97 1556)">
   <path d="M 74.8535 28.3203 C 109.668 28.3203 138.477 -0.488281 138.477 -35.2539 C 138.477 -70.0684 109.619 -98.877 74.8047 -98.877 C 40.0391 -98.877 11.2793 -70.0684 11.2793 -35.2539 C 11.2793 -0.488281 40.0879 28.3203 74.8535 28.3203 Z M 74.8535 19.2383 C 44.6777 19.2383 20.4102 -5.07812 20.4102 -35.2539 C 20.4102 -65.4785 44.6289 -89.7461 74.8047 -89.7461 C 105.029 -89.7461 129.297 -65.4785 129.346 -35.2539 C 129.395 -5.07812 105.078 19.2383 74.8535 19.2383 Z M 45.8496 -14.4531 C 45.8496 -7.95898 49.2676 -4.63867 55.9082 -4.63867 L 94.6289 -4.63867 C 100.488 -4.63867 103.857 -7.95898 103.857 -14.4531 L 103.857 -48.9746 C 103.857 -55.4688 100.439 -58.7891 93.8477 -58.7891 L 88.1348 -58.7891 C 88.0371 -65.4785 82.373 -71.2891 74.8535 -71.2891 C 67.3828 -71.2891 61.7188 -65.4785 61.5723 -58.7891 L 55.9082 -58.7891 C 49.2676 -58.7891 45.8496 -55.5176 45.8496 -48.9746 Z M 66.9434 -58.7891 C 67.0898 -63.3789 70.0684 -66.2109 74.8535 -66.2109 C 79.6387 -66.2109 82.6172 -63.3789 82.7637 -58.7891 Z"/>
  </g>
  <g id="Light-L" transform="matrix(1 0 0 1 1079.18 1556)">
   <path d="M 73.9258 27.3926 C 108.301 27.3926 136.621 -0.927734 136.621 -35.2539 C 136.621 -69.6289 108.252 -97.9492 73.9258 -97.9492 C 39.5508 -97.9492 11.2793 -69.6289 11.2793 -35.2539 C 11.2793 -0.927734 39.5996 27.3926 73.9258 27.3926 Z M 73.9258 20.5078 C 43.1152 20.5078 18.2129 -4.44336 18.2129 -35.2539 C 18.2129 -66.1133 43.0664 -91.0156 73.9258 -91.0156 C 104.736 -91.0156 129.688 -66.1133 129.736 -35.2539 C 129.736 -4.44336 104.785 20.5078 73.9258 20.5078 Z M 45.1172 -14.4531 C 45.1172 -8.25195 48.3887 -5.0293 54.6875 -5.0293 L 93.6523 -5.0293 C 99.5117 -5.0293 102.783 -8.30078 102.783 -14.4531 L 102.783 -49.707 C 102.783 -55.8594 99.5117 -59.1309 93.1641 -59.1309 L 86.8652 -59.1309 C 86.7676 -65.4785 81.543 -71.2402 73.9258 -71.2402 C 66.3086 -71.2402 61.1328 -65.4785 61.0352 -59.1309 L 54.6875 -59.1309 C 48.3887 -59.1309 45.1172 -55.957 45.1172 -49.707 Z M 65.4297 -59.1309 C 65.5273 -64.0625 68.75 -67.041 73.9258 -67.041 C 79.1504 -67.041 82.3242 -64.0625 82.4219 -59.1309 Z"/>
  </g>
  <g id="Thin-L" transform="matrix(1 0 0 1 783.693 1556)">
   <path d="M 72.7051 26.1719 C 106.494 26.1719 134.18 -1.51367 134.18 -35.2539 C 134.18 -69.043 106.494 -96.7285 72.7051 -96.7285 C 38.9648 -96.7285 11.2793 -69.043 11.2793 -35.2539 C 11.2793 -1.51367 38.9648 26.1719 72.7051 26.1719 Z M 72.7051 22.168 C 41.0156 22.168 15.2832 -3.56445 15.2832 -35.2539 C 15.2832 -66.9922 41.0156 -92.7246 72.7051 -92.7246 C 104.395 -92.7246 130.176 -66.9922 130.176 -35.2539 C 130.176 -3.56445 104.443 22.168 72.7051 22.168 Z M 44.0918 -14.4531 C 44.0918 -8.64258 47.2168 -5.51758 53.125 -5.51758 L 92.4316 -5.51758 C 98.2422 -5.51758 101.318 -8.69141 101.318 -14.4531 L 101.318 -50.6348 C 101.318 -56.3477 98.2422 -59.5215 92.334 -59.5215 L 85.1562 -59.5215 C 85.0586 -65.4297 80.4688 -71.1426 72.7051 -71.1426 C 64.9414 -71.1426 60.3516 -65.4297 60.3027 -59.5215 L 53.125 -59.5215 C 47.2168 -59.5215 44.0918 -56.4941 44.0918 -50.6348 Z M 63.4277 -59.5215 C 63.5254 -64.9414 66.9922 -68.1641 72.7051 -68.1641 C 78.4668 -68.1641 81.9336 -64.9414 81.9824 -59.5215 Z"/>
  </g>
  <g id="Ultralight-L" transform="matrix(1 0 0 1 487.616 1556)">
   <path d="M 72.1191 25.5371 C 105.566 25.5371 132.91 -1.80664 132.91 -35.2539 C 132.91 -68.75 105.566 -96.0938 72.1191 -96.0938 C 38.623 -96.0938 11.2793 -68.75 11.2793 -35.2539 C 11.2793 -1.80664 38.623 25.5371 72.1191 25.5371 Z M 72.1191 23.0469 C 39.9414 23.0469 13.7695 -3.125 13.7695 -35.2539 C 13.7695 -67.4316 39.9414 -93.6035 72.1191 -93.6035 C 104.248 -93.6035 130.42 -67.4316 130.42 -35.2539 C 130.42 -3.125 104.248 23.0469 72.1191 23.0469 Z M 43.6035 -14.4531 C 43.6035 -8.83789 46.6309 -5.81055 52.2949 -5.81055 L 91.7969 -5.81055 C 97.5586 -5.81055 100.586 -8.93555 100.586 -14.4531 L 100.586 -51.123 C 100.586 -56.6406 97.5586 -59.7168 91.8945 -59.7168 L 84.2773 -59.7168 C 84.1797 -65.4297 79.9316 -71.1426 72.0703 -71.1426 C 64.2578 -71.1426 59.9609 -65.4297 59.9121 -59.7168 L 52.2949 -59.7168 C 46.6309 -59.7168 43.6035 -56.7871 43.6035 -51.123 Z M 62.4023 -59.7168 C 62.5 -65.4297 66.0645 -68.75 72.0703 -68.75 C 78.0762 -68.75 81.6895 -65.4297 81.7871 -59.7168 Z"/>
  </g>
  <g id="Black-M" transform="matrix(1 0 0 1 2870.97 1126)">
   <path d="M 62.4023 18.457 C 91.9922 18.457 116.113 -5.61523 116.113 -35.2051 C 116.113 -64.7949 91.9922 -88.8672 62.4023 -88.8672 C 32.8125 -88.8672 8.74023 -64.7949 8.74023 -35.2051 C 8.74023 -5.61523 32.8125 18.457 62.4023 18.457 Z M 62.4023 0.195312 C 42.8711 0.195312 27.002 -15.625 27.002 -35.2051 C 27.002 -54.7363 42.8711 -70.6055 62.4023 -70.6055 C 81.9824 -70.6055 97.8027 -54.7363 97.8027 -35.2051 C 97.8027 -15.625 81.9824 0.195312 62.4023 0.195312 Z M 40.9668 -20.6055 C 40.9668 -15.0879 44.1895 -11.8652 49.6582 -11.8652 L 75.1465 -11.8652 C 80.6152 -11.8652 83.8867 -15.0879 83.8867 -20.6055 L 83.8867 -42.9199 C 83.8867 -48.3398 80.6152 -51.6113 75.1465 -51.6113 L 73.9258 -51.6113 C 73.8281 -57.9102 68.8477 -62.6465 62.4023 -62.6465 C 55.957 -62.6465 50.9766 -57.9102 50.9277 -51.6113 L 49.6582 -51.6113 C 44.1895 -51.6113 40.9668 -48.3398 40.9668 -42.9199 Z M 58.5449 -51.6113 C 58.5449 -54.1504 60.0098 -56.0059 62.4023 -56.0059 C 64.8438 -56.0059 66.3086 -54.1504 66.3086 -51.6113 Z"/>
  </g>
  <g id="Heavy-M" transform="matrix(1 0 0 1 2575.19 1126)">
   <path d="M 61.5234 17.5293 C 90.5273 17.5293 114.258 -6.20117 114.258 -35.2051 C 114.258 -64.2578 90.5273 -87.9883 61.4746 -87.9883 C 32.4707 -87.9883 8.74023 -64.2578 8.74023 -35.2051 C 8.74023 -6.20117 32.4707 17.5293 61.5234 17.5293 Z M 61.5234 1.61133 C 41.1133 1.61133 24.6582 -14.8438 24.6582 -35.2051 C 24.6582 -55.6152 41.1133 -72.0703 61.4746 -72.0703 C 81.8848 -72.0703 98.3398 -55.6152 98.3398 -35.2051 C 98.3398 -14.8438 81.8848 1.61133 61.5234 1.61133 Z M 39.7949 -20.2637 C 39.7949 -14.8438 42.9199 -11.7188 48.3398 -11.7188 L 74.8535 -11.7188 C 80.127 -11.7188 83.252 -14.8438 83.252 -20.2637 L 83.252 -43.5547 C 83.252 -48.9258 80.127 -52.002 74.6582 -52.002 L 72.7539 -52.002 C 72.7051 -58.1055 67.7734 -62.793 61.5234 -62.793 C 55.2246 -62.793 50.3418 -58.1055 50.2441 -52.002 L 48.3398 -52.002 C 42.9199 -52.002 39.7949 -48.9258 39.7949 -43.5547 Z M 57.1777 -52.002 C 57.1777 -54.7363 58.8379 -56.6895 61.5234 -56.6895 C 64.1602 -56.6895 65.8203 -54.7363 65.8691 -52.002 Z"/>
  </g>
  <g id="Bold-M" transform="matrix(1 0 0 1 2279.5 1126)">
   <path d="M 60.498 16.5039 C 88.8672 16.5039 112.207 -6.83594 112.207 -35.2051 C 112.207 -63.623 88.8672 -86.9629 60.4492 -86.9629 C 32.0312 -86.9629 8.74023 -63.623 8.74023 -35.2051 C 8.74023 -6.83594 32.0801 16.5039 60.498 16.5039 Z M 60.498 3.22266 C 39.1602 3.22266 22.0703 -13.916 22.0703 -35.2051 C 22.0703 -56.543 39.1602 -73.6816 60.4492 -73.6816 C 81.7383 -73.6816 98.9258 -56.543 98.9258 -35.2051 C 98.9746 -13.916 81.7871 3.22266 60.498 3.22266 Z M 38.4766 -19.873 C 38.4766 -14.502 41.4551 -11.5723 46.8262 -11.5723 L 74.5117 -11.5723 C 79.541 -11.5723 82.5195 -14.502 82.5195 -19.873 L 82.5195 -44.2383 C 82.5195 -49.5117 79.541 -52.4902 74.1211 -52.4902 L 71.4844 -52.4902 C 71.3867 -58.3008 66.6016 -62.9395 60.498 -62.9395 C 54.3945 -62.9395 49.5605 -58.3008 49.4629 -52.4902 L 46.8262 -52.4902 C 41.4551 -52.4902 38.4766 -49.5605 38.4766 -44.2383 Z M 55.6641 -52.4902 C 55.7129 -55.4199 57.5195 -57.373 60.498 -57.373 C 63.4277 -57.373 65.2832 -55.4199 65.332 -52.4902 Z"/>
  </g>
  <g id="Semibold-M" transform="matrix(1 0 0 1 1983.5 1126)">
   <path d="M 59.7656 15.8203 C 87.7441 15.8203 110.791 -7.27539 110.791 -35.2539 C 110.791 -63.2324 87.6953 -86.2793 59.7656 -86.2793 C 31.7871 -86.2793 8.74023 -63.2324 8.74023 -35.2539 C 8.74023 -7.27539 31.7871 15.8203 59.7656 15.8203 Z M 59.7656 4.3457 C 37.8418 4.3457 20.2637 -13.3301 20.2637 -35.2539 C 20.2637 -57.1777 37.793 -74.8047 59.7656 -74.8047 C 81.6895 -74.8047 99.3164 -57.1777 99.3652 -35.2539 C 99.3652 -13.3301 81.6895 4.3457 59.7656 4.3457 Z M 37.5488 -19.5801 C 37.5488 -14.3066 40.4297 -11.4746 45.8008 -11.4746 L 74.2676 -11.4746 C 79.1504 -11.4746 81.9824 -14.3066 81.9824 -19.5801 L 81.9824 -44.6777 C 81.9824 -49.9512 79.1016 -52.7832 73.7305 -52.7832 L 70.6055 -52.7832 C 70.5078 -58.4473 65.7715 -63.0371 59.7656 -63.0371 C 53.8086 -63.0371 49.0723 -58.4473 48.9746 -52.7832 L 45.8008 -52.7832 C 40.4297 -52.7832 37.5488 -49.9512 37.5488 -44.6777 Z M 54.5898 -52.7832 C 54.6875 -55.8594 56.6406 -57.9102 59.7656 -57.9102 C 62.9395 -57.9102 64.8926 -55.8594 64.9902 -52.7832 Z"/>
  </g>
  <g id="Medium-M" transform="matrix(1 0 0 1 1687.3 1126)">
   <path d="M 59.2285 15.2344 C 86.9141 15.2344 109.766 -7.61719 109.766 -35.2539 C 109.766 -62.8906 86.8652 -85.7422 59.1797 -85.7422 C 31.543 -85.7422 8.74023 -62.8906 8.74023 -35.2539 C 8.74023 -7.61719 31.5918 15.2344 59.2285 15.2344 Z M 59.2285 5.17578 C 36.8164 5.17578 18.8965 -12.8418 18.8965 -35.2539 C 18.8965 -57.666 36.8164 -75.6348 59.1797 -75.6348 C 81.5918 -75.6348 99.6094 -57.666 99.6582 -35.2539 C 99.707 -12.8418 81.6406 5.17578 59.2285 5.17578 Z M 36.8652 -19.3848 C 36.8652 -14.1113 39.6973 -11.377 45.0195 -11.377 L 74.0723 -11.377 C 78.8574 -11.377 81.5918 -14.1602 81.5918 -19.3848 L 81.5918 -45.0195 C 81.5918 -50.293 78.8086 -53.0273 73.4375 -53.0273 L 69.9219 -53.0273 C 69.8242 -58.5449 65.1367 -63.0859 59.2285 -63.0859 C 53.3691 -63.0859 48.6816 -58.5449 48.5352 -53.0273 L 45.0195 -53.0273 C 39.6973 -53.0273 36.8652 -50.293 36.8652 -45.0195 Z M 53.8086 -53.0273 C 53.9062 -56.2012 55.957 -58.252 59.2285 -58.252 C 62.5488 -58.252 64.5996 -56.2012 64.6973 -53.0273 Z"/>
  </g>
  <g id="Regular-M" transform="matrix(1 0 0 1 1391.3 1126)">
   <path d="M 58.5449 14.5508 C 85.791 14.5508 108.35 -8.05664 108.35 -35.2539 C 108.35 -62.5 85.7422 -85.0586 58.4961 -85.0586 C 31.2988 -85.0586 8.74023 -62.5 8.74023 -35.2539 C 8.74023 -8.05664 31.3477 14.5508 58.5449 14.5508 Z M 58.5449 6.25 C 35.498 6.25 17.0898 -12.207 17.0898 -35.2539 C 17.0898 -58.3008 35.4492 -76.7578 58.4961 -76.7578 C 81.543 -76.7578 100 -58.3008 100.049 -35.2539 C 100.098 -12.207 81.5918 6.25 58.5449 6.25 Z M 35.9863 -19.1406 C 35.9863 -13.916 38.6719 -11.2793 43.9941 -11.2793 L 73.877 -11.2793 C 78.4668 -11.2793 81.1035 -13.916 81.1035 -19.1406 L 81.1035 -45.5078 C 81.1035 -50.6836 78.418 -53.3203 73.0957 -53.3203 L 69.043 -53.3203 C 68.9453 -58.6914 64.3066 -63.1836 58.5449 -63.1836 C 52.7832 -63.1836 48.1445 -58.6914 48.0469 -53.3203 L 43.9941 -53.3203 C 38.6719 -53.3203 35.9863 -50.7324 35.9863 -45.5078 Z M 52.7344 -53.3203 C 52.8809 -56.6406 55.0781 -58.7402 58.5449 -58.7402 C 62.0117 -58.7402 64.209 -56.6406 64.3555 -53.3203 Z"/>
  </g>
  <g id="Light-M" transform="matrix(1 0 0 1 1095.42 1126)">
   <path d="M 57.7148 13.7207 C 84.5215 13.7207 106.689 -8.44727 106.689 -35.2539 C 106.689 -62.1094 84.5215 -84.2285 57.666 -84.2285 C 30.8594 -84.2285 8.74023 -62.1094 8.74023 -35.2539 C 8.74023 -8.44727 30.9082 13.7207 57.7148 13.7207 Z M 57.7148 7.37305 C 34.082 7.37305 15.0879 -11.6699 15.0879 -35.2539 C 15.0879 -58.8867 34.082 -77.9297 57.666 -77.9297 C 81.2988 -77.9297 100.342 -58.8867 100.391 -35.2539 C 100.391 -11.6699 81.3477 7.37305 57.7148 7.37305 Z M 35.3027 -19.1406 C 35.3027 -14.1602 37.8906 -11.6699 42.9199 -11.6699 L 73.0469 -11.6699 C 77.5879 -11.6699 80.127 -14.209 80.127 -19.1406 L 80.127 -46.1426 C 80.127 -51.0254 77.5391 -53.6133 72.5098 -53.6133 L 67.9199 -53.6133 C 67.8223 -58.6426 63.5742 -63.1348 57.7148 -63.1348 C 51.8555 -63.1348 47.6562 -58.6426 47.5586 -53.6133 L 42.9199 -53.6133 C 37.8906 -53.6133 35.3027 -51.0742 35.3027 -46.1426 Z M 51.416 -53.6133 C 51.5137 -57.2754 53.8574 -59.5215 57.7148 -59.5215 C 61.5723 -59.5215 63.9648 -57.2754 64.0625 -53.6133 Z"/>
  </g>
  <g id="Thin-M" transform="matrix(1 0 0 1 799.806 1126)">
   <path d="M 56.6406 12.5977 C 82.9102 12.5977 104.492 -8.98438 104.492 -35.2539 C 104.492 -61.5723 82.9102 -83.1543 56.5918 -83.1543 C 30.3223 -83.1543 8.74023 -61.5723 8.74023 -35.2539 C 8.74023 -8.98438 30.3223 12.5977 56.6406 12.5977 Z M 56.6406 8.88672 C 32.2266 8.88672 12.4512 -10.8887 12.4512 -35.2539 C 12.4512 -59.6191 32.2266 -79.4434 56.5918 -79.4434 C 81.0059 -79.4434 100.781 -59.6191 100.781 -35.2539 C 100.781 -10.8887 81.0059 8.88672 56.6406 8.88672 Z M 34.4238 -19.1406 C 34.4238 -14.5508 36.8652 -12.1094 41.5039 -12.1094 L 71.9238 -12.1094 C 76.416 -12.1094 78.8574 -14.5996 78.8574 -19.1406 L 78.8574 -46.9727 C 78.8574 -51.5137 76.416 -53.9551 71.7285 -53.9551 L 66.3574 -53.9551 C 66.3086 -58.6426 62.5977 -63.0859 56.6406 -63.0859 C 50.6348 -63.0859 46.9727 -58.6426 46.875 -53.9551 L 41.5039 -53.9551 C 36.8652 -53.9551 34.4238 -51.6113 34.4238 -46.9727 Z M 49.6094 -53.9551 C 49.6582 -58.0566 52.2949 -60.5469 56.6406 -60.5469 C 60.9375 -60.5469 63.5742 -58.0566 63.6719 -53.9551 Z"/>
  </g>
  <g id="Ultralight-M" transform="matrix(1 0 0 1 503.656 1126)">
   <path d="M 56.0547 12.0605 C 82.0801 12.0605 103.369 -9.22852 103.369 -35.2539 C 103.369 -61.2793 82.0801 -82.5684 56.0547 -82.5684 C 30.0293 -82.5684 8.74023 -61.2793 8.74023 -35.2539 C 8.74023 -9.22852 30.0293 12.0605 56.0547 12.0605 Z M 56.0547 9.66797 C 31.2988 9.66797 11.1328 -10.498 11.1328 -35.2539 C 11.1328 -60.0586 31.2988 -80.1758 56.0547 -80.1758 C 80.8594 -80.1758 100.977 -60.0586 100.977 -35.2539 C 100.977 -10.498 80.8594 9.66797 56.0547 9.66797 Z M 33.9355 -19.1406 C 33.9355 -14.6973 36.3281 -12.3535 40.7715 -12.3535 L 71.3379 -12.3535 C 75.8301 -12.3535 78.1738 -14.7949 78.1738 -19.1406 L 78.1738 -47.3633 C 78.1738 -51.7578 75.8301 -54.1504 71.3379 -54.1504 L 65.5762 -54.1504 C 65.5273 -58.6426 62.1094 -63.0371 56.0547 -63.0371 C 50 -63.0371 46.6309 -58.6426 46.5332 -54.1504 L 40.7715 -54.1504 C 36.3281 -54.1504 33.9355 -51.8555 33.9355 -47.3633 Z M 48.6816 -54.1504 C 48.7305 -58.4961 51.5137 -61.0352 56.0547 -61.0352 C 60.6445 -61.0352 63.3789 -58.4961 63.4277 -54.1504 Z"/>
  </g>
  <g id="Black-S" transform="matrix(1 0 0 1 2884.57 696)">
   <path d="M 48.8281 6.78711 C 71.9727 6.78711 90.8203 -12.0605 90.8203 -35.2051 C 90.8203 -58.3496 71.9727 -77.1973 48.8281 -77.1973 C 25.6836 -77.1973 6.83594 -58.3496 6.83594 -35.2051 C 6.83594 -12.0605 25.6836 6.78711 48.8281 6.78711 Z M 48.8281 -7.37305 C 33.4473 -7.37305 20.9961 -19.8242 20.9961 -35.2051 C 20.9961 -50.5859 33.4473 -63.0371 48.8281 -63.0371 C 64.209 -63.0371 76.6602 -50.5859 76.6602 -35.2051 C 76.6602 -19.8242 64.209 -7.37305 48.8281 -7.37305 Z M 31.9824 -23.7305 C 31.9824 -19.4336 34.5215 -16.8945 38.8184 -16.8945 L 58.8379 -16.8945 C 63.1348 -16.8945 65.6738 -19.4336 65.6738 -23.7305 L 65.6738 -41.3086 C 65.6738 -45.5566 63.1348 -48.0957 58.8379 -48.0957 L 57.8125 -48.0957 C 57.7637 -53.0273 53.8574 -56.7383 48.8281 -56.7383 C 43.7988 -56.7383 39.8926 -53.0273 39.8438 -48.0957 L 38.8184 -48.0957 C 34.5215 -48.0957 31.9824 -45.5566 31.9824 -41.3086 Z M 45.752 -48.0957 C 45.752 -50.0977 46.9238 -51.5625 48.8281 -51.5625 C 50.7324 -51.5625 51.9043 -50.0977 51.9043 -48.0957 Z"/>
  </g>
  <g id="Heavy-S" transform="matrix(1 0 0 1 2588.47 696)">
   <path d="M 48.2422 6.15234 C 70.9961 6.15234 89.5996 -12.4512 89.5996 -35.2051 C 89.5996 -57.959 70.9961 -76.6113 48.1934 -76.6113 C 25.4395 -76.6113 6.83594 -57.959 6.83594 -35.2051 C 6.83594 -12.4512 25.4395 6.15234 48.2422 6.15234 Z M 48.2422 -6.39648 C 32.2754 -6.39648 19.4336 -19.2871 19.4336 -35.2051 C 19.4336 -51.1719 32.2754 -64.0137 48.1934 -64.0137 C 64.1602 -64.0137 77.002 -51.1719 77.0508 -35.2051 C 77.0508 -19.2871 64.1602 -6.39648 48.2422 -6.39648 Z M 31.1523 -23.4863 C 31.1523 -19.1895 33.5938 -16.748 37.8906 -16.748 L 58.6914 -16.748 C 62.8418 -16.748 65.2832 -19.1895 65.2832 -23.4863 L 65.2832 -41.6992 C 65.2832 -45.9473 62.8418 -48.3887 58.5449 -48.3887 L 57.0801 -48.3887 C 57.0312 -53.1738 53.125 -56.8359 48.2422 -56.8359 C 43.3105 -56.8359 39.4531 -53.1738 39.3555 -48.3887 L 37.8906 -48.3887 C 33.5938 -48.3887 31.1523 -45.9473 31.1523 -41.6992 Z M 44.873 -48.3887 C 44.873 -50.4883 46.1426 -51.9531 48.2422 -51.9531 C 50.293 -51.9531 51.5625 -50.4883 51.5625 -48.3887 Z"/>
  </g>
  <g id="Bold-S" transform="matrix(1 0 0 1 2292.44 696)">
   <path d="M 47.5586 5.46875 C 69.873 5.46875 88.2324 -12.8906 88.2324 -35.2539 C 88.2324 -57.5684 69.873 -75.9277 47.5098 -75.9277 C 25.1953 -75.9277 6.83594 -57.5684 6.83594 -35.2539 C 6.83594 -12.8906 25.1953 5.46875 47.5586 5.46875 Z M 47.5586 -5.32227 C 30.957 -5.32227 17.6758 -18.6523 17.6758 -35.2539 C 17.6758 -51.8066 30.957 -65.1367 47.5098 -65.1367 C 64.1113 -65.1367 77.4414 -51.8066 77.4414 -35.2539 C 77.4414 -18.6523 64.1113 -5.32227 47.5586 -5.32227 Z M 30.2246 -23.1934 C 30.2246 -18.8965 32.6172 -16.6016 36.9141 -16.6016 L 58.5449 -16.6016 C 62.5 -16.6016 64.8438 -18.8965 64.8438 -23.1934 L 64.8438 -42.1387 C 64.8438 -46.3867 62.5 -48.6816 58.2031 -48.6816 L 56.25 -48.6816 C 56.1523 -53.3203 52.2949 -56.9336 47.5586 -56.9336 C 42.8223 -56.9336 38.916 -53.3203 38.8672 -48.6816 L 36.9141 -48.6816 C 32.6172 -48.6816 30.2246 -46.3867 30.2246 -42.1387 Z M 43.8477 -48.6816 C 43.8965 -50.8789 45.3125 -52.4414 47.5586 -52.4414 C 49.7559 -52.4414 51.1719 -50.8789 51.2207 -48.6816 Z"/>
  </g>
  <g id="Semibold-S" transform="matrix(1 0 0 1 1996.2 696)">
   <path d="M 47.0703 4.98047 C 69.0918 4.98047 87.3047 -13.1836 87.3047 -35.2539 C 87.3047 -57.2754 69.0918 -75.4883 47.0215 -75.4883 C 25 -75.4883 6.83594 -57.2754 6.83594 -35.2539 C 6.83594 -13.1836 25.0488 4.98047 47.0703 4.98047 Z M 47.0703 -4.58984 C 30.0781 -4.58984 16.4551 -18.2129 16.4551 -35.2539 C 16.4551 -52.2461 30.0293 -65.8691 47.0215 -65.8691 C 64.0625 -65.8691 77.6855 -52.2461 77.7344 -35.2539 C 77.7344 -18.2129 64.0625 -4.58984 47.0703 -4.58984 Z M 29.5898 -22.9492 C 29.5898 -18.75 31.8848 -16.5039 36.2305 -16.5039 L 58.4473 -16.5039 C 62.2559 -16.5039 64.5508 -18.75 64.5508 -22.9492 L 64.5508 -42.4316 C 64.5508 -46.6797 62.2559 -48.877 57.959 -48.877 L 55.6641 -48.877 C 55.5664 -53.418 51.709 -57.0312 47.0703 -57.0312 C 42.4316 -57.0312 38.5742 -53.418 38.4766 -48.877 L 36.2305 -48.877 C 31.8848 -48.877 29.5898 -46.6797 29.5898 -42.4316 Z M 43.1641 -48.877 C 43.2617 -51.1719 44.7266 -52.7344 47.0703 -52.7344 C 49.4141 -52.7344 50.9277 -51.1719 50.9766 -48.877 Z"/>
  </g>
  <g id="Medium-S" transform="matrix(1 0 0 1 1699.83 696)">
   <path d="M 46.7285 4.63867 C 68.5547 4.63867 86.6211 -13.4277 86.6211 -35.2539 C 86.6211 -57.0801 68.5059 -75.1465 46.6797 -75.1465 C 24.8535 -75.1465 6.83594 -57.0801 6.83594 -35.2539 C 6.83594 -13.4277 24.9023 4.63867 46.7285 4.63867 Z M 46.7285 -4.00391 C 29.3945 -4.00391 15.5273 -17.9199 15.5273 -35.2539 C 15.5273 -52.5879 29.3457 -66.4551 46.6797 -66.4551 C 64.0137 -66.4551 77.8809 -52.5879 77.9297 -35.2539 C 77.9785 -17.9199 64.0625 -4.00391 46.7285 -4.00391 Z M 29.1504 -22.8027 C 29.1504 -18.6035 31.3965 -16.4062 35.6934 -16.4062 L 58.3496 -16.4062 C 62.1094 -16.4062 64.3066 -18.6035 64.3066 -22.8027 L 64.3066 -42.6758 C 64.3066 -46.875 62.0605 -49.0723 57.7637 -49.0723 L 55.2246 -49.0723 C 55.127 -53.5156 51.2695 -57.0801 46.7285 -57.0801 C 42.1387 -57.0801 38.3301 -53.5156 38.2324 -49.0723 L 35.6934 -49.0723 C 31.3965 -49.0723 29.1504 -46.875 29.1504 -42.6758 Z M 42.6758 -49.0723 C 42.7246 -51.416 44.2871 -52.9785 46.7285 -52.9785 C 49.1699 -52.9785 50.6836 -51.416 50.7812 -49.0723 Z"/>
  </g>
  <g id="Regular-S" transform="matrix(1 0 0 1 1403.58 696)">
   <path d="M 46.2402 4.15039 C 67.7734 4.15039 85.6934 -13.7207 85.6934 -35.2539 C 85.6934 -56.7871 67.7246 -74.6582 46.1914 -74.6582 C 24.707 -74.6582 6.83594 -56.7871 6.83594 -35.2539 C 6.83594 -13.7207 24.7559 4.15039 46.2402 4.15039 Z M 46.2402 -3.27148 C 28.5156 -3.27148 14.3555 -17.4805 14.3555 -35.2539 C 14.3555 -53.0273 28.4668 -67.2363 46.1914 -67.2363 C 63.9648 -67.2363 78.1738 -53.0273 78.2227 -35.2539 C 78.2715 -17.4805 64.0137 -3.27148 46.2402 -3.27148 Z M 28.5156 -22.6074 C 28.5156 -18.4082 30.6641 -16.3086 35.0098 -16.3086 L 58.252 -16.3086 C 61.8652 -16.3086 64.0137 -18.4082 64.0137 -22.6074 L 64.0137 -42.9688 C 64.0137 -47.168 61.8164 -49.2676 57.5195 -49.2676 L 54.6387 -49.2676 C 54.541 -53.6133 50.7324 -57.1777 46.2402 -57.1777 C 41.7969 -57.1777 37.9395 -53.6133 37.8418 -49.2676 L 35.0098 -49.2676 C 30.6641 -49.2676 28.5156 -47.168 28.5156 -42.9688 Z M 41.9922 -49.2676 C 42.0898 -51.709 43.7012 -53.2715 46.2402 -53.2715 C 48.8281 -53.2715 50.4395 -51.709 50.5371 -49.2676 Z"/>
  </g>
  <g id="Light-S" transform="matrix(1 0 0 1 1107.6 696)">
   <path d="M 45.5078 3.41797 C 66.6992 3.41797 84.2285 -14.0625 84.2285 -35.2539 C 84.2285 -56.4453 66.6504 -73.9258 45.5078 -73.9258 C 24.3164 -73.9258 6.83594 -56.4453 6.83594 -35.2539 C 6.83594 -14.0625 24.3652 3.41797 45.5078 3.41797 Z M 45.5078 -2.29492 C 27.2461 -2.29492 12.5977 -16.9922 12.5977 -35.2539 C 12.5977 -53.5156 27.1973 -68.2129 45.5078 -68.2129 C 63.7695 -68.2129 78.4668 -53.5156 78.5156 -35.2539 C 78.5156 -16.9922 63.8184 -2.29492 45.5078 -2.29492 Z M 27.9297 -22.6074 C 27.9297 -18.6523 29.9805 -16.6016 34.0332 -16.6016 L 57.5195 -16.6016 C 61.084 -16.6016 63.1348 -18.6523 63.1348 -22.6074 L 63.1348 -43.5059 C 63.1348 -47.4609 61.084 -49.5117 57.0312 -49.5117 L 53.6133 -49.5117 C 53.5645 -53.6133 50.0488 -57.1289 45.5078 -57.1289 C 40.9668 -57.1289 37.5 -53.6133 37.4023 -49.5117 L 34.0332 -49.5117 C 29.9805 -49.5117 27.9297 -47.5098 27.9297 -43.5059 Z M 40.7715 -49.5117 C 40.8691 -52.2461 42.6758 -53.9551 45.5078 -53.9551 C 48.3887 -53.9551 50.1953 -52.2461 50.293 -49.5117 Z"/>
  </g>
  <g id="Thin-S" transform="matrix(1 0 0 1 811.867 696)">
   <path d="M 44.5801 2.49023 C 65.2832 2.49023 82.2754 -14.5508 82.2754 -35.2539 C 82.2754 -55.957 65.2344 -72.998 44.5312 -72.998 C 23.8281 -72.998 6.83594 -55.957 6.83594 -35.2539 C 6.83594 -14.5508 23.877 2.49023 44.5801 2.49023 Z M 44.5801 -0.927734 C 25.5859 -0.927734 10.2539 -16.3086 10.2539 -35.2539 C 10.2539 -54.1992 25.5859 -69.5801 44.5312 -69.5801 C 63.5254 -69.5801 78.8574 -54.1992 78.8574 -35.2539 C 78.8574 -16.3086 63.5254 -0.927734 44.5801 -0.927734 Z M 27.0996 -22.6074 C 27.0996 -18.9453 29.0527 -17.041 32.7637 -17.041 L 56.543 -17.041 C 60.0586 -17.041 62.0117 -18.9941 62.0117 -22.6074 L 62.0117 -44.2383 C 62.0117 -47.9004 60.0586 -49.8535 56.3477 -49.8535 L 52.2949 -49.8535 C 52.1973 -53.5645 49.2188 -57.0801 44.5801 -57.0801 C 39.8926 -57.0801 36.9141 -53.5645 36.8652 -49.8535 L 32.7637 -49.8535 C 29.0527 -49.8535 27.0996 -47.9492 27.0996 -44.2383 Z M 39.209 -49.8535 C 39.2578 -52.9785 41.2598 -54.834 44.5801 -54.834 C 47.8516 -54.834 49.8535 -52.9785 49.9512 -49.8535 Z"/>
  </g>
  <g id="Ultralight-S" transform="matrix(1 0 0 1 515.644 696)">
   <path d="M 44.043 1.95312 C 64.502 1.95312 81.2988 -14.7949 81.2988 -35.2539 C 81.2988 -55.7129 64.502 -72.4609 44.043 -72.4609 C 23.584 -72.4609 6.83594 -55.7129 6.83594 -35.2539 C 6.83594 -14.7949 23.584 1.95312 44.043 1.95312 Z M 44.043 -0.244141 C 24.7559 -0.244141 9.08203 -15.9668 9.08203 -35.2539 C 9.08203 -54.541 24.7559 -70.2637 44.043 -70.2637 C 63.3789 -70.2637 79.0527 -54.541 79.0527 -35.2539 C 79.0527 -15.9668 63.3789 -0.244141 44.043 -0.244141 Z M 26.709 -22.6074 C 26.709 -19.0918 28.5645 -17.2363 32.1289 -17.2363 L 56.0059 -17.2363 C 59.5215 -17.2363 61.4258 -19.1406 61.4258 -22.6074 L 61.4258 -44.6289 C 61.4258 -48.0957 59.5215 -50 56.0059 -50 L 51.5625 -50 C 51.5137 -53.5645 48.7793 -57.0312 44.043 -57.0312 C 39.3555 -57.0312 36.5723 -53.5645 36.5234 -50 L 32.1289 -50 C 28.5645 -50 26.709 -48.1934 26.709 -44.6289 Z M 38.3789 -50 C 38.4277 -53.3203 40.5273 -55.3223 44.043 -55.3223 C 47.5586 -55.3223 49.707 -53.3203 49.7559 -50 Z"/>
  </g>
 </g>
</svg>
