<?xml version="1.0" encoding="UTF-8"?>
<!--Generator: Apple Native CoreSVG 148-->
<!DOCTYPE svg
PUBLIC "-//W3C//DTD SVG 1.1//EN"
       "http://www.w3.org/Graphics/SVG/1.1/DTD/svg11.dtd">
<svg version="1.1" xmlns="http://www.w3.org/2000/svg" xmlns:xlink="http://www.w3.org/1999/xlink" width="3300" height="2200">
 <!--glyph: "uni1005D6.medium", point size: 100.000000, font version: "Version 16.0d11e1", template writer version: "8"-->
 <g id="Notes">
  <rect height="2200" id="artboard" style="fill:white;opacity:1" width="3300" x="0" y="0"/>
  <line id="" style="fill:none;stroke:black;opacity:1;stroke-width:0.5;" x1="263" x2="3036" y1="292" y2="292"/>
  <text style="stroke:none;fill:black;font-family:-apple-system,&quot;SF Pro Display&quot;,&quot;SF Pro Text&quot;,Helvetica,sans-serif;font-weight:bold;" transform="matrix(1 0 0 1 263 322)">Weight/Scale Variations</text>
  <text style="stroke:none;fill:black;font-family:-apple-system,&quot;SF Pro Display&quot;,&quot;SF Pro Text&quot;,Helvetica,sans-serif;text-anchor:middle;" transform="matrix(1 0 0 1 559.711 322)">Ultralight</text>
  <text style="stroke:none;fill:black;font-family:-apple-system,&quot;SF Pro Display&quot;,&quot;SF Pro Text&quot;,Helvetica,sans-serif;text-anchor:middle;" transform="matrix(1 0 0 1 856.422 322)">Thin</text>
  <text style="stroke:none;fill:black;font-family:-apple-system,&quot;SF Pro Display&quot;,&quot;SF Pro Text&quot;,Helvetica,sans-serif;text-anchor:middle;" transform="matrix(1 0 0 1 1153.13 322)">Light</text>
  <text style="stroke:none;fill:black;font-family:-apple-system,&quot;SF Pro Display&quot;,&quot;SF Pro Text&quot;,Helvetica,sans-serif;text-anchor:middle;" transform="matrix(1 0 0 1 1449.84 322)">Regular</text>
  <text style="stroke:none;fill:black;font-family:-apple-system,&quot;SF Pro Display&quot;,&quot;SF Pro Text&quot;,Helvetica,sans-serif;text-anchor:middle;" transform="matrix(1 0 0 1 1746.56 322)">Medium</text>
  <text style="stroke:none;fill:black;font-family:-apple-system,&quot;SF Pro Display&quot;,&quot;SF Pro Text&quot;,Helvetica,sans-serif;text-anchor:middle;" transform="matrix(1 0 0 1 2043.27 322)">Semibold</text>
  <text style="stroke:none;fill:black;font-family:-apple-system,&quot;SF Pro Display&quot;,&quot;SF Pro Text&quot;,Helvetica,sans-serif;text-anchor:middle;" transform="matrix(1 0 0 1 2339.98 322)">Bold</text>
  <text style="stroke:none;fill:black;font-family:-apple-system,&quot;SF Pro Display&quot;,&quot;SF Pro Text&quot;,Helvetica,sans-serif;text-anchor:middle;" transform="matrix(1 0 0 1 2636.69 322)">Heavy</text>
  <text style="stroke:none;fill:black;font-family:-apple-system,&quot;SF Pro Display&quot;,&quot;SF Pro Text&quot;,Helvetica,sans-serif;text-anchor:middle;" transform="matrix(1 0 0 1 2933.4 322)">Black</text>
  <line id="" style="fill:none;stroke:black;opacity:1;stroke-width:0.5;" x1="263" x2="3036" y1="1903" y2="1903"/>
  <g id="" transform="matrix(1 0 0 1 263 1933)">
   <path d="M 9.24805 0.830078 C 13.5547 0.830078 17.1387 -2.74414 17.1387 -7.05078 C 17.1387 -11.3574 13.5449 -14.9316 9.23828 -14.9316 C 4.94141 -14.9316 1.36719 -11.3574 1.36719 -7.05078 C 1.36719 -2.74414 4.95117 0.830078 9.24805 0.830078 Z M 9.24805 -0.654297 C 5.70312 -0.654297 2.87109 -3.49609 2.87109 -7.05078 C 2.87109 -10.6055 5.69336 -13.4473 9.23828 -13.4473 C 12.793 -13.4473 15.6348 -10.6055 15.6445 -7.05078 C 15.6543 -3.49609 12.8027 -0.654297 9.24805 -0.654297 Z M 9.22852 -3.62305 C 9.69727 -3.62305 9.9707 -3.93555 9.9707 -4.45312 L 9.9707 -6.31836 L 12.002 -6.31836 C 12.5 -6.31836 12.832 -6.57227 12.832 -7.04102 C 12.832 -7.51953 12.5195 -7.7832 12.002 -7.7832 L 9.9707 -7.7832 L 9.9707 -9.81445 C 9.9707 -10.332 9.69727 -10.6543 9.22852 -10.6543 C 8.75977 -10.6543 8.50586 -10.3125 8.50586 -9.81445 L 8.50586 -7.7832 L 6.49414 -7.7832 C 5.97656 -7.7832 5.64453 -7.51953 5.64453 -7.04102 C 5.64453 -6.57227 5.99609 -6.31836 6.49414 -6.31836 L 8.50586 -6.31836 L 8.50586 -4.45312 C 8.50586 -3.95508 8.75977 -3.62305 9.22852 -3.62305 Z"/>
  </g>
  <g id="" transform="matrix(1 0 0 1 281.506 1933)">
   <path d="M 11.709 2.91016 C 17.1582 2.91016 21.6699 -1.61133 21.6699 -7.05078 C 21.6699 -12.5 17.1484 -17.0117 11.6992 -17.0117 C 6.25977 -17.0117 1.74805 -12.5 1.74805 -7.05078 C 1.74805 -1.61133 6.26953 2.91016 11.709 2.91016 Z M 11.709 1.25 C 7.09961 1.25 3.41797 -2.44141 3.41797 -7.05078 C 3.41797 -11.6602 7.08984 -15.3516 11.6992 -15.3516 C 16.3086 -15.3516 20 -11.6602 20.0098 -7.05078 C 20.0195 -2.44141 16.3184 1.25 11.709 1.25 Z M 11.6797 -2.66602 C 12.207 -2.66602 12.5098 -3.01758 12.5098 -3.59375 L 12.5098 -6.23047 L 15.3223 -6.23047 C 15.8691 -6.23047 16.25 -6.51367 16.25 -7.03125 C 16.25 -7.55859 15.8887 -7.86133 15.3223 -7.86133 L 12.5098 -7.86133 L 12.5098 -10.6836 C 12.5098 -11.25 12.207 -11.6113 11.6797 -11.6113 C 11.1621 -11.6113 10.8789 -11.2305 10.8789 -10.6836 L 10.8789 -7.86133 L 8.07617 -7.86133 C 7.50977 -7.86133 7.13867 -7.55859 7.13867 -7.03125 C 7.13867 -6.51367 7.5293 -6.23047 8.07617 -6.23047 L 10.8789 -6.23047 L 10.8789 -3.59375 C 10.8789 -3.03711 11.1621 -2.66602 11.6797 -2.66602 Z"/>
  </g>
  <g id="" transform="matrix(1 0 0 1 304.924 1933)">
   <path d="M 14.9707 5.66406 C 21.9336 5.66406 27.6953 -0.0976562 27.6953 -7.05078 C 27.6953 -14.0137 21.9238 -19.7754 14.9609 -19.7754 C 8.00781 -19.7754 2.25586 -14.0137 2.25586 -7.05078 C 2.25586 -0.0976562 8.01758 5.66406 14.9707 5.66406 Z M 14.9707 3.84766 C 8.93555 3.84766 4.08203 -1.01562 4.08203 -7.05078 C 4.08203 -13.0957 8.92578 -17.9492 14.9609 -17.9492 C 21.0059 -17.9492 25.8594 -13.0957 25.8691 -7.05078 C 25.8789 -1.01562 21.0156 3.84766 14.9707 3.84766 Z M 14.9414 -1.38672 C 15.5176 -1.38672 15.8594 -1.77734 15.8594 -2.38281 L 15.8594 -6.13281 L 19.7754 -6.13281 C 20.3711 -6.13281 20.7812 -6.46484 20.7812 -7.02148 C 20.7812 -7.59766 20.3906 -7.93945 19.7754 -7.93945 L 15.8594 -7.93945 L 15.8594 -11.8652 C 15.8594 -12.4805 15.5176 -12.8711 14.9414 -12.8711 C 14.375 -12.8711 14.0527 -12.4609 14.0527 -11.8652 L 14.0527 -7.93945 L 10.1465 -7.93945 C 9.53125 -7.93945 9.13086 -7.59766 9.13086 -7.02148 C 9.13086 -6.46484 9.55078 -6.13281 10.1465 -6.13281 L 14.0527 -6.13281 L 14.0527 -2.38281 C 14.0527 -1.79688 14.375 -1.38672 14.9414 -1.38672 Z"/>
  </g>
  <text style="stroke:none;fill:black;font-family:-apple-system,&quot;SF Pro Display&quot;,&quot;SF Pro Text&quot;,Helvetica,sans-serif;font-weight:bold;" transform="matrix(1 0 0 1 263 1953)">Design Variations</text>
  <text style="stroke:none;fill:black;font-family:-apple-system,&quot;SF Pro Display&quot;,&quot;SF Pro Text&quot;,Helvetica,sans-serif;" transform="matrix(1 0 0 1 263 1971)">Symbols are supported in up to nine weights and three scales.</text>
  <text style="stroke:none;fill:black;font-family:-apple-system,&quot;SF Pro Display&quot;,&quot;SF Pro Text&quot;,Helvetica,sans-serif;" transform="matrix(1 0 0 1 263 1989)">For optimal layout with text and other symbols, vertically align</text>
  <text style="stroke:none;fill:black;font-family:-apple-system,&quot;SF Pro Display&quot;,&quot;SF Pro Text&quot;,Helvetica,sans-serif;" transform="matrix(1 0 0 1 263 2007)">symbols with the adjacent text.</text>
  <line id="" style="fill:none;stroke:#00AEEF;stroke-width:0.5;opacity:1.0;" x1="776" x2="776" y1="1919" y2="1933"/>
  <g id="" transform="matrix(1 0 0 1 776 1933)">
   <path d="M 3.31055 0.126953 C 3.82812 0.126953 4.08203 -0.0683594 4.26758 -0.605469 L 5.52734 -4.0625 L 11.2891 -4.0625 L 12.5488 -0.605469 C 12.7344 -0.0683594 12.9883 0.126953 13.4961 0.126953 C 14.0137 0.126953 14.3457 -0.185547 14.3457 -0.673828 C 14.3457 -0.839844 14.3164 -0.986328 14.2383 -1.20117 L 9.6582 -13.3887 C 9.43359 -13.9941 9.0332 -14.2871 8.4082 -14.2871 C 7.80273 -14.2871 7.39258 -13.9941 7.17773 -13.3984 L 2.59766 -1.19141 C 2.51953 -0.976562 2.49023 -0.830078 2.49023 -0.664062 C 2.49023 -0.175781 2.80273 0.126953 3.31055 0.126953 Z M 6.00586 -5.53711 L 8.37891 -12.1094 L 8.42773 -12.1094 L 10.8008 -5.53711 Z"/>
  </g>
  <line id="" style="fill:none;stroke:#00AEEF;stroke-width:0.5;opacity:1.0;" x1="792.836" x2="792.836" y1="1919" y2="1933"/>
  <text style="stroke:none;fill:black;font-family:-apple-system,&quot;SF Pro Display&quot;,&quot;SF Pro Text&quot;,Helvetica,sans-serif;font-weight:bold;" transform="matrix(1 0 0 1 776 1953)">Margins</text>
  <text style="stroke:none;fill:black;font-family:-apple-system,&quot;SF Pro Display&quot;,&quot;SF Pro Text&quot;,Helvetica,sans-serif;" transform="matrix(1 0 0 1 776 1971)">Leading and trailing margins on the left and right side of each symbol</text>
  <text style="stroke:none;fill:black;font-family:-apple-system,&quot;SF Pro Display&quot;,&quot;SF Pro Text&quot;,Helvetica,sans-serif;" transform="matrix(1 0 0 1 776 1989)">can be adjusted by modifying the x-location of the margin guidelines.</text>
  <text style="stroke:none;fill:black;font-family:-apple-system,&quot;SF Pro Display&quot;,&quot;SF Pro Text&quot;,Helvetica,sans-serif;" transform="matrix(1 0 0 1 776 2007)">Modifications are automatically applied proportionally to all</text>
  <text style="stroke:none;fill:black;font-family:-apple-system,&quot;SF Pro Display&quot;,&quot;SF Pro Text&quot;,Helvetica,sans-serif;" transform="matrix(1 0 0 1 776 2025)">scales and weights.</text>
  <g id="" transform="matrix(1 0 0 1 1289 1933)">
   <path d="M 2.8418 1.86523 L 4.54102 3.57422 C 5.40039 4.44336 6.38672 4.38477 7.31445 3.35938 L 17.4902 -7.85156 C 17.7539 -7.76367 18.0273 -7.7832 18.3398 -7.8418 L 19.4043 -8.03711 L 20.0684 -7.36328 L 20.0293 -6.80664 C 19.9902 -6.30859 20.1172 -5.92773 20.6055 -5.44922 L 21.3672 -4.70703 C 21.8457 -4.22852 22.4609 -4.19922 22.9297 -4.66797 L 25.8398 -7.58789 C 26.3086 -8.05664 26.2891 -8.65234 25.8105 -9.13086 L 25.0391 -9.89258 C 24.5605 -10.3711 24.1895 -10.5273 23.7109 -10.4883 L 23.1348 -10.4395 L 22.4902 -11.0742 L 22.7344 -12.1973 C 22.8613 -12.7637 22.7051 -13.2031 22.1191 -13.7891 L 19.9219 -15.9766 C 16.582 -19.2969 12.1484 -19.2188 9.25781 -16.3281 C 8.83789 -15.918 8.80859 -15.3418 9.04297 -14.9512 C 9.27734 -14.5898 9.73633 -14.3555 10.3809 -14.5215 C 11.8457 -14.8633 13.3691 -14.9219 14.7949 -13.9844 L 14.209 -12.5293 C 14.0137 -12.0508 13.9844 -11.6504 14.1113 -11.2891 L 3.04688 -0.898438 C 2.06055 0.0195312 1.98242 0.996094 2.8418 1.86523 Z M 10.752 -15.957 C 13.1836 -17.7344 16.4746 -17.4316 18.7012 -15.2051 L 21.1328 -12.793 C 21.3672 -12.5586 21.4062 -12.373 21.3379 -12.0312 L 21.0156 -10.5469 L 22.5195 -9.0625 L 23.5059 -9.12109 C 23.7598 -9.13086 23.8379 -9.11133 24.0332 -8.91602 L 24.6094 -8.33984 L 22.168 -5.89844 L 21.5918 -6.47461 C 21.3965 -6.66992 21.3672 -6.74805 21.377 -7.01172 L 21.4453 -7.98828 L 19.9512 -9.47266 L 18.4277 -9.21875 C 18.1055 -9.15039 17.959 -9.17969 17.7148 -9.41406 L 15.7129 -11.416 C 15.459 -11.6504 15.4297 -11.8164 15.5859 -12.1875 L 16.4648 -14.2773 C 14.9023 -15.7324 12.8711 -16.3574 10.8398 -15.7617 C 10.6836 -15.7227 10.625 -15.8496 10.752 -15.957 Z M 5.27344 2.30469 L 4.10156 1.14258 C 3.63281 0.683594 3.74023 0.341797 4.14062 -0.0195312 L 14.9512 -10.1953 L 16.416 -8.71094 L 6.42578 2.27539 C 6.07422 2.67578 5.74219 2.77344 5.27344 2.30469 Z"/>
  </g>
  <text style="stroke:none;fill:black;font-family:-apple-system,&quot;SF Pro Display&quot;,&quot;SF Pro Text&quot;,Helvetica,sans-serif;font-weight:bold;" transform="matrix(1 0 0 1 1289 1953)">Exporting</text>
  <text style="stroke:none;fill:black;font-family:-apple-system,&quot;SF Pro Display&quot;,&quot;SF Pro Text&quot;,Helvetica,sans-serif;" transform="matrix(1 0 0 1 1289 1971)">Symbols should be outlined when exporting to ensure the</text>
  <text style="stroke:none;fill:black;font-family:-apple-system,&quot;SF Pro Display&quot;,&quot;SF Pro Text&quot;,Helvetica,sans-serif;" transform="matrix(1 0 0 1 1289 1989)">design is preserved when submitting to Xcode.</text>
  <text id="template-version" style="stroke:none;fill:black;font-family:-apple-system,&quot;SF Pro Display&quot;,&quot;SF Pro Text&quot;,Helvetica,sans-serif;text-anchor:end;" transform="matrix(1 0 0 1 3036 1933)">Template v.2.0</text>
  <text style="stroke:none;fill:black;font-family:-apple-system,&quot;SF Pro Display&quot;,&quot;SF Pro Text&quot;,Helvetica,sans-serif;text-anchor:end;" transform="matrix(1 0 0 1 3036 1951)">Requires Xcode 12 or greater</text>
  <text style="stroke:none;fill:black;font-family:-apple-system,&quot;SF Pro Display&quot;,&quot;SF Pro Text&quot;,Helvetica,sans-serif;text-anchor:end;" transform="matrix(1 0 0 1 3036 1969)">Generated from bitcoinsign.circle.fill</text>
  <text style="stroke:none;fill:black;font-family:-apple-system,&quot;SF Pro Display&quot;,&quot;SF Pro Text&quot;,Helvetica,sans-serif;text-anchor:end;" transform="matrix(1 0 0 1 3036 1987)">Typeset at 100 points</text>
  <text style="stroke:none;fill:black;font-family:-apple-system,&quot;SF Pro Display&quot;,&quot;SF Pro Text&quot;,Helvetica,sans-serif;" transform="matrix(1 0 0 1 263 726)">Small</text>
  <text style="stroke:none;fill:black;font-family:-apple-system,&quot;SF Pro Display&quot;,&quot;SF Pro Text&quot;,Helvetica,sans-serif;" transform="matrix(1 0 0 1 263 1156)">Medium</text>
  <text style="stroke:none;fill:black;font-family:-apple-system,&quot;SF Pro Display&quot;,&quot;SF Pro Text&quot;,Helvetica,sans-serif;" transform="matrix(1 0 0 1 263 1586)">Large</text>
 </g>
 <g id="Guides">
  <g id="H-reference" style="fill:#27AAE1;stroke:none;" transform="matrix(1 0 0 1 339 696)">
   <path d="M 0.976562 0 L 3.66211 0 L 12.9883 -24.4629 L 45.7031 -24.4629 L 55.0781 0 L 57.7148 0 L 30.6152 -70.459 L 28.125 -70.459 Z M 29.2969 -67.1387 L 29.3945 -67.1387 L 44.873 -26.709 L 13.8672 -26.709 Z"/>
  </g>
  <line id="Baseline-S" style="fill:none;stroke:#27AAE1;opacity:1;stroke-width:0.5;" x1="263" x2="3036" y1="696" y2="696"/>
  <line id="Capline-S" style="fill:none;stroke:#27AAE1;opacity:1;stroke-width:0.5;" x1="263" x2="3036" y1="625.541" y2="625.541"/>
  <g id="H-reference" style="fill:#27AAE1;stroke:none;" transform="matrix(1 0 0 1 339 1126)">
   <path d="M 0.976562 0 L 3.66211 0 L 12.9883 -24.4629 L 45.7031 -24.4629 L 55.0781 0 L 57.7148 0 L 30.6152 -70.459 L 28.125 -70.459 Z M 29.2969 -67.1387 L 29.3945 -67.1387 L 44.873 -26.709 L 13.8672 -26.709 Z"/>
  </g>
  <line id="Baseline-M" style="fill:none;stroke:#27AAE1;opacity:1;stroke-width:0.5;" x1="263" x2="3036" y1="1126" y2="1126"/>
  <line id="Capline-M" style="fill:none;stroke:#27AAE1;opacity:1;stroke-width:0.5;" x1="263" x2="3036" y1="1055.54" y2="1055.54"/>
  <g id="H-reference" style="fill:#27AAE1;stroke:none;" transform="matrix(1 0 0 1 339 1556)">
   <path d="M 0.976562 0 L 3.66211 0 L 12.9883 -24.4629 L 45.7031 -24.4629 L 55.0781 0 L 57.7148 0 L 30.6152 -70.459 L 28.125 -70.459 Z M 29.2969 -67.1387 L 29.3945 -67.1387 L 44.873 -26.709 L 13.8672 -26.709 Z"/>
  </g>
  <line id="Baseline-L" style="fill:none;stroke:#27AAE1;opacity:1;stroke-width:0.5;" x1="263" x2="3036" y1="1556" y2="1556"/>
  <line id="Capline-L" style="fill:none;stroke:#27AAE1;opacity:1;stroke-width:0.5;" x1="263" x2="3036" y1="1485.54" y2="1485.54"/>
  <line id="left-margin" style="fill:none;stroke:#00AEEF;stroke-width:0.5;opacity:1.0;" x1="1391.3" x2="1391.3" y1="1030.79" y2="1150.12"/>
  <line id="right-margin" style="fill:none;stroke:#00AEEF;stroke-width:0.5;opacity:1.0;" x1="1508.39" x2="1508.39" y1="1030.79" y2="1150.12"/>
 </g>
 <g id="Symbols">
  <g id="Black-L" transform="matrix(1 0 0 1 2854.05 1556)">
   <path d="M 79.3457 32.8613 C 116.748 32.8613 147.412 2.19727 147.412 -35.2051 C 147.412 -72.6074 116.748 -103.271 79.2969 -103.271 C 41.8945 -103.271 11.2793 -72.6074 11.2793 -35.2051 C 11.2793 2.19727 41.9434 32.8613 79.3457 32.8613 Z M 57.8125 -14.5996 L 57.8125 -55.2246 C 57.8125 -60.4492 60.8398 -63.5742 65.918 -63.5742 L 69.6777 -63.5742 L 69.6777 -68.8965 C 69.6777 -70.5566 70.8496 -71.7285 72.4609 -71.7285 C 74.0723 -71.7285 75.293 -70.5566 75.293 -68.8965 L 75.293 -63.5742 L 79.4922 -63.5742 L 79.4922 -68.8965 C 79.4922 -70.5566 80.6641 -71.7285 82.2754 -71.7285 C 83.7891 -71.7285 85.0098 -70.5566 85.0098 -68.8965 L 85.0098 -63.4766 C 95.8008 -63.0371 102.1 -57.4707 102.1 -48.877 C 102.1 -43.75 98.7793 -39.0137 93.9453 -36.9141 C 100.146 -35.0098 104.541 -29.541 104.541 -23.2422 C 104.541 -13.2324 97.0215 -6.83594 85.0098 -6.44531 L 85.0098 -1.31836 C 85.0098 0.341797 83.8379 1.46484 82.2754 1.46484 C 80.6641 1.46484 79.4922 0.341797 79.4922 -1.31836 L 79.4922 -6.39648 L 75.293 -6.39648 L 75.293 -1.31836 C 75.293 0.341797 74.1211 1.46484 72.4609 1.46484 C 70.8496 1.46484 69.6777 0.341797 69.6777 -1.31836 L 69.6777 -6.39648 L 65.8691 -6.39648 C 60.7422 -6.39648 57.8125 -9.375 57.8125 -14.5996 Z M 73.3398 -41.0645 L 79.248 -41.0645 C 83.9844 -41.0645 86.7188 -43.1641 86.7188 -46.7285 C 86.7188 -50.1465 84.2285 -52.0996 79.9805 -52.0996 L 73.3398 -52.0996 Z M 73.3398 -18.0176 L 80.8594 -18.0664 C 86.1328 -18.0664 88.8184 -20.166 88.8184 -24.4629 C 88.8184 -28.5156 86.084 -30.6152 80.7129 -30.6152 L 73.3398 -30.6152 Z"/>
  </g>
  <g id="Heavy-L" transform="matrix(1 0 0 1 2558.39 1556)">
   <path d="M 78.2715 31.7871 C 115.088 31.7871 145.312 1.5625 145.312 -35.2051 C 145.312 -72.0215 115.039 -102.246 78.2715 -102.246 C 41.4551 -102.246 11.2793 -72.0215 11.2793 -35.2051 C 11.2793 1.5625 41.5039 31.7871 78.2715 31.7871 Z M 57.8125 -13.5254 L 57.8125 -56.0059 C 57.8125 -60.6445 60.5469 -63.4277 64.9902 -63.4277 L 68.7012 -63.4277 L 68.7012 -68.6523 C 68.7012 -70.3125 69.873 -71.4844 71.4355 -71.4844 C 73.0469 -71.4844 74.2188 -70.3125 74.2188 -68.6523 L 74.2188 -63.4277 L 78.4668 -63.4277 L 78.4668 -68.6523 C 78.4668 -70.3125 79.6387 -71.4844 81.2012 -71.4844 C 82.7637 -71.4844 83.9355 -70.3125 83.9355 -68.6523 L 83.9355 -63.3301 C 94.1895 -62.6953 100.244 -57.1777 100.244 -48.7793 C 100.244 -43.5547 96.9727 -38.7695 92.1875 -36.6699 C 98.4375 -34.7656 102.783 -29.3945 102.783 -22.9004 C 102.783 -13.1348 95.6055 -6.83594 83.9355 -6.34766 L 83.9355 -1.12305 C 83.9355 0.537109 82.8125 1.66016 81.2012 1.66016 C 79.6387 1.66016 78.4668 0.537109 78.4668 -1.12305 L 78.4668 -6.25 L 74.2188 -6.25 L 74.2188 -1.12305 C 74.2188 0.537109 73.0957 1.66016 71.4355 1.66016 C 69.873 1.66016 68.7012 0.537109 68.7012 -1.12305 L 68.7012 -6.25 L 64.9414 -6.25 C 60.4492 -6.25 57.8125 -8.93555 57.8125 -13.5254 Z M 71.3379 -40.4785 L 78.1738 -40.4297 C 83.6914 -40.4297 86.8652 -42.8711 86.8652 -47.0215 C 86.8652 -50.9277 83.9844 -53.1738 79.1016 -53.1738 L 71.3379 -53.1738 Z M 71.3379 -16.6504 L 79.8828 -16.6992 C 85.9375 -16.6992 89.1113 -19.1406 89.1113 -23.9258 C 89.1113 -28.5645 85.8887 -30.957 79.5898 -30.957 L 71.3379 -30.957 Z"/>
  </g>
  <g id="Bold-L" transform="matrix(1 0 0 1 2262.88 1556)">
   <path d="M 77.0996 30.5664 C 113.232 30.5664 142.92 0.878906 142.92 -35.2539 C 142.92 -71.3379 113.184 -101.074 77.0508 -101.074 C 40.9668 -101.074 11.2793 -71.3379 11.2793 -35.2539 C 11.2793 0.878906 41.0156 30.5664 77.0996 30.5664 Z M 57.8125 -12.3047 L 57.8125 -56.9336 C 57.8125 -60.8398 60.2051 -63.2812 63.9648 -63.2812 L 67.5781 -63.2812 L 67.5781 -68.4082 C 67.5781 -70.0684 68.75 -71.2402 70.3125 -71.2402 C 71.875 -71.2402 73.0957 -70.0684 73.0957 -68.4082 L 73.0957 -63.2812 L 77.2949 -63.2812 L 77.2949 -68.4082 C 77.2949 -70.0684 78.4668 -71.2402 80.0293 -71.2402 C 81.5918 -71.2402 82.7637 -70.0684 82.7637 -68.4082 L 82.7637 -63.1348 C 92.3828 -62.3535 98.1934 -56.7871 98.1934 -48.6328 C 98.1934 -43.4082 94.9707 -38.5742 90.1855 -36.4258 C 96.5332 -34.5215 100.83 -29.1992 100.83 -22.5586 C 100.83 -13.0371 93.9941 -6.83594 82.7637 -6.20117 L 82.7637 -0.927734 C 82.7637 0.732422 81.5918 1.85547 80.0293 1.85547 C 78.4668 1.85547 77.2949 0.732422 77.2949 -0.927734 L 77.2949 -6.10352 L 73.0957 -6.10352 L 73.0957 -0.927734 C 73.0957 0.732422 71.9238 1.85547 70.3125 1.85547 C 68.75 1.85547 67.5781 0.732422 67.5781 -0.927734 L 67.5781 -6.10352 L 63.9648 -6.10352 C 60.1074 -6.10352 57.8125 -8.44727 57.8125 -12.3047 Z M 69.043 -39.7949 L 76.9531 -39.7461 C 83.3008 -39.6973 86.9629 -42.5293 86.9629 -47.3145 C 86.9629 -51.8066 83.6914 -54.3457 78.0762 -54.3457 L 69.043 -54.3457 Z M 69.043 -15.1367 L 78.7598 -15.1367 C 85.7422 -15.1855 89.4531 -17.9688 89.4531 -23.291 C 89.4531 -28.5645 85.5957 -31.3477 78.3691 -31.3477 L 69.043 -31.3477 Z"/>
  </g>
  <g id="Semibold-L" transform="matrix(1 0 0 1 1966.97 1556)">
   <path d="M 76.2695 29.7363 C 111.914 29.7363 141.309 0.390625 141.309 -35.2539 C 141.309 -70.8984 111.865 -100.244 76.2695 -100.244 C 40.625 -100.244 11.2793 -70.8984 11.2793 -35.2539 C 11.2793 0.390625 40.6738 29.7363 76.2695 29.7363 Z M 57.7637 -11.4746 L 57.7637 -57.5684 C 57.7637 -60.9863 59.9609 -63.1836 63.2812 -63.1836 L 66.7969 -63.1836 L 66.7969 -68.2617 C 66.7969 -69.873 67.9688 -71.0449 69.5312 -71.0449 C 71.0938 -71.0449 72.3145 -69.873 72.3145 -68.2617 L 72.3145 -63.1836 L 76.4648 -63.1836 L 76.4648 -68.2617 C 76.4648 -69.873 77.6855 -71.0449 79.248 -71.0449 C 80.7617 -71.0449 81.9336 -69.873 81.9336 -68.2617 L 81.9336 -62.9883 C 91.1133 -62.1094 96.8262 -56.543 96.8262 -48.584 C 96.8262 -43.3105 93.5547 -38.4277 88.8184 -36.2305 C 95.166 -34.3262 99.4629 -29.0527 99.4629 -22.3145 C 99.4629 -12.9395 92.8711 -6.88477 81.9336 -6.10352 L 81.9336 -0.78125 C 81.9336 0.878906 80.8105 2.00195 79.248 2.00195 C 77.6855 2.00195 76.4648 0.878906 76.4648 -0.78125 L 76.4648 -5.95703 L 72.3145 -5.95703 L 72.3145 -0.78125 C 72.3145 0.878906 71.1426 2.00195 69.5312 2.00195 C 67.9688 2.00195 66.7969 0.878906 66.7969 -0.78125 L 66.7969 -5.95703 L 63.2812 -5.95703 C 59.9121 -5.95703 57.7637 -8.10547 57.7637 -11.4746 Z M 67.4805 -39.3066 L 76.123 -39.2578 C 83.0566 -39.2578 87.0605 -42.2852 87.0605 -47.5586 C 87.0605 -52.3926 83.4473 -55.1758 77.3926 -55.1758 L 67.4805 -55.1758 Z M 67.4805 -14.0625 L 78.0273 -14.1113 C 85.5957 -14.1602 89.6973 -17.1387 89.6973 -22.8516 C 89.6973 -28.5645 85.4492 -31.5918 77.4902 -31.5918 L 67.4805 -31.5918 Z"/>
  </g>
  <g id="Medium-L" transform="matrix(1 0 0 1 1670.87 1556)">
   <path d="M 75.6836 29.1504 C 110.938 29.1504 140.088 0 140.088 -35.2539 C 140.088 -70.5078 110.889 -99.6582 75.6348 -99.6582 C 40.3809 -99.6582 11.2793 -70.5078 11.2793 -35.2539 C 11.2793 0 40.3809 29.1504 75.6836 29.1504 Z M 57.7637 -10.8398 L 57.7637 -58.0566 C 57.7637 -61.084 59.7656 -63.0859 62.7441 -63.0859 L 66.2109 -63.0859 L 66.2109 -68.1152 C 66.2109 -69.7754 67.3828 -70.8984 68.9453 -70.8984 C 70.5078 -70.8984 71.6797 -69.7754 71.6797 -68.1152 L 71.6797 -63.0859 L 75.8789 -63.0859 L 75.8789 -68.1152 C 75.8789 -69.7754 77.0508 -70.8984 78.6133 -70.8984 C 80.1758 -70.8984 81.3477 -69.7754 81.3477 -68.1152 L 81.3477 -62.8906 C 90.1855 -61.9141 95.752 -56.3477 95.752 -48.4863 C 95.752 -43.2129 92.5293 -38.3301 87.793 -36.1328 C 94.1895 -34.1797 98.4375 -28.9551 98.4375 -22.1191 C 98.4375 -12.8906 92.041 -6.88477 81.3477 -6.00586 L 81.3477 -0.683594 C 81.3477 0.976562 80.1758 2.09961 78.6133 2.09961 C 77.0508 2.09961 75.8789 0.976562 75.8789 -0.683594 L 75.8789 -5.9082 L 71.6797 -5.9082 L 71.6797 -0.683594 C 71.6797 0.976562 70.5078 2.09961 68.9453 2.09961 C 67.3828 2.09961 66.2109 0.976562 66.2109 -0.683594 L 66.2109 -5.9082 L 62.7441 -5.9082 C 59.7168 -5.9082 57.7637 -7.8125 57.7637 -10.8398 Z M 66.3086 -38.9648 L 75.4883 -38.916 C 82.9102 -38.8672 87.1582 -42.0898 87.1582 -47.7051 C 87.1582 -52.832 83.3008 -55.8105 76.8555 -55.8105 L 66.3086 -55.8105 Z M 66.3086 -13.2812 L 77.4414 -13.3301 C 85.4492 -13.3301 89.8438 -16.5527 89.8438 -22.5586 C 89.8438 -28.5645 85.3027 -31.7871 76.8555 -31.7871 L 66.3086 -31.7871 Z"/>
  </g>
  <g id="Regular-L" transform="matrix(1 0 0 1 1374.97 1556)">
   <path d="M 74.8535 28.3203 C 109.668 28.3203 138.477 -0.488281 138.477 -35.2539 C 138.477 -70.0684 109.619 -98.877 74.8047 -98.877 C 40.0391 -98.877 11.2793 -70.0684 11.2793 -35.2539 C 11.2793 -0.488281 40.0879 28.3203 74.8535 28.3203 Z M 57.7637 -10.0586 L 57.7637 -58.6914 C 57.7637 -61.2305 59.5703 -62.9883 62.0605 -62.9883 L 65.4297 -62.9883 L 65.4297 -67.9688 C 65.4297 -69.5801 66.6504 -70.7031 68.2129 -70.7031 C 69.7266 -70.7031 70.8984 -69.5801 70.8984 -67.9688 L 70.8984 -62.9883 L 75.0488 -62.9883 L 75.0488 -67.9688 C 75.0488 -69.5801 76.2695 -70.7031 77.832 -70.7031 C 79.3457 -70.7031 80.5176 -69.5801 80.5176 -67.9688 L 80.5176 -62.793 C 88.916 -61.6211 94.3359 -56.1035 94.3359 -48.4375 C 94.3359 -43.0664 91.1621 -38.1348 86.4258 -35.9375 C 92.8711 -33.9844 97.1191 -28.8086 97.1191 -21.875 C 97.1191 -12.793 90.9668 -6.88477 80.5176 -5.9082 L 80.5176 -0.537109 C 80.5176 1.12305 79.3457 2.24609 77.832 2.24609 C 76.2695 2.24609 75.0488 1.12305 75.0488 -0.537109 L 75.0488 -5.76172 L 70.8984 -5.76172 L 70.8984 -0.537109 C 70.8984 1.12305 69.7266 2.24609 68.2129 2.24609 C 66.6504 2.24609 65.4297 1.12305 65.4297 -0.537109 L 65.4297 -5.76172 L 62.0605 -5.76172 C 59.4727 -5.76172 57.7637 -7.4707 57.7637 -10.0586 Z M 64.7461 -38.4766 L 74.707 -38.4277 C 82.6172 -38.3789 87.207 -41.8945 87.207 -47.9492 C 87.207 -53.418 83.1055 -56.6406 76.1719 -56.6406 L 64.7461 -56.6406 Z M 64.7461 -12.207 L 76.709 -12.2559 C 85.3027 -12.3047 90.0879 -15.7715 90.0879 -22.1191 C 90.0879 -28.5645 85.1074 -32.0312 75.9766 -32.0312 L 64.7461 -32.0312 Z"/>
  </g>
  <g id="Light-L" transform="matrix(1 0 0 1 1079.18 1556)">
   <path d="M 73.9258 27.3926 C 108.301 27.3926 136.621 -0.927734 136.621 -35.2539 C 136.621 -69.6289 108.252 -97.9492 73.9258 -97.9492 C 39.5508 -97.9492 11.2793 -69.6289 11.2793 -35.2539 C 11.2793 -0.927734 39.5996 27.3926 73.9258 27.3926 Z M 57.8125 -10.1562 L 57.8125 -58.7402 C 57.8125 -60.7422 59.2285 -62.1582 61.2305 -62.1582 L 65.625 -62.1582 L 65.625 -67.2363 C 65.625 -68.6523 66.6992 -69.6289 67.9688 -69.6289 C 69.2383 -69.6289 70.2148 -68.6523 70.2148 -67.2363 L 70.2148 -62.1582 L 74.5117 -62.1582 L 74.5117 -67.2363 C 74.5117 -68.6523 75.5859 -69.6289 76.8555 -69.6289 C 78.0762 -69.6289 79.1016 -68.6523 79.1016 -67.2363 L 79.1016 -61.9629 C 87.5 -60.9863 92.9688 -55.6152 92.9688 -48.0957 C 92.9688 -42.8223 89.8926 -37.9883 85.1074 -35.791 C 91.3574 -33.8867 95.6543 -28.8574 95.6543 -22.1191 C 95.6543 -13.4277 89.502 -7.66602 79.1016 -6.88477 L 79.1016 -1.17188 C 79.1016 0.244141 78.0762 1.17188 76.8555 1.17188 C 75.5859 1.17188 74.5117 0.244141 74.5117 -1.17188 L 74.5117 -6.78711 L 70.2148 -6.78711 L 70.2148 -1.17188 C 70.2148 0.244141 69.2383 1.17188 67.9688 1.17188 C 66.6992 1.17188 65.625 0.244141 65.625 -1.17188 L 65.625 -6.78711 L 61.2305 -6.78711 C 59.1797 -6.78711 57.8125 -8.1543 57.8125 -10.1562 Z M 63.3301 -37.9395 L 74.5605 -37.8906 C 82.373 -37.8418 87.207 -41.6016 87.207 -47.8516 C 87.207 -53.5645 82.7148 -57.0312 75.5859 -57.0312 L 63.3301 -57.0312 Z M 63.3301 -12.0117 L 76.1719 -12.0117 C 84.9121 -12.0605 90.0391 -15.7715 90.0391 -22.2656 C 90.0391 -28.9551 84.7168 -32.7148 75.4395 -32.7148 L 63.3301 -32.7148 Z"/>
  </g>
  <g id="Thin-L" transform="matrix(1 0 0 1 783.693 1556)">
   <path d="M 72.7051 26.1719 C 106.494 26.1719 134.18 -1.51367 134.18 -35.2539 C 134.18 -69.043 106.494 -96.7285 72.7051 -96.7285 C 38.9648 -96.7285 11.2793 -69.043 11.2793 -35.2539 C 11.2793 -1.51367 38.9648 26.1719 72.7051 26.1719 Z M 57.8613 -10.3027 L 57.8613 -58.7891 C 57.8613 -60.1074 58.8379 -60.9863 60.1074 -60.9863 L 65.8691 -60.9863 L 65.8691 -66.3086 C 65.8691 -67.4316 66.748 -68.1641 67.627 -68.1641 C 68.5547 -68.1641 69.3359 -67.4316 69.3359 -66.3086 L 69.3359 -60.9863 L 73.7793 -60.9863 L 73.7793 -66.3086 C 73.7793 -67.4316 74.6582 -68.1641 75.5371 -68.1641 C 76.416 -68.1641 77.1973 -67.4316 77.1973 -66.3086 L 77.1973 -60.8887 C 85.5957 -60.1562 91.1133 -54.9805 91.1133 -47.7051 C 91.1133 -42.4316 88.1836 -37.793 83.3008 -35.6445 C 89.4043 -33.7891 93.7012 -28.9551 93.7012 -22.4609 C 93.7012 -14.209 87.5488 -8.69141 77.1973 -8.1543 L 77.1973 -2.05078 C 77.1973 -0.927734 76.416 -0.244141 75.5371 -0.244141 C 74.6582 -0.244141 73.7793 -0.927734 73.7793 -2.05078 L 73.7793 -8.1543 L 69.3359 -8.1543 L 69.3359 -2.05078 C 69.3359 -0.927734 68.5547 -0.244141 67.627 -0.244141 C 66.748 -0.244141 65.8691 -0.927734 65.8691 -2.05078 L 65.8691 -8.1543 L 60.1074 -8.1543 C 58.7891 -8.1543 57.8613 -8.98438 57.8613 -10.3027 Z M 61.4746 -37.1582 L 74.4141 -37.1582 C 82.0312 -37.1582 87.1582 -41.2598 87.1582 -47.7539 C 87.1582 -53.7109 82.2266 -57.5684 74.8535 -57.5684 L 61.4746 -57.5684 Z M 61.4746 -11.7188 L 75.3906 -11.7188 C 84.4238 -11.7188 89.9902 -15.8203 89.9902 -22.5098 C 89.9902 -29.4434 84.1797 -33.5938 74.6582 -33.5938 L 61.4746 -33.5938 Z"/>
  </g>
  <g id="Ultralight-L" transform="matrix(1 0 0 1 487.616 1556)">
   <path d="M 72.1191 25.5371 C 105.566 25.5371 132.91 -1.80664 132.91 -35.2539 C 132.91 -68.75 105.566 -96.0938 72.1191 -96.0938 C 38.623 -96.0938 11.2793 -68.75 11.2793 -35.2539 C 11.2793 -1.80664 38.623 25.5371 72.1191 25.5371 Z M 57.9102 -10.3516 L 57.9102 -58.8379 C 57.9102 -59.8145 58.5938 -60.4004 59.5703 -60.4004 L 66.0156 -60.4004 L 66.0156 -65.8203 C 66.0156 -66.7969 66.748 -67.3828 67.4805 -67.3828 C 68.1641 -67.3828 68.8477 -66.7969 68.8477 -65.8203 L 68.8477 -60.4004 L 73.3887 -60.4004 L 73.3887 -65.8203 C 73.3887 -66.7969 74.1699 -67.3828 74.8535 -67.3828 C 75.5859 -67.3828 76.2695 -66.7969 76.2695 -65.8203 L 76.2695 -60.3516 C 84.6191 -59.7656 90.1855 -54.6387 90.1855 -47.4609 C 90.1855 -42.2363 87.3047 -37.6953 82.373 -35.5469 C 88.3789 -33.6914 92.7246 -29.0039 92.7246 -22.6562 C 92.7246 -14.6484 86.5234 -9.22852 76.2695 -8.78906 L 76.2695 -2.53906 C 76.2695 -1.5625 75.5859 -0.976562 74.8535 -0.976562 C 74.1699 -0.976562 73.3887 -1.5625 73.3887 -2.53906 L 73.3887 -8.83789 L 68.8477 -8.83789 L 68.8477 -2.53906 C 68.8477 -1.5625 68.1641 -0.976562 67.4805 -0.976562 C 66.748 -0.976562 66.0156 -1.5625 66.0156 -2.53906 L 66.0156 -8.83789 L 59.5703 -8.83789 C 58.5938 -8.83789 57.9102 -9.42383 57.9102 -10.3516 Z M 60.498 -36.7676 L 74.3652 -36.7676 C 81.8848 -36.7676 87.1582 -41.0645 87.1582 -47.7051 C 87.1582 -53.8086 81.9824 -57.8613 74.4629 -57.8613 L 60.498 -57.8613 Z M 60.498 -11.5723 L 75 -11.5234 C 84.1309 -11.5234 89.9902 -15.8203 89.9902 -22.6074 C 89.9902 -29.6875 83.8867 -34.0332 74.2676 -34.0332 L 60.498 -34.0332 Z"/>
  </g>
  <g id="Black-M" transform="matrix(1 0 0 1 2870.97 1126)">
   <path d="M 62.4023 18.457 C 91.9922 18.457 116.113 -5.61523 116.113 -35.2051 C 116.113 -64.7949 91.9922 -88.8672 62.4023 -88.8672 C 32.8125 -88.8672 8.74023 -64.7949 8.74023 -35.2051 C 8.74023 -5.61523 32.8125 18.457 62.4023 18.457 Z M 44.873 -20.752 L 44.873 -49.6094 C 44.873 -54.2969 47.3633 -56.9336 51.8555 -56.9336 L 55.4688 -56.9336 L 55.4688 -61.2305 C 55.4688 -62.4023 56.25 -63.2324 57.373 -63.2324 C 58.4961 -63.2324 59.375 -62.4023 59.375 -61.2305 L 59.375 -56.9336 L 62.7441 -56.9336 L 62.7441 -61.2305 C 62.7441 -62.4023 63.5254 -63.2324 64.6484 -63.2324 C 65.6738 -63.2324 66.5527 -62.4023 66.5527 -61.2305 L 66.5527 -56.9336 C 75.6348 -56.8848 80.8594 -52.6855 80.8594 -45.8008 C 80.8594 -41.8945 78.3203 -38.3301 74.5117 -36.7676 C 79.1504 -35.3516 82.5684 -31.1035 82.5684 -26.5137 C 82.5684 -18.6523 76.3184 -13.623 66.5527 -13.623 L 66.5527 -9.57031 C 66.5527 -8.39844 65.7715 -7.61719 64.6484 -7.61719 C 63.5254 -7.61719 62.7441 -8.39844 62.7441 -9.57031 L 62.7441 -13.623 L 59.375 -13.623 L 59.375 -9.57031 C 59.375 -8.39844 58.5449 -7.61719 57.373 -7.61719 C 56.25 -7.61719 55.4688 -8.39844 55.4688 -9.57031 L 55.4688 -13.623 L 51.8066 -13.623 C 47.3145 -13.623 44.873 -16.1621 44.873 -20.752 Z M 58.7891 -40.2832 L 62.793 -40.2832 C 65.3809 -40.2832 67.041 -41.6504 67.041 -43.7012 C 67.041 -45.8496 65.4785 -47.0703 62.8906 -47.0703 L 58.7891 -47.0703 Z M 58.7891 -23.6328 L 63.6719 -23.6328 C 66.7969 -23.6328 68.4082 -24.9512 68.4082 -27.7344 C 68.4082 -30.2246 66.7969 -31.5918 63.7207 -31.5918 L 58.7891 -31.5918 Z"/>
  </g>
  <g id="Heavy-M" transform="matrix(1 0 0 1 2575.19 1126)">
   <path d="M 61.5234 17.5293 C 90.5273 17.5293 114.258 -6.20117 114.258 -35.2051 C 114.258 -64.2578 90.5273 -87.9883 61.4746 -87.9883 C 32.4707 -87.9883 8.74023 -64.2578 8.74023 -35.2051 C 8.74023 -6.20117 32.4707 17.5293 61.5234 17.5293 Z M 44.8242 -19.5312 L 44.8242 -50.5371 C 44.8242 -54.6387 47.1191 -56.9824 51.0742 -56.9824 L 54.2969 -56.9824 L 54.2969 -61.1816 C 54.2969 -62.4023 55.1758 -63.2324 56.3477 -63.2324 C 57.5195 -63.2324 58.3984 -62.4023 58.3984 -61.1816 L 58.3984 -56.9824 L 61.7188 -56.9824 L 61.7188 -61.1816 C 61.7188 -62.4023 62.5977 -63.2324 63.7695 -63.2324 C 64.8926 -63.2324 65.7715 -62.4023 65.7715 -61.1816 L 65.7715 -56.9824 C 74.2676 -56.6895 79.1992 -52.4414 79.1992 -45.752 C 79.1992 -41.7969 76.6602 -38.1348 72.9004 -36.5723 C 77.6367 -35.1074 81.0547 -30.9082 81.0547 -26.0742 C 81.0547 -18.4082 75.1465 -13.4277 65.7715 -13.2324 L 65.7715 -9.17969 C 65.7715 -7.95898 64.9414 -7.12891 63.7695 -7.12891 C 62.5977 -7.12891 61.7188 -7.95898 61.7188 -9.17969 L 61.7188 -13.1836 L 58.3984 -13.1836 L 58.3984 -9.17969 C 58.3984 -7.95898 57.5684 -7.12891 56.3477 -7.12891 C 55.1758 -7.12891 54.2969 -7.95898 54.2969 -9.17969 L 54.2969 -13.1836 L 51.0254 -13.1836 C 47.0703 -13.1836 44.8242 -15.4785 44.8242 -19.5312 Z M 56.9824 -39.7461 L 61.6699 -39.7461 C 65.1367 -39.7461 67.1875 -41.3574 67.1875 -44.043 C 67.1875 -46.6309 65.2344 -48.1445 62.0605 -48.1445 L 56.9824 -48.1445 Z M 56.9824 -22.168 L 62.7441 -22.2168 C 66.6992 -22.2168 68.75 -23.8281 68.75 -27.0996 C 68.75 -30.127 66.6504 -31.7871 62.6465 -31.7871 L 56.9824 -31.7871 Z"/>
  </g>
  <g id="Bold-M" transform="matrix(1 0 0 1 2279.5 1126)">
   <path d="M 60.498 16.5039 C 88.8672 16.5039 112.207 -6.83594 112.207 -35.2051 C 112.207 -63.623 88.8672 -86.9629 60.4492 -86.9629 C 32.0312 -86.9629 8.74023 -63.623 8.74023 -35.2051 C 8.74023 -6.83594 32.0801 16.5039 60.498 16.5039 Z M 44.8242 -18.2129 L 44.8242 -51.5137 C 44.8242 -54.9805 46.875 -57.0801 50.1953 -57.0801 L 53.0273 -57.0801 L 53.0273 -61.1328 C 53.0273 -62.4023 53.9551 -63.2812 55.1758 -63.2812 C 56.3965 -63.2812 57.3242 -62.4023 57.3242 -61.1328 L 57.3242 -57.0801 L 60.5957 -57.0801 L 60.5957 -61.1328 C 60.5957 -62.4023 61.5234 -63.2812 62.7441 -63.2812 C 63.9648 -63.2812 64.8926 -62.4023 64.8926 -61.1328 L 64.8926 -56.9824 C 72.7051 -56.4941 77.3926 -52.1484 77.3926 -45.7031 C 77.3926 -41.6504 74.8535 -37.9395 71.1426 -36.3281 C 75.9766 -34.8145 79.3457 -30.6641 79.3457 -25.6348 C 79.3457 -18.0664 73.8281 -13.2324 64.8926 -12.793 L 64.8926 -8.74023 C 64.8926 -7.4707 63.9648 -6.5918 62.7441 -6.5918 C 61.5234 -6.5918 60.5957 -7.4707 60.5957 -8.74023 L 60.5957 -12.7441 L 57.3242 -12.7441 L 57.3242 -8.74023 C 57.3242 -7.4707 56.4453 -6.5918 55.1758 -6.5918 C 53.9551 -6.5918 53.0273 -7.4707 53.0273 -8.74023 L 53.0273 -12.7441 L 50.1953 -12.7441 C 46.7773 -12.7441 44.8242 -14.7461 44.8242 -18.2129 Z M 54.8828 -39.209 L 60.4004 -39.1602 C 64.7949 -39.1602 67.334 -41.1133 67.334 -44.3848 C 67.334 -47.5586 65.0391 -49.3164 61.1328 -49.3164 L 54.8828 -49.3164 Z M 54.8828 -20.5566 L 61.7188 -20.6055 C 66.6016 -20.6055 69.1406 -22.5586 69.1406 -26.3672 C 69.1406 -30.0293 66.5039 -31.9824 61.4746 -31.9824 L 54.8828 -31.9824 Z"/>
  </g>
  <g id="Semibold-M" transform="matrix(1 0 0 1 1983.5 1126)">
   <path d="M 59.7656 15.8203 C 87.7441 15.8203 110.791 -7.27539 110.791 -35.2539 C 110.791 -63.2324 87.6953 -86.2793 59.7656 -86.2793 C 31.7871 -86.2793 8.74023 -63.2324 8.74023 -35.2539 C 8.74023 -7.27539 31.7871 15.8203 59.7656 15.8203 Z M 44.7754 -17.2852 L 44.7754 -52.1973 C 44.7754 -55.2246 46.6797 -57.1289 49.6094 -57.1289 L 52.1484 -57.1289 L 52.1484 -61.084 C 52.1484 -62.4023 53.125 -63.3301 54.3945 -63.3301 C 55.6641 -63.3301 56.6406 -62.4023 56.6406 -61.084 L 56.6406 -57.1289 L 59.8145 -57.1289 L 59.8145 -61.084 C 59.8145 -62.4023 60.791 -63.3301 62.0605 -63.3301 C 63.3301 -63.3301 64.2578 -62.4023 64.2578 -61.084 L 64.2578 -56.9824 C 71.6309 -56.2988 76.123 -52.002 76.123 -45.6543 C 76.123 -41.6016 73.584 -37.8418 69.9219 -36.1328 C 74.8535 -34.668 78.1738 -30.4688 78.1738 -25.293 C 78.1738 -17.8711 72.9004 -13.0859 64.2578 -12.5 L 64.2578 -8.44727 C 64.2578 -7.12891 63.3301 -6.20117 62.0605 -6.20117 C 60.791 -6.20117 59.8145 -7.12891 59.8145 -8.44727 L 59.8145 -12.4023 L 56.6406 -12.4023 L 56.6406 -8.44727 C 56.6406 -7.12891 55.6641 -6.20117 54.3945 -6.20117 C 53.125 -6.20117 52.1484 -7.12891 52.1484 -8.44727 L 52.1484 -12.4023 L 49.6094 -12.4023 C 46.6309 -12.4023 44.7754 -14.2578 44.7754 -17.2852 Z M 53.4668 -38.7695 L 59.4727 -38.7695 C 64.5996 -38.7207 67.4316 -40.8691 67.4316 -44.6777 C 67.4316 -48.1445 64.8926 -50.1465 60.498 -50.1465 L 53.4668 -50.1465 Z M 53.4668 -19.4824 L 61.0352 -19.4824 C 66.5039 -19.5312 69.3848 -21.6797 69.3848 -25.8301 C 69.3848 -29.9805 66.4062 -32.1289 60.6445 -32.1289 L 53.4668 -32.1289 Z"/>
  </g>
  <g id="Medium-M" transform="matrix(1 0 0 1 1687.3 1126)">
   <path d="M 59.2285 15.2344 C 86.9141 15.2344 109.766 -7.61719 109.766 -35.2539 C 109.766 -62.8906 86.8652 -85.7422 59.1797 -85.7422 C 31.543 -85.7422 8.74023 -62.8906 8.74023 -35.2539 C 8.74023 -7.61719 31.5918 15.2344 59.2285 15.2344 Z M 44.7754 -16.5527 L 44.7754 -52.6855 C 44.7754 -55.4199 46.5332 -57.1777 49.1699 -57.1777 L 51.5137 -57.1777 L 51.5137 -61.0352 C 51.5137 -62.4023 52.4414 -63.3301 53.7598 -63.3301 C 55.0781 -63.3301 56.0547 -62.4023 56.0547 -61.0352 L 56.0547 -57.1777 L 59.2773 -57.1777 L 59.2773 -61.0352 C 59.2773 -62.4023 60.2051 -63.3301 61.5234 -63.3301 C 62.8418 -63.3301 63.8184 -62.4023 63.8184 -61.0352 L 63.8184 -57.0312 C 70.8008 -56.2012 75.1465 -51.8555 75.1465 -45.6543 C 75.1465 -41.5527 72.6074 -37.6953 68.9453 -36.0352 C 73.9746 -34.5215 77.2461 -30.3711 77.2461 -25.0488 C 77.2461 -17.7246 72.2168 -12.9883 63.8184 -12.2559 L 63.8184 -8.25195 C 63.8184 -6.88477 62.8418 -5.95703 61.5234 -5.95703 C 60.2051 -5.95703 59.2773 -6.88477 59.2773 -8.25195 L 59.2773 -12.1582 L 56.0547 -12.1582 L 56.0547 -8.25195 C 56.0547 -6.88477 55.0781 -5.95703 53.7598 -5.95703 C 52.4414 -5.95703 51.5137 -6.88477 51.5137 -8.25195 L 51.5137 -12.1582 L 49.1699 -12.1582 C 46.4844 -12.1582 44.7754 -13.8672 44.7754 -16.5527 Z M 52.3926 -38.4766 L 58.8379 -38.4277 C 64.4043 -38.3789 67.5293 -40.7227 67.5293 -44.873 C 67.5293 -48.6328 64.7461 -50.7812 60.0098 -50.7812 L 52.3926 -50.7812 Z M 52.3926 -18.6035 L 60.498 -18.6523 C 66.4062 -18.7012 69.5801 -20.9961 69.5801 -25.4883 C 69.5801 -29.9316 66.3086 -32.2266 60.0586 -32.2266 L 52.3926 -32.2266 Z"/>
  </g>
  <g id="Regular-M" transform="matrix(1 0 0 1 1391.3 1126)">
   <path d="M 58.5449 14.5508 C 85.791 14.5508 108.35 -8.05664 108.35 -35.2539 C 108.35 -62.5 85.7422 -85.0586 58.4961 -85.0586 C 31.2988 -85.0586 8.74023 -62.5 8.74023 -35.2539 C 8.74023 -8.05664 31.3477 14.5508 58.5449 14.5508 Z M 44.7266 -15.625 L 44.7266 -53.3691 C 44.7266 -55.6641 46.3379 -57.2266 48.584 -57.2266 L 50.6348 -57.2266 L 50.6348 -60.9863 C 50.6348 -62.4023 51.6113 -63.3789 52.9785 -63.3789 C 54.3457 -63.3789 55.3223 -62.4023 55.3223 -60.9863 L 55.3223 -57.2266 L 58.4961 -57.2266 L 58.4961 -60.9863 C 58.4961 -62.4023 59.5215 -63.3789 60.8398 -63.3789 C 62.207 -63.3789 63.2324 -62.4023 63.2324 -60.9863 L 63.2324 -57.0312 C 69.7266 -56.0547 73.877 -51.6602 73.877 -45.6055 C 73.877 -41.4551 71.3867 -37.5977 67.7734 -35.8398 C 72.8027 -34.3262 76.0742 -30.2246 76.0742 -24.707 C 76.0742 -17.5293 71.3379 -12.8418 63.2324 -11.9629 L 63.2324 -7.95898 C 63.2324 -6.54297 62.207 -5.56641 60.8398 -5.56641 C 59.5215 -5.56641 58.4961 -6.54297 58.4961 -7.95898 L 58.4961 -11.8164 L 55.3223 -11.8164 L 55.3223 -7.95898 C 55.3223 -6.54297 54.3457 -5.56641 52.9785 -5.56641 C 51.6113 -5.56641 50.6348 -6.54297 50.6348 -7.95898 L 50.6348 -11.8164 L 48.584 -11.8164 C 46.2891 -11.8164 44.7266 -13.3789 44.7266 -15.625 Z M 50.9766 -38.0859 L 57.959 -38.0371 C 64.209 -37.9883 67.627 -40.5273 67.627 -45.1172 C 67.627 -49.2676 64.5996 -51.5625 59.3262 -51.5625 L 50.9766 -51.5625 Z M 50.9766 -17.5293 L 59.7656 -17.5781 C 66.3574 -17.627 69.8242 -20.1172 69.8242 -24.9512 C 69.8242 -29.8828 66.2109 -32.373 59.2285 -32.373 L 50.9766 -32.373 Z"/>
  </g>
  <g id="Light-M" transform="matrix(1 0 0 1 1095.42 1126)">
   <path d="M 57.7148 13.7207 C 84.5215 13.7207 106.689 -8.44727 106.689 -35.2539 C 106.689 -62.1094 84.5215 -84.2285 57.666 -84.2285 C 30.8594 -84.2285 8.74023 -62.1094 8.74023 -35.2539 C 8.74023 -8.44727 30.9082 13.7207 57.7148 13.7207 Z M 44.7754 -15.7227 L 44.7754 -53.418 C 44.7754 -55.2246 46.0449 -56.4941 47.8027 -56.4941 L 50.7812 -56.4941 L 50.7812 -60.3516 C 50.7812 -61.5723 51.6602 -62.3535 52.7832 -62.3535 C 53.8574 -62.3535 54.7363 -61.5723 54.7363 -60.3516 L 54.7363 -56.4941 L 58.0078 -56.4941 L 58.0078 -60.3516 C 58.0078 -61.5723 58.8867 -62.3535 59.9609 -62.3535 C 61.084 -62.3535 61.9629 -61.5723 61.9629 -60.3516 L 61.9629 -56.2988 C 68.457 -55.4688 72.6562 -51.2207 72.6562 -45.3613 C 72.6562 -41.2109 70.2148 -37.4512 66.5527 -35.7422 C 71.4844 -34.2285 74.7559 -30.2734 74.7559 -24.9512 C 74.7559 -18.0664 70.0195 -13.5254 61.9629 -12.8418 L 61.9629 -8.54492 C 61.9629 -7.37305 61.084 -6.54297 59.9609 -6.54297 C 58.8867 -6.54297 58.0078 -7.37305 58.0078 -8.54492 L 58.0078 -12.7441 L 54.7363 -12.7441 L 54.7363 -8.54492 C 54.7363 -7.37305 53.8574 -6.54297 52.7832 -6.54297 C 51.6602 -6.54297 50.7812 -7.37305 50.7812 -8.54492 L 50.7812 -12.7441 L 47.8027 -12.7441 C 45.9961 -12.7441 44.7754 -13.916 44.7754 -15.7227 Z M 49.707 -37.5488 L 57.8613 -37.5488 C 63.9648 -37.5 67.5781 -40.2832 67.5781 -45.0684 C 67.5781 -49.3652 64.2578 -51.9531 58.8379 -51.9531 L 49.707 -51.9531 Z M 49.707 -17.334 L 59.2773 -17.334 C 66.0156 -17.3828 69.8242 -20.166 69.8242 -25.1465 C 69.8242 -30.1758 65.8203 -32.959 58.6914 -32.959 L 49.707 -32.959 Z"/>
  </g>
  <g id="Thin-M" transform="matrix(1 0 0 1 799.806 1126)">
   <path d="M 56.6406 12.5977 C 82.9102 12.5977 104.492 -8.98438 104.492 -35.2539 C 104.492 -61.5723 82.9102 -83.1543 56.5918 -83.1543 C 30.3223 -83.1543 8.74023 -61.5723 8.74023 -35.2539 C 8.74023 -8.98438 30.3223 12.5977 56.6406 12.5977 Z M 44.8242 -15.8691 L 44.8242 -53.4668 C 44.8242 -54.6387 45.6543 -55.4199 46.8262 -55.4199 L 51.0254 -55.4199 L 51.0254 -59.5215 C 51.0254 -60.4492 51.709 -61.0352 52.4902 -61.0352 C 53.2715 -61.0352 53.9062 -60.4492 53.9062 -59.5215 L 53.9062 -55.4199 L 57.3242 -55.4199 L 57.3242 -59.5215 C 57.3242 -60.4492 58.0566 -61.0352 58.8379 -61.0352 C 59.6191 -61.0352 60.2539 -60.4492 60.2539 -59.5215 L 60.2539 -55.3223 C 66.748 -54.7363 70.9961 -50.6836 70.9961 -44.9707 C 70.9961 -40.918 68.7012 -37.2559 64.9414 -35.5957 C 69.7266 -34.1309 73.0469 -30.3711 73.0469 -25.293 C 73.0469 -18.7988 68.2617 -14.4531 60.2539 -13.9648 L 60.2539 -9.32617 C 60.2539 -8.39844 59.6191 -7.8125 58.8379 -7.8125 C 58.0566 -7.8125 57.3242 -8.39844 57.3242 -9.32617 L 57.3242 -13.916 L 53.9062 -13.916 L 53.9062 -9.32617 C 53.9062 -8.39844 53.2715 -7.8125 52.4902 -7.8125 C 51.709 -7.8125 51.0254 -8.39844 51.0254 -9.32617 L 51.0254 -13.916 L 46.8262 -13.916 C 45.6543 -13.916 44.8242 -14.6973 44.8242 -15.8691 Z M 48.0469 -36.8652 L 57.7148 -36.8652 C 63.6719 -36.8652 67.5781 -39.9414 67.5781 -44.9707 C 67.5781 -49.5117 63.8184 -52.4414 58.1543 -52.4414 L 48.0469 -52.4414 Z M 48.0469 -17.041 L 58.5938 -17.0898 C 65.5273 -17.0898 69.7754 -20.166 69.7754 -25.3418 C 69.7754 -30.6152 65.332 -33.7891 58.0078 -33.7891 L 48.0469 -33.7891 Z"/>
  </g>
  <g id="Ultralight-M" transform="matrix(1 0 0 1 503.656 1126)">
   <path d="M 56.0547 12.0605 C 82.0801 12.0605 103.369 -9.22852 103.369 -35.2539 C 103.369 -61.2793 82.0801 -82.5684 56.0547 -82.5684 C 30.0293 -82.5684 8.74023 -61.2793 8.74023 -35.2539 C 8.74023 -9.22852 30.0293 12.0605 56.0547 12.0605 Z M 44.873 -15.9668 L 44.873 -53.5156 C 44.873 -54.3945 45.459 -54.9316 46.3379 -54.9316 L 51.123 -54.9316 L 51.123 -59.082 C 51.123 -59.9121 51.709 -60.4004 52.3438 -60.4004 C 52.9297 -60.4004 53.5156 -59.9121 53.5156 -59.082 L 53.5156 -54.9316 L 56.9824 -54.9316 L 56.9824 -59.082 C 56.9824 -59.9121 57.6172 -60.4004 58.2031 -60.4004 C 58.8379 -60.4004 59.375 -59.9121 59.375 -59.082 L 59.375 -54.834 C 65.8691 -54.3457 70.166 -50.3906 70.166 -44.7754 C 70.166 -40.7227 67.9199 -37.207 64.1113 -35.498 C 68.7988 -34.082 72.168 -30.4199 72.168 -25.4395 C 72.168 -19.1406 67.3828 -14.9414 59.375 -14.5508 L 59.375 -9.7168 C 59.375 -8.93555 58.8379 -8.44727 58.2031 -8.44727 C 57.6172 -8.44727 56.9824 -8.93555 56.9824 -9.7168 L 56.9824 -14.5508 L 53.5156 -14.5508 L 53.5156 -9.7168 C 53.5156 -8.93555 52.9297 -8.44727 52.3438 -8.44727 C 51.709 -8.44727 51.123 -8.93555 51.123 -9.7168 L 51.123 -14.5508 L 46.3379 -14.5508 C 45.459 -14.5508 44.873 -15.0879 44.873 -15.9668 Z M 47.168 -36.5234 L 57.666 -36.5234 C 63.4766 -36.5234 67.5781 -39.7949 67.5781 -44.9219 C 67.5781 -49.6094 63.623 -52.6855 57.8125 -52.6855 L 47.168 -52.6855 Z M 47.168 -16.9434 L 58.252 -16.9434 C 65.2832 -16.9434 69.7266 -20.166 69.7266 -25.4395 C 69.7266 -30.8594 65.0879 -34.1797 57.666 -34.1797 L 47.168 -34.1797 Z"/>
  </g>
  <g id="Black-S" transform="matrix(1 0 0 1 2884.57 696)">
   <path d="M 48.8281 6.78711 C 71.9727 6.78711 90.8203 -12.0605 90.8203 -35.2051 C 90.8203 -58.3496 71.9727 -77.1973 48.8281 -77.1973 C 25.6836 -77.1973 6.83594 -58.3496 6.83594 -35.2051 C 6.83594 -12.0605 25.6836 6.78711 48.8281 6.78711 Z M 35.1562 -23.7793 L 35.1562 -46.582 C 35.1562 -50.1953 37.1094 -52.2461 40.5762 -52.2461 L 43.3594 -52.2461 L 43.3594 -55.6152 C 43.3594 -56.543 43.9941 -57.1777 44.873 -57.1777 C 45.752 -57.1777 46.4355 -56.543 46.4355 -55.6152 L 46.4355 -52.2461 L 49.0723 -52.2461 L 49.0723 -55.6152 C 49.0723 -56.543 49.707 -57.1777 50.5859 -57.1777 C 51.416 -57.1777 52.0996 -56.543 52.0996 -55.6152 L 52.0996 -52.2461 C 59.1797 -52.1973 63.2324 -48.877 63.2324 -43.5059 C 63.2324 -40.4297 61.2305 -37.6465 58.252 -36.4258 C 61.9141 -35.3027 64.5996 -31.9824 64.5996 -28.3691 C 64.5996 -22.2168 59.7168 -18.2617 52.0996 -18.2617 L 52.0996 -15.0879 C 52.0996 -14.1602 51.4648 -13.5254 50.5859 -13.5254 C 49.707 -13.5254 49.0723 -14.1602 49.0723 -15.0879 L 49.0723 -18.2617 L 46.4355 -18.2617 L 46.4355 -15.0879 C 46.4355 -14.1602 45.8008 -13.5254 44.873 -13.5254 C 43.9941 -13.5254 43.3594 -14.1602 43.3594 -15.0879 L 43.3594 -18.2617 L 40.5273 -18.2617 C 37.0605 -18.2617 35.1562 -20.2148 35.1562 -23.7793 Z M 45.9473 -39.1602 L 49.1211 -39.1602 C 51.2207 -39.1602 52.5391 -40.2344 52.5391 -41.8945 C 52.5391 -43.6035 51.2695 -44.5801 49.2188 -44.5801 L 45.9473 -44.5801 Z M 45.9473 -26.0254 L 49.8047 -26.0254 C 52.3438 -26.0254 53.6133 -27.0996 53.6133 -29.2969 C 53.6133 -31.2988 52.3438 -32.373 49.8535 -32.373 L 45.9473 -32.373 Z"/>
  </g>
  <g id="Heavy-S" transform="matrix(1 0 0 1 2588.47 696)">
   <path d="M 48.2422 6.15234 C 70.9961 6.15234 89.5996 -12.4512 89.5996 -35.2051 C 89.5996 -57.959 70.9961 -76.6113 48.1934 -76.6113 C 25.4395 -76.6113 6.83594 -57.959 6.83594 -35.2051 C 6.83594 -12.4512 25.4395 6.15234 48.2422 6.15234 Z M 35.1074 -22.8516 L 35.1074 -47.2656 C 35.1074 -50.4883 36.9629 -52.3926 40.0879 -52.3926 L 42.4805 -52.3926 L 42.4805 -55.6152 C 42.4805 -56.6406 43.1641 -57.3242 44.0918 -57.3242 C 45.0684 -57.3242 45.8008 -56.6406 45.8008 -55.6152 L 45.8008 -52.3926 L 48.3398 -52.3926 L 48.3398 -55.6152 C 48.3398 -56.6406 49.0723 -57.3242 50 -57.3242 C 50.9277 -57.3242 51.6602 -56.6406 51.6602 -55.6152 L 51.6602 -52.3438 C 58.252 -52.0996 62.1094 -48.7305 62.1094 -43.5059 C 62.1094 -40.3809 60.1074 -37.5488 57.1777 -36.2793 C 60.9375 -35.1074 63.5742 -31.8359 63.5742 -28.0273 C 63.5742 -21.9727 58.9844 -18.0664 51.6602 -17.8711 L 51.6602 -14.7461 C 51.6602 -13.7207 50.9277 -13.0371 50 -13.0371 C 49.0723 -13.0371 48.3398 -13.7207 48.3398 -14.7461 L 48.3398 -17.8223 L 45.8008 -17.8223 L 45.8008 -14.7461 C 45.8008 -13.7207 45.0684 -13.0371 44.0918 -13.0371 C 43.1641 -13.0371 42.4805 -13.7207 42.4805 -14.7461 L 42.4805 -17.8223 L 40.0391 -17.8223 C 36.9141 -17.8223 35.1074 -19.6289 35.1074 -22.8516 Z M 44.6777 -38.8184 L 48.2422 -38.8184 C 51.0254 -38.8184 52.6367 -40.0879 52.6367 -42.1387 C 52.6367 -44.1895 51.1719 -45.3613 48.6328 -45.3613 L 44.6777 -45.3613 Z M 44.6777 -24.9512 L 49.1699 -24.9512 C 52.2949 -24.9512 53.8574 -26.2207 53.8574 -28.7598 C 53.8574 -31.2012 52.2949 -32.4707 49.1211 -32.4707 L 44.6777 -32.4707 Z"/>
  </g>
  <g id="Bold-S" transform="matrix(1 0 0 1 2292.44 696)">
   <path d="M 47.5586 5.46875 C 69.873 5.46875 88.2324 -12.8906 88.2324 -35.2539 C 88.2324 -57.5684 69.873 -75.9277 47.5098 -75.9277 C 25.1953 -75.9277 6.83594 -57.5684 6.83594 -35.2539 C 6.83594 -12.8906 25.1953 5.46875 47.5586 5.46875 Z M 35.1074 -21.8262 L 35.1074 -47.998 C 35.1074 -50.8301 36.7676 -52.5391 39.502 -52.5391 L 41.4551 -52.5391 L 41.4551 -55.6641 C 41.4551 -56.7383 42.2363 -57.4707 43.2617 -57.4707 C 44.2871 -57.4707 45.0684 -56.7383 45.0684 -55.6641 L 45.0684 -52.5391 L 47.5586 -52.5391 L 47.5586 -55.6641 C 47.5586 -56.7383 48.3398 -57.4707 49.3652 -57.4707 C 50.3418 -57.4707 51.123 -56.7383 51.123 -55.6641 L 51.123 -52.4414 C 57.2266 -52.002 60.8887 -48.584 60.8887 -43.5059 C 60.8887 -40.332 58.8379 -37.4023 55.957 -36.084 C 59.8145 -34.9121 62.4023 -31.6406 62.4023 -27.6367 C 62.4023 -21.6309 58.1055 -17.8223 51.123 -17.4316 L 51.123 -14.3066 C 51.123 -13.2812 50.3906 -12.5488 49.3652 -12.5488 C 48.3398 -12.5488 47.5586 -13.2812 47.5586 -14.3066 L 47.5586 -17.334 L 45.0684 -17.334 L 45.0684 -14.3066 C 45.0684 -13.2812 44.2871 -12.5488 43.2617 -12.5488 C 42.2363 -12.5488 41.4551 -13.2812 41.4551 -14.3066 L 41.4551 -17.334 L 39.4531 -17.334 C 36.7188 -17.334 35.1074 -18.9941 35.1074 -21.8262 Z M 43.2617 -38.4277 L 47.2656 -38.4277 C 50.8301 -38.3789 52.7344 -39.8926 52.7344 -42.4316 C 52.7344 -44.873 51.0254 -46.2402 47.998 -46.2402 L 43.2617 -46.2402 Z M 43.2617 -23.7305 L 48.4375 -23.7793 C 52.2461 -23.7793 54.1504 -25.2441 54.1504 -28.2227 C 54.1504 -31.1035 52.1973 -32.5195 48.2422 -32.5195 L 43.2617 -32.5195 Z"/>
  </g>
  <g id="Semibold-S" transform="matrix(1 0 0 1 1996.2 696)">
   <path d="M 47.0703 4.98047 C 69.0918 4.98047 87.3047 -13.1836 87.3047 -35.2539 C 87.3047 -57.2754 69.0918 -75.4883 47.0215 -75.4883 C 25 -75.4883 6.83594 -57.2754 6.83594 -35.2539 C 6.83594 -13.1836 25.0488 4.98047 47.0703 4.98047 Z M 35.0586 -21.0938 L 35.0586 -48.5352 C 35.0586 -51.0254 36.6699 -52.6855 39.1113 -52.6855 L 40.7715 -52.6855 L 40.7715 -55.6641 C 40.7715 -56.7871 41.5527 -57.5684 42.6758 -57.5684 C 43.75 -57.5684 44.5312 -56.7871 44.5312 -55.6641 L 44.5312 -52.6855 L 47.0215 -52.6855 L 47.0215 -55.6641 C 47.0215 -56.7871 47.8027 -57.5684 48.877 -57.5684 C 49.9512 -57.5684 50.7812 -56.7871 50.7812 -55.6641 L 50.7812 -52.5391 C 56.4941 -51.9531 60.0098 -48.4863 60.0098 -43.5059 C 60.0098 -40.2832 57.959 -37.3047 55.127 -35.9863 C 59.0332 -34.8145 61.6211 -31.4941 61.6211 -27.3438 C 61.6211 -21.4355 57.5684 -17.627 50.7812 -17.1387 L 50.7812 -14.0625 C 50.7812 -12.9395 50 -12.1582 48.877 -12.1582 C 47.8027 -12.1582 47.0215 -12.9395 47.0215 -14.0625 L 47.0215 -17.041 L 44.5312 -17.041 L 44.5312 -14.0625 C 44.5312 -12.9395 43.75 -12.1582 42.6758 -12.1582 C 41.5527 -12.1582 40.7715 -12.9395 40.7715 -14.0625 L 40.7715 -17.041 L 39.0625 -17.041 C 36.6211 -17.041 35.0586 -18.5547 35.0586 -21.0938 Z M 42.2852 -38.1836 L 46.6309 -38.1348 C 50.6836 -38.0859 52.832 -39.7461 52.832 -42.6758 C 52.832 -45.3613 50.9277 -46.8262 47.5098 -46.8262 L 42.2852 -46.8262 Z M 42.2852 -22.9004 L 47.9492 -22.9492 C 52.1973 -22.9492 54.3945 -24.5605 54.3945 -27.832 C 54.3945 -31.0059 52.1484 -32.6172 47.6562 -32.6172 L 42.2852 -32.6172 Z"/>
  </g>
  <g id="Medium-S" transform="matrix(1 0 0 1 1699.83 696)">
   <path d="M 46.7285 4.63867 C 68.5547 4.63867 86.6211 -13.4277 86.6211 -35.2539 C 86.6211 -57.0801 68.5059 -75.1465 46.6797 -75.1465 C 24.8535 -75.1465 6.83594 -57.0801 6.83594 -35.2539 C 6.83594 -13.4277 24.9023 4.63867 46.7285 4.63867 Z M 35.0586 -20.5566 L 35.0586 -48.9258 C 35.0586 -51.2207 36.5723 -52.7344 38.8184 -52.7344 L 40.2344 -52.7344 L 40.2344 -55.7129 C 40.2344 -56.8359 41.0645 -57.666 42.1875 -57.666 C 43.3105 -57.666 44.1406 -56.8359 44.1406 -55.7129 L 44.1406 -52.7344 L 46.6309 -52.7344 L 46.6309 -55.7129 C 46.6309 -56.8359 47.4121 -57.666 48.5352 -57.666 C 49.6582 -57.666 50.4883 -56.8359 50.4883 -55.7129 L 50.4883 -52.5879 C 55.957 -51.9043 59.375 -48.4375 59.375 -43.5059 C 59.375 -40.2832 57.3242 -37.207 54.4922 -35.8887 C 58.4473 -34.668 61.0352 -31.3965 61.0352 -27.1484 C 61.0352 -21.2891 57.1289 -17.5293 50.4883 -16.8945 L 50.4883 -13.8184 C 50.4883 -12.6953 49.6582 -11.8652 48.5352 -11.8652 C 47.4121 -11.8652 46.6309 -12.6953 46.6309 -13.8184 L 46.6309 -16.7969 L 44.1406 -16.7969 L 44.1406 -13.8184 C 44.1406 -12.6953 43.3594 -11.8652 42.1875 -11.8652 C 41.0645 -11.8652 40.2344 -12.6953 40.2344 -13.8184 L 40.2344 -16.7969 L 38.7695 -16.7969 C 36.5234 -16.7969 35.0586 -18.2617 35.0586 -20.5566 Z M 41.5527 -37.9883 L 46.0938 -37.9395 C 50.5371 -37.8906 52.8809 -39.6484 52.8809 -42.8223 C 52.8809 -45.7031 50.8789 -47.2656 47.168 -47.2656 L 41.5527 -47.2656 Z M 41.5527 -22.2656 L 47.5586 -22.3145 C 52.1973 -22.3633 54.541 -24.0723 54.541 -27.4902 C 54.541 -30.957 52.0996 -32.666 47.2168 -32.666 L 41.5527 -32.666 Z"/>
  </g>
  <g id="Regular-S" transform="matrix(1 0 0 1 1403.58 696)">
   <path d="M 46.2402 4.15039 C 67.7734 4.15039 85.6934 -13.7207 85.6934 -35.2539 C 85.6934 -56.7871 67.7246 -74.6582 46.1914 -74.6582 C 24.707 -74.6582 6.83594 -56.7871 6.83594 -35.2539 C 6.83594 -13.7207 24.7559 4.15039 46.2402 4.15039 Z M 35.0098 -19.8242 L 35.0098 -49.4141 C 35.0098 -51.4648 36.4258 -52.8809 38.4277 -52.8809 L 39.5996 -52.8809 L 39.5996 -55.7129 C 39.5996 -56.8848 40.4297 -57.7637 41.6016 -57.7637 C 42.8223 -57.7637 43.6523 -56.8848 43.6523 -55.7129 L 43.6523 -52.8809 L 46.0449 -52.8809 L 46.0449 -55.7129 C 46.0449 -56.8848 46.9238 -57.7637 48.0957 -57.7637 C 49.2676 -57.7637 50.1465 -56.8848 50.1465 -55.7129 L 50.1465 -52.6855 C 55.2734 -51.8066 58.4961 -48.3398 58.4961 -43.5059 C 58.4961 -40.2344 56.4453 -37.1582 53.6621 -35.791 C 57.7148 -34.5703 60.2539 -31.25 60.2539 -26.9043 C 60.2539 -21.0938 56.543 -17.334 50.1465 -16.6016 L 50.1465 -13.5742 C 50.1465 -12.4023 49.2676 -11.5234 48.0957 -11.5234 C 46.9238 -11.5234 46.0449 -12.4023 46.0449 -13.5742 L 46.0449 -16.4551 L 43.6523 -16.4551 L 43.6523 -13.5742 C 43.6523 -12.4023 42.8223 -11.5234 41.6016 -11.5234 C 40.4297 -11.5234 39.5996 -12.4023 39.5996 -13.5742 L 39.5996 -16.4551 L 38.4277 -16.4551 C 36.377 -16.4551 35.0098 -17.8223 35.0098 -19.8242 Z M 40.5762 -37.6953 L 45.459 -37.6465 C 50.3906 -37.5977 52.9785 -39.502 52.9785 -43.0176 C 52.9785 -46.1426 50.7812 -47.8516 46.7285 -47.8516 L 40.5762 -47.8516 Z M 40.5762 -21.4355 L 47.0703 -21.4844 C 52.1484 -21.5332 54.7363 -23.3887 54.7363 -27.0996 C 54.7363 -30.8594 52.0508 -32.7148 46.6309 -32.7148 L 40.5762 -32.7148 Z"/>
  </g>
  <g id="Light-S" transform="matrix(1 0 0 1 1107.6 696)">
   <path d="M 45.5078 3.41797 C 66.6992 3.41797 84.2285 -14.0625 84.2285 -35.2539 C 84.2285 -56.4453 66.6504 -73.9258 45.5078 -73.9258 C 24.3164 -73.9258 6.83594 -56.4453 6.83594 -35.2539 C 6.83594 -14.0625 24.3652 3.41797 45.5078 3.41797 Z M 35.0586 -19.9219 L 35.0586 -49.4629 C 35.0586 -51.0742 36.1816 -52.1484 37.7441 -52.1484 L 39.7461 -52.1484 L 39.7461 -55.1758 C 39.7461 -56.1523 40.4785 -56.8848 41.4062 -56.8848 C 42.3828 -56.8848 43.1152 -56.1523 43.1152 -55.1758 L 43.1152 -52.1484 L 45.6055 -52.1484 L 45.6055 -55.1758 C 45.6055 -56.1523 46.3867 -56.8848 47.3145 -56.8848 C 48.291 -56.8848 49.0234 -56.1523 49.0234 -55.1758 L 49.0234 -52.002 C 54.1016 -51.3184 57.4219 -47.9492 57.4219 -43.2617 C 57.4219 -40.0391 55.4688 -37.0117 52.5879 -35.6934 C 56.4941 -34.4727 59.082 -31.2988 59.082 -27.0996 C 59.082 -21.582 55.3711 -17.9688 49.0234 -17.334 L 49.0234 -14.1113 C 49.0234 -13.0859 48.291 -12.3535 47.3145 -12.3535 C 46.3867 -12.3535 45.6055 -13.0859 45.6055 -14.1113 L 45.6055 -17.2363 L 43.1152 -17.2363 L 43.1152 -14.1113 C 43.1152 -13.0859 42.3828 -12.3535 41.4062 -12.3535 C 40.4785 -12.3535 39.7461 -13.0859 39.7461 -14.1113 L 39.7461 -17.2363 L 37.7441 -17.2363 C 36.1328 -17.2363 35.0586 -18.3105 35.0586 -19.9219 Z M 39.4531 -37.2559 L 45.3613 -37.207 C 50.1953 -37.207 52.9785 -39.3066 52.9785 -42.9688 C 52.9785 -46.2402 50.4883 -48.1934 46.2891 -48.1934 L 39.4531 -48.1934 Z M 39.4531 -21.2891 L 46.6309 -21.2891 C 51.8555 -21.3379 54.6875 -23.3887 54.6875 -27.2461 C 54.6875 -31.1523 51.709 -33.252 46.1914 -33.252 L 39.4531 -33.252 Z"/>
  </g>
  <g id="Thin-S" transform="matrix(1 0 0 1 811.867 696)">
   <path d="M 44.5801 2.49023 C 65.2832 2.49023 82.2754 -14.5508 82.2754 -35.2539 C 82.2754 -55.957 65.2344 -72.998 44.5312 -72.998 C 23.8281 -72.998 6.83594 -55.957 6.83594 -35.2539 C 6.83594 -14.5508 23.877 2.49023 44.5801 2.49023 Z M 35.1074 -20.0195 L 35.1074 -49.5117 C 35.1074 -50.5859 35.8398 -51.2695 36.8652 -51.2695 L 39.8926 -51.2695 L 39.8926 -54.4434 C 39.8926 -55.2246 40.4785 -55.7129 41.1621 -55.7129 C 41.8457 -55.7129 42.3828 -55.2246 42.3828 -54.4434 L 42.3828 -51.2695 L 45.0684 -51.2695 L 45.0684 -54.4434 C 45.0684 -55.2246 45.6543 -55.7129 46.2891 -55.7129 C 46.9727 -55.7129 47.5098 -55.2246 47.5098 -54.4434 L 47.5098 -51.1719 C 52.6367 -50.6836 55.957 -47.4609 55.957 -42.9199 C 55.957 -39.7461 54.1016 -36.8652 51.1719 -35.5469 C 54.9316 -34.375 57.5684 -31.3965 57.5684 -27.3438 C 57.5684 -22.2168 53.8086 -18.75 47.5098 -18.3594 L 47.5098 -14.7949 C 47.5098 -14.0137 46.9727 -13.4766 46.2891 -13.4766 C 45.6543 -13.4766 45.0684 -14.0137 45.0684 -14.7949 L 45.0684 -18.3105 L 42.3828 -18.3105 L 42.3828 -14.7949 C 42.3828 -14.0137 41.8457 -13.4766 41.1621 -13.4766 C 40.4785 -13.4766 39.8926 -14.0137 39.8926 -14.7949 L 39.8926 -18.3105 L 36.8652 -18.3105 C 35.8398 -18.3105 35.1074 -18.9941 35.1074 -20.0195 Z M 37.9395 -36.6699 L 45.2637 -36.6699 C 49.9512 -36.6211 52.9297 -39.0137 52.9297 -42.8711 C 52.9297 -46.3867 50.0977 -48.584 45.7031 -48.584 L 37.9395 -48.584 Z M 37.9395 -21.0449 L 46.0449 -21.0449 C 51.416 -21.0938 54.6875 -23.4375 54.6875 -27.4414 C 54.6875 -31.543 51.3184 -33.9355 45.6055 -33.9355 L 37.9395 -33.9355 Z"/>
  </g>
  <g id="Ultralight-S" transform="matrix(1 0 0 1 515.644 696)">
   <path d="M 44.043 1.95312 C 64.502 1.95312 81.2988 -14.7949 81.2988 -35.2539 C 81.2988 -55.7129 64.502 -72.4609 44.043 -72.4609 C 23.584 -72.4609 6.83594 -55.7129 6.83594 -35.2539 C 6.83594 -14.7949 23.584 1.95312 44.043 1.95312 Z M 35.1562 -20.1172 L 35.1562 -49.5605 C 35.1562 -50.293 35.6934 -50.7812 36.4258 -50.7812 L 40.0391 -50.7812 L 40.0391 -54.0527 C 40.0391 -54.6875 40.5273 -55.127 41.0645 -55.127 C 41.5527 -55.127 42.041 -54.6875 42.041 -54.0527 L 42.041 -50.7812 L 44.7266 -50.7812 L 44.7266 -54.0527 C 44.7266 -54.6875 45.2637 -55.127 45.752 -55.127 C 46.2891 -55.127 46.7773 -54.6875 46.7773 -54.0527 L 46.7773 -50.7324 C 51.8555 -50.3418 55.2246 -47.168 55.2246 -42.7734 C 55.2246 -39.5996 53.418 -36.7676 50.4395 -35.4492 C 54.1504 -34.3262 56.7871 -31.4453 56.7871 -27.4902 C 56.7871 -22.5098 53.0273 -19.1895 46.7773 -18.8965 L 46.7773 -15.1367 C 46.7773 -14.502 46.2891 -14.0625 45.752 -14.0625 C 45.2637 -14.0625 44.7266 -14.502 44.7266 -15.1367 L 44.7266 -18.8477 L 42.041 -18.8477 L 42.041 -15.1367 C 42.041 -14.502 41.5527 -14.0625 41.0645 -14.0625 C 40.5273 -14.0625 40.0391 -14.502 40.0391 -15.1367 L 40.0391 -18.8477 L 36.4258 -18.8477 C 35.6934 -18.8477 35.1562 -19.3359 35.1562 -20.1172 Z M 37.207 -36.3281 L 45.166 -36.3281 C 49.8047 -36.3281 52.9297 -38.8672 52.9297 -42.8223 C 52.9297 -46.4844 49.9023 -48.8281 45.3613 -48.8281 L 37.207 -48.8281 Z M 37.207 -20.9473 L 45.7031 -20.9473 C 51.2207 -20.9473 54.6387 -23.4375 54.6387 -27.5391 C 54.6387 -31.7383 51.0742 -34.2773 45.2637 -34.2773 L 37.207 -34.2773 Z"/>
  </g>
 </g>
</svg>
