<?xml version="1.0" encoding="UTF-8"?>
<!--Generator: Apple Native CoreSVG 148-->
<!DOCTYPE svg
PUBLIC "-//W3C//DTD SVG 1.1//EN"
       "http://www.w3.org/Graphics/SVG/1.1/DTD/svg11.dtd">
<svg version="1.1" xmlns="http://www.w3.org/2000/svg" xmlns:xlink="http://www.w3.org/1999/xlink" width="3300" height="2200">
 <!--glyph: "uni100099.medium", point size: 100.000000, font version: "Version 16.0d11e1", template writer version: "8"-->
 <g id="Notes">
  <rect height="2200" id="artboard" style="fill:white;opacity:1" width="3300" x="0" y="0"/>
  <line id="" style="fill:none;stroke:black;opacity:1;stroke-width:0.5;" x1="263" x2="3036" y1="292" y2="292"/>
  <text style="stroke:none;fill:black;font-family:-apple-system,&quot;SF Pro Display&quot;,&quot;SF Pro Text&quot;,Helvetica,sans-serif;font-weight:bold;" transform="matrix(1 0 0 1 263 322)">Weight/Scale Variations</text>
  <text style="stroke:none;fill:black;font-family:-apple-system,&quot;SF Pro Display&quot;,&quot;SF Pro Text&quot;,Helvetica,sans-serif;text-anchor:middle;" transform="matrix(1 0 0 1 559.711 322)">Ultralight</text>
  <text style="stroke:none;fill:black;font-family:-apple-system,&quot;SF Pro Display&quot;,&quot;SF Pro Text&quot;,Helvetica,sans-serif;text-anchor:middle;" transform="matrix(1 0 0 1 856.422 322)">Thin</text>
  <text style="stroke:none;fill:black;font-family:-apple-system,&quot;SF Pro Display&quot;,&quot;SF Pro Text&quot;,Helvetica,sans-serif;text-anchor:middle;" transform="matrix(1 0 0 1 1153.13 322)">Light</text>
  <text style="stroke:none;fill:black;font-family:-apple-system,&quot;SF Pro Display&quot;,&quot;SF Pro Text&quot;,Helvetica,sans-serif;text-anchor:middle;" transform="matrix(1 0 0 1 1449.84 322)">Regular</text>
  <text style="stroke:none;fill:black;font-family:-apple-system,&quot;SF Pro Display&quot;,&quot;SF Pro Text&quot;,Helvetica,sans-serif;text-anchor:middle;" transform="matrix(1 0 0 1 1746.56 322)">Medium</text>
  <text style="stroke:none;fill:black;font-family:-apple-system,&quot;SF Pro Display&quot;,&quot;SF Pro Text&quot;,Helvetica,sans-serif;text-anchor:middle;" transform="matrix(1 0 0 1 2043.27 322)">Semibold</text>
  <text style="stroke:none;fill:black;font-family:-apple-system,&quot;SF Pro Display&quot;,&quot;SF Pro Text&quot;,Helvetica,sans-serif;text-anchor:middle;" transform="matrix(1 0 0 1 2339.98 322)">Bold</text>
  <text style="stroke:none;fill:black;font-family:-apple-system,&quot;SF Pro Display&quot;,&quot;SF Pro Text&quot;,Helvetica,sans-serif;text-anchor:middle;" transform="matrix(1 0 0 1 2636.69 322)">Heavy</text>
  <text style="stroke:none;fill:black;font-family:-apple-system,&quot;SF Pro Display&quot;,&quot;SF Pro Text&quot;,Helvetica,sans-serif;text-anchor:middle;" transform="matrix(1 0 0 1 2933.4 322)">Black</text>
  <line id="" style="fill:none;stroke:black;opacity:1;stroke-width:0.5;" x1="263" x2="3036" y1="1903" y2="1903"/>
  <g id="" transform="matrix(1 0 0 1 263 1933)">
   <path d="M 9.24805 0.830078 C 13.5547 0.830078 17.1387 -2.74414 17.1387 -7.05078 C 17.1387 -11.3574 13.5449 -14.9316 9.23828 -14.9316 C 4.94141 -14.9316 1.36719 -11.3574 1.36719 -7.05078 C 1.36719 -2.74414 4.95117 0.830078 9.24805 0.830078 Z M 9.24805 -0.654297 C 5.70312 -0.654297 2.87109 -3.49609 2.87109 -7.05078 C 2.87109 -10.6055 5.69336 -13.4473 9.23828 -13.4473 C 12.793 -13.4473 15.6348 -10.6055 15.6445 -7.05078 C 15.6543 -3.49609 12.8027 -0.654297 9.24805 -0.654297 Z M 9.22852 -3.62305 C 9.69727 -3.62305 9.9707 -3.93555 9.9707 -4.45312 L 9.9707 -6.31836 L 12.002 -6.31836 C 12.5 -6.31836 12.832 -6.57227 12.832 -7.04102 C 12.832 -7.51953 12.5195 -7.7832 12.002 -7.7832 L 9.9707 -7.7832 L 9.9707 -9.81445 C 9.9707 -10.332 9.69727 -10.6543 9.22852 -10.6543 C 8.75977 -10.6543 8.50586 -10.3125 8.50586 -9.81445 L 8.50586 -7.7832 L 6.49414 -7.7832 C 5.97656 -7.7832 5.64453 -7.51953 5.64453 -7.04102 C 5.64453 -6.57227 5.99609 -6.31836 6.49414 -6.31836 L 8.50586 -6.31836 L 8.50586 -4.45312 C 8.50586 -3.95508 8.75977 -3.62305 9.22852 -3.62305 Z"/>
  </g>
  <g id="" transform="matrix(1 0 0 1 281.506 1933)">
   <path d="M 11.709 2.91016 C 17.1582 2.91016 21.6699 -1.61133 21.6699 -7.05078 C 21.6699 -12.5 17.1484 -17.0117 11.6992 -17.0117 C 6.25977 -17.0117 1.74805 -12.5 1.74805 -7.05078 C 1.74805 -1.61133 6.26953 2.91016 11.709 2.91016 Z M 11.709 1.25 C 7.09961 1.25 3.41797 -2.44141 3.41797 -7.05078 C 3.41797 -11.6602 7.08984 -15.3516 11.6992 -15.3516 C 16.3086 -15.3516 20 -11.6602 20.0098 -7.05078 C 20.0195 -2.44141 16.3184 1.25 11.709 1.25 Z M 11.6797 -2.66602 C 12.207 -2.66602 12.5098 -3.01758 12.5098 -3.59375 L 12.5098 -6.23047 L 15.3223 -6.23047 C 15.8691 -6.23047 16.25 -6.51367 16.25 -7.03125 C 16.25 -7.55859 15.8887 -7.86133 15.3223 -7.86133 L 12.5098 -7.86133 L 12.5098 -10.6836 C 12.5098 -11.25 12.207 -11.6113 11.6797 -11.6113 C 11.1621 -11.6113 10.8789 -11.2305 10.8789 -10.6836 L 10.8789 -7.86133 L 8.07617 -7.86133 C 7.50977 -7.86133 7.13867 -7.55859 7.13867 -7.03125 C 7.13867 -6.51367 7.5293 -6.23047 8.07617 -6.23047 L 10.8789 -6.23047 L 10.8789 -3.59375 C 10.8789 -3.03711 11.1621 -2.66602 11.6797 -2.66602 Z"/>
  </g>
  <g id="" transform="matrix(1 0 0 1 304.924 1933)">
   <path d="M 14.9707 5.66406 C 21.9336 5.66406 27.6953 -0.0976562 27.6953 -7.05078 C 27.6953 -14.0137 21.9238 -19.7754 14.9609 -19.7754 C 8.00781 -19.7754 2.25586 -14.0137 2.25586 -7.05078 C 2.25586 -0.0976562 8.01758 5.66406 14.9707 5.66406 Z M 14.9707 3.84766 C 8.93555 3.84766 4.08203 -1.01562 4.08203 -7.05078 C 4.08203 -13.0957 8.92578 -17.9492 14.9609 -17.9492 C 21.0059 -17.9492 25.8594 -13.0957 25.8691 -7.05078 C 25.8789 -1.01562 21.0156 3.84766 14.9707 3.84766 Z M 14.9414 -1.38672 C 15.5176 -1.38672 15.8594 -1.77734 15.8594 -2.38281 L 15.8594 -6.13281 L 19.7754 -6.13281 C 20.3711 -6.13281 20.7812 -6.46484 20.7812 -7.02148 C 20.7812 -7.59766 20.3906 -7.93945 19.7754 -7.93945 L 15.8594 -7.93945 L 15.8594 -11.8652 C 15.8594 -12.4805 15.5176 -12.8711 14.9414 -12.8711 C 14.375 -12.8711 14.0527 -12.4609 14.0527 -11.8652 L 14.0527 -7.93945 L 10.1465 -7.93945 C 9.53125 -7.93945 9.13086 -7.59766 9.13086 -7.02148 C 9.13086 -6.46484 9.55078 -6.13281 10.1465 -6.13281 L 14.0527 -6.13281 L 14.0527 -2.38281 C 14.0527 -1.79688 14.375 -1.38672 14.9414 -1.38672 Z"/>
  </g>
  <text style="stroke:none;fill:black;font-family:-apple-system,&quot;SF Pro Display&quot;,&quot;SF Pro Text&quot;,Helvetica,sans-serif;font-weight:bold;" transform="matrix(1 0 0 1 263 1953)">Design Variations</text>
  <text style="stroke:none;fill:black;font-family:-apple-system,&quot;SF Pro Display&quot;,&quot;SF Pro Text&quot;,Helvetica,sans-serif;" transform="matrix(1 0 0 1 263 1971)">Symbols are supported in up to nine weights and three scales.</text>
  <text style="stroke:none;fill:black;font-family:-apple-system,&quot;SF Pro Display&quot;,&quot;SF Pro Text&quot;,Helvetica,sans-serif;" transform="matrix(1 0 0 1 263 1989)">For optimal layout with text and other symbols, vertically align</text>
  <text style="stroke:none;fill:black;font-family:-apple-system,&quot;SF Pro Display&quot;,&quot;SF Pro Text&quot;,Helvetica,sans-serif;" transform="matrix(1 0 0 1 263 2007)">symbols with the adjacent text.</text>
  <line id="" style="fill:none;stroke:#00AEEF;stroke-width:0.5;opacity:1.0;" x1="776" x2="776" y1="1919" y2="1933"/>
  <g id="" transform="matrix(1 0 0 1 776 1933)">
   <path d="M 3.31055 0.126953 C 3.82812 0.126953 4.08203 -0.0683594 4.26758 -0.605469 L 5.52734 -4.0625 L 11.2891 -4.0625 L 12.5488 -0.605469 C 12.7344 -0.0683594 12.9883 0.126953 13.4961 0.126953 C 14.0137 0.126953 14.3457 -0.185547 14.3457 -0.673828 C 14.3457 -0.839844 14.3164 -0.986328 14.2383 -1.20117 L 9.6582 -13.3887 C 9.43359 -13.9941 9.0332 -14.2871 8.4082 -14.2871 C 7.80273 -14.2871 7.39258 -13.9941 7.17773 -13.3984 L 2.59766 -1.19141 C 2.51953 -0.976562 2.49023 -0.830078 2.49023 -0.664062 C 2.49023 -0.175781 2.80273 0.126953 3.31055 0.126953 Z M 6.00586 -5.53711 L 8.37891 -12.1094 L 8.42773 -12.1094 L 10.8008 -5.53711 Z"/>
  </g>
  <line id="" style="fill:none;stroke:#00AEEF;stroke-width:0.5;opacity:1.0;" x1="792.836" x2="792.836" y1="1919" y2="1933"/>
  <text style="stroke:none;fill:black;font-family:-apple-system,&quot;SF Pro Display&quot;,&quot;SF Pro Text&quot;,Helvetica,sans-serif;font-weight:bold;" transform="matrix(1 0 0 1 776 1953)">Margins</text>
  <text style="stroke:none;fill:black;font-family:-apple-system,&quot;SF Pro Display&quot;,&quot;SF Pro Text&quot;,Helvetica,sans-serif;" transform="matrix(1 0 0 1 776 1971)">Leading and trailing margins on the left and right side of each symbol</text>
  <text style="stroke:none;fill:black;font-family:-apple-system,&quot;SF Pro Display&quot;,&quot;SF Pro Text&quot;,Helvetica,sans-serif;" transform="matrix(1 0 0 1 776 1989)">can be adjusted by modifying the x-location of the margin guidelines.</text>
  <text style="stroke:none;fill:black;font-family:-apple-system,&quot;SF Pro Display&quot;,&quot;SF Pro Text&quot;,Helvetica,sans-serif;" transform="matrix(1 0 0 1 776 2007)">Modifications are automatically applied proportionally to all</text>
  <text style="stroke:none;fill:black;font-family:-apple-system,&quot;SF Pro Display&quot;,&quot;SF Pro Text&quot;,Helvetica,sans-serif;" transform="matrix(1 0 0 1 776 2025)">scales and weights.</text>
  <g id="" transform="matrix(1 0 0 1 1289 1933)">
   <path d="M 2.8418 1.86523 L 4.54102 3.57422 C 5.40039 4.44336 6.38672 4.38477 7.31445 3.35938 L 17.4902 -7.85156 C 17.7539 -7.76367 18.0273 -7.7832 18.3398 -7.8418 L 19.4043 -8.03711 L 20.0684 -7.36328 L 20.0293 -6.80664 C 19.9902 -6.30859 20.1172 -5.92773 20.6055 -5.44922 L 21.3672 -4.70703 C 21.8457 -4.22852 22.4609 -4.19922 22.9297 -4.66797 L 25.8398 -7.58789 C 26.3086 -8.05664 26.2891 -8.65234 25.8105 -9.13086 L 25.0391 -9.89258 C 24.5605 -10.3711 24.1895 -10.5273 23.7109 -10.4883 L 23.1348 -10.4395 L 22.4902 -11.0742 L 22.7344 -12.1973 C 22.8613 -12.7637 22.7051 -13.2031 22.1191 -13.7891 L 19.9219 -15.9766 C 16.582 -19.2969 12.1484 -19.2188 9.25781 -16.3281 C 8.83789 -15.918 8.80859 -15.3418 9.04297 -14.9512 C 9.27734 -14.5898 9.73633 -14.3555 10.3809 -14.5215 C 11.8457 -14.8633 13.3691 -14.9219 14.7949 -13.9844 L 14.209 -12.5293 C 14.0137 -12.0508 13.9844 -11.6504 14.1113 -11.2891 L 3.04688 -0.898438 C 2.06055 0.0195312 1.98242 0.996094 2.8418 1.86523 Z M 10.752 -15.957 C 13.1836 -17.7344 16.4746 -17.4316 18.7012 -15.2051 L 21.1328 -12.793 C 21.3672 -12.5586 21.4062 -12.373 21.3379 -12.0312 L 21.0156 -10.5469 L 22.5195 -9.0625 L 23.5059 -9.12109 C 23.7598 -9.13086 23.8379 -9.11133 24.0332 -8.91602 L 24.6094 -8.33984 L 22.168 -5.89844 L 21.5918 -6.47461 C 21.3965 -6.66992 21.3672 -6.74805 21.377 -7.01172 L 21.4453 -7.98828 L 19.9512 -9.47266 L 18.4277 -9.21875 C 18.1055 -9.15039 17.959 -9.17969 17.7148 -9.41406 L 15.7129 -11.416 C 15.459 -11.6504 15.4297 -11.8164 15.5859 -12.1875 L 16.4648 -14.2773 C 14.9023 -15.7324 12.8711 -16.3574 10.8398 -15.7617 C 10.6836 -15.7227 10.625 -15.8496 10.752 -15.957 Z M 5.27344 2.30469 L 4.10156 1.14258 C 3.63281 0.683594 3.74023 0.341797 4.14062 -0.0195312 L 14.9512 -10.1953 L 16.416 -8.71094 L 6.42578 2.27539 C 6.07422 2.67578 5.74219 2.77344 5.27344 2.30469 Z"/>
  </g>
  <text style="stroke:none;fill:black;font-family:-apple-system,&quot;SF Pro Display&quot;,&quot;SF Pro Text&quot;,Helvetica,sans-serif;font-weight:bold;" transform="matrix(1 0 0 1 1289 1953)">Exporting</text>
  <text style="stroke:none;fill:black;font-family:-apple-system,&quot;SF Pro Display&quot;,&quot;SF Pro Text&quot;,Helvetica,sans-serif;" transform="matrix(1 0 0 1 1289 1971)">Symbols should be outlined when exporting to ensure the</text>
  <text style="stroke:none;fill:black;font-family:-apple-system,&quot;SF Pro Display&quot;,&quot;SF Pro Text&quot;,Helvetica,sans-serif;" transform="matrix(1 0 0 1 1289 1989)">design is preserved when submitting to Xcode.</text>
  <text id="template-version" style="stroke:none;fill:black;font-family:-apple-system,&quot;SF Pro Display&quot;,&quot;SF Pro Text&quot;,Helvetica,sans-serif;text-anchor:end;" transform="matrix(1 0 0 1 3036 1933)">Template v.2.0</text>
  <text style="stroke:none;fill:black;font-family:-apple-system,&quot;SF Pro Display&quot;,&quot;SF Pro Text&quot;,Helvetica,sans-serif;text-anchor:end;" transform="matrix(1 0 0 1 3036 1951)">Requires Xcode 12 or greater</text>
  <text style="stroke:none;fill:black;font-family:-apple-system,&quot;SF Pro Display&quot;,&quot;SF Pro Text&quot;,Helvetica,sans-serif;text-anchor:end;" transform="matrix(1 0 0 1 3036 1969)">Generated from c.square.fill</text>
  <text style="stroke:none;fill:black;font-family:-apple-system,&quot;SF Pro Display&quot;,&quot;SF Pro Text&quot;,Helvetica,sans-serif;text-anchor:end;" transform="matrix(1 0 0 1 3036 1987)">Typeset at 100 points</text>
  <text style="stroke:none;fill:black;font-family:-apple-system,&quot;SF Pro Display&quot;,&quot;SF Pro Text&quot;,Helvetica,sans-serif;" transform="matrix(1 0 0 1 263 726)">Small</text>
  <text style="stroke:none;fill:black;font-family:-apple-system,&quot;SF Pro Display&quot;,&quot;SF Pro Text&quot;,Helvetica,sans-serif;" transform="matrix(1 0 0 1 263 1156)">Medium</text>
  <text style="stroke:none;fill:black;font-family:-apple-system,&quot;SF Pro Display&quot;,&quot;SF Pro Text&quot;,Helvetica,sans-serif;" transform="matrix(1 0 0 1 263 1586)">Large</text>
 </g>
 <g id="Guides">
  <g id="H-reference" style="fill:#27AAE1;stroke:none;" transform="matrix(1 0 0 1 339 696)">
   <path d="M 0.976562 0 L 3.66211 0 L 12.9883 -24.4629 L 45.7031 -24.4629 L 55.0781 0 L 57.7148 0 L 30.6152 -70.459 L 28.125 -70.459 Z M 29.2969 -67.1387 L 29.3945 -67.1387 L 44.873 -26.709 L 13.8672 -26.709 Z"/>
  </g>
  <line id="Baseline-S" style="fill:none;stroke:#27AAE1;opacity:1;stroke-width:0.5;" x1="263" x2="3036" y1="696" y2="696"/>
  <line id="Capline-S" style="fill:none;stroke:#27AAE1;opacity:1;stroke-width:0.5;" x1="263" x2="3036" y1="625.541" y2="625.541"/>
  <g id="H-reference" style="fill:#27AAE1;stroke:none;" transform="matrix(1 0 0 1 339 1126)">
   <path d="M 0.976562 0 L 3.66211 0 L 12.9883 -24.4629 L 45.7031 -24.4629 L 55.0781 0 L 57.7148 0 L 30.6152 -70.459 L 28.125 -70.459 Z M 29.2969 -67.1387 L 29.3945 -67.1387 L 44.873 -26.709 L 13.8672 -26.709 Z"/>
  </g>
  <line id="Baseline-M" style="fill:none;stroke:#27AAE1;opacity:1;stroke-width:0.5;" x1="263" x2="3036" y1="1126" y2="1126"/>
  <line id="Capline-M" style="fill:none;stroke:#27AAE1;opacity:1;stroke-width:0.5;" x1="263" x2="3036" y1="1055.54" y2="1055.54"/>
  <g id="H-reference" style="fill:#27AAE1;stroke:none;" transform="matrix(1 0 0 1 339 1556)">
   <path d="M 0.976562 0 L 3.66211 0 L 12.9883 -24.4629 L 45.7031 -24.4629 L 55.0781 0 L 57.7148 0 L 30.6152 -70.459 L 28.125 -70.459 Z M 29.2969 -67.1387 L 29.3945 -67.1387 L 44.873 -26.709 L 13.8672 -26.709 Z"/>
  </g>
  <line id="Baseline-L" style="fill:none;stroke:#27AAE1;opacity:1;stroke-width:0.5;" x1="263" x2="3036" y1="1556" y2="1556"/>
  <line id="Capline-L" style="fill:none;stroke:#27AAE1;opacity:1;stroke-width:0.5;" x1="263" x2="3036" y1="1485.54" y2="1485.54"/>
  <line id="left-margin" style="fill:none;stroke:#00AEEF;stroke-width:0.5;opacity:1.0;" x1="1392.45" x2="1392.45" y1="1030.79" y2="1150.12"/>
  <line id="right-margin" style="fill:none;stroke:#00AEEF;stroke-width:0.5;opacity:1.0;" x1="1507.24" x2="1507.24" y1="1030.79" y2="1150.12"/>
 </g>
 <g id="Symbols">
  <g id="Black-L" transform="matrix(1 0 0 1 2855.62 1556)">
   <path d="M 39.9902 26.5137 L 115.576 26.5137 C 130.811 26.5137 139.502 17.8711 139.502 2.68555 L 139.502 -73.0957 C 139.502 -88.2812 130.811 -96.875 115.576 -96.875 L 39.9902 -96.875 C 24.7559 -96.875 16.0645 -88.2812 16.0645 -73.0957 L 16.0645 2.68555 C 16.0645 17.8711 24.7559 26.5137 39.9902 26.5137 Z M 78.0762 -4.15039 C 59.8633 -4.15039 47.998 -16.5039 47.998 -35.3516 C 47.998 -54.1992 59.8633 -66.5527 78.0762 -66.5527 C 90.0391 -66.5527 100.049 -61.1328 103.662 -52.5391 C 104.395 -51.0254 104.688 -49.5117 104.688 -47.7539 C 104.688 -42.8711 101.367 -39.9902 95.7031 -39.9902 C 91.6504 -39.9902 89.502 -41.3086 87.3047 -45.0195 C 85.4004 -48.4863 82.4219 -50.293 78.418 -50.293 C 71.9238 -50.293 68.0176 -44.6289 68.0176 -35.3516 C 68.0176 -26.0742 71.9238 -20.459 78.3691 -20.459 C 82.4219 -20.459 85.4004 -22.168 87.2559 -25.5371 C 89.2578 -29.0527 91.7969 -30.5176 95.7031 -30.5176 C 101.367 -30.5176 104.688 -27.6367 104.688 -22.8027 C 104.688 -21.0938 104.395 -19.4824 103.662 -18.0176 C 100.049 -9.47266 90.1855 -4.15039 78.0762 -4.15039 Z"/>
  </g>
  <g id="Heavy-L" transform="matrix(1 0 0 1 2559.93 1556)">
   <path d="M 38.8184 25.4883 L 114.697 25.4883 C 129.346 25.4883 137.451 17.4316 137.451 2.88086 L 137.451 -73.2422 C 137.451 -87.793 129.346 -95.8496 114.697 -95.8496 L 38.8184 -95.8496 C 24.2188 -95.8496 16.0645 -87.793 16.0645 -73.2422 L 16.0645 2.88086 C 16.0645 17.4316 24.2188 25.4883 38.8184 25.4883 Z M 77.0508 -4.39453 C 59.2773 -4.39453 47.7051 -16.6504 47.7051 -35.4492 C 47.7051 -54.1992 59.2773 -66.5039 77.0508 -66.5039 C 88.8672 -66.5039 98.6328 -60.9863 102.1 -52.3438 C 102.734 -50.9277 102.979 -49.6094 102.979 -48.0469 C 102.979 -43.7988 100.098 -41.2109 95.166 -41.2109 C 91.6504 -41.2109 89.7461 -42.4316 87.8906 -45.752 C 85.8887 -50 82.2266 -52.2949 77.3438 -52.2949 C 69.8242 -52.2949 65.1367 -45.752 65.1367 -35.4492 C 65.1367 -25.0977 69.8242 -18.6035 77.2949 -18.6035 C 82.2266 -18.6035 85.8887 -20.8496 87.8418 -25 C 89.5996 -28.1738 91.7969 -29.541 95.166 -29.541 C 100.098 -29.541 102.979 -26.9531 102.979 -22.7051 C 102.979 -21.1914 102.734 -19.7754 102.1 -18.4082 C 98.6328 -9.81445 88.9648 -4.39453 77.0508 -4.39453 Z"/>
  </g>
  <g id="Bold-L" transform="matrix(1 0 0 1 2264.37 1556)">
   <path d="M 37.5 24.3652 L 113.721 24.3652 C 127.637 24.3652 135.156 16.8945 135.156 3.07617 L 135.156 -73.3887 C 135.156 -87.207 127.637 -94.7266 113.721 -94.7266 L 37.5 -94.7266 C 23.6328 -94.7266 16.0645 -87.2559 16.0645 -73.3887 L 16.0645 3.07617 C 16.0645 16.8945 23.6328 24.3652 37.5 24.3652 Z M 75.9277 -4.6875 C 58.5938 -4.6875 47.4121 -16.8457 47.4121 -35.498 C 47.4121 -54.1992 58.6426 -66.4062 75.9277 -66.4062 C 87.5 -66.4062 97.0703 -60.8398 100.342 -52.1973 C 100.879 -50.8301 101.074 -49.7559 101.074 -48.4375 C 101.074 -44.7754 98.6816 -42.627 94.6289 -42.627 C 91.6992 -42.627 90.0879 -43.7012 88.5254 -46.5332 C 86.4258 -51.6602 82.0312 -54.541 76.123 -54.541 C 67.5293 -54.541 61.9141 -47.0215 61.9141 -35.498 C 61.9141 -24.0234 67.5293 -16.5527 76.0742 -16.5527 C 82.0312 -16.5527 86.4258 -19.3848 88.5254 -24.4141 C 89.9414 -27.1973 91.7969 -28.3691 94.6289 -28.3691 C 98.6816 -28.3691 101.074 -26.1719 101.074 -22.5586 C 101.074 -21.2891 100.879 -20.1172 100.342 -18.7988 C 97.1191 -10.1562 87.5977 -4.6875 75.9277 -4.6875 Z"/>
  </g>
  <g id="Semibold-L" transform="matrix(1 0 0 1 1968.44 1556)">
   <path d="M 36.6211 23.584 L 113.037 23.584 C 126.514 23.584 133.594 16.5039 133.594 3.17383 L 133.594 -73.5352 C 133.594 -86.8164 126.514 -93.9453 113.037 -93.9453 L 36.6211 -93.9453 C 23.1934 -93.9453 16.0645 -86.8652 16.0645 -73.5352 L 16.0645 3.17383 C 16.0645 16.5527 23.1934 23.584 36.6211 23.584 Z M 75.0977 -4.83398 C 58.1543 -4.83398 47.168 -16.9434 47.168 -35.5957 C 47.168 -54.1992 58.2031 -66.3574 75.0977 -66.3574 C 86.5723 -66.3574 95.9961 -60.6934 99.1211 -52.0508 C 99.5605 -50.7812 99.707 -49.8535 99.707 -48.6816 C 99.707 -45.459 97.6562 -43.5547 94.2383 -43.5547 C 91.748 -43.5547 90.2832 -44.5801 89.0137 -47.1191 C 86.8164 -52.832 81.8848 -56.1035 75.293 -56.1035 C 65.918 -56.1035 59.668 -47.9004 59.668 -35.5957 C 59.668 -23.2422 65.918 -15.0879 75.2441 -15.0879 C 81.8848 -15.0879 86.8164 -18.3594 88.9648 -24.0234 C 90.2344 -26.5137 91.7969 -27.5879 94.2383 -27.5879 C 97.6562 -27.5879 99.707 -25.6836 99.707 -22.4609 C 99.707 -21.3379 99.5605 -20.3125 99.1211 -19.0918 C 96.0449 -10.4004 86.6699 -4.83398 75.0977 -4.83398 Z"/>
  </g>
  <g id="Medium-L" transform="matrix(1 0 0 1 1672.31 1556)">
   <path d="M 35.9375 22.998 L 112.5 22.998 C 125.635 22.998 132.422 16.2109 132.422 3.27148 L 132.422 -73.6328 C 132.422 -86.5234 125.635 -93.3105 112.5 -93.3105 L 35.9375 -93.3105 C 22.9004 -93.3105 16.0645 -86.5723 16.0645 -73.6328 L 16.0645 3.27148 C 16.0645 16.2598 22.9004 22.998 35.9375 22.998 Z M 74.5117 -4.98047 C 57.8125 -4.98047 47.0215 -17.041 47.0215 -35.6445 C 47.0215 -54.1992 57.8125 -66.3086 74.5117 -66.3086 C 85.8398 -66.3086 95.2148 -60.6445 98.1934 -51.9531 C 98.584 -50.7324 98.7305 -49.9512 98.7305 -48.877 C 98.7305 -45.9961 96.9238 -44.2871 93.9453 -44.2871 C 91.748 -44.2871 90.4785 -45.2148 89.3555 -47.5098 C 87.1094 -53.7109 81.7871 -57.2754 74.6582 -57.2754 C 64.6973 -57.2754 58.0078 -48.584 58.0078 -35.6445 C 58.0078 -22.7051 64.6973 -14.0137 74.6582 -14.0137 C 81.7871 -14.0137 87.0605 -17.5781 89.3066 -23.7305 C 90.4297 -26.0254 91.7969 -27.002 93.9453 -27.002 C 96.9238 -27.002 98.7305 -25.2441 98.7305 -22.3633 C 98.7305 -21.3867 98.584 -20.5078 98.1934 -19.2871 C 95.2148 -10.5957 85.9375 -4.98047 74.5117 -4.98047 Z"/>
  </g>
  <g id="Regular-L" transform="matrix(1 0 0 1 1376.38 1556)">
   <path d="M 35.0586 22.2168 L 111.816 22.2168 C 124.463 22.2168 130.859 15.8691 130.859 3.41797 L 130.859 -73.7305 C 130.859 -86.1816 124.463 -92.5293 111.816 -92.5293 L 35.0586 -92.5293 C 22.4609 -92.5293 16.0645 -86.2305 16.0645 -73.7305 L 16.0645 3.41797 C 16.0645 15.918 22.4609 22.2168 35.0586 22.2168 Z M 73.7305 -5.17578 C 57.3242 -5.17578 46.7773 -17.1875 46.7773 -35.6934 C 46.7773 -54.1992 57.373 -66.2598 73.7305 -66.2598 C 84.9609 -66.2598 94.1406 -60.498 96.9727 -51.8555 C 97.3145 -50.6836 97.4121 -50.0488 97.4121 -49.1211 C 97.4121 -46.6797 95.9473 -45.2148 93.5547 -45.2148 C 91.7969 -45.2148 90.6738 -46.0938 89.7949 -48.0957 C 87.5 -54.834 81.6406 -58.7891 73.8281 -58.7891 C 63.0859 -58.7891 55.8105 -49.4141 55.8105 -35.6934 C 55.8105 -21.9238 63.0859 -12.6465 73.8281 -12.6465 C 81.6406 -12.6465 87.4512 -16.5527 89.7949 -23.3398 C 90.6738 -25.3418 91.7969 -26.2207 93.5547 -26.2207 C 95.9473 -26.2207 97.4121 -24.7559 97.4121 -22.3145 C 97.4121 -21.4844 97.3145 -20.752 96.9727 -19.5801 C 94.1895 -10.8398 85.0098 -5.17578 73.7305 -5.17578 Z"/>
  </g>
  <g id="Light-L" transform="matrix(1 0 0 1 1080.5 1556)">
   <path d="M 34.0332 21.4355 L 111.23 21.4355 C 123.096 21.4355 129.199 15.2344 129.199 3.56445 L 129.199 -73.8281 C 129.199 -85.5469 123.096 -91.6992 111.23 -91.6992 L 34.0332 -91.6992 C 22.168 -91.6992 16.0645 -85.6445 16.0645 -73.8281 L 16.0645 3.56445 C 16.0645 15.3809 22.168 21.4355 34.0332 21.4355 Z M 73.0469 -5.71289 C 57.4219 -5.71289 47.1191 -17.5781 47.1191 -35.498 C 47.1191 -53.418 57.4707 -65.332 73.0469 -65.332 C 83.9355 -65.332 93.1641 -59.2285 95.459 -50.6348 C 95.752 -49.4629 95.8008 -48.9746 95.8008 -48.291 C 95.8008 -46.2891 94.7266 -45.1172 92.7734 -45.1172 C 91.3086 -45.1172 90.4297 -45.8496 89.7949 -47.5586 C 87.9883 -54.8828 81.5918 -59.4238 73.0957 -59.4238 C 61.8164 -59.4238 54.0527 -49.6582 54.0527 -35.498 C 54.0527 -21.3379 61.8164 -11.5723 73.0957 -11.5723 C 81.5918 -11.5723 87.9395 -16.1621 89.7949 -23.4863 C 90.4297 -25.1953 91.3086 -25.9277 92.7734 -25.9277 C 94.7266 -25.9277 95.8008 -24.7559 95.8008 -22.7539 C 95.8008 -22.1191 95.752 -21.582 95.459 -20.4102 C 93.2129 -11.7188 84.082 -5.71289 73.0469 -5.71289 Z"/>
  </g>
  <g id="Thin-L" transform="matrix(1 0 0 1 784.889 1556)">
   <path d="M 32.666 20.3613 L 110.352 20.3613 C 121.24 20.3613 127.002 14.4531 127.002 3.75977 L 127.002 -73.9746 C 127.002 -84.7168 121.24 -90.5762 110.352 -90.5762 L 32.666 -90.5762 C 21.7773 -90.5762 16.0645 -84.8633 16.0645 -73.9746 L 16.0645 3.75977 C 16.0645 14.6484 21.7773 20.3613 32.666 20.3613 Z M 72.1191 -6.44531 C 57.5684 -6.44531 47.5586 -18.1641 47.5586 -35.2539 C 47.5586 -52.3438 57.5684 -64.0625 72.1191 -64.0625 C 82.6172 -64.0625 91.8457 -57.5195 93.5059 -48.9746 C 93.6523 -47.8516 93.7012 -47.5586 93.7012 -47.168 C 93.7012 -45.8008 93.0664 -45.0195 91.7969 -45.0195 C 90.7227 -45.0195 90.0879 -45.5566 89.8438 -46.875 C 88.6719 -54.8828 81.543 -60.3027 72.168 -60.3027 C 60.1074 -60.3027 51.709 -50 51.709 -35.2539 C 51.709 -20.5078 60.1074 -10.2051 72.168 -10.2051 C 81.543 -10.2051 88.623 -15.625 89.8438 -23.6328 C 90.0879 -24.9512 90.7227 -25.4883 91.7969 -25.4883 C 93.0664 -25.4883 93.7012 -24.7559 93.7012 -23.3887 C 93.7012 -22.998 93.6523 -22.6562 93.5059 -21.5332 C 91.9434 -12.8418 82.8613 -6.44531 72.1191 -6.44531 Z"/>
  </g>
  <g id="Ultralight-L" transform="matrix(1 0 0 1 488.739 1556)">
   <path d="M 31.9824 19.7754 L 109.961 19.7754 C 120.312 19.7754 125.879 14.0625 125.879 3.85742 L 125.879 -74.0723 C 125.879 -84.2773 120.312 -89.9902 109.961 -89.9902 L 31.9824 -89.9902 C 21.582 -89.9902 16.0645 -84.4727 16.0645 -74.0723 L 16.0645 3.85742 C 16.0645 14.2578 21.582 19.7754 31.9824 19.7754 Z M 71.6797 -6.83594 C 57.6172 -6.83594 47.8027 -18.457 47.8027 -35.1074 C 47.8027 -51.8066 57.6172 -63.4277 71.6797 -63.4277 C 81.9336 -63.4277 91.2109 -56.6406 92.4805 -48.1445 C 92.627 -47.0215 92.5781 -46.8262 92.5781 -46.582 C 92.5781 -45.5078 92.2363 -44.9707 91.2598 -44.9707 C 90.3809 -44.9707 89.8926 -45.4102 89.8438 -46.5332 C 89.0137 -54.8828 81.543 -60.7422 71.6797 -60.7422 C 59.2773 -60.7422 50.4883 -50.1465 50.4883 -35.1074 C 50.4883 -20.1172 59.2773 -9.52148 71.6797 -9.52148 C 81.543 -9.52148 88.9648 -15.332 89.8438 -23.7305 C 89.8926 -24.8535 90.3809 -25.293 91.2598 -25.293 C 92.2363 -25.293 92.5781 -24.7559 92.5781 -23.6816 C 92.5781 -23.4375 92.627 -23.2422 92.4805 -22.1191 C 91.2598 -13.4277 82.2266 -6.83594 71.6797 -6.83594 Z"/>
  </g>
  <g id="Black-M" transform="matrix(1 0 0 1 2872.19 1126)">
   <path d="M 31.9824 13.5742 L 90.4297 13.5742 C 102.686 13.5742 109.961 6.29883 109.961 -5.95703 L 109.961 -64.4043 C 109.961 -76.6602 102.686 -83.9355 90.4297 -83.9355 L 31.9824 -83.9355 C 19.7266 -83.9355 12.4512 -76.6602 12.4512 -64.4043 L 12.4512 -5.95703 C 12.4512 6.29883 19.7266 13.5742 31.9824 13.5742 Z M 61.5234 -11.1328 C 47.2656 -11.1328 37.7441 -20.752 37.7441 -35.1074 C 37.7441 -49.5117 47.2656 -59.082 61.5234 -59.082 C 70.8984 -59.082 78.9062 -54.7852 81.6895 -48.1934 C 82.3242 -46.9238 82.5684 -45.5566 82.5684 -44.043 C 82.5684 -39.7461 79.5898 -37.2559 74.4141 -37.2559 C 70.7031 -37.2559 68.8477 -38.2812 66.8945 -41.6016 C 65.7715 -43.5059 64.1113 -44.5312 61.8652 -44.5312 C 57.9102 -44.5312 55.6641 -41.1133 55.6641 -35.1074 C 55.6641 -29.1016 57.9102 -25.6836 61.7676 -25.6836 C 64.1113 -25.6836 65.7715 -26.6602 66.7969 -28.4668 C 68.5547 -31.543 70.8984 -32.8125 74.4141 -32.8125 C 79.5898 -32.8125 82.5684 -30.2734 82.5684 -26.0254 C 82.5684 -24.5117 82.3242 -23.0469 81.6895 -21.875 C 78.9062 -15.332 70.9961 -11.1328 61.5234 -11.1328 Z"/>
  </g>
  <g id="Heavy-M" transform="matrix(1 0 0 1 2576.39 1126)">
   <path d="M 31.0059 12.6465 L 89.6484 12.6465 C 101.416 12.6465 108.154 5.9082 108.154 -5.81055 L 108.154 -64.5508 C 108.154 -76.2695 101.416 -83.0566 89.6484 -83.0566 L 31.0059 -83.0566 C 19.2383 -83.0566 12.4512 -76.3184 12.4512 -64.5508 L 12.4512 -5.81055 C 12.4512 5.9082 19.2383 12.6465 31.0059 12.6465 Z M 60.5957 -11.2305 C 46.582 -11.2305 37.3535 -20.8008 37.3535 -35.2539 C 37.3535 -49.707 46.582 -59.2773 60.5957 -59.2773 C 69.8242 -59.2773 77.6367 -54.9805 80.3711 -48.3398 C 80.9082 -47.168 81.1035 -45.9473 81.1035 -44.6289 C 81.1035 -40.8203 78.5156 -38.623 74.0723 -38.623 C 70.8984 -38.623 69.1895 -39.5996 67.5293 -42.4805 C 66.2109 -45.1172 63.916 -46.582 60.8398 -46.582 C 55.957 -46.582 52.9785 -42.2852 52.9785 -35.2539 C 52.9785 -28.2227 55.957 -23.9746 60.791 -23.9746 C 63.916 -23.9746 66.1621 -25.3418 67.4805 -27.8809 C 68.9941 -30.6152 71.0449 -31.7871 74.0723 -31.7871 C 78.5156 -31.7871 81.1035 -29.541 81.1035 -25.7324 C 81.1035 -24.4141 80.9082 -23.1445 80.3711 -22.0215 C 77.6367 -15.4297 69.9219 -11.2305 60.5957 -11.2305 Z"/>
  </g>
  <g id="Bold-M" transform="matrix(1 0 0 1 2280.68 1126)">
   <path d="M 29.8828 11.6699 L 88.7207 11.6699 C 99.9512 11.6699 106.152 5.46875 106.152 -5.66406 L 106.152 -64.6973 C 106.152 -75.8789 99.9512 -82.0312 88.7207 -82.0312 L 29.8828 -82.0312 C 18.6523 -82.0312 12.4512 -75.8789 12.4512 -64.6973 L 12.4512 -5.66406 C 12.4512 5.51758 18.6523 11.6699 29.8828 11.6699 Z M 59.5215 -11.377 C 45.8008 -11.377 36.9141 -20.8496 36.9141 -35.4004 C 36.9141 -49.9512 45.8496 -59.4727 59.5215 -59.4727 C 68.6523 -59.4727 76.2207 -55.1758 78.8574 -48.4863 C 79.2969 -47.4121 79.4922 -46.4355 79.4922 -45.2637 C 79.4922 -42.041 77.3438 -40.1367 73.6816 -40.1367 C 71.0449 -40.1367 69.6289 -41.0156 68.2129 -43.5059 C 66.6504 -46.9727 63.6719 -48.8281 59.7168 -48.8281 C 53.7598 -48.8281 49.9512 -43.6035 49.9512 -35.4004 C 49.9512 -27.1973 53.7598 -22.0215 59.7168 -22.0215 C 63.6719 -22.0215 66.6504 -23.8281 68.1641 -27.1973 C 69.4824 -29.5898 71.1426 -30.6152 73.6816 -30.6152 C 77.3438 -30.6152 79.4922 -28.7109 79.4922 -25.4883 C 79.4922 -24.3652 79.2969 -23.291 78.8574 -22.2168 C 76.2207 -15.5762 68.75 -11.377 59.5215 -11.377 Z"/>
  </g>
  <g id="Semibold-M" transform="matrix(1 0 0 1 1984.65 1126)">
   <path d="M 29.1016 10.9863 L 88.0859 10.9863 C 98.9746 10.9863 104.785 5.17578 104.785 -5.56641 L 104.785 -64.8438 C 104.785 -75.5859 98.9746 -81.3477 88.0859 -81.3477 L 29.1016 -81.3477 C 18.2617 -81.3477 12.4512 -75.5859 12.4512 -64.8438 L 12.4512 -5.56641 C 12.4512 5.22461 18.2617 10.9863 29.1016 10.9863 Z M 58.7891 -11.4746 C 45.3125 -11.4746 36.6211 -20.8984 36.6211 -35.498 C 36.6211 -50.0977 45.3125 -59.5703 58.7891 -59.5703 C 67.8223 -59.5703 75.2441 -55.3223 77.832 -48.6328 C 78.2227 -47.6074 78.3691 -46.7285 78.3691 -45.7031 C 78.3691 -42.8711 76.5137 -41.1621 73.3887 -41.1621 C 71.1914 -41.1621 69.9219 -42.041 68.7012 -44.2383 C 66.9434 -48.2422 63.5254 -50.3906 58.9844 -50.3906 C 52.2461 -50.3906 47.9004 -44.5312 47.9004 -35.498 C 47.9004 -26.5137 52.2461 -20.6543 58.9355 -20.6543 C 63.5254 -20.6543 66.9434 -22.8027 68.7012 -26.7578 C 69.8242 -28.9062 71.2402 -29.834 73.3887 -29.834 C 76.5137 -29.834 78.3691 -28.125 78.3691 -25.293 C 78.3691 -24.3164 78.2227 -23.3887 77.832 -22.3633 C 75.2441 -15.6738 67.8711 -11.4746 58.7891 -11.4746 Z"/>
  </g>
  <g id="Medium-M" transform="matrix(1 0 0 1 1688.47 1126)">
   <path d="M 28.5156 10.4492 L 87.6465 10.4492 C 98.2422 10.4492 103.711 4.98047 103.711 -5.46875 L 103.711 -64.8926 C 103.711 -75.3418 98.2422 -80.8105 87.6465 -80.8105 L 28.5156 -80.8105 C 17.9688 -80.8105 12.4512 -75.3906 12.4512 -64.8926 L 12.4512 -5.46875 C 12.4512 4.98047 17.9688 10.4492 28.5156 10.4492 Z M 58.252 -11.5234 C 44.873 -11.5234 36.377 -20.9473 36.377 -35.5957 C 36.377 -50.2441 44.9219 -59.668 58.252 -59.668 C 67.1875 -59.668 74.4629 -55.4199 77.002 -48.6816 C 77.3926 -47.7051 77.5391 -46.9727 77.5391 -46.0449 C 77.5391 -43.5059 75.8789 -41.9434 73.1934 -41.9434 C 71.2891 -41.9434 70.1172 -42.7734 69.0918 -44.7754 C 67.1875 -49.1699 63.4277 -51.5625 58.3984 -51.5625 C 51.123 -51.5625 46.2891 -45.2148 46.2891 -35.5957 C 46.2891 -25.9766 51.123 -19.6289 58.3496 -19.6289 C 63.4277 -19.6289 67.1875 -22.0215 69.0918 -26.416 C 70.0684 -28.3691 71.2891 -29.1992 73.1934 -29.1992 C 75.8789 -29.1992 77.5391 -27.6855 77.5391 -25.1465 C 77.5391 -24.2676 77.3926 -23.4375 77.002 -22.4609 C 74.5117 -15.7227 67.2363 -11.5234 58.252 -11.5234 Z"/>
  </g>
  <g id="Regular-M" transform="matrix(1 0 0 1 1392.45 1126)">
   <path d="M 27.7832 9.76562 L 87.0117 9.76562 C 97.2656 9.76562 102.344 4.6875 102.344 -5.37109 L 102.344 -64.9902 C 102.344 -75.0488 97.2656 -80.127 87.0117 -80.127 L 27.7832 -80.127 C 17.5781 -80.127 12.4512 -75.0977 12.4512 -64.9902 L 12.4512 -5.37109 C 12.4512 4.73633 17.5781 9.76562 27.7832 9.76562 Z M 57.5195 -11.6211 C 44.3848 -11.6211 36.084 -20.9961 36.084 -35.6934 C 36.084 -50.3906 44.4336 -59.8145 57.5195 -59.8145 C 66.4062 -59.8145 73.5352 -55.5664 75.9766 -48.8281 C 76.3184 -47.9004 76.416 -47.3145 76.416 -46.4844 C 76.416 -44.3359 75.0488 -43.0176 72.9492 -43.0176 C 71.3867 -43.0176 70.4102 -43.75 69.5801 -45.459 C 67.4805 -50.4395 63.2812 -53.125 57.6172 -53.125 C 49.6094 -53.125 44.2383 -46.0938 44.2383 -35.6934 C 44.2383 -25.293 49.6094 -18.3105 57.6172 -18.3105 C 63.2812 -18.3105 67.4805 -20.9961 69.5801 -25.9277 C 70.4102 -27.6367 71.3867 -28.418 72.9492 -28.418 C 75.0488 -28.418 76.416 -27.0996 76.416 -24.9512 C 76.416 -24.2188 76.3184 -23.5352 75.9766 -22.6074 C 73.5352 -15.8203 66.4551 -11.6211 57.5195 -11.6211 Z"/>
  </g>
  <g id="Light-M" transform="matrix(1 0 0 1 1096.47 1126)">
   <path d="M 26.8555 9.0332 L 86.4746 9.0332 C 95.9961 9.0332 100.879 4.15039 100.879 -5.22461 L 100.879 -65.0879 C 100.879 -74.5117 95.9961 -79.3945 86.4746 -79.3945 L 26.8555 -79.3945 C 17.334 -79.3945 12.4512 -74.5605 12.4512 -65.0879 L 12.4512 -5.22461 C 12.4512 4.19922 17.334 9.0332 26.8555 9.0332 Z M 56.9336 -12.1094 C 44.4824 -12.1094 36.377 -21.3867 36.377 -35.498 C 36.377 -49.6582 44.4824 -58.9844 56.9336 -58.9844 C 65.4785 -58.9844 72.6562 -54.3945 74.6582 -47.7051 C 74.9023 -46.7773 74.9512 -46.3379 74.9512 -45.7031 C 74.9512 -43.9941 73.9746 -42.9199 72.2656 -42.9199 C 70.9961 -42.9199 70.2148 -43.5547 69.5801 -45.0195 C 67.9688 -50.4395 63.2812 -53.7109 56.9824 -53.7109 C 48.4863 -53.7109 42.6758 -46.2891 42.6758 -35.498 C 42.6758 -24.7559 48.4863 -17.3828 56.9824 -17.3828 C 63.2812 -17.3828 67.9199 -20.6543 69.5801 -26.0742 C 70.2148 -27.4902 70.9961 -28.125 72.2656 -28.125 C 73.9746 -28.125 74.9512 -27.0996 74.9512 -25.3418 C 74.9512 -24.8047 74.9023 -24.2676 74.6582 -23.3887 C 72.6562 -16.6016 65.5762 -12.1094 56.9336 -12.1094 Z"/>
  </g>
  <g id="Thin-M" transform="matrix(1 0 0 1 800.758 1126)">
   <path d="M 25.6348 8.05664 L 85.7422 8.05664 C 94.3848 8.05664 98.877 3.4668 98.877 -5.0293 L 98.877 -65.2344 C 98.877 -73.7305 94.3848 -78.3691 85.7422 -78.3691 L 25.6348 -78.3691 C 16.9922 -78.3691 12.4512 -73.877 12.4512 -65.2344 L 12.4512 -5.0293 C 12.4512 3.56445 16.9922 8.05664 25.6348 8.05664 Z M 56.1035 -12.7441 C 44.5801 -12.7441 36.7676 -21.875 36.7676 -35.3027 C 36.7676 -48.7305 44.5801 -57.8613 56.1035 -57.8613 C 64.3066 -57.8613 71.4844 -52.8809 72.9004 -46.2402 C 73.0469 -45.3613 73.0469 -45.0684 73.0469 -44.7266 C 73.0469 -43.5059 72.5098 -42.8223 71.3379 -42.8223 C 70.459 -42.8223 69.873 -43.3105 69.6289 -44.3848 C 68.6035 -50.4395 63.2324 -54.4922 56.1035 -54.4922 C 46.9727 -54.4922 40.5762 -46.582 40.5762 -35.3027 C 40.5762 -24.0234 46.9727 -16.1621 56.1035 -16.1621 C 63.2324 -16.1621 68.5059 -20.166 69.6289 -26.2207 C 69.873 -27.2949 70.459 -27.7832 71.3379 -27.7832 C 72.5098 -27.7832 73.0469 -27.0996 73.0469 -25.9277 C 73.0469 -25.5371 73.0469 -25.2441 72.9004 -24.3652 C 71.5332 -17.627 64.4531 -12.7441 56.1035 -12.7441 Z"/>
  </g>
  <g id="Ultralight-M" transform="matrix(1 0 0 1 504.535 1126)">
   <path d="M 25 7.56836 L 85.3516 7.56836 C 93.5059 7.56836 97.9004 3.125 97.9004 -4.98047 L 97.9004 -65.2832 C 97.9004 -73.3887 93.5059 -77.832 85.3516 -77.832 L 25 -77.832 C 16.7969 -77.832 12.4512 -73.4863 12.4512 -65.2832 L 12.4512 -4.98047 C 12.4512 3.22266 16.7969 7.56836 25 7.56836 Z M 55.6641 -13.0859 C 44.6289 -13.0859 36.9629 -22.1191 36.9629 -35.2051 C 36.9629 -48.2422 44.6289 -57.2754 55.6641 -57.2754 C 63.7207 -57.2754 70.8984 -52.0996 71.9727 -45.459 C 72.0703 -44.6289 72.0703 -44.4336 72.0703 -44.1895 C 72.0703 -43.2617 71.7285 -42.8223 70.8984 -42.8223 C 70.166 -42.8223 69.7266 -43.1641 69.6289 -44.0918 C 68.8965 -50.4883 63.1836 -54.8828 55.6641 -54.8828 C 46.1914 -54.8828 39.502 -46.7285 39.502 -35.2051 C 39.502 -23.6328 46.1914 -15.5273 55.6641 -15.5273 C 63.1836 -15.5273 68.8477 -19.9219 69.6289 -26.2695 C 69.7266 -27.1973 70.166 -27.5879 70.8984 -27.5879 C 71.7285 -27.5879 72.0703 -27.0996 72.0703 -26.1719 C 72.0703 -25.9277 72.0703 -25.7812 71.9727 -24.9023 C 70.9473 -18.1641 63.916 -13.0859 55.6641 -13.0859 Z"/>
  </g>
  <g id="Black-S" transform="matrix(1 0 0 1 2885.5 696)">
   <path d="M 25 2.92969 L 70.8008 2.92969 C 80.3711 2.92969 86.0352 -2.73438 86.0352 -12.3047 L 86.0352 -58.1055 C 86.0352 -67.6758 80.3711 -73.3398 70.8008 -73.3398 L 25 -73.3398 C 15.4297 -73.3398 9.76562 -67.6758 9.76562 -58.1055 L 9.76562 -12.3047 C 9.76562 -2.73438 15.4297 2.92969 25 2.92969 Z M 48.1445 -16.3574 C 36.9629 -16.3574 29.541 -23.877 29.541 -35.1562 C 29.541 -46.4355 36.9629 -53.9551 48.1445 -53.9551 C 55.4688 -53.9551 61.7188 -50.5859 63.916 -45.4102 C 64.4043 -44.4336 64.5996 -43.3594 64.5996 -42.1875 C 64.5996 -38.8672 62.3047 -36.9141 58.3008 -36.9141 C 55.4199 -36.9141 53.9551 -37.7441 52.4414 -40.2832 C 51.5625 -41.8457 50.1953 -42.6758 48.3887 -42.6758 C 45.2148 -42.6758 43.4082 -39.9414 43.4082 -35.1562 C 43.4082 -30.3711 45.2148 -27.6367 48.3398 -27.6367 C 50.1953 -27.6367 51.5625 -28.418 52.3926 -29.8828 C 53.7598 -32.2754 55.5664 -33.252 58.3008 -33.252 C 62.3047 -33.252 64.5996 -31.2988 64.5996 -27.9785 C 64.5996 -26.8066 64.4043 -25.6836 63.916 -24.7559 C 61.7188 -19.6289 55.5664 -16.3574 48.1445 -16.3574 Z"/>
  </g>
  <g id="Heavy-S" transform="matrix(1 0 0 1 2589.4 696)">
   <path d="M 24.3652 2.34375 L 70.2637 2.34375 C 79.541 2.34375 84.8145 -2.97852 84.8145 -12.207 L 84.8145 -58.2031 C 84.8145 -67.4316 79.541 -72.7539 70.2637 -72.7539 L 24.3652 -72.7539 C 15.0879 -72.7539 9.76562 -67.4316 9.76562 -58.2031 L 9.76562 -12.207 C 9.76562 -2.97852 15.0879 2.34375 24.3652 2.34375 Z M 47.5098 -16.4062 C 36.4258 -16.4062 29.1992 -23.877 29.1992 -35.2539 C 29.1992 -46.6797 36.4258 -54.1992 47.5098 -54.1992 C 54.7363 -54.1992 60.8398 -50.8789 63.0371 -45.6543 C 63.4766 -44.7266 63.6719 -43.7988 63.6719 -42.7246 C 63.6719 -39.7461 61.6211 -37.9395 58.1055 -37.9395 C 55.5664 -37.9395 54.248 -38.7695 52.9297 -41.0156 C 51.8066 -43.1152 50.0488 -44.1406 47.7051 -44.1406 C 43.8477 -44.1406 41.5527 -40.8203 41.5527 -35.2539 C 41.5527 -29.7363 43.8477 -26.416 47.6562 -26.416 C 50.0488 -26.416 51.8066 -27.4414 52.8809 -29.3945 C 54.1016 -31.5918 55.7129 -32.4707 58.1055 -32.4707 C 61.6211 -32.4707 63.6719 -30.7129 63.6719 -27.7344 C 63.6719 -26.709 63.4766 -25.6836 63.0371 -24.8047 C 60.8398 -19.6289 54.834 -16.4062 47.5098 -16.4062 Z"/>
  </g>
  <g id="Bold-S" transform="matrix(1 0 0 1 2293.35 696)">
   <path d="M 23.6328 1.66016 L 69.6289 1.66016 C 78.6133 1.66016 83.4961 -3.22266 83.4961 -12.1094 L 83.4961 -58.3008 C 83.4961 -67.1875 78.6133 -72.0703 69.6289 -72.0703 L 23.6328 -72.0703 C 14.6973 -72.0703 9.76562 -67.1875 9.76562 -58.3008 L 9.76562 -12.1094 C 9.76562 -3.22266 14.6973 1.66016 23.6328 1.66016 Z M 46.7773 -16.4062 C 35.8398 -16.4062 28.8086 -23.877 28.8086 -35.4004 C 28.8086 -46.9238 35.8887 -54.4434 46.7773 -54.4434 C 53.9551 -54.4434 59.8633 -51.1719 62.0605 -45.8984 C 62.4512 -45.0684 62.5977 -44.2383 62.5977 -43.3105 C 62.5977 -40.6738 60.8398 -39.1113 57.8613 -39.1113 C 55.7617 -39.1113 54.6387 -39.8926 53.4668 -41.8945 C 52.0996 -44.4824 49.9023 -45.8008 46.9238 -45.8008 C 42.334 -45.8008 39.4043 -41.7969 39.4043 -35.4004 C 39.4043 -29.0527 42.334 -25.0488 46.875 -25.0488 C 49.9023 -25.0488 52.0996 -26.3184 53.4668 -28.9062 C 54.541 -30.8105 55.8594 -31.6406 57.8613 -31.6406 C 60.8398 -31.6406 62.5977 -30.0781 62.5977 -27.4902 C 62.5977 -26.5625 62.4512 -25.6836 62.0605 -24.8535 C 59.8633 -19.6289 54.0039 -16.4062 46.7773 -16.4062 Z"/>
  </g>
  <g id="Semibold-S" transform="matrix(1 0 0 1 1997.1 696)">
   <path d="M 23.0957 1.17188 L 69.1895 1.17188 C 77.9297 1.17188 82.5684 -3.36914 82.5684 -12.0117 L 82.5684 -58.3984 C 82.5684 -67.041 77.9297 -71.582 69.1895 -71.582 L 23.0957 -71.582 C 14.4043 -71.582 9.76562 -67.041 9.76562 -58.3984 L 9.76562 -12.0117 C 9.76562 -3.36914 14.4043 1.17188 23.0957 1.17188 Z M 46.2402 -16.4551 C 35.4492 -16.4551 28.5645 -23.877 28.5645 -35.498 C 28.5645 -47.1191 35.4492 -54.5898 46.2402 -54.5898 C 53.418 -54.5898 59.1797 -51.3672 61.377 -46.0938 C 61.7188 -45.2637 61.8652 -44.5801 61.8652 -43.7012 C 61.8652 -41.3574 60.3027 -39.9414 57.7148 -39.9414 C 55.9082 -39.9414 54.8828 -40.6738 53.8574 -42.4805 C 52.2949 -45.459 49.8047 -46.9727 46.3867 -46.9727 C 41.2598 -46.9727 37.9883 -42.4805 37.9883 -35.498 C 37.9883 -28.5645 41.2598 -24.0723 46.3867 -24.0723 C 49.8047 -24.0723 52.2949 -25.5859 53.8086 -28.5156 C 54.7852 -30.2734 55.957 -31.0547 57.7148 -31.0547 C 60.3027 -31.0547 61.8652 -29.6387 61.8652 -27.2949 C 61.8652 -26.4648 61.7188 -25.6836 61.377 -24.9023 C 59.1797 -19.6289 53.4668 -16.4551 46.2402 -16.4551 Z"/>
  </g>
  <g id="Medium-S" transform="matrix(1 0 0 1 1700.75 696)">
   <path d="M 22.7051 0.830078 L 68.8965 0.830078 C 77.4414 0.830078 81.8359 -3.51562 81.8359 -11.9629 L 81.8359 -58.4473 C 81.8359 -66.8945 77.4414 -71.2402 68.8965 -71.2402 L 22.7051 -71.2402 C 14.209 -71.2402 9.76562 -66.8945 9.76562 -58.4473 L 9.76562 -11.9629 C 9.76562 -3.51562 14.209 0.830078 22.7051 0.830078 Z M 45.8496 -16.4551 C 35.1074 -16.4551 28.3691 -23.877 28.3691 -35.5957 C 28.3691 -47.2656 35.1562 -54.7363 45.8496 -54.7363 C 52.9785 -54.7363 58.6914 -51.5137 60.8398 -46.2402 C 61.1816 -45.459 61.2793 -44.8242 61.2793 -43.9941 C 61.2793 -41.8457 59.8633 -40.5273 57.6172 -40.5273 C 56.0059 -40.5273 55.0293 -41.2598 54.1016 -42.9199 C 52.4414 -46.1914 49.707 -47.8516 45.9961 -47.8516 C 40.4785 -47.8516 36.8652 -42.9688 36.8652 -35.5957 C 36.8652 -28.1738 40.4785 -23.3398 45.9961 -23.3398 C 49.707 -23.3398 52.4414 -25 54.1016 -28.2715 C 55.0293 -29.8828 56.0547 -30.6152 57.6172 -30.6152 C 59.8633 -30.6152 61.2793 -29.2969 61.2793 -27.1484 C 61.2793 -26.416 61.1816 -25.6836 60.8398 -24.9512 C 58.6914 -19.6289 53.0273 -16.4551 45.8496 -16.4551 Z"/>
  </g>
  <g id="Regular-S" transform="matrix(1 0 0 1 1404.51 696)">
   <path d="M 22.2168 0.390625 L 68.457 0.390625 C 76.8066 0.390625 80.9082 -3.71094 80.9082 -11.9141 L 80.9082 -58.4961 C 80.9082 -66.6992 76.8066 -70.8008 68.457 -70.8008 L 22.2168 -70.8008 C 13.916 -70.8008 9.76562 -66.6992 9.76562 -58.4961 L 9.76562 -11.9141 C 9.76562 -3.71094 13.916 0.390625 22.2168 0.390625 Z M 45.3613 -16.5039 C 34.7168 -16.5039 28.125 -23.877 28.125 -35.6445 C 28.125 -47.4609 34.7656 -54.8828 45.3613 -54.8828 C 52.4414 -54.8828 58.0078 -51.709 60.2051 -46.3867 C 60.498 -45.7031 60.5469 -45.166 60.5469 -44.4336 C 60.5469 -42.5293 59.3262 -41.3574 57.4707 -41.3574 C 56.1523 -41.3574 55.2734 -41.9922 54.4922 -43.5059 C 52.6367 -47.1191 49.6094 -48.9746 45.459 -48.9746 C 39.4043 -48.9746 35.4492 -43.6523 35.4492 -35.6445 C 35.4492 -27.6855 39.4043 -22.4121 45.459 -22.4121 C 49.6094 -22.4121 52.6367 -24.2676 54.4922 -27.8809 C 55.2734 -29.3945 56.1523 -30.0293 57.4707 -30.0293 C 59.3262 -30.0293 60.5469 -28.8574 60.5469 -26.9531 C 60.5469 -26.3184 60.498 -25.6836 60.2051 -24.9512 C 58.0078 -19.6289 52.4414 -16.5039 45.3613 -16.5039 Z"/>
  </g>
  <g id="Light-S" transform="matrix(1 0 0 1 1108.46 696)">
   <path d="M 21.3867 -0.292969 L 67.9688 -0.292969 C 75.7324 -0.292969 79.5898 -4.15039 79.5898 -11.7676 L 79.5898 -58.5938 C 79.5898 -66.2109 75.7324 -70.1172 67.9688 -70.1172 L 21.3867 -70.1172 C 13.6719 -70.1172 9.76562 -66.2598 9.76562 -58.5938 L 9.76562 -11.7676 C 9.76562 -4.15039 13.6719 -0.292969 21.3867 -0.292969 Z M 44.8242 -16.9434 C 34.8145 -16.9434 28.3691 -24.2188 28.3691 -35.498 C 28.3691 -46.8262 34.8145 -54.1504 44.8242 -54.1504 C 51.6602 -54.1504 57.2266 -50.6836 58.9844 -45.4102 C 59.2285 -44.7266 59.2773 -44.3359 59.2773 -43.75 C 59.2773 -42.2363 58.3496 -41.3086 56.8848 -41.3086 C 55.7617 -41.3086 55.0781 -41.8457 54.4922 -43.0664 C 53.0762 -47.1191 49.5605 -49.4629 44.873 -49.4629 C 38.4277 -49.4629 34.0332 -43.8477 34.0332 -35.498 C 34.0332 -27.1973 38.4277 -21.582 44.873 -21.582 C 49.5605 -21.582 53.0762 -23.9258 54.4922 -27.9785 C 55.0781 -29.248 55.7617 -29.7852 56.8848 -29.7852 C 58.3496 -29.7852 59.2773 -28.8574 59.2773 -27.3438 C 59.2773 -26.8066 59.2285 -26.3672 58.9844 -25.6348 C 57.2754 -20.3613 51.709 -16.9434 44.8242 -16.9434 Z"/>
  </g>
  <g id="Thin-S" transform="matrix(1 0 0 1 812.599 696)">
   <path d="M 20.3125 -1.12305 L 67.334 -1.12305 C 74.2676 -1.12305 77.8809 -4.78516 77.8809 -11.6211 L 77.8809 -58.6914 C 77.8809 -65.5762 74.2676 -69.2383 67.334 -69.2383 L 20.3125 -69.2383 C 13.3789 -69.2383 9.76562 -65.625 9.76562 -58.6914 L 9.76562 -11.6211 C 9.76562 -4.6875 13.3789 -1.12305 20.3125 -1.12305 Z M 44.0918 -17.4805 C 34.9121 -17.4805 28.7109 -24.6582 28.7109 -35.3516 C 28.7109 -45.9961 34.9121 -53.1738 44.0918 -53.1738 C 50.6348 -53.1738 56.2012 -49.3652 57.4219 -44.1406 C 57.5684 -43.457 57.6172 -43.2129 57.6172 -42.8711 C 57.6172 -41.7969 57.0801 -41.2109 56.0547 -41.2109 C 55.2734 -41.2109 54.834 -41.6016 54.541 -42.5293 C 53.6133 -47.168 49.5605 -50.1465 44.1406 -50.1465 C 37.0605 -50.1465 32.1777 -44.0918 32.1777 -35.3516 C 32.1777 -26.5625 37.0605 -20.5078 44.1406 -20.5078 C 49.5605 -20.5078 53.5645 -23.5352 54.541 -28.125 C 54.834 -29.0527 55.2734 -29.4434 56.0547 -29.4434 C 57.0801 -29.4434 57.6172 -28.8574 57.6172 -27.832 C 57.6172 -27.4902 57.5684 -27.2461 57.4219 -26.5137 C 56.25 -21.2402 50.7324 -17.4805 44.0918 -17.4805 Z"/>
  </g>
  <g id="Ultralight-S" transform="matrix(1 0 0 1 516.352 696)">
   <path d="M 19.7754 -1.5625 L 66.9922 -1.5625 C 73.5352 -1.5625 76.9531 -5.12695 76.9531 -11.5234 L 76.9531 -58.7891 C 76.9531 -65.2344 73.5352 -68.75 66.9922 -68.75 L 19.7754 -68.75 C 13.2324 -68.75 9.76562 -65.2832 9.76562 -58.7891 L 9.76562 -11.5234 C 9.76562 -5.0293 13.2324 -1.5625 19.7754 -1.5625 Z M 43.75 -17.8223 C 34.9609 -17.8223 28.9062 -24.9023 28.9062 -35.2051 C 28.9062 -45.5566 34.9609 -52.6367 43.75 -52.6367 C 50.0977 -52.6367 55.6641 -48.6328 56.6406 -43.457 C 56.7383 -42.7734 56.7383 -42.627 56.7383 -42.3828 C 56.7383 -41.6016 56.3965 -41.1621 55.6641 -41.1621 C 55.0293 -41.1621 54.6875 -41.5039 54.541 -42.2363 C 53.9062 -47.168 49.5117 -50.4883 43.75 -50.4883 C 36.377 -50.4883 31.2012 -44.1895 31.2012 -35.2051 C 31.2012 -26.2695 36.377 -19.9707 43.75 -19.9707 C 49.5117 -19.9707 53.8574 -23.291 54.541 -28.2227 C 54.6875 -28.9551 55.0293 -29.2969 55.6641 -29.2969 C 56.3965 -29.2969 56.7383 -28.8574 56.7383 -28.0762 C 56.7383 -27.832 56.7383 -27.6855 56.6406 -27.002 C 55.7129 -21.7285 50.1953 -17.8223 43.75 -17.8223 Z"/>
  </g>
 </g>
</svg>
