<?xml version="1.0" encoding="UTF-8"?>
<!--Generator: Apple Native CoreSVG 148-->
<!DOCTYPE svg
PUBLIC "-//W3C//DTD SVG 1.1//EN"
       "http://www.w3.org/Graphics/SVG/1.1/DTD/svg11.dtd">
<svg version="1.1" xmlns="http://www.w3.org/2000/svg" xmlns:xlink="http://www.w3.org/1999/xlink" width="3300" height="2200">
 <!--glyph: "uni1005C4.medium", point size: 100.000000, font version: "Version 16.0d11e1", template writer version: "8"-->
 <g id="Notes">
  <rect height="2200" id="artboard" style="fill:white;opacity:1" width="3300" x="0" y="0"/>
  <line id="" style="fill:none;stroke:black;opacity:1;stroke-width:0.5;" x1="263" x2="3036" y1="292" y2="292"/>
  <text style="stroke:none;fill:black;font-family:-apple-system,&quot;SF Pro Display&quot;,&quot;SF Pro Text&quot;,Helvetica,sans-serif;font-weight:bold;" transform="matrix(1 0 0 1 263 322)">Weight/Scale Variations</text>
  <text style="stroke:none;fill:black;font-family:-apple-system,&quot;SF Pro Display&quot;,&quot;SF Pro Text&quot;,Helvetica,sans-serif;text-anchor:middle;" transform="matrix(1 0 0 1 559.711 322)">Ultralight</text>
  <text style="stroke:none;fill:black;font-family:-apple-system,&quot;SF Pro Display&quot;,&quot;SF Pro Text&quot;,Helvetica,sans-serif;text-anchor:middle;" transform="matrix(1 0 0 1 856.422 322)">Thin</text>
  <text style="stroke:none;fill:black;font-family:-apple-system,&quot;SF Pro Display&quot;,&quot;SF Pro Text&quot;,Helvetica,sans-serif;text-anchor:middle;" transform="matrix(1 0 0 1 1153.13 322)">Light</text>
  <text style="stroke:none;fill:black;font-family:-apple-system,&quot;SF Pro Display&quot;,&quot;SF Pro Text&quot;,Helvetica,sans-serif;text-anchor:middle;" transform="matrix(1 0 0 1 1449.84 322)">Regular</text>
  <text style="stroke:none;fill:black;font-family:-apple-system,&quot;SF Pro Display&quot;,&quot;SF Pro Text&quot;,Helvetica,sans-serif;text-anchor:middle;" transform="matrix(1 0 0 1 1746.56 322)">Medium</text>
  <text style="stroke:none;fill:black;font-family:-apple-system,&quot;SF Pro Display&quot;,&quot;SF Pro Text&quot;,Helvetica,sans-serif;text-anchor:middle;" transform="matrix(1 0 0 1 2043.27 322)">Semibold</text>
  <text style="stroke:none;fill:black;font-family:-apple-system,&quot;SF Pro Display&quot;,&quot;SF Pro Text&quot;,Helvetica,sans-serif;text-anchor:middle;" transform="matrix(1 0 0 1 2339.98 322)">Bold</text>
  <text style="stroke:none;fill:black;font-family:-apple-system,&quot;SF Pro Display&quot;,&quot;SF Pro Text&quot;,Helvetica,sans-serif;text-anchor:middle;" transform="matrix(1 0 0 1 2636.69 322)">Heavy</text>
  <text style="stroke:none;fill:black;font-family:-apple-system,&quot;SF Pro Display&quot;,&quot;SF Pro Text&quot;,Helvetica,sans-serif;text-anchor:middle;" transform="matrix(1 0 0 1 2933.4 322)">Black</text>
  <line id="" style="fill:none;stroke:black;opacity:1;stroke-width:0.5;" x1="263" x2="3036" y1="1903" y2="1903"/>
  <g id="" transform="matrix(1 0 0 1 263 1933)">
   <path d="M 9.24805 0.830078 C 13.5547 0.830078 17.1387 -2.74414 17.1387 -7.05078 C 17.1387 -11.3574 13.5449 -14.9316 9.23828 -14.9316 C 4.94141 -14.9316 1.36719 -11.3574 1.36719 -7.05078 C 1.36719 -2.74414 4.95117 0.830078 9.24805 0.830078 Z M 9.24805 -0.654297 C 5.70312 -0.654297 2.87109 -3.49609 2.87109 -7.05078 C 2.87109 -10.6055 5.69336 -13.4473 9.23828 -13.4473 C 12.793 -13.4473 15.6348 -10.6055 15.6445 -7.05078 C 15.6543 -3.49609 12.8027 -0.654297 9.24805 -0.654297 Z M 9.22852 -3.62305 C 9.69727 -3.62305 9.9707 -3.93555 9.9707 -4.45312 L 9.9707 -6.31836 L 12.002 -6.31836 C 12.5 -6.31836 12.832 -6.57227 12.832 -7.04102 C 12.832 -7.51953 12.5195 -7.7832 12.002 -7.7832 L 9.9707 -7.7832 L 9.9707 -9.81445 C 9.9707 -10.332 9.69727 -10.6543 9.22852 -10.6543 C 8.75977 -10.6543 8.50586 -10.3125 8.50586 -9.81445 L 8.50586 -7.7832 L 6.49414 -7.7832 C 5.97656 -7.7832 5.64453 -7.51953 5.64453 -7.04102 C 5.64453 -6.57227 5.99609 -6.31836 6.49414 -6.31836 L 8.50586 -6.31836 L 8.50586 -4.45312 C 8.50586 -3.95508 8.75977 -3.62305 9.22852 -3.62305 Z"/>
  </g>
  <g id="" transform="matrix(1 0 0 1 281.506 1933)">
   <path d="M 11.709 2.91016 C 17.1582 2.91016 21.6699 -1.61133 21.6699 -7.05078 C 21.6699 -12.5 17.1484 -17.0117 11.6992 -17.0117 C 6.25977 -17.0117 1.74805 -12.5 1.74805 -7.05078 C 1.74805 -1.61133 6.26953 2.91016 11.709 2.91016 Z M 11.709 1.25 C 7.09961 1.25 3.41797 -2.44141 3.41797 -7.05078 C 3.41797 -11.6602 7.08984 -15.3516 11.6992 -15.3516 C 16.3086 -15.3516 20 -11.6602 20.0098 -7.05078 C 20.0195 -2.44141 16.3184 1.25 11.709 1.25 Z M 11.6797 -2.66602 C 12.207 -2.66602 12.5098 -3.01758 12.5098 -3.59375 L 12.5098 -6.23047 L 15.3223 -6.23047 C 15.8691 -6.23047 16.25 -6.51367 16.25 -7.03125 C 16.25 -7.55859 15.8887 -7.86133 15.3223 -7.86133 L 12.5098 -7.86133 L 12.5098 -10.6836 C 12.5098 -11.25 12.207 -11.6113 11.6797 -11.6113 C 11.1621 -11.6113 10.8789 -11.2305 10.8789 -10.6836 L 10.8789 -7.86133 L 8.07617 -7.86133 C 7.50977 -7.86133 7.13867 -7.55859 7.13867 -7.03125 C 7.13867 -6.51367 7.5293 -6.23047 8.07617 -6.23047 L 10.8789 -6.23047 L 10.8789 -3.59375 C 10.8789 -3.03711 11.1621 -2.66602 11.6797 -2.66602 Z"/>
  </g>
  <g id="" transform="matrix(1 0 0 1 304.924 1933)">
   <path d="M 14.9707 5.66406 C 21.9336 5.66406 27.6953 -0.0976562 27.6953 -7.05078 C 27.6953 -14.0137 21.9238 -19.7754 14.9609 -19.7754 C 8.00781 -19.7754 2.25586 -14.0137 2.25586 -7.05078 C 2.25586 -0.0976562 8.01758 5.66406 14.9707 5.66406 Z M 14.9707 3.84766 C 8.93555 3.84766 4.08203 -1.01562 4.08203 -7.05078 C 4.08203 -13.0957 8.92578 -17.9492 14.9609 -17.9492 C 21.0059 -17.9492 25.8594 -13.0957 25.8691 -7.05078 C 25.8789 -1.01562 21.0156 3.84766 14.9707 3.84766 Z M 14.9414 -1.38672 C 15.5176 -1.38672 15.8594 -1.77734 15.8594 -2.38281 L 15.8594 -6.13281 L 19.7754 -6.13281 C 20.3711 -6.13281 20.7812 -6.46484 20.7812 -7.02148 C 20.7812 -7.59766 20.3906 -7.93945 19.7754 -7.93945 L 15.8594 -7.93945 L 15.8594 -11.8652 C 15.8594 -12.4805 15.5176 -12.8711 14.9414 -12.8711 C 14.375 -12.8711 14.0527 -12.4609 14.0527 -11.8652 L 14.0527 -7.93945 L 10.1465 -7.93945 C 9.53125 -7.93945 9.13086 -7.59766 9.13086 -7.02148 C 9.13086 -6.46484 9.55078 -6.13281 10.1465 -6.13281 L 14.0527 -6.13281 L 14.0527 -2.38281 C 14.0527 -1.79688 14.375 -1.38672 14.9414 -1.38672 Z"/>
  </g>
  <text style="stroke:none;fill:black;font-family:-apple-system,&quot;SF Pro Display&quot;,&quot;SF Pro Text&quot;,Helvetica,sans-serif;font-weight:bold;" transform="matrix(1 0 0 1 263 1953)">Design Variations</text>
  <text style="stroke:none;fill:black;font-family:-apple-system,&quot;SF Pro Display&quot;,&quot;SF Pro Text&quot;,Helvetica,sans-serif;" transform="matrix(1 0 0 1 263 1971)">Symbols are supported in up to nine weights and three scales.</text>
  <text style="stroke:none;fill:black;font-family:-apple-system,&quot;SF Pro Display&quot;,&quot;SF Pro Text&quot;,Helvetica,sans-serif;" transform="matrix(1 0 0 1 263 1989)">For optimal layout with text and other symbols, vertically align</text>
  <text style="stroke:none;fill:black;font-family:-apple-system,&quot;SF Pro Display&quot;,&quot;SF Pro Text&quot;,Helvetica,sans-serif;" transform="matrix(1 0 0 1 263 2007)">symbols with the adjacent text.</text>
  <line id="" style="fill:none;stroke:#00AEEF;stroke-width:0.5;opacity:1.0;" x1="776" x2="776" y1="1919" y2="1933"/>
  <g id="" transform="matrix(1 0 0 1 776 1933)">
   <path d="M 3.31055 0.126953 C 3.82812 0.126953 4.08203 -0.0683594 4.26758 -0.605469 L 5.52734 -4.0625 L 11.2891 -4.0625 L 12.5488 -0.605469 C 12.7344 -0.0683594 12.9883 0.126953 13.4961 0.126953 C 14.0137 0.126953 14.3457 -0.185547 14.3457 -0.673828 C 14.3457 -0.839844 14.3164 -0.986328 14.2383 -1.20117 L 9.6582 -13.3887 C 9.43359 -13.9941 9.0332 -14.2871 8.4082 -14.2871 C 7.80273 -14.2871 7.39258 -13.9941 7.17773 -13.3984 L 2.59766 -1.19141 C 2.51953 -0.976562 2.49023 -0.830078 2.49023 -0.664062 C 2.49023 -0.175781 2.80273 0.126953 3.31055 0.126953 Z M 6.00586 -5.53711 L 8.37891 -12.1094 L 8.42773 -12.1094 L 10.8008 -5.53711 Z"/>
  </g>
  <line id="" style="fill:none;stroke:#00AEEF;stroke-width:0.5;opacity:1.0;" x1="792.836" x2="792.836" y1="1919" y2="1933"/>
  <text style="stroke:none;fill:black;font-family:-apple-system,&quot;SF Pro Display&quot;,&quot;SF Pro Text&quot;,Helvetica,sans-serif;font-weight:bold;" transform="matrix(1 0 0 1 776 1953)">Margins</text>
  <text style="stroke:none;fill:black;font-family:-apple-system,&quot;SF Pro Display&quot;,&quot;SF Pro Text&quot;,Helvetica,sans-serif;" transform="matrix(1 0 0 1 776 1971)">Leading and trailing margins on the left and right side of each symbol</text>
  <text style="stroke:none;fill:black;font-family:-apple-system,&quot;SF Pro Display&quot;,&quot;SF Pro Text&quot;,Helvetica,sans-serif;" transform="matrix(1 0 0 1 776 1989)">can be adjusted by modifying the x-location of the margin guidelines.</text>
  <text style="stroke:none;fill:black;font-family:-apple-system,&quot;SF Pro Display&quot;,&quot;SF Pro Text&quot;,Helvetica,sans-serif;" transform="matrix(1 0 0 1 776 2007)">Modifications are automatically applied proportionally to all</text>
  <text style="stroke:none;fill:black;font-family:-apple-system,&quot;SF Pro Display&quot;,&quot;SF Pro Text&quot;,Helvetica,sans-serif;" transform="matrix(1 0 0 1 776 2025)">scales and weights.</text>
  <g id="" transform="matrix(1 0 0 1 1289 1933)">
   <path d="M 2.8418 1.86523 L 4.54102 3.57422 C 5.40039 4.44336 6.38672 4.38477 7.31445 3.35938 L 17.4902 -7.85156 C 17.7539 -7.76367 18.0273 -7.7832 18.3398 -7.8418 L 19.4043 -8.03711 L 20.0684 -7.36328 L 20.0293 -6.80664 C 19.9902 -6.30859 20.1172 -5.92773 20.6055 -5.44922 L 21.3672 -4.70703 C 21.8457 -4.22852 22.4609 -4.19922 22.9297 -4.66797 L 25.8398 -7.58789 C 26.3086 -8.05664 26.2891 -8.65234 25.8105 -9.13086 L 25.0391 -9.89258 C 24.5605 -10.3711 24.1895 -10.5273 23.7109 -10.4883 L 23.1348 -10.4395 L 22.4902 -11.0742 L 22.7344 -12.1973 C 22.8613 -12.7637 22.7051 -13.2031 22.1191 -13.7891 L 19.9219 -15.9766 C 16.582 -19.2969 12.1484 -19.2188 9.25781 -16.3281 C 8.83789 -15.918 8.80859 -15.3418 9.04297 -14.9512 C 9.27734 -14.5898 9.73633 -14.3555 10.3809 -14.5215 C 11.8457 -14.8633 13.3691 -14.9219 14.7949 -13.9844 L 14.209 -12.5293 C 14.0137 -12.0508 13.9844 -11.6504 14.1113 -11.2891 L 3.04688 -0.898438 C 2.06055 0.0195312 1.98242 0.996094 2.8418 1.86523 Z M 10.752 -15.957 C 13.1836 -17.7344 16.4746 -17.4316 18.7012 -15.2051 L 21.1328 -12.793 C 21.3672 -12.5586 21.4062 -12.373 21.3379 -12.0312 L 21.0156 -10.5469 L 22.5195 -9.0625 L 23.5059 -9.12109 C 23.7598 -9.13086 23.8379 -9.11133 24.0332 -8.91602 L 24.6094 -8.33984 L 22.168 -5.89844 L 21.5918 -6.47461 C 21.3965 -6.66992 21.3672 -6.74805 21.377 -7.01172 L 21.4453 -7.98828 L 19.9512 -9.47266 L 18.4277 -9.21875 C 18.1055 -9.15039 17.959 -9.17969 17.7148 -9.41406 L 15.7129 -11.416 C 15.459 -11.6504 15.4297 -11.8164 15.5859 -12.1875 L 16.4648 -14.2773 C 14.9023 -15.7324 12.8711 -16.3574 10.8398 -15.7617 C 10.6836 -15.7227 10.625 -15.8496 10.752 -15.957 Z M 5.27344 2.30469 L 4.10156 1.14258 C 3.63281 0.683594 3.74023 0.341797 4.14062 -0.0195312 L 14.9512 -10.1953 L 16.416 -8.71094 L 6.42578 2.27539 C 6.07422 2.67578 5.74219 2.77344 5.27344 2.30469 Z"/>
  </g>
  <text style="stroke:none;fill:black;font-family:-apple-system,&quot;SF Pro Display&quot;,&quot;SF Pro Text&quot;,Helvetica,sans-serif;font-weight:bold;" transform="matrix(1 0 0 1 1289 1953)">Exporting</text>
  <text style="stroke:none;fill:black;font-family:-apple-system,&quot;SF Pro Display&quot;,&quot;SF Pro Text&quot;,Helvetica,sans-serif;" transform="matrix(1 0 0 1 1289 1971)">Symbols should be outlined when exporting to ensure the</text>
  <text style="stroke:none;fill:black;font-family:-apple-system,&quot;SF Pro Display&quot;,&quot;SF Pro Text&quot;,Helvetica,sans-serif;" transform="matrix(1 0 0 1 1289 1989)">design is preserved when submitting to Xcode.</text>
  <text id="template-version" style="stroke:none;fill:black;font-family:-apple-system,&quot;SF Pro Display&quot;,&quot;SF Pro Text&quot;,Helvetica,sans-serif;text-anchor:end;" transform="matrix(1 0 0 1 3036 1933)">Template v.2.0</text>
  <text style="stroke:none;fill:black;font-family:-apple-system,&quot;SF Pro Display&quot;,&quot;SF Pro Text&quot;,Helvetica,sans-serif;text-anchor:end;" transform="matrix(1 0 0 1 3036 1951)">Requires Xcode 12 or greater</text>
  <text style="stroke:none;fill:black;font-family:-apple-system,&quot;SF Pro Display&quot;,&quot;SF Pro Text&quot;,Helvetica,sans-serif;text-anchor:end;" transform="matrix(1 0 0 1 3036 1969)">Generated from cedisign.circle.fill</text>
  <text style="stroke:none;fill:black;font-family:-apple-system,&quot;SF Pro Display&quot;,&quot;SF Pro Text&quot;,Helvetica,sans-serif;text-anchor:end;" transform="matrix(1 0 0 1 3036 1987)">Typeset at 100 points</text>
  <text style="stroke:none;fill:black;font-family:-apple-system,&quot;SF Pro Display&quot;,&quot;SF Pro Text&quot;,Helvetica,sans-serif;" transform="matrix(1 0 0 1 263 726)">Small</text>
  <text style="stroke:none;fill:black;font-family:-apple-system,&quot;SF Pro Display&quot;,&quot;SF Pro Text&quot;,Helvetica,sans-serif;" transform="matrix(1 0 0 1 263 1156)">Medium</text>
  <text style="stroke:none;fill:black;font-family:-apple-system,&quot;SF Pro Display&quot;,&quot;SF Pro Text&quot;,Helvetica,sans-serif;" transform="matrix(1 0 0 1 263 1586)">Large</text>
 </g>
 <g id="Guides">
  <g id="H-reference" style="fill:#27AAE1;stroke:none;" transform="matrix(1 0 0 1 339 696)">
   <path d="M 0.976562 0 L 3.66211 0 L 12.9883 -24.4629 L 45.7031 -24.4629 L 55.0781 0 L 57.7148 0 L 30.6152 -70.459 L 28.125 -70.459 Z M 29.2969 -67.1387 L 29.3945 -67.1387 L 44.873 -26.709 L 13.8672 -26.709 Z"/>
  </g>
  <line id="Baseline-S" style="fill:none;stroke:#27AAE1;opacity:1;stroke-width:0.5;" x1="263" x2="3036" y1="696" y2="696"/>
  <line id="Capline-S" style="fill:none;stroke:#27AAE1;opacity:1;stroke-width:0.5;" x1="263" x2="3036" y1="625.541" y2="625.541"/>
  <g id="H-reference" style="fill:#27AAE1;stroke:none;" transform="matrix(1 0 0 1 339 1126)">
   <path d="M 0.976562 0 L 3.66211 0 L 12.9883 -24.4629 L 45.7031 -24.4629 L 55.0781 0 L 57.7148 0 L 30.6152 -70.459 L 28.125 -70.459 Z M 29.2969 -67.1387 L 29.3945 -67.1387 L 44.873 -26.709 L 13.8672 -26.709 Z"/>
  </g>
  <line id="Baseline-M" style="fill:none;stroke:#27AAE1;opacity:1;stroke-width:0.5;" x1="263" x2="3036" y1="1126" y2="1126"/>
  <line id="Capline-M" style="fill:none;stroke:#27AAE1;opacity:1;stroke-width:0.5;" x1="263" x2="3036" y1="1055.54" y2="1055.54"/>
  <g id="H-reference" style="fill:#27AAE1;stroke:none;" transform="matrix(1 0 0 1 339 1556)">
   <path d="M 0.976562 0 L 3.66211 0 L 12.9883 -24.4629 L 45.7031 -24.4629 L 55.0781 0 L 57.7148 0 L 30.6152 -70.459 L 28.125 -70.459 Z M 29.2969 -67.1387 L 29.3945 -67.1387 L 44.873 -26.709 L 13.8672 -26.709 Z"/>
  </g>
  <line id="Baseline-L" style="fill:none;stroke:#27AAE1;opacity:1;stroke-width:0.5;" x1="263" x2="3036" y1="1556" y2="1556"/>
  <line id="Capline-L" style="fill:none;stroke:#27AAE1;opacity:1;stroke-width:0.5;" x1="263" x2="3036" y1="1485.54" y2="1485.54"/>
  <line id="left-margin" style="fill:none;stroke:#00AEEF;stroke-width:0.5;opacity:1.0;" x1="1391.3" x2="1391.3" y1="1030.79" y2="1150.12"/>
  <line id="right-margin" style="fill:none;stroke:#00AEEF;stroke-width:0.5;opacity:1.0;" x1="1508.39" x2="1508.39" y1="1030.79" y2="1150.12"/>
 </g>
 <g id="Symbols">
  <g id="Black-L" transform="matrix(1 0 0 1 2854.05 1556)">
   <path d="M 79.3457 32.8613 C 116.748 32.8613 147.412 2.19727 147.412 -35.2051 C 147.412 -72.6074 116.748 -103.271 79.2969 -103.271 C 41.8945 -103.271 11.2793 -72.6074 11.2793 -35.2051 C 11.2793 2.19727 41.9434 32.8613 79.3457 32.8613 Z M 52.8809 -35.3516 C 52.8809 -53.125 62.207 -63.8184 77.0996 -65.1367 L 77.0996 -68.9941 C 77.0996 -70.7031 78.3203 -71.875 79.9316 -71.875 C 81.543 -71.875 82.7148 -70.7031 82.7148 -68.9941 L 82.7148 -65.1367 C 92.0898 -64.4531 99.1699 -60.0098 102.881 -52.6367 C 103.809 -50.8301 104.346 -48.9258 104.346 -47.1191 C 104.346 -43.0176 101.611 -40.332 97.4609 -40.332 C 93.9453 -40.332 91.9434 -41.6504 90.2832 -45.166 C 88.6719 -48.8281 86.084 -51.123 82.7148 -51.9043 L 82.7148 -18.5547 C 86.2793 -19.2871 88.916 -21.6797 90.5273 -25.5371 C 92.0898 -29.0527 94.043 -30.4688 97.5098 -30.4688 C 101.904 -30.4688 104.785 -27.6367 104.785 -23.4375 C 104.785 -21.9727 104.492 -20.5566 103.955 -19.2383 C 100.928 -11.4258 92.8223 -6.05469 82.7148 -5.46875 L 82.7148 -1.70898 C 82.7148 -0.0488281 81.543 1.17188 79.9316 1.17188 C 78.3691 1.17188 77.0996 -0.0488281 77.0996 -1.70898 L 77.0996 -5.46875 C 61.9141 -6.93359 52.8809 -17.7246 52.8809 -35.3516 Z M 68.8965 -35.3027 C 68.8965 -26.4648 71.8262 -20.459 77.0996 -18.8477 L 77.0996 -51.7578 C 71.875 -50.0977 68.8965 -44.043 68.8965 -35.3027 Z"/>
  </g>
  <g id="Heavy-L" transform="matrix(1 0 0 1 2558.39 1556)">
   <path d="M 78.2715 31.7871 C 115.088 31.7871 145.312 1.5625 145.312 -35.2051 C 145.312 -72.0215 115.039 -102.246 78.2715 -102.246 C 41.4551 -102.246 11.2793 -72.0215 11.2793 -35.2051 C 11.2793 1.5625 41.5039 31.7871 78.2715 31.7871 Z M 52.1484 -35.3027 C 52.1484 -52.8809 61.2793 -63.7207 75.8789 -65.1367 L 75.8789 -69.2383 C 75.8789 -70.9473 77.0508 -72.1191 78.7109 -72.1191 C 80.3223 -72.1191 81.4941 -70.9473 81.4941 -69.2383 L 81.4941 -65.1855 C 90.8203 -64.4531 97.9492 -59.668 101.416 -52.2461 C 102.197 -50.6348 102.686 -48.9258 102.686 -47.3145 C 102.686 -43.6523 100.293 -41.2598 96.582 -41.2598 C 93.457 -41.2598 91.6504 -42.4805 90.2832 -45.7031 C 88.7207 -49.8047 85.5469 -52.5879 81.4941 -53.418 L 81.4941 -16.9434 C 85.791 -17.6758 89.0137 -20.459 90.5273 -24.8047 C 91.8457 -27.9297 93.6523 -29.248 96.7285 -29.248 C 100.586 -29.248 103.125 -26.7578 103.125 -23.0469 C 103.125 -21.6797 102.832 -20.3613 102.344 -19.0918 C 99.4141 -11.2793 91.5039 -5.9082 81.4941 -5.32227 L 81.4941 -1.2207 C 81.4941 0.488281 80.3223 1.66016 78.7109 1.66016 C 77.0996 1.66016 75.8789 0.488281 75.8789 -1.2207 L 75.8789 -5.32227 C 61.084 -6.78711 52.1484 -17.7246 52.1484 -35.3027 Z M 66.1621 -35.2539 C 66.1621 -25.4395 69.6777 -18.8477 75.8789 -17.1875 L 75.8789 -53.2715 C 69.7266 -51.5625 66.1621 -44.9219 66.1621 -35.2539 Z"/>
  </g>
  <g id="Bold-L" transform="matrix(1 0 0 1 2262.88 1556)">
   <path d="M 77.0996 30.5664 C 113.232 30.5664 142.92 0.878906 142.92 -35.2539 C 142.92 -71.3379 113.184 -101.074 77.0508 -101.074 C 40.9668 -101.074 11.2793 -71.3379 11.2793 -35.2539 C 11.2793 0.878906 41.0156 30.5664 77.0996 30.5664 Z M 51.3184 -35.2539 C 51.3184 -52.6367 60.2051 -63.623 74.4629 -65.1367 L 74.4629 -69.5312 C 74.4629 -71.2891 75.6836 -72.4609 77.3438 -72.4609 C 78.9551 -72.4609 80.127 -71.2891 80.127 -69.5312 L 80.127 -65.1855 C 89.4043 -64.4043 96.582 -59.375 99.8047 -51.7578 C 100.439 -50.3906 100.83 -48.9258 100.83 -47.5098 C 100.83 -44.3848 98.7793 -42.334 95.6543 -42.334 C 92.9199 -42.334 91.3574 -43.3594 90.2344 -46.2402 C 88.7207 -50.8789 85.0098 -54.248 80.127 -55.0781 L 80.127 -15.0879 C 85.2539 -15.8691 89.0625 -19.1406 90.5273 -23.9258 C 91.6016 -26.709 93.1641 -27.9297 95.8496 -27.9297 C 99.1211 -27.9297 101.221 -25.7812 101.221 -22.6562 C 101.221 -21.3867 100.928 -20.1172 100.537 -18.9453 C 97.7051 -11.1816 90.0879 -5.76172 80.127 -5.12695 L 80.127 -0.634766 C 80.127 1.07422 78.9551 2.24609 77.3438 2.24609 C 75.7324 2.24609 74.4629 1.07422 74.4629 -0.634766 L 74.4629 -5.17578 C 60.1074 -6.68945 51.3184 -17.7246 51.3184 -35.2539 Z M 63.1348 -35.2051 C 63.1348 -24.3652 67.2852 -17.041 74.4629 -15.332 L 74.4629 -54.9316 C 67.334 -53.2227 63.1348 -45.8984 63.1348 -35.2051 Z"/>
  </g>
  <g id="Semibold-L" transform="matrix(1 0 0 1 1966.97 1556)">
   <path d="M 76.2695 29.7363 C 111.914 29.7363 141.309 0.390625 141.309 -35.2539 C 141.309 -70.8984 111.865 -100.244 76.2695 -100.244 C 40.625 -100.244 11.2793 -70.8984 11.2793 -35.2539 C 11.2793 0.390625 40.6738 29.7363 76.2695 29.7363 Z M 50.7324 -35.2051 C 50.7324 -52.4902 59.5215 -63.5742 73.4863 -65.0879 L 73.4863 -69.7266 C 73.4863 -71.4844 74.707 -72.6562 76.3672 -72.6562 C 78.0273 -72.6562 79.1992 -71.4844 79.1992 -69.7266 L 79.1992 -65.1855 C 88.4277 -64.4043 95.6543 -59.1309 98.6816 -51.4648 C 99.2188 -50.2441 99.5117 -48.9258 99.5117 -47.6562 C 99.5605 -44.873 97.7539 -43.0664 94.9707 -43.0664 C 92.5293 -43.0664 91.1621 -44.043 90.2344 -46.6309 C 88.7695 -51.6602 84.6191 -55.3711 79.1992 -56.2012 L 79.1992 -13.8672 C 84.9121 -14.5996 89.1113 -18.1641 90.5273 -23.3398 C 91.4062 -25.8301 92.8711 -26.9531 95.2637 -26.9531 C 98.0957 -26.9531 99.9512 -25.0977 99.9512 -22.3633 C 99.9512 -21.1426 99.6582 -19.9707 99.2676 -18.7988 C 96.5332 -11.084 89.1113 -5.66406 79.1992 -5.0293 L 79.1992 -0.244141 C 79.1992 1.46484 78.0273 2.63672 76.3672 2.63672 C 74.7559 2.63672 73.4863 1.46484 73.4863 -0.244141 L 73.4863 -5.07812 C 59.4238 -6.5918 50.7324 -17.7246 50.7324 -35.2051 Z M 60.9863 -35.2051 C 60.9863 -23.584 65.625 -15.7715 73.4863 -14.0625 L 73.4863 -56.1035 C 65.6738 -54.3945 60.9863 -46.582 60.9863 -35.2051 Z"/>
  </g>
  <g id="Medium-L" transform="matrix(1 0 0 1 1670.87 1556)">
   <path d="M 75.6836 29.1504 C 110.938 29.1504 140.088 0 140.088 -35.2539 C 140.088 -70.5078 110.889 -99.6582 75.6348 -99.6582 C 40.3809 -99.6582 11.2793 -70.5078 11.2793 -35.2539 C 11.2793 0 40.3809 29.1504 75.6836 29.1504 Z M 50.3418 -35.1562 C 50.3418 -52.3438 58.9844 -63.5254 72.7539 -65.0879 L 72.7539 -69.873 C 72.7539 -71.6309 74.0234 -72.8027 75.6348 -72.8027 C 77.2949 -72.8027 78.5156 -71.6309 78.5156 -69.873 L 78.5156 -65.1855 C 87.6953 -64.4043 94.9707 -58.9355 97.8027 -51.2207 C 98.291 -50.0977 98.584 -48.877 98.584 -47.7539 C 98.6328 -45.2637 96.9727 -43.6035 94.4824 -43.6035 C 92.2363 -43.6035 91.0156 -44.4824 90.2344 -46.9238 C 88.7695 -52.1973 84.3262 -56.25 78.5156 -57.0801 L 78.5156 -12.8906 C 84.6191 -13.6719 89.1602 -17.4805 90.5273 -22.9004 C 91.2598 -25.1465 92.627 -26.2695 94.8242 -26.2695 C 97.3145 -26.2695 98.9746 -24.5605 98.9746 -22.1191 C 98.9746 -20.9473 98.6816 -19.8242 98.291 -18.75 C 95.6055 -11.0352 88.3789 -5.56641 78.5156 -4.93164 L 78.5156 0.0488281 C 78.5156 1.80664 77.2949 2.92969 75.6348 2.92969 C 74.0234 2.92969 72.7539 1.80664 72.7539 0.0488281 L 72.7539 -4.98047 C 58.8867 -6.54297 50.3418 -17.7246 50.3418 -35.1562 Z M 59.4238 -35.1562 C 59.4238 -22.998 64.4043 -14.7949 72.7539 -13.0859 L 72.7539 -56.9824 C 64.4043 -55.2246 59.4238 -47.1191 59.4238 -35.1562 Z"/>
  </g>
  <g id="Regular-L" transform="matrix(1 0 0 1 1374.97 1556)">
   <path d="M 74.8535 28.3203 C 109.668 28.3203 138.477 -0.488281 138.477 -35.2539 C 138.477 -70.0684 109.619 -98.877 74.8047 -98.877 C 40.0391 -98.877 11.2793 -70.0684 11.2793 -35.2539 C 11.2793 -0.488281 40.0879 28.3203 74.8535 28.3203 Z M 49.7559 -35.1074 C 49.7559 -52.1973 58.252 -63.4766 71.8262 -65.0879 L 71.8262 -70.0684 C 71.8262 -71.875 73.0469 -72.998 74.707 -72.998 C 76.3672 -72.998 77.5391 -71.875 77.5391 -70.0684 L 77.5391 -65.1855 C 86.7188 -64.3555 94.043 -58.7402 96.7285 -50.9277 C 97.0703 -49.9512 97.3145 -48.877 97.3145 -47.9004 C 97.3633 -45.752 95.9473 -44.3359 93.8477 -44.3359 C 91.8457 -44.3359 90.8203 -45.1172 90.1855 -47.3145 C 88.8184 -52.9785 83.9355 -57.373 77.5391 -58.252 L 77.5391 -11.6699 C 84.2773 -12.4023 89.209 -16.5527 90.5273 -22.3145 C 91.1133 -24.3164 92.334 -25.3418 94.2383 -25.3418 C 96.2891 -25.3418 97.6562 -23.877 97.6562 -21.8262 C 97.6562 -20.752 97.4121 -19.6777 97.0703 -18.6523 C 94.4336 -10.9375 87.4023 -5.46875 77.5391 -4.78516 L 77.5391 0.439453 C 77.5391 2.19727 76.3672 3.32031 74.707 3.32031 C 73.0957 3.32031 71.8262 2.19727 71.8262 0.439453 L 71.8262 -4.88281 C 58.252 -6.44531 49.7559 -17.7734 49.7559 -35.1074 Z M 57.3242 -35.1074 C 57.3242 -22.2656 62.7441 -13.5742 71.8262 -11.8652 L 71.8262 -58.1055 C 62.7441 -56.3965 57.3242 -47.7539 57.3242 -35.1074 Z"/>
  </g>
  <g id="Light-L" transform="matrix(1 0 0 1 1079.18 1556)">
   <path d="M 73.9258 27.3926 C 108.301 27.3926 136.621 -0.927734 136.621 -35.2539 C 136.621 -69.6289 108.252 -97.9492 73.9258 -97.9492 C 39.5508 -97.9492 11.2793 -69.6289 11.2793 -35.2539 C 11.2793 -0.927734 39.5996 27.3926 73.9258 27.3926 Z M 50.3906 -35.1074 C 50.3906 -51.5625 58.4473 -62.3047 71.6309 -63.7207 L 71.6309 -68.5547 C 71.6309 -70.0684 72.6562 -70.9961 74.0723 -70.9961 C 75.4395 -70.9961 76.416 -70.0684 76.416 -68.5547 L 76.416 -63.8184 C 85.498 -63.1836 92.6758 -57.4219 95.166 -49.6094 C 95.459 -48.6816 95.7031 -47.7051 95.7031 -46.7773 C 95.8008 -44.9707 94.6289 -43.8477 92.9688 -43.8477 C 91.4062 -43.8477 90.4785 -44.5312 90.0879 -46.2402 C 88.8184 -52.5879 83.4961 -57.5684 76.416 -58.3008 L 76.416 -11.3281 C 83.8379 -11.9629 89.1602 -16.5039 90.332 -22.9492 C 90.6738 -24.5117 91.748 -25.4395 93.2129 -25.4395 C 94.8242 -25.4395 95.9473 -24.2188 95.9473 -22.5586 C 95.9473 -21.4844 95.7031 -20.459 95.3613 -19.4824 C 93.0176 -11.8652 86.084 -6.44531 76.416 -5.9082 L 76.416 -0.585938 C 76.416 0.927734 75.4395 1.85547 74.0723 1.85547 C 72.7051 1.85547 71.6309 0.927734 71.6309 -0.585938 L 71.6309 -6.00586 C 58.4473 -7.37305 50.3906 -18.3105 50.3906 -35.1074 Z M 56.2988 -35.1074 C 56.2988 -21.875 61.9629 -12.9883 71.6309 -11.4746 L 71.6309 -58.2031 C 61.9629 -56.6895 56.2988 -48.0469 56.2988 -35.1074 Z"/>
  </g>
  <g id="Thin-L" transform="matrix(1 0 0 1 783.693 1556)">
   <path d="M 72.7051 26.1719 C 106.494 26.1719 134.18 -1.51367 134.18 -35.2539 C 134.18 -69.043 106.494 -96.7285 72.7051 -96.7285 C 38.9648 -96.7285 11.2793 -69.043 11.2793 -35.2539 C 11.2793 -1.51367 38.9648 26.1719 72.7051 26.1719 Z M 51.1719 -35.0586 C 51.1719 -50.6836 58.6426 -60.8398 71.3867 -61.9629 L 71.3867 -66.5039 C 71.3867 -67.7246 72.1191 -68.3594 73.1934 -68.3594 C 74.2188 -68.3594 74.9512 -67.7246 74.9512 -66.5039 L 74.9512 -62.0605 C 83.8867 -61.5723 90.918 -55.6641 93.1152 -47.8027 C 93.3594 -46.9727 93.6035 -46.1426 93.6035 -45.3125 C 93.75 -43.9941 92.9199 -43.1641 91.8457 -43.1641 C 90.7715 -43.1641 90.0391 -43.75 89.9414 -44.8242 C 88.8672 -52.0508 82.959 -57.8613 74.9512 -58.3984 L 74.9512 -10.9375 C 83.252 -11.377 89.0625 -16.4551 89.9902 -23.7793 C 90.0879 -24.8047 91.0156 -25.5371 91.9434 -25.5371 C 92.9199 -25.5371 93.7012 -24.6094 93.7012 -23.5352 C 93.7012 -22.5098 93.4082 -21.5332 93.1641 -20.6543 C 91.0645 -13.0859 84.3262 -7.76367 74.9512 -7.37305 L 74.9512 -1.95312 C 74.9512 -0.732422 74.2188 -0.0976562 73.1934 -0.0976562 C 72.168 -0.0976562 71.3867 -0.732422 71.3867 -1.95312 L 71.3867 -7.4707 C 58.6914 -8.64258 51.1719 -18.9941 51.1719 -35.0586 Z M 54.9805 -35.0586 C 54.9805 -21.3867 60.9863 -12.207 71.3867 -11.0352 L 71.3867 -58.3008 C 60.9375 -57.1289 54.9805 -48.3887 54.9805 -35.0586 Z"/>
  </g>
  <g id="Ultralight-L" transform="matrix(1 0 0 1 487.616 1556)">
   <path d="M 72.1191 25.5371 C 105.566 25.5371 132.91 -1.80664 132.91 -35.2539 C 132.91 -68.75 105.566 -96.0938 72.1191 -96.0938 C 38.623 -96.0938 11.2793 -68.75 11.2793 -35.2539 C 11.2793 -1.80664 38.623 25.5371 72.1191 25.5371 Z M 51.6113 -35.0098 C 51.6113 -50.2441 58.7402 -60.0586 71.2891 -61.0352 L 71.2891 -65.4785 C 71.2891 -66.5527 71.8262 -67.041 72.7051 -67.041 C 73.584 -67.041 74.1699 -66.5527 74.1699 -65.4785 L 74.1699 -61.1328 C 83.0566 -60.791 90.0391 -54.7852 92.041 -46.875 C 92.2852 -46.0938 92.5293 -45.3613 92.5293 -44.5801 C 92.6758 -43.457 92.041 -42.8223 91.2109 -42.8223 C 90.4785 -42.8223 89.7949 -43.3594 89.8926 -44.0918 C 88.8672 -51.8066 82.7148 -58.0078 74.1699 -58.4473 L 74.1699 -10.7422 C 82.9102 -11.084 89.0137 -16.4551 89.8438 -24.2188 C 89.7461 -24.9512 90.625 -25.5859 91.2598 -25.5859 C 91.9434 -25.5859 92.5781 -24.8535 92.5781 -24.0234 C 92.5781 -23.0469 92.2363 -22.1191 91.9922 -21.2402 C 90.0879 -13.7207 83.4473 -8.39844 74.1699 -8.10547 L 74.1699 -2.63672 C 74.1699 -1.5625 73.584 -1.07422 72.7051 -1.07422 C 71.9238 -1.07422 71.2891 -1.5625 71.2891 -2.63672 L 71.2891 -8.20312 C 58.8379 -9.27734 51.6113 -19.3848 51.6113 -35.0098 Z M 54.2969 -35.0098 C 54.2969 -21.1426 60.4492 -11.8652 71.2891 -10.791 L 71.2891 -58.3984 C 60.4004 -57.3242 54.2969 -48.5352 54.2969 -35.0098 Z"/>
  </g>
  <g id="Black-M" transform="matrix(1 0 0 1 2870.97 1126)">
   <path d="M 62.4023 18.457 C 91.9922 18.457 116.113 -5.61523 116.113 -35.2051 C 116.113 -64.7949 91.9922 -88.8672 62.4023 -88.8672 C 32.8125 -88.8672 8.74023 -64.7949 8.74023 -35.2051 C 8.74023 -5.61523 32.8125 18.457 62.4023 18.457 Z M 42.2852 -35.4004 C 42.2852 -49.0234 49.5117 -56.9336 61.3281 -57.7148 L 61.3281 -60.2051 C 61.3281 -61.377 62.1094 -62.207 63.2324 -62.207 C 64.3555 -62.207 65.1367 -61.377 65.1367 -60.2051 L 65.1367 -57.7148 C 72.4609 -57.2754 77.7832 -54.1016 80.8594 -48.5352 C 81.7383 -46.9238 82.2754 -45.2637 82.2754 -43.6035 C 82.2754 -40.0391 79.8828 -37.6465 76.2207 -37.6465 C 73.1934 -37.6465 71.4355 -38.7695 69.9219 -41.6992 C 68.7012 -44.2383 67.1387 -45.7031 65.1367 -46.1914 L 65.1367 -24.3164 C 67.2852 -24.8047 68.7988 -26.3672 70.0195 -29.1016 C 71.4355 -32.0801 73.1445 -33.2031 76.0742 -33.2031 C 79.9805 -33.2031 82.5684 -30.7129 82.5684 -27.002 C 82.5684 -25.7812 82.3242 -24.6094 81.8848 -23.4863 C 79.4922 -17.4316 72.9492 -13.3301 65.1367 -12.9395 L 65.1367 -10.498 C 65.1367 -9.32617 64.3555 -8.54492 63.2324 -8.54492 C 62.207 -8.54492 61.3281 -9.32617 61.3281 -10.498 L 61.3281 -12.9395 C 49.2676 -13.916 42.2852 -21.9238 42.2852 -35.4004 Z M 56.543 -35.3027 C 56.543 -29.541 58.1543 -25.6836 61.3281 -24.5605 L 61.3281 -46.0449 C 58.1543 -44.873 56.543 -41.0156 56.543 -35.3027 Z"/>
  </g>
  <g id="Heavy-M" transform="matrix(1 0 0 1 2575.19 1126)">
   <path d="M 61.5234 17.5293 C 90.5273 17.5293 114.258 -6.20117 114.258 -35.2051 C 114.258 -64.2578 90.5273 -87.9883 61.4746 -87.9883 C 32.4707 -87.9883 8.74023 -64.2578 8.74023 -35.2051 C 8.74023 -6.20117 32.4707 17.5293 61.5234 17.5293 Z M 41.3574 -35.3516 C 41.3574 -48.9746 48.4863 -57.1289 60.0098 -58.0566 L 60.0098 -60.8887 C 60.0098 -62.1582 60.8887 -62.9883 62.0605 -62.9883 C 63.2812 -62.9883 64.1113 -62.1582 64.1113 -60.8887 L 64.1113 -58.0566 C 71.3867 -57.5684 76.8066 -54.1504 79.6875 -48.4375 C 80.4199 -47.0215 80.8594 -45.5566 80.8594 -44.0918 C 80.8594 -40.918 78.7598 -38.7695 75.4883 -38.7695 C 72.8027 -38.7695 71.2402 -39.7949 69.9219 -42.5293 C 68.7012 -45.4102 66.6992 -47.2656 64.1113 -47.8027 L 64.1113 -22.6562 C 66.8945 -23.1445 68.8965 -25.0488 70.1172 -28.0762 C 71.2891 -30.8105 72.8516 -31.8848 75.4883 -31.8848 C 78.9062 -31.8848 81.1523 -29.6387 81.1523 -26.3672 C 81.1523 -25.2441 80.957 -24.1699 80.5176 -23.0957 C 78.2227 -17.041 71.875 -12.8906 64.1113 -12.5 L 64.1113 -9.66797 C 64.1113 -8.44727 63.2812 -7.56836 62.0605 -7.56836 C 60.9375 -7.56836 60.0098 -8.44727 60.0098 -9.66797 L 60.0098 -12.5 C 48.291 -13.5742 41.3574 -21.8262 41.3574 -35.3516 Z M 53.8086 -35.3027 C 53.8086 -28.5645 56.0059 -24.0723 60.0098 -22.8516 L 60.0098 -47.7051 C 56.0059 -46.4355 53.8086 -41.9434 53.8086 -35.3027 Z"/>
  </g>
  <g id="Bold-M" transform="matrix(1 0 0 1 2279.5 1126)">
   <path d="M 60.498 16.5039 C 88.8672 16.5039 112.207 -6.83594 112.207 -35.2051 C 112.207 -63.623 88.8672 -86.9629 60.4492 -86.9629 C 32.0312 -86.9629 8.74023 -63.623 8.74023 -35.2051 C 8.74023 -6.83594 32.0801 16.5039 60.498 16.5039 Z M 40.2344 -35.3027 C 40.2344 -48.877 47.3145 -57.3242 58.5449 -58.3984 L 58.5449 -61.6699 C 58.5449 -62.9883 59.4727 -63.916 60.7422 -63.916 C 62.0117 -63.916 62.9395 -62.9883 62.9395 -61.6699 L 62.9395 -58.4473 C 70.166 -57.9102 75.7324 -54.1504 78.3691 -48.3398 C 78.9551 -47.168 79.2969 -45.8496 79.2969 -44.6289 C 79.2969 -41.8945 77.4902 -40.0879 74.707 -40.0879 C 72.3145 -40.0879 70.9961 -41.0156 69.9707 -43.457 C 68.75 -46.7285 66.2109 -48.9746 62.9395 -49.6094 L 62.9395 -20.752 C 66.4062 -21.2891 68.9941 -23.584 70.166 -26.9531 C 71.1426 -29.3457 72.5098 -30.3711 74.8047 -30.3711 C 77.7344 -30.3711 79.5898 -28.4668 79.5898 -25.7324 C 79.5898 -24.6582 79.3945 -23.6328 79.0039 -22.6562 C 76.7578 -16.6504 70.7031 -12.4512 62.9395 -11.9629 L 62.9395 -8.74023 C 62.9395 -7.42188 62.0117 -6.49414 60.7422 -6.49414 C 59.5215 -6.49414 58.5449 -7.42188 58.5449 -8.74023 L 58.5449 -12.0117 C 47.168 -13.1836 40.2344 -21.6797 40.2344 -35.3027 Z M 50.7812 -35.2539 C 50.7812 -27.4902 53.6133 -22.2168 58.5449 -20.9473 L 58.5449 -49.4629 C 53.6133 -48.1934 50.7812 -42.9199 50.7812 -35.2539 Z"/>
  </g>
  <g id="Semibold-M" transform="matrix(1 0 0 1 1983.5 1126)">
   <path d="M 59.7656 15.8203 C 87.7441 15.8203 110.791 -7.27539 110.791 -35.2539 C 110.791 -63.2324 87.6953 -86.2793 59.7656 -86.2793 C 31.7871 -86.2793 8.74023 -63.2324 8.74023 -35.2539 C 8.74023 -7.27539 31.7871 15.8203 59.7656 15.8203 Z M 39.502 -35.2539 C 39.502 -48.8281 46.4844 -57.4707 57.5195 -58.6914 L 57.5195 -62.207 C 57.5195 -63.5742 58.5449 -64.5508 59.8633 -64.5508 C 61.1816 -64.5508 62.1582 -63.5742 62.1582 -62.207 L 62.1582 -58.7402 C 69.3359 -58.1055 74.9512 -54.1504 77.4414 -48.291 C 77.9297 -47.2168 78.2227 -46.0938 78.2227 -45.0195 C 78.2227 -42.5781 76.6113 -41.0156 74.1699 -41.0156 C 72.0215 -41.0156 70.8496 -41.7969 69.9707 -44.0918 C 68.7988 -47.6074 65.8691 -50.1465 62.1582 -50.8301 L 62.1582 -19.4336 C 66.1133 -20.0195 69.043 -22.5586 70.2148 -26.2207 C 71.0449 -28.3691 72.2656 -29.3457 74.3652 -29.3457 C 76.9043 -29.3457 78.5156 -27.6855 78.5156 -25.2441 C 78.5156 -24.2676 78.3203 -23.291 77.9785 -22.3633 C 75.7812 -16.3574 69.873 -12.1582 62.1582 -11.6211 L 62.1582 -8.10547 C 62.1582 -6.73828 61.1816 -5.76172 59.8633 -5.76172 C 58.5449 -5.76172 57.5195 -6.73828 57.5195 -8.10547 L 57.5195 -11.6699 C 46.3867 -12.8906 39.502 -21.582 39.502 -35.2539 Z M 48.6816 -35.2051 C 48.6816 -26.709 51.9531 -20.9473 57.5195 -19.6289 L 57.5195 -50.7324 C 51.9531 -49.3652 48.6816 -43.6035 48.6816 -35.2051 Z"/>
  </g>
  <g id="Medium-M" transform="matrix(1 0 0 1 1687.3 1126)">
   <path d="M 59.2285 15.2344 C 86.9141 15.2344 109.766 -7.61719 109.766 -35.2539 C 109.766 -62.8906 86.8652 -85.7422 59.1797 -85.7422 C 31.543 -85.7422 8.74023 -62.8906 8.74023 -35.2539 C 8.74023 -7.61719 31.5918 15.2344 59.2285 15.2344 Z M 38.9648 -35.2051 C 38.9648 -48.7793 45.8496 -57.6172 56.7871 -58.8867 L 56.7871 -62.5977 C 56.7871 -64.0625 57.8125 -65.0391 59.1797 -65.0391 C 60.5469 -65.0391 61.5234 -64.0625 61.5234 -62.5977 L 61.5234 -58.9355 C 68.75 -58.3008 74.3652 -54.1504 76.7578 -48.2422 C 77.1484 -47.2656 77.3926 -46.2402 77.3926 -45.3125 C 77.3926 -43.1152 75.9277 -41.6504 73.7793 -41.6504 C 71.7773 -41.6504 70.7031 -42.4316 69.9707 -44.5801 C 68.7988 -48.291 65.625 -51.0742 61.5234 -51.8066 L 61.5234 -18.457 C 65.8691 -19.043 69.1406 -21.7773 70.2637 -25.6348 C 70.9473 -27.6367 72.1191 -28.5645 74.0234 -28.5645 C 76.2695 -28.5645 77.7344 -27.0508 77.7344 -24.9023 C 77.7344 -23.9746 77.4902 -23.0469 77.1973 -22.168 C 75 -16.1621 69.2871 -11.9141 61.5234 -11.377 L 61.5234 -7.66602 C 61.5234 -6.20117 60.5469 -5.22461 59.1797 -5.22461 C 57.8125 -5.22461 56.7871 -6.20117 56.7871 -7.66602 L 56.7871 -11.4258 C 45.8008 -12.6465 38.9648 -21.4844 38.9648 -35.2051 Z M 47.0703 -35.2051 C 47.0703 -26.123 50.6836 -20.0195 56.7871 -18.6035 L 56.7871 -51.6602 C 50.7324 -50.2441 47.0703 -44.1406 47.0703 -35.2051 Z"/>
  </g>
  <g id="Regular-M" transform="matrix(1 0 0 1 1391.3 1126)">
   <path d="M 58.5449 14.5508 C 85.791 14.5508 108.35 -8.05664 108.35 -35.2539 C 108.35 -62.5 85.7422 -85.0586 58.4961 -85.0586 C 31.2988 -85.0586 8.74023 -62.5 8.74023 -35.2539 C 8.74023 -8.05664 31.3477 14.5508 58.5449 14.5508 Z M 38.2324 -35.1562 C 38.2324 -48.7305 45.0684 -57.7637 55.7617 -59.1309 L 55.7617 -63.1348 C 55.7617 -64.6484 56.8359 -65.625 58.3008 -65.625 C 59.7168 -65.625 60.7422 -64.6484 60.7422 -63.1348 L 60.7422 -59.1797 C 67.9199 -58.4961 73.6328 -54.1992 75.8301 -48.1934 C 76.123 -47.3633 76.3184 -46.4844 76.3184 -45.6543 C 76.3184 -43.7988 75.0977 -42.5781 73.2422 -42.5781 C 71.4355 -42.5781 70.5566 -43.2617 69.9707 -45.2148 C 68.7988 -49.1699 65.2832 -52.2461 60.7422 -53.0273 L 60.7422 -17.1387 C 65.5762 -17.7734 69.1895 -20.752 70.3125 -24.8535 C 70.8496 -26.6113 71.875 -27.5391 73.584 -27.5391 C 75.4883 -27.5391 76.6602 -26.2695 76.6602 -24.4629 C 76.6602 -23.5352 76.4648 -22.7051 76.1719 -21.875 C 74.0234 -15.8691 68.457 -11.6211 60.7422 -11.0352 L 60.7422 -7.03125 C 60.7422 -5.51758 59.7168 -4.49219 58.3008 -4.49219 C 56.8848 -4.49219 55.7617 -5.51758 55.7617 -7.03125 L 55.7617 -11.084 C 45.0195 -12.4023 38.2324 -21.3867 38.2324 -35.1562 Z M 45.0195 -35.1562 C 45.0195 -25.3906 49.0723 -18.75 55.7617 -17.2852 L 55.7617 -52.8809 C 49.0723 -51.4648 45.0195 -44.7754 45.0195 -35.1562 Z"/>
  </g>
  <g id="Light-M" transform="matrix(1 0 0 1 1095.42 1126)">
   <path d="M 57.7148 13.7207 C 84.5215 13.7207 106.689 -8.44727 106.689 -35.2539 C 106.689 -62.1094 84.5215 -84.2285 57.666 -84.2285 C 30.8594 -84.2285 8.74023 -62.1094 8.74023 -35.2539 C 8.74023 -8.44727 30.9082 13.7207 57.7148 13.7207 Z M 38.7695 -35.1562 C 38.7695 -48.1445 45.2148 -56.7383 55.6152 -57.9102 L 55.6152 -61.7676 C 55.6152 -63.0371 56.4941 -63.8672 57.666 -63.8672 C 58.8867 -63.8672 59.7168 -63.0371 59.7168 -61.7676 L 59.7168 -58.0078 C 66.7969 -57.4219 72.4121 -53.0273 74.4629 -46.9727 C 74.707 -46.1914 74.9023 -45.4102 74.9023 -44.6777 C 74.9512 -43.1152 73.9258 -42.0898 72.4609 -42.0898 C 71.0449 -42.0898 70.2637 -42.7246 69.873 -44.2383 C 68.8477 -48.8281 64.8926 -52.4414 59.7168 -53.0762 L 59.7168 -16.8457 C 65.1367 -17.3828 69.1406 -20.752 70.1172 -25.4395 C 70.459 -26.8555 71.3867 -27.5879 72.7051 -27.5879 C 74.1699 -27.5879 75.1465 -26.5625 75.1465 -25.0977 C 75.1465 -24.2676 74.9023 -23.4375 74.6582 -22.6562 C 72.7051 -16.6992 67.2852 -12.5 59.7168 -12.0117 L 59.7168 -7.95898 C 59.7168 -6.64062 58.8867 -5.81055 57.666 -5.81055 C 56.543 -5.81055 55.6152 -6.64062 55.6152 -7.95898 L 55.6152 -12.0605 C 45.2148 -13.2324 38.7695 -21.875 38.7695 -35.1562 Z M 44.0918 -35.1562 C 44.0918 -25.0488 48.3887 -18.2617 55.6152 -16.9922 L 55.6152 -52.9785 C 48.3887 -51.709 44.0918 -45.0195 44.0918 -35.1562 Z"/>
  </g>
  <g id="Thin-M" transform="matrix(1 0 0 1 799.806 1126)">
   <path d="M 56.6406 12.5977 C 82.9102 12.5977 104.492 -8.98438 104.492 -35.2539 C 104.492 -61.5723 82.9102 -83.1543 56.5918 -83.1543 C 30.3223 -83.1543 8.74023 -61.5723 8.74023 -35.2539 C 8.74023 -8.98438 30.3223 12.5977 56.6406 12.5977 Z M 39.502 -35.1074 C 39.502 -47.4121 45.4102 -55.4199 55.3711 -56.3477 L 55.3711 -59.9121 C 55.3711 -60.9375 56.0059 -61.4746 56.8848 -61.4746 C 57.8125 -61.4746 58.3984 -60.9375 58.3984 -59.9121 L 58.3984 -56.3965 C 65.3809 -56.0059 70.8496 -51.4648 72.6074 -45.3613 C 72.8027 -44.6777 72.998 -44.043 72.998 -43.3594 C 73.0957 -42.2363 72.4121 -41.5039 71.3867 -41.5039 C 70.5078 -41.5039 69.873 -41.9922 69.7266 -42.9688 C 68.8477 -48.3887 64.4043 -52.7344 58.3984 -53.1738 L 58.3984 -16.5039 C 64.6484 -16.8945 69.043 -20.7031 69.8242 -26.1719 C 69.9219 -27.0996 70.7031 -27.6855 71.5332 -27.6855 C 72.4121 -27.6855 73.1445 -26.9043 73.1445 -25.9277 C 73.1445 -25.1465 72.9004 -24.4141 72.6562 -23.6816 C 70.9961 -17.7734 65.7227 -13.6719 58.3984 -13.3301 L 58.3984 -9.13086 C 58.3984 -8.1543 57.8125 -7.56836 56.8848 -7.56836 C 56.0547 -7.56836 55.3711 -8.1543 55.3711 -9.13086 L 55.3711 -13.3789 C 45.459 -14.3555 39.502 -22.5098 39.502 -35.1074 Z M 42.8711 -35.1074 C 42.8711 -24.6094 47.4609 -17.5781 55.3711 -16.5527 L 55.3711 -53.0762 C 47.4121 -52.0996 42.8711 -45.3613 42.8711 -35.1074 Z"/>
  </g>
  <g id="Ultralight-M" transform="matrix(1 0 0 1 503.656 1126)">
   <path d="M 56.0547 12.0605 C 82.0801 12.0605 103.369 -9.22852 103.369 -35.2539 C 103.369 -61.2793 82.0801 -82.5684 56.0547 -82.5684 C 30.0293 -82.5684 8.74023 -61.2793 8.74023 -35.2539 C 8.74023 -9.22852 30.0293 12.0605 56.0547 12.0605 Z M 39.8438 -35.0586 C 39.8438 -47.0215 45.5078 -54.7363 55.2734 -55.5176 L 55.2734 -58.9844 C 55.2734 -59.8633 55.7617 -60.3027 56.4941 -60.3027 C 57.2266 -60.3027 57.7148 -59.8633 57.7148 -58.9844 L 57.7148 -55.5664 C 64.6484 -55.2734 70.0684 -50.6348 71.6797 -44.5312 C 71.8262 -43.9453 72.0215 -43.3105 72.0215 -42.6758 C 72.168 -41.748 71.6309 -41.2109 70.8984 -41.2109 C 70.2148 -41.2109 69.6777 -41.6504 69.6777 -42.334 C 68.8477 -48.1445 64.1602 -52.832 57.7148 -53.2227 L 57.7148 -16.3086 C 64.3555 -16.6016 68.9941 -20.6543 69.6777 -26.5625 C 69.6777 -27.2461 70.3125 -27.7344 70.9473 -27.7344 C 71.5332 -27.7344 72.0703 -27.0996 72.0703 -26.3672 C 72.0703 -25.6348 71.8262 -24.9023 71.6309 -24.2188 C 70.1172 -18.3594 64.9414 -14.2578 57.7148 -14.0137 L 57.7148 -9.76562 C 57.7148 -8.88672 57.2266 -8.49609 56.4941 -8.49609 C 55.8105 -8.49609 55.2734 -8.88672 55.2734 -9.76562 L 55.2734 -14.0625 C 45.5566 -14.9414 39.8438 -22.8027 39.8438 -35.0586 Z M 42.2852 -35.0586 C 42.2852 -24.4141 47.0215 -17.2363 55.2734 -16.3574 L 55.2734 -53.1738 C 46.9727 -52.2949 42.2852 -45.5078 42.2852 -35.0586 Z"/>
  </g>
  <g id="Black-S" transform="matrix(1 0 0 1 2884.57 696)">
   <path d="M 48.8281 6.78711 C 71.9727 6.78711 90.8203 -12.0605 90.8203 -35.2051 C 90.8203 -58.3496 71.9727 -77.1973 48.8281 -77.1973 C 25.6836 -77.1973 6.83594 -58.3496 6.83594 -35.2051 C 6.83594 -12.0605 25.6836 6.78711 48.8281 6.78711 Z M 33.0566 -35.3516 C 33.0566 -46.0449 38.7207 -52.2461 47.9492 -52.8809 L 47.9492 -54.8828 C 47.9492 -55.8105 48.584 -56.4453 49.4629 -56.4453 C 50.3418 -56.4453 50.9766 -55.8105 50.9766 -54.8828 L 50.9766 -52.8809 C 56.6895 -52.5391 60.8887 -50.0488 63.2812 -45.6543 C 63.9648 -44.4336 64.3555 -43.1152 64.3555 -41.8457 C 64.3555 -39.0625 62.5 -37.207 59.668 -37.207 C 57.3242 -37.207 55.957 -38.0859 54.7852 -40.3809 C 53.8086 -42.3828 52.5879 -43.5547 50.9766 -43.9453 L 50.9766 -26.5625 C 52.6855 -26.9531 53.9062 -28.1738 54.8828 -30.3223 C 55.957 -32.666 57.2754 -33.5449 59.5703 -33.5449 C 62.5977 -33.5449 64.5996 -31.5918 64.5996 -28.7109 C 64.5996 -27.7832 64.4043 -26.8555 64.0625 -25.9766 C 62.207 -21.2402 57.0801 -18.0176 50.9766 -17.7246 L 50.9766 -15.7715 C 50.9766 -14.8438 50.3418 -14.209 49.4629 -14.209 C 48.6328 -14.209 47.9492 -14.8438 47.9492 -15.7715 L 47.9492 -17.7246 C 38.5254 -18.5059 33.0566 -24.8047 33.0566 -35.3516 Z M 44.0918 -35.3027 C 44.0918 -30.7129 45.4102 -27.6367 47.9492 -26.7578 L 47.9492 -43.8477 C 45.4102 -42.9199 44.0918 -39.8438 44.0918 -35.3027 Z"/>
  </g>
  <g id="Heavy-S" transform="matrix(1 0 0 1 2588.47 696)">
   <path d="M 48.2422 6.15234 C 70.9961 6.15234 89.5996 -12.4512 89.5996 -35.2051 C 89.5996 -57.959 70.9961 -76.6113 48.1934 -76.6113 C 25.4395 -76.6113 6.83594 -57.959 6.83594 -35.2051 C 6.83594 -12.4512 25.4395 6.15234 48.2422 6.15234 Z M 32.2754 -35.3027 C 32.2754 -46.0449 37.8906 -52.4902 46.9727 -53.2715 L 46.9727 -55.5664 C 46.9727 -56.5918 47.6562 -57.2754 48.6328 -57.2754 C 49.6094 -57.2754 50.293 -56.5918 50.293 -55.5664 L 50.293 -53.2715 C 56.0059 -52.8809 60.2539 -50.1953 62.5488 -45.7031 C 63.0859 -44.6289 63.4277 -43.457 63.4277 -42.334 C 63.4277 -39.8438 61.7676 -38.1348 59.2285 -38.1348 C 57.0312 -38.1348 55.8105 -38.9648 54.7852 -41.1133 C 53.8086 -43.3105 52.2949 -44.7266 50.293 -45.166 L 50.293 -25.293 C 52.4414 -25.7324 54.0039 -27.1484 54.9316 -29.4922 C 55.9082 -31.6406 57.1289 -32.5195 59.2285 -32.5195 C 61.9141 -32.5195 63.7207 -30.7617 63.7207 -28.1738 C 63.7207 -27.2949 63.5254 -26.416 63.1836 -25.5859 C 61.377 -20.8496 56.3965 -17.627 50.293 -17.2852 L 50.293 -15.0391 C 50.293 -14.0137 49.6094 -13.3301 48.6328 -13.3301 C 47.7051 -13.3301 46.9727 -14.0137 46.9727 -15.0391 L 46.9727 -17.2852 C 37.7441 -18.1152 32.2754 -24.6582 32.2754 -35.3027 Z M 42.0898 -35.3027 C 42.0898 -29.9805 43.8477 -26.4648 46.9727 -25.4883 L 46.9727 -45.0684 C 43.8477 -44.0918 42.0898 -40.4785 42.0898 -35.3027 Z"/>
  </g>
  <g id="Bold-S" transform="matrix(1 0 0 1 2292.44 696)">
   <path d="M 47.5586 5.46875 C 69.873 5.46875 88.2324 -12.8906 88.2324 -35.2539 C 88.2324 -57.5684 69.873 -75.9277 47.5098 -75.9277 C 25.1953 -75.9277 6.83594 -57.5684 6.83594 -35.2539 C 6.83594 -12.8906 25.1953 5.46875 47.5586 5.46875 Z M 31.3477 -35.2539 C 31.3477 -46.0938 36.9629 -52.7832 45.8496 -53.7109 L 45.8496 -56.2988 C 45.8496 -57.4219 46.6309 -58.2031 47.7051 -58.2031 C 48.7793 -58.2031 49.5117 -57.4219 49.5117 -56.2988 L 49.5117 -53.7598 C 55.2246 -53.2715 59.5703 -50.3418 61.6699 -45.8008 C 62.1582 -44.873 62.4023 -43.8477 62.4023 -42.8711 C 62.4023 -40.6738 60.9375 -39.209 58.6914 -39.209 C 56.7383 -39.209 55.7129 -39.9414 54.834 -41.9434 C 53.8574 -44.3359 51.9531 -45.9961 49.5117 -46.5332 L 49.5117 -23.877 C 52.0996 -24.3652 54.0527 -26.0254 55.0293 -28.5645 C 55.8105 -30.5176 56.9336 -31.3477 58.8379 -31.3477 C 61.1816 -31.3477 62.6953 -29.834 62.6953 -27.5879 C 62.6953 -26.7578 62.5488 -25.9766 62.2559 -25.1953 C 60.4004 -20.459 55.6641 -17.1387 49.5117 -16.748 L 49.5117 -14.209 C 49.5117 -13.1348 48.7793 -12.3535 47.7051 -12.3535 C 46.6797 -12.3535 45.8496 -13.1348 45.8496 -14.209 L 45.8496 -16.7969 C 36.8652 -17.7246 31.3477 -24.4629 31.3477 -35.2539 Z M 39.8926 -35.2539 C 39.8926 -29.1992 42.0898 -25.0977 45.8496 -24.0723 L 45.8496 -46.4355 C 42.0898 -45.3613 39.8926 -41.2109 39.8926 -35.2539 Z"/>
  </g>
  <g id="Semibold-S" transform="matrix(1 0 0 1 1996.2 696)">
   <path d="M 47.0703 4.98047 C 69.0918 4.98047 87.3047 -13.1836 87.3047 -35.2539 C 87.3047 -57.2754 69.0918 -75.4883 47.0215 -75.4883 C 25 -75.4883 6.83594 -57.2754 6.83594 -35.2539 C 6.83594 -13.1836 25.0488 4.98047 47.0703 4.98047 Z M 30.7617 -35.2539 C 30.7617 -46.0938 36.3281 -53.0273 45.1172 -54.0039 L 45.1172 -56.8359 C 45.1172 -58.0078 45.9473 -58.8379 47.0703 -58.8379 C 48.1934 -58.8379 49.0234 -58.0078 49.0234 -56.8359 L 49.0234 -54.0527 C 54.6875 -53.5156 59.082 -50.4395 61.084 -45.8496 C 61.4746 -45.0195 61.7188 -44.0918 61.7188 -43.2617 C 61.7188 -41.2598 60.4004 -39.9414 58.3496 -39.9414 C 56.543 -39.9414 55.6152 -40.5762 54.834 -42.5293 C 53.8574 -45.0684 51.709 -46.9238 49.0234 -47.4609 L 49.0234 -22.9004 C 51.9043 -23.4375 54.1504 -25.293 55.0781 -27.9297 C 55.7617 -29.7363 56.7871 -30.5664 58.5449 -30.5664 C 60.6445 -30.5664 62.0117 -29.1992 62.0117 -27.1973 C 62.0117 -26.3672 61.8652 -25.6348 61.5723 -24.9023 C 59.7656 -20.166 55.127 -16.8457 49.0234 -16.4062 L 49.0234 -13.6719 C 49.0234 -12.5 48.1934 -11.6699 47.0703 -11.6699 C 45.9473 -11.6699 45.1172 -12.5 45.1172 -13.6719 L 45.1172 -16.4551 C 36.2305 -17.4316 30.7617 -24.3652 30.7617 -35.2539 Z M 38.3789 -35.2539 C 38.3789 -28.6621 40.8691 -24.1699 45.1172 -23.0469 L 45.1172 -47.3633 C 40.918 -46.2402 38.3789 -41.748 38.3789 -35.2539 Z"/>
  </g>
  <g id="Medium-S" transform="matrix(1 0 0 1 1699.83 696)">
   <path d="M 46.7285 4.63867 C 68.5547 4.63867 86.6211 -13.4277 86.6211 -35.2539 C 86.6211 -57.0801 68.5059 -75.1465 46.6797 -75.1465 C 24.8535 -75.1465 6.83594 -57.0801 6.83594 -35.2539 C 6.83594 -13.4277 24.9023 4.63867 46.7285 4.63867 Z M 30.2734 -35.2051 C 30.2734 -46.0938 35.8398 -53.1738 44.5312 -54.248 L 44.5312 -57.2266 C 44.5312 -58.4473 45.4102 -59.2773 46.582 -59.2773 C 47.7539 -59.2773 48.584 -58.4473 48.584 -57.2266 L 48.584 -54.2969 C 54.248 -53.7109 58.7402 -50.5371 60.6445 -45.8984 C 60.9863 -45.1172 61.1816 -44.2871 61.1816 -43.5059 C 61.1816 -41.6992 59.9609 -40.4785 58.1055 -40.4785 C 56.3965 -40.4785 55.5176 -41.1133 54.834 -42.9199 C 53.9062 -45.6055 51.5625 -47.6074 48.584 -48.1934 L 48.584 -22.168 C 51.7578 -22.7051 54.1992 -24.707 55.127 -27.4902 C 55.7617 -29.1504 56.6895 -29.9316 58.3496 -29.9316 C 60.2539 -29.9316 61.4746 -28.7109 61.4746 -26.8555 C 61.4746 -26.123 61.3281 -25.3906 61.084 -24.6582 C 59.2773 -19.9219 54.7363 -16.6016 48.584 -16.1133 L 48.584 -13.2324 C 48.584 -12.0117 47.7539 -11.1816 46.582 -11.1816 C 45.4102 -11.1816 44.5312 -12.0117 44.5312 -13.2324 L 44.5312 -16.1621 C 35.791 -17.2363 30.2734 -24.2676 30.2734 -35.2051 Z M 37.207 -35.2051 C 37.207 -28.2227 39.9414 -23.4863 44.5312 -22.3145 L 44.5312 -48.0957 C 39.9902 -46.9238 37.207 -42.1387 37.207 -35.2051 Z"/>
  </g>
  <g id="Regular-S" transform="matrix(1 0 0 1 1403.58 696)">
   <path d="M 46.2402 4.15039 C 67.7734 4.15039 85.6934 -13.7207 85.6934 -35.2539 C 85.6934 -56.7871 67.7246 -74.6582 46.1914 -74.6582 C 24.707 -74.6582 6.83594 -56.7871 6.83594 -35.2539 C 6.83594 -13.7207 24.7559 4.15039 46.2402 4.15039 Z M 29.6875 -35.2051 C 29.6875 -46.0938 35.2051 -53.3691 43.75 -54.541 L 43.75 -57.7637 C 43.75 -59.0332 44.7266 -59.9121 45.9473 -59.9121 C 47.168 -59.9121 48.0957 -59.0332 48.0957 -57.7637 L 48.0957 -54.5898 C 53.7598 -54.0039 58.252 -50.6348 60.1074 -45.9473 C 60.3027 -45.2637 60.4492 -44.5801 60.4492 -43.8965 C 60.498 -42.2852 59.375 -41.2109 57.7637 -41.2109 C 56.2012 -41.2109 55.4199 -41.748 54.8828 -43.5059 C 53.9062 -46.3379 51.3184 -48.4863 48.0957 -49.1211 L 48.0957 -21.1914 C 51.5625 -21.7773 54.248 -23.9258 55.1758 -26.8555 C 55.7129 -28.418 56.543 -29.1504 58.0566 -29.1504 C 59.7656 -29.1504 60.791 -28.0762 60.791 -26.4648 C 60.791 -25.7324 60.6445 -25.0488 60.4004 -24.3652 C 58.6426 -19.6777 54.1992 -16.3086 48.0957 -15.7715 L 48.0957 -12.6953 C 48.0957 -11.4258 47.168 -10.498 45.9473 -10.498 C 44.7266 -10.498 43.75 -11.4258 43.75 -12.6953 L 43.75 -15.8203 C 35.2051 -16.9434 29.6875 -24.1699 29.6875 -35.2051 Z M 35.6934 -35.2051 C 35.6934 -27.6855 38.7695 -22.5586 43.75 -21.3379 L 43.75 -49.0234 C 38.8184 -47.8027 35.6934 -42.627 35.6934 -35.2051 Z"/>
  </g>
  <g id="Light-S" transform="matrix(1 0 0 1 1107.6 696)">
   <path d="M 45.5078 3.41797 C 66.6992 3.41797 84.2285 -14.0625 84.2285 -35.2539 C 84.2285 -56.4453 66.6504 -73.9258 45.5078 -73.9258 C 24.3164 -73.9258 6.83594 -56.4453 6.83594 -35.2539 C 6.83594 -14.0625 24.3652 3.41797 45.5078 3.41797 Z M 30.1758 -35.1562 C 30.1758 -45.6055 35.3516 -52.4414 43.6035 -53.4668 L 43.6035 -56.543 C 43.6035 -57.6172 44.3848 -58.3496 45.4102 -58.3496 C 46.4355 -58.3496 47.168 -57.6172 47.168 -56.543 L 47.168 -53.5156 C 52.7832 -53.0273 57.2266 -49.6094 58.8379 -44.873 C 59.082 -44.2871 59.2285 -43.6035 59.2285 -43.0176 C 59.2285 -41.6992 58.3496 -40.7715 57.0312 -40.7715 C 55.8105 -40.7715 55.1758 -41.3086 54.7852 -42.6758 C 53.9062 -46.0449 50.9766 -48.6328 47.168 -49.1699 L 47.168 -20.9473 C 51.2207 -21.4355 54.1992 -23.877 54.9805 -27.3438 C 55.3711 -28.5645 56.1035 -29.1992 57.2754 -29.1992 C 58.5938 -29.1992 59.4727 -28.3203 59.4727 -27.0508 C 59.4727 -26.3672 59.2773 -25.7324 59.082 -25.0977 C 57.4707 -20.4102 53.1738 -17.0898 47.168 -16.6504 L 47.168 -13.4766 C 47.168 -12.4023 46.4355 -11.6699 45.4102 -11.6699 C 44.4336 -11.6699 43.6035 -12.4023 43.6035 -13.4766 L 43.6035 -16.6992 C 35.3516 -17.6758 30.1758 -24.5605 30.1758 -35.1562 Z M 34.9121 -35.1562 C 34.9121 -27.3926 38.1836 -22.1191 43.6035 -21.0449 L 43.6035 -49.1211 C 38.1836 -48.0469 34.9121 -42.8223 34.9121 -35.1562 Z"/>
  </g>
  <g id="Thin-S" transform="matrix(1 0 0 1 811.867 696)">
   <path d="M 44.5801 2.49023 C 65.2832 2.49023 82.2754 -14.5508 82.2754 -35.2539 C 82.2754 -55.957 65.2344 -72.998 44.5312 -72.998 C 23.8281 -72.998 6.83594 -55.957 6.83594 -35.2539 C 6.83594 -14.5508 23.877 2.49023 44.5801 2.49023 Z M 30.8105 -35.1562 C 30.8105 -44.9219 35.5469 -51.2695 43.457 -52.0508 L 43.457 -54.9316 C 43.457 -55.7617 43.9941 -56.25 44.7266 -56.25 C 45.5078 -56.25 45.9961 -55.7617 45.9961 -54.9316 L 45.9961 -52.0996 C 51.5137 -51.7578 55.8105 -48.2422 57.2266 -43.457 C 57.4219 -42.9199 57.5684 -42.3828 57.5684 -41.8457 C 57.6172 -40.8691 57.0312 -40.2832 56.1523 -40.2832 C 55.3223 -40.2832 54.834 -40.6738 54.6875 -41.5527 C 53.9551 -45.6055 50.5859 -48.877 45.9961 -49.2676 L 45.9961 -20.6055 C 50.7324 -20.9473 54.1016 -23.877 54.7363 -27.9785 C 54.8828 -28.8086 55.5176 -29.2969 56.25 -29.2969 C 57.0801 -29.2969 57.666 -28.6621 57.666 -27.7832 C 57.666 -27.1484 57.4707 -26.5625 57.3242 -25.9766 C 55.957 -21.3379 51.8066 -18.1152 45.9961 -17.8223 L 45.9961 -14.5508 C 45.9961 -13.7207 45.5078 -13.2324 44.7266 -13.2324 C 43.9941 -13.2324 43.457 -13.7207 43.457 -14.5508 L 43.457 -17.8711 C 35.5469 -18.6523 30.8105 -25.1465 30.8105 -35.1562 Z M 33.8379 -35.1562 C 33.8379 -27.002 37.3535 -21.5332 43.457 -20.7031 L 43.457 -49.2188 C 37.3535 -48.3887 33.8379 -43.0664 33.8379 -35.1562 Z"/>
  </g>
  <g id="Ultralight-S" transform="matrix(1 0 0 1 515.644 696)">
   <path d="M 44.043 1.95312 C 64.502 1.95312 81.2988 -14.7949 81.2988 -35.2539 C 81.2988 -55.7129 64.502 -72.4609 44.043 -72.4609 C 23.584 -72.4609 6.83594 -55.7129 6.83594 -35.2539 C 6.83594 -14.7949 23.584 1.95312 44.043 1.95312 Z M 31.1035 -35.1074 C 31.1035 -44.5801 35.6445 -50.6836 43.3105 -51.3184 L 43.3105 -54.1016 C 43.3105 -54.7852 43.75 -55.1758 44.3848 -55.1758 C 44.9707 -55.1758 45.4102 -54.7852 45.4102 -54.1016 L 45.4102 -51.3672 C 50.8301 -51.123 55.0781 -47.5098 56.3965 -42.7246 C 56.543 -42.2363 56.6895 -41.748 56.6895 -41.2598 C 56.7871 -40.4785 56.2988 -39.9902 55.6641 -39.9902 C 55.0781 -39.9902 54.6387 -40.332 54.5898 -40.9668 C 53.9551 -45.4102 50.3418 -48.9746 45.4102 -49.3164 L 45.4102 -20.459 C 50.4883 -20.7031 54.0527 -23.8281 54.6387 -28.3203 C 54.6387 -28.9062 55.1758 -29.3457 55.7129 -29.3457 C 56.2988 -29.3457 56.7383 -28.8086 56.7383 -28.1738 C 56.7383 -27.5879 56.543 -27.002 56.3965 -26.4648 C 55.1758 -21.875 51.0742 -18.6523 45.4102 -18.4082 L 45.4102 -15.0879 C 45.4102 -14.4043 44.9707 -14.0137 44.3848 -14.0137 C 43.7988 -14.0137 43.3105 -14.4043 43.3105 -15.0879 L 43.3105 -18.457 C 35.6445 -19.1895 31.1035 -25.4395 31.1035 -35.1074 Z M 33.3008 -35.1074 C 33.3008 -26.8066 36.9629 -21.1914 43.3105 -20.5078 L 43.3105 -49.2676 C 36.9141 -48.5352 33.3008 -43.2129 33.3008 -35.1074 Z"/>
  </g>
 </g>
</svg>
