<?xml version="1.0" encoding="UTF-8"?>
<!--Generator: Apple Native CoreSVG 148-->
<!DOCTYPE svg
PUBLIC "-//W3C//DTD SVG 1.1//EN"
       "http://www.w3.org/Graphics/SVG/1.1/DTD/svg11.dtd">
<svg version="1.1" xmlns="http://www.w3.org/2000/svg" xmlns:xlink="http://www.w3.org/1999/xlink" width="3300" height="2200">
 <!--glyph: "uni10059A.medium", point size: 100.000000, font version: "Version 16.0d11e1", template writer version: "8"-->
 <g id="Notes">
  <rect height="2200" id="artboard" style="fill:white;opacity:1" width="3300" x="0" y="0"/>
  <line id="" style="fill:none;stroke:black;opacity:1;stroke-width:0.5;" x1="263" x2="3036" y1="292" y2="292"/>
  <text style="stroke:none;fill:black;font-family:-apple-system,&quot;SF Pro Display&quot;,&quot;SF Pro Text&quot;,Helvetica,sans-serif;font-weight:bold;" transform="matrix(1 0 0 1 263 322)">Weight/Scale Variations</text>
  <text style="stroke:none;fill:black;font-family:-apple-system,&quot;SF Pro Display&quot;,&quot;SF Pro Text&quot;,Helvetica,sans-serif;text-anchor:middle;" transform="matrix(1 0 0 1 559.711 322)">Ultralight</text>
  <text style="stroke:none;fill:black;font-family:-apple-system,&quot;SF Pro Display&quot;,&quot;SF Pro Text&quot;,Helvetica,sans-serif;text-anchor:middle;" transform="matrix(1 0 0 1 856.422 322)">Thin</text>
  <text style="stroke:none;fill:black;font-family:-apple-system,&quot;SF Pro Display&quot;,&quot;SF Pro Text&quot;,Helvetica,sans-serif;text-anchor:middle;" transform="matrix(1 0 0 1 1153.13 322)">Light</text>
  <text style="stroke:none;fill:black;font-family:-apple-system,&quot;SF Pro Display&quot;,&quot;SF Pro Text&quot;,Helvetica,sans-serif;text-anchor:middle;" transform="matrix(1 0 0 1 1449.84 322)">Regular</text>
  <text style="stroke:none;fill:black;font-family:-apple-system,&quot;SF Pro Display&quot;,&quot;SF Pro Text&quot;,Helvetica,sans-serif;text-anchor:middle;" transform="matrix(1 0 0 1 1746.56 322)">Medium</text>
  <text style="stroke:none;fill:black;font-family:-apple-system,&quot;SF Pro Display&quot;,&quot;SF Pro Text&quot;,Helvetica,sans-serif;text-anchor:middle;" transform="matrix(1 0 0 1 2043.27 322)">Semibold</text>
  <text style="stroke:none;fill:black;font-family:-apple-system,&quot;SF Pro Display&quot;,&quot;SF Pro Text&quot;,Helvetica,sans-serif;text-anchor:middle;" transform="matrix(1 0 0 1 2339.98 322)">Bold</text>
  <text style="stroke:none;fill:black;font-family:-apple-system,&quot;SF Pro Display&quot;,&quot;SF Pro Text&quot;,Helvetica,sans-serif;text-anchor:middle;" transform="matrix(1 0 0 1 2636.69 322)">Heavy</text>
  <text style="stroke:none;fill:black;font-family:-apple-system,&quot;SF Pro Display&quot;,&quot;SF Pro Text&quot;,Helvetica,sans-serif;text-anchor:middle;" transform="matrix(1 0 0 1 2933.4 322)">Black</text>
  <line id="" style="fill:none;stroke:black;opacity:1;stroke-width:0.5;" x1="263" x2="3036" y1="1903" y2="1903"/>
  <g id="" transform="matrix(1 0 0 1 263 1933)">
   <path d="M 9.24805 0.830078 C 13.5547 0.830078 17.1387 -2.74414 17.1387 -7.05078 C 17.1387 -11.3574 13.5449 -14.9316 9.23828 -14.9316 C 4.94141 -14.9316 1.36719 -11.3574 1.36719 -7.05078 C 1.36719 -2.74414 4.95117 0.830078 9.24805 0.830078 Z M 9.24805 -0.654297 C 5.70312 -0.654297 2.87109 -3.49609 2.87109 -7.05078 C 2.87109 -10.6055 5.69336 -13.4473 9.23828 -13.4473 C 12.793 -13.4473 15.6348 -10.6055 15.6445 -7.05078 C 15.6543 -3.49609 12.8027 -0.654297 9.24805 -0.654297 Z M 9.22852 -3.62305 C 9.69727 -3.62305 9.9707 -3.93555 9.9707 -4.45312 L 9.9707 -6.31836 L 12.002 -6.31836 C 12.5 -6.31836 12.832 -6.57227 12.832 -7.04102 C 12.832 -7.51953 12.5195 -7.7832 12.002 -7.7832 L 9.9707 -7.7832 L 9.9707 -9.81445 C 9.9707 -10.332 9.69727 -10.6543 9.22852 -10.6543 C 8.75977 -10.6543 8.50586 -10.3125 8.50586 -9.81445 L 8.50586 -7.7832 L 6.49414 -7.7832 C 5.97656 -7.7832 5.64453 -7.51953 5.64453 -7.04102 C 5.64453 -6.57227 5.99609 -6.31836 6.49414 -6.31836 L 8.50586 -6.31836 L 8.50586 -4.45312 C 8.50586 -3.95508 8.75977 -3.62305 9.22852 -3.62305 Z"/>
  </g>
  <g id="" transform="matrix(1 0 0 1 281.506 1933)">
   <path d="M 11.709 2.91016 C 17.1582 2.91016 21.6699 -1.61133 21.6699 -7.05078 C 21.6699 -12.5 17.1484 -17.0117 11.6992 -17.0117 C 6.25977 -17.0117 1.74805 -12.5 1.74805 -7.05078 C 1.74805 -1.61133 6.26953 2.91016 11.709 2.91016 Z M 11.709 1.25 C 7.09961 1.25 3.41797 -2.44141 3.41797 -7.05078 C 3.41797 -11.6602 7.08984 -15.3516 11.6992 -15.3516 C 16.3086 -15.3516 20 -11.6602 20.0098 -7.05078 C 20.0195 -2.44141 16.3184 1.25 11.709 1.25 Z M 11.6797 -2.66602 C 12.207 -2.66602 12.5098 -3.01758 12.5098 -3.59375 L 12.5098 -6.23047 L 15.3223 -6.23047 C 15.8691 -6.23047 16.25 -6.51367 16.25 -7.03125 C 16.25 -7.55859 15.8887 -7.86133 15.3223 -7.86133 L 12.5098 -7.86133 L 12.5098 -10.6836 C 12.5098 -11.25 12.207 -11.6113 11.6797 -11.6113 C 11.1621 -11.6113 10.8789 -11.2305 10.8789 -10.6836 L 10.8789 -7.86133 L 8.07617 -7.86133 C 7.50977 -7.86133 7.13867 -7.55859 7.13867 -7.03125 C 7.13867 -6.51367 7.5293 -6.23047 8.07617 -6.23047 L 10.8789 -6.23047 L 10.8789 -3.59375 C 10.8789 -3.03711 11.1621 -2.66602 11.6797 -2.66602 Z"/>
  </g>
  <g id="" transform="matrix(1 0 0 1 304.924 1933)">
   <path d="M 14.9707 5.66406 C 21.9336 5.66406 27.6953 -0.0976562 27.6953 -7.05078 C 27.6953 -14.0137 21.9238 -19.7754 14.9609 -19.7754 C 8.00781 -19.7754 2.25586 -14.0137 2.25586 -7.05078 C 2.25586 -0.0976562 8.01758 5.66406 14.9707 5.66406 Z M 14.9707 3.84766 C 8.93555 3.84766 4.08203 -1.01562 4.08203 -7.05078 C 4.08203 -13.0957 8.92578 -17.9492 14.9609 -17.9492 C 21.0059 -17.9492 25.8594 -13.0957 25.8691 -7.05078 C 25.8789 -1.01562 21.0156 3.84766 14.9707 3.84766 Z M 14.9414 -1.38672 C 15.5176 -1.38672 15.8594 -1.77734 15.8594 -2.38281 L 15.8594 -6.13281 L 19.7754 -6.13281 C 20.3711 -6.13281 20.7812 -6.46484 20.7812 -7.02148 C 20.7812 -7.59766 20.3906 -7.93945 19.7754 -7.93945 L 15.8594 -7.93945 L 15.8594 -11.8652 C 15.8594 -12.4805 15.5176 -12.8711 14.9414 -12.8711 C 14.375 -12.8711 14.0527 -12.4609 14.0527 -11.8652 L 14.0527 -7.93945 L 10.1465 -7.93945 C 9.53125 -7.93945 9.13086 -7.59766 9.13086 -7.02148 C 9.13086 -6.46484 9.55078 -6.13281 10.1465 -6.13281 L 14.0527 -6.13281 L 14.0527 -2.38281 C 14.0527 -1.79688 14.375 -1.38672 14.9414 -1.38672 Z"/>
  </g>
  <text style="stroke:none;fill:black;font-family:-apple-system,&quot;SF Pro Display&quot;,&quot;SF Pro Text&quot;,Helvetica,sans-serif;font-weight:bold;" transform="matrix(1 0 0 1 263 1953)">Design Variations</text>
  <text style="stroke:none;fill:black;font-family:-apple-system,&quot;SF Pro Display&quot;,&quot;SF Pro Text&quot;,Helvetica,sans-serif;" transform="matrix(1 0 0 1 263 1971)">Symbols are supported in up to nine weights and three scales.</text>
  <text style="stroke:none;fill:black;font-family:-apple-system,&quot;SF Pro Display&quot;,&quot;SF Pro Text&quot;,Helvetica,sans-serif;" transform="matrix(1 0 0 1 263 1989)">For optimal layout with text and other symbols, vertically align</text>
  <text style="stroke:none;fill:black;font-family:-apple-system,&quot;SF Pro Display&quot;,&quot;SF Pro Text&quot;,Helvetica,sans-serif;" transform="matrix(1 0 0 1 263 2007)">symbols with the adjacent text.</text>
  <line id="" style="fill:none;stroke:#00AEEF;stroke-width:0.5;opacity:1.0;" x1="776" x2="776" y1="1919" y2="1933"/>
  <g id="" transform="matrix(1 0 0 1 776 1933)">
   <path d="M 3.31055 0.126953 C 3.82812 0.126953 4.08203 -0.0683594 4.26758 -0.605469 L 5.52734 -4.0625 L 11.2891 -4.0625 L 12.5488 -0.605469 C 12.7344 -0.0683594 12.9883 0.126953 13.4961 0.126953 C 14.0137 0.126953 14.3457 -0.185547 14.3457 -0.673828 C 14.3457 -0.839844 14.3164 -0.986328 14.2383 -1.20117 L 9.6582 -13.3887 C 9.43359 -13.9941 9.0332 -14.2871 8.4082 -14.2871 C 7.80273 -14.2871 7.39258 -13.9941 7.17773 -13.3984 L 2.59766 -1.19141 C 2.51953 -0.976562 2.49023 -0.830078 2.49023 -0.664062 C 2.49023 -0.175781 2.80273 0.126953 3.31055 0.126953 Z M 6.00586 -5.53711 L 8.37891 -12.1094 L 8.42773 -12.1094 L 10.8008 -5.53711 Z"/>
  </g>
  <line id="" style="fill:none;stroke:#00AEEF;stroke-width:0.5;opacity:1.0;" x1="792.836" x2="792.836" y1="1919" y2="1933"/>
  <text style="stroke:none;fill:black;font-family:-apple-system,&quot;SF Pro Display&quot;,&quot;SF Pro Text&quot;,Helvetica,sans-serif;font-weight:bold;" transform="matrix(1 0 0 1 776 1953)">Margins</text>
  <text style="stroke:none;fill:black;font-family:-apple-system,&quot;SF Pro Display&quot;,&quot;SF Pro Text&quot;,Helvetica,sans-serif;" transform="matrix(1 0 0 1 776 1971)">Leading and trailing margins on the left and right side of each symbol</text>
  <text style="stroke:none;fill:black;font-family:-apple-system,&quot;SF Pro Display&quot;,&quot;SF Pro Text&quot;,Helvetica,sans-serif;" transform="matrix(1 0 0 1 776 1989)">can be adjusted by modifying the x-location of the margin guidelines.</text>
  <text style="stroke:none;fill:black;font-family:-apple-system,&quot;SF Pro Display&quot;,&quot;SF Pro Text&quot;,Helvetica,sans-serif;" transform="matrix(1 0 0 1 776 2007)">Modifications are automatically applied proportionally to all</text>
  <text style="stroke:none;fill:black;font-family:-apple-system,&quot;SF Pro Display&quot;,&quot;SF Pro Text&quot;,Helvetica,sans-serif;" transform="matrix(1 0 0 1 776 2025)">scales and weights.</text>
  <g id="" transform="matrix(1 0 0 1 1289 1933)">
   <path d="M 2.8418 1.86523 L 4.54102 3.57422 C 5.40039 4.44336 6.38672 4.38477 7.31445 3.35938 L 17.4902 -7.85156 C 17.7539 -7.76367 18.0273 -7.7832 18.3398 -7.8418 L 19.4043 -8.03711 L 20.0684 -7.36328 L 20.0293 -6.80664 C 19.9902 -6.30859 20.1172 -5.92773 20.6055 -5.44922 L 21.3672 -4.70703 C 21.8457 -4.22852 22.4609 -4.19922 22.9297 -4.66797 L 25.8398 -7.58789 C 26.3086 -8.05664 26.2891 -8.65234 25.8105 -9.13086 L 25.0391 -9.89258 C 24.5605 -10.3711 24.1895 -10.5273 23.7109 -10.4883 L 23.1348 -10.4395 L 22.4902 -11.0742 L 22.7344 -12.1973 C 22.8613 -12.7637 22.7051 -13.2031 22.1191 -13.7891 L 19.9219 -15.9766 C 16.582 -19.2969 12.1484 -19.2188 9.25781 -16.3281 C 8.83789 -15.918 8.80859 -15.3418 9.04297 -14.9512 C 9.27734 -14.5898 9.73633 -14.3555 10.3809 -14.5215 C 11.8457 -14.8633 13.3691 -14.9219 14.7949 -13.9844 L 14.209 -12.5293 C 14.0137 -12.0508 13.9844 -11.6504 14.1113 -11.2891 L 3.04688 -0.898438 C 2.06055 0.0195312 1.98242 0.996094 2.8418 1.86523 Z M 10.752 -15.957 C 13.1836 -17.7344 16.4746 -17.4316 18.7012 -15.2051 L 21.1328 -12.793 C 21.3672 -12.5586 21.4062 -12.373 21.3379 -12.0312 L 21.0156 -10.5469 L 22.5195 -9.0625 L 23.5059 -9.12109 C 23.7598 -9.13086 23.8379 -9.11133 24.0332 -8.91602 L 24.6094 -8.33984 L 22.168 -5.89844 L 21.5918 -6.47461 C 21.3965 -6.66992 21.3672 -6.74805 21.377 -7.01172 L 21.4453 -7.98828 L 19.9512 -9.47266 L 18.4277 -9.21875 C 18.1055 -9.15039 17.959 -9.17969 17.7148 -9.41406 L 15.7129 -11.416 C 15.459 -11.6504 15.4297 -11.8164 15.5859 -12.1875 L 16.4648 -14.2773 C 14.9023 -15.7324 12.8711 -16.3574 10.8398 -15.7617 C 10.6836 -15.7227 10.625 -15.8496 10.752 -15.957 Z M 5.27344 2.30469 L 4.10156 1.14258 C 3.63281 0.683594 3.74023 0.341797 4.14062 -0.0195312 L 14.9512 -10.1953 L 16.416 -8.71094 L 6.42578 2.27539 C 6.07422 2.67578 5.74219 2.77344 5.27344 2.30469 Z"/>
  </g>
  <text style="stroke:none;fill:black;font-family:-apple-system,&quot;SF Pro Display&quot;,&quot;SF Pro Text&quot;,Helvetica,sans-serif;font-weight:bold;" transform="matrix(1 0 0 1 1289 1953)">Exporting</text>
  <text style="stroke:none;fill:black;font-family:-apple-system,&quot;SF Pro Display&quot;,&quot;SF Pro Text&quot;,Helvetica,sans-serif;" transform="matrix(1 0 0 1 1289 1971)">Symbols should be outlined when exporting to ensure the</text>
  <text style="stroke:none;fill:black;font-family:-apple-system,&quot;SF Pro Display&quot;,&quot;SF Pro Text&quot;,Helvetica,sans-serif;" transform="matrix(1 0 0 1 1289 1989)">design is preserved when submitting to Xcode.</text>
  <text id="template-version" style="stroke:none;fill:black;font-family:-apple-system,&quot;SF Pro Display&quot;,&quot;SF Pro Text&quot;,Helvetica,sans-serif;text-anchor:end;" transform="matrix(1 0 0 1 3036 1933)">Template v.2.0</text>
  <text style="stroke:none;fill:black;font-family:-apple-system,&quot;SF Pro Display&quot;,&quot;SF Pro Text&quot;,Helvetica,sans-serif;text-anchor:end;" transform="matrix(1 0 0 1 3036 1951)">Requires Xcode 12 or greater</text>
  <text style="stroke:none;fill:black;font-family:-apple-system,&quot;SF Pro Display&quot;,&quot;SF Pro Text&quot;,Helvetica,sans-serif;text-anchor:end;" transform="matrix(1 0 0 1 3036 1969)">Generated from centsign.circle.fill</text>
  <text style="stroke:none;fill:black;font-family:-apple-system,&quot;SF Pro Display&quot;,&quot;SF Pro Text&quot;,Helvetica,sans-serif;text-anchor:end;" transform="matrix(1 0 0 1 3036 1987)">Typeset at 100 points</text>
  <text style="stroke:none;fill:black;font-family:-apple-system,&quot;SF Pro Display&quot;,&quot;SF Pro Text&quot;,Helvetica,sans-serif;" transform="matrix(1 0 0 1 263 726)">Small</text>
  <text style="stroke:none;fill:black;font-family:-apple-system,&quot;SF Pro Display&quot;,&quot;SF Pro Text&quot;,Helvetica,sans-serif;" transform="matrix(1 0 0 1 263 1156)">Medium</text>
  <text style="stroke:none;fill:black;font-family:-apple-system,&quot;SF Pro Display&quot;,&quot;SF Pro Text&quot;,Helvetica,sans-serif;" transform="matrix(1 0 0 1 263 1586)">Large</text>
 </g>
 <g id="Guides">
  <g id="H-reference" style="fill:#27AAE1;stroke:none;" transform="matrix(1 0 0 1 339 696)">
   <path d="M 0.976562 0 L 3.66211 0 L 12.9883 -24.4629 L 45.7031 -24.4629 L 55.0781 0 L 57.7148 0 L 30.6152 -70.459 L 28.125 -70.459 Z M 29.2969 -67.1387 L 29.3945 -67.1387 L 44.873 -26.709 L 13.8672 -26.709 Z"/>
  </g>
  <line id="Baseline-S" style="fill:none;stroke:#27AAE1;opacity:1;stroke-width:0.5;" x1="263" x2="3036" y1="696" y2="696"/>
  <line id="Capline-S" style="fill:none;stroke:#27AAE1;opacity:1;stroke-width:0.5;" x1="263" x2="3036" y1="625.541" y2="625.541"/>
  <g id="H-reference" style="fill:#27AAE1;stroke:none;" transform="matrix(1 0 0 1 339 1126)">
   <path d="M 0.976562 0 L 3.66211 0 L 12.9883 -24.4629 L 45.7031 -24.4629 L 55.0781 0 L 57.7148 0 L 30.6152 -70.459 L 28.125 -70.459 Z M 29.2969 -67.1387 L 29.3945 -67.1387 L 44.873 -26.709 L 13.8672 -26.709 Z"/>
  </g>
  <line id="Baseline-M" style="fill:none;stroke:#27AAE1;opacity:1;stroke-width:0.5;" x1="263" x2="3036" y1="1126" y2="1126"/>
  <line id="Capline-M" style="fill:none;stroke:#27AAE1;opacity:1;stroke-width:0.5;" x1="263" x2="3036" y1="1055.54" y2="1055.54"/>
  <g id="H-reference" style="fill:#27AAE1;stroke:none;" transform="matrix(1 0 0 1 339 1556)">
   <path d="M 0.976562 0 L 3.66211 0 L 12.9883 -24.4629 L 45.7031 -24.4629 L 55.0781 0 L 57.7148 0 L 30.6152 -70.459 L 28.125 -70.459 Z M 29.2969 -67.1387 L 29.3945 -67.1387 L 44.873 -26.709 L 13.8672 -26.709 Z"/>
  </g>
  <line id="Baseline-L" style="fill:none;stroke:#27AAE1;opacity:1;stroke-width:0.5;" x1="263" x2="3036" y1="1556" y2="1556"/>
  <line id="Capline-L" style="fill:none;stroke:#27AAE1;opacity:1;stroke-width:0.5;" x1="263" x2="3036" y1="1485.54" y2="1485.54"/>
  <line id="left-margin" style="fill:none;stroke:#00AEEF;stroke-width:0.5;opacity:1.0;" x1="1391.3" x2="1391.3" y1="1030.79" y2="1150.12"/>
  <line id="right-margin" style="fill:none;stroke:#00AEEF;stroke-width:0.5;opacity:1.0;" x1="1508.39" x2="1508.39" y1="1030.79" y2="1150.12"/>
 </g>
 <g id="Symbols">
  <g id="Black-L" transform="matrix(1 0 0 1 2854.05 1556)">
   <path d="M 79.3457 32.8613 C 116.748 32.8613 147.412 2.19727 147.412 -35.2051 C 147.412 -72.6074 116.748 -103.271 79.2969 -103.271 C 41.8945 -103.271 11.2793 -72.6074 11.2793 -35.2051 C 11.2793 2.19727 41.9434 32.8613 79.3457 32.8613 Z M 55.7617 -35.3516 C 55.7617 -49.2188 63.6719 -58.0566 76.416 -59.1797 L 76.416 -62.9395 C 76.416 -64.6973 77.5879 -65.9668 79.2969 -65.9668 C 80.9082 -65.9668 82.0801 -64.6973 82.0801 -62.9395 L 82.0801 -59.1797 C 91.6992 -58.4473 97.0703 -53.6133 99.1211 -48.0469 C 99.4141 -47.168 99.707 -46.0938 99.707 -45.166 C 99.707 -41.2598 96.582 -38.7695 92.627 -38.7695 C 89.502 -38.7695 87.5977 -40.332 86.084 -42.7246 C 85.1562 -44.5312 83.8379 -45.7031 82.0801 -46.3867 L 82.0801 -24.1699 C 83.9355 -24.7559 85.2539 -25.9766 86.2305 -27.832 C 87.9883 -30.6152 90.332 -31.8359 92.7246 -31.8359 C 96.7285 -31.8359 99.8535 -29.3457 99.8535 -25.3906 C 99.8535 -24.6582 99.707 -23.9258 99.6094 -23.4375 C 98.3398 -18.457 92.9199 -12.3047 82.0801 -11.377 L 82.0801 -7.51953 C 82.0801 -5.71289 80.9082 -4.54102 79.2969 -4.54102 C 77.5879 -4.54102 76.416 -5.71289 76.416 -7.51953 L 76.416 -11.377 C 63.6719 -12.5488 55.7617 -21.3379 55.7617 -35.3516 Z M 71.3379 -35.3516 C 71.3379 -29.1016 73.0957 -25.4883 76.416 -24.2676 L 76.416 -46.3379 C 73.0957 -45.1172 71.3379 -41.4551 71.3379 -35.3516 Z"/>
  </g>
  <g id="Heavy-L" transform="matrix(1 0 0 1 2558.39 1556)">
   <path d="M 78.2715 31.7871 C 115.088 31.7871 145.312 1.5625 145.312 -35.2051 C 145.312 -72.0215 115.039 -102.246 78.2715 -102.246 C 41.4551 -102.246 11.2793 -72.0215 11.2793 -35.2051 C 11.2793 1.5625 41.5039 31.7871 78.2715 31.7871 Z M 55.3223 -35.3027 C 55.3223 -48.9746 63.0371 -57.8125 75.3418 -58.9844 L 75.3418 -63.0371 C 75.3418 -64.7461 76.5625 -66.0156 78.2227 -66.0156 C 79.8828 -66.0156 81.0547 -64.7461 81.0547 -63.0371 L 81.0547 -58.9844 C 90.2344 -58.2031 95.752 -53.418 97.7539 -47.8027 C 97.998 -46.9727 98.291 -45.9961 98.291 -45.1172 C 98.291 -41.6504 95.5566 -39.4531 92.0898 -39.4531 C 89.3066 -39.4531 87.5977 -40.8203 86.2793 -43.1152 C 85.2539 -45.3613 83.4473 -46.9238 81.0547 -47.6562 L 81.0547 -22.9004 C 83.5449 -23.5352 85.3027 -25.0977 86.4258 -27.4902 C 87.8906 -29.9805 89.9414 -31.1523 92.1387 -31.1523 C 95.7031 -31.1523 98.3887 -28.9062 98.3887 -25.4395 C 98.3887 -24.707 98.2422 -23.9746 98.1445 -23.4375 C 96.6797 -18.2129 91.1621 -12.5 81.0547 -11.5723 L 81.0547 -7.4707 C 81.0547 -5.66406 79.8828 -4.49219 78.2227 -4.49219 C 76.5625 -4.49219 75.3418 -5.66406 75.3418 -7.4707 L 75.3418 -11.5723 C 63.0371 -12.793 55.3223 -21.5332 55.3223 -35.3027 Z M 68.9453 -35.3027 C 68.9453 -28.418 71.2402 -24.2676 75.3418 -23.0469 L 75.3418 -47.5586 C 71.2402 -46.2891 68.9453 -42.0898 68.9453 -35.3027 Z"/>
  </g>
  <g id="Bold-L" transform="matrix(1 0 0 1 2262.88 1556)">
   <path d="M 77.0996 30.5664 C 113.232 30.5664 142.92 0.878906 142.92 -35.2539 C 142.92 -71.3379 113.184 -101.074 77.0508 -101.074 C 40.9668 -101.074 11.2793 -71.3379 11.2793 -35.2539 C 11.2793 0.878906 41.0156 30.5664 77.0996 30.5664 Z M 54.834 -35.3027 C 54.834 -48.7305 62.3047 -57.5195 74.1699 -58.7402 L 74.1699 -63.0859 C 74.1699 -64.7949 75.3418 -66.0645 77.0508 -66.0645 C 78.6621 -66.0645 79.834 -64.7949 79.834 -63.0859 L 79.834 -58.7891 C 88.623 -57.959 94.2383 -53.2227 96.1914 -47.5098 C 96.4355 -46.7773 96.6797 -45.8984 96.6797 -45.0684 C 96.6797 -42.1387 94.4336 -40.1855 91.5039 -40.1855 C 89.1113 -40.1855 87.5977 -41.4062 86.4746 -43.5059 C 85.3027 -46.3379 83.0078 -48.3398 79.834 -49.0234 L 79.834 -21.4844 C 83.1055 -22.168 85.3516 -24.1699 86.6211 -27.0996 C 87.793 -29.248 89.502 -30.3223 91.5039 -30.3223 C 94.4824 -30.3223 96.7773 -28.418 96.7773 -25.4395 C 96.7773 -24.707 96.6309 -23.9746 96.4844 -23.4375 C 94.873 -18.0176 89.2578 -12.6465 79.834 -11.7676 L 79.834 -7.37305 C 79.834 -5.61523 78.6621 -4.44336 77.0508 -4.44336 C 75.3418 -4.44336 74.1699 -5.61523 74.1699 -7.37305 L 74.1699 -11.7676 C 62.3047 -13.0371 54.834 -21.7285 54.834 -35.3027 Z M 66.2109 -35.3027 C 66.2109 -27.6367 69.1406 -22.8516 74.1699 -21.6309 L 74.1699 -48.9258 C 69.1895 -47.6562 66.2109 -42.8223 66.2109 -35.3027 Z"/>
  </g>
  <g id="Semibold-L" transform="matrix(1 0 0 1 1966.97 1556)">
   <path d="M 76.2695 29.7363 C 111.914 29.7363 141.309 0.390625 141.309 -35.2539 C 141.309 -70.8984 111.865 -100.244 76.2695 -100.244 C 40.625 -100.244 11.2793 -70.8984 11.2793 -35.2539 C 11.2793 0.390625 40.6738 29.7363 76.2695 29.7363 Z M 54.4922 -35.3027 C 54.4922 -48.584 61.8164 -57.3242 73.3398 -58.5938 L 73.3398 -63.1348 C 73.3398 -64.8438 74.5605 -66.0645 76.2207 -66.0645 C 77.8809 -66.0645 79.0527 -64.8438 79.0527 -63.1348 L 79.0527 -58.5938 C 87.5 -57.7637 93.2129 -53.0762 95.166 -47.3145 C 95.3613 -46.6309 95.5566 -45.8496 95.5566 -45.0684 C 95.5566 -42.4316 93.6523 -40.7227 91.0645 -40.7227 C 88.9648 -40.7227 87.5977 -41.7969 86.6211 -43.75 C 85.3516 -46.9727 82.7148 -49.2676 79.0527 -50 L 79.0527 -20.5078 C 82.7637 -21.2402 85.4004 -23.5352 86.7188 -26.8066 C 87.7441 -28.7598 89.209 -29.7852 91.0645 -29.7852 C 93.6523 -29.7852 95.6543 -28.0762 95.6543 -25.4883 C 95.6543 -24.7559 95.459 -24.0234 95.3125 -23.4375 C 93.6523 -17.8223 87.9395 -12.793 79.0527 -11.8652 L 79.0527 -7.32422 C 79.0527 -5.61523 77.8809 -4.39453 76.2207 -4.39453 C 74.5605 -4.39453 73.3398 -5.61523 73.3398 -7.32422 L 73.3398 -11.9141 C 61.8164 -13.2324 54.4922 -21.875 54.4922 -35.3027 Z M 64.3555 -35.2539 C 64.3555 -27.0996 67.7246 -21.9238 73.3398 -20.6543 L 73.3398 -49.9023 C 67.7246 -48.5352 64.3555 -43.3594 64.3555 -35.2539 Z"/>
  </g>
  <g id="Medium-L" transform="matrix(1 0 0 1 1670.87 1556)">
   <path d="M 75.6836 29.1504 C 110.938 29.1504 140.088 0 140.088 -35.2539 C 140.088 -70.5078 110.889 -99.6582 75.6348 -99.6582 C 40.3809 -99.6582 11.2793 -70.5078 11.2793 -35.2539 C 11.2793 0 40.3809 29.1504 75.6836 29.1504 Z M 54.248 -35.3027 C 54.248 -48.4863 61.4258 -57.1289 72.7051 -58.4473 L 72.7051 -63.1836 C 72.7051 -64.8926 73.9258 -66.1133 75.5859 -66.1133 C 77.2461 -66.1133 78.418 -64.8926 78.418 -63.1836 L 78.418 -58.4961 C 86.6699 -57.6172 92.4316 -52.9785 94.3359 -47.168 C 94.5312 -46.4844 94.7266 -45.752 94.7266 -45.0195 C 94.7266 -42.6758 93.0664 -41.1133 90.7227 -41.1133 C 88.8672 -41.1133 87.5977 -42.0898 86.7188 -43.9941 C 85.3516 -47.4609 82.4707 -50 78.418 -50.7324 L 78.418 -19.7754 C 82.5684 -20.5078 85.4004 -22.998 86.8164 -26.6113 C 87.6953 -28.3691 88.9648 -29.3945 90.7227 -29.3945 C 93.0664 -29.3945 94.7754 -27.832 94.7754 -25.4883 C 94.7754 -24.7559 94.6289 -24.0234 94.4824 -23.4375 C 92.6758 -17.7246 86.9629 -12.8906 78.418 -11.9629 L 78.418 -7.27539 C 78.418 -5.56641 77.2461 -4.39453 75.5859 -4.39453 C 73.9258 -4.39453 72.7051 -5.56641 72.7051 -7.27539 L 72.7051 -12.0117 C 61.4258 -13.3301 54.248 -21.9727 54.248 -35.3027 Z M 62.9395 -35.2539 C 62.9395 -26.6602 66.6504 -21.1914 72.7051 -19.9219 L 72.7051 -50.6348 C 66.6504 -49.2676 62.9395 -43.75 62.9395 -35.2539 Z"/>
  </g>
  <g id="Regular-L" transform="matrix(1 0 0 1 1374.97 1556)">
   <path d="M 74.8535 28.3203 C 109.668 28.3203 138.477 -0.488281 138.477 -35.2539 C 138.477 -70.0684 109.619 -98.877 74.8047 -98.877 C 40.0391 -98.877 11.2793 -70.0684 11.2793 -35.2539 C 11.2793 -0.488281 40.0879 28.3203 74.8535 28.3203 Z M 53.9062 -35.2539 C 53.9062 -48.291 60.9375 -56.9336 71.875 -58.3008 L 71.875 -63.2324 C 71.875 -64.9414 73.0957 -66.1621 74.7559 -66.1621 C 76.416 -66.1621 77.6367 -64.9414 77.6367 -63.2324 L 77.6367 -58.3496 C 85.5469 -57.4707 91.4062 -52.832 93.3105 -46.9727 C 93.457 -46.3379 93.6523 -45.7031 93.6523 -44.9707 C 93.6523 -42.9688 92.2852 -41.6504 90.332 -41.6504 C 88.7207 -41.6504 87.5977 -42.4316 86.8652 -44.2383 C 85.4004 -48.0957 82.1777 -50.9277 77.6367 -51.709 L 77.6367 -18.7988 C 82.2266 -19.5801 85.4492 -22.3633 86.9629 -26.3184 C 87.5977 -27.8809 88.6719 -28.8574 90.2832 -28.8574 C 92.2363 -28.8574 93.7012 -27.4902 93.7012 -25.4883 C 93.7012 -24.7559 93.5059 -24.0723 93.3594 -23.4375 C 91.4551 -17.5781 85.6445 -12.9883 77.6367 -12.1094 L 77.6367 -7.22656 C 77.6367 -5.56641 76.416 -4.3457 74.7559 -4.3457 C 73.0957 -4.3457 71.875 -5.56641 71.875 -7.22656 L 71.875 -12.1582 C 60.9375 -13.5254 53.9062 -22.1191 53.9062 -35.2539 Z M 61.084 -35.2539 C 61.084 -26.123 65.2344 -20.2637 71.875 -18.9453 L 71.875 -51.5625 C 65.2344 -50.1953 61.084 -44.2383 61.084 -35.2539 Z"/>
  </g>
  <g id="Light-L" transform="matrix(1 0 0 1 1079.18 1556)">
   <path d="M 73.9258 27.3926 C 108.301 27.3926 136.621 -0.927734 136.621 -35.2539 C 136.621 -69.6289 108.252 -97.9492 73.9258 -97.9492 C 39.5508 -97.9492 11.2793 -69.6289 11.2793 -35.2539 C 11.2793 -0.927734 39.5996 27.3926 73.9258 27.3926 Z M 54.1016 -35.2539 C 54.1016 -47.9004 60.8887 -56.2012 71.4844 -57.373 L 71.4844 -62.3535 C 71.4844 -63.7695 72.4609 -64.7949 73.877 -64.7949 C 75.293 -64.7949 76.2695 -63.7695 76.2695 -62.3535 L 76.2695 -57.373 C 83.9355 -56.6406 89.6484 -52.1484 91.5527 -46.2402 C 91.6992 -45.5566 91.8457 -45.0195 91.8457 -44.4336 C 91.8457 -42.8223 90.7715 -41.7969 89.209 -41.7969 C 87.8418 -41.7969 87.0605 -42.4316 86.377 -44.1406 C 84.9121 -48.3398 81.25 -51.3672 76.2695 -52.0508 L 76.2695 -18.457 C 81.2988 -19.0918 84.9121 -22.1191 86.4746 -26.4648 C 87.0117 -27.9297 87.793 -28.6621 89.1602 -28.6621 C 90.7227 -28.6621 91.8945 -27.5879 91.8945 -25.9766 C 91.8945 -25.4395 91.748 -24.8535 91.6016 -24.1699 C 89.6973 -18.2129 83.9844 -13.8184 76.2695 -13.0859 L 76.2695 -8.05664 C 76.2695 -6.68945 75.293 -5.66406 73.877 -5.66406 C 72.4609 -5.66406 71.4844 -6.68945 71.4844 -8.05664 L 71.4844 -13.0859 C 60.8887 -14.2578 54.1016 -22.6074 54.1016 -35.2539 Z M 59.8145 -35.2051 C 59.8145 -25.8301 64.209 -19.6289 71.4844 -18.5059 L 71.4844 -51.9531 C 64.2578 -50.7812 59.8145 -44.5312 59.8145 -35.2051 Z"/>
  </g>
  <g id="Thin-L" transform="matrix(1 0 0 1 783.693 1556)">
   <path d="M 72.7051 26.1719 C 106.494 26.1719 134.18 -1.51367 134.18 -35.2539 C 134.18 -69.043 106.494 -96.7285 72.7051 -96.7285 C 38.9648 -96.7285 11.2793 -69.043 11.2793 -35.2539 C 11.2793 -1.51367 38.9648 26.1719 72.7051 26.1719 Z M 54.3945 -35.2539 C 54.3945 -47.3145 60.8398 -55.2246 70.9473 -56.1035 L 70.9473 -61.2305 C 70.9473 -62.207 71.6309 -62.9883 72.7051 -62.9883 C 73.7793 -62.9883 74.4629 -62.207 74.4629 -61.2305 L 74.4629 -56.1035 C 81.7383 -55.5664 87.4023 -51.2207 89.2578 -45.2148 C 89.4043 -44.5312 89.502 -44.0918 89.502 -43.75 C 89.502 -42.627 88.7695 -41.9922 87.7441 -41.9922 C 86.7676 -41.9922 86.3281 -42.3828 85.7422 -43.9941 C 84.2285 -48.6328 80.0293 -52.002 74.4629 -52.5391 L 74.4629 -17.9688 C 80.0293 -18.457 84.2285 -21.7773 85.8398 -26.6113 C 86.2793 -27.9297 86.6699 -28.418 87.7441 -28.418 C 88.7695 -28.418 89.502 -27.7344 89.502 -26.6602 C 89.502 -26.2695 89.4043 -25.8301 89.2578 -25.1953 C 87.4023 -19.0918 81.8359 -14.8926 74.4629 -14.3555 L 74.4629 -9.17969 C 74.4629 -8.1543 73.7793 -7.37305 72.7051 -7.37305 C 71.6309 -7.37305 70.9473 -8.1543 70.9473 -9.17969 L 70.9473 -14.3555 C 60.8398 -15.2344 54.3945 -23.1934 54.3945 -35.2539 Z M 58.1055 -35.2051 C 58.1055 -25.3906 62.9395 -18.8477 70.9473 -17.9688 L 70.9473 -52.4902 C 62.9883 -51.5625 58.1055 -44.9707 58.1055 -35.2051 Z"/>
  </g>
  <g id="Ultralight-L" transform="matrix(1 0 0 1 487.616 1556)">
   <path d="M 72.1191 25.5371 C 105.566 25.5371 132.91 -1.80664 132.91 -35.2539 C 132.91 -68.75 105.566 -96.0938 72.1191 -96.0938 C 38.623 -96.0938 11.2793 -68.75 11.2793 -35.2539 C 11.2793 -1.80664 38.623 25.5371 72.1191 25.5371 Z M 54.541 -35.2539 C 54.541 -47.0215 60.791 -54.7363 70.6543 -55.4688 L 70.6543 -60.6445 C 70.6543 -61.4258 71.2402 -62.1094 72.1191 -62.1094 C 72.998 -62.1094 73.5352 -61.4258 73.5352 -60.6445 L 73.5352 -55.4688 C 80.6152 -55.0293 86.2305 -50.7324 88.0859 -44.6777 C 88.2324 -44.043 88.2812 -43.6523 88.2812 -43.3594 C 88.2812 -42.5293 87.7441 -42.0898 86.9629 -42.0898 C 86.1816 -42.0898 85.9863 -42.334 85.4004 -43.8965 C 83.8867 -48.7793 79.3945 -52.2949 73.5352 -52.7344 L 73.5352 -17.6758 C 79.3945 -18.1641 83.8867 -21.582 85.498 -26.709 C 85.8887 -27.9785 86.084 -28.2715 87.0117 -28.2715 C 87.7441 -28.2715 88.2812 -27.832 88.2812 -27.002 C 88.2812 -26.709 88.2324 -26.3672 88.0371 -25.6836 C 86.2305 -19.5801 80.7129 -15.4297 73.5352 -14.9902 L 73.5352 -9.7168 C 73.5352 -8.93555 72.998 -8.25195 72.1191 -8.25195 C 71.2402 -8.25195 70.6543 -8.93555 70.6543 -9.7168 L 70.6543 -14.9902 C 60.791 -15.7227 54.541 -23.5352 54.541 -35.2539 Z M 57.2754 -35.2051 C 57.2754 -25.1953 62.2559 -18.4082 70.6543 -17.6758 L 70.6543 -52.7832 C 62.3535 -51.9531 57.2754 -45.166 57.2754 -35.2051 Z"/>
  </g>
  <g id="Black-M" transform="matrix(1 0 0 1 2870.97 1126)">
   <path d="M 62.4023 18.457 C 91.9922 18.457 116.113 -5.61523 116.113 -35.2051 C 116.113 -64.7949 91.9922 -88.8672 62.4023 -88.8672 C 32.8125 -88.8672 8.74023 -64.7949 8.74023 -35.2051 C 8.74023 -5.61523 32.8125 18.457 62.4023 18.457 Z M 43.8477 -35.3027 C 43.8477 -46.0938 50.1953 -52.8809 60.4492 -53.5645 L 60.4492 -56.1523 C 60.4492 -57.373 61.2305 -58.252 62.4023 -58.252 C 63.5254 -58.252 64.3066 -57.373 64.3066 -56.1523 L 64.3066 -53.5645 C 72.1191 -53.0762 76.123 -49.3164 77.7344 -45.1172 C 77.9785 -44.3359 78.2227 -43.4082 78.2227 -42.7246 C 78.2227 -39.2578 75.3906 -37.1094 71.9238 -37.1094 C 69.1406 -37.1094 67.5781 -38.5254 66.2109 -40.5273 C 65.6738 -41.4062 64.9902 -41.9434 64.3066 -42.3828 L 64.3066 -28.1738 C 65.0879 -28.5156 65.7227 -29.0527 66.3574 -30.0781 C 67.9688 -32.5195 70.0684 -33.4473 72.0703 -33.4473 C 75.5859 -33.4473 78.3691 -31.3477 78.3691 -27.8809 C 78.3691 -27.3926 78.3203 -26.8066 78.2227 -26.5137 C 77.4414 -22.8516 73.3887 -17.7246 64.3066 -17.041 L 64.3066 -14.3066 C 64.3066 -12.9883 63.5254 -12.207 62.4023 -12.207 C 61.2305 -12.207 60.4492 -12.9883 60.4492 -14.3066 L 60.4492 -17.041 C 50.1953 -17.7734 43.8477 -24.4629 43.8477 -35.3027 Z M 57.8613 -35.3027 C 57.8613 -31.25 58.6426 -29.0039 60.4492 -28.2227 L 60.4492 -42.3828 C 58.6426 -41.5527 57.8613 -39.3066 57.8613 -35.3027 Z"/>
  </g>
  <g id="Heavy-M" transform="matrix(1 0 0 1 2575.19 1126)">
   <path d="M 61.5234 17.5293 C 90.5273 17.5293 114.258 -6.20117 114.258 -35.2051 C 114.258 -64.2578 90.5273 -87.9883 61.4746 -87.9883 C 32.4707 -87.9883 8.74023 -64.2578 8.74023 -35.2051 C 8.74023 -6.20117 32.4707 17.5293 61.5234 17.5293 Z M 43.3594 -35.3027 C 43.3594 -45.9961 49.4629 -52.7832 59.375 -53.5645 L 59.375 -56.4453 C 59.375 -57.7637 60.2539 -58.6426 61.4746 -58.6426 C 62.6465 -58.6426 63.5254 -57.7637 63.5254 -56.4453 L 63.5254 -53.6133 C 70.9961 -53.0273 75.0977 -49.3164 76.6602 -45.0195 C 76.9043 -44.3359 77.1484 -43.5059 77.1484 -42.8223 C 77.1484 -39.7461 74.707 -37.8418 71.6309 -37.8418 C 69.1895 -37.8418 67.7246 -39.0625 66.5527 -40.918 C 65.8691 -42.2852 64.8438 -43.1641 63.5254 -43.6523 L 63.5254 -26.8555 C 64.8926 -27.2949 65.918 -28.1738 66.6504 -29.6387 C 68.0176 -31.8359 69.873 -32.7148 71.7285 -32.7148 C 74.8047 -32.7148 77.2461 -30.8105 77.2461 -27.7344 C 77.2461 -27.2461 77.1484 -26.6602 77.0996 -26.3184 C 76.123 -22.4609 71.9727 -17.6758 63.5254 -16.9434 L 63.5254 -14.0137 C 63.5254 -12.6465 62.6465 -11.8164 61.4746 -11.8164 C 60.2539 -11.8164 59.375 -12.6465 59.375 -14.0137 L 59.375 -16.9922 C 49.4629 -17.8223 43.3594 -24.5605 43.3594 -35.3027 Z M 55.5664 -35.3027 C 55.5664 -30.5664 56.8359 -27.832 59.375 -26.9531 L 59.375 -43.6035 C 56.8359 -42.7246 55.5664 -39.9414 55.5664 -35.3027 Z"/>
  </g>
  <g id="Bold-M" transform="matrix(1 0 0 1 2279.5 1126)">
   <path d="M 60.498 16.5039 C 88.8672 16.5039 112.207 -6.83594 112.207 -35.2051 C 112.207 -63.623 88.8672 -86.9629 60.4492 -86.9629 C 32.0312 -86.9629 8.74023 -63.623 8.74023 -35.2051 C 8.74023 -6.83594 32.0801 16.5039 60.498 16.5039 Z M 42.7734 -35.3027 C 42.7734 -45.8496 48.7305 -52.6855 58.2031 -53.6133 L 58.2031 -56.7871 C 58.2031 -58.1543 59.1309 -59.082 60.4492 -59.082 C 61.7188 -59.082 62.5977 -58.1543 62.5977 -56.7871 L 62.5977 -53.6133 C 69.6777 -52.9785 73.9746 -49.3164 75.5371 -44.9219 C 75.6836 -44.3359 75.9277 -43.5547 75.9277 -42.9199 C 75.9277 -40.2832 73.877 -38.623 71.2891 -38.623 C 69.1895 -38.623 67.8711 -39.6973 66.8945 -41.4062 C 66.0645 -43.2617 64.5996 -44.5312 62.5977 -45.0684 L 62.5977 -25.4395 C 64.6973 -25.9277 66.1133 -27.2461 66.9922 -29.1504 C 68.1152 -31.0547 69.6289 -31.9336 71.3379 -31.9336 C 73.9746 -31.9336 75.9766 -30.2246 75.9766 -27.6367 C 75.9766 -27.0508 75.8789 -26.4648 75.7812 -26.0742 C 74.6582 -22.0215 70.3613 -17.627 62.5977 -16.8945 L 62.5977 -13.6719 C 62.5977 -12.3047 61.7188 -11.377 60.4492 -11.377 C 59.1309 -11.377 58.2031 -12.3047 58.2031 -13.6719 L 58.2031 -16.8945 C 48.7305 -17.8711 42.7734 -24.6582 42.7734 -35.3027 Z M 52.9785 -35.3027 C 52.9785 -29.834 54.8828 -26.5137 58.2031 -25.5371 L 58.2031 -45.0195 C 54.8828 -44.043 52.9785 -40.6738 52.9785 -35.3027 Z"/>
  </g>
  <g id="Semibold-M" transform="matrix(1 0 0 1 1983.5 1126)">
   <path d="M 59.7656 15.8203 C 87.7441 15.8203 110.791 -7.27539 110.791 -35.2539 C 110.791 -63.2324 87.6953 -86.2793 59.7656 -86.2793 C 31.7871 -86.2793 8.74023 -63.2324 8.74023 -35.2539 C 8.74023 -7.27539 31.7871 15.8203 59.7656 15.8203 Z M 42.3828 -35.3027 C 42.3828 -45.752 48.1934 -52.6367 57.373 -53.6133 L 57.373 -57.0312 C 57.373 -58.3984 58.3496 -59.4238 59.7168 -59.4238 C 61.0352 -59.4238 62.0117 -58.3984 62.0117 -57.0312 L 62.0117 -53.6621 C 68.7988 -52.9785 73.1934 -49.2676 74.707 -44.873 C 74.8535 -44.2871 75.0488 -43.6523 75.0488 -42.9688 C 75.0488 -40.6738 73.3398 -39.1602 71.0449 -39.1602 C 69.1895 -39.1602 68.0176 -40.0879 67.1875 -41.6992 C 66.2109 -43.8965 64.502 -45.459 62.0117 -46.0449 L 62.0117 -24.4629 C 64.5508 -25 66.2598 -26.5625 67.2363 -28.8086 C 68.1641 -30.4688 69.4824 -31.3477 71.0449 -31.3477 C 73.3887 -31.3477 75.1465 -29.834 75.1465 -27.5391 C 75.1465 -26.9531 75 -26.3672 74.9023 -25.9277 C 73.6328 -21.6797 69.2383 -17.5781 62.0117 -16.8457 L 62.0117 -13.4766 C 62.0117 -12.0605 61.0352 -11.084 59.7168 -11.084 C 58.3496 -11.084 57.373 -12.0605 57.373 -13.4766 L 57.373 -16.8945 C 48.1934 -17.9199 42.3828 -24.707 42.3828 -35.3027 Z M 51.1719 -35.2539 C 51.1719 -29.2969 53.5156 -25.5859 57.373 -24.5605 L 57.373 -45.9473 C 53.5156 -44.9219 51.1719 -41.1621 51.1719 -35.2539 Z"/>
  </g>
  <g id="Medium-M" transform="matrix(1 0 0 1 1687.3 1126)">
   <path d="M 59.2285 15.2344 C 86.9141 15.2344 109.766 -7.61719 109.766 -35.2539 C 109.766 -62.8906 86.8652 -85.7422 59.1797 -85.7422 C 31.543 -85.7422 8.74023 -62.8906 8.74023 -35.2539 C 8.74023 -7.61719 31.5918 15.2344 59.2285 15.2344 Z M 42.0898 -35.2539 C 42.0898 -45.7031 47.7539 -52.5391 56.7383 -53.6133 L 56.7383 -57.2266 C 56.7383 -58.6426 57.7637 -59.668 59.1797 -59.668 C 60.5469 -59.668 61.5234 -58.6426 61.5234 -57.2266 L 61.5234 -53.6621 C 68.1152 -52.9297 72.6074 -49.2676 74.0723 -44.8242 C 74.2188 -44.2871 74.4141 -43.6523 74.4141 -43.0176 C 74.4141 -40.9668 72.9492 -39.5508 70.8496 -39.5508 C 69.1895 -39.5508 68.0664 -40.4297 67.334 -41.9434 C 66.3086 -44.4336 64.3555 -46.1914 61.5234 -46.8262 L 61.5234 -23.6816 C 64.4043 -24.3164 66.3574 -26.0742 67.4316 -28.5645 C 68.1641 -30.0781 69.3848 -30.957 70.8496 -30.957 C 72.9492 -30.957 74.4629 -29.541 74.4629 -27.4902 C 74.4629 -26.8555 74.3164 -26.2695 74.2188 -25.8301 C 72.8516 -21.4844 68.4082 -17.5781 61.5234 -16.7969 L 61.5234 -13.2812 C 61.5234 -11.8652 60.5469 -10.8398 59.1797 -10.8398 C 57.7637 -10.8398 56.7383 -11.8652 56.7383 -13.2812 L 56.7383 -16.8457 C 47.7539 -17.9199 42.0898 -24.7559 42.0898 -35.2539 Z M 49.8535 -35.2539 C 49.8535 -28.9062 52.4414 -24.8535 56.7383 -23.8281 L 56.7383 -46.6797 C 52.4902 -45.6055 49.8535 -41.5527 49.8535 -35.2539 Z"/>
  </g>
  <g id="Regular-M" transform="matrix(1 0 0 1 1391.3 1126)">
   <path d="M 58.5449 14.5508 C 85.791 14.5508 108.35 -8.05664 108.35 -35.2539 C 108.35 -62.5 85.7422 -85.0586 58.4961 -85.0586 C 31.2988 -85.0586 8.74023 -62.5 8.74023 -35.2539 C 8.74023 -8.05664 31.3477 14.5508 58.5449 14.5508 Z M 41.6992 -35.2539 C 41.6992 -45.6055 47.2656 -52.4902 55.957 -53.6621 L 55.957 -57.4219 C 55.957 -58.8867 57.0312 -59.9609 58.4473 -59.9609 C 59.9121 -59.9609 60.9375 -58.8867 60.9375 -57.4219 L 60.9375 -53.7109 C 67.2363 -52.9297 71.8262 -49.2676 73.291 -44.7754 C 73.4375 -44.2871 73.584 -43.75 73.584 -43.1152 C 73.584 -41.3086 72.4121 -40.0879 70.6543 -40.0879 C 69.2383 -40.0879 68.2129 -40.8203 67.627 -42.2852 C 66.4551 -45.0684 64.209 -47.1191 60.9375 -47.8027 L 60.9375 -22.7051 C 64.2578 -23.3887 66.5039 -25.3906 67.6758 -28.2715 C 68.2129 -29.541 69.1895 -30.3711 70.6055 -30.3711 C 72.3633 -30.3711 73.6328 -29.1504 73.6328 -27.3926 C 73.6328 -26.7578 73.4863 -26.1719 73.3398 -25.6348 C 71.875 -21.1426 67.334 -17.5293 60.9375 -16.748 L 60.9375 -13.0371 C 60.9375 -11.5723 59.9121 -10.5469 58.4473 -10.5469 C 57.0312 -10.5469 55.957 -11.5723 55.957 -13.0371 L 55.957 -16.7969 C 47.2656 -17.9688 41.6992 -24.8047 41.6992 -35.2539 Z M 48.0957 -35.2539 C 48.0957 -28.3691 51.123 -23.9746 55.957 -22.8516 L 55.957 -47.6562 C 51.123 -46.4844 48.0957 -42.041 48.0957 -35.2539 Z"/>
  </g>
  <g id="Light-M" transform="matrix(1 0 0 1 1095.42 1126)">
   <path d="M 57.7148 13.7207 C 84.5215 13.7207 106.689 -8.44727 106.689 -35.2539 C 106.689 -62.1094 84.5215 -84.2285 57.666 -84.2285 C 30.8594 -84.2285 8.74023 -62.1094 8.74023 -35.2539 C 8.74023 -8.44727 30.9082 13.7207 57.7148 13.7207 Z M 41.8457 -35.2539 C 41.8457 -45.2148 47.168 -51.8066 55.5664 -52.7832 L 55.5664 -56.6406 C 55.5664 -57.8613 56.4453 -58.7402 57.666 -58.7402 C 58.8379 -58.7402 59.7168 -57.8613 59.7168 -56.6406 L 59.7168 -52.832 C 65.7715 -52.1973 70.2637 -48.6328 71.7285 -44.0918 C 71.8262 -43.6035 71.9727 -43.1152 71.9727 -42.627 C 71.9727 -41.2109 71.0449 -40.2344 69.6289 -40.2344 C 68.457 -40.2344 67.6758 -40.8203 67.1387 -42.1875 C 66.0156 -45.2637 63.3789 -47.5586 59.7168 -48.0957 L 59.7168 -22.3633 C 63.4277 -22.9492 66.0645 -25.1953 67.2363 -28.3691 C 67.6758 -29.541 68.4082 -30.2246 69.5801 -30.2246 C 70.9961 -30.2246 72.0215 -29.248 72.0215 -27.832 C 72.0215 -27.3438 71.875 -26.8555 71.7773 -26.3184 C 70.3125 -21.7773 65.8203 -18.2617 59.7168 -17.627 L 59.7168 -13.8184 C 59.7168 -12.5977 58.8379 -11.7188 57.666 -11.7188 C 56.4453 -11.7188 55.5664 -12.5977 55.5664 -13.8184 L 55.5664 -17.6758 C 47.168 -18.6523 41.8457 -25.2441 41.8457 -35.2539 Z M 46.9238 -35.2539 C 46.9238 -28.0762 50.1953 -23.4375 55.5664 -22.4609 L 55.5664 -47.998 C 50.2441 -47.0215 46.9238 -42.334 46.9238 -35.2539 Z"/>
  </g>
  <g id="Thin-M" transform="matrix(1 0 0 1 799.806 1126)">
   <path d="M 56.6406 12.5977 C 82.9102 12.5977 104.492 -8.98438 104.492 -35.2539 C 104.492 -61.5723 82.9102 -83.1543 56.5918 -83.1543 C 30.3223 -83.1543 8.74023 -61.5723 8.74023 -35.2539 C 8.74023 -8.98438 30.3223 12.5977 56.6406 12.5977 Z M 42.0898 -35.2539 C 42.0898 -44.7266 47.1191 -50.9277 55.0781 -51.6602 L 55.0781 -55.6152 C 55.0781 -56.4941 55.6641 -57.1289 56.5918 -57.1289 C 57.4707 -57.1289 58.0566 -56.4941 58.0566 -55.6152 L 58.0566 -51.709 C 63.7695 -51.2207 68.2129 -47.8027 69.6289 -43.1641 C 69.7754 -42.6758 69.8242 -42.334 69.8242 -41.9922 C 69.8242 -41.0156 69.1895 -40.4297 68.3105 -40.4297 C 67.4316 -40.4297 67.041 -40.7715 66.5527 -42.041 C 65.3809 -45.5566 62.2559 -48.0957 58.0566 -48.5352 L 58.0566 -21.9238 C 62.2559 -22.3633 65.3809 -24.8535 66.6504 -28.5156 C 66.9922 -29.5898 67.3828 -29.9805 68.2617 -29.9805 C 69.1895 -29.9805 69.873 -29.3945 69.873 -28.418 C 69.873 -28.125 69.7754 -27.7344 69.6289 -27.2461 C 68.2129 -22.5586 63.8672 -19.2383 58.0566 -18.75 L 58.0566 -14.7949 C 58.0566 -13.916 57.4707 -13.2812 56.5918 -13.2812 C 55.6641 -13.2812 55.0781 -13.916 55.0781 -14.7949 L 55.0781 -18.7988 C 47.1191 -19.5312 42.0898 -25.7812 42.0898 -35.2539 Z M 45.3613 -35.2051 C 45.3613 -27.6855 49.0234 -22.7051 55.0781 -21.9727 L 55.0781 -48.4863 C 49.0723 -47.7051 45.3613 -42.6758 45.3613 -35.2051 Z"/>
  </g>
  <g id="Ultralight-M" transform="matrix(1 0 0 1 503.656 1126)">
   <path d="M 56.0547 12.0605 C 82.0801 12.0605 103.369 -9.22852 103.369 -35.2539 C 103.369 -61.2793 82.0801 -82.5684 56.0547 -82.5684 C 30.0293 -82.5684 8.74023 -61.2793 8.74023 -35.2539 C 8.74023 -9.22852 30.0293 12.0605 56.0547 12.0605 Z M 42.1875 -35.2539 C 42.1875 -44.4824 47.0703 -50.4883 54.7852 -51.123 L 54.7852 -55.0781 C 54.7852 -55.7617 55.2734 -56.2988 56.0059 -56.2988 C 56.7383 -56.2988 57.2266 -55.7617 57.2266 -55.0781 L 57.2266 -51.123 C 62.793 -50.7324 67.1387 -47.3633 68.5547 -42.7246 C 68.7012 -42.1875 68.75 -41.8945 68.75 -41.6504 C 68.75 -40.918 68.2617 -40.5273 67.627 -40.5273 C 66.9434 -40.5273 66.6992 -40.7227 66.2598 -41.9922 C 65.0879 -45.7031 61.6699 -48.3887 57.2266 -48.7305 L 57.2266 -21.7285 C 61.6699 -22.0703 65.0879 -24.707 66.3086 -28.6133 C 66.6504 -29.5898 66.8457 -29.8828 67.627 -29.8828 C 68.2617 -29.8828 68.75 -29.4922 68.75 -28.7598 C 68.75 -28.5156 68.7012 -28.1738 68.5547 -27.6855 C 67.1387 -22.9492 62.8418 -19.7266 57.2266 -19.3359 L 57.2266 -15.2832 C 57.2266 -14.6484 56.7383 -14.0625 56.0059 -14.0625 C 55.2734 -14.0625 54.7852 -14.6484 54.7852 -15.2832 L 54.7852 -19.3359 C 47.0703 -19.9707 42.1875 -26.0742 42.1875 -35.2539 Z M 44.5801 -35.2051 C 44.5801 -27.5391 48.4375 -22.3145 54.7852 -21.7285 L 54.7852 -48.7305 C 48.4863 -48.0469 44.5801 -42.8711 44.5801 -35.2051 Z"/>
  </g>
  <g id="Black-S" transform="matrix(1 0 0 1 2884.57 696)">
   <path d="M 48.8281 6.78711 C 71.9727 6.78711 90.8203 -12.0605 90.8203 -35.2051 C 90.8203 -58.3496 71.9727 -77.1973 48.8281 -77.1973 C 25.6836 -77.1973 6.83594 -58.3496 6.83594 -35.2051 C 6.83594 -12.0605 25.6836 6.78711 48.8281 6.78711 Z M 34.3262 -35.3027 C 34.3262 -43.75 39.2578 -49.0723 47.2656 -49.6094 L 47.2656 -51.6602 C 47.2656 -52.6367 47.9004 -53.3203 48.8281 -53.3203 C 49.707 -53.3203 50.3418 -52.6367 50.3418 -51.6602 L 50.3418 -49.6094 C 56.4453 -49.2188 59.5703 -46.2891 60.8398 -42.9688 C 61.0352 -42.3828 61.2305 -41.6504 61.2305 -41.1133 C 61.2305 -38.4277 59.0332 -36.7676 56.3477 -36.7676 C 54.1992 -36.7676 52.9785 -37.8418 51.9043 -39.4043 C 51.4648 -40.1367 50.9277 -40.5762 50.3418 -40.918 L 50.3418 -29.5898 C 50.9766 -29.8828 51.5137 -30.3223 52.002 -31.1523 C 53.2715 -33.0566 54.8828 -33.7891 56.4453 -33.7891 C 59.1797 -33.7891 61.3281 -32.1289 61.3281 -29.4434 C 61.3281 -29.0527 61.2793 -28.6133 61.2305 -28.3691 C 60.5957 -25.4883 57.4219 -21.4844 50.3418 -20.9473 L 50.3418 -18.7988 C 50.3418 -17.7734 49.707 -17.1387 48.8281 -17.1387 C 47.9004 -17.1387 47.2656 -17.7734 47.2656 -18.7988 L 47.2656 -20.9473 C 39.2578 -21.5332 34.3262 -26.8066 34.3262 -35.3027 Z M 45.166 -35.3027 C 45.166 -32.0801 45.8008 -30.2734 47.2656 -29.6387 L 47.2656 -40.918 C 45.8008 -40.2832 45.166 -38.4766 45.166 -35.3027 Z"/>
  </g>
  <g id="Heavy-S" transform="matrix(1 0 0 1 2588.47 696)">
   <path d="M 48.2422 6.15234 C 70.9961 6.15234 89.5996 -12.4512 89.5996 -35.2051 C 89.5996 -57.959 70.9961 -76.6113 48.1934 -76.6113 C 25.4395 -76.6113 6.83594 -57.959 6.83594 -35.2051 C 6.83594 -12.4512 25.4395 6.15234 48.2422 6.15234 Z M 33.9355 -35.3027 C 33.9355 -43.7012 38.7207 -49.0723 46.4844 -49.707 L 46.4844 -51.9531 C 46.4844 -53.0273 47.2168 -53.7598 48.1934 -53.7598 C 49.1699 -53.7598 49.8535 -53.0273 49.8535 -51.9531 L 49.8535 -49.707 C 55.7129 -49.2676 58.9844 -46.3379 60.2051 -42.9688 C 60.4004 -42.4316 60.5469 -41.7969 60.5469 -41.2109 C 60.5469 -38.8184 58.6426 -37.3047 56.25 -37.3047 C 54.2969 -37.3047 53.125 -38.2812 52.1973 -39.7461 C 51.6602 -40.7715 50.8789 -41.4551 49.8535 -41.8457 L 49.8535 -28.6621 C 50.9277 -29.0039 51.709 -29.6875 52.2949 -30.8105 C 53.3691 -32.5195 54.834 -33.252 56.2988 -33.252 C 58.7402 -33.252 60.6445 -31.7383 60.6445 -29.2969 C 60.6445 -28.8574 60.5957 -28.418 60.5469 -28.125 C 59.7656 -25.0977 56.4941 -21.3867 49.8535 -20.8008 L 49.8535 -18.5059 C 49.8535 -17.3828 49.1699 -16.6992 48.1934 -16.6992 C 47.2168 -16.6992 46.4844 -17.3828 46.4844 -18.5059 L 46.4844 -20.8008 C 38.7207 -21.4844 33.9355 -26.8066 33.9355 -35.3027 Z M 43.5059 -35.3027 C 43.5059 -31.5918 44.5312 -29.4434 46.4844 -28.7109 L 46.4844 -41.8457 C 44.5312 -41.1133 43.5059 -38.916 43.5059 -35.3027 Z"/>
  </g>
  <g id="Bold-S" transform="matrix(1 0 0 1 2292.44 696)">
   <path d="M 47.5586 5.46875 C 69.873 5.46875 88.2324 -12.8906 88.2324 -35.2539 C 88.2324 -57.5684 69.873 -75.9277 47.5098 -75.9277 C 25.1953 -75.9277 6.83594 -57.5684 6.83594 -35.2539 C 6.83594 -12.8906 25.1953 5.46875 47.5586 5.46875 Z M 33.4473 -35.3027 C 33.4473 -43.6523 38.1348 -49.0723 45.6543 -49.8535 L 45.6543 -52.3438 C 45.6543 -53.4668 46.4355 -54.248 47.5098 -54.248 C 48.584 -54.248 49.3164 -53.4668 49.3164 -52.3438 L 49.3164 -49.8535 C 54.9316 -49.3164 58.3008 -46.4355 59.5215 -43.0176 C 59.668 -42.5293 59.8145 -41.9434 59.8145 -41.3574 C 59.8145 -39.2578 58.2031 -37.8906 56.1035 -37.8906 C 54.3945 -37.8906 53.3203 -38.7207 52.5391 -40.0879 C 51.9043 -41.5039 50.8301 -42.4805 49.3164 -42.9199 L 49.3164 -27.5879 C 50.8789 -28.0273 51.9531 -29.0039 52.6367 -30.4199 C 53.4668 -31.9336 54.7363 -32.666 56.1035 -32.666 C 58.252 -32.666 59.9121 -31.2988 59.9121 -29.1504 C 59.9121 -28.6621 59.8145 -28.2227 59.7168 -27.8809 C 58.8379 -24.707 55.4199 -21.2402 49.3164 -20.6543 L 49.3164 -18.1641 C 49.3164 -16.9922 48.584 -16.2109 47.5098 -16.2109 C 46.4355 -16.2109 45.6543 -16.9922 45.6543 -18.1641 L 45.6543 -20.6543 C 38.1348 -21.4844 33.4473 -26.8555 33.4473 -35.3027 Z M 41.6992 -35.2539 C 41.6992 -31.0547 43.1152 -28.4668 45.6543 -27.6855 L 45.6543 -42.8711 C 43.1152 -42.041 41.6992 -39.4531 41.6992 -35.2539 Z"/>
  </g>
  <g id="Semibold-S" transform="matrix(1 0 0 1 1996.2 696)">
   <path d="M 47.0703 4.98047 C 69.0918 4.98047 87.3047 -13.1836 87.3047 -35.2539 C 87.3047 -57.2754 69.0918 -75.4883 47.0215 -75.4883 C 25 -75.4883 6.83594 -57.2754 6.83594 -35.2539 C 6.83594 -13.1836 25.0488 4.98047 47.0703 4.98047 Z M 33.1543 -35.2539 C 33.1543 -43.6035 37.7441 -49.0723 45.0684 -49.9023 L 45.0684 -52.5879 C 45.0684 -53.7598 45.8984 -54.5898 47.0215 -54.5898 C 48.1445 -54.5898 48.9746 -53.7598 48.9746 -52.5879 L 48.9746 -49.9512 C 54.3945 -49.3652 57.8125 -46.4355 59.0332 -43.0176 C 59.1797 -42.5781 59.3262 -42.041 59.3262 -41.4551 C 59.3262 -39.5508 57.9102 -38.2812 56.0059 -38.2812 C 54.4922 -38.2812 53.4668 -39.0625 52.7832 -40.3809 C 52.0508 -41.9922 50.7812 -43.1641 48.9746 -43.6523 L 48.9746 -26.8555 C 50.8301 -27.3438 52.0996 -28.5156 52.832 -30.1758 C 53.5645 -31.4941 54.6875 -32.2266 56.0059 -32.2266 C 57.9102 -32.2266 59.375 -30.957 59.375 -29.0527 C 59.375 -28.5645 59.2773 -28.0762 59.1797 -27.6855 C 58.2031 -24.4141 54.7363 -21.1426 48.9746 -20.5566 L 48.9746 -17.9199 C 48.9746 -16.6992 48.1445 -15.918 47.0215 -15.918 C 45.8984 -15.918 45.0684 -16.6992 45.0684 -17.9199 L 45.0684 -20.5566 C 37.7441 -21.4355 33.1543 -26.8555 33.1543 -35.2539 Z M 40.4297 -35.2539 C 40.4297 -30.6641 42.1875 -27.832 45.0684 -26.9531 L 45.0684 -43.5547 C 42.1875 -42.6758 40.4297 -39.7949 40.4297 -35.2539 Z"/>
  </g>
  <g id="Medium-S" transform="matrix(1 0 0 1 1699.83 696)">
   <path d="M 46.7285 4.63867 C 68.5547 4.63867 86.6211 -13.4277 86.6211 -35.2539 C 86.6211 -57.0801 68.5059 -75.1465 46.6797 -75.1465 C 24.8535 -75.1465 6.83594 -57.0801 6.83594 -35.2539 C 6.83594 -13.4277 24.9023 4.63867 46.7285 4.63867 Z M 32.9102 -35.2539 C 32.9102 -43.6035 37.4512 -49.0723 44.5801 -50 L 44.5801 -52.7832 C 44.5801 -54.0039 45.5078 -54.834 46.6797 -54.834 C 47.8516 -54.834 48.6816 -54.0039 48.6816 -52.7832 L 48.6816 -50 C 53.9551 -49.4141 57.4707 -46.4844 58.6426 -43.0176 C 58.7891 -42.627 58.9355 -42.0898 58.9355 -41.5527 C 58.9355 -39.7949 57.666 -38.5742 55.9082 -38.5742 C 54.541 -38.5742 53.5645 -39.3066 52.9297 -40.5762 C 52.1484 -42.3828 50.7812 -43.6523 48.6816 -44.1895 L 48.6816 -26.3184 C 50.8301 -26.8066 52.1973 -28.125 53.0273 -29.9805 C 53.6133 -31.2012 54.6387 -31.9336 55.9082 -31.9336 C 57.666 -31.9336 58.9844 -30.7617 58.9844 -29.0039 C 58.9844 -28.4668 58.8379 -27.9297 58.7891 -27.5879 C 57.7148 -24.2188 54.1504 -21.0938 48.6816 -20.459 L 48.6816 -17.7246 C 48.6816 -16.5039 47.8516 -15.625 46.6797 -15.625 C 45.5078 -15.625 44.5801 -16.5039 44.5801 -17.7246 L 44.5801 -20.5078 C 37.4512 -21.4355 32.9102 -26.8555 32.9102 -35.2539 Z M 39.502 -35.2539 C 39.502 -30.3711 41.4062 -27.3438 44.5801 -26.416 L 44.5801 -44.0918 C 41.4062 -43.1641 39.502 -40.0879 39.502 -35.2539 Z"/>
  </g>
  <g id="Regular-S" transform="matrix(1 0 0 1 1403.58 696)">
   <path d="M 46.2402 4.15039 C 67.7734 4.15039 85.6934 -13.7207 85.6934 -35.2539 C 85.6934 -56.7871 67.7246 -74.6582 46.1914 -74.6582 C 24.707 -74.6582 6.83594 -56.7871 6.83594 -35.2539 C 6.83594 -13.7207 24.7559 4.15039 46.2402 4.15039 Z M 32.5684 -35.2539 C 32.5684 -43.5547 37.0117 -49.0723 43.9941 -50.0488 L 43.9941 -53.0273 C 43.9941 -54.2969 44.9707 -55.1758 46.1914 -55.1758 C 47.4121 -55.1758 48.3398 -54.2969 48.3398 -53.0273 L 48.3398 -50.0977 C 53.418 -49.4629 57.0312 -46.5332 58.2031 -43.0664 C 58.3008 -42.6758 58.4473 -42.1875 58.4473 -41.6016 C 58.4473 -40.0879 57.373 -38.9648 55.8105 -38.9648 C 54.5898 -38.9648 53.6621 -39.6484 53.1738 -40.8203 C 52.2949 -42.8711 50.7324 -44.3359 48.3398 -44.9219 L 48.3398 -25.5859 C 50.7812 -26.1719 52.3438 -27.6367 53.2227 -29.6875 C 53.7109 -30.7617 54.5898 -31.4941 55.7617 -31.4941 C 57.3242 -31.4941 58.4473 -30.4199 58.4473 -28.8574 C 58.4473 -28.3203 58.3496 -27.7832 58.252 -27.3926 C 57.0801 -23.9258 53.4668 -20.9961 48.3398 -20.3613 L 48.3398 -17.4805 C 48.3398 -16.2109 47.4121 -15.332 46.1914 -15.332 C 44.9707 -15.332 43.9941 -16.2109 43.9941 -17.4805 L 43.9941 -20.4102 C 37.0117 -21.3867 32.5684 -26.8555 32.5684 -35.2539 Z M 38.2324 -35.2539 C 38.2324 -29.9805 40.4785 -26.6602 43.9941 -25.7324 L 43.9941 -44.7754 C 40.4785 -43.7988 38.2324 -40.4297 38.2324 -35.2539 Z"/>
  </g>
  <g id="Light-S" transform="matrix(1 0 0 1 1107.6 696)">
   <path d="M 45.5078 3.41797 C 66.6992 3.41797 84.2285 -14.0625 84.2285 -35.2539 C 84.2285 -56.4453 66.6504 -73.9258 45.5078 -73.9258 C 24.3164 -73.9258 6.83594 -56.4453 6.83594 -35.2539 C 6.83594 -14.0625 24.3652 3.41797 45.5078 3.41797 Z M 32.7148 -35.2539 C 32.7148 -43.2129 37.0117 -48.4863 43.7012 -49.3164 L 43.7012 -52.2949 C 43.7012 -53.3691 44.4336 -54.1016 45.459 -54.1016 C 46.4844 -54.1016 47.2656 -53.3691 47.2656 -52.2949 L 47.2656 -49.3652 C 52.0996 -48.7793 55.6152 -45.9961 56.7871 -42.4316 C 56.8848 -42.041 56.9824 -41.6504 56.9824 -41.2109 C 56.9824 -39.9414 56.1523 -39.1113 54.9316 -39.1113 C 53.9062 -39.1113 53.2227 -39.5996 52.7832 -40.7227 C 51.9043 -43.0176 50 -44.7266 47.2656 -45.2148 L 47.2656 -25.293 C 50 -25.7812 51.9043 -27.4414 52.832 -29.7852 C 53.2227 -30.7617 53.9062 -31.3477 54.8828 -31.3477 C 56.1523 -31.3477 57.0312 -30.5176 57.0312 -29.2969 C 57.0312 -28.8086 56.9336 -28.3691 56.8359 -27.9785 C 55.6641 -24.4629 52.1484 -21.6797 47.2656 -21.0938 L 47.2656 -18.1641 C 47.2656 -17.1387 46.4844 -16.3574 45.459 -16.3574 C 44.4336 -16.3574 43.7012 -17.1387 43.7012 -18.1641 L 43.7012 -21.1426 C 37.0117 -21.9727 32.7148 -27.2461 32.7148 -35.2539 Z M 37.207 -35.2539 C 37.207 -29.7363 39.6973 -26.1719 43.7012 -25.3906 L 43.7012 -45.1172 C 39.6973 -44.2383 37.207 -40.6738 37.207 -35.2539 Z"/>
  </g>
  <g id="Thin-S" transform="matrix(1 0 0 1 811.867 696)">
   <path d="M 44.5801 2.49023 C 65.2832 2.49023 82.2754 -14.5508 82.2754 -35.2539 C 82.2754 -55.957 65.2344 -72.998 44.5312 -72.998 C 23.8281 -72.998 6.83594 -55.957 6.83594 -35.2539 C 6.83594 -14.5508 23.877 2.49023 44.5801 2.49023 Z M 32.9102 -35.2539 C 32.9102 -42.7734 36.9141 -47.7051 43.2129 -48.3398 L 43.2129 -51.416 C 43.2129 -52.1484 43.75 -52.6855 44.5312 -52.6855 C 45.2637 -52.6855 45.8008 -52.1484 45.8008 -51.416 L 45.8008 -48.3398 C 50.3418 -47.9492 53.8086 -45.2637 54.9316 -41.6504 C 55.0293 -41.2598 55.127 -40.918 55.127 -40.625 C 55.127 -39.7949 54.541 -39.2578 53.7598 -39.2578 C 53.0273 -39.2578 52.6367 -39.5996 52.2461 -40.625 C 51.3672 -43.2617 48.9746 -45.2148 45.8008 -45.5566 L 45.8008 -24.9023 C 49.0234 -25.293 51.3672 -27.1973 52.2949 -29.9316 C 52.6367 -30.8105 52.9785 -31.2012 53.7598 -31.2012 C 54.541 -31.2012 55.127 -30.6152 55.127 -29.7852 C 55.127 -29.4922 55.0781 -29.1992 54.9805 -28.8086 C 53.8086 -25.1465 50.3906 -22.5098 45.8008 -22.1191 L 45.8008 -19.043 C 45.8008 -18.3105 45.2637 -17.7246 44.5312 -17.7246 C 43.75 -17.7246 43.2129 -18.3105 43.2129 -19.043 L 43.2129 -22.1191 C 36.9141 -22.7539 32.9102 -27.7344 32.9102 -35.2539 Z M 35.8398 -35.2051 C 35.8398 -29.3945 38.623 -25.5371 43.2129 -24.9512 L 43.2129 -45.5078 C 38.6719 -44.873 35.8398 -41.0156 35.8398 -35.2051 Z"/>
  </g>
  <g id="Ultralight-S" transform="matrix(1 0 0 1 515.644 696)">
   <path d="M 44.043 1.95312 C 64.502 1.95312 81.2988 -14.7949 81.2988 -35.2539 C 81.2988 -55.7129 64.502 -72.4609 44.043 -72.4609 C 23.584 -72.4609 6.83594 -55.7129 6.83594 -35.2539 C 6.83594 -14.7949 23.584 1.95312 44.043 1.95312 Z M 33.0078 -35.2539 C 33.0078 -42.5293 36.9141 -47.3145 43.0176 -47.8027 L 43.0176 -50.9277 C 43.0176 -51.5137 43.4082 -51.9531 44.043 -51.9531 C 44.6777 -51.9531 45.0684 -51.5137 45.0684 -50.9277 L 45.0684 -47.8027 C 49.4629 -47.5098 52.8809 -44.873 54.0039 -41.2109 C 54.1016 -40.8203 54.1504 -40.5762 54.1504 -40.332 C 54.1504 -39.6973 53.7598 -39.3555 53.1738 -39.3555 C 52.5879 -39.3555 52.3438 -39.5508 52.002 -40.5273 C 51.0742 -43.3594 48.4863 -45.459 45.0684 -45.752 L 45.0684 -24.707 C 48.4863 -25 51.0742 -27.0508 52.0508 -30.0293 C 52.2949 -30.8105 52.5391 -31.0547 53.125 -31.0547 C 53.7109 -31.0547 54.1504 -30.7129 54.1504 -30.0781 C 54.1504 -29.834 54.1016 -29.5898 54.0039 -29.1992 C 52.8809 -25.4883 49.5117 -22.9492 45.0684 -22.6562 L 45.0684 -19.4824 C 45.0684 -18.8965 44.6777 -18.457 44.043 -18.457 C 43.4082 -18.457 43.0176 -18.8965 43.0176 -19.4824 L 43.0176 -22.6562 C 36.9141 -23.1445 33.0078 -27.9785 33.0078 -35.2539 Z M 35.1562 -35.2051 C 35.1562 -29.248 38.0859 -25.2441 43.0176 -24.707 L 43.0176 -45.752 C 38.1348 -45.2148 35.1562 -41.1621 35.1562 -35.2051 Z"/>
  </g>
 </g>
</svg>
