<?xml version="1.0" encoding="UTF-8"?>
<!--Generator: Apple Native CoreSVG 148-->
<!DOCTYPE svg
PUBLIC "-//W3C//DTD SVG 1.1//EN"
       "http://www.w3.org/Graphics/SVG/1.1/DTD/svg11.dtd">
<svg version="1.1" xmlns="http://www.w3.org/2000/svg" xmlns:xlink="http://www.w3.org/1999/xlink" width="3300" height="2200">
 <!--glyph: "uni100193.medium", point size: 100.000000, font version: "Version 16.0d11e1", template writer version: "8"-->
 <g id="Notes">
  <rect height="2200" id="artboard" style="fill:white;opacity:1" width="3300" x="0" y="0"/>
  <line id="" style="fill:none;stroke:black;opacity:1;stroke-width:0.5;" x1="263" x2="3036" y1="292" y2="292"/>
  <text style="stroke:none;fill:black;font-family:-apple-system,&quot;SF Pro Display&quot;,&quot;SF Pro Text&quot;,Helvetica,sans-serif;font-weight:bold;" transform="matrix(1 0 0 1 263 322)">Weight/Scale Variations</text>
  <text style="stroke:none;fill:black;font-family:-apple-system,&quot;SF Pro Display&quot;,&quot;SF Pro Text&quot;,Helvetica,sans-serif;text-anchor:middle;" transform="matrix(1 0 0 1 559.711 322)">Ultralight</text>
  <text style="stroke:none;fill:black;font-family:-apple-system,&quot;SF Pro Display&quot;,&quot;SF Pro Text&quot;,Helvetica,sans-serif;text-anchor:middle;" transform="matrix(1 0 0 1 856.422 322)">Thin</text>
  <text style="stroke:none;fill:black;font-family:-apple-system,&quot;SF Pro Display&quot;,&quot;SF Pro Text&quot;,Helvetica,sans-serif;text-anchor:middle;" transform="matrix(1 0 0 1 1153.13 322)">Light</text>
  <text style="stroke:none;fill:black;font-family:-apple-system,&quot;SF Pro Display&quot;,&quot;SF Pro Text&quot;,Helvetica,sans-serif;text-anchor:middle;" transform="matrix(1 0 0 1 1449.84 322)">Regular</text>
  <text style="stroke:none;fill:black;font-family:-apple-system,&quot;SF Pro Display&quot;,&quot;SF Pro Text&quot;,Helvetica,sans-serif;text-anchor:middle;" transform="matrix(1 0 0 1 1746.56 322)">Medium</text>
  <text style="stroke:none;fill:black;font-family:-apple-system,&quot;SF Pro Display&quot;,&quot;SF Pro Text&quot;,Helvetica,sans-serif;text-anchor:middle;" transform="matrix(1 0 0 1 2043.27 322)">Semibold</text>
  <text style="stroke:none;fill:black;font-family:-apple-system,&quot;SF Pro Display&quot;,&quot;SF Pro Text&quot;,Helvetica,sans-serif;text-anchor:middle;" transform="matrix(1 0 0 1 2339.98 322)">Bold</text>
  <text style="stroke:none;fill:black;font-family:-apple-system,&quot;SF Pro Display&quot;,&quot;SF Pro Text&quot;,Helvetica,sans-serif;text-anchor:middle;" transform="matrix(1 0 0 1 2636.69 322)">Heavy</text>
  <text style="stroke:none;fill:black;font-family:-apple-system,&quot;SF Pro Display&quot;,&quot;SF Pro Text&quot;,Helvetica,sans-serif;text-anchor:middle;" transform="matrix(1 0 0 1 2933.4 322)">Black</text>
  <line id="" style="fill:none;stroke:black;opacity:1;stroke-width:0.5;" x1="263" x2="3036" y1="1903" y2="1903"/>
  <g id="" transform="matrix(1 0 0 1 263 1933)">
   <path d="M 9.24805 0.830078 C 13.5547 0.830078 17.1387 -2.74414 17.1387 -7.05078 C 17.1387 -11.3574 13.5449 -14.9316 9.23828 -14.9316 C 4.94141 -14.9316 1.36719 -11.3574 1.36719 -7.05078 C 1.36719 -2.74414 4.95117 0.830078 9.24805 0.830078 Z M 9.24805 -0.654297 C 5.70312 -0.654297 2.87109 -3.49609 2.87109 -7.05078 C 2.87109 -10.6055 5.69336 -13.4473 9.23828 -13.4473 C 12.793 -13.4473 15.6348 -10.6055 15.6445 -7.05078 C 15.6543 -3.49609 12.8027 -0.654297 9.24805 -0.654297 Z M 9.22852 -3.62305 C 9.69727 -3.62305 9.9707 -3.93555 9.9707 -4.45312 L 9.9707 -6.31836 L 12.002 -6.31836 C 12.5 -6.31836 12.832 -6.57227 12.832 -7.04102 C 12.832 -7.51953 12.5195 -7.7832 12.002 -7.7832 L 9.9707 -7.7832 L 9.9707 -9.81445 C 9.9707 -10.332 9.69727 -10.6543 9.22852 -10.6543 C 8.75977 -10.6543 8.50586 -10.3125 8.50586 -9.81445 L 8.50586 -7.7832 L 6.49414 -7.7832 C 5.97656 -7.7832 5.64453 -7.51953 5.64453 -7.04102 C 5.64453 -6.57227 5.99609 -6.31836 6.49414 -6.31836 L 8.50586 -6.31836 L 8.50586 -4.45312 C 8.50586 -3.95508 8.75977 -3.62305 9.22852 -3.62305 Z"/>
  </g>
  <g id="" transform="matrix(1 0 0 1 281.506 1933)">
   <path d="M 11.709 2.91016 C 17.1582 2.91016 21.6699 -1.61133 21.6699 -7.05078 C 21.6699 -12.5 17.1484 -17.0117 11.6992 -17.0117 C 6.25977 -17.0117 1.74805 -12.5 1.74805 -7.05078 C 1.74805 -1.61133 6.26953 2.91016 11.709 2.91016 Z M 11.709 1.25 C 7.09961 1.25 3.41797 -2.44141 3.41797 -7.05078 C 3.41797 -11.6602 7.08984 -15.3516 11.6992 -15.3516 C 16.3086 -15.3516 20 -11.6602 20.0098 -7.05078 C 20.0195 -2.44141 16.3184 1.25 11.709 1.25 Z M 11.6797 -2.66602 C 12.207 -2.66602 12.5098 -3.01758 12.5098 -3.59375 L 12.5098 -6.23047 L 15.3223 -6.23047 C 15.8691 -6.23047 16.25 -6.51367 16.25 -7.03125 C 16.25 -7.55859 15.8887 -7.86133 15.3223 -7.86133 L 12.5098 -7.86133 L 12.5098 -10.6836 C 12.5098 -11.25 12.207 -11.6113 11.6797 -11.6113 C 11.1621 -11.6113 10.8789 -11.2305 10.8789 -10.6836 L 10.8789 -7.86133 L 8.07617 -7.86133 C 7.50977 -7.86133 7.13867 -7.55859 7.13867 -7.03125 C 7.13867 -6.51367 7.5293 -6.23047 8.07617 -6.23047 L 10.8789 -6.23047 L 10.8789 -3.59375 C 10.8789 -3.03711 11.1621 -2.66602 11.6797 -2.66602 Z"/>
  </g>
  <g id="" transform="matrix(1 0 0 1 304.924 1933)">
   <path d="M 14.9707 5.66406 C 21.9336 5.66406 27.6953 -0.0976562 27.6953 -7.05078 C 27.6953 -14.0137 21.9238 -19.7754 14.9609 -19.7754 C 8.00781 -19.7754 2.25586 -14.0137 2.25586 -7.05078 C 2.25586 -0.0976562 8.01758 5.66406 14.9707 5.66406 Z M 14.9707 3.84766 C 8.93555 3.84766 4.08203 -1.01562 4.08203 -7.05078 C 4.08203 -13.0957 8.92578 -17.9492 14.9609 -17.9492 C 21.0059 -17.9492 25.8594 -13.0957 25.8691 -7.05078 C 25.8789 -1.01562 21.0156 3.84766 14.9707 3.84766 Z M 14.9414 -1.38672 C 15.5176 -1.38672 15.8594 -1.77734 15.8594 -2.38281 L 15.8594 -6.13281 L 19.7754 -6.13281 C 20.3711 -6.13281 20.7812 -6.46484 20.7812 -7.02148 C 20.7812 -7.59766 20.3906 -7.93945 19.7754 -7.93945 L 15.8594 -7.93945 L 15.8594 -11.8652 C 15.8594 -12.4805 15.5176 -12.8711 14.9414 -12.8711 C 14.375 -12.8711 14.0527 -12.4609 14.0527 -11.8652 L 14.0527 -7.93945 L 10.1465 -7.93945 C 9.53125 -7.93945 9.13086 -7.59766 9.13086 -7.02148 C 9.13086 -6.46484 9.55078 -6.13281 10.1465 -6.13281 L 14.0527 -6.13281 L 14.0527 -2.38281 C 14.0527 -1.79688 14.375 -1.38672 14.9414 -1.38672 Z"/>
  </g>
  <text style="stroke:none;fill:black;font-family:-apple-system,&quot;SF Pro Display&quot;,&quot;SF Pro Text&quot;,Helvetica,sans-serif;font-weight:bold;" transform="matrix(1 0 0 1 263 1953)">Design Variations</text>
  <text style="stroke:none;fill:black;font-family:-apple-system,&quot;SF Pro Display&quot;,&quot;SF Pro Text&quot;,Helvetica,sans-serif;" transform="matrix(1 0 0 1 263 1971)">Symbols are supported in up to nine weights and three scales.</text>
  <text style="stroke:none;fill:black;font-family:-apple-system,&quot;SF Pro Display&quot;,&quot;SF Pro Text&quot;,Helvetica,sans-serif;" transform="matrix(1 0 0 1 263 1989)">For optimal layout with text and other symbols, vertically align</text>
  <text style="stroke:none;fill:black;font-family:-apple-system,&quot;SF Pro Display&quot;,&quot;SF Pro Text&quot;,Helvetica,sans-serif;" transform="matrix(1 0 0 1 263 2007)">symbols with the adjacent text.</text>
  <line id="" style="fill:none;stroke:#00AEEF;stroke-width:0.5;opacity:1.0;" x1="776" x2="776" y1="1919" y2="1933"/>
  <g id="" transform="matrix(1 0 0 1 776 1933)">
   <path d="M 3.31055 0.126953 C 3.82812 0.126953 4.08203 -0.0683594 4.26758 -0.605469 L 5.52734 -4.0625 L 11.2891 -4.0625 L 12.5488 -0.605469 C 12.7344 -0.0683594 12.9883 0.126953 13.4961 0.126953 C 14.0137 0.126953 14.3457 -0.185547 14.3457 -0.673828 C 14.3457 -0.839844 14.3164 -0.986328 14.2383 -1.20117 L 9.6582 -13.3887 C 9.43359 -13.9941 9.0332 -14.2871 8.4082 -14.2871 C 7.80273 -14.2871 7.39258 -13.9941 7.17773 -13.3984 L 2.59766 -1.19141 C 2.51953 -0.976562 2.49023 -0.830078 2.49023 -0.664062 C 2.49023 -0.175781 2.80273 0.126953 3.31055 0.126953 Z M 6.00586 -5.53711 L 8.37891 -12.1094 L 8.42773 -12.1094 L 10.8008 -5.53711 Z"/>
  </g>
  <line id="" style="fill:none;stroke:#00AEEF;stroke-width:0.5;opacity:1.0;" x1="792.836" x2="792.836" y1="1919" y2="1933"/>
  <text style="stroke:none;fill:black;font-family:-apple-system,&quot;SF Pro Display&quot;,&quot;SF Pro Text&quot;,Helvetica,sans-serif;font-weight:bold;" transform="matrix(1 0 0 1 776 1953)">Margins</text>
  <text style="stroke:none;fill:black;font-family:-apple-system,&quot;SF Pro Display&quot;,&quot;SF Pro Text&quot;,Helvetica,sans-serif;" transform="matrix(1 0 0 1 776 1971)">Leading and trailing margins on the left and right side of each symbol</text>
  <text style="stroke:none;fill:black;font-family:-apple-system,&quot;SF Pro Display&quot;,&quot;SF Pro Text&quot;,Helvetica,sans-serif;" transform="matrix(1 0 0 1 776 1989)">can be adjusted by modifying the x-location of the margin guidelines.</text>
  <text style="stroke:none;fill:black;font-family:-apple-system,&quot;SF Pro Display&quot;,&quot;SF Pro Text&quot;,Helvetica,sans-serif;" transform="matrix(1 0 0 1 776 2007)">Modifications are automatically applied proportionally to all</text>
  <text style="stroke:none;fill:black;font-family:-apple-system,&quot;SF Pro Display&quot;,&quot;SF Pro Text&quot;,Helvetica,sans-serif;" transform="matrix(1 0 0 1 776 2025)">scales and weights.</text>
  <g id="" transform="matrix(1 0 0 1 1289 1933)">
   <path d="M 2.8418 1.86523 L 4.54102 3.57422 C 5.40039 4.44336 6.38672 4.38477 7.31445 3.35938 L 17.4902 -7.85156 C 17.7539 -7.76367 18.0273 -7.7832 18.3398 -7.8418 L 19.4043 -8.03711 L 20.0684 -7.36328 L 20.0293 -6.80664 C 19.9902 -6.30859 20.1172 -5.92773 20.6055 -5.44922 L 21.3672 -4.70703 C 21.8457 -4.22852 22.4609 -4.19922 22.9297 -4.66797 L 25.8398 -7.58789 C 26.3086 -8.05664 26.2891 -8.65234 25.8105 -9.13086 L 25.0391 -9.89258 C 24.5605 -10.3711 24.1895 -10.5273 23.7109 -10.4883 L 23.1348 -10.4395 L 22.4902 -11.0742 L 22.7344 -12.1973 C 22.8613 -12.7637 22.7051 -13.2031 22.1191 -13.7891 L 19.9219 -15.9766 C 16.582 -19.2969 12.1484 -19.2188 9.25781 -16.3281 C 8.83789 -15.918 8.80859 -15.3418 9.04297 -14.9512 C 9.27734 -14.5898 9.73633 -14.3555 10.3809 -14.5215 C 11.8457 -14.8633 13.3691 -14.9219 14.7949 -13.9844 L 14.209 -12.5293 C 14.0137 -12.0508 13.9844 -11.6504 14.1113 -11.2891 L 3.04688 -0.898438 C 2.06055 0.0195312 1.98242 0.996094 2.8418 1.86523 Z M 10.752 -15.957 C 13.1836 -17.7344 16.4746 -17.4316 18.7012 -15.2051 L 21.1328 -12.793 C 21.3672 -12.5586 21.4062 -12.373 21.3379 -12.0312 L 21.0156 -10.5469 L 22.5195 -9.0625 L 23.5059 -9.12109 C 23.7598 -9.13086 23.8379 -9.11133 24.0332 -8.91602 L 24.6094 -8.33984 L 22.168 -5.89844 L 21.5918 -6.47461 C 21.3965 -6.66992 21.3672 -6.74805 21.377 -7.01172 L 21.4453 -7.98828 L 19.9512 -9.47266 L 18.4277 -9.21875 C 18.1055 -9.15039 17.959 -9.17969 17.7148 -9.41406 L 15.7129 -11.416 C 15.459 -11.6504 15.4297 -11.8164 15.5859 -12.1875 L 16.4648 -14.2773 C 14.9023 -15.7324 12.8711 -16.3574 10.8398 -15.7617 C 10.6836 -15.7227 10.625 -15.8496 10.752 -15.957 Z M 5.27344 2.30469 L 4.10156 1.14258 C 3.63281 0.683594 3.74023 0.341797 4.14062 -0.0195312 L 14.9512 -10.1953 L 16.416 -8.71094 L 6.42578 2.27539 C 6.07422 2.67578 5.74219 2.77344 5.27344 2.30469 Z"/>
  </g>
  <text style="stroke:none;fill:black;font-family:-apple-system,&quot;SF Pro Display&quot;,&quot;SF Pro Text&quot;,Helvetica,sans-serif;font-weight:bold;" transform="matrix(1 0 0 1 1289 1953)">Exporting</text>
  <text style="stroke:none;fill:black;font-family:-apple-system,&quot;SF Pro Display&quot;,&quot;SF Pro Text&quot;,Helvetica,sans-serif;" transform="matrix(1 0 0 1 1289 1971)">Symbols should be outlined when exporting to ensure the</text>
  <text style="stroke:none;fill:black;font-family:-apple-system,&quot;SF Pro Display&quot;,&quot;SF Pro Text&quot;,Helvetica,sans-serif;" transform="matrix(1 0 0 1 1289 1989)">design is preserved when submitting to Xcode.</text>
  <text id="template-version" style="stroke:none;fill:black;font-family:-apple-system,&quot;SF Pro Display&quot;,&quot;SF Pro Text&quot;,Helvetica,sans-serif;text-anchor:end;" transform="matrix(1 0 0 1 3036 1933)">Template v.2.0</text>
  <text style="stroke:none;fill:black;font-family:-apple-system,&quot;SF Pro Display&quot;,&quot;SF Pro Text&quot;,Helvetica,sans-serif;text-anchor:end;" transform="matrix(1 0 0 1 3036 1951)">Requires Xcode 12 or greater</text>
  <text style="stroke:none;fill:black;font-family:-apple-system,&quot;SF Pro Display&quot;,&quot;SF Pro Text&quot;,Helvetica,sans-serif;text-anchor:end;" transform="matrix(1 0 0 1 3036 1969)">Generated from chevron.compact.right</text>
  <text style="stroke:none;fill:black;font-family:-apple-system,&quot;SF Pro Display&quot;,&quot;SF Pro Text&quot;,Helvetica,sans-serif;text-anchor:end;" transform="matrix(1 0 0 1 3036 1987)">Typeset at 100 points</text>
  <text style="stroke:none;fill:black;font-family:-apple-system,&quot;SF Pro Display&quot;,&quot;SF Pro Text&quot;,Helvetica,sans-serif;" transform="matrix(1 0 0 1 263 726)">Small</text>
  <text style="stroke:none;fill:black;font-family:-apple-system,&quot;SF Pro Display&quot;,&quot;SF Pro Text&quot;,Helvetica,sans-serif;" transform="matrix(1 0 0 1 263 1156)">Medium</text>
  <text style="stroke:none;fill:black;font-family:-apple-system,&quot;SF Pro Display&quot;,&quot;SF Pro Text&quot;,Helvetica,sans-serif;" transform="matrix(1 0 0 1 263 1586)">Large</text>
 </g>
 <g id="Guides">
  <g id="H-reference" style="fill:#27AAE1;stroke:none;" transform="matrix(1 0 0 1 339 696)">
   <path d="M 0.976562 0 L 3.66211 0 L 12.9883 -24.4629 L 45.7031 -24.4629 L 55.0781 0 L 57.7148 0 L 30.6152 -70.459 L 28.125 -70.459 Z M 29.2969 -67.1387 L 29.3945 -67.1387 L 44.873 -26.709 L 13.8672 -26.709 Z"/>
  </g>
  <line id="Baseline-S" style="fill:none;stroke:#27AAE1;opacity:1;stroke-width:0.5;" x1="263" x2="3036" y1="696" y2="696"/>
  <line id="Capline-S" style="fill:none;stroke:#27AAE1;opacity:1;stroke-width:0.5;" x1="263" x2="3036" y1="625.541" y2="625.541"/>
  <g id="H-reference" style="fill:#27AAE1;stroke:none;" transform="matrix(1 0 0 1 339 1126)">
   <path d="M 0.976562 0 L 3.66211 0 L 12.9883 -24.4629 L 45.7031 -24.4629 L 55.0781 0 L 57.7148 0 L 30.6152 -70.459 L 28.125 -70.459 Z M 29.2969 -67.1387 L 29.3945 -67.1387 L 44.873 -26.709 L 13.8672 -26.709 Z"/>
  </g>
  <line id="Baseline-M" style="fill:none;stroke:#27AAE1;opacity:1;stroke-width:0.5;" x1="263" x2="3036" y1="1126" y2="1126"/>
  <line id="Capline-M" style="fill:none;stroke:#27AAE1;opacity:1;stroke-width:0.5;" x1="263" x2="3036" y1="1055.54" y2="1055.54"/>
  <g id="H-reference" style="fill:#27AAE1;stroke:none;" transform="matrix(1 0 0 1 339 1556)">
   <path d="M 0.976562 0 L 3.66211 0 L 12.9883 -24.4629 L 45.7031 -24.4629 L 55.0781 0 L 57.7148 0 L 30.6152 -70.459 L 28.125 -70.459 Z M 29.2969 -67.1387 L 29.3945 -67.1387 L 44.873 -26.709 L 13.8672 -26.709 Z"/>
  </g>
  <line id="Baseline-L" style="fill:none;stroke:#27AAE1;opacity:1;stroke-width:0.5;" x1="263" x2="3036" y1="1556" y2="1556"/>
  <line id="Capline-L" style="fill:none;stroke:#27AAE1;opacity:1;stroke-width:0.5;" x1="263" x2="3036" y1="1485.54" y2="1485.54"/>
  <line id="left-margin" style="fill:none;stroke:#00AEEF;stroke-width:0.5;opacity:1.0;" x1="1425.26" x2="1425.26" y1="1030.79" y2="1150.12"/>
  <line id="right-margin" style="fill:none;stroke:#00AEEF;stroke-width:0.5;opacity:1.0;" x1="1474.43" x2="1474.43" y1="1030.79" y2="1150.12"/>
 </g>
 <g id="Symbols">
  <g id="Black-L" transform="matrix(1 0 0 1 2894.7 1556)">
   <path d="M 39.1602 17.8711 L 57.7148 -22.8516 C 59.9609 -27.7832 61.3281 -30.7129 61.3281 -35.2539 C 61.3281 -39.8438 59.9609 -42.8223 57.7148 -47.7051 L 39.1602 -88.4277 C 37.2559 -92.4316 33.6914 -95.4102 28.9551 -95.4102 C 21.0938 -95.3613 16.0645 -89.6484 16.0645 -83.252 C 16.0645 -79.6387 18.2129 -75 20.1172 -70.9961 L 36.2793 -35.2539 L 20.1172 0.439453 C 18.2129 4.44336 16.0645 9.08203 16.0645 12.6953 C 16.0645 19.0918 21.0938 24.8047 28.9551 24.8535 C 33.6914 24.8535 37.2559 21.875 39.1602 17.8711 Z"/>
  </g>
  <g id="Heavy-L" transform="matrix(1 0 0 1 2599.85 1556)">
   <path d="M 36.084 17.5293 L 54.3457 -23.9746 C 56.2988 -28.3203 57.6172 -31.2988 57.6172 -35.3027 C 57.6172 -39.3066 56.2988 -42.2852 54.3457 -46.6309 L 36.084 -88.1348 C 34.4238 -91.6992 31.25 -94.2383 27.1973 -94.2383 C 20.459 -94.1895 16.0645 -89.3066 16.0645 -83.6914 C 16.0645 -80.5664 17.9199 -76.5625 19.4824 -73.1445 L 35.9863 -35.3027 L 19.4824 2.53906 C 17.9199 5.95703 16.0645 9.96094 16.0645 13.0859 C 16.0645 18.7012 20.459 23.584 27.1973 23.6328 C 31.25 23.6328 34.4238 21.0938 36.084 17.5293 Z"/>
  </g>
  <g id="Bold-L" transform="matrix(1 0 0 1 2305.21 1556)">
   <path d="M 32.6172 17.1387 L 50.5859 -25.2441 C 52.1973 -28.9551 53.4668 -31.8848 53.4668 -35.3516 C 53.4668 -38.7695 52.1973 -41.748 50.5859 -45.4102 L 32.6172 -87.793 C 31.25 -90.8691 28.5645 -92.9688 25.2441 -92.9688 C 19.7266 -92.9199 16.0645 -88.9648 16.0645 -84.2285 C 16.0645 -81.6406 17.5781 -78.2715 18.75 -75.5859 L 35.7422 -35.3516 L 18.75 4.93164 C 17.5781 7.61719 16.0645 10.9375 16.0645 13.5254 C 16.0645 18.3105 19.7266 22.2656 25.2441 22.3145 C 28.5645 22.3145 31.25 20.166 32.6172 17.1387 Z"/>
  </g>
  <g id="Semibold-L" transform="matrix(1 0 0 1 2009.94 1556)">
   <path d="M 30.2246 16.8945 L 47.998 -26.123 C 49.3652 -29.3945 50.5859 -32.3242 50.5859 -35.3516 C 50.5859 -38.3789 49.3652 -41.3574 47.998 -44.5801 L 30.2246 -87.5977 C 29.0527 -90.2832 26.6602 -92.0898 23.877 -92.0898 C 19.2383 -92.041 16.0645 -88.7207 16.0645 -84.5703 C 16.0645 -82.373 17.334 -79.4434 18.2617 -77.2461 L 35.5469 -35.3516 L 18.2617 6.54297 C 17.334 8.74023 16.0645 11.6211 16.0645 13.8672 C 16.0645 18.0176 19.2383 21.3379 23.877 21.3867 C 26.6602 21.3867 29.0527 19.5801 30.2246 16.8945 Z"/>
  </g>
  <g id="Medium-L" transform="matrix(1 0 0 1 1714.3 1556)">
   <path d="M 28.3691 16.6992 L 46.0449 -26.8066 C 47.2656 -29.6875 48.4375 -32.666 48.4375 -35.3516 C 48.4375 -38.0859 47.2656 -41.0645 46.0449 -43.9453 L 28.3691 -87.4023 C 27.3926 -89.8438 25.2441 -91.4062 22.8516 -91.4062 C 18.8477 -91.4062 16.0645 -88.5254 16.0645 -84.8145 C 16.0645 -82.9102 17.1387 -80.3711 17.9199 -78.5156 L 35.4004 -35.3516 L 17.9199 7.76367 C 17.1387 9.61914 16.0645 12.1094 16.0645 14.0625 C 16.0645 17.7734 18.8477 20.6543 22.8516 20.6543 C 25.2441 20.6543 27.3926 19.0918 28.3691 16.6992 Z"/>
  </g>
  <g id="Regular-L" transform="matrix(1 0 0 1 1419.01 1556)">
   <path d="M 26.0254 16.4062 L 43.5059 -27.6855 C 44.4824 -30.127 45.6055 -33.0566 45.6055 -35.4004 C 45.6055 -37.6953 44.4824 -40.7227 43.5059 -43.1152 L 26.0254 -87.207 C 25.1953 -89.2578 23.3887 -90.5273 21.4844 -90.5273 C 18.4082 -90.5273 16.0645 -88.2324 16.0645 -85.1562 C 16.0645 -83.6426 16.8945 -81.543 17.4316 -80.1758 L 35.2051 -35.4004 L 17.4316 9.375 C 16.8945 10.7422 16.0645 12.793 16.0645 14.4043 C 16.0645 17.4805 18.4082 19.7754 21.4844 19.7754 C 23.3887 19.7754 25.1953 18.5059 26.0254 16.4062 Z"/>
  </g>
  <g id="Light-L" transform="matrix(1 0 0 1 1123.49 1556)">
   <path d="M 23.3887 15.9668 L 41.6992 -29.5898 C 42.4316 -31.3965 43.2129 -33.6426 43.2129 -35.3027 C 43.2129 -37.0117 42.4316 -39.2578 41.6992 -41.0156 L 23.3887 -86.6211 C 22.7539 -88.2324 21.3867 -89.0625 20.0195 -89.0625 C 17.7734 -89.0625 16.0645 -87.4023 16.0645 -85.1074 C 16.0645 -83.9844 16.6504 -82.4707 17.041 -81.3965 L 35.5469 -35.3027 L 17.041 10.791 C 16.6504 11.8164 16.0645 13.3301 16.0645 14.4531 C 16.0645 16.748 17.7734 18.4082 20.0195 18.4082 C 21.3867 18.4082 22.7539 17.5781 23.3887 15.9668 Z"/>
  </g>
  <g id="Thin-L" transform="matrix(1 0 0 1 828.37 1556)">
   <path d="M 19.873 15.3809 L 39.3066 -32.1777 C 39.6973 -33.1055 40.0391 -34.375 40.0391 -35.2051 C 40.0391 -36.084 39.6973 -37.3047 39.3066 -38.2324 L 19.873 -85.8398 C 19.4824 -86.8164 18.7012 -87.1094 18.1152 -87.1094 C 16.9434 -87.1094 16.0645 -86.2305 16.0645 -85.0098 C 16.0645 -84.4238 16.3086 -83.6914 16.5039 -83.1055 L 36.0352 -35.2051 L 16.5039 12.6465 C 16.3086 13.2324 16.0645 14.0137 16.0645 14.5508 C 16.0645 15.8203 16.9434 16.6504 18.1152 16.6504 C 18.7012 16.6504 19.4824 16.3574 19.873 15.3809 Z"/>
  </g>
  <g id="Ultralight-L" transform="matrix(1 0 0 1 532.465 1556)">
   <path d="M 18.1152 15.0879 L 38.0859 -33.4961 C 38.3301 -33.9844 38.4277 -34.7168 38.4277 -35.1562 C 38.4277 -35.5957 38.3301 -36.3281 38.0859 -36.8164 L 18.1152 -85.4004 C 17.8223 -86.084 17.334 -86.084 17.1387 -86.084 C 16.5039 -86.084 16.0645 -85.6445 16.0645 -84.9609 C 16.0645 -84.668 16.1621 -84.3262 16.2598 -83.9355 L 36.2793 -35.1562 L 16.2598 13.623 C 16.1621 13.9648 16.0645 14.3555 16.0645 14.5996 C 16.0645 15.332 16.5039 15.7715 17.1387 15.7715 C 17.334 15.7715 17.8223 15.7227 18.1152 15.0879 Z"/>
  </g>
  <g id="Black-M" transform="matrix(1 0 0 1 2901.54 1126)">
   <path d="M 33.1055 6.15234 L 48.291 -25.1465 C 50.293 -29.3945 51.2695 -31.2988 51.2695 -35.2051 C 51.2695 -39.0625 50.293 -40.9668 48.291 -45.2637 L 33.1055 -76.5137 C 31.3965 -79.9805 28.3203 -82.6172 24.0723 -82.6172 C 16.8457 -82.5684 12.4512 -77.3926 12.4512 -71.7773 C 12.4512 -68.5547 14.4043 -64.502 16.2598 -60.6934 L 28.7109 -35.2051 L 16.2598 -9.7168 C 14.4043 -5.9082 12.4512 -1.80664 12.4512 1.41602 C 12.4512 6.98242 16.8457 12.1582 24.0723 12.2559 C 28.3203 12.2559 31.3965 9.61914 33.1055 6.15234 Z"/>
  </g>
  <g id="Heavy-M" transform="matrix(1 0 0 1 2606.54 1126)">
   <path d="M 30.4199 5.85938 L 45.0684 -25.8789 C 46.8262 -29.6875 47.8516 -31.7383 47.8516 -35.2539 C 47.8516 -38.7207 46.8262 -40.8203 45.0684 -44.6289 L 30.4199 -76.3672 C 28.9551 -79.4434 26.2207 -81.7383 22.5098 -81.7383 C 16.3086 -81.6895 12.4512 -77.2461 12.4512 -72.3145 C 12.4512 -69.5312 14.1113 -65.918 15.6738 -62.7441 L 28.2715 -35.2539 L 15.6738 -7.76367 C 14.1113 -4.54102 12.4512 -0.976562 12.4512 1.80664 C 12.4512 6.78711 16.3086 11.2305 22.5098 11.2793 C 26.2207 11.2793 28.9551 8.98438 30.4199 5.85938 Z"/>
  </g>
  <g id="Bold-M" transform="matrix(1 0 0 1 2311.76 1126)">
   <path d="M 27.3926 5.61523 L 41.5039 -26.709 C 42.9688 -29.9805 43.9941 -32.2754 43.9941 -35.3027 C 43.9941 -38.3301 42.9688 -40.625 41.5039 -43.8965 L 27.3926 -76.1719 C 26.1719 -78.8574 23.7793 -80.7617 20.752 -80.7617 C 15.7227 -80.7617 12.4512 -77.0996 12.4512 -72.9004 C 12.4512 -70.5566 13.8184 -67.5293 14.9902 -64.9902 L 27.832 -35.3027 L 14.9902 -5.56641 C 13.8184 -3.02734 12.4512 -0.0488281 12.4512 2.29492 C 12.4512 6.54297 15.7227 10.1562 20.752 10.2051 C 23.7793 10.2051 26.1719 8.25195 27.3926 5.61523 Z"/>
  </g>
  <g id="Semibold-M" transform="matrix(1 0 0 1 2016.39 1126)">
   <path d="M 25.293 5.41992 L 39.0625 -27.2461 C 40.2832 -30.1758 41.3086 -32.6172 41.3086 -35.3516 C 41.3086 -38.0371 40.2832 -40.5273 39.0625 -43.4082 L 25.293 -76.0742 C 24.2676 -78.4668 22.168 -80.127 19.5801 -80.127 C 15.332 -80.0781 12.4512 -77.002 12.4512 -73.291 C 12.4512 -71.2891 13.623 -68.6523 14.502 -66.6016 L 27.5391 -35.3516 L 14.502 -4.05273 C 13.623 -2.00195 12.4512 0.585938 12.4512 2.63672 C 12.4512 6.34766 15.332 9.42383 19.5801 9.42383 C 22.168 9.42383 24.2676 7.76367 25.293 5.41992 Z"/>
  </g>
  <g id="Medium-M" transform="matrix(1 0 0 1 1720.68 1126)">
   <path d="M 23.7305 5.22461 L 37.1582 -27.6855 C 38.2812 -30.3223 39.3066 -32.9102 39.3066 -35.3516 C 39.3066 -37.8418 38.2812 -40.4297 37.1582 -43.0176 L 23.7305 -75.9766 C 22.8027 -78.125 20.8984 -79.5898 18.6523 -79.5898 C 14.9902 -79.5898 12.4512 -76.9043 12.4512 -73.584 C 12.4512 -71.8262 13.4766 -69.4824 14.1602 -67.7734 L 27.3438 -35.3516 L 14.1602 -2.92969 C 13.4766 -1.2207 12.4512 1.07422 12.4512 2.88086 C 12.4512 6.20117 14.9902 8.88672 18.6523 8.88672 C 20.8984 8.88672 22.8027 7.42188 23.7305 5.22461 Z"/>
  </g>
  <g id="Regular-M" transform="matrix(1 0 0 1 1425.26 1126)">
   <path d="M 21.6797 5.0293 L 34.7656 -28.2715 C 35.6445 -30.5176 36.7188 -33.252 36.7188 -35.4004 C 36.7188 -37.5488 35.6445 -40.2832 34.7656 -42.5293 L 21.6797 -75.8301 C 20.9473 -77.7344 19.2871 -78.9062 17.4805 -78.9062 C 14.5996 -78.9062 12.4512 -76.8066 12.4512 -73.9746 C 12.4512 -72.5586 13.2812 -70.6055 13.7207 -69.3359 L 27.0508 -35.4004 L 13.7207 -1.46484 C 13.2812 -0.195312 12.4512 1.70898 12.4512 3.17383 C 12.4512 6.05469 14.5996 8.1543 17.4805 8.1543 C 19.2871 8.1543 20.9473 6.93359 21.6797 5.0293 Z"/>
  </g>
  <g id="Light-M" transform="matrix(1 0 0 1 1129.62 1126)">
   <path d="M 19.2871 4.63867 L 33.1055 -30.0293 C 33.7891 -31.6895 34.5703 -33.7402 34.5703 -35.3516 C 34.5703 -36.9141 33.7891 -39.0137 33.1055 -40.625 L 19.2871 -75.293 C 18.75 -76.7578 17.4805 -77.5879 16.1621 -77.5879 C 14.0625 -77.5879 12.4512 -76.0254 12.4512 -73.9258 C 12.4512 -72.8516 13.0371 -71.4355 13.3789 -70.459 L 27.3926 -35.3516 L 13.3789 -0.195312 C 13.0371 0.78125 12.4512 2.14844 12.4512 3.27148 C 12.4512 5.37109 14.0625 6.93359 16.1621 6.93359 C 17.4805 6.93359 18.75 6.10352 19.2871 4.63867 Z"/>
  </g>
  <g id="Thin-M" transform="matrix(1 0 0 1 834.328 1126)">
   <path d="M 16.1621 4.15039 L 30.957 -32.3242 C 31.3477 -33.252 31.7383 -34.375 31.7383 -35.2539 C 31.7383 -36.084 31.3477 -37.2559 30.957 -38.1836 L 16.1621 -74.6094 C 15.8203 -75.4883 15.0879 -75.8301 14.4531 -75.8301 C 13.2812 -75.8301 12.4512 -75 12.4512 -73.8281 C 12.4512 -73.291 12.7441 -72.5098 12.9395 -71.9727 L 27.832 -35.2539 L 12.9395 1.46484 C 12.7441 2.05078 12.4512 2.7832 12.4512 3.32031 C 12.4512 4.54102 13.2812 5.37109 14.4531 5.37109 C 15.0879 5.37109 15.8203 5.0293 16.1621 4.15039 Z"/>
  </g>
  <g id="Ultralight-M" transform="matrix(1 0 0 1 538.349 1126)">
   <path d="M 14.5508 3.85742 L 29.8828 -33.4961 C 30.127 -34.0332 30.2734 -34.7168 30.2734 -35.2051 C 30.2734 -35.6445 30.127 -36.377 29.8828 -36.9141 L 14.5508 -74.2676 C 14.3066 -74.8535 13.8672 -74.9512 13.5742 -74.9512 C 12.9395 -74.9512 12.4512 -74.4629 12.4512 -73.7793 C 12.4512 -73.4863 12.5488 -73.0957 12.6953 -72.7051 L 28.0273 -35.2051 L 12.6953 2.34375 C 12.5488 2.68555 12.4512 3.07617 12.4512 3.36914 C 12.4512 4.10156 12.9395 4.54102 13.5742 4.54102 C 13.8672 4.54102 14.3066 4.44336 14.5508 3.85742 Z"/>
  </g>
  <g id="Black-S" transform="matrix(1 0 0 1 2908.55 696)">
   <path d="M 25.7812 -2.83203 L 37.5977 -27.3438 C 39.1602 -30.6641 39.9414 -32.1777 39.9414 -35.2051 C 39.9414 -38.2324 39.1602 -39.7461 37.5977 -43.0664 L 25.7812 -67.5781 C 24.4629 -70.2637 22.0703 -72.3145 18.75 -72.3145 C 13.1836 -72.2656 9.76562 -68.2617 9.76562 -63.916 C 9.76562 -61.4258 11.2793 -58.252 12.6953 -55.3223 L 22.4609 -35.2051 L 12.6953 -15.0879 C 11.2793 -12.1582 9.76562 -8.98438 9.76562 -6.49414 C 9.76562 -2.14844 13.1836 1.85547 18.75 1.9043 C 22.0703 1.9043 24.4629 -0.146484 25.7812 -2.83203 Z"/>
  </g>
  <g id="Heavy-S" transform="matrix(1 0 0 1 2613.03 696)">
   <path d="M 23.9746 -2.97852 L 35.3516 -27.7344 C 36.7188 -30.7617 37.5488 -32.4707 37.5488 -35.2539 C 37.5488 -38.0371 36.7188 -39.7461 35.3516 -42.7734 L 23.9746 -67.5293 C 22.8027 -69.9707 20.6543 -71.7773 17.7246 -71.7773 C 12.8418 -71.7773 9.76562 -68.2617 9.76562 -64.3066 C 9.76562 -62.1094 11.084 -59.2773 12.2559 -56.7383 L 22.1191 -35.2539 L 12.2559 -13.7207 C 11.084 -11.2305 9.76562 -8.39844 9.76562 -6.20117 C 9.76562 -2.24609 12.8418 1.26953 17.7246 1.31836 C 20.6543 1.31836 22.8027 -0.537109 23.9746 -2.97852 Z"/>
  </g>
  <g id="Bold-S" transform="matrix(1 0 0 1 2317.66 696)">
   <path d="M 21.9727 -3.17383 L 32.8125 -28.125 C 33.9844 -30.8105 34.8633 -32.8125 34.8633 -35.3027 C 34.8633 -37.793 33.9844 -39.7949 32.8125 -42.4805 L 21.9727 -67.4316 C 20.9961 -69.6289 19.043 -71.1914 16.5527 -71.1914 C 12.4512 -71.1914 9.76562 -68.2129 9.76562 -64.7461 C 9.76562 -62.8906 10.8887 -60.4004 11.8164 -58.3496 L 21.7285 -35.3027 L 11.8164 -12.2559 C 10.8887 -10.2051 9.76562 -7.76367 9.76562 -5.81055 C 9.76562 -2.39258 12.4512 0.585938 16.5527 0.634766 C 19.043 0.634766 20.9961 -0.976562 21.9727 -3.17383 Z"/>
  </g>
  <g id="Semibold-S" transform="matrix(1 0 0 1 2021.88 696)">
   <path d="M 20.5566 -3.27148 L 31.0547 -28.418 C 32.1289 -30.9082 33.0078 -33.0078 33.0078 -35.3516 C 33.0078 -37.6465 32.1289 -39.7949 31.0547 -42.2363 L 20.5566 -67.3828 C 19.6777 -69.3848 17.9199 -70.8008 15.7715 -70.8008 C 12.207 -70.8008 9.76562 -68.2129 9.76562 -65.0879 C 9.76562 -63.3789 10.7422 -61.1816 11.4746 -59.4727 L 21.4844 -35.3516 L 11.4746 -11.1816 C 10.7422 -9.47266 9.76562 -7.32422 9.76562 -5.56641 C 9.76562 -2.44141 12.207 0.146484 15.7715 0.146484 C 17.9199 0.146484 19.6777 -1.26953 20.5566 -3.27148 Z"/>
  </g>
  <g id="Medium-S" transform="matrix(1 0 0 1 1725.85 696)">
   <path d="M 19.5312 -3.36914 L 29.7363 -28.6621 C 30.6641 -30.9082 31.6406 -33.2031 31.6406 -35.3516 C 31.6406 -37.5 30.6641 -39.8438 29.7363 -42.0898 L 19.5312 -67.334 C 18.75 -69.2383 17.0898 -70.5078 15.1367 -70.5078 C 12.0117 -70.5078 9.76562 -68.2129 9.76562 -65.332 C 9.76562 -63.7695 10.6445 -61.7676 11.2305 -60.3027 L 21.2891 -35.3516 L 11.2305 -10.4004 C 10.6445 -8.93555 9.76562 -6.98242 9.76562 -5.41992 C 9.76562 -2.49023 12.0117 -0.195312 15.1367 -0.195312 C 17.0898 -0.195312 18.75 -1.51367 19.5312 -3.36914 Z"/>
  </g>
  <g id="Regular-S" transform="matrix(1 0 0 1 1430.07 696)">
   <path d="M 18.1152 -3.4668 L 28.0273 -28.9551 C 28.8086 -31.0059 29.7852 -33.4473 29.7852 -35.4004 C 29.7852 -37.3535 28.8086 -39.8438 28.0273 -41.8457 L 18.1152 -67.2852 C 17.4805 -68.9941 15.9668 -70.1172 14.3555 -70.1172 C 11.7188 -70.1172 9.76562 -68.2129 9.76562 -65.625 C 9.76562 -64.3066 10.498 -62.5488 10.9375 -61.4258 L 21.0938 -35.4004 L 10.9375 -9.375 C 10.498 -8.25195 9.76562 -6.54297 9.76562 -5.17578 C 9.76562 -2.58789 11.7188 -0.683594 14.3555 -0.683594 C 15.9668 -0.683594 17.4805 -1.80664 18.1152 -3.4668 Z"/>
  </g>
  <g id="Light-S" transform="matrix(1 0 0 1 1134.31 696)">
   <path d="M 16.0645 -3.80859 L 26.5625 -30.4688 C 27.1973 -32.0312 27.8809 -33.8867 27.8809 -35.3516 C 27.8809 -36.8164 27.1973 -38.6719 26.5625 -40.1855 L 16.0645 -66.8457 C 15.5273 -68.1641 14.4043 -68.9453 13.1836 -68.9453 C 11.2305 -68.9453 9.76562 -67.4805 9.76562 -65.5762 C 9.76562 -64.5996 10.3027 -63.2812 10.6445 -62.4023 L 21.3379 -35.3516 L 10.6445 -8.25195 C 10.3027 -7.42188 9.76562 -6.10352 9.76562 -5.12695 C 9.76562 -3.17383 11.2305 -1.70898 13.1836 -1.70898 C 14.4043 -1.70898 15.5273 -2.53906 16.0645 -3.80859 Z"/>
  </g>
  <g id="Thin-S" transform="matrix(1 0 0 1 838.844 696)">
   <path d="M 13.2812 -4.29688 L 24.707 -32.5195 C 25.0488 -33.3496 25.3906 -34.4238 25.3906 -35.2539 C 25.3906 -36.084 25.0488 -37.1582 24.707 -37.9883 L 13.2812 -66.2109 C 12.9395 -67.041 12.2559 -67.3828 11.6699 -67.3828 C 10.5957 -67.3828 9.76562 -66.6016 9.76562 -65.4785 C 9.76562 -64.9414 10.0586 -64.209 10.2051 -63.7207 L 21.7285 -35.2539 L 10.2051 -6.78711 C 10.0586 -6.29883 9.76562 -5.56641 9.76562 -5.0293 C 9.76562 -3.90625 10.5957 -3.125 11.6699 -3.125 C 12.2559 -3.125 12.9395 -3.4668 13.2812 -4.29688 Z"/>
  </g>
  <g id="Ultralight-S" transform="matrix(1 0 0 1 542.768 696)">
   <path d="M 11.8652 -4.54102 L 23.7305 -33.5449 C 23.9258 -34.082 24.1211 -34.7656 24.1211 -35.2051 C 24.1211 -35.6934 23.9258 -36.377 23.7305 -36.8652 L 11.8652 -65.8691 C 11.6211 -66.4551 11.1816 -66.6016 10.8887 -66.6016 C 10.2539 -66.6016 9.76562 -66.1133 9.76562 -65.4297 C 9.76562 -65.1367 9.91211 -64.7461 10.0098 -64.4043 L 21.9238 -35.2051 L 10.0098 -6.05469 C 9.91211 -5.71289 9.76562 -5.27344 9.76562 -4.98047 C 9.76562 -4.29688 10.2539 -3.85742 10.8887 -3.85742 C 11.1816 -3.85742 11.6211 -4.00391 11.8652 -4.54102 Z"/>
  </g>
 </g>
</svg>
