<?xml version="1.0" encoding="UTF-8"?>
<!--Generator: Apple Native CoreSVG 148-->
<!DOCTYPE svg
PUBLIC "-//W3C//DTD SVG 1.1//EN"
       "http://www.w3.org/Graphics/SVG/1.1/DTD/svg11.dtd">
<svg version="1.1" xmlns="http://www.w3.org/2000/svg" xmlns:xlink="http://www.w3.org/1999/xlink" width="3300" height="2200">
 <!--glyph: "uni1001C5.medium", point size: 100.000000, font version: "Version 16.0d11e1", template writer version: "8"-->
 <g id="Notes">
  <rect height="2200" id="artboard" style="fill:white;opacity:1" width="3300" x="0" y="0"/>
  <line id="" style="fill:none;stroke:black;opacity:1;stroke-width:0.5;" x1="263" x2="3036" y1="292" y2="292"/>
  <text style="stroke:none;fill:black;font-family:-apple-system,&quot;SF Pro Display&quot;,&quot;SF Pro Text&quot;,Helvetica,sans-serif;font-weight:bold;" transform="matrix(1 0 0 1 263 322)">Weight/Scale Variations</text>
  <text style="stroke:none;fill:black;font-family:-apple-system,&quot;SF Pro Display&quot;,&quot;SF Pro Text&quot;,Helvetica,sans-serif;text-anchor:middle;" transform="matrix(1 0 0 1 559.711 322)">Ultralight</text>
  <text style="stroke:none;fill:black;font-family:-apple-system,&quot;SF Pro Display&quot;,&quot;SF Pro Text&quot;,Helvetica,sans-serif;text-anchor:middle;" transform="matrix(1 0 0 1 856.422 322)">Thin</text>
  <text style="stroke:none;fill:black;font-family:-apple-system,&quot;SF Pro Display&quot;,&quot;SF Pro Text&quot;,Helvetica,sans-serif;text-anchor:middle;" transform="matrix(1 0 0 1 1153.13 322)">Light</text>
  <text style="stroke:none;fill:black;font-family:-apple-system,&quot;SF Pro Display&quot;,&quot;SF Pro Text&quot;,Helvetica,sans-serif;text-anchor:middle;" transform="matrix(1 0 0 1 1449.84 322)">Regular</text>
  <text style="stroke:none;fill:black;font-family:-apple-system,&quot;SF Pro Display&quot;,&quot;SF Pro Text&quot;,Helvetica,sans-serif;text-anchor:middle;" transform="matrix(1 0 0 1 1746.56 322)">Medium</text>
  <text style="stroke:none;fill:black;font-family:-apple-system,&quot;SF Pro Display&quot;,&quot;SF Pro Text&quot;,Helvetica,sans-serif;text-anchor:middle;" transform="matrix(1 0 0 1 2043.27 322)">Semibold</text>
  <text style="stroke:none;fill:black;font-family:-apple-system,&quot;SF Pro Display&quot;,&quot;SF Pro Text&quot;,Helvetica,sans-serif;text-anchor:middle;" transform="matrix(1 0 0 1 2339.98 322)">Bold</text>
  <text style="stroke:none;fill:black;font-family:-apple-system,&quot;SF Pro Display&quot;,&quot;SF Pro Text&quot;,Helvetica,sans-serif;text-anchor:middle;" transform="matrix(1 0 0 1 2636.69 322)">Heavy</text>
  <text style="stroke:none;fill:black;font-family:-apple-system,&quot;SF Pro Display&quot;,&quot;SF Pro Text&quot;,Helvetica,sans-serif;text-anchor:middle;" transform="matrix(1 0 0 1 2933.4 322)">Black</text>
  <line id="" style="fill:none;stroke:black;opacity:1;stroke-width:0.5;" x1="263" x2="3036" y1="1903" y2="1903"/>
  <g id="" transform="matrix(1 0 0 1 263 1933)">
   <path d="M 9.24805 0.830078 C 13.5547 0.830078 17.1387 -2.74414 17.1387 -7.05078 C 17.1387 -11.3574 13.5449 -14.9316 9.23828 -14.9316 C 4.94141 -14.9316 1.36719 -11.3574 1.36719 -7.05078 C 1.36719 -2.74414 4.95117 0.830078 9.24805 0.830078 Z M 9.24805 -0.654297 C 5.70312 -0.654297 2.87109 -3.49609 2.87109 -7.05078 C 2.87109 -10.6055 5.69336 -13.4473 9.23828 -13.4473 C 12.793 -13.4473 15.6348 -10.6055 15.6445 -7.05078 C 15.6543 -3.49609 12.8027 -0.654297 9.24805 -0.654297 Z M 9.22852 -3.62305 C 9.69727 -3.62305 9.9707 -3.93555 9.9707 -4.45312 L 9.9707 -6.31836 L 12.002 -6.31836 C 12.5 -6.31836 12.832 -6.57227 12.832 -7.04102 C 12.832 -7.51953 12.5195 -7.7832 12.002 -7.7832 L 9.9707 -7.7832 L 9.9707 -9.81445 C 9.9707 -10.332 9.69727 -10.6543 9.22852 -10.6543 C 8.75977 -10.6543 8.50586 -10.3125 8.50586 -9.81445 L 8.50586 -7.7832 L 6.49414 -7.7832 C 5.97656 -7.7832 5.64453 -7.51953 5.64453 -7.04102 C 5.64453 -6.57227 5.99609 -6.31836 6.49414 -6.31836 L 8.50586 -6.31836 L 8.50586 -4.45312 C 8.50586 -3.95508 8.75977 -3.62305 9.22852 -3.62305 Z"/>
  </g>
  <g id="" transform="matrix(1 0 0 1 281.506 1933)">
   <path d="M 11.709 2.91016 C 17.1582 2.91016 21.6699 -1.61133 21.6699 -7.05078 C 21.6699 -12.5 17.1484 -17.0117 11.6992 -17.0117 C 6.25977 -17.0117 1.74805 -12.5 1.74805 -7.05078 C 1.74805 -1.61133 6.26953 2.91016 11.709 2.91016 Z M 11.709 1.25 C 7.09961 1.25 3.41797 -2.44141 3.41797 -7.05078 C 3.41797 -11.6602 7.08984 -15.3516 11.6992 -15.3516 C 16.3086 -15.3516 20 -11.6602 20.0098 -7.05078 C 20.0195 -2.44141 16.3184 1.25 11.709 1.25 Z M 11.6797 -2.66602 C 12.207 -2.66602 12.5098 -3.01758 12.5098 -3.59375 L 12.5098 -6.23047 L 15.3223 -6.23047 C 15.8691 -6.23047 16.25 -6.51367 16.25 -7.03125 C 16.25 -7.55859 15.8887 -7.86133 15.3223 -7.86133 L 12.5098 -7.86133 L 12.5098 -10.6836 C 12.5098 -11.25 12.207 -11.6113 11.6797 -11.6113 C 11.1621 -11.6113 10.8789 -11.2305 10.8789 -10.6836 L 10.8789 -7.86133 L 8.07617 -7.86133 C 7.50977 -7.86133 7.13867 -7.55859 7.13867 -7.03125 C 7.13867 -6.51367 7.5293 -6.23047 8.07617 -6.23047 L 10.8789 -6.23047 L 10.8789 -3.59375 C 10.8789 -3.03711 11.1621 -2.66602 11.6797 -2.66602 Z"/>
  </g>
  <g id="" transform="matrix(1 0 0 1 304.924 1933)">
   <path d="M 14.9707 5.66406 C 21.9336 5.66406 27.6953 -0.0976562 27.6953 -7.05078 C 27.6953 -14.0137 21.9238 -19.7754 14.9609 -19.7754 C 8.00781 -19.7754 2.25586 -14.0137 2.25586 -7.05078 C 2.25586 -0.0976562 8.01758 5.66406 14.9707 5.66406 Z M 14.9707 3.84766 C 8.93555 3.84766 4.08203 -1.01562 4.08203 -7.05078 C 4.08203 -13.0957 8.92578 -17.9492 14.9609 -17.9492 C 21.0059 -17.9492 25.8594 -13.0957 25.8691 -7.05078 C 25.8789 -1.01562 21.0156 3.84766 14.9707 3.84766 Z M 14.9414 -1.38672 C 15.5176 -1.38672 15.8594 -1.77734 15.8594 -2.38281 L 15.8594 -6.13281 L 19.7754 -6.13281 C 20.3711 -6.13281 20.7812 -6.46484 20.7812 -7.02148 C 20.7812 -7.59766 20.3906 -7.93945 19.7754 -7.93945 L 15.8594 -7.93945 L 15.8594 -11.8652 C 15.8594 -12.4805 15.5176 -12.8711 14.9414 -12.8711 C 14.375 -12.8711 14.0527 -12.4609 14.0527 -11.8652 L 14.0527 -7.93945 L 10.1465 -7.93945 C 9.53125 -7.93945 9.13086 -7.59766 9.13086 -7.02148 C 9.13086 -6.46484 9.55078 -6.13281 10.1465 -6.13281 L 14.0527 -6.13281 L 14.0527 -2.38281 C 14.0527 -1.79688 14.375 -1.38672 14.9414 -1.38672 Z"/>
  </g>
  <text style="stroke:none;fill:black;font-family:-apple-system,&quot;SF Pro Display&quot;,&quot;SF Pro Text&quot;,Helvetica,sans-serif;font-weight:bold;" transform="matrix(1 0 0 1 263 1953)">Design Variations</text>
  <text style="stroke:none;fill:black;font-family:-apple-system,&quot;SF Pro Display&quot;,&quot;SF Pro Text&quot;,Helvetica,sans-serif;" transform="matrix(1 0 0 1 263 1971)">Symbols are supported in up to nine weights and three scales.</text>
  <text style="stroke:none;fill:black;font-family:-apple-system,&quot;SF Pro Display&quot;,&quot;SF Pro Text&quot;,Helvetica,sans-serif;" transform="matrix(1 0 0 1 263 1989)">For optimal layout with text and other symbols, vertically align</text>
  <text style="stroke:none;fill:black;font-family:-apple-system,&quot;SF Pro Display&quot;,&quot;SF Pro Text&quot;,Helvetica,sans-serif;" transform="matrix(1 0 0 1 263 2007)">symbols with the adjacent text.</text>
  <line id="" style="fill:none;stroke:#00AEEF;stroke-width:0.5;opacity:1.0;" x1="776" x2="776" y1="1919" y2="1933"/>
  <g id="" transform="matrix(1 0 0 1 776 1933)">
   <path d="M 3.31055 0.126953 C 3.82812 0.126953 4.08203 -0.0683594 4.26758 -0.605469 L 5.52734 -4.0625 L 11.2891 -4.0625 L 12.5488 -0.605469 C 12.7344 -0.0683594 12.9883 0.126953 13.4961 0.126953 C 14.0137 0.126953 14.3457 -0.185547 14.3457 -0.673828 C 14.3457 -0.839844 14.3164 -0.986328 14.2383 -1.20117 L 9.6582 -13.3887 C 9.43359 -13.9941 9.0332 -14.2871 8.4082 -14.2871 C 7.80273 -14.2871 7.39258 -13.9941 7.17773 -13.3984 L 2.59766 -1.19141 C 2.51953 -0.976562 2.49023 -0.830078 2.49023 -0.664062 C 2.49023 -0.175781 2.80273 0.126953 3.31055 0.126953 Z M 6.00586 -5.53711 L 8.37891 -12.1094 L 8.42773 -12.1094 L 10.8008 -5.53711 Z"/>
  </g>
  <line id="" style="fill:none;stroke:#00AEEF;stroke-width:0.5;opacity:1.0;" x1="792.836" x2="792.836" y1="1919" y2="1933"/>
  <text style="stroke:none;fill:black;font-family:-apple-system,&quot;SF Pro Display&quot;,&quot;SF Pro Text&quot;,Helvetica,sans-serif;font-weight:bold;" transform="matrix(1 0 0 1 776 1953)">Margins</text>
  <text style="stroke:none;fill:black;font-family:-apple-system,&quot;SF Pro Display&quot;,&quot;SF Pro Text&quot;,Helvetica,sans-serif;" transform="matrix(1 0 0 1 776 1971)">Leading and trailing margins on the left and right side of each symbol</text>
  <text style="stroke:none;fill:black;font-family:-apple-system,&quot;SF Pro Display&quot;,&quot;SF Pro Text&quot;,Helvetica,sans-serif;" transform="matrix(1 0 0 1 776 1989)">can be adjusted by modifying the x-location of the margin guidelines.</text>
  <text style="stroke:none;fill:black;font-family:-apple-system,&quot;SF Pro Display&quot;,&quot;SF Pro Text&quot;,Helvetica,sans-serif;" transform="matrix(1 0 0 1 776 2007)">Modifications are automatically applied proportionally to all</text>
  <text style="stroke:none;fill:black;font-family:-apple-system,&quot;SF Pro Display&quot;,&quot;SF Pro Text&quot;,Helvetica,sans-serif;" transform="matrix(1 0 0 1 776 2025)">scales and weights.</text>
  <g id="" transform="matrix(1 0 0 1 1289 1933)">
   <path d="M 2.8418 1.86523 L 4.54102 3.57422 C 5.40039 4.44336 6.38672 4.38477 7.31445 3.35938 L 17.4902 -7.85156 C 17.7539 -7.76367 18.0273 -7.7832 18.3398 -7.8418 L 19.4043 -8.03711 L 20.0684 -7.36328 L 20.0293 -6.80664 C 19.9902 -6.30859 20.1172 -5.92773 20.6055 -5.44922 L 21.3672 -4.70703 C 21.8457 -4.22852 22.4609 -4.19922 22.9297 -4.66797 L 25.8398 -7.58789 C 26.3086 -8.05664 26.2891 -8.65234 25.8105 -9.13086 L 25.0391 -9.89258 C 24.5605 -10.3711 24.1895 -10.5273 23.7109 -10.4883 L 23.1348 -10.4395 L 22.4902 -11.0742 L 22.7344 -12.1973 C 22.8613 -12.7637 22.7051 -13.2031 22.1191 -13.7891 L 19.9219 -15.9766 C 16.582 -19.2969 12.1484 -19.2188 9.25781 -16.3281 C 8.83789 -15.918 8.80859 -15.3418 9.04297 -14.9512 C 9.27734 -14.5898 9.73633 -14.3555 10.3809 -14.5215 C 11.8457 -14.8633 13.3691 -14.9219 14.7949 -13.9844 L 14.209 -12.5293 C 14.0137 -12.0508 13.9844 -11.6504 14.1113 -11.2891 L 3.04688 -0.898438 C 2.06055 0.0195312 1.98242 0.996094 2.8418 1.86523 Z M 10.752 -15.957 C 13.1836 -17.7344 16.4746 -17.4316 18.7012 -15.2051 L 21.1328 -12.793 C 21.3672 -12.5586 21.4062 -12.373 21.3379 -12.0312 L 21.0156 -10.5469 L 22.5195 -9.0625 L 23.5059 -9.12109 C 23.7598 -9.13086 23.8379 -9.11133 24.0332 -8.91602 L 24.6094 -8.33984 L 22.168 -5.89844 L 21.5918 -6.47461 C 21.3965 -6.66992 21.3672 -6.74805 21.377 -7.01172 L 21.4453 -7.98828 L 19.9512 -9.47266 L 18.4277 -9.21875 C 18.1055 -9.15039 17.959 -9.17969 17.7148 -9.41406 L 15.7129 -11.416 C 15.459 -11.6504 15.4297 -11.8164 15.5859 -12.1875 L 16.4648 -14.2773 C 14.9023 -15.7324 12.8711 -16.3574 10.8398 -15.7617 C 10.6836 -15.7227 10.625 -15.8496 10.752 -15.957 Z M 5.27344 2.30469 L 4.10156 1.14258 C 3.63281 0.683594 3.74023 0.341797 4.14062 -0.0195312 L 14.9512 -10.1953 L 16.416 -8.71094 L 6.42578 2.27539 C 6.07422 2.67578 5.74219 2.77344 5.27344 2.30469 Z"/>
  </g>
  <text style="stroke:none;fill:black;font-family:-apple-system,&quot;SF Pro Display&quot;,&quot;SF Pro Text&quot;,Helvetica,sans-serif;font-weight:bold;" transform="matrix(1 0 0 1 1289 1953)">Exporting</text>
  <text style="stroke:none;fill:black;font-family:-apple-system,&quot;SF Pro Display&quot;,&quot;SF Pro Text&quot;,Helvetica,sans-serif;" transform="matrix(1 0 0 1 1289 1971)">Symbols should be outlined when exporting to ensure the</text>
  <text style="stroke:none;fill:black;font-family:-apple-system,&quot;SF Pro Display&quot;,&quot;SF Pro Text&quot;,Helvetica,sans-serif;" transform="matrix(1 0 0 1 1289 1989)">design is preserved when submitting to Xcode.</text>
  <text id="template-version" style="stroke:none;fill:black;font-family:-apple-system,&quot;SF Pro Display&quot;,&quot;SF Pro Text&quot;,Helvetica,sans-serif;text-anchor:end;" transform="matrix(1 0 0 1 3036 1933)">Template v.2.0</text>
  <text style="stroke:none;fill:black;font-family:-apple-system,&quot;SF Pro Display&quot;,&quot;SF Pro Text&quot;,Helvetica,sans-serif;text-anchor:end;" transform="matrix(1 0 0 1 3036 1951)">Requires Xcode 12 or greater</text>
  <text style="stroke:none;fill:black;font-family:-apple-system,&quot;SF Pro Display&quot;,&quot;SF Pro Text&quot;,Helvetica,sans-serif;text-anchor:end;" transform="matrix(1 0 0 1 3036 1969)">Generated from cloud.drizzle.fill</text>
  <text style="stroke:none;fill:black;font-family:-apple-system,&quot;SF Pro Display&quot;,&quot;SF Pro Text&quot;,Helvetica,sans-serif;text-anchor:end;" transform="matrix(1 0 0 1 3036 1987)">Typeset at 100 points</text>
  <text style="stroke:none;fill:black;font-family:-apple-system,&quot;SF Pro Display&quot;,&quot;SF Pro Text&quot;,Helvetica,sans-serif;" transform="matrix(1 0 0 1 263 726)">Small</text>
  <text style="stroke:none;fill:black;font-family:-apple-system,&quot;SF Pro Display&quot;,&quot;SF Pro Text&quot;,Helvetica,sans-serif;" transform="matrix(1 0 0 1 263 1156)">Medium</text>
  <text style="stroke:none;fill:black;font-family:-apple-system,&quot;SF Pro Display&quot;,&quot;SF Pro Text&quot;,Helvetica,sans-serif;" transform="matrix(1 0 0 1 263 1586)">Large</text>
 </g>
 <g id="Guides">
  <g id="H-reference" style="fill:#27AAE1;stroke:none;" transform="matrix(1 0 0 1 339 696)">
   <path d="M 0.976562 0 L 3.66211 0 L 12.9883 -24.4629 L 45.7031 -24.4629 L 55.0781 0 L 57.7148 0 L 30.6152 -70.459 L 28.125 -70.459 Z M 29.2969 -67.1387 L 29.3945 -67.1387 L 44.873 -26.709 L 13.8672 -26.709 Z"/>
  </g>
  <line id="Baseline-S" style="fill:none;stroke:#27AAE1;opacity:1;stroke-width:0.5;" x1="263" x2="3036" y1="696" y2="696"/>
  <line id="Capline-S" style="fill:none;stroke:#27AAE1;opacity:1;stroke-width:0.5;" x1="263" x2="3036" y1="625.541" y2="625.541"/>
  <g id="H-reference" style="fill:#27AAE1;stroke:none;" transform="matrix(1 0 0 1 339 1126)">
   <path d="M 0.976562 0 L 3.66211 0 L 12.9883 -24.4629 L 45.7031 -24.4629 L 55.0781 0 L 57.7148 0 L 30.6152 -70.459 L 28.125 -70.459 Z M 29.2969 -67.1387 L 29.3945 -67.1387 L 44.873 -26.709 L 13.8672 -26.709 Z"/>
  </g>
  <line id="Baseline-M" style="fill:none;stroke:#27AAE1;opacity:1;stroke-width:0.5;" x1="263" x2="3036" y1="1126" y2="1126"/>
  <line id="Capline-M" style="fill:none;stroke:#27AAE1;opacity:1;stroke-width:0.5;" x1="263" x2="3036" y1="1055.54" y2="1055.54"/>
  <g id="H-reference" style="fill:#27AAE1;stroke:none;" transform="matrix(1 0 0 1 339 1556)">
   <path d="M 0.976562 0 L 3.66211 0 L 12.9883 -24.4629 L 45.7031 -24.4629 L 55.0781 0 L 57.7148 0 L 30.6152 -70.459 L 28.125 -70.459 Z M 29.2969 -67.1387 L 29.3945 -67.1387 L 44.873 -26.709 L 13.8672 -26.709 Z"/>
  </g>
  <line id="Baseline-L" style="fill:none;stroke:#27AAE1;opacity:1;stroke-width:0.5;" x1="263" x2="3036" y1="1556" y2="1556"/>
  <line id="Capline-L" style="fill:none;stroke:#27AAE1;opacity:1;stroke-width:0.5;" x1="263" x2="3036" y1="1485.54" y2="1485.54"/>
  <line id="left-margin" style="fill:none;stroke:#00AEEF;stroke-width:0.5;opacity:1.0;" x1="1385.86" x2="1385.86" y1="1030.79" y2="1150.12"/>
  <line id="right-margin" style="fill:none;stroke:#00AEEF;stroke-width:0.5;opacity:1.0;" x1="1513.83" x2="1513.83" y1="1030.79" y2="1150.12"/>
 </g>
 <g id="Symbols">
  <g id="Black-L" transform="matrix(1 0 0 1 2846.24 1556)">
   <path d="M 44.4824 -1.80664 L 123.926 -1.80664 C 146.045 -1.80664 163.037 -18.5547 163.037 -40.2832 C 163.037 -62.3535 145.898 -79.1016 123.486 -78.9551 C 115.039 -95.3125 100.195 -104.15 80.9082 -104.15 C 56.1523 -104.15 35.8398 -86.4746 32.5195 -62.1094 C 20.0684 -57.9102 11.2793 -47.168 11.2793 -33.0078 C 11.2793 -14.8438 25.0488 -1.80664 44.4824 -1.80664 Z M 97.6562 32.1289 L 105.42 18.75 C 106.836 16.2109 106.201 12.9883 103.564 11.4746 C 100.879 9.96094 97.998 10.8887 96.4355 13.623 L 88.623 27.0508 C 87.207 29.541 87.793 32.666 90.4297 34.1797 C 93.0664 35.6934 96.1914 34.6191 97.6562 32.1289 Z M 47.4609 32.1289 L 55.2246 18.75 C 56.6895 16.2109 56.0547 13.0371 53.3691 11.4746 C 50.7324 9.96094 47.8516 10.9375 46.2402 13.623 L 38.4766 27.0508 C 37.0117 29.541 37.5977 32.7148 40.2832 34.2285 C 42.9199 35.6934 46.0449 34.6191 47.4609 32.1289 Z M 117.529 49.7559 L 125.293 36.377 C 126.758 33.8867 126.123 30.6641 123.486 29.1504 C 120.801 27.5879 117.92 28.5645 116.309 31.25 L 108.545 44.6777 C 107.129 47.168 107.715 50.3418 110.352 51.8555 C 112.988 53.3691 116.113 52.2949 117.529 49.7559 Z M 67.3828 49.8047 L 75.1465 36.4258 C 76.6113 33.8867 75.9277 30.6641 73.291 29.1504 C 70.6543 27.6367 67.7246 28.6133 66.1621 31.2988 L 58.3984 44.7266 C 56.9336 47.2168 57.5195 50.3418 60.2051 51.8555 C 62.8418 53.3691 65.9668 52.2949 67.3828 49.8047 Z"/>
  </g>
  <g id="Heavy-L" transform="matrix(1 0 0 1 2550.68 1556)">
   <path d="M 43.3594 -2.88086 L 122.559 -2.88086 C 144.141 -2.88086 160.742 -19.1895 160.742 -40.2832 C 160.742 -61.7188 143.848 -77.9297 121.729 -77.7832 C 113.379 -94.1895 98.584 -103.125 79.6875 -103.125 C 55.3711 -103.125 35.2539 -85.2539 32.3242 -61.1328 C 19.873 -57.1289 11.2793 -46.5332 11.2793 -32.8125 C 11.2793 -15.332 24.5117 -2.88086 43.3594 -2.88086 Z M 96.0449 30.2246 L 104.004 16.4551 C 105.371 14.1602 104.688 11.2305 102.295 9.81445 C 99.9023 8.44727 97.2168 9.32617 95.752 11.7676 L 87.793 25.5859 C 86.4746 27.8809 87.0117 30.7129 89.4531 32.1289 C 91.8457 33.4961 94.6777 32.5195 96.0449 30.2246 Z M 45.8496 30.2734 L 53.8086 16.5039 C 55.1758 14.1602 54.541 11.2793 52.1484 9.86328 C 49.707 8.49609 47.0703 9.32617 45.6055 11.8164 L 37.6465 25.6348 C 36.2793 27.8809 36.8652 30.7617 39.3066 32.1777 C 41.6992 33.5449 44.5312 32.5684 45.8496 30.2734 Z M 115.918 47.9004 L 123.877 34.1309 C 125.244 31.7871 124.609 28.9062 122.168 27.4902 C 119.775 26.123 117.09 27.002 115.674 29.4434 L 107.666 43.2617 C 106.348 45.5566 106.885 48.3887 109.326 49.8047 C 111.719 51.1719 114.6 50.1953 115.918 47.9004 Z M 65.7715 47.9492 L 73.7305 34.1797 C 75.0977 31.8359 74.4629 28.9062 72.0215 27.5391 C 69.6289 26.1719 66.9434 27.002 65.4785 29.4922 L 57.5195 43.3105 C 56.2012 45.5566 56.7383 48.4375 59.1797 49.8047 C 61.5723 51.1719 64.4043 50.2441 65.7715 47.9492 Z"/>
  </g>
  <g id="Bold-L" transform="matrix(1 0 0 1 2255.29 1556)">
   <path d="M 42.0898 -4.10156 L 121.045 -4.10156 C 141.992 -4.10156 158.105 -19.9219 158.105 -40.332 C 158.105 -60.9863 141.553 -76.5625 119.775 -76.416 C 111.523 -92.8711 96.7773 -101.953 78.3691 -101.953 C 54.4922 -101.953 34.668 -83.9355 32.0801 -60.0098 C 19.6777 -56.25 11.2793 -45.8008 11.2793 -32.6172 C 11.2793 -15.8691 23.9258 -4.10156 42.0898 -4.10156 Z M 94.1895 28.125 L 102.393 13.9648 C 103.662 11.8164 103.076 9.22852 100.928 8.00781 C 98.7305 6.78711 96.3867 7.51953 95.0684 9.7168 L 86.8164 23.9746 C 85.6445 26.0254 86.1328 28.5645 88.3301 29.834 C 90.4785 31.0059 93.0176 30.2246 94.1895 28.125 Z M 44.043 28.1738 L 52.2461 13.9648 C 53.5156 11.8652 52.9297 9.27734 50.7812 8.05664 C 48.584 6.78711 46.2402 7.56836 44.9219 9.76562 L 36.6699 24.0234 C 35.498 26.0742 35.9863 28.6133 38.1836 29.834 C 40.332 31.0547 42.8711 30.2246 44.043 28.1738 Z M 114.062 45.8008 L 122.266 31.6406 C 123.486 29.4922 122.9 26.9531 120.752 25.6836 C 118.604 24.4629 116.211 25.1953 114.893 27.3926 L 106.689 41.6504 C 105.469 43.7012 106.006 46.2402 108.154 47.5098 C 110.303 48.7305 112.842 47.9004 114.062 45.8008 Z M 63.916 45.8496 L 72.1191 31.6895 C 73.3398 29.541 72.7539 26.9531 70.6055 25.7324 C 68.457 24.5117 66.0645 25.2441 64.7461 27.4414 L 56.543 41.6992 C 55.3223 43.75 55.8594 46.2891 58.0078 47.5586 C 60.1562 48.7305 62.6953 47.9492 63.916 45.8496 Z"/>
  </g>
  <g id="Semibold-L" transform="matrix(1 0 0 1 1959.45 1556)">
   <path d="M 41.2109 -4.93164 L 120.02 -4.93164 C 140.527 -4.93164 156.348 -20.4102 156.348 -40.332 C 156.348 -60.498 139.99 -75.6836 118.457 -75.4883 C 110.205 -91.9922 95.5566 -101.172 77.4414 -101.172 C 53.8574 -101.172 34.2285 -83.0566 31.9336 -59.2773 C 19.5312 -55.6641 11.2793 -45.3125 11.2793 -32.4707 C 11.2793 -16.2598 23.5352 -4.93164 41.2109 -4.93164 Z M 92.9688 26.6602 L 101.318 12.207 C 102.49 10.2051 101.904 7.91016 99.9512 6.73828 C 97.998 5.61523 95.752 6.29883 94.5801 8.30078 L 86.1816 22.8516 C 85.0586 24.7559 85.5469 27.0508 87.5488 28.2227 C 89.502 29.3457 91.8457 28.6133 92.9688 26.6602 Z M 42.8223 26.709 L 51.1719 12.2559 C 52.3438 10.2539 51.7578 7.91016 49.8047 6.78711 C 47.8516 5.66406 45.6543 6.29883 44.4336 8.34961 L 36.0352 22.9004 C 34.9121 24.8047 35.4004 27.0996 37.4023 28.2715 C 39.3555 29.3945 41.6992 28.6621 42.8223 26.709 Z M 112.793 44.3359 L 121.143 29.8828 C 122.314 27.9297 121.729 25.5859 119.775 24.4141 C 117.773 23.291 115.576 23.9746 114.404 26.0254 L 106.006 40.5273 C 104.883 42.4316 105.371 44.7754 107.373 45.8984 C 109.326 47.0215 111.67 46.2891 112.793 44.3359 Z M 62.6465 44.3848 L 70.9961 29.9316 C 72.168 27.9785 71.582 25.6348 69.6289 24.4629 C 67.6758 23.3398 65.4297 24.0234 64.2578 26.0742 L 55.8594 40.5762 C 54.7363 42.4805 55.2246 44.8242 57.2266 45.9473 C 59.1797 47.0703 61.5234 46.3379 62.6465 44.3848 Z"/>
  </g>
  <g id="Medium-L" transform="matrix(1 0 0 1 1663.43 1556)">
   <path d="M 40.5762 -5.56641 L 119.238 -5.56641 C 139.404 -5.56641 154.98 -20.8008 154.98 -40.332 C 154.98 -60.1074 138.818 -74.9512 117.432 -74.8047 C 109.229 -91.3086 94.5801 -100.537 76.709 -100.537 C 53.418 -100.537 33.8867 -82.373 31.8359 -58.6914 C 19.4336 -55.2246 11.2793 -44.9219 11.2793 -32.3242 C 11.2793 -16.5527 23.1934 -5.56641 40.5762 -5.56641 Z M 92.041 25.5371 L 100.488 10.8887 C 101.611 8.98438 101.025 6.83594 99.2188 5.76172 C 97.3633 4.73633 95.3125 5.32227 94.1895 7.27539 L 85.6934 22.0215 C 84.6191 23.7793 85.1074 25.9277 86.9629 27.002 C 88.8184 28.0273 90.9668 27.3926 92.041 25.5371 Z M 41.8945 25.5859 L 50.3418 10.9375 C 51.4648 9.0332 50.9277 6.88477 49.0723 5.81055 C 47.2656 4.78516 45.166 5.37109 44.043 7.27539 L 35.5469 22.0703 C 34.4727 23.8281 34.9609 25.9766 36.8164 27.0508 C 38.6719 28.0762 40.8203 27.4414 41.8945 25.5859 Z M 111.816 43.2617 L 120.312 28.5645 C 121.436 26.709 120.85 24.5605 119.043 23.4863 C 117.188 22.4121 115.137 23.0469 114.014 24.9512 L 105.469 39.6973 C 104.443 41.5039 104.932 43.6523 106.787 44.7266 C 108.594 45.752 110.791 45.0684 111.816 43.2617 Z M 61.6699 43.3105 L 70.166 28.6133 C 71.2891 26.7578 70.7031 24.6094 68.8965 23.5352 C 67.041 22.4609 64.9902 23.0957 63.8672 25 L 55.3223 39.7461 C 54.2969 41.5527 54.7852 43.7012 56.6406 44.7754 C 58.4473 45.8008 60.6445 45.1172 61.6699 43.3105 Z"/>
  </g>
  <g id="Regular-L" transform="matrix(1 0 0 1 1367.62 1556)">
   <path d="M 39.6973 -6.39648 L 118.164 -6.39648 C 137.939 -6.39648 153.174 -21.2891 153.174 -40.332 C 153.174 -59.6191 137.256 -74.0723 116.113 -73.877 C 107.959 -90.4297 93.3594 -99.7559 75.7812 -99.7559 C 52.7832 -99.7559 33.4473 -81.4453 31.6895 -57.959 C 19.2871 -54.6387 11.2793 -44.4336 11.2793 -32.1777 C 11.2793 -16.8945 22.8027 -6.39648 39.6973 -6.39648 Z M 90.7715 24.1211 L 99.4141 9.17969 C 100.439 7.42188 99.9023 5.51758 98.291 4.54102 C 96.6309 3.56445 94.7266 4.10156 93.7012 5.85938 L 85.0098 20.8984 C 84.082 22.5586 84.5215 24.4629 86.2305 25.4395 C 87.8418 26.3672 89.8438 25.7812 90.7715 24.1211 Z M 40.6738 24.1699 L 49.2676 9.22852 C 50.3418 7.4707 49.8047 5.56641 48.1445 4.58984 C 46.4844 3.61328 44.6289 4.15039 43.5547 5.9082 L 34.8633 20.9473 C 33.9355 22.6074 34.375 24.5117 36.084 25.4883 C 37.7441 26.416 39.6973 25.8301 40.6738 24.1699 Z M 110.547 41.7969 L 119.189 26.8555 C 120.215 25.1465 119.678 23.1934 118.066 22.2168 C 116.406 21.2891 114.502 21.8262 113.477 23.584 L 104.785 38.623 C 103.857 40.2344 104.297 42.1875 106.006 43.1641 C 107.617 44.0918 109.619 43.5059 110.547 41.7969 Z M 60.4492 41.8457 L 69.043 26.9043 C 70.1172 25.1953 69.5801 23.2422 67.9199 22.2656 C 66.2598 21.3379 64.4043 21.875 63.3301 23.6328 L 54.6875 38.6719 C 53.7109 40.2832 54.1504 42.2363 55.8594 43.2129 C 57.5195 44.1406 59.4727 43.5547 60.4492 41.8457 Z"/>
  </g>
  <g id="Light-L" transform="matrix(1 0 0 1 1071.35 1556)">
   <path d="M 38.9648 -7.51953 L 117.822 -7.51953 C 137.207 -7.51953 152.295 -22.0703 152.295 -40.7227 C 152.295 -59.5703 136.523 -73.6816 115.723 -73.5352 C 107.52 -90.5273 93.1641 -99.7559 75.4395 -99.7559 C 52.832 -99.7559 33.7891 -81.4941 32.0312 -57.959 C 19.4336 -54.6875 11.2793 -44.6777 11.2793 -32.5684 C 11.2793 -17.7734 22.5098 -7.51953 38.9648 -7.51953 Z M 89.1113 23.3887 L 98.3398 7.4707 C 99.2188 6.00586 98.7793 4.44336 97.4609 3.66211 C 96.1426 2.92969 94.6289 3.32031 93.75 4.83398 L 84.5215 20.8496 C 83.6914 22.2656 84.0332 23.7793 85.4004 24.5605 C 86.7188 25.3418 88.2812 24.8535 89.1113 23.3887 Z M 38.9648 23.4375 L 48.1934 7.4707 C 49.0723 6.00586 48.6328 4.49219 47.3145 3.71094 C 45.9961 2.92969 44.4824 3.36914 43.6035 4.83398 L 34.375 20.8496 C 33.5449 22.2656 33.8867 23.8281 35.2539 24.6094 C 36.5723 25.3418 38.1348 24.9023 38.9648 23.4375 Z M 108.984 41.0645 L 118.213 25.1465 C 119.092 23.6816 118.652 22.1191 117.334 21.3379 C 116.016 20.6055 114.502 20.9961 113.623 22.5098 L 104.395 38.4766 C 103.564 39.8926 103.906 41.4551 105.273 42.2363 C 106.592 43.0176 108.154 42.5293 108.984 41.0645 Z M 58.8379 41.1133 L 68.0664 25.1465 C 68.9453 23.6816 68.5059 22.168 67.1875 21.3867 C 65.8691 20.6055 64.3555 21.0449 63.4766 22.5098 L 54.1992 38.5254 C 53.418 39.9414 53.7598 41.5039 55.127 42.2852 C 56.4453 43.0176 58.0078 42.5781 58.8379 41.1133 Z"/>
  </g>
  <g id="Thin-L" transform="matrix(1 0 0 1 775.245 1556)">
   <path d="M 37.9883 -8.98438 L 117.334 -8.98438 C 136.279 -8.98438 151.074 -23.1445 151.074 -41.2598 C 151.074 -59.4727 135.596 -73.1934 115.234 -73.0469 C 106.885 -90.5762 92.9199 -99.7559 74.9512 -99.7559 C 52.832 -99.7559 34.2285 -81.4941 32.5195 -57.959 C 19.5801 -54.7363 11.2793 -44.9219 11.2793 -33.0566 C 11.2793 -18.8965 22.168 -8.98438 37.9883 -8.98438 Z M 86.8652 22.4609 L 96.875 5.22461 C 97.5586 4.10156 97.3145 3.07617 96.3867 2.49023 C 95.5566 2.05078 94.5312 2.29492 93.8477 3.4668 L 83.8379 20.752 C 83.2031 21.875 83.3984 22.8516 84.3262 23.4375 C 85.2539 23.9746 86.2793 23.584 86.8652 22.4609 Z M 36.7188 22.4609 L 46.7285 5.22461 C 47.4121 4.10156 47.1191 3.07617 46.1914 2.53906 C 45.3613 2.05078 44.3359 2.34375 43.6523 3.4668 L 33.6426 20.752 C 33.0078 21.875 33.2031 22.9004 34.1309 23.4375 C 35.0586 23.9746 36.084 23.6328 36.7188 22.4609 Z M 106.885 40.0879 L 116.895 22.8516 C 117.578 21.6797 117.285 20.7031 116.357 20.1172 C 115.527 19.6777 114.502 19.9219 113.818 21.0938 L 103.809 38.3301 C 103.174 39.4531 103.418 40.4785 104.297 41.0645 C 105.225 41.6016 106.25 41.2109 106.885 40.0879 Z M 56.6895 40.0879 L 66.6992 22.8516 C 67.3828 21.7285 67.1387 20.7031 66.2109 20.166 C 65.3809 19.6777 64.3555 19.9707 63.623 21.0938 L 53.6133 38.3789 C 53.0273 39.502 53.2227 40.5273 54.1504 41.0645 C 55.0781 41.6016 56.1035 41.2598 56.6895 40.0879 Z"/>
  </g>
  <g id="Ultralight-L" transform="matrix(1 0 0 1 478.852 1556)">
   <path d="M 37.5 -9.7168 L 117.09 -9.7168 C 135.791 -9.7168 150.439 -23.7305 150.439 -41.5039 C 150.439 -59.4727 135.156 -72.9492 114.99 -72.8027 C 106.592 -90.625 92.7734 -99.7559 74.707 -99.7559 C 52.8809 -99.7559 34.4727 -81.4941 32.8125 -57.959 C 19.6777 -54.7363 11.2793 -45.0684 11.2793 -33.3008 C 11.2793 -19.4824 21.9727 -9.7168 37.5 -9.7168 Z M 35.5469 21.9727 L 45.9473 4.05273 C 46.5332 3.07617 46.3379 2.34375 45.6543 1.9043 C 45.0195 1.5625 44.2871 1.80664 43.7012 2.73438 L 33.3008 20.6543 C 32.7637 21.6309 32.9102 22.4121 33.5938 22.8027 C 34.2773 23.2422 35.0586 22.9492 35.5469 21.9727 Z M 85.7422 22.0215 L 96.1426 4.05273 C 96.7285 3.125 96.5332 2.34375 95.8496 1.9043 C 95.2148 1.5625 94.4824 1.80664 93.8477 2.73438 L 83.4473 20.6543 C 82.959 21.6309 83.0566 22.4121 83.7891 22.8516 C 84.4727 23.2422 85.2051 22.9492 85.7422 22.0215 Z M 55.6152 39.5996 L 66.0156 21.6797 C 66.6016 20.7031 66.4062 19.9219 65.7227 19.5312 C 65.0879 19.1895 64.3066 19.3848 63.7207 20.3613 L 53.3203 38.2812 C 52.832 39.2578 52.9297 39.9902 53.6621 40.4297 C 54.3457 40.8691 55.0781 40.5762 55.6152 39.5996 Z M 105.811 39.5996 L 116.211 21.6797 C 116.797 20.7031 116.602 19.9219 115.869 19.5312 C 115.283 19.1895 114.502 19.3848 113.916 20.3613 L 103.516 38.2812 C 103.027 39.2578 103.125 39.9902 103.809 40.4297 C 104.541 40.8691 105.273 40.5762 105.811 39.5996 Z"/>
  </g>
  <g id="Black-M" transform="matrix(1 0 0 1 2864.53 1126)">
   <path d="M 35.5469 -8.44727 L 97.7051 -8.44727 C 115.381 -8.44727 129.004 -21.875 129.004 -39.3066 C 129.004 -57.0801 115.43 -70.6543 97.8516 -70.5078 C 91.1621 -83.3984 79.6875 -90.0391 64.1602 -90.0391 C 44.5801 -90.0391 28.7109 -76.5137 25.6836 -57.373 C 15.8691 -53.8574 8.74023 -45.459 8.74023 -33.9844 C 8.74023 -19.2383 20.0195 -8.44727 35.5469 -8.44727 Z M 38.0371 19.1406 L 44.0918 8.74023 C 45.3125 6.64062 44.7754 3.95508 42.627 2.73438 C 40.4297 1.46484 38.0371 2.29492 36.7188 4.54102 L 30.6641 14.9414 C 29.4922 16.9922 29.9316 19.6289 32.1289 20.8984 C 34.2773 22.168 36.8652 21.1914 38.0371 19.1406 Z M 76.9531 19.1406 L 83.0078 8.74023 C 84.1797 6.64062 83.6914 3.95508 81.4941 2.73438 C 79.2969 1.46484 76.9043 2.29492 75.5859 4.54102 L 69.5801 14.9414 C 68.3594 16.9922 68.7988 19.6289 70.9961 20.8984 C 73.1934 22.168 75.7812 21.1914 76.9531 19.1406 Z M 53.5645 32.7637 L 59.6191 22.3633 C 60.8398 20.3125 60.3027 17.627 58.1543 16.3574 C 55.957 15.0879 53.5645 15.918 52.2461 18.1641 L 46.1914 28.5645 C 45.0195 30.6641 45.459 33.3008 47.6562 34.5215 C 49.8047 35.791 52.3926 34.8633 53.5645 32.7637 Z M 92.4805 32.7637 L 98.5352 22.3633 C 99.707 20.3125 99.2188 17.627 97.0215 16.3574 C 94.8242 15.0879 92.4316 15.918 91.1133 18.1641 L 85.1074 28.5645 C 83.8867 30.6641 84.3262 33.3008 86.5234 34.5215 C 88.7207 35.791 91.3086 34.8633 92.4805 32.7637 Z"/>
  </g>
  <g id="Heavy-M" transform="matrix(1 0 0 1 2568.96 1126)">
   <path d="M 34.5215 -9.375 L 96.2891 -9.375 C 113.477 -9.375 126.709 -22.3633 126.709 -39.2578 C 126.709 -56.3965 113.379 -69.4336 96.0449 -69.3359 C 89.4531 -82.1289 77.9785 -88.916 62.9395 -88.916 C 43.75 -88.916 27.9785 -75.2441 25.3418 -56.2988 C 15.625 -53.0273 8.74023 -44.6777 8.74023 -33.6914 C 8.74023 -19.5312 19.4824 -9.375 34.5215 -9.375 Z M 75.6348 17.2363 L 81.7383 6.68945 C 82.8613 4.78516 82.373 2.29492 80.3711 1.12305 C 78.3203 0 76.123 0.732422 74.9023 2.7832 L 68.75 13.3789 C 67.6758 15.2832 68.1152 17.7246 70.1172 18.8477 C 72.1191 20.0195 74.5117 19.1895 75.6348 17.2363 Z M 36.7188 17.2852 L 42.8711 6.68945 C 43.9941 4.78516 43.5059 2.29492 41.4551 1.17188 C 39.4531 0 37.2559 0.732422 36.0352 2.83203 L 29.8828 13.3789 C 28.7598 15.2832 29.1992 17.7246 31.25 18.8965 C 33.252 20.0195 35.6445 19.1895 36.7188 17.2852 Z M 91.0645 30.9082 L 97.2168 20.3613 C 98.3398 18.457 97.8516 15.9668 95.8008 14.7949 C 93.7988 13.6719 91.6016 14.4043 90.3809 16.4551 L 84.2285 27.0508 C 83.1055 28.9551 83.5449 31.3965 85.5957 32.5195 C 87.5977 33.6914 89.9902 32.8613 91.0645 30.9082 Z M 52.1973 30.957 L 58.3496 20.3613 C 59.4238 18.457 58.9355 15.9668 56.9336 14.8438 C 54.9316 13.6719 52.6855 14.4043 51.4648 16.5039 L 45.3613 27.0508 C 44.2383 28.9551 44.6777 31.3965 46.7285 32.5195 C 48.7305 33.6914 51.123 32.8613 52.1973 30.957 Z"/>
  </g>
  <g id="Bold-M" transform="matrix(1 0 0 1 2273.55 1126)">
   <path d="M 33.3984 -10.3516 L 94.7266 -10.3516 C 111.328 -10.3516 124.121 -22.9004 124.121 -39.1602 C 124.121 -55.6152 111.084 -68.0664 93.9941 -67.9688 C 87.5488 -80.6641 76.0742 -87.6465 61.5234 -87.6465 C 42.7734 -87.6465 27.2461 -73.7793 25 -55.127 C 15.3809 -52.0508 8.74023 -43.8477 8.74023 -33.3496 C 8.74023 -19.873 18.8965 -10.3516 33.3984 -10.3516 Z M 74.1211 15.1367 L 80.3223 4.44336 C 81.3965 2.63672 80.9082 0.439453 79.0527 -0.585938 C 77.1973 -1.66016 75.1953 -1.02539 74.1211 0.878906 L 67.8711 11.6211 C 66.8457 13.3789 67.2852 15.5273 69.1406 16.6016 C 70.9473 17.627 73.1445 16.8945 74.1211 15.1367 Z M 35.2539 15.1855 L 41.4551 4.44336 C 42.5293 2.68555 42.041 0.488281 40.1855 -0.585938 C 38.3301 -1.61133 36.3281 -0.976562 35.2539 0.878906 L 29.0039 11.6699 C 27.9785 13.3789 28.418 15.5762 30.2734 16.6016 C 32.0801 17.627 34.2773 16.9434 35.2539 15.1855 Z M 89.5508 28.8574 L 95.752 18.1152 C 96.7773 16.3574 96.2891 14.1602 94.4824 13.0859 C 92.627 12.0605 90.625 12.6953 89.502 14.5508 L 83.252 25.3418 C 82.2754 27.0508 82.7148 29.248 84.5215 30.2734 C 86.377 31.2988 88.5254 30.6152 89.5508 28.8574 Z M 50.6836 28.8574 L 56.8848 18.1641 C 57.9102 16.3574 57.4219 14.1602 55.6152 13.1348 C 53.7598 12.0605 51.7578 12.6953 50.6348 14.5996 L 44.3848 25.3418 C 43.4082 27.0996 43.8477 29.248 45.6543 30.3223 C 47.5098 31.3477 49.6582 30.6152 50.6836 28.8574 Z"/>
  </g>
  <g id="Semibold-M" transform="matrix(1 0 0 1 1977.71 1126)">
   <path d="M 32.5684 -11.0352 L 93.6523 -11.0352 C 109.863 -11.0352 122.363 -23.291 122.363 -39.0625 C 122.363 -55.0781 109.521 -67.1387 92.627 -67.041 C 86.2305 -79.6875 74.7559 -86.7676 60.5957 -86.7676 C 42.0898 -86.7676 26.709 -72.8027 24.7559 -54.2969 C 15.1855 -51.416 8.74023 -43.2617 8.74023 -33.1055 C 8.74023 -20.1172 18.5059 -11.0352 32.5684 -11.0352 Z M 73.0957 13.6719 L 79.3457 2.88086 C 80.3711 1.2207 79.8828 -0.830078 78.1738 -1.80664 C 76.4648 -2.7832 74.5605 -2.19727 73.5352 -0.488281 L 67.2363 10.4004 C 66.3086 12.0117 66.748 14.0137 68.457 15.0391 C 70.166 15.9668 72.168 15.332 73.0957 13.6719 Z M 34.2285 13.7207 L 40.5273 2.88086 C 41.5039 1.2207 41.0156 -0.78125 39.3066 -1.75781 C 37.5977 -2.73438 35.6934 -2.14844 34.668 -0.439453 L 28.418 10.4492 C 27.4414 12.0605 27.8809 14.0625 29.5898 15.0391 C 31.2988 16.0156 33.3008 15.3809 34.2285 13.7207 Z M 88.4766 27.3926 L 94.7266 16.6016 C 95.7031 14.8926 95.2148 12.8906 93.5059 11.9141 C 91.7969 10.9375 89.9414 11.5234 88.916 13.2324 L 82.6172 24.1211 C 81.6895 25.7324 82.0801 27.7344 83.8379 28.7109 C 85.498 29.6875 87.5 29.0527 88.4766 27.3926 Z M 49.6094 27.4414 L 55.8594 16.6016 C 56.8359 14.9414 56.3477 12.9395 54.6875 11.9141 C 52.9785 10.9375 51.0742 11.5234 50.0488 13.2812 L 43.75 24.1699 C 42.8223 25.7812 43.2129 27.7832 44.9707 28.7598 C 46.6309 29.7363 48.6816 29.1016 49.6094 27.4414 Z"/>
  </g>
  <g id="Medium-M" transform="matrix(1 0 0 1 1681.69 1126)">
   <path d="M 31.9824 -11.5723 L 92.8711 -11.5723 C 108.74 -11.5723 120.996 -23.584 120.996 -39.0137 C 120.996 -54.6875 108.301 -66.4551 91.5527 -66.3086 C 85.2539 -78.9551 73.7793 -86.084 59.8633 -86.084 C 41.6016 -86.084 26.2695 -72.0215 24.5605 -53.6621 C 15.0391 -50.8789 8.74023 -42.8223 8.74023 -32.9102 C 8.74023 -20.3125 18.2129 -11.5723 31.9824 -11.5723 Z M 72.3145 12.5977 L 78.6133 1.70898 C 79.5898 0.0976562 79.1016 -1.80664 77.4902 -2.73438 C 75.8789 -3.66211 74.0723 -3.125 73.1445 -1.46484 L 66.7969 9.52148 C 65.918 11.0352 66.3086 12.8906 67.9688 13.8184 C 69.5312 14.7461 71.4355 14.1602 72.3145 12.5977 Z M 33.4961 12.6465 L 39.7949 1.70898 C 40.7227 0.146484 40.2344 -1.75781 38.6719 -2.68555 C 37.0605 -3.61328 35.2539 -3.07617 34.2773 -1.41602 L 27.9297 9.52148 C 27.0508 11.084 27.4902 12.9395 29.1016 13.8672 C 30.6641 14.7461 32.5684 14.209 33.4961 12.6465 Z M 87.6465 26.3184 L 93.9453 15.4297 C 94.873 13.8184 94.3848 11.9141 92.8223 10.9863 C 91.2109 10.0586 89.4043 10.5957 88.4277 12.2559 L 82.1289 23.2422 C 81.2012 24.7559 81.6406 26.6113 83.252 27.5391 C 84.8633 28.4668 86.7676 27.8809 87.6465 26.3184 Z M 48.7793 26.3672 L 55.0781 15.4785 C 56.0547 13.8672 55.5664 11.9629 53.9551 11.0352 C 52.3438 10.1074 50.5859 10.6445 49.6094 12.3047 L 43.2617 23.291 C 42.3828 24.8047 42.7734 26.6602 44.4336 27.5879 C 45.9961 28.5156 47.9004 27.9297 48.7793 26.3672 Z"/>
  </g>
  <g id="Regular-M" transform="matrix(1 0 0 1 1385.86 1126)">
   <path d="M 31.2012 -12.2559 L 91.7969 -12.2559 C 107.324 -12.2559 119.238 -23.9746 119.238 -38.9648 C 119.238 -54.1504 106.738 -65.5273 90.1855 -65.3809 C 83.9355 -77.9785 72.4609 -85.2539 58.9355 -85.2539 C 40.918 -85.2539 25.7324 -71.0449 24.3652 -52.832 C 14.8926 -50.2441 8.74023 -42.2852 8.74023 -32.666 C 8.74023 -20.5566 17.8223 -12.2559 31.2012 -12.2559 Z M 71.3379 11.1328 L 77.6855 0.146484 C 78.5645 -1.36719 78.0762 -3.07617 76.6113 -3.90625 C 75.1465 -4.78516 73.4863 -4.29688 72.6074 -2.7832 L 66.1621 8.30078 C 65.3809 9.7168 65.7715 11.4258 67.2852 12.3047 C 68.75 13.0859 70.5078 12.5977 71.3379 11.1328 Z M 32.4707 11.1816 L 38.8184 0.195312 C 39.6973 -1.31836 39.2578 -3.02734 37.793 -3.85742 C 36.2793 -4.73633 34.6191 -4.24805 33.7402 -2.73438 L 27.3438 8.34961 C 26.5137 9.76562 26.9531 11.4746 28.418 12.3047 C 29.8828 13.1348 31.6406 12.6465 32.4707 11.1816 Z M 86.5723 24.9023 L 92.9199 13.8672 C 93.8477 12.4023 93.3594 10.6934 91.8945 9.81445 C 90.4297 8.98438 88.7695 9.47266 87.8418 10.9375 L 81.4453 22.0703 C 80.6152 23.4375 81.0547 25.1465 82.5684 26.0254 C 83.9844 26.8555 85.7422 26.3672 86.5723 24.9023 Z M 47.7539 24.9512 L 54.1016 13.916 C 54.9805 12.4512 54.4922 10.7422 53.0762 9.86328 C 51.5625 9.0332 49.9023 9.52148 49.0234 10.9863 L 42.627 22.1191 C 41.7969 23.4863 42.1875 25.1953 43.7012 26.0742 C 45.166 26.9043 46.9238 26.416 47.7539 24.9512 Z"/>
  </g>
  <g id="Light-M" transform="matrix(1 0 0 1 1089.56 1126)">
   <path d="M 30.5176 -13.2812 L 91.4551 -13.2812 C 106.641 -13.2812 118.408 -24.6582 118.408 -39.3066 C 118.408 -54.1016 106.152 -65.1855 89.8438 -65.0879 C 83.5449 -78.0273 72.3145 -85.2539 58.6426 -85.2539 C 40.918 -85.2539 26.0254 -71.0449 24.6582 -52.832 C 14.9902 -50.293 8.74023 -42.4316 8.74023 -33.0078 C 8.74023 -21.2891 17.5781 -13.2812 30.5176 -13.2812 Z M 69.8242 10.5469 L 76.709 -1.36719 C 77.4414 -2.63672 77.0508 -4.00391 75.8789 -4.6875 C 74.707 -5.37109 73.3887 -4.98047 72.6562 -3.71094 L 65.7227 8.25195 C 65.0391 9.42383 65.332 10.791 66.5527 11.5234 C 67.7246 12.1582 69.0918 11.7676 69.8242 10.5469 Z M 30.957 10.5469 L 37.8418 -1.36719 C 38.5742 -2.58789 38.2324 -3.95508 37.0605 -4.6875 C 35.8398 -5.32227 34.5215 -4.98047 33.7891 -3.71094 L 26.8555 8.30078 C 26.1719 9.47266 26.4648 10.8398 27.6855 11.5234 C 28.8574 12.207 30.2734 11.7676 30.957 10.5469 Z M 85.1562 24.2188 L 92.041 12.3535 C 92.8223 11.084 92.4316 9.7168 91.2598 9.0332 C 90.0879 8.34961 88.7695 8.74023 87.9883 10.0098 L 81.0547 21.9727 C 80.3711 23.1445 80.7129 24.5117 81.8848 25.1953 C 83.0566 25.8789 84.4727 25.4883 85.1562 24.2188 Z M 46.2891 24.2676 L 53.1738 12.3535 C 53.9551 11.084 53.5645 9.7168 52.3926 9.0332 C 51.2207 8.39844 49.9023 8.74023 49.1211 10.0098 L 42.2363 21.9727 C 41.5039 23.1934 41.8457 24.5605 43.0664 25.2441 C 44.2383 25.9277 45.6055 25.4883 46.2891 24.2676 Z"/>
  </g>
  <g id="Thin-M" transform="matrix(1 0 0 1 793.385 1126)">
   <path d="M 29.6387 -14.5508 L 91.0156 -14.5508 C 105.811 -14.5508 117.334 -25.6348 117.334 -39.7949 C 117.334 -54.0527 105.322 -64.7461 89.4043 -64.6484 C 82.959 -78.125 72.0703 -85.2539 58.2031 -85.2539 C 40.9668 -85.2539 26.4648 -71.0938 25.0977 -52.832 C 15.1367 -50.3418 8.74023 -42.6758 8.74023 -33.4473 C 8.74023 -22.3145 17.2363 -14.5508 29.6387 -14.5508 Z M 67.8223 9.7168 L 75.3906 -3.41797 C 75.9766 -4.3457 75.7324 -5.27344 74.9512 -5.71289 C 74.1699 -6.15234 73.291 -5.9082 72.7051 -4.93164 L 65.0879 8.1543 C 64.5996 9.08203 64.7949 10.0098 65.5762 10.4492 C 66.3574 10.9375 67.2852 10.6445 67.8223 9.7168 Z M 28.9551 9.7168 L 36.5234 -3.36914 C 37.1094 -4.3457 36.8652 -5.22461 36.0352 -5.71289 C 35.3027 -6.15234 34.4238 -5.9082 33.8379 -4.93164 L 26.2207 8.1543 C 25.6836 9.08203 25.8789 10.0098 26.709 10.498 C 27.4902 10.9375 28.418 10.6445 28.9551 9.7168 Z M 83.3008 23.3398 L 90.8691 10.2539 C 91.4551 9.32617 91.2109 8.39844 90.3809 7.95898 C 89.6484 7.51953 88.7695 7.76367 88.1836 8.69141 L 80.5664 21.8262 C 80.0781 22.7539 80.2246 23.6816 81.0547 24.1211 C 81.8359 24.6094 82.7637 24.3164 83.3008 23.3398 Z M 44.3848 23.3887 L 52.002 10.3027 C 52.5879 9.32617 52.2949 8.44727 51.5137 7.95898 C 50.7812 7.51953 49.8535 7.76367 49.2676 8.74023 L 41.6992 21.8262 C 41.1621 22.7539 41.3574 23.6816 42.1875 24.1699 C 42.9688 24.6094 43.8965 24.3164 44.3848 23.3887 Z"/>
  </g>
  <g id="Ultralight-M" transform="matrix(1 0 0 1 496.967 1126)">
   <path d="M 29.1992 -15.2344 L 90.8203 -15.2344 C 105.371 -15.2344 116.748 -26.123 116.748 -40.0391 C 116.748 -54.0039 104.883 -64.5508 89.1602 -64.4043 C 82.7148 -78.125 71.9238 -85.2539 57.959 -85.2539 C 40.9668 -85.2539 26.6602 -71.0938 25.3418 -52.832 C 15.2344 -50.3418 8.74023 -42.8223 8.74023 -33.6426 C 8.74023 -22.8516 17.0898 -15.2344 29.1992 -15.2344 Z M 27.8809 9.27734 L 35.8398 -4.44336 C 36.3281 -5.22461 36.1328 -5.9082 35.5469 -6.25 C 35.0098 -6.54297 34.3262 -6.39648 33.8379 -5.56641 L 25.8789 8.10547 C 25.4883 8.93555 25.5859 9.57031 26.2207 9.96094 C 26.8066 10.3027 27.4902 10.0586 27.8809 9.27734 Z M 66.7969 9.27734 L 74.7559 -4.44336 C 75.2441 -5.22461 75.0488 -5.9082 74.4141 -6.25 C 73.877 -6.54297 73.2422 -6.39648 72.7539 -5.56641 L 64.7949 8.10547 C 64.3555 8.93555 64.502 9.57031 65.0879 9.96094 C 65.6738 10.3027 66.3574 10.0586 66.7969 9.27734 Z M 43.4082 22.9004 L 51.3672 9.22852 C 51.8555 8.39844 51.6602 7.76367 51.0742 7.37305 C 50.5371 7.08008 49.8535 7.27539 49.3652 8.05664 L 41.4062 21.7773 C 41.0156 22.5586 41.1133 23.2422 41.6992 23.584 C 42.334 23.9746 43.0176 23.7305 43.4082 22.9004 Z M 82.3242 22.9004 L 90.2344 9.22852 C 90.7715 8.39844 90.5762 7.76367 89.9414 7.37305 C 89.4043 7.08008 88.7695 7.27539 88.2812 8.05664 L 80.3223 21.7773 C 79.8828 22.5586 80.0293 23.2422 80.6152 23.584 C 81.2012 23.9746 81.8848 23.7305 82.3242 22.9004 Z"/>
  </g>
  <g id="Black-S" transform="matrix(1 0 0 1 2879.54 696)">
   <path d="M 27.7832 -14.3066 L 76.416 -14.3066 C 90.2344 -14.3066 100.879 -24.8047 100.879 -38.4277 C 100.879 -52.2949 90.2832 -62.8906 76.5137 -62.793 C 71.2891 -72.8516 62.3047 -78.0762 50.1465 -78.0762 C 34.8633 -78.0762 22.4121 -67.4805 20.0684 -52.4902 C 12.4023 -49.7559 6.83594 -43.1641 6.83594 -34.2285 C 6.83594 -22.7051 15.625 -14.3066 27.7832 -14.3066 Z M 29.7363 7.22656 L 34.4727 -0.927734 C 35.4004 -2.53906 35.0098 -4.63867 33.3008 -5.61523 C 31.5918 -6.5918 29.7363 -5.95703 28.7109 -4.19922 L 23.9746 3.95508 C 23.0469 5.56641 23.3887 7.61719 25.0977 8.59375 C 26.8066 9.57031 28.8086 8.83789 29.7363 7.22656 Z M 60.2051 7.22656 L 64.9414 -0.927734 C 65.8691 -2.53906 65.4785 -4.63867 63.7695 -5.61523 C 62.0605 -6.5918 60.2051 -5.95703 59.1797 -4.19922 L 54.4434 3.95508 C 53.5156 5.56641 53.8574 7.61719 55.5664 8.59375 C 57.2754 9.57031 59.2773 8.83789 60.2051 7.22656 Z M 41.8945 17.9199 L 46.6309 9.76562 C 47.5586 8.1543 47.168 6.05469 45.459 5.07812 C 43.75 4.10156 41.8945 4.73633 40.8691 6.49414 L 36.1328 14.6484 C 35.2051 16.2598 35.5469 18.3105 37.2559 19.2871 C 38.9648 20.2637 40.9668 19.5312 41.8945 17.9199 Z M 72.3633 17.9199 L 77.0996 9.76562 C 78.0273 8.1543 77.6367 6.05469 75.9277 5.07812 C 74.2188 4.10156 72.3633 4.73633 71.3379 6.49414 L 66.6016 14.6484 C 65.6738 16.2598 66.0156 18.3105 67.7246 19.2871 C 69.4336 20.2637 71.4355 19.5312 72.3633 17.9199 Z"/>
  </g>
  <g id="Heavy-S" transform="matrix(1 0 0 1 2583.66 696)">
   <path d="M 27.0508 -14.8926 L 75.3906 -14.8926 C 88.8672 -14.8926 99.2188 -25.0977 99.2188 -38.3301 C 99.2188 -51.7578 88.7695 -62.0117 75.1465 -61.9141 C 70.0195 -71.875 61.0352 -77.1973 49.2676 -77.1973 C 34.1797 -77.1973 21.8262 -66.5039 19.7754 -51.6602 C 12.207 -49.1211 6.83594 -42.5781 6.83594 -33.9355 C 6.83594 -22.8516 15.2344 -14.8926 27.0508 -14.8926 Z M 59.375 5.85938 L 64.1113 -2.29492 C 64.9902 -3.85742 64.5996 -5.81055 62.9883 -6.73828 C 61.377 -7.66602 59.5703 -7.08008 58.6426 -5.41992 L 53.9062 2.7832 C 53.0273 4.29688 53.3691 6.20117 54.9805 7.12891 C 56.5918 8.05664 58.4961 7.37305 59.375 5.85938 Z M 28.9062 5.85938 L 33.6426 -2.29492 C 34.5215 -3.80859 34.1309 -5.81055 32.5195 -6.73828 C 30.9082 -7.61719 29.1504 -7.03125 28.1738 -5.41992 L 23.4375 2.7832 C 22.5586 4.29688 22.9004 6.20117 24.5117 7.12891 C 26.123 8.05664 28.0273 7.37305 28.9062 5.85938 Z M 71.4355 16.5527 L 76.1719 8.39844 C 77.0996 6.88477 76.6602 4.93164 75.0977 4.00391 C 73.4375 3.07617 71.6797 3.66211 70.752 5.27344 L 65.9668 13.4766 C 65.0879 14.9902 65.4785 16.8945 67.0898 17.8223 C 68.7012 18.75 70.6055 18.1152 71.4355 16.5527 Z M 41.0156 16.6016 L 45.752 8.39844 C 46.6309 6.88477 46.2402 4.93164 44.6289 4.00391 C 43.0176 3.07617 41.2598 3.66211 40.2832 5.32227 L 35.5469 13.4766 C 34.668 14.9902 35.0098 16.9434 36.6211 17.8711 C 38.2324 18.75 40.1367 18.1152 41.0156 16.6016 Z"/>
  </g>
  <g id="Bold-S" transform="matrix(1 0 0 1 2287.88 696)">
   <path d="M 26.2695 -15.5273 L 74.2188 -15.5273 C 87.3047 -15.5273 97.3633 -25.4395 97.3633 -38.2324 C 97.3633 -51.1719 87.1094 -60.9863 73.6328 -60.8887 C 68.6035 -70.8008 59.5703 -76.2695 48.2422 -76.2695 C 33.4473 -76.2695 21.1914 -65.3809 19.4824 -50.7812 C 12.0117 -48.3887 6.83594 -41.8945 6.83594 -33.6426 C 6.83594 -23.0469 14.8438 -15.5273 26.2695 -15.5273 Z M 58.3984 4.3457 L 63.1348 -3.85742 C 63.9648 -5.32227 63.5742 -7.12891 62.0605 -7.95898 C 60.5469 -8.83789 58.8867 -8.30078 58.0078 -6.78711 L 53.2715 1.41602 C 52.4414 2.83203 52.7832 4.63867 54.2969 5.46875 C 55.8105 6.34766 57.5684 5.76172 58.3984 4.3457 Z M 27.9785 4.3457 L 32.666 -3.80859 C 33.5449 -5.27344 33.1055 -7.08008 31.6406 -7.95898 C 30.127 -8.78906 28.4668 -8.30078 27.5879 -6.78711 L 22.8027 1.46484 C 21.9727 2.88086 22.3633 4.63867 23.877 5.51758 C 25.3418 6.34766 27.1484 5.76172 27.9785 4.3457 Z M 70.459 15.0391 L 75.1953 6.88477 C 76.0254 5.41992 75.6348 3.61328 74.1211 2.7832 C 72.6074 1.9043 70.9473 2.44141 70.0684 3.95508 L 65.2832 12.1582 C 64.502 13.5742 64.8438 15.332 66.3574 16.2109 C 67.8711 17.041 69.6289 16.5039 70.459 15.0391 Z M 39.9902 15.0879 L 44.7266 6.88477 C 45.5566 5.46875 45.166 3.66211 43.6523 2.7832 C 42.1387 1.9043 40.4785 2.44141 39.5996 3.95508 L 34.8633 12.207 C 34.0332 13.5742 34.375 15.3809 35.8887 16.2598 C 37.4023 17.0898 39.1602 16.5039 39.9902 15.0879 Z"/>
  </g>
  <g id="Semibold-S" transform="matrix(1 0 0 1 1991.83 696)">
   <path d="M 25.7324 -15.9668 L 73.4375 -15.9668 C 86.2305 -15.9668 96.0449 -25.6348 96.0449 -38.1348 C 96.0449 -50.7812 85.9375 -60.3027 72.6074 -60.2051 C 67.627 -70.0195 58.5938 -75.5859 47.5586 -75.5859 C 32.9102 -75.5859 20.8008 -64.5996 19.2871 -50.1465 C 11.8652 -47.8516 6.83594 -41.4551 6.83594 -33.4473 C 6.83594 -23.1445 14.5508 -15.9668 25.7324 -15.9668 Z M 57.7637 3.27148 L 62.4512 -4.93164 C 63.2812 -6.29883 62.8906 -8.00781 61.4746 -8.83789 C 60.0098 -9.66797 58.4473 -9.17969 57.5684 -7.71484 L 52.832 0.537109 C 52.0508 1.85547 52.3926 3.51562 53.8574 4.3457 C 55.2734 5.12695 56.9824 4.63867 57.7637 3.27148 Z M 27.2949 3.27148 L 32.0312 -4.88281 C 32.8613 -6.25 32.4219 -7.95898 31.0059 -8.78906 C 29.5898 -9.61914 27.9785 -9.13086 27.1484 -7.71484 L 22.4121 0.537109 C 21.6309 1.85547 21.9727 3.56445 23.4375 4.39453 C 24.8535 5.17578 26.5137 4.63867 27.2949 3.27148 Z M 69.7266 14.0137 L 74.4629 5.85938 C 75.293 4.44336 74.8535 2.73438 73.4375 1.9043 C 72.0215 1.12305 70.4102 1.61133 69.5801 3.02734 L 64.8438 11.2793 C 64.0625 12.5977 64.4043 14.2578 65.8691 15.0879 C 67.2852 15.918 68.9453 15.3809 69.7266 14.0137 Z M 39.3066 14.0625 L 44.043 5.85938 C 44.873 4.49219 44.4336 2.7832 43.0176 1.95312 C 41.6016 1.12305 39.9902 1.61133 39.1602 3.07617 L 34.375 11.3281 C 33.5938 12.6465 33.9844 14.3066 35.4004 15.1367 C 36.8164 15.918 38.5254 15.4297 39.3066 14.0625 Z"/>
  </g>
  <g id="Medium-S" transform="matrix(1 0 0 1 1695.6 696)">
   <path d="M 25.293 -16.3086 L 72.8516 -16.3086 C 85.4492 -16.3086 95.0684 -25.8301 95.0684 -38.0859 C 95.0684 -50.4883 85.0586 -59.8145 71.8262 -59.7168 C 66.8945 -69.4336 57.8613 -75.0977 47.0215 -75.0977 C 32.5195 -75.0977 20.459 -64.0625 19.0918 -49.6582 C 11.7188 -47.4609 6.83594 -41.1133 6.83594 -33.252 C 6.83594 -23.2422 14.3555 -16.3086 25.293 -16.3086 Z M 57.2266 2.44141 L 61.9629 -5.71289 C 62.7441 -7.08008 62.3535 -8.69141 60.9863 -9.47266 C 59.6191 -10.2539 58.0566 -9.81445 57.2754 -8.44727 L 52.4902 -0.195312 C 51.7578 1.07422 52.0996 2.68555 53.5156 3.4668 C 54.8828 4.24805 56.4941 3.75977 57.2266 2.44141 Z M 26.8066 2.49023 L 31.543 -5.66406 C 32.3242 -7.03125 31.9336 -8.64258 30.5664 -9.42383 C 29.1504 -10.2539 27.6367 -9.76562 26.8555 -8.39844 L 22.0703 -0.146484 C 21.3379 1.12305 21.6797 2.73438 23.0957 3.51562 C 24.4141 4.29688 26.0742 3.80859 26.8066 2.49023 Z M 69.2383 13.2324 L 73.9258 5.0293 C 74.7559 3.71094 74.3164 2.09961 72.9492 1.26953 C 71.582 0.488281 70.0195 0.976562 69.2383 2.34375 L 64.4531 10.5957 C 63.7207 11.8652 64.1113 13.4766 65.4785 14.2578 C 66.8457 15.0391 68.457 14.5508 69.2383 13.2324 Z M 38.7695 13.2812 L 43.5059 5.07812 C 44.2871 3.75977 43.8965 2.14844 42.5293 1.31836 C 41.1621 0.537109 39.5996 0.976562 38.8184 2.34375 L 34.0332 10.6445 C 33.3008 11.9141 33.6426 13.5254 35.0586 14.3066 C 36.4258 15.0391 38.0371 14.5508 38.7695 13.2812 Z"/>
  </g>
  <g id="Regular-S" transform="matrix(1 0 0 1 1399.53 696)">
   <path d="M 24.7559 -16.748 L 72.0703 -16.748 C 84.375 -16.748 93.7988 -26.0254 93.7988 -37.9883 C 93.7988 -50.0977 83.9355 -59.1309 70.8008 -59.0332 C 65.9668 -68.7012 56.8359 -74.4141 46.3379 -74.4141 C 32.0312 -74.4141 20.0195 -63.2812 18.8965 -49.0234 C 11.5723 -46.9727 6.83594 -40.6738 6.83594 -33.0566 C 6.83594 -23.3398 14.0625 -16.748 24.7559 -16.748 Z M 56.5918 1.41602 L 61.3281 -6.78711 C 62.0605 -8.05664 61.6699 -9.57031 60.4004 -10.3027 C 59.082 -11.084 57.6172 -10.6445 56.8359 -9.375 L 52.0996 -1.07422 C 51.3672 0.0976562 51.7578 1.61133 53.0762 2.39258 C 54.3457 3.07617 55.9082 2.63672 56.5918 1.41602 Z M 26.1719 1.46484 L 30.9082 -6.73828 C 31.6406 -8.00781 31.25 -9.52148 29.9805 -10.3027 C 28.6621 -11.0352 27.1973 -10.5957 26.416 -9.32617 L 21.6309 -1.02539 C 20.9473 0.146484 21.3379 1.66016 22.6562 2.39258 C 23.9258 3.125 25.4883 2.68555 26.1719 1.46484 Z M 68.5059 12.207 L 73.2422 4.00391 C 74.0234 2.73438 73.584 1.2207 72.3145 0.439453 C 70.9961 -0.292969 69.5312 0.146484 68.75 1.41602 L 64.0137 9.7168 C 63.2812 10.8887 63.6719 12.4023 64.9902 13.1348 C 66.2598 13.8672 67.8223 13.4277 68.5059 12.207 Z M 38.0859 12.2559 L 42.8223 4.05273 C 43.6035 2.7832 43.1641 1.26953 41.8945 0.488281 C 40.5762 -0.244141 39.1113 0.195312 38.3301 1.46484 L 33.5938 9.76562 C 32.8613 10.9375 33.252 12.4512 34.5703 13.1836 C 35.8398 13.916 37.4023 13.4766 38.0859 12.2559 Z"/>
  </g>
  <g id="Light-S" transform="matrix(1 0 0 1 1103.18 696)">
   <path d="M 24.1699 -17.627 L 71.7773 -17.627 C 83.7891 -17.627 93.0664 -26.709 93.0664 -38.2812 C 93.0664 -50.0488 83.3984 -58.8379 70.5078 -58.7402 C 65.5762 -68.75 56.6895 -74.4141 46.0449 -74.4141 C 32.0312 -74.4141 20.2637 -63.2812 19.1895 -49.0234 C 11.6699 -47.0215 6.83594 -40.8203 6.83594 -33.3496 C 6.83594 -24.0234 13.8672 -17.627 24.1699 -17.627 Z M 55.2734 0.878906 L 60.4492 -8.10547 C 61.084 -9.22852 60.7422 -10.4004 59.7168 -11.0352 C 58.6914 -11.6211 57.5195 -11.2793 56.8848 -10.2051 L 51.6602 -1.12305 C 51.0742 -0.146484 51.3672 1.07422 52.3926 1.66016 C 53.418 2.24609 54.6875 1.9043 55.2734 0.878906 Z M 24.8535 0.878906 L 30.0293 -8.10547 C 30.6641 -9.17969 30.3223 -10.3516 29.2969 -10.9863 C 28.2715 -11.5723 27.0996 -11.2305 26.4648 -10.1562 L 21.2402 -1.12305 C 20.6543 -0.0976562 20.8984 1.12305 21.9727 1.70898 C 22.998 2.29492 24.2188 1.95312 24.8535 0.878906 Z M 67.2852 11.6211 L 72.4609 2.63672 C 73.0957 1.5625 72.7539 0.341797 71.7285 -0.244141 C 70.7031 -0.830078 69.5312 -0.537109 68.8965 0.585938 L 63.6719 9.61914 C 63.0859 10.6445 63.3789 11.8164 64.4043 12.4512 C 65.4297 13.0371 66.6504 12.6465 67.2852 11.6211 Z M 36.8164 11.6699 L 42.041 2.63672 C 42.6758 1.5625 42.334 0.390625 41.3086 -0.244141 C 40.2832 -0.830078 39.1113 -0.488281 38.4277 0.585938 L 33.252 9.66797 C 32.6172 10.6445 32.9102 11.8652 33.9844 12.4512 C 35.0098 13.0371 36.2305 12.6953 36.8164 11.6699 Z"/>
  </g>
  <g id="Thin-S" transform="matrix(1 0 0 1 806.935 696)">
   <path d="M 23.3887 -18.7988 L 71.3867 -18.7988 C 83.0566 -18.7988 92.1387 -27.5391 92.1387 -38.7207 C 92.1387 -50 82.666 -58.4473 70.1172 -58.3496 C 65.0879 -68.7988 56.4941 -74.4141 45.6543 -74.4141 C 32.0801 -74.4141 20.6055 -63.3301 19.5801 -49.0234 C 11.8164 -47.0215 6.83594 -41.0156 6.83594 -33.7402 C 6.83594 -24.9023 13.5742 -18.7988 23.3887 -18.7988 Z M 53.5156 0.146484 L 59.3262 -9.91211 C 59.8145 -10.6934 59.5703 -11.5234 58.8867 -11.9141 C 58.2031 -12.3047 57.4219 -12.0605 56.9336 -11.2793 L 51.123 -1.2207 C 50.6836 -0.439453 50.8789 0.341797 51.5625 0.78125 C 52.2461 1.17188 53.0762 0.927734 53.5156 0.146484 Z M 23.0469 0.146484 L 28.8574 -9.91211 C 29.3457 -10.6934 29.1504 -11.4746 28.418 -11.9141 C 27.7832 -12.3047 27.002 -12.0605 26.4648 -11.2793 L 20.6543 -1.2207 C 20.2148 -0.439453 20.4102 0.390625 21.0938 0.78125 C 21.8262 1.17188 22.6074 0.927734 23.0469 0.146484 Z M 65.625 10.8398 L 71.4355 0.830078 C 71.9238 0 71.6797 -0.78125 70.9961 -1.2207 C 70.3125 -1.5625 69.5312 -1.36719 69.043 -0.537109 L 63.2324 9.52148 C 62.793 10.3027 62.9395 11.084 63.6719 11.4746 C 64.3555 11.9141 65.1855 11.6211 65.625 10.8398 Z M 35.1562 10.8398 L 40.9668 0.830078 C 41.4551 0 41.2109 -0.78125 40.5273 -1.17188 C 39.8438 -1.5625 39.0625 -1.36719 38.5742 -0.537109 L 32.7637 9.52148 C 32.3242 10.3027 32.5195 11.084 33.2031 11.5234 C 33.8867 11.9141 34.7168 11.6699 35.1562 10.8398 Z"/>
  </g>
  <g id="Ultralight-S" transform="matrix(1 0 0 1 510.492 696)">
   <path d="M 22.998 -19.3848 L 71.1914 -19.3848 C 82.666 -19.3848 91.6016 -27.9785 91.6016 -38.916 C 91.6016 -49.9512 82.2754 -58.252 69.9219 -58.1543 C 64.8438 -68.8477 56.3965 -74.4141 45.459 -74.4141 C 32.0801 -74.4141 20.8008 -63.3301 19.7754 -49.0234 C 11.9141 -47.0703 6.83594 -41.1133 6.83594 -33.9355 C 6.83594 -25.3906 13.4277 -19.3848 22.998 -19.3848 Z M 52.5879 -0.244141 L 58.7402 -10.8398 C 59.1309 -11.4746 58.9844 -12.0605 58.4473 -12.4023 C 57.959 -12.6465 57.373 -12.5 56.9824 -11.8164 L 50.8301 -1.26953 C 50.4883 -0.585938 50.5859 0 51.123 0.292969 C 51.6602 0.634766 52.2461 0.390625 52.5879 -0.244141 Z M 22.1191 -0.244141 L 28.2715 -10.8398 C 28.6621 -11.4746 28.5156 -12.0605 27.9785 -12.4023 C 27.4902 -12.6465 26.9043 -12.5 26.5137 -11.8164 L 20.3613 -1.26953 C 20.0195 -0.585938 20.1172 0 20.6543 0.292969 C 21.1914 0.634766 21.7773 0.390625 22.1191 -0.244141 Z M 64.7461 10.4492 L 70.8984 -0.146484 C 71.2891 -0.78125 71.1426 -1.36719 70.6055 -1.70898 C 70.1172 -1.95312 69.5312 -1.80664 69.1406 -1.12305 L 62.9883 9.42383 C 62.6465 10.1074 62.7441 10.6934 63.2812 10.9863 C 63.8184 11.3281 64.4043 11.084 64.7461 10.4492 Z M 34.2773 10.4492 L 40.4297 -0.146484 C 40.8203 -0.78125 40.6738 -1.36719 40.1367 -1.70898 C 39.6484 -1.95312 39.0625 -1.80664 38.6719 -1.12305 L 32.5195 9.42383 C 32.1777 10.1074 32.2754 10.6934 32.8125 10.9863 C 33.3496 11.3281 33.9355 11.1328 34.2773 10.4492 Z"/>
  </g>
 </g>
</svg>
