<?xml version="1.0" encoding="UTF-8"?>
<!--Generator: Apple Native CoreSVG 148-->
<!DOCTYPE svg
PUBLIC "-//W3C//DTD SVG 1.1//EN"
       "http://www.w3.org/Graphics/SVG/1.1/DTD/svg11.dtd">
<svg version="1.1" xmlns="http://www.w3.org/2000/svg" xmlns:xlink="http://www.w3.org/1999/xlink" width="3300" height="2200">
 <!--glyph: "uni100A80.medium", point size: 100.000000, font version: "Version 16.0d11e1", template writer version: "8"-->
 <g id="Notes">
  <rect height="2200" id="artboard" style="fill:white;opacity:1" width="3300" x="0" y="0"/>
  <line id="" style="fill:none;stroke:black;opacity:1;stroke-width:0.5;" x1="263" x2="3036" y1="292" y2="292"/>
  <text style="stroke:none;fill:black;font-family:-apple-system,&quot;SF Pro Display&quot;,&quot;SF Pro Text&quot;,Helvetica,sans-serif;font-weight:bold;" transform="matrix(1 0 0 1 263 322)">Weight/Scale Variations</text>
  <text style="stroke:none;fill:black;font-family:-apple-system,&quot;SF Pro Display&quot;,&quot;SF Pro Text&quot;,Helvetica,sans-serif;text-anchor:middle;" transform="matrix(1 0 0 1 559.711 322)">Ultralight</text>
  <text style="stroke:none;fill:black;font-family:-apple-system,&quot;SF Pro Display&quot;,&quot;SF Pro Text&quot;,Helvetica,sans-serif;text-anchor:middle;" transform="matrix(1 0 0 1 856.422 322)">Thin</text>
  <text style="stroke:none;fill:black;font-family:-apple-system,&quot;SF Pro Display&quot;,&quot;SF Pro Text&quot;,Helvetica,sans-serif;text-anchor:middle;" transform="matrix(1 0 0 1 1153.13 322)">Light</text>
  <text style="stroke:none;fill:black;font-family:-apple-system,&quot;SF Pro Display&quot;,&quot;SF Pro Text&quot;,Helvetica,sans-serif;text-anchor:middle;" transform="matrix(1 0 0 1 1449.84 322)">Regular</text>
  <text style="stroke:none;fill:black;font-family:-apple-system,&quot;SF Pro Display&quot;,&quot;SF Pro Text&quot;,Helvetica,sans-serif;text-anchor:middle;" transform="matrix(1 0 0 1 1746.56 322)">Medium</text>
  <text style="stroke:none;fill:black;font-family:-apple-system,&quot;SF Pro Display&quot;,&quot;SF Pro Text&quot;,Helvetica,sans-serif;text-anchor:middle;" transform="matrix(1 0 0 1 2043.27 322)">Semibold</text>
  <text style="stroke:none;fill:black;font-family:-apple-system,&quot;SF Pro Display&quot;,&quot;SF Pro Text&quot;,Helvetica,sans-serif;text-anchor:middle;" transform="matrix(1 0 0 1 2339.98 322)">Bold</text>
  <text style="stroke:none;fill:black;font-family:-apple-system,&quot;SF Pro Display&quot;,&quot;SF Pro Text&quot;,Helvetica,sans-serif;text-anchor:middle;" transform="matrix(1 0 0 1 2636.69 322)">Heavy</text>
  <text style="stroke:none;fill:black;font-family:-apple-system,&quot;SF Pro Display&quot;,&quot;SF Pro Text&quot;,Helvetica,sans-serif;text-anchor:middle;" transform="matrix(1 0 0 1 2933.4 322)">Black</text>
  <line id="" style="fill:none;stroke:black;opacity:1;stroke-width:0.5;" x1="263" x2="3036" y1="1903" y2="1903"/>
  <g id="" transform="matrix(1 0 0 1 263 1933)">
   <path d="M 9.24805 0.830078 C 13.5547 0.830078 17.1387 -2.74414 17.1387 -7.05078 C 17.1387 -11.3574 13.5449 -14.9316 9.23828 -14.9316 C 4.94141 -14.9316 1.36719 -11.3574 1.36719 -7.05078 C 1.36719 -2.74414 4.95117 0.830078 9.24805 0.830078 Z M 9.24805 -0.654297 C 5.70312 -0.654297 2.87109 -3.49609 2.87109 -7.05078 C 2.87109 -10.6055 5.69336 -13.4473 9.23828 -13.4473 C 12.793 -13.4473 15.6348 -10.6055 15.6445 -7.05078 C 15.6543 -3.49609 12.8027 -0.654297 9.24805 -0.654297 Z M 9.22852 -3.62305 C 9.69727 -3.62305 9.9707 -3.93555 9.9707 -4.45312 L 9.9707 -6.31836 L 12.002 -6.31836 C 12.5 -6.31836 12.832 -6.57227 12.832 -7.04102 C 12.832 -7.51953 12.5195 -7.7832 12.002 -7.7832 L 9.9707 -7.7832 L 9.9707 -9.81445 C 9.9707 -10.332 9.69727 -10.6543 9.22852 -10.6543 C 8.75977 -10.6543 8.50586 -10.3125 8.50586 -9.81445 L 8.50586 -7.7832 L 6.49414 -7.7832 C 5.97656 -7.7832 5.64453 -7.51953 5.64453 -7.04102 C 5.64453 -6.57227 5.99609 -6.31836 6.49414 -6.31836 L 8.50586 -6.31836 L 8.50586 -4.45312 C 8.50586 -3.95508 8.75977 -3.62305 9.22852 -3.62305 Z"/>
  </g>
  <g id="" transform="matrix(1 0 0 1 281.506 1933)">
   <path d="M 11.709 2.91016 C 17.1582 2.91016 21.6699 -1.61133 21.6699 -7.05078 C 21.6699 -12.5 17.1484 -17.0117 11.6992 -17.0117 C 6.25977 -17.0117 1.74805 -12.5 1.74805 -7.05078 C 1.74805 -1.61133 6.26953 2.91016 11.709 2.91016 Z M 11.709 1.25 C 7.09961 1.25 3.41797 -2.44141 3.41797 -7.05078 C 3.41797 -11.6602 7.08984 -15.3516 11.6992 -15.3516 C 16.3086 -15.3516 20 -11.6602 20.0098 -7.05078 C 20.0195 -2.44141 16.3184 1.25 11.709 1.25 Z M 11.6797 -2.66602 C 12.207 -2.66602 12.5098 -3.01758 12.5098 -3.59375 L 12.5098 -6.23047 L 15.3223 -6.23047 C 15.8691 -6.23047 16.25 -6.51367 16.25 -7.03125 C 16.25 -7.55859 15.8887 -7.86133 15.3223 -7.86133 L 12.5098 -7.86133 L 12.5098 -10.6836 C 12.5098 -11.25 12.207 -11.6113 11.6797 -11.6113 C 11.1621 -11.6113 10.8789 -11.2305 10.8789 -10.6836 L 10.8789 -7.86133 L 8.07617 -7.86133 C 7.50977 -7.86133 7.13867 -7.55859 7.13867 -7.03125 C 7.13867 -6.51367 7.5293 -6.23047 8.07617 -6.23047 L 10.8789 -6.23047 L 10.8789 -3.59375 C 10.8789 -3.03711 11.1621 -2.66602 11.6797 -2.66602 Z"/>
  </g>
  <g id="" transform="matrix(1 0 0 1 304.924 1933)">
   <path d="M 14.9707 5.66406 C 21.9336 5.66406 27.6953 -0.0976562 27.6953 -7.05078 C 27.6953 -14.0137 21.9238 -19.7754 14.9609 -19.7754 C 8.00781 -19.7754 2.25586 -14.0137 2.25586 -7.05078 C 2.25586 -0.0976562 8.01758 5.66406 14.9707 5.66406 Z M 14.9707 3.84766 C 8.93555 3.84766 4.08203 -1.01562 4.08203 -7.05078 C 4.08203 -13.0957 8.92578 -17.9492 14.9609 -17.9492 C 21.0059 -17.9492 25.8594 -13.0957 25.8691 -7.05078 C 25.8789 -1.01562 21.0156 3.84766 14.9707 3.84766 Z M 14.9414 -1.38672 C 15.5176 -1.38672 15.8594 -1.77734 15.8594 -2.38281 L 15.8594 -6.13281 L 19.7754 -6.13281 C 20.3711 -6.13281 20.7812 -6.46484 20.7812 -7.02148 C 20.7812 -7.59766 20.3906 -7.93945 19.7754 -7.93945 L 15.8594 -7.93945 L 15.8594 -11.8652 C 15.8594 -12.4805 15.5176 -12.8711 14.9414 -12.8711 C 14.375 -12.8711 14.0527 -12.4609 14.0527 -11.8652 L 14.0527 -7.93945 L 10.1465 -7.93945 C 9.53125 -7.93945 9.13086 -7.59766 9.13086 -7.02148 C 9.13086 -6.46484 9.55078 -6.13281 10.1465 -6.13281 L 14.0527 -6.13281 L 14.0527 -2.38281 C 14.0527 -1.79688 14.375 -1.38672 14.9414 -1.38672 Z"/>
  </g>
  <text style="stroke:none;fill:black;font-family:-apple-system,&quot;SF Pro Display&quot;,&quot;SF Pro Text&quot;,Helvetica,sans-serif;font-weight:bold;" transform="matrix(1 0 0 1 263 1953)">Design Variations</text>
  <text style="stroke:none;fill:black;font-family:-apple-system,&quot;SF Pro Display&quot;,&quot;SF Pro Text&quot;,Helvetica,sans-serif;" transform="matrix(1 0 0 1 263 1971)">Symbols are supported in up to nine weights and three scales.</text>
  <text style="stroke:none;fill:black;font-family:-apple-system,&quot;SF Pro Display&quot;,&quot;SF Pro Text&quot;,Helvetica,sans-serif;" transform="matrix(1 0 0 1 263 1989)">For optimal layout with text and other symbols, vertically align</text>
  <text style="stroke:none;fill:black;font-family:-apple-system,&quot;SF Pro Display&quot;,&quot;SF Pro Text&quot;,Helvetica,sans-serif;" transform="matrix(1 0 0 1 263 2007)">symbols with the adjacent text.</text>
  <line id="" style="fill:none;stroke:#00AEEF;stroke-width:0.5;opacity:1.0;" x1="776" x2="776" y1="1919" y2="1933"/>
  <g id="" transform="matrix(1 0 0 1 776 1933)">
   <path d="M 3.31055 0.126953 C 3.82812 0.126953 4.08203 -0.0683594 4.26758 -0.605469 L 5.52734 -4.0625 L 11.2891 -4.0625 L 12.5488 -0.605469 C 12.7344 -0.0683594 12.9883 0.126953 13.4961 0.126953 C 14.0137 0.126953 14.3457 -0.185547 14.3457 -0.673828 C 14.3457 -0.839844 14.3164 -0.986328 14.2383 -1.20117 L 9.6582 -13.3887 C 9.43359 -13.9941 9.0332 -14.2871 8.4082 -14.2871 C 7.80273 -14.2871 7.39258 -13.9941 7.17773 -13.3984 L 2.59766 -1.19141 C 2.51953 -0.976562 2.49023 -0.830078 2.49023 -0.664062 C 2.49023 -0.175781 2.80273 0.126953 3.31055 0.126953 Z M 6.00586 -5.53711 L 8.37891 -12.1094 L 8.42773 -12.1094 L 10.8008 -5.53711 Z"/>
  </g>
  <line id="" style="fill:none;stroke:#00AEEF;stroke-width:0.5;opacity:1.0;" x1="792.836" x2="792.836" y1="1919" y2="1933"/>
  <text style="stroke:none;fill:black;font-family:-apple-system,&quot;SF Pro Display&quot;,&quot;SF Pro Text&quot;,Helvetica,sans-serif;font-weight:bold;" transform="matrix(1 0 0 1 776 1953)">Margins</text>
  <text style="stroke:none;fill:black;font-family:-apple-system,&quot;SF Pro Display&quot;,&quot;SF Pro Text&quot;,Helvetica,sans-serif;" transform="matrix(1 0 0 1 776 1971)">Leading and trailing margins on the left and right side of each symbol</text>
  <text style="stroke:none;fill:black;font-family:-apple-system,&quot;SF Pro Display&quot;,&quot;SF Pro Text&quot;,Helvetica,sans-serif;" transform="matrix(1 0 0 1 776 1989)">can be adjusted by modifying the x-location of the margin guidelines.</text>
  <text style="stroke:none;fill:black;font-family:-apple-system,&quot;SF Pro Display&quot;,&quot;SF Pro Text&quot;,Helvetica,sans-serif;" transform="matrix(1 0 0 1 776 2007)">Modifications are automatically applied proportionally to all</text>
  <text style="stroke:none;fill:black;font-family:-apple-system,&quot;SF Pro Display&quot;,&quot;SF Pro Text&quot;,Helvetica,sans-serif;" transform="matrix(1 0 0 1 776 2025)">scales and weights.</text>
  <g id="" transform="matrix(1 0 0 1 1289 1933)">
   <path d="M 2.8418 1.86523 L 4.54102 3.57422 C 5.40039 4.44336 6.38672 4.38477 7.31445 3.35938 L 17.4902 -7.85156 C 17.7539 -7.76367 18.0273 -7.7832 18.3398 -7.8418 L 19.4043 -8.03711 L 20.0684 -7.36328 L 20.0293 -6.80664 C 19.9902 -6.30859 20.1172 -5.92773 20.6055 -5.44922 L 21.3672 -4.70703 C 21.8457 -4.22852 22.4609 -4.19922 22.9297 -4.66797 L 25.8398 -7.58789 C 26.3086 -8.05664 26.2891 -8.65234 25.8105 -9.13086 L 25.0391 -9.89258 C 24.5605 -10.3711 24.1895 -10.5273 23.7109 -10.4883 L 23.1348 -10.4395 L 22.4902 -11.0742 L 22.7344 -12.1973 C 22.8613 -12.7637 22.7051 -13.2031 22.1191 -13.7891 L 19.9219 -15.9766 C 16.582 -19.2969 12.1484 -19.2188 9.25781 -16.3281 C 8.83789 -15.918 8.80859 -15.3418 9.04297 -14.9512 C 9.27734 -14.5898 9.73633 -14.3555 10.3809 -14.5215 C 11.8457 -14.8633 13.3691 -14.9219 14.7949 -13.9844 L 14.209 -12.5293 C 14.0137 -12.0508 13.9844 -11.6504 14.1113 -11.2891 L 3.04688 -0.898438 C 2.06055 0.0195312 1.98242 0.996094 2.8418 1.86523 Z M 10.752 -15.957 C 13.1836 -17.7344 16.4746 -17.4316 18.7012 -15.2051 L 21.1328 -12.793 C 21.3672 -12.5586 21.4062 -12.373 21.3379 -12.0312 L 21.0156 -10.5469 L 22.5195 -9.0625 L 23.5059 -9.12109 C 23.7598 -9.13086 23.8379 -9.11133 24.0332 -8.91602 L 24.6094 -8.33984 L 22.168 -5.89844 L 21.5918 -6.47461 C 21.3965 -6.66992 21.3672 -6.74805 21.377 -7.01172 L 21.4453 -7.98828 L 19.9512 -9.47266 L 18.4277 -9.21875 C 18.1055 -9.15039 17.959 -9.17969 17.7148 -9.41406 L 15.7129 -11.416 C 15.459 -11.6504 15.4297 -11.8164 15.5859 -12.1875 L 16.4648 -14.2773 C 14.9023 -15.7324 12.8711 -16.3574 10.8398 -15.7617 C 10.6836 -15.7227 10.625 -15.8496 10.752 -15.957 Z M 5.27344 2.30469 L 4.10156 1.14258 C 3.63281 0.683594 3.74023 0.341797 4.14062 -0.0195312 L 14.9512 -10.1953 L 16.416 -8.71094 L 6.42578 2.27539 C 6.07422 2.67578 5.74219 2.77344 5.27344 2.30469 Z"/>
  </g>
  <text style="stroke:none;fill:black;font-family:-apple-system,&quot;SF Pro Display&quot;,&quot;SF Pro Text&quot;,Helvetica,sans-serif;font-weight:bold;" transform="matrix(1 0 0 1 1289 1953)">Exporting</text>
  <text style="stroke:none;fill:black;font-family:-apple-system,&quot;SF Pro Display&quot;,&quot;SF Pro Text&quot;,Helvetica,sans-serif;" transform="matrix(1 0 0 1 1289 1971)">Symbols should be outlined when exporting to ensure the</text>
  <text style="stroke:none;fill:black;font-family:-apple-system,&quot;SF Pro Display&quot;,&quot;SF Pro Text&quot;,Helvetica,sans-serif;" transform="matrix(1 0 0 1 1289 1989)">design is preserved when submitting to Xcode.</text>
  <text id="template-version" style="stroke:none;fill:black;font-family:-apple-system,&quot;SF Pro Display&quot;,&quot;SF Pro Text&quot;,Helvetica,sans-serif;text-anchor:end;" transform="matrix(1 0 0 1 3036 1933)">Template v.2.0</text>
  <text style="stroke:none;fill:black;font-family:-apple-system,&quot;SF Pro Display&quot;,&quot;SF Pro Text&quot;,Helvetica,sans-serif;text-anchor:end;" transform="matrix(1 0 0 1 3036 1951)">Requires Xcode 12 or greater</text>
  <text style="stroke:none;fill:black;font-family:-apple-system,&quot;SF Pro Display&quot;,&quot;SF Pro Text&quot;,Helvetica,sans-serif;text-anchor:end;" transform="matrix(1 0 0 1 3036 1969)">Generated from command.circle.fill</text>
  <text style="stroke:none;fill:black;font-family:-apple-system,&quot;SF Pro Display&quot;,&quot;SF Pro Text&quot;,Helvetica,sans-serif;text-anchor:end;" transform="matrix(1 0 0 1 3036 1987)">Typeset at 100 points</text>
  <text style="stroke:none;fill:black;font-family:-apple-system,&quot;SF Pro Display&quot;,&quot;SF Pro Text&quot;,Helvetica,sans-serif;" transform="matrix(1 0 0 1 263 726)">Small</text>
  <text style="stroke:none;fill:black;font-family:-apple-system,&quot;SF Pro Display&quot;,&quot;SF Pro Text&quot;,Helvetica,sans-serif;" transform="matrix(1 0 0 1 263 1156)">Medium</text>
  <text style="stroke:none;fill:black;font-family:-apple-system,&quot;SF Pro Display&quot;,&quot;SF Pro Text&quot;,Helvetica,sans-serif;" transform="matrix(1 0 0 1 263 1586)">Large</text>
 </g>
 <g id="Guides">
  <g id="H-reference" style="fill:#27AAE1;stroke:none;" transform="matrix(1 0 0 1 339 696)">
   <path d="M 0.976562 0 L 3.66211 0 L 12.9883 -24.4629 L 45.7031 -24.4629 L 55.0781 0 L 57.7148 0 L 30.6152 -70.459 L 28.125 -70.459 Z M 29.2969 -67.1387 L 29.3945 -67.1387 L 44.873 -26.709 L 13.8672 -26.709 Z"/>
  </g>
  <line id="Baseline-S" style="fill:none;stroke:#27AAE1;opacity:1;stroke-width:0.5;" x1="263" x2="3036" y1="696" y2="696"/>
  <line id="Capline-S" style="fill:none;stroke:#27AAE1;opacity:1;stroke-width:0.5;" x1="263" x2="3036" y1="625.541" y2="625.541"/>
  <g id="H-reference" style="fill:#27AAE1;stroke:none;" transform="matrix(1 0 0 1 339 1126)">
   <path d="M 0.976562 0 L 3.66211 0 L 12.9883 -24.4629 L 45.7031 -24.4629 L 55.0781 0 L 57.7148 0 L 30.6152 -70.459 L 28.125 -70.459 Z M 29.2969 -67.1387 L 29.3945 -67.1387 L 44.873 -26.709 L 13.8672 -26.709 Z"/>
  </g>
  <line id="Baseline-M" style="fill:none;stroke:#27AAE1;opacity:1;stroke-width:0.5;" x1="263" x2="3036" y1="1126" y2="1126"/>
  <line id="Capline-M" style="fill:none;stroke:#27AAE1;opacity:1;stroke-width:0.5;" x1="263" x2="3036" y1="1055.54" y2="1055.54"/>
  <g id="H-reference" style="fill:#27AAE1;stroke:none;" transform="matrix(1 0 0 1 339 1556)">
   <path d="M 0.976562 0 L 3.66211 0 L 12.9883 -24.4629 L 45.7031 -24.4629 L 55.0781 0 L 57.7148 0 L 30.6152 -70.459 L 28.125 -70.459 Z M 29.2969 -67.1387 L 29.3945 -67.1387 L 44.873 -26.709 L 13.8672 -26.709 Z"/>
  </g>
  <line id="Baseline-L" style="fill:none;stroke:#27AAE1;opacity:1;stroke-width:0.5;" x1="263" x2="3036" y1="1556" y2="1556"/>
  <line id="Capline-L" style="fill:none;stroke:#27AAE1;opacity:1;stroke-width:0.5;" x1="263" x2="3036" y1="1485.54" y2="1485.54"/>
  <line id="left-margin" style="fill:none;stroke:#00AEEF;stroke-width:0.5;opacity:1.0;" x1="1391.3" x2="1391.3" y1="1030.79" y2="1150.12"/>
  <line id="right-margin" style="fill:none;stroke:#00AEEF;stroke-width:0.5;opacity:1.0;" x1="1508.39" x2="1508.39" y1="1030.79" y2="1150.12"/>
 </g>
 <g id="Symbols">
  <g id="Black-L" transform="matrix(1 0 0 1 2854.05 1556)">
   <path d="M 79.3457 32.9102 C 116.748 32.9102 147.412 2.29492 147.412 -35.1074 C 147.412 -72.5586 116.748 -103.174 79.2969 -103.174 C 41.8945 -103.174 11.2793 -72.5586 11.2793 -35.1074 C 11.2793 2.29492 41.9434 32.9102 79.3457 32.9102 Z M 63.916 -38.2324 L 60.9863 -38.2324 C 52.6855 -38.2324 45.9961 -44.9219 45.9961 -53.125 C 45.9961 -61.4258 52.6855 -68.1641 60.9863 -68.1641 C 69.1895 -68.1641 75.9766 -61.3281 75.9766 -53.125 L 75.9766 -50.3906 L 82.3242 -50.3906 L 82.3242 -53.125 C 82.3242 -61.3281 89.1113 -68.1641 97.3145 -68.1641 C 105.566 -68.1641 112.305 -61.4258 112.305 -53.125 C 112.305 -44.9219 105.566 -38.2324 97.3145 -38.2324 L 94.3848 -38.2324 L 94.3848 -31.9336 L 97.3145 -31.9336 C 105.566 -31.9336 112.305 -25.1953 112.305 -16.9922 C 112.305 -8.69141 105.566 -1.95312 97.3145 -1.95312 C 89.1113 -1.95312 82.3242 -8.83789 82.3242 -16.9922 L 82.3242 -19.7266 L 75.9766 -19.7266 L 75.9766 -16.9922 C 75.9766 -8.83789 69.1895 -1.95312 60.9863 -1.95312 C 52.6855 -1.95312 45.9961 -8.69141 45.9961 -16.9922 C 45.9961 -25.1953 52.6855 -31.9336 60.9863 -31.9336 L 63.916 -31.9336 Z M 61.4258 -49.6582 L 64.4043 -49.6582 L 64.4043 -52.6855 C 64.4043 -54.9316 62.9395 -56.6406 60.9863 -56.6406 C 59.082 -56.6406 57.5195 -55.0293 57.5195 -53.125 C 57.5195 -51.2207 59.1797 -49.6582 61.4258 -49.6582 Z M 96.8262 -49.6582 C 99.1211 -49.6582 100.781 -51.2207 100.781 -53.125 C 100.781 -55.0293 99.1699 -56.6406 97.3145 -56.6406 C 95.3613 -56.6406 93.8965 -54.9316 93.8965 -52.6855 L 93.8965 -49.6582 Z M 75.3906 -31.25 L 82.9102 -31.25 L 82.9102 -38.8672 L 75.3906 -38.8672 Z M 61.4258 -20.5078 C 59.2285 -20.5078 57.5195 -18.8965 57.5195 -17.041 C 57.5195 -15.0879 59.082 -13.5254 60.9863 -13.5254 C 62.9395 -13.5254 64.4043 -15.1855 64.4043 -17.4316 L 64.4043 -20.5078 Z M 96.8262 -20.5078 L 93.8965 -20.5078 L 93.8965 -17.4316 C 93.8965 -15.1855 95.3613 -13.5254 97.3145 -13.5254 C 99.2188 -13.5254 100.781 -15.0879 100.781 -17.041 C 100.781 -18.8965 99.0723 -20.5078 96.8262 -20.5078 Z"/>
  </g>
  <g id="Heavy-L" transform="matrix(1 0 0 1 2558.39 1556)">
   <path d="M 78.2715 31.8848 C 115.088 31.8848 145.312 1.66016 145.312 -35.1562 C 145.312 -71.9238 115.039 -102.148 78.2715 -102.148 C 41.4551 -102.148 11.2793 -71.9238 11.2793 -35.1562 C 11.2793 1.66016 41.5039 31.8848 78.2715 31.8848 Z M 63.0371 -39.0625 L 59.4727 -39.0625 C 51.416 -39.0625 44.873 -45.5566 44.873 -53.5645 C 44.873 -61.6699 51.416 -68.2129 59.4727 -68.2129 C 67.4805 -68.2129 74.0723 -61.5234 74.0723 -53.5645 L 74.0723 -50.1465 L 81.9824 -50.1465 L 81.9824 -53.5645 C 81.9824 -61.5234 88.623 -68.2129 96.582 -68.2129 C 104.639 -68.2129 111.182 -61.6699 111.182 -53.5645 C 111.182 -45.5566 104.639 -39.0625 96.582 -39.0625 L 93.0664 -39.0625 L 93.0664 -31.1035 L 96.582 -31.1035 C 104.639 -31.1035 111.182 -24.6094 111.182 -16.6016 C 111.182 -8.49609 104.639 -1.95312 96.582 -1.95312 C 88.623 -1.95312 81.9824 -8.64258 81.9824 -16.6016 L 81.9824 -20.0195 L 74.0723 -20.0195 L 74.0723 -16.6016 C 74.0723 -8.64258 67.4805 -1.95312 59.4727 -1.95312 C 51.416 -1.95312 44.873 -8.49609 44.873 -16.6016 C 44.873 -24.6094 51.416 -31.1035 59.4727 -31.1035 L 63.0371 -31.1035 Z M 59.8145 -49.5605 L 63.4277 -49.5605 L 63.4277 -53.2227 C 63.4277 -55.6641 61.6699 -57.5684 59.4727 -57.5684 C 57.3242 -57.5684 55.5176 -55.7617 55.5176 -53.5645 C 55.5176 -51.3672 57.373 -49.5605 59.8145 -49.5605 Z M 96.2402 -49.5605 C 98.6816 -49.5605 100.586 -51.3672 100.586 -53.5645 C 100.586 -55.7617 98.7793 -57.5684 96.582 -57.5684 C 94.3848 -57.5684 92.6758 -55.6641 92.6758 -53.2227 L 92.6758 -49.5605 Z M 73.6328 -30.6152 L 82.4707 -30.6152 L 82.4707 -39.5996 L 73.6328 -39.5996 Z M 59.8145 -20.6055 C 57.4219 -20.6055 55.5176 -18.7988 55.5176 -16.6504 C 55.5176 -14.4043 57.2754 -12.5977 59.4727 -12.5977 C 61.6699 -12.5977 63.4277 -14.502 63.4277 -16.9434 L 63.4277 -20.6055 Z M 96.2402 -20.6055 L 92.6758 -20.6055 L 92.6758 -16.9434 C 92.6758 -14.502 94.3848 -12.5977 96.582 -12.5977 C 98.7793 -12.5977 100.586 -14.4043 100.586 -16.6504 C 100.586 -18.7988 98.6816 -20.6055 96.2402 -20.6055 Z"/>
  </g>
  <g id="Bold-L" transform="matrix(1 0 0 1 2262.88 1556)">
   <path d="M 77.0996 30.6641 C 113.232 30.6641 142.92 0.927734 142.92 -35.1562 C 142.92 -71.2891 113.184 -100.977 77.0508 -100.977 C 40.9668 -100.977 11.2793 -71.2891 11.2793 -35.1562 C 11.2793 0.927734 41.0156 30.6641 77.0996 30.6641 Z M 62.0117 -39.9902 L 57.8125 -39.9902 C 50 -39.9902 43.6523 -46.3379 43.6523 -54.0527 C 43.6523 -61.9141 49.9512 -68.2129 57.8125 -68.2129 C 65.5273 -68.2129 71.9238 -61.8164 71.9238 -54.0527 L 71.9238 -49.9023 L 81.6406 -49.9023 L 81.6406 -54.0527 C 81.6406 -61.8164 88.0371 -68.2129 95.8008 -68.2129 C 103.613 -68.2129 109.961 -61.9141 109.961 -54.0527 C 109.961 -46.3379 103.613 -39.9902 95.8008 -39.9902 L 91.5527 -39.9902 L 91.5527 -30.2246 L 95.8008 -30.2246 C 103.613 -30.2246 109.961 -23.9258 109.961 -16.1621 C 109.961 -8.30078 103.613 -2.00195 95.8008 -2.00195 C 88.0371 -2.00195 81.6406 -8.39844 81.6406 -16.1621 L 81.6406 -20.3613 L 71.9238 -20.3613 L 71.9238 -16.1621 C 71.9238 -8.39844 65.5273 -2.00195 57.8125 -2.00195 C 49.9512 -2.00195 43.6523 -8.30078 43.6523 -16.1621 C 43.6523 -23.9258 50 -30.2246 57.8125 -30.2246 L 62.0117 -30.2246 Z M 58.0078 -49.5117 L 62.3047 -49.5117 L 62.3047 -53.8574 C 62.3047 -56.4941 60.3027 -58.6426 57.8125 -58.6426 C 55.3223 -58.6426 53.2227 -56.543 53.2227 -54.0527 C 53.2227 -51.5625 55.3223 -49.5117 58.0078 -49.5117 Z M 95.5566 -49.5117 C 98.2422 -49.5117 100.342 -51.5625 100.342 -54.0527 C 100.342 -56.543 98.291 -58.6426 95.8008 -58.6426 C 93.3105 -58.6426 91.3086 -56.4941 91.3086 -53.8574 L 91.3086 -49.5117 Z M 71.6309 -29.8828 L 81.9336 -29.8828 L 81.9336 -40.3809 L 71.6309 -40.3809 Z M 58.0078 -20.752 C 55.3711 -20.752 53.2227 -18.7012 53.2227 -16.2109 C 53.2227 -13.6719 55.2734 -11.6211 57.8125 -11.6211 C 60.3027 -11.6211 62.3047 -13.7207 62.3047 -16.4062 L 62.3047 -20.752 Z M 95.5566 -20.752 L 91.3086 -20.752 L 91.3086 -16.4062 C 91.3086 -13.7207 93.3105 -11.6211 95.8008 -11.6211 C 98.291 -11.6211 100.342 -13.6719 100.342 -16.2109 C 100.342 -18.7012 98.1934 -20.752 95.5566 -20.752 Z"/>
  </g>
  <g id="Semibold-L" transform="matrix(1 0 0 1 1966.97 1556)">
   <path d="M 76.2695 29.834 C 111.914 29.834 141.309 0.439453 141.309 -35.1562 C 141.309 -70.8008 111.865 -100.195 76.2695 -100.195 C 40.625 -100.195 11.2793 -70.8008 11.2793 -35.1562 C 11.2793 0.439453 40.6738 29.834 76.2695 29.834 Z M 61.377 -40.6738 L 56.6406 -40.6738 C 49.0234 -40.6738 42.7734 -46.8262 42.7734 -54.3945 C 42.7734 -62.0605 48.9746 -68.2617 56.6406 -68.2617 C 64.209 -68.2617 70.459 -62.0117 70.459 -54.3945 L 70.459 -49.707 L 81.4453 -49.707 L 81.4453 -54.3945 C 81.4453 -62.0117 87.6465 -68.2617 95.2637 -68.2617 C 102.881 -68.2617 109.082 -62.0605 109.082 -54.3945 C 109.082 -46.8262 102.881 -40.6738 95.2637 -40.6738 L 90.5273 -40.6738 L 90.5273 -29.5898 L 95.2637 -29.5898 C 102.881 -29.5898 109.082 -23.4375 109.082 -15.8691 C 109.082 -8.20312 102.881 -2.00195 95.2637 -2.00195 C 87.6465 -2.00195 81.4453 -8.25195 81.4453 -15.8691 L 81.4453 -20.5566 L 70.459 -20.5566 L 70.459 -15.8691 C 70.459 -8.25195 64.209 -2.00195 56.6406 -2.00195 C 48.9746 -2.00195 42.7734 -8.20312 42.7734 -15.8691 C 42.7734 -23.4375 49.0234 -29.5898 56.6406 -29.5898 L 61.377 -29.5898 Z M 56.7871 -49.4629 L 61.5234 -49.4629 L 61.5234 -54.248 C 61.5234 -57.0312 59.3262 -59.375 56.6406 -59.375 C 53.9551 -59.375 51.6602 -57.1289 51.6602 -54.3945 C 51.6602 -51.6602 53.9551 -49.4629 56.7871 -49.4629 Z M 95.1172 -49.4629 C 97.9492 -49.4629 100.195 -51.6602 100.195 -54.3945 C 100.195 -57.1289 97.9492 -59.375 95.2637 -59.375 C 92.5781 -59.375 90.332 -57.0312 90.332 -54.248 L 90.332 -49.4629 Z M 70.2637 -29.3457 L 81.5918 -29.3457 L 81.5918 -40.918 L 70.2637 -40.918 Z M 56.7871 -20.8496 C 53.9551 -20.8496 51.6602 -18.6035 51.6602 -15.918 C 51.6602 -13.1348 53.9062 -10.9375 56.6406 -10.9375 C 59.3262 -10.9375 61.5234 -13.2324 61.5234 -16.0156 L 61.5234 -20.8496 Z M 95.1172 -20.8496 L 90.332 -20.8496 L 90.332 -16.0156 C 90.332 -13.2324 92.5781 -10.9375 95.2637 -10.9375 C 97.998 -10.9375 100.195 -13.1348 100.195 -15.918 C 100.195 -18.6035 97.9004 -20.8496 95.1172 -20.8496 Z"/>
  </g>
  <g id="Medium-L" transform="matrix(1 0 0 1 1670.87 1556)">
   <path d="M 75.6836 29.1992 C 110.938 29.1992 140.088 0.0976562 140.088 -35.1562 C 140.088 -70.459 110.889 -99.5605 75.6348 -99.5605 C 40.3809 -99.5605 11.2793 -70.459 11.2793 -35.1562 C 11.2793 0.0976562 40.3809 29.1992 75.6836 29.1992 Z M 60.8398 -41.1621 L 55.7617 -41.1621 C 48.2422 -41.1621 42.1387 -47.2168 42.1387 -54.6875 C 42.1387 -62.207 48.2422 -68.2617 55.7617 -68.2617 C 63.2324 -68.2617 69.3359 -62.1094 69.3359 -54.6875 L 69.3359 -49.5605 L 81.25 -49.5605 L 81.25 -54.6875 C 81.25 -62.1094 87.3535 -68.2617 94.8242 -68.2617 C 102.344 -68.2617 108.447 -62.207 108.447 -54.6875 C 108.447 -47.2168 102.344 -41.1621 94.8242 -41.1621 L 89.7461 -41.1621 L 89.7461 -29.1504 L 94.8242 -29.1504 C 102.344 -29.1504 108.447 -23.0957 108.447 -15.625 C 108.447 -8.10547 102.344 -2.00195 94.8242 -2.00195 C 87.3535 -2.00195 81.25 -8.1543 81.25 -15.625 L 81.25 -20.7031 L 69.3359 -20.7031 L 69.3359 -15.625 C 69.3359 -8.1543 63.2324 -2.00195 55.7617 -2.00195 C 48.2422 -2.00195 42.1387 -8.10547 42.1387 -15.625 C 42.1387 -23.0957 48.2422 -29.1504 55.7617 -29.1504 L 60.8398 -29.1504 Z M 55.8105 -49.4141 L 60.9375 -49.4141 L 60.9375 -54.5898 C 60.9375 -57.4707 58.5938 -59.9121 55.7617 -59.9121 C 52.8809 -59.9121 50.4883 -57.5195 50.4883 -54.6875 C 50.4883 -51.7578 52.8809 -49.4141 55.8105 -49.4141 Z M 94.7266 -49.4141 C 97.7051 -49.4141 100.098 -51.7578 100.098 -54.6875 C 100.098 -57.5195 97.7051 -59.9121 94.8242 -59.9121 C 91.9922 -59.9121 89.6484 -57.4707 89.6484 -54.5898 L 89.6484 -49.4141 Z M 69.2383 -28.9551 L 81.3477 -28.9551 L 81.3477 -41.3086 L 69.2383 -41.3086 Z M 55.8105 -20.9473 C 52.9297 -20.9473 50.4883 -18.5059 50.4883 -15.6738 C 50.4883 -12.7441 52.832 -10.4004 55.7617 -10.4004 C 58.5938 -10.4004 60.9375 -12.793 60.9375 -15.7227 L 60.9375 -20.9473 Z M 94.7266 -20.9473 L 89.6484 -20.9473 L 89.6484 -15.7227 C 89.6484 -12.793 91.9922 -10.4004 94.8242 -10.4004 C 97.7051 -10.4004 100.098 -12.7441 100.098 -15.6738 C 100.098 -18.5059 97.6562 -20.9473 94.7266 -20.9473 Z"/>
  </g>
  <g id="Regular-L" transform="matrix(1 0 0 1 1374.97 1556)">
   <path d="M 74.8535 28.418 C 109.668 28.418 138.477 -0.390625 138.477 -35.2051 C 138.477 -69.9707 109.619 -98.7793 74.8047 -98.7793 C 40.0391 -98.7793 11.2793 -69.9707 11.2793 -35.2051 C 11.2793 -0.390625 40.0879 28.418 74.8535 28.418 Z M 60.1562 -41.7969 L 54.5898 -41.7969 C 47.2656 -41.7969 41.3086 -47.7051 41.3086 -54.9805 C 41.3086 -62.3535 47.2656 -68.3105 54.5898 -68.3105 C 61.9141 -68.3105 67.8711 -62.3047 67.8711 -54.9805 L 67.8711 -49.4141 L 81.0059 -49.4141 L 81.0059 -54.9805 C 81.0059 -62.3047 86.9629 -68.3105 94.2871 -68.3105 C 101.66 -68.3105 107.568 -62.3535 107.568 -54.9805 C 107.568 -47.7051 101.611 -41.7969 94.2871 -41.7969 L 88.7207 -41.7969 L 88.7207 -28.5156 L 94.2871 -28.5156 C 101.611 -28.5156 107.568 -22.6074 107.568 -15.332 C 107.568 -7.95898 101.66 -2.05078 94.2871 -2.05078 C 86.9629 -2.05078 81.0059 -8.00781 81.0059 -15.332 L 81.0059 -20.9473 L 67.8711 -20.9473 L 67.8711 -15.332 C 67.8711 -8.00781 61.9141 -2.05078 54.5898 -2.05078 C 47.2656 -2.05078 41.3086 -7.95898 41.3086 -15.332 C 41.3086 -22.6074 47.2656 -28.5156 54.5898 -28.5156 L 60.1562 -28.5156 Z M 54.5898 -49.3652 L 60.1562 -49.3652 L 60.1562 -54.9805 C 60.1562 -58.0566 57.666 -60.6445 54.5898 -60.6445 C 51.5137 -60.6445 48.9746 -58.0566 48.9746 -54.9805 C 48.9746 -51.9043 51.4648 -49.3652 54.5898 -49.3652 Z M 94.2871 -49.3652 C 97.4121 -49.3652 99.9512 -51.9043 99.9512 -54.9805 C 99.9512 -58.0566 97.3633 -60.6445 94.2871 -60.6445 C 91.2598 -60.6445 88.7207 -58.0566 88.7207 -54.9805 L 88.7207 -49.3652 Z M 67.8711 -28.4668 L 81.0059 -28.4668 L 81.0059 -41.8457 L 67.8711 -41.8457 Z M 54.5898 -21.0449 C 51.5137 -21.0449 48.9746 -18.457 48.9746 -15.3809 C 48.9746 -12.2559 51.4648 -9.7168 54.5898 -9.7168 C 57.666 -9.7168 60.1562 -12.3047 60.1562 -15.3809 L 60.1562 -21.0449 Z M 94.2871 -21.0449 L 88.7207 -21.0449 L 88.7207 -15.3809 C 88.7207 -12.3047 91.2598 -9.7168 94.2871 -9.7168 C 97.4121 -9.7168 99.9512 -12.2559 99.9512 -15.3809 C 99.9512 -18.457 97.3633 -21.0449 94.2871 -21.0449 Z"/>
  </g>
  <g id="Light-L" transform="matrix(1 0 0 1 1079.18 1556)">
   <path d="M 73.9258 27.4902 C 108.301 27.4902 136.621 -0.830078 136.621 -35.2051 C 136.621 -69.5312 108.252 -97.8516 73.9258 -97.8516 C 39.5508 -97.8516 11.2793 -69.5312 11.2793 -35.2051 C 11.2793 -0.830078 39.5996 27.4902 73.9258 27.4902 Z M 60.0586 -42.7246 L 53.5645 -42.7246 C 46.6797 -42.7246 41.0156 -48.3887 41.0156 -55.2734 C 41.0156 -62.207 46.6309 -67.8711 53.5645 -67.8711 C 60.498 -67.8711 66.1133 -62.207 66.1133 -55.2734 L 66.1133 -48.7305 L 81.2012 -48.7305 L 81.2012 -55.2734 C 81.2012 -62.207 86.8652 -67.8711 93.75 -67.8711 C 100.732 -67.8711 106.348 -62.207 106.348 -55.2734 C 106.348 -48.3887 100.684 -42.7246 93.75 -42.7246 L 87.2559 -42.7246 L 87.2559 -27.6367 L 93.75 -27.6367 C 100.684 -27.6367 106.348 -21.9727 106.348 -15.0879 C 106.348 -8.1543 100.732 -2.49023 93.75 -2.49023 C 86.8652 -2.49023 81.2012 -8.1543 81.2012 -15.0879 L 81.2012 -21.6309 L 66.1133 -21.6309 L 66.1133 -15.0879 C 66.1133 -8.1543 60.498 -2.49023 53.5645 -2.49023 C 46.6309 -2.49023 41.0156 -8.1543 41.0156 -15.0879 C 41.0156 -21.9727 46.6797 -27.6367 53.5645 -27.6367 L 60.0586 -27.6367 Z M 53.5645 -48.6816 L 60.0586 -48.6816 L 60.0586 -55.2734 C 60.0586 -58.8379 57.1289 -61.8164 53.5645 -61.8164 C 50 -61.8164 47.0215 -58.8867 47.0215 -55.2734 C 47.0215 -51.6113 49.9512 -48.6816 53.5645 -48.6816 Z M 93.75 -48.6816 C 97.4121 -48.6816 100.342 -51.6113 100.342 -55.2734 C 100.342 -58.8867 97.3633 -61.8164 93.75 -61.8164 C 90.1855 -61.8164 87.2559 -58.8379 87.2559 -55.2734 L 87.2559 -48.6816 Z M 66.1133 -27.5879 L 81.2012 -27.5879 L 81.2012 -42.7734 L 66.1133 -42.7734 Z M 53.5645 -21.6797 C 50 -21.6797 47.0215 -18.7012 47.0215 -15.1367 C 47.0215 -11.4746 49.9512 -8.54492 53.5645 -8.54492 C 57.1289 -8.54492 60.0586 -11.5234 60.0586 -15.1367 L 60.0586 -21.6797 Z M 93.75 -21.6797 L 87.2559 -21.6797 L 87.2559 -15.1367 C 87.2559 -11.5234 90.1855 -8.54492 93.75 -8.54492 C 97.4121 -8.54492 100.342 -11.4746 100.342 -15.1367 C 100.342 -18.7012 97.3633 -21.6797 93.75 -21.6797 Z"/>
  </g>
  <g id="Thin-L" transform="matrix(1 0 0 1 783.693 1556)">
   <path d="M 72.7051 26.2695 C 106.494 26.2695 134.18 -1.41602 134.18 -35.2051 C 134.18 -68.9453 106.494 -96.6309 72.7051 -96.6309 C 38.9648 -96.6309 11.2793 -68.9453 11.2793 -35.2051 C 11.2793 -1.41602 38.9648 26.2695 72.7051 26.2695 Z M 59.9609 -43.9453 L 52.2461 -43.9453 C 45.8984 -43.9453 40.5762 -49.2676 40.5762 -55.6152 C 40.5762 -62.0117 45.8496 -67.2852 52.2461 -67.2852 C 58.6426 -67.2852 63.8184 -62.0117 63.8184 -55.6152 L 63.8184 -47.8027 L 81.4941 -47.8027 L 81.4941 -55.6152 C 81.4941 -62.0117 86.6699 -67.2852 93.0664 -67.2852 C 99.5117 -67.2852 104.736 -62.0117 104.736 -55.6152 C 104.736 -49.2676 99.4141 -43.9453 93.0664 -43.9453 L 85.3516 -43.9453 L 85.3516 -26.416 L 93.0664 -26.416 C 99.4141 -26.416 104.736 -21.0938 104.736 -14.7461 C 104.736 -8.34961 99.5117 -3.125 93.0664 -3.125 C 86.6699 -3.125 81.4941 -8.34961 81.4941 -14.7461 L 81.4941 -22.5586 L 63.8184 -22.5586 L 63.8184 -14.7461 C 63.8184 -8.34961 58.6426 -3.125 52.2461 -3.125 C 45.8496 -3.125 40.5762 -8.34961 40.5762 -14.7461 C 40.5762 -21.0938 45.8984 -26.416 52.2461 -26.416 L 59.9609 -26.416 Z M 52.2461 -47.8027 L 59.9609 -47.8027 L 59.9609 -55.6152 C 59.9609 -59.8633 56.4941 -63.4277 52.2461 -63.4277 C 47.9492 -63.4277 44.4336 -59.9121 44.4336 -55.6152 C 44.4336 -51.2695 47.9004 -47.8027 52.2461 -47.8027 Z M 93.0664 -47.8027 C 97.4121 -47.8027 100.879 -51.2695 100.879 -55.6152 C 100.879 -59.9121 97.4121 -63.4277 93.0664 -63.4277 C 88.8184 -63.4277 85.3516 -59.8633 85.3516 -55.6152 L 85.3516 -47.8027 Z M 63.8184 -26.416 L 81.4941 -26.416 L 81.4941 -43.9453 L 63.8184 -43.9453 Z M 52.2461 -22.5586 C 47.9492 -22.5586 44.4336 -19.0918 44.4336 -14.7949 C 44.4336 -10.4492 47.9004 -6.98242 52.2461 -6.98242 C 56.4941 -6.98242 59.9609 -10.5469 59.9609 -14.7949 L 59.9609 -22.5586 Z M 93.0664 -22.5586 L 85.3516 -22.5586 L 85.3516 -14.7949 C 85.3516 -10.5469 88.8184 -6.98242 93.0664 -6.98242 C 97.4121 -6.98242 100.879 -10.4492 100.879 -14.7949 C 100.879 -19.0918 97.4121 -22.5586 93.0664 -22.5586 Z"/>
  </g>
  <g id="Ultralight-L" transform="matrix(1 0 0 1 487.616 1556)">
   <path d="M 72.1191 25.6348 C 105.566 25.6348 132.91 -1.70898 132.91 -35.2051 C 132.91 -68.6523 105.566 -95.9961 72.1191 -95.9961 C 38.623 -95.9961 11.2793 -68.6523 11.2793 -35.2051 C 11.2793 -1.70898 38.623 25.6348 72.1191 25.6348 Z M 59.9121 -44.5801 L 51.5625 -44.5801 C 45.5078 -44.5801 40.3809 -49.707 40.3809 -55.7617 C 40.3809 -61.9141 45.4102 -66.9922 51.5625 -66.9922 C 57.7148 -66.9922 62.6465 -61.9141 62.6465 -55.7617 L 62.6465 -47.3633 L 81.6406 -47.3633 L 81.6406 -55.7617 C 81.6406 -61.9141 86.5723 -66.9922 92.7246 -66.9922 C 98.877 -66.9922 103.906 -61.9141 103.906 -55.7617 C 103.906 -49.707 98.7793 -44.5801 92.7246 -44.5801 L 84.375 -44.5801 L 84.375 -25.7812 L 92.7246 -25.7812 C 98.7793 -25.7812 103.906 -20.6543 103.906 -14.5996 C 103.906 -8.44727 98.877 -3.41797 92.7246 -3.41797 C 86.5723 -3.41797 81.6406 -8.44727 81.6406 -14.5996 L 81.6406 -23.0469 L 62.6465 -23.0469 L 62.6465 -14.5996 C 62.6465 -8.44727 57.7148 -3.41797 51.5625 -3.41797 C 45.4102 -3.41797 40.3809 -8.44727 40.3809 -14.5996 C 40.3809 -20.6543 45.5078 -25.7812 51.5625 -25.7812 L 59.9121 -25.7812 Z M 51.5625 -47.3633 L 59.9121 -47.3633 L 59.9121 -55.7617 C 59.9121 -60.3516 56.1523 -64.209 51.5625 -64.209 C 46.875 -64.209 43.1152 -60.4492 43.1152 -55.7617 C 43.1152 -51.123 46.875 -47.3633 51.5625 -47.3633 Z M 92.7246 -47.3633 C 97.4121 -47.3633 101.172 -51.123 101.172 -55.7617 C 101.172 -60.4492 97.4121 -64.209 92.7246 -64.209 C 88.1348 -64.209 84.375 -60.3516 84.375 -55.7617 L 84.375 -47.3633 Z M 62.6465 -25.8301 L 81.6406 -25.8301 L 81.6406 -44.5801 L 62.6465 -44.5801 Z M 51.5625 -22.998 C 46.875 -22.998 43.1152 -19.2871 43.1152 -14.5996 C 43.1152 -9.91211 46.875 -6.15234 51.5625 -6.15234 C 56.1523 -6.15234 59.9121 -10.0098 59.9121 -14.5996 L 59.9121 -22.998 Z M 92.7246 -22.998 L 84.375 -22.998 L 84.375 -14.5996 C 84.375 -10.0098 88.1348 -6.15234 92.7246 -6.15234 C 97.4121 -6.15234 101.172 -9.91211 101.172 -14.5996 C 101.172 -19.2871 97.4121 -22.998 92.7246 -22.998 Z"/>
  </g>
  <g id="Black-M" transform="matrix(1 0 0 1 2870.97 1126)">
   <path d="M 62.4023 18.5547 C 91.9922 18.5547 116.113 -5.56641 116.113 -35.1562 C 116.113 -64.7461 91.9922 -88.8184 62.4023 -88.8184 C 32.8125 -88.8184 8.74023 -64.7461 8.74023 -35.1562 C 8.74023 -5.56641 32.8125 18.5547 62.4023 18.5547 Z M 50.6348 -36.9141 L 48.7305 -36.9141 C 42.2852 -36.9141 36.9629 -42.1875 36.9629 -48.6328 C 36.9629 -55.1758 42.2852 -60.498 48.7305 -60.498 C 55.1758 -60.498 60.5469 -55.0293 60.5469 -48.6328 L 60.5469 -46.9238 L 64.3066 -46.9238 L 64.3066 -48.6328 C 64.3066 -55.0293 69.6777 -60.498 76.123 -60.498 C 82.6172 -60.498 87.8906 -55.1758 87.8906 -48.6328 C 87.8906 -42.1875 82.6172 -36.9141 76.123 -36.9141 L 74.2188 -36.9141 L 74.2188 -33.252 L 76.123 -33.252 C 82.6172 -33.252 87.8906 -27.9297 87.8906 -21.5332 C 87.8906 -14.9902 82.6172 -9.66797 76.123 -9.66797 C 69.6777 -9.66797 64.3066 -15.0879 64.3066 -21.5332 L 64.3066 -23.2422 L 60.5469 -23.2422 L 60.5469 -21.5332 C 60.5469 -15.0879 55.1758 -9.66797 48.7305 -9.66797 C 42.2852 -9.66797 36.9629 -14.9902 36.9629 -21.5332 C 36.9629 -27.9297 42.2852 -33.252 48.7305 -33.252 L 50.6348 -33.252 Z M 49.2676 -46.1426 L 51.2207 -46.1426 L 51.2207 -48.1934 C 51.2207 -49.9023 50.1953 -51.1719 48.7305 -51.1719 C 47.4121 -51.1719 46.2891 -50.0488 46.2891 -48.6328 C 46.2891 -47.2656 47.5098 -46.1426 49.2676 -46.1426 Z M 75.5859 -46.1426 C 77.3438 -46.1426 78.5645 -47.2656 78.5645 -48.6328 C 78.5645 -50.0488 77.4902 -51.1719 76.123 -51.1719 C 74.6582 -51.1719 73.6328 -49.9023 73.6328 -48.1934 L 73.6328 -46.1426 Z M 59.9121 -32.5684 L 64.9414 -32.5684 L 64.9414 -37.5977 L 59.9121 -37.5977 Z M 49.2676 -23.9746 C 47.5098 -23.9746 46.2891 -22.9004 46.2891 -21.5332 C 46.2891 -20.1172 47.4121 -18.9941 48.7305 -18.9941 C 50.1953 -18.9941 51.2207 -20.2148 51.2207 -21.9727 L 51.2207 -23.9746 Z M 75.5859 -23.9746 L 73.6328 -23.9746 L 73.6328 -21.9727 C 73.6328 -20.2148 74.6582 -18.9941 76.123 -18.9941 C 77.4902 -18.9941 78.5645 -20.1172 78.5645 -21.5332 C 78.5645 -22.9004 77.3438 -23.9746 75.5859 -23.9746 Z"/>
  </g>
  <g id="Heavy-M" transform="matrix(1 0 0 1 2575.19 1126)">
   <path d="M 61.5234 17.627 C 90.5273 17.627 114.258 -6.10352 114.258 -35.1562 C 114.258 -64.1602 90.5273 -87.8906 61.4746 -87.8906 C 32.4707 -87.8906 8.74023 -64.1602 8.74023 -35.1562 C 8.74023 -6.10352 32.4707 17.627 61.5234 17.627 Z M 49.707 -37.5977 L 47.3633 -37.5977 C 41.0156 -37.5977 35.8398 -42.7246 35.8398 -49.0234 C 35.8398 -55.4688 41.0156 -60.6445 47.3633 -60.6445 C 53.6621 -60.6445 58.8867 -55.3223 58.8867 -49.0234 L 58.8867 -46.8262 L 63.916 -46.8262 L 63.916 -49.0234 C 63.916 -55.3223 69.1406 -60.6445 75.4395 -60.6445 C 81.8359 -60.6445 87.0117 -55.4688 87.0117 -49.0234 C 87.0117 -42.7246 81.8359 -37.5977 75.4395 -37.5977 L 73.0957 -37.5977 L 73.0957 -32.6172 L 75.4395 -32.6172 C 81.8359 -32.6172 87.0117 -27.4414 87.0117 -21.1426 C 87.0117 -14.7461 81.8359 -9.57031 75.4395 -9.57031 C 69.1406 -9.57031 63.916 -14.8438 63.916 -21.1426 L 63.916 -23.3398 L 58.8867 -23.3398 L 58.8867 -21.1426 C 58.8867 -14.8438 53.6621 -9.57031 47.3633 -9.57031 C 41.0156 -9.57031 35.8398 -14.7461 35.8398 -21.1426 C 35.8398 -27.4414 41.0156 -32.6172 47.3633 -32.6172 L 49.707 -32.6172 Z M 47.7539 -46.2402 L 50.1465 -46.2402 L 50.1465 -48.6816 C 50.1465 -50.5371 48.9258 -51.9043 47.3633 -51.9043 C 45.8496 -51.9043 44.5801 -50.6348 44.5801 -49.0234 C 44.5801 -47.5098 45.9473 -46.2402 47.7539 -46.2402 Z M 75.0488 -46.2402 C 76.9043 -46.2402 78.2715 -47.5098 78.2715 -49.0234 C 78.2715 -50.6348 77.002 -51.9043 75.4395 -51.9043 C 73.877 -51.9043 72.6562 -50.5371 72.6562 -48.6816 L 72.6562 -46.2402 Z M 58.3984 -32.0801 L 64.4043 -32.0801 L 64.4043 -38.1348 L 58.3984 -38.1348 Z M 47.7539 -23.9746 C 45.9473 -23.9746 44.5801 -22.7051 44.5801 -21.1426 C 44.5801 -19.5801 45.8496 -18.3105 47.3633 -18.3105 C 48.9258 -18.3105 50.1465 -19.6777 50.1465 -21.4844 L 50.1465 -23.9746 Z M 75.0488 -23.9746 L 72.6562 -23.9746 L 72.6562 -21.4844 C 72.6562 -19.6777 73.877 -18.3105 75.4395 -18.3105 C 77.002 -18.3105 78.2715 -19.5801 78.2715 -21.1426 C 78.2715 -22.7051 76.9043 -23.9746 75.0488 -23.9746 Z"/>
  </g>
  <g id="Bold-M" transform="matrix(1 0 0 1 2279.5 1126)">
   <path d="M 60.498 16.5527 C 88.8672 16.5527 112.207 -6.73828 112.207 -35.1562 C 112.207 -63.5742 88.8672 -86.9141 60.4492 -86.9141 C 32.0312 -86.9141 8.74023 -63.5742 8.74023 -35.1562 C 8.74023 -6.73828 32.0801 16.5527 60.498 16.5527 Z M 48.6816 -38.3301 L 45.8496 -38.3301 C 39.5996 -38.3301 34.5703 -43.3594 34.5703 -49.5117 C 34.5703 -55.7617 39.5996 -60.791 45.8496 -60.791 C 52.002 -60.791 57.0801 -55.6641 57.0801 -49.5117 L 57.0801 -46.7773 L 63.4766 -46.7773 L 63.4766 -49.5117 C 63.4766 -55.6641 68.6035 -60.791 74.7559 -60.791 C 80.957 -60.791 85.9863 -55.7617 85.9863 -49.5117 C 85.9863 -43.3594 80.957 -38.3301 74.7559 -38.3301 L 71.875 -38.3301 L 71.875 -31.8848 L 74.7559 -31.8848 C 80.957 -31.8848 85.9863 -26.8555 85.9863 -20.752 C 85.9863 -14.502 80.957 -9.47266 74.7559 -9.47266 C 68.6035 -9.47266 63.4766 -14.5508 63.4766 -20.752 L 63.4766 -23.4863 L 57.0801 -23.4863 L 57.0801 -20.752 C 57.0801 -14.5508 52.002 -9.47266 45.8496 -9.47266 C 39.5996 -9.47266 34.5703 -14.502 34.5703 -20.752 C 34.5703 -26.8555 39.5996 -31.8848 45.8496 -31.8848 L 48.6816 -31.8848 Z M 46.0938 -46.3379 L 48.9746 -46.3379 L 48.9746 -49.2676 C 48.9746 -51.1719 47.5586 -52.7344 45.8496 -52.7344 C 44.0918 -52.7344 42.6758 -51.2695 42.6758 -49.5117 C 42.6758 -47.7539 44.1406 -46.3379 46.0938 -46.3379 Z M 74.4629 -46.3379 C 76.416 -46.3379 77.8809 -47.7539 77.8809 -49.5117 C 77.8809 -51.2695 76.4648 -52.7344 74.7559 -52.7344 C 72.998 -52.7344 71.582 -51.1719 71.582 -49.2676 L 71.582 -46.3379 Z M 56.7383 -31.543 L 63.8184 -31.543 L 63.8184 -38.7207 L 56.7383 -38.7207 Z M 46.0938 -23.9258 C 44.1895 -23.9258 42.6758 -22.4609 42.6758 -20.752 C 42.6758 -18.9941 44.0918 -17.5781 45.8496 -17.5781 C 47.5586 -17.5781 48.9746 -19.043 48.9746 -20.9961 L 48.9746 -23.9258 Z M 74.4629 -23.9258 L 71.582 -23.9258 L 71.582 -20.9961 C 71.582 -19.043 72.998 -17.5781 74.7559 -17.5781 C 76.4648 -17.5781 77.8809 -18.9941 77.8809 -20.752 C 77.8809 -22.4609 76.416 -23.9258 74.4629 -23.9258 Z"/>
  </g>
  <g id="Semibold-M" transform="matrix(1 0 0 1 1983.5 1126)">
   <path d="M 59.7656 15.8691 C 87.7441 15.8691 110.791 -7.22656 110.791 -35.1562 C 110.791 -63.1348 87.6953 -86.2305 59.7656 -86.2305 C 31.7871 -86.2305 8.74023 -63.1348 8.74023 -35.1562 C 8.74023 -7.22656 31.7871 15.8691 59.7656 15.8691 Z M 47.9492 -38.8672 L 44.7754 -38.8672 C 38.6719 -38.8672 33.6914 -43.7988 33.6914 -49.8535 C 33.6914 -55.957 38.6719 -60.8887 44.7754 -60.8887 C 50.8301 -60.8887 55.8105 -55.9082 55.8105 -49.8535 L 55.8105 -46.6797 L 63.1836 -46.6797 L 63.1836 -49.8535 C 63.1836 -55.9082 68.1641 -60.8887 74.2188 -60.8887 C 80.3711 -60.8887 85.3027 -55.957 85.3027 -49.8535 C 85.3027 -43.7988 80.3223 -38.8672 74.2188 -38.8672 L 71.0449 -38.8672 L 71.0449 -31.3965 L 74.2188 -31.3965 C 80.3223 -31.3965 85.3027 -26.5137 85.3027 -20.459 C 85.3027 -14.3066 80.3711 -9.375 74.2188 -9.375 C 68.1641 -9.375 63.1836 -14.4043 63.1836 -20.459 L 63.1836 -23.584 L 55.8105 -23.584 L 55.8105 -20.459 C 55.8105 -14.4043 50.8301 -9.375 44.7754 -9.375 C 38.6719 -9.375 33.6914 -14.3066 33.6914 -20.459 C 33.6914 -26.5137 38.6719 -31.3965 44.7754 -31.3965 L 47.9492 -31.3965 Z M 44.9219 -46.4355 L 48.1445 -46.4355 L 48.1445 -49.707 C 48.1445 -51.6602 46.6309 -53.2715 44.7754 -53.2715 C 42.9199 -53.2715 41.3574 -51.709 41.3574 -49.8535 C 41.3574 -47.9492 42.9199 -46.4355 44.9219 -46.4355 Z M 74.0723 -46.4355 C 76.0742 -46.4355 77.6367 -47.9492 77.6367 -49.8535 C 77.6367 -51.709 76.0742 -53.2715 74.2188 -53.2715 C 72.3633 -53.2715 70.8496 -51.6602 70.8496 -49.707 L 70.8496 -46.4355 Z M 55.6152 -31.1523 L 63.3789 -31.1523 L 63.3789 -39.1113 L 55.6152 -39.1113 Z M 44.9219 -23.877 C 42.9688 -23.877 41.3574 -22.3145 41.3574 -20.459 C 41.3574 -18.5547 42.8711 -17.041 44.7754 -17.041 C 46.6309 -17.041 48.1445 -18.6035 48.1445 -20.6055 L 48.1445 -23.877 Z M 74.0723 -23.877 L 70.8496 -23.877 L 70.8496 -20.6055 C 70.8496 -18.6035 72.3633 -17.041 74.2188 -17.041 C 76.123 -17.041 77.6367 -18.5547 77.6367 -20.459 C 77.6367 -22.3145 76.0254 -23.877 74.0723 -23.877 Z"/>
  </g>
  <g id="Medium-M" transform="matrix(1 0 0 1 1687.3 1126)">
   <path d="M 59.2285 15.332 C 86.9141 15.332 109.766 -7.51953 109.766 -35.2051 C 109.766 -62.8418 86.8652 -85.6934 59.1797 -85.6934 C 31.543 -85.6934 8.74023 -62.8418 8.74023 -35.2051 C 8.74023 -7.51953 31.5918 15.332 59.2285 15.332 Z M 47.4121 -39.2578 L 43.9453 -39.2578 C 37.9395 -39.2578 33.0566 -44.0918 33.0566 -50.0977 C 33.0566 -56.1523 37.9395 -60.9863 43.9453 -60.9863 C 49.9512 -60.9863 54.834 -56.0547 54.834 -50.0977 L 54.834 -46.6797 L 62.9883 -46.6797 L 62.9883 -50.0977 C 62.9883 -56.0547 67.8711 -60.9863 73.877 -60.9863 C 79.8828 -60.9863 84.7656 -56.1523 84.7656 -50.0977 C 84.7656 -44.0918 79.8828 -39.2578 73.877 -39.2578 L 70.4102 -39.2578 L 70.4102 -31.0547 L 73.877 -31.0547 C 79.8828 -31.0547 84.7656 -26.2207 84.7656 -20.2148 C 84.7656 -14.1602 79.8828 -9.32617 73.877 -9.32617 C 67.8711 -9.32617 62.9883 -14.2578 62.9883 -20.2148 L 62.9883 -23.6328 L 54.834 -23.6328 L 54.834 -20.2148 C 54.834 -14.2578 49.9512 -9.32617 43.9453 -9.32617 C 37.9395 -9.32617 33.0566 -14.1602 33.0566 -20.2148 C 33.0566 -26.2207 37.9395 -31.0547 43.9453 -31.0547 L 47.4121 -31.0547 Z M 44.043 -46.4844 L 47.5098 -46.4844 L 47.5098 -50 C 47.5098 -52.002 45.8984 -53.7109 43.9453 -53.7109 C 41.9922 -53.7109 40.332 -52.0508 40.332 -50.0977 C 40.332 -48.0957 41.9922 -46.4844 44.043 -46.4844 Z M 73.7793 -46.4844 C 75.8301 -46.4844 77.4902 -48.0957 77.4902 -50.0977 C 77.4902 -52.0508 75.8301 -53.7109 73.877 -53.7109 C 71.9238 -53.7109 70.3125 -52.002 70.3125 -50 L 70.3125 -46.4844 Z M 54.7363 -30.8594 L 63.0859 -30.8594 L 63.0859 -39.4531 L 54.7363 -39.4531 Z M 44.043 -23.877 C 42.041 -23.877 40.332 -22.2168 40.332 -20.2637 C 40.332 -18.2617 41.9434 -16.6504 43.9453 -16.6504 C 45.8984 -16.6504 47.5098 -18.3105 47.5098 -20.3613 L 47.5098 -23.877 Z M 73.7793 -23.877 L 70.3125 -23.877 L 70.3125 -20.3613 C 70.3125 -18.3105 71.9238 -16.6504 73.877 -16.6504 C 75.8301 -16.6504 77.4902 -18.2617 77.4902 -20.2637 C 77.4902 -22.2168 75.7812 -23.877 73.7793 -23.877 Z"/>
  </g>
  <g id="Regular-M" transform="matrix(1 0 0 1 1391.3 1126)">
   <path d="M 58.5449 14.5996 C 85.791 14.5996 108.35 -7.95898 108.35 -35.2051 C 108.35 -62.4023 85.7422 -85.0098 58.4961 -85.0098 C 31.2988 -85.0098 8.74023 -62.4023 8.74023 -35.2051 C 8.74023 -7.95898 31.3477 14.5996 58.5449 14.5996 Z M 46.6797 -39.7949 L 42.9199 -39.7949 C 36.9629 -39.7949 32.1777 -44.5312 32.1777 -50.3906 C 32.1777 -56.3477 36.9629 -61.1328 42.9199 -61.1328 C 48.7793 -61.1328 53.6133 -56.2988 53.6133 -50.3906 L 53.6133 -46.582 L 62.6953 -46.582 L 62.6953 -50.3906 C 62.6953 -56.2988 67.4805 -61.1328 73.3887 -61.1328 C 79.2969 -61.1328 84.082 -56.3477 84.082 -50.3906 C 84.082 -44.5312 79.2969 -39.7949 73.3887 -39.7949 L 69.5801 -39.7949 L 69.5801 -30.5664 L 73.3887 -30.5664 C 79.2969 -30.5664 84.082 -25.8301 84.082 -19.9219 C 84.082 -14.0137 79.2969 -9.22852 73.3887 -9.22852 C 67.4805 -9.22852 62.6953 -14.0625 62.6953 -19.9219 L 62.6953 -23.7305 L 53.6133 -23.7305 L 53.6133 -19.9219 C 53.6133 -14.0625 48.7793 -9.22852 42.9199 -9.22852 C 36.9629 -9.22852 32.1777 -14.0137 32.1777 -19.9219 C 32.1777 -25.8301 36.9629 -30.5664 42.9199 -30.5664 L 46.6797 -30.5664 Z M 42.9199 -46.5332 L 46.6797 -46.5332 L 46.6797 -50.3906 C 46.6797 -52.4902 44.9707 -54.248 42.9199 -54.248 C 40.8203 -54.248 39.0625 -52.4902 39.0625 -50.3906 C 39.0625 -48.291 40.7715 -46.5332 42.9199 -46.5332 Z M 73.3887 -46.5332 C 75.4883 -46.5332 77.2461 -48.291 77.2461 -50.3906 C 77.2461 -52.4902 75.4395 -54.248 73.3887 -54.248 C 71.2891 -54.248 69.5801 -52.4902 69.5801 -50.3906 L 69.5801 -46.5332 Z M 53.6133 -30.5176 L 62.6953 -30.5176 L 62.6953 -39.8438 L 53.6133 -39.8438 Z M 42.9199 -23.8281 C 40.8203 -23.8281 39.0625 -22.0703 39.0625 -19.9707 C 39.0625 -17.8711 40.7715 -16.1133 42.9199 -16.1133 C 44.9707 -16.1133 46.6797 -17.8711 46.6797 -19.9707 L 46.6797 -23.8281 Z M 73.3887 -23.8281 L 69.5801 -23.8281 L 69.5801 -19.9707 C 69.5801 -17.8711 71.2891 -16.1133 73.3887 -16.1133 C 75.4883 -16.1133 77.2461 -17.8711 77.2461 -19.9707 C 77.2461 -22.0703 75.4395 -23.8281 73.3887 -23.8281 Z"/>
  </g>
  <g id="Light-M" transform="matrix(1 0 0 1 1095.42 1126)">
   <path d="M 57.7148 13.7695 C 84.5215 13.7695 106.689 -8.34961 106.689 -35.2051 C 106.689 -62.0117 84.5215 -84.1797 57.666 -84.1797 C 30.8594 -84.1797 8.74023 -62.0117 8.74023 -35.2051 C 8.74023 -8.34961 30.9082 13.7695 57.7148 13.7695 Z M 46.6309 -40.625 L 41.9922 -40.625 C 36.4258 -40.625 31.9336 -45.1172 31.9336 -50.6348 C 31.9336 -56.2012 36.4258 -60.6934 41.9922 -60.6934 C 47.5098 -60.6934 52.0508 -56.2012 52.0508 -50.6348 L 52.0508 -45.9961 L 62.8418 -45.9961 L 62.8418 -50.6348 C 62.8418 -56.2012 67.3828 -60.6934 72.9004 -60.6934 C 78.4668 -60.6934 82.959 -56.2012 82.959 -50.6348 C 82.959 -45.1172 78.4668 -40.625 72.9004 -40.625 L 68.2617 -40.625 L 68.2617 -29.7363 L 72.9004 -29.7363 C 78.4668 -29.7363 82.959 -25.2441 82.959 -19.7266 C 82.959 -14.1602 78.4668 -9.66797 72.9004 -9.66797 C 67.3828 -9.66797 62.8418 -14.209 62.8418 -19.7266 L 62.8418 -24.3652 L 52.0508 -24.3652 L 52.0508 -19.7266 C 52.0508 -14.209 47.5098 -9.66797 41.9922 -9.66797 C 36.4258 -9.66797 31.9336 -14.1602 31.9336 -19.7266 C 31.9336 -25.2441 36.4258 -29.7363 41.9922 -29.7363 L 46.6309 -29.7363 Z M 41.9922 -45.9473 L 46.6309 -45.9473 L 46.6309 -50.6348 C 46.6309 -53.1738 44.5312 -55.3223 41.9922 -55.3223 C 39.4531 -55.3223 37.3047 -53.1738 37.3047 -50.6348 C 37.3047 -48.0469 39.4043 -45.9473 41.9922 -45.9473 Z M 72.9004 -45.9473 C 75.4883 -45.9473 77.5879 -48.0469 77.5879 -50.6348 C 77.5879 -53.1738 75.4395 -55.3223 72.9004 -55.3223 C 70.3613 -55.3223 68.2617 -53.1738 68.2617 -50.6348 L 68.2617 -45.9473 Z M 52.0508 -29.6875 L 62.8418 -29.6875 L 62.8418 -40.6738 L 52.0508 -40.6738 Z M 41.9922 -24.4629 C 39.4531 -24.4629 37.3047 -22.3145 37.3047 -19.7754 C 37.3047 -17.1875 39.4043 -15.0879 41.9922 -15.0879 C 44.5312 -15.0879 46.6309 -17.1875 46.6309 -19.7754 L 46.6309 -24.4629 Z M 72.9004 -24.4629 L 68.2617 -24.4629 L 68.2617 -19.7754 C 68.2617 -17.1875 70.3613 -15.0879 72.9004 -15.0879 C 75.4883 -15.0879 77.5879 -17.1875 77.5879 -19.7754 C 77.5879 -22.3145 75.4395 -24.4629 72.9004 -24.4629 Z"/>
  </g>
  <g id="Thin-M" transform="matrix(1 0 0 1 799.806 1126)">
   <path d="M 56.6406 12.6953 C 82.9102 12.6953 104.492 -8.88672 104.492 -35.2051 C 104.492 -61.4746 82.9102 -83.0566 56.5918 -83.0566 C 30.3223 -83.0566 8.74023 -61.4746 8.74023 -35.2051 C 8.74023 -8.88672 30.3223 12.6953 56.6406 12.6953 Z M 46.4844 -41.748 L 40.7715 -41.748 C 35.7422 -41.748 31.543 -45.8984 31.543 -50.9277 C 31.543 -56.0547 35.6934 -60.2051 40.7715 -60.2051 C 45.8496 -60.2051 49.9512 -56.0059 49.9512 -50.9277 L 49.9512 -45.166 L 63.0859 -45.166 L 63.0859 -50.9277 C 63.0859 -56.0059 67.2363 -60.2051 72.3145 -60.2051 C 77.3926 -60.2051 81.543 -56.0547 81.543 -50.9277 C 81.543 -45.8984 77.3438 -41.748 72.3145 -41.748 L 66.5527 -41.748 L 66.5527 -28.6621 L 72.3145 -28.6621 C 77.3438 -28.6621 81.543 -24.4629 81.543 -19.4336 C 81.543 -14.3555 77.3926 -10.2051 72.3145 -10.2051 C 67.2363 -10.2051 63.0859 -14.3555 63.0859 -19.4336 L 63.0859 -25.1953 L 49.9512 -25.1953 L 49.9512 -19.4336 C 49.9512 -14.3555 45.8496 -10.2051 40.7715 -10.2051 C 35.6934 -10.2051 31.543 -14.3555 31.543 -19.4336 C 31.543 -24.4629 35.7422 -28.6621 40.7715 -28.6621 L 46.4844 -28.6621 Z M 40.7715 -45.166 L 46.4844 -45.166 L 46.4844 -50.9277 C 46.4844 -54.1016 43.9453 -56.7383 40.7715 -56.7383 C 37.5977 -56.7383 35.0098 -54.1504 35.0098 -50.9277 C 35.0098 -47.7539 37.5977 -45.166 40.7715 -45.166 Z M 72.3145 -45.166 C 75.4883 -45.166 78.0762 -47.7539 78.0762 -50.9277 C 78.0762 -54.1504 75.4883 -56.7383 72.3145 -56.7383 C 69.1406 -56.7383 66.5527 -54.1016 66.5527 -50.9277 L 66.5527 -45.166 Z M 49.9512 -28.6621 L 63.0859 -28.6621 L 63.0859 -41.748 L 49.9512 -41.748 Z M 40.7715 -25.2441 C 37.5977 -25.2441 35.0098 -22.6562 35.0098 -19.4336 C 35.0098 -16.2598 37.5977 -13.6719 40.7715 -13.6719 C 43.9453 -13.6719 46.4844 -16.3086 46.4844 -19.4336 L 46.4844 -25.2441 Z M 72.3145 -25.2441 L 66.5527 -25.2441 L 66.5527 -19.4336 C 66.5527 -16.3086 69.1406 -13.6719 72.3145 -13.6719 C 75.4883 -13.6719 78.0762 -16.2598 78.0762 -19.4336 C 78.0762 -22.6562 75.4883 -25.2441 72.3145 -25.2441 Z"/>
  </g>
  <g id="Ultralight-M" transform="matrix(1 0 0 1 503.656 1126)">
   <path d="M 56.0547 12.1094 C 82.0801 12.1094 103.369 -9.17969 103.369 -35.2051 C 103.369 -61.2305 82.0801 -82.5195 56.0547 -82.5195 C 30.0293 -82.5195 8.74023 -61.2305 8.74023 -35.2051 C 8.74023 -9.17969 30.0293 12.1094 56.0547 12.1094 Z M 46.4355 -42.2852 L 40.1855 -42.2852 C 35.4004 -42.2852 31.3477 -46.3379 31.3477 -51.123 C 31.3477 -55.957 35.3027 -59.9121 40.1855 -59.9121 C 45.0195 -59.9121 48.9258 -55.957 48.9258 -51.123 L 48.9258 -44.7754 L 63.2324 -44.7754 L 63.2324 -51.123 C 63.2324 -55.957 67.1387 -59.9121 71.9727 -59.9121 C 76.8066 -59.9121 80.8105 -55.957 80.8105 -51.123 C 80.8105 -46.3379 76.7578 -42.2852 71.9727 -42.2852 L 65.7227 -42.2852 L 65.7227 -28.125 L 71.9727 -28.125 C 76.7578 -28.125 80.8105 -24.0723 80.8105 -19.2871 C 80.8105 -14.4531 76.8066 -10.498 71.9727 -10.498 C 67.1387 -10.498 63.2324 -14.4531 63.2324 -19.2871 L 63.2324 -25.6348 L 48.9258 -25.6348 L 48.9258 -19.2871 C 48.9258 -14.4531 45.0195 -10.498 40.1855 -10.498 C 35.3027 -10.498 31.3477 -14.4531 31.3477 -19.2871 C 31.3477 -24.0723 35.4004 -28.125 40.1855 -28.125 L 46.4355 -28.125 Z M 40.1855 -44.7754 L 46.4355 -44.7754 L 46.4355 -51.123 C 46.4355 -54.541 43.6035 -57.4219 40.1855 -57.4219 C 36.6699 -57.4219 33.8379 -54.6387 33.8379 -51.123 C 33.8379 -47.6074 36.6699 -44.7754 40.1855 -44.7754 Z M 71.9727 -44.7754 C 75.4883 -44.7754 78.3203 -47.6074 78.3203 -51.123 C 78.3203 -54.6387 75.4883 -57.4219 71.9727 -57.4219 C 68.5059 -57.4219 65.7227 -54.541 65.7227 -51.123 L 65.7227 -44.7754 Z M 48.9258 -28.125 L 63.2324 -28.125 L 63.2324 -42.2852 L 48.9258 -42.2852 Z M 40.1855 -25.6348 C 36.6699 -25.6348 33.8379 -22.8027 33.8379 -19.2871 C 33.8379 -15.7715 36.6699 -12.9395 40.1855 -12.9395 C 43.6035 -12.9395 46.4355 -15.8203 46.4355 -19.2871 L 46.4355 -25.6348 Z M 71.9727 -25.6348 L 65.7227 -25.6348 L 65.7227 -19.2871 C 65.7227 -15.8203 68.5059 -12.9395 71.9727 -12.9395 C 75.4883 -12.9395 78.3203 -15.7715 78.3203 -19.2871 C 78.3203 -22.8027 75.4883 -25.6348 71.9727 -25.6348 Z"/>
  </g>
  <g id="Black-S" transform="matrix(1 0 0 1 2884.57 696)">
   <path d="M 48.8281 6.83594 C 71.9727 6.83594 90.8203 -12.0117 90.8203 -35.1562 C 90.8203 -58.3008 71.9727 -77.1484 48.8281 -77.1484 C 25.6836 -77.1484 6.83594 -58.3008 6.83594 -35.1562 C 6.83594 -12.0117 25.6836 6.83594 48.8281 6.83594 Z M 39.5996 -36.5723 L 38.0859 -36.5723 C 33.0078 -36.5723 28.8574 -40.7227 28.8574 -45.752 C 28.8574 -50.8789 33.0078 -55.0293 38.0859 -55.0293 C 43.1152 -55.0293 47.3145 -50.7812 47.3145 -45.752 L 47.3145 -44.3848 L 50.3418 -44.3848 L 50.3418 -45.752 C 50.3418 -50.7812 54.541 -55.0293 59.5703 -55.0293 C 64.6484 -55.0293 68.7988 -50.8789 68.7988 -45.752 C 68.7988 -40.7227 64.6484 -36.5723 59.5703 -36.5723 L 58.0566 -36.5723 L 58.0566 -33.6426 L 59.5703 -33.6426 C 64.6484 -33.6426 68.7988 -29.4922 68.7988 -24.4629 C 68.7988 -19.3359 64.6484 -15.1855 59.5703 -15.1855 C 54.541 -15.1855 50.3418 -19.4336 50.3418 -24.4629 L 50.3418 -25.8301 L 47.3145 -25.8301 L 47.3145 -24.4629 C 47.3145 -19.4336 43.1152 -15.1855 38.0859 -15.1855 C 33.0078 -15.1855 28.8574 -19.3359 28.8574 -24.4629 C 28.8574 -29.4922 33.0078 -33.6426 38.0859 -33.6426 L 39.5996 -33.6426 Z M 38.4766 -43.7988 L 40.0391 -43.7988 L 40.0391 -45.4102 C 40.0391 -46.7773 39.209 -47.7539 38.0859 -47.7539 C 37.0117 -47.7539 36.1328 -46.875 36.1328 -45.752 C 36.1328 -44.6777 37.1094 -43.7988 38.4766 -43.7988 Z M 59.1797 -43.7988 C 60.5469 -43.7988 61.5234 -44.6777 61.5234 -45.752 C 61.5234 -46.875 60.6445 -47.7539 59.5703 -47.7539 C 58.4473 -47.7539 57.6172 -46.7773 57.6172 -45.4102 L 57.6172 -43.7988 Z M 46.8262 -33.1055 L 50.8301 -33.1055 L 50.8301 -37.1094 L 46.8262 -37.1094 Z M 38.4766 -26.416 C 37.1094 -26.416 36.1328 -25.5371 36.1328 -24.4629 C 36.1328 -23.3398 37.0117 -22.4609 38.0859 -22.4609 C 39.209 -22.4609 40.0391 -23.4375 40.0391 -24.8047 L 40.0391 -26.416 Z M 59.1797 -26.416 L 57.6172 -26.416 L 57.6172 -24.8047 C 57.6172 -23.4375 58.4473 -22.4609 59.5703 -22.4609 C 60.6445 -22.4609 61.5234 -23.3398 61.5234 -24.4629 C 61.5234 -25.5371 60.5469 -26.416 59.1797 -26.416 Z"/>
  </g>
  <g id="Heavy-S" transform="matrix(1 0 0 1 2588.47 696)">
   <path d="M 48.2422 6.20117 C 70.9961 6.20117 89.5996 -12.4023 89.5996 -35.1562 C 89.5996 -57.9102 70.9961 -76.5625 48.1934 -76.5625 C 25.4395 -76.5625 6.83594 -57.9102 6.83594 -35.1562 C 6.83594 -12.4023 25.4395 6.20117 48.2422 6.20117 Z M 38.916 -37.0117 L 37.1094 -37.0117 C 32.1289 -37.0117 28.0273 -41.0645 28.0273 -46.0449 C 28.0273 -51.123 32.1289 -55.1758 37.1094 -55.1758 C 42.0898 -55.1758 46.2402 -51.0254 46.2402 -46.0449 L 46.2402 -44.3848 L 50.0488 -44.3848 L 50.0488 -46.0449 C 50.0488 -51.0254 54.1504 -55.1758 59.1309 -55.1758 C 64.1602 -55.1758 68.2129 -51.123 68.2129 -46.0449 C 68.2129 -41.0645 64.1602 -37.0117 59.1309 -37.0117 L 57.373 -37.0117 L 57.373 -33.252 L 59.1309 -33.252 C 64.1602 -33.252 68.2129 -29.1504 68.2129 -24.2188 C 68.2129 -19.1406 64.1602 -15.0391 59.1309 -15.0391 C 54.1504 -15.0391 50.0488 -19.2383 50.0488 -24.2188 L 50.0488 -25.8301 L 46.2402 -25.8301 L 46.2402 -24.2188 C 46.2402 -19.2383 42.0898 -15.0391 37.1094 -15.0391 C 32.1289 -15.0391 28.0273 -19.1406 28.0273 -24.2188 C 28.0273 -29.1504 32.1289 -33.252 37.1094 -33.252 L 38.916 -33.252 Z M 37.4512 -43.9453 L 39.209 -43.9453 L 39.209 -45.8008 C 39.209 -47.168 38.3301 -48.1934 37.1094 -48.1934 C 35.9863 -48.1934 35.0098 -47.2168 35.0098 -46.0449 C 35.0098 -44.873 36.0352 -43.9453 37.4512 -43.9453 Z M 58.8379 -43.9453 C 60.2051 -43.9453 61.2305 -44.873 61.2305 -46.0449 C 61.2305 -47.2168 60.2539 -48.1934 59.1309 -48.1934 C 57.959 -48.1934 57.0312 -47.168 57.0312 -45.8008 L 57.0312 -43.9453 Z M 45.8496 -32.8125 L 50.3906 -32.8125 L 50.3906 -37.4512 L 45.8496 -37.4512 Z M 37.4512 -26.3184 C 36.0352 -26.3184 35.0098 -25.3418 35.0098 -24.2188 C 35.0098 -22.998 35.9863 -22.0703 37.1094 -22.0703 C 38.3301 -22.0703 39.209 -23.0957 39.209 -24.4629 L 39.209 -26.3184 Z M 58.8379 -26.3184 L 57.0312 -26.3184 L 57.0312 -24.4629 C 57.0312 -23.0957 57.959 -22.0703 59.1309 -22.0703 C 60.3027 -22.0703 61.2305 -22.998 61.2305 -24.2188 C 61.2305 -25.3418 60.2051 -26.3184 58.8379 -26.3184 Z"/>
  </g>
  <g id="Bold-S" transform="matrix(1 0 0 1 2292.44 696)">
   <path d="M 47.5586 5.51758 C 69.873 5.51758 88.2324 -12.8418 88.2324 -35.2051 C 88.2324 -57.5195 69.873 -75.8789 47.5098 -75.8789 C 25.1953 -75.8789 6.83594 -57.5195 6.83594 -35.2051 C 6.83594 -12.8418 25.1953 5.51758 47.5586 5.51758 Z M 38.0859 -37.5 L 36.084 -37.5 C 31.1035 -37.5 27.0996 -41.4551 27.0996 -46.3867 C 27.0996 -51.3672 31.1035 -55.3711 36.084 -55.3711 C 40.9668 -55.3711 45.0195 -51.2695 45.0195 -46.3867 L 45.0195 -44.4336 L 49.6582 -44.4336 L 49.6582 -46.3867 C 49.6582 -51.2695 53.7109 -55.3711 58.6426 -55.3711 C 63.5742 -55.3711 67.5781 -51.3672 67.5781 -46.3867 C 67.5781 -41.4551 63.5742 -37.5 58.6426 -37.5 L 56.5918 -37.5 L 56.5918 -32.8125 L 58.6426 -32.8125 C 63.5742 -32.8125 67.5781 -28.8086 67.5781 -23.9258 C 67.5781 -18.9453 63.5742 -14.9414 58.6426 -14.9414 C 53.7109 -14.9414 49.6582 -18.9941 49.6582 -23.9258 L 49.6582 -25.8789 L 45.0195 -25.8789 L 45.0195 -23.9258 C 45.0195 -18.9941 40.9668 -14.9414 36.084 -14.9414 C 31.1035 -14.9414 27.0996 -18.9453 27.0996 -23.9258 C 27.0996 -28.8086 31.1035 -32.8125 36.084 -32.8125 L 38.0859 -32.8125 Z M 36.2793 -44.0918 L 38.3301 -44.0918 L 38.3301 -46.1914 C 38.3301 -47.6074 37.3047 -48.6816 36.084 -48.6816 C 34.8145 -48.6816 33.7891 -47.6562 33.7891 -46.3867 C 33.7891 -45.1172 34.8633 -44.0918 36.2793 -44.0918 Z M 58.4473 -44.0918 C 59.8633 -44.0918 60.9375 -45.1172 60.9375 -46.3867 C 60.9375 -47.6562 59.8633 -48.6816 58.6426 -48.6816 C 57.373 -48.6816 56.3477 -47.6074 56.3477 -46.1914 L 56.3477 -44.0918 Z M 44.7754 -32.5195 L 49.9023 -32.5195 L 49.9023 -37.793 L 44.7754 -37.793 Z M 36.2793 -26.2207 C 34.8633 -26.2207 33.7891 -25.1465 33.7891 -23.9258 C 33.7891 -22.6562 34.8145 -21.6309 36.084 -21.6309 C 37.3047 -21.6309 38.3301 -22.7051 38.3301 -24.1211 L 38.3301 -26.2207 Z M 58.4473 -26.2207 L 56.3477 -26.2207 L 56.3477 -24.1211 C 56.3477 -22.7051 57.373 -21.6309 58.6426 -21.6309 C 59.9121 -21.6309 60.9375 -22.6562 60.9375 -23.9258 C 60.9375 -25.1465 59.8145 -26.2207 58.4473 -26.2207 Z"/>
  </g>
  <g id="Semibold-S" transform="matrix(1 0 0 1 1996.2 696)">
   <path d="M 47.0703 5.0293 C 69.0918 5.0293 87.3047 -13.1348 87.3047 -35.2051 C 87.3047 -57.2266 69.0918 -75.4395 47.0215 -75.4395 C 25 -75.4395 6.83594 -57.2266 6.83594 -35.2051 C 6.83594 -13.1348 25.0488 5.0293 47.0703 5.0293 Z M 37.5488 -37.8418 L 35.3027 -37.8418 C 30.4199 -37.8418 26.4648 -41.748 26.4648 -46.6309 C 26.4648 -51.5137 30.4199 -55.4688 35.3027 -55.4688 C 40.1855 -55.4688 44.1895 -51.4648 44.1895 -46.6309 L 44.1895 -44.4336 L 49.4141 -44.4336 L 49.4141 -46.6309 C 49.4141 -51.4648 53.418 -55.4688 58.3008 -55.4688 C 63.1836 -55.4688 67.1387 -51.5137 67.1387 -46.6309 C 67.1387 -41.748 63.1836 -37.8418 58.3008 -37.8418 L 56.0547 -37.8418 L 56.0547 -32.4707 L 58.3008 -32.4707 C 63.1836 -32.4707 67.1387 -28.5645 67.1387 -23.7305 C 67.1387 -18.7988 63.1836 -14.8438 58.3008 -14.8438 C 53.418 -14.8438 49.4141 -18.8477 49.4141 -23.7305 L 49.4141 -25.8789 L 44.1895 -25.8789 L 44.1895 -23.7305 C 44.1895 -18.8477 40.1855 -14.8438 35.3027 -14.8438 C 30.4199 -14.8438 26.4648 -18.7988 26.4648 -23.7305 C 26.4648 -28.5645 30.4199 -32.4707 35.3027 -32.4707 L 37.5488 -32.4707 Z M 35.4492 -44.1895 L 37.6953 -44.1895 L 37.6953 -46.4844 C 37.6953 -47.9004 36.6211 -49.0234 35.3027 -49.0234 C 34.0332 -49.0234 32.9102 -47.9004 32.9102 -46.6309 C 32.9102 -45.2637 34.0332 -44.1895 35.4492 -44.1895 Z M 58.1543 -44.1895 C 59.5703 -44.1895 60.6934 -45.2637 60.6934 -46.6309 C 60.6934 -47.9004 59.5703 -49.0234 58.3008 -49.0234 C 56.9824 -49.0234 55.9082 -47.9004 55.9082 -46.4844 L 55.9082 -44.1895 Z M 44.043 -32.2754 L 49.5605 -32.2754 L 49.5605 -38.0371 L 44.043 -38.0371 Z M 35.4492 -26.123 C 34.082 -26.123 32.9102 -25.0488 32.9102 -23.7305 C 32.9102 -22.4121 33.9844 -21.3379 35.3027 -21.3379 C 36.6211 -21.3379 37.6953 -22.4121 37.6953 -23.8281 L 37.6953 -26.123 Z M 58.1543 -26.123 L 55.9082 -26.123 L 55.9082 -23.8281 C 55.9082 -22.4121 56.9824 -21.3379 58.3008 -21.3379 C 59.6191 -21.3379 60.6934 -22.4121 60.6934 -23.7305 C 60.6934 -25.0488 59.5703 -26.123 58.1543 -26.123 Z"/>
  </g>
  <g id="Medium-S" transform="matrix(1 0 0 1 1699.83 696)">
   <path d="M 46.7285 4.6875 C 68.5547 4.6875 86.6211 -13.3789 86.6211 -35.2051 C 86.6211 -57.0312 68.5059 -75.0977 46.6797 -75.0977 C 24.8535 -75.0977 6.83594 -57.0312 6.83594 -35.2051 C 6.83594 -13.3789 24.9023 4.6875 46.7285 4.6875 Z M 37.1582 -38.0859 L 34.7656 -38.0859 C 29.8828 -38.0859 25.9766 -41.9434 25.9766 -46.7773 C 25.9766 -51.6602 29.8828 -55.5664 34.7656 -55.5664 C 39.5996 -55.5664 43.5547 -51.6113 43.5547 -46.7773 L 43.5547 -44.4336 L 49.2676 -44.4336 L 49.2676 -46.7773 C 49.2676 -51.6113 53.2227 -55.5664 58.0078 -55.5664 C 62.8906 -55.5664 66.7969 -51.6602 66.7969 -46.7773 C 66.7969 -41.9434 62.8906 -38.0859 58.0078 -38.0859 L 55.6641 -38.0859 L 55.6641 -32.2754 L 58.0078 -32.2754 C 62.8906 -32.2754 66.7969 -28.3691 66.7969 -23.5352 C 66.7969 -18.6523 62.8906 -14.7461 58.0078 -14.7461 C 53.2227 -14.7461 49.2676 -18.75 49.2676 -23.5352 L 49.2676 -25.9277 L 43.5547 -25.9277 L 43.5547 -23.5352 C 43.5547 -18.75 39.5996 -14.7461 34.7656 -14.7461 C 29.8828 -14.7461 25.9766 -18.6523 25.9766 -23.5352 C 25.9766 -28.3691 29.8828 -32.2754 34.7656 -32.2754 L 37.1582 -32.2754 Z M 34.8145 -44.2871 L 37.207 -44.2871 L 37.207 -46.7285 C 37.207 -48.0957 36.1328 -49.2676 34.7656 -49.2676 C 33.4473 -49.2676 32.2754 -48.1445 32.2754 -46.7773 C 32.2754 -45.4102 33.3984 -44.2871 34.8145 -44.2871 Z M 57.959 -44.2871 C 59.375 -44.2871 60.5469 -45.4102 60.5469 -46.7773 C 60.5469 -48.1445 59.375 -49.2676 58.0078 -49.2676 C 56.6895 -49.2676 55.5664 -48.0957 55.5664 -46.7285 L 55.5664 -44.2871 Z M 43.457 -32.1289 L 49.3164 -32.1289 L 49.3164 -38.2324 L 43.457 -38.2324 Z M 34.8145 -26.0742 C 33.4473 -26.0742 32.2754 -24.9512 32.2754 -23.584 C 32.2754 -22.2168 33.3984 -21.0938 34.7656 -21.0938 C 36.1328 -21.0938 37.207 -22.2168 37.207 -23.6328 L 37.207 -26.0742 Z M 57.959 -26.0742 L 55.5664 -26.0742 L 55.5664 -23.6328 C 55.5664 -22.2168 56.6895 -21.0938 58.0078 -21.0938 C 59.4238 -21.0938 60.5469 -22.2168 60.5469 -23.584 C 60.5469 -24.9512 59.3262 -26.0742 57.959 -26.0742 Z"/>
  </g>
  <g id="Regular-S" transform="matrix(1 0 0 1 1403.58 696)">
   <path d="M 46.2402 4.19922 C 67.7734 4.19922 85.6934 -13.6719 85.6934 -35.2051 C 85.6934 -56.7383 67.7246 -74.6094 46.1914 -74.6094 C 24.707 -74.6094 6.83594 -56.7383 6.83594 -35.2051 C 6.83594 -13.6719 24.7559 4.19922 46.2402 4.19922 Z M 36.6211 -38.4277 L 34.0332 -38.4277 C 29.1992 -38.4277 25.3418 -42.2363 25.3418 -47.0215 C 25.3418 -51.8555 29.1992 -55.7129 34.0332 -55.7129 C 38.8184 -55.7129 42.7246 -51.8066 42.7246 -47.0215 L 42.7246 -44.4336 L 49.0234 -44.4336 L 49.0234 -47.0215 C 49.0234 -51.8066 52.9297 -55.7129 57.7148 -55.7129 C 62.5 -55.7129 66.4062 -51.8555 66.4062 -47.0215 C 66.4062 -42.2363 62.5 -38.4277 57.7148 -38.4277 L 55.127 -38.4277 L 55.127 -31.9336 L 57.7148 -31.9336 C 62.5 -31.9336 66.4062 -28.125 66.4062 -23.3398 C 66.4062 -18.5059 62.5 -14.6484 57.7148 -14.6484 C 52.9297 -14.6484 49.0234 -18.5547 49.0234 -23.3398 L 49.0234 -25.9277 L 42.7246 -25.9277 L 42.7246 -23.3398 C 42.7246 -18.5547 38.8184 -14.6484 34.0332 -14.6484 C 29.1992 -14.6484 25.3418 -18.5059 25.3418 -23.3398 C 25.3418 -28.125 29.1992 -31.9336 34.0332 -31.9336 L 36.6211 -31.9336 Z M 34.0332 -44.3848 L 36.6211 -44.3848 L 36.6211 -47.0215 C 36.6211 -48.3887 35.4492 -49.6094 34.0332 -49.6094 C 32.666 -49.6094 31.3965 -48.3887 31.3965 -47.0215 C 31.3965 -45.5566 32.6172 -44.3848 34.0332 -44.3848 Z M 57.7148 -44.3848 C 59.1309 -44.3848 60.3027 -45.5566 60.3027 -47.0215 C 60.3027 -48.3887 59.082 -49.6094 57.7148 -49.6094 C 56.2988 -49.6094 55.127 -48.3887 55.127 -47.0215 L 55.127 -44.3848 Z M 42.7246 -31.8848 L 49.0234 -31.8848 L 49.0234 -38.4766 L 42.7246 -38.4766 Z M 34.0332 -26.0254 C 32.666 -26.0254 31.3965 -24.8047 31.3965 -23.3887 C 31.3965 -21.9727 32.6172 -20.8008 34.0332 -20.8008 C 35.4492 -20.8008 36.6211 -21.9727 36.6211 -23.3887 L 36.6211 -26.0254 Z M 57.7148 -26.0254 L 55.127 -26.0254 L 55.127 -23.3887 C 55.127 -21.9727 56.2988 -20.8008 57.7148 -20.8008 C 59.1309 -20.8008 60.3027 -21.9727 60.3027 -23.3887 C 60.3027 -24.8047 59.082 -26.0254 57.7148 -26.0254 Z"/>
  </g>
  <g id="Light-S" transform="matrix(1 0 0 1 1107.6 696)">
   <path d="M 45.5078 3.4668 C 66.6992 3.4668 84.2285 -14.0137 84.2285 -35.2051 C 84.2285 -56.3965 66.6504 -73.877 45.5078 -73.877 C 24.3164 -73.877 6.83594 -56.3965 6.83594 -35.2051 C 6.83594 -14.0137 24.3652 3.4668 45.5078 3.4668 Z M 36.5234 -39.1602 L 33.252 -39.1602 C 28.7598 -39.1602 25.0977 -42.7734 25.0977 -47.2168 C 25.0977 -51.709 28.7109 -55.3711 33.252 -55.3711 C 37.6953 -55.3711 41.3574 -51.709 41.3574 -47.2168 L 41.3574 -43.8965 L 49.1699 -43.8965 L 49.1699 -47.2168 C 49.1699 -51.709 52.832 -55.3711 57.2754 -55.3711 C 61.7676 -55.3711 65.4297 -51.709 65.4297 -47.2168 C 65.4297 -42.7734 61.7676 -39.1602 57.2754 -39.1602 L 53.9551 -39.1602 L 53.9551 -31.25 L 57.2754 -31.25 C 61.7676 -31.25 65.4297 -27.6367 65.4297 -23.1445 C 65.4297 -18.6523 61.7676 -15.0391 57.2754 -15.0391 C 52.832 -15.0391 49.1699 -18.7012 49.1699 -23.1445 L 49.1699 -26.4648 L 41.3574 -26.4648 L 41.3574 -23.1445 C 41.3574 -18.7012 37.6953 -15.0391 33.252 -15.0391 C 28.7109 -15.0391 25.0977 -18.6523 25.0977 -23.1445 C 25.0977 -27.6367 28.7598 -31.25 33.252 -31.25 L 36.5234 -31.25 Z M 33.252 -43.8477 L 36.5234 -43.8477 L 36.5234 -47.2168 C 36.5234 -49.0234 35.0098 -50.5859 33.252 -50.5859 C 31.3965 -50.5859 29.8828 -49.0234 29.8828 -47.2168 C 29.8828 -45.3613 31.3965 -43.8477 33.252 -43.8477 Z M 57.2754 -43.8477 C 59.1309 -43.8477 60.6445 -45.3613 60.6445 -47.2168 C 60.6445 -49.0234 59.082 -50.5859 57.2754 -50.5859 C 55.4688 -50.5859 53.9551 -49.0234 53.9551 -47.2168 L 53.9551 -43.8477 Z M 41.3574 -31.2012 L 49.1699 -31.2012 L 49.1699 -39.1602 L 41.3574 -39.1602 Z M 33.252 -26.5625 C 31.3965 -26.5625 29.8828 -25 29.8828 -23.1934 C 29.8828 -21.3379 31.3965 -19.8242 33.252 -19.8242 C 35.0098 -19.8242 36.5234 -21.3867 36.5234 -23.1934 L 36.5234 -26.5625 Z M 57.2754 -26.5625 L 53.9551 -26.5625 L 53.9551 -23.1934 C 53.9551 -21.3867 55.4688 -19.8242 57.2754 -19.8242 C 59.1309 -19.8242 60.6445 -21.3379 60.6445 -23.1934 C 60.6445 -25 59.082 -26.5625 57.2754 -26.5625 Z"/>
  </g>
  <g id="Thin-S" transform="matrix(1 0 0 1 811.867 696)">
   <path d="M 44.5801 2.53906 C 65.2832 2.53906 82.2754 -14.502 82.2754 -35.2051 C 82.2754 -55.9082 65.2344 -72.9492 44.5312 -72.9492 C 23.8281 -72.9492 6.83594 -55.9082 6.83594 -35.2051 C 6.83594 -14.502 23.877 2.53906 44.5801 2.53906 Z M 36.4258 -40.0879 L 32.1777 -40.0879 C 28.125 -40.0879 24.7559 -43.457 24.7559 -47.4609 C 24.7559 -51.5625 28.0762 -54.8828 32.1777 -54.8828 C 36.2305 -54.8828 39.5508 -51.5625 39.5508 -47.4609 L 39.5508 -43.1641 L 49.3652 -43.1641 L 49.3652 -47.4609 C 49.3652 -51.5625 52.6855 -54.8828 56.7383 -54.8828 C 60.8398 -54.8828 64.1602 -51.5625 64.1602 -47.4609 C 64.1602 -43.457 60.791 -40.0879 56.7383 -40.0879 L 52.4902 -40.0879 L 52.4902 -30.2734 L 56.7383 -30.2734 C 60.791 -30.2734 64.1602 -26.9531 64.1602 -22.9004 C 64.1602 -18.8477 60.8398 -15.5273 56.7383 -15.5273 C 52.6855 -15.5273 49.3652 -18.8477 49.3652 -22.9004 L 49.3652 -27.1973 L 39.5508 -27.1973 L 39.5508 -22.9004 C 39.5508 -18.8477 36.2305 -15.5273 32.1777 -15.5273 C 28.0762 -15.5273 24.7559 -18.8477 24.7559 -22.9004 C 24.7559 -26.9531 28.125 -30.2734 32.1777 -30.2734 L 36.4258 -30.2734 Z M 32.1777 -43.1641 L 36.4258 -43.1641 L 36.4258 -47.4609 C 36.4258 -49.8047 34.5215 -51.8066 32.1777 -51.8066 C 29.7852 -51.8066 27.832 -49.8535 27.832 -47.4609 C 27.832 -45.1172 29.7852 -43.1641 32.1777 -43.1641 Z M 56.7383 -43.1641 C 59.1309 -43.1641 61.0352 -45.1172 61.0352 -47.4609 C 61.0352 -49.8535 59.1309 -51.8066 56.7383 -51.8066 C 54.3945 -51.8066 52.4902 -49.8047 52.4902 -47.4609 L 52.4902 -43.1641 Z M 39.5508 -30.2734 L 49.3652 -30.2734 L 49.3652 -40.1367 L 39.5508 -40.1367 Z M 32.1777 -27.2461 C 29.7852 -27.2461 27.832 -25.293 27.832 -22.9492 C 27.832 -20.5566 29.7852 -18.6035 32.1777 -18.6035 C 34.5215 -18.6035 36.4258 -20.5566 36.4258 -22.9492 L 36.4258 -27.2461 Z M 56.7383 -27.2461 L 52.4902 -27.2461 L 52.4902 -22.9492 C 52.4902 -20.5566 54.3945 -18.6035 56.7383 -18.6035 C 59.1309 -18.6035 61.0352 -20.5566 61.0352 -22.9492 C 61.0352 -25.293 59.1309 -27.2461 56.7383 -27.2461 Z"/>
  </g>
  <g id="Ultralight-S" transform="matrix(1 0 0 1 515.644 696)">
   <path d="M 44.043 2.00195 C 64.502 2.00195 81.2988 -14.7461 81.2988 -35.2051 C 81.2988 -55.6641 64.502 -72.4121 44.043 -72.4121 C 23.584 -72.4121 6.83594 -55.6641 6.83594 -35.2051 C 6.83594 -14.7461 23.584 2.00195 44.043 2.00195 Z M 36.377 -40.625 L 31.6406 -40.625 C 27.7832 -40.625 24.6094 -43.7988 24.6094 -47.6074 C 24.6094 -51.4648 27.7832 -54.6387 31.6406 -54.6387 C 35.498 -54.6387 38.5742 -51.4648 38.5742 -47.6074 L 38.5742 -42.8223 L 49.4629 -42.8223 L 49.4629 -47.6074 C 49.4629 -51.4648 52.5879 -54.6387 56.4453 -54.6387 C 60.3027 -54.6387 63.4766 -51.4648 63.4766 -47.6074 C 63.4766 -43.7988 60.2539 -40.625 56.4453 -40.625 L 51.709 -40.625 L 51.709 -29.7852 L 56.4453 -29.7852 C 60.2539 -29.7852 63.4766 -26.6113 63.4766 -22.8027 C 63.4766 -18.9453 60.3027 -15.7715 56.4453 -15.7715 C 52.5879 -15.7715 49.4629 -18.9453 49.4629 -22.8027 L 49.4629 -27.5879 L 38.5742 -27.5879 L 38.5742 -22.8027 C 38.5742 -18.9453 35.498 -15.7715 31.6406 -15.7715 C 27.7832 -15.7715 24.6094 -18.9453 24.6094 -22.8027 C 24.6094 -26.6113 27.7832 -29.7852 31.6406 -29.7852 L 36.377 -29.7852 Z M 31.6406 -42.8223 L 36.377 -42.8223 L 36.377 -47.6074 C 36.377 -50.2441 34.2285 -52.4414 31.6406 -52.4414 C 28.9551 -52.4414 26.8066 -50.293 26.8066 -47.6074 C 26.8066 -44.9707 28.9551 -42.8223 31.6406 -42.8223 Z M 56.4453 -42.8223 C 59.1309 -42.8223 61.2793 -44.9707 61.2793 -47.6074 C 61.2793 -50.293 59.1309 -52.4414 56.4453 -52.4414 C 53.8574 -52.4414 51.709 -50.2441 51.709 -47.6074 L 51.709 -42.8223 Z M 38.5742 -29.7852 L 49.4629 -29.7852 L 49.4629 -40.625 L 38.5742 -40.625 Z M 31.6406 -27.5879 C 28.9551 -27.5879 26.8066 -25.4395 26.8066 -22.8027 C 26.8066 -20.1172 28.9551 -17.9688 31.6406 -17.9688 C 34.2285 -17.9688 36.377 -20.166 36.377 -22.8027 L 36.377 -27.5879 Z M 56.4453 -27.5879 L 51.709 -27.5879 L 51.709 -22.8027 C 51.709 -20.166 53.8574 -17.9688 56.4453 -17.9688 C 59.1309 -17.9688 61.2793 -20.1172 61.2793 -22.8027 C 61.2793 -25.4395 59.1309 -27.5879 56.4453 -27.5879 Z"/>
  </g>
 </g>
</svg>
