<?xml version="1.0" encoding="UTF-8"?>
<!--Generator: Apple Native CoreSVG 148-->
<!DOCTYPE svg
PUBLIC "-//W3C//DTD SVG 1.1//EN"
       "http://www.w3.org/Graphics/SVG/1.1/DTD/svg11.dtd">
<svg version="1.1" xmlns="http://www.w3.org/2000/svg" xmlns:xlink="http://www.w3.org/1999/xlink" width="3300" height="2200">
 <!--glyph: "uni1008DF.medium", point size: 100.000000, font version: "Version 16.0d11e1", template writer version: "8"-->
 <g id="Notes">
  <rect height="2200" id="artboard" style="fill:white;opacity:1" width="3300" x="0" y="0"/>
  <line id="" style="fill:none;stroke:black;opacity:1;stroke-width:0.5;" x1="263" x2="3036" y1="292" y2="292"/>
  <text style="stroke:none;fill:black;font-family:-apple-system,&quot;SF Pro Display&quot;,&quot;SF Pro Text&quot;,Helvetica,sans-serif;font-weight:bold;" transform="matrix(1 0 0 1 263 322)">Weight/Scale Variations</text>
  <text style="stroke:none;fill:black;font-family:-apple-system,&quot;SF Pro Display&quot;,&quot;SF Pro Text&quot;,Helvetica,sans-serif;text-anchor:middle;" transform="matrix(1 0 0 1 559.711 322)">Ultralight</text>
  <text style="stroke:none;fill:black;font-family:-apple-system,&quot;SF Pro Display&quot;,&quot;SF Pro Text&quot;,Helvetica,sans-serif;text-anchor:middle;" transform="matrix(1 0 0 1 856.422 322)">Thin</text>
  <text style="stroke:none;fill:black;font-family:-apple-system,&quot;SF Pro Display&quot;,&quot;SF Pro Text&quot;,Helvetica,sans-serif;text-anchor:middle;" transform="matrix(1 0 0 1 1153.13 322)">Light</text>
  <text style="stroke:none;fill:black;font-family:-apple-system,&quot;SF Pro Display&quot;,&quot;SF Pro Text&quot;,Helvetica,sans-serif;text-anchor:middle;" transform="matrix(1 0 0 1 1449.84 322)">Regular</text>
  <text style="stroke:none;fill:black;font-family:-apple-system,&quot;SF Pro Display&quot;,&quot;SF Pro Text&quot;,Helvetica,sans-serif;text-anchor:middle;" transform="matrix(1 0 0 1 1746.56 322)">Medium</text>
  <text style="stroke:none;fill:black;font-family:-apple-system,&quot;SF Pro Display&quot;,&quot;SF Pro Text&quot;,Helvetica,sans-serif;text-anchor:middle;" transform="matrix(1 0 0 1 2043.27 322)">Semibold</text>
  <text style="stroke:none;fill:black;font-family:-apple-system,&quot;SF Pro Display&quot;,&quot;SF Pro Text&quot;,Helvetica,sans-serif;text-anchor:middle;" transform="matrix(1 0 0 1 2339.98 322)">Bold</text>
  <text style="stroke:none;fill:black;font-family:-apple-system,&quot;SF Pro Display&quot;,&quot;SF Pro Text&quot;,Helvetica,sans-serif;text-anchor:middle;" transform="matrix(1 0 0 1 2636.69 322)">Heavy</text>
  <text style="stroke:none;fill:black;font-family:-apple-system,&quot;SF Pro Display&quot;,&quot;SF Pro Text&quot;,Helvetica,sans-serif;text-anchor:middle;" transform="matrix(1 0 0 1 2933.4 322)">Black</text>
  <line id="" style="fill:none;stroke:black;opacity:1;stroke-width:0.5;" x1="263" x2="3036" y1="1903" y2="1903"/>
  <g id="" transform="matrix(1 0 0 1 263 1933)">
   <path d="M 9.24805 0.830078 C 13.5547 0.830078 17.1387 -2.74414 17.1387 -7.05078 C 17.1387 -11.3574 13.5449 -14.9316 9.23828 -14.9316 C 4.94141 -14.9316 1.36719 -11.3574 1.36719 -7.05078 C 1.36719 -2.74414 4.95117 0.830078 9.24805 0.830078 Z M 9.24805 -0.654297 C 5.70312 -0.654297 2.87109 -3.49609 2.87109 -7.05078 C 2.87109 -10.6055 5.69336 -13.4473 9.23828 -13.4473 C 12.793 -13.4473 15.6348 -10.6055 15.6445 -7.05078 C 15.6543 -3.49609 12.8027 -0.654297 9.24805 -0.654297 Z M 9.22852 -3.62305 C 9.69727 -3.62305 9.9707 -3.93555 9.9707 -4.45312 L 9.9707 -6.31836 L 12.002 -6.31836 C 12.5 -6.31836 12.832 -6.57227 12.832 -7.04102 C 12.832 -7.51953 12.5195 -7.7832 12.002 -7.7832 L 9.9707 -7.7832 L 9.9707 -9.81445 C 9.9707 -10.332 9.69727 -10.6543 9.22852 -10.6543 C 8.75977 -10.6543 8.50586 -10.3125 8.50586 -9.81445 L 8.50586 -7.7832 L 6.49414 -7.7832 C 5.97656 -7.7832 5.64453 -7.51953 5.64453 -7.04102 C 5.64453 -6.57227 5.99609 -6.31836 6.49414 -6.31836 L 8.50586 -6.31836 L 8.50586 -4.45312 C 8.50586 -3.95508 8.75977 -3.62305 9.22852 -3.62305 Z"/>
  </g>
  <g id="" transform="matrix(1 0 0 1 281.506 1933)">
   <path d="M 11.709 2.91016 C 17.1582 2.91016 21.6699 -1.61133 21.6699 -7.05078 C 21.6699 -12.5 17.1484 -17.0117 11.6992 -17.0117 C 6.25977 -17.0117 1.74805 -12.5 1.74805 -7.05078 C 1.74805 -1.61133 6.26953 2.91016 11.709 2.91016 Z M 11.709 1.25 C 7.09961 1.25 3.41797 -2.44141 3.41797 -7.05078 C 3.41797 -11.6602 7.08984 -15.3516 11.6992 -15.3516 C 16.3086 -15.3516 20 -11.6602 20.0098 -7.05078 C 20.0195 -2.44141 16.3184 1.25 11.709 1.25 Z M 11.6797 -2.66602 C 12.207 -2.66602 12.5098 -3.01758 12.5098 -3.59375 L 12.5098 -6.23047 L 15.3223 -6.23047 C 15.8691 -6.23047 16.25 -6.51367 16.25 -7.03125 C 16.25 -7.55859 15.8887 -7.86133 15.3223 -7.86133 L 12.5098 -7.86133 L 12.5098 -10.6836 C 12.5098 -11.25 12.207 -11.6113 11.6797 -11.6113 C 11.1621 -11.6113 10.8789 -11.2305 10.8789 -10.6836 L 10.8789 -7.86133 L 8.07617 -7.86133 C 7.50977 -7.86133 7.13867 -7.55859 7.13867 -7.03125 C 7.13867 -6.51367 7.5293 -6.23047 8.07617 -6.23047 L 10.8789 -6.23047 L 10.8789 -3.59375 C 10.8789 -3.03711 11.1621 -2.66602 11.6797 -2.66602 Z"/>
  </g>
  <g id="" transform="matrix(1 0 0 1 304.924 1933)">
   <path d="M 14.9707 5.66406 C 21.9336 5.66406 27.6953 -0.0976562 27.6953 -7.05078 C 27.6953 -14.0137 21.9238 -19.7754 14.9609 -19.7754 C 8.00781 -19.7754 2.25586 -14.0137 2.25586 -7.05078 C 2.25586 -0.0976562 8.01758 5.66406 14.9707 5.66406 Z M 14.9707 3.84766 C 8.93555 3.84766 4.08203 -1.01562 4.08203 -7.05078 C 4.08203 -13.0957 8.92578 -17.9492 14.9609 -17.9492 C 21.0059 -17.9492 25.8594 -13.0957 25.8691 -7.05078 C 25.8789 -1.01562 21.0156 3.84766 14.9707 3.84766 Z M 14.9414 -1.38672 C 15.5176 -1.38672 15.8594 -1.77734 15.8594 -2.38281 L 15.8594 -6.13281 L 19.7754 -6.13281 C 20.3711 -6.13281 20.7812 -6.46484 20.7812 -7.02148 C 20.7812 -7.59766 20.3906 -7.93945 19.7754 -7.93945 L 15.8594 -7.93945 L 15.8594 -11.8652 C 15.8594 -12.4805 15.5176 -12.8711 14.9414 -12.8711 C 14.375 -12.8711 14.0527 -12.4609 14.0527 -11.8652 L 14.0527 -7.93945 L 10.1465 -7.93945 C 9.53125 -7.93945 9.13086 -7.59766 9.13086 -7.02148 C 9.13086 -6.46484 9.55078 -6.13281 10.1465 -6.13281 L 14.0527 -6.13281 L 14.0527 -2.38281 C 14.0527 -1.79688 14.375 -1.38672 14.9414 -1.38672 Z"/>
  </g>
  <text style="stroke:none;fill:black;font-family:-apple-system,&quot;SF Pro Display&quot;,&quot;SF Pro Text&quot;,Helvetica,sans-serif;font-weight:bold;" transform="matrix(1 0 0 1 263 1953)">Design Variations</text>
  <text style="stroke:none;fill:black;font-family:-apple-system,&quot;SF Pro Display&quot;,&quot;SF Pro Text&quot;,Helvetica,sans-serif;" transform="matrix(1 0 0 1 263 1971)">Symbols are supported in up to nine weights and three scales.</text>
  <text style="stroke:none;fill:black;font-family:-apple-system,&quot;SF Pro Display&quot;,&quot;SF Pro Text&quot;,Helvetica,sans-serif;" transform="matrix(1 0 0 1 263 1989)">For optimal layout with text and other symbols, vertically align</text>
  <text style="stroke:none;fill:black;font-family:-apple-system,&quot;SF Pro Display&quot;,&quot;SF Pro Text&quot;,Helvetica,sans-serif;" transform="matrix(1 0 0 1 263 2007)">symbols with the adjacent text.</text>
  <line id="" style="fill:none;stroke:#00AEEF;stroke-width:0.5;opacity:1.0;" x1="776" x2="776" y1="1919" y2="1933"/>
  <g id="" transform="matrix(1 0 0 1 776 1933)">
   <path d="M 3.31055 0.126953 C 3.82812 0.126953 4.08203 -0.0683594 4.26758 -0.605469 L 5.52734 -4.0625 L 11.2891 -4.0625 L 12.5488 -0.605469 C 12.7344 -0.0683594 12.9883 0.126953 13.4961 0.126953 C 14.0137 0.126953 14.3457 -0.185547 14.3457 -0.673828 C 14.3457 -0.839844 14.3164 -0.986328 14.2383 -1.20117 L 9.6582 -13.3887 C 9.43359 -13.9941 9.0332 -14.2871 8.4082 -14.2871 C 7.80273 -14.2871 7.39258 -13.9941 7.17773 -13.3984 L 2.59766 -1.19141 C 2.51953 -0.976562 2.49023 -0.830078 2.49023 -0.664062 C 2.49023 -0.175781 2.80273 0.126953 3.31055 0.126953 Z M 6.00586 -5.53711 L 8.37891 -12.1094 L 8.42773 -12.1094 L 10.8008 -5.53711 Z"/>
  </g>
  <line id="" style="fill:none;stroke:#00AEEF;stroke-width:0.5;opacity:1.0;" x1="792.836" x2="792.836" y1="1919" y2="1933"/>
  <text style="stroke:none;fill:black;font-family:-apple-system,&quot;SF Pro Display&quot;,&quot;SF Pro Text&quot;,Helvetica,sans-serif;font-weight:bold;" transform="matrix(1 0 0 1 776 1953)">Margins</text>
  <text style="stroke:none;fill:black;font-family:-apple-system,&quot;SF Pro Display&quot;,&quot;SF Pro Text&quot;,Helvetica,sans-serif;" transform="matrix(1 0 0 1 776 1971)">Leading and trailing margins on the left and right side of each symbol</text>
  <text style="stroke:none;fill:black;font-family:-apple-system,&quot;SF Pro Display&quot;,&quot;SF Pro Text&quot;,Helvetica,sans-serif;" transform="matrix(1 0 0 1 776 1989)">can be adjusted by modifying the x-location of the margin guidelines.</text>
  <text style="stroke:none;fill:black;font-family:-apple-system,&quot;SF Pro Display&quot;,&quot;SF Pro Text&quot;,Helvetica,sans-serif;" transform="matrix(1 0 0 1 776 2007)">Modifications are automatically applied proportionally to all</text>
  <text style="stroke:none;fill:black;font-family:-apple-system,&quot;SF Pro Display&quot;,&quot;SF Pro Text&quot;,Helvetica,sans-serif;" transform="matrix(1 0 0 1 776 2025)">scales and weights.</text>
  <g id="" transform="matrix(1 0 0 1 1289 1933)">
   <path d="M 2.8418 1.86523 L 4.54102 3.57422 C 5.40039 4.44336 6.38672 4.38477 7.31445 3.35938 L 17.4902 -7.85156 C 17.7539 -7.76367 18.0273 -7.7832 18.3398 -7.8418 L 19.4043 -8.03711 L 20.0684 -7.36328 L 20.0293 -6.80664 C 19.9902 -6.30859 20.1172 -5.92773 20.6055 -5.44922 L 21.3672 -4.70703 C 21.8457 -4.22852 22.4609 -4.19922 22.9297 -4.66797 L 25.8398 -7.58789 C 26.3086 -8.05664 26.2891 -8.65234 25.8105 -9.13086 L 25.0391 -9.89258 C 24.5605 -10.3711 24.1895 -10.5273 23.7109 -10.4883 L 23.1348 -10.4395 L 22.4902 -11.0742 L 22.7344 -12.1973 C 22.8613 -12.7637 22.7051 -13.2031 22.1191 -13.7891 L 19.9219 -15.9766 C 16.582 -19.2969 12.1484 -19.2188 9.25781 -16.3281 C 8.83789 -15.918 8.80859 -15.3418 9.04297 -14.9512 C 9.27734 -14.5898 9.73633 -14.3555 10.3809 -14.5215 C 11.8457 -14.8633 13.3691 -14.9219 14.7949 -13.9844 L 14.209 -12.5293 C 14.0137 -12.0508 13.9844 -11.6504 14.1113 -11.2891 L 3.04688 -0.898438 C 2.06055 0.0195312 1.98242 0.996094 2.8418 1.86523 Z M 10.752 -15.957 C 13.1836 -17.7344 16.4746 -17.4316 18.7012 -15.2051 L 21.1328 -12.793 C 21.3672 -12.5586 21.4062 -12.373 21.3379 -12.0312 L 21.0156 -10.5469 L 22.5195 -9.0625 L 23.5059 -9.12109 C 23.7598 -9.13086 23.8379 -9.11133 24.0332 -8.91602 L 24.6094 -8.33984 L 22.168 -5.89844 L 21.5918 -6.47461 C 21.3965 -6.66992 21.3672 -6.74805 21.377 -7.01172 L 21.4453 -7.98828 L 19.9512 -9.47266 L 18.4277 -9.21875 C 18.1055 -9.15039 17.959 -9.17969 17.7148 -9.41406 L 15.7129 -11.416 C 15.459 -11.6504 15.4297 -11.8164 15.5859 -12.1875 L 16.4648 -14.2773 C 14.9023 -15.7324 12.8711 -16.3574 10.8398 -15.7617 C 10.6836 -15.7227 10.625 -15.8496 10.752 -15.957 Z M 5.27344 2.30469 L 4.10156 1.14258 C 3.63281 0.683594 3.74023 0.341797 4.14062 -0.0195312 L 14.9512 -10.1953 L 16.416 -8.71094 L 6.42578 2.27539 C 6.07422 2.67578 5.74219 2.77344 5.27344 2.30469 Z"/>
  </g>
  <text style="stroke:none;fill:black;font-family:-apple-system,&quot;SF Pro Display&quot;,&quot;SF Pro Text&quot;,Helvetica,sans-serif;font-weight:bold;" transform="matrix(1 0 0 1 1289 1953)">Exporting</text>
  <text style="stroke:none;fill:black;font-family:-apple-system,&quot;SF Pro Display&quot;,&quot;SF Pro Text&quot;,Helvetica,sans-serif;" transform="matrix(1 0 0 1 1289 1971)">Symbols should be outlined when exporting to ensure the</text>
  <text style="stroke:none;fill:black;font-family:-apple-system,&quot;SF Pro Display&quot;,&quot;SF Pro Text&quot;,Helvetica,sans-serif;" transform="matrix(1 0 0 1 1289 1989)">design is preserved when submitting to Xcode.</text>
  <text id="template-version" style="stroke:none;fill:black;font-family:-apple-system,&quot;SF Pro Display&quot;,&quot;SF Pro Text&quot;,Helvetica,sans-serif;text-anchor:end;" transform="matrix(1 0 0 1 3036 1933)">Template v.2.0</text>
  <text style="stroke:none;fill:black;font-family:-apple-system,&quot;SF Pro Display&quot;,&quot;SF Pro Text&quot;,Helvetica,sans-serif;text-anchor:end;" transform="matrix(1 0 0 1 3036 1951)">Requires Xcode 12 or greater</text>
  <text style="stroke:none;fill:black;font-family:-apple-system,&quot;SF Pro Display&quot;,&quot;SF Pro Text&quot;,Helvetica,sans-serif;text-anchor:end;" transform="matrix(1 0 0 1 3036 1969)">Generated from cross.circle.fill</text>
  <text style="stroke:none;fill:black;font-family:-apple-system,&quot;SF Pro Display&quot;,&quot;SF Pro Text&quot;,Helvetica,sans-serif;text-anchor:end;" transform="matrix(1 0 0 1 3036 1987)">Typeset at 100 points</text>
  <text style="stroke:none;fill:black;font-family:-apple-system,&quot;SF Pro Display&quot;,&quot;SF Pro Text&quot;,Helvetica,sans-serif;" transform="matrix(1 0 0 1 263 726)">Small</text>
  <text style="stroke:none;fill:black;font-family:-apple-system,&quot;SF Pro Display&quot;,&quot;SF Pro Text&quot;,Helvetica,sans-serif;" transform="matrix(1 0 0 1 263 1156)">Medium</text>
  <text style="stroke:none;fill:black;font-family:-apple-system,&quot;SF Pro Display&quot;,&quot;SF Pro Text&quot;,Helvetica,sans-serif;" transform="matrix(1 0 0 1 263 1586)">Large</text>
 </g>
 <g id="Guides">
  <g id="H-reference" style="fill:#27AAE1;stroke:none;" transform="matrix(1 0 0 1 339 696)">
   <path d="M 0.976562 0 L 3.66211 0 L 12.9883 -24.4629 L 45.7031 -24.4629 L 55.0781 0 L 57.7148 0 L 30.6152 -70.459 L 28.125 -70.459 Z M 29.2969 -67.1387 L 29.3945 -67.1387 L 44.873 -26.709 L 13.8672 -26.709 Z"/>
  </g>
  <line id="Baseline-S" style="fill:none;stroke:#27AAE1;opacity:1;stroke-width:0.5;" x1="263" x2="3036" y1="696" y2="696"/>
  <line id="Capline-S" style="fill:none;stroke:#27AAE1;opacity:1;stroke-width:0.5;" x1="263" x2="3036" y1="625.541" y2="625.541"/>
  <g id="H-reference" style="fill:#27AAE1;stroke:none;" transform="matrix(1 0 0 1 339 1126)">
   <path d="M 0.976562 0 L 3.66211 0 L 12.9883 -24.4629 L 45.7031 -24.4629 L 55.0781 0 L 57.7148 0 L 30.6152 -70.459 L 28.125 -70.459 Z M 29.2969 -67.1387 L 29.3945 -67.1387 L 44.873 -26.709 L 13.8672 -26.709 Z"/>
  </g>
  <line id="Baseline-M" style="fill:none;stroke:#27AAE1;opacity:1;stroke-width:0.5;" x1="263" x2="3036" y1="1126" y2="1126"/>
  <line id="Capline-M" style="fill:none;stroke:#27AAE1;opacity:1;stroke-width:0.5;" x1="263" x2="3036" y1="1055.54" y2="1055.54"/>
  <g id="H-reference" style="fill:#27AAE1;stroke:none;" transform="matrix(1 0 0 1 339 1556)">
   <path d="M 0.976562 0 L 3.66211 0 L 12.9883 -24.4629 L 45.7031 -24.4629 L 55.0781 0 L 57.7148 0 L 30.6152 -70.459 L 28.125 -70.459 Z M 29.2969 -67.1387 L 29.3945 -67.1387 L 44.873 -26.709 L 13.8672 -26.709 Z"/>
  </g>
  <line id="Baseline-L" style="fill:none;stroke:#27AAE1;opacity:1;stroke-width:0.5;" x1="263" x2="3036" y1="1556" y2="1556"/>
  <line id="Capline-L" style="fill:none;stroke:#27AAE1;opacity:1;stroke-width:0.5;" x1="263" x2="3036" y1="1485.54" y2="1485.54"/>
  <line id="left-margin" style="fill:none;stroke:#00AEEF;stroke-width:0.5;opacity:1.0;" x1="1391.3" x2="1391.3" y1="1030.79" y2="1150.12"/>
  <line id="right-margin" style="fill:none;stroke:#00AEEF;stroke-width:0.5;opacity:1.0;" x1="1508.39" x2="1508.39" y1="1030.79" y2="1150.12"/>
 </g>
 <g id="Symbols">
  <g id="Black-L" transform="matrix(1 0 0 1 2854.05 1556)">
   <path d="M 79.3457 32.9102 C 116.748 32.9102 147.412 2.29492 147.412 -35.1074 C 147.412 -72.5586 116.748 -103.174 79.2969 -103.174 C 41.8945 -103.174 11.2793 -72.5586 11.2793 -35.1074 C 11.2793 2.29492 41.9434 32.9102 79.3457 32.9102 Z M 43.0664 -30.7129 L 43.0664 -39.7461 C 43.0664 -45.3613 46.8262 -49.1699 52.4902 -49.1699 L 65.2832 -49.1699 L 65.2832 -61.9141 C 65.2832 -67.627 69.0918 -71.3379 74.7559 -71.3379 L 83.7402 -71.3379 C 89.4531 -71.3379 93.2129 -67.627 93.2129 -61.9141 L 93.2129 -49.1699 L 106.055 -49.1699 C 111.67 -49.1699 115.479 -45.3613 115.479 -39.7461 L 115.479 -30.7129 C 115.479 -25.0488 111.67 -21.2402 106.055 -21.2402 L 93.2129 -21.2402 L 93.2129 -8.44727 C 93.2129 -2.73438 89.4531 0.976562 83.7402 0.976562 L 74.7559 0.976562 C 69.0918 0.976562 65.2832 -2.73438 65.2832 -8.44727 L 65.2832 -21.2402 L 52.5391 -21.2402 C 46.875 -21.2402 43.0664 -25.0488 43.0664 -30.7129 Z"/>
  </g>
  <g id="Heavy-L" transform="matrix(1 0 0 1 2558.39 1556)">
   <path d="M 78.2715 31.8848 C 115.088 31.8848 145.312 1.66016 145.312 -35.1562 C 145.312 -71.9238 115.039 -102.148 78.2715 -102.148 C 41.4551 -102.148 11.2793 -71.9238 11.2793 -35.1562 C 11.2793 1.66016 41.5039 31.8848 78.2715 31.8848 Z M 42.2363 -30.2246 L 42.2363 -40.2344 C 42.2363 -45.459 45.752 -48.9746 50.9766 -48.9746 L 64.4043 -48.9746 L 64.4043 -62.3535 C 64.4043 -67.6758 67.9199 -71.1426 73.1934 -71.1426 L 83.2031 -71.1426 C 88.4766 -71.1426 91.9922 -67.6758 91.9922 -62.3535 L 91.9922 -48.9746 L 105.42 -48.9746 C 110.645 -48.9746 114.16 -45.459 114.16 -40.2344 L 114.16 -30.2246 C 114.16 -25 110.645 -21.4355 105.42 -21.4355 L 91.9922 -21.4355 L 91.9922 -8.05664 C 91.9922 -2.73438 88.4766 0.732422 83.2031 0.732422 L 73.1934 0.732422 C 67.9199 0.732422 64.4043 -2.73438 64.4043 -8.05664 L 64.4043 -21.4355 L 51.0254 -21.4355 C 45.8008 -21.4355 42.2363 -25 42.2363 -30.2246 Z"/>
  </g>
  <g id="Bold-L" transform="matrix(1 0 0 1 2262.88 1556)">
   <path d="M 77.0996 30.6641 C 113.232 30.6641 142.92 0.927734 142.92 -35.1562 C 142.92 -71.2891 113.184 -100.977 77.0508 -100.977 C 40.9668 -100.977 11.2793 -71.2891 11.2793 -35.1562 C 11.2793 0.927734 41.0156 30.6641 77.0996 30.6641 Z M 41.3574 -29.6875 L 41.3574 -40.8203 C 41.3574 -45.6055 44.5801 -48.8281 49.3652 -48.8281 L 63.4277 -48.8281 L 63.4277 -62.8418 C 63.4277 -67.7246 66.6504 -70.8984 71.4844 -70.8984 L 82.5684 -70.8984 C 87.4023 -70.8984 90.625 -67.7246 90.625 -62.8418 L 90.625 -48.8281 L 104.688 -48.8281 C 109.473 -48.8281 112.744 -45.6055 112.744 -40.8203 L 112.744 -29.6875 C 112.744 -24.9023 109.473 -21.6797 104.688 -21.6797 L 90.625 -21.6797 L 90.625 -7.61719 C 90.625 -2.73438 87.4023 0.439453 82.5684 0.439453 L 71.4844 0.439453 C 66.6504 0.439453 63.4277 -2.73438 63.4277 -7.61719 L 63.4277 -21.6797 L 49.3652 -21.6797 C 44.5801 -21.6797 41.3574 -24.9023 41.3574 -29.6875 Z"/>
  </g>
  <g id="Semibold-L" transform="matrix(1 0 0 1 1966.97 1556)">
   <path d="M 76.2695 29.834 C 111.914 29.834 141.309 0.439453 141.309 -35.1562 C 141.309 -70.8008 111.865 -100.195 76.2695 -100.195 C 40.625 -100.195 11.2793 -70.8008 11.2793 -35.1562 C 11.2793 0.439453 40.6738 29.834 76.2695 29.834 Z M 40.7227 -29.2969 L 40.7227 -41.2109 C 40.7227 -45.6543 43.7012 -48.7305 48.1934 -48.7305 L 62.7441 -48.7305 L 62.7441 -63.1836 C 62.7441 -67.7246 65.7715 -70.7031 70.2637 -70.7031 L 82.1289 -70.7031 C 86.6211 -70.7031 89.6484 -67.7246 89.6484 -63.1836 L 89.6484 -48.7305 L 104.199 -48.7305 C 108.691 -48.7305 111.719 -45.6543 111.719 -41.2109 L 111.719 -29.2969 C 111.719 -24.8535 108.691 -21.8262 104.199 -21.8262 L 89.6484 -21.8262 L 89.6484 -7.27539 C 89.6484 -2.73438 86.6211 0.244141 82.1289 0.244141 L 70.2637 0.244141 C 65.7715 0.244141 62.7441 -2.73438 62.7441 -7.27539 L 62.7441 -21.8262 L 48.2422 -21.8262 C 43.75 -21.8262 40.7227 -24.8535 40.7227 -29.2969 Z"/>
  </g>
  <g id="Medium-L" transform="matrix(1 0 0 1 1670.87 1556)">
   <path d="M 75.6836 29.1992 C 110.938 29.1992 140.088 0.0976562 140.088 -35.1562 C 140.088 -70.459 110.889 -99.5605 75.6348 -99.5605 C 40.3809 -99.5605 11.2793 -70.459 11.2793 -35.1562 C 11.2793 0.0976562 40.3809 29.1992 75.6836 29.1992 Z M 40.2344 -29.0039 L 40.2344 -41.5527 C 40.2344 -45.752 43.1152 -48.6328 47.3145 -48.6328 L 62.2559 -48.6328 L 62.2559 -63.4277 C 62.2559 -67.7734 65.0879 -70.6055 69.3359 -70.6055 L 81.8359 -70.6055 C 86.084 -70.6055 88.916 -67.7734 88.916 -63.4277 L 88.916 -48.6328 L 103.857 -48.6328 C 108.105 -48.6328 110.986 -45.752 110.986 -41.5527 L 110.986 -29.0039 C 110.986 -24.8047 108.105 -21.9238 103.857 -21.9238 L 88.916 -21.9238 L 88.916 -7.03125 C 88.916 -2.73438 86.084 0.0976562 81.8359 0.0976562 L 69.3359 0.0976562 C 65.0879 0.0976562 62.2559 -2.73438 62.2559 -7.03125 L 62.2559 -21.9238 L 47.3633 -21.9238 C 43.1152 -21.9238 40.2344 -24.8047 40.2344 -29.0039 Z"/>
  </g>
  <g id="Regular-L" transform="matrix(1 0 0 1 1374.97 1556)">
   <path d="M 74.8535 28.418 C 109.668 28.418 138.477 -0.390625 138.477 -35.2051 C 138.477 -69.9707 109.619 -98.7793 74.8047 -98.7793 C 40.0391 -98.7793 11.2793 -69.9707 11.2793 -35.2051 C 11.2793 -0.390625 40.0879 28.418 74.8535 28.418 Z M 39.6484 -28.6621 L 39.6484 -41.9434 C 39.6484 -45.8496 42.2852 -48.5352 46.1914 -48.5352 L 61.5723 -48.5352 L 61.5723 -63.7695 C 61.5723 -67.7734 64.209 -70.4102 68.1641 -70.4102 L 81.3965 -70.4102 C 85.3516 -70.4102 87.9883 -67.7734 87.9883 -63.7695 L 87.9883 -48.5352 L 103.369 -48.5352 C 107.275 -48.5352 109.961 -45.8496 109.961 -41.9434 L 109.961 -28.6621 C 109.961 -24.7559 107.275 -22.0703 103.369 -22.0703 L 87.9883 -22.0703 L 87.9883 -6.73828 C 87.9883 -2.73438 85.3516 -0.0976562 81.3965 -0.0976562 L 68.1641 -0.0976562 C 64.209 -0.0976562 61.5723 -2.73438 61.5723 -6.73828 L 61.5723 -22.0703 L 46.1914 -22.0703 C 42.334 -22.0703 39.6484 -24.7559 39.6484 -28.6621 Z"/>
  </g>
  <g id="Light-L" transform="matrix(1 0 0 1 1079.18 1556)">
   <path d="M 73.9258 27.4902 C 108.301 27.4902 136.621 -0.830078 136.621 -35.2051 C 136.621 -69.5312 108.252 -97.8516 73.9258 -97.8516 C 39.5508 -97.8516 11.2793 -69.5312 11.2793 -35.2051 C 11.2793 -0.830078 39.5996 27.4902 73.9258 27.4902 Z M 39.6973 -29.0039 L 39.6973 -41.6504 C 39.6973 -45.459 42.2852 -48.0957 46.1426 -48.0957 L 61.1816 -48.0957 L 61.1816 -63.0371 C 61.1816 -66.9434 63.7695 -69.5312 67.627 -69.5312 L 80.1758 -69.5312 C 84.0332 -69.5312 86.6211 -66.9434 86.6211 -63.0371 L 86.6211 -48.0957 L 101.66 -48.0957 C 105.518 -48.0957 108.154 -45.459 108.154 -41.6504 L 108.154 -29.0039 C 108.154 -25.1953 105.518 -22.5586 101.66 -22.5586 L 86.6211 -22.5586 L 86.6211 -7.56836 C 86.6211 -3.71094 84.0332 -1.12305 80.1758 -1.12305 L 67.627 -1.12305 C 63.7695 -1.12305 61.1816 -3.71094 61.1816 -7.56836 L 61.1816 -22.5586 L 46.1426 -22.5586 C 42.334 -22.5586 39.6973 -25.1953 39.6973 -29.0039 Z"/>
  </g>
  <g id="Thin-L" transform="matrix(1 0 0 1 783.693 1556)">
   <path d="M 72.7051 26.2695 C 106.494 26.2695 134.18 -1.41602 134.18 -35.2051 C 134.18 -68.9453 106.494 -96.6309 72.7051 -96.6309 C 38.9648 -96.6309 11.2793 -68.9453 11.2793 -35.2051 C 11.2793 -1.41602 38.9648 26.2695 72.7051 26.2695 Z M 39.7949 -29.4922 L 39.7949 -41.2598 C 39.7949 -44.9707 42.2852 -47.5098 46.0449 -47.5098 L 60.6445 -47.5098 L 60.6445 -62.0605 C 60.6445 -65.8203 63.1348 -68.3105 66.8945 -68.3105 L 78.6133 -68.3105 C 82.3242 -68.3105 84.8633 -65.8203 84.8633 -62.0605 L 84.8633 -47.5098 L 99.4629 -47.5098 C 103.174 -47.5098 105.713 -44.9707 105.713 -41.2598 L 105.713 -29.4922 C 105.713 -25.7812 103.174 -23.291 99.4629 -23.291 L 84.8633 -23.291 L 84.8633 -8.69141 C 84.8633 -4.93164 82.3242 -2.44141 78.6133 -2.44141 L 66.8945 -2.44141 C 63.1348 -2.44141 60.6445 -4.93164 60.6445 -8.69141 L 60.6445 -23.291 L 46.0449 -23.291 C 42.334 -23.291 39.7949 -25.7812 39.7949 -29.4922 Z"/>
  </g>
  <g id="Ultralight-L" transform="matrix(1 0 0 1 487.616 1556)">
   <path d="M 72.1191 25.6348 C 105.566 25.6348 132.91 -1.70898 132.91 -35.2051 C 132.91 -68.6523 105.566 -95.9961 72.1191 -95.9961 C 38.623 -95.9961 11.2793 -68.6523 11.2793 -35.2051 C 11.2793 -1.70898 38.623 25.6348 72.1191 25.6348 Z M 39.8438 -29.7852 L 39.8438 -41.0645 C 39.8438 -44.7266 42.334 -47.168 45.9961 -47.168 L 60.3516 -47.168 L 60.3516 -61.5723 C 60.3516 -65.2344 62.8418 -67.7246 66.5039 -67.7246 L 77.7832 -67.7246 C 81.4453 -67.7246 83.9355 -65.2344 83.9355 -61.5723 L 83.9355 -47.168 L 98.291 -47.168 C 101.953 -47.168 104.443 -44.7266 104.443 -41.0645 L 104.443 -29.7852 C 104.443 -26.0742 101.953 -23.6328 98.291 -23.6328 L 83.9355 -23.6328 L 83.9355 -9.22852 C 83.9355 -5.56641 81.4453 -3.125 77.7832 -3.125 L 66.5039 -3.125 C 62.8418 -3.125 60.3516 -5.56641 60.3516 -9.22852 L 60.3516 -23.6328 L 45.9961 -23.6328 C 42.334 -23.6328 39.8438 -26.0742 39.8438 -29.7852 Z"/>
  </g>
  <g id="Black-M" transform="matrix(1 0 0 1 2870.97 1126)">
   <path d="M 62.4023 18.5547 C 91.9922 18.5547 116.113 -5.56641 116.113 -35.1562 C 116.113 -64.7461 91.9922 -88.8184 62.4023 -88.8184 C 32.8125 -88.8184 8.74023 -64.7461 8.74023 -35.1562 C 8.74023 -5.56641 32.8125 18.5547 62.4023 18.5547 Z M 34.5215 -32.5684 L 34.5215 -37.8906 C 34.5215 -42.7246 37.793 -45.9961 42.627 -45.9961 L 51.5625 -45.9961 L 51.5625 -54.9316 C 51.5625 -59.8145 54.834 -63.0371 59.7656 -63.0371 L 65.0391 -63.0371 C 69.9219 -63.0371 73.1934 -59.8145 73.1934 -54.9316 L 73.1934 -45.9961 L 82.1777 -45.9961 C 87.0117 -45.9961 90.2832 -42.7246 90.2832 -37.8906 L 90.2832 -32.5684 C 90.2832 -27.6855 87.0117 -24.4141 82.1777 -24.4141 L 73.1934 -24.4141 L 73.1934 -15.4785 C 73.1934 -10.5469 69.9219 -7.37305 65.0391 -7.37305 L 59.7656 -7.37305 C 54.834 -7.37305 51.5625 -10.5469 51.5625 -15.4785 L 51.5625 -24.4141 L 42.6758 -24.4141 C 37.793 -24.4141 34.5215 -27.6855 34.5215 -32.5684 Z"/>
  </g>
  <g id="Heavy-M" transform="matrix(1 0 0 1 2575.19 1126)">
   <path d="M 61.5234 17.627 C 90.5273 17.627 114.258 -6.10352 114.258 -35.1562 C 114.258 -64.1602 90.5273 -87.8906 61.4746 -87.8906 C 32.4707 -87.8906 8.74023 -64.1602 8.74023 -35.1562 C 8.74023 -6.10352 32.4707 17.627 61.5234 17.627 Z M 33.5938 -31.9824 L 33.5938 -38.5254 C 33.5938 -42.9199 36.5723 -45.9473 41.0156 -45.9473 L 50.7324 -45.9473 L 50.7324 -55.6152 C 50.7324 -60.1074 53.7109 -63.0371 58.2031 -63.0371 L 64.7461 -63.0371 C 69.1895 -63.0371 72.2168 -60.1074 72.2168 -55.6152 L 72.2168 -45.9473 L 81.8848 -45.9473 C 86.3281 -45.9473 89.3066 -42.9199 89.3066 -38.5254 L 89.3066 -31.9824 C 89.3066 -27.4902 86.3281 -24.5117 81.8848 -24.5117 L 72.2168 -24.5117 L 72.2168 -14.7949 C 72.2168 -10.3027 69.1895 -7.37305 64.7461 -7.37305 L 58.2031 -7.37305 C 53.7109 -7.37305 50.7324 -10.3027 50.7324 -14.7949 L 50.7324 -24.5117 L 41.0645 -24.5117 C 36.6211 -24.5117 33.5938 -27.4902 33.5938 -31.9824 Z"/>
  </g>
  <g id="Bold-M" transform="matrix(1 0 0 1 2279.5 1126)">
   <path d="M 60.498 16.5527 C 88.8672 16.5527 112.207 -6.73828 112.207 -35.1562 C 112.207 -63.5742 88.8672 -86.9141 60.4492 -86.9141 C 32.0312 -86.9141 8.74023 -63.5742 8.74023 -35.1562 C 8.74023 -6.73828 32.0801 16.5527 60.498 16.5527 Z M 32.6172 -31.25 L 32.6172 -39.209 C 32.6172 -43.1641 35.2539 -45.8984 39.2578 -45.8984 L 49.7559 -45.8984 L 49.7559 -56.3477 C 49.7559 -60.4004 52.4414 -63.0371 56.4453 -63.0371 L 64.4043 -63.0371 C 68.4082 -63.0371 71.0938 -60.4004 71.0938 -56.3477 L 71.0938 -45.8984 L 81.5918 -45.8984 C 85.5957 -45.8984 88.2812 -43.1641 88.2812 -39.209 L 88.2812 -31.25 C 88.2812 -27.2949 85.5957 -24.5605 81.5918 -24.5605 L 71.0938 -24.5605 L 71.0938 -14.0625 C 71.0938 -10.0586 68.4082 -7.42188 64.4043 -7.42188 L 56.4453 -7.42188 C 52.4414 -7.42188 49.7559 -10.0586 49.7559 -14.0625 L 49.7559 -24.5605 L 39.2578 -24.5605 C 35.3027 -24.5605 32.6172 -27.2949 32.6172 -31.25 Z"/>
  </g>
  <g id="Semibold-M" transform="matrix(1 0 0 1 1983.5 1126)">
   <path d="M 59.7656 15.8691 C 87.7441 15.8691 110.791 -7.22656 110.791 -35.1562 C 110.791 -63.1348 87.6953 -86.2305 59.7656 -86.2305 C 31.7871 -86.2305 8.74023 -63.1348 8.74023 -35.1562 C 8.74023 -7.22656 31.7871 15.8691 59.7656 15.8691 Z M 31.8848 -30.7617 L 31.8848 -39.7461 C 31.8848 -43.3594 34.375 -45.8496 37.9883 -45.8496 L 49.1211 -45.8496 L 49.1211 -56.8848 C 49.1211 -60.5957 51.5625 -63.0371 55.2246 -63.0371 L 64.1602 -63.0371 C 67.8711 -63.0371 70.3125 -60.5957 70.3125 -56.8848 L 70.3125 -45.8496 L 81.3965 -45.8496 C 85.0586 -45.8496 87.5488 -43.3594 87.5488 -39.7461 L 87.5488 -30.7617 C 87.5488 -27.0996 85.0586 -24.6094 81.3965 -24.6094 L 70.3125 -24.6094 L 70.3125 -13.5742 C 70.3125 -9.86328 67.8711 -7.42188 64.1602 -7.42188 L 55.2246 -7.42188 C 51.5625 -7.42188 49.1211 -9.86328 49.1211 -13.5742 L 49.1211 -24.6094 L 38.0371 -24.6094 C 34.375 -24.6094 31.8848 -27.0996 31.8848 -30.7617 Z"/>
  </g>
  <g id="Medium-M" transform="matrix(1 0 0 1 1687.3 1126)">
   <path d="M 59.2285 15.332 C 86.9141 15.332 109.766 -7.51953 109.766 -35.2051 C 109.766 -62.8418 86.8652 -85.6934 59.1797 -85.6934 C 31.543 -85.6934 8.74023 -62.8418 8.74023 -35.2051 C 8.74023 -7.51953 31.5918 15.332 59.2285 15.332 Z M 31.3477 -30.4199 L 31.3477 -40.0879 C 31.3477 -43.5059 33.6426 -45.8008 37.0605 -45.8008 L 48.6328 -45.8008 L 48.6328 -57.2754 C 48.6328 -60.7422 50.8789 -63.0371 54.3457 -63.0371 L 64.0137 -63.0371 C 67.4316 -63.0371 69.7266 -60.7422 69.7266 -57.2754 L 69.7266 -45.8008 L 81.25 -45.8008 C 84.668 -45.8008 87.0117 -43.5059 87.0117 -40.0879 L 87.0117 -30.4199 C 87.0117 -27.002 84.668 -24.6582 81.25 -24.6582 L 69.7266 -24.6582 L 69.7266 -13.1836 C 69.7266 -9.7168 67.4316 -7.42188 64.0137 -7.42188 L 54.3457 -7.42188 C 50.8789 -7.42188 48.6328 -9.7168 48.6328 -13.1836 L 48.6328 -24.6582 L 37.1094 -24.6582 C 33.6914 -24.6582 31.3477 -27.002 31.3477 -30.4199 Z"/>
  </g>
  <g id="Regular-M" transform="matrix(1 0 0 1 1391.3 1126)">
   <path d="M 58.5449 14.5996 C 85.791 14.5996 108.35 -7.95898 108.35 -35.2051 C 108.35 -62.4023 85.7422 -85.0098 58.4961 -85.0098 C 31.2988 -85.0098 8.74023 -62.4023 8.74023 -35.2051 C 8.74023 -7.95898 31.3477 14.5996 58.5449 14.5996 Z M 30.6641 -29.9316 L 30.6641 -40.5762 C 30.6641 -43.6523 32.7637 -45.8008 35.8398 -45.8008 L 47.9492 -45.8008 L 47.9492 -57.7637 C 47.9492 -60.9375 50.0488 -63.0371 53.125 -63.0371 L 63.7695 -63.0371 C 66.8945 -63.0371 68.9453 -60.9375 68.9453 -57.7637 L 68.9453 -45.8008 L 81.0547 -45.8008 C 84.1797 -45.8008 86.2793 -43.6523 86.2793 -40.5762 L 86.2793 -29.9316 C 86.2793 -26.8555 84.1797 -24.7559 81.0547 -24.7559 L 68.9453 -24.7559 L 68.9453 -12.6953 C 68.9453 -9.52148 66.8945 -7.4707 63.7695 -7.4707 L 53.125 -7.4707 C 50.0488 -7.4707 47.9492 -9.52148 47.9492 -12.6953 L 47.9492 -24.7559 L 35.8398 -24.7559 C 32.8125 -24.7559 30.6641 -26.8555 30.6641 -29.9316 Z"/>
  </g>
  <g id="Light-M" transform="matrix(1 0 0 1 1095.42 1126)">
   <path d="M 57.7148 13.7695 C 84.5215 13.7695 106.689 -8.34961 106.689 -35.2051 C 106.689 -62.0117 84.5215 -84.1797 57.666 -84.1797 C 30.8594 -84.1797 8.74023 -62.0117 8.74023 -35.2051 C 8.74023 -8.34961 30.9082 13.7695 57.7148 13.7695 Z M 30.7617 -30.2734 L 30.7617 -40.332 C 30.7617 -43.3105 32.7637 -45.3613 35.791 -45.3613 L 47.6074 -45.3613 L 47.6074 -57.1289 C 47.6074 -60.1562 49.6094 -62.207 52.6367 -62.207 L 62.6953 -62.207 C 65.7227 -62.207 67.7246 -60.1562 67.7246 -57.1289 L 67.7246 -45.3613 L 79.541 -45.3613 C 82.5684 -45.3613 84.6191 -43.3105 84.6191 -40.332 L 84.6191 -30.2734 C 84.6191 -27.2461 82.5684 -25.1953 79.541 -25.1953 L 67.7246 -25.1953 L 67.7246 -13.4277 C 67.7246 -10.3516 65.7227 -8.34961 62.6953 -8.34961 L 52.6367 -8.34961 C 49.6094 -8.34961 47.6074 -10.3516 47.6074 -13.4277 L 47.6074 -25.1953 L 35.791 -25.1953 C 32.8125 -25.1953 30.7617 -27.2461 30.7617 -30.2734 Z"/>
  </g>
  <g id="Thin-M" transform="matrix(1 0 0 1 799.806 1126)">
   <path d="M 56.6406 12.6953 C 82.9102 12.6953 104.492 -8.88672 104.492 -35.2051 C 104.492 -61.4746 82.9102 -83.0566 56.5918 -83.0566 C 30.3223 -83.0566 8.74023 -61.4746 8.74023 -35.2051 C 8.74023 -8.88672 30.3223 12.6953 56.6406 12.6953 Z M 30.8105 -30.7129 L 30.8105 -39.9902 C 30.8105 -42.8711 32.8125 -44.873 35.6934 -44.873 L 47.1191 -44.873 L 47.1191 -56.25 C 47.1191 -59.1797 49.0723 -61.1328 52.002 -61.1328 L 61.2793 -61.1328 C 64.209 -61.1328 66.1621 -59.1797 66.1621 -56.25 L 66.1621 -44.873 L 77.5391 -44.873 C 80.4688 -44.873 82.4219 -42.8711 82.4219 -39.9902 L 82.4219 -30.7129 C 82.4219 -27.7832 80.4688 -25.8301 77.5391 -25.8301 L 66.1621 -25.8301 L 66.1621 -14.4043 C 66.1621 -11.4746 64.209 -9.52148 61.2793 -9.52148 L 52.002 -9.52148 C 49.0723 -9.52148 47.1191 -11.4746 47.1191 -14.4043 L 47.1191 -25.8301 L 35.6934 -25.8301 C 32.8125 -25.8301 30.8105 -27.7832 30.8105 -30.7129 Z"/>
  </g>
  <g id="Ultralight-M" transform="matrix(1 0 0 1 503.656 1126)">
   <path d="M 56.0547 12.1094 C 82.0801 12.1094 103.369 -9.17969 103.369 -35.2051 C 103.369 -61.2305 82.0801 -82.5195 56.0547 -82.5195 C 30.0293 -82.5195 8.74023 -61.2305 8.74023 -35.2051 C 8.74023 -9.17969 30.0293 12.1094 56.0547 12.1094 Z M 30.8594 -30.9082 L 30.8594 -39.7949 C 30.8594 -42.6758 32.8125 -44.5801 35.6445 -44.5801 L 46.875 -44.5801 L 46.875 -55.8105 C 46.875 -58.6426 48.7793 -60.5957 51.6602 -60.5957 L 60.5469 -60.5957 C 63.3789 -60.5957 65.332 -58.6426 65.332 -55.8105 L 65.332 -44.5801 L 76.5137 -44.5801 C 79.3945 -44.5801 81.2988 -42.6758 81.2988 -39.7949 L 81.2988 -30.9082 C 81.2988 -28.0762 79.3945 -26.123 76.5137 -26.123 L 65.332 -26.123 L 65.332 -14.9414 C 65.332 -12.0605 63.3789 -10.1074 60.5469 -10.1074 L 51.6602 -10.1074 C 48.7793 -10.1074 46.875 -12.0605 46.875 -14.9414 L 46.875 -26.123 L 35.6445 -26.123 C 32.8125 -26.123 30.8594 -28.0762 30.8594 -30.9082 Z"/>
  </g>
  <g id="Black-S" transform="matrix(1 0 0 1 2884.57 696)">
   <path d="M 48.8281 6.83594 C 71.9727 6.83594 90.8203 -12.0117 90.8203 -35.1562 C 90.8203 -58.3008 71.9727 -77.1484 48.8281 -77.1484 C 25.6836 -77.1484 6.83594 -58.3008 6.83594 -35.1562 C 6.83594 -12.0117 25.6836 6.83594 48.8281 6.83594 Z M 26.9531 -33.1055 L 26.9531 -37.3535 C 26.9531 -41.1133 29.4922 -43.6523 33.252 -43.6523 L 40.332 -43.6523 L 40.332 -50.7324 C 40.332 -54.541 42.8711 -57.0312 46.6797 -57.0312 L 50.9277 -57.0312 C 54.7363 -57.0312 57.2754 -54.541 57.2754 -50.7324 L 57.2754 -43.6523 L 64.3555 -43.6523 C 68.1152 -43.6523 70.6543 -41.1133 70.6543 -37.3535 L 70.6543 -33.1055 C 70.6543 -29.2969 68.1152 -26.7578 64.3555 -26.7578 L 57.2754 -26.7578 L 57.2754 -19.6777 C 57.2754 -15.8691 54.7363 -13.3789 50.9277 -13.3789 L 46.6797 -13.3789 C 42.8711 -13.3789 40.332 -15.8691 40.332 -19.6777 L 40.332 -26.7578 L 33.3008 -26.7578 C 29.4922 -26.7578 26.9531 -29.2969 26.9531 -33.1055 Z"/>
  </g>
  <g id="Heavy-S" transform="matrix(1 0 0 1 2588.47 696)">
   <path d="M 48.2422 6.20117 C 70.9961 6.20117 89.5996 -12.4023 89.5996 -35.1562 C 89.5996 -57.9102 70.9961 -76.5625 48.1934 -76.5625 C 25.4395 -76.5625 6.83594 -57.9102 6.83594 -35.1562 C 6.83594 -12.4023 25.4395 6.20117 48.2422 6.20117 Z M 26.2695 -32.5684 L 26.2695 -37.8906 C 26.2695 -41.3086 28.5645 -43.6523 32.0312 -43.6523 L 39.6973 -43.6523 L 39.6973 -51.3184 C 39.6973 -54.834 42.041 -57.1289 45.5566 -57.1289 L 50.8301 -57.1289 C 54.2969 -57.1289 56.6406 -54.834 56.6406 -51.3184 L 56.6406 -43.6523 L 64.3066 -43.6523 C 67.7734 -43.6523 70.1172 -41.3086 70.1172 -37.8906 L 70.1172 -32.5684 C 70.1172 -29.1016 67.7734 -26.7578 64.3066 -26.7578 L 56.6406 -26.7578 L 56.6406 -19.0918 C 56.6406 -15.5762 54.2969 -13.2812 50.8301 -13.2812 L 45.5566 -13.2812 C 42.041 -13.2812 39.6973 -15.5762 39.6973 -19.0918 L 39.6973 -26.7578 L 32.0801 -26.7578 C 28.6133 -26.7578 26.2695 -29.1016 26.2695 -32.5684 Z"/>
  </g>
  <g id="Bold-S" transform="matrix(1 0 0 1 2292.44 696)">
   <path d="M 47.5586 5.51758 C 69.873 5.51758 88.2324 -12.8418 88.2324 -35.2051 C 88.2324 -57.5195 69.873 -75.8789 47.5098 -75.8789 C 25.1953 -75.8789 6.83594 -57.5195 6.83594 -35.2051 C 6.83594 -12.8418 25.1953 5.51758 47.5586 5.51758 Z M 25.4883 -32.0312 L 25.4883 -38.4766 C 25.4883 -41.5527 27.5879 -43.6523 30.6641 -43.6523 L 39.0137 -43.6523 L 39.0137 -51.9531 C 39.0137 -55.127 41.1133 -57.2266 44.2871 -57.2266 L 50.6836 -57.2266 C 53.8574 -57.2266 55.957 -55.127 55.957 -51.9531 L 55.957 -43.6523 L 64.3066 -43.6523 C 67.3828 -43.6523 69.5312 -41.5527 69.5312 -38.4766 L 69.5312 -32.0312 C 69.5312 -28.9062 67.3828 -26.7578 64.3066 -26.7578 L 55.957 -26.7578 L 55.957 -18.457 C 55.957 -15.2832 53.8574 -13.1836 50.6836 -13.1836 L 44.2871 -13.1836 C 41.1133 -13.1836 39.0137 -15.2832 39.0137 -18.457 L 39.0137 -26.7578 L 30.7129 -26.7578 C 27.5879 -26.7578 25.4883 -28.9062 25.4883 -32.0312 Z"/>
  </g>
  <g id="Semibold-S" transform="matrix(1 0 0 1 1996.2 696)">
   <path d="M 47.0703 5.0293 C 69.0918 5.0293 87.3047 -13.1348 87.3047 -35.2051 C 87.3047 -57.2266 69.0918 -75.4395 47.0215 -75.4395 C 25 -75.4395 6.83594 -57.2266 6.83594 -35.2051 C 6.83594 -13.1348 25.0488 5.0293 47.0703 5.0293 Z M 24.9512 -31.5918 L 24.9512 -38.8672 C 24.9512 -41.6992 26.8555 -43.7012 29.7363 -43.7012 L 38.5742 -43.7012 L 38.5742 -52.4414 C 38.5742 -55.3711 40.4785 -57.2754 43.4082 -57.2754 L 50.6348 -57.2754 C 53.5156 -57.2754 55.4688 -55.3711 55.4688 -52.4414 L 55.4688 -43.7012 L 64.2578 -43.7012 C 67.1387 -43.7012 69.0918 -41.6992 69.0918 -38.8672 L 69.0918 -31.5918 C 69.0918 -28.7598 67.1387 -26.7578 64.2578 -26.7578 L 55.4688 -26.7578 L 55.4688 -17.9688 C 55.4688 -15.0391 53.5156 -13.1348 50.6348 -13.1348 L 43.4082 -13.1348 C 40.4785 -13.1348 38.5742 -15.0391 38.5742 -17.9688 L 38.5742 -26.7578 L 29.7852 -26.7578 C 26.9043 -26.7578 24.9512 -28.7598 24.9512 -31.5918 Z"/>
  </g>
  <g id="Medium-S" transform="matrix(1 0 0 1 1699.83 696)">
   <path d="M 46.7285 4.6875 C 68.5547 4.6875 86.6211 -13.3789 86.6211 -35.2051 C 86.6211 -57.0312 68.5059 -75.0977 46.6797 -75.0977 C 24.8535 -75.0977 6.83594 -57.0312 6.83594 -35.2051 C 6.83594 -13.3789 24.9023 4.6875 46.7285 4.6875 Z M 24.5117 -31.2988 L 24.5117 -39.1602 C 24.5117 -41.8457 26.3184 -43.7012 29.0527 -43.7012 L 38.1836 -43.7012 L 38.1836 -52.7832 C 38.1836 -55.5176 40.0391 -57.3242 42.7246 -57.3242 L 50.5371 -57.3242 C 53.2715 -57.3242 55.0781 -55.5176 55.0781 -52.7832 L 55.0781 -43.7012 L 64.2578 -43.7012 C 66.9434 -43.7012 68.7988 -41.8457 68.7988 -39.1602 L 68.7988 -31.2988 C 68.7988 -28.6133 66.9434 -26.7578 64.2578 -26.7578 L 55.0781 -26.7578 L 55.0781 -17.627 C 55.0781 -14.8926 53.2715 -13.0859 50.5371 -13.0859 L 42.7246 -13.0859 C 40.0391 -13.0859 38.1836 -14.8926 38.1836 -17.627 L 38.1836 -26.7578 L 29.0527 -26.7578 C 26.3672 -26.7578 24.5117 -28.6133 24.5117 -31.2988 Z"/>
  </g>
  <g id="Regular-S" transform="matrix(1 0 0 1 1403.58 696)">
   <path d="M 46.2402 4.19922 C 67.7734 4.19922 85.6934 -13.6719 85.6934 -35.2051 C 85.6934 -56.7383 67.7246 -74.6094 46.1914 -74.6094 C 24.707 -74.6094 6.83594 -56.7383 6.83594 -35.2051 C 6.83594 -13.6719 24.7559 4.19922 46.2402 4.19922 Z M 23.9746 -30.9082 L 23.9746 -39.5508 C 23.9746 -41.9922 25.6348 -43.7012 28.125 -43.7012 L 37.7441 -43.7012 L 37.7441 -53.2227 C 37.7441 -55.7617 39.4043 -57.373 41.8457 -57.373 L 50.4883 -57.373 C 52.9297 -57.373 54.5898 -55.7617 54.5898 -53.2227 L 54.5898 -43.7012 L 64.209 -43.7012 C 66.6992 -43.7012 68.4082 -41.9922 68.4082 -39.5508 L 68.4082 -30.9082 C 68.4082 -28.4668 66.6992 -26.7578 64.209 -26.7578 L 54.5898 -26.7578 L 54.5898 -17.1875 C 54.5898 -14.6973 52.9297 -13.0371 50.4883 -13.0371 L 41.8457 -13.0371 C 39.4043 -13.0371 37.7441 -14.6973 37.7441 -17.1875 L 37.7441 -26.7578 L 28.125 -26.7578 C 25.6836 -26.7578 23.9746 -28.4668 23.9746 -30.9082 Z"/>
  </g>
  <g id="Light-S" transform="matrix(1 0 0 1 1107.6 696)">
   <path d="M 45.5078 3.4668 C 66.6992 3.4668 84.2285 -14.0137 84.2285 -35.2051 C 84.2285 -56.3965 66.6504 -73.877 45.5078 -73.877 C 24.3164 -73.877 6.83594 -56.3965 6.83594 -35.2051 C 6.83594 -14.0137 24.3652 3.4668 45.5078 3.4668 Z M 24.0234 -31.2012 L 24.0234 -39.3066 C 24.0234 -41.6992 25.6348 -43.3594 28.0762 -43.3594 L 37.4023 -43.3594 L 37.4023 -52.6367 C 37.4023 -55.0781 39.0137 -56.6895 41.4062 -56.6895 L 49.5117 -56.6895 C 51.9043 -56.6895 53.5156 -55.0781 53.5156 -52.6367 L 53.5156 -43.3594 L 62.8906 -43.3594 C 65.2832 -43.3594 66.9434 -41.6992 66.9434 -39.3066 L 66.9434 -31.2012 C 66.9434 -28.8086 65.2832 -27.1973 62.8906 -27.1973 L 53.5156 -27.1973 L 53.5156 -17.8711 C 53.5156 -15.4297 51.9043 -13.8184 49.5117 -13.8184 L 41.4062 -13.8184 C 39.0137 -13.8184 37.4023 -15.4297 37.4023 -17.8711 L 37.4023 -27.1973 L 28.0762 -27.1973 C 25.6836 -27.1973 24.0234 -28.8086 24.0234 -31.2012 Z"/>
  </g>
  <g id="Thin-S" transform="matrix(1 0 0 1 811.867 696)">
   <path d="M 44.5801 2.53906 C 65.2832 2.53906 82.2754 -14.502 82.2754 -35.2051 C 82.2754 -55.9082 65.2344 -72.9492 44.5312 -72.9492 C 23.8281 -72.9492 6.83594 -55.9082 6.83594 -35.2051 C 6.83594 -14.502 23.877 2.53906 44.5801 2.53906 Z M 24.1211 -31.5918 L 24.1211 -39.0137 C 24.1211 -41.3086 25.6836 -42.8711 27.9785 -42.8711 L 37.0117 -42.8711 L 37.0117 -51.8555 C 37.0117 -54.1992 38.5254 -55.7129 40.8691 -55.7129 L 48.2422 -55.7129 C 50.5859 -55.7129 52.0996 -54.1992 52.0996 -51.8555 L 52.0996 -42.8711 L 61.1328 -42.8711 C 63.4277 -42.8711 64.9902 -41.3086 64.9902 -39.0137 L 64.9902 -31.5918 C 64.9902 -29.2969 63.4277 -27.7344 61.1328 -27.7344 L 52.0996 -27.7344 L 52.0996 -18.75 C 52.0996 -16.4062 50.5859 -14.8438 48.2422 -14.8438 L 40.8691 -14.8438 C 38.5254 -14.8438 37.0117 -16.4062 37.0117 -18.75 L 37.0117 -27.7344 L 27.9785 -27.7344 C 25.6836 -27.7344 24.1211 -29.2969 24.1211 -31.5918 Z"/>
  </g>
  <g id="Ultralight-S" transform="matrix(1 0 0 1 515.644 696)">
   <path d="M 44.043 2.00195 C 64.502 2.00195 81.2988 -14.7461 81.2988 -35.2051 C 81.2988 -55.6641 64.502 -72.4121 44.043 -72.4121 C 23.584 -72.4121 6.83594 -55.6641 6.83594 -35.2051 C 6.83594 -14.7461 23.584 2.00195 44.043 2.00195 Z M 24.1699 -31.7871 L 24.1699 -38.8672 C 24.1699 -41.1133 25.6836 -42.627 27.9297 -42.627 L 36.7676 -42.627 L 36.7676 -51.4648 C 36.7676 -53.7109 38.2812 -55.2246 40.5273 -55.2246 L 47.6074 -55.2246 C 49.8535 -55.2246 51.3672 -53.7109 51.3672 -51.4648 L 51.3672 -42.627 L 60.2051 -42.627 C 62.4512 -42.627 64.0137 -41.1133 64.0137 -38.8672 L 64.0137 -31.7871 C 64.0137 -29.541 62.4512 -28.0273 60.2051 -28.0273 L 51.3672 -28.0273 L 51.3672 -19.1895 C 51.3672 -16.9434 49.8535 -15.3809 47.6074 -15.3809 L 40.5273 -15.3809 C 38.2812 -15.3809 36.7676 -16.9434 36.7676 -19.1895 L 36.7676 -28.0273 L 27.9297 -28.0273 C 25.6836 -28.0273 24.1699 -29.541 24.1699 -31.7871 Z"/>
  </g>
 </g>
</svg>
