<?xml version="1.0" encoding="UTF-8"?>
<!--Generator: Apple Native CoreSVG 148-->
<!DOCTYPE svg
PUBLIC "-//W3C//DTD SVG 1.1//EN"
       "http://www.w3.org/Graphics/SVG/1.1/DTD/svg11.dtd">
<svg version="1.1" xmlns="http://www.w3.org/2000/svg" xmlns:xlink="http://www.w3.org/1999/xlink" width="3300" height="2200">
 <!--glyph: "uni100853.medium", point size: 100.000000, font version: "Version 16.0d11e1", template writer version: "8"-->
 <g id="Notes">
  <rect height="2200" id="artboard" style="fill:white;opacity:1" width="3300" x="0" y="0"/>
  <line id="" style="fill:none;stroke:black;opacity:1;stroke-width:0.5;" x1="263" x2="3036" y1="292" y2="292"/>
  <text style="stroke:none;fill:black;font-family:-apple-system,&quot;SF Pro Display&quot;,&quot;SF Pro Text&quot;,Helvetica,sans-serif;font-weight:bold;" transform="matrix(1 0 0 1 263 322)">Weight/Scale Variations</text>
  <text style="stroke:none;fill:black;font-family:-apple-system,&quot;SF Pro Display&quot;,&quot;SF Pro Text&quot;,Helvetica,sans-serif;text-anchor:middle;" transform="matrix(1 0 0 1 559.711 322)">Ultralight</text>
  <text style="stroke:none;fill:black;font-family:-apple-system,&quot;SF Pro Display&quot;,&quot;SF Pro Text&quot;,Helvetica,sans-serif;text-anchor:middle;" transform="matrix(1 0 0 1 856.422 322)">Thin</text>
  <text style="stroke:none;fill:black;font-family:-apple-system,&quot;SF Pro Display&quot;,&quot;SF Pro Text&quot;,Helvetica,sans-serif;text-anchor:middle;" transform="matrix(1 0 0 1 1153.13 322)">Light</text>
  <text style="stroke:none;fill:black;font-family:-apple-system,&quot;SF Pro Display&quot;,&quot;SF Pro Text&quot;,Helvetica,sans-serif;text-anchor:middle;" transform="matrix(1 0 0 1 1449.84 322)">Regular</text>
  <text style="stroke:none;fill:black;font-family:-apple-system,&quot;SF Pro Display&quot;,&quot;SF Pro Text&quot;,Helvetica,sans-serif;text-anchor:middle;" transform="matrix(1 0 0 1 1746.56 322)">Medium</text>
  <text style="stroke:none;fill:black;font-family:-apple-system,&quot;SF Pro Display&quot;,&quot;SF Pro Text&quot;,Helvetica,sans-serif;text-anchor:middle;" transform="matrix(1 0 0 1 2043.27 322)">Semibold</text>
  <text style="stroke:none;fill:black;font-family:-apple-system,&quot;SF Pro Display&quot;,&quot;SF Pro Text&quot;,Helvetica,sans-serif;text-anchor:middle;" transform="matrix(1 0 0 1 2339.98 322)">Bold</text>
  <text style="stroke:none;fill:black;font-family:-apple-system,&quot;SF Pro Display&quot;,&quot;SF Pro Text&quot;,Helvetica,sans-serif;text-anchor:middle;" transform="matrix(1 0 0 1 2636.69 322)">Heavy</text>
  <text style="stroke:none;fill:black;font-family:-apple-system,&quot;SF Pro Display&quot;,&quot;SF Pro Text&quot;,Helvetica,sans-serif;text-anchor:middle;" transform="matrix(1 0 0 1 2933.4 322)">Black</text>
  <line id="" style="fill:none;stroke:black;opacity:1;stroke-width:0.5;" x1="263" x2="3036" y1="1903" y2="1903"/>
  <g id="" transform="matrix(1 0 0 1 263 1933)">
   <path d="M 9.24805 0.830078 C 13.5547 0.830078 17.1387 -2.74414 17.1387 -7.05078 C 17.1387 -11.3574 13.5449 -14.9316 9.23828 -14.9316 C 4.94141 -14.9316 1.36719 -11.3574 1.36719 -7.05078 C 1.36719 -2.74414 4.95117 0.830078 9.24805 0.830078 Z M 9.24805 -0.654297 C 5.70312 -0.654297 2.87109 -3.49609 2.87109 -7.05078 C 2.87109 -10.6055 5.69336 -13.4473 9.23828 -13.4473 C 12.793 -13.4473 15.6348 -10.6055 15.6445 -7.05078 C 15.6543 -3.49609 12.8027 -0.654297 9.24805 -0.654297 Z M 9.22852 -3.62305 C 9.69727 -3.62305 9.9707 -3.93555 9.9707 -4.45312 L 9.9707 -6.31836 L 12.002 -6.31836 C 12.5 -6.31836 12.832 -6.57227 12.832 -7.04102 C 12.832 -7.51953 12.5195 -7.7832 12.002 -7.7832 L 9.9707 -7.7832 L 9.9707 -9.81445 C 9.9707 -10.332 9.69727 -10.6543 9.22852 -10.6543 C 8.75977 -10.6543 8.50586 -10.3125 8.50586 -9.81445 L 8.50586 -7.7832 L 6.49414 -7.7832 C 5.97656 -7.7832 5.64453 -7.51953 5.64453 -7.04102 C 5.64453 -6.57227 5.99609 -6.31836 6.49414 -6.31836 L 8.50586 -6.31836 L 8.50586 -4.45312 C 8.50586 -3.95508 8.75977 -3.62305 9.22852 -3.62305 Z"/>
  </g>
  <g id="" transform="matrix(1 0 0 1 281.506 1933)">
   <path d="M 11.709 2.91016 C 17.1582 2.91016 21.6699 -1.61133 21.6699 -7.05078 C 21.6699 -12.5 17.1484 -17.0117 11.6992 -17.0117 C 6.25977 -17.0117 1.74805 -12.5 1.74805 -7.05078 C 1.74805 -1.61133 6.26953 2.91016 11.709 2.91016 Z M 11.709 1.25 C 7.09961 1.25 3.41797 -2.44141 3.41797 -7.05078 C 3.41797 -11.6602 7.08984 -15.3516 11.6992 -15.3516 C 16.3086 -15.3516 20 -11.6602 20.0098 -7.05078 C 20.0195 -2.44141 16.3184 1.25 11.709 1.25 Z M 11.6797 -2.66602 C 12.207 -2.66602 12.5098 -3.01758 12.5098 -3.59375 L 12.5098 -6.23047 L 15.3223 -6.23047 C 15.8691 -6.23047 16.25 -6.51367 16.25 -7.03125 C 16.25 -7.55859 15.8887 -7.86133 15.3223 -7.86133 L 12.5098 -7.86133 L 12.5098 -10.6836 C 12.5098 -11.25 12.207 -11.6113 11.6797 -11.6113 C 11.1621 -11.6113 10.8789 -11.2305 10.8789 -10.6836 L 10.8789 -7.86133 L 8.07617 -7.86133 C 7.50977 -7.86133 7.13867 -7.55859 7.13867 -7.03125 C 7.13867 -6.51367 7.5293 -6.23047 8.07617 -6.23047 L 10.8789 -6.23047 L 10.8789 -3.59375 C 10.8789 -3.03711 11.1621 -2.66602 11.6797 -2.66602 Z"/>
  </g>
  <g id="" transform="matrix(1 0 0 1 304.924 1933)">
   <path d="M 14.9707 5.66406 C 21.9336 5.66406 27.6953 -0.0976562 27.6953 -7.05078 C 27.6953 -14.0137 21.9238 -19.7754 14.9609 -19.7754 C 8.00781 -19.7754 2.25586 -14.0137 2.25586 -7.05078 C 2.25586 -0.0976562 8.01758 5.66406 14.9707 5.66406 Z M 14.9707 3.84766 C 8.93555 3.84766 4.08203 -1.01562 4.08203 -7.05078 C 4.08203 -13.0957 8.92578 -17.9492 14.9609 -17.9492 C 21.0059 -17.9492 25.8594 -13.0957 25.8691 -7.05078 C 25.8789 -1.01562 21.0156 3.84766 14.9707 3.84766 Z M 14.9414 -1.38672 C 15.5176 -1.38672 15.8594 -1.77734 15.8594 -2.38281 L 15.8594 -6.13281 L 19.7754 -6.13281 C 20.3711 -6.13281 20.7812 -6.46484 20.7812 -7.02148 C 20.7812 -7.59766 20.3906 -7.93945 19.7754 -7.93945 L 15.8594 -7.93945 L 15.8594 -11.8652 C 15.8594 -12.4805 15.5176 -12.8711 14.9414 -12.8711 C 14.375 -12.8711 14.0527 -12.4609 14.0527 -11.8652 L 14.0527 -7.93945 L 10.1465 -7.93945 C 9.53125 -7.93945 9.13086 -7.59766 9.13086 -7.02148 C 9.13086 -6.46484 9.55078 -6.13281 10.1465 -6.13281 L 14.0527 -6.13281 L 14.0527 -2.38281 C 14.0527 -1.79688 14.375 -1.38672 14.9414 -1.38672 Z"/>
  </g>
  <text style="stroke:none;fill:black;font-family:-apple-system,&quot;SF Pro Display&quot;,&quot;SF Pro Text&quot;,Helvetica,sans-serif;font-weight:bold;" transform="matrix(1 0 0 1 263 1953)">Design Variations</text>
  <text style="stroke:none;fill:black;font-family:-apple-system,&quot;SF Pro Display&quot;,&quot;SF Pro Text&quot;,Helvetica,sans-serif;" transform="matrix(1 0 0 1 263 1971)">Symbols are supported in up to nine weights and three scales.</text>
  <text style="stroke:none;fill:black;font-family:-apple-system,&quot;SF Pro Display&quot;,&quot;SF Pro Text&quot;,Helvetica,sans-serif;" transform="matrix(1 0 0 1 263 1989)">For optimal layout with text and other symbols, vertically align</text>
  <text style="stroke:none;fill:black;font-family:-apple-system,&quot;SF Pro Display&quot;,&quot;SF Pro Text&quot;,Helvetica,sans-serif;" transform="matrix(1 0 0 1 263 2007)">symbols with the adjacent text.</text>
  <line id="" style="fill:none;stroke:#00AEEF;stroke-width:0.5;opacity:1.0;" x1="776" x2="776" y1="1919" y2="1933"/>
  <g id="" transform="matrix(1 0 0 1 776 1933)">
   <path d="M 3.31055 0.126953 C 3.82812 0.126953 4.08203 -0.0683594 4.26758 -0.605469 L 5.52734 -4.0625 L 11.2891 -4.0625 L 12.5488 -0.605469 C 12.7344 -0.0683594 12.9883 0.126953 13.4961 0.126953 C 14.0137 0.126953 14.3457 -0.185547 14.3457 -0.673828 C 14.3457 -0.839844 14.3164 -0.986328 14.2383 -1.20117 L 9.6582 -13.3887 C 9.43359 -13.9941 9.0332 -14.2871 8.4082 -14.2871 C 7.80273 -14.2871 7.39258 -13.9941 7.17773 -13.3984 L 2.59766 -1.19141 C 2.51953 -0.976562 2.49023 -0.830078 2.49023 -0.664062 C 2.49023 -0.175781 2.80273 0.126953 3.31055 0.126953 Z M 6.00586 -5.53711 L 8.37891 -12.1094 L 8.42773 -12.1094 L 10.8008 -5.53711 Z"/>
  </g>
  <line id="" style="fill:none;stroke:#00AEEF;stroke-width:0.5;opacity:1.0;" x1="792.836" x2="792.836" y1="1919" y2="1933"/>
  <text style="stroke:none;fill:black;font-family:-apple-system,&quot;SF Pro Display&quot;,&quot;SF Pro Text&quot;,Helvetica,sans-serif;font-weight:bold;" transform="matrix(1 0 0 1 776 1953)">Margins</text>
  <text style="stroke:none;fill:black;font-family:-apple-system,&quot;SF Pro Display&quot;,&quot;SF Pro Text&quot;,Helvetica,sans-serif;" transform="matrix(1 0 0 1 776 1971)">Leading and trailing margins on the left and right side of each symbol</text>
  <text style="stroke:none;fill:black;font-family:-apple-system,&quot;SF Pro Display&quot;,&quot;SF Pro Text&quot;,Helvetica,sans-serif;" transform="matrix(1 0 0 1 776 1989)">can be adjusted by modifying the x-location of the margin guidelines.</text>
  <text style="stroke:none;fill:black;font-family:-apple-system,&quot;SF Pro Display&quot;,&quot;SF Pro Text&quot;,Helvetica,sans-serif;" transform="matrix(1 0 0 1 776 2007)">Modifications are automatically applied proportionally to all</text>
  <text style="stroke:none;fill:black;font-family:-apple-system,&quot;SF Pro Display&quot;,&quot;SF Pro Text&quot;,Helvetica,sans-serif;" transform="matrix(1 0 0 1 776 2025)">scales and weights.</text>
  <g id="" transform="matrix(1 0 0 1 1289 1933)">
   <path d="M 2.8418 1.86523 L 4.54102 3.57422 C 5.40039 4.44336 6.38672 4.38477 7.31445 3.35938 L 17.4902 -7.85156 C 17.7539 -7.76367 18.0273 -7.7832 18.3398 -7.8418 L 19.4043 -8.03711 L 20.0684 -7.36328 L 20.0293 -6.80664 C 19.9902 -6.30859 20.1172 -5.92773 20.6055 -5.44922 L 21.3672 -4.70703 C 21.8457 -4.22852 22.4609 -4.19922 22.9297 -4.66797 L 25.8398 -7.58789 C 26.3086 -8.05664 26.2891 -8.65234 25.8105 -9.13086 L 25.0391 -9.89258 C 24.5605 -10.3711 24.1895 -10.5273 23.7109 -10.4883 L 23.1348 -10.4395 L 22.4902 -11.0742 L 22.7344 -12.1973 C 22.8613 -12.7637 22.7051 -13.2031 22.1191 -13.7891 L 19.9219 -15.9766 C 16.582 -19.2969 12.1484 -19.2188 9.25781 -16.3281 C 8.83789 -15.918 8.80859 -15.3418 9.04297 -14.9512 C 9.27734 -14.5898 9.73633 -14.3555 10.3809 -14.5215 C 11.8457 -14.8633 13.3691 -14.9219 14.7949 -13.9844 L 14.209 -12.5293 C 14.0137 -12.0508 13.9844 -11.6504 14.1113 -11.2891 L 3.04688 -0.898438 C 2.06055 0.0195312 1.98242 0.996094 2.8418 1.86523 Z M 10.752 -15.957 C 13.1836 -17.7344 16.4746 -17.4316 18.7012 -15.2051 L 21.1328 -12.793 C 21.3672 -12.5586 21.4062 -12.373 21.3379 -12.0312 L 21.0156 -10.5469 L 22.5195 -9.0625 L 23.5059 -9.12109 C 23.7598 -9.13086 23.8379 -9.11133 24.0332 -8.91602 L 24.6094 -8.33984 L 22.168 -5.89844 L 21.5918 -6.47461 C 21.3965 -6.66992 21.3672 -6.74805 21.377 -7.01172 L 21.4453 -7.98828 L 19.9512 -9.47266 L 18.4277 -9.21875 C 18.1055 -9.15039 17.959 -9.17969 17.7148 -9.41406 L 15.7129 -11.416 C 15.459 -11.6504 15.4297 -11.8164 15.5859 -12.1875 L 16.4648 -14.2773 C 14.9023 -15.7324 12.8711 -16.3574 10.8398 -15.7617 C 10.6836 -15.7227 10.625 -15.8496 10.752 -15.957 Z M 5.27344 2.30469 L 4.10156 1.14258 C 3.63281 0.683594 3.74023 0.341797 4.14062 -0.0195312 L 14.9512 -10.1953 L 16.416 -8.71094 L 6.42578 2.27539 C 6.07422 2.67578 5.74219 2.77344 5.27344 2.30469 Z"/>
  </g>
  <text style="stroke:none;fill:black;font-family:-apple-system,&quot;SF Pro Display&quot;,&quot;SF Pro Text&quot;,Helvetica,sans-serif;font-weight:bold;" transform="matrix(1 0 0 1 1289 1953)">Exporting</text>
  <text style="stroke:none;fill:black;font-family:-apple-system,&quot;SF Pro Display&quot;,&quot;SF Pro Text&quot;,Helvetica,sans-serif;" transform="matrix(1 0 0 1 1289 1971)">Symbols should be outlined when exporting to ensure the</text>
  <text style="stroke:none;fill:black;font-family:-apple-system,&quot;SF Pro Display&quot;,&quot;SF Pro Text&quot;,Helvetica,sans-serif;" transform="matrix(1 0 0 1 1289 1989)">design is preserved when submitting to Xcode.</text>
  <text id="template-version" style="stroke:none;fill:black;font-family:-apple-system,&quot;SF Pro Display&quot;,&quot;SF Pro Text&quot;,Helvetica,sans-serif;text-anchor:end;" transform="matrix(1 0 0 1 3036 1933)">Template v.2.0</text>
  <text style="stroke:none;fill:black;font-family:-apple-system,&quot;SF Pro Display&quot;,&quot;SF Pro Text&quot;,Helvetica,sans-serif;text-anchor:end;" transform="matrix(1 0 0 1 3036 1951)">Requires Xcode 12 or greater</text>
  <text style="stroke:none;fill:black;font-family:-apple-system,&quot;SF Pro Display&quot;,&quot;SF Pro Text&quot;,Helvetica,sans-serif;text-anchor:end;" transform="matrix(1 0 0 1 3036 1969)">Generated from cylinder.split.1x2</text>
  <text style="stroke:none;fill:black;font-family:-apple-system,&quot;SF Pro Display&quot;,&quot;SF Pro Text&quot;,Helvetica,sans-serif;text-anchor:end;" transform="matrix(1 0 0 1 3036 1987)">Typeset at 100 points</text>
  <text style="stroke:none;fill:black;font-family:-apple-system,&quot;SF Pro Display&quot;,&quot;SF Pro Text&quot;,Helvetica,sans-serif;" transform="matrix(1 0 0 1 263 726)">Small</text>
  <text style="stroke:none;fill:black;font-family:-apple-system,&quot;SF Pro Display&quot;,&quot;SF Pro Text&quot;,Helvetica,sans-serif;" transform="matrix(1 0 0 1 263 1156)">Medium</text>
  <text style="stroke:none;fill:black;font-family:-apple-system,&quot;SF Pro Display&quot;,&quot;SF Pro Text&quot;,Helvetica,sans-serif;" transform="matrix(1 0 0 1 263 1586)">Large</text>
 </g>
 <g id="Guides">
  <g id="H-reference" style="fill:#27AAE1;stroke:none;" transform="matrix(1 0 0 1 339 696)">
   <path d="M 0.976562 0 L 3.66211 0 L 12.9883 -24.4629 L 45.7031 -24.4629 L 55.0781 0 L 57.7148 0 L 30.6152 -70.459 L 28.125 -70.459 Z M 29.2969 -67.1387 L 29.3945 -67.1387 L 44.873 -26.709 L 13.8672 -26.709 Z"/>
  </g>
  <line id="Baseline-S" style="fill:none;stroke:#27AAE1;opacity:1;stroke-width:0.5;" x1="263" x2="3036" y1="696" y2="696"/>
  <line id="Capline-S" style="fill:none;stroke:#27AAE1;opacity:1;stroke-width:0.5;" x1="263" x2="3036" y1="625.541" y2="625.541"/>
  <g id="H-reference" style="fill:#27AAE1;stroke:none;" transform="matrix(1 0 0 1 339 1126)">
   <path d="M 0.976562 0 L 3.66211 0 L 12.9883 -24.4629 L 45.7031 -24.4629 L 55.0781 0 L 57.7148 0 L 30.6152 -70.459 L 28.125 -70.459 Z M 29.2969 -67.1387 L 29.3945 -67.1387 L 44.873 -26.709 L 13.8672 -26.709 Z"/>
  </g>
  <line id="Baseline-M" style="fill:none;stroke:#27AAE1;opacity:1;stroke-width:0.5;" x1="263" x2="3036" y1="1126" y2="1126"/>
  <line id="Capline-M" style="fill:none;stroke:#27AAE1;opacity:1;stroke-width:0.5;" x1="263" x2="3036" y1="1055.54" y2="1055.54"/>
  <g id="H-reference" style="fill:#27AAE1;stroke:none;" transform="matrix(1 0 0 1 339 1556)">
   <path d="M 0.976562 0 L 3.66211 0 L 12.9883 -24.4629 L 45.7031 -24.4629 L 55.0781 0 L 57.7148 0 L 30.6152 -70.459 L 28.125 -70.459 Z M 29.2969 -67.1387 L 29.3945 -67.1387 L 44.873 -26.709 L 13.8672 -26.709 Z"/>
  </g>
  <line id="Baseline-L" style="fill:none;stroke:#27AAE1;opacity:1;stroke-width:0.5;" x1="263" x2="3036" y1="1556" y2="1556"/>
  <line id="Capline-L" style="fill:none;stroke:#27AAE1;opacity:1;stroke-width:0.5;" x1="263" x2="3036" y1="1485.54" y2="1485.54"/>
  <line id="left-margin" style="fill:none;stroke:#00AEEF;stroke-width:0.5;opacity:1.0;" x1="1395.4" x2="1395.4" y1="1030.79" y2="1150.12"/>
  <line id="right-margin" style="fill:none;stroke:#00AEEF;stroke-width:0.5;opacity:1.0;" x1="1504.29" x2="1504.29" y1="1030.79" y2="1150.12"/>
 </g>
 <g id="Symbols">
  <g id="Black-L" transform="matrix(1 0 0 1 2858.57 1556)">
   <path d="M 74.8047 29.9805 C 110.4 29.9805 133.594 15.8203 133.594 -5.37109 L 133.594 -69.3848 C 133.594 -88.623 110.156 -101.172 74.8047 -101.172 C 39.502 -101.172 16.0645 -88.623 16.0645 -69.3848 L 16.0645 -5.37109 C 16.0645 15.8203 39.2578 29.9805 74.8047 29.9805 Z M 74.8047 -55.3711 C 51.5137 -55.3711 34.668 -61.377 34.668 -69.3848 C 34.668 -77.8809 51.3184 -84.1797 74.8047 -84.1797 C 98.291 -84.1797 114.99 -77.8809 114.99 -69.3848 C 114.99 -61.377 98.1445 -55.3711 74.8047 -55.3711 Z M 74.8047 -37.5488 C 91.1133 -37.5488 104.883 -40.2344 114.99 -44.9707 L 114.99 -31.0547 C 104.785 -26.0742 90.2832 -23.1445 74.8047 -23.1445 C 59.375 -23.1445 44.873 -26.0742 34.668 -31.0547 L 34.668 -44.9707 C 44.7754 -40.2344 58.5449 -37.5488 74.8047 -37.5488 Z M 74.8047 -5.32227 C 89.5996 -5.32227 103.76 -7.95898 114.99 -12.5 L 114.99 -5.37109 C 114.99 3.71094 101.416 12.207 74.8047 12.207 C 48.2422 12.207 34.668 3.71094 34.668 -5.37109 L 34.668 -12.5 C 45.8984 -7.95898 60.0586 -5.32227 74.8047 -5.32227 Z"/>
  </g>
  <g id="Heavy-L" transform="matrix(1 0 0 1 2563.18 1556)">
   <path d="M 73.4863 27.832 C 108.203 27.832 130.957 14.1602 130.957 -5.81055 L 130.957 -69.3848 C 130.957 -87.5488 108.008 -99.6582 73.4863 -99.6582 C 38.9648 -99.6582 16.0645 -87.5488 16.0645 -69.3848 L 16.0645 -5.81055 C 16.0645 14.1602 38.8184 27.832 73.4863 27.832 Z M 73.4863 -54.5898 C 49.4141 -54.5898 32.3242 -60.8887 32.3242 -69.3848 C 32.3242 -78.3203 49.2676 -84.8633 73.4863 -84.8633 C 97.7539 -84.8633 114.697 -78.3203 114.697 -69.3848 C 114.697 -60.8887 97.6074 -54.5898 73.4863 -54.5898 Z M 73.4863 -39.0625 C 90.4785 -39.0625 104.688 -41.9922 114.697 -47.1191 L 114.697 -31.1035 C 104.395 -25.6836 89.3066 -22.3633 73.4863 -22.3633 C 57.666 -22.3633 42.627 -25.6836 32.3242 -31.1035 L 32.3242 -47.1191 C 42.334 -41.9922 56.4941 -39.0625 73.4863 -39.0625 Z M 73.4863 -6.83594 C 88.7207 -6.83594 103.369 -9.76562 114.697 -14.7461 L 114.697 -5.81055 C 114.697 3.75977 100.098 12.3047 73.4863 12.3047 C 46.875 12.3047 32.3242 3.75977 32.3242 -5.81055 L 32.3242 -14.7461 C 43.6523 -9.76562 58.3008 -6.83594 73.4863 -6.83594 Z"/>
  </g>
  <g id="Bold-L" transform="matrix(1 0 0 1 2267.96 1556)">
   <path d="M 72.0215 25.4395 C 105.762 25.4395 127.979 12.3047 127.979 -6.34766 L 127.979 -69.3359 C 127.979 -86.4258 105.664 -97.998 72.0215 -97.998 C 38.4277 -97.998 16.0645 -86.4258 16.0645 -69.3359 L 16.0645 -6.34766 C 16.0645 12.3047 38.2812 25.4395 72.0215 25.4395 Z M 72.0215 -53.7109 C 47.0215 -53.7109 29.6875 -60.3516 29.6875 -69.3359 C 29.6875 -78.7598 46.9238 -85.6445 72.0215 -85.6445 C 97.1191 -85.6445 114.355 -78.7598 114.355 -69.3359 C 114.355 -60.3516 97.0215 -53.7109 72.0215 -53.7109 Z M 72.0215 -40.7227 C 89.8438 -40.7227 104.541 -43.9941 114.355 -49.5605 L 114.355 -31.2012 C 104.004 -25.293 88.2324 -21.5332 72.0215 -21.5332 C 55.8105 -21.5332 40.0391 -25.293 29.6875 -31.2012 L 29.6875 -49.5605 C 39.5508 -43.9941 54.1992 -40.7227 72.0215 -40.7227 Z M 72.0215 -8.54492 C 87.7441 -8.54492 103.027 -11.8652 114.355 -17.2852 L 114.355 -6.34766 C 114.355 3.80859 98.6816 12.4512 72.0215 12.4512 C 45.3613 12.4512 29.6875 3.80859 29.6875 -6.34766 L 29.6875 -17.2852 C 41.0156 -11.8652 56.2988 -8.54492 72.0215 -8.54492 Z"/>
  </g>
  <g id="Semibold-L" transform="matrix(1 0 0 1 1972.27 1556)">
   <path d="M 70.9961 23.7793 C 104.053 23.7793 125.928 11.0352 125.928 -6.68945 L 125.928 -69.3359 C 125.928 -85.6445 104.004 -96.8262 70.9961 -96.8262 C 38.0371 -96.8262 16.0645 -85.6445 16.0645 -69.3359 L 16.0645 -6.68945 C 16.0645 11.0352 37.9395 23.7793 70.9961 23.7793 Z M 70.9961 -53.0762 C 45.3613 -53.0762 27.8809 -60.0098 27.8809 -69.3359 C 27.8809 -79.1016 45.3125 -86.1816 70.9961 -86.1816 C 96.6797 -86.1816 114.111 -79.1016 114.111 -69.3359 C 114.111 -60.0098 96.6309 -53.0762 70.9961 -53.0762 Z M 70.9961 -41.8945 C 89.502 -41.8945 104.492 -45.3613 114.111 -51.3184 L 114.111 -31.2988 C 103.76 -25.0488 87.5 -20.9473 70.9961 -20.9473 C 54.4922 -20.9473 38.2812 -25.0488 27.8809 -31.2988 L 27.8809 -51.3184 C 37.5 -45.3613 52.5391 -41.8945 70.9961 -41.8945 Z M 70.9961 -9.7168 C 87.1094 -9.7168 102.832 -13.3301 114.111 -19.043 L 114.111 -6.68945 C 114.111 3.85742 97.6562 12.5488 70.9961 12.5488 C 44.3359 12.5488 27.8809 3.85742 27.8809 -6.68945 L 27.8809 -19.043 C 39.209 -13.3301 54.9316 -9.7168 70.9961 -9.7168 Z"/>
  </g>
  <g id="Medium-L" transform="matrix(1 0 0 1 1676.32 1556)">
   <path d="M 70.2148 22.5098 C 102.783 22.5098 124.414 10.0586 124.414 -6.93359 L 124.414 -69.3359 C 124.414 -85.0098 102.734 -95.9473 70.2148 -95.9473 C 37.6953 -95.9473 16.0645 -85.0098 16.0645 -69.3359 L 16.0645 -6.93359 C 16.0645 10.0586 37.6953 22.5098 70.2148 22.5098 Z M 70.2148 -52.6367 C 44.1406 -52.6367 26.5137 -59.7168 26.5137 -69.3359 C 26.5137 -79.2969 44.0918 -86.5723 70.2148 -86.5723 C 96.3867 -86.5723 113.965 -79.2969 113.965 -69.3359 C 113.965 -59.7168 96.3379 -52.6367 70.2148 -52.6367 Z M 70.2148 -42.7246 C 89.2578 -42.7246 104.541 -46.4844 113.965 -52.6855 L 113.965 -31.3965 C 103.564 -24.8535 86.9629 -20.5078 70.2148 -20.5078 C 53.5156 -20.5078 36.9141 -24.8535 26.5137 -31.3965 L 26.5137 -52.6855 C 35.9375 -46.4844 51.2207 -42.7246 70.2148 -42.7246 Z M 70.2148 -10.5957 C 86.6211 -10.5957 102.686 -14.4531 113.965 -20.459 L 113.965 -6.93359 C 113.965 3.90625 96.9238 12.6465 70.2148 12.6465 C 43.5547 12.6465 26.5137 3.90625 26.5137 -6.93359 L 26.5137 -20.459 C 37.793 -14.4531 53.8574 -10.5957 70.2148 -10.5957 Z"/>
  </g>
  <g id="Regular-L" transform="matrix(1 0 0 1 1380.61 1556)">
   <path d="M 69.2383 20.8496 C 101.123 20.8496 122.412 8.83789 122.412 -7.27539 L 122.412 -69.3359 C 122.412 -84.2285 101.123 -94.7754 69.2383 -94.7754 C 37.3535 -94.7754 16.0645 -84.2285 16.0645 -69.3359 L 16.0645 -7.27539 C 16.0645 8.83789 37.3535 20.8496 69.2383 20.8496 Z M 69.2383 -52.0508 C 42.5293 -52.0508 24.707 -59.3262 24.707 -69.3359 C 24.707 -79.6387 42.5293 -87.1094 69.2383 -87.1094 C 95.9473 -87.1094 113.721 -79.6387 113.721 -69.3359 C 113.721 -59.3262 95.9473 -52.0508 69.2383 -52.0508 Z M 69.2383 -43.8965 C 88.9648 -43.8965 104.688 -47.9492 113.721 -54.541 L 113.721 -31.5918 C 103.369 -24.6582 86.2305 -19.9219 69.2383 -19.9219 C 52.1973 -19.9219 35.0586 -24.6582 24.707 -31.5918 L 24.707 -54.541 C 33.7891 -47.9492 49.4629 -43.8965 69.2383 -43.8965 Z M 69.2383 -11.7676 C 85.9863 -11.7676 102.588 -15.918 113.721 -22.3145 L 113.721 -7.27539 C 113.721 3.90625 95.9473 12.6953 69.2383 12.6953 C 42.5293 12.6953 24.707 3.90625 24.707 -7.27539 L 24.707 -22.3145 C 35.8887 -15.918 52.4902 -11.7676 69.2383 -11.7676 Z"/>
  </g>
  <g id="Light-L" transform="matrix(1 0 0 1 1085.29 1556)">
   <path d="M 67.8223 17.3828 C 98.9258 17.3828 119.629 5.71289 119.629 -8.59375 L 119.629 -69.3359 C 119.629 -82.8613 98.9258 -92.9199 67.8223 -92.9199 C 36.7676 -92.9199 16.0645 -82.8613 16.0645 -69.3359 L 16.0645 -8.59375 C 16.0645 5.71289 36.7676 17.3828 67.8223 17.3828 Z M 67.8223 -52.0508 C 40.7227 -52.0508 22.7051 -59.5215 22.7051 -69.3359 C 22.7051 -79.2969 40.7227 -86.9141 67.8223 -86.9141 C 94.9219 -86.9141 112.988 -79.2969 112.988 -69.3359 C 112.988 -59.5215 94.9219 -52.0508 67.8223 -52.0508 Z M 67.8223 -45.7031 C 88.4766 -45.7031 104.541 -50.1465 112.988 -57.0801 L 112.988 -33.0078 C 102.686 -25.7812 85.1074 -20.6543 67.8223 -20.6543 C 50.5859 -20.6543 33.0078 -25.7812 22.7051 -33.0078 L 22.7051 -57.0801 C 31.1523 -50.1465 47.2168 -45.7031 67.8223 -45.7031 Z M 67.8223 -14.3066 C 84.9121 -14.3066 101.953 -18.9941 112.988 -25.7324 L 112.988 -8.59375 C 112.988 1.9043 94.9219 11.084 67.8223 11.084 C 40.7227 11.084 22.7051 1.9043 22.7051 -8.59375 L 22.7051 -25.7324 C 33.6914 -18.9941 50.7812 -14.3066 67.8223 -14.3066 Z"/>
  </g>
  <g id="Thin-L" transform="matrix(1 0 0 1 790.407 1556)">
   <path d="M 66.0156 12.7441 C 95.9961 12.7441 115.967 1.61133 115.967 -10.3516 L 115.967 -69.2871 C 115.967 -81.1035 95.9961 -90.4297 66.0156 -90.4297 C 36.0352 -90.4297 16.0645 -81.1035 16.0645 -69.2871 L 16.0645 -10.3516 C 16.0645 1.61133 36.0352 12.7441 66.0156 12.7441 Z M 66.0156 -52.002 C 38.3789 -52.002 19.9707 -59.8145 19.9707 -69.2871 C 19.9707 -78.8086 38.3789 -86.6699 66.0156 -86.6699 C 93.6035 -86.6699 112.012 -78.8086 112.012 -69.2871 C 112.012 -59.8145 93.6035 -52.002 66.0156 -52.002 Z M 66.0156 -48.1445 C 88.1348 -48.1445 104.785 -53.2227 112.012 -60.6445 L 112.012 -34.9121 C 101.758 -27.3926 83.5938 -21.582 66.0156 -21.582 C 48.3887 -21.582 30.2734 -27.3926 19.9707 -34.9121 L 19.9707 -60.6445 C 27.1973 -53.2227 43.8965 -48.1445 66.0156 -48.1445 Z M 66.0156 -17.7246 C 83.4961 -17.7246 101.27 -23.0957 112.012 -30.3223 L 112.012 -10.3516 C 112.012 -0.732422 93.6035 8.88672 66.0156 8.88672 C 38.3789 8.88672 19.9707 -0.732422 19.9707 -10.3516 L 19.9707 -30.3223 C 30.7617 -23.0957 48.5352 -17.7246 66.0156 -17.7246 Z"/>
  </g>
  <g id="Ultralight-L" transform="matrix(1 0 0 1 494.648 1556)">
   <path d="M 65.0879 10.4004 C 94.4824 10.4004 114.062 -0.488281 114.062 -11.2793 L 114.062 -69.2871 C 114.062 -80.1758 94.4824 -89.1602 65.0879 -89.1602 C 35.6445 -89.1602 16.0645 -80.1758 16.0645 -69.2871 L 16.0645 -11.2793 C 16.0645 -0.488281 35.6445 10.4004 65.0879 10.4004 Z M 65.0879 -52.002 C 37.207 -52.002 18.6035 -59.9609 18.6035 -69.2871 C 18.6035 -78.5645 37.207 -86.5234 65.0879 -86.5234 C 92.9199 -86.5234 111.523 -78.5645 111.523 -69.2871 C 111.523 -59.9609 92.9199 -52.002 65.0879 -52.002 Z M 65.0879 -49.3652 C 88.2324 -49.3652 105.322 -54.9805 111.523 -62.6465 L 111.523 -35.8887 C 101.27 -28.2227 82.8125 -22.0703 65.0879 -22.0703 C 47.3145 -22.0703 28.8574 -28.2227 18.6035 -35.8887 L 18.6035 -62.6465 C 24.8047 -54.9805 41.8945 -49.3652 65.0879 -49.3652 Z M 65.0879 -19.4824 C 82.7637 -19.4824 100.928 -25.2441 111.523 -32.7148 L 111.523 -11.2793 C 111.523 -2.05078 92.9199 7.76367 65.0879 7.76367 C 37.207 7.76367 18.6035 -2.05078 18.6035 -11.2793 L 18.6035 -32.7148 C 29.1992 -25.2441 47.4121 -19.4824 65.0879 -19.4824 Z"/>
  </g>
  <g id="Black-M" transform="matrix(1 0 0 1 2874.37 1126)">
   <path d="M 59.0332 16.3574 C 87.3047 16.3574 105.615 4.93164 105.615 -12.207 L 105.615 -61.6699 C 105.615 -77.2461 87.0605 -87.4023 59.0332 -87.4023 C 31.0059 -87.4023 12.4512 -77.2461 12.4512 -61.6699 L 12.4512 -12.207 C 12.4512 4.93164 30.7617 16.3574 59.0332 16.3574 Z M 59.0332 -51.8555 C 41.8457 -51.8555 28.9551 -56.25 28.9551 -61.6699 C 28.9551 -67.5293 41.6504 -72.1191 59.0332 -72.1191 C 76.416 -72.1191 89.1113 -67.5293 89.1113 -61.6699 C 89.1113 -56.25 76.2207 -51.8555 59.0332 -51.8555 Z M 59.0332 -35.9863 C 71.0449 -35.9863 81.2988 -37.8418 89.1113 -41.2109 L 89.1113 -32.666 C 81.3477 -29.1992 70.6543 -27.2949 59.0332 -27.2949 C 47.4121 -27.2949 36.7188 -29.1992 28.9551 -32.666 L 28.9551 -41.2109 C 36.7676 -37.8418 47.0215 -35.9863 59.0332 -35.9863 Z M 59.0332 -11.377 C 70.0195 -11.377 80.5176 -13.1836 89.1113 -16.3574 L 89.1113 -12.207 C 89.1113 -6.20117 79.7852 0.488281 59.0332 0.488281 C 38.2812 0.488281 28.9551 -6.20117 28.9551 -12.207 L 28.9551 -16.3574 C 37.5488 -13.1836 47.998 -11.377 59.0332 -11.377 Z"/>
  </g>
  <g id="Heavy-M" transform="matrix(1 0 0 1 2578.73 1126)">
   <path d="M 57.959 14.9414 C 85.498 14.9414 103.467 3.90625 103.467 -12.3535 L 103.467 -61.6699 C 103.467 -76.4648 85.3027 -86.2305 57.959 -86.2305 C 30.5664 -86.2305 12.4512 -76.4648 12.4512 -61.6699 L 12.4512 -12.3535 C 12.4512 3.90625 30.3711 14.9414 57.959 14.9414 Z M 57.959 -51.0254 C 39.9902 -51.0254 26.9043 -55.6641 26.9043 -61.6699 C 26.9043 -68.0664 39.8438 -72.9492 57.959 -72.9492 C 76.0742 -72.9492 88.9648 -68.0664 88.9648 -61.6699 C 88.9648 -55.6641 75.9277 -51.0254 57.959 -51.0254 Z M 57.959 -37.1582 C 70.5566 -37.1582 81.1523 -39.209 88.9648 -42.8711 L 88.9648 -32.3242 C 81.1035 -28.5156 69.9219 -26.2695 57.959 -26.2695 C 45.9961 -26.2695 34.8145 -28.5156 26.9043 -32.3242 L 26.9043 -42.8711 C 34.7168 -39.209 45.3613 -37.1582 57.959 -37.1582 Z M 57.959 -12.4023 C 69.3359 -12.4023 80.2734 -14.4043 88.9648 -17.9199 L 88.9648 -12.3535 C 88.9648 -5.61523 78.6621 1.07422 57.959 1.07422 C 37.2559 1.07422 26.9043 -5.61523 26.9043 -12.3535 L 26.9043 -17.9199 C 35.6445 -14.4043 46.5332 -12.4023 57.959 -12.4023 Z"/>
  </g>
  <g id="Bold-M" transform="matrix(1 0 0 1 2283.24 1126)">
   <path d="M 56.7383 13.2812 C 83.4961 13.2812 101.025 2.7832 101.025 -12.5 L 101.025 -61.6699 C 101.025 -75.6348 83.3496 -84.9121 56.7383 -84.9121 C 30.127 -84.9121 12.4512 -75.6348 12.4512 -61.6699 L 12.4512 -12.5 C 12.4512 2.7832 29.9805 13.2812 56.7383 13.2812 Z M 56.7383 -50.0488 C 37.8906 -50.0488 24.6094 -55.0293 24.6094 -61.6699 C 24.6094 -68.7012 37.793 -73.8281 56.7383 -73.8281 C 75.6836 -73.8281 88.8184 -68.7012 88.8184 -61.6699 C 88.8184 -55.0293 75.5859 -50.0488 56.7383 -50.0488 Z M 56.7383 -38.4277 C 70.0195 -38.4277 81.1035 -40.7715 88.8184 -44.8242 L 88.8184 -32.0312 C 80.8594 -27.7344 69.043 -25.0977 56.7383 -25.0977 C 44.3848 -25.0977 32.6172 -27.7344 24.6094 -32.0312 L 24.6094 -44.8242 C 32.373 -40.7715 43.457 -38.4277 56.7383 -38.4277 Z M 56.7383 -13.4766 C 68.6035 -13.4766 80.0781 -15.8203 88.8184 -19.7266 L 88.8184 -12.5 C 88.8184 -4.98047 77.3438 1.66016 56.7383 1.66016 C 36.1328 1.66016 24.6094 -4.98047 24.6094 -12.5 L 24.6094 -19.7266 C 33.3984 -15.8203 44.873 -13.4766 56.7383 -13.4766 Z"/>
  </g>
  <g id="Semibold-M" transform="matrix(1 0 0 1 1987.36 1126)">
   <path d="M 55.9082 12.207 C 82.0801 12.207 99.3652 2.00195 99.3652 -12.5977 L 99.3652 -61.6699 C 99.3652 -75 81.9824 -84.0332 55.9082 -84.0332 C 29.7852 -84.0332 12.4512 -75 12.4512 -61.6699 L 12.4512 -12.5977 C 12.4512 2.00195 29.7363 12.207 55.9082 12.207 Z M 55.9082 -49.4141 C 36.4746 -49.4141 23.0469 -54.5898 23.0469 -61.6699 C 23.0469 -69.0918 36.4258 -74.4629 55.9082 -74.4629 C 75.3906 -74.4629 88.7207 -69.0918 88.7207 -61.6699 C 88.7207 -54.5898 75.3418 -49.4141 55.9082 -49.4141 Z M 55.9082 -39.3555 C 69.7266 -39.3555 81.1035 -41.8457 88.7207 -46.2402 L 88.7207 -31.8359 C 80.7129 -27.2461 68.5059 -24.3164 55.9082 -24.3164 C 43.3105 -24.3164 31.1035 -27.2461 23.0469 -31.8359 L 23.0469 -46.2402 C 30.7129 -41.8457 42.0898 -39.3555 55.9082 -39.3555 Z M 55.9082 -14.2578 C 68.1152 -14.2578 79.9316 -16.7969 88.7207 -20.9961 L 88.7207 -12.5977 C 88.7207 -4.54102 76.4648 2.09961 55.9082 2.09961 C 35.3516 2.09961 23.0469 -4.54102 23.0469 -12.5977 L 23.0469 -20.9961 C 31.8359 -16.7969 43.7012 -14.2578 55.9082 -14.2578 Z"/>
  </g>
  <g id="Medium-M" transform="matrix(1 0 0 1 1691.28 1126)">
   <path d="M 55.2734 11.3281 C 81.0059 11.3281 98.0957 1.41602 98.0957 -12.6953 L 98.0957 -61.6699 C 98.0957 -74.5605 80.957 -83.3496 55.2734 -83.3496 C 29.541 -83.3496 12.4512 -74.5605 12.4512 -61.6699 L 12.4512 -12.6953 C 12.4512 1.41602 29.4922 11.3281 55.2734 11.3281 Z M 55.2734 -48.9258 C 35.4004 -48.9258 21.875 -54.248 21.875 -61.6699 C 21.875 -69.4336 35.3516 -74.9512 55.2734 -74.9512 C 75.1953 -74.9512 88.6719 -69.4336 88.6719 -61.6699 C 88.6719 -54.248 75.1465 -48.9258 55.2734 -48.9258 Z M 55.2734 -40.0391 C 69.5312 -40.0391 81.1523 -42.7246 88.6719 -47.3145 L 88.6719 -31.7383 C 80.6152 -26.8555 68.0664 -23.7305 55.2734 -23.7305 C 42.4805 -23.7305 29.9316 -26.8555 21.875 -31.7383 L 21.875 -47.3145 C 29.3945 -42.7246 41.0156 -40.0391 55.2734 -40.0391 Z M 55.2734 -14.8438 C 67.7246 -14.8438 79.8828 -17.5781 88.6719 -21.9727 L 88.6719 -12.6953 C 88.6719 -4.19922 75.7812 2.44141 55.2734 2.44141 C 34.7168 2.44141 21.875 -4.19922 21.875 -12.6953 L 21.875 -21.9727 C 30.6152 -17.5781 42.8223 -14.8438 55.2734 -14.8438 Z"/>
  </g>
  <g id="Regular-M" transform="matrix(1 0 0 1 1395.4 1126)">
   <path d="M 54.4434 10.2539 C 79.6387 10.2539 96.4355 0.683594 96.4355 -12.793 L 96.4355 -61.6699 C 96.4355 -73.9746 79.6387 -82.4219 54.4434 -82.4219 C 29.248 -82.4219 12.4512 -73.9746 12.4512 -61.6699 L 12.4512 -12.793 C 12.4512 0.683594 29.248 10.2539 54.4434 10.2539 Z M 54.4434 -48.291 C 33.9844 -48.291 20.3125 -53.8086 20.3125 -61.6699 C 20.3125 -69.8242 33.9844 -75.5371 54.4434 -75.5371 C 74.9023 -75.5371 88.5742 -69.8242 88.5742 -61.6699 C 88.5742 -53.8086 74.9023 -48.291 54.4434 -48.291 Z M 54.4434 -40.918 C 69.3359 -40.918 81.2988 -43.8477 88.5742 -48.8281 L 88.5742 -31.5918 C 80.5176 -26.416 67.4805 -22.9492 54.4434 -22.9492 C 41.4062 -22.9492 28.3691 -26.416 20.3125 -31.5918 L 20.3125 -48.8281 C 27.5879 -43.8477 39.5508 -40.918 54.4434 -40.918 Z M 54.4434 -15.5762 C 67.2363 -15.5762 79.8828 -18.5547 88.5742 -23.291 L 88.5742 -12.793 C 88.5742 -3.75977 74.9023 2.88086 54.4434 2.88086 C 33.9844 2.88086 20.3125 -3.75977 20.3125 -12.793 L 20.3125 -23.291 C 29.0039 -18.5547 41.6016 -15.5762 54.4434 -15.5762 Z"/>
  </g>
  <g id="Light-M" transform="matrix(1 0 0 1 1099.94 1126)">
   <path d="M 53.1738 7.08008 C 77.6367 7.08008 93.9453 -2.09961 93.9453 -14.0137 L 93.9453 -61.6699 C 93.9453 -72.7539 77.6367 -80.7617 53.1738 -80.7617 C 28.7598 -80.7617 12.4512 -72.7539 12.4512 -61.6699 L 12.4512 -14.0137 C 12.4512 -2.09961 28.7598 7.08008 53.1738 7.08008 Z M 53.1738 -48.2422 C 32.373 -48.2422 18.5059 -53.9551 18.5059 -61.6699 C 18.5059 -69.5312 32.373 -75.3906 53.1738 -75.3906 C 74.0234 -75.3906 87.8906 -69.5312 87.8906 -61.6699 C 87.8906 -53.9551 74.0234 -48.2422 53.1738 -48.2422 Z M 53.1738 -42.5293 C 68.7988 -42.5293 81.0547 -45.8008 87.8906 -51.0254 L 87.8906 -32.8613 C 79.8828 -27.3926 66.4551 -23.584 53.1738 -23.584 C 39.9414 -23.584 26.5137 -27.3926 18.5059 -32.8613 L 18.5059 -51.0254 C 25.3418 -45.8008 37.5977 -42.5293 53.1738 -42.5293 Z M 53.1738 -17.8711 C 66.2598 -17.8711 79.2969 -21.2891 87.8906 -26.3184 L 87.8906 -14.0137 C 87.8906 -5.51758 74.0234 1.36719 53.1738 1.36719 C 32.373 1.36719 18.5059 -5.51758 18.5059 -14.0137 L 18.5059 -26.3184 C 27.0996 -21.2891 40.0879 -17.8711 53.1738 -17.8711 Z"/>
  </g>
  <g id="Thin-M" transform="matrix(1 0 0 1 804.86 1126)">
   <path d="M 51.5625 2.97852 C 75 2.97852 90.6738 -5.81055 90.6738 -15.5762 L 90.6738 -61.6211 C 90.6738 -71.1426 75 -78.5645 51.5625 -78.5645 C 28.0762 -78.5645 12.4512 -71.1426 12.4512 -61.6211 L 12.4512 -15.5762 C 12.4512 -5.81055 28.0762 2.97852 51.5625 2.97852 Z M 51.5625 -48.2422 C 30.2734 -48.2422 16.0645 -54.1992 16.0645 -61.6211 C 16.0645 -69.0918 30.2734 -75.1465 51.5625 -75.1465 C 72.8516 -75.1465 87.0117 -69.0918 87.0117 -61.6211 C 87.0117 -54.1992 72.8516 -48.2422 51.5625 -48.2422 Z M 51.5625 -44.7266 C 68.3105 -44.7266 81.1035 -48.4863 87.0117 -54.1504 L 87.0117 -34.5703 C 79.0527 -28.8086 65.1367 -24.4629 51.5625 -24.4629 C 37.9883 -24.4629 24.0723 -28.8086 16.0645 -34.5703 L 16.0645 -54.1504 C 22.0215 -48.4863 34.7656 -44.7266 51.5625 -44.7266 Z M 51.5625 -20.9473 C 64.9902 -20.9473 78.6133 -24.9023 87.0117 -30.4199 L 87.0117 -15.5762 C 87.0117 -7.91016 72.8516 -0.585938 51.5625 -0.585938 C 30.2734 -0.585938 16.0645 -7.91016 16.0645 -15.5762 L 16.0645 -30.4199 C 24.4629 -24.9023 38.0859 -20.9473 51.5625 -20.9473 Z"/>
  </g>
  <g id="Ultralight-M" transform="matrix(1 0 0 1 509.003 1126)">
   <path d="M 50.7324 0.830078 C 73.6816 0.830078 88.9648 -7.66602 88.9648 -16.3574 L 88.9648 -61.6211 C 88.9648 -70.3613 73.6816 -77.4414 50.7324 -77.4414 C 27.7344 -77.4414 12.4512 -70.3613 12.4512 -61.6211 L 12.4512 -16.3574 C 12.4512 -7.66602 27.7344 0.830078 50.7324 0.830078 Z M 50.7324 -48.2422 C 29.1992 -48.2422 14.8438 -54.3457 14.8438 -61.6211 C 14.8438 -68.8965 29.1992 -75 50.7324 -75 C 72.2168 -75 86.5723 -68.8965 86.5723 -61.6211 C 86.5723 -54.3457 72.2168 -48.2422 50.7324 -48.2422 Z M 50.7324 -45.8008 C 68.3105 -45.8008 81.4453 -50 86.5723 -55.8594 L 86.5723 -35.4492 C 78.6133 -29.541 64.4531 -24.9023 50.7324 -24.9023 C 37.0117 -24.9023 22.8027 -29.541 14.8438 -35.4492 L 14.8438 -55.8594 C 19.9707 -50 33.1055 -45.8008 50.7324 -45.8008 Z M 50.7324 -22.5098 C 64.3555 -22.5098 78.3203 -26.8555 86.5723 -32.5684 L 86.5723 -16.3574 C 86.5723 -9.13086 72.2168 -1.5625 50.7324 -1.5625 C 29.1992 -1.5625 14.8438 -9.13086 14.8438 -16.3574 L 14.8438 -32.5684 C 23.0957 -26.8555 37.0605 -22.5098 50.7324 -22.5098 Z"/>
  </g>
  <g id="Black-S" transform="matrix(1 0 0 1 2887.21 696)">
   <path d="M 46.1914 5.12695 C 68.3105 5.12695 82.6172 -3.80859 82.6172 -17.1875 L 82.6172 -55.957 C 82.6172 -68.1152 68.1152 -76.0254 46.1914 -76.0254 C 24.2676 -76.0254 9.76562 -68.1152 9.76562 -55.957 L 9.76562 -17.1875 C 9.76562 -3.80859 24.0723 5.12695 46.1914 5.12695 Z M 46.1914 -48.1934 C 32.666 -48.1934 22.5586 -51.6602 22.5586 -55.957 C 22.5586 -60.5957 32.5195 -64.209 46.1914 -64.209 C 59.8633 -64.209 69.8242 -60.5957 69.8242 -55.957 C 69.8242 -51.6602 59.7168 -48.1934 46.1914 -48.1934 Z M 46.1914 -35.8887 C 55.6152 -35.8887 63.7207 -37.3535 69.8242 -39.9902 L 69.8242 -33.1543 C 63.7207 -30.4688 55.3223 -28.9062 46.1914 -28.9062 C 37.0605 -28.9062 28.6621 -30.4688 22.5586 -33.1543 L 22.5586 -39.9902 C 28.6621 -37.3535 36.7676 -35.8887 46.1914 -35.8887 Z M 46.1914 -16.6016 C 54.834 -16.6016 63.0859 -18.0176 69.8242 -20.5566 L 69.8242 -17.1875 C 69.8242 -12.4023 62.4512 -7.17773 46.1914 -7.17773 C 29.9316 -7.17773 22.5586 -12.4023 22.5586 -17.1875 L 22.5586 -20.5566 C 29.2969 -18.0176 37.5488 -16.6016 46.1914 -16.6016 Z"/>
  </g>
  <g id="Heavy-S" transform="matrix(1 0 0 1 2591.18 696)">
   <path d="M 45.5078 4.3457 C 67.1387 4.3457 81.25 -4.24805 81.25 -17.1387 L 81.25 -55.957 C 81.25 -67.6758 66.9922 -75.3418 45.5078 -75.3418 C 24.0234 -75.3418 9.76562 -67.6758 9.76562 -55.957 L 9.76562 -17.1387 C 9.76562 -4.24805 23.877 4.3457 45.5078 4.3457 Z M 45.5078 -47.5586 C 31.3965 -47.5586 21.1914 -51.1719 21.1914 -55.957 C 21.1914 -61.0352 31.2988 -64.8438 45.5078 -64.8438 C 59.668 -64.8438 69.8242 -61.0352 69.8242 -55.957 C 69.8242 -51.1719 59.5703 -47.5586 45.5078 -47.5586 Z M 45.5078 -36.5723 C 55.3223 -36.5723 63.6719 -38.1836 69.8242 -41.0645 L 69.8242 -32.8125 C 63.623 -29.7852 54.8828 -28.0762 45.5078 -28.0762 C 36.1328 -28.0762 27.3926 -29.7852 21.1914 -32.8125 L 21.1914 -41.0645 C 27.3438 -38.1836 35.6445 -36.5723 45.5078 -36.5723 Z M 45.5078 -17.0898 C 54.4434 -17.0898 62.9883 -18.6523 69.8242 -21.4355 L 69.8242 -17.1387 C 69.8242 -11.7676 61.6699 -6.5918 45.5078 -6.5918 C 29.3457 -6.5918 21.1914 -11.7676 21.1914 -17.1387 L 21.1914 -21.4355 C 28.0273 -18.6523 36.5723 -17.0898 45.5078 -17.0898 Z"/>
  </g>
  <g id="Bold-S" transform="matrix(1 0 0 1 2295.25 696)">
   <path d="M 44.7266 3.51562 C 65.8203 3.51562 79.6875 -4.78516 79.6875 -17.1387 L 79.6875 -55.957 C 79.6875 -67.1387 65.7227 -74.5117 44.7266 -74.5117 C 23.7305 -74.5117 9.76562 -67.1387 9.76562 -55.957 L 9.76562 -17.1387 C 9.76562 -4.78516 23.6328 3.51562 44.7266 3.51562 Z M 44.7266 -46.8262 C 30.0293 -46.8262 19.6777 -50.6836 19.6777 -55.957 C 19.6777 -61.5723 29.9316 -65.5762 44.7266 -65.5762 C 59.5215 -65.5762 69.7754 -61.5723 69.7754 -55.957 C 69.7754 -50.6836 59.4238 -46.8262 44.7266 -46.8262 Z M 44.7266 -37.4023 C 55.0781 -37.4023 63.6719 -39.1602 69.7754 -42.334 L 69.7754 -32.4219 C 63.5254 -29.1016 54.3457 -27.0996 44.7266 -27.0996 C 35.1074 -27.0996 25.9277 -29.1016 19.6777 -32.4219 L 19.6777 -42.334 C 25.7812 -39.1602 34.4238 -37.4023 44.7266 -37.4023 Z M 44.7266 -17.6758 C 54.0039 -17.6758 62.8906 -19.4336 69.7754 -22.4121 L 69.7754 -17.1387 C 69.7754 -11.0352 60.791 -5.9082 44.7266 -5.9082 C 28.6621 -5.9082 19.6777 -11.0352 19.6777 -17.1387 L 19.6777 -22.4121 C 26.5625 -19.4336 35.4492 -17.6758 44.7266 -17.6758 Z"/>
  </g>
  <g id="Semibold-S" transform="matrix(1 0 0 1 1999.08 696)">
   <path d="M 44.1895 2.92969 C 64.9414 2.92969 78.6133 -5.12695 78.6133 -17.0898 L 78.6133 -55.957 C 78.6133 -66.7969 64.8926 -73.9746 44.1895 -73.9746 C 23.5352 -73.9746 9.76562 -66.7969 9.76562 -55.957 L 9.76562 -17.0898 C 9.76562 -5.12695 23.4375 2.92969 44.1895 2.92969 Z M 44.1895 -46.3379 C 29.0527 -46.3379 18.6523 -50.293 18.6523 -55.957 C 18.6523 -61.9141 29.0039 -66.0645 44.1895 -66.0645 C 59.375 -66.0645 69.7754 -61.9141 69.7754 -55.957 C 69.7754 -50.293 59.3262 -46.3379 44.1895 -46.3379 Z M 44.1895 -37.9395 C 54.8828 -37.9395 63.7207 -39.8438 69.7754 -43.2129 L 69.7754 -32.1777 C 63.4766 -28.6133 54.0039 -26.4648 44.1895 -26.4648 C 34.4238 -26.4648 24.9023 -28.6133 18.6523 -32.1777 L 18.6523 -43.2129 C 24.6582 -39.8438 33.4961 -37.9395 44.1895 -37.9395 Z M 44.1895 -18.0664 C 53.6621 -18.0664 62.8906 -19.9707 69.7754 -23.1445 L 69.7754 -17.0898 C 69.7754 -10.5469 60.2051 -5.46875 44.1895 -5.46875 C 28.2227 -5.46875 18.6523 -10.5469 18.6523 -17.0898 L 18.6523 -23.1445 C 25.5371 -19.9707 34.7168 -18.0664 44.1895 -18.0664 Z"/>
  </g>
  <g id="Medium-S" transform="matrix(1 0 0 1 1702.76 696)">
   <path d="M 43.7988 2.49023 C 64.2578 2.49023 77.832 -5.41992 77.832 -17.0898 L 77.832 -55.957 C 77.832 -66.5039 64.209 -73.584 43.7988 -73.584 C 23.3398 -73.584 9.76562 -66.5039 9.76562 -55.957 L 9.76562 -17.0898 C 9.76562 -5.41992 23.3398 2.49023 43.7988 2.49023 Z M 43.7988 -45.9473 C 28.3203 -45.9473 17.8223 -50.0488 17.8223 -55.957 C 17.8223 -62.1582 28.3203 -66.4062 43.7988 -66.4062 C 59.2773 -66.4062 69.7266 -62.1582 69.7266 -55.957 C 69.7266 -50.0488 59.2285 -45.9473 43.7988 -45.9473 Z M 43.7988 -38.3301 C 54.7363 -38.3301 63.7695 -40.3809 69.7266 -43.8965 L 69.7266 -31.9824 C 63.4277 -28.2715 53.7109 -25.9277 43.7988 -25.9277 C 33.8867 -25.9277 24.1211 -28.2715 17.8223 -31.9824 L 17.8223 -43.8965 C 23.8281 -40.3809 32.8125 -38.3301 43.7988 -38.3301 Z M 43.7988 -18.3594 C 53.4668 -18.3594 62.8418 -20.3613 69.7266 -23.6816 L 69.7266 -17.0898 C 69.7266 -10.2051 59.7168 -5.12695 43.7988 -5.12695 C 27.832 -5.12695 17.8223 -10.2051 17.8223 -17.0898 L 17.8223 -23.6816 C 24.707 -20.3613 34.1309 -18.3594 43.7988 -18.3594 Z"/>
  </g>
  <g id="Regular-S" transform="matrix(1 0 0 1 1406.58 696)">
   <path d="M 43.2617 1.9043 C 63.3789 1.9043 76.7578 -5.76172 76.7578 -17.0898 L 76.7578 -55.957 C 76.7578 -66.1621 63.3789 -73.0469 43.2617 -73.0469 C 23.1445 -73.0469 9.76562 -66.1621 9.76562 -55.957 L 9.76562 -17.0898 C 9.76562 -5.76172 23.1445 1.9043 43.2617 1.9043 Z M 43.2617 -45.459 C 27.3926 -45.459 16.7969 -49.707 16.7969 -55.957 C 16.7969 -62.5 27.3926 -66.8945 43.2617 -66.8945 C 59.1309 -66.8945 69.7266 -62.5 69.7266 -55.957 C 69.7266 -49.707 59.1309 -45.459 43.2617 -45.459 Z M 43.2617 -38.8672 C 54.6387 -38.8672 63.8672 -41.0645 69.7266 -44.8242 L 69.7266 -31.7871 C 63.4277 -27.832 53.3691 -25.293 43.2617 -25.293 C 33.1543 -25.293 23.0957 -27.832 16.7969 -31.7871 L 16.7969 -44.8242 C 22.6562 -41.0645 31.8848 -38.8672 43.2617 -38.8672 Z M 43.2617 -18.7012 C 53.1738 -18.7012 62.8906 -20.8984 69.7266 -24.4629 L 69.7266 -17.0898 C 69.7266 -9.7168 59.1309 -4.6875 43.2617 -4.6875 C 27.3926 -4.6875 16.7969 -9.7168 16.7969 -17.0898 L 16.7969 -24.4629 C 23.6816 -20.8984 33.3496 -18.7012 43.2617 -18.7012 Z"/>
  </g>
  <g id="Light-S" transform="matrix(1 0 0 1 1110.97 696)">
   <path d="M 42.1875 -0.878906 C 61.6211 -0.878906 74.5605 -8.20312 74.5605 -18.1152 L 74.5605 -55.957 C 74.5605 -65.0879 61.6211 -71.5332 42.1875 -71.5332 C 22.7051 -71.5332 9.76562 -65.0879 9.76562 -55.957 L 9.76562 -18.1152 C 9.76562 -8.20312 22.7051 -0.878906 42.1875 -0.878906 Z M 42.1875 -45.459 C 25.9766 -45.459 15.1855 -49.8535 15.1855 -55.957 C 15.1855 -62.207 25.9766 -66.748 42.1875 -66.748 C 58.3496 -66.748 69.1406 -62.207 69.1406 -55.957 C 69.1406 -49.8535 58.3496 -45.459 42.1875 -45.459 Z M 42.1875 -40.332 C 54.1016 -40.332 63.5742 -42.7734 69.1406 -46.7285 L 69.1406 -32.9102 C 62.8418 -28.7109 52.4902 -25.8789 42.1875 -25.8789 C 31.8359 -25.8789 21.4844 -28.7109 15.1855 -32.9102 L 15.1855 -46.7285 C 20.752 -42.7734 30.2246 -40.332 42.1875 -40.332 Z M 42.1875 -20.752 C 52.2949 -20.752 62.3535 -23.2422 69.1406 -27.0996 L 69.1406 -18.1152 C 69.1406 -11.2793 58.3496 -5.95703 42.1875 -5.95703 C 25.9766 -5.95703 15.1855 -11.2793 15.1855 -18.1152 L 15.1855 -27.0996 C 21.9727 -23.2422 32.0312 -20.752 42.1875 -20.752 Z"/>
  </g>
  <g id="Thin-S" transform="matrix(1 0 0 1 815.7 696)">
   <path d="M 40.7227 -4.54102 C 59.2773 -4.54102 71.6797 -11.4746 71.6797 -19.5312 L 71.6797 -55.9082 C 71.6797 -63.6719 59.2773 -69.5801 40.7227 -69.5801 C 22.168 -69.5801 9.76562 -63.6719 9.76562 -55.9082 L 9.76562 -19.5312 C 9.76562 -11.4746 22.168 -4.54102 40.7227 -4.54102 Z M 40.7227 -45.4102 C 24.1211 -45.4102 13.0859 -50.0488 13.0859 -55.9082 C 13.0859 -61.8652 24.1211 -66.5527 40.7227 -66.5527 C 57.3242 -66.5527 68.3594 -61.8652 68.3594 -55.9082 C 68.3594 -50.0488 57.3242 -45.4102 40.7227 -45.4102 Z M 40.7227 -42.2363 C 53.6133 -42.2363 63.5254 -45.1172 68.3594 -49.4141 L 68.3594 -34.375 C 62.1094 -29.9316 51.2695 -26.6113 40.7227 -26.6113 C 30.127 -26.6113 19.3359 -29.9316 13.0859 -34.375 L 13.0859 -49.4141 C 17.9199 -45.1172 27.832 -42.2363 40.7227 -42.2363 Z M 40.7227 -23.4375 C 51.1719 -23.4375 61.7188 -26.4648 68.3594 -30.7129 L 68.3594 -19.5312 C 68.3594 -13.3789 57.3242 -7.71484 40.7227 -7.71484 C 24.1211 -7.71484 13.0859 -13.3789 13.0859 -19.5312 L 13.0859 -30.7129 C 19.6777 -26.4648 30.2246 -23.4375 40.7227 -23.4375 Z"/>
  </g>
  <g id="Ultralight-S" transform="matrix(1 0 0 1 519.745 696)">
   <path d="M 39.9902 -6.39648 C 58.1055 -6.39648 70.166 -13.1348 70.166 -20.2637 L 70.166 -55.9082 C 70.166 -62.9395 58.1055 -68.6035 39.9902 -68.6035 C 21.8262 -68.6035 9.76562 -62.9395 9.76562 -55.9082 L 9.76562 -20.2637 C 9.76562 -13.1348 21.8262 -6.39648 39.9902 -6.39648 Z M 39.9902 -45.4102 C 23.1445 -45.4102 11.9629 -50.1465 11.9629 -55.9082 C 11.9629 -61.6699 23.1445 -66.4551 39.9902 -66.4551 C 56.7871 -66.4551 67.9688 -61.6699 67.9688 -55.9082 C 67.9688 -50.1465 56.7871 -45.4102 39.9902 -45.4102 Z M 39.9902 -43.2129 C 53.5156 -43.2129 63.6719 -46.3867 67.9688 -50.9277 L 67.9688 -35.1562 C 61.7188 -30.5664 50.6836 -27.002 39.9902 -27.002 C 29.248 -27.002 18.2129 -30.5664 11.9629 -35.1562 L 11.9629 -50.9277 C 16.2598 -46.3867 26.416 -43.2129 39.9902 -43.2129 Z M 39.9902 -24.8535 C 50.5859 -24.8535 61.4258 -28.125 67.9688 -32.5684 L 67.9688 -20.2637 C 67.9688 -14.4531 56.7871 -8.59375 39.9902 -8.59375 C 23.1445 -8.59375 11.9629 -14.4531 11.9629 -20.2637 L 11.9629 -32.5684 C 18.5059 -28.125 29.3457 -24.8535 39.9902 -24.8535 Z"/>
  </g>
 </g>
</svg>
