<?xml version="1.0" encoding="UTF-8"?>
<!--Generator: Apple Native CoreSVG 148-->
<!DOCTYPE svg
PUBLIC "-//W3C//DTD SVG 1.1//EN"
       "http://www.w3.org/Graphics/SVG/1.1/DTD/svg11.dtd">
<svg version="1.1" xmlns="http://www.w3.org/2000/svg" xmlns:xlink="http://www.w3.org/1999/xlink" width="3300" height="2200">
 <!--glyph: "uni1009E8.medium", point size: 100.000000, font version: "Version 16.0d11e1", template writer version: "8"-->
 <g id="Notes">
  <rect height="2200" id="artboard" style="fill:white;opacity:1" width="3300" x="0" y="0"/>
  <line id="" style="fill:none;stroke:black;opacity:1;stroke-width:0.5;" x1="263" x2="3036" y1="292" y2="292"/>
  <text style="stroke:none;fill:black;font-family:-apple-system,&quot;SF Pro Display&quot;,&quot;SF Pro Text&quot;,Helvetica,sans-serif;font-weight:bold;" transform="matrix(1 0 0 1 263 322)">Weight/Scale Variations</text>
  <text style="stroke:none;fill:black;font-family:-apple-system,&quot;SF Pro Display&quot;,&quot;SF Pro Text&quot;,Helvetica,sans-serif;text-anchor:middle;" transform="matrix(1 0 0 1 559.711 322)">Ultralight</text>
  <text style="stroke:none;fill:black;font-family:-apple-system,&quot;SF Pro Display&quot;,&quot;SF Pro Text&quot;,Helvetica,sans-serif;text-anchor:middle;" transform="matrix(1 0 0 1 856.422 322)">Thin</text>
  <text style="stroke:none;fill:black;font-family:-apple-system,&quot;SF Pro Display&quot;,&quot;SF Pro Text&quot;,Helvetica,sans-serif;text-anchor:middle;" transform="matrix(1 0 0 1 1153.13 322)">Light</text>
  <text style="stroke:none;fill:black;font-family:-apple-system,&quot;SF Pro Display&quot;,&quot;SF Pro Text&quot;,Helvetica,sans-serif;text-anchor:middle;" transform="matrix(1 0 0 1 1449.84 322)">Regular</text>
  <text style="stroke:none;fill:black;font-family:-apple-system,&quot;SF Pro Display&quot;,&quot;SF Pro Text&quot;,Helvetica,sans-serif;text-anchor:middle;" transform="matrix(1 0 0 1 1746.56 322)">Medium</text>
  <text style="stroke:none;fill:black;font-family:-apple-system,&quot;SF Pro Display&quot;,&quot;SF Pro Text&quot;,Helvetica,sans-serif;text-anchor:middle;" transform="matrix(1 0 0 1 2043.27 322)">Semibold</text>
  <text style="stroke:none;fill:black;font-family:-apple-system,&quot;SF Pro Display&quot;,&quot;SF Pro Text&quot;,Helvetica,sans-serif;text-anchor:middle;" transform="matrix(1 0 0 1 2339.98 322)">Bold</text>
  <text style="stroke:none;fill:black;font-family:-apple-system,&quot;SF Pro Display&quot;,&quot;SF Pro Text&quot;,Helvetica,sans-serif;text-anchor:middle;" transform="matrix(1 0 0 1 2636.69 322)">Heavy</text>
  <text style="stroke:none;fill:black;font-family:-apple-system,&quot;SF Pro Display&quot;,&quot;SF Pro Text&quot;,Helvetica,sans-serif;text-anchor:middle;" transform="matrix(1 0 0 1 2933.4 322)">Black</text>
  <line id="" style="fill:none;stroke:black;opacity:1;stroke-width:0.5;" x1="263" x2="3036" y1="1903" y2="1903"/>
  <g id="" transform="matrix(1 0 0 1 263 1933)">
   <path d="M 9.24805 0.830078 C 13.5547 0.830078 17.1387 -2.74414 17.1387 -7.05078 C 17.1387 -11.3574 13.5449 -14.9316 9.23828 -14.9316 C 4.94141 -14.9316 1.36719 -11.3574 1.36719 -7.05078 C 1.36719 -2.74414 4.95117 0.830078 9.24805 0.830078 Z M 9.24805 -0.654297 C 5.70312 -0.654297 2.87109 -3.49609 2.87109 -7.05078 C 2.87109 -10.6055 5.69336 -13.4473 9.23828 -13.4473 C 12.793 -13.4473 15.6348 -10.6055 15.6445 -7.05078 C 15.6543 -3.49609 12.8027 -0.654297 9.24805 -0.654297 Z M 9.22852 -3.62305 C 9.69727 -3.62305 9.9707 -3.93555 9.9707 -4.45312 L 9.9707 -6.31836 L 12.002 -6.31836 C 12.5 -6.31836 12.832 -6.57227 12.832 -7.04102 C 12.832 -7.51953 12.5195 -7.7832 12.002 -7.7832 L 9.9707 -7.7832 L 9.9707 -9.81445 C 9.9707 -10.332 9.69727 -10.6543 9.22852 -10.6543 C 8.75977 -10.6543 8.50586 -10.3125 8.50586 -9.81445 L 8.50586 -7.7832 L 6.49414 -7.7832 C 5.97656 -7.7832 5.64453 -7.51953 5.64453 -7.04102 C 5.64453 -6.57227 5.99609 -6.31836 6.49414 -6.31836 L 8.50586 -6.31836 L 8.50586 -4.45312 C 8.50586 -3.95508 8.75977 -3.62305 9.22852 -3.62305 Z"/>
  </g>
  <g id="" transform="matrix(1 0 0 1 281.506 1933)">
   <path d="M 11.709 2.91016 C 17.1582 2.91016 21.6699 -1.61133 21.6699 -7.05078 C 21.6699 -12.5 17.1484 -17.0117 11.6992 -17.0117 C 6.25977 -17.0117 1.74805 -12.5 1.74805 -7.05078 C 1.74805 -1.61133 6.26953 2.91016 11.709 2.91016 Z M 11.709 1.25 C 7.09961 1.25 3.41797 -2.44141 3.41797 -7.05078 C 3.41797 -11.6602 7.08984 -15.3516 11.6992 -15.3516 C 16.3086 -15.3516 20 -11.6602 20.0098 -7.05078 C 20.0195 -2.44141 16.3184 1.25 11.709 1.25 Z M 11.6797 -2.66602 C 12.207 -2.66602 12.5098 -3.01758 12.5098 -3.59375 L 12.5098 -6.23047 L 15.3223 -6.23047 C 15.8691 -6.23047 16.25 -6.51367 16.25 -7.03125 C 16.25 -7.55859 15.8887 -7.86133 15.3223 -7.86133 L 12.5098 -7.86133 L 12.5098 -10.6836 C 12.5098 -11.25 12.207 -11.6113 11.6797 -11.6113 C 11.1621 -11.6113 10.8789 -11.2305 10.8789 -10.6836 L 10.8789 -7.86133 L 8.07617 -7.86133 C 7.50977 -7.86133 7.13867 -7.55859 7.13867 -7.03125 C 7.13867 -6.51367 7.5293 -6.23047 8.07617 -6.23047 L 10.8789 -6.23047 L 10.8789 -3.59375 C 10.8789 -3.03711 11.1621 -2.66602 11.6797 -2.66602 Z"/>
  </g>
  <g id="" transform="matrix(1 0 0 1 304.924 1933)">
   <path d="M 14.9707 5.66406 C 21.9336 5.66406 27.6953 -0.0976562 27.6953 -7.05078 C 27.6953 -14.0137 21.9238 -19.7754 14.9609 -19.7754 C 8.00781 -19.7754 2.25586 -14.0137 2.25586 -7.05078 C 2.25586 -0.0976562 8.01758 5.66406 14.9707 5.66406 Z M 14.9707 3.84766 C 8.93555 3.84766 4.08203 -1.01562 4.08203 -7.05078 C 4.08203 -13.0957 8.92578 -17.9492 14.9609 -17.9492 C 21.0059 -17.9492 25.8594 -13.0957 25.8691 -7.05078 C 25.8789 -1.01562 21.0156 3.84766 14.9707 3.84766 Z M 14.9414 -1.38672 C 15.5176 -1.38672 15.8594 -1.77734 15.8594 -2.38281 L 15.8594 -6.13281 L 19.7754 -6.13281 C 20.3711 -6.13281 20.7812 -6.46484 20.7812 -7.02148 C 20.7812 -7.59766 20.3906 -7.93945 19.7754 -7.93945 L 15.8594 -7.93945 L 15.8594 -11.8652 C 15.8594 -12.4805 15.5176 -12.8711 14.9414 -12.8711 C 14.375 -12.8711 14.0527 -12.4609 14.0527 -11.8652 L 14.0527 -7.93945 L 10.1465 -7.93945 C 9.53125 -7.93945 9.13086 -7.59766 9.13086 -7.02148 C 9.13086 -6.46484 9.55078 -6.13281 10.1465 -6.13281 L 14.0527 -6.13281 L 14.0527 -2.38281 C 14.0527 -1.79688 14.375 -1.38672 14.9414 -1.38672 Z"/>
  </g>
  <text style="stroke:none;fill:black;font-family:-apple-system,&quot;SF Pro Display&quot;,&quot;SF Pro Text&quot;,Helvetica,sans-serif;font-weight:bold;" transform="matrix(1 0 0 1 263 1953)">Design Variations</text>
  <text style="stroke:none;fill:black;font-family:-apple-system,&quot;SF Pro Display&quot;,&quot;SF Pro Text&quot;,Helvetica,sans-serif;" transform="matrix(1 0 0 1 263 1971)">Symbols are supported in up to nine weights and three scales.</text>
  <text style="stroke:none;fill:black;font-family:-apple-system,&quot;SF Pro Display&quot;,&quot;SF Pro Text&quot;,Helvetica,sans-serif;" transform="matrix(1 0 0 1 263 1989)">For optimal layout with text and other symbols, vertically align</text>
  <text style="stroke:none;fill:black;font-family:-apple-system,&quot;SF Pro Display&quot;,&quot;SF Pro Text&quot;,Helvetica,sans-serif;" transform="matrix(1 0 0 1 263 2007)">symbols with the adjacent text.</text>
  <line id="" style="fill:none;stroke:#00AEEF;stroke-width:0.5;opacity:1.0;" x1="776" x2="776" y1="1919" y2="1933"/>
  <g id="" transform="matrix(1 0 0 1 776 1933)">
   <path d="M 3.31055 0.126953 C 3.82812 0.126953 4.08203 -0.0683594 4.26758 -0.605469 L 5.52734 -4.0625 L 11.2891 -4.0625 L 12.5488 -0.605469 C 12.7344 -0.0683594 12.9883 0.126953 13.4961 0.126953 C 14.0137 0.126953 14.3457 -0.185547 14.3457 -0.673828 C 14.3457 -0.839844 14.3164 -0.986328 14.2383 -1.20117 L 9.6582 -13.3887 C 9.43359 -13.9941 9.0332 -14.2871 8.4082 -14.2871 C 7.80273 -14.2871 7.39258 -13.9941 7.17773 -13.3984 L 2.59766 -1.19141 C 2.51953 -0.976562 2.49023 -0.830078 2.49023 -0.664062 C 2.49023 -0.175781 2.80273 0.126953 3.31055 0.126953 Z M 6.00586 -5.53711 L 8.37891 -12.1094 L 8.42773 -12.1094 L 10.8008 -5.53711 Z"/>
  </g>
  <line id="" style="fill:none;stroke:#00AEEF;stroke-width:0.5;opacity:1.0;" x1="792.836" x2="792.836" y1="1919" y2="1933"/>
  <text style="stroke:none;fill:black;font-family:-apple-system,&quot;SF Pro Display&quot;,&quot;SF Pro Text&quot;,Helvetica,sans-serif;font-weight:bold;" transform="matrix(1 0 0 1 776 1953)">Margins</text>
  <text style="stroke:none;fill:black;font-family:-apple-system,&quot;SF Pro Display&quot;,&quot;SF Pro Text&quot;,Helvetica,sans-serif;" transform="matrix(1 0 0 1 776 1971)">Leading and trailing margins on the left and right side of each symbol</text>
  <text style="stroke:none;fill:black;font-family:-apple-system,&quot;SF Pro Display&quot;,&quot;SF Pro Text&quot;,Helvetica,sans-serif;" transform="matrix(1 0 0 1 776 1989)">can be adjusted by modifying the x-location of the margin guidelines.</text>
  <text style="stroke:none;fill:black;font-family:-apple-system,&quot;SF Pro Display&quot;,&quot;SF Pro Text&quot;,Helvetica,sans-serif;" transform="matrix(1 0 0 1 776 2007)">Modifications are automatically applied proportionally to all</text>
  <text style="stroke:none;fill:black;font-family:-apple-system,&quot;SF Pro Display&quot;,&quot;SF Pro Text&quot;,Helvetica,sans-serif;" transform="matrix(1 0 0 1 776 2025)">scales and weights.</text>
  <g id="" transform="matrix(1 0 0 1 1289 1933)">
   <path d="M 2.8418 1.86523 L 4.54102 3.57422 C 5.40039 4.44336 6.38672 4.38477 7.31445 3.35938 L 17.4902 -7.85156 C 17.7539 -7.76367 18.0273 -7.7832 18.3398 -7.8418 L 19.4043 -8.03711 L 20.0684 -7.36328 L 20.0293 -6.80664 C 19.9902 -6.30859 20.1172 -5.92773 20.6055 -5.44922 L 21.3672 -4.70703 C 21.8457 -4.22852 22.4609 -4.19922 22.9297 -4.66797 L 25.8398 -7.58789 C 26.3086 -8.05664 26.2891 -8.65234 25.8105 -9.13086 L 25.0391 -9.89258 C 24.5605 -10.3711 24.1895 -10.5273 23.7109 -10.4883 L 23.1348 -10.4395 L 22.4902 -11.0742 L 22.7344 -12.1973 C 22.8613 -12.7637 22.7051 -13.2031 22.1191 -13.7891 L 19.9219 -15.9766 C 16.582 -19.2969 12.1484 -19.2188 9.25781 -16.3281 C 8.83789 -15.918 8.80859 -15.3418 9.04297 -14.9512 C 9.27734 -14.5898 9.73633 -14.3555 10.3809 -14.5215 C 11.8457 -14.8633 13.3691 -14.9219 14.7949 -13.9844 L 14.209 -12.5293 C 14.0137 -12.0508 13.9844 -11.6504 14.1113 -11.2891 L 3.04688 -0.898438 C 2.06055 0.0195312 1.98242 0.996094 2.8418 1.86523 Z M 10.752 -15.957 C 13.1836 -17.7344 16.4746 -17.4316 18.7012 -15.2051 L 21.1328 -12.793 C 21.3672 -12.5586 21.4062 -12.373 21.3379 -12.0312 L 21.0156 -10.5469 L 22.5195 -9.0625 L 23.5059 -9.12109 C 23.7598 -9.13086 23.8379 -9.11133 24.0332 -8.91602 L 24.6094 -8.33984 L 22.168 -5.89844 L 21.5918 -6.47461 C 21.3965 -6.66992 21.3672 -6.74805 21.377 -7.01172 L 21.4453 -7.98828 L 19.9512 -9.47266 L 18.4277 -9.21875 C 18.1055 -9.15039 17.959 -9.17969 17.7148 -9.41406 L 15.7129 -11.416 C 15.459 -11.6504 15.4297 -11.8164 15.5859 -12.1875 L 16.4648 -14.2773 C 14.9023 -15.7324 12.8711 -16.3574 10.8398 -15.7617 C 10.6836 -15.7227 10.625 -15.8496 10.752 -15.957 Z M 5.27344 2.30469 L 4.10156 1.14258 C 3.63281 0.683594 3.74023 0.341797 4.14062 -0.0195312 L 14.9512 -10.1953 L 16.416 -8.71094 L 6.42578 2.27539 C 6.07422 2.67578 5.74219 2.77344 5.27344 2.30469 Z"/>
  </g>
  <text style="stroke:none;fill:black;font-family:-apple-system,&quot;SF Pro Display&quot;,&quot;SF Pro Text&quot;,Helvetica,sans-serif;font-weight:bold;" transform="matrix(1 0 0 1 1289 1953)">Exporting</text>
  <text style="stroke:none;fill:black;font-family:-apple-system,&quot;SF Pro Display&quot;,&quot;SF Pro Text&quot;,Helvetica,sans-serif;" transform="matrix(1 0 0 1 1289 1971)">Symbols should be outlined when exporting to ensure the</text>
  <text style="stroke:none;fill:black;font-family:-apple-system,&quot;SF Pro Display&quot;,&quot;SF Pro Text&quot;,Helvetica,sans-serif;" transform="matrix(1 0 0 1 1289 1989)">design is preserved when submitting to Xcode.</text>
  <text id="template-version" style="stroke:none;fill:black;font-family:-apple-system,&quot;SF Pro Display&quot;,&quot;SF Pro Text&quot;,Helvetica,sans-serif;text-anchor:end;" transform="matrix(1 0 0 1 3036 1933)">Template v.2.0</text>
  <text style="stroke:none;fill:black;font-family:-apple-system,&quot;SF Pro Display&quot;,&quot;SF Pro Text&quot;,Helvetica,sans-serif;text-anchor:end;" transform="matrix(1 0 0 1 3036 1951)">Requires Xcode 12 or greater</text>
  <text style="stroke:none;fill:black;font-family:-apple-system,&quot;SF Pro Display&quot;,&quot;SF Pro Text&quot;,Helvetica,sans-serif;text-anchor:end;" transform="matrix(1 0 0 1 3036 1969)">Generated from die.face.3.fill</text>
  <text style="stroke:none;fill:black;font-family:-apple-system,&quot;SF Pro Display&quot;,&quot;SF Pro Text&quot;,Helvetica,sans-serif;text-anchor:end;" transform="matrix(1 0 0 1 3036 1987)">Typeset at 100 points</text>
  <text style="stroke:none;fill:black;font-family:-apple-system,&quot;SF Pro Display&quot;,&quot;SF Pro Text&quot;,Helvetica,sans-serif;" transform="matrix(1 0 0 1 263 726)">Small</text>
  <text style="stroke:none;fill:black;font-family:-apple-system,&quot;SF Pro Display&quot;,&quot;SF Pro Text&quot;,Helvetica,sans-serif;" transform="matrix(1 0 0 1 263 1156)">Medium</text>
  <text style="stroke:none;fill:black;font-family:-apple-system,&quot;SF Pro Display&quot;,&quot;SF Pro Text&quot;,Helvetica,sans-serif;" transform="matrix(1 0 0 1 263 1586)">Large</text>
 </g>
 <g id="Guides">
  <g id="H-reference" style="fill:#27AAE1;stroke:none;" transform="matrix(1 0 0 1 339 696)">
   <path d="M 0.976562 0 L 3.66211 0 L 12.9883 -24.4629 L 45.7031 -24.4629 L 55.0781 0 L 57.7148 0 L 30.6152 -70.459 L 28.125 -70.459 Z M 29.2969 -67.1387 L 29.3945 -67.1387 L 44.873 -26.709 L 13.8672 -26.709 Z"/>
  </g>
  <line id="Baseline-S" style="fill:none;stroke:#27AAE1;opacity:1;stroke-width:0.5;" x1="263" x2="3036" y1="696" y2="696"/>
  <line id="Capline-S" style="fill:none;stroke:#27AAE1;opacity:1;stroke-width:0.5;" x1="263" x2="3036" y1="625.541" y2="625.541"/>
  <g id="H-reference" style="fill:#27AAE1;stroke:none;" transform="matrix(1 0 0 1 339 1126)">
   <path d="M 0.976562 0 L 3.66211 0 L 12.9883 -24.4629 L 45.7031 -24.4629 L 55.0781 0 L 57.7148 0 L 30.6152 -70.459 L 28.125 -70.459 Z M 29.2969 -67.1387 L 29.3945 -67.1387 L 44.873 -26.709 L 13.8672 -26.709 Z"/>
  </g>
  <line id="Baseline-M" style="fill:none;stroke:#27AAE1;opacity:1;stroke-width:0.5;" x1="263" x2="3036" y1="1126" y2="1126"/>
  <line id="Capline-M" style="fill:none;stroke:#27AAE1;opacity:1;stroke-width:0.5;" x1="263" x2="3036" y1="1055.54" y2="1055.54"/>
  <g id="H-reference" style="fill:#27AAE1;stroke:none;" transform="matrix(1 0 0 1 339 1556)">
   <path d="M 0.976562 0 L 3.66211 0 L 12.9883 -24.4629 L 45.7031 -24.4629 L 55.0781 0 L 57.7148 0 L 30.6152 -70.459 L 28.125 -70.459 Z M 29.2969 -67.1387 L 29.3945 -67.1387 L 44.873 -26.709 L 13.8672 -26.709 Z"/>
  </g>
  <line id="Baseline-L" style="fill:none;stroke:#27AAE1;opacity:1;stroke-width:0.5;" x1="263" x2="3036" y1="1556" y2="1556"/>
  <line id="Capline-L" style="fill:none;stroke:#27AAE1;opacity:1;stroke-width:0.5;" x1="263" x2="3036" y1="1485.54" y2="1485.54"/>
  <line id="left-margin" style="fill:none;stroke:#00AEEF;stroke-width:0.5;opacity:1.0;" x1="1392.45" x2="1392.45" y1="1030.79" y2="1150.12"/>
  <line id="right-margin" style="fill:none;stroke:#00AEEF;stroke-width:0.5;opacity:1.0;" x1="1507.24" x2="1507.24" y1="1030.79" y2="1150.12"/>
 </g>
 <g id="Symbols">
  <g id="Black-L" transform="matrix(1 0 0 1 2855.62 1556)">
   <path d="M 39.9902 26.5137 L 115.576 26.5137 C 130.811 26.5137 139.502 17.8711 139.502 2.68555 L 139.502 -73.0957 C 139.502 -88.2812 130.811 -96.875 115.576 -96.875 L 39.9902 -96.875 C 24.7559 -96.875 16.0645 -88.2812 16.0645 -73.0957 L 16.0645 2.68555 C 16.0645 17.8711 24.7559 26.5137 39.9902 26.5137 Z M 103.906 -50.5371 C 97.9004 -50.6348 93.0176 -55.3711 93.0176 -61.2793 C 93.0176 -67.1875 97.9004 -72.0215 103.906 -72.0215 C 109.766 -72.0215 114.6 -67.1875 114.6 -61.2793 C 114.6 -55.2734 109.717 -50.3906 103.906 -50.5371 Z M 77.832 -24.4141 C 71.8262 -24.4141 67.0898 -29.1992 67.0898 -35.2539 C 67.0898 -41.1621 71.9238 -45.8496 77.832 -45.8496 C 83.5938 -45.8496 88.5254 -41.1133 88.5254 -35.2539 C 88.5254 -29.3457 83.7402 -24.4141 77.832 -24.4141 Z M 51.709 1.75781 C 45.8008 1.75781 40.9668 -3.125 40.9668 -9.13086 C 40.9668 -14.9902 45.8008 -19.7754 51.709 -19.7754 C 57.5195 -19.7754 62.4023 -14.9414 62.4023 -9.13086 C 62.4023 -3.17383 57.5684 1.75781 51.709 1.75781 Z"/>
  </g>
  <g id="Heavy-L" transform="matrix(1 0 0 1 2559.93 1556)">
   <path d="M 38.8184 25.4883 L 114.697 25.4883 C 129.346 25.4883 137.451 17.4316 137.451 2.88086 L 137.451 -73.2422 C 137.451 -87.793 129.346 -95.8496 114.697 -95.8496 L 38.8184 -95.8496 C 24.2188 -95.8496 16.0645 -87.793 16.0645 -73.2422 L 16.0645 2.88086 C 16.0645 17.4316 24.2188 25.4883 38.8184 25.4883 Z M 103.662 -51.4648 C 97.8027 -51.5625 92.9688 -56.25 92.9688 -62.1094 C 92.9688 -68.0176 97.8027 -72.7539 103.662 -72.7539 C 109.521 -72.7539 114.307 -68.0176 114.307 -62.1094 C 114.307 -56.2012 109.473 -51.3184 103.662 -51.4648 Z M 76.8066 -24.5117 C 70.8496 -24.5117 66.1621 -29.2969 66.1621 -35.2539 C 66.1621 -41.1133 70.9473 -45.752 76.8066 -45.752 C 82.5684 -45.752 87.4023 -41.0645 87.4023 -35.2539 C 87.4023 -29.3945 82.6172 -24.5117 76.8066 -24.5117 Z M 49.8535 2.44141 C 43.9941 2.44141 39.2578 -2.34375 39.2578 -8.30078 C 39.2578 -14.1113 43.9941 -18.8477 49.8535 -18.8477 C 55.6641 -18.8477 60.4492 -14.0625 60.4492 -8.30078 C 60.4492 -2.39258 55.7129 2.44141 49.8535 2.44141 Z"/>
  </g>
  <g id="Bold-L" transform="matrix(1 0 0 1 2264.37 1556)">
   <path d="M 37.5 24.3652 L 113.721 24.3652 C 127.637 24.3652 135.156 16.8945 135.156 3.07617 L 135.156 -73.3887 C 135.156 -87.207 127.637 -94.7266 113.721 -94.7266 L 37.5 -94.7266 C 23.6328 -94.7266 16.0645 -87.2559 16.0645 -73.3887 L 16.0645 3.07617 C 16.0645 16.8945 23.6328 24.3652 37.5 24.3652 Z M 103.467 -52.5391 C 97.6074 -52.5879 92.8223 -57.2266 92.8223 -63.0859 C 92.8223 -68.8965 97.6074 -73.5352 103.467 -73.5352 C 109.229 -73.5352 113.965 -68.8965 113.965 -63.0859 C 113.965 -57.1777 109.18 -52.3926 103.467 -52.5391 Z M 75.6348 -24.6582 C 69.7754 -24.6582 65.1367 -29.3457 65.1367 -35.2539 C 65.1367 -41.0156 69.873 -45.6543 75.6348 -45.6543 C 81.3477 -45.6543 86.1328 -41.0156 86.1328 -35.2539 C 86.1328 -29.3945 81.3965 -24.6582 75.6348 -24.6582 Z M 47.8516 3.22266 C 42.041 3.22266 37.3047 -1.51367 37.3047 -7.37305 C 37.3047 -13.1348 42.041 -17.8223 47.8516 -17.8223 C 53.5645 -17.8223 58.3008 -13.1348 58.3008 -7.37305 C 58.3008 -1.5625 53.5645 3.22266 47.8516 3.22266 Z"/>
  </g>
  <g id="Semibold-L" transform="matrix(1 0 0 1 1968.44 1556)">
   <path d="M 36.6211 23.584 L 113.037 23.584 C 126.514 23.584 133.594 16.5039 133.594 3.17383 L 133.594 -73.5352 C 133.594 -86.8164 126.514 -93.9453 113.037 -93.9453 L 36.6211 -93.9453 C 23.1934 -93.9453 16.0645 -86.8652 16.0645 -73.5352 L 16.0645 3.17383 C 16.0645 16.5527 23.1934 23.584 36.6211 23.584 Z M 103.32 -53.2227 C 97.5098 -53.3203 92.7734 -57.9102 92.7734 -63.7207 C 92.7734 -69.4824 97.5098 -74.1211 103.32 -74.1211 C 108.984 -74.1211 113.721 -69.4824 113.721 -63.7207 C 113.721 -57.8613 108.984 -53.0762 103.32 -53.2227 Z M 74.8535 -24.707 C 69.043 -24.707 64.4531 -29.3945 64.4531 -35.2539 C 64.4531 -40.9668 69.0918 -45.6055 74.8535 -45.6055 C 80.5176 -45.6055 85.2539 -40.9668 85.2539 -35.2539 C 85.2539 -29.4434 80.5664 -24.707 74.8535 -24.707 Z M 46.4355 3.75977 C 40.6738 3.75977 35.9863 -0.927734 35.9863 -6.73828 C 35.9863 -12.5 40.6738 -17.1387 46.4355 -17.1387 C 52.0996 -17.1387 56.7871 -12.4512 56.7871 -6.73828 C 56.7871 -0.976562 52.0996 3.75977 46.4355 3.75977 Z"/>
  </g>
  <g id="Medium-L" transform="matrix(1 0 0 1 1672.31 1556)">
   <path d="M 35.9375 22.998 L 112.5 22.998 C 125.635 22.998 132.422 16.2109 132.422 3.27148 L 132.422 -73.6328 C 132.422 -86.5234 125.635 -93.3105 112.5 -93.3105 L 35.9375 -93.3105 C 22.9004 -93.3105 16.0645 -86.5723 16.0645 -73.6328 L 16.0645 3.27148 C 16.0645 16.2598 22.9004 22.998 35.9375 22.998 Z M 103.174 -53.8086 C 97.4609 -53.8574 92.7246 -58.3984 92.7246 -64.209 C 92.7246 -69.9219 97.4609 -74.5117 103.174 -74.5117 C 108.838 -74.5117 113.525 -69.9219 113.525 -64.209 C 113.525 -58.3984 108.838 -53.6621 103.174 -53.8086 Z M 74.2676 -24.7559 C 68.5059 -24.7559 63.916 -29.4434 63.916 -35.2539 C 63.916 -40.918 68.5059 -45.5078 74.2676 -45.5078 C 79.8828 -45.5078 84.6191 -40.918 84.6191 -35.2539 C 84.6191 -29.4922 79.9316 -24.7559 74.2676 -24.7559 Z M 45.3613 4.15039 C 39.5996 4.15039 35.0098 -0.488281 35.0098 -6.25 C 35.0098 -11.9629 39.5996 -16.6016 45.3613 -16.6016 C 51.0254 -16.6016 55.6641 -11.9629 55.6641 -6.25 C 55.6641 -0.537109 51.0254 4.15039 45.3613 4.15039 Z"/>
  </g>
  <g id="Regular-L" transform="matrix(1 0 0 1 1376.38 1556)">
   <path d="M 35.0586 22.2168 L 111.816 22.2168 C 124.463 22.2168 130.859 15.8691 130.859 3.41797 L 130.859 -73.7305 C 130.859 -86.1816 124.463 -92.5293 111.816 -92.5293 L 35.0586 -92.5293 C 22.4609 -92.5293 16.0645 -86.2305 16.0645 -73.7305 L 16.0645 3.41797 C 16.0645 15.918 22.4609 22.2168 35.0586 22.2168 Z M 103.027 -54.4922 C 97.3633 -54.5898 92.627 -59.082 92.627 -64.8438 C 92.627 -70.5566 97.3633 -75.0977 103.027 -75.0977 C 108.643 -75.0977 113.281 -70.5566 113.281 -64.8438 C 113.281 -59.082 108.643 -54.3945 103.027 -54.4922 Z M 73.4863 -24.8535 C 67.7734 -24.8535 63.1836 -29.4922 63.1836 -35.2539 C 63.1836 -40.8691 67.7734 -45.459 73.4863 -45.459 C 79.1016 -45.459 83.7402 -40.8691 83.7402 -35.2539 C 83.7402 -29.4922 79.1016 -24.8535 73.4863 -24.8535 Z M 43.9453 4.6875 C 38.2812 4.6875 33.6914 0.0488281 33.6914 -5.61523 C 33.6914 -11.3281 38.2812 -15.8691 43.9453 -15.8691 C 49.5605 -15.8691 54.1992 -11.3281 54.1992 -5.61523 C 54.1992 0.0488281 49.5605 4.6875 43.9453 4.6875 Z"/>
  </g>
  <g id="Light-L" transform="matrix(1 0 0 1 1080.5 1556)">
   <path d="M 34.0332 21.4355 L 111.23 21.4355 C 123.096 21.4355 129.199 15.2344 129.199 3.56445 L 129.199 -73.8281 C 129.199 -85.5469 123.096 -91.6992 111.23 -91.6992 L 34.0332 -91.6992 C 22.168 -91.6992 16.0645 -85.6445 16.0645 -73.8281 L 16.0645 3.56445 C 16.0645 15.3809 22.168 21.4355 34.0332 21.4355 Z M 102.686 -55.3711 C 97.2168 -55.4688 92.6758 -59.8145 92.6758 -65.3809 C 92.6758 -70.8496 97.2168 -75.2441 102.686 -75.2441 C 108.105 -75.2441 112.549 -70.8496 112.549 -65.3809 C 112.549 -59.8145 108.105 -55.2734 102.686 -55.3711 Z M 72.6562 -25.1953 C 67.1875 -25.1953 62.7441 -29.6875 62.7441 -35.2539 C 62.7441 -40.6738 67.1875 -45.1172 72.6562 -45.1172 C 78.0762 -45.1172 82.5684 -40.6738 82.5684 -35.2539 C 82.5684 -29.6875 78.0762 -25.1953 72.6562 -25.1953 Z M 42.6758 4.78516 C 37.1582 4.78516 32.7148 0.341797 32.7148 -5.17578 C 32.7148 -10.6445 37.1582 -15.0879 42.6758 -15.0879 C 48.0469 -15.0879 52.5391 -10.6445 52.5391 -5.17578 C 52.5391 0.341797 48.0469 4.78516 42.6758 4.78516 Z"/>
  </g>
  <g id="Thin-L" transform="matrix(1 0 0 1 784.889 1556)">
   <path d="M 32.666 20.3613 L 110.352 20.3613 C 121.24 20.3613 127.002 14.4531 127.002 3.75977 L 127.002 -73.9746 C 127.002 -84.7168 121.24 -90.5762 110.352 -90.5762 L 32.666 -90.5762 C 21.7773 -90.5762 16.0645 -84.8633 16.0645 -73.9746 L 16.0645 3.75977 C 16.0645 14.6484 21.7773 20.3613 32.666 20.3613 Z M 102.197 -56.4941 C 96.9727 -56.5918 92.6758 -60.7422 92.6758 -66.0645 C 92.6758 -71.2891 96.9727 -75.4395 102.197 -75.4395 C 107.324 -75.4395 111.572 -71.2891 111.572 -66.0645 C 111.572 -60.7422 107.324 -56.4453 102.197 -56.4941 Z M 71.582 -25.6348 C 66.3574 -25.6348 62.1094 -29.9805 62.1094 -35.2539 C 62.1094 -40.4297 66.3574 -44.6289 71.582 -44.6289 C 76.709 -44.6289 81.0059 -40.4297 81.0059 -35.2539 C 81.0059 -29.9805 76.709 -25.6348 71.582 -25.6348 Z M 40.918 4.93164 C 35.6934 4.93164 31.4941 0.683594 31.4941 -4.54102 C 31.4941 -9.76562 35.6934 -14.0137 40.918 -14.0137 C 46.0449 -14.0137 50.293 -9.76562 50.293 -4.54102 C 50.293 0.683594 46.0449 4.93164 40.918 4.93164 Z"/>
  </g>
  <g id="Ultralight-L" transform="matrix(1 0 0 1 488.739 1556)">
   <path d="M 31.9824 19.7754 L 109.961 19.7754 C 120.312 19.7754 125.879 14.0625 125.879 3.85742 L 125.879 -74.0723 C 125.879 -84.2773 120.312 -89.9902 109.961 -89.9902 L 31.9824 -89.9902 C 21.582 -89.9902 16.0645 -84.4727 16.0645 -74.0723 L 16.0645 3.85742 C 16.0645 14.2578 21.582 19.7754 31.9824 19.7754 Z M 101.953 -57.1289 C 96.875 -57.1777 92.6758 -61.2305 92.6758 -66.4062 C 92.6758 -71.4844 96.875 -75.5371 101.953 -75.5371 C 106.934 -75.5371 111.084 -71.4844 111.084 -66.4062 C 111.084 -61.2305 106.934 -57.0312 101.953 -57.1289 Z M 70.9961 -25.8789 C 65.918 -25.8789 61.7676 -30.127 61.7676 -35.2539 C 61.7676 -40.2832 65.918 -44.3848 70.9961 -44.3848 C 76.0254 -44.3848 80.2246 -40.2832 80.2246 -35.2539 C 80.2246 -30.127 76.0254 -25.8789 70.9961 -25.8789 Z M 40.0391 4.98047 C 34.9609 4.98047 30.8105 0.830078 30.8105 -4.24805 C 30.8105 -9.32617 34.9609 -13.4277 40.0391 -13.4277 C 45.0684 -13.4277 49.1699 -9.32617 49.1699 -4.24805 C 49.1699 0.830078 45.0684 4.98047 40.0391 4.98047 Z"/>
  </g>
  <g id="Black-M" transform="matrix(1 0 0 1 2872.19 1126)">
   <path d="M 31.9824 13.5742 L 90.4297 13.5742 C 102.686 13.5742 109.961 6.29883 109.961 -5.95703 L 109.961 -64.4043 C 109.961 -76.6602 102.686 -83.9355 90.4297 -83.9355 L 31.9824 -83.9355 C 19.7266 -83.9355 12.4512 -76.6602 12.4512 -64.4043 L 12.4512 -5.95703 C 12.4512 6.29883 19.7266 13.5742 31.9824 13.5742 Z M 80.6152 -46.2891 C 75.9766 -46.3379 72.2656 -50.0488 72.2656 -54.5898 C 72.2656 -59.1309 75.9766 -62.8418 80.6152 -62.8418 C 85.1562 -62.8418 88.8672 -59.1309 88.8672 -54.5898 C 88.8672 -49.9512 85.1074 -46.1426 80.6152 -46.2891 Z M 61.2793 -26.9043 C 56.6406 -26.9043 53.0273 -30.5664 53.0273 -35.2539 C 53.0273 -39.7949 56.7383 -43.4082 61.2793 -43.4082 C 65.7227 -43.4082 69.5312 -39.7461 69.5312 -35.2539 C 69.5312 -30.7129 65.8203 -26.9043 61.2793 -26.9043 Z M 41.8457 -7.4707 C 37.3047 -7.4707 33.5449 -11.2305 33.5449 -15.8691 C 33.5449 -20.3613 37.3047 -24.0234 41.8457 -24.0234 C 46.3379 -24.0234 50.0977 -20.3125 50.0977 -15.8691 C 50.0977 -11.2793 46.3867 -7.4707 41.8457 -7.4707 Z"/>
  </g>
  <g id="Heavy-M" transform="matrix(1 0 0 1 2576.39 1126)">
   <path d="M 31.0059 12.6465 L 89.6484 12.6465 C 101.416 12.6465 108.154 5.9082 108.154 -5.81055 L 108.154 -64.5508 C 108.154 -76.2695 101.416 -83.0566 89.6484 -83.0566 L 31.0059 -83.0566 C 19.2383 -83.0566 12.4512 -76.3184 12.4512 -64.5508 L 12.4512 -5.81055 C 12.4512 5.9082 19.2383 12.6465 31.0059 12.6465 Z M 80.4688 -47.0703 C 75.8789 -47.168 72.168 -50.7812 72.168 -55.3711 C 72.168 -59.9121 75.8789 -63.623 80.4688 -63.623 C 85.0098 -63.623 88.7207 -59.9121 88.7207 -55.3711 C 88.7207 -50.7324 84.9609 -46.9727 80.4688 -47.0703 Z M 60.3516 -26.9531 C 55.7129 -26.9531 52.0996 -30.6152 52.0996 -35.2539 C 52.0996 -39.7949 55.8105 -43.4082 60.3516 -43.4082 C 64.7949 -43.4082 68.6035 -39.7461 68.6035 -35.2539 C 68.6035 -30.7129 64.8926 -26.9531 60.3516 -26.9531 Z M 40.1855 -6.73828 C 35.6445 -6.73828 31.9336 -10.4492 31.9336 -15.0879 C 31.9336 -19.5801 35.6445 -23.2422 40.1855 -23.2422 C 44.6777 -23.2422 48.3887 -19.5312 48.3887 -15.0879 C 48.3887 -10.498 44.7266 -6.73828 40.1855 -6.73828 Z"/>
  </g>
  <g id="Bold-M" transform="matrix(1 0 0 1 2280.68 1126)">
   <path d="M 29.8828 11.6699 L 88.7207 11.6699 C 99.9512 11.6699 106.152 5.46875 106.152 -5.66406 L 106.152 -64.6973 C 106.152 -75.8789 99.9512 -82.0312 88.7207 -82.0312 L 29.8828 -82.0312 C 18.6523 -82.0312 12.4512 -75.8789 12.4512 -64.6973 L 12.4512 -5.66406 C 12.4512 5.51758 18.6523 11.6699 29.8828 11.6699 Z M 80.3223 -47.998 C 75.7812 -48.0469 72.0215 -51.6602 72.0215 -56.25 C 72.0215 -60.791 75.7812 -64.4531 80.3223 -64.4531 C 84.8145 -64.4531 88.5254 -60.791 88.5254 -56.25 C 88.5254 -51.6113 84.8145 -47.8516 80.3223 -47.998 Z M 59.3262 -26.9531 C 54.7363 -26.9531 51.123 -30.6152 51.123 -35.2539 C 51.123 -39.7461 54.834 -43.4082 59.3262 -43.4082 C 63.7695 -43.4082 67.5293 -39.7461 67.5293 -35.2539 C 67.5293 -30.7129 63.8672 -26.9531 59.3262 -26.9531 Z M 38.3301 -5.9082 C 33.7891 -5.9082 30.127 -9.61914 30.127 -14.209 C 30.127 -18.7012 33.7891 -22.3633 38.3301 -22.3633 C 42.8223 -22.3633 46.5332 -18.7012 46.5332 -14.209 C 46.5332 -9.66797 42.8223 -5.9082 38.3301 -5.9082 Z"/>
  </g>
  <g id="Semibold-M" transform="matrix(1 0 0 1 1984.65 1126)">
   <path d="M 29.1016 10.9863 L 88.0859 10.9863 C 98.9746 10.9863 104.785 5.17578 104.785 -5.56641 L 104.785 -64.8438 C 104.785 -75.5859 98.9746 -81.3477 88.0859 -81.3477 L 29.1016 -81.3477 C 18.2617 -81.3477 12.4512 -75.5859 12.4512 -64.8438 L 12.4512 -5.56641 C 12.4512 5.22461 18.2617 10.9863 29.1016 10.9863 Z M 80.2246 -48.584 C 75.6836 -48.6328 71.9238 -52.2461 71.9238 -56.8359 C 71.9238 -61.377 75.6836 -65.0391 80.2246 -65.0391 C 84.7168 -65.0391 88.4277 -61.377 88.4277 -56.8359 C 88.4277 -52.2461 84.7168 -48.4863 80.2246 -48.584 Z M 58.6426 -26.9531 C 54.0527 -26.9531 50.4395 -30.6641 50.4395 -35.2539 C 50.4395 -39.7461 54.1016 -43.3594 58.6426 -43.3594 C 63.0859 -43.3594 66.7969 -39.7461 66.7969 -35.2539 C 66.7969 -30.6641 63.1348 -26.9531 58.6426 -26.9531 Z M 37.0605 -5.32227 C 32.5195 -5.32227 28.8574 -9.0332 28.8574 -13.623 C 28.8574 -18.1152 32.5195 -21.7773 37.0605 -21.7773 C 41.5039 -21.7773 45.2148 -18.1152 45.2148 -13.623 C 45.2148 -9.0332 41.5527 -5.32227 37.0605 -5.32227 Z"/>
  </g>
  <g id="Medium-M" transform="matrix(1 0 0 1 1688.47 1126)">
   <path d="M 28.5156 10.4492 L 87.6465 10.4492 C 98.2422 10.4492 103.711 4.98047 103.711 -5.46875 L 103.711 -64.8926 C 103.711 -75.3418 98.2422 -80.8105 87.6465 -80.8105 L 28.5156 -80.8105 C 17.9688 -80.8105 12.4512 -75.3906 12.4512 -64.8926 L 12.4512 -5.46875 C 12.4512 4.98047 17.9688 10.4492 28.5156 10.4492 Z M 80.1758 -49.0723 C 75.6348 -49.1211 71.875 -52.7344 71.875 -57.2754 C 71.875 -61.8164 75.6348 -65.4785 80.1758 -65.4785 C 84.6191 -65.4785 88.3301 -61.8164 88.3301 -57.2754 C 88.3301 -52.6855 84.6191 -48.9258 80.1758 -49.0723 Z M 58.1055 -26.9531 C 53.5645 -26.9531 49.9512 -30.6641 49.9512 -35.2539 C 49.9512 -39.7461 53.5645 -43.3594 58.1055 -43.3594 C 62.5488 -43.3594 66.2598 -39.7461 66.2598 -35.2539 C 66.2598 -30.6641 62.5977 -26.9531 58.1055 -26.9531 Z M 36.084 -4.88281 C 31.543 -4.88281 27.8809 -8.59375 27.8809 -13.1348 C 27.8809 -17.6758 31.543 -21.2891 36.084 -21.2891 C 40.5273 -21.2891 44.2383 -17.6758 44.2383 -13.1348 C 44.2383 -8.59375 40.5762 -4.88281 36.084 -4.88281 Z"/>
  </g>
  <g id="Regular-M" transform="matrix(1 0 0 1 1392.45 1126)">
   <path d="M 27.7832 9.76562 L 87.0117 9.76562 C 97.2656 9.76562 102.344 4.6875 102.344 -5.37109 L 102.344 -64.9902 C 102.344 -75.0488 97.2656 -80.127 87.0117 -80.127 L 27.7832 -80.127 C 17.5781 -80.127 12.4512 -75.0977 12.4512 -64.9902 L 12.4512 -5.37109 C 12.4512 4.73633 17.5781 9.76562 27.7832 9.76562 Z M 80.0781 -49.6582 C 75.5371 -49.7559 71.7773 -53.3203 71.7773 -57.9102 C 71.7773 -62.4023 75.5371 -66.0156 80.0781 -66.0156 C 84.5215 -66.0156 88.1836 -62.4023 88.1836 -57.9102 C 88.1836 -53.3203 84.5215 -49.5605 80.0781 -49.6582 Z M 57.4219 -27.002 C 52.8809 -27.002 49.2676 -30.6641 49.2676 -35.2539 C 49.2676 -39.7461 52.8809 -43.3594 57.4219 -43.3594 C 61.8652 -43.3594 65.5762 -39.7461 65.5762 -35.2539 C 65.5762 -30.6641 61.8652 -27.002 57.4219 -27.002 Z M 34.8145 -4.3457 C 30.2734 -4.3457 26.6602 -8.00781 26.6602 -12.5488 C 26.6602 -17.0898 30.2734 -20.7031 34.8145 -20.7031 C 39.2578 -20.7031 42.9688 -17.0898 42.9688 -12.5488 C 42.9688 -8.00781 39.2578 -4.3457 34.8145 -4.3457 Z"/>
  </g>
  <g id="Light-M" transform="matrix(1 0 0 1 1096.47 1126)">
   <path d="M 26.8555 9.0332 L 86.4746 9.0332 C 95.9961 9.0332 100.879 4.15039 100.879 -5.22461 L 100.879 -65.0879 C 100.879 -74.5117 95.9961 -79.3945 86.4746 -79.3945 L 26.8555 -79.3945 C 17.334 -79.3945 12.4512 -74.5605 12.4512 -65.0879 L 12.4512 -5.22461 C 12.4512 4.19922 17.334 9.0332 26.8555 9.0332 Z M 79.7363 -50.4395 C 75.3906 -50.4883 71.8262 -53.9551 71.8262 -58.3496 C 71.8262 -62.6953 75.3906 -66.1621 79.7363 -66.1621 C 84.0332 -66.1621 87.5488 -62.6953 87.5488 -58.3496 C 87.5488 -53.9551 84.0332 -50.3418 79.7363 -50.4395 Z M 56.6895 -27.2949 C 52.3438 -27.2949 48.8281 -30.8594 48.8281 -35.2539 C 48.8281 -39.5508 52.3438 -43.0176 56.6895 -43.0176 C 60.9375 -43.0176 64.502 -39.5508 64.502 -35.2539 C 64.502 -30.8594 60.9375 -27.2949 56.6895 -27.2949 Z M 33.6426 -4.24805 C 29.2969 -4.24805 25.7812 -7.8125 25.7812 -12.1582 C 25.7812 -16.4551 29.2969 -19.9707 33.6426 -19.9707 C 37.9395 -19.9707 41.4551 -16.4551 41.4551 -12.1582 C 41.4551 -7.8125 37.9395 -4.24805 33.6426 -4.24805 Z"/>
  </g>
  <g id="Thin-M" transform="matrix(1 0 0 1 800.758 1126)">
   <path d="M 25.6348 8.05664 L 85.7422 8.05664 C 94.3848 8.05664 98.877 3.4668 98.877 -5.0293 L 98.877 -65.2344 C 98.877 -73.7305 94.3848 -78.3691 85.7422 -78.3691 L 25.6348 -78.3691 C 16.9922 -78.3691 12.4512 -73.877 12.4512 -65.2344 L 12.4512 -5.0293 C 12.4512 3.56445 16.9922 8.05664 25.6348 8.05664 Z M 79.2969 -51.4648 C 75.1953 -51.5625 71.8262 -54.7852 71.8262 -58.9844 C 71.8262 -63.0859 75.1953 -66.3574 79.2969 -66.3574 C 83.3496 -66.3574 86.6699 -63.0859 86.6699 -58.9844 C 86.6699 -54.7852 83.3496 -51.416 79.2969 -51.4648 Z M 55.7129 -27.7344 C 51.6113 -27.7344 48.291 -31.1035 48.291 -35.2539 C 48.291 -39.3066 51.6113 -42.627 55.7129 -42.627 C 59.7656 -42.627 63.1348 -39.3066 63.1348 -35.2539 C 63.1348 -31.1035 59.7656 -27.7344 55.7129 -27.7344 Z M 32.0801 -4.15039 C 27.9785 -4.15039 24.6582 -7.4707 24.6582 -11.5723 C 24.6582 -15.6738 27.9785 -18.9941 32.0801 -18.9941 C 36.1328 -18.9941 39.4531 -15.6738 39.4531 -11.5723 C 39.4531 -7.4707 36.1328 -4.15039 32.0801 -4.15039 Z"/>
  </g>
  <g id="Ultralight-M" transform="matrix(1 0 0 1 504.535 1126)">
   <path d="M 25 7.56836 L 85.3516 7.56836 C 93.5059 7.56836 97.9004 3.125 97.9004 -4.98047 L 97.9004 -65.2832 C 97.9004 -73.3887 93.5059 -77.832 85.3516 -77.832 L 25 -77.832 C 16.7969 -77.832 12.4512 -73.4863 12.4512 -65.2832 L 12.4512 -4.98047 C 12.4512 3.22266 16.7969 7.56836 25 7.56836 Z M 79.1016 -52.002 C 75.1465 -52.0508 71.8262 -55.2246 71.8262 -59.2773 C 71.8262 -63.2812 75.1465 -66.4062 79.1016 -66.4062 C 83.0078 -66.4062 86.2305 -63.2812 86.2305 -59.2773 C 86.2305 -55.2246 83.0078 -51.9531 79.1016 -52.002 Z M 55.2246 -27.9297 C 51.2207 -27.9297 47.998 -31.2012 47.998 -35.2539 C 47.998 -39.1602 51.2207 -42.4316 55.2246 -42.4316 C 59.1309 -42.4316 62.4023 -39.1602 62.4023 -35.2539 C 62.4023 -31.2012 59.1309 -27.9297 55.2246 -27.9297 Z M 31.2988 -4.10156 C 27.3438 -4.10156 24.1211 -7.32422 24.1211 -11.3281 C 24.1211 -15.2832 27.3438 -18.5059 31.2988 -18.5059 C 35.2539 -18.5059 38.4766 -15.2832 38.4766 -11.3281 C 38.4766 -7.32422 35.2539 -4.10156 31.2988 -4.10156 Z"/>
  </g>
  <g id="Black-S" transform="matrix(1 0 0 1 2885.5 696)">
   <path d="M 25 2.92969 L 70.8008 2.92969 C 80.3711 2.92969 86.0352 -2.73438 86.0352 -12.3047 L 86.0352 -58.1055 C 86.0352 -67.6758 80.3711 -73.3398 70.8008 -73.3398 L 25 -73.3398 C 15.4297 -73.3398 9.76562 -67.6758 9.76562 -58.1055 L 9.76562 -12.3047 C 9.76562 -2.73438 15.4297 2.92969 25 2.92969 Z M 63.1348 -43.9453 C 59.5215 -43.9941 56.5918 -46.875 56.5918 -50.4395 C 56.5918 -54.0039 59.5215 -56.9336 63.1348 -56.9336 C 66.6992 -56.9336 69.6289 -54.0039 69.6289 -50.4395 C 69.6289 -46.8262 66.6504 -43.8477 63.1348 -43.9453 Z M 47.9492 -28.7109 C 44.2871 -28.7109 41.4551 -31.5918 41.4551 -35.2539 C 41.4551 -38.8184 44.3848 -41.6504 47.9492 -41.6504 C 51.416 -41.6504 54.3945 -38.7695 54.3945 -35.2539 C 54.3945 -31.6895 51.5137 -28.7109 47.9492 -28.7109 Z M 32.666 -13.4277 C 29.1016 -13.4277 26.1719 -16.3574 26.1719 -20.0195 C 26.1719 -23.5352 29.1016 -26.416 32.666 -26.416 C 36.1816 -26.416 39.1113 -23.4863 39.1113 -20.0195 C 39.1113 -16.4062 36.2305 -13.4277 32.666 -13.4277 Z"/>
  </g>
  <g id="Heavy-S" transform="matrix(1 0 0 1 2589.4 696)">
   <path d="M 24.3652 2.34375 L 70.2637 2.34375 C 79.541 2.34375 84.8145 -2.97852 84.8145 -12.207 L 84.8145 -58.2031 C 84.8145 -67.4316 79.541 -72.7539 70.2637 -72.7539 L 24.3652 -72.7539 C 15.0879 -72.7539 9.76562 -67.4316 9.76562 -58.2031 L 9.76562 -12.207 C 9.76562 -2.97852 15.0879 2.34375 24.3652 2.34375 Z M 63.0859 -44.4824 C 59.4727 -44.5312 56.4941 -47.4121 56.4941 -50.9766 C 56.4941 -54.5898 59.4727 -57.4707 63.0859 -57.4707 C 66.6504 -57.4707 69.5801 -54.5898 69.5801 -50.9766 C 69.5801 -47.3633 66.6016 -44.3848 63.0859 -44.4824 Z M 47.3145 -28.7109 C 43.7012 -28.7109 40.8203 -31.5918 40.8203 -35.2539 C 40.8203 -38.8184 43.75 -41.6504 47.3145 -41.6504 C 50.8301 -41.6504 53.8086 -38.7695 53.8086 -35.2539 C 53.8086 -31.6406 50.8789 -28.7109 47.3145 -28.7109 Z M 31.543 -12.8906 C 27.9297 -12.8906 25 -15.8203 25 -19.4824 C 25 -22.998 27.9297 -25.8789 31.543 -25.8789 C 35.0586 -25.8789 37.9883 -22.9492 37.9883 -19.4824 C 37.9883 -15.8203 35.1074 -12.8906 31.543 -12.8906 Z"/>
  </g>
  <g id="Bold-S" transform="matrix(1 0 0 1 2293.35 696)">
   <path d="M 23.6328 1.66016 L 69.6289 1.66016 C 78.6133 1.66016 83.4961 -3.22266 83.4961 -12.1094 L 83.4961 -58.3008 C 83.4961 -67.1875 78.6133 -72.0703 69.6289 -72.0703 L 23.6328 -72.0703 C 14.6973 -72.0703 9.76562 -67.1875 9.76562 -58.3008 L 9.76562 -12.1094 C 9.76562 -3.22266 14.6973 1.66016 23.6328 1.66016 Z M 62.9883 -45.0684 C 59.375 -45.1172 56.3965 -47.998 56.3965 -51.6113 C 56.3965 -55.1758 59.375 -58.1055 62.9883 -58.1055 C 66.6016 -58.1055 69.5312 -55.1758 69.5312 -51.6113 C 69.5312 -47.9492 66.5527 -44.9707 62.9883 -45.0684 Z M 46.6309 -28.6621 C 43.0176 -28.6621 40.1367 -31.5918 40.1367 -35.2539 C 40.1367 -38.8184 43.0664 -41.6992 46.6309 -41.6992 C 50.1465 -41.6992 53.125 -38.8184 53.125 -35.2539 C 53.125 -31.6406 50.1953 -28.6621 46.6309 -28.6621 Z M 30.2734 -12.2559 C 26.6602 -12.2559 23.7305 -15.1855 23.7305 -18.8477 C 23.7305 -22.4121 26.6602 -25.293 30.2734 -25.293 C 33.7891 -25.293 36.7676 -22.4121 36.7676 -18.8477 C 36.7676 -15.2344 33.8379 -12.2559 30.2734 -12.2559 Z"/>
  </g>
  <g id="Semibold-S" transform="matrix(1 0 0 1 1997.1 696)">
   <path d="M 23.0957 1.17188 L 69.1895 1.17188 C 77.9297 1.17188 82.5684 -3.36914 82.5684 -12.0117 L 82.5684 -58.3984 C 82.5684 -67.041 77.9297 -71.582 69.1895 -71.582 L 23.0957 -71.582 C 14.4043 -71.582 9.76562 -67.041 9.76562 -58.3984 L 9.76562 -12.0117 C 9.76562 -3.36914 14.4043 1.17188 23.0957 1.17188 Z M 62.9395 -45.459 C 59.3262 -45.5078 56.3477 -48.3887 56.3477 -52.002 C 56.3477 -55.6152 59.3262 -58.5449 62.9395 -58.5449 C 66.5527 -58.5449 69.4824 -55.6152 69.4824 -52.002 C 69.4824 -48.3398 66.5039 -45.3613 62.9395 -45.459 Z M 46.1914 -28.6621 C 42.5293 -28.6621 39.6484 -31.5918 39.6484 -35.2539 C 39.6484 -38.8184 42.5781 -41.6992 46.1914 -41.6992 C 49.707 -41.6992 52.6855 -38.8184 52.6855 -35.2539 C 52.6855 -31.5918 49.7559 -28.6621 46.1914 -28.6621 Z M 29.3945 -11.8164 C 25.7812 -11.8164 22.8516 -14.7461 22.8516 -18.4082 C 22.8516 -22.0215 25.7812 -24.9023 29.3945 -24.9023 C 32.959 -24.9023 35.8887 -21.9727 35.8887 -18.4082 C 35.8887 -14.7949 32.959 -11.8164 29.3945 -11.8164 Z"/>
  </g>
  <g id="Medium-S" transform="matrix(1 0 0 1 1700.75 696)">
   <path d="M 22.7051 0.830078 L 68.8965 0.830078 C 77.4414 0.830078 81.8359 -3.51562 81.8359 -11.9629 L 81.8359 -58.4473 C 81.8359 -66.8945 77.4414 -71.2402 68.8965 -71.2402 L 22.7051 -71.2402 C 14.209 -71.2402 9.76562 -66.8945 9.76562 -58.4473 L 9.76562 -11.9629 C 9.76562 -3.51562 14.209 0.830078 22.7051 0.830078 Z M 62.9395 -45.752 C 59.2773 -45.8008 56.2988 -48.6816 56.2988 -52.3438 C 56.2988 -55.957 59.2773 -58.8867 62.9395 -58.8867 C 66.5039 -58.8867 69.4824 -55.957 69.4824 -52.3438 C 69.4824 -48.6816 66.5039 -45.6543 62.9395 -45.752 Z M 45.8008 -28.6133 C 42.1875 -28.6133 39.2578 -31.5918 39.2578 -35.2539 C 39.2578 -38.8184 42.1875 -41.748 45.8008 -41.748 C 49.3652 -41.748 52.3438 -38.8184 52.3438 -35.2539 C 52.3438 -31.5918 49.3652 -28.6133 45.8008 -28.6133 Z M 28.7109 -11.4746 C 25.0977 -11.4746 22.168 -14.4531 22.168 -18.0664 C 22.168 -21.6797 25.0977 -24.6094 28.7109 -24.6094 C 32.2754 -24.6094 35.2539 -21.6797 35.2539 -18.0664 C 35.2539 -14.4531 32.2754 -11.4746 28.7109 -11.4746 Z"/>
  </g>
  <g id="Regular-S" transform="matrix(1 0 0 1 1404.51 696)">
   <path d="M 22.2168 0.390625 L 68.457 0.390625 C 76.8066 0.390625 80.9082 -3.71094 80.9082 -11.9141 L 80.9082 -58.4961 C 80.9082 -66.6992 76.8066 -70.8008 68.457 -70.8008 L 22.2168 -70.8008 C 13.916 -70.8008 9.76562 -66.6992 9.76562 -58.4961 L 9.76562 -11.9141 C 9.76562 -3.71094 13.916 0.390625 22.2168 0.390625 Z M 62.8906 -46.1426 C 59.2285 -46.1914 56.25 -49.0723 56.25 -52.7344 C 56.25 -56.3965 59.2285 -59.2773 62.8906 -59.2773 C 66.4551 -59.2773 69.4336 -56.3965 69.4336 -52.7344 C 69.4336 -49.0723 66.4551 -46.0938 62.8906 -46.1426 Z M 45.3613 -28.6133 C 41.6992 -28.6133 38.8184 -31.5918 38.8184 -35.2539 C 38.8184 -38.8184 41.6992 -41.748 45.3613 -41.748 C 48.9258 -41.748 51.9043 -38.8184 51.9043 -35.2539 C 51.9043 -31.5918 48.9258 -28.6133 45.3613 -28.6133 Z M 27.832 -11.084 C 24.2188 -11.084 21.2891 -14.0137 21.2891 -17.6758 C 21.2891 -21.2891 24.2188 -24.2188 27.832 -24.2188 C 31.4453 -24.2188 34.375 -21.2891 34.375 -17.6758 C 34.375 -14.0137 31.4453 -11.084 27.832 -11.084 Z"/>
  </g>
  <g id="Light-S" transform="matrix(1 0 0 1 1108.46 696)">
   <path d="M 21.3867 -0.292969 L 67.9688 -0.292969 C 75.7324 -0.292969 79.5898 -4.15039 79.5898 -11.7676 L 79.5898 -58.5938 C 79.5898 -66.2109 75.7324 -70.1172 67.9688 -70.1172 L 21.3867 -70.1172 C 13.6719 -70.1172 9.76562 -66.2598 9.76562 -58.5938 L 9.76562 -11.7676 C 9.76562 -4.15039 13.6719 -0.292969 21.3867 -0.292969 Z M 62.5977 -46.875 C 59.1309 -46.9238 56.25 -49.6582 56.25 -53.1738 C 56.25 -56.6406 59.1309 -59.4238 62.5977 -59.4238 C 66.0156 -59.4238 68.8477 -56.6406 68.8477 -53.1738 C 68.8477 -49.6582 66.0156 -46.7773 62.5977 -46.875 Z M 44.6777 -28.9062 C 41.2109 -28.9062 38.4277 -31.7383 38.4277 -35.2539 C 38.4277 -38.6719 41.2109 -41.4551 44.6777 -41.4551 C 48.0957 -41.4551 50.9766 -38.6719 50.9766 -35.2539 C 50.9766 -31.7383 48.0957 -28.9062 44.6777 -28.9062 Z M 26.8066 -10.9863 C 23.3398 -10.9863 20.5566 -13.8184 20.5566 -17.2852 C 20.5566 -20.752 23.3398 -23.5352 26.8066 -23.5352 C 30.2246 -23.5352 33.0566 -20.752 33.0566 -17.2852 C 33.0566 -13.8184 30.2246 -10.9863 26.8066 -10.9863 Z"/>
  </g>
  <g id="Thin-S" transform="matrix(1 0 0 1 812.599 696)">
   <path d="M 20.3125 -1.12305 L 67.334 -1.12305 C 74.2676 -1.12305 77.8809 -4.78516 77.8809 -11.6211 L 77.8809 -58.6914 C 77.8809 -65.5762 74.2676 -69.2383 67.334 -69.2383 L 20.3125 -69.2383 C 13.3789 -69.2383 9.76562 -65.625 9.76562 -58.6914 L 9.76562 -11.6211 C 9.76562 -4.6875 13.3789 -1.12305 20.3125 -1.12305 Z M 62.2559 -47.7539 C 58.9844 -47.8027 56.2988 -50.3906 56.2988 -53.7109 C 56.2988 -56.9824 58.9844 -59.5703 62.2559 -59.5703 C 65.4297 -59.5703 68.1152 -56.9824 68.1152 -53.7109 C 68.1152 -50.3906 65.4297 -47.7051 62.2559 -47.7539 Z M 43.8477 -29.248 C 40.5762 -29.248 37.9395 -31.9336 37.9395 -35.2539 C 37.9395 -38.4766 40.5762 -41.1133 43.8477 -41.1133 C 47.0703 -41.1133 49.7559 -38.4766 49.7559 -35.2539 C 49.7559 -31.9336 47.0703 -29.248 43.8477 -29.248 Z M 25.4395 -10.8887 C 22.2168 -10.8887 19.5801 -13.5742 19.5801 -16.7969 C 19.5801 -20.0684 22.2168 -22.7051 25.4395 -22.7051 C 28.6621 -22.7051 31.2988 -20.0684 31.2988 -16.7969 C 31.2988 -13.5742 28.6621 -10.8887 25.4395 -10.8887 Z"/>
  </g>
  <g id="Ultralight-S" transform="matrix(1 0 0 1 516.352 696)">
   <path d="M 19.7754 -1.5625 L 66.9922 -1.5625 C 73.5352 -1.5625 76.9531 -5.12695 76.9531 -11.5234 L 76.9531 -58.7891 C 76.9531 -65.2344 73.5352 -68.75 66.9922 -68.75 L 19.7754 -68.75 C 13.2324 -68.75 9.76562 -65.2832 9.76562 -58.7891 L 9.76562 -11.5234 C 9.76562 -5.0293 13.2324 -1.5625 19.7754 -1.5625 Z M 62.0605 -48.2422 C 58.8867 -48.291 56.2988 -50.7812 56.2988 -54.0039 C 56.2988 -57.1289 58.8867 -59.668 62.0605 -59.668 C 65.1367 -59.668 67.7246 -57.1289 67.7246 -54.0039 C 67.7246 -50.7812 65.1367 -48.1934 62.0605 -48.2422 Z M 43.4082 -29.4434 C 40.2344 -29.4434 37.6953 -32.0312 37.6953 -35.2539 C 37.6953 -38.3789 40.2344 -40.918 43.4082 -40.918 C 46.5332 -40.918 49.1211 -38.3789 49.1211 -35.2539 C 49.1211 -32.0312 46.5332 -29.4434 43.4082 -29.4434 Z M 24.7559 -10.8398 C 21.6309 -10.8398 19.043 -13.4277 19.043 -16.5527 C 19.043 -19.7266 21.6309 -22.2656 24.7559 -22.2656 C 27.8809 -22.2656 30.4199 -19.7266 30.4199 -16.5527 C 30.4199 -13.4277 27.8809 -10.8398 24.7559 -10.8398 Z"/>
  </g>
 </g>
</svg>
