<?xml version="1.0" encoding="UTF-8"?>
<!--Generator: Apple Native CoreSVG 148-->
<!DOCTYPE svg
PUBLIC "-//W3C//DTD SVG 1.1//EN"
       "http://www.w3.org/Graphics/SVG/1.1/DTD/svg11.dtd">
<svg version="1.1" xmlns="http://www.w3.org/2000/svg" xmlns:xlink="http://www.w3.org/1999/xlink" width="3300" height="2200">
 <!--glyph: "uni1005AA.medium", point size: 100.000000, font version: "Version 16.0d11e1", template writer version: "8"-->
 <g id="Notes">
  <rect height="2200" id="artboard" style="fill:white;opacity:1" width="3300" x="0" y="0"/>
  <line id="" style="fill:none;stroke:black;opacity:1;stroke-width:0.5;" x1="263" x2="3036" y1="292" y2="292"/>
  <text style="stroke:none;fill:black;font-family:-apple-system,&quot;SF Pro Display&quot;,&quot;SF Pro Text&quot;,Helvetica,sans-serif;font-weight:bold;" transform="matrix(1 0 0 1 263 322)">Weight/Scale Variations</text>
  <text style="stroke:none;fill:black;font-family:-apple-system,&quot;SF Pro Display&quot;,&quot;SF Pro Text&quot;,Helvetica,sans-serif;text-anchor:middle;" transform="matrix(1 0 0 1 559.711 322)">Ultralight</text>
  <text style="stroke:none;fill:black;font-family:-apple-system,&quot;SF Pro Display&quot;,&quot;SF Pro Text&quot;,Helvetica,sans-serif;text-anchor:middle;" transform="matrix(1 0 0 1 856.422 322)">Thin</text>
  <text style="stroke:none;fill:black;font-family:-apple-system,&quot;SF Pro Display&quot;,&quot;SF Pro Text&quot;,Helvetica,sans-serif;text-anchor:middle;" transform="matrix(1 0 0 1 1153.13 322)">Light</text>
  <text style="stroke:none;fill:black;font-family:-apple-system,&quot;SF Pro Display&quot;,&quot;SF Pro Text&quot;,Helvetica,sans-serif;text-anchor:middle;" transform="matrix(1 0 0 1 1449.84 322)">Regular</text>
  <text style="stroke:none;fill:black;font-family:-apple-system,&quot;SF Pro Display&quot;,&quot;SF Pro Text&quot;,Helvetica,sans-serif;text-anchor:middle;" transform="matrix(1 0 0 1 1746.56 322)">Medium</text>
  <text style="stroke:none;fill:black;font-family:-apple-system,&quot;SF Pro Display&quot;,&quot;SF Pro Text&quot;,Helvetica,sans-serif;text-anchor:middle;" transform="matrix(1 0 0 1 2043.27 322)">Semibold</text>
  <text style="stroke:none;fill:black;font-family:-apple-system,&quot;SF Pro Display&quot;,&quot;SF Pro Text&quot;,Helvetica,sans-serif;text-anchor:middle;" transform="matrix(1 0 0 1 2339.98 322)">Bold</text>
  <text style="stroke:none;fill:black;font-family:-apple-system,&quot;SF Pro Display&quot;,&quot;SF Pro Text&quot;,Helvetica,sans-serif;text-anchor:middle;" transform="matrix(1 0 0 1 2636.69 322)">Heavy</text>
  <text style="stroke:none;fill:black;font-family:-apple-system,&quot;SF Pro Display&quot;,&quot;SF Pro Text&quot;,Helvetica,sans-serif;text-anchor:middle;" transform="matrix(1 0 0 1 2933.4 322)">Black</text>
  <line id="" style="fill:none;stroke:black;opacity:1;stroke-width:0.5;" x1="263" x2="3036" y1="1903" y2="1903"/>
  <g id="" transform="matrix(1 0 0 1 263 1933)">
   <path d="M 9.24805 0.830078 C 13.5547 0.830078 17.1387 -2.74414 17.1387 -7.05078 C 17.1387 -11.3574 13.5449 -14.9316 9.23828 -14.9316 C 4.94141 -14.9316 1.36719 -11.3574 1.36719 -7.05078 C 1.36719 -2.74414 4.95117 0.830078 9.24805 0.830078 Z M 9.24805 -0.654297 C 5.70312 -0.654297 2.87109 -3.49609 2.87109 -7.05078 C 2.87109 -10.6055 5.69336 -13.4473 9.23828 -13.4473 C 12.793 -13.4473 15.6348 -10.6055 15.6445 -7.05078 C 15.6543 -3.49609 12.8027 -0.654297 9.24805 -0.654297 Z M 9.22852 -3.62305 C 9.69727 -3.62305 9.9707 -3.93555 9.9707 -4.45312 L 9.9707 -6.31836 L 12.002 -6.31836 C 12.5 -6.31836 12.832 -6.57227 12.832 -7.04102 C 12.832 -7.51953 12.5195 -7.7832 12.002 -7.7832 L 9.9707 -7.7832 L 9.9707 -9.81445 C 9.9707 -10.332 9.69727 -10.6543 9.22852 -10.6543 C 8.75977 -10.6543 8.50586 -10.3125 8.50586 -9.81445 L 8.50586 -7.7832 L 6.49414 -7.7832 C 5.97656 -7.7832 5.64453 -7.51953 5.64453 -7.04102 C 5.64453 -6.57227 5.99609 -6.31836 6.49414 -6.31836 L 8.50586 -6.31836 L 8.50586 -4.45312 C 8.50586 -3.95508 8.75977 -3.62305 9.22852 -3.62305 Z"/>
  </g>
  <g id="" transform="matrix(1 0 0 1 281.506 1933)">
   <path d="M 11.709 2.91016 C 17.1582 2.91016 21.6699 -1.61133 21.6699 -7.05078 C 21.6699 -12.5 17.1484 -17.0117 11.6992 -17.0117 C 6.25977 -17.0117 1.74805 -12.5 1.74805 -7.05078 C 1.74805 -1.61133 6.26953 2.91016 11.709 2.91016 Z M 11.709 1.25 C 7.09961 1.25 3.41797 -2.44141 3.41797 -7.05078 C 3.41797 -11.6602 7.08984 -15.3516 11.6992 -15.3516 C 16.3086 -15.3516 20 -11.6602 20.0098 -7.05078 C 20.0195 -2.44141 16.3184 1.25 11.709 1.25 Z M 11.6797 -2.66602 C 12.207 -2.66602 12.5098 -3.01758 12.5098 -3.59375 L 12.5098 -6.23047 L 15.3223 -6.23047 C 15.8691 -6.23047 16.25 -6.51367 16.25 -7.03125 C 16.25 -7.55859 15.8887 -7.86133 15.3223 -7.86133 L 12.5098 -7.86133 L 12.5098 -10.6836 C 12.5098 -11.25 12.207 -11.6113 11.6797 -11.6113 C 11.1621 -11.6113 10.8789 -11.2305 10.8789 -10.6836 L 10.8789 -7.86133 L 8.07617 -7.86133 C 7.50977 -7.86133 7.13867 -7.55859 7.13867 -7.03125 C 7.13867 -6.51367 7.5293 -6.23047 8.07617 -6.23047 L 10.8789 -6.23047 L 10.8789 -3.59375 C 10.8789 -3.03711 11.1621 -2.66602 11.6797 -2.66602 Z"/>
  </g>
  <g id="" transform="matrix(1 0 0 1 304.924 1933)">
   <path d="M 14.9707 5.66406 C 21.9336 5.66406 27.6953 -0.0976562 27.6953 -7.05078 C 27.6953 -14.0137 21.9238 -19.7754 14.9609 -19.7754 C 8.00781 -19.7754 2.25586 -14.0137 2.25586 -7.05078 C 2.25586 -0.0976562 8.01758 5.66406 14.9707 5.66406 Z M 14.9707 3.84766 C 8.93555 3.84766 4.08203 -1.01562 4.08203 -7.05078 C 4.08203 -13.0957 8.92578 -17.9492 14.9609 -17.9492 C 21.0059 -17.9492 25.8594 -13.0957 25.8691 -7.05078 C 25.8789 -1.01562 21.0156 3.84766 14.9707 3.84766 Z M 14.9414 -1.38672 C 15.5176 -1.38672 15.8594 -1.77734 15.8594 -2.38281 L 15.8594 -6.13281 L 19.7754 -6.13281 C 20.3711 -6.13281 20.7812 -6.46484 20.7812 -7.02148 C 20.7812 -7.59766 20.3906 -7.93945 19.7754 -7.93945 L 15.8594 -7.93945 L 15.8594 -11.8652 C 15.8594 -12.4805 15.5176 -12.8711 14.9414 -12.8711 C 14.375 -12.8711 14.0527 -12.4609 14.0527 -11.8652 L 14.0527 -7.93945 L 10.1465 -7.93945 C 9.53125 -7.93945 9.13086 -7.59766 9.13086 -7.02148 C 9.13086 -6.46484 9.55078 -6.13281 10.1465 -6.13281 L 14.0527 -6.13281 L 14.0527 -2.38281 C 14.0527 -1.79688 14.375 -1.38672 14.9414 -1.38672 Z"/>
  </g>
  <text style="stroke:none;fill:black;font-family:-apple-system,&quot;SF Pro Display&quot;,&quot;SF Pro Text&quot;,Helvetica,sans-serif;font-weight:bold;" transform="matrix(1 0 0 1 263 1953)">Design Variations</text>
  <text style="stroke:none;fill:black;font-family:-apple-system,&quot;SF Pro Display&quot;,&quot;SF Pro Text&quot;,Helvetica,sans-serif;" transform="matrix(1 0 0 1 263 1971)">Symbols are supported in up to nine weights and three scales.</text>
  <text style="stroke:none;fill:black;font-family:-apple-system,&quot;SF Pro Display&quot;,&quot;SF Pro Text&quot;,Helvetica,sans-serif;" transform="matrix(1 0 0 1 263 1989)">For optimal layout with text and other symbols, vertically align</text>
  <text style="stroke:none;fill:black;font-family:-apple-system,&quot;SF Pro Display&quot;,&quot;SF Pro Text&quot;,Helvetica,sans-serif;" transform="matrix(1 0 0 1 263 2007)">symbols with the adjacent text.</text>
  <line id="" style="fill:none;stroke:#00AEEF;stroke-width:0.5;opacity:1.0;" x1="776" x2="776" y1="1919" y2="1933"/>
  <g id="" transform="matrix(1 0 0 1 776 1933)">
   <path d="M 3.31055 0.126953 C 3.82812 0.126953 4.08203 -0.0683594 4.26758 -0.605469 L 5.52734 -4.0625 L 11.2891 -4.0625 L 12.5488 -0.605469 C 12.7344 -0.0683594 12.9883 0.126953 13.4961 0.126953 C 14.0137 0.126953 14.3457 -0.185547 14.3457 -0.673828 C 14.3457 -0.839844 14.3164 -0.986328 14.2383 -1.20117 L 9.6582 -13.3887 C 9.43359 -13.9941 9.0332 -14.2871 8.4082 -14.2871 C 7.80273 -14.2871 7.39258 -13.9941 7.17773 -13.3984 L 2.59766 -1.19141 C 2.51953 -0.976562 2.49023 -0.830078 2.49023 -0.664062 C 2.49023 -0.175781 2.80273 0.126953 3.31055 0.126953 Z M 6.00586 -5.53711 L 8.37891 -12.1094 L 8.42773 -12.1094 L 10.8008 -5.53711 Z"/>
  </g>
  <line id="" style="fill:none;stroke:#00AEEF;stroke-width:0.5;opacity:1.0;" x1="792.836" x2="792.836" y1="1919" y2="1933"/>
  <text style="stroke:none;fill:black;font-family:-apple-system,&quot;SF Pro Display&quot;,&quot;SF Pro Text&quot;,Helvetica,sans-serif;font-weight:bold;" transform="matrix(1 0 0 1 776 1953)">Margins</text>
  <text style="stroke:none;fill:black;font-family:-apple-system,&quot;SF Pro Display&quot;,&quot;SF Pro Text&quot;,Helvetica,sans-serif;" transform="matrix(1 0 0 1 776 1971)">Leading and trailing margins on the left and right side of each symbol</text>
  <text style="stroke:none;fill:black;font-family:-apple-system,&quot;SF Pro Display&quot;,&quot;SF Pro Text&quot;,Helvetica,sans-serif;" transform="matrix(1 0 0 1 776 1989)">can be adjusted by modifying the x-location of the margin guidelines.</text>
  <text style="stroke:none;fill:black;font-family:-apple-system,&quot;SF Pro Display&quot;,&quot;SF Pro Text&quot;,Helvetica,sans-serif;" transform="matrix(1 0 0 1 776 2007)">Modifications are automatically applied proportionally to all</text>
  <text style="stroke:none;fill:black;font-family:-apple-system,&quot;SF Pro Display&quot;,&quot;SF Pro Text&quot;,Helvetica,sans-serif;" transform="matrix(1 0 0 1 776 2025)">scales and weights.</text>
  <g id="" transform="matrix(1 0 0 1 1289 1933)">
   <path d="M 2.8418 1.86523 L 4.54102 3.57422 C 5.40039 4.44336 6.38672 4.38477 7.31445 3.35938 L 17.4902 -7.85156 C 17.7539 -7.76367 18.0273 -7.7832 18.3398 -7.8418 L 19.4043 -8.03711 L 20.0684 -7.36328 L 20.0293 -6.80664 C 19.9902 -6.30859 20.1172 -5.92773 20.6055 -5.44922 L 21.3672 -4.70703 C 21.8457 -4.22852 22.4609 -4.19922 22.9297 -4.66797 L 25.8398 -7.58789 C 26.3086 -8.05664 26.2891 -8.65234 25.8105 -9.13086 L 25.0391 -9.89258 C 24.5605 -10.3711 24.1895 -10.5273 23.7109 -10.4883 L 23.1348 -10.4395 L 22.4902 -11.0742 L 22.7344 -12.1973 C 22.8613 -12.7637 22.7051 -13.2031 22.1191 -13.7891 L 19.9219 -15.9766 C 16.582 -19.2969 12.1484 -19.2188 9.25781 -16.3281 C 8.83789 -15.918 8.80859 -15.3418 9.04297 -14.9512 C 9.27734 -14.5898 9.73633 -14.3555 10.3809 -14.5215 C 11.8457 -14.8633 13.3691 -14.9219 14.7949 -13.9844 L 14.209 -12.5293 C 14.0137 -12.0508 13.9844 -11.6504 14.1113 -11.2891 L 3.04688 -0.898438 C 2.06055 0.0195312 1.98242 0.996094 2.8418 1.86523 Z M 10.752 -15.957 C 13.1836 -17.7344 16.4746 -17.4316 18.7012 -15.2051 L 21.1328 -12.793 C 21.3672 -12.5586 21.4062 -12.373 21.3379 -12.0312 L 21.0156 -10.5469 L 22.5195 -9.0625 L 23.5059 -9.12109 C 23.7598 -9.13086 23.8379 -9.11133 24.0332 -8.91602 L 24.6094 -8.33984 L 22.168 -5.89844 L 21.5918 -6.47461 C 21.3965 -6.66992 21.3672 -6.74805 21.377 -7.01172 L 21.4453 -7.98828 L 19.9512 -9.47266 L 18.4277 -9.21875 C 18.1055 -9.15039 17.959 -9.17969 17.7148 -9.41406 L 15.7129 -11.416 C 15.459 -11.6504 15.4297 -11.8164 15.5859 -12.1875 L 16.4648 -14.2773 C 14.9023 -15.7324 12.8711 -16.3574 10.8398 -15.7617 C 10.6836 -15.7227 10.625 -15.8496 10.752 -15.957 Z M 5.27344 2.30469 L 4.10156 1.14258 C 3.63281 0.683594 3.74023 0.341797 4.14062 -0.0195312 L 14.9512 -10.1953 L 16.416 -8.71094 L 6.42578 2.27539 C 6.07422 2.67578 5.74219 2.77344 5.27344 2.30469 Z"/>
  </g>
  <text style="stroke:none;fill:black;font-family:-apple-system,&quot;SF Pro Display&quot;,&quot;SF Pro Text&quot;,Helvetica,sans-serif;font-weight:bold;" transform="matrix(1 0 0 1 1289 1953)">Exporting</text>
  <text style="stroke:none;fill:black;font-family:-apple-system,&quot;SF Pro Display&quot;,&quot;SF Pro Text&quot;,Helvetica,sans-serif;" transform="matrix(1 0 0 1 1289 1971)">Symbols should be outlined when exporting to ensure the</text>
  <text style="stroke:none;fill:black;font-family:-apple-system,&quot;SF Pro Display&quot;,&quot;SF Pro Text&quot;,Helvetica,sans-serif;" transform="matrix(1 0 0 1 1289 1989)">design is preserved when submitting to Xcode.</text>
  <text id="template-version" style="stroke:none;fill:black;font-family:-apple-system,&quot;SF Pro Display&quot;,&quot;SF Pro Text&quot;,Helvetica,sans-serif;text-anchor:end;" transform="matrix(1 0 0 1 3036 1933)">Template v.2.0</text>
  <text style="stroke:none;fill:black;font-family:-apple-system,&quot;SF Pro Display&quot;,&quot;SF Pro Text&quot;,Helvetica,sans-serif;text-anchor:end;" transform="matrix(1 0 0 1 3036 1951)">Requires Xcode 12 or greater</text>
  <text style="stroke:none;fill:black;font-family:-apple-system,&quot;SF Pro Display&quot;,&quot;SF Pro Text&quot;,Helvetica,sans-serif;text-anchor:end;" transform="matrix(1 0 0 1 3036 1969)">Generated from dongsign.circle.fill</text>
  <text style="stroke:none;fill:black;font-family:-apple-system,&quot;SF Pro Display&quot;,&quot;SF Pro Text&quot;,Helvetica,sans-serif;text-anchor:end;" transform="matrix(1 0 0 1 3036 1987)">Typeset at 100 points</text>
  <text style="stroke:none;fill:black;font-family:-apple-system,&quot;SF Pro Display&quot;,&quot;SF Pro Text&quot;,Helvetica,sans-serif;" transform="matrix(1 0 0 1 263 726)">Small</text>
  <text style="stroke:none;fill:black;font-family:-apple-system,&quot;SF Pro Display&quot;,&quot;SF Pro Text&quot;,Helvetica,sans-serif;" transform="matrix(1 0 0 1 263 1156)">Medium</text>
  <text style="stroke:none;fill:black;font-family:-apple-system,&quot;SF Pro Display&quot;,&quot;SF Pro Text&quot;,Helvetica,sans-serif;" transform="matrix(1 0 0 1 263 1586)">Large</text>
 </g>
 <g id="Guides">
  <g id="H-reference" style="fill:#27AAE1;stroke:none;" transform="matrix(1 0 0 1 339 696)">
   <path d="M 0.976562 0 L 3.66211 0 L 12.9883 -24.4629 L 45.7031 -24.4629 L 55.0781 0 L 57.7148 0 L 30.6152 -70.459 L 28.125 -70.459 Z M 29.2969 -67.1387 L 29.3945 -67.1387 L 44.873 -26.709 L 13.8672 -26.709 Z"/>
  </g>
  <line id="Baseline-S" style="fill:none;stroke:#27AAE1;opacity:1;stroke-width:0.5;" x1="263" x2="3036" y1="696" y2="696"/>
  <line id="Capline-S" style="fill:none;stroke:#27AAE1;opacity:1;stroke-width:0.5;" x1="263" x2="3036" y1="625.541" y2="625.541"/>
  <g id="H-reference" style="fill:#27AAE1;stroke:none;" transform="matrix(1 0 0 1 339 1126)">
   <path d="M 0.976562 0 L 3.66211 0 L 12.9883 -24.4629 L 45.7031 -24.4629 L 55.0781 0 L 57.7148 0 L 30.6152 -70.459 L 28.125 -70.459 Z M 29.2969 -67.1387 L 29.3945 -67.1387 L 44.873 -26.709 L 13.8672 -26.709 Z"/>
  </g>
  <line id="Baseline-M" style="fill:none;stroke:#27AAE1;opacity:1;stroke-width:0.5;" x1="263" x2="3036" y1="1126" y2="1126"/>
  <line id="Capline-M" style="fill:none;stroke:#27AAE1;opacity:1;stroke-width:0.5;" x1="263" x2="3036" y1="1055.54" y2="1055.54"/>
  <g id="H-reference" style="fill:#27AAE1;stroke:none;" transform="matrix(1 0 0 1 339 1556)">
   <path d="M 0.976562 0 L 3.66211 0 L 12.9883 -24.4629 L 45.7031 -24.4629 L 55.0781 0 L 57.7148 0 L 30.6152 -70.459 L 28.125 -70.459 Z M 29.2969 -67.1387 L 29.3945 -67.1387 L 44.873 -26.709 L 13.8672 -26.709 Z"/>
  </g>
  <line id="Baseline-L" style="fill:none;stroke:#27AAE1;opacity:1;stroke-width:0.5;" x1="263" x2="3036" y1="1556" y2="1556"/>
  <line id="Capline-L" style="fill:none;stroke:#27AAE1;opacity:1;stroke-width:0.5;" x1="263" x2="3036" y1="1485.54" y2="1485.54"/>
  <line id="left-margin" style="fill:none;stroke:#00AEEF;stroke-width:0.5;opacity:1.0;" x1="1391.3" x2="1391.3" y1="1030.79" y2="1150.12"/>
  <line id="right-margin" style="fill:none;stroke:#00AEEF;stroke-width:0.5;opacity:1.0;" x1="1508.39" x2="1508.39" y1="1030.79" y2="1150.12"/>
 </g>
 <g id="Symbols">
  <g id="Black-L" transform="matrix(1 0 0 1 2854.05 1556)">
   <path d="M 79.3457 32.8613 C 116.748 32.8613 147.412 2.19727 147.412 -35.2051 C 147.412 -72.6074 116.748 -103.271 79.2969 -103.271 C 41.8945 -103.271 11.2793 -72.6074 11.2793 -35.2051 C 11.2793 2.19727 41.9434 32.8613 79.3457 32.8613 Z M 53.9062 -32.1777 C 53.9062 -45.3125 62.3047 -52.832 72.3145 -52.832 C 77.1484 -52.832 81.25 -51.2207 83.6426 -48.4375 L 83.6426 -56.1035 L 74.4141 -56.1035 C 72.5098 -56.1035 71.5332 -57.1777 71.5332 -58.8379 C 71.5332 -60.5957 72.5098 -61.7188 74.4141 -61.7188 L 83.8379 -61.7188 L 83.8379 -62.5 C 83.8379 -66.3574 86.7188 -68.8477 91.0156 -68.8477 C 95.3125 -68.8477 98.2422 -66.3574 98.2422 -62.5 L 98.2422 -61.7188 L 101.855 -61.7188 C 103.662 -61.7188 104.736 -60.5957 104.736 -58.8379 C 104.736 -57.1777 103.662 -56.1035 101.855 -56.1035 L 98.4863 -56.1035 L 98.4863 -18.4082 C 98.4863 -13.5742 95.7031 -10.8398 91.1133 -10.8398 C 87.5977 -10.8398 84.8145 -12.9395 84.3262 -16.1621 L 84.2285 -16.8457 C 81.8848 -13.3301 77.6367 -11.2793 72.3633 -11.2793 C 62.4023 -11.2793 53.9062 -18.9941 53.9062 -32.1777 Z M 68.8965 -32.0801 C 68.8965 -26.9531 71.875 -23.1934 76.3672 -23.1934 C 80.7617 -23.1934 83.7891 -27.002 83.7891 -32.0801 C 83.7891 -37.2559 80.7617 -41.1133 76.3672 -41.1133 C 71.875 -41.1133 68.8965 -37.3047 68.8965 -32.0801 Z M 57.1289 -4.93164 C 57.1289 -6.5918 58.3008 -7.76367 60.0586 -7.76367 L 97.3145 -7.76367 C 99.0234 -7.76367 100.195 -6.5918 100.195 -4.93164 C 100.195 -3.32031 99.0234 -2.14844 97.3145 -2.14844 L 60.0586 -2.14844 C 58.3496 -2.14844 57.1289 -3.32031 57.1289 -4.93164 Z"/>
  </g>
  <g id="Heavy-L" transform="matrix(1 0 0 1 2558.39 1556)">
   <path d="M 78.2715 31.7871 C 115.088 31.7871 145.312 1.5625 145.312 -35.2051 C 145.312 -72.0215 115.039 -102.246 78.2715 -102.246 C 41.4551 -102.246 11.2793 -72.0215 11.2793 -35.2051 C 11.2793 1.5625 41.5039 31.7871 78.2715 31.7871 Z M 53.5645 -32.373 C 53.5645 -45.1172 61.8164 -52.7832 71.8262 -52.7832 C 76.8066 -52.7832 81.0059 -50.9766 83.4961 -47.998 L 83.4961 -56.3965 L 73.6328 -56.3965 C 71.8262 -56.3965 70.8008 -57.5195 70.8008 -59.1797 C 70.8008 -60.8398 71.8262 -62.0117 73.6328 -62.0117 L 83.6426 -62.0117 L 83.6426 -63.4277 C 83.6426 -66.8945 86.1816 -69.0918 89.9902 -69.0918 C 93.75 -69.0918 96.2891 -66.8945 96.2891 -63.4277 L 96.2891 -62.0117 L 100.098 -62.0117 C 101.855 -62.0117 102.93 -60.8398 102.93 -59.1797 C 102.93 -57.5195 101.855 -56.3965 100.098 -56.3965 L 96.4844 -56.3965 L 96.4844 -17.9199 C 96.4844 -13.7207 94.043 -11.3281 90.0879 -11.3281 C 86.9141 -11.3281 84.4727 -13.2324 84.082 -16.2109 L 84.0332 -17.4805 C 81.543 -13.8672 77.1973 -11.8164 71.9238 -11.8164 C 61.8652 -11.8164 53.5645 -19.5312 53.5645 -32.373 Z M 66.748 -32.2754 C 66.748 -26.5137 70.166 -22.4121 75.1953 -22.4121 C 80.1758 -22.4121 83.6426 -26.6602 83.6426 -32.2754 C 83.6426 -37.9883 80.1758 -42.2363 75.1953 -42.2363 C 70.166 -42.2363 66.748 -38.1348 66.748 -32.2754 Z M 56.7871 -5.27344 C 56.7871 -6.93359 57.959 -8.1543 59.668 -8.1543 L 95.4102 -8.1543 C 97.1191 -8.1543 98.291 -6.93359 98.291 -5.27344 C 98.291 -3.66211 97.0703 -2.49023 95.4102 -2.49023 L 59.668 -2.49023 C 57.959 -2.49023 56.7871 -3.66211 56.7871 -5.27344 Z"/>
  </g>
  <g id="Bold-L" transform="matrix(1 0 0 1 2262.88 1556)">
   <path d="M 77.0996 30.5664 C 113.232 30.5664 142.92 0.878906 142.92 -35.2539 C 142.92 -71.3379 113.184 -101.074 77.0508 -101.074 C 40.9668 -101.074 11.2793 -71.3379 11.2793 -35.2539 C 11.2793 0.878906 41.0156 30.5664 77.0996 30.5664 Z M 53.2227 -32.5684 C 53.2227 -44.9219 61.2305 -52.6855 71.3379 -52.6855 C 76.3672 -52.6855 80.7129 -50.7324 83.3496 -47.5098 L 83.3496 -56.7383 L 72.8027 -56.7383 C 71.0449 -56.7383 69.9707 -57.8613 69.9707 -59.5215 C 69.9707 -61.1816 71.0449 -62.3535 72.8027 -62.3535 L 83.3984 -62.3535 L 83.3984 -64.4043 C 83.3984 -67.4316 85.5469 -69.3848 88.7695 -69.3848 C 91.9922 -69.3848 94.1406 -67.4316 94.1406 -64.4043 L 94.1406 -62.3535 L 98.0957 -62.3535 C 99.8535 -62.3535 100.928 -61.1816 100.928 -59.5215 C 100.928 -57.8613 99.8047 -56.7383 98.0957 -56.7383 L 94.2871 -56.7383 L 94.2871 -17.3828 C 94.2871 -13.916 92.1875 -11.8652 88.916 -11.8652 C 86.1328 -11.8652 84.0332 -13.5742 83.7891 -16.2598 L 83.7402 -18.2129 C 81.1523 -14.502 76.6602 -12.3535 71.3867 -12.3535 C 61.3281 -12.3535 53.2227 -20.2148 53.2227 -32.5684 Z M 64.3555 -32.5195 C 64.3555 -26.0254 68.2617 -21.582 73.877 -21.582 C 79.4922 -21.582 83.4473 -26.2695 83.4473 -32.5195 C 83.4473 -38.8184 79.4922 -43.5059 73.877 -43.5059 C 68.2617 -43.5059 64.3555 -39.0137 64.3555 -32.5195 Z M 56.3477 -5.66406 C 56.3477 -7.32422 57.5195 -8.54492 59.1797 -8.54492 L 93.2617 -8.54492 C 94.9707 -8.54492 96.1426 -7.32422 96.1426 -5.66406 C 96.1426 -4.05273 94.9219 -2.88086 93.2617 -2.88086 L 59.1797 -2.88086 C 57.5684 -2.88086 56.3477 -4.05273 56.3477 -5.66406 Z"/>
  </g>
  <g id="Semibold-L" transform="matrix(1 0 0 1 1966.97 1556)">
   <path d="M 76.2695 29.7363 C 111.914 29.7363 141.309 0.390625 141.309 -35.2539 C 141.309 -70.8984 111.865 -100.244 76.2695 -100.244 C 40.625 -100.244 11.2793 -70.8984 11.2793 -35.2539 C 11.2793 0.390625 40.6738 29.7363 76.2695 29.7363 Z M 52.9785 -32.7148 C 52.9785 -44.8242 60.8887 -52.6367 70.9961 -52.6367 C 76.123 -52.6367 80.5176 -50.5859 83.2031 -47.168 L 83.2031 -56.9824 L 72.2168 -56.9824 C 70.5078 -56.9824 69.4336 -58.1543 69.4336 -59.7656 C 69.4336 -61.377 70.5078 -62.5488 72.2168 -62.5488 L 83.252 -62.5488 L 83.252 -65.0879 C 83.252 -67.8711 85.1562 -69.5801 87.9883 -69.5801 C 90.7715 -69.5801 92.6758 -67.8711 92.6758 -65.0879 L 92.6758 -62.5488 L 96.7285 -62.5488 C 98.4375 -62.5488 99.5117 -61.377 99.5117 -59.7656 C 99.5117 -58.1543 98.3887 -56.9824 96.7285 -56.9824 L 92.7246 -56.9824 L 92.7246 -16.9922 C 92.7246 -14.0137 90.918 -12.2559 88.0859 -12.2559 C 85.5957 -12.2559 83.7891 -13.8184 83.5938 -16.3086 L 83.5938 -18.7012 C 80.8594 -14.9414 76.3184 -12.7441 71.0449 -12.7441 C 60.9375 -12.7441 52.9785 -20.6543 52.9785 -32.7148 Z M 62.6953 -32.666 C 62.6953 -25.7324 66.9434 -20.9961 72.998 -20.9961 C 79.0039 -20.9961 83.3008 -25.9766 83.3008 -32.666 C 83.3008 -39.4043 79.0039 -44.3848 72.998 -44.3848 C 66.9434 -44.3848 62.6953 -39.6484 62.6953 -32.666 Z M 56.0547 -5.95703 C 56.0547 -7.56836 57.2754 -8.78906 58.8867 -8.78906 L 91.7969 -8.78906 C 93.457 -8.78906 94.6777 -7.61719 94.6777 -5.95703 C 94.6777 -4.3457 93.4082 -3.17383 91.7969 -3.17383 L 58.8867 -3.17383 C 57.2754 -3.17383 56.0547 -4.3457 56.0547 -5.95703 Z"/>
  </g>
  <g id="Medium-L" transform="matrix(1 0 0 1 1670.87 1556)">
   <path d="M 75.6836 29.1504 C 110.938 29.1504 140.088 0 140.088 -35.2539 C 140.088 -70.5078 110.889 -99.6582 75.6348 -99.6582 C 40.3809 -99.6582 11.2793 -70.5078 11.2793 -35.2539 C 11.2793 0 40.3809 29.1504 75.6836 29.1504 Z M 52.7832 -32.8125 C 52.7832 -44.7266 60.5957 -52.5879 70.7031 -52.5879 C 75.8789 -52.5879 80.3711 -50.4883 83.1055 -46.9238 L 83.1055 -57.1777 L 71.7773 -57.1777 C 70.1172 -57.1777 68.9941 -58.3008 68.9941 -59.9609 C 68.9941 -61.5723 70.0684 -62.7441 71.7773 -62.7441 L 83.1543 -62.7441 L 83.1543 -65.625 C 83.1543 -68.1641 84.8145 -69.7266 87.3535 -69.7266 C 89.8438 -69.7266 91.5527 -68.1641 91.5527 -65.625 L 91.5527 -62.7441 L 95.7031 -62.7441 C 97.4121 -62.7441 98.4863 -61.5723 98.4863 -59.9609 C 98.4863 -58.3008 97.3633 -57.1777 95.7031 -57.1777 L 91.6016 -57.1777 L 91.6016 -16.748 C 91.6016 -14.1113 89.9902 -12.5 87.5 -12.5 C 85.2051 -12.5 83.5449 -14.0137 83.4473 -16.3086 L 83.4473 -19.043 C 80.6641 -15.2344 76.0742 -13.0371 70.752 -13.0371 C 60.6445 -13.0371 52.7832 -20.9961 52.7832 -32.8125 Z M 61.4258 -32.7637 C 61.4258 -25.4883 65.9668 -20.5566 72.3145 -20.5566 C 78.6133 -20.5566 83.1543 -25.7812 83.1543 -32.7637 C 83.1543 -39.8438 78.6133 -45.0195 72.3145 -45.0195 C 65.9668 -45.0195 61.4258 -40.1367 61.4258 -32.7637 Z M 55.8594 -6.15234 C 55.8594 -7.76367 57.0312 -9.0332 58.6426 -9.0332 L 90.6738 -9.0332 C 92.334 -9.0332 93.5547 -7.8125 93.5547 -6.15234 C 93.5547 -4.54102 92.2852 -3.36914 90.6738 -3.36914 L 58.6426 -3.36914 C 57.0801 -3.36914 55.8594 -4.54102 55.8594 -6.15234 Z"/>
  </g>
  <g id="Regular-L" transform="matrix(1 0 0 1 1374.97 1556)">
   <path d="M 74.8535 28.3203 C 109.668 28.3203 138.477 -0.488281 138.477 -35.2539 C 138.477 -70.0684 109.619 -98.877 74.8047 -98.877 C 40.0391 -98.877 11.2793 -70.0684 11.2793 -35.2539 C 11.2793 -0.488281 40.0879 28.3203 74.8535 28.3203 Z M 52.5391 -32.959 C 52.5391 -44.5801 60.2051 -52.5391 70.3613 -52.5391 C 75.6348 -52.5391 80.1758 -50.293 83.0078 -46.582 L 83.0078 -57.4219 L 71.1914 -57.4219 C 69.5801 -57.4219 68.457 -58.5449 68.457 -60.2051 C 68.457 -61.7676 69.5312 -62.9883 71.1914 -62.9883 L 83.0078 -62.9883 L 83.0078 -66.3086 C 83.0078 -68.5547 84.4238 -69.9219 86.5234 -69.9219 C 88.623 -69.9219 90.0879 -68.5547 90.0879 -66.3086 L 90.0879 -62.9883 L 94.3848 -62.9883 C 95.9961 -62.9883 97.1191 -61.7676 97.1191 -60.2051 C 97.1191 -58.5449 95.9473 -57.4219 94.3848 -57.4219 L 90.0879 -57.4219 L 90.0879 -16.3574 C 90.0879 -14.2578 88.7207 -12.8906 86.7188 -12.8906 C 84.668 -12.8906 83.252 -14.2578 83.252 -16.3574 L 83.252 -19.5312 C 80.3711 -15.6738 75.7324 -13.4277 70.4102 -13.4277 C 60.2539 -13.4277 52.5391 -21.4355 52.5391 -32.959 Z M 59.8145 -32.9102 C 59.8145 -25.1465 64.6484 -19.9707 71.4355 -19.9707 C 78.1738 -19.9707 83.0566 -25.4883 83.0566 -32.9102 C 83.0566 -40.3809 78.1738 -45.8984 71.4355 -45.8984 C 64.6484 -45.8984 59.8145 -40.7715 59.8145 -32.9102 Z M 55.5664 -6.44531 C 55.5664 -8.05664 56.7383 -9.27734 58.3496 -9.27734 L 89.209 -9.27734 C 90.8691 -9.27734 92.041 -8.10547 92.041 -6.44531 C 92.041 -4.83398 90.8203 -3.66211 89.209 -3.66211 L 58.3496 -3.66211 C 56.7871 -3.66211 55.5664 -4.83398 55.5664 -6.44531 Z"/>
  </g>
  <g id="Light-L" transform="matrix(1 0 0 1 1079.18 1556)">
   <path d="M 73.9258 27.3926 C 108.301 27.3926 136.621 -0.927734 136.621 -35.2539 C 136.621 -69.6289 108.252 -97.9492 73.9258 -97.9492 C 39.5508 -97.9492 11.2793 -69.6289 11.2793 -35.2539 C 11.2793 -0.927734 39.5996 27.3926 73.9258 27.3926 Z M 52.9785 -33.0566 C 52.9785 -44.1895 60.3516 -51.6113 69.8242 -51.6113 C 75.0977 -51.6113 79.6875 -49.2676 82.4219 -45.2637 L 82.4219 -56.6895 L 70.6543 -56.6895 C 69.2871 -56.6895 68.3594 -57.666 68.3594 -59.082 C 68.3594 -60.4004 69.2383 -61.377 70.6543 -61.377 L 82.4219 -61.377 L 82.4219 -65.0879 C 82.4219 -66.8945 83.4961 -67.9199 85.2539 -67.9199 C 86.9141 -67.9199 88.0371 -66.8945 88.0371 -65.0879 L 88.0371 -61.377 L 92.5293 -61.377 C 93.9453 -61.377 94.8242 -60.4004 94.8242 -59.082 C 94.8242 -57.666 93.8965 -56.6895 92.5293 -56.6895 L 88.0371 -56.6895 L 88.0371 -16.9434 C 88.0371 -15.2344 87.0117 -14.1602 85.4004 -14.1602 C 83.7402 -14.1602 82.6172 -15.2344 82.6172 -16.9434 L 82.6172 -20.9961 C 79.834 -16.8457 75.1465 -14.502 69.8242 -14.502 C 60.4004 -14.502 52.9785 -21.9238 52.9785 -33.0566 Z M 58.7402 -33.0078 C 58.7402 -25.0488 63.7695 -19.7754 70.5078 -19.7754 C 77.2949 -19.7754 82.3242 -25.4883 82.3242 -33.0078 C 82.3242 -40.5762 77.2949 -46.2891 70.5078 -46.2891 C 63.7695 -46.2891 58.7402 -41.0156 58.7402 -33.0078 Z M 55.5664 -8.05664 C 55.5664 -9.42383 56.543 -10.4492 57.9102 -10.4492 L 87.5977 -10.4492 C 89.0137 -10.4492 89.9902 -9.47266 89.9902 -8.05664 C 89.9902 -6.68945 88.9648 -5.71289 87.5977 -5.71289 L 57.9102 -5.71289 C 56.5918 -5.71289 55.5664 -6.68945 55.5664 -8.05664 Z"/>
  </g>
  <g id="Thin-L" transform="matrix(1 0 0 1 783.693 1556)">
   <path d="M 72.7051 26.1719 C 106.494 26.1719 134.18 -1.51367 134.18 -35.2539 C 134.18 -69.043 106.494 -96.7285 72.7051 -96.7285 C 38.9648 -96.7285 11.2793 -69.043 11.2793 -35.2539 C 11.2793 -1.51367 38.9648 26.1719 72.7051 26.1719 Z M 53.5645 -33.1543 C 53.5645 -43.7012 60.5957 -50.4395 69.0918 -50.4395 C 74.3652 -50.4395 79.0039 -47.8516 81.6895 -43.457 L 81.6895 -55.7617 L 69.9707 -55.7617 C 68.8477 -55.7617 68.2129 -56.4453 68.2129 -57.5684 C 68.2129 -58.5449 68.8477 -59.2285 69.9707 -59.2285 L 81.6895 -59.2285 L 81.6895 -63.4277 C 81.6895 -64.6484 82.3242 -65.332 83.5449 -65.332 C 84.6191 -65.332 85.4004 -64.6484 85.4004 -63.4277 L 85.4004 -59.2285 L 90.0879 -59.2285 C 91.2109 -59.2285 91.8457 -58.5449 91.8457 -57.5684 C 91.8457 -56.4453 91.2109 -55.7617 90.0879 -55.7617 L 85.4004 -55.7617 L 85.4004 -17.6758 C 85.4004 -16.5039 84.7168 -15.8203 83.6426 -15.8203 C 82.4219 -15.8203 81.7871 -16.5039 81.7871 -17.6758 L 81.7871 -22.9492 C 79.1016 -18.457 74.4141 -15.8691 69.0918 -15.8691 C 60.5957 -15.8691 53.5645 -22.6074 53.5645 -33.1543 Z M 57.3242 -33.1543 C 57.3242 -24.9512 62.6465 -19.4824 69.2383 -19.4824 C 76.123 -19.4824 81.2988 -25.4883 81.2988 -33.1543 C 81.2988 -40.8203 76.123 -46.7773 69.2383 -46.7773 C 62.6465 -46.7773 57.3242 -41.3574 57.3242 -33.1543 Z M 55.5664 -10.1562 C 55.5664 -11.2305 56.2988 -11.9629 57.3242 -11.9629 L 85.498 -11.9629 C 86.5234 -11.9629 87.2559 -11.2305 87.2559 -10.1562 C 87.2559 -9.13086 86.5234 -8.39844 85.498 -8.39844 L 57.3242 -8.39844 C 56.2988 -8.39844 55.5664 -9.13086 55.5664 -10.1562 Z"/>
  </g>
  <g id="Ultralight-L" transform="matrix(1 0 0 1 487.616 1556)">
   <path d="M 72.1191 25.5371 C 105.566 25.5371 132.91 -1.80664 132.91 -35.2539 C 132.91 -68.75 105.566 -96.0938 72.1191 -96.0938 C 38.623 -96.0938 11.2793 -68.75 11.2793 -35.2539 C 11.2793 -1.80664 38.623 25.5371 72.1191 25.5371 Z M 53.8574 -33.2031 C 53.8574 -43.4082 60.6934 -49.8535 68.75 -49.8535 C 73.9746 -49.8535 78.6621 -47.168 81.2988 -42.5293 L 81.2988 -55.3223 L 69.6289 -55.3223 C 68.6523 -55.3223 68.1641 -55.8105 68.1641 -56.7871 C 68.1641 -57.5684 68.6523 -58.1543 69.6289 -58.1543 L 81.2988 -58.1543 L 81.2988 -62.5977 C 81.2988 -63.5254 81.7383 -63.9648 82.666 -63.9648 C 83.4961 -63.9648 84.0332 -63.5254 84.0332 -62.5977 L 84.0332 -58.1543 L 88.8184 -58.1543 C 89.7949 -58.1543 90.2832 -57.5684 90.2832 -56.7871 C 90.2832 -55.8105 89.7949 -55.3223 88.8184 -55.3223 L 84.0332 -55.3223 L 84.0332 -18.0664 C 84.0332 -17.1875 83.5449 -16.6992 82.7148 -16.6992 C 81.7871 -16.6992 81.3477 -17.1875 81.3477 -18.0664 L 81.3477 -23.9258 C 78.7109 -19.2383 74.0234 -16.5527 68.75 -16.5527 C 60.6934 -16.5527 53.8574 -22.998 53.8574 -33.2031 Z M 56.5918 -33.2031 C 56.5918 -24.8535 62.0605 -19.3848 68.6035 -19.3848 C 75.5371 -19.3848 80.8105 -25.4395 80.8105 -33.2031 C 80.8105 -40.9668 75.5371 -47.0703 68.6035 -47.0703 C 62.0605 -47.0703 56.5918 -41.5527 56.5918 -33.2031 Z M 55.5664 -11.2793 C 55.5664 -12.1582 56.1523 -12.7441 57.0312 -12.7441 L 84.375 -12.7441 C 85.2539 -12.7441 85.8398 -12.1582 85.8398 -11.2793 C 85.8398 -10.4004 85.3027 -9.81445 84.375 -9.81445 L 57.0312 -9.81445 C 56.1523 -9.81445 55.5664 -10.4004 55.5664 -11.2793 Z"/>
  </g>
  <g id="Black-M" transform="matrix(1 0 0 1 2870.97 1126)">
   <path d="M 62.4023 18.457 C 91.9922 18.457 116.113 -5.61523 116.113 -35.2051 C 116.113 -64.7949 91.9922 -88.8672 62.4023 -88.8672 C 32.8125 -88.8672 8.74023 -64.7949 8.74023 -35.2051 C 8.74023 -5.61523 32.8125 18.457 62.4023 18.457 Z M 42.4316 -32.6172 C 42.4316 -43.0664 49.0723 -48.4863 56.3477 -48.4863 C 59.9609 -48.4863 63.0371 -47.3145 64.7461 -45.3613 L 64.7461 -50.5859 L 58.3984 -50.5859 C 56.9824 -50.5859 56.3477 -51.3184 56.3477 -52.4902 C 56.3477 -53.7598 56.9824 -54.4922 58.3984 -54.4922 L 64.9414 -54.4922 C 64.9414 -57.7637 67.4805 -59.9121 71.2891 -59.9121 C 75.0977 -59.9121 77.6367 -57.7637 77.6367 -54.4922 L 80.3223 -54.4922 C 81.6895 -54.4922 82.373 -53.7598 82.373 -52.4902 C 82.373 -51.3184 81.6895 -50.5859 80.3223 -50.5859 L 77.9297 -50.5859 L 77.9297 -23.1445 C 77.9297 -18.75 75.4395 -16.3574 71.2891 -16.3574 C 68.2617 -16.3574 65.8691 -18.0664 65.332 -20.7031 L 65.2344 -20.8984 C 63.6719 -18.1641 60.498 -16.5527 56.4453 -16.5527 C 49.1211 -16.5527 42.4316 -22.1191 42.4316 -32.6172 Z M 55.7129 -32.5684 C 55.7129 -29.2969 57.5684 -26.8066 60.2539 -26.8066 C 62.9883 -26.8066 64.7949 -29.2969 64.7949 -32.5684 C 64.7949 -35.8887 62.9883 -38.4766 60.2539 -38.4766 C 57.5684 -38.4766 55.7129 -35.8887 55.7129 -32.5684 Z M 44.7754 -12.1094 C 44.7754 -13.2812 45.6055 -14.0625 46.8262 -14.0625 L 77.0996 -14.0625 C 78.3691 -14.0625 79.1504 -13.2812 79.1504 -12.1094 C 79.1504 -10.9863 78.3691 -10.2051 77.0996 -10.2051 L 46.8262 -10.2051 C 45.6055 -10.2051 44.7754 -10.9863 44.7754 -12.1094 Z"/>
  </g>
  <g id="Heavy-M" transform="matrix(1 0 0 1 2575.19 1126)">
   <path d="M 61.5234 17.5293 C 90.5273 17.5293 114.258 -6.20117 114.258 -35.2051 C 114.258 -64.2578 90.5273 -87.9883 61.4746 -87.9883 C 32.4707 -87.9883 8.74023 -64.2578 8.74023 -35.2051 C 8.74023 -6.20117 32.4707 17.5293 61.5234 17.5293 Z M 41.9922 -32.8125 C 41.9922 -42.9688 48.4375 -48.6328 56.0059 -48.6328 C 59.7168 -48.6328 62.8906 -47.3633 64.7461 -45.2148 L 64.7461 -51.123 L 57.7148 -51.123 C 56.2988 -51.123 55.5664 -51.9043 55.5664 -53.125 C 55.5664 -54.3945 56.2988 -55.2246 57.7148 -55.2246 L 64.8926 -55.2246 L 64.8926 -55.8105 C 64.8926 -58.7402 67.0898 -60.6934 70.459 -60.6934 C 73.7793 -60.6934 76.0742 -58.7402 76.0742 -55.8105 L 76.0742 -55.2246 L 78.8574 -55.2246 C 80.2734 -55.2246 81.0059 -54.3945 81.0059 -53.125 C 81.0059 -51.9043 80.2246 -51.123 78.8574 -51.123 L 76.2695 -51.123 L 76.2695 -22.4609 C 76.2695 -18.7012 74.1211 -16.5527 70.5078 -16.5527 C 67.7734 -16.5527 65.6738 -18.1641 65.2344 -20.6055 L 65.1855 -21.2402 C 63.3789 -18.457 60.1074 -16.8457 56.0547 -16.8457 C 48.5352 -16.8457 41.9922 -22.6074 41.9922 -32.8125 Z M 53.6621 -32.7637 C 53.6621 -28.9062 55.9082 -26.0254 59.2285 -26.0254 C 62.5488 -26.0254 64.7949 -28.9551 64.7949 -32.7637 C 64.7949 -36.6211 62.5488 -39.5996 59.2285 -39.5996 C 55.9082 -39.5996 53.6621 -36.7188 53.6621 -32.7637 Z M 44.3848 -12.0605 C 44.3848 -13.3301 45.2637 -14.1602 46.5332 -14.1602 L 75.4395 -14.1602 C 76.709 -14.1602 77.5879 -13.3301 77.5879 -12.0605 C 77.5879 -10.8887 76.709 -10.0586 75.4395 -10.0586 L 46.5332 -10.0586 C 45.2637 -10.0586 44.3848 -10.8887 44.3848 -12.0605 Z"/>
  </g>
  <g id="Bold-M" transform="matrix(1 0 0 1 2279.5 1126)">
   <path d="M 60.498 16.5039 C 88.8672 16.5039 112.207 -6.83594 112.207 -35.2051 C 112.207 -63.623 88.8672 -86.9629 60.4492 -86.9629 C 32.0312 -86.9629 8.74023 -63.623 8.74023 -35.2051 C 8.74023 -6.83594 32.0801 16.5039 60.498 16.5039 Z M 41.4551 -33.0566 C 41.4551 -42.8711 47.8027 -48.8281 55.6152 -48.8281 C 59.4727 -48.8281 62.7441 -47.4121 64.6973 -45.0684 L 64.6973 -51.709 L 56.9336 -51.709 C 55.5176 -51.709 54.7363 -52.5879 54.7363 -53.8574 C 54.7363 -55.1758 55.5176 -56.0547 56.9336 -56.0547 L 64.7949 -56.0547 L 64.7949 -57.2754 C 64.7949 -59.8633 66.6992 -61.5723 69.5312 -61.5723 C 72.3633 -61.5723 74.3164 -59.8633 74.3164 -57.2754 L 74.3164 -56.0547 L 77.2461 -56.0547 C 78.6133 -56.0547 79.4434 -55.1758 79.4434 -53.8574 C 79.4434 -52.5879 78.6133 -51.709 77.2461 -51.709 L 74.4141 -51.709 L 74.4141 -21.7285 C 74.4141 -18.6035 72.6074 -16.7969 69.6289 -16.7969 C 67.2363 -16.7969 65.3809 -18.2129 65.0879 -20.5078 L 65.0879 -21.582 C 63.1348 -18.7988 59.7168 -17.1387 55.6641 -17.1387 C 47.8516 -17.1387 41.4551 -23.1934 41.4551 -33.0566 Z M 51.3184 -32.959 C 51.3184 -28.3691 54.0527 -25.1465 58.0566 -25.1465 C 62.0117 -25.1465 64.7949 -28.5156 64.7949 -32.959 C 64.7949 -37.5 62.0117 -40.8691 58.0566 -40.8691 C 54.0527 -40.8691 51.3184 -37.5977 51.3184 -32.959 Z M 43.9453 -12.0605 C 43.9453 -13.3301 44.8242 -14.2578 46.1426 -14.2578 L 73.584 -14.2578 C 74.9023 -14.2578 75.8301 -13.3789 75.8301 -12.0605 C 75.8301 -10.791 74.9023 -9.91211 73.584 -9.91211 L 46.1426 -9.91211 C 44.873 -9.91211 43.9453 -10.791 43.9453 -12.0605 Z"/>
  </g>
  <g id="Semibold-M" transform="matrix(1 0 0 1 1983.5 1126)">
   <path d="M 59.7656 15.8203 C 87.7441 15.8203 110.791 -7.27539 110.791 -35.2539 C 110.791 -63.2324 87.6953 -86.2793 59.7656 -86.2793 C 31.7871 -86.2793 8.74023 -63.2324 8.74023 -35.2539 C 8.74023 -7.27539 31.7871 15.8203 59.7656 15.8203 Z M 41.1133 -33.2031 C 41.1133 -42.8223 47.3633 -48.9258 55.3223 -48.9258 C 59.2773 -48.9258 62.6465 -47.4609 64.6973 -44.9707 L 64.6973 -52.0996 L 56.3965 -52.0996 C 55.0293 -52.0996 54.1504 -53.0273 54.1504 -54.3457 C 54.1504 -55.7129 54.9805 -56.6406 56.3965 -56.6406 L 64.7461 -56.6406 L 64.7461 -58.252 C 64.7461 -60.6445 66.4062 -62.1582 68.8965 -62.1582 C 71.3867 -62.1582 73.0957 -60.6445 73.0957 -58.252 L 73.0957 -56.6406 L 76.123 -56.6406 C 77.5391 -56.6406 78.418 -55.7129 78.418 -54.3457 C 78.418 -53.0273 77.4902 -52.0996 76.123 -52.0996 L 73.1445 -52.0996 L 73.1445 -21.1914 C 73.1445 -18.5059 71.5332 -16.9434 68.9941 -16.9434 C 66.8457 -16.9434 65.2344 -18.3105 65.0391 -20.4102 L 65.0391 -21.8262 C 62.9395 -18.9941 59.4727 -17.3828 55.3711 -17.3828 C 47.4121 -17.3828 41.1133 -23.584 41.1133 -33.2031 Z M 49.7559 -33.1543 C 49.7559 -28.0762 52.7832 -24.5605 57.2754 -24.5605 C 61.6699 -24.5605 64.7949 -28.2227 64.7949 -33.1543 C 64.7949 -38.0859 61.6699 -41.748 57.2754 -41.748 C 52.7832 -41.748 49.7559 -38.2812 49.7559 -33.1543 Z M 43.6035 -12.0605 C 43.6035 -13.3789 44.5801 -14.3555 45.8984 -14.3555 L 72.3145 -14.3555 C 73.6816 -14.3555 74.6094 -13.3789 74.6094 -12.0605 C 74.6094 -10.7422 73.6328 -9.76562 72.3145 -9.76562 L 45.8984 -9.76562 C 44.6289 -9.76562 43.6035 -10.7422 43.6035 -12.0605 Z"/>
  </g>
  <g id="Medium-M" transform="matrix(1 0 0 1 1687.3 1126)">
   <path d="M 59.2285 15.2344 C 86.9141 15.2344 109.766 -7.61719 109.766 -35.2539 C 109.766 -62.8906 86.8652 -85.7422 59.1797 -85.7422 C 31.543 -85.7422 8.74023 -62.8906 8.74023 -35.2539 C 8.74023 -7.61719 31.5918 15.2344 59.2285 15.2344 Z M 40.8203 -33.3008 C 40.8203 -42.7734 47.0215 -49.0234 55.127 -49.0234 C 59.1309 -49.0234 62.5488 -47.4609 64.6484 -44.9219 L 64.6484 -52.4414 L 56.0059 -52.4414 C 54.6387 -52.4414 53.6621 -53.3691 53.6621 -54.7363 C 53.6621 -56.1035 54.5898 -57.0801 56.0059 -57.0801 L 64.6973 -57.0801 L 64.6973 -59.0332 C 64.6973 -61.2305 66.2109 -62.6465 68.4082 -62.6465 C 70.6543 -62.6465 72.168 -61.2305 72.168 -59.0332 L 72.168 -57.0801 L 75.293 -57.0801 C 76.6602 -57.0801 77.5879 -56.1035 77.5879 -54.7363 C 77.5879 -53.3691 76.6602 -52.4414 75.293 -52.4414 L 72.2168 -52.4414 L 72.2168 -20.8008 C 72.2168 -18.457 70.752 -17.041 68.5547 -17.041 C 66.5527 -17.041 65.0879 -18.3594 64.9902 -20.3613 L 64.9902 -22.0215 C 62.793 -19.1406 59.2773 -17.5293 55.1758 -17.5293 C 47.0703 -17.5293 40.8203 -23.877 40.8203 -33.3008 Z M 48.5352 -33.252 C 48.5352 -27.7832 51.8555 -24.1211 56.6895 -24.1211 C 61.4258 -24.1211 64.7949 -27.9785 64.7949 -33.252 C 64.7949 -38.5254 61.4258 -42.3828 56.6895 -42.3828 C 51.8555 -42.3828 48.5352 -38.7207 48.5352 -33.252 Z M 43.3594 -12.0117 C 43.3594 -13.3789 44.3848 -14.4043 45.7031 -14.4043 L 71.3379 -14.4043 C 72.7051 -14.4043 73.7305 -13.4277 73.7305 -12.0117 C 73.7305 -10.6934 72.7051 -9.7168 71.3379 -9.7168 L 45.7031 -9.7168 C 44.4336 -9.7168 43.3594 -10.6934 43.3594 -12.0117 Z"/>
  </g>
  <g id="Regular-M" transform="matrix(1 0 0 1 1391.3 1126)">
   <path d="M 58.5449 14.5508 C 85.791 14.5508 108.35 -8.05664 108.35 -35.2539 C 108.35 -62.5 85.7422 -85.0586 58.4961 -85.0586 C 31.2988 -85.0586 8.74023 -62.5 8.74023 -35.2539 C 8.74023 -8.05664 31.3477 14.5508 58.5449 14.5508 Z M 40.4785 -33.4473 C 40.4785 -42.7246 46.5332 -49.1211 54.834 -49.1211 C 58.9355 -49.1211 62.4512 -47.5098 64.6484 -44.8242 L 64.6484 -52.832 L 55.4688 -52.832 C 54.1016 -52.832 53.0762 -53.8574 53.0762 -55.2246 C 53.0762 -56.5918 54.0527 -57.666 55.4688 -57.666 L 64.6484 -57.666 L 64.6484 -60.0098 C 64.6484 -62.0117 65.918 -63.2324 67.7734 -63.2324 C 69.6777 -63.2324 70.9473 -62.0117 70.9473 -60.0098 L 70.9473 -57.666 L 74.1699 -57.666 C 75.5859 -57.666 76.5625 -56.5918 76.5625 -55.2246 C 76.5625 -53.8574 75.5371 -52.832 74.1699 -52.832 L 70.9473 -52.832 L 70.9473 -20.2637 C 70.9473 -18.4082 69.7266 -17.1875 67.9688 -17.1875 C 66.1621 -17.1875 64.8926 -18.4082 64.8926 -20.2637 L 64.8926 -22.2656 C 62.5977 -19.3848 58.9844 -17.7734 54.8828 -17.7734 C 46.582 -17.7734 40.4785 -24.2188 40.4785 -33.4473 Z M 46.9727 -33.3984 C 46.9727 -27.4414 50.5859 -23.5352 55.9082 -23.5352 C 61.084 -23.5352 64.7949 -27.6855 64.7949 -33.3984 C 64.7949 -39.1113 61.084 -43.2617 55.9082 -43.2617 C 50.5859 -43.2617 46.9727 -39.3555 46.9727 -33.3984 Z M 43.0664 -12.0117 C 43.0664 -13.3789 44.0918 -14.4531 45.5078 -14.4531 L 70.0684 -14.4531 C 71.4844 -14.4531 72.5098 -13.4277 72.5098 -12.0117 C 72.5098 -10.6445 71.4355 -9.57031 70.0684 -9.57031 L 45.5078 -9.57031 C 44.1406 -9.57031 43.0664 -10.6445 43.0664 -12.0117 Z"/>
  </g>
  <g id="Light-M" transform="matrix(1 0 0 1 1095.42 1126)">
   <path d="M 57.7148 13.7207 C 84.5215 13.7207 106.689 -8.44727 106.689 -35.2539 C 106.689 -62.1094 84.5215 -84.2285 57.666 -84.2285 C 30.8594 -84.2285 8.74023 -62.1094 8.74023 -35.2539 C 8.74023 -8.44727 30.9082 13.7207 57.7148 13.7207 Z M 40.8691 -33.4961 C 40.8691 -42.334 46.6797 -48.3398 54.3457 -48.3398 C 58.4473 -48.3398 61.9629 -46.582 64.1113 -43.6035 L 64.1113 -52.1973 L 54.9805 -52.1973 C 53.8574 -52.1973 53.0273 -53.0273 53.0273 -54.1992 C 53.0273 -55.3711 53.8086 -56.2012 54.9805 -56.2012 L 64.1113 -56.2012 L 64.1113 -58.9355 C 64.1113 -60.498 65.1367 -61.4746 66.6504 -61.4746 C 68.1152 -61.4746 69.1406 -60.498 69.1406 -58.9355 L 69.1406 -56.2012 L 72.5098 -56.2012 C 73.7305 -56.2012 74.5117 -55.3711 74.5117 -54.1992 C 74.5117 -53.0273 73.6816 -52.1973 72.5098 -52.1973 L 69.1406 -52.1973 L 69.1406 -20.8008 C 69.1406 -19.2871 68.1641 -18.3105 66.748 -18.3105 C 65.332 -18.3105 64.3066 -19.2871 64.3066 -20.8008 L 64.3066 -23.5352 C 62.1094 -20.459 58.4961 -18.7012 54.3945 -18.7012 C 46.7285 -18.7012 40.8691 -24.707 40.8691 -33.4961 Z M 45.9961 -33.4961 C 45.9961 -27.3926 49.8047 -23.3398 55.0781 -23.3398 C 60.3027 -23.3398 64.1113 -27.6855 64.1113 -33.4961 C 64.1113 -39.3066 60.3027 -43.6035 55.0781 -43.6035 C 49.8047 -43.6035 45.9961 -39.5996 45.9961 -33.4961 Z M 43.0664 -13.4277 C 43.0664 -14.5996 43.8965 -15.4785 45.0684 -15.4785 L 68.6035 -15.4785 C 69.8242 -15.4785 70.6543 -14.6484 70.6543 -13.4277 C 70.6543 -12.3047 69.7754 -11.4258 68.6035 -11.4258 L 45.0684 -11.4258 C 43.9453 -11.4258 43.0664 -12.3047 43.0664 -13.4277 Z"/>
  </g>
  <g id="Thin-M" transform="matrix(1 0 0 1 799.806 1126)">
   <path d="M 56.6406 12.5977 C 82.9102 12.5977 104.492 -8.98438 104.492 -35.2539 C 104.492 -61.5723 82.9102 -83.1543 56.5918 -83.1543 C 30.3223 -83.1543 8.74023 -61.5723 8.74023 -35.2539 C 8.74023 -8.98438 30.3223 12.5977 56.6406 12.5977 Z M 41.4062 -33.5938 C 41.4062 -41.8945 46.9238 -47.2656 53.7109 -47.2656 C 57.7637 -47.2656 61.377 -45.3125 63.4766 -41.9922 L 63.4766 -51.3672 L 54.3945 -51.3672 C 53.4668 -51.3672 52.8809 -51.9043 52.8809 -52.832 C 52.8809 -53.6621 53.4668 -54.2969 54.3945 -54.2969 L 63.4766 -54.2969 L 63.4766 -57.4707 C 63.4766 -58.4961 64.0625 -59.1309 65.0879 -59.1309 C 66.0645 -59.1309 66.748 -58.4961 66.748 -57.4707 L 66.748 -54.2969 L 70.3125 -54.2969 C 71.2891 -54.2969 71.8262 -53.6621 71.8262 -52.832 C 71.8262 -51.9043 71.2402 -51.3672 70.3125 -51.3672 L 66.748 -51.3672 L 66.748 -21.4844 C 66.748 -20.459 66.1621 -19.8242 65.1855 -19.8242 C 64.1602 -19.8242 63.5742 -20.459 63.5742 -21.4844 L 63.5742 -25.293 C 61.4258 -21.875 57.8125 -19.9219 53.7109 -19.9219 C 46.9238 -19.9219 41.4062 -25.293 41.4062 -33.5938 Z M 44.7266 -33.5938 C 44.7266 -27.2949 48.7793 -23.0957 53.9551 -23.0957 C 59.2773 -23.0957 63.2324 -27.6855 63.2324 -33.5938 C 63.2324 -39.502 59.2773 -44.0918 53.9551 -44.0918 C 48.7793 -44.0918 44.7266 -39.8926 44.7266 -33.5938 Z M 43.0664 -15.332 C 43.0664 -16.2598 43.7012 -16.8457 44.5801 -16.8457 L 66.6992 -16.8457 C 67.627 -16.8457 68.2129 -16.2598 68.2129 -15.332 C 68.2129 -14.4531 67.5781 -13.8672 66.6992 -13.8672 L 44.5801 -13.8672 C 43.7012 -13.8672 43.0664 -14.4531 43.0664 -15.332 Z"/>
  </g>
  <g id="Ultralight-M" transform="matrix(1 0 0 1 503.656 1126)">
   <path d="M 56.0547 12.0605 C 82.0801 12.0605 103.369 -9.22852 103.369 -35.2539 C 103.369 -61.2793 82.0801 -82.5684 56.0547 -82.5684 C 30.0293 -82.5684 8.74023 -61.2793 8.74023 -35.2539 C 8.74023 -9.22852 30.0293 12.0605 56.0547 12.0605 Z M 41.6504 -33.6426 C 41.6504 -41.6504 47.0215 -46.7285 53.3691 -46.7285 C 57.4219 -46.7285 61.0352 -44.6777 63.0859 -41.1621 L 63.0859 -50.9277 L 54.0527 -50.9277 C 53.2715 -50.9277 52.832 -51.3672 52.832 -52.1484 C 52.832 -52.832 53.2715 -53.3203 54.0527 -53.3203 L 63.0859 -53.3203 L 63.0859 -56.6895 C 63.0859 -57.4707 63.5254 -57.9102 64.3066 -57.9102 C 65.0391 -57.9102 65.5273 -57.4707 65.5273 -56.6895 L 65.5273 -53.3203 L 69.1895 -53.3203 C 70.0195 -53.3203 70.459 -52.832 70.459 -52.1484 C 70.459 -51.3672 70.0195 -50.9277 69.1895 -50.9277 L 65.5273 -50.9277 L 65.5273 -21.8262 C 65.5273 -21.0449 65.0879 -20.6055 64.3555 -20.6055 C 63.5742 -20.6055 63.1836 -21.0449 63.1836 -21.8262 L 63.1836 -26.1719 C 61.1328 -22.6074 57.5195 -20.5566 53.3691 -20.5566 C 47.0215 -20.5566 41.6504 -25.6348 41.6504 -33.6426 Z M 44.0918 -33.6426 C 44.0918 -27.1973 48.2422 -22.9492 53.3691 -22.9492 C 58.7402 -22.9492 62.793 -27.6367 62.793 -33.6426 C 62.793 -39.6484 58.7402 -44.3359 53.3691 -44.3359 C 48.2422 -44.3359 44.0918 -40.0879 44.0918 -33.6426 Z M 43.0664 -16.3086 C 43.0664 -17.0898 43.5547 -17.5781 44.2871 -17.5781 L 65.7227 -17.5781 C 66.4551 -17.5781 66.9434 -17.0898 66.9434 -16.3086 C 66.9434 -15.5762 66.4551 -15.0879 65.7227 -15.0879 L 44.2871 -15.0879 C 43.5547 -15.0879 43.0664 -15.5762 43.0664 -16.3086 Z"/>
  </g>
  <g id="Black-S" transform="matrix(1 0 0 1 2884.57 696)">
   <path d="M 48.8281 6.78711 C 71.9727 6.78711 90.8203 -12.0605 90.8203 -35.2051 C 90.8203 -58.3496 71.9727 -77.1973 48.8281 -77.1973 C 25.6836 -77.1973 6.83594 -58.3496 6.83594 -35.2051 C 6.83594 -12.0605 25.6836 6.78711 48.8281 6.78711 Z M 33.2031 -33.2031 C 33.2031 -41.3574 38.3789 -45.6543 44.1406 -45.6543 C 46.9727 -45.6543 49.3652 -44.7266 50.7324 -43.1641 L 50.7324 -47.3145 L 45.7031 -47.3145 C 44.5801 -47.3145 44.0918 -47.9004 44.0918 -48.8281 C 44.0918 -49.8047 44.5801 -50.3906 45.7031 -50.3906 L 50.8789 -50.3906 L 50.8789 -50.4395 C 50.8789 -52.9785 52.832 -54.6387 55.8105 -54.6387 C 58.7402 -54.6387 60.7422 -52.9785 60.7422 -50.4395 L 60.7422 -50.3906 L 62.8418 -50.3906 C 63.916 -50.3906 64.4531 -49.8047 64.4531 -48.8281 C 64.4531 -47.9004 63.916 -47.3145 62.8418 -47.3145 L 60.9375 -47.3145 L 60.9375 -25.6836 C 60.9375 -22.3145 59.0332 -20.459 55.8105 -20.459 C 53.4668 -20.459 51.6113 -21.7773 51.1719 -23.8281 L 51.123 -24.0234 C 49.8535 -21.875 47.3633 -20.6055 44.1895 -20.6055 C 38.4277 -20.6055 33.2031 -25 33.2031 -33.2031 Z M 43.5059 -33.1543 C 43.5059 -30.5664 44.9707 -28.5645 47.1191 -28.5645 C 49.3164 -28.5645 50.7812 -30.5664 50.7812 -33.1543 C 50.7812 -35.791 49.3164 -37.8418 47.1191 -37.8418 C 44.9707 -37.8418 43.5059 -35.791 43.5059 -33.1543 Z M 35.0586 -17.0898 C 35.0586 -18.0176 35.6934 -18.6523 36.6699 -18.6523 L 60.3027 -18.6523 C 61.2793 -18.6523 61.9141 -18.0176 61.9141 -17.0898 C 61.9141 -16.2109 61.2793 -15.5762 60.3027 -15.5762 L 36.6699 -15.5762 C 35.6934 -15.5762 35.0586 -16.2109 35.0586 -17.0898 Z"/>
  </g>
  <g id="Heavy-S" transform="matrix(1 0 0 1 2588.47 696)">
   <path d="M 48.2422 6.15234 C 70.9961 6.15234 89.5996 -12.4512 89.5996 -35.2051 C 89.5996 -57.959 70.9961 -76.6113 48.1934 -76.6113 C 25.4395 -76.6113 6.83594 -57.959 6.83594 -35.2051 C 6.83594 -12.4512 25.4395 6.15234 48.2422 6.15234 Z M 32.8125 -33.3496 C 32.8125 -41.3574 37.8906 -45.8496 43.8965 -45.8496 C 46.8262 -45.8496 49.3164 -44.873 50.7812 -43.2129 L 50.7812 -47.8027 L 45.2148 -47.8027 C 44.0918 -47.8027 43.5059 -48.4375 43.5059 -49.4141 C 43.5059 -50.4395 44.0918 -51.123 45.2148 -51.123 L 50.8789 -51.123 L 50.8789 -51.5625 C 50.8789 -53.9062 52.6367 -55.4199 55.3223 -55.4199 C 57.959 -55.4199 59.7168 -53.9062 59.7168 -51.5625 L 59.7168 -51.123 L 61.9141 -51.123 C 63.0371 -51.123 63.623 -50.4395 63.623 -49.4141 C 63.623 -48.4375 62.9883 -47.8027 61.9141 -47.8027 L 59.8633 -47.8027 L 59.8633 -25.0977 C 59.8633 -22.168 58.1543 -20.459 55.3223 -20.459 C 53.1738 -20.459 51.5137 -21.7285 51.1719 -23.6816 L 51.123 -24.1211 C 49.707 -21.9727 47.168 -20.7031 43.9453 -20.7031 C 37.9395 -20.7031 32.8125 -25.3418 32.8125 -33.3496 Z M 42.041 -33.3008 C 42.041 -30.2246 43.7988 -27.9785 46.4355 -27.9785 C 49.0723 -27.9785 50.8301 -30.2734 50.8301 -33.3008 C 50.8301 -36.377 49.0723 -38.6719 46.4355 -38.6719 C 43.7988 -38.6719 42.041 -36.377 42.041 -33.3008 Z M 34.7656 -16.8945 C 34.7656 -17.9199 35.4492 -18.6035 36.4746 -18.6035 L 59.1797 -18.6035 C 60.2051 -18.6035 60.9375 -17.9199 60.9375 -16.8945 C 60.9375 -15.9668 60.2051 -15.2832 59.1797 -15.2832 L 36.4746 -15.2832 C 35.4492 -15.2832 34.7656 -15.9668 34.7656 -16.8945 Z"/>
  </g>
  <g id="Bold-S" transform="matrix(1 0 0 1 2292.44 696)">
   <path d="M 47.5586 5.46875 C 69.873 5.46875 88.2324 -12.8906 88.2324 -35.2539 C 88.2324 -57.5684 69.873 -75.9277 47.5098 -75.9277 C 25.1953 -75.9277 6.83594 -57.5684 6.83594 -35.2539 C 6.83594 -12.8906 25.1953 5.46875 47.5586 5.46875 Z M 32.373 -33.4961 C 32.373 -41.3086 37.4023 -46.0938 43.6523 -46.0938 C 46.6797 -46.0938 49.2676 -45.0195 50.8301 -43.2617 L 50.8301 -48.3398 L 44.6777 -48.3398 C 43.5547 -48.3398 42.8711 -49.0723 42.8711 -50.0977 C 42.8711 -51.2207 43.5547 -51.9531 44.6777 -51.9531 L 50.8789 -51.9531 L 50.8789 -52.832 C 50.8789 -54.9805 52.4414 -56.3477 54.7363 -56.3477 C 57.0312 -56.3477 58.5938 -54.9805 58.5938 -52.832 L 58.5938 -51.9531 L 60.8887 -51.9531 C 62.0117 -51.9531 62.6953 -51.2207 62.6953 -50.0977 C 62.6953 -49.0723 62.0117 -48.3398 60.8887 -48.3398 L 58.6914 -48.3398 L 58.6914 -24.4629 C 58.6914 -21.9727 57.2266 -20.5078 54.834 -20.5078 C 52.8809 -20.5078 51.3672 -21.6797 51.1719 -23.5352 L 51.123 -24.2188 C 49.5605 -22.0703 46.9238 -20.8496 43.7012 -20.8496 C 37.4512 -20.8496 32.373 -25.6836 32.373 -33.4961 Z M 40.3809 -33.4473 C 40.3809 -29.8828 42.4805 -27.3438 45.6543 -27.3438 C 48.7793 -27.3438 50.9277 -29.9316 50.9277 -33.4473 C 50.9277 -37.0117 48.7793 -39.5996 45.6543 -39.5996 C 42.4805 -39.5996 40.3809 -37.0605 40.3809 -33.4473 Z M 34.4238 -16.6992 C 34.4238 -17.7734 35.1562 -18.5547 36.2305 -18.5547 L 57.959 -18.5547 C 59.0332 -18.5547 59.8145 -17.7734 59.8145 -16.6992 C 59.8145 -15.6738 59.0332 -14.8926 57.959 -14.8926 L 36.2305 -14.8926 C 35.2051 -14.8926 34.4238 -15.6738 34.4238 -16.6992 Z"/>
  </g>
  <g id="Semibold-S" transform="matrix(1 0 0 1 1996.2 696)">
   <path d="M 47.0703 4.98047 C 69.0918 4.98047 87.3047 -13.1836 87.3047 -35.2539 C 87.3047 -57.2754 69.0918 -75.4883 47.0215 -75.4883 C 25 -75.4883 6.83594 -57.2754 6.83594 -35.2539 C 6.83594 -13.1836 25.0488 4.98047 47.0703 4.98047 Z M 32.0312 -33.5938 C 32.0312 -41.3086 37.0117 -46.2402 43.5059 -46.2402 C 46.582 -46.2402 49.2188 -45.1172 50.8301 -43.2617 L 50.8301 -48.6816 L 44.3359 -48.6816 C 43.1641 -48.6816 42.4316 -49.4629 42.4316 -50.5859 C 42.4316 -51.709 43.1641 -52.4902 44.3359 -52.4902 L 50.8789 -52.4902 L 50.8789 -53.6621 C 50.8789 -55.6641 52.2949 -56.9336 54.3457 -56.9336 C 56.3965 -56.9336 57.8125 -55.6641 57.8125 -53.6621 L 57.8125 -52.4902 L 60.1562 -52.4902 C 61.3281 -52.4902 62.0605 -51.709 62.0605 -50.5859 C 62.0605 -49.4629 61.2793 -48.6816 60.1562 -48.6816 L 57.8613 -48.6816 L 57.8613 -24.0234 C 57.8613 -21.8262 56.543 -20.5078 54.4434 -20.5078 C 52.6367 -20.5078 51.2695 -21.6797 51.123 -23.4375 L 51.123 -24.3164 C 49.4629 -22.168 46.7285 -20.9473 43.5547 -20.9473 C 37.0605 -20.9473 32.0312 -25.9277 32.0312 -33.5938 Z M 39.2578 -33.5449 C 39.2578 -29.6387 41.6016 -26.9043 45.1172 -26.9043 C 48.584 -26.9043 50.9766 -29.7363 50.9766 -33.5449 C 50.9766 -37.4512 48.584 -40.2344 45.1172 -40.2344 C 41.6016 -40.2344 39.2578 -37.5488 39.2578 -33.5449 Z M 34.1797 -16.5527 C 34.1797 -17.6758 34.9609 -18.5059 36.084 -18.5059 L 57.0801 -18.5059 C 58.252 -18.5059 59.0332 -17.7246 59.0332 -16.5527 C 59.0332 -15.4785 58.2031 -14.6484 57.0801 -14.6484 L 36.084 -14.6484 C 35.0098 -14.6484 34.1797 -15.4785 34.1797 -16.5527 Z"/>
  </g>
  <g id="Medium-S" transform="matrix(1 0 0 1 1699.83 696)">
   <path d="M 46.7285 4.63867 C 68.5547 4.63867 86.6211 -13.4277 86.6211 -35.2539 C 86.6211 -57.0801 68.5059 -75.1465 46.6797 -75.1465 C 24.8535 -75.1465 6.83594 -57.0801 6.83594 -35.2539 C 6.83594 -13.4277 24.9023 4.63867 46.7285 4.63867 Z M 31.8359 -33.6914 C 31.8359 -41.2598 36.7676 -46.3379 43.3594 -46.3379 C 46.5332 -46.3379 49.1699 -45.2148 50.8789 -43.3105 L 50.8789 -48.9746 L 44.043 -48.9746 C 42.9199 -48.9746 42.0898 -49.8047 42.0898 -50.9277 C 42.0898 -52.0996 42.8711 -52.9297 44.043 -52.9297 L 50.8789 -52.9297 L 50.8789 -54.3457 C 50.8789 -56.25 52.1484 -57.4219 54.0527 -57.4219 C 55.957 -57.4219 57.2266 -56.25 57.2266 -54.3457 L 57.2266 -52.9297 L 59.6191 -52.9297 C 60.791 -52.9297 61.5723 -52.0996 61.5723 -50.9277 C 61.5723 -49.8047 60.7422 -48.9746 59.6191 -48.9746 L 57.2754 -48.9746 L 57.2754 -23.7305 C 57.2754 -21.7285 56.0547 -20.5078 54.1992 -20.5078 C 52.4902 -20.5078 51.2207 -21.6309 51.123 -23.3887 L 51.123 -24.3652 C 49.4141 -22.2168 46.6309 -20.9961 43.4082 -20.9961 C 36.8164 -20.9961 31.8359 -26.123 31.8359 -33.6914 Z M 38.3789 -33.6426 C 38.3789 -29.4434 40.918 -26.5625 44.7266 -26.5625 C 48.4375 -26.5625 51.0254 -29.541 51.0254 -33.6426 C 51.0254 -37.793 48.4375 -40.7227 44.7266 -40.7227 C 40.918 -40.7227 38.3789 -37.8906 38.3789 -33.6426 Z M 33.9844 -16.4551 C 33.9844 -17.627 34.8145 -18.5059 35.9863 -18.5059 L 56.4453 -18.5059 C 57.6172 -18.5059 58.4961 -17.627 58.4961 -16.4551 C 58.4961 -15.332 57.5684 -14.502 56.4453 -14.502 L 35.9863 -14.502 C 34.8633 -14.502 33.9844 -15.332 33.9844 -16.4551 Z"/>
  </g>
  <g id="Regular-S" transform="matrix(1 0 0 1 1403.58 696)">
   <path d="M 46.2402 4.15039 C 67.7734 4.15039 85.6934 -13.7207 85.6934 -35.2539 C 85.6934 -56.7871 67.7246 -74.6582 46.1914 -74.6582 C 24.707 -74.6582 6.83594 -56.7871 6.83594 -35.2539 C 6.83594 -13.7207 24.7559 4.15039 46.2402 4.15039 Z M 31.4941 -33.7891 C 31.4941 -41.2598 36.377 -46.4844 43.1641 -46.4844 C 46.3867 -46.4844 49.1699 -45.3125 50.8789 -43.3105 L 50.8789 -49.3164 L 43.7012 -49.3164 C 42.5293 -49.3164 41.6504 -50.1953 41.6504 -51.416 C 41.6504 -52.5879 42.4805 -53.4668 43.7012 -53.4668 L 50.8789 -53.4668 L 50.8789 -55.1758 C 50.8789 -56.9336 52.002 -58.0078 53.6621 -58.0078 C 55.3223 -58.0078 56.4453 -56.9336 56.4453 -55.1758 L 56.4453 -53.4668 L 58.9355 -53.4668 C 60.1074 -53.4668 60.9863 -52.5879 60.9863 -51.416 C 60.9863 -50.1953 60.0586 -49.3164 58.9355 -49.3164 L 56.4453 -49.3164 L 56.4453 -23.291 C 56.4453 -21.6309 55.3711 -20.5566 53.8086 -20.5566 C 52.2461 -20.5566 51.123 -21.6309 51.123 -23.291 L 51.123 -24.4141 C 49.2676 -22.2656 46.4355 -21.0938 43.2129 -21.0938 C 36.4258 -21.0938 31.4941 -26.3672 31.4941 -33.7891 Z M 37.2559 -33.7402 C 37.2559 -29.1992 40.0391 -26.123 44.1895 -26.123 C 48.2422 -26.123 51.0742 -29.3457 51.0742 -33.7402 C 51.0742 -38.2324 48.2422 -41.3574 44.1895 -41.3574 C 40.0391 -41.3574 37.2559 -38.3789 37.2559 -33.7402 Z M 33.7402 -16.3574 C 33.7402 -17.5293 34.6191 -18.457 35.8398 -18.457 L 55.5664 -18.457 C 56.8359 -18.457 57.7148 -17.5781 57.7148 -16.3574 C 57.7148 -15.1367 56.7871 -14.2578 55.5664 -14.2578 L 35.8398 -14.2578 C 34.668 -14.2578 33.7402 -15.1367 33.7402 -16.3574 Z"/>
  </g>
  <g id="Light-S" transform="matrix(1 0 0 1 1107.6 696)">
   <path d="M 45.5078 3.41797 C 66.6992 3.41797 84.2285 -14.0625 84.2285 -35.2539 C 84.2285 -56.4453 66.6504 -73.9258 45.5078 -73.9258 C 24.3164 -73.9258 6.83594 -56.4453 6.83594 -35.2539 C 6.83594 -14.0625 24.3652 3.41797 45.5078 3.41797 Z M 31.8359 -33.8379 C 31.8359 -40.9668 36.5234 -45.8008 42.7734 -45.8008 C 45.9473 -45.8008 48.7305 -44.4824 50.4395 -42.2363 L 50.4395 -48.7793 L 43.2617 -48.7793 C 42.2852 -48.7793 41.5527 -49.4629 41.5527 -50.4883 C 41.5527 -51.4648 42.2363 -52.1973 43.2617 -52.1973 L 50.4395 -52.1973 L 50.4395 -54.1992 C 50.4395 -55.6152 51.3184 -56.4453 52.6367 -56.4453 C 53.9551 -56.4453 54.8828 -55.6152 54.8828 -54.1992 L 54.8828 -52.1973 L 57.4707 -52.1973 C 58.4473 -52.1973 59.1797 -51.4648 59.1797 -50.4883 C 59.1797 -49.4629 58.4473 -48.7793 57.4707 -48.7793 L 54.8828 -48.7793 L 54.8828 -23.7305 C 54.8828 -22.4121 54.0039 -21.5332 52.7832 -21.5332 C 51.5137 -21.5332 50.6348 -22.4121 50.6348 -23.7305 L 50.6348 -25.5859 C 48.8281 -23.2422 45.9961 -21.9238 42.7734 -21.9238 C 36.5723 -21.9238 31.8359 -26.8066 31.8359 -33.8379 Z M 36.4258 -33.8379 C 36.4258 -29.1016 39.3066 -25.9766 43.457 -25.9766 C 47.5098 -25.9766 50.4883 -29.3457 50.4883 -33.8379 C 50.4883 -38.3789 47.5098 -41.6504 43.457 -41.6504 C 39.3066 -41.6504 36.4258 -38.5742 36.4258 -33.8379 Z M 33.7402 -17.627 C 33.7402 -18.6035 34.4727 -19.3848 35.498 -19.3848 L 54.2969 -19.3848 C 55.3223 -19.3848 56.0547 -18.6523 56.0547 -17.627 C 56.0547 -16.6016 55.3223 -15.8691 54.2969 -15.8691 L 35.498 -15.8691 C 34.5215 -15.8691 33.7402 -16.6016 33.7402 -17.627 Z"/>
  </g>
  <g id="Thin-S" transform="matrix(1 0 0 1 811.867 696)">
   <path d="M 44.5801 2.49023 C 65.2832 2.49023 82.2754 -14.5508 82.2754 -35.2539 C 82.2754 -55.957 65.2344 -72.998 44.5312 -72.998 C 23.8281 -72.998 6.83594 -55.957 6.83594 -35.2539 C 6.83594 -14.5508 23.877 2.49023 44.5801 2.49023 Z M 32.3242 -33.9355 C 32.3242 -40.5273 36.7188 -44.873 42.1875 -44.873 C 45.4102 -44.873 48.1934 -43.3594 49.8535 -40.8203 L 49.8535 -48.0469 L 42.7246 -48.0469 C 41.9434 -48.0469 41.4551 -48.5352 41.4551 -49.3164 C 41.4551 -50 41.9434 -50.5371 42.7246 -50.5371 L 49.8535 -50.5371 L 49.8535 -52.9297 C 49.8535 -53.8574 50.3906 -54.3945 51.3184 -54.3945 C 52.1484 -54.3945 52.7344 -53.8574 52.7344 -52.9297 L 52.7344 -50.5371 L 55.5176 -50.5371 C 56.2988 -50.5371 56.7871 -50 56.7871 -49.3164 C 56.7871 -48.5352 56.2988 -48.0469 55.5176 -48.0469 L 52.7344 -48.0469 L 52.7344 -24.3164 C 52.7344 -23.4375 52.1973 -22.9004 51.3672 -22.9004 C 50.4883 -22.9004 49.9512 -23.4375 49.9512 -24.3164 L 49.9512 -27.0996 C 48.291 -24.5117 45.459 -22.998 42.2363 -22.998 C 36.7188 -22.998 32.3242 -27.3438 32.3242 -33.9355 Z M 35.3027 -33.9355 C 35.3027 -29.0039 38.4277 -25.7812 42.4805 -25.7812 C 46.6309 -25.7812 49.707 -29.2969 49.707 -33.9355 C 49.707 -38.5254 46.6309 -42.0898 42.4805 -42.0898 C 38.4277 -42.0898 35.3027 -38.8184 35.3027 -33.9355 Z M 33.7402 -19.2871 C 33.7402 -20.0195 34.2773 -20.5566 35.0098 -20.5566 L 52.6367 -20.5566 C 53.3691 -20.5566 53.9062 -20.0684 53.9062 -19.2871 C 53.9062 -18.5547 53.3691 -18.0176 52.6367 -18.0176 L 35.0098 -18.0176 C 34.2773 -18.0176 33.7402 -18.5547 33.7402 -19.2871 Z"/>
  </g>
  <g id="Ultralight-S" transform="matrix(1 0 0 1 515.644 696)">
   <path d="M 44.043 1.95312 C 64.502 1.95312 81.2988 -14.7949 81.2988 -35.2539 C 81.2988 -55.7129 64.502 -72.4609 44.043 -72.4609 C 23.584 -72.4609 6.83594 -55.7129 6.83594 -35.2539 C 6.83594 -14.7949 23.584 1.95312 44.043 1.95312 Z M 32.5684 -33.9844 C 32.5684 -40.332 36.8164 -44.3848 41.8945 -44.3848 C 45.0684 -44.3848 47.9004 -42.8223 49.5117 -40.0879 L 49.5117 -47.6562 L 42.4316 -47.6562 C 41.7969 -47.6562 41.4062 -47.998 41.4062 -48.6816 C 41.4062 -49.2676 41.7969 -49.6582 42.4316 -49.6582 L 49.5117 -49.6582 L 49.5117 -52.2461 C 49.5117 -52.9297 49.9023 -53.3203 50.5859 -53.3203 C 51.2207 -53.3203 51.6602 -52.9297 51.6602 -52.2461 L 51.6602 -49.6582 L 54.541 -49.6582 C 55.1758 -49.6582 55.5664 -49.2676 55.5664 -48.6816 C 55.5664 -47.998 55.1758 -47.6562 54.541 -47.6562 L 51.6602 -47.6562 L 51.6602 -24.6582 C 51.6602 -23.9746 51.2695 -23.584 50.6348 -23.584 C 49.9512 -23.584 49.6094 -23.9746 49.6094 -24.6582 L 49.6094 -27.8809 C 47.9492 -25.1465 45.1172 -23.5352 41.8945 -23.5352 C 36.8164 -23.5352 32.5684 -27.6367 32.5684 -33.9844 Z M 34.7168 -33.9844 C 34.7168 -28.9551 37.9395 -25.6836 41.9434 -25.6836 C 46.1426 -25.6836 49.3164 -29.2969 49.3164 -33.9844 C 49.3164 -38.6719 46.1426 -42.2852 41.9434 -42.2852 C 37.9395 -42.2852 34.7168 -38.9648 34.7168 -33.9844 Z M 33.7402 -20.166 C 33.7402 -20.8008 34.1797 -21.1914 34.7656 -21.1914 L 51.7578 -21.1914 C 52.3926 -21.1914 52.7832 -20.8008 52.7832 -20.166 C 52.7832 -19.5312 52.3926 -19.1406 51.7578 -19.1406 L 34.7656 -19.1406 C 34.1797 -19.1406 33.7402 -19.5312 33.7402 -20.166 Z"/>
  </g>
 </g>
</svg>
