<?xml version="1.0" encoding="UTF-8"?>
<!--Generator: Apple Native CoreSVG 148-->
<!DOCTYPE svg
PUBLIC "-//W3C//DTD SVG 1.1//EN"
       "http://www.w3.org/Graphics/SVG/1.1/DTD/svg11.dtd">
<svg version="1.1" xmlns="http://www.w3.org/2000/svg" xmlns:xlink="http://www.w3.org/1999/xlink" width="3300" height="2200">
 <!--glyph: "uni1005A8.medium", point size: 100.000000, font version: "Version 16.0d11e1", template writer version: "8"-->
 <g id="Notes">
  <rect height="2200" id="artboard" style="fill:white;opacity:1" width="3300" x="0" y="0"/>
  <line id="" style="fill:none;stroke:black;opacity:1;stroke-width:0.5;" x1="263" x2="3036" y1="292" y2="292"/>
  <text style="stroke:none;fill:black;font-family:-apple-system,&quot;SF Pro Display&quot;,&quot;SF Pro Text&quot;,Helvetica,sans-serif;font-weight:bold;" transform="matrix(1 0 0 1 263 322)">Weight/Scale Variations</text>
  <text style="stroke:none;fill:black;font-family:-apple-system,&quot;SF Pro Display&quot;,&quot;SF Pro Text&quot;,Helvetica,sans-serif;text-anchor:middle;" transform="matrix(1 0 0 1 559.711 322)">Ultralight</text>
  <text style="stroke:none;fill:black;font-family:-apple-system,&quot;SF Pro Display&quot;,&quot;SF Pro Text&quot;,Helvetica,sans-serif;text-anchor:middle;" transform="matrix(1 0 0 1 856.422 322)">Thin</text>
  <text style="stroke:none;fill:black;font-family:-apple-system,&quot;SF Pro Display&quot;,&quot;SF Pro Text&quot;,Helvetica,sans-serif;text-anchor:middle;" transform="matrix(1 0 0 1 1153.13 322)">Light</text>
  <text style="stroke:none;fill:black;font-family:-apple-system,&quot;SF Pro Display&quot;,&quot;SF Pro Text&quot;,Helvetica,sans-serif;text-anchor:middle;" transform="matrix(1 0 0 1 1449.84 322)">Regular</text>
  <text style="stroke:none;fill:black;font-family:-apple-system,&quot;SF Pro Display&quot;,&quot;SF Pro Text&quot;,Helvetica,sans-serif;text-anchor:middle;" transform="matrix(1 0 0 1 1746.56 322)">Medium</text>
  <text style="stroke:none;fill:black;font-family:-apple-system,&quot;SF Pro Display&quot;,&quot;SF Pro Text&quot;,Helvetica,sans-serif;text-anchor:middle;" transform="matrix(1 0 0 1 2043.27 322)">Semibold</text>
  <text style="stroke:none;fill:black;font-family:-apple-system,&quot;SF Pro Display&quot;,&quot;SF Pro Text&quot;,Helvetica,sans-serif;text-anchor:middle;" transform="matrix(1 0 0 1 2339.98 322)">Bold</text>
  <text style="stroke:none;fill:black;font-family:-apple-system,&quot;SF Pro Display&quot;,&quot;SF Pro Text&quot;,Helvetica,sans-serif;text-anchor:middle;" transform="matrix(1 0 0 1 2636.69 322)">Heavy</text>
  <text style="stroke:none;fill:black;font-family:-apple-system,&quot;SF Pro Display&quot;,&quot;SF Pro Text&quot;,Helvetica,sans-serif;text-anchor:middle;" transform="matrix(1 0 0 1 2933.4 322)">Black</text>
  <line id="" style="fill:none;stroke:black;opacity:1;stroke-width:0.5;" x1="263" x2="3036" y1="1903" y2="1903"/>
  <g id="" transform="matrix(1 0 0 1 263 1933)">
   <path d="M 9.24805 0.830078 C 13.5547 0.830078 17.1387 -2.74414 17.1387 -7.05078 C 17.1387 -11.3574 13.5449 -14.9316 9.23828 -14.9316 C 4.94141 -14.9316 1.36719 -11.3574 1.36719 -7.05078 C 1.36719 -2.74414 4.95117 0.830078 9.24805 0.830078 Z M 9.24805 -0.654297 C 5.70312 -0.654297 2.87109 -3.49609 2.87109 -7.05078 C 2.87109 -10.6055 5.69336 -13.4473 9.23828 -13.4473 C 12.793 -13.4473 15.6348 -10.6055 15.6445 -7.05078 C 15.6543 -3.49609 12.8027 -0.654297 9.24805 -0.654297 Z M 9.22852 -3.62305 C 9.69727 -3.62305 9.9707 -3.93555 9.9707 -4.45312 L 9.9707 -6.31836 L 12.002 -6.31836 C 12.5 -6.31836 12.832 -6.57227 12.832 -7.04102 C 12.832 -7.51953 12.5195 -7.7832 12.002 -7.7832 L 9.9707 -7.7832 L 9.9707 -9.81445 C 9.9707 -10.332 9.69727 -10.6543 9.22852 -10.6543 C 8.75977 -10.6543 8.50586 -10.3125 8.50586 -9.81445 L 8.50586 -7.7832 L 6.49414 -7.7832 C 5.97656 -7.7832 5.64453 -7.51953 5.64453 -7.04102 C 5.64453 -6.57227 5.99609 -6.31836 6.49414 -6.31836 L 8.50586 -6.31836 L 8.50586 -4.45312 C 8.50586 -3.95508 8.75977 -3.62305 9.22852 -3.62305 Z"/>
  </g>
  <g id="" transform="matrix(1 0 0 1 281.506 1933)">
   <path d="M 11.709 2.91016 C 17.1582 2.91016 21.6699 -1.61133 21.6699 -7.05078 C 21.6699 -12.5 17.1484 -17.0117 11.6992 -17.0117 C 6.25977 -17.0117 1.74805 -12.5 1.74805 -7.05078 C 1.74805 -1.61133 6.26953 2.91016 11.709 2.91016 Z M 11.709 1.25 C 7.09961 1.25 3.41797 -2.44141 3.41797 -7.05078 C 3.41797 -11.6602 7.08984 -15.3516 11.6992 -15.3516 C 16.3086 -15.3516 20 -11.6602 20.0098 -7.05078 C 20.0195 -2.44141 16.3184 1.25 11.709 1.25 Z M 11.6797 -2.66602 C 12.207 -2.66602 12.5098 -3.01758 12.5098 -3.59375 L 12.5098 -6.23047 L 15.3223 -6.23047 C 15.8691 -6.23047 16.25 -6.51367 16.25 -7.03125 C 16.25 -7.55859 15.8887 -7.86133 15.3223 -7.86133 L 12.5098 -7.86133 L 12.5098 -10.6836 C 12.5098 -11.25 12.207 -11.6113 11.6797 -11.6113 C 11.1621 -11.6113 10.8789 -11.2305 10.8789 -10.6836 L 10.8789 -7.86133 L 8.07617 -7.86133 C 7.50977 -7.86133 7.13867 -7.55859 7.13867 -7.03125 C 7.13867 -6.51367 7.5293 -6.23047 8.07617 -6.23047 L 10.8789 -6.23047 L 10.8789 -3.59375 C 10.8789 -3.03711 11.1621 -2.66602 11.6797 -2.66602 Z"/>
  </g>
  <g id="" transform="matrix(1 0 0 1 304.924 1933)">
   <path d="M 14.9707 5.66406 C 21.9336 5.66406 27.6953 -0.0976562 27.6953 -7.05078 C 27.6953 -14.0137 21.9238 -19.7754 14.9609 -19.7754 C 8.00781 -19.7754 2.25586 -14.0137 2.25586 -7.05078 C 2.25586 -0.0976562 8.01758 5.66406 14.9707 5.66406 Z M 14.9707 3.84766 C 8.93555 3.84766 4.08203 -1.01562 4.08203 -7.05078 C 4.08203 -13.0957 8.92578 -17.9492 14.9609 -17.9492 C 21.0059 -17.9492 25.8594 -13.0957 25.8691 -7.05078 C 25.8789 -1.01562 21.0156 3.84766 14.9707 3.84766 Z M 14.9414 -1.38672 C 15.5176 -1.38672 15.8594 -1.77734 15.8594 -2.38281 L 15.8594 -6.13281 L 19.7754 -6.13281 C 20.3711 -6.13281 20.7812 -6.46484 20.7812 -7.02148 C 20.7812 -7.59766 20.3906 -7.93945 19.7754 -7.93945 L 15.8594 -7.93945 L 15.8594 -11.8652 C 15.8594 -12.4805 15.5176 -12.8711 14.9414 -12.8711 C 14.375 -12.8711 14.0527 -12.4609 14.0527 -11.8652 L 14.0527 -7.93945 L 10.1465 -7.93945 C 9.53125 -7.93945 9.13086 -7.59766 9.13086 -7.02148 C 9.13086 -6.46484 9.55078 -6.13281 10.1465 -6.13281 L 14.0527 -6.13281 L 14.0527 -2.38281 C 14.0527 -1.79688 14.375 -1.38672 14.9414 -1.38672 Z"/>
  </g>
  <text style="stroke:none;fill:black;font-family:-apple-system,&quot;SF Pro Display&quot;,&quot;SF Pro Text&quot;,Helvetica,sans-serif;font-weight:bold;" transform="matrix(1 0 0 1 263 1953)">Design Variations</text>
  <text style="stroke:none;fill:black;font-family:-apple-system,&quot;SF Pro Display&quot;,&quot;SF Pro Text&quot;,Helvetica,sans-serif;" transform="matrix(1 0 0 1 263 1971)">Symbols are supported in up to nine weights and three scales.</text>
  <text style="stroke:none;fill:black;font-family:-apple-system,&quot;SF Pro Display&quot;,&quot;SF Pro Text&quot;,Helvetica,sans-serif;" transform="matrix(1 0 0 1 263 1989)">For optimal layout with text and other symbols, vertically align</text>
  <text style="stroke:none;fill:black;font-family:-apple-system,&quot;SF Pro Display&quot;,&quot;SF Pro Text&quot;,Helvetica,sans-serif;" transform="matrix(1 0 0 1 263 2007)">symbols with the adjacent text.</text>
  <line id="" style="fill:none;stroke:#00AEEF;stroke-width:0.5;opacity:1.0;" x1="776" x2="776" y1="1919" y2="1933"/>
  <g id="" transform="matrix(1 0 0 1 776 1933)">
   <path d="M 3.31055 0.126953 C 3.82812 0.126953 4.08203 -0.0683594 4.26758 -0.605469 L 5.52734 -4.0625 L 11.2891 -4.0625 L 12.5488 -0.605469 C 12.7344 -0.0683594 12.9883 0.126953 13.4961 0.126953 C 14.0137 0.126953 14.3457 -0.185547 14.3457 -0.673828 C 14.3457 -0.839844 14.3164 -0.986328 14.2383 -1.20117 L 9.6582 -13.3887 C 9.43359 -13.9941 9.0332 -14.2871 8.4082 -14.2871 C 7.80273 -14.2871 7.39258 -13.9941 7.17773 -13.3984 L 2.59766 -1.19141 C 2.51953 -0.976562 2.49023 -0.830078 2.49023 -0.664062 C 2.49023 -0.175781 2.80273 0.126953 3.31055 0.126953 Z M 6.00586 -5.53711 L 8.37891 -12.1094 L 8.42773 -12.1094 L 10.8008 -5.53711 Z"/>
  </g>
  <line id="" style="fill:none;stroke:#00AEEF;stroke-width:0.5;opacity:1.0;" x1="792.836" x2="792.836" y1="1919" y2="1933"/>
  <text style="stroke:none;fill:black;font-family:-apple-system,&quot;SF Pro Display&quot;,&quot;SF Pro Text&quot;,Helvetica,sans-serif;font-weight:bold;" transform="matrix(1 0 0 1 776 1953)">Margins</text>
  <text style="stroke:none;fill:black;font-family:-apple-system,&quot;SF Pro Display&quot;,&quot;SF Pro Text&quot;,Helvetica,sans-serif;" transform="matrix(1 0 0 1 776 1971)">Leading and trailing margins on the left and right side of each symbol</text>
  <text style="stroke:none;fill:black;font-family:-apple-system,&quot;SF Pro Display&quot;,&quot;SF Pro Text&quot;,Helvetica,sans-serif;" transform="matrix(1 0 0 1 776 1989)">can be adjusted by modifying the x-location of the margin guidelines.</text>
  <text style="stroke:none;fill:black;font-family:-apple-system,&quot;SF Pro Display&quot;,&quot;SF Pro Text&quot;,Helvetica,sans-serif;" transform="matrix(1 0 0 1 776 2007)">Modifications are automatically applied proportionally to all</text>
  <text style="stroke:none;fill:black;font-family:-apple-system,&quot;SF Pro Display&quot;,&quot;SF Pro Text&quot;,Helvetica,sans-serif;" transform="matrix(1 0 0 1 776 2025)">scales and weights.</text>
  <g id="" transform="matrix(1 0 0 1 1289 1933)">
   <path d="M 2.8418 1.86523 L 4.54102 3.57422 C 5.40039 4.44336 6.38672 4.38477 7.31445 3.35938 L 17.4902 -7.85156 C 17.7539 -7.76367 18.0273 -7.7832 18.3398 -7.8418 L 19.4043 -8.03711 L 20.0684 -7.36328 L 20.0293 -6.80664 C 19.9902 -6.30859 20.1172 -5.92773 20.6055 -5.44922 L 21.3672 -4.70703 C 21.8457 -4.22852 22.4609 -4.19922 22.9297 -4.66797 L 25.8398 -7.58789 C 26.3086 -8.05664 26.2891 -8.65234 25.8105 -9.13086 L 25.0391 -9.89258 C 24.5605 -10.3711 24.1895 -10.5273 23.7109 -10.4883 L 23.1348 -10.4395 L 22.4902 -11.0742 L 22.7344 -12.1973 C 22.8613 -12.7637 22.7051 -13.2031 22.1191 -13.7891 L 19.9219 -15.9766 C 16.582 -19.2969 12.1484 -19.2188 9.25781 -16.3281 C 8.83789 -15.918 8.80859 -15.3418 9.04297 -14.9512 C 9.27734 -14.5898 9.73633 -14.3555 10.3809 -14.5215 C 11.8457 -14.8633 13.3691 -14.9219 14.7949 -13.9844 L 14.209 -12.5293 C 14.0137 -12.0508 13.9844 -11.6504 14.1113 -11.2891 L 3.04688 -0.898438 C 2.06055 0.0195312 1.98242 0.996094 2.8418 1.86523 Z M 10.752 -15.957 C 13.1836 -17.7344 16.4746 -17.4316 18.7012 -15.2051 L 21.1328 -12.793 C 21.3672 -12.5586 21.4062 -12.373 21.3379 -12.0312 L 21.0156 -10.5469 L 22.5195 -9.0625 L 23.5059 -9.12109 C 23.7598 -9.13086 23.8379 -9.11133 24.0332 -8.91602 L 24.6094 -8.33984 L 22.168 -5.89844 L 21.5918 -6.47461 C 21.3965 -6.66992 21.3672 -6.74805 21.377 -7.01172 L 21.4453 -7.98828 L 19.9512 -9.47266 L 18.4277 -9.21875 C 18.1055 -9.15039 17.959 -9.17969 17.7148 -9.41406 L 15.7129 -11.416 C 15.459 -11.6504 15.4297 -11.8164 15.5859 -12.1875 L 16.4648 -14.2773 C 14.9023 -15.7324 12.8711 -16.3574 10.8398 -15.7617 C 10.6836 -15.7227 10.625 -15.8496 10.752 -15.957 Z M 5.27344 2.30469 L 4.10156 1.14258 C 3.63281 0.683594 3.74023 0.341797 4.14062 -0.0195312 L 14.9512 -10.1953 L 16.416 -8.71094 L 6.42578 2.27539 C 6.07422 2.67578 5.74219 2.77344 5.27344 2.30469 Z"/>
  </g>
  <text style="stroke:none;fill:black;font-family:-apple-system,&quot;SF Pro Display&quot;,&quot;SF Pro Text&quot;,Helvetica,sans-serif;font-weight:bold;" transform="matrix(1 0 0 1 1289 1953)">Exporting</text>
  <text style="stroke:none;fill:black;font-family:-apple-system,&quot;SF Pro Display&quot;,&quot;SF Pro Text&quot;,Helvetica,sans-serif;" transform="matrix(1 0 0 1 1289 1971)">Symbols should be outlined when exporting to ensure the</text>
  <text style="stroke:none;fill:black;font-family:-apple-system,&quot;SF Pro Display&quot;,&quot;SF Pro Text&quot;,Helvetica,sans-serif;" transform="matrix(1 0 0 1 1289 1989)">design is preserved when submitting to Xcode.</text>
  <text id="template-version" style="stroke:none;fill:black;font-family:-apple-system,&quot;SF Pro Display&quot;,&quot;SF Pro Text&quot;,Helvetica,sans-serif;text-anchor:end;" transform="matrix(1 0 0 1 3036 1933)">Template v.2.0</text>
  <text style="stroke:none;fill:black;font-family:-apple-system,&quot;SF Pro Display&quot;,&quot;SF Pro Text&quot;,Helvetica,sans-serif;text-anchor:end;" transform="matrix(1 0 0 1 3036 1951)">Requires Xcode 12 or greater</text>
  <text style="stroke:none;fill:black;font-family:-apple-system,&quot;SF Pro Display&quot;,&quot;SF Pro Text&quot;,Helvetica,sans-serif;text-anchor:end;" transform="matrix(1 0 0 1 3036 1969)">Generated from eurosign.circle.fill</text>
  <text style="stroke:none;fill:black;font-family:-apple-system,&quot;SF Pro Display&quot;,&quot;SF Pro Text&quot;,Helvetica,sans-serif;text-anchor:end;" transform="matrix(1 0 0 1 3036 1987)">Typeset at 100 points</text>
  <text style="stroke:none;fill:black;font-family:-apple-system,&quot;SF Pro Display&quot;,&quot;SF Pro Text&quot;,Helvetica,sans-serif;" transform="matrix(1 0 0 1 263 726)">Small</text>
  <text style="stroke:none;fill:black;font-family:-apple-system,&quot;SF Pro Display&quot;,&quot;SF Pro Text&quot;,Helvetica,sans-serif;" transform="matrix(1 0 0 1 263 1156)">Medium</text>
  <text style="stroke:none;fill:black;font-family:-apple-system,&quot;SF Pro Display&quot;,&quot;SF Pro Text&quot;,Helvetica,sans-serif;" transform="matrix(1 0 0 1 263 1586)">Large</text>
 </g>
 <g id="Guides">
  <g id="H-reference" style="fill:#27AAE1;stroke:none;" transform="matrix(1 0 0 1 339 696)">
   <path d="M 0.976562 0 L 3.66211 0 L 12.9883 -24.4629 L 45.7031 -24.4629 L 55.0781 0 L 57.7148 0 L 30.6152 -70.459 L 28.125 -70.459 Z M 29.2969 -67.1387 L 29.3945 -67.1387 L 44.873 -26.709 L 13.8672 -26.709 Z"/>
  </g>
  <line id="Baseline-S" style="fill:none;stroke:#27AAE1;opacity:1;stroke-width:0.5;" x1="263" x2="3036" y1="696" y2="696"/>
  <line id="Capline-S" style="fill:none;stroke:#27AAE1;opacity:1;stroke-width:0.5;" x1="263" x2="3036" y1="625.541" y2="625.541"/>
  <g id="H-reference" style="fill:#27AAE1;stroke:none;" transform="matrix(1 0 0 1 339 1126)">
   <path d="M 0.976562 0 L 3.66211 0 L 12.9883 -24.4629 L 45.7031 -24.4629 L 55.0781 0 L 57.7148 0 L 30.6152 -70.459 L 28.125 -70.459 Z M 29.2969 -67.1387 L 29.3945 -67.1387 L 44.873 -26.709 L 13.8672 -26.709 Z"/>
  </g>
  <line id="Baseline-M" style="fill:none;stroke:#27AAE1;opacity:1;stroke-width:0.5;" x1="263" x2="3036" y1="1126" y2="1126"/>
  <line id="Capline-M" style="fill:none;stroke:#27AAE1;opacity:1;stroke-width:0.5;" x1="263" x2="3036" y1="1055.54" y2="1055.54"/>
  <g id="H-reference" style="fill:#27AAE1;stroke:none;" transform="matrix(1 0 0 1 339 1556)">
   <path d="M 0.976562 0 L 3.66211 0 L 12.9883 -24.4629 L 45.7031 -24.4629 L 55.0781 0 L 57.7148 0 L 30.6152 -70.459 L 28.125 -70.459 Z M 29.2969 -67.1387 L 29.3945 -67.1387 L 44.873 -26.709 L 13.8672 -26.709 Z"/>
  </g>
  <line id="Baseline-L" style="fill:none;stroke:#27AAE1;opacity:1;stroke-width:0.5;" x1="263" x2="3036" y1="1556" y2="1556"/>
  <line id="Capline-L" style="fill:none;stroke:#27AAE1;opacity:1;stroke-width:0.5;" x1="263" x2="3036" y1="1485.54" y2="1485.54"/>
  <line id="left-margin" style="fill:none;stroke:#00AEEF;stroke-width:0.5;opacity:1.0;" x1="1391.3" x2="1391.3" y1="1030.79" y2="1150.12"/>
  <line id="right-margin" style="fill:none;stroke:#00AEEF;stroke-width:0.5;opacity:1.0;" x1="1508.39" x2="1508.39" y1="1030.79" y2="1150.12"/>
 </g>
 <g id="Symbols">
  <g id="Black-L" transform="matrix(1 0 0 1 2854.05 1556)">
   <path d="M 79.3457 32.8613 C 116.748 32.8613 147.412 2.19727 147.412 -35.2051 C 147.412 -72.6074 116.748 -103.271 79.2969 -103.271 C 41.8945 -103.271 11.2793 -72.6074 11.2793 -35.2051 C 11.2793 2.19727 41.9434 32.8613 79.3457 32.8613 Z M 87.8418 -5.17578 C 71.1914 -5.17578 59.8145 -13.1348 56.543 -26.6602 L 51.6602 -26.6602 C 49.8047 -26.6602 48.7305 -27.832 48.7305 -29.541 C 48.7305 -31.25 49.8047 -32.373 51.6602 -32.373 L 55.5664 -32.373 C 55.5664 -33.1055 55.5664 -34.1797 55.5664 -35.1562 C 55.5664 -36.2305 55.5664 -37.0605 55.5664 -37.6465 L 51.6602 -37.6465 C 49.8047 -37.6465 48.7305 -38.8184 48.7305 -40.4785 C 48.7305 -42.2363 49.8047 -43.3594 51.6602 -43.3594 L 56.2988 -43.3594 C 59.4238 -57.2266 70.8984 -65.3809 87.9883 -65.3809 C 92.1387 -65.3809 95.2148 -64.5996 96.875 -63.2324 C 98.6816 -61.9629 99.3164 -60.1074 99.3164 -58.2031 C 99.3164 -55.7617 98.3398 -54.1504 96.7773 -53.3691 C 95.0195 -52.1973 91.2598 -52.2461 88.2324 -52.0996 C 81.0059 -51.8066 74.7559 -48.9258 72.8027 -43.3594 L 91.5039 -43.3594 C 93.457 -43.3594 94.4824 -42.2363 94.4824 -40.4785 C 94.4824 -38.8184 93.457 -37.6465 91.5039 -37.6465 L 71.2891 -37.6465 C 71.1426 -37.1094 71.1426 -36.2305 71.1426 -35.2539 C 71.1426 -34.082 71.2402 -32.8125 71.3379 -32.373 L 91.5039 -32.373 C 93.457 -32.373 94.4824 -31.25 94.4824 -29.541 C 94.4824 -27.832 93.457 -26.6602 91.5039 -26.6602 L 72.998 -26.6602 C 75.0488 -21.3379 81.0059 -18.5547 87.9883 -18.3105 C 91.3086 -18.2129 94.8242 -18.1152 96.582 -17.0898 C 98.4375 -16.1621 99.5117 -14.6484 99.5117 -12.2559 C 99.5117 -10.2539 98.6816 -8.49609 96.9238 -7.27539 C 95.1172 -5.9082 92.334 -5.17578 87.8418 -5.17578 Z"/>
  </g>
  <g id="Heavy-L" transform="matrix(1 0 0 1 2558.39 1556)">
   <path d="M 78.2715 31.7871 C 115.088 31.7871 145.312 1.5625 145.312 -35.2051 C 145.312 -72.0215 115.039 -102.246 78.2715 -102.246 C 41.4551 -102.246 11.2793 -72.0215 11.2793 -35.2051 C 11.2793 1.5625 41.5039 31.7871 78.2715 31.7871 Z M 86.8164 -5.07812 C 70.9473 -5.07812 59.5215 -12.8906 56.2012 -26.6602 L 50.7324 -26.6602 C 48.9258 -26.6602 47.8027 -27.832 47.8027 -29.541 C 47.8027 -31.25 48.9258 -32.373 50.7324 -32.373 L 55.3223 -32.373 C 55.3223 -33.1055 55.2734 -34.1797 55.2734 -35.1562 C 55.2734 -36.2305 55.2734 -37.0605 55.3223 -37.7441 L 50.7324 -37.7441 C 48.9258 -37.7441 47.8027 -38.916 47.8027 -40.5762 C 47.8027 -42.334 48.9258 -43.457 50.7324 -43.457 L 56.0547 -43.457 C 59.2285 -57.5195 70.752 -65.4297 86.9141 -65.4297 C 90.7715 -65.4297 93.6035 -64.7949 95.166 -63.623 C 97.0215 -62.4512 97.7051 -60.791 97.7051 -58.9844 C 97.7051 -56.6406 96.6309 -55.1758 94.9219 -54.541 C 93.3105 -53.6621 90.0391 -53.7598 87.1094 -53.6621 C 79.2969 -53.4668 72.6562 -50.0488 70.5078 -43.457 L 89.502 -43.457 C 91.3574 -43.457 92.4805 -42.334 92.4805 -40.5762 C 92.4805 -38.916 91.3574 -37.7441 89.502 -37.7441 L 69.043 -37.7441 C 68.8965 -37.1094 68.8965 -36.2305 68.8965 -35.2539 C 68.8965 -34.1309 68.9941 -32.9102 69.0918 -32.373 L 89.502 -32.373 C 91.3574 -32.373 92.4805 -31.25 92.4805 -29.541 C 92.4805 -27.832 91.3574 -26.6602 89.502 -26.6602 L 70.6543 -26.6602 C 72.8516 -20.2637 79.2969 -16.9434 86.9141 -16.748 C 90.0391 -16.6504 93.1641 -16.6992 94.8242 -15.918 C 96.6797 -15.1855 97.8516 -13.7695 97.8516 -11.4746 C 97.8516 -9.57031 97.0215 -8.00781 95.2637 -6.88477 C 93.5547 -5.76172 90.8691 -5.07812 86.8164 -5.07812 Z"/>
  </g>
  <g id="Bold-L" transform="matrix(1 0 0 1 2262.88 1556)">
   <path d="M 77.0996 30.5664 C 113.232 30.5664 142.92 0.878906 142.92 -35.2539 C 142.92 -71.3379 113.184 -101.074 77.0508 -101.074 C 40.9668 -101.074 11.2793 -71.3379 11.2793 -35.2539 C 11.2793 0.878906 41.0156 30.5664 77.0996 30.5664 Z M 85.6445 -4.98047 C 70.7031 -4.98047 59.1309 -12.5977 55.8594 -26.6602 L 49.6582 -26.6602 C 47.9004 -26.6602 46.7773 -27.8809 46.7773 -29.541 C 46.7773 -31.25 47.9004 -32.373 49.6582 -32.373 L 55.0293 -32.373 C 54.9805 -33.1055 54.9316 -34.1797 54.9316 -35.2051 C 54.9316 -36.2793 54.9316 -37.1094 54.9805 -37.8418 L 49.6582 -37.8418 C 47.9004 -37.8418 46.7773 -39.0625 46.7773 -40.7227 C 46.7773 -42.4316 47.9004 -43.6035 49.6582 -43.6035 L 55.7617 -43.6035 C 58.9355 -57.8125 70.5566 -65.4785 85.7422 -65.4785 C 89.209 -65.4785 91.748 -64.9902 93.3105 -64.0625 C 95.2637 -63.0371 95.8984 -61.5234 95.8984 -59.8145 C 95.8984 -57.666 94.7266 -56.25 92.9199 -55.8594 C 91.4062 -55.2734 88.623 -55.4688 85.8398 -55.4199 C 77.4414 -55.2734 70.2637 -51.3184 67.9199 -43.6035 L 87.2559 -43.6035 C 89.0625 -43.6035 90.1855 -42.4316 90.1855 -40.7227 C 90.1855 -39.0625 89.0625 -37.8418 87.2559 -37.8418 L 66.5527 -37.8418 C 66.4551 -37.1582 66.4551 -36.1816 66.4551 -35.2539 C 66.4551 -34.1797 66.5039 -33.0566 66.6016 -32.373 L 87.2559 -32.373 C 89.0625 -32.373 90.1855 -31.25 90.1855 -29.541 C 90.1855 -27.8809 89.0625 -26.6602 87.2559 -26.6602 L 67.9688 -26.6602 C 70.4102 -18.9941 77.4414 -15.1367 85.6934 -15.0391 C 88.623 -14.9414 91.2598 -15.0879 92.8223 -14.5996 C 94.7266 -14.1113 95.9961 -12.793 95.9961 -10.5957 C 95.9961 -8.83789 95.166 -7.42188 93.4082 -6.49414 C 91.748 -5.51758 89.2578 -4.98047 85.6445 -4.98047 Z"/>
  </g>
  <g id="Semibold-L" transform="matrix(1 0 0 1 1966.97 1556)">
   <path d="M 76.2695 29.7363 C 111.914 29.7363 141.309 0.390625 141.309 -35.2539 C 141.309 -70.8984 111.865 -100.244 76.2695 -100.244 C 40.625 -100.244 11.2793 -70.8984 11.2793 -35.2539 C 11.2793 0.390625 40.6738 29.7363 76.2695 29.7363 Z M 84.8633 -4.93164 C 70.5078 -4.93164 58.8867 -12.4023 55.6152 -26.6113 L 48.9258 -26.6113 C 47.2168 -26.6113 46.0938 -27.8809 46.0938 -29.541 C 46.0938 -31.25 47.2168 -32.373 48.9258 -32.373 L 54.7852 -32.373 C 54.7852 -33.1055 54.7363 -34.1797 54.7363 -35.2539 C 54.7363 -36.2793 54.7363 -37.1094 54.7852 -37.8906 L 48.9258 -37.8906 C 47.2168 -37.8906 46.0938 -39.1602 46.0938 -40.7715 C 46.0938 -42.5293 47.2168 -43.6523 48.9258 -43.6523 L 55.5664 -43.6523 C 58.7891 -58.0078 70.4102 -65.5273 84.9121 -65.5273 C 88.1348 -65.5273 90.5273 -65.1367 92.041 -64.3555 C 93.9941 -63.4277 94.6289 -62.0605 94.6289 -60.4492 C 94.6289 -58.3496 93.4082 -57.0312 91.5039 -56.7383 C 90.0879 -56.3965 87.6465 -56.6406 84.9609 -56.5918 C 76.123 -56.4941 68.6035 -52.1973 66.1133 -43.6523 L 85.7422 -43.6523 C 87.4512 -43.6523 88.623 -42.5293 88.623 -40.7715 C 88.623 -39.1602 87.4512 -37.8906 85.7422 -37.8906 L 64.8438 -37.8906 C 64.7461 -37.1582 64.7461 -36.1816 64.7461 -35.2051 C 64.7461 -34.2285 64.7949 -33.1055 64.8926 -32.373 L 85.7422 -32.373 C 87.4512 -32.373 88.623 -31.25 88.623 -29.541 C 88.623 -27.8809 87.4512 -26.6113 85.7422 -26.6113 L 66.1621 -26.6113 C 68.7012 -18.1641 76.123 -13.916 84.8633 -13.8184 C 87.6465 -13.7695 89.9902 -14.0137 91.4551 -13.6719 C 93.4082 -13.3789 94.6777 -12.1094 94.6777 -9.96094 C 94.6777 -8.30078 93.8477 -7.03125 92.0898 -6.20117 C 90.5273 -5.37109 88.1348 -4.93164 84.8633 -4.93164 Z"/>
  </g>
  <g id="Medium-L" transform="matrix(1 0 0 1 1670.87 1556)">
   <path d="M 75.6836 29.1504 C 110.938 29.1504 140.088 0 140.088 -35.2539 C 140.088 -70.5078 110.889 -99.6582 75.6348 -99.6582 C 40.3809 -99.6582 11.2793 -70.5078 11.2793 -35.2539 C 11.2793 0 40.3809 29.1504 75.6836 29.1504 Z M 84.2773 -4.88281 C 70.3613 -4.88281 58.7402 -12.2559 55.4688 -26.6113 L 48.3887 -26.6113 C 46.7285 -26.6113 45.5566 -27.8809 45.5566 -29.541 C 45.5566 -31.2012 46.7285 -32.4219 48.3887 -32.4219 L 54.6387 -32.4219 C 54.5898 -33.1055 54.541 -34.1797 54.541 -35.2539 C 54.541 -36.3281 54.541 -37.1582 54.5898 -37.9883 L 48.3887 -37.9883 C 46.7285 -37.9883 45.5566 -39.209 45.5566 -40.8691 C 45.5566 -42.5781 46.7285 -43.75 48.3887 -43.75 L 55.4199 -43.75 C 58.6426 -58.1543 70.3125 -65.5762 84.2773 -65.5762 C 87.3047 -65.5762 89.5508 -65.2344 91.0645 -64.5508 C 93.0664 -63.7207 93.7012 -62.4512 93.7012 -60.8887 C 93.7012 -58.8379 92.3828 -57.5684 90.4297 -57.4219 C 89.0625 -57.2266 86.9141 -57.5195 84.2773 -57.5195 C 75.1465 -57.4219 67.3828 -52.8809 64.7949 -43.75 L 84.5703 -43.75 C 86.2305 -43.75 87.4023 -42.5781 87.4023 -40.8691 C 87.4023 -39.209 86.2305 -37.9883 84.5703 -37.9883 L 63.5254 -37.9883 C 63.4277 -37.1582 63.4277 -36.1816 63.4277 -35.2051 C 63.4277 -34.2285 63.4766 -33.2031 63.5742 -32.4219 L 84.5703 -32.4219 C 86.2305 -32.4219 87.4023 -31.2012 87.4023 -29.541 C 87.4023 -27.8809 86.2305 -26.6113 84.5703 -26.6113 L 64.7461 -26.6113 C 67.3828 -17.5293 75.0977 -12.9395 84.2285 -12.9395 C 86.9141 -12.8906 89.0137 -13.1836 90.4297 -12.9883 C 92.3828 -12.793 93.7012 -11.5723 93.7012 -9.52148 C 93.7012 -7.91016 92.8711 -6.73828 91.1133 -5.95703 C 89.5508 -5.27344 87.3047 -4.88281 84.2773 -4.88281 Z"/>
  </g>
  <g id="Regular-L" transform="matrix(1 0 0 1 1374.97 1556)">
   <path d="M 74.8535 28.3203 C 109.668 28.3203 138.477 -0.488281 138.477 -35.2539 C 138.477 -70.0684 109.619 -98.877 74.8047 -98.877 C 40.0391 -98.877 11.2793 -70.0684 11.2793 -35.2539 C 11.2793 -0.488281 40.0879 28.3203 74.8535 28.3203 Z M 83.4961 -4.83398 C 70.166 -4.83398 58.4961 -12.1094 55.2246 -26.6113 L 47.6562 -26.6113 C 46.0449 -26.6113 44.8242 -27.8809 44.8242 -29.4922 C 44.8242 -31.2012 46.0449 -32.4219 47.6562 -32.4219 L 54.4434 -32.4219 C 54.3945 -33.1055 54.2969 -34.1797 54.2969 -35.2539 C 54.2969 -36.3281 54.2969 -37.1582 54.3945 -38.0371 L 47.6562 -38.0371 C 46.0449 -38.0371 44.8242 -39.3066 44.8242 -40.918 C 44.8242 -42.627 46.0449 -43.7988 47.6562 -43.7988 L 55.2246 -43.7988 C 58.4473 -58.3496 70.2148 -65.625 83.4961 -65.625 C 86.2793 -65.625 88.2812 -65.3809 89.7461 -64.8438 C 91.8457 -64.1113 92.4316 -62.9395 92.4316 -61.4746 C 92.4316 -59.5215 91.0645 -58.3496 89.0625 -58.3496 C 87.793 -58.3496 85.9863 -58.6914 83.3984 -58.6914 C 73.877 -58.6914 65.7715 -53.7109 62.9883 -43.7988 L 83.0078 -43.7988 C 84.668 -43.7988 85.8398 -42.627 85.8398 -40.918 C 85.8398 -39.3066 84.668 -38.0371 83.0078 -38.0371 L 61.8164 -38.0371 C 61.7676 -37.1582 61.7676 -36.1816 61.7676 -35.2051 C 61.7676 -34.2773 61.7676 -33.3008 61.8652 -32.4219 L 83.0078 -32.4219 C 84.668 -32.4219 85.8398 -31.2012 85.8398 -29.4922 C 85.8398 -27.8809 84.668 -26.6113 83.0078 -26.6113 L 62.9395 -26.6113 C 65.7227 -16.6504 73.8281 -11.7188 83.3984 -11.7188 C 85.9375 -11.7188 87.6953 -12.0605 89.0625 -12.0605 C 91.0645 -12.0605 92.4316 -10.8887 92.4316 -8.93555 C 92.4316 -7.42188 91.6016 -6.34766 89.8438 -5.71289 C 88.3301 -5.12695 86.2305 -4.83398 83.4961 -4.83398 Z"/>
  </g>
  <g id="Light-L" transform="matrix(1 0 0 1 1079.18 1556)">
   <path d="M 73.9258 27.3926 C 108.301 27.3926 136.621 -0.927734 136.621 -35.2539 C 136.621 -69.6289 108.252 -97.9492 73.9258 -97.9492 C 39.5508 -97.9492 11.2793 -69.6289 11.2793 -35.2539 C 11.2793 -0.927734 39.5996 27.3926 73.9258 27.3926 Z M 82.0801 -6.10352 C 69.3848 -6.10352 58.1055 -13.1836 55.127 -27.3438 L 47.168 -27.3438 C 45.8008 -27.3438 44.8242 -28.418 44.8242 -29.7852 C 44.8242 -31.2012 45.8008 -32.1777 47.168 -32.1777 L 54.4434 -32.1777 C 54.3945 -33.0078 54.3457 -34.1309 54.3457 -35.2539 C 54.3457 -36.2793 54.3457 -37.1582 54.3945 -38.0371 L 47.168 -38.0371 C 45.8008 -38.0371 44.8242 -39.1113 44.8242 -40.4785 C 44.8242 -41.8945 45.8008 -42.8711 47.168 -42.8711 L 55.0781 -42.8711 C 57.959 -57.2266 69.3359 -64.3555 82.0801 -64.3555 C 84.2773 -64.3555 86.0352 -64.209 87.4023 -63.8184 C 89.1602 -63.2812 89.8438 -62.3535 89.8438 -61.084 C 89.8438 -59.4238 88.7207 -58.5449 87.1094 -58.5449 C 85.9375 -58.5449 84.3262 -58.8379 82.0312 -58.8379 C 72.2656 -58.8379 63.7207 -53.5645 61.1328 -42.8711 L 81.1035 -42.8711 C 82.5195 -42.8711 83.4961 -41.8945 83.4961 -40.4785 C 83.4961 -39.1113 82.5195 -38.0371 81.1035 -38.0371 L 60.2539 -38.0371 C 60.1562 -37.1582 60.1562 -36.1816 60.1562 -35.2539 C 60.1562 -34.1797 60.2051 -33.1543 60.3027 -32.1777 L 81.1035 -32.1777 C 82.5195 -32.1777 83.4961 -31.2012 83.4961 -29.7852 C 83.4961 -28.418 82.5195 -27.3438 81.1035 -27.3438 L 61.1328 -27.3438 C 63.8184 -16.7969 72.3145 -11.6211 82.0312 -11.6211 C 84.2773 -11.6211 85.8398 -11.9141 87.1094 -11.9141 C 88.7207 -11.9141 89.8438 -10.9863 89.8438 -9.375 C 89.8438 -8.05664 89.0137 -7.17773 87.4512 -6.68945 C 86.084 -6.29883 84.2773 -6.10352 82.0801 -6.10352 Z"/>
  </g>
  <g id="Thin-L" transform="matrix(1 0 0 1 783.693 1556)">
   <path d="M 72.7051 26.1719 C 106.494 26.1719 134.18 -1.51367 134.18 -35.2539 C 134.18 -69.043 106.494 -96.7285 72.7051 -96.7285 C 38.9648 -96.7285 11.2793 -69.043 11.2793 -35.2539 C 11.2793 -1.51367 38.9648 26.1719 72.7051 26.1719 Z M 80.2734 -7.8125 C 68.3105 -7.8125 57.6172 -14.5996 54.9805 -28.3203 L 46.582 -28.3203 C 45.5078 -28.3203 44.8242 -29.0527 44.8242 -30.127 C 44.8242 -31.1523 45.5078 -31.8848 46.582 -31.8848 L 54.4922 -31.8848 C 54.4434 -32.959 54.3457 -34.082 54.3457 -35.2539 C 54.3457 -36.2305 54.3457 -37.207 54.4434 -38.0859 L 46.582 -38.0859 C 45.5078 -38.0859 44.8242 -38.8184 44.8242 -39.8438 C 44.8242 -40.918 45.5078 -41.6504 46.582 -41.6504 L 54.8828 -41.6504 C 57.3242 -55.7129 68.1641 -62.6465 80.2734 -62.6465 C 81.6895 -62.6465 83.0566 -62.6465 84.2285 -62.4023 C 85.6934 -62.1582 86.377 -61.5234 86.377 -60.498 C 86.377 -59.3262 85.6445 -58.7891 84.5703 -58.7891 C 83.4961 -58.7891 82.1777 -59.0332 80.1758 -59.0332 C 70.1172 -59.0332 61.0352 -53.3203 58.6914 -41.6504 L 78.6133 -41.6504 C 79.6387 -41.6504 80.3711 -40.918 80.3711 -39.8438 C 80.3711 -38.8184 79.6387 -38.0859 78.6133 -38.0859 L 58.1543 -38.0859 C 58.0566 -37.207 58.0566 -36.2305 58.0566 -35.2539 C 58.0566 -34.082 58.1543 -32.959 58.2031 -31.8848 L 78.6133 -31.8848 C 79.6387 -31.8848 80.3711 -31.1523 80.3711 -30.127 C 80.3711 -29.0527 79.6387 -28.3203 78.6133 -28.3203 L 58.7891 -28.3203 C 61.2793 -16.9922 70.2637 -11.4258 80.1758 -11.4258 C 82.1289 -11.4258 83.3496 -11.6699 84.5703 -11.6699 C 85.6445 -11.6699 86.377 -11.1328 86.377 -9.96094 C 86.377 -8.88672 85.5957 -8.30078 84.2285 -8.05664 C 83.0566 -7.86133 81.6895 -7.8125 80.2734 -7.8125 Z"/>
  </g>
  <g id="Ultralight-L" transform="matrix(1 0 0 1 487.616 1556)">
   <path d="M 72.1191 25.5371 C 105.566 25.5371 132.91 -1.80664 132.91 -35.2539 C 132.91 -68.75 105.566 -96.0938 72.1191 -96.0938 C 38.623 -96.0938 11.2793 -68.75 11.2793 -35.2539 C 11.2793 -1.80664 38.623 25.5371 72.1191 25.5371 Z M 79.3457 -8.64258 C 67.7734 -8.64258 57.373 -15.3809 54.8828 -28.8574 L 46.2402 -28.8574 C 45.3613 -28.8574 44.7754 -29.3945 44.7754 -30.2734 C 44.7754 -31.1523 45.3613 -31.7383 46.2402 -31.7383 L 54.541 -31.7383 C 54.4434 -32.9102 54.3457 -34.0332 54.3457 -35.2539 C 54.3457 -36.2305 54.3457 -37.207 54.4434 -38.0859 L 46.2402 -38.0859 C 45.3613 -38.0859 44.7754 -38.6719 44.7754 -39.5508 C 44.7754 -40.4297 45.3613 -41.0156 46.2402 -41.0156 L 54.7852 -41.0156 C 57.0312 -54.9316 67.5781 -61.8164 79.3457 -61.8164 C 80.3223 -61.8164 81.543 -61.8164 82.6172 -61.7188 C 83.8867 -61.6211 84.6191 -61.1328 84.6191 -60.2051 C 84.6191 -59.2773 84.082 -58.8867 83.252 -58.8867 C 82.2266 -58.8867 81.1035 -59.1309 79.248 -59.1309 C 69.043 -59.1309 59.668 -53.2227 57.4707 -41.0156 L 77.2949 -41.0156 C 78.1738 -41.0156 78.7598 -40.4297 78.7598 -39.5508 C 78.7598 -38.6719 78.1738 -38.0859 77.2949 -38.0859 L 57.0801 -38.0859 C 56.9824 -37.207 56.9824 -36.2305 56.9824 -35.2539 C 56.9824 -34.0332 57.0801 -32.9102 57.1289 -31.7383 L 77.2949 -31.7383 C 78.1738 -31.7383 78.7598 -31.1523 78.7598 -30.2734 C 78.7598 -29.3945 78.1738 -28.8574 77.2949 -28.8574 L 57.5684 -28.8574 C 60.0098 -17.041 69.2383 -11.3281 79.248 -11.3281 C 81.0059 -11.3281 82.0312 -11.5723 83.252 -11.5723 C 84.082 -11.5723 84.6191 -11.1816 84.6191 -10.2539 C 84.6191 -9.32617 83.8379 -8.83789 82.6172 -8.74023 C 81.543 -8.64258 80.3223 -8.64258 79.3457 -8.64258 Z"/>
  </g>
  <g id="Black-M" transform="matrix(1 0 0 1 2870.97 1126)">
   <path d="M 62.4023 18.457 C 91.9922 18.457 116.113 -5.61523 116.113 -35.2051 C 116.113 -64.7949 91.9922 -88.8672 62.4023 -88.8672 C 32.8125 -88.8672 8.74023 -64.7949 8.74023 -35.2051 C 8.74023 -5.61523 32.8125 18.457 62.4023 18.457 Z M 68.75 -12.6953 C 55.0781 -12.6953 46.582 -18.9941 44.1406 -29.0039 L 41.1133 -29.0039 C 39.6484 -29.0039 39.0137 -29.7363 39.0137 -30.957 C 39.0137 -32.1289 39.6484 -32.8613 41.1133 -32.8613 L 43.457 -32.8613 C 43.457 -33.5938 43.457 -34.375 43.457 -35.1562 C 43.457 -35.9375 43.457 -36.6211 43.457 -37.0117 L 41.1133 -37.0117 C 39.6484 -37.0117 39.0137 -37.7441 39.0137 -38.916 C 39.0137 -40.1367 39.6484 -40.8691 41.1133 -40.8691 L 43.8965 -40.8691 C 46.1426 -51.3184 54.6875 -57.8125 68.8477 -57.8125 C 72.2168 -57.8125 74.8047 -57.1289 76.0742 -55.8594 C 77.1973 -54.7852 77.7832 -53.3203 77.7832 -51.7578 C 77.7832 -49.9512 77.2949 -48.6816 76.416 -47.8027 C 74.9512 -46.5332 71.5332 -46.4355 69.1895 -46.3379 C 64.209 -45.9961 59.7168 -44.2383 58.5938 -40.8691 L 72.6074 -40.8691 C 74.0723 -40.8691 74.707 -40.1367 74.707 -38.916 C 74.707 -37.7441 74.0723 -37.0117 72.6074 -37.0117 L 57.373 -37.0117 C 57.2754 -36.6699 57.2754 -35.9863 57.2754 -35.2539 C 57.2754 -34.2773 57.373 -33.1055 57.4707 -32.8613 L 72.6074 -32.8613 C 74.0723 -32.8613 74.707 -32.1289 74.707 -30.957 C 74.707 -29.7363 74.0723 -29.0039 72.6074 -29.0039 L 58.8379 -29.0039 C 60.1074 -26.0254 64.2578 -24.4141 68.9453 -24.1699 C 71.6309 -24.0234 74.7559 -23.8281 76.2207 -22.6562 C 77.3926 -21.6309 77.9785 -20.5078 77.9785 -18.75 C 77.9785 -17.0898 77.3438 -15.6738 76.0742 -14.5996 C 74.6582 -13.3789 72.4121 -12.6953 68.75 -12.6953 Z"/>
  </g>
  <g id="Heavy-M" transform="matrix(1 0 0 1 2575.19 1126)">
   <path d="M 61.5234 17.5293 C 90.5273 17.5293 114.258 -6.20117 114.258 -35.2051 C 114.258 -64.2578 90.5273 -87.9883 61.4746 -87.9883 C 32.4707 -87.9883 8.74023 -64.2578 8.74023 -35.2051 C 8.74023 -6.20117 32.4707 17.5293 61.5234 17.5293 Z M 67.9688 -12.3047 C 55.0293 -12.3047 46.3379 -18.457 43.8477 -28.8086 L 40.1855 -28.8086 C 38.7695 -28.8086 37.9883 -29.6387 37.9883 -30.9082 C 37.9883 -32.1289 38.7695 -32.959 40.1855 -32.959 L 43.1641 -32.959 C 43.1641 -33.5938 43.1641 -34.375 43.1641 -35.1562 C 43.1641 -35.9863 43.1641 -36.6699 43.1641 -37.1094 L 40.1855 -37.1094 C 38.7695 -37.1094 37.9883 -37.9395 37.9883 -39.1602 C 37.9883 -40.4297 38.7695 -41.2598 40.1855 -41.2598 L 43.6523 -41.2598 C 45.9961 -51.9043 54.7363 -58.2031 68.0664 -58.2031 C 71.2402 -58.2031 73.584 -57.6172 74.8535 -56.543 C 76.123 -55.5664 76.709 -54.1992 76.709 -52.6855 C 76.709 -50.9277 76.0254 -49.707 74.9023 -49.0234 C 73.584 -48.0469 70.6055 -48.0469 68.3105 -47.9492 C 62.7441 -47.7051 57.9102 -45.5078 56.543 -41.2598 L 70.8984 -41.2598 C 72.3633 -41.2598 73.0957 -40.4297 73.0957 -39.1602 C 73.0957 -37.9395 72.3633 -37.1094 70.8984 -37.1094 L 55.3711 -37.1094 C 55.2734 -36.7188 55.2734 -35.9863 55.2734 -35.2539 C 55.2734 -34.3262 55.3711 -33.3008 55.4199 -32.959 L 70.8984 -32.959 C 72.3633 -32.959 73.0957 -32.1289 73.0957 -30.9082 C 73.0957 -29.6387 72.3633 -28.8086 70.8984 -28.8086 L 56.6895 -28.8086 C 58.2031 -24.8047 62.793 -22.6562 68.1152 -22.4609 C 70.6543 -22.3633 73.4375 -22.3145 74.7559 -21.4355 C 76.0742 -20.6543 76.8555 -19.5312 76.8555 -17.7246 C 76.8555 -16.2109 76.2207 -14.8926 74.8535 -13.916 C 73.5352 -12.8906 71.3867 -12.3047 67.9688 -12.3047 Z"/>
  </g>
  <g id="Bold-M" transform="matrix(1 0 0 1 2279.5 1126)">
   <path d="M 60.498 16.5039 C 88.8672 16.5039 112.207 -6.83594 112.207 -35.2051 C 112.207 -63.623 88.8672 -86.9629 60.4492 -86.9629 C 32.0312 -86.9629 8.74023 -63.623 8.74023 -35.2051 C 8.74023 -6.83594 32.0801 16.5039 60.498 16.5039 Z M 67.0898 -11.8164 C 54.9316 -11.8164 46.0449 -17.8223 43.5059 -28.5645 L 39.1602 -28.5645 C 37.7441 -28.5645 36.8652 -29.4922 36.8652 -30.8105 C 36.8652 -32.1289 37.7441 -33.0078 39.1602 -33.0078 L 42.8223 -33.0078 C 42.8223 -33.5938 42.7734 -34.4238 42.7734 -35.2051 C 42.7734 -36.0352 42.7734 -36.6699 42.8223 -37.207 L 39.1602 -37.207 C 37.7441 -37.207 36.8652 -38.1348 36.8652 -39.4043 C 36.8652 -40.7715 37.7441 -41.6504 39.1602 -41.6504 L 43.4082 -41.6504 C 45.8496 -52.5879 54.7852 -58.6426 67.1875 -58.6426 C 70.1172 -58.6426 72.2656 -58.2031 73.4863 -57.3242 C 74.9512 -56.4453 75.4395 -55.1758 75.4395 -53.7598 C 75.4395 -52.002 74.6094 -50.8789 73.2422 -50.3906 C 72.0215 -49.7559 69.5312 -49.9023 67.2852 -49.8047 C 61.1816 -49.6582 55.9082 -46.9238 54.248 -41.6504 L 69.043 -41.6504 C 70.459 -41.6504 71.2891 -40.7715 71.2891 -39.4043 C 71.2891 -38.1348 70.459 -37.207 69.043 -37.207 L 53.125 -37.207 C 53.0273 -36.7188 53.0273 -35.9863 53.0273 -35.2539 C 53.0273 -34.375 53.0762 -33.4473 53.125 -33.0078 L 69.043 -33.0078 C 70.459 -33.0078 71.2891 -32.1289 71.2891 -30.8105 C 71.2891 -29.4922 70.459 -28.5645 69.043 -28.5645 L 54.2969 -28.5645 C 56.0547 -23.3887 61.1816 -20.752 67.1875 -20.6055 C 69.5801 -20.5566 71.9238 -20.6055 73.1445 -20.0195 C 74.6582 -19.5312 75.5371 -18.4082 75.5371 -16.6504 C 75.5371 -15.1855 74.9023 -14.0137 73.5352 -13.1836 C 72.2168 -12.3047 70.166 -11.8164 67.0898 -11.8164 Z"/>
  </g>
  <g id="Semibold-M" transform="matrix(1 0 0 1 1983.5 1126)">
   <path d="M 59.7656 15.8203 C 87.7441 15.8203 110.791 -7.27539 110.791 -35.2539 C 110.791 -63.2324 87.6953 -86.2793 59.7656 -86.2793 C 31.7871 -86.2793 8.74023 -63.2324 8.74023 -35.2539 C 8.74023 -7.27539 31.7871 15.8203 59.7656 15.8203 Z M 66.5039 -11.5234 C 54.9316 -11.5234 45.8496 -17.4316 43.2617 -28.418 L 38.4277 -28.418 C 37.0117 -28.418 36.084 -29.3945 36.084 -30.7617 C 36.084 -32.1289 37.0117 -33.0566 38.4277 -33.0566 L 42.5781 -33.0566 C 42.5781 -33.5938 42.5293 -34.4238 42.5293 -35.2051 C 42.5293 -36.0352 42.5293 -36.6699 42.5781 -37.2559 L 38.4277 -37.2559 C 37.0117 -37.2559 36.084 -38.2812 36.084 -39.5996 C 36.084 -41.0156 37.0117 -41.9434 38.4277 -41.9434 L 43.2129 -41.9434 C 45.752 -53.0273 54.834 -58.9844 66.5527 -58.9844 C 69.3359 -58.9844 71.3379 -58.5938 72.5586 -57.8613 C 74.1211 -57.0312 74.6094 -55.8594 74.6094 -54.541 C 74.6094 -52.7832 73.6328 -51.6602 72.1191 -51.3672 C 70.9473 -50.9766 68.8477 -51.123 66.6016 -51.0742 C 60.0586 -50.9766 54.541 -47.9492 52.6367 -41.9434 L 67.7246 -41.9434 C 69.1406 -41.9434 70.0684 -41.0156 70.0684 -39.5996 C 70.0684 -38.2812 69.1406 -37.2559 67.7246 -37.2559 L 51.5625 -37.2559 C 51.4648 -36.7188 51.4648 -35.9863 51.4648 -35.2051 C 51.4648 -34.4238 51.5137 -33.5938 51.5625 -33.0566 L 67.7246 -33.0566 C 69.1406 -33.0566 70.0684 -32.1289 70.0684 -30.7617 C 70.0684 -29.3945 69.1406 -28.418 67.7246 -28.418 L 52.6855 -28.418 C 54.5898 -22.4609 60.0586 -19.4336 66.5527 -19.3359 C 68.8477 -19.2871 70.8496 -19.4336 72.0703 -19.043 C 73.6328 -18.75 74.6582 -17.6758 74.6582 -15.918 C 74.6582 -14.502 74.0234 -13.4277 72.6074 -12.6465 C 71.3379 -11.9141 69.3848 -11.5234 66.5039 -11.5234 Z"/>
  </g>
  <g id="Medium-M" transform="matrix(1 0 0 1 1687.3 1126)">
   <path d="M 59.2285 15.2344 C 86.9141 15.2344 109.766 -7.61719 109.766 -35.2539 C 109.766 -62.8906 86.8652 -85.7422 59.1797 -85.7422 C 31.543 -85.7422 8.74023 -62.8906 8.74023 -35.2539 C 8.74023 -7.61719 31.5918 15.2344 59.2285 15.2344 Z M 66.0645 -11.2793 C 54.8828 -11.2793 45.7031 -17.0898 43.1152 -28.2715 L 37.8906 -28.2715 C 36.4746 -28.2715 35.5469 -29.3457 35.5469 -30.7129 C 35.5469 -32.1289 36.4746 -33.1055 37.8906 -33.1055 L 42.3828 -33.1055 C 42.3828 -33.5938 42.334 -34.4238 42.334 -35.2539 C 42.334 -36.084 42.334 -36.6699 42.3828 -37.3047 L 37.8906 -37.3047 C 36.4746 -37.3047 35.5469 -38.3789 35.5469 -39.7461 C 35.5469 -41.1621 36.4746 -42.1387 37.8906 -42.1387 L 43.0664 -42.1387 C 45.7031 -53.3691 54.8828 -59.1797 66.1133 -59.1797 C 68.75 -59.1797 70.6055 -58.8867 71.8262 -58.252 C 73.4863 -57.4707 73.9746 -56.3965 73.9746 -55.0781 C 73.9746 -53.3203 72.8516 -52.2461 71.2402 -52.0996 C 70.1172 -51.8555 68.2617 -52.0996 66.1133 -52.0508 C 59.2285 -52.002 53.4668 -48.6816 51.4648 -42.1387 L 66.6992 -42.1387 C 68.1641 -42.1387 69.0918 -41.1621 69.0918 -39.7461 C 69.0918 -38.3789 68.1641 -37.3047 66.6992 -37.3047 L 50.3418 -37.3047 C 50.293 -36.7188 50.293 -35.9863 50.293 -35.2051 C 50.293 -34.4727 50.3418 -33.6914 50.3906 -33.1055 L 66.6992 -33.1055 C 68.1641 -33.1055 69.0918 -32.1289 69.0918 -30.7129 C 69.0918 -29.3457 68.1641 -28.2715 66.6992 -28.2715 L 51.416 -28.2715 C 53.4668 -21.7285 59.1797 -18.4082 66.0645 -18.3594 C 68.2617 -18.3594 70.0684 -18.5547 71.2402 -18.3105 C 72.9004 -18.1641 74.0234 -17.0898 74.0234 -15.332 C 74.0234 -13.9648 73.3398 -12.9883 71.9238 -12.2559 C 70.6543 -11.6211 68.75 -11.2793 66.0645 -11.2793 Z"/>
  </g>
  <g id="Regular-M" transform="matrix(1 0 0 1 1391.3 1126)">
   <path d="M 58.5449 14.5508 C 85.791 14.5508 108.35 -8.05664 108.35 -35.2539 C 108.35 -62.5 85.7422 -85.0586 58.4961 -85.0586 C 31.2988 -85.0586 8.74023 -62.5 8.74023 -35.2539 C 8.74023 -8.05664 31.3477 14.5508 58.5449 14.5508 Z M 65.4785 -10.9375 C 54.834 -10.9375 45.5566 -16.6992 42.8711 -28.125 L 37.1582 -28.125 C 35.791 -28.125 34.7656 -29.248 34.7656 -30.6641 C 34.7656 -32.1289 35.791 -33.1543 37.1582 -33.1543 L 42.1387 -33.1543 C 42.1387 -33.5938 42.0898 -34.4238 42.0898 -35.2539 C 42.0898 -36.084 42.0898 -36.7188 42.1387 -37.4023 L 37.1582 -37.4023 C 35.791 -37.4023 34.7656 -38.5254 34.7656 -39.8926 C 34.7656 -41.4062 35.791 -42.4316 37.1582 -42.4316 L 42.9199 -42.4316 C 45.6055 -53.8086 54.8828 -59.5215 65.4785 -59.5215 C 67.9688 -59.5215 69.7266 -59.2773 70.9473 -58.7891 C 72.6562 -58.1055 73.1445 -57.0801 73.1445 -55.8105 C 73.1445 -54.1016 71.9238 -53.0273 70.1172 -53.0273 C 69.0918 -53.0273 67.5293 -53.3203 65.4297 -53.3203 C 58.1543 -53.3203 52.0996 -49.6582 49.9023 -42.4316 L 65.4297 -42.4316 C 66.8457 -42.4316 67.8711 -41.4062 67.8711 -39.8926 C 67.8711 -38.5254 66.8457 -37.4023 65.4297 -37.4023 L 48.8281 -37.4023 C 48.7793 -36.7188 48.7793 -35.9375 48.7793 -35.2051 C 48.7793 -34.5215 48.7793 -33.7891 48.8281 -33.1543 L 65.4297 -33.1543 C 66.8457 -33.1543 67.8711 -32.1289 67.8711 -30.6641 C 67.8711 -29.248 66.8457 -28.125 65.4297 -28.125 L 49.8047 -28.125 C 52.002 -20.752 58.1055 -17.0898 65.4297 -17.0898 C 67.5293 -17.0898 69.043 -17.3828 70.1172 -17.3828 C 71.9238 -17.3828 73.1445 -16.3086 73.1445 -14.5996 C 73.1445 -13.2812 72.4609 -12.3535 71.0449 -11.7676 C 69.7754 -11.2305 67.9199 -10.9375 65.4785 -10.9375 Z"/>
  </g>
  <g id="Light-M" transform="matrix(1 0 0 1 1095.42 1126)">
   <path d="M 57.7148 13.7207 C 84.5215 13.7207 106.689 -8.44727 106.689 -35.2539 C 106.689 -62.1094 84.5215 -84.2285 57.666 -84.2285 C 30.8594 -84.2285 8.74023 -62.1094 8.74023 -35.2539 C 8.74023 -8.44727 30.9082 13.7207 57.7148 13.7207 Z M 64.2578 -12.1094 C 54.1016 -12.1094 45.2148 -17.6758 42.7734 -28.8086 L 36.7676 -28.8086 C 35.5957 -28.8086 34.7656 -29.7363 34.7656 -30.8594 C 34.7656 -32.1289 35.5957 -32.959 36.7676 -32.959 L 42.1875 -32.959 C 42.1387 -33.5449 42.0898 -34.375 42.0898 -35.2539 C 42.0898 -36.084 42.0898 -36.7188 42.1387 -37.4023 L 36.7676 -37.4023 C 35.5957 -37.4023 34.7656 -38.3301 34.7656 -39.502 C 34.7656 -40.7227 35.5957 -41.6016 36.7676 -41.6016 L 42.7734 -41.6016 C 45.166 -52.7832 54.1016 -58.3496 64.2578 -58.3496 C 66.2109 -58.3496 67.6758 -58.2031 68.7988 -57.8613 C 70.3125 -57.3242 70.8008 -56.4941 70.8008 -55.4688 C 70.8008 -54.0039 69.8242 -53.2227 68.4082 -53.2227 C 67.4316 -53.2227 66.1133 -53.4668 64.1602 -53.4668 C 56.7383 -53.4668 50.293 -49.5117 48.2422 -41.6016 L 63.7207 -41.6016 C 64.8926 -41.6016 65.7715 -40.7227 65.7715 -39.502 C 65.7715 -38.3301 64.8926 -37.4023 63.7207 -37.4023 L 47.4121 -37.4023 C 47.3145 -36.7188 47.3145 -35.9863 47.3145 -35.2051 C 47.3145 -34.4727 47.3633 -33.6914 47.4121 -32.959 L 63.7207 -32.959 C 64.8926 -32.959 65.7715 -32.1289 65.7715 -30.8594 C 65.7715 -29.7363 64.8926 -28.8086 63.7207 -28.8086 L 48.1934 -28.8086 C 50.293 -20.8984 56.6895 -16.9922 64.1602 -16.9922 C 66.0645 -16.9922 67.334 -17.2363 68.4082 -17.2363 C 69.8242 -17.2363 70.8008 -16.4062 70.8008 -14.9902 C 70.8008 -13.8672 70.1172 -13.1348 68.8477 -12.6953 C 67.7246 -12.3047 66.1621 -12.1094 64.2578 -12.1094 Z"/>
  </g>
  <g id="Thin-M" transform="matrix(1 0 0 1 799.806 1126)">
   <path d="M 56.6406 12.5977 C 82.9102 12.5977 104.492 -8.98438 104.492 -35.2539 C 104.492 -61.5723 82.9102 -83.1543 56.5918 -83.1543 C 30.3223 -83.1543 8.74023 -61.5723 8.74023 -35.2539 C 8.74023 -8.98438 30.3223 12.5977 56.6406 12.5977 Z M 62.5977 -13.623 C 53.1738 -13.623 44.7754 -18.9453 42.627 -29.6875 L 36.2305 -29.6875 C 35.3516 -29.6875 34.7168 -30.3223 34.7168 -31.2012 C 34.7168 -32.0801 35.3516 -32.7148 36.2305 -32.7148 L 42.2363 -32.7148 C 42.1875 -33.4961 42.1387 -34.3262 42.1387 -35.2539 C 42.1387 -36.0352 42.1387 -36.7676 42.1875 -37.4512 L 36.2305 -37.4512 C 35.3516 -37.4512 34.7168 -38.0859 34.7168 -38.9648 C 34.7168 -39.8438 35.3516 -40.4785 36.2305 -40.4785 L 42.5781 -40.4785 C 44.5801 -51.416 53.0762 -56.8359 62.5977 -56.8359 C 63.8672 -56.8359 65.0391 -56.7871 65.9668 -56.5918 C 67.1875 -56.3477 67.7246 -55.8105 67.7246 -54.9316 C 67.7246 -53.9551 67.041 -53.418 66.0645 -53.418 C 65.2344 -53.418 64.1602 -53.6133 62.5488 -53.6133 C 54.7852 -53.6133 47.9004 -49.3164 46.0449 -40.4785 L 61.4746 -40.4785 C 62.3535 -40.4785 62.9395 -39.8438 62.9395 -38.9648 C 62.9395 -38.0859 62.3535 -37.4512 61.4746 -37.4512 L 45.5078 -37.4512 C 45.459 -36.7676 45.459 -35.9863 45.459 -35.2539 C 45.459 -34.375 45.5078 -33.5449 45.5566 -32.7148 L 61.4746 -32.7148 C 62.3535 -32.7148 62.9395 -32.0801 62.9395 -31.2012 C 62.9395 -30.3223 62.3535 -29.6875 61.4746 -29.6875 L 46.0449 -29.6875 C 48.0469 -21.0449 54.8828 -16.8457 62.5488 -16.8457 C 64.1113 -16.8457 65.1367 -17.041 66.0645 -17.041 C 67.041 -17.041 67.7246 -16.5039 67.7246 -15.5273 C 67.7246 -14.6484 67.0898 -14.1113 65.9668 -13.8672 C 65.0391 -13.6719 63.8672 -13.623 62.5977 -13.623 Z"/>
  </g>
  <g id="Ultralight-M" transform="matrix(1 0 0 1 503.656 1126)">
   <path d="M 56.0547 12.0605 C 82.0801 12.0605 103.369 -9.22852 103.369 -35.2539 C 103.369 -61.2793 82.0801 -82.5684 56.0547 -82.5684 C 30.0293 -82.5684 8.74023 -61.2793 8.74023 -35.2539 C 8.74023 -9.22852 30.0293 12.0605 56.0547 12.0605 Z M 61.7676 -14.4043 C 52.6855 -14.4043 44.5312 -19.6289 42.5781 -30.127 L 35.9375 -30.127 C 35.2051 -30.127 34.7168 -30.6152 34.7168 -31.3477 C 34.7168 -32.0801 35.2051 -32.5684 35.9375 -32.5684 L 42.2363 -32.5684 C 42.1875 -33.4473 42.1387 -34.3262 42.1387 -35.2539 C 42.1387 -35.9863 42.1387 -36.7676 42.1875 -37.4512 L 35.9375 -37.4512 C 35.2051 -37.4512 34.7168 -37.9395 34.7168 -38.6719 C 34.7168 -39.4043 35.2051 -39.8926 35.9375 -39.8926 L 42.4805 -39.8926 C 44.2871 -50.7324 52.5391 -56.0547 61.7676 -56.0547 C 62.6465 -56.0547 63.623 -56.1035 64.502 -55.957 C 65.5762 -55.8594 66.1133 -55.4199 66.1133 -54.6875 C 66.1133 -53.9062 65.625 -53.5156 64.8926 -53.5156 C 64.1113 -53.5156 63.1836 -53.7109 61.7188 -53.7109 C 53.8086 -53.7109 46.6309 -49.2188 44.9219 -39.8926 L 60.3027 -39.8926 C 61.0352 -39.8926 61.5234 -39.4043 61.5234 -38.6719 C 61.5234 -37.9395 61.0352 -37.4512 60.3027 -37.4512 L 44.5312 -37.4512 C 44.4824 -36.7676 44.4824 -35.9863 44.4824 -35.2539 C 44.4824 -34.3262 44.5312 -33.4473 44.6289 -32.5684 L 60.3027 -32.5684 C 61.0352 -32.5684 61.5234 -32.0801 61.5234 -31.3477 C 61.5234 -30.6152 61.0352 -30.127 60.3027 -30.127 L 44.9707 -30.127 C 46.875 -21.1426 53.9551 -16.748 61.7188 -16.748 C 63.1348 -16.748 63.9648 -16.9434 64.8926 -16.9434 C 65.625 -16.9434 66.1133 -16.5527 66.1133 -15.7715 C 66.1133 -15.0391 65.4785 -14.5996 64.502 -14.502 C 63.623 -14.3555 62.6465 -14.4043 61.7676 -14.4043 Z"/>
  </g>
  <g id="Black-S" transform="matrix(1 0 0 1 2884.57 696)">
   <path d="M 48.8281 6.78711 C 71.9727 6.78711 90.8203 -12.0605 90.8203 -35.2051 C 90.8203 -58.3496 71.9727 -77.1973 48.8281 -77.1973 C 25.6836 -77.1973 6.83594 -58.3496 6.83594 -35.2051 C 6.83594 -12.0605 25.6836 6.78711 48.8281 6.78711 Z M 53.8086 -17.5293 C 43.1641 -17.5293 36.4746 -22.4609 34.5703 -30.3223 L 32.1289 -30.3223 C 31.0059 -30.3223 30.4688 -30.9082 30.4688 -31.8848 C 30.4688 -32.8125 31.0059 -33.3984 32.1289 -33.3984 L 34.0332 -33.3984 L 34.0332 -36.6211 L 32.1289 -36.6211 C 31.0059 -36.6211 30.4688 -37.207 30.4688 -38.1348 C 30.4688 -39.1113 31.0059 -39.6973 32.1289 -39.6973 L 34.375 -39.6973 C 36.1328 -47.9004 42.8711 -52.9785 53.9062 -52.9785 C 56.543 -52.9785 58.5449 -52.4414 59.5215 -51.4648 C 60.4492 -50.6348 60.8887 -49.4629 60.8887 -48.2422 C 60.8887 -46.8262 60.498 -45.8496 59.7656 -45.166 C 58.6426 -44.1895 56.0059 -44.1406 54.1504 -44.043 C 50.1953 -43.7988 46.6797 -42.3828 45.752 -39.6973 L 56.7871 -39.6973 C 57.9102 -39.6973 58.4473 -39.1113 58.4473 -38.1348 C 58.4473 -37.207 57.9102 -36.6211 56.7871 -36.6211 L 44.8242 -36.6211 C 44.7266 -36.377 44.7266 -35.8398 44.7266 -35.2539 C 44.7266 -34.4727 44.8242 -33.5938 44.873 -33.3984 L 56.7871 -33.3984 C 57.9102 -33.3984 58.4473 -32.8125 58.4473 -31.8848 C 58.4473 -30.9082 57.9102 -30.3223 56.7871 -30.3223 L 45.9473 -30.3223 C 46.9727 -27.9297 50.2441 -26.6113 53.9551 -26.416 C 56.0547 -26.3184 58.4961 -26.1719 59.6191 -25.293 C 60.5469 -24.5117 61.0352 -23.6328 61.0352 -22.2168 C 61.0352 -20.9473 60.5469 -19.8242 59.5215 -18.9941 C 58.4473 -18.0664 56.6895 -17.5293 53.8086 -17.5293 Z"/>
  </g>
  <g id="Heavy-S" transform="matrix(1 0 0 1 2588.47 696)">
   <path d="M 48.2422 6.15234 C 70.9961 6.15234 89.5996 -12.4512 89.5996 -35.2051 C 89.5996 -57.959 70.9961 -76.6113 48.1934 -76.6113 C 25.4395 -76.6113 6.83594 -57.959 6.83594 -35.2051 C 6.83594 -12.4512 25.4395 6.15234 48.2422 6.15234 Z M 53.3691 -17.0898 C 43.2129 -17.0898 36.3281 -21.9238 34.3262 -30.0781 L 31.4453 -30.0781 C 30.3223 -30.0781 29.6875 -30.7617 29.6875 -31.7871 C 29.6875 -32.8125 30.3223 -33.4961 31.4453 -33.4961 L 33.7891 -33.4961 C 33.7891 -33.9355 33.7891 -34.5703 33.7891 -35.1562 C 33.7891 -35.8398 33.7891 -36.3281 33.7891 -36.6699 L 31.4453 -36.6699 C 30.3223 -36.6699 29.6875 -37.3535 29.6875 -38.3789 C 29.6875 -39.4043 30.3223 -40.0879 31.4453 -40.0879 L 34.2285 -40.0879 C 36.084 -48.4863 42.9688 -53.418 53.418 -53.418 C 55.957 -53.418 57.8613 -52.9297 58.8379 -52.0996 C 59.9121 -51.3184 60.3027 -50.1953 60.3027 -49.0234 C 60.3027 -47.6074 59.7656 -46.6309 58.8379 -46.0938 C 57.7637 -45.3613 55.4688 -45.3613 53.6133 -45.3125 C 49.2676 -45.1172 45.5078 -43.3594 44.3848 -40.0879 L 55.6641 -40.0879 C 56.8359 -40.0879 57.4707 -39.4043 57.4707 -38.3789 C 57.4707 -37.3535 56.8359 -36.6699 55.6641 -36.6699 L 43.457 -36.6699 C 43.3594 -36.377 43.3594 -35.8398 43.3594 -35.2539 C 43.3594 -34.5215 43.4082 -33.7402 43.457 -33.4961 L 55.6641 -33.4961 C 56.8359 -33.4961 57.4707 -32.8125 57.4707 -31.7871 C 57.4707 -30.7617 56.8359 -30.0781 55.6641 -30.0781 L 44.4824 -30.0781 C 45.7031 -26.9531 49.2676 -25.293 53.4668 -25.1465 C 55.4688 -25.0977 57.666 -25.0488 58.6914 -24.3652 C 59.8145 -23.7793 60.4004 -22.8516 60.4004 -21.4355 C 60.4004 -20.2148 59.9121 -19.1406 58.8379 -18.3594 C 57.7637 -17.5781 56.0547 -17.0898 53.3691 -17.0898 Z"/>
  </g>
  <g id="Bold-S" transform="matrix(1 0 0 1 2292.44 696)">
   <path d="M 47.5586 5.46875 C 69.873 5.46875 88.2324 -12.8906 88.2324 -35.2539 C 88.2324 -57.5684 69.873 -75.9277 47.5098 -75.9277 C 25.1953 -75.9277 6.83594 -57.5684 6.83594 -35.2539 C 6.83594 -12.8906 25.1953 5.46875 47.5586 5.46875 Z M 52.8809 -16.6016 C 43.2129 -16.6016 36.1328 -21.3379 34.082 -29.834 L 30.7129 -29.834 C 29.5898 -29.834 28.8574 -30.6152 28.8574 -31.6895 C 28.8574 -32.8125 29.5898 -33.5449 30.7129 -33.5449 L 33.5449 -33.5449 C 33.5449 -33.9355 33.4961 -34.5703 33.4961 -35.2051 C 33.4961 -35.8398 33.4961 -36.377 33.5449 -36.7676 L 30.7129 -36.7676 C 29.5898 -36.7676 28.8574 -37.5488 28.8574 -38.623 C 28.8574 -39.7461 29.5898 -40.4785 30.7129 -40.4785 L 34.0332 -40.4785 C 36.0352 -49.0723 43.1152 -53.9062 52.9297 -53.9062 C 55.3223 -53.9062 57.0801 -53.5156 58.0566 -52.832 C 59.2773 -52.0508 59.668 -51.0254 59.668 -49.9023 C 59.668 -48.4375 58.9355 -47.4609 57.7637 -47.1191 C 56.7871 -46.6309 54.834 -46.7285 53.0273 -46.6797 C 48.2422 -46.582 44.1895 -44.4824 42.8223 -40.4785 L 54.4434 -40.4785 C 55.6152 -40.4785 56.3477 -39.7461 56.3477 -38.623 C 56.3477 -37.5488 55.6152 -36.7676 54.4434 -36.7676 L 41.8945 -36.7676 C 41.7969 -36.377 41.7969 -35.8398 41.7969 -35.2539 C 41.7969 -34.5703 41.8457 -33.8867 41.8945 -33.5449 L 54.4434 -33.5449 C 55.6152 -33.5449 56.3477 -32.8125 56.3477 -31.6895 C 56.3477 -30.6152 55.6152 -29.834 54.4434 -29.834 L 42.8711 -29.834 C 44.2871 -25.8789 48.1934 -23.8281 52.9297 -23.7305 C 54.834 -23.6816 56.6895 -23.7305 57.7148 -23.291 C 58.9355 -22.9004 59.7168 -22.0215 59.7168 -20.5566 C 59.7168 -19.3359 59.2285 -18.4082 58.1055 -17.6758 C 57.0312 -16.9922 55.3711 -16.6016 52.8809 -16.6016 Z"/>
  </g>
  <g id="Semibold-S" transform="matrix(1 0 0 1 1996.2 696)">
   <path d="M 47.0703 4.98047 C 69.0918 4.98047 87.3047 -13.1836 87.3047 -35.2539 C 87.3047 -57.2754 69.0918 -75.4883 47.0215 -75.4883 C 25 -75.4883 6.83594 -57.2754 6.83594 -35.2539 C 6.83594 -13.1836 25.0488 4.98047 47.0703 4.98047 Z M 52.4902 -16.2598 C 43.2617 -16.2598 36.0352 -20.9473 33.9355 -29.6387 L 30.2246 -29.6387 C 29.0527 -29.6387 28.2715 -30.5176 28.2715 -31.6406 C 28.2715 -32.8125 29.0527 -33.5938 30.2246 -33.5938 L 33.3496 -33.5938 C 33.3496 -33.9844 33.3008 -34.6191 33.3008 -35.2051 C 33.3008 -35.8887 33.3008 -36.377 33.3496 -36.8164 L 30.2246 -36.8164 C 29.0527 -36.8164 28.2715 -37.6953 28.2715 -38.7695 C 28.2715 -39.9902 29.0527 -40.7715 30.2246 -40.7715 L 33.8867 -40.7715 C 35.9863 -49.5117 43.2129 -54.1992 52.5391 -54.1992 C 54.8828 -54.1992 56.543 -53.9062 57.5195 -53.3203 C 58.8379 -52.5879 59.2285 -51.6113 59.2285 -50.4883 C 59.2285 -49.0234 58.3496 -48.0469 57.0312 -47.8516 C 56.1035 -47.5586 54.3945 -47.7051 52.5879 -47.6562 C 47.5098 -47.5586 43.3105 -45.2637 41.748 -40.7715 L 53.5645 -40.7715 C 54.7852 -40.7715 55.5664 -39.9902 55.5664 -38.7695 C 55.5664 -37.6953 54.7852 -36.8164 53.5645 -36.8164 L 40.8203 -36.8164 C 40.7227 -36.377 40.7227 -35.791 40.7227 -35.2051 C 40.7227 -34.6191 40.7715 -33.9844 40.8203 -33.5938 L 53.5645 -33.5938 C 54.7852 -33.5938 55.5664 -32.8125 55.5664 -31.6406 C 55.5664 -30.5176 54.7852 -29.6387 53.5645 -29.6387 L 41.748 -29.6387 C 43.3105 -25.1465 47.4609 -22.8516 52.5391 -22.7539 C 54.3945 -22.7539 56.0547 -22.8516 56.9824 -22.5586 C 58.3496 -22.3145 59.2773 -21.3867 59.2773 -19.9219 C 59.2773 -18.7988 58.7402 -17.8711 57.6172 -17.2363 C 56.543 -16.6016 54.8828 -16.2598 52.4902 -16.2598 Z"/>
  </g>
  <g id="Medium-S" transform="matrix(1 0 0 1 1699.83 696)">
   <path d="M 46.7285 4.63867 C 68.5547 4.63867 86.6211 -13.4277 86.6211 -35.2539 C 86.6211 -57.0801 68.5059 -75.1465 46.6797 -75.1465 C 24.8535 -75.1465 6.83594 -57.0801 6.83594 -35.2539 C 6.83594 -13.4277 24.9023 4.63867 46.7285 4.63867 Z M 52.2461 -16.0156 C 43.2617 -16.0156 35.9375 -20.6055 33.7891 -29.541 L 29.834 -29.541 C 28.6621 -29.541 27.832 -30.4688 27.832 -31.5918 C 27.832 -32.8125 28.6621 -33.6426 29.834 -33.6426 L 33.2031 -33.6426 C 33.2031 -33.9844 33.1543 -34.6191 33.1543 -35.2539 C 33.1543 -35.8887 33.1543 -36.377 33.2031 -36.8652 L 29.834 -36.8652 C 28.6621 -36.8652 27.832 -37.793 27.832 -38.916 C 27.832 -40.1367 28.6621 -40.9668 29.834 -40.9668 L 33.7891 -40.9668 C 35.9375 -49.8535 43.3105 -54.4922 52.2461 -54.4922 C 54.541 -54.4922 56.1035 -54.1992 57.1289 -53.6621 C 58.4961 -52.9785 58.8867 -52.0508 58.8867 -50.9766 C 58.8867 -49.4629 57.9102 -48.5352 56.4941 -48.3887 C 55.5664 -48.1934 54.0527 -48.3887 52.2949 -48.3887 C 46.9727 -48.3398 42.627 -45.8496 40.918 -40.9668 L 52.9297 -40.9668 C 54.1504 -40.9668 54.9805 -40.1367 54.9805 -38.916 C 54.9805 -37.793 54.1504 -36.8652 52.9297 -36.8652 L 39.9902 -36.8652 C 39.9414 -36.377 39.9414 -35.791 39.9414 -35.2051 C 39.9414 -34.668 39.9414 -34.082 39.9902 -33.6426 L 52.9297 -33.6426 C 54.1504 -33.6426 54.9805 -32.8125 54.9805 -31.5918 C 54.9805 -30.4688 54.1504 -29.541 52.9297 -29.541 L 40.918 -29.541 C 42.5293 -24.5605 46.9238 -22.0703 52.2461 -22.0215 C 54.0527 -22.0215 55.5664 -22.168 56.4941 -22.0215 C 57.9102 -21.875 58.8867 -20.9473 58.8867 -19.4824 C 58.8867 -18.3594 58.3496 -17.4805 57.2266 -16.8457 C 56.1523 -16.3086 54.541 -16.0156 52.2461 -16.0156 Z"/>
  </g>
  <g id="Regular-S" transform="matrix(1 0 0 1 1403.58 696)">
   <path d="M 46.2402 4.15039 C 67.7734 4.15039 85.6934 -13.7207 85.6934 -35.2539 C 85.6934 -56.7871 67.7246 -74.6582 46.1914 -74.6582 C 24.707 -74.6582 6.83594 -56.7871 6.83594 -35.2539 C 6.83594 -13.7207 24.7559 4.15039 46.2402 4.15039 Z M 51.9043 -15.6738 C 43.3105 -15.6738 35.8398 -20.2148 33.6426 -29.3457 L 29.3457 -29.3457 C 28.125 -29.3457 27.2461 -30.3223 27.2461 -31.543 C 27.2461 -32.8125 28.125 -33.6914 29.3457 -33.6914 L 33.0078 -33.6914 C 33.0078 -33.9844 32.959 -34.6191 32.959 -35.2539 C 32.959 -35.9375 32.959 -36.377 33.0078 -36.9141 L 29.3457 -36.9141 C 28.125 -36.9141 27.2461 -37.8906 27.2461 -39.1113 C 27.2461 -40.3809 28.125 -41.2598 29.3457 -41.2598 L 33.6914 -41.2598 C 35.9375 -50.293 43.4082 -54.7852 51.9043 -54.7852 C 54.1016 -54.7852 55.6152 -54.5898 56.5918 -54.1504 C 58.0566 -53.5156 58.4473 -52.5879 58.4473 -51.5625 C 58.4473 -50.0488 57.3242 -49.1211 55.7617 -49.1211 C 54.9316 -49.1211 53.6133 -49.3164 51.8555 -49.3164 C 46.2402 -49.3164 41.6992 -46.6309 39.8926 -41.2598 L 52.0996 -41.2598 C 53.3203 -41.2598 54.1992 -40.3809 54.1992 -39.1113 C 54.1992 -37.8906 53.3203 -36.9141 52.0996 -36.9141 L 38.916 -36.9141 C 38.8672 -36.377 38.8672 -35.791 38.8672 -35.2051 C 38.8672 -34.7168 38.916 -34.1797 38.9648 -33.6914 L 52.0996 -33.6914 C 53.3203 -33.6914 54.1992 -32.8125 54.1992 -31.543 C 54.1992 -30.3223 53.3203 -29.3457 52.0996 -29.3457 L 39.7949 -29.3457 C 41.6016 -23.8281 46.1914 -21.0938 51.8555 -21.0938 C 53.6133 -21.0938 54.9316 -21.3379 55.7617 -21.3379 C 57.3242 -21.3379 58.4473 -20.3613 58.4473 -18.8477 C 58.4473 -17.7734 57.9102 -16.9434 56.6895 -16.4062 C 55.6641 -15.918 54.0527 -15.6738 51.9043 -15.6738 Z"/>
  </g>
  <g id="Light-S" transform="matrix(1 0 0 1 1107.6 696)">
   <path d="M 45.5078 3.41797 C 66.6992 3.41797 84.2285 -14.0625 84.2285 -35.2539 C 84.2285 -56.4453 66.6504 -73.9258 45.5078 -73.9258 C 24.3164 -73.9258 6.83594 -56.4453 6.83594 -35.2539 C 6.83594 -14.0625 24.3652 3.41797 45.5078 3.41797 Z M 50.8301 -16.6504 C 42.6758 -16.6504 35.5469 -21.0938 33.5449 -29.9316 L 28.9551 -29.9316 C 27.9785 -29.9316 27.2461 -30.7617 27.2461 -31.7383 C 27.2461 -32.8125 27.9785 -33.5449 28.9551 -33.5449 L 33.0566 -33.5449 C 33.0078 -33.9355 32.959 -34.5703 32.959 -35.2539 C 32.959 -35.8887 32.959 -36.377 33.0078 -36.9141 L 28.9551 -36.9141 C 27.9785 -36.9141 27.2461 -37.7441 27.2461 -38.7207 C 27.2461 -39.7949 27.9785 -40.5273 28.9551 -40.5273 L 33.5449 -40.5273 C 35.5469 -49.3652 42.6758 -53.8086 50.8301 -53.8086 C 52.5391 -53.8086 53.8086 -53.6133 54.6875 -53.3203 C 56.0059 -52.832 56.3477 -52.0996 56.3477 -51.2207 C 56.3477 -50 55.5176 -49.2676 54.248 -49.2676 C 53.4668 -49.2676 52.3438 -49.4629 50.7812 -49.4629 C 44.9707 -49.4629 40.0879 -46.4844 38.4277 -40.5273 L 50.5859 -40.5273 C 51.6113 -40.5273 52.3438 -39.7949 52.3438 -38.7207 C 52.3438 -37.7441 51.6113 -36.9141 50.5859 -36.9141 L 37.6953 -36.9141 C 37.6465 -36.377 37.6465 -35.791 37.6465 -35.2051 C 37.6465 -34.668 37.6465 -34.082 37.6953 -33.5449 L 50.5859 -33.5449 C 51.6113 -33.5449 52.3438 -32.8125 52.3438 -31.7383 C 52.3438 -30.7617 51.6113 -29.9316 50.5859 -29.9316 L 38.3789 -29.9316 C 40.0879 -23.9258 44.9707 -20.9961 50.7812 -20.9961 C 52.3438 -20.9961 53.418 -21.1914 54.248 -21.1914 C 55.5176 -21.1914 56.3477 -20.459 56.3477 -19.1895 C 56.3477 -18.2617 55.8594 -17.627 54.7852 -17.1875 C 53.8574 -16.8457 52.5391 -16.6504 50.8301 -16.6504 Z"/>
  </g>
  <g id="Thin-S" transform="matrix(1 0 0 1 811.867 696)">
   <path d="M 44.5801 2.49023 C 65.2832 2.49023 82.2754 -14.5508 82.2754 -35.2539 C 82.2754 -55.957 65.2344 -72.998 44.5312 -72.998 C 23.8281 -72.998 6.83594 -55.957 6.83594 -35.2539 C 6.83594 -14.5508 23.877 2.49023 44.5801 2.49023 Z M 49.3652 -18.0176 C 41.8457 -18.0176 35.1562 -22.2168 33.4473 -30.7129 L 28.4668 -30.7129 C 27.7344 -30.7129 27.1973 -31.25 27.1973 -31.9824 C 27.1973 -32.7637 27.7344 -33.3008 28.4668 -33.3008 L 33.0566 -33.3008 C 33.0566 -33.8867 33.0078 -34.5703 33.0078 -35.2539 C 33.0078 -35.8887 33.0078 -36.4258 33.0566 -36.9629 L 28.4668 -36.9629 C 27.7344 -36.9629 27.1973 -37.5 27.1973 -38.2324 C 27.1973 -39.0137 27.7344 -39.5508 28.4668 -39.5508 L 33.3984 -39.5508 C 35.0586 -48.1934 41.7969 -52.4414 49.3652 -52.4414 C 50.4883 -52.4414 51.4648 -52.3926 52.1973 -52.1973 C 53.2227 -51.9531 53.6133 -51.4648 53.6133 -50.7812 C 53.6133 -49.9023 53.0762 -49.4141 52.1973 -49.4141 C 51.5137 -49.4141 50.6348 -49.6094 49.3164 -49.6094 C 43.3105 -49.6094 37.9883 -46.2891 36.4746 -39.5508 L 48.584 -39.5508 C 49.3164 -39.5508 49.8535 -39.0137 49.8535 -38.2324 C 49.8535 -37.5 49.3164 -36.9629 48.584 -36.9629 L 36.0352 -36.9629 C 35.9863 -36.4258 35.9863 -35.8398 35.9863 -35.2539 C 35.9863 -34.5703 35.9863 -33.9355 36.0352 -33.3008 L 48.584 -33.3008 C 49.3164 -33.3008 49.8535 -32.7637 49.8535 -31.9824 C 49.8535 -31.25 49.3164 -30.7129 48.584 -30.7129 L 36.4746 -30.7129 C 38.0859 -24.0723 43.3594 -20.8496 49.3164 -20.8496 C 50.5859 -20.8496 51.4648 -20.9961 52.1973 -20.9961 C 53.0762 -20.9961 53.6133 -20.5566 53.6133 -19.6777 C 53.6133 -18.9453 53.125 -18.5059 52.2461 -18.2617 C 51.4648 -18.0664 50.4883 -18.0176 49.3652 -18.0176 Z"/>
  </g>
  <g id="Ultralight-S" transform="matrix(1 0 0 1 515.644 696)">
   <path d="M 44.043 1.95312 C 64.502 1.95312 81.2988 -14.7949 81.2988 -35.2539 C 81.2988 -55.7129 64.502 -72.4609 44.043 -72.4609 C 23.584 -72.4609 6.83594 -55.7129 6.83594 -35.2539 C 6.83594 -14.7949 23.584 1.95312 44.043 1.95312 Z M 48.6328 -18.7012 C 41.4062 -18.7012 34.9609 -22.8027 33.3496 -31.1035 L 28.2227 -31.1035 C 27.6367 -31.1035 27.1973 -31.543 27.1973 -32.1289 C 27.1973 -32.7637 27.6367 -33.2031 28.2227 -33.2031 L 33.1055 -33.2031 C 33.0566 -33.8379 33.0078 -34.5215 33.0078 -35.2539 C 33.0078 -35.8398 33.0078 -36.4258 33.0566 -36.9629 L 28.2227 -36.9629 C 27.6367 -36.9629 27.1973 -37.4023 27.1973 -37.9883 C 27.1973 -38.623 27.6367 -39.0137 28.2227 -39.0137 L 33.3008 -39.0137 C 34.7656 -47.5586 41.3086 -51.7578 48.6328 -51.7578 C 49.4141 -51.7578 50.2441 -51.7578 50.9277 -51.6602 C 51.8066 -51.5137 52.2461 -51.1719 52.2461 -50.5371 C 52.2461 -49.8535 51.8066 -49.5605 51.1719 -49.5605 C 50.5371 -49.5605 49.7559 -49.707 48.584 -49.707 C 42.4316 -49.707 36.8652 -46.1914 35.498 -39.0137 L 47.5586 -39.0137 C 48.1445 -39.0137 48.584 -38.623 48.584 -37.9883 C 48.584 -37.4023 48.1445 -36.9629 47.5586 -36.9629 L 35.1562 -36.9629 C 35.1074 -36.4258 35.1074 -35.8398 35.1074 -35.2539 C 35.1074 -34.5215 35.1562 -33.8379 35.2051 -33.2031 L 47.5586 -33.2031 C 48.1445 -33.2031 48.584 -32.7637 48.584 -32.1289 C 48.584 -31.543 48.1445 -31.1035 47.5586 -31.1035 L 35.5469 -31.1035 C 37.0605 -24.1699 42.5293 -20.752 48.584 -20.752 C 49.707 -20.752 50.4395 -20.8984 51.1719 -20.8984 C 51.8066 -20.8984 52.2461 -20.6055 52.2461 -19.9219 C 52.2461 -19.2871 51.7578 -18.9453 50.9277 -18.7988 C 50.2441 -18.7012 49.4141 -18.7012 48.6328 -18.7012 Z"/>
  </g>
 </g>
</svg>
