<?xml version="1.0" encoding="UTF-8"?>
<!--Generator: Apple Native CoreSVG 148-->
<!DOCTYPE svg
PUBLIC "-//W3C//DTD SVG 1.1//EN"
       "http://www.w3.org/Graphics/SVG/1.1/DTD/svg11.dtd">
<svg version="1.1" xmlns="http://www.w3.org/2000/svg" xmlns:xlink="http://www.w3.org/1999/xlink" width="3300" height="2200">
 <!--glyph: "uni100399.medium", point size: 100.000000, font version: "Version 16.0d11e1", template writer version: "8"-->
 <g id="Notes">
  <rect height="2200" id="artboard" style="fill:white;opacity:1" width="3300" x="0" y="0"/>
  <line id="" style="fill:none;stroke:black;opacity:1;stroke-width:0.5;" x1="263" x2="3036" y1="292" y2="292"/>
  <text style="stroke:none;fill:black;font-family:-apple-system,&quot;SF Pro Display&quot;,&quot;SF Pro Text&quot;,Helvetica,sans-serif;font-weight:bold;" transform="matrix(1 0 0 1 263 322)">Weight/Scale Variations</text>
  <text style="stroke:none;fill:black;font-family:-apple-system,&quot;SF Pro Display&quot;,&quot;SF Pro Text&quot;,Helvetica,sans-serif;text-anchor:middle;" transform="matrix(1 0 0 1 559.711 322)">Ultralight</text>
  <text style="stroke:none;fill:black;font-family:-apple-system,&quot;SF Pro Display&quot;,&quot;SF Pro Text&quot;,Helvetica,sans-serif;text-anchor:middle;" transform="matrix(1 0 0 1 856.422 322)">Thin</text>
  <text style="stroke:none;fill:black;font-family:-apple-system,&quot;SF Pro Display&quot;,&quot;SF Pro Text&quot;,Helvetica,sans-serif;text-anchor:middle;" transform="matrix(1 0 0 1 1153.13 322)">Light</text>
  <text style="stroke:none;fill:black;font-family:-apple-system,&quot;SF Pro Display&quot;,&quot;SF Pro Text&quot;,Helvetica,sans-serif;text-anchor:middle;" transform="matrix(1 0 0 1 1449.84 322)">Regular</text>
  <text style="stroke:none;fill:black;font-family:-apple-system,&quot;SF Pro Display&quot;,&quot;SF Pro Text&quot;,Helvetica,sans-serif;text-anchor:middle;" transform="matrix(1 0 0 1 1746.56 322)">Medium</text>
  <text style="stroke:none;fill:black;font-family:-apple-system,&quot;SF Pro Display&quot;,&quot;SF Pro Text&quot;,Helvetica,sans-serif;text-anchor:middle;" transform="matrix(1 0 0 1 2043.27 322)">Semibold</text>
  <text style="stroke:none;fill:black;font-family:-apple-system,&quot;SF Pro Display&quot;,&quot;SF Pro Text&quot;,Helvetica,sans-serif;text-anchor:middle;" transform="matrix(1 0 0 1 2339.98 322)">Bold</text>
  <text style="stroke:none;fill:black;font-family:-apple-system,&quot;SF Pro Display&quot;,&quot;SF Pro Text&quot;,Helvetica,sans-serif;text-anchor:middle;" transform="matrix(1 0 0 1 2636.69 322)">Heavy</text>
  <text style="stroke:none;fill:black;font-family:-apple-system,&quot;SF Pro Display&quot;,&quot;SF Pro Text&quot;,Helvetica,sans-serif;text-anchor:middle;" transform="matrix(1 0 0 1 2933.4 322)">Black</text>
  <line id="" style="fill:none;stroke:black;opacity:1;stroke-width:0.5;" x1="263" x2="3036" y1="1903" y2="1903"/>
  <g id="" transform="matrix(1 0 0 1 263 1933)">
   <path d="M 9.24805 0.830078 C 13.5547 0.830078 17.1387 -2.74414 17.1387 -7.05078 C 17.1387 -11.3574 13.5449 -14.9316 9.23828 -14.9316 C 4.94141 -14.9316 1.36719 -11.3574 1.36719 -7.05078 C 1.36719 -2.74414 4.95117 0.830078 9.24805 0.830078 Z M 9.24805 -0.654297 C 5.70312 -0.654297 2.87109 -3.49609 2.87109 -7.05078 C 2.87109 -10.6055 5.69336 -13.4473 9.23828 -13.4473 C 12.793 -13.4473 15.6348 -10.6055 15.6445 -7.05078 C 15.6543 -3.49609 12.8027 -0.654297 9.24805 -0.654297 Z M 9.22852 -3.62305 C 9.69727 -3.62305 9.9707 -3.93555 9.9707 -4.45312 L 9.9707 -6.31836 L 12.002 -6.31836 C 12.5 -6.31836 12.832 -6.57227 12.832 -7.04102 C 12.832 -7.51953 12.5195 -7.7832 12.002 -7.7832 L 9.9707 -7.7832 L 9.9707 -9.81445 C 9.9707 -10.332 9.69727 -10.6543 9.22852 -10.6543 C 8.75977 -10.6543 8.50586 -10.3125 8.50586 -9.81445 L 8.50586 -7.7832 L 6.49414 -7.7832 C 5.97656 -7.7832 5.64453 -7.51953 5.64453 -7.04102 C 5.64453 -6.57227 5.99609 -6.31836 6.49414 -6.31836 L 8.50586 -6.31836 L 8.50586 -4.45312 C 8.50586 -3.95508 8.75977 -3.62305 9.22852 -3.62305 Z"/>
  </g>
  <g id="" transform="matrix(1 0 0 1 281.506 1933)">
   <path d="M 11.709 2.91016 C 17.1582 2.91016 21.6699 -1.61133 21.6699 -7.05078 C 21.6699 -12.5 17.1484 -17.0117 11.6992 -17.0117 C 6.25977 -17.0117 1.74805 -12.5 1.74805 -7.05078 C 1.74805 -1.61133 6.26953 2.91016 11.709 2.91016 Z M 11.709 1.25 C 7.09961 1.25 3.41797 -2.44141 3.41797 -7.05078 C 3.41797 -11.6602 7.08984 -15.3516 11.6992 -15.3516 C 16.3086 -15.3516 20 -11.6602 20.0098 -7.05078 C 20.0195 -2.44141 16.3184 1.25 11.709 1.25 Z M 11.6797 -2.66602 C 12.207 -2.66602 12.5098 -3.01758 12.5098 -3.59375 L 12.5098 -6.23047 L 15.3223 -6.23047 C 15.8691 -6.23047 16.25 -6.51367 16.25 -7.03125 C 16.25 -7.55859 15.8887 -7.86133 15.3223 -7.86133 L 12.5098 -7.86133 L 12.5098 -10.6836 C 12.5098 -11.25 12.207 -11.6113 11.6797 -11.6113 C 11.1621 -11.6113 10.8789 -11.2305 10.8789 -10.6836 L 10.8789 -7.86133 L 8.07617 -7.86133 C 7.50977 -7.86133 7.13867 -7.55859 7.13867 -7.03125 C 7.13867 -6.51367 7.5293 -6.23047 8.07617 -6.23047 L 10.8789 -6.23047 L 10.8789 -3.59375 C 10.8789 -3.03711 11.1621 -2.66602 11.6797 -2.66602 Z"/>
  </g>
  <g id="" transform="matrix(1 0 0 1 304.924 1933)">
   <path d="M 14.9707 5.66406 C 21.9336 5.66406 27.6953 -0.0976562 27.6953 -7.05078 C 27.6953 -14.0137 21.9238 -19.7754 14.9609 -19.7754 C 8.00781 -19.7754 2.25586 -14.0137 2.25586 -7.05078 C 2.25586 -0.0976562 8.01758 5.66406 14.9707 5.66406 Z M 14.9707 3.84766 C 8.93555 3.84766 4.08203 -1.01562 4.08203 -7.05078 C 4.08203 -13.0957 8.92578 -17.9492 14.9609 -17.9492 C 21.0059 -17.9492 25.8594 -13.0957 25.8691 -7.05078 C 25.8789 -1.01562 21.0156 3.84766 14.9707 3.84766 Z M 14.9414 -1.38672 C 15.5176 -1.38672 15.8594 -1.77734 15.8594 -2.38281 L 15.8594 -6.13281 L 19.7754 -6.13281 C 20.3711 -6.13281 20.7812 -6.46484 20.7812 -7.02148 C 20.7812 -7.59766 20.3906 -7.93945 19.7754 -7.93945 L 15.8594 -7.93945 L 15.8594 -11.8652 C 15.8594 -12.4805 15.5176 -12.8711 14.9414 -12.8711 C 14.375 -12.8711 14.0527 -12.4609 14.0527 -11.8652 L 14.0527 -7.93945 L 10.1465 -7.93945 C 9.53125 -7.93945 9.13086 -7.59766 9.13086 -7.02148 C 9.13086 -6.46484 9.55078 -6.13281 10.1465 -6.13281 L 14.0527 -6.13281 L 14.0527 -2.38281 C 14.0527 -1.79688 14.375 -1.38672 14.9414 -1.38672 Z"/>
  </g>
  <text style="stroke:none;fill:black;font-family:-apple-system,&quot;SF Pro Display&quot;,&quot;SF Pro Text&quot;,Helvetica,sans-serif;font-weight:bold;" transform="matrix(1 0 0 1 263 1953)">Design Variations</text>
  <text style="stroke:none;fill:black;font-family:-apple-system,&quot;SF Pro Display&quot;,&quot;SF Pro Text&quot;,Helvetica,sans-serif;" transform="matrix(1 0 0 1 263 1971)">Symbols are supported in up to nine weights and three scales.</text>
  <text style="stroke:none;fill:black;font-family:-apple-system,&quot;SF Pro Display&quot;,&quot;SF Pro Text&quot;,Helvetica,sans-serif;" transform="matrix(1 0 0 1 263 1989)">For optimal layout with text and other symbols, vertically align</text>
  <text style="stroke:none;fill:black;font-family:-apple-system,&quot;SF Pro Display&quot;,&quot;SF Pro Text&quot;,Helvetica,sans-serif;" transform="matrix(1 0 0 1 263 2007)">symbols with the adjacent text.</text>
  <line id="" style="fill:none;stroke:#00AEEF;stroke-width:0.5;opacity:1.0;" x1="776" x2="776" y1="1919" y2="1933"/>
  <g id="" transform="matrix(1 0 0 1 776 1933)">
   <path d="M 3.31055 0.126953 C 3.82812 0.126953 4.08203 -0.0683594 4.26758 -0.605469 L 5.52734 -4.0625 L 11.2891 -4.0625 L 12.5488 -0.605469 C 12.7344 -0.0683594 12.9883 0.126953 13.4961 0.126953 C 14.0137 0.126953 14.3457 -0.185547 14.3457 -0.673828 C 14.3457 -0.839844 14.3164 -0.986328 14.2383 -1.20117 L 9.6582 -13.3887 C 9.43359 -13.9941 9.0332 -14.2871 8.4082 -14.2871 C 7.80273 -14.2871 7.39258 -13.9941 7.17773 -13.3984 L 2.59766 -1.19141 C 2.51953 -0.976562 2.49023 -0.830078 2.49023 -0.664062 C 2.49023 -0.175781 2.80273 0.126953 3.31055 0.126953 Z M 6.00586 -5.53711 L 8.37891 -12.1094 L 8.42773 -12.1094 L 10.8008 -5.53711 Z"/>
  </g>
  <line id="" style="fill:none;stroke:#00AEEF;stroke-width:0.5;opacity:1.0;" x1="792.836" x2="792.836" y1="1919" y2="1933"/>
  <text style="stroke:none;fill:black;font-family:-apple-system,&quot;SF Pro Display&quot;,&quot;SF Pro Text&quot;,Helvetica,sans-serif;font-weight:bold;" transform="matrix(1 0 0 1 776 1953)">Margins</text>
  <text style="stroke:none;fill:black;font-family:-apple-system,&quot;SF Pro Display&quot;,&quot;SF Pro Text&quot;,Helvetica,sans-serif;" transform="matrix(1 0 0 1 776 1971)">Leading and trailing margins on the left and right side of each symbol</text>
  <text style="stroke:none;fill:black;font-family:-apple-system,&quot;SF Pro Display&quot;,&quot;SF Pro Text&quot;,Helvetica,sans-serif;" transform="matrix(1 0 0 1 776 1989)">can be adjusted by modifying the x-location of the margin guidelines.</text>
  <text style="stroke:none;fill:black;font-family:-apple-system,&quot;SF Pro Display&quot;,&quot;SF Pro Text&quot;,Helvetica,sans-serif;" transform="matrix(1 0 0 1 776 2007)">Modifications are automatically applied proportionally to all</text>
  <text style="stroke:none;fill:black;font-family:-apple-system,&quot;SF Pro Display&quot;,&quot;SF Pro Text&quot;,Helvetica,sans-serif;" transform="matrix(1 0 0 1 776 2025)">scales and weights.</text>
  <g id="" transform="matrix(1 0 0 1 1289 1933)">
   <path d="M 2.8418 1.86523 L 4.54102 3.57422 C 5.40039 4.44336 6.38672 4.38477 7.31445 3.35938 L 17.4902 -7.85156 C 17.7539 -7.76367 18.0273 -7.7832 18.3398 -7.8418 L 19.4043 -8.03711 L 20.0684 -7.36328 L 20.0293 -6.80664 C 19.9902 -6.30859 20.1172 -5.92773 20.6055 -5.44922 L 21.3672 -4.70703 C 21.8457 -4.22852 22.4609 -4.19922 22.9297 -4.66797 L 25.8398 -7.58789 C 26.3086 -8.05664 26.2891 -8.65234 25.8105 -9.13086 L 25.0391 -9.89258 C 24.5605 -10.3711 24.1895 -10.5273 23.7109 -10.4883 L 23.1348 -10.4395 L 22.4902 -11.0742 L 22.7344 -12.1973 C 22.8613 -12.7637 22.7051 -13.2031 22.1191 -13.7891 L 19.9219 -15.9766 C 16.582 -19.2969 12.1484 -19.2188 9.25781 -16.3281 C 8.83789 -15.918 8.80859 -15.3418 9.04297 -14.9512 C 9.27734 -14.5898 9.73633 -14.3555 10.3809 -14.5215 C 11.8457 -14.8633 13.3691 -14.9219 14.7949 -13.9844 L 14.209 -12.5293 C 14.0137 -12.0508 13.9844 -11.6504 14.1113 -11.2891 L 3.04688 -0.898438 C 2.06055 0.0195312 1.98242 0.996094 2.8418 1.86523 Z M 10.752 -15.957 C 13.1836 -17.7344 16.4746 -17.4316 18.7012 -15.2051 L 21.1328 -12.793 C 21.3672 -12.5586 21.4062 -12.373 21.3379 -12.0312 L 21.0156 -10.5469 L 22.5195 -9.0625 L 23.5059 -9.12109 C 23.7598 -9.13086 23.8379 -9.11133 24.0332 -8.91602 L 24.6094 -8.33984 L 22.168 -5.89844 L 21.5918 -6.47461 C 21.3965 -6.66992 21.3672 -6.74805 21.377 -7.01172 L 21.4453 -7.98828 L 19.9512 -9.47266 L 18.4277 -9.21875 C 18.1055 -9.15039 17.959 -9.17969 17.7148 -9.41406 L 15.7129 -11.416 C 15.459 -11.6504 15.4297 -11.8164 15.5859 -12.1875 L 16.4648 -14.2773 C 14.9023 -15.7324 12.8711 -16.3574 10.8398 -15.7617 C 10.6836 -15.7227 10.625 -15.8496 10.752 -15.957 Z M 5.27344 2.30469 L 4.10156 1.14258 C 3.63281 0.683594 3.74023 0.341797 4.14062 -0.0195312 L 14.9512 -10.1953 L 16.416 -8.71094 L 6.42578 2.27539 C 6.07422 2.67578 5.74219 2.77344 5.27344 2.30469 Z"/>
  </g>
  <text style="stroke:none;fill:black;font-family:-apple-system,&quot;SF Pro Display&quot;,&quot;SF Pro Text&quot;,Helvetica,sans-serif;font-weight:bold;" transform="matrix(1 0 0 1 1289 1953)">Exporting</text>
  <text style="stroke:none;fill:black;font-family:-apple-system,&quot;SF Pro Display&quot;,&quot;SF Pro Text&quot;,Helvetica,sans-serif;" transform="matrix(1 0 0 1 1289 1971)">Symbols should be outlined when exporting to ensure the</text>
  <text style="stroke:none;fill:black;font-family:-apple-system,&quot;SF Pro Display&quot;,&quot;SF Pro Text&quot;,Helvetica,sans-serif;" transform="matrix(1 0 0 1 1289 1989)">design is preserved when submitting to Xcode.</text>
  <text id="template-version" style="stroke:none;fill:black;font-family:-apple-system,&quot;SF Pro Display&quot;,&quot;SF Pro Text&quot;,Helvetica,sans-serif;text-anchor:end;" transform="matrix(1 0 0 1 3036 1933)">Template v.2.0</text>
  <text style="stroke:none;fill:black;font-family:-apple-system,&quot;SF Pro Display&quot;,&quot;SF Pro Text&quot;,Helvetica,sans-serif;text-anchor:end;" transform="matrix(1 0 0 1 3036 1951)">Requires Xcode 12 or greater</text>
  <text style="stroke:none;fill:black;font-family:-apple-system,&quot;SF Pro Display&quot;,&quot;SF Pro Text&quot;,Helvetica,sans-serif;text-anchor:end;" transform="matrix(1 0 0 1 3036 1969)">Generated from eyedropper.full</text>
  <text style="stroke:none;fill:black;font-family:-apple-system,&quot;SF Pro Display&quot;,&quot;SF Pro Text&quot;,Helvetica,sans-serif;text-anchor:end;" transform="matrix(1 0 0 1 3036 1987)">Typeset at 100 points</text>
  <text style="stroke:none;fill:black;font-family:-apple-system,&quot;SF Pro Display&quot;,&quot;SF Pro Text&quot;,Helvetica,sans-serif;" transform="matrix(1 0 0 1 263 726)">Small</text>
  <text style="stroke:none;fill:black;font-family:-apple-system,&quot;SF Pro Display&quot;,&quot;SF Pro Text&quot;,Helvetica,sans-serif;" transform="matrix(1 0 0 1 263 1156)">Medium</text>
  <text style="stroke:none;fill:black;font-family:-apple-system,&quot;SF Pro Display&quot;,&quot;SF Pro Text&quot;,Helvetica,sans-serif;" transform="matrix(1 0 0 1 263 1586)">Large</text>
 </g>
 <g id="Guides">
  <g id="H-reference" style="fill:#27AAE1;stroke:none;" transform="matrix(1 0 0 1 339 696)">
   <path d="M 0.976562 0 L 3.66211 0 L 12.9883 -24.4629 L 45.7031 -24.4629 L 55.0781 0 L 57.7148 0 L 30.6152 -70.459 L 28.125 -70.459 Z M 29.2969 -67.1387 L 29.3945 -67.1387 L 44.873 -26.709 L 13.8672 -26.709 Z"/>
  </g>
  <line id="Baseline-S" style="fill:none;stroke:#27AAE1;opacity:1;stroke-width:0.5;" x1="263" x2="3036" y1="696" y2="696"/>
  <line id="Capline-S" style="fill:none;stroke:#27AAE1;opacity:1;stroke-width:0.5;" x1="263" x2="3036" y1="625.541" y2="625.541"/>
  <g id="H-reference" style="fill:#27AAE1;stroke:none;" transform="matrix(1 0 0 1 339 1126)">
   <path d="M 0.976562 0 L 3.66211 0 L 12.9883 -24.4629 L 45.7031 -24.4629 L 55.0781 0 L 57.7148 0 L 30.6152 -70.459 L 28.125 -70.459 Z M 29.2969 -67.1387 L 29.3945 -67.1387 L 44.873 -26.709 L 13.8672 -26.709 Z"/>
  </g>
  <line id="Baseline-M" style="fill:none;stroke:#27AAE1;opacity:1;stroke-width:0.5;" x1="263" x2="3036" y1="1126" y2="1126"/>
  <line id="Capline-M" style="fill:none;stroke:#27AAE1;opacity:1;stroke-width:0.5;" x1="263" x2="3036" y1="1055.54" y2="1055.54"/>
  <g id="H-reference" style="fill:#27AAE1;stroke:none;" transform="matrix(1 0 0 1 339 1556)">
   <path d="M 0.976562 0 L 3.66211 0 L 12.9883 -24.4629 L 45.7031 -24.4629 L 55.0781 0 L 57.7148 0 L 30.6152 -70.459 L 28.125 -70.459 Z M 29.2969 -67.1387 L 29.3945 -67.1387 L 44.873 -26.709 L 13.8672 -26.709 Z"/>
  </g>
  <line id="Baseline-L" style="fill:none;stroke:#27AAE1;opacity:1;stroke-width:0.5;" x1="263" x2="3036" y1="1556" y2="1556"/>
  <line id="Capline-L" style="fill:none;stroke:#27AAE1;opacity:1;stroke-width:0.5;" x1="263" x2="3036" y1="1485.54" y2="1485.54"/>
  <line id="left-margin" style="fill:none;stroke:#00AEEF;stroke-width:0.5;opacity:1.0;" x1="1387.66" x2="1387.66" y1="1030.79" y2="1150.12"/>
  <line id="right-margin" style="fill:none;stroke:#00AEEF;stroke-width:0.5;opacity:1.0;" x1="1512.03" x2="1512.03" y1="1030.79" y2="1150.12"/>
 </g>
 <g id="Symbols">
  <g id="Black-L" transform="matrix(1 0 0 1 2844.26 1556)">
   <path d="M 124.121 -24.1699 L 126.66 -26.7578 C 131.25 -31.3477 131.152 -36.8164 126.514 -41.6504 L 125.146 -43.0664 C 136.426 -52.5391 147.656 -52.3438 155.957 -60.7422 C 166.943 -71.875 165.967 -89.1602 155.762 -99.4629 C 145.654 -109.814 128.223 -110.84 117.041 -99.8535 C 108.496 -91.4551 108.74 -80.2734 99.2188 -68.9941 L 97.9492 -70.4102 C 93.6523 -75.2441 87.7441 -75.0488 82.959 -70.459 L 80.3223 -67.9688 C 75.1465 -63.0859 75.4395 -58.0078 80.5664 -52.9785 L 82.666 -50.8301 L 40.8691 -8.93555 C 17.9688 14.0137 22.3145 20.9961 14.4531 31.2012 L 23.4863 40.7227 C 33.5449 32.666 42.2363 37.6465 64.7949 15.2344 L 106.982 -26.6602 L 109.229 -24.4141 C 114.355 -19.2871 119.092 -19.0918 124.121 -24.1699 Z M 85.7422 -29.0039 C 84.3262 -30.5664 84.4727 -31.8848 86.2305 -33.6914 L 93.0176 -40.5273 L 97.0215 -36.5723 L 90.1367 -29.6875 C 88.4766 -28.0762 86.8652 -27.832 85.7422 -29.0039 Z"/>
  </g>
  <g id="Heavy-L" transform="matrix(1 0 0 1 2549.8 1556)">
   <path d="M 121.387 -26.3672 L 123.73 -28.7109 C 127.93 -33.0078 127.881 -38.0371 123.633 -42.4805 L 122.119 -43.9941 C 132.959 -53.2227 144.043 -53.418 151.953 -61.4258 C 162.549 -72.1191 161.084 -88.3789 151.709 -97.8027 C 142.48 -107.227 126.123 -108.691 115.332 -98.1445 C 107.178 -90.2344 107.129 -79.1504 97.8027 -68.2617 L 96.4355 -69.7754 C 92.3828 -74.2676 87.0117 -74.0234 82.5684 -69.873 L 80.1758 -67.5781 C 75.3418 -62.9883 75.7324 -58.3496 80.3711 -53.7598 L 82.7148 -51.4648 L 39.502 -8.20312 C 17.4805 13.8184 22.9492 18.5547 14.4531 29.834 L 22.6074 38.4277 C 33.6426 29.834 39.8926 35.9863 61.7188 14.2578 L 105.273 -28.9551 L 107.666 -26.5625 C 112.305 -21.9238 116.748 -21.582 121.387 -26.3672 Z M 84.9121 -30.5664 C 83.2031 -32.4219 83.3984 -34.0332 85.4004 -36.084 L 91.6992 -42.4805 L 96.582 -37.6465 L 90.1367 -31.2012 C 88.2812 -29.4434 86.3281 -29.0039 84.9121 -30.5664 Z"/>
  </g>
  <g id="Bold-L" transform="matrix(1 0 0 1 2255.6 1556)">
   <path d="M 118.359 -28.8086 L 120.459 -30.957 C 124.17 -34.8145 124.219 -39.4043 120.312 -43.4082 L 118.701 -45.0684 C 129.053 -54.0527 140.039 -54.5898 147.461 -62.1094 C 157.568 -72.3633 155.566 -87.5 147.217 -95.9473 C 138.965 -104.395 123.779 -106.299 113.379 -96.2402 C 105.762 -88.8184 105.273 -77.832 96.2402 -67.4805 L 94.6777 -69.1406 C 90.9668 -73.1445 86.1816 -72.9492 82.1777 -69.1895 L 80.0293 -67.1387 C 75.5371 -62.9395 76.0254 -58.7402 80.2246 -54.6387 L 82.7148 -52.1484 L 37.9883 -7.42188 C 16.9434 13.6719 23.6328 15.8203 14.4531 28.2715 L 21.6309 35.8887 C 33.7891 26.6602 37.2559 34.082 58.3008 13.1836 L 103.32 -31.543 L 105.908 -29.0039 C 110.059 -24.8535 114.062 -24.3652 118.359 -28.8086 Z M 83.9355 -32.2754 C 81.9336 -34.4727 82.2266 -36.4746 84.4727 -38.7695 L 90.2344 -44.5801 L 96.0449 -38.8184 L 90.1367 -32.9102 C 88.0859 -30.9082 85.7422 -30.3711 83.9355 -32.2754 Z"/>
  </g>
  <g id="Semibold-L" transform="matrix(1 0 0 1 1960.63 1556)">
   <path d="M 116.26 -30.4688 L 118.164 -32.4707 C 121.631 -36.084 121.729 -40.332 118.066 -44.043 L 116.309 -45.752 C 126.416 -54.5898 137.256 -55.4199 144.385 -62.5977 C 154.15 -72.5098 151.807 -86.9141 144.141 -94.6777 C 136.523 -102.393 122.119 -104.639 112.061 -94.9219 C 104.785 -87.8906 104.053 -76.9531 95.2148 -66.8945 L 93.5059 -68.6523 C 89.9902 -72.3633 85.5957 -72.168 81.9336 -68.75 L 79.8828 -66.8457 C 75.6348 -62.8906 76.2695 -59.0332 80.0781 -55.2246 L 82.7148 -52.5879 L 36.9629 -6.83594 C 16.5527 13.5254 24.0723 13.9648 14.4531 27.2461 L 20.8984 34.1309 C 33.8379 24.4629 35.4492 32.8125 55.957 12.4512 L 102.002 -33.3496 L 104.688 -30.6641 C 108.496 -26.8555 112.256 -26.2695 116.26 -30.4688 Z M 83.252 -33.4961 C 81.0547 -35.9375 81.4453 -38.1348 83.8867 -40.625 L 89.2578 -46.0938 L 95.7031 -39.6484 L 90.1367 -34.1309 C 87.9395 -31.9336 85.3027 -31.2988 83.252 -33.4961 Z"/>
  </g>
  <g id="Medium-L" transform="matrix(1 0 0 1 1665.21 1556)">
   <path d="M 114.648 -31.7383 L 116.455 -33.6426 C 119.678 -37.0605 119.824 -41.0645 116.357 -44.5312 L 114.551 -46.3379 C 124.365 -54.9805 135.156 -56.0547 142.041 -62.9883 C 151.611 -72.6562 148.926 -86.4746 141.797 -93.7012 C 134.668 -100.928 120.898 -103.418 111.084 -93.9453 C 104.053 -87.1582 103.076 -76.3184 94.3848 -66.5039 L 92.5781 -68.3105 C 89.209 -71.7773 85.1562 -71.582 81.6895 -68.3594 L 79.7852 -66.6016 C 75.7324 -62.8418 76.416 -59.2285 79.9805 -55.6641 L 82.7148 -52.9785 L 36.1328 -6.39648 C 16.3086 13.4277 24.4629 12.5488 14.4531 26.4648 L 20.4102 32.7637 C 33.9355 22.8027 34.082 31.8359 54.1504 11.8652 L 100.977 -34.668 L 103.76 -31.9336 C 107.324 -28.3691 110.889 -27.7344 114.648 -31.7383 Z M 82.7637 -34.375 C 80.3711 -37.0117 80.8105 -39.4043 83.3984 -41.9922 L 88.4766 -47.168 L 95.4102 -40.2344 L 90.1367 -35.0098 C 87.8418 -32.7148 85.0098 -31.9824 82.7637 -34.375 Z"/>
  </g>
  <g id="Regular-L" transform="matrix(1 0 0 1 1370.21 1556)">
   <path d="M 112.598 -33.3984 L 114.209 -35.1562 C 117.139 -38.3301 117.334 -41.9922 114.111 -45.1172 L 112.207 -47.0215 C 121.729 -55.5664 132.422 -56.8848 138.965 -63.4766 C 148.193 -72.8516 145.215 -85.8887 138.721 -92.4316 C 132.227 -98.9746 119.287 -101.758 109.766 -92.6758 C 103.076 -86.2305 101.855 -75.4395 93.3105 -65.918 L 91.4062 -67.8223 C 88.2812 -71.0449 84.6191 -70.8496 81.4453 -67.9199 L 79.6875 -66.3086 C 75.8789 -62.7441 76.6602 -59.4727 79.834 -56.25 L 82.7148 -53.418 L 35.1074 -5.85938 C 15.918 13.3301 24.9023 10.6445 14.4531 25.3906 L 19.7266 31.0059 C 34.0332 20.6543 32.2754 30.5664 51.8066 11.1328 L 99.6582 -36.4258 L 102.539 -33.5449 C 105.762 -30.3711 109.033 -29.5898 112.598 -33.3984 Z M 82.0801 -35.5957 C 79.4922 -38.4277 80.0293 -41.0156 82.7637 -43.8477 L 87.4512 -48.6328 L 95.0684 -41.0645 L 90.1367 -36.1816 C 87.6953 -33.7402 84.5703 -32.9102 82.0801 -35.5957 Z"/>
  </g>
  <g id="Light-L" transform="matrix(1 0 0 1 1074.3 1556)">
   <path d="M 111.67 -33.9355 L 113.086 -35.4492 C 115.869 -38.4766 116.016 -41.9922 112.988 -45.0195 L 111.035 -46.9727 C 120.361 -55.3711 131.055 -56.8359 137.5 -63.3301 C 146.533 -72.5098 143.604 -85.3516 137.256 -91.748 C 130.859 -98.1445 118.164 -100.879 108.838 -91.9922 C 102.246 -85.6445 100.879 -74.9023 92.4805 -65.5762 L 90.5273 -67.5293 C 87.5 -70.5078 83.9844 -70.3125 80.957 -67.5781 L 79.3945 -66.1621 C 75.7324 -62.8418 76.5137 -59.6191 79.5898 -56.5918 L 82.666 -53.5156 L 35.1074 -5.95703 C 16.2598 12.8906 24.7559 10.6445 14.4531 25.0977 L 19.2383 30.2246 C 33.252 20.0195 31.9336 29.4434 51.0742 10.4004 L 98.9258 -37.207 L 102.051 -34.082 C 105.127 -31.0059 108.35 -30.2246 111.67 -33.9355 Z M 82.373 -36.7188 C 79.3945 -39.9902 79.9805 -43.0176 83.1055 -46.1914 L 86.5234 -49.6582 L 95.166 -40.9668 L 91.5039 -37.3535 C 88.7207 -34.6191 85.3027 -33.5938 82.373 -36.7188 Z"/>
  </g>
  <g id="Thin-L" transform="matrix(1 0 0 1 778.639 1556)">
   <path d="M 110.449 -34.6191 L 111.572 -35.8887 C 114.16 -38.7207 114.307 -42.041 111.523 -44.873 L 109.521 -46.9238 C 118.604 -55.127 129.297 -56.8359 135.498 -63.1348 C 144.336 -72.0703 141.504 -84.6191 135.303 -90.8203 C 129.053 -97.0703 116.65 -99.7559 107.568 -91.0645 C 101.172 -84.9121 99.5605 -74.1699 91.4062 -65.0879 L 89.3066 -67.0898 C 86.4746 -69.873 83.2031 -69.6289 80.3223 -67.1387 L 79.0527 -66.0156 C 75.5371 -62.9883 76.3184 -59.8145 79.1992 -56.9824 L 82.5684 -53.5645 L 35.1074 -6.10352 C 16.748 12.2559 24.5117 10.5957 14.4531 24.6582 L 18.5547 29.1992 C 32.2266 19.2383 31.3965 27.9297 50.0977 9.375 L 97.9492 -38.2324 L 101.416 -34.7656 C 104.248 -31.8848 107.422 -31.1035 110.449 -34.6191 Z M 82.7637 -38.2324 C 79.248 -42.0898 79.9316 -45.6543 83.4961 -49.2676 L 85.2051 -50.9766 L 95.3125 -40.8691 L 93.2617 -38.8672 C 90.0879 -35.791 86.2793 -34.5215 82.7637 -38.2324 Z"/>
  </g>
  <g id="Ultralight-L" transform="matrix(1 0 0 1 482.465 1556)">
   <path d="M 109.863 -34.9609 L 110.84 -36.084 C 113.281 -38.8672 113.428 -42.041 110.742 -44.8242 L 108.74 -46.9238 C 117.676 -54.9805 128.369 -56.8359 134.521 -63.0371 C 143.213 -71.8262 140.43 -84.2285 134.277 -90.3809 C 128.125 -96.5332 115.918 -99.1699 106.934 -90.625 C 100.635 -84.5703 98.877 -73.7793 90.8203 -64.8438 L 88.7207 -66.8457 C 85.9375 -69.5312 82.7637 -69.2871 79.9805 -66.9434 L 78.8574 -65.9668 C 75.4395 -63.0371 76.2695 -59.9121 79.0039 -57.1777 L 82.5684 -53.6133 L 35.1074 -6.20117 C 16.9922 11.9629 24.3652 10.5469 14.4531 24.4629 L 18.2129 28.6621 C 31.7383 18.7988 31.1523 27.1484 49.6094 8.88672 L 97.4121 -38.7695 L 101.074 -35.1074 C 103.809 -32.373 106.934 -31.543 109.863 -34.9609 Z M 83.0078 -39.0137 C 79.1504 -43.1641 79.8828 -47.0215 83.7402 -50.8301 L 84.5215 -51.6602 L 95.3613 -40.8203 L 94.1895 -39.6484 C 90.7715 -36.377 86.7676 -35.0098 83.0078 -39.0137 Z"/>
  </g>
  <g id="Black-M" transform="matrix(1 0 0 1 2861.7 1126)">
   <path d="M 99.4141 -24.0234 L 101.562 -26.123 C 105.518 -30.0781 105.42 -34.8145 101.416 -39.0137 L 100.537 -40.0391 C 109.717 -47.5586 118.604 -47.0215 125.537 -54.0527 C 134.473 -63.1348 134.424 -77.7832 125.342 -86.9141 C 116.455 -96.0449 101.66 -96.2402 92.5293 -87.207 C 85.4004 -80.1758 85.9863 -71.3867 78.3691 -62.207 L 77.5391 -63.0859 C 73.9258 -67.334 68.7012 -67.1387 64.5508 -63.1836 L 62.3535 -61.084 C 57.959 -56.9824 58.0566 -52.4902 62.5488 -48.0957 L 64.1113 -46.5332 L 33.4961 -15.918 C 14.7949 2.88086 16.4062 11.6211 11.2305 17.9199 L 19.1406 26.2695 C 25.4395 20.8496 35.6934 22.9004 54.0039 4.78516 L 84.8633 -25.8789 L 86.5234 -24.2188 C 91.0156 -19.7266 95.166 -19.7266 99.4141 -24.0234 Z M 67.8223 -28.9062 C 66.8945 -29.9316 66.8945 -30.8105 68.1152 -32.0312 L 73.3887 -37.3047 L 75.9277 -34.7656 L 70.6055 -29.4922 C 69.3848 -28.3691 68.457 -28.2227 67.8223 -28.9062 Z"/>
  </g>
  <g id="Heavy-M" transform="matrix(1 0 0 1 2567.23 1126)">
   <path d="M 96.6797 -26.2695 L 98.6328 -28.2227 C 102.246 -31.8359 102.148 -36.1328 98.5352 -39.9414 L 97.4609 -41.0645 C 106.25 -48.3887 114.99 -48.2422 121.533 -54.834 C 130.078 -63.4766 129.492 -77.0508 121.338 -85.2539 C 113.379 -93.457 99.6582 -94.0918 90.918 -85.5469 C 84.1797 -78.9551 84.4238 -70.2637 77.0508 -61.4746 L 76.0742 -62.5488 C 72.7051 -66.3574 68.0176 -66.1621 64.2578 -62.5977 L 62.2559 -60.6934 C 58.1543 -56.8359 58.3984 -52.832 62.4023 -48.877 L 64.1113 -47.168 L 32.0312 -15.0879 C 14.1602 2.83203 17.0898 8.98438 11.2305 16.5039 L 18.3105 23.9746 C 25.7812 17.9199 33.252 21.3867 50.8301 3.90625 L 83.2031 -28.1738 L 84.9609 -26.416 C 88.9648 -22.4121 92.7734 -22.2656 96.6797 -26.2695 Z M 66.7969 -30.3223 C 65.6738 -31.5918 65.7227 -32.666 67.1387 -34.082 L 72.2168 -39.1113 L 75.3906 -35.9863 L 70.2637 -30.8594 C 68.8965 -29.5898 67.6758 -29.3945 66.7969 -30.3223 Z"/>
  </g>
  <g id="Bold-M" transform="matrix(1 0 0 1 2273.03 1126)">
   <path d="M 93.6035 -28.7598 L 95.3613 -30.5664 C 98.5352 -33.7891 98.5352 -37.6465 95.2637 -41.0156 L 94.0918 -42.1875 C 102.441 -49.3164 110.986 -49.5117 117.041 -55.6641 C 125.146 -63.8672 123.926 -76.2695 116.846 -83.3984 C 109.863 -90.5762 97.3633 -91.748 89.0625 -83.6914 C 82.8613 -77.6367 82.7148 -69.043 75.5859 -60.6934 L 74.4629 -61.9141 C 71.3867 -65.2832 67.334 -65.1367 63.9648 -61.9629 L 62.1582 -60.2539 C 58.4473 -56.7383 58.7891 -53.2227 62.3047 -49.707 L 64.1113 -47.9004 L 30.3711 -14.1602 C 13.4766 2.7832 17.9199 6.00586 11.2305 14.9414 L 17.3828 21.4355 C 26.123 14.6484 30.5176 19.6289 47.3145 2.92969 L 81.2988 -30.8105 L 83.1543 -28.9062 C 86.6699 -25.3906 90.0391 -25.1465 93.6035 -28.7598 Z M 65.625 -31.8848 C 64.3066 -33.3984 64.4531 -34.7168 66.0645 -36.3281 L 70.8496 -41.1621 L 74.7559 -37.3047 L 69.873 -32.373 C 68.4082 -30.957 66.8457 -30.6152 65.625 -31.8848 Z"/>
  </g>
  <g id="Semibold-M" transform="matrix(1 0 0 1 1978.06 1126)">
   <path d="M 91.5039 -30.5176 L 93.1152 -32.1777 C 95.9961 -35.1562 96.0449 -38.6719 93.0176 -41.6992 L 91.748 -43.0176 C 99.7559 -49.9512 108.252 -50.4395 113.965 -56.2012 C 121.777 -64.1113 120.117 -75.7324 113.77 -82.1777 C 107.471 -88.5742 95.8496 -90.1367 87.8418 -82.373 C 81.9824 -76.709 81.543 -68.2129 74.5605 -60.1562 L 73.3398 -61.4746 C 70.459 -64.5508 66.7969 -64.4043 63.7695 -61.5234 L 62.0605 -59.9121 C 58.5938 -56.6406 59.0332 -53.4668 62.207 -50.3418 L 64.1113 -48.4375 L 29.248 -13.5254 C 12.9883 2.73438 18.457 3.95508 11.2305 13.8184 L 16.748 19.6777 C 26.3672 12.3535 28.6133 18.457 44.873 2.29492 L 79.9805 -32.6172 L 81.9336 -30.6641 C 85.1074 -27.4902 88.1836 -27.0996 91.5039 -30.5176 Z M 64.8438 -32.959 C 63.3301 -34.6191 63.5742 -36.1328 65.2832 -37.8418 L 69.9707 -42.5781 L 74.3652 -38.2324 L 69.5801 -33.4473 C 68.0176 -31.9336 66.2109 -31.4941 64.8438 -32.959 Z"/>
  </g>
  <g id="Medium-M" transform="matrix(1 0 0 1 1682.64 1126)">
   <path d="M 89.8926 -31.7871 L 91.4062 -33.3984 C 94.0918 -36.1816 94.1406 -39.4531 91.3574 -42.2363 L 89.9902 -43.6035 C 97.7539 -50.4395 106.152 -51.123 111.621 -56.6406 C 119.189 -64.3066 117.236 -75.3418 111.426 -81.2012 C 105.664 -87.0605 94.6289 -88.916 86.8652 -81.3965 C 81.2988 -75.9766 80.6641 -67.5293 73.8281 -59.7656 L 72.5098 -61.1328 C 69.7754 -63.9648 66.4551 -63.8184 63.623 -61.1816 L 62.0117 -59.668 C 58.7402 -56.5918 59.2285 -53.6621 62.1582 -50.7812 L 64.1113 -48.7793 L 28.3691 -13.0371 C 12.6465 2.68555 18.8965 2.39258 11.2305 13.0371 L 16.2598 18.3105 C 26.5625 10.6445 27.1484 17.5781 43.0176 1.80664 L 79.0039 -33.9355 L 81.0059 -31.9336 C 83.9355 -29.0527 86.7676 -28.5645 89.8926 -31.7871 Z M 64.2578 -33.7891 C 62.6465 -35.5469 62.9395 -37.207 64.7461 -39.0625 L 69.2871 -43.6523 L 74.0234 -38.916 L 69.3848 -34.2285 C 67.7734 -32.666 65.7715 -32.1777 64.2578 -33.7891 Z"/>
  </g>
  <g id="Regular-M" transform="matrix(1 0 0 1 1387.66 1126)">
   <path d="M 87.793 -33.4961 L 89.1602 -35.0098 C 91.5527 -37.5 91.6992 -40.4297 89.1113 -42.9688 L 87.6465 -44.3848 C 95.1172 -51.0742 103.418 -52.002 108.545 -57.2266 C 115.82 -64.5508 113.477 -74.8047 108.35 -79.9316 C 103.271 -85.1074 93.1152 -87.3047 85.6445 -80.127 C 80.3711 -75.0488 79.4922 -66.6992 72.8027 -59.2285 L 71.3867 -60.6934 C 68.8965 -63.2324 65.918 -63.1348 63.4277 -60.7422 L 61.9629 -59.375 C 58.9355 -56.4941 59.5215 -53.9551 62.0605 -51.3672 L 64.1602 -49.3164 L 27.2461 -12.4023 C 12.1582 2.68555 19.4336 0.341797 11.2305 11.9141 L 15.625 16.5527 C 26.8066 8.39844 25.293 16.4062 40.625 1.12305 L 77.6855 -35.7422 L 79.7852 -33.6426 C 82.373 -31.0547 84.9609 -30.5176 87.793 -33.4961 Z M 63.4766 -34.8633 C 61.6699 -36.8164 62.0605 -38.5742 64.0137 -40.5762 L 68.3594 -45.0684 L 73.6328 -39.7949 L 69.1406 -35.3027 C 67.3828 -33.5938 65.1855 -33.0566 63.4766 -34.8633 Z"/>
  </g>
  <g id="Light-M" transform="matrix(1 0 0 1 1091.66 1126)">
   <path d="M 86.9629 -33.9844 L 88.1836 -35.2539 C 90.3809 -37.6953 90.5273 -40.4785 88.0859 -42.8711 L 86.6211 -44.3848 C 93.8965 -50.9277 102.197 -52.002 107.227 -57.0801 C 114.355 -64.2578 112.061 -74.3164 107.031 -79.3457 C 102.051 -84.375 92.0898 -86.5234 84.8145 -79.541 C 79.6387 -74.5605 78.6133 -66.2109 72.0703 -58.8867 L 70.6055 -60.4004 C 68.1641 -62.793 65.3809 -62.6465 62.9883 -60.4492 L 61.7188 -59.2773 C 58.7891 -56.5918 59.375 -54.0527 61.8164 -51.6113 L 64.1113 -49.3652 L 27.2461 -12.5 C 12.5 2.24609 19.2871 0.341797 11.2305 11.6699 L 15.1367 15.8691 C 26.123 7.86133 24.9512 15.3809 39.9414 0.439453 L 77.0508 -36.4258 L 79.3457 -34.1309 C 81.7871 -31.6895 84.3262 -31.0547 86.9629 -33.9844 Z M 63.7695 -35.8887 C 61.5723 -38.2324 62.0117 -40.3809 64.2578 -42.6758 L 67.4805 -45.9473 L 73.7305 -39.6973 L 70.3125 -36.3281 C 68.3105 -34.375 65.8203 -33.6426 63.7695 -35.8887 Z"/>
  </g>
  <g id="Thin-M" transform="matrix(1 0 0 1 795.875 1126)">
   <path d="M 85.8887 -34.6191 L 86.8164 -35.6445 C 88.8672 -37.8906 88.9648 -40.4785 86.7676 -42.7246 L 85.2539 -44.3359 C 92.334 -50.6836 100.586 -51.9531 105.469 -56.8848 C 112.354 -63.8672 110.156 -73.6328 105.273 -78.5156 C 100.439 -83.3984 90.7715 -85.498 83.6914 -78.7109 C 78.6621 -73.877 77.4902 -65.5273 71.0938 -58.4473 L 69.5312 -60.0098 C 67.2363 -62.207 64.6484 -62.0605 62.4023 -60.0586 L 61.377 -59.1309 C 58.5938 -56.6895 59.2285 -54.248 61.4746 -52.002 L 64.0625 -49.4141 L 27.2461 -12.6465 C 12.8906 1.70898 19.043 0.292969 11.2305 11.2793 L 14.5508 14.9414 C 25.2441 7.12891 24.4629 14.0625 39.0625 -0.439453 L 76.123 -37.3535 L 78.7598 -34.7168 C 81.0059 -32.4707 83.4961 -31.8359 85.8887 -34.6191 Z M 64.1113 -37.2559 C 61.4746 -40.0879 61.9629 -42.7246 64.6484 -45.4102 L 66.3574 -47.1191 L 73.877 -39.5996 L 71.9238 -37.7441 C 69.5312 -35.4004 66.6504 -34.4727 64.1113 -37.2559 Z"/>
  </g>
  <g id="Ultralight-M" transform="matrix(1 0 0 1 499.653 1126)">
   <path d="M 85.3516 -34.9121 L 86.1328 -35.8398 C 88.0859 -37.9883 88.1836 -40.4785 86.084 -42.6758 L 84.5215 -44.2871 C 91.5039 -50.5859 99.8047 -51.9531 104.59 -56.8359 C 111.377 -63.6719 109.18 -73.291 104.395 -78.125 C 99.6094 -82.9102 90.0879 -84.9609 83.1055 -78.2715 C 78.1738 -73.584 76.8555 -65.2344 70.6055 -58.252 L 68.9453 -59.8145 C 66.7969 -61.9141 64.3066 -61.7188 62.1094 -59.8633 L 61.1816 -59.082 C 58.5449 -56.7871 59.1309 -54.3457 61.3281 -52.1484 L 64.0137 -49.4629 L 27.2461 -12.6953 C 13.1348 1.41602 18.9453 0.244141 11.2305 11.084 L 14.2578 14.4531 C 24.7559 6.78711 24.2188 13.3789 38.623 -0.878906 L 75.6836 -37.793 L 78.4668 -35.0586 C 80.6152 -32.8613 83.0566 -32.2266 85.3516 -34.9121 Z M 64.3066 -37.9395 C 61.377 -41.0645 61.9629 -43.9453 64.8438 -46.8262 L 65.7227 -47.7539 L 73.9258 -39.5508 L 72.7539 -38.4277 C 70.166 -35.9375 67.0898 -34.9121 64.3066 -37.9395 Z"/>
  </g>
  <g id="Black-S" transform="matrix(1 0 0 1 2877.39 696)">
   <path d="M 77.6855 -26.6113 L 79.3457 -28.2715 C 82.4219 -31.3477 82.3242 -35.0098 79.248 -38.2812 L 78.5156 -39.0625 C 85.6934 -44.9707 92.627 -44.5801 98.0469 -50.0488 C 105.029 -57.1289 104.932 -68.5059 97.9004 -75.5859 C 91.0156 -82.666 79.4922 -82.8613 72.3633 -75.8301 C 66.7969 -70.3613 67.2363 -63.4766 61.2793 -56.2988 L 60.6445 -57.0312 C 57.8125 -60.3027 53.7598 -60.1562 50.5371 -57.0801 L 48.8281 -55.4688 C 45.4102 -52.2461 45.5078 -48.7793 48.9746 -45.3613 L 50.1953 -44.1406 L 26.123 -20.0195 C 11.5234 -5.37109 12.8906 1.26953 8.78906 6.29883 L 14.9414 12.793 C 19.9707 8.49609 27.7832 10.2051 42.041 -3.95508 L 66.3574 -28.0762 L 67.6758 -26.7578 C 71.1426 -23.291 74.3652 -23.291 77.6855 -26.6113 Z M 53.0273 -30.3711 C 52.2949 -31.2012 52.2949 -31.8848 53.2715 -32.8613 L 57.373 -36.9629 L 59.4238 -34.9609 L 55.2734 -30.8105 C 54.2969 -29.9316 53.5645 -29.834 53.0273 -30.3711 Z"/>
  </g>
  <g id="Heavy-S" transform="matrix(1 0 0 1 2582.32 696)">
   <path d="M 75.6836 -28.2715 L 77.2461 -29.834 C 80.0293 -32.666 79.9805 -36.0352 77.1484 -39.0137 L 76.3184 -39.8438 C 83.2031 -45.6055 90.0391 -45.459 95.1172 -50.6348 C 101.807 -57.4219 101.318 -68.0176 94.9707 -74.4141 C 88.7695 -80.7617 78.0762 -81.3477 71.1914 -74.6094 C 65.9668 -69.4824 66.1621 -62.6953 60.3516 -55.8105 L 59.6191 -56.6406 C 56.9824 -59.6191 53.3203 -59.4727 50.3906 -56.6895 L 48.7793 -55.1758 C 45.6055 -52.1484 45.8008 -49.0234 48.9258 -45.9473 L 50.1953 -44.6289 L 25 -19.3848 C 11.0352 -5.37109 13.4766 -0.78125 8.78906 5.27344 L 14.3555 11.1328 C 20.3125 6.29883 25.9277 9.13086 39.6973 -4.54102 L 65.1367 -29.7852 L 66.5039 -28.418 C 69.6289 -25.293 72.6074 -25.1465 75.6836 -28.2715 Z M 52.1973 -31.3477 C 51.3672 -32.2754 51.416 -33.1055 52.4902 -34.1797 L 56.5918 -38.2812 L 58.9844 -35.8887 L 54.8828 -31.7383 C 53.8574 -30.8105 52.8809 -30.6152 52.1973 -31.3477 Z"/>
  </g>
  <g id="Bold-S" transform="matrix(1 0 0 1 2287.44 696)">
   <path d="M 73.4375 -30.127 L 74.8535 -31.5918 C 77.3438 -34.1309 77.3438 -37.1582 74.7559 -39.7949 L 73.8281 -40.7227 C 80.4199 -46.3379 87.1094 -46.4844 91.8457 -51.2695 C 98.2422 -57.7637 97.2656 -67.4805 91.6992 -73.0957 C 86.2793 -78.6621 76.4648 -79.6387 69.9219 -73.291 C 65.0391 -68.5059 64.9902 -61.8164 59.3262 -55.2246 L 58.4961 -56.2012 C 56.0547 -58.8379 52.832 -58.7402 50.1953 -56.25 L 48.7305 -54.834 C 45.8008 -52.0508 46.0938 -49.3164 48.877 -46.5332 L 50.2441 -45.166 L 23.7305 -18.6523 C 10.4492 -5.37109 14.1113 -3.02734 8.78906 4.10156 L 13.6719 9.22852 C 20.6543 3.85742 23.877 7.95898 37.0605 -5.17578 L 63.7695 -31.6895 L 65.1855 -30.2734 C 67.9688 -27.4902 70.6055 -27.2461 73.4375 -30.127 Z M 51.3184 -32.4219 C 50.3418 -33.4961 50.4395 -34.4238 51.6113 -35.6445 L 55.6641 -39.7461 L 58.5449 -36.9141 L 54.3945 -32.8125 C 53.3203 -31.7383 52.1484 -31.543 51.3184 -32.4219 Z"/>
  </g>
  <g id="Semibold-S" transform="matrix(1 0 0 1 1992 696)">
   <path d="M 71.875 -31.4453 L 73.1934 -32.8125 C 75.4883 -35.1562 75.5371 -37.9395 73.1445 -40.3809 L 72.168 -41.3574 C 78.4668 -46.875 85.1074 -47.168 89.5996 -51.709 C 95.8008 -57.959 94.4336 -67.1387 89.4531 -72.168 C 84.5215 -77.1973 75.3418 -78.4668 69.043 -72.3145 C 64.4043 -67.8223 64.1602 -61.1816 58.6426 -54.8828 L 57.7148 -55.8594 C 55.4199 -58.3008 52.4902 -58.2031 50.0977 -55.9082 L 48.6816 -54.5898 C 45.9473 -52.002 46.2891 -49.5117 48.8281 -46.9727 L 50.2441 -45.5566 L 22.8516 -18.1641 C 10.0586 -5.37109 14.5508 -4.58984 8.78906 3.27148 L 13.2324 7.95898 C 20.8984 2.19727 22.4609 7.12891 35.2539 -5.61523 L 62.8418 -33.0078 L 64.3066 -31.543 C 66.7969 -29.0039 69.2383 -28.7109 71.875 -31.4453 Z M 50.6836 -33.1543 C 49.6094 -34.3262 49.8047 -35.3516 51.0254 -36.6211 L 55.0781 -40.7715 L 58.2031 -37.6465 L 54.1016 -33.4961 C 52.9785 -32.4219 51.6113 -32.1289 50.6836 -33.1543 Z"/>
  </g>
  <g id="Medium-S" transform="matrix(1 0 0 1 1696.24 696)">
   <path d="M 70.7031 -32.373 L 71.9727 -33.6914 C 74.1211 -35.9375 74.1699 -38.5254 71.9238 -40.7715 L 70.8496 -41.7969 C 77.002 -47.2168 83.5938 -47.7051 87.8906 -52.0508 C 93.8965 -58.1543 92.334 -66.8457 87.7441 -71.4844 C 83.2031 -76.0742 74.5117 -77.5391 68.3594 -71.6309 C 63.9648 -67.334 63.5254 -60.7422 58.1055 -54.5898 L 57.0801 -55.6152 C 54.9316 -57.9102 52.2461 -57.8125 50 -55.6641 L 48.6816 -54.3945 C 46.0938 -51.9531 46.4355 -49.6582 48.7793 -47.3145 L 50.2441 -45.8496 L 22.2168 -17.7734 C 9.76562 -5.32227 14.8926 -5.76172 8.78906 2.63672 L 12.8906 6.98242 C 21.0938 0.878906 21.3867 6.49414 33.8867 -5.95703 L 62.1094 -33.9844 L 63.623 -32.5195 C 65.9668 -30.1758 68.2129 -29.834 70.7031 -32.373 Z M 50.1953 -33.6914 C 49.0723 -34.9609 49.2676 -36.084 50.5859 -37.4023 L 54.5898 -41.5039 L 57.959 -38.1348 L 53.8574 -34.082 C 52.6855 -32.9102 51.2207 -32.6172 50.1953 -33.6914 Z"/>
  </g>
  <g id="Regular-S" transform="matrix(1 0 0 1 1400.77 696)">
   <path d="M 69.1406 -33.6426 L 70.3613 -34.9121 C 72.2656 -36.9629 72.3633 -39.3066 70.3125 -41.3574 L 69.1895 -42.4316 C 75.0977 -47.7051 81.5918 -48.3887 85.6934 -52.5391 C 91.4551 -58.3496 89.5508 -66.4551 85.5469 -70.5566 C 81.4941 -74.6582 73.4375 -76.416 67.4805 -70.7031 C 63.3301 -66.6504 62.6953 -60.1074 57.4219 -54.1992 L 56.2988 -55.3223 C 54.2969 -57.4219 51.9043 -57.3242 49.9023 -55.3711 L 48.6328 -54.1992 C 46.2402 -51.8555 46.6797 -49.8047 48.7305 -47.7539 L 50.2441 -46.2402 L 21.3379 -17.2852 C 9.375 -5.32227 15.2832 -7.32422 8.78906 1.85547 L 12.4512 5.71289 C 21.3379 -0.78125 19.9707 5.71289 32.1289 -6.39648 L 61.1816 -35.3027 L 62.7441 -33.7402 C 64.7949 -31.6895 66.8457 -31.25 69.1406 -33.6426 Z M 49.6094 -34.4238 C 48.3887 -35.791 48.6328 -37.0117 50 -38.4277 L 53.9551 -42.5293 L 57.6172 -38.8672 L 53.5645 -34.7656 C 52.3438 -33.5449 50.7324 -33.2031 49.6094 -34.4238 Z"/>
  </g>
  <g id="Light-S" transform="matrix(1 0 0 1 1104.7 696)">
   <path d="M 68.457 -34.082 L 69.4336 -35.1562 C 71.2402 -37.1094 71.3379 -39.3066 69.3848 -41.2598 L 68.2617 -42.3828 C 74.0234 -47.5586 80.5176 -48.3887 84.5215 -52.3926 C 90.1367 -58.1055 88.3301 -66.0156 84.375 -70.0195 C 80.4199 -73.9746 72.5098 -75.6836 66.748 -70.166 C 62.6465 -66.2109 61.9141 -59.668 56.7383 -53.9062 L 55.6152 -55.0781 C 53.6621 -56.9824 51.416 -56.8848 49.5117 -55.127 L 48.4375 -54.1016 C 46.0938 -51.9531 46.582 -49.9512 48.5352 -47.998 L 50.2441 -46.2891 L 21.3379 -17.3828 C 9.66797 -5.71289 15.1367 -7.37305 8.78906 1.61133 L 12.0117 5.07812 C 20.752 -1.26953 19.6777 4.78516 31.543 -6.98242 L 60.5957 -35.8887 L 62.3047 -34.1797 C 64.3066 -32.2266 66.3086 -31.7383 68.457 -34.082 Z M 49.8535 -35.3516 C 48.291 -37.0117 48.584 -38.5742 50.2441 -40.2344 L 53.2227 -43.3105 L 57.7148 -38.7695 L 54.6387 -35.6934 C 53.1738 -34.2773 51.3184 -33.7402 49.8535 -35.3516 Z"/>
  </g>
  <g id="Thin-S" transform="matrix(1 0 0 1 808.839 696)">
   <path d="M 67.4805 -34.6191 L 68.2617 -35.498 C 69.9219 -37.2559 70.0195 -39.3555 68.2129 -41.1621 L 67.041 -42.3828 C 72.6074 -47.4121 79.1016 -48.3398 82.959 -52.2461 C 88.4277 -57.7637 86.6699 -65.4785 82.8125 -69.2871 C 79.0039 -73.1445 71.3379 -74.8047 65.7715 -69.4336 C 61.8164 -65.6738 60.8887 -59.1309 55.8594 -53.5156 L 54.6387 -54.7363 C 52.8809 -56.4941 50.7812 -56.3477 49.0234 -54.7852 L 48.1445 -54.0039 C 45.9473 -52.0508 46.4355 -50.0977 48.2422 -48.291 L 50.1953 -46.3379 L 21.3379 -17.4805 C 10.0098 -6.20117 14.9902 -7.37305 8.78906 1.26953 L 11.5234 4.24805 C 19.9219 -1.9043 19.2383 3.61328 30.7617 -7.8125 L 59.8145 -36.7188 L 61.8164 -34.7168 C 63.623 -32.9102 65.5762 -32.4219 67.4805 -34.6191 Z M 50.1465 -36.5234 C 48.1934 -38.6719 48.584 -40.6738 50.5859 -42.6758 L 52.1973 -44.3359 L 57.8125 -38.6719 L 56.0547 -36.9141 C 54.248 -35.1562 52.0508 -34.4727 50.1465 -36.5234 Z"/>
  </g>
  <g id="Ultralight-S" transform="matrix(1 0 0 1 512.543 696)">
   <path d="M 66.9922 -34.9121 L 67.6758 -35.6445 C 69.1895 -37.4023 69.2871 -39.3555 67.627 -41.0645 L 66.4062 -42.334 C 71.875 -47.2656 78.3691 -48.3398 82.1777 -52.1484 C 87.5 -57.5684 85.791 -65.1367 82.0312 -68.9453 C 78.2227 -72.7051 70.752 -74.3164 65.2344 -69.0918 C 61.377 -65.332 60.3516 -58.7891 55.4199 -53.3203 L 54.1504 -54.541 C 52.4414 -56.2012 50.4883 -56.0547 48.7305 -54.5898 L 47.998 -53.9062 C 45.8496 -52.0996 46.3379 -50.1953 48.0957 -48.4375 L 50.1465 -46.3867 L 21.3379 -17.5781 C 10.2051 -6.44531 14.8438 -7.42188 8.78906 1.12305 L 11.2305 3.80859 C 19.5312 -2.19727 19.043 3.02734 30.3711 -8.20312 L 59.4238 -37.1094 L 61.5234 -35.0098 C 63.2812 -33.252 65.1855 -32.7637 66.9922 -34.9121 Z M 50.293 -37.1582 C 48.0957 -39.5508 48.5352 -41.748 50.7324 -43.9453 L 51.6602 -44.873 L 57.8613 -38.623 L 56.7871 -37.5488 C 54.7852 -35.6445 52.4414 -34.8633 50.293 -37.1582 Z"/>
  </g>
 </g>
</svg>
