<?xml version="1.0" encoding="UTF-8"?>
<!--Generator: Apple Native CoreSVG 148-->
<!DOCTYPE svg
PUBLIC "-//W3C//DTD SVG 1.1//EN"
       "http://www.w3.org/Graphics/SVG/1.1/DTD/svg11.dtd">
<svg version="1.1" xmlns="http://www.w3.org/2000/svg" xmlns:xlink="http://www.w3.org/1999/xlink" width="3300" height="2200">
 <!--glyph: "uni10077D.medium", point size: 100.000000, font version: "Version 16.0d11e1", template writer version: "8"-->
 <g id="Notes">
  <rect height="2200" id="artboard" style="fill:white;opacity:1" width="3300" x="0" y="0"/>
  <line id="" style="fill:none;stroke:black;opacity:1;stroke-width:0.5;" x1="263" x2="3036" y1="292" y2="292"/>
  <text style="stroke:none;fill:black;font-family:-apple-system,&quot;SF Pro Display&quot;,&quot;SF Pro Text&quot;,Helvetica,sans-serif;font-weight:bold;" transform="matrix(1 0 0 1 263 322)">Weight/Scale Variations</text>
  <text style="stroke:none;fill:black;font-family:-apple-system,&quot;SF Pro Display&quot;,&quot;SF Pro Text&quot;,Helvetica,sans-serif;text-anchor:middle;" transform="matrix(1 0 0 1 559.711 322)">Ultralight</text>
  <text style="stroke:none;fill:black;font-family:-apple-system,&quot;SF Pro Display&quot;,&quot;SF Pro Text&quot;,Helvetica,sans-serif;text-anchor:middle;" transform="matrix(1 0 0 1 856.422 322)">Thin</text>
  <text style="stroke:none;fill:black;font-family:-apple-system,&quot;SF Pro Display&quot;,&quot;SF Pro Text&quot;,Helvetica,sans-serif;text-anchor:middle;" transform="matrix(1 0 0 1 1153.13 322)">Light</text>
  <text style="stroke:none;fill:black;font-family:-apple-system,&quot;SF Pro Display&quot;,&quot;SF Pro Text&quot;,Helvetica,sans-serif;text-anchor:middle;" transform="matrix(1 0 0 1 1449.84 322)">Regular</text>
  <text style="stroke:none;fill:black;font-family:-apple-system,&quot;SF Pro Display&quot;,&quot;SF Pro Text&quot;,Helvetica,sans-serif;text-anchor:middle;" transform="matrix(1 0 0 1 1746.56 322)">Medium</text>
  <text style="stroke:none;fill:black;font-family:-apple-system,&quot;SF Pro Display&quot;,&quot;SF Pro Text&quot;,Helvetica,sans-serif;text-anchor:middle;" transform="matrix(1 0 0 1 2043.27 322)">Semibold</text>
  <text style="stroke:none;fill:black;font-family:-apple-system,&quot;SF Pro Display&quot;,&quot;SF Pro Text&quot;,Helvetica,sans-serif;text-anchor:middle;" transform="matrix(1 0 0 1 2339.98 322)">Bold</text>
  <text style="stroke:none;fill:black;font-family:-apple-system,&quot;SF Pro Display&quot;,&quot;SF Pro Text&quot;,Helvetica,sans-serif;text-anchor:middle;" transform="matrix(1 0 0 1 2636.69 322)">Heavy</text>
  <text style="stroke:none;fill:black;font-family:-apple-system,&quot;SF Pro Display&quot;,&quot;SF Pro Text&quot;,Helvetica,sans-serif;text-anchor:middle;" transform="matrix(1 0 0 1 2933.4 322)">Black</text>
  <line id="" style="fill:none;stroke:black;opacity:1;stroke-width:0.5;" x1="263" x2="3036" y1="1903" y2="1903"/>
  <g id="" transform="matrix(1 0 0 1 263 1933)">
   <path d="M 9.24805 0.830078 C 13.5547 0.830078 17.1387 -2.74414 17.1387 -7.05078 C 17.1387 -11.3574 13.5449 -14.9316 9.23828 -14.9316 C 4.94141 -14.9316 1.36719 -11.3574 1.36719 -7.05078 C 1.36719 -2.74414 4.95117 0.830078 9.24805 0.830078 Z M 9.24805 -0.654297 C 5.70312 -0.654297 2.87109 -3.49609 2.87109 -7.05078 C 2.87109 -10.6055 5.69336 -13.4473 9.23828 -13.4473 C 12.793 -13.4473 15.6348 -10.6055 15.6445 -7.05078 C 15.6543 -3.49609 12.8027 -0.654297 9.24805 -0.654297 Z M 9.22852 -3.62305 C 9.69727 -3.62305 9.9707 -3.93555 9.9707 -4.45312 L 9.9707 -6.31836 L 12.002 -6.31836 C 12.5 -6.31836 12.832 -6.57227 12.832 -7.04102 C 12.832 -7.51953 12.5195 -7.7832 12.002 -7.7832 L 9.9707 -7.7832 L 9.9707 -9.81445 C 9.9707 -10.332 9.69727 -10.6543 9.22852 -10.6543 C 8.75977 -10.6543 8.50586 -10.3125 8.50586 -9.81445 L 8.50586 -7.7832 L 6.49414 -7.7832 C 5.97656 -7.7832 5.64453 -7.51953 5.64453 -7.04102 C 5.64453 -6.57227 5.99609 -6.31836 6.49414 -6.31836 L 8.50586 -6.31836 L 8.50586 -4.45312 C 8.50586 -3.95508 8.75977 -3.62305 9.22852 -3.62305 Z"/>
  </g>
  <g id="" transform="matrix(1 0 0 1 281.506 1933)">
   <path d="M 11.709 2.91016 C 17.1582 2.91016 21.6699 -1.61133 21.6699 -7.05078 C 21.6699 -12.5 17.1484 -17.0117 11.6992 -17.0117 C 6.25977 -17.0117 1.74805 -12.5 1.74805 -7.05078 C 1.74805 -1.61133 6.26953 2.91016 11.709 2.91016 Z M 11.709 1.25 C 7.09961 1.25 3.41797 -2.44141 3.41797 -7.05078 C 3.41797 -11.6602 7.08984 -15.3516 11.6992 -15.3516 C 16.3086 -15.3516 20 -11.6602 20.0098 -7.05078 C 20.0195 -2.44141 16.3184 1.25 11.709 1.25 Z M 11.6797 -2.66602 C 12.207 -2.66602 12.5098 -3.01758 12.5098 -3.59375 L 12.5098 -6.23047 L 15.3223 -6.23047 C 15.8691 -6.23047 16.25 -6.51367 16.25 -7.03125 C 16.25 -7.55859 15.8887 -7.86133 15.3223 -7.86133 L 12.5098 -7.86133 L 12.5098 -10.6836 C 12.5098 -11.25 12.207 -11.6113 11.6797 -11.6113 C 11.1621 -11.6113 10.8789 -11.2305 10.8789 -10.6836 L 10.8789 -7.86133 L 8.07617 -7.86133 C 7.50977 -7.86133 7.13867 -7.55859 7.13867 -7.03125 C 7.13867 -6.51367 7.5293 -6.23047 8.07617 -6.23047 L 10.8789 -6.23047 L 10.8789 -3.59375 C 10.8789 -3.03711 11.1621 -2.66602 11.6797 -2.66602 Z"/>
  </g>
  <g id="" transform="matrix(1 0 0 1 304.924 1933)">
   <path d="M 14.9707 5.66406 C 21.9336 5.66406 27.6953 -0.0976562 27.6953 -7.05078 C 27.6953 -14.0137 21.9238 -19.7754 14.9609 -19.7754 C 8.00781 -19.7754 2.25586 -14.0137 2.25586 -7.05078 C 2.25586 -0.0976562 8.01758 5.66406 14.9707 5.66406 Z M 14.9707 3.84766 C 8.93555 3.84766 4.08203 -1.01562 4.08203 -7.05078 C 4.08203 -13.0957 8.92578 -17.9492 14.9609 -17.9492 C 21.0059 -17.9492 25.8594 -13.0957 25.8691 -7.05078 C 25.8789 -1.01562 21.0156 3.84766 14.9707 3.84766 Z M 14.9414 -1.38672 C 15.5176 -1.38672 15.8594 -1.77734 15.8594 -2.38281 L 15.8594 -6.13281 L 19.7754 -6.13281 C 20.3711 -6.13281 20.7812 -6.46484 20.7812 -7.02148 C 20.7812 -7.59766 20.3906 -7.93945 19.7754 -7.93945 L 15.8594 -7.93945 L 15.8594 -11.8652 C 15.8594 -12.4805 15.5176 -12.8711 14.9414 -12.8711 C 14.375 -12.8711 14.0527 -12.4609 14.0527 -11.8652 L 14.0527 -7.93945 L 10.1465 -7.93945 C 9.53125 -7.93945 9.13086 -7.59766 9.13086 -7.02148 C 9.13086 -6.46484 9.55078 -6.13281 10.1465 -6.13281 L 14.0527 -6.13281 L 14.0527 -2.38281 C 14.0527 -1.79688 14.375 -1.38672 14.9414 -1.38672 Z"/>
  </g>
  <text style="stroke:none;fill:black;font-family:-apple-system,&quot;SF Pro Display&quot;,&quot;SF Pro Text&quot;,Helvetica,sans-serif;font-weight:bold;" transform="matrix(1 0 0 1 263 1953)">Design Variations</text>
  <text style="stroke:none;fill:black;font-family:-apple-system,&quot;SF Pro Display&quot;,&quot;SF Pro Text&quot;,Helvetica,sans-serif;" transform="matrix(1 0 0 1 263 1971)">Symbols are supported in up to nine weights and three scales.</text>
  <text style="stroke:none;fill:black;font-family:-apple-system,&quot;SF Pro Display&quot;,&quot;SF Pro Text&quot;,Helvetica,sans-serif;" transform="matrix(1 0 0 1 263 1989)">For optimal layout with text and other symbols, vertically align</text>
  <text style="stroke:none;fill:black;font-family:-apple-system,&quot;SF Pro Display&quot;,&quot;SF Pro Text&quot;,Helvetica,sans-serif;" transform="matrix(1 0 0 1 263 2007)">symbols with the adjacent text.</text>
  <line id="" style="fill:none;stroke:#00AEEF;stroke-width:0.5;opacity:1.0;" x1="776" x2="776" y1="1919" y2="1933"/>
  <g id="" transform="matrix(1 0 0 1 776 1933)">
   <path d="M 3.31055 0.126953 C 3.82812 0.126953 4.08203 -0.0683594 4.26758 -0.605469 L 5.52734 -4.0625 L 11.2891 -4.0625 L 12.5488 -0.605469 C 12.7344 -0.0683594 12.9883 0.126953 13.4961 0.126953 C 14.0137 0.126953 14.3457 -0.185547 14.3457 -0.673828 C 14.3457 -0.839844 14.3164 -0.986328 14.2383 -1.20117 L 9.6582 -13.3887 C 9.43359 -13.9941 9.0332 -14.2871 8.4082 -14.2871 C 7.80273 -14.2871 7.39258 -13.9941 7.17773 -13.3984 L 2.59766 -1.19141 C 2.51953 -0.976562 2.49023 -0.830078 2.49023 -0.664062 C 2.49023 -0.175781 2.80273 0.126953 3.31055 0.126953 Z M 6.00586 -5.53711 L 8.37891 -12.1094 L 8.42773 -12.1094 L 10.8008 -5.53711 Z"/>
  </g>
  <line id="" style="fill:none;stroke:#00AEEF;stroke-width:0.5;opacity:1.0;" x1="792.836" x2="792.836" y1="1919" y2="1933"/>
  <text style="stroke:none;fill:black;font-family:-apple-system,&quot;SF Pro Display&quot;,&quot;SF Pro Text&quot;,Helvetica,sans-serif;font-weight:bold;" transform="matrix(1 0 0 1 776 1953)">Margins</text>
  <text style="stroke:none;fill:black;font-family:-apple-system,&quot;SF Pro Display&quot;,&quot;SF Pro Text&quot;,Helvetica,sans-serif;" transform="matrix(1 0 0 1 776 1971)">Leading and trailing margins on the left and right side of each symbol</text>
  <text style="stroke:none;fill:black;font-family:-apple-system,&quot;SF Pro Display&quot;,&quot;SF Pro Text&quot;,Helvetica,sans-serif;" transform="matrix(1 0 0 1 776 1989)">can be adjusted by modifying the x-location of the margin guidelines.</text>
  <text style="stroke:none;fill:black;font-family:-apple-system,&quot;SF Pro Display&quot;,&quot;SF Pro Text&quot;,Helvetica,sans-serif;" transform="matrix(1 0 0 1 776 2007)">Modifications are automatically applied proportionally to all</text>
  <text style="stroke:none;fill:black;font-family:-apple-system,&quot;SF Pro Display&quot;,&quot;SF Pro Text&quot;,Helvetica,sans-serif;" transform="matrix(1 0 0 1 776 2025)">scales and weights.</text>
  <g id="" transform="matrix(1 0 0 1 1289 1933)">
   <path d="M 2.8418 1.86523 L 4.54102 3.57422 C 5.40039 4.44336 6.38672 4.38477 7.31445 3.35938 L 17.4902 -7.85156 C 17.7539 -7.76367 18.0273 -7.7832 18.3398 -7.8418 L 19.4043 -8.03711 L 20.0684 -7.36328 L 20.0293 -6.80664 C 19.9902 -6.30859 20.1172 -5.92773 20.6055 -5.44922 L 21.3672 -4.70703 C 21.8457 -4.22852 22.4609 -4.19922 22.9297 -4.66797 L 25.8398 -7.58789 C 26.3086 -8.05664 26.2891 -8.65234 25.8105 -9.13086 L 25.0391 -9.89258 C 24.5605 -10.3711 24.1895 -10.5273 23.7109 -10.4883 L 23.1348 -10.4395 L 22.4902 -11.0742 L 22.7344 -12.1973 C 22.8613 -12.7637 22.7051 -13.2031 22.1191 -13.7891 L 19.9219 -15.9766 C 16.582 -19.2969 12.1484 -19.2188 9.25781 -16.3281 C 8.83789 -15.918 8.80859 -15.3418 9.04297 -14.9512 C 9.27734 -14.5898 9.73633 -14.3555 10.3809 -14.5215 C 11.8457 -14.8633 13.3691 -14.9219 14.7949 -13.9844 L 14.209 -12.5293 C 14.0137 -12.0508 13.9844 -11.6504 14.1113 -11.2891 L 3.04688 -0.898438 C 2.06055 0.0195312 1.98242 0.996094 2.8418 1.86523 Z M 10.752 -15.957 C 13.1836 -17.7344 16.4746 -17.4316 18.7012 -15.2051 L 21.1328 -12.793 C 21.3672 -12.5586 21.4062 -12.373 21.3379 -12.0312 L 21.0156 -10.5469 L 22.5195 -9.0625 L 23.5059 -9.12109 C 23.7598 -9.13086 23.8379 -9.11133 24.0332 -8.91602 L 24.6094 -8.33984 L 22.168 -5.89844 L 21.5918 -6.47461 C 21.3965 -6.66992 21.3672 -6.74805 21.377 -7.01172 L 21.4453 -7.98828 L 19.9512 -9.47266 L 18.4277 -9.21875 C 18.1055 -9.15039 17.959 -9.17969 17.7148 -9.41406 L 15.7129 -11.416 C 15.459 -11.6504 15.4297 -11.8164 15.5859 -12.1875 L 16.4648 -14.2773 C 14.9023 -15.7324 12.8711 -16.3574 10.8398 -15.7617 C 10.6836 -15.7227 10.625 -15.8496 10.752 -15.957 Z M 5.27344 2.30469 L 4.10156 1.14258 C 3.63281 0.683594 3.74023 0.341797 4.14062 -0.0195312 L 14.9512 -10.1953 L 16.416 -8.71094 L 6.42578 2.27539 C 6.07422 2.67578 5.74219 2.77344 5.27344 2.30469 Z"/>
  </g>
  <text style="stroke:none;fill:black;font-family:-apple-system,&quot;SF Pro Display&quot;,&quot;SF Pro Text&quot;,Helvetica,sans-serif;font-weight:bold;" transform="matrix(1 0 0 1 1289 1953)">Exporting</text>
  <text style="stroke:none;fill:black;font-family:-apple-system,&quot;SF Pro Display&quot;,&quot;SF Pro Text&quot;,Helvetica,sans-serif;" transform="matrix(1 0 0 1 1289 1971)">Symbols should be outlined when exporting to ensure the</text>
  <text style="stroke:none;fill:black;font-family:-apple-system,&quot;SF Pro Display&quot;,&quot;SF Pro Text&quot;,Helvetica,sans-serif;" transform="matrix(1 0 0 1 1289 1989)">design is preserved when submitting to Xcode.</text>
  <text id="template-version" style="stroke:none;fill:black;font-family:-apple-system,&quot;SF Pro Display&quot;,&quot;SF Pro Text&quot;,Helvetica,sans-serif;text-anchor:end;" transform="matrix(1 0 0 1 3036 1933)">Template v.2.0</text>
  <text style="stroke:none;fill:black;font-family:-apple-system,&quot;SF Pro Display&quot;,&quot;SF Pro Text&quot;,Helvetica,sans-serif;text-anchor:end;" transform="matrix(1 0 0 1 3036 1951)">Requires Xcode 12 or greater</text>
  <text style="stroke:none;fill:black;font-family:-apple-system,&quot;SF Pro Display&quot;,&quot;SF Pro Text&quot;,Helvetica,sans-serif;text-anchor:end;" transform="matrix(1 0 0 1 3036 1969)">Generated from figure.wave.circle.fill</text>
  <text style="stroke:none;fill:black;font-family:-apple-system,&quot;SF Pro Display&quot;,&quot;SF Pro Text&quot;,Helvetica,sans-serif;text-anchor:end;" transform="matrix(1 0 0 1 3036 1987)">Typeset at 100 points</text>
  <text style="stroke:none;fill:black;font-family:-apple-system,&quot;SF Pro Display&quot;,&quot;SF Pro Text&quot;,Helvetica,sans-serif;" transform="matrix(1 0 0 1 263 726)">Small</text>
  <text style="stroke:none;fill:black;font-family:-apple-system,&quot;SF Pro Display&quot;,&quot;SF Pro Text&quot;,Helvetica,sans-serif;" transform="matrix(1 0 0 1 263 1156)">Medium</text>
  <text style="stroke:none;fill:black;font-family:-apple-system,&quot;SF Pro Display&quot;,&quot;SF Pro Text&quot;,Helvetica,sans-serif;" transform="matrix(1 0 0 1 263 1586)">Large</text>
 </g>
 <g id="Guides">
  <g id="H-reference" style="fill:#27AAE1;stroke:none;" transform="matrix(1 0 0 1 339 696)">
   <path d="M 0.976562 0 L 3.66211 0 L 12.9883 -24.4629 L 45.7031 -24.4629 L 55.0781 0 L 57.7148 0 L 30.6152 -70.459 L 28.125 -70.459 Z M 29.2969 -67.1387 L 29.3945 -67.1387 L 44.873 -26.709 L 13.8672 -26.709 Z"/>
  </g>
  <line id="Baseline-S" style="fill:none;stroke:#27AAE1;opacity:1;stroke-width:0.5;" x1="263" x2="3036" y1="696" y2="696"/>
  <line id="Capline-S" style="fill:none;stroke:#27AAE1;opacity:1;stroke-width:0.5;" x1="263" x2="3036" y1="625.541" y2="625.541"/>
  <g id="H-reference" style="fill:#27AAE1;stroke:none;" transform="matrix(1 0 0 1 339 1126)">
   <path d="M 0.976562 0 L 3.66211 0 L 12.9883 -24.4629 L 45.7031 -24.4629 L 55.0781 0 L 57.7148 0 L 30.6152 -70.459 L 28.125 -70.459 Z M 29.2969 -67.1387 L 29.3945 -67.1387 L 44.873 -26.709 L 13.8672 -26.709 Z"/>
  </g>
  <line id="Baseline-M" style="fill:none;stroke:#27AAE1;opacity:1;stroke-width:0.5;" x1="263" x2="3036" y1="1126" y2="1126"/>
  <line id="Capline-M" style="fill:none;stroke:#27AAE1;opacity:1;stroke-width:0.5;" x1="263" x2="3036" y1="1055.54" y2="1055.54"/>
  <g id="H-reference" style="fill:#27AAE1;stroke:none;" transform="matrix(1 0 0 1 339 1556)">
   <path d="M 0.976562 0 L 3.66211 0 L 12.9883 -24.4629 L 45.7031 -24.4629 L 55.0781 0 L 57.7148 0 L 30.6152 -70.459 L 28.125 -70.459 Z M 29.2969 -67.1387 L 29.3945 -67.1387 L 44.873 -26.709 L 13.8672 -26.709 Z"/>
  </g>
  <line id="Baseline-L" style="fill:none;stroke:#27AAE1;opacity:1;stroke-width:0.5;" x1="263" x2="3036" y1="1556" y2="1556"/>
  <line id="Capline-L" style="fill:none;stroke:#27AAE1;opacity:1;stroke-width:0.5;" x1="263" x2="3036" y1="1485.54" y2="1485.54"/>
  <line id="left-margin" style="fill:none;stroke:#00AEEF;stroke-width:0.5;opacity:1.0;" x1="1391.3" x2="1391.3" y1="1030.79" y2="1150.12"/>
  <line id="right-margin" style="fill:none;stroke:#00AEEF;stroke-width:0.5;opacity:1.0;" x1="1508.39" x2="1508.39" y1="1030.79" y2="1150.12"/>
 </g>
 <g id="Symbols">
  <g id="Black-L" transform="matrix(1 0 0 1 2854.05 1556)">
   <path d="M 79.3457 32.8613 C 116.748 32.8613 147.412 2.19727 147.412 -35.2051 C 147.412 -72.6074 116.748 -103.271 79.2969 -103.271 C 41.8945 -103.271 11.2793 -72.6074 11.2793 -35.2051 C 11.2793 2.19727 41.9434 32.8613 79.3457 32.8613 Z M 73.3398 4.93164 C 70.8496 4.93164 69.2871 3.17383 69.2871 0.341797 L 69.2871 -44.7266 C 69.2871 -46.2402 68.75 -47.2168 67.5293 -48.1934 L 58.3008 -55.7617 C 56.0547 -57.5684 55.127 -59.2285 54.9805 -61.4746 L 54.0527 -74.1699 C 53.8086 -76.8066 55.4199 -78.6133 57.9102 -78.7109 C 60.3027 -78.9062 62.0117 -77.2461 62.1582 -74.6582 L 62.9395 -62.2559 L 68.3105 -57.8613 C 70.3125 -56.25 71.6797 -56.0059 74.2676 -56.0059 L 79.5898 -56.0059 C 95.0684 -56.0059 101.221 -52.3926 101.221 -41.3086 L 101.221 -25.7324 C 101.221 -23.0957 99.707 -21.4844 97.3145 -21.4844 C 94.9707 -21.4844 93.457 -23.0957 93.457 -25.7324 L 93.457 -41.7969 C 93.457 -43.1152 92.6758 -44.1895 91.6016 -44.1895 C 90.4297 -44.1895 89.6973 -43.2129 89.6973 -41.7969 L 89.6973 0.341797 C 89.6973 3.22266 88.1348 4.93164 85.4492 4.93164 C 82.959 4.93164 81.3965 3.17383 81.3965 0.341797 L 81.3965 -25 C 81.3965 -26.3184 80.5664 -27.2461 79.4434 -27.2461 C 78.2227 -27.2461 77.5879 -26.416 77.5879 -25 L 77.5879 0.341797 C 77.5879 3.22266 75.9766 4.93164 73.3398 4.93164 Z M 79.5898 -60.0098 C 75.1465 -60.0098 71.3867 -63.7207 71.3867 -68.0664 C 71.3867 -72.6562 75.0977 -76.416 79.5898 -76.416 C 84.1309 -76.416 87.8906 -72.6074 87.8906 -68.0664 C 87.8906 -63.8184 84.082 -60.0098 79.5898 -60.0098 Z"/>
  </g>
  <g id="Heavy-L" transform="matrix(1 0 0 1 2558.39 1556)">
   <path d="M 78.2715 31.7871 C 115.088 31.7871 145.312 1.5625 145.312 -35.2051 C 145.312 -72.0215 115.039 -102.246 78.2715 -102.246 C 41.4551 -102.246 11.2793 -72.0215 11.2793 -35.2051 C 11.2793 1.5625 41.5039 31.7871 78.2715 31.7871 Z M 72.4121 5.76172 C 69.9219 5.76172 68.4082 4.00391 68.4082 1.26953 L 68.4082 -45.2637 C 68.4082 -46.8262 67.8223 -47.8027 66.6016 -48.7793 L 57.373 -56.1523 C 55.1758 -57.9102 54.2969 -59.5703 54.1504 -61.8652 L 53.1738 -74.6094 C 52.9785 -77.1973 54.4922 -78.9062 56.8848 -79.0039 C 59.2285 -79.1992 60.8398 -77.6367 61.0352 -75.0977 L 61.8164 -62.4512 L 67.334 -58.1543 C 69.3359 -56.6406 70.7031 -56.25 73.3398 -56.25 L 78.6133 -56.25 C 93.7012 -56.25 99.8047 -52.7344 99.8047 -41.6504 L 99.8047 -25.293 C 99.8047 -22.7539 98.3398 -21.1914 95.9961 -21.1914 C 93.75 -21.1914 92.2363 -22.7539 92.2363 -25.293 L 92.2363 -42.2363 C 92.2363 -43.5547 91.4551 -44.5312 90.3809 -44.5312 C 89.2578 -44.5312 88.5254 -43.6035 88.5254 -42.2363 L 88.5254 1.26953 C 88.5254 4.05273 87.0117 5.76172 84.375 5.76172 C 81.8848 5.76172 80.3223 4.00391 80.3223 1.26953 L 80.3223 -24.9023 C 80.3223 -26.1719 79.541 -27.0996 78.418 -27.0996 C 77.2461 -27.0996 76.5625 -26.2695 76.5625 -24.9023 L 76.5625 1.26953 C 76.5625 4.05273 75 5.76172 72.4121 5.76172 Z M 78.6133 -60.3027 C 74.1699 -60.3027 70.459 -64.0137 70.459 -68.3594 C 70.459 -72.9492 74.1211 -76.709 78.6133 -76.709 C 83.1543 -76.709 86.9141 -72.9004 86.9141 -68.3594 C 86.9141 -64.0625 83.1055 -60.3027 78.6133 -60.3027 Z"/>
  </g>
  <g id="Bold-L" transform="matrix(1 0 0 1 2262.88 1556)">
   <path d="M 77.0996 30.5664 C 113.232 30.5664 142.92 0.878906 142.92 -35.2539 C 142.92 -71.3379 113.184 -101.074 77.0508 -101.074 C 40.9668 -101.074 11.2793 -71.3379 11.2793 -35.2539 C 11.2793 0.878906 41.0156 30.5664 77.0996 30.5664 Z M 71.4355 6.64062 C 68.9453 6.64062 67.4316 4.98047 67.4316 2.24609 L 67.4316 -45.8496 C 67.4316 -47.4121 66.8457 -48.4863 65.5762 -49.4629 L 56.3477 -56.6406 C 54.248 -58.3008 53.3203 -59.9609 53.1738 -62.3047 L 52.2461 -75.0977 C 52.0508 -77.5879 53.4668 -79.248 55.7617 -79.3945 C 58.0566 -79.541 59.5703 -78.0762 59.7168 -75.5859 L 60.5957 -62.7441 L 66.2109 -58.4961 C 68.2129 -57.0312 69.6289 -56.5918 72.3145 -56.5918 L 77.5391 -56.5918 C 92.0898 -56.5918 98.1934 -53.1738 98.1934 -42.041 L 98.1934 -24.8047 C 98.1934 -22.3633 96.8262 -20.8008 94.5801 -20.8008 C 92.334 -20.8008 90.8691 -22.3145 90.8691 -24.8047 L 90.8691 -42.7246 C 90.8691 -44.043 90.1367 -44.9707 89.0625 -44.9707 C 87.8906 -44.9707 87.207 -44.0918 87.207 -42.7246 L 87.207 2.24609 C 87.207 5.0293 85.7422 6.64062 83.1543 6.64062 C 80.7129 6.64062 79.1504 4.98047 79.1504 2.24609 L 79.1504 -24.7559 C 79.1504 -26.0254 78.3691 -26.9531 77.2461 -26.9531 C 76.0742 -26.9531 75.4395 -26.123 75.4395 -24.7559 L 75.4395 2.24609 C 75.4395 5.0293 73.9258 6.64062 71.4355 6.64062 Z M 77.5391 -60.5957 C 73.0957 -60.5957 69.3848 -64.3066 69.3848 -68.7012 C 69.3848 -73.2422 72.998 -77.002 77.5391 -77.002 C 82.0801 -77.002 85.791 -73.2422 85.791 -68.7012 C 85.791 -64.3555 81.9824 -60.5957 77.5391 -60.5957 Z"/>
  </g>
  <g id="Semibold-L" transform="matrix(1 0 0 1 1966.97 1556)">
   <path d="M 76.2695 29.7363 C 111.914 29.7363 141.309 0.390625 141.309 -35.2539 C 141.309 -70.8984 111.865 -100.244 76.2695 -100.244 C 40.625 -100.244 11.2793 -70.8984 11.2793 -35.2539 C 11.2793 0.390625 40.6738 29.7363 76.2695 29.7363 Z M 70.7031 7.22656 C 68.2617 7.22656 66.748 5.61523 66.748 2.97852 L 66.748 -46.2402 C 66.748 -47.8516 66.1621 -48.9746 64.8926 -49.9023 L 55.6152 -56.9824 C 53.5645 -58.5449 52.6367 -60.2051 52.4902 -62.5977 L 51.6113 -75.4395 C 51.416 -77.8809 52.7832 -79.4922 55.0293 -79.6387 C 57.2266 -79.7852 58.6914 -78.3691 58.8379 -75.9277 L 59.7168 -62.8906 L 65.4297 -58.7402 C 67.4316 -57.2754 68.8477 -56.7871 71.582 -56.7871 L 76.7578 -56.7871 C 91.0156 -56.7871 97.1191 -53.4668 97.1191 -42.334 L 97.1191 -24.4629 C 97.1191 -22.0703 95.752 -20.5566 93.5547 -20.5566 C 91.3574 -20.5566 89.9414 -22.0215 89.9414 -24.4629 L 89.9414 -43.0664 C 89.9414 -44.3359 89.209 -45.2637 88.0859 -45.2637 C 86.9629 -45.2637 86.2793 -44.4336 86.2793 -43.0664 L 86.2793 2.97852 C 86.2793 5.66406 84.8633 7.22656 82.3242 7.22656 C 79.8828 7.22656 78.3203 5.61523 78.3203 2.97852 L 78.3203 -24.6582 C 78.3203 -25.9277 77.5879 -26.8066 76.4648 -26.8066 C 75.293 -26.8066 74.6582 -25.9766 74.6582 -24.6582 L 74.6582 2.97852 C 74.6582 5.66406 73.1934 7.22656 70.7031 7.22656 Z M 76.7578 -60.8398 C 72.3633 -60.8398 68.6035 -64.5508 68.6035 -68.8965 C 68.6035 -73.4863 72.2656 -77.1973 76.7578 -77.1973 C 81.2988 -77.1973 85.0098 -73.4863 85.0098 -68.8965 C 85.0098 -64.5508 81.25 -60.8398 76.7578 -60.8398 Z"/>
  </g>
  <g id="Medium-L" transform="matrix(1 0 0 1 1670.87 1556)">
   <path d="M 75.6836 29.1504 C 110.938 29.1504 140.088 0 140.088 -35.2539 C 140.088 -70.5078 110.889 -99.6582 75.6348 -99.6582 C 40.3809 -99.6582 11.2793 -70.5078 11.2793 -35.2539 C 11.2793 0 40.3809 29.1504 75.6836 29.1504 Z M 70.166 7.71484 C 67.7246 7.71484 66.2109 6.15234 66.2109 3.51562 L 66.2109 -46.5332 C 66.2109 -48.1934 65.625 -49.3164 64.3555 -50.293 L 55.0781 -57.2266 C 53.0762 -58.7402 52.1484 -60.4004 52.002 -62.8418 L 51.123 -75.7324 C 50.9277 -78.125 52.2461 -79.6387 54.4434 -79.7852 C 56.5918 -79.9805 58.0078 -78.5645 58.2031 -76.1719 L 59.082 -63.0371 L 64.8438 -58.9355 C 66.8945 -57.4707 68.3105 -56.9824 71.0449 -56.9824 L 76.2207 -56.9824 C 90.1855 -56.9824 96.2891 -53.6621 96.2891 -42.5293 L 96.2891 -24.2188 C 96.2891 -21.8262 94.9707 -20.3613 92.8223 -20.3613 C 90.625 -20.3613 89.2578 -21.8262 89.2578 -24.2188 L 89.2578 -43.3105 C 89.2578 -44.5801 88.4766 -45.5078 87.4023 -45.5078 C 86.2793 -45.5078 85.5957 -44.6777 85.5957 -43.3105 L 85.5957 3.51562 C 85.5957 6.15234 84.1797 7.71484 81.6895 7.71484 C 79.248 7.71484 77.7344 6.15234 77.7344 3.51562 L 77.7344 -24.5605 C 77.7344 -25.8301 77.002 -26.709 75.8789 -26.709 C 74.707 -26.709 74.0723 -25.9277 74.0723 -24.5605 L 74.0723 3.51562 C 74.0723 6.15234 72.6074 7.71484 70.166 7.71484 Z M 76.2207 -60.9863 C 71.7773 -60.9863 68.0664 -64.6973 68.0664 -69.0918 C 68.0664 -73.6328 71.6797 -77.3438 76.2207 -77.3438 C 80.7617 -77.3438 84.4238 -73.6816 84.4238 -69.0918 C 84.4238 -64.7461 80.6641 -60.9863 76.2207 -60.9863 Z"/>
  </g>
  <g id="Regular-L" transform="matrix(1 0 0 1 1374.97 1556)">
   <path d="M 74.8535 28.3203 C 109.668 28.3203 138.477 -0.488281 138.477 -35.2539 C 138.477 -70.0684 109.619 -98.877 74.8047 -98.877 C 40.0391 -98.877 11.2793 -70.0684 11.2793 -35.2539 C 11.2793 -0.488281 40.0879 28.3203 74.8535 28.3203 Z M 69.4824 8.30078 C 67.041 8.30078 65.5762 6.78711 65.5762 4.19922 L 65.5762 -46.9238 C 65.5762 -48.584 64.9414 -49.8047 63.623 -50.7324 L 54.3945 -57.5684 C 52.3926 -58.9844 51.5137 -60.6445 51.3184 -63.1348 L 50.4395 -76.0254 C 50.293 -78.3691 51.5137 -79.8828 53.6621 -80.0293 C 55.8105 -80.2246 57.1289 -78.8574 57.3242 -76.5137 L 58.2031 -63.2324 L 64.1113 -59.1797 C 66.1133 -57.7637 67.5293 -57.1777 70.3125 -57.1777 L 75.4883 -57.1777 C 89.1113 -57.1777 95.2148 -53.9551 95.2148 -42.7734 L 95.2148 -23.877 C 95.2148 -21.582 93.9453 -20.1172 91.8457 -20.1172 C 89.6484 -20.1172 88.3301 -21.5332 88.3301 -23.877 L 88.3301 -43.6523 C 88.3301 -44.9219 87.5488 -45.8008 86.4746 -45.8008 C 85.3516 -45.8008 84.668 -44.9707 84.668 -43.6523 L 84.668 4.19922 C 84.668 6.83594 83.3496 8.30078 80.8594 8.30078 C 78.418 8.30078 76.9043 6.78711 76.9043 4.19922 L 76.9043 -24.4629 C 76.9043 -25.7324 76.2207 -26.6113 75.0977 -26.6113 C 73.9258 -26.6113 73.291 -25.7812 73.291 -24.4629 L 73.291 4.19922 C 73.291 6.83594 71.875 8.30078 69.4824 8.30078 Z M 75.4883 -61.2305 C 71.0449 -61.2305 67.334 -64.8926 67.334 -69.3359 C 67.334 -73.877 70.9473 -77.5391 75.4883 -77.5391 C 80.0293 -77.5391 83.6914 -73.877 83.6914 -69.3359 C 83.6914 -64.9414 79.9316 -61.2305 75.4883 -61.2305 Z"/>
  </g>
  <g id="Light-L" transform="matrix(1 0 0 1 1079.18 1556)">
   <path d="M 73.9258 27.3926 C 108.301 27.3926 136.621 -0.927734 136.621 -35.2539 C 136.621 -69.6289 108.252 -97.9492 73.9258 -97.9492 C 39.5508 -97.9492 11.2793 -69.6289 11.2793 -35.2539 C 11.2793 -0.927734 39.5996 27.3926 73.9258 27.3926 Z M 68.75 8.25195 C 66.4551 8.25195 65.0391 6.78711 65.0391 4.39453 L 65.0391 -47.8027 C 65.0391 -49.5117 64.4043 -50.7812 63.1836 -51.6602 L 54.248 -58.2031 C 52.3926 -59.5215 51.5137 -61.1816 51.3672 -63.623 L 50.4883 -76.2207 C 50.293 -78.3691 51.4648 -79.7852 53.4668 -79.9316 C 55.4199 -80.0781 56.6406 -78.8574 56.7871 -76.6113 L 57.7148 -63.3789 L 63.5742 -59.375 C 65.4297 -58.1543 66.8945 -57.5195 69.5801 -57.5195 L 74.4141 -57.5195 C 87.5488 -57.5195 93.1152 -54.1504 93.1152 -43.6035 L 93.1152 -23.8281 C 93.1152 -21.6797 91.8945 -20.3613 89.9902 -20.3613 C 87.9883 -20.3613 86.7188 -21.6309 86.7188 -23.8281 L 86.7188 -44.2383 C 86.7188 -45.5566 85.9863 -46.3867 84.9121 -46.3867 C 83.8379 -46.3867 83.1543 -45.6055 83.1543 -44.2383 L 83.1543 4.39453 C 83.1543 6.83594 81.8359 8.25195 79.541 8.25195 C 77.2461 8.25195 75.8789 6.78711 75.8789 4.39453 L 75.8789 -24.7559 C 75.8789 -26.0742 75.1953 -26.9043 74.0723 -26.9043 C 72.9004 -26.9043 72.2656 -26.0742 72.2656 -24.7559 L 72.2656 4.39453 C 72.2656 6.83594 70.9473 8.25195 68.75 8.25195 Z M 74.4141 -61.5234 C 70.0684 -61.5234 66.4062 -65.1367 66.4062 -69.4824 C 66.4062 -73.9746 69.9707 -77.5879 74.4141 -77.5879 C 78.9062 -77.5879 82.4707 -74.0234 82.4707 -69.4824 C 82.4707 -65.1367 78.8086 -61.5234 74.4141 -61.5234 Z"/>
  </g>
  <g id="Thin-L" transform="matrix(1 0 0 1 783.693 1556)">
   <path d="M 72.7051 26.1719 C 106.494 26.1719 134.18 -1.51367 134.18 -35.2539 C 134.18 -69.043 106.494 -96.7285 72.7051 -96.7285 C 38.9648 -96.7285 11.2793 -69.043 11.2793 -35.2539 C 11.2793 -1.51367 38.9648 26.1719 72.7051 26.1719 Z M 67.7246 8.1543 C 65.6738 8.1543 64.3555 6.78711 64.3555 4.63867 L 64.3555 -48.9746 C 64.3555 -50.7812 63.7207 -52.0508 62.5488 -52.8809 L 54.0527 -59.0332 C 52.3438 -60.2539 51.5137 -61.8652 51.3672 -64.3066 L 50.4883 -76.416 C 50.3418 -78.3203 51.416 -79.6387 53.125 -79.7852 C 54.8828 -79.8828 55.957 -78.8086 56.1523 -76.7578 L 57.0801 -63.623 L 62.8906 -59.7168 C 64.5508 -58.6426 66.0645 -58.0078 68.6035 -58.0078 L 73.0469 -58.0078 C 85.4492 -58.0078 90.332 -54.3945 90.332 -44.7266 L 90.332 -23.7793 C 90.332 -21.875 89.2578 -20.6543 87.5488 -20.6543 C 85.7422 -20.6543 84.668 -21.7773 84.668 -23.7793 L 84.668 -45.0195 C 84.668 -46.3867 83.8379 -47.2168 82.8125 -47.2168 C 81.7383 -47.2168 81.1035 -46.3867 81.1035 -45.0195 L 81.1035 4.63867 C 81.1035 6.88477 79.8828 8.1543 77.832 8.1543 C 75.7324 8.1543 74.5117 6.78711 74.5117 4.63867 L 74.5117 -25.0977 C 74.5117 -26.4648 73.8281 -27.2949 72.7051 -27.2949 C 71.5332 -27.2949 70.9473 -26.4648 70.9473 -25.0977 L 70.9473 4.63867 C 70.9473 6.88477 69.7266 8.1543 67.7246 8.1543 Z M 73.0469 -61.8652 C 68.75 -61.8652 65.1855 -65.4297 65.1855 -69.7266 C 65.1855 -74.0723 68.7012 -77.6367 73.0469 -77.6367 C 77.4414 -77.6367 80.8105 -74.1699 80.8105 -69.7266 C 80.8105 -65.3809 77.3438 -61.8652 73.0469 -61.8652 Z"/>
  </g>
  <g id="Ultralight-L" transform="matrix(1 0 0 1 487.616 1556)">
   <path d="M 72.1191 25.5371 C 105.566 25.5371 132.91 -1.80664 132.91 -35.2539 C 132.91 -68.75 105.566 -96.0938 72.1191 -96.0938 C 38.623 -96.0938 11.2793 -68.75 11.2793 -35.2539 C 11.2793 -1.80664 38.623 25.5371 72.1191 25.5371 Z M 67.1875 8.1543 C 65.2344 8.1543 64.0137 6.78711 64.0137 4.73633 L 64.0137 -49.5605 C 64.0137 -51.416 63.3301 -52.7344 62.2559 -53.5156 L 54.0039 -59.4238 C 52.3438 -60.5957 51.5625 -62.207 51.3672 -64.6484 L 50.4883 -76.5137 C 50.3418 -78.2715 51.3672 -79.541 52.9785 -79.6875 C 54.6387 -79.7852 55.6152 -78.7598 55.8105 -76.8066 L 56.7871 -63.7207 L 62.5488 -59.8633 C 64.1113 -58.8867 65.625 -58.2031 68.1152 -58.2031 L 72.3633 -58.2031 C 84.375 -58.2031 88.8672 -54.541 88.8672 -45.2637 L 88.8672 -23.7793 C 88.8672 -21.9727 87.8906 -20.8008 86.3281 -20.8008 C 84.6191 -20.8008 83.5938 -21.875 83.5938 -23.7793 L 83.5938 -45.459 C 83.5938 -46.8262 82.7637 -47.6074 81.7383 -47.6074 C 80.7129 -47.6074 80.0781 -46.8262 80.0781 -45.459 L 80.0781 4.73633 C 80.0781 6.88477 78.8574 8.1543 76.9043 8.1543 C 74.9512 8.1543 73.7793 6.78711 73.7793 4.73633 L 73.7793 -25.293 C 73.7793 -26.709 73.1445 -27.4902 72.0215 -27.4902 C 70.8008 -27.4902 70.2637 -26.6602 70.2637 -25.293 L 70.2637 4.73633 C 70.2637 6.88477 69.0918 8.1543 67.1875 8.1543 Z M 72.3633 -62.0605 C 68.1152 -62.0605 64.5996 -65.5762 64.5996 -69.8242 C 64.5996 -74.1211 68.0176 -77.6855 72.3633 -77.6855 C 76.6602 -77.6855 79.9805 -74.2188 79.9805 -69.8242 C 79.9805 -65.4785 76.5625 -62.0605 72.3633 -62.0605 Z"/>
  </g>
  <g id="Black-M" transform="matrix(1 0 0 1 2870.97 1126)">
   <path d="M 62.4023 18.457 C 91.9922 18.457 116.113 -5.61523 116.113 -35.2051 C 116.113 -64.7949 91.9922 -88.8672 62.4023 -88.8672 C 32.8125 -88.8672 8.74023 -64.7949 8.74023 -35.2051 C 8.74023 -5.61523 32.8125 18.457 62.4023 18.457 Z M 57.6172 -5.17578 C 55.7617 -5.17578 54.5898 -6.64062 54.5898 -8.78906 L 54.5898 -42.334 C 54.5898 -43.5059 54.1504 -44.1895 53.2715 -44.9707 L 46.3379 -50.8789 C 44.5801 -52.3926 43.8965 -53.6133 43.75 -55.3223 L 43.0176 -64.8926 C 42.8223 -66.9434 44.1406 -68.3594 46.0938 -68.457 C 47.9492 -68.5547 49.3164 -67.2363 49.4629 -65.2344 L 50 -55.957 L 54.0039 -52.4902 C 55.4688 -51.2695 56.543 -51.123 58.3984 -51.123 L 62.4512 -51.123 C 74.7559 -51.123 79.1992 -48.1445 79.1992 -39.9414 L 79.1992 -28.4668 C 79.1992 -26.416 78.0273 -25.1465 76.123 -25.1465 C 74.4141 -25.1465 73.2422 -26.416 73.2422 -28.4668 L 73.2422 -40.0391 C 73.2422 -41.1133 72.6074 -41.9922 71.7773 -41.9922 C 70.8496 -41.9922 70.3125 -41.1621 70.3125 -40.0391 L 70.3125 -8.78906 C 70.3125 -6.54297 69.043 -5.17578 66.9922 -5.17578 C 65.1367 -5.17578 63.9648 -6.64062 63.9648 -8.78906 L 63.9648 -27.6367 C 63.9648 -28.6621 63.2324 -29.4434 62.4023 -29.4434 C 61.4258 -29.4434 60.9375 -28.7598 60.9375 -27.6367 L 60.9375 -8.78906 C 60.9375 -6.54297 59.7168 -5.17578 57.6172 -5.17578 Z M 62.4512 -54.1992 C 59.0332 -54.1992 56.1523 -57.0312 56.1523 -60.3516 C 56.1523 -63.916 59.0332 -66.8457 62.4512 -66.8457 C 65.918 -66.8457 68.7988 -63.8184 68.7988 -60.3516 C 68.7988 -57.1289 65.8691 -54.1992 62.4512 -54.1992 Z"/>
  </g>
  <g id="Heavy-M" transform="matrix(1 0 0 1 2575.19 1126)">
   <path d="M 61.5234 17.5293 C 90.5273 17.5293 114.258 -6.20117 114.258 -35.2051 C 114.258 -64.2578 90.5273 -87.9883 61.4746 -87.9883 C 32.4707 -87.9883 8.74023 -64.2578 8.74023 -35.2051 C 8.74023 -6.20117 32.4707 17.5293 61.5234 17.5293 Z M 56.8359 -4.29688 C 54.9316 -4.29688 53.7598 -5.71289 53.7598 -7.86133 L 53.7598 -42.6758 C 53.7598 -43.8965 53.3203 -44.6289 52.4414 -45.3613 L 45.3613 -51.1719 C 43.6523 -52.6367 42.9688 -53.8574 42.8223 -55.6152 L 42.0898 -65.332 C 41.9434 -67.334 43.1641 -68.75 45.0684 -68.7988 C 46.875 -68.9453 48.1934 -67.6758 48.3398 -65.7227 L 48.9258 -56.1523 L 53.0273 -52.7832 C 54.541 -51.5625 55.6152 -51.3672 57.5684 -51.3672 L 61.6211 -51.3672 C 73.6328 -51.3672 78.2227 -48.4863 78.2227 -40.0879 L 78.2227 -27.9785 C 78.2227 -25.9766 77.0508 -24.7559 75.1953 -24.7559 C 73.4863 -24.7559 72.3145 -25.9766 72.3145 -27.9785 L 72.3145 -40.3809 C 72.3145 -41.4062 71.6797 -42.2363 70.8496 -42.2363 C 69.9707 -42.2363 69.3848 -41.4551 69.3848 -40.3809 L 69.3848 -7.86133 C 69.3848 -5.61523 68.1641 -4.29688 66.1621 -4.29688 C 64.2578 -4.29688 63.0371 -5.71289 63.0371 -7.86133 L 63.0371 -27.3926 C 63.0371 -28.4668 62.4023 -29.1992 61.5234 -29.1992 C 60.5957 -29.1992 60.1074 -28.5156 60.1074 -27.3926 L 60.1074 -7.86133 C 60.1074 -5.61523 58.8867 -4.29688 56.8359 -4.29688 Z M 61.6211 -54.4434 C 58.2031 -54.4434 55.3223 -57.3242 55.3223 -60.6445 C 55.3223 -64.209 58.2031 -67.0898 61.6211 -67.0898 C 65.1367 -67.0898 68.0176 -64.1602 68.0176 -60.6445 C 68.0176 -57.373 65.0879 -54.4434 61.6211 -54.4434 Z"/>
  </g>
  <g id="Bold-M" transform="matrix(1 0 0 1 2279.5 1126)">
   <path d="M 60.498 16.5039 C 88.8672 16.5039 112.207 -6.83594 112.207 -35.2051 C 112.207 -63.623 88.8672 -86.9629 60.4492 -86.9629 C 32.0312 -86.9629 8.74023 -63.623 8.74023 -35.2051 C 8.74023 -6.83594 32.0801 16.5039 60.498 16.5039 Z M 55.957 -3.32031 C 54.0527 -3.32031 52.832 -4.63867 52.832 -6.78711 L 52.832 -43.0664 C 52.832 -44.2871 52.3926 -45.0684 51.416 -45.8496 L 44.2871 -51.5137 C 42.5781 -52.8809 41.8945 -54.1504 41.7969 -55.957 L 41.0645 -65.8203 C 40.918 -67.8223 42.041 -69.1406 43.8965 -69.2383 C 45.7031 -69.3848 46.9727 -68.1641 47.0703 -66.2109 L 47.7051 -56.3965 L 52.002 -53.0762 C 53.5645 -51.8555 54.6387 -51.5625 56.6406 -51.5625 L 60.7422 -51.5625 C 72.3633 -51.5625 77.0996 -48.877 77.0996 -40.2832 L 77.0996 -27.4414 C 77.0996 -25.4883 75.9766 -24.2676 74.1699 -24.2676 C 72.4121 -24.2676 71.2891 -25.4883 71.2891 -27.4414 L 71.2891 -40.7227 C 71.2891 -41.748 70.7031 -42.5293 69.8242 -42.5293 C 68.9453 -42.5293 68.4082 -41.7969 68.4082 -40.7227 L 68.4082 -6.78711 C 68.4082 -4.58984 67.2363 -3.32031 65.1855 -3.32031 C 63.2812 -3.32031 62.0605 -4.63867 62.0605 -6.78711 L 62.0605 -27.1973 C 62.0605 -28.1738 61.4258 -28.9062 60.5957 -28.9062 C 59.668 -28.9062 59.1309 -28.2715 59.1309 -27.1973 L 59.1309 -6.78711 C 59.1309 -4.58984 57.959 -3.32031 55.957 -3.32031 Z M 60.7422 -54.6875 C 57.3242 -54.6875 54.3945 -57.5684 54.3945 -60.9375 C 54.3945 -64.502 57.2754 -67.4316 60.7422 -67.4316 C 64.2578 -67.4316 67.1875 -64.502 67.1875 -60.9375 C 67.1875 -57.6172 64.209 -54.6875 60.7422 -54.6875 Z"/>
  </g>
  <g id="Semibold-M" transform="matrix(1 0 0 1 1983.5 1126)">
   <path d="M 59.7656 15.8203 C 87.7441 15.8203 110.791 -7.27539 110.791 -35.2539 C 110.791 -63.2324 87.6953 -86.2793 59.7656 -86.2793 C 31.7871 -86.2793 8.74023 -63.2324 8.74023 -35.2539 C 8.74023 -7.27539 31.7871 15.8203 59.7656 15.8203 Z M 55.3711 -2.63672 C 53.418 -2.63672 52.1973 -3.90625 52.1973 -6.05469 L 52.1973 -43.3594 C 52.1973 -44.5801 51.7578 -45.4102 50.7812 -46.1426 L 43.5059 -51.7578 C 41.8945 -53.0273 41.1621 -54.3457 41.0645 -56.1523 L 40.332 -66.1621 C 40.1855 -68.1641 41.3086 -69.4336 43.1152 -69.5312 C 44.873 -69.6777 46.0938 -68.5059 46.1914 -66.5527 L 46.875 -56.543 L 51.2695 -53.2715 C 52.832 -52.0996 53.9062 -51.7578 56.0059 -51.7578 L 60.1562 -51.7578 C 71.4844 -51.7578 76.3184 -49.1699 76.3184 -40.3809 L 76.3184 -27.0996 C 76.3184 -25.1465 75.2441 -23.9746 73.4375 -23.9746 C 71.6797 -23.9746 70.5566 -25.1465 70.5566 -27.0996 L 70.5566 -40.9668 C 70.5566 -41.9922 69.9707 -42.7246 69.1406 -42.7246 C 68.2617 -42.7246 67.7246 -42.041 67.7246 -40.9668 L 67.7246 -6.05469 C 67.7246 -3.90625 66.5527 -2.63672 64.5508 -2.63672 C 62.5977 -2.63672 61.377 -3.90625 61.377 -6.05469 L 61.377 -27.002 C 61.377 -28.0273 60.791 -28.7109 59.9121 -28.7109 C 59.0332 -28.7109 58.4961 -28.0762 58.4961 -27.002 L 58.4961 -6.05469 C 58.4961 -3.90625 57.3242 -2.63672 55.3711 -2.63672 Z M 60.1562 -54.8828 C 56.6895 -54.8828 53.8086 -57.7637 53.8086 -61.1816 C 53.8086 -64.7461 56.6406 -67.627 60.1562 -67.627 C 63.6719 -67.627 66.5527 -64.6973 66.5527 -61.1816 C 66.5527 -57.8125 63.623 -54.8828 60.1562 -54.8828 Z"/>
  </g>
  <g id="Medium-M" transform="matrix(1 0 0 1 1687.3 1126)">
   <path d="M 59.2285 15.2344 C 86.9141 15.2344 109.766 -7.61719 109.766 -35.2539 C 109.766 -62.8906 86.8652 -85.7422 59.1797 -85.7422 C 31.543 -85.7422 8.74023 -62.8906 8.74023 -35.2539 C 8.74023 -7.61719 31.5918 15.2344 59.2285 15.2344 Z M 54.8828 -2.14844 C 52.9297 -2.14844 51.709 -3.36914 51.709 -5.51758 L 51.709 -43.5547 C 51.709 -44.7754 51.2695 -45.6543 50.2441 -46.3867 L 42.9688 -51.9531 C 41.3574 -53.1738 40.625 -54.4434 40.4785 -56.3477 L 39.7949 -66.4551 C 39.6484 -68.4082 40.7227 -69.6289 42.5293 -69.7266 C 44.2871 -69.873 45.4102 -68.75 45.5566 -66.8457 L 46.2402 -56.6406 L 50.6836 -53.418 C 52.2949 -52.2461 53.3691 -51.8555 55.5664 -51.8555 L 59.668 -51.8555 C 70.8008 -51.8555 75.7324 -49.3652 75.7324 -40.4785 L 75.7324 -26.8066 C 75.7324 -24.9023 74.6582 -23.7305 72.9004 -23.7305 C 71.1426 -23.7305 70.0195 -24.9023 70.0195 -26.8066 L 70.0195 -41.1621 C 70.0195 -42.1387 69.4336 -42.8711 68.6035 -42.8711 C 67.7246 -42.8711 67.1875 -42.1875 67.1875 -41.1621 L 67.1875 -5.51758 C 67.1875 -3.36914 66.0645 -2.14844 64.0625 -2.14844 C 62.1094 -2.14844 60.8887 -3.36914 60.8887 -5.51758 L 60.8887 -26.9043 C 60.8887 -27.8809 60.3027 -28.5645 59.4238 -28.5645 C 58.5449 -28.5645 58.0078 -27.9297 58.0078 -26.9043 L 58.0078 -5.51758 C 58.0078 -3.36914 56.8359 -2.14844 54.8828 -2.14844 Z M 59.668 -55.0293 C 56.25 -55.0293 53.3203 -57.9102 53.3203 -61.3281 C 53.3203 -64.8926 56.1523 -67.7734 59.668 -67.7734 C 63.2324 -67.7734 66.1133 -64.8926 66.1133 -61.3281 C 66.1133 -57.959 63.1836 -55.0293 59.668 -55.0293 Z"/>
  </g>
  <g id="Regular-M" transform="matrix(1 0 0 1 1391.3 1126)">
   <path d="M 58.5449 14.5508 C 85.791 14.5508 108.35 -8.05664 108.35 -35.2539 C 108.35 -62.5 85.7422 -85.0586 58.4961 -85.0586 C 31.2988 -85.0586 8.74023 -62.5 8.74023 -35.2539 C 8.74023 -8.05664 31.3477 14.5508 58.5449 14.5508 Z M 54.2969 -1.46484 C 52.2949 -1.46484 51.123 -2.68555 51.123 -4.78516 L 51.123 -43.7988 C 51.123 -45.0684 50.6348 -45.9473 49.5605 -46.7285 L 42.2363 -52.1973 C 40.625 -53.3691 39.8926 -54.6387 39.7949 -56.543 L 39.1113 -66.7969 C 38.9648 -68.7012 39.9902 -69.873 41.6992 -70.0195 C 43.457 -70.166 44.5801 -69.0918 44.6777 -67.1875 L 45.4102 -56.8359 L 50 -53.6133 C 51.6113 -52.4902 52.6855 -52.0508 54.9316 -52.0508 L 59.082 -52.0508 C 69.9707 -52.0508 75 -49.6094 75 -40.625 L 75 -26.4648 C 75 -24.5605 73.9258 -23.3887 72.2168 -23.3887 C 70.459 -23.3887 69.3359 -24.5605 69.3359 -26.4648 L 69.3359 -41.4062 C 69.3359 -42.3828 68.75 -43.0664 67.9199 -43.0664 C 67.041 -43.0664 66.5039 -42.4316 66.5039 -41.4062 L 66.5039 -4.78516 C 66.5039 -2.63672 65.4297 -1.46484 63.4277 -1.46484 C 61.4258 -1.46484 60.2051 -2.68555 60.2051 -4.78516 L 60.2051 -26.7578 C 60.2051 -27.6855 59.668 -28.3691 58.7891 -28.3691 C 57.9102 -28.3691 57.373 -27.7344 57.373 -26.7578 L 57.373 -4.78516 C 57.373 -2.63672 56.25 -1.46484 54.2969 -1.46484 Z M 59.082 -55.2246 C 55.6152 -55.2246 52.6855 -58.1055 52.6855 -61.5723 C 52.6855 -65.1367 55.5176 -68.0176 59.082 -68.0176 C 62.6465 -68.0176 65.5273 -65.1367 65.5273 -61.5723 C 65.5273 -58.1543 62.5488 -55.2246 59.082 -55.2246 Z"/>
  </g>
  <g id="Light-M" transform="matrix(1 0 0 1 1095.42 1126)">
   <path d="M 57.7148 13.7207 C 84.5215 13.7207 106.689 -8.44727 106.689 -35.2539 C 106.689 -62.1094 84.5215 -84.2285 57.666 -84.2285 C 30.8594 -84.2285 8.74023 -62.1094 8.74023 -35.2539 C 8.74023 -8.44727 30.9082 13.7207 57.7148 13.7207 Z M 53.6133 -1.51367 C 51.7578 -1.51367 50.6348 -2.68555 50.6348 -4.58984 L 50.6348 -44.5801 C 50.6348 -45.8984 50.1465 -46.8262 49.1699 -47.5586 L 42.0898 -52.7344 C 40.5762 -53.8574 39.8926 -55.127 39.7949 -57.0312 L 39.1113 -66.8945 C 38.9648 -68.6523 39.8926 -69.7754 41.5039 -69.9219 C 43.1152 -70.0684 44.1406 -69.043 44.2383 -67.2363 L 44.9707 -56.9824 L 49.5117 -53.8574 C 51.0254 -52.832 52.1484 -52.3438 54.248 -52.3438 L 58.1543 -52.3438 C 68.5547 -52.3438 73.0957 -49.8047 73.0957 -41.3574 L 73.0957 -26.416 C 73.0957 -24.707 72.1191 -23.584 70.5566 -23.584 C 68.9453 -23.584 67.9199 -24.6582 67.9199 -26.416 L 67.9199 -41.9434 C 67.9199 -42.9688 67.334 -43.6035 66.5039 -43.6035 C 65.625 -43.6035 65.1367 -42.9688 65.1367 -41.9434 L 65.1367 -4.58984 C 65.1367 -2.63672 64.0625 -1.51367 62.2559 -1.51367 C 60.4004 -1.51367 59.2773 -2.68555 59.2773 -4.58984 L 59.2773 -27.002 C 59.2773 -27.9785 58.7402 -28.6133 57.8613 -28.6133 C 56.9336 -28.6133 56.4453 -28.0273 56.4453 -27.002 L 56.4453 -4.58984 C 56.4453 -2.63672 55.3711 -1.51367 53.6133 -1.51367 Z M 58.1543 -55.4688 C 54.7363 -55.4688 51.8555 -58.3008 51.8555 -61.7188 C 51.8555 -65.1855 54.6387 -68.0176 58.1543 -68.0176 C 61.6211 -68.0176 64.4531 -65.2344 64.4531 -61.7188 C 64.4531 -58.3008 61.5723 -55.4688 58.1543 -55.4688 Z"/>
  </g>
  <g id="Thin-M" transform="matrix(1 0 0 1 799.806 1126)">
   <path d="M 56.6406 12.5977 C 82.9102 12.5977 104.492 -8.98438 104.492 -35.2539 C 104.492 -61.5723 82.9102 -83.1543 56.5918 -83.1543 C 30.3223 -83.1543 8.74023 -61.5723 8.74023 -35.2539 C 8.74023 -8.98438 30.3223 12.5977 56.6406 12.5977 Z M 52.6855 -1.5625 C 51.0254 -1.5625 50 -2.68555 50 -4.39453 L 50 -45.6055 C 50 -47.0215 49.5117 -47.998 48.584 -48.6328 L 41.9434 -53.4668 C 40.5762 -54.4922 39.9414 -55.7129 39.7949 -57.6172 L 39.1113 -67.0898 C 39.0137 -68.6035 39.8438 -69.6777 41.2598 -69.7754 C 42.627 -69.873 43.5059 -68.9941 43.6523 -67.3828 L 44.3848 -57.1777 L 48.877 -54.1504 C 50.1953 -53.2715 51.3672 -52.7832 53.3691 -52.7832 L 56.8848 -52.7832 C 66.6992 -52.7832 70.6055 -50.0488 70.6055 -42.334 L 70.6055 -26.3672 C 70.6055 -24.8535 69.7266 -23.877 68.3594 -23.877 C 66.9434 -23.877 66.0645 -24.8047 66.0645 -26.3672 L 66.0645 -42.6758 C 66.0645 -43.7012 65.4297 -44.3359 64.5996 -44.3359 C 63.8184 -44.3359 63.2812 -43.7012 63.2812 -42.6758 L 63.2812 -4.39453 C 63.2812 -2.63672 62.3047 -1.5625 60.6934 -1.5625 C 59.0332 -1.5625 58.0078 -2.68555 58.0078 -4.39453 L 58.0078 -27.2949 C 58.0078 -28.3691 57.5195 -29.0039 56.6406 -29.0039 C 55.7129 -29.0039 55.2734 -28.3691 55.2734 -27.2949 L 55.2734 -4.39453 C 55.2734 -2.63672 54.2969 -1.5625 52.6855 -1.5625 Z M 56.8848 -55.8105 C 53.5645 -55.8105 50.7812 -58.5938 50.7812 -61.9141 C 50.7812 -65.332 53.5156 -68.0664 56.8848 -68.0664 C 60.3027 -68.0664 62.9883 -65.3809 62.9883 -61.9141 C 62.9883 -58.5449 60.2539 -55.8105 56.8848 -55.8105 Z"/>
  </g>
  <g id="Ultralight-M" transform="matrix(1 0 0 1 503.656 1126)">
   <path d="M 56.0547 12.0605 C 82.0801 12.0605 103.369 -9.22852 103.369 -35.2539 C 103.369 -61.2793 82.0801 -82.5684 56.0547 -82.5684 C 30.0293 -82.5684 8.74023 -61.2793 8.74023 -35.2539 C 8.74023 -9.22852 30.0293 12.0605 56.0547 12.0605 Z M 52.2461 -1.61133 C 50.6836 -1.61133 49.707 -2.68555 49.707 -4.29688 L 49.707 -46.1426 C 49.707 -47.6074 49.1699 -48.584 48.3398 -49.2188 L 41.8457 -53.8574 C 40.5762 -54.7852 39.9414 -56.0547 39.7949 -57.9102 L 39.1113 -67.1875 C 39.0137 -68.6035 39.7949 -69.5801 41.1133 -69.7266 C 42.3828 -69.7754 43.2129 -68.9941 43.3594 -67.4316 L 44.0918 -57.2754 L 48.584 -54.2969 C 49.8047 -53.4668 50.9766 -52.9785 52.9297 -52.9785 L 56.25 -52.9785 C 65.7227 -52.9785 69.2871 -50.1465 69.2871 -42.8223 L 69.2871 -26.3672 C 69.2871 -24.9023 68.5059 -23.9746 67.2852 -23.9746 C 65.918 -23.9746 65.0879 -24.8535 65.0879 -26.3672 L 65.0879 -43.0176 C 65.0879 -44.0918 64.4531 -44.6777 63.6719 -44.6777 C 62.8418 -44.6777 62.3535 -44.0918 62.3535 -43.0176 L 62.3535 -4.29688 C 62.3535 -2.58789 61.4258 -1.61133 59.8633 -1.61133 C 58.3008 -1.61133 57.373 -2.68555 57.373 -4.29688 L 57.373 -27.4902 C 57.373 -28.5645 56.8848 -29.1504 56.0059 -29.1504 C 55.0781 -29.1504 54.6387 -28.5645 54.6387 -27.4902 L 54.6387 -4.29688 C 54.6387 -2.58789 53.7109 -1.61133 52.2461 -1.61133 Z M 56.25 -55.957 C 52.9785 -55.957 50.2441 -58.6914 50.2441 -62.0117 C 50.2441 -65.3809 52.9297 -68.1152 56.25 -68.1152 C 59.6191 -68.1152 62.2559 -65.4297 62.2559 -62.0117 C 62.2559 -58.6426 59.5703 -55.957 56.25 -55.957 Z"/>
  </g>
  <g id="Black-S" transform="matrix(1 0 0 1 2884.57 696)">
   <path d="M 48.8281 6.78711 C 71.9727 6.78711 90.8203 -12.0605 90.8203 -35.2051 C 90.8203 -58.3496 71.9727 -77.1973 48.8281 -77.1973 C 25.6836 -77.1973 6.83594 -58.3496 6.83594 -35.2051 C 6.83594 -12.0605 25.6836 6.78711 48.8281 6.78711 Z M 45.1172 -11.6211 C 43.6523 -11.6211 42.7246 -12.7441 42.7246 -14.4531 L 42.7246 -40.8203 C 42.7246 -41.748 42.3828 -42.2852 41.6992 -42.8711 L 36.2305 -47.5098 C 34.8633 -48.6816 34.3262 -49.6582 34.2285 -50.9766 L 33.6426 -58.4961 C 33.4961 -60.1074 34.5215 -61.2305 36.0352 -61.2793 C 37.5 -61.377 38.5742 -60.3516 38.6719 -58.7891 L 39.1113 -51.4648 L 42.2363 -48.7793 C 43.4082 -47.8027 44.2383 -47.7051 45.7031 -47.7051 L 48.877 -47.7051 C 58.4961 -47.7051 62.0117 -45.3613 62.0117 -38.916 L 62.0117 -29.8828 C 62.0117 -28.2715 61.084 -27.2949 59.6191 -27.2949 C 58.252 -27.2949 57.3242 -28.2715 57.3242 -29.8828 L 57.3242 -39.0137 C 57.3242 -39.8438 56.8359 -40.5273 56.2012 -40.5273 C 55.4688 -40.5273 55.0293 -39.8926 55.0293 -39.0137 L 55.0293 -14.4531 C 55.0293 -12.6953 54.0527 -11.6211 52.4414 -11.6211 C 50.9766 -11.6211 50.0488 -12.7441 50.0488 -14.4531 L 50.0488 -29.248 C 50.0488 -30.0781 49.5117 -30.6641 48.8281 -30.6641 C 48.0957 -30.6641 47.7051 -30.127 47.7051 -29.248 L 47.7051 -14.4531 C 47.7051 -12.6953 46.7285 -11.6211 45.1172 -11.6211 Z M 48.877 -50.0977 C 46.1914 -50.0977 43.9453 -52.3438 43.9453 -54.9316 C 43.9453 -57.7148 46.1914 -60.0098 48.877 -60.0098 C 51.6113 -60.0098 53.8574 -57.666 53.8574 -54.9316 C 53.8574 -52.3926 51.5625 -50.0977 48.877 -50.0977 Z"/>
  </g>
  <g id="Heavy-S" transform="matrix(1 0 0 1 2588.47 696)">
   <path d="M 48.2422 6.15234 C 70.9961 6.15234 89.5996 -12.4512 89.5996 -35.2051 C 89.5996 -57.959 70.9961 -76.6113 48.1934 -76.6113 C 25.4395 -76.6113 6.83594 -57.959 6.83594 -35.2051 C 6.83594 -12.4512 25.4395 6.15234 48.2422 6.15234 Z M 44.5801 -10.9375 C 43.0664 -10.9375 42.1387 -12.0117 42.1387 -13.7207 L 42.1387 -41.0156 C 42.1387 -41.9434 41.7969 -42.4805 41.0645 -43.1152 L 35.498 -47.6562 C 34.1797 -48.7793 33.5938 -49.8047 33.4961 -51.1719 L 32.959 -58.8379 C 32.8125 -60.4492 33.7891 -61.5234 35.2539 -61.5723 C 36.7188 -61.6699 37.793 -60.6934 37.8906 -59.1309 L 38.3301 -51.6113 L 41.5527 -48.9746 C 42.7734 -47.998 43.6035 -47.8516 45.166 -47.8516 L 48.3887 -47.8516 C 57.8125 -47.8516 61.4746 -45.6055 61.4746 -38.9648 L 61.4746 -29.541 C 61.4746 -27.9297 60.5469 -26.9531 59.082 -26.9531 C 57.7148 -26.9531 56.7871 -27.9297 56.7871 -29.541 L 56.7871 -39.209 C 56.7871 -39.9902 56.2988 -40.6738 55.6641 -40.6738 C 54.9316 -40.6738 54.4922 -40.0391 54.4922 -39.209 L 54.4922 -13.7207 C 54.4922 -12.0117 53.5645 -10.9375 51.9531 -10.9375 C 50.4395 -10.9375 49.4629 -12.0117 49.4629 -13.7207 L 49.4629 -29.0527 C 49.4629 -29.8828 48.9746 -30.4199 48.291 -30.4199 C 47.5586 -30.4199 47.168 -29.9316 47.168 -29.0527 L 47.168 -13.7207 C 47.168 -12.0117 46.1914 -10.9375 44.5801 -10.9375 Z M 48.3887 -50.2441 C 45.7031 -50.2441 43.4082 -52.4902 43.4082 -55.127 C 43.4082 -57.9102 45.6543 -60.2051 48.3887 -60.2051 C 51.123 -60.2051 53.418 -57.9102 53.418 -55.127 C 53.418 -52.5391 51.0742 -50.2441 48.3887 -50.2441 Z"/>
  </g>
  <g id="Bold-S" transform="matrix(1 0 0 1 2292.44 696)">
   <path d="M 47.5586 5.46875 C 69.873 5.46875 88.2324 -12.8906 88.2324 -35.2539 C 88.2324 -57.5684 69.873 -75.9277 47.5098 -75.9277 C 25.1953 -75.9277 6.83594 -57.5684 6.83594 -35.2539 C 6.83594 -12.8906 25.1953 5.46875 47.5586 5.46875 Z M 43.9941 -10.2051 C 42.4316 -10.2051 41.5039 -11.2305 41.5039 -12.9395 L 41.5039 -41.2109 C 41.5039 -42.1387 41.1621 -42.7246 40.3809 -43.3594 L 34.668 -47.8516 C 33.3496 -48.9258 32.8125 -49.9512 32.7148 -51.3672 L 32.1289 -59.1797 C 32.0312 -60.791 32.959 -61.8164 34.4238 -61.9141 C 35.8887 -62.0117 36.8652 -61.0352 36.9629 -59.5215 L 37.4512 -51.7578 L 40.8203 -49.1699 C 42.0898 -48.1934 42.9199 -47.998 44.5312 -47.998 L 47.8027 -47.998 C 56.9824 -47.998 60.8398 -45.8984 60.8398 -39.0137 L 60.8398 -29.1016 C 60.8398 -27.5391 59.9609 -26.5625 58.4961 -26.5625 C 57.0801 -26.5625 56.1523 -27.5391 56.1523 -29.1016 L 56.1523 -39.4043 C 56.1523 -40.1855 55.7129 -40.8203 55.0293 -40.8203 C 54.3457 -40.8203 53.9062 -40.2344 53.9062 -39.4043 L 53.9062 -12.9395 C 53.9062 -11.1816 52.9785 -10.2051 51.3672 -10.2051 C 49.8047 -10.2051 48.8281 -11.2305 48.8281 -12.9395 L 48.8281 -28.8574 C 48.8281 -29.6387 48.3398 -30.1758 47.6562 -30.1758 C 46.9727 -30.1758 46.5332 -29.6875 46.5332 -28.8574 L 46.5332 -12.9395 C 46.5332 -11.1816 45.6055 -10.2051 43.9941 -10.2051 Z M 47.8027 -50.4395 C 45.1172 -50.4395 42.8223 -52.6855 42.8223 -55.3711 C 42.8223 -58.1543 45.0684 -60.4492 47.8027 -60.4492 C 50.5859 -60.4492 52.8809 -58.1543 52.8809 -55.3711 C 52.8809 -52.7344 50.5371 -50.4395 47.8027 -50.4395 Z"/>
  </g>
  <g id="Semibold-S" transform="matrix(1 0 0 1 1996.2 696)">
   <path d="M 47.0703 4.98047 C 69.0918 4.98047 87.3047 -13.1836 87.3047 -35.2539 C 87.3047 -57.2754 69.0918 -75.4883 47.0215 -75.4883 C 25 -75.4883 6.83594 -57.2754 6.83594 -35.2539 C 6.83594 -13.1836 25.0488 4.98047 47.0703 4.98047 Z M 43.6035 -9.66797 C 41.9922 -9.66797 41.0645 -10.6934 41.0645 -12.4023 L 41.0645 -41.3574 C 41.0645 -42.2852 40.7227 -42.9199 39.8926 -43.5059 L 34.1309 -47.998 C 32.8125 -49.0234 32.2266 -50.0488 32.1289 -51.5137 L 31.5918 -59.4238 C 31.4941 -61.0352 32.373 -62.0605 33.8379 -62.1582 C 35.2539 -62.2559 36.2305 -61.3281 36.3281 -59.7656 L 36.8164 -51.9043 L 40.2832 -49.3164 C 41.6016 -48.3398 42.4316 -48.0957 44.0918 -48.0957 L 47.4121 -48.0957 C 56.4453 -48.0957 60.4004 -46.0938 60.4004 -39.0137 L 60.4004 -28.8574 C 60.4004 -27.2949 59.5215 -26.3184 58.1055 -26.3184 C 56.6406 -26.3184 55.7617 -27.2949 55.7617 -28.8574 L 55.7617 -39.5508 C 55.7617 -40.332 55.2734 -40.918 54.6387 -40.918 C 53.9062 -40.918 53.4668 -40.3809 53.4668 -39.5508 L 53.4668 -12.4023 C 53.4668 -10.6445 52.5879 -9.66797 50.9766 -9.66797 C 49.3652 -9.66797 48.3887 -10.6934 48.3887 -12.4023 L 48.3887 -28.7109 C 48.3887 -29.4922 47.9004 -30.0293 47.2168 -30.0293 C 46.5332 -30.0293 46.0938 -29.541 46.0938 -28.7109 L 46.0938 -12.4023 C 46.0938 -10.6445 45.166 -9.66797 43.6035 -9.66797 Z M 47.4121 -50.5371 C 44.7266 -50.5371 42.3828 -52.832 42.3828 -55.5176 C 42.3828 -58.3008 44.6289 -60.5957 47.4121 -60.5957 C 50.1953 -60.5957 52.4902 -58.3008 52.4902 -55.5176 C 52.4902 -52.8809 50.1465 -50.5371 47.4121 -50.5371 Z"/>
  </g>
  <g id="Medium-S" transform="matrix(1 0 0 1 1699.83 696)">
   <path d="M 46.7285 4.63867 C 68.5547 4.63867 86.6211 -13.4277 86.6211 -35.2539 C 86.6211 -57.0801 68.5059 -75.1465 46.6797 -75.1465 C 24.8535 -75.1465 6.83594 -57.0801 6.83594 -35.2539 C 6.83594 -13.4277 24.9023 4.63867 46.7285 4.63867 Z M 43.2617 -9.27734 C 41.6504 -9.27734 40.7227 -10.2539 40.7227 -12.0117 L 40.7227 -41.4551 C 40.7227 -42.3828 40.3809 -43.0176 39.5508 -43.6523 L 33.6914 -48.0957 C 32.373 -49.1211 31.7871 -50.0977 31.6895 -51.6113 L 31.1523 -59.6191 C 31.0547 -61.2305 31.9336 -62.207 33.3496 -62.3047 C 34.8145 -62.4512 35.7422 -61.5234 35.8398 -59.9609 L 36.377 -51.9531 L 39.8926 -49.4141 C 41.2109 -48.4375 42.041 -48.1445 43.7988 -48.1445 L 47.1191 -48.1445 C 56.0547 -48.1445 60.1074 -46.2402 60.1074 -39.0625 L 60.1074 -28.6133 C 60.1074 -27.0996 59.2285 -26.123 57.7637 -26.123 C 56.3477 -26.123 55.4199 -27.0996 55.4199 -28.6133 L 55.4199 -39.6973 C 55.4199 -40.4297 54.9805 -41.0156 54.2969 -41.0156 C 53.6133 -41.0156 53.1738 -40.4785 53.1738 -39.6973 L 53.1738 -12.0117 C 53.1738 -10.2539 52.2949 -9.27734 50.6348 -9.27734 C 49.0234 -9.27734 48.0469 -10.2539 48.0469 -12.0117 L 48.0469 -28.6133 C 48.0469 -29.3457 47.6074 -29.8828 46.9238 -29.8828 C 46.2402 -29.8828 45.8008 -29.3945 45.8008 -28.6133 L 45.8008 -12.0117 C 45.8008 -10.2539 44.873 -9.27734 43.2617 -9.27734 Z M 47.1191 -50.6348 C 44.3848 -50.6348 42.0898 -52.9297 42.0898 -55.6152 C 42.0898 -58.4473 44.3359 -60.7422 47.1191 -60.7422 C 49.9023 -60.7422 52.2461 -58.4473 52.2461 -55.6152 C 52.2461 -52.9785 49.8535 -50.6348 47.1191 -50.6348 Z"/>
  </g>
  <g id="Regular-S" transform="matrix(1 0 0 1 1403.58 696)">
   <path d="M 46.2402 4.15039 C 67.7734 4.15039 85.6934 -13.7207 85.6934 -35.2539 C 85.6934 -56.7871 67.7246 -74.6582 46.1914 -74.6582 C 24.707 -74.6582 6.83594 -56.7871 6.83594 -35.2539 C 6.83594 -13.7207 24.7559 4.15039 46.2402 4.15039 Z M 42.8711 -8.74023 C 41.2109 -8.74023 40.2832 -9.7168 40.2832 -11.4258 L 40.2832 -41.5527 C 40.2832 -42.5293 39.8926 -43.2129 39.0625 -43.8477 L 33.1543 -48.2422 C 31.8359 -49.2188 31.25 -50.1953 31.1523 -51.709 L 30.6152 -59.8633 C 30.5176 -61.4746 31.3477 -62.4512 32.7637 -62.5488 C 34.2285 -62.6953 35.1562 -61.7676 35.2539 -60.2051 L 35.791 -52.0508 L 39.4043 -49.5605 C 40.7227 -48.584 41.5527 -48.2422 43.3594 -48.2422 L 46.7285 -48.2422 C 55.5176 -48.2422 59.668 -46.4355 59.668 -39.0625 L 59.668 -28.3691 C 59.668 -26.8066 58.7891 -25.8789 57.373 -25.8789 C 55.9082 -25.8789 55.0293 -26.8066 55.0293 -28.3691 L 55.0293 -39.8438 C 55.0293 -40.5762 54.541 -41.1133 53.9062 -41.1133 C 53.2227 -41.1133 52.7832 -40.625 52.7832 -39.8438 L 52.7832 -11.4258 C 52.7832 -9.7168 51.9043 -8.74023 50.2441 -8.74023 C 48.6328 -8.74023 47.6074 -9.7168 47.6074 -11.4258 L 47.6074 -28.4668 C 47.6074 -29.1992 47.168 -29.7363 46.4844 -29.7363 C 45.8008 -29.7363 45.3613 -29.248 45.3613 -28.4668 L 45.3613 -11.4258 C 45.3613 -9.7168 44.4336 -8.74023 42.8711 -8.74023 Z M 46.7285 -50.7812 C 43.9941 -50.7812 41.6504 -53.0762 41.6504 -55.7617 C 41.6504 -58.5938 43.8965 -60.8887 46.7285 -60.8887 C 49.5605 -60.8887 51.9043 -58.5938 51.9043 -55.7617 C 51.9043 -53.125 49.5117 -50.7812 46.7285 -50.7812 Z"/>
  </g>
  <g id="Light-S" transform="matrix(1 0 0 1 1107.6 696)">
   <path d="M 45.5078 3.41797 C 66.6992 3.41797 84.2285 -14.0625 84.2285 -35.2539 C 84.2285 -56.4453 66.6504 -73.9258 45.5078 -73.9258 C 24.3164 -73.9258 6.83594 -56.4453 6.83594 -35.2539 C 6.83594 -14.0625 24.3652 3.41797 45.5078 3.41797 Z M 42.2852 -8.78906 C 40.7715 -8.78906 39.8438 -9.7168 39.8438 -11.2793 L 39.8438 -42.2852 C 39.8438 -43.2617 39.502 -43.9941 38.6719 -44.5801 L 33.0566 -48.7305 C 31.8359 -49.6094 31.25 -50.6348 31.1523 -52.1484 L 30.6152 -60.0098 C 30.5176 -61.4258 31.2988 -62.3535 32.6172 -62.4512 C 33.9355 -62.5488 34.7656 -61.7188 34.8633 -60.3027 L 35.4004 -52.1973 L 38.9648 -49.7559 C 40.1855 -48.877 41.0645 -48.5352 42.7734 -48.5352 L 45.8984 -48.5352 C 54.248 -48.5352 58.0078 -46.582 58.0078 -39.7461 L 58.0078 -28.3203 C 58.0078 -26.9043 57.2266 -26.0254 55.9082 -26.0254 C 54.5898 -26.0254 53.7598 -26.9043 53.7598 -28.3203 L 53.7598 -40.2832 C 53.7598 -41.0645 53.3203 -41.6016 52.6367 -41.6016 C 51.9531 -41.6016 51.5625 -41.1133 51.5625 -40.2832 L 51.5625 -11.2793 C 51.5625 -9.7168 50.7324 -8.78906 49.2188 -8.78906 C 47.7051 -8.78906 46.7773 -9.7168 46.7773 -11.2793 L 46.7773 -28.6621 C 46.7773 -29.4434 46.3867 -29.9805 45.7031 -29.9805 C 44.9707 -29.9805 44.5801 -29.4922 44.5801 -28.6621 L 44.5801 -11.2793 C 44.5801 -9.7168 43.7012 -8.78906 42.2852 -8.78906 Z M 45.8984 -50.9766 C 43.2129 -50.9766 40.9668 -53.2227 40.9668 -55.9082 C 40.9668 -58.6914 43.1641 -60.9375 45.8984 -60.9375 C 48.6816 -60.9375 50.9277 -58.6914 50.9277 -55.9082 C 50.9277 -53.2715 48.6328 -50.9766 45.8984 -50.9766 Z"/>
  </g>
  <g id="Thin-S" transform="matrix(1 0 0 1 811.867 696)">
   <path d="M 44.5801 2.49023 C 65.2832 2.49023 82.2754 -14.5508 82.2754 -35.2539 C 82.2754 -55.957 65.2344 -72.998 44.5312 -72.998 C 23.8281 -72.998 6.83594 -55.957 6.83594 -35.2539 C 6.83594 -14.5508 23.877 2.49023 44.5801 2.49023 Z M 41.4551 -8.83789 C 40.1367 -8.83789 39.3066 -9.7168 39.3066 -11.1328 L 39.3066 -43.1641 C 39.3066 -44.2383 38.916 -45.0195 38.1836 -45.5078 L 32.9102 -49.3652 C 31.7871 -50.1953 31.2988 -51.1719 31.2012 -52.6367 L 30.6641 -60.1562 C 30.5664 -61.4258 31.25 -62.2559 32.373 -62.3535 C 33.4961 -62.4023 34.2285 -61.7188 34.3262 -60.4004 L 34.9121 -52.3926 L 38.4277 -50 C 39.502 -49.2676 40.4297 -48.877 41.9922 -48.877 L 44.8242 -48.877 C 52.5879 -48.877 55.8105 -46.7773 55.8105 -40.625 L 55.8105 -28.3203 C 55.8105 -27.0508 55.0781 -26.2695 54.0039 -26.2695 C 52.832 -26.2695 52.0996 -27.002 52.0996 -28.3203 L 52.0996 -40.918 C 52.0996 -41.6992 51.6602 -42.2363 50.9766 -42.2363 C 50.3418 -42.2363 49.9512 -41.748 49.9512 -40.918 L 49.9512 -11.1328 C 49.9512 -9.66797 49.1699 -8.83789 47.8516 -8.83789 C 46.5332 -8.83789 45.7031 -9.7168 45.7031 -11.1328 L 45.7031 -28.9551 C 45.7031 -29.7852 45.3125 -30.2734 44.6289 -30.2734 C 43.8965 -30.2734 43.5547 -29.7852 43.5547 -28.9551 L 43.5547 -11.1328 C 43.5547 -9.66797 42.7734 -8.83789 41.4551 -8.83789 Z M 44.8242 -51.2695 C 42.1875 -51.2695 39.9902 -53.4668 39.9902 -56.1035 C 39.9902 -58.7891 42.1387 -60.9375 44.8242 -60.9375 C 47.5098 -60.9375 49.6582 -58.7891 49.6582 -56.1035 C 49.6582 -53.418 47.4609 -51.2695 44.8242 -51.2695 Z"/>
  </g>
  <g id="Ultralight-S" transform="matrix(1 0 0 1 515.644 696)">
   <path d="M 44.043 1.95312 C 64.502 1.95312 81.2988 -14.7949 81.2988 -35.2539 C 81.2988 -55.7129 64.502 -72.4609 44.043 -72.4609 C 23.584 -72.4609 6.83594 -55.7129 6.83594 -35.2539 C 6.83594 -14.7949 23.584 1.95312 44.043 1.95312 Z M 41.0645 -8.88672 C 39.8438 -8.88672 39.0137 -9.7168 39.0137 -10.9863 L 39.0137 -43.6523 C 39.0137 -44.7754 38.6719 -45.5566 37.9395 -46.0449 L 32.8613 -49.707 C 31.7871 -50.4883 31.2988 -51.4648 31.2012 -52.9297 L 30.6641 -60.2539 C 30.5664 -61.377 31.2012 -62.1582 32.2754 -62.2559 C 33.3008 -62.3047 33.9355 -61.6699 34.0332 -60.4492 L 34.6191 -52.4902 L 38.1348 -50.0977 C 39.1602 -49.4629 40.0879 -49.0723 41.6016 -49.0723 L 44.2871 -49.0723 C 51.7578 -49.0723 54.6875 -46.875 54.6875 -41.0645 L 54.6875 -28.2715 C 54.6875 -27.1484 54.0039 -26.3672 53.0273 -26.3672 C 51.9043 -26.3672 51.2695 -27.0996 51.2695 -28.2715 L 51.2695 -41.2598 C 51.2695 -42.041 50.7812 -42.5293 50.1465 -42.5293 C 49.5117 -42.5293 49.1211 -42.041 49.1211 -41.2598 L 49.1211 -10.9863 C 49.1211 -9.66797 48.3887 -8.88672 47.168 -8.88672 C 45.8984 -8.88672 45.166 -9.7168 45.166 -10.9863 L 45.166 -29.1016 C 45.166 -29.9316 44.7754 -30.4199 44.0918 -30.4199 C 43.3594 -30.4199 43.0176 -29.9316 43.0176 -29.1016 L 43.0176 -10.9863 C 43.0176 -9.66797 42.2852 -8.88672 41.0645 -8.88672 Z M 44.2871 -51.416 C 41.6992 -51.416 39.502 -53.5645 39.502 -56.2012 C 39.502 -58.8379 41.6504 -60.9863 44.2871 -60.9863 C 46.9238 -60.9863 48.9746 -58.8867 48.9746 -56.2012 C 48.9746 -53.5645 46.875 -51.416 44.2871 -51.416 Z"/>
  </g>
 </g>
</svg>
