<?xml version="1.0" encoding="UTF-8"?>
<!--Generator: Apple Native CoreSVG 148-->
<!DOCTYPE svg
PUBLIC "-//W3C//DTD SVG 1.1//EN"
       "http://www.w3.org/Graphics/SVG/1.1/DTD/svg11.dtd">
<svg version="1.1" xmlns="http://www.w3.org/2000/svg" xmlns:xlink="http://www.w3.org/1999/xlink" width="3300" height="2200">
 <!--glyph: "uni100AB4.medium", point size: 100.000000, font version: "Version 16.0d11e1", template writer version: "8"-->
 <g id="Notes">
  <rect height="2200" id="artboard" style="fill:white;opacity:1" width="3300" x="0" y="0"/>
  <line id="" style="fill:none;stroke:black;opacity:1;stroke-width:0.5;" x1="263" x2="3036" y1="292" y2="292"/>
  <text style="stroke:none;fill:black;font-family:-apple-system,&quot;SF Pro Display&quot;,&quot;SF Pro Text&quot;,Helvetica,sans-serif;font-weight:bold;" transform="matrix(1 0 0 1 263 322)">Weight/Scale Variations</text>
  <text style="stroke:none;fill:black;font-family:-apple-system,&quot;SF Pro Display&quot;,&quot;SF Pro Text&quot;,Helvetica,sans-serif;text-anchor:middle;" transform="matrix(1 0 0 1 559.711 322)">Ultralight</text>
  <text style="stroke:none;fill:black;font-family:-apple-system,&quot;SF Pro Display&quot;,&quot;SF Pro Text&quot;,Helvetica,sans-serif;text-anchor:middle;" transform="matrix(1 0 0 1 856.422 322)">Thin</text>
  <text style="stroke:none;fill:black;font-family:-apple-system,&quot;SF Pro Display&quot;,&quot;SF Pro Text&quot;,Helvetica,sans-serif;text-anchor:middle;" transform="matrix(1 0 0 1 1153.13 322)">Light</text>
  <text style="stroke:none;fill:black;font-family:-apple-system,&quot;SF Pro Display&quot;,&quot;SF Pro Text&quot;,Helvetica,sans-serif;text-anchor:middle;" transform="matrix(1 0 0 1 1449.84 322)">Regular</text>
  <text style="stroke:none;fill:black;font-family:-apple-system,&quot;SF Pro Display&quot;,&quot;SF Pro Text&quot;,Helvetica,sans-serif;text-anchor:middle;" transform="matrix(1 0 0 1 1746.56 322)">Medium</text>
  <text style="stroke:none;fill:black;font-family:-apple-system,&quot;SF Pro Display&quot;,&quot;SF Pro Text&quot;,Helvetica,sans-serif;text-anchor:middle;" transform="matrix(1 0 0 1 2043.27 322)">Semibold</text>
  <text style="stroke:none;fill:black;font-family:-apple-system,&quot;SF Pro Display&quot;,&quot;SF Pro Text&quot;,Helvetica,sans-serif;text-anchor:middle;" transform="matrix(1 0 0 1 2339.98 322)">Bold</text>
  <text style="stroke:none;fill:black;font-family:-apple-system,&quot;SF Pro Display&quot;,&quot;SF Pro Text&quot;,Helvetica,sans-serif;text-anchor:middle;" transform="matrix(1 0 0 1 2636.69 322)">Heavy</text>
  <text style="stroke:none;fill:black;font-family:-apple-system,&quot;SF Pro Display&quot;,&quot;SF Pro Text&quot;,Helvetica,sans-serif;text-anchor:middle;" transform="matrix(1 0 0 1 2933.4 322)">Black</text>
  <line id="" style="fill:none;stroke:black;opacity:1;stroke-width:0.5;" x1="263" x2="3036" y1="1903" y2="1903"/>
  <g id="" transform="matrix(1 0 0 1 263 1933)">
   <path d="M 9.24805 0.830078 C 13.5547 0.830078 17.1387 -2.74414 17.1387 -7.05078 C 17.1387 -11.3574 13.5449 -14.9316 9.23828 -14.9316 C 4.94141 -14.9316 1.36719 -11.3574 1.36719 -7.05078 C 1.36719 -2.74414 4.95117 0.830078 9.24805 0.830078 Z M 9.24805 -0.654297 C 5.70312 -0.654297 2.87109 -3.49609 2.87109 -7.05078 C 2.87109 -10.6055 5.69336 -13.4473 9.23828 -13.4473 C 12.793 -13.4473 15.6348 -10.6055 15.6445 -7.05078 C 15.6543 -3.49609 12.8027 -0.654297 9.24805 -0.654297 Z M 9.22852 -3.62305 C 9.69727 -3.62305 9.9707 -3.93555 9.9707 -4.45312 L 9.9707 -6.31836 L 12.002 -6.31836 C 12.5 -6.31836 12.832 -6.57227 12.832 -7.04102 C 12.832 -7.51953 12.5195 -7.7832 12.002 -7.7832 L 9.9707 -7.7832 L 9.9707 -9.81445 C 9.9707 -10.332 9.69727 -10.6543 9.22852 -10.6543 C 8.75977 -10.6543 8.50586 -10.3125 8.50586 -9.81445 L 8.50586 -7.7832 L 6.49414 -7.7832 C 5.97656 -7.7832 5.64453 -7.51953 5.64453 -7.04102 C 5.64453 -6.57227 5.99609 -6.31836 6.49414 -6.31836 L 8.50586 -6.31836 L 8.50586 -4.45312 C 8.50586 -3.95508 8.75977 -3.62305 9.22852 -3.62305 Z"/>
  </g>
  <g id="" transform="matrix(1 0 0 1 281.506 1933)">
   <path d="M 11.709 2.91016 C 17.1582 2.91016 21.6699 -1.61133 21.6699 -7.05078 C 21.6699 -12.5 17.1484 -17.0117 11.6992 -17.0117 C 6.25977 -17.0117 1.74805 -12.5 1.74805 -7.05078 C 1.74805 -1.61133 6.26953 2.91016 11.709 2.91016 Z M 11.709 1.25 C 7.09961 1.25 3.41797 -2.44141 3.41797 -7.05078 C 3.41797 -11.6602 7.08984 -15.3516 11.6992 -15.3516 C 16.3086 -15.3516 20 -11.6602 20.0098 -7.05078 C 20.0195 -2.44141 16.3184 1.25 11.709 1.25 Z M 11.6797 -2.66602 C 12.207 -2.66602 12.5098 -3.01758 12.5098 -3.59375 L 12.5098 -6.23047 L 15.3223 -6.23047 C 15.8691 -6.23047 16.25 -6.51367 16.25 -7.03125 C 16.25 -7.55859 15.8887 -7.86133 15.3223 -7.86133 L 12.5098 -7.86133 L 12.5098 -10.6836 C 12.5098 -11.25 12.207 -11.6113 11.6797 -11.6113 C 11.1621 -11.6113 10.8789 -11.2305 10.8789 -10.6836 L 10.8789 -7.86133 L 8.07617 -7.86133 C 7.50977 -7.86133 7.13867 -7.55859 7.13867 -7.03125 C 7.13867 -6.51367 7.5293 -6.23047 8.07617 -6.23047 L 10.8789 -6.23047 L 10.8789 -3.59375 C 10.8789 -3.03711 11.1621 -2.66602 11.6797 -2.66602 Z"/>
  </g>
  <g id="" transform="matrix(1 0 0 1 304.924 1933)">
   <path d="M 14.9707 5.66406 C 21.9336 5.66406 27.6953 -0.0976562 27.6953 -7.05078 C 27.6953 -14.0137 21.9238 -19.7754 14.9609 -19.7754 C 8.00781 -19.7754 2.25586 -14.0137 2.25586 -7.05078 C 2.25586 -0.0976562 8.01758 5.66406 14.9707 5.66406 Z M 14.9707 3.84766 C 8.93555 3.84766 4.08203 -1.01562 4.08203 -7.05078 C 4.08203 -13.0957 8.92578 -17.9492 14.9609 -17.9492 C 21.0059 -17.9492 25.8594 -13.0957 25.8691 -7.05078 C 25.8789 -1.01562 21.0156 3.84766 14.9707 3.84766 Z M 14.9414 -1.38672 C 15.5176 -1.38672 15.8594 -1.77734 15.8594 -2.38281 L 15.8594 -6.13281 L 19.7754 -6.13281 C 20.3711 -6.13281 20.7812 -6.46484 20.7812 -7.02148 C 20.7812 -7.59766 20.3906 -7.93945 19.7754 -7.93945 L 15.8594 -7.93945 L 15.8594 -11.8652 C 15.8594 -12.4805 15.5176 -12.8711 14.9414 -12.8711 C 14.375 -12.8711 14.0527 -12.4609 14.0527 -11.8652 L 14.0527 -7.93945 L 10.1465 -7.93945 C 9.53125 -7.93945 9.13086 -7.59766 9.13086 -7.02148 C 9.13086 -6.46484 9.55078 -6.13281 10.1465 -6.13281 L 14.0527 -6.13281 L 14.0527 -2.38281 C 14.0527 -1.79688 14.375 -1.38672 14.9414 -1.38672 Z"/>
  </g>
  <text style="stroke:none;fill:black;font-family:-apple-system,&quot;SF Pro Display&quot;,&quot;SF Pro Text&quot;,Helvetica,sans-serif;font-weight:bold;" transform="matrix(1 0 0 1 263 1953)">Design Variations</text>
  <text style="stroke:none;fill:black;font-family:-apple-system,&quot;SF Pro Display&quot;,&quot;SF Pro Text&quot;,Helvetica,sans-serif;" transform="matrix(1 0 0 1 263 1971)">Symbols are supported in up to nine weights and three scales.</text>
  <text style="stroke:none;fill:black;font-family:-apple-system,&quot;SF Pro Display&quot;,&quot;SF Pro Text&quot;,Helvetica,sans-serif;" transform="matrix(1 0 0 1 263 1989)">For optimal layout with text and other symbols, vertically align</text>
  <text style="stroke:none;fill:black;font-family:-apple-system,&quot;SF Pro Display&quot;,&quot;SF Pro Text&quot;,Helvetica,sans-serif;" transform="matrix(1 0 0 1 263 2007)">symbols with the adjacent text.</text>
  <line id="" style="fill:none;stroke:#00AEEF;stroke-width:0.5;opacity:1.0;" x1="776" x2="776" y1="1919" y2="1933"/>
  <g id="" transform="matrix(1 0 0 1 776 1933)">
   <path d="M 3.31055 0.126953 C 3.82812 0.126953 4.08203 -0.0683594 4.26758 -0.605469 L 5.52734 -4.0625 L 11.2891 -4.0625 L 12.5488 -0.605469 C 12.7344 -0.0683594 12.9883 0.126953 13.4961 0.126953 C 14.0137 0.126953 14.3457 -0.185547 14.3457 -0.673828 C 14.3457 -0.839844 14.3164 -0.986328 14.2383 -1.20117 L 9.6582 -13.3887 C 9.43359 -13.9941 9.0332 -14.2871 8.4082 -14.2871 C 7.80273 -14.2871 7.39258 -13.9941 7.17773 -13.3984 L 2.59766 -1.19141 C 2.51953 -0.976562 2.49023 -0.830078 2.49023 -0.664062 C 2.49023 -0.175781 2.80273 0.126953 3.31055 0.126953 Z M 6.00586 -5.53711 L 8.37891 -12.1094 L 8.42773 -12.1094 L 10.8008 -5.53711 Z"/>
  </g>
  <line id="" style="fill:none;stroke:#00AEEF;stroke-width:0.5;opacity:1.0;" x1="792.836" x2="792.836" y1="1919" y2="1933"/>
  <text style="stroke:none;fill:black;font-family:-apple-system,&quot;SF Pro Display&quot;,&quot;SF Pro Text&quot;,Helvetica,sans-serif;font-weight:bold;" transform="matrix(1 0 0 1 776 1953)">Margins</text>
  <text style="stroke:none;fill:black;font-family:-apple-system,&quot;SF Pro Display&quot;,&quot;SF Pro Text&quot;,Helvetica,sans-serif;" transform="matrix(1 0 0 1 776 1971)">Leading and trailing margins on the left and right side of each symbol</text>
  <text style="stroke:none;fill:black;font-family:-apple-system,&quot;SF Pro Display&quot;,&quot;SF Pro Text&quot;,Helvetica,sans-serif;" transform="matrix(1 0 0 1 776 1989)">can be adjusted by modifying the x-location of the margin guidelines.</text>
  <text style="stroke:none;fill:black;font-family:-apple-system,&quot;SF Pro Display&quot;,&quot;SF Pro Text&quot;,Helvetica,sans-serif;" transform="matrix(1 0 0 1 776 2007)">Modifications are automatically applied proportionally to all</text>
  <text style="stroke:none;fill:black;font-family:-apple-system,&quot;SF Pro Display&quot;,&quot;SF Pro Text&quot;,Helvetica,sans-serif;" transform="matrix(1 0 0 1 776 2025)">scales and weights.</text>
  <g id="" transform="matrix(1 0 0 1 1289 1933)">
   <path d="M 2.8418 1.86523 L 4.54102 3.57422 C 5.40039 4.44336 6.38672 4.38477 7.31445 3.35938 L 17.4902 -7.85156 C 17.7539 -7.76367 18.0273 -7.7832 18.3398 -7.8418 L 19.4043 -8.03711 L 20.0684 -7.36328 L 20.0293 -6.80664 C 19.9902 -6.30859 20.1172 -5.92773 20.6055 -5.44922 L 21.3672 -4.70703 C 21.8457 -4.22852 22.4609 -4.19922 22.9297 -4.66797 L 25.8398 -7.58789 C 26.3086 -8.05664 26.2891 -8.65234 25.8105 -9.13086 L 25.0391 -9.89258 C 24.5605 -10.3711 24.1895 -10.5273 23.7109 -10.4883 L 23.1348 -10.4395 L 22.4902 -11.0742 L 22.7344 -12.1973 C 22.8613 -12.7637 22.7051 -13.2031 22.1191 -13.7891 L 19.9219 -15.9766 C 16.582 -19.2969 12.1484 -19.2188 9.25781 -16.3281 C 8.83789 -15.918 8.80859 -15.3418 9.04297 -14.9512 C 9.27734 -14.5898 9.73633 -14.3555 10.3809 -14.5215 C 11.8457 -14.8633 13.3691 -14.9219 14.7949 -13.9844 L 14.209 -12.5293 C 14.0137 -12.0508 13.9844 -11.6504 14.1113 -11.2891 L 3.04688 -0.898438 C 2.06055 0.0195312 1.98242 0.996094 2.8418 1.86523 Z M 10.752 -15.957 C 13.1836 -17.7344 16.4746 -17.4316 18.7012 -15.2051 L 21.1328 -12.793 C 21.3672 -12.5586 21.4062 -12.373 21.3379 -12.0312 L 21.0156 -10.5469 L 22.5195 -9.0625 L 23.5059 -9.12109 C 23.7598 -9.13086 23.8379 -9.11133 24.0332 -8.91602 L 24.6094 -8.33984 L 22.168 -5.89844 L 21.5918 -6.47461 C 21.3965 -6.66992 21.3672 -6.74805 21.377 -7.01172 L 21.4453 -7.98828 L 19.9512 -9.47266 L 18.4277 -9.21875 C 18.1055 -9.15039 17.959 -9.17969 17.7148 -9.41406 L 15.7129 -11.416 C 15.459 -11.6504 15.4297 -11.8164 15.5859 -12.1875 L 16.4648 -14.2773 C 14.9023 -15.7324 12.8711 -16.3574 10.8398 -15.7617 C 10.6836 -15.7227 10.625 -15.8496 10.752 -15.957 Z M 5.27344 2.30469 L 4.10156 1.14258 C 3.63281 0.683594 3.74023 0.341797 4.14062 -0.0195312 L 14.9512 -10.1953 L 16.416 -8.71094 L 6.42578 2.27539 C 6.07422 2.67578 5.74219 2.77344 5.27344 2.30469 Z"/>
  </g>
  <text style="stroke:none;fill:black;font-family:-apple-system,&quot;SF Pro Display&quot;,&quot;SF Pro Text&quot;,Helvetica,sans-serif;font-weight:bold;" transform="matrix(1 0 0 1 1289 1953)">Exporting</text>
  <text style="stroke:none;fill:black;font-family:-apple-system,&quot;SF Pro Display&quot;,&quot;SF Pro Text&quot;,Helvetica,sans-serif;" transform="matrix(1 0 0 1 1289 1971)">Symbols should be outlined when exporting to ensure the</text>
  <text style="stroke:none;fill:black;font-family:-apple-system,&quot;SF Pro Display&quot;,&quot;SF Pro Text&quot;,Helvetica,sans-serif;" transform="matrix(1 0 0 1 1289 1989)">design is preserved when submitting to Xcode.</text>
  <text id="template-version" style="stroke:none;fill:black;font-family:-apple-system,&quot;SF Pro Display&quot;,&quot;SF Pro Text&quot;,Helvetica,sans-serif;text-anchor:end;" transform="matrix(1 0 0 1 3036 1933)">Template v.2.0</text>
  <text style="stroke:none;fill:black;font-family:-apple-system,&quot;SF Pro Display&quot;,&quot;SF Pro Text&quot;,Helvetica,sans-serif;text-anchor:end;" transform="matrix(1 0 0 1 3036 1951)">Requires Xcode 12 or greater</text>
  <text style="stroke:none;fill:black;font-family:-apple-system,&quot;SF Pro Display&quot;,&quot;SF Pro Text&quot;,Helvetica,sans-serif;text-anchor:end;" transform="matrix(1 0 0 1 3036 1969)">Generated from flipphone</text>
  <text style="stroke:none;fill:black;font-family:-apple-system,&quot;SF Pro Display&quot;,&quot;SF Pro Text&quot;,Helvetica,sans-serif;text-anchor:end;" transform="matrix(1 0 0 1 3036 1987)">Typeset at 100 points</text>
  <text style="stroke:none;fill:black;font-family:-apple-system,&quot;SF Pro Display&quot;,&quot;SF Pro Text&quot;,Helvetica,sans-serif;" transform="matrix(1 0 0 1 263 726)">Small</text>
  <text style="stroke:none;fill:black;font-family:-apple-system,&quot;SF Pro Display&quot;,&quot;SF Pro Text&quot;,Helvetica,sans-serif;" transform="matrix(1 0 0 1 263 1156)">Medium</text>
  <text style="stroke:none;fill:black;font-family:-apple-system,&quot;SF Pro Display&quot;,&quot;SF Pro Text&quot;,Helvetica,sans-serif;" transform="matrix(1 0 0 1 263 1586)">Large</text>
 </g>
 <g id="Guides">
  <g id="H-reference" style="fill:#27AAE1;stroke:none;" transform="matrix(1 0 0 1 339 696)">
   <path d="M 0.976562 0 L 3.66211 0 L 12.9883 -24.4629 L 45.7031 -24.4629 L 55.0781 0 L 57.7148 0 L 30.6152 -70.459 L 28.125 -70.459 Z M 29.2969 -67.1387 L 29.3945 -67.1387 L 44.873 -26.709 L 13.8672 -26.709 Z"/>
  </g>
  <line id="Baseline-S" style="fill:none;stroke:#27AAE1;opacity:1;stroke-width:0.5;" x1="263" x2="3036" y1="696" y2="696"/>
  <line id="Capline-S" style="fill:none;stroke:#27AAE1;opacity:1;stroke-width:0.5;" x1="263" x2="3036" y1="625.541" y2="625.541"/>
  <g id="H-reference" style="fill:#27AAE1;stroke:none;" transform="matrix(1 0 0 1 339 1126)">
   <path d="M 0.976562 0 L 3.66211 0 L 12.9883 -24.4629 L 45.7031 -24.4629 L 55.0781 0 L 57.7148 0 L 30.6152 -70.459 L 28.125 -70.459 Z M 29.2969 -67.1387 L 29.3945 -67.1387 L 44.873 -26.709 L 13.8672 -26.709 Z"/>
  </g>
  <line id="Baseline-M" style="fill:none;stroke:#27AAE1;opacity:1;stroke-width:0.5;" x1="263" x2="3036" y1="1126" y2="1126"/>
  <line id="Capline-M" style="fill:none;stroke:#27AAE1;opacity:1;stroke-width:0.5;" x1="263" x2="3036" y1="1055.54" y2="1055.54"/>
  <g id="H-reference" style="fill:#27AAE1;stroke:none;" transform="matrix(1 0 0 1 339 1556)">
   <path d="M 0.976562 0 L 3.66211 0 L 12.9883 -24.4629 L 45.7031 -24.4629 L 55.0781 0 L 57.7148 0 L 30.6152 -70.459 L 28.125 -70.459 Z M 29.2969 -67.1387 L 29.3945 -67.1387 L 44.873 -26.709 L 13.8672 -26.709 Z"/>
  </g>
  <line id="Baseline-L" style="fill:none;stroke:#27AAE1;opacity:1;stroke-width:0.5;" x1="263" x2="3036" y1="1556" y2="1556"/>
  <line id="Capline-L" style="fill:none;stroke:#27AAE1;opacity:1;stroke-width:0.5;" x1="263" x2="3036" y1="1485.54" y2="1485.54"/>
  <line id="left-margin" style="fill:none;stroke:#00AEEF;stroke-width:0.5;opacity:1.0;" x1="1403.24" x2="1403.24" y1="1030.79" y2="1150.12"/>
  <line id="right-margin" style="fill:none;stroke:#00AEEF;stroke-width:0.5;opacity:1.0;" x1="1496.45" x2="1496.45" y1="1030.79" y2="1150.12"/>
 </g>
 <g id="Symbols">
  <g id="Black-L" transform="matrix(1 0 0 1 2863.72 1556)">
   <path d="M 69.7266 41.2109 C 103.174 41.2109 123.291 21.9727 123.291 -10.6445 L 123.291 -68.6523 C 123.291 -81.1523 115.186 -89.502 102.881 -89.502 L 36.3281 -89.502 L 36.3281 -100.83 C 36.3281 -106.396 31.7383 -110.938 26.1719 -110.938 C 20.6055 -110.938 16.0645 -106.396 16.0645 -100.83 L 16.0645 -10.6445 C 16.0645 21.9727 36.2793 41.2109 69.7266 41.2109 Z M 69.7266 21.0449 C 48.9746 21.0449 36.3281 9.57031 36.3281 -9.86328 L 36.3281 -69.2871 L 96.8262 -69.2871 C 100.586 -69.2871 103.076 -66.8945 103.076 -63.1348 L 103.076 -9.86328 C 103.076 9.57031 90.3809 21.0449 69.7266 21.0449 Z M 46.2402 -21.6797 L 93.1641 -21.6797 C 96.0938 -21.6797 97.998 -23.5352 97.998 -26.5625 L 97.998 -59.2773 C 97.998 -62.3535 96.0938 -64.209 93.1641 -64.209 L 46.2402 -64.209 C 43.2617 -64.209 41.3574 -62.4023 41.3574 -59.375 L 41.3574 -26.5137 C 41.3574 -23.4863 43.2617 -21.6797 46.2402 -21.6797 Z M 59.3262 10.1562 L 79.6875 10.1562 C 82.8125 10.1562 85.4004 7.56836 85.4004 4.44336 C 85.4004 1.31836 82.8125 -1.31836 79.6875 -1.31836 L 59.3262 -1.31836 C 56.25 -1.31836 53.6133 1.31836 53.6133 4.44336 C 53.6133 7.56836 56.25 10.1562 59.3262 10.1562 Z"/>
  </g>
  <g id="Heavy-L" transform="matrix(1 0 0 1 2569.62 1556)">
   <path d="M 67.0898 38.0371 C 98.877 38.0371 118.066 19.7754 118.066 -11.377 L 118.066 -67.5781 C 118.066 -79.4922 110.352 -87.3047 98.5352 -87.3047 L 33.5938 -87.3047 L 33.5938 -99.2188 C 33.5938 -104.004 29.6387 -107.959 24.8047 -107.959 C 20.0195 -107.959 16.0645 -104.004 16.0645 -99.2188 L 16.0645 -11.377 C 16.0645 19.7754 35.2539 38.0371 67.0898 38.0371 Z M 67.0898 20.6543 C 46.2891 20.6543 33.5938 9.08203 33.5938 -10.5957 L 33.5938 -69.7754 L 93.6523 -69.7754 C 97.9004 -69.7754 100.537 -67.2363 100.537 -63.0371 L 100.537 -10.5957 C 100.537 9.08203 87.8418 20.6543 67.0898 20.6543 Z M 44.1895 -21.9238 L 89.9414 -21.9238 C 93.0664 -21.9238 95.0684 -23.8281 95.0684 -27.002 L 95.0684 -59.1797 C 95.0684 -62.4023 93.0664 -64.3066 89.9414 -64.3066 L 44.1895 -64.3066 C 41.0645 -64.3066 39.0625 -62.4023 39.0625 -59.2285 L 39.0625 -27.002 C 39.0625 -23.7793 41.0645 -21.9238 44.1895 -21.9238 Z M 56.9824 9.76562 L 76.8066 9.76562 C 79.6875 9.76562 82.0801 7.42188 82.0801 4.49219 C 82.0801 1.61133 79.6875 -0.78125 76.8066 -0.78125 L 56.9824 -0.78125 C 54.1504 -0.78125 51.709 1.61133 51.709 4.49219 C 51.709 7.42188 54.1504 9.76562 56.9824 9.76562 Z"/>
  </g>
  <g id="Bold-L" transform="matrix(1 0 0 1 2275.84 1556)">
   <path d="M 64.1602 34.4727 C 94.1406 34.4727 112.207 17.3828 112.207 -12.1582 L 112.207 -66.3574 C 112.207 -77.5879 104.98 -84.8145 93.6523 -84.8145 L 30.5176 -84.8145 L 30.5176 -97.3633 C 30.5176 -101.318 27.2461 -104.59 23.291 -104.59 C 19.3359 -104.59 16.0645 -101.318 16.0645 -97.3633 L 16.0645 -12.1582 C 16.0645 17.3828 34.1797 34.4727 64.1602 34.4727 Z M 64.1602 20.166 C 43.2617 20.166 30.5176 8.59375 30.5176 -11.4258 L 30.5176 -70.3613 L 90.1367 -70.3613 C 94.9219 -70.3613 97.7539 -67.6758 97.7539 -62.9395 L 97.7539 -11.4258 C 97.7539 8.59375 85.0098 20.166 64.1602 20.166 Z M 41.8945 -22.168 L 86.377 -22.168 C 89.6973 -22.168 91.7969 -24.2188 91.7969 -27.5391 L 91.7969 -59.0332 C 91.7969 -62.4023 89.6973 -64.4043 86.377 -64.4043 L 41.8945 -64.4043 C 38.5254 -64.4043 36.4746 -62.4512 36.4746 -59.0332 L 36.4746 -27.4902 C 36.4746 -24.1699 38.5254 -22.168 41.8945 -22.168 Z M 54.3945 9.375 L 73.584 9.375 C 76.2207 9.375 78.3691 7.22656 78.3691 4.58984 C 78.3691 1.95312 76.2207 -0.244141 73.584 -0.244141 L 54.3945 -0.244141 C 51.7578 -0.244141 49.6094 1.95312 49.6094 4.58984 C 49.6094 7.22656 51.7578 9.375 54.3945 9.375 Z"/>
  </g>
  <g id="Semibold-L" transform="matrix(1 0 0 1 1981.16 1556)">
   <path d="M 62.1094 32.0312 C 90.8691 32.0312 108.154 15.6738 108.154 -12.7441 L 108.154 -65.5273 C 108.154 -76.3184 101.27 -83.1055 90.2832 -83.1055 L 28.418 -83.1055 L 28.418 -96.0938 C 28.418 -99.5117 25.6348 -102.295 22.2168 -102.295 C 18.8477 -102.295 16.0645 -99.5117 16.0645 -96.0938 L 16.0645 -12.7441 C 16.0645 15.6738 33.3984 32.0312 62.1094 32.0312 Z M 62.1094 19.873 C 41.1621 19.873 28.418 8.25195 28.418 -12.0117 L 28.418 -70.8008 L 87.6465 -70.8008 C 92.8711 -70.8008 95.8008 -67.9688 95.8008 -62.8906 L 95.8008 -12.0117 C 95.8008 8.25195 83.0078 19.873 62.1094 19.873 Z M 40.332 -22.3633 L 83.9355 -22.3633 C 87.4023 -22.3633 89.502 -24.4141 89.502 -27.8809 L 89.502 -58.9355 C 89.502 -62.4512 87.4023 -64.502 83.9355 -64.502 L 40.332 -64.502 C 36.8164 -64.502 34.668 -62.4512 34.668 -58.9355 L 34.668 -27.8809 C 34.668 -24.4141 36.8164 -22.3633 40.332 -22.3633 Z M 52.5879 9.13086 L 71.3867 9.13086 C 73.8281 9.13086 75.8301 7.12891 75.8301 4.63867 C 75.8301 2.19727 73.8281 0.146484 71.3867 0.146484 L 52.5879 0.146484 C 50.1465 0.146484 48.0957 2.19727 48.0957 4.63867 C 48.0957 7.12891 50.1465 9.13086 52.5879 9.13086 Z"/>
  </g>
  <g id="Medium-L" transform="matrix(1 0 0 1 1685.98 1556)">
   <path d="M 60.5957 30.1758 C 88.3789 30.1758 105.078 14.4043 105.078 -13.1836 L 105.078 -64.8926 C 105.078 -75.3418 98.4863 -81.8359 87.7441 -81.8359 L 26.8066 -81.8359 L 26.8066 -95.166 C 26.8066 -98.0957 24.3652 -100.537 21.4355 -100.537 C 18.5059 -100.537 16.0645 -98.0957 16.0645 -95.166 L 16.0645 -13.1836 C 16.0645 14.4043 32.8125 30.1758 60.5957 30.1758 Z M 60.5957 19.6289 C 39.5996 19.6289 26.8066 8.00781 26.8066 -12.4512 L 26.8066 -71.0938 L 85.791 -71.0938 C 91.3086 -71.0938 94.3359 -68.1641 94.3359 -62.8418 L 94.3359 -12.4512 C 94.3359 8.00781 81.543 19.6289 60.5957 19.6289 Z M 39.1113 -22.5098 L 82.0312 -22.5098 C 85.6445 -22.5098 87.793 -24.6094 87.793 -28.1738 L 87.793 -58.8379 C 87.793 -62.4512 85.6445 -64.5508 82.0312 -64.5508 L 39.1113 -64.5508 C 35.498 -64.5508 33.3496 -62.4512 33.3496 -58.8867 L 33.3496 -28.1738 C 33.3496 -24.6094 35.498 -22.5098 39.1113 -22.5098 Z M 51.2207 8.88672 L 69.6777 8.88672 C 72.0215 8.88672 73.9258 7.03125 73.9258 4.6875 C 73.9258 2.34375 72.0215 0.439453 69.6777 0.439453 L 51.2207 0.439453 C 48.9258 0.439453 47.0215 2.34375 47.0215 4.6875 C 47.0215 7.03125 48.9258 8.88672 51.2207 8.88672 Z"/>
  </g>
  <g id="Regular-L" transform="matrix(1 0 0 1 1391.28 1556)">
   <path d="M 58.5938 27.7832 C 85.1074 27.7832 101.074 12.793 101.074 -13.7207 L 101.074 -64.0625 C 101.074 -74.0234 94.8242 -80.127 84.4238 -80.127 L 24.707 -80.127 L 24.707 -93.8965 C 24.707 -96.2891 22.7539 -98.2422 20.4102 -98.2422 C 18.0176 -98.2422 16.0645 -96.2891 16.0645 -93.8965 L 16.0645 -13.7207 C 16.0645 12.793 32.0312 27.7832 58.5938 27.7832 Z M 58.5938 19.3359 C 37.5488 19.3359 24.707 7.66602 24.707 -13.0371 L 24.707 -71.4844 L 83.3984 -71.4844 C 89.2578 -71.4844 92.4316 -68.457 92.4316 -62.7441 L 92.4316 -13.0371 C 92.4316 7.66602 79.5898 19.3359 58.5938 19.3359 Z M 37.5488 -22.7051 L 79.5898 -22.7051 C 83.3496 -22.7051 85.5469 -24.8535 85.5469 -28.5156 L 85.5469 -58.7402 C 85.5469 -62.4512 83.3496 -64.5996 79.5898 -64.5996 L 37.5488 -64.5996 C 33.7891 -64.5996 31.5918 -62.4512 31.5918 -58.7402 L 31.5918 -28.5156 C 31.5918 -24.8535 33.7891 -22.7051 37.5488 -22.7051 Z M 49.4629 8.64258 L 67.4805 8.64258 C 69.6289 8.64258 71.3867 6.88477 71.3867 4.73633 C 71.3867 2.58789 69.6289 0.830078 67.4805 0.830078 L 49.4629 0.830078 C 47.2656 0.830078 45.5566 2.58789 45.5566 4.73633 C 45.5566 6.88477 47.2656 8.64258 49.4629 8.64258 Z"/>
  </g>
  <g id="Light-L" transform="matrix(1 0 0 1 1096.69 1556)">
   <path d="M 56.4453 25.1465 C 82.1289 25.1465 96.8262 11.0352 96.8262 -14.5996 L 96.8262 -63.0371 C 96.8262 -72.998 91.0645 -78.7109 80.8594 -78.7109 L 22.7051 -78.7109 L 22.7051 -92.4316 C 22.7051 -94.2383 21.1914 -95.752 19.3848 -95.752 C 17.5781 -95.752 16.0645 -94.2383 16.0645 -92.4316 L 16.0645 -14.5996 C 16.0645 11.0352 30.8105 25.1465 56.4453 25.1465 Z M 56.4453 18.6523 C 35.0098 18.6523 22.7051 7.12891 22.7051 -13.916 L 22.7051 -72.0703 L 80.127 -72.0703 C 86.8652 -72.0703 90.2344 -68.8477 90.2344 -62.207 L 90.2344 -13.916 C 90.2344 7.12891 77.8809 18.6523 56.4453 18.6523 Z M 36.8652 -23.3887 L 76.0254 -23.3887 C 80.2246 -23.3887 82.6172 -25.6348 82.6172 -29.7363 L 82.6172 -58.1055 C 82.6172 -62.207 80.2246 -64.4531 76.0254 -64.4531 L 36.8652 -64.4531 C 32.666 -64.4531 30.2734 -62.207 30.2734 -58.1055 L 30.2734 -29.7363 C 30.2734 -25.6348 32.666 -23.3887 36.8652 -23.3887 Z M 47.0215 8.1543 L 65.7715 8.1543 C 67.6758 8.1543 69.1406 6.68945 69.1406 4.83398 C 69.1406 2.97852 67.6758 1.46484 65.7715 1.46484 L 47.0215 1.46484 C 45.166 1.46484 43.6523 2.97852 43.6523 4.83398 C 43.6523 6.68945 45.166 8.1543 47.0215 8.1543 Z"/>
  </g>
  <g id="Thin-L" transform="matrix(1 0 0 1 802.785 1556)">
   <path d="M 53.6621 21.6309 C 78.1738 21.6309 91.2109 8.69141 91.2109 -15.7227 L 91.2109 -61.6699 C 91.2109 -71.582 86.084 -76.8066 76.123 -76.8066 L 19.9707 -76.8066 L 19.9707 -90.4785 C 19.9707 -91.5527 19.0918 -92.4316 18.0176 -92.4316 C 16.9434 -92.4316 16.0645 -91.5527 16.0645 -90.4785 L 16.0645 -15.7227 C 16.0645 8.69141 29.1504 21.6309 53.6621 21.6309 Z M 53.6621 17.7246 C 31.6895 17.7246 19.9707 6.39648 19.9707 -15.0879 L 19.9707 -72.8516 L 75.8301 -72.8516 C 83.7402 -72.8516 87.3047 -69.3848 87.3047 -61.5234 L 87.3047 -15.0879 C 87.3047 6.39648 75.6348 17.7246 53.6621 17.7246 Z M 35.9863 -24.2676 L 71.2891 -24.2676 C 76.123 -24.2676 78.7109 -26.709 78.7109 -31.2988 L 78.7109 -57.2266 C 78.7109 -61.8164 76.123 -64.2578 71.2891 -64.2578 L 35.9863 -64.2578 C 31.1523 -64.2578 28.5645 -61.8164 28.5645 -57.2266 L 28.5645 -31.2988 C 28.5645 -26.709 31.1523 -24.2676 35.9863 -24.2676 Z M 43.7988 7.51953 L 63.5254 7.51953 C 65.0391 7.51953 66.1621 6.39648 66.1621 4.93164 C 66.1621 3.4668 65.0391 2.29492 63.5254 2.29492 L 43.7988 2.29492 C 42.2852 2.29492 41.1621 3.4668 41.1621 4.93164 C 41.1621 6.39648 42.2852 7.51953 43.7988 7.51953 Z"/>
  </g>
  <g id="Ultralight-L" transform="matrix(1 0 0 1 507.514 1556)">
   <path d="M 52.1973 19.8242 C 76.123 19.8242 88.3301 7.51953 88.3301 -16.3574 L 88.3301 -60.9863 C 88.3301 -70.8496 83.4961 -75.8301 73.6816 -75.8301 L 18.6035 -75.8301 L 18.6035 -89.4531 C 18.6035 -90.1855 18.0664 -90.7715 17.334 -90.7715 C 16.6504 -90.7715 16.0645 -90.1855 16.0645 -89.4531 L 16.0645 -16.3574 C 16.0645 7.51953 28.2715 19.8242 52.1973 19.8242 Z M 52.1973 17.2852 C 29.9316 17.2852 18.6035 6.05469 18.6035 -15.6738 L 18.6035 -73.2422 L 73.6328 -73.2422 C 82.1289 -73.2422 85.791 -69.6777 85.791 -61.1328 L 85.791 -15.6738 C 85.791 6.05469 74.4629 17.2852 52.1973 17.2852 Z M 35.5469 -24.707 L 68.8477 -24.707 C 73.9746 -24.707 76.709 -27.2461 76.709 -32.1289 L 76.709 -56.7871 C 76.709 -61.6211 73.9746 -64.1602 68.8477 -64.1602 L 35.5469 -64.1602 C 30.4199 -64.1602 27.6855 -61.6211 27.6855 -56.7871 L 27.6855 -32.1289 C 27.6855 -27.2461 30.4199 -24.707 35.5469 -24.707 Z M 42.1387 7.17773 L 62.4023 7.17773 C 63.6719 7.17773 64.6484 6.25 64.6484 4.98047 C 64.6484 3.71094 63.6719 2.73438 62.4023 2.73438 L 42.1387 2.73438 C 40.8691 2.73438 39.8926 3.71094 39.8926 4.98047 C 39.8926 6.25 40.8691 7.17773 42.1387 7.17773 Z"/>
  </g>
  <g id="Black-M" transform="matrix(1 0 0 1 2877 1126)">
   <path d="M 56.4453 26.8555 C 84.082 26.8555 100.342 11.084 100.342 -15.625 L 100.342 -62.0605 C 100.342 -72.5586 93.7012 -79.4922 83.6914 -79.4922 L 30.7617 -79.4922 L 30.7617 -87.5 C 30.7617 -92.5293 26.6602 -96.6309 21.582 -96.6309 C 16.5527 -96.6309 12.4512 -92.5293 12.4512 -87.5 L 12.4512 -15.625 C 12.4512 11.084 28.7598 26.8555 56.4453 26.8555 Z M 56.4453 8.54492 C 40.2344 8.54492 30.7617 -0.195312 30.7617 -15.0391 L 30.7617 -61.2305 L 77.5879 -61.2305 C 80.2734 -61.2305 82.0801 -59.4727 82.0801 -56.6895 L 82.0801 -15.0391 C 82.0801 -0.195312 72.5586 8.54492 56.4453 8.54492 Z M 38.2812 -24.707 L 74.6094 -24.707 C 76.8555 -24.707 78.3203 -26.1719 78.3203 -28.5156 L 78.3203 -53.7109 C 78.3203 -56.0547 76.8555 -57.4707 74.6094 -57.4707 L 38.2812 -57.4707 C 35.9375 -57.4707 34.4727 -56.1035 34.4727 -53.7598 L 34.4727 -28.4668 C 34.4727 -26.0742 35.9375 -24.707 38.2812 -24.707 Z M 47.8027 0.146484 L 64.7461 0.146484 C 67.2852 0.146484 69.4336 -1.95312 69.4336 -4.54102 C 69.4336 -7.12891 67.2852 -9.27734 64.7461 -9.27734 L 47.8027 -9.27734 C 45.3125 -9.27734 43.1152 -7.12891 43.1152 -4.54102 C 43.1152 -1.95312 45.3125 0.146484 47.8027 0.146484 Z"/>
  </g>
  <g id="Heavy-M" transform="matrix(1 0 0 1 2582.61 1126)">
   <path d="M 54.1504 24.0723 C 80.2246 24.0723 95.7031 9.17969 95.7031 -16.2109 L 95.7031 -61.1328 C 95.7031 -70.9961 89.4531 -77.4414 79.8828 -77.4414 L 28.2715 -77.4414 L 28.2715 -86.084 C 28.2715 -90.4297 24.707 -93.9941 20.3613 -93.9941 C 16.0156 -93.9941 12.4512 -90.4297 12.4512 -86.084 L 12.4512 -16.2109 C 12.4512 9.17969 28.0273 24.0723 54.1504 24.0723 Z M 54.1504 8.30078 C 37.9395 8.30078 28.2715 -0.537109 28.2715 -15.625 L 28.2715 -61.6211 L 75 -61.6211 C 77.9785 -61.6211 79.8828 -59.7656 79.8828 -56.7383 L 79.8828 -15.625 C 79.8828 -0.537109 70.2148 8.30078 54.1504 8.30078 Z M 36.1816 -24.8535 L 72.0215 -24.8535 C 74.3652 -24.8535 75.8789 -26.3184 75.8789 -28.7109 L 75.8789 -53.7109 C 75.8789 -56.1523 74.3652 -57.6172 72.0215 -57.6172 L 36.1816 -57.6172 C 33.7891 -57.6172 32.2754 -56.2012 32.2754 -53.7598 L 32.2754 -28.6621 C 32.2754 -26.2695 33.7891 -24.8535 36.1816 -24.8535 Z M 45.8984 -0.0976562 L 62.0117 -0.0976562 C 64.4043 -0.0976562 66.4062 -2.09961 66.4062 -4.49219 C 66.4062 -6.88477 64.4043 -8.88672 62.0117 -8.88672 L 45.8984 -8.88672 C 43.5547 -8.88672 41.5039 -6.88477 41.5039 -4.49219 C 41.5039 -2.09961 43.5547 -0.0976562 45.8984 -0.0976562 Z"/>
  </g>
  <g id="Bold-M" transform="matrix(1 0 0 1 2288.46 1126)">
   <path d="M 51.5137 20.9961 C 75.8789 20.9961 90.5762 7.03125 90.5762 -16.8457 L 90.5762 -60.1074 C 90.5762 -69.2383 84.668 -75.1953 75.5859 -75.1953 L 25.5371 -75.1953 L 25.5371 -84.5215 C 25.5371 -88.0859 22.6074 -91.0645 18.9941 -91.0645 C 15.3809 -91.0645 12.4512 -88.0859 12.4512 -84.5215 L 12.4512 -16.8457 C 12.4512 7.03125 27.1484 20.9961 51.5137 20.9961 Z M 51.5137 8.00781 C 35.4004 8.00781 25.5371 -0.927734 25.5371 -16.2598 L 25.5371 -62.1094 L 72.0215 -62.1094 C 75.3906 -62.1094 77.4902 -60.1074 77.4902 -56.7871 L 77.4902 -16.2598 C 77.4902 -0.927734 67.627 8.00781 51.5137 8.00781 Z M 33.8867 -24.9512 L 69.1895 -24.9512 C 71.6309 -24.9512 73.1445 -26.4648 73.1445 -28.9551 L 73.1445 -53.7598 C 73.1445 -56.2988 71.6309 -57.8125 69.1895 -57.8125 L 33.8867 -57.8125 C 31.3965 -57.8125 29.834 -56.2988 29.834 -53.8086 L 29.834 -28.9062 C 29.834 -26.416 31.3965 -24.9512 33.8867 -24.9512 Z M 43.75 -0.390625 L 58.9844 -0.390625 C 61.2305 -0.390625 63.0371 -2.19727 63.0371 -4.39453 C 63.0371 -6.64062 61.2305 -8.44727 58.9844 -8.44727 L 43.75 -8.44727 C 41.6016 -8.44727 39.7461 -6.64062 39.7461 -4.39453 C 39.7461 -2.19727 41.6016 -0.390625 43.75 -0.390625 Z"/>
  </g>
  <g id="Semibold-M" transform="matrix(1 0 0 1 1993.54 1126)">
   <path d="M 49.7559 18.8477 C 72.9004 18.8477 87.0117 5.56641 87.0117 -17.2852 L 87.0117 -59.375 C 87.0117 -68.0176 81.3965 -73.584 72.6562 -73.584 L 23.6328 -73.584 L 23.6328 -83.4473 C 23.6328 -86.5234 21.0938 -89.0137 18.0176 -89.0137 C 14.9902 -89.0137 12.4512 -86.5234 12.4512 -83.4473 L 12.4512 -17.2852 C 12.4512 5.56641 26.5625 18.8477 49.7559 18.8477 Z M 49.7559 7.8125 C 33.6426 7.8125 23.6328 -1.2207 23.6328 -16.748 L 23.6328 -62.4512 L 70.0195 -62.4512 C 73.6328 -62.4512 75.8301 -60.3516 75.8301 -56.7871 L 75.8301 -16.748 C 75.8301 -1.2207 65.8203 7.8125 49.7559 7.8125 Z M 32.2754 -25 L 67.1875 -25 C 69.7266 -25 71.2891 -26.5625 71.2891 -29.1016 L 71.2891 -53.8086 C 71.2891 -56.3477 69.7266 -57.9102 67.1875 -57.9102 L 32.2754 -57.9102 C 29.7363 -57.9102 28.1738 -56.3965 28.1738 -53.8086 L 28.1738 -29.0527 C 28.1738 -26.5137 29.7363 -25 32.2754 -25 Z M 42.2852 -0.585938 L 56.9336 -0.585938 C 58.9844 -0.585938 60.6934 -2.29492 60.6934 -4.39453 C 60.6934 -6.44531 58.9844 -8.1543 56.9336 -8.1543 L 42.2852 -8.1543 C 40.2344 -8.1543 38.5254 -6.44531 38.5254 -4.39453 C 38.5254 -2.29492 40.2344 -0.585938 42.2852 -0.585938 Z"/>
  </g>
  <g id="Medium-M" transform="matrix(1 0 0 1 1698.19 1126)">
   <path d="M 48.3887 17.2363 C 70.6055 17.2363 84.2773 4.44336 84.2773 -17.627 L 84.2773 -58.8379 C 84.2773 -67.0898 78.9062 -72.4121 70.4102 -72.4121 L 22.168 -72.4121 L 22.168 -82.6172 C 22.168 -85.3027 19.9707 -87.5 17.334 -87.5 C 14.6484 -87.5 12.4512 -85.3027 12.4512 -82.6172 L 12.4512 -17.627 C 12.4512 4.44336 26.123 17.2363 48.3887 17.2363 Z M 48.3887 7.61719 C 32.2754 7.61719 22.168 -1.41602 22.168 -17.0898 L 22.168 -62.6953 L 68.457 -62.6953 C 72.2656 -62.6953 74.5605 -60.498 74.5605 -56.8359 L 74.5605 -17.0898 C 74.5605 -1.41602 64.4531 7.61719 48.3887 7.61719 Z M 31.0547 -25.0977 L 65.6738 -25.0977 C 68.2617 -25.0977 69.873 -26.6602 69.873 -29.1992 L 69.873 -53.8086 C 69.873 -56.3965 68.2617 -57.959 65.6738 -57.959 L 31.0547 -57.959 C 28.4668 -57.959 26.9043 -56.4453 26.9043 -53.8086 L 26.9043 -29.1992 C 26.9043 -26.6113 28.4668 -25.0977 31.0547 -25.0977 Z M 41.1621 -0.78125 L 55.3223 -0.78125 C 57.3242 -0.78125 58.9355 -2.34375 58.9355 -4.3457 C 58.9355 -6.29883 57.3242 -7.91016 55.3223 -7.91016 L 41.1621 -7.91016 C 39.209 -7.91016 37.5977 -6.29883 37.5977 -4.3457 C 37.5977 -2.34375 39.209 -0.78125 41.1621 -0.78125 Z"/>
  </g>
  <g id="Regular-M" transform="matrix(1 0 0 1 1403.24 1126)">
   <path d="M 46.6309 15.0879 C 67.6758 15.0879 80.7617 2.97852 80.7617 -18.0664 L 80.7617 -58.1543 C 80.7617 -65.918 75.6348 -70.8496 67.4805 -70.8496 L 20.3125 -70.8496 L 20.3125 -81.543 C 20.3125 -83.6914 18.5547 -85.498 16.3574 -85.498 C 14.209 -85.498 12.4512 -83.6914 12.4512 -81.543 L 12.4512 -18.0664 C 12.4512 2.97852 25.5371 15.0879 46.6309 15.0879 Z M 46.6309 7.42188 C 30.5664 7.42188 20.3125 -1.70898 20.3125 -17.5293 L 20.3125 -62.9883 L 66.4551 -62.9883 C 70.5566 -62.9883 72.9004 -60.7422 72.9004 -56.8848 L 72.9004 -17.5293 C 72.9004 -1.70898 62.6953 7.42188 46.6309 7.42188 Z M 29.4922 -25.1465 L 63.7207 -25.1465 C 66.4062 -25.1465 68.0176 -26.7578 68.0176 -29.3457 L 68.0176 -53.8574 C 68.0176 -56.4941 66.4062 -58.1055 63.7207 -58.1055 L 29.4922 -58.1055 C 26.8555 -58.1055 25.1953 -56.4941 25.1953 -53.8574 L 25.1953 -29.3457 C 25.1953 -26.7578 26.8555 -25.1465 29.4922 -25.1465 Z M 39.6973 -0.976562 L 53.2715 -0.976562 C 55.127 -0.976562 56.5918 -2.44141 56.5918 -4.29688 C 56.5918 -6.15234 55.127 -7.61719 53.2715 -7.61719 L 39.6973 -7.61719 C 37.8906 -7.61719 36.377 -6.15234 36.377 -4.29688 C 36.377 -2.44141 37.8906 -0.976562 39.6973 -0.976562 Z"/>
  </g>
  <g id="Light-M" transform="matrix(1 0 0 1 1108.43 1126)">
   <path d="M 44.6777 12.7441 C 64.9902 12.7441 76.9531 1.41602 76.9531 -18.8477 L 76.9531 -57.2266 C 76.9531 -64.9414 72.2656 -69.5801 64.2578 -69.5801 L 18.5059 -69.5801 L 18.5059 -80.2246 C 18.5059 -81.8848 17.1387 -83.252 15.4785 -83.252 C 13.8184 -83.252 12.4512 -81.8848 12.4512 -80.2246 L 12.4512 -18.8477 C 12.4512 1.41602 24.4141 12.7441 44.6777 12.7441 Z M 44.6777 6.83594 C 28.2715 6.83594 18.5059 -2.14844 18.5059 -18.3105 L 18.5059 -63.5254 L 63.5742 -63.5254 C 68.4082 -63.5254 70.8984 -61.084 70.8984 -56.3965 L 70.8984 -18.3105 C 70.8984 -2.14844 61.1328 6.83594 44.6777 6.83594 Z M 28.8574 -25.7324 L 60.5469 -25.7324 C 63.5742 -25.7324 65.332 -27.4414 65.332 -30.4199 L 65.332 -53.2715 C 65.332 -56.25 63.5742 -57.959 60.5469 -57.959 L 28.8574 -57.959 C 25.8301 -57.959 24.0723 -56.25 24.0723 -53.2715 L 24.0723 -30.4199 C 24.0723 -27.4414 25.8301 -25.7324 28.8574 -25.7324 Z M 37.5 -1.36719 L 51.7578 -1.36719 C 53.3203 -1.36719 54.5898 -2.63672 54.5898 -4.24805 C 54.5898 -5.81055 53.3203 -7.08008 51.7578 -7.08008 L 37.5 -7.08008 C 35.9375 -7.08008 34.668 -5.81055 34.668 -4.24805 C 34.668 -2.63672 35.9375 -1.36719 37.5 -1.36719 Z"/>
  </g>
  <g id="Thin-M" transform="matrix(1 0 0 1 814.235 1126)">
   <path d="M 42.1875 9.57031 C 61.4258 9.57031 71.9238 -0.683594 71.9238 -19.873 L 71.9238 -56.0059 C 71.9238 -63.7207 67.7734 -67.8711 60.0098 -67.8711 L 16.0645 -67.8711 L 16.0645 -78.4668 C 16.0645 -79.4434 15.2832 -80.2734 14.2578 -80.2734 C 13.2812 -80.2734 12.4512 -79.4434 12.4512 -78.4668 L 12.4512 -19.873 C 12.4512 -0.683594 22.9492 9.57031 42.1875 9.57031 Z M 42.1875 6.00586 C 25.293 6.00586 16.0645 -2.7832 16.0645 -19.3848 L 16.0645 -64.209 L 59.7168 -64.209 C 65.5762 -64.209 68.2617 -61.5723 68.2617 -55.7617 L 68.2617 -19.3848 C 68.2617 -2.7832 59.082 6.00586 42.1875 6.00586 Z M 28.0762 -26.5137 L 56.25 -26.5137 C 59.8633 -26.5137 61.8652 -28.418 61.8652 -31.8359 L 61.8652 -52.4414 C 61.8652 -55.9082 59.8633 -57.7637 56.25 -57.7637 L 28.0762 -57.7637 C 24.4629 -57.7637 22.5098 -55.9082 22.5098 -52.4414 L 22.5098 -31.8359 C 22.5098 -28.418 24.4629 -26.5137 28.0762 -26.5137 Z M 34.6191 -1.95312 L 49.7559 -1.95312 C 50.9766 -1.95312 51.9043 -2.92969 51.9043 -4.15039 C 51.9043 -5.37109 50.9766 -6.29883 49.7559 -6.29883 L 34.6191 -6.29883 C 33.3984 -6.29883 32.4707 -5.37109 32.4707 -4.15039 C 32.4707 -2.92969 33.3984 -1.95312 34.6191 -1.95312 Z"/>
  </g>
  <g id="Ultralight-M" transform="matrix(1 0 0 1 518.818 1126)">
   <path d="M 40.8691 8.00781 C 59.6191 8.00781 69.3359 -1.75781 69.3359 -20.4102 L 69.3359 -55.4199 C 69.3359 -63.0859 65.4785 -66.9922 57.8125 -66.9922 L 14.8438 -66.9922 L 14.8438 -77.5879 C 14.8438 -78.2227 14.3066 -78.7598 13.623 -78.7598 C 12.9883 -78.7598 12.4512 -78.2227 12.4512 -77.5879 L 12.4512 -20.4102 C 12.4512 -1.75781 22.168 8.00781 40.8691 8.00781 Z M 40.8691 5.56641 C 23.7305 5.56641 14.8438 -3.125 14.8438 -19.9219 L 14.8438 -64.5996 L 57.7148 -64.5996 C 64.1113 -64.5996 66.9434 -61.8164 66.9434 -55.4199 L 66.9434 -19.9219 C 66.9434 -3.125 58.0566 5.56641 40.8691 5.56641 Z M 27.6855 -26.9531 L 54.1016 -26.9531 C 57.959 -26.9531 60.0586 -28.8574 60.0586 -32.5684 L 60.0586 -52.0508 C 60.0586 -55.7617 57.959 -57.666 54.1016 -57.666 L 27.6855 -57.666 C 23.7793 -57.666 21.7285 -55.7617 21.7285 -52.0508 L 21.7285 -32.5684 C 21.7285 -28.8574 23.7793 -26.9531 27.6855 -26.9531 Z M 33.1543 -2.24609 L 48.6816 -2.24609 C 49.7559 -2.24609 50.5371 -3.02734 50.5371 -4.10156 C 50.5371 -5.12695 49.7559 -5.95703 48.6816 -5.95703 L 33.1543 -5.95703 C 32.0801 -5.95703 31.2988 -5.12695 31.2988 -4.10156 C 31.2988 -3.02734 32.0801 -2.24609 33.1543 -2.24609 Z"/>
  </g>
  <g id="Black-S" transform="matrix(1 0 0 1 2889.36 696)">
   <path d="M 44.0918 13.2324 C 65.625 13.2324 78.3203 0.927734 78.3203 -19.9219 L 78.3203 -56.2012 C 78.3203 -64.3555 73.1445 -69.7754 65.332 -69.7754 L 23.9258 -69.7754 L 23.9258 -76.0742 C 23.9258 -79.9805 20.752 -83.1543 16.8457 -83.1543 C 12.9395 -83.1543 9.76562 -79.9805 9.76562 -76.0742 L 9.76562 -19.9219 C 9.76562 0.927734 22.5098 13.2324 44.0918 13.2324 Z M 44.0918 -0.927734 C 31.3965 -0.927734 23.9258 -7.8125 23.9258 -19.4336 L 23.9258 -55.6152 L 60.6445 -55.6152 C 62.7441 -55.6152 64.1602 -54.248 64.1602 -52.0508 L 64.1602 -19.4336 C 64.1602 -7.8125 56.6895 -0.927734 44.0918 -0.927734 Z M 29.834 -27.002 L 58.3008 -27.002 C 60.0586 -27.002 61.2305 -28.125 61.2305 -29.9805 L 61.2305 -49.707 C 61.2305 -51.5625 60.0586 -52.6855 58.3008 -52.6855 L 29.834 -52.6855 C 28.0273 -52.6855 26.8555 -51.6113 26.8555 -49.7559 L 26.8555 -29.9316 C 26.8555 -28.0762 28.0273 -27.002 29.834 -27.002 Z M 37.3535 -7.51953 L 50.5371 -7.51953 C 52.5391 -7.51953 54.1992 -9.17969 54.1992 -11.1816 C 54.1992 -13.1836 52.5391 -14.8926 50.5371 -14.8926 L 37.3535 -14.8926 C 35.4004 -14.8926 33.6914 -13.1836 33.6914 -11.1816 C 33.6914 -9.17969 35.4004 -7.51953 37.3535 -7.51953 Z"/>
  </g>
  <g id="Heavy-S" transform="matrix(1 0 0 1 2594.21 696)">
   <path d="M 42.5293 11.377 C 62.9395 11.377 75.1953 -0.341797 75.1953 -20.2637 L 75.1953 -55.6152 C 75.1953 -63.2812 70.2637 -68.3594 62.7441 -68.3594 L 22.2656 -68.3594 L 22.2656 -75.1465 C 22.2656 -78.5645 19.4336 -81.3965 16.0156 -81.3965 C 12.5488 -81.3965 9.76562 -78.5645 9.76562 -75.1465 L 9.76562 -20.2637 C 9.76562 -0.341797 22.0703 11.377 42.5293 11.377 Z M 42.5293 -1.07422 C 29.8828 -1.07422 22.2656 -8.00781 22.2656 -19.7754 L 22.2656 -55.8594 L 58.9355 -55.8594 C 61.2305 -55.8594 62.7441 -54.4434 62.7441 -52.1484 L 62.7441 -19.7754 C 62.7441 -8.00781 55.0781 -1.07422 42.5293 -1.07422 Z M 28.3203 -27.002 L 56.6895 -27.002 C 58.4961 -27.002 59.668 -28.1738 59.668 -30.0293 L 59.668 -49.8047 C 59.668 -51.6602 58.4961 -52.7832 56.6895 -52.7832 L 28.3203 -52.7832 C 26.5137 -52.7832 25.293 -51.709 25.293 -49.8535 L 25.293 -29.9805 C 25.293 -28.125 26.5137 -27.002 28.3203 -27.002 Z M 36.1328 -7.66602 L 48.6328 -7.66602 C 50.5371 -7.66602 52.0996 -9.22852 52.0996 -11.1328 C 52.0996 -13.0371 50.5371 -14.6484 48.6328 -14.6484 L 36.1328 -14.6484 C 34.2773 -14.6484 32.666 -13.0371 32.666 -11.1328 C 32.666 -9.22852 34.2773 -7.66602 36.1328 -7.66602 Z"/>
  </g>
  <g id="Bold-S" transform="matrix(1 0 0 1 2299.23 696)">
   <path d="M 40.7715 9.27734 C 59.9609 9.27734 71.7285 -1.80664 71.7285 -20.6543 L 71.7285 -54.9316 C 71.7285 -62.0605 67.041 -66.748 59.8633 -66.748 L 20.3613 -66.748 L 20.3613 -74.1211 C 20.3613 -77.0508 17.9688 -79.3945 15.0879 -79.3945 C 12.1582 -79.3945 9.76562 -77.0508 9.76562 -74.1211 L 9.76562 -20.6543 C 9.76562 -1.80664 21.5332 9.27734 40.7715 9.27734 Z M 40.7715 -1.2207 C 28.2227 -1.2207 20.3613 -8.25195 20.3613 -20.2148 L 20.3613 -56.1523 L 57.0801 -56.1523 C 59.5215 -56.1523 61.1328 -54.6387 61.1328 -52.2461 L 61.1328 -20.2148 C 61.1328 -8.25195 53.2715 -1.2207 40.7715 -1.2207 Z M 26.6113 -27.002 L 54.8828 -27.002 C 56.7383 -27.002 57.9102 -28.1738 57.9102 -30.0293 L 57.9102 -49.9023 C 57.9102 -51.8066 56.7383 -52.9297 54.8828 -52.9297 L 26.6113 -52.9297 C 24.7559 -52.9297 23.584 -51.8066 23.584 -49.9512 L 23.584 -30.0293 C 23.584 -28.1738 24.7559 -27.002 26.6113 -27.002 Z M 34.7656 -7.86133 L 46.5332 -7.86133 C 48.291 -7.86133 49.7559 -9.32617 49.7559 -11.084 C 49.7559 -12.8906 48.291 -14.4043 46.5332 -14.4043 L 34.7656 -14.4043 C 33.0078 -14.4043 31.4941 -12.8906 31.4941 -11.084 C 31.4941 -9.32617 33.0078 -7.86133 34.7656 -7.86133 Z"/>
  </g>
  <g id="Semibold-S" transform="matrix(1 0 0 1 2003.72 696)">
   <path d="M 39.5508 7.86133 C 57.9102 7.86133 69.3359 -2.7832 69.3359 -20.9473 L 69.3359 -54.4434 C 69.3359 -61.1816 64.7949 -65.6738 57.9102 -65.6738 L 19.0918 -65.6738 L 19.0918 -73.3887 C 19.0918 -75.9766 16.9922 -78.0762 14.4043 -78.0762 C 11.8652 -78.0762 9.76562 -75.9766 9.76562 -73.3887 L 9.76562 -20.9473 C 9.76562 -2.7832 21.1914 7.86133 39.5508 7.86133 Z M 39.5508 -1.31836 C 27.0508 -1.31836 19.0918 -8.44727 19.0918 -20.5078 L 19.0918 -56.3477 L 55.7617 -56.3477 C 58.3496 -56.3477 60.0098 -54.7852 60.0098 -52.2949 L 60.0098 -20.5078 C 60.0098 -8.44727 52.0508 -1.31836 39.5508 -1.31836 Z M 25.4395 -27.0508 L 53.6621 -27.0508 C 55.5176 -27.0508 56.6895 -28.2227 56.6895 -30.0781 L 56.6895 -50 C 56.6895 -51.8555 55.5176 -53.0273 53.6621 -53.0273 L 25.4395 -53.0273 C 23.584 -53.0273 22.4121 -51.9043 22.4121 -50 L 22.4121 -30.0293 C 22.4121 -28.1738 23.584 -27.0508 25.4395 -27.0508 Z M 33.8379 -7.95898 L 45.0684 -7.95898 C 46.7773 -7.95898 48.1445 -9.375 48.1445 -11.084 C 48.1445 -12.793 46.7773 -14.209 45.0684 -14.209 L 33.8379 -14.209 C 32.1289 -14.209 30.7129 -12.793 30.7129 -11.084 C 30.7129 -9.375 32.1289 -7.95898 33.8379 -7.95898 Z"/>
  </g>
  <g id="Medium-S" transform="matrix(1 0 0 1 1707.91 696)">
   <path d="M 38.623 6.78711 C 56.3477 6.78711 67.5293 -3.56445 67.5293 -21.1426 L 67.5293 -54.1016 C 67.5293 -60.5469 63.0859 -64.8438 56.3965 -64.8438 L 18.0664 -64.8438 L 18.0664 -72.8516 C 18.0664 -75.1465 16.2109 -77.002 13.916 -77.002 C 11.6699 -77.002 9.76562 -75.1465 9.76562 -72.8516 L 9.76562 -21.1426 C 9.76562 -3.56445 20.9473 6.78711 38.623 6.78711 Z M 38.623 -1.41602 C 26.1719 -1.41602 18.0664 -8.54492 18.0664 -20.7031 L 18.0664 -56.543 L 54.7852 -56.543 C 57.4707 -56.543 59.1797 -54.8828 59.1797 -52.3438 L 59.1797 -20.7031 C 59.1797 -8.54492 51.0742 -1.41602 38.623 -1.41602 Z M 24.5605 -27.0508 L 52.7344 -27.0508 C 54.5898 -27.0508 55.7617 -28.2227 55.7617 -30.0781 L 55.7617 -50.0488 C 55.7617 -51.9531 54.5898 -53.125 52.7344 -53.125 L 24.5605 -53.125 C 22.7051 -53.125 21.4844 -51.9531 21.4844 -50.0488 L 21.4844 -30.0781 C 21.4844 -28.2227 22.7051 -27.0508 24.5605 -27.0508 Z M 33.1055 -8.05664 L 43.9453 -8.05664 C 45.6055 -8.05664 46.9238 -9.42383 46.9238 -11.0352 C 46.9238 -12.6953 45.6055 -14.0625 43.9453 -14.0625 L 33.1055 -14.0625 C 31.4941 -14.0625 30.127 -12.6953 30.127 -11.0352 C 30.127 -9.42383 31.4941 -8.05664 33.1055 -8.05664 Z"/>
  </g>
  <g id="Regular-S" transform="matrix(1 0 0 1 1412.39 696)">
   <path d="M 37.4512 5.32227 C 54.2969 5.32227 65.1367 -4.54102 65.1367 -21.3867 L 65.1367 -53.6133 C 65.1367 -59.7168 60.8887 -63.7695 54.4434 -63.7695 L 16.7969 -63.7695 L 16.7969 -72.168 C 16.7969 -74.0723 15.2344 -75.6836 13.2812 -75.6836 C 11.377 -75.6836 9.76562 -74.0723 9.76562 -72.168 L 9.76562 -21.3867 C 9.76562 -4.54102 20.5566 5.32227 37.4512 5.32227 Z M 37.4512 -1.51367 C 25.0488 -1.51367 16.7969 -8.74023 16.7969 -20.9961 L 16.7969 -56.7383 L 53.5156 -56.7383 C 56.2988 -56.7383 58.1055 -55.0293 58.1055 -52.3926 L 58.1055 -20.9961 C 58.1055 -8.74023 49.8535 -1.51367 37.4512 -1.51367 Z M 23.3887 -27.0508 L 51.5137 -27.0508 C 53.3691 -27.0508 54.5898 -28.2227 54.5898 -30.0781 L 54.5898 -50.0977 C 54.5898 -52.002 53.3691 -53.2227 51.5137 -53.2227 L 23.3887 -53.2227 C 21.5332 -53.2227 20.3125 -52.002 20.3125 -50.0977 L 20.3125 -30.0781 C 20.3125 -28.2227 21.5332 -27.0508 23.3887 -27.0508 Z M 32.1777 -8.1543 L 42.4805 -8.1543 C 44.043 -8.1543 45.3613 -9.47266 45.3613 -11.0352 C 45.3613 -12.5977 44.043 -13.8672 42.4805 -13.8672 L 32.1777 -13.8672 C 30.6152 -13.8672 29.3457 -12.5977 29.3457 -11.0352 C 29.3457 -9.47266 30.6152 -8.1543 32.1777 -8.1543 Z"/>
  </g>
  <g id="Light-S" transform="matrix(1 0 0 1 1117.37 696)">
   <path d="M 35.7422 3.27148 C 51.9531 3.27148 61.7676 -5.95703 61.7676 -22.1191 L 61.7676 -52.832 C 61.7676 -58.8867 57.9102 -62.5977 51.6113 -62.5977 L 15.1855 -62.5977 L 15.1855 -70.9961 C 15.1855 -72.4609 13.9648 -73.6816 12.5 -73.6816 C 10.9863 -73.6816 9.76562 -72.4609 9.76562 -70.9961 L 9.76562 -22.1191 C 9.76562 -5.95703 19.5801 3.27148 35.7422 3.27148 Z M 35.7422 -2.05078 C 23.0469 -2.05078 15.1855 -9.13086 15.1855 -21.6797 L 15.1855 -57.1777 L 50.9277 -57.1777 C 54.3945 -57.1777 56.3477 -55.3711 56.3477 -52.002 L 56.3477 -21.6797 C 56.3477 -9.13086 48.4863 -2.05078 35.7422 -2.05078 Z M 22.8516 -27.5879 L 48.6816 -27.5879 C 50.8789 -27.5879 52.2461 -28.8574 52.2461 -31.0547 L 52.2461 -49.5605 C 52.2461 -51.8066 50.8789 -53.0762 48.6816 -53.0762 L 22.8516 -53.0762 C 20.6055 -53.0762 19.2871 -51.8066 19.2871 -49.5605 L 19.2871 -31.0547 C 19.2871 -28.8574 20.6055 -27.5879 22.8516 -27.5879 Z M 30.2246 -8.54492 L 41.1621 -8.54492 C 42.4805 -8.54492 43.5547 -9.61914 43.5547 -10.9863 C 43.5547 -12.3047 42.4805 -13.3789 41.1621 -13.3789 L 30.2246 -13.3789 C 28.9062 -13.3789 27.832 -12.3047 27.832 -10.9863 C 27.832 -9.61914 28.9062 -8.54492 30.2246 -8.54492 Z"/>
  </g>
  <g id="Thin-S" transform="matrix(1 0 0 1 822.877 696)">
   <path d="M 33.5449 0.488281 C 48.8281 0.488281 57.3242 -7.76367 57.3242 -22.998 L 57.3242 -51.7578 C 57.3242 -57.7637 53.9551 -61.1328 47.8516 -61.1328 L 13.0859 -61.1328 L 13.0859 -69.4336 C 13.0859 -70.3613 12.3047 -71.0938 11.4258 -71.0938 C 10.498 -71.0938 9.76562 -70.3613 9.76562 -69.4336 L 9.76562 -22.998 C 9.76562 -7.76367 18.2617 0.488281 33.5449 0.488281 Z M 33.5449 -2.7832 C 20.3613 -2.7832 13.0859 -9.7168 13.0859 -22.6074 L 13.0859 -57.8125 L 47.5098 -57.8125 C 51.9043 -57.8125 54.0039 -55.7617 54.0039 -51.416 L 54.0039 -22.6074 C 54.0039 -9.7168 46.6797 -2.7832 33.5449 -2.7832 Z M 22.168 -28.2715 L 44.9219 -28.2715 C 47.6074 -28.2715 49.1211 -29.6875 49.1211 -32.3242 L 49.1211 -48.877 C 49.1211 -51.5137 47.6074 -52.9297 44.9219 -52.9297 L 22.168 -52.9297 C 19.4336 -52.9297 17.9688 -51.5137 17.9688 -48.877 L 17.9688 -32.3242 C 17.9688 -29.6875 19.4336 -28.2715 22.168 -28.2715 Z M 27.6855 -9.0332 L 39.3555 -9.0332 C 40.3809 -9.0332 41.2109 -9.86328 41.2109 -10.8887 C 41.2109 -11.9141 40.3809 -12.7441 39.3555 -12.7441 L 27.6855 -12.7441 C 26.6602 -12.7441 25.8789 -11.9141 25.8789 -10.8887 C 25.8789 -9.86328 26.6602 -9.0332 27.6855 -9.0332 Z"/>
  </g>
  <g id="Ultralight-S" transform="matrix(1 0 0 1 527.314 696)">
   <path d="M 32.373 -0.927734 C 47.2168 -0.927734 55.0293 -8.74023 55.0293 -23.4863 L 55.0293 -51.2207 C 55.0293 -57.2266 51.9531 -60.3516 45.8984 -60.3516 L 11.9629 -60.3516 L 11.9629 -68.6523 C 11.9629 -69.2383 11.4746 -69.7266 10.8887 -69.7266 C 10.2539 -69.7266 9.76562 -69.2383 9.76562 -68.6523 L 9.76562 -23.4863 C 9.76562 -8.74023 17.5781 -0.927734 32.373 -0.927734 Z M 32.373 -3.125 C 18.9941 -3.125 11.9629 -10.0098 11.9629 -23.0957 L 11.9629 -58.1543 L 45.752 -58.1543 C 50.6348 -58.1543 52.832 -56.0059 52.832 -51.123 L 52.832 -23.0957 C 52.832 -10.0098 45.752 -3.125 32.373 -3.125 Z M 21.8262 -28.6133 L 42.9688 -28.6133 C 45.9473 -28.6133 47.5098 -30.127 47.5098 -32.959 L 47.5098 -48.5352 C 47.5098 -51.3672 45.9473 -52.832 42.9688 -52.832 L 21.8262 -52.832 C 18.8477 -52.832 17.2363 -51.3672 17.2363 -48.5352 L 17.2363 -32.959 C 17.2363 -30.127 18.8477 -28.6133 21.8262 -28.6133 Z M 26.3672 -9.32617 L 38.4277 -9.32617 C 39.3066 -9.32617 39.9902 -9.96094 39.9902 -10.8398 C 39.9902 -11.7188 39.3066 -12.4023 38.4277 -12.4023 L 26.3672 -12.4023 C 25.4883 -12.4023 24.8535 -11.7188 24.8535 -10.8398 C 24.8535 -9.96094 25.4883 -9.32617 26.3672 -9.32617 Z"/>
  </g>
 </g>
</svg>
