<?xml version="1.0" encoding="UTF-8"?>
<!--Generator: Apple Native CoreSVG 148-->
<!DOCTYPE svg
PUBLIC "-//W3C//DTD SVG 1.1//EN"
       "http://www.w3.org/Graphics/SVG/1.1/DTD/svg11.dtd">
<svg version="1.1" xmlns="http://www.w3.org/2000/svg" xmlns:xlink="http://www.w3.org/1999/xlink" width="3300" height="2200">
 <!--glyph: "uni1001AA.medium", point size: 100.000000, font version: "Version 16.0d11e1", template writer version: "8"-->
 <g id="Notes">
  <rect height="2200" id="artboard" style="fill:white;opacity:1" width="3300" x="0" y="0"/>
  <line id="" style="fill:none;stroke:black;opacity:1;stroke-width:0.5;" x1="263" x2="3036" y1="292" y2="292"/>
  <text style="stroke:none;fill:black;font-family:-apple-system,&quot;SF Pro Display&quot;,&quot;SF Pro Text&quot;,Helvetica,sans-serif;font-weight:bold;" transform="matrix(1 0 0 1 263 322)">Weight/Scale Variations</text>
  <text style="stroke:none;fill:black;font-family:-apple-system,&quot;SF Pro Display&quot;,&quot;SF Pro Text&quot;,Helvetica,sans-serif;text-anchor:middle;" transform="matrix(1 0 0 1 559.711 322)">Ultralight</text>
  <text style="stroke:none;fill:black;font-family:-apple-system,&quot;SF Pro Display&quot;,&quot;SF Pro Text&quot;,Helvetica,sans-serif;text-anchor:middle;" transform="matrix(1 0 0 1 856.422 322)">Thin</text>
  <text style="stroke:none;fill:black;font-family:-apple-system,&quot;SF Pro Display&quot;,&quot;SF Pro Text&quot;,Helvetica,sans-serif;text-anchor:middle;" transform="matrix(1 0 0 1 1153.13 322)">Light</text>
  <text style="stroke:none;fill:black;font-family:-apple-system,&quot;SF Pro Display&quot;,&quot;SF Pro Text&quot;,Helvetica,sans-serif;text-anchor:middle;" transform="matrix(1 0 0 1 1449.84 322)">Regular</text>
  <text style="stroke:none;fill:black;font-family:-apple-system,&quot;SF Pro Display&quot;,&quot;SF Pro Text&quot;,Helvetica,sans-serif;text-anchor:middle;" transform="matrix(1 0 0 1 1746.56 322)">Medium</text>
  <text style="stroke:none;fill:black;font-family:-apple-system,&quot;SF Pro Display&quot;,&quot;SF Pro Text&quot;,Helvetica,sans-serif;text-anchor:middle;" transform="matrix(1 0 0 1 2043.27 322)">Semibold</text>
  <text style="stroke:none;fill:black;font-family:-apple-system,&quot;SF Pro Display&quot;,&quot;SF Pro Text&quot;,Helvetica,sans-serif;text-anchor:middle;" transform="matrix(1 0 0 1 2339.98 322)">Bold</text>
  <text style="stroke:none;fill:black;font-family:-apple-system,&quot;SF Pro Display&quot;,&quot;SF Pro Text&quot;,Helvetica,sans-serif;text-anchor:middle;" transform="matrix(1 0 0 1 2636.69 322)">Heavy</text>
  <text style="stroke:none;fill:black;font-family:-apple-system,&quot;SF Pro Display&quot;,&quot;SF Pro Text&quot;,Helvetica,sans-serif;text-anchor:middle;" transform="matrix(1 0 0 1 2933.4 322)">Black</text>
  <line id="" style="fill:none;stroke:black;opacity:1;stroke-width:0.5;" x1="263" x2="3036" y1="1903" y2="1903"/>
  <g id="" transform="matrix(1 0 0 1 263 1933)">
   <path d="M 9.24805 0.830078 C 13.5547 0.830078 17.1387 -2.74414 17.1387 -7.05078 C 17.1387 -11.3574 13.5449 -14.9316 9.23828 -14.9316 C 4.94141 -14.9316 1.36719 -11.3574 1.36719 -7.05078 C 1.36719 -2.74414 4.95117 0.830078 9.24805 0.830078 Z M 9.24805 -0.654297 C 5.70312 -0.654297 2.87109 -3.49609 2.87109 -7.05078 C 2.87109 -10.6055 5.69336 -13.4473 9.23828 -13.4473 C 12.793 -13.4473 15.6348 -10.6055 15.6445 -7.05078 C 15.6543 -3.49609 12.8027 -0.654297 9.24805 -0.654297 Z M 9.22852 -3.62305 C 9.69727 -3.62305 9.9707 -3.93555 9.9707 -4.45312 L 9.9707 -6.31836 L 12.002 -6.31836 C 12.5 -6.31836 12.832 -6.57227 12.832 -7.04102 C 12.832 -7.51953 12.5195 -7.7832 12.002 -7.7832 L 9.9707 -7.7832 L 9.9707 -9.81445 C 9.9707 -10.332 9.69727 -10.6543 9.22852 -10.6543 C 8.75977 -10.6543 8.50586 -10.3125 8.50586 -9.81445 L 8.50586 -7.7832 L 6.49414 -7.7832 C 5.97656 -7.7832 5.64453 -7.51953 5.64453 -7.04102 C 5.64453 -6.57227 5.99609 -6.31836 6.49414 -6.31836 L 8.50586 -6.31836 L 8.50586 -4.45312 C 8.50586 -3.95508 8.75977 -3.62305 9.22852 -3.62305 Z"/>
  </g>
  <g id="" transform="matrix(1 0 0 1 281.506 1933)">
   <path d="M 11.709 2.91016 C 17.1582 2.91016 21.6699 -1.61133 21.6699 -7.05078 C 21.6699 -12.5 17.1484 -17.0117 11.6992 -17.0117 C 6.25977 -17.0117 1.74805 -12.5 1.74805 -7.05078 C 1.74805 -1.61133 6.26953 2.91016 11.709 2.91016 Z M 11.709 1.25 C 7.09961 1.25 3.41797 -2.44141 3.41797 -7.05078 C 3.41797 -11.6602 7.08984 -15.3516 11.6992 -15.3516 C 16.3086 -15.3516 20 -11.6602 20.0098 -7.05078 C 20.0195 -2.44141 16.3184 1.25 11.709 1.25 Z M 11.6797 -2.66602 C 12.207 -2.66602 12.5098 -3.01758 12.5098 -3.59375 L 12.5098 -6.23047 L 15.3223 -6.23047 C 15.8691 -6.23047 16.25 -6.51367 16.25 -7.03125 C 16.25 -7.55859 15.8887 -7.86133 15.3223 -7.86133 L 12.5098 -7.86133 L 12.5098 -10.6836 C 12.5098 -11.25 12.207 -11.6113 11.6797 -11.6113 C 11.1621 -11.6113 10.8789 -11.2305 10.8789 -10.6836 L 10.8789 -7.86133 L 8.07617 -7.86133 C 7.50977 -7.86133 7.13867 -7.55859 7.13867 -7.03125 C 7.13867 -6.51367 7.5293 -6.23047 8.07617 -6.23047 L 10.8789 -6.23047 L 10.8789 -3.59375 C 10.8789 -3.03711 11.1621 -2.66602 11.6797 -2.66602 Z"/>
  </g>
  <g id="" transform="matrix(1 0 0 1 304.924 1933)">
   <path d="M 14.9707 5.66406 C 21.9336 5.66406 27.6953 -0.0976562 27.6953 -7.05078 C 27.6953 -14.0137 21.9238 -19.7754 14.9609 -19.7754 C 8.00781 -19.7754 2.25586 -14.0137 2.25586 -7.05078 C 2.25586 -0.0976562 8.01758 5.66406 14.9707 5.66406 Z M 14.9707 3.84766 C 8.93555 3.84766 4.08203 -1.01562 4.08203 -7.05078 C 4.08203 -13.0957 8.92578 -17.9492 14.9609 -17.9492 C 21.0059 -17.9492 25.8594 -13.0957 25.8691 -7.05078 C 25.8789 -1.01562 21.0156 3.84766 14.9707 3.84766 Z M 14.9414 -1.38672 C 15.5176 -1.38672 15.8594 -1.77734 15.8594 -2.38281 L 15.8594 -6.13281 L 19.7754 -6.13281 C 20.3711 -6.13281 20.7812 -6.46484 20.7812 -7.02148 C 20.7812 -7.59766 20.3906 -7.93945 19.7754 -7.93945 L 15.8594 -7.93945 L 15.8594 -11.8652 C 15.8594 -12.4805 15.5176 -12.8711 14.9414 -12.8711 C 14.375 -12.8711 14.0527 -12.4609 14.0527 -11.8652 L 14.0527 -7.93945 L 10.1465 -7.93945 C 9.53125 -7.93945 9.13086 -7.59766 9.13086 -7.02148 C 9.13086 -6.46484 9.55078 -6.13281 10.1465 -6.13281 L 14.0527 -6.13281 L 14.0527 -2.38281 C 14.0527 -1.79688 14.375 -1.38672 14.9414 -1.38672 Z"/>
  </g>
  <text style="stroke:none;fill:black;font-family:-apple-system,&quot;SF Pro Display&quot;,&quot;SF Pro Text&quot;,Helvetica,sans-serif;font-weight:bold;" transform="matrix(1 0 0 1 263 1953)">Design Variations</text>
  <text style="stroke:none;fill:black;font-family:-apple-system,&quot;SF Pro Display&quot;,&quot;SF Pro Text&quot;,Helvetica,sans-serif;" transform="matrix(1 0 0 1 263 1971)">Symbols are supported in up to nine weights and three scales.</text>
  <text style="stroke:none;fill:black;font-family:-apple-system,&quot;SF Pro Display&quot;,&quot;SF Pro Text&quot;,Helvetica,sans-serif;" transform="matrix(1 0 0 1 263 1989)">For optimal layout with text and other symbols, vertically align</text>
  <text style="stroke:none;fill:black;font-family:-apple-system,&quot;SF Pro Display&quot;,&quot;SF Pro Text&quot;,Helvetica,sans-serif;" transform="matrix(1 0 0 1 263 2007)">symbols with the adjacent text.</text>
  <line id="" style="fill:none;stroke:#00AEEF;stroke-width:0.5;opacity:1.0;" x1="776" x2="776" y1="1919" y2="1933"/>
  <g id="" transform="matrix(1 0 0 1 776 1933)">
   <path d="M 3.31055 0.126953 C 3.82812 0.126953 4.08203 -0.0683594 4.26758 -0.605469 L 5.52734 -4.0625 L 11.2891 -4.0625 L 12.5488 -0.605469 C 12.7344 -0.0683594 12.9883 0.126953 13.4961 0.126953 C 14.0137 0.126953 14.3457 -0.185547 14.3457 -0.673828 C 14.3457 -0.839844 14.3164 -0.986328 14.2383 -1.20117 L 9.6582 -13.3887 C 9.43359 -13.9941 9.0332 -14.2871 8.4082 -14.2871 C 7.80273 -14.2871 7.39258 -13.9941 7.17773 -13.3984 L 2.59766 -1.19141 C 2.51953 -0.976562 2.49023 -0.830078 2.49023 -0.664062 C 2.49023 -0.175781 2.80273 0.126953 3.31055 0.126953 Z M 6.00586 -5.53711 L 8.37891 -12.1094 L 8.42773 -12.1094 L 10.8008 -5.53711 Z"/>
  </g>
  <line id="" style="fill:none;stroke:#00AEEF;stroke-width:0.5;opacity:1.0;" x1="792.836" x2="792.836" y1="1919" y2="1933"/>
  <text style="stroke:none;fill:black;font-family:-apple-system,&quot;SF Pro Display&quot;,&quot;SF Pro Text&quot;,Helvetica,sans-serif;font-weight:bold;" transform="matrix(1 0 0 1 776 1953)">Margins</text>
  <text style="stroke:none;fill:black;font-family:-apple-system,&quot;SF Pro Display&quot;,&quot;SF Pro Text&quot;,Helvetica,sans-serif;" transform="matrix(1 0 0 1 776 1971)">Leading and trailing margins on the left and right side of each symbol</text>
  <text style="stroke:none;fill:black;font-family:-apple-system,&quot;SF Pro Display&quot;,&quot;SF Pro Text&quot;,Helvetica,sans-serif;" transform="matrix(1 0 0 1 776 1989)">can be adjusted by modifying the x-location of the margin guidelines.</text>
  <text style="stroke:none;fill:black;font-family:-apple-system,&quot;SF Pro Display&quot;,&quot;SF Pro Text&quot;,Helvetica,sans-serif;" transform="matrix(1 0 0 1 776 2007)">Modifications are automatically applied proportionally to all</text>
  <text style="stroke:none;fill:black;font-family:-apple-system,&quot;SF Pro Display&quot;,&quot;SF Pro Text&quot;,Helvetica,sans-serif;" transform="matrix(1 0 0 1 776 2025)">scales and weights.</text>
  <g id="" transform="matrix(1 0 0 1 1289 1933)">
   <path d="M 2.8418 1.86523 L 4.54102 3.57422 C 5.40039 4.44336 6.38672 4.38477 7.31445 3.35938 L 17.4902 -7.85156 C 17.7539 -7.76367 18.0273 -7.7832 18.3398 -7.8418 L 19.4043 -8.03711 L 20.0684 -7.36328 L 20.0293 -6.80664 C 19.9902 -6.30859 20.1172 -5.92773 20.6055 -5.44922 L 21.3672 -4.70703 C 21.8457 -4.22852 22.4609 -4.19922 22.9297 -4.66797 L 25.8398 -7.58789 C 26.3086 -8.05664 26.2891 -8.65234 25.8105 -9.13086 L 25.0391 -9.89258 C 24.5605 -10.3711 24.1895 -10.5273 23.7109 -10.4883 L 23.1348 -10.4395 L 22.4902 -11.0742 L 22.7344 -12.1973 C 22.8613 -12.7637 22.7051 -13.2031 22.1191 -13.7891 L 19.9219 -15.9766 C 16.582 -19.2969 12.1484 -19.2188 9.25781 -16.3281 C 8.83789 -15.918 8.80859 -15.3418 9.04297 -14.9512 C 9.27734 -14.5898 9.73633 -14.3555 10.3809 -14.5215 C 11.8457 -14.8633 13.3691 -14.9219 14.7949 -13.9844 L 14.209 -12.5293 C 14.0137 -12.0508 13.9844 -11.6504 14.1113 -11.2891 L 3.04688 -0.898438 C 2.06055 0.0195312 1.98242 0.996094 2.8418 1.86523 Z M 10.752 -15.957 C 13.1836 -17.7344 16.4746 -17.4316 18.7012 -15.2051 L 21.1328 -12.793 C 21.3672 -12.5586 21.4062 -12.373 21.3379 -12.0312 L 21.0156 -10.5469 L 22.5195 -9.0625 L 23.5059 -9.12109 C 23.7598 -9.13086 23.8379 -9.11133 24.0332 -8.91602 L 24.6094 -8.33984 L 22.168 -5.89844 L 21.5918 -6.47461 C 21.3965 -6.66992 21.3672 -6.74805 21.377 -7.01172 L 21.4453 -7.98828 L 19.9512 -9.47266 L 18.4277 -9.21875 C 18.1055 -9.15039 17.959 -9.17969 17.7148 -9.41406 L 15.7129 -11.416 C 15.459 -11.6504 15.4297 -11.8164 15.5859 -12.1875 L 16.4648 -14.2773 C 14.9023 -15.7324 12.8711 -16.3574 10.8398 -15.7617 C 10.6836 -15.7227 10.625 -15.8496 10.752 -15.957 Z M 5.27344 2.30469 L 4.10156 1.14258 C 3.63281 0.683594 3.74023 0.341797 4.14062 -0.0195312 L 14.9512 -10.1953 L 16.416 -8.71094 L 6.42578 2.27539 C 6.07422 2.67578 5.74219 2.77344 5.27344 2.30469 Z"/>
  </g>
  <text style="stroke:none;fill:black;font-family:-apple-system,&quot;SF Pro Display&quot;,&quot;SF Pro Text&quot;,Helvetica,sans-serif;font-weight:bold;" transform="matrix(1 0 0 1 1289 1953)">Exporting</text>
  <text style="stroke:none;fill:black;font-family:-apple-system,&quot;SF Pro Display&quot;,&quot;SF Pro Text&quot;,Helvetica,sans-serif;" transform="matrix(1 0 0 1 1289 1971)">Symbols should be outlined when exporting to ensure the</text>
  <text style="stroke:none;fill:black;font-family:-apple-system,&quot;SF Pro Display&quot;,&quot;SF Pro Text&quot;,Helvetica,sans-serif;" transform="matrix(1 0 0 1 1289 1989)">design is preserved when submitting to Xcode.</text>
  <text id="template-version" style="stroke:none;fill:black;font-family:-apple-system,&quot;SF Pro Display&quot;,&quot;SF Pro Text&quot;,Helvetica,sans-serif;text-anchor:end;" transform="matrix(1 0 0 1 3036 1933)">Template v.2.0</text>
  <text style="stroke:none;fill:black;font-family:-apple-system,&quot;SF Pro Display&quot;,&quot;SF Pro Text&quot;,Helvetica,sans-serif;text-anchor:end;" transform="matrix(1 0 0 1 3036 1951)">Requires Xcode 12 or greater</text>
  <text style="stroke:none;fill:black;font-family:-apple-system,&quot;SF Pro Display&quot;,&quot;SF Pro Text&quot;,Helvetica,sans-serif;text-anchor:end;" transform="matrix(1 0 0 1 3036 1969)">Generated from globe</text>
  <text style="stroke:none;fill:black;font-family:-apple-system,&quot;SF Pro Display&quot;,&quot;SF Pro Text&quot;,Helvetica,sans-serif;text-anchor:end;" transform="matrix(1 0 0 1 3036 1987)">Typeset at 100 points</text>
  <text style="stroke:none;fill:black;font-family:-apple-system,&quot;SF Pro Display&quot;,&quot;SF Pro Text&quot;,Helvetica,sans-serif;" transform="matrix(1 0 0 1 263 726)">Small</text>
  <text style="stroke:none;fill:black;font-family:-apple-system,&quot;SF Pro Display&quot;,&quot;SF Pro Text&quot;,Helvetica,sans-serif;" transform="matrix(1 0 0 1 263 1156)">Medium</text>
  <text style="stroke:none;fill:black;font-family:-apple-system,&quot;SF Pro Display&quot;,&quot;SF Pro Text&quot;,Helvetica,sans-serif;" transform="matrix(1 0 0 1 263 1586)">Large</text>
 </g>
 <g id="Guides">
  <g id="H-reference" style="fill:#27AAE1;stroke:none;" transform="matrix(1 0 0 1 339 696)">
   <path d="M 0.976562 0 L 3.66211 0 L 12.9883 -24.4629 L 45.7031 -24.4629 L 55.0781 0 L 57.7148 0 L 30.6152 -70.459 L 28.125 -70.459 Z M 29.2969 -67.1387 L 29.3945 -67.1387 L 44.873 -26.709 L 13.8672 -26.709 Z"/>
  </g>
  <line id="Baseline-S" style="fill:none;stroke:#27AAE1;opacity:1;stroke-width:0.5;" x1="263" x2="3036" y1="696" y2="696"/>
  <line id="Capline-S" style="fill:none;stroke:#27AAE1;opacity:1;stroke-width:0.5;" x1="263" x2="3036" y1="625.541" y2="625.541"/>
  <g id="H-reference" style="fill:#27AAE1;stroke:none;" transform="matrix(1 0 0 1 339 1126)">
   <path d="M 0.976562 0 L 3.66211 0 L 12.9883 -24.4629 L 45.7031 -24.4629 L 55.0781 0 L 57.7148 0 L 30.6152 -70.459 L 28.125 -70.459 Z M 29.2969 -67.1387 L 29.3945 -67.1387 L 44.873 -26.709 L 13.8672 -26.709 Z"/>
  </g>
  <line id="Baseline-M" style="fill:none;stroke:#27AAE1;opacity:1;stroke-width:0.5;" x1="263" x2="3036" y1="1126" y2="1126"/>
  <line id="Capline-M" style="fill:none;stroke:#27AAE1;opacity:1;stroke-width:0.5;" x1="263" x2="3036" y1="1055.54" y2="1055.54"/>
  <g id="H-reference" style="fill:#27AAE1;stroke:none;" transform="matrix(1 0 0 1 339 1556)">
   <path d="M 0.976562 0 L 3.66211 0 L 12.9883 -24.4629 L 45.7031 -24.4629 L 55.0781 0 L 57.7148 0 L 30.6152 -70.459 L 28.125 -70.459 Z M 29.2969 -67.1387 L 29.3945 -67.1387 L 44.873 -26.709 L 13.8672 -26.709 Z"/>
  </g>
  <line id="Baseline-L" style="fill:none;stroke:#27AAE1;opacity:1;stroke-width:0.5;" x1="263" x2="3036" y1="1556" y2="1556"/>
  <line id="Capline-L" style="fill:none;stroke:#27AAE1;opacity:1;stroke-width:0.5;" x1="263" x2="3036" y1="1485.54" y2="1485.54"/>
  <line id="left-margin" style="fill:none;stroke:#00AEEF;stroke-width:0.5;opacity:1.0;" x1="1391.3" x2="1391.3" y1="1030.79" y2="1150.12"/>
  <line id="right-margin" style="fill:none;stroke:#00AEEF;stroke-width:0.5;opacity:1.0;" x1="1508.39" x2="1508.39" y1="1030.79" y2="1150.12"/>
 </g>
 <g id="Symbols">
  <g id="Black-L" transform="matrix(1 0 0 1 2854.05 1556)">
   <path d="M 79.3457 32.8613 C 116.748 32.8613 147.412 2.19727 147.412 -35.2051 C 147.412 -72.6074 116.748 -103.271 79.2969 -103.271 C 41.8945 -103.271 11.2793 -72.6074 11.2793 -35.2051 C 11.2793 2.19727 41.9434 32.8613 79.3457 32.8613 Z M 40.9668 -70.8008 C 46.7773 -77.0996 54.1504 -81.9824 62.4023 -84.8145 C 57.7637 -80.2734 53.8574 -73.9258 51.0254 -66.2598 C 47.0215 -67.5293 43.6035 -69.043 40.9668 -70.8008 Z M 96.2891 -84.8145 C 104.541 -81.9336 111.914 -77.0996 117.725 -70.8008 C 115.088 -69.043 111.67 -67.4805 107.666 -66.2598 C 104.834 -73.877 100.928 -80.2734 96.2891 -84.8145 Z M 84.8145 -80.3711 C 89.3555 -77.5879 93.5059 -71.5332 96.6309 -63.7207 C 92.8711 -63.1348 88.916 -62.7441 84.8145 -62.5488 Z M 62.0605 -63.7207 C 65.1367 -71.5332 69.3359 -77.5879 73.877 -80.3711 L 73.877 -62.5488 C 69.7754 -62.7441 65.8203 -63.1348 62.0605 -63.7207 Z M 27.1973 -40.7227 C 28.0273 -48.5352 30.5664 -55.8105 34.4727 -62.2559 C 37.9395 -59.7168 42.5781 -57.5684 47.9492 -55.8594 C 46.875 -51.123 46.1914 -46.0449 45.8984 -40.7227 Z M 112.793 -40.7227 C 112.5 -46.0449 111.816 -51.123 110.742 -55.8594 C 116.113 -57.5684 120.703 -59.7168 124.219 -62.2559 C 128.125 -55.8105 130.664 -48.5352 131.494 -40.7227 Z M 84.8145 -40.7227 L 84.8145 -51.6113 C 90.0391 -51.8555 95.1172 -52.3926 99.8047 -53.2227 C 100.732 -49.2676 101.367 -45.0195 101.66 -40.7227 Z M 57.0312 -40.7227 C 57.3242 -45.0195 57.959 -49.2676 58.8867 -53.2227 C 63.5742 -52.3926 68.6523 -51.8555 73.877 -51.6113 L 73.877 -40.7227 Z M 27.1484 -29.7852 L 45.8496 -29.7852 C 46.1426 -24.3652 46.875 -19.1895 47.9492 -14.3555 C 42.627 -12.6465 38.0371 -10.5469 34.5703 -8.00781 C 30.6152 -14.502 27.9785 -21.9238 27.1484 -29.7852 Z M 56.9824 -29.7852 L 73.877 -29.7852 L 73.877 -18.6035 C 68.6523 -18.4082 63.5742 -17.8223 58.8867 -16.9922 C 57.959 -21.0449 57.2754 -25.3906 56.9824 -29.7852 Z M 84.8145 -18.6035 L 84.8145 -29.7852 L 101.66 -29.7852 C 101.367 -25.3906 100.732 -21.0938 99.8047 -16.9922 C 95.0684 -17.8223 90.0391 -18.4082 84.8145 -18.6035 Z M 110.693 -14.3555 C 111.816 -19.1895 112.549 -24.3652 112.793 -29.7852 L 131.494 -29.7852 C 130.713 -21.9238 128.076 -14.502 124.121 -8.00781 C 120.654 -10.5469 116.064 -12.6465 110.693 -14.3555 Z M 62.1094 -6.49414 C 65.8203 -7.08008 69.7754 -7.4707 73.877 -7.66602 L 73.877 9.96094 C 69.3359 7.22656 65.1855 1.2207 62.1094 -6.49414 Z M 84.8145 -7.66602 C 88.916 -7.4707 92.8223 -7.08008 96.5332 -6.49414 C 93.457 1.2207 89.3066 7.17773 84.8145 9.96094 Z M 107.617 -4.00391 C 111.572 -2.73438 114.99 -1.2207 117.627 0.488281 C 111.816 6.73828 104.492 11.5723 96.3379 14.4043 C 100.879 9.86328 104.785 3.56445 107.617 -4.00391 Z M 41.0645 0.488281 C 43.7012 -1.2207 47.1191 -2.73438 51.0742 -4.00391 C 53.9062 3.56445 57.7637 9.86328 62.3535 14.4043 C 54.1504 11.5723 46.875 6.73828 41.0645 0.488281 Z"/>
  </g>
  <g id="Heavy-L" transform="matrix(1 0 0 1 2558.39 1556)">
   <path d="M 78.2715 31.7871 C 115.088 31.7871 145.312 1.5625 145.312 -35.2051 C 145.312 -72.0215 115.039 -102.246 78.2715 -102.246 C 41.4551 -102.246 11.2793 -72.0215 11.2793 -35.2051 C 11.2793 1.5625 41.5039 31.7871 78.2715 31.7871 Z M 39.8926 -72.0703 C 45.9473 -78.418 53.5645 -83.252 62.0605 -85.9863 C 57.4219 -81.4941 53.4668 -75 50.5371 -67.1875 C 46.3379 -68.5059 42.7246 -70.166 39.8926 -72.0703 Z M 94.5312 -85.9863 C 103.027 -83.2031 110.596 -78.3691 116.699 -72.0703 C 113.867 -70.166 110.254 -68.5059 106.006 -67.1875 C 103.125 -75 99.1699 -81.4453 94.5312 -85.9863 Z M 83.3008 -82.373 C 88.1836 -79.6875 92.6758 -73.291 95.8984 -64.8438 C 91.9434 -64.1602 87.7441 -63.7207 83.3008 -63.5254 Z M 60.6445 -64.8438 C 63.916 -73.291 68.4082 -79.6875 73.2422 -82.373 L 73.2422 -63.5254 C 68.8477 -63.7207 64.5996 -64.1602 60.6445 -64.8438 Z M 25.1953 -40.2832 C 26.0254 -49.1211 29.0527 -57.3242 33.7402 -64.3555 C 37.3047 -61.7188 42.0898 -59.4727 47.7051 -57.666 C 46.4355 -52.2949 45.6055 -46.4355 45.3125 -40.2832 Z M 111.23 -40.2832 C 110.938 -46.4355 110.156 -52.2949 108.887 -57.666 C 114.453 -59.4727 119.238 -61.7188 122.852 -64.3555 C 127.49 -57.3242 130.518 -49.0723 131.396 -40.2832 Z M 83.3008 -40.2832 L 83.3008 -53.5156 C 88.7207 -53.7109 93.9941 -54.2969 98.8281 -55.2246 C 99.9512 -50.5371 100.732 -45.5078 101.025 -40.2832 Z M 55.5664 -40.2832 C 55.8594 -45.5078 56.5918 -50.5371 57.7148 -55.2246 C 62.5977 -54.2969 67.8223 -53.7109 73.2422 -53.5156 L 73.2422 -40.2832 Z M 25.1953 -30.2246 L 45.3125 -30.2246 C 45.6055 -23.9746 46.4355 -18.0176 47.7051 -12.5488 C 42.1875 -10.791 37.4023 -8.54492 33.8379 -5.9082 C 29.1016 -13.0371 26.0254 -21.3379 25.1953 -30.2246 Z M 55.5176 -30.2246 L 73.2422 -30.2246 L 73.2422 -16.6992 C 67.8223 -16.5039 62.5977 -15.918 57.7637 -14.9902 C 56.5918 -19.8242 55.8594 -24.9512 55.5176 -30.2246 Z M 83.3008 -16.6992 L 83.3008 -30.2246 L 101.025 -30.2246 C 100.732 -24.9512 99.9512 -19.8242 98.8281 -14.9902 C 93.9453 -15.918 88.7207 -16.5039 83.3008 -16.6992 Z M 108.838 -12.5488 C 110.156 -18.0176 110.986 -23.9746 111.279 -30.2246 L 131.396 -30.2246 C 130.566 -21.3379 127.49 -13.0371 122.754 -5.9082 C 119.141 -8.54492 114.404 -10.791 108.838 -12.5488 Z M 83.3008 -6.68945 C 87.6953 -6.49414 91.8945 -6.05469 95.8496 -5.41992 C 92.5781 2.92969 88.1348 9.27734 83.3008 11.9629 Z M 60.7422 -5.41992 C 64.6484 -6.05469 68.8477 -6.49414 73.2422 -6.68945 L 73.2422 11.9629 C 68.4082 9.27734 63.9648 2.92969 60.7422 -5.41992 Z M 105.957 -3.02734 C 110.156 -1.75781 113.721 -0.146484 116.553 1.75781 C 110.498 8.00781 102.979 12.793 94.5801 15.5273 C 99.1699 11.0352 103.076 4.63867 105.957 -3.02734 Z M 40.0391 1.75781 C 42.8223 -0.146484 46.4355 -1.75781 50.5859 -3.02734 C 53.4668 4.63867 57.373 11.0352 61.9629 15.5273 C 53.5645 12.793 46.0449 8.00781 40.0391 1.75781 Z"/>
  </g>
  <g id="Bold-L" transform="matrix(1 0 0 1 2262.88 1556)">
   <path d="M 77.0996 30.5664 C 113.232 30.5664 142.92 0.878906 142.92 -35.2539 C 142.92 -71.3379 113.184 -101.074 77.0508 -101.074 C 40.9668 -101.074 11.2793 -71.3379 11.2793 -35.2539 C 11.2793 0.878906 41.0156 30.5664 77.0996 30.5664 Z M 38.7207 -73.4863 C 45.0195 -79.834 52.8809 -84.668 61.6211 -87.3047 C 56.9336 -82.7637 52.9785 -76.2207 50 -68.2129 C 45.5566 -69.6289 41.748 -71.3867 38.7207 -73.4863 Z M 92.5781 -87.2559 C 101.318 -84.6191 109.18 -79.7852 115.479 -73.4863 C 112.451 -71.3867 108.643 -69.6289 104.199 -68.2129 C 101.27 -76.2207 97.2656 -82.7637 92.5781 -87.2559 Z M 81.6406 -84.5703 C 86.8652 -82.0312 91.6992 -75.2441 95.1172 -66.0645 C 90.918 -65.332 86.4258 -64.8438 81.6406 -64.6973 Z M 59.082 -66.0645 C 62.5488 -75.2441 67.334 -82.0312 72.5586 -84.5703 L 72.5586 -64.6973 C 67.8223 -64.8438 63.2812 -65.332 59.082 -66.0645 Z M 22.998 -39.7949 C 23.8281 -49.7559 27.3926 -58.9844 32.959 -66.6992 C 36.6699 -63.916 41.6504 -61.5234 47.4121 -59.7168 C 45.9473 -53.6133 44.9707 -46.9238 44.6777 -39.7949 Z M 109.521 -39.7949 C 109.229 -46.9238 108.252 -53.6133 106.787 -59.7168 C 112.549 -61.5234 117.529 -63.916 121.24 -66.6992 C 126.807 -58.9355 130.371 -49.7559 131.25 -39.7949 Z M 53.9062 -39.7949 C 54.248 -45.9961 55.127 -52.002 56.4453 -57.4219 C 61.4746 -56.4453 66.9434 -55.8594 72.5586 -55.6152 L 72.5586 -39.7949 Z M 81.6406 -39.7949 L 81.6406 -55.6152 C 87.3047 -55.8594 92.7246 -56.4453 97.7539 -57.4219 C 99.0723 -51.9531 100 -45.9961 100.293 -39.7949 Z M 22.998 -30.7617 L 44.6777 -30.7617 C 44.9707 -23.4863 45.9473 -16.6992 47.4609 -10.498 C 41.6992 -8.69141 36.8164 -6.39648 33.1055 -3.61328 C 27.4414 -11.4258 23.8281 -20.7031 22.998 -30.7617 Z M 53.9062 -30.7617 L 72.5586 -30.7617 L 72.5586 -14.5996 C 66.9434 -14.3555 61.5234 -13.7695 56.4941 -12.793 C 55.127 -18.3594 54.1992 -24.4629 53.9062 -30.7617 Z M 81.6406 -14.5996 L 81.6406 -30.7617 L 100.293 -30.7617 C 100 -24.4629 99.0723 -18.3594 97.7051 -12.793 C 92.6758 -13.7695 87.2559 -14.3555 81.6406 -14.5996 Z M 106.738 -10.498 C 108.301 -16.6992 109.229 -23.4863 109.521 -30.7617 L 131.25 -30.7617 C 130.371 -20.7031 126.758 -11.4258 121.143 -3.61328 C 117.432 -6.39648 112.5 -8.69141 106.738 -10.498 Z M 59.1797 -4.19922 C 63.3301 -4.88281 67.8223 -5.37109 72.5586 -5.56641 L 72.5586 14.1602 C 67.3828 11.6211 62.5977 4.88281 59.1797 -4.19922 Z M 81.6406 -5.56641 C 86.377 -5.37109 90.8691 -4.88281 95.0195 -4.19922 C 91.6016 4.88281 86.8164 11.6211 81.6406 14.1602 Z M 38.8672 3.125 C 41.8945 1.07422 45.6543 -0.634766 50.0488 -2.00195 C 52.9785 5.85938 56.9336 12.3047 61.5234 16.748 C 52.8809 14.1113 45.1172 9.375 38.8672 3.125 Z M 104.15 -2.00195 C 108.545 -0.634766 112.305 1.07422 115.332 3.125 C 109.082 9.375 101.318 14.1113 92.6758 16.748 C 97.3145 12.3047 101.221 5.85938 104.15 -2.00195 Z"/>
  </g>
  <g id="Semibold-L" transform="matrix(1 0 0 1 1966.97 1556)">
   <path d="M 76.2695 29.7363 C 111.914 29.7363 141.309 0.390625 141.309 -35.2539 C 141.309 -70.8984 111.865 -100.244 76.2695 -100.244 C 40.625 -100.244 11.2793 -70.8984 11.2793 -35.2539 C 11.2793 0.390625 40.6738 29.7363 76.2695 29.7363 Z M 37.8906 -74.4629 C 44.3848 -80.8105 52.3926 -85.5957 61.3281 -88.1348 C 56.6406 -83.6426 52.6367 -77.0996 49.6582 -68.9453 C 45.0684 -70.4102 41.0645 -72.2168 37.8906 -74.4629 Z M 91.3086 -88.1348 C 100.195 -85.5469 108.203 -80.7617 114.648 -74.4141 C 111.475 -72.2168 107.52 -70.3613 102.93 -68.9453 C 99.9512 -77.0508 95.9473 -83.6426 91.3086 -88.1348 Z M 80.4688 -86.084 C 85.9863 -83.6426 91.0156 -76.6113 94.5801 -66.8945 C 90.2344 -66.1133 85.498 -65.625 80.4688 -65.4297 Z M 58.0078 -66.8945 C 61.5723 -76.6113 66.6016 -83.6426 72.1191 -86.084 L 72.1191 -65.4297 C 67.0898 -65.625 62.3535 -66.1133 58.0078 -66.8945 Z M 21.4844 -39.4531 C 22.3145 -50.1953 26.2695 -60.1074 32.4707 -68.2617 C 36.2793 -65.3809 41.3086 -62.9395 47.2656 -61.084 C 45.6055 -54.541 44.5312 -47.2656 44.2871 -39.4531 Z M 108.301 -39.4531 C 108.008 -47.2656 106.982 -54.541 105.322 -61.084 C 111.23 -62.9395 116.309 -65.3809 120.117 -68.2617 C 126.318 -60.1074 130.273 -50.1953 131.104 -39.4531 Z M 52.7832 -39.4531 C 53.0762 -46.3867 54.1016 -52.9785 55.5664 -58.9844 C 60.7422 -57.959 66.3086 -57.2754 72.1191 -57.0801 L 72.1191 -39.4531 Z M 80.4688 -39.4531 L 80.4688 -57.0801 C 86.2793 -57.2754 91.8457 -57.959 97.0215 -58.9844 C 98.4863 -52.9785 99.4629 -46.3867 99.7559 -39.4531 Z M 21.4355 -31.1035 L 44.2383 -31.1035 C 44.5312 -23.1445 45.6055 -15.7715 47.2656 -9.13086 C 41.4062 -7.27539 36.4258 -4.88281 32.6172 -2.05078 C 26.3184 -10.2539 22.2656 -20.2637 21.4355 -31.1035 Z M 52.7832 -31.1035 L 72.1191 -31.1035 L 72.1191 -13.1348 C 66.3086 -12.9395 60.791 -12.2559 55.6641 -11.2305 C 54.1016 -17.334 53.0762 -24.0723 52.7832 -31.1035 Z M 80.4688 -13.1348 L 80.4688 -31.1035 L 99.8047 -31.1035 C 99.5117 -24.0723 98.4863 -17.334 96.9238 -11.2305 C 91.7969 -12.2559 86.2793 -12.9395 80.4688 -13.1348 Z M 105.322 -9.13086 C 106.982 -15.7715 108.057 -23.1445 108.35 -31.1035 L 131.104 -31.1035 C 130.273 -20.2637 126.27 -10.2539 119.971 -2.05078 C 116.162 -4.88281 111.182 -7.27539 105.322 -9.13086 Z M 80.4688 -4.78516 C 85.4492 -4.58984 90.1367 -4.10156 94.4824 -3.32031 C 90.918 6.20117 85.9375 13.2324 80.4688 15.6738 Z M 58.1055 -3.32031 C 62.4512 -4.10156 67.1387 -4.58984 72.1191 -4.78516 L 72.1191 15.6738 C 66.6504 13.2324 61.6699 6.20117 58.1055 -3.32031 Z M 102.881 -1.26953 C 107.422 0.146484 111.328 1.95312 114.502 4.10156 C 108.105 10.3516 100.195 15.0391 91.4062 17.5781 C 95.9961 13.1348 99.9512 6.68945 102.881 -1.26953 Z M 38.0859 4.10156 C 41.2109 1.95312 45.166 0.146484 49.707 -1.26953 C 52.6367 6.68945 56.5918 13.1348 61.1816 17.5781 C 52.3926 15.0391 44.4824 10.3516 38.0859 4.10156 Z"/>
  </g>
  <g id="Medium-L" transform="matrix(1 0 0 1 1670.87 1556)">
   <path d="M 75.6836 29.1504 C 110.938 29.1504 140.088 0 140.088 -35.2539 C 140.088 -70.5078 110.889 -99.6582 75.6348 -99.6582 C 40.3809 -99.6582 11.2793 -70.5078 11.2793 -35.2539 C 11.2793 0 40.3809 29.1504 75.6836 29.1504 Z M 37.3047 -75.1953 C 43.8965 -81.543 52.0508 -86.2793 61.084 -88.7695 C 56.3965 -84.3262 52.3438 -77.6855 49.3652 -69.4824 C 44.6289 -70.9473 40.5762 -72.8516 37.3047 -75.1953 Z M 90.2832 -88.7695 C 99.3164 -86.2305 107.422 -81.4941 114.014 -75.1465 C 110.742 -72.8516 106.689 -70.9473 101.953 -69.4824 C 99.0234 -77.6855 94.9707 -84.2773 90.2832 -88.7695 Z M 79.5898 -87.207 C 85.3027 -84.8633 90.5273 -77.6367 94.1406 -67.5781 C 89.6973 -66.748 84.8145 -66.2109 79.5898 -66.0156 Z M 57.1777 -67.5781 C 60.8398 -77.6367 66.0645 -84.8633 71.7285 -87.207 L 71.7285 -66.0645 C 66.5527 -66.2109 61.6699 -66.748 57.1777 -67.5781 Z M 20.3125 -39.209 C 21.1426 -50.5371 25.3906 -60.9863 32.0801 -69.4336 C 35.9863 -66.5039 41.1133 -64.0137 47.1191 -62.1582 C 45.3125 -55.2734 44.2383 -47.5098 43.9453 -39.209 Z M 107.422 -39.209 C 107.129 -47.5098 106.006 -55.2734 104.248 -62.1582 C 110.205 -64.0137 115.332 -66.5039 119.238 -69.4336 C 125.928 -60.9375 130.225 -50.5371 131.055 -39.209 Z M 51.9531 -39.209 C 52.2461 -46.6797 53.2715 -53.8086 54.9316 -60.1562 C 60.1562 -59.082 65.8203 -58.3984 71.7285 -58.2031 L 71.7285 -39.209 Z M 79.5898 -39.209 L 79.5898 -58.2031 C 85.5469 -58.3984 91.2109 -59.082 96.4355 -60.1562 C 98.0469 -53.8086 99.1211 -46.6797 99.3652 -39.209 Z M 20.3125 -31.3477 L 43.9453 -31.3477 C 44.1895 -22.9004 45.3125 -15.0391 47.168 -8.05664 C 41.2109 -6.20117 36.1328 -3.75977 32.2754 -0.878906 C 25.4883 -9.42383 21.1426 -19.9219 20.3125 -31.3477 Z M 51.9531 -31.3477 L 71.7285 -31.3477 L 71.7285 -12.0117 C 65.8691 -11.8164 60.2051 -11.1328 54.9805 -10.0586 C 53.3203 -16.5527 52.2461 -23.8281 51.9531 -31.3477 Z M 79.5898 -12.0117 L 79.5898 -31.3477 L 99.4141 -31.3477 C 99.1211 -23.8281 98.0469 -16.5527 96.3379 -10.1074 C 91.1621 -11.1328 85.498 -11.8164 79.5898 -12.0117 Z M 104.199 -8.05664 C 106.006 -15.0391 107.178 -22.9004 107.422 -31.3477 L 131.055 -31.3477 C 130.225 -19.9219 125.879 -9.42383 119.092 -0.878906 C 115.234 -3.75977 110.156 -6.20117 104.199 -8.05664 Z M 79.5898 -4.19922 C 84.7656 -4.00391 89.5996 -3.51562 94.043 -2.68555 C 90.3809 7.22656 85.2539 14.4531 79.5898 16.7969 Z M 57.3242 -2.68555 C 61.7188 -3.51562 66.5527 -4.00391 71.7285 -4.19922 L 71.7285 16.7969 C 66.1133 14.4531 60.9375 7.22656 57.3242 -2.68555 Z M 37.5 4.83398 C 40.7715 2.58789 44.7754 0.683594 49.4141 -0.732422 C 52.3438 7.27539 56.2988 13.7695 60.9375 18.2129 C 52.0508 15.7227 43.9941 11.0352 37.5 4.83398 Z M 101.904 -0.732422 C 106.592 0.683594 110.596 2.58789 113.867 4.83398 C 107.324 11.0352 99.3164 15.7227 90.4297 18.2129 C 95.0195 13.7695 98.9746 7.27539 101.904 -0.732422 Z"/>
  </g>
  <g id="Regular-L" transform="matrix(1 0 0 1 1374.97 1556)">
   <path d="M 74.8535 28.3203 C 109.668 28.3203 138.477 -0.488281 138.477 -35.2539 C 138.477 -70.0684 109.619 -98.877 74.8047 -98.877 C 40.0391 -98.877 11.2793 -70.0684 11.2793 -35.2539 C 11.2793 -0.488281 40.0879 28.3203 74.8535 28.3203 Z M 36.5234 -76.123 C 43.2617 -82.4707 51.5625 -87.207 60.7422 -89.5996 C 56.0547 -85.1562 52.002 -78.5156 49.0234 -70.2148 C 44.1406 -71.7285 39.9414 -73.6816 36.5234 -76.123 Z M 89.0137 -89.5996 C 98.1934 -87.1582 106.445 -82.4219 113.232 -76.0742 C 109.766 -73.6816 105.566 -71.6797 100.732 -70.2148 C 97.7539 -78.5156 93.7012 -85.1562 89.0137 -89.5996 Z M 56.1035 -68.4082 C 59.9121 -79.0039 65.332 -86.4746 71.2891 -88.6719 L 71.2891 -66.7969 C 65.8203 -66.9922 60.7422 -67.5293 56.1035 -68.4082 Z M 78.4668 -88.6719 C 84.4238 -86.4746 89.8438 -79.0039 93.6035 -68.4082 C 89.0137 -67.5293 83.9355 -66.9922 78.4668 -66.7969 Z M 18.7988 -38.8672 C 19.5801 -50.9766 24.3164 -62.1094 31.6895 -70.9473 C 35.6445 -67.9688 40.8203 -65.4297 46.9238 -63.5254 C 44.9707 -56.2012 43.7988 -47.9004 43.5059 -38.8672 Z M 106.201 -38.8672 C 105.957 -47.9004 104.736 -56.2012 102.783 -63.5254 C 108.887 -65.4297 114.111 -67.9688 118.066 -70.9473 C 125.439 -62.0605 130.127 -50.9766 130.908 -38.8672 Z M 50.8789 -38.8672 C 51.123 -47.0703 52.2949 -54.834 54.0527 -61.6699 C 59.375 -60.5469 65.1855 -59.8633 71.2891 -59.668 L 71.2891 -38.8672 Z M 78.4668 -38.8672 L 78.4668 -59.668 C 84.5215 -59.8633 90.332 -60.5469 95.7031 -61.6699 C 97.4609 -54.834 98.584 -47.0703 98.877 -38.8672 Z M 18.7988 -31.6895 L 43.5059 -31.6895 C 43.75 -22.5098 44.9707 -14.1113 46.9727 -6.68945 C 40.9668 -4.83398 35.791 -2.34375 31.8359 0.634766 C 24.3652 -8.30078 19.5801 -19.4824 18.7988 -31.6895 Z M 50.8301 -31.6895 L 71.2891 -31.6895 L 71.2891 -10.5957 C 65.2344 -10.3516 59.4727 -9.66797 54.1504 -8.54492 C 52.2949 -15.5273 51.123 -23.4375 50.8301 -31.6895 Z M 78.4668 -10.5957 L 78.4668 -31.6895 L 98.877 -31.6895 C 98.6328 -23.4375 97.4609 -15.5273 95.6055 -8.54492 C 90.2832 -9.66797 84.5215 -10.3516 78.4668 -10.5957 Z M 102.783 -6.68945 C 104.736 -14.1113 105.957 -22.5098 106.201 -31.6895 L 130.908 -31.6895 C 130.127 -19.4824 125.342 -8.30078 117.871 0.634766 C 113.965 -2.34375 108.789 -4.83398 102.783 -6.68945 Z M 56.25 -1.80664 C 60.8398 -2.68555 65.8691 -3.22266 71.2891 -3.41797 L 71.2891 18.2129 C 65.3809 16.0156 60.0098 8.54492 56.25 -1.80664 Z M 78.4668 -3.41797 C 83.8867 -3.22266 88.916 -2.68555 93.457 -1.80664 C 89.6973 8.54492 84.3262 16.0156 78.4668 18.2129 Z M 100.684 -0.0488281 C 105.469 1.46484 109.619 3.36914 113.037 5.76172 C 106.348 11.9629 98.1934 16.6016 89.209 18.9941 C 93.75 14.5996 97.7051 8.10547 100.684 -0.0488281 Z M 36.7188 5.76172 C 40.1367 3.36914 44.2871 1.46484 49.0723 -0.0488281 C 52.002 8.10547 55.957 14.5996 60.5469 18.9941 C 51.5625 16.6016 43.3594 11.9629 36.7188 5.76172 Z"/>
  </g>
  <g id="Light-L" transform="matrix(1 0 0 1 1079.18 1556)">
   <path d="M 73.9258 27.3926 C 108.301 27.3926 136.621 -0.927734 136.621 -35.2539 C 136.621 -69.6289 108.252 -97.9492 73.9258 -97.9492 C 39.5508 -97.9492 11.2793 -69.6289 11.2793 -35.2539 C 11.2793 -0.927734 39.5996 27.3926 73.9258 27.3926 Z M 34.668 -76.1719 C 41.9922 -83.252 51.1719 -88.3301 61.377 -90.6738 C 56.1523 -86.2305 51.6602 -79.1016 48.4375 -69.8242 C 43.0176 -71.3867 38.3789 -73.5352 34.668 -76.1719 Z M 86.5234 -90.6738 C 96.7285 -88.3301 105.908 -83.2031 113.232 -76.1719 C 109.473 -73.5352 104.883 -71.3867 99.4629 -69.8242 C 96.2402 -79.1016 91.748 -86.2305 86.5234 -90.6738 Z M 76.8066 -90.332 C 83.5449 -88.4766 89.6973 -80.2734 93.7988 -68.4082 C 88.6719 -67.3828 83.0078 -66.748 76.8066 -66.6016 Z M 54.1016 -68.4082 C 58.2031 -80.2734 64.3555 -88.4766 71.0938 -90.332 L 71.0938 -66.6016 C 64.8926 -66.748 59.2285 -67.3828 54.1016 -68.4082 Z M 17.1875 -38.1348 C 17.8223 -51.0254 22.9004 -62.8906 30.8105 -72.168 C 34.9121 -69.0918 40.3809 -66.5039 46.7773 -64.5996 C 44.6777 -56.8359 43.3594 -47.9492 43.1152 -38.1348 Z M 104.736 -38.1348 C 104.541 -47.9492 103.223 -56.8359 101.074 -64.5996 C 107.52 -66.5039 112.939 -69.043 117.041 -72.1191 C 125 -62.8418 130.029 -51.0254 130.713 -38.1348 Z M 48.9746 -38.1348 C 49.2188 -47.2168 50.4883 -55.7129 52.4902 -63.1348 C 58.2031 -61.8652 64.4531 -61.084 71.0938 -60.9375 L 71.0938 -38.1348 Z M 76.8066 -38.1348 L 76.8066 -60.9375 C 83.3984 -61.084 89.6973 -61.8652 95.4102 -63.1348 C 97.4121 -55.7129 98.6816 -47.2168 98.877 -38.1348 Z M 17.1875 -32.4219 L 43.1152 -32.4219 C 43.3105 -22.4609 44.6289 -13.4277 46.8262 -5.66406 C 40.4785 -3.75977 35.1074 -1.2207 31.0059 1.80664 C 22.9492 -7.51953 17.8711 -19.4336 17.1875 -32.4219 Z M 48.9746 -32.4219 L 71.0938 -32.4219 L 71.0938 -9.27734 C 64.502 -9.13086 58.3008 -8.34961 52.5879 -7.12891 C 50.4883 -14.6973 49.2188 -23.3398 48.9746 -32.4219 Z M 76.8066 -9.27734 L 76.8066 -32.4219 L 98.9258 -32.4219 C 98.6816 -23.3398 97.3633 -14.6973 95.2637 -7.12891 C 89.5996 -8.34961 83.3496 -9.13086 76.8066 -9.27734 Z M 101.074 -5.66406 C 103.223 -13.4277 104.541 -22.4609 104.785 -32.4219 L 130.713 -32.4219 C 130.029 -19.4336 124.951 -7.51953 116.895 1.80664 C 112.793 -1.2207 107.422 -3.75977 101.074 -5.66406 Z M 54.248 -1.80664 C 59.3262 -2.83203 64.9902 -3.4668 71.0938 -3.61328 L 71.0938 19.9707 C 64.4531 18.1152 58.3496 9.81445 54.248 -1.80664 Z M 76.8066 -3.61328 C 82.9102 -3.4668 88.5742 -2.83203 93.6035 -1.80664 C 89.5508 9.81445 83.4473 18.1152 76.8066 19.9707 Z M 34.8633 5.81055 C 38.5742 3.27148 43.1152 1.17188 48.4375 -0.390625 C 51.6113 8.64258 56.0059 15.625 61.0352 20.0684 C 51.0742 17.7246 42.0898 12.6953 34.8633 5.81055 Z M 99.4141 -0.390625 C 104.785 1.17188 109.326 3.27148 113.037 5.81055 C 105.811 12.6953 96.8262 17.7246 86.8164 20.0684 C 91.8945 15.625 96.2402 8.64258 99.4141 -0.390625 Z"/>
  </g>
  <g id="Thin-L" transform="matrix(1 0 0 1 783.693 1556)">
   <path d="M 72.7051 26.1719 C 106.494 26.1719 134.18 -1.51367 134.18 -35.2539 C 134.18 -69.043 106.494 -96.7285 72.7051 -96.7285 C 38.9648 -96.7285 11.2793 -69.043 11.2793 -35.2539 C 11.2793 -1.51367 38.9648 26.1719 72.7051 26.1719 Z M 74.6094 -92.3828 C 82.4219 -91.1133 89.502 -82.0312 93.9941 -68.457 C 88.2324 -67.1875 81.7383 -66.5039 74.6094 -66.4062 Z M 51.416 -68.457 C 55.9082 -82.0312 63.0371 -91.1133 70.8496 -92.3828 L 70.8496 -66.4062 C 63.6719 -66.5039 57.1777 -67.1875 51.416 -68.457 Z M 32.2266 -76.2695 C 40.2832 -84.2773 50.7324 -89.8926 62.3535 -91.9922 C 56.4941 -87.793 51.2695 -80.0293 47.6562 -69.3359 C 41.5039 -71.0449 36.3281 -73.3398 32.2266 -76.2695 Z M 83.1055 -91.9922 C 94.7266 -89.8926 105.127 -84.2285 113.232 -76.2695 C 109.229 -73.4375 104.004 -71.0449 97.8027 -69.3359 C 94.1895 -79.9805 88.9648 -87.793 83.1055 -91.9922 Z M 15.0879 -37.1582 C 15.5273 -51.123 20.9961 -63.8672 29.7363 -73.6328 C 33.9844 -70.5078 39.7461 -67.8711 46.6309 -65.9668 C 44.2383 -57.7637 42.7734 -48.0469 42.627 -37.1582 Z M 102.832 -37.1582 C 102.637 -48.0469 101.221 -57.7637 98.8281 -65.9668 C 105.664 -67.8711 111.426 -70.5078 115.723 -73.6328 C 124.463 -63.8672 129.932 -51.123 130.371 -37.1582 Z M 74.6094 -37.1582 L 74.6094 -62.6465 C 81.9824 -62.793 88.8672 -63.623 95.0684 -64.9902 C 97.3633 -56.8848 98.7793 -47.4121 98.9258 -37.1582 Z M 46.5332 -37.1582 C 46.6797 -47.4121 48.0957 -56.8848 50.3906 -64.9902 C 56.5918 -63.623 63.4766 -62.793 70.8496 -62.6465 L 70.8496 -37.1582 Z M 15.0879 -33.3984 L 42.627 -33.3984 C 42.7734 -22.3633 44.2383 -12.5488 46.6309 -4.24805 C 39.8438 -2.34375 34.1797 0.244141 29.8828 3.32031 C 21.0449 -6.49414 15.5273 -19.3359 15.0879 -33.3984 Z M 46.5332 -33.3984 L 70.8496 -33.3984 L 70.8496 -7.56836 C 63.5742 -7.4707 56.6895 -6.64062 50.5859 -5.22461 C 48.1445 -13.5742 46.6797 -23.2422 46.5332 -33.3984 Z M 74.6094 -7.56836 L 74.6094 -33.3984 L 98.9258 -33.3984 C 98.7793 -23.2422 97.3145 -13.5742 94.873 -5.22461 C 88.7207 -6.64062 81.8848 -7.4707 74.6094 -7.56836 Z M 98.8281 -4.24805 C 101.221 -12.5488 102.686 -22.3633 102.832 -33.3984 L 130.371 -33.3984 C 129.932 -19.3359 124.365 -6.49414 115.527 3.32031 C 111.279 0.244141 105.566 -2.34375 98.8281 -4.24805 Z M 74.6094 -3.85742 C 81.6895 -3.71094 88.0859 -3.02734 93.7988 -1.80664 C 89.3066 11.5234 82.2754 20.8008 74.6094 22.1191 Z M 51.6602 -1.80664 C 57.373 -3.02734 63.7695 -3.71094 70.8496 -3.85742 L 70.8496 22.1191 C 63.1836 20.8008 56.1523 11.5234 51.6602 -1.80664 Z M 32.4219 5.9082 C 36.4746 3.07617 41.6016 0.78125 47.6562 -0.878906 C 51.1719 9.47266 56.1523 17.0898 61.8164 21.3867 C 50.4883 19.1895 40.332 13.6719 32.4219 5.9082 Z M 97.7539 -0.878906 C 103.857 0.78125 108.936 3.07617 113.037 5.9082 C 105.127 13.6719 94.9707 19.1895 83.6426 21.3867 C 89.3066 17.0898 94.2871 9.47266 97.7539 -0.878906 Z"/>
  </g>
  <g id="Ultralight-L" transform="matrix(1 0 0 1 487.616 1556)">
   <path d="M 72.1191 25.5371 C 105.566 25.5371 132.91 -1.80664 132.91 -35.2539 C 132.91 -68.75 105.566 -96.0938 72.1191 -96.0938 C 38.623 -96.0938 11.2793 -68.75 11.2793 -35.2539 C 11.2793 -1.80664 38.623 25.5371 72.1191 25.5371 Z M 73.4863 -93.3594 C 73.5352 -93.3594 73.584 -93.3594 73.6816 -93.3594 C 81.9336 -92.2852 89.4531 -82.8125 94.0918 -68.457 C 88.0371 -67.0898 81.1523 -66.3574 73.4863 -66.2598 Z M 50.0977 -68.457 C 54.7363 -82.8125 62.2559 -92.2852 70.5078 -93.3594 C 70.6055 -93.3594 70.6543 -93.3594 70.752 -93.3594 L 70.752 -66.2598 C 63.0371 -66.3574 56.1523 -67.0898 50.0977 -68.457 Z M 113.135 -76.2207 C 108.838 -73.2422 103.369 -70.8008 96.9238 -69.1406 C 93.1152 -80.5664 87.5 -88.6719 81.25 -92.6758 C 94.1406 -90.625 105.615 -84.3262 114.258 -75.293 Z M 31.0547 -76.2207 L 29.9805 -75.293 C 38.5742 -84.3262 50.0488 -90.625 62.9395 -92.6758 C 56.6895 -88.6719 51.0742 -80.5664 47.2656 -69.1406 C 40.8203 -70.8008 35.3516 -73.2422 31.0547 -76.2207 Z M 101.807 -36.6211 C 101.709 -48.1445 100.146 -58.252 97.6562 -66.6992 C 104.736 -68.6035 110.693 -71.2402 115.039 -74.4141 C 124.17 -64.4043 129.834 -51.1719 130.176 -36.6211 Z M 14.0137 -36.6211 C 14.3555 -51.1719 20.0195 -64.4043 29.1504 -74.4141 C 33.3984 -71.2891 39.4043 -68.6035 46.5332 -66.6992 C 44.043 -58.252 42.4805 -48.1445 42.3828 -36.6211 Z M 45.2637 -36.6211 C 45.4102 -47.5098 46.875 -57.5195 49.3164 -65.9668 C 55.7617 -64.502 62.9883 -63.623 70.752 -63.5254 L 70.752 -36.6211 Z M 73.4863 -36.6211 L 73.4863 -63.5254 C 81.2012 -63.623 88.4277 -64.502 94.873 -65.9668 C 97.3145 -57.5195 98.7793 -47.5098 98.9258 -36.6211 Z M 14.0137 -33.8867 L 42.3828 -33.8867 C 42.4805 -22.2656 43.9941 -12.0605 46.5332 -3.51562 C 39.5508 -1.66016 33.6914 0.976562 29.3457 4.05273 C 20.1172 -5.95703 14.3555 -19.2871 14.0137 -33.8867 Z M 45.2637 -33.8867 L 70.752 -33.8867 L 70.752 -6.68945 C 63.0371 -6.5918 55.9082 -5.71289 49.5605 -4.29688 C 46.9238 -12.9883 45.3613 -23.1934 45.2637 -33.8867 Z M 73.4863 -6.68945 L 73.4863 -33.8867 L 98.9258 -33.8867 C 98.8281 -23.1934 97.2656 -12.9883 94.6777 -4.29688 C 88.2812 -5.71289 81.1523 -6.5918 73.4863 -6.68945 Z M 97.6562 -3.51562 C 100.195 -12.0605 101.709 -22.2656 101.807 -33.8867 L 130.176 -33.8867 C 129.834 -19.2871 124.121 -5.95703 114.844 4.05273 C 110.498 0.976562 104.639 -1.66016 97.6562 -3.51562 Z M 73.4863 -3.95508 C 81.0547 -3.85742 87.8906 -3.125 93.8965 -1.80664 C 89.5996 11.1816 82.959 20.5078 75.5859 22.7539 C 74.8535 22.8027 74.1699 22.8027 73.4863 22.8516 Z M 68.6523 22.7539 C 61.2305 20.5078 54.5898 11.1816 50.293 -1.80664 C 56.3477 -3.125 63.1348 -3.85742 70.752 -3.95508 L 70.752 22.8516 C 70.0195 22.8027 69.3359 22.8027 68.6523 22.7539 Z M 31.1523 5.95703 C 35.3516 2.97852 40.8203 0.585938 47.2656 -1.12305 C 50.9277 9.96094 56.2988 17.8711 62.2559 22.0215 C 50.2441 19.9707 39.4531 14.209 31.1523 5.95703 Z M 96.9238 -1.12305 C 103.369 0.585938 108.789 2.97852 113.037 5.95703 C 104.736 14.209 93.9453 19.9707 81.9336 22.0215 C 87.8906 17.8711 93.2617 9.96094 96.9238 -1.12305 Z"/>
  </g>
  <g id="Black-M" transform="matrix(1 0 0 1 2870.97 1126)">
   <path d="M 62.4023 18.457 C 91.9922 18.457 116.113 -5.61523 116.113 -35.2051 C 116.113 -64.7949 91.9922 -88.8672 62.4023 -88.8672 C 32.8125 -88.8672 8.74023 -64.7949 8.74023 -35.2051 C 8.74023 -5.61523 32.8125 18.457 62.4023 18.457 Z M 75.6348 -72.7539 C 82.2754 -70.4102 88.0859 -66.3086 92.627 -61.084 C 90.6738 -59.8145 88.0859 -58.6914 85.0098 -57.8125 C 82.7148 -63.9648 79.4922 -69.1406 75.6348 -72.7539 Z M 32.2266 -61.084 C 36.7188 -66.3086 42.5781 -70.4102 49.1699 -72.7539 C 45.3613 -69.1406 42.1387 -63.9648 39.8438 -57.8125 C 36.7676 -58.7402 34.1797 -59.8633 32.2266 -61.084 Z M 48.877 -55.8105 C 51.2695 -61.7188 54.4922 -66.3574 57.959 -68.5547 L 57.959 -54.9316 C 54.834 -55.0781 51.7578 -55.3711 48.877 -55.8105 Z M 66.8457 -68.5547 C 70.3613 -66.3574 73.584 -61.7188 75.9277 -55.8105 C 73.0469 -55.3711 70.0195 -55.0781 66.8457 -54.9316 Z M 88.7207 -39.6973 C 88.5254 -43.0664 88.0859 -46.2891 87.4512 -49.3652 C 91.4551 -50.5859 94.9219 -52.1484 97.5098 -53.9551 C 99.8535 -49.6094 101.416 -44.7754 102.002 -39.6973 Z M 22.8516 -39.6973 C 23.4375 -44.7754 25 -49.6094 27.2949 -53.9551 C 29.9316 -52.1484 33.3496 -50.5859 37.4023 -49.3652 C 36.7676 -46.2891 36.3281 -43.0664 36.084 -39.6973 Z M 66.8457 -39.6973 L 66.8457 -46.0449 C 70.9473 -46.2402 74.8535 -46.6309 78.5645 -47.2656 C 79.0527 -44.8242 79.4434 -42.2852 79.6875 -39.6973 Z M 45.166 -39.6973 C 45.3613 -42.2852 45.752 -44.8242 46.2891 -47.2656 C 49.9512 -46.6309 53.9062 -46.2402 57.959 -46.0449 L 57.959 -39.6973 Z M 22.8516 -30.8105 L 36.084 -30.8105 C 36.2793 -27.3926 36.7188 -24.0723 37.4023 -20.9473 C 33.3984 -19.6777 29.9805 -18.1641 27.3438 -16.3574 C 25 -20.752 23.3887 -25.6348 22.8516 -30.8105 Z M 45.1172 -30.8105 L 57.959 -30.8105 L 57.959 -24.2188 C 53.9062 -24.0723 49.9512 -23.6328 46.2891 -22.998 C 45.752 -25.5371 45.3613 -28.1738 45.1172 -30.8105 Z M 66.8457 -24.2188 L 66.8457 -30.8105 L 79.6875 -30.8105 C 79.4922 -28.1738 79.1016 -25.5371 78.5156 -22.998 C 74.8535 -23.6328 70.9473 -24.0723 66.8457 -24.2188 Z M 87.4512 -20.9473 C 88.0859 -24.0723 88.5254 -27.3926 88.7695 -30.8105 L 102.002 -30.8105 C 101.416 -25.6348 99.8535 -20.752 97.4609 -16.3574 C 94.873 -18.1641 91.4551 -19.6777 87.4512 -20.9473 Z M 48.9258 -14.4531 C 51.8066 -14.8926 54.834 -15.1855 57.959 -15.332 L 57.959 -1.85547 C 54.4922 -4.00391 51.2695 -8.59375 48.9258 -14.4531 Z M 66.8457 -15.332 C 69.9707 -15.1855 73.0469 -14.8926 75.8789 -14.4531 C 73.5352 -8.64258 70.3125 -4.05273 66.8457 -1.85547 Z M 32.2754 -9.22852 C 34.2285 -10.4492 36.8164 -11.5723 39.8438 -12.5 C 42.1387 -6.34766 45.3613 -1.26953 49.1699 2.34375 C 42.5781 0 36.7676 -4.05273 32.2754 -9.22852 Z M 85.0098 -12.5 C 88.0371 -11.5723 90.625 -10.4492 92.5293 -9.22852 C 88.0371 -4.05273 82.2754 0 75.6836 2.34375 C 79.4922 -1.26953 82.7148 -6.34766 85.0098 -12.5 Z"/>
  </g>
  <g id="Heavy-M" transform="matrix(1 0 0 1 2575.19 1126)">
   <path d="M 61.5234 17.5293 C 90.5273 17.5293 114.258 -6.20117 114.258 -35.2051 C 114.258 -64.2578 90.5273 -87.9883 61.4746 -87.9883 C 32.4707 -87.9883 8.74023 -64.2578 8.74023 -35.2051 C 8.74023 -6.20117 32.4707 17.5293 61.5234 17.5293 Z M 31.4941 -62.5 C 36.1328 -67.5781 41.9922 -71.4844 48.6328 -73.7305 C 44.9219 -70.166 41.748 -65.0879 39.502 -58.9355 C 36.3281 -59.9121 33.5938 -61.1328 31.4941 -62.5 Z M 74.3652 -73.7305 C 81.0059 -71.4844 86.8652 -67.5781 91.5039 -62.5 C 89.4043 -61.084 86.7188 -59.9121 83.5449 -58.9355 C 81.25 -65.0391 78.0762 -70.166 74.3652 -73.7305 Z M 47.9004 -57.0312 C 50.3418 -63.2812 53.7109 -68.1152 57.373 -70.2637 L 57.373 -56.1035 C 54.0527 -56.25 50.8789 -56.543 47.9004 -57.0312 Z M 65.6738 -70.2637 C 69.2871 -68.1152 72.6562 -63.2812 75.0977 -57.0312 C 72.1191 -56.543 68.9453 -56.25 65.6738 -56.1035 Z M 21.0938 -39.4043 C 21.7285 -45.4102 23.6816 -51.0254 26.6602 -55.957 C 29.3457 -54.0527 32.959 -52.3438 37.1582 -51.0742 C 36.377 -47.4121 35.791 -43.5059 35.5957 -39.4043 Z M 87.4023 -39.4043 C 87.207 -43.5059 86.6699 -47.4121 85.8398 -51.0742 C 90.0391 -52.3438 93.6523 -54.0527 96.3379 -55.957 C 99.3164 -51.0254 101.27 -45.4102 101.904 -39.4043 Z M 65.6738 -39.4043 L 65.6738 -47.8027 C 69.8242 -47.9492 73.8281 -48.3887 77.5391 -49.0723 C 78.2227 -45.9961 78.7109 -42.7246 78.9551 -39.4043 Z M 44.043 -39.4043 C 44.2871 -42.7246 44.7754 -45.9961 45.459 -49.0723 C 49.2188 -48.3887 53.2227 -47.9492 57.373 -47.8027 L 57.373 -39.4043 Z M 21.0938 -31.1035 L 35.5957 -31.1035 C 35.791 -26.9531 36.3281 -22.9492 37.1582 -19.2383 C 33.0078 -17.9199 29.4434 -16.2598 26.709 -14.3555 C 23.6816 -19.3359 21.7285 -25.0488 21.0938 -31.1035 Z M 44.043 -31.1035 L 57.373 -31.1035 L 57.373 -22.5098 C 53.2227 -22.3145 49.2188 -21.875 45.459 -21.1914 C 44.7754 -24.3652 44.2383 -27.6855 44.043 -31.1035 Z M 65.6738 -22.5098 L 65.6738 -31.1035 L 78.9551 -31.1035 C 78.7598 -27.6855 78.2227 -24.3652 77.5391 -21.2402 C 73.7793 -21.875 69.7754 -22.3145 65.6738 -22.5098 Z M 85.8398 -19.2383 C 86.6699 -22.9492 87.207 -26.9531 87.4512 -31.1035 L 101.904 -31.1035 C 101.27 -25.0488 99.3164 -19.3359 96.2891 -14.3555 C 93.6035 -16.2598 89.9902 -17.9199 85.8398 -19.2383 Z M 47.9492 -13.2324 C 50.9277 -13.7207 54.0527 -14.0625 57.373 -14.1602 L 57.373 -0.146484 C 53.7109 -2.29492 50.3906 -7.08008 47.9492 -13.2324 Z M 65.6738 -14.1602 C 68.9453 -14.0625 72.0703 -13.7207 75.0488 -13.2812 C 72.6074 -7.08008 69.2871 -2.29492 65.6738 -0.146484 Z M 31.5918 -7.86133 C 33.6426 -9.22852 36.377 -10.4004 39.502 -11.377 C 41.7969 -5.27344 44.9219 -0.244141 48.584 3.27148 C 42.041 1.02539 36.1816 -2.83203 31.5918 -7.86133 Z M 83.4961 -11.377 C 86.6699 -10.4004 89.3555 -9.22852 91.4062 -7.86133 C 86.8164 -2.83203 80.957 1.02539 74.4141 3.27148 C 78.125 -0.244141 81.2012 -5.27344 83.4961 -11.377 Z"/>
  </g>
  <g id="Bold-M" transform="matrix(1 0 0 1 2279.5 1126)">
   <path d="M 60.498 16.5039 C 88.8672 16.5039 112.207 -6.83594 112.207 -35.2051 C 112.207 -63.623 88.8672 -86.9629 60.4492 -86.9629 C 32.0312 -86.9629 8.74023 -63.623 8.74023 -35.2051 C 8.74023 -6.83594 32.0801 16.5039 60.498 16.5039 Z M 30.7129 -64.0137 C 35.4492 -68.9453 41.4062 -72.6562 47.998 -74.8047 C 44.3848 -71.2891 41.3574 -66.2598 39.1113 -60.2051 C 35.791 -61.2305 32.959 -62.5 30.7129 -64.0137 Z M 72.9492 -74.7559 C 79.5898 -72.6562 85.498 -68.8965 90.2344 -64.0137 C 87.9883 -62.5 85.1562 -61.2305 81.8848 -60.1562 C 79.6387 -66.2598 76.5625 -71.2402 72.9492 -74.7559 Z M 46.7773 -58.3984 C 49.3164 -65.0391 52.832 -70.0684 56.6406 -72.1191 L 56.6406 -57.373 C 53.1738 -57.5195 49.8535 -57.8613 46.7773 -58.3984 Z M 64.3066 -72.1191 C 68.1152 -70.0684 71.6309 -65.0391 74.1699 -58.3984 C 71.0938 -57.8613 67.7734 -57.5195 64.3066 -57.373 Z M 19.1895 -39.0625 C 19.8242 -46.0938 22.2656 -52.6367 26.0254 -58.2031 C 28.8086 -56.1035 32.5684 -54.3457 36.9141 -52.9785 C 35.8887 -48.6816 35.2539 -43.9941 35.0098 -39.0625 Z M 85.9375 -39.0625 C 85.6934 -43.9941 85.0586 -48.6816 84.0332 -52.9785 C 88.4277 -54.3457 92.1387 -56.1035 94.9219 -58.2031 C 98.6816 -52.5879 101.123 -46.0938 101.807 -39.0625 Z M 42.8223 -39.0625 C 43.0664 -43.2617 43.6523 -47.3145 44.5312 -51.0742 C 48.3398 -50.3418 52.4414 -49.9023 56.6406 -49.7559 L 56.6406 -39.0625 Z M 64.3066 -39.0625 L 64.3066 -49.7559 C 68.5547 -49.9023 72.6074 -50.3418 76.416 -51.0742 C 77.2949 -47.3145 77.9297 -43.2617 78.1738 -39.0625 Z M 19.1406 -31.4453 L 35.0098 -31.4453 C 35.2539 -26.416 35.8887 -21.6797 36.9629 -17.334 C 32.6172 -15.9668 28.9062 -14.209 26.123 -12.1582 C 22.3145 -17.7734 19.8242 -24.3652 19.1406 -31.4453 Z M 42.7734 -31.4453 L 56.6406 -31.4453 L 56.6406 -20.5566 C 52.4414 -20.3613 48.3398 -19.9219 44.5801 -19.1895 C 43.6523 -23.0469 43.0176 -27.1973 42.7734 -31.4453 Z M 64.3066 -20.5566 L 64.3066 -31.4453 L 78.1738 -31.4453 C 77.9297 -27.1973 77.2949 -23.0469 76.3672 -19.1895 C 72.6074 -19.9219 68.5547 -20.3613 64.3066 -20.5566 Z M 84.0332 -17.334 C 85.0586 -21.6797 85.7422 -26.416 85.9375 -31.4453 L 101.807 -31.4453 C 101.123 -24.3652 98.6816 -17.7734 94.873 -12.1582 C 92.041 -14.209 88.3301 -15.9668 84.0332 -17.334 Z M 46.8262 -11.9141 C 49.9023 -12.4023 53.2227 -12.7441 56.6406 -12.8906 L 56.6406 1.70898 C 52.8809 -0.341797 49.3652 -5.32227 46.8262 -11.9141 Z M 64.3066 -12.8906 C 67.7734 -12.7441 71.0449 -12.4023 74.1211 -11.9141 C 71.582 -5.32227 68.1152 -0.390625 64.3066 1.70898 Z M 30.8594 -6.34766 C 33.0566 -7.8125 35.8887 -9.08203 39.1113 -10.1074 C 41.3574 -4.10156 44.3848 0.830078 47.9492 4.29688 C 41.4062 2.19727 35.5469 -1.51367 30.8594 -6.34766 Z M 81.8359 -10.1074 C 85.1074 -9.08203 87.8906 -7.8125 90.1367 -6.34766 C 85.4004 -1.51367 79.541 2.19727 72.998 4.29688 C 76.5625 0.830078 79.5898 -4.10156 81.8359 -10.1074 Z"/>
  </g>
  <g id="Semibold-M" transform="matrix(1 0 0 1 1983.5 1126)">
   <path d="M 59.7656 15.8203 C 87.7441 15.8203 110.791 -7.27539 110.791 -35.2539 C 110.791 -63.2324 87.6953 -86.2793 59.7656 -86.2793 C 31.7871 -86.2793 8.74023 -63.2324 8.74023 -35.2539 C 8.74023 -7.27539 31.7871 15.8203 59.7656 15.8203 Z M 30.2246 -65.0879 C 35.0098 -69.8242 40.9668 -73.4863 47.5586 -75.4883 C 44.043 -72.0215 41.0645 -67.0898 38.8184 -61.0352 C 35.4492 -62.1094 32.5684 -63.4766 30.2246 -65.0879 Z M 72.0215 -75.4883 C 78.6133 -73.4375 84.5215 -69.8242 89.3066 -65.0391 C 87.0117 -63.4766 84.082 -62.1094 80.7617 -61.0352 C 78.5156 -67.041 75.5371 -72.0215 72.0215 -75.4883 Z M 45.9961 -59.3262 C 48.6328 -66.2598 52.2461 -71.4355 56.2012 -73.3887 L 56.2012 -58.252 C 52.5879 -58.3984 49.1699 -58.7402 45.9961 -59.3262 Z M 63.3789 -73.3887 C 67.334 -71.4355 70.9473 -66.2598 73.5352 -59.3262 C 70.4102 -58.7402 66.9922 -58.3984 63.3789 -58.252 Z M 17.8223 -38.8672 C 18.5059 -46.582 21.2891 -53.7109 25.6348 -59.7168 C 28.5156 -57.5195 32.3242 -55.7129 36.7676 -54.2969 C 35.5957 -49.5605 34.8633 -44.3848 34.6191 -38.8672 Z M 84.9121 -38.8672 C 84.7168 -44.3848 83.9355 -49.5605 82.8125 -54.2969 C 87.2559 -55.7129 91.0645 -57.5195 93.9453 -59.668 C 98.2422 -53.7109 101.025 -46.5332 101.709 -38.8672 Z M 63.3789 -38.8672 L 63.3789 -51.0742 C 67.6758 -51.2695 71.8262 -51.709 75.6348 -52.4902 C 76.6602 -48.2422 77.3438 -43.6523 77.5879 -38.8672 Z M 41.9434 -38.8672 C 42.1875 -43.6523 42.8711 -48.2422 43.8965 -52.4902 C 47.7539 -51.709 51.9043 -51.2695 56.2012 -51.0742 L 56.2012 -38.8672 Z M 17.8223 -31.6895 L 34.6191 -31.6895 C 34.8633 -26.0742 35.5957 -20.8008 36.7676 -16.0156 C 32.373 -14.5996 28.6133 -12.793 25.7324 -10.6445 C 21.3379 -16.6992 18.5059 -23.877 17.8223 -31.6895 Z M 41.9434 -31.6895 L 56.2012 -31.6895 L 56.2012 -19.1895 C 51.9043 -19.043 47.7539 -18.5547 43.9453 -17.8223 C 42.8711 -22.1191 42.1875 -26.8066 41.9434 -31.6895 Z M 63.3789 -19.1895 L 63.3789 -31.6895 L 77.5879 -31.6895 C 77.3926 -26.8066 76.6602 -22.1191 75.5859 -17.8223 C 71.7773 -18.5547 67.6758 -19.043 63.3789 -19.1895 Z M 82.7637 -16.0156 C 83.9844 -20.8008 84.7168 -26.0742 84.9121 -31.6895 L 101.709 -31.6895 C 101.074 -23.877 98.1934 -16.6992 93.8477 -10.6445 C 90.9668 -12.793 87.207 -14.5996 82.7637 -16.0156 Z M 46.0938 -10.9863 C 49.2188 -11.5234 52.5879 -11.8652 56.2012 -12.0117 L 56.2012 2.97852 C 52.2461 0.976562 48.6816 -4.15039 46.0938 -10.9863 Z M 63.3789 -12.0117 C 66.9434 -11.8652 70.3125 -11.5234 73.4863 -10.9863 C 70.8984 -4.15039 67.2852 0.976562 63.3789 2.97852 Z M 30.3223 -5.27344 C 32.666 -6.88477 35.5469 -8.20312 38.8672 -9.22852 C 41.0645 -3.32031 44.043 1.5625 47.5098 4.98047 C 40.9668 2.97852 35.1074 -0.585938 30.3223 -5.27344 Z M 80.7129 -9.22852 C 84.0332 -8.20312 86.9141 -6.88477 89.209 -5.27344 C 84.4238 -0.585938 78.5645 2.97852 72.0703 4.98047 C 75.5371 1.5625 78.4668 -3.32031 80.7129 -9.22852 Z"/>
  </g>
  <g id="Medium-M" transform="matrix(1 0 0 1 1687.3 1126)">
   <path d="M 59.2285 15.2344 C 86.9141 15.2344 109.766 -7.61719 109.766 -35.2539 C 109.766 -62.8906 86.8652 -85.7422 59.1797 -85.7422 C 31.543 -85.7422 8.74023 -62.8906 8.74023 -35.2539 C 8.74023 -7.61719 31.5918 15.2344 59.2285 15.2344 Z M 29.834 -65.8691 C 34.668 -70.5078 40.625 -74.0723 47.2168 -76.0742 C 43.75 -72.6074 40.8203 -67.6758 38.623 -61.7188 C 35.2051 -62.793 32.2266 -64.209 29.834 -65.8691 Z M 71.2891 -76.0254 C 77.8809 -74.0234 83.7891 -70.5078 88.623 -65.8203 C 86.2305 -64.1602 83.3008 -62.793 79.8828 -61.6699 C 77.6855 -67.6758 74.7559 -72.5586 71.2891 -76.0254 Z M 45.4102 -60.0098 C 48.0957 -67.1875 51.7578 -72.4609 55.8105 -74.3652 L 55.8105 -58.9355 C 52.0996 -59.082 48.6328 -59.4238 45.4102 -60.0098 Z M 62.6465 -74.3652 C 66.6992 -72.4609 70.4102 -67.1875 73.0469 -60.0098 C 69.873 -59.4238 66.3574 -59.082 62.6465 -58.9355 Z M 16.7969 -38.6719 C 17.4805 -46.9238 20.5566 -54.541 25.3418 -60.791 C 28.2715 -58.5938 32.1289 -56.6895 36.6211 -55.2734 C 35.3516 -50.2441 34.5703 -44.6289 34.3262 -38.6719 Z M 84.1309 -38.6719 C 83.9355 -44.6289 83.1055 -50.2441 81.8359 -55.2734 C 86.3281 -56.6895 90.1855 -58.5938 93.1152 -60.791 C 97.9004 -54.541 100.977 -46.9238 101.66 -38.6719 Z M 62.6465 -38.6719 L 62.6465 -52.0996 C 66.9922 -52.2461 71.1914 -52.7344 75.0488 -53.5156 C 76.1719 -48.9746 76.9531 -43.9453 77.1484 -38.6719 Z M 41.3086 -38.6719 C 41.5527 -43.9453 42.2852 -48.9746 43.4082 -53.5156 C 47.3145 -52.7344 51.4648 -52.2461 55.8105 -52.0996 L 55.8105 -38.6719 Z M 16.7969 -31.8359 L 34.3262 -31.8359 C 34.5215 -25.7812 35.3516 -20.1172 36.6699 -14.9902 C 32.2266 -13.5742 28.3691 -11.7188 25.4395 -9.57031 C 20.6055 -15.8691 17.4805 -23.5352 16.7969 -31.8359 Z M 41.3086 -31.8359 L 55.8105 -31.8359 L 55.8105 -18.1641 C 51.5137 -18.0176 47.3145 -17.5293 43.457 -16.748 C 42.2852 -21.3867 41.5527 -26.5137 41.3086 -31.8359 Z M 62.6465 -18.1641 L 62.6465 -31.8359 L 77.1973 -31.8359 C 76.9531 -26.5137 76.1719 -21.3867 75 -16.748 C 71.1426 -17.5293 66.9922 -18.0176 62.6465 -18.1641 Z M 81.8359 -14.9902 C 83.1055 -20.1172 83.9355 -25.7812 84.1797 -31.8359 L 101.66 -31.8359 C 100.977 -23.5352 97.8516 -15.8691 93.0176 -9.57031 C 90.0879 -11.7188 86.2793 -13.5742 81.8359 -14.9902 Z M 62.6465 -11.3281 C 66.3574 -11.1816 69.7754 -10.8398 72.998 -10.2539 C 70.3613 -3.22266 66.6992 2.00195 62.6465 3.90625 Z M 45.5078 -10.2539 C 48.6816 -10.8398 52.1484 -11.1816 55.8105 -11.3281 L 55.8105 3.90625 C 51.8066 2.00195 48.1445 -3.22266 45.5078 -10.2539 Z M 29.9805 -4.54102 C 32.373 -6.15234 35.3027 -7.51953 38.6719 -8.59375 C 40.8203 -2.73438 43.75 2.09961 47.1191 5.51758 C 40.625 3.56445 34.7656 0.0488281 29.9805 -4.54102 Z M 79.834 -8.59375 C 83.2031 -7.51953 86.1328 -6.15234 88.5254 -4.54102 C 83.6914 0.0488281 77.832 3.56445 71.3379 5.51758 C 74.7559 2.09961 77.6367 -2.73438 79.834 -8.59375 Z"/>
  </g>
  <g id="Regular-M" transform="matrix(1 0 0 1 1391.3 1126)">
   <path d="M 58.5449 14.5508 C 85.791 14.5508 108.35 -8.05664 108.35 -35.2539 C 108.35 -62.5 85.7422 -85.0586 58.4961 -85.0586 C 31.2988 -85.0586 8.74023 -62.5 8.74023 -35.2539 C 8.74023 -8.05664 31.3477 14.5508 58.5449 14.5508 Z M 29.3457 -66.8945 C 34.2285 -71.4355 40.1855 -74.8535 46.7285 -76.7578 C 43.3594 -73.3398 40.4785 -68.5059 38.3301 -62.5488 C 34.8633 -63.6719 31.8359 -65.1367 29.3457 -66.8945 Z M 70.4102 -76.709 C 76.9043 -74.8047 82.8125 -71.3867 87.7441 -66.8457 C 85.2539 -65.0879 82.2266 -63.6719 78.7598 -62.5488 C 76.6113 -68.457 73.7305 -73.291 70.4102 -76.709 Z M 44.6289 -60.9375 C 47.3633 -68.4082 51.1719 -73.7793 55.3711 -75.6348 L 55.3711 -59.8145 C 51.5137 -59.9609 47.9492 -60.3516 44.6289 -60.9375 Z M 61.7676 -75.6348 C 65.918 -73.7793 69.7266 -68.4082 72.4609 -60.9375 C 69.1406 -60.3516 65.5762 -59.9609 61.7676 -59.8145 Z M 15.4785 -38.4766 C 16.1621 -47.3633 19.6289 -55.6152 25 -62.2559 C 28.0273 -59.9609 31.9336 -58.0566 36.4746 -56.5918 C 35.0586 -51.123 34.1797 -45.0195 33.9355 -38.4766 Z M 83.1543 -38.4766 C 82.9102 -45.0195 82.0312 -51.123 80.6152 -56.5918 C 85.1562 -58.0566 89.0625 -59.9609 92.041 -62.207 C 97.4609 -55.6152 100.928 -47.3633 101.611 -38.4766 Z M 61.7676 -38.4766 L 61.7676 -53.418 C 66.1621 -53.5645 70.3613 -54.1016 74.3164 -54.9316 C 75.5859 -49.9023 76.3672 -44.3359 76.6113 -38.4766 Z M 40.4785 -38.4766 C 40.7227 -44.3359 41.5527 -49.9023 42.7734 -54.9316 C 46.7285 -54.1016 50.9277 -53.5645 55.3711 -53.418 L 55.3711 -38.4766 Z M 15.4785 -32.0801 L 33.9355 -32.0801 C 34.1797 -25.3906 35.0586 -19.2383 36.4746 -13.7207 C 31.9824 -12.2559 28.125 -10.3516 25.1465 -8.10547 C 19.6777 -14.7949 16.1621 -23.0957 15.4785 -32.0801 Z M 40.4785 -32.0801 L 55.3711 -32.0801 L 55.3711 -16.8457 C 50.9766 -16.6992 46.7773 -16.1621 42.8711 -15.3809 C 41.5527 -20.459 40.6738 -26.123 40.4785 -32.0801 Z M 61.7676 -16.8457 L 61.7676 -32.0801 L 76.6113 -32.0801 C 76.416 -26.123 75.5371 -20.459 74.2188 -15.3809 C 70.3613 -16.1621 66.1133 -16.6992 61.7676 -16.8457 Z M 80.6152 -13.7207 C 82.0312 -19.2383 82.9102 -25.3906 83.1543 -32.0801 L 101.611 -32.0801 C 100.928 -23.0957 97.4121 -14.7949 91.9434 -8.10547 C 88.9648 -10.3516 85.1074 -12.2559 80.6152 -13.7207 Z M 61.7676 -10.4492 C 65.5273 -10.3027 69.0918 -9.96094 72.3633 -9.32617 C 69.6289 -2.05078 65.8691 3.32031 61.7676 5.17578 Z M 44.7266 -9.32617 C 47.998 -9.96094 51.5625 -10.3027 55.3711 -10.4492 L 55.3711 5.17578 C 51.2207 3.32031 47.4609 -2.05078 44.7266 -9.32617 Z M 78.7109 -7.76367 C 82.1289 -6.64062 85.1074 -5.22461 87.5977 -3.51562 C 82.7148 0.927734 76.9043 4.29688 70.459 6.20117 C 73.7305 2.83203 76.5625 -1.95312 78.7109 -7.76367 Z M 29.4922 -3.51562 C 31.9824 -5.22461 34.9609 -6.64062 38.3789 -7.76367 C 40.5273 -1.95312 43.3594 2.83203 46.6797 6.20117 C 40.2344 4.29688 34.375 0.927734 29.4922 -3.51562 Z"/>
  </g>
  <g id="Light-M" transform="matrix(1 0 0 1 1095.42 1126)">
   <path d="M 57.7148 13.7207 C 84.5215 13.7207 106.689 -8.44727 106.689 -35.2539 C 106.689 -62.1094 84.5215 -84.2285 57.666 -84.2285 C 30.8594 -84.2285 8.74023 -62.1094 8.74023 -35.2539 C 8.74023 -8.44727 30.9082 13.7207 57.7148 13.7207 Z M 27.6855 -66.9434 C 33.1055 -72.0703 39.8438 -75.8789 47.2656 -77.7344 C 43.457 -74.2676 40.1855 -68.9453 37.793 -62.207 C 33.8379 -63.3789 30.4199 -64.9902 27.6855 -66.9434 Z M 68.1641 -77.7344 C 75.6348 -75.8301 82.3242 -72.0703 87.7441 -66.9434 C 84.9609 -64.9902 81.5918 -63.3789 77.6367 -62.207 C 75.2441 -68.9453 71.9727 -74.2676 68.1641 -77.7344 Z M 42.8223 -60.9375 C 45.8496 -69.5801 50.293 -75.5859 55.1758 -77.1973 L 55.1758 -59.6191 C 50.6836 -59.7656 46.582 -60.2051 42.8223 -60.9375 Z M 60.2539 -77.1973 C 65.1367 -75.5859 69.5801 -69.5801 72.6074 -60.9375 C 68.8477 -60.2051 64.7461 -59.7656 60.2539 -59.6191 Z M 14.0625 -37.793 C 14.5996 -47.4609 18.3594 -56.2988 24.2676 -63.3301 C 27.3926 -60.9375 31.4941 -58.9844 36.3281 -57.5195 C 34.7656 -51.709 33.7891 -45.0684 33.5938 -37.793 Z M 81.8359 -37.793 C 81.6406 -45.0684 80.6641 -51.709 79.1016 -57.5195 C 83.9355 -58.9844 88.0371 -60.9375 91.1621 -63.2812 C 97.0703 -56.2988 100.83 -47.4609 101.367 -37.793 Z M 60.2539 -37.793 L 60.2539 -54.5898 C 65.1367 -54.7363 69.8242 -55.2734 74.0723 -56.2012 C 75.5371 -50.6836 76.416 -44.4336 76.6113 -37.793 Z M 38.8184 -37.793 C 39.0137 -44.4336 39.9414 -50.6836 41.3574 -56.2012 C 45.6543 -55.2734 50.293 -54.7363 55.1758 -54.5898 L 55.1758 -37.793 Z M 14.0625 -32.7148 L 33.5938 -32.7148 C 33.7891 -25.3906 34.7656 -18.6523 36.3281 -12.793 C 31.5918 -11.3281 27.4902 -9.375 24.4141 -7.08008 C 18.4082 -14.1113 14.5996 -22.998 14.0625 -32.7148 Z M 38.8184 -32.7148 L 55.1758 -32.7148 L 55.1758 -15.6738 C 50.3418 -15.5762 45.7031 -14.9902 41.4551 -14.1113 C 39.9414 -19.6777 38.9648 -26.0742 38.8184 -32.7148 Z M 60.2539 -15.6738 L 60.2539 -32.7148 L 76.6602 -32.7148 C 76.4648 -26.0742 75.4883 -19.6777 73.9746 -14.1113 C 69.7266 -14.9902 65.1367 -15.5762 60.2539 -15.6738 Z M 79.1016 -12.793 C 80.6641 -18.6523 81.6406 -25.3906 81.8359 -32.7148 L 101.367 -32.7148 C 100.83 -22.998 97.0215 -14.1113 91.0156 -7.08008 C 87.9395 -9.375 83.8379 -11.3281 79.1016 -12.793 Z M 60.2539 -10.6445 C 64.6973 -10.498 68.7988 -10.0586 72.5098 -9.32617 C 69.4824 -0.878906 65.0879 5.17578 60.2539 6.78711 Z M 42.9199 -9.32617 C 46.6797 -10.0586 50.7324 -10.498 55.1758 -10.6445 L 55.1758 6.78711 C 50.3418 5.17578 45.9473 -0.878906 42.9199 -9.32617 Z M 77.6367 -8.05664 C 81.4941 -6.88477 84.8633 -5.32227 87.5977 -3.4668 C 82.2266 1.5625 75.6348 5.32227 68.3594 7.17773 C 72.0703 3.71094 75.2441 -1.51367 77.6367 -8.05664 Z M 27.832 -3.4668 C 30.5664 -5.32227 33.9355 -6.88477 37.8418 -8.05664 C 40.1855 -1.51367 43.3594 3.71094 47.0703 7.17773 C 39.7949 5.32227 33.2031 1.5625 27.832 -3.4668 Z"/>
  </g>
  <g id="Thin-M" transform="matrix(1 0 0 1 799.806 1126)">
   <path d="M 56.6406 12.5977 C 82.9102 12.5977 104.492 -8.98438 104.492 -35.2539 C 104.492 -61.5723 82.9102 -83.1543 56.5918 -83.1543 C 30.3223 -83.1543 8.74023 -61.5723 8.74023 -35.2539 C 8.74023 -8.98438 30.3223 12.5977 56.6406 12.5977 Z M 40.4297 -60.9375 C 43.8477 -71.1426 49.1211 -77.9785 54.9805 -79.1016 L 54.9805 -59.4238 C 49.6094 -59.5215 44.7754 -60.0586 40.4297 -60.9375 Z M 58.3008 -79.1016 C 64.1113 -77.9785 69.3848 -71.1426 72.8027 -60.9375 C 68.5059 -60.0586 63.623 -59.5215 58.3008 -59.4238 Z M 25.4883 -66.9922 C 31.5918 -72.998 39.4043 -77.2461 48.0957 -78.9551 C 43.7012 -75.6348 39.7949 -69.7266 37.1094 -61.7676 C 32.4707 -63.0371 28.6133 -64.8438 25.4883 -66.9922 Z M 65.1367 -78.9551 C 73.8281 -77.2461 81.6406 -72.998 87.7441 -66.9922 C 84.6191 -64.8438 80.7617 -63.0371 76.123 -61.7676 C 73.4375 -69.7266 69.5801 -75.6348 65.1367 -78.9551 Z M 12.1582 -36.9141 C 12.5488 -47.5098 16.6992 -57.2266 23.291 -64.6973 C 26.5625 -62.2559 30.957 -60.2539 36.1816 -58.7402 C 34.375 -52.4902 33.3008 -45.166 33.1543 -36.9141 Z M 80.0781 -36.9141 C 79.9805 -45.166 78.8574 -52.4902 77.0996 -58.7402 C 82.2754 -60.2539 86.6699 -62.2559 89.9414 -64.6973 C 96.582 -57.2266 100.732 -47.5098 101.123 -36.9141 Z M 58.3008 -36.9141 L 58.3008 -56.1035 C 63.8184 -56.2012 69.043 -56.8359 73.7305 -57.9102 C 75.4395 -51.7578 76.5137 -44.6289 76.6602 -36.9141 Z M 36.5723 -36.9141 C 36.7188 -44.6289 37.793 -51.7578 39.502 -57.9102 C 44.1895 -56.8359 49.4141 -56.2012 54.9805 -56.1035 L 54.9805 -36.9141 Z M 12.1582 -33.5938 L 33.1543 -33.5938 C 33.252 -25.293 34.375 -17.8223 36.1816 -11.5234 C 31.0059 -10.0586 26.6602 -8.05664 23.4375 -5.66406 C 16.748 -13.1836 12.5488 -22.9004 12.1582 -33.5938 Z M 36.5723 -33.5938 L 54.9805 -33.5938 L 54.9805 -14.1602 C 49.4629 -14.0625 44.2871 -13.4277 39.6484 -12.4023 C 37.8418 -18.7012 36.7188 -25.9766 36.5723 -33.5938 Z M 58.3008 -14.1602 L 58.3008 -33.5938 L 76.6602 -33.5938 C 76.5137 -25.9766 75.4395 -18.7012 73.6328 -12.4023 C 68.9453 -13.4277 63.7695 -14.0625 58.3008 -14.1602 Z M 77.0996 -11.5234 C 78.9062 -17.8223 79.9805 -25.293 80.127 -33.5938 L 101.123 -33.5938 C 100.684 -22.9004 96.4844 -13.1836 89.8438 -5.66406 C 86.5723 -8.05664 82.2266 -10.0586 77.0996 -11.5234 Z M 58.3008 -10.8398 C 63.5742 -10.7422 68.3594 -10.2539 72.6562 -9.32617 C 69.2383 0.634766 64.0137 7.61719 58.3008 8.74023 Z M 40.5762 -9.32617 C 44.873 -10.2539 49.6582 -10.7422 54.9805 -10.8398 L 54.9805 8.74023 C 49.2188 7.61719 43.9941 0.634766 40.5762 -9.32617 Z M 76.123 -8.49609 C 80.6641 -7.22656 84.5215 -5.51758 87.5977 -3.36914 C 81.5918 2.44141 73.9746 6.64062 65.5273 8.34961 C 69.7754 4.98047 73.4863 -0.78125 76.123 -8.49609 Z M 25.6348 -3.36914 C 28.7109 -5.51758 32.5684 -7.22656 37.1094 -8.49609 C 39.7461 -0.78125 43.457 4.98047 47.7539 8.34961 C 39.2578 6.64062 31.6406 2.44141 25.6348 -3.36914 Z"/>
  </g>
  <g id="Ultralight-M" transform="matrix(1 0 0 1 503.656 1126)">
   <path d="M 56.0547 12.0605 C 82.0801 12.0605 103.369 -9.22852 103.369 -35.2539 C 103.369 -61.2793 82.0801 -82.5684 56.0547 -82.5684 C 30.0293 -82.5684 8.74023 -61.2793 8.74023 -35.2539 C 8.74023 -9.22852 30.0293 12.0605 56.0547 12.0605 Z M 39.209 -60.9863 C 42.7734 -71.9238 48.5352 -79.1504 54.834 -79.9805 L 54.834 -59.3262 C 49.0723 -59.375 43.8477 -59.9609 39.209 -60.9863 Z M 57.2754 -79.9805 C 63.5742 -79.1504 69.3359 -71.9238 72.9004 -60.9863 C 68.3105 -59.9609 63.0859 -59.375 57.2754 -59.3262 Z M 87.7441 -67.041 C 84.4727 -64.7461 80.3223 -62.8906 75.3418 -61.5723 C 72.5098 -70.166 68.2617 -76.3672 63.5254 -79.541 C 72.9492 -77.9785 81.3965 -73.4375 87.8418 -66.9434 Z M 24.3652 -67.041 L 24.2676 -66.9434 C 30.7129 -73.4375 39.1602 -77.9785 48.584 -79.541 C 43.8477 -76.3672 39.6484 -70.166 36.7676 -61.5723 C 31.7871 -62.8906 27.6367 -64.7461 24.3652 -67.041 Z M 79.1992 -36.4746 C 79.1016 -45.2148 77.9297 -52.9297 76.0254 -59.375 C 81.4453 -60.8887 85.9863 -62.9395 89.3555 -65.3809 C 96.3379 -57.666 100.635 -47.5586 100.928 -36.4746 Z M 11.1816 -36.4746 C 11.4746 -47.5586 15.8203 -57.666 22.7539 -65.3809 C 26.123 -62.9395 30.6641 -60.8887 36.084 -59.375 C 34.1797 -52.9297 33.0078 -45.2148 32.9102 -36.4746 Z M 35.4492 -36.4746 C 35.5469 -44.7266 36.7188 -52.2949 38.5254 -58.7891 C 43.457 -57.666 48.9746 -56.9824 54.834 -56.8848 L 54.834 -36.4746 Z M 57.2754 -36.4746 L 57.2754 -56.8848 C 63.1836 -56.9824 68.6523 -57.666 73.584 -58.7891 C 75.4395 -52.2949 76.5625 -44.7266 76.6602 -36.4746 Z M 11.1816 -34.0332 L 32.9102 -34.0332 C 33.0078 -25.1953 34.1797 -17.4316 36.084 -10.8887 C 30.7617 -9.42383 26.2695 -7.42188 22.9004 -4.98047 C 15.8691 -12.6953 11.4746 -22.8516 11.1816 -34.0332 Z M 35.4492 -34.0332 L 54.834 -34.0332 L 54.834 -13.3789 C 49.0234 -13.2812 43.5547 -12.6465 38.7207 -11.5234 C 36.7188 -18.1641 35.5469 -25.9277 35.4492 -34.0332 Z M 57.2754 -13.3789 L 57.2754 -34.0332 L 76.6602 -34.0332 C 76.5625 -25.9277 75.3906 -18.1641 73.4375 -11.5234 C 68.5547 -12.6465 63.0859 -13.2812 57.2754 -13.3789 Z M 76.0254 -10.8887 C 77.9785 -17.4316 79.1016 -25.1953 79.1992 -34.0332 L 100.928 -34.0332 C 100.635 -22.8516 96.2402 -12.6953 89.209 -4.98047 C 85.8887 -7.42188 81.3965 -9.42383 76.0254 -10.8887 Z M 54.1992 9.61914 C 48.2422 8.30078 42.8223 1.02539 39.4043 -9.32617 C 43.9453 -10.3516 49.1211 -10.8887 54.834 -10.9375 L 54.834 9.61914 C 54.6387 9.61914 54.3945 9.61914 54.1992 9.61914 Z M 57.2754 -10.9375 C 62.9883 -10.8887 68.1641 -10.3516 72.7539 -9.32617 C 69.2871 1.02539 63.916 8.30078 57.959 9.61914 C 57.7148 9.61914 57.5195 9.61914 57.2754 9.61914 Z M 75.3906 -8.69141 C 80.2246 -7.42188 84.3262 -5.61523 87.5977 -3.32031 C 81.2988 2.92969 73.1445 7.32422 64.0137 8.93555 C 68.5547 5.66406 72.6074 -0.390625 75.3906 -8.69141 Z M 24.5117 -3.32031 C 27.6367 -5.51758 31.7871 -7.37305 36.7676 -8.69141 C 39.5508 -0.390625 43.5547 5.66406 48.0957 8.93555 C 39.0137 7.32422 30.8594 2.92969 24.5117 -3.32031 Z"/>
  </g>
  <g id="Black-S" transform="matrix(1 0 0 1 2884.57 696)">
   <path d="M 48.8281 6.78711 C 71.9727 6.78711 90.8203 -12.0605 90.8203 -35.2051 C 90.8203 -58.3496 71.9727 -77.1973 48.8281 -77.1973 C 25.6836 -77.1973 6.83594 -58.3496 6.83594 -35.2051 C 6.83594 -12.0605 25.6836 6.78711 48.8281 6.78711 Z M 59.1797 -64.6973 C 64.3555 -62.8418 68.9453 -59.668 72.4609 -55.6152 C 70.9473 -54.5898 68.8965 -53.7109 66.5039 -52.9785 C 64.6973 -57.8125 62.1582 -61.8652 59.1797 -64.6973 Z M 25.1953 -55.6152 C 28.7109 -59.668 33.3008 -62.8418 38.4766 -64.6973 C 35.498 -61.8652 32.959 -57.8125 31.1523 -53.0273 C 28.7598 -53.7598 26.7578 -54.5898 25.1953 -55.6152 Z M 38.2324 -51.4648 C 40.0879 -56.1035 42.627 -59.7168 45.3613 -61.4258 L 45.3613 -50.7812 C 42.9199 -50.8789 40.5273 -51.123 38.2324 -51.4648 Z M 52.2949 -61.4258 C 55.0293 -59.7168 57.5684 -56.0547 59.4238 -51.4648 C 57.1289 -51.123 54.7363 -50.8789 52.2949 -50.7812 Z M 69.4336 -38.7207 C 69.2383 -41.4062 68.8965 -43.9453 68.4082 -46.3867 C 71.5332 -47.3633 74.2676 -48.6328 76.3184 -50.0488 C 78.1738 -46.582 79.4434 -42.7734 79.8828 -38.7207 Z M 17.7734 -38.7207 C 18.2129 -42.7734 19.4824 -46.582 21.3379 -50.0488 C 23.3887 -48.6328 26.123 -47.3633 29.248 -46.3867 C 28.7598 -43.9453 28.418 -41.4062 28.2227 -38.7207 Z M 35.3027 -38.7207 C 35.4492 -40.7715 35.791 -42.8223 36.2305 -44.7754 C 39.1113 -44.2871 42.1875 -43.9453 45.3613 -43.8477 L 45.3613 -38.7207 Z M 52.2949 -38.7207 L 52.2949 -43.8477 C 55.4688 -43.9453 58.5449 -44.2871 61.4258 -44.7754 C 61.8652 -42.8223 62.207 -40.7715 62.3535 -38.7207 Z M 17.7734 -31.7871 L 28.2227 -31.7871 C 28.3691 -29.0527 28.7598 -26.416 29.2969 -23.9258 C 26.123 -22.9492 23.4375 -21.7285 21.3867 -20.3125 C 19.4824 -23.7793 18.2129 -27.6855 17.7734 -31.7871 Z M 35.3027 -31.7871 L 45.3613 -31.7871 L 45.3613 -26.4648 C 42.1875 -26.3672 39.1113 -26.0254 36.2305 -25.5371 C 35.791 -27.5391 35.4492 -29.6387 35.3027 -31.7871 Z M 52.2949 -26.4648 L 52.2949 -31.7871 L 62.3535 -31.7871 C 62.207 -29.6387 61.8652 -27.5391 61.4258 -25.5371 C 58.5449 -26.0254 55.4688 -26.3672 52.2949 -26.4648 Z M 68.3594 -23.9258 C 68.8965 -26.416 69.2871 -29.0527 69.4336 -31.7871 L 79.8828 -31.7871 C 79.4434 -27.6855 78.1738 -23.7793 76.2695 -20.3125 C 74.2188 -21.7285 71.5332 -22.9492 68.3594 -23.9258 Z M 52.2949 -19.5312 C 54.7363 -19.4336 57.1289 -19.1895 59.375 -18.8477 C 57.5195 -14.3066 55.0293 -10.6934 52.2949 -8.98438 Z M 38.2812 -18.8477 C 40.5273 -19.1895 42.9199 -19.4336 45.3613 -19.5312 L 45.3613 -8.98438 C 42.627 -10.6934 40.1367 -14.2578 38.2812 -18.8477 Z M 66.4551 -17.334 C 68.8477 -16.6016 70.8984 -15.7227 72.4121 -14.7461 C 68.8965 -10.6934 64.3555 -7.56836 59.2285 -5.76172 C 62.1582 -8.54492 64.6973 -12.5488 66.4551 -17.334 Z M 25.2441 -14.7461 C 26.7578 -15.7227 28.8086 -16.6016 31.2012 -17.334 C 32.959 -12.5488 35.498 -8.54492 38.4277 -5.76172 C 33.3008 -7.56836 28.7598 -10.6934 25.2441 -14.7461 Z"/>
  </g>
  <g id="Heavy-S" transform="matrix(1 0 0 1 2588.47 696)">
   <path d="M 48.2422 6.15234 C 70.9961 6.15234 89.5996 -12.4512 89.5996 -35.2051 C 89.5996 -57.959 70.9961 -76.6113 48.1934 -76.6113 C 25.4395 -76.6113 6.83594 -57.959 6.83594 -35.2051 C 6.83594 -12.4512 25.4395 6.15234 48.2422 6.15234 Z M 24.8535 -56.6895 C 28.418 -60.5469 32.9102 -63.5742 37.9883 -65.2832 C 35.1074 -62.5 32.7148 -58.5938 30.957 -53.9062 C 28.5156 -54.6875 26.4648 -55.6152 24.8535 -56.6895 Z M 58.4961 -65.2832 C 63.5254 -63.5254 68.0664 -60.5469 71.582 -56.6406 C 70.0195 -55.5664 67.9199 -54.6387 65.4785 -53.9062 C 63.7207 -58.5938 61.3281 -62.5 58.4961 -65.2832 Z M 51.5137 -62.5488 C 54.2969 -60.8398 56.8848 -57.1289 58.7402 -52.3926 C 56.4941 -52.002 54.0527 -51.7578 51.5137 -51.6602 Z M 37.6953 -52.3926 C 39.5508 -57.1777 42.1387 -60.8398 44.9219 -62.5488 L 44.9219 -51.6602 C 42.3828 -51.7578 39.9902 -52.002 37.6953 -52.3926 Z M 16.6016 -38.5742 C 17.0898 -43.2129 18.6523 -47.6074 20.9473 -51.4648 C 23.0469 -49.9512 25.8301 -48.6328 29.1016 -47.6074 C 28.4668 -44.7754 28.0762 -41.748 27.8809 -38.5742 Z M 68.5547 -38.5742 C 68.3594 -41.748 67.9688 -44.7754 67.334 -47.6074 C 70.6055 -48.6328 73.3887 -49.9512 75.4883 -51.4648 C 77.832 -47.6074 79.3457 -43.2129 79.834 -38.5742 Z M 51.5137 -38.5742 L 51.5137 -45.0195 C 54.7363 -45.166 57.8125 -45.5078 60.6934 -45.9961 C 61.2305 -43.6523 61.6211 -41.1133 61.8164 -38.5742 Z M 34.6191 -38.5742 C 34.8145 -41.1133 35.2051 -43.6523 35.7422 -45.9961 C 38.623 -45.5078 41.6992 -45.166 44.9219 -45.0195 L 44.9219 -38.5742 Z M 16.6016 -31.9336 L 27.8809 -31.9336 C 28.0273 -28.7109 28.4668 -25.5859 29.1504 -22.7051 C 25.8789 -21.6797 23.0957 -20.4102 20.9961 -18.8965 C 18.6523 -22.8027 17.0898 -27.1973 16.6016 -31.9336 Z M 34.6191 -31.9336 L 44.9219 -31.9336 L 44.9219 -25.293 C 41.6992 -25.1465 38.623 -24.8047 35.7422 -24.3164 C 35.2051 -26.709 34.8145 -29.2969 34.6191 -31.9336 Z M 51.5137 -25.293 L 51.5137 -31.9336 L 61.8164 -31.9336 C 61.6211 -29.2969 61.2305 -26.7578 60.6934 -24.3164 C 57.8125 -24.8047 54.7363 -25.1465 51.5137 -25.293 Z M 67.334 -22.7051 C 67.9688 -25.5859 68.4082 -28.7109 68.5547 -31.9336 L 79.834 -31.9336 C 79.3457 -27.1973 77.7832 -22.8027 75.4395 -18.8965 C 73.3398 -20.4102 70.5566 -21.6797 67.334 -22.7051 Z M 37.6953 -17.9199 C 39.9902 -18.3105 42.3828 -18.5547 44.9219 -18.6523 L 44.9219 -7.86133 C 42.1387 -9.57031 39.5996 -13.2324 37.6953 -17.9199 Z M 51.5137 -18.6523 C 54.0527 -18.5547 56.4453 -18.3105 58.7402 -17.9199 C 56.8359 -13.2324 54.2969 -9.57031 51.5137 -7.91016 Z M 65.4297 -16.4062 C 67.8711 -15.6738 69.9219 -14.7461 71.5332 -13.6719 C 67.9688 -9.86328 63.5254 -6.88477 58.4961 -5.12695 C 61.3281 -7.91016 63.7207 -11.7676 65.4297 -16.4062 Z M 24.9023 -13.6719 C 26.5137 -14.7461 28.5645 -15.6738 31.0059 -16.4062 C 32.7637 -11.7676 35.1074 -7.91016 37.9395 -5.12695 C 32.9102 -6.88477 28.4668 -9.86328 24.9023 -13.6719 Z"/>
  </g>
  <g id="Bold-S" transform="matrix(1 0 0 1 2292.44 696)">
   <path d="M 47.5586 5.46875 C 69.873 5.46875 88.2324 -12.8906 88.2324 -35.2539 C 88.2324 -57.5684 69.873 -75.9277 47.5098 -75.9277 C 25.1953 -75.9277 6.83594 -57.5684 6.83594 -35.2539 C 6.83594 -12.8906 25.1953 5.46875 47.5586 5.46875 Z M 24.4629 -57.8125 C 28.0273 -61.5234 32.4707 -64.3066 37.4023 -65.9668 C 34.7168 -63.2812 32.4219 -59.4727 30.7129 -54.9316 C 28.2715 -55.7129 26.123 -56.6895 24.4629 -57.8125 Z M 57.666 -65.9668 C 62.5977 -64.3066 67.041 -61.4746 70.6055 -57.8125 C 68.9453 -56.6895 66.7969 -55.7129 64.3555 -54.8828 C 62.6465 -59.4727 60.3516 -63.2324 57.666 -65.9668 Z M 50.6836 -63.7695 C 53.5156 -62.1094 56.1035 -58.3496 58.0078 -53.418 C 55.7129 -53.0273 53.2715 -52.7832 50.6836 -52.6855 Z M 37.0605 -53.418 C 38.9648 -58.3496 41.5527 -62.1094 44.3848 -63.7695 L 44.3848 -52.6855 C 41.8457 -52.7832 39.3555 -53.0273 37.0605 -53.418 Z M 15.2832 -38.3789 C 15.8203 -43.75 17.6758 -48.7305 20.5566 -53.0273 C 22.7051 -51.416 25.5859 -50.0488 28.9551 -48.9746 C 28.1738 -45.6543 27.6855 -42.1387 27.4902 -38.3789 Z M 67.5781 -38.3789 C 67.3828 -42.1387 66.8945 -45.6543 66.1621 -48.9746 C 69.4824 -50.0488 72.3633 -51.416 74.5117 -53.0273 C 77.3926 -48.7305 79.248 -43.75 79.7852 -38.3789 Z M 50.6836 -38.3789 L 50.6836 -46.3867 C 53.9062 -46.5332 56.9824 -46.875 59.8633 -47.4121 C 60.5469 -44.5801 60.9863 -41.5527 61.1816 -38.3789 Z M 33.8867 -38.3789 C 34.082 -41.5527 34.5703 -44.5801 35.2051 -47.4121 C 38.0859 -46.875 41.2109 -46.5332 44.3848 -46.3867 L 44.3848 -38.3789 Z M 15.2832 -32.1289 L 27.4902 -32.1289 C 27.6855 -28.3203 28.1738 -24.707 28.9551 -21.3379 C 25.6348 -20.3125 22.8027 -18.9453 20.6055 -17.334 C 17.7246 -21.6797 15.8203 -26.709 15.2832 -32.1289 Z M 33.8867 -32.1289 L 44.3848 -32.1289 L 44.3848 -23.9258 C 41.2109 -23.7793 38.1348 -23.4375 35.2539 -22.9004 C 34.5215 -25.8301 34.082 -28.9062 33.8867 -32.1289 Z M 50.6836 -23.9258 L 50.6836 -32.1289 L 61.1816 -32.1289 C 60.9863 -28.9062 60.5469 -25.8301 59.8633 -22.9004 C 56.9824 -23.4375 53.9062 -23.7793 50.6836 -23.9258 Z M 66.1133 -21.3379 C 66.8945 -24.707 67.4316 -28.3203 67.5781 -32.1289 L 79.7852 -32.1289 C 79.248 -26.709 77.3438 -21.6797 74.4629 -17.334 C 72.3145 -18.9453 69.4336 -20.3125 66.1133 -21.3379 Z M 50.6836 -17.627 C 53.2715 -17.5293 55.7129 -17.2852 58.0078 -16.8945 C 56.0547 -12.0117 53.5156 -8.30078 50.6836 -6.68945 Z M 37.1094 -16.8945 C 39.4043 -17.2852 41.8457 -17.5293 44.3848 -17.627 L 44.3848 -6.68945 C 41.6016 -8.30078 39.0137 -12.0117 37.1094 -16.8945 Z M 24.5605 -12.5488 C 26.2207 -13.6719 28.3203 -14.6484 30.7617 -15.4297 C 32.4707 -10.9375 34.7168 -7.17773 37.4023 -4.49219 C 32.5195 -6.15234 28.125 -8.93555 24.5605 -12.5488 Z M 64.3066 -15.4297 C 66.748 -14.6484 68.8477 -13.6719 70.5566 -12.5488 C 66.9922 -8.93555 62.5977 -6.15234 57.666 -4.49219 C 60.3516 -7.17773 62.5977 -10.9375 64.3066 -15.4297 Z"/>
  </g>
  <g id="Semibold-S" transform="matrix(1 0 0 1 1996.2 696)">
   <path d="M 47.0703 4.98047 C 69.0918 4.98047 87.3047 -13.1836 87.3047 -35.2539 C 87.3047 -57.2754 69.0918 -75.4883 47.0215 -75.4883 C 25 -75.4883 6.83594 -57.2754 6.83594 -35.2539 C 6.83594 -13.1836 25.0488 4.98047 47.0703 4.98047 Z M 24.1699 -58.6426 C 27.7832 -62.1582 32.1777 -64.8438 37.0605 -66.4551 C 34.4727 -63.7695 32.2266 -60.0586 30.5664 -55.6152 C 28.0762 -56.3965 25.9277 -57.4219 24.1699 -58.6426 Z M 57.1289 -66.4062 C 61.9629 -64.8438 66.3574 -62.1094 69.9219 -58.5938 C 68.2129 -57.4219 66.0645 -56.3965 63.5742 -55.6152 C 61.9141 -60.0586 59.7168 -63.7207 57.1289 -66.4062 Z M 50.0977 -64.5996 C 52.9785 -62.9883 55.6152 -59.1797 57.5195 -54.1504 C 55.2246 -53.7109 52.7344 -53.4668 50.0977 -53.3691 Z M 36.6211 -54.1504 C 38.5742 -59.1797 41.1621 -62.9883 44.043 -64.5996 L 44.043 -53.3691 C 41.4062 -53.4668 38.916 -53.7109 36.6211 -54.1504 Z M 14.4043 -38.2812 C 14.9414 -44.0918 17.0898 -49.5117 20.3125 -54.0527 C 22.5098 -52.3926 25.4395 -50.9766 28.8086 -49.9023 C 27.9785 -46.2891 27.3926 -42.3828 27.2461 -38.2812 Z M 66.9434 -38.2812 C 66.748 -42.3828 66.1621 -46.2891 65.332 -49.9023 C 68.7012 -50.9766 71.6309 -52.3926 73.8281 -54.0527 C 77.0508 -49.5117 79.1992 -44.0918 79.7363 -38.2812 Z M 33.3984 -38.2812 C 33.5938 -41.7969 34.082 -45.2148 34.8633 -48.3398 C 37.7441 -47.8027 40.8203 -47.4609 44.043 -47.3145 L 44.043 -38.2812 Z M 50.0977 -38.2812 L 50.0977 -47.3145 C 53.3203 -47.4609 56.3965 -47.8027 59.2773 -48.3398 C 60.0586 -45.2148 60.5469 -41.7969 60.7422 -38.2812 Z M 14.4043 -32.2266 L 27.1973 -32.2266 C 27.3926 -28.0273 27.9785 -24.0723 28.8574 -20.459 C 25.4883 -19.3359 22.6074 -17.9688 20.4102 -16.3086 C 17.0898 -20.8984 14.9414 -26.3672 14.4043 -32.2266 Z M 33.3984 -32.2266 L 44.043 -32.2266 L 44.043 -22.998 C 40.8203 -22.8516 37.7441 -22.5098 34.8633 -21.9727 C 34.082 -25.1465 33.5938 -28.6133 33.3984 -32.2266 Z M 50.0977 -22.998 L 50.0977 -32.2266 L 60.7422 -32.2266 C 60.5957 -28.6133 60.0586 -25.1465 59.2773 -21.9727 C 56.3965 -22.5098 53.3203 -22.8516 50.0977 -22.998 Z M 65.2832 -20.459 C 66.1621 -24.0723 66.748 -28.0273 66.9434 -32.2266 L 79.7363 -32.2266 C 79.1992 -26.3672 77.0508 -20.8984 73.7793 -16.3086 C 71.5332 -17.9688 68.6523 -19.3359 65.2832 -20.459 Z M 36.6699 -16.2109 C 38.9648 -16.6016 41.4551 -16.8457 44.043 -16.9434 L 44.043 -5.85938 C 41.2109 -7.4707 38.5742 -11.2305 36.6699 -16.2109 Z M 50.0977 -16.9434 C 52.6855 -16.8457 55.1758 -16.6016 57.4707 -16.2109 C 55.5664 -11.2305 52.9297 -7.4707 50.0977 -5.85938 Z M 24.3164 -11.7676 C 26.0254 -12.9395 28.1738 -13.916 30.6152 -14.7461 C 32.2754 -10.3516 34.4727 -6.68945 37.0117 -4.05273 C 32.2266 -5.61523 27.8809 -8.30078 24.3164 -11.7676 Z M 63.5254 -14.7461 C 65.9668 -13.916 68.1152 -12.9395 69.873 -11.7676 C 66.2598 -8.30078 61.9629 -5.61523 57.1289 -4.05273 C 59.7168 -6.68945 61.8652 -10.3516 63.5254 -14.7461 Z"/>
  </g>
  <g id="Medium-S" transform="matrix(1 0 0 1 1699.83 696)">
   <path d="M 46.7285 4.63867 C 68.5547 4.63867 86.6211 -13.4277 86.6211 -35.2539 C 86.6211 -57.0801 68.5059 -75.1465 46.6797 -75.1465 C 24.8535 -75.1465 6.83594 -57.0801 6.83594 -35.2539 C 6.83594 -13.4277 24.9023 4.63867 46.7285 4.63867 Z M 24.0234 -59.2285 C 27.5879 -62.6465 31.9336 -65.2832 36.7676 -66.7969 C 34.2285 -64.1602 32.0801 -60.498 30.4199 -56.1035 C 27.9785 -56.9336 25.7812 -58.0078 24.0234 -59.2285 Z M 56.7383 -66.7969 C 61.4746 -65.2344 65.8203 -62.5977 69.4336 -59.1797 C 67.627 -57.959 65.4785 -56.9336 62.9883 -56.1035 C 61.377 -60.498 59.2285 -64.1113 56.7383 -66.7969 Z M 36.2793 -54.6875 C 38.2324 -59.8145 40.8691 -63.6719 43.7988 -65.2832 L 43.7988 -53.9062 C 41.1133 -54.0039 38.623 -54.248 36.2793 -54.6875 Z M 49.6582 -65.2832 C 52.5391 -63.6719 55.2246 -59.8145 57.1777 -54.6875 C 54.834 -54.248 52.2949 -54.0039 49.6582 -53.9062 Z M 13.7207 -38.1836 C 14.3066 -44.3848 16.6016 -50.0977 20.166 -54.8828 C 22.4121 -53.1738 25.3418 -51.709 28.7598 -50.5859 C 27.832 -46.7773 27.1973 -42.627 27.002 -38.1836 Z M 66.4062 -38.1836 C 66.2109 -42.627 65.625 -46.7773 64.6973 -50.5859 C 68.1152 -51.709 71.0449 -53.125 73.291 -54.834 C 76.8555 -50.0977 79.1504 -44.3848 79.6875 -38.1836 Z M 33.0078 -38.1836 C 33.2031 -42.041 33.7402 -45.7031 34.5703 -49.0723 C 37.4512 -48.5352 40.5762 -48.1445 43.7988 -47.998 L 43.7988 -38.1836 Z M 49.6582 -38.1836 L 49.6582 -47.998 C 52.8809 -48.1445 55.957 -48.5352 58.8867 -49.0723 C 59.668 -45.7031 60.2539 -42.041 60.4004 -38.1836 Z M 13.7207 -32.3242 L 27.002 -32.3242 C 27.1973 -27.832 27.7832 -23.584 28.7598 -19.7266 C 25.3906 -18.6523 22.4609 -17.1875 20.2148 -15.5273 C 16.6504 -20.3125 14.3066 -26.0742 13.7207 -32.3242 Z M 33.0078 -32.3242 L 43.7988 -32.3242 L 43.7988 -22.3145 C 40.5762 -22.168 37.5 -21.8262 34.6191 -21.2402 C 33.7402 -24.6582 33.2031 -28.418 33.0078 -32.3242 Z M 49.6582 -22.3145 L 49.6582 -32.3242 L 60.4492 -32.3242 C 60.2539 -28.418 59.668 -24.6582 58.8379 -21.2402 C 55.957 -21.8262 52.8809 -22.168 49.6582 -22.3145 Z M 64.6973 -19.7266 C 65.625 -23.584 66.2598 -27.832 66.4062 -32.3242 L 79.7363 -32.3242 C 79.1504 -26.0742 76.8066 -20.3125 73.1934 -15.5273 C 70.9473 -17.1875 68.0664 -18.6523 64.6973 -19.7266 Z M 49.6582 -16.4062 C 52.2949 -16.3086 54.7852 -16.0645 57.0801 -15.625 C 55.1758 -10.5957 52.5391 -6.78711 49.6582 -5.22461 Z M 36.3281 -15.625 C 38.6719 -16.0645 41.1621 -16.3086 43.7988 -16.4062 L 43.7988 -5.22461 C 40.918 -6.78711 38.2812 -10.5957 36.3281 -15.625 Z M 24.1211 -11.1816 C 25.8789 -12.4023 28.0273 -13.3789 30.4688 -14.209 C 32.1289 -9.91211 34.2285 -6.29883 36.7188 -3.71094 C 31.9824 -5.22461 27.6855 -7.8125 24.1211 -11.1816 Z M 62.9395 -14.209 C 65.4297 -13.3789 67.5293 -12.4023 69.3359 -11.1816 C 65.7227 -7.8125 61.4746 -5.22461 56.7383 -3.71094 C 59.1797 -6.29883 61.3281 -9.91211 62.9395 -14.209 Z"/>
  </g>
  <g id="Regular-S" transform="matrix(1 0 0 1 1403.58 696)">
   <path d="M 46.2402 4.15039 C 67.7734 4.15039 85.6934 -13.7207 85.6934 -35.2539 C 85.6934 -56.7871 67.7246 -74.6582 46.1914 -74.6582 C 24.707 -74.6582 6.83594 -56.7871 6.83594 -35.2539 C 6.83594 -13.7207 24.7559 4.15039 46.2402 4.15039 Z M 23.7793 -60.0098 C 27.3438 -63.2812 31.6406 -65.7715 36.377 -67.2852 C 33.9355 -64.6484 31.8848 -61.084 30.2734 -56.7871 C 27.7832 -57.6172 25.5859 -58.6914 23.7793 -60.0098 Z M 56.2012 -67.2363 C 60.8887 -65.7227 65.1367 -63.2324 68.7012 -59.9609 C 66.8945 -58.6914 64.7461 -57.6172 62.2559 -56.7871 C 60.6445 -61.084 58.5938 -64.5996 56.2012 -67.2363 Z M 49.0723 -66.1133 C 52.002 -64.5508 54.6875 -60.6445 56.6406 -55.3711 C 54.2969 -54.9805 51.8066 -54.6875 49.0723 -54.5898 Z M 35.8398 -55.3711 C 37.8418 -60.6445 40.4785 -64.5508 43.4082 -66.1133 L 43.4082 -54.5898 C 40.7227 -54.6875 38.1836 -54.9805 35.8398 -55.3711 Z M 12.8418 -38.0859 C 13.4277 -44.7266 15.9668 -50.8789 19.9219 -55.8594 C 22.2168 -54.1016 25.1953 -52.6367 28.6133 -51.5137 C 27.5879 -47.4121 26.9531 -42.9199 26.7578 -38.0859 Z M 65.7715 -38.0859 C 65.5762 -42.9199 64.9414 -47.4121 63.8672 -51.5137 C 67.2852 -52.6367 70.2637 -54.1016 72.5586 -55.8594 C 76.5137 -50.8301 79.1016 -44.7266 79.6875 -38.0859 Z M 32.5195 -38.0859 C 32.7148 -42.334 33.3008 -46.3867 34.2285 -50.0488 C 37.1094 -49.4629 40.1855 -49.0723 43.4082 -48.9258 L 43.4082 -38.0859 Z M 49.0723 -38.0859 L 49.0723 -48.9258 C 52.2949 -49.0723 55.4199 -49.4629 58.3008 -50.0488 C 59.2285 -46.3867 59.8145 -42.334 60.0098 -38.0859 Z M 12.8418 -32.4219 L 26.7578 -32.4219 C 26.9531 -27.5391 27.5879 -22.9492 28.6621 -18.8477 C 25.293 -17.7246 22.3145 -16.2598 20.0684 -14.502 C 16.0156 -19.5801 13.4277 -25.7324 12.8418 -32.4219 Z M 32.5195 -32.4219 L 43.4082 -32.4219 L 43.4082 -21.3867 C 40.2344 -21.2402 37.1094 -20.8984 34.2285 -20.3125 C 33.3008 -24.0234 32.7148 -28.125 32.5195 -32.4219 Z M 49.0723 -21.3867 L 49.0723 -32.4219 L 60.0098 -32.4219 C 59.8145 -28.125 59.2285 -24.0234 58.3008 -20.3125 C 55.3711 -20.8984 52.2949 -21.2402 49.0723 -21.3867 Z M 63.8672 -18.8477 C 64.8926 -22.9492 65.5762 -27.5391 65.7715 -32.4219 L 79.6875 -32.4219 C 79.1016 -25.7324 76.4648 -19.5801 72.4609 -14.502 C 70.166 -16.2598 67.2363 -17.7246 63.8672 -18.8477 Z M 49.0723 -15.7227 C 51.7578 -15.625 54.2969 -15.3809 56.5918 -14.9414 C 54.6387 -9.76562 52.002 -5.95703 49.0723 -4.39453 Z M 35.8887 -14.9414 C 38.2324 -15.3809 40.7715 -15.625 43.4082 -15.7227 L 43.4082 -4.39453 C 40.5273 -5.95703 37.8906 -9.76562 35.8887 -14.9414 Z M 62.207 -13.5254 C 64.6484 -12.6953 66.7969 -11.6699 68.6035 -10.4004 C 65.0391 -7.22656 60.791 -4.73633 56.1523 -3.27148 C 58.5449 -5.85938 60.5957 -9.32617 62.207 -13.5254 Z M 23.9258 -10.4004 C 25.7324 -11.6699 27.8809 -12.6953 30.3223 -13.5254 C 31.9336 -9.32617 33.9844 -5.85938 36.3281 -3.27148 C 31.6895 -4.73633 27.4902 -7.22656 23.9258 -10.4004 Z"/>
  </g>
  <g id="Light-S" transform="matrix(1 0 0 1 1107.6 696)">
   <path d="M 45.5078 3.41797 C 66.6992 3.41797 84.2285 -14.0625 84.2285 -35.2539 C 84.2285 -56.4453 66.6504 -73.9258 45.5078 -73.9258 C 24.3164 -73.9258 6.83594 -56.4453 6.83594 -35.2539 C 6.83594 -14.0625 24.3652 3.41797 45.5078 3.41797 Z M 22.3145 -60.0586 C 26.3672 -63.8672 31.3477 -66.6992 36.8164 -68.1641 C 33.9844 -65.4785 31.5918 -61.4746 29.7852 -56.4941 C 26.9043 -57.4219 24.3652 -58.5938 22.3145 -60.0586 Z M 54.248 -68.1152 C 59.7168 -66.6504 64.6973 -63.8184 68.7012 -60.0586 C 66.6504 -58.5938 64.1602 -57.4219 61.2793 -56.4941 C 59.4727 -61.4746 57.0801 -65.4297 54.248 -68.1152 Z M 34.2285 -55.3711 C 36.4746 -61.6699 39.7461 -66.1621 43.2617 -67.5293 L 43.2617 -54.4434 C 40.0391 -54.541 37.0117 -54.834 34.2285 -55.3711 Z M 47.7539 -67.5293 C 51.3184 -66.1621 54.541 -61.6699 56.7871 -55.3711 C 54.0527 -54.834 51.0254 -54.541 47.7539 -54.4434 Z M 11.5723 -37.5 C 12.0117 -44.7754 14.8438 -51.4648 19.2871 -56.8359 C 21.6797 -55.0293 24.8047 -53.4668 28.5156 -52.3438 C 27.3438 -47.9004 26.6113 -42.9199 26.4648 -37.5 Z M 64.5996 -37.5 C 64.4531 -42.9199 63.7207 -47.9004 62.5488 -52.3438 C 66.2109 -53.4668 69.3359 -54.9805 71.7285 -56.8359 C 76.1719 -51.4648 79.0039 -44.7754 79.4922 -37.5 Z M 31.0547 -37.5 C 31.2012 -42.4316 31.8848 -47.0703 32.959 -51.1719 C 36.1328 -50.4883 39.6484 -50.0488 43.2617 -49.9512 L 43.2617 -37.5 Z M 47.7539 -37.5 L 47.7539 -49.9512 C 51.416 -50.0488 54.8828 -50.4883 58.1055 -51.1719 C 59.1797 -47.0703 59.8633 -42.3828 60.0098 -37.5 Z M 11.5723 -33.0078 L 26.4648 -33.0078 C 26.6113 -27.5391 27.3438 -22.4609 28.5156 -18.0176 C 24.9023 -16.8457 21.7773 -15.332 19.3848 -13.5742 C 14.8926 -18.9453 12.0605 -25.6836 11.5723 -33.0078 Z M 31.0059 -33.0078 L 43.2617 -33.0078 L 43.2617 -20.3613 C 39.6484 -20.2637 36.1816 -19.8242 33.0078 -19.1406 C 31.8848 -23.3398 31.2012 -28.0762 31.0059 -33.0078 Z M 47.7539 -20.3613 L 47.7539 -33.0078 L 60.0098 -33.0078 C 59.8633 -28.0762 59.1797 -23.3398 58.0566 -19.1406 C 54.834 -19.8242 51.3672 -20.2637 47.7539 -20.3613 Z M 62.5488 -18.0176 C 63.7207 -22.4609 64.4531 -27.5391 64.5996 -33.0078 L 79.4922 -33.0078 C 79.0039 -25.6836 76.123 -18.9453 71.6797 -13.5742 C 69.2871 -15.332 66.1621 -16.8457 62.5488 -18.0176 Z M 47.7539 -15.8691 C 50.9766 -15.7715 54.0039 -15.4785 56.7383 -14.9414 C 54.4922 -8.74023 51.2695 -4.29688 47.7539 -2.92969 Z M 34.3262 -14.9414 C 37.0605 -15.4785 40.0391 -15.7715 43.2617 -15.8691 L 43.2617 -2.92969 C 39.7949 -4.29688 36.5723 -8.74023 34.3262 -14.9414 Z M 61.2305 -13.8184 C 64.1113 -12.9395 66.5527 -11.7676 68.6035 -10.3516 C 64.5996 -6.64062 59.7168 -3.85742 54.3457 -2.39258 C 57.0801 -5.07812 59.4727 -8.98438 61.2305 -13.8184 Z M 22.4609 -10.3516 C 24.4629 -11.7676 26.9531 -12.9395 29.834 -13.8184 C 31.5918 -8.98438 33.9844 -5.07812 36.7188 -2.39258 C 31.2988 -3.85742 26.416 -6.64062 22.4609 -10.3516 Z"/>
  </g>
  <g id="Thin-S" transform="matrix(1 0 0 1 811.867 696)">
   <path d="M 44.5801 2.49023 C 65.2832 2.49023 82.2754 -14.5508 82.2754 -35.2539 C 82.2754 -55.957 65.2344 -72.998 44.5312 -72.998 C 23.8281 -72.998 6.83594 -55.957 6.83594 -35.2539 C 6.83594 -14.5508 23.877 2.49023 44.5801 2.49023 Z M 20.3613 -60.1074 C 25 -64.6484 30.9082 -67.8711 37.5 -69.2383 C 34.1797 -66.6016 31.25 -62.1094 29.1992 -56.1035 C 25.6836 -57.0801 22.7539 -58.4473 20.3613 -60.1074 Z M 51.6113 -69.2383 C 58.2031 -67.8711 64.0625 -64.6484 68.75 -60.1074 C 66.3574 -58.4473 63.4277 -57.0801 59.9121 -56.1035 C 57.8613 -62.1094 54.9316 -66.6016 51.6113 -69.2383 Z M 46.0449 -69.2383 C 50.3906 -68.2617 54.3945 -63.0371 56.9824 -55.3711 C 53.7109 -54.6875 50.0488 -54.2969 46.0449 -54.248 Z M 32.1289 -55.3711 C 34.7168 -63.0371 38.7207 -68.2617 43.1152 -69.2383 L 43.1152 -54.248 C 39.0625 -54.2969 35.4004 -54.6875 32.1289 -55.3711 Z M 9.86328 -36.7188 C 10.2051 -44.873 13.3789 -52.2949 18.4082 -58.0566 C 20.9473 -56.1523 24.3164 -54.5898 28.3691 -53.418 C 27.002 -48.584 26.1719 -42.9688 26.0254 -36.7188 Z M 63.0859 -36.7188 C 62.9395 -42.9688 62.1094 -48.584 60.7422 -53.418 C 64.7461 -54.5898 68.1641 -56.1523 70.7031 -58.0566 C 75.7324 -52.2949 78.9062 -44.873 79.248 -36.7188 Z M 29.0527 -36.7188 C 29.1992 -42.5293 29.9805 -47.998 31.2988 -52.6855 C 34.8633 -51.8555 38.8672 -51.3672 43.1152 -51.3184 L 43.1152 -36.7188 Z M 46.0449 -36.7188 L 46.0449 -51.3184 C 50.2441 -51.3672 54.248 -51.8555 57.8125 -52.6855 C 59.1309 -47.998 59.9121 -42.5293 60.0586 -36.7188 Z M 9.86328 -33.7891 L 26.0254 -33.7891 C 26.123 -27.4414 27.002 -21.7773 28.3691 -16.8945 C 24.4141 -15.7715 21.0449 -14.209 18.5059 -12.3535 C 13.4277 -18.1152 10.2051 -25.5859 9.86328 -33.7891 Z M 29.0527 -33.7891 L 43.1152 -33.7891 L 43.1152 -18.9941 C 38.916 -18.9453 34.9609 -18.457 31.3965 -17.6758 C 30.0293 -22.4609 29.1992 -27.9785 29.0527 -33.7891 Z M 46.0449 -18.9941 L 46.0449 -33.7891 L 60.0586 -33.7891 C 59.9121 -27.9785 59.082 -22.4609 57.7148 -17.6758 C 54.1504 -18.457 50.1953 -18.9453 46.0449 -18.9941 Z M 60.7422 -16.8945 C 62.1094 -21.7773 62.9883 -27.4414 63.0859 -33.7891 L 79.248 -33.7891 C 78.9062 -25.5859 75.6836 -18.1152 70.6055 -12.3535 C 68.0664 -14.209 64.6973 -15.7715 60.7422 -16.8945 Z M 32.2266 -14.9414 C 35.498 -15.625 39.1113 -16.0156 43.1152 -16.0645 L 43.1152 -1.12305 C 38.7695 -2.09961 34.8145 -7.42188 32.2266 -14.9414 Z M 46.0449 -16.0645 C 50 -16.0156 53.6133 -15.625 56.8848 -14.9414 C 54.2969 -7.42188 50.3418 -2.09961 46.0449 -1.12305 Z M 20.5078 -10.3027 C 22.8516 -11.9141 25.7812 -13.2324 29.1992 -14.209 C 31.2012 -8.39844 34.0332 -3.95508 37.2559 -1.31836 C 30.8594 -2.68555 25.0488 -5.85938 20.5078 -10.3027 Z M 59.9121 -14.209 C 63.3301 -13.2324 66.2598 -11.9141 68.6035 -10.3027 C 64.0625 -5.85938 58.252 -2.68555 51.8555 -1.31836 C 55.0781 -3.95508 57.9102 -8.39844 59.9121 -14.209 Z"/>
  </g>
  <g id="Ultralight-S" transform="matrix(1 0 0 1 515.644 696)">
   <path d="M 44.043 1.95312 C 64.502 1.95312 81.2988 -14.7949 81.2988 -35.2539 C 81.2988 -55.7129 64.502 -72.4609 44.043 -72.4609 C 23.584 -72.4609 6.83594 -55.7129 6.83594 -35.2539 C 6.83594 -14.7949 23.584 1.95312 44.043 1.95312 Z M 31.0547 -55.3711 C 33.7891 -63.7695 38.1836 -69.3359 42.9688 -70.0684 L 42.9688 -54.1504 C 38.5742 -54.1992 34.5703 -54.6387 31.0547 -55.3711 Z M 45.1172 -70.0684 C 49.9512 -69.3359 54.3457 -63.7695 57.0801 -55.3711 C 53.5645 -54.6387 49.5605 -54.1992 45.1172 -54.1504 Z M 19.3848 -60.1562 C 24.3164 -65.0879 30.7617 -68.5059 37.9395 -69.7754 C 34.2773 -67.2363 31.1035 -62.5 28.8574 -55.9082 C 25.0977 -56.9336 21.9238 -58.3496 19.3848 -60.1562 Z M 50.1953 -69.7754 C 57.373 -68.5059 63.7695 -65.0879 68.75 -60.1562 C 66.2598 -58.3984 63.0371 -56.9336 59.2285 -55.9082 C 57.0312 -62.5 53.8086 -67.2363 50.1953 -69.7754 Z M 8.98438 -36.3281 C 9.27734 -44.873 12.5977 -52.6855 17.9688 -58.6426 C 20.5566 -56.7383 24.0723 -55.127 28.2715 -54.0039 C 26.8066 -48.9746 25.9277 -43.0176 25.8301 -36.3281 Z M 62.3047 -36.3281 C 62.207 -43.0176 61.2793 -48.9746 59.8633 -54.0039 C 64.0137 -55.127 67.5293 -56.7383 70.166 -58.6426 C 75.4883 -52.6855 78.8574 -44.873 79.1016 -36.3281 Z M 45.1172 -36.3281 L 45.1172 -52.002 C 49.6582 -52.0508 53.9062 -52.5879 57.666 -53.418 C 59.082 -48.4863 59.9609 -42.627 60.0586 -36.3281 Z M 28.0762 -36.3281 C 28.1738 -42.627 29.0527 -48.4863 30.4199 -53.418 C 34.2285 -52.5879 38.4766 -52.0508 42.9688 -52.002 L 42.9688 -36.3281 Z M 8.98438 -34.1797 L 25.8301 -34.1797 C 25.9277 -27.3926 26.8066 -21.3867 28.2715 -16.3086 C 24.1699 -15.1855 20.6543 -13.623 18.0664 -11.7188 C 12.6465 -17.7246 9.27734 -25.5371 8.98438 -34.1797 Z M 28.0762 -34.1797 L 42.9688 -34.1797 L 42.9688 -18.3105 C 38.5254 -18.2617 34.3262 -17.7246 30.5664 -16.8945 C 29.0527 -22.0215 28.1738 -27.9297 28.0762 -34.1797 Z M 45.1172 -18.3105 L 45.1172 -34.1797 L 60.0586 -34.1797 C 59.9609 -27.9297 59.0332 -22.0215 57.5684 -16.8945 C 53.8086 -17.7246 49.6094 -18.2617 45.1172 -18.3105 Z M 59.8633 -16.3086 C 61.3281 -21.3867 62.207 -27.3926 62.3047 -34.1797 L 79.1016 -34.1797 C 78.8574 -25.5859 75.4883 -17.7246 70.0684 -11.7188 C 67.4316 -13.623 63.9648 -15.1855 59.8633 -16.3086 Z M 45.1172 -16.1621 C 49.5117 -16.1133 53.4668 -15.6738 56.9336 -14.9414 C 54.1992 -6.73828 49.8535 -1.02539 45.1172 -0.244141 Z M 31.1523 -14.9414 C 34.668 -15.6738 38.623 -16.1133 42.9688 -16.1621 L 42.9688 -0.244141 C 38.2324 -1.02539 33.9355 -6.73828 31.1523 -14.9414 Z M 19.4824 -10.2539 C 22.0215 -11.9629 25.1465 -13.3789 28.8574 -14.4043 C 31.0059 -8.05664 34.082 -3.36914 37.5977 -0.78125 C 30.6152 -2.09961 24.3652 -5.46875 19.4824 -10.2539 Z M 59.2285 -14.4043 C 62.9883 -13.3789 66.1133 -11.9629 68.6035 -10.2539 C 63.7695 -5.46875 57.5195 -2.09961 50.5371 -0.78125 C 54.0039 -3.36914 57.1289 -8.05664 59.2285 -14.4043 Z"/>
  </g>
 </g>
</svg>
