<?xml version="1.0" encoding="UTF-8"?>
<!--Generator: Apple Native CoreSVG 148-->
<!DOCTYPE svg
PUBLIC "-//W3C//DTD SVG 1.1//EN"
       "http://www.w3.org/Graphics/SVG/1.1/DTD/svg11.dtd">
<svg version="1.1" xmlns="http://www.w3.org/2000/svg" xmlns:xlink="http://www.w3.org/1999/xlink" width="3300" height="2200">
 <!--glyph: "uni100389.medium", point size: 100.000000, font version: "Version 16.0d11e1", template writer version: "8"-->
 <g id="Notes">
  <rect height="2200" id="artboard" style="fill:white;opacity:1" width="3300" x="0" y="0"/>
  <line id="" style="fill:none;stroke:black;opacity:1;stroke-width:0.5;" x1="263" x2="3036" y1="292" y2="292"/>
  <text style="stroke:none;fill:black;font-family:-apple-system,&quot;SF Pro Display&quot;,&quot;SF Pro Text&quot;,Helvetica,sans-serif;font-weight:bold;" transform="matrix(1 0 0 1 263 322)">Weight/Scale Variations</text>
  <text style="stroke:none;fill:black;font-family:-apple-system,&quot;SF Pro Display&quot;,&quot;SF Pro Text&quot;,Helvetica,sans-serif;text-anchor:middle;" transform="matrix(1 0 0 1 559.711 322)">Ultralight</text>
  <text style="stroke:none;fill:black;font-family:-apple-system,&quot;SF Pro Display&quot;,&quot;SF Pro Text&quot;,Helvetica,sans-serif;text-anchor:middle;" transform="matrix(1 0 0 1 856.422 322)">Thin</text>
  <text style="stroke:none;fill:black;font-family:-apple-system,&quot;SF Pro Display&quot;,&quot;SF Pro Text&quot;,Helvetica,sans-serif;text-anchor:middle;" transform="matrix(1 0 0 1 1153.13 322)">Light</text>
  <text style="stroke:none;fill:black;font-family:-apple-system,&quot;SF Pro Display&quot;,&quot;SF Pro Text&quot;,Helvetica,sans-serif;text-anchor:middle;" transform="matrix(1 0 0 1 1449.84 322)">Regular</text>
  <text style="stroke:none;fill:black;font-family:-apple-system,&quot;SF Pro Display&quot;,&quot;SF Pro Text&quot;,Helvetica,sans-serif;text-anchor:middle;" transform="matrix(1 0 0 1 1746.56 322)">Medium</text>
  <text style="stroke:none;fill:black;font-family:-apple-system,&quot;SF Pro Display&quot;,&quot;SF Pro Text&quot;,Helvetica,sans-serif;text-anchor:middle;" transform="matrix(1 0 0 1 2043.27 322)">Semibold</text>
  <text style="stroke:none;fill:black;font-family:-apple-system,&quot;SF Pro Display&quot;,&quot;SF Pro Text&quot;,Helvetica,sans-serif;text-anchor:middle;" transform="matrix(1 0 0 1 2339.98 322)">Bold</text>
  <text style="stroke:none;fill:black;font-family:-apple-system,&quot;SF Pro Display&quot;,&quot;SF Pro Text&quot;,Helvetica,sans-serif;text-anchor:middle;" transform="matrix(1 0 0 1 2636.69 322)">Heavy</text>
  <text style="stroke:none;fill:black;font-family:-apple-system,&quot;SF Pro Display&quot;,&quot;SF Pro Text&quot;,Helvetica,sans-serif;text-anchor:middle;" transform="matrix(1 0 0 1 2933.4 322)">Black</text>
  <line id="" style="fill:none;stroke:black;opacity:1;stroke-width:0.5;" x1="263" x2="3036" y1="1903" y2="1903"/>
  <g id="" transform="matrix(1 0 0 1 263 1933)">
   <path d="M 9.24805 0.830078 C 13.5547 0.830078 17.1387 -2.74414 17.1387 -7.05078 C 17.1387 -11.3574 13.5449 -14.9316 9.23828 -14.9316 C 4.94141 -14.9316 1.36719 -11.3574 1.36719 -7.05078 C 1.36719 -2.74414 4.95117 0.830078 9.24805 0.830078 Z M 9.24805 -0.654297 C 5.70312 -0.654297 2.87109 -3.49609 2.87109 -7.05078 C 2.87109 -10.6055 5.69336 -13.4473 9.23828 -13.4473 C 12.793 -13.4473 15.6348 -10.6055 15.6445 -7.05078 C 15.6543 -3.49609 12.8027 -0.654297 9.24805 -0.654297 Z M 9.22852 -3.62305 C 9.69727 -3.62305 9.9707 -3.93555 9.9707 -4.45312 L 9.9707 -6.31836 L 12.002 -6.31836 C 12.5 -6.31836 12.832 -6.57227 12.832 -7.04102 C 12.832 -7.51953 12.5195 -7.7832 12.002 -7.7832 L 9.9707 -7.7832 L 9.9707 -9.81445 C 9.9707 -10.332 9.69727 -10.6543 9.22852 -10.6543 C 8.75977 -10.6543 8.50586 -10.3125 8.50586 -9.81445 L 8.50586 -7.7832 L 6.49414 -7.7832 C 5.97656 -7.7832 5.64453 -7.51953 5.64453 -7.04102 C 5.64453 -6.57227 5.99609 -6.31836 6.49414 -6.31836 L 8.50586 -6.31836 L 8.50586 -4.45312 C 8.50586 -3.95508 8.75977 -3.62305 9.22852 -3.62305 Z"/>
  </g>
  <g id="" transform="matrix(1 0 0 1 281.506 1933)">
   <path d="M 11.709 2.91016 C 17.1582 2.91016 21.6699 -1.61133 21.6699 -7.05078 C 21.6699 -12.5 17.1484 -17.0117 11.6992 -17.0117 C 6.25977 -17.0117 1.74805 -12.5 1.74805 -7.05078 C 1.74805 -1.61133 6.26953 2.91016 11.709 2.91016 Z M 11.709 1.25 C 7.09961 1.25 3.41797 -2.44141 3.41797 -7.05078 C 3.41797 -11.6602 7.08984 -15.3516 11.6992 -15.3516 C 16.3086 -15.3516 20 -11.6602 20.0098 -7.05078 C 20.0195 -2.44141 16.3184 1.25 11.709 1.25 Z M 11.6797 -2.66602 C 12.207 -2.66602 12.5098 -3.01758 12.5098 -3.59375 L 12.5098 -6.23047 L 15.3223 -6.23047 C 15.8691 -6.23047 16.25 -6.51367 16.25 -7.03125 C 16.25 -7.55859 15.8887 -7.86133 15.3223 -7.86133 L 12.5098 -7.86133 L 12.5098 -10.6836 C 12.5098 -11.25 12.207 -11.6113 11.6797 -11.6113 C 11.1621 -11.6113 10.8789 -11.2305 10.8789 -10.6836 L 10.8789 -7.86133 L 8.07617 -7.86133 C 7.50977 -7.86133 7.13867 -7.55859 7.13867 -7.03125 C 7.13867 -6.51367 7.5293 -6.23047 8.07617 -6.23047 L 10.8789 -6.23047 L 10.8789 -3.59375 C 10.8789 -3.03711 11.1621 -2.66602 11.6797 -2.66602 Z"/>
  </g>
  <g id="" transform="matrix(1 0 0 1 304.924 1933)">
   <path d="M 14.9707 5.66406 C 21.9336 5.66406 27.6953 -0.0976562 27.6953 -7.05078 C 27.6953 -14.0137 21.9238 -19.7754 14.9609 -19.7754 C 8.00781 -19.7754 2.25586 -14.0137 2.25586 -7.05078 C 2.25586 -0.0976562 8.01758 5.66406 14.9707 5.66406 Z M 14.9707 3.84766 C 8.93555 3.84766 4.08203 -1.01562 4.08203 -7.05078 C 4.08203 -13.0957 8.92578 -17.9492 14.9609 -17.9492 C 21.0059 -17.9492 25.8594 -13.0957 25.8691 -7.05078 C 25.8789 -1.01562 21.0156 3.84766 14.9707 3.84766 Z M 14.9414 -1.38672 C 15.5176 -1.38672 15.8594 -1.77734 15.8594 -2.38281 L 15.8594 -6.13281 L 19.7754 -6.13281 C 20.3711 -6.13281 20.7812 -6.46484 20.7812 -7.02148 C 20.7812 -7.59766 20.3906 -7.93945 19.7754 -7.93945 L 15.8594 -7.93945 L 15.8594 -11.8652 C 15.8594 -12.4805 15.5176 -12.8711 14.9414 -12.8711 C 14.375 -12.8711 14.0527 -12.4609 14.0527 -11.8652 L 14.0527 -7.93945 L 10.1465 -7.93945 C 9.53125 -7.93945 9.13086 -7.59766 9.13086 -7.02148 C 9.13086 -6.46484 9.55078 -6.13281 10.1465 -6.13281 L 14.0527 -6.13281 L 14.0527 -2.38281 C 14.0527 -1.79688 14.375 -1.38672 14.9414 -1.38672 Z"/>
  </g>
  <text style="stroke:none;fill:black;font-family:-apple-system,&quot;SF Pro Display&quot;,&quot;SF Pro Text&quot;,Helvetica,sans-serif;font-weight:bold;" transform="matrix(1 0 0 1 263 1953)">Design Variations</text>
  <text style="stroke:none;fill:black;font-family:-apple-system,&quot;SF Pro Display&quot;,&quot;SF Pro Text&quot;,Helvetica,sans-serif;" transform="matrix(1 0 0 1 263 1971)">Symbols are supported in up to nine weights and three scales.</text>
  <text style="stroke:none;fill:black;font-family:-apple-system,&quot;SF Pro Display&quot;,&quot;SF Pro Text&quot;,Helvetica,sans-serif;" transform="matrix(1 0 0 1 263 1989)">For optimal layout with text and other symbols, vertically align</text>
  <text style="stroke:none;fill:black;font-family:-apple-system,&quot;SF Pro Display&quot;,&quot;SF Pro Text&quot;,Helvetica,sans-serif;" transform="matrix(1 0 0 1 263 2007)">symbols with the adjacent text.</text>
  <line id="" style="fill:none;stroke:#00AEEF;stroke-width:0.5;opacity:1.0;" x1="776" x2="776" y1="1919" y2="1933"/>
  <g id="" transform="matrix(1 0 0 1 776 1933)">
   <path d="M 3.31055 0.126953 C 3.82812 0.126953 4.08203 -0.0683594 4.26758 -0.605469 L 5.52734 -4.0625 L 11.2891 -4.0625 L 12.5488 -0.605469 C 12.7344 -0.0683594 12.9883 0.126953 13.4961 0.126953 C 14.0137 0.126953 14.3457 -0.185547 14.3457 -0.673828 C 14.3457 -0.839844 14.3164 -0.986328 14.2383 -1.20117 L 9.6582 -13.3887 C 9.43359 -13.9941 9.0332 -14.2871 8.4082 -14.2871 C 7.80273 -14.2871 7.39258 -13.9941 7.17773 -13.3984 L 2.59766 -1.19141 C 2.51953 -0.976562 2.49023 -0.830078 2.49023 -0.664062 C 2.49023 -0.175781 2.80273 0.126953 3.31055 0.126953 Z M 6.00586 -5.53711 L 8.37891 -12.1094 L 8.42773 -12.1094 L 10.8008 -5.53711 Z"/>
  </g>
  <line id="" style="fill:none;stroke:#00AEEF;stroke-width:0.5;opacity:1.0;" x1="792.836" x2="792.836" y1="1919" y2="1933"/>
  <text style="stroke:none;fill:black;font-family:-apple-system,&quot;SF Pro Display&quot;,&quot;SF Pro Text&quot;,Helvetica,sans-serif;font-weight:bold;" transform="matrix(1 0 0 1 776 1953)">Margins</text>
  <text style="stroke:none;fill:black;font-family:-apple-system,&quot;SF Pro Display&quot;,&quot;SF Pro Text&quot;,Helvetica,sans-serif;" transform="matrix(1 0 0 1 776 1971)">Leading and trailing margins on the left and right side of each symbol</text>
  <text style="stroke:none;fill:black;font-family:-apple-system,&quot;SF Pro Display&quot;,&quot;SF Pro Text&quot;,Helvetica,sans-serif;" transform="matrix(1 0 0 1 776 1989)">can be adjusted by modifying the x-location of the margin guidelines.</text>
  <text style="stroke:none;fill:black;font-family:-apple-system,&quot;SF Pro Display&quot;,&quot;SF Pro Text&quot;,Helvetica,sans-serif;" transform="matrix(1 0 0 1 776 2007)">Modifications are automatically applied proportionally to all</text>
  <text style="stroke:none;fill:black;font-family:-apple-system,&quot;SF Pro Display&quot;,&quot;SF Pro Text&quot;,Helvetica,sans-serif;" transform="matrix(1 0 0 1 776 2025)">scales and weights.</text>
  <g id="" transform="matrix(1 0 0 1 1289 1933)">
   <path d="M 2.8418 1.86523 L 4.54102 3.57422 C 5.40039 4.44336 6.38672 4.38477 7.31445 3.35938 L 17.4902 -7.85156 C 17.7539 -7.76367 18.0273 -7.7832 18.3398 -7.8418 L 19.4043 -8.03711 L 20.0684 -7.36328 L 20.0293 -6.80664 C 19.9902 -6.30859 20.1172 -5.92773 20.6055 -5.44922 L 21.3672 -4.70703 C 21.8457 -4.22852 22.4609 -4.19922 22.9297 -4.66797 L 25.8398 -7.58789 C 26.3086 -8.05664 26.2891 -8.65234 25.8105 -9.13086 L 25.0391 -9.89258 C 24.5605 -10.3711 24.1895 -10.5273 23.7109 -10.4883 L 23.1348 -10.4395 L 22.4902 -11.0742 L 22.7344 -12.1973 C 22.8613 -12.7637 22.7051 -13.2031 22.1191 -13.7891 L 19.9219 -15.9766 C 16.582 -19.2969 12.1484 -19.2188 9.25781 -16.3281 C 8.83789 -15.918 8.80859 -15.3418 9.04297 -14.9512 C 9.27734 -14.5898 9.73633 -14.3555 10.3809 -14.5215 C 11.8457 -14.8633 13.3691 -14.9219 14.7949 -13.9844 L 14.209 -12.5293 C 14.0137 -12.0508 13.9844 -11.6504 14.1113 -11.2891 L 3.04688 -0.898438 C 2.06055 0.0195312 1.98242 0.996094 2.8418 1.86523 Z M 10.752 -15.957 C 13.1836 -17.7344 16.4746 -17.4316 18.7012 -15.2051 L 21.1328 -12.793 C 21.3672 -12.5586 21.4062 -12.373 21.3379 -12.0312 L 21.0156 -10.5469 L 22.5195 -9.0625 L 23.5059 -9.12109 C 23.7598 -9.13086 23.8379 -9.11133 24.0332 -8.91602 L 24.6094 -8.33984 L 22.168 -5.89844 L 21.5918 -6.47461 C 21.3965 -6.66992 21.3672 -6.74805 21.377 -7.01172 L 21.4453 -7.98828 L 19.9512 -9.47266 L 18.4277 -9.21875 C 18.1055 -9.15039 17.959 -9.17969 17.7148 -9.41406 L 15.7129 -11.416 C 15.459 -11.6504 15.4297 -11.8164 15.5859 -12.1875 L 16.4648 -14.2773 C 14.9023 -15.7324 12.8711 -16.3574 10.8398 -15.7617 C 10.6836 -15.7227 10.625 -15.8496 10.752 -15.957 Z M 5.27344 2.30469 L 4.10156 1.14258 C 3.63281 0.683594 3.74023 0.341797 4.14062 -0.0195312 L 14.9512 -10.1953 L 16.416 -8.71094 L 6.42578 2.27539 C 6.07422 2.67578 5.74219 2.77344 5.27344 2.30469 Z"/>
  </g>
  <text style="stroke:none;fill:black;font-family:-apple-system,&quot;SF Pro Display&quot;,&quot;SF Pro Text&quot;,Helvetica,sans-serif;font-weight:bold;" transform="matrix(1 0 0 1 1289 1953)">Exporting</text>
  <text style="stroke:none;fill:black;font-family:-apple-system,&quot;SF Pro Display&quot;,&quot;SF Pro Text&quot;,Helvetica,sans-serif;" transform="matrix(1 0 0 1 1289 1971)">Symbols should be outlined when exporting to ensure the</text>
  <text style="stroke:none;fill:black;font-family:-apple-system,&quot;SF Pro Display&quot;,&quot;SF Pro Text&quot;,Helvetica,sans-serif;" transform="matrix(1 0 0 1 1289 1989)">design is preserved when submitting to Xcode.</text>
  <text id="template-version" style="stroke:none;fill:black;font-family:-apple-system,&quot;SF Pro Display&quot;,&quot;SF Pro Text&quot;,Helvetica,sans-serif;text-anchor:end;" transform="matrix(1 0 0 1 3036 1933)">Template v.2.0</text>
  <text style="stroke:none;fill:black;font-family:-apple-system,&quot;SF Pro Display&quot;,&quot;SF Pro Text&quot;,Helvetica,sans-serif;text-anchor:end;" transform="matrix(1 0 0 1 3036 1951)">Requires Xcode 12 or greater</text>
  <text style="stroke:none;fill:black;font-family:-apple-system,&quot;SF Pro Display&quot;,&quot;SF Pro Text&quot;,Helvetica,sans-serif;text-anchor:end;" transform="matrix(1 0 0 1 3036 1969)">Generated from goforward.60</text>
  <text style="stroke:none;fill:black;font-family:-apple-system,&quot;SF Pro Display&quot;,&quot;SF Pro Text&quot;,Helvetica,sans-serif;text-anchor:end;" transform="matrix(1 0 0 1 3036 1987)">Typeset at 100 points</text>
  <text style="stroke:none;fill:black;font-family:-apple-system,&quot;SF Pro Display&quot;,&quot;SF Pro Text&quot;,Helvetica,sans-serif;" transform="matrix(1 0 0 1 263 726)">Small</text>
  <text style="stroke:none;fill:black;font-family:-apple-system,&quot;SF Pro Display&quot;,&quot;SF Pro Text&quot;,Helvetica,sans-serif;" transform="matrix(1 0 0 1 263 1156)">Medium</text>
  <text style="stroke:none;fill:black;font-family:-apple-system,&quot;SF Pro Display&quot;,&quot;SF Pro Text&quot;,Helvetica,sans-serif;" transform="matrix(1 0 0 1 263 1586)">Large</text>
 </g>
 <g id="Guides">
  <g id="H-reference" style="fill:#27AAE1;stroke:none;" transform="matrix(1 0 0 1 339 696)">
   <path d="M 0.976562 0 L 3.66211 0 L 12.9883 -24.4629 L 45.7031 -24.4629 L 55.0781 0 L 57.7148 0 L 30.6152 -70.459 L 28.125 -70.459 Z M 29.2969 -67.1387 L 29.3945 -67.1387 L 44.873 -26.709 L 13.8672 -26.709 Z"/>
  </g>
  <line id="Baseline-S" style="fill:none;stroke:#27AAE1;opacity:1;stroke-width:0.5;" x1="263" x2="3036" y1="696" y2="696"/>
  <line id="Capline-S" style="fill:none;stroke:#27AAE1;opacity:1;stroke-width:0.5;" x1="263" x2="3036" y1="625.541" y2="625.541"/>
  <g id="H-reference" style="fill:#27AAE1;stroke:none;" transform="matrix(1 0 0 1 339 1126)">
   <path d="M 0.976562 0 L 3.66211 0 L 12.9883 -24.4629 L 45.7031 -24.4629 L 55.0781 0 L 57.7148 0 L 30.6152 -70.459 L 28.125 -70.459 Z M 29.2969 -67.1387 L 29.3945 -67.1387 L 44.873 -26.709 L 13.8672 -26.709 Z"/>
  </g>
  <line id="Baseline-M" style="fill:none;stroke:#27AAE1;opacity:1;stroke-width:0.5;" x1="263" x2="3036" y1="1126" y2="1126"/>
  <line id="Capline-M" style="fill:none;stroke:#27AAE1;opacity:1;stroke-width:0.5;" x1="263" x2="3036" y1="1055.54" y2="1055.54"/>
  <g id="H-reference" style="fill:#27AAE1;stroke:none;" transform="matrix(1 0 0 1 339 1556)">
   <path d="M 0.976562 0 L 3.66211 0 L 12.9883 -24.4629 L 45.7031 -24.4629 L 55.0781 0 L 57.7148 0 L 30.6152 -70.459 L 28.125 -70.459 Z M 29.2969 -67.1387 L 29.3945 -67.1387 L 44.873 -26.709 L 13.8672 -26.709 Z"/>
  </g>
  <line id="Baseline-L" style="fill:none;stroke:#27AAE1;opacity:1;stroke-width:0.5;" x1="263" x2="3036" y1="1556" y2="1556"/>
  <line id="Capline-L" style="fill:none;stroke:#27AAE1;opacity:1;stroke-width:0.5;" x1="263" x2="3036" y1="1485.54" y2="1485.54"/>
  <line id="left-margin" style="fill:none;stroke:#00AEEF;stroke-width:0.5;opacity:1.0;" x1="1391.3" x2="1391.3" y1="1030.79" y2="1150.12"/>
  <line id="right-margin" style="fill:none;stroke:#00AEEF;stroke-width:0.5;opacity:1.0;" x1="1508.39" x2="1508.39" y1="1030.79" y2="1150.12"/>
 </g>
 <g id="Symbols">
  <g id="Black-L" transform="matrix(1 0 0 1 2854.05 1556)">
   <path d="M 79.3457 32.8125 C 116.748 32.8125 147.412 2.14844 147.412 -35.2539 C 147.412 -52.9297 139.111 -73.0957 126.807 -83.6914 C 121.338 -88.5742 115.234 -88.5254 111.377 -84.3262 C 107.08 -79.6875 108.545 -73.584 112.793 -68.9941 C 121.68 -59.8145 126.953 -48.5352 126.953 -35.2539 C 127.002 -8.88672 105.713 12.3535 79.3457 12.3535 C 52.9785 12.3535 31.7383 -8.88672 31.7383 -35.2539 C 31.7383 -56.1523 45.0195 -73.8281 63.6719 -80.2734 L 63.6719 -71.582 C 63.6719 -65.5762 68.9453 -63.7207 74.3652 -67.6758 L 99.1699 -85.8398 C 103.467 -88.9648 103.369 -94.1406 99.1699 -97.2168 L 74.3652 -115.479 C 69.043 -119.385 63.6719 -117.725 63.6719 -111.523 L 63.6719 -101.514 C 33.7402 -94.3848 11.2793 -67.334 11.2793 -35.2539 C 11.2793 2.14844 41.9434 32.8125 79.3457 32.8125 Z M 99.4629 -7.27539 C 109.326 -7.27539 117.285 -16.6504 117.285 -33.252 C 117.285 -49.8535 109.326 -59.2285 99.4629 -59.2285 C 89.6484 -59.2285 82.1289 -51.2207 82.1289 -33.2031 C 82.1289 -15.2832 89.6484 -7.27539 99.4629 -7.27539 Z M 61.2793 -7.27539 C 71.4844 -7.27539 78.1738 -14.5508 78.1738 -25.6836 C 78.1738 -35.0098 71.5332 -40.6738 64.3066 -40.6738 C 59.9121 -40.6738 56.25 -38.3789 54.1504 -35.1562 C 54.0527 -35.6934 54.0527 -36.2793 54.0527 -37.1094 C 54.0527 -44.1406 57.373 -48.2422 61.5723 -48.2422 C 63.916 -48.2422 65.5273 -47.2168 66.748 -45.8008 C 67.9199 -44.2871 69.4336 -43.75 71.4355 -43.75 C 74.0723 -43.75 76.4648 -45.6055 76.4648 -48.6328 C 76.4648 -50.1953 76.2207 -51.3184 75.5371 -52.5879 C 73.584 -56.3477 68.9453 -59.2285 62.2559 -59.2285 C 50.8789 -59.2285 42.5293 -49.9512 42.5293 -33.0078 C 42.5293 -26.8555 43.457 -21.1914 45.6055 -16.9434 C 48.7793 -10.5469 54.1504 -7.27539 61.2793 -7.27539 Z M 99.707 -19.043 C 96.582 -19.043 94.9707 -23.6328 94.9707 -33.252 C 94.9707 -42.9199 96.582 -47.4609 99.707 -47.4609 C 102.881 -47.4609 104.443 -42.9199 104.443 -33.252 C 104.443 -23.6328 102.832 -19.043 99.707 -19.043 Z M 60.5469 -17.8711 C 57.3242 -17.8711 55.0293 -20.5078 55.0293 -24.4141 C 55.0293 -28.3203 57.3242 -30.9082 60.5469 -30.9082 C 63.8184 -30.9082 66.0645 -28.2715 66.0645 -24.4141 C 66.0645 -20.459 63.8184 -17.8711 60.5469 -17.8711 Z"/>
  </g>
  <g id="Heavy-L" transform="matrix(1 0 0 1 2558.39 1556)">
   <path d="M 78.2715 31.7383 C 115.088 31.7383 145.312 1.5625 145.312 -35.2539 C 145.312 -53.8574 136.328 -73.7793 122.998 -84.5703 C 118.262 -88.7207 112.891 -88.5254 109.668 -84.8633 C 106.055 -80.7617 107.324 -75.4883 111.084 -71.582 C 121.289 -62.3047 127.49 -49.8047 127.539 -35.2539 C 127.539 -8.00781 105.566 13.9648 78.2715 13.9648 C 51.0254 13.9648 29.0527 -8.00781 29.0527 -35.2539 C 29.0527 -57.4219 43.5059 -76.0254 63.5254 -82.2754 L 63.5254 -73.2422 C 63.5254 -67.6758 68.2129 -66.0156 73.0469 -69.5312 L 96.7285 -86.7188 C 100.586 -89.5508 100.537 -94.0918 96.7285 -96.9238 L 73.0957 -114.111 C 68.2617 -117.676 63.5254 -116.113 63.5254 -110.449 L 63.5254 -100.635 C 33.7402 -93.8477 11.2793 -66.9922 11.2793 -35.2539 C 11.2793 1.5625 41.5039 31.7383 78.2715 31.7383 Z M 98.7793 -7.66602 C 108.74 -7.66602 116.455 -17.1387 116.455 -33.3984 C 116.455 -49.6582 108.74 -59.2285 98.7793 -59.2285 C 88.7695 -59.2285 81.4453 -50.6836 81.4453 -33.3496 C 81.4453 -16.1133 88.8184 -7.66602 98.7793 -7.66602 Z M 59.7168 -7.66602 C 69.9219 -7.66602 76.5625 -14.7949 76.5625 -25.6836 C 76.5625 -34.9609 69.9707 -40.8203 62.4512 -40.8203 C 57.6172 -40.8203 53.7598 -38.3789 51.709 -34.8633 C 51.6602 -35.3027 51.6602 -35.7422 51.6602 -36.3281 C 51.6602 -44.4336 55.2734 -49.2676 60.1562 -49.2676 C 62.8906 -49.2676 64.6484 -48.1445 65.918 -46.3867 C 67.041 -44.9219 68.4082 -44.3359 70.3125 -44.3359 C 72.7539 -44.3359 74.8535 -46.0449 74.8535 -48.7793 C 74.8535 -50.1465 74.5605 -51.2207 74.0234 -52.2949 C 72.168 -56.1523 67.5293 -59.1797 60.7422 -59.1797 C 49.2188 -59.1797 41.2598 -49.8535 41.2598 -32.9102 C 41.2598 -26.6602 42.2363 -21.0449 44.3359 -16.8945 C 47.4609 -10.791 52.7832 -7.66602 59.7168 -7.66602 Z M 98.9746 -18.2129 C 95.1172 -18.2129 92.9199 -23.3887 92.9199 -33.3984 C 92.9199 -43.457 95.0684 -48.6816 98.9746 -48.6816 C 102.832 -48.6816 104.98 -43.5059 104.98 -33.3984 C 104.98 -23.3887 102.783 -18.2129 98.9746 -18.2129 Z M 59.082 -17.1875 C 55.2734 -17.1875 52.5391 -20.2148 52.5391 -24.6582 C 52.5391 -29.0039 55.2734 -32.0312 59.082 -32.0312 C 62.9395 -32.0312 65.625 -29.0039 65.625 -24.6582 C 65.625 -20.1172 63.0371 -17.1875 59.082 -17.1875 Z"/>
  </g>
  <g id="Bold-L" transform="matrix(1 0 0 1 2262.88 1556)">
   <path d="M 77.0996 30.5664 C 113.232 30.5664 142.92 0.878906 142.92 -35.2539 C 142.92 -54.834 133.252 -74.5117 118.75 -85.5469 C 114.844 -88.8672 110.303 -88.5742 107.764 -85.4004 C 104.932 -81.9336 106.006 -77.6367 109.229 -74.5117 C 120.801 -65.0879 128.125 -51.2207 128.174 -35.2539 C 128.174 -6.93359 105.371 15.8203 77.0996 15.8203 C 48.8281 15.8203 26.0742 -6.93359 26.0742 -35.2539 C 26.0742 -58.7891 41.7969 -78.5156 63.3789 -84.4727 L 63.3789 -75.0488 C 63.3789 -70.0684 67.3828 -68.6035 71.6309 -71.6797 L 93.9453 -87.6953 C 97.3633 -90.1855 97.3633 -94.0918 93.9453 -96.582 L 71.6797 -112.646 C 67.4316 -115.723 63.3789 -114.307 63.3789 -109.229 L 63.3789 -99.6094 C 33.7402 -93.2129 11.2793 -66.6504 11.2793 -35.2539 C 11.2793 0.878906 41.0156 30.5664 77.0996 30.5664 Z M 97.998 -8.10547 C 108.105 -8.10547 115.527 -17.7246 115.527 -33.5938 C 115.527 -49.4629 108.105 -59.1797 97.998 -59.1797 C 87.8418 -59.1797 80.6641 -50.1465 80.6641 -33.5449 C 80.6641 -17.041 87.8906 -8.10547 97.998 -8.10547 Z M 57.959 -8.10547 C 68.1152 -8.10547 74.7559 -15.0391 74.7559 -25.7324 C 74.7559 -34.9121 68.2617 -41.0156 60.3516 -41.0156 C 55.0293 -41.0156 50.9277 -38.3301 48.9746 -34.5215 C 48.9258 -34.8145 48.9258 -35.1562 48.9258 -35.5469 C 48.9258 -44.7266 52.8809 -50.4395 58.5449 -50.4395 C 61.7188 -50.4395 63.623 -49.1699 64.9902 -47.0703 C 66.0156 -45.6055 67.2363 -45.0195 69.0918 -45.0195 C 71.2402 -45.0195 72.998 -46.582 72.998 -48.9746 C 72.998 -50.1465 72.7539 -51.0742 72.3145 -52.002 C 70.6055 -55.9082 65.918 -59.1309 59.0332 -59.1309 C 47.3633 -59.1309 39.8438 -49.7559 39.8438 -32.8125 C 39.8438 -26.4648 40.8203 -20.8984 42.9199 -16.8945 C 45.9473 -11.084 51.2207 -8.10547 57.959 -8.10547 Z M 98.1445 -17.2852 C 93.457 -17.2852 90.6738 -23.1445 90.6738 -33.5938 C 90.6738 -44.1406 93.457 -50 98.1445 -50 C 102.783 -50 105.518 -44.1406 105.518 -33.5938 C 105.518 -23.1445 102.734 -17.2852 98.1445 -17.2852 Z M 57.4707 -16.4551 C 52.9785 -16.4551 49.7559 -19.9219 49.7559 -24.9023 C 49.7559 -29.834 52.9785 -33.2031 57.4707 -33.2031 C 62.0117 -33.2031 65.1367 -29.834 65.1367 -24.9023 C 65.1367 -19.7266 62.1094 -16.4551 57.4707 -16.4551 Z"/>
  </g>
  <g id="Semibold-L" transform="matrix(1 0 0 1 1966.97 1556)">
   <path d="M 76.2695 29.7852 C 111.914 29.7852 141.309 0.390625 141.309 -35.2051 C 141.309 -55.5176 131.152 -75 115.82 -86.2305 C 112.5 -89.0137 108.545 -88.5742 106.445 -85.791 C 104.15 -82.7637 105.078 -79.1016 107.91 -76.5137 C 120.508 -66.9922 128.564 -52.1973 128.613 -35.2051 C 128.662 -6.25 105.273 17.0898 76.2695 17.0898 C 47.3145 17.0898 24.0234 -6.25 24.0234 -35.2051 C 24.0234 -59.7168 40.625 -80.1758 63.2812 -85.9375 L 63.2812 -76.3184 C 63.2812 -71.7285 66.7969 -70.3613 70.6543 -73.1445 L 92.041 -88.3789 C 95.166 -90.625 95.166 -94.0918 92.041 -96.3379 L 70.7031 -111.572 C 66.8457 -114.355 63.2812 -113.086 63.2812 -108.398 L 63.2812 -98.9258 C 33.7402 -92.8223 11.2793 -66.4062 11.2793 -35.2051 C 11.2793 0.390625 40.6738 29.7852 76.2695 29.7852 Z M 97.4609 -8.34961 C 107.666 -8.34961 114.893 -18.1152 114.893 -33.6914 C 114.893 -49.3652 107.666 -59.1309 97.4609 -59.1309 C 87.207 -59.1309 80.1758 -49.7559 80.1758 -33.6426 C 80.1758 -17.627 87.2559 -8.34961 97.4609 -8.34961 Z M 56.7383 -8.34961 C 66.8945 -8.34961 73.5352 -15.2344 73.5352 -25.7324 C 73.5352 -34.9121 67.0898 -41.1133 58.8867 -41.1133 C 53.2715 -41.1133 49.0234 -38.3301 47.1191 -34.3262 C 47.0703 -34.5215 47.0703 -34.7168 47.0703 -34.9609 C 47.0703 -44.9707 51.2695 -51.2695 57.4707 -51.2695 C 60.8887 -51.2695 62.8906 -49.8535 64.3066 -47.5586 C 65.332 -46.0938 66.4551 -45.459 68.2129 -45.459 C 70.2148 -45.459 71.7285 -46.9238 71.7285 -49.1211 C 71.7285 -50.1465 71.5332 -50.9766 71.1426 -51.8066 C 69.5312 -55.7617 64.7949 -59.082 57.8613 -59.082 C 46.0938 -59.082 38.8672 -49.6582 38.8672 -32.7637 C 38.8672 -26.3184 39.8926 -20.8008 41.9922 -16.8457 C 44.9219 -11.2793 50.1465 -8.34961 56.7383 -8.34961 Z M 97.5586 -16.6016 C 92.334 -16.6016 89.1113 -22.9492 89.1113 -33.6914 C 89.1113 -44.5801 92.2852 -50.8789 97.5586 -50.8789 C 102.734 -50.8789 105.908 -44.6289 105.908 -33.6914 C 105.908 -22.9492 102.734 -16.6016 97.5586 -16.6016 Z M 56.3477 -15.918 C 51.416 -15.918 47.8516 -19.7266 47.8516 -25.0977 C 47.8516 -30.3711 51.416 -34.0332 56.3477 -34.0332 C 61.3281 -34.0332 64.7949 -30.4199 64.7949 -25.0977 C 64.7949 -19.4824 61.4258 -15.918 56.3477 -15.918 Z"/>
  </g>
  <g id="Medium-L" transform="matrix(1 0 0 1 1670.87 1556)">
   <path d="M 75.6836 29.1992 C 110.938 29.1992 140.088 0.0488281 140.088 -35.2051 C 140.088 -56.0547 129.492 -75.3906 113.623 -86.7676 C 110.693 -89.1113 107.178 -88.5742 105.42 -86.084 C 103.564 -83.3984 104.395 -80.2246 106.934 -78.0273 C 120.264 -68.457 128.906 -52.9297 128.906 -35.2051 C 128.955 -5.71289 105.176 18.0176 75.6836 18.0176 C 46.1426 18.0176 22.4609 -5.71289 22.4609 -35.2051 C 22.4609 -60.4492 39.7461 -81.4453 63.1836 -87.0117 L 63.1836 -77.2461 C 63.1836 -72.9492 66.3574 -71.7285 69.9219 -74.2188 L 90.625 -88.8672 C 93.5059 -90.918 93.5059 -94.043 90.625 -96.1426 L 69.9707 -110.791 C 66.4062 -113.379 63.1836 -112.158 63.1836 -107.764 L 63.1836 -98.3887 C 33.7891 -92.4805 11.2793 -66.2598 11.2793 -35.2051 C 11.2793 0.0488281 40.3809 29.1992 75.6836 29.1992 Z M 97.0703 -8.59375 C 107.324 -8.59375 114.404 -18.4082 114.404 -33.7891 C 114.404 -49.2188 107.324 -59.1309 97.0703 -59.1309 C 86.7188 -59.1309 79.7852 -49.4629 79.7852 -33.7402 C 79.7852 -18.1152 86.7676 -8.59375 97.0703 -8.59375 Z M 55.8594 -8.59375 C 65.9668 -8.59375 72.6074 -15.3809 72.6074 -25.7324 C 72.6074 -34.8633 66.1621 -41.2109 57.8125 -41.2109 C 51.9531 -41.2109 47.6074 -38.3301 45.7031 -34.1797 C 45.7031 -34.2773 45.7031 -34.375 45.7031 -34.5215 C 45.7031 -45.1172 50 -51.8555 56.6406 -51.8555 C 60.2539 -51.8555 62.4023 -50.3906 63.8184 -47.9492 C 64.8438 -46.4355 65.8691 -45.8496 67.5781 -45.8496 C 69.3848 -45.8496 70.752 -47.2168 70.752 -49.2188 C 70.752 -50.0977 70.5566 -50.9277 70.2637 -51.6602 C 68.7012 -55.6641 63.9648 -59.0332 56.9824 -59.0332 C 45.1172 -59.0332 38.0859 -49.6094 38.0859 -32.7148 C 38.0859 -26.1719 39.1602 -20.7031 41.2109 -16.8457 C 44.1406 -11.4258 49.3652 -8.59375 55.8594 -8.59375 Z M 97.1191 -16.1133 C 91.5039 -16.1133 87.9395 -22.8027 87.9395 -33.7891 C 87.9395 -44.9219 91.4551 -51.6113 97.1191 -51.6113 C 102.734 -51.6113 106.201 -44.9707 106.201 -33.7891 C 106.201 -22.8027 102.686 -16.1133 97.1191 -16.1133 Z M 55.4688 -15.5273 C 50.2441 -15.5273 46.4355 -19.5312 46.4355 -25.2441 C 46.4355 -30.8105 50.2441 -34.668 55.5176 -34.668 C 60.8398 -34.668 64.5508 -30.8594 64.5508 -25.1953 C 64.5508 -19.2871 60.9863 -15.5273 55.4688 -15.5273 Z"/>
  </g>
  <g id="Regular-L" transform="matrix(1 0 0 1 1374.97 1556)">
   <path d="M 74.8535 28.3691 C 109.668 28.3691 138.477 -0.390625 138.477 -35.2051 C 138.477 -56.7383 127.393 -75.9277 110.742 -87.4023 C 108.35 -89.209 105.42 -88.5742 104.102 -86.4258 C 102.783 -84.1797 103.467 -81.6406 105.664 -80.0293 C 119.922 -70.3125 129.297 -53.9062 129.346 -35.2051 C 129.395 -5.0293 105.078 19.2871 74.8535 19.2871 C 44.6777 19.2871 20.4102 -5.0293 20.4102 -35.2051 C 20.4102 -61.377 38.5742 -83.1055 63.0859 -88.4277 L 63.0859 -78.5156 C 63.0859 -74.5605 65.8203 -73.4863 68.9453 -75.6836 L 88.7207 -89.5508 C 91.3086 -91.3574 91.3574 -94.043 88.7207 -95.8984 L 68.9941 -109.766 C 65.8203 -112.012 63.0859 -110.938 63.0859 -106.934 L 63.0859 -97.7051 C 33.7891 -92.0898 11.2793 -66.0156 11.2793 -35.2051 C 11.2793 -0.390625 40.0879 28.3691 74.8535 28.3691 Z M 96.5332 -8.88672 C 106.885 -8.88672 113.77 -18.7988 113.77 -33.9355 C 113.77 -49.1211 106.885 -59.1309 96.5332 -59.1309 C 86.084 -59.1309 79.248 -49.1211 79.248 -33.8867 C 79.248 -18.75 86.1328 -8.88672 96.5332 -8.88672 Z M 54.6387 -8.88672 C 64.7461 -8.88672 71.3867 -15.5273 71.3867 -25.7324 C 71.3867 -34.8633 64.9902 -41.3574 56.3965 -41.3574 C 50.2441 -41.3574 45.7031 -38.3301 43.8477 -34.0332 C 43.8477 -45.3613 48.3887 -52.6367 55.5664 -52.6367 C 59.4727 -52.6367 61.6699 -51.0742 63.1836 -48.3887 C 64.1113 -46.9238 65.0391 -46.2891 66.748 -46.2891 C 68.3594 -46.2891 69.4824 -47.5586 69.4824 -49.3652 C 69.4824 -50.0977 69.3359 -50.8301 69.1406 -51.416 C 67.627 -55.5176 62.8906 -58.9844 55.8594 -58.9844 C 43.8477 -58.9844 37.1094 -49.5117 37.1094 -32.6172 C 37.1094 -26.0254 38.1836 -20.6055 40.2832 -16.7969 C 43.1152 -11.6211 48.291 -8.88672 54.6387 -8.88672 Z M 96.5332 -15.4785 C 90.3809 -15.4785 86.377 -22.6562 86.377 -33.9355 C 86.377 -45.3613 90.332 -52.4902 96.5332 -52.4902 C 102.686 -52.4902 106.592 -45.4102 106.592 -33.9355 C 106.592 -22.6562 102.637 -15.4785 96.5332 -15.4785 Z M 54.3945 -15.0391 C 48.6816 -15.0391 44.5312 -19.3359 44.5312 -25.4395 C 44.5312 -31.3477 48.6816 -35.498 54.3945 -35.498 C 60.2051 -35.498 64.2578 -31.4453 64.2578 -25.3906 C 64.2578 -19.043 60.3516 -15.0391 54.3945 -15.0391 Z"/>
  </g>
  <g id="Light-L" transform="matrix(1 0 0 1 1079.18 1556)">
   <path d="M 73.9258 27.4902 C 108.301 27.4902 136.621 -0.830078 136.621 -35.1562 C 136.621 -57.0801 125.049 -76.5137 107.715 -87.6953 C 105.908 -89.0137 103.711 -88.5254 102.734 -86.8652 C 101.758 -85.1562 102.295 -83.2031 103.955 -82.0312 C 119.434 -72.2168 129.688 -54.9316 129.736 -35.1562 C 129.736 -4.3457 104.785 20.6055 73.9258 20.6055 C 43.1152 20.6055 18.2129 -4.3457 18.2129 -35.1562 C 18.2129 -62.1582 37.2559 -84.6191 62.6465 -89.7949 L 62.6465 -78.7109 C 62.6465 -75.4883 64.8926 -74.5117 67.5781 -76.416 L 86.9629 -89.9902 C 89.1602 -91.5039 89.209 -93.75 86.9629 -95.3125 L 67.627 -108.887 C 64.8926 -110.791 62.6465 -109.814 62.6465 -106.592 L 62.6465 -96.8262 C 33.5938 -91.4551 11.2793 -65.6738 11.2793 -35.1562 C 11.2793 -0.830078 39.5996 27.4902 73.9258 27.4902 Z M 96.1914 -9.08203 C 106.494 -9.08203 113.379 -18.9941 113.379 -34.1309 C 113.379 -49.2676 106.494 -59.2773 96.1914 -59.2773 C 85.8398 -59.2773 78.9551 -49.2676 78.9551 -34.082 C 78.9551 -18.9941 85.8398 -9.08203 96.1914 -9.08203 Z M 53.8086 -9.08203 C 63.8672 -9.08203 70.5078 -15.6738 70.5078 -25.6836 C 70.5078 -34.7168 64.0137 -41.2598 55.2734 -41.2598 C 48.4375 -41.2598 43.6523 -37.793 41.748 -33.1543 C 41.748 -33.252 41.748 -33.3496 41.748 -33.4473 C 41.748 -46.0938 46.6797 -54.0039 54.7852 -54.0039 C 59.5215 -54.0039 61.9629 -52.0996 63.5742 -48.9746 C 64.3555 -47.6562 65.0879 -47.168 66.4551 -47.168 C 67.8223 -47.168 68.7012 -48.1445 68.7012 -49.6582 C 68.7012 -50.293 68.5547 -50.8301 68.3594 -51.3672 C 67.1875 -55.1758 62.5488 -59.082 54.9805 -59.082 C 43.1152 -59.082 36.3281 -49.5605 36.3281 -32.666 C 36.3281 -26.1719 37.4512 -20.752 39.4043 -17.1387 C 42.2363 -11.8652 47.4609 -9.08203 53.8086 -9.08203 Z M 96.1914 -14.3555 C 89.2578 -14.3555 84.6191 -22.168 84.6191 -34.1309 C 84.6191 -46.1914 89.209 -54.0039 96.1914 -54.0039 C 103.125 -54.0039 107.666 -46.1914 107.666 -34.1309 C 107.666 -22.168 103.076 -14.3555 96.1914 -14.3555 Z M 53.6621 -14.0137 C 47.2168 -14.0137 42.5293 -18.7988 42.5293 -25.3906 C 42.5293 -31.8359 47.2168 -36.4746 53.7109 -36.4746 C 60.2051 -36.4746 64.7949 -32.0312 64.7949 -25.3418 C 64.7949 -18.457 60.3516 -14.0137 53.6621 -14.0137 Z"/>
  </g>
  <g id="Thin-L" transform="matrix(1 0 0 1 783.693 1556)">
   <path d="M 72.7051 26.3184 C 106.494 26.3184 134.18 -1.36719 134.18 -35.1074 C 134.18 -57.5684 121.973 -77.2949 103.76 -88.0371 C 102.686 -88.7207 101.465 -88.3789 100.928 -87.4512 C 100.439 -86.4746 100.732 -85.3027 101.709 -84.668 C 118.75 -74.6582 130.176 -56.25 130.176 -35.1074 C 130.176 -3.41797 104.443 22.3145 72.7051 22.3145 C 41.0156 22.3145 15.2832 -3.41797 15.2832 -35.1074 C 15.2832 -63.1836 35.4492 -86.6211 62.1094 -91.6016 L 62.1094 -79.0039 C 62.1094 -76.7578 63.7207 -75.9277 65.7715 -77.3926 L 84.6191 -90.5273 C 86.3281 -91.748 86.3281 -93.3594 84.6191 -94.5801 L 65.8203 -107.715 C 63.7207 -109.18 62.1094 -108.35 62.1094 -106.104 L 62.1094 -95.6543 C 33.3496 -90.5762 11.2793 -65.2832 11.2793 -35.1074 C 11.2793 -1.36719 38.9648 26.3184 72.7051 26.3184 Z M 95.752 -9.32617 C 105.908 -9.32617 112.842 -19.2871 112.842 -34.375 C 112.842 -49.4629 105.908 -59.5215 95.752 -59.5215 C 85.498 -59.5215 78.6133 -49.4629 78.6133 -34.375 C 78.6133 -19.2871 85.498 -9.32617 95.752 -9.32617 Z M 52.6855 -9.32617 C 62.6465 -9.32617 69.3848 -15.8203 69.3848 -25.5859 C 69.3848 -34.5703 62.7441 -41.1133 53.8086 -41.1133 C 46.0449 -41.1133 40.9668 -37.0605 39.0137 -32.0312 C 38.9648 -32.4219 38.9648 -32.6172 38.9648 -32.7148 C 38.9648 -47.1191 44.4336 -55.8105 53.7598 -55.8105 C 59.5703 -55.8105 62.3535 -53.418 64.0625 -49.7559 C 64.5996 -48.6816 65.1367 -48.291 66.1133 -48.291 C 67.041 -48.291 67.627 -48.9746 67.627 -50.0488 C 67.627 -50.4883 67.4805 -50.7812 67.334 -51.2207 C 66.6016 -54.6875 62.0605 -59.1797 53.8574 -59.1797 C 42.0898 -59.1797 35.3027 -49.5605 35.3027 -32.7637 C 35.3027 -26.3184 36.377 -20.8984 38.2324 -17.5293 C 41.1133 -12.2559 46.3379 -9.32617 52.6855 -9.32617 Z M 95.752 -12.8418 C 87.7441 -12.8418 82.3242 -21.5332 82.3242 -34.375 C 82.3242 -47.2656 87.7441 -55.957 95.752 -55.957 C 103.711 -55.957 109.082 -47.2656 109.082 -34.375 C 109.082 -21.5332 103.711 -12.8418 95.752 -12.8418 Z M 52.6855 -12.6953 C 45.2637 -12.6953 39.7949 -18.0176 39.7949 -25.3906 C 39.7949 -32.4707 45.3125 -37.7441 52.7832 -37.7441 C 60.2539 -37.7441 65.5273 -32.7637 65.5273 -25.293 C 65.5273 -17.6758 60.3516 -12.6953 52.6855 -12.6953 Z"/>
  </g>
  <g id="Ultralight-L" transform="matrix(1 0 0 1 487.616 1556)">
   <path d="M 72.1191 25.7324 C 105.566 25.7324 132.91 -1.61133 132.91 -35.1074 C 132.91 -57.8125 120.361 -77.6855 101.758 -88.1836 C 101.025 -88.623 100.293 -88.3301 100 -87.7441 C 99.707 -87.1582 99.9023 -86.377 100.537 -86.0352 C 118.408 -75.9277 130.42 -56.8848 130.42 -35.1074 C 130.42 -2.97852 104.248 23.2422 72.1191 23.2422 C 39.9414 23.2422 13.7695 -2.97852 13.7695 -35.1074 C 13.7695 -63.7207 34.5703 -87.6465 61.8164 -92.4805 L 61.8164 -79.1504 C 61.8164 -77.3926 63.0859 -76.6113 64.8926 -77.8809 L 83.3984 -90.8203 C 84.8633 -91.8457 84.8633 -93.1641 83.3984 -94.1895 L 64.8926 -107.129 C 63.0859 -108.398 61.8164 -107.617 61.8164 -105.859 L 61.8164 -95.0195 C 33.2031 -90.1367 11.2793 -65.0391 11.2793 -35.1074 C 11.2793 -1.61133 38.623 25.7324 72.1191 25.7324 Z M 95.5078 -9.42383 C 105.615 -9.42383 112.549 -19.4336 112.549 -34.5215 C 112.549 -49.5605 105.615 -59.6191 95.5078 -59.6191 C 85.3516 -59.6191 78.418 -49.5605 78.418 -34.5215 C 78.418 -19.4336 85.3516 -9.42383 95.5078 -9.42383 Z M 52.0996 -9.42383 C 62.0605 -9.42383 68.7988 -15.918 68.7988 -25.5371 C 68.7988 -34.5215 62.1094 -41.0156 53.0762 -41.0156 C 44.873 -41.0156 39.5996 -36.6699 37.5977 -31.4941 C 37.5488 -32.0312 37.5488 -32.2266 37.5488 -32.373 C 37.5488 -47.6562 43.3105 -56.6895 53.2227 -56.6895 C 59.6191 -56.6895 62.5 -54.1016 64.3066 -50.1953 C 64.7461 -49.1699 65.1855 -48.9258 65.9668 -48.9258 C 66.6504 -48.9258 67.0898 -49.3652 67.0898 -50.2441 C 67.0898 -50.5859 66.8945 -50.7812 66.8457 -51.1719 C 66.3086 -54.4434 61.8164 -59.2773 53.3203 -59.2773 C 41.6016 -59.2773 34.7656 -49.6094 34.7656 -32.8125 C 34.7656 -26.3672 35.8887 -20.9961 37.5977 -17.7734 C 40.5273 -12.4512 45.752 -9.42383 52.0996 -9.42383 Z M 95.5078 -12.0605 C 87.0117 -12.0605 81.1523 -21.1914 81.1523 -34.5215 C 81.1523 -47.8516 87.0117 -56.9824 95.5078 -56.9824 C 104.004 -56.9824 109.814 -47.8516 109.814 -34.5215 C 109.814 -21.1914 104.004 -12.0605 95.5078 -12.0605 Z M 52.1973 -12.0117 C 44.2383 -12.0117 38.4277 -17.627 38.4277 -25.3906 C 38.4277 -32.7637 44.3359 -38.3789 52.2949 -38.3789 C 60.2539 -38.3789 65.918 -33.1055 65.918 -25.293 C 65.918 -17.2852 60.3516 -12.0117 52.1973 -12.0117 Z"/>
  </g>
  <g id="Black-M" transform="matrix(1 0 0 1 2870.97 1126)">
   <path d="M 62.4023 18.4082 C 91.9922 18.4082 116.113 -5.66406 116.113 -35.2539 C 116.113 -47.9492 110.303 -64.0137 101.758 -71.7773 C 96.8262 -76.2207 91.5039 -76.4648 87.8906 -72.8516 C 83.7891 -68.7988 85.1074 -63.2324 88.7695 -58.9355 C 94.5801 -51.9531 97.8027 -44.3848 97.8027 -35.2539 C 97.8027 -15.7227 81.9824 0.146484 62.4023 0.146484 C 42.8711 0.146484 27.002 -15.7227 27.002 -35.2539 C 27.002 -50.1953 36.2305 -62.9395 49.3164 -68.1641 L 49.3164 -61.3281 C 49.3164 -56.3965 53.9551 -54.7363 58.6426 -58.2031 L 79.248 -73.5352 C 82.8613 -76.2207 82.7637 -80.7617 79.248 -83.3984 L 58.5938 -98.7305 C 54.0527 -102.148 49.3164 -100.684 49.3164 -95.6543 L 49.3164 -87.3047 C 26.0254 -81.4453 8.74023 -60.3516 8.74023 -35.2539 C 8.74023 -5.66406 32.8125 18.4082 62.4023 18.4082 Z M 77.8809 -13.1836 C 85.2539 -13.1836 91.748 -20.2637 91.748 -33.5449 C 91.748 -46.875 85.2539 -53.9551 77.8809 -53.9551 C 70.459 -53.9551 64.4043 -48.3398 64.4043 -33.5938 C 64.4043 -18.7988 70.459 -13.1836 77.8809 -13.1836 Z M 49.1211 -13.1836 C 57.0312 -13.1836 62.3047 -18.9941 62.3047 -27.7832 C 62.3047 -35.0586 56.9824 -39.1602 51.7578 -39.1602 C 48.584 -39.1602 45.8984 -37.4512 44.1406 -35.1562 C 43.9941 -35.791 43.9941 -36.4746 43.9941 -37.3535 C 43.9941 -42.1875 46.4355 -44.6289 49.1699 -44.6289 C 50.9766 -44.6289 52.1484 -43.7988 53.0273 -42.8711 C 53.9551 -41.8457 55.2246 -41.4551 56.7383 -41.4551 C 58.8867 -41.4551 61.0352 -42.9688 61.0352 -45.5566 C 61.0352 -46.9238 60.791 -47.8516 60.1562 -48.9746 C 58.6914 -51.6602 55.1758 -53.9551 49.8047 -53.9551 C 41.2598 -53.9551 34.2773 -46.8262 34.2773 -33.6426 C 34.2773 -29.0527 34.9609 -24.6094 36.5723 -21.2402 C 39.1602 -15.918 43.3594 -13.1836 49.1211 -13.1836 Z M 78.125 -23.1934 C 76.2207 -23.1934 75.3906 -26.2695 75.3906 -33.5449 C 75.3906 -40.8203 76.2207 -43.8965 78.125 -43.8965 C 79.9805 -43.8965 80.8594 -40.8203 80.8594 -33.5449 C 80.8594 -26.2695 79.9805 -23.1934 78.125 -23.1934 Z M 48.4863 -22.1191 C 46.3379 -22.1191 44.873 -23.877 44.873 -26.5137 C 44.873 -29.1504 46.4355 -30.957 48.4863 -30.957 C 50.5859 -30.957 52.0508 -29.1016 52.0508 -26.5137 C 52.0508 -23.9258 50.5859 -22.1191 48.4863 -22.1191 Z"/>
  </g>
  <g id="Heavy-M" transform="matrix(1 0 0 1 2575.19 1126)">
   <path d="M 61.5234 17.5293 C 90.5273 17.5293 114.258 -6.20117 114.258 -35.2539 C 114.258 -48.8281 107.861 -64.5996 98.3887 -72.6562 C 94.1406 -76.4648 89.4043 -76.5137 86.377 -73.291 C 82.959 -69.6777 84.082 -64.8926 87.3535 -61.2793 C 94.2871 -54.1992 98.3398 -45.5078 98.3398 -35.2539 C 98.3398 -14.8926 81.8848 1.61133 61.5234 1.61133 C 41.1133 1.61133 24.6582 -14.8926 24.6582 -35.2539 C 24.6582 -51.3672 34.9121 -64.9902 49.2676 -70.0195 L 49.2676 -63.0371 C 49.2676 -58.4473 53.3691 -56.9824 57.5684 -60.0586 L 77.002 -74.3652 C 80.3223 -76.8066 80.2246 -80.8105 77.002 -83.2031 L 57.5684 -97.5098 C 53.418 -100.586 49.2676 -99.2676 49.2676 -94.5312 L 49.2676 -86.5723 C 26.0742 -81.0059 8.74023 -60.1074 8.74023 -35.2539 C 8.74023 -6.20117 32.4707 17.5293 61.5234 17.5293 Z M 77.1973 -13.5254 C 84.7656 -13.5254 90.9668 -20.752 90.9668 -33.6914 C 90.9668 -46.6309 84.7656 -53.9062 77.1973 -53.9062 C 69.6289 -53.9062 63.7207 -47.7539 63.7207 -33.6914 C 63.7207 -19.6289 69.6289 -13.5254 77.1973 -13.5254 Z M 47.6562 -13.5254 C 55.5664 -13.5254 60.7422 -19.1895 60.7422 -27.832 C 60.7422 -35.0586 55.5664 -39.3555 50 -39.3555 C 46.5332 -39.3555 43.7012 -37.5488 41.9922 -35.0098 C 41.9434 -35.5469 41.9434 -36.0352 41.9434 -36.7188 C 41.9434 -42.2852 44.5312 -45.4102 47.8516 -45.4102 C 49.8047 -45.4102 51.123 -44.5312 52.0508 -43.4082 C 52.9297 -42.2852 54.1016 -41.8945 55.5664 -41.8945 C 57.5684 -41.8945 59.4727 -43.3105 59.4727 -45.6543 C 59.4727 -46.875 59.2285 -47.7539 58.6914 -48.7305 C 57.2754 -51.5137 53.7109 -53.8574 48.3887 -53.8574 C 39.6484 -53.8574 33.1055 -46.6797 33.1055 -33.5449 C 33.1055 -28.8086 33.7891 -24.4141 35.4492 -21.1426 C 37.8906 -16.1133 42.0898 -13.5254 47.6562 -13.5254 Z M 77.3926 -22.6074 C 74.9023 -22.6074 73.6328 -26.1719 73.6328 -33.6914 C 73.6328 -41.2598 74.9023 -44.8242 77.3926 -44.8242 C 79.834 -44.8242 81.1035 -41.2598 81.1035 -33.6914 C 81.1035 -26.1719 79.834 -22.6074 77.3926 -22.6074 Z M 47.1191 -21.6797 C 44.5312 -21.6797 42.7246 -23.7305 42.7246 -26.7578 C 42.7246 -29.834 44.5801 -31.8848 47.1191 -31.8848 C 49.6582 -31.8848 51.4648 -29.7852 51.4648 -26.7578 C 51.4648 -23.7305 49.707 -21.6797 47.1191 -21.6797 Z"/>
  </g>
  <g id="Bold-M" transform="matrix(1 0 0 1 2279.5 1126)">
   <path d="M 60.498 16.5039 C 88.8672 16.5039 112.207 -6.83594 112.207 -35.2539 C 112.207 -49.8047 105.176 -65.2344 94.6289 -73.6328 C 91.1133 -76.709 87.0605 -76.5625 84.668 -73.7793 C 81.9824 -70.7031 82.959 -66.748 85.791 -63.8672 C 93.8965 -56.6406 98.9258 -46.7773 98.9258 -35.2539 C 98.9746 -13.9648 81.7871 3.22266 60.498 3.22266 C 39.1602 3.22266 22.0703 -13.9648 22.0703 -35.2539 C 22.0703 -52.6367 33.4473 -67.2363 49.2188 -72.0215 L 49.2188 -64.9902 C 49.2188 -60.791 52.7344 -59.5215 56.3965 -62.1582 L 74.5117 -75.293 C 77.4414 -77.4414 77.3926 -80.8594 74.5117 -82.959 L 56.4453 -96.1426 C 52.7832 -98.7793 49.2188 -97.6074 49.2188 -93.3105 L 49.2188 -85.7422 C 26.1719 -80.5664 8.74023 -59.8145 8.74023 -35.2539 C 8.74023 -6.83594 32.0801 16.5039 60.498 16.5039 Z M 76.416 -13.916 C 84.1797 -13.916 90.0879 -21.3379 90.0879 -33.8379 C 90.0879 -46.3867 84.1797 -53.8086 76.416 -53.8086 C 68.6523 -53.8086 62.9883 -47.1191 62.9883 -33.7891 C 62.9883 -20.5566 68.6523 -13.916 76.416 -13.916 Z M 45.9961 -13.916 C 53.8574 -13.916 59.0332 -19.4336 59.0332 -27.832 C 59.0332 -35.0098 53.9551 -39.5996 48.0469 -39.5996 C 44.2383 -39.5996 41.2109 -37.6465 39.6484 -34.9121 C 39.5996 -35.2051 39.5996 -35.5469 39.5996 -35.9863 C 39.5996 -42.3828 42.4316 -46.2891 46.3379 -46.2891 C 48.5352 -46.2891 49.9023 -45.3613 50.9277 -43.9941 C 51.7578 -42.8223 52.832 -42.3828 54.2969 -42.3828 C 56.1035 -42.3828 57.666 -43.7012 57.666 -45.752 C 57.666 -46.7773 57.5195 -47.6074 57.0801 -48.4375 C 55.6641 -51.416 52.0508 -53.7598 46.7773 -53.7598 C 37.8418 -53.7598 31.7383 -46.5332 31.7383 -33.3984 C 31.7383 -28.5645 32.5195 -24.2188 34.1309 -20.9961 C 36.5234 -16.3574 40.625 -13.916 45.9961 -13.916 Z M 76.5625 -21.875 C 73.4375 -21.875 71.6797 -26.0254 71.6797 -33.8379 C 71.6797 -41.6992 73.4375 -45.8496 76.5625 -45.8496 C 79.6875 -45.8496 81.4453 -41.748 81.4453 -33.8379 C 81.4453 -26.0254 79.6387 -21.875 76.5625 -21.875 Z M 45.5078 -21.1426 C 42.4805 -21.1426 40.2832 -23.5352 40.2832 -27.0996 C 40.2832 -30.5664 42.4805 -32.9102 45.5566 -32.9102 C 48.6328 -32.9102 50.7812 -30.5176 50.7812 -27.0508 C 50.7812 -23.4863 48.6816 -21.1426 45.5078 -21.1426 Z"/>
  </g>
  <g id="Semibold-M" transform="matrix(1 0 0 1 1983.5 1126)">
   <path d="M 59.7656 15.7715 C 87.7441 15.7715 110.791 -7.27539 110.791 -35.2539 C 110.791 -50.4883 103.32 -65.6738 92.041 -74.3164 C 89.0137 -76.9043 85.4492 -76.5625 83.4961 -74.0723 C 81.3477 -71.3867 82.2266 -68.0664 84.7168 -65.6738 C 93.6523 -58.3984 99.3164 -47.6074 99.3652 -35.2539 C 99.3652 -13.3301 81.6895 4.3457 59.7656 4.3457 C 37.8418 4.3457 20.2637 -13.3301 20.2637 -35.2539 C 20.2637 -53.5156 32.4219 -68.7988 49.1699 -73.3887 L 49.1699 -66.3086 C 49.1699 -62.4023 52.2949 -61.2305 55.6152 -63.623 L 72.7539 -75.9277 C 75.4395 -77.8809 75.4395 -80.9082 72.7539 -82.8125 L 55.6152 -95.166 C 52.2949 -97.5586 49.1699 -96.4844 49.1699 -92.4805 L 49.1699 -85.1562 C 26.2207 -80.2246 8.74023 -59.6191 8.74023 -35.2539 C 8.74023 -7.27539 31.7871 15.7715 59.7656 15.7715 Z M 75.9277 -14.209 C 83.7891 -14.209 89.4531 -21.7285 89.4531 -33.9355 C 89.4531 -46.1914 83.7891 -53.7598 75.9277 -53.7598 C 67.9688 -53.7598 62.4512 -46.6797 62.4512 -33.8867 C 62.4512 -21.1914 68.0176 -14.209 75.9277 -14.209 Z M 44.8242 -14.209 C 52.7344 -14.209 57.8613 -19.6289 57.8613 -27.8809 C 57.8613 -35.0098 52.832 -39.7461 46.6797 -39.7461 C 42.6758 -39.7461 39.502 -37.7441 37.9883 -34.8145 C 37.9883 -35.0098 37.9883 -35.2051 37.9883 -35.4492 C 37.9883 -42.4805 41.0156 -46.9238 45.3125 -46.9238 C 47.6074 -46.9238 49.0723 -45.9473 50.1465 -44.3848 C 50.9766 -43.2129 51.9531 -42.7246 53.418 -42.7246 C 55.0781 -42.7246 56.4453 -43.9453 56.4453 -45.8496 C 56.4453 -46.7285 56.2988 -47.5098 55.957 -48.1934 C 54.5898 -51.3184 50.9277 -53.7109 45.7031 -53.7109 C 36.5723 -53.7109 30.8105 -46.4844 30.8105 -33.3496 C 30.8105 -28.3691 31.5918 -24.0723 33.252 -20.9473 C 35.5469 -16.5039 39.6484 -14.209 44.8242 -14.209 Z M 75.9766 -21.4355 C 72.4609 -21.4355 70.3125 -25.9277 70.3125 -33.9355 C 70.3125 -42.041 72.4121 -46.5332 75.9766 -46.5332 C 79.541 -46.5332 81.6406 -42.0898 81.6406 -33.9355 C 81.6406 -25.9277 79.541 -21.4355 75.9766 -21.4355 Z M 44.4336 -20.752 C 41.0645 -20.752 38.623 -23.4375 38.623 -27.2949 C 38.623 -31.0547 41.0645 -33.6426 44.4336 -33.6426 C 47.9004 -33.6426 50.293 -31.0547 50.293 -27.2949 C 50.293 -23.291 47.998 -20.752 44.4336 -20.752 Z"/>
  </g>
  <g id="Medium-M" transform="matrix(1 0 0 1 1687.3 1126)">
   <path d="M 59.2285 15.2832 C 86.9141 15.2832 109.766 -7.56836 109.766 -35.2539 C 109.766 -51.0254 101.904 -65.9668 90.0879 -74.8535 C 87.4512 -77.002 84.2285 -76.6113 82.6172 -74.3164 C 80.8594 -71.9238 81.6406 -69.043 83.8867 -67.041 C 93.5059 -59.668 99.6094 -48.291 99.6582 -35.2539 C 99.707 -12.8418 81.6406 5.17578 59.2285 5.17578 C 36.8164 5.17578 18.8965 -12.8418 18.8965 -35.2539 C 18.8965 -54.1992 31.6895 -69.9707 49.1699 -74.4141 L 49.1699 -67.334 C 49.1699 -63.5742 51.9531 -62.5488 54.9805 -64.7461 L 71.4844 -76.416 C 73.9258 -78.2227 73.9746 -80.957 71.4844 -82.7148 L 55.0293 -94.4336 C 51.9531 -96.6309 49.1699 -95.6543 49.1699 -91.8457 L 49.1699 -84.7168 C 26.2207 -79.9805 8.74023 -59.4727 8.74023 -35.2539 C 8.74023 -7.56836 31.5918 15.2832 59.2285 15.2832 Z M 75.4883 -14.4043 C 83.4961 -14.4043 89.0137 -22.0215 89.0137 -33.9844 C 89.0137 -46.0938 83.4961 -53.7109 75.4883 -53.7109 C 67.4805 -53.7109 62.0605 -46.3379 62.0605 -33.9844 C 62.0605 -21.6797 67.5293 -14.4043 75.4883 -14.4043 Z M 43.9453 -14.4043 C 51.8555 -14.4043 56.9824 -19.7266 56.9824 -27.8809 C 56.9824 -35.0098 52.002 -39.8926 45.6543 -39.8926 C 41.4551 -39.8926 38.2324 -37.8418 36.7676 -34.8145 C 36.7676 -34.8633 36.7676 -34.9609 36.7676 -35.0586 C 36.7676 -42.5293 39.8926 -47.3633 44.5312 -47.3633 C 46.9238 -47.3633 48.4375 -46.3867 49.5605 -44.7266 C 50.3906 -43.5059 51.2695 -42.9688 52.7344 -42.9688 C 54.3457 -42.9688 55.5176 -44.1895 55.5176 -45.9473 C 55.5176 -46.7285 55.3711 -47.4121 55.127 -48.0469 C 53.7598 -51.2207 50.0488 -53.6621 44.873 -53.6621 C 35.6445 -53.6621 30.127 -46.3867 30.127 -33.252 C 30.127 -28.2227 30.9082 -23.9746 32.5684 -20.8496 C 34.8633 -16.6016 38.916 -14.4043 43.9453 -14.4043 Z M 75.5371 -21.0449 C 71.6797 -21.0449 69.2871 -25.8301 69.2871 -33.9844 C 69.2871 -42.2852 71.6309 -47.0703 75.5371 -47.0703 C 79.4922 -47.0703 81.7871 -42.334 81.7871 -33.9844 C 81.7871 -25.8301 79.4434 -21.0449 75.5371 -21.0449 Z M 43.6035 -20.5078 C 39.9902 -20.5078 37.3535 -23.3398 37.3535 -27.4414 C 37.3535 -31.4453 39.9414 -34.1797 43.6523 -34.1797 C 47.3633 -34.1797 49.9512 -31.4453 49.9512 -27.4414 C 49.9512 -23.1445 47.4609 -20.5078 43.6035 -20.5078 Z"/>
  </g>
  <g id="Regular-M" transform="matrix(1 0 0 1 1391.3 1126)">
   <path d="M 58.5449 14.5508 C 85.791 14.5508 108.35 -8.00781 108.35 -35.2539 C 108.35 -51.6602 100.049 -66.4062 87.5 -75.5371 C 85.3516 -77.1973 82.666 -76.6602 81.4453 -74.6582 C 80.2246 -72.6074 80.8594 -70.3125 82.8613 -68.7988 C 93.2617 -61.377 100 -49.1211 100.049 -35.2539 C 100.098 -12.207 81.5918 6.25 58.5449 6.25 C 35.498 6.25 17.0898 -12.207 17.0898 -35.2539 C 17.0898 -55.0293 30.6641 -71.4844 49.1211 -75.6836 L 49.1211 -68.6523 C 49.1211 -65.1855 51.5137 -64.2578 54.1992 -66.1621 L 69.7754 -77.0996 C 71.9727 -78.6133 72.0215 -80.957 69.7754 -82.5684 L 54.248 -93.5059 C 51.5137 -95.459 49.1211 -94.5312 49.1211 -91.0156 L 49.1211 -84.1309 C 26.2695 -79.6875 8.74023 -59.2773 8.74023 -35.2539 C 8.74023 -8.00781 31.3477 14.5508 58.5449 14.5508 Z M 75 -14.6973 C 83.1055 -14.6973 88.4277 -22.3633 88.4277 -34.082 C 88.4277 -45.8984 83.1055 -53.6621 75 -53.6621 C 66.8457 -53.6621 61.5723 -45.8984 61.5723 -34.0332 C 61.5723 -22.3145 66.8945 -14.6973 75 -14.6973 Z M 42.8223 -14.6973 C 50.6836 -14.6973 55.8105 -19.9219 55.8105 -27.9297 C 55.8105 -35.0098 50.9277 -40.0391 44.3359 -40.0391 C 39.9414 -40.0391 36.6211 -37.9395 35.2051 -34.8145 C 35.2051 -42.627 38.4766 -47.9492 43.5059 -47.9492 C 46.0449 -47.9492 47.6562 -46.9727 48.7793 -45.1172 C 49.6094 -43.8477 50.3906 -43.3105 51.8555 -43.3105 C 53.3203 -43.3105 54.3457 -44.4336 54.3457 -45.9961 C 54.3457 -46.6797 54.1992 -47.3145 54.0039 -47.8516 C 52.6855 -51.123 48.9258 -53.6133 43.75 -53.6133 C 34.4238 -53.6133 29.248 -46.2891 29.248 -33.2031 C 29.248 -28.0273 30.0293 -23.8281 31.6895 -20.8008 C 33.8867 -16.748 37.8906 -14.6973 42.8223 -14.6973 Z M 75 -20.6055 C 70.6543 -20.6055 67.9199 -25.7324 67.9199 -34.082 C 67.9199 -42.5781 70.6055 -47.7539 75 -47.7539 C 79.3457 -47.7539 82.0312 -42.627 82.0312 -34.082 C 82.0312 -25.7324 79.2969 -20.6055 75 -20.6055 Z M 42.5293 -20.1172 C 38.5742 -20.1172 35.6934 -23.2422 35.6934 -27.6367 C 35.6934 -31.9336 38.5254 -34.9121 42.5781 -34.9121 C 46.6309 -34.9121 49.4629 -31.9824 49.4629 -27.6367 C 49.4629 -22.998 46.7773 -20.1172 42.5293 -20.1172 Z"/>
  </g>
  <g id="Light-M" transform="matrix(1 0 0 1 1095.42 1126)">
   <path d="M 57.7148 13.7695 C 84.5215 13.7695 106.689 -8.39844 106.689 -35.2051 C 106.689 -52.002 97.9492 -66.9434 84.8145 -75.7324 C 83.1543 -77.002 81.1523 -76.5625 80.2246 -75.0488 C 79.2969 -73.4863 79.7852 -71.7285 81.2988 -70.6055 C 92.7734 -63.0371 100.342 -50.0488 100.391 -35.2051 C 100.391 -11.5723 81.3477 7.4707 57.7148 7.4707 C 34.082 7.4707 15.0879 -11.5723 15.0879 -35.2051 C 15.0879 -55.7617 29.4434 -72.8027 48.7305 -76.9043 L 48.7305 -68.8477 C 48.7305 -66.0156 50.6836 -65.1855 52.9785 -66.7969 L 68.1641 -77.4414 C 70.0684 -78.8086 70.1172 -80.7129 68.1641 -82.0801 L 53.0273 -92.7246 C 50.6836 -94.3359 48.7305 -93.5547 48.7305 -90.6738 L 48.7305 -83.3496 C 26.123 -79.1016 8.74023 -58.9844 8.74023 -35.2051 C 8.74023 -8.39844 30.9082 13.7695 57.7148 13.7695 Z M 74.707 -14.8926 C 82.7148 -14.8926 88.0371 -22.5586 88.0371 -34.2773 C 88.0371 -46.0449 82.7148 -53.8086 74.707 -53.8086 C 66.6016 -53.8086 61.3281 -46.0449 61.3281 -34.2285 C 61.3281 -22.5098 66.6504 -14.8926 74.707 -14.8926 Z M 42.0898 -14.8926 C 49.9023 -14.8926 55.0293 -20.0195 55.0293 -27.832 C 55.0293 -34.9121 50.0488 -39.9414 43.3105 -39.9414 C 38.3301 -39.9414 34.7656 -37.4512 33.3008 -33.9844 C 33.3008 -34.0332 33.3008 -34.0332 33.3008 -34.082 C 33.3008 -43.3105 36.9629 -49.1699 42.8223 -49.1699 C 46.0938 -49.1699 47.9004 -47.8516 49.1211 -45.6543 C 49.7559 -44.5312 50.4395 -44.0918 51.6113 -44.0918 C 52.7832 -44.0918 53.6133 -44.9707 53.6133 -46.2891 C 53.6133 -46.8262 53.4668 -47.3145 53.3203 -47.7539 C 52.2461 -50.8301 48.6328 -53.6621 43.0176 -53.6621 C 33.7402 -53.6621 28.5156 -46.3379 28.5156 -33.252 C 28.5156 -28.125 29.3457 -23.9258 30.9082 -21.0449 C 33.1055 -16.9922 37.1582 -14.8926 42.0898 -14.8926 Z M 74.707 -19.5801 C 69.6777 -19.5801 66.3574 -25.293 66.3574 -34.2773 C 66.3574 -43.3594 69.6289 -49.1211 74.707 -49.1211 C 79.7363 -49.1211 82.959 -43.3594 82.959 -34.2773 C 82.959 -25.293 79.6875 -19.5801 74.707 -19.5801 Z M 41.8945 -19.2383 C 37.2559 -19.2383 33.8379 -22.7539 33.8379 -27.6367 C 33.8379 -32.373 37.2559 -35.7422 41.9434 -35.7422 C 46.6797 -35.7422 49.9512 -32.4707 49.9512 -27.5879 C 49.9512 -22.5098 46.7773 -19.2383 41.8945 -19.2383 Z"/>
  </g>
  <g id="Thin-M" transform="matrix(1 0 0 1 799.806 1126)">
   <path d="M 56.6406 12.7441 C 82.9102 12.7441 104.492 -8.83789 104.492 -35.1562 C 104.492 -52.4414 95.166 -67.627 81.25 -76.0742 C 80.2734 -76.7578 79.1016 -76.4648 78.6133 -75.5859 C 78.125 -74.6582 78.3691 -73.584 79.2969 -72.998 C 92.1875 -65.2344 100.781 -51.2207 100.781 -35.1562 C 100.781 -10.791 81.0059 8.98438 56.6406 8.98438 C 32.2266 8.98438 12.4512 -10.791 12.4512 -35.1562 C 12.4512 -56.6895 27.8809 -74.6094 48.2422 -78.5156 L 48.2422 -69.0918 C 48.2422 -67.1387 49.6094 -66.4551 51.3672 -67.6758 L 66.0645 -77.9785 C 67.5293 -79.0039 67.5293 -80.3711 66.0645 -81.3965 L 51.3672 -91.6504 C 49.6094 -92.9199 48.2422 -92.2363 48.2422 -90.2344 L 48.2422 -82.2754 C 25.8789 -78.3203 8.74023 -58.5938 8.74023 -35.1562 C 8.74023 -8.83789 30.3223 12.7441 56.6406 12.7441 Z M 74.3164 -15.0879 C 82.2266 -15.0879 87.5488 -22.8027 87.5488 -34.5215 C 87.5488 -46.1914 82.2266 -54.0039 74.3164 -54.0039 C 66.3574 -54.0039 60.9863 -46.1914 60.9863 -34.5215 C 60.9863 -22.8027 66.3574 -15.0879 74.3164 -15.0879 Z M 41.0645 -15.0879 C 48.8281 -15.0879 54.0039 -20.166 54.0039 -27.7832 C 54.0039 -34.7656 48.9258 -39.7949 42.041 -39.7949 C 36.1816 -39.7949 32.3242 -36.8164 30.8105 -33.0078 C 30.8105 -33.252 30.8105 -33.3496 30.8105 -33.4473 C 30.8105 -44.2383 34.9121 -50.7812 41.8945 -50.7812 C 46.1426 -50.7812 48.2422 -49.0234 49.5605 -46.3379 C 50 -45.4102 50.4883 -45.1172 51.3184 -45.1172 C 52.1484 -45.1172 52.6367 -45.7031 52.6367 -46.6309 C 52.6367 -47.0215 52.4902 -47.3145 52.3926 -47.6562 C 51.7578 -50.3906 48.1934 -53.7598 41.9922 -53.7598 C 32.8613 -53.7598 27.5879 -46.3379 27.5879 -33.3008 C 27.5879 -28.2715 28.418 -24.0723 29.8828 -21.4355 C 32.0801 -17.334 36.1328 -15.0879 41.0645 -15.0879 Z M 74.3164 -18.2129 C 68.3105 -18.2129 64.3066 -24.7559 64.3066 -34.5215 C 64.3066 -44.3359 68.3105 -50.8789 74.3164 -50.8789 C 80.2246 -50.8789 84.2285 -44.3359 84.2285 -34.5215 C 84.2285 -24.7559 80.2246 -18.2129 74.3164 -18.2129 Z M 41.0645 -18.0664 C 35.498 -18.0664 31.4453 -22.0703 31.4453 -27.5879 C 31.4453 -32.959 35.5469 -36.9141 41.1133 -36.9141 C 46.6797 -36.9141 50.6348 -33.1543 50.6348 -27.5391 C 50.6348 -21.8262 46.7773 -18.0664 41.0645 -18.0664 Z"/>
  </g>
  <g id="Ultralight-M" transform="matrix(1 0 0 1 503.656 1126)">
   <path d="M 56.0547 12.207 C 82.0801 12.207 103.369 -9.08203 103.369 -35.1562 C 103.369 -52.6855 93.75 -68.0176 79.4434 -76.2207 C 78.8086 -76.6113 78.0762 -76.3672 77.7832 -75.8789 C 77.4902 -75.2441 77.6855 -74.5605 78.2715 -74.1699 C 91.8457 -66.4062 100.977 -51.8066 100.977 -35.1562 C 100.977 -10.3516 80.8594 9.81445 56.0547 9.81445 C 31.2988 9.81445 11.1328 -10.3516 11.1328 -35.1562 C 11.1328 -57.1289 27.0508 -75.5371 47.998 -79.3457 L 47.998 -69.2383 C 47.998 -67.7246 49.0723 -67.0898 50.5371 -68.1641 L 64.9902 -78.2227 C 66.2109 -79.1016 66.2109 -80.1758 64.9902 -81.0547 L 50.5371 -91.1133 C 49.0723 -92.1875 47.998 -91.5527 47.998 -90.0391 L 47.998 -81.7383 C 25.7812 -77.8809 8.74023 -58.3984 8.74023 -35.1562 C 8.74023 -9.08203 30.0293 12.207 56.0547 12.207 Z M 74.1211 -15.1855 C 81.9336 -15.1855 87.3047 -22.9492 87.3047 -34.668 C 87.3047 -46.2891 81.9336 -54.1016 74.1211 -54.1016 C 66.2109 -54.1016 60.8398 -46.2891 60.8398 -34.668 C 60.8398 -22.9492 66.2109 -15.1855 74.1211 -15.1855 Z M 40.5273 -15.1855 C 48.291 -15.1855 53.5156 -20.2637 53.5156 -27.7344 C 53.5156 -34.7168 48.3398 -39.7461 41.3574 -39.7461 C 35.1074 -39.7461 31.1035 -36.4746 29.5898 -32.4707 C 29.4922 -32.8125 29.4922 -33.0078 29.4922 -33.1055 C 29.4922 -44.7266 33.8867 -51.6113 41.4062 -51.6113 C 46.1914 -51.6113 48.3887 -49.6582 49.7559 -46.6797 C 50.1465 -45.8984 50.4883 -45.6543 51.1719 -45.6543 C 51.7578 -45.6543 52.1484 -46.0938 52.1484 -46.8262 C 52.1484 -47.1191 52.002 -47.2656 51.9531 -47.6074 C 51.4648 -50.1953 47.998 -53.8574 41.5039 -53.8574 C 32.373 -53.8574 27.0996 -46.3379 27.0996 -33.3496 C 27.0996 -28.3691 27.9785 -24.1699 29.3457 -21.6309 C 31.5918 -17.5293 35.6445 -15.1855 40.5273 -15.1855 Z M 74.1211 -17.4805 C 67.627 -17.4805 63.2324 -24.4629 63.2324 -34.668 C 63.2324 -44.8242 67.627 -51.8066 74.1211 -51.8066 C 80.5176 -51.8066 84.9121 -44.8242 84.9121 -34.668 C 84.9121 -24.4629 80.5176 -17.4805 74.1211 -17.4805 Z M 40.625 -17.4316 C 34.5703 -17.4316 30.2246 -21.7285 30.2246 -27.5879 C 30.2246 -33.252 34.668 -37.5 40.6738 -37.5 C 46.6797 -37.5 50.9766 -33.4961 50.9766 -27.5391 C 50.9766 -21.4355 46.7773 -17.4316 40.625 -17.4316 Z"/>
  </g>
  <g id="Black-S" transform="matrix(1 0 0 1 2884.57 696)">
   <path d="M 48.8281 6.73828 C 71.9727 6.73828 90.8203 -12.1094 90.8203 -35.2539 C 90.8203 -45.2637 86.2305 -57.8125 79.4922 -63.916 C 75.6836 -67.3828 71.5332 -67.5293 68.75 -64.7461 C 65.5762 -61.5723 66.6016 -57.2754 69.4336 -53.9551 C 74.0723 -48.4863 76.6602 -42.4805 76.6602 -35.2539 C 76.6602 -19.873 64.209 -7.42188 48.8281 -7.42188 C 33.4473 -7.42188 20.9961 -19.873 20.9961 -35.2539 C 20.9961 -47.0703 28.2715 -57.0801 38.623 -61.1816 L 38.623 -55.8105 C 38.623 -51.9531 42.2363 -50.6836 45.8496 -53.3691 L 61.9141 -65.2832 C 64.7461 -67.3828 64.6484 -70.8984 61.9141 -72.9492 L 45.8496 -84.9121 C 42.2852 -87.5488 38.623 -86.4258 38.623 -82.4707 L 38.623 -75.9766 C 20.3613 -71.4355 6.83594 -54.8828 6.83594 -35.2539 C 6.83594 -12.1094 25.6836 6.73828 48.8281 6.73828 Z M 60.9375 -17.9688 C 66.748 -17.9688 71.8262 -23.5352 71.8262 -33.9355 C 71.8262 -44.3359 66.748 -49.9023 60.9375 -49.9023 C 55.127 -49.9023 50.3906 -45.459 50.3906 -33.9355 C 50.3906 -22.4121 55.127 -17.9688 60.9375 -17.9688 Z M 38.3789 -17.9688 C 44.5801 -17.9688 48.6816 -22.5098 48.6816 -29.3945 C 48.6816 -35.1074 44.5312 -38.3301 40.4297 -38.3301 C 37.8906 -38.3301 35.791 -36.9629 34.4238 -35.1562 C 34.3262 -35.6445 34.3262 -36.1816 34.3262 -36.8652 C 34.3262 -40.6738 36.2305 -42.627 38.4277 -42.627 C 39.8438 -42.627 40.7715 -41.9922 41.4551 -41.2598 C 42.1875 -40.4297 43.1641 -40.1367 44.3359 -40.1367 C 46.0449 -40.1367 47.7051 -41.3086 47.7051 -43.3105 C 47.7051 -44.3848 47.5098 -45.1172 47.0215 -45.9961 C 45.8496 -48.0957 43.1152 -49.9023 38.916 -49.9023 C 32.1777 -49.9023 26.7578 -44.2871 26.7578 -33.9844 C 26.7578 -30.3711 27.2949 -26.9043 28.5645 -24.2676 C 30.5664 -20.1172 33.8867 -17.9688 38.3789 -17.9688 Z M 61.1328 -25.7812 C 59.6191 -25.7812 58.9355 -28.2227 58.9355 -33.9355 C 58.9355 -39.6484 59.6191 -42.0898 61.1328 -42.0898 C 62.6465 -42.0898 63.3301 -39.6484 63.3301 -33.9355 C 63.3301 -28.2227 62.6465 -25.7812 61.1328 -25.7812 Z M 37.8906 -24.9512 C 36.1816 -24.9512 35.0098 -26.3184 35.0098 -28.418 C 35.0098 -30.5176 36.2305 -31.9336 37.8906 -31.9336 C 39.5508 -31.9336 40.7227 -30.4688 40.7227 -28.418 C 40.7227 -26.3672 39.5508 -24.9512 37.8906 -24.9512 Z"/>
  </g>
  <g id="Heavy-S" transform="matrix(1 0 0 1 2588.47 696)">
   <path d="M 48.2422 6.15234 C 70.9961 6.15234 89.5996 -12.5 89.5996 -35.2539 C 89.5996 -45.8984 84.6191 -58.2031 77.1973 -64.5508 C 73.8281 -67.5781 70.1172 -67.5781 67.7246 -65.0391 C 65.0391 -62.1582 65.9668 -58.3984 68.5547 -55.5176 C 73.877 -50 77.002 -43.2617 77.0508 -35.2539 C 77.0508 -19.2871 64.1602 -6.44531 48.2422 -6.44531 C 32.2754 -6.44531 19.4336 -19.2871 19.4336 -35.2539 C 19.4336 -47.8516 27.3926 -58.4961 38.623 -62.4512 L 38.623 -57.1289 C 38.623 -53.4668 41.8945 -52.2949 45.166 -54.7363 L 60.4004 -65.8691 C 62.9883 -67.8223 62.9395 -70.9473 60.4004 -72.8516 L 45.2148 -84.0332 C 41.9434 -86.4746 38.623 -85.4004 38.623 -81.6895 L 38.623 -75.5371 C 20.459 -71.1426 6.83594 -54.7363 6.83594 -35.2539 C 6.83594 -12.5 25.4395 6.15234 48.2422 6.15234 Z M 60.4492 -18.2129 C 66.4062 -18.2129 71.2402 -23.877 71.2402 -34.0332 C 71.2402 -44.1406 66.4062 -49.8047 60.4492 -49.8047 C 54.4922 -49.8047 49.9023 -45.0195 49.9023 -33.9844 C 49.9023 -23.0469 54.4922 -18.2129 60.4492 -18.2129 Z M 37.3047 -18.2129 C 43.5059 -18.2129 47.6074 -22.6562 47.6074 -29.4434 C 47.6074 -35.1074 43.5547 -38.4766 39.209 -38.4766 C 36.5234 -38.4766 34.3262 -37.1094 33.0078 -35.1562 C 32.959 -35.498 32.959 -35.8887 32.959 -36.4258 C 32.959 -40.6738 34.9609 -43.1152 37.5 -43.1152 C 38.9648 -43.1152 39.9414 -42.4805 40.625 -41.6016 C 41.3574 -40.7227 42.2852 -40.3809 43.5059 -40.3809 C 45.0684 -40.3809 46.582 -41.5039 46.582 -43.3594 C 46.582 -44.3359 46.3867 -45.0195 45.9961 -45.8008 C 44.8242 -48.0469 42.041 -49.8047 37.8906 -49.8047 C 31.0059 -49.8047 25.9277 -44.1895 25.9277 -33.8867 C 25.9277 -30.1758 26.4648 -26.7578 27.7832 -24.1699 C 29.6875 -20.2637 32.959 -18.2129 37.3047 -18.2129 Z M 60.5957 -25.4395 C 58.7402 -25.4395 57.7637 -28.1738 57.7637 -34.0332 C 57.7637 -39.8926 58.7402 -42.627 60.5957 -42.627 C 62.5 -42.627 63.4277 -39.8926 63.4277 -34.0332 C 63.4277 -28.1738 62.5 -25.4395 60.5957 -25.4395 Z M 36.8652 -24.707 C 34.9121 -24.707 33.5449 -26.2695 33.5449 -28.6133 C 33.5449 -30.957 34.9609 -32.5684 36.8652 -32.5684 C 38.8184 -32.5684 40.1855 -30.957 40.1855 -28.6133 C 40.1855 -26.2695 38.8672 -24.707 36.8652 -24.707 Z"/>
  </g>
  <g id="Bold-S" transform="matrix(1 0 0 1 2292.44 696)">
   <path d="M 47.5586 5.46875 C 69.873 5.46875 88.2324 -12.9395 88.2324 -35.2539 C 88.2324 -46.6309 82.8125 -58.5938 74.6582 -65.2832 C 71.8262 -67.7734 68.5059 -67.627 66.6016 -65.332 C 64.4531 -62.8418 65.2344 -59.668 67.5293 -57.3242 C 73.6816 -51.709 77.4414 -44.0918 77.4414 -35.2539 C 77.4414 -18.7012 64.1113 -5.37109 47.5586 -5.37109 C 30.957 -5.37109 17.6758 -18.7012 17.6758 -35.2539 C 17.6758 -48.7305 26.4648 -60.0586 38.623 -63.8184 L 38.623 -58.5449 C 38.623 -55.127 41.5039 -54.1016 44.4336 -56.25 L 58.6426 -66.5527 C 61.0352 -68.2617 60.9863 -71.0449 58.6426 -72.7539 L 44.4824 -83.1055 C 41.5039 -85.2539 38.623 -84.2773 38.623 -80.7617 L 38.623 -74.9512 C 20.5078 -70.8496 6.83594 -54.541 6.83594 -35.2539 C 6.83594 -12.9395 25.1953 5.46875 47.5586 5.46875 Z M 59.9121 -18.5059 C 66.0156 -18.5059 70.6055 -24.3164 70.6055 -34.082 C 70.6055 -43.9453 66.0156 -49.7559 59.9121 -49.7559 C 53.8086 -49.7559 49.3652 -44.4824 49.3652 -34.082 C 49.3652 -23.7305 53.8086 -18.5059 59.9121 -18.5059 Z M 36.1328 -18.5059 C 42.334 -18.5059 46.3867 -22.8516 46.3867 -29.4434 C 46.3867 -35.1074 42.4316 -38.6719 37.793 -38.6719 C 34.9609 -38.6719 32.6172 -37.2559 31.3965 -35.1562 C 31.3965 -35.3516 31.3965 -35.5957 31.3965 -35.8887 C 31.3965 -40.6738 33.5449 -43.6035 36.4258 -43.6035 C 37.9395 -43.6035 38.9648 -42.9688 39.7461 -41.9922 C 40.4785 -41.0645 41.3086 -40.6738 42.5293 -40.6738 C 44.043 -40.6738 45.3125 -41.748 45.3125 -43.4082 C 45.3125 -44.2383 45.166 -44.9219 44.8242 -45.5566 C 43.6523 -47.998 40.8203 -49.7559 36.7676 -49.7559 C 29.7363 -49.7559 25 -44.0918 25 -33.7891 C 25 -29.9805 25.5859 -26.5625 26.9043 -24.0234 C 28.7598 -20.3613 31.9824 -18.5059 36.1328 -18.5059 Z M 60.0098 -25 C 57.7148 -25 56.4453 -28.125 56.4453 -34.082 C 56.4453 -40.1367 57.7148 -43.2617 60.0098 -43.2617 C 62.3047 -43.2617 63.5742 -40.1855 63.5742 -34.082 C 63.5742 -28.125 62.3047 -25 60.0098 -25 Z M 35.7422 -24.4141 C 33.4961 -24.4141 31.9336 -26.2207 31.9336 -28.8574 C 31.9336 -31.4941 33.4961 -33.252 35.791 -33.252 C 38.0371 -33.252 39.5996 -31.4453 39.5996 -28.8574 C 39.5996 -26.123 38.0859 -24.4141 35.7422 -24.4141 Z"/>
  </g>
  <g id="Semibold-S" transform="matrix(1 0 0 1 1996.2 696)">
   <path d="M 47.0703 4.98047 C 69.0918 4.98047 87.3047 -13.2324 87.3047 -35.2539 C 87.3047 -47.1191 81.5918 -58.8867 72.9004 -65.8203 C 70.4102 -67.9199 67.4316 -67.6758 65.7715 -65.5762 C 64.0137 -63.2812 64.7461 -60.498 66.8457 -58.5449 C 73.5352 -52.8809 77.6855 -44.6777 77.7344 -35.2539 C 77.7344 -18.2617 64.0625 -4.58984 47.0703 -4.58984 C 30.0781 -4.58984 16.4551 -18.2617 16.4551 -35.2539 C 16.4551 -49.3652 25.7812 -61.1328 38.6719 -64.7461 L 38.6719 -59.5703 C 38.6719 -56.25 41.2109 -55.3223 43.9453 -57.3242 L 57.4707 -67.041 C 59.668 -68.6035 59.668 -71.0938 57.4707 -72.7051 L 43.9453 -82.4219 C 41.2109 -84.4238 38.6719 -83.5449 38.6719 -80.1758 L 38.6719 -74.6094 C 20.5566 -70.6543 6.83594 -54.3945 6.83594 -35.2539 C 6.83594 -13.2324 25.0488 4.98047 47.0703 4.98047 Z M 59.5215 -18.7012 C 65.7227 -18.7012 70.166 -24.6094 70.166 -34.1309 C 70.166 -43.7988 65.7227 -49.707 59.5215 -49.707 C 53.3203 -49.707 48.9746 -44.1406 48.9746 -34.1309 C 48.9746 -24.2188 53.3203 -18.7012 59.5215 -18.7012 Z M 35.3516 -18.7012 C 41.5527 -18.7012 45.5566 -22.9492 45.5566 -29.4922 C 45.5566 -35.1074 41.6504 -38.8184 36.8652 -38.8184 C 33.8867 -38.8184 31.4941 -37.4023 30.3223 -35.1562 C 30.3223 -35.2539 30.3223 -35.4004 30.3223 -35.5469 C 30.3223 -40.6738 32.5684 -43.9941 35.6934 -43.9941 C 37.2559 -43.9941 38.3301 -43.3594 39.1113 -42.2363 C 39.8438 -41.2598 40.625 -40.8691 41.8945 -40.8691 C 43.3105 -40.8691 44.4336 -41.8945 44.4336 -43.457 C 44.4336 -44.1895 44.2871 -44.873 44.043 -45.4102 C 42.8223 -47.9492 39.9414 -49.6582 35.9863 -49.6582 C 28.8574 -49.6582 24.3652 -44.043 24.3652 -33.7402 C 24.3652 -29.834 24.9512 -26.4648 26.2695 -23.9258 C 28.0762 -20.459 31.2988 -18.7012 35.3516 -18.7012 Z M 59.6191 -24.7559 C 57.0312 -24.7559 55.5176 -28.0762 55.5176 -34.1309 C 55.5176 -40.332 57.0312 -43.6523 59.6191 -43.6523 C 62.207 -43.6523 63.623 -40.3809 63.623 -34.1309 C 63.623 -28.0762 62.1582 -24.7559 59.6191 -24.7559 Z M 35.0098 -24.1699 C 32.5684 -24.1699 30.8105 -26.1719 30.8105 -29.0039 C 30.8105 -31.8359 32.5195 -33.7402 35.0098 -33.7402 C 37.5 -33.7402 39.209 -31.8359 39.209 -29.0039 C 39.209 -26.0254 37.5488 -24.1699 35.0098 -24.1699 Z"/>
  </g>
  <g id="Medium-S" transform="matrix(1 0 0 1 1699.83 696)">
   <path d="M 46.7285 4.63867 C 68.5547 4.63867 86.6211 -13.4277 86.6211 -35.2539 C 86.6211 -47.4609 80.6152 -59.1309 71.582 -66.2109 C 69.3359 -68.0176 66.5527 -67.6758 65.1855 -65.7227 C 63.7207 -63.623 64.3555 -61.1816 66.3086 -59.4727 C 73.3887 -53.7598 77.8809 -45.1172 77.9297 -35.2539 C 77.9785 -17.9199 64.0625 -4.05273 46.7285 -4.05273 C 29.3945 -4.05273 15.5273 -17.9199 15.5273 -35.2539 C 15.5273 -49.8047 25.293 -61.9141 38.6719 -65.4297 L 38.6719 -60.3027 C 38.6719 -57.1289 41.0156 -56.2988 43.5547 -58.1055 L 56.5918 -67.3828 C 58.6426 -68.8477 58.6914 -71.1426 56.5918 -72.6562 L 43.5547 -81.9336 C 41.0156 -83.7891 38.6719 -82.959 38.6719 -79.6875 L 38.6719 -74.3164 C 20.6055 -70.5078 6.83594 -54.2969 6.83594 -35.2539 C 6.83594 -13.4277 24.9023 4.63867 46.7285 4.63867 Z M 59.2773 -18.8477 C 65.5273 -18.8477 69.873 -24.8047 69.873 -34.1797 C 69.873 -43.6523 65.5273 -49.6582 59.2773 -49.6582 C 52.9297 -49.6582 48.7305 -43.8965 48.7305 -34.1797 C 48.7305 -24.5605 52.9785 -18.8477 59.2773 -18.8477 Z M 34.7168 -18.8477 C 40.918 -18.8477 44.9219 -23.0469 44.9219 -29.4922 C 44.9219 -35.1074 41.0645 -38.916 36.1328 -38.916 C 33.1055 -38.916 30.6641 -37.4512 29.541 -35.2051 C 29.541 -35.2051 29.541 -35.2539 29.541 -35.3027 C 29.541 -40.6738 31.8359 -44.2383 35.1562 -44.2383 C 36.7188 -44.2383 37.8418 -43.6035 38.6719 -42.4316 C 39.3555 -41.4551 40.1367 -41.0156 41.4062 -41.0156 C 42.7246 -41.0156 43.75 -42.041 43.75 -43.5059 C 43.75 -44.1406 43.6523 -44.7754 43.4082 -45.3125 C 42.2363 -47.9004 39.3066 -49.6094 35.4004 -49.6094 C 28.1738 -49.6094 23.877 -43.9453 23.877 -33.6914 C 23.877 -29.6875 24.4629 -26.3672 25.8301 -23.877 C 27.5879 -20.5566 30.7617 -18.8477 34.7168 -18.8477 Z M 59.2773 -24.5117 C 56.543 -24.5117 54.834 -28.0273 54.834 -34.1797 C 54.834 -40.4785 56.4941 -43.9941 59.2773 -43.9941 C 62.1094 -43.9941 63.6719 -40.4785 63.6719 -34.1797 C 63.6719 -28.0273 62.0605 -24.5117 59.2773 -24.5117 Z M 34.4238 -24.0234 C 31.7871 -24.0234 29.9316 -26.123 29.9316 -29.1504 C 29.9316 -32.0801 31.7871 -34.082 34.4238 -34.082 C 37.0605 -34.082 38.916 -32.0801 38.916 -29.1504 C 38.916 -25.9766 37.1582 -24.0234 34.4238 -24.0234 Z"/>
  </g>
  <g id="Regular-S" transform="matrix(1 0 0 1 1403.58 696)">
   <path d="M 46.2402 4.15039 C 67.7734 4.15039 85.6934 -13.7207 85.6934 -35.2539 C 85.6934 -47.9492 79.3945 -59.4238 69.8242 -66.6992 C 67.9199 -68.1641 65.4785 -67.7246 64.4043 -65.918 C 63.2812 -64.1113 63.8672 -62.0117 65.625 -60.6934 C 73.291 -54.8828 78.1738 -45.7031 78.2227 -35.2539 C 78.2715 -17.4805 64.0137 -3.27148 46.2402 -3.27148 C 28.5156 -3.27148 14.3555 -17.4805 14.3555 -35.2539 C 14.3555 -50.3906 24.6094 -62.9883 38.6719 -66.3086 L 38.6719 -61.3281 C 38.6719 -58.3008 40.7227 -57.5195 43.0176 -59.1309 L 55.4199 -67.8223 C 57.3242 -69.1406 57.373 -71.1914 55.4199 -72.5586 L 43.0664 -81.25 C 40.7227 -82.959 38.6719 -82.1777 38.6719 -79.1016 L 38.6719 -73.9258 C 20.6543 -70.3125 6.83594 -54.1992 6.83594 -35.2539 C 6.83594 -13.7207 24.7559 4.15039 46.2402 4.15039 Z M 58.8867 -19.0918 C 65.2832 -19.0918 69.4336 -25.0977 69.4336 -34.2773 C 69.4336 -43.5059 65.2832 -49.5605 58.8867 -49.5605 C 52.4414 -49.5605 48.3398 -43.5059 48.3398 -34.2285 C 48.3398 -25.0488 52.4902 -19.0918 58.8867 -19.0918 Z M 33.9355 -19.0918 C 40.0879 -19.0918 44.0918 -23.1445 44.0918 -29.541 C 44.0918 -35.1074 40.2832 -39.0625 35.2051 -39.0625 C 32.0801 -39.0625 29.5898 -37.5977 28.4668 -35.3027 C 28.5645 -40.8691 30.957 -44.6289 34.4238 -44.6289 C 36.0352 -44.6289 37.207 -43.9941 38.0371 -42.7246 C 38.7695 -41.6504 39.4531 -41.1621 40.7227 -41.1621 C 41.9922 -41.1621 42.9199 -42.1875 42.9199 -43.5547 C 42.9199 -44.0918 42.8223 -44.7266 42.627 -45.166 C 41.4551 -47.8516 38.4766 -49.5605 34.668 -49.5605 C 27.2949 -49.5605 23.2422 -43.8965 23.2422 -33.5938 C 23.2422 -29.541 23.877 -26.2207 25.1953 -23.7793 C 26.9531 -20.6543 30.0781 -19.0918 33.9355 -19.0918 Z M 58.8867 -24.2676 C 55.8594 -24.2676 53.9551 -28.0273 53.9551 -34.2773 C 53.9551 -40.625 55.8105 -44.3848 58.8867 -44.3848 C 61.9629 -44.3848 63.7695 -40.6738 63.7695 -34.2773 C 63.7695 -28.0273 61.9141 -24.2676 58.8867 -24.2676 Z M 33.6426 -23.8281 C 30.8594 -23.8281 28.8086 -26.0742 28.8086 -29.2969 C 28.8086 -32.4219 30.8105 -34.5703 33.6426 -34.5703 C 36.5234 -34.5703 38.5254 -32.4707 38.5254 -29.2969 C 38.5254 -25.8789 36.6211 -23.8281 33.6426 -23.8281 Z"/>
  </g>
  <g id="Light-S" transform="matrix(1 0 0 1 1107.6 696)">
   <path d="M 45.5078 3.4668 C 66.6992 3.4668 84.2285 -14.0625 84.2285 -35.2051 C 84.2285 -48.2422 77.5391 -59.8633 67.4805 -66.8945 C 65.9668 -68.0176 64.1602 -67.627 63.3301 -66.2598 C 62.5 -64.8926 62.8906 -63.2812 64.3066 -62.2559 C 72.8516 -56.3965 78.4668 -46.4844 78.5156 -35.2051 C 78.5156 -16.9434 63.8184 -2.24609 45.5078 -2.24609 C 27.2461 -2.24609 12.5977 -16.9434 12.5977 -35.2051 C 12.5977 -51.0254 23.5352 -64.1602 38.3301 -67.4316 L 38.3301 -61.4746 C 38.3301 -59.0332 40.0391 -58.3496 41.9434 -59.7168 L 54.0039 -68.1641 C 55.6152 -69.2871 55.6641 -70.9473 54.0039 -72.1191 L 41.9922 -80.5664 C 40.0391 -81.9824 38.3301 -81.2988 38.3301 -78.8086 L 38.3301 -73.2422 C 20.5078 -69.8242 6.83594 -53.9551 6.83594 -35.2051 C 6.83594 -14.0625 24.3652 3.4668 45.5078 3.4668 Z M 58.6426 -19.2383 C 64.9414 -19.2383 69.0918 -25.2441 69.0918 -34.4238 C 69.0918 -43.6523 64.9414 -49.707 58.6426 -49.707 C 52.2461 -49.707 48.1445 -43.6523 48.1445 -34.375 C 48.1445 -25.1953 52.2949 -19.2383 58.6426 -19.2383 Z M 33.252 -19.2383 C 39.4043 -19.2383 43.4082 -23.2422 43.4082 -29.4922 C 43.4082 -35.0098 39.5508 -38.9648 34.3262 -38.9648 C 30.6641 -38.9648 27.9297 -37.1582 26.8066 -34.5703 C 26.8066 -41.3086 29.541 -45.7031 33.7891 -45.7031 C 36.084 -45.7031 37.4023 -44.7754 38.3301 -43.1641 C 38.916 -42.2363 39.502 -41.8945 40.5273 -41.8945 C 41.5527 -41.8945 42.2363 -42.6758 42.2363 -43.7988 C 42.2363 -44.2383 42.1387 -44.7266 42.041 -45.0684 C 41.1133 -47.5586 38.1836 -49.6582 33.9844 -49.6582 C 26.709 -49.6582 22.6074 -43.8965 22.6074 -33.6426 C 22.6074 -29.6387 23.2422 -26.3184 24.5117 -24.0234 C 26.2207 -20.8496 29.3945 -19.2383 33.252 -19.2383 Z M 58.6426 -23.3398 C 54.9316 -23.3398 52.5879 -27.6367 52.5879 -34.4238 C 52.5879 -41.3086 54.9316 -45.6055 58.6426 -45.6055 C 62.3047 -45.6055 64.5996 -41.3574 64.5996 -34.4238 C 64.5996 -27.6367 62.2559 -23.3398 58.6426 -23.3398 Z M 33.0566 -23.0469 C 29.6875 -23.0469 27.1973 -25.6348 27.1973 -29.2969 C 27.1973 -32.8125 29.6387 -35.3027 33.1055 -35.3027 C 36.5234 -35.3027 38.9648 -32.9102 38.9648 -29.248 C 38.9648 -25.4395 36.6211 -23.0469 33.0566 -23.0469 Z"/>
  </g>
  <g id="Thin-S" transform="matrix(1 0 0 1 811.867 696)">
   <path d="M 44.5801 2.53906 C 65.2832 2.53906 82.2754 -14.4531 82.2754 -35.2051 C 82.2754 -48.6328 75.0977 -60.498 64.3555 -67.1387 C 63.4277 -67.8223 62.3535 -67.5293 61.9141 -66.748 C 61.4258 -65.918 61.6699 -64.9414 62.5 -64.3555 C 72.3145 -58.3496 78.8574 -47.5098 78.8574 -35.2051 C 78.8574 -16.2109 63.5254 -0.878906 44.5801 -0.878906 C 25.5859 -0.878906 10.2539 -16.2109 10.2539 -35.2051 C 10.2539 -51.8555 22.1191 -65.7227 37.8906 -68.8477 L 37.8906 -61.7188 C 37.8906 -60.0098 39.0625 -59.4727 40.5273 -60.498 L 52.1484 -68.6035 C 53.3691 -69.4824 53.3691 -70.6543 52.1484 -71.5332 L 40.5762 -79.6387 C 39.0625 -80.7129 37.8906 -80.127 37.8906 -78.418 L 37.8906 -72.3145 C 20.3125 -69.1406 6.83594 -53.6133 6.83594 -35.2051 C 6.83594 -14.4531 23.877 2.53906 44.5801 2.53906 Z M 58.3008 -19.3848 C 64.502 -19.3848 68.7012 -25.4395 68.7012 -34.6191 C 68.7012 -43.7988 64.502 -49.9023 58.3008 -49.9023 C 52.002 -49.9023 47.8516 -43.7988 47.8516 -34.6191 C 47.8516 -25.4395 52.0508 -19.3848 58.3008 -19.3848 Z M 32.373 -19.3848 C 38.4277 -19.3848 42.5293 -23.3887 42.5293 -29.3945 C 42.5293 -34.9121 38.5254 -38.8672 33.1543 -38.8672 C 28.7598 -38.8672 25.7812 -36.5723 24.6094 -33.6426 C 24.6094 -33.7891 24.6094 -33.8867 24.6094 -33.9355 C 24.6094 -42.0898 27.7344 -47.1191 33.0078 -47.1191 C 36.1328 -47.1191 37.6953 -45.8008 38.7207 -43.7988 C 39.1113 -43.0664 39.502 -42.7734 40.2832 -42.7734 C 40.9668 -42.7734 41.4062 -43.3105 41.4062 -44.0918 C 41.4062 -44.4336 41.3086 -44.6777 41.2109 -44.9707 C 40.625 -47.2168 37.8418 -49.7559 33.1055 -49.7559 C 25.8789 -49.7559 21.7773 -43.9453 21.7773 -33.6914 C 21.7773 -29.7363 22.4609 -26.4648 23.584 -24.3652 C 25.3418 -21.1426 28.5156 -19.3848 32.373 -19.3848 Z M 58.3008 -22.168 C 53.7598 -22.168 50.7812 -27.1484 50.7812 -34.6191 C 50.7812 -42.1875 53.7598 -47.168 58.3008 -47.168 C 62.7441 -47.168 65.7227 -42.1875 65.7227 -34.6191 C 65.7227 -27.1484 62.7441 -22.168 58.3008 -22.168 Z M 32.3242 -22.0215 C 28.125 -22.0215 25.0977 -25.0488 25.0977 -29.248 C 25.0977 -33.3008 28.1738 -36.3281 32.373 -36.3281 C 36.5723 -36.3281 39.502 -33.4473 39.502 -29.248 C 39.502 -24.8535 36.6211 -22.0215 32.3242 -22.0215 Z"/>
  </g>
  <g id="Ultralight-S" transform="matrix(1 0 0 1 515.644 696)">
   <path d="M 44.043 2.05078 C 64.502 2.05078 81.2988 -14.6973 81.2988 -35.1562 C 81.2988 -48.8281 73.8281 -60.8398 62.7441 -67.2852 C 62.1094 -67.7246 61.4258 -67.4805 61.1328 -66.9922 C 60.8887 -66.4551 61.0352 -65.7715 61.5723 -65.4297 C 72.0215 -59.3262 79.0527 -48.0469 79.0527 -35.1562 C 79.0527 -15.8691 63.3789 -0.146484 44.043 -0.146484 C 24.7559 -0.146484 9.08203 -15.8691 9.08203 -35.1562 C 9.08203 -52.2949 21.3867 -66.5527 37.6465 -69.5801 L 37.6465 -61.8164 C 37.6465 -60.5469 38.5742 -60.0098 39.7949 -60.8887 L 51.1719 -68.8477 C 52.1973 -69.5801 52.1973 -70.5078 51.1719 -71.1914 L 39.7949 -79.1504 C 38.5742 -80.0293 37.6465 -79.541 37.6465 -78.2227 L 37.6465 -71.8262 C 20.2148 -68.75 6.83594 -53.4668 6.83594 -35.1562 C 6.83594 -14.6973 23.584 2.05078 44.043 2.05078 Z M 58.1055 -19.5312 C 64.2578 -19.5312 68.457 -25.5371 68.457 -34.7168 C 68.457 -43.8965 64.2578 -50 58.1055 -50 C 51.9043 -50 47.7051 -43.8965 47.7051 -34.7168 C 47.7051 -25.5371 51.9043 -19.5312 58.1055 -19.5312 Z M 31.8848 -19.5312 C 37.9395 -19.5312 42.041 -23.4863 42.041 -29.3457 C 42.041 -34.8145 37.9883 -38.7695 32.5684 -38.7695 C 27.7832 -38.7695 24.707 -36.2793 23.4863 -33.2031 C 23.4375 -33.4961 23.4375 -33.5938 23.4375 -33.6426 C 23.4375 -42.5293 26.8066 -47.8516 32.5684 -47.8516 C 36.1816 -47.8516 37.8418 -46.3379 38.916 -44.1406 C 39.209 -43.457 39.5508 -43.2617 40.1367 -43.2617 C 40.625 -43.2617 40.9668 -43.6035 40.9668 -44.2383 C 40.9668 -44.5312 40.8691 -44.6777 40.8203 -44.9219 C 40.3809 -47.0215 37.6465 -49.8047 32.6172 -49.8047 C 25.4883 -49.8047 21.3379 -43.9453 21.3379 -33.7402 C 21.3379 -29.834 22.0215 -26.5625 23.0957 -24.5117 C 24.8535 -21.2891 28.0273 -19.5312 31.8848 -19.5312 Z M 58.1055 -21.5332 C 53.1738 -21.5332 49.8047 -26.8555 49.8047 -34.7168 C 49.8047 -42.627 53.1738 -47.9492 58.1055 -47.9492 C 62.9883 -47.9492 66.3086 -42.627 66.3086 -34.7168 C 66.3086 -26.8555 62.9883 -21.5332 58.1055 -21.5332 Z M 31.9336 -21.4844 C 27.3438 -21.4844 23.9746 -24.707 23.9746 -29.248 C 23.9746 -33.5938 27.3926 -36.8652 31.9824 -36.8652 C 36.5723 -36.8652 39.8438 -33.7891 39.8438 -29.1992 C 39.8438 -24.5117 36.6211 -21.4844 31.9336 -21.4844 Z"/>
  </g>
 </g>
</svg>
