<?xml version="1.0" encoding="UTF-8"?>
<!--Generator: Apple Native CoreSVG 148-->
<!DOCTYPE svg
PUBLIC "-//W3C//DTD SVG 1.1//EN"
       "http://www.w3.org/Graphics/SVG/1.1/DTD/svg11.dtd">
<svg version="1.1" xmlns="http://www.w3.org/2000/svg" xmlns:xlink="http://www.w3.org/1999/xlink" width="3300" height="2200">
 <!--glyph: "uni1007F0.medium", point size: 100.000000, font version: "Version 16.0d11e1", template writer version: "8"-->
 <g id="Notes">
  <rect height="2200" id="artboard" style="fill:white;opacity:1" width="3300" x="0" y="0"/>
  <line id="" style="fill:none;stroke:black;opacity:1;stroke-width:0.5;" x1="263" x2="3036" y1="292" y2="292"/>
  <text style="stroke:none;fill:black;font-family:-apple-system,&quot;SF Pro Display&quot;,&quot;SF Pro Text&quot;,Helvetica,sans-serif;font-weight:bold;" transform="matrix(1 0 0 1 263 322)">Weight/Scale Variations</text>
  <text style="stroke:none;fill:black;font-family:-apple-system,&quot;SF Pro Display&quot;,&quot;SF Pro Text&quot;,Helvetica,sans-serif;text-anchor:middle;" transform="matrix(1 0 0 1 559.711 322)">Ultralight</text>
  <text style="stroke:none;fill:black;font-family:-apple-system,&quot;SF Pro Display&quot;,&quot;SF Pro Text&quot;,Helvetica,sans-serif;text-anchor:middle;" transform="matrix(1 0 0 1 856.422 322)">Thin</text>
  <text style="stroke:none;fill:black;font-family:-apple-system,&quot;SF Pro Display&quot;,&quot;SF Pro Text&quot;,Helvetica,sans-serif;text-anchor:middle;" transform="matrix(1 0 0 1 1153.13 322)">Light</text>
  <text style="stroke:none;fill:black;font-family:-apple-system,&quot;SF Pro Display&quot;,&quot;SF Pro Text&quot;,Helvetica,sans-serif;text-anchor:middle;" transform="matrix(1 0 0 1 1449.84 322)">Regular</text>
  <text style="stroke:none;fill:black;font-family:-apple-system,&quot;SF Pro Display&quot;,&quot;SF Pro Text&quot;,Helvetica,sans-serif;text-anchor:middle;" transform="matrix(1 0 0 1 1746.56 322)">Medium</text>
  <text style="stroke:none;fill:black;font-family:-apple-system,&quot;SF Pro Display&quot;,&quot;SF Pro Text&quot;,Helvetica,sans-serif;text-anchor:middle;" transform="matrix(1 0 0 1 2043.27 322)">Semibold</text>
  <text style="stroke:none;fill:black;font-family:-apple-system,&quot;SF Pro Display&quot;,&quot;SF Pro Text&quot;,Helvetica,sans-serif;text-anchor:middle;" transform="matrix(1 0 0 1 2339.98 322)">Bold</text>
  <text style="stroke:none;fill:black;font-family:-apple-system,&quot;SF Pro Display&quot;,&quot;SF Pro Text&quot;,Helvetica,sans-serif;text-anchor:middle;" transform="matrix(1 0 0 1 2636.69 322)">Heavy</text>
  <text style="stroke:none;fill:black;font-family:-apple-system,&quot;SF Pro Display&quot;,&quot;SF Pro Text&quot;,Helvetica,sans-serif;text-anchor:middle;" transform="matrix(1 0 0 1 2933.4 322)">Black</text>
  <line id="" style="fill:none;stroke:black;opacity:1;stroke-width:0.5;" x1="263" x2="3036" y1="1903" y2="1903"/>
  <g id="" transform="matrix(1 0 0 1 263 1933)">
   <path d="M 9.24805 0.830078 C 13.5547 0.830078 17.1387 -2.74414 17.1387 -7.05078 C 17.1387 -11.3574 13.5449 -14.9316 9.23828 -14.9316 C 4.94141 -14.9316 1.36719 -11.3574 1.36719 -7.05078 C 1.36719 -2.74414 4.95117 0.830078 9.24805 0.830078 Z M 9.24805 -0.654297 C 5.70312 -0.654297 2.87109 -3.49609 2.87109 -7.05078 C 2.87109 -10.6055 5.69336 -13.4473 9.23828 -13.4473 C 12.793 -13.4473 15.6348 -10.6055 15.6445 -7.05078 C 15.6543 -3.49609 12.8027 -0.654297 9.24805 -0.654297 Z M 9.22852 -3.62305 C 9.69727 -3.62305 9.9707 -3.93555 9.9707 -4.45312 L 9.9707 -6.31836 L 12.002 -6.31836 C 12.5 -6.31836 12.832 -6.57227 12.832 -7.04102 C 12.832 -7.51953 12.5195 -7.7832 12.002 -7.7832 L 9.9707 -7.7832 L 9.9707 -9.81445 C 9.9707 -10.332 9.69727 -10.6543 9.22852 -10.6543 C 8.75977 -10.6543 8.50586 -10.3125 8.50586 -9.81445 L 8.50586 -7.7832 L 6.49414 -7.7832 C 5.97656 -7.7832 5.64453 -7.51953 5.64453 -7.04102 C 5.64453 -6.57227 5.99609 -6.31836 6.49414 -6.31836 L 8.50586 -6.31836 L 8.50586 -4.45312 C 8.50586 -3.95508 8.75977 -3.62305 9.22852 -3.62305 Z"/>
  </g>
  <g id="" transform="matrix(1 0 0 1 281.506 1933)">
   <path d="M 11.709 2.91016 C 17.1582 2.91016 21.6699 -1.61133 21.6699 -7.05078 C 21.6699 -12.5 17.1484 -17.0117 11.6992 -17.0117 C 6.25977 -17.0117 1.74805 -12.5 1.74805 -7.05078 C 1.74805 -1.61133 6.26953 2.91016 11.709 2.91016 Z M 11.709 1.25 C 7.09961 1.25 3.41797 -2.44141 3.41797 -7.05078 C 3.41797 -11.6602 7.08984 -15.3516 11.6992 -15.3516 C 16.3086 -15.3516 20 -11.6602 20.0098 -7.05078 C 20.0195 -2.44141 16.3184 1.25 11.709 1.25 Z M 11.6797 -2.66602 C 12.207 -2.66602 12.5098 -3.01758 12.5098 -3.59375 L 12.5098 -6.23047 L 15.3223 -6.23047 C 15.8691 -6.23047 16.25 -6.51367 16.25 -7.03125 C 16.25 -7.55859 15.8887 -7.86133 15.3223 -7.86133 L 12.5098 -7.86133 L 12.5098 -10.6836 C 12.5098 -11.25 12.207 -11.6113 11.6797 -11.6113 C 11.1621 -11.6113 10.8789 -11.2305 10.8789 -10.6836 L 10.8789 -7.86133 L 8.07617 -7.86133 C 7.50977 -7.86133 7.13867 -7.55859 7.13867 -7.03125 C 7.13867 -6.51367 7.5293 -6.23047 8.07617 -6.23047 L 10.8789 -6.23047 L 10.8789 -3.59375 C 10.8789 -3.03711 11.1621 -2.66602 11.6797 -2.66602 Z"/>
  </g>
  <g id="" transform="matrix(1 0 0 1 304.924 1933)">
   <path d="M 14.9707 5.66406 C 21.9336 5.66406 27.6953 -0.0976562 27.6953 -7.05078 C 27.6953 -14.0137 21.9238 -19.7754 14.9609 -19.7754 C 8.00781 -19.7754 2.25586 -14.0137 2.25586 -7.05078 C 2.25586 -0.0976562 8.01758 5.66406 14.9707 5.66406 Z M 14.9707 3.84766 C 8.93555 3.84766 4.08203 -1.01562 4.08203 -7.05078 C 4.08203 -13.0957 8.92578 -17.9492 14.9609 -17.9492 C 21.0059 -17.9492 25.8594 -13.0957 25.8691 -7.05078 C 25.8789 -1.01562 21.0156 3.84766 14.9707 3.84766 Z M 14.9414 -1.38672 C 15.5176 -1.38672 15.8594 -1.77734 15.8594 -2.38281 L 15.8594 -6.13281 L 19.7754 -6.13281 C 20.3711 -6.13281 20.7812 -6.46484 20.7812 -7.02148 C 20.7812 -7.59766 20.3906 -7.93945 19.7754 -7.93945 L 15.8594 -7.93945 L 15.8594 -11.8652 C 15.8594 -12.4805 15.5176 -12.8711 14.9414 -12.8711 C 14.375 -12.8711 14.0527 -12.4609 14.0527 -11.8652 L 14.0527 -7.93945 L 10.1465 -7.93945 C 9.53125 -7.93945 9.13086 -7.59766 9.13086 -7.02148 C 9.13086 -6.46484 9.55078 -6.13281 10.1465 -6.13281 L 14.0527 -6.13281 L 14.0527 -2.38281 C 14.0527 -1.79688 14.375 -1.38672 14.9414 -1.38672 Z"/>
  </g>
  <text style="stroke:none;fill:black;font-family:-apple-system,&quot;SF Pro Display&quot;,&quot;SF Pro Text&quot;,Helvetica,sans-serif;font-weight:bold;" transform="matrix(1 0 0 1 263 1953)">Design Variations</text>
  <text style="stroke:none;fill:black;font-family:-apple-system,&quot;SF Pro Display&quot;,&quot;SF Pro Text&quot;,Helvetica,sans-serif;" transform="matrix(1 0 0 1 263 1971)">Symbols are supported in up to nine weights and three scales.</text>
  <text style="stroke:none;fill:black;font-family:-apple-system,&quot;SF Pro Display&quot;,&quot;SF Pro Text&quot;,Helvetica,sans-serif;" transform="matrix(1 0 0 1 263 1989)">For optimal layout with text and other symbols, vertically align</text>
  <text style="stroke:none;fill:black;font-family:-apple-system,&quot;SF Pro Display&quot;,&quot;SF Pro Text&quot;,Helvetica,sans-serif;" transform="matrix(1 0 0 1 263 2007)">symbols with the adjacent text.</text>
  <line id="" style="fill:none;stroke:#00AEEF;stroke-width:0.5;opacity:1.0;" x1="776" x2="776" y1="1919" y2="1933"/>
  <g id="" transform="matrix(1 0 0 1 776 1933)">
   <path d="M 3.31055 0.126953 C 3.82812 0.126953 4.08203 -0.0683594 4.26758 -0.605469 L 5.52734 -4.0625 L 11.2891 -4.0625 L 12.5488 -0.605469 C 12.7344 -0.0683594 12.9883 0.126953 13.4961 0.126953 C 14.0137 0.126953 14.3457 -0.185547 14.3457 -0.673828 C 14.3457 -0.839844 14.3164 -0.986328 14.2383 -1.20117 L 9.6582 -13.3887 C 9.43359 -13.9941 9.0332 -14.2871 8.4082 -14.2871 C 7.80273 -14.2871 7.39258 -13.9941 7.17773 -13.3984 L 2.59766 -1.19141 C 2.51953 -0.976562 2.49023 -0.830078 2.49023 -0.664062 C 2.49023 -0.175781 2.80273 0.126953 3.31055 0.126953 Z M 6.00586 -5.53711 L 8.37891 -12.1094 L 8.42773 -12.1094 L 10.8008 -5.53711 Z"/>
  </g>
  <line id="" style="fill:none;stroke:#00AEEF;stroke-width:0.5;opacity:1.0;" x1="792.836" x2="792.836" y1="1919" y2="1933"/>
  <text style="stroke:none;fill:black;font-family:-apple-system,&quot;SF Pro Display&quot;,&quot;SF Pro Text&quot;,Helvetica,sans-serif;font-weight:bold;" transform="matrix(1 0 0 1 776 1953)">Margins</text>
  <text style="stroke:none;fill:black;font-family:-apple-system,&quot;SF Pro Display&quot;,&quot;SF Pro Text&quot;,Helvetica,sans-serif;" transform="matrix(1 0 0 1 776 1971)">Leading and trailing margins on the left and right side of each symbol</text>
  <text style="stroke:none;fill:black;font-family:-apple-system,&quot;SF Pro Display&quot;,&quot;SF Pro Text&quot;,Helvetica,sans-serif;" transform="matrix(1 0 0 1 776 1989)">can be adjusted by modifying the x-location of the margin guidelines.</text>
  <text style="stroke:none;fill:black;font-family:-apple-system,&quot;SF Pro Display&quot;,&quot;SF Pro Text&quot;,Helvetica,sans-serif;" transform="matrix(1 0 0 1 776 2007)">Modifications are automatically applied proportionally to all</text>
  <text style="stroke:none;fill:black;font-family:-apple-system,&quot;SF Pro Display&quot;,&quot;SF Pro Text&quot;,Helvetica,sans-serif;" transform="matrix(1 0 0 1 776 2025)">scales and weights.</text>
  <g id="" transform="matrix(1 0 0 1 1289 1933)">
   <path d="M 2.8418 1.86523 L 4.54102 3.57422 C 5.40039 4.44336 6.38672 4.38477 7.31445 3.35938 L 17.4902 -7.85156 C 17.7539 -7.76367 18.0273 -7.7832 18.3398 -7.8418 L 19.4043 -8.03711 L 20.0684 -7.36328 L 20.0293 -6.80664 C 19.9902 -6.30859 20.1172 -5.92773 20.6055 -5.44922 L 21.3672 -4.70703 C 21.8457 -4.22852 22.4609 -4.19922 22.9297 -4.66797 L 25.8398 -7.58789 C 26.3086 -8.05664 26.2891 -8.65234 25.8105 -9.13086 L 25.0391 -9.89258 C 24.5605 -10.3711 24.1895 -10.5273 23.7109 -10.4883 L 23.1348 -10.4395 L 22.4902 -11.0742 L 22.7344 -12.1973 C 22.8613 -12.7637 22.7051 -13.2031 22.1191 -13.7891 L 19.9219 -15.9766 C 16.582 -19.2969 12.1484 -19.2188 9.25781 -16.3281 C 8.83789 -15.918 8.80859 -15.3418 9.04297 -14.9512 C 9.27734 -14.5898 9.73633 -14.3555 10.3809 -14.5215 C 11.8457 -14.8633 13.3691 -14.9219 14.7949 -13.9844 L 14.209 -12.5293 C 14.0137 -12.0508 13.9844 -11.6504 14.1113 -11.2891 L 3.04688 -0.898438 C 2.06055 0.0195312 1.98242 0.996094 2.8418 1.86523 Z M 10.752 -15.957 C 13.1836 -17.7344 16.4746 -17.4316 18.7012 -15.2051 L 21.1328 -12.793 C 21.3672 -12.5586 21.4062 -12.373 21.3379 -12.0312 L 21.0156 -10.5469 L 22.5195 -9.0625 L 23.5059 -9.12109 C 23.7598 -9.13086 23.8379 -9.11133 24.0332 -8.91602 L 24.6094 -8.33984 L 22.168 -5.89844 L 21.5918 -6.47461 C 21.3965 -6.66992 21.3672 -6.74805 21.377 -7.01172 L 21.4453 -7.98828 L 19.9512 -9.47266 L 18.4277 -9.21875 C 18.1055 -9.15039 17.959 -9.17969 17.7148 -9.41406 L 15.7129 -11.416 C 15.459 -11.6504 15.4297 -11.8164 15.5859 -12.1875 L 16.4648 -14.2773 C 14.9023 -15.7324 12.8711 -16.3574 10.8398 -15.7617 C 10.6836 -15.7227 10.625 -15.8496 10.752 -15.957 Z M 5.27344 2.30469 L 4.10156 1.14258 C 3.63281 0.683594 3.74023 0.341797 4.14062 -0.0195312 L 14.9512 -10.1953 L 16.416 -8.71094 L 6.42578 2.27539 C 6.07422 2.67578 5.74219 2.77344 5.27344 2.30469 Z"/>
  </g>
  <text style="stroke:none;fill:black;font-family:-apple-system,&quot;SF Pro Display&quot;,&quot;SF Pro Text&quot;,Helvetica,sans-serif;font-weight:bold;" transform="matrix(1 0 0 1 1289 1953)">Exporting</text>
  <text style="stroke:none;fill:black;font-family:-apple-system,&quot;SF Pro Display&quot;,&quot;SF Pro Text&quot;,Helvetica,sans-serif;" transform="matrix(1 0 0 1 1289 1971)">Symbols should be outlined when exporting to ensure the</text>
  <text style="stroke:none;fill:black;font-family:-apple-system,&quot;SF Pro Display&quot;,&quot;SF Pro Text&quot;,Helvetica,sans-serif;" transform="matrix(1 0 0 1 1289 1989)">design is preserved when submitting to Xcode.</text>
  <text id="template-version" style="stroke:none;fill:black;font-family:-apple-system,&quot;SF Pro Display&quot;,&quot;SF Pro Text&quot;,Helvetica,sans-serif;text-anchor:end;" transform="matrix(1 0 0 1 3036 1933)">Template v.2.0</text>
  <text style="stroke:none;fill:black;font-family:-apple-system,&quot;SF Pro Display&quot;,&quot;SF Pro Text&quot;,Helvetica,sans-serif;text-anchor:end;" transform="matrix(1 0 0 1 3036 1951)">Requires Xcode 12 or greater</text>
  <text style="stroke:none;fill:black;font-family:-apple-system,&quot;SF Pro Display&quot;,&quot;SF Pro Text&quot;,Helvetica,sans-serif;text-anchor:end;" transform="matrix(1 0 0 1 3036 1969)">Generated from hand.wave</text>
  <text style="stroke:none;fill:black;font-family:-apple-system,&quot;SF Pro Display&quot;,&quot;SF Pro Text&quot;,Helvetica,sans-serif;text-anchor:end;" transform="matrix(1 0 0 1 3036 1987)">Typeset at 100 points</text>
  <text style="stroke:none;fill:black;font-family:-apple-system,&quot;SF Pro Display&quot;,&quot;SF Pro Text&quot;,Helvetica,sans-serif;" transform="matrix(1 0 0 1 263 726)">Small</text>
  <text style="stroke:none;fill:black;font-family:-apple-system,&quot;SF Pro Display&quot;,&quot;SF Pro Text&quot;,Helvetica,sans-serif;" transform="matrix(1 0 0 1 263 1156)">Medium</text>
  <text style="stroke:none;fill:black;font-family:-apple-system,&quot;SF Pro Display&quot;,&quot;SF Pro Text&quot;,Helvetica,sans-serif;" transform="matrix(1 0 0 1 263 1586)">Large</text>
 </g>
 <g id="Guides">
  <g id="H-reference" style="fill:#27AAE1;stroke:none;" transform="matrix(1 0 0 1 339 696)">
   <path d="M 0.976562 0 L 3.66211 0 L 12.9883 -24.4629 L 45.7031 -24.4629 L 55.0781 0 L 57.7148 0 L 30.6152 -70.459 L 28.125 -70.459 Z M 29.2969 -67.1387 L 29.3945 -67.1387 L 44.873 -26.709 L 13.8672 -26.709 Z"/>
  </g>
  <line id="Baseline-S" style="fill:none;stroke:#27AAE1;opacity:1;stroke-width:0.5;" x1="263" x2="3036" y1="696" y2="696"/>
  <line id="Capline-S" style="fill:none;stroke:#27AAE1;opacity:1;stroke-width:0.5;" x1="263" x2="3036" y1="625.541" y2="625.541"/>
  <g id="H-reference" style="fill:#27AAE1;stroke:none;" transform="matrix(1 0 0 1 339 1126)">
   <path d="M 0.976562 0 L 3.66211 0 L 12.9883 -24.4629 L 45.7031 -24.4629 L 55.0781 0 L 57.7148 0 L 30.6152 -70.459 L 28.125 -70.459 Z M 29.2969 -67.1387 L 29.3945 -67.1387 L 44.873 -26.709 L 13.8672 -26.709 Z"/>
  </g>
  <line id="Baseline-M" style="fill:none;stroke:#27AAE1;opacity:1;stroke-width:0.5;" x1="263" x2="3036" y1="1126" y2="1126"/>
  <line id="Capline-M" style="fill:none;stroke:#27AAE1;opacity:1;stroke-width:0.5;" x1="263" x2="3036" y1="1055.54" y2="1055.54"/>
  <g id="H-reference" style="fill:#27AAE1;stroke:none;" transform="matrix(1 0 0 1 339 1556)">
   <path d="M 0.976562 0 L 3.66211 0 L 12.9883 -24.4629 L 45.7031 -24.4629 L 55.0781 0 L 57.7148 0 L 30.6152 -70.459 L 28.125 -70.459 Z M 29.2969 -67.1387 L 29.3945 -67.1387 L 44.873 -26.709 L 13.8672 -26.709 Z"/>
  </g>
  <line id="Baseline-L" style="fill:none;stroke:#27AAE1;opacity:1;stroke-width:0.5;" x1="263" x2="3036" y1="1556" y2="1556"/>
  <line id="Capline-L" style="fill:none;stroke:#27AAE1;opacity:1;stroke-width:0.5;" x1="263" x2="3036" y1="1485.54" y2="1485.54"/>
  <line id="left-margin" style="fill:none;stroke:#00AEEF;stroke-width:0.5;opacity:1.0;" x1="1394.16" x2="1394.16" y1="1030.79" y2="1150.12"/>
  <line id="right-margin" style="fill:none;stroke:#00AEEF;stroke-width:0.5;opacity:1.0;" x1="1505.53" x2="1505.53" y1="1030.79" y2="1150.12"/>
 </g>
 <g id="Symbols">
  <g id="Black-L" transform="matrix(1 0 0 1 2851.44 1556)">
   <path d="M 135.449 18.7988 C 154.492 -0.244141 157.764 -23.5352 145.166 -50.1953 L 130.42 -81.3477 C 129.15 -84.082 127.539 -86.377 125.684 -88.2324 C 119.434 -94.4824 109.912 -94.873 103.369 -88.3301 C 99.9023 -84.8145 98.2422 -79.5898 99.9512 -74.707 L 100.781 -72.5586 C 100.879 -72.3633 100.879 -72.2168 100.732 -72.0703 C 100.537 -71.875 100.342 -71.9727 100.195 -72.0703 L 70.9473 -101.367 C 63.916 -108.398 54.1504 -108.203 46.9238 -100.977 C 45.6543 -99.707 44.7266 -98.1934 44.043 -96.582 C 37.9395 -99.1699 31.5918 -97.7539 26.4648 -92.6758 C 21.6309 -87.793 20.2148 -81.2988 22.5586 -75.2441 C 21.1426 -74.707 19.7754 -73.8281 18.7012 -72.7539 C 11.9629 -66.0156 11.8652 -56.6895 18.2129 -50.293 L 19.8242 -48.7305 C 18.5059 -48.2422 17.2852 -47.5586 16.2109 -46.4844 C 9.47266 -39.7461 9.61914 -29.8828 16.3574 -23.1445 L 57.666 18.1641 C 81.4453 41.9434 112.061 42.1387 135.449 18.7988 Z M 122.852 6.93359 C 106.201 23.5352 85.7422 23.2422 68.1641 5.66406 L 29.3457 -33.1543 C 28.418 -34.082 28.418 -35.4492 29.3457 -36.377 C 30.2734 -37.3047 31.6895 -37.3047 32.6172 -36.377 L 56.2012 -12.793 C 58.9355 -10.0586 63.3789 -10.1562 66.1133 -12.8906 C 68.8965 -15.625 68.9453 -20.0684 66.2109 -22.8516 L 30.5664 -58.4473 C 29.6387 -59.375 29.6387 -60.7422 30.5664 -61.6699 C 31.4941 -62.5977 32.9102 -62.6465 33.8379 -61.7188 L 66.9922 -28.5645 C 69.7266 -25.7812 74.1699 -25.8789 76.9043 -28.6621 C 79.6875 -31.3965 79.7363 -35.8398 77.002 -38.5742 L 37.793 -77.7832 C 36.8652 -78.7109 36.8652 -80.0781 37.793 -81.0059 C 38.7207 -81.9336 40.0879 -81.9824 41.0156 -81.0059 L 78.0273 -44.043 C 80.7617 -41.3086 85.2051 -41.4062 87.9395 -44.1406 C 90.7227 -46.875 90.7715 -51.3184 88.0371 -54.0527 L 57.1289 -85.0098 C 56.2012 -85.9375 56.1523 -87.2559 57.0801 -88.1836 C 58.0078 -89.1113 59.4238 -89.1602 60.3516 -88.2324 L 106.543 -42.041 C 110.254 -38.3301 114.893 -39.0625 117.822 -42.041 C 120.117 -44.4824 121.338 -48.0957 119.775 -52.0996 L 111.719 -73.1445 C 111.133 -74.7559 111.914 -76.0254 112.988 -76.4648 C 114.16 -76.9043 115.43 -76.4648 116.113 -75 L 130.42 -43.2129 C 139.844 -22.3145 137.256 -7.4707 122.852 6.93359 Z"/>
  </g>
  <g id="Heavy-L" transform="matrix(1 0 0 1 2557.37 1556)">
   <path d="M 130.957 17.0898 C 149.121 -1.07422 152.246 -23.3398 140.137 -48.8281 L 125.488 -79.834 C 124.268 -82.4219 122.754 -84.5215 121.094 -86.2305 C 115.234 -92.041 106.445 -92.334 100.391 -86.2793 C 97.0215 -82.9102 95.5566 -77.832 97.3145 -72.9492 L 99.1699 -68.457 C 99.2676 -68.2617 99.2676 -68.0664 99.1211 -67.9199 C 98.9258 -67.7246 98.7305 -67.7734 98.5352 -67.9688 L 67.4316 -99.0723 C 60.8887 -105.615 51.9531 -105.469 45.3125 -98.877 C 43.8965 -97.4609 42.9688 -95.752 42.4316 -93.9453 C 36.6211 -96.875 30.3711 -95.8008 25.4883 -90.8691 C 20.752 -86.1328 19.6777 -79.7852 22.3633 -74.0723 C 20.752 -73.6328 19.1895 -72.7539 17.9688 -71.5332 C 11.7676 -65.332 11.7188 -56.7383 17.7246 -50.7324 L 20.166 -48.291 C 18.6035 -47.9492 17.041 -47.168 15.7715 -45.8984 C 9.61914 -39.7461 9.76562 -30.6641 16.0645 -24.3652 L 56.5918 16.1621 C 79.6387 39.209 108.838 39.209 130.957 17.0898 Z M 120.068 6.78711 C 103.711 23.1934 83.3984 22.9492 65.6738 5.27344 L 27.3438 -33.1055 C 26.123 -34.3262 26.0742 -36.0352 27.2461 -37.207 C 28.4668 -38.3789 30.1758 -38.4277 31.3965 -37.207 L 54.7363 -13.8672 C 57.1777 -11.377 61.084 -11.5234 63.4766 -13.916 C 65.918 -16.3086 66.0156 -20.2148 63.5742 -22.6562 L 28.3691 -57.8613 C 27.1484 -59.082 27.0996 -60.791 28.2715 -61.9629 C 29.4922 -63.1836 31.2012 -63.1836 32.4219 -61.9629 L 65.1855 -29.1992 C 67.6758 -26.709 71.582 -26.8555 73.9746 -29.248 C 76.3672 -31.6406 76.4648 -35.5469 74.0234 -37.9883 L 35.3516 -76.6602 C 34.1309 -77.8809 34.082 -79.6387 35.3027 -80.8105 C 36.4746 -81.9824 38.2324 -81.9824 39.4043 -80.7617 L 76.416 -43.7988 C 78.8086 -41.3574 82.7148 -41.4062 85.1562 -43.8477 C 87.5977 -46.2891 87.6465 -50.1953 85.2051 -52.5879 L 54.1504 -83.6914 C 52.9297 -84.9121 52.8809 -86.5723 54.0527 -87.793 C 55.2734 -88.9648 57.0312 -88.9648 58.2031 -87.7441 L 103.809 -42.1875 C 107.129 -38.8672 111.23 -39.4531 113.867 -42.1387 C 116.016 -44.3359 117.09 -47.5586 115.625 -51.3184 L 107.568 -72.2168 C 106.836 -74.1699 107.666 -75.7324 109.033 -76.3184 C 110.547 -76.9531 112.061 -76.3184 112.939 -74.4629 L 127.393 -42.7734 C 136.816 -22.1191 134.033 -7.12891 120.068 6.78711 Z"/>
  </g>
  <g id="Bold-L" transform="matrix(1 0 0 1 2263.64 1556)">
   <path d="M 125.977 15.1855 C 143.115 -2.00195 146.045 -23.1445 134.57 -47.3145 L 119.922 -78.125 C 118.848 -80.4688 117.48 -82.4219 115.918 -83.9844 C 110.547 -89.3555 102.49 -89.4531 97.0215 -83.9844 C 93.7988 -80.7617 92.5293 -75.8789 94.3848 -70.9961 L 97.3633 -63.8672 C 97.5098 -63.623 97.4609 -63.4277 97.3145 -63.2812 C 97.1191 -63.0859 96.875 -63.1348 96.6797 -63.3301 L 63.4766 -96.5332 C 57.4707 -102.539 49.4629 -102.49 43.5059 -96.5332 C 41.9434 -94.9707 40.9668 -93.0664 40.625 -91.0156 C 35.1074 -94.2871 29.1016 -93.6035 24.3652 -88.916 C 19.8242 -84.3262 19.0918 -78.125 22.168 -72.7051 C 20.3125 -72.4609 18.5059 -71.5332 17.1387 -70.1172 C 11.5723 -64.5508 11.5234 -56.8359 17.1387 -51.2695 L 20.5566 -47.8027 C 18.7012 -47.6562 16.8457 -46.7285 15.332 -45.2637 C 9.76562 -39.6973 9.91211 -31.5918 15.7715 -25.7812 L 55.3711 13.8672 C 77.6367 36.1328 105.225 35.9375 125.977 15.1855 Z M 116.943 6.68945 C 100.879 22.7539 80.7617 22.6074 62.9395 4.78516 L 25.0488 -33.0566 C 23.5352 -34.6191 23.4375 -36.6699 24.9023 -38.1348 C 26.3672 -39.6484 28.5156 -39.5996 30.0781 -38.0859 L 53.125 -15.0391 C 55.2734 -12.8906 58.5449 -13.0371 60.5469 -15.0391 C 62.5977 -17.0898 62.7441 -20.3613 60.5957 -22.5098 L 25.8789 -57.2266 C 24.3164 -58.7891 24.2188 -60.8398 25.6836 -62.3047 C 27.1973 -63.7695 29.3457 -63.7695 30.8594 -62.2559 L 63.2324 -29.8828 C 65.3809 -27.7344 68.6523 -27.8809 70.6543 -29.8828 C 72.7051 -31.9336 72.8516 -35.2051 70.7031 -37.3535 L 32.6172 -75.4395 C 31.1035 -76.9531 31.0059 -79.1504 32.4707 -80.6152 C 33.9355 -82.0801 36.084 -81.9824 37.6465 -80.4199 L 74.6094 -43.457 C 76.6602 -41.4062 79.9805 -41.4551 82.0312 -43.5059 C 84.082 -45.5566 84.1309 -48.877 82.0801 -50.9766 L 50.8301 -82.1777 C 49.2676 -83.7402 49.2188 -85.8398 50.7324 -87.3047 C 52.1973 -88.7695 54.2969 -88.7207 55.8105 -87.207 L 100.684 -42.334 C 103.613 -39.4531 107.178 -39.8438 109.473 -42.1875 C 111.377 -44.1406 112.305 -46.9238 110.938 -50.3906 L 102.93 -71.1426 C 102.002 -73.4863 102.881 -75.3906 104.639 -76.1719 C 106.494 -77.002 108.35 -76.1719 109.375 -73.8281 L 123.975 -42.334 C 133.398 -21.9727 130.371 -6.78711 116.943 6.68945 Z"/>
  </g>
  <g id="Semibold-L" transform="matrix(1 0 0 1 1968.95 1556)">
   <path d="M 122.51 13.8672 C 139.014 -2.58789 141.748 -22.998 130.664 -46.2891 L 116.113 -77.002 C 115.088 -79.1992 113.77 -81.0059 112.354 -82.4219 C 107.275 -87.5 99.8047 -87.5 94.7266 -82.4219 C 91.6016 -79.2969 90.4785 -74.5605 92.3828 -69.6289 L 96.1426 -60.7422 C 96.2402 -60.4492 96.2402 -60.2539 96.0938 -60.1074 C 95.8496 -59.8633 95.6055 -59.9609 95.4102 -60.1562 L 60.791 -94.7754 C 55.127 -100.439 47.7539 -100.391 42.2363 -94.873 C 40.625 -93.2617 39.5996 -91.1621 39.4043 -89.0137 C 34.082 -92.5293 28.1738 -92.1387 23.584 -87.5488 C 19.1406 -83.1055 18.7012 -77.002 22.0215 -71.7773 C 19.9707 -71.6309 18.0176 -70.6543 16.5527 -69.1895 C 11.377 -64.0625 11.4258 -56.9336 16.748 -51.6113 L 20.8496 -47.5098 C 18.75 -47.4121 16.6504 -46.4355 15.0391 -44.7754 C 9.91211 -39.6484 10.0586 -32.2266 15.5273 -26.709 L 54.541 12.3047 C 76.2695 33.9844 102.734 33.6914 122.51 13.8672 Z M 114.795 6.5918 C 98.9258 22.4609 78.9062 22.3633 60.9863 4.49219 L 23.4863 -33.0566 C 21.7285 -34.8145 21.582 -37.1094 23.291 -38.7695 C 24.9512 -40.4785 27.3926 -40.4785 29.1504 -38.7207 L 52.002 -15.8203 C 53.9062 -13.916 56.7871 -14.1113 58.4961 -15.8203 C 60.3027 -17.5781 60.4492 -20.459 58.5449 -22.4121 L 24.1211 -56.7871 C 22.3633 -58.5449 22.2656 -60.8398 23.9258 -62.5488 C 25.6348 -64.209 28.0273 -64.209 29.7852 -62.4512 L 61.8164 -30.3711 C 63.7695 -28.4668 66.6504 -28.6133 68.3594 -30.3711 C 70.166 -32.1289 70.3125 -35.0098 68.4082 -36.9141 L 30.7617 -74.5605 C 29.0039 -76.3184 28.8574 -78.8086 30.5664 -80.4688 C 32.1777 -82.0801 34.6191 -81.9824 36.377 -80.2246 L 73.3398 -43.2617 C 75.1465 -41.4551 78.0273 -41.4551 79.834 -43.2617 C 81.6895 -45.0684 81.7383 -47.998 79.8828 -49.8047 L 48.5352 -81.2012 C 46.7773 -82.959 46.7285 -85.3027 48.3887 -87.0117 C 50.0977 -88.6719 52.4414 -88.5742 54.1992 -86.8164 L 98.584 -42.4316 C 101.172 -39.8438 104.346 -40.1367 106.445 -42.2363 C 108.203 -44.043 109.033 -46.5332 107.715 -49.8047 L 99.707 -70.459 C 98.6816 -73.0469 99.6094 -75.1465 101.611 -76.0742 C 103.711 -77.0508 105.762 -76.0254 106.982 -73.4375 L 121.631 -41.9922 C 131.055 -21.8262 127.881 -6.49414 114.795 6.5918 Z"/>
  </g>
  <g id="Medium-L" transform="matrix(1 0 0 1 1673.78 1556)">
   <path d="M 119.922 12.8418 C 135.84 -3.07617 138.525 -22.9004 127.734 -45.5078 L 113.232 -76.123 C 112.207 -78.1738 110.986 -79.8828 109.619 -81.2988 C 104.834 -86.084 97.7539 -85.9863 92.9688 -81.2012 C 89.9414 -78.1738 88.916 -73.5352 90.8691 -68.6523 L 95.2148 -58.3496 C 95.3125 -58.0566 95.3125 -57.8125 95.166 -57.666 C 94.9219 -57.4707 94.6777 -57.5195 94.4336 -57.7148 L 58.7402 -93.457 C 53.3203 -98.8281 46.4355 -98.7793 41.3086 -93.6523 C 39.5996 -91.9434 38.5742 -89.7461 38.4766 -87.4512 C 33.3008 -91.2109 27.4902 -91.0156 22.998 -86.5234 C 18.6523 -82.1289 18.3594 -76.123 21.9238 -71.0449 C 19.7266 -70.9961 17.6758 -70.0195 16.1133 -68.457 C 11.2793 -63.623 11.377 -56.9336 16.4551 -51.8555 L 21.0449 -47.2656 C 18.7988 -47.2656 16.5527 -46.1914 14.7949 -44.4336 C 9.96094 -39.6484 10.1562 -32.666 15.3809 -27.4414 L 53.9551 11.1328 C 75.1953 32.373 100.83 31.9336 119.922 12.8418 Z M 113.135 6.54297 C 97.4609 22.2168 77.5391 22.2168 59.5703 4.24805 L 22.3145 -33.0566 C 20.3613 -34.9609 20.2148 -37.4512 22.0215 -39.2578 C 23.877 -41.1133 26.5137 -41.1133 28.418 -39.1602 L 51.123 -16.4551 C 52.8809 -14.6973 55.4199 -14.8926 56.9824 -16.4062 C 58.5449 -18.0176 58.7402 -20.5566 56.9824 -22.3145 L 22.8516 -56.4453 C 20.8984 -58.3496 20.752 -60.8398 22.6074 -62.6953 C 24.4141 -64.5508 27.0508 -64.502 28.9551 -62.5977 L 60.791 -30.7617 C 62.5488 -29.0039 65.0879 -29.1992 66.6504 -30.7129 C 68.2129 -32.2754 68.4082 -34.8145 66.6504 -36.5723 L 29.2969 -73.9258 C 27.3926 -75.8301 27.2461 -78.5156 29.1016 -80.3711 C 30.8594 -82.1289 33.5449 -81.9824 35.4492 -80.0781 L 72.4121 -43.1152 C 74.0234 -41.4551 76.6113 -41.4551 78.2227 -43.0664 C 79.834 -44.7266 79.8828 -47.3145 78.2227 -48.9746 L 46.7773 -80.4199 C 44.873 -82.3242 44.8242 -84.9121 46.6309 -86.7676 C 48.4863 -88.5742 51.0254 -88.4766 52.9297 -86.5234 L 96.9727 -42.5293 C 99.3164 -40.1367 102.197 -40.332 104.15 -42.2852 C 105.811 -43.9453 106.494 -46.1914 105.273 -49.3164 L 97.2656 -69.9219 C 96.1914 -72.7051 97.1191 -75 99.2676 -75.9766 C 101.611 -77.0508 103.76 -75.9766 105.127 -73.0957 L 119.873 -41.748 C 129.248 -21.7773 125.977 -6.29883 113.135 6.54297 Z"/>
  </g>
  <g id="Regular-L" transform="matrix(1 0 0 1 1379.09 1556)">
   <path d="M 116.504 11.5723 C 131.738 -3.71094 134.277 -22.7539 123.926 -44.4824 L 109.424 -74.9512 C 108.496 -76.9043 107.373 -78.4668 106.104 -79.7363 C 101.611 -84.2285 95.0684 -84.0332 90.7227 -79.6387 C 87.7441 -76.709 86.8652 -72.2168 88.8672 -67.2852 L 93.9941 -55.2246 C 94.0918 -54.9316 94.0918 -54.6875 93.8965 -54.4922 C 93.7012 -54.2969 93.4082 -54.3457 93.1641 -54.541 L 56.0547 -91.6992 C 51.0254 -96.7285 44.7754 -96.7285 40.0879 -92.041 C 38.2324 -90.2344 37.207 -87.8906 37.207 -85.4492 C 32.2754 -89.4531 26.6113 -89.502 22.2656 -85.1562 C 18.0176 -80.9082 17.9688 -75 21.7773 -70.166 C 19.4336 -70.166 17.2363 -69.1895 15.5273 -67.5293 C 11.1328 -63.1348 11.2305 -57.0312 16.0645 -52.1973 L 21.3379 -46.9238 C 18.8477 -47.0215 16.4062 -45.8984 14.502 -43.9941 C 10.1074 -39.5996 10.2539 -33.3008 15.1367 -28.418 L 53.125 9.57031 C 73.8281 30.2734 98.3398 29.7363 116.504 11.5723 Z M 111.035 6.44531 C 95.5078 21.9238 75.7324 21.9727 57.666 3.90625 L 20.752 -33.0078 C 18.6035 -35.1562 18.4082 -37.8906 20.459 -39.9414 C 22.4609 -41.9434 25.3906 -41.8945 27.4902 -39.7949 L 50.0488 -17.2852 C 51.5625 -15.7227 53.7109 -15.918 54.9805 -17.1875 C 56.2988 -18.5059 56.4941 -20.6543 54.9805 -22.168 L 21.1426 -56.0059 C 18.9941 -58.1543 18.7988 -60.8887 20.8496 -62.9395 C 22.8516 -64.9414 25.7812 -64.9414 27.8809 -62.793 L 59.4238 -31.25 C 60.9863 -29.6875 63.1348 -29.8828 64.3555 -31.1523 C 65.7227 -32.4707 65.918 -34.6191 64.3555 -36.1816 L 27.4414 -73.0957 C 25.293 -75.2441 25.1465 -78.1738 27.1973 -80.2246 C 29.1504 -82.1777 32.0801 -81.9824 34.2285 -79.834 L 71.1426 -42.9199 C 72.5586 -41.5039 74.707 -41.4551 76.0742 -42.8711 C 77.4414 -44.2383 77.4902 -46.4355 76.0742 -47.8516 L 44.5312 -79.3945 C 42.3828 -81.543 42.334 -84.4238 44.3359 -86.4258 C 46.3867 -88.4766 49.1699 -88.3301 51.2695 -86.1816 L 94.873 -42.627 C 96.9238 -40.5273 99.4141 -40.5762 101.172 -42.334 C 102.686 -43.8477 103.271 -45.8008 102.1 -48.7305 L 94.1406 -69.1895 C 92.9199 -72.2656 93.8965 -74.7559 96.2891 -75.8789 C 98.8281 -77.0996 101.221 -75.8301 102.686 -72.6562 L 117.529 -41.4551 C 126.953 -21.6309 123.486 -6.05469 111.035 6.44531 Z"/>
  </g>
  <g id="Light-L" transform="matrix(1 0 0 1 1083.94 1556)">
   <path d="M 113.818 10.3516 C 128.516 -4.3457 131.006 -22.8027 121.24 -43.2617 L 106.348 -74.5117 C 105.518 -76.2695 104.443 -77.7344 103.271 -78.9062 C 99.1211 -83.0566 93.0664 -82.9102 88.916 -78.7598 C 86.1328 -75.9766 85.2539 -71.6797 87.2559 -66.8457 L 93.6035 -52.002 C 93.75 -51.709 93.7012 -51.416 93.5547 -51.2695 C 93.3105 -51.0254 93.0176 -51.0742 92.8223 -51.3184 L 53.7598 -90.332 C 48.9746 -95.166 43.0664 -95.1172 38.7695 -90.8203 C 36.9629 -89.0137 35.9375 -86.6699 36.0352 -84.1309 C 31.3477 -88.1836 25.7324 -88.4766 21.5332 -84.2285 C 17.334 -80.0781 17.5293 -74.1211 21.3867 -69.5801 C 18.9453 -69.7266 16.6504 -68.7012 14.9414 -66.9922 C 10.791 -62.8418 10.8398 -57.0801 15.5273 -52.3926 L 21.2402 -46.6797 C 18.6523 -46.875 16.2109 -45.7031 14.3555 -43.8477 C 10.2539 -39.7461 10.3516 -33.8379 15.0879 -29.1016 L 52.6367 8.44727 C 73.1445 28.9551 96.6309 27.5879 113.818 10.3516 Z M 109.57 6.34766 C 94.4336 21.4844 74.6094 22.3145 56.3477 4.05273 L 19.4336 -32.8613 C 16.9434 -35.3027 16.6504 -38.3301 18.9453 -40.625 C 21.2402 -42.9199 24.4629 -42.8223 26.9531 -40.332 L 49.1211 -18.1641 C 50.5371 -16.748 52.1973 -16.9434 53.2227 -17.9688 C 54.2969 -19.043 54.4922 -20.7031 53.0762 -22.1191 L 19.5312 -55.6152 C 17.0898 -58.1055 16.748 -61.084 19.043 -63.3789 C 21.3379 -65.6738 24.6094 -65.5762 27.0508 -63.1348 L 58.3008 -31.8848 C 59.7168 -30.4688 61.377 -30.6641 62.4023 -31.6895 C 63.4766 -32.7637 63.623 -34.4238 62.207 -35.8398 L 25.7812 -72.2656 C 23.3398 -74.7559 23.0957 -78.0762 25.3906 -80.3711 C 27.5879 -82.5684 30.8594 -82.2266 33.3008 -79.7852 L 69.7754 -43.3105 C 70.9473 -42.1387 72.6562 -41.9434 73.8281 -43.1152 C 75 -44.2871 74.9023 -46.0938 73.7305 -47.2656 L 42.4316 -78.5156 C 39.9902 -81.0059 39.8926 -84.1797 42.1875 -86.4746 C 44.4336 -88.7695 47.5098 -88.4766 49.9512 -86.0352 L 93.1152 -42.8711 C 95.0195 -40.9668 97.3145 -41.1133 98.9258 -42.7246 C 100.293 -44.1406 100.781 -45.8984 99.8047 -48.3887 L 91.6504 -68.5547 C 90.2344 -71.9727 91.1621 -74.8047 93.8965 -76.0742 C 96.7285 -77.3926 99.4141 -75.9766 101.025 -72.5586 L 116.162 -40.8691 C 125.049 -22.2168 122.119 -6.20117 109.57 6.34766 Z"/>
  </g>
  <g id="Thin-L" transform="matrix(1 0 0 1 789.284 1556)">
   <path d="M 110.303 8.78906 C 124.268 -5.17578 126.709 -22.8516 117.676 -41.6504 L 102.246 -73.877 C 101.562 -75.4395 100.586 -76.709 99.5605 -77.7832 C 95.8496 -81.4941 90.332 -81.4453 86.5234 -77.6367 C 83.9355 -75.0488 83.1543 -70.8984 85.1562 -66.2598 L 93.1152 -47.8027 C 93.2617 -47.4121 93.2129 -47.1191 93.0664 -46.9727 C 92.8223 -46.7285 92.5293 -46.7773 92.334 -47.0215 L 50.7812 -88.5254 C 46.2891 -93.0664 40.8691 -93.0176 37.0605 -89.209 C 35.2539 -87.4023 34.2285 -85.0098 34.4727 -82.373 C 30.127 -86.5234 24.6582 -87.1094 20.5566 -83.0566 C 16.5039 -78.9551 16.9434 -72.998 20.8984 -68.7988 C 18.2617 -69.0918 15.918 -68.0664 14.1113 -66.2598 C 10.3516 -62.5 10.3027 -57.1289 14.7949 -52.6367 L 21.0938 -46.3379 C 18.457 -46.6309 16.0156 -45.459 14.209 -43.6523 C 10.4492 -39.8926 10.498 -34.5215 14.9902 -30.0293 L 52.002 6.93359 C 72.2168 27.1973 94.3359 24.7559 110.303 8.78906 Z M 107.715 6.25 C 93.0176 20.9473 73.0957 22.7539 54.541 4.24805 L 17.6758 -32.6172 C 14.7949 -35.498 14.3066 -38.916 16.9434 -41.5527 C 19.5801 -44.1895 23.291 -43.9941 26.1719 -41.1133 L 47.9004 -19.3848 C 49.1699 -18.1641 50.293 -18.3105 50.9277 -18.9941 C 51.6602 -19.6777 51.8066 -20.752 50.5371 -22.0215 L 17.4316 -55.127 C 14.5508 -58.0078 14.0625 -61.377 16.6992 -64.0137 C 19.3359 -66.6504 23.0469 -66.5039 25.9277 -63.623 L 56.7871 -32.7637 C 58.0078 -31.543 59.1309 -31.7383 59.7656 -32.373 C 60.498 -33.1055 60.6445 -34.1797 59.375 -35.4004 L 23.6328 -71.1914 C 20.7031 -74.0723 20.3613 -77.9785 22.998 -80.6152 C 25.4883 -83.1055 29.1992 -82.5684 32.1289 -79.6875 L 67.9199 -43.8477 C 68.7988 -42.9688 69.9707 -42.5781 70.8984 -43.5059 C 71.7773 -44.3848 71.4355 -45.6055 70.5566 -46.4844 L 39.6973 -77.3438 C 36.7676 -80.2246 36.6211 -83.9355 39.2578 -86.5723 C 41.8945 -89.209 45.2637 -88.7207 48.1934 -85.8398 L 90.8203 -43.2129 C 92.4805 -41.5527 94.5312 -41.7969 95.9473 -43.2129 C 97.168 -44.4824 97.5586 -45.9961 96.6797 -47.9492 L 88.3301 -67.6758 C 86.6699 -71.582 87.5977 -74.8047 90.7715 -76.2695 C 93.9453 -77.832 97.0215 -76.1719 98.7793 -72.4121 L 114.355 -40.0879 C 122.607 -22.998 120.312 -6.34766 107.715 6.25 Z"/>
  </g>
  <g id="Ultralight-L" transform="matrix(1 0 0 1 493.622 1556)">
   <path d="M 108.496 8.00781 C 122.07 -5.56641 124.512 -22.8516 115.869 -40.8203 L 100.146 -73.584 C 99.5117 -75 98.6328 -76.2207 97.6074 -77.1973 C 94.1406 -80.6641 88.9648 -80.7129 85.3027 -77.0508 C 82.8613 -74.5605 82.0312 -70.5566 84.0332 -65.9668 L 92.8711 -45.6055 C 93.0176 -45.2148 92.9688 -44.9219 92.8223 -44.7266 C 92.5781 -44.5312 92.2852 -44.5801 92.0898 -44.8242 L 49.2676 -87.5977 C 44.873 -91.9922 39.6973 -91.8945 36.2305 -88.4277 C 34.375 -86.5723 33.3496 -84.1797 33.6914 -81.4941 C 29.4922 -85.6445 24.0723 -86.4258 20.0684 -82.4219 C 16.0645 -78.418 16.6504 -72.4121 20.6543 -68.4082 C 17.9199 -68.75 15.5273 -67.7246 13.6719 -65.8691 C 10.1562 -62.3535 10.0586 -57.1289 14.4531 -52.7344 L 20.9961 -46.1914 C 18.3105 -46.4844 15.918 -45.3613 14.1113 -43.5547 C 10.5957 -39.9902 10.5469 -34.9121 14.9414 -30.5176 L 51.6602 6.20117 C 71.7773 26.3184 93.1641 23.3398 108.496 8.00781 Z M 106.738 6.20117 C 92.2852 20.6543 72.3145 22.998 53.6621 4.3457 L 16.7969 -32.5195 C 13.6719 -35.6445 13.1348 -39.209 15.9668 -41.9922 C 18.75 -44.8242 22.7051 -44.6289 25.8301 -41.5039 L 47.3145 -20.0195 C 48.4375 -18.8477 49.2676 -19.043 49.7559 -19.5312 C 50.293 -20.0684 50.3906 -20.8008 49.2676 -21.9727 L 16.3574 -54.834 C 13.2812 -57.959 12.6953 -61.5234 15.5273 -64.3555 C 18.3594 -67.1387 22.2656 -66.9434 25.3906 -63.8184 L 56.0059 -33.252 C 57.1289 -32.0801 57.959 -32.2266 58.4473 -32.7148 C 58.9844 -33.252 59.082 -34.0332 57.9102 -35.2051 L 22.5098 -70.6055 C 19.3848 -73.7305 18.9453 -77.9297 21.7773 -80.7129 C 24.4141 -83.3496 28.3691 -82.7637 31.4941 -79.6387 L 66.9922 -44.1406 C 67.7246 -43.4082 68.6035 -42.9199 69.3848 -43.7012 C 70.1172 -44.3848 69.6777 -45.3613 68.9453 -46.0938 L 38.2812 -76.7578 C 35.1562 -79.8828 34.9609 -83.7891 37.793 -86.6211 C 40.625 -89.4043 44.1406 -88.8672 47.2656 -85.7422 L 89.6484 -43.4082 C 91.1621 -41.8457 93.0664 -42.1875 94.3848 -43.5059 C 95.5566 -44.6289 95.8984 -46.0938 95.1172 -47.7539 L 86.6699 -67.1875 C 84.8145 -71.3379 85.791 -74.8047 89.1113 -76.416 C 92.5293 -78.0273 95.8008 -76.2695 97.6562 -72.3145 L 113.379 -39.6973 C 121.338 -23.3887 119.385 -6.44531 106.738 6.20117 Z"/>
  </g>
  <g id="Black-M" transform="matrix(1 0 0 1 2867.14 1126)">
   <path d="M 109.57 8.30078 C 125.244 -7.37305 127.979 -26.416 117.822 -47.998 L 106.104 -72.7539 C 105.029 -75.0488 103.662 -76.9531 102.1 -78.5156 C 96.875 -83.7402 88.8184 -84.3262 83.1543 -78.6621 C 80.3711 -75.8789 78.8574 -71.6309 80.0781 -67.9199 L 80.0781 -67.9688 C 80.127 -67.8223 80.127 -67.7246 80.0293 -67.627 C 79.8828 -67.5293 79.7852 -67.5781 79.6875 -67.627 L 58.4961 -88.8672 C 52.5391 -94.7754 44.043 -94.5801 37.8418 -88.3789 C 37.0605 -87.5488 36.3281 -86.6211 35.6445 -85.6445 C 30.7129 -87.1582 25.5859 -85.7422 21.4844 -81.6406 C 17.5293 -77.6855 16.1133 -72.4609 17.5293 -67.5781 C 16.6504 -67.041 15.8203 -66.3574 15.1367 -65.6738 C 9.375 -59.9121 9.13086 -51.7578 14.502 -46.3867 L 14.7949 -46.1426 C 14.1602 -45.6055 13.5742 -45.2148 12.9883 -44.6289 C 7.22656 -38.8672 7.27539 -30.2734 12.9883 -24.5605 L 45.8496 8.30078 C 65.1367 27.5879 90.2832 27.5879 109.57 8.30078 Z M 98.1934 -2.44141 C 85.1074 10.5957 69.043 10.6934 55.4688 -2.88086 L 24.7559 -33.5449 C 24.2676 -34.082 24.2676 -34.8633 24.7559 -35.3516 C 25.293 -35.8887 26.0742 -35.8887 26.5625 -35.3516 L 45.0195 -16.9434 C 47.4609 -14.4531 51.416 -14.502 53.8574 -16.9434 C 56.2988 -19.4336 56.2988 -23.3398 53.8574 -25.7812 L 25.8301 -53.8086 C 25.3418 -54.2969 25.3418 -55.0781 25.8301 -55.6152 C 26.3672 -56.1035 27.0996 -56.1035 27.6367 -55.5664 L 53.6621 -29.541 C 56.1035 -27.0996 60.0586 -27.1484 62.5488 -29.5898 C 64.9902 -32.0312 64.9902 -35.9863 62.5 -38.4277 L 31.6895 -69.2383 C 31.1523 -69.7754 31.1523 -70.5566 31.6895 -71.0449 C 32.1777 -71.582 32.959 -71.582 33.4473 -71.0449 L 61.8652 -42.627 C 64.3066 -40.1855 68.3105 -40.2344 70.752 -42.6758 C 73.1934 -45.1172 73.1934 -49.0723 70.752 -51.5137 L 47.1191 -75.0977 C 46.6309 -75.6348 46.582 -76.3184 47.1191 -76.8555 C 47.6074 -77.3438 48.4375 -77.3926 48.9258 -76.9043 L 85.3516 -40.4785 C 88.623 -37.207 92.8223 -37.9883 95.3613 -40.625 C 97.3633 -42.7246 98.4863 -45.9473 97.2168 -49.2188 L 90.8203 -65.5273 C 90.4297 -66.5039 91.0156 -67.2363 91.5527 -67.4316 C 92.1875 -67.627 92.9688 -67.4805 93.3105 -66.6992 L 104.443 -41.6504 C 111.475 -25.7324 110.01 -14.2578 98.1934 -2.44141 Z"/>
  </g>
  <g id="Heavy-M" transform="matrix(1 0 0 1 2572.92 1126)">
   <path d="M 105.371 6.73828 C 120.215 -8.10547 122.754 -26.2207 113.037 -46.8262 L 101.514 -71.2402 C 100.488 -73.3887 99.2188 -75.1465 97.8027 -76.5625 C 92.9199 -81.4453 85.498 -81.7871 80.3711 -76.6602 C 77.6855 -73.9746 76.3672 -69.873 77.6367 -66.1621 L 78.418 -64.3066 C 78.4668 -64.1602 78.4668 -64.0625 78.3691 -63.9648 C 78.2227 -63.8184 78.0762 -63.8672 77.9785 -63.9648 L 55.2246 -86.7188 C 49.7559 -92.1875 42.041 -92.041 36.4258 -86.4258 C 35.4492 -85.4492 34.7656 -84.2773 34.2285 -83.1055 C 29.4922 -85.0098 24.5117 -83.8867 20.5566 -79.9316 C 16.7969 -76.123 15.625 -71.0938 17.4316 -66.4062 C 16.3574 -65.9668 15.332 -65.2832 14.502 -64.4531 C 9.22852 -59.2285 9.08203 -51.8555 14.1113 -46.8262 L 15.1855 -45.7031 C 14.2578 -45.3613 13.3789 -44.8242 12.5977 -44.043 C 7.37305 -38.7695 7.42188 -31.0059 12.6953 -25.7324 L 44.8242 6.34766 C 63.3789 24.9023 87.207 24.9023 105.371 6.73828 Z M 95.5078 -2.53906 C 82.666 10.3027 66.748 10.2539 53.0762 -3.36914 L 22.9004 -33.5938 C 22.168 -34.3262 22.1191 -35.3516 22.8516 -36.084 C 23.584 -36.8164 24.6582 -36.8164 25.3906 -36.084 L 43.6523 -17.8223 C 45.8008 -15.6738 49.3164 -15.7227 51.416 -17.8711 C 53.5645 -20.0195 53.6133 -23.4863 51.4648 -25.6348 L 23.8281 -53.2715 C 23.0957 -54.0039 23.0469 -55.0781 23.7793 -55.8105 C 24.5117 -56.4941 25.5859 -56.4941 26.3184 -55.7617 L 52.002 -30.0781 C 54.1992 -27.9297 57.666 -27.9785 59.8145 -30.127 C 61.9629 -32.2754 62.0117 -35.6934 59.8145 -37.8906 L 29.4434 -68.2617 C 28.7109 -68.9941 28.7109 -70.0684 29.3945 -70.8008 C 30.127 -71.5332 31.2012 -71.5332 31.9336 -70.752 L 60.498 -42.2363 C 62.6465 -40.0879 66.1133 -40.1367 68.2617 -42.2852 C 70.4102 -44.4336 70.459 -47.9004 68.2617 -50.0488 L 44.4336 -73.877 C 43.7012 -74.6094 43.6523 -75.6348 44.3848 -76.3672 C 45.1172 -77.0996 46.1914 -77.1484 46.9238 -76.416 L 82.7637 -40.5762 C 85.6934 -37.6465 89.4043 -38.2812 91.6504 -40.625 C 93.5059 -42.4805 94.4336 -45.3613 93.2617 -48.4375 L 86.9629 -64.6484 C 86.4746 -65.918 87.0605 -66.8945 87.8906 -67.2363 C 88.8184 -67.627 89.7949 -67.2852 90.332 -66.1621 L 101.465 -41.3574 C 108.643 -25.3906 106.836 -13.8672 95.5078 -2.53906 Z"/>
  </g>
  <g id="Bold-M" transform="matrix(1 0 0 1 2279.02 1126)">
   <path d="M 100.684 5.0293 C 114.6 -8.88672 116.943 -25.9766 107.715 -45.5566 L 96.3379 -69.5312 C 95.4102 -71.4844 94.2871 -73.0957 92.9688 -74.3652 C 88.5254 -78.8086 81.8359 -79.0039 77.2461 -74.4141 C 74.6582 -71.8262 73.5352 -67.9199 74.9512 -64.1602 L 76.5625 -60.2539 C 76.6113 -60.0586 76.6113 -59.9609 76.5137 -59.8145 C 76.3672 -59.668 76.1719 -59.7168 76.0742 -59.8633 L 51.6113 -84.3262 C 46.6309 -89.3066 39.8438 -89.209 34.8145 -84.1797 C 33.6914 -83.0566 32.959 -81.6895 32.6172 -80.2734 C 28.125 -82.5684 23.3398 -81.7871 19.5801 -78.0273 C 15.918 -74.4141 15.1367 -69.4824 17.334 -65.0879 C 16.0156 -64.7949 14.7461 -64.1113 13.7695 -63.1348 C 9.08203 -58.4473 9.0332 -51.9043 13.623 -47.3145 L 15.6738 -45.2637 C 14.4043 -45.0684 13.1836 -44.3848 12.1582 -43.3594 C 7.4707 -38.7207 7.56836 -31.8359 12.4023 -27.0508 L 43.6523 4.19922 C 61.377 21.9238 83.7402 21.9238 100.684 5.0293 Z M 92.5293 -2.68555 C 79.8828 9.96094 64.1602 9.81445 50.4395 -3.95508 L 20.8008 -33.5938 C 19.8242 -34.5703 19.7754 -35.9375 20.752 -36.9141 C 21.6797 -37.8906 23.0957 -37.8906 24.1211 -36.9141 L 42.1387 -18.8477 C 43.9941 -16.9922 46.9238 -17.0898 48.7305 -18.8965 C 50.5371 -20.7031 50.6348 -23.6328 48.7793 -25.4883 L 21.582 -52.6855 C 20.5566 -53.6621 20.5078 -55.0293 21.4844 -56.0059 C 22.4609 -56.9824 23.877 -56.9824 24.8535 -56.0059 L 50.1953 -30.6641 C 52.0508 -28.8086 54.9805 -28.9062 56.7871 -30.7129 C 58.5938 -32.5195 58.6914 -35.4004 56.8359 -37.2559 L 26.9531 -67.1387 C 25.9766 -68.1641 25.9277 -69.5801 26.9043 -70.5078 C 27.832 -71.4844 29.248 -71.4355 30.2734 -70.459 L 58.8867 -41.7969 C 60.7422 -39.9902 63.6719 -40.0391 65.4785 -41.8457 C 67.2852 -43.6523 67.3828 -46.582 65.5273 -48.4375 L 41.4062 -72.5098 C 40.4297 -73.5352 40.3809 -74.9023 41.3574 -75.8789 C 42.334 -76.8555 43.75 -76.8555 44.7266 -75.8301 L 79.9316 -40.625 C 82.4219 -38.1348 85.5469 -38.5254 87.5488 -40.5762 C 89.1602 -42.2363 89.9414 -44.6777 88.8184 -47.5586 L 82.6172 -63.7207 C 81.9824 -65.2832 82.666 -66.5527 83.7891 -67.041 C 85.0098 -67.5781 86.2305 -67.041 86.9141 -65.5273 L 98.1445 -41.0156 C 105.469 -25.0488 103.271 -13.3789 92.5293 -2.68555 Z"/>
  </g>
  <g id="Semibold-M" transform="matrix(1 0 0 1 1984.21 1126)">
   <path d="M 97.4609 3.80859 C 110.742 -9.47266 112.939 -25.8301 104.004 -44.6777 L 92.7734 -68.3594 C 91.8945 -70.166 90.8691 -71.6797 89.6484 -72.8516 C 85.498 -77.0508 79.2969 -77.0508 75.0977 -72.8516 C 72.5586 -70.3613 71.582 -66.5527 73.0469 -62.7441 L 75.293 -57.4219 C 75.3418 -57.2754 75.3418 -57.0801 75.2441 -56.9824 C 75.0488 -56.8359 74.9023 -56.8848 74.7559 -57.0312 L 49.1211 -82.666 C 44.4824 -87.3047 38.3301 -87.207 33.7402 -82.6172 C 32.4707 -81.3965 31.7383 -79.8828 31.4941 -78.3203 C 27.1973 -80.9082 22.5098 -80.3711 18.8477 -76.709 C 15.332 -73.1934 14.7949 -68.4082 17.2363 -64.209 C 15.7715 -64.0137 14.3555 -63.2812 13.2812 -62.207 C 8.98438 -57.9102 8.98438 -52.002 13.3301 -47.6562 L 16.0156 -44.9707 C 14.5508 -44.8242 13.0371 -44.0918 11.8652 -42.9199 C 7.56836 -38.623 7.71484 -32.4219 12.1582 -27.9297 L 42.8711 2.73438 C 60.0098 19.873 81.3477 19.873 97.4609 3.80859 Z M 90.4785 -2.73438 C 77.9785 9.7168 62.4023 9.47266 48.6328 -4.29688 L 19.3359 -33.5938 C 18.1641 -34.7656 18.1152 -36.3281 19.2383 -37.5 C 20.4102 -38.623 22.0215 -38.623 23.1934 -37.4512 L 41.1133 -19.5312 C 42.7734 -17.9199 45.3125 -18.0176 46.8262 -19.5801 C 48.4375 -21.1426 48.5352 -23.7305 46.9238 -25.3418 L 20.0195 -52.2461 C 18.8477 -53.418 18.7988 -55.0293 19.9219 -56.1523 C 21.0449 -57.2754 22.7051 -57.2754 23.877 -56.1035 L 48.9258 -31.0547 C 50.5859 -29.3945 53.125 -29.541 54.6875 -31.1035 C 56.25 -32.666 56.3965 -35.2051 54.7363 -36.8652 L 25.2441 -66.3574 C 24.0723 -67.5293 24.0234 -69.1895 25.1465 -70.3125 C 26.2695 -71.4355 27.9297 -71.3867 29.1016 -70.2148 L 57.8125 -41.5039 C 59.4238 -39.8926 61.9629 -39.9414 63.5742 -41.5039 C 65.1855 -43.1152 65.2344 -45.7031 63.623 -47.3145 L 39.3555 -71.582 C 38.1836 -72.7539 38.1348 -74.3652 39.2578 -75.4883 C 40.3809 -76.6602 42.041 -76.6113 43.2129 -75.4395 L 77.9297 -40.6738 C 80.1758 -38.4766 82.8613 -38.7695 84.668 -40.5762 C 86.1328 -42.0898 86.8652 -44.1895 85.791 -46.9238 L 79.5898 -63.0859 C 78.9062 -64.8438 79.5898 -66.3086 80.957 -66.8945 C 82.373 -67.5293 83.7891 -66.8945 84.6191 -65.0879 L 95.8496 -40.7715 C 103.271 -24.8047 100.781 -13.0859 90.4785 -2.73438 Z"/>
  </g>
  <g id="Medium-M" transform="matrix(1 0 0 1 1688.96 1126)">
   <path d="M 95.0195 2.88086 C 107.764 -9.86328 109.912 -25.6836 101.221 -43.9941 L 90.0879 -67.4316 C 89.2578 -69.1406 88.2812 -70.6055 87.1582 -71.7285 C 83.2031 -75.6836 77.3926 -75.5859 73.4375 -71.6797 C 70.9961 -69.2383 70.1172 -65.5273 71.6309 -61.7188 L 74.3164 -55.3223 C 74.4141 -55.127 74.3652 -54.9316 74.2676 -54.834 C 74.0723 -54.6387 73.877 -54.6875 73.7305 -54.8828 L 47.2168 -81.3965 C 42.8223 -85.7422 37.1582 -85.7422 32.8613 -81.4941 C 31.5918 -80.1758 30.8105 -78.5156 30.6152 -76.8066 C 26.4648 -79.6387 21.9238 -79.2969 18.3594 -75.7324 C 14.8926 -72.3145 14.5508 -67.5781 17.1875 -63.5254 C 15.5762 -63.3789 14.0625 -62.6465 12.8906 -61.4746 C 8.93555 -57.5195 8.98438 -52.0508 13.0859 -47.9492 L 16.2598 -44.7266 C 14.5996 -44.6777 12.9395 -43.8965 11.6211 -42.5781 C 7.61719 -38.623 7.76367 -32.8613 12.0117 -28.6133 L 42.2363 1.61133 C 58.9844 18.3105 79.541 18.3594 95.0195 2.88086 Z M 88.916 -2.83203 C 76.5137 9.57031 61.084 9.22852 47.2656 -4.58984 L 18.2617 -33.5938 C 16.9434 -34.9121 16.8945 -36.6699 18.1641 -37.8906 C 19.3848 -39.1602 21.2402 -39.1602 22.5098 -37.8906 L 40.332 -20.0684 C 41.7969 -18.6035 44.043 -18.75 45.4102 -20.1172 C 46.8262 -21.5332 46.9727 -23.7793 45.5078 -25.293 L 18.8477 -51.9531 C 17.5293 -53.2715 17.4316 -55.0293 18.7012 -56.25 C 19.9707 -57.5195 21.7773 -57.5195 23.0957 -56.25 L 47.998 -31.3477 C 49.4629 -29.8828 51.709 -30.0293 53.0762 -31.3965 C 54.4922 -32.8125 54.6387 -35.0586 53.1738 -36.5234 L 23.9258 -65.8203 C 22.6074 -67.0898 22.5586 -68.9453 23.8281 -70.166 C 25.0488 -71.4355 26.9043 -71.3867 28.1738 -70.0684 L 57.0312 -41.2598 C 58.4473 -39.8438 60.6934 -39.8926 62.1094 -41.3086 C 63.5254 -42.7246 63.623 -45.0195 62.207 -46.4355 L 37.7441 -70.8984 C 36.4746 -72.168 36.4258 -73.9746 37.6953 -75.2441 C 38.9648 -76.5137 40.7227 -76.4648 42.041 -75.1465 L 76.4648 -40.7227 C 78.4668 -38.7207 80.8594 -38.916 82.5195 -40.5273 C 83.8867 -41.9434 84.5215 -43.8477 83.4961 -46.4844 L 77.3438 -62.5977 C 76.6113 -64.5508 77.2949 -66.1133 78.7598 -66.7969 C 80.4199 -67.5293 81.9336 -66.7969 82.8613 -64.7461 L 94.1406 -40.5762 C 101.611 -24.6094 98.9258 -12.8418 88.916 -2.83203 Z"/>
  </g>
  <g id="Regular-M" transform="matrix(1 0 0 1 1394.16 1126)">
   <path d="M 91.7969 1.70898 C 103.955 -10.4492 105.908 -25.5371 97.5586 -43.1152 L 86.5723 -66.2598 C 85.791 -67.8711 84.8633 -69.1895 83.8379 -70.2148 C 80.1758 -73.877 74.8535 -73.6816 71.3379 -70.166 C 68.9453 -67.7734 68.2129 -64.209 69.7754 -60.3516 L 73.0469 -52.5391 C 73.1445 -52.3438 73.1445 -52.1484 72.998 -52.002 C 72.8027 -51.8555 72.6074 -51.9043 72.4121 -52.0508 L 44.7266 -79.7363 C 40.7227 -83.7891 35.6445 -83.7891 31.7871 -79.9316 C 30.3711 -78.5645 29.5898 -76.7578 29.541 -74.9023 C 25.5371 -77.9785 21.0938 -77.8809 17.6758 -74.4629 C 14.3066 -71.0938 14.209 -66.5039 17.0898 -62.5977 C 15.332 -62.5977 13.6719 -61.8164 12.4023 -60.5469 C 8.83789 -56.9824 8.93555 -52.0996 12.7441 -48.291 L 16.6016 -44.4336 C 14.6973 -44.4824 12.793 -43.6035 11.3281 -42.1387 C 7.71484 -38.5254 7.91016 -33.3984 11.7676 -29.541 L 41.4551 0.146484 C 57.6172 16.3086 77.1973 16.3086 91.7969 1.70898 Z M 86.8652 -2.88086 C 74.6582 9.32617 59.3262 8.93555 45.459 -4.98047 L 16.8457 -33.5938 C 15.332 -35.0586 15.2832 -37.0605 16.6992 -38.4766 C 18.1152 -39.8926 20.166 -39.8926 21.6309 -38.4277 L 39.3066 -20.8008 C 40.5762 -19.5312 42.4316 -19.6777 43.5547 -20.8008 C 44.7754 -21.9727 44.9219 -23.877 43.6523 -25.1465 L 17.2852 -51.5625 C 15.8203 -53.0273 15.7227 -54.9805 17.1387 -56.3965 C 18.5547 -57.8613 20.6543 -57.8613 22.1191 -56.3965 L 46.7285 -31.7383 C 47.998 -30.4688 49.9023 -30.6641 51.0254 -31.7871 C 52.1973 -32.959 52.3926 -34.8633 51.123 -36.1328 L 22.2168 -65.0391 C 20.752 -66.5039 20.6543 -68.5547 22.1191 -69.9707 C 23.4863 -71.3867 25.5859 -71.3379 27.0508 -69.873 L 55.957 -40.9668 C 57.1289 -39.7461 59.0332 -39.7949 60.2051 -40.9668 C 61.4258 -42.1875 61.5234 -44.1406 60.3516 -45.3125 L 35.6934 -69.9707 C 34.2285 -71.4355 34.1797 -73.4375 35.5957 -74.9023 C 37.0605 -76.3184 39.0625 -76.2695 40.5273 -74.8047 L 74.5117 -40.8203 C 76.2207 -39.0625 78.2715 -39.1113 79.6875 -40.5273 C 80.9082 -41.748 81.4453 -43.3594 80.4688 -45.8984 L 74.3652 -61.9141 C 73.5352 -64.1113 74.3164 -65.8691 75.9766 -66.6504 C 77.832 -67.4805 79.4922 -66.6016 80.5664 -64.3066 L 91.8945 -40.3809 C 99.4629 -24.3652 96.4844 -12.5488 86.8652 -2.88086 Z"/>
  </g>
  <g id="Light-M" transform="matrix(1 0 0 1 1098.84 1126)">
   <path d="M 89.4043 0.634766 C 101.074 -10.9863 102.979 -25.5859 95.166 -41.9922 L 83.7891 -65.8691 C 83.1055 -67.2852 82.2754 -68.5059 81.2988 -69.4336 C 77.9297 -72.8027 73.0469 -72.7051 69.7266 -69.3848 C 67.4805 -67.1387 66.7969 -63.7207 68.3594 -59.9121 L 72.7051 -49.6582 C 72.8027 -49.4141 72.8027 -49.2188 72.6562 -49.1211 C 72.5098 -48.9258 72.2656 -48.9746 72.0703 -49.1699 L 42.6758 -78.5645 C 38.8672 -82.373 34.1309 -82.373 30.6152 -78.8574 C 29.1992 -77.4414 28.418 -75.6348 28.4668 -73.7305 C 24.707 -76.8555 20.3613 -76.9531 16.9922 -73.6328 C 13.7207 -70.3613 13.7695 -65.7715 16.748 -62.1094 C 14.8926 -62.1582 13.1836 -61.377 11.8652 -60.0586 C 8.49609 -56.7383 8.59375 -52.1484 12.2559 -48.4375 L 16.5039 -44.1895 C 14.5508 -44.3359 12.6465 -43.457 11.1816 -41.9922 C 7.86133 -38.6719 8.00781 -33.8867 11.7188 -30.1758 L 41.0156 -0.878906 C 56.9824 15.0879 75.6348 14.4043 89.4043 0.634766 Z M 85.5957 -2.97852 C 73.6816 8.93555 58.3008 9.22852 44.2383 -4.83398 L 15.625 -33.4473 C 13.8672 -35.2051 13.6719 -37.4512 15.332 -39.1113 C 16.9922 -40.7715 19.3848 -40.7227 21.1426 -38.9648 L 38.4766 -21.582 C 39.6484 -20.459 41.1133 -20.6055 42.041 -21.4844 C 42.9688 -22.4609 43.1152 -23.9258 41.9922 -25.0977 L 15.8691 -51.2207 C 14.1113 -52.9785 13.916 -55.1758 15.5762 -56.8359 C 17.2363 -58.4961 19.5801 -58.4473 21.3379 -56.6895 L 45.7031 -32.373 C 46.8262 -31.2012 48.3398 -31.3477 49.2676 -32.2266 C 50.1953 -33.2031 50.3418 -34.668 49.1699 -35.8398 L 20.752 -64.3066 C 18.9941 -66.0645 18.7988 -68.5059 20.459 -70.166 C 22.0703 -71.7285 24.4629 -71.5332 26.2207 -69.7754 L 54.6875 -41.3086 C 55.7129 -40.2832 57.2266 -40.2344 58.252 -41.2109 C 59.2285 -42.2363 59.1797 -43.7988 58.2031 -44.8242 L 33.8379 -69.1895 C 32.0801 -70.9473 31.9824 -73.291 33.6426 -74.9512 C 35.3027 -76.6113 37.5488 -76.416 39.3066 -74.6582 L 72.9492 -41.0156 C 74.5117 -39.502 76.3672 -39.5508 77.6855 -40.8691 C 78.8086 -41.9922 79.1992 -43.457 78.3691 -45.6055 L 72.1191 -61.3281 C 71.1426 -63.8184 71.875 -65.8691 73.8281 -66.7969 C 75.9277 -67.7734 77.8809 -66.748 79.0527 -64.209 L 90.625 -39.8438 C 97.7539 -24.9023 95.2637 -12.6465 85.5957 -2.97852 Z"/>
  </g>
  <g id="Thin-M" transform="matrix(1 0 0 1 803.956 1126)">
   <path d="M 86.2305 -0.78125 C 97.2168 -11.7676 99.1211 -25.6348 91.9922 -40.5273 L 80.127 -65.332 C 79.541 -66.5527 78.8086 -67.627 77.9785 -68.457 C 75 -71.4355 70.6055 -71.3867 67.5781 -68.3105 C 65.5273 -66.3086 64.8926 -63.0371 66.4551 -59.4238 L 72.2656 -45.8984 C 72.4121 -45.6055 72.3633 -45.3613 72.2168 -45.2637 C 72.0703 -45.0684 71.8262 -45.1172 71.6309 -45.3125 L 39.9902 -76.9531 C 36.4258 -80.5176 32.1289 -80.4688 29.1016 -77.4414 C 27.6855 -76.0254 26.9043 -74.1699 27.0508 -72.168 C 23.6328 -75.3418 19.3359 -75.7324 16.1621 -72.5586 C 12.9883 -69.3848 13.2812 -64.7461 16.3086 -61.4258 C 14.3066 -61.5723 12.5 -60.791 11.084 -59.4238 C 8.10547 -56.4453 8.10547 -52.1973 11.6211 -48.6816 L 16.3574 -43.9453 C 14.3555 -44.0918 12.4512 -43.2129 11.0352 -41.7969 C 8.05664 -38.8184 8.10547 -34.5215 11.6211 -31.0059 L 40.4297 -2.19727 C 56.2012 13.5254 73.584 11.8652 86.2305 -0.78125 Z M 83.8867 -3.07617 C 72.4121 8.39844 56.9824 9.61914 42.6758 -4.6875 L 14.1113 -33.252 C 11.9629 -35.4004 11.6211 -37.9395 13.5742 -39.8926 C 15.5273 -41.8945 18.3105 -41.7969 20.459 -39.6484 L 37.4023 -22.7051 C 38.3789 -21.6797 39.4043 -21.8262 39.9902 -22.4121 C 40.625 -23.0469 40.7227 -24.0234 39.6973 -25 L 13.9648 -50.7324 C 11.8164 -52.8809 11.4746 -55.4199 13.4766 -57.4219 C 15.4297 -59.375 18.2129 -59.2773 20.3613 -57.1289 L 44.3359 -33.1543 C 45.3125 -32.1289 46.3379 -32.2754 46.9238 -32.8613 C 47.5098 -33.4961 47.6562 -34.4727 46.6309 -35.4492 L 18.7988 -63.3301 C 16.6016 -65.4785 16.3574 -68.3594 18.3594 -70.3613 C 20.2148 -72.2168 22.998 -71.8262 25.1465 -69.6777 L 53.0273 -41.7969 C 53.8086 -41.0645 54.834 -40.7715 55.5664 -41.5527 C 56.3477 -42.2852 56.1035 -43.3594 55.3711 -44.0918 L 31.3477 -68.1152 C 29.1992 -70.2637 29.1016 -73.0469 31.0547 -75 C 33.0566 -76.9531 35.5957 -76.6602 37.7441 -74.5117 L 70.8984 -41.3574 C 72.2168 -39.9902 73.877 -40.1855 75 -41.3086 C 75.9766 -42.334 76.3184 -43.5547 75.6348 -45.2148 L 69.1895 -60.5469 C 67.9199 -63.4766 68.6523 -65.918 70.9961 -66.9922 C 73.4375 -68.1641 75.7324 -66.9434 77.0508 -64.0625 L 89.0137 -39.1602 C 95.5566 -25.5859 93.6523 -12.793 83.8867 -3.07617 Z"/>
  </g>
  <g id="Ultralight-M" transform="matrix(1 0 0 1 508.173 1126)">
   <path d="M 84.6191 -1.51367 C 95.2637 -12.1094 97.168 -25.6348 90.332 -39.7949 L 78.2715 -65.0391 C 77.7344 -66.1621 77.0508 -67.1387 76.2207 -67.9199 C 73.4863 -70.7031 69.3848 -70.7031 66.4551 -67.8223 C 64.5508 -65.8691 63.916 -62.6953 65.4785 -59.1309 L 72.0215 -43.9453 C 72.168 -43.6035 72.1191 -43.4082 72.0215 -43.2617 C 71.8262 -43.1152 71.582 -43.1152 71.4355 -43.3105 L 38.623 -76.123 C 35.2051 -79.541 31.1035 -79.4922 28.3203 -76.709 C 26.9043 -75.293 26.123 -73.4375 26.3672 -71.3379 C 23.0469 -74.5605 18.8477 -75.0977 15.7227 -71.9727 C 12.5977 -68.8477 12.9883 -64.2578 16.0645 -61.084 C 14.0137 -61.2793 12.1582 -60.498 10.7422 -59.082 C 7.91016 -56.2988 7.86133 -52.1973 11.3281 -48.7793 L 16.3086 -43.75 C 14.2578 -43.9941 12.4023 -43.1152 10.9863 -41.6992 C 8.1543 -38.916 8.1543 -34.8633 11.5723 -31.4453 L 40.1367 -2.88086 C 55.7617 12.7441 72.5586 10.5957 84.6191 -1.51367 Z M 83.0078 -3.125 C 71.7285 8.1543 56.25 9.81445 41.8457 -4.58984 L 13.2812 -33.1543 C 10.9375 -35.498 10.5469 -38.1836 12.6465 -40.332 C 14.7949 -42.4805 17.7734 -42.334 20.1172 -39.9902 L 36.8652 -23.2422 C 37.793 -22.3145 38.4766 -22.4609 38.916 -22.9004 C 39.4043 -23.3398 39.502 -24.0234 38.5742 -24.9512 L 13.0371 -50.4883 C 10.6445 -52.8809 10.2539 -55.5664 12.4023 -57.666 C 14.502 -59.8145 17.4805 -59.668 19.8242 -57.3242 L 43.6035 -33.5449 C 44.5312 -32.6172 45.2637 -32.7637 45.7031 -33.2031 C 46.1914 -33.6426 46.2402 -34.3262 45.3613 -35.2539 L 17.7734 -62.8418 C 15.4297 -65.1855 15.0879 -68.3105 17.2363 -70.459 C 19.2383 -72.4609 22.2656 -72.0215 24.6094 -69.6289 L 52.1973 -42.041 C 52.832 -41.4551 53.5645 -41.0645 54.248 -41.748 C 54.834 -42.334 54.541 -43.1641 53.9062 -43.75 L 30.0781 -67.5781 C 27.7344 -69.9219 27.5879 -72.9004 29.7363 -75.0488 C 31.8848 -77.1484 34.5703 -76.7578 36.9141 -74.4141 L 69.8242 -41.5039 C 71.0449 -40.2832 72.5586 -40.5273 73.6328 -41.5527 C 74.5605 -42.4805 74.8047 -43.6035 74.2188 -45.0195 L 67.6758 -60.1562 C 66.3086 -63.2812 67.041 -65.918 69.5801 -67.0898 C 72.1191 -68.3594 74.6094 -66.9922 76.0254 -64.0137 L 88.1836 -38.8184 C 94.3848 -25.9277 92.7734 -12.8906 83.0078 -3.125 Z"/>
  </g>
  <g id="Black-S" transform="matrix(1 0 0 1 2881.64 696)">
   <path d="M 85.5469 -1.2207 C 97.8027 -13.4766 99.9023 -28.3203 91.9922 -45.166 L 82.8125 -64.502 C 81.9824 -66.3086 80.957 -67.8223 79.7363 -68.9941 C 75.6348 -73.0957 69.3848 -73.4863 64.9902 -69.0918 C 62.793 -66.9434 61.6211 -63.623 62.5977 -60.7422 L 62.6465 -60.5957 C 62.6465 -60.498 62.6465 -60.4492 62.5977 -60.3516 C 62.5 -60.2539 62.4023 -60.3027 62.3047 -60.3516 L 45.6055 -77.0996 C 40.9668 -81.6895 34.375 -81.543 29.5898 -76.7578 C 28.9551 -76.0742 28.3691 -75.3418 27.8809 -74.5117 C 24.0234 -75.7812 19.9707 -74.6582 16.7969 -71.4355 C 13.7207 -68.4082 12.5977 -64.3066 13.7695 -60.498 C 13.0371 -60.0586 12.4023 -59.5703 11.8652 -58.9844 C 7.37305 -54.4922 7.17773 -48.1934 11.377 -43.9941 L 11.6211 -43.75 C 11.1328 -43.3594 10.6445 -43.0176 10.2051 -42.5781 C 5.71289 -38.0859 5.71289 -31.3965 10.2051 -26.9531 L 35.8887 -1.26953 C 50.9277 13.7695 70.5566 13.7695 85.5469 -1.2207 Z M 76.7578 -9.57031 C 66.5527 0.683594 53.9551 0.683594 43.3105 -9.91211 L 19.2871 -33.9355 C 18.8965 -34.3262 18.8965 -34.9609 19.2871 -35.4004 C 19.7266 -35.791 20.3613 -35.791 20.752 -35.4004 L 35.2051 -20.9473 C 37.1094 -19.043 40.1367 -19.0918 42.041 -20.9961 C 43.9453 -22.9004 43.9453 -25.9277 42.041 -27.832 L 20.1172 -49.7559 C 19.7266 -50.1465 19.7266 -50.7812 20.1172 -51.1719 C 20.5566 -51.6113 21.1914 -51.6113 21.582 -51.1719 L 41.9434 -30.8105 C 43.8477 -28.9062 46.9238 -28.9551 48.8281 -30.8594 C 50.7324 -32.7637 50.7324 -35.791 48.8281 -37.6953 L 24.707 -61.8164 C 24.2676 -62.2559 24.2676 -62.8418 24.707 -63.2812 C 25.0977 -63.6719 25.7324 -63.6719 26.123 -63.2812 L 48.3887 -41.0156 C 50.293 -39.1113 53.3691 -39.1602 55.2734 -41.0156 C 57.1777 -42.9199 57.1777 -45.9961 55.2734 -47.9004 L 36.7676 -66.4062 C 36.377 -66.7969 36.3281 -67.3828 36.7188 -67.8223 C 37.1582 -68.2129 37.793 -68.2617 38.2324 -67.8223 L 66.6992 -39.3555 C 69.2871 -36.8164 72.5098 -37.4023 74.4629 -39.4531 C 76.0254 -41.0645 76.9043 -43.6035 75.8789 -46.0938 L 70.8984 -58.8867 C 70.6055 -59.668 71.0449 -60.2539 71.5332 -60.4492 C 72.0215 -60.5957 72.6562 -60.498 72.9004 -59.8633 L 81.6406 -40.2344 C 87.1582 -27.7344 85.9863 -18.75 76.7578 -9.57031 Z"/>
  </g>
  <g id="Heavy-S" transform="matrix(1 0 0 1 2586.69 696)">
   <path d="M 82.6172 -2.29492 C 94.2871 -13.9648 96.2891 -28.125 88.5742 -44.3848 L 79.5898 -63.3789 C 78.8086 -65.0879 77.832 -66.4551 76.709 -67.5781 C 72.9004 -71.4355 67.041 -71.6797 63.0371 -67.6758 C 60.8887 -65.5273 59.8633 -62.3535 60.8887 -59.375 L 61.4258 -58.1543 C 61.4258 -58.0566 61.4258 -57.959 61.377 -57.8613 C 61.2793 -57.7637 61.1328 -57.8125 61.0352 -57.9102 L 43.3594 -75.5859 C 39.0625 -79.8828 33.0566 -79.7363 28.6133 -75.3418 C 27.8809 -74.5605 27.2949 -73.6816 26.8555 -72.7051 C 23.1445 -74.2188 19.2871 -73.3398 16.1621 -70.2637 C 13.1836 -67.2852 12.3047 -63.3301 13.7207 -59.6191 C 12.8906 -59.3262 12.0605 -58.7891 11.4258 -58.1055 C 7.27539 -54.0039 7.17773 -48.2422 11.084 -44.3359 L 11.9629 -43.457 C 11.2305 -43.1641 10.498 -42.7246 9.91211 -42.1387 C 5.76172 -37.9883 5.85938 -31.9336 9.96094 -27.7832 L 35.1074 -2.63672 C 49.6582 11.8652 68.3594 11.9629 82.6172 -2.29492 Z M 74.8535 -9.61914 C 64.7461 0.488281 52.2949 0.341797 41.6504 -10.3027 L 18.0176 -33.9355 C 17.4316 -34.5215 17.4316 -35.3027 17.9688 -35.8887 C 18.5547 -36.4258 19.3848 -36.4258 19.9219 -35.8887 L 34.2285 -21.5332 C 35.9375 -19.873 38.6719 -19.9219 40.3809 -21.582 C 42.0898 -23.291 42.0898 -26.0254 40.4297 -27.7344 L 18.75 -49.3652 C 18.2129 -49.9512 18.1641 -50.7324 18.75 -51.2695 C 19.2871 -51.8555 20.1172 -51.8555 20.6543 -51.3184 L 40.8203 -31.1523 C 42.5293 -29.4434 45.2637 -29.4922 46.9238 -31.2012 C 48.6328 -32.9102 48.6816 -35.5957 46.9727 -37.3047 L 23.1445 -61.1328 C 22.6074 -61.7188 22.6074 -62.5 23.1445 -63.0859 C 23.6816 -63.623 24.5117 -63.623 25.0488 -63.0859 L 47.4609 -40.6738 C 49.1699 -38.9648 51.9043 -39.0137 53.6133 -40.7227 C 55.3223 -42.3828 55.3223 -45.1172 53.6621 -46.8262 L 34.9121 -65.5273 C 34.375 -66.1133 34.3262 -66.8945 34.8633 -67.4316 C 35.4492 -67.9688 36.2793 -68.0176 36.8164 -67.4805 L 64.9414 -39.3555 C 67.2363 -37.1094 70.0684 -37.5488 71.875 -39.4043 C 73.291 -40.8691 74.0723 -43.1152 73.0957 -45.5566 L 68.2129 -58.3008 C 67.8223 -59.2773 68.3105 -60.0098 68.9453 -60.3027 C 69.6289 -60.5469 70.4102 -60.3027 70.8008 -59.4238 L 79.4922 -40.0879 C 85.1562 -27.4414 83.6914 -18.457 74.8535 -9.61914 Z"/>
  </g>
  <g id="Bold-S" transform="matrix(1 0 0 1 2291.96 696)">
   <path d="M 79.3457 -3.51562 C 90.332 -14.502 92.1875 -27.9785 84.8145 -43.5547 L 76.0254 -62.1094 C 75.293 -63.6719 74.3652 -64.9902 73.3398 -66.0156 C 69.7754 -69.5801 64.4531 -69.6777 60.8398 -66.0645 C 58.7891 -63.9648 57.9102 -60.8887 58.9844 -57.9102 L 60.0098 -55.4199 C 60.0586 -55.2734 60.0586 -55.1758 60.0098 -55.0781 C 59.8633 -54.9805 59.7168 -54.9805 59.6191 -55.0781 L 40.8203 -73.877 C 36.9141 -77.832 31.543 -77.7832 27.5391 -73.7793 C 26.6602 -72.9004 26.0742 -71.8262 25.7812 -70.7031 C 22.2168 -72.5098 18.457 -71.875 15.4785 -68.8965 C 12.5977 -66.0645 11.9629 -62.207 13.6719 -58.6914 C 12.6465 -58.4473 11.6699 -57.9102 10.9375 -57.1777 C 7.22656 -53.4668 7.17773 -48.291 10.791 -44.6777 L 12.3535 -43.1641 C 11.377 -42.9688 10.3516 -42.4316 9.57031 -41.6504 C 5.85938 -37.9395 5.95703 -32.4707 9.7168 -28.7109 L 34.2773 -4.15039 C 48.1934 9.76562 65.918 9.91211 79.3457 -3.51562 Z M 72.7051 -9.7168 C 62.7441 0.244141 50.4883 -0.0488281 39.7461 -10.7422 L 16.5527 -33.9844 C 15.8203 -34.7168 15.8203 -35.6934 16.5039 -36.4258 C 17.2363 -37.1094 18.2617 -37.1582 18.9941 -36.4258 L 33.2031 -22.2168 C 34.668 -20.752 37.0605 -20.8496 38.4766 -22.2656 C 39.9414 -23.7305 40.0391 -26.123 38.5742 -27.5879 L 17.1875 -48.9746 C 16.5039 -49.6582 16.4551 -50.6836 17.1875 -51.416 C 17.8711 -52.0996 18.9453 -52.1484 19.6289 -51.416 L 39.5508 -31.4941 C 41.0156 -30.0293 43.4082 -30.127 44.8242 -31.5918 C 46.2891 -33.0566 46.3867 -35.4004 44.9219 -36.8652 L 21.4355 -60.4004 C 20.7031 -61.084 20.7031 -62.1094 21.3867 -62.8418 C 22.1191 -63.5254 23.1445 -63.5254 23.877 -62.8418 L 46.4355 -40.2832 C 47.9004 -38.8184 50.293 -38.8672 51.709 -40.332 C 53.1738 -41.7969 53.2715 -44.1895 51.8066 -45.6543 L 32.8125 -64.5996 C 32.1289 -65.332 32.0801 -66.3086 32.8125 -67.041 C 33.4961 -67.7246 34.5703 -67.7734 35.3027 -67.041 L 62.9395 -39.4043 C 64.9414 -37.4023 67.3828 -37.7441 68.9453 -39.3555 C 70.2637 -40.6738 70.8984 -42.5781 69.9707 -44.9219 L 65.1367 -57.666 C 64.6973 -58.8379 65.2344 -59.7656 66.0645 -60.1074 C 66.9434 -60.498 67.8711 -60.1074 68.4082 -58.9844 L 77.0996 -39.8926 C 82.959 -27.0996 81.1035 -18.0664 72.7051 -9.7168 Z"/>
  </g>
  <g id="Semibold-S" transform="matrix(1 0 0 1 1996.59 696)">
   <path d="M 77.0508 -4.3457 C 87.5977 -14.8926 89.3555 -27.832 82.1777 -42.9688 L 73.5352 -61.2793 C 72.8027 -62.7441 71.9727 -63.9648 70.9961 -64.8926 C 67.627 -68.2617 62.6953 -68.2617 59.3262 -64.9414 C 57.3242 -62.8906 56.543 -59.9121 57.7148 -56.8848 L 59.082 -53.5156 C 59.1309 -53.3691 59.1309 -53.2715 59.0332 -53.1738 C 58.8867 -53.0273 58.7402 -53.0762 58.6426 -53.1738 L 39.1113 -72.7539 C 35.4004 -76.416 30.4688 -76.3672 26.8066 -72.7051 C 25.8301 -71.7285 25.2441 -70.5566 25 -69.3359 C 21.582 -71.3379 17.8711 -70.8496 14.9902 -67.9688 C 12.207 -65.1855 11.7188 -61.4258 13.623 -58.0566 C 12.5 -57.9102 11.4258 -57.3242 10.5957 -56.4941 C 7.17773 -53.0762 7.17773 -48.3398 10.5957 -44.9219 L 12.5977 -42.9199 C 11.4746 -42.8223 10.2539 -42.2363 9.32617 -41.3086 C 5.9082 -37.8418 6.00586 -32.9102 9.57031 -29.3457 L 33.6914 -5.22461 C 47.2168 8.30078 64.209 8.54492 77.0508 -4.3457 Z M 71.2402 -9.76562 C 61.377 0.0976562 49.2188 -0.292969 38.4766 -11.084 L 15.5273 -33.9844 C 14.6973 -34.8145 14.6973 -35.9863 15.5273 -36.8164 C 16.3086 -37.5977 17.5293 -37.6465 18.3594 -36.8164 L 32.4707 -22.7051 C 33.7891 -21.3867 35.8887 -21.4844 37.207 -22.7539 C 38.4766 -24.0723 38.623 -26.2207 37.3047 -27.5391 L 16.1133 -48.6816 C 15.2832 -49.5117 15.2832 -50.6836 16.1133 -51.4648 C 16.9434 -52.2949 18.1152 -52.3438 18.9453 -51.5137 L 38.6719 -31.7871 C 39.9902 -30.4688 42.0898 -30.5664 43.4082 -31.8359 C 44.6777 -33.1543 44.8242 -35.2539 43.5059 -36.5723 L 20.2148 -59.8633 C 19.3848 -60.6934 19.3848 -61.8652 20.2148 -62.6953 C 21.0449 -63.4766 22.2168 -63.4766 23.0469 -62.6953 L 45.7031 -39.9902 C 47.0215 -38.6719 49.1211 -38.7695 50.4395 -40.0879 C 51.7578 -41.4062 51.8555 -43.5059 50.5371 -44.8242 L 31.3965 -63.9648 C 30.5664 -64.7949 30.5664 -65.9668 31.3965 -66.748 C 32.1777 -67.5781 33.3984 -67.5781 34.2285 -66.7969 L 61.5723 -39.4531 C 63.3301 -37.6465 65.5273 -37.8418 66.9434 -39.3066 C 68.1152 -40.5273 68.7012 -42.1875 67.8223 -44.4824 L 63.0371 -57.2266 C 62.5488 -58.4961 63.0859 -59.5703 64.0625 -59.9609 C 65.1367 -60.4492 66.1133 -60.0098 66.748 -58.6426 L 75.4883 -39.7461 C 81.3965 -26.8555 79.3457 -17.8223 71.2402 -9.76562 Z"/>
  </g>
  <g id="Medium-S" transform="matrix(1 0 0 1 1700.9 696)">
   <path d="M 75.3418 -4.93164 C 85.5469 -15.1367 87.207 -27.7344 80.2246 -42.5293 L 71.6309 -60.5957 C 70.9473 -62.0117 70.166 -63.1836 69.2383 -64.1113 C 66.0156 -67.2852 61.3281 -67.2363 58.2031 -64.0625 C 56.2012 -62.1094 55.5176 -59.1797 56.6895 -56.1035 L 58.3496 -52.0508 C 58.3984 -51.9043 58.3984 -51.8066 58.3008 -51.709 C 58.2031 -51.5625 58.0078 -51.6113 57.9102 -51.709 L 37.793 -71.875 C 34.2773 -75.3418 29.6875 -75.3418 26.2207 -71.875 C 25.1953 -70.8496 24.6094 -69.5801 24.4141 -68.2617 C 21.0449 -70.459 17.4805 -70.1172 14.6484 -67.2852 C 11.9141 -64.5508 11.5723 -60.8887 13.623 -57.5684 C 12.4023 -57.4707 11.2305 -56.8848 10.3516 -55.957 C 7.12891 -52.7832 7.17773 -48.3887 10.4492 -45.1172 L 12.8418 -42.7734 C 11.5234 -42.7246 10.2051 -42.0898 9.17969 -41.0156 C 5.95703 -37.8418 6.10352 -33.2031 9.42383 -29.834 L 33.252 -6.00586 C 46.4355 7.17773 62.9395 7.4707 75.3418 -4.93164 Z M 70.1172 -9.81445 C 60.3516 0 48.2422 -0.537109 37.5 -11.2793 L 14.7461 -34.0332 C 13.8672 -34.9121 13.8672 -36.1816 14.7461 -37.1094 C 15.625 -37.9883 16.9434 -37.9883 17.8711 -37.1094 L 31.9336 -23.0469 C 33.1055 -21.8262 35.0586 -21.9727 36.1816 -23.1445 C 37.4023 -24.3164 37.5488 -26.2695 36.3281 -27.4414 L 15.332 -48.4863 C 14.4043 -49.3652 14.4043 -50.6348 15.2832 -51.5625 C 16.2109 -52.4414 17.4805 -52.4902 18.4082 -51.5625 L 37.9883 -31.9824 C 39.209 -30.7617 41.1133 -30.8594 42.2852 -32.0312 C 43.457 -33.2031 43.6035 -35.1562 42.4316 -36.377 L 19.3359 -59.4727 C 18.4082 -60.3516 18.4082 -61.6699 19.2871 -62.5488 C 20.2148 -63.4277 21.5332 -63.4766 22.4121 -62.5488 L 45.166 -39.7949 C 46.3379 -38.623 48.291 -38.7207 49.4629 -39.8926 C 50.6348 -41.0645 50.7812 -43.0176 49.5605 -44.1895 L 30.3223 -63.4766 C 29.3945 -64.3555 29.3945 -65.6738 30.2734 -66.5527 C 31.2012 -67.4316 32.5195 -67.4805 33.3984 -66.5527 L 60.498 -39.4531 C 62.1582 -37.8418 64.1113 -37.9395 65.4297 -39.2578 C 66.5527 -40.3809 67.041 -41.9434 66.2109 -44.1406 L 61.4258 -56.8848 C 60.9375 -58.3008 61.4746 -59.4238 62.5488 -59.9121 C 63.7207 -60.4004 64.7949 -59.9121 65.4785 -58.3984 L 74.2188 -39.6484 C 80.2734 -26.709 77.9785 -17.627 70.1172 -9.81445 Z"/>
  </g>
  <g id="Regular-S" transform="matrix(1 0 0 1 1405.53 696)">
   <path d="M 73.0957 -5.76172 C 82.8613 -15.5273 84.4238 -27.6367 77.6367 -41.9434 L 69.1895 -59.7656 C 68.5547 -61.084 67.7734 -62.1582 66.9434 -62.9883 C 63.916 -66.0156 59.5703 -65.8203 56.6895 -62.9883 C 54.7363 -61.0352 54.1504 -58.2031 55.4199 -55.0781 L 57.4219 -50.1953 C 57.4707 -50.0488 57.4707 -49.9023 57.373 -49.8047 C 57.2266 -49.6582 57.0801 -49.707 56.9336 -49.8535 L 36.0352 -70.7031 C 32.8125 -73.9746 28.6621 -73.9746 25.4883 -70.8008 C 24.3652 -69.6777 23.7305 -68.3105 23.6816 -66.8945 C 20.4102 -69.2871 16.8945 -69.0918 14.1602 -66.3574 C 11.5234 -63.7207 11.3281 -60.1074 13.5742 -56.9336 C 12.2559 -56.8848 10.9863 -56.2988 10.0098 -55.3223 C 7.08008 -52.3926 7.17773 -48.4375 10.2539 -45.3613 L 13.0859 -42.5293 C 11.6211 -42.5781 10.1074 -41.8457 8.93555 -40.6738 C 6.00586 -37.7441 6.15234 -33.5938 9.27734 -30.4688 L 32.7148 -7.03125 C 45.459 5.71289 61.2793 6.10352 73.0957 -5.76172 Z M 68.7012 -9.86328 C 58.9844 -0.146484 47.0215 -0.78125 36.2305 -11.5723 L 13.7695 -34.0332 C 12.7441 -35.0586 12.7441 -36.4746 13.7695 -37.4512 C 14.7461 -38.4766 16.2109 -38.4766 17.2363 -37.5 L 31.2012 -23.5352 C 32.2266 -22.4609 33.9355 -22.6074 34.9121 -23.584 C 35.9375 -24.6094 36.1328 -26.3184 35.0586 -27.3926 L 14.2578 -48.1934 C 13.2324 -49.2188 13.2324 -50.6348 14.209 -51.6113 C 15.2344 -52.6367 16.6992 -52.6367 17.7246 -51.6602 L 37.1582 -32.2266 C 38.1836 -31.1523 39.8438 -31.2988 40.8691 -32.2754 C 41.8945 -33.3496 42.041 -35.0098 41.0156 -36.084 L 18.1641 -58.9355 C 17.1387 -59.9609 17.1387 -61.377 18.1152 -62.4023 C 19.1406 -63.3789 20.6055 -63.3789 21.582 -62.4023 L 44.4336 -39.5508 C 45.5078 -38.4766 47.168 -38.623 48.1934 -39.5996 C 49.2188 -40.6738 49.3652 -42.3828 48.3398 -43.4082 L 28.9062 -62.8418 C 27.8809 -63.8184 27.8809 -65.2832 28.8574 -66.2598 C 29.8828 -67.2852 31.3477 -67.2852 32.3242 -66.2598 L 59.1309 -39.4531 C 60.5957 -38.0371 62.2559 -38.0371 63.4277 -39.209 C 64.4531 -40.2344 64.8926 -41.5527 64.0625 -43.7012 L 59.375 -56.4453 C 58.7891 -57.959 59.375 -59.2285 60.5957 -59.7656 C 61.9141 -60.3516 63.0859 -59.7656 63.8672 -58.0566 L 72.6074 -39.502 C 78.7598 -26.4648 76.2207 -17.3828 68.7012 -9.86328 Z"/>
  </g>
  <g id="Light-S" transform="matrix(1 0 0 1 1110.07 696)">
   <path d="M 70.9961 -6.73828 C 80.3223 -16.0156 81.8359 -27.6367 75.4883 -40.9668 L 66.748 -59.375 C 66.1621 -60.5957 65.4785 -61.5723 64.6973 -62.3535 C 61.9141 -65.0879 57.9102 -64.9414 55.2246 -62.2559 C 53.418 -60.4492 52.8809 -57.7148 54.1016 -54.7363 L 57.1289 -47.6562 C 57.1777 -47.4609 57.1777 -47.3145 57.0801 -47.2168 C 56.9336 -47.0703 56.7383 -47.1191 56.6406 -47.2656 L 34.2285 -69.6289 C 31.1523 -72.7051 27.3438 -72.7051 24.4629 -69.8242 C 23.3398 -68.75 22.7051 -67.334 22.7051 -65.8203 C 19.6777 -68.2617 16.2598 -68.2617 13.5742 -65.625 C 10.9863 -63.0371 10.9863 -59.4238 13.2812 -56.4941 C 11.8652 -56.4941 10.498 -55.9082 9.52148 -54.8828 C 6.78711 -52.1973 6.88477 -48.4375 9.81445 -45.5078 L 12.9883 -42.334 C 11.4746 -42.4316 9.96094 -41.6992 8.83789 -40.5762 C 6.10352 -37.8906 6.25 -33.9844 9.22852 -31.0059 L 32.3242 -7.91016 C 44.9219 4.63867 59.8633 4.39453 70.9961 -6.73828 Z M 67.5293 -9.91211 C 58.1055 -0.488281 46.0938 -0.537109 35.1562 -11.4746 L 12.7441 -33.8867 C 11.4746 -35.1562 11.3281 -36.8164 12.5488 -38.0371 C 13.7695 -39.209 15.4785 -39.209 16.748 -37.9395 L 30.4688 -24.2188 C 31.3965 -23.291 32.7637 -23.4375 33.5449 -24.2188 C 34.375 -25.0488 34.5215 -26.3672 33.5449 -27.3438 L 12.9883 -47.9004 C 11.7188 -49.1699 11.6211 -50.7812 12.793 -52.002 C 14.0137 -53.2227 15.7715 -53.1738 17.041 -51.9043 L 36.2305 -32.7637 C 37.1582 -31.7871 38.4766 -31.9336 39.2578 -32.7148 C 40.0879 -33.5449 40.2344 -34.8633 39.3066 -35.8398 L 16.8457 -58.3008 C 15.5762 -59.5703 15.4785 -61.3281 16.6992 -62.5488 C 17.8711 -63.7207 19.5801 -63.623 20.8496 -62.3535 L 43.3594 -39.8438 C 44.1895 -39.0137 45.5566 -38.9648 46.3867 -39.8438 C 47.2656 -40.7227 47.2656 -42.0898 46.4355 -42.9199 L 27.2461 -62.1094 C 25.9766 -63.3789 25.9277 -65.0879 27.1484 -66.3086 C 28.3691 -67.5293 29.9805 -67.4316 31.2988 -66.1621 L 57.7637 -39.6973 C 59.0332 -38.4277 60.5469 -38.4277 61.6211 -39.502 C 62.5488 -40.4297 62.9395 -41.6504 62.207 -43.457 L 57.373 -55.9082 C 56.6406 -57.7148 57.2266 -59.2285 58.6914 -59.9121 C 60.2051 -60.6445 61.6211 -59.8633 62.5 -57.959 L 71.4844 -39.0625 C 77.2461 -26.9043 75.1465 -17.4805 67.5293 -9.91211 Z"/>
  </g>
  <g id="Thin-S" transform="matrix(1 0 0 1 814.992 696)">
   <path d="M 68.1641 -7.95898 C 76.9043 -16.6992 78.418 -27.6855 72.6562 -39.6484 L 63.4766 -58.8867 C 62.9883 -59.9121 62.4023 -60.7422 61.7188 -61.4258 C 59.3262 -63.8672 55.7617 -63.8184 53.3203 -61.377 C 51.709 -59.7168 51.2207 -57.1289 52.3926 -54.2969 L 56.6895 -44.2871 C 56.7871 -44.0918 56.7871 -43.8965 56.6895 -43.7988 C 56.543 -43.6523 56.3477 -43.7012 56.2012 -43.8477 L 31.8359 -68.2129 C 29.0039 -71.0449 25.5859 -71.0449 23.0957 -68.5547 C 21.9727 -67.4316 21.3867 -66.0156 21.4844 -64.4531 C 18.7012 -66.9434 15.332 -67.1875 12.793 -64.6484 C 10.3027 -62.1582 10.498 -58.5449 12.8418 -55.8594 C 11.3281 -56.0059 9.91211 -55.3711 8.83789 -54.2969 C 6.44531 -51.9043 6.44531 -48.4863 9.22852 -45.7031 L 12.8418 -42.0898 C 11.2793 -42.2363 9.81445 -41.5527 8.69141 -40.4297 C 6.29883 -37.9883 6.34766 -34.5703 9.13086 -31.7383 L 31.7871 -9.13086 C 44.1895 3.27148 58.0566 2.14844 68.1641 -7.95898 Z M 66.0156 -10.0098 C 56.9824 -0.927734 44.873 -0.146484 33.7402 -11.3281 L 11.3281 -33.7402 C 9.7168 -35.3516 9.47266 -37.2559 10.9863 -38.7207 C 12.4512 -40.2344 14.5508 -40.1367 16.1621 -38.5254 L 29.4922 -25.1953 C 30.3223 -24.4141 31.2012 -24.5117 31.6895 -25 C 32.2754 -25.5859 32.373 -26.416 31.543 -27.2461 L 11.3281 -47.4609 C 9.7168 -49.0723 9.47266 -51.0254 10.9375 -52.4902 C 12.4512 -54.0039 14.502 -53.9062 16.1133 -52.2949 L 35.0098 -33.4473 C 35.791 -32.6172 36.6699 -32.7637 37.207 -33.252 C 37.7441 -33.8379 37.8418 -34.668 37.0117 -35.498 L 15.0879 -57.4219 C 13.4766 -59.0332 13.2812 -61.2305 14.7949 -62.6953 C 16.1621 -64.1113 18.3105 -63.8672 19.9219 -62.2559 L 41.8945 -40.2832 C 42.5293 -39.6484 43.4082 -39.502 44.043 -40.1367 C 44.6777 -40.7715 44.5312 -41.6992 43.8965 -42.334 L 25.0488 -61.1816 C 23.4375 -62.793 23.3398 -64.8926 24.8535 -66.3574 C 26.3184 -67.8711 28.2715 -67.627 29.8828 -66.0156 L 55.9082 -39.9414 C 57.0312 -38.8672 58.3496 -39.0137 59.2773 -39.9414 C 60.0586 -40.7227 60.3516 -41.748 59.7656 -43.1152 L 54.7363 -55.2246 C 53.8086 -57.4219 54.3945 -59.2773 56.1523 -60.0586 C 58.0078 -60.9375 59.7168 -60.0098 60.7422 -57.8613 L 70.0195 -38.4277 C 75.293 -27.5391 73.6816 -17.627 66.0156 -10.0098 Z"/>
  </g>
  <g id="Ultralight-S" transform="matrix(1 0 0 1 519.111 696)">
   <path d="M 66.748 -8.59375 C 75.1465 -17.041 76.6602 -27.6855 71.2402 -39.0137 L 61.8164 -58.6426 C 61.377 -59.5703 60.8398 -60.3516 60.2051 -60.9863 C 57.959 -63.2324 54.6875 -63.1836 52.3438 -60.8887 C 50.8301 -59.3262 50.3418 -56.8359 51.5625 -54.0527 L 56.4941 -42.5781 C 56.5918 -42.334 56.5918 -42.1387 56.4453 -42.041 C 56.3477 -41.8945 56.1523 -41.9434 56.0059 -42.0898 L 30.6152 -67.4805 C 27.9297 -70.2148 24.6582 -70.166 22.4121 -67.9199 C 21.2891 -66.7969 20.6543 -65.332 20.8496 -63.7207 C 18.2129 -66.2598 14.8926 -66.6504 12.4023 -64.1602 C 9.96094 -61.7188 10.2539 -58.1055 12.6465 -55.5664 C 11.0352 -55.7129 9.61914 -55.127 8.49609 -54.0039 C 6.25 -51.7578 6.25 -48.5352 8.93555 -45.8008 L 12.793 -41.9434 C 11.1816 -42.1387 9.7168 -41.4551 8.59375 -40.332 C 6.39648 -38.0859 6.39648 -34.8633 9.08203 -32.1289 L 31.543 -9.7168 C 43.7988 2.58789 57.1289 1.02539 66.748 -8.59375 Z M 65.2832 -10.0586 C 56.3965 -1.17188 44.2871 0 33.0078 -11.2305 L 10.6445 -33.6426 C 8.83789 -35.4004 8.54492 -37.5 10.1562 -39.1113 C 11.8164 -40.7227 14.0625 -40.625 15.8691 -38.8672 L 29.0039 -25.6836 C 29.7363 -24.9512 30.4199 -25.0488 30.7617 -25.4395 C 31.2012 -25.8301 31.25 -26.4648 30.5176 -27.1973 L 10.4492 -47.2656 C 8.64258 -49.0723 8.34961 -51.123 10.0098 -52.7344 C 11.6211 -54.3945 13.8672 -54.2969 15.6738 -52.4902 L 34.375 -33.7891 C 35.1074 -33.0566 35.7422 -33.1543 36.1328 -33.5449 C 36.5234 -33.9355 36.6211 -34.5703 35.8887 -35.3027 L 14.209 -56.9824 C 12.4023 -58.7891 12.1582 -61.1816 13.8184 -62.793 C 15.332 -64.3066 17.627 -64.0137 19.4336 -62.207 L 41.1133 -40.4785 C 41.6504 -39.9902 42.2852 -39.7461 42.8711 -40.2832 C 43.3594 -40.7715 43.1641 -41.5039 42.627 -41.9922 L 23.9258 -60.7422 C 22.1191 -62.5 22.0215 -64.7949 23.6328 -66.4062 C 25.293 -68.0176 27.3438 -67.7246 29.1504 -65.9668 L 54.9805 -40.0879 C 55.957 -39.1113 57.1777 -39.2578 58.0566 -40.1367 C 58.7891 -40.8691 58.9844 -41.7969 58.4961 -42.9199 L 53.418 -54.834 C 52.3926 -57.2754 52.9785 -59.2773 54.8828 -60.1562 C 56.8359 -61.1328 58.7402 -60.1074 59.8633 -57.8125 L 69.2871 -38.1348 C 74.2676 -27.832 72.9004 -17.7246 65.2832 -10.0586 Z"/>
  </g>
 </g>
</svg>
