<?xml version="1.0" encoding="UTF-8"?>
<!--Generator: Apple Native CoreSVG 148-->
<!DOCTYPE svg
PUBLIC "-//W3C//DTD SVG 1.1//EN"
       "http://www.w3.org/Graphics/SVG/1.1/DTD/svg11.dtd">
<svg version="1.1" xmlns="http://www.w3.org/2000/svg" xmlns:xlink="http://www.w3.org/1999/xlink" width="3300" height="2200">
 <!--glyph: "uni1000A8.medium", point size: 100.000000, font version: "Version 16.0d11e1", template writer version: "8"-->
 <g id="Notes">
  <rect height="2200" id="artboard" style="fill:white;opacity:1" width="3300" x="0" y="0"/>
  <line id="" style="fill:none;stroke:black;opacity:1;stroke-width:0.5;" x1="263" x2="3036" y1="292" y2="292"/>
  <text style="stroke:none;fill:black;font-family:-apple-system,&quot;SF Pro Display&quot;,&quot;SF Pro Text&quot;,Helvetica,sans-serif;font-weight:bold;" transform="matrix(1 0 0 1 263 322)">Weight/Scale Variations</text>
  <text style="stroke:none;fill:black;font-family:-apple-system,&quot;SF Pro Display&quot;,&quot;SF Pro Text&quot;,Helvetica,sans-serif;text-anchor:middle;" transform="matrix(1 0 0 1 559.711 322)">Ultralight</text>
  <text style="stroke:none;fill:black;font-family:-apple-system,&quot;SF Pro Display&quot;,&quot;SF Pro Text&quot;,Helvetica,sans-serif;text-anchor:middle;" transform="matrix(1 0 0 1 856.422 322)">Thin</text>
  <text style="stroke:none;fill:black;font-family:-apple-system,&quot;SF Pro Display&quot;,&quot;SF Pro Text&quot;,Helvetica,sans-serif;text-anchor:middle;" transform="matrix(1 0 0 1 1153.13 322)">Light</text>
  <text style="stroke:none;fill:black;font-family:-apple-system,&quot;SF Pro Display&quot;,&quot;SF Pro Text&quot;,Helvetica,sans-serif;text-anchor:middle;" transform="matrix(1 0 0 1 1449.84 322)">Regular</text>
  <text style="stroke:none;fill:black;font-family:-apple-system,&quot;SF Pro Display&quot;,&quot;SF Pro Text&quot;,Helvetica,sans-serif;text-anchor:middle;" transform="matrix(1 0 0 1 1746.56 322)">Medium</text>
  <text style="stroke:none;fill:black;font-family:-apple-system,&quot;SF Pro Display&quot;,&quot;SF Pro Text&quot;,Helvetica,sans-serif;text-anchor:middle;" transform="matrix(1 0 0 1 2043.27 322)">Semibold</text>
  <text style="stroke:none;fill:black;font-family:-apple-system,&quot;SF Pro Display&quot;,&quot;SF Pro Text&quot;,Helvetica,sans-serif;text-anchor:middle;" transform="matrix(1 0 0 1 2339.98 322)">Bold</text>
  <text style="stroke:none;fill:black;font-family:-apple-system,&quot;SF Pro Display&quot;,&quot;SF Pro Text&quot;,Helvetica,sans-serif;text-anchor:middle;" transform="matrix(1 0 0 1 2636.69 322)">Heavy</text>
  <text style="stroke:none;fill:black;font-family:-apple-system,&quot;SF Pro Display&quot;,&quot;SF Pro Text&quot;,Helvetica,sans-serif;text-anchor:middle;" transform="matrix(1 0 0 1 2933.4 322)">Black</text>
  <line id="" style="fill:none;stroke:black;opacity:1;stroke-width:0.5;" x1="263" x2="3036" y1="1903" y2="1903"/>
  <g id="" transform="matrix(1 0 0 1 263 1933)">
   <path d="M 9.24805 0.830078 C 13.5547 0.830078 17.1387 -2.74414 17.1387 -7.05078 C 17.1387 -11.3574 13.5449 -14.9316 9.23828 -14.9316 C 4.94141 -14.9316 1.36719 -11.3574 1.36719 -7.05078 C 1.36719 -2.74414 4.95117 0.830078 9.24805 0.830078 Z M 9.24805 -0.654297 C 5.70312 -0.654297 2.87109 -3.49609 2.87109 -7.05078 C 2.87109 -10.6055 5.69336 -13.4473 9.23828 -13.4473 C 12.793 -13.4473 15.6348 -10.6055 15.6445 -7.05078 C 15.6543 -3.49609 12.8027 -0.654297 9.24805 -0.654297 Z M 9.22852 -3.62305 C 9.69727 -3.62305 9.9707 -3.93555 9.9707 -4.45312 L 9.9707 -6.31836 L 12.002 -6.31836 C 12.5 -6.31836 12.832 -6.57227 12.832 -7.04102 C 12.832 -7.51953 12.5195 -7.7832 12.002 -7.7832 L 9.9707 -7.7832 L 9.9707 -9.81445 C 9.9707 -10.332 9.69727 -10.6543 9.22852 -10.6543 C 8.75977 -10.6543 8.50586 -10.3125 8.50586 -9.81445 L 8.50586 -7.7832 L 6.49414 -7.7832 C 5.97656 -7.7832 5.64453 -7.51953 5.64453 -7.04102 C 5.64453 -6.57227 5.99609 -6.31836 6.49414 -6.31836 L 8.50586 -6.31836 L 8.50586 -4.45312 C 8.50586 -3.95508 8.75977 -3.62305 9.22852 -3.62305 Z"/>
  </g>
  <g id="" transform="matrix(1 0 0 1 281.506 1933)">
   <path d="M 11.709 2.91016 C 17.1582 2.91016 21.6699 -1.61133 21.6699 -7.05078 C 21.6699 -12.5 17.1484 -17.0117 11.6992 -17.0117 C 6.25977 -17.0117 1.74805 -12.5 1.74805 -7.05078 C 1.74805 -1.61133 6.26953 2.91016 11.709 2.91016 Z M 11.709 1.25 C 7.09961 1.25 3.41797 -2.44141 3.41797 -7.05078 C 3.41797 -11.6602 7.08984 -15.3516 11.6992 -15.3516 C 16.3086 -15.3516 20 -11.6602 20.0098 -7.05078 C 20.0195 -2.44141 16.3184 1.25 11.709 1.25 Z M 11.6797 -2.66602 C 12.207 -2.66602 12.5098 -3.01758 12.5098 -3.59375 L 12.5098 -6.23047 L 15.3223 -6.23047 C 15.8691 -6.23047 16.25 -6.51367 16.25 -7.03125 C 16.25 -7.55859 15.8887 -7.86133 15.3223 -7.86133 L 12.5098 -7.86133 L 12.5098 -10.6836 C 12.5098 -11.25 12.207 -11.6113 11.6797 -11.6113 C 11.1621 -11.6113 10.8789 -11.2305 10.8789 -10.6836 L 10.8789 -7.86133 L 8.07617 -7.86133 C 7.50977 -7.86133 7.13867 -7.55859 7.13867 -7.03125 C 7.13867 -6.51367 7.5293 -6.23047 8.07617 -6.23047 L 10.8789 -6.23047 L 10.8789 -3.59375 C 10.8789 -3.03711 11.1621 -2.66602 11.6797 -2.66602 Z"/>
  </g>
  <g id="" transform="matrix(1 0 0 1 304.924 1933)">
   <path d="M 14.9707 5.66406 C 21.9336 5.66406 27.6953 -0.0976562 27.6953 -7.05078 C 27.6953 -14.0137 21.9238 -19.7754 14.9609 -19.7754 C 8.00781 -19.7754 2.25586 -14.0137 2.25586 -7.05078 C 2.25586 -0.0976562 8.01758 5.66406 14.9707 5.66406 Z M 14.9707 3.84766 C 8.93555 3.84766 4.08203 -1.01562 4.08203 -7.05078 C 4.08203 -13.0957 8.92578 -17.9492 14.9609 -17.9492 C 21.0059 -17.9492 25.8594 -13.0957 25.8691 -7.05078 C 25.8789 -1.01562 21.0156 3.84766 14.9707 3.84766 Z M 14.9414 -1.38672 C 15.5176 -1.38672 15.8594 -1.77734 15.8594 -2.38281 L 15.8594 -6.13281 L 19.7754 -6.13281 C 20.3711 -6.13281 20.7812 -6.46484 20.7812 -7.02148 C 20.7812 -7.59766 20.3906 -7.93945 19.7754 -7.93945 L 15.8594 -7.93945 L 15.8594 -11.8652 C 15.8594 -12.4805 15.5176 -12.8711 14.9414 -12.8711 C 14.375 -12.8711 14.0527 -12.4609 14.0527 -11.8652 L 14.0527 -7.93945 L 10.1465 -7.93945 C 9.53125 -7.93945 9.13086 -7.59766 9.13086 -7.02148 C 9.13086 -6.46484 9.55078 -6.13281 10.1465 -6.13281 L 14.0527 -6.13281 L 14.0527 -2.38281 C 14.0527 -1.79688 14.375 -1.38672 14.9414 -1.38672 Z"/>
  </g>
  <text style="stroke:none;fill:black;font-family:-apple-system,&quot;SF Pro Display&quot;,&quot;SF Pro Text&quot;,Helvetica,sans-serif;font-weight:bold;" transform="matrix(1 0 0 1 263 1953)">Design Variations</text>
  <text style="stroke:none;fill:black;font-family:-apple-system,&quot;SF Pro Display&quot;,&quot;SF Pro Text&quot;,Helvetica,sans-serif;" transform="matrix(1 0 0 1 263 1971)">Symbols are supported in up to nine weights and three scales.</text>
  <text style="stroke:none;fill:black;font-family:-apple-system,&quot;SF Pro Display&quot;,&quot;SF Pro Text&quot;,Helvetica,sans-serif;" transform="matrix(1 0 0 1 263 1989)">For optimal layout with text and other symbols, vertically align</text>
  <text style="stroke:none;fill:black;font-family:-apple-system,&quot;SF Pro Display&quot;,&quot;SF Pro Text&quot;,Helvetica,sans-serif;" transform="matrix(1 0 0 1 263 2007)">symbols with the adjacent text.</text>
  <line id="" style="fill:none;stroke:#00AEEF;stroke-width:0.5;opacity:1.0;" x1="776" x2="776" y1="1919" y2="1933"/>
  <g id="" transform="matrix(1 0 0 1 776 1933)">
   <path d="M 3.31055 0.126953 C 3.82812 0.126953 4.08203 -0.0683594 4.26758 -0.605469 L 5.52734 -4.0625 L 11.2891 -4.0625 L 12.5488 -0.605469 C 12.7344 -0.0683594 12.9883 0.126953 13.4961 0.126953 C 14.0137 0.126953 14.3457 -0.185547 14.3457 -0.673828 C 14.3457 -0.839844 14.3164 -0.986328 14.2383 -1.20117 L 9.6582 -13.3887 C 9.43359 -13.9941 9.0332 -14.2871 8.4082 -14.2871 C 7.80273 -14.2871 7.39258 -13.9941 7.17773 -13.3984 L 2.59766 -1.19141 C 2.51953 -0.976562 2.49023 -0.830078 2.49023 -0.664062 C 2.49023 -0.175781 2.80273 0.126953 3.31055 0.126953 Z M 6.00586 -5.53711 L 8.37891 -12.1094 L 8.42773 -12.1094 L 10.8008 -5.53711 Z"/>
  </g>
  <line id="" style="fill:none;stroke:#00AEEF;stroke-width:0.5;opacity:1.0;" x1="792.836" x2="792.836" y1="1919" y2="1933"/>
  <text style="stroke:none;fill:black;font-family:-apple-system,&quot;SF Pro Display&quot;,&quot;SF Pro Text&quot;,Helvetica,sans-serif;font-weight:bold;" transform="matrix(1 0 0 1 776 1953)">Margins</text>
  <text style="stroke:none;fill:black;font-family:-apple-system,&quot;SF Pro Display&quot;,&quot;SF Pro Text&quot;,Helvetica,sans-serif;" transform="matrix(1 0 0 1 776 1971)">Leading and trailing margins on the left and right side of each symbol</text>
  <text style="stroke:none;fill:black;font-family:-apple-system,&quot;SF Pro Display&quot;,&quot;SF Pro Text&quot;,Helvetica,sans-serif;" transform="matrix(1 0 0 1 776 1989)">can be adjusted by modifying the x-location of the margin guidelines.</text>
  <text style="stroke:none;fill:black;font-family:-apple-system,&quot;SF Pro Display&quot;,&quot;SF Pro Text&quot;,Helvetica,sans-serif;" transform="matrix(1 0 0 1 776 2007)">Modifications are automatically applied proportionally to all</text>
  <text style="stroke:none;fill:black;font-family:-apple-system,&quot;SF Pro Display&quot;,&quot;SF Pro Text&quot;,Helvetica,sans-serif;" transform="matrix(1 0 0 1 776 2025)">scales and weights.</text>
  <g id="" transform="matrix(1 0 0 1 1289 1933)">
   <path d="M 2.8418 1.86523 L 4.54102 3.57422 C 5.40039 4.44336 6.38672 4.38477 7.31445 3.35938 L 17.4902 -7.85156 C 17.7539 -7.76367 18.0273 -7.7832 18.3398 -7.8418 L 19.4043 -8.03711 L 20.0684 -7.36328 L 20.0293 -6.80664 C 19.9902 -6.30859 20.1172 -5.92773 20.6055 -5.44922 L 21.3672 -4.70703 C 21.8457 -4.22852 22.4609 -4.19922 22.9297 -4.66797 L 25.8398 -7.58789 C 26.3086 -8.05664 26.2891 -8.65234 25.8105 -9.13086 L 25.0391 -9.89258 C 24.5605 -10.3711 24.1895 -10.5273 23.7109 -10.4883 L 23.1348 -10.4395 L 22.4902 -11.0742 L 22.7344 -12.1973 C 22.8613 -12.7637 22.7051 -13.2031 22.1191 -13.7891 L 19.9219 -15.9766 C 16.582 -19.2969 12.1484 -19.2188 9.25781 -16.3281 C 8.83789 -15.918 8.80859 -15.3418 9.04297 -14.9512 C 9.27734 -14.5898 9.73633 -14.3555 10.3809 -14.5215 C 11.8457 -14.8633 13.3691 -14.9219 14.7949 -13.9844 L 14.209 -12.5293 C 14.0137 -12.0508 13.9844 -11.6504 14.1113 -11.2891 L 3.04688 -0.898438 C 2.06055 0.0195312 1.98242 0.996094 2.8418 1.86523 Z M 10.752 -15.957 C 13.1836 -17.7344 16.4746 -17.4316 18.7012 -15.2051 L 21.1328 -12.793 C 21.3672 -12.5586 21.4062 -12.373 21.3379 -12.0312 L 21.0156 -10.5469 L 22.5195 -9.0625 L 23.5059 -9.12109 C 23.7598 -9.13086 23.8379 -9.11133 24.0332 -8.91602 L 24.6094 -8.33984 L 22.168 -5.89844 L 21.5918 -6.47461 C 21.3965 -6.66992 21.3672 -6.74805 21.377 -7.01172 L 21.4453 -7.98828 L 19.9512 -9.47266 L 18.4277 -9.21875 C 18.1055 -9.15039 17.959 -9.17969 17.7148 -9.41406 L 15.7129 -11.416 C 15.459 -11.6504 15.4297 -11.8164 15.5859 -12.1875 L 16.4648 -14.2773 C 14.9023 -15.7324 12.8711 -16.3574 10.8398 -15.7617 C 10.6836 -15.7227 10.625 -15.8496 10.752 -15.957 Z M 5.27344 2.30469 L 4.10156 1.14258 C 3.63281 0.683594 3.74023 0.341797 4.14062 -0.0195312 L 14.9512 -10.1953 L 16.416 -8.71094 L 6.42578 2.27539 C 6.07422 2.67578 5.74219 2.77344 5.27344 2.30469 Z"/>
  </g>
  <text style="stroke:none;fill:black;font-family:-apple-system,&quot;SF Pro Display&quot;,&quot;SF Pro Text&quot;,Helvetica,sans-serif;font-weight:bold;" transform="matrix(1 0 0 1 1289 1953)">Exporting</text>
  <text style="stroke:none;fill:black;font-family:-apple-system,&quot;SF Pro Display&quot;,&quot;SF Pro Text&quot;,Helvetica,sans-serif;" transform="matrix(1 0 0 1 1289 1971)">Symbols should be outlined when exporting to ensure the</text>
  <text style="stroke:none;fill:black;font-family:-apple-system,&quot;SF Pro Display&quot;,&quot;SF Pro Text&quot;,Helvetica,sans-serif;" transform="matrix(1 0 0 1 1289 1989)">design is preserved when submitting to Xcode.</text>
  <text id="template-version" style="stroke:none;fill:black;font-family:-apple-system,&quot;SF Pro Display&quot;,&quot;SF Pro Text&quot;,Helvetica,sans-serif;text-anchor:end;" transform="matrix(1 0 0 1 3036 1933)">Template v.2.0</text>
  <text style="stroke:none;fill:black;font-family:-apple-system,&quot;SF Pro Display&quot;,&quot;SF Pro Text&quot;,Helvetica,sans-serif;text-anchor:end;" transform="matrix(1 0 0 1 3036 1951)">Requires Xcode 12 or greater</text>
  <text style="stroke:none;fill:black;font-family:-apple-system,&quot;SF Pro Display&quot;,&quot;SF Pro Text&quot;,Helvetica,sans-serif;text-anchor:end;" transform="matrix(1 0 0 1 3036 1969)">Generated from k.square</text>
  <text style="stroke:none;fill:black;font-family:-apple-system,&quot;SF Pro Display&quot;,&quot;SF Pro Text&quot;,Helvetica,sans-serif;text-anchor:end;" transform="matrix(1 0 0 1 3036 1987)">Typeset at 100 points</text>
  <text style="stroke:none;fill:black;font-family:-apple-system,&quot;SF Pro Display&quot;,&quot;SF Pro Text&quot;,Helvetica,sans-serif;" transform="matrix(1 0 0 1 263 726)">Small</text>
  <text style="stroke:none;fill:black;font-family:-apple-system,&quot;SF Pro Display&quot;,&quot;SF Pro Text&quot;,Helvetica,sans-serif;" transform="matrix(1 0 0 1 263 1156)">Medium</text>
  <text style="stroke:none;fill:black;font-family:-apple-system,&quot;SF Pro Display&quot;,&quot;SF Pro Text&quot;,Helvetica,sans-serif;" transform="matrix(1 0 0 1 263 1586)">Large</text>
 </g>
 <g id="Guides">
  <g id="H-reference" style="fill:#27AAE1;stroke:none;" transform="matrix(1 0 0 1 339 696)">
   <path d="M 0.976562 0 L 3.66211 0 L 12.9883 -24.4629 L 45.7031 -24.4629 L 55.0781 0 L 57.7148 0 L 30.6152 -70.459 L 28.125 -70.459 Z M 29.2969 -67.1387 L 29.3945 -67.1387 L 44.873 -26.709 L 13.8672 -26.709 Z"/>
  </g>
  <line id="Baseline-S" style="fill:none;stroke:#27AAE1;opacity:1;stroke-width:0.5;" x1="263" x2="3036" y1="696" y2="696"/>
  <line id="Capline-S" style="fill:none;stroke:#27AAE1;opacity:1;stroke-width:0.5;" x1="263" x2="3036" y1="625.541" y2="625.541"/>
  <g id="H-reference" style="fill:#27AAE1;stroke:none;" transform="matrix(1 0 0 1 339 1126)">
   <path d="M 0.976562 0 L 3.66211 0 L 12.9883 -24.4629 L 45.7031 -24.4629 L 55.0781 0 L 57.7148 0 L 30.6152 -70.459 L 28.125 -70.459 Z M 29.2969 -67.1387 L 29.3945 -67.1387 L 44.873 -26.709 L 13.8672 -26.709 Z"/>
  </g>
  <line id="Baseline-M" style="fill:none;stroke:#27AAE1;opacity:1;stroke-width:0.5;" x1="263" x2="3036" y1="1126" y2="1126"/>
  <line id="Capline-M" style="fill:none;stroke:#27AAE1;opacity:1;stroke-width:0.5;" x1="263" x2="3036" y1="1055.54" y2="1055.54"/>
  <g id="H-reference" style="fill:#27AAE1;stroke:none;" transform="matrix(1 0 0 1 339 1556)">
   <path d="M 0.976562 0 L 3.66211 0 L 12.9883 -24.4629 L 45.7031 -24.4629 L 55.0781 0 L 57.7148 0 L 30.6152 -70.459 L 28.125 -70.459 Z M 29.2969 -67.1387 L 29.3945 -67.1387 L 44.873 -26.709 L 13.8672 -26.709 Z"/>
  </g>
  <line id="Baseline-L" style="fill:none;stroke:#27AAE1;opacity:1;stroke-width:0.5;" x1="263" x2="3036" y1="1556" y2="1556"/>
  <line id="Capline-L" style="fill:none;stroke:#27AAE1;opacity:1;stroke-width:0.5;" x1="263" x2="3036" y1="1485.54" y2="1485.54"/>
  <line id="left-margin" style="fill:none;stroke:#00AEEF;stroke-width:0.5;opacity:1.0;" x1="1392.45" x2="1392.45" y1="1030.79" y2="1150.12"/>
  <line id="right-margin" style="fill:none;stroke:#00AEEF;stroke-width:0.5;opacity:1.0;" x1="1507.24" x2="1507.24" y1="1030.79" y2="1150.12"/>
 </g>
 <g id="Symbols">
  <g id="Black-L" transform="matrix(1 0 0 1 2855.62 1556)">
   <path d="M 39.9902 26.5137 L 115.576 26.5137 C 130.811 26.5137 139.502 17.8711 139.502 2.68555 L 139.502 -73.0957 C 139.502 -88.2812 130.811 -96.875 115.576 -96.875 L 39.9902 -96.875 C 24.7559 -96.875 16.0645 -88.2812 16.0645 -73.0957 L 16.0645 2.68555 C 16.0645 17.8711 24.7559 26.5137 39.9902 26.5137 Z M 42.6758 6.29883 C 38.4766 6.29883 36.3281 4.39453 36.3281 -0.146484 L 36.3281 -70.2148 C 36.3281 -74.7559 38.4766 -76.6602 42.6758 -76.6602 L 112.842 -76.6602 C 117.09 -76.6602 119.238 -74.7559 119.238 -70.2148 L 119.238 -0.146484 C 119.238 4.39453 117.09 6.29883 112.842 6.29883 Z M 61.2305 -7.27539 C 66.748 -7.27539 70.2637 -10.791 70.2637 -16.7969 L 70.2637 -20.9473 L 75.1953 -26.709 L 85.9375 -11.8164 C 88.2812 -8.54492 90.4297 -7.27539 93.75 -7.27539 C 98.7305 -7.27539 102.49 -10.791 102.49 -15.4785 C 102.49 -17.7734 101.904 -19.3359 100.244 -21.7285 L 88.623 -37.4512 L 99.2188 -49.8047 C 101.221 -52.0996 101.855 -53.6133 101.855 -56.1035 C 101.855 -60.2539 98.0957 -63.4277 93.457 -63.4277 C 90.3809 -63.4277 88.3789 -62.2559 85.9863 -59.1309 L 70.8496 -40.6738 L 70.2637 -40.6738 L 70.2637 -53.418 C 70.2637 -59.7168 66.9434 -63.4277 61.2305 -63.4277 C 55.4688 -63.4277 52.1973 -59.7656 52.1973 -53.418 L 52.1973 -17.334 C 52.1973 -10.9375 55.4688 -7.27539 61.2305 -7.27539 Z"/>
  </g>
  <g id="Heavy-L" transform="matrix(1 0 0 1 2559.93 1556)">
   <path d="M 38.8184 25.4883 L 114.697 25.4883 C 129.346 25.4883 137.451 17.4316 137.451 2.88086 L 137.451 -73.2422 C 137.451 -87.793 129.346 -95.8496 114.697 -95.8496 L 38.8184 -95.8496 C 24.2188 -95.8496 16.0645 -87.793 16.0645 -73.2422 L 16.0645 2.88086 C 16.0645 17.4316 24.2188 25.4883 38.8184 25.4883 Z M 40.918 8.00781 C 36.084 8.00781 33.5938 5.71289 33.5938 0.585938 L 33.5938 -70.9473 C 33.5938 -76.0742 36.084 -78.3691 40.918 -78.3691 L 112.549 -78.3691 C 117.383 -78.3691 119.922 -76.0742 119.922 -70.9473 L 119.922 0.585938 C 119.922 5.71289 117.383 8.00781 112.549 8.00781 Z M 60.2051 -7.12891 C 65.1367 -7.12891 68.1641 -10.2051 68.1641 -15.5273 L 68.1641 -22.1191 L 73.7793 -28.418 L 86.5234 -11.084 C 88.623 -8.20312 90.5273 -7.12891 93.4082 -7.12891 C 97.8027 -7.12891 101.074 -10.2051 101.074 -14.3066 C 101.074 -16.3574 100.537 -17.8223 99.0723 -19.9219 L 85.5469 -37.9395 L 97.9492 -51.7578 C 99.6582 -53.7598 100.244 -55.127 100.244 -57.2754 C 100.244 -60.9375 96.9727 -63.7695 92.9199 -63.7695 C 90.2344 -63.7695 88.4766 -62.793 86.3281 -60.0586 L 68.7012 -39.7949 L 68.1641 -39.7949 L 68.1641 -54.9805 C 68.1641 -60.498 65.2344 -63.7695 60.2051 -63.7695 C 55.2246 -63.7695 52.3438 -60.5469 52.3438 -54.9805 L 52.3438 -15.918 C 52.3438 -10.3516 55.2246 -7.12891 60.2051 -7.12891 Z"/>
  </g>
  <g id="Bold-L" transform="matrix(1 0 0 1 2264.37 1556)">
   <path d="M 37.5 24.3652 L 113.721 24.3652 C 127.637 24.3652 135.156 16.8945 135.156 3.07617 L 135.156 -73.3887 C 135.156 -87.207 127.637 -94.7266 113.721 -94.7266 L 37.5 -94.7266 C 23.6328 -94.7266 16.0645 -87.2559 16.0645 -73.3887 L 16.0645 3.07617 C 16.0645 16.8945 23.6328 24.3652 37.5 24.3652 Z M 38.9648 9.91211 C 33.4473 9.91211 30.5176 7.17773 30.5176 1.41602 L 30.5176 -71.7285 C 30.5176 -77.5391 33.4473 -80.2734 38.9648 -80.2734 L 112.256 -80.2734 C 117.725 -80.2734 120.703 -77.5391 120.703 -71.7285 L 120.703 1.41602 C 120.703 7.17773 117.725 9.91211 112.256 9.91211 Z M 59.1309 -6.93359 C 63.2812 -6.93359 65.8203 -9.57031 65.8203 -14.0625 L 65.8203 -23.3887 L 72.2168 -30.3223 L 87.207 -10.2539 C 89.0137 -7.86133 90.625 -6.93359 93.0664 -6.93359 C 96.7773 -6.93359 99.5117 -9.52148 99.5117 -13.0371 C 99.5117 -14.7949 98.9746 -16.1621 97.7539 -17.8711 L 82.0801 -38.5254 L 96.4844 -53.9551 C 97.9492 -55.5664 98.4375 -56.8359 98.4375 -58.6426 C 98.4375 -61.7188 95.7031 -64.1602 92.2852 -64.1602 C 90.0391 -64.1602 88.5742 -63.3301 86.7676 -61.1328 L 66.3086 -38.8184 L 65.8203 -38.8184 L 65.8203 -56.7383 C 65.8203 -61.4258 63.3789 -64.1602 59.1309 -64.1602 C 54.9316 -64.1602 52.4902 -61.4258 52.4902 -56.7383 L 52.4902 -14.3555 C 52.4902 -9.66797 54.9316 -6.93359 59.1309 -6.93359 Z"/>
  </g>
  <g id="Semibold-L" transform="matrix(1 0 0 1 1968.44 1556)">
   <path d="M 36.6211 23.584 L 113.037 23.584 C 126.514 23.584 133.594 16.5039 133.594 3.17383 L 133.594 -73.5352 C 133.594 -86.8164 126.514 -93.9453 113.037 -93.9453 L 36.6211 -93.9453 C 23.1934 -93.9453 16.0645 -86.8652 16.0645 -73.5352 L 16.0645 3.17383 C 16.0645 16.5527 23.1934 23.584 36.6211 23.584 Z M 37.5977 11.2793 C 31.6406 11.2793 28.418 8.20312 28.418 1.95312 L 28.418 -72.3145 C 28.418 -78.5156 31.6406 -81.5918 37.5977 -81.5918 L 112.061 -81.5918 C 117.969 -81.5918 121.24 -78.5156 121.24 -72.3145 L 121.24 1.95312 C 121.24 8.20312 117.969 11.2793 112.061 11.2793 Z M 58.3496 -6.78711 C 62.0117 -6.78711 64.209 -9.13086 64.209 -13.0859 L 64.209 -24.2676 L 71.1426 -31.6406 L 87.6953 -9.7168 C 89.2578 -7.61719 90.6738 -6.78711 92.8223 -6.78711 C 96.0449 -6.78711 98.4375 -9.08203 98.4375 -12.1582 C 98.4375 -13.6719 97.9004 -14.9902 96.875 -16.4551 L 79.7363 -38.8672 L 95.459 -55.4199 C 96.7285 -56.8359 97.2168 -57.959 97.2168 -59.5703 C 97.2168 -62.3047 94.8242 -64.4043 91.8457 -64.4043 C 89.9414 -64.4043 88.6719 -63.7207 87.0605 -61.8652 L 64.6484 -38.0859 L 64.209 -38.0859 L 64.209 -57.959 C 64.209 -62.0117 62.0605 -64.4043 58.3496 -64.4043 C 54.7363 -64.4043 52.5879 -62.0117 52.5879 -57.959 L 52.5879 -13.2324 C 52.5879 -9.17969 54.7363 -6.78711 58.3496 -6.78711 Z"/>
  </g>
  <g id="Medium-L" transform="matrix(1 0 0 1 1672.31 1556)">
   <path d="M 35.9375 22.998 L 112.5 22.998 C 125.635 22.998 132.422 16.2109 132.422 3.27148 L 132.422 -73.6328 C 132.422 -86.5234 125.635 -93.3105 112.5 -93.3105 L 35.9375 -93.3105 C 22.9004 -93.3105 16.0645 -86.5723 16.0645 -73.6328 L 16.0645 3.27148 C 16.0645 16.2598 22.9004 22.998 35.9375 22.998 Z M 36.5723 12.2559 C 30.2246 12.2559 26.8066 8.98438 26.8066 2.39258 L 26.8066 -72.7051 C 26.8066 -79.2969 30.2246 -82.6172 36.5723 -82.6172 L 111.865 -82.6172 C 118.115 -82.6172 121.68 -79.2969 121.68 -72.7051 L 121.68 2.39258 C 121.68 8.98438 118.115 12.2559 111.865 12.2559 Z M 57.8125 -6.68945 C 61.084 -6.68945 62.9883 -8.78906 62.9883 -12.3047 L 62.9883 -24.9512 L 70.3613 -32.6172 L 88.0859 -9.27734 C 89.4531 -7.4707 90.7227 -6.68945 92.627 -6.68945 C 95.5078 -6.68945 97.6074 -8.69141 97.6074 -11.5234 C 97.6074 -12.8418 97.1191 -14.1113 96.1914 -15.3809 L 77.9297 -39.1602 L 94.7266 -56.5918 C 95.8496 -57.8125 96.2891 -58.8867 96.2891 -60.2539 C 96.2891 -62.6953 94.1895 -64.5996 91.5527 -64.5996 C 89.8438 -64.5996 88.7207 -64.0137 87.2559 -62.4023 L 63.3789 -37.5977 L 62.9883 -37.5977 L 62.9883 -58.8867 C 62.9883 -62.5 61.084 -64.5996 57.8125 -64.5996 C 54.5898 -64.5996 52.6855 -62.5 52.6855 -58.8867 L 52.6855 -12.4023 C 52.6855 -8.83789 54.5898 -6.68945 57.8125 -6.68945 Z"/>
  </g>
  <g id="Regular-L" transform="matrix(1 0 0 1 1376.38 1556)">
   <path d="M 35.0586 22.2168 L 111.816 22.2168 C 124.463 22.2168 130.859 15.8691 130.859 3.41797 L 130.859 -73.7305 C 130.859 -86.1816 124.463 -92.5293 111.816 -92.5293 L 35.0586 -92.5293 C 22.4609 -92.5293 16.0645 -86.2305 16.0645 -73.7305 L 16.0645 3.41797 C 16.0645 15.918 22.4609 22.2168 35.0586 22.2168 Z M 35.2539 13.5742 C 28.418 13.5742 24.707 9.96094 24.707 2.97852 L 24.707 -73.291 C 24.707 -80.2734 28.418 -83.8867 35.2539 -83.8867 L 111.67 -83.8867 C 118.359 -83.8867 122.217 -80.2734 122.217 -73.291 L 122.217 2.97852 C 122.217 9.96094 118.359 13.5742 111.67 13.5742 Z M 57.0312 -6.54297 C 59.8145 -6.54297 61.377 -8.34961 61.377 -11.3281 L 61.377 -25.8301 L 69.2871 -33.9355 L 88.5254 -8.74023 C 89.6973 -7.22656 90.8203 -6.5918 92.3828 -6.5918 C 94.8242 -6.5918 96.5332 -8.25195 96.5332 -10.6445 C 96.5332 -11.7676 96.0449 -12.9395 95.2637 -14.0137 L 75.5859 -39.5508 L 93.7012 -58.1055 C 94.6777 -59.082 95.0684 -60.0098 95.0684 -61.1816 C 95.0684 -63.2324 93.3105 -64.8438 91.1133 -64.8438 C 89.6973 -64.8438 88.7695 -64.4043 87.5488 -63.1348 L 61.7188 -36.9141 L 61.377 -36.9141 L 61.377 -60.0586 C 61.377 -63.0859 59.8145 -64.8438 57.0312 -64.8438 C 54.3945 -64.8438 52.7832 -63.0859 52.7832 -60.0586 L 52.7832 -11.3281 C 52.7832 -8.34961 54.3945 -6.54297 57.0312 -6.54297 Z"/>
  </g>
  <g id="Light-L" transform="matrix(1 0 0 1 1080.5 1556)">
   <path d="M 34.0332 21.4355 L 111.23 21.4355 C 123.096 21.4355 129.199 15.2344 129.199 3.56445 L 129.199 -73.8281 C 129.199 -85.5469 123.096 -91.6992 111.23 -91.6992 L 34.0332 -91.6992 C 22.168 -91.6992 16.0645 -85.6445 16.0645 -73.8281 L 16.0645 3.56445 C 16.0645 15.3809 22.168 21.4355 34.0332 21.4355 Z M 34.1797 14.7949 C 26.709 14.7949 22.7051 10.8398 22.7051 3.22266 L 22.7051 -73.4863 C 22.7051 -81.1523 26.709 -85.0586 34.1797 -85.0586 L 111.035 -85.0586 C 118.359 -85.0586 122.559 -81.1523 122.559 -73.4863 L 122.559 3.22266 C 122.559 10.8398 118.359 14.7949 111.035 14.7949 Z M 56.2012 -6.73828 C 58.3008 -6.73828 59.5703 -8.1543 59.5703 -10.3516 L 59.5703 -26.709 L 67.6758 -35.0098 L 88.1348 -8.54492 C 89.1602 -7.27539 89.9414 -6.78711 91.2598 -6.78711 C 93.1152 -6.78711 94.5312 -8.05664 94.5312 -9.96094 C 94.5312 -10.8887 94.043 -11.8164 93.457 -12.6465 L 72.5586 -39.4531 L 91.7969 -59.0332 C 92.5293 -59.8145 92.8711 -60.5469 92.8711 -61.4746 C 92.8711 -63.0371 91.5039 -64.3066 89.8438 -64.3066 C 88.6719 -64.3066 87.9883 -63.9648 86.9629 -62.8906 L 59.8633 -35.498 L 59.5703 -35.498 L 59.5703 -60.6445 C 59.5703 -62.9395 58.3008 -64.3066 56.2012 -64.3066 C 54.1504 -64.3066 52.8809 -62.9395 52.8809 -60.6445 L 52.8809 -10.3516 C 52.8809 -8.1543 54.1504 -6.73828 56.2012 -6.73828 Z"/>
  </g>
  <g id="Thin-L" transform="matrix(1 0 0 1 784.889 1556)">
   <path d="M 32.666 20.3613 L 110.352 20.3613 C 121.24 20.3613 127.002 14.4531 127.002 3.75977 L 127.002 -73.9746 C 127.002 -84.7168 121.24 -90.5762 110.352 -90.5762 L 32.666 -90.5762 C 21.7773 -90.5762 16.0645 -84.8633 16.0645 -73.9746 L 16.0645 3.75977 C 16.0645 14.6484 21.7773 20.3613 32.666 20.3613 Z M 32.8125 16.4062 C 24.4141 16.4062 19.9707 12.0117 19.9707 3.56445 L 19.9707 -73.7793 C 19.9707 -82.2754 24.4141 -86.6699 32.8125 -86.6699 L 110.205 -86.6699 C 118.359 -86.6699 123.047 -82.2754 123.047 -73.7793 L 123.047 3.56445 C 123.047 12.0117 118.359 16.4062 110.205 16.4062 Z M 55.0781 -6.98242 C 56.3477 -6.98242 57.0801 -7.86133 57.0801 -9.08203 L 57.0801 -27.8809 L 65.5273 -36.4258 L 87.6465 -8.30078 C 88.4277 -7.32422 88.8184 -7.03125 89.7949 -7.03125 C 90.918 -7.03125 91.8457 -7.8125 91.8457 -9.0332 C 91.8457 -9.76562 91.4062 -10.3516 91.0156 -10.8398 L 68.5547 -39.3066 L 89.3066 -60.2539 C 89.7461 -60.7422 89.9414 -61.2305 89.9414 -61.8164 C 89.9414 -62.7441 89.1113 -63.5254 88.1348 -63.5254 C 87.3047 -63.5254 86.9141 -63.3301 86.1816 -62.5977 L 57.373 -33.5938 L 57.0801 -33.5938 L 57.0801 -61.4258 C 57.0801 -62.7441 56.3477 -63.5254 55.0781 -63.5254 C 53.8574 -63.5254 53.0273 -62.7441 53.0273 -61.4258 L 53.0273 -9.08203 C 53.0273 -7.86133 53.8574 -6.98242 55.0781 -6.98242 Z"/>
  </g>
  <g id="Ultralight-L" transform="matrix(1 0 0 1 488.739 1556)">
   <path d="M 31.9824 19.7754 L 109.961 19.7754 C 120.312 19.7754 125.879 14.0625 125.879 3.85742 L 125.879 -74.0723 C 125.879 -84.2773 120.312 -89.9902 109.961 -89.9902 L 31.9824 -89.9902 C 21.582 -89.9902 16.0645 -84.4727 16.0645 -74.0723 L 16.0645 3.85742 C 16.0645 14.2578 21.582 19.7754 31.9824 19.7754 Z M 32.1289 17.2363 C 23.1934 17.2363 18.6035 12.6465 18.6035 3.75977 L 18.6035 -73.9258 C 18.6035 -82.8125 23.1934 -87.4512 32.1289 -87.4512 L 109.766 -87.4512 C 118.359 -87.4512 123.291 -82.8125 123.291 -73.9258 L 123.291 3.75977 C 123.291 12.6465 118.359 17.2363 109.766 17.2363 Z M 54.4922 -7.08008 C 55.3223 -7.08008 55.8594 -7.71484 55.8594 -8.39844 L 55.8594 -28.4668 L 64.4531 -37.1582 L 87.3535 -8.20312 C 88.0371 -7.37305 88.2812 -7.17773 89.0625 -7.17773 C 89.7461 -7.17773 90.4297 -7.71484 90.4297 -8.59375 C 90.4297 -9.17969 90.0391 -9.57031 89.7949 -9.91211 L 66.5039 -39.2578 L 87.9883 -60.8887 C 88.3301 -61.2305 88.4766 -61.5723 88.4766 -61.9629 C 88.4766 -62.6465 87.8906 -63.1348 87.2559 -63.1348 C 86.5723 -63.1348 86.3281 -63.0371 85.791 -62.4512 L 56.1035 -32.6172 L 55.8594 -32.6172 L 55.8594 -61.8652 C 55.8594 -62.6465 55.3223 -63.1348 54.4922 -63.1348 C 53.7109 -63.1348 53.125 -62.6465 53.125 -61.8652 L 53.125 -8.39844 C 53.125 -7.71484 53.7109 -7.08008 54.4922 -7.08008 Z"/>
  </g>
  <g id="Black-M" transform="matrix(1 0 0 1 2872.19 1126)">
   <path d="M 31.9824 13.5742 L 90.4297 13.5742 C 102.686 13.5742 109.961 6.29883 109.961 -5.95703 L 109.961 -64.4043 C 109.961 -76.6602 102.686 -83.9355 90.4297 -83.9355 L 31.9824 -83.9355 C 19.7266 -83.9355 12.4512 -76.6602 12.4512 -64.4043 L 12.4512 -5.95703 C 12.4512 6.29883 19.7266 13.5742 31.9824 13.5742 Z M 34.9121 -4.73633 C 32.0801 -4.73633 30.7617 -5.81055 30.7617 -8.88672 L 30.7617 -61.4746 C 30.7617 -64.5508 32.0801 -65.6738 34.9121 -65.6738 L 87.5 -65.6738 C 90.332 -65.6738 91.6504 -64.5508 91.6504 -61.4746 L 91.6504 -8.88672 C 91.6504 -5.81055 90.332 -4.73633 87.5 -4.73633 Z M 48.291 -13.916 C 53.1738 -13.916 56.2988 -16.9434 56.2988 -22.168 L 56.2988 -23.0957 L 59.2773 -26.9043 L 65.5273 -17.9199 C 67.6758 -14.9902 69.4824 -13.916 72.4609 -13.916 C 76.8555 -13.916 80.2246 -16.9922 80.2246 -21.0938 C 80.2246 -23.1445 79.7852 -24.3652 78.2715 -26.5137 L 71.1914 -36.2793 L 77.6367 -44.3848 C 79.3945 -46.4355 79.9316 -47.7051 79.9316 -49.9023 C 79.9316 -53.5645 76.5625 -56.3477 72.5098 -56.3477 C 69.7266 -56.3477 67.9688 -55.2734 65.8203 -52.3438 L 56.7871 -39.8926 L 56.2988 -39.8926 L 56.2988 -47.5098 C 56.2988 -53.0762 53.3691 -56.3477 48.291 -56.3477 C 43.2129 -56.3477 40.332 -53.125 40.332 -47.5098 L 40.332 -22.7051 C 40.332 -17.1387 43.2129 -13.916 48.291 -13.916 Z"/>
  </g>
  <g id="Heavy-M" transform="matrix(1 0 0 1 2576.39 1126)">
   <path d="M 31.0059 12.6465 L 89.6484 12.6465 C 101.416 12.6465 108.154 5.9082 108.154 -5.81055 L 108.154 -64.5508 C 108.154 -76.2695 101.416 -83.0566 89.6484 -83.0566 L 31.0059 -83.0566 C 19.2383 -83.0566 12.4512 -76.3184 12.4512 -64.5508 L 12.4512 -5.81055 C 12.4512 5.9082 19.2383 12.6465 31.0059 12.6465 Z M 33.252 -3.17383 C 29.9316 -3.17383 28.2715 -4.63867 28.2715 -8.1543 L 28.2715 -62.207 C 28.2715 -65.7715 29.9316 -67.2363 33.252 -67.2363 L 87.3535 -67.2363 C 90.6738 -67.2363 92.334 -65.7715 92.334 -62.207 L 92.334 -8.1543 C 92.334 -4.63867 90.6738 -3.17383 87.3535 -3.17383 Z M 47.4609 -13.6719 C 51.7578 -13.6719 54.4922 -16.3574 54.4922 -20.9961 L 54.4922 -24.1211 L 58.2031 -28.4668 L 66.3086 -17.1875 C 68.2129 -14.6484 69.8242 -13.6719 72.4121 -13.6719 C 76.3184 -13.6719 79.1992 -16.4062 79.1992 -20.0195 C 79.1992 -21.8262 78.8086 -22.998 77.4902 -24.8535 L 68.6035 -36.8164 L 76.709 -46.2891 C 78.2715 -48.0469 78.7598 -49.2188 78.7598 -51.1719 C 78.7598 -54.3945 75.8301 -56.8359 72.2168 -56.8359 C 69.8242 -56.8359 68.2617 -55.9082 66.3574 -53.418 L 54.9316 -39.3066 L 54.4922 -39.3066 L 54.4922 -49.0723 C 54.4922 -53.9551 51.9043 -56.8359 47.4609 -56.8359 C 42.9688 -56.8359 40.4297 -54.0039 40.4297 -49.0723 L 40.4297 -21.4355 C 40.4297 -16.5039 42.9688 -13.6719 47.4609 -13.6719 Z"/>
  </g>
  <g id="Bold-M" transform="matrix(1 0 0 1 2280.68 1126)">
   <path d="M 29.8828 11.6699 L 88.7207 11.6699 C 99.9512 11.6699 106.152 5.46875 106.152 -5.66406 L 106.152 -64.6973 C 106.152 -75.8789 99.9512 -82.0312 88.7207 -82.0312 L 29.8828 -82.0312 C 18.6523 -82.0312 12.4512 -75.8789 12.4512 -64.6973 L 12.4512 -5.66406 C 12.4512 5.51758 18.6523 11.6699 29.8828 11.6699 Z M 31.3965 -1.41602 C 27.5391 -1.41602 25.5371 -3.27148 25.5371 -7.32422 L 25.5371 -63.0371 C 25.5371 -67.1387 27.5391 -68.9453 31.3965 -68.9453 L 87.207 -68.9453 C 91.0156 -68.9453 93.0664 -67.1387 93.0664 -63.0371 L 93.0664 -7.32422 C 93.0664 -3.27148 91.0156 -1.41602 87.207 -1.41602 Z M 46.4844 -13.4277 C 50.1953 -13.4277 52.4902 -15.7227 52.4902 -19.7266 L 52.4902 -25.2441 L 56.9336 -30.2734 L 67.1875 -16.3574 C 68.75 -14.2578 70.166 -13.4277 72.3633 -13.4277 C 75.6348 -13.4277 78.0762 -15.7227 78.0762 -18.7988 C 78.0762 -20.3613 77.6855 -21.4844 76.5625 -22.998 L 65.7227 -37.4512 L 75.6836 -48.3887 C 77.002 -49.8535 77.4414 -50.9277 77.4414 -52.5391 C 77.4414 -55.3223 74.9512 -57.4219 71.9238 -57.4219 C 69.9219 -57.4219 68.6035 -56.6895 66.9922 -54.6387 L 52.8809 -38.623 L 52.4902 -38.623 L 52.4902 -50.8301 C 52.4902 -54.9805 50.293 -57.4219 46.4844 -57.4219 C 42.7246 -57.4219 40.5762 -55.0293 40.5762 -50.8301 L 40.5762 -20.0195 C 40.5762 -15.8203 42.7246 -13.4277 46.4844 -13.4277 Z"/>
  </g>
  <g id="Semibold-M" transform="matrix(1 0 0 1 1984.65 1126)">
   <path d="M 29.1016 10.9863 L 88.0859 10.9863 C 98.9746 10.9863 104.785 5.17578 104.785 -5.56641 L 104.785 -64.8438 C 104.785 -75.5859 98.9746 -81.3477 88.0859 -81.3477 L 29.1016 -81.3477 C 18.2617 -81.3477 12.4512 -75.5859 12.4512 -64.8438 L 12.4512 -5.56641 C 12.4512 5.22461 18.2617 10.9863 29.1016 10.9863 Z M 30.127 -0.195312 C 25.8789 -0.195312 23.6328 -2.34375 23.6328 -6.78711 L 23.6328 -63.623 C 23.6328 -68.0664 25.8789 -70.166 30.127 -70.166 L 87.1094 -70.166 C 91.2598 -70.166 93.6035 -68.0664 93.6035 -63.623 L 93.6035 -6.78711 C 93.6035 -2.34375 91.2598 -0.195312 87.1094 -0.195312 Z M 45.8496 -13.2324 C 49.1211 -13.2324 51.0742 -15.2832 51.0742 -18.8477 L 51.0742 -26.0254 L 56.1035 -31.4941 L 67.7734 -15.8203 C 69.1406 -13.9648 70.4102 -13.2324 72.3145 -13.2324 C 75.1953 -13.2324 77.3438 -15.2344 77.3438 -18.0176 C 77.3438 -19.3359 76.9043 -20.4102 75.9766 -21.7773 L 63.7695 -37.8906 L 74.9512 -49.8535 C 76.123 -51.123 76.5137 -52.0996 76.5137 -53.5156 C 76.5137 -55.957 74.3652 -57.8125 71.7285 -57.8125 C 69.9707 -57.8125 68.8477 -57.1777 67.4316 -55.5176 L 51.416 -38.1348 L 51.0742 -38.1348 L 51.0742 -52.0508 C 51.0742 -55.6641 49.1699 -57.8125 45.8496 -57.8125 C 42.5781 -57.8125 40.6738 -55.7129 40.6738 -52.0508 L 40.6738 -18.9941 C 40.6738 -15.332 42.5781 -13.2324 45.8496 -13.2324 Z"/>
  </g>
  <g id="Medium-M" transform="matrix(1 0 0 1 1688.47 1126)">
   <path d="M 28.5156 10.4492 L 87.6465 10.4492 C 98.2422 10.4492 103.711 4.98047 103.711 -5.46875 L 103.711 -64.8926 C 103.711 -75.3418 98.2422 -80.8105 87.6465 -80.8105 L 28.5156 -80.8105 C 17.9688 -80.8105 12.4512 -75.3906 12.4512 -64.8926 L 12.4512 -5.46875 C 12.4512 4.98047 17.9688 10.4492 28.5156 10.4492 Z M 29.1504 0.732422 C 24.6582 0.732422 22.168 -1.61133 22.168 -6.34766 L 22.168 -64.0137 C 22.168 -68.75 24.6582 -71.0938 29.1504 -71.0938 L 87.0117 -71.0938 C 91.4551 -71.0938 93.9941 -68.75 93.9941 -64.0137 L 93.9941 -6.34766 C 93.9941 -1.61133 91.4551 0.732422 87.0117 0.732422 Z M 45.3613 -13.0859 C 48.291 -13.0859 50 -14.9414 50 -18.1641 L 50 -26.6602 L 55.4688 -32.4219 L 68.2617 -15.3809 C 69.4336 -13.7695 70.6055 -13.0859 72.2656 -13.0859 C 74.8535 -13.0859 76.7578 -14.8926 76.7578 -17.3828 C 76.7578 -18.5547 76.3184 -19.6289 75.4883 -20.8008 L 62.2559 -38.1836 L 74.4141 -50.9766 C 75.4395 -52.0508 75.8301 -52.9785 75.8301 -54.248 C 75.8301 -56.4453 73.9258 -58.1055 71.5332 -58.1055 C 70.0195 -58.1055 69.043 -57.6172 67.7734 -56.1523 L 50.3418 -37.793 L 50 -37.793 L 50 -52.9297 C 50 -56.2012 48.291 -58.1055 45.3613 -58.1055 C 42.4316 -58.1055 40.7227 -56.2012 40.7227 -52.9297 L 40.7227 -18.2617 C 40.7227 -14.9902 42.4316 -13.0859 45.3613 -13.0859 Z"/>
  </g>
  <g id="Regular-M" transform="matrix(1 0 0 1 1392.45 1126)">
   <path d="M 27.7832 9.76562 L 87.0117 9.76562 C 97.2656 9.76562 102.344 4.6875 102.344 -5.37109 L 102.344 -64.9902 C 102.344 -75.0488 97.2656 -80.127 87.0117 -80.127 L 27.7832 -80.127 C 17.5781 -80.127 12.4512 -75.0977 12.4512 -64.9902 L 12.4512 -5.37109 C 12.4512 4.73633 17.5781 9.76562 27.7832 9.76562 Z M 27.8809 1.9043 C 22.998 1.9043 20.3125 -0.683594 20.3125 -5.76172 L 20.3125 -64.5996 C 20.3125 -69.6777 22.998 -72.2656 27.8809 -72.2656 L 86.9141 -72.2656 C 91.748 -72.2656 94.4824 -69.6777 94.4824 -64.5996 L 94.4824 -5.76172 C 94.4824 -0.683594 91.748 1.9043 86.9141 1.9043 Z M 44.6777 -12.8906 C 47.2168 -12.8906 48.6328 -14.5508 48.6328 -17.2852 L 48.6328 -27.4414 L 54.5898 -33.5938 L 68.8477 -14.7949 C 69.8242 -13.4766 70.8496 -12.8906 72.2168 -12.8906 C 74.4141 -12.8906 75.9766 -14.4531 75.9766 -16.5527 C 75.9766 -17.5293 75.5859 -18.6035 74.9023 -19.5312 L 60.3027 -38.623 L 73.7305 -52.3926 C 74.5605 -53.3203 74.9023 -54.1504 74.9023 -55.2246 C 74.9023 -57.0312 73.3398 -58.5449 71.3379 -58.5449 C 70.1172 -58.5449 69.2871 -58.1055 68.1641 -56.9824 L 48.9258 -37.3535 L 48.6328 -37.3535 L 48.6328 -54.1504 C 48.6328 -56.8848 47.2168 -58.5449 44.6777 -58.5449 C 42.2852 -58.5449 40.8203 -56.8848 40.8203 -54.1504 L 40.8203 -17.2852 C 40.8203 -14.5508 42.2852 -12.8906 44.6777 -12.8906 Z"/>
  </g>
  <g id="Light-M" transform="matrix(1 0 0 1 1096.47 1126)">
   <path d="M 26.8555 9.0332 L 86.4746 9.0332 C 95.9961 9.0332 100.879 4.15039 100.879 -5.22461 L 100.879 -65.0879 C 100.879 -74.5117 95.9961 -79.3945 86.4746 -79.3945 L 26.8555 -79.3945 C 17.334 -79.3945 12.4512 -74.5605 12.4512 -65.0879 L 12.4512 -5.22461 C 12.4512 4.19922 17.334 9.0332 26.8555 9.0332 Z M 26.9531 2.97852 C 21.4844 2.97852 18.5059 0.0976562 18.5059 -5.56641 L 18.5059 -64.7949 C 18.5059 -70.4102 21.4844 -73.3398 26.9531 -73.3398 L 86.3281 -73.3398 C 91.748 -73.3398 94.8242 -70.4102 94.8242 -64.7949 L 94.8242 -5.56641 C 94.8242 0.0976562 91.748 2.97852 86.3281 2.97852 Z M 43.9453 -13.0859 C 45.8496 -13.0859 46.9727 -14.3555 46.9727 -16.4062 L 46.9727 -28.2227 L 53.1738 -34.5703 L 68.5059 -14.6484 C 69.3359 -13.5254 70.1172 -13.0859 71.2402 -13.0859 C 72.9004 -13.0859 74.1699 -14.2578 74.1699 -15.9668 C 74.1699 -16.748 73.7793 -17.5781 73.2422 -18.3105 L 57.5684 -38.5254 L 72.0215 -53.2715 C 72.6562 -53.9551 72.9492 -54.5898 72.9492 -55.4199 C 72.9492 -56.8848 71.7285 -58.0078 70.166 -58.0078 C 69.1895 -58.0078 68.5547 -57.7148 67.6758 -56.7871 L 47.2168 -36.0352 L 46.9727 -36.0352 L 46.9727 -54.6875 C 46.9727 -56.7871 45.8496 -58.0078 43.9453 -58.0078 C 42.0898 -58.0078 40.918 -56.7871 40.918 -54.6875 L 40.918 -16.4062 C 40.918 -14.3555 42.0898 -13.0859 43.9453 -13.0859 Z"/>
  </g>
  <g id="Thin-M" transform="matrix(1 0 0 1 800.758 1126)">
   <path d="M 25.6348 8.05664 L 85.7422 8.05664 C 94.3848 8.05664 98.877 3.4668 98.877 -5.0293 L 98.877 -65.2344 C 98.877 -73.7305 94.3848 -78.3691 85.7422 -78.3691 L 25.6348 -78.3691 C 16.9922 -78.3691 12.4512 -73.877 12.4512 -65.2344 L 12.4512 -5.0293 C 12.4512 3.56445 16.9922 8.05664 25.6348 8.05664 Z M 25.7324 4.44336 C 19.3848 4.44336 16.0645 1.12305 16.0645 -5.22461 L 16.0645 -65.0391 C 16.0645 -71.4355 19.3848 -74.7559 25.7324 -74.7559 L 85.5957 -74.7559 C 91.748 -74.7559 95.2637 -71.4355 95.2637 -65.0391 L 95.2637 -5.22461 C 95.2637 1.12305 91.748 4.44336 85.5957 4.44336 Z M 42.9199 -13.2812 C 44.0918 -13.2812 44.7754 -14.0625 44.7754 -15.2344 L 44.7754 -29.2969 L 51.2695 -35.8398 L 68.0176 -14.4043 C 68.7012 -13.623 69.0918 -13.3301 69.9219 -13.3301 C 70.9473 -13.3301 71.7285 -14.0625 71.7285 -15.1367 C 71.7285 -15.7227 71.4355 -16.2598 71.0938 -16.6992 L 54.0039 -38.4277 L 69.7266 -54.3457 C 70.166 -54.7852 70.3613 -55.2246 70.3613 -55.7617 C 70.3613 -56.6406 69.5801 -57.3242 68.6523 -57.3242 C 67.9688 -57.3242 67.5781 -57.1289 66.9434 -56.4941 L 44.9707 -34.375 L 44.7754 -34.375 L 44.7754 -55.3711 C 44.7754 -56.5918 44.0918 -57.3242 42.9199 -57.3242 C 41.7969 -57.3242 41.0645 -56.5918 41.0645 -55.3711 L 41.0645 -15.2344 C 41.0645 -14.0625 41.7969 -13.2812 42.9199 -13.2812 Z"/>
  </g>
  <g id="Ultralight-M" transform="matrix(1 0 0 1 504.535 1126)">
   <path d="M 25 7.56836 L 85.3516 7.56836 C 93.5059 7.56836 97.9004 3.125 97.9004 -4.98047 L 97.9004 -65.2832 C 97.9004 -73.3887 93.5059 -77.832 85.3516 -77.832 L 25 -77.832 C 16.7969 -77.832 12.4512 -73.4863 12.4512 -65.2832 L 12.4512 -4.98047 C 12.4512 3.22266 16.7969 7.56836 25 7.56836 Z M 25.0977 5.17578 C 18.3594 5.17578 14.8438 1.66016 14.8438 -5.07812 L 14.8438 -65.1855 C 14.8438 -71.9727 18.3594 -75.4395 25.0977 -75.4395 L 85.2051 -75.4395 C 91.748 -75.4395 95.5078 -71.9727 95.5078 -65.1855 L 95.5078 -5.07812 C 95.5078 1.66016 91.748 5.17578 85.2051 5.17578 Z M 42.3828 -13.3789 C 43.1641 -13.3789 43.6523 -13.916 43.6523 -14.6484 L 43.6523 -29.834 L 50.293 -36.4746 L 67.7734 -14.3066 C 68.3594 -13.623 68.5547 -13.4766 69.2383 -13.4766 C 69.9219 -13.4766 70.5078 -13.916 70.5078 -14.7461 C 70.5078 -15.2344 70.2148 -15.5762 69.9707 -15.8691 L 52.1484 -38.3789 L 68.6035 -54.9316 C 68.8965 -55.2246 68.9941 -55.5176 68.9941 -55.9082 C 68.9941 -56.4941 68.457 -56.9824 67.8711 -56.9824 C 67.334 -56.9824 67.0898 -56.8848 66.6016 -56.3965 L 43.8477 -33.4961 L 43.6523 -33.4961 L 43.6523 -55.7129 C 43.6523 -56.4941 43.1641 -56.9824 42.3828 -56.9824 C 41.6992 -56.9824 41.1621 -56.4941 41.1621 -55.7129 L 41.1621 -14.6484 C 41.1621 -13.916 41.6992 -13.3789 42.3828 -13.3789 Z"/>
  </g>
  <g id="Black-S" transform="matrix(1 0 0 1 2885.5 696)">
   <path d="M 25 2.92969 L 70.8008 2.92969 C 80.3711 2.92969 86.0352 -2.73438 86.0352 -12.3047 L 86.0352 -58.1055 C 86.0352 -67.6758 80.3711 -73.3398 70.8008 -73.3398 L 25 -73.3398 C 15.4297 -73.3398 9.76562 -67.6758 9.76562 -58.1055 L 9.76562 -12.3047 C 9.76562 -2.73438 15.4297 2.92969 25 2.92969 Z M 27.2461 -11.2305 C 25 -11.2305 23.9258 -12.1094 23.9258 -14.5508 L 23.9258 -55.8594 C 23.9258 -58.3008 25 -59.1797 27.2461 -59.1797 L 68.5547 -59.1797 C 70.8008 -59.1797 71.875 -58.3008 71.875 -55.8594 L 71.875 -14.5508 C 71.875 -12.1094 70.8008 -11.2305 68.5547 -11.2305 Z M 37.793 -18.5059 C 41.5527 -18.5059 43.9941 -20.8496 43.9941 -24.9023 L 43.9941 -25.7812 L 46.3867 -28.8086 L 51.416 -21.6309 C 53.0762 -19.3359 54.4922 -18.5059 56.7871 -18.5059 C 60.2051 -18.5059 62.793 -20.8984 62.793 -24.0723 C 62.793 -25.6836 62.4512 -26.6113 61.2793 -28.2715 L 55.6152 -36.084 L 60.791 -42.5293 C 62.1582 -44.1406 62.5488 -45.1172 62.5488 -46.8262 C 62.5488 -49.6582 59.9609 -51.8066 56.7871 -51.8066 C 54.6387 -51.8066 53.2715 -50.9766 51.6113 -48.7305 L 44.3848 -38.8672 L 43.9941 -38.8672 L 43.9941 -44.9707 C 43.9941 -49.2676 41.6992 -51.8066 37.793 -51.8066 C 33.8379 -51.8066 31.5918 -49.3164 31.5918 -44.9707 L 31.5918 -25.3418 C 31.5918 -20.9961 33.8379 -18.5059 37.793 -18.5059 Z"/>
  </g>
  <g id="Heavy-S" transform="matrix(1 0 0 1 2589.4 696)">
   <path d="M 24.3652 2.34375 L 70.2637 2.34375 C 79.541 2.34375 84.8145 -2.97852 84.8145 -12.207 L 84.8145 -58.2031 C 84.8145 -67.4316 79.541 -72.7539 70.2637 -72.7539 L 24.3652 -72.7539 C 15.0879 -72.7539 9.76562 -67.4316 9.76562 -58.2031 L 9.76562 -12.207 C 9.76562 -2.97852 15.0879 2.34375 24.3652 2.34375 Z M 26.0742 -10.1562 C 23.5352 -10.1562 22.2656 -11.2793 22.2656 -14.0137 L 22.2656 -56.3965 C 22.2656 -59.1309 23.5352 -60.2539 26.0742 -60.2539 L 68.5059 -60.2539 C 71.0449 -60.2539 72.3633 -59.1309 72.3633 -56.3965 L 72.3633 -14.0137 C 72.3633 -11.2793 71.0449 -10.1562 68.5059 -10.1562 Z M 37.207 -18.3105 C 40.625 -18.3105 42.7734 -20.459 42.7734 -24.1211 L 42.7734 -26.4648 L 45.7031 -29.9316 L 52.0508 -21.0938 C 53.5156 -19.043 54.834 -18.3105 56.8359 -18.3105 C 59.9121 -18.3105 62.207 -20.459 62.207 -23.3398 C 62.207 -24.7559 61.9141 -25.6836 60.8398 -27.1484 L 53.9551 -36.5234 L 60.2539 -43.8965 C 61.4746 -45.3125 61.8652 -46.2402 61.8652 -47.7539 C 61.8652 -50.293 59.5703 -52.2461 56.6895 -52.2461 C 54.834 -52.2461 53.6133 -51.5137 52.0996 -49.6094 L 43.1641 -38.5254 L 42.7734 -38.5254 L 42.7734 -46.0938 C 42.7734 -50 40.7227 -52.2461 37.207 -52.2461 C 33.6914 -52.2461 31.6895 -50 31.6895 -46.0938 L 31.6895 -24.4629 C 31.6895 -20.5566 33.6914 -18.3105 37.207 -18.3105 Z"/>
  </g>
  <g id="Bold-S" transform="matrix(1 0 0 1 2293.35 696)">
   <path d="M 23.6328 1.66016 L 69.6289 1.66016 C 78.6133 1.66016 83.4961 -3.22266 83.4961 -12.1094 L 83.4961 -58.3008 C 83.4961 -67.1875 78.6133 -72.0703 69.6289 -72.0703 L 23.6328 -72.0703 C 14.6973 -72.0703 9.76562 -67.1875 9.76562 -58.3008 L 9.76562 -12.1094 C 9.76562 -3.22266 14.6973 1.66016 23.6328 1.66016 Z M 24.8047 -8.93555 C 21.9238 -8.93555 20.3613 -10.3516 20.3613 -13.4277 L 20.3613 -56.9824 C 20.3613 -60.0586 21.9238 -61.4746 24.8047 -61.4746 L 68.457 -61.4746 C 71.3379 -61.4746 72.9004 -60.0586 72.9004 -56.9824 L 72.9004 -13.4277 C 72.9004 -10.3516 71.3379 -8.93555 68.457 -8.93555 Z M 36.5723 -18.0664 C 39.5996 -18.0664 41.4551 -19.9707 41.4551 -23.2422 L 41.4551 -27.2461 L 44.9219 -31.1523 L 52.7344 -20.459 C 54.0039 -18.75 55.1758 -18.0664 56.9336 -18.0664 C 59.6191 -18.0664 61.6211 -19.9707 61.6211 -22.5098 C 61.6211 -23.7305 61.2793 -24.6582 60.3516 -25.9277 L 52.0996 -37.0117 L 59.668 -45.4102 C 60.7422 -46.6309 61.084 -47.4609 61.084 -48.7793 C 61.084 -51.0254 59.082 -52.7832 56.6406 -52.7832 C 55.0293 -52.7832 53.9551 -52.1484 52.6367 -50.5371 L 41.748 -38.1836 L 41.4551 -38.1836 L 41.4551 -47.3633 C 41.4551 -50.7812 39.6484 -52.7832 36.5723 -52.7832 C 33.5449 -52.7832 31.7871 -50.7812 31.7871 -47.3633 L 31.7871 -23.4863 C 31.7871 -20.0684 33.5449 -18.0664 36.5723 -18.0664 Z"/>
  </g>
  <g id="Semibold-S" transform="matrix(1 0 0 1 1997.1 696)">
   <path d="M 23.0957 1.17188 L 69.1895 1.17188 C 77.9297 1.17188 82.5684 -3.36914 82.5684 -12.0117 L 82.5684 -58.3984 C 82.5684 -67.041 77.9297 -71.582 69.1895 -71.582 L 23.0957 -71.582 C 14.4043 -71.582 9.76562 -67.041 9.76562 -58.3984 L 9.76562 -12.0117 C 9.76562 -3.36914 14.4043 1.17188 23.0957 1.17188 Z M 23.877 -8.10547 C 20.752 -8.10547 19.0918 -9.7168 19.0918 -12.9883 L 19.0918 -57.4219 C 19.0918 -60.6934 20.752 -62.3047 23.877 -62.3047 L 68.4082 -62.3047 C 71.5332 -62.3047 73.2422 -60.6934 73.2422 -57.4219 L 73.2422 -12.9883 C 73.2422 -9.7168 71.5332 -8.10547 68.4082 -8.10547 Z M 36.1328 -17.9199 C 38.8672 -17.9199 40.5273 -19.6777 40.5273 -22.6562 L 40.5273 -27.7832 L 44.3848 -32.0312 L 53.2227 -20.0684 C 54.3457 -18.5547 55.4199 -17.9199 56.9824 -17.9199 C 59.4238 -17.9199 61.1816 -19.6289 61.1816 -21.9238 C 61.1816 -22.998 60.8398 -23.9258 60.0586 -25.0488 L 50.7812 -37.3535 L 59.2773 -46.4355 C 60.2051 -47.5098 60.5957 -48.3398 60.5957 -49.5117 C 60.5957 -51.5137 58.7891 -53.125 56.543 -53.125 C 55.127 -53.125 54.1992 -52.5879 53.0273 -51.2207 L 40.8203 -37.9395 L 40.5273 -37.9395 L 40.5273 -48.2422 C 40.5273 -51.3184 38.916 -53.125 36.1328 -53.125 C 33.3984 -53.125 31.8359 -51.3184 31.8359 -48.2422 L 31.8359 -22.8027 C 31.8359 -19.7266 33.3984 -17.9199 36.1328 -17.9199 Z"/>
  </g>
  <g id="Medium-S" transform="matrix(1 0 0 1 1700.75 696)">
   <path d="M 22.7051 0.830078 L 68.8965 0.830078 C 77.4414 0.830078 81.8359 -3.51562 81.8359 -11.9629 L 81.8359 -58.4473 C 81.8359 -66.8945 77.4414 -71.2402 68.8965 -71.2402 L 22.7051 -71.2402 C 14.209 -71.2402 9.76562 -66.8945 9.76562 -58.4473 L 9.76562 -11.9629 C 9.76562 -3.51562 14.209 0.830078 22.7051 0.830078 Z M 23.1934 -7.4707 C 19.9219 -7.4707 18.0664 -9.22852 18.0664 -12.6953 L 18.0664 -57.7148 C 18.0664 -61.1816 19.9219 -62.9395 23.1934 -62.9395 L 68.4082 -62.9395 C 71.6797 -62.9395 73.5352 -61.1816 73.5352 -57.7148 L 73.5352 -12.6953 C 73.5352 -9.22852 71.6797 -7.4707 68.4082 -7.4707 Z M 35.791 -17.8223 C 38.3301 -17.8223 39.8438 -19.4336 39.8438 -22.168 L 39.8438 -28.2227 L 43.9941 -32.666 L 53.6133 -19.7266 C 54.6387 -18.3594 55.6152 -17.8223 57.0312 -17.8223 C 59.2285 -17.8223 60.8398 -19.3359 60.8398 -21.4844 C 60.8398 -22.4609 60.498 -23.3887 59.7656 -24.4141 L 49.8047 -37.5977 L 58.9844 -47.2656 C 59.8145 -48.1934 60.1562 -48.9746 60.1562 -50.0488 C 60.1562 -51.9043 58.5449 -53.3691 56.543 -53.3691 C 55.2246 -53.3691 54.3945 -52.9297 53.3203 -51.709 L 40.0879 -37.7441 L 39.8438 -37.7441 L 39.8438 -48.9258 C 39.8438 -51.709 38.3789 -53.3691 35.791 -53.3691 C 33.3496 -53.3691 31.8848 -51.7578 31.8848 -48.9258 L 31.8848 -22.2656 C 31.8848 -19.4336 33.3496 -17.8223 35.791 -17.8223 Z"/>
  </g>
  <g id="Regular-S" transform="matrix(1 0 0 1 1404.51 696)">
   <path d="M 22.2168 0.390625 L 68.457 0.390625 C 76.8066 0.390625 80.9082 -3.71094 80.9082 -11.9141 L 80.9082 -58.4961 C 80.9082 -66.6992 76.8066 -70.8008 68.457 -70.8008 L 22.2168 -70.8008 C 13.916 -70.8008 9.76562 -66.6992 9.76562 -58.4961 L 9.76562 -11.9141 C 9.76562 -3.71094 13.916 0.390625 22.2168 0.390625 Z M 22.3145 -6.68945 C 18.7988 -6.68945 16.7969 -8.54492 16.7969 -12.2559 L 16.7969 -58.1543 C 16.7969 -61.8164 18.7988 -63.7207 22.3145 -63.7207 L 68.3594 -63.7207 C 71.875 -63.7207 73.877 -61.8164 73.877 -58.1543 L 73.877 -12.2559 C 73.877 -8.54492 71.875 -6.68945 68.3594 -6.68945 Z M 35.4004 -17.6758 C 37.6465 -17.6758 38.916 -19.0918 38.916 -21.582 L 38.916 -28.7598 L 43.457 -33.4961 L 54.1016 -19.2871 C 54.9316 -18.1641 55.9082 -17.6758 57.0801 -17.6758 C 59.0332 -17.6758 60.4004 -18.9941 60.4004 -20.8984 C 60.4004 -21.7773 60.0586 -22.7051 59.4727 -23.5352 L 48.5352 -37.9395 L 58.5938 -48.291 C 59.3262 -49.0723 59.668 -49.8047 59.668 -50.7812 C 59.668 -52.3926 58.252 -53.7109 56.4453 -53.7109 C 55.3711 -53.7109 54.6387 -53.3691 53.6621 -52.3438 L 39.1602 -37.5 L 38.916 -37.5 L 38.916 -49.8047 C 38.916 -52.2949 37.6465 -53.7109 35.4004 -53.7109 C 33.2031 -53.7109 31.9336 -52.2949 31.9336 -49.8047 L 31.9336 -21.582 C 31.9336 -19.0918 33.2031 -17.6758 35.4004 -17.6758 Z"/>
  </g>
  <g id="Light-S" transform="matrix(1 0 0 1 1108.46 696)">
   <path d="M 21.3867 -0.292969 L 67.9688 -0.292969 C 75.7324 -0.292969 79.5898 -4.15039 79.5898 -11.7676 L 79.5898 -58.5938 C 79.5898 -66.2109 75.7324 -70.1172 67.9688 -70.1172 L 21.3867 -70.1172 C 13.6719 -70.1172 9.76562 -66.2598 9.76562 -58.5938 L 9.76562 -11.7676 C 9.76562 -4.15039 13.6719 -0.292969 21.3867 -0.292969 Z M 21.4844 -5.71289 C 17.4316 -5.71289 15.1855 -7.86133 15.1855 -12.0605 L 15.1855 -58.3008 C 15.1855 -62.5 17.4316 -64.6973 21.4844 -64.6973 L 67.8711 -64.6973 C 71.875 -64.6973 74.1699 -62.5 74.1699 -58.3008 L 74.1699 -12.0605 C 74.1699 -7.86133 71.875 -5.71289 67.8711 -5.71289 Z M 34.7168 -17.8223 C 36.4258 -17.8223 37.4512 -18.9453 37.4512 -20.8008 L 37.4512 -29.4434 L 42.1875 -34.3262 L 53.8086 -19.1406 C 54.4922 -18.2129 55.2246 -17.8223 56.2012 -17.8223 C 57.7148 -17.8223 58.7891 -18.8477 58.7891 -20.3613 C 58.7891 -21.0449 58.4961 -21.7773 58.0078 -22.4609 L 46.1426 -37.8418 L 57.0801 -49.0234 C 57.666 -49.6582 57.9102 -50.2441 57.9102 -50.9766 C 57.9102 -52.2461 56.7871 -53.2715 55.4199 -53.2715 C 54.541 -53.2715 53.9551 -52.9785 53.2227 -52.1973 L 37.6465 -36.377 L 37.4512 -36.377 L 37.4512 -50.2441 C 37.4512 -52.1484 36.4258 -53.2715 34.7168 -53.2715 C 33.0566 -53.2715 32.0312 -52.1484 32.0312 -50.2441 L 32.0312 -20.8008 C 32.0312 -18.9453 33.0566 -17.8223 34.7168 -17.8223 Z"/>
  </g>
  <g id="Thin-S" transform="matrix(1 0 0 1 812.599 696)">
   <path d="M 20.3125 -1.12305 L 67.334 -1.12305 C 74.2676 -1.12305 77.8809 -4.78516 77.8809 -11.6211 L 77.8809 -58.6914 C 77.8809 -65.5762 74.2676 -69.2383 67.334 -69.2383 L 20.3125 -69.2383 C 13.3789 -69.2383 9.76562 -65.625 9.76562 -58.6914 L 9.76562 -11.6211 C 9.76562 -4.6875 13.3789 -1.12305 20.3125 -1.12305 Z M 20.4102 -4.44336 C 15.625 -4.44336 13.0859 -6.93359 13.0859 -11.8164 L 13.0859 -58.5449 C 13.0859 -63.3789 15.625 -65.918 20.4102 -65.918 L 67.2363 -65.918 C 71.875 -65.918 74.5605 -63.3789 74.5605 -58.5449 L 74.5605 -11.8164 C 74.5605 -6.93359 71.875 -4.44336 67.2363 -4.44336 Z M 33.8379 -17.9688 C 34.8633 -17.9688 35.498 -18.7012 35.498 -19.7754 L 35.498 -30.3711 L 40.5273 -35.4492 L 53.3691 -18.9941 C 53.9551 -18.2617 54.3457 -18.0176 55.0293 -18.0176 C 55.957 -18.0176 56.6895 -18.7012 56.6895 -19.6289 C 56.6895 -20.166 56.3965 -20.6055 56.1035 -21.0449 L 42.9688 -37.7441 L 55.0781 -50 C 55.4688 -50.3906 55.6152 -50.7812 55.6152 -51.2207 C 55.6152 -52.0508 54.9316 -52.6855 54.1016 -52.6855 C 53.4668 -52.6855 53.125 -52.4902 52.5879 -51.9531 L 35.6934 -34.8633 L 35.498 -34.8633 L 35.498 -50.8789 C 35.498 -52.002 34.8633 -52.6855 33.8379 -52.6855 C 32.8125 -52.6855 32.1289 -52.002 32.1289 -50.8789 L 32.1289 -19.7754 C 32.1289 -18.7012 32.8125 -17.9688 33.8379 -17.9688 Z"/>
  </g>
  <g id="Ultralight-S" transform="matrix(1 0 0 1 516.352 696)">
   <path d="M 19.7754 -1.5625 L 66.9922 -1.5625 C 73.5352 -1.5625 76.9531 -5.12695 76.9531 -11.5234 L 76.9531 -58.7891 C 76.9531 -65.2344 73.5352 -68.75 66.9922 -68.75 L 19.7754 -68.75 C 13.2324 -68.75 9.76562 -65.2832 9.76562 -58.7891 L 9.76562 -11.5234 C 9.76562 -5.0293 13.2324 -1.5625 19.7754 -1.5625 Z M 19.873 -3.75977 C 14.6484 -3.75977 11.9629 -6.44531 11.9629 -11.6699 L 11.9629 -58.6426 C 11.9629 -63.8672 14.6484 -66.5527 19.873 -66.5527 L 66.8945 -66.5527 C 71.875 -66.5527 74.7559 -63.8672 74.7559 -58.6426 L 74.7559 -11.6699 C 74.7559 -6.44531 71.875 -3.75977 66.8945 -3.75977 Z M 33.3496 -18.1152 C 34.082 -18.1152 34.5215 -18.6035 34.5215 -19.2383 L 34.5215 -30.8594 L 39.6484 -36.0352 L 53.1738 -18.8477 C 53.6133 -18.3105 53.8574 -18.1152 54.4434 -18.1152 C 55.0293 -18.1152 55.5664 -18.5547 55.5664 -19.2871 C 55.5664 -19.6777 55.3223 -20.0195 55.127 -20.2637 L 41.3574 -37.6953 L 54.0527 -50.5371 C 54.2969 -50.7812 54.4434 -51.0742 54.4434 -51.3672 C 54.4434 -51.9531 53.9551 -52.3438 53.3691 -52.3438 C 52.9297 -52.3438 52.6855 -52.2461 52.2461 -51.8555 L 34.668 -34.1309 L 34.5215 -34.1309 L 34.5215 -51.2207 C 34.5215 -51.9043 34.082 -52.3438 33.3496 -52.3438 C 32.7148 -52.3438 32.2266 -51.9043 32.2266 -51.2207 L 32.2266 -19.2383 C 32.2266 -18.6035 32.7148 -18.1152 33.3496 -18.1152 Z"/>
  </g>
 </g>
</svg>
