<?xml version="1.0" encoding="UTF-8"?>
<!--Generator: Apple Native CoreSVG 148-->
<!DOCTYPE svg
PUBLIC "-//W3C//DTD SVG 1.1//EN"
       "http://www.w3.org/Graphics/SVG/1.1/DTD/svg11.dtd">
<svg version="1.1" xmlns="http://www.w3.org/2000/svg" xmlns:xlink="http://www.w3.org/1999/xlink" width="3300" height="2200">
 <!--glyph: "uni1005F4.medium", point size: 100.000000, font version: "Version 16.0d11e1", template writer version: "8"-->
 <g id="Notes">
  <rect height="2200" id="artboard" style="fill:white;opacity:1" width="3300" x="0" y="0"/>
  <line id="" style="fill:none;stroke:black;opacity:1;stroke-width:0.5;" x1="263" x2="3036" y1="292" y2="292"/>
  <text style="stroke:none;fill:black;font-family:-apple-system,&quot;SF Pro Display&quot;,&quot;SF Pro Text&quot;,Helvetica,sans-serif;font-weight:bold;" transform="matrix(1 0 0 1 263 322)">Weight/Scale Variations</text>
  <text style="stroke:none;fill:black;font-family:-apple-system,&quot;SF Pro Display&quot;,&quot;SF Pro Text&quot;,Helvetica,sans-serif;text-anchor:middle;" transform="matrix(1 0 0 1 559.711 322)">Ultralight</text>
  <text style="stroke:none;fill:black;font-family:-apple-system,&quot;SF Pro Display&quot;,&quot;SF Pro Text&quot;,Helvetica,sans-serif;text-anchor:middle;" transform="matrix(1 0 0 1 856.422 322)">Thin</text>
  <text style="stroke:none;fill:black;font-family:-apple-system,&quot;SF Pro Display&quot;,&quot;SF Pro Text&quot;,Helvetica,sans-serif;text-anchor:middle;" transform="matrix(1 0 0 1 1153.13 322)">Light</text>
  <text style="stroke:none;fill:black;font-family:-apple-system,&quot;SF Pro Display&quot;,&quot;SF Pro Text&quot;,Helvetica,sans-serif;text-anchor:middle;" transform="matrix(1 0 0 1 1449.84 322)">Regular</text>
  <text style="stroke:none;fill:black;font-family:-apple-system,&quot;SF Pro Display&quot;,&quot;SF Pro Text&quot;,Helvetica,sans-serif;text-anchor:middle;" transform="matrix(1 0 0 1 1746.56 322)">Medium</text>
  <text style="stroke:none;fill:black;font-family:-apple-system,&quot;SF Pro Display&quot;,&quot;SF Pro Text&quot;,Helvetica,sans-serif;text-anchor:middle;" transform="matrix(1 0 0 1 2043.27 322)">Semibold</text>
  <text style="stroke:none;fill:black;font-family:-apple-system,&quot;SF Pro Display&quot;,&quot;SF Pro Text&quot;,Helvetica,sans-serif;text-anchor:middle;" transform="matrix(1 0 0 1 2339.98 322)">Bold</text>
  <text style="stroke:none;fill:black;font-family:-apple-system,&quot;SF Pro Display&quot;,&quot;SF Pro Text&quot;,Helvetica,sans-serif;text-anchor:middle;" transform="matrix(1 0 0 1 2636.69 322)">Heavy</text>
  <text style="stroke:none;fill:black;font-family:-apple-system,&quot;SF Pro Display&quot;,&quot;SF Pro Text&quot;,Helvetica,sans-serif;text-anchor:middle;" transform="matrix(1 0 0 1 2933.4 322)">Black</text>
  <line id="" style="fill:none;stroke:black;opacity:1;stroke-width:0.5;" x1="263" x2="3036" y1="1903" y2="1903"/>
  <g id="" transform="matrix(1 0 0 1 263 1933)">
   <path d="M 9.24805 0.830078 C 13.5547 0.830078 17.1387 -2.74414 17.1387 -7.05078 C 17.1387 -11.3574 13.5449 -14.9316 9.23828 -14.9316 C 4.94141 -14.9316 1.36719 -11.3574 1.36719 -7.05078 C 1.36719 -2.74414 4.95117 0.830078 9.24805 0.830078 Z M 9.24805 -0.654297 C 5.70312 -0.654297 2.87109 -3.49609 2.87109 -7.05078 C 2.87109 -10.6055 5.69336 -13.4473 9.23828 -13.4473 C 12.793 -13.4473 15.6348 -10.6055 15.6445 -7.05078 C 15.6543 -3.49609 12.8027 -0.654297 9.24805 -0.654297 Z M 9.22852 -3.62305 C 9.69727 -3.62305 9.9707 -3.93555 9.9707 -4.45312 L 9.9707 -6.31836 L 12.002 -6.31836 C 12.5 -6.31836 12.832 -6.57227 12.832 -7.04102 C 12.832 -7.51953 12.5195 -7.7832 12.002 -7.7832 L 9.9707 -7.7832 L 9.9707 -9.81445 C 9.9707 -10.332 9.69727 -10.6543 9.22852 -10.6543 C 8.75977 -10.6543 8.50586 -10.3125 8.50586 -9.81445 L 8.50586 -7.7832 L 6.49414 -7.7832 C 5.97656 -7.7832 5.64453 -7.51953 5.64453 -7.04102 C 5.64453 -6.57227 5.99609 -6.31836 6.49414 -6.31836 L 8.50586 -6.31836 L 8.50586 -4.45312 C 8.50586 -3.95508 8.75977 -3.62305 9.22852 -3.62305 Z"/>
  </g>
  <g id="" transform="matrix(1 0 0 1 281.506 1933)">
   <path d="M 11.709 2.91016 C 17.1582 2.91016 21.6699 -1.61133 21.6699 -7.05078 C 21.6699 -12.5 17.1484 -17.0117 11.6992 -17.0117 C 6.25977 -17.0117 1.74805 -12.5 1.74805 -7.05078 C 1.74805 -1.61133 6.26953 2.91016 11.709 2.91016 Z M 11.709 1.25 C 7.09961 1.25 3.41797 -2.44141 3.41797 -7.05078 C 3.41797 -11.6602 7.08984 -15.3516 11.6992 -15.3516 C 16.3086 -15.3516 20 -11.6602 20.0098 -7.05078 C 20.0195 -2.44141 16.3184 1.25 11.709 1.25 Z M 11.6797 -2.66602 C 12.207 -2.66602 12.5098 -3.01758 12.5098 -3.59375 L 12.5098 -6.23047 L 15.3223 -6.23047 C 15.8691 -6.23047 16.25 -6.51367 16.25 -7.03125 C 16.25 -7.55859 15.8887 -7.86133 15.3223 -7.86133 L 12.5098 -7.86133 L 12.5098 -10.6836 C 12.5098 -11.25 12.207 -11.6113 11.6797 -11.6113 C 11.1621 -11.6113 10.8789 -11.2305 10.8789 -10.6836 L 10.8789 -7.86133 L 8.07617 -7.86133 C 7.50977 -7.86133 7.13867 -7.55859 7.13867 -7.03125 C 7.13867 -6.51367 7.5293 -6.23047 8.07617 -6.23047 L 10.8789 -6.23047 L 10.8789 -3.59375 C 10.8789 -3.03711 11.1621 -2.66602 11.6797 -2.66602 Z"/>
  </g>
  <g id="" transform="matrix(1 0 0 1 304.924 1933)">
   <path d="M 14.9707 5.66406 C 21.9336 5.66406 27.6953 -0.0976562 27.6953 -7.05078 C 27.6953 -14.0137 21.9238 -19.7754 14.9609 -19.7754 C 8.00781 -19.7754 2.25586 -14.0137 2.25586 -7.05078 C 2.25586 -0.0976562 8.01758 5.66406 14.9707 5.66406 Z M 14.9707 3.84766 C 8.93555 3.84766 4.08203 -1.01562 4.08203 -7.05078 C 4.08203 -13.0957 8.92578 -17.9492 14.9609 -17.9492 C 21.0059 -17.9492 25.8594 -13.0957 25.8691 -7.05078 C 25.8789 -1.01562 21.0156 3.84766 14.9707 3.84766 Z M 14.9414 -1.38672 C 15.5176 -1.38672 15.8594 -1.77734 15.8594 -2.38281 L 15.8594 -6.13281 L 19.7754 -6.13281 C 20.3711 -6.13281 20.7812 -6.46484 20.7812 -7.02148 C 20.7812 -7.59766 20.3906 -7.93945 19.7754 -7.93945 L 15.8594 -7.93945 L 15.8594 -11.8652 C 15.8594 -12.4805 15.5176 -12.8711 14.9414 -12.8711 C 14.375 -12.8711 14.0527 -12.4609 14.0527 -11.8652 L 14.0527 -7.93945 L 10.1465 -7.93945 C 9.53125 -7.93945 9.13086 -7.59766 9.13086 -7.02148 C 9.13086 -6.46484 9.55078 -6.13281 10.1465 -6.13281 L 14.0527 -6.13281 L 14.0527 -2.38281 C 14.0527 -1.79688 14.375 -1.38672 14.9414 -1.38672 Z"/>
  </g>
  <text style="stroke:none;fill:black;font-family:-apple-system,&quot;SF Pro Display&quot;,&quot;SF Pro Text&quot;,Helvetica,sans-serif;font-weight:bold;" transform="matrix(1 0 0 1 263 1953)">Design Variations</text>
  <text style="stroke:none;fill:black;font-family:-apple-system,&quot;SF Pro Display&quot;,&quot;SF Pro Text&quot;,Helvetica,sans-serif;" transform="matrix(1 0 0 1 263 1971)">Symbols are supported in up to nine weights and three scales.</text>
  <text style="stroke:none;fill:black;font-family:-apple-system,&quot;SF Pro Display&quot;,&quot;SF Pro Text&quot;,Helvetica,sans-serif;" transform="matrix(1 0 0 1 263 1989)">For optimal layout with text and other symbols, vertically align</text>
  <text style="stroke:none;fill:black;font-family:-apple-system,&quot;SF Pro Display&quot;,&quot;SF Pro Text&quot;,Helvetica,sans-serif;" transform="matrix(1 0 0 1 263 2007)">symbols with the adjacent text.</text>
  <line id="" style="fill:none;stroke:#00AEEF;stroke-width:0.5;opacity:1.0;" x1="776" x2="776" y1="1919" y2="1933"/>
  <g id="" transform="matrix(1 0 0 1 776 1933)">
   <path d="M 3.31055 0.126953 C 3.82812 0.126953 4.08203 -0.0683594 4.26758 -0.605469 L 5.52734 -4.0625 L 11.2891 -4.0625 L 12.5488 -0.605469 C 12.7344 -0.0683594 12.9883 0.126953 13.4961 0.126953 C 14.0137 0.126953 14.3457 -0.185547 14.3457 -0.673828 C 14.3457 -0.839844 14.3164 -0.986328 14.2383 -1.20117 L 9.6582 -13.3887 C 9.43359 -13.9941 9.0332 -14.2871 8.4082 -14.2871 C 7.80273 -14.2871 7.39258 -13.9941 7.17773 -13.3984 L 2.59766 -1.19141 C 2.51953 -0.976562 2.49023 -0.830078 2.49023 -0.664062 C 2.49023 -0.175781 2.80273 0.126953 3.31055 0.126953 Z M 6.00586 -5.53711 L 8.37891 -12.1094 L 8.42773 -12.1094 L 10.8008 -5.53711 Z"/>
  </g>
  <line id="" style="fill:none;stroke:#00AEEF;stroke-width:0.5;opacity:1.0;" x1="792.836" x2="792.836" y1="1919" y2="1933"/>
  <text style="stroke:none;fill:black;font-family:-apple-system,&quot;SF Pro Display&quot;,&quot;SF Pro Text&quot;,Helvetica,sans-serif;font-weight:bold;" transform="matrix(1 0 0 1 776 1953)">Margins</text>
  <text style="stroke:none;fill:black;font-family:-apple-system,&quot;SF Pro Display&quot;,&quot;SF Pro Text&quot;,Helvetica,sans-serif;" transform="matrix(1 0 0 1 776 1971)">Leading and trailing margins on the left and right side of each symbol</text>
  <text style="stroke:none;fill:black;font-family:-apple-system,&quot;SF Pro Display&quot;,&quot;SF Pro Text&quot;,Helvetica,sans-serif;" transform="matrix(1 0 0 1 776 1989)">can be adjusted by modifying the x-location of the margin guidelines.</text>
  <text style="stroke:none;fill:black;font-family:-apple-system,&quot;SF Pro Display&quot;,&quot;SF Pro Text&quot;,Helvetica,sans-serif;" transform="matrix(1 0 0 1 776 2007)">Modifications are automatically applied proportionally to all</text>
  <text style="stroke:none;fill:black;font-family:-apple-system,&quot;SF Pro Display&quot;,&quot;SF Pro Text&quot;,Helvetica,sans-serif;" transform="matrix(1 0 0 1 776 2025)">scales and weights.</text>
  <g id="" transform="matrix(1 0 0 1 1289 1933)">
   <path d="M 2.8418 1.86523 L 4.54102 3.57422 C 5.40039 4.44336 6.38672 4.38477 7.31445 3.35938 L 17.4902 -7.85156 C 17.7539 -7.76367 18.0273 -7.7832 18.3398 -7.8418 L 19.4043 -8.03711 L 20.0684 -7.36328 L 20.0293 -6.80664 C 19.9902 -6.30859 20.1172 -5.92773 20.6055 -5.44922 L 21.3672 -4.70703 C 21.8457 -4.22852 22.4609 -4.19922 22.9297 -4.66797 L 25.8398 -7.58789 C 26.3086 -8.05664 26.2891 -8.65234 25.8105 -9.13086 L 25.0391 -9.89258 C 24.5605 -10.3711 24.1895 -10.5273 23.7109 -10.4883 L 23.1348 -10.4395 L 22.4902 -11.0742 L 22.7344 -12.1973 C 22.8613 -12.7637 22.7051 -13.2031 22.1191 -13.7891 L 19.9219 -15.9766 C 16.582 -19.2969 12.1484 -19.2188 9.25781 -16.3281 C 8.83789 -15.918 8.80859 -15.3418 9.04297 -14.9512 C 9.27734 -14.5898 9.73633 -14.3555 10.3809 -14.5215 C 11.8457 -14.8633 13.3691 -14.9219 14.7949 -13.9844 L 14.209 -12.5293 C 14.0137 -12.0508 13.9844 -11.6504 14.1113 -11.2891 L 3.04688 -0.898438 C 2.06055 0.0195312 1.98242 0.996094 2.8418 1.86523 Z M 10.752 -15.957 C 13.1836 -17.7344 16.4746 -17.4316 18.7012 -15.2051 L 21.1328 -12.793 C 21.3672 -12.5586 21.4062 -12.373 21.3379 -12.0312 L 21.0156 -10.5469 L 22.5195 -9.0625 L 23.5059 -9.12109 C 23.7598 -9.13086 23.8379 -9.11133 24.0332 -8.91602 L 24.6094 -8.33984 L 22.168 -5.89844 L 21.5918 -6.47461 C 21.3965 -6.66992 21.3672 -6.74805 21.377 -7.01172 L 21.4453 -7.98828 L 19.9512 -9.47266 L 18.4277 -9.21875 C 18.1055 -9.15039 17.959 -9.17969 17.7148 -9.41406 L 15.7129 -11.416 C 15.459 -11.6504 15.4297 -11.8164 15.5859 -12.1875 L 16.4648 -14.2773 C 14.9023 -15.7324 12.8711 -16.3574 10.8398 -15.7617 C 10.6836 -15.7227 10.625 -15.8496 10.752 -15.957 Z M 5.27344 2.30469 L 4.10156 1.14258 C 3.63281 0.683594 3.74023 0.341797 4.14062 -0.0195312 L 14.9512 -10.1953 L 16.416 -8.71094 L 6.42578 2.27539 C 6.07422 2.67578 5.74219 2.77344 5.27344 2.30469 Z"/>
  </g>
  <text style="stroke:none;fill:black;font-family:-apple-system,&quot;SF Pro Display&quot;,&quot;SF Pro Text&quot;,Helvetica,sans-serif;font-weight:bold;" transform="matrix(1 0 0 1 1289 1953)">Exporting</text>
  <text style="stroke:none;fill:black;font-family:-apple-system,&quot;SF Pro Display&quot;,&quot;SF Pro Text&quot;,Helvetica,sans-serif;" transform="matrix(1 0 0 1 1289 1971)">Symbols should be outlined when exporting to ensure the</text>
  <text style="stroke:none;fill:black;font-family:-apple-system,&quot;SF Pro Display&quot;,&quot;SF Pro Text&quot;,Helvetica,sans-serif;" transform="matrix(1 0 0 1 1289 1989)">design is preserved when submitting to Xcode.</text>
  <text id="template-version" style="stroke:none;fill:black;font-family:-apple-system,&quot;SF Pro Display&quot;,&quot;SF Pro Text&quot;,Helvetica,sans-serif;text-anchor:end;" transform="matrix(1 0 0 1 3036 1933)">Template v.2.0</text>
  <text style="stroke:none;fill:black;font-family:-apple-system,&quot;SF Pro Display&quot;,&quot;SF Pro Text&quot;,Helvetica,sans-serif;text-anchor:end;" transform="matrix(1 0 0 1 3036 1951)">Requires Xcode 12 or greater</text>
  <text style="stroke:none;fill:black;font-family:-apple-system,&quot;SF Pro Display&quot;,&quot;SF Pro Text&quot;,Helvetica,sans-serif;text-anchor:end;" transform="matrix(1 0 0 1 3036 1969)">Generated from kipsign.square.fill</text>
  <text style="stroke:none;fill:black;font-family:-apple-system,&quot;SF Pro Display&quot;,&quot;SF Pro Text&quot;,Helvetica,sans-serif;text-anchor:end;" transform="matrix(1 0 0 1 3036 1987)">Typeset at 100 points</text>
  <text style="stroke:none;fill:black;font-family:-apple-system,&quot;SF Pro Display&quot;,&quot;SF Pro Text&quot;,Helvetica,sans-serif;" transform="matrix(1 0 0 1 263 726)">Small</text>
  <text style="stroke:none;fill:black;font-family:-apple-system,&quot;SF Pro Display&quot;,&quot;SF Pro Text&quot;,Helvetica,sans-serif;" transform="matrix(1 0 0 1 263 1156)">Medium</text>
  <text style="stroke:none;fill:black;font-family:-apple-system,&quot;SF Pro Display&quot;,&quot;SF Pro Text&quot;,Helvetica,sans-serif;" transform="matrix(1 0 0 1 263 1586)">Large</text>
 </g>
 <g id="Guides">
  <g id="H-reference" style="fill:#27AAE1;stroke:none;" transform="matrix(1 0 0 1 339 696)">
   <path d="M 0.976562 0 L 3.66211 0 L 12.9883 -24.4629 L 45.7031 -24.4629 L 55.0781 0 L 57.7148 0 L 30.6152 -70.459 L 28.125 -70.459 Z M 29.2969 -67.1387 L 29.3945 -67.1387 L 44.873 -26.709 L 13.8672 -26.709 Z"/>
  </g>
  <line id="Baseline-S" style="fill:none;stroke:#27AAE1;opacity:1;stroke-width:0.5;" x1="263" x2="3036" y1="696" y2="696"/>
  <line id="Capline-S" style="fill:none;stroke:#27AAE1;opacity:1;stroke-width:0.5;" x1="263" x2="3036" y1="625.541" y2="625.541"/>
  <g id="H-reference" style="fill:#27AAE1;stroke:none;" transform="matrix(1 0 0 1 339 1126)">
   <path d="M 0.976562 0 L 3.66211 0 L 12.9883 -24.4629 L 45.7031 -24.4629 L 55.0781 0 L 57.7148 0 L 30.6152 -70.459 L 28.125 -70.459 Z M 29.2969 -67.1387 L 29.3945 -67.1387 L 44.873 -26.709 L 13.8672 -26.709 Z"/>
  </g>
  <line id="Baseline-M" style="fill:none;stroke:#27AAE1;opacity:1;stroke-width:0.5;" x1="263" x2="3036" y1="1126" y2="1126"/>
  <line id="Capline-M" style="fill:none;stroke:#27AAE1;opacity:1;stroke-width:0.5;" x1="263" x2="3036" y1="1055.54" y2="1055.54"/>
  <g id="H-reference" style="fill:#27AAE1;stroke:none;" transform="matrix(1 0 0 1 339 1556)">
   <path d="M 0.976562 0 L 3.66211 0 L 12.9883 -24.4629 L 45.7031 -24.4629 L 55.0781 0 L 57.7148 0 L 30.6152 -70.459 L 28.125 -70.459 Z M 29.2969 -67.1387 L 29.3945 -67.1387 L 44.873 -26.709 L 13.8672 -26.709 Z"/>
  </g>
  <line id="Baseline-L" style="fill:none;stroke:#27AAE1;opacity:1;stroke-width:0.5;" x1="263" x2="3036" y1="1556" y2="1556"/>
  <line id="Capline-L" style="fill:none;stroke:#27AAE1;opacity:1;stroke-width:0.5;" x1="263" x2="3036" y1="1485.54" y2="1485.54"/>
  <line id="left-margin" style="fill:none;stroke:#00AEEF;stroke-width:0.5;opacity:1.0;" x1="1392.45" x2="1392.45" y1="1030.79" y2="1150.12"/>
  <line id="right-margin" style="fill:none;stroke:#00AEEF;stroke-width:0.5;opacity:1.0;" x1="1507.24" x2="1507.24" y1="1030.79" y2="1150.12"/>
 </g>
 <g id="Symbols">
  <g id="Black-L" transform="matrix(1 0 0 1 2855.62 1556)">
   <path d="M 39.9902 26.5137 L 115.576 26.5137 C 130.811 26.5137 139.502 17.8711 139.502 2.68555 L 139.502 -73.0957 C 139.502 -88.2812 130.811 -96.875 115.576 -96.875 L 39.9902 -96.875 C 24.7559 -96.875 16.0645 -88.2812 16.0645 -73.0957 L 16.0645 2.68555 C 16.0645 17.8711 24.7559 26.5137 39.9902 26.5137 Z M 49.9023 -36.4746 C 49.9023 -38.0859 51.0742 -39.2578 52.6855 -39.2578 L 56.8359 -39.2578 L 56.8359 -56.8359 C 56.8359 -61.8164 59.9121 -64.9902 64.5996 -64.9902 C 69.3359 -64.9902 72.5098 -61.8164 72.5098 -56.8359 L 72.5098 -39.4531 L 73.291 -39.4531 L 88.0371 -60.9375 C 89.6484 -63.3789 92.1875 -64.9414 94.4824 -64.9414 C 98.7793 -64.9414 101.709 -62.207 101.709 -58.3008 C 101.709 -56.8359 101.123 -55.0293 100.146 -53.6133 L 89.4043 -39.2578 L 101.318 -39.2578 C 102.93 -39.2578 104.102 -38.0859 104.102 -36.4746 C 104.102 -34.8145 102.93 -33.5938 101.318 -33.5938 L 89.0137 -33.5938 L 100.146 -18.0176 C 101.367 -16.2598 102.148 -13.916 102.148 -12.0605 C 102.148 -7.91016 99.0723 -5.0293 94.4824 -5.0293 C 91.6992 -5.0293 88.8672 -6.73828 87.3535 -9.52148 L 73.3887 -32.4707 L 72.5098 -32.4707 L 72.5098 -13.1836 C 72.5098 -8.25195 69.3359 -5.0293 64.5996 -5.0293 C 59.9609 -5.0293 56.8359 -8.25195 56.8359 -13.1836 L 56.8359 -33.5938 L 52.6855 -33.5938 C 51.0742 -33.5938 49.9023 -34.8145 49.9023 -36.4746 Z"/>
  </g>
  <g id="Heavy-L" transform="matrix(1 0 0 1 2559.93 1556)">
   <path d="M 38.8184 25.4883 L 114.697 25.4883 C 129.346 25.4883 137.451 17.4316 137.451 2.88086 L 137.451 -73.2422 C 137.451 -87.793 129.346 -95.8496 114.697 -95.8496 L 38.8184 -95.8496 C 24.2188 -95.8496 16.0645 -87.793 16.0645 -73.2422 L 16.0645 2.88086 C 16.0645 17.4316 24.2188 25.4883 38.8184 25.4883 Z M 49.8047 -35.9863 C 49.8047 -37.6465 51.0254 -38.8672 52.5879 -38.8672 L 56.7871 -38.8672 L 56.7871 -57.8613 C 56.7871 -62.207 59.4727 -64.9902 63.5742 -64.9902 C 67.7246 -64.9902 70.459 -62.207 70.459 -57.8613 L 70.459 -38.9648 L 71.8262 -38.9648 L 88.0859 -61.4746 C 89.5508 -63.623 91.6992 -64.9414 93.75 -64.9414 C 97.4609 -64.9414 100.098 -62.5 100.098 -59.082 C 100.098 -57.8125 99.5605 -56.1523 98.6328 -54.9316 L 86.1328 -38.8672 L 99.4141 -38.8672 C 101.074 -38.8672 102.197 -37.6465 102.197 -35.9863 C 102.197 -34.375 101.074 -33.1055 99.4141 -33.1055 L 85.8398 -33.1055 L 98.6328 -16.0645 C 99.7559 -14.5508 100.391 -12.5 100.391 -10.9375 C 100.391 -7.32422 97.7051 -4.73633 93.7012 -4.73633 C 91.3574 -4.73633 88.9648 -6.20117 87.5488 -8.59375 L 71.875 -32.2754 L 70.459 -32.2754 L 70.459 -11.8652 C 70.459 -7.56836 67.6758 -4.73633 63.5742 -4.73633 C 59.5215 -4.73633 56.7871 -7.56836 56.7871 -11.8652 L 56.7871 -33.1055 L 52.5879 -33.1055 C 51.0254 -33.1055 49.8047 -34.375 49.8047 -35.9863 Z"/>
  </g>
  <g id="Bold-L" transform="matrix(1 0 0 1 2264.37 1556)">
   <path d="M 37.5 24.3652 L 113.721 24.3652 C 127.637 24.3652 135.156 16.8945 135.156 3.07617 L 135.156 -73.3887 C 135.156 -87.207 127.637 -94.7266 113.721 -94.7266 L 37.5 -94.7266 C 23.6328 -94.7266 16.0645 -87.2559 16.0645 -73.3887 L 16.0645 3.07617 C 16.0645 16.8945 23.6328 24.3652 37.5 24.3652 Z M 49.7559 -35.498 C 49.7559 -37.1582 50.9766 -38.3789 52.5391 -38.3789 L 56.7383 -38.3789 L 56.7383 -59.0332 C 56.7383 -62.6465 58.9844 -64.9414 62.4512 -64.9414 C 65.918 -64.9414 68.2129 -62.6465 68.2129 -59.0332 L 68.2129 -38.4277 L 70.166 -38.4277 L 88.1348 -62.0605 C 89.4531 -63.916 91.2109 -64.9414 92.9199 -64.9414 C 96.0449 -64.9414 98.2422 -62.8418 98.2422 -59.9121 C 98.2422 -58.8379 97.8027 -57.4707 96.9727 -56.3477 L 82.5195 -38.3789 L 97.3145 -38.3789 C 98.9746 -38.3789 100.146 -37.1582 100.146 -35.498 C 100.146 -33.8867 98.9746 -32.6172 97.3145 -32.6172 L 82.373 -32.6172 L 96.9727 -13.916 C 97.9004 -12.6465 98.4863 -10.9863 98.4863 -9.66797 C 98.4863 -6.64062 96.1426 -4.44336 92.8711 -4.44336 C 90.9668 -4.44336 89.0625 -5.56641 87.8418 -7.56836 L 70.2148 -32.0801 L 68.2129 -32.0801 L 68.2129 -10.4004 C 68.2129 -6.78711 65.8691 -4.44336 62.4512 -4.44336 C 59.0332 -4.44336 56.7383 -6.78711 56.7383 -10.4004 L 56.7383 -32.6172 L 52.5391 -32.6172 C 50.9766 -32.6172 49.7559 -33.8867 49.7559 -35.498 Z"/>
  </g>
  <g id="Semibold-L" transform="matrix(1 0 0 1 1968.44 1556)">
   <path d="M 36.6211 23.584 L 113.037 23.584 C 126.514 23.584 133.594 16.5039 133.594 3.17383 L 133.594 -73.5352 C 133.594 -86.8164 126.514 -93.9453 113.037 -93.9453 L 36.6211 -93.9453 C 23.1934 -93.9453 16.0645 -86.8652 16.0645 -73.5352 L 16.0645 3.17383 C 16.0645 16.5527 23.1934 23.584 36.6211 23.584 Z M 49.6582 -35.1562 C 49.6582 -36.8164 50.9277 -38.0371 52.4902 -38.0371 L 56.6895 -38.0371 L 56.6895 -59.8145 C 56.6895 -62.9883 58.6426 -64.9414 61.6699 -64.9414 C 64.6484 -64.9414 66.6504 -62.9883 66.6504 -59.8145 L 66.6504 -38.0859 L 68.9941 -38.0859 L 88.1836 -62.4512 C 89.3555 -64.1113 90.8691 -64.9414 92.334 -64.9414 C 95.0195 -64.9414 96.9727 -63.0859 96.9727 -60.498 C 96.9727 -59.5703 96.582 -58.3496 95.8008 -57.373 L 80.0293 -38.0371 L 95.8496 -38.0371 C 97.5586 -38.0371 98.6816 -36.8164 98.6816 -35.1562 C 98.6816 -33.5449 97.5586 -32.2754 95.8496 -32.2754 L 79.9316 -32.2754 L 95.8008 -12.4023 C 96.6797 -11.2793 97.1191 -9.91211 97.1191 -8.83789 C 97.1191 -6.20117 95.0684 -4.24805 92.2852 -4.24805 C 90.7227 -4.24805 89.1602 -5.12695 87.9883 -6.83594 L 69.0918 -31.9336 L 66.6504 -31.9336 L 66.6504 -9.42383 C 66.6504 -6.25 64.5996 -4.24805 61.6699 -4.24805 C 58.7402 -4.24805 56.6895 -6.25 56.6895 -9.42383 L 56.6895 -32.2754 L 52.4902 -32.2754 C 50.9277 -32.2754 49.6582 -33.5449 49.6582 -35.1562 Z"/>
  </g>
  <g id="Medium-L" transform="matrix(1 0 0 1 1672.31 1556)">
   <path d="M 35.9375 22.998 L 112.5 22.998 C 125.635 22.998 132.422 16.2109 132.422 3.27148 L 132.422 -73.6328 C 132.422 -86.5234 125.635 -93.3105 112.5 -93.3105 L 35.9375 -93.3105 C 22.9004 -93.3105 16.0645 -86.5723 16.0645 -73.6328 L 16.0645 3.27148 C 16.0645 16.2598 22.9004 22.998 35.9375 22.998 Z M 49.6582 -34.9121 C 49.6582 -36.5723 50.8789 -37.793 52.4414 -37.793 L 56.6406 -37.793 L 56.6406 -60.4004 C 56.6406 -63.1836 58.3984 -64.8926 61.084 -64.8926 C 63.7207 -64.8926 65.4785 -63.1836 65.4785 -60.4004 L 65.4785 -37.793 L 68.1152 -37.793 L 88.1836 -62.7441 C 89.3066 -64.2578 90.5762 -64.9414 91.8945 -64.9414 C 94.2871 -64.9414 96.0449 -63.2324 96.0449 -60.9863 C 96.0449 -60.1074 95.6543 -59.0332 94.9219 -58.1055 L 78.1738 -37.793 L 94.7754 -37.793 C 96.4355 -37.793 97.6074 -36.5723 97.6074 -34.9121 C 97.6074 -33.3008 96.4355 -31.9824 94.7754 -31.9824 L 78.125 -31.9824 L 94.9219 -11.2793 C 95.7031 -10.3027 96.0938 -9.08203 96.0938 -8.1543 C 96.0938 -5.81055 94.2871 -4.10156 91.8457 -4.10156 C 90.5273 -4.10156 89.209 -4.83398 88.1348 -6.29883 L 68.2129 -31.7871 L 65.4785 -31.7871 L 65.4785 -8.64258 C 65.4785 -5.85938 63.6719 -4.10156 61.084 -4.10156 C 58.4961 -4.10156 56.6406 -5.85938 56.6406 -8.64258 L 56.6406 -31.9824 L 52.4414 -31.9824 C 50.8789 -31.9824 49.6582 -33.3008 49.6582 -34.9121 Z"/>
  </g>
  <g id="Regular-L" transform="matrix(1 0 0 1 1376.38 1556)">
   <path d="M 35.0586 22.2168 L 111.816 22.2168 C 124.463 22.2168 130.859 15.8691 130.859 3.41797 L 130.859 -73.7305 C 130.859 -86.1816 124.463 -92.5293 111.816 -92.5293 L 35.0586 -92.5293 C 22.4609 -92.5293 16.0645 -86.2305 16.0645 -73.7305 L 16.0645 3.41797 C 16.0645 15.918 22.4609 22.2168 35.0586 22.2168 Z M 49.6094 -34.5703 C 49.6094 -36.2305 50.8301 -37.4512 52.3926 -37.4512 L 56.5918 -37.4512 L 56.5918 -61.1816 C 56.5918 -63.5254 58.0566 -64.8926 60.3027 -64.8926 C 62.4512 -64.8926 63.916 -63.5254 63.916 -61.1816 L 63.916 -37.4512 L 66.9922 -37.4512 L 88.2324 -63.1836 C 89.2578 -64.4531 90.2344 -64.9414 91.3086 -64.9414 C 93.3105 -64.9414 94.7754 -63.4766 94.7754 -61.5723 C 94.7754 -60.8398 94.4336 -59.9121 93.7988 -59.1309 L 75.6836 -37.4512 L 93.3594 -37.4512 C 95.0195 -37.4512 96.1426 -36.2305 96.1426 -34.5703 C 96.1426 -32.959 95.0195 -31.6406 93.3594 -31.6406 L 75.7324 -31.6406 L 93.7988 -9.81445 C 94.4824 -8.98438 94.7754 -8.05664 94.7754 -7.27539 C 94.7754 -5.37109 93.2129 -3.90625 91.3086 -3.90625 C 90.2344 -3.90625 89.2578 -4.39453 88.2812 -5.61523 L 67.0898 -31.6406 L 63.916 -31.6406 L 63.916 -7.66602 C 63.916 -5.32227 62.4023 -3.90625 60.3027 -3.90625 C 58.1543 -3.90625 56.5918 -5.32227 56.5918 -7.66602 L 56.5918 -31.6406 L 52.3926 -31.6406 C 50.8301 -31.6406 49.6094 -32.959 49.6094 -34.5703 Z"/>
  </g>
  <g id="Light-L" transform="matrix(1 0 0 1 1080.5 1556)">
   <path d="M 34.0332 21.4355 L 111.23 21.4355 C 123.096 21.4355 129.199 15.2344 129.199 3.56445 L 129.199 -73.8281 C 129.199 -85.5469 123.096 -91.6992 111.23 -91.6992 L 34.0332 -91.6992 C 22.168 -91.6992 16.0645 -85.6445 16.0645 -73.8281 L 16.0645 3.56445 C 16.0645 15.3809 22.168 21.4355 34.0332 21.4355 Z M 50.3906 -34.4727 C 50.3906 -35.8398 51.416 -36.8652 52.7832 -36.8652 L 57.0312 -36.8652 L 57.0312 -60.6445 C 57.0312 -62.5 58.1543 -63.623 59.9609 -63.623 C 61.6211 -63.623 62.793 -62.5 62.793 -60.6445 L 62.793 -36.8652 L 66.1133 -36.8652 L 87.6465 -62.207 C 88.4277 -63.1836 89.1602 -63.623 90.0879 -63.623 C 91.6504 -63.623 92.8223 -62.4512 92.8223 -60.9375 C 92.8223 -60.3516 92.5781 -59.6191 92.041 -58.9355 L 73.0469 -36.8652 L 91.7969 -36.8652 C 93.2129 -36.8652 94.1895 -35.8398 94.1895 -34.4727 C 94.1895 -33.1543 93.2129 -32.0312 91.7969 -32.0312 L 73.0469 -32.0312 L 91.9922 -9.91211 C 92.5781 -9.22852 92.8223 -8.44727 92.8223 -7.8125 C 92.8223 -6.29883 91.5527 -5.12695 90.0391 -5.12695 C 89.2578 -5.12695 88.4766 -5.51758 87.7441 -6.39648 L 66.0645 -32.0312 L 62.793 -32.0312 L 62.793 -8.10547 C 62.793 -6.25 61.5723 -5.12695 59.9609 -5.12695 C 58.3008 -5.12695 57.0312 -6.25 57.0312 -8.10547 L 57.0312 -32.0312 L 52.7832 -32.0312 C 51.416 -32.0312 50.3906 -33.1543 50.3906 -34.4727 Z"/>
  </g>
  <g id="Thin-L" transform="matrix(1 0 0 1 784.889 1556)">
   <path d="M 32.666 20.3613 L 110.352 20.3613 C 121.24 20.3613 127.002 14.4531 127.002 3.75977 L 127.002 -73.9746 C 127.002 -84.7168 121.24 -90.5762 110.352 -90.5762 L 32.666 -90.5762 C 21.7773 -90.5762 16.0645 -84.8633 16.0645 -73.9746 L 16.0645 3.75977 C 16.0645 14.6484 21.7773 20.3613 32.666 20.3613 Z M 51.416 -34.3262 C 51.416 -35.3027 52.1484 -36.1328 53.2715 -36.1328 L 57.5684 -36.1328 L 57.5684 -59.9609 C 57.5684 -61.1816 58.3496 -61.9141 59.4727 -61.9141 C 60.5469 -61.9141 61.3281 -61.1816 61.3281 -59.9609 L 61.3281 -36.1328 L 64.8926 -36.1328 L 86.8164 -60.9375 C 87.3047 -61.5234 87.793 -61.8652 88.4766 -61.8652 C 89.502 -61.8652 90.2832 -61.1328 90.2832 -60.1074 C 90.2832 -59.7168 90.1367 -59.1797 89.6973 -58.7402 L 69.5801 -36.1328 L 89.7461 -36.1328 C 90.8691 -36.1328 91.5527 -35.3027 91.5527 -34.3262 C 91.5527 -33.3496 90.8691 -32.5684 89.7461 -32.5684 L 69.5312 -32.5684 L 89.5996 -10.0586 C 90.0879 -9.52148 90.1855 -8.98438 90.1855 -8.54492 C 90.1855 -7.51953 89.3555 -6.78711 88.4277 -6.78711 C 87.9395 -6.78711 87.4023 -6.98242 86.9629 -7.42188 L 64.7461 -32.5684 L 61.3281 -32.5684 L 61.3281 -8.74023 C 61.3281 -7.51953 60.498 -6.78711 59.4727 -6.78711 C 58.4961 -6.78711 57.5684 -7.51953 57.5684 -8.74023 L 57.5684 -32.5684 L 53.2715 -32.5684 C 52.1484 -32.5684 51.416 -33.3496 51.416 -34.3262 Z"/>
  </g>
  <g id="Ultralight-L" transform="matrix(1 0 0 1 488.739 1556)">
   <path d="M 31.9824 19.7754 L 109.961 19.7754 C 120.312 19.7754 125.879 14.0625 125.879 3.85742 L 125.879 -74.0723 C 125.879 -84.2773 120.312 -89.9902 109.961 -89.9902 L 31.9824 -89.9902 C 21.582 -89.9902 16.0645 -84.4727 16.0645 -74.0723 L 16.0645 3.85742 C 16.0645 14.2578 21.582 19.7754 31.9824 19.7754 Z M 51.9531 -34.2773 C 51.9531 -35.0586 52.5391 -35.7422 53.5156 -35.7422 L 57.8613 -35.7422 L 57.8613 -59.6191 C 57.8613 -60.498 58.4473 -61.084 59.2285 -61.084 C 59.9609 -61.084 60.5957 -60.498 60.5957 -59.6191 L 60.5957 -35.7422 L 64.2578 -35.7422 L 86.4258 -60.3027 C 86.7188 -60.6934 87.0605 -60.9863 87.6465 -60.9863 C 88.4277 -60.9863 88.9648 -60.4492 88.9648 -59.668 C 88.9648 -59.375 88.916 -58.9844 88.5254 -58.5938 L 67.8223 -35.7422 L 88.6719 -35.7422 C 89.6484 -35.7422 90.2344 -35.0586 90.2344 -34.2773 C 90.2344 -33.4961 89.6484 -32.8125 88.6719 -32.8125 L 67.7246 -32.8125 L 88.3301 -10.1562 C 88.8184 -9.7168 88.8672 -9.27734 88.8672 -8.88672 C 88.8672 -8.1543 88.2324 -7.61719 87.5977 -7.61719 C 87.2559 -7.61719 86.8164 -7.71484 86.5723 -7.95898 L 64.1113 -32.8125 L 60.5957 -32.8125 L 60.5957 -9.0332 C 60.5957 -8.1543 59.9609 -7.61719 59.2285 -7.61719 C 58.5938 -7.61719 57.8613 -8.1543 57.8613 -9.0332 L 57.8613 -32.8125 L 53.5156 -32.8125 C 52.5391 -32.8125 51.9531 -33.4961 51.9531 -34.2773 Z"/>
  </g>
  <g id="Black-M" transform="matrix(1 0 0 1 2872.19 1126)">
   <path d="M 31.9824 13.5742 L 90.4297 13.5742 C 102.686 13.5742 109.961 6.29883 109.961 -5.95703 L 109.961 -64.4043 C 109.961 -76.6602 102.686 -83.9355 90.4297 -83.9355 L 31.9824 -83.9355 C 19.7266 -83.9355 12.4512 -76.6602 12.4512 -64.4043 L 12.4512 -5.95703 C 12.4512 6.29883 19.7266 13.5742 31.9824 13.5742 Z M 39.1602 -36.7188 C 39.1602 -37.8418 39.9902 -38.6719 41.1133 -38.6719 L 44.3359 -38.6719 L 44.3359 -50.3418 C 44.3359 -54.7363 47.1191 -57.666 51.2695 -57.666 C 55.4688 -57.666 58.3008 -54.7363 58.3008 -50.3418 L 58.3008 -38.8184 L 58.3496 -38.8184 L 67.8223 -53.9062 C 69.1406 -56.0547 71.4844 -57.5195 73.584 -57.5195 C 77.3926 -57.5195 79.9805 -55.1758 79.9805 -51.709 C 79.9805 -50.4883 79.4922 -48.8281 78.6621 -47.6562 L 72.2168 -38.6719 L 80.2246 -38.6719 C 81.3477 -38.6719 82.1289 -37.8418 82.1289 -36.7188 C 82.1289 -35.5469 81.3477 -34.7656 80.2246 -34.7656 L 71.7773 -34.7656 L 78.6621 -24.5605 C 79.7363 -22.998 80.4199 -20.8008 80.4199 -19.0918 C 80.4199 -15.3809 77.7344 -12.8418 73.584 -12.8418 C 70.9961 -12.8418 68.3105 -14.502 67.0898 -16.9434 L 58.3496 -33.5449 L 58.3008 -33.5449 L 58.3008 -20.166 C 58.3008 -15.7227 55.4688 -12.8418 51.2695 -12.8418 C 47.1191 -12.8418 44.3359 -15.7227 44.3359 -20.166 L 44.3359 -34.7656 L 41.1133 -34.7656 C 39.9902 -34.7656 39.1602 -35.5469 39.1602 -36.7188 Z"/>
  </g>
  <g id="Heavy-M" transform="matrix(1 0 0 1 2576.39 1126)">
   <path d="M 31.0059 12.6465 L 89.6484 12.6465 C 101.416 12.6465 108.154 5.9082 108.154 -5.81055 L 108.154 -64.5508 C 108.154 -76.2695 101.416 -83.0566 89.6484 -83.0566 L 31.0059 -83.0566 C 19.2383 -83.0566 12.4512 -76.3184 12.4512 -64.5508 L 12.4512 -5.81055 C 12.4512 5.9082 19.2383 12.6465 31.0059 12.6465 Z M 38.916 -36.2793 C 38.916 -37.4512 39.7461 -38.3301 40.918 -38.3301 L 44.1895 -38.3301 L 44.1895 -51.5625 C 44.1895 -55.4199 46.582 -57.959 50.2441 -57.959 C 53.9062 -57.959 56.3965 -55.4199 56.3965 -51.5625 L 56.3965 -38.4766 L 56.9336 -38.4766 L 68.0664 -54.7363 C 69.2871 -56.6406 71.2402 -57.8613 73.0957 -57.8613 C 76.416 -57.8613 78.7109 -55.7617 78.7109 -52.7344 C 78.7109 -51.6113 78.2715 -50.1953 77.4902 -49.1211 L 69.3848 -38.3301 L 78.5645 -38.3301 C 79.7852 -38.3301 80.6152 -37.4512 80.6152 -36.2793 C 80.6152 -35.0586 79.7852 -34.1797 78.5645 -34.1797 L 69.043 -34.1797 L 77.4902 -22.4121 C 78.4668 -21.0449 79.0527 -19.1895 79.0527 -17.7246 C 79.0527 -14.4531 76.6602 -12.207 73.0957 -12.207 C 70.8496 -12.207 68.6523 -13.5742 67.4805 -15.7227 L 56.9824 -33.252 L 56.3965 -33.252 L 56.3965 -18.6035 C 56.3965 -14.7461 53.9062 -12.207 50.2441 -12.207 C 46.582 -12.207 44.1895 -14.7461 44.1895 -18.6035 L 44.1895 -34.1797 L 40.918 -34.1797 C 39.7461 -34.1797 38.916 -35.0586 38.916 -36.2793 Z"/>
  </g>
  <g id="Bold-M" transform="matrix(1 0 0 1 2280.68 1126)">
   <path d="M 29.8828 11.6699 L 88.7207 11.6699 C 99.9512 11.6699 106.152 5.46875 106.152 -5.66406 L 106.152 -64.6973 C 106.152 -75.8789 99.9512 -82.0312 88.7207 -82.0312 L 29.8828 -82.0312 C 18.6523 -82.0312 12.4512 -75.8789 12.4512 -64.6973 L 12.4512 -5.66406 C 12.4512 5.51758 18.6523 11.6699 29.8828 11.6699 Z M 38.5742 -35.7422 C 38.5742 -37.0117 39.502 -37.9395 40.7715 -37.9395 L 43.9941 -37.9395 L 43.9941 -52.9785 C 43.9941 -56.25 45.9961 -58.3008 49.0723 -58.3008 C 52.1973 -58.3008 54.248 -56.25 54.248 -52.9785 L 54.248 -38.0371 L 55.3711 -38.0371 L 68.3105 -55.6641 C 69.3848 -57.3242 70.9961 -58.252 72.5098 -58.252 C 75.3418 -58.252 77.2949 -56.4453 77.2949 -53.8574 C 77.2949 -52.9297 76.8555 -51.6602 76.1719 -50.7324 L 66.2109 -37.9395 L 76.709 -37.9395 C 77.9785 -37.9395 78.9062 -37.0117 78.9062 -35.7422 C 78.9062 -34.4727 77.9785 -33.4961 76.709 -33.4961 L 65.9668 -33.4961 L 76.1719 -20.0195 C 77.002 -18.8477 77.5391 -17.3828 77.5391 -16.1621 C 77.5391 -13.4766 75.4883 -11.5234 72.5098 -11.5234 C 70.752 -11.5234 68.9941 -12.5977 67.9199 -14.4043 L 55.4199 -32.9102 L 54.248 -32.9102 L 54.248 -16.8945 C 54.248 -13.623 52.1484 -11.5234 49.0723 -11.5234 C 46.0449 -11.5234 43.9941 -13.623 43.9941 -16.8945 L 43.9941 -33.4961 L 40.7715 -33.4961 C 39.502 -33.4961 38.5742 -34.4727 38.5742 -35.7422 Z"/>
  </g>
  <g id="Semibold-M" transform="matrix(1 0 0 1 1984.65 1126)">
   <path d="M 29.1016 10.9863 L 88.0859 10.9863 C 98.9746 10.9863 104.785 5.17578 104.785 -5.56641 L 104.785 -64.8438 C 104.785 -75.5859 98.9746 -81.3477 88.0859 -81.3477 L 29.1016 -81.3477 C 18.2617 -81.3477 12.4512 -75.5859 12.4512 -64.8438 L 12.4512 -5.56641 C 12.4512 5.22461 18.2617 10.9863 29.1016 10.9863 Z M 38.3789 -35.4004 C 38.3789 -36.7188 39.3555 -37.6953 40.625 -37.6953 L 43.8477 -37.6953 L 43.8477 -53.9551 C 43.8477 -56.7871 45.6055 -58.5449 48.291 -58.5449 C 50.9766 -58.5449 52.7832 -56.7871 52.7832 -53.9551 L 52.7832 -37.793 L 54.2969 -37.793 L 68.457 -56.2988 C 69.4824 -57.7637 70.8496 -58.5449 72.1191 -58.5449 C 74.5605 -58.5449 76.2695 -56.8848 76.2695 -54.6387 C 76.2695 -53.8086 75.9277 -52.7344 75.293 -51.8555 L 64.0137 -37.6953 L 75.4395 -37.6953 C 76.8066 -37.6953 77.7344 -36.7188 77.7344 -35.4004 C 77.7344 -34.082 76.8066 -33.0566 75.4395 -33.0566 L 63.8672 -33.0566 L 75.293 -18.3594 C 76.0254 -17.3828 76.4648 -16.1133 76.4648 -15.1367 C 76.4648 -12.793 74.6582 -11.084 72.1191 -11.084 C 70.6543 -11.084 69.2383 -11.9141 68.2129 -13.4766 L 54.3945 -32.666 L 52.7832 -32.666 L 52.7832 -15.6738 C 52.7832 -12.8418 50.9277 -11.084 48.291 -11.084 C 45.6543 -11.084 43.8477 -12.8418 43.8477 -15.6738 L 43.8477 -33.0566 L 40.625 -33.0566 C 39.3555 -33.0566 38.3789 -34.082 38.3789 -35.4004 Z"/>
  </g>
  <g id="Medium-M" transform="matrix(1 0 0 1 1688.47 1126)">
   <path d="M 28.5156 10.4492 L 87.6465 10.4492 C 98.2422 10.4492 103.711 4.98047 103.711 -5.46875 L 103.711 -64.8926 C 103.711 -75.3418 98.2422 -80.8105 87.6465 -80.8105 L 28.5156 -80.8105 C 17.9688 -80.8105 12.4512 -75.3906 12.4512 -64.8926 L 12.4512 -5.46875 C 12.4512 4.98047 17.9688 10.4492 28.5156 10.4492 Z M 38.1836 -35.1074 C 38.1836 -36.5234 39.209 -37.5 40.5273 -37.5 L 43.75 -37.5 L 43.75 -54.6875 C 43.75 -57.1777 45.3125 -58.6914 47.7051 -58.6914 C 50.0488 -58.6914 51.6602 -57.1777 51.6602 -54.6875 L 51.6602 -37.5488 L 53.5156 -37.5488 L 68.5547 -56.7871 C 69.5312 -58.1543 70.7031 -58.7402 71.8262 -58.7402 C 73.9746 -58.7402 75.5371 -57.2266 75.5371 -55.2246 C 75.5371 -54.4922 75.1953 -53.5156 74.6094 -52.7344 L 62.3047 -37.5 L 74.4629 -37.5 C 75.8789 -37.5 76.8066 -36.5234 76.8066 -35.1074 C 76.8066 -33.7891 75.8789 -32.7148 74.4629 -32.7148 L 62.2559 -32.7148 L 74.6094 -17.0898 C 75.2441 -16.2109 75.6348 -15.1855 75.6348 -14.3066 C 75.6348 -12.2559 74.0234 -10.6934 71.8262 -10.6934 C 70.6055 -10.6934 69.3848 -11.377 68.457 -12.7441 L 53.6133 -32.4707 L 51.6602 -32.4707 L 51.6602 -14.7949 C 51.6602 -12.2559 50.0488 -10.6934 47.7051 -10.6934 C 45.3613 -10.6934 43.75 -12.2559 43.75 -14.7949 L 43.75 -32.7148 L 40.5273 -32.7148 C 39.209 -32.7148 38.1836 -33.7891 38.1836 -35.1074 Z"/>
  </g>
  <g id="Regular-M" transform="matrix(1 0 0 1 1392.45 1126)">
   <path d="M 27.7832 9.76562 L 87.0117 9.76562 C 97.2656 9.76562 102.344 4.6875 102.344 -5.37109 L 102.344 -64.9902 C 102.344 -75.0488 97.2656 -80.127 87.0117 -80.127 L 27.7832 -80.127 C 17.5781 -80.127 12.4512 -75.0977 12.4512 -64.9902 L 12.4512 -5.37109 C 12.4512 4.73633 17.5781 9.76562 27.7832 9.76562 Z M 37.9883 -34.7656 C 37.9883 -36.2305 39.0625 -37.2559 40.4297 -37.2559 L 43.6035 -37.2559 L 43.6035 -55.6152 C 43.6035 -57.7148 44.9219 -58.9355 46.9238 -58.9355 C 48.877 -58.9355 50.1465 -57.7148 50.1465 -55.6152 L 50.1465 -37.2559 L 52.4414 -37.2559 L 68.75 -57.4219 C 69.6289 -58.5938 70.5078 -59.0332 71.4844 -59.0332 C 73.2422 -59.0332 74.5605 -57.7148 74.5605 -56.0059 C 74.5605 -55.3711 74.2676 -54.541 73.6816 -53.8574 L 60.1562 -37.2559 L 73.1934 -37.2559 C 74.6582 -37.2559 75.6348 -36.2305 75.6348 -34.7656 C 75.6348 -33.3984 74.6582 -32.2266 73.1934 -32.2266 L 60.2051 -32.2266 L 73.7305 -15.4785 C 74.2676 -14.7461 74.6094 -13.916 74.6094 -13.2812 C 74.6094 -11.5723 73.1934 -10.2539 71.4355 -10.2539 C 70.5078 -10.2539 69.6289 -10.6934 68.75 -11.8164 L 52.5391 -32.2266 L 50.1465 -32.2266 L 50.1465 -13.5742 C 50.1465 -11.5234 48.8281 -10.2539 46.9238 -10.2539 C 44.9707 -10.2539 43.6035 -11.5234 43.6035 -13.5742 L 43.6035 -32.2266 L 40.4297 -32.2266 C 39.0625 -32.2266 37.9883 -33.3984 37.9883 -34.7656 Z"/>
  </g>
  <g id="Light-M" transform="matrix(1 0 0 1 1096.47 1126)">
   <path d="M 26.8555 9.0332 L 86.4746 9.0332 C 95.9961 9.0332 100.879 4.15039 100.879 -5.22461 L 100.879 -65.0879 C 100.879 -74.5117 95.9961 -79.3945 86.4746 -79.3945 L 26.8555 -79.3945 C 17.334 -79.3945 12.4512 -74.5605 12.4512 -65.0879 L 12.4512 -5.22461 C 12.4512 4.19922 17.334 9.0332 26.8555 9.0332 Z M 38.6719 -34.668 C 38.6719 -35.8887 39.5508 -36.7676 40.7227 -36.7676 L 43.9941 -36.7676 L 43.9941 -55.1758 C 43.9941 -56.8359 45.0195 -57.8125 46.6309 -57.8125 C 48.1445 -57.8125 49.1699 -56.8359 49.1699 -55.1758 L 49.1699 -36.7676 L 51.6113 -36.7676 L 68.1641 -56.5918 C 68.8965 -57.4707 69.5801 -57.8125 70.3613 -57.8125 C 71.7773 -57.8125 72.8027 -56.7871 72.8027 -55.4199 C 72.8027 -54.9316 72.6074 -54.248 72.1191 -53.7109 L 57.8125 -36.7676 L 71.8262 -36.7676 C 73.0469 -36.7676 73.877 -35.8887 73.877 -34.668 C 73.877 -33.5449 73.0469 -32.5684 71.8262 -32.5684 L 57.8125 -32.5684 L 72.0703 -15.5762 C 72.6074 -14.9414 72.8027 -14.3066 72.8027 -13.7695 C 72.8027 -12.4023 71.7285 -11.3281 70.3613 -11.3281 C 69.6289 -11.3281 68.8965 -11.7188 68.2617 -12.5488 L 51.6602 -32.5684 L 49.1699 -32.5684 L 49.1699 -14.0137 C 49.1699 -12.3535 48.0957 -11.3281 46.6309 -11.3281 C 45.1172 -11.3281 43.9941 -12.3535 43.9941 -14.0137 L 43.9941 -32.5684 L 40.7227 -32.5684 C 39.5508 -32.5684 38.6719 -33.5449 38.6719 -34.668 Z"/>
  </g>
  <g id="Thin-M" transform="matrix(1 0 0 1 800.758 1126)">
   <path d="M 25.6348 8.05664 L 85.7422 8.05664 C 94.3848 8.05664 98.877 3.4668 98.877 -5.0293 L 98.877 -65.2344 C 98.877 -73.7305 94.3848 -78.3691 85.7422 -78.3691 L 25.6348 -78.3691 C 16.9922 -78.3691 12.4512 -73.877 12.4512 -65.2344 L 12.4512 -5.0293 C 12.4512 3.56445 16.9922 8.05664 25.6348 8.05664 Z M 39.6484 -34.5703 C 39.6484 -35.4004 40.2344 -36.084 41.1621 -36.084 L 44.5312 -36.084 L 44.5312 -54.541 C 44.5312 -55.6152 45.166 -56.2988 46.1914 -56.2988 C 47.168 -56.2988 47.8516 -55.6152 47.8516 -54.541 L 47.8516 -36.084 L 50.5371 -36.084 L 67.4805 -55.4199 C 67.9199 -55.957 68.3105 -56.25 68.9453 -56.25 C 69.8242 -56.25 70.5078 -55.5664 70.5078 -54.6875 C 70.5078 -54.3457 70.4102 -53.9062 70.0195 -53.4668 L 54.6875 -36.084 L 69.9707 -36.084 C 70.9473 -36.084 71.5332 -35.4004 71.5332 -34.5703 C 71.5332 -33.7402 70.9473 -33.0566 69.9707 -33.0566 L 54.6387 -33.0566 L 69.9219 -15.6738 C 70.3613 -15.2344 70.459 -14.7949 70.459 -14.4043 C 70.459 -13.4766 69.7266 -12.8418 68.8965 -12.8418 C 68.4082 -12.8418 67.9688 -13.0371 67.5781 -13.4277 L 50.4883 -33.0566 L 47.8516 -33.0566 L 47.8516 -14.5508 C 47.8516 -13.4766 47.1191 -12.8418 46.1914 -12.8418 C 45.3125 -12.8418 44.5312 -13.4766 44.5312 -14.5508 L 44.5312 -33.0566 L 41.1621 -33.0566 C 40.2344 -33.0566 39.6484 -33.7402 39.6484 -34.5703 Z"/>
  </g>
  <g id="Ultralight-M" transform="matrix(1 0 0 1 504.535 1126)">
   <path d="M 25 7.56836 L 85.3516 7.56836 C 93.5059 7.56836 97.9004 3.125 97.9004 -4.98047 L 97.9004 -65.2832 C 97.9004 -73.3887 93.5059 -77.832 85.3516 -77.832 L 25 -77.832 C 16.7969 -77.832 12.4512 -73.4863 12.4512 -65.2832 L 12.4512 -4.98047 C 12.4512 3.22266 16.7969 7.56836 25 7.56836 Z M 40.1367 -34.5215 C 40.1367 -35.1562 40.625 -35.7422 41.4062 -35.7422 L 44.7754 -35.7422 L 44.7754 -54.248 C 44.7754 -55.0293 45.2637 -55.5176 45.9961 -55.5176 C 46.6309 -55.5176 47.168 -55.0293 47.168 -54.248 L 47.168 -35.7422 L 50 -35.7422 L 67.0898 -54.834 C 67.3828 -55.2246 67.6758 -55.4688 68.1641 -55.4688 C 68.8477 -55.4688 69.3359 -54.9805 69.3359 -54.2969 C 69.3359 -54.0527 69.2871 -53.7109 68.9453 -53.3691 L 53.0762 -35.7422 L 69.043 -35.7422 C 69.8242 -35.7422 70.3125 -35.1562 70.3125 -34.5215 C 70.3125 -33.8379 69.8242 -33.3008 69.043 -33.3008 L 53.0273 -33.3008 L 68.8477 -15.7715 C 69.1895 -15.3809 69.2871 -15.0391 69.2871 -14.6973 C 69.2871 -14.0625 68.7012 -13.5742 68.1152 -13.5742 C 67.8223 -13.5742 67.4805 -13.6719 67.2363 -13.916 L 49.8535 -33.3008 L 47.168 -33.3008 L 47.168 -14.8438 C 47.168 -14.0625 46.6309 -13.5742 45.9961 -13.5742 C 45.3613 -13.5742 44.7754 -14.0625 44.7754 -14.8438 L 44.7754 -33.3008 L 41.4062 -33.3008 C 40.625 -33.3008 40.1367 -33.8379 40.1367 -34.5215 Z"/>
  </g>
  <g id="Black-S" transform="matrix(1 0 0 1 2885.5 696)">
   <path d="M 25 2.92969 L 70.8008 2.92969 C 80.3711 2.92969 86.0352 -2.73438 86.0352 -12.3047 L 86.0352 -58.1055 C 86.0352 -67.6758 80.3711 -73.3398 70.8008 -73.3398 L 25 -73.3398 C 15.4297 -73.3398 9.76562 -67.6758 9.76562 -58.1055 L 9.76562 -12.3047 C 9.76562 -2.73438 15.4297 2.92969 25 2.92969 Z M 30.6641 -36.377 C 30.6641 -37.2559 31.2988 -37.8906 32.1777 -37.8906 L 34.7168 -37.8906 L 34.7168 -47.168 C 34.7168 -50.5859 36.8652 -52.832 40.0879 -52.832 C 43.3594 -52.832 45.5566 -50.5859 45.5566 -47.168 L 45.5566 -38.0371 L 45.6055 -38.0371 L 53.1738 -49.9512 C 54.1992 -51.6113 56.0059 -52.7344 57.6172 -52.7344 C 60.5957 -52.7344 62.5977 -50.9277 62.5977 -48.2422 C 62.5977 -47.2656 62.207 -45.9961 61.5723 -45.0684 L 56.3965 -37.8906 L 62.7441 -37.8906 C 63.623 -37.8906 64.2578 -37.2559 64.2578 -36.377 C 64.2578 -35.4492 63.623 -34.8145 62.7441 -34.8145 L 56.0547 -34.8145 L 61.5723 -26.709 C 62.4023 -25.4883 62.9395 -23.7793 62.9395 -22.4609 C 62.9395 -19.5801 60.8398 -17.627 57.6172 -17.627 C 55.6152 -17.627 53.5645 -18.8965 52.5879 -20.8008 L 45.6055 -33.8867 L 45.5566 -33.8867 L 45.5566 -23.291 C 45.5566 -19.873 43.3594 -17.627 40.0879 -17.627 C 36.8652 -17.627 34.7168 -19.873 34.7168 -23.291 L 34.7168 -34.8145 L 32.1777 -34.8145 C 31.2988 -34.8145 30.6641 -35.4492 30.6641 -36.377 Z"/>
  </g>
  <g id="Heavy-S" transform="matrix(1 0 0 1 2589.4 696)">
   <path d="M 24.3652 2.34375 L 70.2637 2.34375 C 79.541 2.34375 84.8145 -2.97852 84.8145 -12.207 L 84.8145 -58.2031 C 84.8145 -67.4316 79.541 -72.7539 70.2637 -72.7539 L 24.3652 -72.7539 C 15.0879 -72.7539 9.76562 -67.4316 9.76562 -58.2031 L 9.76562 -12.207 C 9.76562 -2.97852 15.0879 2.34375 24.3652 2.34375 Z M 30.3711 -36.0352 C 30.3711 -37.0117 31.0547 -37.6953 32.0312 -37.6953 L 34.5703 -37.6953 L 34.5703 -48.1934 C 34.5703 -51.2207 36.4746 -53.1738 39.3555 -53.1738 C 42.2363 -53.1738 44.1895 -51.2207 44.1895 -48.1934 L 44.1895 -37.793 L 44.6289 -37.793 L 53.418 -50.6836 C 54.3457 -52.1973 55.957 -53.125 57.373 -53.125 C 60.0098 -53.125 61.8164 -51.4648 61.8164 -49.0723 C 61.8164 -48.1934 61.4258 -47.0703 60.8398 -46.1914 L 54.4922 -37.6953 L 61.6211 -37.6953 C 62.5977 -37.6953 63.2812 -37.0117 63.2812 -36.0352 C 63.2812 -35.0586 62.5977 -34.3262 61.6211 -34.3262 L 54.248 -34.3262 L 60.8398 -25.0488 C 61.6211 -23.9746 62.0605 -22.5098 62.0605 -21.3379 C 62.0605 -18.7988 60.2051 -17.041 57.373 -17.041 C 55.6152 -17.041 53.9062 -18.1152 52.9297 -19.8242 L 44.6777 -33.5938 L 44.1895 -33.5938 L 44.1895 -22.0703 C 44.1895 -18.9941 42.2363 -17.041 39.3555 -17.041 C 36.4746 -17.041 34.5703 -18.9941 34.5703 -22.0703 L 34.5703 -34.3262 L 32.0312 -34.3262 C 31.0547 -34.3262 30.3711 -35.0586 30.3711 -36.0352 Z"/>
  </g>
  <g id="Bold-S" transform="matrix(1 0 0 1 2293.35 696)">
   <path d="M 23.6328 1.66016 L 69.6289 1.66016 C 78.6133 1.66016 83.4961 -3.22266 83.4961 -12.1094 L 83.4961 -58.3008 C 83.4961 -67.1875 78.6133 -72.0703 69.6289 -72.0703 L 23.6328 -72.0703 C 14.6973 -72.0703 9.76562 -67.1875 9.76562 -58.3008 L 9.76562 -12.1094 C 9.76562 -3.22266 14.6973 1.66016 23.6328 1.66016 Z M 30.0293 -35.6445 C 30.0293 -36.7188 30.8105 -37.5 31.8359 -37.5 L 34.375 -37.5 L 34.375 -49.3164 C 34.375 -51.9531 35.9863 -53.6133 38.5254 -53.6133 C 41.0156 -53.6133 42.6758 -51.9531 42.6758 -49.3164 L 42.6758 -37.5488 L 43.5547 -37.5488 L 53.6621 -51.5137 C 54.541 -52.832 55.8594 -53.6133 57.0801 -53.6133 C 59.3262 -53.6133 60.9375 -52.0996 60.9375 -50 C 60.9375 -49.2188 60.5957 -48.2422 60.0586 -47.4609 L 52.3438 -37.5 L 60.4004 -37.5 C 61.4258 -37.5 62.207 -36.7188 62.207 -35.6445 C 62.207 -34.5703 61.4258 -33.7891 60.4004 -33.7891 L 52.1973 -33.7891 L 60.0586 -23.1934 C 60.6934 -22.2656 61.1328 -21.0938 61.1328 -20.1172 C 61.1328 -17.9199 59.4727 -16.3574 57.0801 -16.3574 C 55.6641 -16.3574 54.248 -17.2363 53.3691 -18.7012 L 43.6035 -33.3008 L 42.6758 -33.3008 L 42.6758 -20.7031 C 42.6758 -18.0664 40.9668 -16.3574 38.5254 -16.3574 C 36.0352 -16.3574 34.375 -18.0664 34.375 -20.7031 L 34.375 -33.7891 L 31.8359 -33.7891 C 30.8105 -33.7891 30.0293 -34.5703 30.0293 -35.6445 Z"/>
  </g>
  <g id="Semibold-S" transform="matrix(1 0 0 1 1997.1 696)">
   <path d="M 23.0957 1.17188 L 69.1895 1.17188 C 77.9297 1.17188 82.5684 -3.36914 82.5684 -12.0117 L 82.5684 -58.3984 C 82.5684 -67.041 77.9297 -71.582 69.1895 -71.582 L 23.0957 -71.582 C 14.4043 -71.582 9.76562 -67.041 9.76562 -58.3984 L 9.76562 -12.0117 C 9.76562 -3.36914 14.4043 1.17188 23.0957 1.17188 Z M 29.7852 -35.3516 C 29.7852 -36.5234 30.6641 -37.3535 31.6895 -37.3535 L 34.2285 -37.3535 L 34.2285 -50.0977 C 34.2285 -52.4414 35.6934 -53.8574 37.9395 -53.8574 C 40.1367 -53.8574 41.6016 -52.4414 41.6016 -50.0977 L 41.6016 -37.4023 L 42.7734 -37.4023 L 53.8086 -52.0508 C 54.6875 -53.2715 55.8105 -53.9062 56.8848 -53.9062 C 58.8867 -53.9062 60.3027 -52.5391 60.3027 -50.6348 C 60.3027 -49.9512 60.0098 -49.0723 59.4727 -48.3398 L 50.8301 -37.3535 L 59.5215 -37.3535 C 60.6445 -37.3535 61.4258 -36.5234 61.4258 -35.3516 C 61.4258 -34.2773 60.6445 -33.3984 59.5215 -33.3984 L 50.7812 -33.3984 L 59.5215 -21.9238 C 60.1074 -21.0938 60.4492 -20.0684 60.4492 -19.2871 C 60.4492 -17.334 58.9355 -15.918 56.8848 -15.918 C 55.6641 -15.918 54.4922 -16.6016 53.6133 -17.9199 L 42.8711 -33.1055 L 41.6016 -33.1055 L 41.6016 -19.7266 C 41.6016 -17.3828 40.1367 -15.918 37.9395 -15.918 C 35.6934 -15.918 34.2285 -17.3828 34.2285 -19.7266 L 34.2285 -33.3984 L 31.6895 -33.3984 C 30.6641 -33.3984 29.7852 -34.2773 29.7852 -35.3516 Z"/>
  </g>
  <g id="Medium-S" transform="matrix(1 0 0 1 1700.75 696)">
   <path d="M 22.7051 0.830078 L 68.8965 0.830078 C 77.4414 0.830078 81.8359 -3.51562 81.8359 -11.9629 L 81.8359 -58.4473 C 81.8359 -66.8945 77.4414 -71.2402 68.8965 -71.2402 L 22.7051 -71.2402 C 14.209 -71.2402 9.76562 -66.8945 9.76562 -58.4473 L 9.76562 -11.9629 C 9.76562 -3.51562 14.209 0.830078 22.7051 0.830078 Z M 29.6387 -35.1562 C 29.6387 -36.377 30.5176 -37.207 31.6406 -37.207 L 34.1309 -37.207 L 34.1309 -50.6836 C 34.1309 -52.7832 35.4492 -54.1016 37.5 -54.1016 C 39.502 -54.1016 40.8203 -52.7832 40.8203 -50.6836 L 40.8203 -37.2559 L 42.2363 -37.2559 L 53.9551 -52.4902 C 54.7852 -53.6133 55.7617 -54.1504 56.7383 -54.1504 C 58.5449 -54.1504 59.8633 -52.832 59.8633 -51.123 C 59.8633 -50.4883 59.5703 -49.707 59.0332 -49.0234 L 49.707 -37.207 L 58.8867 -37.207 C 60.0586 -37.207 60.8887 -36.377 60.8887 -35.1562 C 60.8887 -34.0332 60.0586 -33.1055 58.8867 -33.1055 L 49.707 -33.1055 L 59.082 -20.9473 C 59.6191 -20.2148 59.9609 -19.3359 59.9609 -18.6523 C 59.9609 -16.8945 58.5449 -15.5762 56.7383 -15.5762 C 55.6641 -15.5762 54.6875 -16.1621 53.8574 -17.334 L 42.334 -32.9102 L 40.8203 -32.9102 L 40.8203 -19.043 C 40.8203 -16.8945 39.4531 -15.5762 37.5 -15.5762 C 35.498 -15.5762 34.1309 -16.8945 34.1309 -19.043 L 34.1309 -33.1055 L 31.6406 -33.1055 C 30.5176 -33.1055 29.6387 -34.0332 29.6387 -35.1562 Z"/>
  </g>
  <g id="Regular-S" transform="matrix(1 0 0 1 1404.51 696)">
   <path d="M 22.2168 0.390625 L 68.457 0.390625 C 76.8066 0.390625 80.9082 -3.71094 80.9082 -11.9141 L 80.9082 -58.4961 C 80.9082 -66.6992 76.8066 -70.8008 68.457 -70.8008 L 22.2168 -70.8008 C 13.916 -70.8008 9.76562 -66.6992 9.76562 -58.4961 L 9.76562 -11.9141 C 9.76562 -3.71094 13.916 0.390625 22.2168 0.390625 Z M 29.3945 -34.9121 C 29.3945 -36.1816 30.3711 -37.0605 31.4941 -37.0605 L 33.9844 -37.0605 L 33.9844 -51.4648 C 33.9844 -53.2715 35.1074 -54.3457 36.9141 -54.3457 C 38.6719 -54.3457 39.7949 -53.2715 39.7949 -51.4648 L 39.7949 -37.0605 L 41.4551 -37.0605 L 54.1016 -53.0273 C 54.9316 -54.0527 55.7129 -54.4434 56.543 -54.4434 C 58.0566 -54.4434 59.2285 -53.2715 59.2285 -51.7578 C 59.2285 -51.2207 58.9844 -50.4883 58.4961 -49.9023 L 48.291 -37.0605 L 58.0566 -37.0605 C 59.2773 -37.0605 60.1074 -36.1816 60.1074 -34.9121 C 60.1074 -33.6914 59.2773 -32.7148 58.0566 -32.7148 L 48.291 -32.7148 L 58.5449 -19.6777 C 59.0332 -19.0918 59.2773 -18.3594 59.2773 -17.8223 C 59.2773 -16.3086 58.0566 -15.1367 56.4941 -15.1367 C 55.6641 -15.1367 54.9316 -15.5273 54.1016 -16.5527 L 41.6016 -32.7148 L 39.7949 -32.7148 L 39.7949 -18.0664 C 39.7949 -16.2598 38.623 -15.1367 36.9141 -15.1367 C 35.1562 -15.1367 33.9844 -16.2598 33.9844 -18.0664 L 33.9844 -32.7148 L 31.4941 -32.7148 C 30.3711 -32.7148 29.3945 -33.6914 29.3945 -34.9121 Z"/>
  </g>
  <g id="Light-S" transform="matrix(1 0 0 1 1108.46 696)">
   <path d="M 21.3867 -0.292969 L 67.9688 -0.292969 C 75.7324 -0.292969 79.5898 -4.15039 79.5898 -11.7676 L 79.5898 -58.5938 C 79.5898 -66.2109 75.7324 -70.1172 67.9688 -70.1172 L 21.3867 -70.1172 C 13.6719 -70.1172 9.76562 -66.2598 9.76562 -58.5938 L 9.76562 -11.7676 C 9.76562 -4.15039 13.6719 -0.292969 21.3867 -0.292969 Z M 30.0293 -34.8145 C 30.0293 -35.8887 30.8105 -36.6211 31.7871 -36.6211 L 34.3262 -36.6211 L 34.3262 -51.0254 C 34.3262 -52.4902 35.2051 -53.3691 36.6211 -53.3691 C 37.9883 -53.3691 38.916 -52.4902 38.916 -51.0254 L 38.916 -36.6211 L 40.7715 -36.6211 L 53.6133 -52.2949 C 54.248 -53.0762 54.8828 -53.418 55.5664 -53.418 C 56.7871 -53.418 57.7148 -52.4902 57.7148 -51.2695 C 57.7148 -50.8301 57.5195 -50.2441 57.0801 -49.7559 L 46.1914 -36.6211 L 56.7871 -36.6211 C 57.8613 -36.6211 58.5449 -35.8887 58.5449 -34.8145 C 58.5449 -33.8379 57.8613 -33.0078 56.7871 -33.0078 L 46.1914 -33.0078 L 57.0801 -19.7754 C 57.5195 -19.2871 57.7148 -18.7012 57.7148 -18.2129 C 57.7148 -17.041 56.7383 -16.1133 55.5176 -16.1133 C 54.8828 -16.1133 54.248 -16.4062 53.6621 -17.1875 L 40.8203 -33.0078 L 38.916 -33.0078 L 38.916 -18.457 C 38.916 -16.9922 37.9395 -16.1133 36.6211 -16.1133 C 35.3027 -16.1133 34.3262 -16.9922 34.3262 -18.457 L 34.3262 -33.0078 L 31.7871 -33.0078 C 30.8105 -33.0078 30.0293 -33.8379 30.0293 -34.8145 Z"/>
  </g>
  <g id="Thin-S" transform="matrix(1 0 0 1 812.599 696)">
   <path d="M 20.3125 -1.12305 L 67.334 -1.12305 C 74.2676 -1.12305 77.8809 -4.78516 77.8809 -11.6211 L 77.8809 -58.6914 C 77.8809 -65.5762 74.2676 -69.2383 67.334 -69.2383 L 20.3125 -69.2383 C 13.3789 -69.2383 9.76562 -65.625 9.76562 -58.6914 L 9.76562 -11.6211 C 9.76562 -4.6875 13.3789 -1.12305 20.3125 -1.12305 Z M 30.8594 -34.7168 C 30.8594 -35.4492 31.3965 -36.0352 32.1777 -36.0352 L 34.7656 -36.0352 L 34.7656 -50.4883 C 34.7656 -51.4648 35.3516 -52.002 36.2793 -52.002 C 37.1094 -52.002 37.7441 -51.4648 37.7441 -50.4883 L 37.7441 -36.0352 L 39.7949 -36.0352 L 52.9785 -51.2695 C 53.3691 -51.7578 53.7598 -52.002 54.2969 -52.002 C 55.0781 -52.002 55.6641 -51.416 55.6641 -50.6348 C 55.6641 -50.3418 55.5664 -49.9023 55.2734 -49.5605 L 43.457 -36.0352 L 55.1758 -36.0352 C 55.957 -36.0352 56.4941 -35.4492 56.4941 -34.7168 C 56.4941 -34.0332 55.957 -33.4473 55.1758 -33.4473 L 43.4082 -33.4473 L 55.2246 -19.873 C 55.5664 -19.5312 55.6641 -19.0918 55.6641 -18.7988 C 55.6641 -17.9688 55.0293 -17.3828 54.248 -17.3828 C 53.8574 -17.3828 53.418 -17.5781 53.0762 -17.9688 L 39.7949 -33.4473 L 37.7441 -33.4473 L 37.7441 -18.9453 C 37.7441 -17.9688 37.1094 -17.3828 36.2793 -17.3828 C 35.4492 -17.3828 34.7656 -17.9688 34.7656 -18.9453 L 34.7656 -33.4473 L 32.1777 -33.4473 C 31.3965 -33.4473 30.8594 -34.0332 30.8594 -34.7168 Z"/>
  </g>
  <g id="Ultralight-S" transform="matrix(1 0 0 1 516.352 696)">
   <path d="M 19.7754 -1.5625 L 66.9922 -1.5625 C 73.5352 -1.5625 76.9531 -5.12695 76.9531 -11.5234 L 76.9531 -58.7891 C 76.9531 -65.2344 73.5352 -68.75 66.9922 -68.75 L 19.7754 -68.75 C 13.2324 -68.75 9.76562 -65.2832 9.76562 -58.7891 L 9.76562 -11.5234 C 9.76562 -5.0293 13.2324 -1.5625 19.7754 -1.5625 Z M 31.2988 -34.668 C 31.2988 -35.2539 31.7383 -35.6934 32.373 -35.6934 L 35.0098 -35.6934 L 35.0098 -50.1953 C 35.0098 -50.9277 35.4492 -51.3184 36.084 -51.3184 C 36.6699 -51.3184 37.1582 -50.9277 37.1582 -50.1953 L 37.1582 -35.6934 L 39.3066 -35.6934 L 52.6855 -50.7324 C 52.9297 -51.0742 53.2227 -51.2695 53.6133 -51.2695 C 54.1992 -51.2695 54.6387 -50.8789 54.6387 -50.293 C 54.6387 -50.0488 54.5898 -49.7559 54.2969 -49.4629 L 42.041 -35.6934 L 54.3457 -35.6934 C 55.0293 -35.6934 55.4199 -35.2539 55.4199 -34.668 C 55.4199 -34.1309 55.0293 -33.6426 54.3457 -33.6426 L 41.9922 -33.6426 L 54.248 -19.9707 C 54.541 -19.6289 54.5898 -19.3359 54.5898 -19.0918 C 54.5898 -18.5059 54.1016 -18.0664 53.5645 -18.0664 C 53.3203 -18.0664 52.9785 -18.1641 52.7344 -18.4082 L 39.2578 -33.6426 L 37.1582 -33.6426 L 37.1582 -19.1895 C 37.1582 -18.5059 36.6699 -18.0664 36.084 -18.0664 C 35.5469 -18.0664 35.0098 -18.5059 35.0098 -19.1895 L 35.0098 -33.6426 L 32.373 -33.6426 C 31.7383 -33.6426 31.2988 -34.1309 31.2988 -34.668 Z"/>
  </g>
 </g>
</svg>
