<?xml version="1.0" encoding="UTF-8"?>
<!--Generator: Apple Native CoreSVG 148-->
<!DOCTYPE svg
PUBLIC "-//W3C//DTD SVG 1.1//EN"
       "http://www.w3.org/Graphics/SVG/1.1/DTD/svg11.dtd">
<svg version="1.1" xmlns="http://www.w3.org/2000/svg" xmlns:xlink="http://www.w3.org/1999/xlink" width="3300" height="2200">
 <!--glyph: "uni100635.medium", point size: 100.000000, font version: "Version 16.0d11e1", template writer version: "8"-->
 <g id="Notes">
  <rect height="2200" id="artboard" style="fill:white;opacity:1" width="3300" x="0" y="0"/>
  <line id="" style="fill:none;stroke:black;opacity:1;stroke-width:0.5;" x1="263" x2="3036" y1="292" y2="292"/>
  <text style="stroke:none;fill:black;font-family:-apple-system,&quot;SF Pro Display&quot;,&quot;SF Pro Text&quot;,Helvetica,sans-serif;font-weight:bold;" transform="matrix(1 0 0 1 263 322)">Weight/Scale Variations</text>
  <text style="stroke:none;fill:black;font-family:-apple-system,&quot;SF Pro Display&quot;,&quot;SF Pro Text&quot;,Helvetica,sans-serif;text-anchor:middle;" transform="matrix(1 0 0 1 559.711 322)">Ultralight</text>
  <text style="stroke:none;fill:black;font-family:-apple-system,&quot;SF Pro Display&quot;,&quot;SF Pro Text&quot;,Helvetica,sans-serif;text-anchor:middle;" transform="matrix(1 0 0 1 856.422 322)">Thin</text>
  <text style="stroke:none;fill:black;font-family:-apple-system,&quot;SF Pro Display&quot;,&quot;SF Pro Text&quot;,Helvetica,sans-serif;text-anchor:middle;" transform="matrix(1 0 0 1 1153.13 322)">Light</text>
  <text style="stroke:none;fill:black;font-family:-apple-system,&quot;SF Pro Display&quot;,&quot;SF Pro Text&quot;,Helvetica,sans-serif;text-anchor:middle;" transform="matrix(1 0 0 1 1449.84 322)">Regular</text>
  <text style="stroke:none;fill:black;font-family:-apple-system,&quot;SF Pro Display&quot;,&quot;SF Pro Text&quot;,Helvetica,sans-serif;text-anchor:middle;" transform="matrix(1 0 0 1 1746.56 322)">Medium</text>
  <text style="stroke:none;fill:black;font-family:-apple-system,&quot;SF Pro Display&quot;,&quot;SF Pro Text&quot;,Helvetica,sans-serif;text-anchor:middle;" transform="matrix(1 0 0 1 2043.27 322)">Semibold</text>
  <text style="stroke:none;fill:black;font-family:-apple-system,&quot;SF Pro Display&quot;,&quot;SF Pro Text&quot;,Helvetica,sans-serif;text-anchor:middle;" transform="matrix(1 0 0 1 2339.98 322)">Bold</text>
  <text style="stroke:none;fill:black;font-family:-apple-system,&quot;SF Pro Display&quot;,&quot;SF Pro Text&quot;,Helvetica,sans-serif;text-anchor:middle;" transform="matrix(1 0 0 1 2636.69 322)">Heavy</text>
  <text style="stroke:none;fill:black;font-family:-apple-system,&quot;SF Pro Display&quot;,&quot;SF Pro Text&quot;,Helvetica,sans-serif;text-anchor:middle;" transform="matrix(1 0 0 1 2933.4 322)">Black</text>
  <line id="" style="fill:none;stroke:black;opacity:1;stroke-width:0.5;" x1="263" x2="3036" y1="1903" y2="1903"/>
  <g id="" transform="matrix(1 0 0 1 263 1933)">
   <path d="M 9.24805 0.830078 C 13.5547 0.830078 17.1387 -2.74414 17.1387 -7.05078 C 17.1387 -11.3574 13.5449 -14.9316 9.23828 -14.9316 C 4.94141 -14.9316 1.36719 -11.3574 1.36719 -7.05078 C 1.36719 -2.74414 4.95117 0.830078 9.24805 0.830078 Z M 9.24805 -0.654297 C 5.70312 -0.654297 2.87109 -3.49609 2.87109 -7.05078 C 2.87109 -10.6055 5.69336 -13.4473 9.23828 -13.4473 C 12.793 -13.4473 15.6348 -10.6055 15.6445 -7.05078 C 15.6543 -3.49609 12.8027 -0.654297 9.24805 -0.654297 Z M 9.22852 -3.62305 C 9.69727 -3.62305 9.9707 -3.93555 9.9707 -4.45312 L 9.9707 -6.31836 L 12.002 -6.31836 C 12.5 -6.31836 12.832 -6.57227 12.832 -7.04102 C 12.832 -7.51953 12.5195 -7.7832 12.002 -7.7832 L 9.9707 -7.7832 L 9.9707 -9.81445 C 9.9707 -10.332 9.69727 -10.6543 9.22852 -10.6543 C 8.75977 -10.6543 8.50586 -10.3125 8.50586 -9.81445 L 8.50586 -7.7832 L 6.49414 -7.7832 C 5.97656 -7.7832 5.64453 -7.51953 5.64453 -7.04102 C 5.64453 -6.57227 5.99609 -6.31836 6.49414 -6.31836 L 8.50586 -6.31836 L 8.50586 -4.45312 C 8.50586 -3.95508 8.75977 -3.62305 9.22852 -3.62305 Z"/>
  </g>
  <g id="" transform="matrix(1 0 0 1 281.506 1933)">
   <path d="M 11.709 2.91016 C 17.1582 2.91016 21.6699 -1.61133 21.6699 -7.05078 C 21.6699 -12.5 17.1484 -17.0117 11.6992 -17.0117 C 6.25977 -17.0117 1.74805 -12.5 1.74805 -7.05078 C 1.74805 -1.61133 6.26953 2.91016 11.709 2.91016 Z M 11.709 1.25 C 7.09961 1.25 3.41797 -2.44141 3.41797 -7.05078 C 3.41797 -11.6602 7.08984 -15.3516 11.6992 -15.3516 C 16.3086 -15.3516 20 -11.6602 20.0098 -7.05078 C 20.0195 -2.44141 16.3184 1.25 11.709 1.25 Z M 11.6797 -2.66602 C 12.207 -2.66602 12.5098 -3.01758 12.5098 -3.59375 L 12.5098 -6.23047 L 15.3223 -6.23047 C 15.8691 -6.23047 16.25 -6.51367 16.25 -7.03125 C 16.25 -7.55859 15.8887 -7.86133 15.3223 -7.86133 L 12.5098 -7.86133 L 12.5098 -10.6836 C 12.5098 -11.25 12.207 -11.6113 11.6797 -11.6113 C 11.1621 -11.6113 10.8789 -11.2305 10.8789 -10.6836 L 10.8789 -7.86133 L 8.07617 -7.86133 C 7.50977 -7.86133 7.13867 -7.55859 7.13867 -7.03125 C 7.13867 -6.51367 7.5293 -6.23047 8.07617 -6.23047 L 10.8789 -6.23047 L 10.8789 -3.59375 C 10.8789 -3.03711 11.1621 -2.66602 11.6797 -2.66602 Z"/>
  </g>
  <g id="" transform="matrix(1 0 0 1 304.924 1933)">
   <path d="M 14.9707 5.66406 C 21.9336 5.66406 27.6953 -0.0976562 27.6953 -7.05078 C 27.6953 -14.0137 21.9238 -19.7754 14.9609 -19.7754 C 8.00781 -19.7754 2.25586 -14.0137 2.25586 -7.05078 C 2.25586 -0.0976562 8.01758 5.66406 14.9707 5.66406 Z M 14.9707 3.84766 C 8.93555 3.84766 4.08203 -1.01562 4.08203 -7.05078 C 4.08203 -13.0957 8.92578 -17.9492 14.9609 -17.9492 C 21.0059 -17.9492 25.8594 -13.0957 25.8691 -7.05078 C 25.8789 -1.01562 21.0156 3.84766 14.9707 3.84766 Z M 14.9414 -1.38672 C 15.5176 -1.38672 15.8594 -1.77734 15.8594 -2.38281 L 15.8594 -6.13281 L 19.7754 -6.13281 C 20.3711 -6.13281 20.7812 -6.46484 20.7812 -7.02148 C 20.7812 -7.59766 20.3906 -7.93945 19.7754 -7.93945 L 15.8594 -7.93945 L 15.8594 -11.8652 C 15.8594 -12.4805 15.5176 -12.8711 14.9414 -12.8711 C 14.375 -12.8711 14.0527 -12.4609 14.0527 -11.8652 L 14.0527 -7.93945 L 10.1465 -7.93945 C 9.53125 -7.93945 9.13086 -7.59766 9.13086 -7.02148 C 9.13086 -6.46484 9.55078 -6.13281 10.1465 -6.13281 L 14.0527 -6.13281 L 14.0527 -2.38281 C 14.0527 -1.79688 14.375 -1.38672 14.9414 -1.38672 Z"/>
  </g>
  <text style="stroke:none;fill:black;font-family:-apple-system,&quot;SF Pro Display&quot;,&quot;SF Pro Text&quot;,Helvetica,sans-serif;font-weight:bold;" transform="matrix(1 0 0 1 263 1953)">Design Variations</text>
  <text style="stroke:none;fill:black;font-family:-apple-system,&quot;SF Pro Display&quot;,&quot;SF Pro Text&quot;,Helvetica,sans-serif;" transform="matrix(1 0 0 1 263 1971)">Symbols are supported in up to nine weights and three scales.</text>
  <text style="stroke:none;fill:black;font-family:-apple-system,&quot;SF Pro Display&quot;,&quot;SF Pro Text&quot;,Helvetica,sans-serif;" transform="matrix(1 0 0 1 263 1989)">For optimal layout with text and other symbols, vertically align</text>
  <text style="stroke:none;fill:black;font-family:-apple-system,&quot;SF Pro Display&quot;,&quot;SF Pro Text&quot;,Helvetica,sans-serif;" transform="matrix(1 0 0 1 263 2007)">symbols with the adjacent text.</text>
  <line id="" style="fill:none;stroke:#00AEEF;stroke-width:0.5;opacity:1.0;" x1="776" x2="776" y1="1919" y2="1933"/>
  <g id="" transform="matrix(1 0 0 1 776 1933)">
   <path d="M 3.31055 0.126953 C 3.82812 0.126953 4.08203 -0.0683594 4.26758 -0.605469 L 5.52734 -4.0625 L 11.2891 -4.0625 L 12.5488 -0.605469 C 12.7344 -0.0683594 12.9883 0.126953 13.4961 0.126953 C 14.0137 0.126953 14.3457 -0.185547 14.3457 -0.673828 C 14.3457 -0.839844 14.3164 -0.986328 14.2383 -1.20117 L 9.6582 -13.3887 C 9.43359 -13.9941 9.0332 -14.2871 8.4082 -14.2871 C 7.80273 -14.2871 7.39258 -13.9941 7.17773 -13.3984 L 2.59766 -1.19141 C 2.51953 -0.976562 2.49023 -0.830078 2.49023 -0.664062 C 2.49023 -0.175781 2.80273 0.126953 3.31055 0.126953 Z M 6.00586 -5.53711 L 8.37891 -12.1094 L 8.42773 -12.1094 L 10.8008 -5.53711 Z"/>
  </g>
  <line id="" style="fill:none;stroke:#00AEEF;stroke-width:0.5;opacity:1.0;" x1="792.836" x2="792.836" y1="1919" y2="1933"/>
  <text style="stroke:none;fill:black;font-family:-apple-system,&quot;SF Pro Display&quot;,&quot;SF Pro Text&quot;,Helvetica,sans-serif;font-weight:bold;" transform="matrix(1 0 0 1 776 1953)">Margins</text>
  <text style="stroke:none;fill:black;font-family:-apple-system,&quot;SF Pro Display&quot;,&quot;SF Pro Text&quot;,Helvetica,sans-serif;" transform="matrix(1 0 0 1 776 1971)">Leading and trailing margins on the left and right side of each symbol</text>
  <text style="stroke:none;fill:black;font-family:-apple-system,&quot;SF Pro Display&quot;,&quot;SF Pro Text&quot;,Helvetica,sans-serif;" transform="matrix(1 0 0 1 776 1989)">can be adjusted by modifying the x-location of the margin guidelines.</text>
  <text style="stroke:none;fill:black;font-family:-apple-system,&quot;SF Pro Display&quot;,&quot;SF Pro Text&quot;,Helvetica,sans-serif;" transform="matrix(1 0 0 1 776 2007)">Modifications are automatically applied proportionally to all</text>
  <text style="stroke:none;fill:black;font-family:-apple-system,&quot;SF Pro Display&quot;,&quot;SF Pro Text&quot;,Helvetica,sans-serif;" transform="matrix(1 0 0 1 776 2025)">scales and weights.</text>
  <g id="" transform="matrix(1 0 0 1 1289 1933)">
   <path d="M 2.8418 1.86523 L 4.54102 3.57422 C 5.40039 4.44336 6.38672 4.38477 7.31445 3.35938 L 17.4902 -7.85156 C 17.7539 -7.76367 18.0273 -7.7832 18.3398 -7.8418 L 19.4043 -8.03711 L 20.0684 -7.36328 L 20.0293 -6.80664 C 19.9902 -6.30859 20.1172 -5.92773 20.6055 -5.44922 L 21.3672 -4.70703 C 21.8457 -4.22852 22.4609 -4.19922 22.9297 -4.66797 L 25.8398 -7.58789 C 26.3086 -8.05664 26.2891 -8.65234 25.8105 -9.13086 L 25.0391 -9.89258 C 24.5605 -10.3711 24.1895 -10.5273 23.7109 -10.4883 L 23.1348 -10.4395 L 22.4902 -11.0742 L 22.7344 -12.1973 C 22.8613 -12.7637 22.7051 -13.2031 22.1191 -13.7891 L 19.9219 -15.9766 C 16.582 -19.2969 12.1484 -19.2188 9.25781 -16.3281 C 8.83789 -15.918 8.80859 -15.3418 9.04297 -14.9512 C 9.27734 -14.5898 9.73633 -14.3555 10.3809 -14.5215 C 11.8457 -14.8633 13.3691 -14.9219 14.7949 -13.9844 L 14.209 -12.5293 C 14.0137 -12.0508 13.9844 -11.6504 14.1113 -11.2891 L 3.04688 -0.898438 C 2.06055 0.0195312 1.98242 0.996094 2.8418 1.86523 Z M 10.752 -15.957 C 13.1836 -17.7344 16.4746 -17.4316 18.7012 -15.2051 L 21.1328 -12.793 C 21.3672 -12.5586 21.4062 -12.373 21.3379 -12.0312 L 21.0156 -10.5469 L 22.5195 -9.0625 L 23.5059 -9.12109 C 23.7598 -9.13086 23.8379 -9.11133 24.0332 -8.91602 L 24.6094 -8.33984 L 22.168 -5.89844 L 21.5918 -6.47461 C 21.3965 -6.66992 21.3672 -6.74805 21.377 -7.01172 L 21.4453 -7.98828 L 19.9512 -9.47266 L 18.4277 -9.21875 C 18.1055 -9.15039 17.959 -9.17969 17.7148 -9.41406 L 15.7129 -11.416 C 15.459 -11.6504 15.4297 -11.8164 15.5859 -12.1875 L 16.4648 -14.2773 C 14.9023 -15.7324 12.8711 -16.3574 10.8398 -15.7617 C 10.6836 -15.7227 10.625 -15.8496 10.752 -15.957 Z M 5.27344 2.30469 L 4.10156 1.14258 C 3.63281 0.683594 3.74023 0.341797 4.14062 -0.0195312 L 14.9512 -10.1953 L 16.416 -8.71094 L 6.42578 2.27539 C 6.07422 2.67578 5.74219 2.77344 5.27344 2.30469 Z"/>
  </g>
  <text style="stroke:none;fill:black;font-family:-apple-system,&quot;SF Pro Display&quot;,&quot;SF Pro Text&quot;,Helvetica,sans-serif;font-weight:bold;" transform="matrix(1 0 0 1 1289 1953)">Exporting</text>
  <text style="stroke:none;fill:black;font-family:-apple-system,&quot;SF Pro Display&quot;,&quot;SF Pro Text&quot;,Helvetica,sans-serif;" transform="matrix(1 0 0 1 1289 1971)">Symbols should be outlined when exporting to ensure the</text>
  <text style="stroke:none;fill:black;font-family:-apple-system,&quot;SF Pro Display&quot;,&quot;SF Pro Text&quot;,Helvetica,sans-serif;" transform="matrix(1 0 0 1 1289 1989)">design is preserved when submitting to Xcode.</text>
  <text id="template-version" style="stroke:none;fill:black;font-family:-apple-system,&quot;SF Pro Display&quot;,&quot;SF Pro Text&quot;,Helvetica,sans-serif;text-anchor:end;" transform="matrix(1 0 0 1 3036 1933)">Template v.2.0</text>
  <text style="stroke:none;fill:black;font-family:-apple-system,&quot;SF Pro Display&quot;,&quot;SF Pro Text&quot;,Helvetica,sans-serif;text-anchor:end;" transform="matrix(1 0 0 1 3036 1951)">Requires Xcode 12 or greater</text>
  <text style="stroke:none;fill:black;font-family:-apple-system,&quot;SF Pro Display&quot;,&quot;SF Pro Text&quot;,Helvetica,sans-serif;text-anchor:end;" transform="matrix(1 0 0 1 3036 1969)">Generated from line.horizontal.2.decrease.circle</text>
  <text style="stroke:none;fill:black;font-family:-apple-system,&quot;SF Pro Display&quot;,&quot;SF Pro Text&quot;,Helvetica,sans-serif;text-anchor:end;" transform="matrix(1 0 0 1 3036 1987)">Typeset at 100 points</text>
  <text style="stroke:none;fill:black;font-family:-apple-system,&quot;SF Pro Display&quot;,&quot;SF Pro Text&quot;,Helvetica,sans-serif;" transform="matrix(1 0 0 1 263 726)">Small</text>
  <text style="stroke:none;fill:black;font-family:-apple-system,&quot;SF Pro Display&quot;,&quot;SF Pro Text&quot;,Helvetica,sans-serif;" transform="matrix(1 0 0 1 263 1156)">Medium</text>
  <text style="stroke:none;fill:black;font-family:-apple-system,&quot;SF Pro Display&quot;,&quot;SF Pro Text&quot;,Helvetica,sans-serif;" transform="matrix(1 0 0 1 263 1586)">Large</text>
 </g>
 <g id="Guides">
  <g id="H-reference" style="fill:#27AAE1;stroke:none;" transform="matrix(1 0 0 1 339 696)">
   <path d="M 0.976562 0 L 3.66211 0 L 12.9883 -24.4629 L 45.7031 -24.4629 L 55.0781 0 L 57.7148 0 L 30.6152 -70.459 L 28.125 -70.459 Z M 29.2969 -67.1387 L 29.3945 -67.1387 L 44.873 -26.709 L 13.8672 -26.709 Z"/>
  </g>
  <line id="Baseline-S" style="fill:none;stroke:#27AAE1;opacity:1;stroke-width:0.5;" x1="263" x2="3036" y1="696" y2="696"/>
  <line id="Capline-S" style="fill:none;stroke:#27AAE1;opacity:1;stroke-width:0.5;" x1="263" x2="3036" y1="625.541" y2="625.541"/>
  <g id="H-reference" style="fill:#27AAE1;stroke:none;" transform="matrix(1 0 0 1 339 1126)">
   <path d="M 0.976562 0 L 3.66211 0 L 12.9883 -24.4629 L 45.7031 -24.4629 L 55.0781 0 L 57.7148 0 L 30.6152 -70.459 L 28.125 -70.459 Z M 29.2969 -67.1387 L 29.3945 -67.1387 L 44.873 -26.709 L 13.8672 -26.709 Z"/>
  </g>
  <line id="Baseline-M" style="fill:none;stroke:#27AAE1;opacity:1;stroke-width:0.5;" x1="263" x2="3036" y1="1126" y2="1126"/>
  <line id="Capline-M" style="fill:none;stroke:#27AAE1;opacity:1;stroke-width:0.5;" x1="263" x2="3036" y1="1055.54" y2="1055.54"/>
  <g id="H-reference" style="fill:#27AAE1;stroke:none;" transform="matrix(1 0 0 1 339 1556)">
   <path d="M 0.976562 0 L 3.66211 0 L 12.9883 -24.4629 L 45.7031 -24.4629 L 55.0781 0 L 57.7148 0 L 30.6152 -70.459 L 28.125 -70.459 Z M 29.2969 -67.1387 L 29.3945 -67.1387 L 44.873 -26.709 L 13.8672 -26.709 Z"/>
  </g>
  <line id="Baseline-L" style="fill:none;stroke:#27AAE1;opacity:1;stroke-width:0.5;" x1="263" x2="3036" y1="1556" y2="1556"/>
  <line id="Capline-L" style="fill:none;stroke:#27AAE1;opacity:1;stroke-width:0.5;" x1="263" x2="3036" y1="1485.54" y2="1485.54"/>
  <line id="left-margin" style="fill:none;stroke:#00AEEF;stroke-width:0.5;opacity:1.0;" x1="1391.3" x2="1391.3" y1="1030.79" y2="1150.12"/>
  <line id="right-margin" style="fill:none;stroke:#00AEEF;stroke-width:0.5;opacity:1.0;" x1="1508.39" x2="1508.39" y1="1030.79" y2="1150.12"/>
 </g>
 <g id="Symbols">
  <g id="Black-L" transform="matrix(1 0 0 1 2854.05 1556)">
   <path d="M 79.3457 32.8613 C 116.748 32.8613 147.412 2.19727 147.412 -35.2051 C 147.412 -72.6074 116.748 -103.271 79.2969 -103.271 C 41.8945 -103.271 11.2793 -72.6074 11.2793 -35.2051 C 11.2793 2.19727 41.9434 32.8613 79.3457 32.8613 Z M 79.3457 12.4023 C 52.9785 12.4023 31.7383 -8.83789 31.7383 -35.2051 C 31.7383 -61.5723 52.9297 -82.8125 79.2969 -82.8125 C 105.664 -82.8125 126.953 -61.5723 126.953 -35.2051 C 127.002 -8.83789 105.713 12.4023 79.3457 12.4023 Z M 50.8301 -37.4512 L 107.861 -37.4512 C 112.256 -37.4512 115.234 -40.1855 115.234 -44.2871 C 115.234 -48.3887 112.256 -51.123 107.861 -51.123 L 50.8301 -51.123 C 46.4355 -51.123 43.457 -48.3887 43.457 -44.2871 C 43.457 -40.1855 46.4355 -37.4512 50.8301 -37.4512 Z M 57.5684 -15.6738 L 101.123 -15.6738 C 105.469 -15.6738 108.496 -18.4082 108.496 -22.4609 C 108.496 -26.5625 105.469 -29.3457 101.123 -29.3457 L 57.5684 -29.3457 C 53.2227 -29.3457 50.1953 -26.5625 50.1953 -22.4609 C 50.1953 -18.4082 53.2227 -15.6738 57.5684 -15.6738 Z"/>
  </g>
  <g id="Heavy-L" transform="matrix(1 0 0 1 2558.39 1556)">
   <path d="M 78.2715 31.7871 C 115.088 31.7871 145.312 1.5625 145.312 -35.2051 C 145.312 -72.0215 115.039 -102.246 78.2715 -102.246 C 41.4551 -102.246 11.2793 -72.0215 11.2793 -35.2051 C 11.2793 1.5625 41.5039 31.7871 78.2715 31.7871 Z M 78.2715 14.0137 C 51.0254 14.0137 29.0527 -7.95898 29.0527 -35.2051 C 29.0527 -62.5 50.9766 -84.4727 78.2715 -84.4727 C 105.518 -84.4727 127.49 -62.5 127.539 -35.2051 C 127.539 -7.95898 105.566 14.0137 78.2715 14.0137 Z M 48.3398 -37.8906 L 108.252 -37.8906 C 112.207 -37.8906 114.844 -40.332 114.844 -43.9941 C 114.844 -47.7051 112.207 -50.1465 108.252 -50.1465 L 48.3398 -50.1465 C 44.3848 -50.1465 41.748 -47.7051 41.748 -43.9941 C 41.748 -40.332 44.3848 -37.8906 48.3398 -37.8906 Z M 55.6641 -16.3086 L 100.928 -16.3086 C 104.834 -16.3086 107.52 -18.7988 107.52 -22.4121 C 107.52 -26.0742 104.834 -28.5645 100.928 -28.5645 L 55.6641 -28.5645 C 51.7578 -28.5645 49.0723 -26.0742 49.0723 -22.4121 C 49.0723 -18.7988 51.7578 -16.3086 55.6641 -16.3086 Z"/>
  </g>
  <g id="Bold-L" transform="matrix(1 0 0 1 2262.88 1556)">
   <path d="M 77.0996 30.5664 C 113.232 30.5664 142.92 0.878906 142.92 -35.2539 C 142.92 -71.3379 113.184 -101.074 77.0508 -101.074 C 40.9668 -101.074 11.2793 -71.3379 11.2793 -35.2539 C 11.2793 0.878906 41.0156 30.5664 77.0996 30.5664 Z M 77.0996 15.8203 C 48.8281 15.8203 26.0742 -6.98242 26.0742 -35.2539 C 26.0742 -63.5254 48.7793 -86.2793 77.0508 -86.2793 C 105.371 -86.2793 128.125 -63.5254 128.174 -35.2539 C 128.174 -6.98242 105.371 15.8203 77.0996 15.8203 Z M 45.5078 -38.3789 L 108.74 -38.3789 C 112.109 -38.3789 114.453 -40.4785 114.453 -43.6523 C 114.453 -46.875 112.109 -49.0234 108.74 -49.0234 L 45.5078 -49.0234 C 42.1387 -49.0234 39.7949 -46.875 39.7949 -43.6523 C 39.7949 -40.4785 42.1387 -38.3789 45.5078 -38.3789 Z M 53.5156 -17.041 L 100.732 -17.041 C 104.102 -17.041 106.445 -19.1895 106.445 -22.3633 C 106.445 -25.5371 104.102 -27.7344 100.732 -27.7344 L 53.5156 -27.7344 C 50.1465 -27.7344 47.8027 -25.5371 47.8027 -22.3633 C 47.8027 -19.1895 50.1465 -17.041 53.5156 -17.041 Z"/>
  </g>
  <g id="Semibold-L" transform="matrix(1 0 0 1 1966.97 1556)">
   <path d="M 76.2695 29.7363 C 111.914 29.7363 141.309 0.390625 141.309 -35.2539 C 141.309 -70.8984 111.865 -100.244 76.2695 -100.244 C 40.625 -100.244 11.2793 -70.8984 11.2793 -35.2539 C 11.2793 0.390625 40.6738 29.7363 76.2695 29.7363 Z M 76.2695 17.041 C 47.3145 17.041 24.0234 -6.25 24.0234 -35.2539 C 24.0234 -64.209 47.2656 -87.5488 76.2695 -87.5488 C 105.225 -87.5488 128.564 -64.209 128.613 -35.2539 C 128.662 -6.25 105.273 17.041 76.2695 17.041 Z M 43.6035 -38.6719 L 109.082 -38.6719 C 112.061 -38.6719 114.209 -40.5762 114.209 -43.457 C 114.209 -46.3379 112.061 -48.2422 109.082 -48.2422 L 43.6035 -48.2422 C 40.5273 -48.2422 38.4277 -46.3379 38.4277 -43.457 C 38.4277 -40.5762 40.5273 -38.6719 43.6035 -38.6719 Z M 52.0508 -17.5781 L 100.586 -17.5781 C 103.613 -17.5781 105.713 -19.4824 105.713 -22.3145 C 105.713 -25.1953 103.613 -27.1484 100.586 -27.1484 L 52.0508 -27.1484 C 49.0234 -27.1484 46.9238 -25.1953 46.9238 -22.3145 C 46.9238 -19.4824 49.0234 -17.5781 52.0508 -17.5781 Z"/>
  </g>
  <g id="Medium-L" transform="matrix(1 0 0 1 1670.87 1556)">
   <path d="M 75.6836 29.1504 C 110.938 29.1504 140.088 0 140.088 -35.2539 C 140.088 -70.5078 110.889 -99.6582 75.6348 -99.6582 C 40.3809 -99.6582 11.2793 -70.5078 11.2793 -35.2539 C 11.2793 0 40.3809 29.1504 75.6836 29.1504 Z M 75.6836 18.0176 C 46.1426 18.0176 22.4609 -5.76172 22.4609 -35.2539 C 22.4609 -64.7461 46.1426 -88.5254 75.6348 -88.5254 C 105.127 -88.5254 128.906 -64.7461 128.906 -35.2539 C 128.955 -5.76172 105.176 18.0176 75.6836 18.0176 Z M 42.1387 -38.916 L 109.326 -38.916 C 112.061 -38.916 113.965 -40.6738 113.965 -43.3105 C 113.965 -45.9473 112.061 -47.6562 109.326 -47.6562 L 42.1387 -47.6562 C 39.3555 -47.6562 37.4023 -45.9473 37.4023 -43.3105 C 37.4023 -40.6738 39.3555 -38.916 42.1387 -38.916 Z M 50.9277 -17.9199 L 100.488 -17.9199 C 103.223 -17.9199 105.176 -19.6777 105.176 -22.3145 C 105.176 -24.9023 103.223 -26.6602 100.488 -26.6602 L 50.9277 -26.6602 C 48.1934 -26.6602 46.2402 -24.9023 46.2402 -22.3145 C 46.2402 -19.6777 48.1934 -17.9199 50.9277 -17.9199 Z"/>
  </g>
  <g id="Regular-L" transform="matrix(1 0 0 1 1374.97 1556)">
   <path d="M 74.8535 28.3203 C 109.668 28.3203 138.477 -0.488281 138.477 -35.2539 C 138.477 -70.0684 109.619 -98.877 74.8047 -98.877 C 40.0391 -98.877 11.2793 -70.0684 11.2793 -35.2539 C 11.2793 -0.488281 40.0879 28.3203 74.8535 28.3203 Z M 74.8535 19.2383 C 44.6777 19.2383 20.4102 -5.07812 20.4102 -35.2539 C 20.4102 -65.4785 44.6289 -89.7461 74.8047 -89.7461 C 105.029 -89.7461 129.297 -65.4785 129.346 -35.2539 C 129.395 -5.07812 105.078 19.2383 74.8535 19.2383 Z M 40.1855 -39.2578 L 109.619 -39.2578 C 112.012 -39.2578 113.721 -40.7715 113.721 -43.0664 C 113.721 -45.3613 112.012 -46.9238 109.619 -46.9238 L 40.1855 -46.9238 C 37.793 -46.9238 36.084 -45.3613 36.084 -43.0664 C 36.084 -40.7715 37.793 -39.2578 40.1855 -39.2578 Z M 49.4629 -18.457 L 100.342 -18.457 C 102.734 -18.457 104.443 -19.9707 104.443 -22.2656 C 104.443 -24.5605 102.734 -26.0742 100.342 -26.0742 L 49.4629 -26.0742 C 47.0703 -26.0742 45.3613 -24.5605 45.3613 -22.2656 C 45.3613 -19.9707 47.0703 -18.457 49.4629 -18.457 Z"/>
  </g>
  <g id="Light-L" transform="matrix(1 0 0 1 1079.18 1556)">
   <path d="M 73.9258 27.3926 C 108.301 27.3926 136.621 -0.927734 136.621 -35.2539 C 136.621 -69.6289 108.252 -97.9492 73.9258 -97.9492 C 39.5508 -97.9492 11.2793 -69.6289 11.2793 -35.2539 C 11.2793 -0.927734 39.5996 27.3926 73.9258 27.3926 Z M 73.9258 20.5078 C 43.1152 20.5078 18.2129 -4.44336 18.2129 -35.2539 C 18.2129 -66.1133 43.0664 -91.0156 73.9258 -91.0156 C 104.736 -91.0156 129.688 -66.1133 129.736 -35.2539 C 129.736 -4.44336 104.785 20.5078 73.9258 20.5078 Z M 38.8184 -39.8926 L 109.229 -39.8926 C 111.035 -39.8926 112.354 -41.1133 112.354 -42.9199 C 112.354 -44.6777 111.035 -45.8984 109.229 -45.8984 L 38.8184 -45.8984 C 36.9141 -45.8984 35.5957 -44.6777 35.5957 -42.9199 C 35.5957 -41.1133 36.9141 -39.8926 38.8184 -39.8926 Z M 47.998 -19.1406 L 100 -19.1406 C 101.807 -19.1406 103.174 -20.3125 103.174 -22.1191 C 103.174 -23.9258 101.807 -25.1465 100 -25.1465 L 47.998 -25.1465 C 46.1426 -25.1465 44.8242 -23.9258 44.8242 -22.1191 C 44.8242 -20.3125 46.1426 -19.1406 47.998 -19.1406 Z"/>
  </g>
  <g id="Thin-L" transform="matrix(1 0 0 1 783.693 1556)">
   <path d="M 72.7051 26.1719 C 106.494 26.1719 134.18 -1.51367 134.18 -35.2539 C 134.18 -69.043 106.494 -96.7285 72.7051 -96.7285 C 38.9648 -96.7285 11.2793 -69.043 11.2793 -35.2539 C 11.2793 -1.51367 38.9648 26.1719 72.7051 26.1719 Z M 72.7051 22.168 C 41.0156 22.168 15.2832 -3.56445 15.2832 -35.2539 C 15.2832 -66.9922 41.0156 -92.7246 72.7051 -92.7246 C 104.395 -92.7246 130.176 -66.9922 130.176 -35.2539 C 130.176 -3.56445 104.443 22.168 72.7051 22.168 Z M 36.9141 -40.7715 L 108.643 -40.7715 C 109.717 -40.7715 110.596 -41.5039 110.596 -42.6758 C 110.596 -43.7988 109.717 -44.5312 108.643 -44.5312 L 36.9141 -44.5312 C 35.791 -44.5312 34.9121 -43.7988 34.9121 -42.6758 C 34.9121 -41.5039 35.791 -40.7715 36.9141 -40.7715 Z M 46.0449 -20.0684 L 99.5605 -20.0684 C 100.635 -20.0684 101.465 -20.8496 101.465 -21.9727 C 101.465 -23.0957 100.635 -23.877 99.5605 -23.877 L 46.0449 -23.877 C 44.9219 -23.877 44.043 -23.0957 44.043 -21.9727 C 44.043 -20.8496 44.9219 -20.0684 46.0449 -20.0684 Z"/>
  </g>
  <g id="Ultralight-L" transform="matrix(1 0 0 1 487.616 1556)">
   <path d="M 72.1191 25.5371 C 105.566 25.5371 132.91 -1.80664 132.91 -35.2539 C 132.91 -68.75 105.566 -96.0938 72.1191 -96.0938 C 38.623 -96.0938 11.2793 -68.75 11.2793 -35.2539 C 11.2793 -1.80664 38.623 25.5371 72.1191 25.5371 Z M 72.1191 23.0469 C 39.9414 23.0469 13.7695 -3.125 13.7695 -35.2539 C 13.7695 -67.4316 39.9414 -93.6035 72.1191 -93.6035 C 104.248 -93.6035 130.42 -67.4316 130.42 -35.2539 C 130.42 -3.125 104.248 23.0469 72.1191 23.0469 Z M 35.9863 -41.2109 L 108.35 -41.2109 C 109.082 -41.2109 109.668 -41.748 109.668 -42.5293 C 109.668 -43.3105 109.082 -43.8477 108.35 -43.8477 L 35.9863 -43.8477 C 35.2051 -43.8477 34.5703 -43.3105 34.5703 -42.5293 C 34.5703 -41.748 35.2051 -41.2109 35.9863 -41.2109 Z M 45.0684 -20.5566 L 99.3164 -20.5566 C 100 -20.5566 100.586 -21.0938 100.586 -21.875 C 100.586 -22.6562 100 -23.1934 99.3164 -23.1934 L 45.0684 -23.1934 C 44.2383 -23.1934 43.6523 -22.6562 43.6523 -21.875 C 43.6523 -21.0938 44.2383 -20.5566 45.0684 -20.5566 Z"/>
  </g>
  <g id="Black-M" transform="matrix(1 0 0 1 2870.97 1126)">
   <path d="M 62.4023 18.457 C 91.9922 18.457 116.113 -5.61523 116.113 -35.2051 C 116.113 -64.7949 91.9922 -88.8672 62.4023 -88.8672 C 32.8125 -88.8672 8.74023 -64.7949 8.74023 -35.2051 C 8.74023 -5.61523 32.8125 18.457 62.4023 18.457 Z M 62.4023 0.195312 C 42.8711 0.195312 27.002 -15.625 27.002 -35.2051 C 27.002 -54.7363 42.8711 -70.6055 62.4023 -70.6055 C 81.9824 -70.6055 97.8027 -54.7363 97.8027 -35.2051 C 97.8027 -15.625 81.9824 0.195312 62.4023 0.195312 Z M 42.041 -36.7188 L 82.7637 -36.7188 C 86.5723 -36.7188 89.0625 -39.0625 89.0625 -42.5293 C 89.0625 -46.0449 86.5723 -48.3398 82.7637 -48.3398 L 42.041 -48.3398 C 38.2812 -48.3398 35.791 -46.0449 35.791 -42.5293 C 35.791 -39.0625 38.2812 -36.7188 42.041 -36.7188 Z M 46.3867 -19.5801 L 78.418 -19.5801 C 82.1289 -19.5801 84.7168 -21.875 84.7168 -25.3418 C 84.7168 -28.8086 82.1289 -31.2012 78.418 -31.2012 L 46.3867 -31.2012 C 42.7246 -31.2012 40.1367 -28.8086 40.1367 -25.3418 C 40.1367 -21.875 42.7246 -19.5801 46.3867 -19.5801 Z"/>
  </g>
  <g id="Heavy-M" transform="matrix(1 0 0 1 2575.19 1126)">
   <path d="M 61.5234 17.5293 C 90.5273 17.5293 114.258 -6.20117 114.258 -35.2051 C 114.258 -64.2578 90.5273 -87.9883 61.4746 -87.9883 C 32.4707 -87.9883 8.74023 -64.2578 8.74023 -35.2051 C 8.74023 -6.20117 32.4707 17.5293 61.5234 17.5293 Z M 61.5234 1.61133 C 41.1133 1.61133 24.6582 -14.8438 24.6582 -35.2051 C 24.6582 -55.6152 41.1133 -72.0703 61.4746 -72.0703 C 81.8848 -72.0703 98.3398 -55.6152 98.3398 -35.2051 C 98.3398 -14.8438 81.8848 1.61133 61.5234 1.61133 Z M 39.6484 -37.0117 L 83.3496 -37.0117 C 86.7188 -37.0117 89.0137 -39.1113 89.0137 -42.2363 C 89.0137 -45.4102 86.7188 -47.5098 83.3496 -47.5098 L 39.6484 -47.5098 C 36.2793 -47.5098 33.9844 -45.4102 33.9844 -42.2363 C 33.9844 -39.1113 36.2793 -37.0117 39.6484 -37.0117 Z M 44.7266 -20.1172 L 78.3203 -20.1172 C 81.6406 -20.1172 83.9844 -22.2168 83.9844 -25.3418 C 83.9844 -28.4668 81.6406 -30.6152 78.3203 -30.6152 L 44.7266 -30.6152 C 41.3574 -30.6152 39.0137 -28.4668 39.0137 -25.3418 C 39.0137 -22.2168 41.3574 -20.1172 44.7266 -20.1172 Z"/>
  </g>
  <g id="Bold-M" transform="matrix(1 0 0 1 2279.5 1126)">
   <path d="M 60.498 16.5039 C 88.8672 16.5039 112.207 -6.83594 112.207 -35.2051 C 112.207 -63.623 88.8672 -86.9629 60.4492 -86.9629 C 32.0312 -86.9629 8.74023 -63.623 8.74023 -35.2051 C 8.74023 -6.83594 32.0801 16.5039 60.498 16.5039 Z M 60.498 3.22266 C 39.1602 3.22266 22.0703 -13.916 22.0703 -35.2051 C 22.0703 -56.543 39.1602 -73.6816 60.4492 -73.6816 C 81.7383 -73.6816 98.9258 -56.543 98.9258 -35.2051 C 98.9746 -13.916 81.7871 3.22266 60.498 3.22266 Z M 37.0117 -37.3535 L 83.9844 -37.3535 C 86.9629 -37.3535 88.9648 -39.209 88.9648 -41.9434 C 88.9648 -44.7754 86.9629 -46.6309 83.9844 -46.6309 L 37.0117 -46.6309 C 34.0332 -46.6309 32.0312 -44.7754 32.0312 -41.9434 C 32.0312 -39.209 34.0332 -37.3535 37.0117 -37.3535 Z M 42.8223 -20.7031 L 78.2227 -20.7031 C 81.1523 -20.7031 83.2031 -22.5586 83.2031 -25.293 C 83.2031 -28.0762 81.1523 -29.9316 78.2227 -29.9316 L 42.8223 -29.9316 C 39.8926 -29.9316 37.793 -28.0762 37.793 -25.293 C 37.793 -22.5586 39.8926 -20.7031 42.8223 -20.7031 Z"/>
  </g>
  <g id="Semibold-M" transform="matrix(1 0 0 1 1983.5 1126)">
   <path d="M 59.7656 15.8203 C 87.7441 15.8203 110.791 -7.27539 110.791 -35.2539 C 110.791 -63.2324 87.6953 -86.2793 59.7656 -86.2793 C 31.7871 -86.2793 8.74023 -63.2324 8.74023 -35.2539 C 8.74023 -7.27539 31.7871 15.8203 59.7656 15.8203 Z M 59.7656 4.3457 C 37.8418 4.3457 20.2637 -13.3301 20.2637 -35.2539 C 20.2637 -57.1777 37.793 -74.8047 59.7656 -74.8047 C 81.6895 -74.8047 99.3164 -57.1777 99.3652 -35.2539 C 99.3652 -13.3301 81.6895 4.3457 59.7656 4.3457 Z M 35.1562 -37.5977 L 84.4238 -37.5977 C 87.1094 -37.5977 88.9648 -39.2578 88.9648 -41.748 C 88.9648 -44.2871 87.1094 -45.9961 84.4238 -45.9961 L 35.1562 -45.9961 C 32.5195 -45.9961 30.6641 -44.2871 30.6641 -41.748 C 30.6641 -39.2578 32.5195 -37.5977 35.1562 -37.5977 Z M 41.5039 -21.0938 L 78.125 -21.0938 C 80.7617 -21.0938 82.6172 -22.8027 82.6172 -25.293 C 82.6172 -27.7832 80.7617 -29.4922 78.125 -29.4922 L 41.5039 -29.4922 C 38.8184 -29.4922 36.9629 -27.7832 36.9629 -25.293 C 36.9629 -22.8027 38.8184 -21.0938 41.5039 -21.0938 Z"/>
  </g>
  <g id="Medium-M" transform="matrix(1 0 0 1 1687.3 1126)">
   <path d="M 59.2285 15.2344 C 86.9141 15.2344 109.766 -7.61719 109.766 -35.2539 C 109.766 -62.8906 86.8652 -85.7422 59.1797 -85.7422 C 31.543 -85.7422 8.74023 -62.8906 8.74023 -35.2539 C 8.74023 -7.61719 31.5918 15.2344 59.2285 15.2344 Z M 59.2285 5.17578 C 36.8164 5.17578 18.8965 -12.8418 18.8965 -35.2539 C 18.8965 -57.666 36.8164 -75.6348 59.1797 -75.6348 C 81.5918 -75.6348 99.6094 -57.666 99.6582 -35.2539 C 99.707 -12.8418 81.6406 5.17578 59.2285 5.17578 Z M 33.7891 -37.7441 L 84.7656 -37.7441 C 87.207 -37.7441 88.916 -39.3066 88.916 -41.6016 C 88.916 -43.9453 87.207 -45.5078 84.7656 -45.5078 L 33.7891 -45.5078 C 31.3477 -45.5078 29.5898 -43.9453 29.5898 -41.6016 C 29.5898 -39.3066 31.3477 -37.7441 33.7891 -37.7441 Z M 40.4785 -21.4355 L 78.0762 -21.4355 C 80.4688 -21.4355 82.2266 -22.9492 82.2266 -25.293 C 82.2266 -27.5879 80.4688 -29.1504 78.0762 -29.1504 L 40.4785 -29.1504 C 38.0371 -29.1504 36.3281 -27.5879 36.3281 -25.293 C 36.3281 -22.9492 38.0371 -21.4355 40.4785 -21.4355 Z"/>
  </g>
  <g id="Regular-M" transform="matrix(1 0 0 1 1391.3 1126)">
   <path d="M 58.5449 14.5508 C 85.791 14.5508 108.35 -8.05664 108.35 -35.2539 C 108.35 -62.5 85.7422 -85.0586 58.4961 -85.0586 C 31.2988 -85.0586 8.74023 -62.5 8.74023 -35.2539 C 8.74023 -8.05664 31.3477 14.5508 58.5449 14.5508 Z M 58.5449 6.25 C 35.498 6.25 17.0898 -12.207 17.0898 -35.2539 C 17.0898 -58.3008 35.4492 -76.7578 58.4961 -76.7578 C 81.543 -76.7578 100 -58.3008 100.049 -35.2539 C 100.098 -12.207 81.5918 6.25 58.5449 6.25 Z M 31.9824 -37.9883 L 85.2051 -37.9883 C 87.3535 -37.9883 88.916 -39.3555 88.916 -41.4062 C 88.916 -43.5059 87.3535 -44.873 85.2051 -44.873 L 31.9824 -44.873 C 29.7852 -44.873 28.2715 -43.5059 28.2715 -41.4062 C 28.2715 -39.3555 29.7852 -37.9883 31.9824 -37.9883 Z M 39.209 -21.8262 L 77.9785 -21.8262 C 80.127 -21.8262 81.6406 -23.1934 81.6406 -25.2441 C 81.6406 -27.3438 80.127 -28.7109 77.9785 -28.7109 L 39.209 -28.7109 C 37.0117 -28.7109 35.498 -27.3438 35.498 -25.2441 C 35.498 -23.1934 37.0117 -21.8262 39.209 -21.8262 Z"/>
  </g>
  <g id="Light-M" transform="matrix(1 0 0 1 1095.42 1126)">
   <path d="M 57.7148 13.7207 C 84.5215 13.7207 106.689 -8.44727 106.689 -35.2539 C 106.689 -62.1094 84.5215 -84.2285 57.666 -84.2285 C 30.8594 -84.2285 8.74023 -62.1094 8.74023 -35.2539 C 8.74023 -8.44727 30.9082 13.7207 57.7148 13.7207 Z M 57.7148 7.37305 C 34.082 7.37305 15.0879 -11.6699 15.0879 -35.2539 C 15.0879 -58.8867 34.082 -77.9297 57.666 -77.9297 C 81.2988 -77.9297 100.342 -58.8867 100.391 -35.2539 C 100.391 -11.6699 81.3477 7.37305 57.7148 7.37305 Z M 30.7129 -38.5742 L 84.8145 -38.5742 C 86.4746 -38.5742 87.6953 -39.6484 87.6953 -41.2598 C 87.6953 -42.8711 86.4746 -43.9453 84.8145 -43.9453 L 30.7129 -43.9453 C 29.0039 -43.9453 27.832 -42.8711 27.832 -41.2598 C 27.832 -39.6484 29.0039 -38.5742 30.7129 -38.5742 Z M 37.8906 -22.4609 L 77.6855 -22.4609 C 79.2969 -22.4609 80.5176 -23.5352 80.5176 -25.1465 C 80.5176 -26.7578 79.2969 -27.832 77.6855 -27.832 L 37.8906 -27.832 C 36.1816 -27.832 34.9609 -26.7578 34.9609 -25.1465 C 34.9609 -23.5352 36.1816 -22.4609 37.8906 -22.4609 Z"/>
  </g>
  <g id="Thin-M" transform="matrix(1 0 0 1 799.806 1126)">
   <path d="M 56.6406 12.5977 C 82.9102 12.5977 104.492 -8.98438 104.492 -35.2539 C 104.492 -61.5723 82.9102 -83.1543 56.5918 -83.1543 C 30.3223 -83.1543 8.74023 -61.5723 8.74023 -35.2539 C 8.74023 -8.98438 30.3223 12.5977 56.6406 12.5977 Z M 56.6406 8.88672 C 32.2266 8.88672 12.4512 -10.8887 12.4512 -35.2539 C 12.4512 -59.6191 32.2266 -79.4434 56.5918 -79.4434 C 81.0059 -79.4434 100.781 -59.6191 100.781 -35.2539 C 100.781 -10.8887 81.0059 8.88672 56.6406 8.88672 Z M 29.0527 -39.3066 L 84.3262 -39.3066 C 85.3027 -39.3066 86.084 -39.9902 86.084 -41.0156 C 86.084 -42.041 85.3027 -42.7246 84.3262 -42.7246 L 29.0527 -42.7246 C 27.9785 -42.7246 27.1973 -42.041 27.1973 -41.0156 C 27.1973 -39.9902 27.9785 -39.3066 29.0527 -39.3066 Z M 36.1328 -23.291 L 77.2461 -23.291 C 78.2227 -23.291 79.0039 -23.9746 79.0039 -25 C 79.0039 -26.0254 78.2227 -26.709 77.2461 -26.709 L 36.1328 -26.709 C 35.0586 -26.709 34.3262 -26.0254 34.3262 -25 C 34.3262 -23.9746 35.0586 -23.291 36.1328 -23.291 Z"/>
  </g>
  <g id="Ultralight-M" transform="matrix(1 0 0 1 503.656 1126)">
   <path d="M 56.0547 12.0605 C 82.0801 12.0605 103.369 -9.22852 103.369 -35.2539 C 103.369 -61.2793 82.0801 -82.5684 56.0547 -82.5684 C 30.0293 -82.5684 8.74023 -61.2793 8.74023 -35.2539 C 8.74023 -9.22852 30.0293 12.0605 56.0547 12.0605 Z M 56.0547 9.66797 C 31.2988 9.66797 11.1328 -10.498 11.1328 -35.2539 C 11.1328 -60.0586 31.2988 -80.1758 56.0547 -80.1758 C 80.8594 -80.1758 100.977 -60.0586 100.977 -35.2539 C 100.977 -10.498 80.8594 9.66797 56.0547 9.66797 Z M 28.1738 -39.6973 L 84.082 -39.6973 C 84.7168 -39.6973 85.2539 -40.1855 85.2539 -40.918 C 85.2539 -41.6504 84.7168 -42.1387 84.082 -42.1387 L 28.1738 -42.1387 C 27.4414 -42.1387 26.9043 -41.6504 26.9043 -40.918 C 26.9043 -40.1855 27.4414 -39.6973 28.1738 -39.6973 Z M 35.2051 -23.6816 L 77.0508 -23.6816 C 77.6855 -23.6816 78.2227 -24.1699 78.2227 -24.9023 C 78.2227 -25.6348 77.6855 -26.123 77.0508 -26.123 L 35.2051 -26.123 C 34.5215 -26.123 33.9355 -25.6348 33.9355 -24.9023 C 33.9355 -24.1699 34.5215 -23.6816 35.2051 -23.6816 Z"/>
  </g>
  <g id="Black-S" transform="matrix(1 0 0 1 2884.57 696)">
   <path d="M 48.8281 6.78711 C 71.9727 6.78711 90.8203 -12.0605 90.8203 -35.2051 C 90.8203 -58.3496 71.9727 -77.1973 48.8281 -77.1973 C 25.6836 -77.1973 6.83594 -58.3496 6.83594 -35.2051 C 6.83594 -12.0605 25.6836 6.78711 48.8281 6.78711 Z M 48.8281 -7.37305 C 33.4473 -7.37305 20.9961 -19.8242 20.9961 -35.2051 C 20.9961 -50.5859 33.4473 -63.0371 48.8281 -63.0371 C 64.209 -63.0371 76.6602 -50.5859 76.6602 -35.2051 C 76.6602 -19.8242 64.209 -7.37305 48.8281 -7.37305 Z M 32.7637 -36.4258 L 64.8926 -36.4258 C 67.8223 -36.4258 69.7754 -38.2324 69.7754 -40.918 C 69.7754 -43.6523 67.8223 -45.459 64.8926 -45.459 L 32.7637 -45.459 C 29.834 -45.459 27.8809 -43.6523 27.8809 -40.918 C 27.8809 -38.2324 29.834 -36.4258 32.7637 -36.4258 Z M 36.2305 -22.998 L 61.4258 -22.998 C 64.3066 -22.998 66.3086 -24.8047 66.3086 -27.4902 C 66.3086 -30.1758 64.3066 -32.0312 61.4258 -32.0312 L 36.2305 -32.0312 C 33.3496 -32.0312 31.3477 -30.1758 31.3477 -27.4902 C 31.3477 -24.8047 33.3496 -22.998 36.2305 -22.998 Z"/>
  </g>
  <g id="Heavy-S" transform="matrix(1 0 0 1 2588.47 696)">
   <path d="M 48.2422 6.15234 C 70.9961 6.15234 89.5996 -12.4512 89.5996 -35.2051 C 89.5996 -57.959 70.9961 -76.6113 48.1934 -76.6113 C 25.4395 -76.6113 6.83594 -57.959 6.83594 -35.2051 C 6.83594 -12.4512 25.4395 6.15234 48.2422 6.15234 Z M 48.2422 -6.39648 C 32.2754 -6.39648 19.4336 -19.2871 19.4336 -35.2051 C 19.4336 -51.1719 32.2754 -64.0137 48.1934 -64.0137 C 64.1602 -64.0137 77.002 -51.1719 77.0508 -35.2051 C 77.0508 -19.2871 64.1602 -6.39648 48.2422 -6.39648 Z M 31.1035 -36.5723 L 65.3809 -36.5723 C 68.0664 -36.5723 69.873 -38.2324 69.873 -40.7227 C 69.873 -43.2617 68.0664 -44.9219 65.3809 -44.9219 L 31.1035 -44.9219 C 28.3691 -44.9219 26.5625 -43.2617 26.5625 -40.7227 C 26.5625 -38.2324 28.3691 -36.5723 31.1035 -36.5723 Z M 35.0586 -23.3398 L 61.377 -23.3398 C 64.0137 -23.3398 65.8691 -25 65.8691 -27.4902 C 65.8691 -29.9805 64.0137 -31.6895 61.377 -31.6895 L 35.0586 -31.6895 C 32.4219 -31.6895 30.5664 -29.9805 30.5664 -27.4902 C 30.5664 -25 32.4219 -23.3398 35.0586 -23.3398 Z"/>
  </g>
  <g id="Bold-S" transform="matrix(1 0 0 1 2292.44 696)">
   <path d="M 47.5586 5.46875 C 69.873 5.46875 88.2324 -12.8906 88.2324 -35.2539 C 88.2324 -57.5684 69.873 -75.9277 47.5098 -75.9277 C 25.1953 -75.9277 6.83594 -57.5684 6.83594 -35.2539 C 6.83594 -12.8906 25.1953 5.46875 47.5586 5.46875 Z M 47.5586 -5.32227 C 30.957 -5.32227 17.6758 -18.6523 17.6758 -35.2539 C 17.6758 -51.8066 30.957 -65.1367 47.5098 -65.1367 C 64.1113 -65.1367 77.4414 -51.8066 77.4414 -35.2539 C 77.4414 -18.6523 64.1113 -5.32227 47.5586 -5.32227 Z M 29.1992 -36.7676 L 65.918 -36.7676 C 68.3594 -36.7676 70.0195 -38.2812 70.0195 -40.5273 C 70.0195 -42.8223 68.3594 -44.3359 65.918 -44.3359 L 29.1992 -44.3359 C 26.7578 -44.3359 25.0977 -42.8223 25.0977 -40.5273 C 25.0977 -38.2812 26.7578 -36.7676 29.1992 -36.7676 Z M 33.7891 -23.7305 L 61.3281 -23.7305 C 63.7207 -23.7305 65.4297 -25.2441 65.4297 -27.4902 C 65.4297 -29.7363 63.7207 -31.2988 61.3281 -31.2988 L 33.7891 -31.2988 C 31.3965 -31.2988 29.6875 -29.7363 29.6875 -27.4902 C 29.6875 -25.2441 31.3965 -23.7305 33.7891 -23.7305 Z"/>
  </g>
  <g id="Semibold-S" transform="matrix(1 0 0 1 1996.2 696)">
   <path d="M 47.0703 4.98047 C 69.0918 4.98047 87.3047 -13.1836 87.3047 -35.2539 C 87.3047 -57.2754 69.0918 -75.4883 47.0215 -75.4883 C 25 -75.4883 6.83594 -57.2754 6.83594 -35.2539 C 6.83594 -13.1836 25.0488 4.98047 47.0703 4.98047 Z M 47.0703 -4.58984 C 30.0781 -4.58984 16.4551 -18.2129 16.4551 -35.2539 C 16.4551 -52.2461 30.0293 -65.8691 47.0215 -65.8691 C 64.0625 -65.8691 77.6855 -52.2461 77.7344 -35.2539 C 77.7344 -18.2129 64.0625 -4.58984 47.0703 -4.58984 Z M 27.8809 -36.8652 L 66.3086 -36.8652 C 68.5059 -36.8652 70.0684 -38.2812 70.0684 -40.3809 C 70.0684 -42.5293 68.5059 -43.9453 66.3086 -43.9453 L 27.8809 -43.9453 C 25.6348 -43.9453 24.1211 -42.5293 24.1211 -40.3809 C 24.1211 -38.2812 25.6348 -36.8652 27.8809 -36.8652 Z M 32.9102 -23.9746 L 61.2793 -23.9746 C 63.5254 -23.9746 65.0879 -25.3906 65.0879 -27.4902 C 65.0879 -29.5898 63.5254 -31.0059 61.2793 -31.0059 L 32.9102 -31.0059 C 30.6641 -31.0059 29.1016 -29.5898 29.1016 -27.4902 C 29.1016 -25.3906 30.6641 -23.9746 32.9102 -23.9746 Z"/>
  </g>
  <g id="Medium-S" transform="matrix(1 0 0 1 1699.83 696)">
   <path d="M 46.7285 4.63867 C 68.5547 4.63867 86.6211 -13.4277 86.6211 -35.2539 C 86.6211 -57.0801 68.5059 -75.1465 46.6797 -75.1465 C 24.8535 -75.1465 6.83594 -57.0801 6.83594 -35.2539 C 6.83594 -13.4277 24.9023 4.63867 46.7285 4.63867 Z M 46.7285 -4.00391 C 29.3945 -4.00391 15.5273 -17.9199 15.5273 -35.2539 C 15.5273 -52.5879 29.3457 -66.4551 46.6797 -66.4551 C 64.0137 -66.4551 77.8809 -52.5879 77.9297 -35.2539 C 77.9785 -17.9199 64.0625 -4.00391 46.7285 -4.00391 Z M 26.9043 -36.9629 L 66.5527 -36.9629 C 68.6523 -36.9629 70.166 -38.3301 70.166 -40.2832 C 70.166 -42.2852 68.6523 -43.6035 66.5527 -43.6035 L 26.9043 -43.6035 C 24.8047 -43.6035 23.3398 -42.2852 23.3398 -40.2832 C 23.3398 -38.3301 24.8047 -36.9629 26.9043 -36.9629 Z M 32.2266 -24.1699 L 61.2793 -24.1699 C 63.3789 -24.1699 64.8438 -25.4883 64.8438 -27.4902 C 64.8438 -29.4434 63.3789 -30.8105 61.2793 -30.8105 L 32.2266 -30.8105 C 30.127 -30.8105 28.6621 -29.4434 28.6621 -27.4902 C 28.6621 -25.4883 30.127 -24.1699 32.2266 -24.1699 Z"/>
  </g>
  <g id="Regular-S" transform="matrix(1 0 0 1 1403.58 696)">
   <path d="M 46.2402 4.15039 C 67.7734 4.15039 85.6934 -13.7207 85.6934 -35.2539 C 85.6934 -56.7871 67.7246 -74.6582 46.1914 -74.6582 C 24.707 -74.6582 6.83594 -56.7871 6.83594 -35.2539 C 6.83594 -13.7207 24.7559 4.15039 46.2402 4.15039 Z M 46.2402 -3.27148 C 28.5156 -3.27148 14.3555 -17.4805 14.3555 -35.2539 C 14.3555 -53.0273 28.4668 -67.2363 46.1914 -67.2363 C 63.9648 -67.2363 78.1738 -53.0273 78.2227 -35.2539 C 78.2715 -17.4805 64.0137 -3.27148 46.2402 -3.27148 Z M 25.6348 -37.1094 L 66.9434 -37.1094 C 68.8477 -37.1094 70.2148 -38.3301 70.2148 -40.1367 C 70.2148 -41.9922 68.8477 -43.2129 66.9434 -43.2129 L 25.6348 -43.2129 C 23.7305 -43.2129 22.3633 -41.9922 22.3633 -40.1367 C 22.3633 -38.3301 23.7305 -37.1094 25.6348 -37.1094 Z M 31.3477 -24.4141 L 61.2305 -24.4141 C 63.1348 -24.4141 64.502 -25.6348 64.502 -27.4902 C 64.502 -29.2969 63.1348 -30.5176 61.2305 -30.5176 L 31.3477 -30.5176 C 29.3945 -30.5176 28.0273 -29.2969 28.0273 -27.4902 C 28.0273 -25.6348 29.3945 -24.4141 31.3477 -24.4141 Z"/>
  </g>
  <g id="Light-S" transform="matrix(1 0 0 1 1107.6 696)">
   <path d="M 45.5078 3.41797 C 66.6992 3.41797 84.2285 -14.0625 84.2285 -35.2539 C 84.2285 -56.4453 66.6504 -73.9258 45.5078 -73.9258 C 24.3164 -73.9258 6.83594 -56.4453 6.83594 -35.2539 C 6.83594 -14.0625 24.3652 3.41797 45.5078 3.41797 Z M 45.5078 -2.29492 C 27.2461 -2.29492 12.5977 -16.9922 12.5977 -35.2539 C 12.5977 -53.5156 27.1973 -68.2129 45.5078 -68.2129 C 63.7695 -68.2129 78.4668 -53.5156 78.5156 -35.2539 C 78.5156 -16.9922 63.8184 -2.29492 45.5078 -2.29492 Z M 24.5117 -37.5977 L 66.6016 -37.5977 C 68.0664 -37.5977 69.1406 -38.5742 69.1406 -39.9902 C 69.1406 -41.4551 68.0664 -42.4316 66.6016 -42.4316 L 24.5117 -42.4316 C 22.998 -42.4316 21.9238 -41.4551 21.9238 -39.9902 C 21.9238 -38.5742 22.998 -37.5977 24.5117 -37.5977 Z M 30.1758 -24.9512 L 60.9375 -24.9512 C 62.4512 -24.9512 63.5254 -25.9277 63.5254 -27.3926 C 63.5254 -28.8086 62.4512 -29.7852 60.9375 -29.7852 L 30.1758 -29.7852 C 28.6621 -29.7852 27.5879 -28.8086 27.5879 -27.3926 C 27.5879 -25.9277 28.6621 -24.9512 30.1758 -24.9512 Z"/>
  </g>
  <g id="Thin-S" transform="matrix(1 0 0 1 811.867 696)">
   <path d="M 44.5801 2.49023 C 65.2832 2.49023 82.2754 -14.5508 82.2754 -35.2539 C 82.2754 -55.957 65.2344 -72.998 44.5312 -72.998 C 23.8281 -72.998 6.83594 -55.957 6.83594 -35.2539 C 6.83594 -14.5508 23.877 2.49023 44.5801 2.49023 Z M 44.5801 -0.927734 C 25.5859 -0.927734 10.2539 -16.3086 10.2539 -35.2539 C 10.2539 -54.1992 25.5859 -69.5801 44.5312 -69.5801 C 63.5254 -69.5801 78.8574 -54.1992 78.8574 -35.2539 C 78.8574 -16.3086 63.5254 -0.927734 44.5801 -0.927734 Z M 23.0469 -38.2812 L 66.1621 -38.2812 C 67.041 -38.2812 67.7246 -38.916 67.7246 -39.8438 C 67.7246 -40.7227 67.041 -41.3574 66.1621 -41.3574 L 23.0469 -41.3574 C 22.1191 -41.3574 21.4355 -40.7227 21.4355 -39.8438 C 21.4355 -38.916 22.1191 -38.2812 23.0469 -38.2812 Z M 28.6133 -25.6836 L 60.5957 -25.6836 C 61.4746 -25.6836 62.1582 -26.3184 62.1582 -27.2461 C 62.1582 -28.1738 61.4746 -28.7598 60.5957 -28.7598 L 28.6133 -28.7598 C 27.6855 -28.7598 27.002 -28.1738 27.002 -27.2461 C 27.002 -26.3184 27.6855 -25.6836 28.6133 -25.6836 Z"/>
  </g>
  <g id="Ultralight-S" transform="matrix(1 0 0 1 515.644 696)">
   <path d="M 44.043 1.95312 C 64.502 1.95312 81.2988 -14.7949 81.2988 -35.2539 C 81.2988 -55.7129 64.502 -72.4609 44.043 -72.4609 C 23.584 -72.4609 6.83594 -55.7129 6.83594 -35.2539 C 6.83594 -14.7949 23.584 1.95312 44.043 1.95312 Z M 44.043 -0.244141 C 24.7559 -0.244141 9.08203 -15.9668 9.08203 -35.2539 C 9.08203 -54.541 24.7559 -70.2637 44.043 -70.2637 C 63.3789 -70.2637 79.0527 -54.541 79.0527 -35.2539 C 79.0527 -15.9668 63.3789 -0.244141 44.043 -0.244141 Z M 22.3145 -38.623 L 65.918 -38.623 C 66.5039 -38.623 66.9922 -39.0625 66.9922 -39.6973 C 66.9922 -40.3809 66.5039 -40.8203 65.918 -40.8203 L 22.3145 -40.8203 C 21.6309 -40.8203 21.1426 -40.3809 21.1426 -39.6973 C 21.1426 -39.0625 21.6309 -38.623 22.3145 -38.623 Z M 27.832 -26.0742 L 60.4004 -26.0742 C 60.9863 -26.0742 61.4746 -26.5137 61.4746 -27.1484 C 61.4746 -27.832 60.9863 -28.2227 60.4004 -28.2227 L 27.832 -28.2227 C 27.1484 -28.2227 26.6602 -27.832 26.6602 -27.1484 C 26.6602 -26.5137 27.1484 -26.0742 27.832 -26.0742 Z"/>
  </g>
 </g>
</svg>
