<?xml version="1.0" encoding="UTF-8"?>
<!--Generator: Apple Native CoreSVG 148-->
<!DOCTYPE svg
PUBLIC "-//W3C//DTD SVG 1.1//EN"
       "http://www.w3.org/Graphics/SVG/1.1/DTD/svg11.dtd">
<svg version="1.1" xmlns="http://www.w3.org/2000/svg" xmlns:xlink="http://www.w3.org/1999/xlink" width="3300" height="2200">
 <!--glyph: "uni1005B8.medium", point size: 100.000000, font version: "Version 16.0d11e1", template writer version: "8"-->
 <g id="Notes">
  <rect height="2200" id="artboard" style="fill:white;opacity:1" width="3300" x="0" y="0"/>
  <line id="" style="fill:none;stroke:black;opacity:1;stroke-width:0.5;" x1="263" x2="3036" y1="292" y2="292"/>
  <text style="stroke:none;fill:black;font-family:-apple-system,&quot;SF Pro Display&quot;,&quot;SF Pro Text&quot;,Helvetica,sans-serif;font-weight:bold;" transform="matrix(1 0 0 1 263 322)">Weight/Scale Variations</text>
  <text style="stroke:none;fill:black;font-family:-apple-system,&quot;SF Pro Display&quot;,&quot;SF Pro Text&quot;,Helvetica,sans-serif;text-anchor:middle;" transform="matrix(1 0 0 1 559.711 322)">Ultralight</text>
  <text style="stroke:none;fill:black;font-family:-apple-system,&quot;SF Pro Display&quot;,&quot;SF Pro Text&quot;,Helvetica,sans-serif;text-anchor:middle;" transform="matrix(1 0 0 1 856.422 322)">Thin</text>
  <text style="stroke:none;fill:black;font-family:-apple-system,&quot;SF Pro Display&quot;,&quot;SF Pro Text&quot;,Helvetica,sans-serif;text-anchor:middle;" transform="matrix(1 0 0 1 1153.13 322)">Light</text>
  <text style="stroke:none;fill:black;font-family:-apple-system,&quot;SF Pro Display&quot;,&quot;SF Pro Text&quot;,Helvetica,sans-serif;text-anchor:middle;" transform="matrix(1 0 0 1 1449.84 322)">Regular</text>
  <text style="stroke:none;fill:black;font-family:-apple-system,&quot;SF Pro Display&quot;,&quot;SF Pro Text&quot;,Helvetica,sans-serif;text-anchor:middle;" transform="matrix(1 0 0 1 1746.56 322)">Medium</text>
  <text style="stroke:none;fill:black;font-family:-apple-system,&quot;SF Pro Display&quot;,&quot;SF Pro Text&quot;,Helvetica,sans-serif;text-anchor:middle;" transform="matrix(1 0 0 1 2043.27 322)">Semibold</text>
  <text style="stroke:none;fill:black;font-family:-apple-system,&quot;SF Pro Display&quot;,&quot;SF Pro Text&quot;,Helvetica,sans-serif;text-anchor:middle;" transform="matrix(1 0 0 1 2339.98 322)">Bold</text>
  <text style="stroke:none;fill:black;font-family:-apple-system,&quot;SF Pro Display&quot;,&quot;SF Pro Text&quot;,Helvetica,sans-serif;text-anchor:middle;" transform="matrix(1 0 0 1 2636.69 322)">Heavy</text>
  <text style="stroke:none;fill:black;font-family:-apple-system,&quot;SF Pro Display&quot;,&quot;SF Pro Text&quot;,Helvetica,sans-serif;text-anchor:middle;" transform="matrix(1 0 0 1 2933.4 322)">Black</text>
  <line id="" style="fill:none;stroke:black;opacity:1;stroke-width:0.5;" x1="263" x2="3036" y1="1903" y2="1903"/>
  <g id="" transform="matrix(1 0 0 1 263 1933)">
   <path d="M 9.24805 0.830078 C 13.5547 0.830078 17.1387 -2.74414 17.1387 -7.05078 C 17.1387 -11.3574 13.5449 -14.9316 9.23828 -14.9316 C 4.94141 -14.9316 1.36719 -11.3574 1.36719 -7.05078 C 1.36719 -2.74414 4.95117 0.830078 9.24805 0.830078 Z M 9.24805 -0.654297 C 5.70312 -0.654297 2.87109 -3.49609 2.87109 -7.05078 C 2.87109 -10.6055 5.69336 -13.4473 9.23828 -13.4473 C 12.793 -13.4473 15.6348 -10.6055 15.6445 -7.05078 C 15.6543 -3.49609 12.8027 -0.654297 9.24805 -0.654297 Z M 9.22852 -3.62305 C 9.69727 -3.62305 9.9707 -3.93555 9.9707 -4.45312 L 9.9707 -6.31836 L 12.002 -6.31836 C 12.5 -6.31836 12.832 -6.57227 12.832 -7.04102 C 12.832 -7.51953 12.5195 -7.7832 12.002 -7.7832 L 9.9707 -7.7832 L 9.9707 -9.81445 C 9.9707 -10.332 9.69727 -10.6543 9.22852 -10.6543 C 8.75977 -10.6543 8.50586 -10.3125 8.50586 -9.81445 L 8.50586 -7.7832 L 6.49414 -7.7832 C 5.97656 -7.7832 5.64453 -7.51953 5.64453 -7.04102 C 5.64453 -6.57227 5.99609 -6.31836 6.49414 -6.31836 L 8.50586 -6.31836 L 8.50586 -4.45312 C 8.50586 -3.95508 8.75977 -3.62305 9.22852 -3.62305 Z"/>
  </g>
  <g id="" transform="matrix(1 0 0 1 281.506 1933)">
   <path d="M 11.709 2.91016 C 17.1582 2.91016 21.6699 -1.61133 21.6699 -7.05078 C 21.6699 -12.5 17.1484 -17.0117 11.6992 -17.0117 C 6.25977 -17.0117 1.74805 -12.5 1.74805 -7.05078 C 1.74805 -1.61133 6.26953 2.91016 11.709 2.91016 Z M 11.709 1.25 C 7.09961 1.25 3.41797 -2.44141 3.41797 -7.05078 C 3.41797 -11.6602 7.08984 -15.3516 11.6992 -15.3516 C 16.3086 -15.3516 20 -11.6602 20.0098 -7.05078 C 20.0195 -2.44141 16.3184 1.25 11.709 1.25 Z M 11.6797 -2.66602 C 12.207 -2.66602 12.5098 -3.01758 12.5098 -3.59375 L 12.5098 -6.23047 L 15.3223 -6.23047 C 15.8691 -6.23047 16.25 -6.51367 16.25 -7.03125 C 16.25 -7.55859 15.8887 -7.86133 15.3223 -7.86133 L 12.5098 -7.86133 L 12.5098 -10.6836 C 12.5098 -11.25 12.207 -11.6113 11.6797 -11.6113 C 11.1621 -11.6113 10.8789 -11.2305 10.8789 -10.6836 L 10.8789 -7.86133 L 8.07617 -7.86133 C 7.50977 -7.86133 7.13867 -7.55859 7.13867 -7.03125 C 7.13867 -6.51367 7.5293 -6.23047 8.07617 -6.23047 L 10.8789 -6.23047 L 10.8789 -3.59375 C 10.8789 -3.03711 11.1621 -2.66602 11.6797 -2.66602 Z"/>
  </g>
  <g id="" transform="matrix(1 0 0 1 304.924 1933)">
   <path d="M 14.9707 5.66406 C 21.9336 5.66406 27.6953 -0.0976562 27.6953 -7.05078 C 27.6953 -14.0137 21.9238 -19.7754 14.9609 -19.7754 C 8.00781 -19.7754 2.25586 -14.0137 2.25586 -7.05078 C 2.25586 -0.0976562 8.01758 5.66406 14.9707 5.66406 Z M 14.9707 3.84766 C 8.93555 3.84766 4.08203 -1.01562 4.08203 -7.05078 C 4.08203 -13.0957 8.92578 -17.9492 14.9609 -17.9492 C 21.0059 -17.9492 25.8594 -13.0957 25.8691 -7.05078 C 25.8789 -1.01562 21.0156 3.84766 14.9707 3.84766 Z M 14.9414 -1.38672 C 15.5176 -1.38672 15.8594 -1.77734 15.8594 -2.38281 L 15.8594 -6.13281 L 19.7754 -6.13281 C 20.3711 -6.13281 20.7812 -6.46484 20.7812 -7.02148 C 20.7812 -7.59766 20.3906 -7.93945 19.7754 -7.93945 L 15.8594 -7.93945 L 15.8594 -11.8652 C 15.8594 -12.4805 15.5176 -12.8711 14.9414 -12.8711 C 14.375 -12.8711 14.0527 -12.4609 14.0527 -11.8652 L 14.0527 -7.93945 L 10.1465 -7.93945 C 9.53125 -7.93945 9.13086 -7.59766 9.13086 -7.02148 C 9.13086 -6.46484 9.55078 -6.13281 10.1465 -6.13281 L 14.0527 -6.13281 L 14.0527 -2.38281 C 14.0527 -1.79688 14.375 -1.38672 14.9414 -1.38672 Z"/>
  </g>
  <text style="stroke:none;fill:black;font-family:-apple-system,&quot;SF Pro Display&quot;,&quot;SF Pro Text&quot;,Helvetica,sans-serif;font-weight:bold;" transform="matrix(1 0 0 1 263 1953)">Design Variations</text>
  <text style="stroke:none;fill:black;font-family:-apple-system,&quot;SF Pro Display&quot;,&quot;SF Pro Text&quot;,Helvetica,sans-serif;" transform="matrix(1 0 0 1 263 1971)">Symbols are supported in up to nine weights and three scales.</text>
  <text style="stroke:none;fill:black;font-family:-apple-system,&quot;SF Pro Display&quot;,&quot;SF Pro Text&quot;,Helvetica,sans-serif;" transform="matrix(1 0 0 1 263 1989)">For optimal layout with text and other symbols, vertically align</text>
  <text style="stroke:none;fill:black;font-family:-apple-system,&quot;SF Pro Display&quot;,&quot;SF Pro Text&quot;,Helvetica,sans-serif;" transform="matrix(1 0 0 1 263 2007)">symbols with the adjacent text.</text>
  <line id="" style="fill:none;stroke:#00AEEF;stroke-width:0.5;opacity:1.0;" x1="776" x2="776" y1="1919" y2="1933"/>
  <g id="" transform="matrix(1 0 0 1 776 1933)">
   <path d="M 3.31055 0.126953 C 3.82812 0.126953 4.08203 -0.0683594 4.26758 -0.605469 L 5.52734 -4.0625 L 11.2891 -4.0625 L 12.5488 -0.605469 C 12.7344 -0.0683594 12.9883 0.126953 13.4961 0.126953 C 14.0137 0.126953 14.3457 -0.185547 14.3457 -0.673828 C 14.3457 -0.839844 14.3164 -0.986328 14.2383 -1.20117 L 9.6582 -13.3887 C 9.43359 -13.9941 9.0332 -14.2871 8.4082 -14.2871 C 7.80273 -14.2871 7.39258 -13.9941 7.17773 -13.3984 L 2.59766 -1.19141 C 2.51953 -0.976562 2.49023 -0.830078 2.49023 -0.664062 C 2.49023 -0.175781 2.80273 0.126953 3.31055 0.126953 Z M 6.00586 -5.53711 L 8.37891 -12.1094 L 8.42773 -12.1094 L 10.8008 -5.53711 Z"/>
  </g>
  <line id="" style="fill:none;stroke:#00AEEF;stroke-width:0.5;opacity:1.0;" x1="792.836" x2="792.836" y1="1919" y2="1933"/>
  <text style="stroke:none;fill:black;font-family:-apple-system,&quot;SF Pro Display&quot;,&quot;SF Pro Text&quot;,Helvetica,sans-serif;font-weight:bold;" transform="matrix(1 0 0 1 776 1953)">Margins</text>
  <text style="stroke:none;fill:black;font-family:-apple-system,&quot;SF Pro Display&quot;,&quot;SF Pro Text&quot;,Helvetica,sans-serif;" transform="matrix(1 0 0 1 776 1971)">Leading and trailing margins on the left and right side of each symbol</text>
  <text style="stroke:none;fill:black;font-family:-apple-system,&quot;SF Pro Display&quot;,&quot;SF Pro Text&quot;,Helvetica,sans-serif;" transform="matrix(1 0 0 1 776 1989)">can be adjusted by modifying the x-location of the margin guidelines.</text>
  <text style="stroke:none;fill:black;font-family:-apple-system,&quot;SF Pro Display&quot;,&quot;SF Pro Text&quot;,Helvetica,sans-serif;" transform="matrix(1 0 0 1 776 2007)">Modifications are automatically applied proportionally to all</text>
  <text style="stroke:none;fill:black;font-family:-apple-system,&quot;SF Pro Display&quot;,&quot;SF Pro Text&quot;,Helvetica,sans-serif;" transform="matrix(1 0 0 1 776 2025)">scales and weights.</text>
  <g id="" transform="matrix(1 0 0 1 1289 1933)">
   <path d="M 2.8418 1.86523 L 4.54102 3.57422 C 5.40039 4.44336 6.38672 4.38477 7.31445 3.35938 L 17.4902 -7.85156 C 17.7539 -7.76367 18.0273 -7.7832 18.3398 -7.8418 L 19.4043 -8.03711 L 20.0684 -7.36328 L 20.0293 -6.80664 C 19.9902 -6.30859 20.1172 -5.92773 20.6055 -5.44922 L 21.3672 -4.70703 C 21.8457 -4.22852 22.4609 -4.19922 22.9297 -4.66797 L 25.8398 -7.58789 C 26.3086 -8.05664 26.2891 -8.65234 25.8105 -9.13086 L 25.0391 -9.89258 C 24.5605 -10.3711 24.1895 -10.5273 23.7109 -10.4883 L 23.1348 -10.4395 L 22.4902 -11.0742 L 22.7344 -12.1973 C 22.8613 -12.7637 22.7051 -13.2031 22.1191 -13.7891 L 19.9219 -15.9766 C 16.582 -19.2969 12.1484 -19.2188 9.25781 -16.3281 C 8.83789 -15.918 8.80859 -15.3418 9.04297 -14.9512 C 9.27734 -14.5898 9.73633 -14.3555 10.3809 -14.5215 C 11.8457 -14.8633 13.3691 -14.9219 14.7949 -13.9844 L 14.209 -12.5293 C 14.0137 -12.0508 13.9844 -11.6504 14.1113 -11.2891 L 3.04688 -0.898438 C 2.06055 0.0195312 1.98242 0.996094 2.8418 1.86523 Z M 10.752 -15.957 C 13.1836 -17.7344 16.4746 -17.4316 18.7012 -15.2051 L 21.1328 -12.793 C 21.3672 -12.5586 21.4062 -12.373 21.3379 -12.0312 L 21.0156 -10.5469 L 22.5195 -9.0625 L 23.5059 -9.12109 C 23.7598 -9.13086 23.8379 -9.11133 24.0332 -8.91602 L 24.6094 -8.33984 L 22.168 -5.89844 L 21.5918 -6.47461 C 21.3965 -6.66992 21.3672 -6.74805 21.377 -7.01172 L 21.4453 -7.98828 L 19.9512 -9.47266 L 18.4277 -9.21875 C 18.1055 -9.15039 17.959 -9.17969 17.7148 -9.41406 L 15.7129 -11.416 C 15.459 -11.6504 15.4297 -11.8164 15.5859 -12.1875 L 16.4648 -14.2773 C 14.9023 -15.7324 12.8711 -16.3574 10.8398 -15.7617 C 10.6836 -15.7227 10.625 -15.8496 10.752 -15.957 Z M 5.27344 2.30469 L 4.10156 1.14258 C 3.63281 0.683594 3.74023 0.341797 4.14062 -0.0195312 L 14.9512 -10.1953 L 16.416 -8.71094 L 6.42578 2.27539 C 6.07422 2.67578 5.74219 2.77344 5.27344 2.30469 Z"/>
  </g>
  <text style="stroke:none;fill:black;font-family:-apple-system,&quot;SF Pro Display&quot;,&quot;SF Pro Text&quot;,Helvetica,sans-serif;font-weight:bold;" transform="matrix(1 0 0 1 1289 1953)">Exporting</text>
  <text style="stroke:none;fill:black;font-family:-apple-system,&quot;SF Pro Display&quot;,&quot;SF Pro Text&quot;,Helvetica,sans-serif;" transform="matrix(1 0 0 1 1289 1971)">Symbols should be outlined when exporting to ensure the</text>
  <text style="stroke:none;fill:black;font-family:-apple-system,&quot;SF Pro Display&quot;,&quot;SF Pro Text&quot;,Helvetica,sans-serif;" transform="matrix(1 0 0 1 1289 1989)">design is preserved when submitting to Xcode.</text>
  <text id="template-version" style="stroke:none;fill:black;font-family:-apple-system,&quot;SF Pro Display&quot;,&quot;SF Pro Text&quot;,Helvetica,sans-serif;text-anchor:end;" transform="matrix(1 0 0 1 3036 1933)">Template v.2.0</text>
  <text style="stroke:none;fill:black;font-family:-apple-system,&quot;SF Pro Display&quot;,&quot;SF Pro Text&quot;,Helvetica,sans-serif;text-anchor:end;" transform="matrix(1 0 0 1 3036 1951)">Requires Xcode 12 or greater</text>
  <text style="stroke:none;fill:black;font-family:-apple-system,&quot;SF Pro Display&quot;,&quot;SF Pro Text&quot;,Helvetica,sans-serif;text-anchor:end;" transform="matrix(1 0 0 1 3036 1969)">Generated from lirasign.circle.fill</text>
  <text style="stroke:none;fill:black;font-family:-apple-system,&quot;SF Pro Display&quot;,&quot;SF Pro Text&quot;,Helvetica,sans-serif;text-anchor:end;" transform="matrix(1 0 0 1 3036 1987)">Typeset at 100 points</text>
  <text style="stroke:none;fill:black;font-family:-apple-system,&quot;SF Pro Display&quot;,&quot;SF Pro Text&quot;,Helvetica,sans-serif;" transform="matrix(1 0 0 1 263 726)">Small</text>
  <text style="stroke:none;fill:black;font-family:-apple-system,&quot;SF Pro Display&quot;,&quot;SF Pro Text&quot;,Helvetica,sans-serif;" transform="matrix(1 0 0 1 263 1156)">Medium</text>
  <text style="stroke:none;fill:black;font-family:-apple-system,&quot;SF Pro Display&quot;,&quot;SF Pro Text&quot;,Helvetica,sans-serif;" transform="matrix(1 0 0 1 263 1586)">Large</text>
 </g>
 <g id="Guides">
  <g id="H-reference" style="fill:#27AAE1;stroke:none;" transform="matrix(1 0 0 1 339 696)">
   <path d="M 0.976562 0 L 3.66211 0 L 12.9883 -24.4629 L 45.7031 -24.4629 L 55.0781 0 L 57.7148 0 L 30.6152 -70.459 L 28.125 -70.459 Z M 29.2969 -67.1387 L 29.3945 -67.1387 L 44.873 -26.709 L 13.8672 -26.709 Z"/>
  </g>
  <line id="Baseline-S" style="fill:none;stroke:#27AAE1;opacity:1;stroke-width:0.5;" x1="263" x2="3036" y1="696" y2="696"/>
  <line id="Capline-S" style="fill:none;stroke:#27AAE1;opacity:1;stroke-width:0.5;" x1="263" x2="3036" y1="625.541" y2="625.541"/>
  <g id="H-reference" style="fill:#27AAE1;stroke:none;" transform="matrix(1 0 0 1 339 1126)">
   <path d="M 0.976562 0 L 3.66211 0 L 12.9883 -24.4629 L 45.7031 -24.4629 L 55.0781 0 L 57.7148 0 L 30.6152 -70.459 L 28.125 -70.459 Z M 29.2969 -67.1387 L 29.3945 -67.1387 L 44.873 -26.709 L 13.8672 -26.709 Z"/>
  </g>
  <line id="Baseline-M" style="fill:none;stroke:#27AAE1;opacity:1;stroke-width:0.5;" x1="263" x2="3036" y1="1126" y2="1126"/>
  <line id="Capline-M" style="fill:none;stroke:#27AAE1;opacity:1;stroke-width:0.5;" x1="263" x2="3036" y1="1055.54" y2="1055.54"/>
  <g id="H-reference" style="fill:#27AAE1;stroke:none;" transform="matrix(1 0 0 1 339 1556)">
   <path d="M 0.976562 0 L 3.66211 0 L 12.9883 -24.4629 L 45.7031 -24.4629 L 55.0781 0 L 57.7148 0 L 30.6152 -70.459 L 28.125 -70.459 Z M 29.2969 -67.1387 L 29.3945 -67.1387 L 44.873 -26.709 L 13.8672 -26.709 Z"/>
  </g>
  <line id="Baseline-L" style="fill:none;stroke:#27AAE1;opacity:1;stroke-width:0.5;" x1="263" x2="3036" y1="1556" y2="1556"/>
  <line id="Capline-L" style="fill:none;stroke:#27AAE1;opacity:1;stroke-width:0.5;" x1="263" x2="3036" y1="1485.54" y2="1485.54"/>
  <line id="left-margin" style="fill:none;stroke:#00AEEF;stroke-width:0.5;opacity:1.0;" x1="1391.3" x2="1391.3" y1="1030.79" y2="1150.12"/>
  <line id="right-margin" style="fill:none;stroke:#00AEEF;stroke-width:0.5;opacity:1.0;" x1="1508.39" x2="1508.39" y1="1030.79" y2="1150.12"/>
 </g>
 <g id="Symbols">
  <g id="Black-L" transform="matrix(1 0 0 1 2854.05 1556)">
   <path d="M 79.3457 32.8613 C 116.748 32.8613 147.412 2.19727 147.412 -35.2051 C 147.412 -72.6074 116.748 -103.271 79.2969 -103.271 C 41.8945 -103.271 11.2793 -72.6074 11.2793 -35.2051 C 11.2793 2.19727 41.9434 32.8613 79.3457 32.8613 Z M 53.5645 -13.3789 C 53.5645 -16.5527 55.6152 -18.6035 58.4473 -20.4102 C 60.8887 -21.8262 62.5488 -23.7793 63.0859 -26.6113 C 63.2324 -27.2949 63.3301 -27.7344 63.3789 -28.2715 L 55.7129 -28.2715 C 54.0527 -28.2715 52.7344 -29.4922 52.7344 -31.2012 C 52.7344 -32.959 54.0039 -34.1797 55.7129 -34.1797 L 63.1348 -34.1797 C 62.8906 -35.6934 62.5 -37.3535 62.1094 -38.8672 L 55.7129 -38.8672 C 54.0527 -38.8672 52.7344 -40.0879 52.7344 -41.7969 C 52.7344 -43.5547 54.0039 -44.7754 55.7129 -44.7754 L 60.9375 -44.7754 C 60.791 -45.752 60.6934 -46.6797 60.6934 -47.7051 C 60.6934 -58.6914 69.3848 -66.4551 84.375 -66.4551 C 90.6738 -66.4551 95.0195 -65.6738 97.9492 -63.916 C 100.195 -62.5977 101.27 -60.7422 101.27 -58.3008 C 101.27 -54.7852 98.9258 -52.9785 95.5566 -52.9785 C 92.5293 -52.9785 91.0645 -53.7109 86.7676 -53.7109 C 79.9805 -53.7109 76.4648 -50.5859 76.4648 -46.0938 C 76.4648 -45.5566 76.5137 -44.9707 76.5137 -44.7754 L 91.6504 -44.7754 C 93.3594 -44.7754 94.6289 -43.5547 94.6289 -41.7969 C 94.6289 -40.0879 93.3594 -38.8672 91.6504 -38.8672 L 77.6367 -38.8672 C 78.0273 -37.4023 78.3203 -35.8398 78.6133 -34.1797 L 91.6504 -34.1797 C 93.3594 -34.1797 94.6289 -32.959 94.6289 -31.2012 C 94.6289 -29.4922 93.3594 -28.2715 91.6504 -28.2715 L 78.6133 -28.2715 C 78.5156 -27.5391 78.3691 -26.9043 78.2227 -26.1719 C 77.5879 -23.8281 76.5625 -21.6309 74.8535 -20.0684 L 95.2148 -20.0684 C 99.1699 -20.0684 102.002 -17.5293 102.002 -13.5254 C 102.002 -9.52148 99.1699 -6.93359 95.2148 -6.93359 L 60.3027 -6.93359 C 56.3965 -6.93359 53.5645 -9.32617 53.5645 -13.3789 Z"/>
  </g>
  <g id="Heavy-L" transform="matrix(1 0 0 1 2558.39 1556)">
   <path d="M 78.2715 31.7871 C 115.088 31.7871 145.312 1.5625 145.312 -35.2051 C 145.312 -72.0215 115.039 -102.246 78.2715 -102.246 C 41.4551 -102.246 11.2793 -72.0215 11.2793 -35.2051 C 11.2793 1.5625 41.5039 31.7871 78.2715 31.7871 Z M 53.1738 -12.3047 C 53.1738 -15.1855 54.9316 -17.041 57.6172 -18.5547 C 60.5957 -19.9219 62.7441 -22.4121 63.3301 -25.9277 C 63.4277 -26.6602 63.4766 -27.1973 63.5254 -27.832 L 55.6641 -27.832 C 53.9551 -27.832 52.6367 -29.0527 52.6367 -30.7617 C 52.6367 -32.5684 53.9062 -33.7891 55.6641 -33.7891 L 63.0859 -33.7891 C 62.8418 -35.4004 62.3535 -37.1094 61.9629 -38.7695 L 55.6641 -38.7695 C 53.9551 -38.7695 52.6367 -39.9902 52.6367 -41.6992 C 52.6367 -43.5059 53.9062 -44.7266 55.6641 -44.7266 L 60.8398 -44.7266 C 60.6934 -45.6055 60.5957 -46.4844 60.5957 -47.4121 C 60.5957 -58.5938 69.043 -66.2598 83.5449 -66.2598 C 89.4043 -66.2598 93.6035 -65.5762 96.4844 -63.9648 C 98.6816 -62.7441 99.6582 -61.0352 99.6582 -58.8379 C 99.6582 -55.7129 97.5586 -54.0039 94.4824 -54.0527 C 91.6504 -54.1504 89.8926 -54.9805 85.498 -54.9805 C 78.2227 -54.9805 74.3652 -51.416 74.3652 -46.2891 C 74.3652 -45.7031 74.4141 -45.0684 74.4629 -44.7266 L 90.5273 -44.7266 C 92.2852 -44.7266 93.5547 -43.5059 93.5547 -41.6992 C 93.5547 -39.9902 92.2852 -38.7695 90.5273 -38.7695 L 75.5859 -38.7695 C 75.9766 -37.207 76.3672 -35.5469 76.709 -33.7891 L 90.5273 -33.7891 C 92.2852 -33.7891 93.5547 -32.5684 93.5547 -30.7617 C 93.5547 -29.0527 92.2852 -27.832 90.5273 -27.832 L 76.8555 -27.832 C 76.8066 -27.002 76.6602 -26.2695 76.5137 -25.4883 C 75.9277 -22.6562 74.6582 -19.9707 72.6562 -18.2129 L 94.873 -18.2129 C 98.3887 -18.2129 100.879 -15.9668 100.879 -12.4512 C 100.879 -8.88672 98.3887 -6.64062 94.873 -6.64062 L 59.082 -6.64062 C 55.6641 -6.64062 53.1738 -8.74023 53.1738 -12.3047 Z"/>
  </g>
  <g id="Bold-L" transform="matrix(1 0 0 1 2262.88 1556)">
   <path d="M 77.0996 30.5664 C 113.232 30.5664 142.92 0.878906 142.92 -35.2539 C 142.92 -71.3379 113.184 -101.074 77.0508 -101.074 C 40.9668 -101.074 11.2793 -71.3379 11.2793 -35.2539 C 11.2793 0.878906 41.0156 30.5664 77.0996 30.5664 Z M 52.7344 -11.1328 C 52.7344 -13.6719 54.1992 -15.2832 56.6406 -16.5039 C 60.3027 -17.8223 62.9883 -20.9473 63.5254 -25.1953 C 63.623 -25.9766 63.6719 -26.6113 63.6719 -27.2949 L 55.6152 -27.2949 C 53.8574 -27.2949 52.5391 -28.5156 52.5391 -30.3223 C 52.5391 -32.0801 53.8086 -33.3496 55.6152 -33.3496 L 63.0859 -33.3496 C 62.7441 -35.0586 62.207 -36.8652 61.7676 -38.623 L 55.6152 -38.623 C 53.8574 -38.623 52.5391 -39.8438 52.5391 -41.6504 C 52.5391 -43.4082 53.8086 -44.6777 55.6152 -44.6777 L 60.6934 -44.6777 C 60.5957 -45.5078 60.498 -46.2891 60.498 -47.1191 C 60.498 -58.4473 68.6523 -66.1133 82.666 -66.1133 C 87.9395 -66.1133 91.9922 -65.3809 94.8242 -63.9648 C 96.9727 -62.8906 97.8516 -61.377 97.8516 -59.4238 C 97.8516 -56.6895 96.0449 -55.1758 93.2617 -55.2734 C 90.6738 -55.4688 88.5254 -56.3965 84.082 -56.3965 C 76.2695 -56.3965 72.0703 -52.3926 72.0703 -46.582 C 72.0703 -45.8984 72.1191 -45.166 72.168 -44.6777 L 89.2578 -44.6777 C 91.0645 -44.6777 92.334 -43.4082 92.334 -41.6504 C 92.334 -39.8438 91.0645 -38.623 89.2578 -38.623 L 73.291 -38.623 C 73.7305 -36.9141 74.1699 -35.2051 74.5605 -33.3496 L 89.2578 -33.3496 C 91.0645 -33.3496 92.334 -32.0801 92.334 -30.3223 C 92.334 -28.5156 91.0645 -27.2949 89.2578 -27.2949 L 74.9023 -27.2949 C 74.8535 -26.416 74.8047 -25.5859 74.6582 -24.707 C 74.0723 -21.3379 72.5098 -18.1152 70.166 -16.1621 L 94.5312 -16.1621 C 97.5098 -16.1621 99.6582 -14.209 99.6582 -11.2305 C 99.6582 -8.20312 97.5098 -6.25 94.5312 -6.25 L 57.7637 -6.25 C 54.7852 -6.25 52.7344 -8.10547 52.7344 -11.1328 Z"/>
  </g>
  <g id="Semibold-L" transform="matrix(1 0 0 1 1966.97 1556)">
   <path d="M 76.2695 29.7363 C 111.914 29.7363 141.309 0.390625 141.309 -35.2539 C 141.309 -70.8984 111.865 -100.244 76.2695 -100.244 C 40.625 -100.244 11.2793 -70.8984 11.2793 -35.2539 C 11.2793 0.390625 40.6738 29.7363 76.2695 29.7363 Z M 52.3926 -10.3516 C 52.3926 -12.5977 53.6621 -14.0625 55.957 -15.0391 C 60.1074 -16.3574 63.1836 -19.873 63.6719 -24.707 C 63.7695 -25.4883 63.8184 -26.2207 63.7695 -26.9531 L 55.5664 -26.9531 C 53.7598 -26.9531 52.4414 -28.1738 52.4414 -29.9805 C 52.4414 -31.7871 53.7598 -33.0078 55.5664 -33.0078 L 63.0371 -33.0078 C 62.6465 -34.8633 62.1094 -36.6699 61.6699 -38.5254 L 55.5664 -38.5254 C 53.7598 -38.5254 52.4414 -39.7949 52.4414 -41.5527 C 52.4414 -43.3594 53.7598 -44.6289 55.5664 -44.6289 L 60.6445 -44.6289 C 60.498 -45.4102 60.4004 -46.1426 60.4004 -46.9238 C 60.4004 -58.3984 68.4082 -65.9668 82.0801 -65.9668 C 86.9629 -65.9668 90.8691 -65.2832 93.7012 -63.9648 C 95.752 -62.9883 96.582 -61.5723 96.582 -59.8145 C 96.582 -57.373 95.0195 -55.957 92.4316 -56.1035 C 90.0391 -56.3965 87.5977 -57.373 83.1055 -57.373 C 74.9023 -57.373 70.459 -53.0273 70.459 -46.7773 C 70.459 -45.9961 70.5078 -45.2148 70.6055 -44.6289 L 88.3789 -44.6289 C 90.1855 -44.6289 91.5039 -43.3594 91.5039 -41.5527 C 91.5039 -39.7949 90.1855 -38.5254 88.3789 -38.5254 L 71.7285 -38.5254 C 72.168 -36.7676 72.6562 -34.9609 73.0957 -33.0078 L 88.3789 -33.0078 C 90.1855 -33.0078 91.5039 -31.7871 91.5039 -29.9805 C 91.5039 -28.1738 90.1855 -26.9531 88.3789 -26.9531 L 73.5352 -26.9531 C 73.5352 -25.9766 73.4863 -25.0977 73.3398 -24.1699 C 72.8027 -20.4102 71.0449 -16.8457 68.5059 -14.6973 L 94.2383 -14.6973 C 96.9238 -14.6973 98.7793 -12.9883 98.7793 -10.3516 C 98.7793 -7.71484 96.9238 -6.00586 94.2383 -6.00586 L 56.8359 -6.00586 C 54.1992 -6.00586 52.3926 -7.66602 52.3926 -10.3516 Z"/>
  </g>
  <g id="Medium-L" transform="matrix(1 0 0 1 1670.87 1556)">
   <path d="M 75.6836 29.1504 C 110.938 29.1504 140.088 0 140.088 -35.2539 C 140.088 -70.5078 110.889 -99.6582 75.6348 -99.6582 C 40.3809 -99.6582 11.2793 -70.5078 11.2793 -35.2539 C 11.2793 0 40.3809 29.1504 75.6836 29.1504 Z M 52.1973 -9.7168 C 52.1973 -11.8164 53.2715 -13.1348 55.4688 -13.9648 C 59.9121 -15.2832 63.3301 -19.0918 63.8184 -24.3164 C 63.8672 -25.1465 63.916 -25.9277 63.8672 -26.6602 L 55.5664 -26.6602 C 53.7109 -26.6602 52.3926 -27.9297 52.3926 -29.7363 C 52.3926 -31.543 53.7109 -32.8125 55.5664 -32.8125 L 63.0371 -32.8125 C 62.5977 -34.668 62.0117 -36.5234 61.5723 -38.4766 L 55.5664 -38.4766 C 53.7109 -38.4766 52.3926 -39.6973 52.3926 -41.5039 C 52.3926 -43.3105 53.7109 -44.5801 55.5664 -44.5801 L 60.5469 -44.5801 C 60.4492 -45.3125 60.3516 -46.0449 60.3516 -46.7773 C 60.3516 -58.3496 68.1641 -65.8691 81.5918 -65.8691 C 86.1816 -65.8691 90.0391 -65.2344 92.8223 -63.9648 C 94.873 -63.0371 95.6543 -61.7676 95.6543 -60.1074 C 95.6543 -57.9102 94.1895 -56.5918 91.7969 -56.7383 C 89.5508 -57.0801 86.9141 -58.1543 82.373 -58.1543 C 73.877 -58.1543 69.2383 -53.5156 69.2383 -46.875 C 69.2383 -46.0938 69.2871 -45.2637 69.3848 -44.5801 L 87.6953 -44.5801 C 89.5508 -44.5801 90.8691 -43.3105 90.8691 -41.5039 C 90.8691 -39.6973 89.5508 -38.4766 87.6953 -38.4766 L 70.5078 -38.4766 C 70.9961 -36.6211 71.4844 -34.7656 71.9727 -32.8125 L 87.6953 -32.8125 C 89.5508 -32.8125 90.8691 -31.543 90.8691 -29.7363 C 90.8691 -27.9297 89.5508 -26.6602 87.6953 -26.6602 L 72.5098 -26.6602 C 72.5098 -25.6836 72.4609 -24.7559 72.3633 -23.7305 C 71.875 -19.7266 69.9219 -15.8691 67.1875 -13.623 L 94.043 -13.623 C 96.4355 -13.623 98.1445 -12.0605 98.1445 -9.7168 C 98.1445 -7.32422 96.4355 -5.81055 94.043 -5.81055 L 56.1523 -5.81055 C 53.7598 -5.81055 52.1973 -7.32422 52.1973 -9.7168 Z"/>
  </g>
  <g id="Regular-L" transform="matrix(1 0 0 1 1374.97 1556)">
   <path d="M 74.8535 28.3203 C 109.668 28.3203 138.477 -0.488281 138.477 -35.2539 C 138.477 -70.0684 109.619 -98.877 74.8047 -98.877 C 40.0391 -98.877 11.2793 -70.0684 11.2793 -35.2539 C 11.2793 -0.488281 40.0879 28.3203 74.8535 28.3203 Z M 51.8555 -8.93555 C 51.8555 -10.7422 52.7344 -11.9629 54.834 -12.5488 C 59.7168 -13.8184 63.4766 -18.0664 63.9648 -23.8281 C 64.0137 -24.6582 64.0625 -25.4883 63.9648 -26.3184 L 55.5176 -26.3184 C 53.6621 -26.3184 52.2949 -27.5879 52.2949 -29.3945 C 52.2949 -31.25 53.6621 -32.5195 55.5176 -32.5195 L 62.9883 -32.5195 C 62.5488 -34.4727 61.9141 -36.377 61.4746 -38.3789 L 55.5176 -38.3789 C 53.6621 -38.3789 52.2949 -39.6484 52.2949 -41.4551 C 52.2949 -43.2617 53.6621 -44.5312 55.5176 -44.5312 L 60.498 -44.5312 C 60.3516 -45.2148 60.3027 -45.8984 60.3027 -46.582 C 60.3027 -58.252 67.9199 -65.7715 81.0059 -65.7715 C 85.2051 -65.7715 88.9648 -65.0879 91.6992 -63.9648 C 93.7012 -63.1348 94.3848 -61.9629 94.3848 -60.498 C 94.3848 -58.5938 93.1641 -57.373 90.9668 -57.5684 C 88.8672 -58.0078 85.9863 -59.082 81.3965 -59.082 C 72.5586 -59.082 67.6758 -54.1504 67.6758 -47.0703 C 67.6758 -46.1914 67.7246 -45.3613 67.8711 -44.5312 L 86.8652 -44.5312 C 88.7207 -44.5312 90.0879 -43.2617 90.0879 -41.4551 C 90.0879 -39.6484 88.7207 -38.3789 86.8652 -38.3789 L 68.9453 -38.3789 C 69.4336 -36.4258 69.9707 -34.5215 70.5078 -32.5195 L 86.8652 -32.5195 C 88.7207 -32.5195 90.0879 -31.25 90.0879 -29.3945 C 90.0879 -27.5879 88.7207 -26.3184 86.8652 -26.3184 L 71.1914 -26.3184 C 71.1914 -25.2441 71.1914 -24.2676 71.0938 -23.1934 C 70.6055 -18.7988 68.457 -14.5996 65.5273 -12.207 L 93.7988 -12.207 C 95.8496 -12.207 97.2656 -10.8398 97.2656 -8.88672 C 97.2656 -6.88477 95.8496 -5.56641 93.7988 -5.56641 L 55.2246 -5.56641 C 53.2227 -5.56641 51.8555 -6.88477 51.8555 -8.93555 Z"/>
  </g>
  <g id="Light-L" transform="matrix(1 0 0 1 1079.18 1556)">
   <path d="M 73.9258 27.3926 C 108.301 27.3926 136.621 -0.927734 136.621 -35.2539 C 136.621 -69.6289 108.252 -97.9492 73.9258 -97.9492 C 39.5508 -97.9492 11.2793 -69.6289 11.2793 -35.2539 C 11.2793 -0.927734 39.5996 27.3926 73.9258 27.3926 Z M 51.9531 -9.52148 C 51.9531 -10.9863 52.6855 -11.9629 54.2969 -12.4023 C 59.8633 -13.6719 63.5742 -18.457 63.916 -24.2188 C 63.916 -25.1953 63.916 -26.2207 63.7695 -27.1484 L 55.4688 -27.1484 C 53.8574 -27.1484 52.7832 -28.2227 52.7832 -29.6875 C 52.7832 -31.2012 53.8574 -32.2266 55.4688 -32.2266 L 62.9395 -32.2266 C 62.4512 -34.3262 61.7676 -36.3281 61.2793 -38.4277 L 55.4688 -38.4277 C 53.8574 -38.4277 52.7832 -39.502 52.7832 -40.9668 C 52.7832 -42.4316 53.8574 -43.5059 55.4688 -43.5059 L 60.4004 -43.5059 C 60.2051 -44.5312 60.1074 -45.5078 60.1074 -46.5332 C 60.1074 -57.3242 66.9434 -64.502 79.5898 -64.502 C 84.1309 -64.502 87.8906 -63.5742 90.2832 -62.5488 C 91.8457 -61.8164 92.334 -60.9375 92.334 -59.8145 C 92.334 -58.2031 91.1621 -57.1777 89.3066 -57.5195 C 87.1582 -58.1543 84.1797 -59.2285 79.834 -59.2285 C 70.6055 -59.2285 65.918 -54.1016 65.918 -46.875 C 65.918 -45.7031 66.0156 -44.5801 66.2109 -43.5059 L 85.4004 -43.5059 C 86.9629 -43.5059 88.0371 -42.4316 88.0371 -40.9668 C 88.0371 -39.502 86.9629 -38.4277 85.4004 -38.4277 L 67.1875 -38.4277 C 67.7246 -36.4258 68.3105 -34.375 68.8477 -32.2266 L 85.4004 -32.2266 C 86.9629 -32.2266 88.0371 -31.2012 88.0371 -29.6875 C 88.0371 -28.2227 86.9629 -27.1484 85.4004 -27.1484 L 69.5312 -27.1484 C 69.5801 -26.0742 69.6289 -25 69.5801 -23.8281 C 69.2383 -19.2383 66.8457 -14.5996 63.7207 -12.1582 L 92.2852 -12.1582 C 93.9453 -12.1582 95.0684 -11.0352 95.0684 -9.47266 C 95.0684 -7.86133 93.9453 -6.78711 92.2852 -6.78711 L 54.6875 -6.78711 C 53.0273 -6.78711 51.9531 -7.86133 51.9531 -9.52148 Z"/>
  </g>
  <g id="Thin-L" transform="matrix(1 0 0 1 783.693 1556)">
   <path d="M 72.7051 26.1719 C 106.494 26.1719 134.18 -1.51367 134.18 -35.2539 C 134.18 -69.043 106.494 -96.7285 72.7051 -96.7285 C 38.9648 -96.7285 11.2793 -69.043 11.2793 -35.2539 C 11.2793 -1.51367 38.9648 26.1719 72.7051 26.1719 Z M 52.0996 -10.3027 C 52.0996 -11.2305 52.6367 -11.9629 53.6621 -12.1582 C 60.1074 -13.4766 63.7207 -18.9453 63.8184 -24.707 C 63.8184 -25.9277 63.7207 -27.1484 63.5254 -28.3203 L 55.3711 -28.3203 C 54.1992 -28.3203 53.4668 -29.1016 53.4668 -30.0781 C 53.4668 -31.1035 54.1992 -31.8848 55.3711 -31.8848 L 62.8418 -31.8848 C 62.3047 -34.1309 61.5723 -36.3281 61.0352 -38.5254 L 55.3711 -38.5254 C 54.1992 -38.5254 53.4668 -39.3555 53.4668 -40.332 C 53.4668 -41.3574 54.1992 -42.1387 55.3711 -42.1387 L 60.2539 -42.1387 C 59.9609 -43.5547 59.8145 -44.9707 59.8145 -46.4844 C 59.8145 -56.1035 65.625 -62.8906 77.7832 -62.8906 C 82.7148 -62.8906 86.4746 -61.5234 88.3301 -60.6445 C 89.3555 -60.1074 89.5996 -59.5215 89.5996 -58.9355 C 89.5996 -57.666 88.4277 -56.8848 87.1094 -57.4219 C 84.8633 -58.3496 81.7871 -59.375 77.832 -59.375 C 68.0176 -59.375 63.5742 -53.9551 63.5742 -46.582 C 63.5742 -45.0684 63.7207 -43.5547 64.0137 -42.1387 L 83.4961 -42.1387 C 84.668 -42.1387 85.4004 -41.3574 85.4004 -40.332 C 85.4004 -39.3555 84.668 -38.5254 83.4961 -38.5254 L 64.8926 -38.5254 C 65.4785 -36.4258 66.1133 -34.1797 66.6992 -31.8848 L 83.4961 -31.8848 C 84.668 -31.8848 85.4004 -31.1035 85.4004 -30.0781 C 85.4004 -29.1016 84.668 -28.3203 83.4961 -28.3203 L 67.334 -28.3203 C 67.4805 -27.0996 67.5293 -25.9277 67.5293 -24.6582 C 67.4805 -19.8242 64.7461 -14.6484 61.2793 -12.0605 L 90.2344 -12.0605 C 91.4062 -12.0605 92.1387 -11.2305 92.1387 -10.2051 C 92.1387 -9.17969 91.4062 -8.39844 90.2344 -8.39844 L 54.0039 -8.39844 C 52.832 -8.39844 52.0996 -9.17969 52.0996 -10.3027 Z"/>
  </g>
  <g id="Ultralight-L" transform="matrix(1 0 0 1 487.616 1556)">
   <path d="M 72.1191 25.5371 C 105.566 25.5371 132.91 -1.80664 132.91 -35.2539 C 132.91 -68.75 105.566 -96.0938 72.1191 -96.0938 C 38.623 -96.0938 11.2793 -68.75 11.2793 -35.2539 C 11.2793 -1.80664 38.623 25.5371 72.1191 25.5371 Z M 52.1484 -10.6934 C 52.1484 -11.377 52.5879 -11.9629 53.3203 -12.0605 C 60.2051 -13.3301 63.8184 -19.2383 63.7695 -24.9512 C 63.7207 -26.2695 63.6719 -27.6367 63.3789 -28.8574 L 55.3223 -28.8574 C 54.3457 -28.8574 53.8086 -29.541 53.8086 -30.3223 C 53.8086 -31.0547 54.3457 -31.7383 55.3223 -31.7383 L 62.793 -31.7383 C 62.207 -34.0332 61.4746 -36.3281 60.8887 -38.5742 L 55.3223 -38.5742 C 54.3457 -38.5742 53.8086 -39.2578 53.8086 -40.0391 C 53.8086 -40.7715 54.3457 -41.4551 55.3223 -41.4551 L 60.2051 -41.4551 C 59.8633 -43.0664 59.668 -44.7266 59.668 -46.4355 C 59.668 -55.4688 64.9902 -62.0605 76.8066 -62.0605 C 81.9824 -62.0605 85.791 -60.498 87.3535 -59.668 C 88.0859 -59.2285 88.1836 -58.7891 88.1836 -58.4473 C 88.1836 -57.4219 87.0605 -56.7383 85.9863 -57.373 C 83.7402 -58.4961 80.5664 -59.4238 76.7578 -59.4238 C 66.6504 -59.4238 62.4023 -53.9062 62.4023 -46.4844 C 62.4023 -44.7754 62.5488 -43.0664 62.8906 -41.4551 L 82.5195 -41.4551 C 83.4473 -41.4551 84.0332 -40.7715 84.0332 -40.0391 C 84.0332 -39.2578 83.4473 -38.5742 82.5195 -38.5742 L 63.6719 -38.5742 C 64.3555 -36.377 64.9902 -34.082 65.5762 -31.7383 L 82.5195 -31.7383 C 83.4473 -31.7383 84.0332 -31.0547 84.0332 -30.3223 C 84.0332 -29.541 83.4473 -28.8574 82.5195 -28.8574 L 66.2109 -28.8574 C 66.4062 -27.6367 66.4551 -26.416 66.5039 -25.0977 C 66.5527 -20.1172 63.6719 -14.6973 60.0586 -12.0117 L 89.1602 -12.0117 C 90.0879 -12.0117 90.625 -11.377 90.625 -10.5957 C 90.625 -9.86328 90.0879 -9.22852 89.1602 -9.22852 L 53.6133 -9.22852 C 52.6855 -9.22852 52.1484 -9.86328 52.1484 -10.6934 Z"/>
  </g>
  <g id="Black-M" transform="matrix(1 0 0 1 2870.97 1126)">
   <path d="M 62.4023 18.457 C 91.9922 18.457 116.113 -5.61523 116.113 -35.2051 C 116.113 -64.7949 91.9922 -88.8672 62.4023 -88.8672 C 32.8125 -88.8672 8.74023 -64.7949 8.74023 -35.2051 C 8.74023 -5.61523 32.8125 18.457 62.4023 18.457 Z M 42.1387 -20.0195 C 42.1387 -22.7051 43.9941 -24.4629 46.1914 -26.1719 C 47.6562 -27.2949 48.2422 -28.3691 48.584 -29.6387 C 48.7305 -30.1758 48.7793 -30.4688 48.8281 -30.9082 L 43.2129 -30.9082 C 42.1387 -30.9082 41.3086 -31.7383 41.3086 -32.8125 C 41.3086 -33.9844 42.0898 -34.8145 43.2129 -34.8145 L 48.9258 -34.8145 C 48.8281 -35.8887 48.584 -37.1582 48.2422 -38.2812 L 43.2129 -38.2812 C 42.1387 -38.2812 41.3086 -39.0625 41.3086 -40.1855 C 41.3086 -41.3574 42.0898 -42.1387 43.2129 -42.1387 L 47.3145 -42.1387 C 47.168 -43.1641 47.0703 -44.1895 47.0703 -45.2148 C 47.0703 -53.0762 53.7109 -58.9844 65.7227 -58.9844 C 71.4355 -58.9844 75.0488 -58.2031 77.1484 -56.6895 C 78.7598 -55.5664 79.541 -54.0527 79.541 -52.0508 C 79.541 -48.9746 77.3926 -47.4609 74.6582 -47.4609 C 71.9238 -47.4609 71.2402 -47.9004 68.1152 -47.9004 C 63.2812 -47.9004 61.084 -45.9473 61.084 -43.2129 C 61.084 -42.7734 61.1816 -42.2363 61.1816 -42.1387 L 71.7773 -42.1387 C 72.9004 -42.1387 73.6816 -41.3574 73.6816 -40.1855 C 73.6816 -39.0625 72.9004 -38.2812 71.7773 -38.2812 L 61.9629 -38.2812 C 62.3047 -37.207 62.4512 -36.0352 62.6465 -34.8145 L 71.7773 -34.8145 C 72.9004 -34.8145 73.6816 -33.9844 73.6816 -32.8125 C 73.6816 -31.7383 72.9004 -30.9082 71.7773 -30.9082 L 62.4023 -30.9082 C 62.3047 -30.4199 62.207 -29.9805 62.0605 -29.4922 C 61.6211 -28.2227 61.0352 -26.9531 60.0098 -25.9277 L 73.3887 -25.9277 C 76.9043 -25.9277 79.3457 -23.7305 79.3457 -20.2148 C 79.3457 -16.6992 76.9043 -14.4043 73.3887 -14.4043 L 48.0469 -14.4043 C 44.6289 -14.4043 42.1387 -16.5039 42.1387 -20.0195 Z"/>
  </g>
  <g id="Heavy-M" transform="matrix(1 0 0 1 2575.19 1126)">
   <path d="M 61.5234 17.5293 C 90.5273 17.5293 114.258 -6.20117 114.258 -35.2051 C 114.258 -64.2578 90.5273 -87.9883 61.4746 -87.9883 C 32.4707 -87.9883 8.74023 -64.2578 8.74023 -35.2051 C 8.74023 -6.20117 32.4707 17.5293 61.5234 17.5293 Z M 41.6504 -18.7012 C 41.6504 -21.1426 43.2617 -22.7539 45.3613 -24.1699 C 47.3145 -25.293 48.4375 -26.8066 48.8281 -28.8086 C 48.9258 -29.3457 48.9746 -29.7363 49.0234 -30.1758 L 43.1641 -30.1758 C 41.9922 -30.1758 41.0645 -31.0547 41.0645 -32.2754 C 41.0645 -33.5449 41.9434 -34.4238 43.1641 -34.4238 L 48.9258 -34.4238 C 48.7305 -35.6445 48.4375 -36.9141 48.1445 -38.1348 L 43.1641 -38.1348 C 41.9922 -38.1348 41.0645 -38.9648 41.0645 -40.1855 C 41.0645 -41.5039 41.9434 -42.334 43.1641 -42.334 L 47.2168 -42.334 C 47.1191 -43.2129 47.0215 -44.043 47.0215 -44.9219 C 47.0215 -53.1738 53.6133 -59.1309 65.1855 -59.1309 C 70.3125 -59.1309 73.7305 -58.4473 75.8789 -57.0801 C 77.5391 -56.0547 78.3203 -54.6387 78.3203 -52.7832 C 78.3203 -50.0488 76.4648 -48.6816 73.877 -48.6816 C 71.4355 -48.7305 70.4102 -49.2676 67.1387 -49.2676 C 61.9141 -49.2676 59.2773 -46.875 59.2773 -43.5059 C 59.2773 -43.0664 59.375 -42.5293 59.375 -42.334 L 70.9473 -42.334 C 72.168 -42.334 73.0469 -41.5039 73.0469 -40.1855 C 73.0469 -38.9648 72.168 -38.1348 70.9473 -38.1348 L 60.2051 -38.1348 C 60.498 -36.9629 60.7422 -35.7422 60.9863 -34.4238 L 70.9473 -34.4238 C 72.168 -34.4238 73.0469 -33.5449 73.0469 -32.2754 C 73.0469 -31.0547 72.168 -30.1758 70.9473 -30.1758 L 60.8887 -30.1758 C 60.8398 -29.6387 60.7422 -29.1504 60.6445 -28.5645 C 60.2051 -26.8066 59.375 -25.1465 58.0566 -23.9258 L 73.4375 -23.9258 C 76.5625 -23.9258 78.7109 -21.9727 78.7109 -18.8477 C 78.7109 -15.7227 76.5625 -13.7207 73.4375 -13.7207 L 46.875 -13.7207 C 43.8477 -13.7207 41.6504 -15.5762 41.6504 -18.7012 Z"/>
  </g>
  <g id="Bold-M" transform="matrix(1 0 0 1 2279.5 1126)">
   <path d="M 60.498 16.5039 C 88.8672 16.5039 112.207 -6.83594 112.207 -35.2051 C 112.207 -63.623 88.8672 -86.9629 60.4492 -86.9629 C 32.0312 -86.9629 8.74023 -63.623 8.74023 -35.2051 C 8.74023 -6.83594 32.0801 16.5039 60.498 16.5039 Z M 41.1133 -17.2363 C 41.1133 -19.4336 42.4805 -20.8496 44.4824 -21.9727 C 46.9238 -23.0469 48.6816 -25.0488 49.1211 -27.8809 C 49.1699 -28.4668 49.2188 -28.9062 49.2676 -29.3945 L 43.1152 -29.3945 C 41.7969 -29.3945 40.7715 -30.3223 40.7715 -31.6895 C 40.7715 -33.0566 41.748 -34.0332 43.1152 -34.0332 L 48.877 -34.0332 C 48.6816 -35.3027 48.291 -36.6211 47.998 -37.9395 L 43.1152 -37.9395 C 41.7969 -37.9395 40.7715 -38.916 40.7715 -40.2344 C 40.7715 -41.6504 41.748 -42.5781 43.1152 -42.5781 L 47.1191 -42.5781 C 47.0215 -43.2617 46.9727 -43.9453 46.9727 -44.6289 C 46.9727 -53.3203 53.4668 -59.2773 64.6484 -59.2773 C 69.043 -59.2773 72.2656 -58.7402 74.5117 -57.5195 C 76.2207 -56.5918 76.9531 -55.3223 76.9531 -53.6133 C 76.9531 -51.2695 75.3906 -50 73.0469 -50.0488 C 70.8984 -50.1465 69.4336 -50.7812 66.0156 -50.7812 C 60.3027 -50.7812 57.2754 -47.9492 57.2754 -43.8477 C 57.2754 -43.4082 57.3242 -42.8711 57.3242 -42.5781 L 69.9707 -42.5781 C 71.3379 -42.5781 72.3145 -41.6504 72.3145 -40.2344 C 72.3145 -38.916 71.3379 -37.9395 69.9707 -37.9395 L 58.2031 -37.9395 C 58.5449 -36.7188 58.8379 -35.4004 59.1309 -34.0332 L 69.9707 -34.0332 C 71.3379 -34.0332 72.3145 -33.0566 72.3145 -31.6895 C 72.3145 -30.3223 71.3379 -29.3945 69.9707 -29.3945 L 59.2285 -29.3945 C 59.2285 -28.7598 59.1309 -28.1738 59.0332 -27.5391 C 58.5449 -25.2441 57.5195 -23.0957 55.9082 -21.6797 L 73.4863 -21.6797 C 76.123 -21.6797 78.0273 -19.9707 78.0273 -17.334 C 78.0273 -14.6973 76.123 -12.9883 73.4863 -12.9883 L 45.5566 -12.9883 C 42.9688 -12.9883 41.1133 -14.5996 41.1133 -17.2363 Z"/>
  </g>
  <g id="Semibold-M" transform="matrix(1 0 0 1 1983.5 1126)">
   <path d="M 59.7656 15.8203 C 87.7441 15.8203 110.791 -7.27539 110.791 -35.2539 C 110.791 -63.2324 87.6953 -86.2793 59.7656 -86.2793 C 31.7871 -86.2793 8.74023 -63.2324 8.74023 -35.2539 C 8.74023 -7.27539 31.7871 15.8203 59.7656 15.8203 Z M 40.7715 -16.2598 C 40.7715 -18.2129 41.8945 -19.4824 43.8477 -20.4102 C 46.6309 -21.4844 48.8281 -23.8281 49.2676 -27.2949 C 49.3652 -27.832 49.4141 -28.3203 49.4141 -28.8086 L 43.1152 -28.8086 C 41.6504 -28.8086 40.5762 -29.834 40.5762 -31.2988 C 40.5762 -32.7637 41.6504 -33.7402 43.1152 -33.7402 L 48.877 -33.7402 C 48.6328 -35.1074 48.2422 -36.4258 47.9004 -37.8418 L 43.1152 -37.8418 C 41.6504 -37.8418 40.5762 -38.8184 40.5762 -40.2832 C 40.5762 -41.748 41.6504 -42.7734 43.1152 -42.7734 L 47.0703 -42.7734 C 46.9727 -43.3105 46.9238 -43.8477 46.9238 -44.4336 C 46.9238 -53.418 53.3691 -59.375 64.2578 -59.375 C 68.1641 -59.375 71.2891 -58.9355 73.584 -57.8125 C 75.293 -56.9824 75.9766 -55.7617 75.9766 -54.1992 C 75.9766 -52.0996 74.6582 -50.8789 72.4609 -50.9766 C 70.5078 -51.0742 68.7988 -51.8555 65.2832 -51.8555 C 59.2285 -51.8555 55.8594 -48.6816 55.8594 -44.0918 C 55.8594 -43.6035 55.9082 -43.1152 55.957 -42.7734 L 69.2871 -42.7734 C 70.752 -42.7734 71.8262 -41.748 71.8262 -40.2832 C 71.8262 -38.8184 70.752 -37.8418 69.2871 -37.8418 L 56.8359 -37.8418 C 57.1777 -36.5234 57.5195 -35.1562 57.8125 -33.7402 L 69.2871 -33.7402 C 70.752 -33.7402 71.8262 -32.7637 71.8262 -31.2988 C 71.8262 -29.834 70.752 -28.8086 69.2871 -28.8086 L 58.1055 -28.8086 C 58.0566 -28.125 58.0078 -27.4902 57.9102 -26.8066 C 57.4219 -24.1699 56.2012 -21.6797 54.4434 -20.1172 L 73.5352 -20.1172 C 75.8789 -20.1172 77.5391 -18.6035 77.5391 -16.3086 C 77.5391 -13.9648 75.8789 -12.4512 73.5352 -12.4512 L 44.6777 -12.4512 C 42.3828 -12.4512 40.7715 -13.8672 40.7715 -16.2598 Z"/>
  </g>
  <g id="Medium-M" transform="matrix(1 0 0 1 1687.3 1126)">
   <path d="M 59.2285 15.2344 C 86.9141 15.2344 109.766 -7.61719 109.766 -35.2539 C 109.766 -62.8906 86.8652 -85.7422 59.1797 -85.7422 C 31.543 -85.7422 8.74023 -62.8906 8.74023 -35.2539 C 8.74023 -7.61719 31.5918 15.2344 59.2285 15.2344 Z M 40.4785 -15.4785 C 40.4785 -17.334 41.4551 -18.5059 43.3594 -19.2871 C 46.4355 -20.2637 48.9746 -22.9004 49.4141 -26.8066 C 49.5117 -27.3438 49.5117 -27.8809 49.5117 -28.418 L 43.1152 -28.418 C 41.5527 -28.418 40.4297 -29.4434 40.4297 -30.957 C 40.4297 -32.5195 41.5527 -33.5449 43.1152 -33.5449 L 48.877 -33.5449 C 48.584 -34.9121 48.1445 -36.3281 47.8027 -37.7441 L 43.1152 -37.7441 C 41.5527 -37.7441 40.4297 -38.7695 40.4297 -40.2832 C 40.4297 -41.8457 41.5527 -42.8711 43.1152 -42.8711 L 46.9727 -42.8711 C 46.9238 -43.3594 46.875 -43.7988 46.875 -44.2871 C 46.875 -53.5156 53.2715 -59.4727 63.9648 -59.4727 C 67.5293 -59.4727 70.5078 -59.082 72.8516 -58.0566 C 74.5605 -57.2266 75.293 -56.1035 75.293 -54.6387 C 75.293 -52.7344 74.0723 -51.6113 72.0215 -51.6602 C 70.2148 -51.8066 68.3105 -52.6367 64.6973 -52.6367 C 58.3984 -52.6367 54.834 -49.2188 54.834 -44.2871 C 54.834 -43.7988 54.834 -43.2617 54.8828 -42.8711 L 68.7988 -42.8711 C 70.3125 -42.8711 71.4355 -41.8457 71.4355 -40.2832 C 71.4355 -38.7695 70.3125 -37.7441 68.7988 -37.7441 L 55.8105 -37.7441 C 56.1523 -36.377 56.4941 -35.0098 56.8359 -33.5449 L 68.7988 -33.5449 C 70.3125 -33.5449 71.4355 -32.5195 71.4355 -30.957 C 71.4355 -29.4434 70.3125 -28.418 68.7988 -28.418 L 57.2266 -28.418 C 57.2266 -27.6855 57.1777 -27.002 57.0801 -26.2695 C 56.5918 -23.3398 55.2734 -20.6055 53.2715 -18.9941 L 73.5352 -18.9941 C 75.6348 -18.9941 77.1484 -17.5781 77.1484 -15.5273 C 77.1484 -13.3789 75.6348 -12.0605 73.5352 -12.0605 L 43.9941 -12.0605 C 41.9434 -12.0605 40.4785 -13.3789 40.4785 -15.4785 Z"/>
  </g>
  <g id="Regular-M" transform="matrix(1 0 0 1 1391.3 1126)">
   <path d="M 58.5449 14.5508 C 85.791 14.5508 108.35 -8.05664 108.35 -35.2539 C 108.35 -62.5 85.7422 -85.0586 58.4961 -85.0586 C 31.2988 -85.0586 8.74023 -62.5 8.74023 -35.2539 C 8.74023 -8.05664 31.3477 14.5508 58.5449 14.5508 Z M 40.1367 -14.502 C 40.1367 -16.1621 40.918 -17.1875 42.7734 -17.7734 C 46.1914 -18.75 49.1211 -21.7285 49.6094 -26.1719 C 49.6582 -26.7578 49.707 -27.2949 49.6582 -27.832 L 43.0664 -27.832 C 41.4551 -27.832 40.2344 -28.9551 40.2344 -30.5664 C 40.2344 -32.1777 41.4551 -33.252 43.0664 -33.252 L 48.877 -33.252 C 48.5352 -34.7168 48.0469 -36.1328 47.7539 -37.5977 L 43.0664 -37.5977 C 41.4551 -37.5977 40.2344 -38.7207 40.2344 -40.332 C 40.2344 -41.9434 41.4551 -43.0176 43.0664 -43.0176 L 46.9238 -43.0176 C 46.875 -43.4082 46.8262 -43.7012 46.8262 -44.0918 C 46.8262 -53.6133 53.1738 -59.6191 63.5742 -59.6191 C 66.6504 -59.6191 69.5312 -59.2773 71.9238 -58.3008 C 73.6816 -57.6172 74.3164 -56.543 74.3164 -55.2246 C 74.3164 -53.5645 73.3398 -52.4902 71.4355 -52.5879 C 69.873 -52.7832 67.6758 -53.6621 63.9648 -53.6621 C 57.3242 -53.6621 53.418 -49.9512 53.418 -44.5312 C 53.418 -43.9941 53.4668 -43.5059 53.5156 -43.0176 L 68.1152 -43.0176 C 69.7754 -43.0176 70.9473 -41.9434 70.9473 -40.332 C 70.9473 -38.7207 69.7754 -37.5977 68.1152 -37.5977 L 54.4434 -37.5977 C 54.7852 -36.1816 55.1758 -34.7656 55.5664 -33.252 L 68.1152 -33.252 C 69.7754 -33.252 70.9473 -32.1777 70.9473 -30.5664 C 70.9473 -28.9551 69.7754 -27.832 68.1152 -27.832 L 56.1035 -27.832 C 56.1035 -27.0508 56.0547 -26.3184 55.957 -25.5859 C 55.4688 -22.2656 54.0039 -19.1895 51.8066 -17.4316 L 73.584 -17.4316 C 75.3906 -17.4316 76.6602 -16.2598 76.6602 -14.502 C 76.6602 -12.6953 75.3906 -11.5234 73.584 -11.5234 L 43.1152 -11.5234 C 41.3086 -11.5234 40.1367 -12.6953 40.1367 -14.502 Z"/>
  </g>
  <g id="Light-M" transform="matrix(1 0 0 1 1095.42 1126)">
   <path d="M 57.7148 13.7207 C 84.5215 13.7207 106.689 -8.44727 106.689 -35.2539 C 106.689 -62.1094 84.5215 -84.2285 57.666 -84.2285 C 30.8594 -84.2285 8.74023 -62.1094 8.74023 -35.2539 C 8.74023 -8.44727 30.9082 13.7207 57.7148 13.7207 Z M 40.2344 -15.0391 C 40.2344 -16.3574 40.8691 -17.1875 42.334 -17.5781 C 46.3379 -18.6035 49.2188 -22.0703 49.5605 -26.5137 C 49.5605 -27.1973 49.6094 -27.9297 49.5117 -28.6133 L 43.0176 -28.6133 C 41.6504 -28.6133 40.7227 -29.541 40.7227 -30.8105 C 40.7227 -32.1289 41.6504 -33.0078 43.0176 -33.0078 L 48.8281 -33.0078 C 48.4375 -34.5703 47.9492 -36.084 47.5586 -37.6953 L 43.0176 -37.6953 C 41.6504 -37.6953 40.7227 -38.623 40.7227 -39.8926 C 40.7227 -41.2109 41.6504 -42.0898 43.0176 -42.0898 L 46.8262 -42.0898 C 46.7285 -42.7734 46.6797 -43.3594 46.6797 -44.043 C 46.6797 -52.7832 52.2949 -58.4961 62.3047 -58.4961 C 65.6738 -58.4961 68.6035 -57.8613 70.6055 -57.0312 C 72.0215 -56.4453 72.4609 -55.6152 72.4609 -54.5898 C 72.4609 -53.2227 71.5332 -52.2949 69.9707 -52.5391 C 68.3105 -52.9297 66.0645 -53.7598 62.5488 -53.7598 C 55.5664 -53.7598 51.8555 -49.9023 51.8555 -44.3359 C 51.8555 -43.5547 51.9043 -42.8223 52.0508 -42.0898 L 66.8457 -42.0898 C 68.2129 -42.0898 69.1406 -41.2109 69.1406 -39.8926 C 69.1406 -38.623 68.2129 -37.6953 66.8457 -37.6953 L 52.8809 -37.6953 C 53.2715 -36.1816 53.7109 -34.668 54.1016 -33.0078 L 66.8457 -33.0078 C 68.2129 -33.0078 69.1406 -32.1289 69.1406 -30.8105 C 69.1406 -29.541 68.2129 -28.6133 66.8457 -28.6133 L 54.6387 -28.6133 C 54.6387 -27.7832 54.6387 -26.9531 54.5898 -26.123 C 54.248 -22.6562 52.5391 -19.2383 50.1953 -17.3828 L 72.2168 -17.3828 C 73.6328 -17.3828 74.6582 -16.4062 74.6582 -14.9902 C 74.6582 -13.5742 73.6328 -12.6465 72.2168 -12.6465 L 42.627 -12.6465 C 41.1621 -12.6465 40.2344 -13.5742 40.2344 -15.0391 Z"/>
  </g>
  <g id="Thin-M" transform="matrix(1 0 0 1 799.806 1126)">
   <path d="M 56.6406 12.5977 C 82.9102 12.5977 104.492 -8.98438 104.492 -35.2539 C 104.492 -61.5723 82.9102 -83.1543 56.5918 -83.1543 C 30.3223 -83.1543 8.74023 -61.5723 8.74023 -35.2539 C 8.74023 -8.98438 30.3223 12.5977 56.6406 12.5977 Z M 40.332 -15.7227 C 40.332 -16.5527 40.7715 -17.1875 41.748 -17.3828 C 46.5332 -18.4082 49.3652 -22.5098 49.4629 -26.9531 C 49.4629 -27.8809 49.4141 -28.7598 49.2676 -29.5898 L 42.9199 -29.5898 C 41.9434 -29.5898 41.3086 -30.2734 41.3086 -31.1523 C 41.3086 -32.0312 41.9434 -32.7148 42.9199 -32.7148 L 48.7305 -32.7148 C 48.291 -34.4238 47.7539 -36.084 47.3633 -37.793 L 42.9199 -37.793 C 41.9434 -37.793 41.3086 -38.4277 41.3086 -39.3066 C 41.3086 -40.2344 41.9434 -40.8691 42.9199 -40.8691 L 46.7285 -40.8691 C 46.5332 -41.8945 46.4355 -42.8711 46.4355 -43.9453 C 46.4355 -51.6602 51.1719 -57.0312 60.6445 -57.0312 C 64.4043 -57.0312 67.334 -56.0547 68.8965 -55.3223 C 69.7754 -54.8828 70.0195 -54.3457 70.0195 -53.7598 C 70.0195 -52.7344 69.1406 -52.0996 67.9688 -52.4414 C 66.2598 -53.125 63.916 -53.9062 60.7422 -53.9062 C 53.2715 -53.9062 49.7559 -49.7559 49.7559 -44.0918 C 49.7559 -43.0176 49.9023 -41.8945 50.0977 -40.8691 L 65.1367 -40.8691 C 66.1133 -40.8691 66.748 -40.2344 66.748 -39.3066 C 66.748 -38.4277 66.1133 -37.793 65.1367 -37.793 L 50.7812 -37.793 C 51.2207 -36.1328 51.709 -34.4727 52.1484 -32.7148 L 65.1367 -32.7148 C 66.1133 -32.7148 66.748 -32.0312 66.748 -31.1523 C 66.748 -30.2734 66.1133 -29.5898 65.1367 -29.5898 L 52.6367 -29.5898 C 52.7344 -28.7109 52.7832 -27.832 52.7832 -26.8555 C 52.6855 -23.1934 50.6348 -19.2871 47.998 -17.2852 L 70.3613 -17.2852 C 71.3867 -17.2852 72.0215 -16.6016 72.0215 -15.6738 C 72.0215 -14.7461 71.3867 -14.0625 70.3613 -14.0625 L 41.9922 -14.0625 C 40.9668 -14.0625 40.332 -14.7461 40.332 -15.7227 Z"/>
  </g>
  <g id="Ultralight-M" transform="matrix(1 0 0 1 503.656 1126)">
   <path d="M 56.0547 12.0605 C 82.0801 12.0605 103.369 -9.22852 103.369 -35.2539 C 103.369 -61.2793 82.0801 -82.5684 56.0547 -82.5684 C 30.0293 -82.5684 8.74023 -61.2793 8.74023 -35.2539 C 8.74023 -9.22852 30.0293 12.0605 56.0547 12.0605 Z M 40.3809 -16.1133 C 40.3809 -16.6992 40.7715 -17.1875 41.4062 -17.2852 C 46.6309 -18.3105 49.4141 -22.7539 49.4141 -27.1973 C 49.4141 -28.1738 49.3652 -29.1992 49.1699 -30.127 L 42.8711 -30.127 C 42.0898 -30.127 41.6016 -30.6641 41.6016 -31.3477 C 41.6016 -32.0312 42.0898 -32.5684 42.8711 -32.5684 L 48.6816 -32.5684 C 48.2422 -34.3262 47.6562 -36.084 47.2168 -37.8418 L 42.8711 -37.8418 C 42.0898 -37.8418 41.6016 -38.3789 41.6016 -39.0625 C 41.6016 -39.6973 42.0898 -40.2344 42.8711 -40.2344 L 46.6797 -40.2344 C 46.4355 -41.4551 46.2891 -42.6758 46.2891 -43.9453 C 46.2891 -51.123 50.5371 -56.25 59.8145 -56.25 C 63.7695 -56.25 66.6992 -55.127 67.9688 -54.4434 C 68.6523 -54.1016 68.75 -53.7109 68.75 -53.3691 C 68.75 -52.4902 67.8711 -51.9531 66.9922 -52.3926 C 65.2344 -53.2227 62.793 -53.9551 59.8145 -53.9551 C 52.0508 -53.9551 48.7305 -49.707 48.7305 -43.9941 C 48.7305 -42.7246 48.8281 -41.4551 49.0723 -40.2344 L 64.2578 -40.2344 C 65.0391 -40.2344 65.5273 -39.6973 65.5273 -39.0625 C 65.5273 -38.3789 65.0391 -37.8418 64.2578 -37.8418 L 49.707 -37.8418 C 50.1953 -36.1328 50.7324 -34.375 51.1719 -32.5684 L 64.2578 -32.5684 C 65.0391 -32.5684 65.5273 -32.0312 65.5273 -31.3477 C 65.5273 -30.6641 65.0391 -30.127 64.2578 -30.127 L 51.6602 -30.127 C 51.7578 -29.1992 51.8555 -28.2715 51.8555 -27.2461 C 51.8555 -23.4375 49.6582 -19.2871 46.9238 -17.2363 L 69.4336 -17.2363 C 70.2148 -17.2363 70.7031 -16.6992 70.7031 -16.0156 C 70.7031 -15.3809 70.2148 -14.7949 69.4336 -14.7949 L 41.6504 -14.7949 C 40.8691 -14.7949 40.3809 -15.3809 40.3809 -16.1133 Z"/>
  </g>
  <g id="Black-S" transform="matrix(1 0 0 1 2884.57 696)">
   <path d="M 48.8281 6.78711 C 71.9727 6.78711 90.8203 -12.0605 90.8203 -35.2051 C 90.8203 -58.3496 71.9727 -77.1973 48.8281 -77.1973 C 25.6836 -77.1973 6.83594 -58.3496 6.83594 -35.2051 C 6.83594 -12.0605 25.6836 6.78711 48.8281 6.78711 Z M 32.959 -23.1934 C 32.959 -25.293 34.4238 -26.6602 36.1328 -27.9785 C 37.3047 -28.8574 37.793 -29.7363 38.0859 -30.7617 C 38.1836 -31.2012 38.2324 -31.4453 38.2812 -31.7871 L 33.8379 -31.7871 C 33.0078 -31.7871 32.3242 -32.4219 32.3242 -33.3008 C 32.3242 -34.2285 32.959 -34.8633 33.8379 -34.8633 L 38.3301 -34.8633 C 38.2324 -35.7422 38.0371 -36.7188 37.793 -37.5977 L 33.8379 -37.5977 C 33.0078 -37.5977 32.3242 -38.2324 32.3242 -39.1113 C 32.3242 -40.0391 32.959 -40.6738 33.8379 -40.6738 L 37.0605 -40.6738 C 36.9629 -41.4551 36.8652 -42.2363 36.8652 -43.0176 C 36.8652 -49.2188 42.0898 -53.8574 51.4648 -53.8574 C 55.9082 -53.8574 58.6914 -53.2715 60.3516 -52.0996 C 61.6211 -51.2207 62.2559 -50.0488 62.2559 -48.4863 C 62.2559 -46.0938 60.5957 -44.9219 58.4473 -44.9219 C 56.3477 -44.9219 55.7617 -45.2637 53.3203 -45.2637 C 49.5117 -45.2637 47.7539 -43.7012 47.7539 -41.5039 C 47.7539 -41.1621 47.8027 -40.7715 47.8027 -40.6738 L 56.2012 -40.6738 C 57.0801 -40.6738 57.7148 -40.0391 57.7148 -39.1113 C 57.7148 -38.2324 57.0801 -37.5977 56.2012 -37.5977 L 48.4375 -37.5977 C 48.6816 -36.7676 48.8281 -35.8398 48.9746 -34.8633 L 56.2012 -34.8633 C 57.0801 -34.8633 57.7148 -34.2285 57.7148 -33.3008 C 57.7148 -32.4219 57.0801 -31.7871 56.2012 -31.7871 L 48.7793 -31.7871 C 48.7305 -31.3965 48.6328 -31.0547 48.5352 -30.6641 C 48.1934 -29.6387 47.7051 -28.6133 46.875 -27.7832 L 57.5195 -27.7832 C 60.2539 -27.7832 62.1582 -26.0742 62.1582 -23.3398 C 62.1582 -20.6055 60.2539 -18.8477 57.5195 -18.8477 L 37.5488 -18.8477 C 34.9121 -18.8477 32.959 -20.459 32.959 -23.1934 Z"/>
  </g>
  <g id="Heavy-S" transform="matrix(1 0 0 1 2588.47 696)">
   <path d="M 48.2422 6.15234 C 70.9961 6.15234 89.5996 -12.4512 89.5996 -35.2051 C 89.5996 -57.959 70.9961 -76.6113 48.1934 -76.6113 C 25.4395 -76.6113 6.83594 -57.959 6.83594 -35.2051 C 6.83594 -12.4512 25.4395 6.15234 48.2422 6.15234 Z M 32.6172 -22.1191 C 32.6172 -24.0723 33.8867 -25.3418 35.5469 -26.4648 C 37.0117 -27.3438 37.9395 -28.5156 38.2812 -30.127 C 38.3789 -30.5176 38.4277 -30.8105 38.4277 -31.1523 L 33.8379 -31.1523 C 32.8613 -31.1523 32.0801 -31.8359 32.0801 -32.8613 C 32.0801 -33.8867 32.8125 -34.6191 33.8379 -34.6191 L 38.3301 -34.6191 C 38.1836 -35.5469 37.9395 -36.5234 37.6953 -37.4512 L 33.8379 -37.4512 C 32.8613 -37.4512 32.0801 -38.1836 32.0801 -39.209 C 32.0801 -40.2344 32.8125 -40.918 33.8379 -40.918 L 37.0117 -40.918 C 36.9141 -41.5527 36.8652 -42.1875 36.8652 -42.8223 C 36.8652 -49.4141 42.0898 -54.1016 51.2207 -54.1016 C 55.127 -54.1016 57.8125 -53.6133 59.5703 -52.5391 C 60.8887 -51.709 61.5234 -50.5859 61.5234 -49.1211 C 61.5234 -46.9727 60.0586 -45.8496 58.0566 -45.8496 C 56.1523 -45.8496 55.3223 -46.2891 52.7344 -46.2891 C 48.6328 -46.2891 46.5332 -44.4336 46.5332 -41.748 C 46.5332 -41.4551 46.582 -41.0645 46.582 -40.918 L 55.6641 -40.918 C 56.6895 -40.918 57.4219 -40.2344 57.4219 -39.209 C 57.4219 -38.1836 56.6895 -37.4512 55.6641 -37.4512 L 47.2656 -37.4512 C 47.5098 -36.5723 47.6562 -35.6445 47.8516 -34.6191 L 55.6641 -34.6191 C 56.6895 -34.6191 57.4219 -33.8867 57.4219 -32.8613 C 57.4219 -31.8359 56.6895 -31.1523 55.6641 -31.1523 L 47.8027 -31.1523 C 47.7539 -30.7129 47.7051 -30.3223 47.6074 -29.8828 C 47.2168 -28.5156 46.582 -27.1973 45.6055 -26.2695 L 57.7148 -26.2695 C 60.1562 -26.2695 61.8652 -24.707 61.8652 -22.2656 C 61.8652 -19.7754 60.1562 -18.2129 57.7148 -18.2129 L 36.7188 -18.2129 C 34.3262 -18.2129 32.6172 -19.6777 32.6172 -22.1191 Z"/>
  </g>
  <g id="Bold-S" transform="matrix(1 0 0 1 2292.44 696)">
   <path d="M 47.5586 5.46875 C 69.873 5.46875 88.2324 -12.8906 88.2324 -35.2539 C 88.2324 -57.5684 69.873 -75.9277 47.5098 -75.9277 C 25.1953 -75.9277 6.83594 -57.5684 6.83594 -35.2539 C 6.83594 -12.8906 25.1953 5.46875 47.5586 5.46875 Z M 32.1777 -20.9473 C 32.1777 -22.7539 33.252 -23.877 34.9121 -24.8047 C 36.7188 -25.6348 38.1348 -27.0996 38.4766 -29.3945 C 38.5742 -29.7852 38.623 -30.0781 38.623 -30.4199 L 33.7891 -30.4199 C 32.666 -30.4199 31.8359 -31.2012 31.8359 -32.373 C 31.8359 -33.5449 32.666 -34.3262 33.7891 -34.3262 L 38.3301 -34.3262 C 38.1348 -35.3027 37.8906 -36.3281 37.6465 -37.3535 L 33.7891 -37.3535 C 32.666 -37.3535 31.8359 -38.1348 31.8359 -39.2578 C 31.8359 -40.4297 32.666 -41.2598 33.7891 -41.2598 L 36.9141 -41.2598 C 36.8652 -41.6992 36.8164 -42.1387 36.8164 -42.5781 C 36.8164 -49.6094 42.0898 -54.3457 50.9277 -54.3457 C 54.2969 -54.3457 56.8359 -54.0039 58.6426 -53.0273 C 60.0586 -52.2949 60.6934 -51.2207 60.6934 -49.8535 C 60.6934 -47.9004 59.4727 -46.875 57.5684 -46.875 C 55.9082 -46.9238 54.7852 -47.4609 52.0508 -47.4609 C 47.6562 -47.4609 45.2148 -45.2637 45.2148 -42.041 C 45.2148 -41.748 45.2148 -41.4062 45.2148 -41.2598 L 55.0781 -41.2598 C 56.25 -41.2598 57.0801 -40.4297 57.0801 -39.2578 C 57.0801 -38.1348 56.25 -37.3535 55.0781 -37.3535 L 45.9473 -37.3535 C 46.1914 -36.377 46.3867 -35.4004 46.6309 -34.3262 L 55.0781 -34.3262 C 56.25 -34.3262 57.0801 -33.5449 57.0801 -32.373 C 57.0801 -31.2012 56.25 -30.4199 55.0781 -30.4199 L 46.7285 -30.4199 C 46.6797 -29.9316 46.6309 -29.4922 46.5332 -29.0039 C 46.1426 -27.2461 45.3613 -25.6348 44.1406 -24.5605 L 57.9102 -24.5605 C 60.0586 -24.5605 61.5723 -23.1934 61.5723 -21.0449 C 61.5723 -18.8477 60.0586 -17.4805 57.9102 -17.4805 L 35.791 -17.4805 C 33.6914 -17.4805 32.1777 -18.7988 32.1777 -20.9473 Z"/>
  </g>
  <g id="Semibold-S" transform="matrix(1 0 0 1 1996.2 696)">
   <path d="M 47.0703 4.98047 C 69.0918 4.98047 87.3047 -13.1836 87.3047 -35.2539 C 87.3047 -57.2754 69.0918 -75.4883 47.0215 -75.4883 C 25 -75.4883 6.83594 -57.2754 6.83594 -35.2539 C 6.83594 -13.1836 25.0488 4.98047 47.0703 4.98047 Z M 31.8848 -20.166 C 31.8848 -21.8262 32.8125 -22.8516 34.4727 -23.6328 C 36.4746 -24.4629 38.2324 -26.123 38.623 -28.8574 C 38.7207 -29.248 38.7695 -29.5898 38.7695 -29.9316 L 33.7891 -29.9316 C 32.5684 -29.9316 31.6406 -30.7617 31.6406 -32.0312 C 31.6406 -33.3008 32.5684 -34.1309 33.7891 -34.1309 L 38.3301 -34.1309 C 38.1348 -35.1562 37.8418 -36.1816 37.5977 -37.2559 L 33.7891 -37.2559 C 32.5684 -37.2559 31.6406 -38.0859 31.6406 -39.3555 C 31.6406 -40.5762 32.5684 -41.4551 33.7891 -41.4551 L 36.8652 -41.4551 C 36.8652 -41.7969 36.8164 -42.0898 36.8164 -42.4316 C 36.8164 -49.7559 42.0898 -54.541 50.7324 -54.541 C 53.7109 -54.541 56.1035 -54.248 58.0566 -53.3691 C 59.5215 -52.6855 60.1074 -51.6602 60.1074 -50.3418 C 60.1074 -48.584 59.082 -47.6074 57.2754 -47.6074 C 55.7617 -47.6562 54.4434 -48.2422 51.5625 -48.2422 C 46.9727 -48.2422 44.2383 -45.8008 44.2383 -42.2363 C 44.2383 -41.9434 44.2871 -41.6504 44.2871 -41.4551 L 54.6875 -41.4551 C 55.957 -41.4551 56.8359 -40.5762 56.8359 -39.3555 C 56.8359 -38.0859 55.957 -37.2559 54.6875 -37.2559 L 45.0195 -37.2559 C 45.2637 -36.2305 45.5078 -35.2051 45.752 -34.1309 L 54.6875 -34.1309 C 55.957 -34.1309 56.8359 -33.3008 56.8359 -32.0312 C 56.8359 -30.7617 55.957 -29.9316 54.6875 -29.9316 L 45.9961 -29.9316 C 45.9473 -29.3945 45.8984 -28.9062 45.8008 -28.418 C 45.3613 -26.3672 44.4824 -24.5605 43.1152 -23.3887 L 58.0566 -23.3887 C 60.0098 -23.3887 61.377 -22.1191 61.377 -20.2148 C 61.377 -18.2129 60.0098 -16.9922 58.0566 -16.9922 L 35.1562 -16.9922 C 33.252 -16.9922 31.8848 -18.2129 31.8848 -20.166 Z"/>
  </g>
  <g id="Medium-S" transform="matrix(1 0 0 1 1699.83 696)">
   <path d="M 46.7285 4.63867 C 68.5547 4.63867 86.6211 -13.4277 86.6211 -35.2539 C 86.6211 -57.0801 68.5059 -75.1465 46.6797 -75.1465 C 24.8535 -75.1465 6.83594 -57.0801 6.83594 -35.2539 C 6.83594 -13.4277 24.9023 4.63867 46.7285 4.63867 Z M 31.6895 -19.5312 C 31.6895 -21.0938 32.5195 -22.1191 34.1309 -22.7539 C 36.3281 -23.5352 38.3301 -25.4395 38.7695 -28.4668 C 38.8184 -28.8574 38.8672 -29.1992 38.8672 -29.541 L 33.7891 -29.541 C 32.4707 -29.541 31.4941 -30.4688 31.4941 -31.7871 C 31.4941 -33.1055 32.4707 -33.9844 33.7891 -33.9844 L 38.3301 -33.9844 C 38.0859 -35.0586 37.793 -36.084 37.5488 -37.1582 L 33.7891 -37.1582 C 32.4707 -37.1582 31.4941 -38.0371 31.4941 -39.3555 C 31.4941 -40.7227 32.4707 -41.6016 33.7891 -41.6016 L 36.8652 -41.6016 C 36.8164 -41.8457 36.8164 -42.0898 36.8164 -42.334 C 36.8164 -49.8535 42.0898 -54.6875 50.5859 -54.6875 C 53.2715 -54.6875 55.6152 -54.4434 57.5684 -53.6133 C 59.082 -52.9297 59.7168 -51.9531 59.7168 -50.6836 C 59.7168 -49.0723 58.7402 -48.1445 57.0312 -48.1445 C 55.6152 -48.1934 54.1504 -48.8281 51.2207 -48.8281 C 46.4355 -48.8281 43.5547 -46.2402 43.5547 -42.3828 C 43.5547 -42.0898 43.5547 -41.7969 43.5547 -41.6016 L 54.3945 -41.6016 C 55.7129 -41.6016 56.6895 -40.7227 56.6895 -39.3555 C 56.6895 -38.0371 55.7129 -37.1582 54.3945 -37.1582 L 44.3359 -37.1582 C 44.5801 -36.1328 44.8242 -35.1074 45.1172 -33.9844 L 54.3945 -33.9844 C 55.7129 -33.9844 56.6895 -33.1055 56.6895 -31.7871 C 56.6895 -30.4688 55.7129 -29.541 54.3945 -29.541 L 45.4102 -29.541 C 45.3613 -29.0039 45.3125 -28.5156 45.2148 -27.9785 C 44.7754 -25.7324 43.8477 -23.7305 42.3828 -22.5098 L 58.2031 -22.5098 C 59.9609 -22.5098 61.2305 -21.3379 61.2305 -19.5801 C 61.2305 -17.7734 59.9609 -16.6016 58.2031 -16.6016 L 34.668 -16.6016 C 32.9102 -16.6016 31.6895 -17.7246 31.6895 -19.5312 Z"/>
  </g>
  <g id="Regular-S" transform="matrix(1 0 0 1 1403.58 696)">
   <path d="M 46.2402 4.15039 C 67.7734 4.15039 85.6934 -13.7207 85.6934 -35.2539 C 85.6934 -56.7871 67.7246 -74.6582 46.1914 -74.6582 C 24.707 -74.6582 6.83594 -56.7871 6.83594 -35.2539 C 6.83594 -13.7207 24.7559 4.15039 46.2402 4.15039 Z M 31.3965 -18.75 C 31.3965 -20.2148 32.0801 -21.0938 33.7402 -21.6309 C 36.084 -22.4121 38.4277 -24.4629 38.916 -27.9785 C 38.9648 -28.3691 39.0137 -28.7109 38.9648 -29.0527 L 33.7891 -29.0527 C 32.373 -29.0527 31.2988 -30.0293 31.2988 -31.4453 C 31.2988 -32.8613 32.373 -33.7891 33.7891 -33.7891 L 38.3301 -33.7891 C 38.0859 -34.9121 37.7441 -35.9375 37.4512 -37.0605 L 33.7891 -37.0605 C 32.373 -37.0605 31.2988 -38.0371 31.2988 -39.4531 C 31.2988 -40.8691 32.373 -41.7969 33.7891 -41.7969 L 36.8164 -41.7969 C 36.8164 -41.9434 36.7676 -42.041 36.7676 -42.1875 C 36.7676 -50 42.0898 -54.834 50.3906 -54.834 C 52.6855 -54.834 54.9316 -54.7363 56.9824 -53.9551 C 58.5449 -53.3203 59.1309 -52.3926 59.1309 -51.1719 C 59.1309 -49.7559 58.3496 -48.8281 56.6895 -48.877 C 55.4688 -48.877 53.8086 -49.6094 50.7812 -49.6094 C 45.752 -49.6094 42.627 -46.8262 42.627 -42.5781 C 42.627 -42.334 42.627 -42.041 42.627 -41.7969 L 54.0039 -41.7969 C 55.4199 -41.7969 56.4453 -40.8691 56.4453 -39.4531 C 56.4453 -38.0371 55.4199 -37.0605 54.0039 -37.0605 L 43.4082 -37.0605 C 43.6523 -35.9863 43.9453 -34.9609 44.2383 -33.7891 L 54.0039 -33.7891 C 55.4199 -33.7891 56.4453 -32.8613 56.4453 -31.4453 C 56.4453 -30.0293 55.4199 -29.0527 54.0039 -29.0527 L 44.6777 -29.0527 C 44.6289 -28.4668 44.6289 -27.9297 44.5312 -27.3926 C 44.043 -24.8535 42.9688 -22.6562 41.4062 -21.3379 L 58.3496 -21.3379 C 59.9121 -21.3379 61.0352 -20.2637 61.0352 -18.75 C 61.0352 -17.1387 59.9121 -16.1133 58.3496 -16.1133 L 33.9844 -16.1133 C 32.4707 -16.1133 31.3965 -17.1387 31.3965 -18.75 Z"/>
  </g>
  <g id="Light-S" transform="matrix(1 0 0 1 1107.6 696)">
   <path d="M 45.5078 3.41797 C 66.6992 3.41797 84.2285 -14.0625 84.2285 -35.2539 C 84.2285 -56.4453 66.6504 -73.9258 45.5078 -73.9258 C 24.3164 -73.9258 6.83594 -56.4453 6.83594 -35.2539 C 6.83594 -14.0625 24.3652 3.41797 45.5078 3.41797 Z M 31.4941 -19.1895 C 31.4941 -20.3613 32.0312 -21.0938 33.3008 -21.4844 C 36.2305 -22.2656 38.5254 -24.7559 38.8672 -28.2715 C 38.8672 -28.7598 38.916 -29.248 38.8184 -29.7363 L 33.7402 -29.7363 C 32.5684 -29.7363 31.7383 -30.5176 31.7383 -31.6895 C 31.7383 -32.8125 32.5684 -33.5938 33.7402 -33.5938 L 38.2812 -33.5938 C 37.9883 -34.7656 37.5977 -35.9375 37.3047 -37.1094 L 33.7402 -37.1094 C 32.5684 -37.1094 31.7383 -37.9395 31.7383 -39.0625 C 31.7383 -40.1855 32.5684 -40.9668 33.7402 -40.9668 L 36.7188 -40.9668 C 36.6699 -41.3574 36.6211 -41.748 36.6211 -42.1387 C 36.6211 -49.2676 41.3086 -53.8574 49.3164 -53.8574 C 51.8555 -53.8574 54.1016 -53.5156 55.8105 -52.7832 C 57.0312 -52.2949 57.4707 -51.5625 57.4707 -50.6348 C 57.4707 -49.4629 56.7383 -48.6816 55.3711 -48.8281 C 54.1016 -49.0234 52.3438 -49.707 49.5605 -49.707 C 44.2383 -49.707 41.2109 -46.7285 41.2109 -42.4316 C 41.2109 -41.9434 41.2598 -41.4551 41.3574 -40.9668 L 52.832 -40.9668 C 54.0039 -40.9668 54.8828 -40.1855 54.8828 -39.0625 C 54.8828 -37.9395 54.0039 -37.1094 52.832 -37.1094 L 41.9922 -37.1094 C 42.334 -35.9863 42.627 -34.8145 42.9688 -33.5938 L 52.832 -33.5938 C 54.0039 -33.5938 54.8828 -32.8125 54.8828 -31.6895 C 54.8828 -30.5176 54.0039 -29.7363 52.832 -29.7363 L 43.3594 -29.7363 C 43.3594 -29.1016 43.3594 -28.5156 43.3105 -27.8809 C 42.9688 -25.1953 41.6992 -22.7051 39.9414 -21.2891 L 57.0801 -21.2891 C 58.3496 -21.2891 59.2773 -20.4102 59.2773 -19.1895 C 59.2773 -17.9199 58.3496 -17.0898 57.0801 -17.0898 L 33.5938 -17.0898 C 32.3242 -17.0898 31.4941 -17.9199 31.4941 -19.1895 Z"/>
  </g>
  <g id="Thin-S" transform="matrix(1 0 0 1 811.867 696)">
   <path d="M 44.5801 2.49023 C 65.2832 2.49023 82.2754 -14.5508 82.2754 -35.2539 C 82.2754 -55.957 65.2344 -72.998 44.5312 -72.998 C 23.8281 -72.998 6.83594 -55.957 6.83594 -35.2539 C 6.83594 -14.5508 23.877 2.49023 44.5801 2.49023 Z M 31.5918 -19.8242 C 31.5918 -20.5566 31.9824 -21.0938 32.8125 -21.2891 C 36.4258 -22.0703 38.623 -25.1953 38.7695 -28.6621 C 38.7695 -29.3457 38.7695 -29.9805 38.6719 -30.6152 L 33.6426 -30.6152 C 32.8125 -30.6152 32.2266 -31.2012 32.2266 -31.9824 C 32.2266 -32.7637 32.8125 -33.3496 33.6426 -33.3496 L 38.1836 -33.3496 C 37.8906 -34.6191 37.4512 -35.8887 37.1582 -37.207 L 33.6426 -37.207 C 32.8125 -37.207 32.2266 -37.793 32.2266 -38.5742 C 32.2266 -39.3066 32.8125 -39.8926 33.6426 -39.8926 L 36.6211 -39.8926 C 36.4746 -40.625 36.4258 -41.3086 36.4258 -42.0898 C 36.4258 -48.3398 40.2832 -52.5879 47.8516 -52.5879 C 50.7324 -52.5879 52.9785 -51.9043 54.2969 -51.3184 C 55.0781 -50.9277 55.3223 -50.4395 55.3223 -49.9023 C 55.3223 -49.0234 54.6387 -48.4863 53.6621 -48.7305 C 52.2949 -49.2188 50.4883 -49.8047 47.9492 -49.8047 C 42.1875 -49.8047 39.4043 -46.6309 39.4043 -42.2363 C 39.4043 -41.4551 39.4531 -40.625 39.5996 -39.8926 L 51.3672 -39.8926 C 52.1973 -39.8926 52.7344 -39.3066 52.7344 -38.5742 C 52.7344 -37.793 52.1973 -37.207 51.3672 -37.207 L 40.1855 -37.207 C 40.5273 -35.9375 40.918 -34.668 41.2109 -33.3496 L 51.3672 -33.3496 C 52.1973 -33.3496 52.7344 -32.7637 52.7344 -31.9824 C 52.7344 -31.2012 52.1973 -30.6152 51.3672 -30.6152 L 41.6504 -30.6152 C 41.6992 -29.9316 41.6992 -29.248 41.6992 -28.5156 C 41.5527 -25.6836 40.0391 -22.7051 38.0371 -21.1914 L 55.4688 -21.1914 C 56.3477 -21.1914 56.9336 -20.6055 56.9336 -19.7754 C 56.9336 -18.9453 56.3477 -18.3594 55.4688 -18.3594 L 33.0078 -18.3594 C 32.1289 -18.3594 31.5918 -18.9453 31.5918 -19.8242 Z"/>
  </g>
  <g id="Ultralight-S" transform="matrix(1 0 0 1 515.644 696)">
   <path d="M 44.043 1.95312 C 64.502 1.95312 81.2988 -14.7949 81.2988 -35.2539 C 81.2988 -55.7129 64.502 -72.4609 44.043 -72.4609 C 23.584 -72.4609 6.83594 -55.7129 6.83594 -35.2539 C 6.83594 -14.7949 23.584 1.95312 44.043 1.95312 Z M 31.6406 -20.166 C 31.6406 -20.6543 31.9336 -21.0938 32.5195 -21.1914 C 36.5234 -21.9727 38.7207 -25.3906 38.7207 -28.8574 C 38.7207 -29.6387 38.6719 -30.3711 38.5254 -31.1035 L 33.5938 -31.1035 C 32.9102 -31.1035 32.5195 -31.543 32.5195 -32.1289 C 32.5195 -32.7148 32.9102 -33.2031 33.5938 -33.2031 L 38.1348 -33.2031 C 37.793 -34.5215 37.3535 -35.8887 37.0117 -37.2559 L 33.5938 -37.2559 C 32.9102 -37.2559 32.5195 -37.6953 32.5195 -38.2812 C 32.5195 -38.8672 32.9102 -39.3555 33.5938 -39.3555 L 36.5723 -39.3555 C 36.377 -40.2344 36.3281 -41.1133 36.3281 -42.041 C 36.3281 -47.8027 39.7461 -51.9043 47.1191 -51.9043 C 50.1465 -51.9043 52.4414 -51.0742 53.5156 -50.5371 C 54.1016 -50.1953 54.1992 -49.9023 54.1992 -49.5605 C 54.1992 -48.8281 53.5156 -48.3887 52.7344 -48.6816 C 51.3672 -49.3164 49.5117 -49.9023 47.1191 -49.9023 C 41.1133 -49.9023 38.4277 -46.582 38.4277 -42.1387 C 38.4277 -41.1621 38.5254 -40.2344 38.7207 -39.3555 L 50.5859 -39.3555 C 51.2207 -39.3555 51.6602 -38.8672 51.6602 -38.2812 C 51.6602 -37.6953 51.2207 -37.2559 50.5859 -37.2559 L 39.209 -37.2559 C 39.5996 -35.9375 39.9902 -34.5703 40.332 -33.2031 L 50.5859 -33.2031 C 51.2207 -33.2031 51.6602 -32.7148 51.6602 -32.1289 C 51.6602 -31.543 51.2207 -31.1035 50.5859 -31.1035 L 40.7227 -31.1035 C 40.8203 -30.3711 40.8691 -29.6387 40.8691 -28.8574 C 40.8203 -25.9277 39.1602 -22.7539 37.0605 -21.1426 L 54.6387 -21.1426 C 55.3223 -21.1426 55.7617 -20.7031 55.7617 -20.1172 C 55.7617 -19.4824 55.3223 -19.043 54.6387 -19.043 L 32.7148 -19.043 C 32.0312 -19.043 31.6406 -19.4824 31.6406 -20.166 Z"/>
  </g>
 </g>
</svg>
