<?xml version="1.0" encoding="UTF-8"?>
<!--Generator: Apple Native CoreSVG 148-->
<!DOCTYPE svg
PUBLIC "-//W3C//DTD SVG 1.1//EN"
       "http://www.w3.org/Graphics/SVG/1.1/DTD/svg11.dtd">
<svg version="1.1" xmlns="http://www.w3.org/2000/svg" xmlns:xlink="http://www.w3.org/1999/xlink" width="3300" height="2200">
 <!--glyph: "uni1002D4.medium", point size: 100.000000, font version: "Version 16.0d11e1", template writer version: "8"-->
 <g id="Notes">
  <rect height="2200" id="artboard" style="fill:white;opacity:1" width="3300" x="0" y="0"/>
  <line id="" style="fill:none;stroke:black;opacity:1;stroke-width:0.5;" x1="263" x2="3036" y1="292" y2="292"/>
  <text style="stroke:none;fill:black;font-family:-apple-system,&quot;SF Pro Display&quot;,&quot;SF Pro Text&quot;,Helvetica,sans-serif;font-weight:bold;" transform="matrix(1 0 0 1 263 322)">Weight/Scale Variations</text>
  <text style="stroke:none;fill:black;font-family:-apple-system,&quot;SF Pro Display&quot;,&quot;SF Pro Text&quot;,Helvetica,sans-serif;text-anchor:middle;" transform="matrix(1 0 0 1 559.711 322)">Ultralight</text>
  <text style="stroke:none;fill:black;font-family:-apple-system,&quot;SF Pro Display&quot;,&quot;SF Pro Text&quot;,Helvetica,sans-serif;text-anchor:middle;" transform="matrix(1 0 0 1 856.422 322)">Thin</text>
  <text style="stroke:none;fill:black;font-family:-apple-system,&quot;SF Pro Display&quot;,&quot;SF Pro Text&quot;,Helvetica,sans-serif;text-anchor:middle;" transform="matrix(1 0 0 1 1153.13 322)">Light</text>
  <text style="stroke:none;fill:black;font-family:-apple-system,&quot;SF Pro Display&quot;,&quot;SF Pro Text&quot;,Helvetica,sans-serif;text-anchor:middle;" transform="matrix(1 0 0 1 1449.84 322)">Regular</text>
  <text style="stroke:none;fill:black;font-family:-apple-system,&quot;SF Pro Display&quot;,&quot;SF Pro Text&quot;,Helvetica,sans-serif;text-anchor:middle;" transform="matrix(1 0 0 1 1746.56 322)">Medium</text>
  <text style="stroke:none;fill:black;font-family:-apple-system,&quot;SF Pro Display&quot;,&quot;SF Pro Text&quot;,Helvetica,sans-serif;text-anchor:middle;" transform="matrix(1 0 0 1 2043.27 322)">Semibold</text>
  <text style="stroke:none;fill:black;font-family:-apple-system,&quot;SF Pro Display&quot;,&quot;SF Pro Text&quot;,Helvetica,sans-serif;text-anchor:middle;" transform="matrix(1 0 0 1 2339.98 322)">Bold</text>
  <text style="stroke:none;fill:black;font-family:-apple-system,&quot;SF Pro Display&quot;,&quot;SF Pro Text&quot;,Helvetica,sans-serif;text-anchor:middle;" transform="matrix(1 0 0 1 2636.69 322)">Heavy</text>
  <text style="stroke:none;fill:black;font-family:-apple-system,&quot;SF Pro Display&quot;,&quot;SF Pro Text&quot;,Helvetica,sans-serif;text-anchor:middle;" transform="matrix(1 0 0 1 2933.4 322)">Black</text>
  <line id="" style="fill:none;stroke:black;opacity:1;stroke-width:0.5;" x1="263" x2="3036" y1="1903" y2="1903"/>
  <g id="" transform="matrix(1 0 0 1 263 1933)">
   <path d="M 9.24805 0.830078 C 13.5547 0.830078 17.1387 -2.74414 17.1387 -7.05078 C 17.1387 -11.3574 13.5449 -14.9316 9.23828 -14.9316 C 4.94141 -14.9316 1.36719 -11.3574 1.36719 -7.05078 C 1.36719 -2.74414 4.95117 0.830078 9.24805 0.830078 Z M 9.24805 -0.654297 C 5.70312 -0.654297 2.87109 -3.49609 2.87109 -7.05078 C 2.87109 -10.6055 5.69336 -13.4473 9.23828 -13.4473 C 12.793 -13.4473 15.6348 -10.6055 15.6445 -7.05078 C 15.6543 -3.49609 12.8027 -0.654297 9.24805 -0.654297 Z M 9.22852 -3.62305 C 9.69727 -3.62305 9.9707 -3.93555 9.9707 -4.45312 L 9.9707 -6.31836 L 12.002 -6.31836 C 12.5 -6.31836 12.832 -6.57227 12.832 -7.04102 C 12.832 -7.51953 12.5195 -7.7832 12.002 -7.7832 L 9.9707 -7.7832 L 9.9707 -9.81445 C 9.9707 -10.332 9.69727 -10.6543 9.22852 -10.6543 C 8.75977 -10.6543 8.50586 -10.3125 8.50586 -9.81445 L 8.50586 -7.7832 L 6.49414 -7.7832 C 5.97656 -7.7832 5.64453 -7.51953 5.64453 -7.04102 C 5.64453 -6.57227 5.99609 -6.31836 6.49414 -6.31836 L 8.50586 -6.31836 L 8.50586 -4.45312 C 8.50586 -3.95508 8.75977 -3.62305 9.22852 -3.62305 Z"/>
  </g>
  <g id="" transform="matrix(1 0 0 1 281.506 1933)">
   <path d="M 11.709 2.91016 C 17.1582 2.91016 21.6699 -1.61133 21.6699 -7.05078 C 21.6699 -12.5 17.1484 -17.0117 11.6992 -17.0117 C 6.25977 -17.0117 1.74805 -12.5 1.74805 -7.05078 C 1.74805 -1.61133 6.26953 2.91016 11.709 2.91016 Z M 11.709 1.25 C 7.09961 1.25 3.41797 -2.44141 3.41797 -7.05078 C 3.41797 -11.6602 7.08984 -15.3516 11.6992 -15.3516 C 16.3086 -15.3516 20 -11.6602 20.0098 -7.05078 C 20.0195 -2.44141 16.3184 1.25 11.709 1.25 Z M 11.6797 -2.66602 C 12.207 -2.66602 12.5098 -3.01758 12.5098 -3.59375 L 12.5098 -6.23047 L 15.3223 -6.23047 C 15.8691 -6.23047 16.25 -6.51367 16.25 -7.03125 C 16.25 -7.55859 15.8887 -7.86133 15.3223 -7.86133 L 12.5098 -7.86133 L 12.5098 -10.6836 C 12.5098 -11.25 12.207 -11.6113 11.6797 -11.6113 C 11.1621 -11.6113 10.8789 -11.2305 10.8789 -10.6836 L 10.8789 -7.86133 L 8.07617 -7.86133 C 7.50977 -7.86133 7.13867 -7.55859 7.13867 -7.03125 C 7.13867 -6.51367 7.5293 -6.23047 8.07617 -6.23047 L 10.8789 -6.23047 L 10.8789 -3.59375 C 10.8789 -3.03711 11.1621 -2.66602 11.6797 -2.66602 Z"/>
  </g>
  <g id="" transform="matrix(1 0 0 1 304.924 1933)">
   <path d="M 14.9707 5.66406 C 21.9336 5.66406 27.6953 -0.0976562 27.6953 -7.05078 C 27.6953 -14.0137 21.9238 -19.7754 14.9609 -19.7754 C 8.00781 -19.7754 2.25586 -14.0137 2.25586 -7.05078 C 2.25586 -0.0976562 8.01758 5.66406 14.9707 5.66406 Z M 14.9707 3.84766 C 8.93555 3.84766 4.08203 -1.01562 4.08203 -7.05078 C 4.08203 -13.0957 8.92578 -17.9492 14.9609 -17.9492 C 21.0059 -17.9492 25.8594 -13.0957 25.8691 -7.05078 C 25.8789 -1.01562 21.0156 3.84766 14.9707 3.84766 Z M 14.9414 -1.38672 C 15.5176 -1.38672 15.8594 -1.77734 15.8594 -2.38281 L 15.8594 -6.13281 L 19.7754 -6.13281 C 20.3711 -6.13281 20.7812 -6.46484 20.7812 -7.02148 C 20.7812 -7.59766 20.3906 -7.93945 19.7754 -7.93945 L 15.8594 -7.93945 L 15.8594 -11.8652 C 15.8594 -12.4805 15.5176 -12.8711 14.9414 -12.8711 C 14.375 -12.8711 14.0527 -12.4609 14.0527 -11.8652 L 14.0527 -7.93945 L 10.1465 -7.93945 C 9.53125 -7.93945 9.13086 -7.59766 9.13086 -7.02148 C 9.13086 -6.46484 9.55078 -6.13281 10.1465 -6.13281 L 14.0527 -6.13281 L 14.0527 -2.38281 C 14.0527 -1.79688 14.375 -1.38672 14.9414 -1.38672 Z"/>
  </g>
  <text style="stroke:none;fill:black;font-family:-apple-system,&quot;SF Pro Display&quot;,&quot;SF Pro Text&quot;,Helvetica,sans-serif;font-weight:bold;" transform="matrix(1 0 0 1 263 1953)">Design Variations</text>
  <text style="stroke:none;fill:black;font-family:-apple-system,&quot;SF Pro Display&quot;,&quot;SF Pro Text&quot;,Helvetica,sans-serif;" transform="matrix(1 0 0 1 263 1971)">Symbols are supported in up to nine weights and three scales.</text>
  <text style="stroke:none;fill:black;font-family:-apple-system,&quot;SF Pro Display&quot;,&quot;SF Pro Text&quot;,Helvetica,sans-serif;" transform="matrix(1 0 0 1 263 1989)">For optimal layout with text and other symbols, vertically align</text>
  <text style="stroke:none;fill:black;font-family:-apple-system,&quot;SF Pro Display&quot;,&quot;SF Pro Text&quot;,Helvetica,sans-serif;" transform="matrix(1 0 0 1 263 2007)">symbols with the adjacent text.</text>
  <line id="" style="fill:none;stroke:#00AEEF;stroke-width:0.5;opacity:1.0;" x1="776" x2="776" y1="1919" y2="1933"/>
  <g id="" transform="matrix(1 0 0 1 776 1933)">
   <path d="M 3.31055 0.126953 C 3.82812 0.126953 4.08203 -0.0683594 4.26758 -0.605469 L 5.52734 -4.0625 L 11.2891 -4.0625 L 12.5488 -0.605469 C 12.7344 -0.0683594 12.9883 0.126953 13.4961 0.126953 C 14.0137 0.126953 14.3457 -0.185547 14.3457 -0.673828 C 14.3457 -0.839844 14.3164 -0.986328 14.2383 -1.20117 L 9.6582 -13.3887 C 9.43359 -13.9941 9.0332 -14.2871 8.4082 -14.2871 C 7.80273 -14.2871 7.39258 -13.9941 7.17773 -13.3984 L 2.59766 -1.19141 C 2.51953 -0.976562 2.49023 -0.830078 2.49023 -0.664062 C 2.49023 -0.175781 2.80273 0.126953 3.31055 0.126953 Z M 6.00586 -5.53711 L 8.37891 -12.1094 L 8.42773 -12.1094 L 10.8008 -5.53711 Z"/>
  </g>
  <line id="" style="fill:none;stroke:#00AEEF;stroke-width:0.5;opacity:1.0;" x1="792.836" x2="792.836" y1="1919" y2="1933"/>
  <text style="stroke:none;fill:black;font-family:-apple-system,&quot;SF Pro Display&quot;,&quot;SF Pro Text&quot;,Helvetica,sans-serif;font-weight:bold;" transform="matrix(1 0 0 1 776 1953)">Margins</text>
  <text style="stroke:none;fill:black;font-family:-apple-system,&quot;SF Pro Display&quot;,&quot;SF Pro Text&quot;,Helvetica,sans-serif;" transform="matrix(1 0 0 1 776 1971)">Leading and trailing margins on the left and right side of each symbol</text>
  <text style="stroke:none;fill:black;font-family:-apple-system,&quot;SF Pro Display&quot;,&quot;SF Pro Text&quot;,Helvetica,sans-serif;" transform="matrix(1 0 0 1 776 1989)">can be adjusted by modifying the x-location of the margin guidelines.</text>
  <text style="stroke:none;fill:black;font-family:-apple-system,&quot;SF Pro Display&quot;,&quot;SF Pro Text&quot;,Helvetica,sans-serif;" transform="matrix(1 0 0 1 776 2007)">Modifications are automatically applied proportionally to all</text>
  <text style="stroke:none;fill:black;font-family:-apple-system,&quot;SF Pro Display&quot;,&quot;SF Pro Text&quot;,Helvetica,sans-serif;" transform="matrix(1 0 0 1 776 2025)">scales and weights.</text>
  <g id="" transform="matrix(1 0 0 1 1289 1933)">
   <path d="M 2.8418 1.86523 L 4.54102 3.57422 C 5.40039 4.44336 6.38672 4.38477 7.31445 3.35938 L 17.4902 -7.85156 C 17.7539 -7.76367 18.0273 -7.7832 18.3398 -7.8418 L 19.4043 -8.03711 L 20.0684 -7.36328 L 20.0293 -6.80664 C 19.9902 -6.30859 20.1172 -5.92773 20.6055 -5.44922 L 21.3672 -4.70703 C 21.8457 -4.22852 22.4609 -4.19922 22.9297 -4.66797 L 25.8398 -7.58789 C 26.3086 -8.05664 26.2891 -8.65234 25.8105 -9.13086 L 25.0391 -9.89258 C 24.5605 -10.3711 24.1895 -10.5273 23.7109 -10.4883 L 23.1348 -10.4395 L 22.4902 -11.0742 L 22.7344 -12.1973 C 22.8613 -12.7637 22.7051 -13.2031 22.1191 -13.7891 L 19.9219 -15.9766 C 16.582 -19.2969 12.1484 -19.2188 9.25781 -16.3281 C 8.83789 -15.918 8.80859 -15.3418 9.04297 -14.9512 C 9.27734 -14.5898 9.73633 -14.3555 10.3809 -14.5215 C 11.8457 -14.8633 13.3691 -14.9219 14.7949 -13.9844 L 14.209 -12.5293 C 14.0137 -12.0508 13.9844 -11.6504 14.1113 -11.2891 L 3.04688 -0.898438 C 2.06055 0.0195312 1.98242 0.996094 2.8418 1.86523 Z M 10.752 -15.957 C 13.1836 -17.7344 16.4746 -17.4316 18.7012 -15.2051 L 21.1328 -12.793 C 21.3672 -12.5586 21.4062 -12.373 21.3379 -12.0312 L 21.0156 -10.5469 L 22.5195 -9.0625 L 23.5059 -9.12109 C 23.7598 -9.13086 23.8379 -9.11133 24.0332 -8.91602 L 24.6094 -8.33984 L 22.168 -5.89844 L 21.5918 -6.47461 C 21.3965 -6.66992 21.3672 -6.74805 21.377 -7.01172 L 21.4453 -7.98828 L 19.9512 -9.47266 L 18.4277 -9.21875 C 18.1055 -9.15039 17.959 -9.17969 17.7148 -9.41406 L 15.7129 -11.416 C 15.459 -11.6504 15.4297 -11.8164 15.5859 -12.1875 L 16.4648 -14.2773 C 14.9023 -15.7324 12.8711 -16.3574 10.8398 -15.7617 C 10.6836 -15.7227 10.625 -15.8496 10.752 -15.957 Z M 5.27344 2.30469 L 4.10156 1.14258 C 3.63281 0.683594 3.74023 0.341797 4.14062 -0.0195312 L 14.9512 -10.1953 L 16.416 -8.71094 L 6.42578 2.27539 C 6.07422 2.67578 5.74219 2.77344 5.27344 2.30469 Z"/>
  </g>
  <text style="stroke:none;fill:black;font-family:-apple-system,&quot;SF Pro Display&quot;,&quot;SF Pro Text&quot;,Helvetica,sans-serif;font-weight:bold;" transform="matrix(1 0 0 1 1289 1953)">Exporting</text>
  <text style="stroke:none;fill:black;font-family:-apple-system,&quot;SF Pro Display&quot;,&quot;SF Pro Text&quot;,Helvetica,sans-serif;" transform="matrix(1 0 0 1 1289 1971)">Symbols should be outlined when exporting to ensure the</text>
  <text style="stroke:none;fill:black;font-family:-apple-system,&quot;SF Pro Display&quot;,&quot;SF Pro Text&quot;,Helvetica,sans-serif;" transform="matrix(1 0 0 1 1289 1989)">design is preserved when submitting to Xcode.</text>
  <text id="template-version" style="stroke:none;fill:black;font-family:-apple-system,&quot;SF Pro Display&quot;,&quot;SF Pro Text&quot;,Helvetica,sans-serif;text-anchor:end;" transform="matrix(1 0 0 1 3036 1933)">Template v.2.0</text>
  <text style="stroke:none;fill:black;font-family:-apple-system,&quot;SF Pro Display&quot;,&quot;SF Pro Text&quot;,Helvetica,sans-serif;text-anchor:end;" transform="matrix(1 0 0 1 3036 1951)">Requires Xcode 12 or greater</text>
  <text style="stroke:none;fill:black;font-family:-apple-system,&quot;SF Pro Display&quot;,&quot;SF Pro Text&quot;,Helvetica,sans-serif;text-anchor:end;" transform="matrix(1 0 0 1 3036 1969)">Generated from location.north.fill</text>
  <text style="stroke:none;fill:black;font-family:-apple-system,&quot;SF Pro Display&quot;,&quot;SF Pro Text&quot;,Helvetica,sans-serif;text-anchor:end;" transform="matrix(1 0 0 1 3036 1987)">Typeset at 100 points</text>
  <text style="stroke:none;fill:black;font-family:-apple-system,&quot;SF Pro Display&quot;,&quot;SF Pro Text&quot;,Helvetica,sans-serif;" transform="matrix(1 0 0 1 263 726)">Small</text>
  <text style="stroke:none;fill:black;font-family:-apple-system,&quot;SF Pro Display&quot;,&quot;SF Pro Text&quot;,Helvetica,sans-serif;" transform="matrix(1 0 0 1 263 1156)">Medium</text>
  <text style="stroke:none;fill:black;font-family:-apple-system,&quot;SF Pro Display&quot;,&quot;SF Pro Text&quot;,Helvetica,sans-serif;" transform="matrix(1 0 0 1 263 1586)">Large</text>
 </g>
 <g id="Guides">
  <g id="H-reference" style="fill:#27AAE1;stroke:none;" transform="matrix(1 0 0 1 339 696)">
   <path d="M 0.976562 0 L 3.66211 0 L 12.9883 -24.4629 L 45.7031 -24.4629 L 55.0781 0 L 57.7148 0 L 30.6152 -70.459 L 28.125 -70.459 Z M 29.2969 -67.1387 L 29.3945 -67.1387 L 44.873 -26.709 L 13.8672 -26.709 Z"/>
  </g>
  <line id="Baseline-S" style="fill:none;stroke:#27AAE1;opacity:1;stroke-width:0.5;" x1="263" x2="3036" y1="696" y2="696"/>
  <line id="Capline-S" style="fill:none;stroke:#27AAE1;opacity:1;stroke-width:0.5;" x1="263" x2="3036" y1="625.541" y2="625.541"/>
  <g id="H-reference" style="fill:#27AAE1;stroke:none;" transform="matrix(1 0 0 1 339 1126)">
   <path d="M 0.976562 0 L 3.66211 0 L 12.9883 -24.4629 L 45.7031 -24.4629 L 55.0781 0 L 57.7148 0 L 30.6152 -70.459 L 28.125 -70.459 Z M 29.2969 -67.1387 L 29.3945 -67.1387 L 44.873 -26.709 L 13.8672 -26.709 Z"/>
  </g>
  <line id="Baseline-M" style="fill:none;stroke:#27AAE1;opacity:1;stroke-width:0.5;" x1="263" x2="3036" y1="1126" y2="1126"/>
  <line id="Capline-M" style="fill:none;stroke:#27AAE1;opacity:1;stroke-width:0.5;" x1="263" x2="3036" y1="1055.54" y2="1055.54"/>
  <g id="H-reference" style="fill:#27AAE1;stroke:none;" transform="matrix(1 0 0 1 339 1556)">
   <path d="M 0.976562 0 L 3.66211 0 L 12.9883 -24.4629 L 45.7031 -24.4629 L 55.0781 0 L 57.7148 0 L 30.6152 -70.459 L 28.125 -70.459 Z M 29.2969 -67.1387 L 29.3945 -67.1387 L 44.873 -26.709 L 13.8672 -26.709 Z"/>
  </g>
  <line id="Baseline-L" style="fill:none;stroke:#27AAE1;opacity:1;stroke-width:0.5;" x1="263" x2="3036" y1="1556" y2="1556"/>
  <line id="Capline-L" style="fill:none;stroke:#27AAE1;opacity:1;stroke-width:0.5;" x1="263" x2="3036" y1="1485.54" y2="1485.54"/>
  <line id="left-margin" style="fill:none;stroke:#00AEEF;stroke-width:0.5;opacity:1.0;" x1="1401.24" x2="1401.24" y1="1030.79" y2="1150.12"/>
  <line id="right-margin" style="fill:none;stroke:#00AEEF;stroke-width:0.5;opacity:1.0;" x1="1498.45" x2="1498.45" y1="1030.79" y2="1150.12"/>
 </g>
 <g id="Symbols">
  <g id="Black-L" transform="matrix(1 0 0 1 2864.31 1556)">
   <path d="M 24.6094 34.668 C 29.6875 34.668 33.7891 31.5918 39.9414 25.4395 L 68.0176 -2.53906 C 68.3594 -2.92969 68.7012 -3.17383 69.0918 -3.17383 C 69.4824 -3.17383 69.7754 -2.92969 70.166 -2.53906 L 98.2422 25.4395 C 104.395 31.5918 108.496 34.668 113.574 34.668 C 120.068 34.668 125.293 29.7363 125.293 22.2168 C 125.293 18.457 124.121 14.3066 122.314 9.375 L 83.3008 -94.6777 C 80.2734 -102.93 75.9766 -108.154 69.0918 -108.154 C 62.1582 -108.154 57.9102 -102.979 54.8828 -94.6777 L 15.8691 9.375 C 14.0625 14.3066 12.8906 18.457 12.8906 22.2168 C 12.8906 29.7363 18.0664 34.668 24.6094 34.668 Z"/>
  </g>
  <g id="Heavy-L" transform="matrix(1 0 0 1 2569.33 1556)">
   <path d="M 23.2422 33.0078 C 27.7832 33.0078 31.2988 30.4199 36.6699 25.1465 L 66.3086 -4.44336 C 66.6992 -4.78516 66.9922 -5.0293 67.334 -5.0293 C 67.6758 -5.0293 68.0176 -4.78516 68.3594 -4.44336 L 98.0469 25.1465 C 103.369 30.4199 106.934 33.0078 111.426 33.0078 C 117.285 33.0078 121.826 28.5645 121.826 21.9727 C 121.826 18.6035 120.752 14.8926 119.141 10.5957 L 79.9805 -94.6289 C 77.2461 -102.051 73.3887 -106.592 67.334 -106.592 C 61.3281 -106.592 57.4219 -102.1 54.6875 -94.6289 L 15.5273 10.5957 C 13.9648 14.8926 12.8906 18.6035 12.8906 21.9727 C 12.8906 28.5645 17.4316 33.0078 23.2422 33.0078 Z"/>
  </g>
  <g id="Bold-L" transform="matrix(1 0 0 1 2274.57 1556)">
   <path d="M 21.7773 31.1523 C 25.6348 31.1523 28.5645 29.1504 32.959 24.8047 L 64.4531 -6.54297 C 64.7949 -6.83594 65.0879 -7.08008 65.4297 -7.08008 C 65.7227 -7.08008 66.0156 -6.83594 66.3574 -6.54297 L 97.8516 24.8047 C 102.246 29.1504 105.176 31.1523 109.033 31.1523 C 114.16 31.1523 117.92 27.2949 117.92 21.6309 C 117.92 18.75 116.943 15.5273 115.625 11.9141 L 76.2695 -94.5312 C 73.877 -101.074 70.459 -104.834 65.4297 -104.834 C 60.3516 -104.834 56.9336 -101.074 54.541 -94.5312 L 15.1855 11.9141 C 13.8672 15.5273 12.8906 18.75 12.8906 21.6309 C 12.8906 27.2949 16.6504 31.1523 21.7773 31.1523 Z"/>
  </g>
  <g id="Semibold-L" transform="matrix(1 0 0 1 1979.2 1556)">
   <path d="M 20.752 29.8828 C 24.1699 29.8828 26.709 28.2715 30.4688 24.5605 L 63.1836 -7.95898 C 63.4766 -8.30078 63.7695 -8.49609 64.0625 -8.49609 C 64.3555 -8.49609 64.6484 -8.30078 64.9414 -7.95898 L 97.7051 24.5605 C 101.465 28.2715 104.004 29.8828 107.422 29.8828 C 112.012 29.8828 115.234 26.3672 115.234 21.4355 C 115.234 18.8965 114.355 15.918 113.232 12.8418 L 73.7305 -94.4824 C 71.582 -100.391 68.457 -103.564 64.0625 -103.564 C 59.668 -103.564 56.543 -100.391 54.3945 -94.4824 L 14.9414 12.8418 C 13.8184 15.918 12.8906 18.8965 12.8906 21.4355 C 12.8906 26.3672 16.1133 29.8828 20.752 29.8828 Z"/>
  </g>
  <g id="Medium-L" transform="matrix(1 0 0 1 1683.49 1556)">
   <path d="M 19.9707 28.9551 C 23.0469 28.9551 25.2441 27.5879 28.5156 24.3652 L 62.207 -9.08203 C 62.5 -9.375 62.793 -9.61914 63.0371 -9.61914 C 63.3301 -9.61914 63.623 -9.375 63.916 -9.08203 L 97.5586 24.3652 C 100.879 27.5879 103.076 28.9551 106.152 28.9551 C 110.352 28.9551 113.232 25.6836 113.232 21.2402 C 113.232 18.9453 112.354 16.2598 111.377 13.5742 L 71.7773 -94.4336 C 69.8242 -99.8535 66.9434 -102.686 63.0371 -102.686 C 59.1797 -102.686 56.2988 -99.8535 54.2969 -94.4336 L 14.7461 13.5742 C 13.7695 16.2598 12.8906 18.9453 12.8906 21.2402 C 12.8906 25.6836 15.7227 28.9551 19.9707 28.9551 Z"/>
  </g>
  <g id="Regular-L" transform="matrix(1 0 0 1 1388.13 1556)">
   <path d="M 18.9453 27.6855 C 21.582 27.6855 23.3887 26.709 26.0254 24.1211 L 60.9375 -10.498 C 61.2305 -10.791 61.4746 -10.9863 61.7188 -10.9863 C 62.0117 -10.9863 62.2559 -10.791 62.5488 -10.498 L 97.4121 24.1211 C 100.098 26.709 101.904 27.6855 104.541 27.6855 C 108.252 27.6855 110.547 24.8047 110.547 21.0449 C 110.547 19.0918 109.766 16.6992 108.984 14.502 L 69.2871 -94.3848 C 67.5293 -99.1699 64.9414 -101.465 61.7188 -101.465 C 58.4961 -101.465 55.957 -99.1699 54.1992 -94.3848 L 14.502 14.502 C 13.6719 16.6992 12.8906 19.0918 12.8906 21.0449 C 12.8906 24.8047 15.2344 27.6855 18.9453 27.6855 Z"/>
  </g>
  <g id="Light-L" transform="matrix(1 0 0 1 1092.83 1556)">
   <path d="M 17.7734 26.8555 C 19.7754 26.8555 21.2891 26.0742 23.291 24.1211 L 59.5703 -11.9629 C 59.8633 -12.207 60.1074 -12.4023 60.3027 -12.4023 C 60.5469 -12.4023 60.7422 -12.207 61.0352 -11.9629 L 97.3145 24.1211 C 99.3164 26.0742 100.83 26.8555 102.832 26.8555 C 105.811 26.8555 107.715 24.5605 107.715 21.4844 C 107.715 20.0195 107.178 18.2617 106.592 16.6504 L 66.4551 -93.9453 C 65.0391 -97.7539 63.0371 -99.6582 60.3027 -99.6582 C 57.5684 -99.6582 55.5664 -97.7539 54.1992 -93.9453 L 14.0137 16.6504 C 13.4766 18.2617 12.8906 20.0195 12.8906 21.4844 C 12.8906 24.5605 14.8438 26.8555 17.7734 26.8555 Z"/>
  </g>
  <g id="Thin-L" transform="matrix(1 0 0 1 797.999 1556)">
   <path d="M 16.2598 25.7324 C 17.4316 25.7324 18.5059 25.2441 19.7266 24.0723 L 57.8125 -13.8672 C 58.0566 -14.1113 58.252 -14.2578 58.4473 -14.2578 C 58.5938 -14.2578 58.7891 -14.1113 59.0332 -13.8672 L 97.1191 24.0723 C 98.3398 25.2441 99.4141 25.7324 100.586 25.7324 C 102.539 25.7324 103.955 24.1699 103.955 22.0703 C 103.955 21.2402 103.711 20.4102 103.418 19.4824 L 62.6953 -93.4082 C 61.7676 -95.8984 60.4492 -97.3145 58.4473 -97.3145 C 56.3965 -97.3145 55.0781 -95.8984 54.1504 -93.4082 L 13.4277 19.4824 C 13.1348 20.4102 12.8906 21.2402 12.8906 22.0703 C 12.8906 24.1699 14.3066 25.7324 16.2598 25.7324 Z"/>
  </g>
  <g id="Ultralight-L" transform="matrix(1 0 0 1 502.24 1556)">
   <path d="M 15.4785 25.1953 C 16.2598 25.1953 17.0898 24.8535 17.8711 24.0723 L 56.9336 -14.8438 C 57.1777 -15.0879 57.3242 -15.2344 57.4707 -15.2344 C 57.6172 -15.2344 57.7637 -15.0879 58.0078 -14.8438 L 97.0703 24.0723 C 97.8027 24.8535 98.6816 25.1953 99.4141 25.1953 C 100.879 25.1953 102.051 23.9746 102.051 22.3633 C 102.051 21.875 101.953 21.4844 101.758 20.8984 L 60.791 -93.1152 C 60.1074 -94.9707 59.1309 -96.1426 57.4707 -96.1426 C 55.7617 -96.1426 54.834 -94.9707 54.1504 -93.1152 L 13.1348 20.8984 C 12.9883 21.4844 12.8906 21.875 12.8906 22.3633 C 12.8906 23.9746 14.0625 25.1953 15.4785 25.1953 Z"/>
  </g>
  <g id="Black-M" transform="matrix(1 0 0 1 2878.32 1126)">
   <path d="M 20.2148 20.752 C 24.6094 20.752 28.3203 17.7734 33.8867 12.207 L 54.1992 -8.10547 C 54.541 -8.44727 54.7852 -8.64258 55.0781 -8.64258 C 55.4199 -8.64258 55.6641 -8.44727 55.957 -8.10547 L 76.2695 12.207 C 81.8359 17.7734 85.5469 20.752 89.9414 20.752 C 95.5078 20.752 100.195 16.5039 100.195 9.91211 C 100.195 6.68945 99.3652 3.27148 97.7051 -1.12305 L 67.4805 -81.2012 C 64.8926 -88.1348 61.3281 -92.9688 55.0781 -92.9688 C 48.8281 -92.9688 45.2637 -88.2324 42.6758 -81.2012 L 12.4512 -1.12305 C 10.8398 3.27148 9.96094 6.68945 9.96094 9.91211 C 9.96094 16.5039 14.6973 20.752 20.2148 20.752 Z"/>
  </g>
  <g id="Heavy-M" transform="matrix(1 0 0 1 2583.12 1126)">
   <path d="M 19.043 19.1406 C 22.998 19.1406 26.2207 16.6504 31.0059 11.8652 L 52.7344 -9.81445 C 53.0273 -10.1074 53.2715 -10.3027 53.5645 -10.3027 C 53.8574 -10.3027 54.1016 -10.1074 54.3945 -9.81445 L 76.123 11.8652 C 80.9082 16.6504 84.1309 19.1406 88.0859 19.1406 C 93.0664 19.1406 97.168 15.332 97.168 9.47266 C 97.168 6.5918 96.3379 3.4668 94.873 -0.390625 L 64.5996 -81.2012 C 62.2559 -87.5488 58.9844 -91.6992 53.5645 -91.6992 C 48.1445 -91.6992 44.873 -87.5977 42.5293 -81.2012 L 12.207 -0.390625 C 10.791 3.4668 9.96094 6.5918 9.96094 9.47266 C 9.96094 15.332 14.0625 19.1406 19.043 19.1406 Z"/>
  </g>
  <g id="Bold-M" transform="matrix(1 0 0 1 2288.12 1126)">
   <path d="M 17.7734 17.3828 C 21.1426 17.3828 23.8281 15.4297 27.7832 11.4746 L 51.0742 -11.6699 C 51.3672 -11.9629 51.5625 -12.1582 51.8555 -12.1582 C 52.0996 -12.1582 52.3438 -11.9629 52.6367 -11.6699 L 75.9277 11.4746 C 79.8828 15.4297 82.5684 17.3828 85.9375 17.3828 C 90.3809 17.3828 93.75 14.0137 93.75 9.0332 C 93.75 6.49414 92.9199 3.66211 91.748 0.488281 L 61.377 -81.25 C 59.3262 -86.8652 56.3965 -90.2344 51.8555 -90.2344 C 47.3145 -90.2344 44.3848 -86.9141 42.334 -81.25 L 11.9629 0.488281 C 10.791 3.66211 9.96094 6.49414 9.96094 9.0332 C 9.96094 14.0137 13.3301 17.3828 17.7734 17.3828 Z"/>
  </g>
  <g id="Semibold-M" transform="matrix(1 0 0 1 1992.58 1126)">
   <path d="M 16.8457 16.1133 C 19.9219 16.1133 22.168 14.5996 25.5859 11.2305 L 49.9512 -12.9883 C 50.1953 -13.2324 50.4395 -13.4277 50.6836 -13.4277 C 50.9277 -13.4277 51.1719 -13.2324 51.416 -12.9883 L 75.7812 11.2305 C 79.1992 14.5996 81.4453 16.1133 84.4727 16.1133 C 88.5254 16.1133 91.4062 13.0859 91.4062 8.69141 C 91.4062 6.44531 90.5762 3.85742 89.5996 1.07422 L 59.1309 -81.2988 C 57.2754 -86.4258 54.5898 -89.2578 50.6836 -89.2578 C 46.7773 -89.2578 44.0918 -86.4258 42.1875 -81.2988 L 11.7676 1.07422 C 10.7422 3.85742 9.96094 6.44531 9.96094 8.69141 C 9.96094 13.0859 12.8418 16.1133 16.8457 16.1133 Z"/>
  </g>
  <g id="Medium-M" transform="matrix(1 0 0 1 1696.78 1126)">
   <path d="M 16.1621 15.1855 C 18.9453 15.1855 20.8984 13.9648 23.877 11.0352 L 49.0723 -13.9648 C 49.3164 -14.209 49.5605 -14.4043 49.8047 -14.4043 C 50 -14.4043 50.2441 -14.209 50.4883 -13.9648 L 75.6836 11.0352 C 78.6621 13.9648 80.6152 15.1855 83.3984 15.1855 C 87.1094 15.1855 89.5996 12.3535 89.5996 8.44727 C 89.5996 6.39648 88.8184 3.95508 87.9395 1.51367 L 57.4707 -81.2988 C 55.7129 -86.0352 53.2227 -88.5254 49.8047 -88.5254 C 46.3867 -88.5254 43.8477 -86.084 42.0898 -81.2988 L 11.6211 1.51367 C 10.7422 3.95508 9.96094 6.39648 9.96094 8.44727 C 9.96094 12.3535 12.4512 15.1855 16.1621 15.1855 Z"/>
  </g>
  <g id="Regular-M" transform="matrix(1 0 0 1 1401.24 1126)">
   <path d="M 15.2832 14.0137 C 17.6758 14.0137 19.2871 13.1348 21.6797 10.791 L 47.9492 -15.2344 C 48.1934 -15.4785 48.3887 -15.6738 48.6328 -15.6738 C 48.8281 -15.6738 49.0723 -15.4785 49.3164 -15.2344 L 75.5371 10.791 C 77.9785 13.1348 79.541 14.0137 81.9336 14.0137 C 85.2539 14.0137 87.2559 11.4746 87.2559 8.1543 C 87.2559 6.29883 86.5234 4.10156 85.791 2.09961 L 55.2734 -81.2988 C 53.7109 -85.5957 51.416 -87.5488 48.6328 -87.5488 C 45.8008 -87.5488 43.5547 -85.5957 41.9922 -81.2988 L 11.4258 2.09961 C 10.7422 4.10156 9.96094 6.29883 9.96094 8.1543 C 9.96094 11.4746 11.9629 14.0137 15.2832 14.0137 Z"/>
  </g>
  <g id="Light-M" transform="matrix(1 0 0 1 1105.79 1126)">
   <path d="M 14.2578 13.2324 C 16.1133 13.2324 17.3828 12.5977 19.2383 10.791 L 46.7285 -16.5527 C 46.9727 -16.748 47.168 -16.8945 47.3633 -16.8945 C 47.5098 -16.8945 47.7051 -16.748 47.9492 -16.5527 L 75.4395 10.791 C 77.2949 12.5977 78.5645 13.2324 80.4199 13.2324 C 83.0566 13.2324 84.7168 11.2305 84.7168 8.54492 C 84.7168 7.17773 84.1797 5.51758 83.6426 4.00391 L 52.7344 -80.957 C 51.4648 -84.3262 49.6582 -85.9863 47.3633 -85.9863 C 45.0195 -85.9863 43.2129 -84.3262 41.9434 -80.957 L 11.0352 4.00391 C 10.498 5.51758 9.96094 7.17773 9.96094 8.54492 C 9.96094 11.2305 11.6211 13.2324 14.2578 13.2324 Z"/>
  </g>
  <g id="Thin-M" transform="matrix(1 0 0 1 810.768 1126)">
   <path d="M 12.8906 12.2559 C 14.0137 12.2559 14.9414 11.8164 16.0156 10.7422 L 45.166 -18.2617 C 45.3613 -18.457 45.5078 -18.6035 45.6543 -18.6035 C 45.8008 -18.6035 45.9473 -18.457 46.1426 -18.2617 L 75.293 10.7422 C 76.3672 11.8164 77.2949 12.2559 78.418 12.2559 C 80.127 12.2559 81.3477 10.8887 81.3477 9.0332 C 81.3477 8.30078 81.1035 7.42188 80.8105 6.54297 L 49.3652 -80.4199 C 48.5352 -82.666 47.3633 -83.8867 45.6543 -83.8867 C 43.9453 -83.8867 42.7734 -82.666 41.9434 -80.4199 L 10.498 6.54297 C 10.2051 7.42188 9.96094 8.30078 9.96094 9.0332 C 9.96094 10.8887 11.1816 12.2559 12.8906 12.2559 Z"/>
  </g>
  <g id="Ultralight-M" transform="matrix(1 0 0 1 514.911 1126)">
   <path d="M 12.207 11.7676 C 12.9395 11.7676 13.6719 11.4746 14.3555 10.7422 L 44.3848 -19.1406 C 44.5312 -19.3359 44.6777 -19.4336 44.7754 -19.4336 C 44.9219 -19.4336 45.0195 -19.3359 45.2148 -19.1406 L 75.1953 10.7422 C 75.9277 11.4746 76.6602 11.7676 77.3926 11.7676 C 78.6621 11.7676 79.6387 10.7422 79.6387 9.32617 C 79.6387 8.83789 79.4922 8.39844 79.3457 7.86133 L 47.6562 -80.1758 C 47.0703 -81.7871 46.1914 -82.8125 44.7754 -82.8125 C 43.4082 -82.8125 42.5293 -81.7871 41.9434 -80.1758 L 10.2539 7.86133 C 10.0586 8.39844 9.96094 8.83789 9.96094 9.32617 C 9.96094 10.7422 10.9375 11.7676 12.207 11.7676 Z"/>
  </g>
  <g id="Black-S" transform="matrix(1 0 0 1 2890.33 696)">
   <path d="M 15.7715 8.49609 C 19.1895 8.49609 22.0703 6.20117 26.3672 1.9043 L 42.3828 -14.1113 C 42.627 -14.3555 42.8223 -14.502 43.0664 -14.502 C 43.3105 -14.502 43.5059 -14.3555 43.75 -14.1113 L 59.7656 1.9043 C 64.0625 6.20117 66.9434 8.49609 70.3613 8.49609 C 74.6582 8.49609 78.3203 5.22461 78.3203 0.0976562 C 78.3203 -2.39258 77.6367 -5.07812 76.3672 -8.49609 L 52.6855 -71.2402 C 50.6836 -76.6602 47.9004 -80.3711 43.0664 -80.3711 C 38.2324 -80.3711 35.4492 -76.709 33.4473 -71.2402 L 9.76562 -8.49609 C 8.49609 -5.07812 7.8125 -2.39258 7.8125 0.0976562 C 7.8125 5.22461 11.4746 8.49609 15.7715 8.49609 Z"/>
  </g>
  <g id="Heavy-S" transform="matrix(1 0 0 1 2594.65 696)">
   <path d="M 14.9902 7.37305 C 18.1152 7.37305 20.6543 5.41992 24.4141 1.66016 L 41.4062 -15.2344 C 41.6016 -15.4785 41.7969 -15.625 42.041 -15.625 C 42.2852 -15.625 42.4805 -15.4785 42.6758 -15.2344 L 59.668 1.66016 C 63.4277 5.41992 65.9668 7.37305 69.0918 7.37305 C 73.0469 7.37305 76.2695 4.3457 76.2695 -0.244141 C 76.2695 -2.53906 75.5859 -5.07812 74.4629 -8.10547 L 50.7812 -71.2891 C 48.9258 -76.3184 46.2891 -79.5898 42.041 -79.5898 C 37.793 -79.5898 35.1562 -76.3672 33.3008 -71.2891 L 9.61914 -8.10547 C 8.49609 -5.07812 7.8125 -2.53906 7.8125 -0.244141 C 7.8125 4.3457 11.0352 7.37305 14.9902 7.37305 Z"/>
  </g>
  <g id="Bold-S" transform="matrix(1 0 0 1 2299.08 696)">
   <path d="M 14.1113 6.10352 C 16.8945 6.10352 19.043 4.58984 22.2656 1.36719 L 40.2832 -16.5527 C 40.4785 -16.748 40.6738 -16.8945 40.8691 -16.8945 C 41.1133 -16.8945 41.3086 -16.748 41.5039 -16.5527 L 59.5215 1.36719 C 62.7441 4.58984 64.8438 6.10352 67.6758 6.10352 C 71.2891 6.10352 73.9746 3.36914 73.9746 -0.683594 C 73.9746 -2.73438 73.291 -5.07812 72.3145 -7.71484 L 48.584 -71.3867 C 46.9238 -75.9766 44.5312 -78.6621 40.8691 -78.6621 C 37.2559 -78.6621 34.8633 -76.0254 33.1543 -71.3867 L 9.47266 -7.71484 C 8.49609 -5.07812 7.8125 -2.73438 7.8125 -0.683594 C 7.8125 3.36914 10.498 6.10352 14.1113 6.10352 Z"/>
  </g>
  <g id="Semibold-S" transform="matrix(1 0 0 1 2003.15 696)">
   <path d="M 13.5254 5.22461 C 16.1133 5.22461 17.9199 3.95508 20.8008 1.17188 L 39.502 -17.4316 C 39.6973 -17.627 39.8926 -17.7734 40.0879 -17.7734 C 40.332 -17.7734 40.4785 -17.627 40.7227 -17.4316 L 59.4238 1.17188 C 62.2559 3.95508 64.1113 5.22461 66.6504 5.22461 C 70.0195 5.22461 72.4121 2.68555 72.4121 -0.976562 C 72.4121 -2.88086 71.6797 -5.07812 70.8496 -7.42188 L 47.1191 -71.4355 C 45.5566 -75.7324 43.3105 -78.0762 40.0879 -78.0762 C 36.9141 -78.0762 34.668 -75.7324 33.0566 -71.4355 L 9.375 -7.42188 C 8.49609 -5.07812 7.8125 -2.88086 7.8125 -0.976562 C 7.8125 2.68555 10.1562 5.22461 13.5254 5.22461 Z"/>
  </g>
  <g id="Medium-S" transform="matrix(1 0 0 1 1707.05 696)">
   <path d="M 13.0859 4.54102 C 15.4785 4.54102 17.0898 3.51562 19.6289 1.02539 L 38.916 -18.0664 C 39.1113 -18.2617 39.3066 -18.4082 39.502 -18.4082 C 39.6973 -18.4082 39.8926 -18.2617 40.0879 -18.0664 L 59.3262 1.02539 C 61.9141 3.51562 63.5254 4.54102 65.918 4.54102 C 69.0918 4.54102 71.1914 2.14844 71.1914 -1.17188 C 71.1914 -2.97852 70.5078 -5.07812 69.7266 -7.22656 L 45.9961 -71.4844 C 44.5312 -75.5371 42.334 -77.5879 39.502 -77.5879 C 36.6699 -77.5879 34.4727 -75.5371 33.0078 -71.4844 L 9.27734 -7.22656 C 8.49609 -5.07812 7.8125 -2.97852 7.8125 -1.17188 C 7.8125 2.14844 9.91211 4.54102 13.0859 4.54102 Z"/>
  </g>
  <g id="Regular-S" transform="matrix(1 0 0 1 1411.12 696)">
   <path d="M 12.5 3.71094 C 14.6484 3.71094 16.0156 2.92969 18.1641 0.830078 L 38.1348 -18.9453 C 38.3301 -19.1406 38.5254 -19.2871 38.7207 -19.2871 C 38.916 -19.2871 39.1113 -19.1406 39.3066 -18.9453 L 59.2773 0.830078 C 61.4258 2.92969 62.793 3.71094 64.9414 3.71094 C 67.8711 3.71094 69.6289 1.46484 69.6289 -1.46484 C 69.6289 -3.07617 68.9453 -5.07812 68.2617 -6.93359 L 44.5312 -71.5332 C 43.1641 -75.293 41.1133 -77.002 38.7207 -77.002 C 36.2793 -77.002 34.2773 -75.293 32.9102 -71.5332 L 9.17969 -6.93359 C 8.49609 -5.07812 7.8125 -3.07617 7.8125 -1.46484 C 7.8125 1.46484 9.57031 3.71094 12.5 3.71094 Z"/>
  </g>
  <g id="Light-S" transform="matrix(1 0 0 1 1115.54 696)">
   <path d="M 11.5723 3.02734 C 13.2324 3.02734 14.3555 2.44141 16.0156 0.830078 L 37.1094 -20.1172 C 37.2559 -20.2637 37.4512 -20.4102 37.5977 -20.4102 C 37.7441 -20.4102 37.8906 -20.2637 38.0859 -20.1172 L 59.1797 0.830078 C 60.8398 2.44141 61.9629 3.02734 63.623 3.02734 C 65.918 3.02734 67.3828 1.26953 67.3828 -1.12305 C 67.3828 -2.34375 66.8457 -3.85742 66.3574 -5.22461 L 42.2852 -71.1914 C 41.2109 -74.1699 39.5996 -75.5859 37.5977 -75.5859 C 35.5957 -75.5859 33.9844 -74.1699 32.9102 -71.1914 L 8.83789 -5.22461 C 8.30078 -3.85742 7.8125 -2.34375 7.8125 -1.12305 C 7.8125 1.26953 9.27734 3.02734 11.5723 3.02734 Z"/>
  </g>
  <g id="Thin-S" transform="matrix(1 0 0 1 820.314 696)">
   <path d="M 10.4004 2.14844 C 11.377 2.14844 12.1582 1.80664 13.1836 0.78125 L 35.6934 -21.582 C 35.8398 -21.7773 35.9863 -21.875 36.084 -21.875 C 36.2305 -21.875 36.3281 -21.7773 36.5234 -21.582 L 59.0332 0.78125 C 60.0098 1.80664 60.8398 2.14844 61.8164 2.14844 C 63.3301 2.14844 64.4043 0.976562 64.4043 -0.634766 C 64.4043 -1.36719 64.1113 -2.19727 63.8672 -2.97852 L 39.3066 -70.752 C 38.623 -72.7051 37.5488 -73.7305 36.084 -73.7305 C 34.6191 -73.7305 33.5938 -72.7051 32.8613 -70.752 L 8.34961 -2.97852 C 8.05664 -2.19727 7.8125 -1.36719 7.8125 -0.634766 C 7.8125 0.976562 8.83789 2.14844 10.4004 2.14844 Z"/>
  </g>
  <g id="Ultralight-S" transform="matrix(1 0 0 1 524.384 696)">
   <path d="M 9.76562 1.70898 C 10.4004 1.70898 11.0352 1.46484 11.7188 0.78125 L 34.9609 -22.3633 C 35.1074 -22.5098 35.2539 -22.6074 35.3516 -22.6074 C 35.4492 -22.6074 35.5469 -22.5098 35.6934 -22.3633 L 58.9355 0.78125 C 59.6191 1.46484 60.2539 1.70898 60.8887 1.70898 C 62.0117 1.70898 62.8418 0.830078 62.8418 -0.390625 C 62.8418 -0.830078 62.7441 -1.31836 62.5488 -1.80664 L 37.793 -70.5078 C 37.2559 -71.9727 36.5234 -72.7539 35.3516 -72.7539 C 34.1309 -72.7539 33.3984 -71.9727 32.8613 -70.5078 L 8.10547 -1.80664 C 7.95898 -1.31836 7.8125 -0.830078 7.8125 -0.390625 C 7.8125 0.830078 8.64258 1.70898 9.76562 1.70898 Z"/>
  </g>
 </g>
</svg>
