<?xml version="1.0" encoding="UTF-8"?>
<!--Generator: Apple Native CoreSVG 148-->
<!DOCTYPE svg
PUBLIC "-//W3C//DTD SVG 1.1//EN"
       "http://www.w3.org/Graphics/SVG/1.1/DTD/svg11.dtd">
<svg version="1.1" xmlns="http://www.w3.org/2000/svg" xmlns:xlink="http://www.w3.org/1999/xlink" width="3300" height="2200">
 <!--glyph: "uni10001D.medium", point size: 100.000000, font version: "Version 16.0d11e1", template writer version: "8"-->
 <g id="Notes">
  <rect height="2200" id="artboard" style="fill:white;opacity:1" width="3300" x="0" y="0"/>
  <line id="" style="fill:none;stroke:black;opacity:1;stroke-width:0.5;" x1="263" x2="3036" y1="292" y2="292"/>
  <text style="stroke:none;fill:black;font-family:-apple-system,&quot;SF Pro Display&quot;,&quot;SF Pro Text&quot;,Helvetica,sans-serif;font-weight:bold;" transform="matrix(1 0 0 1 263 322)">Weight/Scale Variations</text>
  <text style="stroke:none;fill:black;font-family:-apple-system,&quot;SF Pro Display&quot;,&quot;SF Pro Text&quot;,Helvetica,sans-serif;text-anchor:middle;" transform="matrix(1 0 0 1 559.711 322)">Ultralight</text>
  <text style="stroke:none;fill:black;font-family:-apple-system,&quot;SF Pro Display&quot;,&quot;SF Pro Text&quot;,Helvetica,sans-serif;text-anchor:middle;" transform="matrix(1 0 0 1 856.422 322)">Thin</text>
  <text style="stroke:none;fill:black;font-family:-apple-system,&quot;SF Pro Display&quot;,&quot;SF Pro Text&quot;,Helvetica,sans-serif;text-anchor:middle;" transform="matrix(1 0 0 1 1153.13 322)">Light</text>
  <text style="stroke:none;fill:black;font-family:-apple-system,&quot;SF Pro Display&quot;,&quot;SF Pro Text&quot;,Helvetica,sans-serif;text-anchor:middle;" transform="matrix(1 0 0 1 1449.84 322)">Regular</text>
  <text style="stroke:none;fill:black;font-family:-apple-system,&quot;SF Pro Display&quot;,&quot;SF Pro Text&quot;,Helvetica,sans-serif;text-anchor:middle;" transform="matrix(1 0 0 1 1746.56 322)">Medium</text>
  <text style="stroke:none;fill:black;font-family:-apple-system,&quot;SF Pro Display&quot;,&quot;SF Pro Text&quot;,Helvetica,sans-serif;text-anchor:middle;" transform="matrix(1 0 0 1 2043.27 322)">Semibold</text>
  <text style="stroke:none;fill:black;font-family:-apple-system,&quot;SF Pro Display&quot;,&quot;SF Pro Text&quot;,Helvetica,sans-serif;text-anchor:middle;" transform="matrix(1 0 0 1 2339.98 322)">Bold</text>
  <text style="stroke:none;fill:black;font-family:-apple-system,&quot;SF Pro Display&quot;,&quot;SF Pro Text&quot;,Helvetica,sans-serif;text-anchor:middle;" transform="matrix(1 0 0 1 2636.69 322)">Heavy</text>
  <text style="stroke:none;fill:black;font-family:-apple-system,&quot;SF Pro Display&quot;,&quot;SF Pro Text&quot;,Helvetica,sans-serif;text-anchor:middle;" transform="matrix(1 0 0 1 2933.4 322)">Black</text>
  <line id="" style="fill:none;stroke:black;opacity:1;stroke-width:0.5;" x1="263" x2="3036" y1="1903" y2="1903"/>
  <g id="" transform="matrix(1 0 0 1 263 1933)">
   <path d="M 9.24805 0.830078 C 13.5547 0.830078 17.1387 -2.74414 17.1387 -7.05078 C 17.1387 -11.3574 13.5449 -14.9316 9.23828 -14.9316 C 4.94141 -14.9316 1.36719 -11.3574 1.36719 -7.05078 C 1.36719 -2.74414 4.95117 0.830078 9.24805 0.830078 Z M 9.24805 -0.654297 C 5.70312 -0.654297 2.87109 -3.49609 2.87109 -7.05078 C 2.87109 -10.6055 5.69336 -13.4473 9.23828 -13.4473 C 12.793 -13.4473 15.6348 -10.6055 15.6445 -7.05078 C 15.6543 -3.49609 12.8027 -0.654297 9.24805 -0.654297 Z M 9.22852 -3.62305 C 9.69727 -3.62305 9.9707 -3.93555 9.9707 -4.45312 L 9.9707 -6.31836 L 12.002 -6.31836 C 12.5 -6.31836 12.832 -6.57227 12.832 -7.04102 C 12.832 -7.51953 12.5195 -7.7832 12.002 -7.7832 L 9.9707 -7.7832 L 9.9707 -9.81445 C 9.9707 -10.332 9.69727 -10.6543 9.22852 -10.6543 C 8.75977 -10.6543 8.50586 -10.3125 8.50586 -9.81445 L 8.50586 -7.7832 L 6.49414 -7.7832 C 5.97656 -7.7832 5.64453 -7.51953 5.64453 -7.04102 C 5.64453 -6.57227 5.99609 -6.31836 6.49414 -6.31836 L 8.50586 -6.31836 L 8.50586 -4.45312 C 8.50586 -3.95508 8.75977 -3.62305 9.22852 -3.62305 Z"/>
  </g>
  <g id="" transform="matrix(1 0 0 1 281.506 1933)">
   <path d="M 11.709 2.91016 C 17.1582 2.91016 21.6699 -1.61133 21.6699 -7.05078 C 21.6699 -12.5 17.1484 -17.0117 11.6992 -17.0117 C 6.25977 -17.0117 1.74805 -12.5 1.74805 -7.05078 C 1.74805 -1.61133 6.26953 2.91016 11.709 2.91016 Z M 11.709 1.25 C 7.09961 1.25 3.41797 -2.44141 3.41797 -7.05078 C 3.41797 -11.6602 7.08984 -15.3516 11.6992 -15.3516 C 16.3086 -15.3516 20 -11.6602 20.0098 -7.05078 C 20.0195 -2.44141 16.3184 1.25 11.709 1.25 Z M 11.6797 -2.66602 C 12.207 -2.66602 12.5098 -3.01758 12.5098 -3.59375 L 12.5098 -6.23047 L 15.3223 -6.23047 C 15.8691 -6.23047 16.25 -6.51367 16.25 -7.03125 C 16.25 -7.55859 15.8887 -7.86133 15.3223 -7.86133 L 12.5098 -7.86133 L 12.5098 -10.6836 C 12.5098 -11.25 12.207 -11.6113 11.6797 -11.6113 C 11.1621 -11.6113 10.8789 -11.2305 10.8789 -10.6836 L 10.8789 -7.86133 L 8.07617 -7.86133 C 7.50977 -7.86133 7.13867 -7.55859 7.13867 -7.03125 C 7.13867 -6.51367 7.5293 -6.23047 8.07617 -6.23047 L 10.8789 -6.23047 L 10.8789 -3.59375 C 10.8789 -3.03711 11.1621 -2.66602 11.6797 -2.66602 Z"/>
  </g>
  <g id="" transform="matrix(1 0 0 1 304.924 1933)">
   <path d="M 14.9707 5.66406 C 21.9336 5.66406 27.6953 -0.0976562 27.6953 -7.05078 C 27.6953 -14.0137 21.9238 -19.7754 14.9609 -19.7754 C 8.00781 -19.7754 2.25586 -14.0137 2.25586 -7.05078 C 2.25586 -0.0976562 8.01758 5.66406 14.9707 5.66406 Z M 14.9707 3.84766 C 8.93555 3.84766 4.08203 -1.01562 4.08203 -7.05078 C 4.08203 -13.0957 8.92578 -17.9492 14.9609 -17.9492 C 21.0059 -17.9492 25.8594 -13.0957 25.8691 -7.05078 C 25.8789 -1.01562 21.0156 3.84766 14.9707 3.84766 Z M 14.9414 -1.38672 C 15.5176 -1.38672 15.8594 -1.77734 15.8594 -2.38281 L 15.8594 -6.13281 L 19.7754 -6.13281 C 20.3711 -6.13281 20.7812 -6.46484 20.7812 -7.02148 C 20.7812 -7.59766 20.3906 -7.93945 19.7754 -7.93945 L 15.8594 -7.93945 L 15.8594 -11.8652 C 15.8594 -12.4805 15.5176 -12.8711 14.9414 -12.8711 C 14.375 -12.8711 14.0527 -12.4609 14.0527 -11.8652 L 14.0527 -7.93945 L 10.1465 -7.93945 C 9.53125 -7.93945 9.13086 -7.59766 9.13086 -7.02148 C 9.13086 -6.46484 9.55078 -6.13281 10.1465 -6.13281 L 14.0527 -6.13281 L 14.0527 -2.38281 C 14.0527 -1.79688 14.375 -1.38672 14.9414 -1.38672 Z"/>
  </g>
  <text style="stroke:none;fill:black;font-family:-apple-system,&quot;SF Pro Display&quot;,&quot;SF Pro Text&quot;,Helvetica,sans-serif;font-weight:bold;" transform="matrix(1 0 0 1 263 1953)">Design Variations</text>
  <text style="stroke:none;fill:black;font-family:-apple-system,&quot;SF Pro Display&quot;,&quot;SF Pro Text&quot;,Helvetica,sans-serif;" transform="matrix(1 0 0 1 263 1971)">Symbols are supported in up to nine weights and three scales.</text>
  <text style="stroke:none;fill:black;font-family:-apple-system,&quot;SF Pro Display&quot;,&quot;SF Pro Text&quot;,Helvetica,sans-serif;" transform="matrix(1 0 0 1 263 1989)">For optimal layout with text and other symbols, vertically align</text>
  <text style="stroke:none;fill:black;font-family:-apple-system,&quot;SF Pro Display&quot;,&quot;SF Pro Text&quot;,Helvetica,sans-serif;" transform="matrix(1 0 0 1 263 2007)">symbols with the adjacent text.</text>
  <line id="" style="fill:none;stroke:#00AEEF;stroke-width:0.5;opacity:1.0;" x1="776" x2="776" y1="1919" y2="1933"/>
  <g id="" transform="matrix(1 0 0 1 776 1933)">
   <path d="M 3.31055 0.126953 C 3.82812 0.126953 4.08203 -0.0683594 4.26758 -0.605469 L 5.52734 -4.0625 L 11.2891 -4.0625 L 12.5488 -0.605469 C 12.7344 -0.0683594 12.9883 0.126953 13.4961 0.126953 C 14.0137 0.126953 14.3457 -0.185547 14.3457 -0.673828 C 14.3457 -0.839844 14.3164 -0.986328 14.2383 -1.20117 L 9.6582 -13.3887 C 9.43359 -13.9941 9.0332 -14.2871 8.4082 -14.2871 C 7.80273 -14.2871 7.39258 -13.9941 7.17773 -13.3984 L 2.59766 -1.19141 C 2.51953 -0.976562 2.49023 -0.830078 2.49023 -0.664062 C 2.49023 -0.175781 2.80273 0.126953 3.31055 0.126953 Z M 6.00586 -5.53711 L 8.37891 -12.1094 L 8.42773 -12.1094 L 10.8008 -5.53711 Z"/>
  </g>
  <line id="" style="fill:none;stroke:#00AEEF;stroke-width:0.5;opacity:1.0;" x1="792.836" x2="792.836" y1="1919" y2="1933"/>
  <text style="stroke:none;fill:black;font-family:-apple-system,&quot;SF Pro Display&quot;,&quot;SF Pro Text&quot;,Helvetica,sans-serif;font-weight:bold;" transform="matrix(1 0 0 1 776 1953)">Margins</text>
  <text style="stroke:none;fill:black;font-family:-apple-system,&quot;SF Pro Display&quot;,&quot;SF Pro Text&quot;,Helvetica,sans-serif;" transform="matrix(1 0 0 1 776 1971)">Leading and trailing margins on the left and right side of each symbol</text>
  <text style="stroke:none;fill:black;font-family:-apple-system,&quot;SF Pro Display&quot;,&quot;SF Pro Text&quot;,Helvetica,sans-serif;" transform="matrix(1 0 0 1 776 1989)">can be adjusted by modifying the x-location of the margin guidelines.</text>
  <text style="stroke:none;fill:black;font-family:-apple-system,&quot;SF Pro Display&quot;,&quot;SF Pro Text&quot;,Helvetica,sans-serif;" transform="matrix(1 0 0 1 776 2007)">Modifications are automatically applied proportionally to all</text>
  <text style="stroke:none;fill:black;font-family:-apple-system,&quot;SF Pro Display&quot;,&quot;SF Pro Text&quot;,Helvetica,sans-serif;" transform="matrix(1 0 0 1 776 2025)">scales and weights.</text>
  <g id="" transform="matrix(1 0 0 1 1289 1933)">
   <path d="M 2.8418 1.86523 L 4.54102 3.57422 C 5.40039 4.44336 6.38672 4.38477 7.31445 3.35938 L 17.4902 -7.85156 C 17.7539 -7.76367 18.0273 -7.7832 18.3398 -7.8418 L 19.4043 -8.03711 L 20.0684 -7.36328 L 20.0293 -6.80664 C 19.9902 -6.30859 20.1172 -5.92773 20.6055 -5.44922 L 21.3672 -4.70703 C 21.8457 -4.22852 22.4609 -4.19922 22.9297 -4.66797 L 25.8398 -7.58789 C 26.3086 -8.05664 26.2891 -8.65234 25.8105 -9.13086 L 25.0391 -9.89258 C 24.5605 -10.3711 24.1895 -10.5273 23.7109 -10.4883 L 23.1348 -10.4395 L 22.4902 -11.0742 L 22.7344 -12.1973 C 22.8613 -12.7637 22.7051 -13.2031 22.1191 -13.7891 L 19.9219 -15.9766 C 16.582 -19.2969 12.1484 -19.2188 9.25781 -16.3281 C 8.83789 -15.918 8.80859 -15.3418 9.04297 -14.9512 C 9.27734 -14.5898 9.73633 -14.3555 10.3809 -14.5215 C 11.8457 -14.8633 13.3691 -14.9219 14.7949 -13.9844 L 14.209 -12.5293 C 14.0137 -12.0508 13.9844 -11.6504 14.1113 -11.2891 L 3.04688 -0.898438 C 2.06055 0.0195312 1.98242 0.996094 2.8418 1.86523 Z M 10.752 -15.957 C 13.1836 -17.7344 16.4746 -17.4316 18.7012 -15.2051 L 21.1328 -12.793 C 21.3672 -12.5586 21.4062 -12.373 21.3379 -12.0312 L 21.0156 -10.5469 L 22.5195 -9.0625 L 23.5059 -9.12109 C 23.7598 -9.13086 23.8379 -9.11133 24.0332 -8.91602 L 24.6094 -8.33984 L 22.168 -5.89844 L 21.5918 -6.47461 C 21.3965 -6.66992 21.3672 -6.74805 21.377 -7.01172 L 21.4453 -7.98828 L 19.9512 -9.47266 L 18.4277 -9.21875 C 18.1055 -9.15039 17.959 -9.17969 17.7148 -9.41406 L 15.7129 -11.416 C 15.459 -11.6504 15.4297 -11.8164 15.5859 -12.1875 L 16.4648 -14.2773 C 14.9023 -15.7324 12.8711 -16.3574 10.8398 -15.7617 C 10.6836 -15.7227 10.625 -15.8496 10.752 -15.957 Z M 5.27344 2.30469 L 4.10156 1.14258 C 3.63281 0.683594 3.74023 0.341797 4.14062 -0.0195312 L 14.9512 -10.1953 L 16.416 -8.71094 L 6.42578 2.27539 C 6.07422 2.67578 5.74219 2.77344 5.27344 2.30469 Z"/>
  </g>
  <text style="stroke:none;fill:black;font-family:-apple-system,&quot;SF Pro Display&quot;,&quot;SF Pro Text&quot;,Helvetica,sans-serif;font-weight:bold;" transform="matrix(1 0 0 1 1289 1953)">Exporting</text>
  <text style="stroke:none;fill:black;font-family:-apple-system,&quot;SF Pro Display&quot;,&quot;SF Pro Text&quot;,Helvetica,sans-serif;" transform="matrix(1 0 0 1 1289 1971)">Symbols should be outlined when exporting to ensure the</text>
  <text style="stroke:none;fill:black;font-family:-apple-system,&quot;SF Pro Display&quot;,&quot;SF Pro Text&quot;,Helvetica,sans-serif;" transform="matrix(1 0 0 1 1289 1989)">design is preserved when submitting to Xcode.</text>
  <text id="template-version" style="stroke:none;fill:black;font-family:-apple-system,&quot;SF Pro Display&quot;,&quot;SF Pro Text&quot;,Helvetica,sans-serif;text-anchor:end;" transform="matrix(1 0 0 1 3036 1933)">Template v.2.0</text>
  <text style="stroke:none;fill:black;font-family:-apple-system,&quot;SF Pro Display&quot;,&quot;SF Pro Text&quot;,Helvetica,sans-serif;text-anchor:end;" transform="matrix(1 0 0 1 3036 1951)">Requires Xcode 12 or greater</text>
  <text style="stroke:none;fill:black;font-family:-apple-system,&quot;SF Pro Display&quot;,&quot;SF Pro Text&quot;,Helvetica,sans-serif;text-anchor:end;" transform="matrix(1 0 0 1 3036 1969)">Generated from m.circle.fill</text>
  <text style="stroke:none;fill:black;font-family:-apple-system,&quot;SF Pro Display&quot;,&quot;SF Pro Text&quot;,Helvetica,sans-serif;text-anchor:end;" transform="matrix(1 0 0 1 3036 1987)">Typeset at 100 points</text>
  <text style="stroke:none;fill:black;font-family:-apple-system,&quot;SF Pro Display&quot;,&quot;SF Pro Text&quot;,Helvetica,sans-serif;" transform="matrix(1 0 0 1 263 726)">Small</text>
  <text style="stroke:none;fill:black;font-family:-apple-system,&quot;SF Pro Display&quot;,&quot;SF Pro Text&quot;,Helvetica,sans-serif;" transform="matrix(1 0 0 1 263 1156)">Medium</text>
  <text style="stroke:none;fill:black;font-family:-apple-system,&quot;SF Pro Display&quot;,&quot;SF Pro Text&quot;,Helvetica,sans-serif;" transform="matrix(1 0 0 1 263 1586)">Large</text>
 </g>
 <g id="Guides">
  <g id="H-reference" style="fill:#27AAE1;stroke:none;" transform="matrix(1 0 0 1 339 696)">
   <path d="M 0.976562 0 L 3.66211 0 L 12.9883 -24.4629 L 45.7031 -24.4629 L 55.0781 0 L 57.7148 0 L 30.6152 -70.459 L 28.125 -70.459 Z M 29.2969 -67.1387 L 29.3945 -67.1387 L 44.873 -26.709 L 13.8672 -26.709 Z"/>
  </g>
  <line id="Baseline-S" style="fill:none;stroke:#27AAE1;opacity:1;stroke-width:0.5;" x1="263" x2="3036" y1="696" y2="696"/>
  <line id="Capline-S" style="fill:none;stroke:#27AAE1;opacity:1;stroke-width:0.5;" x1="263" x2="3036" y1="625.541" y2="625.541"/>
  <g id="H-reference" style="fill:#27AAE1;stroke:none;" transform="matrix(1 0 0 1 339 1126)">
   <path d="M 0.976562 0 L 3.66211 0 L 12.9883 -24.4629 L 45.7031 -24.4629 L 55.0781 0 L 57.7148 0 L 30.6152 -70.459 L 28.125 -70.459 Z M 29.2969 -67.1387 L 29.3945 -67.1387 L 44.873 -26.709 L 13.8672 -26.709 Z"/>
  </g>
  <line id="Baseline-M" style="fill:none;stroke:#27AAE1;opacity:1;stroke-width:0.5;" x1="263" x2="3036" y1="1126" y2="1126"/>
  <line id="Capline-M" style="fill:none;stroke:#27AAE1;opacity:1;stroke-width:0.5;" x1="263" x2="3036" y1="1055.54" y2="1055.54"/>
  <g id="H-reference" style="fill:#27AAE1;stroke:none;" transform="matrix(1 0 0 1 339 1556)">
   <path d="M 0.976562 0 L 3.66211 0 L 12.9883 -24.4629 L 45.7031 -24.4629 L 55.0781 0 L 57.7148 0 L 30.6152 -70.459 L 28.125 -70.459 Z M 29.2969 -67.1387 L 29.3945 -67.1387 L 44.873 -26.709 L 13.8672 -26.709 Z"/>
  </g>
  <line id="Baseline-L" style="fill:none;stroke:#27AAE1;opacity:1;stroke-width:0.5;" x1="263" x2="3036" y1="1556" y2="1556"/>
  <line id="Capline-L" style="fill:none;stroke:#27AAE1;opacity:1;stroke-width:0.5;" x1="263" x2="3036" y1="1485.54" y2="1485.54"/>
  <line id="left-margin" style="fill:none;stroke:#00AEEF;stroke-width:0.5;opacity:1.0;" x1="1391.3" x2="1391.3" y1="1030.79" y2="1150.12"/>
  <line id="right-margin" style="fill:none;stroke:#00AEEF;stroke-width:0.5;opacity:1.0;" x1="1508.39" x2="1508.39" y1="1030.79" y2="1150.12"/>
 </g>
 <g id="Symbols">
  <g id="Black-L" transform="matrix(1 0 0 1 2854.05 1556)">
   <path d="M 79.3457 32.8613 C 116.748 32.8613 147.412 2.19727 147.412 -35.2051 C 147.412 -72.6074 116.748 -103.271 79.2969 -103.271 C 41.8945 -103.271 11.2793 -72.6074 11.2793 -35.2051 C 11.2793 2.19727 41.9434 32.8613 79.3457 32.8613 Z M 55.4688 -4.24805 C 50.7812 -4.24805 48.0957 -7.17773 48.0957 -12.3047 L 48.0957 -56.1523 C 48.0957 -62.3047 52.2461 -66.3574 58.5938 -66.3574 C 64.3066 -66.3574 67.8711 -63.5742 69.6289 -57.7637 L 79.1016 -29.3457 L 79.541 -29.3457 L 89.0137 -57.7637 C 90.6738 -63.4766 94.2871 -66.3574 100.049 -66.3574 C 106.396 -66.3574 110.498 -62.3047 110.498 -56.1523 L 110.498 -12.3047 C 110.498 -7.17773 107.715 -4.24805 103.125 -4.24805 C 98.4375 -4.24805 95.7031 -7.17773 95.7031 -12.3047 L 95.7031 -39.8926 L 95.0195 -39.8926 L 85.9863 -13.8184 C 84.7656 -10.2539 82.666 -8.69141 79.1016 -8.69141 C 75.6348 -8.69141 73.4863 -10.4004 72.3633 -13.8672 L 63.623 -39.8926 L 62.8906 -39.8926 L 62.8906 -12.3047 C 62.8906 -7.17773 60.1074 -4.24805 55.4688 -4.24805 Z"/>
  </g>
  <g id="Heavy-L" transform="matrix(1 0 0 1 2558.39 1556)">
   <path d="M 78.2715 31.7871 C 115.088 31.7871 145.312 1.5625 145.312 -35.2051 C 145.312 -72.0215 115.039 -102.246 78.2715 -102.246 C 41.4551 -102.246 11.2793 -72.0215 11.2793 -35.2051 C 11.2793 1.5625 41.5039 31.7871 78.2715 31.7871 Z M 54.1504 -4.54102 C 50 -4.54102 47.5586 -7.22656 47.5586 -11.7676 L 47.5586 -57.1289 C 47.5586 -62.5488 51.2695 -66.1621 56.8359 -66.1621 C 61.8652 -66.1621 65.0391 -63.7695 66.6016 -58.6914 L 78.0762 -26.5137 L 78.4668 -26.5137 L 89.8926 -58.6914 C 91.4062 -63.7207 94.5801 -66.1621 99.6582 -66.1621 C 105.225 -66.1621 108.936 -62.5488 108.936 -57.1289 L 108.936 -11.7676 C 108.936 -7.17773 106.445 -4.54102 102.295 -4.54102 C 98.1445 -4.54102 95.7031 -7.22656 95.7031 -11.7676 L 95.7031 -42.2852 L 95.0195 -42.2852 L 84.375 -12.9883 C 83.252 -9.76562 81.2988 -8.34961 78.0762 -8.34961 C 74.9023 -8.34961 72.9492 -9.86328 71.875 -13.0371 L 61.4746 -42.2852 L 60.791 -42.2852 L 60.791 -11.7676 C 60.791 -7.17773 58.3008 -4.54102 54.1504 -4.54102 Z"/>
  </g>
  <g id="Bold-L" transform="matrix(1 0 0 1 2262.88 1556)">
   <path d="M 77.0996 30.5664 C 113.232 30.5664 142.92 0.878906 142.92 -35.2539 C 142.92 -71.3379 113.184 -101.074 77.0508 -101.074 C 40.9668 -101.074 11.2793 -71.3379 11.2793 -35.2539 C 11.2793 0.878906 41.0156 30.5664 77.0996 30.5664 Z M 52.6855 -4.88281 C 49.0723 -4.88281 46.9727 -7.22656 46.9727 -11.1816 L 46.9727 -58.252 C 46.9727 -62.8906 50.1465 -65.9668 54.8828 -65.9668 C 59.1309 -65.9668 61.8652 -63.9648 63.2812 -59.7656 L 76.9043 -23.291 L 77.2949 -23.291 L 90.8691 -59.7656 C 92.2363 -63.916 94.9219 -65.9668 99.2188 -65.9668 C 103.955 -65.9668 107.129 -62.8906 107.129 -58.252 L 107.129 -11.1816 C 107.129 -7.17773 104.98 -4.88281 101.367 -4.88281 C 97.8027 -4.88281 95.7031 -7.22656 95.7031 -11.1816 L 95.7031 -44.9707 L 95.0684 -44.9707 L 82.6172 -12.0117 C 81.543 -9.17969 79.7852 -7.91016 76.9043 -7.91016 C 74.1211 -7.91016 72.3633 -9.27734 71.3379 -12.0605 L 59.0332 -44.9707 L 58.4473 -44.9707 L 58.4473 -11.1816 C 58.4473 -7.17773 56.25 -4.88281 52.6855 -4.88281 Z"/>
  </g>
  <g id="Semibold-L" transform="matrix(1 0 0 1 1966.97 1556)">
   <path d="M 76.2695 29.7363 C 111.914 29.7363 141.309 0.390625 141.309 -35.2539 C 141.309 -70.8984 111.865 -100.244 76.2695 -100.244 C 40.625 -100.244 11.2793 -70.8984 11.2793 -35.2539 C 11.2793 0.390625 40.6738 29.7363 76.2695 29.7363 Z M 51.6602 -5.12695 C 48.4375 -5.12695 46.582 -7.22656 46.582 -10.7422 L 46.582 -58.9844 C 46.582 -63.0859 49.3652 -65.8203 53.5645 -65.8203 C 57.2754 -65.8203 59.668 -64.1113 60.9375 -60.5469 L 76.0742 -21.0938 L 76.4648 -21.0938 L 91.5039 -60.5469 C 92.7734 -64.1113 95.166 -65.8203 98.9258 -65.8203 C 103.076 -65.8203 105.908 -63.0859 105.908 -58.9844 L 105.908 -10.7422 C 105.908 -7.17773 103.955 -5.12695 100.732 -5.12695 C 97.5586 -5.12695 95.6543 -7.22656 95.6543 -10.7422 L 95.6543 -46.8262 L 95.0684 -46.8262 L 81.3965 -11.377 C 80.3711 -8.83789 78.7598 -7.66602 76.123 -7.66602 C 73.5352 -7.66602 71.9238 -8.88672 70.9473 -11.377 L 57.373 -46.8262 L 56.7871 -46.8262 L 56.7871 -10.7422 C 56.7871 -7.17773 54.8828 -5.12695 51.6602 -5.12695 Z"/>
  </g>
  <g id="Medium-L" transform="matrix(1 0 0 1 1670.87 1556)">
   <path d="M 75.6836 29.1504 C 110.938 29.1504 140.088 0 140.088 -35.2539 C 140.088 -70.5078 110.889 -99.6582 75.6348 -99.6582 C 40.3809 -99.6582 11.2793 -70.5078 11.2793 -35.2539 C 11.2793 0 40.3809 29.1504 75.6836 29.1504 Z M 50.8789 -5.27344 C 47.998 -5.27344 46.2402 -7.22656 46.2402 -10.4492 L 46.2402 -59.5703 C 46.2402 -63.2812 48.8281 -65.7227 52.5391 -65.7227 C 55.8594 -65.7227 58.0078 -64.209 59.1797 -61.084 L 75.4883 -19.4336 L 75.8301 -19.4336 L 92.041 -61.084 C 93.2129 -64.209 95.3613 -65.7227 98.6816 -65.7227 C 102.393 -65.7227 104.98 -63.2812 104.98 -59.5703 L 104.98 -10.4492 C 104.98 -7.17773 103.223 -5.27344 100.244 -5.27344 C 97.4121 -5.27344 95.6543 -7.22656 95.6543 -10.4492 L 95.6543 -48.1934 L 95.1172 -48.1934 L 80.4688 -10.8887 C 79.4922 -8.54492 77.9297 -7.42188 75.5371 -7.42188 C 73.1445 -7.42188 71.6309 -8.54492 70.7031 -10.8887 L 56.1035 -48.1934 L 55.5664 -48.1934 L 55.5664 -10.4492 C 55.5664 -7.17773 53.8086 -5.27344 50.8789 -5.27344 Z"/>
  </g>
  <g id="Regular-L" transform="matrix(1 0 0 1 1374.97 1556)">
   <path d="M 74.8535 28.3203 C 109.668 28.3203 138.477 -0.488281 138.477 -35.2539 C 138.477 -70.0684 109.619 -98.877 74.8047 -98.877 C 40.0391 -98.877 11.2793 -70.0684 11.2793 -35.2539 C 11.2793 -0.488281 40.0879 28.3203 74.8535 28.3203 Z M 49.8535 -5.51758 C 47.3633 -5.51758 45.8496 -7.22656 45.8496 -10.0098 L 45.8496 -60.3516 C 45.8496 -63.4766 48.0469 -65.625 51.2207 -65.625 C 54.0039 -65.625 55.8105 -64.3555 56.8848 -61.8164 L 74.6582 -17.2852 L 75 -17.2852 L 92.7246 -61.8164 C 93.7988 -64.3555 95.6055 -65.625 98.3887 -65.625 C 101.562 -65.625 103.76 -63.4766 103.76 -60.3516 L 103.76 -10.0098 C 103.76 -7.17773 102.197 -5.51758 99.6094 -5.51758 C 97.168 -5.51758 95.6543 -7.22656 95.6543 -10.0098 L 95.6543 -50.0488 L 95.1172 -50.0488 L 79.248 -10.2051 C 78.3691 -8.1543 76.9043 -7.12891 74.7559 -7.12891 C 72.6074 -7.12891 71.1914 -8.1543 70.3125 -10.2051 L 54.4922 -50.0488 L 53.9551 -50.0488 L 53.9551 -10.0098 C 53.9551 -7.17773 52.4414 -5.51758 49.8535 -5.51758 Z"/>
  </g>
  <g id="Light-L" transform="matrix(1 0 0 1 1079.18 1556)">
   <path d="M 73.9258 27.3926 C 108.301 27.3926 136.621 -0.927734 136.621 -35.2539 C 136.621 -69.6289 108.252 -97.9492 73.9258 -97.9492 C 39.5508 -97.9492 11.2793 -69.6289 11.2793 -35.2539 C 11.2793 -0.927734 39.5996 27.3926 73.9258 27.3926 Z M 49.3652 -6.10352 C 47.4609 -6.10352 46.2891 -7.42188 46.2891 -9.52148 L 46.2891 -60.4492 C 46.2891 -63.0371 48.0957 -64.7461 50.6348 -64.7461 C 52.8809 -64.7461 54.3945 -63.7207 55.3223 -61.4746 L 73.7305 -15.1367 L 74.0234 -15.1367 L 92.4316 -61.4746 C 93.4082 -63.7207 94.873 -64.7461 97.1191 -64.7461 C 99.707 -64.7461 101.514 -63.0371 101.514 -60.4492 L 101.514 -9.52148 C 101.514 -7.37305 100.293 -6.10352 98.291 -6.10352 C 96.4355 -6.10352 95.2148 -7.42188 95.2148 -9.52148 L 95.2148 -53.0762 L 94.7754 -53.0762 L 77.5879 -9.81445 C 76.8555 -8.10547 75.6836 -7.27539 73.8281 -7.27539 C 72.0215 -7.27539 70.8496 -8.10547 70.1172 -9.81445 L 52.9785 -53.0762 L 52.5391 -53.0762 L 52.5391 -9.52148 C 52.5391 -7.37305 51.3672 -6.10352 49.3652 -6.10352 Z"/>
  </g>
  <g id="Thin-L" transform="matrix(1 0 0 1 783.693 1556)">
   <path d="M 72.7051 26.1719 C 106.494 26.1719 134.18 -1.51367 134.18 -35.2539 C 134.18 -69.043 106.494 -96.7285 72.7051 -96.7285 C 38.9648 -96.7285 11.2793 -69.043 11.2793 -35.2539 C 11.2793 -1.51367 38.9648 26.1719 72.7051 26.1719 Z M 48.7305 -6.83594 C 47.6074 -6.83594 46.8262 -7.61719 46.8262 -8.83789 L 46.8262 -60.6445 C 46.8262 -62.4512 48.0957 -63.623 49.8535 -63.623 C 51.4648 -63.623 52.4414 -62.8906 53.2227 -61.0352 L 72.4609 -12.3047 L 72.8027 -12.3047 L 92.0898 -61.0352 C 92.8711 -62.8906 93.8965 -63.623 95.5078 -63.623 C 97.2168 -63.623 98.4863 -62.4512 98.4863 -60.6445 L 98.4863 -8.83789 C 98.4863 -7.61719 97.7539 -6.83594 96.582 -6.83594 C 95.4102 -6.83594 94.6289 -7.61719 94.6289 -8.83789 L 94.6289 -57.1289 L 94.2871 -57.1289 L 75.4395 -9.27734 C 74.9023 -8.00781 74.0234 -7.42188 72.6074 -7.42188 C 71.2891 -7.42188 70.4102 -8.00781 69.873 -9.27734 L 51.0254 -57.1289 L 50.6836 -57.1289 L 50.6836 -8.83789 C 50.6836 -7.61719 49.9023 -6.83594 48.7305 -6.83594 Z"/>
  </g>
  <g id="Ultralight-L" transform="matrix(1 0 0 1 487.616 1556)">
   <path d="M 72.1191 25.5371 C 105.566 25.5371 132.91 -1.80664 132.91 -35.2539 C 132.91 -68.75 105.566 -96.0938 72.1191 -96.0938 C 38.623 -96.0938 11.2793 -68.75 11.2793 -35.2539 C 11.2793 -1.80664 38.623 25.5371 72.1191 25.5371 Z M 48.4375 -7.22656 C 47.6562 -7.22656 47.1191 -7.76367 47.1191 -8.49609 L 47.1191 -60.7422 C 47.1191 -62.1582 48.0957 -63.0371 49.4141 -63.0371 C 50.7324 -63.0371 51.4648 -62.5 52.1484 -60.791 L 71.8262 -10.8398 L 72.168 -10.8398 L 91.9434 -60.791 C 92.5781 -62.5 93.3594 -63.0371 94.6777 -63.0371 C 95.9961 -63.0371 96.9727 -62.1582 96.9727 -60.7422 L 96.9727 -8.49609 C 96.9727 -7.76367 96.4355 -7.22656 95.6543 -7.22656 C 94.873 -7.22656 94.3359 -7.76367 94.3359 -8.49609 L 94.3359 -59.1797 L 94.043 -59.1797 L 74.3652 -8.98438 C 73.9258 -8.00781 73.1934 -7.4707 72.0215 -7.4707 C 70.8984 -7.4707 70.166 -8.00781 69.7266 -8.98438 L 50.0488 -59.1797 L 49.707 -59.1797 L 49.707 -8.49609 C 49.707 -7.76367 49.1699 -7.22656 48.4375 -7.22656 Z"/>
  </g>
  <g id="Black-M" transform="matrix(1 0 0 1 2870.97 1126)">
   <path d="M 62.4023 18.457 C 91.9922 18.457 116.113 -5.61523 116.113 -35.2051 C 116.113 -64.7949 91.9922 -88.8672 62.4023 -88.8672 C 32.8125 -88.8672 8.74023 -64.7949 8.74023 -35.2051 C 8.74023 -5.61523 32.8125 18.457 62.4023 18.457 Z M 44.4824 -11.1328 C 40.4785 -11.1328 38.2324 -13.5742 38.2324 -17.9199 L 38.2324 -50.1953 C 38.2324 -55.5664 41.7969 -59.1309 47.4121 -59.1309 C 52.4902 -59.1309 55.6641 -56.5918 57.1777 -51.2207 L 62.207 -33.3496 L 62.5977 -33.3496 L 67.627 -51.2207 C 69.0918 -56.543 72.2168 -59.1309 77.3926 -59.1309 C 83.0078 -59.1309 86.5723 -55.5664 86.5723 -50.1953 L 86.5723 -17.9199 C 86.5723 -13.5742 84.1797 -11.1328 80.3223 -11.1328 C 76.2695 -11.1328 73.9746 -13.5742 73.9746 -17.9199 L 73.9746 -37.2559 L 73.3887 -37.2559 L 67.9199 -19.5801 C 66.8945 -16.5039 65.2344 -15.2344 62.207 -15.2344 C 59.2773 -15.2344 57.5195 -16.6992 56.6406 -19.6289 L 51.416 -37.2559 L 50.8301 -37.2559 L 50.8301 -17.9199 C 50.8301 -13.5742 48.4375 -11.1328 44.4824 -11.1328 Z"/>
  </g>
  <g id="Heavy-M" transform="matrix(1 0 0 1 2575.19 1126)">
   <path d="M 61.5234 17.5293 C 90.5273 17.5293 114.258 -6.20117 114.258 -35.2051 C 114.258 -64.2578 90.5273 -87.9883 61.4746 -87.9883 C 32.4707 -87.9883 8.74023 -64.2578 8.74023 -35.2051 C 8.74023 -6.20117 32.4707 17.5293 61.5234 17.5293 Z M 43.1641 -11.3281 C 39.5996 -11.3281 37.5488 -13.5254 37.5488 -17.4805 L 37.5488 -51.2207 C 37.5488 -56.0059 40.7227 -59.1309 45.6543 -59.1309 C 50.1465 -59.1309 52.9297 -56.9824 54.2969 -52.3438 L 61.3281 -30.8105 L 61.6699 -30.8105 L 68.6523 -52.3438 C 69.9707 -56.9336 72.7539 -59.1309 77.2949 -59.1309 C 82.2266 -59.1309 85.4492 -56.0059 85.4492 -51.2207 L 85.4492 -17.4805 C 85.4492 -13.5254 83.3008 -11.3281 79.7363 -11.3281 C 76.1719 -11.3281 74.0723 -13.5254 74.0723 -17.4805 L 74.0723 -39.0625 L 73.5352 -39.0625 L 66.6016 -18.75 C 65.6738 -15.9668 64.0625 -14.7949 61.3281 -14.7949 C 58.6426 -14.7949 56.9824 -16.1133 56.1523 -18.7988 L 49.4141 -39.0625 L 48.877 -39.0625 L 48.877 -17.4805 C 48.877 -13.5254 46.7285 -11.3281 43.1641 -11.3281 Z"/>
  </g>
  <g id="Bold-M" transform="matrix(1 0 0 1 2279.5 1126)">
   <path d="M 60.498 16.5039 C 88.8672 16.5039 112.207 -6.83594 112.207 -35.2051 C 112.207 -63.623 88.8672 -86.9629 60.4492 -86.9629 C 32.0312 -86.9629 8.74023 -63.623 8.74023 -35.2051 C 8.74023 -6.83594 32.0801 16.5039 60.498 16.5039 Z M 41.6992 -11.5234 C 38.5742 -11.5234 36.7676 -13.5254 36.7676 -16.9434 L 36.7676 -52.3926 C 36.7676 -56.4941 39.502 -59.1797 43.7012 -59.1797 C 47.4609 -59.1797 49.8535 -57.373 51.0742 -53.6133 L 60.3027 -27.9297 L 60.5957 -27.9297 L 69.8242 -53.6133 C 70.9961 -57.373 73.3887 -59.1797 77.1484 -59.1797 C 81.3477 -59.1797 84.1309 -56.4941 84.1309 -52.3926 L 84.1309 -16.9434 C 84.1309 -13.4766 82.2266 -11.5234 79.1504 -11.5234 C 76.0254 -11.5234 74.1699 -13.5254 74.1699 -16.9434 L 74.1699 -41.1133 L 73.6328 -41.1133 L 65.1367 -17.8223 C 64.2578 -15.3809 62.7441 -14.3066 60.3027 -14.3066 C 57.9102 -14.3066 56.4453 -15.4785 55.6152 -17.8711 L 47.2168 -41.1133 L 46.7285 -41.1133 L 46.7285 -16.9434 C 46.7285 -13.4766 44.8242 -11.5234 41.6992 -11.5234 Z"/>
  </g>
  <g id="Semibold-M" transform="matrix(1 0 0 1 1983.5 1126)">
   <path d="M 59.7656 15.8203 C 87.7441 15.8203 110.791 -7.27539 110.791 -35.2539 C 110.791 -63.2324 87.6953 -86.2793 59.7656 -86.2793 C 31.7871 -86.2793 8.74023 -63.2324 8.74023 -35.2539 C 8.74023 -7.27539 31.7871 15.8203 59.7656 15.8203 Z M 40.6738 -11.6211 C 37.8906 -11.6211 36.2305 -13.4766 36.2305 -16.6016 L 36.2305 -53.2227 C 36.2305 -56.7871 38.6719 -59.2285 42.3828 -59.2285 C 45.6543 -59.2285 47.7539 -57.666 48.8281 -54.4922 L 59.6191 -25.9766 L 59.9121 -25.9766 L 70.6055 -54.4922 C 71.6797 -57.666 73.7793 -59.2285 77.0996 -59.2285 C 80.7617 -59.2285 83.252 -56.7871 83.252 -53.2227 L 83.252 -16.6016 C 83.252 -13.4766 81.543 -11.6211 78.7109 -11.6211 C 75.9277 -11.6211 74.2188 -13.4766 74.2188 -16.6016 L 74.2188 -42.5293 L 73.7305 -42.5293 L 64.1113 -17.1875 C 63.2812 -14.9902 61.8652 -13.9648 59.6191 -13.9648 C 57.4219 -13.9648 56.0547 -15.0391 55.2246 -17.1875 L 45.7031 -42.5293 L 45.2148 -42.5293 L 45.2148 -16.6016 C 45.2148 -13.4766 43.5059 -11.6211 40.6738 -11.6211 Z"/>
  </g>
  <g id="Medium-M" transform="matrix(1 0 0 1 1687.3 1126)">
   <path d="M 59.2285 15.2344 C 86.9141 15.2344 109.766 -7.61719 109.766 -35.2539 C 109.766 -62.8906 86.8652 -85.7422 59.1797 -85.7422 C 31.543 -85.7422 8.74023 -62.8906 8.74023 -35.2539 C 8.74023 -7.61719 31.5918 15.2344 59.2285 15.2344 Z M 39.9414 -11.7188 C 37.3535 -11.7188 35.791 -13.4766 35.791 -16.3574 L 35.791 -53.8086 C 35.791 -57.0312 38.0371 -59.2285 41.3574 -59.2285 C 44.2871 -59.2285 46.1426 -57.9102 47.168 -55.1758 L 59.082 -24.4629 L 59.375 -24.4629 L 71.1914 -55.1758 C 72.2168 -57.8613 74.0723 -59.2285 77.002 -59.2285 C 80.3223 -59.2285 82.5684 -57.0312 82.5684 -53.8086 L 82.5684 -16.3574 C 82.5684 -13.4277 81.0059 -11.7188 78.3691 -11.7188 C 75.8301 -11.7188 74.2676 -13.4766 74.2676 -16.3574 L 74.2676 -43.6035 L 73.8281 -43.6035 L 63.3301 -16.6992 C 62.5 -14.6973 61.1816 -13.7207 59.082 -13.7207 C 57.0312 -13.7207 55.7617 -14.6973 54.9805 -16.6992 L 44.5312 -43.6035 L 44.0918 -43.6035 L 44.0918 -16.3574 C 44.0918 -13.4277 42.5293 -11.7188 39.9414 -11.7188 Z"/>
  </g>
  <g id="Regular-M" transform="matrix(1 0 0 1 1391.3 1126)">
   <path d="M 58.5449 14.5508 C 85.791 14.5508 108.35 -8.05664 108.35 -35.2539 C 108.35 -62.5 85.7422 -85.0586 58.4961 -85.0586 C 31.2988 -85.0586 8.74023 -62.5 8.74023 -35.2539 C 8.74023 -8.05664 31.3477 14.5508 58.5449 14.5508 Z M 38.916 -11.8652 C 36.6699 -11.8652 35.2539 -13.4277 35.2539 -16.0156 L 35.2539 -54.5898 C 35.2539 -57.373 37.207 -59.2773 40.0391 -59.2773 C 42.4805 -59.2773 44.0918 -58.1543 44.9707 -56.0059 L 58.3984 -22.5586 L 58.6426 -22.5586 L 71.9727 -56.0059 C 72.9004 -58.1543 74.5117 -59.2773 76.9531 -59.2773 C 79.7363 -59.2773 81.6895 -57.373 81.6895 -54.5898 L 81.6895 -16.0156 C 81.6895 -13.3789 80.3223 -11.8652 77.9297 -11.8652 C 75.7324 -11.8652 74.3652 -13.4277 74.3652 -16.0156 L 74.3652 -44.9707 L 73.9258 -44.9707 L 62.3047 -16.0645 C 61.5723 -14.2578 60.3027 -13.4277 58.4473 -13.4277 C 56.543 -13.4277 55.3711 -14.2578 54.5898 -16.0645 L 43.0664 -44.9707 L 42.5781 -44.9707 L 42.5781 -16.0156 C 42.5781 -13.3789 41.2109 -11.8652 38.916 -11.8652 Z"/>
  </g>
  <g id="Light-M" transform="matrix(1 0 0 1 1095.42 1126)">
   <path d="M 57.7148 13.7207 C 84.5215 13.7207 106.689 -8.44727 106.689 -35.2539 C 106.689 -62.1094 84.5215 -84.2285 57.666 -84.2285 C 30.8594 -84.2285 8.74023 -62.1094 8.74023 -35.2539 C 8.74023 -8.44727 30.9082 13.7207 57.7148 13.7207 Z M 38.4766 -12.4023 C 36.7188 -12.4023 35.6445 -13.5742 35.6445 -15.5273 L 35.6445 -54.7363 C 35.6445 -56.9824 37.2559 -58.4961 39.502 -58.4961 C 41.4551 -58.4961 42.7734 -57.6172 43.5547 -55.7129 L 57.5684 -20.6055 L 57.8125 -20.6055 L 71.7285 -55.7129 C 72.5586 -57.6172 73.8281 -58.4961 75.8301 -58.4961 C 78.0762 -58.4961 79.6387 -56.9824 79.6387 -54.7363 L 79.6387 -15.5273 C 79.6387 -13.5742 78.5645 -12.4023 76.7578 -12.4023 C 75.0488 -12.4023 73.9746 -13.5742 73.9746 -15.5273 L 73.9746 -47.7051 L 73.584 -47.7051 L 60.8398 -15.7227 C 60.2539 -14.209 59.1797 -13.5254 57.6172 -13.5254 C 56.0547 -13.5254 55.0293 -14.209 54.4434 -15.7227 L 41.6992 -47.7051 L 41.3574 -47.7051 L 41.3574 -15.5273 C 41.3574 -13.5742 40.2832 -12.4023 38.4766 -12.4023 Z"/>
  </g>
  <g id="Thin-M" transform="matrix(1 0 0 1 799.806 1126)">
   <path d="M 56.6406 12.5977 C 82.9102 12.5977 104.492 -8.98438 104.492 -35.2539 C 104.492 -61.5723 82.9102 -83.1543 56.5918 -83.1543 C 30.3223 -83.1543 8.74023 -61.5723 8.74023 -35.2539 C 8.74023 -8.98438 30.3223 12.5977 56.6406 12.5977 Z M 37.8906 -13.0859 C 36.8652 -13.0859 36.1816 -13.7695 36.1816 -14.9414 L 36.1816 -54.8828 C 36.1816 -56.4453 37.2559 -57.4707 38.7695 -57.4707 C 40.1855 -57.4707 41.0645 -56.8848 41.6992 -55.3223 L 56.4453 -18.0664 L 56.6895 -18.0664 L 71.4355 -55.3223 C 72.0703 -56.8848 72.9492 -57.4707 74.3652 -57.4707 C 75.8789 -57.4707 77.002 -56.4453 77.002 -54.8828 L 77.002 -14.9414 C 77.002 -13.7695 76.3184 -13.0859 75.1953 -13.0859 C 74.1699 -13.0859 73.4863 -13.7695 73.4863 -14.9414 L 73.4863 -51.3184 L 73.1934 -51.3184 L 58.9355 -15.2344 C 58.4961 -14.1602 57.7148 -13.623 56.543 -13.623 C 55.4199 -13.623 54.6387 -14.1602 54.1992 -15.2344 L 39.9414 -51.3184 L 39.6973 -51.3184 L 39.6973 -14.9414 C 39.6973 -13.7695 39.0137 -13.0859 37.8906 -13.0859 Z"/>
  </g>
  <g id="Ultralight-M" transform="matrix(1 0 0 1 503.656 1126)">
   <path d="M 56.0547 12.0605 C 82.0801 12.0605 103.369 -9.22852 103.369 -35.2539 C 103.369 -61.2793 82.0801 -82.5684 56.0547 -82.5684 C 30.0293 -82.5684 8.74023 -61.2793 8.74023 -35.2539 C 8.74023 -9.22852 30.0293 12.0605 56.0547 12.0605 Z M 37.5977 -13.4277 C 36.9141 -13.4277 36.4258 -13.916 36.4258 -14.5996 L 36.4258 -54.9805 C 36.4258 -56.2012 37.2559 -56.9824 38.4277 -56.9824 C 39.502 -56.9824 40.1855 -56.4941 40.7227 -55.127 L 55.8594 -16.748 L 56.1035 -16.748 L 71.2891 -55.127 C 71.8262 -56.4941 72.5098 -56.9824 73.584 -56.9824 C 74.7559 -56.9824 75.6348 -56.2012 75.6348 -54.9805 L 75.6348 -14.5996 C 75.6348 -13.916 75.1465 -13.4277 74.4141 -13.4277 C 73.6816 -13.4277 73.1934 -13.916 73.1934 -14.5996 L 73.1934 -53.1738 L 72.9492 -53.1738 L 57.959 -14.9902 C 57.5684 -14.1113 56.9824 -13.7207 56.0059 -13.7207 C 55.0781 -13.7207 54.4434 -14.1113 54.1016 -14.9902 L 39.0625 -53.1738 L 38.8184 -53.1738 L 38.8184 -14.5996 C 38.8184 -13.916 38.3301 -13.4277 37.5977 -13.4277 Z"/>
  </g>
  <g id="Black-S" transform="matrix(1 0 0 1 2884.57 696)">
   <path d="M 48.8281 6.78711 C 71.9727 6.78711 90.8203 -12.0605 90.8203 -35.2051 C 90.8203 -58.3496 71.9727 -77.1973 48.8281 -77.1973 C 25.6836 -77.1973 6.83594 -58.3496 6.83594 -35.2051 C 6.83594 -12.0605 25.6836 6.78711 48.8281 6.78711 Z M 34.7656 -16.3574 C 31.6406 -16.3574 29.8828 -18.2617 29.8828 -21.6309 L 29.8828 -47.0215 C 29.8828 -51.2207 32.666 -53.9551 37.0117 -53.9551 C 40.9668 -53.9551 43.4082 -52.002 44.5801 -47.8516 L 48.6816 -33.5938 L 48.9746 -33.5938 L 53.0762 -47.8516 C 54.1992 -51.9531 56.6406 -53.9551 60.6445 -53.9551 C 64.9902 -53.9551 67.7734 -51.2207 67.7734 -47.0215 L 67.7734 -21.6309 C 67.7734 -18.2617 65.918 -16.3574 62.8906 -16.3574 C 59.7656 -16.3574 57.959 -18.2617 57.959 -21.6309 L 57.959 -36.9141 L 57.5195 -36.9141 L 53.125 -22.9004 C 52.3438 -20.5078 51.0254 -19.5312 48.6816 -19.5312 C 46.3867 -19.5312 45.0195 -20.6543 44.3359 -22.9492 L 40.1367 -36.9141 L 39.6973 -36.9141 L 39.6973 -21.6309 C 39.6973 -18.2617 37.8418 -16.3574 34.7656 -16.3574 Z"/>
  </g>
  <g id="Heavy-S" transform="matrix(1 0 0 1 2588.47 696)">
   <path d="M 48.2422 6.15234 C 70.9961 6.15234 89.5996 -12.4512 89.5996 -35.2051 C 89.5996 -57.959 70.9961 -76.6113 48.1934 -76.6113 C 25.4395 -76.6113 6.83594 -57.959 6.83594 -35.2051 C 6.83594 -12.4512 25.4395 6.15234 48.2422 6.15234 Z M 33.7891 -16.4551 C 30.957 -16.4551 29.2969 -18.2129 29.2969 -21.3379 L 29.2969 -47.8027 C 29.2969 -51.5625 31.8359 -54.0527 35.7422 -54.0527 C 39.2578 -54.0527 41.4551 -52.3438 42.5293 -48.7305 L 48.0957 -31.8359 L 48.3398 -31.8359 L 53.9062 -48.7305 C 54.9316 -52.2949 57.1289 -54.0527 60.6934 -54.0527 C 64.5996 -54.0527 67.0898 -51.5625 67.0898 -47.8027 L 67.0898 -21.3379 C 67.0898 -18.2129 65.3809 -16.4551 62.5977 -16.4551 C 59.7168 -16.4551 58.0566 -18.2129 58.0566 -21.3379 L 58.0566 -37.9883 L 57.666 -37.9883 L 52.2949 -22.3145 C 51.5137 -20.1172 50.2441 -19.1895 48.0957 -19.1895 C 45.9473 -19.1895 44.6777 -20.2148 43.9941 -22.3633 L 38.7695 -37.9883 L 38.3301 -37.9883 L 38.3301 -21.3379 C 38.3301 -18.2129 36.6211 -16.4551 33.7891 -16.4551 Z"/>
  </g>
  <g id="Bold-S" transform="matrix(1 0 0 1 2292.44 696)">
   <path d="M 47.5586 5.46875 C 69.873 5.46875 88.2324 -12.8906 88.2324 -35.2539 C 88.2324 -57.5684 69.873 -75.9277 47.5098 -75.9277 C 25.1953 -75.9277 6.83594 -57.5684 6.83594 -35.2539 C 6.83594 -12.8906 25.1953 5.46875 47.5586 5.46875 Z M 32.7148 -16.5039 C 30.1758 -16.5039 28.6621 -18.1641 28.6621 -20.9961 L 28.6621 -48.6816 C 28.6621 -52.002 30.9082 -54.1992 34.3262 -54.1992 C 37.3535 -54.1992 39.2578 -52.7344 40.2344 -49.7559 L 47.4121 -29.8828 L 47.6562 -29.8828 L 54.7852 -49.7559 C 55.7129 -52.7344 57.666 -54.1992 60.7422 -54.1992 C 64.1113 -54.1992 66.3574 -52.002 66.3574 -48.6816 L 66.3574 -20.9961 C 66.3574 -18.1641 64.8438 -16.5039 62.2559 -16.5039 C 59.7168 -16.5039 58.2031 -18.1641 58.2031 -20.9961 L 58.2031 -39.209 L 57.7637 -39.209 L 51.3184 -21.6309 C 50.5859 -19.6777 49.4141 -18.7988 47.4121 -18.7988 C 45.459 -18.7988 44.2871 -19.7266 43.6035 -21.6797 L 37.2559 -39.209 L 36.8164 -39.209 L 36.8164 -20.9961 C 36.8164 -18.1641 35.3027 -16.5039 32.7148 -16.5039 Z"/>
  </g>
  <g id="Semibold-S" transform="matrix(1 0 0 1 1996.2 696)">
   <path d="M 47.0703 4.98047 C 69.0918 4.98047 87.3047 -13.1836 87.3047 -35.2539 C 87.3047 -57.2754 69.0918 -75.4883 47.0215 -75.4883 C 25 -75.4883 6.83594 -57.2754 6.83594 -35.2539 C 6.83594 -13.1836 25.0488 4.98047 47.0703 4.98047 Z M 31.9824 -16.6016 C 29.6387 -16.6016 28.2227 -18.1641 28.2227 -20.8008 L 28.2227 -49.3164 C 28.2227 -52.2949 30.2734 -54.2969 33.3008 -54.2969 C 36.0352 -54.2969 37.793 -53.0273 38.6719 -50.4395 L 46.9727 -28.5645 L 47.168 -28.5645 L 55.4199 -50.4395 C 56.2988 -52.9785 58.0566 -54.2969 60.7422 -54.2969 C 63.8184 -54.2969 65.8691 -52.2949 65.8691 -49.3164 L 65.8691 -20.8008 C 65.8691 -18.1152 64.4531 -16.6016 62.0117 -16.6016 C 59.668 -16.6016 58.3008 -18.1641 58.3008 -20.8008 L 58.3008 -40.0879 L 57.8613 -40.0879 L 50.6836 -21.1914 C 49.9512 -19.3848 48.8281 -18.5547 46.9727 -18.5547 C 45.1172 -18.5547 43.9941 -19.4336 43.3105 -21.1914 L 36.1816 -40.0879 L 35.791 -40.0879 L 35.791 -20.8008 C 35.791 -18.1152 34.375 -16.6016 31.9824 -16.6016 Z"/>
  </g>
  <g id="Medium-S" transform="matrix(1 0 0 1 1699.83 696)">
   <path d="M 46.7285 4.63867 C 68.5547 4.63867 86.6211 -13.4277 86.6211 -35.2539 C 86.6211 -57.0801 68.5059 -75.1465 46.6797 -75.1465 C 24.8535 -75.1465 6.83594 -57.0801 6.83594 -35.2539 C 6.83594 -13.4277 24.9023 4.63867 46.7285 4.63867 Z M 31.4453 -16.6016 C 29.1992 -16.6016 27.8809 -18.1152 27.8809 -20.6055 L 27.8809 -49.7559 C 27.8809 -52.4902 29.7852 -54.3457 32.5684 -54.3457 C 35.0586 -54.3457 36.6211 -53.2227 37.4512 -50.9766 L 46.6309 -27.5391 L 46.8262 -27.5391 L 55.9082 -50.9766 C 56.7383 -53.2227 58.3008 -54.3457 60.791 -54.3457 C 63.5742 -54.3457 65.4785 -52.4902 65.4785 -49.7559 L 65.4785 -20.6055 C 65.4785 -18.0664 64.1113 -16.6016 61.8652 -16.6016 C 59.668 -16.6016 58.3496 -18.1152 58.3496 -20.6055 L 58.3496 -40.7227 L 57.959 -40.7227 L 50.1953 -20.8496 C 49.5117 -19.1406 48.3398 -18.3594 46.6309 -18.3594 C 44.873 -18.3594 43.7988 -19.1895 43.1152 -20.8496 L 35.4004 -40.7227 L 35.0098 -40.7227 L 35.0098 -20.6055 C 35.0098 -18.0664 33.6914 -16.6016 31.4453 -16.6016 Z"/>
  </g>
  <g id="Regular-S" transform="matrix(1 0 0 1 1403.58 696)">
   <path d="M 46.2402 4.15039 C 67.7734 4.15039 85.6934 -13.7207 85.6934 -35.2539 C 85.6934 -56.7871 67.7246 -74.6582 46.1914 -74.6582 C 24.707 -74.6582 6.83594 -56.7871 6.83594 -35.2539 C 6.83594 -13.7207 24.7559 4.15039 46.2402 4.15039 Z M 30.7129 -16.6992 C 28.6621 -16.6992 27.4414 -18.0664 27.4414 -20.4102 L 27.4414 -50.3418 C 27.4414 -52.7832 29.1504 -54.4434 31.5918 -54.4434 C 33.7402 -54.4434 35.1562 -53.4668 35.8887 -51.6602 L 46.1426 -26.2207 L 46.3379 -26.2207 L 56.4941 -51.6602 C 57.2754 -53.4668 58.6914 -54.4434 60.791 -54.4434 C 63.2812 -54.4434 64.9902 -52.7832 64.9902 -50.3418 L 64.9902 -20.4102 C 64.9902 -18.0664 63.7207 -16.6992 61.6211 -16.6992 C 59.668 -16.6992 58.4473 -18.0664 58.4473 -20.4102 L 58.4473 -41.5527 L 58.0566 -41.5527 L 49.5117 -20.4102 C 48.877 -18.8477 47.7539 -18.0664 46.1426 -18.0664 C 44.5312 -18.0664 43.5059 -18.8477 42.8223 -20.4102 L 34.375 -41.5527 L 33.9844 -41.5527 L 33.9844 -20.4102 C 33.9844 -18.0664 32.7637 -16.6992 30.7129 -16.6992 Z"/>
  </g>
  <g id="Light-S" transform="matrix(1 0 0 1 1107.6 696)">
   <path d="M 45.5078 3.41797 C 66.6992 3.41797 84.2285 -14.0625 84.2285 -35.2539 C 84.2285 -56.4453 66.6504 -73.9258 45.5078 -73.9258 C 24.3164 -73.9258 6.83594 -56.4453 6.83594 -35.2539 C 6.83594 -14.0625 24.3652 3.41797 45.5078 3.41797 Z M 30.3223 -17.1387 C 28.7598 -17.1387 27.7832 -18.2129 27.7832 -19.9707 L 27.7832 -50.4395 C 27.7832 -52.4414 29.1504 -53.7598 31.1523 -53.7598 C 32.8613 -53.7598 33.9844 -52.9785 34.668 -51.416 L 45.4102 -24.5117 L 45.6055 -24.5117 L 56.2988 -51.416 C 56.9824 -52.9785 58.1055 -53.7598 59.8145 -53.7598 C 61.8164 -53.7598 63.1836 -52.4414 63.1836 -50.4395 L 63.1836 -19.9707 C 63.1836 -18.2129 62.207 -17.1387 60.5957 -17.1387 C 59.0332 -17.1387 58.1055 -18.2129 58.1055 -19.9707 L 58.1055 -43.9453 L 57.7637 -43.9453 L 48.2422 -20.0684 C 47.7051 -18.7988 46.7773 -18.1641 45.459 -18.1641 C 44.0918 -18.1641 43.2617 -18.7988 42.6758 -20.0684 L 33.2031 -43.9453 L 32.8613 -43.9453 L 32.8613 -19.9707 C 32.8613 -18.2129 31.8848 -17.1387 30.3223 -17.1387 Z"/>
  </g>
  <g id="Thin-S" transform="matrix(1 0 0 1 811.867 696)">
   <path d="M 44.5801 2.49023 C 65.2832 2.49023 82.2754 -14.5508 82.2754 -35.2539 C 82.2754 -55.957 65.2344 -72.998 44.5312 -72.998 C 23.8281 -72.998 6.83594 -55.957 6.83594 -35.2539 C 6.83594 -14.5508 23.877 2.49023 44.5801 2.49023 Z M 29.7852 -17.7246 C 28.8574 -17.7246 28.2227 -18.4082 28.2227 -19.4336 L 28.2227 -50.5859 C 28.2227 -51.9531 29.1992 -52.8809 30.5176 -52.8809 C 31.7383 -52.8809 32.4707 -52.3438 33.0078 -51.0742 L 44.4336 -22.2656 L 44.6289 -22.2656 L 56.0059 -51.0742 C 56.543 -52.3438 57.3242 -52.8809 58.5449 -52.8809 C 59.8633 -52.8809 60.791 -51.9531 60.791 -50.5859 L 60.791 -19.4336 C 60.791 -18.3594 60.2051 -17.7246 59.2285 -17.7246 C 58.252 -17.7246 57.666 -18.4082 57.666 -19.4336 L 57.666 -47.168 L 57.4219 -47.168 L 46.5332 -19.6777 C 46.1426 -18.75 45.5078 -18.2617 44.4824 -18.2617 C 43.5059 -18.2617 42.8711 -18.75 42.4805 -19.6777 L 31.6406 -47.168 L 31.3965 -47.168 L 31.3965 -19.4336 C 31.3965 -18.3594 30.7617 -17.7246 29.7852 -17.7246 Z"/>
  </g>
  <g id="Ultralight-S" transform="matrix(1 0 0 1 515.644 696)">
   <path d="M 44.043 1.95312 C 64.502 1.95312 81.2988 -14.7949 81.2988 -35.2539 C 81.2988 -55.7129 64.502 -72.4609 44.043 -72.4609 C 23.584 -72.4609 6.83594 -55.7129 6.83594 -35.2539 C 6.83594 -14.7949 23.584 1.95312 44.043 1.95312 Z M 29.541 -18.0664 C 28.9062 -18.0664 28.4668 -18.5059 28.4668 -19.1406 L 28.4668 -50.6836 C 28.4668 -51.709 29.1992 -52.3926 30.1758 -52.3926 C 31.1523 -52.3926 31.7383 -52.002 32.1777 -50.8789 L 43.8965 -21.0938 L 44.0918 -21.0938 L 55.9082 -50.8789 C 56.3477 -52.002 56.9336 -52.3926 57.8613 -52.3926 C 58.8867 -52.3926 59.6191 -51.709 59.6191 -50.6836 L 59.6191 -19.1406 C 59.6191 -18.5059 59.1797 -18.0664 58.4961 -18.0664 C 57.8613 -18.0664 57.4219 -18.5059 57.4219 -19.1406 L 57.4219 -48.7793 L 57.2266 -48.7793 L 45.6543 -19.4336 C 45.3613 -18.7012 44.8242 -18.3594 43.9941 -18.3594 C 43.2129 -18.3594 42.7246 -18.7012 42.3828 -19.4336 L 30.8594 -48.7793 L 30.6641 -48.7793 L 30.6641 -19.1406 C 30.6641 -18.5059 30.2246 -18.0664 29.541 -18.0664 Z"/>
  </g>
 </g>
</svg>
