<?xml version="1.0" encoding="UTF-8"?>
<!--Generator: Apple Native CoreSVG 148-->
<!DOCTYPE svg
PUBLIC "-//W3C//DTD SVG 1.1//EN"
       "http://www.w3.org/Graphics/SVG/1.1/DTD/svg11.dtd">
<svg version="1.1" xmlns="http://www.w3.org/2000/svg" xmlns:xlink="http://www.w3.org/1999/xlink" width="3300" height="2200">
 <!--glyph: "uni1007CB.medium", point size: 100.000000, font version: "Version 16.0d11e1", template writer version: "8"-->
 <g id="Notes">
  <rect height="2200" id="artboard" style="fill:white;opacity:1" width="3300" x="0" y="0"/>
  <line id="" style="fill:none;stroke:black;opacity:1;stroke-width:0.5;" x1="263" x2="3036" y1="292" y2="292"/>
  <text style="stroke:none;fill:black;font-family:-apple-system,&quot;SF Pro Display&quot;,&quot;SF Pro Text&quot;,Helvetica,sans-serif;font-weight:bold;" transform="matrix(1 0 0 1 263 322)">Weight/Scale Variations</text>
  <text style="stroke:none;fill:black;font-family:-apple-system,&quot;SF Pro Display&quot;,&quot;SF Pro Text&quot;,Helvetica,sans-serif;text-anchor:middle;" transform="matrix(1 0 0 1 559.711 322)">Ultralight</text>
  <text style="stroke:none;fill:black;font-family:-apple-system,&quot;SF Pro Display&quot;,&quot;SF Pro Text&quot;,Helvetica,sans-serif;text-anchor:middle;" transform="matrix(1 0 0 1 856.422 322)">Thin</text>
  <text style="stroke:none;fill:black;font-family:-apple-system,&quot;SF Pro Display&quot;,&quot;SF Pro Text&quot;,Helvetica,sans-serif;text-anchor:middle;" transform="matrix(1 0 0 1 1153.13 322)">Light</text>
  <text style="stroke:none;fill:black;font-family:-apple-system,&quot;SF Pro Display&quot;,&quot;SF Pro Text&quot;,Helvetica,sans-serif;text-anchor:middle;" transform="matrix(1 0 0 1 1449.84 322)">Regular</text>
  <text style="stroke:none;fill:black;font-family:-apple-system,&quot;SF Pro Display&quot;,&quot;SF Pro Text&quot;,Helvetica,sans-serif;text-anchor:middle;" transform="matrix(1 0 0 1 1746.56 322)">Medium</text>
  <text style="stroke:none;fill:black;font-family:-apple-system,&quot;SF Pro Display&quot;,&quot;SF Pro Text&quot;,Helvetica,sans-serif;text-anchor:middle;" transform="matrix(1 0 0 1 2043.27 322)">Semibold</text>
  <text style="stroke:none;fill:black;font-family:-apple-system,&quot;SF Pro Display&quot;,&quot;SF Pro Text&quot;,Helvetica,sans-serif;text-anchor:middle;" transform="matrix(1 0 0 1 2339.98 322)">Bold</text>
  <text style="stroke:none;fill:black;font-family:-apple-system,&quot;SF Pro Display&quot;,&quot;SF Pro Text&quot;,Helvetica,sans-serif;text-anchor:middle;" transform="matrix(1 0 0 1 2636.69 322)">Heavy</text>
  <text style="stroke:none;fill:black;font-family:-apple-system,&quot;SF Pro Display&quot;,&quot;SF Pro Text&quot;,Helvetica,sans-serif;text-anchor:middle;" transform="matrix(1 0 0 1 2933.4 322)">Black</text>
  <line id="" style="fill:none;stroke:black;opacity:1;stroke-width:0.5;" x1="263" x2="3036" y1="1903" y2="1903"/>
  <g id="" transform="matrix(1 0 0 1 263 1933)">
   <path d="M 9.24805 0.830078 C 13.5547 0.830078 17.1387 -2.74414 17.1387 -7.05078 C 17.1387 -11.3574 13.5449 -14.9316 9.23828 -14.9316 C 4.94141 -14.9316 1.36719 -11.3574 1.36719 -7.05078 C 1.36719 -2.74414 4.95117 0.830078 9.24805 0.830078 Z M 9.24805 -0.654297 C 5.70312 -0.654297 2.87109 -3.49609 2.87109 -7.05078 C 2.87109 -10.6055 5.69336 -13.4473 9.23828 -13.4473 C 12.793 -13.4473 15.6348 -10.6055 15.6445 -7.05078 C 15.6543 -3.49609 12.8027 -0.654297 9.24805 -0.654297 Z M 9.22852 -3.62305 C 9.69727 -3.62305 9.9707 -3.93555 9.9707 -4.45312 L 9.9707 -6.31836 L 12.002 -6.31836 C 12.5 -6.31836 12.832 -6.57227 12.832 -7.04102 C 12.832 -7.51953 12.5195 -7.7832 12.002 -7.7832 L 9.9707 -7.7832 L 9.9707 -9.81445 C 9.9707 -10.332 9.69727 -10.6543 9.22852 -10.6543 C 8.75977 -10.6543 8.50586 -10.3125 8.50586 -9.81445 L 8.50586 -7.7832 L 6.49414 -7.7832 C 5.97656 -7.7832 5.64453 -7.51953 5.64453 -7.04102 C 5.64453 -6.57227 5.99609 -6.31836 6.49414 -6.31836 L 8.50586 -6.31836 L 8.50586 -4.45312 C 8.50586 -3.95508 8.75977 -3.62305 9.22852 -3.62305 Z"/>
  </g>
  <g id="" transform="matrix(1 0 0 1 281.506 1933)">
   <path d="M 11.709 2.91016 C 17.1582 2.91016 21.6699 -1.61133 21.6699 -7.05078 C 21.6699 -12.5 17.1484 -17.0117 11.6992 -17.0117 C 6.25977 -17.0117 1.74805 -12.5 1.74805 -7.05078 C 1.74805 -1.61133 6.26953 2.91016 11.709 2.91016 Z M 11.709 1.25 C 7.09961 1.25 3.41797 -2.44141 3.41797 -7.05078 C 3.41797 -11.6602 7.08984 -15.3516 11.6992 -15.3516 C 16.3086 -15.3516 20 -11.6602 20.0098 -7.05078 C 20.0195 -2.44141 16.3184 1.25 11.709 1.25 Z M 11.6797 -2.66602 C 12.207 -2.66602 12.5098 -3.01758 12.5098 -3.59375 L 12.5098 -6.23047 L 15.3223 -6.23047 C 15.8691 -6.23047 16.25 -6.51367 16.25 -7.03125 C 16.25 -7.55859 15.8887 -7.86133 15.3223 -7.86133 L 12.5098 -7.86133 L 12.5098 -10.6836 C 12.5098 -11.25 12.207 -11.6113 11.6797 -11.6113 C 11.1621 -11.6113 10.8789 -11.2305 10.8789 -10.6836 L 10.8789 -7.86133 L 8.07617 -7.86133 C 7.50977 -7.86133 7.13867 -7.55859 7.13867 -7.03125 C 7.13867 -6.51367 7.5293 -6.23047 8.07617 -6.23047 L 10.8789 -6.23047 L 10.8789 -3.59375 C 10.8789 -3.03711 11.1621 -2.66602 11.6797 -2.66602 Z"/>
  </g>
  <g id="" transform="matrix(1 0 0 1 304.924 1933)">
   <path d="M 14.9707 5.66406 C 21.9336 5.66406 27.6953 -0.0976562 27.6953 -7.05078 C 27.6953 -14.0137 21.9238 -19.7754 14.9609 -19.7754 C 8.00781 -19.7754 2.25586 -14.0137 2.25586 -7.05078 C 2.25586 -0.0976562 8.01758 5.66406 14.9707 5.66406 Z M 14.9707 3.84766 C 8.93555 3.84766 4.08203 -1.01562 4.08203 -7.05078 C 4.08203 -13.0957 8.92578 -17.9492 14.9609 -17.9492 C 21.0059 -17.9492 25.8594 -13.0957 25.8691 -7.05078 C 25.8789 -1.01562 21.0156 3.84766 14.9707 3.84766 Z M 14.9414 -1.38672 C 15.5176 -1.38672 15.8594 -1.77734 15.8594 -2.38281 L 15.8594 -6.13281 L 19.7754 -6.13281 C 20.3711 -6.13281 20.7812 -6.46484 20.7812 -7.02148 C 20.7812 -7.59766 20.3906 -7.93945 19.7754 -7.93945 L 15.8594 -7.93945 L 15.8594 -11.8652 C 15.8594 -12.4805 15.5176 -12.8711 14.9414 -12.8711 C 14.375 -12.8711 14.0527 -12.4609 14.0527 -11.8652 L 14.0527 -7.93945 L 10.1465 -7.93945 C 9.53125 -7.93945 9.13086 -7.59766 9.13086 -7.02148 C 9.13086 -6.46484 9.55078 -6.13281 10.1465 -6.13281 L 14.0527 -6.13281 L 14.0527 -2.38281 C 14.0527 -1.79688 14.375 -1.38672 14.9414 -1.38672 Z"/>
  </g>
  <text style="stroke:none;fill:black;font-family:-apple-system,&quot;SF Pro Display&quot;,&quot;SF Pro Text&quot;,Helvetica,sans-serif;font-weight:bold;" transform="matrix(1 0 0 1 263 1953)">Design Variations</text>
  <text style="stroke:none;fill:black;font-family:-apple-system,&quot;SF Pro Display&quot;,&quot;SF Pro Text&quot;,Helvetica,sans-serif;" transform="matrix(1 0 0 1 263 1971)">Symbols are supported in up to nine weights and three scales.</text>
  <text style="stroke:none;fill:black;font-family:-apple-system,&quot;SF Pro Display&quot;,&quot;SF Pro Text&quot;,Helvetica,sans-serif;" transform="matrix(1 0 0 1 263 1989)">For optimal layout with text and other symbols, vertically align</text>
  <text style="stroke:none;fill:black;font-family:-apple-system,&quot;SF Pro Display&quot;,&quot;SF Pro Text&quot;,Helvetica,sans-serif;" transform="matrix(1 0 0 1 263 2007)">symbols with the adjacent text.</text>
  <line id="" style="fill:none;stroke:#00AEEF;stroke-width:0.5;opacity:1.0;" x1="776" x2="776" y1="1919" y2="1933"/>
  <g id="" transform="matrix(1 0 0 1 776 1933)">
   <path d="M 3.31055 0.126953 C 3.82812 0.126953 4.08203 -0.0683594 4.26758 -0.605469 L 5.52734 -4.0625 L 11.2891 -4.0625 L 12.5488 -0.605469 C 12.7344 -0.0683594 12.9883 0.126953 13.4961 0.126953 C 14.0137 0.126953 14.3457 -0.185547 14.3457 -0.673828 C 14.3457 -0.839844 14.3164 -0.986328 14.2383 -1.20117 L 9.6582 -13.3887 C 9.43359 -13.9941 9.0332 -14.2871 8.4082 -14.2871 C 7.80273 -14.2871 7.39258 -13.9941 7.17773 -13.3984 L 2.59766 -1.19141 C 2.51953 -0.976562 2.49023 -0.830078 2.49023 -0.664062 C 2.49023 -0.175781 2.80273 0.126953 3.31055 0.126953 Z M 6.00586 -5.53711 L 8.37891 -12.1094 L 8.42773 -12.1094 L 10.8008 -5.53711 Z"/>
  </g>
  <line id="" style="fill:none;stroke:#00AEEF;stroke-width:0.5;opacity:1.0;" x1="792.836" x2="792.836" y1="1919" y2="1933"/>
  <text style="stroke:none;fill:black;font-family:-apple-system,&quot;SF Pro Display&quot;,&quot;SF Pro Text&quot;,Helvetica,sans-serif;font-weight:bold;" transform="matrix(1 0 0 1 776 1953)">Margins</text>
  <text style="stroke:none;fill:black;font-family:-apple-system,&quot;SF Pro Display&quot;,&quot;SF Pro Text&quot;,Helvetica,sans-serif;" transform="matrix(1 0 0 1 776 1971)">Leading and trailing margins on the left and right side of each symbol</text>
  <text style="stroke:none;fill:black;font-family:-apple-system,&quot;SF Pro Display&quot;,&quot;SF Pro Text&quot;,Helvetica,sans-serif;" transform="matrix(1 0 0 1 776 1989)">can be adjusted by modifying the x-location of the margin guidelines.</text>
  <text style="stroke:none;fill:black;font-family:-apple-system,&quot;SF Pro Display&quot;,&quot;SF Pro Text&quot;,Helvetica,sans-serif;" transform="matrix(1 0 0 1 776 2007)">Modifications are automatically applied proportionally to all</text>
  <text style="stroke:none;fill:black;font-family:-apple-system,&quot;SF Pro Display&quot;,&quot;SF Pro Text&quot;,Helvetica,sans-serif;" transform="matrix(1 0 0 1 776 2025)">scales and weights.</text>
  <g id="" transform="matrix(1 0 0 1 1289 1933)">
   <path d="M 2.8418 1.86523 L 4.54102 3.57422 C 5.40039 4.44336 6.38672 4.38477 7.31445 3.35938 L 17.4902 -7.85156 C 17.7539 -7.76367 18.0273 -7.7832 18.3398 -7.8418 L 19.4043 -8.03711 L 20.0684 -7.36328 L 20.0293 -6.80664 C 19.9902 -6.30859 20.1172 -5.92773 20.6055 -5.44922 L 21.3672 -4.70703 C 21.8457 -4.22852 22.4609 -4.19922 22.9297 -4.66797 L 25.8398 -7.58789 C 26.3086 -8.05664 26.2891 -8.65234 25.8105 -9.13086 L 25.0391 -9.89258 C 24.5605 -10.3711 24.1895 -10.5273 23.7109 -10.4883 L 23.1348 -10.4395 L 22.4902 -11.0742 L 22.7344 -12.1973 C 22.8613 -12.7637 22.7051 -13.2031 22.1191 -13.7891 L 19.9219 -15.9766 C 16.582 -19.2969 12.1484 -19.2188 9.25781 -16.3281 C 8.83789 -15.918 8.80859 -15.3418 9.04297 -14.9512 C 9.27734 -14.5898 9.73633 -14.3555 10.3809 -14.5215 C 11.8457 -14.8633 13.3691 -14.9219 14.7949 -13.9844 L 14.209 -12.5293 C 14.0137 -12.0508 13.9844 -11.6504 14.1113 -11.2891 L 3.04688 -0.898438 C 2.06055 0.0195312 1.98242 0.996094 2.8418 1.86523 Z M 10.752 -15.957 C 13.1836 -17.7344 16.4746 -17.4316 18.7012 -15.2051 L 21.1328 -12.793 C 21.3672 -12.5586 21.4062 -12.373 21.3379 -12.0312 L 21.0156 -10.5469 L 22.5195 -9.0625 L 23.5059 -9.12109 C 23.7598 -9.13086 23.8379 -9.11133 24.0332 -8.91602 L 24.6094 -8.33984 L 22.168 -5.89844 L 21.5918 -6.47461 C 21.3965 -6.66992 21.3672 -6.74805 21.377 -7.01172 L 21.4453 -7.98828 L 19.9512 -9.47266 L 18.4277 -9.21875 C 18.1055 -9.15039 17.959 -9.17969 17.7148 -9.41406 L 15.7129 -11.416 C 15.459 -11.6504 15.4297 -11.8164 15.5859 -12.1875 L 16.4648 -14.2773 C 14.9023 -15.7324 12.8711 -16.3574 10.8398 -15.7617 C 10.6836 -15.7227 10.625 -15.8496 10.752 -15.957 Z M 5.27344 2.30469 L 4.10156 1.14258 C 3.63281 0.683594 3.74023 0.341797 4.14062 -0.0195312 L 14.9512 -10.1953 L 16.416 -8.71094 L 6.42578 2.27539 C 6.07422 2.67578 5.74219 2.77344 5.27344 2.30469 Z"/>
  </g>
  <text style="stroke:none;fill:black;font-family:-apple-system,&quot;SF Pro Display&quot;,&quot;SF Pro Text&quot;,Helvetica,sans-serif;font-weight:bold;" transform="matrix(1 0 0 1 1289 1953)">Exporting</text>
  <text style="stroke:none;fill:black;font-family:-apple-system,&quot;SF Pro Display&quot;,&quot;SF Pro Text&quot;,Helvetica,sans-serif;" transform="matrix(1 0 0 1 1289 1971)">Symbols should be outlined when exporting to ensure the</text>
  <text style="stroke:none;fill:black;font-family:-apple-system,&quot;SF Pro Display&quot;,&quot;SF Pro Text&quot;,Helvetica,sans-serif;" transform="matrix(1 0 0 1 1289 1989)">design is preserved when submitting to Xcode.</text>
  <text id="template-version" style="stroke:none;fill:black;font-family:-apple-system,&quot;SF Pro Display&quot;,&quot;SF Pro Text&quot;,Helvetica,sans-serif;text-anchor:end;" transform="matrix(1 0 0 1 3036 1933)">Template v.2.0</text>
  <text style="stroke:none;fill:black;font-family:-apple-system,&quot;SF Pro Display&quot;,&quot;SF Pro Text&quot;,Helvetica,sans-serif;text-anchor:end;" transform="matrix(1 0 0 1 3036 1951)">Requires Xcode 12 or greater</text>
  <text style="stroke:none;fill:black;font-family:-apple-system,&quot;SF Pro Display&quot;,&quot;SF Pro Text&quot;,Helvetica,sans-serif;text-anchor:end;" transform="matrix(1 0 0 1 3036 1969)">Generated from octagon.fill</text>
  <text style="stroke:none;fill:black;font-family:-apple-system,&quot;SF Pro Display&quot;,&quot;SF Pro Text&quot;,Helvetica,sans-serif;text-anchor:end;" transform="matrix(1 0 0 1 3036 1987)">Typeset at 100 points</text>
  <text style="stroke:none;fill:black;font-family:-apple-system,&quot;SF Pro Display&quot;,&quot;SF Pro Text&quot;,Helvetica,sans-serif;" transform="matrix(1 0 0 1 263 726)">Small</text>
  <text style="stroke:none;fill:black;font-family:-apple-system,&quot;SF Pro Display&quot;,&quot;SF Pro Text&quot;,Helvetica,sans-serif;" transform="matrix(1 0 0 1 263 1156)">Medium</text>
  <text style="stroke:none;fill:black;font-family:-apple-system,&quot;SF Pro Display&quot;,&quot;SF Pro Text&quot;,Helvetica,sans-serif;" transform="matrix(1 0 0 1 263 1586)">Large</text>
 </g>
 <g id="Guides">
  <g id="H-reference" style="fill:#27AAE1;stroke:none;" transform="matrix(1 0 0 1 339 696)">
   <path d="M 0.976562 0 L 3.66211 0 L 12.9883 -24.4629 L 45.7031 -24.4629 L 55.0781 0 L 57.7148 0 L 30.6152 -70.459 L 28.125 -70.459 Z M 29.2969 -67.1387 L 29.3945 -67.1387 L 44.873 -26.709 L 13.8672 -26.709 Z"/>
  </g>
  <line id="Baseline-S" style="fill:none;stroke:#27AAE1;opacity:1;stroke-width:0.5;" x1="263" x2="3036" y1="696" y2="696"/>
  <line id="Capline-S" style="fill:none;stroke:#27AAE1;opacity:1;stroke-width:0.5;" x1="263" x2="3036" y1="625.541" y2="625.541"/>
  <g id="H-reference" style="fill:#27AAE1;stroke:none;" transform="matrix(1 0 0 1 339 1126)">
   <path d="M 0.976562 0 L 3.66211 0 L 12.9883 -24.4629 L 45.7031 -24.4629 L 55.0781 0 L 57.7148 0 L 30.6152 -70.459 L 28.125 -70.459 Z M 29.2969 -67.1387 L 29.3945 -67.1387 L 44.873 -26.709 L 13.8672 -26.709 Z"/>
  </g>
  <line id="Baseline-M" style="fill:none;stroke:#27AAE1;opacity:1;stroke-width:0.5;" x1="263" x2="3036" y1="1126" y2="1126"/>
  <line id="Capline-M" style="fill:none;stroke:#27AAE1;opacity:1;stroke-width:0.5;" x1="263" x2="3036" y1="1055.54" y2="1055.54"/>
  <g id="H-reference" style="fill:#27AAE1;stroke:none;" transform="matrix(1 0 0 1 339 1556)">
   <path d="M 0.976562 0 L 3.66211 0 L 12.9883 -24.4629 L 45.7031 -24.4629 L 55.0781 0 L 57.7148 0 L 30.6152 -70.459 L 28.125 -70.459 Z M 29.2969 -67.1387 L 29.3945 -67.1387 L 44.873 -26.709 L 13.8672 -26.709 Z"/>
  </g>
  <line id="Baseline-L" style="fill:none;stroke:#27AAE1;opacity:1;stroke-width:0.5;" x1="263" x2="3036" y1="1556" y2="1556"/>
  <line id="Capline-L" style="fill:none;stroke:#27AAE1;opacity:1;stroke-width:0.5;" x1="263" x2="3036" y1="1485.54" y2="1485.54"/>
  <line id="left-margin" style="fill:none;stroke:#00AEEF;stroke-width:0.5;opacity:1.0;" x1="1388.2" x2="1388.2" y1="1030.79" y2="1150.12"/>
  <line id="right-margin" style="fill:none;stroke:#00AEEF;stroke-width:0.5;opacity:1.0;" x1="1511.49" x2="1511.49" y1="1030.79" y2="1150.12"/>
 </g>
 <g id="Symbols">
  <g id="Black-L" transform="matrix(1 0 0 1 2848.68 1556)">
   <path d="M 64.7461 29.1992 L 104.688 29.1992 C 113.184 29.1992 119.629 26.0742 124.609 20.2637 L 146.924 -5.85938 C 152.002 -11.8652 153.369 -15.5762 153.369 -23.4863 L 153.369 -46.8262 C 153.369 -54.7852 152.002 -58.4961 146.924 -64.502 L 124.609 -90.5762 C 119.629 -96.4355 113.184 -99.5605 104.688 -99.5605 L 64.7461 -99.5605 C 56.25 -99.5605 49.8047 -96.4355 44.8242 -90.5762 L 22.5098 -64.502 C 17.4316 -58.4961 16.0645 -54.7852 16.0645 -46.8262 L 16.0645 -23.4863 C 16.0645 -15.5762 17.4316 -11.8652 22.5098 -5.85938 L 44.8242 20.2637 C 49.8047 26.0742 56.25 29.1992 64.7461 29.1992 Z"/>
  </g>
  <g id="Heavy-L" transform="matrix(1 0 0 1 2553.36 1556)">
   <path d="M 63.7207 28.3691 L 102.93 28.3691 C 111.475 28.3691 117.236 25.293 122.07 19.7266 L 144.482 -6.10352 C 149.316 -11.7188 150.586 -15.2344 150.586 -22.7539 L 150.586 -47.5098 C 150.586 -55.0293 149.316 -58.5449 144.482 -64.209 L 122.07 -90.0391 C 117.236 -95.6055 111.475 -98.6328 102.93 -98.6328 L 63.7207 -98.6328 C 55.2246 -98.6328 49.4141 -95.6055 44.6289 -90.0391 L 22.168 -64.209 C 17.334 -58.5449 16.0645 -55.0293 16.0645 -47.5098 L 16.0645 -22.7539 C 16.0645 -15.2344 17.334 -11.7188 22.168 -6.10352 L 44.6289 19.7266 C 49.4141 25.293 55.2246 28.3691 63.7207 28.3691 Z"/>
  </g>
  <g id="Bold-L" transform="matrix(1 0 0 1 2258.19 1556)">
   <path d="M 62.5977 27.3926 L 100.977 27.3926 C 109.57 27.3926 114.551 24.4141 119.238 19.1406 L 141.748 -6.34766 C 146.289 -11.5723 147.51 -14.8438 147.51 -21.9238 L 147.51 -48.291 C 147.51 -55.3711 146.289 -58.6426 141.748 -63.8672 L 119.238 -89.3555 C 114.551 -94.6289 109.57 -97.6074 100.977 -97.6074 L 62.5977 -97.6074 C 54.0039 -97.6074 49.0234 -94.6289 44.3359 -89.3555 L 21.8262 -63.8672 C 17.2363 -58.6426 16.0645 -55.3711 16.0645 -48.291 L 16.0645 -21.9238 C 16.0645 -14.8438 17.2363 -11.5723 21.8262 -6.34766 L 44.3359 19.1406 C 49.0234 24.4141 54.0039 27.3926 62.5977 27.3926 Z"/>
  </g>
  <g id="Semibold-L" transform="matrix(1 0 0 1 1962.55 1556)">
   <path d="M 61.8164 26.7578 L 99.6094 26.7578 C 108.203 26.7578 112.744 23.7793 117.236 18.75 L 139.893 -6.54297 C 144.238 -11.4746 145.361 -14.5996 145.361 -21.3379 L 145.361 -48.8281 C 145.361 -55.5664 144.238 -58.6914 139.893 -63.623 L 117.236 -88.916 C 112.744 -93.9941 108.203 -96.9238 99.6094 -96.9238 L 61.8164 -96.9238 C 53.2227 -96.9238 48.6816 -93.9941 44.1895 -88.916 L 21.5332 -63.623 C 17.1875 -58.6914 16.0645 -55.5664 16.0645 -48.8281 L 16.0645 -21.3379 C 16.0645 -14.5996 17.1875 -11.4746 21.5332 -6.54297 L 44.1895 18.75 C 48.6816 23.7793 53.2227 26.7578 61.8164 26.7578 Z"/>
  </g>
  <g id="Medium-L" transform="matrix(1 0 0 1 1666.65 1556)">
   <path d="M 61.2305 26.2695 L 98.584 26.2695 C 107.227 26.2695 111.328 23.3398 115.771 18.457 L 138.477 -6.68945 C 142.676 -11.377 143.75 -14.4043 143.75 -20.8984 L 143.75 -49.2188 C 143.75 -55.7129 142.676 -58.7402 138.477 -63.4277 L 115.771 -88.5742 C 111.328 -93.457 107.227 -96.3867 98.584 -96.3867 L 61.2305 -96.3867 C 52.5879 -96.3867 48.4863 -93.457 44.043 -88.5742 L 21.3379 -63.4277 C 17.1387 -58.7402 16.0645 -55.7129 16.0645 -49.2188 L 16.0645 -20.8984 C 16.0645 -14.4043 17.1387 -11.377 21.3379 -6.68945 L 44.043 18.457 C 48.4863 23.3398 52.5879 26.2695 61.2305 26.2695 Z"/>
  </g>
  <g id="Regular-L" transform="matrix(1 0 0 1 1370.99 1556)">
   <path d="M 60.498 25.5859 L 97.2168 25.5859 C 105.908 25.5859 109.521 22.7051 113.818 18.0664 L 136.621 -6.88477 C 140.625 -11.2793 141.65 -14.1602 141.65 -20.3613 L 141.65 -49.7559 C 141.65 -55.957 140.625 -58.7891 136.621 -63.2324 L 113.818 -88.1348 C 109.521 -92.8223 105.908 -95.7031 97.2168 -95.7031 L 60.498 -95.7031 C 51.8066 -95.7031 48.1934 -92.8223 43.8477 -88.1348 L 21.0938 -63.2324 C 17.0898 -58.7891 16.0645 -55.957 16.0645 -49.7559 L 16.0645 -20.3613 C 16.0645 -14.1602 17.0898 -11.2793 21.0938 -6.88477 L 43.8477 18.0664 C 48.1934 22.7051 51.8066 25.5859 60.498 25.5859 Z"/>
  </g>
  <g id="Light-L" transform="matrix(1 0 0 1 1075.2 1556)">
   <path d="M 60.5957 24.9512 L 95.2637 24.9512 C 104.932 24.9512 108.203 21.7285 112.842 16.8457 L 135.01 -7.12891 C 138.818 -11.2305 139.795 -13.916 139.795 -20.0195 L 139.795 -50.2441 C 139.795 -56.3477 138.818 -59.0332 135.01 -63.1348 L 112.842 -87.0605 C 108.203 -91.9922 104.932 -95.2148 95.2637 -95.2148 L 60.5957 -95.2148 C 50.9277 -95.2148 47.6562 -91.9922 43.0176 -87.0605 L 20.8496 -63.1348 C 17.041 -59.0332 16.0645 -56.3477 16.0645 -50.2441 L 16.0645 -20.0195 C 16.0645 -13.916 17.041 -11.2305 20.8496 -7.12891 L 43.0176 16.8457 C 47.6562 21.7285 50.9277 24.9512 60.5957 24.9512 Z"/>
  </g>
  <g id="Thin-L" transform="matrix(1 0 0 1 779.713 1556)">
   <path d="M 60.7422 24.1211 L 92.6758 24.1211 C 103.613 24.1211 106.494 20.4102 111.475 15.1855 L 132.91 -7.42188 C 136.426 -11.1816 137.354 -13.623 137.354 -19.6289 L 137.354 -50.8789 C 137.354 -56.8359 136.426 -59.3262 132.91 -63.0371 L 111.475 -85.6445 C 106.494 -90.8691 103.613 -94.6289 92.6758 -94.6289 L 60.7422 -94.6289 C 49.8047 -94.6289 46.875 -90.8691 41.9434 -85.6445 L 20.5078 -63.0371 C 16.9922 -59.3262 16.0645 -56.8359 16.0645 -50.8789 L 16.0645 -19.6289 C 16.0645 -13.623 16.9922 -11.1816 20.5078 -7.42188 L 41.9434 15.1855 C 46.875 20.4102 49.8047 24.1211 60.7422 24.1211 Z"/>
  </g>
  <g id="Ultralight-L" transform="matrix(1 0 0 1 483.637 1556)">
   <path d="M 60.791 23.7305 L 91.3574 23.7305 C 102.93 23.7305 105.615 19.7266 110.791 14.3555 L 131.836 -7.61719 C 135.205 -11.1328 136.084 -13.4766 136.084 -19.3848 L 136.084 -51.1719 C 136.084 -57.1289 135.205 -59.4727 131.836 -62.9883 L 110.791 -84.9609 C 105.615 -90.332 102.93 -94.2871 91.3574 -94.2871 L 60.791 -94.2871 C 49.2188 -94.2871 46.5332 -90.332 41.3574 -84.9609 L 20.3125 -62.9883 C 16.9434 -59.4727 16.0645 -57.1289 16.0645 -51.1719 L 16.0645 -19.3848 C 16.0645 -13.4766 16.9434 -11.1328 20.3125 -7.61719 L 41.3574 14.3555 C 46.5332 19.7266 49.2188 23.7305 60.791 23.7305 Z"/>
  </g>
  <g id="Black-M" transform="matrix(1 0 0 1 2866.36 1126)">
   <path d="M 51.5625 15.5273 L 82.4707 15.5273 C 89.502 15.5273 95.2148 12.8418 99.4629 7.8125 L 116.309 -12.2559 C 120.508 -17.2852 121.631 -20.3125 121.631 -27.002 L 121.631 -43.5547 C 121.631 -50.1953 120.508 -53.2715 116.309 -58.3008 L 99.4629 -78.3203 C 95.2148 -83.3496 89.502 -86.084 82.4707 -86.084 L 51.5625 -86.084 C 44.5801 -86.084 38.8184 -83.3496 34.6191 -78.3203 L 17.7734 -58.3008 C 13.5742 -53.2715 12.4512 -50.1953 12.4512 -43.5547 L 12.4512 -27.002 C 12.4512 -20.3125 13.5742 -17.2852 17.7734 -12.2559 L 34.6191 7.8125 C 38.8184 12.8418 44.5801 15.5273 51.5625 15.5273 Z"/>
  </g>
  <g id="Heavy-M" transform="matrix(1 0 0 1 2570.92 1126)">
   <path d="M 50.4395 14.7461 L 81.0547 14.7461 C 87.8906 14.7461 92.9688 12.207 96.9238 7.56836 L 114.062 -12.4512 C 118.018 -17.1387 119.092 -20.0195 119.092 -26.2695 L 119.092 -44.1895 C 119.092 -50.3906 118.018 -53.3203 114.062 -57.959 L 96.9238 -77.9785 C 92.9688 -82.666 87.8906 -85.2051 81.0547 -85.2051 L 50.4395 -85.2051 C 43.6523 -85.2051 38.5742 -82.666 34.5703 -77.9785 L 17.4805 -57.959 C 13.5254 -53.3203 12.4512 -50.3906 12.4512 -44.1895 L 12.4512 -26.2695 C 12.4512 -20.0195 13.5254 -17.1387 17.4805 -12.4512 L 34.5703 7.56836 C 38.5742 12.207 43.6523 14.7461 50.4395 14.7461 Z"/>
  </g>
  <g id="Bold-M" transform="matrix(1 0 0 1 2275.65 1126)">
   <path d="M 49.2188 13.916 L 79.4922 13.916 C 86.084 13.916 90.4297 11.5234 94.1406 7.27539 L 111.523 -12.6953 C 115.234 -16.9922 116.211 -19.6777 116.211 -25.4395 L 116.211 -44.873 C 116.211 -50.6348 115.234 -53.3203 111.523 -57.6172 L 94.1406 -77.5879 C 90.4297 -81.8359 86.084 -84.2285 79.4922 -84.2285 L 49.2188 -84.2285 C 42.5781 -84.2285 38.2324 -81.8359 34.5703 -77.5879 L 17.1387 -57.6172 C 13.4277 -53.3203 12.4512 -50.6348 12.4512 -44.873 L 12.4512 -25.4395 C 12.4512 -19.6777 13.4277 -16.9922 17.1387 -12.6953 L 34.5703 7.27539 C 38.2324 11.5234 42.5781 13.916 49.2188 13.916 Z"/>
  </g>
  <g id="Semibold-M" transform="matrix(1 0 0 1 1979.91 1126)">
   <path d="M 48.3398 13.3301 L 78.3691 13.3301 C 84.8145 13.3301 88.6719 11.084 92.1875 7.08008 L 109.814 -12.8418 C 113.33 -16.8945 114.258 -19.4336 114.258 -24.8535 L 114.258 -45.3613 C 114.258 -50.7812 113.33 -53.3203 109.814 -57.373 L 92.1875 -77.3438 C 88.6719 -81.2988 84.8145 -83.5449 78.3691 -83.5449 L 48.3398 -83.5449 C 41.8945 -83.5449 38.0371 -81.2988 34.5215 -77.3438 L 16.8945 -57.373 C 13.3789 -53.3203 12.4512 -50.7812 12.4512 -45.3613 L 12.4512 -24.8535 C 12.4512 -19.4336 13.3789 -16.8945 16.8945 -12.8418 L 34.5215 7.08008 C 38.0371 11.084 41.8945 13.3301 48.3398 13.3301 Z"/>
  </g>
  <g id="Medium-M" transform="matrix(1 0 0 1 1683.96 1126)">
   <path d="M 47.6562 12.8418 L 77.5391 12.8418 C 83.8867 12.8418 87.3535 10.7422 90.7227 6.98242 L 108.496 -12.9883 C 111.865 -16.7969 112.744 -19.2383 112.744 -24.4141 L 112.744 -45.752 C 112.744 -50.9277 111.865 -53.3691 108.496 -57.1777 L 90.7227 -77.1484 C 87.3535 -80.8594 83.8867 -83.0078 77.5391 -83.0078 L 47.6562 -83.0078 C 41.3086 -83.0078 37.8906 -80.8594 34.4727 -77.1484 L 16.748 -57.1777 C 13.3301 -53.3691 12.4512 -50.9277 12.4512 -45.752 L 12.4512 -24.4141 C 12.4512 -19.2383 13.3301 -16.7969 16.748 -12.9883 L 34.4727 6.98242 C 37.8906 10.7422 41.3086 12.8418 47.6562 12.8418 Z"/>
  </g>
  <g id="Regular-M" transform="matrix(1 0 0 1 1388.2 1126)">
   <path d="M 46.8262 12.2559 L 76.4648 12.2559 C 82.666 12.2559 85.5957 10.2539 88.8184 6.78711 L 106.787 -13.1348 C 110.01 -16.6992 110.84 -19.043 110.84 -23.877 L 110.84 -46.1914 C 110.84 -51.0742 110.01 -53.3691 106.787 -56.9336 L 88.8184 -76.8555 C 85.5957 -80.3223 82.666 -82.373 76.4648 -82.373 L 46.8262 -82.373 C 40.625 -82.373 37.6465 -80.3223 34.4727 -76.8555 L 16.5039 -56.9336 C 13.2812 -53.3691 12.4512 -51.0742 12.4512 -46.1914 L 12.4512 -23.877 C 12.4512 -19.043 13.2812 -16.6992 16.5039 -13.1348 L 34.4727 6.78711 C 37.6465 10.2539 40.625 12.2559 46.8262 12.2559 Z"/>
  </g>
  <g id="Light-M" transform="matrix(1 0 0 1 1092.32 1126)">
   <path d="M 46.9238 11.7188 L 74.707 11.7188 C 81.7383 11.7188 84.4238 9.375 87.8906 5.66406 L 105.322 -13.3301 C 108.398 -16.6504 109.18 -18.7988 109.18 -23.584 L 109.18 -46.6309 C 109.18 -51.416 108.398 -53.5645 105.322 -56.8848 L 87.8906 -75.8789 C 84.4238 -79.5898 81.7383 -81.9336 74.707 -81.9336 L 46.9238 -81.9336 C 39.8438 -81.9336 37.1582 -79.5898 33.7402 -75.8789 L 16.2598 -56.8848 C 13.2324 -53.5645 12.4512 -51.416 12.4512 -46.6309 L 12.4512 -23.584 C 12.4512 -18.7988 13.2324 -16.6504 16.2598 -13.3301 L 33.7402 5.66406 C 37.1582 9.375 39.8438 11.7188 46.9238 11.7188 Z"/>
  </g>
  <g id="Thin-M" transform="matrix(1 0 0 1 796.705 1126)">
   <path d="M 47.0215 10.9375 L 72.3633 10.9375 C 80.5664 10.9375 82.9102 8.1543 86.6699 4.19922 L 103.467 -13.623 C 106.25 -16.6016 106.982 -18.5547 106.982 -23.2422 L 106.982 -47.2168 C 106.982 -51.8555 106.25 -53.8574 103.467 -56.7871 L 86.6699 -74.6094 C 82.9102 -78.6133 80.5664 -81.3965 72.3633 -81.3965 L 47.0215 -81.3965 C 38.8672 -81.3965 36.5234 -78.6133 32.7148 -74.6094 L 15.9668 -56.7871 C 13.1836 -53.8574 12.4512 -51.8555 12.4512 -47.2168 L 12.4512 -23.2422 C 12.4512 -18.5547 13.1836 -16.6016 15.9668 -13.623 L 32.7148 4.19922 C 36.5234 8.1543 38.8672 10.9375 47.0215 10.9375 Z"/>
  </g>
  <g id="Ultralight-M" transform="matrix(1 0 0 1 500.556 1126)">
   <path d="M 47.1191 10.5957 L 71.1914 10.5957 C 79.9805 10.5957 82.1289 7.56836 86.084 3.4668 L 102.49 -13.7695 C 105.176 -16.5527 105.859 -18.4082 105.859 -23.0469 L 105.859 -47.5098 C 105.859 -52.0996 105.176 -53.9551 102.49 -56.7383 L 86.084 -73.9746 C 82.1289 -78.0762 79.9805 -81.1035 71.1914 -81.1035 L 47.1191 -81.1035 C 38.3301 -81.1035 36.1816 -78.0762 32.2266 -73.9746 L 15.8203 -56.7383 C 13.1348 -53.9551 12.4512 -52.0996 12.4512 -47.5098 L 12.4512 -23.0469 C 12.4512 -18.4082 13.1348 -16.5527 15.8203 -13.7695 L 32.2266 3.4668 C 36.1816 7.56836 38.3301 10.5957 47.1191 10.5957 Z"/>
  </g>
  <g id="Black-S" transform="matrix(1 0 0 1 2880.96 696)">
   <path d="M 40.332 4.49219 L 64.5508 4.49219 C 70.0195 4.49219 74.4629 2.39258 77.7344 -1.51367 L 90.9668 -17.2363 C 94.2383 -21.1426 95.1172 -23.5352 95.1172 -28.7109 L 95.1172 -41.7969 C 95.1172 -46.9727 94.2383 -49.3652 90.9668 -53.2715 L 77.7344 -68.9941 C 74.4629 -72.9004 70.0195 -75 64.5508 -75 L 40.332 -75 C 34.8633 -75 30.4199 -72.9004 27.1484 -68.9941 L 13.916 -53.2715 C 10.6445 -49.3652 9.76562 -46.9727 9.76562 -41.7969 L 9.76562 -28.7109 C 9.76562 -23.5352 10.6445 -21.1426 13.916 -17.2363 L 27.1484 -1.51367 C 30.4199 2.39258 34.8633 4.49219 40.332 4.49219 Z"/>
  </g>
  <g id="Heavy-S" transform="matrix(1 0 0 1 2585.13 696)">
   <path d="M 39.4531 3.95508 L 63.6719 3.95508 C 68.8965 3.95508 72.8516 2.00195 75.9277 -1.5625 L 89.4043 -17.3828 C 92.5293 -21.0449 93.3594 -23.3398 93.3594 -28.1738 L 93.3594 -42.2363 C 93.3594 -47.0703 92.5293 -49.3652 89.4043 -53.0273 L 75.9277 -68.8477 C 72.8516 -72.4121 68.8965 -74.3652 63.6719 -74.3652 L 39.4531 -74.3652 C 34.2285 -74.3652 30.2734 -72.4121 27.1973 -68.8477 L 13.7207 -53.0273 C 10.5957 -49.3652 9.76562 -47.0703 9.76562 -42.2363 L 9.76562 -28.1738 C 9.76562 -23.3398 10.5957 -21.0449 13.7207 -17.3828 L 27.1973 -1.5625 C 30.2734 2.00195 34.2285 3.95508 39.4531 3.95508 Z"/>
  </g>
  <g id="Bold-S" transform="matrix(1 0 0 1 2289.42 696)">
   <path d="M 38.4766 3.36914 L 62.6465 3.36914 C 67.627 3.36914 71.0449 1.61133 73.877 -1.66016 L 87.6465 -17.5293 C 90.5762 -20.9473 91.3574 -23.0957 91.3574 -27.5879 L 91.3574 -42.7246 C 91.3574 -47.2168 90.5762 -49.3652 87.6465 -52.7832 L 73.877 -68.6523 C 71.0449 -71.9238 67.627 -73.6816 62.6465 -73.6816 L 38.4766 -73.6816 C 33.5449 -73.6816 30.0781 -71.9238 27.2461 -68.6523 L 13.4766 -52.7832 C 10.5469 -49.3652 9.76562 -47.2168 9.76562 -42.7246 L 9.76562 -27.5879 C 9.76562 -23.0957 10.5469 -20.9473 13.4766 -17.5293 L 27.2461 -1.66016 C 30.0781 1.61133 33.5449 3.36914 38.4766 3.36914 Z"/>
  </g>
  <g id="Semibold-S" transform="matrix(1 0 0 1 1993.39 696)">
   <path d="M 37.793 2.97852 L 61.9629 2.97852 C 66.748 2.97852 69.8242 1.31836 72.4609 -1.70898 L 86.4746 -17.627 C 89.2578 -20.8496 89.9902 -22.9004 89.9902 -27.1973 L 89.9902 -43.0176 C 89.9902 -47.3145 89.2578 -49.3652 86.4746 -52.5879 L 72.4609 -68.5059 C 69.8242 -71.5332 66.748 -73.1934 61.9629 -73.1934 L 37.793 -73.1934 C 33.0566 -73.1934 29.9805 -71.5332 27.2949 -68.5059 L 13.3301 -52.5879 C 10.498 -49.3652 9.76562 -47.3145 9.76562 -43.0176 L 9.76562 -27.1973 C 9.76562 -22.9004 10.498 -20.8496 13.3301 -17.627 L 27.2949 -1.70898 C 29.9805 1.31836 33.0566 2.97852 37.793 2.97852 Z"/>
  </g>
  <g id="Medium-S" transform="matrix(1 0 0 1 1697.19 696)">
   <path d="M 37.3047 2.63672 L 61.4258 2.63672 C 66.0645 2.63672 68.8477 1.12305 71.4355 -1.75781 L 85.5469 -17.7246 C 88.2812 -20.8008 88.9648 -22.8027 88.9648 -26.8555 L 88.9648 -43.3105 C 88.9648 -47.3633 88.2812 -49.3652 85.5469 -52.4414 L 71.4355 -68.4082 C 68.8477 -71.2891 66.0645 -72.8027 61.4258 -72.8027 L 37.3047 -72.8027 C 32.666 -72.8027 29.8828 -71.2891 27.3438 -68.4082 L 13.1836 -52.4414 C 10.498 -49.3652 9.76562 -47.3633 9.76562 -43.3105 L 9.76562 -26.8555 C 9.76562 -22.8027 10.498 -20.8008 13.1836 -17.7246 L 27.3438 -1.75781 C 29.8828 1.12305 32.666 2.63672 37.3047 2.63672 Z"/>
  </g>
  <g id="Regular-S" transform="matrix(1 0 0 1 1401.14 696)">
   <path d="M 36.6211 2.24609 L 60.7422 2.24609 C 65.1855 2.24609 67.627 0.830078 70.0195 -1.80664 L 84.3262 -17.8223 C 86.9629 -20.752 87.6465 -22.6074 87.6465 -26.4648 L 87.6465 -43.6035 C 87.6465 -47.4609 86.9629 -49.3652 84.3262 -52.2949 L 70.0195 -68.3105 C 67.627 -70.9473 65.1855 -72.3633 60.7422 -72.3633 L 36.6211 -72.3633 C 32.2266 -72.3633 29.7363 -70.9473 27.3926 -68.3105 L 13.0371 -52.2949 C 10.4492 -49.3652 9.76562 -47.4609 9.76562 -43.6035 L 9.76562 -26.4648 C 9.76562 -22.6074 10.4492 -20.752 13.0371 -17.8223 L 27.3926 -1.80664 C 29.7363 0.830078 32.2266 2.24609 36.6211 2.24609 Z"/>
  </g>
  <g id="Light-S" transform="matrix(1 0 0 1 1105.16 696)">
   <path d="M 36.7188 1.75781 L 59.2285 1.75781 C 64.4043 1.75781 66.6016 0.0488281 69.2383 -2.7832 L 83.1055 -18.0176 C 85.5469 -20.7031 86.1816 -22.4609 86.1816 -26.2207 L 86.1816 -43.9941 C 86.1816 -47.7539 85.5469 -49.5117 83.1055 -52.2461 L 69.2383 -67.4805 C 66.6016 -70.2637 64.4043 -71.9727 59.2285 -71.9727 L 36.7188 -71.9727 C 31.543 -71.9727 29.2969 -70.2637 26.709 -67.4805 L 12.8418 -52.2461 C 10.4004 -49.5117 9.76562 -47.7539 9.76562 -43.9941 L 9.76562 -26.2207 C 9.76562 -22.4609 10.4004 -20.7031 12.8418 -18.0176 L 26.709 -2.7832 C 29.2969 0.0488281 31.543 1.75781 36.7188 1.75781 Z"/>
  </g>
  <g id="Thin-S" transform="matrix(1 0 0 1 809.425 696)">
   <path d="M 36.8164 1.12305 L 57.1777 1.12305 C 63.3789 1.12305 65.2832 -0.976562 68.1641 -4.05273 L 81.4453 -18.2617 C 83.6426 -20.6543 84.2285 -22.2168 84.2285 -25.8789 L 84.2285 -44.4824 C 84.2285 -48.1934 83.6426 -49.7559 81.4453 -52.1484 L 68.1641 -66.3574 C 65.2832 -69.3848 63.3789 -71.4844 57.1777 -71.4844 L 36.8164 -71.4844 C 30.6641 -71.4844 28.7598 -69.3848 25.8301 -66.3574 L 12.5977 -52.1484 C 10.3516 -49.7559 9.76562 -48.1934 9.76562 -44.4824 L 9.76562 -25.8789 C 9.76562 -22.2168 10.3516 -20.6543 12.5977 -18.2617 L 25.8301 -4.05273 C 28.7598 -0.976562 30.6641 1.12305 36.8164 1.12305 Z"/>
  </g>
  <g id="Ultralight-S" transform="matrix(1 0 0 1 513.202 696)">
   <path d="M 36.9141 0.78125 L 56.1035 0.78125 C 62.8418 0.78125 64.5508 -1.51367 67.627 -4.73633 L 80.5664 -18.3594 C 82.7148 -20.6055 83.252 -22.1191 83.252 -25.7324 L 83.252 -44.7754 C 83.252 -48.3887 82.7148 -49.8535 80.5664 -52.0996 L 67.627 -65.7715 C 64.5508 -68.9453 62.8418 -71.2402 56.1035 -71.2402 L 36.9141 -71.2402 C 30.1758 -71.2402 28.418 -68.9453 25.3906 -65.7715 L 12.4512 -52.0996 C 10.3027 -49.8535 9.76562 -48.3887 9.76562 -44.7754 L 9.76562 -25.7324 C 9.76562 -22.1191 10.3027 -20.6055 12.4512 -18.3594 L 25.3906 -4.73633 C 28.418 -1.51367 30.1758 0.78125 36.9141 0.78125 Z"/>
  </g>
 </g>
</svg>
