<?xml version="1.0" encoding="UTF-8"?>
<!--Generator: Apple Native CoreSVG 148-->
<!DOCTYPE svg
PUBLIC "-//W3C//DTD SVG 1.1//EN"
       "http://www.w3.org/Graphics/SVG/1.1/DTD/svg11.dtd">
<svg version="1.1" xmlns="http://www.w3.org/2000/svg" xmlns:xlink="http://www.w3.org/1999/xlink" width="3300" height="2200">
 <!--glyph: "uni100BE8.medium", point size: 100.000000, font version: "Version 16.0d11e1", template writer version: "8"-->
 <g id="Notes">
  <rect height="2200" id="artboard" style="fill:white;opacity:1" width="3300" x="0" y="0"/>
  <line id="" style="fill:none;stroke:black;opacity:1;stroke-width:0.5;" x1="263" x2="3036" y1="292" y2="292"/>
  <text style="stroke:none;fill:black;font-family:-apple-system,&quot;SF Pro Display&quot;,&quot;SF Pro Text&quot;,Helvetica,sans-serif;font-weight:bold;" transform="matrix(1 0 0 1 263 322)">Weight/Scale Variations</text>
  <text style="stroke:none;fill:black;font-family:-apple-system,&quot;SF Pro Display&quot;,&quot;SF Pro Text&quot;,Helvetica,sans-serif;text-anchor:middle;" transform="matrix(1 0 0 1 559.711 322)">Ultralight</text>
  <text style="stroke:none;fill:black;font-family:-apple-system,&quot;SF Pro Display&quot;,&quot;SF Pro Text&quot;,Helvetica,sans-serif;text-anchor:middle;" transform="matrix(1 0 0 1 856.422 322)">Thin</text>
  <text style="stroke:none;fill:black;font-family:-apple-system,&quot;SF Pro Display&quot;,&quot;SF Pro Text&quot;,Helvetica,sans-serif;text-anchor:middle;" transform="matrix(1 0 0 1 1153.13 322)">Light</text>
  <text style="stroke:none;fill:black;font-family:-apple-system,&quot;SF Pro Display&quot;,&quot;SF Pro Text&quot;,Helvetica,sans-serif;text-anchor:middle;" transform="matrix(1 0 0 1 1449.84 322)">Regular</text>
  <text style="stroke:none;fill:black;font-family:-apple-system,&quot;SF Pro Display&quot;,&quot;SF Pro Text&quot;,Helvetica,sans-serif;text-anchor:middle;" transform="matrix(1 0 0 1 1746.56 322)">Medium</text>
  <text style="stroke:none;fill:black;font-family:-apple-system,&quot;SF Pro Display&quot;,&quot;SF Pro Text&quot;,Helvetica,sans-serif;text-anchor:middle;" transform="matrix(1 0 0 1 2043.27 322)">Semibold</text>
  <text style="stroke:none;fill:black;font-family:-apple-system,&quot;SF Pro Display&quot;,&quot;SF Pro Text&quot;,Helvetica,sans-serif;text-anchor:middle;" transform="matrix(1 0 0 1 2339.98 322)">Bold</text>
  <text style="stroke:none;fill:black;font-family:-apple-system,&quot;SF Pro Display&quot;,&quot;SF Pro Text&quot;,Helvetica,sans-serif;text-anchor:middle;" transform="matrix(1 0 0 1 2636.69 322)">Heavy</text>
  <text style="stroke:none;fill:black;font-family:-apple-system,&quot;SF Pro Display&quot;,&quot;SF Pro Text&quot;,Helvetica,sans-serif;text-anchor:middle;" transform="matrix(1 0 0 1 2933.4 322)">Black</text>
  <line id="" style="fill:none;stroke:black;opacity:1;stroke-width:0.5;" x1="263" x2="3036" y1="1903" y2="1903"/>
  <g id="" transform="matrix(1 0 0 1 263 1933)">
   <path d="M 9.24805 0.830078 C 13.5547 0.830078 17.1387 -2.74414 17.1387 -7.05078 C 17.1387 -11.3574 13.5449 -14.9316 9.23828 -14.9316 C 4.94141 -14.9316 1.36719 -11.3574 1.36719 -7.05078 C 1.36719 -2.74414 4.95117 0.830078 9.24805 0.830078 Z M 9.24805 -0.654297 C 5.70312 -0.654297 2.87109 -3.49609 2.87109 -7.05078 C 2.87109 -10.6055 5.69336 -13.4473 9.23828 -13.4473 C 12.793 -13.4473 15.6348 -10.6055 15.6445 -7.05078 C 15.6543 -3.49609 12.8027 -0.654297 9.24805 -0.654297 Z M 9.22852 -3.62305 C 9.69727 -3.62305 9.9707 -3.93555 9.9707 -4.45312 L 9.9707 -6.31836 L 12.002 -6.31836 C 12.5 -6.31836 12.832 -6.57227 12.832 -7.04102 C 12.832 -7.51953 12.5195 -7.7832 12.002 -7.7832 L 9.9707 -7.7832 L 9.9707 -9.81445 C 9.9707 -10.332 9.69727 -10.6543 9.22852 -10.6543 C 8.75977 -10.6543 8.50586 -10.3125 8.50586 -9.81445 L 8.50586 -7.7832 L 6.49414 -7.7832 C 5.97656 -7.7832 5.64453 -7.51953 5.64453 -7.04102 C 5.64453 -6.57227 5.99609 -6.31836 6.49414 -6.31836 L 8.50586 -6.31836 L 8.50586 -4.45312 C 8.50586 -3.95508 8.75977 -3.62305 9.22852 -3.62305 Z"/>
  </g>
  <g id="" transform="matrix(1 0 0 1 281.506 1933)">
   <path d="M 11.709 2.91016 C 17.1582 2.91016 21.6699 -1.61133 21.6699 -7.05078 C 21.6699 -12.5 17.1484 -17.0117 11.6992 -17.0117 C 6.25977 -17.0117 1.74805 -12.5 1.74805 -7.05078 C 1.74805 -1.61133 6.26953 2.91016 11.709 2.91016 Z M 11.709 1.25 C 7.09961 1.25 3.41797 -2.44141 3.41797 -7.05078 C 3.41797 -11.6602 7.08984 -15.3516 11.6992 -15.3516 C 16.3086 -15.3516 20 -11.6602 20.0098 -7.05078 C 20.0195 -2.44141 16.3184 1.25 11.709 1.25 Z M 11.6797 -2.66602 C 12.207 -2.66602 12.5098 -3.01758 12.5098 -3.59375 L 12.5098 -6.23047 L 15.3223 -6.23047 C 15.8691 -6.23047 16.25 -6.51367 16.25 -7.03125 C 16.25 -7.55859 15.8887 -7.86133 15.3223 -7.86133 L 12.5098 -7.86133 L 12.5098 -10.6836 C 12.5098 -11.25 12.207 -11.6113 11.6797 -11.6113 C 11.1621 -11.6113 10.8789 -11.2305 10.8789 -10.6836 L 10.8789 -7.86133 L 8.07617 -7.86133 C 7.50977 -7.86133 7.13867 -7.55859 7.13867 -7.03125 C 7.13867 -6.51367 7.5293 -6.23047 8.07617 -6.23047 L 10.8789 -6.23047 L 10.8789 -3.59375 C 10.8789 -3.03711 11.1621 -2.66602 11.6797 -2.66602 Z"/>
  </g>
  <g id="" transform="matrix(1 0 0 1 304.924 1933)">
   <path d="M 14.9707 5.66406 C 21.9336 5.66406 27.6953 -0.0976562 27.6953 -7.05078 C 27.6953 -14.0137 21.9238 -19.7754 14.9609 -19.7754 C 8.00781 -19.7754 2.25586 -14.0137 2.25586 -7.05078 C 2.25586 -0.0976562 8.01758 5.66406 14.9707 5.66406 Z M 14.9707 3.84766 C 8.93555 3.84766 4.08203 -1.01562 4.08203 -7.05078 C 4.08203 -13.0957 8.92578 -17.9492 14.9609 -17.9492 C 21.0059 -17.9492 25.8594 -13.0957 25.8691 -7.05078 C 25.8789 -1.01562 21.0156 3.84766 14.9707 3.84766 Z M 14.9414 -1.38672 C 15.5176 -1.38672 15.8594 -1.77734 15.8594 -2.38281 L 15.8594 -6.13281 L 19.7754 -6.13281 C 20.3711 -6.13281 20.7812 -6.46484 20.7812 -7.02148 C 20.7812 -7.59766 20.3906 -7.93945 19.7754 -7.93945 L 15.8594 -7.93945 L 15.8594 -11.8652 C 15.8594 -12.4805 15.5176 -12.8711 14.9414 -12.8711 C 14.375 -12.8711 14.0527 -12.4609 14.0527 -11.8652 L 14.0527 -7.93945 L 10.1465 -7.93945 C 9.53125 -7.93945 9.13086 -7.59766 9.13086 -7.02148 C 9.13086 -6.46484 9.55078 -6.13281 10.1465 -6.13281 L 14.0527 -6.13281 L 14.0527 -2.38281 C 14.0527 -1.79688 14.375 -1.38672 14.9414 -1.38672 Z"/>
  </g>
  <text style="stroke:none;fill:black;font-family:-apple-system,&quot;SF Pro Display&quot;,&quot;SF Pro Text&quot;,Helvetica,sans-serif;font-weight:bold;" transform="matrix(1 0 0 1 263 1953)">Design Variations</text>
  <text style="stroke:none;fill:black;font-family:-apple-system,&quot;SF Pro Display&quot;,&quot;SF Pro Text&quot;,Helvetica,sans-serif;" transform="matrix(1 0 0 1 263 1971)">Symbols are supported in up to nine weights and three scales.</text>
  <text style="stroke:none;fill:black;font-family:-apple-system,&quot;SF Pro Display&quot;,&quot;SF Pro Text&quot;,Helvetica,sans-serif;" transform="matrix(1 0 0 1 263 1989)">For optimal layout with text and other symbols, vertically align</text>
  <text style="stroke:none;fill:black;font-family:-apple-system,&quot;SF Pro Display&quot;,&quot;SF Pro Text&quot;,Helvetica,sans-serif;" transform="matrix(1 0 0 1 263 2007)">symbols with the adjacent text.</text>
  <line id="" style="fill:none;stroke:#00AEEF;stroke-width:0.5;opacity:1.0;" x1="776" x2="776" y1="1919" y2="1933"/>
  <g id="" transform="matrix(1 0 0 1 776 1933)">
   <path d="M 3.31055 0.126953 C 3.82812 0.126953 4.08203 -0.0683594 4.26758 -0.605469 L 5.52734 -4.0625 L 11.2891 -4.0625 L 12.5488 -0.605469 C 12.7344 -0.0683594 12.9883 0.126953 13.4961 0.126953 C 14.0137 0.126953 14.3457 -0.185547 14.3457 -0.673828 C 14.3457 -0.839844 14.3164 -0.986328 14.2383 -1.20117 L 9.6582 -13.3887 C 9.43359 -13.9941 9.0332 -14.2871 8.4082 -14.2871 C 7.80273 -14.2871 7.39258 -13.9941 7.17773 -13.3984 L 2.59766 -1.19141 C 2.51953 -0.976562 2.49023 -0.830078 2.49023 -0.664062 C 2.49023 -0.175781 2.80273 0.126953 3.31055 0.126953 Z M 6.00586 -5.53711 L 8.37891 -12.1094 L 8.42773 -12.1094 L 10.8008 -5.53711 Z"/>
  </g>
  <line id="" style="fill:none;stroke:#00AEEF;stroke-width:0.5;opacity:1.0;" x1="792.836" x2="792.836" y1="1919" y2="1933"/>
  <text style="stroke:none;fill:black;font-family:-apple-system,&quot;SF Pro Display&quot;,&quot;SF Pro Text&quot;,Helvetica,sans-serif;font-weight:bold;" transform="matrix(1 0 0 1 776 1953)">Margins</text>
  <text style="stroke:none;fill:black;font-family:-apple-system,&quot;SF Pro Display&quot;,&quot;SF Pro Text&quot;,Helvetica,sans-serif;" transform="matrix(1 0 0 1 776 1971)">Leading and trailing margins on the left and right side of each symbol</text>
  <text style="stroke:none;fill:black;font-family:-apple-system,&quot;SF Pro Display&quot;,&quot;SF Pro Text&quot;,Helvetica,sans-serif;" transform="matrix(1 0 0 1 776 1989)">can be adjusted by modifying the x-location of the margin guidelines.</text>
  <text style="stroke:none;fill:black;font-family:-apple-system,&quot;SF Pro Display&quot;,&quot;SF Pro Text&quot;,Helvetica,sans-serif;" transform="matrix(1 0 0 1 776 2007)">Modifications are automatically applied proportionally to all</text>
  <text style="stroke:none;fill:black;font-family:-apple-system,&quot;SF Pro Display&quot;,&quot;SF Pro Text&quot;,Helvetica,sans-serif;" transform="matrix(1 0 0 1 776 2025)">scales and weights.</text>
  <g id="" transform="matrix(1 0 0 1 1289 1933)">
   <path d="M 2.8418 1.86523 L 4.54102 3.57422 C 5.40039 4.44336 6.38672 4.38477 7.31445 3.35938 L 17.4902 -7.85156 C 17.7539 -7.76367 18.0273 -7.7832 18.3398 -7.8418 L 19.4043 -8.03711 L 20.0684 -7.36328 L 20.0293 -6.80664 C 19.9902 -6.30859 20.1172 -5.92773 20.6055 -5.44922 L 21.3672 -4.70703 C 21.8457 -4.22852 22.4609 -4.19922 22.9297 -4.66797 L 25.8398 -7.58789 C 26.3086 -8.05664 26.2891 -8.65234 25.8105 -9.13086 L 25.0391 -9.89258 C 24.5605 -10.3711 24.1895 -10.5273 23.7109 -10.4883 L 23.1348 -10.4395 L 22.4902 -11.0742 L 22.7344 -12.1973 C 22.8613 -12.7637 22.7051 -13.2031 22.1191 -13.7891 L 19.9219 -15.9766 C 16.582 -19.2969 12.1484 -19.2188 9.25781 -16.3281 C 8.83789 -15.918 8.80859 -15.3418 9.04297 -14.9512 C 9.27734 -14.5898 9.73633 -14.3555 10.3809 -14.5215 C 11.8457 -14.8633 13.3691 -14.9219 14.7949 -13.9844 L 14.209 -12.5293 C 14.0137 -12.0508 13.9844 -11.6504 14.1113 -11.2891 L 3.04688 -0.898438 C 2.06055 0.0195312 1.98242 0.996094 2.8418 1.86523 Z M 10.752 -15.957 C 13.1836 -17.7344 16.4746 -17.4316 18.7012 -15.2051 L 21.1328 -12.793 C 21.3672 -12.5586 21.4062 -12.373 21.3379 -12.0312 L 21.0156 -10.5469 L 22.5195 -9.0625 L 23.5059 -9.12109 C 23.7598 -9.13086 23.8379 -9.11133 24.0332 -8.91602 L 24.6094 -8.33984 L 22.168 -5.89844 L 21.5918 -6.47461 C 21.3965 -6.66992 21.3672 -6.74805 21.377 -7.01172 L 21.4453 -7.98828 L 19.9512 -9.47266 L 18.4277 -9.21875 C 18.1055 -9.15039 17.959 -9.17969 17.7148 -9.41406 L 15.7129 -11.416 C 15.459 -11.6504 15.4297 -11.8164 15.5859 -12.1875 L 16.4648 -14.2773 C 14.9023 -15.7324 12.8711 -16.3574 10.8398 -15.7617 C 10.6836 -15.7227 10.625 -15.8496 10.752 -15.957 Z M 5.27344 2.30469 L 4.10156 1.14258 C 3.63281 0.683594 3.74023 0.341797 4.14062 -0.0195312 L 14.9512 -10.1953 L 16.416 -8.71094 L 6.42578 2.27539 C 6.07422 2.67578 5.74219 2.77344 5.27344 2.30469 Z"/>
  </g>
  <text style="stroke:none;fill:black;font-family:-apple-system,&quot;SF Pro Display&quot;,&quot;SF Pro Text&quot;,Helvetica,sans-serif;font-weight:bold;" transform="matrix(1 0 0 1 1289 1953)">Exporting</text>
  <text style="stroke:none;fill:black;font-family:-apple-system,&quot;SF Pro Display&quot;,&quot;SF Pro Text&quot;,Helvetica,sans-serif;" transform="matrix(1 0 0 1 1289 1971)">Symbols should be outlined when exporting to ensure the</text>
  <text style="stroke:none;fill:black;font-family:-apple-system,&quot;SF Pro Display&quot;,&quot;SF Pro Text&quot;,Helvetica,sans-serif;" transform="matrix(1 0 0 1 1289 1989)">design is preserved when submitting to Xcode.</text>
  <text id="template-version" style="stroke:none;fill:black;font-family:-apple-system,&quot;SF Pro Display&quot;,&quot;SF Pro Text&quot;,Helvetica,sans-serif;text-anchor:end;" transform="matrix(1 0 0 1 3036 1933)">Template v.2.0</text>
  <text style="stroke:none;fill:black;font-family:-apple-system,&quot;SF Pro Display&quot;,&quot;SF Pro Text&quot;,Helvetica,sans-serif;text-anchor:end;" transform="matrix(1 0 0 1 3036 1951)">Requires Xcode 12 or greater</text>
  <text style="stroke:none;fill:black;font-family:-apple-system,&quot;SF Pro Display&quot;,&quot;SF Pro Text&quot;,Helvetica,sans-serif;text-anchor:end;" transform="matrix(1 0 0 1 3036 1969)">Generated from person.fill.xmark</text>
  <text style="stroke:none;fill:black;font-family:-apple-system,&quot;SF Pro Display&quot;,&quot;SF Pro Text&quot;,Helvetica,sans-serif;text-anchor:end;" transform="matrix(1 0 0 1 3036 1987)">Typeset at 100 points</text>
  <text style="stroke:none;fill:black;font-family:-apple-system,&quot;SF Pro Display&quot;,&quot;SF Pro Text&quot;,Helvetica,sans-serif;" transform="matrix(1 0 0 1 263 726)">Small</text>
  <text style="stroke:none;fill:black;font-family:-apple-system,&quot;SF Pro Display&quot;,&quot;SF Pro Text&quot;,Helvetica,sans-serif;" transform="matrix(1 0 0 1 263 1156)">Medium</text>
  <text style="stroke:none;fill:black;font-family:-apple-system,&quot;SF Pro Display&quot;,&quot;SF Pro Text&quot;,Helvetica,sans-serif;" transform="matrix(1 0 0 1 263 1586)">Large</text>
 </g>
 <g id="Guides">
  <g id="H-reference" style="fill:#27AAE1;stroke:none;" transform="matrix(1 0 0 1 339 696)">
   <path d="M 0.976562 0 L 3.66211 0 L 12.9883 -24.4629 L 45.7031 -24.4629 L 55.0781 0 L 57.7148 0 L 30.6152 -70.459 L 28.125 -70.459 Z M 29.2969 -67.1387 L 29.3945 -67.1387 L 44.873 -26.709 L 13.8672 -26.709 Z"/>
  </g>
  <line id="Baseline-S" style="fill:none;stroke:#27AAE1;opacity:1;stroke-width:0.5;" x1="263" x2="3036" y1="696" y2="696"/>
  <line id="Capline-S" style="fill:none;stroke:#27AAE1;opacity:1;stroke-width:0.5;" x1="263" x2="3036" y1="625.541" y2="625.541"/>
  <g id="H-reference" style="fill:#27AAE1;stroke:none;" transform="matrix(1 0 0 1 339 1126)">
   <path d="M 0.976562 0 L 3.66211 0 L 12.9883 -24.4629 L 45.7031 -24.4629 L 55.0781 0 L 57.7148 0 L 30.6152 -70.459 L 28.125 -70.459 Z M 29.2969 -67.1387 L 29.3945 -67.1387 L 44.873 -26.709 L 13.8672 -26.709 Z"/>
  </g>
  <line id="Baseline-M" style="fill:none;stroke:#27AAE1;opacity:1;stroke-width:0.5;" x1="263" x2="3036" y1="1126" y2="1126"/>
  <line id="Capline-M" style="fill:none;stroke:#27AAE1;opacity:1;stroke-width:0.5;" x1="263" x2="3036" y1="1055.54" y2="1055.54"/>
  <g id="H-reference" style="fill:#27AAE1;stroke:none;" transform="matrix(1 0 0 1 339 1556)">
   <path d="M 0.976562 0 L 3.66211 0 L 12.9883 -24.4629 L 45.7031 -24.4629 L 55.0781 0 L 57.7148 0 L 30.6152 -70.459 L 28.125 -70.459 Z M 29.2969 -67.1387 L 29.3945 -67.1387 L 44.873 -26.709 L 13.8672 -26.709 Z"/>
  </g>
  <line id="Baseline-L" style="fill:none;stroke:#27AAE1;opacity:1;stroke-width:0.5;" x1="263" x2="3036" y1="1556" y2="1556"/>
  <line id="Capline-L" style="fill:none;stroke:#27AAE1;opacity:1;stroke-width:0.5;" x1="263" x2="3036" y1="1485.54" y2="1485.54"/>
  <line id="left-margin" style="fill:none;stroke:#00AEEF;stroke-width:0.5;opacity:1.0;" x1="1377.75" x2="1377.75" y1="1030.79" y2="1150.12"/>
  <line id="right-margin" style="fill:none;stroke:#00AEEF;stroke-width:0.5;opacity:1.0;" x1="1521.94" x2="1521.94" y1="1030.79" y2="1150.12"/>
 </g>
 <g id="Symbols">
  <g id="Black-L" transform="matrix(1 0 0 1 2840.9 1556)">
   <path d="M 70.0684 -35.6934 C 84.6191 -35.6934 96.2402 -48.3398 96.2402 -64.2578 C 96.2402 -79.541 84.4727 -92.2363 70.0684 -92.2363 C 55.6152 -92.2363 43.8477 -79.4434 43.8965 -64.209 C 43.9453 -48.3398 55.5176 -35.6934 70.0684 -35.6934 Z M 124.756 -37.5 C 127.197 -37.5 129.15 -38.2324 130.713 -39.8438 L 142.822 -51.9043 L 154.98 -39.8438 C 156.543 -38.2812 158.496 -37.5 160.938 -37.5 C 165.43 -37.5 168.945 -40.9668 168.945 -45.5566 C 168.945 -47.6074 168.066 -49.5605 166.504 -51.0742 L 154.297 -63.3789 L 166.553 -75.6836 C 168.066 -77.2461 168.945 -79.1504 168.945 -81.2012 C 168.945 -85.7422 165.479 -89.209 160.938 -89.209 C 158.545 -89.209 156.689 -88.4766 155.078 -86.8652 L 142.822 -74.7559 L 130.664 -86.8652 C 129.102 -88.4277 127.197 -89.209 124.756 -89.209 C 120.264 -89.209 116.797 -85.7422 116.797 -81.1523 C 116.797 -79.1504 117.676 -77.1484 119.189 -75.6348 L 131.494 -63.3789 L 119.189 -51.0742 C 117.676 -49.5605 116.797 -47.5586 116.797 -45.5566 C 116.797 -40.9668 120.264 -37.5 124.756 -37.5 Z M 31.9824 23.9258 L 108.154 23.9258 C 120.215 23.9258 124.072 19.7266 124.072 13.0371 C 124.072 -2.97852 102.734 -24.8535 70.0684 -24.8535 C 37.3535 -24.8535 16.0645 -2.97852 16.0645 13.0371 C 16.0645 19.7266 19.873 23.9258 31.9824 23.9258 Z"/>
  </g>
  <g id="Heavy-L" transform="matrix(1 0 0 1 2544.16 1556)">
   <path d="M 69.8242 -35.7422 C 84.1309 -35.7422 95.7031 -48.2422 95.7031 -64.0625 C 95.7031 -79.3945 83.9844 -91.7969 69.8242 -91.7969 C 55.6152 -91.7969 43.8477 -79.248 43.8965 -64.0137 C 43.9453 -48.2422 55.4688 -35.7422 69.8242 -35.7422 Z M 123.926 -37.4512 C 126.074 -37.4512 127.783 -38.1348 129.199 -39.5508 L 142.822 -53.1738 L 156.543 -39.5508 C 157.959 -38.1348 159.668 -37.4512 161.816 -37.4512 C 165.869 -37.4512 168.994 -40.5762 168.994 -44.6289 C 168.994 -46.4844 168.213 -48.1934 166.797 -49.5605 L 153.076 -63.3789 L 166.846 -77.1973 C 168.262 -78.6133 168.994 -80.3223 168.994 -82.1289 C 168.994 -86.2305 165.869 -89.3066 161.865 -89.3066 C 159.766 -89.3066 158.105 -88.6719 156.641 -87.207 L 142.822 -73.4863 L 129.15 -87.1582 C 127.734 -88.623 126.074 -89.2578 123.926 -89.2578 C 119.873 -89.2578 116.797 -86.1816 116.797 -82.1289 C 116.797 -80.2734 117.578 -78.5156 118.945 -77.1973 L 132.715 -63.3789 L 118.945 -49.5605 C 117.578 -48.1934 116.797 -46.4355 116.797 -44.6289 C 116.797 -40.5762 119.873 -37.4512 123.926 -37.4512 Z M 31.2012 23.4863 L 108.398 23.4863 C 119.775 23.4863 123.486 19.6777 123.486 13.2812 C 123.486 -2.7832 102.441 -24.7559 69.7754 -24.7559 C 37.1094 -24.7559 16.0645 -2.7832 16.0645 13.2812 C 16.0645 19.6777 19.8242 23.4863 31.2012 23.4863 Z"/>
  </g>
  <g id="Bold-L" transform="matrix(1 0 0 1 2247.42 1556)">
   <path d="M 69.5312 -35.7422 C 83.5938 -35.7422 95.1172 -48.0957 95.1172 -63.8672 C 95.1172 -79.1504 83.4473 -91.3574 69.5312 -91.3574 C 55.5664 -91.3574 43.8477 -79.0039 43.8965 -63.8184 C 43.9453 -48.0957 55.4688 -35.7422 69.5312 -35.7422 Z M 122.949 -37.3535 C 124.805 -37.3535 126.318 -37.9883 127.49 -39.209 L 142.871 -54.5898 L 158.301 -39.209 C 159.521 -37.9883 160.986 -37.3535 162.842 -37.3535 C 166.309 -37.3535 169.043 -40.0879 169.043 -43.6035 C 169.043 -45.2148 168.359 -46.6797 167.139 -47.9004 L 151.709 -63.3789 L 167.188 -78.9551 C 168.457 -80.1758 169.043 -81.6406 169.043 -83.252 C 169.043 -86.7188 166.357 -89.4043 162.891 -89.4043 C 161.084 -89.4043 159.717 -88.8184 158.398 -87.5488 L 142.871 -72.1191 L 127.441 -87.5 C 126.221 -88.7695 124.805 -89.3555 122.949 -89.3555 C 119.482 -89.3555 116.797 -86.6699 116.797 -83.2031 C 116.797 -81.5918 117.432 -80.0781 118.652 -78.9062 L 134.131 -63.3789 L 118.652 -47.8516 C 117.432 -46.6797 116.797 -45.2148 116.797 -43.6035 C 116.797 -40.0879 119.482 -37.3535 122.949 -37.3535 Z M 30.3223 23.0469 L 108.643 23.0469 C 119.238 23.0469 122.9 19.6289 122.9 13.5742 C 122.9 -2.53906 102.1 -24.6582 69.4824 -24.6582 C 36.8652 -24.6582 16.0645 -2.53906 16.0645 13.5742 C 16.0645 19.6289 19.7266 23.0469 30.3223 23.0469 Z"/>
  </g>
  <g id="Semibold-L" transform="matrix(1 0 0 1 1950.69 1556)">
   <path d="M 69.2871 -35.7422 C 83.2031 -35.7422 94.6777 -47.998 94.6777 -63.7207 C 94.6777 -79.0527 83.1055 -91.0156 69.2871 -91.0156 C 55.5176 -91.0156 43.8477 -78.8574 43.9453 -63.6719 C 43.9453 -47.998 55.4199 -35.7422 69.2871 -35.7422 Z M 122.314 -37.3047 C 123.926 -37.3047 125.244 -37.8906 126.367 -39.0137 L 142.92 -55.5664 L 159.521 -39.0137 C 160.596 -37.9395 161.914 -37.3047 163.525 -37.3047 C 166.65 -37.3047 169.092 -39.7461 169.092 -42.8711 C 169.092 -44.3848 168.457 -45.6543 167.383 -46.7285 L 150.781 -63.3789 L 167.432 -80.127 C 168.555 -81.25 169.092 -82.5195 169.092 -83.9844 C 169.092 -87.0605 166.699 -89.4531 163.574 -89.4531 C 162.012 -89.4531 160.791 -88.9648 159.619 -87.793 L 142.92 -71.1426 L 126.27 -87.7441 C 125.195 -88.8672 123.926 -89.4043 122.314 -89.4043 C 119.189 -89.4043 116.797 -87.0117 116.797 -83.9355 C 116.797 -82.4707 117.383 -81.1523 118.457 -80.0781 L 135.107 -63.3789 L 118.457 -46.7285 C 117.383 -45.6543 116.797 -44.3359 116.797 -42.8711 C 116.797 -39.7461 119.189 -37.3047 122.314 -37.3047 Z M 29.6875 22.7051 L 108.838 22.7051 C 118.848 22.7051 122.461 19.6289 122.461 13.7695 C 122.461 -2.39258 101.855 -24.6094 69.2871 -24.6094 C 36.6699 -24.6094 16.0645 -2.39258 16.0645 13.7695 C 16.0645 19.6289 19.6777 22.7051 29.6875 22.7051 Z"/>
  </g>
  <g id="Medium-L" transform="matrix(1 0 0 1 1653.95 1556)">
   <path d="M 69.1406 -35.7422 C 82.9102 -35.7422 94.3848 -47.9492 94.3848 -63.623 C 94.3848 -78.9062 82.8125 -90.7715 69.1406 -90.7715 C 55.5176 -90.7715 43.8965 -78.7598 43.9453 -63.5254 C 43.9453 -47.9492 55.4199 -35.7422 69.1406 -35.7422 Z M 121.826 -37.3047 C 123.242 -37.3047 124.463 -37.793 125.488 -38.8184 L 142.92 -56.2988 L 160.4 -38.8184 C 161.426 -37.8418 162.598 -37.3047 164.062 -37.3047 C 166.895 -37.3047 169.092 -39.502 169.092 -42.334 C 169.092 -43.7012 168.555 -44.873 167.578 -45.8496 L 150.049 -63.4277 L 167.627 -81.0059 C 168.652 -82.0801 169.141 -83.2031 169.141 -84.5215 C 169.141 -87.3535 166.943 -89.502 164.111 -89.502 C 162.744 -89.502 161.621 -89.0625 160.547 -87.9883 L 142.92 -70.459 L 125.391 -87.9395 C 124.365 -88.9648 123.242 -89.4531 121.826 -89.4531 C 118.994 -89.4531 116.797 -87.3047 116.797 -84.5215 C 116.797 -83.1543 117.334 -81.9336 118.311 -81.0059 L 135.84 -63.4277 L 118.311 -45.8496 C 117.334 -44.873 116.797 -43.6523 116.797 -42.334 C 116.797 -39.502 118.994 -37.3047 121.826 -37.3047 Z M 29.248 22.4609 L 108.984 22.4609 C 118.604 22.4609 122.168 19.5801 122.168 13.916 C 122.168 -2.29492 101.709 -24.5605 69.0918 -24.5605 C 36.5234 -24.5605 16.0645 -2.29492 16.0645 13.916 C 16.0645 19.5801 19.6289 22.4609 29.248 22.4609 Z"/>
  </g>
  <g id="Regular-L" transform="matrix(1 0 0 1 1357.22 1556)">
   <path d="M 68.9453 -35.791 C 82.5684 -35.791 93.9941 -47.8516 93.9941 -63.5254 C 93.9941 -78.8086 82.4707 -90.4785 68.9453 -90.4785 C 55.4688 -90.4785 43.8965 -78.5645 43.9453 -63.3789 C 43.9453 -47.8516 55.3711 -35.791 68.9453 -35.791 Z M 121.143 -37.2559 C 122.412 -37.2559 123.438 -37.6953 124.316 -38.623 L 142.92 -57.2754 L 161.621 -38.623 C 162.451 -37.7441 163.525 -37.2559 164.746 -37.2559 C 167.188 -37.2559 169.141 -39.209 169.141 -41.6016 C 169.141 -42.8711 168.701 -43.8477 167.822 -44.7266 L 149.121 -63.4277 L 167.871 -82.2266 C 168.799 -83.1055 169.189 -84.082 169.189 -85.3027 C 169.189 -87.6953 167.236 -89.5996 164.795 -89.5996 C 163.672 -89.5996 162.695 -89.1602 161.768 -88.2324 L 142.92 -69.4824 L 124.219 -88.1836 C 123.34 -89.0625 122.412 -89.502 121.143 -89.502 C 118.701 -89.502 116.797 -87.6465 116.797 -85.2539 C 116.797 -84.0332 117.236 -82.959 118.115 -82.1289 L 136.816 -63.4277 L 118.115 -44.6777 C 117.236 -43.8477 116.797 -42.8223 116.797 -41.6016 C 116.797 -39.209 118.701 -37.2559 121.143 -37.2559 Z M 28.6133 22.168 L 109.18 22.168 C 118.213 22.168 121.729 19.5801 121.729 14.0625 C 121.729 -2.14844 101.465 -24.4629 68.8965 -24.4629 C 36.3281 -24.4629 16.0645 -2.14844 16.0645 14.0625 C 16.0645 19.5801 19.5801 22.168 28.6133 22.168 Z"/>
  </g>
  <g id="Light-L" transform="matrix(1 0 0 1 1061.04 1556)">
   <path d="M 68.75 -35.6445 C 82.4219 -35.6445 93.5059 -47.6074 93.5059 -63.1836 C 93.5059 -78.125 82.2754 -89.9902 68.75 -89.9902 C 55.2246 -89.9902 43.8965 -77.9785 43.9941 -63.0859 C 43.9941 -47.6074 55.0781 -35.6445 68.75 -35.6445 Z M 120.215 -37.793 C 121.24 -37.793 122.021 -38.1348 122.754 -38.916 L 142.432 -58.5938 L 162.109 -38.916 C 162.842 -38.1836 163.672 -37.793 164.648 -37.793 C 166.553 -37.793 168.066 -39.3066 168.066 -41.1621 C 168.066 -42.1387 167.725 -42.9199 166.992 -43.6523 L 147.266 -63.4277 L 167.041 -83.252 C 167.822 -83.9844 168.115 -84.7168 168.115 -85.6934 C 168.115 -87.5488 166.602 -89.0137 164.697 -89.0137 C 163.77 -89.0137 163.037 -88.7207 162.207 -87.8906 L 142.432 -68.1641 L 122.705 -87.8906 C 121.973 -88.6719 121.24 -88.9648 120.215 -88.9648 C 118.311 -88.9648 116.797 -87.5488 116.797 -85.6934 C 116.797 -84.7168 117.139 -83.8867 117.871 -83.2031 L 137.598 -63.4277 L 117.871 -43.6035 C 117.139 -42.9199 116.797 -42.1387 116.797 -41.1621 C 116.797 -39.3066 118.311 -37.793 120.215 -37.793 Z M 27.4414 21.8262 L 109.863 21.8262 C 117.773 21.8262 121.24 19.5312 121.24 14.0625 C 121.24 -2.05078 101.074 -24.3164 68.6523 -24.3164 C 36.2305 -24.3164 16.0645 -2.05078 16.0645 14.0625 C 16.0645 19.5312 19.5312 21.8262 27.4414 21.8262 Z"/>
  </g>
  <g id="Thin-L" transform="matrix(1 0 0 1 765.04 1556)">
   <path d="M 68.5059 -35.498 C 82.2754 -35.498 92.9199 -47.3145 92.9199 -62.7441 C 92.9199 -77.2461 82.0801 -89.4043 68.5059 -89.4043 C 54.9316 -89.4043 43.8965 -77.1973 44.043 -62.6953 C 44.043 -47.3145 54.6875 -35.498 68.5059 -35.498 Z M 118.945 -38.5254 C 119.678 -38.5254 120.117 -38.7207 120.703 -39.3555 L 141.748 -60.4004 L 162.793 -39.3555 C 163.379 -38.7207 163.867 -38.5254 164.502 -38.5254 C 165.723 -38.5254 166.699 -39.4043 166.699 -40.5762 C 166.699 -41.2109 166.504 -41.6992 165.967 -42.2363 L 144.775 -63.4277 L 165.967 -84.6191 C 166.504 -85.1562 166.699 -85.6445 166.699 -86.2793 C 166.699 -87.4023 165.723 -88.2812 164.502 -88.2812 C 163.867 -88.2812 163.428 -88.0859 162.793 -87.5 L 141.748 -66.4551 L 120.703 -87.5 C 120.068 -88.0859 119.678 -88.2812 118.945 -88.2812 C 117.725 -88.2812 116.797 -87.4023 116.797 -86.2793 C 116.797 -85.5957 116.992 -85.1074 117.529 -84.6191 L 138.672 -63.4277 L 117.529 -42.2363 C 116.992 -41.6992 116.797 -41.2109 116.797 -40.5762 C 116.797 -39.4043 117.725 -38.5254 118.945 -38.5254 Z M 25.8789 21.3379 L 110.791 21.3379 C 117.139 21.3379 120.605 19.4336 120.605 14.0137 C 120.605 -2.00195 100.537 -24.1211 68.3594 -24.1211 C 36.1328 -24.1211 16.0645 -2.00195 16.0645 14.0137 C 16.0645 19.4336 19.5312 21.3379 25.8789 21.3379 Z"/>
  </g>
  <g id="Ultralight-L" transform="matrix(1 0 0 1 468.695 1556)">
   <path d="M 68.3594 -35.4004 C 82.2266 -35.4004 92.627 -47.168 92.627 -62.5 C 92.627 -76.8066 81.9336 -89.0625 68.3594 -89.0625 C 54.7363 -89.0625 43.8965 -76.8066 44.043 -62.5 C 44.043 -47.168 54.4922 -35.4004 68.3594 -35.4004 Z M 118.311 -38.916 C 118.896 -38.916 119.141 -39.0137 119.678 -39.5508 L 141.406 -61.2793 L 163.086 -39.5508 C 163.623 -39.0137 163.965 -38.916 164.453 -38.916 C 165.332 -38.916 165.967 -39.502 165.967 -40.2832 C 165.967 -40.7715 165.869 -41.0645 165.43 -41.5039 L 143.506 -63.4277 L 165.43 -85.3027 C 165.82 -85.7422 165.967 -86.084 165.967 -86.5723 C 165.967 -87.3535 165.283 -87.9395 164.453 -87.9395 C 163.965 -87.9395 163.623 -87.793 163.086 -87.2559 L 141.406 -65.5762 L 119.678 -87.3047 C 119.141 -87.793 118.896 -87.9395 118.311 -87.9395 C 117.432 -87.9395 116.797 -87.3535 116.797 -86.5723 C 116.797 -86.084 116.895 -85.7422 117.334 -85.3027 L 139.258 -63.4277 L 117.334 -41.5039 C 116.895 -41.0645 116.797 -40.7715 116.797 -40.2832 C 116.797 -39.502 117.432 -38.916 118.311 -38.916 Z M 25.0977 21.0449 L 111.279 21.0449 C 116.846 21.0449 120.312 19.3848 120.312 14.0137 C 120.312 -1.95312 100.293 -24.0234 68.1641 -24.0234 C 36.0352 -24.0234 16.0645 -1.95312 16.0645 14.0137 C 16.0645 19.3848 19.5312 21.0449 25.0977 21.0449 Z"/>
  </g>
  <g id="Black-M" transform="matrix(1 0 0 1 2862.04 1126)">
   <path d="M 54.541 -35.498 C 66.1621 -35.498 75.0488 -45.4102 75.0488 -57.7637 C 75.0488 -69.4824 66.0156 -79.7363 54.541 -79.7363 C 43.0664 -79.7363 33.9355 -69.4824 34.0332 -57.7637 C 34.082 -45.4102 42.9199 -35.498 54.541 -35.498 Z M 97.3633 -37.3535 C 99.5117 -37.3535 101.123 -37.9883 102.539 -39.3555 L 110.352 -47.168 L 118.262 -39.3555 C 119.678 -37.9883 121.289 -37.3535 123.438 -37.3535 C 127.344 -37.3535 130.273 -40.2832 130.273 -44.2383 C 130.273 -45.9473 129.541 -47.6562 128.223 -48.9746 L 120.215 -57.0312 L 128.223 -65.0391 C 129.541 -66.3574 130.273 -68.0664 130.273 -69.7754 C 130.273 -73.7305 127.344 -76.6602 123.438 -76.6602 C 121.289 -76.6602 119.678 -76.0254 118.262 -74.6582 L 110.352 -66.7969 L 102.539 -74.6582 C 101.123 -76.0254 99.5117 -76.6602 97.3633 -76.6602 C 93.457 -76.6602 90.5273 -73.7305 90.5273 -69.7754 C 90.5273 -68.0664 91.2598 -66.3574 92.5781 -65.0391 L 100.635 -57.0312 L 92.5781 -48.9746 C 91.2598 -47.6562 90.5273 -45.9473 90.5273 -44.2383 C 90.5273 -40.2832 93.457 -37.3535 97.3633 -37.3535 Z M 25.1953 10.9375 L 83.8867 10.9375 C 93.5547 10.9375 96.6309 7.37305 96.6309 1.85547 C 96.6309 -10.498 79.834 -27.2461 54.541 -27.2461 C 29.248 -27.2461 12.4512 -10.498 12.4512 1.85547 C 12.4512 7.37305 15.5273 10.9375 25.1953 10.9375 Z"/>
  </g>
  <g id="Heavy-M" transform="matrix(1 0 0 1 2565.16 1126)">
   <path d="M 54.2969 -35.5469 C 65.6738 -35.5469 74.6094 -45.3613 74.6094 -57.666 C 74.6094 -69.4336 65.5762 -79.3945 54.2969 -79.3945 C 43.0664 -79.3945 33.9844 -69.3848 34.0332 -57.6172 C 34.082 -45.3613 42.9688 -35.5469 54.2969 -35.5469 Z M 96.6797 -37.1582 C 98.584 -37.1582 100.049 -37.6953 101.27 -38.9648 L 110.547 -48.1934 L 119.873 -38.9648 C 121.094 -37.7441 122.559 -37.1582 124.463 -37.1582 C 127.93 -37.1582 130.615 -39.7949 130.615 -43.3594 C 130.615 -44.9219 129.932 -46.4355 128.76 -47.6074 L 119.385 -57.0312 L 128.76 -66.4551 C 129.98 -67.6758 130.615 -69.1406 130.615 -70.7031 C 130.615 -74.2676 127.979 -76.9043 124.463 -76.9043 C 122.607 -76.9043 121.143 -76.3184 119.873 -75.0977 L 110.547 -65.8203 L 101.27 -75.0977 C 100 -76.3184 98.584 -76.9043 96.6797 -76.9043 C 93.1641 -76.9043 90.5273 -74.2188 90.5273 -70.7031 C 90.5273 -69.1406 91.2109 -67.627 92.3828 -66.4551 L 101.807 -57.0312 L 92.3828 -47.6074 C 91.2109 -46.4355 90.5273 -44.9219 90.5273 -43.3594 C 90.5273 -39.7949 93.1641 -37.1582 96.6797 -37.1582 Z M 24.6582 10.5957 L 83.9355 10.5957 C 93.1641 10.5957 96.1426 7.32422 96.1426 2.14844 C 96.1426 -10.2539 79.5898 -27.1484 54.2969 -27.1484 C 29.0039 -27.1484 12.4512 -10.2539 12.4512 2.14844 C 12.4512 7.32422 15.4297 10.5957 24.6582 10.5957 Z"/>
  </g>
  <g id="Bold-M" transform="matrix(1 0 0 1 2268.25 1126)">
   <path d="M 54.0527 -35.5957 C 65.0879 -35.5957 74.0723 -45.2637 74.0723 -57.5684 C 74.0723 -69.4336 65.0391 -79.0039 54.0527 -79.0039 C 43.0664 -79.0039 33.9844 -69.3359 34.0332 -57.5195 C 34.082 -45.2637 43.0176 -35.5957 54.0527 -35.5957 Z M 95.8984 -36.9141 C 97.5098 -36.9141 98.8281 -37.4512 99.8535 -38.5254 L 110.742 -49.3652 L 121.631 -38.5254 C 122.705 -37.4512 123.975 -36.9141 125.586 -36.9141 C 128.613 -36.9141 131.006 -39.2578 131.006 -42.334 C 131.006 -43.75 130.42 -45.0195 129.346 -46.0938 L 118.408 -57.0312 L 129.395 -68.0664 C 130.469 -69.0918 131.006 -70.4102 131.006 -71.7773 C 131.006 -74.8535 128.662 -77.1484 125.635 -77.1484 C 124.023 -77.1484 122.803 -76.6602 121.68 -75.5859 L 110.742 -64.6973 L 99.8047 -75.5371 C 98.7793 -76.6113 97.5098 -77.1484 95.8984 -77.1484 C 92.8711 -77.1484 90.5273 -74.8047 90.5273 -71.7285 C 90.5273 -70.3613 91.1133 -69.043 92.1387 -68.0176 L 103.076 -57.0312 L 92.1387 -46.0449 C 91.1133 -45.0195 90.5273 -43.7012 90.5273 -42.334 C 90.5273 -39.2578 92.8711 -36.9141 95.8984 -36.9141 Z M 24.0234 10.2051 L 84.0332 10.2051 C 92.7246 10.2051 95.6055 7.32422 95.6055 2.44141 C 95.6055 -10.0586 79.3457 -27.0996 54.0527 -27.0996 C 28.7109 -27.0996 12.4512 -10.0586 12.4512 2.44141 C 12.4512 7.32422 15.332 10.2051 24.0234 10.2051 Z"/>
  </g>
  <g id="Semibold-M" transform="matrix(1 0 0 1 1971.42 1126)">
   <path d="M 53.8574 -35.6445 C 64.6973 -35.6445 73.7305 -45.2148 73.7305 -57.4707 C 73.7305 -69.3848 64.6484 -78.7598 53.8574 -78.7598 C 43.1152 -78.7598 33.9844 -69.2871 34.0332 -57.4219 C 34.0332 -45.2148 43.0176 -35.6445 53.8574 -35.6445 Z M 95.3613 -36.7676 C 96.7773 -36.7676 97.9492 -37.2559 98.9258 -38.1836 L 110.84 -50.1465 L 122.852 -38.1836 C 123.779 -37.2559 124.951 -36.7676 126.367 -36.7676 C 129.102 -36.7676 131.25 -38.916 131.25 -41.6504 C 131.25 -42.9199 130.713 -44.0918 129.785 -45.0195 L 117.773 -57.0312 L 129.785 -69.1406 C 130.762 -70.1172 131.25 -71.2402 131.25 -72.5098 C 131.25 -75.2441 129.15 -77.3438 126.416 -77.3438 C 125.049 -77.3438 123.926 -76.9043 122.949 -75.8789 L 110.84 -63.916 L 98.8281 -75.8789 C 97.9004 -76.8555 96.7773 -77.2949 95.3613 -77.2949 C 92.627 -77.2949 90.5273 -75.1953 90.5273 -72.4609 C 90.5273 -71.1914 91.0156 -70.0195 91.9922 -69.0918 L 104.004 -57.0312 L 91.9922 -45.0195 C 91.0156 -44.0918 90.5273 -42.9199 90.5273 -41.6504 C 90.5273 -38.916 92.627 -36.7676 95.3613 -36.7676 Z M 23.6328 9.96094 L 84.082 9.96094 C 92.4316 9.96094 95.2637 7.27539 95.2637 2.63672 C 95.2637 -9.86328 79.1504 -27.0508 53.8574 -27.0508 C 28.5156 -27.0508 12.4512 -9.86328 12.4512 2.63672 C 12.4512 7.27539 15.2832 9.96094 23.6328 9.96094 Z"/>
  </g>
  <g id="Medium-M" transform="matrix(1 0 0 1 1674.58 1126)">
   <path d="M 53.7598 -35.6934 C 64.4043 -35.6934 73.4375 -45.166 73.4375 -57.4219 C 73.4375 -69.3848 64.3555 -78.5645 53.7598 -78.5645 C 43.1152 -78.5645 33.9844 -69.2383 34.0332 -57.3242 C 34.0332 -45.166 43.0664 -35.6934 53.7598 -35.6934 Z M 94.9707 -36.6211 C 96.2402 -36.6211 97.3145 -37.1094 98.1934 -37.9883 L 110.938 -50.7812 L 123.779 -37.9883 C 124.609 -37.1094 125.684 -36.6211 127.002 -36.6211 C 129.492 -36.6211 131.445 -38.623 131.445 -41.1133 C 131.445 -42.334 130.957 -43.3594 130.078 -44.2383 L 117.285 -57.0801 L 130.127 -69.9707 C 131.055 -70.8496 131.494 -71.875 131.494 -73.0469 C 131.494 -75.5371 129.492 -77.4902 127.002 -77.4902 C 125.781 -77.4902 124.805 -77.0996 123.877 -76.1719 L 110.938 -63.2812 L 98.0957 -76.123 C 97.2656 -77.002 96.2402 -77.3926 94.9707 -77.3926 C 92.4805 -77.3926 90.5273 -75.4883 90.5273 -72.998 C 90.5273 -71.8262 90.9668 -70.752 91.8457 -69.9219 L 104.688 -57.0801 L 91.8457 -44.1895 C 90.9668 -43.3594 90.5273 -42.2852 90.5273 -41.1133 C 90.5273 -38.623 92.4805 -36.6211 94.9707 -36.6211 Z M 23.291 9.7168 L 84.1309 9.7168 C 92.1875 9.7168 94.9707 7.27539 94.9707 2.7832 C 94.9707 -9.76562 79.0527 -27.0508 53.7109 -27.0508 C 28.418 -27.0508 12.4512 -9.76562 12.4512 2.7832 C 12.4512 7.27539 15.2344 9.7168 23.291 9.7168 Z"/>
  </g>
  <g id="Regular-M" transform="matrix(1 0 0 1 1377.75 1126)">
   <path d="M 53.5645 -35.7422 C 64.0137 -35.7422 73.0957 -45.1172 73.0957 -57.3242 C 73.0957 -69.3848 64.0137 -78.3203 53.5645 -78.3203 C 43.1152 -78.3203 34.0332 -69.1895 34.0332 -57.2266 C 34.0332 -45.1172 43.0664 -35.7422 53.5645 -35.7422 Z M 94.4336 -36.4746 C 95.5078 -36.4746 96.4844 -36.9141 97.2168 -37.6953 L 111.084 -51.5625 L 124.951 -37.6953 C 125.684 -36.9629 126.66 -36.4746 127.783 -36.4746 C 129.932 -36.4746 131.689 -38.2812 131.689 -40.4297 C 131.689 -41.5527 131.25 -42.4316 130.518 -43.2129 L 116.65 -57.0801 L 130.566 -71.0449 C 131.348 -71.875 131.738 -72.7051 131.738 -73.7793 C 131.738 -75.9277 129.98 -77.6855 127.832 -77.6855 C 126.807 -77.6855 125.928 -77.2949 125.098 -76.4648 L 111.084 -62.5488 L 97.1191 -76.416 C 96.3867 -77.1973 95.5078 -77.5879 94.4336 -77.5879 C 92.2363 -77.5879 90.5273 -75.8789 90.5273 -73.7305 C 90.5273 -72.6562 90.918 -71.7285 91.6992 -70.9961 L 105.566 -57.0801 L 91.6992 -43.1641 C 90.918 -42.4316 90.5273 -41.5039 90.5273 -40.4297 C 90.5273 -38.2812 92.2363 -36.4746 94.4336 -36.4746 Z M 22.8516 9.47266 L 84.1797 9.47266 C 91.8945 9.47266 94.6289 7.27539 94.6289 2.97852 C 94.6289 -9.61914 78.8574 -27.002 53.5156 -27.002 C 28.2227 -27.002 12.4512 -9.61914 12.4512 2.97852 C 12.4512 7.27539 15.1855 9.47266 22.8516 9.47266 Z"/>
  </g>
  <g id="Light-M" transform="matrix(1 0 0 1 1081.53 1126)">
   <path d="M 53.3691 -35.5957 C 63.916 -35.5957 72.7051 -44.9219 72.7051 -57.0312 C 72.7051 -68.75 63.8672 -77.8809 53.3691 -77.8809 C 42.9199 -77.8809 34.0332 -68.6523 34.082 -56.9824 C 34.082 -44.9219 42.8223 -35.5957 53.3691 -35.5957 Z M 93.6035 -36.9629 C 94.4824 -36.9629 95.2148 -37.3047 95.8496 -37.9395 L 110.596 -52.7832 L 125.439 -37.9395 C 126.025 -37.3047 126.758 -36.9629 127.686 -36.9629 C 129.395 -36.9629 130.762 -38.3301 130.762 -40.0391 C 130.762 -40.918 130.42 -41.6016 129.785 -42.2363 L 114.941 -57.0801 L 129.834 -71.9727 C 130.469 -72.6562 130.762 -73.291 130.762 -74.1699 C 130.762 -75.8301 129.395 -77.1973 127.686 -77.1973 C 126.855 -77.1973 126.221 -76.9043 125.537 -76.1719 L 110.596 -61.377 L 95.752 -76.1719 C 95.166 -76.8066 94.4824 -77.0996 93.6035 -77.0996 C 91.8945 -77.0996 90.5273 -75.8301 90.5273 -74.1211 C 90.5273 -73.291 90.8203 -72.5586 91.4551 -71.9238 L 106.299 -57.0801 L 91.4551 -42.1875 C 90.8203 -41.6016 90.5273 -40.8691 90.5273 -40.0391 C 90.5273 -38.3301 91.8945 -36.9629 93.6035 -36.9629 Z M 21.8262 9.13086 L 84.8145 9.13086 C 91.4551 9.13086 94.1895 7.22656 94.1895 2.97852 C 94.1895 -9.57031 78.5156 -26.8555 53.3203 -26.8555 C 28.125 -26.8555 12.4512 -9.57031 12.4512 2.97852 C 12.4512 7.22656 15.1855 9.13086 21.8262 9.13086 Z"/>
  </g>
  <g id="Thin-M" transform="matrix(1 0 0 1 785.451 1126)">
   <path d="M 53.125 -35.4492 C 63.8184 -35.4492 72.168 -44.6777 72.168 -56.6406 C 72.168 -67.9688 63.6719 -77.3438 53.125 -77.3438 C 42.627 -77.3438 34.0332 -67.9199 34.1309 -56.5918 C 34.1309 -44.6777 42.4805 -35.4492 53.125 -35.4492 Z M 92.4805 -37.6465 C 93.1152 -37.6465 93.5059 -37.8418 93.9941 -38.3301 L 110.01 -54.3457 L 126.025 -38.3301 C 126.514 -37.8418 126.953 -37.6465 127.539 -37.6465 C 128.613 -37.6465 129.492 -38.4277 129.492 -39.502 C 129.492 -40.0879 129.297 -40.5273 128.857 -40.9668 L 112.744 -57.0801 L 128.857 -73.1934 C 129.346 -73.6816 129.492 -74.0723 129.492 -74.6582 C 129.492 -75.7324 128.662 -76.5137 127.539 -76.5137 C 127.002 -76.5137 126.562 -76.3184 126.025 -75.8301 L 110.01 -59.8145 L 93.9941 -75.8301 C 93.457 -76.3184 93.1152 -76.5137 92.4805 -76.5137 C 91.3574 -76.5137 90.5273 -75.6836 90.5273 -74.6582 C 90.5273 -74.0723 90.7227 -73.6328 91.1621 -73.1934 L 107.275 -57.0801 L 91.1621 -40.9668 C 90.7227 -40.5273 90.5273 -40.0879 90.5273 -39.502 C 90.5273 -38.4277 91.3574 -37.6465 92.4805 -37.6465 Z M 20.4102 8.69141 L 85.6445 8.69141 C 90.918 8.69141 93.6035 7.12891 93.6035 2.97852 C 93.6035 -9.47266 78.0273 -26.6602 53.0273 -26.6602 C 28.0273 -26.6602 12.4512 -9.47266 12.4512 2.97852 C 12.4512 7.12891 15.1367 8.69141 20.4102 8.69141 Z"/>
  </g>
  <g id="Ultralight-M" transform="matrix(1 0 0 1 489.057 1126)">
   <path d="M 53.0273 -35.4004 C 63.7207 -35.4004 71.875 -44.5312 71.875 -56.4453 C 71.875 -67.5781 63.5254 -77.0508 53.0273 -77.0508 C 42.4805 -77.0508 34.0332 -67.5781 34.1309 -56.4453 C 34.1309 -44.5312 42.2852 -35.4004 53.0273 -35.4004 Z M 91.8945 -37.9883 C 92.3828 -37.9883 92.627 -38.0859 93.0664 -38.5254 L 109.668 -55.127 L 126.318 -38.5254 C 126.758 -38.0859 127.051 -37.9883 127.441 -37.9883 C 128.271 -37.9883 128.857 -38.5254 128.857 -39.209 C 128.857 -39.6484 128.711 -39.9414 128.369 -40.332 L 111.621 -57.0801 L 128.369 -73.8281 C 128.711 -74.1699 128.857 -74.5117 128.857 -74.9023 C 128.857 -75.6348 128.271 -76.1719 127.441 -76.1719 C 127.051 -76.1719 126.758 -76.0742 126.318 -75.6348 L 109.668 -58.9844 L 93.0664 -75.6348 C 92.627 -76.0742 92.3828 -76.1719 91.8945 -76.1719 C 91.1133 -76.1719 90.5273 -75.6348 90.5273 -74.9023 C 90.5273 -74.5117 90.625 -74.2188 91.0156 -73.8281 L 107.764 -57.0801 L 91.0156 -40.332 C 90.625 -39.9414 90.5273 -39.6484 90.5273 -39.209 C 90.5273 -38.5254 91.1133 -37.9883 91.8945 -37.9883 Z M 19.6777 8.49609 L 86.084 8.49609 C 90.625 8.49609 93.3105 7.12891 93.3105 2.92969 C 93.3105 -9.47266 77.832 -26.6113 52.8809 -26.6113 C 27.9785 -26.6113 12.4512 -9.47266 12.4512 2.92969 C 12.4512 7.12891 15.1367 8.49609 19.6777 8.49609 Z"/>
  </g>
  <g id="Black-S" transform="matrix(1 0 0 1 2877.47 696)">
   <path d="M 42.7246 -35.4492 C 51.8066 -35.4492 58.7891 -43.2129 58.7891 -52.8809 C 58.7891 -62.0605 51.709 -70.0684 42.7246 -70.0684 C 33.7402 -70.0684 26.6113 -62.0605 26.6602 -52.8809 C 26.709 -43.2129 33.6426 -35.4492 42.7246 -35.4492 Z M 76.2207 -36.8652 C 77.8809 -36.8652 79.1504 -37.3535 80.2246 -38.4277 L 86.4746 -44.6289 L 92.7734 -38.4277 C 93.8477 -37.3535 95.1172 -36.8652 96.7773 -36.8652 C 99.8047 -36.8652 102.1 -39.1602 102.1 -42.2363 C 102.1 -43.5547 101.514 -44.873 100.488 -45.8984 L 94.1406 -52.2949 L 100.488 -58.6914 C 101.514 -59.7168 102.1 -61.0352 102.1 -62.3535 C 102.1 -65.4297 99.8047 -67.7246 96.7773 -67.7246 C 95.1172 -67.7246 93.8477 -67.2363 92.7734 -66.1621 L 86.4746 -59.9121 L 80.2246 -66.1621 C 79.1504 -67.2363 77.8809 -67.7246 76.2207 -67.7246 C 73.1934 -67.7246 70.8984 -65.4297 70.8984 -62.3535 C 70.8984 -61.0352 71.4844 -59.7168 72.5098 -58.6914 L 78.9062 -52.2949 L 72.5098 -45.8984 C 71.4844 -44.873 70.8984 -43.5547 70.8984 -42.2363 C 70.8984 -39.1602 73.1934 -36.8652 76.2207 -36.8652 Z M 19.7266 0.927734 L 65.7227 0.927734 C 73.291 0.927734 75.6836 -1.85547 75.6836 -6.15234 C 75.6836 -15.8203 62.5488 -28.9551 42.7246 -28.9551 C 22.9004 -28.9551 9.76562 -15.8203 9.76562 -6.15234 C 9.76562 -1.85547 12.1582 0.927734 19.7266 0.927734 Z"/>
  </g>
  <g id="Heavy-S" transform="matrix(1 0 0 1 2580.56 696)">
   <path d="M 42.5781 -35.498 C 51.416 -35.498 58.4961 -43.1641 58.4961 -52.832 C 58.4961 -62.1094 51.3672 -69.873 42.5781 -69.873 C 33.7891 -69.873 26.6113 -62.0605 26.6602 -52.832 C 26.709 -43.1641 33.6914 -35.498 42.5781 -35.498 Z M 75.7812 -36.6699 C 77.2949 -36.6699 78.4668 -37.1094 79.4434 -38.0859 L 86.6699 -45.3125 L 93.9453 -38.0859 C 94.9219 -37.1094 96.0449 -36.6699 97.5586 -36.6699 C 100.342 -36.6699 102.441 -38.7695 102.441 -41.6016 C 102.441 -42.8223 101.904 -44.043 100.977 -44.9707 L 93.6523 -52.2949 L 100.977 -59.668 C 101.953 -60.6445 102.49 -61.8164 102.49 -63.0371 C 102.49 -65.8203 100.342 -67.9688 97.5586 -67.9688 C 96.0938 -67.9688 94.9707 -67.5293 93.9453 -66.5039 L 86.6699 -59.2773 L 79.3945 -66.5039 C 78.418 -67.4805 77.2949 -67.9199 75.7812 -67.9199 C 72.998 -67.9199 70.8984 -65.8203 70.8984 -63.0371 C 70.8984 -61.8164 71.4355 -60.5957 72.3633 -59.668 L 79.7363 -52.2949 L 72.3633 -44.9707 C 71.4355 -44.043 70.8984 -42.8223 70.8984 -41.6016 C 70.8984 -38.7695 72.998 -36.6699 75.7812 -36.6699 Z M 19.4336 0.683594 L 65.7227 0.683594 C 73.0469 0.683594 75.3906 -1.85547 75.3906 -5.95703 C 75.3906 -15.6738 62.4023 -28.9062 42.5781 -28.9062 C 22.7051 -28.9062 9.76562 -15.6738 9.76562 -5.95703 C 9.76562 -1.85547 12.1094 0.683594 19.4336 0.683594 Z"/>
  </g>
  <g id="Bold-S" transform="matrix(1 0 0 1 2283.65 696)">
   <path d="M 42.3828 -35.5469 C 51.0254 -35.5469 58.1055 -43.1641 58.1055 -52.7832 C 58.1055 -62.1582 50.9766 -69.6289 42.3828 -69.6289 C 33.8379 -69.6289 26.6602 -62.0605 26.6602 -52.7344 C 26.709 -43.1641 33.7891 -35.5469 42.3828 -35.5469 Z M 75.293 -36.4258 C 76.6113 -36.4258 77.6855 -36.8652 78.5156 -37.6953 L 86.8652 -46.0449 L 95.2148 -37.6953 C 96.0938 -36.8652 97.1191 -36.4258 98.4375 -36.4258 C 100.928 -36.4258 102.881 -38.3789 102.881 -40.8691 C 102.881 -42.041 102.393 -43.0664 101.514 -43.8965 L 93.1641 -52.3438 L 101.562 -60.7422 C 102.441 -61.6211 102.881 -62.6465 102.881 -63.8184 C 102.881 -66.3086 100.977 -68.2129 98.4863 -68.2129 C 97.2168 -68.2129 96.1914 -67.8223 95.3125 -66.9434 L 86.8652 -58.5449 L 78.4668 -66.8945 C 77.6367 -67.7734 76.6113 -68.1641 75.293 -68.1641 C 72.8027 -68.1641 70.8984 -66.2598 70.8984 -63.7695 C 70.8984 -62.6465 71.3867 -61.5723 72.2168 -60.7422 L 80.6152 -52.3438 L 72.2168 -43.8965 C 71.3867 -43.0664 70.8984 -41.9922 70.8984 -40.8691 C 70.8984 -38.3789 72.8027 -36.4258 75.293 -36.4258 Z M 19.0918 0.439453 L 65.7227 0.439453 C 72.7539 0.439453 75 -1.9043 75 -5.71289 C 75 -15.4785 62.2559 -28.9062 42.3828 -28.9062 C 22.5098 -28.9062 9.76562 -15.4785 9.76562 -5.71289 C 9.76562 -1.9043 12.0117 0.439453 19.0918 0.439453 Z"/>
  </g>
  <g id="Semibold-S" transform="matrix(1 0 0 1 1986.8 696)">
   <path d="M 42.2852 -35.5957 C 50.7324 -35.5957 57.8613 -43.1152 57.8613 -52.7344 C 57.8613 -62.207 50.6836 -69.4824 42.2852 -69.4824 C 33.8379 -69.4824 26.6602 -62.0605 26.6602 -52.6855 C 26.6602 -43.1152 33.8379 -35.5957 42.2852 -35.5957 Z M 74.9512 -36.2305 C 76.123 -36.2305 77.1484 -36.6699 77.9297 -37.4512 L 87.0117 -46.5332 L 96.0938 -37.4512 C 96.875 -36.7188 97.8516 -36.2305 99.0723 -36.2305 C 101.367 -36.2305 103.125 -38.0859 103.125 -40.3809 C 103.125 -41.4551 102.686 -42.4316 101.904 -43.2129 L 92.8223 -52.3438 L 101.953 -61.5234 C 102.734 -62.3535 103.174 -63.2812 103.174 -64.3066 C 103.174 -66.6016 101.367 -68.4082 99.0723 -68.4082 C 97.9492 -68.4082 97.0215 -68.0176 96.1914 -67.1875 L 87.0117 -58.0566 L 77.832 -67.1875 C 77.0996 -67.9688 76.123 -68.3594 74.9512 -68.3594 C 72.7051 -68.3594 70.8984 -66.6016 70.8984 -64.3066 C 70.8984 -63.2324 71.3379 -62.2559 72.1191 -61.4746 L 81.25 -52.3438 L 72.1191 -43.1641 C 71.3379 -42.4316 70.8984 -41.4062 70.8984 -40.3809 C 70.8984 -38.0859 72.7051 -36.2305 74.9512 -36.2305 Z M 18.8477 0.244141 L 65.6738 0.244141 C 72.5586 0.244141 74.7559 -1.9043 74.7559 -5.56641 C 74.7559 -15.3809 62.1582 -28.8574 42.2852 -28.8574 C 22.4121 -28.8574 9.76562 -15.3809 9.76562 -5.56641 C 9.76562 -1.9043 12.0117 0.244141 18.8477 0.244141 Z"/>
  </g>
  <g id="Medium-S" transform="matrix(1 0 0 1 1689.99 696)">
   <path d="M 42.1875 -35.6445 C 50.5371 -35.6445 57.7148 -43.1152 57.7148 -52.7344 C 57.7148 -62.207 50.4883 -69.3359 42.1875 -69.3359 C 33.8867 -69.3359 26.6602 -62.0605 26.6602 -52.6367 C 26.6602 -43.1152 33.8379 -35.6445 42.1875 -35.6445 Z M 74.707 -36.1328 C 75.7812 -36.1328 76.7578 -36.5234 77.4414 -37.2559 L 87.1094 -46.9238 L 96.7773 -37.2559 C 97.5098 -36.5723 98.4375 -36.1328 99.5117 -36.1328 C 101.66 -36.1328 103.32 -37.8418 103.32 -39.9902 C 103.32 -41.0156 102.93 -41.9434 102.197 -42.6758 L 92.5293 -52.3438 L 102.246 -62.1094 C 103.027 -62.8418 103.369 -63.7207 103.369 -64.7461 C 103.369 -66.8457 101.709 -68.5547 99.5605 -68.5547 C 98.5352 -68.5547 97.7051 -68.1641 96.9238 -67.4316 L 87.1094 -57.666 L 77.3926 -67.3828 C 76.6602 -68.1152 75.7812 -68.457 74.707 -68.457 C 72.6074 -68.457 70.8984 -66.7969 70.8984 -64.6973 C 70.8984 -63.6719 71.2891 -62.7441 72.0215 -62.0605 L 81.7383 -52.3438 L 72.0215 -42.627 C 71.2891 -41.9434 70.8984 -41.0156 70.8984 -39.9902 C 70.8984 -37.8418 72.6074 -36.1328 74.707 -36.1328 Z M 18.6523 0.146484 L 65.6738 0.146484 C 72.4121 0.146484 74.6094 -1.9043 74.6094 -5.41992 C 74.6094 -15.2832 62.0605 -28.8574 42.1875 -28.8574 C 22.2656 -28.8574 9.76562 -15.2832 9.76562 -5.41992 C 9.76562 -1.9043 11.9629 0.146484 18.6523 0.146484 Z"/>
  </g>
  <g id="Regular-S" transform="matrix(1 0 0 1 1393.13 696)">
   <path d="M 42.041 -35.6934 C 50.2441 -35.6934 57.4707 -43.0664 57.4707 -52.6855 C 57.4707 -62.2559 50.2441 -69.1895 42.041 -69.1895 C 33.8867 -69.1895 26.6602 -62.0605 26.6602 -52.5879 C 26.6602 -43.0664 33.8867 -35.6934 42.041 -35.6934 Z M 74.3652 -35.9863 C 75.3418 -35.9863 76.2207 -36.3281 76.8555 -37.0117 L 87.2559 -47.4609 L 97.6562 -37.0117 C 98.291 -36.377 99.1211 -35.9863 100.146 -35.9863 C 102.051 -35.9863 103.613 -37.5488 103.613 -39.502 C 103.613 -40.4785 103.223 -41.2598 102.588 -41.9434 L 92.1875 -52.3438 L 102.637 -62.8418 C 103.32 -63.5254 103.662 -64.3066 103.662 -65.2344 C 103.662 -67.1875 102.1 -68.7012 100.195 -68.7012 C 99.2676 -68.7012 98.5352 -68.4082 97.8027 -67.6758 L 87.2559 -57.1777 L 76.7578 -67.627 C 76.123 -68.3105 75.3418 -68.6523 74.3652 -68.6523 C 72.4609 -68.6523 70.8984 -67.1387 70.8984 -65.1855 C 70.8984 -64.2578 71.2891 -63.4277 71.9238 -62.793 L 82.3242 -52.3438 L 71.9238 -41.8945 C 71.2891 -41.2598 70.8984 -40.4297 70.8984 -39.502 C 70.8984 -37.5488 72.4609 -35.9863 74.3652 -35.9863 Z M 18.457 -0.0488281 L 65.6738 -0.0488281 C 72.2168 -0.0488281 74.3652 -1.9043 74.3652 -5.27344 C 74.3652 -15.1855 61.9629 -28.8574 42.041 -28.8574 C 22.168 -28.8574 9.76562 -15.1855 9.76562 -5.27344 C 9.76562 -1.9043 11.9141 -0.0488281 18.457 -0.0488281 Z"/>
  </g>
  <g id="Light-S" transform="matrix(1 0 0 1 1096.83 696)">
   <path d="M 41.8945 -35.5957 C 50.1465 -35.5957 57.1289 -42.9199 57.1289 -52.4414 C 57.1289 -61.7188 50.0977 -68.7988 41.8945 -68.7988 C 33.6914 -68.7988 26.6602 -61.6211 26.709 -52.3438 C 26.709 -42.9199 33.6426 -35.5957 41.8945 -35.5957 Z M 73.6328 -36.4258 C 74.4141 -36.4258 75.0488 -36.6699 75.5859 -37.2559 L 86.8164 -48.4863 L 98.0957 -37.2559 C 98.584 -36.7188 99.2676 -36.4258 100.049 -36.4258 C 101.562 -36.4258 102.783 -37.6465 102.783 -39.1602 C 102.783 -39.9414 102.49 -40.5273 101.953 -41.1133 L 90.6738 -52.3438 L 101.953 -63.6719 C 102.539 -64.2578 102.832 -64.8438 102.832 -65.5762 C 102.832 -67.0898 101.611 -68.2617 100.098 -68.2617 C 99.3652 -68.2617 98.7793 -68.0176 98.1445 -67.4316 L 86.8164 -56.1523 L 75.5371 -67.3828 C 75 -67.9688 74.4141 -68.2129 73.6328 -68.2129 C 72.1191 -68.2129 70.8984 -67.041 70.8984 -65.5273 C 70.8984 -64.7949 71.1914 -64.1602 71.7285 -63.623 L 83.0078 -52.3438 L 71.7285 -41.0645 C 71.1914 -40.5273 70.8984 -39.8926 70.8984 -39.1602 C 70.8984 -37.6465 72.1191 -36.4258 73.6328 -36.4258 Z M 17.4805 -0.341797 L 66.2109 -0.341797 C 71.8262 -0.341797 73.9746 -1.95312 73.9746 -5.27344 C 73.9746 -15.1367 61.6699 -28.7109 41.8457 -28.7109 C 22.0703 -28.7109 9.76562 -15.1367 9.76562 -5.27344 C 9.76562 -1.95312 11.9141 -0.341797 17.4805 -0.341797 Z"/>
  </g>
  <g id="Thin-S" transform="matrix(1 0 0 1 800.685 696)">
   <path d="M 41.6992 -35.4492 C 50.0488 -35.4492 56.6406 -42.6758 56.6406 -52.0996 C 56.6406 -61.0352 49.9023 -68.3105 41.6992 -68.3105 C 33.4473 -68.3105 26.6602 -60.9863 26.709 -52.0508 C 26.709 -42.6758 33.3496 -35.4492 41.6992 -35.4492 Z M 72.6562 -36.9629 C 73.1934 -36.9629 73.584 -37.1582 73.9746 -37.5977 L 86.2793 -49.9023 L 98.584 -37.5977 C 99.0234 -37.1582 99.4141 -36.9629 99.9512 -36.9629 C 100.928 -36.9629 101.66 -37.7441 101.66 -38.6719 C 101.66 -39.209 101.514 -39.5996 101.123 -39.9902 L 88.7207 -52.3438 L 101.123 -64.7461 C 101.514 -65.1367 101.709 -65.5273 101.709 -66.0156 C 101.709 -66.9922 100.928 -67.7246 99.9512 -67.7246 C 99.4629 -67.7246 99.0723 -67.5293 98.6328 -67.0898 L 86.2793 -54.7852 L 73.9746 -67.0898 C 73.5352 -67.5293 73.1934 -67.6758 72.6562 -67.6758 C 71.6797 -67.6758 70.8984 -66.9434 70.8984 -66.0156 C 70.8984 -65.5273 71.0938 -65.0879 71.4844 -64.7461 L 83.8379 -52.3438 L 71.4844 -39.9414 C 71.0938 -39.5996 70.8984 -39.1602 70.8984 -38.6719 C 70.8984 -37.7441 71.6797 -36.9629 72.6562 -36.9629 Z M 16.2598 -0.732422 L 66.9434 -0.732422 C 71.3379 -0.732422 73.4863 -2.00195 73.4863 -5.32227 C 73.4863 -15.0879 61.2305 -28.5645 41.6016 -28.5645 C 21.9727 -28.5645 9.76562 -15.0879 9.76562 -5.32227 C 9.76562 -2.00195 11.8652 -0.732422 16.2598 -0.732422 Z"/>
  </g>
  <g id="Ultralight-S" transform="matrix(1 0 0 1 504.267 696)">
   <path d="M 41.6016 -35.3516 C 49.9512 -35.3516 56.3965 -42.5781 56.3965 -51.9043 C 56.3965 -60.6934 49.8047 -68.0664 41.6016 -68.0664 C 33.3496 -68.0664 26.6602 -60.6445 26.7578 -51.9043 C 26.7578 -42.5781 33.2031 -35.3516 41.6016 -35.3516 Z M 72.1191 -37.3047 C 72.5586 -37.3047 72.8027 -37.4023 73.1445 -37.7441 L 85.9863 -50.6348 L 98.877 -37.7441 C 99.2188 -37.4023 99.5117 -37.3047 99.8535 -37.3047 C 100.586 -37.3047 101.123 -37.793 101.123 -38.4277 C 101.123 -38.8184 100.977 -39.0625 100.684 -39.4043 L 87.7441 -52.3438 L 100.684 -65.2832 C 100.977 -65.625 101.123 -65.8691 101.123 -66.2598 C 101.123 -66.8945 100.586 -67.3828 99.8535 -67.3828 C 99.5117 -67.3828 99.2188 -67.2852 98.877 -66.9434 L 85.9863 -54.0527 L 73.1445 -66.9434 C 72.8027 -67.2852 72.5586 -67.3828 72.1191 -67.3828 C 71.4355 -67.3828 70.8984 -66.8945 70.8984 -66.2598 C 70.8984 -65.8691 70.9961 -65.625 71.3379 -65.2832 L 84.2773 -52.3438 L 71.3379 -39.4043 C 70.9961 -39.0625 70.8984 -38.8184 70.8984 -38.4277 C 70.8984 -37.793 71.4355 -37.3047 72.1191 -37.3047 Z M 15.625 -0.927734 L 67.334 -0.927734 C 71.0938 -0.927734 73.1934 -2.05078 73.1934 -5.32227 C 73.1934 -15.0391 61.0352 -28.4668 41.5039 -28.4668 C 21.9238 -28.4668 9.76562 -15.0391 9.76562 -5.32227 C 9.76562 -2.05078 11.8652 -0.927734 15.625 -0.927734 Z"/>
  </g>
 </g>
</svg>
