<?xml version="1.0" encoding="UTF-8"?>
<!--Generator: Apple Native CoreSVG 148-->
<!DOCTYPE svg
PUBLIC "-//W3C//DTD SVG 1.1//EN"
       "http://www.w3.org/Graphics/SVG/1.1/DTD/svg11.dtd">
<svg version="1.1" xmlns="http://www.w3.org/2000/svg" xmlns:xlink="http://www.w3.org/1999/xlink" width="3300" height="2200">
 <!--glyph: "uni100BE9.medium", point size: 100.000000, font version: "Version 16.0d11e1", template writer version: "8"-->
 <g id="Notes">
  <rect height="2200" id="artboard" style="fill:white;opacity:1" width="3300" x="0" y="0"/>
  <line id="" style="fill:none;stroke:black;opacity:1;stroke-width:0.5;" x1="263" x2="3036" y1="292" y2="292"/>
  <text style="stroke:none;fill:black;font-family:-apple-system,&quot;SF Pro Display&quot;,&quot;SF Pro Text&quot;,Helvetica,sans-serif;font-weight:bold;" transform="matrix(1 0 0 1 263 322)">Weight/Scale Variations</text>
  <text style="stroke:none;fill:black;font-family:-apple-system,&quot;SF Pro Display&quot;,&quot;SF Pro Text&quot;,Helvetica,sans-serif;text-anchor:middle;" transform="matrix(1 0 0 1 559.711 322)">Ultralight</text>
  <text style="stroke:none;fill:black;font-family:-apple-system,&quot;SF Pro Display&quot;,&quot;SF Pro Text&quot;,Helvetica,sans-serif;text-anchor:middle;" transform="matrix(1 0 0 1 856.422 322)">Thin</text>
  <text style="stroke:none;fill:black;font-family:-apple-system,&quot;SF Pro Display&quot;,&quot;SF Pro Text&quot;,Helvetica,sans-serif;text-anchor:middle;" transform="matrix(1 0 0 1 1153.13 322)">Light</text>
  <text style="stroke:none;fill:black;font-family:-apple-system,&quot;SF Pro Display&quot;,&quot;SF Pro Text&quot;,Helvetica,sans-serif;text-anchor:middle;" transform="matrix(1 0 0 1 1449.84 322)">Regular</text>
  <text style="stroke:none;fill:black;font-family:-apple-system,&quot;SF Pro Display&quot;,&quot;SF Pro Text&quot;,Helvetica,sans-serif;text-anchor:middle;" transform="matrix(1 0 0 1 1746.56 322)">Medium</text>
  <text style="stroke:none;fill:black;font-family:-apple-system,&quot;SF Pro Display&quot;,&quot;SF Pro Text&quot;,Helvetica,sans-serif;text-anchor:middle;" transform="matrix(1 0 0 1 2043.27 322)">Semibold</text>
  <text style="stroke:none;fill:black;font-family:-apple-system,&quot;SF Pro Display&quot;,&quot;SF Pro Text&quot;,Helvetica,sans-serif;text-anchor:middle;" transform="matrix(1 0 0 1 2339.98 322)">Bold</text>
  <text style="stroke:none;fill:black;font-family:-apple-system,&quot;SF Pro Display&quot;,&quot;SF Pro Text&quot;,Helvetica,sans-serif;text-anchor:middle;" transform="matrix(1 0 0 1 2636.69 322)">Heavy</text>
  <text style="stroke:none;fill:black;font-family:-apple-system,&quot;SF Pro Display&quot;,&quot;SF Pro Text&quot;,Helvetica,sans-serif;text-anchor:middle;" transform="matrix(1 0 0 1 2933.4 322)">Black</text>
  <line id="" style="fill:none;stroke:black;opacity:1;stroke-width:0.5;" x1="263" x2="3036" y1="1903" y2="1903"/>
  <g id="" transform="matrix(1 0 0 1 263 1933)">
   <path d="M 9.24805 0.830078 C 13.5547 0.830078 17.1387 -2.74414 17.1387 -7.05078 C 17.1387 -11.3574 13.5449 -14.9316 9.23828 -14.9316 C 4.94141 -14.9316 1.36719 -11.3574 1.36719 -7.05078 C 1.36719 -2.74414 4.95117 0.830078 9.24805 0.830078 Z M 9.24805 -0.654297 C 5.70312 -0.654297 2.87109 -3.49609 2.87109 -7.05078 C 2.87109 -10.6055 5.69336 -13.4473 9.23828 -13.4473 C 12.793 -13.4473 15.6348 -10.6055 15.6445 -7.05078 C 15.6543 -3.49609 12.8027 -0.654297 9.24805 -0.654297 Z M 9.22852 -3.62305 C 9.69727 -3.62305 9.9707 -3.93555 9.9707 -4.45312 L 9.9707 -6.31836 L 12.002 -6.31836 C 12.5 -6.31836 12.832 -6.57227 12.832 -7.04102 C 12.832 -7.51953 12.5195 -7.7832 12.002 -7.7832 L 9.9707 -7.7832 L 9.9707 -9.81445 C 9.9707 -10.332 9.69727 -10.6543 9.22852 -10.6543 C 8.75977 -10.6543 8.50586 -10.3125 8.50586 -9.81445 L 8.50586 -7.7832 L 6.49414 -7.7832 C 5.97656 -7.7832 5.64453 -7.51953 5.64453 -7.04102 C 5.64453 -6.57227 5.99609 -6.31836 6.49414 -6.31836 L 8.50586 -6.31836 L 8.50586 -4.45312 C 8.50586 -3.95508 8.75977 -3.62305 9.22852 -3.62305 Z"/>
  </g>
  <g id="" transform="matrix(1 0 0 1 281.506 1933)">
   <path d="M 11.709 2.91016 C 17.1582 2.91016 21.6699 -1.61133 21.6699 -7.05078 C 21.6699 -12.5 17.1484 -17.0117 11.6992 -17.0117 C 6.25977 -17.0117 1.74805 -12.5 1.74805 -7.05078 C 1.74805 -1.61133 6.26953 2.91016 11.709 2.91016 Z M 11.709 1.25 C 7.09961 1.25 3.41797 -2.44141 3.41797 -7.05078 C 3.41797 -11.6602 7.08984 -15.3516 11.6992 -15.3516 C 16.3086 -15.3516 20 -11.6602 20.0098 -7.05078 C 20.0195 -2.44141 16.3184 1.25 11.709 1.25 Z M 11.6797 -2.66602 C 12.207 -2.66602 12.5098 -3.01758 12.5098 -3.59375 L 12.5098 -6.23047 L 15.3223 -6.23047 C 15.8691 -6.23047 16.25 -6.51367 16.25 -7.03125 C 16.25 -7.55859 15.8887 -7.86133 15.3223 -7.86133 L 12.5098 -7.86133 L 12.5098 -10.6836 C 12.5098 -11.25 12.207 -11.6113 11.6797 -11.6113 C 11.1621 -11.6113 10.8789 -11.2305 10.8789 -10.6836 L 10.8789 -7.86133 L 8.07617 -7.86133 C 7.50977 -7.86133 7.13867 -7.55859 7.13867 -7.03125 C 7.13867 -6.51367 7.5293 -6.23047 8.07617 -6.23047 L 10.8789 -6.23047 L 10.8789 -3.59375 C 10.8789 -3.03711 11.1621 -2.66602 11.6797 -2.66602 Z"/>
  </g>
  <g id="" transform="matrix(1 0 0 1 304.924 1933)">
   <path d="M 14.9707 5.66406 C 21.9336 5.66406 27.6953 -0.0976562 27.6953 -7.05078 C 27.6953 -14.0137 21.9238 -19.7754 14.9609 -19.7754 C 8.00781 -19.7754 2.25586 -14.0137 2.25586 -7.05078 C 2.25586 -0.0976562 8.01758 5.66406 14.9707 5.66406 Z M 14.9707 3.84766 C 8.93555 3.84766 4.08203 -1.01562 4.08203 -7.05078 C 4.08203 -13.0957 8.92578 -17.9492 14.9609 -17.9492 C 21.0059 -17.9492 25.8594 -13.0957 25.8691 -7.05078 C 25.8789 -1.01562 21.0156 3.84766 14.9707 3.84766 Z M 14.9414 -1.38672 C 15.5176 -1.38672 15.8594 -1.77734 15.8594 -2.38281 L 15.8594 -6.13281 L 19.7754 -6.13281 C 20.3711 -6.13281 20.7812 -6.46484 20.7812 -7.02148 C 20.7812 -7.59766 20.3906 -7.93945 19.7754 -7.93945 L 15.8594 -7.93945 L 15.8594 -11.8652 C 15.8594 -12.4805 15.5176 -12.8711 14.9414 -12.8711 C 14.375 -12.8711 14.0527 -12.4609 14.0527 -11.8652 L 14.0527 -7.93945 L 10.1465 -7.93945 C 9.53125 -7.93945 9.13086 -7.59766 9.13086 -7.02148 C 9.13086 -6.46484 9.55078 -6.13281 10.1465 -6.13281 L 14.0527 -6.13281 L 14.0527 -2.38281 C 14.0527 -1.79688 14.375 -1.38672 14.9414 -1.38672 Z"/>
  </g>
  <text style="stroke:none;fill:black;font-family:-apple-system,&quot;SF Pro Display&quot;,&quot;SF Pro Text&quot;,Helvetica,sans-serif;font-weight:bold;" transform="matrix(1 0 0 1 263 1953)">Design Variations</text>
  <text style="stroke:none;fill:black;font-family:-apple-system,&quot;SF Pro Display&quot;,&quot;SF Pro Text&quot;,Helvetica,sans-serif;" transform="matrix(1 0 0 1 263 1971)">Symbols are supported in up to nine weights and three scales.</text>
  <text style="stroke:none;fill:black;font-family:-apple-system,&quot;SF Pro Display&quot;,&quot;SF Pro Text&quot;,Helvetica,sans-serif;" transform="matrix(1 0 0 1 263 1989)">For optimal layout with text and other symbols, vertically align</text>
  <text style="stroke:none;fill:black;font-family:-apple-system,&quot;SF Pro Display&quot;,&quot;SF Pro Text&quot;,Helvetica,sans-serif;" transform="matrix(1 0 0 1 263 2007)">symbols with the adjacent text.</text>
  <line id="" style="fill:none;stroke:#00AEEF;stroke-width:0.5;opacity:1.0;" x1="776" x2="776" y1="1919" y2="1933"/>
  <g id="" transform="matrix(1 0 0 1 776 1933)">
   <path d="M 3.31055 0.126953 C 3.82812 0.126953 4.08203 -0.0683594 4.26758 -0.605469 L 5.52734 -4.0625 L 11.2891 -4.0625 L 12.5488 -0.605469 C 12.7344 -0.0683594 12.9883 0.126953 13.4961 0.126953 C 14.0137 0.126953 14.3457 -0.185547 14.3457 -0.673828 C 14.3457 -0.839844 14.3164 -0.986328 14.2383 -1.20117 L 9.6582 -13.3887 C 9.43359 -13.9941 9.0332 -14.2871 8.4082 -14.2871 C 7.80273 -14.2871 7.39258 -13.9941 7.17773 -13.3984 L 2.59766 -1.19141 C 2.51953 -0.976562 2.49023 -0.830078 2.49023 -0.664062 C 2.49023 -0.175781 2.80273 0.126953 3.31055 0.126953 Z M 6.00586 -5.53711 L 8.37891 -12.1094 L 8.42773 -12.1094 L 10.8008 -5.53711 Z"/>
  </g>
  <line id="" style="fill:none;stroke:#00AEEF;stroke-width:0.5;opacity:1.0;" x1="792.836" x2="792.836" y1="1919" y2="1933"/>
  <text style="stroke:none;fill:black;font-family:-apple-system,&quot;SF Pro Display&quot;,&quot;SF Pro Text&quot;,Helvetica,sans-serif;font-weight:bold;" transform="matrix(1 0 0 1 776 1953)">Margins</text>
  <text style="stroke:none;fill:black;font-family:-apple-system,&quot;SF Pro Display&quot;,&quot;SF Pro Text&quot;,Helvetica,sans-serif;" transform="matrix(1 0 0 1 776 1971)">Leading and trailing margins on the left and right side of each symbol</text>
  <text style="stroke:none;fill:black;font-family:-apple-system,&quot;SF Pro Display&quot;,&quot;SF Pro Text&quot;,Helvetica,sans-serif;" transform="matrix(1 0 0 1 776 1989)">can be adjusted by modifying the x-location of the margin guidelines.</text>
  <text style="stroke:none;fill:black;font-family:-apple-system,&quot;SF Pro Display&quot;,&quot;SF Pro Text&quot;,Helvetica,sans-serif;" transform="matrix(1 0 0 1 776 2007)">Modifications are automatically applied proportionally to all</text>
  <text style="stroke:none;fill:black;font-family:-apple-system,&quot;SF Pro Display&quot;,&quot;SF Pro Text&quot;,Helvetica,sans-serif;" transform="matrix(1 0 0 1 776 2025)">scales and weights.</text>
  <g id="" transform="matrix(1 0 0 1 1289 1933)">
   <path d="M 2.8418 1.86523 L 4.54102 3.57422 C 5.40039 4.44336 6.38672 4.38477 7.31445 3.35938 L 17.4902 -7.85156 C 17.7539 -7.76367 18.0273 -7.7832 18.3398 -7.8418 L 19.4043 -8.03711 L 20.0684 -7.36328 L 20.0293 -6.80664 C 19.9902 -6.30859 20.1172 -5.92773 20.6055 -5.44922 L 21.3672 -4.70703 C 21.8457 -4.22852 22.4609 -4.19922 22.9297 -4.66797 L 25.8398 -7.58789 C 26.3086 -8.05664 26.2891 -8.65234 25.8105 -9.13086 L 25.0391 -9.89258 C 24.5605 -10.3711 24.1895 -10.5273 23.7109 -10.4883 L 23.1348 -10.4395 L 22.4902 -11.0742 L 22.7344 -12.1973 C 22.8613 -12.7637 22.7051 -13.2031 22.1191 -13.7891 L 19.9219 -15.9766 C 16.582 -19.2969 12.1484 -19.2188 9.25781 -16.3281 C 8.83789 -15.918 8.80859 -15.3418 9.04297 -14.9512 C 9.27734 -14.5898 9.73633 -14.3555 10.3809 -14.5215 C 11.8457 -14.8633 13.3691 -14.9219 14.7949 -13.9844 L 14.209 -12.5293 C 14.0137 -12.0508 13.9844 -11.6504 14.1113 -11.2891 L 3.04688 -0.898438 C 2.06055 0.0195312 1.98242 0.996094 2.8418 1.86523 Z M 10.752 -15.957 C 13.1836 -17.7344 16.4746 -17.4316 18.7012 -15.2051 L 21.1328 -12.793 C 21.3672 -12.5586 21.4062 -12.373 21.3379 -12.0312 L 21.0156 -10.5469 L 22.5195 -9.0625 L 23.5059 -9.12109 C 23.7598 -9.13086 23.8379 -9.11133 24.0332 -8.91602 L 24.6094 -8.33984 L 22.168 -5.89844 L 21.5918 -6.47461 C 21.3965 -6.66992 21.3672 -6.74805 21.377 -7.01172 L 21.4453 -7.98828 L 19.9512 -9.47266 L 18.4277 -9.21875 C 18.1055 -9.15039 17.959 -9.17969 17.7148 -9.41406 L 15.7129 -11.416 C 15.459 -11.6504 15.4297 -11.8164 15.5859 -12.1875 L 16.4648 -14.2773 C 14.9023 -15.7324 12.8711 -16.3574 10.8398 -15.7617 C 10.6836 -15.7227 10.625 -15.8496 10.752 -15.957 Z M 5.27344 2.30469 L 4.10156 1.14258 C 3.63281 0.683594 3.74023 0.341797 4.14062 -0.0195312 L 14.9512 -10.1953 L 16.416 -8.71094 L 6.42578 2.27539 C 6.07422 2.67578 5.74219 2.77344 5.27344 2.30469 Z"/>
  </g>
  <text style="stroke:none;fill:black;font-family:-apple-system,&quot;SF Pro Display&quot;,&quot;SF Pro Text&quot;,Helvetica,sans-serif;font-weight:bold;" transform="matrix(1 0 0 1 1289 1953)">Exporting</text>
  <text style="stroke:none;fill:black;font-family:-apple-system,&quot;SF Pro Display&quot;,&quot;SF Pro Text&quot;,Helvetica,sans-serif;" transform="matrix(1 0 0 1 1289 1971)">Symbols should be outlined when exporting to ensure the</text>
  <text style="stroke:none;fill:black;font-family:-apple-system,&quot;SF Pro Display&quot;,&quot;SF Pro Text&quot;,Helvetica,sans-serif;" transform="matrix(1 0 0 1 1289 1989)">design is preserved when submitting to Xcode.</text>
  <text id="template-version" style="stroke:none;fill:black;font-family:-apple-system,&quot;SF Pro Display&quot;,&quot;SF Pro Text&quot;,Helvetica,sans-serif;text-anchor:end;" transform="matrix(1 0 0 1 3036 1933)">Template v.2.0</text>
  <text style="stroke:none;fill:black;font-family:-apple-system,&quot;SF Pro Display&quot;,&quot;SF Pro Text&quot;,Helvetica,sans-serif;text-anchor:end;" transform="matrix(1 0 0 1 3036 1951)">Requires Xcode 12 or greater</text>
  <text style="stroke:none;fill:black;font-family:-apple-system,&quot;SF Pro Display&quot;,&quot;SF Pro Text&quot;,Helvetica,sans-serif;text-anchor:end;" transform="matrix(1 0 0 1 3036 1969)">Generated from person.fill.questionmark</text>
  <text style="stroke:none;fill:black;font-family:-apple-system,&quot;SF Pro Display&quot;,&quot;SF Pro Text&quot;,Helvetica,sans-serif;text-anchor:end;" transform="matrix(1 0 0 1 3036 1987)">Typeset at 100 points</text>
  <text style="stroke:none;fill:black;font-family:-apple-system,&quot;SF Pro Display&quot;,&quot;SF Pro Text&quot;,Helvetica,sans-serif;" transform="matrix(1 0 0 1 263 726)">Small</text>
  <text style="stroke:none;fill:black;font-family:-apple-system,&quot;SF Pro Display&quot;,&quot;SF Pro Text&quot;,Helvetica,sans-serif;" transform="matrix(1 0 0 1 263 1156)">Medium</text>
  <text style="stroke:none;fill:black;font-family:-apple-system,&quot;SF Pro Display&quot;,&quot;SF Pro Text&quot;,Helvetica,sans-serif;" transform="matrix(1 0 0 1 263 1586)">Large</text>
 </g>
 <g id="Guides">
  <g id="H-reference" style="fill:#27AAE1;stroke:none;" transform="matrix(1 0 0 1 339 696)">
   <path d="M 0.976562 0 L 3.66211 0 L 12.9883 -24.4629 L 45.7031 -24.4629 L 55.0781 0 L 57.7148 0 L 30.6152 -70.459 L 28.125 -70.459 Z M 29.2969 -67.1387 L 29.3945 -67.1387 L 44.873 -26.709 L 13.8672 -26.709 Z"/>
  </g>
  <line id="Baseline-S" style="fill:none;stroke:#27AAE1;opacity:1;stroke-width:0.5;" x1="263" x2="3036" y1="696" y2="696"/>
  <line id="Capline-S" style="fill:none;stroke:#27AAE1;opacity:1;stroke-width:0.5;" x1="263" x2="3036" y1="625.541" y2="625.541"/>
  <g id="H-reference" style="fill:#27AAE1;stroke:none;" transform="matrix(1 0 0 1 339 1126)">
   <path d="M 0.976562 0 L 3.66211 0 L 12.9883 -24.4629 L 45.7031 -24.4629 L 55.0781 0 L 57.7148 0 L 30.6152 -70.459 L 28.125 -70.459 Z M 29.2969 -67.1387 L 29.3945 -67.1387 L 44.873 -26.709 L 13.8672 -26.709 Z"/>
  </g>
  <line id="Baseline-M" style="fill:none;stroke:#27AAE1;opacity:1;stroke-width:0.5;" x1="263" x2="3036" y1="1126" y2="1126"/>
  <line id="Capline-M" style="fill:none;stroke:#27AAE1;opacity:1;stroke-width:0.5;" x1="263" x2="3036" y1="1055.54" y2="1055.54"/>
  <g id="H-reference" style="fill:#27AAE1;stroke:none;" transform="matrix(1 0 0 1 339 1556)">
   <path d="M 0.976562 0 L 3.66211 0 L 12.9883 -24.4629 L 45.7031 -24.4629 L 55.0781 0 L 57.7148 0 L 30.6152 -70.459 L 28.125 -70.459 Z M 29.2969 -67.1387 L 29.3945 -67.1387 L 44.873 -26.709 L 13.8672 -26.709 Z"/>
  </g>
  <line id="Baseline-L" style="fill:none;stroke:#27AAE1;opacity:1;stroke-width:0.5;" x1="263" x2="3036" y1="1556" y2="1556"/>
  <line id="Capline-L" style="fill:none;stroke:#27AAE1;opacity:1;stroke-width:0.5;" x1="263" x2="3036" y1="1485.54" y2="1485.54"/>
  <line id="left-margin" style="fill:none;stroke:#00AEEF;stroke-width:0.5;opacity:1.0;" x1="1384.51" x2="1384.51" y1="1030.79" y2="1150.12"/>
  <line id="right-margin" style="fill:none;stroke:#00AEEF;stroke-width:0.5;opacity:1.0;" x1="1515.18" x2="1515.18" y1="1030.79" y2="1150.12"/>
 </g>
 <g id="Symbols">
  <g id="Black-L" transform="matrix(1 0 0 1 2846.14 1556)">
   <path d="M 133.545 -52.4902 C 138.086 -52.4902 141.357 -54.6387 142.09 -57.5684 C 142.139 -57.7637 142.188 -58.0566 142.236 -58.2031 C 143.018 -60.5957 145.801 -62.5 148.877 -64.4531 C 155.469 -68.5059 158.447 -71.9727 158.447 -78.7109 C 158.447 -89.4043 148.486 -96.5332 135.645 -96.5332 C 124.854 -96.5332 116.846 -92.334 114.062 -86.1328 C 113.477 -84.8145 113.184 -83.5938 113.184 -82.1777 C 113.184 -78.3691 116.113 -75.1953 121.533 -75.1953 C 125.732 -75.1953 127.393 -77.1484 129.102 -78.7598 C 131.152 -80.7129 132.617 -81.4941 134.57 -81.4941 C 137.158 -81.4941 138.818 -79.9805 138.818 -77.5879 C 138.818 -74.9512 136.182 -73.0469 131.445 -69.8242 C 127.148 -66.8457 124.17 -63.9648 124.17 -59.7168 L 124.17 -59.5215 C 124.17 -54.8828 127.49 -52.4902 133.545 -52.4902 Z M 70.0684 -35.6934 C 84.6191 -35.6934 96.2402 -48.3398 96.2402 -64.2578 C 96.2402 -79.541 84.4727 -92.2363 70.0684 -92.2363 C 55.6152 -92.2363 43.8477 -79.4434 43.8965 -64.209 C 43.9453 -48.3398 55.5176 -35.6934 70.0684 -35.6934 Z M 133.545 -31.2988 C 138.965 -31.2988 142.969 -34.4727 142.969 -39.5996 C 142.969 -44.6777 138.965 -47.9004 133.545 -47.9004 C 128.076 -47.9004 123.975 -44.7266 123.975 -39.5996 C 123.975 -34.4727 128.125 -31.2988 133.545 -31.2988 Z M 31.9824 23.9258 L 108.154 23.9258 C 120.215 23.9258 124.072 19.7266 124.072 13.0371 C 124.072 -2.97852 102.734 -24.8535 70.0684 -24.8535 C 37.3535 -24.8535 16.0645 -2.97852 16.0645 13.0371 C 16.0645 19.7266 19.873 23.9258 31.9824 23.9258 Z"/>
  </g>
  <g id="Heavy-L" transform="matrix(1 0 0 1 2550.31 1556)">
   <path d="M 132.715 -52.002 C 136.816 -52.002 139.697 -54.0527 140.234 -56.8359 C 140.283 -57.0801 140.332 -57.373 140.381 -57.5684 C 140.967 -60.2539 143.604 -62.2559 147.021 -64.4531 C 153.516 -68.5547 156.689 -72.0703 156.689 -78.8574 C 156.689 -89.3555 147.021 -96.1426 134.717 -96.1426 C 124.023 -96.1426 116.26 -91.6992 113.77 -85.5469 C 113.281 -84.3262 112.988 -83.1543 112.988 -81.8359 C 112.988 -78.3203 115.674 -75.5859 120.264 -75.5859 C 124.17 -75.5859 125.586 -77.4902 127.295 -79.1992 C 129.248 -81.6895 131.201 -82.959 133.838 -82.959 C 137.256 -82.959 139.502 -80.957 139.502 -77.9297 C 139.502 -74.9023 136.914 -72.9492 131.934 -69.5312 C 127.539 -66.5039 124.561 -63.4766 124.561 -58.8379 L 124.561 -58.3984 C 124.561 -54.1992 127.441 -52.002 132.715 -52.002 Z M 69.8242 -35.7422 C 84.1309 -35.7422 95.7031 -48.2422 95.7031 -64.0625 C 95.7031 -79.3945 83.9844 -91.7969 69.8242 -91.7969 C 55.6152 -91.7969 43.8477 -79.248 43.8965 -64.0137 C 43.9453 -48.2422 55.4688 -35.7422 69.8242 -35.7422 Z M 132.666 -31.543 C 137.598 -31.543 141.357 -34.5703 141.357 -39.3066 C 141.357 -43.9941 137.646 -47.0215 132.666 -47.0215 C 127.734 -47.0215 123.926 -43.9941 123.926 -39.3066 C 123.926 -34.6191 127.734 -31.543 132.666 -31.543 Z M 31.2012 23.4863 L 108.398 23.4863 C 119.775 23.4863 123.486 19.6777 123.486 13.2812 C 123.486 -2.7832 102.441 -24.7559 69.7754 -24.7559 C 37.1094 -24.7559 16.0645 -2.7832 16.0645 13.2812 C 16.0645 19.6777 19.8242 23.4863 31.2012 23.4863 Z"/>
  </g>
  <g id="Bold-L" transform="matrix(1 0 0 1 2254.58 1556)">
   <path d="M 131.787 -51.5137 C 135.4 -51.5137 137.842 -53.4668 138.232 -56.0547 C 138.232 -56.2988 138.281 -56.6406 138.281 -56.8848 C 138.672 -59.9121 141.064 -62.0117 144.873 -64.502 C 151.318 -68.6035 154.736 -72.168 154.736 -79.1016 C 154.736 -89.3555 145.361 -95.752 133.74 -95.752 C 123.096 -95.752 115.576 -91.0156 113.477 -84.9121 C 113.037 -83.7891 112.793 -82.666 112.793 -81.4453 C 112.793 -78.3203 115.234 -76.0742 118.848 -76.0742 C 122.461 -76.0742 123.584 -77.8809 125.244 -79.7363 C 127.148 -82.7637 129.59 -84.5215 133.008 -84.5215 C 137.451 -84.5215 140.283 -82.0312 140.283 -78.3203 C 140.283 -74.8535 137.695 -72.8027 132.471 -69.1895 C 127.979 -66.0645 124.951 -62.9395 124.951 -57.9102 L 124.951 -57.1777 C 124.951 -53.4668 127.393 -51.5137 131.787 -51.5137 Z M 69.5312 -35.7422 C 83.5938 -35.7422 95.1172 -48.0957 95.1172 -63.8672 C 95.1172 -79.1504 83.4473 -91.3574 69.5312 -91.3574 C 55.5664 -91.3574 43.8477 -79.0039 43.8965 -63.8184 C 43.9453 -48.0957 55.4688 -35.7422 69.5312 -35.7422 Z M 131.738 -31.7871 C 136.084 -31.7871 139.551 -34.7168 139.551 -38.9648 C 139.551 -43.1641 136.133 -46.0938 131.738 -46.0938 C 127.295 -46.0938 123.828 -43.1641 123.828 -38.9648 C 123.828 -34.7656 127.344 -31.7871 131.738 -31.7871 Z M 30.3223 23.0469 L 108.643 23.0469 C 119.238 23.0469 122.9 19.6289 122.9 13.5742 C 122.9 -2.53906 102.1 -24.6582 69.4824 -24.6582 C 36.8652 -24.6582 16.0645 -2.53906 16.0645 13.5742 C 16.0645 19.6289 19.7266 23.0469 30.3223 23.0469 Z"/>
  </g>
  <g id="Semibold-L" transform="matrix(1 0 0 1 1958.53 1556)">
   <path d="M 131.152 -51.1719 C 134.424 -51.1719 136.572 -53.0273 136.816 -55.4688 C 136.816 -55.7617 136.865 -56.1035 136.865 -56.3965 C 137.109 -59.668 139.355 -61.8164 143.457 -64.502 C 149.805 -68.6523 153.418 -72.2656 153.418 -79.248 C 153.418 -89.3555 144.238 -95.459 133.057 -95.459 C 122.412 -95.459 115.137 -90.5273 113.232 -84.4727 C 112.891 -83.3984 112.646 -82.3242 112.646 -81.2012 C 112.646 -78.3203 114.893 -76.416 117.871 -76.416 C 121.289 -76.416 122.217 -78.125 123.828 -80.0781 C 125.684 -83.4961 128.467 -85.6445 132.471 -85.6445 C 137.549 -85.6445 140.771 -82.7637 140.771 -78.6133 C 140.771 -74.8535 138.232 -72.7051 132.861 -68.9453 C 128.271 -65.7715 125.244 -62.5977 125.244 -57.2266 L 125.244 -56.3477 C 125.244 -52.9297 127.344 -51.1719 131.152 -51.1719 Z M 69.2871 -35.7422 C 83.2031 -35.7422 94.6777 -47.998 94.6777 -63.7207 C 94.6777 -79.0527 83.1055 -91.0156 69.2871 -91.0156 C 55.5176 -91.0156 43.8477 -78.8574 43.9453 -63.6719 C 43.9453 -47.998 55.4199 -35.7422 69.2871 -35.7422 Z M 131.055 -31.9824 C 135.059 -31.9824 138.281 -34.8145 138.281 -38.7207 C 138.281 -42.627 135.107 -45.459 131.055 -45.459 C 127.002 -45.459 123.779 -42.627 123.779 -38.7207 C 123.779 -34.8633 127.051 -31.9824 131.055 -31.9824 Z M 29.6875 22.7051 L 108.838 22.7051 C 118.848 22.7051 122.461 19.6289 122.461 13.7695 C 122.461 -2.39258 101.855 -24.6094 69.2871 -24.6094 C 36.6699 -24.6094 16.0645 -2.39258 16.0645 13.7695 C 16.0645 19.6289 19.6777 22.7051 29.6875 22.7051 Z"/>
  </g>
  <g id="Medium-L" transform="matrix(1 0 0 1 1662.33 1556)">
   <path d="M 130.664 -50.9277 C 133.691 -50.9277 135.645 -52.7344 135.742 -55.0293 C 135.742 -55.3711 135.791 -55.7129 135.791 -56.0547 C 135.938 -59.4727 138.037 -61.6699 142.334 -64.502 C 148.633 -68.6523 152.393 -72.3145 152.393 -79.3457 C 152.393 -89.3066 143.408 -95.2148 132.52 -95.2148 C 121.924 -95.2148 114.795 -90.1367 113.086 -84.1309 C 112.744 -83.1055 112.549 -82.0801 112.549 -81.0059 C 112.549 -78.3203 114.648 -76.6602 117.139 -76.6602 C 120.361 -76.6602 121.143 -78.3203 122.803 -80.3223 C 124.561 -84.0332 127.637 -86.4746 132.031 -86.4746 C 137.598 -86.4746 141.211 -83.3496 141.211 -78.8086 C 141.211 -74.8047 138.623 -72.6074 133.105 -68.7988 C 128.516 -65.5762 125.439 -62.3047 125.439 -56.7383 L 125.439 -55.7129 C 125.439 -52.5391 127.344 -50.9277 130.664 -50.9277 Z M 69.1406 -35.7422 C 82.9102 -35.7422 94.3848 -47.9492 94.3848 -63.623 C 94.3848 -78.9062 82.8125 -90.7715 69.1406 -90.7715 C 55.5176 -90.7715 43.8965 -78.7598 43.9453 -63.5254 C 43.9453 -47.9492 55.4199 -35.7422 69.1406 -35.7422 Z M 130.566 -32.1289 C 134.277 -32.1289 137.354 -34.8633 137.354 -38.5254 C 137.354 -42.1875 134.326 -44.9219 130.566 -44.9219 C 126.807 -44.9219 123.779 -42.1875 123.779 -38.5254 C 123.779 -34.9121 126.855 -32.1289 130.566 -32.1289 Z M 29.248 22.4609 L 108.984 22.4609 C 118.604 22.4609 122.168 19.5801 122.168 13.916 C 122.168 -2.29492 101.709 -24.5605 69.0918 -24.5605 C 36.5234 -24.5605 16.0645 -2.29492 16.0645 13.916 C 16.0645 19.5801 19.6289 22.4609 29.248 22.4609 Z"/>
  </g>
  <g id="Regular-L" transform="matrix(1 0 0 1 1366.3 1556)">
   <path d="M 130.029 -50.5859 C 132.715 -50.5859 134.375 -52.2949 134.375 -54.4922 L 134.375 -55.5664 C 134.375 -59.2285 136.328 -61.5234 140.918 -64.5508 C 147.119 -68.7012 151.025 -72.3633 151.025 -79.4922 C 151.025 -89.3066 142.285 -94.9219 131.836 -94.9219 C 121.289 -94.9219 114.355 -89.6484 112.842 -83.6914 C 112.598 -82.7148 112.402 -81.7383 112.402 -80.7617 C 112.402 -78.3203 114.307 -76.9531 116.162 -76.9531 C 119.189 -76.9531 119.775 -78.6133 121.387 -80.7129 C 123.096 -84.7656 126.514 -87.5488 131.494 -87.5488 C 137.695 -87.5488 141.699 -84.082 141.699 -79.0527 C 141.699 -74.7559 139.16 -72.5098 133.496 -68.5547 C 128.809 -65.2832 125.732 -61.9629 125.732 -56.0547 L 125.732 -54.8828 C 125.732 -52.0508 127.295 -50.5859 130.029 -50.5859 Z M 68.9453 -35.791 C 82.5684 -35.791 93.9941 -47.8516 93.9941 -63.5254 C 93.9941 -78.8086 82.4707 -90.4785 68.9453 -90.4785 C 55.4688 -90.4785 43.8965 -78.5645 43.9453 -63.3789 C 43.9453 -47.8516 55.3711 -35.791 68.9453 -35.791 Z M 129.883 -32.3242 C 133.252 -32.3242 136.084 -34.9609 136.084 -38.2812 C 136.084 -41.6504 133.301 -44.2871 129.883 -44.2871 C 126.514 -44.2871 123.73 -41.6016 123.73 -38.2812 C 123.73 -35.0098 126.562 -32.3242 129.883 -32.3242 Z M 28.6133 22.168 L 109.18 22.168 C 118.213 22.168 121.729 19.5801 121.729 14.0625 C 121.729 -2.14844 101.465 -24.4629 68.8965 -24.4629 C 36.3281 -24.4629 16.0645 -2.14844 16.0645 14.0625 C 16.0645 19.5801 19.5801 22.168 28.6133 22.168 Z"/>
  </g>
  <g id="Light-L" transform="matrix(1 0 0 1 1070.61 1556)">
   <path d="M 129.297 -50.7324 C 131.348 -50.7324 132.617 -52.0996 132.617 -53.8574 L 132.617 -55.4199 C 132.617 -59.2285 134.521 -61.5723 139.258 -64.7949 C 145.654 -69.0918 148.975 -72.8027 148.975 -79.3457 C 148.975 -88.2812 141.016 -93.8965 130.908 -93.8965 C 120.703 -93.8965 114.111 -88.3789 112.891 -82.1289 C 112.695 -81.25 112.549 -80.3711 112.549 -79.4434 C 112.549 -77.5391 114.014 -76.4648 115.527 -76.4648 C 117.822 -76.4648 118.408 -77.7344 119.434 -79.4434 C 120.703 -84.375 124.609 -88.0859 130.615 -88.0859 C 137.5 -88.0859 141.846 -84.3262 141.846 -79.0039 C 141.846 -74.6582 139.502 -72.168 133.594 -68.0664 C 128.613 -64.5996 125.977 -61.3281 125.977 -55.8105 L 125.977 -54.1016 C 125.977 -51.9531 127.246 -50.7324 129.297 -50.7324 Z M 68.75 -35.6445 C 82.4219 -35.6445 93.5059 -47.6074 93.5059 -63.1836 C 93.5059 -78.125 82.2754 -89.9902 68.75 -89.9902 C 55.2246 -89.9902 43.8965 -77.9785 43.9941 -63.0859 C 43.9941 -47.6074 55.0781 -35.6445 68.75 -35.6445 Z M 129.199 -33.1543 C 132.129 -33.1543 134.57 -35.5469 134.57 -38.4277 C 134.57 -41.3574 132.178 -43.7012 129.199 -43.7012 C 126.221 -43.7012 123.828 -41.3086 123.828 -38.4277 C 123.828 -35.5957 126.27 -33.1543 129.199 -33.1543 Z M 27.4414 21.8262 L 109.863 21.8262 C 117.773 21.8262 121.24 19.5312 121.24 14.0625 C 121.24 -2.05078 101.074 -24.3164 68.6523 -24.3164 C 36.2305 -24.3164 16.0645 -2.05078 16.0645 14.0625 C 16.0645 19.5312 19.5312 21.8262 27.4414 21.8262 Z"/>
  </g>
  <g id="Thin-L" transform="matrix(1 0 0 1 775.245 1556)">
   <path d="M 128.369 -50.9766 C 129.541 -50.9766 130.322 -51.8066 130.322 -53.0273 L 130.322 -55.1758 C 130.322 -59.2285 132.031 -61.6211 137.109 -65.0879 C 143.75 -69.6289 146.289 -73.3398 146.289 -79.1504 C 146.289 -86.8652 139.355 -92.4805 129.639 -92.4805 C 119.922 -92.4805 113.721 -86.7188 112.891 -80.127 C 112.793 -79.3457 112.695 -78.6133 112.695 -77.7832 C 112.695 -76.5625 113.574 -75.8301 114.648 -75.8301 C 115.967 -75.8301 116.602 -76.6113 116.895 -77.7832 C 117.529 -83.8379 122.119 -88.8184 129.443 -88.8184 C 137.207 -88.8184 142.041 -84.668 142.041 -78.9062 C 142.041 -74.5605 139.893 -71.7285 133.691 -67.4316 C 128.418 -63.7207 126.318 -60.498 126.318 -55.4688 L 126.318 -53.0762 C 126.318 -51.8066 127.148 -50.9766 128.369 -50.9766 Z M 68.5059 -35.498 C 82.2754 -35.498 92.9199 -47.3145 92.9199 -62.7441 C 92.9199 -77.2461 82.0801 -89.4043 68.5059 -89.4043 C 54.9316 -89.4043 43.8965 -77.1973 44.043 -62.6953 C 44.043 -47.3145 54.6875 -35.498 68.5059 -35.498 Z M 128.271 -34.3262 C 130.664 -34.3262 132.568 -36.3281 132.568 -38.623 C 132.568 -40.918 130.664 -42.8711 128.271 -42.8711 C 125.879 -42.8711 123.975 -40.918 123.975 -38.623 C 123.975 -36.377 125.879 -34.3262 128.271 -34.3262 Z M 25.8789 21.3379 L 110.791 21.3379 C 117.139 21.3379 120.605 19.4336 120.605 14.0137 C 120.605 -2.00195 100.537 -24.1211 68.3594 -24.1211 C 36.1328 -24.1211 16.0645 -2.00195 16.0645 14.0137 C 16.0645 19.4336 19.5312 21.3379 25.8789 21.3379 Z"/>
  </g>
  <g id="Ultralight-L" transform="matrix(1 0 0 1 479.242 1556)">
   <path d="M 127.881 -51.0742 C 128.613 -51.0742 129.15 -51.709 129.15 -52.5879 L 129.15 -55.0781 C 129.15 -59.2285 130.811 -61.6699 136.035 -65.2832 C 142.773 -69.9219 144.873 -73.584 144.873 -79.0527 C 144.873 -86.1328 138.477 -91.7969 129.004 -91.7969 C 119.58 -91.7969 113.525 -85.8398 112.939 -79.1016 C 112.842 -78.3691 112.793 -77.6855 112.793 -76.9043 C 112.793 -76.0254 113.379 -75.4883 114.209 -75.4883 C 115.039 -75.4883 115.674 -75.9766 115.576 -76.9043 C 115.918 -83.5449 120.801 -89.1602 128.857 -89.1602 C 137.061 -89.1602 142.139 -84.8145 142.139 -78.8574 C 142.139 -74.4629 140.137 -71.5332 133.789 -67.1387 C 128.271 -63.2812 126.514 -60.0586 126.514 -55.2734 L 126.514 -52.5391 C 126.514 -51.709 127.148 -51.0742 127.881 -51.0742 Z M 68.3594 -35.4004 C 82.2266 -35.4004 92.627 -47.168 92.627 -62.5 C 92.627 -76.8066 81.9336 -89.0625 68.3594 -89.0625 C 54.7363 -89.0625 43.8965 -76.8066 44.043 -62.5 C 44.043 -47.168 54.4922 -35.4004 68.3594 -35.4004 Z M 127.783 -34.9121 C 129.932 -34.9121 131.543 -36.7676 131.543 -38.6719 C 131.543 -40.7227 129.932 -42.4805 127.783 -42.4805 C 125.684 -42.4805 124.023 -40.7227 124.023 -38.6719 C 124.023 -36.7676 125.684 -34.9121 127.783 -34.9121 Z M 25.0977 21.0449 L 111.279 21.0449 C 116.846 21.0449 120.312 19.3848 120.312 14.0137 C 120.312 -1.95312 100.293 -24.0234 68.1641 -24.0234 C 36.0352 -24.0234 16.0645 -1.95312 16.0645 14.0137 C 16.0645 19.3848 19.5312 21.0449 25.0977 21.0449 Z"/>
  </g>
  <g id="Black-M" transform="matrix(1 0 0 1 2865.14 1126)">
   <path d="M 104.199 -49.2676 C 107.959 -49.2676 110.84 -50.8789 111.621 -53.2227 C 111.67 -53.3691 111.768 -53.6621 111.816 -53.7598 C 112.646 -55.3223 115.039 -56.7383 117.041 -57.959 C 122.363 -61.1816 124.072 -63.8184 124.072 -68.5547 C 124.072 -76.6602 116.357 -82.666 105.811 -82.666 C 97.6074 -82.666 91.1621 -79.6387 88.7695 -74.6582 C 88.2812 -73.584 88.0371 -72.5586 88.0371 -71.3867 C 88.0371 -68.2617 90.3809 -65.3809 95.5078 -65.3809 C 98.7793 -65.3809 100.439 -66.7969 101.465 -67.6758 C 102.93 -68.9941 103.711 -69.4824 104.834 -69.4824 C 106.006 -69.4824 106.738 -68.75 106.738 -67.5781 C 106.738 -66.0645 104.785 -64.5508 101.27 -62.207 C 97.9004 -59.9121 95.8984 -57.7637 95.8984 -55.2246 L 95.8984 -55.127 C 95.8984 -51.2695 98.8281 -49.2676 104.199 -49.2676 Z M 54.541 -35.498 C 66.1621 -35.498 75.0488 -45.4102 75.0488 -57.7637 C 75.0488 -69.4824 66.0156 -79.7363 54.541 -79.7363 C 43.0664 -79.7363 33.9355 -69.4824 34.0332 -57.7637 C 34.082 -45.4102 42.9199 -35.498 54.541 -35.498 Z M 104.248 -32.3242 C 108.936 -32.3242 112.158 -34.7656 112.158 -39.1113 C 112.158 -43.3594 108.936 -45.8496 104.248 -45.8496 C 99.6094 -45.8496 96.2402 -43.4082 96.2402 -39.1113 C 96.2402 -34.7656 99.6094 -32.3242 104.248 -32.3242 Z M 25.1953 10.9375 L 83.8867 10.9375 C 93.5547 10.9375 96.6309 7.37305 96.6309 1.85547 C 96.6309 -10.498 79.834 -27.2461 54.541 -27.2461 C 29.248 -27.2461 12.4512 -10.498 12.4512 1.85547 C 12.4512 7.37305 15.5273 10.9375 25.1953 10.9375 Z"/>
  </g>
  <g id="Heavy-M" transform="matrix(1 0 0 1 2569.11 1126)">
   <path d="M 103.467 -48.7305 C 106.934 -48.7305 109.521 -50.3418 110.107 -52.5879 C 110.156 -52.7344 110.205 -52.9785 110.254 -53.125 C 110.889 -54.9316 113.086 -56.4453 115.43 -57.9102 C 120.605 -61.1328 122.705 -63.8184 122.705 -68.7988 C 122.705 -76.9043 115.088 -82.5684 105.078 -82.5684 C 96.8262 -82.5684 90.625 -79.2969 88.4766 -74.4141 C 88.0371 -73.3887 87.793 -72.4609 87.793 -71.3379 C 87.793 -68.457 90.0391 -65.9668 94.3359 -65.9668 C 97.4609 -65.9668 98.8281 -67.3828 99.9512 -68.5059 C 101.465 -70.1172 102.637 -70.8984 104.248 -70.8984 C 106.201 -70.8984 107.471 -69.7266 107.471 -67.9688 C 107.471 -66.0156 105.469 -64.502 101.807 -62.0117 C 98.3887 -59.668 96.2402 -57.4219 96.2402 -54.3457 L 96.2402 -54.1016 C 96.2402 -50.5859 98.8281 -48.7305 103.467 -48.7305 Z M 54.2969 -35.5469 C 65.6738 -35.5469 74.6094 -45.3613 74.6094 -57.666 C 74.6094 -69.4336 65.5762 -79.3945 54.2969 -79.3945 C 43.0664 -79.3945 33.9844 -69.3848 34.0332 -57.6172 C 34.082 -45.3613 42.9688 -35.5469 54.2969 -35.5469 Z M 103.516 -32.373 C 107.715 -32.373 110.791 -34.7656 110.791 -38.7207 C 110.791 -42.6758 107.764 -45.0684 103.516 -45.0684 C 99.2676 -45.0684 96.1426 -42.7246 96.1426 -38.7207 C 96.1426 -34.7656 99.3164 -32.373 103.516 -32.373 Z M 24.6582 10.5957 L 83.9355 10.5957 C 93.1641 10.5957 96.1426 7.32422 96.1426 2.14844 C 96.1426 -10.2539 79.5898 -27.1484 54.2969 -27.1484 C 29.0039 -27.1484 12.4512 -10.2539 12.4512 2.14844 C 12.4512 7.32422 15.4297 10.5957 24.6582 10.5957 Z"/>
  </g>
  <g id="Bold-M" transform="matrix(1 0 0 1 2273.18 1126)">
   <path d="M 102.686 -48.1445 C 105.811 -48.1445 108.008 -49.7559 108.35 -51.8555 C 108.398 -52.0508 108.447 -52.2949 108.447 -52.4414 C 108.887 -54.5898 110.889 -56.1523 113.574 -57.8613 C 118.604 -61.084 121.143 -63.8184 121.143 -69.0918 C 121.143 -77.1973 113.672 -82.373 104.248 -82.373 C 95.9473 -82.373 89.9902 -78.9062 88.1348 -74.1699 C 87.7441 -73.1934 87.5488 -72.3145 87.5488 -71.2891 C 87.5488 -68.6523 89.5996 -66.6016 92.9688 -66.6016 C 95.9473 -66.6016 97.0215 -68.0664 98.3398 -69.4336 C 99.8535 -71.4355 101.416 -72.4609 103.613 -72.4609 C 106.396 -72.4609 108.252 -70.8496 108.252 -68.4082 C 108.252 -65.9668 106.201 -64.4531 102.344 -61.7676 C 98.9258 -59.375 96.582 -57.0312 96.582 -53.3691 L 96.582 -52.9785 C 96.582 -49.8047 98.7793 -48.1445 102.686 -48.1445 Z M 54.0527 -35.5957 C 65.0879 -35.5957 74.0723 -45.2637 74.0723 -57.5684 C 74.0723 -69.4336 65.0391 -79.0039 54.0527 -79.0039 C 43.0664 -79.0039 33.9844 -69.3359 34.0332 -57.5195 C 34.082 -45.2637 43.0176 -35.5957 54.0527 -35.5957 Z M 102.686 -32.4219 C 106.396 -32.4219 109.277 -34.7168 109.277 -38.3301 C 109.277 -41.8945 106.445 -44.2383 102.686 -44.2383 C 98.9258 -44.2383 96.0449 -41.8945 96.0449 -38.3301 C 96.0449 -34.7656 98.9258 -32.4219 102.686 -32.4219 Z M 24.0234 10.2051 L 84.0332 10.2051 C 92.7246 10.2051 95.6055 7.32422 95.6055 2.44141 C 95.6055 -10.0586 79.3457 -27.0996 54.0527 -27.0996 C 28.7109 -27.0996 12.4512 -10.0586 12.4512 2.44141 C 12.4512 7.32422 15.332 10.2051 24.0234 10.2051 Z"/>
  </g>
  <g id="Semibold-M" transform="matrix(1 0 0 1 1977.01 1126)">
   <path d="M 102.148 -47.7539 C 105.029 -47.7539 106.934 -49.3164 107.178 -51.3672 C 107.227 -51.5625 107.227 -51.7578 107.227 -51.9531 C 107.52 -54.2969 109.375 -55.9082 112.305 -57.8613 C 117.236 -61.0352 120.068 -63.8184 120.068 -69.2871 C 120.068 -77.3926 112.695 -82.2754 103.711 -82.2754 C 95.3613 -82.2754 89.5508 -78.6133 87.8906 -73.9746 C 87.5488 -73.0957 87.3535 -72.2168 87.3535 -71.2891 C 87.3535 -68.7988 89.3066 -67.0898 92.041 -67.0898 C 94.9219 -67.0898 95.752 -68.5059 97.168 -70.0684 C 98.7305 -72.3145 100.586 -73.584 103.174 -73.584 C 106.592 -73.584 108.789 -71.6309 108.789 -68.7012 C 108.789 -65.9668 106.738 -64.4043 102.734 -61.6211 C 99.2676 -59.2285 96.8262 -56.7871 96.8262 -52.6855 L 96.8262 -52.2461 C 96.8262 -49.2676 98.7305 -47.7539 102.148 -47.7539 Z M 53.8574 -35.6445 C 64.6973 -35.6445 73.7305 -45.2148 73.7305 -57.4707 C 73.7305 -69.3848 64.6484 -78.7598 53.8574 -78.7598 C 43.1152 -78.7598 33.9844 -69.2871 34.0332 -57.4219 C 34.0332 -45.2148 43.0176 -35.6445 53.8574 -35.6445 Z M 102.1 -32.4219 C 105.469 -32.4219 108.203 -34.7168 108.203 -38.0371 C 108.203 -41.3574 105.518 -43.6523 102.1 -43.6523 C 98.6816 -43.6523 95.9473 -41.3086 95.9473 -38.0371 C 95.9473 -34.7656 98.6816 -32.4219 102.1 -32.4219 Z M 23.6328 9.96094 L 84.082 9.96094 C 92.4316 9.96094 95.2637 7.27539 95.2637 2.63672 C 95.2637 -9.86328 79.1504 -27.0508 53.8574 -27.0508 C 28.5156 -27.0508 12.4512 -9.86328 12.4512 2.63672 C 12.4512 7.27539 15.2832 9.96094 23.6328 9.96094 Z"/>
  </g>
  <g id="Medium-M" transform="matrix(1 0 0 1 1680.69 1126)">
   <path d="M 101.709 -47.4609 C 104.443 -47.4609 106.152 -48.9746 106.299 -50.9766 C 106.299 -51.1719 106.299 -51.416 106.299 -51.5625 C 106.494 -54.1016 108.203 -55.7617 111.377 -57.8125 C 116.211 -60.9863 119.287 -63.8184 119.287 -69.4336 C 119.287 -77.5391 111.963 -82.2266 103.271 -82.2266 C 94.9219 -82.2266 89.209 -78.418 87.6953 -73.8281 C 87.4023 -72.998 87.207 -72.1191 87.207 -71.2402 C 87.207 -68.8965 89.0625 -67.4316 91.3086 -67.4316 C 94.1895 -67.4316 94.8242 -68.8965 96.2891 -70.5566 C 97.9004 -72.998 99.9512 -74.4141 102.832 -74.4141 C 106.689 -74.4141 109.18 -72.2168 109.18 -68.9453 C 109.18 -65.9668 107.129 -64.3555 103.027 -61.4746 C 99.5605 -59.082 97.0215 -56.5918 97.0215 -52.1973 L 97.0215 -51.6602 C 97.0215 -48.877 98.7305 -47.4609 101.709 -47.4609 Z M 53.7598 -35.6934 C 64.4043 -35.6934 73.4375 -45.166 73.4375 -57.4219 C 73.4375 -69.3848 64.3555 -78.5645 53.7598 -78.5645 C 43.1152 -78.5645 33.9844 -69.2383 34.0332 -57.3242 C 34.0332 -45.166 43.0664 -35.6934 53.7598 -35.6934 Z M 101.66 -32.4219 C 104.785 -32.4219 107.373 -34.7168 107.373 -37.8418 C 107.373 -40.918 104.834 -43.2129 101.66 -43.2129 C 98.4863 -43.2129 95.8984 -40.918 95.8984 -37.8418 C 95.8984 -34.7656 98.4863 -32.4219 101.66 -32.4219 Z M 23.291 9.7168 L 84.1309 9.7168 C 92.1875 9.7168 94.9707 7.27539 94.9707 2.7832 C 94.9707 -9.76562 79.0527 -27.0508 53.7109 -27.0508 C 28.418 -27.0508 12.4512 -9.76562 12.4512 2.7832 C 12.4512 7.27539 15.2344 9.7168 23.291 9.7168 Z"/>
  </g>
  <g id="Regular-M" transform="matrix(1 0 0 1 1384.51 1126)">
   <path d="M 101.172 -47.0215 C 103.662 -47.0215 105.127 -48.584 105.127 -50.4883 L 105.127 -51.0742 C 105.127 -53.8574 106.738 -55.5664 110.107 -57.8125 C 114.844 -60.9375 118.213 -63.7695 118.213 -69.6289 C 118.213 -77.7344 110.986 -82.1289 102.686 -82.1289 C 94.3359 -82.1289 88.8184 -78.125 87.4512 -73.6328 C 87.207 -72.8516 87.0605 -72.0215 87.0605 -71.2402 C 87.0605 -69.043 88.7695 -67.8711 90.3809 -67.8711 C 93.1641 -67.8711 93.6035 -69.3359 95.166 -71.1914 C 96.7773 -73.877 99.1211 -75.4883 102.393 -75.4883 C 106.836 -75.4883 109.717 -72.9492 109.717 -69.2383 C 109.717 -65.918 107.666 -64.3066 103.418 -61.3281 C 99.9023 -58.8867 97.3145 -56.2988 97.3145 -51.5137 L 97.3145 -50.8789 C 97.3145 -48.3398 98.6816 -47.0215 101.172 -47.0215 Z M 53.5645 -35.7422 C 64.0137 -35.7422 73.0957 -45.1172 73.0957 -57.3242 C 73.0957 -69.3848 64.0137 -78.3203 53.5645 -78.3203 C 43.1152 -78.3203 34.0332 -69.1895 34.0332 -57.2266 C 34.0332 -45.1172 43.0664 -35.7422 53.5645 -35.7422 Z M 101.074 -32.4707 C 103.906 -32.4707 106.348 -34.7168 106.348 -37.5488 C 106.348 -40.3809 103.955 -42.627 101.074 -42.627 C 98.1934 -42.627 95.8008 -40.332 95.8008 -37.5488 C 95.8008 -34.7656 98.2422 -32.4707 101.074 -32.4707 Z M 22.8516 9.47266 L 84.1797 9.47266 C 91.8945 9.47266 94.6289 7.27539 94.6289 2.97852 C 94.6289 -9.61914 78.8574 -27.002 53.5156 -27.002 C 28.2227 -27.002 12.4512 -9.61914 12.4512 2.97852 C 12.4512 7.27539 15.1855 9.47266 22.8516 9.47266 Z"/>
  </g>
  <g id="Light-M" transform="matrix(1 0 0 1 1088.7 1126)">
   <path d="M 100.537 -47.168 C 102.393 -47.168 103.564 -48.3887 103.564 -49.9512 L 103.564 -50.9277 C 103.564 -53.8574 105.078 -55.6152 108.643 -58.0078 C 113.525 -61.2793 116.406 -64.1602 116.406 -69.4824 C 116.406 -76.8066 109.863 -81.1523 101.855 -81.1523 C 93.7988 -81.1523 88.5254 -77.002 87.4512 -72.2656 C 87.2559 -71.5332 87.1582 -70.8496 87.1582 -70.0684 C 87.1582 -68.3594 88.4766 -67.4316 89.7949 -67.4316 C 91.8945 -67.4316 92.3828 -68.5547 93.457 -70.0684 C 94.6289 -73.4863 97.4121 -75.9766 101.611 -75.9766 C 106.641 -75.9766 109.863 -73.1934 109.863 -69.1895 C 109.863 -65.8203 107.959 -64.0137 103.467 -60.8887 C 99.7559 -58.3008 97.5098 -55.7617 97.5098 -51.2695 L 97.5098 -50.1953 C 97.5098 -48.2422 98.6328 -47.168 100.537 -47.168 Z M 53.3691 -35.5957 C 63.916 -35.5957 72.7051 -44.9219 72.7051 -57.0312 C 72.7051 -68.75 63.8672 -77.8809 53.3691 -77.8809 C 42.9199 -77.8809 34.0332 -68.6523 34.082 -56.9824 C 34.082 -44.9219 42.8223 -35.5957 53.3691 -35.5957 Z M 100.439 -33.252 C 102.881 -33.252 104.98 -35.2051 104.98 -37.6465 C 104.98 -40.0879 102.93 -42.041 100.439 -42.041 C 97.9492 -42.041 95.8984 -40.0879 95.8984 -37.6465 C 95.8984 -35.2539 97.998 -33.252 100.439 -33.252 Z M 21.8262 9.13086 L 84.8145 9.13086 C 91.4551 9.13086 94.1895 7.22656 94.1895 2.97852 C 94.1895 -9.57031 78.5156 -26.8555 53.3203 -26.8555 C 28.125 -26.8555 12.4512 -9.57031 12.4512 2.97852 C 12.4512 7.22656 15.1855 9.13086 21.8262 9.13086 Z"/>
  </g>
  <g id="Thin-M" transform="matrix(1 0 0 1 793.214 1126)">
   <path d="M 99.707 -47.3633 C 100.781 -47.3633 101.514 -48.1445 101.514 -49.2188 L 101.514 -50.7324 C 101.514 -53.8574 102.881 -55.6641 106.738 -58.3008 C 111.816 -61.7676 113.965 -64.6484 113.965 -69.2871 C 113.965 -75.5371 108.35 -79.9316 100.732 -79.9316 C 93.1152 -79.9316 88.2324 -75.4883 87.5 -70.459 C 87.4023 -69.8242 87.3047 -69.2383 87.3047 -68.5547 C 87.3047 -67.4805 88.1348 -66.8457 89.0625 -66.8457 C 90.2832 -66.8457 90.7715 -67.5293 91.1621 -68.5547 C 91.7969 -72.998 95.166 -76.6113 100.586 -76.6113 C 106.396 -76.6113 110.059 -73.4375 110.059 -69.0918 C 110.059 -65.7227 108.35 -63.623 103.613 -60.3516 C 99.5605 -57.5195 97.8516 -54.9805 97.8516 -50.9766 L 97.8516 -49.2676 C 97.8516 -48.0957 98.584 -47.3633 99.707 -47.3633 Z M 53.125 -35.4492 C 63.8184 -35.4492 72.168 -44.6777 72.168 -56.6406 C 72.168 -67.9688 63.6719 -77.3438 53.125 -77.3438 C 42.627 -77.3438 34.0332 -67.9199 34.1309 -56.5918 C 34.1309 -44.6777 42.4805 -35.4492 53.125 -35.4492 Z M 99.6094 -34.2773 C 101.562 -34.2773 103.174 -35.9375 103.174 -37.793 C 103.174 -39.7461 101.611 -41.3574 99.6094 -41.3574 C 97.6074 -41.3574 96.0449 -39.7461 96.0449 -37.793 C 96.0449 -35.9375 97.6562 -34.2773 99.6094 -34.2773 Z M 20.4102 8.69141 L 85.6445 8.69141 C 90.918 8.69141 93.6035 7.12891 93.6035 2.97852 C 93.6035 -9.47266 78.0273 -26.6602 53.0273 -26.6602 C 28.0273 -26.6602 12.4512 -9.47266 12.4512 2.97852 C 12.4512 7.12891 15.1367 8.69141 20.4102 8.69141 Z"/>
  </g>
  <g id="Ultralight-M" transform="matrix(1 0 0 1 497.138 1126)">
   <path d="M 99.2676 -47.4609 C 99.9512 -47.4609 100.439 -48.0469 100.439 -48.8281 L 100.439 -50.6348 C 100.439 -53.8574 101.758 -55.7129 105.762 -58.4473 C 110.938 -62.0117 112.695 -64.8926 112.695 -69.2383 C 112.695 -74.9023 107.568 -79.248 100.146 -79.248 C 92.7734 -79.248 88.0371 -74.707 87.5 -69.5312 C 87.4512 -68.9453 87.4023 -68.4082 87.4023 -67.7734 C 87.4023 -66.9922 87.9395 -66.5039 88.6719 -66.5039 C 89.4531 -66.5039 89.9414 -66.9922 89.9414 -67.7734 C 90.332 -72.7539 93.9941 -76.9043 100.049 -76.9043 C 106.25 -76.9043 110.156 -73.584 110.156 -69.043 C 110.156 -65.6738 108.545 -63.4277 103.662 -60.0586 C 99.4629 -57.0801 97.998 -54.5898 97.998 -50.8301 L 97.998 -48.8281 C 97.998 -48.0469 98.5352 -47.4609 99.2676 -47.4609 Z M 53.0273 -35.4004 C 63.7207 -35.4004 71.875 -44.5312 71.875 -56.4453 C 71.875 -67.5781 63.5254 -77.0508 53.0273 -77.0508 C 42.4805 -77.0508 34.0332 -67.5781 34.1309 -56.4453 C 34.1309 -44.5312 42.2852 -35.4004 53.0273 -35.4004 Z M 99.1699 -34.8145 C 100.928 -34.8145 102.246 -36.2793 102.246 -37.8906 C 102.246 -39.5508 100.928 -40.9668 99.1699 -40.9668 C 97.4609 -40.9668 96.0938 -39.5508 96.0938 -37.8906 C 96.0938 -36.2793 97.4609 -34.8145 99.1699 -34.8145 Z M 19.6777 8.49609 L 86.084 8.49609 C 90.625 8.49609 93.3105 7.12891 93.3105 2.92969 C 93.3105 -9.47266 77.832 -26.6113 52.8809 -26.6113 C 27.9785 -26.6113 12.4512 -9.47266 12.4512 2.92969 C 12.4512 7.12891 15.1367 8.49609 19.6777 8.49609 Z"/>
  </g>
  <g id="Black-S" transform="matrix(1 0 0 1 2879.96 696)">
   <path d="M 81.5918 -46.1914 C 84.5215 -46.1914 86.7676 -47.4609 87.3535 -49.2676 C 87.4023 -49.4141 87.4512 -49.6094 87.5 -49.707 C 88.1348 -50.9277 89.9902 -52.0508 91.6016 -53.0273 C 95.752 -55.5664 97.1191 -57.6172 97.1191 -61.377 C 97.1191 -67.7246 91.0645 -72.4121 82.8613 -72.4121 C 76.416 -72.4121 71.3867 -70.0195 69.5312 -66.1133 C 69.1406 -65.2832 68.9453 -64.502 68.9453 -63.5742 C 68.9453 -61.1328 70.8008 -58.8867 74.7559 -58.8867 C 77.2949 -58.8867 78.5645 -60.0098 79.3945 -60.7422 C 80.5664 -61.7676 81.2012 -62.1582 82.0801 -62.1582 C 83.0566 -62.1582 83.6914 -61.5723 83.6914 -60.5957 C 83.6914 -59.375 82.1289 -58.2031 79.3945 -56.3477 C 76.7578 -54.541 75.1465 -52.8809 75.1465 -50.8301 L 75.1465 -50.7324 C 75.1465 -47.7539 77.4414 -46.1914 81.5918 -46.1914 Z M 42.7246 -35.4492 C 51.8066 -35.4492 58.7891 -43.2129 58.7891 -52.8809 C 58.7891 -62.0605 51.709 -70.0684 42.7246 -70.0684 C 33.7402 -70.0684 26.6113 -62.0605 26.6602 -52.8809 C 26.709 -43.2129 33.6426 -35.4492 42.7246 -35.4492 Z M 81.6406 -32.959 C 85.2539 -32.959 87.793 -34.8633 87.793 -38.2324 C 87.793 -41.5527 85.2539 -43.5059 81.6406 -43.5059 C 78.0273 -43.5059 75.3906 -41.6016 75.3906 -38.2324 C 75.3906 -34.8633 78.0273 -32.959 81.6406 -32.959 Z M 19.7266 0.927734 L 65.7227 0.927734 C 73.291 0.927734 75.6836 -1.85547 75.6836 -6.15234 C 75.6836 -15.8203 62.5488 -28.9551 42.7246 -28.9551 C 22.9004 -28.9551 9.76562 -15.8203 9.76562 -6.15234 C 9.76562 -1.85547 12.1582 0.927734 19.7266 0.927734 Z"/>
  </g>
  <g id="Heavy-S" transform="matrix(1 0 0 1 2583.66 696)">
   <path d="M 81.1035 -45.752 C 83.8867 -45.752 85.8887 -47.0703 86.3281 -48.8281 C 86.377 -48.9746 86.4258 -49.1699 86.4746 -49.2188 C 86.9629 -50.6836 88.6719 -51.8555 90.5273 -52.9785 C 94.5312 -55.4688 96.2891 -57.5684 96.2891 -61.5723 C 96.2891 -68.0176 90.2344 -72.4121 82.373 -72.4121 C 75.8789 -72.4121 70.9961 -69.873 69.2871 -66.0645 C 68.9453 -65.2832 68.75 -64.5508 68.75 -63.6719 C 68.75 -61.3281 70.5566 -59.375 73.877 -59.375 C 76.416 -59.375 77.4902 -60.5469 78.4668 -61.4746 C 79.6875 -62.6953 80.5664 -63.1836 81.7383 -63.1836 C 83.252 -63.1836 84.2285 -62.3047 84.2285 -60.8887 C 84.2285 -59.375 82.6172 -58.2031 79.7852 -56.25 C 77.1484 -54.4434 75.3906 -52.6855 75.3906 -50.1953 L 75.3906 -50.0488 C 75.3906 -47.2168 77.3926 -45.752 81.1035 -45.752 Z M 42.5781 -35.498 C 51.416 -35.498 58.4961 -43.1641 58.4961 -52.832 C 58.4961 -62.1094 51.3672 -69.873 42.5781 -69.873 C 33.7891 -69.873 26.6113 -62.0605 26.6602 -52.832 C 26.709 -43.1641 33.6914 -35.498 42.5781 -35.498 Z M 81.1523 -32.9102 C 84.4727 -32.9102 86.9141 -34.8145 86.9141 -37.9395 C 86.9141 -41.0645 84.4727 -42.9688 81.1523 -42.9688 C 77.7832 -42.9688 75.293 -41.0645 75.293 -37.9395 C 75.293 -34.8145 77.832 -32.9102 81.1523 -32.9102 Z M 19.4336 0.683594 L 65.7227 0.683594 C 73.0469 0.683594 75.3906 -1.85547 75.3906 -5.95703 C 75.3906 -15.6738 62.4023 -28.9062 42.5781 -28.9062 C 22.7051 -28.9062 9.76562 -15.6738 9.76562 -5.95703 C 9.76562 -1.85547 12.1094 0.683594 19.4336 0.683594 Z"/>
  </g>
  <g id="Bold-S" transform="matrix(1 0 0 1 2287.44 696)">
   <path d="M 80.5664 -45.3125 C 83.1543 -45.3125 84.9609 -46.6309 85.2539 -48.3887 C 85.2539 -48.4863 85.3027 -48.6328 85.3027 -48.7305 C 85.6445 -50.3906 87.207 -51.6113 89.3066 -52.9297 C 93.1641 -55.3711 95.3125 -57.5195 95.3125 -61.8164 C 95.3125 -68.3594 89.3066 -72.4121 81.8848 -72.4121 C 75.293 -72.4121 70.5566 -69.7266 69.043 -66.0645 C 68.7012 -65.2832 68.5547 -64.5996 68.5547 -63.7695 C 68.5547 -61.5723 70.2637 -59.9609 72.9492 -59.9609 C 75.4395 -59.9609 76.2695 -61.1816 77.3926 -62.3535 C 78.7109 -63.7207 79.834 -64.3555 81.3477 -64.3555 C 83.4473 -64.3555 84.8145 -63.1348 84.8145 -61.2305 C 84.8145 -59.3262 83.1543 -58.2031 80.1758 -56.1035 C 77.5391 -54.2969 75.6348 -52.4414 75.6348 -49.4629 L 75.6348 -49.2676 C 75.6348 -46.6309 77.3926 -45.3125 80.5664 -45.3125 Z M 42.3828 -35.5469 C 51.0254 -35.5469 58.1055 -43.1641 58.1055 -52.7832 C 58.1055 -62.1582 50.9766 -69.6289 42.3828 -69.6289 C 33.8379 -69.6289 26.6602 -62.0605 26.6602 -52.7344 C 26.709 -43.1641 33.7891 -35.5469 42.3828 -35.5469 Z M 80.5664 -32.8125 C 83.5449 -32.8125 85.8887 -34.7168 85.8887 -37.5977 C 85.8887 -40.4785 83.5938 -42.3828 80.5664 -42.3828 C 77.5391 -42.3828 75.1953 -40.4785 75.1953 -37.5977 C 75.1953 -34.7168 77.5879 -32.8125 80.5664 -32.8125 Z M 19.0918 0.439453 L 65.7227 0.439453 C 72.7539 0.439453 75 -1.9043 75 -5.71289 C 75 -15.4785 62.2559 -28.9062 42.3828 -28.9062 C 22.5098 -28.9062 9.76562 -15.4785 9.76562 -5.71289 C 9.76562 -1.9043 12.0117 0.439453 19.0918 0.439453 Z"/>
  </g>
  <g id="Semibold-S" transform="matrix(1 0 0 1 1991.05 696)">
   <path d="M 80.2246 -44.9707 C 82.666 -44.9707 84.2773 -46.2891 84.4727 -48.0469 C 84.4727 -48.1445 84.4727 -48.291 84.5215 -48.3398 C 84.7168 -50.1465 86.1816 -51.416 88.4277 -52.8809 C 92.2363 -55.3223 94.6777 -57.4707 94.6777 -61.9629 C 94.6777 -68.6035 88.623 -72.4121 81.4941 -72.4121 C 74.8535 -72.4121 70.2148 -69.5801 68.8477 -66.0156 C 68.5547 -65.332 68.4082 -64.5996 68.4082 -63.8672 C 68.4082 -61.7676 70.0195 -60.3516 72.2656 -60.3516 C 74.7559 -60.3516 75.3906 -61.5723 76.6602 -62.9395 C 78.0273 -64.4043 79.3457 -65.1367 81.0547 -65.1367 C 83.5449 -65.1367 85.2051 -63.6719 85.2051 -61.4746 C 85.2051 -59.3262 83.5449 -58.1543 80.4688 -56.0547 C 77.832 -54.1992 75.7812 -52.2949 75.7812 -48.9746 L 75.7812 -48.7793 C 75.7812 -46.2402 77.3926 -44.9707 80.2246 -44.9707 Z M 42.2852 -35.5957 C 50.7324 -35.5957 57.8613 -43.1152 57.8613 -52.7344 C 57.8613 -62.207 50.6836 -69.4824 42.2852 -69.4824 C 33.8379 -69.4824 26.6602 -62.0605 26.6602 -52.6855 C 26.6602 -43.1152 33.8379 -35.5957 42.2852 -35.5957 Z M 80.1758 -32.7637 C 82.959 -32.7637 85.2051 -34.668 85.2051 -37.4023 C 85.2051 -40.0879 82.959 -41.9922 80.1758 -41.9922 C 77.3926 -41.9922 75.1465 -40.0879 75.1465 -37.4023 C 75.1465 -34.668 77.3926 -32.7637 80.1758 -32.7637 Z M 18.8477 0.244141 L 65.6738 0.244141 C 72.5586 0.244141 74.7559 -1.9043 74.7559 -5.56641 C 74.7559 -15.3809 62.1582 -28.8574 42.2852 -28.8574 C 22.4121 -28.8574 9.76562 -15.3809 9.76562 -5.56641 C 9.76562 -1.9043 12.0117 0.244141 18.8477 0.244141 Z"/>
  </g>
  <g id="Medium-S" transform="matrix(1 0 0 1 1694.6 696)">
   <path d="M 79.9316 -44.7266 C 82.2754 -44.7266 83.7891 -46.0938 83.8867 -47.8027 C 83.8867 -47.9004 83.8867 -47.998 83.8867 -48.0957 C 84.0332 -50 85.4004 -51.3184 87.793 -52.832 C 91.5527 -55.2734 94.1406 -57.4707 94.1406 -62.0605 C 94.1406 -68.75 88.1348 -72.4121 81.25 -72.4121 C 74.5605 -72.4121 69.9707 -69.5312 68.7012 -66.0156 C 68.4082 -65.332 68.2617 -64.6484 68.2617 -63.916 C 68.2617 -61.8652 69.873 -60.6445 71.7773 -60.6445 C 74.2676 -60.6445 74.7559 -61.9141 76.123 -63.3789 C 77.5391 -64.9414 79.0039 -65.7227 80.8594 -65.7227 C 83.6914 -65.7227 85.498 -64.1113 85.498 -61.6699 C 85.498 -59.3262 83.8379 -58.1543 80.6641 -55.957 C 78.0762 -54.1504 75.9277 -52.1484 75.9277 -48.584 L 75.9277 -48.3398 C 75.9277 -45.9473 77.3438 -44.7266 79.9316 -44.7266 Z M 42.1875 -35.6445 C 50.5371 -35.6445 57.7148 -43.1152 57.7148 -52.7344 C 57.7148 -62.207 50.4883 -69.3359 42.1875 -69.3359 C 33.8867 -69.3359 26.6602 -62.0605 26.6602 -52.6367 C 26.6602 -43.1152 33.8379 -35.6445 42.1875 -35.6445 Z M 79.8828 -32.7148 C 82.4707 -32.7148 84.668 -34.6191 84.668 -37.207 C 84.668 -39.7949 82.5195 -41.6504 79.8828 -41.6504 C 77.2461 -41.6504 75.0977 -39.7461 75.0977 -37.207 C 75.0977 -34.668 77.2949 -32.7148 79.8828 -32.7148 Z M 18.6523 0.146484 L 65.6738 0.146484 C 72.4121 0.146484 74.6094 -1.9043 74.6094 -5.41992 C 74.6094 -15.2832 62.0605 -28.8574 42.1875 -28.8574 C 22.2656 -28.8574 9.76562 -15.2832 9.76562 -5.41992 C 9.76562 -1.9043 11.9629 0.146484 18.6523 0.146484 Z"/>
  </g>
  <g id="Regular-S" transform="matrix(1 0 0 1 1398.21 696)">
   <path d="M 79.5898 -44.3848 C 81.7871 -44.3848 83.1055 -45.752 83.1055 -47.4609 L 83.1055 -47.7539 C 83.1055 -49.8047 84.4238 -51.123 86.9629 -52.832 C 90.625 -55.1758 93.5059 -57.4219 93.5059 -62.2559 C 93.5059 -68.9941 87.5 -72.4121 80.8594 -72.4121 C 74.1211 -72.4121 69.6777 -69.3848 68.5059 -66.0156 C 68.2617 -65.332 68.1152 -64.6484 68.1152 -63.9648 C 68.1152 -62.0605 69.6777 -61.0352 71.0938 -61.0352 C 73.584 -61.0352 73.9258 -62.3535 75.3906 -63.916 C 76.8555 -65.6738 78.5156 -66.5527 80.6152 -66.5527 C 83.7891 -66.5527 85.8887 -64.6973 85.8887 -61.9141 C 85.8887 -59.3262 84.2285 -58.1543 80.957 -55.9082 C 78.3691 -54.0527 76.123 -52.002 76.123 -48.0957 L 76.123 -47.8516 C 76.123 -45.5566 77.3438 -44.3848 79.5898 -44.3848 Z M 42.041 -35.6934 C 50.2441 -35.6934 57.4707 -43.0664 57.4707 -52.6855 C 57.4707 -62.2559 50.2441 -69.1895 42.041 -69.1895 C 33.8867 -69.1895 26.6602 -62.0605 26.6602 -52.5879 C 26.6602 -43.0664 33.8867 -35.6934 42.041 -35.6934 Z M 79.4922 -32.666 C 81.8848 -32.666 83.9844 -34.5703 83.9844 -36.9629 C 83.9844 -39.4043 81.9336 -41.2598 79.4922 -41.2598 C 77.0508 -41.2598 75 -39.3555 75 -36.9629 C 75 -34.6191 77.0996 -32.666 79.4922 -32.666 Z M 18.457 -0.0488281 L 65.6738 -0.0488281 C 72.2168 -0.0488281 74.3652 -1.9043 74.3652 -5.27344 C 74.3652 -15.1855 61.9629 -28.8574 42.041 -28.8574 C 22.168 -28.8574 9.76562 -15.1855 9.76562 -5.27344 C 9.76562 -1.9043 11.9141 -0.0488281 18.457 -0.0488281 Z"/>
  </g>
  <g id="Light-S" transform="matrix(1 0 0 1 1102.3 696)">
   <path d="M 79.0039 -44.5312 C 80.7129 -44.5312 81.7383 -45.6055 81.7383 -46.9727 L 81.7383 -47.6074 C 81.7383 -49.8047 82.959 -51.1719 85.6934 -53.0273 C 89.4531 -55.5176 91.8945 -57.7637 91.8945 -62.1094 C 91.8945 -68.1641 86.5234 -71.582 80.127 -71.582 C 73.6816 -71.582 69.4824 -68.4082 68.5059 -64.7949 C 68.3594 -64.1602 68.2129 -63.5742 68.2129 -62.9883 C 68.2129 -61.4746 69.4336 -60.5957 70.6055 -60.5957 C 72.5098 -60.5957 72.8516 -61.6211 73.877 -62.9395 C 74.9512 -65.332 77.002 -66.9434 79.8828 -66.9434 C 83.6426 -66.9434 86.0352 -64.8926 86.0352 -61.8652 C 86.0352 -59.2285 84.4727 -57.9102 81.0547 -55.5176 C 78.2227 -53.5156 76.3184 -51.5137 76.3184 -47.9004 L 76.3184 -47.2168 C 76.3184 -45.459 77.2949 -44.5312 79.0039 -44.5312 Z M 41.8945 -35.5957 C 50.1465 -35.5957 57.1289 -42.9199 57.1289 -52.4414 C 57.1289 -61.7188 50.0977 -68.7988 41.8945 -68.7988 C 33.6914 -68.7988 26.6602 -61.6211 26.709 -52.3438 C 26.709 -42.9199 33.6426 -35.5957 41.8945 -35.5957 Z M 78.9551 -33.3984 C 81.0059 -33.3984 82.7637 -35.0098 82.7637 -37.0605 C 82.7637 -39.1602 81.0059 -40.7715 78.9551 -40.7715 C 76.8555 -40.7715 75.0977 -39.1113 75.0977 -37.0605 C 75.0977 -35.0586 76.8555 -33.3984 78.9551 -33.3984 Z M 17.4805 -0.341797 L 66.2109 -0.341797 C 71.8262 -0.341797 73.9746 -1.95312 73.9746 -5.27344 C 73.9746 -15.1367 61.6699 -28.7109 41.8457 -28.7109 C 22.0703 -28.7109 9.76562 -15.1367 9.76562 -5.27344 C 9.76562 -1.95312 11.9141 -0.341797 17.4805 -0.341797 Z"/>
  </g>
  <g id="Thin-S" transform="matrix(1 0 0 1 806.666 696)">
   <path d="M 78.2715 -44.7266 C 79.2969 -44.7266 79.9316 -45.4102 79.9316 -46.3379 L 79.9316 -47.4121 C 79.9316 -49.8047 81.0059 -51.2207 83.9844 -53.2715 C 87.9395 -55.9082 89.7461 -58.1543 89.7461 -61.9629 C 89.7461 -67.041 85.1562 -70.459 79.1504 -70.459 C 73.0957 -70.459 69.1895 -67.041 68.5547 -63.1836 C 68.457 -62.6953 68.3594 -62.1582 68.3594 -61.6211 C 68.3594 -60.6445 69.0918 -60.1074 69.9219 -60.1074 C 71.0449 -60.1074 71.4355 -60.7422 71.8262 -61.6211 C 72.4609 -64.9414 75 -67.5293 79.0039 -67.5293 C 83.3984 -67.5293 86.1816 -65.1367 86.1816 -61.7676 C 86.1816 -59.1309 84.8145 -57.5684 81.1523 -55.0293 C 78.0273 -52.832 76.5625 -50.8789 76.5625 -47.6562 L 76.5625 -46.4355 C 76.5625 -45.3613 77.2461 -44.7266 78.2715 -44.7266 Z M 41.6992 -35.4492 C 50.0488 -35.4492 56.6406 -42.6758 56.6406 -52.0996 C 56.6406 -61.0352 49.9023 -68.3105 41.6992 -68.3105 C 33.4473 -68.3105 26.6602 -60.9863 26.709 -52.0508 C 26.709 -42.6758 33.3496 -35.4492 41.6992 -35.4492 Z M 78.2227 -34.2773 C 79.834 -34.2773 81.2012 -35.6445 81.2012 -37.207 C 81.2012 -38.8184 79.834 -40.1367 78.2227 -40.1367 C 76.5625 -40.1367 75.1953 -38.8184 75.1953 -37.207 C 75.1953 -35.6445 76.5625 -34.2773 78.2227 -34.2773 Z M 16.2598 -0.732422 L 66.9434 -0.732422 C 71.3379 -0.732422 73.4863 -2.00195 73.4863 -5.32227 C 73.4863 -15.0879 61.2305 -28.5645 41.6016 -28.5645 C 21.9727 -28.5645 9.76562 -15.0879 9.76562 -5.32227 C 9.76562 -2.00195 11.8652 -0.732422 16.2598 -0.732422 Z"/>
  </g>
  <g id="Ultralight-S" transform="matrix(1 0 0 1 510.517 696)">
   <path d="M 77.8809 -44.8242 C 78.5156 -44.8242 78.9551 -45.3125 78.9551 -45.9961 L 78.9551 -47.3145 C 78.9551 -49.8047 80.0293 -51.2695 83.1055 -53.3691 C 87.1582 -56.1523 88.623 -58.3984 88.623 -61.8652 C 88.623 -66.5039 84.4727 -69.9219 78.6133 -69.9219 C 72.7539 -69.9219 69.043 -66.3574 68.5547 -62.3535 C 68.5059 -61.9141 68.457 -61.4258 68.457 -60.9375 C 68.457 -60.2539 68.9453 -59.8145 69.5801 -59.8145 C 70.3125 -59.8145 70.6543 -60.2539 70.8008 -60.9375 C 71.1426 -64.6973 73.9746 -67.8223 78.5156 -67.8223 C 83.3008 -67.8223 86.2793 -65.2344 86.2793 -61.7188 C 86.2793 -59.082 84.9609 -57.373 81.2012 -54.7363 C 77.9297 -52.4902 76.709 -50.5371 76.709 -47.5098 L 76.709 -45.9961 C 76.709 -45.2637 77.1973 -44.8242 77.8809 -44.8242 Z M 41.6016 -35.3516 C 49.9512 -35.3516 56.3965 -42.5781 56.3965 -51.9043 C 56.3965 -60.6934 49.8047 -68.0664 41.6016 -68.0664 C 33.3496 -68.0664 26.6602 -60.6445 26.7578 -51.9043 C 26.7578 -42.5781 33.2031 -35.3516 41.6016 -35.3516 Z M 77.832 -34.7656 C 79.248 -34.7656 80.3711 -35.9863 80.3711 -37.3047 C 80.3711 -38.6719 79.248 -39.8438 77.832 -39.8438 C 76.416 -39.8438 75.293 -38.6719 75.293 -37.3047 C 75.293 -35.9863 76.416 -34.7656 77.832 -34.7656 Z M 15.625 -0.927734 L 67.334 -0.927734 C 71.0938 -0.927734 73.1934 -2.05078 73.1934 -5.32227 C 73.1934 -15.0391 61.0352 -28.4668 41.5039 -28.4668 C 21.9238 -28.4668 9.76562 -15.0391 9.76562 -5.32227 C 9.76562 -2.05078 11.8652 -0.927734 15.625 -0.927734 Z"/>
  </g>
 </g>
</svg>
