<?xml version="1.0" encoding="UTF-8"?>
<!--Generator: Apple Native CoreSVG 148-->
<!DOCTYPE svg
PUBLIC "-//W3C//DTD SVG 1.1//EN"
       "http://www.w3.org/Graphics/SVG/1.1/DTD/svg11.dtd">
<svg version="1.1" xmlns="http://www.w3.org/2000/svg" xmlns:xlink="http://www.w3.org/1999/xlink" width="3300" height="2200">
 <!--glyph: "uni1004E6.medium", point size: 100.000000, font version: "Version 16.0d11e1", template writer version: "8"-->
 <g id="Notes">
  <rect height="2200" id="artboard" style="fill:white;opacity:1" width="3300" x="0" y="0"/>
  <line id="" style="fill:none;stroke:black;opacity:1;stroke-width:0.5;" x1="263" x2="3036" y1="292" y2="292"/>
  <text style="stroke:none;fill:black;font-family:-apple-system,&quot;SF Pro Display&quot;,&quot;SF Pro Text&quot;,Helvetica,sans-serif;font-weight:bold;" transform="matrix(1 0 0 1 263 322)">Weight/Scale Variations</text>
  <text style="stroke:none;fill:black;font-family:-apple-system,&quot;SF Pro Display&quot;,&quot;SF Pro Text&quot;,Helvetica,sans-serif;text-anchor:middle;" transform="matrix(1 0 0 1 559.711 322)">Ultralight</text>
  <text style="stroke:none;fill:black;font-family:-apple-system,&quot;SF Pro Display&quot;,&quot;SF Pro Text&quot;,Helvetica,sans-serif;text-anchor:middle;" transform="matrix(1 0 0 1 856.422 322)">Thin</text>
  <text style="stroke:none;fill:black;font-family:-apple-system,&quot;SF Pro Display&quot;,&quot;SF Pro Text&quot;,Helvetica,sans-serif;text-anchor:middle;" transform="matrix(1 0 0 1 1153.13 322)">Light</text>
  <text style="stroke:none;fill:black;font-family:-apple-system,&quot;SF Pro Display&quot;,&quot;SF Pro Text&quot;,Helvetica,sans-serif;text-anchor:middle;" transform="matrix(1 0 0 1 1449.84 322)">Regular</text>
  <text style="stroke:none;fill:black;font-family:-apple-system,&quot;SF Pro Display&quot;,&quot;SF Pro Text&quot;,Helvetica,sans-serif;text-anchor:middle;" transform="matrix(1 0 0 1 1746.56 322)">Medium</text>
  <text style="stroke:none;fill:black;font-family:-apple-system,&quot;SF Pro Display&quot;,&quot;SF Pro Text&quot;,Helvetica,sans-serif;text-anchor:middle;" transform="matrix(1 0 0 1 2043.27 322)">Semibold</text>
  <text style="stroke:none;fill:black;font-family:-apple-system,&quot;SF Pro Display&quot;,&quot;SF Pro Text&quot;,Helvetica,sans-serif;text-anchor:middle;" transform="matrix(1 0 0 1 2339.98 322)">Bold</text>
  <text style="stroke:none;fill:black;font-family:-apple-system,&quot;SF Pro Display&quot;,&quot;SF Pro Text&quot;,Helvetica,sans-serif;text-anchor:middle;" transform="matrix(1 0 0 1 2636.69 322)">Heavy</text>
  <text style="stroke:none;fill:black;font-family:-apple-system,&quot;SF Pro Display&quot;,&quot;SF Pro Text&quot;,Helvetica,sans-serif;text-anchor:middle;" transform="matrix(1 0 0 1 2933.4 322)">Black</text>
  <line id="" style="fill:none;stroke:black;opacity:1;stroke-width:0.5;" x1="263" x2="3036" y1="1903" y2="1903"/>
  <g id="" transform="matrix(1 0 0 1 263 1933)">
   <path d="M 9.24805 0.830078 C 13.5547 0.830078 17.1387 -2.74414 17.1387 -7.05078 C 17.1387 -11.3574 13.5449 -14.9316 9.23828 -14.9316 C 4.94141 -14.9316 1.36719 -11.3574 1.36719 -7.05078 C 1.36719 -2.74414 4.95117 0.830078 9.24805 0.830078 Z M 9.24805 -0.654297 C 5.70312 -0.654297 2.87109 -3.49609 2.87109 -7.05078 C 2.87109 -10.6055 5.69336 -13.4473 9.23828 -13.4473 C 12.793 -13.4473 15.6348 -10.6055 15.6445 -7.05078 C 15.6543 -3.49609 12.8027 -0.654297 9.24805 -0.654297 Z M 9.22852 -3.62305 C 9.69727 -3.62305 9.9707 -3.93555 9.9707 -4.45312 L 9.9707 -6.31836 L 12.002 -6.31836 C 12.5 -6.31836 12.832 -6.57227 12.832 -7.04102 C 12.832 -7.51953 12.5195 -7.7832 12.002 -7.7832 L 9.9707 -7.7832 L 9.9707 -9.81445 C 9.9707 -10.332 9.69727 -10.6543 9.22852 -10.6543 C 8.75977 -10.6543 8.50586 -10.3125 8.50586 -9.81445 L 8.50586 -7.7832 L 6.49414 -7.7832 C 5.97656 -7.7832 5.64453 -7.51953 5.64453 -7.04102 C 5.64453 -6.57227 5.99609 -6.31836 6.49414 -6.31836 L 8.50586 -6.31836 L 8.50586 -4.45312 C 8.50586 -3.95508 8.75977 -3.62305 9.22852 -3.62305 Z"/>
  </g>
  <g id="" transform="matrix(1 0 0 1 281.506 1933)">
   <path d="M 11.709 2.91016 C 17.1582 2.91016 21.6699 -1.61133 21.6699 -7.05078 C 21.6699 -12.5 17.1484 -17.0117 11.6992 -17.0117 C 6.25977 -17.0117 1.74805 -12.5 1.74805 -7.05078 C 1.74805 -1.61133 6.26953 2.91016 11.709 2.91016 Z M 11.709 1.25 C 7.09961 1.25 3.41797 -2.44141 3.41797 -7.05078 C 3.41797 -11.6602 7.08984 -15.3516 11.6992 -15.3516 C 16.3086 -15.3516 20 -11.6602 20.0098 -7.05078 C 20.0195 -2.44141 16.3184 1.25 11.709 1.25 Z M 11.6797 -2.66602 C 12.207 -2.66602 12.5098 -3.01758 12.5098 -3.59375 L 12.5098 -6.23047 L 15.3223 -6.23047 C 15.8691 -6.23047 16.25 -6.51367 16.25 -7.03125 C 16.25 -7.55859 15.8887 -7.86133 15.3223 -7.86133 L 12.5098 -7.86133 L 12.5098 -10.6836 C 12.5098 -11.25 12.207 -11.6113 11.6797 -11.6113 C 11.1621 -11.6113 10.8789 -11.2305 10.8789 -10.6836 L 10.8789 -7.86133 L 8.07617 -7.86133 C 7.50977 -7.86133 7.13867 -7.55859 7.13867 -7.03125 C 7.13867 -6.51367 7.5293 -6.23047 8.07617 -6.23047 L 10.8789 -6.23047 L 10.8789 -3.59375 C 10.8789 -3.03711 11.1621 -2.66602 11.6797 -2.66602 Z"/>
  </g>
  <g id="" transform="matrix(1 0 0 1 304.924 1933)">
   <path d="M 14.9707 5.66406 C 21.9336 5.66406 27.6953 -0.0976562 27.6953 -7.05078 C 27.6953 -14.0137 21.9238 -19.7754 14.9609 -19.7754 C 8.00781 -19.7754 2.25586 -14.0137 2.25586 -7.05078 C 2.25586 -0.0976562 8.01758 5.66406 14.9707 5.66406 Z M 14.9707 3.84766 C 8.93555 3.84766 4.08203 -1.01562 4.08203 -7.05078 C 4.08203 -13.0957 8.92578 -17.9492 14.9609 -17.9492 C 21.0059 -17.9492 25.8594 -13.0957 25.8691 -7.05078 C 25.8789 -1.01562 21.0156 3.84766 14.9707 3.84766 Z M 14.9414 -1.38672 C 15.5176 -1.38672 15.8594 -1.77734 15.8594 -2.38281 L 15.8594 -6.13281 L 19.7754 -6.13281 C 20.3711 -6.13281 20.7812 -6.46484 20.7812 -7.02148 C 20.7812 -7.59766 20.3906 -7.93945 19.7754 -7.93945 L 15.8594 -7.93945 L 15.8594 -11.8652 C 15.8594 -12.4805 15.5176 -12.8711 14.9414 -12.8711 C 14.375 -12.8711 14.0527 -12.4609 14.0527 -11.8652 L 14.0527 -7.93945 L 10.1465 -7.93945 C 9.53125 -7.93945 9.13086 -7.59766 9.13086 -7.02148 C 9.13086 -6.46484 9.55078 -6.13281 10.1465 -6.13281 L 14.0527 -6.13281 L 14.0527 -2.38281 C 14.0527 -1.79688 14.375 -1.38672 14.9414 -1.38672 Z"/>
  </g>
  <text style="stroke:none;fill:black;font-family:-apple-system,&quot;SF Pro Display&quot;,&quot;SF Pro Text&quot;,Helvetica,sans-serif;font-weight:bold;" transform="matrix(1 0 0 1 263 1953)">Design Variations</text>
  <text style="stroke:none;fill:black;font-family:-apple-system,&quot;SF Pro Display&quot;,&quot;SF Pro Text&quot;,Helvetica,sans-serif;" transform="matrix(1 0 0 1 263 1971)">Symbols are supported in up to nine weights and three scales.</text>
  <text style="stroke:none;fill:black;font-family:-apple-system,&quot;SF Pro Display&quot;,&quot;SF Pro Text&quot;,Helvetica,sans-serif;" transform="matrix(1 0 0 1 263 1989)">For optimal layout with text and other symbols, vertically align</text>
  <text style="stroke:none;fill:black;font-family:-apple-system,&quot;SF Pro Display&quot;,&quot;SF Pro Text&quot;,Helvetica,sans-serif;" transform="matrix(1 0 0 1 263 2007)">symbols with the adjacent text.</text>
  <line id="" style="fill:none;stroke:#00AEEF;stroke-width:0.5;opacity:1.0;" x1="776" x2="776" y1="1919" y2="1933"/>
  <g id="" transform="matrix(1 0 0 1 776 1933)">
   <path d="M 3.31055 0.126953 C 3.82812 0.126953 4.08203 -0.0683594 4.26758 -0.605469 L 5.52734 -4.0625 L 11.2891 -4.0625 L 12.5488 -0.605469 C 12.7344 -0.0683594 12.9883 0.126953 13.4961 0.126953 C 14.0137 0.126953 14.3457 -0.185547 14.3457 -0.673828 C 14.3457 -0.839844 14.3164 -0.986328 14.2383 -1.20117 L 9.6582 -13.3887 C 9.43359 -13.9941 9.0332 -14.2871 8.4082 -14.2871 C 7.80273 -14.2871 7.39258 -13.9941 7.17773 -13.3984 L 2.59766 -1.19141 C 2.51953 -0.976562 2.49023 -0.830078 2.49023 -0.664062 C 2.49023 -0.175781 2.80273 0.126953 3.31055 0.126953 Z M 6.00586 -5.53711 L 8.37891 -12.1094 L 8.42773 -12.1094 L 10.8008 -5.53711 Z"/>
  </g>
  <line id="" style="fill:none;stroke:#00AEEF;stroke-width:0.5;opacity:1.0;" x1="792.836" x2="792.836" y1="1919" y2="1933"/>
  <text style="stroke:none;fill:black;font-family:-apple-system,&quot;SF Pro Display&quot;,&quot;SF Pro Text&quot;,Helvetica,sans-serif;font-weight:bold;" transform="matrix(1 0 0 1 776 1953)">Margins</text>
  <text style="stroke:none;fill:black;font-family:-apple-system,&quot;SF Pro Display&quot;,&quot;SF Pro Text&quot;,Helvetica,sans-serif;" transform="matrix(1 0 0 1 776 1971)">Leading and trailing margins on the left and right side of each symbol</text>
  <text style="stroke:none;fill:black;font-family:-apple-system,&quot;SF Pro Display&quot;,&quot;SF Pro Text&quot;,Helvetica,sans-serif;" transform="matrix(1 0 0 1 776 1989)">can be adjusted by modifying the x-location of the margin guidelines.</text>
  <text style="stroke:none;fill:black;font-family:-apple-system,&quot;SF Pro Display&quot;,&quot;SF Pro Text&quot;,Helvetica,sans-serif;" transform="matrix(1 0 0 1 776 2007)">Modifications are automatically applied proportionally to all</text>
  <text style="stroke:none;fill:black;font-family:-apple-system,&quot;SF Pro Display&quot;,&quot;SF Pro Text&quot;,Helvetica,sans-serif;" transform="matrix(1 0 0 1 776 2025)">scales and weights.</text>
  <g id="" transform="matrix(1 0 0 1 1289 1933)">
   <path d="M 2.8418 1.86523 L 4.54102 3.57422 C 5.40039 4.44336 6.38672 4.38477 7.31445 3.35938 L 17.4902 -7.85156 C 17.7539 -7.76367 18.0273 -7.7832 18.3398 -7.8418 L 19.4043 -8.03711 L 20.0684 -7.36328 L 20.0293 -6.80664 C 19.9902 -6.30859 20.1172 -5.92773 20.6055 -5.44922 L 21.3672 -4.70703 C 21.8457 -4.22852 22.4609 -4.19922 22.9297 -4.66797 L 25.8398 -7.58789 C 26.3086 -8.05664 26.2891 -8.65234 25.8105 -9.13086 L 25.0391 -9.89258 C 24.5605 -10.3711 24.1895 -10.5273 23.7109 -10.4883 L 23.1348 -10.4395 L 22.4902 -11.0742 L 22.7344 -12.1973 C 22.8613 -12.7637 22.7051 -13.2031 22.1191 -13.7891 L 19.9219 -15.9766 C 16.582 -19.2969 12.1484 -19.2188 9.25781 -16.3281 C 8.83789 -15.918 8.80859 -15.3418 9.04297 -14.9512 C 9.27734 -14.5898 9.73633 -14.3555 10.3809 -14.5215 C 11.8457 -14.8633 13.3691 -14.9219 14.7949 -13.9844 L 14.209 -12.5293 C 14.0137 -12.0508 13.9844 -11.6504 14.1113 -11.2891 L 3.04688 -0.898438 C 2.06055 0.0195312 1.98242 0.996094 2.8418 1.86523 Z M 10.752 -15.957 C 13.1836 -17.7344 16.4746 -17.4316 18.7012 -15.2051 L 21.1328 -12.793 C 21.3672 -12.5586 21.4062 -12.373 21.3379 -12.0312 L 21.0156 -10.5469 L 22.5195 -9.0625 L 23.5059 -9.12109 C 23.7598 -9.13086 23.8379 -9.11133 24.0332 -8.91602 L 24.6094 -8.33984 L 22.168 -5.89844 L 21.5918 -6.47461 C 21.3965 -6.66992 21.3672 -6.74805 21.377 -7.01172 L 21.4453 -7.98828 L 19.9512 -9.47266 L 18.4277 -9.21875 C 18.1055 -9.15039 17.959 -9.17969 17.7148 -9.41406 L 15.7129 -11.416 C 15.459 -11.6504 15.4297 -11.8164 15.5859 -12.1875 L 16.4648 -14.2773 C 14.9023 -15.7324 12.8711 -16.3574 10.8398 -15.7617 C 10.6836 -15.7227 10.625 -15.8496 10.752 -15.957 Z M 5.27344 2.30469 L 4.10156 1.14258 C 3.63281 0.683594 3.74023 0.341797 4.14062 -0.0195312 L 14.9512 -10.1953 L 16.416 -8.71094 L 6.42578 2.27539 C 6.07422 2.67578 5.74219 2.77344 5.27344 2.30469 Z"/>
  </g>
  <text style="stroke:none;fill:black;font-family:-apple-system,&quot;SF Pro Display&quot;,&quot;SF Pro Text&quot;,Helvetica,sans-serif;font-weight:bold;" transform="matrix(1 0 0 1 1289 1953)">Exporting</text>
  <text style="stroke:none;fill:black;font-family:-apple-system,&quot;SF Pro Display&quot;,&quot;SF Pro Text&quot;,Helvetica,sans-serif;" transform="matrix(1 0 0 1 1289 1971)">Symbols should be outlined when exporting to ensure the</text>
  <text style="stroke:none;fill:black;font-family:-apple-system,&quot;SF Pro Display&quot;,&quot;SF Pro Text&quot;,Helvetica,sans-serif;" transform="matrix(1 0 0 1 1289 1989)">design is preserved when submitting to Xcode.</text>
  <text id="template-version" style="stroke:none;fill:black;font-family:-apple-system,&quot;SF Pro Display&quot;,&quot;SF Pro Text&quot;,Helvetica,sans-serif;text-anchor:end;" transform="matrix(1 0 0 1 3036 1933)">Template v.2.0</text>
  <text style="stroke:none;fill:black;font-family:-apple-system,&quot;SF Pro Display&quot;,&quot;SF Pro Text&quot;,Helvetica,sans-serif;text-anchor:end;" transform="matrix(1 0 0 1 3036 1951)">Requires Xcode 12 or greater</text>
  <text style="stroke:none;fill:black;font-family:-apple-system,&quot;SF Pro Display&quot;,&quot;SF Pro Text&quot;,Helvetica,sans-serif;text-anchor:end;" transform="matrix(1 0 0 1 3036 1969)">Generated from person.2.square.stack.fill</text>
  <text style="stroke:none;fill:black;font-family:-apple-system,&quot;SF Pro Display&quot;,&quot;SF Pro Text&quot;,Helvetica,sans-serif;text-anchor:end;" transform="matrix(1 0 0 1 3036 1987)">Typeset at 100 points</text>
  <text style="stroke:none;fill:black;font-family:-apple-system,&quot;SF Pro Display&quot;,&quot;SF Pro Text&quot;,Helvetica,sans-serif;" transform="matrix(1 0 0 1 263 726)">Small</text>
  <text style="stroke:none;fill:black;font-family:-apple-system,&quot;SF Pro Display&quot;,&quot;SF Pro Text&quot;,Helvetica,sans-serif;" transform="matrix(1 0 0 1 263 1156)">Medium</text>
  <text style="stroke:none;fill:black;font-family:-apple-system,&quot;SF Pro Display&quot;,&quot;SF Pro Text&quot;,Helvetica,sans-serif;" transform="matrix(1 0 0 1 263 1586)">Large</text>
 </g>
 <g id="Guides">
  <g id="H-reference" style="fill:#27AAE1;stroke:none;" transform="matrix(1 0 0 1 339 696)">
   <path d="M 0.976562 0 L 3.66211 0 L 12.9883 -24.4629 L 45.7031 -24.4629 L 55.0781 0 L 57.7148 0 L 30.6152 -70.459 L 28.125 -70.459 Z M 29.2969 -67.1387 L 29.3945 -67.1387 L 44.873 -26.709 L 13.8672 -26.709 Z"/>
  </g>
  <line id="Baseline-S" style="fill:none;stroke:#27AAE1;opacity:1;stroke-width:0.5;" x1="263" x2="3036" y1="696" y2="696"/>
  <line id="Capline-S" style="fill:none;stroke:#27AAE1;opacity:1;stroke-width:0.5;" x1="263" x2="3036" y1="625.541" y2="625.541"/>
  <g id="H-reference" style="fill:#27AAE1;stroke:none;" transform="matrix(1 0 0 1 339 1126)">
   <path d="M 0.976562 0 L 3.66211 0 L 12.9883 -24.4629 L 45.7031 -24.4629 L 55.0781 0 L 57.7148 0 L 30.6152 -70.459 L 28.125 -70.459 Z M 29.2969 -67.1387 L 29.3945 -67.1387 L 44.873 -26.709 L 13.8672 -26.709 Z"/>
  </g>
  <line id="Baseline-M" style="fill:none;stroke:#27AAE1;opacity:1;stroke-width:0.5;" x1="263" x2="3036" y1="1126" y2="1126"/>
  <line id="Capline-M" style="fill:none;stroke:#27AAE1;opacity:1;stroke-width:0.5;" x1="263" x2="3036" y1="1055.54" y2="1055.54"/>
  <g id="H-reference" style="fill:#27AAE1;stroke:none;" transform="matrix(1 0 0 1 339 1556)">
   <path d="M 0.976562 0 L 3.66211 0 L 12.9883 -24.4629 L 45.7031 -24.4629 L 55.0781 0 L 57.7148 0 L 30.6152 -70.459 L 28.125 -70.459 Z M 29.2969 -67.1387 L 29.3945 -67.1387 L 44.873 -26.709 L 13.8672 -26.709 Z"/>
  </g>
  <line id="Baseline-L" style="fill:none;stroke:#27AAE1;opacity:1;stroke-width:0.5;" x1="263" x2="3036" y1="1556" y2="1556"/>
  <line id="Capline-L" style="fill:none;stroke:#27AAE1;opacity:1;stroke-width:0.5;" x1="263" x2="3036" y1="1485.54" y2="1485.54"/>
  <line id="left-margin" style="fill:none;stroke:#00AEEF;stroke-width:0.5;opacity:1.0;" x1="1394.13" x2="1394.13" y1="1030.79" y2="1150.12"/>
  <line id="right-margin" style="fill:none;stroke:#00AEEF;stroke-width:0.5;opacity:1.0;" x1="1505.56" x2="1505.56" y1="1030.79" y2="1150.12"/>
 </g>
 <g id="Symbols">
  <g id="Black-L" transform="matrix(1 0 0 1 2857.94 1556)">
   <path d="M 41.5527 -105.469 L 107.031 -105.469 C 106.445 -112.305 101.953 -116.211 94.6777 -116.211 L 53.9062 -116.211 C 46.6309 -116.211 42.1387 -112.305 41.5527 -105.469 Z M 30.957 -84.1309 L 117.432 -84.1309 C 116.65 -91.3574 112.5 -95.752 104.004 -95.752 L 44.3848 -95.752 C 35.8887 -95.752 31.7871 -91.3574 30.957 -84.1309 Z M 39.9902 45.459 L 111.621 45.459 C 126.221 45.459 134.863 36.8652 134.863 21.6797 L 134.863 -49.5117 C 134.863 -64.6973 126.221 -73.3398 110.986 -73.3398 L 39.9902 -73.3398 C 24.7559 -73.3398 16.0645 -64.6973 16.0645 -49.5117 L 16.0645 21.6797 C 16.0645 36.8652 24.7559 45.459 39.9902 45.459 Z M 92.5293 -8.74023 C 85.1562 -8.74023 79.3457 -15.1855 79.3457 -23.1445 C 79.3457 -30.957 85.2051 -37.3047 92.5293 -37.3047 C 99.9023 -37.3047 105.811 -31.0547 105.811 -23.1934 C 105.811 -15.1855 99.9512 -8.74023 92.5293 -8.74023 Z M 55.1758 -8.10547 C 48.8281 -8.10547 43.7012 -13.5742 43.6523 -20.6055 C 43.6035 -27.3438 48.877 -32.959 55.1758 -32.959 C 61.5723 -32.959 66.6992 -27.3926 66.6992 -20.6543 C 66.6992 -13.5742 61.6699 -8.10547 55.1758 -8.10547 Z M 39.9414 25.8301 C 34.3262 25.8301 33.3496 24.8047 33.3496 19.3359 L 33.3496 7.76367 C 37.3535 1.9043 45.4102 -3.125 55.1758 -3.125 C 59.5703 -3.125 63.5254 -2.09961 66.6016 -0.537109 C 58.252 6.20117 55.3711 20.6055 59.082 25.8301 Z M 68.75 25.8301 C 67.1387 25.8301 65.4297 23.7305 65.4297 20.3613 C 65.4297 8.10547 76.123 -3.02734 92.5293 -3.02734 C 104.541 -3.02734 113.574 2.7832 117.578 9.08203 L 117.578 19.3359 C 117.578 24.8535 116.553 25.8301 111.621 25.8301 Z"/>
  </g>
  <g id="Heavy-L" transform="matrix(1 0 0 1 2562.25 1556)">
   <path d="M 41.4062 -104.297 L 105.469 -104.297 C 104.932 -110.645 100.879 -114.209 94.1895 -114.209 L 52.6855 -114.209 C 45.9473 -114.209 41.8945 -110.645 41.4062 -104.297 Z M 30.7617 -84.1309 L 115.82 -84.1309 C 115.039 -90.7227 111.328 -94.7754 103.613 -94.7754 L 43.0176 -94.7754 C 35.2539 -94.7754 31.543 -90.7227 30.7617 -84.1309 Z M 38.8184 43.4082 L 110.938 43.4082 C 124.707 43.4082 132.812 35.3027 132.812 20.8008 L 132.812 -50.7324 C 132.812 -65.2344 124.707 -73.3398 110.059 -73.3398 L 38.8184 -73.3398 C 24.2188 -73.3398 16.0645 -65.2832 16.0645 -50.7324 L 16.0645 20.8008 C 16.0645 35.3516 24.2188 43.4082 38.8184 43.4082 Z M 92.041 -8.59375 C 84.5703 -8.59375 78.6133 -15.1367 78.6133 -23.291 C 78.6133 -31.3477 84.668 -37.793 92.041 -37.793 C 99.5117 -37.793 105.566 -31.4453 105.566 -23.3398 C 105.566 -15.1367 99.5605 -8.59375 92.041 -8.59375 Z M 53.7109 -7.86133 C 47.2656 -7.86133 41.9922 -13.4766 41.9434 -20.7031 C 41.8945 -27.6367 47.3145 -33.3008 53.7109 -33.3008 C 60.2051 -33.3008 65.4297 -27.7344 65.4297 -20.752 C 65.4297 -13.4766 60.2539 -7.86133 53.7109 -7.86133 Z M 38.7695 26.2207 C 32.7148 26.2207 31.4453 24.8535 31.4453 18.9941 L 31.4453 8.69141 C 35.1074 2.88086 43.2617 -2.73438 53.7109 -2.73438 C 58.5449 -2.73438 62.5977 -1.5625 65.918 0.292969 C 57.5684 6.98242 54.3945 21.2402 58.1543 26.2207 Z M 67.8711 26.2207 C 66.1621 26.2207 64.4043 24.2676 64.4043 20.9473 C 64.4043 8.88672 75.1953 -2.63672 92.041 -2.63672 C 104.346 -2.63672 113.623 3.4668 117.432 9.7168 L 117.432 18.9941 C 117.432 24.9512 116.113 26.2207 110.938 26.2207 Z"/>
  </g>
  <g id="Bold-L" transform="matrix(1 0 0 1 2266.69 1556)">
   <path d="M 41.2109 -103.027 L 103.662 -103.027 C 103.223 -108.74 99.6582 -111.963 93.5547 -111.963 L 51.3184 -111.963 C 45.2148 -111.963 41.6504 -108.74 41.2109 -103.027 Z M 30.5176 -84.082 L 114.062 -84.082 C 113.281 -90.0879 110.059 -93.7012 103.125 -93.7012 L 41.4551 -93.7012 C 34.5703 -93.7012 31.2988 -90.0879 30.5176 -84.082 Z M 37.5 41.1133 L 110.156 41.1133 C 123.047 41.1133 130.518 33.5938 130.518 19.8242 L 130.518 -52.0508 C 130.518 -65.8691 122.998 -73.3398 109.082 -73.3398 L 37.5 -73.3398 C 23.6328 -73.3398 16.0645 -65.8691 16.0645 -52.0508 L 16.0645 19.8242 C 16.0645 33.6426 23.6328 41.1133 37.5 41.1133 Z M 91.5527 -8.39844 C 83.9355 -8.39844 77.7832 -15.0391 77.7832 -23.4863 C 77.7832 -31.7383 84.0332 -38.3301 91.5527 -38.3301 C 99.1211 -38.3301 105.322 -31.8359 105.322 -23.5352 C 105.322 -15.0391 99.1699 -8.39844 91.5527 -8.39844 Z M 52.0508 -7.61719 C 45.459 -7.61719 40.0391 -13.3789 40.0391 -20.8008 C 39.9902 -27.9785 45.5078 -33.6914 52.0508 -33.6914 C 58.6426 -33.6914 64.0625 -28.0273 64.0625 -20.8496 C 64.0625 -13.3789 58.6914 -7.61719 52.0508 -7.61719 Z M 37.5 26.6602 C 30.9082 26.6602 29.3457 24.9512 29.3457 18.6523 L 29.3457 9.76562 C 32.666 3.90625 40.8203 -2.29492 52.0508 -2.29492 C 57.373 -2.29492 61.6211 -0.927734 65.1367 1.26953 C 56.7871 7.8125 53.2715 21.9727 57.0801 26.6602 Z M 66.9434 26.6602 C 65.0879 26.6602 63.2324 24.8535 63.2324 21.582 C 63.2324 9.76562 74.2188 -2.24609 91.5039 -2.24609 C 104.15 -2.24609 113.672 4.24805 117.236 10.4492 L 117.236 18.6523 C 117.236 25.0488 115.576 26.6602 110.156 26.6602 Z"/>
  </g>
  <g id="Semibold-L" transform="matrix(1 0 0 1 1970.76 1556)">
   <path d="M 41.0645 -102.148 L 102.441 -102.148 C 102.051 -107.422 98.8281 -110.4 93.1641 -110.4 L 50.3906 -110.4 C 44.6777 -110.4 41.4551 -107.422 41.0645 -102.148 Z M 30.3711 -84.0332 L 112.842 -84.0332 C 112.109 -89.5996 109.131 -92.9688 102.832 -92.9688 L 40.3809 -92.9688 C 34.082 -92.9688 31.1035 -89.5996 30.3711 -84.0332 Z M 36.6211 39.5508 L 109.619 39.5508 C 121.875 39.5508 128.955 32.4219 128.955 19.1406 L 128.955 -52.9785 C 128.955 -66.2598 121.826 -73.3887 108.398 -73.3887 L 36.6211 -73.3887 C 23.1934 -73.3887 16.0645 -66.3086 16.0645 -52.9785 L 16.0645 19.1406 C 16.0645 32.4707 23.1934 39.5508 36.6211 39.5508 Z M 91.1621 -8.25195 C 83.4961 -8.25195 77.1973 -14.9902 77.1973 -23.584 C 77.1973 -32.0312 83.5938 -38.7207 91.1621 -38.7207 C 98.8281 -38.7207 105.127 -32.1289 105.127 -23.6816 C 105.127 -14.9902 98.877 -8.25195 91.1621 -8.25195 Z M 50.9277 -7.4707 C 44.2383 -7.4707 38.7207 -13.3301 38.7207 -20.8984 C 38.6719 -28.2227 44.2871 -33.9844 50.9277 -33.9844 C 57.5684 -33.9844 63.0859 -28.2715 63.0859 -20.8984 C 63.0859 -13.3301 57.6172 -7.4707 50.9277 -7.4707 Z M 36.5723 26.9531 C 29.6875 26.9531 27.832 25 27.832 18.3594 L 27.832 10.498 C 30.957 4.63867 39.1602 -2.00195 50.8789 -2.00195 C 56.543 -2.00195 60.9375 -0.537109 64.5996 1.9043 C 56.25 8.34961 52.4902 22.5098 56.3477 26.9531 Z M 66.2598 26.9531 C 64.3066 26.9531 62.4023 25.293 62.4023 22.0703 C 62.4023 10.4004 73.5352 -1.9043 91.1621 -1.9043 C 104.004 -1.9043 113.721 4.78516 117.139 10.9863 L 117.139 18.3594 C 117.139 25.0977 115.234 26.9531 109.619 26.9531 Z"/>
  </g>
  <g id="Medium-L" transform="matrix(1 0 0 1 1674.63 1556)">
   <path d="M 40.9668 -101.465 L 101.514 -101.465 C 101.172 -106.445 98.1934 -109.229 92.8711 -109.229 L 49.6582 -109.229 C 44.2871 -109.229 41.3574 -106.445 40.9668 -101.465 Z M 30.2246 -83.9844 L 111.914 -83.9844 C 111.182 -89.2578 108.447 -92.3828 102.588 -92.3828 L 39.5996 -92.3828 C 33.6914 -92.3828 31.0059 -89.2578 30.2246 -83.9844 Z M 35.9375 38.3301 L 109.229 38.3301 C 120.996 38.3301 127.783 31.543 127.783 18.6035 L 127.783 -53.6621 C 127.783 -66.6016 120.947 -73.3887 107.861 -73.3887 L 35.9375 -73.3887 C 22.9004 -73.3887 16.0645 -66.6504 16.0645 -53.6621 L 16.0645 18.6035 C 16.0645 31.5918 22.9004 38.3301 35.9375 38.3301 Z M 90.918 -8.1543 C 83.1543 -8.1543 76.7578 -14.9902 76.7578 -23.6816 C 76.7578 -32.2266 83.252 -39.0137 90.918 -39.0137 C 98.584 -39.0137 105.029 -32.373 105.029 -23.7793 C 105.029 -14.9902 98.6816 -8.1543 90.918 -8.1543 Z M 50.0488 -7.32422 C 43.3105 -7.32422 37.7441 -13.2812 37.6953 -20.9473 C 37.6953 -28.3691 43.3594 -34.1797 50.0488 -34.1797 C 56.7383 -34.1797 62.3535 -28.4668 62.3535 -20.9961 C 62.3535 -13.2812 56.7871 -7.32422 50.0488 -7.32422 Z M 35.8887 27.1973 C 28.7598 27.1973 26.7578 25.0488 26.7578 18.2129 L 26.7578 11.084 C 29.6875 5.17578 37.9395 -1.80664 50 -1.80664 C 55.957 -1.80664 60.4004 -0.195312 64.209 2.39258 C 55.8594 8.78906 51.9043 22.8516 55.7617 27.1973 Z M 65.7715 27.1973 C 63.7695 27.1973 61.7676 25.5859 61.7676 22.4121 C 61.7676 10.8398 72.998 -1.70898 90.8691 -1.70898 C 103.857 -1.70898 113.721 5.17578 117.041 11.377 L 117.041 18.2129 C 117.041 25.1465 114.941 27.1973 109.229 27.1973 Z"/>
  </g>
  <g id="Regular-L" transform="matrix(1 0 0 1 1378.7 1556)">
   <path d="M 40.8691 -100.586 L 100.342 -100.586 C 100.049 -105.176 97.4121 -107.666 92.4805 -107.666 L 48.7305 -107.666 C 43.7988 -107.666 41.1621 -105.176 40.8691 -100.586 Z M 30.0781 -83.9844 L 110.693 -83.9844 C 109.961 -88.8184 107.568 -91.6504 102.246 -91.6504 L 38.5254 -91.6504 C 33.2031 -91.6504 30.8105 -88.8184 30.0781 -83.9844 Z M 35.0586 36.7676 L 108.691 36.7676 C 119.824 36.7676 126.221 30.3711 126.221 17.9199 L 126.221 -54.5898 C 126.221 -66.9922 119.775 -73.3887 107.178 -73.3887 L 35.0586 -73.3887 C 22.4609 -73.3887 16.0645 -67.0898 16.0645 -54.5898 L 16.0645 17.9199 C 16.0645 30.4199 22.4609 36.7676 35.0586 36.7676 Z M 90.5762 -8.00781 C 82.7148 -8.00781 76.2207 -14.9414 76.2207 -23.8281 C 76.2207 -32.5195 82.8125 -39.3555 90.5762 -39.3555 C 98.3398 -39.3555 104.834 -32.666 104.834 -23.9258 C 104.834 -14.9414 98.3887 -8.00781 90.5762 -8.00781 Z M 48.9258 -7.17773 C 42.1387 -7.17773 36.4258 -13.1836 36.4258 -20.9961 C 36.4258 -28.5645 42.1387 -34.4727 48.9258 -34.4727 C 55.6641 -34.4727 61.377 -28.7109 61.377 -21.0449 C 61.377 -13.1836 55.7129 -7.17773 48.9258 -7.17773 Z M 35.0098 27.4902 C 27.4902 27.4902 25.293 25.1465 25.293 17.9199 L 25.293 11.8164 C 28.0273 5.9082 36.2793 -1.51367 48.877 -1.51367 C 55.127 -1.51367 59.7168 0.195312 63.6719 3.07617 C 55.3223 9.375 51.1719 23.3887 55.0293 27.4902 Z M 65.1367 27.4902 C 62.9883 27.4902 60.9863 26.0254 60.9863 22.8516 C 60.9863 11.4258 72.3633 -1.41602 90.5273 -1.41602 C 103.711 -1.41602 113.77 5.71289 116.943 11.8652 L 116.943 17.9199 C 116.943 25.2441 114.6 27.4902 108.691 27.4902 Z"/>
  </g>
  <g id="Light-L" transform="matrix(1 0 0 1 1083.02 1556)">
   <path d="M 39.4531 -100.049 L 100.098 -100.049 C 99.9512 -103.516 97.8516 -105.664 94.0918 -105.664 L 45.459 -105.664 C 41.6992 -105.664 39.5996 -103.516 39.4531 -100.049 Z M 29.248 -84.5215 L 110.059 -84.5215 C 109.619 -88.1836 107.666 -90.5273 103.662 -90.5273 L 35.6445 -90.5273 C 31.6406 -90.5273 29.6875 -88.1836 29.248 -84.5215 Z M 34.0332 34.7168 L 107.129 34.7168 C 118.066 34.7168 124.17 28.5645 124.17 16.8457 L 124.17 -55.5176 C 124.17 -67.2363 118.066 -73.3887 106.201 -73.3887 L 34.0332 -73.3887 C 22.168 -73.3887 16.0645 -67.334 16.0645 -55.5176 L 16.0645 16.8457 C 16.0645 28.6621 22.168 34.7168 34.0332 34.7168 Z M 90.5762 -8.69141 C 82.4219 -8.69141 75.9277 -15.8203 75.9277 -24.9512 C 75.9277 -33.7402 82.5195 -40.918 90.5762 -40.918 C 98.584 -40.918 105.176 -33.8379 105.176 -25 C 105.176 -15.8203 98.6816 -8.69141 90.5762 -8.69141 Z M 47.6074 -7.86133 C 40.4785 -7.86133 34.7656 -14.0137 34.7656 -22.0215 C 34.7656 -29.7363 40.5273 -35.8398 47.6074 -35.8398 C 54.541 -35.8398 60.3027 -29.7852 60.3027 -22.0703 C 60.3027 -14.0137 54.6387 -7.86133 47.6074 -7.86133 Z M 34.0332 27.0996 C 26.3184 27.0996 23.6328 24.3164 23.6328 16.8457 L 23.6328 11.1816 C 25.8301 5.95703 34.1309 -2.29492 47.5098 -2.29492 C 54.4434 -2.29492 59.375 -0.146484 63.4277 3.02734 C 54.8828 9.86328 51.2207 23.6816 55.3223 27.0996 Z M 64.8926 27.0996 C 62.1582 27.0996 60.1074 25.7812 60.1074 22.5098 C 60.1074 11.0352 71.8262 -2.14844 90.5273 -2.14844 C 103.564 -2.14844 113.867 5.12695 116.553 10.5469 L 116.553 16.8457 C 116.553 24.3652 113.77 27.0996 107.129 27.0996 Z"/>
  </g>
  <g id="Thin-L" transform="matrix(1 0 0 1 787.648 1556)">
   <path d="M 37.5488 -99.3164 L 99.8535 -99.3164 C 99.8047 -101.367 98.4375 -103.027 96.2402 -103.027 L 41.1621 -103.027 C 38.9648 -103.027 37.5977 -101.367 37.5488 -99.3164 Z M 28.125 -85.2539 L 109.229 -85.2539 C 109.131 -87.3535 107.812 -89.0625 105.566 -89.0625 L 31.7871 -89.0625 C 29.541 -89.0625 28.2227 -87.3535 28.125 -85.2539 Z M 32.666 32.0312 L 105.078 32.0312 C 115.771 32.0312 121.484 26.1719 121.484 15.4297 L 121.484 -56.7871 C 121.484 -67.5293 115.771 -73.3887 104.883 -73.3887 L 32.666 -73.3887 C 21.7773 -73.3887 16.0645 -67.6758 16.0645 -56.7871 L 16.0645 15.4297 C 16.0645 26.3184 21.7773 32.0312 32.666 32.0312 Z M 90.625 -9.61914 C 81.9824 -9.61914 75.5371 -16.9434 75.5371 -26.416 C 75.5371 -35.4004 82.1289 -42.9199 90.625 -42.9199 C 98.9746 -42.9199 105.615 -35.4004 105.615 -26.4648 C 105.615 -16.9434 99.1211 -9.61914 90.625 -9.61914 Z M 45.8008 -8.78906 C 38.3301 -8.78906 32.6172 -15.1367 32.6172 -23.3887 C 32.6172 -31.25 38.4277 -37.6953 45.8008 -37.6953 C 53.0273 -37.6953 58.8867 -31.25 58.8867 -23.4375 C 58.8867 -15.1367 53.2227 -8.78906 45.8008 -8.78906 Z M 32.666 26.6113 C 24.7559 26.6113 21.4844 23.2422 21.4844 15.4297 L 21.4844 10.4004 C 22.9492 6.05469 31.2988 -3.32031 45.6543 -3.32031 C 53.4668 -3.32031 58.8867 -0.634766 63.1348 3.02734 C 54.3457 10.498 51.3672 24.0723 55.7129 26.6113 Z M 64.5508 26.6113 C 61.084 26.6113 58.9355 25.4395 58.9355 22.1191 C 58.9355 10.5469 71.0938 -3.17383 90.5273 -3.17383 C 103.369 -3.17383 113.965 4.29688 116.064 8.83789 L 116.064 15.4297 C 116.064 23.2422 112.646 26.6113 105.078 26.6113 Z"/>
  </g>
  <g id="Ultralight-L" transform="matrix(1 0 0 1 491.62 1556)">
   <path d="M 36.5723 -98.9258 L 99.707 -98.9258 C 99.7559 -100.293 98.7305 -101.709 97.3145 -101.709 L 38.9648 -101.709 C 37.5977 -101.709 36.5723 -100.293 36.5723 -98.9258 Z M 27.5391 -85.6445 L 108.838 -85.6445 C 108.936 -86.9141 107.861 -88.3301 106.543 -88.3301 L 29.834 -88.3301 C 28.5156 -88.3301 27.4414 -86.9141 27.5391 -85.6445 Z M 31.9824 30.6641 L 104.004 30.6641 C 114.551 30.6641 120.117 24.9512 120.117 14.7461 L 120.117 -57.4707 C 120.117 -67.6758 114.551 -73.3887 104.199 -73.3887 L 31.9824 -73.3887 C 21.582 -73.3887 16.0645 -67.8223 16.0645 -57.4707 L 16.0645 14.7461 C 16.0645 25.0977 21.582 30.6641 31.9824 30.6641 Z M 90.625 -10.0586 C 81.7383 -10.0586 75.3418 -17.5293 75.3418 -27.1973 C 75.3418 -36.2305 81.9336 -43.9941 90.625 -43.9941 C 99.1699 -43.9941 105.859 -36.2305 105.859 -27.1973 C 105.859 -17.5293 99.3164 -10.0586 90.625 -10.0586 Z M 44.873 -9.27734 C 37.2559 -9.27734 31.543 -15.6738 31.543 -24.1211 C 31.543 -32.0312 37.3535 -38.623 44.873 -38.623 C 52.2949 -38.623 58.1543 -32.0312 58.1543 -24.1211 C 58.1543 -15.6738 52.4414 -9.27734 44.873 -9.27734 Z M 31.9824 26.3672 C 23.9746 26.3672 20.3613 22.7051 20.3613 14.7461 L 20.3613 9.96094 C 21.4844 6.10352 29.834 -3.85742 44.7266 -3.85742 C 52.9785 -3.85742 58.6426 -0.878906 62.9395 3.02734 C 54.0527 10.791 51.416 24.2676 55.8594 26.3672 Z M 64.4043 26.3672 C 60.498 26.3672 58.3008 25.293 58.3008 21.875 C 58.3008 10.3027 70.752 -3.66211 90.5273 -3.66211 C 103.271 -3.66211 114.062 3.85742 115.82 7.95898 L 115.82 14.7461 C 115.82 22.6562 112.061 26.3672 104.004 26.3672 Z"/>
  </g>
  <g id="Black-M" transform="matrix(1 0 0 1 2874.07 1126)">
   <path d="M 31.6895 -90.918 L 84.9609 -90.918 C 84.4727 -96.3867 80.7129 -99.6582 74.9512 -99.6582 L 41.6504 -99.6582 C 35.9375 -99.6582 32.1777 -96.3867 31.6895 -90.918 Z M 23.8281 -73.4863 L 92.8223 -73.4863 C 92.334 -79.1992 88.8184 -82.8613 81.9336 -82.8613 L 34.7168 -82.8613 C 27.832 -82.8613 24.3164 -79.1992 23.8281 -73.4863 Z M 31.9824 29.0039 L 86.6211 29.0039 C 98.9258 29.0039 106.201 21.7285 106.201 9.47266 L 106.201 -45.2148 C 106.201 -57.4707 98.9258 -64.7461 86.6699 -64.7461 L 31.9824 -64.7461 C 19.7266 -64.7461 12.4512 -57.4707 12.4512 -45.2148 L 12.4512 9.47266 C 12.4512 21.7285 19.7266 29.0039 31.9824 29.0039 Z M 72.3145 -15.2832 C 66.6016 -15.2832 62.3047 -20.2148 62.3047 -26.2695 C 62.3047 -32.0801 66.6504 -37.0117 72.3145 -37.0117 C 78.0762 -37.0117 82.4707 -32.0801 82.4707 -26.2695 C 82.4707 -20.2148 78.125 -15.2832 72.3145 -15.2832 Z M 44.043 -14.8926 C 39.1113 -14.8926 35.3027 -19.043 35.2539 -24.3164 C 35.2051 -29.3457 39.1602 -33.7402 44.043 -33.7402 C 49.0234 -33.7402 52.7832 -29.3457 52.7832 -24.3164 C 52.7832 -19.043 49.0723 -14.8926 44.043 -14.8926 Z M 31.9824 11.377 C 28.1738 11.377 27.5391 10.7422 27.5391 6.93359 L 27.5391 -3.56445 C 30.7129 -7.71484 36.9629 -11.2793 44.043 -11.2793 C 47.168 -11.2793 50.2441 -10.4492 52.3926 -9.47266 C 45.8496 -3.85742 44.2871 7.32422 47.2168 11.377 Z M 54.2969 11.377 C 52.9297 11.377 51.6602 9.61914 51.6602 6.93359 C 51.6602 -2.88086 59.9121 -11.2305 72.3145 -11.2305 C 81.2012 -11.2305 87.9883 -7.08008 91.1133 -2.49023 L 91.1133 6.93359 C 91.1133 10.7422 90.4785 11.377 86.6211 11.377 Z"/>
  </g>
  <g id="Heavy-M" transform="matrix(1 0 0 1 2578.22 1126)">
   <path d="M 31.8359 -89.7949 L 83.3008 -89.7949 C 82.8613 -94.9707 79.3945 -97.9492 73.9746 -97.9492 L 41.2109 -97.9492 C 35.7422 -97.9492 32.3242 -94.9707 31.8359 -89.7949 Z M 23.8281 -73.291 L 91.2598 -73.291 C 90.6738 -78.7109 87.5 -82.0801 81.1035 -82.0801 L 33.9844 -82.0801 C 27.5391 -82.0801 24.3652 -78.7109 23.8281 -73.291 Z M 31.0059 27.2949 L 86.2793 27.2949 C 97.7539 27.2949 104.492 20.5078 104.492 8.78906 L 104.492 -46.2402 C 104.492 -58.0078 97.7051 -64.7461 85.9375 -64.7461 L 31.0059 -64.7461 C 19.2383 -64.7461 12.4512 -58.0078 12.4512 -46.2402 L 12.4512 8.78906 C 12.4512 20.5566 19.2383 27.2949 31.0059 27.2949 Z M 71.8262 -14.9414 C 66.0645 -14.9414 61.5723 -19.9219 61.5723 -26.123 C 61.5723 -32.1777 66.1133 -37.1582 71.8262 -37.1582 C 77.5879 -37.1582 82.1289 -32.2266 82.1289 -26.1719 C 82.1289 -19.9219 77.6367 -14.9414 71.8262 -14.9414 Z M 42.7734 -14.4531 C 37.793 -14.4531 33.8379 -18.7012 33.7891 -24.1699 C 33.7891 -29.3945 37.8418 -33.7402 42.7734 -33.7402 C 47.8027 -33.7402 51.709 -29.3945 51.709 -24.1699 C 51.709 -18.7012 47.8516 -14.4531 42.7734 -14.4531 Z M 30.957 11.8652 C 26.709 11.8652 25.8789 11.0352 25.8789 6.83594 L 25.8789 -2.34375 C 28.9062 -6.68945 35.1562 -10.6445 42.7734 -10.6445 C 46.2402 -10.6445 49.3652 -9.76562 51.709 -8.54492 C 45.2148 -3.17383 43.1641 7.95898 46.0938 11.8652 Z M 53.418 11.8652 C 52.0508 11.8652 50.7324 10.2539 50.7324 7.61719 C 50.7324 -1.95312 59.082 -10.5957 71.8262 -10.5957 C 81.0547 -10.5957 88.0371 -6.15234 91.0645 -1.41602 L 91.0645 6.83594 C 91.0645 11.084 90.2344 11.8652 86.2793 11.8652 Z"/>
  </g>
  <g id="Bold-M" transform="matrix(1 0 0 1 2282.46 1126)">
   <path d="M 32.0801 -88.5742 L 81.4453 -88.5742 C 81.0059 -93.3594 77.9785 -96.0938 72.8516 -96.0938 L 40.625 -96.0938 C 35.5469 -96.0938 32.4707 -93.3594 32.0801 -88.5742 Z M 23.8281 -73.0957 L 89.502 -73.0957 C 88.8672 -78.125 86.084 -81.2012 80.1758 -81.2012 L 33.1055 -81.2012 C 27.2461 -81.2012 24.4141 -78.125 23.8281 -73.0957 Z M 29.8828 25.3418 L 85.8887 25.3418 C 96.3867 25.3418 102.588 19.1895 102.588 8.00781 L 102.588 -47.4609 C 102.588 -58.5938 96.3867 -64.7461 85.1562 -64.7461 L 29.8828 -64.7461 C 18.6523 -64.7461 12.4512 -58.5938 12.4512 -47.4609 L 12.4512 8.00781 C 12.4512 19.1895 18.6523 25.3418 29.8828 25.3418 Z M 71.2402 -14.5508 C 65.4297 -14.5508 60.791 -19.6289 60.791 -25.9766 C 60.791 -32.2754 65.4785 -37.3047 71.2402 -37.3047 C 77.0508 -37.3047 81.7871 -32.3242 81.7871 -26.0254 C 81.7871 -19.6289 77.0996 -14.5508 71.2402 -14.5508 Z M 41.3574 -13.9648 C 36.3281 -13.9648 32.2266 -18.3594 32.1777 -23.9746 C 32.1777 -29.3945 36.377 -33.7891 41.3574 -33.7891 C 46.3867 -33.7891 50.4883 -29.4434 50.4883 -23.9746 C 50.4883 -18.3594 46.4355 -13.9648 41.3574 -13.9648 Z M 29.834 12.4512 C 25.0977 12.4512 24.0234 11.377 24.0234 6.73828 L 24.0234 -0.976562 C 26.8555 -5.51758 33.1543 -9.96094 41.3574 -9.96094 C 45.166 -9.96094 48.3398 -8.98438 50.9277 -7.51953 C 44.4824 -2.39258 41.9434 8.64258 44.873 12.4512 Z M 52.4414 12.4512 C 51.123 12.4512 49.707 10.9863 49.707 8.44727 C 49.707 -0.878906 58.1543 -9.91211 71.2402 -9.91211 C 80.8594 -9.91211 88.0371 -5.07812 90.9668 -0.244141 L 90.9668 6.73828 C 90.9668 11.4258 89.8926 12.4512 85.8887 12.4512 Z"/>
  </g>
  <g id="Semibold-M" transform="matrix(1 0 0 1 1986.41 1126)">
   <path d="M 32.2266 -87.6953 L 80.127 -87.6953 C 79.7852 -92.2852 76.9531 -94.7754 72.0703 -94.7754 L 40.2832 -94.7754 C 35.4004 -94.7754 32.5684 -92.2852 32.2266 -87.6953 Z M 23.8281 -72.9492 L 88.2812 -72.9492 C 87.5977 -77.7832 85.0586 -80.6152 79.541 -80.6152 L 32.5195 -80.6152 C 27.002 -80.6152 24.4629 -77.7832 23.8281 -72.9492 Z M 29.1016 24.0234 L 85.5957 24.0234 C 95.459 24.0234 101.27 18.2617 101.27 7.51953 L 101.27 -48.2422 C 101.27 -58.9844 95.459 -64.7949 84.6191 -64.7949 L 29.1016 -64.7949 C 18.2617 -64.7949 12.4512 -59.0332 12.4512 -48.2422 L 12.4512 7.51953 C 12.4512 18.2617 18.2617 24.0234 29.1016 24.0234 Z M 70.8496 -14.2578 C 65.0391 -14.2578 60.2051 -19.3848 60.2051 -25.9277 C 60.2051 -32.3242 65.0879 -37.4023 70.8496 -37.4023 C 76.6602 -37.4023 81.4941 -32.4219 81.4941 -25.9766 C 81.4941 -19.3848 76.709 -14.2578 70.8496 -14.2578 Z M 40.3809 -13.6719 C 35.3516 -13.6719 31.1035 -18.1152 31.1035 -23.8281 C 31.0547 -29.3945 35.3516 -33.7891 40.3809 -33.7891 C 45.459 -33.7891 49.6582 -29.4922 49.6582 -23.877 C 49.6582 -18.1152 45.5078 -13.6719 40.3809 -13.6719 Z M 29.1016 12.8906 C 23.9746 12.8906 22.7539 11.6211 22.7539 6.68945 L 22.7539 -0.0488281 C 25.4395 -4.73633 31.7383 -9.47266 40.3809 -9.47266 C 44.4336 -9.47266 47.6562 -8.49609 50.3906 -6.78711 C 43.9941 -1.85547 41.1133 9.17969 43.9941 12.8906 Z M 51.7578 12.8906 C 50.4395 12.8906 49.0234 11.4746 49.0234 8.98438 C 49.0234 -0.146484 57.4707 -9.42383 70.8496 -9.42383 C 80.7129 -9.42383 88.0859 -4.39453 90.918 0.585938 L 90.918 6.68945 C 90.918 11.6699 89.6973 12.8906 85.5957 12.8906 Z"/>
  </g>
  <g id="Medium-M" transform="matrix(1 0 0 1 1690.21 1126)">
   <path d="M 32.3242 -87.0605 L 79.1504 -87.0605 C 78.8086 -91.4551 76.2207 -93.7988 71.4844 -93.7988 L 39.9902 -93.7988 C 35.2539 -93.7988 32.666 -91.4551 32.3242 -87.0605 Z M 23.8281 -72.8516 L 87.3535 -72.8516 C 86.6699 -77.4902 84.3262 -80.1758 79.0527 -80.1758 L 32.0801 -80.1758 C 26.8555 -80.1758 24.5117 -77.4902 23.8281 -72.8516 Z M 28.5156 23.0469 L 85.4004 23.0469 C 94.7754 23.0469 100.244 17.5781 100.244 7.12891 L 100.244 -48.877 C 100.244 -59.3262 94.7266 -64.7949 84.1797 -64.7949 L 28.5156 -64.7949 C 17.9688 -64.7949 12.4512 -59.3262 12.4512 -48.877 L 12.4512 7.12891 C 12.4512 17.5781 17.9688 23.0469 28.5156 23.0469 Z M 70.5566 -14.0625 C 64.7461 -14.0625 59.7656 -19.2383 59.7656 -25.8301 C 59.7656 -32.373 64.7461 -37.4512 70.5566 -37.4512 C 76.416 -37.4512 81.2988 -32.4707 81.2988 -25.9277 C 81.2988 -19.2383 76.416 -14.0625 70.5566 -14.0625 Z M 39.6484 -13.4277 C 34.5703 -13.4277 30.2734 -17.9199 30.2246 -23.7305 C 30.2246 -29.3945 34.5703 -33.8379 39.6484 -33.8379 C 44.7266 -33.8379 49.0234 -29.4922 49.0234 -23.7793 C 49.0234 -17.9199 44.7754 -13.4277 39.6484 -13.4277 Z M 28.4668 13.1836 C 23.0957 13.1836 21.7773 11.7676 21.7773 6.64062 L 21.7773 0.634766 C 24.3652 -4.15039 30.7129 -9.13086 39.6484 -9.13086 C 43.8965 -9.13086 47.168 -8.05664 50 -6.25 C 43.6035 -1.46484 40.4785 9.52148 43.3594 13.1836 Z M 51.2695 13.1836 C 49.9512 13.1836 48.4863 11.8652 48.4863 9.375 C 48.4863 0.439453 56.9824 -9.0332 70.5566 -9.0332 C 80.6152 -9.0332 88.0859 -3.85742 90.8691 1.17188 L 90.8691 6.64062 C 90.8691 11.8652 89.502 13.1836 85.4004 13.1836 Z"/>
  </g>
  <g id="Regular-M" transform="matrix(1 0 0 1 1394.13 1126)">
   <path d="M 32.4707 -86.2305 L 77.8809 -86.2305 C 77.5879 -90.332 75.2441 -92.5293 70.752 -92.5293 L 39.5996 -92.5293 C 35.1074 -92.5293 32.7637 -90.332 32.4707 -86.2305 Z M 23.7793 -72.7051 L 86.1328 -72.7051 C 85.4492 -77.0996 83.3008 -79.5898 78.418 -79.5898 L 31.4941 -79.5898 C 26.6113 -79.5898 24.5117 -77.0996 23.7793 -72.7051 Z M 27.7832 21.7285 L 85.1074 21.7285 C 93.8477 21.7285 98.9746 16.6504 98.9746 6.5918 L 98.9746 -49.6582 C 98.9746 -59.7168 93.7988 -64.7949 83.6426 -64.7949 L 27.7832 -64.7949 C 17.5781 -64.7949 12.4512 -59.7656 12.4512 -49.6582 L 12.4512 6.5918 C 12.4512 16.6504 17.5781 21.7285 27.7832 21.7285 Z M 70.166 -13.7695 C 64.3066 -13.7695 59.2285 -18.9941 59.2285 -25.7324 C 59.2285 -32.4219 64.3555 -37.5488 70.166 -37.5488 C 76.0254 -37.5488 81.0547 -32.5684 81.0547 -25.8301 C 81.0547 -18.9941 76.0742 -13.7695 70.166 -13.7695 Z M 38.7207 -13.0859 C 33.5938 -13.0859 29.1504 -17.6758 29.1504 -23.6328 C 29.1504 -29.4434 33.5938 -33.8379 38.7207 -33.8379 C 43.7988 -33.8379 48.1934 -29.541 48.1934 -23.6816 C 48.1934 -17.6758 43.7988 -13.0859 38.7207 -13.0859 Z M 27.7344 13.5742 C 21.9727 13.5742 20.5566 12.0117 20.5566 6.5918 L 20.5566 1.5625 C 22.9492 -3.36914 29.3457 -8.64258 38.6719 -8.64258 C 43.1641 -8.64258 46.4844 -7.56836 49.4629 -5.56641 C 43.1152 -0.927734 39.5996 10.0098 42.5293 13.5742 Z M 50.5859 13.5742 C 49.3164 13.5742 47.7539 12.3535 47.7539 9.96094 C 47.7539 1.17188 56.3477 -8.59375 70.166 -8.59375 C 80.4688 -8.59375 88.1348 -3.125 90.8203 2.00195 L 90.8203 6.5918 C 90.8203 12.1094 89.3066 13.5742 85.1074 13.5742 Z"/>
  </g>
  <g id="Light-M" transform="matrix(1 0 0 1 1098.35 1126)">
   <path d="M 31.2012 -85.6934 L 77.6855 -85.6934 C 77.4902 -88.8672 75.6348 -90.7227 72.168 -90.7227 L 36.7188 -90.7227 C 33.252 -90.7227 31.3965 -88.8672 31.2012 -85.6934 Z M 23.0469 -73.1934 L 85.5957 -73.1934 C 85.1074 -76.5625 83.3984 -78.5645 79.6875 -78.5645 L 28.9062 -78.5645 C 25.2441 -78.5645 23.5352 -76.5625 23.0469 -73.1934 Z M 26.8555 19.873 L 83.6914 19.873 C 92.2852 19.873 97.1191 15.0391 97.1191 5.61523 L 97.1191 -50.5371 C 97.1191 -59.9121 92.2852 -64.7949 82.7637 -64.7949 L 26.8555 -64.7949 C 17.334 -64.7949 12.4512 -60.0098 12.4512 -50.5371 L 12.4512 5.61523 C 12.4512 15.0879 17.334 19.873 26.8555 19.873 Z M 70.2148 -14.3555 C 64.0137 -14.3555 58.9844 -19.7754 58.9844 -26.7578 C 58.9844 -33.5449 64.0625 -38.9648 70.2148 -38.9648 C 76.2695 -38.9648 81.3477 -33.6426 81.3477 -26.8066 C 81.3477 -19.7754 76.3672 -14.3555 70.2148 -14.3555 Z M 37.5 -13.7207 C 32.1289 -13.7207 27.6855 -18.4082 27.6855 -24.5605 C 27.6855 -30.4688 32.1289 -35.1074 37.5 -35.1074 C 42.7734 -35.1074 47.2168 -30.5176 47.2168 -24.5605 C 47.2168 -18.4082 42.8223 -13.7207 37.5 -13.7207 Z M 26.8066 13.2324 C 20.9473 13.2324 19.043 11.2793 19.043 5.61523 L 19.043 1.02539 C 20.9961 -3.32031 27.3926 -9.375 37.4512 -9.375 C 42.4805 -9.375 46.1426 -7.86133 49.2676 -5.56641 C 42.7246 -0.488281 39.6973 10.3027 42.7734 13.2324 Z M 50.3906 13.2324 C 48.5352 13.2324 46.9727 12.1582 46.9727 9.66797 C 46.9727 0.830078 55.9082 -9.27734 70.166 -9.27734 C 80.3223 -9.27734 88.1836 -3.71094 90.4785 0.830078 L 90.4785 5.61523 C 90.4785 11.3281 88.5254 13.2324 83.6914 13.2324 Z"/>
  </g>
  <g id="Thin-M" transform="matrix(1 0 0 1 802.833 1126)">
   <path d="M 29.4922 -85.0586 L 77.4414 -85.0586 C 77.3926 -86.9629 76.1719 -88.3301 74.1211 -88.3301 L 32.8613 -88.3301 C 30.8105 -88.3301 29.5898 -86.9629 29.4922 -85.0586 Z M 22.0215 -73.8281 L 84.8633 -73.8281 C 84.7168 -75.8301 83.4961 -77.2461 81.3965 -77.2461 L 25.4883 -77.2461 C 23.3398 -77.2461 22.168 -75.8301 22.0215 -73.8281 Z M 25.6348 17.4805 L 81.8848 17.4805 C 90.2344 17.4805 94.7266 12.8906 94.7266 4.3457 L 94.7266 -51.6602 C 94.7266 -60.2051 90.1855 -64.7949 81.543 -64.7949 L 25.6348 -64.7949 C 16.9922 -64.7949 12.4512 -60.3027 12.4512 -51.6602 L 12.4512 4.3457 C 12.4512 12.9883 16.9922 17.4805 25.6348 17.4805 Z M 70.2148 -15.1855 C 63.623 -15.1855 58.5938 -20.8008 58.5938 -28.0762 C 58.5938 -35.0098 63.7207 -40.7715 70.2148 -40.7715 C 76.6113 -40.7715 81.7383 -35.0586 81.7383 -28.125 C 81.7383 -20.8008 76.709 -15.1855 70.2148 -15.1855 Z M 35.8887 -14.5508 C 30.1758 -14.5508 25.7812 -19.3848 25.7812 -25.7812 C 25.7812 -31.8359 30.2246 -36.7188 35.8887 -36.7188 C 41.4551 -36.7188 45.9473 -31.8359 45.9473 -25.7812 C 45.9473 -19.3848 41.5527 -14.5508 35.8887 -14.5508 Z M 25.5859 12.793 C 19.5312 12.793 17.0898 10.3027 17.0898 4.3457 L 17.0898 0.292969 C 18.4082 -3.27148 24.8535 -10.2539 35.791 -10.2539 C 41.6504 -10.2539 45.752 -8.30078 48.9746 -5.56641 C 42.2363 0.0488281 39.7461 10.6445 43.0664 12.793 Z M 50.0977 12.793 C 47.5586 12.793 45.8984 11.8652 45.8984 9.27734 C 45.8984 0.341797 55.2734 -10.1562 70.166 -10.1562 C 80.1758 -10.1562 88.3301 -4.44336 90.0879 -0.683594 L 90.0879 4.3457 C 90.0879 10.3516 87.5488 12.793 81.8848 12.793 Z"/>
  </g>
  <g id="Ultralight-M" transform="matrix(1 0 0 1 506.733 1126)">
   <path d="M 28.6621 -84.7168 L 77.3438 -84.7168 C 77.3438 -85.9863 76.416 -87.1582 75.0977 -87.1582 L 30.8594 -87.1582 C 29.541 -87.1582 28.6621 -85.9863 28.6621 -84.7168 Z M 21.4844 -74.1699 L 84.4727 -74.1699 C 84.4727 -75.4395 83.5449 -76.6113 82.2754 -76.6113 L 23.7305 -76.6113 C 22.4121 -76.6113 21.4844 -75.4395 21.4844 -74.1699 Z M 25 16.2598 L 80.9082 16.2598 C 89.1602 16.2598 93.5059 11.7676 93.5059 3.71094 L 93.5059 -52.2461 C 93.5059 -60.3027 89.1602 -64.7949 80.957 -64.7949 L 25 -64.7949 C 16.7969 -64.7949 12.4512 -60.4492 12.4512 -52.2461 L 12.4512 3.71094 C 12.4512 11.9141 16.7969 16.2598 25 16.2598 Z M 70.2148 -15.5762 C 63.4277 -15.5762 58.4473 -21.3379 58.4473 -28.7598 C 58.4473 -35.7422 63.5254 -41.6992 70.2148 -41.6992 C 76.8066 -41.6992 81.9824 -35.7422 81.9824 -28.7598 C 81.9824 -21.3379 76.9043 -15.5762 70.2148 -15.5762 Z M 35.0586 -14.9902 C 29.1992 -14.9902 24.7559 -19.9219 24.7559 -26.416 C 24.7559 -32.5195 29.248 -37.5488 35.0586 -37.5488 C 40.7715 -37.5488 45.3125 -32.5195 45.3125 -26.416 C 45.3125 -19.9219 40.8691 -14.9902 35.0586 -14.9902 Z M 25 12.5977 C 18.7988 12.5977 16.1133 9.81445 16.1133 3.71094 L 16.1133 -0.0976562 C 17.0898 -3.22266 23.584 -10.7422 34.9609 -10.7422 C 41.2109 -10.7422 45.5078 -8.54492 48.8281 -5.61523 C 41.9922 0.341797 39.7949 10.791 43.2617 12.5977 Z M 49.9512 12.5977 C 47.0703 12.5977 45.3613 11.7188 45.3613 9.08203 C 45.3613 0.0976562 54.9316 -10.5957 70.166 -10.5957 C 80.0781 -10.5957 88.3789 -4.83398 89.8438 -1.46484 L 89.8438 3.71094 C 89.8438 9.81445 87.0117 12.5977 80.9082 12.5977 Z"/>
  </g>
  <g id="Black-S" transform="matrix(1 0 0 1 2886.96 696)">
   <path d="M 24.8535 -78.7598 L 66.4551 -78.7598 C 66.0645 -83.0566 63.1348 -85.5957 58.6426 -85.5957 L 32.666 -85.5957 C 28.1738 -85.5957 25.2441 -83.0566 24.8535 -78.7598 Z M 18.7012 -65.1855 L 72.6074 -65.1855 C 72.2168 -69.6289 69.4824 -72.5098 64.1113 -72.5098 L 27.1973 -72.5098 C 21.8262 -72.5098 19.0918 -69.6289 18.7012 -65.1855 Z M 25 14.9902 L 67.8711 14.9902 C 77.4414 14.9902 83.1055 9.32617 83.1055 -0.244141 L 83.1055 -43.1152 C 83.1055 -52.6855 77.4414 -58.3496 67.8711 -58.3496 L 25 -58.3496 C 15.4297 -58.3496 9.76562 -52.6855 9.76562 -43.1152 L 9.76562 -0.244141 C 9.76562 9.32617 15.4297 14.9902 25 14.9902 Z M 56.6406 -19.5801 C 52.1484 -19.5801 48.7793 -23.4375 48.7793 -28.1738 C 48.7793 -32.7637 52.1973 -36.6211 56.6406 -36.6211 C 61.1328 -36.6211 64.5996 -32.7637 64.5996 -28.1738 C 64.5996 -23.4375 61.1816 -19.5801 56.6406 -19.5801 Z M 34.4238 -19.2383 C 30.5664 -19.2383 27.5879 -22.5098 27.5391 -26.6602 C 27.4902 -30.6152 30.6152 -34.0332 34.4238 -34.0332 C 38.3301 -34.0332 41.3086 -30.6152 41.3086 -26.6602 C 41.3086 -22.5098 38.3789 -19.2383 34.4238 -19.2383 Z M 25 1.31836 C 21.9727 1.31836 21.4844 0.830078 21.4844 -2.19727 L 21.4844 -10.3027 C 23.9746 -13.5742 28.8574 -16.4062 34.4238 -16.4062 C 36.9141 -16.4062 39.3066 -15.7715 41.0156 -14.9902 C 35.8887 -10.5957 34.6191 -1.85547 36.9141 1.31836 Z M 42.4805 1.31836 C 41.4062 1.31836 40.4297 -0.0488281 40.4297 -2.14844 C 40.4297 -9.81445 46.875 -16.3574 56.6406 -16.3574 C 63.623 -16.3574 68.9453 -13.0859 71.3867 -9.47266 L 71.3867 -2.19727 C 71.3867 0.830078 70.8984 1.31836 67.8711 1.31836 Z"/>
  </g>
  <g id="Heavy-S" transform="matrix(1 0 0 1 2590.81 696)">
   <path d="M 25.1465 -77.9785 L 65.1855 -77.9785 C 64.8438 -82.1289 62.1094 -84.5215 57.7148 -84.5215 L 32.6172 -84.5215 C 28.2227 -84.5215 25.4883 -82.1289 25.1465 -77.9785 Z M 18.7988 -64.9902 L 71.4844 -64.9902 C 70.9961 -69.3359 68.5059 -72.0215 63.3301 -72.0215 L 26.9043 -72.0215 C 21.7773 -72.0215 19.2383 -69.3359 18.7988 -64.9902 Z M 24.3652 13.8672 L 67.7734 13.8672 C 76.709 13.8672 81.9824 8.59375 81.9824 -0.683594 L 81.9824 -43.8477 C 81.9824 -53.0762 76.709 -58.3496 67.4316 -58.3496 L 24.3652 -58.3496 C 15.0879 -58.3496 9.76562 -53.0762 9.76562 -43.8477 L 9.76562 -0.683594 C 9.76562 8.59375 15.0879 13.8672 24.3652 13.8672 Z M 56.25 -19.2383 C 51.7578 -19.2383 48.2422 -23.1445 48.2422 -27.9785 C 48.2422 -32.7148 51.8066 -36.5723 56.25 -36.5723 C 60.7422 -36.5723 64.3066 -32.7148 64.3066 -27.9785 C 64.3066 -23.1445 60.791 -19.2383 56.25 -19.2383 Z M 33.5938 -18.8477 C 29.7363 -18.8477 26.6113 -22.168 26.6113 -26.416 C 26.5625 -30.5176 29.7852 -33.9355 33.5938 -33.9355 C 37.5 -33.9355 40.5762 -30.5176 40.5762 -26.416 C 40.5762 -22.168 37.5488 -18.8477 33.5938 -18.8477 Z M 24.3164 1.75781 C 20.9961 1.75781 20.3613 1.12305 20.3613 -2.14844 L 20.3613 -9.32617 C 22.8027 -12.793 27.6855 -15.8691 33.5938 -15.8691 C 36.2793 -15.8691 38.6719 -15.1855 40.5273 -14.2578 C 35.4492 -10.1074 33.7891 -1.41602 36.0352 1.75781 Z M 41.8457 1.75781 C 40.8203 1.75781 39.7949 0.488281 39.7949 -1.5625 C 39.7949 -9.0332 46.2891 -15.8203 56.25 -15.8203 C 63.5254 -15.8203 68.9453 -12.3047 71.3867 -8.54492 L 71.3867 -2.14844 C 71.3867 1.17188 70.752 1.75781 67.7734 1.75781 Z"/>
  </g>
  <g id="Bold-S" transform="matrix(1 0 0 1 2294.71 696)">
   <path d="M 25.4395 -77.0996 L 63.7695 -77.0996 C 63.4277 -81.1035 60.9375 -83.3008 56.6895 -83.3008 L 32.5684 -83.3008 C 28.3203 -83.3008 25.7812 -81.1035 25.4395 -77.0996 Z M 18.8477 -64.7461 L 70.2148 -64.7461 C 69.6777 -68.9941 67.3828 -71.4844 62.5 -71.4844 L 26.5625 -71.4844 C 21.6797 -71.4844 19.3848 -68.9941 18.8477 -64.7461 Z M 23.6328 12.6465 L 67.627 12.6465 C 75.8789 12.6465 80.7617 7.76367 80.7617 -1.12305 L 80.7617 -44.6289 C 80.7617 -53.5156 75.8789 -58.3984 66.9434 -58.3984 L 23.6328 -58.3984 C 14.6973 -58.3984 9.76562 -53.5156 9.76562 -44.6289 L 9.76562 -1.12305 C 9.76562 7.76367 14.6973 12.6465 23.6328 12.6465 Z M 55.8105 -18.8477 C 51.3672 -18.8477 47.6562 -22.8027 47.6562 -27.7344 C 47.6562 -32.6172 51.3672 -36.5234 55.8105 -36.5234 C 60.3027 -36.5234 63.9648 -32.7148 63.9648 -27.7832 C 63.9648 -22.8027 60.3027 -18.8477 55.8105 -18.8477 Z M 32.666 -18.4082 C 28.8086 -18.4082 25.5859 -21.8262 25.5371 -26.1719 C 25.5371 -30.4199 28.8086 -33.7891 32.666 -33.7891 C 36.5723 -33.7891 39.7461 -30.4688 39.7461 -26.1719 C 39.7461 -21.8262 36.5723 -18.4082 32.666 -18.4082 Z M 23.584 2.24609 C 19.873 2.24609 19.1406 1.46484 19.1406 -2.09961 L 19.1406 -8.20312 C 21.4355 -11.9141 26.3672 -15.2344 32.666 -15.2344 C 35.498 -15.2344 37.9395 -14.5996 39.9414 -13.4766 C 34.9121 -9.57031 32.8125 -0.878906 35.0586 2.24609 Z M 41.1133 2.24609 C 40.1855 2.24609 39.1113 1.07422 39.1113 -0.927734 C 39.1113 -8.20312 45.6543 -15.1855 55.8105 -15.1855 C 63.3789 -15.1855 68.9941 -11.4258 71.3379 -7.4707 L 71.3379 -2.09961 C 71.3379 1.51367 70.6055 2.24609 67.627 2.24609 Z"/>
  </g>
  <g id="Semibold-S" transform="matrix(1 0 0 1 1998.42 696)">
   <path d="M 25.6836 -76.4648 L 62.793 -76.4648 C 62.5 -80.3711 60.1562 -82.4219 55.957 -82.4219 L 32.5195 -82.4219 C 28.3203 -82.4219 25.9766 -80.3711 25.6836 -76.4648 Z M 18.8965 -64.5996 L 69.3359 -64.5996 C 68.7012 -68.75 66.6016 -71.0938 61.8652 -71.0938 L 26.3672 -71.0938 C 21.6309 -71.0938 19.5312 -68.75 18.8965 -64.5996 Z M 23.0957 11.7676 L 67.5293 11.7676 C 75.293 11.7676 79.9316 7.17773 79.9316 -1.46484 L 79.9316 -45.166 C 79.9316 -53.8086 75.293 -58.3984 66.6016 -58.3984 L 23.0957 -58.3984 C 14.4043 -58.3984 9.76562 -53.8086 9.76562 -45.166 L 9.76562 -1.46484 C 9.76562 7.17773 14.4043 11.7676 23.0957 11.7676 Z M 55.5176 -18.6035 C 51.0742 -18.6035 47.2656 -22.5586 47.2656 -27.5879 C 47.2656 -32.5684 51.0742 -36.4746 55.5176 -36.4746 C 60.0098 -36.4746 63.7695 -32.666 63.7695 -27.6367 C 63.7695 -22.5586 60.0098 -18.6035 55.5176 -18.6035 Z M 32.0312 -18.1152 C 28.125 -18.1152 24.8535 -21.5332 24.8047 -25.9766 C 24.8047 -30.3223 28.1738 -33.6914 32.0312 -33.6914 C 35.9375 -33.6914 39.209 -30.3711 39.209 -26.0254 C 39.209 -21.5332 35.9375 -18.1152 32.0312 -18.1152 Z M 23.0957 2.58789 C 19.0918 2.58789 18.3105 1.70898 18.3105 -2.05078 L 18.3105 -7.4707 C 20.5566 -11.3281 25.4883 -14.7949 32.0312 -14.7949 C 35.0098 -14.7949 37.4512 -14.1602 39.5508 -12.9395 C 34.5703 -9.22852 32.1777 -0.537109 34.375 2.58789 Z M 40.625 2.58789 C 39.7461 2.58789 38.623 1.46484 38.623 -0.488281 C 38.623 -7.56836 45.2148 -14.7461 55.5176 -14.7461 C 63.2812 -14.7461 68.9941 -10.8398 71.3379 -6.78711 L 71.3379 -2.05078 C 71.3379 1.75781 70.5078 2.58789 67.5293 2.58789 Z"/>
  </g>
  <g id="Medium-S" transform="matrix(1 0 0 1 1702.05 696)">
   <path d="M 25.8301 -76.0254 L 62.0605 -76.0254 C 61.7676 -79.834 59.5215 -81.7871 55.4199 -81.7871 L 32.5195 -81.7871 C 28.3691 -81.7871 26.1719 -79.834 25.8301 -76.0254 Z M 18.9453 -64.502 L 68.6523 -64.502 C 68.0176 -68.5547 66.0156 -70.8008 61.4258 -70.8008 L 26.1719 -70.8008 C 21.6309 -70.8008 19.5801 -68.5547 18.9453 -64.502 Z M 22.7051 11.1328 L 67.4316 11.1328 C 74.9023 11.1328 79.248 6.73828 79.248 -1.70898 L 79.248 -45.6055 C 79.248 -54.0527 74.8535 -58.3984 66.3086 -58.3984 L 22.7051 -58.3984 C 14.209 -58.3984 9.76562 -54.0527 9.76562 -45.6055 L 9.76562 -1.70898 C 9.76562 6.73828 14.209 11.1328 22.7051 11.1328 Z M 55.2734 -18.3594 C 50.8301 -18.3594 46.9238 -22.3633 46.9238 -27.4414 C 46.9238 -32.5684 50.8301 -36.4258 55.2734 -36.4258 C 59.7656 -36.4258 63.5742 -32.666 63.5742 -27.5391 C 63.5742 -22.3633 59.7656 -18.3594 55.2734 -18.3594 Z M 31.543 -17.8711 C 27.6367 -17.8711 24.2676 -21.3867 24.2676 -25.8789 C 24.2676 -30.2734 27.6855 -33.6426 31.543 -33.6426 C 35.4492 -33.6426 38.7695 -30.3223 38.7695 -25.8789 C 38.7695 -21.3867 35.4492 -17.8711 31.543 -17.8711 Z M 22.7051 2.83203 C 18.5059 2.83203 17.6758 1.9043 17.6758 -2.05078 L 17.6758 -6.88477 C 19.8242 -10.8887 24.8047 -14.502 31.543 -14.502 C 34.6191 -14.502 37.0605 -13.8184 39.2578 -12.5 C 34.3262 -8.93555 31.6406 -0.244141 33.8867 2.83203 Z M 40.2344 2.83203 C 39.4531 2.83203 38.2812 1.75781 38.2812 -0.146484 C 38.2812 -7.12891 44.873 -14.4531 55.2734 -14.4531 C 63.1836 -14.4531 68.9941 -10.4004 71.3379 -6.20117 L 71.3379 -2.05078 C 71.3379 1.95312 70.459 2.83203 67.4316 2.83203 Z"/>
  </g>
  <g id="Regular-S" transform="matrix(1 0 0 1 1405.75 696)">
   <path d="M 26.0742 -75.3906 L 61.084 -75.3906 C 60.8398 -79.1016 58.7402 -80.957 54.7363 -80.957 L 32.4707 -80.957 C 28.418 -80.957 26.3672 -79.1016 26.0742 -75.3906 Z M 19.043 -64.3555 L 67.7734 -64.3555 C 67.0898 -68.3105 65.2344 -70.459 60.8398 -70.459 L 25.9766 -70.459 C 21.582 -70.459 19.7266 -68.3105 19.043 -64.3555 Z M 22.2168 10.2539 L 67.3828 10.2539 C 74.3164 10.2539 78.418 6.20117 78.418 -2.00195 L 78.418 -46.1426 C 78.418 -54.3457 74.2676 -58.3984 65.9668 -58.3984 L 22.2168 -58.3984 C 13.916 -58.3984 9.76562 -54.3457 9.76562 -46.1426 L 9.76562 -2.00195 C 9.76562 6.20117 13.916 10.2539 22.2168 10.2539 Z M 54.9805 -18.1152 C 50.5371 -18.1152 46.5332 -22.1191 46.5332 -27.2949 C 46.5332 -32.5195 50.5371 -36.377 54.9805 -36.377 C 59.4727 -36.377 63.3789 -32.6172 63.3789 -27.3926 C 63.3789 -22.1191 59.4727 -18.1152 54.9805 -18.1152 Z M 30.9082 -17.5781 C 27.002 -17.5781 23.5352 -21.0938 23.5352 -25.6836 C 23.5352 -30.1758 27.002 -33.5449 30.9082 -33.5449 C 34.8145 -33.5449 38.2324 -30.2734 38.2324 -25.7324 C 38.2324 -21.0938 34.8145 -17.5781 30.9082 -17.5781 Z M 22.168 3.17383 C 17.7734 3.17383 16.7969 2.14844 16.7969 -2.00195 L 16.7969 -6.15234 C 18.9453 -10.3027 23.9258 -14.0625 30.9082 -14.0625 C 34.1309 -14.0625 36.5723 -13.3789 38.8672 -11.9629 C 33.9844 -8.59375 31.0059 0.0976562 33.2031 3.17383 Z M 39.7461 3.17383 C 39.0137 3.17383 37.793 2.14844 37.793 0.292969 C 37.793 -6.54297 44.3848 -14.0137 54.9805 -14.0137 C 63.1348 -14.0137 68.9941 -9.81445 71.3379 -5.51758 L 71.3379 -2.00195 C 71.3379 2.24609 70.3613 3.17383 67.3828 3.17383 Z"/>
  </g>
  <g id="Light-S" transform="matrix(1 0 0 1 1109.85 696)">
   <path d="M 24.9512 -74.9512 L 60.9375 -74.9512 C 60.7422 -77.832 59.082 -79.3945 56.0059 -79.3945 L 29.8828 -79.3945 C 26.7578 -79.3945 25.1465 -77.832 24.9512 -74.9512 Z M 18.3594 -64.7949 L 67.2852 -64.7949 C 66.7969 -67.8223 65.332 -69.5801 61.9629 -69.5801 L 23.6816 -69.5801 C 20.3125 -69.5801 18.7988 -67.8223 18.3594 -64.7949 Z M 21.3867 8.64258 L 66.1133 8.64258 C 72.9004 8.64258 76.8066 4.73633 76.8066 -2.83203 L 76.8066 -46.875 C 76.8066 -54.4922 72.9004 -58.3984 65.1855 -58.3984 L 21.3867 -58.3984 C 13.6719 -58.3984 9.76562 -54.541 9.76562 -46.875 L 9.76562 -2.83203 C 9.76562 4.78516 13.6719 8.64258 21.3867 8.64258 Z M 54.9805 -18.6523 C 50.293 -18.6523 46.2891 -22.8516 46.2891 -28.2227 C 46.2891 -33.4961 50.293 -37.5977 54.9805 -37.5977 C 59.668 -37.5977 63.623 -33.5938 63.623 -28.2715 C 63.623 -22.8516 59.7168 -18.6523 54.9805 -18.6523 Z M 29.834 -18.1152 C 25.7324 -18.1152 22.2656 -21.7773 22.2656 -26.5137 C 22.2656 -31.1035 25.7324 -34.6191 29.834 -34.6191 C 33.8867 -34.6191 37.4023 -31.1523 37.4023 -26.5137 C 37.4023 -21.7773 33.9355 -18.1152 29.834 -18.1152 Z M 21.3867 2.88086 C 16.7969 2.88086 15.5273 1.46484 15.5273 -2.83203 L 15.5273 -6.64062 C 17.1875 -10.2539 22.2168 -14.6973 29.834 -14.6973 C 33.5449 -14.6973 36.2793 -13.6719 38.6719 -11.9629 C 33.6426 -8.20312 31.0547 0.341797 33.3984 2.88086 Z M 39.5508 2.88086 C 38.3301 2.88086 37.1094 1.95312 37.1094 0.0488281 C 37.1094 -6.83594 43.9941 -14.5996 54.9805 -14.5996 C 62.9883 -14.5996 69.0918 -10.3027 71.0449 -6.54297 L 71.0449 -2.83203 C 71.0449 1.5625 69.6777 2.88086 66.1133 2.88086 Z"/>
  </g>
  <g id="Thin-S" transform="matrix(1 0 0 1 814.186 696)">
   <path d="M 23.4375 -74.4141 L 60.7422 -74.4141 C 60.6445 -76.123 59.5703 -77.2949 57.7148 -77.2949 L 26.4648 -77.2949 C 24.6094 -77.2949 23.5352 -76.123 23.4375 -74.4141 Z M 17.4805 -65.332 L 66.6504 -65.332 C 66.4551 -67.1875 65.4297 -68.4082 63.4766 -68.4082 L 20.6055 -68.4082 C 18.6523 -68.4082 17.627 -67.1875 17.4805 -65.332 Z M 20.3125 6.54297 L 64.502 6.54297 C 71.0938 6.54297 74.707 2.88086 74.707 -3.95508 L 74.707 -47.9004 C 74.707 -54.7363 71.0938 -58.3984 64.1602 -58.3984 L 20.3125 -58.3984 C 13.3789 -58.3984 9.76562 -54.7852 9.76562 -47.9004 L 9.76562 -3.95508 C 9.76562 2.92969 13.3789 6.54297 20.3125 6.54297 Z M 55.0293 -19.3848 C 49.9512 -19.3848 45.9961 -23.7305 45.9961 -29.3945 C 45.9961 -34.7656 50 -39.209 55.0293 -39.209 C 59.9609 -39.209 63.9648 -34.8145 63.9648 -29.3945 C 63.9648 -23.7305 60.0586 -19.3848 55.0293 -19.3848 Z M 28.418 -18.8477 C 24.0234 -18.8477 20.5566 -22.6562 20.5566 -27.5879 C 20.5566 -32.2754 24.0723 -36.084 28.418 -36.084 C 32.7148 -36.084 36.2793 -32.3242 36.2793 -27.5879 C 36.2793 -22.6562 32.8125 -18.8477 28.418 -18.8477 Z M 20.3125 2.49023 C 15.5762 2.49023 13.7695 0.634766 13.7695 -3.95508 L 13.7695 -7.27539 C 14.9414 -10.2051 19.9707 -15.4785 28.3691 -15.4785 C 32.8125 -15.4785 35.9375 -14.0625 38.4277 -12.0117 C 33.2031 -7.71484 31.1523 0.634766 33.6914 2.49023 Z M 39.3066 2.49023 C 37.4512 2.49023 36.1816 1.70898 36.1816 -0.292969 C 36.1816 -7.27539 43.4082 -15.4297 54.9805 -15.4297 C 62.8418 -15.4297 69.1895 -10.9375 70.6543 -7.86133 L 70.6543 -3.95508 C 70.6543 0.683594 68.7988 2.49023 64.502 2.49023 Z"/>
  </g>
  <g id="Ultralight-S" transform="matrix(1 0 0 1 518.036 696)">
   <path d="M 22.7051 -74.0723 L 60.6445 -74.0723 C 60.5957 -75.2441 59.8145 -76.2207 58.5938 -76.2207 L 24.707 -76.2207 C 23.4863 -76.2207 22.7051 -75.2441 22.7051 -74.0723 Z M 16.9922 -65.6738 L 66.3086 -65.6738 C 66.2598 -66.8457 65.4785 -67.8223 64.209 -67.8223 L 19.043 -67.8223 C 17.8223 -67.8223 17.041 -66.8457 16.9922 -65.6738 Z M 19.7754 5.41992 L 63.6719 5.41992 C 70.1172 5.41992 73.584 1.9043 73.584 -4.54102 L 73.584 -48.4375 C 73.584 -54.834 70.1172 -58.3984 63.623 -58.3984 L 19.7754 -58.3984 C 13.2324 -58.3984 9.76562 -54.9316 9.76562 -48.4375 L 9.76562 -4.54102 C 9.76562 1.95312 13.2324 5.41992 19.7754 5.41992 Z M 55.0293 -19.7266 C 49.7559 -19.7266 45.8496 -24.2188 45.8496 -29.9805 C 45.8496 -35.4492 49.8535 -40.0391 55.0293 -40.0391 C 60.1074 -40.0391 64.1602 -35.4492 64.1602 -29.9805 C 64.1602 -24.2188 60.2051 -19.7266 55.0293 -19.7266 Z M 27.6855 -19.2383 C 23.1445 -19.2383 19.6777 -23.0957 19.6777 -28.125 C 19.6777 -32.9102 23.1934 -36.8164 27.6855 -36.8164 C 32.1289 -36.8164 35.6934 -32.9102 35.6934 -28.125 C 35.6934 -23.0957 32.2266 -19.2383 27.6855 -19.2383 Z M 19.7754 2.29492 C 14.9414 2.29492 12.8906 0.195312 12.8906 -4.54102 L 12.8906 -7.56836 C 13.7695 -10.1562 18.7988 -15.918 27.6367 -15.918 C 32.4219 -15.918 35.7422 -14.2578 38.3301 -12.0117 C 32.959 -7.42188 31.2012 0.78125 33.8379 2.29492 Z M 39.209 2.29492 C 37.0117 2.29492 35.6934 1.61133 35.6934 -0.439453 C 35.6934 -7.4707 43.1152 -15.8203 54.9805 -15.8203 C 62.7441 -15.8203 69.2383 -11.2793 70.459 -8.59375 L 70.459 -4.54102 C 70.459 0.195312 68.3105 2.29492 63.6719 2.29492 Z"/>
  </g>
 </g>
</svg>
