<?xml version="1.0" encoding="UTF-8"?>
<!--Generator: Apple Native CoreSVG 148-->
<!DOCTYPE svg
PUBLIC "-//W3C//DTD SVG 1.1//EN"
       "http://www.w3.org/Graphics/SVG/1.1/DTD/svg11.dtd">
<svg version="1.1" xmlns="http://www.w3.org/2000/svg" xmlns:xlink="http://www.w3.org/1999/xlink" width="3300" height="2200">
 <!--glyph: "uni100336.medium", point size: 100.000000, font version: "Version 16.0d11e1", template writer version: "8"-->
 <g id="Notes">
  <rect height="2200" id="artboard" style="fill:white;opacity:1" width="3300" x="0" y="0"/>
  <line id="" style="fill:none;stroke:black;opacity:1;stroke-width:0.5;" x1="263" x2="3036" y1="292" y2="292"/>
  <text style="stroke:none;fill:black;font-family:-apple-system,&quot;SF Pro Display&quot;,&quot;SF Pro Text&quot;,Helvetica,sans-serif;font-weight:bold;" transform="matrix(1 0 0 1 263 322)">Weight/Scale Variations</text>
  <text style="stroke:none;fill:black;font-family:-apple-system,&quot;SF Pro Display&quot;,&quot;SF Pro Text&quot;,Helvetica,sans-serif;text-anchor:middle;" transform="matrix(1 0 0 1 559.711 322)">Ultralight</text>
  <text style="stroke:none;fill:black;font-family:-apple-system,&quot;SF Pro Display&quot;,&quot;SF Pro Text&quot;,Helvetica,sans-serif;text-anchor:middle;" transform="matrix(1 0 0 1 856.422 322)">Thin</text>
  <text style="stroke:none;fill:black;font-family:-apple-system,&quot;SF Pro Display&quot;,&quot;SF Pro Text&quot;,Helvetica,sans-serif;text-anchor:middle;" transform="matrix(1 0 0 1 1153.13 322)">Light</text>
  <text style="stroke:none;fill:black;font-family:-apple-system,&quot;SF Pro Display&quot;,&quot;SF Pro Text&quot;,Helvetica,sans-serif;text-anchor:middle;" transform="matrix(1 0 0 1 1449.84 322)">Regular</text>
  <text style="stroke:none;fill:black;font-family:-apple-system,&quot;SF Pro Display&quot;,&quot;SF Pro Text&quot;,Helvetica,sans-serif;text-anchor:middle;" transform="matrix(1 0 0 1 1746.56 322)">Medium</text>
  <text style="stroke:none;fill:black;font-family:-apple-system,&quot;SF Pro Display&quot;,&quot;SF Pro Text&quot;,Helvetica,sans-serif;text-anchor:middle;" transform="matrix(1 0 0 1 2043.27 322)">Semibold</text>
  <text style="stroke:none;fill:black;font-family:-apple-system,&quot;SF Pro Display&quot;,&quot;SF Pro Text&quot;,Helvetica,sans-serif;text-anchor:middle;" transform="matrix(1 0 0 1 2339.98 322)">Bold</text>
  <text style="stroke:none;fill:black;font-family:-apple-system,&quot;SF Pro Display&quot;,&quot;SF Pro Text&quot;,Helvetica,sans-serif;text-anchor:middle;" transform="matrix(1 0 0 1 2636.69 322)">Heavy</text>
  <text style="stroke:none;fill:black;font-family:-apple-system,&quot;SF Pro Display&quot;,&quot;SF Pro Text&quot;,Helvetica,sans-serif;text-anchor:middle;" transform="matrix(1 0 0 1 2933.4 322)">Black</text>
  <line id="" style="fill:none;stroke:black;opacity:1;stroke-width:0.5;" x1="263" x2="3036" y1="1903" y2="1903"/>
  <g id="" transform="matrix(1 0 0 1 263 1933)">
   <path d="M 9.24805 0.830078 C 13.5547 0.830078 17.1387 -2.74414 17.1387 -7.05078 C 17.1387 -11.3574 13.5449 -14.9316 9.23828 -14.9316 C 4.94141 -14.9316 1.36719 -11.3574 1.36719 -7.05078 C 1.36719 -2.74414 4.95117 0.830078 9.24805 0.830078 Z M 9.24805 -0.654297 C 5.70312 -0.654297 2.87109 -3.49609 2.87109 -7.05078 C 2.87109 -10.6055 5.69336 -13.4473 9.23828 -13.4473 C 12.793 -13.4473 15.6348 -10.6055 15.6445 -7.05078 C 15.6543 -3.49609 12.8027 -0.654297 9.24805 -0.654297 Z M 9.22852 -3.62305 C 9.69727 -3.62305 9.9707 -3.93555 9.9707 -4.45312 L 9.9707 -6.31836 L 12.002 -6.31836 C 12.5 -6.31836 12.832 -6.57227 12.832 -7.04102 C 12.832 -7.51953 12.5195 -7.7832 12.002 -7.7832 L 9.9707 -7.7832 L 9.9707 -9.81445 C 9.9707 -10.332 9.69727 -10.6543 9.22852 -10.6543 C 8.75977 -10.6543 8.50586 -10.3125 8.50586 -9.81445 L 8.50586 -7.7832 L 6.49414 -7.7832 C 5.97656 -7.7832 5.64453 -7.51953 5.64453 -7.04102 C 5.64453 -6.57227 5.99609 -6.31836 6.49414 -6.31836 L 8.50586 -6.31836 L 8.50586 -4.45312 C 8.50586 -3.95508 8.75977 -3.62305 9.22852 -3.62305 Z"/>
  </g>
  <g id="" transform="matrix(1 0 0 1 281.506 1933)">
   <path d="M 11.709 2.91016 C 17.1582 2.91016 21.6699 -1.61133 21.6699 -7.05078 C 21.6699 -12.5 17.1484 -17.0117 11.6992 -17.0117 C 6.25977 -17.0117 1.74805 -12.5 1.74805 -7.05078 C 1.74805 -1.61133 6.26953 2.91016 11.709 2.91016 Z M 11.709 1.25 C 7.09961 1.25 3.41797 -2.44141 3.41797 -7.05078 C 3.41797 -11.6602 7.08984 -15.3516 11.6992 -15.3516 C 16.3086 -15.3516 20 -11.6602 20.0098 -7.05078 C 20.0195 -2.44141 16.3184 1.25 11.709 1.25 Z M 11.6797 -2.66602 C 12.207 -2.66602 12.5098 -3.01758 12.5098 -3.59375 L 12.5098 -6.23047 L 15.3223 -6.23047 C 15.8691 -6.23047 16.25 -6.51367 16.25 -7.03125 C 16.25 -7.55859 15.8887 -7.86133 15.3223 -7.86133 L 12.5098 -7.86133 L 12.5098 -10.6836 C 12.5098 -11.25 12.207 -11.6113 11.6797 -11.6113 C 11.1621 -11.6113 10.8789 -11.2305 10.8789 -10.6836 L 10.8789 -7.86133 L 8.07617 -7.86133 C 7.50977 -7.86133 7.13867 -7.55859 7.13867 -7.03125 C 7.13867 -6.51367 7.5293 -6.23047 8.07617 -6.23047 L 10.8789 -6.23047 L 10.8789 -3.59375 C 10.8789 -3.03711 11.1621 -2.66602 11.6797 -2.66602 Z"/>
  </g>
  <g id="" transform="matrix(1 0 0 1 304.924 1933)">
   <path d="M 14.9707 5.66406 C 21.9336 5.66406 27.6953 -0.0976562 27.6953 -7.05078 C 27.6953 -14.0137 21.9238 -19.7754 14.9609 -19.7754 C 8.00781 -19.7754 2.25586 -14.0137 2.25586 -7.05078 C 2.25586 -0.0976562 8.01758 5.66406 14.9707 5.66406 Z M 14.9707 3.84766 C 8.93555 3.84766 4.08203 -1.01562 4.08203 -7.05078 C 4.08203 -13.0957 8.92578 -17.9492 14.9609 -17.9492 C 21.0059 -17.9492 25.8594 -13.0957 25.8691 -7.05078 C 25.8789 -1.01562 21.0156 3.84766 14.9707 3.84766 Z M 14.9414 -1.38672 C 15.5176 -1.38672 15.8594 -1.77734 15.8594 -2.38281 L 15.8594 -6.13281 L 19.7754 -6.13281 C 20.3711 -6.13281 20.7812 -6.46484 20.7812 -7.02148 C 20.7812 -7.59766 20.3906 -7.93945 19.7754 -7.93945 L 15.8594 -7.93945 L 15.8594 -11.8652 C 15.8594 -12.4805 15.5176 -12.8711 14.9414 -12.8711 C 14.375 -12.8711 14.0527 -12.4609 14.0527 -11.8652 L 14.0527 -7.93945 L 10.1465 -7.93945 C 9.53125 -7.93945 9.13086 -7.59766 9.13086 -7.02148 C 9.13086 -6.46484 9.55078 -6.13281 10.1465 -6.13281 L 14.0527 -6.13281 L 14.0527 -2.38281 C 14.0527 -1.79688 14.375 -1.38672 14.9414 -1.38672 Z"/>
  </g>
  <text style="stroke:none;fill:black;font-family:-apple-system,&quot;SF Pro Display&quot;,&quot;SF Pro Text&quot;,Helvetica,sans-serif;font-weight:bold;" transform="matrix(1 0 0 1 263 1953)">Design Variations</text>
  <text style="stroke:none;fill:black;font-family:-apple-system,&quot;SF Pro Display&quot;,&quot;SF Pro Text&quot;,Helvetica,sans-serif;" transform="matrix(1 0 0 1 263 1971)">Symbols are supported in up to nine weights and three scales.</text>
  <text style="stroke:none;fill:black;font-family:-apple-system,&quot;SF Pro Display&quot;,&quot;SF Pro Text&quot;,Helvetica,sans-serif;" transform="matrix(1 0 0 1 263 1989)">For optimal layout with text and other symbols, vertically align</text>
  <text style="stroke:none;fill:black;font-family:-apple-system,&quot;SF Pro Display&quot;,&quot;SF Pro Text&quot;,Helvetica,sans-serif;" transform="matrix(1 0 0 1 263 2007)">symbols with the adjacent text.</text>
  <line id="" style="fill:none;stroke:#00AEEF;stroke-width:0.5;opacity:1.0;" x1="776" x2="776" y1="1919" y2="1933"/>
  <g id="" transform="matrix(1 0 0 1 776 1933)">
   <path d="M 3.31055 0.126953 C 3.82812 0.126953 4.08203 -0.0683594 4.26758 -0.605469 L 5.52734 -4.0625 L 11.2891 -4.0625 L 12.5488 -0.605469 C 12.7344 -0.0683594 12.9883 0.126953 13.4961 0.126953 C 14.0137 0.126953 14.3457 -0.185547 14.3457 -0.673828 C 14.3457 -0.839844 14.3164 -0.986328 14.2383 -1.20117 L 9.6582 -13.3887 C 9.43359 -13.9941 9.0332 -14.2871 8.4082 -14.2871 C 7.80273 -14.2871 7.39258 -13.9941 7.17773 -13.3984 L 2.59766 -1.19141 C 2.51953 -0.976562 2.49023 -0.830078 2.49023 -0.664062 C 2.49023 -0.175781 2.80273 0.126953 3.31055 0.126953 Z M 6.00586 -5.53711 L 8.37891 -12.1094 L 8.42773 -12.1094 L 10.8008 -5.53711 Z"/>
  </g>
  <line id="" style="fill:none;stroke:#00AEEF;stroke-width:0.5;opacity:1.0;" x1="792.836" x2="792.836" y1="1919" y2="1933"/>
  <text style="stroke:none;fill:black;font-family:-apple-system,&quot;SF Pro Display&quot;,&quot;SF Pro Text&quot;,Helvetica,sans-serif;font-weight:bold;" transform="matrix(1 0 0 1 776 1953)">Margins</text>
  <text style="stroke:none;fill:black;font-family:-apple-system,&quot;SF Pro Display&quot;,&quot;SF Pro Text&quot;,Helvetica,sans-serif;" transform="matrix(1 0 0 1 776 1971)">Leading and trailing margins on the left and right side of each symbol</text>
  <text style="stroke:none;fill:black;font-family:-apple-system,&quot;SF Pro Display&quot;,&quot;SF Pro Text&quot;,Helvetica,sans-serif;" transform="matrix(1 0 0 1 776 1989)">can be adjusted by modifying the x-location of the margin guidelines.</text>
  <text style="stroke:none;fill:black;font-family:-apple-system,&quot;SF Pro Display&quot;,&quot;SF Pro Text&quot;,Helvetica,sans-serif;" transform="matrix(1 0 0 1 776 2007)">Modifications are automatically applied proportionally to all</text>
  <text style="stroke:none;fill:black;font-family:-apple-system,&quot;SF Pro Display&quot;,&quot;SF Pro Text&quot;,Helvetica,sans-serif;" transform="matrix(1 0 0 1 776 2025)">scales and weights.</text>
  <g id="" transform="matrix(1 0 0 1 1289 1933)">
   <path d="M 2.8418 1.86523 L 4.54102 3.57422 C 5.40039 4.44336 6.38672 4.38477 7.31445 3.35938 L 17.4902 -7.85156 C 17.7539 -7.76367 18.0273 -7.7832 18.3398 -7.8418 L 19.4043 -8.03711 L 20.0684 -7.36328 L 20.0293 -6.80664 C 19.9902 -6.30859 20.1172 -5.92773 20.6055 -5.44922 L 21.3672 -4.70703 C 21.8457 -4.22852 22.4609 -4.19922 22.9297 -4.66797 L 25.8398 -7.58789 C 26.3086 -8.05664 26.2891 -8.65234 25.8105 -9.13086 L 25.0391 -9.89258 C 24.5605 -10.3711 24.1895 -10.5273 23.7109 -10.4883 L 23.1348 -10.4395 L 22.4902 -11.0742 L 22.7344 -12.1973 C 22.8613 -12.7637 22.7051 -13.2031 22.1191 -13.7891 L 19.9219 -15.9766 C 16.582 -19.2969 12.1484 -19.2188 9.25781 -16.3281 C 8.83789 -15.918 8.80859 -15.3418 9.04297 -14.9512 C 9.27734 -14.5898 9.73633 -14.3555 10.3809 -14.5215 C 11.8457 -14.8633 13.3691 -14.9219 14.7949 -13.9844 L 14.209 -12.5293 C 14.0137 -12.0508 13.9844 -11.6504 14.1113 -11.2891 L 3.04688 -0.898438 C 2.06055 0.0195312 1.98242 0.996094 2.8418 1.86523 Z M 10.752 -15.957 C 13.1836 -17.7344 16.4746 -17.4316 18.7012 -15.2051 L 21.1328 -12.793 C 21.3672 -12.5586 21.4062 -12.373 21.3379 -12.0312 L 21.0156 -10.5469 L 22.5195 -9.0625 L 23.5059 -9.12109 C 23.7598 -9.13086 23.8379 -9.11133 24.0332 -8.91602 L 24.6094 -8.33984 L 22.168 -5.89844 L 21.5918 -6.47461 C 21.3965 -6.66992 21.3672 -6.74805 21.377 -7.01172 L 21.4453 -7.98828 L 19.9512 -9.47266 L 18.4277 -9.21875 C 18.1055 -9.15039 17.959 -9.17969 17.7148 -9.41406 L 15.7129 -11.416 C 15.459 -11.6504 15.4297 -11.8164 15.5859 -12.1875 L 16.4648 -14.2773 C 14.9023 -15.7324 12.8711 -16.3574 10.8398 -15.7617 C 10.6836 -15.7227 10.625 -15.8496 10.752 -15.957 Z M 5.27344 2.30469 L 4.10156 1.14258 C 3.63281 0.683594 3.74023 0.341797 4.14062 -0.0195312 L 14.9512 -10.1953 L 16.416 -8.71094 L 6.42578 2.27539 C 6.07422 2.67578 5.74219 2.77344 5.27344 2.30469 Z"/>
  </g>
  <text style="stroke:none;fill:black;font-family:-apple-system,&quot;SF Pro Display&quot;,&quot;SF Pro Text&quot;,Helvetica,sans-serif;font-weight:bold;" transform="matrix(1 0 0 1 1289 1953)">Exporting</text>
  <text style="stroke:none;fill:black;font-family:-apple-system,&quot;SF Pro Display&quot;,&quot;SF Pro Text&quot;,Helvetica,sans-serif;" transform="matrix(1 0 0 1 1289 1971)">Symbols should be outlined when exporting to ensure the</text>
  <text style="stroke:none;fill:black;font-family:-apple-system,&quot;SF Pro Display&quot;,&quot;SF Pro Text&quot;,Helvetica,sans-serif;" transform="matrix(1 0 0 1 1289 1989)">design is preserved when submitting to Xcode.</text>
  <text id="template-version" style="stroke:none;fill:black;font-family:-apple-system,&quot;SF Pro Display&quot;,&quot;SF Pro Text&quot;,Helvetica,sans-serif;text-anchor:end;" transform="matrix(1 0 0 1 3036 1933)">Template v.2.0</text>
  <text style="stroke:none;fill:black;font-family:-apple-system,&quot;SF Pro Display&quot;,&quot;SF Pro Text&quot;,Helvetica,sans-serif;text-anchor:end;" transform="matrix(1 0 0 1 3036 1951)">Requires Xcode 12 or greater</text>
  <text style="stroke:none;fill:black;font-family:-apple-system,&quot;SF Pro Display&quot;,&quot;SF Pro Text&quot;,Helvetica,sans-serif;text-anchor:end;" transform="matrix(1 0 0 1 3036 1969)">Generated from plus.bubble</text>
  <text style="stroke:none;fill:black;font-family:-apple-system,&quot;SF Pro Display&quot;,&quot;SF Pro Text&quot;,Helvetica,sans-serif;text-anchor:end;" transform="matrix(1 0 0 1 3036 1987)">Typeset at 100 points</text>
  <text style="stroke:none;fill:black;font-family:-apple-system,&quot;SF Pro Display&quot;,&quot;SF Pro Text&quot;,Helvetica,sans-serif;" transform="matrix(1 0 0 1 263 726)">Small</text>
  <text style="stroke:none;fill:black;font-family:-apple-system,&quot;SF Pro Display&quot;,&quot;SF Pro Text&quot;,Helvetica,sans-serif;" transform="matrix(1 0 0 1 263 1156)">Medium</text>
  <text style="stroke:none;fill:black;font-family:-apple-system,&quot;SF Pro Display&quot;,&quot;SF Pro Text&quot;,Helvetica,sans-serif;" transform="matrix(1 0 0 1 263 1586)">Large</text>
 </g>
 <g id="Guides">
  <g id="H-reference" style="fill:#27AAE1;stroke:none;" transform="matrix(1 0 0 1 339 696)">
   <path d="M 0.976562 0 L 3.66211 0 L 12.9883 -24.4629 L 45.7031 -24.4629 L 55.0781 0 L 57.7148 0 L 30.6152 -70.459 L 28.125 -70.459 Z M 29.2969 -67.1387 L 29.3945 -67.1387 L 44.873 -26.709 L 13.8672 -26.709 Z"/>
  </g>
  <line id="Baseline-S" style="fill:none;stroke:#27AAE1;opacity:1;stroke-width:0.5;" x1="263" x2="3036" y1="696" y2="696"/>
  <line id="Capline-S" style="fill:none;stroke:#27AAE1;opacity:1;stroke-width:0.5;" x1="263" x2="3036" y1="625.541" y2="625.541"/>
  <g id="H-reference" style="fill:#27AAE1;stroke:none;" transform="matrix(1 0 0 1 339 1126)">
   <path d="M 0.976562 0 L 3.66211 0 L 12.9883 -24.4629 L 45.7031 -24.4629 L 55.0781 0 L 57.7148 0 L 30.6152 -70.459 L 28.125 -70.459 Z M 29.2969 -67.1387 L 29.3945 -67.1387 L 44.873 -26.709 L 13.8672 -26.709 Z"/>
  </g>
  <line id="Baseline-M" style="fill:none;stroke:#27AAE1;opacity:1;stroke-width:0.5;" x1="263" x2="3036" y1="1126" y2="1126"/>
  <line id="Capline-M" style="fill:none;stroke:#27AAE1;opacity:1;stroke-width:0.5;" x1="263" x2="3036" y1="1055.54" y2="1055.54"/>
  <g id="H-reference" style="fill:#27AAE1;stroke:none;" transform="matrix(1 0 0 1 339 1556)">
   <path d="M 0.976562 0 L 3.66211 0 L 12.9883 -24.4629 L 45.7031 -24.4629 L 55.0781 0 L 57.7148 0 L 30.6152 -70.459 L 28.125 -70.459 Z M 29.2969 -67.1387 L 29.3945 -67.1387 L 44.873 -26.709 L 13.8672 -26.709 Z"/>
  </g>
  <line id="Baseline-L" style="fill:none;stroke:#27AAE1;opacity:1;stroke-width:0.5;" x1="263" x2="3036" y1="1556" y2="1556"/>
  <line id="Capline-L" style="fill:none;stroke:#27AAE1;opacity:1;stroke-width:0.5;" x1="263" x2="3036" y1="1485.54" y2="1485.54"/>
  <line id="left-margin" style="fill:none;stroke:#00AEEF;stroke-width:0.5;opacity:1.0;" x1="1383.58" x2="1383.58" y1="1030.79" y2="1150.12"/>
  <line id="right-margin" style="fill:none;stroke:#00AEEF;stroke-width:0.5;opacity:1.0;" x1="1516.1" x2="1516.1" y1="1030.79" y2="1150.12"/>
 </g>
 <g id="Symbols">
  <g id="Black-L" transform="matrix(1 0 0 1 2846.24 1556)">
   <path d="M 59.7168 38.5742 C 64.8438 38.5742 69.0918 36.5234 75.3418 31.1035 L 96.2891 12.8418 L 125.83 12.8418 C 145.703 12.8418 158.252 0.195312 158.252 -19.5801 L 158.252 -70.1172 C 158.252 -89.8926 145.703 -102.539 125.83 -102.539 L 48.4863 -102.539 C 28.6133 -102.539 16.0645 -89.8926 16.0645 -70.1172 L 16.0645 -19.5801 C 16.0645 0.195312 29.7852 12.8418 46.7285 12.8418 L 47.7051 12.8418 L 47.7051 25.3906 C 47.7051 33.5938 52.2949 38.5742 59.7168 38.5742 Z M 64.5508 16.2598 L 64.5508 -0.732422 C 64.5508 -5.56641 62.0117 -7.37305 57.8613 -7.37305 L 50 -7.37305 C 40.8203 -7.37305 36.3281 -11.8652 36.3281 -21.0938 L 36.3281 -68.6035 C 36.3281 -77.832 40.8203 -82.2754 50 -82.2754 L 124.316 -82.2754 C 133.496 -82.2754 138.037 -77.832 138.037 -68.6035 L 138.037 -21.0938 C 138.037 -11.8652 133.496 -7.37305 124.316 -7.37305 L 94.5801 -7.37305 C 89.5996 -7.37305 87.5488 -6.34766 83.8867 -2.7832 Z M 87.1582 -16.7969 C 91.9434 -16.7969 95.4102 -20.2148 95.4102 -25 L 95.4102 -36.5234 L 107.91 -36.5234 C 112.646 -36.5234 116.113 -39.9414 116.113 -44.7266 C 116.113 -49.5117 112.695 -52.9297 107.91 -52.9297 L 95.4102 -52.9297 L 95.4102 -64.8926 C 95.4102 -69.6289 91.9434 -73.0957 87.1582 -73.0957 C 82.4219 -73.0957 79.0039 -69.5801 79.0039 -64.8926 L 79.0039 -52.9297 L 66.5039 -52.9297 C 61.7676 -52.9297 58.3008 -49.5117 58.3008 -44.7266 C 58.3008 -39.9414 61.7676 -36.5234 66.5039 -36.5234 L 79.0039 -36.5234 L 79.0039 -25 C 79.0039 -20.2637 82.4219 -16.7969 87.1582 -16.7969 Z"/>
  </g>
  <g id="Heavy-L" transform="matrix(1 0 0 1 2550.07 1556)">
   <path d="M 58.1543 37.2559 C 62.6953 37.2559 66.4062 35.3516 71.9238 30.5176 L 93.1152 12.0117 L 125.879 12.0117 C 145.264 12.0117 157.178 -0.0488281 157.178 -19.2383 L 157.178 -69.6289 C 157.178 -88.8184 145.264 -100.879 125.879 -100.879 L 47.3145 -100.879 C 27.9785 -100.879 16.0645 -88.8672 16.0645 -69.6289 L 16.0645 -19.2383 C 16.0645 0 28.8574 12.0117 45.9961 12.0117 L 47.5586 12.0117 L 47.5586 25.5371 C 47.5586 32.8125 51.6113 37.2559 58.1543 37.2559 Z M 62.3535 17.8711 L 62.3535 0.585938 C 62.3535 -3.80859 60.2051 -5.46875 56.2988 -5.46875 L 48.4863 -5.46875 C 38.5254 -5.46875 33.5938 -10.498 33.5938 -20.4102 L 33.5938 -68.4082 C 33.5938 -78.3691 38.5254 -83.3496 48.4863 -83.3496 L 124.707 -83.3496 C 134.668 -83.3496 139.648 -78.3691 139.648 -68.4082 L 139.648 -20.4102 C 139.648 -10.498 134.668 -5.46875 124.707 -5.46875 L 91.7969 -5.46875 C 87.2559 -5.46875 85.3027 -4.58984 81.9824 -1.31836 Z M 86.6211 -16.3086 C 90.918 -16.3086 93.9941 -19.3848 93.9941 -23.7793 L 93.9941 -37.0117 L 108.154 -37.0117 C 112.451 -37.0117 115.625 -39.9902 115.625 -44.2871 C 115.625 -48.6328 112.549 -51.6602 108.154 -51.6602 L 93.9941 -51.6602 L 93.9941 -65.4297 C 93.9941 -69.7754 90.918 -72.9004 86.6211 -72.9004 C 82.2754 -72.9004 79.2969 -69.7266 79.2969 -65.4297 L 79.2969 -51.6602 L 65.1855 -51.6602 C 60.791 -51.6602 57.666 -48.6328 57.666 -44.2871 C 57.666 -39.9902 60.8398 -37.0117 65.1855 -37.0117 L 79.2969 -37.0117 L 79.2969 -23.7793 C 79.2969 -19.4824 82.2754 -16.3086 86.6211 -16.3086 Z"/>
  </g>
  <g id="Bold-L" transform="matrix(1 0 0 1 2253.97 1556)">
   <path d="M 56.4453 35.791 C 60.3516 35.791 63.3789 34.0332 68.1152 29.9316 L 89.5996 11.084 L 125.977 11.084 C 144.727 11.084 155.957 -0.292969 155.957 -18.8965 L 155.957 -69.043 C 155.957 -87.6465 144.727 -99.0234 125.977 -99.0234 L 46.0449 -99.0234 C 27.2461 -99.0234 16.0645 -87.6953 16.0645 -69.043 L 16.0645 -18.8965 C 16.0645 -0.244141 27.832 11.084 45.166 11.084 L 47.4609 11.084 L 47.4609 25.7324 C 47.4609 31.9336 50.8301 35.791 56.4453 35.791 Z M 59.9609 19.6777 L 59.9609 2.00195 C 59.9609 -1.9043 58.1055 -3.36914 54.5898 -3.36914 L 46.8262 -3.36914 C 35.9375 -3.36914 30.5176 -8.93555 30.5176 -19.6777 L 30.5176 -68.2617 C 30.5176 -78.9551 35.9375 -84.5703 46.8262 -84.5703 L 125.195 -84.5703 C 135.986 -84.5703 141.504 -78.9551 141.504 -68.2617 L 141.504 -19.6777 C 141.504 -8.93555 135.986 -3.36914 125.195 -3.36914 L 88.6719 -3.36914 C 84.6191 -3.36914 82.8125 -2.58789 79.8828 0.292969 Z M 85.9863 -15.7715 C 89.7949 -15.7715 92.3828 -18.5059 92.3828 -22.4121 L 92.3828 -37.5488 L 108.398 -37.5488 C 112.256 -37.5488 115.039 -40.0391 115.039 -43.8477 C 115.039 -47.7051 112.354 -50.2441 108.398 -50.2441 L 92.3828 -50.2441 L 92.3828 -66.0156 C 92.3828 -69.9707 89.7949 -72.6562 85.9863 -72.6562 C 82.1777 -72.6562 79.6875 -69.873 79.6875 -66.0156 L 79.6875 -50.2441 L 63.6719 -50.2441 C 59.7168 -50.2441 56.9824 -47.7051 56.9824 -43.8477 C 56.9824 -40.0391 59.8145 -37.5488 63.6719 -37.5488 L 79.6875 -37.5488 L 79.6875 -22.4121 C 79.6875 -18.5547 82.1777 -15.7715 85.9863 -15.7715 Z"/>
  </g>
  <g id="Semibold-L" transform="matrix(1 0 0 1 1957.7 1556)">
   <path d="M 55.2734 34.7656 C 58.6914 34.7656 61.3281 33.1055 65.4785 29.4922 L 87.1582 10.4492 L 126.025 10.4492 C 144.385 10.4492 155.078 -0.439453 155.078 -18.6035 L 155.078 -68.6523 C 155.078 -86.8164 144.385 -97.7539 126.025 -97.7539 L 45.166 -97.7539 C 26.7578 -97.7539 16.0645 -86.8652 16.0645 -68.6523 L 16.0645 -18.6035 C 16.0645 -0.390625 27.1484 10.4492 44.5801 10.4492 L 47.3633 10.4492 L 47.3633 25.8789 C 47.3633 31.3477 50.3418 34.7656 55.2734 34.7656 Z M 58.252 20.9473 L 58.252 3.02734 C 58.252 -0.537109 56.6895 -1.9043 53.3691 -1.9043 L 45.6543 -1.9043 C 34.1797 -1.9043 28.418 -7.91016 28.418 -19.1406 L 28.418 -68.1152 C 28.418 -79.3945 34.1797 -85.4004 45.6543 -85.4004 L 125.488 -85.4004 C 136.914 -85.4004 142.773 -79.3945 142.773 -68.1152 L 142.773 -19.1406 C 142.773 -7.91016 136.914 -1.9043 125.488 -1.9043 L 86.5234 -1.9043 C 82.8125 -1.9043 81.0547 -1.2207 78.418 1.41602 Z M 85.5469 -15.4297 C 89.0137 -15.4297 91.2598 -17.8711 91.2598 -21.4844 L 91.2598 -37.8906 L 108.594 -37.8906 C 112.109 -37.8906 114.648 -40.0879 114.648 -43.5059 C 114.648 -47.0215 112.207 -49.2676 108.594 -49.2676 L 91.2598 -49.2676 L 91.2598 -66.4551 C 91.2598 -70.0684 89.0137 -72.5098 85.5469 -72.5098 C 82.0801 -72.5098 79.8828 -70.0195 79.8828 -66.4551 L 79.8828 -49.2676 L 62.5977 -49.2676 C 58.9844 -49.2676 56.4941 -47.0215 56.4941 -43.5059 C 56.4941 -40.0879 59.082 -37.8906 62.5977 -37.8906 L 79.8828 -37.8906 L 79.8828 -21.4844 C 79.8828 -17.9199 82.0801 -15.4297 85.5469 -15.4297 Z"/>
  </g>
  <g id="Medium-L" transform="matrix(1 0 0 1 1661.3 1556)">
   <path d="M 54.3457 33.9844 C 57.4707 33.9844 59.7656 32.4219 63.4766 29.1504 L 85.3027 9.96094 L 126.025 9.96094 C 144.092 9.96094 154.443 -0.585938 154.443 -18.457 L 154.443 -68.3594 C 154.443 -86.2305 144.092 -96.7773 126.025 -96.7773 L 44.4824 -96.7773 C 26.3672 -96.7773 16.0645 -86.2793 16.0645 -68.3594 L 16.0645 -18.457 C 16.0645 -0.537109 26.6113 9.96094 44.1406 9.96094 L 47.3145 9.96094 L 47.3145 25.9766 C 47.3145 30.9082 49.9512 33.9844 54.3457 33.9844 Z M 56.9824 21.9238 L 56.9824 3.75977 C 56.9824 0.488281 55.6152 -0.78125 52.4414 -0.78125 L 44.7754 -0.78125 C 32.8125 -0.78125 26.8066 -7.08008 26.8066 -18.75 L 26.8066 -68.0176 C 26.8066 -79.6875 32.8125 -86.0352 44.7754 -86.0352 L 125.732 -86.0352 C 137.598 -86.0352 143.701 -79.6875 143.701 -68.0176 L 143.701 -18.75 C 143.701 -7.08008 137.598 -0.78125 125.732 -0.78125 L 84.8633 -0.78125 C 81.4453 -0.78125 79.7363 -0.195312 77.2949 2.24609 Z M 85.2051 -15.1367 C 88.4277 -15.1367 90.4297 -17.3828 90.4297 -20.752 L 90.4297 -38.1836 L 108.74 -38.1836 C 112.012 -38.1836 114.355 -40.1367 114.355 -43.2617 C 114.355 -46.5332 112.158 -48.5352 108.74 -48.5352 L 90.4297 -48.5352 L 90.4297 -66.7969 C 90.4297 -70.166 88.4277 -72.4121 85.2051 -72.4121 C 82.0312 -72.4121 80.0781 -70.0684 80.0781 -66.7969 L 80.0781 -48.5352 L 61.8164 -48.5352 C 58.3984 -48.5352 56.1523 -46.5332 56.1523 -43.2617 C 56.1523 -40.1367 58.5449 -38.1836 61.8164 -38.1836 L 80.0781 -38.1836 L 80.0781 -20.752 C 80.0781 -17.4805 82.0312 -15.1367 85.2051 -15.1367 Z"/>
  </g>
  <g id="Regular-L" transform="matrix(1 0 0 1 1365.01 1556)">
   <path d="M 53.1738 32.959 C 55.8594 32.959 57.7148 31.543 60.8887 28.7109 L 82.9102 9.32617 L 126.074 9.32617 C 143.75 9.32617 153.613 -0.78125 153.613 -18.1641 L 153.613 -67.9688 C 153.613 -85.4004 143.75 -95.5078 126.074 -95.5078 L 43.6035 -95.5078 C 25.8789 -95.5078 16.0645 -85.4492 16.0645 -67.9688 L 16.0645 -18.1641 C 16.0645 -0.683594 25.8789 9.32617 43.6035 9.32617 L 47.2656 9.32617 L 47.2656 26.123 C 47.2656 30.2734 49.4141 32.959 53.1738 32.959 Z M 55.3223 23.1445 L 55.3223 4.78516 C 55.3223 1.80664 54.1992 0.683594 51.2695 0.683594 L 43.6523 0.683594 C 31.0547 0.683594 24.707 -6.05469 24.707 -18.2617 L 24.707 -67.9199 C 24.707 -80.127 31.0547 -86.8652 43.6523 -86.8652 L 126.025 -86.8652 C 138.477 -86.8652 144.971 -80.127 144.971 -67.9199 L 144.971 -18.2617 C 144.971 -6.05469 138.477 0.683594 126.025 0.683594 L 82.7148 0.683594 C 79.6387 0.683594 78.0273 1.17188 75.8789 3.36914 Z M 84.7656 -14.7949 C 87.6465 -14.7949 89.3555 -16.748 89.3555 -19.8242 L 89.3555 -38.5254 L 108.936 -38.5254 C 111.914 -38.5254 113.965 -40.1855 113.965 -42.9688 C 113.965 -45.8496 112.012 -47.5586 108.936 -47.5586 L 89.3555 -47.5586 L 89.3555 -67.1875 C 89.3555 -70.2637 87.6465 -72.2656 84.7656 -72.2656 C 81.9336 -72.2656 80.3223 -70.166 80.3223 -67.1875 L 80.3223 -47.5586 L 60.791 -47.5586 C 57.7148 -47.5586 55.6641 -45.8496 55.6641 -42.9688 C 55.6641 -40.1855 57.8125 -38.5254 60.791 -38.5254 L 80.3223 -38.5254 L 80.3223 -19.8242 C 80.3223 -16.8457 81.9336 -14.7949 84.7656 -14.7949 Z"/>
  </g>
  <g id="Light-L" transform="matrix(1 0 0 1 1069.2 1556)">
   <path d="M 50.9277 31.5918 C 52.9785 31.5918 54.4922 30.4688 56.7871 28.418 L 79.1504 8.98438 L 126.074 8.98438 C 142.334 8.98438 151.807 -0.683594 151.807 -16.6992 L 151.807 -68.6035 C 151.807 -84.6191 142.334 -94.2871 126.074 -94.2871 L 41.7969 -94.2871 C 25.5371 -94.2871 16.0645 -84.7168 16.0645 -68.6035 L 16.0645 -16.6992 C 16.0645 -0.585938 25.5371 8.98438 41.7969 8.98438 L 46.3379 8.98438 L 46.3379 26.3184 C 46.3379 29.541 48.0957 31.5918 50.9277 31.5918 Z M 52.5391 24.1211 L 52.5391 5.51758 C 52.5391 3.27148 51.6602 2.34375 49.3652 2.34375 L 41.8945 2.34375 C 29.541 2.34375 22.7051 -4.73633 22.7051 -16.8457 L 22.7051 -68.5059 C 22.7051 -80.5664 29.541 -87.6953 41.8945 -87.6953 L 125.977 -87.6953 C 138.135 -87.6953 145.166 -80.5664 145.166 -68.5059 L 145.166 -16.8457 C 145.166 -4.73633 138.135 2.34375 125.977 2.34375 L 79.3457 2.34375 C 76.8066 2.34375 75.4883 2.7832 73.584 4.63867 Z M 83.8379 -14.3066 C 86.0352 -14.3066 87.4023 -15.8203 87.4023 -18.0664 L 87.4023 -39.1602 L 108.984 -39.1602 C 111.182 -39.1602 112.744 -40.4785 112.744 -42.5293 C 112.744 -44.6777 111.279 -46.0449 108.984 -46.0449 L 87.4023 -46.0449 L 87.4023 -67.6758 C 87.4023 -69.9707 86.0352 -71.4844 83.8379 -71.4844 C 81.7871 -71.4844 80.4688 -69.9219 80.4688 -67.6758 L 80.4688 -46.0449 L 58.9355 -46.0449 C 56.6406 -46.0449 55.0781 -44.6777 55.0781 -42.5293 C 55.0781 -40.4785 56.7383 -39.1602 58.9355 -39.1602 L 80.4688 -39.1602 L 80.4688 -18.0664 C 80.4688 -15.8691 81.7871 -14.3066 83.8379 -14.3066 Z"/>
  </g>
  <g id="Thin-L" transform="matrix(1 0 0 1 773.683 1556)">
   <path d="M 47.9492 29.7852 C 49.2188 29.7852 50.2441 29.0527 51.416 28.0273 L 74.2188 8.54492 L 126.074 8.54492 C 140.43 8.54492 149.414 -0.634766 149.414 -14.7949 L 149.414 -69.3848 C 149.414 -83.5449 140.43 -92.7246 126.074 -92.7246 L 39.3555 -92.7246 C 25.0488 -92.7246 16.0645 -83.6914 16.0645 -69.3848 L 16.0645 -14.7949 C 16.0645 -0.488281 25.0488 8.54492 39.3555 8.54492 L 45.1172 8.54492 L 45.1172 26.5137 C 45.1172 28.5156 46.2891 29.7852 47.9492 29.7852 Z M 48.8281 25.4395 L 48.8281 6.54297 C 48.8281 5.17578 48.2422 4.58984 46.875 4.58984 L 39.502 4.58984 C 27.5391 4.58984 19.9707 -2.97852 19.9707 -14.9414 L 19.9707 -69.2383 C 19.9707 -81.2012 27.5391 -88.7695 39.502 -88.7695 L 125.928 -88.7695 C 137.646 -88.7695 145.459 -81.2012 145.459 -69.2383 L 145.459 -14.9414 C 145.459 -2.97852 137.646 4.58984 125.928 4.58984 L 74.8535 4.58984 C 73.0469 4.58984 72.1191 4.93164 70.6055 6.34766 Z M 82.666 -13.7207 C 83.9355 -13.7207 84.8145 -14.5996 84.8145 -15.7715 L 84.8145 -39.9414 L 109.033 -39.9414 C 110.205 -39.9414 111.182 -40.8691 111.182 -41.9434 C 111.182 -43.1641 110.303 -44.0918 109.033 -44.0918 L 84.8145 -44.0918 L 84.8145 -68.3105 C 84.8145 -69.5801 83.9355 -70.459 82.666 -70.459 C 81.543 -70.459 80.7129 -69.5312 80.7129 -68.3105 L 80.7129 -44.0918 L 56.4453 -44.0918 C 55.2246 -44.0918 54.3457 -43.1641 54.3457 -41.9434 C 54.3457 -40.8691 55.3223 -39.9414 56.4453 -39.9414 L 80.7129 -39.9414 L 80.7129 -15.7715 C 80.7129 -14.5996 81.543 -13.7207 82.666 -13.7207 Z"/>
  </g>
  <g id="Ultralight-L" transform="matrix(1 0 0 1 477.607 1556)">
   <path d="M 46.4355 28.8574 C 47.3145 28.8574 48.0469 28.3203 48.6816 27.832 L 71.6797 8.30078 L 126.074 8.30078 C 139.453 8.30078 148.145 -0.585938 148.145 -13.8184 L 148.145 -69.8242 C 148.145 -83.0078 139.453 -91.8945 126.074 -91.8945 L 38.1348 -91.8945 C 24.8047 -91.8945 16.0645 -83.2031 16.0645 -69.8242 L 16.0645 -13.8184 C 16.0645 -0.439453 24.8047 8.30078 38.1348 8.30078 L 44.4824 8.30078 L 44.4824 26.6113 C 44.4824 28.0273 45.3613 28.8574 46.4355 28.8574 Z M 46.9238 26.0742 L 46.9238 7.03125 C 46.9238 6.15234 46.4844 5.71289 45.6055 5.71289 L 38.3301 5.71289 C 26.5137 5.71289 18.6035 -2.09961 18.6035 -13.9648 L 18.6035 -69.6289 C 18.6035 -81.4941 26.5137 -89.3555 38.3301 -89.3555 L 125.928 -89.3555 C 137.354 -89.3555 145.605 -81.4941 145.605 -69.6289 L 145.605 -13.9648 C 145.605 -2.09961 137.354 5.71289 125.928 5.71289 L 72.5098 5.71289 C 71.0938 5.71289 70.4102 6.05469 69.043 7.22656 Z M 82.0801 -13.4277 C 82.8613 -13.4277 83.4961 -13.9648 83.4961 -14.5996 L 83.4961 -40.3809 L 109.082 -40.3809 C 109.717 -40.3809 110.352 -41.0645 110.352 -41.6504 C 110.352 -42.3828 109.766 -43.0664 109.082 -43.0664 L 83.4961 -43.0664 L 83.4961 -68.6523 C 83.4961 -69.3359 82.8613 -69.9219 82.0801 -69.9219 C 81.3965 -69.9219 80.8105 -69.3359 80.8105 -68.6523 L 80.8105 -43.0664 L 55.2246 -43.0664 C 54.4922 -43.0664 53.9551 -42.3828 53.9551 -41.6504 C 53.9551 -41.0645 54.5898 -40.3809 55.2246 -40.3809 L 80.8105 -40.3809 L 80.8105 -14.5996 C 80.8105 -13.9648 81.3965 -13.4277 82.0801 -13.4277 Z"/>
  </g>
  <g id="Black-M" transform="matrix(1 0 0 1 2865.58 1126)">
   <path d="M 47.168 23.0469 C 51.5625 23.0469 55.4199 21.4355 60.8398 16.748 L 76.9043 2.97852 L 97.4609 2.97852 C 112.793 2.97852 123.193 -7.42188 123.193 -22.7539 L 123.193 -63.2812 C 123.193 -78.6133 112.793 -89.0137 97.4609 -89.0137 L 38.1836 -89.0137 C 22.8516 -89.0137 12.4512 -78.6133 12.4512 -63.2812 L 12.4512 -22.7539 C 12.4512 -7.42188 24.1211 2.97852 36.2793 2.97852 L 36.6211 2.97852 L 36.6211 11.5723 C 36.6211 18.75 40.7227 23.0469 47.168 23.0469 Z M 51.4648 2.97852 L 51.4648 -9.81445 C 51.4648 -13.8184 49.1699 -15.332 45.9473 -15.332 L 39.8438 -15.332 C 33.9355 -15.332 30.7617 -18.2617 30.7617 -24.4141 L 30.7617 -61.6211 C 30.7617 -67.7734 33.9355 -70.7031 39.8438 -70.7031 L 95.8008 -70.7031 C 101.66 -70.7031 104.883 -67.7734 104.883 -61.6211 L 104.883 -24.4141 C 104.883 -18.2617 101.66 -15.332 95.8008 -15.332 L 75.2441 -15.332 C 71.0938 -15.332 69.4824 -14.4043 66.3574 -11.377 Z M 67.8711 -21.3379 C 71.7773 -21.3379 74.8047 -24.2188 74.8047 -28.0273 L 74.8047 -35.9375 L 83.3008 -35.9375 C 87.1094 -35.9375 90.0391 -38.9648 90.0391 -42.8711 C 90.0391 -46.8262 87.1094 -49.8535 83.3008 -49.8535 L 74.8047 -49.8535 L 74.8047 -57.7148 C 74.8047 -61.5234 71.7773 -64.4043 67.8711 -64.4043 C 63.916 -64.4043 60.8887 -61.5234 60.8887 -57.7148 L 60.8887 -49.8535 L 52.3926 -49.8535 C 48.584 -49.8535 45.7031 -46.8262 45.7031 -42.8711 C 45.7031 -38.9648 48.584 -35.9375 52.3926 -35.9375 L 60.8887 -35.9375 L 60.8887 -28.0273 C 60.8887 -24.2188 63.916 -21.3379 67.8711 -21.3379 Z"/>
  </g>
  <g id="Heavy-M" transform="matrix(1 0 0 1 2569.23 1126)">
   <path d="M 46.0449 21.9238 C 50 21.9238 53.3203 20.4102 58.1543 16.2109 L 74.4141 2.14844 L 97.5098 2.14844 C 112.646 2.14844 122.461 -7.71484 122.461 -22.8027 L 122.461 -62.5488 C 122.461 -77.6367 112.646 -87.5 97.5098 -87.5 L 37.4023 -87.5 C 22.2656 -87.5 12.4512 -77.6367 12.4512 -62.5488 L 12.4512 -22.8027 C 12.4512 -7.71484 23.2422 2.14844 35.9375 2.14844 L 36.7188 2.14844 L 36.7188 11.7676 C 36.7188 18.1152 40.332 21.9238 46.0449 21.9238 Z M 49.8047 4.54102 L 49.8047 -8.59375 C 49.8047 -12.3047 47.8516 -13.6719 44.7266 -13.6719 L 38.6719 -13.6719 C 31.8359 -13.6719 28.2715 -17.1387 28.2715 -24.0723 L 28.2715 -61.2793 C 28.2715 -68.2129 31.8359 -71.6797 38.6719 -71.6797 L 96.2402 -71.6797 C 103.076 -71.6797 106.641 -68.2129 106.641 -61.2793 L 106.641 -24.0723 C 106.641 -17.1387 103.076 -13.6719 96.2402 -13.6719 L 73.0957 -13.6719 C 69.2871 -13.6719 67.7246 -12.8418 64.8926 -10.1074 Z M 67.4805 -20.9473 C 71.0938 -20.9473 73.7793 -23.584 73.7793 -27.1484 L 73.7793 -36.2793 L 83.5938 -36.2793 C 87.1582 -36.2793 89.7949 -38.916 89.7949 -42.5781 C 89.7949 -46.1914 87.1582 -48.877 83.5938 -48.877 L 73.7793 -48.877 L 73.7793 -58.2031 C 73.7793 -61.7676 71.0938 -64.4043 67.4805 -64.4043 C 63.8184 -64.4043 61.1816 -61.7676 61.1816 -58.2031 L 61.1816 -48.877 L 51.3672 -48.877 C 47.8027 -48.877 45.166 -46.1914 45.166 -42.5781 C 45.166 -38.916 47.8027 -36.2793 51.3672 -36.2793 L 61.1816 -36.2793 L 61.1816 -27.1484 C 61.1816 -23.584 63.8184 -20.9473 67.4805 -20.9473 Z"/>
  </g>
  <g id="Bold-M" transform="matrix(1 0 0 1 2272.94 1126)">
   <path d="M 44.8242 20.7031 C 48.2422 20.7031 50.9766 19.2871 55.1758 15.625 L 71.6309 1.2207 L 97.5586 1.2207 C 112.5 1.2207 121.631 -8.00781 121.631 -22.8027 L 121.631 -61.7676 C 121.631 -76.5625 112.5 -85.791 97.5586 -85.791 L 36.4746 -85.791 C 21.582 -85.791 12.4512 -76.6113 12.4512 -61.7676 L 12.4512 -22.8027 C 12.4512 -7.95898 22.2168 1.2207 35.5469 1.2207 L 36.8652 1.2207 L 36.8652 11.9141 C 36.8652 17.3828 39.8926 20.7031 44.8242 20.7031 Z M 47.9492 6.20117 L 47.9492 -7.22656 C 47.9492 -10.5957 46.3379 -11.8652 43.3594 -11.8652 L 37.3535 -11.8652 C 29.4434 -11.8652 25.5371 -15.8203 25.5371 -23.6328 L 25.5371 -60.9375 C 25.5371 -68.75 29.4434 -72.7539 37.3535 -72.7539 L 96.7285 -72.7539 C 104.59 -72.7539 108.545 -68.75 108.545 -60.9375 L 108.545 -23.6328 C 108.545 -15.8203 104.59 -11.8652 96.7285 -11.8652 L 70.6543 -11.8652 C 67.2363 -11.8652 65.7227 -11.1816 63.2324 -8.69141 Z M 67.041 -20.5078 C 70.3125 -20.5078 72.6074 -22.8027 72.6074 -26.123 L 72.6074 -36.6699 L 83.8379 -36.6699 C 87.1582 -36.6699 89.502 -38.916 89.502 -42.1875 C 89.502 -45.459 87.207 -47.7539 83.8379 -47.7539 L 72.6074 -47.7539 L 72.6074 -58.7402 C 72.6074 -62.0605 70.3125 -64.4043 67.041 -64.4043 C 63.7695 -64.4043 61.5234 -62.0117 61.5234 -58.7402 L 61.5234 -47.7539 L 50.293 -47.7539 C 46.9238 -47.7539 44.5801 -45.459 44.5801 -42.1875 C 44.5801 -38.916 47.0215 -36.6699 50.293 -36.6699 L 61.5234 -36.6699 L 61.5234 -26.123 C 61.5234 -22.8516 63.7695 -20.5078 67.041 -20.5078 Z"/>
  </g>
  <g id="Semibold-M" transform="matrix(1 0 0 1 1976.52 1126)">
   <path d="M 43.9941 19.873 C 47.0215 19.873 49.3652 18.5059 53.0762 15.2344 L 69.7266 0.585938 L 97.6074 0.585938 C 112.402 0.585938 121.045 -8.20312 121.045 -22.8027 L 121.045 -61.2305 C 121.045 -75.8301 112.402 -84.668 97.6074 -84.668 L 35.8887 -84.668 C 21.0938 -84.668 12.4512 -75.8789 12.4512 -61.2305 L 12.4512 -22.8027 C 12.4512 -8.1543 21.4844 0.585938 35.2539 0.585938 L 36.9629 0.585938 L 36.9629 12.0117 C 36.9629 16.8457 39.5996 19.873 43.9941 19.873 Z M 46.6797 7.42188 L 46.6797 -6.29883 C 46.6797 -9.42383 45.3125 -10.5469 42.4316 -10.5469 L 36.4258 -10.5469 C 27.7832 -10.5469 23.6328 -14.9414 23.6328 -23.3887 L 23.6328 -60.6934 C 23.6328 -69.1406 27.7832 -73.4863 36.4258 -73.4863 L 97.0703 -73.4863 C 105.664 -73.4863 109.863 -69.1406 109.863 -60.6934 L 109.863 -23.3887 C 109.863 -14.9414 105.664 -10.5469 97.0703 -10.5469 L 68.9941 -10.5469 C 65.8203 -10.5469 64.3555 -10.0098 62.0605 -7.71484 Z M 66.748 -20.166 C 69.7754 -20.166 71.7773 -22.3145 71.7773 -25.4395 L 71.7773 -36.9629 L 84.082 -36.9629 C 87.1582 -36.9629 89.3555 -38.916 89.3555 -41.9434 C 89.3555 -44.9707 87.207 -46.9727 84.082 -46.9727 L 71.7773 -46.9727 L 71.7773 -59.082 C 71.7773 -62.2559 69.7754 -64.3555 66.748 -64.3555 C 63.7207 -64.3555 61.7676 -62.1582 61.7676 -59.082 L 61.7676 -46.9727 L 49.5117 -46.9727 C 46.3379 -46.9727 44.1895 -44.9707 44.1895 -41.9434 C 44.1895 -38.916 46.4355 -36.9629 49.5117 -36.9629 L 61.7676 -36.9629 L 61.7676 -25.4395 C 61.7676 -22.3633 63.7207 -20.166 66.748 -20.166 Z"/>
  </g>
  <g id="Medium-M" transform="matrix(1 0 0 1 1680.03 1126)">
   <path d="M 43.3105 19.2383 C 46.0938 19.2383 48.1445 17.8711 51.5137 14.8926 L 68.2617 0.146484 L 97.6562 0.146484 C 112.354 0.146484 120.605 -8.34961 120.605 -22.8516 L 120.605 -60.791 C 120.605 -75.293 112.354 -83.7891 97.6562 -83.7891 L 35.4004 -83.7891 C 20.752 -83.7891 12.4512 -75.293 12.4512 -60.791 L 12.4512 -22.8516 C 12.4512 -8.30078 20.9961 0.146484 35.0586 0.146484 L 37.0605 0.146484 L 37.0605 12.1094 C 37.0605 16.4551 39.3555 19.2383 43.3105 19.2383 Z M 45.752 8.30078 L 45.752 -5.61523 C 45.752 -8.49609 44.4824 -9.61914 41.748 -9.61914 L 35.7422 -9.61914 C 26.5625 -9.61914 22.168 -14.2578 22.168 -23.1445 L 22.168 -60.498 C 22.168 -69.3848 26.5625 -74.0234 35.7422 -74.0234 L 97.3633 -74.0234 C 106.494 -74.0234 110.889 -69.3848 110.889 -60.498 L 110.889 -23.1445 C 110.889 -14.2578 106.494 -9.61914 97.3633 -9.61914 L 67.7246 -9.61914 C 64.7461 -9.61914 63.2812 -9.13086 61.2305 -6.98242 Z M 66.5039 -19.9707 C 69.3359 -19.9707 71.1426 -21.9238 71.1426 -24.9512 L 71.1426 -37.1582 L 84.2285 -37.1582 C 87.1582 -37.1582 89.209 -38.916 89.209 -41.748 C 89.209 -44.6289 87.207 -46.3867 84.2285 -46.3867 L 71.1426 -46.3867 L 71.1426 -59.375 C 71.1426 -62.4023 69.3359 -64.3555 66.5039 -64.3555 C 63.6719 -64.3555 61.9629 -62.3047 61.9629 -59.375 L 61.9629 -46.3867 L 48.9258 -46.3867 C 45.8984 -46.3867 43.8965 -44.6289 43.8965 -41.748 C 43.8965 -38.916 45.9961 -37.1582 48.9258 -37.1582 L 61.9629 -37.1582 L 61.9629 -24.9512 C 61.9629 -22.0215 63.6719 -19.9707 66.5039 -19.9707 Z"/>
  </g>
  <g id="Regular-M" transform="matrix(1 0 0 1 1383.58 1126)">
   <path d="M 42.4805 18.4082 C 44.873 18.4082 46.5332 17.1387 49.5117 14.502 L 66.3574 -0.488281 L 97.7051 -0.488281 C 112.256 -0.488281 120.068 -8.54492 120.068 -22.8516 L 120.068 -60.2539 C 120.068 -74.5605 112.256 -82.6172 97.7051 -82.6172 L 34.8145 -82.6172 C 20.2637 -82.6172 12.4512 -74.6094 12.4512 -60.2539 L 12.4512 -22.8516 C 12.4512 -8.49609 20.2637 -0.488281 34.8145 -0.488281 L 37.1582 -0.488281 L 37.1582 12.207 C 37.1582 15.9668 39.0625 18.4082 42.4805 18.4082 Z M 44.4824 9.47266 L 44.4824 -4.6875 C 44.4824 -7.32422 43.457 -8.34961 40.8203 -8.34961 L 34.8145 -8.34961 C 24.9512 -8.34961 20.3125 -13.3789 20.3125 -22.9004 L 20.3125 -60.2539 C 20.3125 -69.7754 24.9512 -74.7559 34.8145 -74.7559 L 97.7051 -74.7559 C 107.52 -74.7559 112.207 -69.7754 112.207 -60.2539 L 112.207 -22.9004 C 112.207 -13.3789 107.52 -8.34961 97.7051 -8.34961 L 66.0645 -8.34961 C 63.3301 -8.34961 61.9629 -7.95898 60.1074 -6.05469 Z M 66.2109 -19.6289 C 68.7988 -19.6289 70.3613 -21.4355 70.3613 -24.2676 L 70.3613 -37.4512 L 84.4238 -37.4512 C 87.1582 -37.4512 89.0137 -38.916 89.0137 -41.5039 C 89.0137 -44.1406 87.2559 -45.6543 84.4238 -45.6543 L 70.3613 -45.6543 L 70.3613 -59.7168 C 70.3613 -62.5977 68.7988 -64.3555 66.2109 -64.3555 C 63.623 -64.3555 62.1582 -62.5 62.1582 -59.7168 L 62.1582 -45.6543 L 48.1934 -45.6543 C 45.3125 -45.6543 43.5059 -44.1406 43.5059 -41.5039 C 43.5059 -38.916 45.459 -37.4512 48.1934 -37.4512 L 62.1582 -37.4512 L 62.1582 -24.2676 C 62.1582 -21.5332 63.623 -19.6289 66.2109 -19.6289 Z"/>
  </g>
  <g id="Light-M" transform="matrix(1 0 0 1 1087.68 1126)">
   <path d="M 40.4785 17.1875 C 42.334 17.1875 43.6523 16.1621 45.8496 14.2578 L 63.0371 -0.830078 L 97.7051 -0.830078 C 110.938 -0.830078 118.457 -8.49609 118.457 -21.5332 L 118.457 -60.791 C 118.457 -73.877 110.938 -81.543 97.7051 -81.543 L 33.2031 -81.543 C 19.9707 -81.543 12.4512 -73.9258 12.4512 -60.791 L 12.4512 -21.5332 C 12.4512 -8.44727 19.9707 -0.830078 33.2031 -0.830078 L 36.3281 -0.830078 L 36.3281 12.3535 C 36.3281 15.2832 37.8418 17.1875 40.4785 17.1875 Z M 41.9922 10.3516 L 41.9922 -4.00391 C 41.9922 -6.05469 41.1621 -6.83594 39.1113 -6.83594 L 33.252 -6.83594 C 23.584 -6.83594 18.5059 -12.207 18.5059 -21.582 L 18.5059 -60.7422 C 18.5059 -70.166 23.584 -75.4883 33.252 -75.4883 L 97.6562 -75.4883 C 107.227 -75.4883 112.402 -70.166 112.402 -60.7422 L 112.402 -21.582 C 112.402 -12.207 107.227 -6.83594 97.6562 -6.83594 L 62.9883 -6.83594 C 60.791 -6.83594 59.668 -6.49414 58.0566 -4.88281 Z M 65.3809 -19.2383 C 67.3828 -19.2383 68.6035 -20.6055 68.6035 -22.7051 L 68.6035 -37.9883 L 84.4238 -37.9883 C 86.4746 -37.9883 87.9395 -39.1602 87.9395 -41.0645 C 87.9395 -43.0664 86.5723 -44.2871 84.4238 -44.2871 L 68.6035 -44.2871 L 68.6035 -60.1562 C 68.6035 -62.3047 67.3828 -63.6719 65.3809 -63.6719 C 63.4277 -63.6719 62.3047 -62.2559 62.3047 -60.1562 L 62.3047 -44.2871 L 46.4844 -44.2871 C 44.3848 -44.2871 42.9688 -43.0664 42.9688 -41.0645 C 42.9688 -39.1602 44.4824 -37.9883 46.4844 -37.9883 L 62.3047 -37.9883 L 62.3047 -22.7051 C 62.3047 -20.6543 63.4277 -19.2383 65.3809 -19.2383 Z"/>
  </g>
  <g id="Thin-M" transform="matrix(1 0 0 1 792.042 1126)">
   <path d="M 37.8418 15.5273 C 38.9648 15.5273 39.8438 14.8926 41.0156 13.8672 L 58.5938 -1.2207 L 97.7051 -1.2207 C 109.229 -1.2207 116.309 -8.44727 116.309 -19.8242 L 116.309 -61.5234 C 116.309 -72.9004 109.229 -80.127 97.7051 -80.127 L 31.0547 -80.127 C 19.5312 -80.127 12.4512 -72.998 12.4512 -61.5234 L 12.4512 -19.8242 C 12.4512 -8.34961 19.5312 -1.2207 31.0547 -1.2207 L 35.2051 -1.2207 L 35.2051 12.5977 C 35.2051 14.4043 36.2793 15.5273 37.8418 15.5273 Z M 38.623 11.4746 L 38.623 -3.07617 C 38.623 -4.3457 38.1348 -4.83398 36.8652 -4.83398 L 31.1523 -4.83398 C 21.7773 -4.83398 16.0645 -10.6445 16.0645 -19.9219 L 16.0645 -61.4258 C 16.0645 -70.7031 21.7773 -76.5137 31.1523 -76.5137 L 97.6074 -76.5137 C 106.787 -76.5137 112.646 -70.7031 112.646 -61.4258 L 112.646 -19.9219 C 112.646 -10.6445 106.787 -4.83398 97.6074 -4.83398 L 58.9844 -4.83398 C 57.4219 -4.83398 56.6406 -4.58984 55.3711 -3.36914 Z M 64.3066 -18.7012 C 65.5273 -18.7012 66.2598 -19.5312 66.2598 -20.6543 L 66.2598 -38.7207 L 84.4727 -38.7207 C 85.5957 -38.7207 86.4746 -39.502 86.4746 -40.5762 C 86.4746 -41.6992 85.6934 -42.5293 84.4727 -42.5293 L 66.2598 -42.5293 L 66.2598 -60.7422 C 66.2598 -61.9141 65.5273 -62.7441 64.3066 -62.7441 C 63.2324 -62.7441 62.5 -61.9141 62.5 -60.7422 L 62.5 -42.5293 L 44.2871 -42.5293 C 43.1152 -42.5293 42.2852 -41.6992 42.2852 -40.5762 C 42.2852 -39.502 43.1641 -38.7207 44.2871 -38.7207 L 62.5 -38.7207 L 62.5 -20.6543 C 62.5 -19.5312 63.2324 -18.7012 64.3066 -18.7012 Z"/>
  </g>
  <g id="Ultralight-M" transform="matrix(1 0 0 1 495.893 1126)">
   <path d="M 36.4746 14.6973 C 37.2559 14.6973 37.8906 14.2578 38.5742 13.7207 L 56.3477 -1.41602 L 97.7051 -1.41602 C 108.35 -1.41602 115.186 -8.39844 115.186 -18.9453 L 115.186 -61.9141 C 115.186 -72.4121 108.35 -79.3945 97.7051 -79.3945 L 29.9316 -79.3945 C 19.2871 -79.3945 12.4512 -72.5586 12.4512 -61.9141 L 12.4512 -18.9453 C 12.4512 -8.25195 19.2871 -1.41602 29.9316 -1.41602 L 34.668 -1.41602 L 34.668 12.6953 C 34.668 13.916 35.4492 14.6973 36.4746 14.6973 Z M 36.9141 12.1094 L 36.9141 -2.63672 C 36.9141 -3.4668 36.5723 -3.80859 35.7422 -3.80859 L 30.0781 -3.80859 C 20.8496 -3.80859 14.8438 -9.81445 14.8438 -19.043 L 14.8438 -61.7676 C 14.8438 -70.9961 20.8496 -77.002 30.0781 -77.002 L 97.6074 -77.002 C 106.543 -77.002 112.793 -70.9961 112.793 -61.7676 L 112.793 -19.043 C 112.793 -9.81445 106.543 -3.80859 97.6074 -3.80859 L 56.8848 -3.80859 C 55.6641 -3.80859 55.0781 -3.56445 53.9551 -2.58789 Z M 63.7695 -18.4082 C 64.5508 -18.4082 65.0879 -18.9453 65.0879 -19.5801 L 65.0879 -39.1113 L 84.5215 -39.1113 C 85.1562 -39.1113 85.7422 -39.6973 85.7422 -40.2832 C 85.7422 -41.0156 85.2051 -41.6016 84.5215 -41.6016 L 65.0879 -41.6016 L 65.0879 -61.0352 C 65.0879 -61.7188 64.5508 -62.2559 63.7695 -62.2559 C 63.1348 -62.2559 62.5977 -61.7188 62.5977 -61.0352 L 62.5977 -41.6016 L 43.1641 -41.6016 C 42.4316 -41.6016 41.8945 -41.0156 41.8945 -40.2832 C 41.8945 -39.6973 42.5293 -39.1113 43.1641 -39.1113 L 62.5977 -39.1113 L 62.5977 -19.5801 C 62.5977 -18.9453 63.1348 -18.4082 63.7695 -18.4082 Z"/>
  </g>
  <g id="Black-S" transform="matrix(1 0 0 1 2880.28 696)">
   <path d="M 36.9141 10.3516 C 40.332 10.3516 43.3105 9.08203 47.5098 5.46875 L 60.1074 -5.37109 L 76.3672 -5.37109 C 88.3789 -5.37109 96.4844 -13.4766 96.4844 -25.4883 L 96.4844 -57.1289 C 96.4844 -69.1406 88.3789 -77.2461 76.3672 -77.2461 L 29.8828 -77.2461 C 17.8711 -77.2461 9.76562 -69.1406 9.76562 -57.1289 L 9.76562 -25.4883 C 9.76562 -13.4766 18.8477 -5.37109 28.418 -5.37109 L 28.7109 -5.37109 L 28.7109 1.46484 C 28.7109 7.03125 31.8848 10.3516 36.9141 10.3516 Z M 40.2344 -5.17578 L 40.2344 -15.2344 C 40.2344 -18.3594 38.4766 -19.5312 35.9375 -19.5312 L 31.1523 -19.5312 C 26.4648 -19.5312 23.9258 -21.875 23.9258 -26.7578 L 23.9258 -55.8594 C 23.9258 -60.7422 26.4648 -63.0859 31.1523 -63.0859 L 75.0977 -63.0859 C 79.7852 -63.0859 82.3242 -60.7422 82.3242 -55.8594 L 82.3242 -26.7578 C 82.3242 -21.875 79.7852 -19.5312 75.0977 -19.5312 L 58.8379 -19.5312 C 55.6152 -19.5312 54.3457 -18.7988 51.9043 -16.4551 Z M 53.125 -24.3164 C 56.2012 -24.3164 58.5449 -26.5625 58.5449 -29.541 L 58.5449 -35.791 L 65.2832 -35.791 C 68.2617 -35.791 70.5078 -38.1348 70.5078 -41.2109 C 70.5078 -44.2871 68.2617 -46.6309 65.2832 -46.6309 L 58.5449 -46.6309 L 58.5449 -52.8809 C 58.5449 -55.8594 56.2012 -58.1055 53.125 -58.1055 C 50.0488 -58.1055 47.7051 -55.8594 47.7051 -52.8809 L 47.7051 -46.6309 L 40.9668 -46.6309 C 37.9883 -46.6309 35.7422 -44.2871 35.7422 -41.2109 C 35.7422 -38.1348 37.9883 -35.791 40.9668 -35.791 L 47.7051 -35.791 L 47.7051 -29.541 C 47.7051 -26.5625 50.0488 -24.3164 53.125 -24.3164 Z"/>
  </g>
  <g id="Heavy-S" transform="matrix(1 0 0 1 2583.76 696)">
   <path d="M 36.2793 9.66797 C 39.4043 9.66797 42.041 8.39844 45.8496 5.07812 L 58.5938 -5.95703 L 76.416 -5.95703 C 88.4277 -5.95703 96.0938 -13.6719 96.0938 -25.6348 L 96.0938 -56.543 C 96.0938 -68.5059 88.4277 -76.2207 76.416 -76.2207 L 29.4434 -76.2207 C 17.4316 -76.2207 9.76562 -68.5059 9.76562 -56.543 L 9.76562 -25.6348 C 9.76562 -13.6719 18.2129 -5.95703 28.3203 -5.95703 L 28.9062 -5.95703 L 28.9062 1.5625 C 28.9062 6.5918 31.7383 9.66797 36.2793 9.66797 Z M 39.2578 -4.10156 L 39.2578 -14.3555 C 39.2578 -17.334 37.6953 -18.457 35.2051 -18.457 L 30.4199 -18.457 C 25 -18.457 22.2656 -21.0938 22.2656 -26.6113 L 22.2656 -55.5664 C 22.2656 -61.0352 25 -63.7207 30.4199 -63.7207 L 75.4395 -63.7207 C 80.8594 -63.7207 83.6426 -61.0352 83.6426 -55.5664 L 83.6426 -26.6113 C 83.6426 -21.0938 80.8594 -18.457 75.4395 -18.457 L 57.5195 -18.457 C 54.4922 -18.457 53.2227 -17.8223 50.9766 -15.625 Z M 52.9297 -24.0723 C 55.8105 -24.0723 57.959 -26.1719 57.959 -29.0527 L 57.959 -35.9863 L 65.4785 -35.9863 C 68.3594 -35.9863 70.459 -38.0859 70.459 -41.0156 C 70.459 -43.8965 68.3594 -45.9961 65.4785 -45.9961 L 57.959 -45.9961 L 57.959 -53.1738 C 57.959 -56.1035 55.8105 -58.1543 52.9297 -58.1543 C 50 -58.1543 47.9492 -56.0547 47.9492 -53.1738 L 47.9492 -45.9961 L 40.3809 -45.9961 C 37.5 -45.9961 35.4004 -43.8965 35.4004 -41.0156 C 35.4004 -38.0859 37.5488 -35.9863 40.3809 -35.9863 L 47.9492 -35.9863 L 47.9492 -29.0527 C 47.9492 -26.1719 50 -24.0723 52.9297 -24.0723 Z"/>
  </g>
  <g id="Bold-S" transform="matrix(1 0 0 1 2287.27 696)">
   <path d="M 35.5957 8.88672 C 38.3789 8.88672 40.5762 7.66602 44.043 4.6875 L 56.8848 -6.64062 L 76.4648 -6.64062 C 88.4766 -6.64062 95.6543 -13.916 95.6543 -25.8301 L 95.6543 -55.8594 C 95.6543 -67.7734 88.4766 -75.0488 76.4648 -75.0488 L 28.9551 -75.0488 C 16.9434 -75.0488 9.76562 -67.7734 9.76562 -55.8594 L 9.76562 -25.8301 C 9.76562 -13.916 17.4316 -6.64062 28.2227 -6.64062 L 29.1016 -6.64062 L 29.1016 1.66016 C 29.1016 6.10352 31.543 8.88672 35.5957 8.88672 Z M 38.1836 -2.92969 L 38.1836 -13.4277 C 38.1836 -16.1621 36.8164 -17.2363 34.375 -17.2363 L 29.5898 -17.2363 C 23.3398 -17.2363 20.3613 -20.2637 20.3613 -26.4648 L 20.3613 -55.2246 C 20.3613 -61.4258 23.3398 -64.4531 29.5898 -64.4531 L 75.8301 -64.4531 C 82.0801 -64.4531 85.0586 -61.4258 85.0586 -55.2246 L 85.0586 -26.4648 C 85.0586 -20.2637 82.0801 -17.2363 75.8301 -17.2363 L 56.0547 -17.2363 C 53.2227 -17.2363 52.002 -16.6992 50 -14.6973 Z M 52.6855 -23.7793 C 55.4199 -23.7793 57.2754 -25.6836 57.2754 -28.4668 L 57.2754 -36.2305 L 65.7227 -36.2305 C 68.4082 -36.2305 70.4102 -38.0371 70.4102 -40.7715 C 70.4102 -43.5059 68.457 -45.3125 65.7227 -45.3125 L 57.2754 -45.3125 L 57.2754 -53.5645 C 57.2754 -56.3477 55.4199 -58.252 52.6855 -58.252 C 50 -58.252 48.1934 -56.2988 48.1934 -53.5645 L 48.1934 -45.3125 L 39.7461 -45.3125 C 36.9629 -45.3125 35.0586 -43.5059 35.0586 -40.7715 C 35.0586 -38.0371 37.0117 -36.2305 39.7461 -36.2305 L 48.1934 -36.2305 L 48.1934 -28.4668 C 48.1934 -25.7324 50 -23.7793 52.6855 -23.7793 Z"/>
  </g>
  <g id="Semibold-S" transform="matrix(1 0 0 1 1990.7 696)">
   <path d="M 35.1074 8.30078 C 37.6465 8.30078 39.5996 7.12891 42.7734 4.39453 L 55.7129 -7.08008 L 76.5137 -7.08008 C 88.5254 -7.08008 95.3613 -14.0625 95.3613 -25.9277 L 95.3613 -55.3711 C 95.3613 -67.2852 88.5254 -74.2676 76.5137 -74.2676 L 28.6621 -74.2676 C 16.6504 -74.2676 9.76562 -67.2852 9.76562 -55.3711 L 9.76562 -25.9277 C 9.76562 -14.0625 16.9434 -7.08008 28.1738 -7.08008 L 29.248 -7.08008 L 29.248 1.75781 C 29.248 5.81055 31.4453 8.30078 35.1074 8.30078 Z M 37.4023 -2.09961 L 37.4023 -12.7441 C 37.4023 -15.3809 36.2305 -16.3574 33.7891 -16.3574 L 29.0527 -16.3574 C 22.168 -16.3574 19.0918 -19.6777 19.0918 -26.3672 L 19.0918 -54.9805 C 19.0918 -61.6699 22.168 -64.9414 29.0527 -64.9414 L 76.0742 -64.9414 C 82.959 -64.9414 86.084 -61.6699 86.084 -54.9805 L 86.084 -26.3672 C 86.084 -19.6777 82.959 -16.3574 76.0742 -16.3574 L 55.0293 -16.3574 C 52.3926 -16.3574 51.123 -15.918 49.2676 -14.0137 Z M 52.5391 -23.584 C 55.127 -23.584 56.7871 -25.3906 56.7871 -28.0762 L 56.7871 -36.4258 L 65.8691 -36.4258 C 68.5059 -36.4258 70.3613 -38.0371 70.3613 -40.625 C 70.3613 -43.2129 68.5547 -44.873 65.8691 -44.873 L 56.7871 -44.873 L 56.7871 -53.8086 C 56.7871 -56.4941 55.127 -58.3008 52.5391 -58.3008 C 49.9512 -58.3008 48.3398 -56.4453 48.3398 -53.8086 L 48.3398 -44.873 L 39.3066 -44.873 C 36.6211 -44.873 34.7656 -43.2129 34.7656 -40.625 C 34.7656 -38.0371 36.6699 -36.4258 39.3066 -36.4258 L 48.3398 -36.4258 L 48.3398 -28.0762 C 48.3398 -25.4395 49.9512 -23.584 52.5391 -23.584 Z"/>
  </g>
  <g id="Medium-S" transform="matrix(1 0 0 1 1694.09 696)">
   <path d="M 34.7168 7.91016 C 37.1094 7.91016 38.8672 6.73828 41.7969 4.15039 L 54.7852 -7.42188 L 76.5137 -7.42188 C 88.5254 -7.42188 95.166 -14.209 95.166 -26.0254 L 95.166 -55.0293 C 95.166 -66.8945 88.5254 -73.6816 76.5137 -73.6816 L 28.418 -73.6816 C 16.4062 -73.6816 9.76562 -66.8945 9.76562 -55.0293 L 9.76562 -26.0254 C 9.76562 -14.209 16.5527 -7.42188 28.125 -7.42188 L 29.3457 -7.42188 L 29.3457 1.80664 C 29.3457 5.56641 31.3477 7.91016 34.7168 7.91016 Z M 36.8164 -1.46484 L 36.8164 -12.2559 C 36.8164 -14.7949 35.791 -15.7227 33.3496 -15.7227 L 28.6133 -15.7227 C 21.3379 -15.7227 18.0664 -19.2383 18.0664 -26.2695 L 18.0664 -54.7852 C 18.0664 -61.8164 21.3379 -65.332 28.6133 -65.332 L 76.3184 -65.332 C 83.5938 -65.332 86.8164 -61.8164 86.8164 -54.7852 L 86.8164 -26.2695 C 86.8164 -19.2383 83.5938 -15.7227 76.3184 -15.7227 L 54.248 -15.7227 C 51.709 -15.7227 50.4883 -15.332 48.7793 -13.5254 Z M 52.4414 -23.4375 C 54.8828 -23.4375 56.4453 -25.1465 56.4453 -27.7832 L 56.4453 -36.5234 L 65.9668 -36.5234 C 68.5547 -36.5234 70.3125 -37.9883 70.3125 -40.4785 C 70.3125 -43.0176 68.6035 -44.4824 65.9668 -44.4824 L 56.4453 -44.4824 L 56.4453 -53.9551 C 56.4453 -56.6406 54.8828 -58.3496 52.4414 -58.3496 C 49.9512 -58.3496 48.4863 -56.543 48.4863 -53.9551 L 48.4863 -44.4824 L 39.0137 -44.4824 C 36.3281 -44.4824 34.5703 -43.0176 34.5703 -40.4785 C 34.5703 -37.9883 36.4258 -36.5234 39.0137 -36.5234 L 48.4863 -36.5234 L 48.4863 -27.7832 C 48.4863 -25.1953 49.9512 -23.4375 52.4414 -23.4375 Z"/>
  </g>
  <g id="Regular-S" transform="matrix(1 0 0 1 1397.53 696)">
   <path d="M 34.2773 7.37305 C 36.4258 7.37305 37.8906 6.25 40.5273 3.85742 L 53.6133 -7.86133 L 76.5625 -7.86133 C 88.5742 -7.86133 94.873 -14.3555 94.873 -26.1719 L 94.873 -54.5898 C 94.873 -66.4062 88.5742 -72.9004 76.5625 -72.9004 L 28.0762 -72.9004 C 16.0645 -72.9004 9.76562 -66.4062 9.76562 -54.5898 L 9.76562 -26.1719 C 9.76562 -14.3555 16.0645 -7.86133 28.0762 -7.86133 L 29.4922 -7.86133 L 29.4922 1.85547 C 29.4922 5.22461 31.2012 7.37305 34.2773 7.37305 Z M 36.084 -0.634766 L 36.084 -11.6211 C 36.084 -14.0137 35.2051 -14.8926 32.8125 -14.8926 L 28.0762 -14.8926 C 20.2148 -14.8926 16.7969 -18.6523 16.7969 -26.1719 L 16.7969 -54.5898 C 16.7969 -62.0605 20.2148 -65.8203 28.0762 -65.8203 L 76.5625 -65.8203 C 84.4238 -65.8203 87.8418 -62.0605 87.8418 -54.5898 L 87.8418 -26.1719 C 87.8418 -18.6523 84.4238 -14.8926 76.5625 -14.8926 L 53.2227 -14.8926 C 50.8789 -14.8926 49.6582 -14.5508 48.0957 -12.8906 Z M 52.2461 -23.2422 C 54.5898 -23.2422 55.957 -24.8047 55.957 -27.3926 L 55.957 -36.7188 L 66.1133 -36.7188 C 68.6035 -36.7188 70.2637 -37.9883 70.2637 -40.332 C 70.2637 -42.7246 68.7012 -44.043 66.1133 -44.043 L 55.957 -44.043 L 55.957 -54.1992 C 55.957 -56.7871 54.5898 -58.3984 52.2461 -58.3984 C 49.9023 -58.3984 48.6328 -56.6895 48.6328 -54.1992 L 48.6328 -44.043 L 38.5742 -44.043 C 35.9863 -44.043 34.3262 -42.7246 34.3262 -40.332 C 34.3262 -37.9883 36.084 -36.7188 38.5742 -36.7188 L 48.6328 -36.7188 L 48.6328 -27.3926 C 48.6328 -24.9023 49.9023 -23.2422 52.2461 -23.2422 Z"/>
  </g>
  <g id="Light-S" transform="matrix(1 0 0 1 1101.55 696)">
   <path d="M 32.4707 6.29883 C 34.1797 6.29883 35.3516 5.41992 37.3047 3.61328 L 50.6836 -8.1543 L 76.5625 -8.1543 C 87.4023 -8.1543 93.4082 -14.3066 93.4082 -25 L 93.4082 -55.0781 C 93.4082 -65.7715 87.4023 -71.9238 76.5625 -71.9238 L 26.6113 -71.9238 C 15.7715 -71.9238 9.76562 -65.8203 9.76562 -55.0781 L 9.76562 -25 C 9.76562 -14.2578 15.7715 -8.1543 26.6113 -8.1543 L 28.7598 -8.1543 L 28.7598 2.00195 C 28.7598 4.63867 30.127 6.29883 32.4707 6.29883 Z M 33.8379 0.146484 L 33.8379 -11.0352 C 33.8379 -12.8418 33.1543 -13.5742 31.2988 -13.5742 L 26.6602 -13.5742 C 18.9941 -13.5742 15.1855 -17.627 15.1855 -25.0488 L 15.1855 -55.0293 C 15.1855 -62.4512 18.9941 -66.5039 26.6602 -66.5039 L 76.5137 -66.5039 C 84.1309 -66.5039 87.9883 -62.4512 87.9883 -55.0293 L 87.9883 -25.0488 C 87.9883 -17.627 84.1309 -13.5742 76.5137 -13.5742 L 50.5371 -13.5742 C 48.6328 -13.5742 47.6074 -13.2812 46.2891 -11.9141 Z M 51.5625 -22.8516 C 53.3203 -22.8516 54.3945 -24.0723 54.3945 -26.0254 L 54.3945 -37.207 L 66.1621 -37.207 C 68.0176 -37.207 69.3359 -38.2324 69.3359 -39.9902 C 69.3359 -41.7969 68.0664 -42.8223 66.1621 -42.8223 L 54.3945 -42.8223 L 54.3945 -54.5898 C 54.3945 -56.543 53.3203 -57.7637 51.5625 -57.7637 C 49.7559 -57.7637 48.7793 -56.4941 48.7793 -54.5898 L 48.7793 -42.8223 L 37.0605 -42.8223 C 35.1074 -42.8223 33.8867 -41.7969 33.8867 -39.9902 C 33.8867 -38.2324 35.2051 -37.207 37.0605 -37.207 L 48.7793 -37.207 L 48.7793 -26.0254 C 48.7793 -24.1699 49.7559 -22.8516 51.5625 -22.8516 Z"/>
  </g>
  <g id="Thin-S" transform="matrix(1 0 0 1 805.763 696)">
   <path d="M 30.127 4.88281 C 31.2012 4.88281 31.9824 4.29688 33.0566 3.32031 L 46.7773 -8.49609 L 76.5625 -8.49609 C 85.9375 -8.49609 91.5527 -14.2578 91.5527 -23.4863 L 91.5527 -55.7129 C 91.5527 -64.9414 85.9375 -70.6543 76.5625 -70.6543 L 24.7559 -70.6543 C 15.3809 -70.6543 9.76562 -64.9902 9.76562 -55.7129 L 9.76562 -23.4863 C 9.76562 -14.1602 15.3809 -8.49609 24.7559 -8.49609 L 27.832 -8.49609 L 27.832 2.19727 C 27.832 3.80859 28.7109 4.88281 30.127 4.88281 Z M 30.9082 1.17188 L 30.9082 -10.2051 C 30.9082 -11.377 30.4688 -11.8164 29.3457 -11.8164 L 24.8047 -11.8164 C 17.4316 -11.8164 13.0859 -16.2598 13.0859 -23.5352 L 13.0859 -55.6152 C 13.0859 -62.9395 17.4316 -67.3828 24.8047 -67.3828 L 76.5137 -67.3828 C 83.7402 -67.3828 88.2324 -62.9395 88.2324 -55.6152 L 88.2324 -23.5352 C 88.2324 -16.2598 83.7402 -11.8164 76.5137 -11.8164 L 46.9727 -11.8164 C 45.6543 -11.8164 44.9707 -11.5723 43.8965 -10.5469 Z M 50.5859 -22.3633 C 51.6602 -22.3633 52.3438 -23.1445 52.3438 -24.2188 L 52.3438 -37.8418 L 66.1621 -37.8418 C 67.2363 -37.8418 68.0176 -38.5254 68.0176 -39.502 C 68.0176 -40.5762 67.2852 -41.2598 66.1621 -41.2598 L 52.3438 -41.2598 L 52.3438 -55.0781 C 52.3438 -56.2012 51.6602 -56.9824 50.5859 -56.9824 C 49.5605 -56.9824 48.9258 -56.2012 48.9258 -55.0781 L 48.9258 -41.2598 L 35.1074 -41.2598 C 33.9844 -41.2598 33.252 -40.5762 33.252 -39.502 C 33.252 -38.5254 34.0332 -37.8418 35.1074 -37.8418 L 48.9258 -37.8418 L 48.9258 -24.2188 C 48.9258 -23.1445 49.5605 -22.3633 50.5859 -22.3633 Z"/>
  </g>
  <g id="Ultralight-S" transform="matrix(1 0 0 1 509.54 696)">
   <path d="M 28.9551 4.10156 C 29.6387 4.10156 30.2246 3.71094 30.8594 3.17383 L 44.7266 -8.69141 L 76.5625 -8.69141 C 85.1562 -8.69141 90.5762 -14.209 90.5762 -22.7051 L 90.5762 -56.0059 C 90.5762 -64.502 85.1562 -70.0195 76.5625 -70.0195 L 23.7793 -70.0195 C 15.1855 -70.0195 9.76562 -64.5996 9.76562 -56.0059 L 9.76562 -22.7051 C 9.76562 -14.1113 15.1855 -8.69141 23.7793 -8.69141 L 27.2949 -8.69141 L 27.2949 2.29492 C 27.2949 3.41797 27.9785 4.10156 28.9551 4.10156 Z M 29.3945 1.70898 L 29.3945 -9.81445 C 29.3945 -10.5957 29.0527 -10.8887 28.3203 -10.8887 L 23.8281 -10.8887 C 16.6016 -10.8887 11.9629 -15.5273 11.9629 -22.8027 L 11.9629 -55.957 C 11.9629 -63.1836 16.6016 -67.8223 23.8281 -67.8223 L 76.4648 -67.8223 C 83.5449 -67.8223 88.3301 -63.1836 88.3301 -55.957 L 88.3301 -22.8027 C 88.3301 -15.5273 83.5449 -10.8887 76.4648 -10.8887 L 45.166 -10.8887 C 44.0918 -10.8887 43.5547 -10.6934 42.6758 -9.86328 Z M 50.0977 -22.1191 C 50.8301 -22.1191 51.3184 -22.6074 51.3184 -23.2422 L 51.3184 -38.1348 L 66.2109 -38.1348 C 66.7969 -38.1348 67.3828 -38.6719 67.3828 -39.2578 C 67.3828 -39.9414 66.8945 -40.4785 66.2109 -40.4785 L 51.3184 -40.4785 L 51.3184 -55.3711 C 51.3184 -56.0547 50.8301 -56.543 50.0977 -56.543 C 49.4629 -56.543 48.9746 -56.0547 48.9746 -55.3711 L 48.9746 -40.4785 L 34.082 -40.4785 C 33.3984 -40.4785 32.9102 -39.9414 32.9102 -39.2578 C 32.9102 -38.6719 33.4473 -38.1348 34.082 -38.1348 L 48.9746 -38.1348 L 48.9746 -23.2422 C 48.9746 -22.6074 49.4629 -22.1191 50.0977 -22.1191 Z"/>
  </g>
 </g>
</svg>
