<?xml version="1.0" encoding="UTF-8"?>
<!--Generator: Apple Native CoreSVG 148-->
<!DOCTYPE svg
PUBLIC "-//W3C//DTD SVG 1.1//EN"
       "http://www.w3.org/Graphics/SVG/1.1/DTD/svg11.dtd">
<svg version="1.1" xmlns="http://www.w3.org/2000/svg" xmlns:xlink="http://www.w3.org/1999/xlink" width="3300" height="2200">
 <!--glyph: "uni1000B5.medium", point size: 100.000000, font version: "Version 16.0d11e1", template writer version: "8"-->
 <g id="Notes">
  <rect height="2200" id="artboard" style="fill:white;opacity:1" width="3300" x="0" y="0"/>
  <line id="" style="fill:none;stroke:black;opacity:1;stroke-width:0.5;" x1="263" x2="3036" y1="292" y2="292"/>
  <text style="stroke:none;fill:black;font-family:-apple-system,&quot;SF Pro Display&quot;,&quot;SF Pro Text&quot;,Helvetica,sans-serif;font-weight:bold;" transform="matrix(1 0 0 1 263 322)">Weight/Scale Variations</text>
  <text style="stroke:none;fill:black;font-family:-apple-system,&quot;SF Pro Display&quot;,&quot;SF Pro Text&quot;,Helvetica,sans-serif;text-anchor:middle;" transform="matrix(1 0 0 1 559.711 322)">Ultralight</text>
  <text style="stroke:none;fill:black;font-family:-apple-system,&quot;SF Pro Display&quot;,&quot;SF Pro Text&quot;,Helvetica,sans-serif;text-anchor:middle;" transform="matrix(1 0 0 1 856.422 322)">Thin</text>
  <text style="stroke:none;fill:black;font-family:-apple-system,&quot;SF Pro Display&quot;,&quot;SF Pro Text&quot;,Helvetica,sans-serif;text-anchor:middle;" transform="matrix(1 0 0 1 1153.13 322)">Light</text>
  <text style="stroke:none;fill:black;font-family:-apple-system,&quot;SF Pro Display&quot;,&quot;SF Pro Text&quot;,Helvetica,sans-serif;text-anchor:middle;" transform="matrix(1 0 0 1 1449.84 322)">Regular</text>
  <text style="stroke:none;fill:black;font-family:-apple-system,&quot;SF Pro Display&quot;,&quot;SF Pro Text&quot;,Helvetica,sans-serif;text-anchor:middle;" transform="matrix(1 0 0 1 1746.56 322)">Medium</text>
  <text style="stroke:none;fill:black;font-family:-apple-system,&quot;SF Pro Display&quot;,&quot;SF Pro Text&quot;,Helvetica,sans-serif;text-anchor:middle;" transform="matrix(1 0 0 1 2043.27 322)">Semibold</text>
  <text style="stroke:none;fill:black;font-family:-apple-system,&quot;SF Pro Display&quot;,&quot;SF Pro Text&quot;,Helvetica,sans-serif;text-anchor:middle;" transform="matrix(1 0 0 1 2339.98 322)">Bold</text>
  <text style="stroke:none;fill:black;font-family:-apple-system,&quot;SF Pro Display&quot;,&quot;SF Pro Text&quot;,Helvetica,sans-serif;text-anchor:middle;" transform="matrix(1 0 0 1 2636.69 322)">Heavy</text>
  <text style="stroke:none;fill:black;font-family:-apple-system,&quot;SF Pro Display&quot;,&quot;SF Pro Text&quot;,Helvetica,sans-serif;text-anchor:middle;" transform="matrix(1 0 0 1 2933.4 322)">Black</text>
  <line id="" style="fill:none;stroke:black;opacity:1;stroke-width:0.5;" x1="263" x2="3036" y1="1903" y2="1903"/>
  <g id="" transform="matrix(1 0 0 1 263 1933)">
   <path d="M 9.24805 0.830078 C 13.5547 0.830078 17.1387 -2.74414 17.1387 -7.05078 C 17.1387 -11.3574 13.5449 -14.9316 9.23828 -14.9316 C 4.94141 -14.9316 1.36719 -11.3574 1.36719 -7.05078 C 1.36719 -2.74414 4.95117 0.830078 9.24805 0.830078 Z M 9.24805 -0.654297 C 5.70312 -0.654297 2.87109 -3.49609 2.87109 -7.05078 C 2.87109 -10.6055 5.69336 -13.4473 9.23828 -13.4473 C 12.793 -13.4473 15.6348 -10.6055 15.6445 -7.05078 C 15.6543 -3.49609 12.8027 -0.654297 9.24805 -0.654297 Z M 9.22852 -3.62305 C 9.69727 -3.62305 9.9707 -3.93555 9.9707 -4.45312 L 9.9707 -6.31836 L 12.002 -6.31836 C 12.5 -6.31836 12.832 -6.57227 12.832 -7.04102 C 12.832 -7.51953 12.5195 -7.7832 12.002 -7.7832 L 9.9707 -7.7832 L 9.9707 -9.81445 C 9.9707 -10.332 9.69727 -10.6543 9.22852 -10.6543 C 8.75977 -10.6543 8.50586 -10.3125 8.50586 -9.81445 L 8.50586 -7.7832 L 6.49414 -7.7832 C 5.97656 -7.7832 5.64453 -7.51953 5.64453 -7.04102 C 5.64453 -6.57227 5.99609 -6.31836 6.49414 -6.31836 L 8.50586 -6.31836 L 8.50586 -4.45312 C 8.50586 -3.95508 8.75977 -3.62305 9.22852 -3.62305 Z"/>
  </g>
  <g id="" transform="matrix(1 0 0 1 281.506 1933)">
   <path d="M 11.709 2.91016 C 17.1582 2.91016 21.6699 -1.61133 21.6699 -7.05078 C 21.6699 -12.5 17.1484 -17.0117 11.6992 -17.0117 C 6.25977 -17.0117 1.74805 -12.5 1.74805 -7.05078 C 1.74805 -1.61133 6.26953 2.91016 11.709 2.91016 Z M 11.709 1.25 C 7.09961 1.25 3.41797 -2.44141 3.41797 -7.05078 C 3.41797 -11.6602 7.08984 -15.3516 11.6992 -15.3516 C 16.3086 -15.3516 20 -11.6602 20.0098 -7.05078 C 20.0195 -2.44141 16.3184 1.25 11.709 1.25 Z M 11.6797 -2.66602 C 12.207 -2.66602 12.5098 -3.01758 12.5098 -3.59375 L 12.5098 -6.23047 L 15.3223 -6.23047 C 15.8691 -6.23047 16.25 -6.51367 16.25 -7.03125 C 16.25 -7.55859 15.8887 -7.86133 15.3223 -7.86133 L 12.5098 -7.86133 L 12.5098 -10.6836 C 12.5098 -11.25 12.207 -11.6113 11.6797 -11.6113 C 11.1621 -11.6113 10.8789 -11.2305 10.8789 -10.6836 L 10.8789 -7.86133 L 8.07617 -7.86133 C 7.50977 -7.86133 7.13867 -7.55859 7.13867 -7.03125 C 7.13867 -6.51367 7.5293 -6.23047 8.07617 -6.23047 L 10.8789 -6.23047 L 10.8789 -3.59375 C 10.8789 -3.03711 11.1621 -2.66602 11.6797 -2.66602 Z"/>
  </g>
  <g id="" transform="matrix(1 0 0 1 304.924 1933)">
   <path d="M 14.9707 5.66406 C 21.9336 5.66406 27.6953 -0.0976562 27.6953 -7.05078 C 27.6953 -14.0137 21.9238 -19.7754 14.9609 -19.7754 C 8.00781 -19.7754 2.25586 -14.0137 2.25586 -7.05078 C 2.25586 -0.0976562 8.01758 5.66406 14.9707 5.66406 Z M 14.9707 3.84766 C 8.93555 3.84766 4.08203 -1.01562 4.08203 -7.05078 C 4.08203 -13.0957 8.92578 -17.9492 14.9609 -17.9492 C 21.0059 -17.9492 25.8594 -13.0957 25.8691 -7.05078 C 25.8789 -1.01562 21.0156 3.84766 14.9707 3.84766 Z M 14.9414 -1.38672 C 15.5176 -1.38672 15.8594 -1.77734 15.8594 -2.38281 L 15.8594 -6.13281 L 19.7754 -6.13281 C 20.3711 -6.13281 20.7812 -6.46484 20.7812 -7.02148 C 20.7812 -7.59766 20.3906 -7.93945 19.7754 -7.93945 L 15.8594 -7.93945 L 15.8594 -11.8652 C 15.8594 -12.4805 15.5176 -12.8711 14.9414 -12.8711 C 14.375 -12.8711 14.0527 -12.4609 14.0527 -11.8652 L 14.0527 -7.93945 L 10.1465 -7.93945 C 9.53125 -7.93945 9.13086 -7.59766 9.13086 -7.02148 C 9.13086 -6.46484 9.55078 -6.13281 10.1465 -6.13281 L 14.0527 -6.13281 L 14.0527 -2.38281 C 14.0527 -1.79688 14.375 -1.38672 14.9414 -1.38672 Z"/>
  </g>
  <text style="stroke:none;fill:black;font-family:-apple-system,&quot;SF Pro Display&quot;,&quot;SF Pro Text&quot;,Helvetica,sans-serif;font-weight:bold;" transform="matrix(1 0 0 1 263 1953)">Design Variations</text>
  <text style="stroke:none;fill:black;font-family:-apple-system,&quot;SF Pro Display&quot;,&quot;SF Pro Text&quot;,Helvetica,sans-serif;" transform="matrix(1 0 0 1 263 1971)">Symbols are supported in up to nine weights and three scales.</text>
  <text style="stroke:none;fill:black;font-family:-apple-system,&quot;SF Pro Display&quot;,&quot;SF Pro Text&quot;,Helvetica,sans-serif;" transform="matrix(1 0 0 1 263 1989)">For optimal layout with text and other symbols, vertically align</text>
  <text style="stroke:none;fill:black;font-family:-apple-system,&quot;SF Pro Display&quot;,&quot;SF Pro Text&quot;,Helvetica,sans-serif;" transform="matrix(1 0 0 1 263 2007)">symbols with the adjacent text.</text>
  <line id="" style="fill:none;stroke:#00AEEF;stroke-width:0.5;opacity:1.0;" x1="776" x2="776" y1="1919" y2="1933"/>
  <g id="" transform="matrix(1 0 0 1 776 1933)">
   <path d="M 3.31055 0.126953 C 3.82812 0.126953 4.08203 -0.0683594 4.26758 -0.605469 L 5.52734 -4.0625 L 11.2891 -4.0625 L 12.5488 -0.605469 C 12.7344 -0.0683594 12.9883 0.126953 13.4961 0.126953 C 14.0137 0.126953 14.3457 -0.185547 14.3457 -0.673828 C 14.3457 -0.839844 14.3164 -0.986328 14.2383 -1.20117 L 9.6582 -13.3887 C 9.43359 -13.9941 9.0332 -14.2871 8.4082 -14.2871 C 7.80273 -14.2871 7.39258 -13.9941 7.17773 -13.3984 L 2.59766 -1.19141 C 2.51953 -0.976562 2.49023 -0.830078 2.49023 -0.664062 C 2.49023 -0.175781 2.80273 0.126953 3.31055 0.126953 Z M 6.00586 -5.53711 L 8.37891 -12.1094 L 8.42773 -12.1094 L 10.8008 -5.53711 Z"/>
  </g>
  <line id="" style="fill:none;stroke:#00AEEF;stroke-width:0.5;opacity:1.0;" x1="792.836" x2="792.836" y1="1919" y2="1933"/>
  <text style="stroke:none;fill:black;font-family:-apple-system,&quot;SF Pro Display&quot;,&quot;SF Pro Text&quot;,Helvetica,sans-serif;font-weight:bold;" transform="matrix(1 0 0 1 776 1953)">Margins</text>
  <text style="stroke:none;fill:black;font-family:-apple-system,&quot;SF Pro Display&quot;,&quot;SF Pro Text&quot;,Helvetica,sans-serif;" transform="matrix(1 0 0 1 776 1971)">Leading and trailing margins on the left and right side of each symbol</text>
  <text style="stroke:none;fill:black;font-family:-apple-system,&quot;SF Pro Display&quot;,&quot;SF Pro Text&quot;,Helvetica,sans-serif;" transform="matrix(1 0 0 1 776 1989)">can be adjusted by modifying the x-location of the margin guidelines.</text>
  <text style="stroke:none;fill:black;font-family:-apple-system,&quot;SF Pro Display&quot;,&quot;SF Pro Text&quot;,Helvetica,sans-serif;" transform="matrix(1 0 0 1 776 2007)">Modifications are automatically applied proportionally to all</text>
  <text style="stroke:none;fill:black;font-family:-apple-system,&quot;SF Pro Display&quot;,&quot;SF Pro Text&quot;,Helvetica,sans-serif;" transform="matrix(1 0 0 1 776 2025)">scales and weights.</text>
  <g id="" transform="matrix(1 0 0 1 1289 1933)">
   <path d="M 2.8418 1.86523 L 4.54102 3.57422 C 5.40039 4.44336 6.38672 4.38477 7.31445 3.35938 L 17.4902 -7.85156 C 17.7539 -7.76367 18.0273 -7.7832 18.3398 -7.8418 L 19.4043 -8.03711 L 20.0684 -7.36328 L 20.0293 -6.80664 C 19.9902 -6.30859 20.1172 -5.92773 20.6055 -5.44922 L 21.3672 -4.70703 C 21.8457 -4.22852 22.4609 -4.19922 22.9297 -4.66797 L 25.8398 -7.58789 C 26.3086 -8.05664 26.2891 -8.65234 25.8105 -9.13086 L 25.0391 -9.89258 C 24.5605 -10.3711 24.1895 -10.5273 23.7109 -10.4883 L 23.1348 -10.4395 L 22.4902 -11.0742 L 22.7344 -12.1973 C 22.8613 -12.7637 22.7051 -13.2031 22.1191 -13.7891 L 19.9219 -15.9766 C 16.582 -19.2969 12.1484 -19.2188 9.25781 -16.3281 C 8.83789 -15.918 8.80859 -15.3418 9.04297 -14.9512 C 9.27734 -14.5898 9.73633 -14.3555 10.3809 -14.5215 C 11.8457 -14.8633 13.3691 -14.9219 14.7949 -13.9844 L 14.209 -12.5293 C 14.0137 -12.0508 13.9844 -11.6504 14.1113 -11.2891 L 3.04688 -0.898438 C 2.06055 0.0195312 1.98242 0.996094 2.8418 1.86523 Z M 10.752 -15.957 C 13.1836 -17.7344 16.4746 -17.4316 18.7012 -15.2051 L 21.1328 -12.793 C 21.3672 -12.5586 21.4062 -12.373 21.3379 -12.0312 L 21.0156 -10.5469 L 22.5195 -9.0625 L 23.5059 -9.12109 C 23.7598 -9.13086 23.8379 -9.11133 24.0332 -8.91602 L 24.6094 -8.33984 L 22.168 -5.89844 L 21.5918 -6.47461 C 21.3965 -6.66992 21.3672 -6.74805 21.377 -7.01172 L 21.4453 -7.98828 L 19.9512 -9.47266 L 18.4277 -9.21875 C 18.1055 -9.15039 17.959 -9.17969 17.7148 -9.41406 L 15.7129 -11.416 C 15.459 -11.6504 15.4297 -11.8164 15.5859 -12.1875 L 16.4648 -14.2773 C 14.9023 -15.7324 12.8711 -16.3574 10.8398 -15.7617 C 10.6836 -15.7227 10.625 -15.8496 10.752 -15.957 Z M 5.27344 2.30469 L 4.10156 1.14258 C 3.63281 0.683594 3.74023 0.341797 4.14062 -0.0195312 L 14.9512 -10.1953 L 16.416 -8.71094 L 6.42578 2.27539 C 6.07422 2.67578 5.74219 2.77344 5.27344 2.30469 Z"/>
  </g>
  <text style="stroke:none;fill:black;font-family:-apple-system,&quot;SF Pro Display&quot;,&quot;SF Pro Text&quot;,Helvetica,sans-serif;font-weight:bold;" transform="matrix(1 0 0 1 1289 1953)">Exporting</text>
  <text style="stroke:none;fill:black;font-family:-apple-system,&quot;SF Pro Display&quot;,&quot;SF Pro Text&quot;,Helvetica,sans-serif;" transform="matrix(1 0 0 1 1289 1971)">Symbols should be outlined when exporting to ensure the</text>
  <text style="stroke:none;fill:black;font-family:-apple-system,&quot;SF Pro Display&quot;,&quot;SF Pro Text&quot;,Helvetica,sans-serif;" transform="matrix(1 0 0 1 1289 1989)">design is preserved when submitting to Xcode.</text>
  <text id="template-version" style="stroke:none;fill:black;font-family:-apple-system,&quot;SF Pro Display&quot;,&quot;SF Pro Text&quot;,Helvetica,sans-serif;text-anchor:end;" transform="matrix(1 0 0 1 3036 1933)">Template v.2.0</text>
  <text style="stroke:none;fill:black;font-family:-apple-system,&quot;SF Pro Display&quot;,&quot;SF Pro Text&quot;,Helvetica,sans-serif;text-anchor:end;" transform="matrix(1 0 0 1 3036 1951)">Requires Xcode 12 or greater</text>
  <text style="stroke:none;fill:black;font-family:-apple-system,&quot;SF Pro Display&quot;,&quot;SF Pro Text&quot;,Helvetica,sans-serif;text-anchor:end;" transform="matrix(1 0 0 1 3036 1969)">Generated from q.square.fill</text>
  <text style="stroke:none;fill:black;font-family:-apple-system,&quot;SF Pro Display&quot;,&quot;SF Pro Text&quot;,Helvetica,sans-serif;text-anchor:end;" transform="matrix(1 0 0 1 3036 1987)">Typeset at 100 points</text>
  <text style="stroke:none;fill:black;font-family:-apple-system,&quot;SF Pro Display&quot;,&quot;SF Pro Text&quot;,Helvetica,sans-serif;" transform="matrix(1 0 0 1 263 726)">Small</text>
  <text style="stroke:none;fill:black;font-family:-apple-system,&quot;SF Pro Display&quot;,&quot;SF Pro Text&quot;,Helvetica,sans-serif;" transform="matrix(1 0 0 1 263 1156)">Medium</text>
  <text style="stroke:none;fill:black;font-family:-apple-system,&quot;SF Pro Display&quot;,&quot;SF Pro Text&quot;,Helvetica,sans-serif;" transform="matrix(1 0 0 1 263 1586)">Large</text>
 </g>
 <g id="Guides">
  <g id="H-reference" style="fill:#27AAE1;stroke:none;" transform="matrix(1 0 0 1 339 696)">
   <path d="M 0.976562 0 L 3.66211 0 L 12.9883 -24.4629 L 45.7031 -24.4629 L 55.0781 0 L 57.7148 0 L 30.6152 -70.459 L 28.125 -70.459 Z M 29.2969 -67.1387 L 29.3945 -67.1387 L 44.873 -26.709 L 13.8672 -26.709 Z"/>
  </g>
  <line id="Baseline-S" style="fill:none;stroke:#27AAE1;opacity:1;stroke-width:0.5;" x1="263" x2="3036" y1="696" y2="696"/>
  <line id="Capline-S" style="fill:none;stroke:#27AAE1;opacity:1;stroke-width:0.5;" x1="263" x2="3036" y1="625.541" y2="625.541"/>
  <g id="H-reference" style="fill:#27AAE1;stroke:none;" transform="matrix(1 0 0 1 339 1126)">
   <path d="M 0.976562 0 L 3.66211 0 L 12.9883 -24.4629 L 45.7031 -24.4629 L 55.0781 0 L 57.7148 0 L 30.6152 -70.459 L 28.125 -70.459 Z M 29.2969 -67.1387 L 29.3945 -67.1387 L 44.873 -26.709 L 13.8672 -26.709 Z"/>
  </g>
  <line id="Baseline-M" style="fill:none;stroke:#27AAE1;opacity:1;stroke-width:0.5;" x1="263" x2="3036" y1="1126" y2="1126"/>
  <line id="Capline-M" style="fill:none;stroke:#27AAE1;opacity:1;stroke-width:0.5;" x1="263" x2="3036" y1="1055.54" y2="1055.54"/>
  <g id="H-reference" style="fill:#27AAE1;stroke:none;" transform="matrix(1 0 0 1 339 1556)">
   <path d="M 0.976562 0 L 3.66211 0 L 12.9883 -24.4629 L 45.7031 -24.4629 L 55.0781 0 L 57.7148 0 L 30.6152 -70.459 L 28.125 -70.459 Z M 29.2969 -67.1387 L 29.3945 -67.1387 L 44.873 -26.709 L 13.8672 -26.709 Z"/>
  </g>
  <line id="Baseline-L" style="fill:none;stroke:#27AAE1;opacity:1;stroke-width:0.5;" x1="263" x2="3036" y1="1556" y2="1556"/>
  <line id="Capline-L" style="fill:none;stroke:#27AAE1;opacity:1;stroke-width:0.5;" x1="263" x2="3036" y1="1485.54" y2="1485.54"/>
  <line id="left-margin" style="fill:none;stroke:#00AEEF;stroke-width:0.5;opacity:1.0;" x1="1392.45" x2="1392.45" y1="1030.79" y2="1150.12"/>
  <line id="right-margin" style="fill:none;stroke:#00AEEF;stroke-width:0.5;opacity:1.0;" x1="1507.24" x2="1507.24" y1="1030.79" y2="1150.12"/>
 </g>
 <g id="Symbols">
  <g id="Black-L" transform="matrix(1 0 0 1 2855.62 1556)">
   <path d="M 39.9902 26.5137 L 115.576 26.5137 C 130.811 26.5137 139.502 17.8711 139.502 2.68555 L 139.502 -73.0957 C 139.502 -88.2812 130.811 -96.875 115.576 -96.875 L 39.9902 -96.875 C 24.7559 -96.875 16.0645 -88.2812 16.0645 -73.0957 L 16.0645 2.68555 C 16.0645 17.8711 24.7559 26.5137 39.9902 26.5137 Z M 78.3691 -4.15039 C 61.084 -4.15039 48.1934 -15.8203 48.1934 -35.3516 C 48.1934 -54.9316 61.084 -66.5527 78.3691 -66.5527 C 95.6543 -66.5527 108.594 -54.9316 108.594 -35.3516 C 108.594 -25.1953 105.127 -17.1387 99.2676 -11.7188 L 100.391 -10.3027 C 101.807 -8.1543 102.393 -6.54297 102.393 -4.6875 C 102.393 -0.634766 99.2676 2.24609 94.9219 2.24609 C 91.6504 2.24609 89.5508 0.976562 87.5 -2.49023 L 85.7422 -4.98047 C 83.4473 -4.44336 80.957 -4.15039 78.3691 -4.15039 Z M 78.3691 -20.3125 C 79.0039 -20.3125 79.6875 -20.3613 80.2734 -20.5078 L 79.541 -21.6309 C 78.8574 -22.4121 78.5156 -23.291 78.5156 -24.4629 C 78.5156 -27.1973 80.6641 -29.0527 83.3496 -29.0527 C 84.5215 -29.0527 85.2051 -28.7598 85.7422 -28.2227 L 86.8652 -27.0508 C 87.9395 -29.1504 88.4766 -32.0312 88.4766 -35.3516 C 88.4766 -45.3613 84.1797 -50.4395 78.3691 -50.4395 C 72.5586 -50.4395 68.2617 -45.3613 68.2617 -35.3516 C 68.2617 -25.3906 72.5586 -20.3125 78.3691 -20.3125 Z"/>
  </g>
  <g id="Heavy-L" transform="matrix(1 0 0 1 2559.93 1556)">
   <path d="M 38.8184 25.4883 L 114.697 25.4883 C 129.346 25.4883 137.451 17.4316 137.451 2.88086 L 137.451 -73.2422 C 137.451 -87.793 129.346 -95.8496 114.697 -95.8496 L 38.8184 -95.8496 C 24.2188 -95.8496 16.0645 -87.793 16.0645 -73.2422 L 16.0645 2.88086 C 16.0645 17.4316 24.2188 25.4883 38.8184 25.4883 Z M 77.2461 -4.39453 C 60.2051 -4.39453 47.6562 -16.3086 47.6562 -35.4492 C 47.6562 -54.6387 60.2051 -66.5039 77.2461 -66.5039 C 94.2871 -66.5039 106.787 -54.6387 106.787 -35.4492 C 106.787 -25.0977 103.174 -16.8457 97.0703 -11.5234 L 98.9258 -9.08203 C 100.293 -7.08008 100.781 -5.71289 100.781 -4.05273 C 100.781 -0.488281 98.0957 2.05078 94.2871 2.05078 C 91.4551 2.05078 89.5996 0.927734 87.793 -2.05078 L 85.3516 -5.51758 C 82.8125 -4.78516 80.127 -4.39453 77.2461 -4.39453 Z M 77.2461 -18.4082 C 78.2227 -18.4082 79.1992 -18.5059 80.0781 -18.7988 L 78.6133 -20.8984 C 77.9297 -21.7285 77.5879 -22.6074 77.5879 -23.7305 C 77.5879 -26.2695 79.5898 -28.0273 82.0801 -28.0273 C 83.3008 -28.0273 84.0332 -27.6855 84.6191 -27.002 L 86.5234 -24.707 C 88.3301 -27.2949 89.3555 -31.0059 89.3555 -35.4492 C 89.3555 -46.4355 84.3262 -52.4902 77.2461 -52.4902 C 70.166 -52.4902 65.1367 -46.4355 65.1367 -35.4492 C 65.1367 -24.4629 70.166 -18.4082 77.2461 -18.4082 Z"/>
  </g>
  <g id="Bold-L" transform="matrix(1 0 0 1 2264.37 1556)">
   <path d="M 37.5 24.3652 L 113.721 24.3652 C 127.637 24.3652 135.156 16.8945 135.156 3.07617 L 135.156 -73.3887 C 135.156 -87.207 127.637 -94.7266 113.721 -94.7266 L 37.5 -94.7266 C 23.6328 -94.7266 16.0645 -87.2559 16.0645 -73.3887 L 16.0645 3.07617 C 16.0645 16.8945 23.6328 24.3652 37.5 24.3652 Z M 75.9277 -4.6875 C 59.1309 -4.6875 47.1191 -16.7969 47.1191 -35.5957 C 47.1191 -54.3457 59.1309 -66.4551 75.9277 -66.4551 C 92.7246 -66.4551 104.785 -54.3457 104.785 -35.5957 C 104.785 -25.0488 100.977 -16.5527 94.6777 -11.2305 L 97.3145 -7.71484 C 98.5352 -5.9082 98.9746 -4.78516 98.9746 -3.32031 C 98.9746 -0.341797 96.7773 1.80664 93.6035 1.80664 C 91.2598 1.80664 89.6973 0.878906 88.0859 -1.61133 L 84.8633 -6.05469 C 82.1289 -5.17578 79.1504 -4.6875 75.9277 -4.6875 Z M 75.9277 -16.3086 C 77.3926 -16.3086 78.7109 -16.5039 79.8828 -16.8945 L 77.5879 -20.0684 C 76.8555 -20.9961 76.5625 -21.875 76.5625 -22.9492 C 76.5625 -25.1953 78.3691 -26.8555 80.6641 -26.8555 C 81.8848 -26.8555 82.666 -26.4648 83.3984 -25.5859 L 86.084 -22.1191 C 88.7695 -25.1953 90.2832 -29.8828 90.2832 -35.5957 C 90.2832 -47.6074 84.4238 -54.7852 75.9277 -54.7852 C 67.4316 -54.7852 61.6211 -47.6074 61.6211 -35.5957 C 61.6211 -23.4863 67.4316 -16.3086 75.9277 -16.3086 Z"/>
  </g>
  <g id="Semibold-L" transform="matrix(1 0 0 1 1968.44 1556)">
   <path d="M 36.6211 23.584 L 113.037 23.584 C 126.514 23.584 133.594 16.5039 133.594 3.17383 L 133.594 -73.5352 C 133.594 -86.8164 126.514 -93.9453 113.037 -93.9453 L 36.6211 -93.9453 C 23.1934 -93.9453 16.0645 -86.8652 16.0645 -73.5352 L 16.0645 3.17383 C 16.0645 16.5527 23.1934 23.584 36.6211 23.584 Z M 75.0488 -4.83398 C 58.4473 -4.83398 46.6797 -17.1387 46.6797 -35.6445 C 46.6797 -54.1504 58.4473 -66.4062 75.0488 -66.4062 C 91.6504 -66.4062 103.369 -54.1504 103.369 -35.6445 C 103.369 -24.9512 99.5117 -16.3574 93.0176 -11.084 L 96.1914 -6.73828 C 97.3633 -5.12695 97.7539 -4.15039 97.7539 -2.83203 C 97.7539 -0.244141 95.8496 1.61133 93.1152 1.61133 C 91.1133 1.61133 89.7461 0.830078 88.3301 -1.26953 L 84.5215 -6.44531 C 81.6406 -5.41992 78.4668 -4.83398 75.0488 -4.83398 Z M 75.0488 -14.8438 C 76.8066 -14.8438 78.3203 -15.0879 79.6875 -15.5762 L 76.9043 -19.5312 C 76.123 -20.5078 75.8301 -21.3379 75.8301 -22.3633 C 75.8301 -24.4629 77.5391 -26.0254 79.6387 -26.0254 C 80.957 -26.0254 81.7383 -25.6348 82.5195 -24.6582 L 85.791 -20.3125 C 89.0625 -23.7305 90.918 -29.0527 90.918 -35.6445 C 90.918 -48.4375 84.5215 -56.3965 75.0488 -56.3965 C 65.5762 -56.3965 59.1797 -48.4375 59.1797 -35.6445 C 59.1797 -22.8027 65.5762 -14.8438 75.0488 -14.8438 Z"/>
  </g>
  <g id="Medium-L" transform="matrix(1 0 0 1 1672.31 1556)">
   <path d="M 35.9375 22.998 L 112.5 22.998 C 125.635 22.998 132.422 16.2109 132.422 3.27148 L 132.422 -73.6328 C 132.422 -86.5234 125.635 -93.3105 112.5 -93.3105 L 35.9375 -93.3105 C 22.9004 -93.3105 16.0645 -86.5723 16.0645 -73.6328 L 16.0645 3.27148 C 16.0645 16.2598 22.9004 22.998 35.9375 22.998 Z M 74.3652 -4.98047 C 57.9102 -4.98047 46.3867 -17.3828 46.3867 -35.7422 C 46.3867 -54.0039 57.9102 -66.3574 74.3652 -66.3574 C 90.8691 -66.3574 102.344 -54.0039 102.344 -35.7422 C 102.344 -24.9023 98.3398 -16.2109 91.748 -10.9375 L 95.3613 -6.05469 C 96.4844 -4.49219 96.8262 -3.61328 96.8262 -2.49023 C 96.8262 -0.146484 95.166 1.51367 92.7246 1.51367 C 90.9668 1.51367 89.7949 0.830078 88.4766 -1.02539 L 84.2773 -6.73828 C 81.2988 -5.61523 77.9785 -4.98047 74.3652 -4.98047 Z M 74.3652 -13.7695 C 76.3184 -13.7695 78.0762 -14.0137 79.5898 -14.5508 L 76.3672 -19.0918 C 75.5859 -20.1172 75.293 -20.9473 75.293 -21.9727 C 75.293 -23.9258 76.9043 -25.4395 78.9062 -25.4395 C 80.2246 -25.4395 81.0547 -25 81.8848 -23.9258 L 85.5957 -18.9453 C 89.3066 -22.6074 91.4062 -28.4668 91.4062 -35.7422 C 91.4062 -49.0723 84.5703 -57.5684 74.3652 -57.5684 C 64.1602 -57.5684 57.3242 -49.0723 57.3242 -35.7422 C 57.3242 -22.2656 64.1602 -13.7695 74.3652 -13.7695 Z"/>
  </g>
  <g id="Regular-L" transform="matrix(1 0 0 1 1376.38 1556)">
   <path d="M 35.0586 22.2168 L 111.816 22.2168 C 124.463 22.2168 130.859 15.8691 130.859 3.41797 L 130.859 -73.7305 C 130.859 -86.1816 124.463 -92.5293 111.816 -92.5293 L 35.0586 -92.5293 C 22.4609 -92.5293 16.0645 -86.2305 16.0645 -73.7305 L 16.0645 3.41797 C 16.0645 15.918 22.4609 22.2168 35.0586 22.2168 Z M 73.4863 -5.17578 C 57.1777 -5.17578 45.9961 -17.7246 45.9961 -35.791 C 45.9961 -53.8086 57.1777 -66.3086 73.4863 -66.3086 C 89.7949 -66.3086 100.977 -53.8086 100.977 -35.791 C 100.977 -24.8535 96.875 -16.0156 90.0879 -10.7422 L 94.2383 -5.07812 C 95.3125 -3.71094 95.6055 -2.97852 95.6055 -2.00195 C 95.6055 -0.0488281 94.2383 1.36719 92.2363 1.36719 C 90.8691 1.36719 89.8438 0.78125 88.7207 -0.683594 L 83.9844 -7.12891 C 80.8105 -5.85938 77.2949 -5.17578 73.4863 -5.17578 Z M 73.4863 -12.3047 C 75.7324 -12.3047 77.6855 -12.6465 79.4434 -13.2812 L 75.6836 -18.5547 C 74.8535 -19.5801 74.5605 -20.459 74.5605 -21.3867 C 74.5605 -23.2422 76.0742 -24.6094 77.9297 -24.6094 C 79.248 -24.6094 80.127 -24.1699 81.0059 -22.998 L 85.3027 -17.1875 C 89.6484 -21.1914 92.041 -27.6855 92.041 -35.791 C 92.041 -49.8535 84.668 -59.1309 73.4863 -59.1309 C 62.3047 -59.1309 54.9316 -49.8535 54.9316 -35.791 C 54.9316 -21.582 62.3047 -12.3047 73.4863 -12.3047 Z"/>
  </g>
  <g id="Light-L" transform="matrix(1 0 0 1 1080.5 1556)">
   <path d="M 34.0332 21.4355 L 111.23 21.4355 C 123.096 21.4355 129.199 15.2344 129.199 3.56445 L 129.199 -73.8281 C 129.199 -85.5469 123.096 -91.6992 111.23 -91.6992 L 34.0332 -91.6992 C 22.168 -91.6992 16.0645 -85.6445 16.0645 -73.8281 L 16.0645 3.56445 C 16.0645 15.3809 22.168 21.4355 34.0332 21.4355 Z M 72.6562 -5.71289 C 56.7871 -5.71289 46.0938 -17.9199 46.0938 -35.6445 C 46.0938 -53.1738 56.7871 -65.332 72.6562 -65.332 C 88.5254 -65.332 99.2188 -53.1738 99.2188 -35.6445 C 99.2188 -24.5605 95.0195 -15.6738 88.0859 -10.6445 L 92.6758 -4.29688 C 93.457 -3.22266 93.7012 -2.63672 93.7012 -1.9043 C 93.7012 -0.390625 92.6758 0.732422 91.0645 0.732422 C 89.9414 0.732422 89.209 0.341797 88.3301 -0.830078 L 83.252 -7.8125 C 80.127 -6.44531 76.5625 -5.71289 72.6562 -5.71289 Z M 72.6562 -11.4258 C 75.3906 -11.4258 77.6855 -11.8164 79.7363 -12.6465 L 75.0488 -19.0918 C 74.4141 -19.9707 74.1699 -20.6543 74.1699 -21.3867 C 74.1699 -22.8516 75.3418 -23.9258 76.8066 -23.9258 C 77.8809 -23.9258 78.5645 -23.584 79.2969 -22.6074 L 84.375 -15.625 C 89.502 -19.7266 92.3828 -26.8555 92.3828 -35.6445 C 92.3828 -50.0488 84.4727 -59.668 72.6562 -59.668 C 60.8398 -59.668 52.9297 -50.0488 52.9297 -35.6445 C 52.9297 -21.0449 60.8398 -11.4258 72.6562 -11.4258 Z"/>
  </g>
  <g id="Thin-L" transform="matrix(1 0 0 1 784.889 1556)">
   <path d="M 32.666 20.3613 L 110.352 20.3613 C 121.24 20.3613 127.002 14.4531 127.002 3.75977 L 127.002 -73.9746 C 127.002 -84.7168 121.24 -90.5762 110.352 -90.5762 L 32.666 -90.5762 C 21.7773 -90.5762 16.0645 -84.8633 16.0645 -73.9746 L 16.0645 3.75977 C 16.0645 14.6484 21.7773 20.3613 32.666 20.3613 Z M 71.5332 -6.44531 C 56.2988 -6.44531 46.2402 -18.1641 46.2402 -35.4004 C 46.2402 -52.3926 56.2988 -64.0625 71.5332 -64.0625 C 86.8164 -64.0625 96.875 -52.3926 96.875 -35.4004 C 96.875 -24.1211 92.5781 -15.2832 85.4004 -10.4492 L 90.5762 -3.27148 C 91.0645 -2.63672 91.2109 -2.19727 91.2109 -1.75781 C 91.2109 -0.830078 90.5762 -0.0976562 89.502 -0.0976562 C 88.7695 -0.0976562 88.3789 -0.292969 87.793 -1.02539 L 82.2754 -8.74023 C 79.1504 -7.22656 75.5371 -6.44531 71.5332 -6.44531 Z M 71.5332 -10.2051 C 74.9023 -10.2051 77.6855 -10.6934 80.0781 -11.7676 L 74.2676 -19.873 C 73.8281 -20.5078 73.6328 -20.9473 73.6328 -21.3867 C 73.6328 -22.3633 74.4141 -23.0469 75.3418 -23.0469 C 76.0742 -23.0469 76.4648 -22.8516 77.002 -22.1191 L 83.1543 -13.623 C 89.3066 -17.8223 92.7734 -25.6836 92.7734 -35.4004 C 92.7734 -50.2441 84.1797 -60.3516 71.5332 -60.3516 C 58.8867 -60.3516 50.3418 -50.2441 50.3418 -35.4004 C 50.3418 -20.2637 58.8867 -10.2051 71.5332 -10.2051 Z"/>
  </g>
  <g id="Ultralight-L" transform="matrix(1 0 0 1 488.739 1556)">
   <path d="M 31.9824 19.7754 L 109.961 19.7754 C 120.312 19.7754 125.879 14.0625 125.879 3.85742 L 125.879 -74.0723 C 125.879 -84.2773 120.312 -89.9902 109.961 -89.9902 L 31.9824 -89.9902 C 21.582 -89.9902 16.0645 -84.4727 16.0645 -74.0723 L 16.0645 3.85742 C 16.0645 14.2578 21.582 19.7754 31.9824 19.7754 Z M 70.9961 -6.83594 C 56.0059 -6.83594 46.2891 -18.2617 46.2891 -35.3027 C 46.2891 -51.9531 56.0059 -63.4277 70.9961 -63.4277 C 85.9375 -63.4277 95.7031 -51.9531 95.7031 -35.3027 C 95.7031 -23.9258 91.3086 -15.0391 84.0332 -10.4004 L 89.4531 -2.7832 C 89.7949 -2.29492 89.9414 -1.95312 89.9414 -1.70898 C 89.9414 -1.02539 89.4531 -0.488281 88.7207 -0.488281 C 88.1836 -0.488281 87.9395 -0.585938 87.5488 -1.12305 L 81.7871 -9.17969 C 78.6621 -7.61719 75.0488 -6.83594 70.9961 -6.83594 Z M 70.9961 -9.57031 C 74.707 -9.57031 77.6855 -10.1562 80.2734 -11.3281 L 73.877 -20.2637 C 73.5352 -20.752 73.3887 -21.0938 73.3887 -21.3379 C 73.3887 -22.1191 73.9258 -22.5586 74.6094 -22.5586 C 75.1465 -22.5586 75.3906 -22.4609 75.8301 -21.875 L 82.5195 -12.5488 C 89.209 -16.8457 93.0176 -25.0977 93.0176 -35.3027 C 93.0176 -50.3418 84.082 -60.6934 70.9961 -60.6934 C 57.9102 -60.6934 48.9746 -50.3418 48.9746 -35.3027 C 48.9746 -19.873 57.9102 -9.57031 70.9961 -9.57031 Z"/>
  </g>
  <g id="Black-M" transform="matrix(1 0 0 1 2872.19 1126)">
   <path d="M 31.9824 13.5742 L 90.4297 13.5742 C 102.686 13.5742 109.961 6.29883 109.961 -5.95703 L 109.961 -64.4043 C 109.961 -76.6602 102.686 -83.9355 90.4297 -83.9355 L 31.9824 -83.9355 C 19.7266 -83.9355 12.4512 -76.6602 12.4512 -64.4043 L 12.4512 -5.95703 C 12.4512 6.29883 19.7266 13.5742 31.9824 13.5742 Z M 61.8652 -11.1328 C 48.3887 -11.1328 38.0859 -19.6777 38.0859 -35.1074 C 38.0859 -50.5371 48.3887 -59.082 61.8652 -59.082 C 75.3418 -59.082 85.6445 -50.5371 85.6445 -35.1074 C 85.6445 -27.3926 83.1055 -21.3867 78.7598 -17.2852 L 78.8574 -17.1875 C 79.9805 -15.4297 80.5176 -13.9648 80.5176 -12.4023 C 80.5176 -8.78906 77.6855 -6.20117 73.8281 -6.20117 C 70.8008 -6.20117 68.9941 -7.37305 67.2363 -10.498 L 66.6504 -11.4746 C 65.1367 -11.2793 63.5254 -11.1328 61.8652 -11.1328 Z M 61.8652 -25.6836 C 62.1094 -25.6836 62.4023 -25.6836 62.5977 -25.7812 L 62.5488 -25.9766 C 62.1582 -26.3672 61.9141 -27.002 61.9141 -27.8809 C 61.9141 -30.0293 63.623 -31.4941 65.7227 -31.4941 C 66.4551 -31.4941 66.8457 -31.3477 67.041 -31.25 L 67.334 -31.2012 C 67.5293 -32.2754 67.627 -33.6426 67.627 -35.1074 C 67.627 -41.748 64.9902 -44.5312 61.8652 -44.5312 C 58.7402 -44.5312 56.1035 -41.748 56.1035 -35.1074 C 56.1035 -28.4668 58.7402 -25.6836 61.8652 -25.6836 Z"/>
  </g>
  <g id="Heavy-M" transform="matrix(1 0 0 1 2576.39 1126)">
   <path d="M 31.0059 12.6465 L 89.6484 12.6465 C 101.416 12.6465 108.154 5.9082 108.154 -5.81055 L 108.154 -64.5508 C 108.154 -76.2695 101.416 -83.0566 89.6484 -83.0566 L 31.0059 -83.0566 C 19.2383 -83.0566 12.4512 -76.3184 12.4512 -64.5508 L 12.4512 -5.81055 C 12.4512 5.9082 19.2383 12.6465 31.0059 12.6465 Z M 60.8398 -11.2305 C 47.5098 -11.2305 37.5 -20.1172 37.5 -35.2539 C 37.5 -50.3906 47.5098 -59.2773 60.8398 -59.2773 C 74.1699 -59.2773 84.1309 -50.3906 84.1309 -35.2539 C 84.1309 -27.3926 81.4453 -21.1914 76.9043 -17.041 L 77.7344 -16.0156 C 78.8086 -14.4043 79.248 -13.1348 79.248 -11.7188 C 79.248 -8.54492 76.8066 -6.29883 73.4375 -6.29883 C 70.8008 -6.29883 69.1895 -7.27539 67.627 -10.0098 L 66.3574 -11.8652 C 64.6484 -11.4746 62.793 -11.2305 60.8398 -11.2305 Z M 60.8398 -23.877 C 61.3281 -23.877 61.8652 -23.9258 62.3535 -24.0723 L 61.7188 -25 C 61.2793 -25.5371 60.9863 -26.2207 60.9863 -27.0508 C 60.9863 -29.1504 62.5977 -30.5176 64.6484 -30.5176 C 65.4785 -30.5176 65.918 -30.3223 66.2598 -30.0293 L 67.1875 -29.0527 C 68.0176 -30.6152 68.457 -32.7637 68.457 -35.2539 C 68.457 -42.8711 65.1855 -46.6309 60.8398 -46.6309 C 56.4941 -46.6309 53.1738 -42.8711 53.1738 -35.2539 C 53.1738 -27.6367 56.4941 -23.877 60.8398 -23.877 Z"/>
  </g>
  <g id="Bold-M" transform="matrix(1 0 0 1 2280.68 1126)">
   <path d="M 29.8828 11.6699 L 88.7207 11.6699 C 99.9512 11.6699 106.152 5.46875 106.152 -5.66406 L 106.152 -64.6973 C 106.152 -75.8789 99.9512 -82.0312 88.7207 -82.0312 L 29.8828 -82.0312 C 18.6523 -82.0312 12.4512 -75.8789 12.4512 -64.6973 L 12.4512 -5.66406 C 12.4512 5.51758 18.6523 11.6699 29.8828 11.6699 Z M 59.668 -11.377 C 46.4844 -11.377 36.8652 -20.6543 36.8652 -35.4492 C 36.8652 -50.2441 46.4844 -59.4727 59.668 -59.4727 C 72.8516 -59.4727 82.4707 -50.2441 82.4707 -35.4492 C 82.4707 -27.3926 79.6387 -20.9473 74.8535 -16.7969 L 76.416 -14.7461 C 77.4414 -13.2324 77.832 -12.207 77.832 -10.9375 C 77.832 -8.30078 75.8301 -6.39648 72.998 -6.39648 C 70.8496 -6.39648 69.4824 -7.22656 68.1152 -9.42383 L 66.0645 -12.3047 C 64.1113 -11.7188 61.9629 -11.377 59.668 -11.377 Z M 59.668 -21.875 C 60.498 -21.875 61.3281 -21.9727 62.0117 -22.168 L 60.7422 -23.9746 C 60.2051 -24.6582 59.9609 -25.3418 59.9609 -26.1719 C 59.9609 -28.0762 61.5234 -29.4434 63.3789 -29.4434 C 64.3555 -29.4434 64.8926 -29.1992 65.4297 -28.6133 L 66.9922 -26.6602 C 68.5547 -28.7109 69.3848 -31.7871 69.3848 -35.4492 C 69.3848 -44.1406 65.3809 -48.9746 59.668 -48.9746 C 53.9551 -48.9746 49.9023 -44.1406 49.9023 -35.4492 C 49.9023 -26.7578 53.9551 -21.875 59.668 -21.875 Z"/>
  </g>
  <g id="Semibold-M" transform="matrix(1 0 0 1 1984.65 1126)">
   <path d="M 29.1016 10.9863 L 88.0859 10.9863 C 98.9746 10.9863 104.785 5.17578 104.785 -5.56641 L 104.785 -64.8438 C 104.785 -75.5859 98.9746 -81.3477 88.0859 -81.3477 L 29.1016 -81.3477 C 18.2617 -81.3477 12.4512 -75.5859 12.4512 -64.8438 L 12.4512 -5.56641 C 12.4512 5.22461 18.2617 10.9863 29.1016 10.9863 Z M 58.8379 -11.4746 C 45.752 -11.4746 36.4258 -20.9473 36.4258 -35.5469 C 36.4258 -50.1465 45.752 -59.6191 58.8379 -59.6191 C 71.9238 -59.6191 81.2988 -50.1465 81.2988 -35.5469 C 81.2988 -27.3926 78.3691 -20.8008 73.4375 -16.6504 L 75.5371 -13.8672 C 76.5137 -12.4512 76.8555 -11.5723 76.8555 -10.4492 C 76.8555 -8.10547 75.1465 -6.44531 72.7051 -6.44531 C 70.8984 -6.44531 69.6777 -7.12891 68.4082 -9.08203 L 65.8691 -12.5488 C 63.7207 -11.8652 61.377 -11.4746 58.8379 -11.4746 Z M 58.8379 -20.459 C 59.9121 -20.459 60.9375 -20.6055 61.8164 -20.8496 L 60.1074 -23.2422 C 59.5215 -24.0234 59.2773 -24.707 59.2773 -25.5859 C 59.2773 -27.3926 60.7422 -28.7109 62.5488 -28.7109 C 63.5742 -28.7109 64.209 -28.3691 64.7949 -27.6367 L 66.8457 -25 C 68.8965 -27.4414 70.0684 -31.1035 70.0684 -35.5469 C 70.0684 -44.9707 65.5273 -50.6348 58.8379 -50.6348 C 52.1973 -50.6348 47.6562 -44.9707 47.6562 -35.5469 C 47.6562 -26.123 52.1973 -20.459 58.8379 -20.459 Z"/>
  </g>
  <g id="Medium-M" transform="matrix(1 0 0 1 1688.47 1126)">
   <path d="M 28.5156 10.4492 L 87.6465 10.4492 C 98.2422 10.4492 103.711 4.98047 103.711 -5.46875 L 103.711 -64.8926 C 103.711 -75.3418 98.2422 -80.8105 87.6465 -80.8105 L 28.5156 -80.8105 C 17.9688 -80.8105 12.4512 -75.3906 12.4512 -64.8926 L 12.4512 -5.46875 C 12.4512 4.98047 17.9688 10.4492 28.5156 10.4492 Z M 58.252 -11.5234 C 45.2637 -11.5234 36.084 -21.2402 36.084 -35.6445 C 36.084 -50.0488 45.2637 -59.7168 58.252 -59.7168 C 71.2402 -59.7168 80.4199 -50.0488 80.4199 -35.6445 C 80.4199 -27.3926 77.3926 -20.6543 72.3633 -16.5039 L 74.8535 -13.1836 C 75.8301 -11.8164 76.123 -11.084 76.123 -10.0098 C 76.123 -7.95898 74.6094 -6.49414 72.4609 -6.49414 C 70.8984 -6.49414 69.8242 -7.12891 68.6523 -8.78906 L 65.7227 -12.793 C 63.4277 -11.9629 60.9375 -11.5234 58.252 -11.5234 Z M 58.252 -19.3848 C 59.4727 -19.3848 60.5957 -19.5312 61.6211 -19.873 L 59.6191 -22.7051 C 58.9844 -23.5352 58.7402 -24.2676 58.7402 -25.1465 C 58.7402 -26.8555 60.1562 -28.125 61.8652 -28.125 C 62.9883 -28.125 63.6719 -27.7832 64.3555 -26.9043 L 66.7969 -23.7305 C 69.1895 -26.4648 70.5566 -30.5664 70.5566 -35.6445 C 70.5566 -45.6055 65.625 -51.8555 58.252 -51.8555 C 50.8789 -51.8555 45.9473 -45.6055 45.9473 -35.6445 C 45.9473 -25.6348 50.8789 -19.3848 58.252 -19.3848 Z"/>
  </g>
  <g id="Regular-M" transform="matrix(1 0 0 1 1392.45 1126)">
   <path d="M 27.7832 9.76562 L 87.0117 9.76562 C 97.2656 9.76562 102.344 4.6875 102.344 -5.37109 L 102.344 -64.9902 C 102.344 -75.0488 97.2656 -80.127 87.0117 -80.127 L 27.7832 -80.127 C 17.5781 -80.127 12.4512 -75.0977 12.4512 -64.9902 L 12.4512 -5.37109 C 12.4512 4.73633 17.5781 9.76562 27.7832 9.76562 Z M 57.4219 -11.6211 C 44.5312 -11.6211 35.5957 -21.582 35.5957 -35.7422 C 35.5957 -49.9512 44.5312 -59.8633 57.4219 -59.8633 C 70.3125 -59.8633 79.248 -49.9512 79.248 -35.7422 C 79.248 -27.3438 76.123 -20.5078 70.9473 -16.3574 L 73.9746 -12.3047 C 74.9023 -11.0352 75.1953 -10.4492 75.1953 -9.52148 C 75.1953 -7.76367 73.9746 -6.54297 72.168 -6.54297 C 70.8984 -6.54297 69.9707 -7.03125 68.9941 -8.39844 L 65.4785 -13.0859 C 63.0859 -12.1582 60.3516 -11.6211 57.4219 -11.6211 Z M 57.4219 -18.0176 C 58.8867 -18.0176 60.2051 -18.2129 61.4258 -18.6035 L 58.9844 -21.9727 C 58.3008 -22.9004 58.0078 -23.6328 58.0078 -24.5117 C 58.0078 -26.123 59.375 -27.3926 61.0352 -27.3926 C 62.207 -27.3926 62.9883 -27.002 63.7695 -25.9766 L 66.6504 -22.1191 C 69.5312 -25.1465 71.1914 -29.8828 71.1914 -35.7422 C 71.1914 -46.4844 65.7715 -53.4668 57.4219 -53.4668 C 49.1211 -53.4668 43.7012 -46.4844 43.7012 -35.7422 C 43.7012 -25 49.1211 -18.0176 57.4219 -18.0176 Z"/>
  </g>
  <g id="Light-M" transform="matrix(1 0 0 1 1096.47 1126)">
   <path d="M 26.8555 9.0332 L 86.4746 9.0332 C 95.9961 9.0332 100.879 4.15039 100.879 -5.22461 L 100.879 -65.0879 C 100.879 -74.5117 95.9961 -79.3945 86.4746 -79.3945 L 26.8555 -79.3945 C 17.334 -79.3945 12.4512 -74.5605 12.4512 -65.0879 L 12.4512 -5.22461 C 12.4512 4.19922 17.334 9.0332 26.8555 9.0332 Z M 56.6895 -12.1094 C 44.1895 -12.1094 35.6934 -21.7285 35.6934 -35.5957 C 35.6934 -49.4141 44.1895 -58.9844 56.6895 -58.9844 C 69.1895 -58.9844 77.6855 -49.4141 77.6855 -35.5957 C 77.6855 -27.0996 74.4629 -20.2148 69.1406 -16.2109 L 72.5098 -11.6211 C 73.2422 -10.6445 73.4863 -10.1562 73.4863 -9.42383 C 73.4863 -8.05664 72.5098 -7.08008 71.0938 -7.08008 C 70.1172 -7.08008 69.4336 -7.4707 68.6035 -8.49609 L 64.8438 -13.6719 C 62.4023 -12.6465 59.668 -12.1094 56.6895 -12.1094 Z M 56.6895 -17.1875 C 58.5938 -17.1875 60.2051 -17.4316 61.6699 -18.0176 L 58.4473 -22.4609 C 57.8613 -23.2422 57.666 -23.8281 57.666 -24.5117 C 57.666 -25.8301 58.7402 -26.8066 60.0098 -26.8066 C 60.9863 -26.8066 61.5723 -26.4648 62.207 -25.6348 L 65.8203 -20.752 C 69.4336 -23.877 71.4355 -29.1016 71.4355 -35.5957 C 71.4355 -46.6309 65.5762 -53.9062 56.6895 -53.9062 C 47.8027 -53.9062 41.8945 -46.6309 41.8945 -35.5957 C 41.8945 -24.4629 47.8027 -17.1875 56.6895 -17.1875 Z"/>
  </g>
  <g id="Thin-M" transform="matrix(1 0 0 1 800.758 1126)">
   <path d="M 25.6348 8.05664 L 85.7422 8.05664 C 94.3848 8.05664 98.877 3.4668 98.877 -5.0293 L 98.877 -65.2344 C 98.877 -73.7305 94.3848 -78.3691 85.7422 -78.3691 L 25.6348 -78.3691 C 16.9922 -78.3691 12.4512 -73.877 12.4512 -65.2344 L 12.4512 -5.0293 C 12.4512 3.56445 16.9922 8.05664 25.6348 8.05664 Z M 55.6641 -12.7441 C 43.7012 -12.7441 35.791 -21.9238 35.791 -35.4004 C 35.791 -48.6816 43.7012 -57.8613 55.6641 -57.8613 C 67.627 -57.8613 75.5859 -48.6816 75.5859 -35.4004 C 75.5859 -26.709 72.2656 -19.873 66.748 -16.0645 L 70.6055 -10.6934 C 71.0938 -10.1074 71.2402 -9.7168 71.2402 -9.32617 C 71.2402 -8.44727 70.6055 -7.8125 69.7266 -7.8125 C 69.043 -7.8125 68.6523 -8.00781 68.1641 -8.69141 L 63.9648 -14.502 C 61.5234 -13.3789 58.7402 -12.7441 55.6641 -12.7441 Z M 55.6641 -16.0645 C 58.1543 -16.0645 60.2051 -16.4551 61.9629 -17.2363 L 57.7148 -23.1445 C 57.3242 -23.6816 57.1777 -24.1211 57.1777 -24.5117 C 57.1777 -25.3906 57.8613 -25.9766 58.6914 -25.9766 C 59.3262 -25.9766 59.7168 -25.7812 60.1562 -25.1953 L 64.6973 -18.8965 C 69.2383 -22.168 71.8262 -28.0762 71.8262 -35.4004 C 71.8262 -46.8262 65.2832 -54.541 55.6641 -54.541 C 46.0449 -54.541 39.5508 -46.8262 39.5508 -35.4004 C 39.5508 -23.7793 46.0449 -16.0645 55.6641 -16.0645 Z"/>
  </g>
  <g id="Ultralight-M" transform="matrix(1 0 0 1 504.535 1126)">
   <path d="M 25 7.56836 L 85.3516 7.56836 C 93.5059 7.56836 97.9004 3.125 97.9004 -4.98047 L 97.9004 -65.2832 C 97.9004 -73.3887 93.5059 -77.832 85.3516 -77.832 L 25 -77.832 C 16.7969 -77.832 12.4512 -73.4863 12.4512 -65.2832 L 12.4512 -4.98047 C 12.4512 3.22266 16.7969 7.56836 25 7.56836 Z M 55.1758 -13.0859 C 43.457 -13.0859 35.8398 -22.0703 35.8398 -35.3027 C 35.8398 -48.3398 43.457 -57.2754 55.1758 -57.2754 C 66.8457 -57.2754 74.5117 -48.3398 74.5117 -35.3027 C 74.5117 -26.5137 71.1426 -19.6777 65.5273 -16.0156 L 69.6777 -10.2539 C 69.9707 -9.81445 70.0684 -9.52148 70.0684 -9.27734 C 70.0684 -8.64258 69.6777 -8.20312 68.9941 -8.20312 C 68.5059 -8.20312 68.2617 -8.30078 67.9199 -8.78906 L 63.5254 -14.8926 C 61.084 -13.7207 58.3008 -13.0859 55.1758 -13.0859 Z M 55.1758 -15.5273 C 57.959 -15.5273 60.2051 -15.9668 62.1582 -16.8457 L 57.373 -23.4863 C 57.0801 -23.9258 56.9336 -24.2188 56.9336 -24.4629 C 56.9336 -25.1465 57.4219 -25.5859 58.0078 -25.5859 C 58.4961 -25.5859 58.7402 -25.4395 59.1309 -24.9512 L 64.1602 -17.9688 C 69.1895 -21.2891 71.9727 -27.5391 71.9727 -35.3027 C 71.9727 -46.9238 65.1855 -54.834 55.1758 -54.834 C 45.166 -54.834 38.3301 -46.9238 38.3301 -35.3027 C 38.3301 -23.4375 45.166 -15.5273 55.1758 -15.5273 Z"/>
  </g>
  <g id="Black-S" transform="matrix(1 0 0 1 2885.5 696)">
   <path d="M 25 2.92969 L 70.8008 2.92969 C 80.3711 2.92969 86.0352 -2.73438 86.0352 -12.3047 L 86.0352 -58.1055 C 86.0352 -67.6758 80.3711 -73.3398 70.8008 -73.3398 L 25 -73.3398 C 15.4297 -73.3398 9.76562 -67.6758 9.76562 -58.1055 L 9.76562 -12.3047 C 9.76562 -2.73438 15.4297 2.92969 25 2.92969 Z M 48.3887 -16.3574 C 37.8418 -16.3574 29.7852 -23.0957 29.7852 -35.1562 C 29.7852 -47.2168 37.8418 -53.9551 48.3887 -53.9551 C 58.9355 -53.9551 66.9922 -47.2168 66.9922 -35.1562 C 66.9922 -29.1016 64.9902 -24.3652 61.5723 -21.1426 L 61.7188 -20.9961 C 62.5977 -19.6289 62.9883 -18.5059 62.9883 -17.2852 C 62.9883 -14.502 60.791 -12.5 57.8125 -12.5 C 55.4688 -12.5 54.0527 -13.3789 52.6855 -15.8203 L 52.1973 -16.6504 C 50.9766 -16.4551 49.707 -16.3574 48.3887 -16.3574 Z M 48.3887 -27.6367 C 48.584 -27.6367 48.8281 -27.6367 49.0234 -27.6855 L 48.9258 -27.8809 C 48.6328 -28.2227 48.4375 -28.7109 48.4375 -29.3945 C 48.4375 -31.1035 49.7559 -32.2266 51.416 -32.2266 C 52.002 -32.2266 52.2949 -32.1289 52.4902 -32.0312 L 52.7344 -31.9336 C 52.9297 -32.8125 53.0273 -33.9355 53.0273 -35.1562 C 53.0273 -40.4297 50.9277 -42.6758 48.3887 -42.6758 C 45.8496 -42.6758 43.75 -40.4297 43.75 -35.1562 C 43.75 -29.8828 45.8496 -27.6367 48.3887 -27.6367 Z"/>
  </g>
  <g id="Heavy-S" transform="matrix(1 0 0 1 2589.4 696)">
   <path d="M 24.3652 2.34375 L 70.2637 2.34375 C 79.541 2.34375 84.8145 -2.97852 84.8145 -12.207 L 84.8145 -58.2031 C 84.8145 -67.4316 79.541 -72.7539 70.2637 -72.7539 L 24.3652 -72.7539 C 15.0879 -72.7539 9.76562 -67.4316 9.76562 -58.2031 L 9.76562 -12.207 C 9.76562 -2.97852 15.0879 2.34375 24.3652 2.34375 Z M 47.6562 -16.4062 C 37.207 -16.4062 29.3457 -23.3887 29.3457 -35.3027 C 29.3457 -47.168 37.207 -54.1992 47.6562 -54.1992 C 58.1543 -54.1992 66.0156 -47.168 66.0156 -35.3027 C 66.0156 -29.1016 63.916 -24.2188 60.3516 -20.9961 L 60.9863 -20.2148 C 61.8652 -18.8965 62.207 -17.9199 62.207 -16.7969 C 62.207 -14.3066 60.3027 -12.5 57.6172 -12.5 C 55.5664 -12.5 54.2969 -13.2812 53.0273 -15.4297 L 52.0508 -16.8457 C 50.6836 -16.5527 49.2188 -16.4062 47.6562 -16.4062 Z M 47.6562 -26.3184 C 48.0469 -26.3184 48.4375 -26.3672 48.7793 -26.4648 L 48.3398 -27.0996 C 47.998 -27.5391 47.7539 -28.0762 47.7539 -28.8086 C 47.7539 -30.4199 49.0723 -31.543 50.6836 -31.543 C 51.3672 -31.543 51.7578 -31.3965 52.0508 -31.1035 L 52.6855 -30.4199 C 53.3203 -31.6895 53.6621 -33.3496 53.6621 -35.3027 C 53.6621 -41.2598 51.0742 -44.2383 47.6562 -44.2383 C 44.2383 -44.2383 41.6992 -41.2598 41.6992 -35.3027 C 41.6992 -29.2969 44.2383 -26.3184 47.6562 -26.3184 Z"/>
  </g>
  <g id="Bold-S" transform="matrix(1 0 0 1 2293.35 696)">
   <path d="M 23.6328 1.66016 L 69.6289 1.66016 C 78.6133 1.66016 83.4961 -3.22266 83.4961 -12.1094 L 83.4961 -58.3008 C 83.4961 -67.1875 78.6133 -72.0703 69.6289 -72.0703 L 23.6328 -72.0703 C 14.6973 -72.0703 9.76562 -67.1875 9.76562 -58.3008 L 9.76562 -12.1094 C 9.76562 -3.22266 14.6973 1.66016 23.6328 1.66016 Z M 46.875 -16.4062 C 36.4746 -16.4062 28.8086 -23.7793 28.8086 -35.4492 C 28.8086 -47.1191 36.4746 -54.4434 46.875 -54.4434 C 57.2754 -54.4434 64.9414 -47.1191 64.9414 -35.4492 C 64.9414 -29.1504 62.6953 -24.1211 59.0332 -20.8008 L 60.1562 -19.2871 C 61.0352 -18.0664 61.3281 -17.2363 61.3281 -16.2109 C 61.3281 -14.0137 59.7168 -12.5 57.4219 -12.5 C 55.7129 -12.5 54.5898 -13.1836 53.4668 -14.9902 L 51.9043 -17.0898 C 50.3418 -16.6504 48.6816 -16.4062 46.875 -16.4062 Z M 46.875 -24.9023 C 47.4609 -24.9023 47.998 -24.9512 48.5352 -25.0977 L 47.7051 -26.2207 C 47.2168 -26.8066 47.0215 -27.3926 47.0215 -28.125 C 47.0215 -29.6875 48.291 -30.8105 49.8535 -30.8105 C 50.6836 -30.8105 51.1719 -30.5664 51.6113 -30.0781 L 52.6855 -28.7598 C 53.7109 -30.3711 54.3457 -32.666 54.3457 -35.4492 C 54.3457 -42.1875 51.2695 -45.9961 46.875 -45.9961 C 42.4805 -45.9961 39.4043 -42.1875 39.4043 -35.4492 C 39.4043 -28.6621 42.4805 -24.9023 46.875 -24.9023 Z"/>
  </g>
  <g id="Semibold-S" transform="matrix(1 0 0 1 1997.1 696)">
   <path d="M 23.0957 1.17188 L 69.1895 1.17188 C 77.9297 1.17188 82.5684 -3.36914 82.5684 -12.0117 L 82.5684 -58.3984 C 82.5684 -67.041 77.9297 -71.582 69.1895 -71.582 L 23.0957 -71.582 C 14.4043 -71.582 9.76562 -67.041 9.76562 -58.3984 L 9.76562 -12.0117 C 9.76562 -3.36914 14.4043 1.17188 23.0957 1.17188 Z M 46.3379 -16.4551 C 35.9375 -16.4551 28.4668 -24.0234 28.4668 -35.5469 C 28.4668 -47.0703 35.9375 -54.6387 46.3379 -54.6387 C 56.6895 -54.6387 64.1602 -47.0703 64.1602 -35.5469 C 64.1602 -29.1504 61.9141 -24.0234 58.1055 -20.7031 L 59.6191 -18.7012 C 60.4492 -17.4805 60.7422 -16.7969 60.7422 -15.8203 C 60.7422 -13.8672 59.3262 -12.5 57.2754 -12.5 C 55.8105 -12.5 54.7852 -13.0859 53.7109 -14.6484 L 51.8066 -17.2852 C 50.0977 -16.748 48.291 -16.4551 46.3379 -16.4551 Z M 46.3379 -23.877 C 47.0215 -23.877 47.7051 -23.9746 48.3398 -24.1211 L 47.2656 -25.6348 C 46.7285 -26.3184 46.5332 -26.9043 46.5332 -27.6855 C 46.5332 -29.1504 47.7539 -30.2734 49.2676 -30.2734 C 50.1953 -30.2734 50.7324 -30.0293 51.2695 -29.3457 L 52.6367 -27.6367 C 54.0039 -29.4922 54.7852 -32.2266 54.7852 -35.5469 C 54.7852 -42.8223 51.3672 -47.168 46.3379 -47.168 C 41.2598 -47.168 37.8418 -42.8223 37.8418 -35.5469 C 37.8418 -28.2227 41.2598 -23.877 46.3379 -23.877 Z"/>
  </g>
  <g id="Medium-S" transform="matrix(1 0 0 1 1700.75 696)">
   <path d="M 22.7051 0.830078 L 68.8965 0.830078 C 77.4414 0.830078 81.8359 -3.51562 81.8359 -11.9629 L 81.8359 -58.4473 C 81.8359 -66.8945 77.4414 -71.2402 68.8965 -71.2402 L 22.7051 -71.2402 C 14.209 -71.2402 9.76562 -66.8945 9.76562 -58.4473 L 9.76562 -11.9629 C 9.76562 -3.51562 14.209 0.830078 22.7051 0.830078 Z M 45.8984 -16.4551 C 35.5469 -16.4551 28.2227 -24.2188 28.2227 -35.5957 C 28.2227 -47.0703 35.5469 -54.7852 45.8984 -54.7852 C 56.25 -54.7852 63.5742 -47.0703 63.5742 -35.5957 C 63.5742 -29.1992 61.2793 -23.9258 57.373 -20.6055 L 59.1797 -18.2129 C 60.0586 -17.041 60.3027 -16.4062 60.3027 -15.5273 C 60.3027 -13.7207 59.0332 -12.5 57.1777 -12.5 C 55.8594 -12.5 54.9316 -13.0371 53.9551 -14.4531 L 51.709 -17.4316 C 49.9512 -16.7969 47.998 -16.4551 45.8984 -16.4551 Z M 45.8984 -23.1445 C 46.7285 -23.1445 47.4609 -23.1934 48.1934 -23.3887 L 46.9238 -25.1953 C 46.3379 -25.9277 46.1426 -26.5137 46.1426 -27.2949 C 46.1426 -28.7598 47.3633 -29.8828 48.877 -29.8828 C 49.8047 -29.8828 50.4395 -29.5898 51.0254 -28.8086 L 52.6367 -26.7578 C 54.248 -28.8574 55.1758 -31.8848 55.1758 -35.5957 C 55.1758 -43.3105 51.4648 -48.0957 45.8984 -48.0957 C 40.332 -48.0957 36.6699 -43.3105 36.6699 -35.5957 C 36.6699 -27.8809 40.332 -23.1445 45.8984 -23.1445 Z"/>
  </g>
  <g id="Regular-S" transform="matrix(1 0 0 1 1404.51 696)">
   <path d="M 22.2168 0.390625 L 68.457 0.390625 C 76.8066 0.390625 80.9082 -3.71094 80.9082 -11.9141 L 80.9082 -58.4961 C 80.9082 -66.6992 76.8066 -70.8008 68.457 -70.8008 L 22.2168 -70.8008 C 13.916 -70.8008 9.76562 -66.6992 9.76562 -58.4961 L 9.76562 -11.9141 C 9.76562 -3.71094 13.916 0.390625 22.2168 0.390625 Z M 45.3613 -16.5039 C 35.0586 -16.5039 27.832 -24.4629 27.832 -35.7422 C 27.832 -47.0215 35.0586 -54.9316 45.3613 -54.9316 C 55.6641 -54.9316 62.8418 -47.0215 62.8418 -35.7422 C 62.8418 -29.1992 60.4492 -23.8281 56.4453 -20.5078 L 58.6426 -17.627 C 59.4727 -16.5039 59.7168 -15.9668 59.7168 -15.1367 C 59.7168 -13.5742 58.6426 -12.5 57.0312 -12.5 C 55.957 -12.5 55.0781 -12.9395 54.1992 -14.1113 L 51.6113 -17.5781 C 49.707 -16.8945 47.6074 -16.5039 45.3613 -16.5039 Z M 45.3613 -22.1191 C 46.2891 -22.1191 47.168 -22.2656 47.998 -22.4609 L 46.4844 -24.6094 C 45.8496 -25.3906 45.6055 -26.0742 45.6055 -26.8555 C 45.6055 -28.2715 46.8262 -29.3945 48.291 -29.3945 C 49.3164 -29.3945 50.0488 -29.0039 50.6836 -28.125 L 52.6367 -25.6348 C 54.541 -27.9785 55.6152 -31.4453 55.6152 -35.7422 C 55.6152 -43.9453 51.6113 -49.2676 45.3613 -49.2676 C 39.1113 -49.2676 35.1074 -43.9453 35.1074 -35.7422 C 35.1074 -27.4414 39.1113 -22.1191 45.3613 -22.1191 Z"/>
  </g>
  <g id="Light-S" transform="matrix(1 0 0 1 1108.46 696)">
   <path d="M 21.3867 -0.292969 L 67.9688 -0.292969 C 75.7324 -0.292969 79.5898 -4.15039 79.5898 -11.7676 L 79.5898 -58.5938 C 79.5898 -66.2109 75.7324 -70.1172 67.9688 -70.1172 L 21.3867 -70.1172 C 13.6719 -70.1172 9.76562 -66.2598 9.76562 -58.5938 L 9.76562 -11.7676 C 9.76562 -4.15039 13.6719 -0.292969 21.3867 -0.292969 Z M 44.6777 -16.9434 C 34.7656 -16.9434 27.9297 -24.6094 27.9297 -35.5957 C 27.9297 -46.5332 34.7656 -54.1992 44.6777 -54.1992 C 54.6387 -54.1992 61.4746 -46.5332 61.4746 -35.5957 C 61.4746 -28.9551 58.9844 -23.584 54.8828 -20.4102 L 57.373 -16.9922 C 58.0078 -16.1133 58.2031 -15.6738 58.2031 -15.0391 C 58.2031 -13.8184 57.373 -12.9883 56.1035 -12.9883 C 55.2246 -12.9883 54.5898 -13.3301 53.9062 -14.2578 L 51.0254 -18.1152 C 49.1211 -17.334 47.0215 -16.9434 44.6777 -16.9434 Z M 44.6777 -21.3867 C 45.9961 -21.3867 47.168 -21.582 48.1934 -21.9727 L 45.9961 -25.0488 C 45.5078 -25.6836 45.3125 -26.2207 45.3125 -26.8555 C 45.3125 -27.9785 46.2402 -28.8574 47.4121 -28.8574 C 48.2422 -28.8574 48.7793 -28.5645 49.3164 -27.832 L 51.9043 -24.4141 C 54.4434 -26.8066 55.8594 -30.7129 55.8594 -35.5957 C 55.8594 -44.0918 51.416 -49.707 44.6777 -49.707 C 37.9395 -49.707 33.4961 -44.0918 33.4961 -35.5957 C 33.4961 -27.002 37.9395 -21.3867 44.6777 -21.3867 Z"/>
  </g>
  <g id="Thin-S" transform="matrix(1 0 0 1 812.599 696)">
   <path d="M 20.3125 -1.12305 L 67.334 -1.12305 C 74.2676 -1.12305 77.8809 -4.78516 77.8809 -11.6211 L 77.8809 -58.6914 C 77.8809 -65.5762 74.2676 -69.2383 67.334 -69.2383 L 20.3125 -69.2383 C 13.3789 -69.2383 9.76562 -65.625 9.76562 -58.6914 L 9.76562 -11.6211 C 9.76562 -4.6875 13.3789 -1.12305 20.3125 -1.12305 Z M 43.7988 -17.4805 C 34.3262 -17.4805 28.0273 -24.7559 28.0273 -35.4004 C 28.0273 -45.8984 34.3262 -53.1738 43.7988 -53.1738 C 53.2715 -53.1738 59.6191 -45.8984 59.6191 -35.4004 C 59.6191 -28.6133 57.0312 -23.2422 52.7344 -20.2637 L 55.7129 -16.2109 C 56.1035 -15.625 56.25 -15.332 56.25 -14.9414 C 56.25 -14.1602 55.7129 -13.623 54.8828 -13.623 C 54.2969 -13.623 53.9551 -13.8184 53.4668 -14.4043 L 50.293 -18.8477 C 48.3887 -17.9688 46.1914 -17.4805 43.7988 -17.4805 Z M 43.7988 -20.459 C 45.6543 -20.459 47.168 -20.7031 48.4863 -21.2891 L 45.3613 -25.6348 C 45.0195 -26.123 44.873 -26.4648 44.873 -26.8066 C 44.873 -27.5879 45.5078 -28.125 46.2402 -28.125 C 46.8262 -28.125 47.1191 -27.9785 47.5098 -27.4414 L 50.9277 -22.8027 C 54.2969 -25.3418 56.2012 -29.834 56.2012 -35.4004 C 56.2012 -44.2871 51.2207 -50.2441 43.7988 -50.2441 C 36.4258 -50.2441 31.4453 -44.2871 31.4453 -35.4004 C 31.4453 -26.416 36.4258 -20.459 43.7988 -20.459 Z"/>
  </g>
  <g id="Ultralight-S" transform="matrix(1 0 0 1 516.352 696)">
   <path d="M 19.7754 -1.5625 L 66.9922 -1.5625 C 73.5352 -1.5625 76.9531 -5.12695 76.9531 -11.5234 L 76.9531 -58.7891 C 76.9531 -65.2344 73.5352 -68.75 66.9922 -68.75 L 19.7754 -68.75 C 13.2324 -68.75 9.76562 -65.2832 9.76562 -58.7891 L 9.76562 -11.5234 C 9.76562 -5.0293 13.2324 -1.5625 19.7754 -1.5625 Z M 43.3594 -17.8223 C 34.1309 -17.8223 28.0762 -24.9023 28.0762 -35.3027 C 28.0762 -45.6055 34.1309 -52.6367 43.3594 -52.6367 C 52.5879 -52.6367 58.6914 -45.6055 58.6914 -35.3027 C 58.6914 -28.4668 56.0547 -23.0957 51.6602 -20.166 L 54.834 -15.7715 C 55.127 -15.3809 55.2246 -15.1367 55.2246 -14.8926 C 55.2246 -14.3555 54.834 -13.916 54.248 -13.916 C 53.8086 -13.916 53.6133 -14.0625 53.2715 -14.502 L 49.9023 -19.1895 C 47.998 -18.3105 45.8008 -17.8223 43.3594 -17.8223 Z M 43.3594 -19.9219 C 45.459 -19.9219 47.168 -20.2637 48.6328 -20.9473 L 45.0684 -25.9766 C 44.7754 -26.3184 44.6777 -26.5625 44.6777 -26.8066 C 44.6777 -27.3926 45.1172 -27.7832 45.6543 -27.7832 C 46.0938 -27.7832 46.2891 -27.6367 46.582 -27.2461 L 50.3906 -21.9727 C 54.1992 -24.5605 56.3477 -29.3457 56.3477 -35.3027 C 56.3477 -44.3848 51.123 -50.5371 43.3594 -50.5371 C 35.6445 -50.5371 30.3711 -44.3848 30.3711 -35.3027 C 30.3711 -26.0742 35.6445 -19.9219 43.3594 -19.9219 Z"/>
  </g>
 </g>
</svg>
