<?xml version="1.0" encoding="UTF-8"?>
<!--Generator: Apple Native CoreSVG 148-->
<!DOCTYPE svg
PUBLIC "-//W3C//DTD SVG 1.1//EN"
       "http://www.w3.org/Graphics/SVG/1.1/DTD/svg11.dtd">
<svg version="1.1" xmlns="http://www.w3.org/2000/svg" xmlns:xlink="http://www.w3.org/1999/xlink" width="3300" height="2200">
 <!--glyph: "uni10032F.medium", point size: 100.000000, font version: "Version 16.0d11e1", template writer version: "8"-->
 <g id="Notes">
  <rect height="2200" id="artboard" style="fill:white;opacity:1" width="3300" x="0" y="0"/>
  <line id="" style="fill:none;stroke:black;opacity:1;stroke-width:0.5;" x1="263" x2="3036" y1="292" y2="292"/>
  <text style="stroke:none;fill:black;font-family:-apple-system,&quot;SF Pro Display&quot;,&quot;SF Pro Text&quot;,Helvetica,sans-serif;font-weight:bold;" transform="matrix(1 0 0 1 263 322)">Weight/Scale Variations</text>
  <text style="stroke:none;fill:black;font-family:-apple-system,&quot;SF Pro Display&quot;,&quot;SF Pro Text&quot;,Helvetica,sans-serif;text-anchor:middle;" transform="matrix(1 0 0 1 559.711 322)">Ultralight</text>
  <text style="stroke:none;fill:black;font-family:-apple-system,&quot;SF Pro Display&quot;,&quot;SF Pro Text&quot;,Helvetica,sans-serif;text-anchor:middle;" transform="matrix(1 0 0 1 856.422 322)">Thin</text>
  <text style="stroke:none;fill:black;font-family:-apple-system,&quot;SF Pro Display&quot;,&quot;SF Pro Text&quot;,Helvetica,sans-serif;text-anchor:middle;" transform="matrix(1 0 0 1 1153.13 322)">Light</text>
  <text style="stroke:none;fill:black;font-family:-apple-system,&quot;SF Pro Display&quot;,&quot;SF Pro Text&quot;,Helvetica,sans-serif;text-anchor:middle;" transform="matrix(1 0 0 1 1449.84 322)">Regular</text>
  <text style="stroke:none;fill:black;font-family:-apple-system,&quot;SF Pro Display&quot;,&quot;SF Pro Text&quot;,Helvetica,sans-serif;text-anchor:middle;" transform="matrix(1 0 0 1 1746.56 322)">Medium</text>
  <text style="stroke:none;fill:black;font-family:-apple-system,&quot;SF Pro Display&quot;,&quot;SF Pro Text&quot;,Helvetica,sans-serif;text-anchor:middle;" transform="matrix(1 0 0 1 2043.27 322)">Semibold</text>
  <text style="stroke:none;fill:black;font-family:-apple-system,&quot;SF Pro Display&quot;,&quot;SF Pro Text&quot;,Helvetica,sans-serif;text-anchor:middle;" transform="matrix(1 0 0 1 2339.98 322)">Bold</text>
  <text style="stroke:none;fill:black;font-family:-apple-system,&quot;SF Pro Display&quot;,&quot;SF Pro Text&quot;,Helvetica,sans-serif;text-anchor:middle;" transform="matrix(1 0 0 1 2636.69 322)">Heavy</text>
  <text style="stroke:none;fill:black;font-family:-apple-system,&quot;SF Pro Display&quot;,&quot;SF Pro Text&quot;,Helvetica,sans-serif;text-anchor:middle;" transform="matrix(1 0 0 1 2933.4 322)">Black</text>
  <line id="" style="fill:none;stroke:black;opacity:1;stroke-width:0.5;" x1="263" x2="3036" y1="1903" y2="1903"/>
  <g id="" transform="matrix(1 0 0 1 263 1933)">
   <path d="M 9.24805 0.830078 C 13.5547 0.830078 17.1387 -2.74414 17.1387 -7.05078 C 17.1387 -11.3574 13.5449 -14.9316 9.23828 -14.9316 C 4.94141 -14.9316 1.36719 -11.3574 1.36719 -7.05078 C 1.36719 -2.74414 4.95117 0.830078 9.24805 0.830078 Z M 9.24805 -0.654297 C 5.70312 -0.654297 2.87109 -3.49609 2.87109 -7.05078 C 2.87109 -10.6055 5.69336 -13.4473 9.23828 -13.4473 C 12.793 -13.4473 15.6348 -10.6055 15.6445 -7.05078 C 15.6543 -3.49609 12.8027 -0.654297 9.24805 -0.654297 Z M 9.22852 -3.62305 C 9.69727 -3.62305 9.9707 -3.93555 9.9707 -4.45312 L 9.9707 -6.31836 L 12.002 -6.31836 C 12.5 -6.31836 12.832 -6.57227 12.832 -7.04102 C 12.832 -7.51953 12.5195 -7.7832 12.002 -7.7832 L 9.9707 -7.7832 L 9.9707 -9.81445 C 9.9707 -10.332 9.69727 -10.6543 9.22852 -10.6543 C 8.75977 -10.6543 8.50586 -10.3125 8.50586 -9.81445 L 8.50586 -7.7832 L 6.49414 -7.7832 C 5.97656 -7.7832 5.64453 -7.51953 5.64453 -7.04102 C 5.64453 -6.57227 5.99609 -6.31836 6.49414 -6.31836 L 8.50586 -6.31836 L 8.50586 -4.45312 C 8.50586 -3.95508 8.75977 -3.62305 9.22852 -3.62305 Z"/>
  </g>
  <g id="" transform="matrix(1 0 0 1 281.506 1933)">
   <path d="M 11.709 2.91016 C 17.1582 2.91016 21.6699 -1.61133 21.6699 -7.05078 C 21.6699 -12.5 17.1484 -17.0117 11.6992 -17.0117 C 6.25977 -17.0117 1.74805 -12.5 1.74805 -7.05078 C 1.74805 -1.61133 6.26953 2.91016 11.709 2.91016 Z M 11.709 1.25 C 7.09961 1.25 3.41797 -2.44141 3.41797 -7.05078 C 3.41797 -11.6602 7.08984 -15.3516 11.6992 -15.3516 C 16.3086 -15.3516 20 -11.6602 20.0098 -7.05078 C 20.0195 -2.44141 16.3184 1.25 11.709 1.25 Z M 11.6797 -2.66602 C 12.207 -2.66602 12.5098 -3.01758 12.5098 -3.59375 L 12.5098 -6.23047 L 15.3223 -6.23047 C 15.8691 -6.23047 16.25 -6.51367 16.25 -7.03125 C 16.25 -7.55859 15.8887 -7.86133 15.3223 -7.86133 L 12.5098 -7.86133 L 12.5098 -10.6836 C 12.5098 -11.25 12.207 -11.6113 11.6797 -11.6113 C 11.1621 -11.6113 10.8789 -11.2305 10.8789 -10.6836 L 10.8789 -7.86133 L 8.07617 -7.86133 C 7.50977 -7.86133 7.13867 -7.55859 7.13867 -7.03125 C 7.13867 -6.51367 7.5293 -6.23047 8.07617 -6.23047 L 10.8789 -6.23047 L 10.8789 -3.59375 C 10.8789 -3.03711 11.1621 -2.66602 11.6797 -2.66602 Z"/>
  </g>
  <g id="" transform="matrix(1 0 0 1 304.924 1933)">
   <path d="M 14.9707 5.66406 C 21.9336 5.66406 27.6953 -0.0976562 27.6953 -7.05078 C 27.6953 -14.0137 21.9238 -19.7754 14.9609 -19.7754 C 8.00781 -19.7754 2.25586 -14.0137 2.25586 -7.05078 C 2.25586 -0.0976562 8.01758 5.66406 14.9707 5.66406 Z M 14.9707 3.84766 C 8.93555 3.84766 4.08203 -1.01562 4.08203 -7.05078 C 4.08203 -13.0957 8.92578 -17.9492 14.9609 -17.9492 C 21.0059 -17.9492 25.8594 -13.0957 25.8691 -7.05078 C 25.8789 -1.01562 21.0156 3.84766 14.9707 3.84766 Z M 14.9414 -1.38672 C 15.5176 -1.38672 15.8594 -1.77734 15.8594 -2.38281 L 15.8594 -6.13281 L 19.7754 -6.13281 C 20.3711 -6.13281 20.7812 -6.46484 20.7812 -7.02148 C 20.7812 -7.59766 20.3906 -7.93945 19.7754 -7.93945 L 15.8594 -7.93945 L 15.8594 -11.8652 C 15.8594 -12.4805 15.5176 -12.8711 14.9414 -12.8711 C 14.375 -12.8711 14.0527 -12.4609 14.0527 -11.8652 L 14.0527 -7.93945 L 10.1465 -7.93945 C 9.53125 -7.93945 9.13086 -7.59766 9.13086 -7.02148 C 9.13086 -6.46484 9.55078 -6.13281 10.1465 -6.13281 L 14.0527 -6.13281 L 14.0527 -2.38281 C 14.0527 -1.79688 14.375 -1.38672 14.9414 -1.38672 Z"/>
  </g>
  <text style="stroke:none;fill:black;font-family:-apple-system,&quot;SF Pro Display&quot;,&quot;SF Pro Text&quot;,Helvetica,sans-serif;font-weight:bold;" transform="matrix(1 0 0 1 263 1953)">Design Variations</text>
  <text style="stroke:none;fill:black;font-family:-apple-system,&quot;SF Pro Display&quot;,&quot;SF Pro Text&quot;,Helvetica,sans-serif;" transform="matrix(1 0 0 1 263 1971)">Symbols are supported in up to nine weights and three scales.</text>
  <text style="stroke:none;fill:black;font-family:-apple-system,&quot;SF Pro Display&quot;,&quot;SF Pro Text&quot;,Helvetica,sans-serif;" transform="matrix(1 0 0 1 263 1989)">For optimal layout with text and other symbols, vertically align</text>
  <text style="stroke:none;fill:black;font-family:-apple-system,&quot;SF Pro Display&quot;,&quot;SF Pro Text&quot;,Helvetica,sans-serif;" transform="matrix(1 0 0 1 263 2007)">symbols with the adjacent text.</text>
  <line id="" style="fill:none;stroke:#00AEEF;stroke-width:0.5;opacity:1.0;" x1="776" x2="776" y1="1919" y2="1933"/>
  <g id="" transform="matrix(1 0 0 1 776 1933)">
   <path d="M 3.31055 0.126953 C 3.82812 0.126953 4.08203 -0.0683594 4.26758 -0.605469 L 5.52734 -4.0625 L 11.2891 -4.0625 L 12.5488 -0.605469 C 12.7344 -0.0683594 12.9883 0.126953 13.4961 0.126953 C 14.0137 0.126953 14.3457 -0.185547 14.3457 -0.673828 C 14.3457 -0.839844 14.3164 -0.986328 14.2383 -1.20117 L 9.6582 -13.3887 C 9.43359 -13.9941 9.0332 -14.2871 8.4082 -14.2871 C 7.80273 -14.2871 7.39258 -13.9941 7.17773 -13.3984 L 2.59766 -1.19141 C 2.51953 -0.976562 2.49023 -0.830078 2.49023 -0.664062 C 2.49023 -0.175781 2.80273 0.126953 3.31055 0.126953 Z M 6.00586 -5.53711 L 8.37891 -12.1094 L 8.42773 -12.1094 L 10.8008 -5.53711 Z"/>
  </g>
  <line id="" style="fill:none;stroke:#00AEEF;stroke-width:0.5;opacity:1.0;" x1="792.836" x2="792.836" y1="1919" y2="1933"/>
  <text style="stroke:none;fill:black;font-family:-apple-system,&quot;SF Pro Display&quot;,&quot;SF Pro Text&quot;,Helvetica,sans-serif;font-weight:bold;" transform="matrix(1 0 0 1 776 1953)">Margins</text>
  <text style="stroke:none;fill:black;font-family:-apple-system,&quot;SF Pro Display&quot;,&quot;SF Pro Text&quot;,Helvetica,sans-serif;" transform="matrix(1 0 0 1 776 1971)">Leading and trailing margins on the left and right side of each symbol</text>
  <text style="stroke:none;fill:black;font-family:-apple-system,&quot;SF Pro Display&quot;,&quot;SF Pro Text&quot;,Helvetica,sans-serif;" transform="matrix(1 0 0 1 776 1989)">can be adjusted by modifying the x-location of the margin guidelines.</text>
  <text style="stroke:none;fill:black;font-family:-apple-system,&quot;SF Pro Display&quot;,&quot;SF Pro Text&quot;,Helvetica,sans-serif;" transform="matrix(1 0 0 1 776 2007)">Modifications are automatically applied proportionally to all</text>
  <text style="stroke:none;fill:black;font-family:-apple-system,&quot;SF Pro Display&quot;,&quot;SF Pro Text&quot;,Helvetica,sans-serif;" transform="matrix(1 0 0 1 776 2025)">scales and weights.</text>
  <g id="" transform="matrix(1 0 0 1 1289 1933)">
   <path d="M 2.8418 1.86523 L 4.54102 3.57422 C 5.40039 4.44336 6.38672 4.38477 7.31445 3.35938 L 17.4902 -7.85156 C 17.7539 -7.76367 18.0273 -7.7832 18.3398 -7.8418 L 19.4043 -8.03711 L 20.0684 -7.36328 L 20.0293 -6.80664 C 19.9902 -6.30859 20.1172 -5.92773 20.6055 -5.44922 L 21.3672 -4.70703 C 21.8457 -4.22852 22.4609 -4.19922 22.9297 -4.66797 L 25.8398 -7.58789 C 26.3086 -8.05664 26.2891 -8.65234 25.8105 -9.13086 L 25.0391 -9.89258 C 24.5605 -10.3711 24.1895 -10.5273 23.7109 -10.4883 L 23.1348 -10.4395 L 22.4902 -11.0742 L 22.7344 -12.1973 C 22.8613 -12.7637 22.7051 -13.2031 22.1191 -13.7891 L 19.9219 -15.9766 C 16.582 -19.2969 12.1484 -19.2188 9.25781 -16.3281 C 8.83789 -15.918 8.80859 -15.3418 9.04297 -14.9512 C 9.27734 -14.5898 9.73633 -14.3555 10.3809 -14.5215 C 11.8457 -14.8633 13.3691 -14.9219 14.7949 -13.9844 L 14.209 -12.5293 C 14.0137 -12.0508 13.9844 -11.6504 14.1113 -11.2891 L 3.04688 -0.898438 C 2.06055 0.0195312 1.98242 0.996094 2.8418 1.86523 Z M 10.752 -15.957 C 13.1836 -17.7344 16.4746 -17.4316 18.7012 -15.2051 L 21.1328 -12.793 C 21.3672 -12.5586 21.4062 -12.373 21.3379 -12.0312 L 21.0156 -10.5469 L 22.5195 -9.0625 L 23.5059 -9.12109 C 23.7598 -9.13086 23.8379 -9.11133 24.0332 -8.91602 L 24.6094 -8.33984 L 22.168 -5.89844 L 21.5918 -6.47461 C 21.3965 -6.66992 21.3672 -6.74805 21.377 -7.01172 L 21.4453 -7.98828 L 19.9512 -9.47266 L 18.4277 -9.21875 C 18.1055 -9.15039 17.959 -9.17969 17.7148 -9.41406 L 15.7129 -11.416 C 15.459 -11.6504 15.4297 -11.8164 15.5859 -12.1875 L 16.4648 -14.2773 C 14.9023 -15.7324 12.8711 -16.3574 10.8398 -15.7617 C 10.6836 -15.7227 10.625 -15.8496 10.752 -15.957 Z M 5.27344 2.30469 L 4.10156 1.14258 C 3.63281 0.683594 3.74023 0.341797 4.14062 -0.0195312 L 14.9512 -10.1953 L 16.416 -8.71094 L 6.42578 2.27539 C 6.07422 2.67578 5.74219 2.77344 5.27344 2.30469 Z"/>
  </g>
  <text style="stroke:none;fill:black;font-family:-apple-system,&quot;SF Pro Display&quot;,&quot;SF Pro Text&quot;,Helvetica,sans-serif;font-weight:bold;" transform="matrix(1 0 0 1 1289 1953)">Exporting</text>
  <text style="stroke:none;fill:black;font-family:-apple-system,&quot;SF Pro Display&quot;,&quot;SF Pro Text&quot;,Helvetica,sans-serif;" transform="matrix(1 0 0 1 1289 1971)">Symbols should be outlined when exporting to ensure the</text>
  <text style="stroke:none;fill:black;font-family:-apple-system,&quot;SF Pro Display&quot;,&quot;SF Pro Text&quot;,Helvetica,sans-serif;" transform="matrix(1 0 0 1 1289 1989)">design is preserved when submitting to Xcode.</text>
  <text id="template-version" style="stroke:none;fill:black;font-family:-apple-system,&quot;SF Pro Display&quot;,&quot;SF Pro Text&quot;,Helvetica,sans-serif;text-anchor:end;" transform="matrix(1 0 0 1 3036 1933)">Template v.2.0</text>
  <text style="stroke:none;fill:black;font-family:-apple-system,&quot;SF Pro Display&quot;,&quot;SF Pro Text&quot;,Helvetica,sans-serif;text-anchor:end;" transform="matrix(1 0 0 1 3036 1951)">Requires Xcode 12 or greater</text>
  <text style="stroke:none;fill:black;font-family:-apple-system,&quot;SF Pro Display&quot;,&quot;SF Pro Text&quot;,Helvetica,sans-serif;text-anchor:end;" transform="matrix(1 0 0 1 3036 1969)">Generated from quote.bubble.fill</text>
  <text style="stroke:none;fill:black;font-family:-apple-system,&quot;SF Pro Display&quot;,&quot;SF Pro Text&quot;,Helvetica,sans-serif;text-anchor:end;" transform="matrix(1 0 0 1 3036 1987)">Typeset at 100 points</text>
  <text style="stroke:none;fill:black;font-family:-apple-system,&quot;SF Pro Display&quot;,&quot;SF Pro Text&quot;,Helvetica,sans-serif;" transform="matrix(1 0 0 1 263 726)">Small</text>
  <text style="stroke:none;fill:black;font-family:-apple-system,&quot;SF Pro Display&quot;,&quot;SF Pro Text&quot;,Helvetica,sans-serif;" transform="matrix(1 0 0 1 263 1156)">Medium</text>
  <text style="stroke:none;fill:black;font-family:-apple-system,&quot;SF Pro Display&quot;,&quot;SF Pro Text&quot;,Helvetica,sans-serif;" transform="matrix(1 0 0 1 263 1586)">Large</text>
 </g>
 <g id="Guides">
  <g id="H-reference" style="fill:#27AAE1;stroke:none;" transform="matrix(1 0 0 1 339 696)">
   <path d="M 0.976562 0 L 3.66211 0 L 12.9883 -24.4629 L 45.7031 -24.4629 L 55.0781 0 L 57.7148 0 L 30.6152 -70.459 L 28.125 -70.459 Z M 29.2969 -67.1387 L 29.3945 -67.1387 L 44.873 -26.709 L 13.8672 -26.709 Z"/>
  </g>
  <line id="Baseline-S" style="fill:none;stroke:#27AAE1;opacity:1;stroke-width:0.5;" x1="263" x2="3036" y1="696" y2="696"/>
  <line id="Capline-S" style="fill:none;stroke:#27AAE1;opacity:1;stroke-width:0.5;" x1="263" x2="3036" y1="625.541" y2="625.541"/>
  <g id="H-reference" style="fill:#27AAE1;stroke:none;" transform="matrix(1 0 0 1 339 1126)">
   <path d="M 0.976562 0 L 3.66211 0 L 12.9883 -24.4629 L 45.7031 -24.4629 L 55.0781 0 L 57.7148 0 L 30.6152 -70.459 L 28.125 -70.459 Z M 29.2969 -67.1387 L 29.3945 -67.1387 L 44.873 -26.709 L 13.8672 -26.709 Z"/>
  </g>
  <line id="Baseline-M" style="fill:none;stroke:#27AAE1;opacity:1;stroke-width:0.5;" x1="263" x2="3036" y1="1126" y2="1126"/>
  <line id="Capline-M" style="fill:none;stroke:#27AAE1;opacity:1;stroke-width:0.5;" x1="263" x2="3036" y1="1055.54" y2="1055.54"/>
  <g id="H-reference" style="fill:#27AAE1;stroke:none;" transform="matrix(1 0 0 1 339 1556)">
   <path d="M 0.976562 0 L 3.66211 0 L 12.9883 -24.4629 L 45.7031 -24.4629 L 55.0781 0 L 57.7148 0 L 30.6152 -70.459 L 28.125 -70.459 Z M 29.2969 -67.1387 L 29.3945 -67.1387 L 44.873 -26.709 L 13.8672 -26.709 Z"/>
  </g>
  <line id="Baseline-L" style="fill:none;stroke:#27AAE1;opacity:1;stroke-width:0.5;" x1="263" x2="3036" y1="1556" y2="1556"/>
  <line id="Capline-L" style="fill:none;stroke:#27AAE1;opacity:1;stroke-width:0.5;" x1="263" x2="3036" y1="1485.54" y2="1485.54"/>
  <line id="left-margin" style="fill:none;stroke:#00AEEF;stroke-width:0.5;opacity:1.0;" x1="1383.58" x2="1383.58" y1="1030.79" y2="1150.12"/>
  <line id="right-margin" style="fill:none;stroke:#00AEEF;stroke-width:0.5;opacity:1.0;" x1="1516.1" x2="1516.1" y1="1030.79" y2="1150.12"/>
 </g>
 <g id="Symbols">
  <g id="Black-L" transform="matrix(1 0 0 1 2846.24 1556)">
   <path d="M 55.1758 39.0625 C 58.3496 39.0625 60.9863 37.8418 64.8926 34.375 L 89.4043 12.8418 L 125.83 12.8418 C 145.703 12.8906 158.252 0.195312 158.252 -19.5801 L 158.252 -70.1172 C 158.252 -89.8926 145.703 -102.539 125.83 -102.539 L 48.4863 -102.539 C 28.6133 -102.539 16.0645 -89.8926 16.0645 -70.1172 L 16.0645 -19.5801 C 16.0645 0.195312 29.7852 12.8418 46.7285 12.8418 L 47.6562 12.8418 L 47.6562 30.8105 C 47.6562 35.9375 50.5371 39.0625 55.1758 39.0625 Z M 53.6133 -51.3184 C 53.6133 -60.1074 59.9609 -66.4551 68.7988 -66.4551 C 79.1504 -66.4551 85.3027 -58.0566 85.3027 -47.7051 C 85.3027 -33.4961 73.0469 -23.3398 64.5508 -23.3398 C 62.3535 -23.3398 60.5469 -24.5117 60.5469 -26.709 C 60.5469 -28.418 61.6211 -29.5898 63.5742 -30.0293 C 70.459 -31.543 75.1465 -35.7422 76.5137 -40.1855 L 75.0488 -40.1855 C 73.1445 -37.9395 70.1172 -36.9141 66.4551 -36.9141 C 58.8867 -36.9141 53.6133 -42.9688 53.6133 -51.3184 Z M 90.625 -51.3184 C 90.625 -60.1074 96.9727 -66.4551 105.811 -66.4551 C 116.162 -66.4551 122.314 -58.0566 122.314 -47.7051 C 122.314 -33.4961 110.059 -23.3398 101.611 -23.3398 C 99.3652 -23.3398 97.6074 -24.5117 97.6074 -26.709 C 97.6074 -28.418 98.6816 -29.5898 100.586 -30.0293 C 107.568 -31.543 112.158 -35.7422 113.525 -40.1855 L 112.061 -40.1855 C 110.156 -37.9395 107.129 -36.9141 103.467 -36.9141 C 95.8984 -36.9141 90.625 -42.9688 90.625 -51.3184 Z"/>
  </g>
  <g id="Heavy-L" transform="matrix(1 0 0 1 2550.07 1556)">
   <path d="M 54.4434 37.6953 C 57.4219 37.6953 59.8145 36.5234 63.3789 33.3008 L 87.5 12.0117 L 125.879 12.0117 C 145.264 12.0605 157.178 -0.0488281 157.178 -19.2383 L 157.178 -69.6289 C 157.178 -88.8184 145.264 -100.879 125.879 -100.879 L 47.3145 -100.879 C 27.9785 -100.879 16.0645 -88.8672 16.0645 -69.6289 L 16.0645 -19.2383 C 16.0645 0 28.8574 12.0117 45.9961 12.0117 L 47.5586 12.0117 L 47.5586 30.0781 C 47.5586 34.7656 50.1465 37.6953 54.4434 37.6953 Z M 54.0527 -50.8789 C 54.0527 -59.2773 60.2051 -65.332 68.7012 -65.332 C 78.3691 -65.332 84.375 -57.4219 84.375 -47.5586 C 84.375 -33.1055 72.0703 -23.6328 64.209 -23.6328 C 62.1582 -23.6328 60.498 -24.8535 60.498 -26.8555 C 60.498 -28.4668 61.4746 -29.6387 63.4766 -30.127 C 69.6289 -31.4941 74.3652 -35.4492 75.9277 -40.0879 L 74.6582 -40.0879 C 72.8027 -37.8906 69.9219 -37.0117 66.5039 -37.0117 C 59.1309 -37.0117 54.0527 -42.8711 54.0527 -50.8789 Z M 90.0879 -50.8789 C 90.0879 -59.2773 96.2402 -65.332 104.688 -65.332 C 114.404 -65.332 120.361 -57.4219 120.361 -47.5586 C 120.361 -33.1055 108.105 -23.6328 100.293 -23.6328 C 98.1445 -23.6328 96.5332 -24.8535 96.5332 -26.8555 C 96.5332 -28.4668 97.5098 -29.6387 99.4629 -30.127 C 105.664 -31.4941 110.4 -35.4492 111.963 -40.0879 L 110.693 -40.0879 C 108.838 -37.8906 105.957 -37.0117 102.539 -37.0117 C 95.1172 -37.0117 90.0879 -42.8711 90.0879 -50.8789 Z"/>
  </g>
  <g id="Bold-L" transform="matrix(1 0 0 1 2253.97 1556)">
   <path d="M 53.6621 36.1816 C 56.3477 36.1816 58.4473 35.0098 61.6699 32.0801 L 85.3027 11.0352 L 125.977 11.084 C 144.727 11.1328 155.957 -0.292969 155.957 -18.8965 L 155.957 -69.043 C 155.957 -87.6465 144.727 -99.0234 125.977 -99.0234 L 46.0449 -99.0234 C 27.2461 -99.0234 16.0645 -87.6953 16.0645 -69.043 L 16.0645 -18.8965 C 16.0645 -0.244141 27.832 11.0352 45.166 11.0352 L 47.4121 11.0352 L 47.4121 29.1992 C 47.4121 33.4961 49.7559 36.1816 53.6621 36.1816 Z M 54.5898 -50.3418 C 54.5898 -58.3008 60.498 -64.0137 68.5547 -64.0137 C 77.5391 -64.0137 83.3008 -56.7383 83.3008 -47.4121 C 83.3008 -32.666 70.9961 -24.0234 63.8184 -24.0234 C 61.9141 -24.0234 60.4004 -25.1953 60.4004 -27.0508 C 60.4004 -28.6133 61.2793 -29.6387 63.3301 -30.1758 C 68.6523 -31.4453 73.4863 -35.1562 75.2441 -39.9902 L 74.2676 -39.9902 C 72.5098 -37.8418 69.7266 -37.1094 66.6016 -37.1094 C 59.375 -37.1094 54.5898 -42.7734 54.5898 -50.3418 Z M 89.502 -50.3418 C 89.502 -58.3008 95.4102 -64.0137 103.418 -64.0137 C 112.402 -64.0137 118.262 -56.7383 118.262 -47.4121 C 118.262 -32.666 105.908 -24.0234 98.7793 -24.0234 C 96.8262 -24.0234 95.3613 -25.1953 95.3613 -27.0508 C 95.3613 -28.6133 96.1914 -29.6387 98.1934 -30.1758 C 103.613 -31.4453 108.398 -35.1562 110.156 -39.9902 L 109.18 -39.9902 C 107.422 -37.8418 104.639 -37.1094 101.514 -37.1094 C 94.2871 -37.1094 89.502 -42.7734 89.502 -50.3418 Z"/>
  </g>
  <g id="Semibold-L" transform="matrix(1 0 0 1 1957.7 1556)">
   <path d="M 53.0762 35.1074 C 55.6152 35.1074 57.5195 33.9355 60.4492 31.25 L 83.8379 10.4004 L 126.025 10.4492 C 144.385 10.498 155.078 -0.439453 155.078 -18.6035 L 155.078 -68.6523 C 155.078 -86.8164 144.385 -97.7539 126.025 -97.7539 L 45.166 -97.7539 C 26.7578 -97.7539 16.0645 -86.8652 16.0645 -68.6523 L 16.0645 -18.6035 C 16.0645 -0.390625 27.1484 10.4004 44.5801 10.4004 L 47.3633 10.4004 L 47.3633 28.6133 C 47.3633 32.5684 49.5117 35.1074 53.0762 35.1074 Z M 54.9316 -50 C 54.9316 -57.6172 60.6934 -63.1348 68.457 -63.1348 C 76.9531 -63.1348 82.6172 -56.25 82.6172 -47.3145 C 82.6172 -32.373 70.2637 -24.2676 63.5742 -24.2676 C 61.7188 -24.2676 60.3516 -25.4395 60.3516 -27.1973 C 60.3516 -28.6621 61.1328 -29.6875 63.2324 -30.2246 C 67.9688 -31.3965 72.8516 -34.9609 74.7559 -39.9414 L 73.9746 -39.9414 C 72.2656 -37.8418 69.5801 -37.1582 66.6504 -37.1582 C 59.5703 -37.1582 54.9316 -42.6758 54.9316 -50 Z M 89.1113 -50 C 89.1113 -57.6172 94.8242 -63.1348 102.539 -63.1348 C 111.035 -63.1348 116.748 -56.25 116.748 -47.3145 C 116.748 -32.373 104.443 -24.2676 97.7539 -24.2676 C 95.8984 -24.2676 94.5312 -25.4395 94.5312 -27.1973 C 94.5312 -28.6621 95.3125 -29.6875 97.3633 -30.2246 C 102.148 -31.3965 106.982 -34.9609 108.936 -39.9414 L 108.105 -39.9414 C 106.396 -37.8418 103.711 -37.1582 100.781 -37.1582 C 93.75 -37.1582 89.1113 -42.6758 89.1113 -50 Z"/>
  </g>
  <g id="Medium-L" transform="matrix(1 0 0 1 1661.3 1556)">
   <path d="M 52.6855 34.3262 C 55.0293 34.3262 56.7871 33.1543 59.5703 30.6152 L 82.7148 9.91211 L 126.025 9.96094 C 144.092 10.0098 154.443 -0.585938 154.443 -18.457 L 154.443 -68.3594 C 154.443 -86.2305 144.092 -96.7773 126.025 -96.7773 L 44.4824 -96.7773 C 26.3672 -96.7773 16.0645 -86.2793 16.0645 -68.3594 L 16.0645 -18.457 C 16.0645 -0.537109 26.6113 9.91211 44.1406 9.91211 L 47.2656 9.91211 L 47.2656 28.1738 C 47.2656 31.8848 49.3164 34.3262 52.6855 34.3262 Z M 55.2246 -49.707 C 55.2246 -57.1289 60.8398 -62.5 68.3594 -62.5 C 76.5137 -62.5 82.0801 -55.9082 82.0801 -47.2168 C 82.0801 -32.1289 69.7266 -24.4629 63.3789 -24.4629 C 61.6211 -24.4629 60.3027 -25.6348 60.3027 -27.2949 C 60.3027 -28.7109 61.0352 -29.6875 63.1836 -30.2246 C 67.4805 -31.3477 72.3633 -34.8145 74.4141 -39.8926 L 73.7793 -39.8926 C 72.0703 -37.8418 69.4824 -37.207 66.6992 -37.207 C 59.7168 -37.207 55.2246 -42.627 55.2246 -49.707 Z M 88.7695 -49.707 C 88.7695 -57.1289 94.3848 -62.5 101.904 -62.5 C 110.01 -62.5 115.625 -55.9082 115.625 -47.2168 C 115.625 -32.1289 103.271 -24.4629 96.9727 -24.4629 C 95.166 -24.4629 93.8965 -25.6348 93.8965 -27.2949 C 93.8965 -28.7109 94.5801 -29.6875 96.6797 -30.2246 C 101.074 -31.3477 105.957 -34.8145 108.008 -39.8926 L 107.324 -39.8926 C 105.664 -37.8418 103.027 -37.207 100.244 -37.207 C 93.3105 -37.207 88.7695 -42.627 88.7695 -49.707 Z"/>
  </g>
  <g id="Regular-L" transform="matrix(1 0 0 1 1365.01 1556)">
   <path d="M 52.1484 33.252 C 54.2969 33.252 55.9082 32.1289 58.3984 29.834 L 81.2012 9.27734 L 126.074 9.32617 C 143.75 9.375 153.613 -0.78125 153.613 -18.1641 L 153.613 -67.9688 C 153.613 -85.4004 143.75 -95.5078 126.074 -95.5078 L 43.6035 -95.5078 C 25.8789 -95.5078 16.0645 -85.4492 16.0645 -67.9688 L 16.0645 -18.1641 C 16.0645 -0.683594 25.8789 9.27734 43.6035 9.27734 L 47.2168 9.27734 L 47.2168 27.5879 C 47.2168 31.0059 49.0234 33.252 52.1484 33.252 Z M 55.5664 -49.3652 C 55.5664 -56.4941 61.0352 -61.6211 68.2617 -61.6211 C 75.9277 -61.6211 81.3477 -55.4199 81.3477 -47.1191 C 81.3477 -31.8359 68.9453 -24.707 63.1348 -24.707 C 61.4746 -24.707 60.2539 -25.8789 60.2539 -27.3926 C 60.2539 -28.8086 60.8887 -29.7363 63.0859 -30.2734 C 66.8457 -31.2988 71.7773 -34.6191 73.9746 -39.7949 L 73.4863 -39.7949 C 71.875 -37.793 69.3359 -37.2559 66.748 -37.2559 C 59.9121 -37.2559 55.5664 -42.5781 55.5664 -49.3652 Z M 88.3789 -49.3652 C 88.3789 -56.4941 93.7988 -61.6211 101.025 -61.6211 C 108.691 -61.6211 114.16 -55.4199 114.16 -47.1191 C 114.16 -31.8359 101.807 -24.707 95.9473 -24.707 C 94.2871 -24.707 93.0664 -25.8789 93.0664 -27.3926 C 93.0664 -28.8086 93.7012 -29.7363 95.8496 -30.2734 C 99.6582 -31.2988 104.59 -34.6191 106.787 -39.7949 L 106.299 -39.7949 C 104.688 -37.793 102.148 -37.2559 99.5117 -37.2559 C 92.7246 -37.2559 88.3789 -42.5781 88.3789 -49.3652 Z"/>
  </g>
  <g id="Light-L" transform="matrix(1 0 0 1 1069.2 1556)">
   <path d="M 50.293 31.7871 C 52.0508 31.7871 53.3691 30.8105 55.2734 29.1016 L 78.125 8.93555 L 126.074 8.98438 C 142.334 9.0332 151.807 -0.683594 151.807 -16.6992 L 151.807 -68.6035 C 151.807 -84.6191 142.334 -94.2871 126.074 -94.2871 L 41.7969 -94.2871 C 25.5371 -94.2871 16.0645 -84.7168 16.0645 -68.6035 L 16.0645 -16.6992 C 16.0645 -0.585938 25.5371 8.93555 41.7969 8.93555 L 46.2891 8.93555 L 46.2891 27.2461 C 46.2891 29.9805 47.8516 31.7871 50.293 31.7871 Z M 56.1035 -48.4375 C 56.1035 -55.0781 61.2305 -60.0098 68.0176 -60.0098 C 75 -60.0098 80.3711 -54.3457 80.3711 -46.3379 C 80.3711 -31.8848 68.4082 -25.3418 63.2324 -25.3418 C 61.7676 -25.3418 60.7422 -26.416 60.7422 -27.7832 C 60.7422 -28.9551 61.3281 -29.7852 63.2324 -30.2734 C 66.5527 -31.2012 71.7285 -34.4727 73.7793 -39.8438 L 73.291 -39.8438 C 71.7285 -37.793 69.2871 -37.1582 66.6992 -37.1582 C 60.2539 -37.1582 56.1035 -42.041 56.1035 -48.4375 Z M 87.5 -48.4375 C 87.5 -55.0781 92.627 -60.0098 99.4141 -60.0098 C 106.396 -60.0098 111.816 -54.3457 111.816 -46.3379 C 111.816 -31.8848 99.8535 -25.3418 94.6777 -25.3418 C 93.2129 -25.3418 92.1387 -26.416 92.1387 -27.7832 C 92.1387 -28.9551 92.7246 -29.7852 94.6289 -30.2734 C 97.9492 -31.2012 103.174 -34.4727 105.225 -39.8438 L 104.736 -39.8438 C 103.174 -37.793 100.684 -37.1582 98.0957 -37.1582 C 91.6992 -37.1582 87.5 -42.041 87.5 -48.4375 Z"/>
  </g>
  <g id="Thin-L" transform="matrix(1 0 0 1 773.683 1556)">
   <path d="M 47.8516 29.834 C 49.0234 29.834 50 29.1016 51.123 28.1738 L 74.0234 8.49609 L 126.074 8.54492 C 140.43 8.54492 149.414 -0.634766 149.414 -14.7949 L 149.414 -69.3848 C 149.414 -83.5449 140.43 -92.7246 126.074 -92.7246 L 39.3555 -92.7246 C 25.0488 -92.7246 16.0645 -83.6914 16.0645 -69.3848 L 16.0645 -14.7949 C 16.0645 -0.488281 25.0488 8.49609 39.3555 8.49609 L 45.0684 8.49609 L 45.0684 26.709 C 45.0684 28.6133 46.2402 29.834 47.8516 29.834 Z M 56.7871 -47.2656 C 56.7871 -53.2227 61.4746 -57.8613 67.6758 -57.8613 C 73.7793 -57.8613 79.1016 -52.9297 79.1016 -45.2637 C 79.1016 -31.9336 67.6758 -26.2207 63.4277 -26.2207 C 62.207 -26.2207 61.377 -27.0508 61.377 -28.2227 C 61.377 -29.1992 61.8652 -29.8828 63.4277 -30.2734 C 66.1621 -31.0547 71.6797 -34.3262 73.584 -39.8438 L 73.0957 -39.8438 C 71.5332 -37.8418 69.1895 -37.0117 66.6016 -37.0117 C 60.7422 -37.0117 56.7871 -41.4062 56.7871 -47.2656 Z M 86.377 -47.2656 C 86.377 -53.2227 91.0645 -57.8613 97.2656 -57.8613 C 103.369 -57.8613 108.691 -52.9297 108.691 -45.2637 C 108.691 -31.9336 97.2656 -26.2207 93.0176 -26.2207 C 91.7969 -26.2207 90.9668 -27.0508 90.9668 -28.2227 C 90.9668 -29.1992 91.4551 -29.8828 93.0176 -30.2734 C 95.752 -31.0547 101.27 -34.3262 103.174 -39.8438 L 102.686 -39.8438 C 101.172 -37.8418 98.7793 -37.0117 96.1914 -37.0117 C 90.3809 -37.0117 86.377 -41.4062 86.377 -47.2656 Z"/>
  </g>
  <g id="Ultralight-L" transform="matrix(1 0 0 1 477.607 1556)">
   <path d="M 46.582 28.8086 C 47.5098 28.8086 48.291 28.2227 48.9746 27.7344 L 71.9238 8.30078 L 126.074 8.30078 C 139.453 8.30078 148.145 -0.585938 148.145 -13.8184 L 148.145 -69.8242 C 148.145 -83.0078 139.453 -91.8945 126.074 -91.8945 L 38.1348 -91.8945 C 24.8047 -91.8945 16.0645 -83.2031 16.0645 -69.8242 L 16.0645 -13.8184 C 16.0645 -0.439453 24.8047 8.30078 38.1348 8.30078 L 44.4824 8.30078 L 44.4824 26.4648 C 44.4824 27.9297 45.4102 28.8086 46.582 28.8086 Z M 57.1289 -46.6309 C 57.1289 -52.2461 61.5723 -56.7871 67.4805 -56.7871 C 73.1445 -56.7871 78.418 -52.1973 78.418 -44.7266 C 78.418 -31.9824 67.2852 -26.6113 63.5254 -26.6113 C 62.4512 -26.6113 61.6699 -27.3926 61.6699 -28.4668 C 61.6699 -29.2969 62.1582 -29.8828 63.5254 -30.2734 C 65.9668 -30.957 71.6797 -34.2773 73.4863 -39.8438 L 72.998 -39.8438 C 71.4844 -37.8418 69.1406 -36.9141 66.6016 -36.9141 C 61.0352 -36.9141 57.1289 -41.0645 57.1289 -46.6309 Z M 85.791 -46.6309 C 85.791 -52.2461 90.2832 -56.7871 96.1426 -56.7871 C 101.807 -56.7871 107.08 -52.1973 107.08 -44.7266 C 107.08 -31.9824 95.9473 -26.6113 92.1875 -26.6113 C 91.1133 -26.6113 90.332 -27.3926 90.332 -28.4668 C 90.332 -29.2969 90.8203 -29.8828 92.1875 -30.2734 C 94.5801 -30.957 100.293 -34.2773 102.1 -39.8438 L 101.66 -39.8438 C 100.146 -37.8418 97.8027 -36.9141 95.2637 -36.9141 C 89.6484 -36.9141 85.791 -41.0645 85.791 -46.6309 Z"/>
  </g>
  <g id="Black-M" transform="matrix(1 0 0 1 2865.58 1126)">
   <path d="M 42.7246 23.3887 C 45.3125 23.3887 47.5586 22.5586 50.6836 19.7754 L 70.2637 2.97852 L 97.4609 2.97852 C 112.793 2.97852 123.193 -7.42188 123.193 -22.7539 L 123.193 -63.2812 C 123.193 -78.6133 112.793 -89.0137 97.4609 -89.0137 L 38.1836 -89.0137 C 22.8516 -89.0137 12.4512 -78.6133 12.4512 -63.2812 L 12.4512 -22.7539 C 12.4512 -7.42188 24.1211 2.97852 36.2793 2.97852 L 36.6211 2.97852 L 36.6211 16.7969 C 36.6211 20.8984 38.9648 23.3887 42.7246 23.3887 Z M 41.1621 -47.8516 C 41.1621 -54.9316 46.2402 -60.1074 53.3691 -60.1074 C 61.8652 -60.1074 66.8457 -53.1738 66.8457 -44.6289 C 66.8457 -34.4238 57.6172 -25.9277 50.5371 -25.9277 C 48.7793 -25.9277 47.2656 -26.7578 47.2656 -28.6133 C 47.2656 -29.8828 48.2422 -30.8105 49.5117 -31.1523 C 55.6152 -32.373 59.3262 -35.8887 60.0098 -39.209 L 58.5938 -39.209 C 57.0312 -37.4023 54.5898 -36.377 51.3672 -36.377 C 45.5078 -36.377 41.1621 -41.1133 41.1621 -47.8516 Z M 70.459 -47.8516 C 70.459 -54.9316 75.5371 -60.1074 82.666 -60.1074 C 91.1621 -60.1074 96.0938 -53.1738 96.0938 -44.6289 C 96.0938 -34.4238 86.9141 -25.9277 79.8828 -25.9277 C 78.0762 -25.9277 76.6113 -26.7578 76.6113 -28.6133 C 76.6113 -29.8828 77.5879 -30.8105 78.8086 -31.1523 C 84.9609 -32.373 88.5742 -35.8887 89.3066 -39.209 L 87.8418 -39.209 C 86.2793 -37.4023 83.8379 -36.377 80.7129 -36.377 C 74.8047 -36.377 70.459 -41.1133 70.459 -47.8516 Z"/>
  </g>
  <g id="Heavy-M" transform="matrix(1 0 0 1 2569.23 1126)">
   <path d="M 42.4316 22.3145 C 44.873 22.3145 46.875 21.3867 49.8047 18.7988 L 68.9453 2.14844 L 97.5098 2.14844 C 112.646 2.14844 122.461 -7.71484 122.461 -22.8027 L 122.461 -62.5488 C 122.461 -77.6367 112.646 -87.5 97.5098 -87.5 L 37.4023 -87.5 C 22.2656 -87.5 12.4512 -77.6367 12.4512 -62.5488 L 12.4512 -22.8027 C 12.4512 -7.71484 23.2422 2.14844 35.9375 2.14844 L 36.7188 2.14844 L 36.7188 16.0645 C 36.7188 19.9219 38.916 22.3145 42.4316 22.3145 Z M 41.5527 -47.6074 C 41.5527 -54.3457 46.4844 -59.2773 53.2715 -59.2773 C 61.2793 -59.2773 66.0645 -52.7832 66.0645 -44.7266 C 66.0645 -33.9844 56.7383 -26.0742 50.1465 -26.0742 C 48.4863 -26.0742 47.0703 -27.002 47.0703 -28.6621 C 47.0703 -29.9805 47.9492 -30.8594 49.3652 -31.2012 C 54.7852 -32.373 58.4473 -35.6445 59.4238 -39.1113 L 58.2031 -39.1113 C 56.7383 -37.3535 54.3945 -36.4746 51.4648 -36.4746 C 45.6543 -36.4746 41.5527 -41.1133 41.5527 -47.6074 Z M 70.1172 -47.6074 C 70.1172 -54.3457 75 -59.2773 81.8359 -59.2773 C 89.8438 -59.2773 94.6289 -52.7832 94.6289 -44.7266 C 94.6289 -33.9844 85.2539 -26.0742 78.7598 -26.0742 C 77.0508 -26.0742 75.6836 -27.002 75.6836 -28.6621 C 75.6836 -29.9805 76.5137 -30.8594 77.8809 -31.2012 C 83.3496 -32.373 87.0117 -35.6445 87.9883 -39.1113 L 86.7676 -39.1113 C 85.2539 -37.3535 82.959 -36.4746 80.0293 -36.4746 C 74.2188 -36.4746 70.1172 -41.1133 70.1172 -47.6074 Z"/>
  </g>
  <g id="Bold-M" transform="matrix(1 0 0 1 2272.94 1126)">
   <path d="M 42.0898 21.0449 C 44.3359 21.0449 46.1426 20.1172 48.877 17.6758 L 67.4805 1.2207 L 97.5586 1.2207 C 112.5 1.26953 121.631 -8.00781 121.631 -22.8027 L 121.631 -61.7676 C 121.631 -76.5625 112.5 -85.791 97.5586 -85.791 L 36.4746 -85.791 C 21.582 -85.791 12.4512 -76.6113 12.4512 -61.7676 L 12.4512 -22.8027 C 12.4512 -7.95898 22.2168 1.2207 35.5469 1.2207 L 36.8652 1.2207 L 36.8652 15.2344 C 36.8652 18.7988 38.8184 21.0449 42.0898 21.0449 Z M 41.9922 -47.2656 C 41.9922 -53.7109 46.7285 -58.3496 53.2227 -58.3496 C 60.6445 -58.3496 65.2344 -52.3438 65.2344 -44.7754 C 65.2344 -33.4961 55.7129 -26.3184 49.707 -26.3184 C 48.0957 -26.3184 46.875 -27.2461 46.875 -28.7598 C 46.875 -30.0293 47.6074 -30.9082 49.1699 -31.25 C 53.8086 -32.3242 57.4707 -35.3516 58.7402 -38.9648 L 57.8125 -38.9648 C 56.3965 -37.3047 54.1504 -36.6211 51.5625 -36.6211 C 45.8496 -36.6211 41.9922 -41.1621 41.9922 -47.2656 Z M 69.7266 -47.2656 C 69.7266 -53.7109 74.4629 -58.3496 80.957 -58.3496 C 88.3301 -58.3496 92.9688 -52.3438 92.9688 -44.7754 C 92.9688 -33.4961 83.4473 -26.3184 77.4902 -26.3184 C 75.8789 -26.3184 74.6582 -27.2461 74.6582 -28.7598 C 74.6582 -30.0293 75.3906 -30.9082 76.9043 -31.25 C 81.5918 -32.3242 85.2051 -35.3516 86.4746 -38.9648 L 85.5469 -38.9648 C 84.1309 -37.3047 81.9336 -36.6211 79.3457 -36.6211 C 73.6328 -36.6211 69.7266 -41.1621 69.7266 -47.2656 Z"/>
  </g>
  <g id="Semibold-M" transform="matrix(1 0 0 1 1976.52 1126)">
   <path d="M 41.8457 20.2148 C 43.9941 20.2148 45.6543 19.2383 48.1934 16.9434 L 66.4551 0.585938 L 97.6074 0.585938 C 112.402 0.634766 121.045 -8.20312 121.045 -22.8027 L 121.045 -61.2305 C 121.045 -75.8301 112.402 -84.668 97.6074 -84.668 L 35.8887 -84.668 C 21.0938 -84.668 12.4512 -75.8789 12.4512 -61.2305 L 12.4512 -22.8027 C 12.4512 -8.1543 21.4844 0.585938 35.2539 0.585938 L 36.9141 0.585938 L 36.9141 14.6973 C 36.9141 18.0664 38.7695 20.2148 41.8457 20.2148 Z M 42.2852 -47.0703 C 42.2852 -53.2715 46.9238 -57.7148 53.1738 -57.7148 C 60.1562 -57.7148 64.6484 -52.002 64.6484 -44.8242 C 64.6484 -33.1543 54.9805 -26.4648 49.3652 -26.4648 C 47.8516 -26.4648 46.6797 -27.3926 46.6797 -28.8574 C 46.6797 -30.0781 47.3633 -30.9082 49.0234 -31.2988 C 53.125 -32.2754 56.8359 -35.1562 58.252 -38.916 L 57.5195 -38.916 C 56.1523 -37.2559 54.0039 -36.7188 51.6602 -36.7188 C 45.9961 -36.7188 42.2852 -41.1621 42.2852 -47.0703 Z M 69.4824 -47.0703 C 69.4824 -53.2715 74.0723 -57.7148 80.3223 -57.7148 C 87.3047 -57.7148 91.8457 -52.002 91.8457 -44.8242 C 91.8457 -33.1543 82.1777 -26.4648 76.6113 -26.4648 C 75.0488 -26.4648 73.9258 -27.3926 73.9258 -28.8574 C 73.9258 -30.0781 74.5605 -30.9082 76.1719 -31.2988 C 80.3223 -32.2754 83.9844 -35.1562 85.4492 -38.916 L 84.7168 -38.916 C 83.3496 -37.2559 81.2012 -36.7188 78.8086 -36.7188 C 73.1934 -36.7188 69.4824 -41.1621 69.4824 -47.0703 Z"/>
  </g>
  <g id="Medium-M" transform="matrix(1 0 0 1 1680.03 1126)">
   <path d="M 41.6992 19.5312 C 43.75 19.5312 45.2637 18.5547 47.7051 16.3574 L 65.7227 0.0976562 L 97.6562 0.146484 C 112.354 0.146484 120.605 -8.34961 120.605 -22.8516 L 120.605 -60.791 C 120.605 -75.293 112.354 -83.7891 97.6562 -83.7891 L 35.4004 -83.7891 C 20.752 -83.7891 12.4512 -75.293 12.4512 -60.791 L 12.4512 -22.8516 C 12.4512 -8.30078 20.9961 0.0976562 35.0586 0.0976562 L 37.0117 0.0976562 L 37.0117 14.2578 C 37.0117 17.4805 38.7207 19.5312 41.6992 19.5312 Z M 42.4805 -46.9238 C 42.4805 -52.9297 47.0215 -57.2266 53.125 -57.2266 C 59.8145 -57.2266 64.209 -51.8066 64.209 -44.873 C 64.209 -32.9102 54.4434 -26.5625 49.1699 -26.5625 C 47.7051 -26.5625 46.582 -27.5391 46.582 -28.9062 C 46.582 -30.0781 47.168 -30.9082 48.9258 -31.3477 C 52.6367 -32.2754 56.2988 -35.0098 57.9102 -38.8184 L 57.3242 -38.8184 C 56.0059 -37.2559 53.9062 -36.7676 51.709 -36.7676 C 46.0938 -36.7676 42.4805 -41.1621 42.4805 -46.9238 Z M 69.2383 -46.9238 C 69.2383 -52.9297 73.7793 -57.2266 79.834 -57.2266 C 86.5234 -57.2266 90.9668 -51.8066 90.9668 -44.873 C 90.9668 -32.9102 81.25 -26.5625 75.9277 -26.5625 C 74.4629 -26.5625 73.3887 -27.5391 73.3887 -28.9062 C 73.3887 -30.0781 73.9746 -30.9082 75.6836 -31.3477 C 79.3945 -32.2754 83.0566 -35.0098 84.668 -38.8184 L 84.082 -38.8184 C 82.7637 -37.2559 80.6641 -36.7676 78.418 -36.7676 C 72.8516 -36.7676 69.2383 -41.1621 69.2383 -46.9238 Z"/>
  </g>
  <g id="Regular-M" transform="matrix(1 0 0 1 1383.58 1126)">
   <path d="M 41.4551 18.7012 C 43.3594 18.7012 44.7754 17.7246 47.0703 15.5762 L 64.6973 -0.537109 L 97.7051 -0.488281 C 112.256 -0.439453 120.068 -8.54492 120.068 -22.8516 L 120.068 -60.2539 C 120.068 -74.5605 112.256 -82.6172 97.7051 -82.6172 L 34.8145 -82.6172 C 20.2637 -82.6172 12.4512 -74.6094 12.4512 -60.2539 L 12.4512 -22.8516 C 12.4512 -8.49609 20.2637 -0.537109 34.8145 -0.537109 L 37.1094 -0.537109 L 37.1094 13.6719 C 37.1094 16.6992 38.6719 18.7012 41.4551 18.7012 Z M 42.7734 -46.6797 C 42.7734 -52.4902 47.2168 -56.5918 53.0762 -56.5918 C 59.375 -56.5918 63.623 -51.5137 63.623 -44.9219 C 63.623 -32.5684 53.7598 -26.709 48.8281 -26.709 C 47.4609 -26.709 46.4355 -27.7344 46.4355 -28.9551 C 46.4355 -30.127 46.9238 -30.957 48.7793 -31.3965 C 51.9531 -32.2266 55.6641 -34.8145 57.4219 -38.7695 L 57.0312 -38.7695 C 55.7617 -37.207 53.7598 -36.8652 51.7578 -36.8652 C 46.2402 -36.8652 42.7734 -41.2109 42.7734 -46.6797 Z M 68.9941 -46.6797 C 68.9941 -52.4902 73.3887 -56.5918 79.248 -56.5918 C 85.5469 -56.5918 89.8438 -51.5137 89.8438 -44.9219 C 89.8438 -32.5684 79.9805 -26.709 75.0488 -26.709 C 73.6816 -26.709 72.6562 -27.7344 72.6562 -28.9551 C 72.6562 -30.127 73.1445 -30.957 74.9512 -31.3965 C 78.1738 -32.2266 81.8848 -34.8145 83.6426 -38.7695 L 83.252 -38.7695 C 81.9824 -37.207 79.9805 -36.8652 77.9297 -36.8652 C 72.4609 -36.8652 68.9941 -41.2109 68.9941 -46.6797 Z"/>
  </g>
  <g id="Light-M" transform="matrix(1 0 0 1 1087.68 1126)">
   <path d="M 39.7949 17.3828 C 41.3574 17.3828 42.4805 16.5527 44.2383 14.9414 L 61.9141 -0.830078 L 97.7051 -0.830078 C 110.938 -0.78125 118.457 -8.49609 118.457 -21.5332 L 118.457 -60.791 C 118.457 -73.877 110.938 -81.543 97.7051 -81.543 L 33.2031 -81.543 C 19.9707 -81.543 12.4512 -73.9258 12.4512 -60.791 L 12.4512 -21.5332 C 12.4512 -8.44727 19.9707 -0.830078 33.2031 -0.830078 L 36.2793 -0.830078 L 36.2793 13.3301 C 36.2793 15.7715 37.5977 17.3828 39.7949 17.3828 Z M 43.2617 -45.8984 C 43.2617 -51.2207 47.3633 -55.127 52.832 -55.127 C 58.5449 -55.127 62.7441 -50.5371 62.7441 -44.1895 C 62.7441 -32.6172 53.2715 -27.2949 48.9746 -27.2949 C 47.7539 -27.2949 46.875 -28.1738 46.875 -29.2969 C 46.875 -30.2734 47.3145 -31.0059 48.9258 -31.3965 C 51.709 -32.1289 55.6152 -34.7168 57.2754 -38.7695 L 56.8848 -38.7695 C 55.6641 -37.207 53.7109 -36.7676 51.709 -36.7676 C 46.5332 -36.7676 43.2617 -40.7227 43.2617 -45.8984 Z M 68.2129 -45.8984 C 68.2129 -51.2207 72.3145 -55.127 77.7832 -55.127 C 83.4961 -55.127 87.6953 -50.5371 87.6953 -44.1895 C 87.6953 -32.6172 78.2715 -27.2949 73.9258 -27.2949 C 72.7051 -27.2949 71.8262 -28.1738 71.8262 -29.2969 C 71.8262 -30.2734 72.3145 -31.0059 73.877 -31.3965 C 76.6602 -32.1289 80.6152 -34.7168 82.2266 -38.7695 L 81.8848 -38.7695 C 80.6152 -37.207 78.7109 -36.7676 76.6602 -36.7676 C 71.5332 -36.7676 68.2129 -40.7227 68.2129 -45.8984 Z"/>
  </g>
  <g id="Thin-M" transform="matrix(1 0 0 1 792.042 1126)">
   <path d="M 37.5977 15.625 C 38.6719 15.625 39.502 14.9902 40.5273 14.1113 L 58.252 -1.2207 L 97.7051 -1.2207 C 109.229 -1.2207 116.309 -8.44727 116.309 -19.8242 L 116.309 -61.5234 C 116.309 -72.9004 109.229 -80.127 97.7051 -80.127 L 31.0547 -80.127 C 19.5312 -80.127 12.4512 -72.998 12.4512 -61.5234 L 12.4512 -19.8242 C 12.4512 -8.34961 19.5312 -1.2207 31.0547 -1.2207 L 35.2051 -1.2207 L 35.2051 12.8906 C 35.2051 14.5508 36.1816 15.625 37.5977 15.625 Z M 43.8477 -44.8242 C 43.8477 -49.5605 47.6074 -53.2227 52.4902 -53.2227 C 57.4219 -53.2227 61.5723 -49.2676 61.5723 -43.2617 C 61.5723 -32.666 52.6367 -28.0273 49.1211 -28.0273 C 48.1445 -28.0273 47.4121 -28.7598 47.4121 -29.6875 C 47.4121 -30.5176 47.8516 -31.0547 49.1211 -31.3965 C 51.3672 -32.0312 55.5664 -34.5703 57.0801 -38.8184 L 56.6895 -38.8184 C 55.5176 -37.2559 53.6621 -36.6211 51.6602 -36.6211 C 46.9727 -36.6211 43.8477 -40.1367 43.8477 -44.8242 Z M 67.1875 -44.8242 C 67.1875 -49.5605 70.8984 -53.2227 75.8301 -53.2227 C 80.7617 -53.2227 84.9121 -49.2676 84.9121 -43.2617 C 84.9121 -32.666 75.9277 -28.0273 72.4609 -28.0273 C 71.4844 -28.0273 70.752 -28.7598 70.752 -29.6875 C 70.752 -30.5176 71.1914 -31.0547 72.4121 -31.3965 C 74.707 -32.0312 78.9062 -34.5703 80.4199 -38.8184 L 80.0293 -38.8184 C 78.8086 -37.2559 77.002 -36.6211 75 -36.6211 C 70.3125 -36.6211 67.1875 -40.1367 67.1875 -44.8242 Z"/>
  </g>
  <g id="Ultralight-M" transform="matrix(1 0 0 1 495.893 1126)">
   <path d="M 36.4746 14.6973 C 37.2559 14.6973 37.9395 14.209 38.5742 13.6719 L 56.3477 -1.41602 L 97.7051 -1.41602 C 108.35 -1.41602 115.186 -8.39844 115.186 -18.9453 L 115.186 -61.9141 C 115.186 -72.4121 108.35 -79.3945 97.7051 -79.3945 L 29.9316 -79.3945 C 19.2871 -79.3945 12.4512 -72.5586 12.4512 -61.9141 L 12.4512 -18.9453 C 12.4512 -8.25195 19.2871 -1.41602 29.9316 -1.41602 L 34.668 -1.41602 L 34.668 12.6465 C 34.668 13.916 35.4492 14.6973 36.4746 14.6973 Z M 44.1895 -44.2383 C 44.1895 -48.7305 47.7051 -52.2461 52.3438 -52.2461 C 56.8848 -52.2461 60.9863 -48.584 60.9863 -42.7734 C 60.9863 -32.7148 52.2949 -28.418 49.2188 -28.418 C 48.3398 -28.418 47.7051 -29.0527 47.7051 -29.9316 C 47.7051 -30.6152 48.0957 -31.1035 49.2188 -31.3965 C 51.1719 -31.9336 55.5664 -34.5215 56.9824 -38.8184 L 56.5918 -38.8184 C 55.4199 -37.2559 53.6133 -36.5723 51.6113 -36.5723 C 47.2168 -36.5723 44.1895 -39.8438 44.1895 -44.2383 Z M 66.6504 -44.2383 C 66.6504 -48.7305 70.2148 -52.2461 74.8535 -52.2461 C 79.3457 -52.2461 83.4961 -48.584 83.4961 -42.7734 C 83.4961 -32.7148 74.7559 -28.418 71.6797 -28.418 C 70.8496 -28.418 70.2148 -29.0527 70.2148 -29.9316 C 70.2148 -30.6152 70.6055 -31.1035 71.6797 -31.3965 C 73.6816 -31.9336 78.0273 -34.5215 79.4434 -38.8184 L 79.1016 -38.8184 C 77.9297 -37.2559 76.123 -36.5723 74.1211 -36.5723 C 69.7266 -36.5723 66.6504 -39.8438 66.6504 -44.2383 Z"/>
  </g>
  <g id="Black-S" transform="matrix(1 0 0 1 2880.28 696)">
   <path d="M 33.4961 10.6445 C 35.498 10.6445 37.2559 9.96094 39.6973 7.8125 L 54.9805 -5.37109 L 76.3672 -5.37109 C 88.3789 -5.37109 96.4844 -13.4766 96.4844 -25.4883 L 96.4844 -57.1289 C 96.4844 -69.1406 88.3789 -77.2461 76.3672 -77.2461 L 29.8828 -77.2461 C 17.8711 -77.2461 9.76562 -69.1406 9.76562 -57.1289 L 9.76562 -25.4883 C 9.76562 -13.4766 18.8477 -5.37109 28.418 -5.37109 L 28.7109 -5.37109 L 28.7109 5.46875 C 28.7109 8.69141 30.5664 10.6445 33.4961 10.6445 Z M 32.2754 -45.1172 C 32.2754 -50.6348 36.2305 -54.6875 41.7969 -54.6875 C 48.4375 -54.6875 52.2949 -49.2676 52.2949 -42.627 C 52.2949 -34.5703 45.0684 -27.9297 39.5508 -27.9297 C 38.1836 -27.9297 37.0117 -28.6133 37.0117 -30.0293 C 37.0117 -31.0547 37.7441 -31.7871 38.7695 -32.0312 C 43.5059 -33.0078 46.3867 -35.7422 46.9727 -38.3301 L 45.8496 -38.3301 C 44.6289 -36.9141 42.7246 -36.1328 40.2344 -36.1328 C 35.6445 -36.1328 32.2754 -39.8438 32.2754 -45.1172 Z M 55.1758 -45.1172 C 55.1758 -50.6348 59.1309 -54.6875 64.6973 -54.6875 C 71.3379 -54.6875 75.1953 -49.2676 75.1953 -42.627 C 75.1953 -34.5703 67.9688 -27.9297 62.5 -27.9297 C 61.084 -27.9297 59.9609 -28.6133 59.9609 -30.0293 C 59.9609 -31.0547 60.6934 -31.7871 61.6699 -32.0312 C 66.4551 -33.0078 69.2871 -35.7422 69.873 -38.3301 L 68.75 -38.3301 C 67.5293 -36.9141 65.625 -36.1328 63.1836 -36.1328 C 58.5449 -36.1328 55.1758 -39.8438 55.1758 -45.1172 Z"/>
  </g>
  <g id="Heavy-S" transform="matrix(1 0 0 1 2583.76 696)">
   <path d="M 33.4473 9.96094 C 35.4004 9.96094 37.0117 9.22852 39.3555 7.12891 L 54.2969 -5.95703 L 76.416 -5.95703 C 88.4277 -5.95703 96.0938 -13.6719 96.0938 -25.6348 L 96.0938 -56.543 C 96.0938 -68.5059 88.4277 -76.2207 76.416 -76.2207 L 29.4434 -76.2207 C 17.4316 -76.2207 9.76562 -68.5059 9.76562 -56.543 L 9.76562 -25.6348 C 9.76562 -13.6719 18.2129 -5.95703 28.3203 -5.95703 L 28.9062 -5.95703 L 28.9062 4.93164 C 28.9062 8.05664 30.6152 9.96094 33.4473 9.96094 Z M 32.5195 -45.0195 C 32.5195 -50.3418 36.377 -54.1992 41.748 -54.1992 C 48.0957 -54.1992 51.8066 -49.0723 51.8066 -42.7734 C 51.8066 -34.2285 44.4336 -28.0273 39.209 -28.0273 C 37.8906 -28.0273 36.8164 -28.7109 36.8164 -30.0781 C 36.8164 -31.1035 37.4512 -31.7871 38.623 -32.0801 C 42.8711 -33.0078 45.752 -35.5469 46.5332 -38.2324 L 45.6055 -38.2324 C 44.4336 -36.8652 42.5781 -36.2305 40.332 -36.2305 C 35.7422 -36.2305 32.5195 -39.8926 32.5195 -45.0195 Z M 54.9805 -45.0195 C 54.9805 -50.3418 58.8379 -54.1992 64.2578 -54.1992 C 70.5566 -54.1992 74.3164 -49.0723 74.3164 -42.7734 C 74.3164 -34.2285 66.8945 -28.0273 61.7676 -28.0273 C 60.4004 -28.0273 59.3262 -28.7109 59.3262 -30.0781 C 59.3262 -31.1035 60.0098 -31.7871 61.084 -32.0801 C 65.3809 -33.0078 68.2129 -35.5469 68.9941 -38.2324 L 68.0664 -38.2324 C 66.8945 -36.8652 65.0879 -36.2305 62.8418 -36.2305 C 58.2031 -36.2305 54.9805 -39.8926 54.9805 -45.0195 Z"/>
  </g>
  <g id="Bold-S" transform="matrix(1 0 0 1 2287.27 696)">
   <path d="M 33.3984 9.13086 C 35.2539 9.13086 36.7188 8.39844 38.9648 6.34766 L 53.5156 -6.64062 L 76.4648 -6.64062 C 88.4766 -6.5918 95.6543 -13.916 95.6543 -25.8301 L 95.6543 -55.8594 C 95.6543 -67.7734 88.4766 -75.0488 76.4648 -75.0488 L 28.9551 -75.0488 C 16.9434 -75.0488 9.76562 -67.7734 9.76562 -55.8594 L 9.76562 -25.8301 C 9.76562 -13.916 17.4316 -6.64062 28.2227 -6.64062 L 29.1016 -6.64062 L 29.1016 4.3457 C 29.1016 7.32422 30.7129 9.13086 33.3984 9.13086 Z M 32.7637 -44.873 C 32.7637 -50 36.5723 -53.6621 41.748 -53.6621 C 47.6562 -53.6621 51.2695 -48.8281 51.2695 -42.8711 C 51.2695 -33.8379 43.7012 -28.0762 38.8672 -28.0762 C 37.5977 -28.0762 36.5723 -28.8574 36.5723 -30.127 C 36.5723 -31.1035 37.1582 -31.8359 38.4766 -32.1289 C 42.1875 -32.959 44.9707 -35.3516 45.9961 -38.1836 L 45.3125 -38.1836 C 44.1895 -36.8652 42.4316 -36.3281 40.3809 -36.3281 C 35.8398 -36.3281 32.7637 -39.9902 32.7637 -44.873 Z M 54.7852 -44.873 C 54.7852 -50 58.5449 -53.6621 63.7207 -53.6621 C 69.6777 -53.6621 73.291 -48.8281 73.291 -42.8711 C 73.291 -33.8379 65.7227 -28.0762 60.9375 -28.0762 C 59.6191 -28.0762 58.6426 -28.8574 58.6426 -30.127 C 58.6426 -31.1035 59.2285 -31.8359 60.4492 -32.1289 C 64.209 -32.959 66.9922 -35.3516 68.0176 -38.1836 L 67.334 -38.1836 C 66.2109 -36.8652 64.4531 -36.3281 62.4023 -36.3281 C 57.8613 -36.3281 54.7852 -39.9902 54.7852 -44.873 Z"/>
  </g>
  <g id="Semibold-S" transform="matrix(1 0 0 1 1990.7 696)">
   <path d="M 33.3496 8.59375 C 35.1562 8.59375 36.5234 7.8125 38.7207 5.81055 L 52.9785 -7.08008 L 76.5137 -7.08008 C 88.5254 -7.03125 95.3613 -14.0625 95.3613 -25.9277 L 95.3613 -55.3711 C 95.3613 -67.2852 88.5254 -74.2676 76.5137 -74.2676 L 28.6621 -74.2676 C 16.6504 -74.2676 9.76562 -67.2852 9.76562 -55.3711 L 9.76562 -25.9277 C 9.76562 -14.0625 16.9434 -7.08008 28.1738 -7.08008 L 29.248 -7.08008 L 29.248 3.95508 C 29.248 6.78711 30.7617 8.59375 33.3496 8.59375 Z M 32.959 -44.7754 C 32.959 -49.7559 36.6699 -53.3203 41.6992 -53.3203 C 47.3633 -53.3203 50.8789 -48.6816 50.8789 -42.9688 C 50.8789 -33.5938 43.2129 -28.1738 38.623 -28.1738 C 37.4023 -28.1738 36.4258 -28.9551 36.4258 -30.127 C 36.4258 -31.1523 36.9629 -31.8359 38.3301 -32.1777 C 41.6992 -32.959 44.4824 -35.2051 45.6543 -38.0859 L 45.1172 -38.0859 C 43.9941 -36.8164 42.334 -36.4258 40.4785 -36.4258 C 35.8887 -36.4258 32.959 -40.0391 32.959 -44.7754 Z M 54.6387 -44.7754 C 54.6387 -49.7559 58.3496 -53.3203 63.3789 -53.3203 C 69.043 -53.3203 72.6074 -48.6816 72.6074 -42.9688 C 72.6074 -33.5938 64.9414 -28.1738 60.3516 -28.1738 C 59.082 -28.1738 58.1543 -28.9551 58.1543 -30.127 C 58.1543 -31.1523 58.6914 -31.8359 60.0098 -32.1777 C 63.3789 -32.959 66.2109 -35.2051 67.3828 -38.0859 L 66.7969 -38.0859 C 65.7227 -36.8164 64.0137 -36.4258 62.1582 -36.4258 C 57.6172 -36.4258 54.6387 -40.0391 54.6387 -44.7754 Z"/>
  </g>
  <g id="Medium-S" transform="matrix(1 0 0 1 1694.09 696)">
   <path d="M 33.3496 8.20312 C 35.0586 8.20312 36.377 7.37305 38.4766 5.41992 L 52.5879 -7.4707 L 76.5137 -7.42188 C 88.5254 -7.37305 95.166 -14.209 95.166 -26.0254 L 95.166 -55.0293 C 95.166 -66.8945 88.5254 -73.6816 76.5137 -73.6816 L 28.418 -73.6816 C 16.4062 -73.6816 9.76562 -66.8945 9.76562 -55.0293 L 9.76562 -26.0254 C 9.76562 -14.209 16.5527 -7.4707 28.125 -7.4707 L 29.3457 -7.4707 L 29.3457 3.66211 C 29.3457 6.39648 30.8105 8.20312 33.3496 8.20312 Z M 33.1055 -44.6777 C 33.1055 -49.6094 36.7676 -53.0273 41.6992 -53.0273 C 47.168 -53.0273 50.6348 -48.584 50.6348 -43.0664 C 50.6348 -33.3984 42.8223 -28.2227 38.4277 -28.2227 C 37.207 -28.2227 36.3281 -29.0527 36.3281 -30.127 C 36.3281 -31.1523 36.7676 -31.8359 38.2812 -32.1777 C 41.3086 -32.959 44.0918 -35.1074 45.4102 -38.0371 L 44.9707 -38.0371 C 43.8965 -36.8164 42.2363 -36.4746 40.5273 -36.4746 C 35.9863 -36.4746 33.1055 -40.0879 33.1055 -44.6777 Z M 54.541 -44.6777 C 54.541 -49.6094 58.2031 -53.0273 63.1348 -53.0273 C 68.6035 -53.0273 72.0703 -48.584 72.0703 -43.0664 C 72.0703 -33.3984 64.3066 -28.2227 59.9121 -28.2227 C 58.6914 -28.2227 57.7637 -29.0527 57.7637 -30.127 C 57.7637 -31.1523 58.252 -31.8359 59.668 -32.1777 C 62.793 -32.959 65.5762 -35.1074 66.8457 -38.0371 L 66.4062 -38.0371 C 65.332 -36.8164 63.7207 -36.4746 61.9629 -36.4746 C 57.4219 -36.4746 54.541 -40.0879 54.541 -44.6777 Z"/>
  </g>
  <g id="Regular-S" transform="matrix(1 0 0 1 1397.53 696)">
   <path d="M 33.3008 7.66602 C 35.0098 7.66602 36.1816 6.78711 38.2324 4.88281 L 52.0508 -7.91016 L 76.5625 -7.86133 C 88.5742 -7.8125 94.873 -14.3555 94.873 -26.1719 L 94.873 -54.5898 C 94.873 -66.4062 88.5742 -72.9004 76.5625 -72.9004 L 28.0762 -72.9004 C 16.0645 -72.9004 9.76562 -66.4062 9.76562 -54.5898 L 9.76562 -26.1719 C 9.76562 -14.3555 16.0645 -7.91016 28.0762 -7.91016 L 29.4434 -7.91016 L 29.4434 3.27148 C 29.4434 5.9082 30.8594 7.66602 33.3008 7.66602 Z M 33.252 -44.5801 C 33.252 -49.3652 36.9141 -52.6367 41.6504 -52.6367 C 46.875 -52.6367 50.2441 -48.4375 50.2441 -43.1641 C 50.2441 -33.1055 42.334 -28.2715 38.1836 -28.2715 C 37.0117 -28.2715 36.1328 -29.1016 36.1328 -30.1758 C 36.1328 -31.1523 36.5723 -31.8359 38.1348 -32.2266 C 40.8203 -32.959 43.6035 -34.9609 45.0684 -37.9883 L 44.7754 -37.9883 C 43.75 -36.7676 42.1387 -36.5723 40.5762 -36.5723 C 36.0352 -36.5723 33.252 -40.1367 33.252 -44.5801 Z M 54.4434 -44.5801 C 54.4434 -49.3652 58.0078 -52.6367 62.7441 -52.6367 C 67.9688 -52.6367 71.3867 -48.4375 71.3867 -43.1641 C 71.3867 -33.1055 63.4766 -28.2715 59.3262 -28.2715 C 58.1543 -28.2715 57.2754 -29.1016 57.2754 -30.1758 C 57.2754 -31.1523 57.7148 -31.8359 59.2773 -32.2266 C 61.9629 -32.959 64.7461 -34.9609 66.2109 -37.9883 L 65.918 -37.9883 C 64.8926 -36.7676 63.2812 -36.5723 61.6699 -36.5723 C 57.1777 -36.5723 54.4434 -40.1367 54.4434 -44.5801 Z"/>
  </g>
  <g id="Light-S" transform="matrix(1 0 0 1 1101.55 696)">
   <path d="M 31.8359 6.49414 C 33.2031 6.49414 34.1797 5.76172 35.7422 4.3457 L 49.6094 -8.1543 L 76.5625 -8.1543 C 87.4023 -8.10547 93.4082 -14.3066 93.4082 -25 L 93.4082 -55.0781 C 93.4082 -65.7715 87.4023 -71.9238 76.5625 -71.9238 L 26.6113 -71.9238 C 15.7715 -71.9238 9.76562 -65.8203 9.76562 -55.0781 L 9.76562 -25 C 9.76562 -14.2578 15.7715 -8.1543 26.6113 -8.1543 L 28.7598 -8.1543 L 28.7598 2.97852 C 28.7598 5.07812 29.8828 6.49414 31.8359 6.49414 Z M 33.6914 -43.8965 C 33.6914 -48.2422 37.0605 -51.3672 41.4551 -51.3672 C 46.1426 -51.3672 49.4629 -47.6074 49.4629 -42.5293 C 49.4629 -33.1543 41.8945 -28.7598 38.2812 -28.7598 C 37.2559 -28.7598 36.5234 -29.541 36.5234 -30.4688 C 36.5234 -31.2988 36.9141 -31.8848 38.2812 -32.2266 C 40.5762 -32.8613 43.5547 -34.8633 44.9219 -37.9883 L 44.6289 -37.9883 C 43.6523 -36.7676 42.0898 -36.4746 40.5273 -36.4746 C 36.3281 -36.4746 33.6914 -39.6973 33.6914 -43.8965 Z M 53.7109 -43.8965 C 53.7109 -48.2422 57.0312 -51.3672 61.4746 -51.3672 C 66.1621 -51.3672 69.5312 -47.6074 69.5312 -42.5293 C 69.5312 -33.1543 61.9629 -28.7598 58.3496 -28.7598 C 57.3242 -28.7598 56.5918 -29.541 56.5918 -30.4688 C 56.5918 -31.2988 56.9824 -31.8848 58.3008 -32.2266 C 60.6445 -32.8613 63.623 -34.8633 64.9414 -37.9883 L 64.6484 -37.9883 C 63.6719 -36.7676 62.1094 -36.4746 60.5469 -36.4746 C 56.3965 -36.4746 53.7109 -39.6973 53.7109 -43.8965 Z"/>
  </g>
  <g id="Thin-S" transform="matrix(1 0 0 1 805.763 696)">
   <path d="M 29.8828 4.93164 C 30.8105 4.93164 31.4941 4.44336 32.4707 3.61328 L 46.3379 -8.49609 L 76.5625 -8.49609 C 85.9375 -8.49609 91.5527 -14.2578 91.5527 -23.4863 L 91.5527 -55.7129 C 91.5527 -64.9414 85.9375 -70.6543 76.5625 -70.6543 L 24.7559 -70.6543 C 15.3809 -70.6543 9.76562 -64.9902 9.76562 -55.7129 L 9.76562 -23.4863 C 9.76562 -14.1602 15.3809 -8.49609 24.7559 -8.49609 L 27.7832 -8.49609 L 27.7832 2.53906 C 27.7832 4.00391 28.6133 4.93164 29.8828 4.93164 Z M 34.2285 -42.9199 C 34.2285 -46.7773 37.207 -49.707 41.2109 -49.707 C 45.2148 -49.707 48.4375 -46.4844 48.4375 -41.6992 C 48.4375 -33.2031 41.3574 -29.4434 38.4277 -29.4434 C 37.5977 -29.4434 37.0117 -30.0293 37.0117 -30.8105 C 37.0117 -31.4941 37.3535 -31.9336 38.4277 -32.2266 C 40.2832 -32.7637 43.5547 -34.7656 44.7266 -38.0371 L 44.4336 -38.0371 C 43.5059 -36.8164 42.041 -36.377 40.4785 -36.377 C 36.7188 -36.377 34.2285 -39.209 34.2285 -42.9199 Z M 52.832 -42.9199 C 52.832 -46.7773 55.8105 -49.707 59.7656 -49.707 C 63.7695 -49.707 67.041 -46.4844 67.041 -41.6992 C 67.041 -33.2031 59.9121 -29.4434 57.0312 -29.4434 C 56.2012 -29.4434 55.6152 -30.0293 55.6152 -30.8105 C 55.6152 -31.4941 55.957 -31.9336 57.0312 -32.2266 C 58.8867 -32.7637 62.1094 -34.7656 63.3301 -38.0371 L 63.0371 -38.0371 C 62.1094 -36.8164 60.6445 -36.377 59.0332 -36.377 C 55.3223 -36.377 52.832 -39.209 52.832 -42.9199 Z"/>
  </g>
  <g id="Ultralight-S" transform="matrix(1 0 0 1 509.54 696)">
   <path d="M 28.9062 4.15039 C 29.5898 4.15039 30.127 3.71094 30.7617 3.22266 L 44.6777 -8.69141 L 76.5625 -8.69141 C 85.1562 -8.69141 90.5762 -14.209 90.5762 -22.7051 L 90.5762 -56.0059 C 90.5762 -64.502 85.1562 -70.0195 76.5625 -70.0195 L 23.7793 -70.0195 C 15.1855 -70.0195 9.76562 -64.5996 9.76562 -56.0059 L 9.76562 -22.7051 C 9.76562 -14.1113 15.1855 -8.69141 23.7793 -8.69141 L 27.2949 -8.69141 L 27.2949 2.34375 C 27.2949 3.4668 27.9785 4.15039 28.9062 4.15039 Z M 34.5215 -42.4316 C 34.5215 -46.0449 37.3535 -48.8281 41.0645 -48.8281 C 44.6777 -48.8281 47.9004 -45.8984 47.9004 -41.2598 C 47.9004 -33.252 41.0156 -29.7852 38.5254 -29.7852 C 37.793 -29.7852 37.3047 -30.3223 37.3047 -31.0059 C 37.3047 -31.5918 37.5977 -31.9824 38.5254 -32.2266 C 40.1367 -32.666 43.5059 -34.668 44.6289 -38.0371 L 44.3359 -38.0371 C 43.4082 -36.8164 41.9922 -36.2793 40.4297 -36.2793 C 36.9141 -36.2793 34.5215 -38.916 34.5215 -42.4316 Z M 52.3438 -42.4316 C 52.3438 -46.0449 55.1758 -48.8281 58.8867 -48.8281 C 62.5488 -48.8281 65.7715 -45.8984 65.7715 -41.2598 C 65.7715 -33.252 58.8867 -29.7852 56.3477 -29.7852 C 55.6641 -29.7852 55.127 -30.3223 55.127 -31.0059 C 55.127 -31.5918 55.4199 -31.9824 56.3477 -32.2266 C 57.959 -32.666 61.377 -34.668 62.5 -38.0371 L 62.207 -38.0371 C 61.2793 -36.8164 59.8633 -36.2793 58.3008 -36.2793 C 54.7852 -36.2793 52.3438 -38.916 52.3438 -42.4316 Z"/>
  </g>
 </g>
</svg>
