<?xml version="1.0" encoding="UTF-8"?>
<!--Generator: Apple Native CoreSVG 148-->
<!DOCTYPE svg
PUBLIC "-//W3C//DTD SVG 1.1//EN"
       "http://www.w3.org/Graphics/SVG/1.1/DTD/svg11.dtd">
<svg version="1.1" xmlns="http://www.w3.org/2000/svg" xmlns:xlink="http://www.w3.org/1999/xlink" width="3300" height="2200">
 <!--glyph: "uni100027.medium", point size: 100.000000, font version: "Version 16.0d11e1", template writer version: "8"-->
 <g id="Notes">
  <rect height="2200" id="artboard" style="fill:white;opacity:1" width="3300" x="0" y="0"/>
  <line id="" style="fill:none;stroke:black;opacity:1;stroke-width:0.5;" x1="263" x2="3036" y1="292" y2="292"/>
  <text style="stroke:none;fill:black;font-family:-apple-system,&quot;SF Pro Display&quot;,&quot;SF Pro Text&quot;,Helvetica,sans-serif;font-weight:bold;" transform="matrix(1 0 0 1 263 322)">Weight/Scale Variations</text>
  <text style="stroke:none;fill:black;font-family:-apple-system,&quot;SF Pro Display&quot;,&quot;SF Pro Text&quot;,Helvetica,sans-serif;text-anchor:middle;" transform="matrix(1 0 0 1 559.711 322)">Ultralight</text>
  <text style="stroke:none;fill:black;font-family:-apple-system,&quot;SF Pro Display&quot;,&quot;SF Pro Text&quot;,Helvetica,sans-serif;text-anchor:middle;" transform="matrix(1 0 0 1 856.422 322)">Thin</text>
  <text style="stroke:none;fill:black;font-family:-apple-system,&quot;SF Pro Display&quot;,&quot;SF Pro Text&quot;,Helvetica,sans-serif;text-anchor:middle;" transform="matrix(1 0 0 1 1153.13 322)">Light</text>
  <text style="stroke:none;fill:black;font-family:-apple-system,&quot;SF Pro Display&quot;,&quot;SF Pro Text&quot;,Helvetica,sans-serif;text-anchor:middle;" transform="matrix(1 0 0 1 1449.84 322)">Regular</text>
  <text style="stroke:none;fill:black;font-family:-apple-system,&quot;SF Pro Display&quot;,&quot;SF Pro Text&quot;,Helvetica,sans-serif;text-anchor:middle;" transform="matrix(1 0 0 1 1746.56 322)">Medium</text>
  <text style="stroke:none;fill:black;font-family:-apple-system,&quot;SF Pro Display&quot;,&quot;SF Pro Text&quot;,Helvetica,sans-serif;text-anchor:middle;" transform="matrix(1 0 0 1 2043.27 322)">Semibold</text>
  <text style="stroke:none;fill:black;font-family:-apple-system,&quot;SF Pro Display&quot;,&quot;SF Pro Text&quot;,Helvetica,sans-serif;text-anchor:middle;" transform="matrix(1 0 0 1 2339.98 322)">Bold</text>
  <text style="stroke:none;fill:black;font-family:-apple-system,&quot;SF Pro Display&quot;,&quot;SF Pro Text&quot;,Helvetica,sans-serif;text-anchor:middle;" transform="matrix(1 0 0 1 2636.69 322)">Heavy</text>
  <text style="stroke:none;fill:black;font-family:-apple-system,&quot;SF Pro Display&quot;,&quot;SF Pro Text&quot;,Helvetica,sans-serif;text-anchor:middle;" transform="matrix(1 0 0 1 2933.4 322)">Black</text>
  <line id="" style="fill:none;stroke:black;opacity:1;stroke-width:0.5;" x1="263" x2="3036" y1="1903" y2="1903"/>
  <g id="" transform="matrix(1 0 0 1 263 1933)">
   <path d="M 9.24805 0.830078 C 13.5547 0.830078 17.1387 -2.74414 17.1387 -7.05078 C 17.1387 -11.3574 13.5449 -14.9316 9.23828 -14.9316 C 4.94141 -14.9316 1.36719 -11.3574 1.36719 -7.05078 C 1.36719 -2.74414 4.95117 0.830078 9.24805 0.830078 Z M 9.24805 -0.654297 C 5.70312 -0.654297 2.87109 -3.49609 2.87109 -7.05078 C 2.87109 -10.6055 5.69336 -13.4473 9.23828 -13.4473 C 12.793 -13.4473 15.6348 -10.6055 15.6445 -7.05078 C 15.6543 -3.49609 12.8027 -0.654297 9.24805 -0.654297 Z M 9.22852 -3.62305 C 9.69727 -3.62305 9.9707 -3.93555 9.9707 -4.45312 L 9.9707 -6.31836 L 12.002 -6.31836 C 12.5 -6.31836 12.832 -6.57227 12.832 -7.04102 C 12.832 -7.51953 12.5195 -7.7832 12.002 -7.7832 L 9.9707 -7.7832 L 9.9707 -9.81445 C 9.9707 -10.332 9.69727 -10.6543 9.22852 -10.6543 C 8.75977 -10.6543 8.50586 -10.3125 8.50586 -9.81445 L 8.50586 -7.7832 L 6.49414 -7.7832 C 5.97656 -7.7832 5.64453 -7.51953 5.64453 -7.04102 C 5.64453 -6.57227 5.99609 -6.31836 6.49414 -6.31836 L 8.50586 -6.31836 L 8.50586 -4.45312 C 8.50586 -3.95508 8.75977 -3.62305 9.22852 -3.62305 Z"/>
  </g>
  <g id="" transform="matrix(1 0 0 1 281.506 1933)">
   <path d="M 11.709 2.91016 C 17.1582 2.91016 21.6699 -1.61133 21.6699 -7.05078 C 21.6699 -12.5 17.1484 -17.0117 11.6992 -17.0117 C 6.25977 -17.0117 1.74805 -12.5 1.74805 -7.05078 C 1.74805 -1.61133 6.26953 2.91016 11.709 2.91016 Z M 11.709 1.25 C 7.09961 1.25 3.41797 -2.44141 3.41797 -7.05078 C 3.41797 -11.6602 7.08984 -15.3516 11.6992 -15.3516 C 16.3086 -15.3516 20 -11.6602 20.0098 -7.05078 C 20.0195 -2.44141 16.3184 1.25 11.709 1.25 Z M 11.6797 -2.66602 C 12.207 -2.66602 12.5098 -3.01758 12.5098 -3.59375 L 12.5098 -6.23047 L 15.3223 -6.23047 C 15.8691 -6.23047 16.25 -6.51367 16.25 -7.03125 C 16.25 -7.55859 15.8887 -7.86133 15.3223 -7.86133 L 12.5098 -7.86133 L 12.5098 -10.6836 C 12.5098 -11.25 12.207 -11.6113 11.6797 -11.6113 C 11.1621 -11.6113 10.8789 -11.2305 10.8789 -10.6836 L 10.8789 -7.86133 L 8.07617 -7.86133 C 7.50977 -7.86133 7.13867 -7.55859 7.13867 -7.03125 C 7.13867 -6.51367 7.5293 -6.23047 8.07617 -6.23047 L 10.8789 -6.23047 L 10.8789 -3.59375 C 10.8789 -3.03711 11.1621 -2.66602 11.6797 -2.66602 Z"/>
  </g>
  <g id="" transform="matrix(1 0 0 1 304.924 1933)">
   <path d="M 14.9707 5.66406 C 21.9336 5.66406 27.6953 -0.0976562 27.6953 -7.05078 C 27.6953 -14.0137 21.9238 -19.7754 14.9609 -19.7754 C 8.00781 -19.7754 2.25586 -14.0137 2.25586 -7.05078 C 2.25586 -0.0976562 8.01758 5.66406 14.9707 5.66406 Z M 14.9707 3.84766 C 8.93555 3.84766 4.08203 -1.01562 4.08203 -7.05078 C 4.08203 -13.0957 8.92578 -17.9492 14.9609 -17.9492 C 21.0059 -17.9492 25.8594 -13.0957 25.8691 -7.05078 C 25.8789 -1.01562 21.0156 3.84766 14.9707 3.84766 Z M 14.9414 -1.38672 C 15.5176 -1.38672 15.8594 -1.77734 15.8594 -2.38281 L 15.8594 -6.13281 L 19.7754 -6.13281 C 20.3711 -6.13281 20.7812 -6.46484 20.7812 -7.02148 C 20.7812 -7.59766 20.3906 -7.93945 19.7754 -7.93945 L 15.8594 -7.93945 L 15.8594 -11.8652 C 15.8594 -12.4805 15.5176 -12.8711 14.9414 -12.8711 C 14.375 -12.8711 14.0527 -12.4609 14.0527 -11.8652 L 14.0527 -7.93945 L 10.1465 -7.93945 C 9.53125 -7.93945 9.13086 -7.59766 9.13086 -7.02148 C 9.13086 -6.46484 9.55078 -6.13281 10.1465 -6.13281 L 14.0527 -6.13281 L 14.0527 -2.38281 C 14.0527 -1.79688 14.375 -1.38672 14.9414 -1.38672 Z"/>
  </g>
  <text style="stroke:none;fill:black;font-family:-apple-system,&quot;SF Pro Display&quot;,&quot;SF Pro Text&quot;,Helvetica,sans-serif;font-weight:bold;" transform="matrix(1 0 0 1 263 1953)">Design Variations</text>
  <text style="stroke:none;fill:black;font-family:-apple-system,&quot;SF Pro Display&quot;,&quot;SF Pro Text&quot;,Helvetica,sans-serif;" transform="matrix(1 0 0 1 263 1971)">Symbols are supported in up to nine weights and three scales.</text>
  <text style="stroke:none;fill:black;font-family:-apple-system,&quot;SF Pro Display&quot;,&quot;SF Pro Text&quot;,Helvetica,sans-serif;" transform="matrix(1 0 0 1 263 1989)">For optimal layout with text and other symbols, vertically align</text>
  <text style="stroke:none;fill:black;font-family:-apple-system,&quot;SF Pro Display&quot;,&quot;SF Pro Text&quot;,Helvetica,sans-serif;" transform="matrix(1 0 0 1 263 2007)">symbols with the adjacent text.</text>
  <line id="" style="fill:none;stroke:#00AEEF;stroke-width:0.5;opacity:1.0;" x1="776" x2="776" y1="1919" y2="1933"/>
  <g id="" transform="matrix(1 0 0 1 776 1933)">
   <path d="M 3.31055 0.126953 C 3.82812 0.126953 4.08203 -0.0683594 4.26758 -0.605469 L 5.52734 -4.0625 L 11.2891 -4.0625 L 12.5488 -0.605469 C 12.7344 -0.0683594 12.9883 0.126953 13.4961 0.126953 C 14.0137 0.126953 14.3457 -0.185547 14.3457 -0.673828 C 14.3457 -0.839844 14.3164 -0.986328 14.2383 -1.20117 L 9.6582 -13.3887 C 9.43359 -13.9941 9.0332 -14.2871 8.4082 -14.2871 C 7.80273 -14.2871 7.39258 -13.9941 7.17773 -13.3984 L 2.59766 -1.19141 C 2.51953 -0.976562 2.49023 -0.830078 2.49023 -0.664062 C 2.49023 -0.175781 2.80273 0.126953 3.31055 0.126953 Z M 6.00586 -5.53711 L 8.37891 -12.1094 L 8.42773 -12.1094 L 10.8008 -5.53711 Z"/>
  </g>
  <line id="" style="fill:none;stroke:#00AEEF;stroke-width:0.5;opacity:1.0;" x1="792.836" x2="792.836" y1="1919" y2="1933"/>
  <text style="stroke:none;fill:black;font-family:-apple-system,&quot;SF Pro Display&quot;,&quot;SF Pro Text&quot;,Helvetica,sans-serif;font-weight:bold;" transform="matrix(1 0 0 1 776 1953)">Margins</text>
  <text style="stroke:none;fill:black;font-family:-apple-system,&quot;SF Pro Display&quot;,&quot;SF Pro Text&quot;,Helvetica,sans-serif;" transform="matrix(1 0 0 1 776 1971)">Leading and trailing margins on the left and right side of each symbol</text>
  <text style="stroke:none;fill:black;font-family:-apple-system,&quot;SF Pro Display&quot;,&quot;SF Pro Text&quot;,Helvetica,sans-serif;" transform="matrix(1 0 0 1 776 1989)">can be adjusted by modifying the x-location of the margin guidelines.</text>
  <text style="stroke:none;fill:black;font-family:-apple-system,&quot;SF Pro Display&quot;,&quot;SF Pro Text&quot;,Helvetica,sans-serif;" transform="matrix(1 0 0 1 776 2007)">Modifications are automatically applied proportionally to all</text>
  <text style="stroke:none;fill:black;font-family:-apple-system,&quot;SF Pro Display&quot;,&quot;SF Pro Text&quot;,Helvetica,sans-serif;" transform="matrix(1 0 0 1 776 2025)">scales and weights.</text>
  <g id="" transform="matrix(1 0 0 1 1289 1933)">
   <path d="M 2.8418 1.86523 L 4.54102 3.57422 C 5.40039 4.44336 6.38672 4.38477 7.31445 3.35938 L 17.4902 -7.85156 C 17.7539 -7.76367 18.0273 -7.7832 18.3398 -7.8418 L 19.4043 -8.03711 L 20.0684 -7.36328 L 20.0293 -6.80664 C 19.9902 -6.30859 20.1172 -5.92773 20.6055 -5.44922 L 21.3672 -4.70703 C 21.8457 -4.22852 22.4609 -4.19922 22.9297 -4.66797 L 25.8398 -7.58789 C 26.3086 -8.05664 26.2891 -8.65234 25.8105 -9.13086 L 25.0391 -9.89258 C 24.5605 -10.3711 24.1895 -10.5273 23.7109 -10.4883 L 23.1348 -10.4395 L 22.4902 -11.0742 L 22.7344 -12.1973 C 22.8613 -12.7637 22.7051 -13.2031 22.1191 -13.7891 L 19.9219 -15.9766 C 16.582 -19.2969 12.1484 -19.2188 9.25781 -16.3281 C 8.83789 -15.918 8.80859 -15.3418 9.04297 -14.9512 C 9.27734 -14.5898 9.73633 -14.3555 10.3809 -14.5215 C 11.8457 -14.8633 13.3691 -14.9219 14.7949 -13.9844 L 14.209 -12.5293 C 14.0137 -12.0508 13.9844 -11.6504 14.1113 -11.2891 L 3.04688 -0.898438 C 2.06055 0.0195312 1.98242 0.996094 2.8418 1.86523 Z M 10.752 -15.957 C 13.1836 -17.7344 16.4746 -17.4316 18.7012 -15.2051 L 21.1328 -12.793 C 21.3672 -12.5586 21.4062 -12.373 21.3379 -12.0312 L 21.0156 -10.5469 L 22.5195 -9.0625 L 23.5059 -9.12109 C 23.7598 -9.13086 23.8379 -9.11133 24.0332 -8.91602 L 24.6094 -8.33984 L 22.168 -5.89844 L 21.5918 -6.47461 C 21.3965 -6.66992 21.3672 -6.74805 21.377 -7.01172 L 21.4453 -7.98828 L 19.9512 -9.47266 L 18.4277 -9.21875 C 18.1055 -9.15039 17.959 -9.17969 17.7148 -9.41406 L 15.7129 -11.416 C 15.459 -11.6504 15.4297 -11.8164 15.5859 -12.1875 L 16.4648 -14.2773 C 14.9023 -15.7324 12.8711 -16.3574 10.8398 -15.7617 C 10.6836 -15.7227 10.625 -15.8496 10.752 -15.957 Z M 5.27344 2.30469 L 4.10156 1.14258 C 3.63281 0.683594 3.74023 0.341797 4.14062 -0.0195312 L 14.9512 -10.1953 L 16.416 -8.71094 L 6.42578 2.27539 C 6.07422 2.67578 5.74219 2.77344 5.27344 2.30469 Z"/>
  </g>
  <text style="stroke:none;fill:black;font-family:-apple-system,&quot;SF Pro Display&quot;,&quot;SF Pro Text&quot;,Helvetica,sans-serif;font-weight:bold;" transform="matrix(1 0 0 1 1289 1953)">Exporting</text>
  <text style="stroke:none;fill:black;font-family:-apple-system,&quot;SF Pro Display&quot;,&quot;SF Pro Text&quot;,Helvetica,sans-serif;" transform="matrix(1 0 0 1 1289 1971)">Symbols should be outlined when exporting to ensure the</text>
  <text style="stroke:none;fill:black;font-family:-apple-system,&quot;SF Pro Display&quot;,&quot;SF Pro Text&quot;,Helvetica,sans-serif;" transform="matrix(1 0 0 1 1289 1989)">design is preserved when submitting to Xcode.</text>
  <text id="template-version" style="stroke:none;fill:black;font-family:-apple-system,&quot;SF Pro Display&quot;,&quot;SF Pro Text&quot;,Helvetica,sans-serif;text-anchor:end;" transform="matrix(1 0 0 1 3036 1933)">Template v.2.0</text>
  <text style="stroke:none;fill:black;font-family:-apple-system,&quot;SF Pro Display&quot;,&quot;SF Pro Text&quot;,Helvetica,sans-serif;text-anchor:end;" transform="matrix(1 0 0 1 3036 1951)">Requires Xcode 12 or greater</text>
  <text style="stroke:none;fill:black;font-family:-apple-system,&quot;SF Pro Display&quot;,&quot;SF Pro Text&quot;,Helvetica,sans-serif;text-anchor:end;" transform="matrix(1 0 0 1 3036 1969)">Generated from r.circle.fill</text>
  <text style="stroke:none;fill:black;font-family:-apple-system,&quot;SF Pro Display&quot;,&quot;SF Pro Text&quot;,Helvetica,sans-serif;text-anchor:end;" transform="matrix(1 0 0 1 3036 1987)">Typeset at 100 points</text>
  <text style="stroke:none;fill:black;font-family:-apple-system,&quot;SF Pro Display&quot;,&quot;SF Pro Text&quot;,Helvetica,sans-serif;" transform="matrix(1 0 0 1 263 726)">Small</text>
  <text style="stroke:none;fill:black;font-family:-apple-system,&quot;SF Pro Display&quot;,&quot;SF Pro Text&quot;,Helvetica,sans-serif;" transform="matrix(1 0 0 1 263 1156)">Medium</text>
  <text style="stroke:none;fill:black;font-family:-apple-system,&quot;SF Pro Display&quot;,&quot;SF Pro Text&quot;,Helvetica,sans-serif;" transform="matrix(1 0 0 1 263 1586)">Large</text>
 </g>
 <g id="Guides">
  <g id="H-reference" style="fill:#27AAE1;stroke:none;" transform="matrix(1 0 0 1 339 696)">
   <path d="M 0.976562 0 L 3.66211 0 L 12.9883 -24.4629 L 45.7031 -24.4629 L 55.0781 0 L 57.7148 0 L 30.6152 -70.459 L 28.125 -70.459 Z M 29.2969 -67.1387 L 29.3945 -67.1387 L 44.873 -26.709 L 13.8672 -26.709 Z"/>
  </g>
  <line id="Baseline-S" style="fill:none;stroke:#27AAE1;opacity:1;stroke-width:0.5;" x1="263" x2="3036" y1="696" y2="696"/>
  <line id="Capline-S" style="fill:none;stroke:#27AAE1;opacity:1;stroke-width:0.5;" x1="263" x2="3036" y1="625.541" y2="625.541"/>
  <g id="H-reference" style="fill:#27AAE1;stroke:none;" transform="matrix(1 0 0 1 339 1126)">
   <path d="M 0.976562 0 L 3.66211 0 L 12.9883 -24.4629 L 45.7031 -24.4629 L 55.0781 0 L 57.7148 0 L 30.6152 -70.459 L 28.125 -70.459 Z M 29.2969 -67.1387 L 29.3945 -67.1387 L 44.873 -26.709 L 13.8672 -26.709 Z"/>
  </g>
  <line id="Baseline-M" style="fill:none;stroke:#27AAE1;opacity:1;stroke-width:0.5;" x1="263" x2="3036" y1="1126" y2="1126"/>
  <line id="Capline-M" style="fill:none;stroke:#27AAE1;opacity:1;stroke-width:0.5;" x1="263" x2="3036" y1="1055.54" y2="1055.54"/>
  <g id="H-reference" style="fill:#27AAE1;stroke:none;" transform="matrix(1 0 0 1 339 1556)">
   <path d="M 0.976562 0 L 3.66211 0 L 12.9883 -24.4629 L 45.7031 -24.4629 L 55.0781 0 L 57.7148 0 L 30.6152 -70.459 L 28.125 -70.459 Z M 29.2969 -67.1387 L 29.3945 -67.1387 L 44.873 -26.709 L 13.8672 -26.709 Z"/>
  </g>
  <line id="Baseline-L" style="fill:none;stroke:#27AAE1;opacity:1;stroke-width:0.5;" x1="263" x2="3036" y1="1556" y2="1556"/>
  <line id="Capline-L" style="fill:none;stroke:#27AAE1;opacity:1;stroke-width:0.5;" x1="263" x2="3036" y1="1485.54" y2="1485.54"/>
  <line id="left-margin" style="fill:none;stroke:#00AEEF;stroke-width:0.5;opacity:1.0;" x1="1391.3" x2="1391.3" y1="1030.79" y2="1150.12"/>
  <line id="right-margin" style="fill:none;stroke:#00AEEF;stroke-width:0.5;opacity:1.0;" x1="1508.39" x2="1508.39" y1="1030.79" y2="1150.12"/>
 </g>
 <g id="Symbols">
  <g id="Black-L" transform="matrix(1 0 0 1 2854.05 1556)">
   <path d="M 79.3457 32.8613 C 116.748 32.8613 147.412 2.19727 147.412 -35.2051 C 147.412 -72.6074 116.748 -103.271 79.2969 -103.271 C 41.8945 -103.271 11.2793 -72.6074 11.2793 -35.2051 C 11.2793 2.19727 41.9434 32.8613 79.3457 32.8613 Z M 61.3281 -4.39453 C 55.4688 -4.39453 52.1973 -8.05664 52.1973 -14.5508 L 52.1973 -53.5645 C 52.1973 -61.0352 56.0059 -65.1367 63.4277 -65.1367 L 80.957 -65.1367 C 96.7773 -65.1367 105.664 -58.0566 105.664 -45.2148 C 105.664 -37.0605 101.172 -30.5176 93.8477 -28.2227 L 101.025 -18.2617 C 102.441 -16.3086 103.027 -14.5996 103.027 -12.4023 C 103.027 -7.66602 99.4629 -4.39453 94.3848 -4.39453 C 90.332 -4.39453 88.0859 -6.00586 84.8633 -11.084 L 76.416 -24.6582 L 70.5078 -24.6582 L 70.5078 -14.5508 C 70.5078 -8.10547 67.1387 -4.39453 61.3281 -4.39453 Z M 70.5078 -38.0859 L 78.5156 -38.0859 C 83.0566 -38.0859 85.9375 -40.6738 85.9375 -44.7754 C 85.9375 -48.9746 83.2031 -51.5137 78.6133 -51.5137 L 70.5078 -51.5137 Z"/>
  </g>
  <g id="Heavy-L" transform="matrix(1 0 0 1 2558.39 1556)">
   <path d="M 78.2715 31.7871 C 115.088 31.7871 145.312 1.5625 145.312 -35.2051 C 145.312 -72.0215 115.039 -102.246 78.2715 -102.246 C 41.4551 -102.246 11.2793 -72.0215 11.2793 -35.2051 C 11.2793 1.5625 41.5039 31.7871 78.2715 31.7871 Z M 60.6445 -4.73633 C 55.4688 -4.73633 52.6367 -8.00781 52.6367 -13.623 L 52.6367 -55.0293 C 52.6367 -61.4746 55.8594 -65.0879 62.207 -65.0879 L 79.9316 -65.0879 C 94.9707 -65.0879 103.662 -57.959 103.662 -45.5078 C 103.662 -37.3535 99.0234 -30.8105 91.6504 -28.5156 L 99.5605 -16.9922 C 100.83 -15.2344 101.318 -13.7207 101.318 -11.7188 C 101.318 -7.61719 98.2422 -4.73633 93.75 -4.73633 C 90.2344 -4.73633 88.2324 -6.15234 85.4492 -10.5469 L 76.2695 -25.4883 L 68.7012 -25.4883 L 68.7012 -13.623 C 68.7012 -8.00781 65.7227 -4.73633 60.6445 -4.73633 Z M 68.7012 -37.3047 L 77.7832 -37.3047 C 83.1055 -37.3047 86.5234 -40.2832 86.5234 -45.1172 C 86.5234 -50.0488 83.2031 -53.0762 77.9297 -53.0762 L 68.7012 -53.0762 Z"/>
  </g>
  <g id="Bold-L" transform="matrix(1 0 0 1 2262.88 1556)">
   <path d="M 77.0996 30.5664 C 113.232 30.5664 142.92 0.878906 142.92 -35.2539 C 142.92 -71.3379 113.184 -101.074 77.0508 -101.074 C 40.9668 -101.074 11.2793 -71.3379 11.2793 -35.2539 C 11.2793 0.878906 41.0156 30.5664 77.0996 30.5664 Z M 59.8145 -5.07812 C 55.5176 -5.07812 53.0762 -7.95898 53.0762 -12.6465 L 53.0762 -56.7383 C 53.0762 -61.9629 55.7129 -65.0391 60.8398 -65.0391 L 78.8086 -65.0391 C 92.9688 -65.0391 101.416 -57.8613 101.416 -45.8496 C 101.416 -37.6953 96.6797 -31.1035 89.209 -28.8086 L 97.9004 -15.5762 C 98.9746 -14.0137 99.4141 -12.7441 99.4141 -10.9863 C 99.4141 -7.51953 96.8262 -5.07812 93.0664 -5.07812 C 90.0879 -5.07812 88.3789 -6.29883 86.084 -9.91211 L 76.0742 -26.3672 L 66.6992 -26.3672 L 66.6992 -12.6465 C 66.6992 -7.91016 64.209 -5.07812 59.8145 -5.07812 Z M 66.6992 -36.4746 L 77.002 -36.4746 C 83.2031 -36.4746 87.1582 -39.8438 87.1582 -45.5078 C 87.1582 -51.2695 83.2031 -54.7363 77.1484 -54.7363 L 66.6992 -54.7363 Z"/>
  </g>
  <g id="Semibold-L" transform="matrix(1 0 0 1 1966.97 1556)">
   <path d="M 76.2695 29.7363 C 111.914 29.7363 141.309 0.390625 141.309 -35.2539 C 141.309 -70.8984 111.865 -100.244 76.2695 -100.244 C 40.625 -100.244 11.2793 -70.8984 11.2793 -35.2539 C 11.2793 0.390625 40.6738 29.7363 76.2695 29.7363 Z M 59.2773 -5.37109 C 55.5176 -5.37109 53.418 -7.91016 53.418 -11.9629 L 53.418 -57.8613 C 53.418 -62.3047 55.6152 -64.9902 59.9121 -64.9902 L 78.0273 -64.9902 C 91.5527 -64.9902 99.8535 -57.8125 99.8535 -46.0449 C 99.8535 -37.9395 95.0684 -31.3477 87.5 -29.0527 L 96.7773 -14.6484 C 97.7051 -13.1836 98.0957 -12.0605 98.0957 -10.498 C 98.0957 -7.4707 95.8496 -5.37109 92.627 -5.37109 C 89.9902 -5.37109 88.4766 -6.39648 86.5723 -9.52148 L 75.9277 -27.0508 L 65.2832 -27.0508 L 65.2832 -11.9629 C 65.2832 -7.8125 63.1348 -5.37109 59.2773 -5.37109 Z M 65.2832 -35.8398 L 76.4648 -35.8398 C 83.252 -35.8398 87.5977 -39.5508 87.5977 -45.8008 C 87.5977 -52.1484 83.2031 -55.957 76.6113 -55.957 L 65.2832 -55.957 Z"/>
  </g>
  <g id="Medium-L" transform="matrix(1 0 0 1 1670.87 1556)">
   <path d="M 75.6836 29.1504 C 110.938 29.1504 140.088 0 140.088 -35.2539 C 140.088 -70.5078 110.889 -99.6582 75.6348 -99.6582 C 40.3809 -99.6582 11.2793 -70.5078 11.2793 -35.2539 C 11.2793 0 40.3809 29.1504 75.6836 29.1504 Z M 58.8867 -5.56641 C 55.5176 -5.56641 53.6621 -7.86133 53.6621 -11.4258 L 53.6621 -58.7402 C 53.6621 -62.5488 55.5664 -64.9902 59.1797 -64.9902 L 77.4414 -64.9902 C 90.4785 -64.9902 98.6816 -57.7637 98.6816 -46.2402 C 98.6816 -38.1348 93.7988 -31.4941 86.2305 -29.1992 L 95.8984 -13.916 C 96.7773 -12.5488 97.1191 -11.5723 97.1191 -10.1074 C 97.1191 -7.42188 95.1172 -5.56641 92.2852 -5.56641 C 89.8926 -5.56641 88.5742 -6.49414 86.9141 -9.17969 L 75.8301 -27.5391 L 64.209 -27.5391 L 64.209 -11.4258 C 64.209 -7.76367 62.3047 -5.56641 58.8867 -5.56641 Z M 64.209 -35.4004 L 76.0254 -35.4004 C 83.252 -35.4004 87.9395 -39.3555 87.9395 -45.9961 C 87.9395 -52.7832 83.2031 -56.8359 76.2207 -56.8359 L 64.209 -56.8359 Z"/>
  </g>
  <g id="Regular-L" transform="matrix(1 0 0 1 1374.97 1556)">
   <path d="M 74.8535 28.3203 C 109.668 28.3203 138.477 -0.488281 138.477 -35.2539 C 138.477 -70.0684 109.619 -98.877 74.8047 -98.877 C 40.0391 -98.877 11.2793 -70.0684 11.2793 -35.2539 C 11.2793 -0.488281 40.0879 28.3203 74.8535 28.3203 Z M 58.3496 -5.81055 C 55.5176 -5.81055 53.9551 -7.8125 53.9551 -10.7422 L 53.9551 -59.9121 C 53.9551 -62.8906 55.4688 -64.9414 58.252 -64.9414 L 76.6602 -64.9414 C 89.1113 -64.9414 97.168 -57.666 97.168 -46.4355 C 97.168 -38.3301 92.1875 -31.6895 84.5215 -29.3945 L 94.7754 -12.9395 C 95.5078 -11.7676 95.8496 -10.8887 95.8496 -9.61914 C 95.8496 -7.37305 94.1895 -5.81055 91.7969 -5.81055 C 89.7949 -5.81055 88.6719 -6.64062 87.3535 -8.78906 L 75.7324 -28.125 L 62.8418 -28.125 L 62.8418 -10.7422 C 62.8418 -7.71484 61.2305 -5.81055 58.3496 -5.81055 Z M 62.8418 -34.8145 L 75.4883 -34.8145 C 83.3008 -34.8145 88.3789 -39.0625 88.3789 -46.2402 C 88.3789 -53.6133 83.2031 -58.0078 75.6836 -58.0078 L 62.8418 -58.0078 Z"/>
  </g>
  <g id="Light-L" transform="matrix(1 0 0 1 1079.18 1556)">
   <path d="M 73.9258 27.3926 C 108.301 27.3926 136.621 -0.927734 136.621 -35.2539 C 136.621 -69.6289 108.252 -97.9492 73.9258 -97.9492 C 39.5508 -97.9492 11.2793 -69.6289 11.2793 -35.2539 C 11.2793 -0.927734 39.5996 27.3926 73.9258 27.3926 Z M 57.7148 -6.25 C 55.6152 -6.25 54.3457 -7.8125 54.3457 -10.0098 L 54.3457 -60.3516 C 54.3457 -62.6465 55.5176 -64.209 57.6172 -64.209 L 75.5859 -64.209 C 87.0605 -64.209 94.6777 -57.1777 94.6777 -46.582 C 94.6777 -38.4766 89.6973 -32.0312 81.9336 -30.0293 L 92.9199 -11.9141 C 93.5547 -10.8398 93.7988 -10.2051 93.7988 -9.17969 C 93.7988 -7.4707 92.5293 -6.25 90.7227 -6.25 C 89.1602 -6.25 88.3301 -6.88477 87.2559 -8.59375 L 75.1465 -29.1504 L 61.1816 -29.1504 L 61.1816 -10.0098 C 61.1816 -7.71484 59.9609 -6.25 57.7148 -6.25 Z M 61.1816 -34.5215 L 74.9023 -34.5215 C 82.7637 -34.5215 87.9395 -39.1113 87.9395 -46.4844 C 87.9395 -54.0039 82.666 -58.6426 75 -58.6426 L 61.1816 -58.6426 Z"/>
  </g>
  <g id="Thin-L" transform="matrix(1 0 0 1 783.693 1556)">
   <path d="M 72.7051 26.1719 C 106.494 26.1719 134.18 -1.51367 134.18 -35.2539 C 134.18 -69.043 106.494 -96.7285 72.7051 -96.7285 C 38.9648 -96.7285 11.2793 -69.043 11.2793 -35.2539 C 11.2793 -1.51367 38.9648 26.1719 72.7051 26.1719 Z M 56.9336 -6.88477 C 55.7129 -6.88477 54.8828 -7.76367 54.8828 -8.98438 L 54.8828 -60.9375 C 54.8828 -62.3047 55.5664 -63.1836 56.7383 -63.1836 L 74.1211 -63.1836 C 84.375 -63.1836 91.4062 -56.4941 91.4062 -46.7773 C 91.4062 -38.623 86.377 -32.4219 78.4668 -30.8594 L 90.4297 -10.5469 C 90.918 -9.66797 91.1133 -9.27734 91.1133 -8.64258 C 91.1133 -7.56836 90.3809 -6.88477 89.3066 -6.88477 C 88.2812 -6.88477 87.793 -7.27539 87.1094 -8.39844 L 74.3652 -30.4199 L 58.9844 -30.4199 L 58.9844 -8.98438 C 58.9844 -7.76367 58.2031 -6.88477 56.9336 -6.88477 Z M 58.9844 -34.082 L 74.1211 -34.082 C 81.9824 -34.082 87.3535 -39.209 87.3535 -46.7773 C 87.3535 -54.4434 81.9824 -59.4727 74.1211 -59.4727 L 58.9844 -59.4727 Z"/>
  </g>
  <g id="Ultralight-L" transform="matrix(1 0 0 1 487.616 1556)">
   <path d="M 72.1191 25.5371 C 105.566 25.5371 132.91 -1.80664 132.91 -35.2539 C 132.91 -68.75 105.566 -96.0938 72.1191 -96.0938 C 38.623 -96.0938 11.2793 -68.75 11.2793 -35.2539 C 11.2793 -1.80664 38.623 25.5371 72.1191 25.5371 Z M 56.4941 -7.17773 C 55.7617 -7.17773 55.127 -7.76367 55.127 -8.49609 L 55.127 -61.2305 C 55.127 -62.1094 55.5664 -62.6953 56.3477 -62.6953 L 73.3887 -62.6953 C 82.959 -62.6953 89.7461 -56.1523 89.7461 -46.875 C 89.7461 -38.6719 84.668 -32.6172 76.6602 -31.2988 L 89.1113 -9.86328 C 89.5996 -9.08203 89.7461 -8.83789 89.7461 -8.34961 C 89.7461 -7.61719 89.3066 -7.17773 88.5742 -7.17773 C 87.8418 -7.17773 87.5488 -7.4707 87.0605 -8.25195 L 73.9746 -31.1035 L 57.8613 -31.1035 L 57.8613 -8.49609 C 57.8613 -7.76367 57.3242 -7.17773 56.4941 -7.17773 Z M 57.8613 -33.8867 L 73.7305 -33.8867 C 81.5918 -33.8867 87.0117 -39.209 87.0117 -46.9238 C 87.0117 -54.6875 81.5918 -59.9121 73.6816 -59.9121 L 57.8613 -59.9121 Z"/>
  </g>
  <g id="Black-M" transform="matrix(1 0 0 1 2870.97 1126)">
   <path d="M 62.4023 18.457 C 91.9922 18.457 116.113 -5.61523 116.113 -35.2051 C 116.113 -64.7949 91.9922 -88.8672 62.4023 -88.8672 C 32.8125 -88.8672 8.74023 -64.7949 8.74023 -35.2051 C 8.74023 -5.61523 32.8125 18.457 62.4023 18.457 Z M 48.1445 -11.1328 C 43.0176 -11.1328 40.0879 -14.2578 40.0879 -19.9707 L 40.0879 -47.6562 C 40.0879 -54.541 43.6035 -58.0566 50.4883 -58.0566 L 63.5254 -58.0566 C 76.3184 -58.0566 83.252 -52.7832 83.252 -42.627 C 83.252 -36.2793 79.8828 -31.3965 74.3164 -29.7852 L 79.2969 -23.1934 C 80.5664 -21.582 81.0547 -20.0684 81.0547 -18.1641 C 81.0547 -14.0137 77.9297 -11.1328 73.3887 -11.1328 C 69.873 -11.1328 67.8223 -12.5 64.9414 -17.1875 L 59.1309 -26.416 L 56.2012 -26.416 L 56.2012 -19.9707 C 56.2012 -14.3066 53.1738 -11.1328 48.1445 -11.1328 Z M 56.2012 -38.3301 L 61.5234 -38.3301 C 63.9648 -38.3301 65.625 -39.9902 65.625 -42.2852 C 65.625 -44.5801 64.1602 -46.1426 61.4746 -46.1426 L 56.2012 -46.1426 Z"/>
  </g>
  <g id="Heavy-M" transform="matrix(1 0 0 1 2575.19 1126)">
   <path d="M 61.5234 17.5293 C 90.5273 17.5293 114.258 -6.20117 114.258 -35.2051 C 114.258 -64.2578 90.5273 -87.9883 61.4746 -87.9883 C 32.4707 -87.9883 8.74023 -64.2578 8.74023 -35.2051 C 8.74023 -6.20117 32.4707 17.5293 61.5234 17.5293 Z M 47.5586 -11.377 C 43.0176 -11.377 40.4785 -14.209 40.4785 -19.2383 L 40.4785 -49.1699 C 40.4785 -55.0781 43.457 -58.2031 49.3164 -58.2031 L 62.6953 -58.2031 C 74.9023 -58.2031 81.6895 -52.7832 81.6895 -42.9199 C 81.6895 -36.5723 78.2227 -31.5918 72.5586 -29.9316 L 78.1738 -22.1191 C 79.2969 -20.6055 79.7363 -19.2871 79.7363 -17.5781 C 79.7363 -13.916 76.9531 -11.377 72.998 -11.377 C 69.873 -11.377 68.1152 -12.5977 65.5762 -16.6016 L 59.1309 -27.0996 L 54.6875 -27.0996 L 54.6875 -19.2383 C 54.6875 -14.209 52.002 -11.377 47.5586 -11.377 Z M 54.6875 -37.5488 L 60.8887 -37.5488 C 64.209 -37.5488 66.3574 -39.5508 66.3574 -42.5781 C 66.3574 -45.7031 64.3066 -47.6562 60.9375 -47.6562 L 54.6875 -47.6562 Z"/>
  </g>
  <g id="Bold-M" transform="matrix(1 0 0 1 2279.5 1126)">
   <path d="M 60.498 16.5039 C 88.8672 16.5039 112.207 -6.83594 112.207 -35.2051 C 112.207 -63.623 88.8672 -86.9629 60.4492 -86.9629 C 32.0312 -86.9629 8.74023 -63.623 8.74023 -35.2051 C 8.74023 -6.83594 32.0801 16.5039 60.498 16.5039 Z M 46.875 -11.6211 C 43.0176 -11.6211 40.8691 -14.1113 40.8691 -18.3594 L 40.8691 -50.8789 C 40.8691 -55.6641 43.2617 -58.3496 47.998 -58.3496 L 61.7676 -58.3496 C 73.291 -58.3496 79.9805 -52.832 79.9805 -43.2617 C 79.9805 -36.9141 76.416 -31.8359 70.6543 -30.0781 L 76.9043 -20.8984 C 77.832 -19.5312 78.2227 -18.4082 78.2227 -16.8945 C 78.2227 -13.8184 75.9277 -11.6211 72.5586 -11.6211 C 69.9219 -11.6211 68.4082 -12.6953 66.3574 -16.0156 L 59.082 -27.7832 L 52.9297 -27.7832 L 52.9297 -18.3594 C 52.9297 -14.1113 50.6836 -11.6211 46.875 -11.6211 Z M 52.9297 -36.7188 L 60.1562 -36.7188 C 64.4531 -36.7188 67.1875 -39.0625 67.1875 -42.9688 C 67.1875 -46.9238 64.502 -49.3164 60.2539 -49.3164 L 52.9297 -49.3164 Z"/>
  </g>
  <g id="Semibold-M" transform="matrix(1 0 0 1 1983.5 1126)">
   <path d="M 59.7656 15.8203 C 87.7441 15.8203 110.791 -7.27539 110.791 -35.2539 C 110.791 -63.2324 87.6953 -86.2793 59.7656 -86.2793 C 31.7871 -86.2793 8.74023 -63.2324 8.74023 -35.2539 C 8.74023 -7.27539 31.7871 15.8203 59.7656 15.8203 Z M 46.3867 -11.8164 C 43.0176 -11.8164 41.1133 -14.0625 41.1133 -17.7246 L 41.1133 -52.0508 C 41.1133 -56.1035 43.1641 -58.4961 47.0703 -58.4961 L 61.1328 -58.4961 C 72.168 -58.4961 78.8086 -52.8809 78.8086 -43.457 C 78.8086 -37.1582 75.0977 -32.0312 69.3359 -30.1758 L 76.0254 -20.0195 C 76.8555 -18.7988 77.1973 -17.8223 77.1973 -16.4551 C 77.1973 -13.7207 75.1953 -11.8164 72.2656 -11.8164 C 69.9219 -11.8164 68.6035 -12.793 66.8457 -15.5762 L 59.082 -28.3203 L 51.709 -28.3203 L 51.709 -17.7246 C 51.709 -14.0137 49.8047 -11.8164 46.3867 -11.8164 Z M 51.709 -36.1328 L 59.668 -36.1328 C 64.5996 -36.1328 67.7246 -38.7207 67.7246 -43.2129 C 67.7246 -47.8027 64.5996 -50.4883 59.8145 -50.4883 L 51.709 -50.4883 Z"/>
  </g>
  <g id="Medium-M" transform="matrix(1 0 0 1 1687.3 1126)">
   <path d="M 59.2285 15.2344 C 86.9141 15.2344 109.766 -7.61719 109.766 -35.2539 C 109.766 -62.8906 86.8652 -85.7422 59.1797 -85.7422 C 31.543 -85.7422 8.74023 -62.8906 8.74023 -35.2539 C 8.74023 -7.61719 31.5918 15.2344 59.2285 15.2344 Z M 45.9961 -11.9629 C 43.0176 -11.9629 41.3574 -14.0625 41.3574 -17.2852 L 41.3574 -52.9297 C 41.3574 -56.3965 43.0664 -58.5938 46.4355 -58.5938 L 60.6445 -58.5938 C 71.3379 -58.5938 77.8809 -52.8809 77.8809 -43.6523 C 77.8809 -37.3535 74.1699 -32.1289 68.3105 -30.2734 L 75.3906 -19.3848 C 76.123 -18.2617 76.416 -17.334 76.416 -16.0645 C 76.416 -13.6719 74.6094 -11.9629 72.0703 -11.9629 C 69.9219 -11.9629 68.75 -12.8418 67.2363 -15.2344 L 59.0332 -28.7109 L 50.8301 -28.7109 L 50.8301 -17.2852 C 50.8301 -13.9648 49.1211 -11.9629 45.9961 -11.9629 Z M 50.8301 -35.6934 L 59.3262 -35.6934 C 64.7461 -35.6934 68.1641 -38.4766 68.1641 -43.4082 C 68.1641 -48.4375 64.6973 -51.3672 59.4727 -51.3672 L 50.8301 -51.3672 Z"/>
  </g>
  <g id="Regular-M" transform="matrix(1 0 0 1 1391.3 1126)">
   <path d="M 58.5449 14.5508 C 85.791 14.5508 108.35 -8.05664 108.35 -35.2539 C 108.35 -62.5 85.7422 -85.0586 58.4961 -85.0586 C 31.2988 -85.0586 8.74023 -62.5 8.74023 -35.2539 C 8.74023 -8.05664 31.3477 14.5508 58.5449 14.5508 Z M 45.5566 -12.1582 C 43.0176 -12.1582 41.6016 -14.0137 41.6016 -16.6992 L 41.6016 -54.1016 C 41.6016 -56.8359 42.9688 -58.6914 45.5078 -58.6914 L 60.0098 -58.6914 C 70.2148 -58.6914 76.709 -52.9297 76.709 -43.8477 C 76.709 -37.5977 72.9004 -32.3242 66.9922 -30.3711 L 74.5117 -18.5547 C 75.1465 -17.5293 75.4395 -16.748 75.4395 -15.625 C 75.4395 -13.5742 73.9258 -12.1582 71.7773 -12.1582 C 69.9707 -12.1582 68.9453 -12.8906 67.7246 -14.8438 L 59.0332 -29.1992 L 49.6582 -29.1992 L 49.6582 -16.6992 C 49.6582 -13.916 48.1934 -12.1582 45.5566 -12.1582 Z M 49.6582 -35.1074 L 58.8379 -35.1074 C 64.8926 -35.1074 68.75 -38.1836 68.75 -43.6523 C 68.75 -49.2676 64.7949 -52.4902 59.0332 -52.4902 L 49.6582 -52.4902 Z"/>
  </g>
  <g id="Light-M" transform="matrix(1 0 0 1 1095.42 1126)">
   <path d="M 57.7148 13.7207 C 84.5215 13.7207 106.689 -8.44727 106.689 -35.2539 C 106.689 -62.1094 84.5215 -84.2285 57.666 -84.2285 C 30.8594 -84.2285 8.74023 -62.1094 8.74023 -35.2539 C 8.74023 -8.44727 30.9082 13.7207 57.7148 13.7207 Z M 45.0195 -12.5977 C 43.0664 -12.5977 41.9434 -13.9648 41.9434 -16.0156 L 41.9434 -54.4922 C 41.9434 -56.5918 43.0176 -58.0078 44.9219 -58.0078 L 59.0332 -58.0078 C 68.4082 -58.0078 74.5117 -52.4414 74.5117 -43.9941 C 74.5117 -37.6953 70.6543 -32.6172 64.6484 -30.9082 L 72.8516 -17.627 C 73.3887 -16.748 73.584 -16.1133 73.584 -15.2344 C 73.584 -13.6719 72.4609 -12.5977 70.8008 -12.5977 C 69.3848 -12.5977 68.6035 -13.1348 67.6758 -14.6484 L 58.4961 -30.0781 L 48.1445 -30.0781 L 48.1445 -16.0156 C 48.1445 -13.916 47.0215 -12.5977 45.0195 -12.5977 Z M 48.1445 -34.8145 L 58.3008 -34.8145 C 64.4043 -34.8145 68.3105 -38.2324 68.3105 -43.8477 C 68.3105 -49.6094 64.3066 -53.0762 58.4473 -53.0762 L 48.1445 -53.0762 Z"/>
  </g>
  <g id="Thin-M" transform="matrix(1 0 0 1 799.806 1126)">
   <path d="M 56.6406 12.5977 C 82.9102 12.5977 104.492 -8.98438 104.492 -35.2539 C 104.492 -61.5723 82.9102 -83.1543 56.5918 -83.1543 C 30.3223 -83.1543 8.74023 -61.5723 8.74023 -35.2539 C 8.74023 -8.98438 30.3223 12.5977 56.6406 12.5977 Z M 44.2871 -13.1348 C 43.1641 -13.1348 42.4316 -13.9648 42.4316 -15.1367 L 42.4316 -55.0293 C 42.4316 -56.2988 43.0664 -57.1289 44.1895 -57.1289 L 57.7637 -57.1289 C 65.9668 -57.1289 71.582 -51.8555 71.582 -44.1406 C 71.582 -37.793 67.6758 -32.959 61.5234 -31.6895 L 70.6055 -16.4062 C 71.0449 -15.6738 71.1914 -15.332 71.1914 -14.7461 C 71.1914 -13.7695 70.5078 -13.1348 69.5312 -13.1348 C 68.6035 -13.1348 68.1641 -13.4766 67.5293 -14.4531 L 57.8125 -31.2012 L 46.1914 -31.2012 L 46.1914 -15.1367 C 46.1914 -13.916 45.459 -13.1348 44.2871 -13.1348 Z M 46.1914 -34.4238 L 57.6172 -34.4238 C 63.7207 -34.4238 67.8223 -38.2812 67.8223 -44.0918 C 67.8223 -50 63.6719 -53.8574 57.666 -53.8574 L 46.1914 -53.8574 Z"/>
  </g>
  <g id="Ultralight-M" transform="matrix(1 0 0 1 503.656 1126)">
   <path d="M 56.0547 12.0605 C 82.0801 12.0605 103.369 -9.22852 103.369 -35.2539 C 103.369 -61.2793 82.0801 -82.5684 56.0547 -82.5684 C 30.0293 -82.5684 8.74023 -61.2793 8.74023 -35.2539 C 8.74023 -9.22852 30.0293 12.0605 56.0547 12.0605 Z M 43.8965 -13.4277 C 43.2129 -13.4277 42.627 -13.9648 42.627 -14.6484 L 42.627 -55.2734 C 42.627 -56.1035 43.0664 -56.6406 43.7988 -56.6406 L 57.0801 -56.6406 C 64.6973 -56.6406 70.0684 -51.5625 70.0684 -44.2383 C 70.0684 -37.8906 66.1133 -33.1543 59.9609 -32.0312 L 69.4824 -15.7715 C 69.8242 -15.1367 69.9707 -14.8926 69.9707 -14.502 C 69.9707 -13.8184 69.5312 -13.4277 68.8965 -13.4277 C 68.2129 -13.4277 67.9199 -13.6719 67.4805 -14.3555 L 57.4219 -31.8359 L 45.166 -31.8359 L 45.166 -14.6484 C 45.166 -13.9648 44.6777 -13.4277 43.8965 -13.4277 Z M 45.166 -34.2285 L 57.2266 -34.2285 C 63.3789 -34.2285 67.5293 -38.3301 67.5293 -44.2383 C 67.5293 -50.2441 63.3789 -54.248 57.2266 -54.248 L 45.166 -54.248 Z"/>
  </g>
  <g id="Black-S" transform="matrix(1 0 0 1 2884.57 696)">
   <path d="M 48.8281 6.78711 C 71.9727 6.78711 90.8203 -12.0605 90.8203 -35.2051 C 90.8203 -58.3496 71.9727 -77.1973 48.8281 -77.1973 C 25.6836 -77.1973 6.83594 -58.3496 6.83594 -35.2051 C 6.83594 -12.0605 25.6836 6.78711 48.8281 6.78711 Z M 37.6953 -16.3574 C 33.6914 -16.3574 31.4453 -18.7988 31.4453 -23.2422 L 31.4453 -45.0684 C 31.4453 -50.3906 34.1309 -53.125 39.4531 -53.125 L 49.707 -53.125 C 59.7168 -53.125 65.1367 -48.9746 65.1367 -41.0645 C 65.1367 -36.084 62.5 -32.2266 58.1055 -30.957 L 62.0605 -25.7324 C 63.0371 -24.4629 63.4277 -23.291 63.4277 -21.8262 C 63.4277 -18.6035 60.9863 -16.3574 57.4707 -16.3574 C 54.7363 -16.3574 53.1738 -17.4316 50.9277 -21.0449 L 46.3379 -28.3691 L 43.9453 -28.3691 L 43.9453 -23.2422 C 43.9453 -18.8477 41.6016 -16.3574 37.6953 -16.3574 Z M 43.9453 -37.5977 L 48.1445 -37.5977 C 50.1465 -37.5977 51.4648 -38.916 51.4648 -40.7715 C 51.4648 -42.627 50.293 -43.8965 48.1445 -43.8965 L 43.9453 -43.8965 Z"/>
  </g>
  <g id="Heavy-S" transform="matrix(1 0 0 1 2588.47 696)">
   <path d="M 48.2422 6.15234 C 70.9961 6.15234 89.5996 -12.4512 89.5996 -35.2051 C 89.5996 -57.959 70.9961 -76.6113 48.1934 -76.6113 C 25.4395 -76.6113 6.83594 -57.959 6.83594 -35.2051 C 6.83594 -12.4512 25.4395 6.15234 48.2422 6.15234 Z M 37.3047 -16.5039 C 33.6914 -16.5039 31.6895 -18.75 31.6895 -22.7051 L 31.6895 -46.1914 C 31.6895 -50.8301 34.0332 -53.3203 38.623 -53.3203 L 49.1699 -53.3203 C 58.8379 -53.3203 64.209 -49.0723 64.209 -41.2598 C 64.209 -36.3281 61.4746 -32.373 57.0312 -31.0059 L 61.377 -25 C 62.2559 -23.8281 62.5977 -22.7539 62.5977 -21.3867 C 62.5977 -18.5059 60.4492 -16.5039 57.2754 -16.5039 C 54.834 -16.5039 53.418 -17.4805 51.4648 -20.6543 L 46.3867 -28.7598 L 42.9199 -28.7598 L 42.9199 -22.7051 C 42.9199 -18.75 40.8203 -16.5039 37.3047 -16.5039 Z M 42.9199 -37.0605 L 47.7051 -37.0605 C 50.3906 -37.0605 52.0508 -38.5742 52.0508 -41.0156 C 52.0508 -43.457 50.4395 -44.9707 47.7539 -44.9707 L 42.9199 -44.9707 Z"/>
  </g>
  <g id="Bold-S" transform="matrix(1 0 0 1 2292.44 696)">
   <path d="M 47.5586 5.46875 C 69.873 5.46875 88.2324 -12.8906 88.2324 -35.2539 C 88.2324 -57.5684 69.873 -75.9277 47.5098 -75.9277 C 25.1953 -75.9277 6.83594 -57.5684 6.83594 -35.2539 C 6.83594 -12.8906 25.1953 5.46875 47.5586 5.46875 Z M 36.8164 -16.6504 C 33.6914 -16.6504 31.9336 -18.7012 31.9336 -22.1191 L 31.9336 -47.4609 C 31.9336 -51.3184 33.8867 -53.5156 37.6953 -53.5156 L 48.584 -53.5156 C 57.8125 -53.5156 63.1348 -49.1211 63.1348 -41.5039 C 63.1348 -36.5723 60.3516 -32.5195 55.8594 -31.0547 L 60.6445 -24.1699 C 61.377 -23.0957 61.7188 -22.168 61.7188 -20.9473 C 61.7188 -18.4082 59.8145 -16.6504 57.0801 -16.6504 C 54.9316 -16.6504 53.6621 -17.5293 52.002 -20.166 L 46.4355 -29.1992 L 41.7969 -29.1992 L 41.7969 -22.1191 C 41.7969 -18.7012 39.9902 -16.6504 36.8164 -16.6504 Z M 41.7969 -36.4258 L 47.2656 -36.4258 C 50.6348 -36.4258 52.7344 -38.2324 52.7344 -41.2598 C 52.7344 -44.3848 50.6348 -46.1914 47.3633 -46.1914 L 41.7969 -46.1914 Z"/>
  </g>
  <g id="Semibold-S" transform="matrix(1 0 0 1 1996.2 696)">
   <path d="M 47.0703 4.98047 C 69.0918 4.98047 87.3047 -13.1836 87.3047 -35.2539 C 87.3047 -57.2754 69.0918 -75.4883 47.0215 -75.4883 C 25 -75.4883 6.83594 -57.2754 6.83594 -35.2539 C 6.83594 -13.1836 25.0488 4.98047 47.0703 4.98047 Z M 36.5234 -16.748 C 33.6426 -16.748 32.1289 -18.6523 32.1289 -21.7285 L 32.1289 -48.291 C 32.1289 -51.6602 33.7891 -53.6621 37.0605 -53.6621 L 48.1934 -53.6621 C 57.1289 -53.6621 62.4512 -49.1699 62.4512 -41.6504 C 62.4512 -36.7188 59.5703 -32.6172 55.0781 -31.1035 L 60.1074 -23.584 C 60.791 -22.6074 61.084 -21.7773 61.084 -20.6055 C 61.084 -18.3594 59.375 -16.748 56.9336 -16.748 C 54.9805 -16.748 53.8574 -17.5781 52.4414 -19.873 L 46.4355 -29.541 L 40.9668 -29.541 L 40.9668 -21.7285 C 40.9668 -18.6035 39.3555 -16.748 36.5234 -16.748 Z M 40.9668 -35.9863 L 46.9238 -35.9863 C 50.7812 -35.9863 53.2227 -37.9395 53.2227 -41.4062 C 53.2227 -44.9707 50.7812 -47.0215 47.0703 -47.0215 L 40.9668 -47.0215 Z"/>
  </g>
  <g id="Medium-S" transform="matrix(1 0 0 1 1699.83 696)">
   <path d="M 46.7285 4.63867 C 68.5547 4.63867 86.6211 -13.4277 86.6211 -35.2539 C 86.6211 -57.0801 68.5059 -75.1465 46.6797 -75.1465 C 24.8535 -75.1465 6.83594 -57.0801 6.83594 -35.2539 C 6.83594 -13.4277 24.9023 4.63867 46.7285 4.63867 Z M 36.2793 -16.8457 C 33.6426 -16.8457 32.2266 -18.6523 32.2266 -21.4355 L 32.2266 -48.9746 C 32.2266 -51.9043 33.7402 -53.8086 36.5723 -53.8086 L 47.9004 -53.8086 C 56.5918 -53.8086 61.9141 -49.2188 61.9141 -41.748 C 61.9141 -36.8652 58.9844 -32.7148 54.4434 -31.1035 L 59.7168 -23.1934 C 60.3516 -22.2168 60.5957 -21.4355 60.5957 -20.3613 C 60.5957 -18.3105 59.0332 -16.8457 56.8359 -16.8457 C 55.0293 -16.8457 54.0039 -17.5781 52.7344 -19.6289 L 46.4844 -29.7852 L 40.3809 -29.7852 L 40.3809 -21.4355 C 40.3809 -18.5547 38.916 -16.8457 36.2793 -16.8457 Z M 40.3809 -35.6934 L 46.6797 -35.6934 C 50.9277 -35.6934 53.5645 -37.7441 53.5645 -41.5527 C 53.5645 -45.459 50.8789 -47.6562 46.8262 -47.6562 L 40.3809 -47.6562 Z"/>
  </g>
  <g id="Regular-S" transform="matrix(1 0 0 1 1403.58 696)">
   <path d="M 46.2402 4.15039 C 67.7734 4.15039 85.6934 -13.7207 85.6934 -35.2539 C 85.6934 -56.7871 67.7246 -74.6582 46.1914 -74.6582 C 24.707 -74.6582 6.83594 -56.7871 6.83594 -35.2539 C 6.83594 -13.7207 24.7559 4.15039 46.2402 4.15039 Z M 35.9375 -16.9434 C 33.6426 -16.9434 32.4219 -18.6035 32.4219 -21.0449 L 32.4219 -49.8047 C 32.4219 -52.2461 33.6426 -53.9551 35.9375 -53.9551 L 47.5098 -53.9551 C 55.9082 -53.9551 61.1816 -49.3164 61.1816 -41.8945 C 61.1816 -37.0117 58.2031 -32.8125 53.6621 -31.1523 L 59.2285 -22.6074 C 59.7168 -21.7285 59.9609 -21.0449 59.9609 -20.0684 C 59.9609 -18.2129 58.5938 -16.9434 56.6895 -16.9434 C 55.0781 -16.9434 54.1992 -17.627 53.125 -19.3359 L 46.4844 -30.0781 L 39.5996 -30.0781 L 39.5996 -21.0449 C 39.5996 -18.5059 38.3301 -16.9434 35.9375 -16.9434 Z M 39.5996 -35.2539 L 46.3379 -35.2539 C 51.0742 -35.2539 54.0527 -37.5 54.0527 -41.748 C 54.0527 -46.0938 50.9766 -48.4863 46.5332 -48.4863 L 39.5996 -48.4863 Z"/>
  </g>
  <g id="Light-S" transform="matrix(1 0 0 1 1107.6 696)">
   <path d="M 45.5078 3.41797 C 66.6992 3.41797 84.2285 -14.0625 84.2285 -35.2539 C 84.2285 -56.4453 66.6504 -73.9258 45.5078 -73.9258 C 24.3164 -73.9258 6.83594 -56.4453 6.83594 -35.2539 C 6.83594 -14.0625 24.3652 3.41797 45.5078 3.41797 Z M 35.4492 -17.334 C 33.6914 -17.334 32.7148 -18.6035 32.7148 -20.459 L 32.7148 -50.1465 C 32.7148 -52.0508 33.6914 -53.3691 35.4492 -53.3691 L 46.6309 -53.3691 C 54.2969 -53.3691 59.2285 -48.877 59.2285 -42.041 C 59.2285 -37.1094 56.2012 -33.0566 51.5625 -31.6406 L 57.7148 -21.7773 C 58.1543 -21.0449 58.3496 -20.5078 58.3496 -19.7266 C 58.3496 -18.3105 57.3242 -17.334 55.8594 -17.334 C 54.5898 -17.334 53.9062 -17.8223 53.0273 -19.1895 L 46.0449 -30.8594 L 38.2812 -30.8594 L 38.2812 -20.459 C 38.2812 -18.5059 37.3047 -17.334 35.4492 -17.334 Z M 38.2812 -35.0098 L 45.8984 -35.0098 C 50.6348 -35.0098 53.7109 -37.5488 53.7109 -41.8945 C 53.7109 -46.3867 50.5859 -48.9746 45.9961 -48.9746 L 38.2812 -48.9746 Z"/>
  </g>
  <g id="Thin-S" transform="matrix(1 0 0 1 811.867 696)">
   <path d="M 44.5801 2.49023 C 65.2832 2.49023 82.2754 -14.5508 82.2754 -35.2539 C 82.2754 -55.957 65.2344 -72.998 44.5312 -72.998 C 23.8281 -72.998 6.83594 -55.957 6.83594 -35.2539 C 6.83594 -14.5508 23.877 2.49023 44.5801 2.49023 Z M 34.8145 -17.8223 C 33.7891 -17.8223 33.1543 -18.5547 33.1543 -19.6289 L 33.1543 -50.6348 C 33.1543 -51.8066 33.6914 -52.5391 34.7656 -52.5391 L 45.5078 -52.5391 C 52.1484 -52.5391 56.6406 -48.3887 56.6406 -42.1875 C 56.6406 -37.207 53.5645 -33.3984 48.8281 -32.2754 L 55.7617 -20.7031 C 56.1035 -20.1172 56.25 -19.7754 56.25 -19.2871 C 56.25 -18.4082 55.6152 -17.8223 54.7363 -17.8223 C 53.9062 -17.8223 53.4668 -18.1152 52.9297 -18.9941 L 45.4102 -31.8848 L 36.5723 -31.8848 L 36.5723 -19.6289 C 36.5723 -18.5547 35.9375 -17.8223 34.8145 -17.8223 Z M 36.5723 -34.668 L 45.2637 -34.668 C 50.0488 -34.668 53.2227 -37.5977 53.2227 -42.1387 C 53.2227 -46.7285 50 -49.6582 45.3125 -49.6582 L 36.5723 -49.6582 Z"/>
  </g>
  <g id="Ultralight-S" transform="matrix(1 0 0 1 515.644 696)">
   <path d="M 44.043 1.95312 C 64.502 1.95312 81.2988 -14.7949 81.2988 -35.2539 C 81.2988 -55.7129 64.502 -72.4609 44.043 -72.4609 C 23.584 -72.4609 6.83594 -55.7129 6.83594 -35.2539 C 6.83594 -14.7949 23.584 1.95312 44.043 1.95312 Z M 34.5215 -18.0664 C 33.8379 -18.0664 33.3496 -18.5547 33.3496 -19.2383 L 33.3496 -50.8789 C 33.3496 -51.6602 33.7402 -52.1484 34.4238 -52.1484 L 44.9219 -52.1484 C 51.0254 -52.1484 55.2734 -48.0957 55.2734 -42.2852 C 55.2734 -37.3047 52.1973 -33.5449 47.4121 -32.6172 L 54.7363 -20.166 C 55.0293 -19.6289 55.127 -19.4336 55.127 -19.043 C 55.127 -18.457 54.7363 -18.0664 54.1504 -18.0664 C 53.5645 -18.0664 53.2715 -18.2617 52.8809 -18.8965 L 45.0684 -32.4219 L 35.6445 -32.4219 L 35.6445 -19.2383 C 35.6445 -18.5547 35.2051 -18.0664 34.5215 -18.0664 Z M 35.6445 -34.5215 L 44.9219 -34.5215 C 49.707 -34.5215 52.9785 -37.6465 52.9785 -42.2363 C 52.9785 -46.9238 49.707 -50 44.9707 -50 L 35.6445 -50 Z"/>
  </g>
 </g>
</svg>
