<?xml version="1.0" encoding="UTF-8"?>
<!--Generator: Apple Native CoreSVG 148-->
<!DOCTYPE svg
PUBLIC "-//W3C//DTD SVG 1.1//EN"
       "http://www.w3.org/Graphics/SVG/1.1/DTD/svg11.dtd">
<svg version="1.1" xmlns="http://www.w3.org/2000/svg" xmlns:xlink="http://www.w3.org/1999/xlink" width="3300" height="2200">
 <!--glyph: "uni100438.medium", point size: 100.000000, font version: "Version 16.0d11e1", template writer version: "8"-->
 <g id="Notes">
  <rect height="2200" id="artboard" style="fill:white;opacity:1" width="3300" x="0" y="0"/>
  <line id="" style="fill:none;stroke:black;opacity:1;stroke-width:0.5;" x1="263" x2="3036" y1="292" y2="292"/>
  <text style="stroke:none;fill:black;font-family:-apple-system,&quot;SF Pro Display&quot;,&quot;SF Pro Text&quot;,Helvetica,sans-serif;font-weight:bold;" transform="matrix(1 0 0 1 263 322)">Weight/Scale Variations</text>
  <text style="stroke:none;fill:black;font-family:-apple-system,&quot;SF Pro Display&quot;,&quot;SF Pro Text&quot;,Helvetica,sans-serif;text-anchor:middle;" transform="matrix(1 0 0 1 559.711 322)">Ultralight</text>
  <text style="stroke:none;fill:black;font-family:-apple-system,&quot;SF Pro Display&quot;,&quot;SF Pro Text&quot;,Helvetica,sans-serif;text-anchor:middle;" transform="matrix(1 0 0 1 856.422 322)">Thin</text>
  <text style="stroke:none;fill:black;font-family:-apple-system,&quot;SF Pro Display&quot;,&quot;SF Pro Text&quot;,Helvetica,sans-serif;text-anchor:middle;" transform="matrix(1 0 0 1 1153.13 322)">Light</text>
  <text style="stroke:none;fill:black;font-family:-apple-system,&quot;SF Pro Display&quot;,&quot;SF Pro Text&quot;,Helvetica,sans-serif;text-anchor:middle;" transform="matrix(1 0 0 1 1449.84 322)">Regular</text>
  <text style="stroke:none;fill:black;font-family:-apple-system,&quot;SF Pro Display&quot;,&quot;SF Pro Text&quot;,Helvetica,sans-serif;text-anchor:middle;" transform="matrix(1 0 0 1 1746.56 322)">Medium</text>
  <text style="stroke:none;fill:black;font-family:-apple-system,&quot;SF Pro Display&quot;,&quot;SF Pro Text&quot;,Helvetica,sans-serif;text-anchor:middle;" transform="matrix(1 0 0 1 2043.27 322)">Semibold</text>
  <text style="stroke:none;fill:black;font-family:-apple-system,&quot;SF Pro Display&quot;,&quot;SF Pro Text&quot;,Helvetica,sans-serif;text-anchor:middle;" transform="matrix(1 0 0 1 2339.98 322)">Bold</text>
  <text style="stroke:none;fill:black;font-family:-apple-system,&quot;SF Pro Display&quot;,&quot;SF Pro Text&quot;,Helvetica,sans-serif;text-anchor:middle;" transform="matrix(1 0 0 1 2636.69 322)">Heavy</text>
  <text style="stroke:none;fill:black;font-family:-apple-system,&quot;SF Pro Display&quot;,&quot;SF Pro Text&quot;,Helvetica,sans-serif;text-anchor:middle;" transform="matrix(1 0 0 1 2933.4 322)">Black</text>
  <line id="" style="fill:none;stroke:black;opacity:1;stroke-width:0.5;" x1="263" x2="3036" y1="1903" y2="1903"/>
  <g id="" transform="matrix(1 0 0 1 263 1933)">
   <path d="M 9.24805 0.830078 C 13.5547 0.830078 17.1387 -2.74414 17.1387 -7.05078 C 17.1387 -11.3574 13.5449 -14.9316 9.23828 -14.9316 C 4.94141 -14.9316 1.36719 -11.3574 1.36719 -7.05078 C 1.36719 -2.74414 4.95117 0.830078 9.24805 0.830078 Z M 9.24805 -0.654297 C 5.70312 -0.654297 2.87109 -3.49609 2.87109 -7.05078 C 2.87109 -10.6055 5.69336 -13.4473 9.23828 -13.4473 C 12.793 -13.4473 15.6348 -10.6055 15.6445 -7.05078 C 15.6543 -3.49609 12.8027 -0.654297 9.24805 -0.654297 Z M 9.22852 -3.62305 C 9.69727 -3.62305 9.9707 -3.93555 9.9707 -4.45312 L 9.9707 -6.31836 L 12.002 -6.31836 C 12.5 -6.31836 12.832 -6.57227 12.832 -7.04102 C 12.832 -7.51953 12.5195 -7.7832 12.002 -7.7832 L 9.9707 -7.7832 L 9.9707 -9.81445 C 9.9707 -10.332 9.69727 -10.6543 9.22852 -10.6543 C 8.75977 -10.6543 8.50586 -10.3125 8.50586 -9.81445 L 8.50586 -7.7832 L 6.49414 -7.7832 C 5.97656 -7.7832 5.64453 -7.51953 5.64453 -7.04102 C 5.64453 -6.57227 5.99609 -6.31836 6.49414 -6.31836 L 8.50586 -6.31836 L 8.50586 -4.45312 C 8.50586 -3.95508 8.75977 -3.62305 9.22852 -3.62305 Z"/>
  </g>
  <g id="" transform="matrix(1 0 0 1 281.506 1933)">
   <path d="M 11.709 2.91016 C 17.1582 2.91016 21.6699 -1.61133 21.6699 -7.05078 C 21.6699 -12.5 17.1484 -17.0117 11.6992 -17.0117 C 6.25977 -17.0117 1.74805 -12.5 1.74805 -7.05078 C 1.74805 -1.61133 6.26953 2.91016 11.709 2.91016 Z M 11.709 1.25 C 7.09961 1.25 3.41797 -2.44141 3.41797 -7.05078 C 3.41797 -11.6602 7.08984 -15.3516 11.6992 -15.3516 C 16.3086 -15.3516 20 -11.6602 20.0098 -7.05078 C 20.0195 -2.44141 16.3184 1.25 11.709 1.25 Z M 11.6797 -2.66602 C 12.207 -2.66602 12.5098 -3.01758 12.5098 -3.59375 L 12.5098 -6.23047 L 15.3223 -6.23047 C 15.8691 -6.23047 16.25 -6.51367 16.25 -7.03125 C 16.25 -7.55859 15.8887 -7.86133 15.3223 -7.86133 L 12.5098 -7.86133 L 12.5098 -10.6836 C 12.5098 -11.25 12.207 -11.6113 11.6797 -11.6113 C 11.1621 -11.6113 10.8789 -11.2305 10.8789 -10.6836 L 10.8789 -7.86133 L 8.07617 -7.86133 C 7.50977 -7.86133 7.13867 -7.55859 7.13867 -7.03125 C 7.13867 -6.51367 7.5293 -6.23047 8.07617 -6.23047 L 10.8789 -6.23047 L 10.8789 -3.59375 C 10.8789 -3.03711 11.1621 -2.66602 11.6797 -2.66602 Z"/>
  </g>
  <g id="" transform="matrix(1 0 0 1 304.924 1933)">
   <path d="M 14.9707 5.66406 C 21.9336 5.66406 27.6953 -0.0976562 27.6953 -7.05078 C 27.6953 -14.0137 21.9238 -19.7754 14.9609 -19.7754 C 8.00781 -19.7754 2.25586 -14.0137 2.25586 -7.05078 C 2.25586 -0.0976562 8.01758 5.66406 14.9707 5.66406 Z M 14.9707 3.84766 C 8.93555 3.84766 4.08203 -1.01562 4.08203 -7.05078 C 4.08203 -13.0957 8.92578 -17.9492 14.9609 -17.9492 C 21.0059 -17.9492 25.8594 -13.0957 25.8691 -7.05078 C 25.8789 -1.01562 21.0156 3.84766 14.9707 3.84766 Z M 14.9414 -1.38672 C 15.5176 -1.38672 15.8594 -1.77734 15.8594 -2.38281 L 15.8594 -6.13281 L 19.7754 -6.13281 C 20.3711 -6.13281 20.7812 -6.46484 20.7812 -7.02148 C 20.7812 -7.59766 20.3906 -7.93945 19.7754 -7.93945 L 15.8594 -7.93945 L 15.8594 -11.8652 C 15.8594 -12.4805 15.5176 -12.8711 14.9414 -12.8711 C 14.375 -12.8711 14.0527 -12.4609 14.0527 -11.8652 L 14.0527 -7.93945 L 10.1465 -7.93945 C 9.53125 -7.93945 9.13086 -7.59766 9.13086 -7.02148 C 9.13086 -6.46484 9.55078 -6.13281 10.1465 -6.13281 L 14.0527 -6.13281 L 14.0527 -2.38281 C 14.0527 -1.79688 14.375 -1.38672 14.9414 -1.38672 Z"/>
  </g>
  <text style="stroke:none;fill:black;font-family:-apple-system,&quot;SF Pro Display&quot;,&quot;SF Pro Text&quot;,Helvetica,sans-serif;font-weight:bold;" transform="matrix(1 0 0 1 263 1953)">Design Variations</text>
  <text style="stroke:none;fill:black;font-family:-apple-system,&quot;SF Pro Display&quot;,&quot;SF Pro Text&quot;,Helvetica,sans-serif;" transform="matrix(1 0 0 1 263 1971)">Symbols are supported in up to nine weights and three scales.</text>
  <text style="stroke:none;fill:black;font-family:-apple-system,&quot;SF Pro Display&quot;,&quot;SF Pro Text&quot;,Helvetica,sans-serif;" transform="matrix(1 0 0 1 263 1989)">For optimal layout with text and other symbols, vertically align</text>
  <text style="stroke:none;fill:black;font-family:-apple-system,&quot;SF Pro Display&quot;,&quot;SF Pro Text&quot;,Helvetica,sans-serif;" transform="matrix(1 0 0 1 263 2007)">symbols with the adjacent text.</text>
  <line id="" style="fill:none;stroke:#00AEEF;stroke-width:0.5;opacity:1.0;" x1="776" x2="776" y1="1919" y2="1933"/>
  <g id="" transform="matrix(1 0 0 1 776 1933)">
   <path d="M 3.31055 0.126953 C 3.82812 0.126953 4.08203 -0.0683594 4.26758 -0.605469 L 5.52734 -4.0625 L 11.2891 -4.0625 L 12.5488 -0.605469 C 12.7344 -0.0683594 12.9883 0.126953 13.4961 0.126953 C 14.0137 0.126953 14.3457 -0.185547 14.3457 -0.673828 C 14.3457 -0.839844 14.3164 -0.986328 14.2383 -1.20117 L 9.6582 -13.3887 C 9.43359 -13.9941 9.0332 -14.2871 8.4082 -14.2871 C 7.80273 -14.2871 7.39258 -13.9941 7.17773 -13.3984 L 2.59766 -1.19141 C 2.51953 -0.976562 2.49023 -0.830078 2.49023 -0.664062 C 2.49023 -0.175781 2.80273 0.126953 3.31055 0.126953 Z M 6.00586 -5.53711 L 8.37891 -12.1094 L 8.42773 -12.1094 L 10.8008 -5.53711 Z"/>
  </g>
  <line id="" style="fill:none;stroke:#00AEEF;stroke-width:0.5;opacity:1.0;" x1="792.836" x2="792.836" y1="1919" y2="1933"/>
  <text style="stroke:none;fill:black;font-family:-apple-system,&quot;SF Pro Display&quot;,&quot;SF Pro Text&quot;,Helvetica,sans-serif;font-weight:bold;" transform="matrix(1 0 0 1 776 1953)">Margins</text>
  <text style="stroke:none;fill:black;font-family:-apple-system,&quot;SF Pro Display&quot;,&quot;SF Pro Text&quot;,Helvetica,sans-serif;" transform="matrix(1 0 0 1 776 1971)">Leading and trailing margins on the left and right side of each symbol</text>
  <text style="stroke:none;fill:black;font-family:-apple-system,&quot;SF Pro Display&quot;,&quot;SF Pro Text&quot;,Helvetica,sans-serif;" transform="matrix(1 0 0 1 776 1989)">can be adjusted by modifying the x-location of the margin guidelines.</text>
  <text style="stroke:none;fill:black;font-family:-apple-system,&quot;SF Pro Display&quot;,&quot;SF Pro Text&quot;,Helvetica,sans-serif;" transform="matrix(1 0 0 1 776 2007)">Modifications are automatically applied proportionally to all</text>
  <text style="stroke:none;fill:black;font-family:-apple-system,&quot;SF Pro Display&quot;,&quot;SF Pro Text&quot;,Helvetica,sans-serif;" transform="matrix(1 0 0 1 776 2025)">scales and weights.</text>
  <g id="" transform="matrix(1 0 0 1 1289 1933)">
   <path d="M 2.8418 1.86523 L 4.54102 3.57422 C 5.40039 4.44336 6.38672 4.38477 7.31445 3.35938 L 17.4902 -7.85156 C 17.7539 -7.76367 18.0273 -7.7832 18.3398 -7.8418 L 19.4043 -8.03711 L 20.0684 -7.36328 L 20.0293 -6.80664 C 19.9902 -6.30859 20.1172 -5.92773 20.6055 -5.44922 L 21.3672 -4.70703 C 21.8457 -4.22852 22.4609 -4.19922 22.9297 -4.66797 L 25.8398 -7.58789 C 26.3086 -8.05664 26.2891 -8.65234 25.8105 -9.13086 L 25.0391 -9.89258 C 24.5605 -10.3711 24.1895 -10.5273 23.7109 -10.4883 L 23.1348 -10.4395 L 22.4902 -11.0742 L 22.7344 -12.1973 C 22.8613 -12.7637 22.7051 -13.2031 22.1191 -13.7891 L 19.9219 -15.9766 C 16.582 -19.2969 12.1484 -19.2188 9.25781 -16.3281 C 8.83789 -15.918 8.80859 -15.3418 9.04297 -14.9512 C 9.27734 -14.5898 9.73633 -14.3555 10.3809 -14.5215 C 11.8457 -14.8633 13.3691 -14.9219 14.7949 -13.9844 L 14.209 -12.5293 C 14.0137 -12.0508 13.9844 -11.6504 14.1113 -11.2891 L 3.04688 -0.898438 C 2.06055 0.0195312 1.98242 0.996094 2.8418 1.86523 Z M 10.752 -15.957 C 13.1836 -17.7344 16.4746 -17.4316 18.7012 -15.2051 L 21.1328 -12.793 C 21.3672 -12.5586 21.4062 -12.373 21.3379 -12.0312 L 21.0156 -10.5469 L 22.5195 -9.0625 L 23.5059 -9.12109 C 23.7598 -9.13086 23.8379 -9.11133 24.0332 -8.91602 L 24.6094 -8.33984 L 22.168 -5.89844 L 21.5918 -6.47461 C 21.3965 -6.66992 21.3672 -6.74805 21.377 -7.01172 L 21.4453 -7.98828 L 19.9512 -9.47266 L 18.4277 -9.21875 C 18.1055 -9.15039 17.959 -9.17969 17.7148 -9.41406 L 15.7129 -11.416 C 15.459 -11.6504 15.4297 -11.8164 15.5859 -12.1875 L 16.4648 -14.2773 C 14.9023 -15.7324 12.8711 -16.3574 10.8398 -15.7617 C 10.6836 -15.7227 10.625 -15.8496 10.752 -15.957 Z M 5.27344 2.30469 L 4.10156 1.14258 C 3.63281 0.683594 3.74023 0.341797 4.14062 -0.0195312 L 14.9512 -10.1953 L 16.416 -8.71094 L 6.42578 2.27539 C 6.07422 2.67578 5.74219 2.77344 5.27344 2.30469 Z"/>
  </g>
  <text style="stroke:none;fill:black;font-family:-apple-system,&quot;SF Pro Display&quot;,&quot;SF Pro Text&quot;,Helvetica,sans-serif;font-weight:bold;" transform="matrix(1 0 0 1 1289 1953)">Exporting</text>
  <text style="stroke:none;fill:black;font-family:-apple-system,&quot;SF Pro Display&quot;,&quot;SF Pro Text&quot;,Helvetica,sans-serif;" transform="matrix(1 0 0 1 1289 1971)">Symbols should be outlined when exporting to ensure the</text>
  <text style="stroke:none;fill:black;font-family:-apple-system,&quot;SF Pro Display&quot;,&quot;SF Pro Text&quot;,Helvetica,sans-serif;" transform="matrix(1 0 0 1 1289 1989)">design is preserved when submitting to Xcode.</text>
  <text id="template-version" style="stroke:none;fill:black;font-family:-apple-system,&quot;SF Pro Display&quot;,&quot;SF Pro Text&quot;,Helvetica,sans-serif;text-anchor:end;" transform="matrix(1 0 0 1 3036 1933)">Template v.2.0</text>
  <text style="stroke:none;fill:black;font-family:-apple-system,&quot;SF Pro Display&quot;,&quot;SF Pro Text&quot;,Helvetica,sans-serif;text-anchor:end;" transform="matrix(1 0 0 1 3036 1951)">Requires Xcode 12 or greater</text>
  <text style="stroke:none;fill:black;font-family:-apple-system,&quot;SF Pro Display&quot;,&quot;SF Pro Text&quot;,Helvetica,sans-serif;text-anchor:end;" transform="matrix(1 0 0 1 3036 1969)">Generated from rectangle.expand.vertical</text>
  <text style="stroke:none;fill:black;font-family:-apple-system,&quot;SF Pro Display&quot;,&quot;SF Pro Text&quot;,Helvetica,sans-serif;text-anchor:end;" transform="matrix(1 0 0 1 3036 1987)">Typeset at 100 points</text>
  <text style="stroke:none;fill:black;font-family:-apple-system,&quot;SF Pro Display&quot;,&quot;SF Pro Text&quot;,Helvetica,sans-serif;" transform="matrix(1 0 0 1 263 726)">Small</text>
  <text style="stroke:none;fill:black;font-family:-apple-system,&quot;SF Pro Display&quot;,&quot;SF Pro Text&quot;,Helvetica,sans-serif;" transform="matrix(1 0 0 1 263 1156)">Medium</text>
  <text style="stroke:none;fill:black;font-family:-apple-system,&quot;SF Pro Display&quot;,&quot;SF Pro Text&quot;,Helvetica,sans-serif;" transform="matrix(1 0 0 1 263 1586)">Large</text>
 </g>
 <g id="Guides">
  <g id="H-reference" style="fill:#27AAE1;stroke:none;" transform="matrix(1 0 0 1 339 696)">
   <path d="M 0.976562 0 L 3.66211 0 L 12.9883 -24.4629 L 45.7031 -24.4629 L 55.0781 0 L 57.7148 0 L 30.6152 -70.459 L 28.125 -70.459 Z M 29.2969 -67.1387 L 29.3945 -67.1387 L 44.873 -26.709 L 13.8672 -26.709 Z"/>
  </g>
  <line id="Baseline-S" style="fill:none;stroke:#27AAE1;opacity:1;stroke-width:0.5;" x1="263" x2="3036" y1="696" y2="696"/>
  <line id="Capline-S" style="fill:none;stroke:#27AAE1;opacity:1;stroke-width:0.5;" x1="263" x2="3036" y1="625.541" y2="625.541"/>
  <g id="H-reference" style="fill:#27AAE1;stroke:none;" transform="matrix(1 0 0 1 339 1126)">
   <path d="M 0.976562 0 L 3.66211 0 L 12.9883 -24.4629 L 45.7031 -24.4629 L 55.0781 0 L 57.7148 0 L 30.6152 -70.459 L 28.125 -70.459 Z M 29.2969 -67.1387 L 29.3945 -67.1387 L 44.873 -26.709 L 13.8672 -26.709 Z"/>
  </g>
  <line id="Baseline-M" style="fill:none;stroke:#27AAE1;opacity:1;stroke-width:0.5;" x1="263" x2="3036" y1="1126" y2="1126"/>
  <line id="Capline-M" style="fill:none;stroke:#27AAE1;opacity:1;stroke-width:0.5;" x1="263" x2="3036" y1="1055.54" y2="1055.54"/>
  <g id="H-reference" style="fill:#27AAE1;stroke:none;" transform="matrix(1 0 0 1 339 1556)">
   <path d="M 0.976562 0 L 3.66211 0 L 12.9883 -24.4629 L 45.7031 -24.4629 L 55.0781 0 L 57.7148 0 L 30.6152 -70.459 L 28.125 -70.459 Z M 29.2969 -67.1387 L 29.3945 -67.1387 L 44.873 -26.709 L 13.8672 -26.709 Z"/>
  </g>
  <line id="Baseline-L" style="fill:none;stroke:#27AAE1;opacity:1;stroke-width:0.5;" x1="263" x2="3036" y1="1556" y2="1556"/>
  <line id="Capline-L" style="fill:none;stroke:#27AAE1;opacity:1;stroke-width:0.5;" x1="263" x2="3036" y1="1485.54" y2="1485.54"/>
  <line id="left-margin" style="fill:none;stroke:#00AEEF;stroke-width:0.5;opacity:1.0;" x1="1382.46" x2="1382.46" y1="1030.79" y2="1150.12"/>
  <line id="right-margin" style="fill:none;stroke:#00AEEF;stroke-width:0.5;opacity:1.0;" x1="1517.23" x2="1517.23" y1="1030.79" y2="1150.12"/>
 </g>
 <g id="Symbols">
  <g id="Black-L" transform="matrix(1 0 0 1 2839.28 1556)">
   <path d="M 94.0918 -62.207 C 98.7305 -62.207 102.002 -65.5273 102.002 -70.166 L 102.002 -86.3281 L 101.27 -96.1914 L 103.76 -92.334 L 109.473 -85.5957 C 110.498 -84.375 112.305 -83.3984 114.355 -83.3984 C 118.311 -83.3984 121.484 -86.5234 121.484 -90.5273 C 121.484 -92.334 120.85 -93.8965 119.385 -95.3125 L 99.8047 -113.867 C 97.9492 -115.576 96.2891 -116.455 94.0918 -116.455 C 91.9434 -116.455 90.1855 -115.576 88.3789 -113.867 L 68.75 -95.3125 C 67.334 -93.9941 66.6992 -92.334 66.6992 -90.5273 C 66.6992 -86.5234 69.8242 -83.3984 73.8281 -83.3984 C 75.8301 -83.3984 77.7344 -84.375 78.7598 -85.5957 L 84.375 -92.2852 L 86.9629 -96.1914 L 86.2305 -86.3281 L 86.2305 -70.166 C 86.2305 -65.5273 89.502 -62.207 94.0918 -62.207 Z M 38.0371 8.59375 L 59.9121 8.59375 L 59.9121 -7.37305 L 42.1875 -7.37305 C 37.4512 -7.37305 34.5215 -10.3027 34.5215 -14.7949 L 34.5215 -57.2754 C 34.5215 -61.7676 37.4512 -64.6973 42.1875 -64.6973 L 59.9121 -64.6973 L 59.9121 -80.6641 L 38.0371 -80.6641 C 24.4141 -80.6641 16.0645 -72.8027 16.0645 -60.2051 L 16.0645 -11.8652 C 16.0645 0.732422 24.4141 8.59375 38.0371 8.59375 Z M 150.195 8.59375 C 163.818 8.59375 172.168 0.732422 172.168 -11.8652 L 172.168 -60.2051 C 172.168 -72.8027 163.818 -80.6641 150.195 -80.6641 L 128.271 -80.6641 L 128.271 -64.6973 L 145.996 -64.6973 C 150.732 -64.6973 153.711 -61.7676 153.711 -57.2754 L 153.711 -14.7949 C 153.711 -10.3027 150.732 -7.37305 145.996 -7.37305 L 128.271 -7.37305 L 128.271 8.59375 Z M 94.0918 44.3848 C 96.2891 44.3848 97.998 43.5059 99.8535 41.7969 L 119.434 23.2422 C 120.898 21.875 121.484 20.2637 121.484 18.457 C 121.484 14.4531 118.359 11.3281 114.355 11.3281 C 112.402 11.3281 110.449 12.2559 109.473 13.5254 L 103.809 20.2148 L 101.27 24.1211 L 102.002 14.2578 L 102.002 -1.9043 C 102.002 -6.54297 98.7305 -9.86328 94.0918 -9.86328 C 89.502 -9.86328 86.2305 -6.54297 86.2305 -1.9043 L 86.2305 14.2578 L 86.9629 24.1211 L 84.4727 20.2637 L 78.7598 13.5254 C 77.6855 12.2559 75.8789 11.3281 73.877 11.3281 C 69.9219 11.3281 66.6992 14.4531 66.6992 18.457 C 66.6992 20.2637 67.3828 21.8262 68.8477 23.2422 L 88.4277 41.7969 C 90.1855 43.457 91.9434 44.3848 94.0918 44.3848 Z"/>
  </g>
  <g id="Heavy-L" transform="matrix(1 0 0 1 2544.55 1556)">
   <path d="M 92.1387 -61.8652 C 96.2402 -61.8652 99.1699 -64.8438 99.1699 -68.9453 L 99.1699 -86.5234 L 98.5352 -96.6797 L 102.148 -91.9922 L 108.35 -84.9609 C 109.375 -83.8379 110.986 -83.0078 112.793 -83.0078 C 116.357 -83.0078 119.189 -85.7422 119.189 -89.3555 C 119.189 -91.0645 118.555 -92.4316 117.188 -93.75 L 97.2168 -112.646 C 95.5566 -114.258 94.043 -114.99 92.1387 -114.99 C 90.2344 -114.99 88.6719 -114.209 87.0117 -112.646 L 67.041 -93.75 C 65.6738 -92.5293 65.0879 -91.0645 65.0879 -89.3555 C 65.0879 -85.7422 67.8711 -83.0078 71.4844 -83.0078 C 73.2422 -83.0078 74.9512 -83.8379 75.9277 -84.9609 L 82.0801 -91.9434 L 85.7422 -96.6797 L 85.1074 -86.5234 L 85.1074 -68.9453 C 85.1074 -64.8438 88.0859 -61.8652 92.1387 -61.8652 Z M 37.0117 7.91016 L 58.4473 7.91016 L 58.4473 -6.20117 L 40.4297 -6.20117 C 35.3516 -6.20117 32.1777 -9.42383 32.1777 -14.1602 L 32.1777 -57.8613 C 32.1777 -62.5977 35.3516 -65.8203 40.4297 -65.8203 L 58.4473 -65.8203 L 58.4473 -79.9316 L 37.0117 -79.9316 C 24.1699 -79.9316 16.0645 -72.2656 16.0645 -60.4492 L 16.0645 -11.5723 C 16.0645 0.244141 24.1699 7.91016 37.0117 7.91016 Z M 147.266 7.91016 C 160.156 7.91016 168.213 0.244141 168.213 -11.5723 L 168.213 -60.4492 C 168.213 -72.2656 160.156 -79.9316 147.266 -79.9316 L 125.83 -79.9316 L 125.83 -65.8203 L 143.896 -65.8203 C 148.926 -65.8203 152.1 -62.5977 152.1 -57.8613 L 152.1 -14.1602 C 152.1 -9.42383 148.926 -6.20117 143.896 -6.20117 L 125.83 -6.20117 L 125.83 7.91016 Z M 92.1387 42.9688 C 94.043 42.9688 95.6055 42.1875 97.2656 40.625 L 117.236 21.7285 C 118.604 20.459 119.189 19.043 119.189 17.2852 C 119.189 13.7207 116.406 10.9863 112.793 10.9863 C 111.035 10.9863 109.326 11.8164 108.35 12.9395 L 102.197 19.9219 L 98.5352 24.6582 L 99.1699 14.502 L 99.1699 -3.07617 C 99.1699 -7.17773 96.2402 -10.1562 92.1387 -10.1562 C 88.0859 -10.1562 85.1074 -7.17773 85.1074 -3.07617 L 85.1074 14.502 L 85.7422 24.6582 L 82.1289 19.9707 L 75.9277 12.9395 C 74.9023 11.8164 73.291 10.9863 71.4844 10.9863 C 67.9199 10.9863 65.0879 13.7207 65.0879 17.2852 C 65.0879 19.043 65.7227 20.4102 67.0898 21.7285 L 87.0605 40.625 C 88.6719 42.1875 90.2344 42.9688 92.1387 42.9688 Z"/>
  </g>
  <g id="Bold-L" transform="matrix(1 0 0 1 2250.04 1556)">
   <path d="M 89.9414 -61.5234 C 93.4082 -61.5234 95.9961 -64.1113 95.9961 -67.5781 L 95.9961 -86.6699 L 95.459 -97.2168 L 100.342 -91.6016 L 107.129 -84.2773 C 108.057 -83.252 109.473 -82.5684 111.035 -82.5684 C 114.16 -82.5684 116.602 -84.9121 116.602 -87.9883 C 116.602 -89.5996 115.967 -90.8203 114.746 -91.9922 L 94.3359 -111.328 C 92.8711 -112.695 91.6016 -113.33 89.9414 -113.33 C 88.2812 -113.33 86.9629 -112.695 85.498 -111.328 L 65.0879 -91.9922 C 63.8672 -90.918 63.2812 -89.5996 63.2812 -87.9883 C 63.2812 -84.9121 65.625 -82.5684 68.7988 -82.5684 C 70.3613 -82.5684 71.875 -83.252 72.7539 -84.2773 L 79.541 -91.5527 L 84.4238 -97.2168 L 83.8867 -86.6699 L 83.8867 -67.5781 C 83.8867 -64.1113 86.4746 -61.5234 89.9414 -61.5234 Z M 35.8398 7.17773 L 56.7871 7.17773 L 56.7871 -4.88281 L 38.4277 -4.88281 C 33.0078 -4.88281 29.541 -8.39844 29.541 -13.4766 L 29.541 -58.4961 C 29.541 -63.5742 33.0078 -67.0898 38.4277 -67.0898 L 56.7871 -67.0898 L 56.7871 -79.1504 L 35.8398 -79.1504 C 23.877 -79.1504 16.0645 -71.7285 16.0645 -60.6445 L 16.0645 -11.2793 C 16.0645 -0.244141 23.877 7.17773 35.8398 7.17773 Z M 144.043 7.17773 C 156.006 7.17773 163.818 -0.244141 163.818 -11.2793 L 163.818 -60.6445 C 163.818 -71.7285 156.006 -79.1504 144.043 -79.1504 L 123.096 -79.1504 L 123.096 -67.0898 L 141.455 -67.0898 C 146.875 -67.0898 150.342 -63.5742 150.342 -58.4961 L 150.342 -13.4766 C 150.342 -8.39844 146.875 -4.88281 141.455 -4.88281 L 123.096 -4.88281 L 123.096 7.17773 Z M 89.9414 41.4062 C 91.6016 41.4062 92.9199 40.7227 94.3848 39.3555 L 114.795 20.0684 C 116.016 18.8965 116.602 17.627 116.602 16.0645 C 116.602 12.9395 114.258 10.5957 111.084 10.5957 C 109.521 10.5957 108.008 11.2793 107.129 12.3047 L 100.342 19.6289 L 95.459 25.2441 L 95.9961 14.6973 L 95.9961 -4.39453 C 95.9961 -7.86133 93.4082 -10.4492 89.9414 -10.4492 C 86.4746 -10.4492 83.8867 -7.86133 83.8867 -4.39453 L 83.8867 14.6973 L 84.4238 25.2441 L 79.541 19.6289 L 72.7539 12.3047 C 71.8262 11.2793 70.4102 10.5957 68.8477 10.5957 C 65.7227 10.5957 63.2812 12.9395 63.2812 16.0645 C 63.2812 17.627 63.916 18.8965 65.1367 20.0684 L 85.5469 39.3555 C 87.0117 40.7227 88.2812 41.4062 89.9414 41.4062 Z"/>
  </g>
  <g id="Semibold-L" transform="matrix(1 0 0 1 1954.84 1556)">
   <path d="M 88.4277 -61.2305 C 91.4551 -61.2305 93.8477 -63.5742 93.8477 -66.6016 L 93.8477 -86.8164 L 93.3594 -97.6074 L 99.0723 -91.3086 L 106.25 -83.7891 C 107.178 -82.8125 108.447 -82.2266 109.814 -82.2266 C 112.695 -82.2266 114.844 -84.2773 114.844 -87.1094 C 114.844 -88.5742 114.209 -89.7461 113.086 -90.8203 L 92.3828 -110.4 C 91.0156 -111.67 89.8926 -112.207 88.4277 -112.207 C 86.9629 -112.207 85.791 -111.621 84.4727 -110.4 L 63.7695 -90.8203 C 62.5977 -89.7949 62.0117 -88.5742 62.0117 -87.1094 C 62.0117 -84.2773 64.1113 -82.2266 66.9922 -82.2266 C 68.3594 -82.2266 69.7266 -82.8125 70.6055 -83.7891 L 77.7344 -91.3086 L 83.4961 -97.6074 L 83.0078 -86.8164 L 83.0078 -66.6016 C 83.0078 -63.5742 85.3516 -61.2305 88.4277 -61.2305 Z M 35.0586 6.68945 L 55.6641 6.68945 L 55.6641 -3.95508 L 37.0117 -3.95508 C 31.3965 -3.95508 27.7832 -7.71484 27.7832 -12.9883 L 27.7832 -58.9355 C 27.7832 -64.209 31.3965 -67.9688 37.0117 -67.9688 L 55.6641 -67.9688 L 55.6641 -78.5645 L 35.0586 -78.5645 C 23.6816 -78.5645 16.0645 -71.3379 16.0645 -60.8398 L 16.0645 -11.084 C 16.0645 -0.585938 23.6816 6.68945 35.0586 6.68945 Z M 141.797 6.68945 C 153.174 6.68945 160.791 -0.585938 160.791 -11.084 L 160.791 -60.8398 C 160.791 -71.3379 153.174 -78.5645 141.797 -78.5645 L 121.191 -78.5645 L 121.191 -67.9688 L 139.844 -67.9688 C 145.459 -67.9688 149.072 -64.209 149.072 -58.9355 L 149.072 -12.9883 C 149.072 -7.71484 145.459 -3.95508 139.844 -3.95508 L 121.191 -3.95508 L 121.191 6.68945 Z M 88.4277 40.2832 C 89.8926 40.2832 91.0645 39.7461 92.3828 38.4766 L 113.086 18.8965 C 114.258 17.8223 114.844 16.6504 114.844 15.1855 C 114.844 12.3535 112.744 10.3027 109.863 10.3027 C 108.496 10.3027 107.129 10.9375 106.25 11.8652 L 99.0723 19.3848 L 93.3594 25.6836 L 93.8477 14.8926 L 93.8477 -5.32227 C 93.8477 -8.34961 91.4551 -10.6934 88.4277 -10.6934 C 85.3516 -10.6934 83.0078 -8.34961 83.0078 -5.32227 L 83.0078 14.8926 L 83.4961 25.6836 L 77.7832 19.4336 L 70.6055 11.8652 C 69.6777 10.9375 68.4082 10.3027 67.041 10.3027 C 64.1602 10.3027 62.0117 12.3535 62.0117 15.1855 C 62.0117 16.6504 62.6465 17.8223 63.7695 18.8965 L 84.4727 38.4766 C 85.8398 39.7461 86.9629 40.2832 88.4277 40.2832 Z"/>
  </g>
  <g id="Medium-L" transform="matrix(1 0 0 1 1659.28 1556)">
   <path d="M 87.2559 -61.0352 C 89.9902 -61.0352 92.1875 -63.2324 92.1875 -65.918 L 92.1875 -86.9141 L 91.7969 -97.9004 L 98.1445 -91.1133 L 105.615 -83.3984 C 106.494 -82.5195 107.666 -81.9824 108.936 -81.9824 C 111.523 -81.9824 113.477 -83.8379 113.477 -86.4258 C 113.477 -87.8418 112.891 -88.916 111.816 -89.8926 L 90.8691 -109.717 C 89.5996 -110.889 88.5742 -111.377 87.2559 -111.377 C 85.9375 -111.377 84.9121 -110.84 83.6914 -109.717 L 62.7441 -89.8926 C 61.6699 -88.916 61.084 -87.8418 61.084 -86.4258 C 61.084 -83.8379 62.9395 -81.9824 65.5762 -81.9824 C 66.8457 -81.9824 68.0664 -82.5195 68.9453 -83.3984 L 76.416 -91.1133 L 82.7637 -97.9004 L 82.373 -86.9141 L 82.373 -65.918 C 82.373 -63.2324 84.5215 -61.0352 87.2559 -61.0352 Z M 34.4238 6.29883 L 54.7852 6.29883 L 54.7852 -3.27148 L 35.9863 -3.27148 C 30.127 -3.27148 26.416 -7.17773 26.416 -12.5977 L 26.416 -59.2773 C 26.416 -64.6973 30.127 -68.6035 35.9863 -68.6035 L 54.7852 -68.6035 L 54.7852 -78.1738 L 34.4238 -78.1738 C 23.5352 -78.1738 16.0645 -70.9961 16.0645 -60.9375 L 16.0645 -10.9375 C 16.0645 -0.878906 23.5352 6.29883 34.4238 6.29883 Z M 140.088 6.29883 C 151.025 6.29883 158.496 -0.878906 158.496 -10.9375 L 158.496 -60.9375 C 158.496 -70.9961 151.025 -78.1738 140.088 -78.1738 L 119.775 -78.1738 L 119.775 -68.6035 L 138.574 -68.6035 C 144.385 -68.6035 148.145 -64.6973 148.145 -59.2773 L 148.145 -12.5977 C 148.145 -7.17773 144.385 -3.27148 138.574 -3.27148 L 119.775 -3.27148 L 119.775 6.29883 Z M 87.2559 39.4531 C 88.5742 39.4531 89.6484 38.9648 90.8691 37.793 L 111.816 18.0176 C 112.891 17.041 113.477 15.918 113.477 14.502 C 113.477 11.9629 111.572 10.1074 108.936 10.1074 C 107.715 10.1074 106.494 10.6445 105.615 11.5234 L 98.1445 19.2383 L 91.7969 26.0254 L 92.1875 14.9902 L 92.1875 -6.00586 C 92.1875 -8.69141 89.9902 -10.8398 87.2559 -10.8398 C 84.5215 -10.8398 82.373 -8.69141 82.373 -6.00586 L 82.373 14.9902 L 82.7637 26.0254 L 76.416 19.2383 L 68.9453 11.5234 C 68.0664 10.6445 66.8945 10.1074 65.625 10.1074 C 63.0371 10.1074 61.084 11.9629 61.084 14.502 C 61.084 15.918 61.6699 16.9922 62.7441 18.0176 L 83.6914 37.793 C 84.9609 38.9648 85.9375 39.4531 87.2559 39.4531 Z"/>
  </g>
  <g id="Regular-L" transform="matrix(1 0 0 1 1364.08 1556)">
   <path d="M 85.791 -60.791 C 88.0859 -60.791 90.0391 -62.6953 90.0391 -64.9902 L 90.0391 -87.0117 L 89.6973 -98.291 L 96.875 -90.8691 L 104.785 -82.959 C 105.615 -82.1289 106.641 -81.6895 107.715 -81.6895 C 110.059 -81.6895 111.719 -83.252 111.719 -85.498 C 111.719 -86.8164 111.133 -87.793 110.156 -88.7207 L 88.916 -108.789 C 87.7441 -109.814 86.9141 -110.254 85.791 -110.254 C 84.668 -110.254 83.7402 -109.814 82.666 -108.789 L 61.4258 -88.7207 C 60.4004 -87.793 59.8145 -86.8164 59.8145 -85.498 C 59.8145 -83.252 61.4746 -81.6895 63.7695 -81.6895 C 64.8438 -81.6895 65.9668 -82.1289 66.748 -82.959 L 74.6582 -90.8691 L 81.8359 -98.291 L 81.4941 -87.0117 L 81.4941 -64.9902 C 81.4941 -62.6953 83.4473 -60.791 85.791 -60.791 Z M 33.6426 5.76172 L 53.6621 5.76172 L 53.6621 -2.39258 L 34.6191 -2.39258 C 28.5156 -2.39258 24.6094 -6.49414 24.6094 -12.1582 L 24.6094 -59.7168 C 24.6094 -65.332 28.5156 -69.4824 34.6191 -69.4824 L 53.6621 -69.4824 L 53.6621 -77.6367 L 33.6426 -77.6367 C 23.3398 -77.6367 16.0645 -70.6055 16.0645 -61.084 L 16.0645 -10.7422 C 16.0645 -1.2207 23.3398 5.76172 33.6426 5.76172 Z M 137.891 5.76172 C 148.193 5.76172 155.469 -1.2207 155.469 -10.7422 L 155.469 -61.084 C 155.469 -70.6055 148.193 -77.6367 137.891 -77.6367 L 117.871 -77.6367 L 117.871 -69.4824 L 136.914 -69.4824 C 143.018 -69.4824 146.924 -65.332 146.924 -59.7168 L 146.924 -12.1582 C 146.924 -6.49414 143.018 -2.39258 136.914 -2.39258 L 117.871 -2.39258 L 117.871 5.76172 Z M 85.791 38.3789 C 86.9141 38.3789 87.793 37.9395 88.916 36.9141 L 110.156 16.8457 C 111.133 15.9668 111.719 14.9902 111.719 13.6719 C 111.719 11.4258 110.107 9.81445 107.764 9.81445 C 106.689 9.81445 105.615 10.2539 104.785 11.084 L 96.875 18.9941 L 89.6973 26.416 L 90.0391 15.1855 L 90.0391 -6.88477 C 90.0391 -9.13086 88.0859 -11.0352 85.791 -11.0352 C 83.4473 -11.0352 81.4941 -9.13086 81.4941 -6.88477 L 81.4941 15.1855 L 81.8359 26.416 L 74.6582 18.9941 L 66.748 11.084 C 65.9668 10.2539 64.8926 9.81445 63.8184 9.81445 C 61.5234 9.81445 59.8145 11.4258 59.8145 13.6719 C 59.8145 14.9902 60.4004 15.9668 61.4258 16.8457 L 82.666 36.9141 C 83.7891 37.9883 84.668 38.3789 85.791 38.3789 Z"/>
  </g>
  <g id="Light-L" transform="matrix(1 0 0 1 1068.95 1556)">
   <path d="M 84.1797 -60.5469 C 85.9863 -60.5469 87.4512 -62.0605 87.4512 -63.7695 L 87.4512 -87.5 L 87.1582 -99.7559 L 96.7773 -89.9414 L 104.248 -82.4219 C 104.883 -81.7871 105.713 -81.4453 106.543 -81.4453 C 108.398 -81.4453 109.717 -82.666 109.717 -84.4238 C 109.717 -85.5957 109.082 -86.377 108.203 -87.207 L 86.6211 -108.008 C 85.7422 -108.838 85.0586 -109.131 84.1797 -109.131 C 83.3008 -109.131 82.5684 -108.789 81.7871 -108.008 L 60.1562 -87.207 C 59.2773 -86.377 58.6914 -85.5957 58.6914 -84.4238 C 58.6914 -82.666 59.9121 -81.4453 61.7676 -81.4453 C 62.6465 -81.4453 63.4766 -81.7871 64.1113 -82.4219 L 71.582 -89.9414 L 81.2012 -99.7559 L 80.9082 -87.5 L 80.9082 -63.7695 C 80.9082 -62.0605 82.4219 -60.5469 84.1797 -60.5469 Z M 33.3008 4.98047 L 52.5391 4.98047 L 52.5391 -1.31836 L 33.7891 -1.31836 C 27.1484 -1.31836 22.6074 -5.95703 22.6074 -12.2559 L 22.6074 -59.7168 C 22.6074 -66.0156 27.1484 -70.6543 33.7891 -70.6543 L 52.5391 -70.6543 L 52.5391 -76.9531 L 33.3008 -76.9531 C 23.2422 -76.9531 16.0645 -70.1172 16.0645 -60.8398 L 16.0645 -11.1328 C 16.0645 -1.85547 23.2422 4.98047 33.3008 4.98047 Z M 135.059 4.98047 C 145.117 4.98047 152.295 -1.85547 152.295 -11.1328 L 152.295 -60.8398 C 152.295 -70.1172 145.117 -76.9531 135.059 -76.9531 L 115.82 -76.9531 L 115.82 -70.6543 L 134.57 -70.6543 C 141.211 -70.6543 145.752 -66.0156 145.752 -59.7168 L 145.752 -12.2559 C 145.752 -5.95703 141.211 -1.31836 134.57 -1.31836 L 115.82 -1.31836 L 115.82 4.98047 Z M 84.1797 37.207 C 85.0586 37.207 85.791 36.8164 86.6211 36.084 L 108.203 15.2344 C 109.082 14.4043 109.717 13.623 109.717 12.4512 C 109.717 10.6934 108.447 9.47266 106.592 9.47266 C 105.713 9.47266 104.883 9.81445 104.248 10.4492 L 96.7773 17.9688 L 87.1582 27.7832 L 87.4512 15.5273 L 87.4512 -8.1543 C 87.4512 -9.91211 85.9863 -11.377 84.1797 -11.377 C 82.4219 -11.377 80.9082 -9.91211 80.9082 -8.1543 L 80.9082 15.5273 L 81.2012 27.7832 L 71.582 17.9688 L 64.1113 10.4492 C 63.4766 9.81445 62.6465 9.47266 61.8164 9.47266 C 59.9609 9.47266 58.6914 10.6934 58.6914 12.4512 C 58.6914 13.623 59.2773 14.4043 60.1562 15.2344 L 81.7871 36.084 C 82.6172 36.8652 83.3008 37.207 84.1797 37.207 Z"/>
  </g>
  <g id="Thin-L" transform="matrix(1 0 0 1 774.342 1556)">
   <path d="M 82.0801 -60.2539 C 83.1543 -60.2539 84.0332 -61.1328 84.0332 -62.207 L 84.0332 -88.1836 L 83.8379 -101.66 L 96.6797 -88.6719 L 103.564 -81.6895 C 103.955 -81.2988 104.443 -81.1035 105.029 -81.1035 C 106.25 -81.1035 107.031 -81.8848 107.031 -83.0078 C 107.031 -83.9355 106.348 -84.5215 105.664 -85.1562 L 83.5449 -107.031 C 83.0566 -107.52 82.666 -107.715 82.0801 -107.715 C 81.4941 -107.715 81.0547 -107.422 80.6152 -107.031 L 58.4961 -85.1562 C 57.8125 -84.5215 57.1777 -83.9355 57.1777 -83.0078 C 57.1777 -81.8848 57.9102 -81.1035 59.1309 -81.1035 C 59.7168 -81.1035 60.2051 -81.2988 60.5957 -81.6895 L 67.4805 -88.6719 L 80.3223 -101.66 L 80.127 -88.1836 L 80.127 -62.207 C 80.127 -61.1328 81.0059 -60.2539 82.0801 -60.2539 Z M 32.8125 3.95508 L 51.0254 3.95508 L 51.0254 0.0488281 L 32.666 0.0488281 C 25.293 0.0488281 19.9707 -5.22461 19.9707 -12.4023 L 19.9707 -59.7168 C 19.9707 -66.8945 25.293 -72.168 32.666 -72.168 L 51.0254 -72.168 L 51.0254 -76.0254 L 32.8125 -76.0254 C 23.1445 -76.0254 16.0645 -69.4824 16.0645 -60.4492 L 16.0645 -11.6699 C 16.0645 -2.63672 23.1445 3.95508 32.8125 3.95508 Z M 131.348 3.95508 C 141.016 3.95508 148.096 -2.63672 148.096 -11.6699 L 148.096 -60.4492 C 148.096 -69.4824 141.016 -76.0254 131.348 -76.0254 L 113.135 -76.0254 L 113.135 -72.168 L 131.494 -72.168 C 138.867 -72.168 144.189 -66.8945 144.189 -59.7168 L 144.189 -12.4023 C 144.189 -5.22461 138.867 0.0488281 131.494 0.0488281 L 113.135 0.0488281 L 113.135 3.95508 Z M 82.0801 35.5957 C 82.666 35.5957 83.1055 35.3516 83.5449 34.9121 L 105.664 13.0859 C 106.348 12.4023 107.031 11.8652 107.031 10.8887 C 107.031 9.76562 106.25 8.98438 105.029 8.98438 C 104.443 8.98438 103.955 9.17969 103.564 9.57031 L 96.6797 16.5527 L 83.8379 29.541 L 84.0332 16.0645 L 84.0332 -9.86328 C 84.0332 -10.9375 83.1543 -11.8164 82.0801 -11.8164 C 81.0059 -11.8164 80.127 -10.9375 80.127 -9.86328 L 80.127 16.0645 L 80.3223 29.541 L 67.4805 16.5527 L 60.5957 9.57031 C 60.2051 9.17969 59.7168 8.98438 59.1309 8.98438 C 57.959 8.98438 57.1777 9.76562 57.1777 10.8887 C 57.1777 11.8652 57.8125 12.4023 58.4961 13.0859 L 80.6152 34.9121 C 81.1035 35.4004 81.4941 35.5957 82.0801 35.5957 Z"/>
  </g>
  <g id="Ultralight-L" transform="matrix(1 0 0 1 478.705 1556)">
   <path d="M 81.0059 -60.1074 C 81.7383 -60.1074 82.2754 -60.6934 82.2754 -61.4258 L 82.2754 -88.5254 L 82.1289 -102.637 L 96.6309 -88.0371 L 103.223 -81.3477 C 103.516 -81.0547 103.809 -80.957 104.248 -80.957 C 105.127 -80.957 105.615 -81.4941 105.615 -82.2754 C 105.615 -83.1055 104.98 -83.5449 104.395 -84.1309 L 81.9824 -106.494 C 81.6895 -106.836 81.3965 -106.982 81.0059 -106.982 C 80.6152 -106.982 80.2734 -106.738 80.0293 -106.494 L 57.6172 -84.1309 C 57.0312 -83.5449 56.3965 -83.1055 56.3965 -82.2754 C 56.3965 -81.4941 56.8848 -80.957 57.8125 -80.957 C 58.2031 -80.957 58.4961 -81.0547 58.7891 -81.3477 L 65.3809 -88.0371 L 79.8828 -102.637 L 79.7363 -88.5254 L 79.7363 -61.4258 C 79.7363 -60.6934 80.2734 -60.1074 81.0059 -60.1074 Z M 32.6172 3.41797 L 50.293 3.41797 L 50.293 0.78125 L 32.1289 0.78125 C 24.3652 0.78125 18.6523 -4.83398 18.6523 -12.4512 L 18.6523 -59.7168 C 18.6523 -67.334 24.3652 -72.9492 32.1289 -72.9492 L 50.293 -72.9492 L 50.293 -75.5859 L 32.6172 -75.5859 C 23.0957 -75.5859 16.0645 -69.1406 16.0645 -60.2539 L 16.0645 -11.9141 C 16.0645 -3.07617 23.0957 3.41797 32.6172 3.41797 Z M 129.395 3.41797 C 138.916 3.41797 145.947 -3.07617 145.947 -11.9141 L 145.947 -60.2539 C 145.947 -69.1406 138.916 -75.5859 129.395 -75.5859 L 111.719 -75.5859 L 111.719 -72.9492 L 129.883 -72.9492 C 137.646 -72.9492 143.408 -67.334 143.408 -59.7168 L 143.408 -12.4512 C 143.408 -4.83398 137.646 0.78125 129.883 0.78125 L 111.719 0.78125 L 111.719 3.41797 Z M 81.0059 34.7656 C 81.3965 34.7656 81.7383 34.5703 81.9824 34.3262 L 104.395 11.9629 C 104.98 11.377 105.615 10.9375 105.615 10.1074 C 105.615 9.27734 105.127 8.78906 104.199 8.78906 C 103.809 8.78906 103.516 8.88672 103.223 9.13086 L 96.6309 15.8691 L 82.1289 30.4688 L 82.2754 16.3086 L 82.2754 -10.7422 C 82.2754 -11.4746 81.7383 -12.0605 81.0059 -12.0605 C 80.2734 -12.0605 79.7363 -11.4746 79.7363 -10.7422 L 79.7363 16.3086 L 79.8828 30.4688 L 65.3809 15.8691 L 58.7891 9.13086 C 58.4961 8.88672 58.2031 8.78906 57.7637 8.78906 C 56.8848 8.78906 56.3965 9.27734 56.3965 10.1074 C 56.3965 10.9375 57.0312 11.377 57.6172 11.9629 L 80.0293 34.3262 C 80.3711 34.668 80.6152 34.7656 81.0059 34.7656 Z"/>
  </g>
  <g id="Black-M" transform="matrix(1 0 0 1 2858.67 1126)">
   <path d="M 74.7559 -56.4941 C 78.7598 -56.4941 81.4453 -59.2285 81.4453 -63.3301 L 81.4453 -74.9023 L 80.8105 -82.5684 L 82.5684 -79.4434 L 86.0352 -74.8047 C 86.8164 -73.8281 88.3301 -72.998 90.0879 -72.998 C 93.4082 -72.998 96.1914 -75.6836 96.1914 -79.1016 C 96.1914 -80.6152 95.6543 -81.8359 94.4336 -83.1055 L 79.5898 -97.3633 C 78.0762 -98.8281 76.6113 -99.5605 74.7559 -99.5605 C 72.8516 -99.5605 71.3379 -98.8281 69.8242 -97.3633 L 54.9805 -83.1055 C 53.7598 -81.9824 53.2715 -80.6152 53.2715 -79.1016 C 53.2715 -75.6836 55.957 -72.998 59.375 -72.998 C 61.084 -72.998 62.6953 -73.8281 63.4277 -74.8047 L 66.8457 -79.3945 L 68.6523 -82.5684 L 68.0176 -74.9023 L 68.0176 -63.3301 C 68.0176 -59.2285 70.7031 -56.4941 74.7559 -56.4941 Z M 30.6641 -0.830078 L 47.8516 -0.830078 L 47.8516 -14.6484 L 34.668 -14.6484 C 31.1523 -14.6484 28.8086 -16.8457 28.8086 -20.3125 L 28.8086 -51.5137 C 28.8086 -55.0293 31.1523 -57.1777 34.668 -57.1777 L 47.8516 -57.1777 L 47.8516 -71.0449 L 30.6641 -71.0449 C 19.1895 -71.0449 12.4512 -64.7949 12.4512 -54.1504 L 12.4512 -17.6758 C 12.4512 -7.08008 19.1895 -0.830078 30.6641 -0.830078 Z M 118.799 -0.830078 C 130.273 -0.830078 137.012 -7.08008 137.012 -17.6758 L 137.012 -54.1504 C 137.012 -64.7949 130.273 -71.0449 118.799 -71.0449 L 101.611 -71.0449 L 101.611 -57.1777 L 114.795 -57.1777 C 118.359 -57.1777 120.654 -55.0293 120.654 -51.5137 L 120.654 -20.3125 C 120.654 -16.8457 118.359 -14.6484 114.795 -14.6484 L 101.611 -14.6484 L 101.611 -0.830078 Z M 74.7559 27.7344 C 76.6113 27.7344 78.125 26.9531 79.6387 25.5371 L 94.4824 11.2793 C 95.7031 10.0586 96.1914 8.74023 96.1914 7.27539 C 96.1914 3.85742 93.5059 1.17188 90.0879 1.17188 C 88.4277 1.17188 86.7676 2.00195 86.0352 2.97852 L 82.6172 7.51953 L 80.8105 10.7422 L 81.4453 3.07617 L 81.4453 -8.49609 C 81.4453 -12.5977 78.7598 -15.3809 74.7559 -15.3809 C 70.7031 -15.3809 68.0176 -12.5977 68.0176 -8.49609 L 68.0176 3.07617 L 68.6523 10.7422 L 66.8945 7.61719 L 63.4277 2.97852 C 62.6465 2.00195 61.1328 1.17188 59.375 1.17188 C 56.0547 1.17188 53.2715 3.85742 53.2715 7.27539 C 53.2715 8.74023 53.8574 10.0098 55.0293 11.2793 L 69.9219 25.5371 C 71.3379 26.9043 72.8516 27.7344 74.7559 27.7344 Z"/>
  </g>
  <g id="Heavy-M" transform="matrix(1 0 0 1 2563.69 1126)">
   <path d="M 72.998 -56.1523 C 76.5625 -56.1523 79.0527 -58.6914 79.0527 -62.3047 L 79.0527 -74.9512 L 78.5156 -82.7148 L 80.8105 -79.2969 L 84.9609 -74.2676 C 85.7422 -73.3398 87.1094 -72.6074 88.7207 -72.6074 C 91.748 -72.6074 94.1895 -75 94.1895 -78.0762 C 94.1895 -79.4922 93.6523 -80.6641 92.5781 -81.7871 L 77.3438 -96.2402 C 75.9766 -97.6074 74.6582 -98.2422 72.998 -98.2422 C 71.3379 -98.2422 69.9707 -97.6074 68.6035 -96.2402 L 53.418 -81.7871 C 52.2949 -80.7617 51.8066 -79.4922 51.8066 -78.0762 C 51.8066 -75 54.1992 -72.6074 57.2754 -72.6074 C 58.8379 -72.6074 60.3027 -73.3398 61.0352 -74.2676 L 65.1367 -79.248 L 67.5293 -82.7148 L 66.9434 -74.9512 L 66.9434 -62.3047 C 66.9434 -58.6914 69.4336 -56.1523 72.998 -56.1523 Z M 29.6387 -1.31836 L 46.5332 -1.31836 L 46.5332 -13.623 L 32.959 -13.623 C 29.1992 -13.623 26.8066 -15.9668 26.8066 -19.5801 L 26.8066 -52.1484 C 26.8066 -55.7617 29.1992 -58.1055 32.959 -58.1055 L 46.5332 -58.1055 L 46.5332 -70.4102 L 29.6387 -70.4102 C 18.9453 -70.4102 12.4512 -64.3555 12.4512 -54.4922 L 12.4512 -17.2852 C 12.4512 -7.42188 18.9453 -1.31836 29.6387 -1.31836 Z M 116.357 -1.31836 C 127.051 -1.31836 133.545 -7.42188 133.545 -17.2852 L 133.545 -54.4922 C 133.545 -64.3555 127.051 -70.4102 116.357 -70.4102 L 99.4629 -70.4102 L 99.4629 -58.1055 L 113.086 -58.1055 C 116.797 -58.1055 119.189 -55.7617 119.189 -52.1484 L 119.189 -19.5801 C 119.189 -15.9668 116.797 -13.623 113.086 -13.623 L 99.4629 -13.623 L 99.4629 -1.31836 Z M 72.998 26.5137 C 74.6582 26.5137 76.0254 25.8301 77.3926 24.5117 L 92.627 10.0586 C 93.7012 8.93555 94.1895 7.76367 94.1895 6.34766 C 94.1895 3.27148 91.7969 0.878906 88.7207 0.878906 C 87.207 0.878906 85.6934 1.5625 84.9609 2.53906 L 80.8594 7.51953 L 78.5156 10.9863 L 79.0527 3.17383 L 79.0527 -9.47266 C 79.0527 -13.0859 76.5625 -15.5762 72.998 -15.5762 C 69.4336 -15.5762 66.9434 -13.0859 66.9434 -9.47266 L 66.9434 3.17383 L 67.5293 10.9863 L 65.1855 7.56836 L 61.0352 2.53906 C 60.2539 1.5625 58.8867 0.878906 57.3242 0.878906 C 54.248 0.878906 51.8066 3.27148 51.8066 6.34766 C 51.8066 7.76367 52.3438 8.88672 53.4668 10.0586 L 68.6523 24.5117 C 69.9707 25.7812 71.3379 26.5137 72.998 26.5137 Z"/>
  </g>
  <g id="Bold-M" transform="matrix(1 0 0 1 2268.91 1126)">
   <path d="M 71.0449 -55.8105 C 74.1211 -55.8105 76.3672 -58.0566 76.3672 -61.1328 L 76.3672 -75 L 75.8789 -82.9102 L 78.8574 -79.1504 L 83.7891 -73.6816 C 84.5215 -72.8027 85.7422 -72.168 87.1094 -72.168 C 89.8438 -72.168 91.9922 -74.2676 91.9922 -76.9531 C 91.9922 -78.2715 91.4551 -79.2969 90.4297 -80.3223 L 74.9023 -95.0195 C 73.6328 -96.1914 72.5098 -96.7773 71.0449 -96.7773 C 69.6289 -96.7773 68.457 -96.1914 67.1875 -95.0195 L 51.6602 -80.3223 C 50.6348 -79.3945 50.1465 -78.2715 50.1465 -76.9531 C 50.1465 -74.2676 52.2461 -72.168 54.9805 -72.168 C 56.2988 -72.168 57.6172 -72.8027 58.3496 -73.6816 L 63.2324 -79.1504 L 66.2109 -82.9102 L 65.7715 -75 L 65.7715 -61.1328 C 65.7715 -58.0566 68.0176 -55.8105 71.0449 -55.8105 Z M 28.4668 -1.9043 L 45.0195 -1.9043 L 45.0195 -12.5 L 31.0059 -12.5 C 27.002 -12.5 24.5117 -15.0391 24.5117 -18.7988 L 24.5117 -52.8809 C 24.5117 -56.5918 27.002 -59.1309 31.0059 -59.1309 L 45.0195 -59.1309 L 45.0195 -69.7266 L 28.4668 -69.7266 C 18.6523 -69.7266 12.4512 -63.8672 12.4512 -54.7852 L 12.4512 -16.8457 C 12.4512 -7.8125 18.6523 -1.9043 28.4668 -1.9043 Z M 113.623 -1.9043 C 123.438 -1.9043 129.688 -7.8125 129.688 -16.8457 L 129.688 -54.7852 C 129.688 -63.8672 123.438 -69.7266 113.623 -69.7266 L 97.0703 -69.7266 L 97.0703 -59.1309 L 111.133 -59.1309 C 115.088 -59.1309 117.578 -56.5918 117.578 -52.8809 L 117.578 -18.7988 C 117.578 -15.0391 115.088 -12.5 111.133 -12.5 L 97.0703 -12.5 L 97.0703 -1.9043 Z M 71.0449 25.0977 C 72.5098 25.0977 73.6816 24.5605 74.9023 23.3398 L 90.4785 8.64258 C 91.5039 7.71484 91.9922 6.5918 91.9922 5.27344 C 91.9922 2.58789 89.8926 0.537109 87.1582 0.537109 C 85.8398 0.537109 84.5215 1.12305 83.7891 2.00195 L 78.8574 7.4707 L 75.8789 11.2793 L 76.3672 3.32031 L 76.3672 -10.498 C 76.3672 -13.5742 74.1211 -15.8203 71.0449 -15.8203 C 68.0176 -15.8203 65.7715 -13.5742 65.7715 -10.498 L 65.7715 3.32031 L 66.2109 11.2793 L 63.2812 7.51953 L 58.3496 2.00195 C 57.5684 1.12305 56.3477 0.537109 54.9805 0.537109 C 52.2949 0.537109 50.1465 2.58789 50.1465 5.27344 C 50.1465 6.5918 50.6348 7.66602 51.6602 8.64258 L 67.2363 23.3398 C 68.457 24.5117 69.6289 25.0977 71.0449 25.0977 Z"/>
  </g>
  <g id="Semibold-M" transform="matrix(1 0 0 1 1973.54 1126)">
   <path d="M 69.7266 -55.5664 C 72.4121 -55.5664 74.5117 -57.666 74.5117 -60.3516 L 74.5117 -75 L 74.0723 -83.0566 L 77.4902 -79.0527 L 82.959 -73.2422 C 83.6914 -72.4121 84.8145 -71.875 86.0352 -71.875 C 88.5254 -71.875 90.4297 -73.7305 90.4297 -76.1719 C 90.4297 -77.3926 89.9414 -78.418 89.0137 -79.2969 L 73.1934 -94.1406 C 72.0215 -95.2637 70.9961 -95.752 69.7266 -95.752 C 68.4082 -95.752 67.3828 -95.2637 66.2109 -94.1406 L 50.4395 -79.2969 C 49.4629 -78.418 49.0234 -77.3926 49.0234 -76.1719 C 49.0234 -73.7305 50.8789 -71.875 53.3691 -71.875 C 54.541 -71.875 55.7617 -72.4121 56.4941 -73.2422 L 61.9141 -79.0527 L 65.332 -83.0566 L 64.9414 -75 L 64.9414 -60.3516 C 64.9414 -57.666 66.9922 -55.5664 69.7266 -55.5664 Z M 27.6855 -2.29492 L 43.9941 -2.29492 L 43.9941 -11.7188 L 29.6387 -11.7188 C 25.5371 -11.7188 22.9492 -14.4043 22.9492 -18.2129 L 22.9492 -53.3691 C 22.9492 -57.1777 25.5371 -59.8633 29.6387 -59.8633 L 43.9941 -59.8633 L 43.9941 -69.2871 L 27.6855 -69.2871 C 18.457 -69.2871 12.4512 -63.5254 12.4512 -55.0293 L 12.4512 -16.5527 C 12.4512 -8.05664 18.457 -2.29492 27.6855 -2.29492 Z M 111.768 -2.29492 C 120.947 -2.29492 127.002 -8.05664 127.002 -16.5527 L 127.002 -55.0293 C 127.002 -63.5254 120.947 -69.2871 111.768 -69.2871 L 95.4102 -69.2871 L 95.4102 -59.8633 L 109.814 -59.8633 C 113.916 -59.8633 116.504 -57.1777 116.504 -53.3691 L 116.504 -18.2129 C 116.504 -14.4043 113.916 -11.7188 109.814 -11.7188 L 95.4102 -11.7188 L 95.4102 -2.29492 Z M 69.7266 24.1699 C 70.9961 24.1699 72.0215 23.6816 73.1934 22.5586 L 89.0137 7.71484 C 89.9902 6.83594 90.4297 5.81055 90.4297 4.58984 C 90.4297 2.09961 88.5742 0.292969 86.084 0.292969 C 84.8633 0.292969 83.6914 0.830078 82.959 1.66016 L 77.5391 7.4707 L 74.0723 11.4258 L 74.5117 3.41797 L 74.5117 -11.2305 C 74.5117 -13.9648 72.4121 -16.0156 69.7266 -16.0156 C 66.9922 -16.0156 64.9414 -13.9648 64.9414 -11.2305 L 64.9414 3.41797 L 65.332 11.4258 L 61.9141 7.4707 L 56.4941 1.66016 C 55.7129 0.830078 54.5898 0.292969 53.418 0.292969 C 50.9277 0.292969 49.0234 2.09961 49.0234 4.58984 C 49.0234 5.81055 49.5117 6.78711 50.4395 7.71484 L 66.2598 22.5586 C 67.4316 23.6328 68.4082 24.1699 69.7266 24.1699 Z"/>
  </g>
  <g id="Medium-M" transform="matrix(1 0 0 1 1677.85 1126)">
   <path d="M 68.7012 -55.4199 C 71.1426 -55.4199 73.0957 -57.3242 73.0957 -59.7168 L 73.0957 -75.0488 L 72.7051 -83.1543 L 76.4648 -79.0039 L 82.3242 -72.9492 C 83.0566 -72.1191 84.1309 -71.6309 85.2051 -71.6309 C 87.5 -71.6309 89.2578 -73.291 89.2578 -75.5859 C 89.2578 -76.7578 88.8184 -77.6855 87.8906 -78.5156 L 71.9238 -93.5059 C 70.752 -94.5312 69.873 -94.9707 68.7012 -94.9707 C 67.5293 -94.9707 66.6016 -94.5312 65.4785 -93.5059 L 49.5117 -78.5156 C 48.584 -77.7344 48.1445 -76.7578 48.1445 -75.5859 C 48.1445 -73.291 49.8535 -71.6309 52.1484 -71.6309 C 53.2227 -71.6309 54.3457 -72.1191 55.0781 -72.9492 L 60.9375 -78.9551 L 64.6973 -83.1543 L 64.3066 -75.0488 L 64.3066 -59.7168 C 64.3066 -57.3242 66.2598 -55.4199 68.7012 -55.4199 Z M 27.0508 -2.58789 L 43.2617 -2.58789 L 43.2617 -11.1328 L 28.6133 -11.1328 C 24.3652 -11.1328 21.7773 -13.916 21.7773 -17.8223 L 21.7773 -53.7109 C 21.7773 -57.6172 24.3652 -60.4004 28.6133 -60.4004 L 43.2617 -60.4004 L 43.2617 -68.9453 L 27.0508 -68.9453 C 18.3105 -68.9453 12.4512 -63.2812 12.4512 -55.2246 L 12.4512 -16.3086 C 12.4512 -8.25195 18.3105 -2.58789 27.0508 -2.58789 Z M 110.352 -2.58789 C 119.092 -2.58789 124.951 -8.25195 124.951 -16.3086 L 124.951 -55.2246 C 124.951 -63.2812 119.092 -68.9453 110.352 -68.9453 L 94.1895 -68.9453 L 94.1895 -60.4004 L 108.789 -60.4004 C 113.037 -60.4004 115.625 -57.6172 115.625 -53.7109 L 115.625 -17.8223 C 115.625 -13.916 113.037 -11.1328 108.789 -11.1328 L 94.1895 -11.1328 L 94.1895 -2.58789 Z M 68.7012 23.4375 C 69.873 23.4375 70.8008 22.998 71.9238 21.9727 L 87.8906 6.98242 C 88.8184 6.15234 89.2578 5.22461 89.2578 4.05273 C 89.2578 1.75781 87.5488 0.0976562 85.2539 0.0976562 C 84.1797 0.0976562 83.0566 0.585938 82.3242 1.36719 L 76.5137 7.42188 L 72.7051 11.5723 L 73.0957 3.51562 L 73.0957 -11.8164 C 73.0957 -14.209 71.1426 -16.1621 68.7012 -16.1621 C 66.2598 -16.1621 64.3066 -14.209 64.3066 -11.8164 L 64.3066 3.51562 L 64.6973 11.5723 L 60.9375 7.42188 L 55.0781 1.36719 C 54.3457 0.585938 53.2715 0.0976562 52.1973 0.0976562 C 49.9023 0.0976562 48.1445 1.75781 48.1445 4.05273 C 48.1445 5.22461 48.6328 6.15234 49.5117 6.98242 L 65.5273 21.9727 C 66.6016 22.998 67.5293 23.4375 68.7012 23.4375 Z"/>
  </g>
  <g id="Regular-M" transform="matrix(1 0 0 1 1382.46 1126)">
   <path d="M 67.3828 -55.1758 C 69.4824 -55.1758 71.2402 -56.8848 71.2402 -58.9355 L 71.2402 -75.0977 L 70.9473 -83.252 L 75.1465 -78.9062 L 81.4941 -72.5098 C 82.2266 -71.7773 83.2031 -71.3379 84.1309 -71.3379 C 86.2305 -71.3379 87.7441 -72.8027 87.7441 -74.8047 C 87.7441 -75.9277 87.3047 -76.8066 86.4746 -77.5391 L 70.2148 -92.6758 C 69.1895 -93.6035 68.4082 -93.9941 67.3828 -93.9941 C 66.3574 -93.9941 65.5762 -93.6035 64.5508 -92.6758 L 48.291 -77.5391 C 47.4609 -76.8066 47.0215 -75.9277 47.0215 -74.8047 C 47.0215 -72.8027 48.4863 -71.3379 50.5859 -71.3379 C 51.5137 -71.3379 52.5391 -71.7773 53.2715 -72.5098 L 59.6191 -78.9062 L 63.8184 -83.252 L 63.4766 -75.0977 L 63.4766 -58.9355 C 63.4766 -56.8848 65.2832 -55.1758 67.3828 -55.1758 Z M 26.2695 -2.97852 L 42.2363 -2.97852 L 42.2363 -10.3516 L 27.2949 -10.3516 C 22.9004 -10.3516 20.2148 -13.2812 20.2148 -17.2852 L 20.2148 -54.1992 C 20.2148 -58.2031 22.9004 -61.084 27.2949 -61.084 L 42.2363 -61.084 L 42.2363 -68.457 L 26.2695 -68.457 C 18.1152 -68.457 12.4512 -62.9395 12.4512 -55.4199 L 12.4512 -16.0156 C 12.4512 -8.54492 18.1152 -2.97852 26.2695 -2.97852 Z M 108.496 -2.97852 C 116.65 -2.97852 122.314 -8.54492 122.314 -16.0156 L 122.314 -55.4199 C 122.314 -62.9395 116.65 -68.457 108.496 -68.457 L 92.5293 -68.457 L 92.5293 -61.084 L 107.471 -61.084 C 111.865 -61.084 114.551 -58.2031 114.551 -54.1992 L 114.551 -17.2852 C 114.551 -13.2812 111.865 -10.3516 107.471 -10.3516 L 92.5293 -10.3516 L 92.5293 -2.97852 Z M 67.3828 22.5098 C 68.4082 22.5098 69.1895 22.1191 70.2148 21.1914 L 86.4746 6.05469 C 87.3047 5.32227 87.7441 4.44336 87.7441 3.32031 C 87.7441 1.31836 86.2793 -0.0976562 84.1797 -0.0976562 C 83.252 -0.0976562 82.2266 0.292969 81.4941 1.02539 L 75.1465 7.42188 L 70.9473 11.7676 L 71.2402 3.61328 L 71.2402 -12.5 C 71.2402 -14.5996 69.4824 -16.3086 67.3828 -16.3086 C 65.2832 -16.3086 63.4766 -14.5996 63.4766 -12.5 L 63.4766 3.61328 L 63.8184 11.7676 L 59.6191 7.42188 L 53.2715 1.02539 C 52.5391 0.292969 51.5625 -0.0976562 50.6348 -0.0976562 C 48.5352 -0.0976562 47.0215 1.31836 47.0215 3.32031 C 47.0215 4.44336 47.4609 5.32227 48.291 6.05469 L 64.5508 21.1914 C 65.5762 22.1191 66.3574 22.5098 67.3828 22.5098 Z"/>
  </g>
  <g id="Light-M" transform="matrix(1 0 0 1 1087.17 1126)">
   <path d="M 65.9668 -54.9805 C 67.5781 -54.9805 68.9453 -56.2988 68.9453 -57.9102 L 68.9453 -75.5371 L 68.7012 -84.5703 L 75.0488 -78.0273 L 81.0547 -72.0215 C 81.5918 -71.4844 82.3242 -71.1426 83.1055 -71.1426 C 84.7656 -71.1426 85.9375 -72.2656 85.9375 -73.8281 C 85.9375 -74.8047 85.4492 -75.4883 84.7168 -76.1719 L 68.1641 -91.9922 C 67.334 -92.7246 66.748 -93.0176 65.9668 -93.0176 C 65.1855 -93.0176 64.5508 -92.6758 63.7695 -91.9922 L 47.168 -76.1719 C 46.4355 -75.4883 45.9961 -74.8047 45.9961 -73.8281 C 45.9961 -72.2656 47.1191 -71.1426 48.7793 -71.1426 C 49.5605 -71.1426 50.293 -71.4844 50.8789 -72.0215 L 56.8359 -78.0273 L 63.2324 -84.5703 L 62.9883 -75.5371 L 62.9883 -57.9102 C 62.9883 -56.2988 64.3555 -54.9805 65.9668 -54.9805 Z M 25.9766 -3.71094 L 41.2109 -3.71094 L 41.2109 -9.42383 L 26.5625 -9.42383 C 21.6797 -9.42383 18.4082 -12.793 18.4082 -17.3828 L 18.4082 -54.1992 C 18.4082 -58.7891 21.6797 -62.1582 26.5625 -62.1582 L 41.2109 -62.1582 L 41.2109 -67.8711 L 25.9766 -67.8711 C 18.0664 -67.8711 12.4512 -62.5 12.4512 -55.1758 L 12.4512 -16.4062 C 12.4512 -9.08203 18.0664 -3.71094 25.9766 -3.71094 Z M 105.957 -3.71094 C 113.867 -3.71094 119.482 -9.08203 119.482 -16.4062 L 119.482 -55.1758 C 119.482 -62.5 113.867 -67.8711 105.957 -67.8711 L 90.6738 -67.8711 L 90.6738 -62.1582 L 105.371 -62.1582 C 110.254 -62.1582 113.477 -58.7891 113.477 -54.1992 L 113.477 -17.3828 C 113.477 -12.793 110.254 -9.42383 105.371 -9.42383 L 90.6738 -9.42383 L 90.6738 -3.71094 Z M 65.9668 21.4355 C 66.748 21.4355 67.3828 21.0938 68.1641 20.4102 L 84.7168 4.58984 C 85.4492 3.95508 85.9375 3.22266 85.9375 2.24609 C 85.9375 0.683594 84.7656 -0.439453 83.1543 -0.439453 C 82.373 -0.439453 81.5918 -0.0976562 81.0547 0.439453 L 75.0488 6.44531 L 68.7012 12.9883 L 68.9453 3.95508 L 68.9453 -13.6719 C 68.9453 -15.2832 67.5781 -16.6016 65.9668 -16.6016 C 64.3555 -16.6016 62.9883 -15.2832 62.9883 -13.6719 L 62.9883 3.95508 L 63.2324 12.9883 L 56.8359 6.44531 L 50.8789 0.439453 C 50.293 -0.0976562 49.5605 -0.439453 48.8281 -0.439453 C 47.168 -0.439453 45.9961 0.683594 45.9961 2.24609 C 45.9961 3.22266 46.4355 3.95508 47.168 4.58984 L 63.7695 20.4102 C 64.5508 21.1426 65.1855 21.4355 65.9668 21.4355 Z"/>
  </g>
  <g id="Thin-M" transform="matrix(1 0 0 1 792.36 1126)">
   <path d="M 64.0625 -54.6875 C 65.0391 -54.6875 65.8691 -55.5176 65.8691 -56.4941 L 65.8691 -76.123 L 65.7227 -86.2793 L 74.9512 -76.9043 L 80.4199 -71.3867 C 80.7617 -71.0449 81.2012 -70.8496 81.7383 -70.8496 C 82.8125 -70.8496 83.4961 -71.5332 83.4961 -72.5586 C 83.4961 -73.3398 83.0078 -73.8281 82.4707 -74.3652 L 65.4297 -91.1133 C 64.9414 -91.5527 64.5996 -91.6992 64.0625 -91.6992 C 63.5742 -91.6992 63.1348 -91.5039 62.7441 -91.1133 L 45.7031 -74.3652 C 45.1172 -73.8281 44.6289 -73.3398 44.6289 -72.5586 C 44.6289 -71.5332 45.3125 -70.8496 46.3867 -70.8496 C 46.9238 -70.8496 47.3633 -71.0449 47.7051 -71.3867 L 53.1738 -76.9043 L 62.4512 -86.2793 L 62.2559 -76.123 L 62.2559 -56.4941 C 62.2559 -55.5176 63.0859 -54.6875 64.0625 -54.6875 Z M 25.5371 -4.63867 L 39.8926 -4.63867 L 39.8926 -8.1543 L 25.5859 -8.1543 C 20.0195 -8.1543 16.0645 -12.1582 16.0645 -17.4805 L 16.0645 -54.1992 C 16.0645 -59.5703 20.0195 -63.5254 25.5859 -63.5254 L 39.8926 -63.5254 L 39.8926 -67.041 L 25.5371 -67.041 C 17.9688 -67.041 12.4512 -61.9141 12.4512 -54.8828 L 12.4512 -16.8457 C 12.4512 -9.81445 17.9688 -4.63867 25.5371 -4.63867 Z M 102.588 -4.63867 C 110.156 -4.63867 115.674 -9.81445 115.674 -16.8457 L 115.674 -54.8828 C 115.674 -61.9141 110.156 -67.041 102.588 -67.041 L 88.2812 -67.041 L 88.2812 -63.5254 L 102.588 -63.5254 C 108.105 -63.5254 112.061 -59.5703 112.061 -54.1992 L 112.061 -17.4805 C 112.061 -12.1582 108.105 -8.1543 102.588 -8.1543 L 88.2812 -8.1543 L 88.2812 -4.63867 Z M 64.0625 20.0195 C 64.5996 20.0195 64.9902 19.7754 65.4297 19.3848 L 82.4707 2.68555 C 83.0078 2.09961 83.4961 1.66016 83.4961 0.878906 C 83.4961 -0.146484 82.8125 -0.830078 81.7383 -0.830078 C 81.25 -0.830078 80.7617 -0.683594 80.4199 -0.292969 L 74.9512 5.22461 L 65.7227 14.5996 L 65.8691 4.39453 L 65.8691 -15.2344 C 65.8691 -16.2109 65.0391 -16.9922 64.0625 -16.9922 C 63.0859 -16.9922 62.2559 -16.2109 62.2559 -15.2344 L 62.2559 4.39453 L 62.4512 14.5996 L 53.1738 5.22461 L 47.7051 -0.292969 C 47.3633 -0.683594 46.9238 -0.830078 46.4355 -0.830078 C 45.3613 -0.830078 44.6289 -0.146484 44.6289 0.878906 C 44.6289 1.66016 45.1172 2.09961 45.7031 2.68555 L 62.7441 19.3848 C 63.1836 19.8242 63.5742 20.0195 64.0625 20.0195 Z"/>
  </g>
  <g id="Ultralight-M" transform="matrix(1 0 0 1 496.601 1126)">
   <path d="M 63.0859 -54.5898 C 63.7695 -54.5898 64.3066 -55.127 64.3066 -55.7617 L 64.3066 -76.416 L 64.1602 -87.207 L 74.9023 -76.3672 L 80.127 -71.0938 C 80.3711 -70.8496 80.6641 -70.7031 81.0059 -70.7031 C 81.7871 -70.7031 82.2754 -71.1914 82.2754 -71.9238 C 82.2754 -72.6074 81.7871 -72.9492 81.2988 -73.4375 L 64.0137 -90.625 C 63.7207 -90.918 63.4766 -91.0645 63.0859 -91.0645 C 62.7441 -91.0645 62.4512 -90.8691 62.207 -90.625 L 44.9219 -73.4375 C 44.4336 -72.9492 43.9453 -72.6074 43.9453 -71.9238 C 43.9453 -71.1914 44.4336 -70.7031 45.2148 -70.7031 C 45.5566 -70.7031 45.8496 -70.8496 46.0938 -71.0938 L 51.3184 -76.3672 L 62.0117 -87.207 L 61.9141 -76.416 L 61.9141 -55.7617 C 61.9141 -55.127 62.4512 -54.5898 63.0859 -54.5898 Z M 25.3418 -5.12695 L 39.209 -5.12695 L 39.209 -7.51953 L 25.0488 -7.51953 C 19.1895 -7.51953 14.8438 -11.8164 14.8438 -17.5781 L 14.8438 -54.1992 C 14.8438 -59.9609 19.1895 -64.2578 25.0488 -64.2578 L 39.209 -64.2578 L 39.209 -66.6504 L 25.3418 -66.6504 C 17.9199 -66.6504 12.4512 -61.6211 12.4512 -54.6875 L 12.4512 -17.0898 C 12.4512 -10.1562 17.9199 -5.12695 25.3418 -5.12695 Z M 100.879 -5.12695 C 108.301 -5.12695 113.77 -10.1562 113.77 -17.0898 L 113.77 -54.6875 C 113.77 -61.6211 108.301 -66.6504 100.879 -66.6504 L 87.0117 -66.6504 L 87.0117 -64.2578 L 101.123 -64.2578 C 107.031 -64.2578 111.377 -59.9609 111.377 -54.1992 L 111.377 -17.5781 C 111.377 -11.8164 107.031 -7.51953 101.123 -7.51953 L 87.0117 -7.51953 L 87.0117 -5.12695 Z M 63.0859 19.2871 C 63.4766 19.2871 63.7695 19.0918 64.0137 18.8477 L 81.2988 1.66016 C 81.7871 1.17188 82.2754 0.830078 82.2754 0.146484 C 82.2754 -0.585938 81.7871 -1.07422 81.0059 -1.07422 C 80.6641 -1.07422 80.3711 -0.927734 80.127 -0.683594 L 74.9023 4.58984 L 64.1602 15.4297 L 64.3066 4.63867 L 64.3066 -16.0156 C 64.3066 -16.6504 63.7695 -17.1875 63.0859 -17.1875 C 62.4512 -17.1875 61.9141 -16.6504 61.9141 -16.0156 L 61.9141 4.63867 L 62.0117 15.4297 L 51.3184 4.58984 L 46.0938 -0.683594 C 45.8496 -0.927734 45.5566 -1.07422 45.2148 -1.07422 C 44.4336 -1.07422 43.9453 -0.585938 43.9453 0.146484 C 43.9453 0.830078 44.4336 1.17188 44.9219 1.66016 L 62.207 18.8477 C 62.5 19.1406 62.7441 19.2871 63.0859 19.2871 Z"/>
  </g>
  <g id="Black-S" transform="matrix(1 0 0 1 2874.95 696)">
   <path d="M 58.4473 -51.8555 C 61.5723 -51.8555 63.6719 -54.0039 63.6719 -57.1777 L 63.6719 -66.3086 L 63.1836 -72.3145 L 64.5508 -69.873 L 67.334 -66.2109 C 67.9688 -65.4297 69.1406 -64.7949 70.5078 -64.7949 C 73.0957 -64.7949 75.2441 -66.8945 75.2441 -69.5312 C 75.2441 -70.7031 74.8047 -71.6797 73.877 -72.6562 L 62.207 -83.8379 C 61.0352 -84.9609 59.9121 -85.5469 58.4473 -85.5469 C 56.9824 -85.5469 55.8105 -84.9609 54.6387 -83.8379 L 42.9688 -72.6562 C 42.041 -71.7773 41.6504 -70.7031 41.6504 -69.5312 C 41.6504 -66.8945 43.75 -64.7949 46.3867 -64.7949 C 47.7051 -64.7949 48.9746 -65.4297 49.5605 -66.2109 L 52.2949 -69.8242 L 53.7109 -72.3145 L 53.2227 -66.3086 L 53.2227 -57.1777 C 53.2227 -54.0039 55.3223 -51.8555 58.4473 -51.8555 Z M 23.9746 -8.30078 L 37.4023 -8.30078 L 37.4023 -19.043 L 27.0508 -19.043 C 24.2676 -19.043 22.4609 -20.752 22.4609 -23.4863 L 22.4609 -48.0469 C 22.4609 -50.7812 24.2676 -52.4902 27.0508 -52.4902 L 37.4023 -52.4902 L 37.4023 -63.2324 L 23.9746 -63.2324 C 15.0391 -63.2324 9.76562 -58.3496 9.76562 -50.0977 L 9.76562 -21.4355 C 9.76562 -13.1836 15.0391 -8.30078 23.9746 -8.30078 Z M 92.9199 -8.30078 C 101.855 -8.30078 107.129 -13.1836 107.129 -21.4355 L 107.129 -50.0977 C 107.129 -58.3496 101.855 -63.2324 92.9199 -63.2324 L 79.4922 -63.2324 L 79.4922 -52.4902 L 89.8438 -52.4902 C 92.627 -52.4902 94.4336 -50.7812 94.4336 -48.0469 L 94.4336 -23.4863 C 94.4336 -20.752 92.627 -19.043 89.8438 -19.043 L 79.4922 -19.043 L 79.4922 -8.30078 Z M 58.4473 14.0137 C 59.9121 14.0137 61.084 13.4277 62.2559 12.3047 L 73.9258 1.12305 C 74.8535 0.195312 75.2441 -0.830078 75.2441 -2.00195 C 75.2441 -4.63867 73.1445 -6.73828 70.5078 -6.73828 C 69.1895 -6.73828 67.9199 -6.10352 67.334 -5.32227 L 64.5996 -1.70898 L 63.1836 0.78125 L 63.6719 -5.22461 L 63.6719 -14.3555 C 63.6719 -17.5293 61.5723 -19.6777 58.4473 -19.6777 C 55.3223 -19.6777 53.2227 -17.5293 53.2227 -14.3555 L 53.2227 -5.22461 L 53.7109 0.78125 L 52.3438 -1.66016 L 49.5605 -5.32227 C 48.9258 -6.10352 47.7539 -6.73828 46.3867 -6.73828 C 43.7988 -6.73828 41.6504 -4.63867 41.6504 -2.00195 C 41.6504 -0.830078 42.0898 0.146484 43.0176 1.12305 L 54.6875 12.3047 C 55.8105 13.3789 56.9824 14.0137 58.4473 14.0137 Z"/>
  </g>
  <g id="Heavy-S" transform="matrix(1 0 0 1 2579.41 696)">
   <path d="M 57.2754 -51.6602 C 60.1074 -51.6602 62.1094 -53.6621 62.1094 -56.4941 L 62.1094 -66.3086 L 61.6699 -72.3145 L 63.2324 -69.873 L 66.5527 -65.8691 C 67.1875 -65.0879 68.3105 -64.502 69.5312 -64.502 C 71.9727 -64.502 73.9258 -66.4062 73.9258 -68.8477 C 73.9258 -69.9707 73.4863 -70.8984 72.6074 -71.7773 L 60.7422 -83.0566 C 59.6191 -84.1309 58.5938 -84.668 57.2754 -84.668 C 55.957 -84.668 54.8828 -84.1309 53.7598 -83.0566 L 41.8945 -71.7773 C 41.0156 -70.9961 40.625 -69.9707 40.625 -68.8477 C 40.625 -66.4062 42.5293 -64.502 45.0195 -64.502 C 46.1914 -64.502 47.3633 -65.0879 47.998 -65.8691 L 51.3184 -69.8242 L 52.9297 -72.3145 L 52.4414 -66.3086 L 52.4414 -56.4941 C 52.4414 -53.6621 54.4434 -51.6602 57.2754 -51.6602 Z M 23.1934 -8.59375 L 36.5234 -8.59375 L 36.5234 -18.3594 L 25.7812 -18.3594 C 22.9004 -18.3594 21.0938 -20.166 21.0938 -22.9492 L 21.0938 -48.5352 C 21.0938 -51.2695 22.9004 -53.0762 25.7812 -53.0762 L 36.5234 -53.0762 L 36.5234 -62.8418 L 23.1934 -62.8418 C 14.8438 -62.8418 9.76562 -58.0566 9.76562 -50.3418 L 9.76562 -21.0938 C 9.76562 -13.3789 14.8438 -8.59375 23.1934 -8.59375 Z M 91.3574 -8.59375 C 99.707 -8.59375 104.785 -13.3789 104.785 -21.0938 L 104.785 -50.3418 C 104.785 -58.0566 99.707 -62.8418 91.3574 -62.8418 L 78.0762 -62.8418 L 78.0762 -53.0762 L 88.7695 -53.0762 C 91.6504 -53.0762 93.457 -51.2695 93.457 -48.5352 L 93.457 -22.9492 C 93.457 -20.166 91.6504 -18.3594 88.7695 -18.3594 L 78.0762 -18.3594 L 78.0762 -8.59375 Z M 57.2754 13.1836 C 58.5938 13.1836 59.668 12.6465 60.791 11.6211 L 72.6562 0.341797 C 73.5352 -0.488281 73.9258 -1.46484 73.9258 -2.58789 C 73.9258 -5.0293 72.0215 -6.93359 69.5801 -6.93359 C 68.3594 -6.93359 67.1875 -6.34766 66.5527 -5.61523 L 63.2812 -1.61133 L 61.6699 0.830078 L 62.1094 -5.17578 L 62.1094 -14.9414 C 62.1094 -17.8223 60.1074 -19.8242 57.2754 -19.8242 C 54.4434 -19.8242 52.4414 -17.8223 52.4414 -14.9414 L 52.4414 -5.17578 L 52.9297 0.830078 L 51.3184 -1.61133 L 47.998 -5.61523 C 47.3633 -6.34766 46.2402 -6.93359 45.0195 -6.93359 C 42.5781 -6.93359 40.625 -5.0293 40.625 -2.58789 C 40.625 -1.46484 41.0645 -0.537109 41.9434 0.341797 L 53.8086 11.6211 C 54.8828 12.6465 55.957 13.1836 57.2754 13.1836 Z"/>
  </g>
  <g id="Bold-S" transform="matrix(1 0 0 1 2284.02 696)">
   <path d="M 55.957 -51.416 C 58.4473 -51.416 60.3027 -53.2715 60.3027 -55.7617 L 60.3027 -66.2598 L 59.9121 -72.2656 L 61.7188 -69.873 L 65.7227 -65.4297 C 66.3574 -64.7461 67.3828 -64.209 68.457 -64.209 C 70.7031 -64.209 72.4609 -65.918 72.4609 -68.1152 C 72.4609 -69.1895 72.0703 -70.0195 71.2402 -70.8496 L 59.1309 -82.1777 C 58.0566 -83.2031 57.1289 -83.6426 55.957 -83.6426 C 54.7852 -83.6426 53.8574 -83.2031 52.7832 -82.1777 L 40.6738 -70.8496 C 39.8438 -70.0684 39.502 -69.1895 39.502 -68.1152 C 39.502 -65.918 41.2109 -64.209 43.457 -64.209 C 44.5312 -64.209 45.6055 -64.7461 46.2402 -65.4297 L 50.1953 -69.8242 L 52.002 -72.2656 L 51.6113 -66.2598 L 51.6113 -55.7617 C 51.6113 -53.2715 53.4668 -51.416 55.957 -51.416 Z M 22.3633 -8.98438 L 35.498 -8.98438 L 35.498 -17.627 L 24.4141 -17.627 C 21.4355 -17.627 19.5801 -19.5312 19.5801 -22.3145 L 19.5801 -49.0723 C 19.5801 -51.8555 21.4355 -53.7598 24.4141 -53.7598 L 35.498 -53.7598 L 35.498 -62.4023 L 22.3633 -62.4023 C 14.6484 -62.4023 9.76562 -57.7637 9.76562 -50.6348 L 9.76562 -20.752 C 9.76562 -13.623 14.6484 -8.98438 22.3633 -8.98438 Z M 89.5508 -8.98438 C 97.3145 -8.98438 102.148 -13.623 102.148 -20.752 L 102.148 -50.6348 C 102.148 -57.7637 97.3145 -62.4023 89.5508 -62.4023 L 76.4648 -62.4023 L 76.4648 -53.7598 L 87.5488 -53.7598 C 90.5273 -53.7598 92.334 -51.8555 92.334 -49.0723 L 92.334 -22.3145 C 92.334 -19.5312 90.5273 -17.627 87.5488 -17.627 L 76.4648 -17.627 L 76.4648 -8.98438 Z M 55.957 12.2559 C 57.1289 12.2559 58.1055 11.8164 59.1309 10.8398 L 71.2402 -0.537109 C 72.0703 -1.31836 72.4609 -2.19727 72.4609 -3.27148 C 72.4609 -5.46875 70.752 -7.17773 68.5059 -7.17773 C 67.4316 -7.17773 66.3574 -6.64062 65.7227 -5.9082 L 61.7676 -1.5625 L 59.9121 0.878906 L 60.3027 -5.07812 L 60.3027 -15.625 C 60.3027 -18.1152 58.4473 -19.9707 55.957 -19.9707 C 53.4668 -19.9707 51.6113 -18.1152 51.6113 -15.625 L 51.6113 -5.07812 L 52.002 0.878906 L 50.1953 -1.51367 L 46.2402 -5.9082 C 45.5566 -6.64062 44.5801 -7.17773 43.457 -7.17773 C 41.2598 -7.17773 39.502 -5.46875 39.502 -3.27148 C 39.502 -2.19727 39.8926 -1.31836 40.7227 -0.537109 L 52.832 10.8398 C 53.8574 11.7676 54.7852 12.2559 55.957 12.2559 Z"/>
  </g>
  <g id="Semibold-S" transform="matrix(1 0 0 1 1988.19 696)">
   <path d="M 55.0781 -51.2207 C 57.3242 -51.2207 59.082 -52.9785 59.082 -55.2246 L 59.082 -66.2598 L 58.7402 -72.2656 L 60.6934 -69.873 L 65.1367 -65.1367 C 65.7715 -64.4531 66.6992 -64.0137 67.7246 -64.0137 C 69.8242 -64.0137 71.4355 -65.5273 71.4355 -67.5781 C 71.4355 -68.6035 71.0449 -69.4336 70.2637 -70.166 L 58.0078 -81.5918 C 56.9824 -82.5195 56.1523 -82.959 55.0781 -82.959 C 54.0039 -82.959 53.125 -82.5195 52.1484 -81.5918 L 39.8438 -70.166 C 39.0625 -69.4824 38.7207 -68.6035 38.7207 -67.5781 C 38.7207 -65.5273 40.2832 -64.0137 42.3828 -64.0137 C 43.3594 -64.0137 44.3848 -64.4531 45.0195 -65.1367 L 49.4141 -69.8242 L 51.3672 -72.2656 L 51.0254 -66.2598 L 51.0254 -55.2246 C 51.0254 -52.9785 52.7832 -51.2207 55.0781 -51.2207 Z M 21.7773 -9.22852 L 34.8145 -9.22852 L 34.8145 -17.0898 L 23.4375 -17.0898 C 20.3613 -17.0898 18.5547 -19.0918 18.5547 -21.875 L 18.5547 -49.4629 C 18.5547 -52.2461 20.3613 -54.1992 23.4375 -54.1992 L 34.8145 -54.1992 L 34.8145 -62.1094 L 21.7773 -62.1094 C 14.502 -62.1094 9.76562 -57.5195 9.76562 -50.8301 L 9.76562 -20.459 C 9.76562 -13.7695 14.502 -9.22852 21.7773 -9.22852 Z M 88.3789 -9.22852 C 95.6543 -9.22852 100.391 -13.7695 100.391 -20.459 L 100.391 -50.8301 C 100.391 -57.5195 95.6543 -62.1094 88.3789 -62.1094 L 75.3418 -62.1094 L 75.3418 -54.1992 L 86.6699 -54.1992 C 89.7461 -54.1992 91.6016 -52.2461 91.6016 -49.4629 L 91.6016 -21.875 C 91.6016 -19.0918 89.7461 -17.0898 86.6699 -17.0898 L 75.3418 -17.0898 L 75.3418 -9.22852 Z M 55.0781 11.6211 C 56.1523 11.6211 56.9824 11.2305 58.0078 10.3027 L 70.2637 -1.12305 C 71.0449 -1.85547 71.4355 -2.68555 71.4355 -3.71094 C 71.4355 -5.76172 69.873 -7.32422 67.7734 -7.32422 C 66.748 -7.32422 65.7715 -6.83594 65.1367 -6.15234 L 60.7422 -1.46484 L 58.7402 0.927734 L 59.082 -5.07812 L 59.082 -16.0645 C 59.082 -18.3594 57.3242 -20.0684 55.0781 -20.0684 C 52.7832 -20.0684 51.0254 -18.3594 51.0254 -16.0645 L 51.0254 -5.07812 L 51.3672 0.927734 L 49.4141 -1.46484 L 45.0195 -6.15234 C 44.3848 -6.83594 43.4082 -7.32422 42.3828 -7.32422 C 40.332 -7.32422 38.7207 -5.76172 38.7207 -3.71094 C 38.7207 -2.68555 39.0625 -1.85547 39.8438 -1.12305 L 52.1484 10.3027 C 53.125 11.2305 54.0039 11.6211 55.0781 11.6211 Z"/>
  </g>
  <g id="Medium-S" transform="matrix(1 0 0 1 1692.19 696)">
   <path d="M 54.3945 -51.123 C 56.4941 -51.123 58.1543 -52.7832 58.1543 -54.834 L 58.1543 -66.2598 L 57.8613 -72.2168 L 59.9121 -69.8242 L 64.6484 -64.9414 C 65.332 -64.2578 66.2109 -63.8672 67.1875 -63.8672 C 69.1406 -63.8672 70.6543 -65.2832 70.6543 -67.1875 C 70.6543 -68.2129 70.2637 -68.9941 69.5312 -69.6777 L 57.1289 -81.1523 C 56.1523 -82.0312 55.3711 -82.4219 54.3945 -82.4219 C 53.3691 -82.4219 52.5879 -82.0312 51.6113 -81.1523 L 39.209 -69.6777 C 38.4766 -68.9941 38.1348 -68.2129 38.1348 -67.1875 C 38.1348 -65.2832 39.5508 -63.8672 41.5527 -63.8672 C 42.4805 -63.8672 43.457 -64.2578 44.0918 -64.9414 L 48.8281 -69.8242 L 50.9277 -72.2168 L 50.5859 -66.2598 L 50.5859 -54.834 C 50.5859 -52.7832 52.2949 -51.123 54.3945 -51.123 Z M 21.3379 -9.375 L 34.2773 -9.375 L 34.2773 -16.6992 L 22.7051 -16.6992 C 19.5801 -16.6992 17.7246 -18.75 17.7246 -21.5332 L 17.7246 -49.707 C 17.7246 -52.5391 19.5801 -54.541 22.7051 -54.541 L 34.2773 -54.541 L 34.2773 -61.8652 L 21.3379 -61.8652 C 14.4043 -61.8652 9.76562 -57.373 9.76562 -50.9766 L 9.76562 -20.2637 C 9.76562 -13.916 14.4043 -9.375 21.3379 -9.375 Z M 87.4512 -9.375 C 94.3848 -9.375 98.9746 -13.916 98.9746 -20.2637 L 98.9746 -50.9766 C 98.9746 -57.373 94.3848 -61.8652 87.4512 -61.8652 L 74.5117 -61.8652 L 74.5117 -54.541 L 86.0352 -54.541 C 89.1602 -54.541 91.0156 -52.5391 91.0156 -49.707 L 91.0156 -21.5332 C 91.0156 -18.75 89.1602 -16.6992 86.0352 -16.6992 L 74.5117 -16.6992 L 74.5117 -9.375 Z M 54.3945 11.1328 C 55.3711 11.1328 56.1523 10.791 57.1289 9.86328 L 69.5312 -1.5625 C 70.3125 -2.24609 70.6543 -3.07617 70.6543 -4.05273 C 70.6543 -6.00586 69.1895 -7.42188 67.1875 -7.42188 C 66.2598 -7.42188 65.332 -6.98242 64.6484 -6.29883 L 59.9609 -1.41602 L 57.8613 0.976562 L 58.1543 -5.0293 L 58.1543 -16.4062 C 58.1543 -18.5059 56.4941 -20.166 54.3945 -20.166 C 52.2949 -20.166 50.5859 -18.5059 50.5859 -16.4062 L 50.5859 -5.0293 L 50.9277 0.976562 L 48.8281 -1.41602 L 44.0918 -6.29883 C 43.457 -6.98242 42.5293 -7.42188 41.6016 -7.42188 C 39.5996 -7.42188 38.1348 -6.00586 38.1348 -4.05273 C 38.1348 -3.07617 38.4766 -2.29492 39.209 -1.5625 L 51.6113 9.86328 C 52.5879 10.791 53.3691 11.1328 54.3945 11.1328 Z"/>
  </g>
  <g id="Regular-S" transform="matrix(1 0 0 1 1396.35 696)">
   <path d="M 53.4668 -50.9277 C 55.3711 -50.9277 56.9824 -52.4902 56.9824 -54.3457 L 56.9824 -66.2109 L 56.6895 -72.2168 L 58.9355 -69.8242 L 64.1113 -64.6484 C 64.7461 -64.0137 65.5762 -63.623 66.4551 -63.623 C 68.2617 -63.623 69.6289 -64.8926 69.6289 -66.6992 C 69.6289 -67.627 69.2871 -68.4082 68.6035 -69.043 L 56.0059 -80.5664 C 55.0781 -81.3965 54.3945 -81.7383 53.4668 -81.7383 C 52.5879 -81.7383 51.9043 -81.3965 50.9766 -80.5664 L 38.3789 -69.043 C 37.6953 -68.4082 37.3535 -67.627 37.3535 -66.6992 C 37.3535 -64.8926 38.6719 -63.623 40.4785 -63.623 C 41.3574 -63.623 42.2363 -64.0137 42.8711 -64.6484 L 48.0469 -69.8242 L 50.293 -72.2168 L 50 -66.2109 L 50 -54.3457 C 50 -52.4902 51.6113 -50.9277 53.4668 -50.9277 Z M 20.752 -9.61914 L 33.5938 -9.61914 L 33.5938 -16.2109 L 21.7773 -16.2109 C 18.5547 -16.2109 16.6992 -18.2617 16.6992 -21.0938 L 16.6992 -50.0977 C 16.6992 -52.9297 18.5547 -54.9805 21.7773 -54.9805 L 33.5938 -54.9805 L 33.5938 -61.5723 L 20.752 -61.5723 C 14.2578 -61.5723 9.76562 -57.1777 9.76562 -51.1719 L 9.76562 -20.0195 C 9.76562 -14.0625 14.2578 -9.61914 20.752 -9.61914 Z M 86.2305 -9.61914 C 92.7246 -9.61914 97.2168 -14.0625 97.2168 -20.0195 L 97.2168 -51.1719 C 97.2168 -57.1777 92.7246 -61.5723 86.2305 -61.5723 L 73.3887 -61.5723 L 73.3887 -54.9805 L 85.2051 -54.9805 C 88.4277 -54.9805 90.2832 -52.9297 90.2832 -50.0977 L 90.2832 -21.0938 C 90.2832 -18.2617 88.4277 -16.2109 85.2051 -16.2109 L 73.3887 -16.2109 L 73.3887 -9.61914 Z M 53.4668 10.5469 C 54.3945 10.5469 55.0781 10.2051 56.0059 9.375 L 68.6035 -2.19727 C 69.2871 -2.7832 69.6289 -3.56445 69.6289 -4.49219 C 69.6289 -6.29883 68.3105 -7.56836 66.5039 -7.56836 C 65.625 -7.56836 64.7461 -7.17773 64.1113 -6.54297 L 58.9355 -1.36719 L 56.6895 1.02539 L 56.9824 -4.98047 L 56.9824 -16.8945 C 56.9824 -18.7012 55.3711 -20.2637 53.4668 -20.2637 C 51.6113 -20.2637 50 -18.7012 50 -16.8945 L 50 -4.98047 L 50.293 1.02539 L 48.0469 -1.36719 L 42.8711 -6.54297 C 42.2363 -7.17773 41.4062 -7.56836 40.5273 -7.56836 C 38.7207 -7.56836 37.3535 -6.29883 37.3535 -4.49219 C 37.3535 -3.56445 37.6953 -2.7832 38.3789 -2.19727 L 50.9766 9.375 C 51.9043 10.2051 52.5879 10.5469 53.4668 10.5469 Z"/>
  </g>
  <g id="Light-S" transform="matrix(1 0 0 1 1100.91 696)">
   <path d="M 52.2461 -50.7812 C 53.6621 -50.7812 54.9316 -51.9531 54.9316 -53.3691 L 54.9316 -66.6504 L 54.6875 -73.3887 L 58.8379 -69.0918 L 63.6719 -64.2578 C 64.209 -63.7207 64.8438 -63.4277 65.5273 -63.4277 C 66.9922 -63.4277 68.0176 -64.4531 68.0176 -65.8691 C 68.0176 -66.6504 67.6758 -67.2852 67.041 -67.8223 L 54.1992 -79.9805 C 53.4668 -80.6152 52.9297 -80.8594 52.2461 -80.8594 C 51.5137 -80.8594 50.9766 -80.6152 50.2441 -79.9805 L 37.4023 -67.8223 C 36.7676 -67.2852 36.4258 -66.6504 36.4258 -65.8691 C 36.4258 -64.4531 37.4512 -63.4277 38.916 -63.4277 C 39.5996 -63.4277 40.2832 -63.7207 40.7715 -64.2578 L 45.6055 -69.0918 L 49.7559 -73.3887 L 49.5605 -66.6504 L 49.5605 -53.3691 C 49.5605 -51.9531 50.7812 -50.7812 52.2461 -50.7812 Z M 20.459 -10.2539 L 32.666 -10.2539 L 32.666 -15.3809 L 21.0938 -15.3809 C 17.4805 -15.3809 15.1367 -17.8223 15.1367 -21.1914 L 15.1367 -50.0977 C 15.1367 -53.4668 17.4805 -55.9082 21.0938 -55.9082 L 32.666 -55.9082 L 32.666 -61.0352 L 20.459 -61.0352 C 14.209 -61.0352 9.76562 -56.7383 9.76562 -50.9766 L 9.76562 -20.3125 C 9.76562 -14.5508 14.209 -10.2539 20.459 -10.2539 Z M 83.9844 -10.2539 C 90.2832 -10.2539 94.6777 -14.5508 94.6777 -20.3125 L 94.6777 -50.9766 C 94.6777 -56.7383 90.2832 -61.0352 83.9844 -61.0352 L 71.7773 -61.0352 L 71.7773 -55.9082 L 83.3496 -55.9082 C 87.0117 -55.9082 89.3066 -53.4668 89.3066 -50.0977 L 89.3066 -21.1914 C 89.3066 -17.8223 87.0117 -15.3809 83.3496 -15.3809 L 71.7773 -15.3809 L 71.7773 -10.2539 Z M 52.2461 9.57031 C 52.9297 9.57031 53.5156 9.27734 54.1992 8.64258 L 67.041 -3.4668 C 67.6758 -4.00391 68.0176 -4.63867 68.0176 -5.46875 C 68.0176 -6.83594 66.9922 -7.86133 65.5273 -7.86133 C 64.8926 -7.86133 64.209 -7.56836 63.6719 -7.03125 L 58.8379 -2.19727 L 54.6875 2.09961 L 54.9316 -4.6875 L 54.9316 -17.9199 C 54.9316 -19.3359 53.6621 -20.5078 52.2461 -20.5078 C 50.7812 -20.5078 49.5605 -19.3359 49.5605 -17.9199 L 49.5605 -4.6875 L 49.7559 2.09961 L 45.6055 -2.19727 L 40.7715 -7.03125 C 40.2832 -7.56836 39.5996 -7.86133 38.9648 -7.86133 C 37.5 -7.86133 36.4258 -6.83594 36.4258 -5.46875 C 36.4258 -4.63867 36.7676 -4.00391 37.4023 -3.4668 L 50.2441 8.64258 C 50.9766 9.32617 51.5137 9.57031 52.2461 9.57031 Z"/>
  </g>
  <g id="Thin-S" transform="matrix(1 0 0 1 805.861 696)">
   <path d="M 50.5859 -50.5371 C 51.4648 -50.5371 52.1973 -51.2695 52.1973 -52.1484 L 52.1973 -67.1387 L 52.0508 -74.9023 L 58.7402 -68.1152 L 63.1348 -63.6719 C 63.4766 -63.3789 63.8672 -63.1836 64.3066 -63.1836 C 65.2344 -63.1836 65.918 -63.8184 65.918 -64.7461 C 65.918 -65.3809 65.5273 -65.7715 65.0391 -66.2598 L 51.7578 -79.1504 C 51.3672 -79.5898 51.0254 -79.7363 50.5859 -79.7363 C 50.0977 -79.7363 49.7559 -79.541 49.3652 -79.1504 L 36.084 -66.2598 C 35.5957 -65.7715 35.2539 -65.3809 35.2539 -64.7461 C 35.2539 -63.8184 35.8887 -63.1836 36.8164 -63.1836 C 37.2559 -63.1836 37.6953 -63.3789 37.9883 -63.6719 L 42.3828 -68.1152 L 49.0723 -74.9023 L 48.9258 -67.1387 L 48.9258 -52.1484 C 48.9258 -51.2695 49.6582 -50.5371 50.5859 -50.5371 Z M 20.1172 -11.084 L 31.4941 -11.084 L 31.4941 -14.2578 L 20.2148 -14.2578 C 16.0156 -14.2578 13.0371 -17.2852 13.0371 -21.2891 L 13.0371 -50.0977 C 13.0371 -54.1504 16.0156 -57.1289 20.2148 -57.1289 L 31.4941 -57.1289 L 31.4941 -60.3027 L 20.1172 -60.3027 C 14.1113 -60.3027 9.76562 -56.25 9.76562 -50.6836 L 9.76562 -20.752 C 9.76562 -15.1855 14.1113 -11.084 20.1172 -11.084 Z M 81.0059 -11.084 C 87.0117 -11.084 91.3574 -15.1855 91.3574 -20.752 L 91.3574 -50.6836 C 91.3574 -56.25 87.0117 -60.3027 81.0059 -60.3027 L 69.6289 -60.3027 L 69.6289 -57.1289 L 80.9082 -57.1289 C 85.1074 -57.1289 88.0859 -54.1504 88.0859 -50.0977 L 88.0859 -21.2891 C 88.0859 -17.2852 85.1074 -14.2578 80.9082 -14.2578 L 69.6289 -14.2578 L 69.6289 -11.084 Z M 50.5859 8.30078 C 51.0254 8.30078 51.3672 8.10547 51.7578 7.76367 L 65.0391 -5.17578 C 65.5273 -5.61523 65.918 -6.05469 65.918 -6.68945 C 65.918 -7.56836 65.2832 -8.20312 64.3066 -8.20312 C 63.8672 -8.20312 63.4766 -8.05664 63.1348 -7.71484 L 58.7402 -3.32031 L 52.0508 3.51562 L 52.1973 -4.24805 L 52.1973 -19.2383 C 52.1973 -20.1172 51.4648 -20.8496 50.5859 -20.8496 C 49.6582 -20.8496 48.9258 -20.1172 48.9258 -19.2383 L 48.9258 -4.24805 L 49.0723 3.51562 L 42.3828 -3.32031 L 37.9883 -7.71484 C 37.6953 -8.05664 37.2559 -8.20312 36.8164 -8.20312 C 35.8887 -8.20312 35.2539 -7.56836 35.2539 -6.68945 C 35.2539 -6.05469 35.5957 -5.61523 36.084 -5.17578 L 49.3652 7.76367 C 49.8047 8.1543 50.0977 8.30078 50.5859 8.30078 Z"/>
  </g>
  <g id="Ultralight-S" transform="matrix(1 0 0 1 510.004 696)">
   <path d="M 49.707 -50.4395 C 50.293 -50.4395 50.8301 -50.9277 50.8301 -51.5137 L 50.8301 -67.4316 L 50.6836 -75.6836 L 58.6914 -67.5781 L 62.8418 -63.3789 C 63.0859 -63.1836 63.3301 -63.0859 63.6719 -63.0859 C 64.3555 -63.0859 64.7949 -63.4766 64.7949 -64.1602 C 64.7949 -64.6973 64.4043 -65.0391 64.0137 -65.4297 L 50.5371 -78.7598 C 50.2441 -79.0527 50.0488 -79.1504 49.707 -79.1504 C 49.3652 -79.1504 49.1211 -79.0039 48.877 -78.7598 L 35.4004 -65.4297 C 35.0098 -65.0391 34.6191 -64.6973 34.6191 -64.1602 C 34.6191 -63.4766 35.0586 -63.0859 35.7422 -63.0859 C 36.084 -63.0859 36.3281 -63.1836 36.5723 -63.3789 L 40.7227 -67.5781 L 48.7305 -75.6836 L 48.584 -67.4316 L 48.584 -51.5137 C 48.584 -50.9277 49.1211 -50.4395 49.707 -50.4395 Z M 19.9219 -11.5234 L 30.9082 -11.5234 L 30.9082 -13.7207 L 19.7754 -13.7207 C 15.2832 -13.7207 11.9629 -16.9434 11.9629 -21.3867 L 11.9629 -50.0977 C 11.9629 -54.4922 15.2832 -57.7637 19.7754 -57.7637 L 30.9082 -57.7637 L 30.9082 -59.9609 L 19.9219 -59.9609 C 14.0625 -59.9609 9.76562 -55.957 9.76562 -50.5371 L 9.76562 -20.9473 C 9.76562 -15.4785 14.0625 -11.5234 19.9219 -11.5234 Z M 79.4922 -11.5234 C 85.3516 -11.5234 89.6484 -15.4785 89.6484 -20.9473 L 89.6484 -50.5371 C 89.6484 -55.957 85.3516 -59.9609 79.4922 -59.9609 L 68.5059 -59.9609 L 68.5059 -57.7637 L 79.6387 -57.7637 C 84.1797 -57.7637 87.4512 -54.4922 87.4512 -50.0977 L 87.4512 -21.3867 C 87.4512 -16.9434 84.1797 -13.7207 79.6387 -13.7207 L 68.5059 -13.7207 L 68.5059 -11.5234 Z M 49.707 7.66602 C 50.0488 7.66602 50.293 7.51953 50.5371 7.27539 L 64.0137 -6.05469 C 64.4043 -6.44531 64.7949 -6.78711 64.7949 -7.32422 C 64.7949 -7.95898 64.3555 -8.39844 63.6719 -8.39844 C 63.3301 -8.39844 63.0859 -8.30078 62.8418 -8.05664 L 58.6914 -3.85742 L 50.6836 4.24805 L 50.8301 -4.05273 L 50.8301 -19.9707 C 50.8301 -20.5566 50.293 -21.0449 49.707 -21.0449 C 49.1211 -21.0449 48.584 -20.5566 48.584 -19.9707 L 48.584 -4.05273 L 48.7305 4.24805 L 40.7227 -3.85742 L 36.5723 -8.05664 C 36.3281 -8.30078 36.084 -8.39844 35.7422 -8.39844 C 35.0586 -8.39844 34.6191 -7.95898 34.6191 -7.32422 C 34.6191 -6.78711 35.0098 -6.44531 35.4004 -6.05469 L 48.877 7.27539 C 49.1699 7.56836 49.3652 7.66602 49.707 7.66602 Z"/>
  </g>
 </g>
</svg>
