<?xml version="1.0" encoding="UTF-8"?>
<!--Generator: Apple Native CoreSVG 148-->
<!DOCTYPE svg
PUBLIC "-//W3C//DTD SVG 1.1//EN"
       "http://www.w3.org/Graphics/SVG/1.1/DTD/svg11.dtd">
<svg version="1.1" xmlns="http://www.w3.org/2000/svg" xmlns:xlink="http://www.w3.org/1999/xlink" width="3300" height="2200">
 <!--glyph: "uni100940.medium", point size: 100.000000, font version: "Version 16.0d11e1", template writer version: "8"-->
 <g id="Notes">
  <rect height="2200" id="artboard" style="fill:white;opacity:1" width="3300" x="0" y="0"/>
  <line id="" style="fill:none;stroke:black;opacity:1;stroke-width:0.5;" x1="263" x2="3036" y1="292" y2="292"/>
  <text style="stroke:none;fill:black;font-family:-apple-system,&quot;SF Pro Display&quot;,&quot;SF Pro Text&quot;,Helvetica,sans-serif;font-weight:bold;" transform="matrix(1 0 0 1 263 322)">Weight/Scale Variations</text>
  <text style="stroke:none;fill:black;font-family:-apple-system,&quot;SF Pro Display&quot;,&quot;SF Pro Text&quot;,Helvetica,sans-serif;text-anchor:middle;" transform="matrix(1 0 0 1 559.711 322)">Ultralight</text>
  <text style="stroke:none;fill:black;font-family:-apple-system,&quot;SF Pro Display&quot;,&quot;SF Pro Text&quot;,Helvetica,sans-serif;text-anchor:middle;" transform="matrix(1 0 0 1 856.422 322)">Thin</text>
  <text style="stroke:none;fill:black;font-family:-apple-system,&quot;SF Pro Display&quot;,&quot;SF Pro Text&quot;,Helvetica,sans-serif;text-anchor:middle;" transform="matrix(1 0 0 1 1153.13 322)">Light</text>
  <text style="stroke:none;fill:black;font-family:-apple-system,&quot;SF Pro Display&quot;,&quot;SF Pro Text&quot;,Helvetica,sans-serif;text-anchor:middle;" transform="matrix(1 0 0 1 1449.84 322)">Regular</text>
  <text style="stroke:none;fill:black;font-family:-apple-system,&quot;SF Pro Display&quot;,&quot;SF Pro Text&quot;,Helvetica,sans-serif;text-anchor:middle;" transform="matrix(1 0 0 1 1746.56 322)">Medium</text>
  <text style="stroke:none;fill:black;font-family:-apple-system,&quot;SF Pro Display&quot;,&quot;SF Pro Text&quot;,Helvetica,sans-serif;text-anchor:middle;" transform="matrix(1 0 0 1 2043.27 322)">Semibold</text>
  <text style="stroke:none;fill:black;font-family:-apple-system,&quot;SF Pro Display&quot;,&quot;SF Pro Text&quot;,Helvetica,sans-serif;text-anchor:middle;" transform="matrix(1 0 0 1 2339.98 322)">Bold</text>
  <text style="stroke:none;fill:black;font-family:-apple-system,&quot;SF Pro Display&quot;,&quot;SF Pro Text&quot;,Helvetica,sans-serif;text-anchor:middle;" transform="matrix(1 0 0 1 2636.69 322)">Heavy</text>
  <text style="stroke:none;fill:black;font-family:-apple-system,&quot;SF Pro Display&quot;,&quot;SF Pro Text&quot;,Helvetica,sans-serif;text-anchor:middle;" transform="matrix(1 0 0 1 2933.4 322)">Black</text>
  <line id="" style="fill:none;stroke:black;opacity:1;stroke-width:0.5;" x1="263" x2="3036" y1="1903" y2="1903"/>
  <g id="" transform="matrix(1 0 0 1 263 1933)">
   <path d="M 9.24805 0.830078 C 13.5547 0.830078 17.1387 -2.74414 17.1387 -7.05078 C 17.1387 -11.3574 13.5449 -14.9316 9.23828 -14.9316 C 4.94141 -14.9316 1.36719 -11.3574 1.36719 -7.05078 C 1.36719 -2.74414 4.95117 0.830078 9.24805 0.830078 Z M 9.24805 -0.654297 C 5.70312 -0.654297 2.87109 -3.49609 2.87109 -7.05078 C 2.87109 -10.6055 5.69336 -13.4473 9.23828 -13.4473 C 12.793 -13.4473 15.6348 -10.6055 15.6445 -7.05078 C 15.6543 -3.49609 12.8027 -0.654297 9.24805 -0.654297 Z M 9.22852 -3.62305 C 9.69727 -3.62305 9.9707 -3.93555 9.9707 -4.45312 L 9.9707 -6.31836 L 12.002 -6.31836 C 12.5 -6.31836 12.832 -6.57227 12.832 -7.04102 C 12.832 -7.51953 12.5195 -7.7832 12.002 -7.7832 L 9.9707 -7.7832 L 9.9707 -9.81445 C 9.9707 -10.332 9.69727 -10.6543 9.22852 -10.6543 C 8.75977 -10.6543 8.50586 -10.3125 8.50586 -9.81445 L 8.50586 -7.7832 L 6.49414 -7.7832 C 5.97656 -7.7832 5.64453 -7.51953 5.64453 -7.04102 C 5.64453 -6.57227 5.99609 -6.31836 6.49414 -6.31836 L 8.50586 -6.31836 L 8.50586 -4.45312 C 8.50586 -3.95508 8.75977 -3.62305 9.22852 -3.62305 Z"/>
  </g>
  <g id="" transform="matrix(1 0 0 1 281.506 1933)">
   <path d="M 11.709 2.91016 C 17.1582 2.91016 21.6699 -1.61133 21.6699 -7.05078 C 21.6699 -12.5 17.1484 -17.0117 11.6992 -17.0117 C 6.25977 -17.0117 1.74805 -12.5 1.74805 -7.05078 C 1.74805 -1.61133 6.26953 2.91016 11.709 2.91016 Z M 11.709 1.25 C 7.09961 1.25 3.41797 -2.44141 3.41797 -7.05078 C 3.41797 -11.6602 7.08984 -15.3516 11.6992 -15.3516 C 16.3086 -15.3516 20 -11.6602 20.0098 -7.05078 C 20.0195 -2.44141 16.3184 1.25 11.709 1.25 Z M 11.6797 -2.66602 C 12.207 -2.66602 12.5098 -3.01758 12.5098 -3.59375 L 12.5098 -6.23047 L 15.3223 -6.23047 C 15.8691 -6.23047 16.25 -6.51367 16.25 -7.03125 C 16.25 -7.55859 15.8887 -7.86133 15.3223 -7.86133 L 12.5098 -7.86133 L 12.5098 -10.6836 C 12.5098 -11.25 12.207 -11.6113 11.6797 -11.6113 C 11.1621 -11.6113 10.8789 -11.2305 10.8789 -10.6836 L 10.8789 -7.86133 L 8.07617 -7.86133 C 7.50977 -7.86133 7.13867 -7.55859 7.13867 -7.03125 C 7.13867 -6.51367 7.5293 -6.23047 8.07617 -6.23047 L 10.8789 -6.23047 L 10.8789 -3.59375 C 10.8789 -3.03711 11.1621 -2.66602 11.6797 -2.66602 Z"/>
  </g>
  <g id="" transform="matrix(1 0 0 1 304.924 1933)">
   <path d="M 14.9707 5.66406 C 21.9336 5.66406 27.6953 -0.0976562 27.6953 -7.05078 C 27.6953 -14.0137 21.9238 -19.7754 14.9609 -19.7754 C 8.00781 -19.7754 2.25586 -14.0137 2.25586 -7.05078 C 2.25586 -0.0976562 8.01758 5.66406 14.9707 5.66406 Z M 14.9707 3.84766 C 8.93555 3.84766 4.08203 -1.01562 4.08203 -7.05078 C 4.08203 -13.0957 8.92578 -17.9492 14.9609 -17.9492 C 21.0059 -17.9492 25.8594 -13.0957 25.8691 -7.05078 C 25.8789 -1.01562 21.0156 3.84766 14.9707 3.84766 Z M 14.9414 -1.38672 C 15.5176 -1.38672 15.8594 -1.77734 15.8594 -2.38281 L 15.8594 -6.13281 L 19.7754 -6.13281 C 20.3711 -6.13281 20.7812 -6.46484 20.7812 -7.02148 C 20.7812 -7.59766 20.3906 -7.93945 19.7754 -7.93945 L 15.8594 -7.93945 L 15.8594 -11.8652 C 15.8594 -12.4805 15.5176 -12.8711 14.9414 -12.8711 C 14.375 -12.8711 14.0527 -12.4609 14.0527 -11.8652 L 14.0527 -7.93945 L 10.1465 -7.93945 C 9.53125 -7.93945 9.13086 -7.59766 9.13086 -7.02148 C 9.13086 -6.46484 9.55078 -6.13281 10.1465 -6.13281 L 14.0527 -6.13281 L 14.0527 -2.38281 C 14.0527 -1.79688 14.375 -1.38672 14.9414 -1.38672 Z"/>
  </g>
  <text style="stroke:none;fill:black;font-family:-apple-system,&quot;SF Pro Display&quot;,&quot;SF Pro Text&quot;,Helvetica,sans-serif;font-weight:bold;" transform="matrix(1 0 0 1 263 1953)">Design Variations</text>
  <text style="stroke:none;fill:black;font-family:-apple-system,&quot;SF Pro Display&quot;,&quot;SF Pro Text&quot;,Helvetica,sans-serif;" transform="matrix(1 0 0 1 263 1971)">Symbols are supported in up to nine weights and three scales.</text>
  <text style="stroke:none;fill:black;font-family:-apple-system,&quot;SF Pro Display&quot;,&quot;SF Pro Text&quot;,Helvetica,sans-serif;" transform="matrix(1 0 0 1 263 1989)">For optimal layout with text and other symbols, vertically align</text>
  <text style="stroke:none;fill:black;font-family:-apple-system,&quot;SF Pro Display&quot;,&quot;SF Pro Text&quot;,Helvetica,sans-serif;" transform="matrix(1 0 0 1 263 2007)">symbols with the adjacent text.</text>
  <line id="" style="fill:none;stroke:#00AEEF;stroke-width:0.5;opacity:1.0;" x1="776" x2="776" y1="1919" y2="1933"/>
  <g id="" transform="matrix(1 0 0 1 776 1933)">
   <path d="M 3.31055 0.126953 C 3.82812 0.126953 4.08203 -0.0683594 4.26758 -0.605469 L 5.52734 -4.0625 L 11.2891 -4.0625 L 12.5488 -0.605469 C 12.7344 -0.0683594 12.9883 0.126953 13.4961 0.126953 C 14.0137 0.126953 14.3457 -0.185547 14.3457 -0.673828 C 14.3457 -0.839844 14.3164 -0.986328 14.2383 -1.20117 L 9.6582 -13.3887 C 9.43359 -13.9941 9.0332 -14.2871 8.4082 -14.2871 C 7.80273 -14.2871 7.39258 -13.9941 7.17773 -13.3984 L 2.59766 -1.19141 C 2.51953 -0.976562 2.49023 -0.830078 2.49023 -0.664062 C 2.49023 -0.175781 2.80273 0.126953 3.31055 0.126953 Z M 6.00586 -5.53711 L 8.37891 -12.1094 L 8.42773 -12.1094 L 10.8008 -5.53711 Z"/>
  </g>
  <line id="" style="fill:none;stroke:#00AEEF;stroke-width:0.5;opacity:1.0;" x1="792.836" x2="792.836" y1="1919" y2="1933"/>
  <text style="stroke:none;fill:black;font-family:-apple-system,&quot;SF Pro Display&quot;,&quot;SF Pro Text&quot;,Helvetica,sans-serif;font-weight:bold;" transform="matrix(1 0 0 1 776 1953)">Margins</text>
  <text style="stroke:none;fill:black;font-family:-apple-system,&quot;SF Pro Display&quot;,&quot;SF Pro Text&quot;,Helvetica,sans-serif;" transform="matrix(1 0 0 1 776 1971)">Leading and trailing margins on the left and right side of each symbol</text>
  <text style="stroke:none;fill:black;font-family:-apple-system,&quot;SF Pro Display&quot;,&quot;SF Pro Text&quot;,Helvetica,sans-serif;" transform="matrix(1 0 0 1 776 1989)">can be adjusted by modifying the x-location of the margin guidelines.</text>
  <text style="stroke:none;fill:black;font-family:-apple-system,&quot;SF Pro Display&quot;,&quot;SF Pro Text&quot;,Helvetica,sans-serif;" transform="matrix(1 0 0 1 776 2007)">Modifications are automatically applied proportionally to all</text>
  <text style="stroke:none;fill:black;font-family:-apple-system,&quot;SF Pro Display&quot;,&quot;SF Pro Text&quot;,Helvetica,sans-serif;" transform="matrix(1 0 0 1 776 2025)">scales and weights.</text>
  <g id="" transform="matrix(1 0 0 1 1289 1933)">
   <path d="M 2.8418 1.86523 L 4.54102 3.57422 C 5.40039 4.44336 6.38672 4.38477 7.31445 3.35938 L 17.4902 -7.85156 C 17.7539 -7.76367 18.0273 -7.7832 18.3398 -7.8418 L 19.4043 -8.03711 L 20.0684 -7.36328 L 20.0293 -6.80664 C 19.9902 -6.30859 20.1172 -5.92773 20.6055 -5.44922 L 21.3672 -4.70703 C 21.8457 -4.22852 22.4609 -4.19922 22.9297 -4.66797 L 25.8398 -7.58789 C 26.3086 -8.05664 26.2891 -8.65234 25.8105 -9.13086 L 25.0391 -9.89258 C 24.5605 -10.3711 24.1895 -10.5273 23.7109 -10.4883 L 23.1348 -10.4395 L 22.4902 -11.0742 L 22.7344 -12.1973 C 22.8613 -12.7637 22.7051 -13.2031 22.1191 -13.7891 L 19.9219 -15.9766 C 16.582 -19.2969 12.1484 -19.2188 9.25781 -16.3281 C 8.83789 -15.918 8.80859 -15.3418 9.04297 -14.9512 C 9.27734 -14.5898 9.73633 -14.3555 10.3809 -14.5215 C 11.8457 -14.8633 13.3691 -14.9219 14.7949 -13.9844 L 14.209 -12.5293 C 14.0137 -12.0508 13.9844 -11.6504 14.1113 -11.2891 L 3.04688 -0.898438 C 2.06055 0.0195312 1.98242 0.996094 2.8418 1.86523 Z M 10.752 -15.957 C 13.1836 -17.7344 16.4746 -17.4316 18.7012 -15.2051 L 21.1328 -12.793 C 21.3672 -12.5586 21.4062 -12.373 21.3379 -12.0312 L 21.0156 -10.5469 L 22.5195 -9.0625 L 23.5059 -9.12109 C 23.7598 -9.13086 23.8379 -9.11133 24.0332 -8.91602 L 24.6094 -8.33984 L 22.168 -5.89844 L 21.5918 -6.47461 C 21.3965 -6.66992 21.3672 -6.74805 21.377 -7.01172 L 21.4453 -7.98828 L 19.9512 -9.47266 L 18.4277 -9.21875 C 18.1055 -9.15039 17.959 -9.17969 17.7148 -9.41406 L 15.7129 -11.416 C 15.459 -11.6504 15.4297 -11.8164 15.5859 -12.1875 L 16.4648 -14.2773 C 14.9023 -15.7324 12.8711 -16.3574 10.8398 -15.7617 C 10.6836 -15.7227 10.625 -15.8496 10.752 -15.957 Z M 5.27344 2.30469 L 4.10156 1.14258 C 3.63281 0.683594 3.74023 0.341797 4.14062 -0.0195312 L 14.9512 -10.1953 L 16.416 -8.71094 L 6.42578 2.27539 C 6.07422 2.67578 5.74219 2.77344 5.27344 2.30469 Z"/>
  </g>
  <text style="stroke:none;fill:black;font-family:-apple-system,&quot;SF Pro Display&quot;,&quot;SF Pro Text&quot;,Helvetica,sans-serif;font-weight:bold;" transform="matrix(1 0 0 1 1289 1953)">Exporting</text>
  <text style="stroke:none;fill:black;font-family:-apple-system,&quot;SF Pro Display&quot;,&quot;SF Pro Text&quot;,Helvetica,sans-serif;" transform="matrix(1 0 0 1 1289 1971)">Symbols should be outlined when exporting to ensure the</text>
  <text style="stroke:none;fill:black;font-family:-apple-system,&quot;SF Pro Display&quot;,&quot;SF Pro Text&quot;,Helvetica,sans-serif;" transform="matrix(1 0 0 1 1289 1989)">design is preserved when submitting to Xcode.</text>
  <text id="template-version" style="stroke:none;fill:black;font-family:-apple-system,&quot;SF Pro Display&quot;,&quot;SF Pro Text&quot;,Helvetica,sans-serif;text-anchor:end;" transform="matrix(1 0 0 1 3036 1933)">Template v.2.0</text>
  <text style="stroke:none;fill:black;font-family:-apple-system,&quot;SF Pro Display&quot;,&quot;SF Pro Text&quot;,Helvetica,sans-serif;text-anchor:end;" transform="matrix(1 0 0 1 3036 1951)">Requires Xcode 12 or greater</text>
  <text style="stroke:none;fill:black;font-family:-apple-system,&quot;SF Pro Display&quot;,&quot;SF Pro Text&quot;,Helvetica,sans-serif;text-anchor:end;" transform="matrix(1 0 0 1 3036 1969)">Generated from rectangle.on.rectangle.slash</text>
  <text style="stroke:none;fill:black;font-family:-apple-system,&quot;SF Pro Display&quot;,&quot;SF Pro Text&quot;,Helvetica,sans-serif;text-anchor:end;" transform="matrix(1 0 0 1 3036 1987)">Typeset at 100 points</text>
  <text style="stroke:none;fill:black;font-family:-apple-system,&quot;SF Pro Display&quot;,&quot;SF Pro Text&quot;,Helvetica,sans-serif;" transform="matrix(1 0 0 1 263 726)">Small</text>
  <text style="stroke:none;fill:black;font-family:-apple-system,&quot;SF Pro Display&quot;,&quot;SF Pro Text&quot;,Helvetica,sans-serif;" transform="matrix(1 0 0 1 263 1156)">Medium</text>
  <text style="stroke:none;fill:black;font-family:-apple-system,&quot;SF Pro Display&quot;,&quot;SF Pro Text&quot;,Helvetica,sans-serif;" transform="matrix(1 0 0 1 263 1586)">Large</text>
 </g>
 <g id="Guides">
  <g id="H-reference" style="fill:#27AAE1;stroke:none;" transform="matrix(1 0 0 1 339 696)">
   <path d="M 0.976562 0 L 3.66211 0 L 12.9883 -24.4629 L 45.7031 -24.4629 L 55.0781 0 L 57.7148 0 L 30.6152 -70.459 L 28.125 -70.459 Z M 29.2969 -67.1387 L 29.3945 -67.1387 L 44.873 -26.709 L 13.8672 -26.709 Z"/>
  </g>
  <line id="Baseline-S" style="fill:none;stroke:#27AAE1;opacity:1;stroke-width:0.5;" x1="263" x2="3036" y1="696" y2="696"/>
  <line id="Capline-S" style="fill:none;stroke:#27AAE1;opacity:1;stroke-width:0.5;" x1="263" x2="3036" y1="625.541" y2="625.541"/>
  <g id="H-reference" style="fill:#27AAE1;stroke:none;" transform="matrix(1 0 0 1 339 1126)">
   <path d="M 0.976562 0 L 3.66211 0 L 12.9883 -24.4629 L 45.7031 -24.4629 L 55.0781 0 L 57.7148 0 L 30.6152 -70.459 L 28.125 -70.459 Z M 29.2969 -67.1387 L 29.3945 -67.1387 L 44.873 -26.709 L 13.8672 -26.709 Z"/>
  </g>
  <line id="Baseline-M" style="fill:none;stroke:#27AAE1;opacity:1;stroke-width:0.5;" x1="263" x2="3036" y1="1126" y2="1126"/>
  <line id="Capline-M" style="fill:none;stroke:#27AAE1;opacity:1;stroke-width:0.5;" x1="263" x2="3036" y1="1055.54" y2="1055.54"/>
  <g id="H-reference" style="fill:#27AAE1;stroke:none;" transform="matrix(1 0 0 1 339 1556)">
   <path d="M 0.976562 0 L 3.66211 0 L 12.9883 -24.4629 L 45.7031 -24.4629 L 55.0781 0 L 57.7148 0 L 30.6152 -70.459 L 28.125 -70.459 Z M 29.2969 -67.1387 L 29.3945 -67.1387 L 44.873 -26.709 L 13.8672 -26.709 Z"/>
  </g>
  <line id="Baseline-L" style="fill:none;stroke:#27AAE1;opacity:1;stroke-width:0.5;" x1="263" x2="3036" y1="1556" y2="1556"/>
  <line id="Capline-L" style="fill:none;stroke:#27AAE1;opacity:1;stroke-width:0.5;" x1="263" x2="3036" y1="1485.54" y2="1485.54"/>
  <line id="left-margin" style="fill:none;stroke:#00AEEF;stroke-width:0.5;opacity:1.0;" x1="1374.14" x2="1374.14" y1="1030.79" y2="1150.12"/>
  <line id="right-margin" style="fill:none;stroke:#00AEEF;stroke-width:0.5;opacity:1.0;" x1="1525.55" x2="1525.55" y1="1030.79" y2="1150.12"/>
 </g>
 <g id="Symbols">
  <g id="Black-L" transform="matrix(1 0 0 1 2829.4 1556)">
   <path d="M 178.418 47.6074 C 180.664 49.8047 184.375 49.8535 186.523 47.6074 C 188.721 45.3125 188.818 41.6992 186.523 39.4531 L 29.248 -117.773 C 27.002 -120.02 23.291 -120.02 21.0449 -117.773 C 18.8477 -115.576 18.8477 -111.816 21.0449 -109.619 Z M 171.533 11.6211 L 188.379 28.4668 C 190.723 24.707 191.943 19.873 191.943 14.1602 L 191.943 -51.6602 C 191.943 -66.8457 183.301 -75.4883 168.066 -75.4883 L 157.471 -75.4883 L 157.471 -84.5703 C 157.471 -99.7559 148.779 -108.35 133.545 -108.35 L 51.5137 -108.35 L 71.7285 -88.1348 L 130.811 -88.1348 C 135.059 -88.1348 137.207 -86.2305 137.207 -81.6895 L 137.207 -75.4883 L 84.4727 -75.4883 L 104.688 -55.2246 L 165.332 -55.2246 C 169.58 -55.2246 171.729 -53.3691 171.729 -48.7793 L 171.729 9.08203 C 171.729 9.96094 171.68 10.8398 171.533 11.6211 Z M 74.4629 37.9883 L 155.713 37.9883 L 135.449 17.7734 L 77.1973 17.7734 C 72.998 17.7734 70.8008 15.8691 70.8008 11.3281 L 70.8008 -44.9219 C 70.8008 -45.5566 70.8496 -46.2402 70.8984 -46.8262 L 53.2715 -64.4043 C 51.5137 -60.9375 50.5859 -56.6406 50.5859 -51.6602 L 50.5859 -15.1367 L 42.6758 -15.1367 C 38.4766 -15.1367 36.3281 -17.041 36.3281 -21.582 L 36.3281 -78.7598 C 36.3281 -79.6387 36.377 -80.4199 36.4746 -81.2012 L 19.3359 -98.3887 C 17.1875 -94.6777 16.0645 -90.0391 16.0645 -84.5703 L 16.0645 -18.7012 C 16.0645 -3.51562 24.707 5.07812 39.9902 5.07812 L 50.5859 5.07812 L 50.5859 14.1602 C 50.5859 29.3457 59.2285 37.9883 74.4629 37.9883 Z"/>
  </g>
  <g id="Heavy-L" transform="matrix(1 0 0 1 2534.37 1556)">
   <path d="M 175.635 45.8984 C 177.734 47.9492 181.201 47.998 183.252 45.8984 C 185.303 43.75 185.352 40.3809 183.252 38.2812 L 28.8086 -116.064 C 26.709 -118.164 23.291 -118.164 21.1426 -116.064 C 19.1406 -114.014 19.1406 -110.498 21.1426 -108.496 Z M 170.166 12.9883 L 184.619 27.4902 C 187.256 23.9258 188.574 19.1895 188.574 13.3789 L 188.574 -51.9531 C 188.574 -66.5039 180.42 -74.6094 165.82 -74.6094 L 154.785 -74.6094 L 154.785 -83.7402 C 154.785 -98.2422 146.631 -106.348 132.031 -106.348 L 50.7812 -106.348 L 68.2617 -88.8672 L 129.883 -88.8672 C 134.717 -88.8672 137.256 -86.5723 137.256 -81.4453 L 137.256 -74.6094 L 82.5684 -74.6094 L 100.049 -57.0801 L 163.721 -57.0801 C 168.506 -57.0801 171.094 -54.7852 171.094 -49.6582 L 171.094 9.375 C 171.094 10.8398 170.752 12.1094 170.166 12.9883 Z M 72.6074 35.9863 L 153.369 35.9863 L 135.84 18.5059 L 74.7559 18.5059 C 69.9219 18.5059 67.3828 16.2109 67.3828 11.084 L 67.3828 -46.7285 C 67.3828 -47.8027 67.5293 -48.7305 67.8223 -49.5117 L 52.7344 -64.5508 C 50.8789 -61.2305 49.8535 -57.0312 49.8535 -51.9531 L 49.8535 -13.2812 L 40.918 -13.2812 C 36.084 -13.2812 33.5938 -15.5762 33.5938 -20.7031 L 33.5938 -79.1992 C 33.5938 -80.7129 33.9355 -81.9336 34.5703 -82.8125 L 19.873 -97.5586 C 17.334 -94.043 16.0645 -89.4531 16.0645 -83.7402 L 16.0645 -18.4082 C 16.0645 -3.85742 24.1699 4.24805 38.8184 4.24805 L 49.8535 4.24805 L 49.8535 13.3789 C 49.8535 27.9297 57.959 35.9863 72.6074 35.9863 Z"/>
  </g>
  <g id="Bold-L" transform="matrix(1 0 0 1 2239.56 1556)">
   <path d="M 172.559 43.9453 C 174.512 45.8496 177.686 45.8984 179.541 43.9453 C 181.445 41.9922 181.494 38.916 179.541 36.9629 L 28.3691 -114.16 C 26.416 -116.113 23.2422 -116.162 21.2891 -114.16 C 19.4336 -112.305 19.4336 -109.033 21.2891 -107.178 Z M 168.555 14.5508 L 180.42 26.3672 C 183.301 23.0957 184.766 18.3594 184.766 12.4512 L 184.766 -52.2949 C 184.766 -66.1133 177.246 -73.6328 163.33 -73.6328 L 151.758 -73.6328 L 151.758 -82.8125 C 151.758 -96.582 144.189 -104.102 130.322 -104.102 L 49.9512 -104.102 L 64.3555 -89.6484 L 128.857 -89.6484 C 134.326 -89.6484 137.305 -86.9141 137.305 -81.1523 L 137.305 -73.6328 L 80.4688 -73.6328 L 94.873 -59.1797 L 161.865 -59.1797 C 167.334 -59.1797 170.312 -56.4453 170.312 -50.6348 L 170.312 9.66797 C 170.312 11.8652 169.678 13.4766 168.555 14.5508 Z M 70.5566 33.7402 L 150.732 33.7402 L 136.279 19.3359 L 71.9727 19.3359 C 66.4551 19.3359 63.5254 16.5527 63.5254 10.791 L 63.5254 -48.7305 C 63.5254 -50.293 63.8184 -51.5625 64.4531 -52.5391 L 52.1484 -64.7949 C 50.1465 -61.5723 49.0723 -57.4219 49.0723 -52.2949 L 49.0723 -11.1816 L 38.9648 -11.1816 C 33.4473 -11.1816 30.5176 -13.916 30.5176 -19.6777 L 30.5176 -79.6875 C 30.5176 -81.9336 31.1523 -83.5449 32.4219 -84.5703 L 20.4102 -96.582 C 17.5293 -93.3105 16.0645 -88.7207 16.0645 -82.8125 L 16.0645 -18.0176 C 16.0645 -4.19922 23.584 3.27148 37.5 3.27148 L 49.0723 3.27148 L 49.0723 12.4512 C 49.0723 26.2695 56.5918 33.7402 70.5566 33.7402 Z"/>
  </g>
  <g id="Semibold-L" transform="matrix(1 0 0 1 1944.15 1556)">
   <path d="M 170.41 42.627 C 172.266 44.4336 175.244 44.4824 177.002 42.627 C 178.809 40.7715 178.857 37.8906 177.002 36.0352 L 28.0273 -112.891 C 26.2207 -114.697 23.2422 -114.746 21.3867 -112.891 C 19.6289 -111.133 19.6289 -108.057 21.3867 -106.299 Z M 167.48 15.625 L 177.539 25.6348 C 180.615 22.4609 182.178 17.8223 182.178 11.8164 L 182.178 -52.5391 C 182.178 -65.8691 175.049 -72.9492 161.621 -72.9492 L 149.658 -72.9492 L 149.658 -82.1289 C 149.658 -95.459 142.529 -102.539 129.102 -102.539 L 49.3652 -102.539 L 61.6699 -90.2344 L 128.125 -90.2344 C 134.033 -90.2344 137.354 -87.1582 137.354 -80.9082 L 137.354 -72.9492 L 79.0039 -72.9492 L 91.2598 -60.5957 L 160.645 -60.5957 C 166.504 -60.5957 169.824 -57.5684 169.824 -51.3184 L 169.824 9.91211 C 169.824 12.5 168.994 14.4531 167.48 15.625 Z M 69.1406 32.2266 L 148.926 32.2266 L 136.572 19.873 L 70.1172 19.873 C 64.1113 19.873 60.8887 16.7969 60.8887 10.5957 L 60.8887 -50.0977 C 60.8887 -52.002 61.2793 -53.5156 62.1094 -54.6387 L 51.7578 -64.9414 C 49.6582 -61.8164 48.5352 -57.666 48.5352 -52.5391 L 48.5352 -9.7168 L 37.5977 -9.7168 C 31.6406 -9.7168 28.418 -12.793 28.418 -18.9941 L 28.418 -79.9805 C 28.418 -82.7637 29.2969 -84.668 30.957 -85.791 L 20.8008 -95.9473 C 17.6758 -92.8223 16.0645 -88.2324 16.0645 -82.1289 L 16.0645 -17.7734 C 16.0645 -4.44336 23.1445 2.58789 36.6211 2.58789 L 48.5352 2.58789 L 48.5352 11.8164 C 48.5352 25.1465 55.6641 32.2266 69.1406 32.2266 Z"/>
  </g>
  <g id="Medium-L" transform="matrix(1 0 0 1 1648.44 1556)">
   <path d="M 168.799 41.6504 C 170.557 43.3594 173.389 43.3594 175.098 41.6504 C 176.807 39.8926 176.855 37.1094 175.098 35.3516 L 27.7832 -111.914 C 26.0742 -113.623 23.2422 -113.672 21.4355 -111.914 C 19.7754 -110.205 19.7754 -107.275 21.4355 -105.615 Z M 166.699 16.4062 L 175.342 25.0488 C 178.564 22.0215 180.176 17.3828 180.176 11.3281 L 180.176 -52.7344 C 180.176 -65.625 173.34 -72.4121 160.303 -72.4121 L 148.096 -72.4121 L 148.096 -81.6895 C 148.096 -94.5801 141.26 -101.367 128.223 -101.367 L 48.9258 -101.367 L 59.668 -90.625 L 127.588 -90.625 C 133.838 -90.625 137.354 -87.3535 137.354 -80.7617 L 137.354 -72.4121 L 77.8809 -72.4121 L 88.5742 -61.7188 L 159.668 -61.7188 C 165.918 -61.7188 169.434 -58.3984 169.434 -51.8066 L 169.434 10.0586 C 169.434 13.0371 168.457 15.1855 166.699 16.4062 Z M 68.0176 31.0547 L 147.559 31.0547 L 136.816 20.3125 L 68.6523 20.3125 C 62.3047 20.3125 58.8867 16.9922 58.8867 10.4492 L 58.8867 -51.123 C 58.8867 -53.3203 59.375 -54.9805 60.3027 -56.2012 L 51.4648 -65.0391 C 49.3164 -62.0117 48.1445 -57.8613 48.1445 -52.7344 L 48.1445 -8.64258 L 36.5723 -8.64258 C 30.2246 -8.64258 26.8066 -11.9141 26.8066 -18.5059 L 26.8066 -80.2734 C 26.8066 -83.3496 27.832 -85.5469 29.834 -86.7188 L 21.1426 -95.459 C 17.7734 -92.4805 16.0645 -87.8418 16.0645 -81.6895 L 16.0645 -17.627 C 16.0645 -4.63867 22.8516 2.09961 35.9375 2.09961 L 48.1445 2.09961 L 48.1445 11.3281 C 48.1445 24.3164 54.9316 31.0547 68.0176 31.0547 Z"/>
  </g>
  <g id="Regular-L" transform="matrix(1 0 0 1 1353.02 1556)">
   <path d="M 166.699 40.332 C 168.311 41.9434 170.996 41.9434 172.559 40.332 C 174.219 38.6719 174.219 36.084 172.559 34.4238 L 27.4902 -110.596 C 25.8789 -112.207 23.2422 -112.256 21.5332 -110.596 C 19.9707 -109.033 19.9707 -106.299 21.5332 -104.736 Z M 165.625 17.4316 L 172.51 24.3164 C 175.879 21.4355 177.588 16.8457 177.588 10.6934 L 177.588 -52.9297 C 177.588 -65.3809 171.191 -71.7773 158.594 -71.7773 L 146.045 -71.7773 L 146.045 -81.0547 C 146.045 -93.457 139.648 -99.8535 127.051 -99.8535 L 48.3398 -99.8535 L 56.9824 -91.2109 L 126.855 -91.2109 C 133.545 -91.2109 137.402 -87.5977 137.402 -80.5664 L 137.402 -71.7773 L 76.416 -71.7773 L 85.0586 -63.1348 L 158.447 -63.1348 C 165.088 -63.1348 168.945 -59.5215 168.945 -52.4902 L 168.945 10.2539 C 168.945 13.7207 167.725 16.1133 165.625 17.4316 Z M 66.6016 29.541 L 145.801 29.541 L 137.109 20.8984 L 66.7969 20.8984 C 59.9609 20.8984 56.25 17.2852 56.25 10.2539 L 56.25 -52.4902 C 56.25 -54.9805 56.8359 -56.8848 58.0078 -58.3008 L 51.0742 -65.1855 C 48.8281 -62.2559 47.6074 -58.1543 47.6074 -52.9297 L 47.6074 -7.17773 L 35.2539 -7.17773 C 28.418 -7.17773 24.707 -10.791 24.707 -17.8223 L 24.707 -80.5664 C 24.707 -84.1797 25.9766 -86.6699 28.3691 -87.8906 L 21.5332 -94.8242 C 17.8711 -91.9922 16.0645 -87.4023 16.0645 -81.0547 L 16.0645 -17.3828 C 16.0645 -4.88281 22.4121 1.46484 35.0586 1.46484 L 47.6074 1.46484 L 47.6074 10.6934 C 47.6074 23.1934 54.0039 29.541 66.6016 29.541 Z"/>
  </g>
  <g id="Light-L" transform="matrix(1 0 0 1 1057.48 1556)">
   <path d="M 164.697 38.1348 C 165.918 39.4043 168.018 39.4043 169.238 38.1348 C 170.557 36.8164 170.508 34.8145 169.238 33.5938 L 26.9531 -108.691 C 25.7324 -109.912 23.6816 -110.01 22.3633 -108.691 C 21.0938 -107.471 21.0938 -105.371 22.3633 -104.15 Z M 163.672 18.75 L 168.994 23.9746 C 173.096 21.3379 175.244 16.5527 175.244 9.96094 L 175.244 -53.6133 C 175.244 -65.332 169.092 -71.4844 157.275 -71.4844 L 144.043 -71.4844 L 144.043 -80.2246 C 144.043 -91.8945 137.939 -98.0469 126.074 -98.0469 L 46.875 -98.0469 L 53.5156 -91.4551 L 125.928 -91.4551 C 133.252 -91.4551 137.451 -87.5 137.451 -79.8828 L 137.451 -71.4844 L 73.4863 -71.4844 L 80.0781 -64.8438 L 157.08 -64.8438 C 164.404 -64.8438 168.604 -60.8887 168.604 -53.2715 L 168.604 9.57031 C 168.604 14.209 166.846 17.2363 163.672 18.75 Z M 65.2344 27.7832 L 145.068 27.7832 L 138.428 21.1914 L 65.3809 21.1914 C 57.8613 21.1914 53.8574 17.2363 53.8574 9.57031 L 53.8574 -53.2715 C 53.8574 -56.6406 54.7363 -59.1797 56.4941 -60.8398 L 51.2695 -66.0645 C 48.6328 -63.1836 47.2656 -59.0332 47.2656 -53.6133 L 47.2656 -5.41992 L 34.1797 -5.41992 C 26.709 -5.41992 22.7051 -9.375 22.7051 -16.9922 L 22.7051 -79.8828 C 22.7051 -84.7168 24.5605 -87.8418 28.125 -89.209 L 22.8516 -94.4824 C 18.3594 -91.9434 16.0645 -87.1582 16.0645 -80.2246 L 16.0645 -16.6504 C 16.0645 -4.88281 22.168 1.17188 34.0332 1.17188 L 47.2656 1.17188 L 47.2656 9.96094 C 47.2656 21.7285 53.3203 27.7832 65.2344 27.7832 Z"/>
  </g>
  <g id="Thin-L" transform="matrix(1 0 0 1 762.33 1556)">
   <path d="M 162.012 35.2051 C 162.793 35.9863 164.062 35.9863 164.795 35.2051 C 165.723 34.375 165.576 33.2031 164.795 32.4219 L 26.2207 -106.152 C 25.5371 -106.836 24.3164 -106.982 23.4375 -106.152 C 22.6562 -105.371 22.6562 -104.102 23.4375 -103.369 Z M 161.084 20.4102 L 164.307 23.5352 C 169.434 21.1426 172.119 16.1621 172.119 8.93555 L 172.119 -54.4922 C 172.119 -65.2344 166.357 -71.0938 155.518 -71.0938 L 141.406 -71.0938 L 141.406 -79.1504 C 141.406 -89.8438 135.693 -95.7031 124.805 -95.7031 L 44.9707 -95.7031 L 48.877 -91.7969 L 124.658 -91.7969 C 132.812 -91.7969 137.5 -87.4023 137.5 -78.9551 L 137.5 -71.0938 L 69.6289 -71.0938 L 73.5352 -67.1387 L 155.322 -67.1387 C 163.477 -67.1387 168.164 -62.7441 168.164 -54.2969 L 168.164 8.69141 C 168.164 14.8438 165.625 18.75 161.084 20.4102 Z M 63.3789 25.4883 L 144.092 25.4883 L 140.186 21.582 L 63.5254 21.582 C 55.0781 21.582 50.6836 17.1875 50.6836 8.69141 L 50.6836 -54.2969 C 50.6836 -58.8379 51.9531 -62.1582 54.4922 -64.209 L 51.4648 -67.2363 C 48.3887 -64.4531 46.7773 -60.2051 46.7773 -54.4922 L 46.7773 -3.07617 L 32.8125 -3.07617 C 24.4141 -3.07617 19.9707 -7.4707 19.9707 -15.918 L 19.9707 -78.9551 C 19.9707 -85.4004 22.6562 -89.4531 27.832 -90.8691 L 24.6094 -94.0918 C 18.9453 -91.8945 16.0645 -86.8164 16.0645 -79.1504 L 16.0645 -15.7227 C 16.0645 -4.88281 21.7773 0.830078 32.666 0.830078 L 46.7773 0.830078 L 46.7773 8.93555 C 46.7773 19.7754 52.4902 25.4883 63.3789 25.4883 Z"/>
  </g>
  <g id="Ultralight-L" transform="matrix(1 0 0 1 466.425 1556)">
   <path d="M 160.645 33.7402 C 161.182 34.2773 162.012 34.2773 162.549 33.7402 C 163.232 33.1055 163.086 32.373 162.549 31.8359 L 25.8789 -104.834 C 25.4395 -105.273 24.6582 -105.469 23.9746 -104.834 C 23.4375 -104.297 23.4375 -103.467 23.9746 -102.93 Z M 159.766 21.2891 L 161.914 23.3398 C 167.529 21.0449 170.508 15.918 170.508 8.39844 L 170.508 -54.9316 C 170.508 -65.1855 164.99 -70.8984 154.59 -70.8984 L 140.039 -70.8984 L 140.039 -78.6133 C 140.039 -88.8184 134.521 -94.5312 124.17 -94.5312 L 43.9941 -94.5312 L 46.5332 -91.9922 L 123.975 -91.9922 C 132.568 -91.9922 137.5 -87.3535 137.5 -78.4668 L 137.5 -70.8984 L 67.627 -70.8984 L 70.166 -68.3105 L 154.443 -68.3105 C 162.988 -68.3105 167.969 -63.7207 167.969 -54.834 L 167.969 8.25195 C 167.969 15.1367 165.039 19.5312 159.766 21.2891 Z M 62.4023 24.3164 L 143.604 24.3164 L 141.064 21.7773 L 62.5488 21.7773 C 53.6621 21.7773 49.0723 17.1387 49.0723 8.25195 L 49.0723 -54.834 C 49.0723 -59.9121 50.5371 -63.6719 53.4668 -65.918 L 51.5625 -67.8223 C 48.2422 -65.0879 46.4844 -60.791 46.4844 -54.9316 L 46.4844 -1.85547 L 32.1289 -1.85547 C 23.1934 -1.85547 18.6035 -6.49414 18.6035 -15.3809 L 18.6035 -78.4668 C 18.6035 -85.791 21.7285 -90.2832 27.6367 -91.748 L 25.4883 -93.8965 C 19.2871 -91.8945 16.0645 -86.6699 16.0645 -78.6133 L 16.0645 -15.2344 C 16.0645 -4.88281 21.582 0.683594 31.9824 0.683594 L 46.4844 0.683594 L 46.4844 8.39844 C 46.4844 18.75 52.0508 24.3164 62.4023 24.3164 Z"/>
  </g>
  <g id="Black-M" transform="matrix(1 0 0 1 2851.12 1126)">
   <path d="M 140.918 30.0781 C 142.676 31.7871 145.557 31.8359 147.217 30.0781 C 148.926 28.3203 148.975 25.5371 147.217 23.7793 L 22.9492 -100.439 C 21.1914 -102.197 18.3105 -102.197 16.6016 -100.439 C 14.8926 -98.7305 14.8926 -95.8008 16.6016 -94.1406 Z M 133.789 -0.0976562 L 149.121 15.2344 C 151.074 12.207 152.1 8.30078 152.1 3.75977 L 152.1 -47.9004 C 152.1 -60.1562 144.824 -67.4316 132.568 -67.4316 L 124.609 -67.4316 L 124.609 -74.1211 C 124.609 -86.377 117.334 -93.7012 105.078 -93.7012 L 40.1367 -93.7012 L 58.4473 -75.3906 L 102.148 -75.3906 C 104.98 -75.3906 106.299 -74.3164 106.299 -71.2402 L 106.299 -67.4316 L 66.4551 -67.4316 L 84.7168 -49.1699 L 129.639 -49.1699 C 132.471 -49.1699 133.789 -48.0469 133.789 -44.9707 L 133.789 -1.61133 C 133.789 -1.12305 133.789 -0.585938 133.789 -0.0976562 Z M 59.4727 23.291 L 123.438 23.291 L 105.127 4.98047 L 62.4023 4.98047 C 59.5703 4.98047 58.2031 3.90625 58.2031 0.830078 L 58.2031 -40.7715 C 58.2031 -41.1133 58.2031 -41.5527 58.2031 -41.9434 L 42.041 -58.0078 C 40.6738 -55.2246 39.9414 -51.8555 39.9414 -47.9004 L 39.9414 -21.2402 L 34.9121 -21.2402 C 32.0801 -21.2402 30.7617 -22.3145 30.7617 -25.3906 L 30.7617 -68.0176 C 30.7617 -68.5059 30.7129 -68.9453 30.7129 -69.4336 L 14.9902 -85.1562 C 13.3301 -82.1289 12.4512 -78.4668 12.4512 -74.1211 L 12.4512 -22.5098 C 12.4512 -10.2539 19.7266 -2.97852 31.9824 -2.97852 L 39.9414 -2.97852 L 39.9414 3.75977 C 39.9414 16.0156 47.2168 23.291 59.4727 23.291 Z"/>
  </g>
  <g id="Heavy-M" transform="matrix(1 0 0 1 2555.98 1126)">
   <path d="M 138.428 28.8086 C 140.088 30.4199 142.871 30.4688 144.482 28.8086 C 146.143 27.0996 146.191 24.4141 144.482 22.7051 L 22.6074 -99.0723 C 20.9473 -100.781 18.2129 -100.781 16.5039 -99.0723 C 14.8926 -97.4609 14.8926 -94.6289 16.5039 -93.0176 Z M 132.764 1.07422 L 145.947 14.2578 C 147.949 11.377 148.975 7.61719 148.975 3.07617 L 148.975 -48.0469 C 148.975 -59.8145 142.236 -66.5527 130.469 -66.5527 L 122.168 -66.5527 L 122.168 -73.4375 C 122.168 -85.2051 115.381 -91.9434 103.613 -91.9434 L 39.6973 -91.9434 L 55.5176 -76.123 L 101.367 -76.123 C 104.688 -76.123 106.348 -74.6582 106.348 -71.0938 L 106.348 -66.5527 L 65.1367 -66.5527 L 80.957 -50.7324 L 128.174 -50.7324 C 131.494 -50.7324 133.154 -49.2676 133.154 -45.752 L 133.154 -1.12305 C 133.154 -0.292969 133.008 0.488281 132.764 1.07422 Z M 57.8125 21.5332 L 121.045 21.5332 L 105.225 5.71289 L 60.0586 5.71289 C 56.7383 5.71289 55.0781 4.29688 55.0781 0.732422 L 55.0781 -42.5293 C 55.0781 -43.1152 55.1758 -43.75 55.2734 -44.2383 L 41.4551 -58.0078 C 40.0391 -55.3223 39.2578 -52.002 39.2578 -48.0469 L 39.2578 -19.6777 L 33.252 -19.6777 C 29.9316 -19.6777 28.2715 -21.0938 28.2715 -24.6582 L 28.2715 -68.6523 C 28.2715 -69.5312 28.418 -70.2148 28.7109 -70.8008 L 15.2344 -84.2773 C 13.3789 -81.4453 12.4512 -77.832 12.4512 -73.4375 L 12.4512 -22.3145 C 12.4512 -10.5957 19.1895 -3.80859 31.0059 -3.80859 L 39.2578 -3.80859 L 39.2578 3.07617 C 39.2578 14.7949 46.0449 21.5332 57.8125 21.5332 Z"/>
  </g>
  <g id="Bold-M" transform="matrix(1 0 0 1 2261 1126)">
   <path d="M 135.645 27.3438 C 137.256 28.9062 139.893 28.9551 141.455 27.3438 C 143.018 25.7324 143.066 23.1445 141.455 21.5332 L 22.2656 -97.6074 C 20.6543 -99.1699 18.0176 -99.2188 16.4062 -97.6074 C 14.8438 -96.0449 14.8438 -93.3105 16.4062 -91.7969 Z M 131.641 2.39258 L 142.432 13.1836 C 144.482 10.498 145.508 6.78711 145.508 2.29492 L 145.508 -48.2422 C 145.508 -59.4238 139.307 -65.5762 128.125 -65.5762 L 119.482 -65.5762 L 119.482 -72.6562 C 119.482 -83.8379 113.232 -89.9902 102.051 -89.9902 L 39.209 -89.9902 L 52.2949 -76.9043 L 100.488 -76.9043 C 104.346 -76.9043 106.396 -75.0488 106.396 -70.9961 L 106.396 -65.5762 L 63.6719 -65.5762 L 76.709 -52.4902 L 126.562 -52.4902 C 130.42 -52.4902 132.471 -50.6348 132.471 -46.582 L 132.471 -0.585938 C 132.471 0.634766 132.178 1.66016 131.641 2.39258 Z M 55.957 19.6289 L 118.408 19.6289 L 105.322 6.54297 L 57.4707 6.54297 C 53.6133 6.54297 51.6113 4.6875 51.6113 0.634766 L 51.6113 -44.4824 C 51.6113 -45.3613 51.7578 -46.1426 52.002 -46.7773 L 40.7715 -58.0078 C 39.3066 -55.4199 38.5254 -52.1484 38.5254 -48.2422 L 38.5254 -17.8711 L 31.3965 -17.8711 C 27.5391 -17.8711 25.5371 -19.7266 25.5371 -23.8281 L 25.5371 -69.3848 C 25.5371 -70.7031 25.8301 -71.6797 26.416 -72.3633 L 15.4785 -83.3496 C 13.4766 -80.6641 12.4512 -77.0996 12.4512 -72.6562 L 12.4512 -22.1191 C 12.4512 -10.9863 18.6523 -4.78516 29.8828 -4.78516 L 38.5254 -4.78516 L 38.5254 2.29492 C 38.5254 13.4277 44.7266 19.6289 55.957 19.6289 Z"/>
  </g>
  <g id="Semibold-M" transform="matrix(1 0 0 1 1965.46 1126)">
   <path d="M 133.691 26.3184 C 135.254 27.8809 137.842 27.8809 139.307 26.3184 C 140.869 24.7559 140.869 22.2656 139.307 20.7031 L 22.0215 -96.5332 C 20.459 -98.0957 17.9199 -98.1445 16.3574 -96.5332 C 14.8438 -95.0684 14.8438 -92.4316 16.3574 -90.918 Z M 130.811 3.32031 L 139.99 12.4512 C 142.09 9.86328 143.164 6.25 143.164 1.75781 L 143.164 -48.3887 C 143.164 -59.1309 137.305 -64.8926 126.465 -64.8926 L 117.578 -64.8926 L 117.578 -72.1191 C 117.578 -82.8613 111.768 -88.6719 100.928 -88.6719 L 38.8672 -88.6719 L 50.0488 -77.4902 L 99.9023 -77.4902 C 104.102 -77.4902 106.396 -75.3418 106.396 -70.8984 L 106.396 -64.8926 L 62.6465 -64.8926 L 73.8281 -53.7109 L 125.488 -53.7109 C 129.639 -53.7109 131.982 -51.6113 131.982 -47.168 L 131.982 -0.244141 C 131.982 1.31836 131.543 2.49023 130.811 3.32031 Z M 54.6875 18.2617 L 116.602 18.2617 L 105.42 7.08008 L 55.6641 7.08008 C 51.4648 7.08008 49.1699 4.98047 49.1699 0.537109 L 49.1699 -45.8008 C 49.1699 -46.9238 49.3652 -47.8027 49.7559 -48.5352 L 40.332 -57.959 C 38.8184 -55.5176 37.9883 -52.2949 37.9883 -48.3887 L 37.9883 -16.6504 L 30.127 -16.6504 C 25.8789 -16.6504 23.6328 -18.7988 23.6328 -23.2422 L 23.6328 -69.9219 C 23.6328 -71.4844 24.0723 -72.6562 24.8535 -73.4375 L 15.625 -82.7148 C 13.5254 -80.1758 12.4512 -76.6113 12.4512 -72.1191 L 12.4512 -22.0215 C 12.4512 -11.2305 18.2617 -5.46875 29.1016 -5.46875 L 37.9883 -5.46875 L 37.9883 1.75781 C 37.9883 12.5 43.7988 18.2617 54.6875 18.2617 Z"/>
  </g>
  <g id="Medium-M" transform="matrix(1 0 0 1 1669.65 1126)">
   <path d="M 132.227 25.5859 C 133.74 27.0996 136.279 27.0996 137.744 25.5859 C 139.209 24.0234 139.258 21.582 137.744 20.0684 L 21.8262 -95.752 C 20.3125 -97.2656 17.8223 -97.3145 16.3086 -95.752 C 14.7949 -94.2871 14.7949 -91.748 16.3086 -90.2832 Z M 130.225 4.00391 L 138.135 11.8652 C 140.234 9.375 141.357 5.81055 141.357 1.36719 L 141.357 -48.4863 C 141.357 -58.9355 135.791 -64.4043 125.244 -64.4043 L 116.162 -64.4043 L 116.162 -71.7285 C 116.162 -82.1777 110.645 -87.6465 100.098 -87.6465 L 38.623 -87.6465 L 48.3887 -77.8809 L 99.4629 -77.8809 C 103.906 -77.8809 106.445 -75.5859 106.445 -70.8496 L 106.445 -64.4043 L 61.9141 -64.4043 L 71.582 -54.6387 L 124.609 -54.6387 C 129.102 -54.6387 131.592 -52.2949 131.592 -47.6074 L 131.592 0.0488281 C 131.592 1.80664 131.104 3.125 130.225 4.00391 Z M 53.7109 17.2852 L 115.186 17.2852 L 105.469 7.51953 L 54.3457 7.51953 C 49.8047 7.51953 47.3633 5.17578 47.3633 0.488281 L 47.3633 -46.8262 C 47.3633 -48.0957 47.6074 -49.0723 48.0469 -49.9023 L 39.9414 -57.959 C 38.4277 -55.5664 37.5977 -52.3926 37.5977 -48.4863 L 37.5977 -15.7227 L 29.1504 -15.7227 C 24.6582 -15.7227 22.168 -18.0664 22.168 -22.8027 L 22.168 -70.2637 C 22.168 -72.0703 22.7051 -73.4375 23.6816 -74.2676 L 15.7715 -82.2266 C 13.5742 -79.7363 12.4512 -76.2695 12.4512 -71.7285 L 12.4512 -21.9238 C 12.4512 -11.4258 17.9199 -6.00586 28.5156 -6.00586 L 37.5977 -6.00586 L 37.5977 1.36719 C 37.5977 11.8164 43.1152 17.2852 53.7109 17.2852 Z"/>
  </g>
  <g id="Regular-M" transform="matrix(1 0 0 1 1374.14 1126)">
   <path d="M 130.322 24.5605 C 131.787 26.0742 134.229 26.0742 135.645 24.5605 C 137.109 23.0957 137.109 20.752 135.645 19.2383 L 21.582 -94.7266 C 20.1172 -96.1914 17.7246 -96.2402 16.2109 -94.7266 C 14.7949 -93.3105 14.7949 -90.8691 16.2109 -89.4043 Z M 129.443 4.88281 L 135.693 11.1328 C 137.891 8.78906 138.965 5.27344 138.965 0.830078 L 138.965 -48.584 C 138.965 -58.6426 133.838 -63.7207 123.682 -63.7207 L 114.307 -63.7207 L 114.307 -71.1914 C 114.307 -81.25 109.18 -86.3281 99.0234 -86.3281 L 38.3301 -86.3281 L 46.1914 -78.4668 L 98.877 -78.4668 C 103.711 -78.4668 106.445 -75.8301 106.445 -70.752 L 106.445 -63.7207 L 60.8887 -63.7207 L 68.7012 -55.8594 L 123.535 -55.8594 C 128.369 -55.8594 131.104 -53.2227 131.104 -48.1445 L 131.104 0.390625 C 131.104 2.44141 130.518 3.90625 129.443 4.88281 Z M 52.4414 15.9668 L 113.379 15.9668 L 105.518 8.10547 L 52.5391 8.10547 C 47.6562 8.10547 44.9707 5.46875 44.9707 0.390625 L 44.9707 -48.1445 C 44.9707 -49.6094 45.2637 -50.7324 45.8008 -51.6602 L 39.502 -57.959 C 37.9395 -55.6641 37.1094 -52.4902 37.1094 -48.584 L 37.1094 -14.502 L 27.8809 -14.502 C 22.998 -14.502 20.3125 -17.1387 20.3125 -22.2168 L 20.3125 -70.752 C 20.3125 -72.8516 20.9473 -74.4141 22.1191 -75.3418 L 15.918 -81.5918 C 13.623 -79.248 12.4512 -75.7812 12.4512 -71.1914 L 12.4512 -21.7773 C 12.4512 -11.7188 17.5293 -6.64062 27.7832 -6.64062 L 37.1094 -6.64062 L 37.1094 0.830078 C 37.1094 10.8887 42.1875 15.9668 52.4414 15.9668 Z"/>
  </g>
  <g id="Light-M" transform="matrix(1 0 0 1 1078.48 1126)">
   <path d="M 128.516 22.6074 C 129.688 23.7305 131.543 23.7305 132.666 22.6074 C 133.838 21.4355 133.789 19.6289 132.666 18.5059 L 21.0938 -93.0176 C 20.0195 -94.1406 18.1641 -94.1895 16.9434 -93.0176 C 15.8203 -91.8945 15.8203 -89.9902 16.9434 -88.916 Z M 127.686 6.00586 L 132.52 10.8398 C 135.4 8.64258 136.865 5.0293 136.865 0.0976562 L 136.865 -49.1699 C 136.865 -58.5938 131.982 -63.4277 122.461 -63.4277 L 112.549 -63.4277 L 112.549 -70.459 C 112.549 -79.834 107.666 -84.7168 98.1445 -84.7168 L 37.0117 -84.7168 L 43.0176 -78.6621 L 97.998 -78.6621 C 103.418 -78.6621 106.494 -75.7812 106.494 -70.1172 L 106.494 -63.4277 L 58.252 -63.4277 L 64.2578 -57.4219 L 122.363 -57.4219 C 127.734 -57.4219 130.811 -54.4922 130.811 -48.877 L 130.811 -0.195312 C 130.811 2.83203 129.688 4.93164 127.686 6.00586 Z M 51.1719 14.4043 L 112.744 14.4043 L 106.689 8.34961 L 51.3184 8.34961 C 45.8008 8.34961 42.8223 5.41992 42.8223 -0.195312 L 42.8223 -48.877 C 42.8223 -51.0742 43.3594 -52.7832 44.4336 -53.9551 L 39.6484 -58.7402 C 37.7441 -56.4941 36.7676 -53.2715 36.7676 -49.1699 L 36.7676 -12.9395 L 26.9531 -12.9395 C 21.4844 -12.9395 18.5059 -15.8203 18.5059 -21.4844 L 18.5059 -70.1172 C 18.5059 -73.3398 19.6777 -75.4883 21.9238 -76.4648 L 17.0898 -81.2988 C 14.0137 -79.1992 12.4512 -75.5859 12.4512 -70.459 L 12.4512 -21.1426 C 12.4512 -11.7188 17.2852 -6.88477 26.8555 -6.88477 L 36.7676 -6.88477 L 36.7676 0.0976562 C 36.7676 9.57031 41.6016 14.4043 51.1719 14.4043 Z"/>
  </g>
  <g id="Thin-M" transform="matrix(1 0 0 1 783.18 1126)">
   <path d="M 126.123 20.0195 C 126.855 20.7031 127.979 20.7031 128.662 20.0195 C 129.492 19.2383 129.395 18.1641 128.662 17.4316 L 20.459 -90.7227 C 19.8242 -91.4062 18.75 -91.5039 17.9199 -90.7227 C 17.2363 -90.0391 17.2363 -88.8672 17.9199 -88.1836 Z M 125.391 7.51953 L 128.369 10.4004 C 132.08 8.49609 134.033 4.6875 134.033 -0.78125 L 134.033 -49.9512 C 134.033 -58.4961 129.541 -63.0859 120.898 -63.0859 L 110.156 -63.0859 L 110.156 -69.4824 C 110.156 -78.0273 105.664 -82.6172 97.0215 -82.6172 L 35.2539 -82.6172 L 38.916 -79.0039 L 96.875 -79.0039 C 103.027 -79.0039 106.543 -75.6836 106.543 -69.2871 L 106.543 -63.0859 L 54.7852 -63.0859 L 58.3984 -59.4727 L 120.752 -59.4727 C 126.904 -59.4727 130.42 -56.1523 130.42 -49.8047 L 130.42 -0.976562 C 130.42 3.41797 128.613 6.29883 125.391 7.51953 Z M 49.5117 12.3047 L 111.865 12.3047 L 108.252 8.69141 L 49.6094 8.69141 C 43.3105 8.69141 39.9902 5.37109 39.9902 -0.976562 L 39.9902 -49.8047 C 39.9902 -53.0273 40.8691 -55.4199 42.6758 -56.9824 L 39.8438 -59.7656 C 37.5488 -57.6172 36.3281 -54.3457 36.3281 -49.9512 L 36.3281 -10.8398 L 25.7324 -10.8398 C 19.3848 -10.8398 16.0645 -14.1113 16.0645 -20.5078 L 16.0645 -69.2871 C 16.0645 -73.9746 17.9688 -76.9043 21.6309 -77.9785 L 18.7012 -80.957 C 14.5508 -79.1504 12.4512 -75.293 12.4512 -69.4824 L 12.4512 -20.3125 C 12.4512 -11.7188 16.9922 -7.17773 25.6348 -7.17773 L 36.3281 -7.17773 L 36.3281 -0.78125 C 36.3281 7.8125 40.8691 12.3047 49.5117 12.3047 Z"/>
  </g>
  <g id="Ultralight-M" transform="matrix(1 0 0 1 487.177 1126)">
   <path d="M 124.902 18.6523 C 125.391 19.1406 126.172 19.1406 126.66 18.6523 C 127.246 18.1152 127.148 17.3828 126.66 16.9434 L 20.166 -89.5508 C 19.7266 -89.9902 19.043 -90.1367 18.4082 -89.5508 C 17.9199 -89.1113 17.9199 -88.3301 18.4082 -87.8418 Z M 124.219 8.30078 L 126.221 10.2051 C 130.42 8.39844 132.617 4.49219 132.617 -1.26953 L 132.617 -50.3906 C 132.617 -58.4473 128.271 -62.9395 120.068 -62.9395 L 108.936 -62.9395 L 108.936 -68.9941 C 108.936 -77.0508 104.59 -81.543 96.4355 -81.543 L 34.375 -81.543 L 36.7676 -79.1504 L 96.2891 -79.1504 C 102.783 -79.1504 106.543 -75.6348 106.543 -68.8965 L 106.543 -62.9395 L 53.0273 -62.9395 L 55.4199 -60.5469 L 119.971 -60.5469 C 126.465 -60.5469 130.225 -57.0312 130.225 -50.2441 L 130.225 -1.36719 C 130.225 3.71094 128.076 6.98242 124.219 8.30078 Z M 48.6328 11.2793 L 111.426 11.2793 L 109.033 8.88672 L 48.7793 8.88672 C 41.9922 8.88672 38.5254 5.37109 38.5254 -1.36719 L 38.5254 -50.2441 C 38.5254 -54.0527 39.5996 -56.8359 41.748 -58.4961 L 39.9414 -60.3027 C 37.4512 -58.2031 36.1328 -54.8828 36.1328 -50.3906 L 36.1328 -9.76562 L 25.0977 -9.76562 C 18.3594 -9.76562 14.8438 -13.2324 14.8438 -20.0195 L 14.8438 -68.8965 C 14.8438 -74.3164 17.1387 -77.6367 21.4844 -78.7598 L 19.4824 -80.7617 C 14.8438 -79.1504 12.4512 -75.1465 12.4512 -68.9941 L 12.4512 -19.873 C 12.4512 -11.7188 16.7969 -7.37305 25 -7.37305 L 36.1328 -7.37305 L 36.1328 -1.26953 C 36.1328 6.93359 40.4785 11.2793 48.6328 11.2793 Z"/>
  </g>
  <g id="Black-S" transform="matrix(1 0 0 1 2869.04 696)">
   <path d="M 110.254 15.8691 C 111.621 17.1875 113.867 17.2363 115.186 15.8691 C 116.504 14.502 116.553 12.3047 115.186 10.9375 L 17.9688 -86.2305 C 16.6016 -87.5977 14.3555 -87.5977 12.9883 -86.2305 C 11.6699 -84.9121 11.6699 -82.6172 12.9883 -81.2988 Z M 104.785 -7.61719 L 116.65 4.24805 C 118.164 1.85547 118.945 -1.17188 118.945 -4.73633 L 118.945 -45.166 C 118.945 -54.7363 113.281 -60.4004 103.711 -60.4004 L 97.4609 -60.4004 L 97.4609 -65.6738 C 97.4609 -75.2441 91.7969 -80.9082 82.2266 -80.9082 L 31.4453 -80.9082 L 45.6055 -66.748 L 79.9805 -66.748 C 82.2266 -66.748 83.3008 -65.8691 83.3008 -63.4277 L 83.3008 -60.4004 L 52.002 -60.4004 L 66.1621 -46.2402 L 101.465 -46.2402 C 103.711 -46.2402 104.785 -45.3613 104.785 -42.9199 Z M 46.4844 10.498 L 96.5332 10.498 L 82.373 -3.66211 L 48.7305 -3.66211 C 46.4844 -3.66211 45.4102 -4.54102 45.4102 -6.98242 L 45.4102 -40.625 L 32.9102 -53.0762 C 31.8359 -50.8789 31.25 -48.2422 31.25 -45.166 L 31.25 -24.1699 L 27.2461 -24.1699 C 25 -24.1699 23.9258 -25.0488 23.9258 -27.4902 L 23.9258 -62.1094 L 11.7676 -74.2676 C 10.4492 -71.9238 9.76562 -69.043 9.76562 -65.6738 L 9.76562 -25.2441 C 9.76562 -15.6738 15.4297 -10.0098 25 -10.0098 L 31.25 -10.0098 L 31.25 -4.73633 C 31.25 4.83398 36.9141 10.498 46.4844 10.498 Z"/>
  </g>
  <g id="Heavy-S" transform="matrix(1 0 0 1 2573.41 696)">
   <path d="M 108.545 15.0879 C 109.912 16.4062 112.109 16.4551 113.428 15.0879 C 114.746 13.7207 114.795 11.5723 113.428 10.2051 L 17.7734 -85.4004 C 16.4062 -86.7676 14.209 -86.7676 12.8418 -85.4004 C 11.5234 -84.082 11.5234 -81.8359 12.8418 -80.5176 Z M 104.199 -6.83594 L 114.6 3.51562 C 116.064 1.26953 116.797 -1.70898 116.797 -5.17578 L 116.797 -45.2148 C 116.797 -54.4922 111.523 -59.7656 102.246 -59.7656 L 95.8008 -59.7656 L 95.8008 -65.2344 C 95.8008 -74.4629 90.4785 -79.7363 81.25 -79.7363 L 31.25 -79.7363 L 43.75 -67.2852 L 79.4922 -67.2852 C 82.0312 -67.2852 83.3008 -66.1621 83.3008 -63.4277 L 83.3008 -59.7656 L 51.3184 -59.7656 L 63.7695 -47.2656 L 100.488 -47.2656 C 103.027 -47.2656 104.346 -46.1426 104.346 -43.4082 L 104.346 -8.39844 C 104.346 -7.86133 104.297 -7.32422 104.199 -6.83594 Z M 45.3613 9.32617 L 94.7754 9.32617 L 82.3242 -3.125 L 47.0703 -3.125 C 44.5312 -3.125 43.2617 -4.24805 43.2617 -6.98242 L 43.2617 -40.9668 C 43.2617 -41.3574 43.2617 -41.748 43.3105 -42.1387 L 32.4219 -52.9785 C 31.3477 -50.8789 30.7617 -48.291 30.7617 -45.2148 L 30.7617 -23.1445 L 26.0742 -23.1445 C 23.5352 -23.1445 22.2656 -24.2676 22.2656 -27.002 L 22.2656 -61.5723 C 22.2656 -62.1094 22.3145 -62.5977 22.4121 -63.0371 L 11.8164 -73.6816 C 10.4492 -71.3867 9.76562 -68.6035 9.76562 -65.2344 L 9.76562 -25.1953 C 9.76562 -15.918 15.0391 -10.6445 24.3652 -10.6445 L 30.7617 -10.6445 L 30.7617 -5.17578 C 30.7617 4.05273 36.084 9.32617 45.3613 9.32617 Z"/>
  </g>
  <g id="Bold-S" transform="matrix(1 0 0 1 2277.87 696)">
   <path d="M 106.641 14.209 C 107.959 15.5273 110.156 15.5762 111.475 14.209 C 112.744 12.8906 112.793 10.7422 111.475 9.375 L 17.5781 -84.4727 C 16.2109 -85.791 14.0137 -85.791 12.6953 -84.4727 C 11.377 -83.1543 11.377 -80.9082 12.6953 -79.6387 Z M 103.516 -6.00586 L 112.256 2.73438 C 113.721 0.585938 114.453 -2.24609 114.453 -5.71289 L 114.453 -45.2637 C 114.453 -54.1504 109.521 -59.0332 100.586 -59.0332 L 93.9453 -59.0332 L 93.9453 -64.6973 C 93.9453 -73.584 89.0625 -78.4668 80.127 -78.4668 L 31.0547 -78.4668 L 41.6504 -67.8711 L 78.9551 -67.8711 C 81.8359 -67.8711 83.3496 -66.4551 83.3496 -63.4277 L 83.3496 -59.0332 L 50.4883 -59.0332 L 61.084 -48.4375 L 99.4141 -48.4375 C 102.295 -48.4375 103.857 -47.0703 103.857 -43.9941 L 103.857 -7.91016 C 103.857 -7.17773 103.711 -6.54297 103.516 -6.00586 Z M 44.0918 8.05664 L 92.8223 8.05664 L 82.2266 -2.53906 L 45.2637 -2.53906 C 42.3828 -2.53906 40.8691 -3.95508 40.8691 -6.98242 L 40.8691 -42.3828 C 40.8691 -42.8711 40.918 -43.3594 40.9668 -43.7988 L 31.8848 -52.8809 C 30.8105 -50.8301 30.2246 -48.291 30.2246 -45.2637 L 30.2246 -21.9727 L 24.8047 -21.9727 C 21.9238 -21.9727 20.3613 -23.3398 20.3613 -26.416 L 20.3613 -62.207 C 20.3613 -62.9395 20.459 -63.5742 20.7031 -64.1113 L 11.8164 -72.998 C 10.4492 -70.8008 9.76562 -68.0664 9.76562 -64.6973 L 9.76562 -25.1465 C 9.76562 -16.2598 14.6484 -11.377 23.6328 -11.377 L 30.2246 -11.377 L 30.2246 -5.71289 C 30.2246 3.17383 35.1562 8.05664 44.0918 8.05664 Z"/>
  </g>
  <g id="Semibold-S" transform="matrix(1 0 0 1 1981.99 696)">
   <path d="M 105.322 13.623 C 106.641 14.9414 108.838 14.9414 110.107 13.623 C 111.377 12.3047 111.426 10.1562 110.107 8.83789 L 17.4316 -83.8379 C 16.0645 -85.1562 13.916 -85.1562 12.5488 -83.8379 C 11.2793 -82.5195 11.2793 -80.2734 12.5488 -79.0039 Z M 103.076 -5.41992 L 110.645 2.19727 C 112.061 0.0976562 112.793 -2.68555 112.793 -6.05469 L 112.793 -45.3125 C 112.793 -53.9551 108.154 -58.5449 99.4629 -58.5449 L 92.6758 -58.5449 L 92.6758 -64.3555 C 92.6758 -72.998 88.0371 -77.5879 79.3457 -77.5879 L 30.9082 -77.5879 L 40.2344 -68.2617 L 78.5645 -68.2617 C 81.6406 -68.2617 83.3496 -66.6992 83.3496 -63.3789 L 83.3496 -58.5449 L 49.9512 -58.5449 L 59.2285 -49.2188 L 98.6816 -49.2188 C 101.758 -49.2188 103.467 -47.6562 103.467 -44.3359 L 103.467 -7.61719 C 103.467 -6.73828 103.32 -6.00586 103.076 -5.41992 Z M 43.2129 7.17773 L 91.5039 7.17773 L 82.1777 -2.14844 L 43.9941 -2.14844 C 40.8691 -2.14844 39.209 -3.71094 39.209 -7.03125 L 39.209 -43.3105 C 39.209 -43.9453 39.2578 -44.4824 39.3555 -44.9707 L 31.543 -52.7832 C 30.4688 -50.8301 29.8828 -48.3398 29.8828 -45.3125 L 29.8828 -21.1914 L 23.877 -21.1914 C 20.752 -21.1914 19.0918 -22.7539 19.0918 -26.0254 L 19.0918 -62.5977 C 19.0918 -63.4766 19.2383 -64.209 19.5312 -64.8438 L 11.8652 -72.5098 C 10.4492 -70.4102 9.76562 -67.7246 9.76562 -64.3555 L 9.76562 -25.0977 C 9.76562 -16.4551 14.3555 -11.8652 23.0957 -11.8652 L 29.8828 -11.8652 L 29.8828 -6.05469 C 29.8828 2.58789 34.4727 7.17773 43.2129 7.17773 Z"/>
  </g>
  <g id="Medium-S" transform="matrix(1 0 0 1 1685.89 696)">
   <path d="M 104.297 13.1836 C 105.615 14.502 107.812 14.502 109.082 13.1836 C 110.352 11.8652 110.4 9.7168 109.082 8.39844 L 17.2852 -83.3496 C 15.9668 -84.668 13.8184 -84.668 12.5 -83.3496 C 11.1816 -82.0312 11.1816 -79.834 12.5 -78.5645 Z M 102.734 -4.93164 L 109.424 1.75781 C 110.84 -0.244141 111.572 -2.97852 111.572 -6.29883 L 111.572 -45.3613 C 111.572 -53.8086 107.129 -58.1543 98.584 -58.1543 L 91.6992 -58.1543 L 91.6992 -64.1113 C 91.6992 -72.5586 87.2559 -76.9043 78.7598 -76.9043 L 30.8105 -76.9043 L 39.1113 -68.6035 L 78.2715 -68.6035 C 81.543 -68.6035 83.3984 -66.8457 83.3984 -63.3789 L 83.3984 -58.1543 L 49.5605 -58.1543 L 57.8125 -49.8535 L 98.0957 -49.8535 C 101.367 -49.8535 103.223 -48.1445 103.223 -44.6289 L 103.223 -7.37305 C 103.223 -6.39648 103.027 -5.61523 102.734 -4.93164 Z M 42.5781 6.49414 L 90.4785 6.49414 L 82.1777 -1.80664 L 43.0664 -1.80664 C 39.7461 -1.80664 37.9395 -3.56445 37.9395 -7.03125 L 37.9395 -44.0918 C 37.9395 -44.7266 37.9883 -45.3125 38.1348 -45.8496 L 31.25 -52.7344 C 30.1758 -50.8301 29.5898 -48.3398 29.5898 -45.3613 L 29.5898 -20.5566 L 23.1934 -20.5566 C 19.9219 -20.5566 18.0664 -22.2656 18.0664 -25.7324 L 18.0664 -62.9395 C 18.0664 -63.916 18.2617 -64.7461 18.6035 -65.3809 L 11.8652 -72.168 C 10.4492 -70.1172 9.76562 -67.4316 9.76562 -64.1113 L 9.76562 -25.0488 C 9.76562 -16.6016 14.1602 -12.2559 22.7051 -12.2559 L 29.5898 -12.2559 L 29.5898 -6.29883 C 29.5898 2.14844 33.9844 6.49414 42.5781 6.49414 Z"/>
  </g>
  <g id="Regular-S" transform="matrix(1 0 0 1 1390.01 696)">
   <path d="M 102.979 12.5977 C 104.297 13.916 106.445 13.916 107.715 12.5977 C 109.033 11.2793 109.033 9.13086 107.715 7.86133 L 17.1387 -82.7148 C 15.8691 -83.9844 13.6719 -84.0332 12.3535 -82.7148 C 11.084 -81.4453 11.084 -79.1992 12.3535 -77.9297 Z M 102.246 -4.3457 L 107.861 1.2207 C 109.229 -0.683594 109.912 -3.36914 109.912 -6.64062 L 109.912 -45.4102 C 109.912 -53.6133 105.762 -57.666 97.4609 -57.666 L 90.4297 -57.666 L 90.4297 -63.7695 C 90.4297 -71.9727 86.2793 -76.0254 77.9785 -76.0254 L 30.6641 -76.0254 L 37.6953 -68.9941 L 77.8809 -68.9941 C 81.3965 -68.9941 83.3984 -67.0898 83.3984 -63.3789 L 83.3984 -57.666 L 49.0234 -57.666 L 56.0059 -50.6348 L 97.3633 -50.6348 C 100.879 -50.6348 102.881 -48.7305 102.881 -45.0195 L 102.881 -7.03125 C 102.881 -5.95703 102.637 -5.07812 102.246 -4.3457 Z M 41.6992 5.61523 L 89.1602 5.61523 L 82.1289 -1.41602 L 41.7969 -1.41602 C 38.2812 -1.41602 36.2793 -3.32031 36.2793 -7.03125 L 36.2793 -45.0195 C 36.2793 -45.8008 36.377 -46.3867 36.5723 -46.9727 L 30.8594 -52.6367 C 29.7852 -50.8301 29.248 -48.3887 29.248 -45.4102 L 29.248 -19.7754 L 22.3145 -19.7754 C 18.7988 -19.7754 16.7969 -21.6797 16.7969 -25.3906 L 16.7969 -63.3789 C 16.7969 -64.502 17.041 -65.3809 17.4316 -66.1133 L 11.9141 -71.6797 C 10.4492 -69.7266 9.76562 -67.0898 9.76562 -63.7695 L 9.76562 -25 C 9.76562 -16.7969 13.8672 -12.7441 22.2168 -12.7441 L 29.248 -12.7441 L 29.248 -6.64062 C 29.248 1.5625 33.3496 5.61523 41.6992 5.61523 Z"/>
  </g>
  <g id="Light-S" transform="matrix(1 0 0 1 1094.22 696)">
   <path d="M 101.416 10.8398 C 102.393 11.8652 104.102 11.8652 105.078 10.8398 C 106.104 9.81445 106.104 8.1543 105.078 7.12891 L 16.748 -81.1523 C 15.7227 -82.1777 14.0625 -82.2266 13.0371 -81.1523 C 12.0117 -80.1758 12.0117 -78.4668 13.0371 -77.4902 Z M 100.732 -3.36914 L 105.078 0.976562 C 107.031 -0.78125 108.057 -3.61328 108.057 -7.27539 L 108.057 -45.9473 C 108.057 -53.5645 104.102 -57.4219 96.4355 -57.4219 L 88.8672 -57.4219 L 88.8672 -63.0859 C 88.8672 -70.7031 84.9609 -74.6094 77.2461 -74.6094 L 29.4922 -74.6094 L 34.9121 -69.1895 L 77.1484 -69.1895 C 81.1523 -69.1895 83.4473 -67.041 83.4473 -62.8418 L 83.4473 -57.4219 L 46.6797 -57.4219 L 52.0508 -52.002 L 96.3379 -52.002 C 100.342 -52.002 102.637 -49.8535 102.637 -45.6543 L 102.637 -7.56836 C 102.637 -5.56641 101.953 -4.15039 100.732 -3.36914 Z M 40.5762 4.24805 L 88.5742 4.24805 L 83.1543 -1.17188 L 40.6738 -1.17188 C 36.6211 -1.17188 34.375 -3.36914 34.375 -7.56836 L 34.375 -45.6543 C 34.375 -47.0703 34.7168 -48.1934 35.3516 -49.0234 L 31.0059 -53.3691 C 29.6387 -51.5625 28.9551 -49.0723 28.9551 -45.9473 L 28.9551 -18.3594 L 21.4844 -18.3594 C 17.4316 -18.3594 15.1855 -20.5078 15.1855 -24.707 L 15.1855 -62.8418 C 15.1855 -64.8926 15.918 -66.3574 17.2363 -67.0898 L 12.9395 -71.4355 C 10.8398 -69.6777 9.76562 -66.8945 9.76562 -63.0859 L 9.76562 -24.4629 C 9.76562 -16.7969 13.6719 -12.9395 21.3867 -12.9395 L 28.9551 -12.9395 L 28.9551 -7.27539 C 28.9551 0.390625 32.8613 4.24805 40.5762 4.24805 Z"/>
  </g>
  <g id="Thin-S" transform="matrix(1 0 0 1 798.756 696)">
   <path d="M 99.2676 8.54492 C 99.9023 9.17969 100.977 9.17969 101.562 8.54492 C 102.295 7.86133 102.197 6.88477 101.562 6.25 L 16.1621 -79.1504 C 15.5762 -79.7363 14.5508 -79.834 13.8672 -79.1504 C 13.2324 -78.5156 13.2324 -77.4902 13.8672 -76.8555 Z M 98.6816 -2.00195 L 101.367 0.634766 C 104.15 -0.927734 105.566 -3.90625 105.566 -8.05664 L 105.566 -46.6309 C 105.566 -53.4668 101.953 -57.1289 95.0195 -57.1289 L 86.7676 -57.1289 L 86.7676 -62.2559 C 86.7676 -69.0918 83.1543 -72.7539 76.2207 -72.7539 L 27.9785 -72.7539 L 31.25 -69.4336 L 76.123 -69.4336 C 80.8105 -69.4336 83.4473 -66.9434 83.4473 -62.1094 L 83.4473 -57.1289 L 43.6035 -57.1289 L 46.875 -53.8086 L 94.9219 -53.8086 C 99.6094 -53.8086 102.295 -51.3184 102.295 -46.4355 L 102.295 -8.25195 C 102.295 -5.07812 100.977 -2.97852 98.6816 -2.00195 Z M 39.1113 2.44141 L 87.8418 2.44141 L 84.5215 -0.878906 L 39.209 -0.878906 C 34.4238 -0.878906 31.8848 -3.36914 31.8848 -8.25195 L 31.8848 -46.4355 C 31.8848 -48.8281 32.5195 -50.5371 33.7891 -51.6602 L 31.2012 -54.248 C 29.4922 -52.5391 28.5645 -50 28.5645 -46.6309 L 28.5645 -16.5039 L 20.4102 -16.5039 C 15.625 -16.5039 13.0859 -19.043 13.0859 -23.877 L 13.0859 -62.1094 C 13.0859 -65.4785 14.4043 -67.627 16.9922 -68.457 L 14.3555 -71.0938 C 11.3281 -69.6777 9.76562 -66.6504 9.76562 -62.2559 L 9.76562 -23.7305 C 9.76562 -16.7969 13.3789 -13.1836 20.3125 -13.1836 L 28.5645 -13.1836 L 28.5645 -8.05664 C 28.5645 -1.17188 32.1777 2.44141 39.1113 2.44141 Z"/>
  </g>
  <g id="Ultralight-S" transform="matrix(1 0 0 1 502.68 696)">
   <path d="M 98.1934 7.37305 C 98.6328 7.76367 99.3652 7.76367 99.7559 7.37305 C 100.293 6.88477 100.195 6.20117 99.7559 5.76172 L 15.8691 -78.125 C 15.4785 -78.5156 14.8438 -78.6133 14.3066 -78.125 C 13.8672 -77.6855 13.8672 -76.9531 14.3066 -76.5137 Z M 97.6562 -1.31836 L 99.4629 0.439453 C 102.637 -1.02539 104.297 -4.05273 104.297 -8.49609 L 104.297 -46.9727 C 104.297 -53.418 100.83 -56.9824 94.2871 -56.9824 L 85.6934 -56.9824 L 85.6934 -61.8164 C 85.6934 -68.2617 82.2266 -71.7773 75.6836 -71.7773 L 27.1973 -71.7773 L 29.3945 -69.5801 L 75.5859 -69.5801 C 80.6152 -69.5801 83.4961 -66.8945 83.4961 -61.7188 L 83.4961 -56.9824 L 41.9922 -56.9824 L 44.2383 -54.7852 L 94.1895 -54.7852 C 99.2188 -54.7852 102.1 -52.0508 102.1 -46.875 L 102.1 -8.59375 C 102.1 -4.78516 100.488 -2.34375 97.6562 -1.31836 Z M 38.3789 1.46484 L 87.4512 1.46484 L 85.2539 -0.732422 L 38.4766 -0.732422 C 33.252 -0.732422 30.5664 -3.41797 30.5664 -8.59375 L 30.5664 -46.875 C 30.5664 -49.707 31.3477 -51.7578 32.959 -53.0762 L 31.2988 -54.7363 C 29.3457 -53.0762 28.3691 -50.4883 28.3691 -46.9727 L 28.3691 -15.5273 L 19.873 -15.5273 C 14.6484 -15.5273 11.9629 -18.2617 11.9629 -23.4375 L 11.9629 -61.7188 C 11.9629 -65.7715 13.6719 -68.2617 16.8945 -69.1406 L 15.0879 -70.9473 C 11.5723 -69.6289 9.76562 -66.5527 9.76562 -61.8164 L 9.76562 -23.3398 C 9.76562 -16.7969 13.2324 -13.3301 19.7754 -13.3301 L 28.3691 -13.3301 L 28.3691 -8.49609 C 28.3691 -1.95312 31.8359 1.46484 38.3789 1.46484 Z"/>
  </g>
 </g>
</svg>
