<?xml version="1.0" encoding="UTF-8"?>
<!--Generator: Apple Native CoreSVG 148-->
<!DOCTYPE svg
PUBLIC "-//W3C//DTD SVG 1.1//EN"
       "http://www.w3.org/Graphics/SVG/1.1/DTD/svg11.dtd">
<svg version="1.1" xmlns="http://www.w3.org/2000/svg" xmlns:xlink="http://www.w3.org/1999/xlink" width="3300" height="2200">
 <!--glyph: "uni100910.medium", point size: 100.000000, font version: "Version 16.0d11e1", template writer version: "8"-->
 <g id="Notes">
  <rect height="2200" id="artboard" style="fill:white;opacity:1" width="3300" x="0" y="0"/>
  <line id="" style="fill:none;stroke:black;opacity:1;stroke-width:0.5;" x1="263" x2="3036" y1="292" y2="292"/>
  <text style="stroke:none;fill:black;font-family:-apple-system,&quot;SF Pro Display&quot;,&quot;SF Pro Text&quot;,Helvetica,sans-serif;font-weight:bold;" transform="matrix(1 0 0 1 263 322)">Weight/Scale Variations</text>
  <text style="stroke:none;fill:black;font-family:-apple-system,&quot;SF Pro Display&quot;,&quot;SF Pro Text&quot;,Helvetica,sans-serif;text-anchor:middle;" transform="matrix(1 0 0 1 559.711 322)">Ultralight</text>
  <text style="stroke:none;fill:black;font-family:-apple-system,&quot;SF Pro Display&quot;,&quot;SF Pro Text&quot;,Helvetica,sans-serif;text-anchor:middle;" transform="matrix(1 0 0 1 856.422 322)">Thin</text>
  <text style="stroke:none;fill:black;font-family:-apple-system,&quot;SF Pro Display&quot;,&quot;SF Pro Text&quot;,Helvetica,sans-serif;text-anchor:middle;" transform="matrix(1 0 0 1 1153.13 322)">Light</text>
  <text style="stroke:none;fill:black;font-family:-apple-system,&quot;SF Pro Display&quot;,&quot;SF Pro Text&quot;,Helvetica,sans-serif;text-anchor:middle;" transform="matrix(1 0 0 1 1449.84 322)">Regular</text>
  <text style="stroke:none;fill:black;font-family:-apple-system,&quot;SF Pro Display&quot;,&quot;SF Pro Text&quot;,Helvetica,sans-serif;text-anchor:middle;" transform="matrix(1 0 0 1 1746.56 322)">Medium</text>
  <text style="stroke:none;fill:black;font-family:-apple-system,&quot;SF Pro Display&quot;,&quot;SF Pro Text&quot;,Helvetica,sans-serif;text-anchor:middle;" transform="matrix(1 0 0 1 2043.27 322)">Semibold</text>
  <text style="stroke:none;fill:black;font-family:-apple-system,&quot;SF Pro Display&quot;,&quot;SF Pro Text&quot;,Helvetica,sans-serif;text-anchor:middle;" transform="matrix(1 0 0 1 2339.98 322)">Bold</text>
  <text style="stroke:none;fill:black;font-family:-apple-system,&quot;SF Pro Display&quot;,&quot;SF Pro Text&quot;,Helvetica,sans-serif;text-anchor:middle;" transform="matrix(1 0 0 1 2636.69 322)">Heavy</text>
  <text style="stroke:none;fill:black;font-family:-apple-system,&quot;SF Pro Display&quot;,&quot;SF Pro Text&quot;,Helvetica,sans-serif;text-anchor:middle;" transform="matrix(1 0 0 1 2933.4 322)">Black</text>
  <line id="" style="fill:none;stroke:black;opacity:1;stroke-width:0.5;" x1="263" x2="3036" y1="1903" y2="1903"/>
  <g id="" transform="matrix(1 0 0 1 263 1933)">
   <path d="M 9.24805 0.830078 C 13.5547 0.830078 17.1387 -2.74414 17.1387 -7.05078 C 17.1387 -11.3574 13.5449 -14.9316 9.23828 -14.9316 C 4.94141 -14.9316 1.36719 -11.3574 1.36719 -7.05078 C 1.36719 -2.74414 4.95117 0.830078 9.24805 0.830078 Z M 9.24805 -0.654297 C 5.70312 -0.654297 2.87109 -3.49609 2.87109 -7.05078 C 2.87109 -10.6055 5.69336 -13.4473 9.23828 -13.4473 C 12.793 -13.4473 15.6348 -10.6055 15.6445 -7.05078 C 15.6543 -3.49609 12.8027 -0.654297 9.24805 -0.654297 Z M 9.22852 -3.62305 C 9.69727 -3.62305 9.9707 -3.93555 9.9707 -4.45312 L 9.9707 -6.31836 L 12.002 -6.31836 C 12.5 -6.31836 12.832 -6.57227 12.832 -7.04102 C 12.832 -7.51953 12.5195 -7.7832 12.002 -7.7832 L 9.9707 -7.7832 L 9.9707 -9.81445 C 9.9707 -10.332 9.69727 -10.6543 9.22852 -10.6543 C 8.75977 -10.6543 8.50586 -10.3125 8.50586 -9.81445 L 8.50586 -7.7832 L 6.49414 -7.7832 C 5.97656 -7.7832 5.64453 -7.51953 5.64453 -7.04102 C 5.64453 -6.57227 5.99609 -6.31836 6.49414 -6.31836 L 8.50586 -6.31836 L 8.50586 -4.45312 C 8.50586 -3.95508 8.75977 -3.62305 9.22852 -3.62305 Z"/>
  </g>
  <g id="" transform="matrix(1 0 0 1 281.506 1933)">
   <path d="M 11.709 2.91016 C 17.1582 2.91016 21.6699 -1.61133 21.6699 -7.05078 C 21.6699 -12.5 17.1484 -17.0117 11.6992 -17.0117 C 6.25977 -17.0117 1.74805 -12.5 1.74805 -7.05078 C 1.74805 -1.61133 6.26953 2.91016 11.709 2.91016 Z M 11.709 1.25 C 7.09961 1.25 3.41797 -2.44141 3.41797 -7.05078 C 3.41797 -11.6602 7.08984 -15.3516 11.6992 -15.3516 C 16.3086 -15.3516 20 -11.6602 20.0098 -7.05078 C 20.0195 -2.44141 16.3184 1.25 11.709 1.25 Z M 11.6797 -2.66602 C 12.207 -2.66602 12.5098 -3.01758 12.5098 -3.59375 L 12.5098 -6.23047 L 15.3223 -6.23047 C 15.8691 -6.23047 16.25 -6.51367 16.25 -7.03125 C 16.25 -7.55859 15.8887 -7.86133 15.3223 -7.86133 L 12.5098 -7.86133 L 12.5098 -10.6836 C 12.5098 -11.25 12.207 -11.6113 11.6797 -11.6113 C 11.1621 -11.6113 10.8789 -11.2305 10.8789 -10.6836 L 10.8789 -7.86133 L 8.07617 -7.86133 C 7.50977 -7.86133 7.13867 -7.55859 7.13867 -7.03125 C 7.13867 -6.51367 7.5293 -6.23047 8.07617 -6.23047 L 10.8789 -6.23047 L 10.8789 -3.59375 C 10.8789 -3.03711 11.1621 -2.66602 11.6797 -2.66602 Z"/>
  </g>
  <g id="" transform="matrix(1 0 0 1 304.924 1933)">
   <path d="M 14.9707 5.66406 C 21.9336 5.66406 27.6953 -0.0976562 27.6953 -7.05078 C 27.6953 -14.0137 21.9238 -19.7754 14.9609 -19.7754 C 8.00781 -19.7754 2.25586 -14.0137 2.25586 -7.05078 C 2.25586 -0.0976562 8.01758 5.66406 14.9707 5.66406 Z M 14.9707 3.84766 C 8.93555 3.84766 4.08203 -1.01562 4.08203 -7.05078 C 4.08203 -13.0957 8.92578 -17.9492 14.9609 -17.9492 C 21.0059 -17.9492 25.8594 -13.0957 25.8691 -7.05078 C 25.8789 -1.01562 21.0156 3.84766 14.9707 3.84766 Z M 14.9414 -1.38672 C 15.5176 -1.38672 15.8594 -1.77734 15.8594 -2.38281 L 15.8594 -6.13281 L 19.7754 -6.13281 C 20.3711 -6.13281 20.7812 -6.46484 20.7812 -7.02148 C 20.7812 -7.59766 20.3906 -7.93945 19.7754 -7.93945 L 15.8594 -7.93945 L 15.8594 -11.8652 C 15.8594 -12.4805 15.5176 -12.8711 14.9414 -12.8711 C 14.375 -12.8711 14.0527 -12.4609 14.0527 -11.8652 L 14.0527 -7.93945 L 10.1465 -7.93945 C 9.53125 -7.93945 9.13086 -7.59766 9.13086 -7.02148 C 9.13086 -6.46484 9.55078 -6.13281 10.1465 -6.13281 L 14.0527 -6.13281 L 14.0527 -2.38281 C 14.0527 -1.79688 14.375 -1.38672 14.9414 -1.38672 Z"/>
  </g>
  <text style="stroke:none;fill:black;font-family:-apple-system,&quot;SF Pro Display&quot;,&quot;SF Pro Text&quot;,Helvetica,sans-serif;font-weight:bold;" transform="matrix(1 0 0 1 263 1953)">Design Variations</text>
  <text style="stroke:none;fill:black;font-family:-apple-system,&quot;SF Pro Display&quot;,&quot;SF Pro Text&quot;,Helvetica,sans-serif;" transform="matrix(1 0 0 1 263 1971)">Symbols are supported in up to nine weights and three scales.</text>
  <text style="stroke:none;fill:black;font-family:-apple-system,&quot;SF Pro Display&quot;,&quot;SF Pro Text&quot;,Helvetica,sans-serif;" transform="matrix(1 0 0 1 263 1989)">For optimal layout with text and other symbols, vertically align</text>
  <text style="stroke:none;fill:black;font-family:-apple-system,&quot;SF Pro Display&quot;,&quot;SF Pro Text&quot;,Helvetica,sans-serif;" transform="matrix(1 0 0 1 263 2007)">symbols with the adjacent text.</text>
  <line id="" style="fill:none;stroke:#00AEEF;stroke-width:0.5;opacity:1.0;" x1="776" x2="776" y1="1919" y2="1933"/>
  <g id="" transform="matrix(1 0 0 1 776 1933)">
   <path d="M 3.31055 0.126953 C 3.82812 0.126953 4.08203 -0.0683594 4.26758 -0.605469 L 5.52734 -4.0625 L 11.2891 -4.0625 L 12.5488 -0.605469 C 12.7344 -0.0683594 12.9883 0.126953 13.4961 0.126953 C 14.0137 0.126953 14.3457 -0.185547 14.3457 -0.673828 C 14.3457 -0.839844 14.3164 -0.986328 14.2383 -1.20117 L 9.6582 -13.3887 C 9.43359 -13.9941 9.0332 -14.2871 8.4082 -14.2871 C 7.80273 -14.2871 7.39258 -13.9941 7.17773 -13.3984 L 2.59766 -1.19141 C 2.51953 -0.976562 2.49023 -0.830078 2.49023 -0.664062 C 2.49023 -0.175781 2.80273 0.126953 3.31055 0.126953 Z M 6.00586 -5.53711 L 8.37891 -12.1094 L 8.42773 -12.1094 L 10.8008 -5.53711 Z"/>
  </g>
  <line id="" style="fill:none;stroke:#00AEEF;stroke-width:0.5;opacity:1.0;" x1="792.836" x2="792.836" y1="1919" y2="1933"/>
  <text style="stroke:none;fill:black;font-family:-apple-system,&quot;SF Pro Display&quot;,&quot;SF Pro Text&quot;,Helvetica,sans-serif;font-weight:bold;" transform="matrix(1 0 0 1 776 1953)">Margins</text>
  <text style="stroke:none;fill:black;font-family:-apple-system,&quot;SF Pro Display&quot;,&quot;SF Pro Text&quot;,Helvetica,sans-serif;" transform="matrix(1 0 0 1 776 1971)">Leading and trailing margins on the left and right side of each symbol</text>
  <text style="stroke:none;fill:black;font-family:-apple-system,&quot;SF Pro Display&quot;,&quot;SF Pro Text&quot;,Helvetica,sans-serif;" transform="matrix(1 0 0 1 776 1989)">can be adjusted by modifying the x-location of the margin guidelines.</text>
  <text style="stroke:none;fill:black;font-family:-apple-system,&quot;SF Pro Display&quot;,&quot;SF Pro Text&quot;,Helvetica,sans-serif;" transform="matrix(1 0 0 1 776 2007)">Modifications are automatically applied proportionally to all</text>
  <text style="stroke:none;fill:black;font-family:-apple-system,&quot;SF Pro Display&quot;,&quot;SF Pro Text&quot;,Helvetica,sans-serif;" transform="matrix(1 0 0 1 776 2025)">scales and weights.</text>
  <g id="" transform="matrix(1 0 0 1 1289 1933)">
   <path d="M 2.8418 1.86523 L 4.54102 3.57422 C 5.40039 4.44336 6.38672 4.38477 7.31445 3.35938 L 17.4902 -7.85156 C 17.7539 -7.76367 18.0273 -7.7832 18.3398 -7.8418 L 19.4043 -8.03711 L 20.0684 -7.36328 L 20.0293 -6.80664 C 19.9902 -6.30859 20.1172 -5.92773 20.6055 -5.44922 L 21.3672 -4.70703 C 21.8457 -4.22852 22.4609 -4.19922 22.9297 -4.66797 L 25.8398 -7.58789 C 26.3086 -8.05664 26.2891 -8.65234 25.8105 -9.13086 L 25.0391 -9.89258 C 24.5605 -10.3711 24.1895 -10.5273 23.7109 -10.4883 L 23.1348 -10.4395 L 22.4902 -11.0742 L 22.7344 -12.1973 C 22.8613 -12.7637 22.7051 -13.2031 22.1191 -13.7891 L 19.9219 -15.9766 C 16.582 -19.2969 12.1484 -19.2188 9.25781 -16.3281 C 8.83789 -15.918 8.80859 -15.3418 9.04297 -14.9512 C 9.27734 -14.5898 9.73633 -14.3555 10.3809 -14.5215 C 11.8457 -14.8633 13.3691 -14.9219 14.7949 -13.9844 L 14.209 -12.5293 C 14.0137 -12.0508 13.9844 -11.6504 14.1113 -11.2891 L 3.04688 -0.898438 C 2.06055 0.0195312 1.98242 0.996094 2.8418 1.86523 Z M 10.752 -15.957 C 13.1836 -17.7344 16.4746 -17.4316 18.7012 -15.2051 L 21.1328 -12.793 C 21.3672 -12.5586 21.4062 -12.373 21.3379 -12.0312 L 21.0156 -10.5469 L 22.5195 -9.0625 L 23.5059 -9.12109 C 23.7598 -9.13086 23.8379 -9.11133 24.0332 -8.91602 L 24.6094 -8.33984 L 22.168 -5.89844 L 21.5918 -6.47461 C 21.3965 -6.66992 21.3672 -6.74805 21.377 -7.01172 L 21.4453 -7.98828 L 19.9512 -9.47266 L 18.4277 -9.21875 C 18.1055 -9.15039 17.959 -9.17969 17.7148 -9.41406 L 15.7129 -11.416 C 15.459 -11.6504 15.4297 -11.8164 15.5859 -12.1875 L 16.4648 -14.2773 C 14.9023 -15.7324 12.8711 -16.3574 10.8398 -15.7617 C 10.6836 -15.7227 10.625 -15.8496 10.752 -15.957 Z M 5.27344 2.30469 L 4.10156 1.14258 C 3.63281 0.683594 3.74023 0.341797 4.14062 -0.0195312 L 14.9512 -10.1953 L 16.416 -8.71094 L 6.42578 2.27539 C 6.07422 2.67578 5.74219 2.77344 5.27344 2.30469 Z"/>
  </g>
  <text style="stroke:none;fill:black;font-family:-apple-system,&quot;SF Pro Display&quot;,&quot;SF Pro Text&quot;,Helvetica,sans-serif;font-weight:bold;" transform="matrix(1 0 0 1 1289 1953)">Exporting</text>
  <text style="stroke:none;fill:black;font-family:-apple-system,&quot;SF Pro Display&quot;,&quot;SF Pro Text&quot;,Helvetica,sans-serif;" transform="matrix(1 0 0 1 1289 1971)">Symbols should be outlined when exporting to ensure the</text>
  <text style="stroke:none;fill:black;font-family:-apple-system,&quot;SF Pro Display&quot;,&quot;SF Pro Text&quot;,Helvetica,sans-serif;" transform="matrix(1 0 0 1 1289 1989)">design is preserved when submitting to Xcode.</text>
  <text id="template-version" style="stroke:none;fill:black;font-family:-apple-system,&quot;SF Pro Display&quot;,&quot;SF Pro Text&quot;,Helvetica,sans-serif;text-anchor:end;" transform="matrix(1 0 0 1 3036 1933)">Template v.2.0</text>
  <text style="stroke:none;fill:black;font-family:-apple-system,&quot;SF Pro Display&quot;,&quot;SF Pro Text&quot;,Helvetica,sans-serif;text-anchor:end;" transform="matrix(1 0 0 1 3036 1951)">Requires Xcode 12 or greater</text>
  <text style="stroke:none;fill:black;font-family:-apple-system,&quot;SF Pro Display&quot;,&quot;SF Pro Text&quot;,Helvetica,sans-serif;text-anchor:end;" transform="matrix(1 0 0 1 3036 1969)">Generated from scroll.fill</text>
  <text style="stroke:none;fill:black;font-family:-apple-system,&quot;SF Pro Display&quot;,&quot;SF Pro Text&quot;,Helvetica,sans-serif;text-anchor:end;" transform="matrix(1 0 0 1 3036 1987)">Typeset at 100 points</text>
  <text style="stroke:none;fill:black;font-family:-apple-system,&quot;SF Pro Display&quot;,&quot;SF Pro Text&quot;,Helvetica,sans-serif;" transform="matrix(1 0 0 1 263 726)">Small</text>
  <text style="stroke:none;fill:black;font-family:-apple-system,&quot;SF Pro Display&quot;,&quot;SF Pro Text&quot;,Helvetica,sans-serif;" transform="matrix(1 0 0 1 263 1156)">Medium</text>
  <text style="stroke:none;fill:black;font-family:-apple-system,&quot;SF Pro Display&quot;,&quot;SF Pro Text&quot;,Helvetica,sans-serif;" transform="matrix(1 0 0 1 263 1586)">Large</text>
 </g>
 <g id="Guides">
  <g id="H-reference" style="fill:#27AAE1;stroke:none;" transform="matrix(1 0 0 1 339 696)">
   <path d="M 0.976562 0 L 3.66211 0 L 12.9883 -24.4629 L 45.7031 -24.4629 L 55.0781 0 L 57.7148 0 L 30.6152 -70.459 L 28.125 -70.459 Z M 29.2969 -67.1387 L 29.3945 -67.1387 L 44.873 -26.709 L 13.8672 -26.709 Z"/>
  </g>
  <line id="Baseline-S" style="fill:none;stroke:#27AAE1;opacity:1;stroke-width:0.5;" x1="263" x2="3036" y1="696" y2="696"/>
  <line id="Capline-S" style="fill:none;stroke:#27AAE1;opacity:1;stroke-width:0.5;" x1="263" x2="3036" y1="625.541" y2="625.541"/>
  <g id="H-reference" style="fill:#27AAE1;stroke:none;" transform="matrix(1 0 0 1 339 1126)">
   <path d="M 0.976562 0 L 3.66211 0 L 12.9883 -24.4629 L 45.7031 -24.4629 L 55.0781 0 L 57.7148 0 L 30.6152 -70.459 L 28.125 -70.459 Z M 29.2969 -67.1387 L 29.3945 -67.1387 L 44.873 -26.709 L 13.8672 -26.709 Z"/>
  </g>
  <line id="Baseline-M" style="fill:none;stroke:#27AAE1;opacity:1;stroke-width:0.5;" x1="263" x2="3036" y1="1126" y2="1126"/>
  <line id="Capline-M" style="fill:none;stroke:#27AAE1;opacity:1;stroke-width:0.5;" x1="263" x2="3036" y1="1055.54" y2="1055.54"/>
  <g id="H-reference" style="fill:#27AAE1;stroke:none;" transform="matrix(1 0 0 1 339 1556)">
   <path d="M 0.976562 0 L 3.66211 0 L 12.9883 -24.4629 L 45.7031 -24.4629 L 55.0781 0 L 57.7148 0 L 30.6152 -70.459 L 28.125 -70.459 Z M 29.2969 -67.1387 L 29.3945 -67.1387 L 44.873 -26.709 L 13.8672 -26.709 Z"/>
  </g>
  <line id="Baseline-L" style="fill:none;stroke:#27AAE1;opacity:1;stroke-width:0.5;" x1="263" x2="3036" y1="1556" y2="1556"/>
  <line id="Capline-L" style="fill:none;stroke:#27AAE1;opacity:1;stroke-width:0.5;" x1="263" x2="3036" y1="1485.54" y2="1485.54"/>
  <line id="left-margin" style="fill:none;stroke:#00AEEF;stroke-width:0.5;opacity:1.0;" x1="1385.56" x2="1385.56" y1="1030.79" y2="1150.12"/>
  <line id="right-margin" style="fill:none;stroke:#00AEEF;stroke-width:0.5;opacity:1.0;" x1="1514.13" x2="1514.13" y1="1030.79" y2="1150.12"/>
 </g>
 <g id="Symbols">
  <g id="Black-L" transform="matrix(1 0 0 1 2844.56 1556)">
   <path d="M 34.6191 -105.664 C 38.5254 -103.76 40.0879 -100.488 40.0879 -95.0195 L 40.0879 16.6504 C 40.0879 24.7559 44.8242 28.8574 50.4395 28.8574 C 56.0547 28.8574 60.8398 24.5117 60.8398 16.7969 L 60.8398 -3.56445 C 60.8398 -14.6484 66.9922 -20.9473 78.1738 -20.9473 L 146.094 -20.9473 L 146.094 -81.7383 C 146.094 -96.9727 137.5 -105.664 122.266 -105.664 Z M 16.0645 -71.2891 C 16.0645 -65.332 20.3125 -61.1328 26.3672 -61.1328 L 28.7109 -61.1328 L 28.7109 -87.5 C 28.7109 -91.4551 26.2207 -94.043 22.4121 -94.043 C 18.6035 -94.043 16.0645 -91.4551 16.0645 -87.5 Z M 67.9688 -70.0684 C 67.9688 -72.5586 69.873 -74.5117 72.5098 -74.5117 L 112.939 -74.5117 C 115.527 -74.5117 117.432 -72.5586 117.432 -70.0684 C 117.432 -67.4805 115.527 -65.4785 112.939 -65.4785 L 72.5098 -65.4785 C 69.873 -65.4785 67.9688 -67.4805 67.9688 -70.0684 Z M 67.9688 -49.9023 C 67.9688 -52.4902 69.873 -54.4922 72.5098 -54.4922 L 95.2637 -54.4922 C 97.8516 -54.4922 99.7559 -52.4902 99.7559 -49.9023 C 99.7559 -47.4121 97.8516 -45.5078 95.2637 -45.5078 L 72.5098 -45.5078 C 69.873 -45.5078 67.9688 -47.4121 67.9688 -49.9023 Z M 65.4785 35.2539 L 137.891 35.2539 C 152.002 35.2539 161.621 30.6641 161.621 16.1133 L 161.621 0.634766 C 161.621 -5.37109 157.373 -9.52148 151.318 -9.52148 L 82.5684 -9.52148 C 76.5137 -9.52148 72.2168 -5.37109 72.2168 0.634766 L 72.2168 15.8203 C 72.2168 24.3164 70.459 30.5176 65.4785 35.2539 Z"/>
  </g>
  <g id="Heavy-L" transform="matrix(1 0 0 1 2549.46 1556)">
   <path d="M 33.9844 -104.639 C 38.1348 -102.637 39.7461 -99.3164 39.7461 -93.5547 L 39.7461 16.1133 C 39.7461 24.3652 44.5801 28.6133 50.6348 28.6133 C 56.5918 28.6133 61.4258 24.2188 61.4258 16.3086 L 61.4258 -3.32031 C 61.4258 -13.623 66.9922 -19.4336 77.3926 -19.4336 L 143.604 -19.4336 L 143.604 -81.9336 C 143.604 -96.5332 135.547 -104.639 120.947 -104.639 Z M 16.0645 -71.3867 C 16.0645 -66.0156 19.8242 -62.3047 25.293 -62.3047 L 29.1992 -62.3047 L 29.1992 -87.1582 C 29.1992 -91.1621 26.5137 -93.7988 22.6562 -93.7988 C 18.8477 -93.8477 16.0645 -91.1621 16.0645 -87.1582 Z M 66.4551 -69.9707 C 66.4551 -72.3145 68.2617 -74.1211 70.8008 -74.1211 L 112.402 -74.1211 C 114.795 -74.1211 116.65 -72.3145 116.65 -69.9707 C 116.65 -67.5293 114.795 -65.625 112.402 -65.625 L 70.8008 -65.625 C 68.2617 -65.625 66.4551 -67.5293 66.4551 -69.9707 Z M 66.4551 -49.3164 C 66.4551 -51.7578 68.2617 -53.6133 70.8008 -53.6133 L 93.7012 -53.6133 C 96.0938 -53.6133 97.9492 -51.7578 97.9492 -49.3164 C 97.9492 -46.9727 96.0938 -45.166 93.7012 -45.166 L 70.8008 -45.166 C 68.2617 -45.166 66.4551 -46.9727 66.4551 -49.3164 Z M 65.0391 34.2285 L 135.742 34.2285 C 149.268 34.2285 158.398 28.8574 158.398 14.9414 L 158.398 0.195312 C 158.398 -5.17578 154.639 -8.83789 149.17 -8.83789 L 81.2012 -8.83789 C 75.7324 -8.83789 71.9727 -5.17578 71.9727 0.195312 L 71.9727 15.1855 C 71.9727 23.4375 70.2148 29.5898 65.0391 34.2285 Z"/>
  </g>
  <g id="Bold-L" transform="matrix(1 0 0 1 2254.55 1556)">
   <path d="M 33.3008 -103.564 C 37.7441 -101.367 39.3555 -97.9492 39.3555 -91.9434 L 39.3555 15.4785 C 39.3555 23.9258 44.3848 28.418 50.8789 28.418 C 57.1777 28.418 62.0605 23.877 62.0605 15.7715 L 62.0605 -3.07617 C 62.0605 -12.5 67.041 -17.6758 76.5137 -17.6758 L 140.82 -17.6758 L 140.82 -82.0801 C 140.82 -95.9961 133.35 -103.564 119.482 -103.564 Z M 16.0645 -71.4844 C 16.0645 -66.7969 19.2871 -63.6719 24.0723 -63.6719 L 29.7363 -63.6719 L 29.7363 -86.7676 C 29.7363 -90.8203 26.8066 -93.5547 22.9492 -93.5547 C 19.0918 -93.6035 16.0645 -90.8691 16.0645 -86.7676 Z M 64.7949 -69.8242 C 64.7949 -72.0215 66.5039 -73.6816 68.8477 -73.6816 L 111.719 -73.6816 C 114.014 -73.6816 115.723 -72.0215 115.723 -69.8242 C 115.723 -67.5781 114.014 -65.8203 111.719 -65.8203 L 68.8477 -65.8203 C 66.5039 -65.8203 64.7949 -67.5781 64.7949 -69.8242 Z M 64.7949 -48.6328 C 64.7949 -50.8789 66.5039 -52.6855 68.8477 -52.6855 L 91.8945 -52.6855 C 94.1895 -52.6855 95.8496 -50.8789 95.8496 -48.6328 C 95.8496 -46.4844 94.1895 -44.7754 91.8945 -44.7754 L 68.8477 -44.7754 C 66.5039 -44.7754 64.7949 -46.4844 64.7949 -48.6328 Z M 64.5508 33.0566 L 133.35 33.0566 C 146.191 33.0566 154.785 26.8555 154.785 13.5742 L 154.785 -0.244141 C 154.785 -4.93164 151.562 -8.10547 146.777 -8.10547 L 79.6875 -8.10547 C 74.9023 -8.10547 71.6797 -4.93164 71.6797 -0.244141 L 71.6797 14.4531 C 71.6797 22.4609 69.9219 28.5645 64.5508 33.0566 Z"/>
  </g>
  <g id="Semibold-L" transform="matrix(1 0 0 1 1959.09 1556)">
   <path d="M 32.8613 -102.783 C 37.4512 -100.488 39.0625 -97.0215 39.0625 -90.8691 L 39.0625 15.0879 C 39.0625 23.6328 44.1895 28.2227 51.0742 28.2227 C 57.5684 28.2227 62.5488 23.6328 62.5488 15.3809 L 62.5488 -2.92969 C 62.5488 -11.7188 67.041 -16.5039 75.8789 -16.5039 L 138.867 -16.5039 L 138.867 -82.2266 C 138.867 -95.6543 131.836 -102.783 118.506 -102.783 Z M 16.0645 -71.582 C 16.0645 -67.3828 18.8965 -64.5508 23.2422 -64.5508 L 30.127 -64.5508 L 30.127 -86.5234 C 30.127 -90.625 27.002 -93.4082 23.1445 -93.4082 C 19.2871 -93.4082 16.0645 -90.6738 16.0645 -86.5234 Z M 63.6719 -69.7266 C 63.6719 -71.7773 65.2832 -73.3887 67.4805 -73.3887 L 111.279 -73.3887 C 113.428 -73.3887 115.039 -71.7773 115.039 -69.7266 C 115.039 -67.5781 113.428 -65.918 111.279 -65.918 L 67.4805 -65.918 C 65.2832 -65.918 63.6719 -67.5781 63.6719 -69.7266 Z M 63.6719 -48.1934 C 63.6719 -50.3418 65.2832 -52.002 67.4805 -52.002 L 90.6738 -52.002 C 92.8223 -52.002 94.4336 -50.3418 94.4336 -48.1934 C 94.4336 -46.1426 92.8223 -44.5312 90.6738 -44.5312 L 67.4805 -44.5312 C 65.2832 -44.5312 63.6719 -46.1426 63.6719 -48.1934 Z M 64.209 32.2754 L 131.689 32.2754 C 144.043 32.2754 152.295 25.4883 152.295 12.6465 L 152.295 -0.585938 C 152.295 -4.78516 149.463 -7.56836 145.166 -7.56836 L 78.6133 -7.56836 C 74.3164 -7.56836 71.4844 -4.78516 71.4844 -0.585938 L 71.4844 13.9648 C 71.4844 21.8262 69.7266 27.8809 64.209 32.2754 Z"/>
  </g>
  <g id="Medium-L" transform="matrix(1 0 0 1 1663.3 1556)">
   <path d="M 32.5195 -102.197 C 37.207 -99.8535 38.8672 -96.2891 38.8672 -90.0391 L 38.8672 14.7461 C 38.8672 23.3887 44.0918 28.125 51.1719 28.125 C 57.8613 28.125 62.8906 23.4863 62.8906 15.1367 L 62.8906 -2.7832 C 62.8906 -11.084 67.041 -15.625 75.4395 -15.625 L 137.451 -15.625 L 137.451 -82.3242 C 137.451 -95.3613 130.713 -102.197 117.725 -102.197 Z M 16.0645 -71.6309 C 16.0645 -67.7734 18.6523 -65.2832 22.6074 -65.2832 L 30.4199 -65.2832 L 30.4199 -86.2793 C 30.4199 -90.4297 27.1484 -93.2617 23.291 -93.2617 C 19.3848 -93.3105 16.0645 -90.4785 16.0645 -86.2793 Z M 62.793 -69.6289 C 62.793 -71.6309 64.3555 -73.1934 66.4551 -73.1934 L 110.986 -73.1934 C 113.037 -73.1934 114.6 -71.6309 114.6 -69.6289 C 114.6 -67.627 113.037 -66.0156 110.986 -66.0156 L 66.4551 -66.0156 C 64.3555 -66.0156 62.793 -67.627 62.793 -69.6289 Z M 62.793 -47.8516 C 62.793 -49.9023 64.3555 -51.5137 66.4551 -51.5137 L 89.7461 -51.5137 C 91.7969 -51.5137 93.3594 -49.9023 93.3594 -47.8516 C 93.3594 -45.8496 91.7969 -44.3359 89.7461 -44.3359 L 66.4551 -44.3359 C 64.3555 -44.3359 62.793 -45.8496 62.793 -47.8516 Z M 63.916 31.6895 L 130.469 31.6895 C 142.48 31.6895 150.439 24.4141 150.439 11.9629 L 150.439 -0.830078 C 150.439 -4.6875 147.852 -7.17773 143.896 -7.17773 L 77.832 -7.17773 C 73.877 -7.17773 71.2891 -4.6875 71.2891 -0.830078 L 71.2891 13.5742 C 71.2891 21.2891 69.5801 27.3438 63.916 31.6895 Z"/>
  </g>
  <g id="Regular-L" transform="matrix(1 0 0 1 1367.84 1556)">
   <path d="M 32.0312 -101.416 C 36.9141 -98.9746 38.623 -95.3613 38.623 -88.916 L 38.623 14.3555 C 38.623 23.0957 43.9453 27.9297 51.3672 27.9297 C 58.252 27.9297 63.3301 23.2422 63.3301 14.7461 L 63.3301 -2.63672 C 63.3301 -10.3027 67.0898 -14.4531 74.8047 -14.4531 L 135.547 -14.4531 L 135.547 -82.4219 C 135.547 -95.0195 129.199 -101.416 116.699 -101.416 Z M 16.0645 -71.6797 C 16.0645 -68.3105 18.2617 -66.1621 21.7773 -66.1621 L 30.8105 -66.1621 L 30.8105 -86.0352 C 30.8105 -90.2344 27.3438 -93.1152 23.4863 -93.1152 C 19.5801 -93.1152 16.0645 -90.2832 16.0645 -86.0352 Z M 61.6699 -69.5312 C 61.6699 -71.4355 63.1348 -72.9004 65.1367 -72.9004 L 110.547 -72.9004 C 112.5 -72.9004 113.965 -71.4355 113.965 -69.5312 C 113.965 -67.627 112.5 -66.1133 110.547 -66.1133 L 65.1367 -66.1133 C 63.1348 -66.1133 61.6699 -67.627 61.6699 -69.5312 Z M 61.6699 -47.4121 C 61.6699 -49.3164 63.1348 -50.8301 65.1367 -50.8301 L 88.5254 -50.8301 C 90.4785 -50.8301 91.9434 -49.3164 91.9434 -47.4121 C 91.9434 -45.5078 90.4785 -44.043 88.5254 -44.043 L 65.1367 -44.043 C 63.1348 -44.043 61.6699 -45.5078 61.6699 -47.4121 Z M 63.5742 30.9082 L 128.809 30.9082 C 140.381 30.9082 147.949 23.0469 147.949 11.0352 L 147.949 -1.12305 C 147.949 -4.54102 145.752 -6.68945 142.285 -6.68945 L 76.8066 -6.68945 C 73.291 -6.68945 71.0938 -4.54102 71.0938 -1.12305 L 71.0938 13.0859 C 71.0938 20.6543 69.3848 26.6113 63.5742 30.9082 Z"/>
  </g>
  <g id="Light-L" transform="matrix(1 0 0 1 1072.42 1556)">
   <path d="M 31.5918 -100.439 C 36.377 -98.3887 38.2324 -94.9707 38.2324 -88.8672 L 38.2324 13.2324 C 38.2324 21.6797 43.8477 26.2207 50.8301 26.2207 C 57.4219 26.2207 62.8418 21.7773 62.8418 13.4766 L 62.8418 -3.90625 C 62.8418 -10.4492 66.3574 -14.1602 72.9492 -14.1602 L 133.691 -14.1602 L 133.691 -82.4219 C 133.691 -94.2871 127.588 -100.439 115.82 -100.439 Z M 16.0645 -71.6797 C 16.0645 -68.8965 17.8223 -67.1875 20.752 -67.1875 L 31.543 -67.1875 L 31.543 -86.3281 C 31.543 -90.8203 27.832 -93.5547 23.9258 -93.5547 C 19.873 -93.6035 16.0645 -90.918 16.0645 -86.3281 Z M 59.5703 -69.9219 C 59.5703 -71.3867 60.7422 -72.6074 62.3535 -72.6074 L 110.498 -72.6074 C 112.109 -72.6074 113.281 -71.3867 113.281 -69.9219 C 113.281 -68.3594 112.109 -67.1387 110.498 -67.1387 L 62.3535 -67.1387 C 60.7422 -67.1387 59.5703 -68.3594 59.5703 -69.9219 Z M 59.5703 -47.6562 C 59.5703 -49.2188 60.7422 -50.4395 62.3535 -50.4395 L 86.8164 -50.4395 C 88.3789 -50.4395 89.5996 -49.2188 89.5996 -47.6562 C 89.5996 -46.1914 88.3789 -44.9707 86.8164 -44.9707 L 62.3535 -44.9707 C 60.7422 -44.9707 59.5703 -46.1914 59.5703 -47.6562 Z M 59.9609 29.8828 L 127.246 29.8828 C 138.232 29.8828 145.361 22.5098 145.361 11.0352 L 145.361 -2.97852 C 145.361 -5.81055 143.604 -7.51953 140.674 -7.51953 L 74.1699 -7.51953 C 71.2402 -7.51953 69.4824 -5.81055 69.4824 -2.97852 L 69.4824 13.7695 C 69.4824 21.7285 66.7969 27.1973 59.9609 29.8828 Z"/>
  </g>
  <g id="Thin-L" transform="matrix(1 0 0 1 777.418 1556)">
   <path d="M 31.0059 -99.0723 C 35.6934 -97.5586 37.7441 -94.4336 37.7441 -88.8184 L 37.7441 11.7188 C 37.7441 19.8242 43.75 23.9746 50.0977 23.9746 C 56.25 23.9746 62.1582 19.8242 62.1582 11.7676 L 62.1582 -5.61523 C 62.1582 -10.5957 65.4297 -13.8184 70.459 -13.8184 L 131.25 -13.8184 L 131.25 -82.4707 C 131.25 -93.3594 125.488 -99.0723 114.648 -99.0723 Z M 16.0645 -71.6797 C 16.0645 -69.6289 17.1875 -68.5059 19.3848 -68.5059 L 32.5195 -68.5059 L 32.5195 -86.7188 C 32.5195 -91.6016 28.5156 -94.1895 24.4629 -94.1895 C 20.2148 -94.2871 16.0645 -91.748 16.0645 -86.7188 Z M 56.7871 -70.3613 C 56.7871 -71.3867 57.5684 -72.2168 58.6914 -72.2168 L 110.498 -72.2168 C 111.572 -72.2168 112.402 -71.3867 112.402 -70.3613 C 112.402 -69.3359 111.572 -68.5059 110.498 -68.5059 L 58.6914 -68.5059 C 57.5684 -68.5059 56.7871 -69.3359 56.7871 -70.3613 Z M 56.7871 -48.0469 C 56.7871 -49.0723 57.5684 -49.9023 58.6914 -49.9023 L 84.5215 -49.9023 C 85.6445 -49.9023 86.4746 -49.0723 86.4746 -48.0469 C 86.4746 -47.0215 85.6445 -46.1914 84.5215 -46.1914 L 58.6914 -46.1914 C 57.5684 -46.1914 56.7871 -47.0215 56.7871 -48.0469 Z M 55.127 28.5156 L 125.195 28.5156 C 135.449 28.5156 141.943 21.7773 141.943 11.0352 L 141.943 -5.41992 C 141.943 -7.4707 140.82 -8.59375 138.623 -8.59375 L 70.7031 -8.59375 C 68.5059 -8.59375 67.3828 -7.4707 67.3828 -5.41992 L 67.3828 14.7461 C 67.3828 23.1934 63.3301 27.9297 55.127 28.5156 Z"/>
  </g>
  <g id="Ultralight-L" transform="matrix(1 0 0 1 481.586 1556)">
   <path d="M 30.7129 -98.3887 C 35.3516 -97.168 37.5 -94.1406 37.5 -88.8184 L 37.5 10.9375 C 37.5 18.8965 43.7012 22.8027 49.7559 22.8027 C 55.6641 22.8027 61.8164 18.8477 61.8164 10.8887 L 61.8164 -6.49414 C 61.8164 -10.6934 64.9902 -13.623 69.1895 -13.623 L 129.98 -13.623 L 129.98 -82.4707 C 129.98 -92.8711 124.414 -98.3887 114.062 -98.3887 Z M 16.0645 -71.6797 C 16.0645 -70.0195 16.8945 -69.2383 18.7012 -69.2383 L 33.0566 -69.2383 L 33.0566 -86.9141 C 33.0566 -91.9922 28.8574 -94.5312 24.707 -94.5312 C 20.4102 -94.6289 16.0645 -92.1875 16.0645 -86.9141 Z M 55.3223 -70.6055 C 55.3223 -71.3867 55.957 -72.0215 56.8359 -72.0215 L 110.449 -72.0215 C 111.328 -72.0215 111.963 -71.3867 111.963 -70.6055 C 111.963 -69.873 111.328 -69.2383 110.449 -69.2383 L 56.8359 -69.2383 C 55.957 -69.2383 55.3223 -69.873 55.3223 -70.6055 Z M 55.3223 -48.2422 C 55.3223 -48.9746 55.957 -49.6094 56.8359 -49.6094 L 83.3984 -49.6094 C 84.2285 -49.6094 84.8633 -48.9746 84.8633 -48.2422 C 84.8633 -47.4609 84.2285 -46.8262 83.3984 -46.8262 L 56.8359 -46.8262 C 55.957 -46.8262 55.3223 -47.4609 55.3223 -48.2422 Z M 52.6855 27.832 C 53.4668 27.8809 54.248 27.8809 54.9805 27.832 L 124.121 27.832 C 133.984 27.832 140.186 21.3867 140.186 11.0352 L 140.186 -6.68945 C 140.186 -8.34961 139.355 -9.17969 137.549 -9.17969 L 68.9453 -9.17969 C 67.0898 -9.17969 66.2598 -8.34961 66.2598 -6.68945 L 66.2598 15.2344 C 66.2598 23.1445 62.3535 27.4414 54.9805 27.832 Z"/>
  </g>
  <g id="Black-M" transform="matrix(1 0 0 1 2863.06 1126)">
   <path d="M 27.3926 -90.625 C 30.127 -89.502 31.3477 -87.207 31.3477 -83.4473 L 31.3477 5.07812 C 31.3477 11.0352 34.9609 13.8184 38.5254 13.8184 C 42.2852 13.8184 46.0938 10.6934 46.0938 5.07812 L 46.0938 -11.6699 C 46.0938 -20.752 51.5137 -26.0742 60.6445 -26.0742 L 115.625 -26.0742 L 115.625 -71.0938 C 115.625 -83.3496 108.35 -90.625 96.0938 -90.625 Z M 12.4512 -63.0371 C 12.4512 -57.9102 16.1621 -54.248 21.3867 -54.248 L 21.9727 -54.248 L 21.9727 -76.3672 C 21.9727 -79.4922 20.2148 -81.3477 17.2363 -81.3477 C 14.2578 -81.3477 12.4512 -79.4922 12.4512 -76.3672 Z M 53.5156 -62.5977 C 53.5156 -64.502 55.0293 -66.0156 57.0801 -66.0156 L 88.2812 -66.0156 C 90.2832 -66.0156 91.7969 -64.502 91.7969 -62.5977 C 91.7969 -60.5957 90.2832 -59.0332 88.2812 -59.0332 L 57.0801 -59.0332 C 55.0293 -59.0332 53.5156 -60.5957 53.5156 -62.5977 Z M 53.5156 -47.5586 C 53.5156 -49.5605 55.0293 -51.123 57.0801 -51.123 L 75.0488 -51.123 C 77.0508 -51.123 78.5645 -49.5605 78.5645 -47.5586 C 78.5645 -45.6055 77.0508 -44.1406 75.0488 -44.1406 L 57.0801 -44.1406 C 55.0293 -44.1406 53.5156 -45.6055 53.5156 -47.5586 Z M 49.4141 20.2148 L 108.887 20.2148 C 120.361 20.2148 128.223 17.9688 128.223 6.20117 L 128.223 -7.86133 C 128.223 -13.0371 124.512 -16.6504 119.336 -16.6504 L 64.4043 -16.6504 C 59.1797 -16.6504 55.4688 -13.0371 55.4688 -7.86133 L 55.4688 5.61523 C 55.4688 12.6953 53.5645 17.2852 49.4141 20.2148 Z"/>
  </g>
  <g id="Heavy-M" transform="matrix(1 0 0 1 2567.77 1126)">
   <path d="M 26.8555 -89.7949 C 29.834 -88.4277 31.0547 -86.0352 31.0547 -81.9336 L 31.0547 4.78516 C 31.0547 10.9863 34.7656 14.0137 38.916 14.0137 C 43.0664 14.0137 46.875 10.7422 46.875 4.88281 L 46.875 -11.084 C 46.875 -19.5801 51.709 -24.4629 60.2539 -24.4629 L 113.379 -24.4629 L 113.379 -71.2402 C 113.379 -83.0078 106.592 -89.7949 94.873 -89.7949 Z M 12.4512 -63.1348 C 12.4512 -58.4961 15.7715 -55.2734 20.459 -55.2734 L 22.3145 -55.2734 L 22.3145 -75.9277 C 22.3145 -79.0527 20.4102 -81.0059 17.4316 -81.0059 C 14.4043 -81.0059 12.4512 -79.0527 12.4512 -75.9277 Z M 52.4414 -62.3535 C 52.4414 -64.209 53.9062 -65.6738 55.9082 -65.6738 L 87.6953 -65.6738 C 89.5996 -65.6738 91.0645 -64.209 91.0645 -62.3535 C 91.0645 -60.4492 89.5996 -58.9355 87.6953 -58.9355 L 55.9082 -58.9355 C 53.9062 -58.9355 52.4414 -60.4492 52.4414 -62.3535 Z M 52.4414 -46.8262 C 52.4414 -48.7793 53.9062 -50.2441 55.9082 -50.2441 L 73.7793 -50.2441 C 75.6836 -50.2441 77.1484 -48.7793 77.1484 -46.8262 C 77.1484 -44.9707 75.6836 -43.5059 73.7793 -43.5059 L 55.9082 -43.5059 C 53.9062 -43.5059 52.4414 -44.9707 52.4414 -46.8262 Z M 49.9023 19.3848 L 106.982 19.3848 C 117.92 19.3848 125.391 16.1133 125.391 4.88281 L 125.391 -7.86133 C 125.391 -12.5 122.07 -15.7227 117.383 -15.7227 L 63.623 -15.7227 C 58.8867 -15.7227 55.6152 -12.5 55.6152 -7.86133 L 55.6152 4.6875 C 55.6152 11.4258 53.9551 16.1133 49.9023 19.3848 Z"/>
  </g>
  <g id="Bold-M" transform="matrix(1 0 0 1 2272.67 1126)">
   <path d="M 26.2207 -88.8672 C 29.4922 -87.2559 30.7617 -84.668 30.7617 -80.1758 L 30.7617 4.44336 C 30.7617 10.8887 34.5215 14.2578 39.3066 14.2578 C 43.9453 14.2578 47.7051 10.791 47.7051 4.63867 L 47.7051 -10.4492 C 47.7051 -18.3105 51.9531 -22.6562 59.8633 -22.6562 L 110.84 -22.6562 L 110.84 -71.4355 C 110.84 -82.666 104.688 -88.8672 93.5059 -88.8672 Z M 12.4512 -63.2812 C 12.4512 -59.2285 15.2832 -56.4453 19.4336 -56.4453 L 22.7051 -56.4453 L 22.7051 -75.3906 C 22.7051 -78.5156 20.5566 -80.5664 17.627 -80.5664 C 14.6484 -80.5664 12.4512 -78.5156 12.4512 -75.3906 Z M 51.2695 -62.1094 C 51.2695 -63.916 52.6367 -65.2832 54.5898 -65.2832 L 86.9629 -65.2832 C 88.8672 -65.2832 90.2344 -63.916 90.2344 -62.1094 C 90.2344 -60.2539 88.8672 -58.7891 86.9629 -58.7891 L 54.5898 -58.7891 C 52.6367 -58.7891 51.2695 -60.2539 51.2695 -62.1094 Z M 51.2695 -46.0449 C 51.2695 -47.9004 52.6367 -49.3164 54.5898 -49.3164 L 72.3145 -49.3164 C 74.1699 -49.3164 75.5859 -47.9004 75.5859 -46.0449 C 75.5859 -44.2383 74.1699 -42.8223 72.3145 -42.8223 L 54.5898 -42.8223 C 52.6367 -42.8223 51.2695 -44.2383 51.2695 -46.0449 Z M 50.3906 18.4082 L 104.834 18.4082 C 115.186 18.4082 122.168 14.1113 122.168 3.41797 L 122.168 -7.8125 C 122.168 -11.8652 119.336 -14.6484 115.234 -14.6484 L 62.6953 -14.6484 C 58.5938 -14.6484 55.7617 -11.8652 55.7617 -7.8125 L 55.7617 3.71094 C 55.7617 10.0586 54.4434 14.8438 50.3906 18.4082 Z"/>
  </g>
  <g id="Semibold-M" transform="matrix(1 0 0 1 1977.06 1126)">
   <path d="M 25.8301 -88.2324 C 29.2969 -86.4258 30.5176 -83.7402 30.5176 -78.9551 L 30.5176 4.24805 C 30.5176 10.8398 34.375 14.4043 39.5996 14.4043 C 44.5801 14.4043 48.291 10.8398 48.291 4.49219 L 48.291 -10.0098 C 48.291 -17.3828 52.0996 -21.4355 59.5703 -21.4355 L 109.131 -21.4355 L 109.131 -71.582 C 109.131 -82.4219 103.369 -88.2324 92.5781 -88.2324 Z M 12.4512 -63.3301 C 12.4512 -59.7168 14.9902 -57.2266 18.7012 -57.2266 L 22.998 -57.2266 L 22.998 -75.0488 C 22.998 -78.125 20.7031 -80.2734 17.7246 -80.2734 C 14.7949 -80.3223 12.4512 -78.1738 12.4512 -75.0488 Z M 50.4395 -61.9141 C 50.4395 -63.6719 51.8066 -65.0391 53.6621 -65.0391 L 86.5234 -65.0391 C 88.3301 -65.0391 89.6484 -63.6719 89.6484 -61.9141 C 89.6484 -60.1562 88.3301 -58.7402 86.5234 -58.7402 L 53.6621 -58.7402 C 51.8066 -58.7402 50.4395 -60.1562 50.4395 -61.9141 Z M 50.4395 -45.459 C 50.4395 -47.2656 51.8066 -48.6816 53.6621 -48.6816 L 71.3379 -48.6816 C 73.1445 -48.6816 74.5117 -47.2656 74.5117 -45.459 C 74.5117 -43.7012 73.1445 -42.3828 71.3379 -42.3828 L 53.6621 -42.3828 C 51.8066 -42.3828 50.4395 -43.7012 50.4395 -45.459 Z M 50.7324 17.7246 L 103.32 17.7246 C 113.281 17.7246 119.971 12.6953 119.971 2.39258 L 119.971 -7.8125 C 119.971 -11.4258 117.48 -13.916 113.721 -13.916 L 62.1094 -13.916 C 58.3496 -13.916 55.8594 -11.4258 55.8594 -7.8125 L 55.8594 2.97852 C 55.8594 9.08203 54.7363 13.9648 50.7324 17.7246 Z"/>
  </g>
  <g id="Medium-M" transform="matrix(1 0 0 1 1681.17 1126)">
   <path d="M 25.4883 -87.7441 C 29.1016 -85.791 30.3711 -83.0078 30.3711 -78.0762 L 30.3711 4.05273 C 30.3711 10.791 34.2285 14.5508 39.7949 14.5508 C 45.0684 14.5508 48.7793 10.8887 48.7793 4.39453 L 48.7793 -9.66797 C 48.7793 -16.748 52.2461 -20.5078 59.3262 -20.5078 L 107.812 -20.5078 L 107.812 -71.6797 C 107.812 -82.2266 102.344 -87.7441 91.8945 -87.7441 Z M 12.4512 -63.4277 C 12.4512 -60.0586 14.7461 -57.8613 18.1641 -57.8613 L 23.1934 -57.8613 L 23.1934 -74.8047 C 23.1934 -77.8809 20.8008 -80.0781 17.8711 -80.0781 C 14.8926 -80.0781 12.4512 -77.8809 12.4512 -74.8047 Z M 49.8047 -61.8164 C 49.8047 -63.5254 51.123 -64.8438 52.9785 -64.8438 L 86.1328 -64.8438 C 87.8906 -64.8438 89.2578 -63.5254 89.2578 -61.8164 C 89.2578 -60.0586 87.8906 -58.6426 86.1328 -58.6426 L 52.9785 -58.6426 C 51.123 -58.6426 49.8047 -60.0586 49.8047 -61.8164 Z M 49.8047 -45.0684 C 49.8047 -46.8262 51.123 -48.1934 52.9785 -48.1934 L 70.5566 -48.1934 C 72.3633 -48.1934 73.6816 -46.8262 73.6816 -45.0684 C 73.6816 -43.3594 72.3633 -41.9922 70.5566 -41.9922 L 52.9785 -41.9922 C 51.123 -41.9922 49.8047 -43.3594 49.8047 -45.0684 Z M 51.0254 17.2363 L 102.197 17.2363 C 111.865 17.2363 118.311 11.6699 118.311 1.66016 L 118.311 -7.76367 C 118.311 -11.1328 116.016 -13.3301 112.598 -13.3301 L 61.6211 -13.3301 C 58.2031 -13.3301 55.9082 -11.1328 55.9082 -7.76367 L 55.9082 2.49023 C 55.9082 8.39844 54.9805 13.2812 51.0254 17.2363 Z"/>
  </g>
  <g id="Regular-M" transform="matrix(1 0 0 1 1385.56 1126)">
   <path d="M 25.0977 -87.1094 C 28.9062 -84.9609 30.127 -82.0801 30.127 -76.8555 L 30.127 3.85742 C 30.127 10.7422 34.082 14.6973 40.0879 14.6973 C 45.6543 14.6973 49.3652 10.8887 49.3652 4.24805 L 49.3652 -9.22852 C 49.3652 -15.8691 52.3926 -19.2871 59.082 -19.2871 L 106.104 -19.2871 L 106.104 -71.7773 C 106.104 -81.9824 101.025 -87.1094 90.9668 -87.1094 Z M 12.4512 -63.4766 C 12.4512 -60.5469 14.4043 -58.6426 17.4316 -58.6426 L 23.4863 -58.6426 L 23.4863 -74.4141 C 23.4863 -77.4902 20.8984 -79.7852 17.9688 -79.7852 C 15.0391 -79.834 12.4512 -77.5391 12.4512 -74.4141 Z M 48.9746 -61.6211 C 48.9746 -63.2812 50.293 -64.5996 52.0508 -64.5996 L 85.6445 -64.5996 C 87.4023 -64.5996 88.6719 -63.2812 88.6719 -61.6211 C 88.6719 -59.9121 87.4023 -58.5938 85.6445 -58.5938 L 52.0508 -58.5938 C 50.293 -58.5938 48.9746 -59.9121 48.9746 -61.6211 Z M 48.9746 -44.4824 C 48.9746 -46.1914 50.293 -47.5586 52.0508 -47.5586 L 69.5801 -47.5586 C 71.3379 -47.5586 72.6074 -46.1914 72.6074 -44.4824 C 72.6074 -42.8223 71.3379 -41.5527 69.5801 -41.5527 L 52.0508 -41.5527 C 50.293 -41.5527 48.9746 -42.8223 48.9746 -44.4824 Z M 51.3672 16.6016 L 100.732 16.6016 C 110.01 16.6016 116.113 10.2539 116.113 0.634766 L 116.113 -7.76367 C 116.113 -10.6934 114.16 -12.6465 111.133 -12.6465 L 61.0352 -12.6465 C 58.0078 -12.6465 56.0059 -10.6934 56.0059 -7.76367 L 56.0059 1.80664 C 56.0059 7.42188 55.2734 12.4023 51.3672 16.6016 Z"/>
  </g>
  <g id="Light-M" transform="matrix(1 0 0 1 1090 1126)">
   <path d="M 24.707 -86.2305 C 28.418 -84.4238 29.7852 -81.7383 29.7852 -76.8555 L 29.7852 2.83203 C 29.7852 9.52148 34.0332 13.1836 39.6484 13.1836 C 44.873 13.1836 48.9258 9.61914 48.9258 3.07617 L 48.9258 -10.4004 C 48.9258 -15.9668 51.7578 -19.043 57.373 -19.043 L 104.443 -19.043 L 104.443 -71.8262 C 104.443 -81.3477 99.6094 -86.2305 90.1367 -86.2305 Z M 12.4512 -63.4766 C 12.4512 -61.084 14.0137 -59.5215 16.5527 -59.5215 L 24.1211 -59.5215 L 24.1211 -74.707 C 24.1211 -78.0273 21.3867 -80.2246 18.3594 -80.2246 C 15.2832 -80.2734 12.4512 -78.125 12.4512 -74.707 Z M 47.1191 -61.9629 C 47.1191 -63.2812 48.1445 -64.3066 49.5605 -64.3066 L 85.6445 -64.3066 C 87.0605 -64.3066 88.0859 -63.2812 88.0859 -61.9629 C 88.0859 -60.5957 87.0605 -59.5215 85.6445 -59.5215 L 49.5605 -59.5215 C 48.1445 -59.5215 47.1191 -60.5957 47.1191 -61.9629 Z M 47.1191 -44.7266 C 47.1191 -46.0938 48.1445 -47.168 49.5605 -47.168 L 68.0664 -47.168 C 69.4336 -47.168 70.5078 -46.0938 70.5078 -44.7266 C 70.5078 -43.4082 69.4336 -42.3828 68.0664 -42.3828 L 49.5605 -42.3828 C 48.1445 -42.3828 47.1191 -43.4082 47.1191 -44.7266 Z M 48.0957 15.6738 L 99.3164 15.6738 C 108.105 15.6738 113.818 9.76562 113.818 0.634766 L 113.818 -9.42383 C 113.818 -11.8652 112.256 -13.3789 109.717 -13.3789 L 58.6426 -13.3789 C 56.1523 -13.3789 54.5898 -11.8652 54.5898 -9.42383 L 54.5898 2.44141 C 54.5898 8.44727 52.9297 12.8906 48.0957 15.6738 Z"/>
  </g>
  <g id="Thin-M" transform="matrix(1 0 0 1 794.826 1126)">
   <path d="M 24.1699 -85.0098 C 27.832 -83.6914 29.3457 -81.25 29.3457 -76.8066 L 29.3457 1.46484 C 29.3457 7.86133 33.9355 11.1328 38.9648 11.1328 C 43.8477 11.1328 48.3398 7.86133 48.3398 1.5625 L 48.3398 -11.9141 C 48.3398 -16.1133 50.9277 -18.7012 55.127 -18.7012 L 102.246 -18.7012 L 102.246 -71.8262 C 102.246 -80.4688 97.7051 -85.0098 89.1113 -85.0098 Z M 12.4512 -63.4766 C 12.4512 -61.7188 13.4766 -60.7422 15.332 -60.7422 L 25 -60.7422 L 25 -75.0488 C 25 -78.7598 21.9727 -80.8105 18.8477 -80.8105 C 15.5762 -80.8594 12.4512 -78.8574 12.4512 -75.0488 Z M 44.5801 -62.3535 C 44.5801 -63.2324 45.3125 -63.9648 46.2891 -63.9648 L 85.6445 -63.9648 C 86.5723 -63.9648 87.3047 -63.2324 87.3047 -62.3535 C 87.3047 -61.4746 86.5723 -60.7422 85.6445 -60.7422 L 46.2891 -60.7422 C 45.3125 -60.7422 44.5801 -61.4746 44.5801 -62.3535 Z M 44.5801 -45.0684 C 44.5801 -45.9961 45.3125 -46.7285 46.2891 -46.7285 L 66.0156 -46.7285 C 66.9434 -46.7285 67.6758 -45.9961 67.6758 -45.0684 C 67.6758 -44.1895 66.9434 -43.457 66.0156 -43.457 L 46.2891 -43.457 C 45.3125 -43.457 44.5801 -44.1895 44.5801 -45.0684 Z M 43.7988 14.502 L 97.4609 14.502 C 105.566 14.502 110.742 9.13086 110.742 0.634766 L 110.742 -11.6211 C 110.742 -13.3789 109.717 -14.3555 107.861 -14.3555 L 55.5664 -14.3555 C 53.6621 -14.3555 52.6855 -13.3789 52.6855 -11.6211 L 52.6855 3.27148 C 52.6855 9.76562 49.8047 13.5254 43.7988 14.502 Z"/>
  </g>
  <g id="Ultralight-M" transform="matrix(1 0 0 1 498.896 1126)">
   <path d="M 23.877 -84.375 C 27.4902 -83.3496 29.1504 -81.0059 29.1504 -76.7578 L 29.1504 0.78125 C 29.1504 6.98242 33.8867 10.1074 38.6719 10.1074 C 43.3105 10.1074 47.998 6.98242 47.998 0.78125 L 47.998 -12.6953 C 47.998 -16.2109 50.4883 -18.5547 54.0039 -18.5547 L 101.123 -18.5547 L 101.123 -71.8262 C 101.123 -80.0293 96.7773 -84.375 88.5742 -84.375 Z M 12.4512 -63.4766 C 12.4512 -62.1094 13.1836 -61.377 14.6973 -61.377 L 25.4395 -61.377 L 25.4395 -75.2441 C 25.4395 -79.1016 22.2656 -81.1035 19.0918 -81.1035 C 15.7715 -81.1523 12.4512 -79.248 12.4512 -75.2441 Z M 43.3105 -62.5977 C 43.3105 -63.2324 43.8477 -63.7695 44.5801 -63.7695 L 85.5957 -63.7695 C 86.3281 -63.7695 86.9141 -63.2324 86.9141 -62.5977 C 86.9141 -61.9141 86.3281 -61.377 85.5957 -61.377 L 44.5801 -61.377 C 43.8477 -61.377 43.3105 -61.9141 43.3105 -62.5977 Z M 43.3105 -45.2637 C 43.3105 -45.8984 43.8477 -46.4355 44.5801 -46.4355 L 64.9902 -46.4355 C 65.6738 -46.4355 66.2598 -45.8984 66.2598 -45.2637 C 66.2598 -44.5801 65.6738 -44.043 64.9902 -44.043 L 44.5801 -44.043 C 43.8477 -44.043 43.3105 -44.5801 43.3105 -45.2637 Z M 41.5527 13.8672 L 96.5332 13.8672 C 104.297 13.8672 109.18 8.78906 109.18 0.634766 L 109.18 -12.7441 C 109.18 -14.1113 108.447 -14.8438 106.934 -14.8438 L 53.9551 -14.8438 C 52.4414 -14.8438 51.709 -14.1113 51.709 -12.7441 L 51.709 3.71094 C 51.709 10.4004 48.2422 13.8672 41.5527 13.8672 Z"/>
  </g>
  <g id="Black-S" transform="matrix(1 0 0 1 2878.37 696)">
   <path d="M 21.4355 -78.5645 C 23.584 -77.6855 24.5605 -75.8789 24.5605 -72.9004 L 24.5605 -3.66211 C 24.5605 1.02539 27.3926 3.22266 30.2246 3.22266 C 33.2031 3.22266 36.1816 0.78125 36.1816 -3.66211 L 36.1816 -16.6992 C 36.1816 -23.7793 40.3809 -27.9297 47.5098 -27.9297 L 90.4297 -27.9297 L 90.4297 -63.3301 C 90.4297 -72.9004 84.7656 -78.5645 75.1953 -78.5645 Z M 9.76562 -57.0312 C 9.76562 -53.0273 12.6465 -50.1953 16.6992 -50.1953 L 17.2363 -50.1953 L 17.2363 -67.4316 C 17.2363 -69.873 15.8691 -71.3379 13.5254 -71.3379 C 11.1816 -71.3379 9.76562 -69.873 9.76562 -67.4316 Z M 41.8945 -56.6406 C 41.8945 -58.1543 43.0664 -59.3262 44.6777 -59.3262 L 69.1406 -59.3262 C 70.7031 -59.3262 71.875 -58.1543 71.875 -56.6406 C 71.875 -55.0781 70.7031 -53.8574 69.1406 -53.8574 L 44.6777 -53.8574 C 43.0664 -53.8574 41.8945 -55.0781 41.8945 -56.6406 Z M 41.8945 -44.8242 C 41.8945 -46.3867 43.0664 -47.6074 44.6777 -47.6074 L 58.7402 -47.6074 C 60.3027 -47.6074 61.4746 -46.3867 61.4746 -44.8242 C 61.4746 -43.3105 60.3027 -42.1387 58.7402 -42.1387 L 44.6777 -42.1387 C 43.0664 -42.1387 41.8945 -43.3105 41.8945 -44.8242 Z M 38.8184 8.1543 L 85.2051 8.1543 C 94.1406 8.1543 100.293 6.29883 100.293 -2.88086 L 100.293 -13.7695 C 100.293 -17.7734 97.4121 -20.6055 93.3594 -20.6055 L 50.4395 -20.6055 C 46.3867 -20.6055 43.5059 -17.7734 43.5059 -13.7695 L 43.5059 -3.32031 C 43.5059 2.19727 42.041 5.81055 38.8184 8.1543 Z"/>
  </g>
  <g id="Heavy-S" transform="matrix(1 0 0 1 2582.61 696)">
   <path d="M 21.0449 -78.0273 C 23.4375 -76.9043 24.3652 -75 24.3652 -71.7285 L 24.3652 -3.75977 C 24.3652 1.12305 27.2461 3.56445 30.5664 3.56445 C 33.8867 3.56445 36.8164 0.976562 36.8164 -3.66211 L 36.8164 -16.1133 C 36.8164 -22.9004 40.625 -26.7578 47.4121 -26.7578 L 88.916 -26.7578 L 88.916 -63.4766 C 88.916 -72.7051 83.5938 -78.0273 74.3652 -78.0273 Z M 9.76562 -57.1289 C 9.76562 -53.4668 12.3535 -50.8789 16.1133 -50.8789 L 17.4316 -50.8789 L 17.4316 -67.041 C 17.4316 -69.4336 15.9668 -70.9961 13.623 -70.9961 C 11.2793 -70.9961 9.76562 -69.4336 9.76562 -67.041 Z M 41.2598 -56.4453 C 41.2598 -57.959 42.4316 -59.082 44.043 -59.082 L 68.6523 -59.082 C 70.2148 -59.082 71.3867 -57.959 71.3867 -56.4453 C 71.3867 -54.8828 70.2148 -53.6621 68.6523 -53.6621 L 44.043 -53.6621 C 42.4316 -53.6621 41.2598 -54.8828 41.2598 -56.4453 Z M 41.2598 -44.2383 C 41.2598 -45.8008 42.4316 -47.0215 44.043 -47.0215 L 57.9102 -47.0215 C 59.4727 -47.0215 60.6445 -45.8008 60.6445 -44.2383 C 60.6445 -42.7246 59.4727 -41.6016 57.9102 -41.6016 L 44.043 -41.6016 C 42.4316 -41.6016 41.2598 -42.7246 41.2598 -44.2383 Z M 39.5508 7.61719 L 83.8867 7.61719 C 92.4805 7.61719 98.3887 4.98047 98.3887 -3.90625 L 98.3887 -13.5742 C 98.3887 -17.2363 95.752 -19.7754 92.041 -19.7754 L 50.0977 -19.7754 C 46.3867 -19.7754 43.75 -17.2363 43.75 -13.5742 L 43.75 -4.10156 C 43.75 1.12305 42.627 4.88281 39.5508 7.61719 Z"/>
  </g>
  <g id="Bold-S" transform="matrix(1 0 0 1 2287 696)">
   <path d="M 20.6543 -77.4414 C 23.2422 -76.0742 24.1699 -73.9746 24.1699 -70.3613 L 24.1699 -3.90625 C 24.1699 1.2207 27.0508 3.95508 30.957 3.95508 C 34.668 3.95508 37.5488 1.17188 37.5488 -3.71094 L 37.5488 -15.4785 C 37.5488 -21.875 40.8691 -25.3906 47.3145 -25.3906 L 87.1582 -25.3906 L 87.1582 -63.623 C 87.1582 -72.5098 82.3242 -77.4414 73.4375 -77.4414 Z M 9.76562 -57.2266 C 9.76562 -53.9062 12.0605 -51.6602 15.4297 -51.6602 L 17.6758 -51.6602 L 17.6758 -66.6016 C 17.6758 -68.9941 16.0156 -70.6543 13.7207 -70.6543 C 11.4258 -70.6543 9.76562 -68.9941 9.76562 -66.6016 Z M 40.625 -56.2012 C 40.625 -57.666 41.748 -58.8379 43.3594 -58.8379 L 68.1152 -58.8379 C 69.6777 -58.8379 70.8496 -57.666 70.8496 -56.2012 C 70.8496 -54.6875 69.6777 -53.4668 68.1152 -53.4668 L 43.3594 -53.4668 C 41.748 -53.4668 40.625 -54.6875 40.625 -56.2012 Z M 40.625 -43.6035 C 40.625 -45.1172 41.748 -46.3379 43.3594 -46.3379 L 57.0312 -46.3379 C 58.5449 -46.3379 59.7168 -45.1172 59.7168 -43.6035 C 59.7168 -42.0898 58.5449 -40.9668 57.0312 -40.9668 L 43.3594 -40.9668 C 41.748 -40.9668 40.625 -42.0898 40.625 -43.6035 Z M 40.332 6.98242 L 82.4219 6.98242 C 90.625 6.98242 96.1914 3.4668 96.1914 -5.0293 L 96.1914 -13.3301 C 96.1914 -16.6016 93.8965 -18.8965 90.5762 -18.8965 L 49.707 -18.8965 C 46.3867 -18.8965 44.043 -16.6016 44.043 -13.3301 L 44.043 -4.93164 C 44.043 -0.0488281 43.2617 3.80859 40.332 6.98242 Z"/>
  </g>
  <g id="Semibold-S" transform="matrix(1 0 0 1 1991.02 696)">
   <path d="M 20.3613 -77.0508 C 23.0957 -75.4883 24.0234 -73.291 24.0234 -69.4824 L 24.0234 -3.95508 C 24.0234 1.26953 26.9531 4.19922 31.2012 4.19922 C 35.2051 4.19922 38.0371 1.31836 38.0371 -3.71094 L 38.0371 -15.0391 C 38.0371 -21.1914 41.0645 -24.4629 47.2168 -24.4629 L 85.9863 -24.4629 L 85.9863 -63.7207 C 85.9863 -72.4121 81.3965 -77.0508 72.8027 -77.0508 Z M 9.76562 -57.2754 C 9.76562 -54.248 11.8652 -52.1973 14.9414 -52.1973 L 17.8223 -52.1973 L 17.8223 -66.3086 C 17.8223 -68.6523 16.0645 -70.3613 13.8184 -70.3613 C 11.5234 -70.4102 9.76562 -68.6523 9.76562 -66.3086 Z M 40.1367 -56.0547 C 40.1367 -57.5195 41.2598 -58.6426 42.8711 -58.6426 L 67.7734 -58.6426 C 69.2871 -58.6426 70.459 -57.5195 70.459 -56.0547 C 70.459 -54.4922 69.2871 -53.3203 67.7734 -53.3203 L 42.8711 -53.3203 C 41.2598 -53.3203 40.1367 -54.4922 40.1367 -56.0547 Z M 40.1367 -43.1641 C 40.1367 -44.6777 41.2598 -45.8496 42.8711 -45.8496 L 56.3965 -45.8496 C 57.9102 -45.8496 59.0332 -44.6777 59.0332 -43.1641 C 59.0332 -41.6504 57.9102 -40.5273 56.3965 -40.5273 L 42.8711 -40.5273 C 41.2598 -40.5273 40.1367 -41.6504 40.1367 -43.1641 Z M 40.8691 6.54297 L 81.3965 6.54297 C 89.3555 6.54297 94.7266 2.44141 94.7266 -5.76172 L 94.7266 -13.1836 C 94.7266 -16.2109 92.627 -18.2617 89.5508 -18.2617 L 49.4141 -18.2617 C 46.3379 -18.2617 44.2383 -16.2109 44.2383 -13.1836 L 44.2383 -5.51758 C 44.2383 -0.878906 43.7012 3.07617 40.8691 6.54297 Z"/>
  </g>
  <g id="Medium-S" transform="matrix(1 0 0 1 1694.87 696)">
   <path d="M 20.166 -76.709 C 22.998 -75.0488 23.9258 -72.8027 23.9258 -68.75 L 23.9258 -4.05273 C 23.9258 1.36719 26.8555 4.39453 31.3965 4.39453 C 35.6445 4.39453 38.4277 1.41602 38.4277 -3.71094 L 38.4277 -14.7461 C 38.4277 -20.6543 41.1621 -23.7793 47.168 -23.7793 L 85.1074 -23.7793 L 85.1074 -63.7695 C 85.1074 -72.3145 80.7617 -76.709 72.3145 -76.709 Z M 9.76562 -57.3242 C 9.76562 -54.4922 11.7188 -52.5879 14.5996 -52.5879 L 17.9199 -52.5879 L 17.9199 -66.1133 C 17.9199 -68.4082 16.1133 -70.2148 13.8672 -70.2148 C 11.5723 -70.2148 9.76562 -68.4082 9.76562 -66.1133 Z M 39.7949 -55.9082 C 39.7949 -57.373 40.918 -58.5449 42.4805 -58.5449 L 67.4805 -58.5449 C 68.9941 -58.5449 70.166 -57.373 70.166 -55.9082 C 70.166 -54.3945 68.9941 -53.2227 67.4805 -53.2227 L 42.4805 -53.2227 C 40.918 -53.2227 39.7949 -54.3945 39.7949 -55.9082 Z M 39.7949 -42.8223 C 39.7949 -44.3359 40.918 -45.5078 42.4805 -45.5078 L 55.9082 -45.5078 C 57.4219 -45.5078 58.5449 -44.3359 58.5449 -42.8223 C 58.5449 -41.3574 57.4219 -40.1855 55.9082 -40.1855 L 42.4805 -40.1855 C 40.918 -40.1855 39.7949 -41.3574 39.7949 -42.8223 Z M 41.3086 6.25 L 80.6152 6.25 C 88.3789 6.25 93.6035 1.66016 93.6035 -6.34766 L 93.6035 -13.0371 C 93.6035 -15.8691 91.6504 -17.7734 88.7695 -17.7734 L 49.2188 -17.7734 C 46.3379 -17.7734 44.3848 -15.8691 44.3848 -13.0371 L 44.3848 -5.95703 C 44.3848 -1.46484 44.043 2.53906 41.3086 6.25 Z"/>
  </g>
  <g id="Regular-S" transform="matrix(1 0 0 1 1398.89 696)">
   <path d="M 19.873 -76.3184 C 22.9004 -74.4629 23.7793 -72.1191 23.7793 -67.8711 L 23.7793 -4.10156 C 23.7793 1.41602 26.7578 4.63867 31.6406 4.63867 C 36.1816 4.63867 38.916 1.5625 38.916 -3.75977 L 38.916 -14.3066 C 38.916 -19.9707 41.3574 -22.8516 47.1191 -22.8516 L 83.9355 -22.8516 L 83.9355 -63.8672 C 83.9355 -72.168 79.834 -76.3184 71.6309 -76.3184 Z M 9.76562 -57.373 C 9.76562 -54.834 11.5234 -53.125 14.1113 -53.125 L 18.0664 -53.125 L 18.0664 -65.8203 C 18.0664 -68.1152 16.1621 -69.9219 13.916 -69.9219 C 11.6699 -69.9219 9.76562 -68.1152 9.76562 -65.8203 Z M 39.3066 -55.7617 C 39.3066 -57.2266 40.4297 -58.3496 41.9922 -58.3496 L 67.1387 -58.3496 C 68.6523 -58.3496 69.7754 -57.2266 69.7754 -55.7617 C 69.7754 -54.248 68.6523 -53.0762 67.1387 -53.0762 L 41.9922 -53.0762 C 40.4297 -53.0762 39.3066 -54.248 39.3066 -55.7617 Z M 39.3066 -42.3828 C 39.3066 -43.8965 40.4297 -45.0684 41.9922 -45.0684 L 55.2734 -45.0684 C 56.7871 -45.0684 57.9102 -43.8965 57.9102 -42.3828 C 57.9102 -40.918 56.7871 -39.7949 55.2734 -39.7949 L 41.9922 -39.7949 C 40.4297 -39.7949 39.3066 -40.918 39.3066 -42.3828 Z M 41.8457 5.81055 L 79.6387 5.81055 C 87.1094 5.81055 92.1387 0.634766 92.1387 -7.12891 L 92.1387 -12.8906 C 92.1387 -15.4785 90.3809 -17.1387 87.793 -17.1387 L 48.9746 -17.1387 C 46.3379 -17.1387 44.5801 -15.4785 44.5801 -12.8906 L 44.5801 -6.54297 C 44.5801 -2.29492 44.4824 1.85547 41.8457 5.81055 Z"/>
  </g>
  <g id="Light-S" transform="matrix(1 0 0 1 1103.21 696)">
   <path d="M 19.5312 -75.5371 C 22.4609 -73.9746 23.4863 -71.7773 23.4863 -67.8223 L 23.4863 -5.0293 C 23.4863 0.292969 26.709 3.27148 31.25 3.27148 C 35.4492 3.27148 38.4766 0.390625 38.4766 -4.78516 L 38.4766 -15.332 C 38.4766 -20.0684 40.8203 -22.6562 45.6055 -22.6562 L 82.4707 -22.6562 L 82.4707 -63.8672 C 82.4707 -71.582 78.6133 -75.5371 70.9473 -75.5371 Z M 9.76562 -57.373 C 9.76562 -55.2734 11.1328 -53.9062 13.3301 -53.9062 L 18.6523 -53.9062 L 18.6523 -66.0645 C 18.6523 -68.5547 16.6016 -70.3125 14.2578 -70.3125 C 11.8652 -70.3613 9.76562 -68.6035 9.76562 -66.0645 Z M 37.6465 -56.0547 C 37.6465 -57.2266 38.5254 -58.1055 39.7949 -58.1055 L 67.1387 -58.1055 C 68.3594 -58.1055 69.2383 -57.2266 69.2383 -56.0547 C 69.2383 -54.834 68.3594 -53.9062 67.1387 -53.9062 L 39.7949 -53.9062 C 38.5254 -53.9062 37.6465 -54.834 37.6465 -56.0547 Z M 37.6465 -42.5781 C 37.6465 -43.7988 38.5254 -44.7266 39.7949 -44.7266 L 53.9062 -44.7266 C 55.127 -44.7266 56.0547 -43.7988 56.0547 -42.5781 C 56.0547 -41.4062 55.127 -40.5273 53.9062 -40.5273 L 39.7949 -40.5273 C 38.5254 -40.5273 37.6465 -41.4062 37.6465 -42.5781 Z M 38.916 5.0293 L 78.3691 5.0293 C 85.4004 5.0293 90.0879 0.195312 90.0879 -7.12891 L 90.0879 -14.3555 C 90.0879 -16.4551 88.6719 -17.8223 86.5234 -17.8223 L 46.875 -17.8223 C 44.6777 -17.8223 43.3105 -16.4551 43.3105 -14.3555 L 43.3105 -5.95703 C 43.3105 -1.41602 42.3828 2.29492 38.916 5.0293 Z"/>
  </g>
  <g id="Thin-S" transform="matrix(1 0 0 1 807.863 696)">
   <path d="M 19.043 -74.4629 C 21.9238 -73.3398 23.0957 -71.3867 23.0957 -67.8223 L 23.0957 -6.20117 C 23.0957 -1.17188 26.6113 1.46484 30.6641 1.46484 C 34.5703 1.46484 37.9883 -1.12305 37.9883 -6.10352 L 37.9883 -16.6504 C 37.9883 -20.2148 40.0879 -22.3633 43.6523 -22.3633 L 80.5176 -22.3633 L 80.5176 -63.916 C 80.5176 -70.8496 76.9531 -74.4629 70.0195 -74.4629 Z M 9.76562 -57.373 C 9.76562 -55.8594 10.6445 -54.9805 12.2559 -54.9805 L 19.4336 -54.9805 L 19.4336 -66.3574 C 19.4336 -69.1895 17.0898 -70.8008 14.6484 -70.8008 C 12.1582 -70.8496 9.76562 -69.2383 9.76562 -66.3574 Z M 35.4492 -56.3965 C 35.4492 -57.1777 36.0352 -57.8125 36.9141 -57.8125 L 67.0898 -57.8125 C 67.9199 -57.8125 68.5547 -57.1777 68.5547 -56.3965 C 68.5547 -55.6152 67.9199 -54.9805 67.0898 -54.9805 L 36.9141 -54.9805 C 36.0352 -54.9805 35.4492 -55.6152 35.4492 -56.3965 Z M 35.4492 -42.8711 C 35.4492 -43.7012 36.0352 -44.3359 36.9141 -44.3359 L 52.0996 -44.3359 C 52.9297 -44.3359 53.5645 -43.7012 53.5645 -42.8711 C 53.5645 -42.0898 52.9297 -41.4551 52.0996 -41.4551 L 36.9141 -41.4551 C 36.0352 -41.4551 35.4492 -42.0898 35.4492 -42.8711 Z M 35.1074 3.95508 L 76.709 3.95508 C 83.2031 3.95508 87.3535 -0.341797 87.3535 -7.12891 L 87.3535 -16.3086 C 87.3535 -17.8223 86.4746 -18.7012 84.8633 -18.7012 L 44.1406 -18.7012 C 42.5293 -18.7012 41.6504 -17.8223 41.6504 -16.3086 L 41.6504 -5.22461 C 41.6504 -0.244141 39.6484 2.83203 35.1074 3.95508 Z"/>
  </g>
  <g id="Ultralight-S" transform="matrix(1 0 0 1 511.835 696)">
   <path d="M 18.7988 -73.9258 C 21.6309 -73.0469 22.9004 -71.1426 22.9004 -67.7734 L 22.9004 -6.83594 C 22.9004 -1.9043 26.5625 0.537109 30.3711 0.537109 C 34.082 0.537109 37.6953 -1.9043 37.6953 -6.83594 L 37.6953 -17.3828 C 37.6953 -20.3125 39.6973 -22.2168 42.627 -22.2168 L 79.541 -22.2168 L 79.541 -63.916 C 79.541 -70.459 76.0742 -73.9258 69.5312 -73.9258 Z M 9.76562 -57.373 C 9.76562 -56.2012 10.4004 -55.5176 11.7188 -55.5176 L 19.8242 -55.5176 L 19.8242 -66.5039 C 19.8242 -69.5312 17.3828 -71.0938 14.8926 -71.0938 C 12.3047 -71.1426 9.76562 -69.5801 9.76562 -66.5039 Z M 34.2773 -56.5918 C 34.2773 -57.1777 34.7656 -57.666 35.4004 -57.666 L 67.0898 -57.666 C 67.7246 -57.666 68.2129 -57.1777 68.2129 -56.5918 C 68.2129 -56.0059 67.7246 -55.5176 67.0898 -55.5176 L 35.4004 -55.5176 C 34.7656 -55.5176 34.2773 -56.0059 34.2773 -56.5918 Z M 34.2773 -43.0176 C 34.2773 -43.6035 34.7656 -44.0918 35.4004 -44.0918 L 51.1719 -44.0918 C 51.8066 -44.0918 52.2949 -43.6035 52.2949 -43.0176 C 52.2949 -42.4316 51.8066 -41.9922 51.1719 -41.9922 L 35.4004 -41.9922 C 34.7656 -41.9922 34.2773 -42.4316 34.2773 -43.0176 Z M 33.1543 3.41797 L 75.8789 3.41797 C 82.0312 3.41797 85.9863 -0.683594 85.9863 -7.12891 L 85.9863 -17.2852 C 85.9863 -18.5059 85.3027 -19.1406 84.0332 -19.1406 L 42.7246 -19.1406 C 41.4062 -19.1406 40.7715 -18.5059 40.7715 -17.2852 L 40.7715 -4.83398 C 40.7715 0.341797 38.2324 3.17383 33.1543 3.41797 Z"/>
  </g>
 </g>
</svg>
