<?xml version="1.0" encoding="UTF-8"?>
<!--Generator: Apple Native CoreSVG 148-->
<!DOCTYPE svg
PUBLIC "-//W3C//DTD SVG 1.1//EN"
       "http://www.w3.org/Graphics/SVG/1.1/DTD/svg11.dtd">
<svg version="1.1" xmlns="http://www.w3.org/2000/svg" xmlns:xlink="http://www.w3.org/1999/xlink" width="3300" height="2200">
 <!--glyph: "uni10060C.medium", point size: 100.000000, font version: "Version 16.0d11e1", template writer version: "8"-->
 <g id="Notes">
  <rect height="2200" id="artboard" style="fill:white;opacity:1" width="3300" x="0" y="0"/>
  <line id="" style="fill:none;stroke:black;opacity:1;stroke-width:0.5;" x1="263" x2="3036" y1="292" y2="292"/>
  <text style="stroke:none;fill:black;font-family:-apple-system,&quot;SF Pro Display&quot;,&quot;SF Pro Text&quot;,Helvetica,sans-serif;font-weight:bold;" transform="matrix(1 0 0 1 263 322)">Weight/Scale Variations</text>
  <text style="stroke:none;fill:black;font-family:-apple-system,&quot;SF Pro Display&quot;,&quot;SF Pro Text&quot;,Helvetica,sans-serif;text-anchor:middle;" transform="matrix(1 0 0 1 559.711 322)">Ultralight</text>
  <text style="stroke:none;fill:black;font-family:-apple-system,&quot;SF Pro Display&quot;,&quot;SF Pro Text&quot;,Helvetica,sans-serif;text-anchor:middle;" transform="matrix(1 0 0 1 856.422 322)">Thin</text>
  <text style="stroke:none;fill:black;font-family:-apple-system,&quot;SF Pro Display&quot;,&quot;SF Pro Text&quot;,Helvetica,sans-serif;text-anchor:middle;" transform="matrix(1 0 0 1 1153.13 322)">Light</text>
  <text style="stroke:none;fill:black;font-family:-apple-system,&quot;SF Pro Display&quot;,&quot;SF Pro Text&quot;,Helvetica,sans-serif;text-anchor:middle;" transform="matrix(1 0 0 1 1449.84 322)">Regular</text>
  <text style="stroke:none;fill:black;font-family:-apple-system,&quot;SF Pro Display&quot;,&quot;SF Pro Text&quot;,Helvetica,sans-serif;text-anchor:middle;" transform="matrix(1 0 0 1 1746.56 322)">Medium</text>
  <text style="stroke:none;fill:black;font-family:-apple-system,&quot;SF Pro Display&quot;,&quot;SF Pro Text&quot;,Helvetica,sans-serif;text-anchor:middle;" transform="matrix(1 0 0 1 2043.27 322)">Semibold</text>
  <text style="stroke:none;fill:black;font-family:-apple-system,&quot;SF Pro Display&quot;,&quot;SF Pro Text&quot;,Helvetica,sans-serif;text-anchor:middle;" transform="matrix(1 0 0 1 2339.98 322)">Bold</text>
  <text style="stroke:none;fill:black;font-family:-apple-system,&quot;SF Pro Display&quot;,&quot;SF Pro Text&quot;,Helvetica,sans-serif;text-anchor:middle;" transform="matrix(1 0 0 1 2636.69 322)">Heavy</text>
  <text style="stroke:none;fill:black;font-family:-apple-system,&quot;SF Pro Display&quot;,&quot;SF Pro Text&quot;,Helvetica,sans-serif;text-anchor:middle;" transform="matrix(1 0 0 1 2933.4 322)">Black</text>
  <line id="" style="fill:none;stroke:black;opacity:1;stroke-width:0.5;" x1="263" x2="3036" y1="1903" y2="1903"/>
  <g id="" transform="matrix(1 0 0 1 263 1933)">
   <path d="M 9.24805 0.830078 C 13.5547 0.830078 17.1387 -2.74414 17.1387 -7.05078 C 17.1387 -11.3574 13.5449 -14.9316 9.23828 -14.9316 C 4.94141 -14.9316 1.36719 -11.3574 1.36719 -7.05078 C 1.36719 -2.74414 4.95117 0.830078 9.24805 0.830078 Z M 9.24805 -0.654297 C 5.70312 -0.654297 2.87109 -3.49609 2.87109 -7.05078 C 2.87109 -10.6055 5.69336 -13.4473 9.23828 -13.4473 C 12.793 -13.4473 15.6348 -10.6055 15.6445 -7.05078 C 15.6543 -3.49609 12.8027 -0.654297 9.24805 -0.654297 Z M 9.22852 -3.62305 C 9.69727 -3.62305 9.9707 -3.93555 9.9707 -4.45312 L 9.9707 -6.31836 L 12.002 -6.31836 C 12.5 -6.31836 12.832 -6.57227 12.832 -7.04102 C 12.832 -7.51953 12.5195 -7.7832 12.002 -7.7832 L 9.9707 -7.7832 L 9.9707 -9.81445 C 9.9707 -10.332 9.69727 -10.6543 9.22852 -10.6543 C 8.75977 -10.6543 8.50586 -10.3125 8.50586 -9.81445 L 8.50586 -7.7832 L 6.49414 -7.7832 C 5.97656 -7.7832 5.64453 -7.51953 5.64453 -7.04102 C 5.64453 -6.57227 5.99609 -6.31836 6.49414 -6.31836 L 8.50586 -6.31836 L 8.50586 -4.45312 C 8.50586 -3.95508 8.75977 -3.62305 9.22852 -3.62305 Z"/>
  </g>
  <g id="" transform="matrix(1 0 0 1 281.506 1933)">
   <path d="M 11.709 2.91016 C 17.1582 2.91016 21.6699 -1.61133 21.6699 -7.05078 C 21.6699 -12.5 17.1484 -17.0117 11.6992 -17.0117 C 6.25977 -17.0117 1.74805 -12.5 1.74805 -7.05078 C 1.74805 -1.61133 6.26953 2.91016 11.709 2.91016 Z M 11.709 1.25 C 7.09961 1.25 3.41797 -2.44141 3.41797 -7.05078 C 3.41797 -11.6602 7.08984 -15.3516 11.6992 -15.3516 C 16.3086 -15.3516 20 -11.6602 20.0098 -7.05078 C 20.0195 -2.44141 16.3184 1.25 11.709 1.25 Z M 11.6797 -2.66602 C 12.207 -2.66602 12.5098 -3.01758 12.5098 -3.59375 L 12.5098 -6.23047 L 15.3223 -6.23047 C 15.8691 -6.23047 16.25 -6.51367 16.25 -7.03125 C 16.25 -7.55859 15.8887 -7.86133 15.3223 -7.86133 L 12.5098 -7.86133 L 12.5098 -10.6836 C 12.5098 -11.25 12.207 -11.6113 11.6797 -11.6113 C 11.1621 -11.6113 10.8789 -11.2305 10.8789 -10.6836 L 10.8789 -7.86133 L 8.07617 -7.86133 C 7.50977 -7.86133 7.13867 -7.55859 7.13867 -7.03125 C 7.13867 -6.51367 7.5293 -6.23047 8.07617 -6.23047 L 10.8789 -6.23047 L 10.8789 -3.59375 C 10.8789 -3.03711 11.1621 -2.66602 11.6797 -2.66602 Z"/>
  </g>
  <g id="" transform="matrix(1 0 0 1 304.924 1933)">
   <path d="M 14.9707 5.66406 C 21.9336 5.66406 27.6953 -0.0976562 27.6953 -7.05078 C 27.6953 -14.0137 21.9238 -19.7754 14.9609 -19.7754 C 8.00781 -19.7754 2.25586 -14.0137 2.25586 -7.05078 C 2.25586 -0.0976562 8.01758 5.66406 14.9707 5.66406 Z M 14.9707 3.84766 C 8.93555 3.84766 4.08203 -1.01562 4.08203 -7.05078 C 4.08203 -13.0957 8.92578 -17.9492 14.9609 -17.9492 C 21.0059 -17.9492 25.8594 -13.0957 25.8691 -7.05078 C 25.8789 -1.01562 21.0156 3.84766 14.9707 3.84766 Z M 14.9414 -1.38672 C 15.5176 -1.38672 15.8594 -1.77734 15.8594 -2.38281 L 15.8594 -6.13281 L 19.7754 -6.13281 C 20.3711 -6.13281 20.7812 -6.46484 20.7812 -7.02148 C 20.7812 -7.59766 20.3906 -7.93945 19.7754 -7.93945 L 15.8594 -7.93945 L 15.8594 -11.8652 C 15.8594 -12.4805 15.5176 -12.8711 14.9414 -12.8711 C 14.375 -12.8711 14.0527 -12.4609 14.0527 -11.8652 L 14.0527 -7.93945 L 10.1465 -7.93945 C 9.53125 -7.93945 9.13086 -7.59766 9.13086 -7.02148 C 9.13086 -6.46484 9.55078 -6.13281 10.1465 -6.13281 L 14.0527 -6.13281 L 14.0527 -2.38281 C 14.0527 -1.79688 14.375 -1.38672 14.9414 -1.38672 Z"/>
  </g>
  <text style="stroke:none;fill:black;font-family:-apple-system,&quot;SF Pro Display&quot;,&quot;SF Pro Text&quot;,Helvetica,sans-serif;font-weight:bold;" transform="matrix(1 0 0 1 263 1953)">Design Variations</text>
  <text style="stroke:none;fill:black;font-family:-apple-system,&quot;SF Pro Display&quot;,&quot;SF Pro Text&quot;,Helvetica,sans-serif;" transform="matrix(1 0 0 1 263 1971)">Symbols are supported in up to nine weights and three scales.</text>
  <text style="stroke:none;fill:black;font-family:-apple-system,&quot;SF Pro Display&quot;,&quot;SF Pro Text&quot;,Helvetica,sans-serif;" transform="matrix(1 0 0 1 263 1989)">For optimal layout with text and other symbols, vertically align</text>
  <text style="stroke:none;fill:black;font-family:-apple-system,&quot;SF Pro Display&quot;,&quot;SF Pro Text&quot;,Helvetica,sans-serif;" transform="matrix(1 0 0 1 263 2007)">symbols with the adjacent text.</text>
  <line id="" style="fill:none;stroke:#00AEEF;stroke-width:0.5;opacity:1.0;" x1="776" x2="776" y1="1919" y2="1933"/>
  <g id="" transform="matrix(1 0 0 1 776 1933)">
   <path d="M 3.31055 0.126953 C 3.82812 0.126953 4.08203 -0.0683594 4.26758 -0.605469 L 5.52734 -4.0625 L 11.2891 -4.0625 L 12.5488 -0.605469 C 12.7344 -0.0683594 12.9883 0.126953 13.4961 0.126953 C 14.0137 0.126953 14.3457 -0.185547 14.3457 -0.673828 C 14.3457 -0.839844 14.3164 -0.986328 14.2383 -1.20117 L 9.6582 -13.3887 C 9.43359 -13.9941 9.0332 -14.2871 8.4082 -14.2871 C 7.80273 -14.2871 7.39258 -13.9941 7.17773 -13.3984 L 2.59766 -1.19141 C 2.51953 -0.976562 2.49023 -0.830078 2.49023 -0.664062 C 2.49023 -0.175781 2.80273 0.126953 3.31055 0.126953 Z M 6.00586 -5.53711 L 8.37891 -12.1094 L 8.42773 -12.1094 L 10.8008 -5.53711 Z"/>
  </g>
  <line id="" style="fill:none;stroke:#00AEEF;stroke-width:0.5;opacity:1.0;" x1="792.836" x2="792.836" y1="1919" y2="1933"/>
  <text style="stroke:none;fill:black;font-family:-apple-system,&quot;SF Pro Display&quot;,&quot;SF Pro Text&quot;,Helvetica,sans-serif;font-weight:bold;" transform="matrix(1 0 0 1 776 1953)">Margins</text>
  <text style="stroke:none;fill:black;font-family:-apple-system,&quot;SF Pro Display&quot;,&quot;SF Pro Text&quot;,Helvetica,sans-serif;" transform="matrix(1 0 0 1 776 1971)">Leading and trailing margins on the left and right side of each symbol</text>
  <text style="stroke:none;fill:black;font-family:-apple-system,&quot;SF Pro Display&quot;,&quot;SF Pro Text&quot;,Helvetica,sans-serif;" transform="matrix(1 0 0 1 776 1989)">can be adjusted by modifying the x-location of the margin guidelines.</text>
  <text style="stroke:none;fill:black;font-family:-apple-system,&quot;SF Pro Display&quot;,&quot;SF Pro Text&quot;,Helvetica,sans-serif;" transform="matrix(1 0 0 1 776 2007)">Modifications are automatically applied proportionally to all</text>
  <text style="stroke:none;fill:black;font-family:-apple-system,&quot;SF Pro Display&quot;,&quot;SF Pro Text&quot;,Helvetica,sans-serif;" transform="matrix(1 0 0 1 776 2025)">scales and weights.</text>
  <g id="" transform="matrix(1 0 0 1 1289 1933)">
   <path d="M 2.8418 1.86523 L 4.54102 3.57422 C 5.40039 4.44336 6.38672 4.38477 7.31445 3.35938 L 17.4902 -7.85156 C 17.7539 -7.76367 18.0273 -7.7832 18.3398 -7.8418 L 19.4043 -8.03711 L 20.0684 -7.36328 L 20.0293 -6.80664 C 19.9902 -6.30859 20.1172 -5.92773 20.6055 -5.44922 L 21.3672 -4.70703 C 21.8457 -4.22852 22.4609 -4.19922 22.9297 -4.66797 L 25.8398 -7.58789 C 26.3086 -8.05664 26.2891 -8.65234 25.8105 -9.13086 L 25.0391 -9.89258 C 24.5605 -10.3711 24.1895 -10.5273 23.7109 -10.4883 L 23.1348 -10.4395 L 22.4902 -11.0742 L 22.7344 -12.1973 C 22.8613 -12.7637 22.7051 -13.2031 22.1191 -13.7891 L 19.9219 -15.9766 C 16.582 -19.2969 12.1484 -19.2188 9.25781 -16.3281 C 8.83789 -15.918 8.80859 -15.3418 9.04297 -14.9512 C 9.27734 -14.5898 9.73633 -14.3555 10.3809 -14.5215 C 11.8457 -14.8633 13.3691 -14.9219 14.7949 -13.9844 L 14.209 -12.5293 C 14.0137 -12.0508 13.9844 -11.6504 14.1113 -11.2891 L 3.04688 -0.898438 C 2.06055 0.0195312 1.98242 0.996094 2.8418 1.86523 Z M 10.752 -15.957 C 13.1836 -17.7344 16.4746 -17.4316 18.7012 -15.2051 L 21.1328 -12.793 C 21.3672 -12.5586 21.4062 -12.373 21.3379 -12.0312 L 21.0156 -10.5469 L 22.5195 -9.0625 L 23.5059 -9.12109 C 23.7598 -9.13086 23.8379 -9.11133 24.0332 -8.91602 L 24.6094 -8.33984 L 22.168 -5.89844 L 21.5918 -6.47461 C 21.3965 -6.66992 21.3672 -6.74805 21.377 -7.01172 L 21.4453 -7.98828 L 19.9512 -9.47266 L 18.4277 -9.21875 C 18.1055 -9.15039 17.959 -9.17969 17.7148 -9.41406 L 15.7129 -11.416 C 15.459 -11.6504 15.4297 -11.8164 15.5859 -12.1875 L 16.4648 -14.2773 C 14.9023 -15.7324 12.8711 -16.3574 10.8398 -15.7617 C 10.6836 -15.7227 10.625 -15.8496 10.752 -15.957 Z M 5.27344 2.30469 L 4.10156 1.14258 C 3.63281 0.683594 3.74023 0.341797 4.14062 -0.0195312 L 14.9512 -10.1953 L 16.416 -8.71094 L 6.42578 2.27539 C 6.07422 2.67578 5.74219 2.77344 5.27344 2.30469 Z"/>
  </g>
  <text style="stroke:none;fill:black;font-family:-apple-system,&quot;SF Pro Display&quot;,&quot;SF Pro Text&quot;,Helvetica,sans-serif;font-weight:bold;" transform="matrix(1 0 0 1 1289 1953)">Exporting</text>
  <text style="stroke:none;fill:black;font-family:-apple-system,&quot;SF Pro Display&quot;,&quot;SF Pro Text&quot;,Helvetica,sans-serif;" transform="matrix(1 0 0 1 1289 1971)">Symbols should be outlined when exporting to ensure the</text>
  <text style="stroke:none;fill:black;font-family:-apple-system,&quot;SF Pro Display&quot;,&quot;SF Pro Text&quot;,Helvetica,sans-serif;" transform="matrix(1 0 0 1 1289 1989)">design is preserved when submitting to Xcode.</text>
  <text id="template-version" style="stroke:none;fill:black;font-family:-apple-system,&quot;SF Pro Display&quot;,&quot;SF Pro Text&quot;,Helvetica,sans-serif;text-anchor:end;" transform="matrix(1 0 0 1 3036 1933)">Template v.2.0</text>
  <text style="stroke:none;fill:black;font-family:-apple-system,&quot;SF Pro Display&quot;,&quot;SF Pro Text&quot;,Helvetica,sans-serif;text-anchor:end;" transform="matrix(1 0 0 1 3036 1951)">Requires Xcode 12 or greater</text>
  <text style="stroke:none;fill:black;font-family:-apple-system,&quot;SF Pro Display&quot;,&quot;SF Pro Text&quot;,Helvetica,sans-serif;text-anchor:end;" transform="matrix(1 0 0 1 3036 1969)">Generated from sheqelsign.square.fill</text>
  <text style="stroke:none;fill:black;font-family:-apple-system,&quot;SF Pro Display&quot;,&quot;SF Pro Text&quot;,Helvetica,sans-serif;text-anchor:end;" transform="matrix(1 0 0 1 3036 1987)">Typeset at 100 points</text>
  <text style="stroke:none;fill:black;font-family:-apple-system,&quot;SF Pro Display&quot;,&quot;SF Pro Text&quot;,Helvetica,sans-serif;" transform="matrix(1 0 0 1 263 726)">Small</text>
  <text style="stroke:none;fill:black;font-family:-apple-system,&quot;SF Pro Display&quot;,&quot;SF Pro Text&quot;,Helvetica,sans-serif;" transform="matrix(1 0 0 1 263 1156)">Medium</text>
  <text style="stroke:none;fill:black;font-family:-apple-system,&quot;SF Pro Display&quot;,&quot;SF Pro Text&quot;,Helvetica,sans-serif;" transform="matrix(1 0 0 1 263 1586)">Large</text>
 </g>
 <g id="Guides">
  <g id="H-reference" style="fill:#27AAE1;stroke:none;" transform="matrix(1 0 0 1 339 696)">
   <path d="M 0.976562 0 L 3.66211 0 L 12.9883 -24.4629 L 45.7031 -24.4629 L 55.0781 0 L 57.7148 0 L 30.6152 -70.459 L 28.125 -70.459 Z M 29.2969 -67.1387 L 29.3945 -67.1387 L 44.873 -26.709 L 13.8672 -26.709 Z"/>
  </g>
  <line id="Baseline-S" style="fill:none;stroke:#27AAE1;opacity:1;stroke-width:0.5;" x1="263" x2="3036" y1="696" y2="696"/>
  <line id="Capline-S" style="fill:none;stroke:#27AAE1;opacity:1;stroke-width:0.5;" x1="263" x2="3036" y1="625.541" y2="625.541"/>
  <g id="H-reference" style="fill:#27AAE1;stroke:none;" transform="matrix(1 0 0 1 339 1126)">
   <path d="M 0.976562 0 L 3.66211 0 L 12.9883 -24.4629 L 45.7031 -24.4629 L 55.0781 0 L 57.7148 0 L 30.6152 -70.459 L 28.125 -70.459 Z M 29.2969 -67.1387 L 29.3945 -67.1387 L 44.873 -26.709 L 13.8672 -26.709 Z"/>
  </g>
  <line id="Baseline-M" style="fill:none;stroke:#27AAE1;opacity:1;stroke-width:0.5;" x1="263" x2="3036" y1="1126" y2="1126"/>
  <line id="Capline-M" style="fill:none;stroke:#27AAE1;opacity:1;stroke-width:0.5;" x1="263" x2="3036" y1="1055.54" y2="1055.54"/>
  <g id="H-reference" style="fill:#27AAE1;stroke:none;" transform="matrix(1 0 0 1 339 1556)">
   <path d="M 0.976562 0 L 3.66211 0 L 12.9883 -24.4629 L 45.7031 -24.4629 L 55.0781 0 L 57.7148 0 L 30.6152 -70.459 L 28.125 -70.459 Z M 29.2969 -67.1387 L 29.3945 -67.1387 L 44.873 -26.709 L 13.8672 -26.709 Z"/>
  </g>
  <line id="Baseline-L" style="fill:none;stroke:#27AAE1;opacity:1;stroke-width:0.5;" x1="263" x2="3036" y1="1556" y2="1556"/>
  <line id="Capline-L" style="fill:none;stroke:#27AAE1;opacity:1;stroke-width:0.5;" x1="263" x2="3036" y1="1485.54" y2="1485.54"/>
  <line id="left-margin" style="fill:none;stroke:#00AEEF;stroke-width:0.5;opacity:1.0;" x1="1392.45" x2="1392.45" y1="1030.79" y2="1150.12"/>
  <line id="right-margin" style="fill:none;stroke:#00AEEF;stroke-width:0.5;opacity:1.0;" x1="1507.24" x2="1507.24" y1="1030.79" y2="1150.12"/>
 </g>
 <g id="Symbols">
  <g id="Black-L" transform="matrix(1 0 0 1 2855.62 1556)">
   <path d="M 39.9902 26.5137 L 115.576 26.5137 C 130.811 26.5137 139.502 17.8711 139.502 2.68555 L 139.502 -73.0957 C 139.502 -88.2812 130.811 -96.875 115.576 -96.875 L 39.9902 -96.875 C 24.7559 -96.875 16.0645 -88.2812 16.0645 -73.0957 L 16.0645 2.68555 C 16.0645 17.8711 24.7559 26.5137 39.9902 26.5137 Z M 68.7012 -15.5762 L 68.7012 -40.1367 C 68.7012 -42.5293 69.9707 -43.7988 72.1191 -43.7988 C 74.2188 -43.7988 75.4395 -42.5293 75.4395 -40.1367 L 75.4395 -20.9473 L 83.2031 -20.9473 C 88.1348 -20.9473 89.4043 -22.8027 89.4043 -27.7344 L 89.4043 -57.2266 C 89.4043 -61.8164 91.7969 -64.502 96.1914 -64.502 C 100.439 -64.502 102.93 -61.7676 102.93 -57.2266 L 102.93 -24.5605 C 102.93 -10.8887 97.3633 -5.85938 85.2539 -5.85938 L 79.0039 -5.85938 C 72.1191 -5.85938 68.7012 -8.64258 68.7012 -15.5762 Z M 51.5625 -12.5488 L 51.5625 -54.1016 C 51.5625 -61.0352 54.8828 -63.9648 61.8652 -63.9648 L 70.3613 -63.9648 C 81.7383 -63.9648 85.791 -59.7656 85.791 -48.1934 L 85.791 -29.541 C 85.791 -27.1484 84.5215 -25.8789 82.4219 -25.8789 C 80.2734 -25.8789 79.0039 -27.1484 79.0039 -29.541 L 79.0039 -43.1641 C 79.0039 -47.3633 77.4414 -48.8281 73.0469 -48.8281 L 65.0391 -48.8281 L 65.0391 -12.6465 C 65.0391 -8.10547 62.5 -5.37109 58.252 -5.37109 C 53.9062 -5.37109 51.5625 -8.00781 51.5625 -12.5488 Z"/>
  </g>
  <g id="Heavy-L" transform="matrix(1 0 0 1 2559.93 1556)">
   <path d="M 38.8184 25.4883 L 114.697 25.4883 C 129.346 25.4883 137.451 17.4316 137.451 2.88086 L 137.451 -73.2422 C 137.451 -87.793 129.346 -95.8496 114.697 -95.8496 L 38.8184 -95.8496 C 24.2188 -95.8496 16.0645 -87.793 16.0645 -73.2422 L 16.0645 2.88086 C 16.0645 17.4316 24.2188 25.4883 38.8184 25.4883 Z M 67.2852 -13.9648 L 67.2852 -41.1621 C 67.2852 -43.5059 68.6035 -44.7754 70.7031 -44.7754 C 72.8027 -44.7754 74.0234 -43.5059 74.0234 -41.1621 L 74.0234 -18.75 L 82.0801 -18.75 C 87.5488 -18.75 89.1602 -20.5566 89.1602 -26.2695 L 89.1602 -58.1055 C 89.1602 -62.1094 91.3086 -64.502 95.1172 -64.502 C 98.877 -64.502 101.074 -62.1094 101.074 -58.1055 L 101.074 -23.877 C 101.074 -10.498 95.7031 -5.51758 83.9355 -5.51758 L 76.1719 -5.51758 C 70.3125 -5.51758 67.2852 -8.00781 67.2852 -13.9648 Z M 51.1719 -11.2793 L 51.1719 -55.4199 C 51.1719 -61.3281 54.1016 -63.9648 60.0586 -63.9648 L 69.5801 -63.9648 C 80.7129 -63.9648 84.9609 -59.6191 84.9609 -48.1445 L 84.9609 -28.2227 C 84.9609 -25.8789 83.6914 -24.6094 81.5918 -24.6094 C 79.4922 -24.6094 78.1738 -25.8789 78.1738 -28.2227 L 78.1738 -44.0918 C 78.1738 -49.0723 76.3184 -50.6836 71.3379 -50.6836 L 63.0371 -50.6836 L 63.0371 -11.377 C 63.0371 -7.37305 60.791 -4.98047 57.0801 -4.98047 C 53.3203 -4.98047 51.1719 -7.32422 51.1719 -11.2793 Z"/>
  </g>
  <g id="Bold-L" transform="matrix(1 0 0 1 2264.37 1556)">
   <path d="M 37.5 24.3652 L 113.721 24.3652 C 127.637 24.3652 135.156 16.8945 135.156 3.07617 L 135.156 -73.3887 C 135.156 -87.207 127.637 -94.7266 113.721 -94.7266 L 37.5 -94.7266 C 23.6328 -94.7266 16.0645 -87.2559 16.0645 -73.3887 L 16.0645 3.07617 C 16.0645 16.8945 23.6328 24.3652 37.5 24.3652 Z M 65.7227 -12.1582 L 65.7227 -42.2852 C 65.7227 -44.5801 67.0898 -45.8984 69.1406 -45.8984 C 71.1914 -45.8984 72.4609 -44.5801 72.4609 -42.2852 L 72.4609 -16.2598 L 80.8105 -16.2598 C 86.9141 -16.2598 88.8672 -18.0664 88.8672 -24.6582 L 88.8672 -59.1309 C 88.8672 -62.4512 90.7715 -64.502 93.9453 -64.502 C 97.1191 -64.502 99.0234 -62.4512 99.0234 -59.1309 L 99.0234 -23.0957 C 99.0234 -10.0586 93.8477 -5.12695 82.4707 -5.12695 L 72.998 -5.12695 C 68.2617 -5.12695 65.7227 -7.32422 65.7227 -12.1582 Z M 50.6836 -9.91211 L 50.6836 -56.8359 C 50.6836 -61.6699 53.2227 -63.9648 58.0566 -63.9648 L 68.75 -63.9648 C 79.5898 -63.9648 83.9844 -59.4727 83.9844 -48.1445 L 83.9844 -26.8066 C 83.9844 -24.5117 82.7148 -23.1934 80.6641 -23.1934 C 78.5645 -23.1934 77.1973 -24.5117 77.1973 -26.8066 L 77.1973 -45.166 C 77.1973 -50.9766 75 -52.7832 69.3848 -52.7832 L 60.8398 -52.7832 L 60.8398 -9.96094 C 60.8398 -6.64062 58.8867 -4.54102 55.8105 -4.54102 C 52.6367 -4.54102 50.6836 -6.54297 50.6836 -9.91211 Z"/>
  </g>
  <g id="Semibold-L" transform="matrix(1 0 0 1 1968.44 1556)">
   <path d="M 36.6211 23.584 L 113.037 23.584 C 126.514 23.584 133.594 16.5039 133.594 3.17383 L 133.594 -73.5352 C 133.594 -86.8164 126.514 -93.9453 113.037 -93.9453 L 36.6211 -93.9453 C 23.1934 -93.9453 16.0645 -86.8652 16.0645 -73.5352 L 16.0645 3.17383 C 16.0645 16.5527 23.1934 23.584 36.6211 23.584 Z M 64.6484 -10.8887 L 64.6484 -43.0664 C 64.6484 -45.3125 66.0645 -46.6309 68.0664 -46.6309 C 70.0684 -46.6309 71.4355 -45.3125 71.4355 -43.0664 L 71.4355 -14.5508 L 79.9805 -14.5508 C 86.4258 -14.5508 88.6719 -16.3574 88.6719 -23.5352 L 88.6719 -59.7656 C 88.6719 -62.6953 90.3809 -64.502 93.1641 -64.502 C 95.8984 -64.502 97.6074 -62.6953 97.6074 -59.7656 L 97.6074 -22.5586 C 97.6074 -9.76562 92.627 -4.83398 81.4453 -4.83398 L 70.8008 -4.83398 C 66.8457 -4.83398 64.6484 -6.83594 64.6484 -10.8887 Z M 50.3906 -8.93555 L 50.3906 -57.8613 C 50.3906 -61.8652 52.6367 -63.9648 56.6406 -63.9648 L 68.2129 -63.9648 C 78.8086 -63.9648 83.3496 -59.375 83.3496 -48.0957 L 83.3496 -25.7812 C 83.3496 -23.5352 82.0312 -22.2168 79.9805 -22.2168 C 77.9785 -22.2168 76.5625 -23.5352 76.5625 -25.7812 L 76.5625 -45.8496 C 76.5625 -52.2461 74.1211 -54.1992 68.0176 -54.1992 L 59.3262 -54.1992 L 59.3262 -8.98438 C 59.3262 -6.10352 57.6172 -4.24805 54.8828 -4.24805 C 52.1484 -4.24805 50.3906 -6.05469 50.3906 -8.93555 Z"/>
  </g>
  <g id="Medium-L" transform="matrix(1 0 0 1 1672.31 1556)">
   <path d="M 35.9375 22.998 L 112.5 22.998 C 125.635 22.998 132.422 16.2109 132.422 3.27148 L 132.422 -73.6328 C 132.422 -86.5234 125.635 -93.3105 112.5 -93.3105 L 35.9375 -93.3105 C 22.9004 -93.3105 16.0645 -86.5723 16.0645 -73.6328 L 16.0645 3.27148 C 16.0645 16.2598 22.9004 22.998 35.9375 22.998 Z M 63.8184 -9.91211 L 63.8184 -43.6523 C 63.8184 -45.8496 65.2344 -47.2168 67.2852 -47.2168 C 69.2383 -47.2168 70.6055 -45.8496 70.6055 -43.6523 L 70.6055 -13.2812 L 79.2969 -13.2812 C 86.084 -13.2812 88.5254 -15.0391 88.5254 -22.6562 L 88.5254 -60.3027 C 88.5254 -62.8906 90.0879 -64.5508 92.5293 -64.5508 C 94.9707 -64.5508 96.4844 -62.8418 96.4844 -60.3027 L 96.4844 -22.1191 C 96.4844 -9.52148 91.6504 -4.63867 80.7129 -4.63867 L 69.1406 -4.63867 C 65.7715 -4.63867 63.8184 -6.49414 63.8184 -9.91211 Z M 50.1465 -8.20312 L 50.1465 -58.5938 C 50.1465 -62.0605 52.1484 -63.9648 55.5664 -63.9648 L 67.7734 -63.9648 C 78.2227 -63.9648 82.8613 -59.3262 82.8613 -48.0957 L 82.8613 -25.0488 C 82.8613 -22.8516 81.543 -21.4844 79.4922 -21.4844 C 77.4902 -21.4844 76.0742 -22.8516 76.0742 -25.0488 L 76.0742 -46.4355 C 76.0742 -53.2715 73.4375 -55.2734 66.9922 -55.2734 L 58.1543 -55.2734 L 58.1543 -8.25195 C 58.1543 -5.71289 56.5918 -4.00391 54.1992 -4.00391 C 51.8066 -4.00391 50.1465 -5.61523 50.1465 -8.20312 Z"/>
  </g>
  <g id="Regular-L" transform="matrix(1 0 0 1 1376.38 1556)">
   <path d="M 35.0586 22.2168 L 111.816 22.2168 C 124.463 22.2168 130.859 15.8691 130.859 3.41797 L 130.859 -73.7305 C 130.859 -86.1816 124.463 -92.5293 111.816 -92.5293 L 35.0586 -92.5293 C 22.4609 -92.5293 16.0645 -86.2305 16.0645 -73.7305 L 16.0645 3.41797 C 16.0645 15.918 22.4609 22.2168 35.0586 22.2168 Z M 62.793 -8.69141 L 62.793 -44.4336 C 62.793 -46.582 64.209 -47.9492 66.2109 -47.9492 C 68.1641 -47.9492 69.5312 -46.582 69.5312 -44.4336 L 69.5312 -11.6211 L 78.4668 -11.6211 C 85.6445 -11.6211 88.3301 -13.3301 88.3301 -21.582 L 88.3301 -60.9863 C 88.3301 -63.1348 89.6973 -64.5508 91.748 -64.5508 C 93.75 -64.5508 95.0684 -63.0859 95.0684 -60.9863 L 95.0684 -21.582 C 95.0684 -9.22852 90.3809 -4.3457 79.6875 -4.3457 L 66.9922 -4.3457 C 64.4043 -4.3457 62.793 -6.00586 62.793 -8.69141 Z M 49.8535 -7.22656 L 49.8535 -59.5703 C 49.8535 -62.2559 51.5625 -64.0137 54.1992 -64.0137 L 67.1875 -64.0137 C 77.4414 -64.0137 82.2266 -59.2285 82.2266 -48.0957 L 82.2266 -24.0234 C 82.2266 -21.875 80.8594 -20.5078 78.8574 -20.5078 C 76.8555 -20.5078 75.4395 -21.875 75.4395 -24.0234 L 75.4395 -47.1191 C 75.4395 -54.541 72.5586 -56.6895 65.6738 -56.6895 L 56.6406 -56.6895 L 56.6406 -7.27539 C 56.6406 -5.17578 55.3223 -3.71094 53.3203 -3.71094 C 51.3184 -3.71094 49.8535 -5.12695 49.8535 -7.22656 Z"/>
  </g>
  <g id="Light-L" transform="matrix(1 0 0 1 1080.5 1556)">
   <path d="M 34.0332 21.4355 L 111.23 21.4355 C 123.096 21.4355 129.199 15.2344 129.199 3.56445 L 129.199 -73.8281 C 129.199 -85.5469 123.096 -91.6992 111.23 -91.6992 L 34.0332 -91.6992 C 22.168 -91.6992 16.0645 -85.6445 16.0645 -73.8281 L 16.0645 3.56445 C 16.0645 15.3809 22.168 21.4355 34.0332 21.4355 Z M 62.9883 -8.83789 L 62.9883 -44.7754 C 62.9883 -46.5332 64.1602 -47.6074 65.7715 -47.6074 C 67.334 -47.6074 68.457 -46.5332 68.457 -44.7754 L 68.457 -11.2305 L 77.0508 -11.2305 C 84.1309 -11.2305 87.207 -13.2812 87.207 -21.4844 L 87.207 -60.2539 C 87.207 -62.0117 88.3301 -63.0859 89.9902 -63.0859 C 91.6016 -63.0859 92.6758 -61.9629 92.6758 -60.2539 L 92.6758 -21.5332 C 92.6758 -10.0586 88.0371 -5.56641 77.832 -5.56641 L 66.2598 -5.56641 C 64.2578 -5.56641 62.9883 -6.78711 62.9883 -8.83789 Z M 50.7812 -7.8125 L 50.7812 -59.375 C 50.7812 -61.4258 52.0996 -62.7441 54.1016 -62.7441 L 66.8457 -62.7441 C 76.3184 -62.7441 80.4688 -58.4473 80.4688 -48.0957 L 80.4688 -23.7305 C 80.4688 -21.9727 79.3945 -20.8984 77.7832 -20.8984 C 76.1719 -20.8984 75 -21.9727 75 -23.7305 L 75 -47.3633 C 75 -54.7363 72.3633 -57.0312 65.8203 -57.0312 L 56.25 -57.0312 L 56.25 -7.86133 C 56.25 -6.10352 55.1758 -4.98047 53.5645 -4.98047 C 51.9531 -4.98047 50.7812 -6.05469 50.7812 -7.8125 Z"/>
  </g>
  <g id="Thin-L" transform="matrix(1 0 0 1 784.889 1556)">
   <path d="M 32.666 20.3613 L 110.352 20.3613 C 121.24 20.3613 127.002 14.4531 127.002 3.75977 L 127.002 -73.9746 C 127.002 -84.7168 121.24 -90.5762 110.352 -90.5762 L 32.666 -90.5762 C 21.7773 -90.5762 16.0645 -84.8633 16.0645 -73.9746 L 16.0645 3.75977 C 16.0645 14.6484 21.7773 20.3613 32.666 20.3613 Z M 63.2812 -9.08203 L 63.2812 -45.2148 C 63.2812 -46.4844 64.0625 -47.1191 65.1367 -47.1191 C 66.2598 -47.1191 66.9922 -46.4844 66.9922 -45.2148 L 66.9922 -10.791 L 75.1953 -10.791 C 82.0801 -10.791 85.791 -13.2324 85.791 -21.3379 L 85.791 -59.2285 C 85.791 -60.498 86.5234 -61.1816 87.6465 -61.1816 C 88.7207 -61.1816 89.4531 -60.498 89.4531 -59.2285 L 89.4531 -21.3867 C 89.4531 -11.1816 84.9609 -7.12891 75.3906 -7.12891 L 65.2344 -7.12891 C 64.0625 -7.12891 63.2812 -7.8125 63.2812 -9.08203 Z M 52.0508 -8.59375 L 52.0508 -59.082 C 52.0508 -60.3516 52.832 -61.1328 54.0039 -61.1328 L 66.4062 -61.1328 C 74.8047 -61.1328 78.125 -57.4219 78.125 -48.1445 L 78.125 -23.3398 C 78.125 -22.0703 77.3926 -21.3867 76.3184 -21.3867 C 75.1953 -21.3867 74.4629 -22.0703 74.4629 -23.3398 L 74.4629 -47.7051 C 74.4629 -54.9805 72.1191 -57.4219 66.0645 -57.4219 L 55.7129 -57.4219 L 55.7129 -8.59375 C 55.7129 -7.37305 54.9805 -6.68945 53.9062 -6.68945 C 52.7832 -6.68945 52.0508 -7.37305 52.0508 -8.59375 Z"/>
  </g>
  <g id="Ultralight-L" transform="matrix(1 0 0 1 488.739 1556)">
   <path d="M 31.9824 19.7754 L 109.961 19.7754 C 120.312 19.7754 125.879 14.0625 125.879 3.85742 L 125.879 -74.0723 C 125.879 -84.2773 120.312 -89.9902 109.961 -89.9902 L 31.9824 -89.9902 C 21.582 -89.9902 16.0645 -84.4727 16.0645 -74.0723 L 16.0645 3.85742 C 16.0645 14.2578 21.582 19.7754 31.9824 19.7754 Z M 52.6855 -8.98438 L 52.6855 -58.9355 C 52.6855 -59.7656 53.1738 -60.2539 53.9551 -60.2539 L 66.1621 -60.2539 C 74.0234 -60.2539 76.9531 -56.8848 76.9531 -48.1445 L 76.9531 -23.0957 C 76.9531 -22.1191 76.416 -21.6309 75.5371 -21.6309 C 74.707 -21.6309 74.1699 -22.1191 74.1699 -23.0957 L 74.1699 -47.9004 C 74.1699 -55.127 72.0215 -57.666 66.1621 -57.666 L 55.4199 -57.666 L 55.4199 -8.98438 C 55.4199 -8.00781 54.8828 -7.51953 54.0527 -7.51953 C 53.2227 -7.51953 52.6855 -8.00781 52.6855 -8.98438 Z M 63.4277 -9.17969 L 63.4277 -45.4102 C 63.4277 -46.4355 64.0137 -46.875 64.8438 -46.875 C 65.6738 -46.875 66.2109 -46.4355 66.2109 -45.4102 L 66.2109 -10.5469 L 74.2676 -10.5469 C 81.0547 -10.5469 85.0586 -13.2324 85.0586 -21.2402 L 85.0586 -58.7402 C 85.0586 -59.7656 85.5957 -60.2051 86.4258 -60.2051 C 87.2559 -60.2051 87.8418 -59.7656 87.8418 -58.7402 L 87.8418 -21.3379 C 87.8418 -11.7188 83.3496 -7.91016 74.1211 -7.91016 L 64.7461 -7.91016 C 63.9648 -7.91016 63.4277 -8.34961 63.4277 -9.17969 Z"/>
  </g>
  <g id="Black-M" transform="matrix(1 0 0 1 2872.19 1126)">
   <path d="M 31.9824 13.5742 L 90.4297 13.5742 C 102.686 13.5742 109.961 6.29883 109.961 -5.95703 L 109.961 -64.4043 C 109.961 -76.6602 102.686 -83.9355 90.4297 -83.9355 L 31.9824 -83.9355 C 19.7266 -83.9355 12.4512 -76.6602 12.4512 -64.4043 L 12.4512 -5.95703 C 12.4512 6.29883 19.7266 13.5742 31.9824 13.5742 Z M 55.2246 -22.3145 L 55.2246 -37.8418 C 55.2246 -39.5996 56.0547 -40.3809 57.5195 -40.3809 C 58.9844 -40.3809 59.7168 -39.5996 59.7168 -37.8418 L 59.7168 -26.9531 L 65.2344 -26.9531 C 68.3105 -26.9531 69.0918 -28.5645 69.0918 -31.2988 L 69.0918 -50.7324 C 69.0918 -54.7852 71.0938 -57.1289 75 -57.1289 C 78.8574 -57.1289 81.0059 -54.834 81.0059 -50.7324 L 81.0059 -27.832 C 81.0059 -17.334 76.416 -13.623 66.8457 -13.623 L 64.6484 -13.623 C 58.252 -13.623 55.2246 -15.8691 55.2246 -22.3145 Z M 41.0156 -19.6777 L 41.0156 -47.998 C 41.0156 -54.3945 43.8965 -56.8359 50.3418 -56.8359 L 55.3223 -56.8359 C 64.1113 -56.8359 66.6992 -54.0039 66.6992 -45.3125 L 66.6992 -32.4219 C 66.6992 -30.6641 65.918 -29.8828 64.4043 -29.8828 C 62.9395 -29.8828 62.1582 -30.6641 62.1582 -32.4219 L 62.1582 -40.2832 C 62.1582 -42.4316 61.5234 -43.4082 59.082 -43.4082 L 52.832 -43.4082 L 52.832 -19.7266 C 52.832 -15.625 50.6348 -13.2812 46.875 -13.2812 C 42.9688 -13.2812 41.0156 -15.5762 41.0156 -19.6777 Z"/>
  </g>
  <g id="Heavy-M" transform="matrix(1 0 0 1 2576.39 1126)">
   <path d="M 31.0059 12.6465 L 89.6484 12.6465 C 101.416 12.6465 108.154 5.9082 108.154 -5.81055 L 108.154 -64.5508 C 108.154 -76.2695 101.416 -83.0566 89.6484 -83.0566 L 31.0059 -83.0566 C 19.2383 -83.0566 12.4512 -76.3184 12.4512 -64.5508 L 12.4512 -5.81055 C 12.4512 5.9082 19.2383 12.6465 31.0059 12.6465 Z M 53.6621 -20.459 L 53.6621 -38.8672 C 53.6621 -40.625 54.5898 -41.5527 56.1035 -41.5527 C 57.666 -41.5527 58.4961 -40.625 58.4961 -38.8672 L 58.4961 -24.6094 L 64.4043 -24.6094 C 68.0664 -24.6094 69.0918 -26.1719 69.0918 -29.7363 L 69.0918 -51.8555 C 69.0918 -55.4199 70.8984 -57.5195 74.3164 -57.5195 C 77.6855 -57.5195 79.5898 -55.4199 79.5898 -51.8555 L 79.5898 -27.0996 C 79.5898 -16.6992 75.2441 -12.8906 65.918 -12.8906 L 61.7676 -12.8906 C 56.3477 -12.8906 53.6621 -14.9902 53.6621 -20.459 Z M 40.332 -18.1152 L 40.332 -49.4629 C 40.332 -54.9316 42.9199 -57.1777 48.3887 -57.1777 L 54.6387 -57.1777 C 63.3301 -57.1777 66.2109 -54.0527 66.2109 -45.2637 L 66.2109 -31.0547 C 66.2109 -29.2969 65.332 -28.418 63.8184 -28.418 C 62.2559 -28.418 61.3281 -29.2969 61.3281 -31.0547 L 61.3281 -41.2109 C 61.3281 -44.2383 60.3027 -45.3613 57.1289 -45.3613 L 50.7812 -45.3613 L 50.7812 -18.2129 C 50.7812 -14.5996 48.8281 -12.5488 45.5566 -12.5488 C 42.1387 -12.5488 40.332 -14.5508 40.332 -18.1152 Z"/>
  </g>
  <g id="Bold-M" transform="matrix(1 0 0 1 2280.68 1126)">
   <path d="M 29.8828 11.6699 L 88.7207 11.6699 C 99.9512 11.6699 106.152 5.46875 106.152 -5.66406 L 106.152 -64.6973 C 106.152 -75.8789 99.9512 -82.0312 88.7207 -82.0312 L 29.8828 -82.0312 C 18.6523 -82.0312 12.4512 -75.8789 12.4512 -64.6973 L 12.4512 -5.66406 C 12.4512 5.51758 18.6523 11.6699 29.8828 11.6699 Z M 51.9043 -18.4082 L 51.9043 -39.9902 C 51.9043 -41.8457 52.9297 -42.8223 54.541 -42.8223 C 56.1523 -42.8223 57.1289 -41.8457 57.1289 -39.9902 L 57.1289 -22.0215 L 63.4277 -22.0215 C 67.7734 -22.0215 69.0918 -23.4375 69.0918 -28.0273 L 69.0918 -53.1738 C 69.0918 -56.1523 70.7031 -57.959 73.584 -57.959 C 76.3672 -57.959 78.0273 -56.1523 78.0273 -53.1738 L 78.0273 -26.2695 C 78.0273 -15.9668 73.9258 -12.1094 64.8438 -12.1094 L 58.4961 -12.1094 C 54.1504 -12.1094 51.9043 -14.0137 51.9043 -18.4082 Z M 39.5508 -16.4062 L 39.5508 -51.123 C 39.5508 -55.5176 41.7969 -57.5195 46.2402 -57.5195 L 53.8086 -57.5195 C 62.4023 -57.5195 65.7227 -54.1504 65.7227 -45.2637 L 65.7227 -29.5898 C 65.7227 -27.7344 64.7461 -26.7578 63.0859 -26.7578 C 61.4746 -26.7578 60.4492 -27.7344 60.4492 -29.5898 L 60.4492 -42.2852 C 60.4492 -46.2891 58.9355 -47.5586 54.9316 -47.5586 L 48.4863 -47.5586 L 48.4863 -16.5039 C 48.4863 -13.5254 46.8262 -11.6699 44.043 -11.6699 C 41.2109 -11.6699 39.5508 -13.4766 39.5508 -16.4062 Z"/>
  </g>
  <g id="Semibold-M" transform="matrix(1 0 0 1 1984.65 1126)">
   <path d="M 29.1016 10.9863 L 88.0859 10.9863 C 98.9746 10.9863 104.785 5.17578 104.785 -5.56641 L 104.785 -64.8438 C 104.785 -75.5859 98.9746 -81.3477 88.0859 -81.3477 L 29.1016 -81.3477 C 18.2617 -81.3477 12.4512 -75.5859 12.4512 -64.8438 L 12.4512 -5.56641 C 12.4512 5.22461 18.2617 10.9863 29.1016 10.9863 Z M 50.6836 -17.041 L 50.6836 -40.8203 C 50.6836 -42.627 51.8066 -43.7012 53.4668 -43.7012 C 55.127 -43.7012 56.2012 -42.627 56.2012 -40.8203 L 56.2012 -20.2637 L 62.793 -20.2637 C 67.5781 -20.2637 69.0918 -21.582 69.0918 -26.8066 L 69.0918 -54.0527 C 69.0918 -56.6406 70.5566 -58.252 73.0469 -58.252 C 75.4883 -58.252 76.9531 -56.5918 76.9531 -54.0527 L 76.9531 -25.7324 C 76.9531 -15.4785 72.998 -11.5723 64.1113 -11.5723 L 56.2988 -11.5723 C 52.6367 -11.5723 50.6836 -13.3301 50.6836 -17.041 Z M 39.0137 -15.2344 L 39.0137 -52.2461 C 39.0137 -55.9082 41.0156 -57.7637 44.7266 -57.7637 L 53.2715 -57.7637 C 61.7676 -57.7637 65.3809 -54.1992 65.3809 -45.2148 L 65.3809 -28.5645 C 65.3809 -26.709 64.3066 -25.6348 62.5977 -25.6348 C 60.9375 -25.6348 59.8145 -26.709 59.8145 -28.5645 L 59.8145 -43.0176 C 59.8145 -47.6562 58.0078 -49.0723 53.4668 -49.0723 L 46.9238 -49.0723 L 46.9238 -15.2832 C 46.9238 -12.7441 45.4102 -11.084 43.0176 -11.084 C 40.5762 -11.084 39.0137 -12.6953 39.0137 -15.2344 Z"/>
  </g>
  <g id="Medium-M" transform="matrix(1 0 0 1 1688.47 1126)">
   <path d="M 28.5156 10.4492 L 87.6465 10.4492 C 98.2422 10.4492 103.711 4.98047 103.711 -5.46875 L 103.711 -64.8926 C 103.711 -75.3418 98.2422 -80.8105 87.6465 -80.8105 L 28.5156 -80.8105 C 17.9688 -80.8105 12.4512 -75.3906 12.4512 -64.8926 L 12.4512 -5.46875 C 12.4512 4.98047 17.9688 10.4492 28.5156 10.4492 Z M 49.7559 -15.9668 L 49.7559 -41.4062 C 49.7559 -43.2617 50.9277 -44.3848 52.6855 -44.3848 C 54.3457 -44.3848 55.4688 -43.2617 55.4688 -41.4062 L 55.4688 -18.8965 L 62.3047 -18.8965 C 67.4316 -18.8965 69.0918 -20.1172 69.0918 -25.8789 L 69.0918 -54.7363 C 69.0918 -57.0312 70.459 -58.4473 72.6562 -58.4473 C 74.8047 -58.4473 76.1719 -56.9824 76.1719 -54.7363 L 76.1719 -25.293 C 76.1719 -15.0879 72.3145 -11.1816 63.5742 -11.1816 L 54.5898 -11.1816 C 51.5137 -11.1816 49.7559 -12.793 49.7559 -15.9668 Z M 38.623 -14.3555 L 38.623 -53.125 C 38.623 -56.25 40.4297 -57.959 43.5547 -57.959 L 52.832 -57.959 C 61.3281 -57.959 65.0879 -54.1992 65.0879 -45.2148 L 65.0879 -27.7832 C 65.0879 -25.8789 63.9648 -24.7559 62.2559 -24.7559 C 60.5469 -24.7559 59.3262 -25.8789 59.3262 -27.7832 L 59.3262 -43.5547 C 59.3262 -48.7305 57.2754 -50.1953 52.2949 -50.1953 L 45.7031 -50.1953 L 45.7031 -14.4043 C 45.7031 -12.1582 44.3848 -10.6445 42.2363 -10.6445 C 40.0879 -10.6445 38.623 -12.1094 38.623 -14.3555 Z"/>
  </g>
  <g id="Regular-M" transform="matrix(1 0 0 1 1392.45 1126)">
   <path d="M 27.7832 9.76562 L 87.0117 9.76562 C 97.2656 9.76562 102.344 4.6875 102.344 -5.37109 L 102.344 -64.9902 C 102.344 -75.0488 97.2656 -80.127 87.0117 -80.127 L 27.7832 -80.127 C 17.5781 -80.127 12.4512 -75.0977 12.4512 -64.9902 L 12.4512 -5.37109 C 12.4512 4.73633 17.5781 9.76562 27.7832 9.76562 Z M 48.5352 -14.5508 L 48.5352 -42.1875 C 48.5352 -44.0918 49.8047 -45.2637 51.6113 -45.2637 C 53.3203 -45.2637 54.541 -44.0918 54.541 -42.1875 L 54.541 -17.1387 L 61.6211 -17.1387 C 67.2852 -17.1387 69.0918 -18.2617 69.0918 -24.707 L 69.0918 -55.6152 C 69.0918 -57.5195 70.3125 -58.7402 72.1191 -58.7402 C 73.9258 -58.7402 75.0977 -57.4707 75.0977 -55.6152 L 75.0977 -24.707 C 75.0977 -14.5996 71.4355 -10.6445 62.8418 -10.6445 L 52.3926 -10.6445 C 50 -10.6445 48.5352 -12.1582 48.5352 -14.5508 Z M 38.0859 -13.1836 L 38.0859 -54.248 C 38.0859 -56.6406 39.6973 -58.2031 42.0898 -58.2031 L 52.2949 -58.2031 C 60.6934 -58.2031 64.7461 -54.248 64.7461 -45.166 L 64.7461 -26.7578 C 64.7461 -24.8535 63.5742 -23.6328 61.7676 -23.6328 C 60.0098 -23.6328 58.7402 -24.8535 58.7402 -26.7578 L 58.7402 -44.2871 C 58.7402 -50.0977 56.3477 -51.709 50.8301 -51.709 L 44.1406 -51.709 L 44.1406 -13.2324 C 44.1406 -11.377 42.9688 -10.0586 41.2109 -10.0586 C 39.4531 -10.0586 38.0859 -11.3281 38.0859 -13.1836 Z"/>
  </g>
  <g id="Light-M" transform="matrix(1 0 0 1 1096.47 1126)">
   <path d="M 26.8555 9.0332 L 86.4746 9.0332 C 95.9961 9.0332 100.879 4.15039 100.879 -5.22461 L 100.879 -65.0879 C 100.879 -74.5117 95.9961 -79.3945 86.4746 -79.3945 L 26.8555 -79.3945 C 17.334 -79.3945 12.4512 -74.5605 12.4512 -65.0879 L 12.4512 -5.22461 C 12.4512 4.19922 17.334 9.0332 26.8555 9.0332 Z M 48.7305 -14.6973 L 48.7305 -42.4805 C 48.7305 -44.043 49.7559 -44.9707 51.1719 -44.9707 C 52.5879 -44.9707 53.5645 -44.043 53.5645 -42.4805 L 53.5645 -16.7969 L 60.3516 -16.7969 C 65.918 -16.7969 68.1152 -18.2617 68.1152 -24.6094 L 68.1152 -54.9316 C 68.1152 -56.4941 69.0918 -57.4707 70.5566 -57.4707 C 71.9727 -57.4707 72.9492 -56.4453 72.9492 -54.9316 L 72.9492 -24.6582 C 72.9492 -15.3809 69.2871 -11.7188 61.1816 -11.7188 L 51.709 -11.7188 C 49.9023 -11.7188 48.7305 -12.8418 48.7305 -14.6973 Z M 38.9648 -13.7207 L 38.9648 -54.0527 C 38.9648 -55.9082 40.1367 -57.1289 41.9922 -57.1289 L 52.002 -57.1289 C 59.668 -57.1289 63.1836 -53.5645 63.1836 -45.2148 L 63.1836 -26.4648 C 63.1836 -24.9023 62.207 -23.9746 60.791 -23.9746 C 59.375 -23.9746 58.3496 -24.9023 58.3496 -26.4648 L 58.3496 -44.5312 C 58.3496 -50.293 56.2012 -51.9531 50.9766 -51.9531 L 43.7988 -51.9531 L 43.7988 -13.7695 C 43.7988 -12.2559 42.8711 -11.2305 41.4062 -11.2305 C 39.9902 -11.2305 38.9648 -12.207 38.9648 -13.7207 Z"/>
  </g>
  <g id="Thin-M" transform="matrix(1 0 0 1 800.758 1126)">
   <path d="M 25.6348 8.05664 L 85.7422 8.05664 C 94.3848 8.05664 98.877 3.4668 98.877 -5.0293 L 98.877 -65.2344 C 98.877 -73.7305 94.3848 -78.3691 85.7422 -78.3691 L 25.6348 -78.3691 C 16.9922 -78.3691 12.4512 -73.877 12.4512 -65.2344 L 12.4512 -5.0293 C 12.4512 3.56445 16.9922 8.05664 25.6348 8.05664 Z M 49.0234 -14.8926 L 49.0234 -42.8711 C 49.0234 -43.9453 49.6582 -44.5801 50.6348 -44.5801 C 51.6113 -44.5801 52.2461 -43.9453 52.2461 -42.8711 L 52.2461 -16.4062 L 58.6914 -16.4062 C 64.0625 -16.4062 66.7969 -18.2129 66.7969 -24.4629 L 66.7969 -54.0527 C 66.7969 -55.127 67.4805 -55.7617 68.457 -55.7617 C 69.4336 -55.7617 70.0684 -55.127 70.0684 -54.0527 L 70.0684 -24.5117 C 70.0684 -16.3574 66.5039 -13.0859 58.9844 -13.0859 L 50.7812 -13.0859 C 49.707 -13.0859 49.0234 -13.7695 49.0234 -14.8926 Z M 40.0879 -14.4043 L 40.0879 -53.7598 C 40.0879 -54.9316 40.7715 -55.6641 41.8945 -55.6641 L 51.5625 -55.6641 C 58.3008 -55.6641 61.084 -52.6367 61.084 -45.2148 L 61.084 -26.0742 C 61.084 -25 60.4492 -24.4141 59.4727 -24.4141 C 58.4961 -24.4141 57.8613 -25 57.8613 -26.0742 L 57.8613 -44.8242 C 57.8613 -50.4883 55.957 -52.3438 51.1719 -52.3438 L 43.3105 -52.3438 L 43.3105 -14.4531 C 43.3105 -13.3789 42.6758 -12.7441 41.6992 -12.7441 C 40.7227 -12.7441 40.0879 -13.3301 40.0879 -14.4043 Z"/>
  </g>
  <g id="Ultralight-M" transform="matrix(1 0 0 1 504.535 1126)">
   <path d="M 25 7.56836 L 85.3516 7.56836 C 93.5059 7.56836 97.9004 3.125 97.9004 -4.98047 L 97.9004 -65.2832 C 97.9004 -73.3887 93.5059 -77.832 85.3516 -77.832 L 25 -77.832 C 16.7969 -77.832 12.4512 -73.4863 12.4512 -65.2832 L 12.4512 -4.98047 C 12.4512 3.22266 16.7969 7.56836 25 7.56836 Z M 40.625 -14.7949 L 40.625 -53.6133 C 40.625 -54.3945 41.1133 -54.8828 41.8457 -54.8828 L 51.3672 -54.8828 C 57.6172 -54.8828 60.0098 -52.1973 60.0098 -45.2148 L 60.0098 -25.8789 C 60.0098 -25.0488 59.5215 -24.6094 58.7891 -24.6094 C 58.0566 -24.6094 57.5684 -25.0488 57.5684 -25.8789 L 57.5684 -45.0195 C 57.5684 -50.5859 55.8594 -52.5391 51.2695 -52.5391 L 43.0664 -52.5391 L 43.0664 -14.7949 C 43.0664 -13.916 42.5781 -13.5254 41.8457 -13.5254 C 41.1133 -13.5254 40.625 -13.916 40.625 -14.7949 Z M 49.1211 -14.9902 L 49.1211 -43.0664 C 49.1211 -43.9453 49.6094 -44.3359 50.3418 -44.3359 C 51.0742 -44.3359 51.5625 -43.9453 51.5625 -43.0664 L 51.5625 -16.1621 L 57.8613 -16.1621 C 63.1348 -16.1621 66.1621 -18.1641 66.1621 -24.4141 L 66.1621 -53.6133 C 66.1621 -54.4434 66.6504 -54.8828 67.3828 -54.8828 C 68.1152 -54.8828 68.6035 -54.4434 68.6035 -53.6133 L 68.6035 -24.4629 C 68.6035 -16.8457 65.0879 -13.8184 57.8125 -13.8184 L 50.3418 -13.8184 C 49.6094 -13.8184 49.1211 -14.2578 49.1211 -14.9902 Z"/>
  </g>
  <g id="Black-S" transform="matrix(1 0 0 1 2885.5 696)">
   <path d="M 25 2.92969 L 70.8008 2.92969 C 80.3711 2.92969 86.0352 -2.73438 86.0352 -12.3047 L 86.0352 -58.1055 C 86.0352 -67.6758 80.3711 -73.3398 70.8008 -73.3398 L 25 -73.3398 C 15.4297 -73.3398 9.76562 -67.6758 9.76562 -58.1055 L 9.76562 -12.3047 C 9.76562 -2.73438 15.4297 2.92969 25 2.92969 Z M 43.1641 -24.9512 L 43.1641 -37.3535 C 43.1641 -38.7207 43.7988 -39.3555 44.9707 -39.3555 C 46.1426 -39.3555 46.7285 -38.7207 46.7285 -37.3535 L 46.7285 -28.5645 L 51.0742 -28.5645 C 53.5156 -28.5645 54.1504 -29.834 54.1504 -32.0312 L 54.1504 -47.4609 C 54.1504 -50.6348 55.7129 -52.4414 58.7402 -52.4414 C 61.7188 -52.4414 63.3789 -50.6348 63.3789 -47.4609 L 63.3789 -29.3945 C 63.3789 -21.1426 59.8145 -18.2129 52.3438 -18.2129 L 50.4395 -18.2129 C 45.5078 -18.2129 43.1641 -19.9707 43.1641 -24.9512 Z M 32.0801 -22.9004 L 32.0801 -45.3613 C 32.0801 -50.293 34.3262 -52.1973 39.3066 -52.1973 L 43.3105 -52.1973 C 50.1953 -52.1973 52.2461 -49.9512 52.2461 -43.1152 L 52.2461 -32.9102 C 52.2461 -31.543 51.6113 -30.9082 50.4395 -30.9082 C 49.2676 -30.9082 48.6328 -31.543 48.6328 -32.9102 L 48.6328 -39.2578 C 48.6328 -41.0156 48.0957 -41.7969 46.1426 -41.7969 L 41.2598 -41.7969 L 41.2598 -22.9492 C 41.2598 -19.7754 39.5508 -17.9688 36.6211 -17.9688 C 33.5938 -17.9688 32.0801 -19.7266 32.0801 -22.9004 Z"/>
  </g>
  <g id="Heavy-S" transform="matrix(1 0 0 1 2589.4 696)">
   <path d="M 24.3652 2.34375 L 70.2637 2.34375 C 79.541 2.34375 84.8145 -2.97852 84.8145 -12.207 L 84.8145 -58.2031 C 84.8145 -67.4316 79.541 -72.7539 70.2637 -72.7539 L 24.3652 -72.7539 C 15.0879 -72.7539 9.76562 -67.4316 9.76562 -58.2031 L 9.76562 -12.207 C 9.76562 -2.97852 15.0879 2.34375 24.3652 2.34375 Z M 41.9434 -23.5352 L 41.9434 -38.0859 C 41.9434 -39.5508 42.6758 -40.2832 43.9453 -40.2832 C 45.166 -40.2832 45.8984 -39.5508 45.8984 -38.0859 L 45.8984 -26.8066 L 50.5371 -26.8066 C 53.4668 -26.8066 54.248 -27.9785 54.248 -30.8594 L 54.248 -48.4375 C 54.248 -51.2207 55.7129 -52.8809 58.3984 -52.8809 C 61.0352 -52.8809 62.5488 -51.2207 62.5488 -48.4375 L 62.5488 -28.8574 C 62.5488 -20.5566 59.1309 -17.5781 51.8066 -17.5781 L 48.291 -17.5781 C 44.043 -17.5781 41.9434 -19.2383 41.9434 -23.5352 Z M 31.4453 -21.6797 L 31.4453 -46.4844 C 31.4453 -50.7812 33.4961 -52.5879 37.793 -52.5879 L 42.7734 -52.5879 C 49.6582 -52.5879 52.0508 -50.0977 52.0508 -43.1152 L 52.0508 -31.9336 C 52.0508 -30.4688 51.3184 -29.7363 50.0488 -29.7363 C 48.7793 -29.7363 48.0469 -30.4688 48.0469 -31.9336 L 48.0469 -39.9414 C 48.0469 -42.3828 47.168 -43.2617 44.6289 -43.2617 L 39.6973 -43.2617 L 39.6973 -21.7285 C 39.6973 -18.8965 38.1836 -17.2852 35.5469 -17.2852 C 32.8613 -17.2852 31.4453 -18.8477 31.4453 -21.6797 Z"/>
  </g>
  <g id="Bold-S" transform="matrix(1 0 0 1 2293.35 696)">
   <path d="M 23.6328 1.66016 L 69.6289 1.66016 C 78.6133 1.66016 83.4961 -3.22266 83.4961 -12.1094 L 83.4961 -58.3008 C 83.4961 -67.1875 78.6133 -72.0703 69.6289 -72.0703 L 23.6328 -72.0703 C 14.6973 -72.0703 9.76562 -67.1875 9.76562 -58.3008 L 9.76562 -12.1094 C 9.76562 -3.22266 14.6973 1.66016 23.6328 1.66016 Z M 40.5273 -21.9727 L 40.5273 -38.916 C 40.5273 -40.4297 41.4062 -41.3086 42.7734 -41.3086 C 44.1406 -41.3086 44.9707 -40.4297 44.9707 -38.916 L 44.9707 -24.9023 L 49.9512 -24.9023 C 53.418 -24.9023 54.3457 -25.8789 54.3457 -29.541 L 54.3457 -49.4629 C 54.3457 -51.9043 55.6641 -53.3691 58.0078 -53.3691 C 60.2539 -53.3691 61.6211 -51.8555 61.6211 -49.4629 L 61.6211 -28.2227 C 61.6211 -19.9219 58.3496 -16.8457 51.1719 -16.8457 L 45.8984 -16.8457 C 42.3828 -16.8457 40.5273 -18.4082 40.5273 -21.9727 Z M 30.7617 -20.3125 L 30.7617 -47.8027 C 30.7617 -51.3184 32.5684 -52.9785 36.1328 -52.9785 L 42.1875 -52.9785 C 49.1211 -52.9785 51.8555 -50.1953 51.8555 -43.0664 L 51.8555 -30.8105 C 51.8555 -29.2969 51.0254 -28.4668 49.6582 -28.4668 C 48.291 -28.4668 47.4121 -29.2969 47.4121 -30.8105 L 47.4121 -40.7227 C 47.4121 -43.8965 46.1426 -44.873 42.9199 -44.873 L 37.9883 -44.873 L 37.9883 -20.3613 C 37.9883 -17.9688 36.6211 -16.4551 34.375 -16.4551 C 32.0801 -16.4551 30.7617 -17.9199 30.7617 -20.3125 Z"/>
  </g>
  <g id="Semibold-S" transform="matrix(1 0 0 1 1997.1 696)">
   <path d="M 23.0957 1.17188 L 69.1895 1.17188 C 77.9297 1.17188 82.5684 -3.36914 82.5684 -12.0117 L 82.5684 -58.3984 C 82.5684 -67.041 77.9297 -71.582 69.1895 -71.582 L 23.0957 -71.582 C 14.4043 -71.582 9.76562 -67.041 9.76562 -58.3984 L 9.76562 -12.0117 C 9.76562 -3.36914 14.4043 1.17188 23.0957 1.17188 Z M 39.5508 -20.8496 L 39.5508 -39.502 C 39.5508 -41.0645 40.5273 -42.041 41.9922 -42.041 C 43.4082 -42.041 44.2871 -41.0645 44.2871 -39.502 L 44.2871 -23.5352 L 49.5605 -23.5352 C 53.3691 -23.5352 54.4434 -24.4629 54.4434 -28.6133 L 54.4434 -50.2441 C 54.4434 -52.3438 55.6641 -53.7109 57.7148 -53.7109 C 59.7168 -53.7109 60.9863 -52.3438 60.9863 -50.2441 L 60.9863 -27.7832 C 60.9863 -19.4824 57.8613 -16.3086 50.7324 -16.3086 L 44.2383 -16.3086 C 41.2109 -16.3086 39.5508 -17.8223 39.5508 -20.8496 Z M 30.2734 -19.3359 L 30.2734 -48.6816 C 30.2734 -51.709 31.9336 -53.2715 35.0098 -53.2715 L 41.7969 -53.2715 C 48.6816 -53.2715 51.709 -50.293 51.709 -43.0664 L 51.709 -30.0293 C 51.709 -28.4668 50.7812 -27.5391 49.3652 -27.5391 C 47.9004 -27.5391 46.9238 -28.4668 46.9238 -30.0293 L 46.9238 -41.2598 C 46.9238 -44.9707 45.4102 -46.0449 41.748 -46.0449 L 36.8164 -46.0449 L 36.8164 -19.3848 C 36.8164 -17.2852 35.5469 -15.918 33.5449 -15.918 C 31.543 -15.918 30.2734 -17.2363 30.2734 -19.3359 Z"/>
  </g>
  <g id="Medium-S" transform="matrix(1 0 0 1 1700.75 696)">
   <path d="M 22.7051 0.830078 L 68.8965 0.830078 C 77.4414 0.830078 81.8359 -3.51562 81.8359 -11.9629 L 81.8359 -58.4473 C 81.8359 -66.8945 77.4414 -71.2402 68.8965 -71.2402 L 22.7051 -71.2402 C 14.209 -71.2402 9.76562 -66.8945 9.76562 -58.4473 L 9.76562 -11.9629 C 9.76562 -3.51562 14.209 0.830078 22.7051 0.830078 Z M 38.8672 -20.0684 L 38.8672 -39.9414 C 38.8672 -41.5527 39.8926 -42.5781 41.3574 -42.5781 C 42.8223 -42.5781 43.7988 -41.5527 43.7988 -39.9414 L 43.7988 -22.5098 L 49.2676 -22.5098 C 53.3691 -22.5098 54.4922 -23.3887 54.4922 -27.9297 L 54.4922 -50.7812 C 54.4922 -52.6855 55.6641 -53.9551 57.5195 -53.9551 C 59.3262 -53.9551 60.498 -52.6855 60.498 -50.7812 L 60.498 -27.4414 C 60.498 -19.1406 57.4219 -15.9668 50.4395 -15.9668 L 42.9688 -15.9668 C 40.332 -15.9668 38.8672 -17.3828 38.8672 -20.0684 Z M 29.8828 -18.6523 L 29.8828 -49.3164 C 29.8828 -52.002 31.4453 -53.5156 34.1309 -53.5156 L 41.5039 -53.5156 C 48.3887 -53.5156 51.5625 -50.3906 51.5625 -43.0176 L 51.5625 -29.4922 C 51.5625 -27.8809 50.6348 -26.8555 49.1211 -26.8555 C 47.6562 -26.8555 46.582 -27.8809 46.582 -29.4922 L 46.582 -41.6992 C 46.582 -45.752 44.873 -46.875 40.8691 -46.875 L 35.8887 -46.875 L 35.8887 -18.7012 C 35.8887 -16.7969 34.7656 -15.5273 32.959 -15.5273 C 31.1035 -15.5273 29.8828 -16.748 29.8828 -18.6523 Z"/>
  </g>
  <g id="Regular-S" transform="matrix(1 0 0 1 1404.51 696)">
   <path d="M 22.2168 0.390625 L 68.457 0.390625 C 76.8066 0.390625 80.9082 -3.71094 80.9082 -11.9141 L 80.9082 -58.4961 C 80.9082 -66.6992 76.8066 -70.8008 68.457 -70.8008 L 22.2168 -70.8008 C 13.916 -70.8008 9.76562 -66.6992 9.76562 -58.4961 L 9.76562 -11.9141 C 9.76562 -3.71094 13.916 0.390625 22.2168 0.390625 Z M 37.8906 -18.9453 L 37.8906 -40.5273 C 37.8906 -42.1875 39.0137 -43.2617 40.5762 -43.2617 C 42.0898 -43.2617 43.1641 -42.1875 43.1641 -40.5273 L 43.1641 -21.1914 L 48.877 -21.1914 C 53.3203 -21.1914 54.541 -21.9727 54.541 -27.0508 L 54.541 -51.5137 C 54.541 -53.1738 55.6641 -54.2969 57.2266 -54.2969 C 58.7891 -54.2969 59.8633 -53.125 59.8633 -51.5137 L 59.8633 -27.0508 C 59.8633 -18.7012 56.9336 -15.4297 50 -15.4297 L 41.3086 -15.4297 C 39.209 -15.4297 37.8906 -16.7969 37.8906 -18.9453 Z M 29.3945 -17.7246 L 29.3945 -50.1953 C 29.3945 -52.3926 30.8105 -53.7598 32.959 -53.7598 L 41.1133 -53.7598 C 47.998 -53.7598 51.4648 -50.4883 51.4648 -43.0176 L 51.4648 -28.7109 C 51.4648 -27.0508 50.3906 -25.9766 48.8281 -25.9766 C 47.2656 -25.9766 46.1426 -27.0508 46.1426 -28.7109 L 46.1426 -42.2363 C 46.1426 -46.8262 44.1895 -47.998 39.6973 -47.998 L 34.7168 -47.998 L 34.7168 -17.7734 C 34.7168 -16.1621 33.6914 -14.9902 32.1289 -14.9902 C 30.5664 -14.9902 29.3945 -16.1133 29.3945 -17.7246 Z"/>
  </g>
  <g id="Light-S" transform="matrix(1 0 0 1 1108.46 696)">
   <path d="M 21.3867 -0.292969 L 67.9688 -0.292969 C 75.7324 -0.292969 79.5898 -4.15039 79.5898 -11.7676 L 79.5898 -58.5938 C 79.5898 -66.2109 75.7324 -70.1172 67.9688 -70.1172 L 21.3867 -70.1172 C 13.6719 -70.1172 9.76562 -66.2598 9.76562 -58.5938 L 9.76562 -11.7676 C 9.76562 -4.15039 13.6719 -0.292969 21.3867 -0.292969 Z M 38.0859 -19.0918 L 38.0859 -40.7715 C 38.0859 -42.1387 38.9648 -42.9688 40.2344 -42.9688 C 41.4551 -42.9688 42.334 -42.1387 42.334 -40.7715 L 42.334 -20.8984 L 47.7539 -20.8984 C 52.0996 -20.8984 53.7109 -21.9238 53.7109 -26.9531 L 53.7109 -50.9277 C 53.7109 -52.2461 54.5898 -53.125 55.8594 -53.125 C 57.0801 -53.125 57.959 -52.2461 57.959 -50.9277 L 57.959 -26.9531 C 57.959 -19.3848 55.0781 -16.4062 48.5352 -16.4062 L 40.7227 -16.4062 C 39.1113 -16.4062 38.0859 -17.4316 38.0859 -19.0918 Z M 30.1758 -18.1641 L 30.1758 -50.0488 C 30.1758 -51.709 31.25 -52.7832 32.9102 -52.7832 L 40.8203 -52.7832 C 47.1191 -52.7832 50.0488 -49.8535 50.0488 -43.0176 L 50.0488 -28.4668 C 50.0488 -27.0996 49.2188 -26.2695 47.998 -26.2695 C 46.7285 -26.2695 45.8496 -27.0996 45.8496 -28.4668 L 45.8496 -42.4316 C 45.8496 -46.9727 44.043 -48.2422 39.8438 -48.2422 L 34.4238 -48.2422 L 34.4238 -18.2129 C 34.4238 -16.8945 33.5938 -15.9668 32.3242 -15.9668 C 31.1035 -15.9668 30.1758 -16.8457 30.1758 -18.1641 Z"/>
  </g>
  <g id="Thin-S" transform="matrix(1 0 0 1 812.599 696)">
   <path d="M 20.3125 -1.12305 L 67.334 -1.12305 C 74.2676 -1.12305 77.8809 -4.78516 77.8809 -11.6211 L 77.8809 -58.6914 C 77.8809 -65.5762 74.2676 -69.2383 67.334 -69.2383 L 20.3125 -69.2383 C 13.3789 -69.2383 9.76562 -65.625 9.76562 -58.6914 L 9.76562 -11.6211 C 9.76562 -4.6875 13.3789 -1.12305 20.3125 -1.12305 Z M 38.3301 -19.2871 L 38.3301 -41.1133 C 38.3301 -42.0898 38.916 -42.627 39.7461 -42.627 C 40.5762 -42.627 41.1621 -42.0898 41.1621 -41.1133 L 41.1621 -20.5566 L 46.2891 -20.5566 C 50.5371 -20.5566 52.5879 -21.9238 52.5879 -26.8555 L 52.5879 -50.1465 C 52.5879 -51.0742 53.1738 -51.6602 54.0039 -51.6602 C 54.834 -51.6602 55.4199 -51.0742 55.4199 -50.1465 L 55.4199 -26.8555 C 55.4199 -20.2637 52.6367 -17.627 46.582 -17.627 L 39.9414 -17.627 C 38.9648 -17.627 38.3301 -18.2129 38.3301 -19.2871 Z M 31.1523 -18.7988 L 31.1523 -49.8047 C 31.1523 -50.8301 31.8359 -51.5137 32.8125 -51.5137 L 40.4785 -51.5137 C 45.9473 -51.5137 48.2422 -49.0723 48.2422 -43.0664 L 48.2422 -28.125 C 48.2422 -27.1973 47.6562 -26.6602 46.8262 -26.6602 C 45.9961 -26.6602 45.4102 -27.1973 45.4102 -28.125 L 45.4102 -42.6758 C 45.4102 -47.1191 43.8965 -48.584 40.0391 -48.584 L 34.0332 -48.584 L 34.0332 -18.7988 C 34.0332 -17.8711 33.4473 -17.334 32.6172 -17.334 C 31.7871 -17.334 31.1523 -17.8711 31.1523 -18.7988 Z"/>
  </g>
  <g id="Ultralight-S" transform="matrix(1 0 0 1 516.352 696)">
   <path d="M 19.7754 -1.5625 L 66.9922 -1.5625 C 73.5352 -1.5625 76.9531 -5.12695 76.9531 -11.5234 L 76.9531 -58.7891 C 76.9531 -65.2344 73.5352 -68.75 66.9922 -68.75 L 19.7754 -68.75 C 13.2324 -68.75 9.76562 -65.2832 9.76562 -58.7891 L 9.76562 -11.5234 C 9.76562 -5.0293 13.2324 -1.5625 19.7754 -1.5625 Z M 38.4766 -19.3848 L 38.4766 -41.3086 C 38.4766 -42.041 38.8672 -42.4316 39.502 -42.4316 C 40.1367 -42.4316 40.5762 -42.041 40.5762 -41.3086 L 40.5762 -20.3613 L 45.5566 -20.3613 C 49.707 -20.3613 52.002 -21.875 52.002 -26.7578 L 52.002 -49.7559 C 52.002 -50.4883 52.4414 -50.8789 53.0762 -50.8789 C 53.7109 -50.8789 54.1016 -50.4883 54.1016 -49.7559 L 54.1016 -26.8066 C 54.1016 -20.7031 51.3672 -18.2617 45.6055 -18.2617 L 39.5508 -18.2617 C 38.916 -18.2617 38.4766 -18.6523 38.4766 -19.3848 Z M 31.6895 -19.1406 L 31.6895 -49.707 C 31.6895 -50.3906 32.1289 -50.8301 32.7637 -50.8301 L 40.2832 -50.8301 C 45.3125 -50.8301 47.3145 -48.6328 47.3145 -43.0664 L 47.3145 -27.9785 C 47.3145 -27.2461 46.875 -26.8555 46.2402 -26.8555 C 45.6055 -26.8555 45.166 -27.2461 45.166 -27.9785 L 45.166 -42.8223 C 45.166 -47.2656 43.7988 -48.7305 40.1367 -48.7305 L 33.7891 -48.7305 L 33.7891 -19.1406 C 33.7891 -18.4082 33.3984 -18.0176 32.7637 -18.0176 C 32.1289 -18.0176 31.6895 -18.4082 31.6895 -19.1406 Z"/>
  </g>
 </g>
</svg>
