<?xml version="1.0" encoding="UTF-8"?>
<!--Generator: Apple Native CoreSVG 148-->
<!DOCTYPE svg
PUBLIC "-//W3C//DTD SVG 1.1//EN"
       "http://www.w3.org/Graphics/SVG/1.1/DTD/svg11.dtd">
<svg version="1.1" xmlns="http://www.w3.org/2000/svg" xmlns:xlink="http://www.w3.org/1999/xlink" width="3300" height="2200">
 <!--glyph: "uni100664.medium", point size: 100.000000, font version: "Version 16.0d11e1", template writer version: "8"-->
 <g id="Notes">
  <rect height="2200" id="artboard" style="fill:white;opacity:1" width="3300" x="0" y="0"/>
  <line id="" style="fill:none;stroke:black;opacity:1;stroke-width:0.5;" x1="263" x2="3036" y1="292" y2="292"/>
  <text style="stroke:none;fill:black;font-family:-apple-system,&quot;SF Pro Display&quot;,&quot;SF Pro Text&quot;,Helvetica,sans-serif;font-weight:bold;" transform="matrix(1 0 0 1 263 322)">Weight/Scale Variations</text>
  <text style="stroke:none;fill:black;font-family:-apple-system,&quot;SF Pro Display&quot;,&quot;SF Pro Text&quot;,Helvetica,sans-serif;text-anchor:middle;" transform="matrix(1 0 0 1 559.711 322)">Ultralight</text>
  <text style="stroke:none;fill:black;font-family:-apple-system,&quot;SF Pro Display&quot;,&quot;SF Pro Text&quot;,Helvetica,sans-serif;text-anchor:middle;" transform="matrix(1 0 0 1 856.422 322)">Thin</text>
  <text style="stroke:none;fill:black;font-family:-apple-system,&quot;SF Pro Display&quot;,&quot;SF Pro Text&quot;,Helvetica,sans-serif;text-anchor:middle;" transform="matrix(1 0 0 1 1153.13 322)">Light</text>
  <text style="stroke:none;fill:black;font-family:-apple-system,&quot;SF Pro Display&quot;,&quot;SF Pro Text&quot;,Helvetica,sans-serif;text-anchor:middle;" transform="matrix(1 0 0 1 1449.84 322)">Regular</text>
  <text style="stroke:none;fill:black;font-family:-apple-system,&quot;SF Pro Display&quot;,&quot;SF Pro Text&quot;,Helvetica,sans-serif;text-anchor:middle;" transform="matrix(1 0 0 1 1746.56 322)">Medium</text>
  <text style="stroke:none;fill:black;font-family:-apple-system,&quot;SF Pro Display&quot;,&quot;SF Pro Text&quot;,Helvetica,sans-serif;text-anchor:middle;" transform="matrix(1 0 0 1 2043.27 322)">Semibold</text>
  <text style="stroke:none;fill:black;font-family:-apple-system,&quot;SF Pro Display&quot;,&quot;SF Pro Text&quot;,Helvetica,sans-serif;text-anchor:middle;" transform="matrix(1 0 0 1 2339.98 322)">Bold</text>
  <text style="stroke:none;fill:black;font-family:-apple-system,&quot;SF Pro Display&quot;,&quot;SF Pro Text&quot;,Helvetica,sans-serif;text-anchor:middle;" transform="matrix(1 0 0 1 2636.69 322)">Heavy</text>
  <text style="stroke:none;fill:black;font-family:-apple-system,&quot;SF Pro Display&quot;,&quot;SF Pro Text&quot;,Helvetica,sans-serif;text-anchor:middle;" transform="matrix(1 0 0 1 2933.4 322)">Black</text>
  <line id="" style="fill:none;stroke:black;opacity:1;stroke-width:0.5;" x1="263" x2="3036" y1="1903" y2="1903"/>
  <g id="" transform="matrix(1 0 0 1 263 1933)">
   <path d="M 9.24805 0.830078 C 13.5547 0.830078 17.1387 -2.74414 17.1387 -7.05078 C 17.1387 -11.3574 13.5449 -14.9316 9.23828 -14.9316 C 4.94141 -14.9316 1.36719 -11.3574 1.36719 -7.05078 C 1.36719 -2.74414 4.95117 0.830078 9.24805 0.830078 Z M 9.24805 -0.654297 C 5.70312 -0.654297 2.87109 -3.49609 2.87109 -7.05078 C 2.87109 -10.6055 5.69336 -13.4473 9.23828 -13.4473 C 12.793 -13.4473 15.6348 -10.6055 15.6445 -7.05078 C 15.6543 -3.49609 12.8027 -0.654297 9.24805 -0.654297 Z M 9.22852 -3.62305 C 9.69727 -3.62305 9.9707 -3.93555 9.9707 -4.45312 L 9.9707 -6.31836 L 12.002 -6.31836 C 12.5 -6.31836 12.832 -6.57227 12.832 -7.04102 C 12.832 -7.51953 12.5195 -7.7832 12.002 -7.7832 L 9.9707 -7.7832 L 9.9707 -9.81445 C 9.9707 -10.332 9.69727 -10.6543 9.22852 -10.6543 C 8.75977 -10.6543 8.50586 -10.3125 8.50586 -9.81445 L 8.50586 -7.7832 L 6.49414 -7.7832 C 5.97656 -7.7832 5.64453 -7.51953 5.64453 -7.04102 C 5.64453 -6.57227 5.99609 -6.31836 6.49414 -6.31836 L 8.50586 -6.31836 L 8.50586 -4.45312 C 8.50586 -3.95508 8.75977 -3.62305 9.22852 -3.62305 Z"/>
  </g>
  <g id="" transform="matrix(1 0 0 1 281.506 1933)">
   <path d="M 11.709 2.91016 C 17.1582 2.91016 21.6699 -1.61133 21.6699 -7.05078 C 21.6699 -12.5 17.1484 -17.0117 11.6992 -17.0117 C 6.25977 -17.0117 1.74805 -12.5 1.74805 -7.05078 C 1.74805 -1.61133 6.26953 2.91016 11.709 2.91016 Z M 11.709 1.25 C 7.09961 1.25 3.41797 -2.44141 3.41797 -7.05078 C 3.41797 -11.6602 7.08984 -15.3516 11.6992 -15.3516 C 16.3086 -15.3516 20 -11.6602 20.0098 -7.05078 C 20.0195 -2.44141 16.3184 1.25 11.709 1.25 Z M 11.6797 -2.66602 C 12.207 -2.66602 12.5098 -3.01758 12.5098 -3.59375 L 12.5098 -6.23047 L 15.3223 -6.23047 C 15.8691 -6.23047 16.25 -6.51367 16.25 -7.03125 C 16.25 -7.55859 15.8887 -7.86133 15.3223 -7.86133 L 12.5098 -7.86133 L 12.5098 -10.6836 C 12.5098 -11.25 12.207 -11.6113 11.6797 -11.6113 C 11.1621 -11.6113 10.8789 -11.2305 10.8789 -10.6836 L 10.8789 -7.86133 L 8.07617 -7.86133 C 7.50977 -7.86133 7.13867 -7.55859 7.13867 -7.03125 C 7.13867 -6.51367 7.5293 -6.23047 8.07617 -6.23047 L 10.8789 -6.23047 L 10.8789 -3.59375 C 10.8789 -3.03711 11.1621 -2.66602 11.6797 -2.66602 Z"/>
  </g>
  <g id="" transform="matrix(1 0 0 1 304.924 1933)">
   <path d="M 14.9707 5.66406 C 21.9336 5.66406 27.6953 -0.0976562 27.6953 -7.05078 C 27.6953 -14.0137 21.9238 -19.7754 14.9609 -19.7754 C 8.00781 -19.7754 2.25586 -14.0137 2.25586 -7.05078 C 2.25586 -0.0976562 8.01758 5.66406 14.9707 5.66406 Z M 14.9707 3.84766 C 8.93555 3.84766 4.08203 -1.01562 4.08203 -7.05078 C 4.08203 -13.0957 8.92578 -17.9492 14.9609 -17.9492 C 21.0059 -17.9492 25.8594 -13.0957 25.8691 -7.05078 C 25.8789 -1.01562 21.0156 3.84766 14.9707 3.84766 Z M 14.9414 -1.38672 C 15.5176 -1.38672 15.8594 -1.77734 15.8594 -2.38281 L 15.8594 -6.13281 L 19.7754 -6.13281 C 20.3711 -6.13281 20.7812 -6.46484 20.7812 -7.02148 C 20.7812 -7.59766 20.3906 -7.93945 19.7754 -7.93945 L 15.8594 -7.93945 L 15.8594 -11.8652 C 15.8594 -12.4805 15.5176 -12.8711 14.9414 -12.8711 C 14.375 -12.8711 14.0527 -12.4609 14.0527 -11.8652 L 14.0527 -7.93945 L 10.1465 -7.93945 C 9.53125 -7.93945 9.13086 -7.59766 9.13086 -7.02148 C 9.13086 -6.46484 9.55078 -6.13281 10.1465 -6.13281 L 14.0527 -6.13281 L 14.0527 -2.38281 C 14.0527 -1.79688 14.375 -1.38672 14.9414 -1.38672 Z"/>
  </g>
  <text style="stroke:none;fill:black;font-family:-apple-system,&quot;SF Pro Display&quot;,&quot;SF Pro Text&quot;,Helvetica,sans-serif;font-weight:bold;" transform="matrix(1 0 0 1 263 1953)">Design Variations</text>
  <text style="stroke:none;fill:black;font-family:-apple-system,&quot;SF Pro Display&quot;,&quot;SF Pro Text&quot;,Helvetica,sans-serif;" transform="matrix(1 0 0 1 263 1971)">Symbols are supported in up to nine weights and three scales.</text>
  <text style="stroke:none;fill:black;font-family:-apple-system,&quot;SF Pro Display&quot;,&quot;SF Pro Text&quot;,Helvetica,sans-serif;" transform="matrix(1 0 0 1 263 1989)">For optimal layout with text and other symbols, vertically align</text>
  <text style="stroke:none;fill:black;font-family:-apple-system,&quot;SF Pro Display&quot;,&quot;SF Pro Text&quot;,Helvetica,sans-serif;" transform="matrix(1 0 0 1 263 2007)">symbols with the adjacent text.</text>
  <line id="" style="fill:none;stroke:#00AEEF;stroke-width:0.5;opacity:1.0;" x1="776" x2="776" y1="1919" y2="1933"/>
  <g id="" transform="matrix(1 0 0 1 776 1933)">
   <path d="M 3.31055 0.126953 C 3.82812 0.126953 4.08203 -0.0683594 4.26758 -0.605469 L 5.52734 -4.0625 L 11.2891 -4.0625 L 12.5488 -0.605469 C 12.7344 -0.0683594 12.9883 0.126953 13.4961 0.126953 C 14.0137 0.126953 14.3457 -0.185547 14.3457 -0.673828 C 14.3457 -0.839844 14.3164 -0.986328 14.2383 -1.20117 L 9.6582 -13.3887 C 9.43359 -13.9941 9.0332 -14.2871 8.4082 -14.2871 C 7.80273 -14.2871 7.39258 -13.9941 7.17773 -13.3984 L 2.59766 -1.19141 C 2.51953 -0.976562 2.49023 -0.830078 2.49023 -0.664062 C 2.49023 -0.175781 2.80273 0.126953 3.31055 0.126953 Z M 6.00586 -5.53711 L 8.37891 -12.1094 L 8.42773 -12.1094 L 10.8008 -5.53711 Z"/>
  </g>
  <line id="" style="fill:none;stroke:#00AEEF;stroke-width:0.5;opacity:1.0;" x1="792.836" x2="792.836" y1="1919" y2="1933"/>
  <text style="stroke:none;fill:black;font-family:-apple-system,&quot;SF Pro Display&quot;,&quot;SF Pro Text&quot;,Helvetica,sans-serif;font-weight:bold;" transform="matrix(1 0 0 1 776 1953)">Margins</text>
  <text style="stroke:none;fill:black;font-family:-apple-system,&quot;SF Pro Display&quot;,&quot;SF Pro Text&quot;,Helvetica,sans-serif;" transform="matrix(1 0 0 1 776 1971)">Leading and trailing margins on the left and right side of each symbol</text>
  <text style="stroke:none;fill:black;font-family:-apple-system,&quot;SF Pro Display&quot;,&quot;SF Pro Text&quot;,Helvetica,sans-serif;" transform="matrix(1 0 0 1 776 1989)">can be adjusted by modifying the x-location of the margin guidelines.</text>
  <text style="stroke:none;fill:black;font-family:-apple-system,&quot;SF Pro Display&quot;,&quot;SF Pro Text&quot;,Helvetica,sans-serif;" transform="matrix(1 0 0 1 776 2007)">Modifications are automatically applied proportionally to all</text>
  <text style="stroke:none;fill:black;font-family:-apple-system,&quot;SF Pro Display&quot;,&quot;SF Pro Text&quot;,Helvetica,sans-serif;" transform="matrix(1 0 0 1 776 2025)">scales and weights.</text>
  <g id="" transform="matrix(1 0 0 1 1289 1933)">
   <path d="M 2.8418 1.86523 L 4.54102 3.57422 C 5.40039 4.44336 6.38672 4.38477 7.31445 3.35938 L 17.4902 -7.85156 C 17.7539 -7.76367 18.0273 -7.7832 18.3398 -7.8418 L 19.4043 -8.03711 L 20.0684 -7.36328 L 20.0293 -6.80664 C 19.9902 -6.30859 20.1172 -5.92773 20.6055 -5.44922 L 21.3672 -4.70703 C 21.8457 -4.22852 22.4609 -4.19922 22.9297 -4.66797 L 25.8398 -7.58789 C 26.3086 -8.05664 26.2891 -8.65234 25.8105 -9.13086 L 25.0391 -9.89258 C 24.5605 -10.3711 24.1895 -10.5273 23.7109 -10.4883 L 23.1348 -10.4395 L 22.4902 -11.0742 L 22.7344 -12.1973 C 22.8613 -12.7637 22.7051 -13.2031 22.1191 -13.7891 L 19.9219 -15.9766 C 16.582 -19.2969 12.1484 -19.2188 9.25781 -16.3281 C 8.83789 -15.918 8.80859 -15.3418 9.04297 -14.9512 C 9.27734 -14.5898 9.73633 -14.3555 10.3809 -14.5215 C 11.8457 -14.8633 13.3691 -14.9219 14.7949 -13.9844 L 14.209 -12.5293 C 14.0137 -12.0508 13.9844 -11.6504 14.1113 -11.2891 L 3.04688 -0.898438 C 2.06055 0.0195312 1.98242 0.996094 2.8418 1.86523 Z M 10.752 -15.957 C 13.1836 -17.7344 16.4746 -17.4316 18.7012 -15.2051 L 21.1328 -12.793 C 21.3672 -12.5586 21.4062 -12.373 21.3379 -12.0312 L 21.0156 -10.5469 L 22.5195 -9.0625 L 23.5059 -9.12109 C 23.7598 -9.13086 23.8379 -9.11133 24.0332 -8.91602 L 24.6094 -8.33984 L 22.168 -5.89844 L 21.5918 -6.47461 C 21.3965 -6.66992 21.3672 -6.74805 21.377 -7.01172 L 21.4453 -7.98828 L 19.9512 -9.47266 L 18.4277 -9.21875 C 18.1055 -9.15039 17.959 -9.17969 17.7148 -9.41406 L 15.7129 -11.416 C 15.459 -11.6504 15.4297 -11.8164 15.5859 -12.1875 L 16.4648 -14.2773 C 14.9023 -15.7324 12.8711 -16.3574 10.8398 -15.7617 C 10.6836 -15.7227 10.625 -15.8496 10.752 -15.957 Z M 5.27344 2.30469 L 4.10156 1.14258 C 3.63281 0.683594 3.74023 0.341797 4.14062 -0.0195312 L 14.9512 -10.1953 L 16.416 -8.71094 L 6.42578 2.27539 C 6.07422 2.67578 5.74219 2.77344 5.27344 2.30469 Z"/>
  </g>
  <text style="stroke:none;fill:black;font-family:-apple-system,&quot;SF Pro Display&quot;,&quot;SF Pro Text&quot;,Helvetica,sans-serif;font-weight:bold;" transform="matrix(1 0 0 1 1289 1953)">Exporting</text>
  <text style="stroke:none;fill:black;font-family:-apple-system,&quot;SF Pro Display&quot;,&quot;SF Pro Text&quot;,Helvetica,sans-serif;" transform="matrix(1 0 0 1 1289 1971)">Symbols should be outlined when exporting to ensure the</text>
  <text style="stroke:none;fill:black;font-family:-apple-system,&quot;SF Pro Display&quot;,&quot;SF Pro Text&quot;,Helvetica,sans-serif;" transform="matrix(1 0 0 1 1289 1989)">design is preserved when submitting to Xcode.</text>
  <text id="template-version" style="stroke:none;fill:black;font-family:-apple-system,&quot;SF Pro Display&quot;,&quot;SF Pro Text&quot;,Helvetica,sans-serif;text-anchor:end;" transform="matrix(1 0 0 1 3036 1933)">Template v.2.0</text>
  <text style="stroke:none;fill:black;font-family:-apple-system,&quot;SF Pro Display&quot;,&quot;SF Pro Text&quot;,Helvetica,sans-serif;text-anchor:end;" transform="matrix(1 0 0 1 3036 1951)">Requires Xcode 12 or greater</text>
  <text style="stroke:none;fill:black;font-family:-apple-system,&quot;SF Pro Display&quot;,&quot;SF Pro Text&quot;,Helvetica,sans-serif;text-anchor:end;" transform="matrix(1 0 0 1 3036 1969)">Generated from signature</text>
  <text style="stroke:none;fill:black;font-family:-apple-system,&quot;SF Pro Display&quot;,&quot;SF Pro Text&quot;,Helvetica,sans-serif;text-anchor:end;" transform="matrix(1 0 0 1 3036 1987)">Typeset at 100 points</text>
  <text style="stroke:none;fill:black;font-family:-apple-system,&quot;SF Pro Display&quot;,&quot;SF Pro Text&quot;,Helvetica,sans-serif;" transform="matrix(1 0 0 1 263 726)">Small</text>
  <text style="stroke:none;fill:black;font-family:-apple-system,&quot;SF Pro Display&quot;,&quot;SF Pro Text&quot;,Helvetica,sans-serif;" transform="matrix(1 0 0 1 263 1156)">Medium</text>
  <text style="stroke:none;fill:black;font-family:-apple-system,&quot;SF Pro Display&quot;,&quot;SF Pro Text&quot;,Helvetica,sans-serif;" transform="matrix(1 0 0 1 263 1586)">Large</text>
 </g>
 <g id="Guides">
  <g id="H-reference" style="fill:#27AAE1;stroke:none;" transform="matrix(1 0 0 1 339 696)">
   <path d="M 0.976562 0 L 3.66211 0 L 12.9883 -24.4629 L 45.7031 -24.4629 L 55.0781 0 L 57.7148 0 L 30.6152 -70.459 L 28.125 -70.459 Z M 29.2969 -67.1387 L 29.3945 -67.1387 L 44.873 -26.709 L 13.8672 -26.709 Z"/>
  </g>
  <line id="Baseline-S" style="fill:none;stroke:#27AAE1;opacity:1;stroke-width:0.5;" x1="263" x2="3036" y1="696" y2="696"/>
  <line id="Capline-S" style="fill:none;stroke:#27AAE1;opacity:1;stroke-width:0.5;" x1="263" x2="3036" y1="625.541" y2="625.541"/>
  <g id="H-reference" style="fill:#27AAE1;stroke:none;" transform="matrix(1 0 0 1 339 1126)">
   <path d="M 0.976562 0 L 3.66211 0 L 12.9883 -24.4629 L 45.7031 -24.4629 L 55.0781 0 L 57.7148 0 L 30.6152 -70.459 L 28.125 -70.459 Z M 29.2969 -67.1387 L 29.3945 -67.1387 L 44.873 -26.709 L 13.8672 -26.709 Z"/>
  </g>
  <line id="Baseline-M" style="fill:none;stroke:#27AAE1;opacity:1;stroke-width:0.5;" x1="263" x2="3036" y1="1126" y2="1126"/>
  <line id="Capline-M" style="fill:none;stroke:#27AAE1;opacity:1;stroke-width:0.5;" x1="263" x2="3036" y1="1055.54" y2="1055.54"/>
  <g id="H-reference" style="fill:#27AAE1;stroke:none;" transform="matrix(1 0 0 1 339 1556)">
   <path d="M 0.976562 0 L 3.66211 0 L 12.9883 -24.4629 L 45.7031 -24.4629 L 55.0781 0 L 57.7148 0 L 30.6152 -70.459 L 28.125 -70.459 Z M 29.2969 -67.1387 L 29.3945 -67.1387 L 44.873 -26.709 L 13.8672 -26.709 Z"/>
  </g>
  <line id="Baseline-L" style="fill:none;stroke:#27AAE1;opacity:1;stroke-width:0.5;" x1="263" x2="3036" y1="1556" y2="1556"/>
  <line id="Capline-L" style="fill:none;stroke:#27AAE1;opacity:1;stroke-width:0.5;" x1="263" x2="3036" y1="1485.54" y2="1485.54"/>
  <line id="left-margin" style="fill:none;stroke:#00AEEF;stroke-width:0.5;opacity:1.0;" x1="1364.03" x2="1364.03" y1="1030.79" y2="1150.12"/>
  <line id="right-margin" style="fill:none;stroke:#00AEEF;stroke-width:0.5;opacity:1.0;" x1="1535.66" x2="1535.66" y1="1030.79" y2="1150.12"/>
 </g>
 <g id="Symbols">
  <g id="Black-L" transform="matrix(1 0 0 1 2816.33 1556)">
   <path d="M 23.1934 28.7598 L 59.4238 28.7598 C 59.4238 29.1992 59.4238 29.6387 59.4238 30.0781 C 59.4238 44.3359 67.3828 53.0762 81.8848 53.0762 C 97.8516 53.0762 110.059 44.0918 118.018 28.7598 L 210.938 28.7598 C 214.941 28.7598 218.066 25.2441 218.066 21.3867 C 218.066 17.3828 214.941 14.0625 210.938 14.0625 L 123.73 14.0625 C 126.416 4.6875 127.979 -6.05469 128.418 -17.8711 C 132.373 -18.7012 136.426 -19.1895 140.576 -19.1895 C 141.504 -19.1895 141.992 -18.7012 141.992 -18.0664 C 141.992 -13.5742 138.818 -9.86328 138.818 -3.51562 C 138.818 2.63672 143.262 6.83594 149.854 6.83594 C 164.062 6.83594 180.859 -13.916 184.375 -13.916 C 187.305 -13.916 185.107 4.15039 201.562 4.15039 C 204.98 4.15039 209.082 3.17383 212.061 1.12305 C 214.404 -0.488281 216.064 -2.88086 216.064 -6.05469 C 216.064 -10.1562 213.232 -13.916 208.936 -13.916 C 206.836 -13.916 205.078 -12.6953 203.857 -12.6953 C 199.951 -12.6953 203.809 -32.7637 188.77 -32.7637 C 176.758 -32.7637 162.158 -15.4297 159.131 -15.4297 C 158.643 -15.4297 158.398 -15.6738 158.398 -16.2109 C 158.398 -17.3828 159.082 -19.1406 159.082 -21.3379 C 159.082 -30.1758 152.93 -35.3516 142.871 -35.3516 C 137.842 -35.3516 132.91 -34.9121 128.174 -34.082 C 125.391 -68.4082 107.715 -93.4082 83.3496 -93.4082 C 63.916 -93.4082 50.8301 -79.1992 50.8301 -58.7891 C 50.8301 -37.1094 64.3555 -19.2383 78.1738 -7.61719 C 71.4355 -0.78125 66.3086 6.68945 63.0859 14.0625 L 23.1934 14.0625 C 19.1895 14.0625 16.0645 17.4316 16.0645 21.3867 C 16.0645 25.1953 19.2871 28.7598 23.1934 28.7598 Z M 66.9922 -58.9844 C 66.9922 -69.6777 73.4863 -77.1973 83.3984 -77.1973 C 99.1211 -77.1973 110.889 -57.1289 112.256 -29.7363 C 104.248 -26.709 96.875 -22.7051 90.332 -18.0176 C 79.1992 -27.0996 66.9922 -40.918 66.9922 -58.9844 Z M 19.1406 4.54102 C 21.4844 6.93359 25.1953 6.93359 27.5391 4.63867 L 34.1309 -1.95312 L 40.7227 4.54102 C 43.1152 6.88477 46.6797 6.88477 49.0723 4.54102 C 51.5137 2.19727 51.5137 -1.51367 49.0723 -3.90625 L 42.5781 -10.4004 L 49.0723 -16.8945 C 51.5137 -19.2871 51.416 -22.9004 49.0723 -25.293 C 46.7773 -27.6855 43.0664 -27.6855 40.7227 -25.3418 L 34.1309 -18.7988 L 27.5391 -25.293 C 25.1465 -27.6367 21.5332 -27.6367 19.1406 -25.293 C 16.748 -22.9492 16.748 -19.2383 19.1406 -16.8457 L 25.6836 -10.3516 L 19.1406 -3.80859 C 16.748 -1.41602 16.7969 2.14844 19.1406 4.54102 Z M 93.7012 3.07617 C 95.166 3.85742 96.6309 4.19922 97.998 4.19922 C 102.1 4.19922 105.566 1.26953 105.566 -2.83203 C 105.566 -4.49219 105.127 -6.10352 104.053 -7.56836 C 106.543 -9.17969 109.131 -10.6934 111.816 -12.0117 C 110.986 -2.19727 109.082 6.68945 106.396 14.0625 L 81.9336 14.0625 C 84.5215 10.0586 87.8906 5.95703 91.9434 2.09961 C 92.5293 2.44141 93.1152 2.73438 93.7012 3.07617 Z M 76.5625 28.7598 L 98.5352 28.7598 C 94.2871 33.9844 89.2578 36.9141 83.7891 36.9141 C 79.1016 36.9141 76.5625 33.7891 76.5625 28.7598 Z"/>
  </g>
  <g id="Heavy-L" transform="matrix(1 0 0 1 2521.55 1556)">
   <path d="M 22.5586 27.002 L 60.0098 27.002 C 59.9121 27.9297 59.8633 28.8086 59.8633 29.6875 C 59.8633 42.8711 67.334 51.1719 81.0059 51.1719 C 96.4355 51.1719 108.35 42.1875 116.162 27.002 L 207.715 27.002 C 211.328 27.002 214.209 23.877 214.209 20.3613 C 214.209 16.748 211.328 13.7695 207.715 13.7695 L 121.484 13.7695 C 124.463 4.05273 126.172 -7.12891 126.611 -19.4824 C 130.566 -20.3125 134.668 -20.8008 138.867 -20.8008 C 140.234 -20.8008 140.967 -20.166 140.967 -19.2383 C 140.967 -14.5508 137.793 -10.5957 137.793 -4.44336 C 137.793 1.31836 141.992 5.12695 147.998 5.12695 C 161.768 5.12695 178.174 -15.918 182.178 -15.918 C 185.596 -15.918 182.422 2.53906 198.535 2.53906 C 201.758 2.53906 205.615 1.66016 208.496 -0.292969 C 210.645 -1.75781 212.109 -3.90625 212.109 -6.68945 C 212.109 -10.3516 209.619 -13.623 205.811 -13.623 C 203.76 -13.623 201.953 -12.2559 200.488 -12.2559 C 195.801 -12.2559 200.439 -32.5195 186.035 -32.5195 C 174.365 -32.5195 159.277 -14.1113 155.762 -14.1113 C 155.225 -14.1113 154.932 -14.4043 154.932 -15.0391 C 154.932 -16.6016 156.201 -19.1895 156.201 -22.0703 C 156.201 -30.2734 150.342 -35.1074 140.82 -35.1074 C 135.889 -35.1074 131.055 -34.6191 126.416 -33.7891 C 124.023 -67.9688 106.787 -93.1641 82.6172 -93.1641 C 64.0137 -93.1641 51.123 -79.1504 51.123 -59.4727 C 51.123 -38.0859 64.6484 -20.2637 79.1992 -8.64258 C 72.168 -1.61133 66.7969 6.15234 63.5254 13.7695 L 22.5586 13.7695 C 18.9453 13.7695 16.0645 16.7969 16.0645 20.3613 C 16.0645 23.8281 18.9941 27.002 22.5586 27.002 Z M 65.4297 -59.6191 C 65.4297 -70.752 72.4121 -78.8086 82.666 -78.8086 C 99.2188 -78.8086 111.133 -57.9102 112.305 -29.9805 C 104.102 -26.9531 96.582 -22.8027 89.9414 -17.8711 C 78.1738 -27.0508 65.4297 -41.1621 65.4297 -59.6191 Z M 19.043 2.97852 C 21.1914 5.12695 24.5117 5.12695 26.6602 3.02734 L 33.6426 -3.95508 L 40.625 2.97852 C 42.7734 5.07812 46.0449 5.07812 48.1934 2.97852 C 50.3906 0.830078 50.3906 -2.53906 48.1934 -4.6875 L 41.2598 -11.5723 L 48.1934 -18.5059 C 50.3906 -20.6543 50.3418 -23.9258 48.1934 -26.0742 C 46.0938 -28.2715 42.7246 -28.2227 40.625 -26.123 L 33.5938 -19.1406 L 26.6602 -26.0742 C 24.4629 -28.2227 21.2402 -28.2227 19.043 -26.0742 C 16.8945 -23.9746 16.8945 -20.6055 19.043 -18.457 L 25.9766 -11.5723 L 19.043 -4.63867 C 16.8945 -2.44141 16.9434 0.78125 19.043 2.97852 Z M 94.2871 1.17188 C 95.5566 1.85547 96.8262 2.14844 98.0469 2.14844 C 101.709 2.14844 104.688 -0.488281 104.688 -4.10156 C 104.688 -5.9082 104.102 -7.66602 102.49 -9.17969 C 105.469 -11.1328 108.643 -12.9395 111.963 -14.502 C 111.133 -3.85742 109.082 5.81055 106.104 13.7695 L 79.9316 13.7695 C 82.7148 9.08203 86.6699 4.19922 91.4551 -0.341797 C 92.3828 0.195312 93.3594 0.683594 94.2871 1.17188 Z M 74.9512 28.3203 C 74.9512 27.8809 75 27.4414 75 27.002 L 99.1699 27.002 C 94.5312 33.3008 88.916 36.8652 82.7148 36.8652 C 77.6367 36.8652 74.9512 33.5449 74.9512 28.3203 Z"/>
  </g>
  <g id="Bold-L" transform="matrix(1 0 0 1 2227.01 1556)">
   <path d="M 21.7773 25.0977 L 60.6934 25.0977 C 60.498 26.4648 60.4004 27.8809 60.4004 29.1992 C 60.4004 41.2109 67.2363 49.0723 80.0781 49.0723 C 94.8242 49.0723 106.445 40.0879 114.16 25.0977 L 204.15 25.0977 C 207.324 25.0977 209.863 22.3633 209.863 19.2383 C 209.863 16.0645 207.324 13.4277 204.15 13.4277 L 118.945 13.4277 C 122.217 3.36914 124.17 -8.34961 124.561 -21.2402 C 128.613 -22.1191 132.764 -22.6074 137.012 -22.6074 C 138.818 -22.6074 139.844 -21.8262 139.844 -20.5566 C 139.844 -15.6738 136.67 -11.377 136.67 -5.46875 C 136.67 -0.146484 140.527 3.22266 145.898 3.22266 C 159.18 3.22266 175.195 -18.2129 179.688 -18.2129 C 183.691 -18.2129 179.395 0.732422 195.215 0.732422 C 198.193 0.732422 201.758 -0.0976562 204.541 -1.9043 C 206.396 -3.17383 207.666 -5.0293 207.666 -7.4707 C 207.666 -10.5469 205.566 -13.2812 202.344 -13.2812 C 200.293 -13.2812 198.486 -11.7188 196.729 -11.7188 C 191.162 -11.7188 196.631 -32.2266 183.008 -32.2266 C 171.68 -32.2266 156.055 -12.6953 152.002 -12.6953 C 151.416 -12.6953 151.074 -12.9883 151.074 -13.7207 C 151.074 -15.7715 152.93 -19.2871 152.93 -22.9004 C 152.93 -30.3711 147.412 -34.8145 138.477 -34.8145 C 133.691 -34.8145 129.004 -34.375 124.463 -33.4961 C 122.461 -67.4805 105.811 -92.8711 81.7383 -92.8711 C 64.1602 -92.8711 51.4648 -79.0527 51.4648 -60.2051 C 51.4648 -39.2578 64.8438 -21.5332 80.3711 -9.86328 C 72.998 -2.58789 67.3828 5.51758 64.0137 13.4277 L 21.7773 13.4277 C 18.6035 13.4277 16.0645 16.0645 16.0645 19.2383 C 16.0645 22.3145 18.6523 25.0977 21.7773 25.0977 Z M 63.6719 -60.3027 C 63.6719 -71.9727 71.2402 -80.6152 81.7871 -80.6152 C 99.3164 -80.6152 111.426 -58.6914 112.402 -30.2246 C 103.955 -27.1973 96.2402 -22.9004 89.502 -17.8223 C 77.002 -27.002 63.6719 -41.4062 63.6719 -60.3027 Z M 18.9453 1.2207 C 20.8008 3.125 23.7305 3.07617 25.6348 1.2207 L 33.0566 -6.20117 L 40.4785 1.2207 C 42.3828 3.07617 45.2637 3.07617 47.2168 1.2207 C 49.1211 -0.683594 49.1211 -3.66211 47.2168 -5.51758 L 39.7949 -12.8906 L 47.2168 -20.2637 C 49.1211 -22.168 49.0723 -25.0488 47.2168 -26.9531 C 45.3125 -28.9062 42.3828 -28.8574 40.4785 -27.002 L 33.0566 -19.5801 L 25.6348 -26.9531 C 23.7305 -28.8574 20.8496 -28.8574 18.9453 -26.9531 C 17.041 -25.0977 17.041 -22.1191 18.9453 -20.2637 L 26.3184 -12.8906 L 18.9453 -5.51758 C 17.041 -3.56445 17.041 -0.732422 18.9453 1.2207 Z M 94.873 -0.976562 C 95.9961 -0.390625 97.0703 -0.195312 98.0957 -0.195312 C 101.221 -0.195312 103.76 -2.49023 103.76 -5.46875 C 103.76 -7.42188 102.93 -9.27734 100.635 -10.6934 L 100.488 -10.791 C 104.102 -13.2324 108.008 -15.4297 112.109 -17.2363 C 111.328 -5.66406 109.131 4.83398 105.811 13.4277 L 77.6855 13.4277 C 80.7617 7.91016 85.2539 2.19727 90.8203 -3.07617 C 92.1875 -2.34375 93.5547 -1.61133 94.873 -0.976562 Z M 73.1934 27.7832 C 73.1934 26.9043 73.2422 26.0254 73.3887 25.0977 L 99.8535 25.0977 C 94.7754 32.5195 88.5254 36.8652 81.543 36.8652 C 75.9766 36.8652 73.1934 33.2031 73.1934 27.7832 Z"/>
  </g>
  <g id="Semibold-L" transform="matrix(1 0 0 1 1931.77 1556)">
   <path d="M 21.2891 23.7305 L 61.1816 23.7305 C 60.8887 25.4883 60.7422 27.1973 60.7422 28.8574 C 60.7422 40.0879 67.1387 47.6074 79.4434 47.6074 C 93.7012 47.6074 105.127 38.623 112.744 23.7305 L 201.709 23.7305 C 204.59 23.7305 206.934 21.2891 206.934 18.457 C 206.934 15.5762 204.59 13.1836 201.709 13.1836 L 117.188 13.1836 C 120.703 2.88086 122.754 -9.22852 123.193 -22.5098 C 127.197 -23.3398 131.396 -23.8281 135.742 -23.8281 C 137.891 -23.8281 139.062 -22.998 139.062 -21.4844 C 139.062 -16.4062 135.889 -11.9629 135.889 -6.20117 C 135.889 -1.17188 139.551 1.9043 144.482 1.9043 C 157.422 1.9043 173.145 -19.8242 177.979 -19.8242 C 182.373 -19.8242 177.344 -0.537109 192.871 -0.537109 C 195.703 -0.537109 199.121 -1.26953 201.807 -3.02734 C 203.467 -4.15039 204.639 -5.81055 204.639 -7.95898 C 204.639 -10.6934 202.783 -13.0371 199.951 -13.0371 C 197.949 -13.0371 196.094 -11.377 194.141 -11.377 C 187.988 -11.377 193.994 -32.0312 180.908 -32.0312 C 169.824 -32.0312 153.809 -11.6699 149.414 -11.6699 C 148.828 -11.6699 148.438 -12.0117 148.438 -12.793 C 148.438 -15.1367 150.732 -19.3359 150.732 -23.4863 C 150.732 -30.4199 145.41 -34.6191 136.865 -34.6191 C 132.129 -34.6191 127.539 -34.1797 123.096 -33.3008 C 121.436 -67.1387 105.127 -92.6758 81.1523 -92.6758 C 64.209 -92.6758 51.709 -79.0039 51.709 -60.7422 C 51.709 -40.1367 64.9414 -22.4609 81.2012 -10.791 C 73.584 -3.32031 67.7734 5.12695 64.3555 13.1836 L 21.2891 13.1836 C 18.4082 13.1836 16.0645 15.5762 16.0645 18.457 C 16.0645 21.2891 18.4082 23.7305 21.2891 23.7305 Z M 62.5 -60.791 C 62.5 -72.8516 70.4102 -81.8848 81.2012 -81.8848 C 99.3652 -81.8848 111.621 -59.2773 112.402 -30.4199 C 103.857 -27.4414 96.0449 -22.998 89.209 -17.7734 C 76.1719 -27.002 62.5 -41.6016 62.5 -60.791 Z M 18.8477 0 C 20.5566 1.70898 23.2422 1.66016 24.9512 0 L 32.666 -7.71484 L 40.4297 0 C 42.1387 1.70898 44.7754 1.70898 46.4844 0 C 48.2422 -1.75781 48.2422 -4.44336 46.4844 -6.15234 L 38.7695 -13.8184 L 46.4844 -21.4844 C 48.2422 -23.2422 48.2422 -25.8301 46.4844 -27.5879 C 44.7754 -29.3457 42.1387 -29.2969 40.4297 -27.5879 L 32.666 -19.873 L 24.9512 -27.5879 C 23.1934 -29.2969 20.6055 -29.2969 18.8477 -27.5879 C 17.1387 -25.8789 17.1387 -23.1934 18.8477 -21.4844 L 26.5625 -13.8184 L 18.8477 -6.10352 C 17.1387 -4.39453 17.1387 -1.75781 18.8477 0 Z M 95.3125 -2.44141 C 96.2891 -1.95312 97.2168 -1.75781 98.0957 -1.75781 C 100.928 -1.75781 103.076 -3.85742 103.076 -6.44531 C 103.076 -8.1543 102.295 -9.81445 100.244 -10.9863 C 99.8047 -11.2305 99.3652 -11.4746 98.877 -11.7676 C 102.979 -14.5996 107.422 -17.0898 112.207 -19.043 C 111.475 -6.88477 109.131 4.15039 105.566 13.1836 L 76.2207 13.1836 C 79.3945 7.12891 84.2285 0.78125 90.4297 -4.93164 C 92.041 -4.05273 93.7012 -3.22266 95.3125 -2.44141 Z M 71.9727 27.4414 C 71.9727 26.2695 72.0703 25.0488 72.3145 23.7305 L 100.244 23.7305 C 94.9707 31.9824 88.2324 36.8164 80.7129 36.8164 C 74.8047 36.8164 71.9727 33.0078 71.9727 27.4414 Z"/>
  </g>
  <g id="Medium-L" transform="matrix(1 0 0 1 1636.2 1556)">
   <path d="M 20.8984 22.7539 L 61.5723 22.7539 C 61.2305 24.7559 61.0352 26.7578 61.0352 28.6133 C 61.0352 39.209 67.0898 46.5332 78.9551 46.5332 C 92.8711 46.5332 104.15 37.5 111.719 22.7539 L 199.805 22.7539 C 202.49 22.7539 204.639 20.5078 204.639 17.8711 C 204.639 15.1855 202.49 12.9883 199.805 12.9883 L 115.869 12.9883 C 119.531 2.53906 121.729 -9.86328 122.119 -23.4375 C 126.172 -24.3164 130.371 -24.7559 134.766 -24.7559 C 137.158 -24.7559 138.477 -23.8281 138.477 -22.168 C 138.477 -16.9922 135.254 -12.4023 135.254 -6.78711 C 135.254 -1.95312 138.818 0.878906 143.359 0.878906 C 156.055 0.878906 171.582 -20.9961 176.66 -20.9961 C 181.396 -20.9961 175.781 -1.46484 191.162 -1.46484 C 193.848 -1.46484 197.07 -2.14844 199.707 -3.85742 C 201.27 -4.88281 202.295 -6.39648 202.295 -8.34961 C 202.295 -10.791 200.684 -12.8418 198.145 -12.8418 C 196.143 -12.8418 194.238 -11.1328 192.188 -11.1328 C 185.596 -11.1328 191.992 -31.8848 179.297 -31.8848 C 168.408 -31.8848 152.148 -10.9375 147.461 -10.9375 C 146.826 -10.9375 146.387 -11.2793 146.387 -12.1094 C 146.387 -14.6973 149.023 -19.3848 149.023 -23.9258 C 149.023 -30.4688 143.896 -34.4727 135.645 -34.4727 C 131.006 -34.4727 126.465 -34.0332 122.07 -33.1543 C 120.605 -66.8457 104.59 -92.5293 80.7129 -92.5293 C 64.2578 -92.5293 51.9043 -78.9551 51.9043 -61.1328 C 51.9043 -40.8203 64.9414 -23.1934 81.8359 -11.4746 C 74.0234 -3.85742 68.1152 4.78516 64.5996 12.9883 L 20.8984 12.9883 C 18.2129 12.9883 16.0645 15.2344 16.0645 17.8711 C 16.0645 20.5078 18.2617 22.7539 20.8984 22.7539 Z M 61.5723 -61.1816 C 61.5723 -73.4863 69.8242 -82.8125 80.7129 -82.8125 C 99.4141 -82.8125 111.768 -59.668 112.451 -30.5664 C 103.76 -27.5879 95.8496 -23.0957 89.0137 -17.7246 C 75.5371 -26.9531 61.5723 -41.748 61.5723 -61.1816 Z M 18.7988 -0.927734 C 20.4102 0.683594 22.8027 0.634766 24.4141 -0.927734 L 32.373 -8.88672 L 40.332 -0.927734 C 41.9434 0.634766 44.3848 0.634766 45.9961 -0.927734 C 47.6074 -2.53906 47.6074 -5.0293 45.9961 -6.5918 L 38.0371 -14.502 L 45.9961 -22.4121 C 47.6074 -24.0234 47.5586 -26.416 45.9961 -28.0273 C 44.3848 -29.6387 41.9434 -29.5898 40.332 -28.0762 L 32.373 -20.1172 L 24.4141 -28.0273 C 22.8027 -29.6387 20.4102 -29.6387 18.7988 -28.0273 C 17.1875 -26.4648 17.1875 -23.9746 18.7988 -22.4121 L 26.7578 -14.502 L 18.7988 -6.5918 C 17.1875 -4.98047 17.1875 -2.53906 18.7988 -0.927734 Z M 95.6543 -3.56445 C 96.5332 -3.125 97.3145 -2.97852 98.1445 -2.97852 C 100.684 -2.97852 102.588 -4.88281 102.588 -7.17773 C 102.588 -8.74023 101.855 -10.2539 100 -11.2305 C 99.2188 -11.6211 98.4375 -12.0605 97.6562 -12.4512 C 102.1 -15.625 106.982 -18.3594 112.256 -20.4102 C 111.572 -7.8125 109.131 3.66211 105.42 12.9883 L 75.0488 12.9883 C 78.3203 6.54297 83.4473 -0.292969 90.0879 -6.34766 C 91.8945 -5.37109 93.75 -4.44336 95.6543 -3.56445 Z M 71.0449 27.1484 C 71.0449 25.7812 71.1914 24.3164 71.5332 22.7539 L 100.537 22.7539 C 95.0684 31.543 88.0371 36.8164 80.0781 36.8164 C 73.9258 36.8164 71.0449 32.8613 71.0449 27.1484 Z"/>
  </g>
  <g id="Regular-L" transform="matrix(1 0 0 1 1340.96 1556)">
   <path d="M 20.4102 21.4355 L 62.1582 21.4355 C 61.6211 23.8281 61.377 26.123 61.377 28.2715 C 61.377 38.0859 67.041 45.0684 78.2715 45.0684 C 91.748 45.0684 102.832 36.0352 110.303 21.4355 L 197.363 21.4355 C 199.756 21.4355 201.709 19.4824 201.709 17.0898 C 201.709 14.7461 199.756 12.793 197.363 12.793 L 114.062 12.793 C 118.018 2.05078 120.361 -10.7422 120.752 -24.6094 C 124.805 -25.5371 129.053 -26.0254 133.447 -26.0254 C 136.182 -26.0254 137.695 -24.9512 137.695 -23.0469 C 137.695 -17.7734 134.521 -12.9395 134.521 -7.4707 C 134.521 -2.92969 137.793 -0.390625 141.943 -0.390625 C 154.297 -0.390625 169.531 -22.5586 174.951 -22.5586 C 180.078 -22.5586 173.73 -2.68555 188.867 -2.68555 C 191.357 -2.68555 194.434 -3.36914 197.021 -4.98047 C 198.34 -5.85938 199.268 -7.17773 199.268 -8.83789 C 199.268 -10.8887 197.9 -12.5977 195.752 -12.5977 C 193.799 -12.5977 191.895 -10.791 189.6 -10.791 C 182.422 -10.791 189.404 -31.6895 177.246 -31.6895 C 166.602 -31.6895 149.951 -9.96094 144.922 -9.96094 C 144.238 -9.96094 143.75 -10.3027 143.75 -11.2305 C 143.75 -14.1113 146.826 -19.4336 146.826 -24.5117 C 146.826 -30.5664 141.943 -34.2773 134.033 -34.2773 C 129.492 -34.2773 125 -33.8379 120.703 -32.959 C 119.531 -66.5039 103.955 -92.334 80.127 -92.334 C 64.3555 -92.334 52.0996 -78.9062 52.0996 -61.6699 C 52.0996 -41.748 64.8926 -24.2188 82.666 -12.4023 C 74.6094 -4.63867 68.5059 4.29688 64.9414 12.793 L 20.4102 12.793 C 18.0176 12.793 16.0645 14.7461 16.0645 17.0898 C 16.0645 19.4824 18.0176 21.4355 20.4102 21.4355 Z M 60.4004 -61.6699 C 60.4004 -74.3164 68.9941 -84.082 80.127 -84.082 C 99.5117 -84.082 111.963 -60.2051 112.5 -30.7617 C 103.662 -27.7832 95.6543 -23.1934 88.7695 -17.7246 C 74.707 -26.9531 60.4004 -41.9922 60.4004 -61.6699 Z M 18.7012 -2.14844 C 20.166 -0.732422 22.3145 -0.78125 23.7305 -2.14844 L 31.9824 -10.4004 L 40.2832 -2.14844 C 41.6992 -0.732422 43.8477 -0.732422 45.3125 -2.14844 C 46.7285 -3.61328 46.7285 -5.81055 45.3125 -7.17773 L 37.0117 -15.3809 L 45.3125 -23.6328 C 46.7285 -25.0488 46.7285 -27.1973 45.3125 -28.6621 C 43.8477 -30.0781 41.6992 -30.0293 40.2832 -28.6621 L 31.9824 -20.4102 L 23.7305 -28.6621 C 22.3145 -30.0781 20.166 -30.0781 18.7012 -28.6621 C 17.2852 -27.1973 17.2852 -25 18.7012 -23.6328 L 27.002 -15.3809 L 18.7012 -7.17773 C 17.2852 -5.76172 17.2852 -3.61328 18.7012 -2.14844 Z M 96.0938 -5.0293 C 96.8262 -4.63867 97.4609 -4.54102 98.1445 -4.54102 C 100.342 -4.54102 101.953 -6.25 101.953 -8.10547 C 101.953 -9.47266 101.27 -10.7422 99.6582 -11.5723 C 98.4863 -12.1094 97.2656 -12.7441 95.9961 -13.3789 C 100.928 -16.9434 106.396 -19.9707 112.354 -22.168 C 111.719 -9.0332 109.131 3.02734 105.176 12.793 L 73.584 12.793 C 76.9531 5.76172 82.4707 -1.70898 89.5996 -8.20312 C 91.748 -7.08008 93.8965 -6.00586 96.0938 -5.0293 Z M 69.8242 26.8066 C 69.8242 25.1465 70.0684 23.3398 70.5078 21.4355 L 100.928 21.4355 C 95.2148 31.0059 87.7441 36.8164 79.248 36.8164 C 72.8027 36.8164 69.8242 32.6172 69.8242 26.8066 Z"/>
  </g>
  <g id="Light-L" transform="matrix(1 0 0 1 1046.74 1556)">
   <path d="M 19.3848 20.1172 L 62.1582 20.1172 C 61.377 23.1445 60.9863 25.9766 60.9863 28.6621 C 60.9863 37.9883 66.6504 44.5801 77.0508 44.5801 C 90.5273 44.5801 101.611 35.2051 108.936 20.1172 L 193.408 20.1172 C 195.215 20.1172 196.729 18.6523 196.729 16.8457 C 196.729 14.9902 195.215 13.5254 193.408 13.5254 L 111.768 13.5254 C 115.918 2.58789 118.311 -10.6445 118.604 -25.0977 C 122.803 -26.0254 127.246 -26.5137 131.787 -26.5137 C 135.205 -26.5137 137.061 -25.3906 137.061 -23.0957 C 137.061 -18.0664 133.594 -12.5488 133.594 -7.08008 C 133.594 -2.83203 136.621 -0.830078 140.137 -0.830078 C 151.904 -0.830078 166.797 -23.3887 172.656 -23.3887 C 178.369 -23.3887 171.24 -3.22266 185.449 -3.22266 C 187.842 -3.22266 190.527 -3.80859 193.066 -5.37109 C 194.189 -6.05469 194.873 -7.12891 194.873 -8.39844 C 194.873 -10.0098 193.848 -11.377 192.139 -11.377 C 190.43 -11.377 188.379 -9.57031 185.986 -9.57031 C 178.271 -9.57031 185.938 -30.4199 174.219 -30.4199 C 164.111 -30.4199 148.047 -8.05664 142.139 -8.05664 C 141.357 -8.05664 140.723 -8.49609 140.723 -9.61914 C 140.723 -13.3301 144.092 -18.9941 144.092 -24.0234 C 144.092 -29.6875 139.746 -33.0078 132.275 -33.0078 C 127.539 -33.0078 122.998 -32.5195 118.604 -31.6406 C 117.676 -65.5762 102.295 -91.1133 78.9062 -91.1133 C 63.623 -91.1133 51.7578 -78.0762 51.7578 -61.2793 C 51.7578 -42.4316 63.5254 -24.8535 83.1055 -12.7441 C 74.4629 -4.73633 68.0664 4.6875 64.4043 13.5254 L 19.3848 13.5254 C 17.5781 13.5254 16.0645 14.9902 16.0645 16.8457 C 16.0645 18.6523 17.5781 20.1172 19.3848 20.1172 Z M 58.252 -61.2793 C 58.252 -74.4141 67.2363 -84.5703 78.9062 -84.5703 C 98.877 -84.5703 111.67 -60.1074 112.158 -29.9316 C 103.174 -27.0996 95.0684 -22.5586 88.0859 -17.041 C 72.6074 -26.6602 58.252 -41.5527 58.252 -61.2793 Z M 17.9199 -2.09961 C 19.043 -0.976562 20.752 -1.02539 21.875 -2.09961 L 30.6641 -10.8887 L 39.4531 -2.09961 C 40.625 -0.976562 42.334 -0.976562 43.457 -2.09961 C 44.5801 -3.27148 44.5801 -4.98047 43.457 -6.10352 L 34.668 -14.8438 L 43.457 -23.584 C 44.5801 -24.707 44.5801 -26.416 43.457 -27.5879 C 42.334 -28.7109 40.625 -28.6621 39.4531 -27.5879 L 30.6641 -18.7988 L 21.875 -27.5879 C 20.752 -28.7109 19.043 -28.7109 17.9199 -27.5879 C 16.7969 -26.416 16.7969 -24.707 17.9199 -23.584 L 26.709 -14.8438 L 17.9199 -6.10352 C 16.7969 -4.98047 16.7969 -3.27148 17.9199 -2.09961 Z M 95.9961 -6.10352 C 96.6309 -5.81055 97.168 -5.71289 97.7051 -5.71289 C 99.4629 -5.71289 100.684 -7.03125 100.684 -8.54492 C 100.684 -9.61914 100.146 -10.6445 98.7793 -11.2793 C 97.168 -12.0605 95.5078 -12.8418 93.8965 -13.7207 C 99.2676 -17.6758 105.371 -20.9961 112.061 -23.2422 C 111.523 -9.47266 108.936 3.27148 104.736 13.5254 L 71.1914 13.5254 C 74.707 5.76172 80.7129 -2.53906 88.7207 -9.57031 C 91.0645 -8.34961 93.5059 -7.17773 95.9961 -6.10352 Z M 67.627 27.6367 C 67.627 25.3418 68.0176 22.8027 68.75 20.1172 L 101.611 20.1172 C 95.6055 31.2012 87.3535 38.0859 77.832 38.0859 C 70.8008 38.0859 67.627 33.6426 67.627 27.6367 Z"/>
  </g>
  <g id="Thin-L" transform="matrix(1 0 0 1 753.346 1556)">
   <path d="M 18.0664 18.4082 L 62.3047 18.4082 C 61.1328 22.2168 60.498 25.8301 60.498 29.1016 C 60.498 37.793 66.1621 43.8965 75.3906 43.8965 C 88.8184 43.8965 99.9023 34.082 107.031 18.4082 L 188.135 18.4082 C 189.209 18.4082 190.088 17.5293 190.088 16.4551 C 190.088 15.3809 189.209 14.502 188.135 14.502 L 108.691 14.502 C 113.086 3.27148 115.625 -10.5469 115.82 -25.6836 C 120.166 -26.6602 124.805 -27.1973 129.59 -27.1973 C 133.936 -27.1973 136.23 -25.9766 136.23 -23.1934 C 136.23 -18.457 132.373 -12.0117 132.373 -6.54297 C 132.373 -2.73438 135.059 -1.36719 137.695 -1.36719 C 148.682 -1.36719 163.232 -24.4629 169.629 -24.4629 C 176.123 -24.4629 167.969 -3.90625 180.908 -3.90625 C 183.154 -3.90625 185.352 -4.44336 187.891 -5.85938 C 188.672 -6.34766 189.062 -7.08008 189.062 -7.76367 C 189.062 -8.78906 188.428 -9.7168 187.305 -9.7168 C 185.986 -9.7168 183.789 -7.86133 181.152 -7.86133 C 172.803 -7.86133 181.348 -28.7109 170.264 -28.7109 C 160.84 -28.7109 145.557 -5.61523 138.477 -5.61523 C 137.5 -5.61523 136.719 -6.15234 136.719 -7.51953 C 136.719 -12.3047 140.527 -18.3594 140.527 -23.3887 C 140.527 -28.5645 136.816 -31.3477 129.883 -31.3477 C 125 -31.3477 120.264 -30.8105 115.82 -29.834 C 115.137 -64.4043 100.146 -89.4531 77.2461 -89.4531 C 62.6465 -89.4531 51.2695 -76.9531 51.2695 -60.791 C 51.2695 -43.457 61.4258 -25.8789 83.8379 -13.3301 C 74.3652 -4.98047 67.4805 5.12695 63.7207 14.502 L 18.0664 14.502 C 16.9434 14.502 16.0645 15.3809 16.0645 16.4551 C 16.0645 17.5293 16.9434 18.4082 18.0664 18.4082 Z M 55.4199 -60.791 C 55.4199 -74.5605 64.9414 -85.2539 77.2461 -85.2539 C 98.0469 -85.2539 111.279 -60.0098 111.67 -28.8086 C 102.49 -26.1719 94.3359 -21.7285 87.3047 -16.2109 C 69.5801 -26.4648 55.4199 -41.1133 55.4199 -60.791 Z M 16.8457 -2.05078 C 17.5781 -1.31836 18.7012 -1.31836 19.4824 -2.05078 L 28.9062 -11.5234 L 38.3789 -2.05078 C 39.1602 -1.31836 40.2832 -1.31836 41.0156 -2.05078 C 41.748 -2.83203 41.748 -3.95508 41.0156 -4.6875 L 31.543 -14.1113 L 41.0156 -23.5352 C 41.748 -24.2676 41.748 -25.3906 41.0156 -26.1719 C 40.2832 -26.9043 39.1602 -26.9043 38.3789 -26.1719 L 28.9062 -16.6992 L 19.4824 -26.1719 C 18.7012 -26.9043 17.5781 -26.9043 16.8457 -26.1719 C 16.1133 -25.3906 16.1133 -24.2676 16.8457 -23.5352 L 26.3184 -14.1113 L 16.8457 -4.6875 C 16.1133 -3.95508 16.1133 -2.83203 16.8457 -2.05078 Z M 95.9473 -7.56836 C 96.3867 -7.37305 96.7773 -7.27539 97.1191 -7.27539 C 98.2422 -7.27539 99.0234 -8.10547 99.0234 -9.08203 C 99.0234 -9.81445 98.6816 -10.4492 97.7051 -10.9375 C 95.459 -11.9629 93.2129 -13.0371 91.0156 -14.1602 C 97.0703 -18.6523 103.955 -22.3145 111.621 -24.6094 C 111.328 -9.96094 108.643 3.61328 104.15 14.502 L 67.9688 14.502 C 71.6797 5.71289 78.3691 -3.71094 87.5 -11.377 C 90.1367 -10.0098 92.9688 -8.74023 95.9473 -7.56836 Z M 64.6973 28.7109 C 64.6973 25.5859 65.332 22.1191 66.5039 18.4082 L 102.393 18.4082 C 96.0938 31.4453 86.9141 39.7461 75.9277 39.7461 C 68.1641 39.7461 64.6973 34.9121 64.6973 28.7109 Z"/>
  </g>
  <g id="Ultralight-L" transform="matrix(1 0 0 1 458.32 1556)">
   <path d="M 17.3828 17.5293 L 62.4512 17.5293 C 60.9863 21.7773 60.2539 25.7812 60.2539 29.3457 C 60.2539 37.6953 65.918 43.5547 74.5605 43.5547 C 87.9395 43.5547 99.0234 33.5449 106.055 17.5293 L 185.449 17.5293 C 186.133 17.5293 186.719 16.9922 186.719 16.2598 C 186.719 15.5762 186.133 14.9902 185.449 14.9902 L 107.129 14.9902 C 111.67 3.61328 114.258 -10.4492 114.355 -25.9766 C 118.848 -27.002 123.535 -27.5391 128.418 -27.5391 C 133.252 -27.5391 135.791 -26.2207 135.791 -23.2422 C 135.791 -18.6523 131.738 -11.7188 131.738 -6.25 C 131.738 -2.68555 134.229 -1.61133 136.426 -1.61133 C 147.021 -1.61133 161.377 -25 168.066 -25 C 175 -25 166.309 -4.24805 178.613 -4.24805 C 180.762 -4.24805 182.715 -4.78516 185.205 -6.10352 C 185.84 -6.44531 186.084 -7.03125 186.084 -7.4707 C 186.084 -8.20312 185.645 -8.88672 184.814 -8.88672 C 183.691 -8.88672 181.396 -7.03125 178.711 -7.03125 C 170.02 -7.03125 179.004 -27.832 168.213 -27.832 C 159.131 -27.832 144.287 -4.3457 136.621 -4.3457 C 135.498 -4.3457 134.668 -4.93164 134.668 -6.44531 C 134.668 -11.7676 138.721 -18.0664 138.721 -23.0469 C 138.721 -27.9785 135.352 -30.5176 128.662 -30.5176 C 123.682 -30.5176 118.896 -29.9805 114.355 -28.9551 C 113.867 -63.8184 99.0723 -88.5742 76.3672 -88.5742 C 62.1582 -88.5742 51.0254 -76.416 51.0254 -60.5469 C 51.0254 -44.0918 60.2539 -26.4648 84.2773 -13.623 C 74.3164 -5.17578 67.1387 5.32227 63.3789 14.9902 L 17.3828 14.9902 C 16.6504 14.9902 16.0645 15.5762 16.0645 16.2598 C 16.0645 16.9922 16.6504 17.5293 17.3828 17.5293 Z M 54.0039 -60.5469 C 54.0039 -74.6094 63.7695 -85.6445 76.3672 -85.6445 C 97.6562 -85.6445 111.133 -59.9121 111.426 -28.2227 C 102.197 -25.6836 93.9453 -21.2891 86.9629 -15.8203 C 67.9199 -26.416 54.0039 -40.9668 54.0039 -60.5469 Z M 16.3086 -2.05078 C 16.8457 -1.51367 17.6758 -1.51367 18.2129 -2.05078 L 28.0273 -11.8164 L 37.8418 -2.05078 C 38.3789 -1.51367 39.209 -1.51367 39.7461 -2.05078 C 40.332 -2.58789 40.332 -3.41797 39.7461 -3.95508 L 29.9316 -13.7207 L 39.7461 -23.5352 C 40.332 -24.0723 40.332 -24.9023 39.7461 -25.4395 C 39.209 -25.9766 38.3789 -25.9766 37.8418 -25.4395 L 28.0273 -15.625 L 18.2129 -25.4395 C 17.6758 -25.9766 16.8457 -25.9766 16.3086 -25.4395 C 15.7715 -24.9023 15.7715 -24.0723 16.3086 -23.5352 L 26.123 -13.7207 L 16.3086 -3.95508 C 15.7715 -3.41797 15.7715 -2.58789 16.3086 -2.05078 Z M 95.8984 -8.30078 C 96.2891 -8.1543 96.582 -8.05664 96.8262 -8.05664 C 97.6562 -8.05664 98.1934 -8.69141 98.1934 -9.32617 C 98.1934 -9.91211 97.9004 -10.4004 97.1191 -10.7422 C 94.5312 -11.9141 92.041 -13.1348 89.5996 -14.4043 C 95.8984 -19.1406 103.223 -22.9492 111.426 -25.2441 C 111.182 -10.2539 108.496 3.80859 103.857 14.9902 L 66.3574 14.9902 C 70.1172 5.66406 77.1973 -4.3457 86.8652 -12.3047 C 89.6973 -10.8887 92.7246 -9.57031 95.8984 -8.30078 Z M 63.1836 29.248 C 63.1836 25.7324 63.9648 21.7285 65.4297 17.5293 L 102.734 17.5293 C 96.3379 31.543 86.6699 40.5762 74.9512 40.5762 C 66.7969 40.5762 63.1836 35.5957 63.1836 29.248 Z"/>
  </g>
  <g id="Black-M" transform="matrix(1 0 0 1 2841.41 1126)">
   <path d="M 18.3594 15.9668 L 45.2148 15.9668 C 45.2148 16.0156 45.2148 16.1133 45.2148 16.1621 C 45.2148 28.3203 52.1484 35.498 63.916 35.498 C 77.1484 35.498 86.9629 28.418 93.1641 15.9668 L 165.625 15.9668 C 168.945 15.9668 171.533 13.0371 171.533 9.81445 C 171.533 6.49414 168.945 3.75977 165.625 3.75977 L 97.6562 3.75977 C 99.4629 -3.17383 100.537 -11.1328 100.83 -19.873 C 103.955 -20.5566 107.08 -20.8984 110.303 -20.8984 C 110.84 -20.8984 111.084 -20.6543 111.084 -20.3613 C 111.084 -17.2852 108.447 -14.3555 108.447 -9.13086 C 108.447 -4.05273 112.158 -0.585938 117.676 -0.585938 C 128.955 -0.585938 142.334 -16.3574 144.678 -16.3574 C 146.582 -16.3574 145.752 -2.83203 158.398 -2.83203 C 161.279 -2.83203 164.6 -3.61328 167.041 -5.32227 C 169.043 -6.68945 170.459 -8.78906 170.459 -11.4746 C 170.459 -15.0879 167.92 -18.457 164.16 -18.457 C 162.646 -18.457 161.279 -17.6758 160.547 -17.6758 C 158.301 -17.6758 160.693 -33.0078 148.34 -33.0078 C 138.867 -33.0078 128.564 -20.6055 126.367 -20.6055 C 125.928 -20.6055 125.83 -20.8008 125.83 -21.2402 C 125.83 -22.0215 125.781 -22.4121 125.781 -23.1934 C 125.781 -30.7129 120.85 -34.9609 112.549 -34.9609 C 108.447 -34.9609 104.443 -34.6191 100.537 -33.9844 C 97.998 -60.9863 83.8379 -79.9805 64.9414 -79.9805 C 48.9746 -79.9805 38.7695 -68.9453 38.7695 -52.3926 C 38.7695 -35.5469 49.0234 -21.6309 59.3262 -12.5488 C 54.2969 -7.42188 50.4395 -1.80664 48.0469 3.75977 L 18.3594 3.75977 C 15.0391 3.75977 12.4512 6.5918 12.4512 9.81445 C 12.4512 12.9883 15.0879 15.9668 18.3594 15.9668 Z M 52.832 -52.5391 C 52.832 -60.498 57.4219 -65.8203 65.0391 -65.8203 C 76.416 -65.8203 85.4492 -51.1719 86.7188 -30.2246 C 80.6641 -27.9785 75.0977 -25.0488 70.166 -21.6309 C 61.8164 -28.7109 52.832 -39.0137 52.832 -52.5391 Z M 14.5508 -2.24609 C 16.5039 -0.244141 19.6289 -0.244141 21.582 -2.19727 L 26.416 -7.03125 L 31.25 -2.24609 C 33.252 -0.292969 36.2793 -0.292969 38.2812 -2.24609 C 40.2832 -4.19922 40.2832 -7.32422 38.2812 -9.32617 L 33.4961 -14.0625 L 38.2812 -18.8965 C 40.2832 -20.8984 40.2344 -23.877 38.2812 -25.8789 C 36.3281 -27.9297 33.2031 -27.9297 31.25 -25.9766 L 26.416 -21.0938 L 21.582 -25.8789 C 19.5801 -27.832 16.5527 -27.832 14.5508 -25.8789 C 12.5488 -23.9746 12.5488 -20.8008 14.5508 -18.7988 L 19.3359 -14.0625 L 14.5508 -9.27734 C 12.5488 -7.27539 12.5977 -4.24805 14.5508 -2.24609 Z M 71.8262 -3.56445 C 73.0957 -2.88086 74.4141 -2.53906 75.6836 -2.53906 C 79.1992 -2.53906 82.2754 -4.98047 82.2754 -8.64258 C 82.2754 -9.76562 82.0801 -10.8398 81.5918 -11.8164 C 83.1543 -12.793 84.7168 -13.7207 86.377 -14.5996 C 85.6934 -7.66602 84.4238 -1.46484 82.6172 3.75977 L 64.8926 3.75977 C 66.6504 1.2207 68.8477 -1.31836 71.4355 -3.80859 C 71.582 -3.71094 71.7285 -3.66211 71.8262 -3.56445 Z M 65.625 21.3867 C 62.4512 21.3867 60.498 19.3848 60.3027 15.9668 L 76.0254 15.9668 C 72.998 19.4824 69.4336 21.3867 65.625 21.3867 Z"/>
  </g>
  <g id="Heavy-M" transform="matrix(1 0 0 1 2546.16 1126)">
   <path d="M 17.8711 14.4531 L 45.8496 14.4531 C 45.8496 14.8438 45.8496 15.2344 45.8496 15.5762 C 45.8496 26.7578 52.1484 33.5449 63.3301 33.5449 C 75.8789 33.5449 85.4004 26.5137 91.5527 14.4531 L 163.184 14.4531 C 166.211 14.4531 168.604 11.7676 168.604 8.78906 C 168.604 5.76172 166.211 3.22266 163.184 3.22266 L 95.8008 3.22266 C 97.9004 -4.00391 99.0723 -12.3047 99.4141 -21.5332 C 102.49 -22.168 105.664 -22.5098 108.887 -22.5098 C 109.717 -22.5098 110.107 -22.168 110.107 -21.6309 C 110.107 -18.2617 107.568 -15.2344 107.568 -10.3027 C 107.568 -5.51758 111.035 -2.34375 116.113 -2.34375 C 127.1 -2.34375 140.088 -18.4082 142.822 -18.4082 C 145.117 -18.4082 143.457 -4.44336 156.006 -4.44336 C 158.691 -4.44336 161.865 -5.17578 164.16 -6.78711 C 166.016 -8.05664 167.236 -9.91211 167.236 -12.3047 C 167.236 -15.4785 165.039 -18.457 161.719 -18.457 C 160.156 -18.457 158.789 -17.5293 157.812 -17.5293 C 154.883 -17.5293 157.861 -33.0566 146.191 -33.0566 C 136.914 -33.0566 125.879 -19.6777 123.438 -19.6777 C 122.998 -19.6777 122.803 -19.873 122.803 -20.3613 C 122.803 -21.3867 123.291 -22.6074 123.291 -24.1211 C 123.291 -31.0547 118.555 -35.0586 110.742 -35.0586 C 106.787 -35.0586 102.93 -34.668 99.1699 -34.0332 C 97.0215 -60.791 83.252 -80.0293 64.4531 -80.0293 C 49.3164 -80.0293 39.209 -69.0918 39.209 -53.2227 C 39.209 -36.4746 49.6094 -22.6562 60.3516 -13.623 C 55.127 -8.30078 51.123 -2.49023 48.6328 3.22266 L 17.8711 3.22266 C 14.8438 3.22266 12.4512 5.81055 12.4512 8.78906 C 12.4512 11.7188 14.8926 14.4531 17.8711 14.4531 Z M 51.709 -53.3691 C 51.709 -61.6699 56.7383 -67.4805 64.502 -67.4805 C 76.6602 -67.4805 85.791 -52.002 86.8652 -30.7129 C 80.6641 -28.3691 74.9512 -25.293 69.873 -21.6797 C 61.1816 -28.8086 51.709 -39.4043 51.709 -53.3691 Z M 14.6484 -4.00391 C 16.4551 -2.14844 19.2871 -2.14844 21.0449 -3.95508 L 26.2207 -9.08203 L 31.3477 -4.00391 C 33.2031 -2.19727 35.9375 -2.19727 37.793 -4.00391 C 39.5996 -5.76172 39.5996 -8.64258 37.793 -10.4492 L 32.666 -15.5273 L 37.793 -20.6055 C 39.5996 -22.4609 39.5508 -25.1953 37.793 -27.0508 C 35.9863 -28.8574 33.1543 -28.8574 31.3477 -27.0996 L 26.2207 -21.9238 L 21.0449 -27.0508 C 19.2383 -28.8086 16.5039 -28.8086 14.6484 -27.0508 C 12.793 -25.2441 12.793 -22.4121 14.6484 -20.5566 L 19.7266 -15.4785 L 14.6484 -10.4004 C 12.793 -8.54492 12.8418 -5.81055 14.6484 -4.00391 Z M 72.4609 -5.37109 C 73.584 -4.73633 74.7559 -4.49219 75.8301 -4.49219 C 79.0039 -4.49219 81.6895 -6.73828 81.6895 -9.91211 C 81.6895 -11.1816 81.3965 -12.4023 80.5664 -13.5254 C 82.4707 -14.7949 84.4727 -15.918 86.5723 -16.9922 C 85.9375 -9.32617 84.4727 -2.49023 82.4219 3.22266 L 63.3301 3.22266 C 65.332 0.146484 67.9688 -3.07617 71.1426 -6.10352 C 71.582 -5.81055 72.0215 -5.61523 72.4609 -5.37109 Z M 59.1309 14.6973 C 59.1309 14.5996 59.1309 14.502 59.1309 14.4531 L 76.5137 14.4531 C 73.1445 18.6523 69.1895 21.0449 64.7949 21.0449 C 61.1328 21.0449 59.1309 18.6035 59.1309 14.6973 Z"/>
  </g>
  <g id="Bold-M" transform="matrix(1 0 0 1 2251.09 1126)">
   <path d="M 17.3828 12.6953 L 46.6309 12.6953 C 46.5332 13.4766 46.4844 14.209 46.4844 14.9902 C 46.4844 25 52.1484 31.3965 62.6465 31.3965 C 74.4629 31.3965 83.6914 24.4141 89.6973 12.6953 L 160.449 12.6953 C 163.184 12.6953 165.332 10.3516 165.332 7.66602 C 165.332 4.93164 163.184 2.63672 160.449 2.63672 L 93.75 2.63672 C 96.0938 -4.88281 97.4609 -13.6719 97.8027 -23.3398 C 100.879 -23.9746 104.102 -24.3652 107.324 -24.3652 C 108.447 -24.3652 109.082 -23.8281 109.082 -23.0469 C 109.082 -19.3848 106.592 -16.2598 106.592 -11.5723 C 106.592 -7.17773 109.814 -4.29688 114.355 -4.29688 C 124.951 -4.29688 137.646 -20.6543 140.771 -20.6543 C 143.555 -20.6543 140.918 -6.25 153.369 -6.25 C 155.811 -6.25 158.789 -6.93359 160.986 -8.44727 C 162.598 -9.52148 163.672 -11.1328 163.672 -13.2812 C 163.672 -15.9668 161.816 -18.457 158.984 -18.457 C 157.373 -18.457 156.006 -17.334 154.785 -17.334 C 151.025 -17.334 154.736 -33.1055 143.701 -33.1055 C 134.717 -33.1055 122.9 -18.6523 120.117 -18.6523 C 119.678 -18.6523 119.482 -18.8477 119.482 -19.3848 C 119.482 -20.6543 120.557 -22.8516 120.557 -25.1953 C 120.557 -31.3965 116.064 -35.1074 108.74 -35.1074 C 104.98 -35.1074 101.27 -34.7656 97.6562 -34.082 C 95.8984 -60.5469 82.6172 -80.0781 63.8672 -80.0781 C 49.6582 -80.0781 39.6973 -69.2383 39.6973 -54.1504 C 39.6973 -37.6465 50.1465 -23.8281 61.5723 -14.8438 C 56.1035 -9.32617 51.9043 -3.27148 49.3164 2.63672 L 17.3828 2.63672 C 14.6484 2.63672 12.4512 4.98047 12.4512 7.66602 C 12.4512 10.3027 14.6484 12.6953 17.3828 12.6953 Z M 50.4395 -54.248 C 50.4395 -62.9883 55.957 -69.2871 63.916 -69.2871 C 76.9043 -69.2871 86.1816 -52.9297 87.0605 -31.2012 C 80.6641 -28.8574 74.8047 -25.6348 69.6289 -21.7773 C 60.4004 -28.9062 50.4395 -39.8438 50.4395 -54.248 Z M 14.7461 -5.9082 C 16.3574 -4.29688 18.8965 -4.29688 20.5078 -5.9082 L 25.9766 -11.377 L 31.4453 -5.9082 C 33.1055 -4.29688 35.5469 -4.29688 37.207 -5.9082 C 38.8672 -7.51953 38.8672 -10.1074 37.207 -11.7188 L 31.7871 -17.1387 L 37.207 -22.5586 C 38.8672 -24.2188 38.8184 -26.6602 37.207 -28.3203 C 35.5957 -29.9805 33.0566 -29.9316 31.4453 -28.3691 L 25.9766 -22.9004 L 20.5078 -28.3203 C 18.8477 -29.9316 16.4062 -29.9316 14.7461 -28.3203 C 13.1348 -26.709 13.1348 -24.1699 14.7461 -22.5586 L 20.2148 -17.1387 L 14.7461 -11.6699 C 13.1348 -10.0586 13.1348 -7.56836 14.7461 -5.9082 Z M 73.1445 -7.37305 C 74.1211 -6.88477 75.0977 -6.64062 76.0254 -6.64062 C 78.7598 -6.64062 81.0059 -8.64258 81.0059 -11.3281 C 81.0059 -12.793 80.5176 -14.1602 79.1504 -15.332 C 81.543 -16.8945 84.1309 -18.3594 86.8164 -19.6289 C 86.1816 -11.1816 84.5703 -3.61328 82.1777 2.63672 L 61.6211 2.63672 C 63.8184 -1.12305 66.9434 -5.0293 70.752 -8.64258 C 71.582 -8.20312 72.3633 -7.76367 73.1445 -7.37305 Z M 57.8125 13.916 C 57.8125 13.5254 57.8613 13.1348 57.9102 12.6953 L 76.9531 12.6953 C 73.291 17.7246 68.8477 20.6543 63.916 20.6543 C 59.9121 20.6543 57.8125 17.9688 57.8125 13.916 Z"/>
  </g>
  <g id="Semibold-M" transform="matrix(1 0 0 1 1955.5 1126)">
   <path d="M 16.9922 11.5234 L 47.168 11.5234 C 47.0215 12.5488 46.9727 13.5742 46.9727 14.5508 C 46.9727 23.7793 52.1484 29.8828 62.207 29.8828 C 73.4863 29.8828 82.4707 22.998 88.4766 11.5234 L 158.545 11.5234 C 161.084 11.5234 163.086 9.32617 163.086 6.88477 C 163.086 4.3457 161.084 2.24609 158.545 2.24609 L 92.334 2.24609 C 94.873 -5.51758 96.3867 -14.5996 96.6797 -24.5605 C 99.8047 -25.2441 102.979 -25.5859 106.25 -25.5859 C 107.617 -25.5859 108.35 -25 108.35 -24.0234 C 108.35 -20.166 105.908 -16.9922 105.908 -12.4512 C 105.908 -8.30078 108.984 -5.66406 113.184 -5.66406 C 123.535 -5.66406 135.938 -22.2168 139.355 -22.2168 C 142.432 -22.2168 139.111 -7.51953 151.514 -7.51953 C 153.809 -7.51953 156.641 -8.1543 158.789 -9.57031 C 160.205 -10.5469 161.23 -12.0117 161.23 -13.916 C 161.23 -16.3086 159.619 -18.4082 157.08 -18.4082 C 155.469 -18.4082 154.053 -17.2363 152.686 -17.2363 C 148.389 -17.2363 152.539 -33.1543 142.041 -33.1543 C 133.203 -33.1543 120.85 -17.9199 117.871 -17.9199 C 117.432 -17.9199 117.188 -18.1641 117.188 -18.7012 C 117.188 -20.166 118.652 -22.998 118.652 -25.9277 C 118.652 -31.6406 114.307 -35.1562 107.373 -35.1562 C 103.662 -35.1562 100.098 -34.7656 96.6309 -34.1309 C 95.1172 -60.3516 82.2266 -80.127 63.5254 -80.127 C 49.9023 -80.127 40.0391 -69.3848 40.0391 -54.7852 C 40.0391 -38.4766 50.4883 -24.707 62.4023 -15.7227 C 56.7383 -10.1074 52.4414 -3.80859 49.8047 2.24609 L 16.9922 2.24609 C 14.502 2.24609 12.4512 4.3457 12.4512 6.88477 C 12.4512 9.32617 14.502 11.5234 16.9922 11.5234 Z M 49.5605 -54.8828 C 49.5605 -63.8672 55.4199 -70.5566 63.5254 -70.5566 C 77.0996 -70.5566 86.4746 -53.5645 87.207 -31.5918 C 80.6641 -29.1992 74.707 -25.8301 69.4336 -21.875 C 59.9121 -28.9551 49.5605 -40.1855 49.5605 -54.8828 Z M 14.8438 -7.27539 C 16.3086 -5.76172 18.6523 -5.81055 20.1172 -7.27539 L 25.8301 -12.9395 L 31.543 -7.27539 C 33.0566 -5.76172 35.3027 -5.76172 36.8164 -7.27539 C 38.3301 -8.74023 38.3301 -11.084 36.8164 -12.5977 L 31.1523 -18.2617 L 36.8164 -23.9258 C 38.3301 -25.4395 38.3301 -27.6855 36.8164 -29.1992 C 35.3516 -30.7129 33.0078 -30.6641 31.543 -29.1992 L 25.8301 -23.5352 L 20.1172 -29.1992 C 18.6035 -30.7129 16.3574 -30.7129 14.8438 -29.1992 C 13.3301 -27.6855 13.3301 -25.3906 14.8438 -23.877 L 20.5078 -18.2129 L 14.8438 -12.5488 C 13.3301 -11.0352 13.3301 -8.78906 14.8438 -7.27539 Z M 73.6328 -8.78906 C 74.5117 -8.34961 75.293 -8.1543 76.123 -8.1543 C 78.5645 -8.1543 80.5176 -9.96094 80.5176 -12.3047 C 80.5176 -13.8184 79.8828 -15.2832 78.0762 -16.3574 L 77.9785 -16.4062 C 80.7617 -18.3105 83.7891 -20.0195 86.9629 -21.3867 C 86.3281 -12.5 84.6191 -4.39453 82.0312 2.24609 L 60.4492 2.24609 C 62.793 -1.95312 66.2109 -6.39648 70.5078 -10.4004 C 71.582 -9.81445 72.6074 -9.27734 73.6328 -8.78906 Z M 56.9336 13.3789 C 56.9336 12.7441 56.9824 12.1582 57.0801 11.5234 L 77.2461 11.5234 C 73.3887 17.0898 68.6035 20.3613 63.3301 20.3613 C 59.0332 20.3613 56.9336 17.5781 56.9336 13.3789 Z"/>
  </g>
  <g id="Medium-M" transform="matrix(1 0 0 1 1659.64 1126)">
   <path d="M 16.748 10.5957 L 47.6074 10.5957 C 47.4121 11.8164 47.3145 13.0371 47.3145 14.209 C 47.3145 22.8516 52.1973 28.7598 61.8652 28.7598 C 72.7539 28.7598 81.5918 21.875 87.5 10.5957 L 157.129 10.5957 C 159.473 10.5957 161.377 8.59375 161.377 6.25 C 161.377 3.90625 159.473 1.95312 157.129 1.95312 L 91.2109 1.95312 C 93.8965 -6.00586 95.5078 -15.332 95.8496 -25.5371 C 98.9746 -26.1719 102.148 -26.5625 105.469 -26.5625 C 106.934 -26.5625 107.812 -25.8789 107.812 -24.8047 C 107.812 -20.752 105.42 -17.4805 105.42 -13.0859 C 105.42 -9.13086 108.35 -6.68945 112.256 -6.68945 C 122.412 -6.68945 134.619 -23.3887 138.281 -23.3887 C 141.602 -23.3887 137.793 -8.49609 150.146 -8.49609 C 152.295 -8.49609 155.029 -9.0332 157.08 -10.4492 C 158.447 -11.3281 159.375 -12.6953 159.375 -14.4043 C 159.375 -16.5527 157.91 -18.4082 155.664 -18.4082 C 154.004 -18.4082 152.588 -17.1387 151.074 -17.1387 C 146.338 -17.1387 150.928 -33.1543 140.723 -33.1543 C 132.031 -33.1543 119.287 -17.3828 116.113 -17.3828 C 115.723 -17.3828 115.43 -17.627 115.43 -18.1641 C 115.43 -19.7754 117.188 -23.0957 117.188 -26.4648 C 117.188 -31.8359 112.988 -35.1562 106.299 -35.1562 C 102.686 -35.1562 99.2188 -34.8145 95.8008 -34.1797 C 94.4824 -60.2051 81.8848 -80.1758 63.2324 -80.1758 C 50.0488 -80.1758 40.2832 -69.4336 40.2832 -55.2734 C 40.2832 -39.1113 50.7324 -25.4395 63.0371 -16.4062 C 57.2266 -10.6934 52.832 -4.24805 50.1465 1.95312 L 16.748 1.95312 C 14.3555 1.95312 12.4512 3.90625 12.4512 6.25 C 12.4512 8.59375 14.4043 10.5957 16.748 10.5957 Z M 48.877 -55.3223 C 48.877 -64.5508 55.0293 -71.5332 63.2324 -71.5332 C 77.2461 -71.5332 86.6699 -54.0039 87.2559 -31.8359 C 80.6641 -29.4922 74.6094 -26.0254 69.3359 -21.9727 C 59.5215 -29.0039 48.877 -40.4297 48.877 -55.3223 Z M 14.8926 -8.30078 C 16.3086 -6.88477 18.457 -6.93359 19.8242 -8.30078 L 25.7324 -14.1602 L 31.5918 -8.30078 C 33.0078 -6.88477 35.1074 -6.88477 36.5234 -8.30078 C 37.9395 -9.66797 37.9395 -11.8652 36.5234 -13.2324 L 30.6641 -19.0918 L 36.5234 -24.9512 C 37.9395 -26.3184 37.9395 -28.4668 36.5234 -29.8828 C 35.1562 -31.2988 33.0078 -31.25 31.5918 -29.8828 L 25.7324 -24.0234 L 19.8242 -29.8828 C 18.4082 -31.25 16.3086 -31.25 14.8926 -29.8828 C 13.4766 -28.4668 13.4766 -26.2695 14.8926 -24.9023 L 20.752 -19.0918 L 14.8926 -13.2324 C 13.4766 -11.8164 13.4766 -9.7168 14.8926 -8.30078 Z M 74.0234 -9.81445 C 74.7559 -9.42383 75.4883 -9.27734 76.2207 -9.27734 C 78.4668 -9.27734 80.1758 -10.9863 80.1758 -13.0371 C 80.1758 -14.4043 79.541 -15.7227 77.9297 -16.6504 C 77.5879 -16.7969 77.2949 -16.9922 76.9531 -17.1387 C 80.0781 -19.3359 83.4473 -21.2402 87.1094 -22.7539 C 86.4746 -13.4277 84.668 -4.98047 81.9336 1.95312 L 59.5703 1.95312 C 61.9629 -2.58789 65.625 -7.42188 70.2637 -11.7676 C 71.5332 -11.084 72.7539 -10.4004 74.0234 -9.81445 Z M 56.25 12.9395 C 56.25 12.207 56.3477 11.4258 56.4453 10.5957 L 77.4902 10.5957 C 73.4375 16.6016 68.457 20.166 62.8418 20.166 C 58.3984 20.166 56.25 17.2363 56.25 12.9395 Z"/>
  </g>
  <g id="Regular-M" transform="matrix(1 0 0 1 1364.03 1126)">
   <path d="M 16.3574 9.42383 L 48.1934 9.42383 C 47.9004 10.9375 47.7539 12.4023 47.7539 13.8184 C 47.7539 21.6797 52.1973 27.2949 61.377 27.2949 C 71.8262 27.2949 80.4199 20.459 86.2793 9.42383 L 155.225 9.42383 C 157.373 9.42383 159.18 7.61719 159.18 5.46875 C 159.18 3.32031 157.373 1.5625 155.225 1.5625 L 89.7461 1.5625 C 92.6758 -6.5918 94.4336 -16.2598 94.7754 -26.7578 C 97.8516 -27.4414 101.074 -27.7832 104.395 -27.7832 C 106.104 -27.7832 107.08 -27.0508 107.08 -25.7812 C 107.08 -21.5332 104.785 -18.2129 104.785 -13.9648 C 104.785 -10.2539 107.471 -8.00781 111.084 -8.00781 C 120.996 -8.00781 132.91 -24.9512 136.914 -24.9512 C 140.527 -24.9512 136.035 -9.7168 148.291 -9.7168 C 150.342 -9.7168 152.93 -10.2539 154.932 -11.5723 C 156.104 -12.3535 156.934 -13.5254 156.934 -15.0391 C 156.934 -16.8945 155.713 -18.4082 153.809 -18.4082 C 152.1 -18.4082 150.684 -16.9922 149.023 -16.9922 C 143.75 -16.9922 148.779 -33.2031 139.062 -33.2031 C 130.518 -33.2031 117.285 -16.6992 113.867 -16.6992 C 113.477 -16.6992 113.135 -16.9434 113.135 -17.5293 C 113.135 -19.2871 115.283 -23.291 115.283 -27.1973 C 115.283 -32.0801 111.23 -35.2051 104.932 -35.2051 C 101.416 -35.2051 98.0469 -34.8633 94.7754 -34.2285 C 93.7012 -60.0098 81.4941 -80.2246 62.8418 -80.2246 C 50.293 -80.2246 40.5762 -69.5312 40.5762 -55.9082 C 40.5762 -39.9902 50.9766 -26.3672 63.8672 -17.334 C 57.9102 -11.4746 53.3203 -4.78516 50.6348 1.5625 L 16.3574 1.5625 C 14.209 1.5625 12.4512 3.32031 12.4512 5.46875 C 12.4512 7.61719 14.209 9.42383 16.3574 9.42383 Z M 48.0469 -55.9082 C 48.0469 -65.4297 54.4922 -72.8027 62.8418 -72.8027 C 77.4902 -72.8027 86.9629 -54.5898 87.4023 -32.2266 C 80.6641 -29.8828 74.5117 -26.3184 69.1895 -22.0703 C 58.9844 -29.1016 48.0469 -40.7227 48.0469 -55.9082 Z M 14.9902 -9.61914 C 16.2598 -8.34961 18.1641 -8.39844 19.4336 -9.61914 L 25.5859 -15.7227 L 31.6895 -9.61914 C 32.959 -8.34961 34.8633 -8.34961 36.1328 -9.61914 C 37.4512 -10.8887 37.4512 -12.8418 36.1328 -14.1113 L 30.0293 -20.166 L 36.1328 -26.2695 C 37.4512 -27.5391 37.4512 -29.4434 36.1328 -30.7129 C 34.8633 -32.0312 32.959 -31.9824 31.6895 -30.7129 L 25.5859 -24.6582 L 19.4336 -30.7129 C 18.1641 -32.0312 16.2598 -32.0312 14.9902 -30.7129 C 13.6719 -29.4434 13.6719 -27.4902 14.9902 -26.2695 L 21.0938 -20.166 L 14.9902 -14.1113 C 13.6719 -12.793 13.6719 -10.8887 14.9902 -9.61914 Z M 74.4629 -11.1816 C 75.1465 -10.8887 75.7324 -10.7422 76.3184 -10.7422 C 78.2715 -10.7422 79.7363 -12.3047 79.7363 -14.0137 C 79.7363 -15.1855 79.1016 -16.3574 77.6855 -17.041 C 77.0508 -17.3828 76.3184 -17.7246 75.6348 -18.1152 C 79.1504 -20.6055 83.0078 -22.8027 87.207 -24.4629 C 86.6699 -14.6973 84.7168 -5.71289 81.7871 1.5625 L 58.4473 1.5625 C 60.9375 -3.4668 64.8926 -8.78906 69.9707 -13.5254 C 71.4844 -12.6953 72.998 -11.9141 74.4629 -11.1816 Z M 55.3711 12.4023 C 55.3711 11.4746 55.4688 10.4492 55.6641 9.42383 L 77.7344 9.42383 C 73.5352 15.9668 68.2129 19.873 62.2559 19.873 C 57.5684 19.873 55.3711 16.7969 55.3711 12.4023 Z"/>
  </g>
  <g id="Light-M" transform="matrix(1 0 0 1 1069.56 1126)">
   <path d="M 15.4785 8.25195 L 48.1445 8.25195 C 47.7051 10.3027 47.4609 12.2559 47.4609 14.1113 C 47.4609 21.5332 51.8555 26.8555 60.2539 26.8555 C 70.7031 26.8555 79.2969 19.7266 85.0586 8.25195 L 151.66 8.25195 C 153.32 8.25195 154.688 6.88477 154.688 5.22461 C 154.688 3.56445 153.32 2.19727 151.66 2.19727 L 87.6465 2.19727 C 90.7715 -6.15234 92.627 -16.2109 92.8711 -27.1484 C 96.0938 -27.8809 99.4141 -28.2715 102.881 -28.2715 C 105.225 -28.2715 106.494 -27.3926 106.494 -25.8301 C 106.494 -21.7773 103.955 -17.8223 103.955 -13.5742 C 103.955 -10.1562 106.396 -8.39844 109.424 -8.39844 C 118.799 -8.39844 130.518 -25.6836 134.814 -25.6836 C 139.014 -25.6836 133.838 -10.1562 145.264 -10.1562 C 147.168 -10.1562 149.414 -10.6934 151.367 -11.9141 C 152.344 -12.5488 152.979 -13.4766 152.979 -14.6484 C 152.979 -16.0645 152.051 -17.2852 150.537 -17.2852 C 149.072 -17.2852 147.559 -15.8691 145.752 -15.8691 C 140.039 -15.8691 145.654 -32.0801 136.377 -32.0801 C 128.32 -32.0801 115.576 -15.0391 111.377 -15.0391 C 110.84 -15.0391 110.4 -15.332 110.4 -16.1133 C 110.4 -18.6035 112.891 -22.8516 112.891 -26.7578 C 112.891 -31.2988 109.277 -34.082 103.32 -34.082 C 99.707 -34.082 96.2402 -33.6914 92.8711 -33.0078 C 92.041 -59.1309 80.0293 -79.1016 61.7188 -79.1016 C 49.6582 -79.1016 40.2832 -68.7988 40.2832 -55.6152 C 40.2832 -40.4785 49.8535 -26.9043 64.209 -17.627 C 57.7637 -11.5234 52.9297 -4.44336 50.1465 2.19727 L 15.4785 2.19727 C 13.8184 2.19727 12.4512 3.56445 12.4512 5.22461 C 12.4512 6.88477 13.8184 8.25195 15.4785 8.25195 Z M 46.0938 -55.6152 C 46.0938 -65.5273 52.9297 -73.2422 61.7188 -73.2422 C 76.9043 -73.2422 86.6699 -54.541 87.0605 -31.4941 C 80.1758 -29.248 73.9258 -25.6836 68.5547 -21.4355 C 57.2266 -28.7109 46.0938 -40.2832 46.0938 -55.6152 Z M 14.2578 -9.57031 C 15.2832 -8.59375 16.7969 -8.59375 17.7734 -9.57031 L 24.3652 -16.1133 L 30.957 -9.57031 C 31.9824 -8.59375 33.4961 -8.59375 34.5215 -9.57031 C 35.498 -10.5957 35.498 -12.1582 34.5215 -13.1348 L 27.9297 -19.6777 L 34.5215 -26.2207 C 35.498 -27.2461 35.498 -28.7598 34.5215 -29.7852 C 33.4961 -30.8105 31.9824 -30.7617 30.957 -29.7852 L 24.3652 -23.2422 L 17.7734 -29.7852 C 16.7969 -30.8105 15.2832 -30.8105 14.2578 -29.7852 C 13.2324 -28.7598 13.2324 -27.1973 14.2578 -26.2207 L 20.8008 -19.6777 L 14.2578 -13.1348 C 13.2324 -12.1094 13.2324 -10.5957 14.2578 -9.57031 Z M 74.4629 -12.1582 C 75 -11.9141 75.4395 -11.8164 75.9277 -11.8164 C 77.4902 -11.8164 78.6133 -13.0371 78.6133 -14.3555 C 78.6133 -15.332 78.125 -16.2109 76.9531 -16.7969 C 75.8789 -17.2852 74.8047 -17.8223 73.7305 -18.4082 C 77.6855 -21.2891 82.1289 -23.7305 86.9629 -25.4883 C 86.5234 -15.0879 84.5215 -5.51758 81.3477 2.19727 L 56.25 2.19727 C 58.8867 -3.4668 63.3301 -9.52148 69.1406 -14.7461 C 70.8496 -13.8184 72.6074 -12.9883 74.4629 -12.1582 Z M 53.418 13.1348 C 53.418 11.6211 53.6133 9.96094 54.0527 8.25195 L 78.4668 8.25195 C 73.9258 16.1621 67.8711 20.9961 60.9863 20.9961 C 55.7617 20.9961 53.418 17.6758 53.418 13.1348 Z"/>
  </g>
  <g id="Thin-M" transform="matrix(1 0 0 1 775.807 1126)">
   <path d="M 14.2578 6.73828 L 48.2422 6.73828 C 47.4121 9.47266 47.0215 12.1582 47.0215 14.5508 C 47.0215 21.3867 51.3672 26.2207 58.7891 26.2207 C 69.1895 26.2207 77.7832 18.75 83.3496 6.73828 L 146.924 6.73828 C 147.949 6.73828 148.73 5.9082 148.73 4.88281 C 148.73 3.90625 147.949 3.07617 146.924 3.07617 L 84.9121 3.07617 C 88.2324 -5.56641 90.1855 -16.1133 90.3809 -27.6855 C 93.7012 -28.4668 97.2168 -28.8574 100.879 -28.8574 C 104.053 -28.8574 105.762 -27.9297 105.762 -25.8789 C 105.762 -22.1191 102.832 -17.334 102.832 -13.1348 C 102.832 -10.0586 104.98 -8.83789 107.227 -8.83789 C 115.918 -8.83789 127.295 -26.6602 132.08 -26.6602 C 137.012 -26.6602 130.908 -10.791 141.211 -10.791 C 142.969 -10.791 144.775 -11.2305 146.729 -12.3535 C 147.412 -12.793 147.803 -13.4277 147.803 -14.0625 C 147.803 -14.9902 147.168 -15.8203 146.191 -15.8203 C 145.117 -15.8203 143.408 -14.4043 141.455 -14.4043 C 135.107 -14.4043 141.553 -30.5664 132.812 -30.5664 C 125.342 -30.5664 113.379 -12.793 108.105 -12.793 C 107.373 -12.793 106.836 -13.1836 106.836 -14.209 C 106.836 -17.6758 109.717 -22.3145 109.717 -26.1719 C 109.717 -30.3223 106.689 -32.6172 101.172 -32.6172 C 97.4121 -32.6172 93.7988 -32.1777 90.3809 -31.4453 C 89.7949 -58.1055 78.0762 -77.5879 60.2051 -77.5879 C 48.7793 -77.5879 39.8438 -67.8223 39.8438 -55.1758 C 39.8438 -41.3574 48.0957 -27.7344 64.7949 -18.1152 C 57.666 -11.7188 52.3926 -4.05273 49.5117 3.07617 L 14.2578 3.07617 C 13.2812 3.07617 12.4512 3.90625 12.4512 4.88281 C 12.4512 5.9082 13.2812 6.73828 14.2578 6.73828 Z M 43.5547 -55.1758 C 43.5547 -65.6738 50.8301 -73.877 60.2051 -73.877 C 76.1719 -73.877 86.3281 -54.4434 86.6211 -30.5176 C 79.5898 -28.418 73.2422 -24.9512 67.8223 -20.6543 C 54.5898 -28.4668 43.5547 -39.8926 43.5547 -55.1758 Z M 13.2812 -9.52148 C 13.9648 -8.88672 14.9414 -8.88672 15.625 -9.52148 L 22.8027 -16.6992 L 29.9805 -9.52148 C 30.6641 -8.88672 31.6406 -8.88672 32.3242 -9.52148 C 32.959 -10.2051 32.959 -11.2305 32.3242 -11.8652 L 25.1465 -19.043 L 32.3242 -26.1719 C 32.959 -26.8555 32.959 -27.832 32.3242 -28.5156 C 31.6406 -29.1504 30.6641 -29.1504 29.9805 -28.5156 L 22.8027 -21.3379 L 15.625 -28.5156 C 14.9414 -29.1504 13.9648 -29.1504 13.2812 -28.5156 C 12.6465 -27.832 12.6465 -26.8555 13.2812 -26.1719 L 20.459 -19.043 L 13.2812 -11.8652 C 12.6465 -11.1816 12.6465 -10.2051 13.2812 -9.52148 Z M 74.3652 -13.4766 C 74.7559 -13.2812 75.0977 -13.2324 75.3906 -13.2324 C 76.416 -13.2324 77.0996 -14.0137 77.0996 -14.8438 C 77.0996 -15.4785 76.8066 -16.0645 75.9277 -16.4551 C 74.3652 -17.1875 72.7539 -17.9688 71.1914 -18.7988 C 75.6836 -22.168 80.8594 -24.9023 86.6211 -26.709 C 86.3281 -15.5762 84.2773 -5.22461 80.8594 3.07617 L 53.3691 3.07617 C 56.2012 -3.51562 61.2305 -10.5469 68.0664 -16.3574 C 70.0684 -15.332 72.168 -14.3555 74.3652 -13.4766 Z M 50.7812 14.0625 C 50.7812 11.8652 51.2207 9.375 52.0508 6.73828 L 79.1992 6.73828 C 74.3652 16.4062 67.4316 22.5098 59.2773 22.5098 C 53.418 22.5098 50.7812 18.8477 50.7812 14.0625 Z"/>
  </g>
  <g id="Ultralight-M" transform="matrix(1 0 0 1 480.61 1126)">
   <path d="M 13.6719 5.95703 L 48.3398 5.95703 C 47.3145 9.08203 46.7773 12.0605 46.7773 14.7461 C 46.7773 21.3379 51.1719 25.9277 58.0078 25.9277 C 68.4082 25.9277 77.002 18.2129 82.4707 5.95703 L 144.531 5.95703 C 145.166 5.95703 145.703 5.41992 145.703 4.73633 C 145.703 4.10156 145.166 3.56445 144.531 3.56445 L 83.4961 3.56445 C 86.9629 -5.22461 88.9648 -16.0645 89.0625 -27.9785 C 92.4805 -28.7598 96.0938 -29.1992 99.9023 -29.1992 C 103.467 -29.1992 105.371 -28.1738 105.371 -25.9277 C 105.371 -22.3145 102.295 -17.0898 102.295 -12.8418 C 102.295 -10.0098 104.248 -9.08203 106.104 -9.08203 C 114.453 -9.08203 125.635 -27.1484 130.713 -27.1484 C 135.986 -27.1484 129.395 -11.084 139.111 -11.084 C 140.82 -11.084 142.383 -11.5234 144.336 -12.5977 C 144.873 -12.8906 145.117 -13.3789 145.117 -13.8184 C 145.117 -14.4531 144.678 -15.0879 143.994 -15.0879 C 143.066 -15.0879 141.309 -13.623 139.258 -13.623 C 132.617 -13.623 139.453 -29.7852 130.957 -29.7852 C 123.828 -29.7852 112.207 -11.6699 106.445 -11.6699 C 105.615 -11.6699 104.98 -12.1094 104.98 -13.2324 C 104.98 -17.1875 108.057 -22.0215 108.057 -25.8789 C 108.057 -29.7852 105.322 -31.8359 100.049 -31.8359 C 96.2402 -31.8359 92.5781 -31.3965 89.0625 -30.6152 C 88.623 -57.5684 77.0996 -76.8555 59.4727 -76.8555 C 48.3398 -76.8555 39.5996 -67.334 39.5996 -54.9316 C 39.5996 -41.8945 47.0703 -28.2227 65.1855 -18.4082 C 57.6172 -11.8652 52.1484 -3.85742 49.2188 3.56445 L 13.6719 3.56445 C 12.9883 3.56445 12.4512 4.10156 12.4512 4.73633 C 12.4512 5.41992 12.9883 5.95703 13.6719 5.95703 Z M 42.2852 -54.9316 C 42.2852 -65.7227 49.7559 -74.1699 59.4727 -74.1699 C 75.7812 -74.1699 86.1816 -54.3945 86.4258 -29.9805 C 79.2969 -27.9785 72.9004 -24.5605 67.4805 -20.3125 C 53.125 -28.418 42.2852 -39.7461 42.2852 -54.9316 Z M 12.793 -9.52148 C 13.2812 -9.0332 14.0137 -9.0332 14.502 -9.52148 L 21.9727 -16.9922 L 29.4922 -9.52148 C 29.9805 -9.0332 30.7129 -9.0332 31.2012 -9.52148 C 31.6895 -10.0098 31.6895 -10.7422 31.2012 -11.2305 L 23.6816 -18.7012 L 31.2012 -26.1719 C 31.6895 -26.6602 31.6895 -27.3926 31.2012 -27.832 C 30.7129 -28.3203 29.9805 -28.3203 29.4922 -27.832 L 21.9727 -20.3613 L 14.502 -27.832 C 14.0137 -28.3203 13.2812 -28.3203 12.793 -27.832 C 12.3047 -27.3926 12.3047 -26.6602 12.793 -26.1719 L 20.3125 -18.7012 L 12.793 -11.2305 C 12.3047 -10.7422 12.3047 -10.0098 12.793 -9.52148 Z M 74.3652 -14.1113 C 74.6582 -14.0137 74.9023 -13.9648 75.1465 -13.9648 C 75.8789 -13.9648 76.3672 -14.502 76.3672 -15.0879 C 76.3672 -15.5762 76.123 -16.0156 75.4395 -16.3086 C 73.5352 -17.1387 71.6797 -18.0664 69.873 -19.043 C 74.6582 -22.6074 80.2246 -25.5371 86.4258 -27.2949 C 86.2305 -15.7715 84.1309 -5.0293 80.5664 3.56445 L 51.9043 3.56445 C 54.834 -3.51562 60.1562 -11.084 67.5293 -17.1875 C 69.6289 -16.1133 71.9238 -15.0879 74.3652 -14.1113 Z M 49.4141 14.5996 C 49.4141 11.9629 50 9.0332 51.0254 5.95703 L 79.541 5.95703 C 74.5605 16.5039 67.2363 23.2422 58.3984 23.2422 C 52.1973 23.2422 49.4141 19.4336 49.4141 14.5996 Z"/>
  </g>
  <g id="Black-S" transform="matrix(1 0 0 1 2861.4 696)">
   <path d="M 14.3555 4.78516 L 35.498 4.78516 C 35.498 4.83398 35.498 4.93164 35.498 4.98047 C 35.498 14.4531 40.8691 20.0195 50.0488 20.0195 C 60.3516 20.0195 68.0176 14.502 72.9004 4.78516 L 129.639 4.78516 C 132.227 4.78516 134.229 2.49023 134.229 0 C 134.229 -2.58789 132.227 -4.73633 129.639 -4.73633 L 76.416 -4.73633 C 77.832 -10.2051 78.7109 -16.4551 78.9551 -23.3398 C 81.3477 -23.8281 83.8379 -24.1211 86.3281 -24.1211 C 86.7676 -24.1211 86.9629 -23.9258 86.9629 -23.6816 C 86.9629 -21.2402 84.9121 -18.9453 84.9121 -14.8926 C 84.9121 -10.9375 87.793 -8.20312 92.0898 -8.20312 C 100.928 -8.20312 111.377 -20.6055 113.232 -20.6055 C 114.746 -20.6055 114.062 -9.96094 123.975 -9.96094 C 126.221 -9.96094 128.809 -10.5957 130.713 -11.9141 C 132.275 -12.9883 133.35 -14.5996 133.35 -16.6992 C 133.35 -19.4824 131.396 -22.1191 128.467 -22.1191 C 127.295 -22.1191 126.221 -21.4844 125.635 -21.4844 C 123.828 -21.4844 125.732 -33.4961 116.113 -33.4961 C 108.691 -33.4961 100.537 -23.7305 98.8281 -23.7305 C 98.4863 -23.7305 98.3887 -23.877 98.3887 -24.2188 L 98.3887 -25.8789 C 98.3887 -31.7383 94.5312 -35.0586 88.0859 -35.0586 C 84.8633 -35.0586 81.7383 -34.7656 78.7109 -34.2773 C 76.7578 -55.4199 65.6738 -70.3125 50.8789 -70.3125 C 38.4277 -70.3125 30.4199 -61.6699 30.4199 -48.7305 C 30.4199 -35.5469 38.4766 -24.6582 46.582 -17.5293 C 42.627 -13.4766 39.5996 -9.08203 37.6953 -4.73633 L 14.3555 -4.73633 C 11.7676 -4.73633 9.76562 -2.53906 9.76562 0 C 9.76562 2.44141 11.8164 4.78516 14.3555 4.78516 Z M 41.3574 -48.877 C 41.3574 -55.127 44.9707 -59.3262 50.9277 -59.3262 C 59.9121 -59.3262 66.9922 -47.8027 67.9688 -31.3477 C 63.2324 -29.5898 58.8379 -27.2461 54.9316 -24.5605 C 48.4375 -30.127 41.3574 -38.2324 41.3574 -48.877 Z M 11.4258 -9.52148 C 12.9395 -7.95898 15.3809 -7.95898 16.8945 -9.47266 L 20.7031 -13.2812 L 24.5117 -9.52148 C 26.0742 -8.00781 28.418 -8.00781 29.9805 -9.52148 C 31.543 -11.0352 31.543 -13.4766 29.9805 -15.0391 L 26.2207 -18.7988 L 29.9805 -22.5586 C 31.543 -24.1211 31.4941 -26.4648 29.9805 -28.0273 C 28.4668 -29.5898 26.0254 -29.5898 24.5117 -28.0762 L 20.7031 -24.2676 L 16.8945 -28.0273 C 15.332 -29.541 12.9883 -29.541 11.4258 -28.0273 C 9.86328 -26.5137 9.86328 -24.0723 11.4258 -22.5098 L 15.1855 -18.75 L 11.4258 -14.9902 C 9.86328 -13.4277 9.91211 -11.084 11.4258 -9.52148 Z M 56.3477 -10.5469 C 57.3242 -10.0098 58.3496 -9.76562 59.3262 -9.76562 C 62.0605 -9.76562 64.4531 -11.6699 64.4531 -14.502 C 64.4531 -15.3809 64.3066 -16.2109 63.8672 -17.041 C 65.0879 -17.8223 66.3574 -18.5547 67.6758 -19.2383 C 67.1875 -13.7695 66.1621 -8.88672 64.6973 -4.73633 L 50.7812 -4.73633 C 52.1484 -6.73828 53.9062 -8.78906 55.957 -10.7422 C 56.1035 -10.6934 56.2012 -10.5957 56.3477 -10.5469 Z M 51.3672 9.08203 C 48.877 9.08203 47.3145 7.4707 47.168 4.78516 L 59.5703 4.78516 C 57.1777 7.56836 54.3945 9.08203 51.3672 9.08203 Z"/>
  </g>
  <g id="Heavy-S" transform="matrix(1 0 0 1 2565.55 696)">
   <path d="M 14.1113 3.71094 L 35.9863 3.71094 C 35.9863 4.00391 35.9863 4.24805 35.9863 4.54102 C 35.9863 13.2812 40.918 18.6035 49.707 18.6035 C 59.5215 18.6035 66.9922 13.1348 71.7773 3.71094 L 128.174 3.71094 C 130.615 3.71094 132.52 1.61133 132.52 -0.78125 C 132.52 -3.17383 130.615 -5.22461 128.174 -5.22461 L 75.2441 -5.22461 C 76.8555 -10.8398 77.7832 -17.3828 78.0273 -24.5117 C 80.4688 -25.0488 82.9102 -25.293 85.4492 -25.293 C 85.9863 -25.293 86.3281 -25.0488 86.3281 -24.6582 C 86.3281 -21.9727 84.3262 -19.6777 84.3262 -15.8203 C 84.3262 -12.0605 87.0605 -9.52148 91.0645 -9.52148 C 99.707 -9.52148 109.961 -22.0703 112.061 -22.0703 C 113.818 -22.0703 112.549 -11.1328 122.51 -11.1328 C 124.609 -11.1328 127.1 -11.7188 128.906 -12.9883 C 130.371 -13.9648 131.348 -15.4785 131.348 -17.3828 C 131.348 -19.9219 129.59 -22.2168 126.953 -22.2168 C 125.732 -22.2168 124.658 -21.4844 123.926 -21.4844 C 121.631 -21.4844 123.926 -33.6426 114.746 -33.6426 C 107.422 -33.6426 98.6816 -23.1934 96.8262 -23.1934 C 96.5332 -23.1934 96.3867 -23.3398 96.3867 -23.6816 C 96.3867 -24.4141 96.7773 -25.3906 96.7773 -26.6602 C 96.7773 -32.0801 93.0176 -35.2051 86.8652 -35.2051 C 83.7891 -35.2051 80.8105 -34.9609 77.8809 -34.4238 C 76.1719 -55.3223 65.3809 -70.459 50.6348 -70.459 C 38.7207 -70.459 30.8105 -61.8652 30.8105 -49.4141 C 30.8105 -36.2793 38.9648 -25.3906 47.3633 -18.3105 C 43.2617 -14.209 40.1367 -9.66797 38.2324 -5.22461 L 14.1113 -5.22461 C 11.6699 -5.22461 9.76562 -3.17383 9.76562 -0.78125 C 9.76562 1.5625 11.7188 3.71094 14.1113 3.71094 Z M 40.7227 -49.5117 C 40.7227 -56.0059 44.6289 -60.5469 50.6348 -60.5469 C 60.1562 -60.5469 67.2852 -48.4375 68.1152 -31.7871 C 63.2812 -29.9805 58.8379 -27.5391 54.834 -24.707 C 48.0957 -30.2734 40.7227 -38.623 40.7227 -49.5117 Z M 11.5723 -10.8398 C 12.9883 -9.375 15.2832 -9.42383 16.6992 -10.8398 L 20.7031 -14.7949 L 24.6582 -10.8398 C 26.123 -9.42383 28.3203 -9.42383 29.7852 -10.8398 C 31.25 -12.3047 31.25 -14.5508 29.7852 -16.0156 L 25.8301 -19.9219 L 29.7852 -23.877 C 31.25 -25.3418 31.2012 -27.5391 29.7852 -29.0039 C 28.3691 -30.4688 26.0742 -30.4688 24.6582 -29.0527 L 20.6543 -25.0488 L 16.6992 -29.0039 C 15.2344 -30.4199 13.0371 -30.4199 11.5723 -29.0039 C 10.1074 -27.5879 10.1074 -25.293 11.5723 -23.877 L 15.5273 -19.9219 L 11.5723 -15.9668 C 10.1074 -14.502 10.1562 -12.3047 11.5723 -10.8398 Z M 56.8359 -11.8164 C 57.7148 -11.3281 58.5938 -11.1328 59.4727 -11.1328 C 61.9629 -11.1328 64.1113 -12.8906 64.1113 -15.4297 C 64.1113 -16.4062 63.8672 -17.3828 63.2324 -18.2617 C 64.6973 -19.2383 66.2598 -20.1172 67.8711 -20.9473 C 67.334 -14.9902 66.2109 -9.66797 64.5996 -5.22461 L 49.8047 -5.22461 C 51.3672 -7.56836 53.418 -10.0586 55.8105 -12.3535 C 56.1523 -12.1582 56.4941 -12.0117 56.8359 -11.8164 Z M 46.4844 3.75977 L 46.4844 3.71094 L 59.8145 3.71094 C 57.2754 6.88477 54.248 8.69141 50.9277 8.69141 C 48.0957 8.69141 46.4844 6.78711 46.4844 3.75977 Z"/>
  </g>
  <g id="Bold-S" transform="matrix(1 0 0 1 2269.81 696)">
   <path d="M 13.8184 2.53906 L 36.6211 2.53906 C 36.5723 3.02734 36.5234 3.51562 36.5234 4.00391 C 36.5234 11.9141 40.9668 16.9922 49.3652 16.9922 C 58.5938 16.9922 65.7715 11.6211 70.5566 2.53906 L 126.514 2.53906 C 128.76 2.53906 130.566 0.585938 130.566 -1.61133 C 130.566 -3.85742 128.76 -5.71289 126.514 -5.71289 L 73.9258 -5.71289 C 75.7324 -11.6211 76.8066 -18.4082 77.0508 -25.8789 C 79.4434 -26.3672 81.9336 -26.6602 84.4238 -26.6602 C 85.1562 -26.6602 85.5957 -26.2695 85.5957 -25.7324 C 85.5957 -22.8027 83.6914 -20.5078 83.6914 -16.7969 C 83.6914 -13.3301 86.2793 -10.9863 89.9414 -10.9863 C 98.3887 -10.9863 108.35 -23.7305 110.742 -23.7305 C 112.793 -23.7305 110.84 -12.5 120.85 -12.5 C 122.754 -12.5 125.146 -13.0371 126.904 -14.209 C 128.223 -15.0879 129.102 -16.4062 129.102 -18.1641 C 129.102 -20.3613 127.588 -22.3633 125.293 -22.3633 C 123.975 -22.3633 122.9 -21.4844 121.973 -21.4844 C 119.141 -21.4844 121.924 -33.8379 113.184 -33.8379 C 106.006 -33.8379 96.6309 -22.6074 94.6289 -22.6074 C 94.3359 -22.6074 94.1895 -22.7539 94.1895 -23.1445 C 94.1895 -23.9746 94.9707 -25.6348 94.9707 -27.4902 C 94.9707 -32.4219 91.3086 -35.4004 85.5469 -35.4004 C 82.6172 -35.4004 79.7363 -35.1562 76.9531 -34.6191 C 75.4883 -55.2734 65.0879 -70.6543 50.3418 -70.6543 C 39.0625 -70.6543 31.2012 -62.0605 31.2012 -50.1465 C 31.2012 -37.1094 39.502 -26.2695 48.2422 -19.2383 C 44.043 -14.9902 40.7715 -10.3027 38.8184 -5.71289 L 13.8184 -5.71289 C 11.5723 -5.71289 9.76562 -3.85742 9.76562 -1.61133 C 9.76562 0.585938 11.5723 2.53906 13.8184 2.53906 Z M 39.9414 -50.2441 C 39.9414 -56.9824 44.2383 -61.8652 50.3418 -61.8652 C 60.4004 -61.8652 67.627 -49.1211 68.3105 -32.2754 C 63.3301 -30.4199 58.7402 -27.8809 54.7363 -24.9023 C 47.7539 -30.4199 39.9414 -39.0137 39.9414 -50.2441 Z M 11.7676 -12.3535 C 13.0859 -10.9863 15.1367 -11.0352 16.4551 -12.3047 L 20.6543 -16.5039 L 24.8535 -12.3535 C 26.1719 -11.0352 28.2227 -11.0352 29.541 -12.3535 C 30.9082 -13.6719 30.9082 -15.7715 29.541 -17.0898 L 25.3906 -21.2402 L 29.541 -25.3906 C 30.9082 -26.7578 30.8594 -28.7598 29.541 -30.0781 C 28.2227 -31.4453 26.1719 -31.4453 24.8535 -30.127 L 20.6543 -25.9277 L 16.4551 -30.0781 C 15.1367 -31.4453 13.0859 -31.4453 11.7676 -30.0781 C 10.4004 -28.7598 10.4004 -26.709 11.7676 -25.3418 L 15.918 -21.2402 L 11.7676 -17.041 C 10.4004 -15.7227 10.4492 -13.7207 11.7676 -12.3535 Z M 57.373 -13.2324 C 58.1543 -12.8418 58.9355 -12.6465 59.668 -12.6465 C 61.9141 -12.6465 63.7207 -14.3066 63.7207 -16.4551 C 63.7207 -17.5781 63.3789 -18.6523 62.3535 -19.5801 C 64.1602 -20.752 66.0645 -21.8262 68.0664 -22.8027 C 67.5781 -16.3574 66.3086 -10.5469 64.502 -5.71289 L 48.7793 -5.71289 C 50.4395 -8.54492 52.7832 -11.4258 55.6641 -14.1602 C 56.25 -13.8184 56.7871 -13.5254 57.373 -13.2324 Z M 45.752 3.07617 C 45.752 2.88086 45.752 2.73438 45.8008 2.53906 L 60.1074 2.53906 C 57.3242 6.15234 54.0039 8.25195 50.3906 8.25195 C 47.3633 8.25195 45.752 6.20117 45.752 3.07617 Z"/>
  </g>
  <g id="Semibold-S" transform="matrix(1 0 0 1 1973.76 696)">
   <path d="M 13.623 1.70898 L 37.0117 1.70898 C 36.9629 2.39258 36.9141 3.02734 36.9141 3.66211 C 36.9141 11.0352 41.0156 15.918 49.1211 15.918 C 57.959 15.918 64.9902 10.5957 69.6777 1.70898 L 125.342 1.70898 C 127.49 1.70898 129.248 -0.0976562 129.248 -2.19727 C 129.248 -4.3457 127.49 -6.10352 125.342 -6.10352 L 72.9492 -6.10352 C 74.9023 -12.1094 76.0742 -19.1406 76.3672 -26.8066 C 78.7598 -27.2949 81.2012 -27.5879 83.7402 -27.5879 C 84.5703 -27.5879 85.0586 -27.1484 85.0586 -26.4648 C 85.0586 -23.3887 83.252 -21.0938 83.252 -17.5293 C 83.252 -14.209 85.6934 -11.9629 89.1602 -11.9629 C 97.4609 -11.9629 107.275 -24.8535 109.863 -24.8535 C 112.109 -24.8535 109.717 -13.4277 119.678 -13.4277 C 121.533 -13.4277 123.828 -13.916 125.488 -15.0391 C 126.709 -15.8691 127.588 -17.0898 127.588 -18.7012 C 127.588 -20.7031 126.221 -22.4121 124.121 -22.4121 C 122.754 -22.4121 121.68 -21.4844 120.654 -21.4844 C 117.432 -21.4844 120.508 -33.9844 112.109 -33.9844 C 105.078 -33.9844 95.2148 -22.2168 93.1152 -22.2168 C 92.8223 -22.2168 92.627 -22.3633 92.627 -22.7539 C 92.627 -23.6328 93.7012 -25.7812 93.7012 -28.0762 C 93.7012 -32.666 90.1367 -35.5469 84.6191 -35.5469 C 81.7871 -35.5469 79.0039 -35.2539 76.3184 -34.7656 C 75.0488 -55.1758 64.8926 -70.8008 50.1465 -70.8008 C 39.3066 -70.8008 31.4941 -62.207 31.4941 -50.6836 C 31.4941 -37.6953 39.8438 -26.9043 48.8281 -19.9219 C 44.5312 -15.5762 41.2109 -10.7422 39.209 -6.10352 L 13.623 -6.10352 C 11.4746 -6.10352 9.76562 -4.29688 9.76562 -2.19727 C 9.76562 -0.0976562 11.5234 1.70898 13.623 1.70898 Z M 39.4531 -50.7324 C 39.4531 -57.666 43.9453 -62.793 50.1465 -62.793 C 60.6445 -62.793 67.8711 -49.6094 68.4082 -32.6172 C 63.3789 -30.7617 58.7402 -28.125 54.6387 -25 C 47.4609 -30.4688 39.4531 -39.3066 39.4531 -50.7324 Z M 11.8652 -13.3789 C 13.1348 -12.1094 15.0879 -12.1582 16.3086 -13.3789 L 20.6543 -17.6758 L 24.9512 -13.3789 C 26.2207 -12.1094 28.125 -12.1094 29.3945 -13.3789 C 30.6641 -14.6484 30.6641 -16.6016 29.3945 -17.8223 L 25.0977 -22.1191 L 29.3945 -26.416 C 30.6641 -27.6855 30.6641 -29.5898 29.3945 -30.8594 C 28.1738 -32.1289 26.2207 -32.0801 24.9512 -30.8594 L 20.6543 -26.5625 L 16.3086 -30.8594 C 15.0391 -32.1289 13.1348 -32.1289 11.8652 -30.8594 C 10.5957 -29.5898 10.5957 -27.6367 11.8652 -26.416 L 16.2109 -22.1191 L 11.8652 -17.8223 C 10.5957 -16.5527 10.6445 -14.6484 11.8652 -13.3789 Z M 57.7637 -14.209 C 58.4473 -13.8672 59.1309 -13.7207 59.7656 -13.7207 C 61.8652 -13.7207 63.4766 -15.2344 63.4766 -17.1875 C 63.4766 -18.3594 62.9883 -19.5312 61.6699 -20.4102 C 63.7207 -21.7773 65.918 -23.0469 68.2129 -24.0723 C 67.7246 -17.2852 66.3574 -11.1328 64.4043 -6.10352 L 48.0957 -6.10352 C 49.8535 -9.17969 52.3438 -12.4512 55.5176 -15.4297 C 56.25 -14.9902 57.0312 -14.5996 57.7637 -14.209 Z M 45.2637 2.58789 C 45.2637 2.29492 45.2637 2.00195 45.3125 1.70898 L 60.2539 1.70898 C 57.373 5.66406 53.8574 7.95898 50.0488 7.95898 C 46.8262 7.95898 45.2637 5.81055 45.2637 2.58789 Z"/>
  </g>
  <g id="Medium-S" transform="matrix(1 0 0 1 1677.56 696)">
   <path d="M 13.4766 1.12305 L 37.3535 1.12305 C 37.2559 1.9043 37.207 2.63672 37.207 3.36914 C 37.207 10.3027 41.0156 15.0879 48.9258 15.0879 C 57.4707 15.0879 64.3555 9.81445 69.043 1.12305 L 124.512 1.12305 C 126.562 1.12305 128.223 -0.585938 128.223 -2.63672 C 128.223 -4.6875 126.562 -6.39648 124.512 -6.39648 L 72.2656 -6.39648 C 74.3164 -12.5 75.5859 -19.6777 75.8301 -27.4902 C 78.2227 -27.9785 80.6641 -28.2715 83.2031 -28.2715 C 84.1309 -28.2715 84.668 -27.7832 84.668 -27.0508 C 84.668 -23.7793 82.9102 -21.4844 82.9102 -18.0664 C 82.9102 -14.8438 85.3027 -12.7441 88.5742 -12.7441 C 96.7773 -12.7441 106.445 -25.6836 109.18 -25.6836 C 111.572 -25.6836 108.838 -14.1113 118.799 -14.1113 C 120.557 -14.1113 122.852 -14.5508 124.463 -15.6738 C 125.586 -16.4551 126.416 -17.5781 126.416 -19.0918 C 126.416 -20.9473 125.146 -22.5098 123.242 -22.5098 C 121.826 -22.5098 120.801 -21.4844 119.678 -21.4844 C 116.113 -21.4844 119.434 -34.082 111.328 -34.082 C 104.346 -34.082 94.0918 -21.9238 91.9434 -21.9238 C 91.6504 -21.9238 91.4551 -22.0703 91.4551 -22.4121 C 91.4551 -23.3887 92.7734 -25.9277 92.7734 -28.5645 C 92.7734 -32.8613 89.2578 -35.6445 83.9355 -35.6445 C 81.1523 -35.6445 78.418 -35.3516 75.8301 -34.8633 C 74.707 -55.127 64.7461 -70.8984 49.9512 -70.8984 C 39.502 -70.8984 31.6895 -62.3535 31.6895 -51.0742 C 31.6895 -38.1348 40.0879 -27.4414 49.3164 -20.4102 C 44.9219 -16.0156 41.5527 -11.084 39.502 -6.39648 L 13.4766 -6.39648 C 11.4258 -6.39648 9.76562 -4.6875 9.76562 -2.63672 C 9.76562 -0.634766 11.4258 1.12305 13.4766 1.12305 Z M 39.0625 -51.123 C 39.0625 -58.2031 43.75 -63.5254 50 -63.5254 C 60.791 -63.5254 68.0176 -50 68.5059 -32.8613 C 63.3789 -31.0059 58.6914 -28.2715 54.5898 -25.0977 C 47.3145 -30.5664 39.0625 -39.502 39.0625 -51.123 Z M 11.9629 -14.1602 C 13.1836 -12.9395 14.9902 -12.9883 16.2109 -14.1602 L 20.6543 -18.5547 L 25.0488 -14.1602 C 26.2695 -12.9395 28.0762 -12.9395 29.2969 -14.1602 C 30.5176 -15.3809 30.5176 -17.2363 29.2969 -18.4082 L 24.8535 -22.8027 L 29.2969 -27.1973 C 30.5176 -28.418 30.4688 -30.2246 29.2969 -31.4453 C 28.0762 -32.6172 26.2695 -32.6172 25.0488 -31.4453 L 20.6543 -27.002 L 16.2109 -31.4453 C 14.9902 -32.6172 13.1836 -32.6172 11.9629 -31.4453 C 10.7422 -30.2246 10.7422 -28.3691 11.9629 -27.1973 L 16.4062 -22.8027 L 11.9629 -18.4082 C 10.7422 -17.1875 10.791 -15.3809 11.9629 -14.1602 Z M 58.0078 -14.9414 C 58.6426 -14.6484 59.2773 -14.502 59.8633 -14.502 C 61.8164 -14.502 63.2812 -15.9668 63.2812 -17.7246 C 63.2812 -18.8965 62.7441 -20.0195 61.377 -20.8008 C 61.2305 -20.8496 61.1328 -20.8984 61.0352 -20.9473 C 63.2812 -22.5098 65.7227 -23.9258 68.3105 -25.0488 C 67.8223 -18.0176 66.4062 -11.6211 64.3555 -6.39648 L 47.5586 -6.39648 C 49.3652 -9.66797 52.0508 -13.1836 55.4199 -16.3574 C 56.2988 -15.8691 57.1777 -15.3809 58.0078 -14.9414 Z M 44.873 2.19727 C 44.873 1.85547 44.873 1.46484 44.9219 1.12305 L 60.4004 1.12305 C 57.373 5.27344 53.7598 7.71484 49.7559 7.71484 C 46.4844 7.71484 44.873 5.51758 44.873 2.19727 Z"/>
  </g>
  <g id="Regular-S" transform="matrix(1 0 0 1 1381.51 696)">
   <path d="M 13.2812 0.292969 L 37.793 0.292969 C 37.6465 1.2207 37.5977 2.14844 37.5977 3.02734 C 37.5977 9.42383 41.0645 14.0137 48.6328 14.0137 C 56.8359 14.0137 63.5742 8.78906 68.2129 0.292969 L 123.389 0.292969 C 125.293 0.292969 126.904 -1.26953 126.904 -3.22266 C 126.904 -5.12695 125.293 -6.73828 123.389 -6.73828 L 71.2891 -6.73828 C 73.5352 -13.0371 74.9023 -20.4102 75.1953 -28.418 C 77.5391 -28.9062 79.9805 -29.1504 82.5195 -29.1504 C 83.5449 -29.1504 84.1797 -28.6133 84.1797 -27.7832 C 84.1797 -24.3652 82.4707 -22.0703 82.4707 -18.75 C 82.4707 -15.7227 84.7656 -13.7207 87.8418 -13.7207 C 95.8496 -13.7207 105.322 -26.8066 108.252 -26.8066 C 110.84 -26.8066 107.666 -14.9902 117.676 -14.9902 C 119.336 -14.9902 121.533 -15.4297 123.096 -16.5039 C 124.121 -17.2363 124.854 -18.2617 124.854 -19.6289 C 124.854 -21.2402 123.779 -22.5586 122.119 -22.5586 C 120.605 -22.5586 119.58 -21.4844 118.359 -21.4844 C 114.404 -21.4844 118.066 -34.1797 110.254 -34.1797 C 103.369 -34.1797 92.7246 -21.5332 90.4297 -21.5332 C 90.1855 -21.5332 89.9414 -21.6797 89.9414 -22.0215 C 89.9414 -23.0957 91.5039 -26.0742 91.5039 -29.1504 C 91.5039 -33.1543 88.1348 -35.7422 83.0078 -35.7422 C 80.3223 -35.7422 77.6855 -35.498 75.1465 -35.0098 C 74.2188 -55.0293 64.5508 -70.9961 49.7559 -70.9961 C 39.7461 -70.9961 31.9824 -62.5 31.9824 -51.6113 C 31.9824 -38.7695 40.3809 -28.0762 49.9023 -21.0938 C 45.4102 -16.6016 41.9922 -11.5723 39.8926 -6.73828 L 13.2812 -6.73828 C 11.377 -6.73828 9.76562 -5.12695 9.76562 -3.22266 C 9.76562 -1.26953 11.377 0.292969 13.2812 0.292969 Z M 38.5742 -51.6113 C 38.5742 -58.8379 43.457 -64.4043 49.7559 -64.4043 C 60.9863 -64.4043 68.2617 -50.4395 68.6523 -33.2031 C 63.4277 -31.3477 58.6914 -28.5156 54.541 -25.2441 C 47.0703 -30.6641 38.5742 -39.7949 38.5742 -51.6113 Z M 12.1094 -15.1855 C 13.2324 -14.0625 14.9414 -14.1113 16.0645 -15.1855 L 20.6055 -19.7266 L 25.1953 -15.1855 C 26.3184 -14.0625 28.0273 -14.0625 29.1504 -15.1855 C 30.2734 -16.3086 30.2734 -18.0664 29.1504 -19.1406 L 24.5605 -23.6816 L 29.1504 -28.2227 C 30.2734 -29.3457 30.2734 -31.0547 29.1504 -32.1777 C 28.0273 -33.3008 26.3184 -33.252 25.1953 -32.1777 L 20.6055 -27.6367 L 16.0645 -32.1777 C 14.9414 -33.3008 13.2324 -33.3008 12.1094 -32.1777 C 10.9863 -31.0547 10.9863 -29.2969 12.1094 -28.2227 L 16.6504 -23.6816 L 12.1094 -19.1406 C 10.9863 -18.0176 10.9863 -16.3086 12.1094 -15.1855 Z M 58.3984 -15.918 C 58.9355 -15.625 59.4727 -15.5273 60.0098 -15.5273 C 61.7188 -15.5273 62.9883 -16.8945 62.9883 -18.4082 C 62.9883 -19.4336 62.5 -20.5078 61.2793 -21.0938 C 60.9375 -21.2891 60.5469 -21.4844 60.2051 -21.6797 C 62.6953 -23.4375 65.4785 -25.0488 68.457 -26.2695 C 67.9688 -18.9453 66.4551 -12.207 64.2578 -6.73828 L 46.875 -6.73828 C 48.7305 -10.3516 51.6113 -14.1602 55.2734 -17.627 C 56.2988 -16.9922 57.373 -16.4551 58.3984 -15.918 Z M 44.3848 1.70898 C 44.3848 1.26953 44.3848 0.78125 44.4824 0.292969 L 60.5469 0.292969 C 57.4219 4.78516 53.6133 7.42188 49.4141 7.42188 C 45.9473 7.42188 44.3848 5.12695 44.3848 1.70898 Z"/>
  </g>
  <g id="Light-S" transform="matrix(1 0 0 1 1086.78 696)">
   <path d="M 12.5 -0.732422 L 37.7441 -0.732422 C 37.4512 0.683594 37.3047 2.05078 37.3047 3.32031 C 37.3047 9.32617 40.7715 13.5742 47.6562 13.5742 C 55.8594 13.5742 62.5977 8.10547 67.1387 -0.732422 L 120.215 -0.732422 C 121.68 -0.732422 122.949 -1.95312 122.949 -3.41797 C 122.949 -4.93164 121.68 -6.15234 120.215 -6.15234 L 69.4824 -6.15234 C 71.875 -12.6465 73.291 -20.3613 73.5352 -28.7598 C 75.9766 -29.2969 78.5645 -29.5898 81.2012 -29.5898 C 82.8125 -29.5898 83.6914 -28.9551 83.6914 -27.832 C 83.6914 -24.6094 81.7871 -21.7285 81.7871 -18.4082 C 81.7871 -15.625 83.7891 -14.0625 86.377 -14.0625 C 93.9453 -14.0625 103.174 -27.4902 106.445 -27.4902 C 109.521 -27.4902 105.713 -15.4297 114.99 -15.4297 C 116.504 -15.4297 118.408 -15.8203 119.971 -16.7969 C 120.801 -17.3828 121.387 -18.2129 121.387 -19.2383 C 121.387 -20.5566 120.557 -21.582 119.189 -21.582 C 117.969 -21.582 116.846 -20.5078 115.479 -20.5078 C 111.133 -20.5078 115.332 -33.2031 107.91 -33.2031 C 101.416 -33.2031 91.2109 -20.0195 88.2324 -20.0195 C 87.8418 -20.0195 87.5488 -20.2637 87.5488 -20.8008 C 87.5488 -22.4609 89.4043 -25.6836 89.4043 -28.7598 C 89.4043 -32.4707 86.377 -34.7656 81.5918 -34.7656 C 78.8086 -34.7656 76.123 -34.4727 73.4863 -33.9355 C 72.7539 -54.2969 63.2812 -70.0195 48.7793 -70.0195 C 39.1602 -70.0195 31.6895 -61.8164 31.6895 -51.3184 C 31.6895 -39.1602 39.5508 -28.4668 50.1953 -21.3379 C 45.3125 -16.6504 41.6504 -11.2305 39.502 -6.15234 L 12.5 -6.15234 C 10.9863 -6.15234 9.76562 -4.93164 9.76562 -3.41797 C 9.76562 -1.95312 10.9863 -0.732422 12.5 -0.732422 Z M 36.8652 -51.3184 C 36.8652 -58.9355 42.0898 -64.8438 48.7793 -64.8438 C 60.498 -64.8438 68.0176 -50.3906 68.3594 -32.5684 C 62.9883 -30.7617 58.1543 -27.9785 53.9551 -24.6582 C 45.5566 -30.2734 36.8652 -39.3555 36.8652 -51.3184 Z M 11.4746 -15.1367 C 12.3535 -14.2578 13.7207 -14.3066 14.5996 -15.1367 L 19.5801 -20.1172 L 24.5605 -15.1367 C 25.4395 -14.2578 26.8066 -14.2578 27.6855 -15.1367 C 28.5645 -16.0645 28.5645 -17.4316 27.6855 -18.3105 L 22.7051 -23.2422 L 27.6855 -28.1738 C 28.5645 -29.1016 28.5645 -30.4199 27.6855 -31.3477 C 26.8066 -32.2266 25.4395 -32.1777 24.5605 -31.3477 L 19.5801 -26.3672 L 14.5996 -31.3477 C 13.7207 -32.2266 12.3535 -32.2266 11.4746 -31.3477 C 10.5469 -30.4199 10.5469 -29.0527 11.4746 -28.1738 L 16.4062 -23.2422 L 11.4746 -18.3105 C 10.5469 -17.3828 10.5469 -16.0645 11.4746 -15.1367 Z M 58.3496 -16.7969 C 58.8379 -16.5527 59.2285 -16.5039 59.668 -16.5039 C 61.0352 -16.5039 62.0117 -17.5781 62.0117 -18.75 C 62.0117 -19.5801 61.6211 -20.4102 60.5957 -20.8984 C 59.9121 -21.1914 59.2285 -21.582 58.4961 -21.9238 C 61.4258 -24.0723 64.6973 -25.8789 68.2617 -27.1973 C 67.8711 -19.2871 66.3086 -12.0117 63.916 -6.15234 L 44.9219 -6.15234 C 46.9238 -10.3516 50.2441 -14.7949 54.541 -18.7012 C 55.7617 -18.0176 57.0801 -17.3828 58.3496 -16.7969 Z M 42.627 2.39258 C 42.627 1.41602 42.7246 0.390625 42.9688 -0.732422 L 61.2305 -0.732422 C 57.7637 4.98047 53.3203 8.39844 48.291 8.39844 C 44.3848 8.39844 42.627 5.9082 42.627 2.39258 Z"/>
  </g>
  <g id="Thin-S" transform="matrix(1 0 0 1 792.702 696)">
   <path d="M 11.4258 -2.05078 L 37.793 -2.05078 C 37.2559 -0.0488281 36.9141 1.9043 36.9141 3.66211 C 36.9141 9.17969 40.3809 13.0371 46.3379 13.0371 C 54.541 13.0371 61.2793 7.22656 65.6738 -2.05078 L 116.064 -2.05078 C 116.943 -2.05078 117.676 -2.83203 117.676 -3.71094 C 117.676 -4.63867 116.943 -5.37109 116.064 -5.37109 L 67.0898 -5.37109 C 69.6289 -12.1094 71.1426 -20.2637 71.2891 -29.248 C 73.877 -29.7852 76.6113 -30.127 79.4434 -30.127 C 81.7871 -30.127 83.0078 -29.3945 83.0078 -27.8809 C 83.0078 -24.9023 80.8105 -21.3379 80.8105 -18.0176 C 80.8105 -15.5273 82.5684 -14.4531 84.4238 -14.4531 C 91.3574 -14.4531 100.342 -28.3203 104.053 -28.3203 C 107.715 -28.3203 103.125 -15.9668 111.426 -15.9668 C 112.842 -15.9668 114.355 -16.3086 115.869 -17.2363 C 116.455 -17.5781 116.797 -18.1641 116.797 -18.75 C 116.797 -19.5801 116.26 -20.3125 115.381 -20.3125 C 114.453 -20.3125 113.184 -19.1895 111.67 -19.1895 C 106.836 -19.1895 111.719 -31.8359 104.736 -31.8359 C 98.7793 -31.8359 89.2578 -18.0664 85.3516 -18.0664 C 84.8145 -18.0664 84.4238 -18.3594 84.4238 -19.1406 C 84.4238 -21.6797 86.5723 -25.1953 86.5723 -28.2715 C 86.5723 -31.5918 84.082 -33.4473 79.6875 -33.4473 C 76.7578 -33.4473 73.9746 -33.1543 71.2891 -32.5684 C 70.8008 -53.3203 61.5723 -68.7012 47.4609 -68.7012 C 38.3789 -68.7012 31.2988 -60.9375 31.2988 -50.9277 C 31.2988 -39.8438 38.0859 -29.1992 50.6836 -21.7285 C 45.2148 -16.7969 41.1621 -10.8887 38.9648 -5.37109 L 11.4258 -5.37109 C 10.5469 -5.37109 9.76562 -4.63867 9.76562 -3.71094 C 9.76562 -2.83203 10.5469 -2.05078 11.4258 -2.05078 Z M 34.6191 -50.9277 C 34.6191 -59.0332 40.2344 -65.3809 47.4609 -65.3809 C 59.8145 -65.3809 67.7246 -50.293 67.9688 -31.6895 C 62.5 -30.0293 57.5684 -27.2949 53.3203 -23.9746 C 43.3105 -29.9316 34.6191 -38.9648 34.6191 -50.9277 Z M 10.5957 -15.1367 C 11.1816 -14.502 12.0605 -14.5508 12.6465 -15.1367 L 18.1641 -20.6055 L 23.6816 -15.1367 C 24.2676 -14.502 25.1465 -14.502 25.7324 -15.1367 C 26.3184 -15.7227 26.3184 -16.6016 25.7324 -17.1875 L 20.2637 -22.6562 L 25.7324 -28.1738 C 26.3184 -28.7598 26.3184 -29.6387 25.7324 -30.2246 C 25.1465 -30.8105 24.2676 -30.7617 23.6816 -30.2246 L 18.1641 -24.707 L 12.6465 -30.2246 C 12.0605 -30.8105 11.1816 -30.8105 10.5957 -30.2246 C 10.0098 -29.6387 10.0098 -28.7109 10.5957 -28.1738 L 16.1133 -22.6562 L 10.5957 -17.1875 C 10.0098 -16.6016 10.0098 -15.7227 10.5957 -15.1367 Z M 58.3008 -17.9199 C 58.6426 -17.7734 58.9355 -17.7246 59.1797 -17.7246 C 60.1074 -17.7246 60.6934 -18.4082 60.6934 -19.1406 C 60.6934 -19.7266 60.4492 -20.2637 59.7168 -20.6055 C 58.5449 -21.1426 57.4219 -21.6797 56.25 -22.3145 C 59.7168 -24.8535 63.623 -26.9531 67.9688 -28.3203 C 67.6758 -19.7266 66.1133 -11.7676 63.4766 -5.37109 L 42.3828 -5.37109 C 44.5801 -10.3516 48.3887 -15.7227 53.5645 -20.166 C 55.0781 -19.3359 56.6406 -18.6035 58.3008 -17.9199 Z M 40.2832 3.22266 C 40.2832 1.61133 40.625 -0.195312 41.1621 -2.05078 L 61.9629 -2.05078 C 58.2031 5.17578 52.9297 9.7168 46.7773 9.7168 C 42.2852 9.7168 40.2832 6.93359 40.2832 3.22266 Z"/>
  </g>
  <g id="Ultralight-S" transform="matrix(1 0 0 1 497.333 696)">
   <path d="M 10.8887 -2.7832 L 37.8906 -2.7832 C 37.1582 -0.390625 36.7676 1.85547 36.7676 3.85742 C 36.7676 9.08203 40.1855 12.7441 45.7031 12.7441 C 53.8574 12.7441 60.5469 6.78711 64.8926 -2.7832 L 113.916 -2.7832 C 114.502 -2.7832 114.99 -3.27148 114.99 -3.85742 C 114.99 -4.49219 114.502 -4.98047 113.916 -4.98047 L 65.8203 -4.98047 C 68.5059 -11.8164 70.0684 -20.2148 70.166 -29.4922 C 72.8516 -30.0781 75.6348 -30.4199 78.5645 -30.4199 C 81.25 -30.4199 82.666 -29.6387 82.666 -27.9297 C 82.666 -25.0488 80.3223 -21.0938 80.3223 -17.7734 C 80.3223 -15.4785 81.9336 -14.6973 83.4473 -14.6973 C 90.0879 -14.6973 98.877 -28.7598 102.783 -28.7598 C 106.836 -28.7598 101.807 -16.2598 109.57 -16.2598 C 110.938 -16.2598 112.256 -16.6016 113.77 -17.4316 C 114.209 -17.6758 114.453 -18.1152 114.453 -18.5059 C 114.453 -19.0918 114.062 -19.6289 113.428 -19.6289 C 112.646 -19.6289 111.279 -18.5059 109.717 -18.5059 C 104.59 -18.5059 109.814 -31.1523 103.125 -31.1523 C 97.4609 -31.1523 88.2324 -17.0898 83.8867 -17.0898 C 83.252 -17.0898 82.7637 -17.4316 82.7637 -18.2617 C 82.7637 -21.2402 85.1074 -24.9512 85.1074 -27.9785 C 85.1074 -31.1035 82.9102 -32.7637 78.7109 -32.7637 C 75.7324 -32.7637 72.9004 -32.4219 70.166 -31.8359 C 69.7754 -52.8809 60.6934 -68.0176 46.8262 -68.0176 C 37.9883 -68.0176 31.1523 -60.498 31.1523 -50.7324 C 31.1523 -40.332 37.207 -29.6387 50.9766 -21.9727 C 45.166 -16.8945 40.9668 -10.6934 38.6719 -4.98047 L 10.8887 -4.98047 C 10.3027 -4.98047 9.81445 -4.49219 9.81445 -3.85742 C 9.81445 -3.27148 10.3027 -2.7832 10.8887 -2.7832 Z M 33.4961 -50.7324 C 33.4961 -59.1309 39.3066 -65.6738 46.8262 -65.6738 C 59.5215 -65.6738 67.5781 -50.2441 67.7734 -31.25 C 62.207 -29.6875 57.2754 -26.9531 53.0273 -23.6328 C 42.041 -29.8828 33.4961 -38.7695 33.4961 -50.7324 Z M 10.2051 -15.0879 C 10.5957 -14.6484 11.2793 -14.6484 11.6699 -15.0879 L 17.4805 -20.8496 L 23.291 -15.0879 C 23.6816 -14.6484 24.3652 -14.6484 24.7559 -15.0879 C 25.1953 -15.5273 25.1953 -16.1621 24.7559 -16.6016 L 18.9941 -22.3633 L 24.7559 -28.125 C 25.1953 -28.5645 25.1953 -29.1992 24.7559 -29.6387 C 24.3652 -30.0293 23.6816 -30.0293 23.291 -29.6387 L 17.4805 -23.8281 L 11.6699 -29.6387 C 11.2793 -30.0293 10.5957 -30.0293 10.2051 -29.6387 C 9.76562 -29.1992 9.76562 -28.5645 10.2051 -28.125 L 15.9668 -22.3633 L 10.2051 -16.6016 C 9.76562 -16.1621 9.76562 -15.5273 10.2051 -15.0879 Z M 58.3008 -18.5059 C 58.5449 -18.4082 58.7402 -18.3594 58.9844 -18.3594 C 59.6191 -18.3594 60.0586 -18.8477 60.0586 -19.3848 C 60.0586 -19.8242 59.8145 -20.166 59.2773 -20.459 C 57.8613 -21.0938 56.4941 -21.7773 55.127 -22.4609 C 58.7891 -25.1953 63.0371 -27.4414 67.7734 -28.8574 C 67.627 -19.9219 65.9668 -11.6211 63.2324 -4.98047 L 41.1133 -4.98047 C 43.3594 -10.4004 47.4609 -16.1621 53.0762 -20.8496 C 54.6875 -20.0195 56.4453 -19.2383 58.3008 -18.5059 Z M 39.1113 3.66211 C 39.1113 1.70898 39.502 -0.488281 40.2832 -2.7832 L 62.2559 -2.7832 C 58.3984 5.27344 52.7832 10.4004 45.9961 10.4004 C 41.2598 10.4004 39.1113 7.4707 39.1113 3.66211 Z"/>
  </g>
 </g>
</svg>
