<?xml version="1.0" encoding="UTF-8"?>
<!--Generator: Apple Native CoreSVG 148-->
<!DOCTYPE svg
PUBLIC "-//W3C//DTD SVG 1.1//EN"
       "http://www.w3.org/Graphics/SVG/1.1/DTD/svg11.dtd">
<svg version="1.1" xmlns="http://www.w3.org/2000/svg" xmlns:xlink="http://www.w3.org/1999/xlink" width="3300" height="2200">
 <!--glyph: "uni1002A9.medium", point size: 100.000000, font version: "Version 16.0d11e1", template writer version: "8"-->
 <g id="Notes">
  <rect height="2200" id="artboard" style="fill:white;opacity:1" width="3300" x="0" y="0"/>
  <line id="" style="fill:none;stroke:black;opacity:1;stroke-width:0.5;" x1="263" x2="3036" y1="292" y2="292"/>
  <text style="stroke:none;fill:black;font-family:-apple-system,&quot;SF Pro Display&quot;,&quot;SF Pro Text&quot;,Helvetica,sans-serif;font-weight:bold;" transform="matrix(1 0 0 1 263 322)">Weight/Scale Variations</text>
  <text style="stroke:none;fill:black;font-family:-apple-system,&quot;SF Pro Display&quot;,&quot;SF Pro Text&quot;,Helvetica,sans-serif;text-anchor:middle;" transform="matrix(1 0 0 1 559.711 322)">Ultralight</text>
  <text style="stroke:none;fill:black;font-family:-apple-system,&quot;SF Pro Display&quot;,&quot;SF Pro Text&quot;,Helvetica,sans-serif;text-anchor:middle;" transform="matrix(1 0 0 1 856.422 322)">Thin</text>
  <text style="stroke:none;fill:black;font-family:-apple-system,&quot;SF Pro Display&quot;,&quot;SF Pro Text&quot;,Helvetica,sans-serif;text-anchor:middle;" transform="matrix(1 0 0 1 1153.13 322)">Light</text>
  <text style="stroke:none;fill:black;font-family:-apple-system,&quot;SF Pro Display&quot;,&quot;SF Pro Text&quot;,Helvetica,sans-serif;text-anchor:middle;" transform="matrix(1 0 0 1 1449.84 322)">Regular</text>
  <text style="stroke:none;fill:black;font-family:-apple-system,&quot;SF Pro Display&quot;,&quot;SF Pro Text&quot;,Helvetica,sans-serif;text-anchor:middle;" transform="matrix(1 0 0 1 1746.56 322)">Medium</text>
  <text style="stroke:none;fill:black;font-family:-apple-system,&quot;SF Pro Display&quot;,&quot;SF Pro Text&quot;,Helvetica,sans-serif;text-anchor:middle;" transform="matrix(1 0 0 1 2043.27 322)">Semibold</text>
  <text style="stroke:none;fill:black;font-family:-apple-system,&quot;SF Pro Display&quot;,&quot;SF Pro Text&quot;,Helvetica,sans-serif;text-anchor:middle;" transform="matrix(1 0 0 1 2339.98 322)">Bold</text>
  <text style="stroke:none;fill:black;font-family:-apple-system,&quot;SF Pro Display&quot;,&quot;SF Pro Text&quot;,Helvetica,sans-serif;text-anchor:middle;" transform="matrix(1 0 0 1 2636.69 322)">Heavy</text>
  <text style="stroke:none;fill:black;font-family:-apple-system,&quot;SF Pro Display&quot;,&quot;SF Pro Text&quot;,Helvetica,sans-serif;text-anchor:middle;" transform="matrix(1 0 0 1 2933.4 322)">Black</text>
  <line id="" style="fill:none;stroke:black;opacity:1;stroke-width:0.5;" x1="263" x2="3036" y1="1903" y2="1903"/>
  <g id="" transform="matrix(1 0 0 1 263 1933)">
   <path d="M 9.24805 0.830078 C 13.5547 0.830078 17.1387 -2.74414 17.1387 -7.05078 C 17.1387 -11.3574 13.5449 -14.9316 9.23828 -14.9316 C 4.94141 -14.9316 1.36719 -11.3574 1.36719 -7.05078 C 1.36719 -2.74414 4.95117 0.830078 9.24805 0.830078 Z M 9.24805 -0.654297 C 5.70312 -0.654297 2.87109 -3.49609 2.87109 -7.05078 C 2.87109 -10.6055 5.69336 -13.4473 9.23828 -13.4473 C 12.793 -13.4473 15.6348 -10.6055 15.6445 -7.05078 C 15.6543 -3.49609 12.8027 -0.654297 9.24805 -0.654297 Z M 9.22852 -3.62305 C 9.69727 -3.62305 9.9707 -3.93555 9.9707 -4.45312 L 9.9707 -6.31836 L 12.002 -6.31836 C 12.5 -6.31836 12.832 -6.57227 12.832 -7.04102 C 12.832 -7.51953 12.5195 -7.7832 12.002 -7.7832 L 9.9707 -7.7832 L 9.9707 -9.81445 C 9.9707 -10.332 9.69727 -10.6543 9.22852 -10.6543 C 8.75977 -10.6543 8.50586 -10.3125 8.50586 -9.81445 L 8.50586 -7.7832 L 6.49414 -7.7832 C 5.97656 -7.7832 5.64453 -7.51953 5.64453 -7.04102 C 5.64453 -6.57227 5.99609 -6.31836 6.49414 -6.31836 L 8.50586 -6.31836 L 8.50586 -4.45312 C 8.50586 -3.95508 8.75977 -3.62305 9.22852 -3.62305 Z"/>
  </g>
  <g id="" transform="matrix(1 0 0 1 281.506 1933)">
   <path d="M 11.709 2.91016 C 17.1582 2.91016 21.6699 -1.61133 21.6699 -7.05078 C 21.6699 -12.5 17.1484 -17.0117 11.6992 -17.0117 C 6.25977 -17.0117 1.74805 -12.5 1.74805 -7.05078 C 1.74805 -1.61133 6.26953 2.91016 11.709 2.91016 Z M 11.709 1.25 C 7.09961 1.25 3.41797 -2.44141 3.41797 -7.05078 C 3.41797 -11.6602 7.08984 -15.3516 11.6992 -15.3516 C 16.3086 -15.3516 20 -11.6602 20.0098 -7.05078 C 20.0195 -2.44141 16.3184 1.25 11.709 1.25 Z M 11.6797 -2.66602 C 12.207 -2.66602 12.5098 -3.01758 12.5098 -3.59375 L 12.5098 -6.23047 L 15.3223 -6.23047 C 15.8691 -6.23047 16.25 -6.51367 16.25 -7.03125 C 16.25 -7.55859 15.8887 -7.86133 15.3223 -7.86133 L 12.5098 -7.86133 L 12.5098 -10.6836 C 12.5098 -11.25 12.207 -11.6113 11.6797 -11.6113 C 11.1621 -11.6113 10.8789 -11.2305 10.8789 -10.6836 L 10.8789 -7.86133 L 8.07617 -7.86133 C 7.50977 -7.86133 7.13867 -7.55859 7.13867 -7.03125 C 7.13867 -6.51367 7.5293 -6.23047 8.07617 -6.23047 L 10.8789 -6.23047 L 10.8789 -3.59375 C 10.8789 -3.03711 11.1621 -2.66602 11.6797 -2.66602 Z"/>
  </g>
  <g id="" transform="matrix(1 0 0 1 304.924 1933)">
   <path d="M 14.9707 5.66406 C 21.9336 5.66406 27.6953 -0.0976562 27.6953 -7.05078 C 27.6953 -14.0137 21.9238 -19.7754 14.9609 -19.7754 C 8.00781 -19.7754 2.25586 -14.0137 2.25586 -7.05078 C 2.25586 -0.0976562 8.01758 5.66406 14.9707 5.66406 Z M 14.9707 3.84766 C 8.93555 3.84766 4.08203 -1.01562 4.08203 -7.05078 C 4.08203 -13.0957 8.92578 -17.9492 14.9609 -17.9492 C 21.0059 -17.9492 25.8594 -13.0957 25.8691 -7.05078 C 25.8789 -1.01562 21.0156 3.84766 14.9707 3.84766 Z M 14.9414 -1.38672 C 15.5176 -1.38672 15.8594 -1.77734 15.8594 -2.38281 L 15.8594 -6.13281 L 19.7754 -6.13281 C 20.3711 -6.13281 20.7812 -6.46484 20.7812 -7.02148 C 20.7812 -7.59766 20.3906 -7.93945 19.7754 -7.93945 L 15.8594 -7.93945 L 15.8594 -11.8652 C 15.8594 -12.4805 15.5176 -12.8711 14.9414 -12.8711 C 14.375 -12.8711 14.0527 -12.4609 14.0527 -11.8652 L 14.0527 -7.93945 L 10.1465 -7.93945 C 9.53125 -7.93945 9.13086 -7.59766 9.13086 -7.02148 C 9.13086 -6.46484 9.55078 -6.13281 10.1465 -6.13281 L 14.0527 -6.13281 L 14.0527 -2.38281 C 14.0527 -1.79688 14.375 -1.38672 14.9414 -1.38672 Z"/>
  </g>
  <text style="stroke:none;fill:black;font-family:-apple-system,&quot;SF Pro Display&quot;,&quot;SF Pro Text&quot;,Helvetica,sans-serif;font-weight:bold;" transform="matrix(1 0 0 1 263 1953)">Design Variations</text>
  <text style="stroke:none;fill:black;font-family:-apple-system,&quot;SF Pro Display&quot;,&quot;SF Pro Text&quot;,Helvetica,sans-serif;" transform="matrix(1 0 0 1 263 1971)">Symbols are supported in up to nine weights and three scales.</text>
  <text style="stroke:none;fill:black;font-family:-apple-system,&quot;SF Pro Display&quot;,&quot;SF Pro Text&quot;,Helvetica,sans-serif;" transform="matrix(1 0 0 1 263 1989)">For optimal layout with text and other symbols, vertically align</text>
  <text style="stroke:none;fill:black;font-family:-apple-system,&quot;SF Pro Display&quot;,&quot;SF Pro Text&quot;,Helvetica,sans-serif;" transform="matrix(1 0 0 1 263 2007)">symbols with the adjacent text.</text>
  <line id="" style="fill:none;stroke:#00AEEF;stroke-width:0.5;opacity:1.0;" x1="776" x2="776" y1="1919" y2="1933"/>
  <g id="" transform="matrix(1 0 0 1 776 1933)">
   <path d="M 3.31055 0.126953 C 3.82812 0.126953 4.08203 -0.0683594 4.26758 -0.605469 L 5.52734 -4.0625 L 11.2891 -4.0625 L 12.5488 -0.605469 C 12.7344 -0.0683594 12.9883 0.126953 13.4961 0.126953 C 14.0137 0.126953 14.3457 -0.185547 14.3457 -0.673828 C 14.3457 -0.839844 14.3164 -0.986328 14.2383 -1.20117 L 9.6582 -13.3887 C 9.43359 -13.9941 9.0332 -14.2871 8.4082 -14.2871 C 7.80273 -14.2871 7.39258 -13.9941 7.17773 -13.3984 L 2.59766 -1.19141 C 2.51953 -0.976562 2.49023 -0.830078 2.49023 -0.664062 C 2.49023 -0.175781 2.80273 0.126953 3.31055 0.126953 Z M 6.00586 -5.53711 L 8.37891 -12.1094 L 8.42773 -12.1094 L 10.8008 -5.53711 Z"/>
  </g>
  <line id="" style="fill:none;stroke:#00AEEF;stroke-width:0.5;opacity:1.0;" x1="792.836" x2="792.836" y1="1919" y2="1933"/>
  <text style="stroke:none;fill:black;font-family:-apple-system,&quot;SF Pro Display&quot;,&quot;SF Pro Text&quot;,Helvetica,sans-serif;font-weight:bold;" transform="matrix(1 0 0 1 776 1953)">Margins</text>
  <text style="stroke:none;fill:black;font-family:-apple-system,&quot;SF Pro Display&quot;,&quot;SF Pro Text&quot;,Helvetica,sans-serif;" transform="matrix(1 0 0 1 776 1971)">Leading and trailing margins on the left and right side of each symbol</text>
  <text style="stroke:none;fill:black;font-family:-apple-system,&quot;SF Pro Display&quot;,&quot;SF Pro Text&quot;,Helvetica,sans-serif;" transform="matrix(1 0 0 1 776 1989)">can be adjusted by modifying the x-location of the margin guidelines.</text>
  <text style="stroke:none;fill:black;font-family:-apple-system,&quot;SF Pro Display&quot;,&quot;SF Pro Text&quot;,Helvetica,sans-serif;" transform="matrix(1 0 0 1 776 2007)">Modifications are automatically applied proportionally to all</text>
  <text style="stroke:none;fill:black;font-family:-apple-system,&quot;SF Pro Display&quot;,&quot;SF Pro Text&quot;,Helvetica,sans-serif;" transform="matrix(1 0 0 1 776 2025)">scales and weights.</text>
  <g id="" transform="matrix(1 0 0 1 1289 1933)">
   <path d="M 2.8418 1.86523 L 4.54102 3.57422 C 5.40039 4.44336 6.38672 4.38477 7.31445 3.35938 L 17.4902 -7.85156 C 17.7539 -7.76367 18.0273 -7.7832 18.3398 -7.8418 L 19.4043 -8.03711 L 20.0684 -7.36328 L 20.0293 -6.80664 C 19.9902 -6.30859 20.1172 -5.92773 20.6055 -5.44922 L 21.3672 -4.70703 C 21.8457 -4.22852 22.4609 -4.19922 22.9297 -4.66797 L 25.8398 -7.58789 C 26.3086 -8.05664 26.2891 -8.65234 25.8105 -9.13086 L 25.0391 -9.89258 C 24.5605 -10.3711 24.1895 -10.5273 23.7109 -10.4883 L 23.1348 -10.4395 L 22.4902 -11.0742 L 22.7344 -12.1973 C 22.8613 -12.7637 22.7051 -13.2031 22.1191 -13.7891 L 19.9219 -15.9766 C 16.582 -19.2969 12.1484 -19.2188 9.25781 -16.3281 C 8.83789 -15.918 8.80859 -15.3418 9.04297 -14.9512 C 9.27734 -14.5898 9.73633 -14.3555 10.3809 -14.5215 C 11.8457 -14.8633 13.3691 -14.9219 14.7949 -13.9844 L 14.209 -12.5293 C 14.0137 -12.0508 13.9844 -11.6504 14.1113 -11.2891 L 3.04688 -0.898438 C 2.06055 0.0195312 1.98242 0.996094 2.8418 1.86523 Z M 10.752 -15.957 C 13.1836 -17.7344 16.4746 -17.4316 18.7012 -15.2051 L 21.1328 -12.793 C 21.3672 -12.5586 21.4062 -12.373 21.3379 -12.0312 L 21.0156 -10.5469 L 22.5195 -9.0625 L 23.5059 -9.12109 C 23.7598 -9.13086 23.8379 -9.11133 24.0332 -8.91602 L 24.6094 -8.33984 L 22.168 -5.89844 L 21.5918 -6.47461 C 21.3965 -6.66992 21.3672 -6.74805 21.377 -7.01172 L 21.4453 -7.98828 L 19.9512 -9.47266 L 18.4277 -9.21875 C 18.1055 -9.15039 17.959 -9.17969 17.7148 -9.41406 L 15.7129 -11.416 C 15.459 -11.6504 15.4297 -11.8164 15.5859 -12.1875 L 16.4648 -14.2773 C 14.9023 -15.7324 12.8711 -16.3574 10.8398 -15.7617 C 10.6836 -15.7227 10.625 -15.8496 10.752 -15.957 Z M 5.27344 2.30469 L 4.10156 1.14258 C 3.63281 0.683594 3.74023 0.341797 4.14062 -0.0195312 L 14.9512 -10.1953 L 16.416 -8.71094 L 6.42578 2.27539 C 6.07422 2.67578 5.74219 2.77344 5.27344 2.30469 Z"/>
  </g>
  <text style="stroke:none;fill:black;font-family:-apple-system,&quot;SF Pro Display&quot;,&quot;SF Pro Text&quot;,Helvetica,sans-serif;font-weight:bold;" transform="matrix(1 0 0 1 1289 1953)">Exporting</text>
  <text style="stroke:none;fill:black;font-family:-apple-system,&quot;SF Pro Display&quot;,&quot;SF Pro Text&quot;,Helvetica,sans-serif;" transform="matrix(1 0 0 1 1289 1971)">Symbols should be outlined when exporting to ensure the</text>
  <text style="stroke:none;fill:black;font-family:-apple-system,&quot;SF Pro Display&quot;,&quot;SF Pro Text&quot;,Helvetica,sans-serif;" transform="matrix(1 0 0 1 1289 1989)">design is preserved when submitting to Xcode.</text>
  <text id="template-version" style="stroke:none;fill:black;font-family:-apple-system,&quot;SF Pro Display&quot;,&quot;SF Pro Text&quot;,Helvetica,sans-serif;text-anchor:end;" transform="matrix(1 0 0 1 3036 1933)">Template v.2.0</text>
  <text style="stroke:none;fill:black;font-family:-apple-system,&quot;SF Pro Display&quot;,&quot;SF Pro Text&quot;,Helvetica,sans-serif;text-anchor:end;" transform="matrix(1 0 0 1 3036 1951)">Requires Xcode 12 or greater</text>
  <text style="stroke:none;fill:black;font-family:-apple-system,&quot;SF Pro Display&quot;,&quot;SF Pro Text&quot;,Helvetica,sans-serif;text-anchor:end;" transform="matrix(1 0 0 1 3036 1969)">Generated from speaker.wave.3.fill</text>
  <text style="stroke:none;fill:black;font-family:-apple-system,&quot;SF Pro Display&quot;,&quot;SF Pro Text&quot;,Helvetica,sans-serif;text-anchor:end;" transform="matrix(1 0 0 1 3036 1987)">Typeset at 100 points</text>
  <text style="stroke:none;fill:black;font-family:-apple-system,&quot;SF Pro Display&quot;,&quot;SF Pro Text&quot;,Helvetica,sans-serif;" transform="matrix(1 0 0 1 263 726)">Small</text>
  <text style="stroke:none;fill:black;font-family:-apple-system,&quot;SF Pro Display&quot;,&quot;SF Pro Text&quot;,Helvetica,sans-serif;" transform="matrix(1 0 0 1 263 1156)">Medium</text>
  <text style="stroke:none;fill:black;font-family:-apple-system,&quot;SF Pro Display&quot;,&quot;SF Pro Text&quot;,Helvetica,sans-serif;" transform="matrix(1 0 0 1 263 1586)">Large</text>
 </g>
 <g id="Guides">
  <g id="H-reference" style="fill:#27AAE1;stroke:none;" transform="matrix(1 0 0 1 339 696)">
   <path d="M 0.976562 0 L 3.66211 0 L 12.9883 -24.4629 L 45.7031 -24.4629 L 55.0781 0 L 57.7148 0 L 30.6152 -70.459 L 28.125 -70.459 Z M 29.2969 -67.1387 L 29.3945 -67.1387 L 44.873 -26.709 L 13.8672 -26.709 Z"/>
  </g>
  <line id="Baseline-S" style="fill:none;stroke:#27AAE1;opacity:1;stroke-width:0.5;" x1="263" x2="3036" y1="696" y2="696"/>
  <line id="Capline-S" style="fill:none;stroke:#27AAE1;opacity:1;stroke-width:0.5;" x1="263" x2="3036" y1="625.541" y2="625.541"/>
  <g id="H-reference" style="fill:#27AAE1;stroke:none;" transform="matrix(1 0 0 1 339 1126)">
   <path d="M 0.976562 0 L 3.66211 0 L 12.9883 -24.4629 L 45.7031 -24.4629 L 55.0781 0 L 57.7148 0 L 30.6152 -70.459 L 28.125 -70.459 Z M 29.2969 -67.1387 L 29.3945 -67.1387 L 44.873 -26.709 L 13.8672 -26.709 Z"/>
  </g>
  <line id="Baseline-M" style="fill:none;stroke:#27AAE1;opacity:1;stroke-width:0.5;" x1="263" x2="3036" y1="1126" y2="1126"/>
  <line id="Capline-M" style="fill:none;stroke:#27AAE1;opacity:1;stroke-width:0.5;" x1="263" x2="3036" y1="1055.54" y2="1055.54"/>
  <g id="H-reference" style="fill:#27AAE1;stroke:none;" transform="matrix(1 0 0 1 339 1556)">
   <path d="M 0.976562 0 L 3.66211 0 L 12.9883 -24.4629 L 45.7031 -24.4629 L 55.0781 0 L 57.7148 0 L 30.6152 -70.459 L 28.125 -70.459 Z M 29.2969 -67.1387 L 29.3945 -67.1387 L 44.873 -26.709 L 13.8672 -26.709 Z"/>
  </g>
  <line id="Baseline-L" style="fill:none;stroke:#27AAE1;opacity:1;stroke-width:0.5;" x1="263" x2="3036" y1="1556" y2="1556"/>
  <line id="Capline-L" style="fill:none;stroke:#27AAE1;opacity:1;stroke-width:0.5;" x1="263" x2="3036" y1="1485.54" y2="1485.54"/>
  <line id="left-margin" style="fill:none;stroke:#00AEEF;stroke-width:0.5;opacity:1.0;" x1="1369.42" x2="1369.42" y1="1030.79" y2="1150.12"/>
  <line id="right-margin" style="fill:none;stroke:#00AEEF;stroke-width:0.5;opacity:1.0;" x1="1530.26" x2="1530.26" y1="1030.79" y2="1150.12"/>
 </g>
 <g id="Symbols">
  <g id="Black-L" transform="matrix(1 0 0 1 2811.87 1556)">
   <path d="M 190.332 32.959 C 195.068 35.6934 200.928 34.3262 203.76 29.5898 C 215.234 10.8887 221.826 -11.377 221.826 -35.1074 C 221.826 -58.7891 215.186 -81.0547 203.76 -99.7559 C 200.928 -104.492 195.068 -105.859 190.332 -103.125 C 185.303 -100.195 184.473 -94.0918 187.793 -88.5254 C 197.07 -73.1445 202.441 -54.6387 202.441 -35.1074 C 202.441 -15.5762 197.07 2.97852 187.793 18.3594 C 184.473 23.9258 185.303 30.0293 190.332 32.959 Z M 93.75 24.0234 C 100.391 24.0234 105.518 18.9941 105.518 12.3535 L 105.518 -82.6172 C 105.518 -89.209 100.391 -94.4336 93.75 -94.4336 C 89.5996 -94.4336 86.3281 -92.8711 81.9824 -88.7695 L 57.373 -66.0156 C 57.0312 -65.7715 56.7383 -65.625 56.3477 -65.625 L 39.2578 -65.625 C 27.5391 -65.625 21.2402 -58.9844 21.2402 -46.7773 L 21.2402 -23.6328 C 21.2402 -11.4258 27.5391 -4.78516 39.2578 -4.78516 L 56.2988 -4.78516 C 56.6895 -4.78516 56.9824 -4.73633 57.3242 -4.44336 L 81.9824 18.5547 C 86.084 22.4121 89.4043 24.0234 93.75 24.0234 Z M 159.033 14.6973 C 163.623 17.334 169.238 16.2109 172.168 11.6699 C 180.811 -1.66016 185.645 -18.0176 185.645 -35.2539 C 185.645 -52.5391 180.859 -68.8965 172.168 -82.2266 C 169.238 -86.7676 163.623 -87.8906 159.033 -85.2539 C 153.809 -82.3242 153.174 -76.0254 156.641 -70.3125 C 162.744 -60.3516 166.26 -48.0957 166.26 -35.2539 C 166.26 -22.4609 162.695 -10.2051 156.641 -0.195312 C 153.223 5.46875 153.809 11.7676 159.033 14.6973 Z M 127.49 -3.4668 C 131.982 -0.732422 137.402 -1.80664 140.186 -5.71289 C 145.996 -13.8184 149.365 -24.2676 149.365 -35.2539 C 149.365 -46.2402 145.996 -56.6895 140.186 -64.8926 C 137.402 -68.7012 131.982 -69.8242 127.49 -67.041 C 122.656 -64.1113 121.484 -58.3984 125.537 -51.6113 C 128.32 -47.0215 129.932 -41.2109 129.932 -35.2539 C 129.932 -29.3457 128.32 -23.5352 125.537 -18.9453 C 121.533 -12.1094 122.656 -6.39648 127.49 -3.4668 Z"/>
  </g>
  <g id="Heavy-L" transform="matrix(1 0 0 1 2519.84 1556)">
   <path d="M 183.398 30.957 C 187.451 33.3496 192.529 32.1777 195.068 28.0762 C 206.396 10.0098 213.086 -11.6211 213.086 -35.1562 C 213.086 -58.6426 206.299 -80.2246 195.068 -98.3398 C 192.529 -102.49 187.451 -103.662 183.398 -101.221 C 179.102 -98.6816 178.418 -93.4082 181.299 -88.623 C 190.674 -73.3887 196.289 -55.0293 196.289 -35.1562 C 196.289 -15.2344 190.674 3.125 181.299 18.3594 C 178.418 23.1445 179.102 28.418 183.398 30.957 Z M 91.8945 22.998 C 97.8516 22.998 102.393 18.5059 102.393 12.5488 L 102.393 -82.7637 C 102.393 -88.7207 97.8516 -93.3594 91.8457 -93.3594 C 88.0859 -93.3594 85.1074 -91.9434 81.1523 -88.1836 L 55.9082 -64.6973 C 55.5664 -64.4043 55.1758 -64.209 54.7363 -64.209 L 37.3047 -64.209 C 26.5137 -64.209 20.6055 -58.0566 20.6055 -46.7773 L 20.6055 -23.5352 C 20.6055 -12.2559 26.5137 -6.10352 37.3047 -6.10352 L 54.6875 -6.10352 C 55.127 -6.10352 55.5176 -6.00586 55.8594 -5.71289 L 81.1523 17.9688 C 84.9121 21.4844 87.9395 22.998 91.8945 22.998 Z M 154.102 13.0859 C 158.105 15.4297 162.988 14.4531 165.527 10.498 C 174.072 -2.29492 178.906 -18.4082 178.906 -35.2539 C 178.906 -52.1484 174.072 -68.3105 165.527 -81.0547 C 162.988 -85.0098 158.105 -85.9375 154.102 -83.6426 C 149.658 -81.0547 149.121 -75.6836 152.1 -70.8008 C 158.447 -60.791 162.109 -48.3398 162.109 -35.2539 C 162.109 -22.2168 158.398 -9.76562 152.1 0.244141 C 149.121 5.12695 149.658 10.498 154.102 13.0859 Z M 124.658 -4.6875 C 128.516 -2.29492 133.301 -3.22266 135.742 -6.68945 C 141.309 -14.4043 144.629 -24.5605 144.629 -35.2539 C 144.629 -45.9961 141.309 -56.1035 135.742 -63.916 C 133.301 -67.2852 128.516 -68.2129 124.658 -65.8203 C 120.459 -63.2324 119.482 -58.252 122.949 -52.4902 C 126.074 -47.7539 127.783 -41.6504 127.783 -35.2539 C 127.783 -28.9062 126.025 -22.8516 122.949 -18.0176 C 119.531 -12.3047 120.459 -7.27539 124.658 -4.6875 Z"/>
  </g>
  <g id="Bold-L" transform="matrix(1 0 0 1 2228.38 1556)">
   <path d="M 175.684 28.7598 C 179.004 30.8105 183.203 29.834 185.352 26.416 C 196.484 9.0332 203.271 -11.9141 203.271 -35.2051 C 203.271 -58.4473 196.387 -79.3457 185.352 -96.7773 C 183.203 -100.244 179.004 -101.172 175.684 -99.1211 C 172.168 -96.9727 171.582 -92.627 173.975 -88.7207 C 183.496 -73.6816 189.453 -55.5176 189.453 -35.2051 C 189.453 -14.8926 183.496 3.36914 173.975 18.3594 C 171.582 22.2656 172.168 26.6113 175.684 28.7598 Z M 89.8438 21.8262 C 95.0195 21.8262 98.877 17.9199 98.877 12.7441 L 98.877 -82.959 C 98.877 -88.1348 95.0195 -92.2363 89.7461 -92.2363 C 86.377 -92.2363 83.7891 -90.8691 80.2246 -87.5 L 54.2969 -63.1836 C 53.9062 -62.8418 53.418 -62.6465 52.8809 -62.6465 L 35.1074 -62.6465 C 25.3418 -62.6465 19.9219 -57.0801 19.9219 -46.8262 L 19.9219 -23.4375 C 19.9219 -13.2324 25.3418 -7.61719 35.1074 -7.61719 L 52.8809 -7.61719 C 53.418 -7.61719 53.8574 -7.4707 54.248 -7.12891 L 80.2246 17.2852 C 83.5449 20.459 86.3281 21.8262 89.8438 21.8262 Z M 148.584 11.2793 C 151.904 13.2812 155.957 12.4512 158.105 9.17969 C 166.504 -2.97852 171.338 -18.7988 171.338 -35.2539 C 171.338 -51.709 166.504 -67.6758 158.105 -79.7363 C 155.957 -83.0078 151.904 -83.7891 148.584 -81.8359 C 144.971 -79.6387 144.531 -75.2441 147.021 -71.2891 C 153.662 -61.3281 157.422 -48.584 157.422 -35.2539 C 157.422 -21.9238 153.613 -9.22852 147.021 0.78125 C 144.531 4.73633 144.971 9.13086 148.584 11.2793 Z M 121.533 -6.05469 C 124.658 -4.05273 128.662 -4.83398 130.762 -7.76367 C 136.084 -15.0391 139.307 -24.8535 139.307 -35.2539 C 139.307 -45.7031 136.084 -55.4688 130.762 -62.793 C 128.662 -65.7227 124.658 -66.4551 121.533 -64.4531 C 118.018 -62.2559 117.236 -58.0566 120.117 -53.5156 C 123.535 -48.4863 125.391 -42.0898 125.391 -35.2539 C 125.391 -28.418 123.486 -22.0703 120.117 -16.9922 C 117.285 -12.4512 118.018 -8.30078 121.533 -6.05469 Z"/>
  </g>
  <g id="Semibold-L" transform="matrix(1 0 0 1 1935.31 1556)">
   <path d="M 170.312 27.2461 C 173.145 29.0039 176.758 28.2227 178.662 25.2441 C 189.697 8.34961 196.533 -12.1094 196.533 -35.2051 C 196.533 -58.3008 189.551 -78.7598 178.662 -95.7031 C 176.758 -98.6816 173.145 -99.4629 170.312 -97.6562 C 167.334 -95.8008 166.895 -92.0898 168.945 -88.8184 C 178.564 -73.877 184.717 -55.8105 184.717 -35.2051 C 184.717 -14.6484 178.564 3.4668 168.945 18.4082 C 166.895 21.6797 167.334 25.3906 170.312 27.2461 Z M 88.4277 20.9961 C 93.0664 20.9961 96.4844 17.5293 96.4844 12.8906 L 96.4844 -83.0566 C 96.4844 -87.6953 93.0664 -91.4551 88.3301 -91.4551 C 85.2051 -91.4551 82.8613 -90.1367 79.5898 -87.0117 L 53.1738 -62.1582 C 52.7344 -61.7676 52.2461 -61.6211 51.6113 -61.6211 L 33.5449 -61.6211 C 24.5117 -61.6211 19.3848 -56.3477 19.3848 -46.875 L 19.3848 -23.3398 C 19.3848 -13.8672 24.5117 -8.64258 33.5449 -8.64258 L 51.6113 -8.64258 C 52.1973 -8.64258 52.7344 -8.44727 53.125 -8.05664 L 79.5898 16.8457 C 82.6172 19.7266 85.2051 20.9961 88.4277 20.9961 Z M 144.775 10.0098 C 147.607 11.7676 151.074 11.1328 152.979 8.25195 C 161.279 -3.41797 166.113 -19.0918 166.113 -35.2539 C 166.113 -51.416 161.328 -67.1875 152.979 -78.8086 C 151.074 -81.6406 147.607 -82.3242 144.775 -80.5664 C 141.797 -78.7109 141.357 -75 143.555 -71.6797 C 150.342 -61.6699 154.248 -48.7793 154.248 -35.2539 C 154.248 -21.7773 150.293 -8.88672 143.555 1.12305 C 141.406 4.44336 141.797 8.1543 144.775 10.0098 Z M 119.336 -6.98242 C 122.021 -5.27344 125.488 -5.9082 127.344 -8.54492 C 132.471 -15.4297 135.596 -25.0488 135.596 -35.2539 C 135.596 -45.459 132.471 -55.0293 127.344 -62.0117 C 125.488 -64.6484 122.021 -65.2832 119.336 -63.4766 C 116.357 -61.5723 115.723 -57.9102 118.164 -54.248 C 121.777 -49.0234 123.73 -42.4316 123.73 -35.2539 C 123.73 -28.0762 121.729 -21.5332 118.164 -16.3086 C 115.771 -12.5977 116.357 -8.98438 119.336 -6.98242 Z"/>
  </g>
  <g id="Medium-L" transform="matrix(1 0 0 1 1641.33 1556)">
   <path d="M 166.26 26.0742 C 168.701 27.6855 171.875 27.002 173.584 24.4141 C 184.521 7.86133 191.406 -12.2559 191.406 -35.2539 C 191.406 -58.2031 184.375 -78.2715 173.584 -94.873 C 171.875 -97.5098 168.701 -98.1445 166.26 -96.5332 C 163.721 -94.9219 163.33 -91.6992 165.137 -88.8672 C 174.805 -74.0234 181.152 -56.0547 181.152 -35.2539 C 181.152 -14.4531 174.805 3.56445 165.137 18.4082 C 163.33 21.2402 163.721 24.4141 166.26 26.0742 Z M 87.3047 20.4102 C 91.6016 20.4102 94.6289 17.2363 94.6289 12.9883 L 94.6289 -83.1543 C 94.6289 -87.4023 91.6016 -90.8203 87.207 -90.8203 C 84.2773 -90.8203 82.1289 -89.5996 79.1016 -86.6699 L 52.2949 -61.377 C 51.8555 -60.9863 51.3184 -60.791 50.6348 -60.791 L 32.4219 -60.791 C 23.877 -60.791 19.043 -55.8594 19.043 -46.875 L 19.043 -23.291 C 19.043 -14.3555 23.877 -9.42383 32.4219 -9.42383 L 50.6348 -9.42383 C 51.3184 -9.42383 51.8555 -9.22852 52.2949 -8.78906 L 79.1016 16.5039 C 81.8848 19.1895 84.3262 20.4102 87.3047 20.4102 Z M 141.895 9.08203 C 144.385 10.6445 147.412 10.0586 149.121 7.56836 C 157.324 -3.75977 162.158 -19.3359 162.158 -35.2539 C 162.158 -51.2207 157.324 -66.8457 149.121 -78.125 C 147.412 -80.6152 144.385 -81.2012 141.895 -79.5898 C 139.355 -77.9785 138.965 -74.7559 140.869 -71.9238 C 147.852 -61.9629 151.807 -48.9258 151.807 -35.2539 C 151.807 -21.6309 147.754 -8.64258 140.869 1.41602 C 139.014 4.24805 139.355 7.42188 141.895 9.08203 Z M 117.676 -7.71484 C 120.02 -6.20117 123.047 -6.73828 124.756 -9.13086 C 129.736 -15.7715 132.812 -25.2441 132.812 -35.2539 C 132.812 -45.3125 129.736 -54.7363 124.756 -61.4258 C 123.047 -63.8184 120.02 -64.3555 117.676 -62.793 C 115.039 -61.0352 114.551 -57.8125 116.65 -54.7852 C 120.459 -49.4629 122.461 -42.6758 122.461 -35.2539 C 122.461 -27.832 120.41 -21.1426 116.65 -15.7715 C 114.6 -12.6953 115.039 -9.52148 117.676 -7.71484 Z"/>
  </g>
  <g id="Regular-L" transform="matrix(1 0 0 1 1348.21 1556)">
   <path d="M 160.986 24.5605 C 162.891 25.9277 165.479 25.3906 166.943 23.2422 C 177.734 7.17773 184.717 -12.4512 184.717 -35.2539 C 184.717 -58.1055 177.588 -77.6855 166.943 -93.7988 C 165.479 -95.9961 162.891 -96.4844 160.986 -95.1172 C 158.984 -93.75 158.691 -91.1621 160.205 -88.9648 C 169.922 -74.2188 176.465 -56.3477 176.465 -35.2539 C 176.465 -14.209 169.922 3.71094 160.205 18.4082 C 158.691 20.6055 158.984 23.1934 160.986 24.5605 Z M 85.8887 19.6289 C 89.6973 19.6289 92.2852 16.8457 92.2852 13.1348 L 92.2852 -83.3008 C 92.2852 -87.0117 89.6973 -90.0391 85.791 -90.0391 C 83.1055 -90.0391 81.25 -88.8672 78.4668 -86.2305 L 51.1719 -60.3516 C 50.7324 -59.9121 50.1465 -59.7168 49.4141 -59.7168 L 30.9082 -59.7168 C 23.0957 -59.7168 18.5547 -55.1758 18.5547 -46.875 L 18.5547 -23.2422 C 18.5547 -14.9902 23.0957 -10.4492 30.9082 -10.4492 L 49.4141 -10.4492 C 50.1465 -10.4492 50.7324 -10.2051 51.1719 -9.76562 L 78.4668 16.0645 C 81.0059 18.457 83.2031 19.6289 85.8887 19.6289 Z M 138.135 7.8125 C 140.137 9.17969 142.627 8.74023 144.043 6.68945 C 152.148 -4.24805 156.982 -19.6289 156.982 -35.2539 C 156.982 -50.9277 152.197 -66.4062 144.043 -77.1973 C 142.627 -79.248 140.137 -79.7363 138.135 -78.3691 C 136.182 -77.002 135.84 -74.5117 137.402 -72.2656 C 144.58 -62.3047 148.633 -49.0723 148.633 -35.2539 C 148.633 -21.4355 144.482 -8.25195 137.402 1.75781 C 135.889 3.95508 136.182 6.49414 138.135 7.8125 Z M 115.527 -8.64258 C 117.383 -7.37305 119.922 -7.8125 121.338 -9.86328 C 126.172 -16.2109 129.199 -25.4395 129.199 -35.2539 C 129.199 -45.1172 126.172 -54.2969 121.338 -60.6934 C 119.922 -62.7441 117.383 -63.1348 115.527 -61.8652 C 113.379 -60.3516 113.037 -57.7148 114.697 -55.4688 C 118.701 -50 120.85 -43.0176 120.85 -35.2539 C 120.85 -27.5391 118.652 -20.6055 114.697 -15.0391 C 113.086 -12.793 113.379 -10.2051 115.527 -8.64258 Z"/>
  </g>
  <g id="Light-L" transform="matrix(1 0 0 1 1054.43 1556)">
   <path d="M 157.275 24.3652 C 158.789 25.4395 160.742 25 161.865 23.3887 C 172.363 7.17773 179.785 -11.6699 179.785 -35.2539 C 179.785 -58.8379 172.266 -77.6855 161.865 -93.8965 C 160.742 -95.6055 158.789 -95.9961 157.275 -94.9219 C 155.762 -93.8965 155.518 -91.8945 156.641 -90.1855 C 166.357 -75 173.438 -57.5195 173.438 -35.2539 C 173.438 -13.0371 166.357 4.49219 156.641 19.6289 C 155.518 21.3379 155.762 23.3398 157.275 24.3652 Z M 84.1797 18.5547 C 87.5 18.5547 89.5508 16.1621 89.5508 12.9883 L 89.5508 -83.252 C 89.5508 -86.4746 87.5 -89.0625 84.1309 -89.0625 C 81.8359 -89.0625 80.0781 -87.9883 77.9297 -85.8887 L 50.0488 -59.2285 C 49.5605 -58.6914 48.877 -58.4961 47.998 -58.4961 L 28.8574 -58.4961 C 22.0215 -58.4961 17.627 -54.0527 17.627 -46.9727 L 17.627 -22.998 C 17.627 -15.9668 22.0215 -11.5234 28.8574 -11.5234 L 47.998 -11.5234 C 48.877 -11.5234 49.5605 -11.2793 50.0488 -10.7422 L 77.9297 15.625 C 79.9316 17.5293 81.8848 18.5547 84.1797 18.5547 Z M 135.449 7.61719 C 137.012 8.64258 138.867 8.30078 139.99 6.73828 C 148.096 -3.95508 153.125 -19.4824 153.125 -35.2539 C 153.125 -51.0742 148.096 -66.6504 139.99 -77.2949 C 138.867 -78.8574 137.012 -79.1992 135.449 -78.125 C 133.887 -77.0996 133.691 -75.1465 134.912 -73.4375 C 142.48 -63.1348 146.68 -49.6094 146.68 -35.2539 C 146.68 -20.9473 142.383 -7.42188 134.912 2.92969 C 133.691 4.63867 133.887 6.54297 135.449 7.61719 Z M 113.916 -8.98438 C 115.381 -7.95898 117.285 -8.30078 118.408 -9.86328 C 123.242 -16.1621 126.416 -25.1465 126.416 -35.2539 C 126.416 -45.3613 123.242 -54.3457 118.408 -60.6934 C 117.285 -62.2559 115.381 -62.5488 113.916 -61.5234 C 112.305 -60.4004 112.012 -58.3496 113.33 -56.6406 C 117.773 -50.5371 119.971 -43.6035 119.971 -35.2539 C 119.971 -26.9531 117.725 -20.0195 113.33 -13.916 C 112.061 -12.1582 112.305 -10.1562 113.916 -8.98438 Z"/>
  </g>
  <g id="Thin-L" transform="matrix(1 0 0 1 761.574 1556)">
   <path d="M 152.344 24.1211 C 153.32 24.8047 154.492 24.5117 155.078 23.5352 C 165.234 7.17773 173.291 -10.6934 173.291 -35.2539 C 173.291 -59.8633 165.234 -77.7344 155.078 -94.0918 C 154.492 -95.0684 153.32 -95.3613 152.344 -94.6777 C 151.465 -94.0918 151.27 -92.8223 151.953 -91.7969 C 161.719 -76.0254 169.434 -59.082 169.434 -35.2539 C 169.434 -11.4746 161.719 5.46875 151.953 21.2402 C 151.27 22.3145 151.465 23.5352 152.344 24.1211 Z M 81.9336 17.1875 C 84.5703 17.1875 85.9375 15.2344 85.9375 12.7441 L 85.9375 -83.2031 C 85.9375 -85.7422 84.5703 -87.7441 81.8848 -87.7441 C 80.0781 -87.7441 78.5645 -86.8164 77.2461 -85.498 L 48.584 -57.7148 C 47.9492 -57.0801 47.168 -56.8359 46.0938 -56.8359 L 26.123 -56.8359 C 20.6543 -56.8359 16.4062 -52.6367 16.4062 -47.0703 L 16.4062 -22.7051 C 16.4062 -17.2363 20.6543 -12.9883 26.123 -12.9883 L 46.0938 -12.9883 C 47.168 -12.9883 47.9492 -12.6953 48.584 -12.0605 L 77.2461 14.9902 C 78.5156 16.3086 80.0781 17.1875 81.9336 17.1875 Z M 131.885 7.27539 C 132.861 7.95898 133.936 7.76367 134.619 6.83594 C 142.725 -3.61328 147.998 -19.2871 147.998 -35.2539 C 147.998 -51.2207 142.725 -66.9434 134.619 -77.3926 C 133.936 -78.2715 132.861 -78.4668 131.885 -77.832 C 130.908 -77.1484 130.811 -76.0742 131.592 -75 C 139.648 -64.2578 144.092 -50.293 144.092 -35.2539 C 144.092 -20.2637 139.648 -6.29883 131.592 4.44336 C 130.811 5.51758 130.908 6.5918 131.885 7.27539 Z M 111.816 -9.42383 C 112.744 -8.78906 113.867 -8.93555 114.502 -9.86328 C 119.336 -16.0645 122.754 -24.8047 122.754 -35.2539 C 122.754 -45.7031 119.336 -54.4434 114.502 -60.6934 C 113.867 -61.5723 112.744 -61.7676 111.816 -61.1328 C 110.889 -60.4492 110.693 -59.2285 111.475 -58.2031 C 116.504 -51.3184 118.848 -44.3848 118.848 -35.2539 C 118.848 -26.1719 116.455 -19.2383 111.475 -12.3535 C 110.693 -11.2793 110.889 -10.1074 111.816 -9.42383 Z"/>
  </g>
  <g id="Ultralight-L" transform="matrix(1 0 0 1 466.84 1556)">
   <path d="M 149.854 24.0234 C 150.488 24.4629 151.27 24.2676 151.66 23.6328 C 161.621 7.17773 169.971 -10.1562 169.971 -35.2539 C 169.971 -60.3516 161.621 -77.7344 151.66 -94.1895 C 151.27 -94.8242 150.488 -95.0195 149.854 -94.5801 C 149.268 -94.1895 149.121 -93.3105 149.561 -92.627 C 159.326 -76.5137 167.334 -59.8633 167.334 -35.2539 C 167.334 -10.6934 159.326 6.00586 149.561 22.0703 C 149.121 22.8027 149.268 23.6328 149.854 24.0234 Z M 80.7617 16.5039 C 83.1055 16.5039 84.1309 14.7461 84.1309 12.5977 L 84.1309 -83.2031 C 84.1309 -85.3516 83.1055 -87.0605 80.7617 -87.0605 C 79.1992 -87.0605 77.7832 -86.2305 76.8555 -85.2539 L 47.8027 -56.9336 C 47.1191 -56.25 46.2891 -56.0059 45.1172 -56.0059 L 24.7559 -56.0059 C 19.9219 -56.0059 15.7715 -51.9043 15.7715 -47.1191 L 15.7715 -22.5586 C 15.7715 -17.8711 19.9219 -13.7695 24.7559 -13.7695 L 45.1172 -13.7695 C 46.2891 -13.7695 47.1191 -13.4277 47.8027 -12.7441 L 76.8555 14.6973 C 77.832 15.6738 79.1992 16.5039 80.7617 16.5039 Z M 130.029 7.12891 C 130.713 7.56836 131.396 7.4707 131.836 6.88477 C 139.99 -3.41797 145.361 -19.2383 145.361 -35.2539 C 145.361 -51.3184 139.99 -67.0898 131.836 -77.4414 C 131.396 -77.9785 130.713 -78.125 130.029 -77.6367 C 129.395 -77.1973 129.346 -76.5137 129.883 -75.7812 C 138.184 -64.7949 142.773 -50.6348 142.773 -35.2539 C 142.773 -19.9219 138.232 -5.71289 129.883 5.22461 C 129.346 5.95703 129.395 6.64062 130.029 7.12891 Z M 110.693 -9.66797 C 111.377 -9.17969 112.061 -9.27734 112.549 -9.86328 C 117.334 -16.0156 120.85 -24.6582 120.85 -35.2539 C 120.85 -45.8984 117.334 -54.4922 112.549 -60.6934 C 112.061 -61.2305 111.377 -61.377 110.693 -60.8887 C 110.156 -60.4492 110.01 -59.7168 110.547 -58.9844 C 115.82 -51.709 118.262 -44.7754 118.262 -35.2539 C 118.262 -25.7324 115.82 -18.8477 110.547 -11.5723 C 110.01 -10.8398 110.156 -10.1074 110.693 -9.66797 Z"/>
  </g>
  <g id="Black-M" transform="matrix(1 0 0 1 2834.43 1126)">
   <path d="M 154.834 20.166 C 159.229 22.5586 164.453 21.2891 166.895 17.0898 C 175.879 1.66016 181.104 -16.0156 181.104 -35.0586 C 181.104 -54.1504 175.879 -71.8262 166.895 -87.207 C 164.453 -91.4551 159.229 -92.6758 154.834 -90.2832 C 150.244 -87.7441 149.512 -82.1777 152.441 -77.0508 C 159.473 -64.6973 163.525 -50.3418 163.525 -35.0586 C 163.525 -19.7754 159.473 -5.46875 152.441 6.93359 C 149.512 12.0605 150.244 17.5781 154.834 20.166 Z M 74.2676 11.5723 C 80.0781 11.5723 84.5215 7.08008 84.5215 1.31836 L 84.5215 -71.6797 C 84.5215 -77.4902 80.0781 -81.9336 74.2676 -81.9336 C 70.8496 -81.9336 67.9199 -80.7129 64.3555 -77.3926 L 45.8496 -60.3027 C 45.6055 -60.1074 45.4102 -59.9609 45.166 -59.9609 L 32.0312 -59.9609 C 22.2656 -59.9609 16.8457 -54.248 16.8457 -44.1895 L 16.8457 -26.2207 C 16.8457 -16.1133 22.2656 -10.4004 32.0312 -10.4004 L 45.1172 -10.4004 C 45.3613 -10.4004 45.5566 -10.4004 45.8008 -10.2539 L 64.3555 6.98242 C 67.8223 10.1562 70.5566 11.5723 74.2676 11.5723 Z M 128.516 5.56641 C 132.666 7.8125 137.695 6.78711 140.234 2.7832 C 147.168 -8.25195 150.977 -21.3379 150.977 -35.2539 C 150.977 -49.2188 147.168 -62.2559 140.234 -73.291 C 137.695 -77.3438 132.666 -78.3203 128.516 -76.0742 C 123.633 -73.4375 123.145 -67.6758 126.221 -62.4512 C 130.811 -54.4922 133.447 -45.166 133.447 -35.2539 C 133.447 -25.3418 130.811 -16.0156 126.221 -8.10547 C 123.145 -2.83203 123.633 2.88086 128.516 5.56641 Z M 101.758 -9.13086 C 105.859 -6.68945 110.693 -7.71484 113.086 -11.0352 C 117.92 -17.8711 120.752 -26.2207 120.752 -35.2539 C 120.752 -44.2871 117.92 -52.6367 113.086 -59.5703 C 110.693 -62.8418 105.859 -63.8184 101.758 -61.377 C 97.4609 -58.8379 96.3379 -53.7598 100 -47.3145 C 102.051 -43.75 103.174 -39.5996 103.174 -35.2539 C 103.174 -30.9082 102.051 -26.7578 100 -23.2422 C 96.3379 -16.748 97.4609 -11.6699 101.758 -9.13086 Z"/>
  </g>
  <g id="Heavy-M" transform="matrix(1 0 0 1 2542.08 1126)">
   <path d="M 148.242 18.0664 C 152.002 20.166 156.543 19.0918 158.74 15.4297 C 167.578 0.732422 172.803 -16.4551 172.803 -35.1074 C 172.803 -53.7598 167.578 -70.9473 158.74 -85.6445 C 156.543 -89.3555 152.002 -90.3809 148.242 -88.2812 C 144.287 -86.0352 143.652 -81.25 146.24 -76.8555 C 153.418 -64.7461 157.617 -50.4883 157.617 -35.1074 C 157.617 -19.7266 153.418 -5.46875 146.24 6.64062 C 143.652 10.9863 144.287 15.7715 148.242 18.0664 Z M 72.7051 10.6934 C 77.8809 10.6934 81.8359 6.73828 81.8359 1.5625 L 81.8359 -71.875 C 81.8359 -77.0508 77.8809 -81.1035 72.6562 -81.1035 C 69.4824 -81.1035 66.8945 -79.8828 63.623 -76.8066 L 44.5312 -59.1309 C 44.2871 -58.9355 44.043 -58.7891 43.75 -58.7891 L 30.3711 -58.7891 C 21.3379 -58.7891 16.4062 -53.5645 16.4062 -44.1895 L 16.4062 -26.1719 C 16.4062 -16.7969 21.3379 -11.5723 30.3711 -11.5723 L 43.7012 -11.5723 C 43.9941 -11.5723 44.2383 -11.5723 44.4824 -11.3281 L 63.623 6.44531 C 66.748 9.42383 69.3359 10.6934 72.7051 10.6934 Z M 123.779 3.80859 C 127.393 5.85938 131.787 4.98047 134.033 1.46484 C 140.771 -8.98438 144.58 -21.7773 144.58 -35.2539 C 144.58 -48.7793 140.82 -61.5723 134.033 -71.9727 C 131.787 -75.4883 127.393 -76.3672 123.779 -74.3652 C 119.678 -72.0215 119.189 -67.0898 121.875 -62.6465 C 126.66 -54.7852 129.395 -45.2637 129.395 -35.2539 C 129.395 -25.2441 126.66 -15.7227 121.875 -7.91016 C 119.189 -3.41797 119.678 1.51367 123.779 3.80859 Z M 99.0723 -10.4004 C 102.637 -8.25195 106.885 -9.13086 108.984 -12.1094 C 113.574 -18.5059 116.26 -26.6113 116.26 -35.2539 C 116.26 -43.8965 113.574 -52.002 108.984 -58.4473 C 106.885 -61.4258 102.637 -62.2559 99.0723 -60.1074 C 95.3613 -57.8613 94.3848 -53.418 97.5586 -47.998 C 99.8047 -44.3359 101.025 -39.8926 101.025 -35.2539 C 101.025 -30.6152 99.8047 -26.1719 97.5586 -22.5098 C 94.4336 -17.0898 95.3613 -12.6465 99.0723 -10.4004 Z"/>
  </g>
  <g id="Bold-M" transform="matrix(1 0 0 1 2250.28 1126)">
   <path d="M 140.869 15.6738 C 143.896 17.4805 147.705 16.6504 149.609 13.5254 C 158.35 -0.341797 163.525 -16.9922 163.525 -35.1562 C 163.525 -53.3203 158.252 -69.9707 149.609 -83.8867 C 147.705 -86.9629 143.896 -87.8418 140.869 -86.0352 C 137.646 -84.1309 137.158 -80.1758 139.307 -76.6113 C 146.582 -64.8438 150.977 -50.6348 150.977 -35.1562 C 150.977 -19.7266 146.582 -5.46875 139.307 6.29883 C 137.158 9.86328 137.646 13.7695 140.869 15.6738 Z M 70.8984 9.7168 C 75.3906 9.7168 78.8086 6.29883 78.8086 1.85547 L 78.8086 -72.1191 C 78.8086 -76.5625 75.3906 -80.127 70.8496 -80.127 C 68.0176 -80.127 65.7715 -79.0039 62.7441 -76.1719 L 43.0664 -57.8125 C 42.7734 -57.5684 42.4805 -57.4707 42.1387 -57.4707 L 28.5645 -57.4707 C 20.3613 -57.4707 15.8691 -52.7832 15.8691 -44.1895 L 15.8691 -26.123 C 15.8691 -17.5781 20.3613 -12.8906 28.5645 -12.8906 L 42.0898 -12.8906 C 42.4805 -12.8906 42.7734 -12.8418 43.0176 -12.5977 L 62.7441 5.85938 C 65.5762 8.54492 67.9199 9.7168 70.8984 9.7168 Z M 118.555 1.9043 C 121.533 3.66211 125.146 2.92969 127.1 0 C 133.691 -9.81445 137.402 -22.2656 137.402 -35.2539 C 137.402 -48.2422 133.691 -60.7422 127.1 -70.5078 C 125.146 -73.4375 121.533 -74.1699 118.555 -72.4121 C 115.234 -70.5078 114.795 -66.5039 117.09 -62.8418 C 122.021 -55.127 124.854 -45.4102 124.854 -35.2539 C 124.854 -25.0977 121.973 -15.4297 117.09 -7.66602 C 114.844 -4.05273 115.234 0 118.555 1.9043 Z M 96.0938 -11.8164 C 98.9746 -10.0098 102.539 -10.6934 104.395 -13.2812 C 108.691 -19.1895 111.23 -27.002 111.23 -35.2539 C 111.23 -43.5059 108.691 -51.3184 104.395 -57.2754 C 102.539 -59.8145 98.9746 -60.498 96.0938 -58.6914 C 92.9688 -56.7871 92.2363 -53.0273 94.8242 -48.7793 C 97.3145 -45.0195 98.6328 -40.2832 98.6328 -35.2539 C 98.6328 -30.2734 97.2656 -25.4883 94.8242 -21.7285 C 92.2852 -17.4805 92.9688 -13.7695 96.0938 -11.8164 Z"/>
  </g>
  <g id="Semibold-M" transform="matrix(1 0 0 1 1956.94 1126)">
   <path d="M 135.791 14.0625 C 138.33 15.6738 141.602 14.9414 143.311 12.2559 C 151.953 -1.07422 157.129 -17.3828 157.129 -35.2051 C 157.129 -53.0273 151.855 -69.2871 143.311 -82.666 C 141.602 -85.3516 138.33 -86.0352 135.791 -84.4727 C 133.057 -82.8125 132.617 -79.4434 134.521 -76.4648 C 141.895 -64.8926 146.436 -50.7324 146.436 -35.2051 C 146.436 -19.6777 141.895 -5.46875 134.521 6.05469 C 132.617 9.0332 133.057 12.4023 135.791 14.0625 Z M 69.6777 9.0332 C 73.6816 9.0332 76.709 6.05469 76.709 2.05078 L 76.709 -72.2656 C 76.709 -76.2695 73.6816 -79.4434 69.6289 -79.4434 C 66.9434 -79.4434 64.9902 -78.3691 62.1582 -75.6836 L 42.041 -56.9336 C 41.7969 -56.6406 41.4062 -56.543 41.0156 -56.543 L 27.2949 -56.543 C 19.6777 -56.543 15.5273 -52.2461 15.5273 -44.1895 L 15.5273 -26.123 C 15.5273 -18.1152 19.6777 -13.8184 27.2949 -13.8184 L 41.0156 -13.8184 C 41.4062 -13.8184 41.748 -13.7207 42.041 -13.4277 L 62.1582 5.46875 C 64.7949 7.95898 66.9434 9.0332 69.6777 9.0332 Z M 114.941 0.585938 C 117.48 2.14844 120.605 1.51367 122.314 -1.02539 C 128.76 -10.4004 132.471 -22.6074 132.471 -35.2539 C 132.471 -47.9004 128.809 -60.2051 122.314 -69.4824 C 120.605 -72.0703 117.48 -72.6562 114.941 -71.0938 C 112.158 -69.4336 111.768 -66.0645 113.721 -63.0371 C 118.848 -55.3711 121.729 -45.5078 121.729 -35.2539 C 121.729 -25 118.75 -15.1855 113.721 -7.51953 C 111.816 -4.49219 112.158 -1.07422 114.941 0.585938 Z M 94.043 -12.7441 C 96.4844 -11.2305 99.6094 -11.7676 101.221 -14.1113 C 105.322 -19.6777 107.764 -27.2949 107.764 -35.2539 C 107.764 -43.2129 105.322 -50.8301 101.221 -56.3965 C 99.6094 -58.7402 96.4844 -59.3262 94.043 -57.7148 C 91.3574 -56.0059 90.7715 -52.7344 92.9688 -49.3164 C 95.5566 -45.5078 97.0215 -40.5273 97.0215 -35.2539 C 97.0215 -30.0293 95.5566 -25.0488 92.9688 -21.1914 C 90.7715 -17.7734 91.3574 -14.502 94.043 -12.7441 Z"/>
  </g>
  <g id="Medium-M" transform="matrix(1 0 0 1 1662.79 1126)">
   <path d="M 131.934 12.8418 C 134.082 14.2578 136.963 13.623 138.525 11.2793 C 147.119 -1.61133 152.295 -17.627 152.295 -35.2051 C 152.295 -52.832 147.021 -68.7988 138.525 -81.7383 C 136.963 -84.1309 134.082 -84.7168 131.934 -83.3008 C 129.59 -81.7871 129.248 -78.9062 130.859 -76.3184 C 138.33 -64.9414 142.969 -50.8301 142.969 -35.2051 C 142.969 -19.6777 138.33 -5.46875 130.859 5.85938 C 129.248 8.44727 129.59 11.3281 131.934 12.8418 Z M 68.75 8.54492 C 72.4121 8.54492 75.0977 5.81055 75.0977 2.19727 L 75.0977 -72.3633 C 75.0977 -76.0254 72.4121 -78.9551 68.6523 -78.9551 C 66.1621 -78.9551 64.3555 -77.9297 61.7188 -75.3418 L 41.3086 -56.25 C 41.0156 -55.957 40.625 -55.8105 40.1855 -55.8105 L 26.3672 -55.8105 C 19.1406 -55.8105 15.2344 -51.8066 15.2344 -44.2383 L 15.2344 -26.0742 C 15.2344 -18.5059 19.1406 -14.502 26.3672 -14.502 L 40.1855 -14.502 C 40.625 -14.502 40.9668 -14.3555 41.3086 -14.0625 L 61.7188 5.17578 C 64.1602 7.51953 66.2109 8.54492 68.75 8.54492 Z M 112.158 -0.390625 C 114.404 0.976562 117.139 0.488281 118.701 -1.80664 C 125.049 -10.791 128.76 -22.8516 128.76 -35.2539 C 128.76 -47.6562 125.098 -59.7656 118.701 -68.7012 C 117.139 -70.9961 114.404 -71.5332 112.158 -70.1172 C 109.814 -68.6523 109.473 -65.7227 111.23 -63.1348 C 116.406 -55.5176 119.385 -45.6055 119.385 -35.2539 C 119.385 -24.9512 116.357 -15.0391 111.23 -7.37305 C 109.521 -4.78516 109.814 -1.9043 112.158 -0.390625 Z M 92.4805 -13.4766 C 94.5801 -12.1094 97.3145 -12.5977 98.8281 -14.7461 C 102.783 -20.0195 105.127 -27.4902 105.127 -35.2539 C 105.127 -43.0176 102.783 -50.4395 98.8281 -55.7617 C 97.3145 -57.9102 94.5801 -58.3984 92.4805 -56.9824 C 90.0879 -55.4199 89.6484 -52.5391 91.5527 -49.707 C 94.2383 -45.8496 95.752 -40.6738 95.752 -35.2539 C 95.752 -29.834 94.2383 -24.707 91.5527 -20.8008 C 89.6484 -17.9688 90.0879 -15.0879 92.4805 -13.4766 Z"/>
  </g>
  <g id="Regular-M" transform="matrix(1 0 0 1 1369.42 1126)">
   <path d="M 126.904 11.2305 C 128.564 12.4512 130.957 11.9629 132.275 10.0098 C 140.82 -2.34375 145.947 -18.0176 145.947 -35.2539 C 145.947 -52.5391 140.674 -68.1152 132.275 -80.5176 C 130.957 -82.5195 128.564 -82.959 126.904 -81.7383 C 125.049 -80.4688 124.805 -78.1738 126.123 -76.1719 C 133.691 -64.9902 138.477 -50.9277 138.477 -35.2539 C 138.477 -19.6289 133.691 -5.46875 126.123 5.66406 C 124.805 7.66602 125.049 9.96094 126.904 11.2305 Z M 67.5293 7.86133 C 70.752 7.86133 73.0469 5.56641 73.0469 2.39258 L 73.0469 -72.5098 C 73.0469 -75.6836 70.752 -78.2715 67.4316 -78.2715 C 65.1367 -78.2715 63.5742 -77.2949 61.1328 -74.9023 L 40.2832 -55.3711 C 39.9902 -55.0781 39.5508 -54.9316 39.0625 -54.9316 L 25.0977 -54.9316 C 18.457 -54.9316 14.8926 -51.2695 14.8926 -44.2383 L 14.8926 -26.0742 C 14.8926 -18.9941 18.457 -15.3809 25.0977 -15.3809 L 39.0625 -15.3809 C 39.5508 -15.3809 39.9902 -15.2344 40.2832 -14.9414 L 61.1328 4.78516 C 63.3301 6.93359 65.2344 7.86133 67.5293 7.86133 Z M 108.594 -1.70898 C 110.4 -0.488281 112.646 -0.927734 113.965 -2.7832 C 120.215 -11.377 123.877 -23.1934 123.877 -35.2539 C 123.877 -47.3145 120.264 -59.2285 113.965 -67.7246 C 112.646 -69.5801 110.4 -70.0195 108.594 -68.7988 C 106.787 -67.5781 106.494 -65.2832 107.91 -63.2812 C 113.232 -55.7617 116.309 -45.6543 116.309 -35.2539 C 116.309 -24.8535 113.135 -14.8438 107.91 -7.22656 C 106.543 -5.22461 106.787 -2.92969 108.594 -1.70898 Z M 90.4785 -14.4531 C 92.0898 -13.3301 94.3848 -13.6719 95.7031 -15.5762 C 99.4629 -20.5078 101.709 -27.7832 101.709 -35.2539 C 101.709 -42.7246 99.4629 -49.9512 95.7031 -54.9316 C 94.3848 -56.8359 92.0898 -57.2266 90.4785 -56.0547 C 88.4766 -54.6875 88.1836 -52.2461 89.6973 -50.2441 C 92.5293 -46.3379 94.1406 -40.918 94.1406 -35.2539 C 94.1406 -29.5898 92.4805 -24.2188 89.6973 -20.2637 C 88.2324 -18.2129 88.4766 -15.8691 90.4785 -14.4531 Z"/>
  </g>
  <g id="Light-M" transform="matrix(1 0 0 1 1075.35 1126)">
   <path d="M 123.535 11.0352 C 124.854 12.0117 126.709 11.6211 127.686 10.1562 C 135.986 -2.34375 141.553 -17.334 141.553 -35.2539 C 141.553 -53.1738 135.889 -68.1152 127.686 -80.6641 C 126.709 -82.1777 124.854 -82.5195 123.535 -81.5918 C 122.168 -80.6152 121.924 -78.8086 122.949 -77.2461 C 130.518 -65.6738 135.742 -52.002 135.742 -35.2539 C 135.742 -18.5547 130.518 -4.78516 122.949 6.73828 C 121.924 8.30078 122.168 10.1074 123.535 11.0352 Z M 65.9668 6.93359 C 68.75 6.93359 70.6055 4.93164 70.6055 2.19727 L 70.6055 -72.4609 C 70.6055 -75.1953 68.75 -77.3926 65.918 -77.3926 C 63.9648 -77.3926 62.5488 -76.5137 60.6445 -74.6582 L 39.2578 -54.3457 C 38.916 -53.9551 38.4277 -53.8086 37.793 -53.8086 L 23.2422 -53.8086 C 17.5293 -53.8086 14.0625 -50.293 14.0625 -44.2871 L 14.0625 -25.8789 C 14.0625 -19.873 17.5293 -16.3574 23.2422 -16.3574 L 37.793 -16.3574 C 38.4277 -16.3574 38.916 -16.2109 39.2578 -15.8203 L 60.6445 4.39453 C 62.4023 6.10352 64.0137 6.93359 65.9668 6.93359 Z M 106.152 -1.95312 C 107.568 -0.976562 109.277 -1.31836 110.303 -2.73438 C 116.553 -11.1328 120.361 -23.0957 120.361 -35.2539 C 120.361 -47.4609 116.602 -59.4727 110.303 -67.7734 C 109.277 -69.2383 107.568 -69.5312 106.152 -68.6035 C 104.785 -67.627 104.541 -65.8691 105.664 -64.3066 C 111.328 -56.4941 114.551 -46.1426 114.551 -35.2539 C 114.551 -24.3652 111.279 -14.0625 105.664 -6.20117 C 104.59 -4.63867 104.785 -2.88086 106.152 -1.95312 Z M 89.0137 -14.7461 C 90.332 -13.8672 92.041 -14.1113 93.0664 -15.5762 C 96.8262 -20.459 99.2188 -27.5391 99.2188 -35.2539 C 99.2188 -42.9688 96.8262 -50.0488 93.0664 -54.9316 C 92.041 -56.3965 90.332 -56.6895 89.0137 -55.7617 C 87.5 -54.6875 87.2559 -52.8809 88.4277 -51.3184 C 91.6992 -46.875 93.3594 -41.4551 93.3594 -35.2539 C 93.3594 -29.0527 91.6504 -23.6816 88.4277 -19.2383 C 87.3047 -17.627 87.5 -15.8203 89.0137 -14.7461 Z"/>
  </g>
  <g id="Thin-M" transform="matrix(1 0 0 1 782.106 1126)">
   <path d="M 119.141 10.8398 C 119.971 11.4258 121.045 11.1816 121.631 10.3027 C 129.59 -2.34375 135.693 -16.4062 135.693 -35.2539 C 135.693 -54.1016 129.541 -68.1641 121.631 -80.8105 C 121.045 -81.7383 119.971 -81.9824 119.141 -81.3477 C 118.311 -80.8105 118.164 -79.6875 118.75 -78.7109 C 126.318 -66.6016 132.129 -53.3691 132.129 -35.2539 C 132.129 -17.1387 126.318 -3.90625 118.75 8.20312 C 118.164 9.13086 118.311 10.2539 119.141 10.8398 Z M 63.9648 5.71289 C 66.1621 5.71289 67.3828 4.10156 67.3828 2.00195 L 67.3828 -72.4121 C 67.3828 -74.5117 66.1621 -76.2207 63.916 -76.2207 C 62.4023 -76.2207 61.1816 -75.4395 59.9609 -74.2676 L 37.9395 -52.9785 C 37.5 -52.5391 36.9141 -52.3438 36.1328 -52.3438 L 20.8008 -52.3438 C 16.2598 -52.3438 12.9395 -49.0234 12.9395 -44.3848 L 12.9395 -25.5859 C 12.9395 -20.9961 16.2598 -17.6758 20.8008 -17.6758 L 36.1328 -17.6758 C 36.9141 -17.6758 37.5 -17.4805 37.9395 -16.9922 L 59.9609 3.80859 C 61.1328 4.98047 62.4512 5.71289 63.9648 5.71289 Z M 102.93 -2.19727 C 103.809 -1.61133 104.834 -1.80664 105.469 -2.63672 C 111.719 -10.791 115.771 -22.9492 115.771 -35.2539 C 115.771 -47.6074 111.768 -59.7656 105.469 -67.8711 C 104.834 -68.7012 103.809 -68.8965 102.93 -68.3105 C 102.1 -67.7246 101.953 -66.6504 102.637 -65.7227 C 108.789 -57.4707 112.207 -46.7285 112.207 -35.2539 C 112.207 -23.7793 108.789 -13.0371 102.637 -4.83398 C 101.953 -3.85742 102.1 -2.83203 102.93 -2.19727 Z M 87.1094 -15.1367 C 87.9395 -14.5508 88.9648 -14.7461 89.5996 -15.5762 C 93.3105 -20.4102 95.8984 -27.2461 95.8984 -35.2539 C 95.8984 -43.2617 93.3105 -50.0977 89.5996 -54.9316 C 88.9648 -55.8105 87.9395 -55.957 87.1094 -55.3711 C 86.2305 -54.7363 86.084 -53.6621 86.7676 -52.6855 C 90.5273 -47.5098 92.334 -42.1387 92.334 -35.2539 C 92.334 -28.3691 90.5273 -22.998 86.7676 -17.8223 C 86.084 -16.8457 86.2305 -15.7715 87.1094 -15.1367 Z"/>
  </g>
  <g id="Ultralight-M" transform="matrix(1 0 0 1 487.177 1126)">
   <path d="M 116.846 10.7422 C 117.48 11.1328 118.164 10.9863 118.555 10.3516 C 126.318 -2.34375 132.715 -15.9668 132.715 -35.2539 C 132.715 -54.541 126.318 -68.1641 118.555 -80.9082 C 118.164 -81.4941 117.48 -81.6895 116.846 -81.25 C 116.309 -80.9082 116.211 -80.127 116.602 -79.4434 C 124.17 -67.0898 130.273 -54.1016 130.273 -35.2539 C 130.273 -16.4551 124.17 -3.41797 116.602 8.93555 C 116.211 9.57031 116.309 10.3516 116.846 10.7422 Z M 62.8906 5.07812 C 64.7949 5.07812 65.7227 3.66211 65.7227 1.85547 L 65.7227 -72.4121 C 65.7227 -74.1699 64.7949 -75.5859 62.8906 -75.5859 C 61.6211 -75.5859 60.498 -74.9023 59.668 -74.0723 L 37.2559 -52.2949 C 36.7676 -51.7578 36.1328 -51.6113 35.2539 -51.6113 L 19.5801 -51.6113 C 15.625 -51.6113 12.4023 -48.3398 12.4023 -44.4336 L 12.4023 -25.4883 C 12.4023 -21.582 15.625 -18.3594 19.5801 -18.3594 L 35.2539 -18.3594 C 36.1328 -18.3594 36.7676 -18.1152 37.2559 -17.627 L 59.668 3.56445 C 60.498 4.39453 61.6211 5.07812 62.8906 5.07812 Z M 101.318 -2.34375 C 101.904 -1.95312 102.539 -2.05078 102.979 -2.58789 C 109.277 -10.6445 113.379 -22.8516 113.379 -35.2539 C 113.379 -47.6562 109.277 -59.9121 102.979 -67.9199 C 102.539 -68.457 101.904 -68.5547 101.318 -68.1641 C 100.684 -67.7246 100.635 -67.0898 101.123 -66.4062 C 107.52 -58.0078 110.986 -47.0703 110.986 -35.2539 C 110.986 -23.4375 107.52 -12.5488 101.123 -4.10156 C 100.635 -3.4668 100.684 -2.7832 101.318 -2.34375 Z M 86.1328 -15.332 C 86.7188 -14.8926 87.3535 -15.0391 87.793 -15.5762 C 91.5527 -20.3613 94.2383 -27.0996 94.2383 -35.2539 C 94.2383 -43.457 91.5527 -50.1465 87.793 -54.9316 C 87.3535 -55.4688 86.7188 -55.6152 86.1328 -55.1758 C 85.5957 -54.7852 85.4492 -54.0527 85.9375 -53.3691 C 89.9414 -47.9004 91.7969 -42.5293 91.7969 -35.2539 C 91.7969 -27.9785 89.9414 -22.6562 85.9375 -17.1387 C 85.4492 -16.4551 85.5957 -15.7715 86.1328 -15.332 Z"/>
  </g>
  <g id="Black-S" transform="matrix(1 0 0 1 2856.15 696)">
   <path d="M 120.85 8.00781 C 124.219 9.86328 128.271 8.88672 130.176 5.61523 C 137.207 -6.39648 141.309 -20.2148 141.309 -35.1074 C 141.309 -50 137.207 -63.8184 130.176 -75.8301 C 128.271 -79.1016 124.219 -80.0781 120.85 -78.2227 C 117.285 -76.2207 116.699 -71.9238 118.994 -67.9688 C 124.512 -58.3008 127.686 -47.0703 127.686 -35.1074 C 127.686 -23.1445 124.512 -11.9141 118.994 -2.24609 C 116.699 1.70898 117.285 6.00586 120.85 8.00781 Z M 58.1055 1.36719 C 62.5977 1.36719 66.0645 -2.09961 66.0645 -6.5918 L 66.0645 -63.8184 C 66.0645 -68.3105 62.5977 -71.7773 58.1055 -71.7773 C 55.4199 -71.7773 53.1738 -70.8008 50.3906 -68.2129 L 35.8398 -54.7852 C 35.6445 -54.6387 35.498 -54.541 35.3027 -54.541 L 25 -54.541 C 17.3828 -54.541 13.1836 -50.0977 13.1836 -42.2363 L 13.1836 -28.1738 C 13.1836 -20.3125 17.3828 -15.8691 25 -15.8691 L 35.2539 -15.8691 C 35.4492 -15.8691 35.5957 -15.8691 35.791 -15.7227 L 50.3906 -2.19727 C 53.0762 0.292969 55.2246 1.36719 58.1055 1.36719 Z M 100.342 -3.41797 C 103.564 -1.66016 107.471 -2.44141 109.424 -5.56641 C 114.844 -14.1602 117.822 -24.3652 117.822 -35.2539 C 117.822 -46.1426 114.844 -56.3477 109.424 -64.9414 C 107.471 -68.0664 103.564 -68.8477 100.342 -67.0898 C 96.582 -65.0391 96.1914 -60.5957 98.584 -56.543 C 102.197 -50.3418 104.248 -43.0176 104.248 -35.2539 C 104.248 -27.4902 102.197 -20.166 98.584 -13.9648 C 96.1914 -9.91211 96.582 -5.46875 100.342 -3.41797 Z M 79.541 -14.8926 C 82.7148 -12.9883 86.4746 -13.7695 88.3301 -16.3574 C 92.0898 -21.6797 94.2871 -28.2227 94.2871 -35.2539 C 94.2871 -42.2852 92.0898 -48.8281 88.3301 -54.1992 C 86.4746 -56.7383 82.7148 -57.5195 79.541 -55.6152 C 76.2207 -53.6621 75.3418 -49.707 78.1738 -44.7266 C 79.7852 -41.9434 80.6641 -38.6719 80.6641 -35.2539 C 80.6641 -31.8359 79.7852 -28.5645 78.1738 -25.7812 C 75.3418 -20.8008 76.2207 -16.8457 79.541 -14.8926 Z"/>
  </g>
  <g id="Heavy-S" transform="matrix(1 0 0 1 2562.49 696)">
   <path d="M 116.162 6.39648 C 119.092 8.10547 122.705 7.22656 124.463 4.3457 C 131.396 -7.12891 135.449 -20.6543 135.449 -35.1562 C 135.449 -49.6094 131.396 -63.1348 124.463 -74.6094 C 122.705 -77.5391 119.092 -78.3691 116.162 -76.709 C 113.086 -74.9023 112.549 -71.1426 114.6 -67.6758 C 120.215 -58.3008 123.486 -47.0703 123.486 -35.1562 C 123.486 -23.2422 120.215 -12.0117 114.6 -2.58789 C 112.549 0.830078 113.086 4.63867 116.162 6.39648 Z M 57.0312 0.78125 C 61.1328 0.78125 64.2578 -2.29492 64.2578 -6.39648 L 64.2578 -63.9648 C 64.2578 -68.0176 61.1328 -71.1914 57.0312 -71.1914 C 54.541 -71.1914 52.4902 -70.2637 49.8535 -67.8223 L 34.9609 -54.0039 C 34.7656 -53.8574 34.5703 -53.7598 34.3262 -53.7598 L 23.9258 -53.7598 C 16.7969 -53.7598 12.9395 -49.6582 12.9395 -42.2363 L 12.9395 -28.1738 C 12.9395 -20.752 16.7969 -16.6504 23.9258 -16.6504 L 34.3262 -16.6504 C 34.5215 -16.6504 34.7168 -16.6504 34.9121 -16.4551 L 49.8535 -2.53906 C 52.3926 -0.195312 54.3945 0.78125 57.0312 0.78125 Z M 97.0215 -4.6875 C 99.8535 -3.125 103.32 -3.80859 105.078 -6.5918 C 110.352 -14.7461 113.281 -24.707 113.281 -35.2539 C 113.281 -45.8008 110.352 -55.7617 105.078 -63.916 C 103.32 -66.6992 99.8535 -67.3828 97.0215 -65.8203 C 93.75 -63.9648 93.4082 -60.1074 95.5078 -56.5918 C 99.2188 -50.4883 101.318 -43.0664 101.318 -35.2539 C 101.318 -27.4414 99.2188 -20.0195 95.5078 -13.916 C 93.4082 -10.4004 93.75 -6.54297 97.0215 -4.6875 Z M 77.6367 -15.8203 C 80.4199 -14.1113 83.7891 -14.7949 85.4492 -17.1875 C 89.0137 -22.168 91.1133 -28.5156 91.1133 -35.2539 C 91.1133 -41.9922 89.0137 -48.3398 85.4492 -53.3691 C 83.7891 -55.7129 80.4199 -56.3965 77.6367 -54.6875 C 74.707 -52.8809 73.9746 -49.3652 76.416 -45.166 C 78.1738 -42.334 79.1016 -38.8672 79.1016 -35.2539 C 79.1016 -31.6406 78.125 -28.1738 76.416 -25.3418 C 73.9746 -21.1426 74.707 -17.627 77.6367 -15.8203 Z"/>
  </g>
  <g id="Bold-S" transform="matrix(1 0 0 1 2269.23 696)">
   <path d="M 110.938 4.63867 C 113.379 6.10352 116.455 5.37109 118.018 2.88086 C 124.951 -7.95898 128.906 -21.1426 128.906 -35.2051 C 128.906 -49.2188 124.854 -62.4023 118.018 -73.2422 C 116.455 -75.7812 113.379 -76.4648 110.938 -75 C 108.35 -73.4375 107.91 -70.2637 109.668 -67.3828 C 115.381 -58.252 118.75 -47.0703 118.75 -35.2051 C 118.75 -23.3398 115.381 -12.0605 109.668 -2.97852 C 107.91 -0.0976562 108.35 3.07617 110.938 4.63867 Z M 55.8594 0.195312 C 59.4727 0.195312 62.207 -2.53906 62.207 -6.15234 L 62.207 -64.1113 C 62.207 -67.7246 59.4727 -70.6055 55.8105 -70.6055 C 53.5156 -70.6055 51.7578 -69.6777 49.2676 -67.334 L 33.9355 -53.125 C 33.7402 -52.9785 33.5449 -52.8809 33.252 -52.8809 L 22.7539 -52.8809 C 16.1621 -52.8809 12.6465 -49.1699 12.6465 -42.2363 L 12.6465 -28.1738 C 12.6465 -21.1914 16.1621 -17.5293 22.7539 -17.5293 L 33.252 -17.5293 C 33.4961 -17.5293 33.7402 -17.4805 33.9355 -17.2852 L 49.2676 -2.92969 C 51.5625 -0.732422 53.4668 0.195312 55.8594 0.195312 Z M 93.2617 -6.15234 C 95.7031 -4.73633 98.6328 -5.32227 100.195 -7.71484 C 105.371 -15.4297 108.252 -25.0977 108.252 -35.2539 C 108.252 -45.4102 105.371 -55.127 100.195 -62.793 C 98.6328 -65.1855 95.7031 -65.7715 93.2617 -64.3555 C 90.5762 -62.793 90.2832 -59.5215 92.0898 -56.6406 C 95.8984 -50.6348 98.0957 -43.1152 98.0957 -35.2539 C 98.0957 -27.3926 95.8496 -19.873 92.0898 -13.8672 C 90.2832 -10.9863 90.5762 -7.71484 93.2617 -6.15234 Z M 75.5371 -16.8457 C 77.832 -15.3809 80.7617 -15.9668 82.2754 -18.1152 C 85.6445 -22.7051 87.5488 -28.8574 87.5488 -35.2539 C 87.5488 -41.6504 85.6445 -47.8027 82.2754 -52.4414 C 80.7617 -54.541 77.832 -55.127 75.5371 -53.6621 C 72.998 -52.0508 72.4121 -48.9746 74.5117 -45.6055 C 76.3184 -42.8223 77.3926 -39.0625 77.3926 -35.2539 C 77.3926 -31.4453 76.3184 -27.7344 74.5117 -24.9023 C 72.4121 -21.4844 72.998 -18.457 75.5371 -16.8457 Z"/>
  </g>
  <g id="Semibold-S" transform="matrix(1 0 0 1 1974.86 696)">
   <path d="M 107.324 3.41797 C 109.424 4.73633 112.158 4.10156 113.623 1.9043 C 120.459 -8.49609 124.414 -21.4844 124.414 -35.2051 C 124.414 -48.9258 120.361 -61.8652 113.623 -72.3145 C 112.158 -74.5605 109.424 -75.1465 107.324 -73.8281 C 105.078 -72.4121 104.736 -69.6289 106.299 -67.1387 C 112.109 -58.252 115.527 -47.0703 115.527 -35.2051 C 115.527 -23.3887 112.109 -12.1582 106.299 -3.27148 C 104.736 -0.78125 105.078 2.00195 107.324 3.41797 Z M 55.0781 -0.244141 C 58.3496 -0.244141 60.8398 -2.68555 60.8398 -5.95703 L 60.8398 -64.2578 C 60.8398 -67.5293 58.3496 -70.166 54.9805 -70.166 C 52.832 -70.166 51.2207 -69.2871 48.8281 -67.041 L 33.252 -52.5391 C 33.0566 -52.3438 32.8125 -52.2461 32.5195 -52.2461 L 21.9727 -52.2461 C 15.7227 -52.2461 12.4023 -48.877 12.4023 -42.2363 L 12.4023 -28.1738 C 12.4023 -21.5332 15.7227 -18.1152 21.9727 -18.1152 L 32.5195 -18.1152 C 32.7637 -18.1152 33.0566 -18.0664 33.252 -17.8711 L 48.8281 -3.22266 C 51.0254 -1.12305 52.832 -0.244141 55.0781 -0.244141 Z M 90.7227 -7.12891 C 92.8223 -5.85938 95.459 -6.34766 96.875 -8.49609 C 101.904 -15.8691 104.785 -25.3906 104.785 -35.2539 C 104.785 -45.1172 101.953 -54.6875 96.875 -62.0117 C 95.459 -64.1602 92.8223 -64.6484 90.7227 -63.3789 C 88.4277 -61.9629 88.0859 -59.1797 89.7461 -56.6406 C 93.6035 -50.7324 95.8496 -43.1152 95.8496 -35.2539 C 95.8496 -27.3926 93.5547 -19.7754 89.7461 -13.8672 C 88.1348 -11.3281 88.4277 -8.54492 90.7227 -7.12891 Z M 74.0723 -17.5781 C 76.0742 -16.2598 78.7109 -16.748 80.0781 -18.7012 C 83.3008 -23.0957 85.1074 -29.1016 85.1074 -35.2539 C 85.1074 -41.4062 83.3008 -47.4121 80.0781 -51.8066 C 78.7109 -53.7598 76.0742 -54.248 74.0723 -52.9297 C 71.8262 -51.4648 71.3379 -48.7305 73.1934 -45.9473 C 75.0977 -43.1152 76.1719 -39.209 76.1719 -35.2539 C 76.1719 -31.2988 75.0488 -27.3926 73.1934 -24.5605 C 71.3867 -21.7285 71.8262 -19.043 74.0723 -17.5781 Z"/>
  </g>
  <g id="Medium-S" transform="matrix(1 0 0 1 1679.93 696)">
   <path d="M 104.59 2.44141 C 106.445 3.66211 108.936 3.17383 110.254 1.12305 C 117.09 -8.93555 120.947 -21.7285 120.947 -35.2051 C 120.947 -48.7305 116.992 -61.4746 110.254 -71.582 C 108.936 -73.6328 106.445 -74.1211 104.59 -72.9004 C 102.637 -71.6309 102.344 -69.1406 103.76 -66.9922 C 109.57 -58.252 113.037 -47.0215 113.037 -35.2051 C 113.037 -23.4375 109.57 -12.207 103.76 -3.4668 C 102.344 -1.26953 102.637 1.17188 104.59 2.44141 Z M 54.4434 -0.585938 C 57.4707 -0.585938 59.7656 -2.83203 59.7656 -5.85938 L 59.7656 -64.3555 C 59.7656 -67.3828 57.4707 -69.8242 54.3945 -69.8242 C 52.2949 -69.8242 50.8301 -68.9941 48.5352 -66.7969 L 32.7148 -52.0996 C 32.5195 -51.9043 32.2754 -51.8066 31.9824 -51.8066 L 21.3379 -51.8066 C 15.3809 -51.8066 12.2559 -48.6328 12.2559 -42.2363 L 12.2559 -28.125 C 12.2559 -21.7773 15.3809 -18.6035 21.3379 -18.6035 L 31.9336 -18.6035 C 32.2266 -18.6035 32.5195 -18.5059 32.7148 -18.3105 L 48.5352 -3.41797 C 50.6348 -1.41602 52.3438 -0.585938 54.4434 -0.585938 Z M 88.7695 -7.91016 C 90.6738 -6.68945 93.0176 -7.12891 94.3359 -9.08203 C 99.3164 -16.2109 102.148 -25.5859 102.148 -35.2539 C 102.148 -44.9219 99.3652 -54.3945 94.3359 -61.4258 C 93.0176 -63.3789 90.6738 -63.8184 88.7695 -62.5977 C 86.7676 -61.377 86.4746 -58.8867 87.9395 -56.6895 C 91.8945 -50.8301 94.1406 -43.1641 94.1406 -35.2539 C 94.1406 -27.3438 91.7969 -19.7266 87.9395 -13.8184 C 86.5234 -11.6211 86.7676 -9.13086 88.7695 -7.91016 Z M 72.998 -18.1152 C 74.7559 -16.9434 77.0996 -17.334 78.418 -19.1895 C 81.4941 -23.3398 83.252 -29.2969 83.252 -35.2539 C 83.252 -41.2109 81.4941 -47.1191 78.418 -51.3184 C 77.0996 -53.1738 74.7559 -53.5645 72.998 -52.3926 C 70.9473 -51.0254 70.5566 -48.5352 72.168 -46.1914 C 74.1211 -43.3594 75.293 -39.3066 75.293 -35.2539 C 75.293 -31.2012 74.1211 -27.1973 72.168 -24.3164 C 70.5566 -21.9238 70.9473 -19.4824 72.998 -18.1152 Z"/>
  </g>
  <g id="Regular-S" transform="matrix(1 0 0 1 1385.56 696)">
   <path d="M 101.025 1.2207 C 102.539 2.34375 104.688 1.9043 105.859 0.146484 C 112.695 -9.47266 116.504 -22.0703 116.504 -35.2539 C 116.504 -48.4375 112.549 -60.9863 105.859 -70.6543 C 104.688 -72.4609 102.539 -72.8516 101.025 -71.7285 C 99.4141 -70.6055 99.1699 -68.5547 100.391 -66.748 C 106.299 -58.2031 109.814 -47.0215 109.814 -35.2539 C 109.814 -23.5352 106.299 -12.2559 100.391 -3.75977 C 99.1699 -1.95312 99.4141 0.0976562 101.025 1.2207 Z M 53.6621 -1.02539 C 56.3477 -1.02539 58.3984 -2.97852 58.3984 -5.71289 L 58.3984 -64.4531 C 58.3984 -67.1387 56.3477 -69.3848 53.5645 -69.3848 C 51.6113 -69.3848 50.293 -68.5547 48.0957 -66.4551 L 32.0312 -51.5137 C 31.8359 -51.3184 31.543 -51.1719 31.25 -51.1719 L 20.5566 -51.1719 C 14.9414 -51.1719 12.0605 -48.291 12.0605 -42.2363 L 12.0605 -28.125 C 12.0605 -22.1191 14.9414 -19.1895 20.5566 -19.1895 L 31.25 -19.1895 C 31.543 -19.1895 31.8359 -19.0918 32.0312 -18.8965 L 48.0957 -3.66211 C 50.0977 -1.80664 51.709 -1.02539 53.6621 -1.02539 Z M 86.2305 -8.88672 C 87.8418 -7.8125 89.8438 -8.1543 91.0156 -9.86328 C 95.8984 -16.6504 98.7305 -25.8789 98.7305 -35.2539 C 98.7305 -44.6289 95.9473 -53.9551 91.0156 -60.6445 C 89.8438 -62.3535 87.8418 -62.6953 86.2305 -61.6211 C 84.6191 -60.5469 84.3262 -58.4961 85.5957 -56.6895 C 89.6484 -50.9277 91.9434 -43.1641 91.9434 -35.2539 C 91.9434 -27.3438 89.5508 -19.6289 85.5957 -13.8184 C 84.375 -12.0117 84.6191 -9.96094 86.2305 -8.88672 Z M 71.5332 -18.7988 C 72.998 -17.8223 75.0488 -18.1152 76.2207 -19.8242 C 79.1504 -23.7305 80.8594 -29.4922 80.8594 -35.2539 C 80.8594 -41.0156 79.1504 -46.7285 76.2207 -50.6836 C 75.0488 -52.3926 72.998 -52.6855 71.5332 -51.6602 C 69.7754 -50.4395 69.4824 -48.291 70.8496 -46.4844 C 72.9004 -43.7012 74.0723 -39.4531 74.0723 -35.2539 C 74.0723 -31.0547 72.8516 -26.8555 70.8496 -24.0234 C 69.5312 -22.168 69.7754 -20.0684 71.5332 -18.7988 Z"/>
  </g>
  <g id="Light-S" transform="matrix(1 0 0 1 1091.17 696)">
   <path d="M 98.0957 1.07422 C 99.2676 1.95312 100.879 1.61133 101.807 0.244141 C 108.398 -9.47266 112.598 -21.4844 112.598 -35.2539 C 112.598 -49.0234 108.301 -60.9863 101.807 -70.752 C 100.879 -72.168 99.2676 -72.4609 98.0957 -71.582 C 96.8262 -70.752 96.6309 -69.1406 97.5586 -67.7246 C 103.467 -58.8379 107.422 -47.9492 107.422 -35.2539 C 107.422 -22.5586 103.467 -11.6699 97.5586 -2.7832 C 96.6309 -1.36719 96.8262 0.244141 98.0957 1.07422 Z M 52.2949 -1.85547 C 54.6387 -1.85547 56.25 -3.51562 56.25 -5.85938 L 56.25 -64.4043 C 56.25 -66.6992 54.6387 -68.6035 52.2461 -68.6035 C 50.5859 -68.6035 49.4141 -67.8711 47.7051 -66.2109 L 31.1523 -50.5859 C 30.9082 -50.3418 30.5176 -50.1953 30.127 -50.1953 L 18.9453 -50.1953 C 14.1113 -50.1953 11.3281 -47.4121 11.3281 -42.2852 L 11.3281 -27.9785 C 11.3281 -22.8516 14.1113 -20.0684 18.9453 -20.0684 L 30.127 -20.0684 C 30.5176 -20.0684 30.9082 -19.9219 31.1523 -19.6777 L 47.7051 -4.05273 C 49.2676 -2.53906 50.6348 -1.85547 52.2949 -1.85547 Z M 84.082 -9.08203 C 85.3516 -8.20312 86.9141 -8.49609 87.793 -9.81445 C 92.7246 -16.4551 95.6543 -25.7812 95.6543 -35.2539 C 95.6543 -44.7266 92.7246 -54.1504 87.793 -60.6934 C 86.9141 -62.0117 85.3516 -62.3047 84.082 -61.4258 C 82.8613 -60.5957 82.666 -59.0332 83.6426 -57.6172 C 87.9395 -51.6113 90.3809 -43.6035 90.3809 -35.2539 C 90.3809 -26.9043 87.8906 -18.9453 83.6426 -12.8906 C 82.666 -11.4746 82.8613 -9.91211 84.082 -9.08203 Z M 70.2637 -19.043 C 71.4355 -18.2617 72.998 -18.5547 73.9258 -19.8242 C 76.8555 -23.6816 78.6621 -29.2969 78.6621 -35.2539 C 78.6621 -41.2109 76.8555 -46.7773 73.9258 -50.6836 C 72.998 -51.9531 71.4355 -52.2461 70.2637 -51.416 C 68.8965 -50.4883 68.7012 -48.8281 69.7266 -47.4121 C 72.168 -44.1406 73.4375 -39.8926 73.4375 -35.2539 C 73.4375 -30.6152 72.1191 -26.416 69.7266 -23.0957 C 68.75 -21.6797 68.8965 -20.0195 70.2637 -19.043 Z"/>
  </g>
  <g id="Thin-S" transform="matrix(1 0 0 1 797.536 696)">
   <path d="M 94.1895 0.927734 C 94.9219 1.46484 95.8984 1.2207 96.4355 0.390625 C 102.734 -9.47266 107.422 -20.6543 107.422 -35.2539 C 107.422 -49.8535 102.686 -61.0352 96.4355 -70.8984 C 95.8984 -71.7285 94.9219 -71.9727 94.1895 -71.4355 C 93.4082 -70.8984 93.2617 -69.873 93.8477 -68.9941 C 99.7559 -59.6191 104.199 -49.1699 104.199 -35.2539 C 104.199 -21.3379 99.7559 -10.8398 93.8477 -1.51367 C 93.2617 -0.634766 93.4082 0.390625 94.1895 0.927734 Z M 50.4883 -2.92969 C 52.3438 -2.92969 53.418 -4.24805 53.418 -6.00586 L 53.418 -64.4043 C 53.418 -66.1621 52.3438 -67.5781 50.4883 -67.5781 C 49.2188 -67.5781 48.1934 -66.9434 47.1191 -65.8691 L 29.9805 -49.4141 C 29.6387 -49.0723 29.1992 -48.9258 28.6133 -48.9258 L 16.7969 -48.9258 C 12.9883 -48.9258 10.3516 -46.2891 10.3516 -42.3828 L 10.3516 -27.7344 C 10.3516 -23.877 12.9883 -21.2402 16.7969 -21.2402 L 28.6133 -21.2402 C 29.1992 -21.2402 29.6387 -21.0449 29.9805 -20.7031 L 47.1191 -4.54102 C 48.1445 -3.51562 49.2188 -2.92969 50.4883 -2.92969 Z M 81.2988 -9.32617 C 82.0801 -8.78906 83.0078 -8.93555 83.5449 -9.7168 C 88.4766 -16.1621 91.6016 -25.6348 91.6016 -35.2539 C 91.6016 -44.873 88.4766 -54.3945 83.5449 -60.791 C 83.0078 -61.5723 82.0801 -61.7188 81.2988 -61.1816 C 80.5176 -60.6445 80.3711 -59.7168 81.0059 -58.8379 C 85.7422 -52.4902 88.3789 -44.1406 88.3789 -35.2539 C 88.3789 -26.3672 85.6934 -18.0664 81.0059 -11.6699 C 80.4199 -10.791 80.5176 -9.86328 81.2988 -9.32617 Z M 68.6035 -19.3848 C 69.3359 -18.8965 70.2637 -19.043 70.8496 -19.8242 C 73.7793 -23.6328 75.7812 -29.0527 75.7812 -35.2539 C 75.7812 -41.4551 73.7793 -46.875 70.8496 -50.6836 C 70.2637 -51.4648 69.3359 -51.6113 68.6035 -51.0742 C 67.8223 -50.4883 67.6758 -49.5117 68.3105 -48.6328 C 71.1426 -44.7266 72.5586 -40.5273 72.5586 -35.2539 C 72.5586 -29.9805 71.1426 -25.7812 68.3105 -21.875 C 67.6758 -20.9961 67.8223 -20.0195 68.6035 -19.3848 Z"/>
  </g>
  <g id="Ultralight-S" transform="matrix(1 0 0 1 502.387 696)">
   <path d="M 92.1875 0.78125 C 92.7246 1.17188 93.3594 1.02539 93.7012 0.488281 C 99.8535 -9.47266 104.785 -20.2637 104.785 -35.2539 C 104.785 -50.2441 99.8535 -61.0352 93.7012 -70.9961 C 93.3594 -71.5332 92.7246 -71.6797 92.1875 -71.2891 C 91.6504 -70.9961 91.5527 -70.2637 91.9434 -69.6777 C 97.8516 -60.0586 102.588 -49.8047 102.588 -35.2539 C 102.588 -20.7031 97.8516 -10.4492 91.9434 -0.830078 C 91.5527 -0.244141 91.6504 0.488281 92.1875 0.78125 Z M 49.5605 -3.4668 C 51.1719 -3.4668 51.9531 -4.63867 51.9531 -6.15234 L 51.9531 -64.3555 C 51.9531 -65.8203 51.1719 -67.041 49.5605 -67.041 C 48.4863 -67.041 47.6074 -66.4551 46.8262 -65.7227 L 29.3945 -48.7793 C 29.0039 -48.3887 28.5156 -48.2422 27.8809 -48.2422 L 15.6738 -48.2422 C 12.4512 -48.2422 9.86328 -45.7031 9.86328 -42.4316 L 9.86328 -27.6367 C 9.86328 -24.4141 12.4512 -21.8262 15.6738 -21.8262 L 27.8809 -21.8262 C 28.5156 -21.8262 29.0039 -21.6309 29.3945 -21.2402 L 46.8262 -4.78516 C 47.6074 -4.05273 48.4863 -3.4668 49.5605 -3.4668 Z M 79.834 -9.42383 C 80.3711 -9.08203 81.0059 -9.17969 81.3965 -9.66797 C 86.3281 -16.0156 89.502 -25.5371 89.502 -35.2539 C 89.502 -44.9707 86.3281 -54.4922 81.3965 -60.8398 C 81.0059 -61.3281 80.3711 -61.4258 79.834 -61.084 C 79.2969 -60.6934 79.248 -60.0586 79.6875 -59.4727 C 84.6191 -52.9297 87.3047 -44.4336 87.3047 -35.2539 C 87.3047 -26.0742 84.6191 -17.5781 79.6875 -11.0352 C 79.248 -10.4492 79.2969 -9.81445 79.834 -9.42383 Z M 67.7246 -19.5801 C 68.2617 -19.2383 68.8965 -19.3359 69.2383 -19.8242 C 72.168 -23.584 74.2676 -28.9062 74.2676 -35.2539 C 74.2676 -41.6016 72.168 -46.9238 69.2383 -50.6836 C 68.8965 -51.1719 68.2617 -51.2695 67.7246 -50.9277 C 67.2363 -50.5371 67.1387 -49.8535 67.5781 -49.2676 C 70.6055 -45.0684 72.0703 -40.8691 72.0703 -35.2539 C 72.0703 -29.6387 70.6055 -25.4395 67.5781 -21.2402 C 67.1387 -20.6543 67.2363 -19.9707 67.7246 -19.5801 Z"/>
  </g>
 </g>
</svg>
