<?xml version="1.0" encoding="UTF-8"?>
<!--Generator: Apple Native CoreSVG 148-->
<!DOCTYPE svg
PUBLIC "-//W3C//DTD SVG 1.1//EN"
       "http://www.w3.org/Graphics/SVG/1.1/DTD/svg11.dtd">
<svg version="1.1" xmlns="http://www.w3.org/2000/svg" xmlns:xlink="http://www.w3.org/1999/xlink" width="3300" height="2200">
 <!--glyph: "uni1004BB.medium", point size: 100.000000, font version: "Version 16.0d11e1", template writer version: "8"-->
 <g id="Notes">
  <rect height="2200" id="artboard" style="fill:white;opacity:1" width="3300" x="0" y="0"/>
  <line id="" style="fill:none;stroke:black;opacity:1;stroke-width:0.5;" x1="263" x2="3036" y1="292" y2="292"/>
  <text style="stroke:none;fill:black;font-family:-apple-system,&quot;SF Pro Display&quot;,&quot;SF Pro Text&quot;,Helvetica,sans-serif;font-weight:bold;" transform="matrix(1 0 0 1 263 322)">Weight/Scale Variations</text>
  <text style="stroke:none;fill:black;font-family:-apple-system,&quot;SF Pro Display&quot;,&quot;SF Pro Text&quot;,Helvetica,sans-serif;text-anchor:middle;" transform="matrix(1 0 0 1 559.711 322)">Ultralight</text>
  <text style="stroke:none;fill:black;font-family:-apple-system,&quot;SF Pro Display&quot;,&quot;SF Pro Text&quot;,Helvetica,sans-serif;text-anchor:middle;" transform="matrix(1 0 0 1 856.422 322)">Thin</text>
  <text style="stroke:none;fill:black;font-family:-apple-system,&quot;SF Pro Display&quot;,&quot;SF Pro Text&quot;,Helvetica,sans-serif;text-anchor:middle;" transform="matrix(1 0 0 1 1153.13 322)">Light</text>
  <text style="stroke:none;fill:black;font-family:-apple-system,&quot;SF Pro Display&quot;,&quot;SF Pro Text&quot;,Helvetica,sans-serif;text-anchor:middle;" transform="matrix(1 0 0 1 1449.84 322)">Regular</text>
  <text style="stroke:none;fill:black;font-family:-apple-system,&quot;SF Pro Display&quot;,&quot;SF Pro Text&quot;,Helvetica,sans-serif;text-anchor:middle;" transform="matrix(1 0 0 1 1746.56 322)">Medium</text>
  <text style="stroke:none;fill:black;font-family:-apple-system,&quot;SF Pro Display&quot;,&quot;SF Pro Text&quot;,Helvetica,sans-serif;text-anchor:middle;" transform="matrix(1 0 0 1 2043.27 322)">Semibold</text>
  <text style="stroke:none;fill:black;font-family:-apple-system,&quot;SF Pro Display&quot;,&quot;SF Pro Text&quot;,Helvetica,sans-serif;text-anchor:middle;" transform="matrix(1 0 0 1 2339.98 322)">Bold</text>
  <text style="stroke:none;fill:black;font-family:-apple-system,&quot;SF Pro Display&quot;,&quot;SF Pro Text&quot;,Helvetica,sans-serif;text-anchor:middle;" transform="matrix(1 0 0 1 2636.69 322)">Heavy</text>
  <text style="stroke:none;fill:black;font-family:-apple-system,&quot;SF Pro Display&quot;,&quot;SF Pro Text&quot;,Helvetica,sans-serif;text-anchor:middle;" transform="matrix(1 0 0 1 2933.4 322)">Black</text>
  <line id="" style="fill:none;stroke:black;opacity:1;stroke-width:0.5;" x1="263" x2="3036" y1="1903" y2="1903"/>
  <g id="" transform="matrix(1 0 0 1 263 1933)">
   <path d="M 9.24805 0.830078 C 13.5547 0.830078 17.1387 -2.74414 17.1387 -7.05078 C 17.1387 -11.3574 13.5449 -14.9316 9.23828 -14.9316 C 4.94141 -14.9316 1.36719 -11.3574 1.36719 -7.05078 C 1.36719 -2.74414 4.95117 0.830078 9.24805 0.830078 Z M 9.24805 -0.654297 C 5.70312 -0.654297 2.87109 -3.49609 2.87109 -7.05078 C 2.87109 -10.6055 5.69336 -13.4473 9.23828 -13.4473 C 12.793 -13.4473 15.6348 -10.6055 15.6445 -7.05078 C 15.6543 -3.49609 12.8027 -0.654297 9.24805 -0.654297 Z M 9.22852 -3.62305 C 9.69727 -3.62305 9.9707 -3.93555 9.9707 -4.45312 L 9.9707 -6.31836 L 12.002 -6.31836 C 12.5 -6.31836 12.832 -6.57227 12.832 -7.04102 C 12.832 -7.51953 12.5195 -7.7832 12.002 -7.7832 L 9.9707 -7.7832 L 9.9707 -9.81445 C 9.9707 -10.332 9.69727 -10.6543 9.22852 -10.6543 C 8.75977 -10.6543 8.50586 -10.3125 8.50586 -9.81445 L 8.50586 -7.7832 L 6.49414 -7.7832 C 5.97656 -7.7832 5.64453 -7.51953 5.64453 -7.04102 C 5.64453 -6.57227 5.99609 -6.31836 6.49414 -6.31836 L 8.50586 -6.31836 L 8.50586 -4.45312 C 8.50586 -3.95508 8.75977 -3.62305 9.22852 -3.62305 Z"/>
  </g>
  <g id="" transform="matrix(1 0 0 1 281.506 1933)">
   <path d="M 11.709 2.91016 C 17.1582 2.91016 21.6699 -1.61133 21.6699 -7.05078 C 21.6699 -12.5 17.1484 -17.0117 11.6992 -17.0117 C 6.25977 -17.0117 1.74805 -12.5 1.74805 -7.05078 C 1.74805 -1.61133 6.26953 2.91016 11.709 2.91016 Z M 11.709 1.25 C 7.09961 1.25 3.41797 -2.44141 3.41797 -7.05078 C 3.41797 -11.6602 7.08984 -15.3516 11.6992 -15.3516 C 16.3086 -15.3516 20 -11.6602 20.0098 -7.05078 C 20.0195 -2.44141 16.3184 1.25 11.709 1.25 Z M 11.6797 -2.66602 C 12.207 -2.66602 12.5098 -3.01758 12.5098 -3.59375 L 12.5098 -6.23047 L 15.3223 -6.23047 C 15.8691 -6.23047 16.25 -6.51367 16.25 -7.03125 C 16.25 -7.55859 15.8887 -7.86133 15.3223 -7.86133 L 12.5098 -7.86133 L 12.5098 -10.6836 C 12.5098 -11.25 12.207 -11.6113 11.6797 -11.6113 C 11.1621 -11.6113 10.8789 -11.2305 10.8789 -10.6836 L 10.8789 -7.86133 L 8.07617 -7.86133 C 7.50977 -7.86133 7.13867 -7.55859 7.13867 -7.03125 C 7.13867 -6.51367 7.5293 -6.23047 8.07617 -6.23047 L 10.8789 -6.23047 L 10.8789 -3.59375 C 10.8789 -3.03711 11.1621 -2.66602 11.6797 -2.66602 Z"/>
  </g>
  <g id="" transform="matrix(1 0 0 1 304.924 1933)">
   <path d="M 14.9707 5.66406 C 21.9336 5.66406 27.6953 -0.0976562 27.6953 -7.05078 C 27.6953 -14.0137 21.9238 -19.7754 14.9609 -19.7754 C 8.00781 -19.7754 2.25586 -14.0137 2.25586 -7.05078 C 2.25586 -0.0976562 8.01758 5.66406 14.9707 5.66406 Z M 14.9707 3.84766 C 8.93555 3.84766 4.08203 -1.01562 4.08203 -7.05078 C 4.08203 -13.0957 8.92578 -17.9492 14.9609 -17.9492 C 21.0059 -17.9492 25.8594 -13.0957 25.8691 -7.05078 C 25.8789 -1.01562 21.0156 3.84766 14.9707 3.84766 Z M 14.9414 -1.38672 C 15.5176 -1.38672 15.8594 -1.77734 15.8594 -2.38281 L 15.8594 -6.13281 L 19.7754 -6.13281 C 20.3711 -6.13281 20.7812 -6.46484 20.7812 -7.02148 C 20.7812 -7.59766 20.3906 -7.93945 19.7754 -7.93945 L 15.8594 -7.93945 L 15.8594 -11.8652 C 15.8594 -12.4805 15.5176 -12.8711 14.9414 -12.8711 C 14.375 -12.8711 14.0527 -12.4609 14.0527 -11.8652 L 14.0527 -7.93945 L 10.1465 -7.93945 C 9.53125 -7.93945 9.13086 -7.59766 9.13086 -7.02148 C 9.13086 -6.46484 9.55078 -6.13281 10.1465 -6.13281 L 14.0527 -6.13281 L 14.0527 -2.38281 C 14.0527 -1.79688 14.375 -1.38672 14.9414 -1.38672 Z"/>
  </g>
  <text style="stroke:none;fill:black;font-family:-apple-system,&quot;SF Pro Display&quot;,&quot;SF Pro Text&quot;,Helvetica,sans-serif;font-weight:bold;" transform="matrix(1 0 0 1 263 1953)">Design Variations</text>
  <text style="stroke:none;fill:black;font-family:-apple-system,&quot;SF Pro Display&quot;,&quot;SF Pro Text&quot;,Helvetica,sans-serif;" transform="matrix(1 0 0 1 263 1971)">Symbols are supported in up to nine weights and three scales.</text>
  <text style="stroke:none;fill:black;font-family:-apple-system,&quot;SF Pro Display&quot;,&quot;SF Pro Text&quot;,Helvetica,sans-serif;" transform="matrix(1 0 0 1 263 1989)">For optimal layout with text and other symbols, vertically align</text>
  <text style="stroke:none;fill:black;font-family:-apple-system,&quot;SF Pro Display&quot;,&quot;SF Pro Text&quot;,Helvetica,sans-serif;" transform="matrix(1 0 0 1 263 2007)">symbols with the adjacent text.</text>
  <line id="" style="fill:none;stroke:#00AEEF;stroke-width:0.5;opacity:1.0;" x1="776" x2="776" y1="1919" y2="1933"/>
  <g id="" transform="matrix(1 0 0 1 776 1933)">
   <path d="M 3.31055 0.126953 C 3.82812 0.126953 4.08203 -0.0683594 4.26758 -0.605469 L 5.52734 -4.0625 L 11.2891 -4.0625 L 12.5488 -0.605469 C 12.7344 -0.0683594 12.9883 0.126953 13.4961 0.126953 C 14.0137 0.126953 14.3457 -0.185547 14.3457 -0.673828 C 14.3457 -0.839844 14.3164 -0.986328 14.2383 -1.20117 L 9.6582 -13.3887 C 9.43359 -13.9941 9.0332 -14.2871 8.4082 -14.2871 C 7.80273 -14.2871 7.39258 -13.9941 7.17773 -13.3984 L 2.59766 -1.19141 C 2.51953 -0.976562 2.49023 -0.830078 2.49023 -0.664062 C 2.49023 -0.175781 2.80273 0.126953 3.31055 0.126953 Z M 6.00586 -5.53711 L 8.37891 -12.1094 L 8.42773 -12.1094 L 10.8008 -5.53711 Z"/>
  </g>
  <line id="" style="fill:none;stroke:#00AEEF;stroke-width:0.5;opacity:1.0;" x1="792.836" x2="792.836" y1="1919" y2="1933"/>
  <text style="stroke:none;fill:black;font-family:-apple-system,&quot;SF Pro Display&quot;,&quot;SF Pro Text&quot;,Helvetica,sans-serif;font-weight:bold;" transform="matrix(1 0 0 1 776 1953)">Margins</text>
  <text style="stroke:none;fill:black;font-family:-apple-system,&quot;SF Pro Display&quot;,&quot;SF Pro Text&quot;,Helvetica,sans-serif;" transform="matrix(1 0 0 1 776 1971)">Leading and trailing margins on the left and right side of each symbol</text>
  <text style="stroke:none;fill:black;font-family:-apple-system,&quot;SF Pro Display&quot;,&quot;SF Pro Text&quot;,Helvetica,sans-serif;" transform="matrix(1 0 0 1 776 1989)">can be adjusted by modifying the x-location of the margin guidelines.</text>
  <text style="stroke:none;fill:black;font-family:-apple-system,&quot;SF Pro Display&quot;,&quot;SF Pro Text&quot;,Helvetica,sans-serif;" transform="matrix(1 0 0 1 776 2007)">Modifications are automatically applied proportionally to all</text>
  <text style="stroke:none;fill:black;font-family:-apple-system,&quot;SF Pro Display&quot;,&quot;SF Pro Text&quot;,Helvetica,sans-serif;" transform="matrix(1 0 0 1 776 2025)">scales and weights.</text>
  <g id="" transform="matrix(1 0 0 1 1289 1933)">
   <path d="M 2.8418 1.86523 L 4.54102 3.57422 C 5.40039 4.44336 6.38672 4.38477 7.31445 3.35938 L 17.4902 -7.85156 C 17.7539 -7.76367 18.0273 -7.7832 18.3398 -7.8418 L 19.4043 -8.03711 L 20.0684 -7.36328 L 20.0293 -6.80664 C 19.9902 -6.30859 20.1172 -5.92773 20.6055 -5.44922 L 21.3672 -4.70703 C 21.8457 -4.22852 22.4609 -4.19922 22.9297 -4.66797 L 25.8398 -7.58789 C 26.3086 -8.05664 26.2891 -8.65234 25.8105 -9.13086 L 25.0391 -9.89258 C 24.5605 -10.3711 24.1895 -10.5273 23.7109 -10.4883 L 23.1348 -10.4395 L 22.4902 -11.0742 L 22.7344 -12.1973 C 22.8613 -12.7637 22.7051 -13.2031 22.1191 -13.7891 L 19.9219 -15.9766 C 16.582 -19.2969 12.1484 -19.2188 9.25781 -16.3281 C 8.83789 -15.918 8.80859 -15.3418 9.04297 -14.9512 C 9.27734 -14.5898 9.73633 -14.3555 10.3809 -14.5215 C 11.8457 -14.8633 13.3691 -14.9219 14.7949 -13.9844 L 14.209 -12.5293 C 14.0137 -12.0508 13.9844 -11.6504 14.1113 -11.2891 L 3.04688 -0.898438 C 2.06055 0.0195312 1.98242 0.996094 2.8418 1.86523 Z M 10.752 -15.957 C 13.1836 -17.7344 16.4746 -17.4316 18.7012 -15.2051 L 21.1328 -12.793 C 21.3672 -12.5586 21.4062 -12.373 21.3379 -12.0312 L 21.0156 -10.5469 L 22.5195 -9.0625 L 23.5059 -9.12109 C 23.7598 -9.13086 23.8379 -9.11133 24.0332 -8.91602 L 24.6094 -8.33984 L 22.168 -5.89844 L 21.5918 -6.47461 C 21.3965 -6.66992 21.3672 -6.74805 21.377 -7.01172 L 21.4453 -7.98828 L 19.9512 -9.47266 L 18.4277 -9.21875 C 18.1055 -9.15039 17.959 -9.17969 17.7148 -9.41406 L 15.7129 -11.416 C 15.459 -11.6504 15.4297 -11.8164 15.5859 -12.1875 L 16.4648 -14.2773 C 14.9023 -15.7324 12.8711 -16.3574 10.8398 -15.7617 C 10.6836 -15.7227 10.625 -15.8496 10.752 -15.957 Z M 5.27344 2.30469 L 4.10156 1.14258 C 3.63281 0.683594 3.74023 0.341797 4.14062 -0.0195312 L 14.9512 -10.1953 L 16.416 -8.71094 L 6.42578 2.27539 C 6.07422 2.67578 5.74219 2.77344 5.27344 2.30469 Z"/>
  </g>
  <text style="stroke:none;fill:black;font-family:-apple-system,&quot;SF Pro Display&quot;,&quot;SF Pro Text&quot;,Helvetica,sans-serif;font-weight:bold;" transform="matrix(1 0 0 1 1289 1953)">Exporting</text>
  <text style="stroke:none;fill:black;font-family:-apple-system,&quot;SF Pro Display&quot;,&quot;SF Pro Text&quot;,Helvetica,sans-serif;" transform="matrix(1 0 0 1 1289 1971)">Symbols should be outlined when exporting to ensure the</text>
  <text style="stroke:none;fill:black;font-family:-apple-system,&quot;SF Pro Display&quot;,&quot;SF Pro Text&quot;,Helvetica,sans-serif;" transform="matrix(1 0 0 1 1289 1989)">design is preserved when submitting to Xcode.</text>
  <text id="template-version" style="stroke:none;fill:black;font-family:-apple-system,&quot;SF Pro Display&quot;,&quot;SF Pro Text&quot;,Helvetica,sans-serif;text-anchor:end;" transform="matrix(1 0 0 1 3036 1933)">Template v.2.0</text>
  <text style="stroke:none;fill:black;font-family:-apple-system,&quot;SF Pro Display&quot;,&quot;SF Pro Text&quot;,Helvetica,sans-serif;text-anchor:end;" transform="matrix(1 0 0 1 3036 1951)">Requires Xcode 12 or greater</text>
  <text style="stroke:none;fill:black;font-family:-apple-system,&quot;SF Pro Display&quot;,&quot;SF Pro Text&quot;,Helvetica,sans-serif;text-anchor:end;" transform="matrix(1 0 0 1 3036 1969)">Generated from staroflife.circle.fill</text>
  <text style="stroke:none;fill:black;font-family:-apple-system,&quot;SF Pro Display&quot;,&quot;SF Pro Text&quot;,Helvetica,sans-serif;text-anchor:end;" transform="matrix(1 0 0 1 3036 1987)">Typeset at 100 points</text>
  <text style="stroke:none;fill:black;font-family:-apple-system,&quot;SF Pro Display&quot;,&quot;SF Pro Text&quot;,Helvetica,sans-serif;" transform="matrix(1 0 0 1 263 726)">Small</text>
  <text style="stroke:none;fill:black;font-family:-apple-system,&quot;SF Pro Display&quot;,&quot;SF Pro Text&quot;,Helvetica,sans-serif;" transform="matrix(1 0 0 1 263 1156)">Medium</text>
  <text style="stroke:none;fill:black;font-family:-apple-system,&quot;SF Pro Display&quot;,&quot;SF Pro Text&quot;,Helvetica,sans-serif;" transform="matrix(1 0 0 1 263 1586)">Large</text>
 </g>
 <g id="Guides">
  <g id="H-reference" style="fill:#27AAE1;stroke:none;" transform="matrix(1 0 0 1 339 696)">
   <path d="M 0.976562 0 L 3.66211 0 L 12.9883 -24.4629 L 45.7031 -24.4629 L 55.0781 0 L 57.7148 0 L 30.6152 -70.459 L 28.125 -70.459 Z M 29.2969 -67.1387 L 29.3945 -67.1387 L 44.873 -26.709 L 13.8672 -26.709 Z"/>
  </g>
  <line id="Baseline-S" style="fill:none;stroke:#27AAE1;opacity:1;stroke-width:0.5;" x1="263" x2="3036" y1="696" y2="696"/>
  <line id="Capline-S" style="fill:none;stroke:#27AAE1;opacity:1;stroke-width:0.5;" x1="263" x2="3036" y1="625.541" y2="625.541"/>
  <g id="H-reference" style="fill:#27AAE1;stroke:none;" transform="matrix(1 0 0 1 339 1126)">
   <path d="M 0.976562 0 L 3.66211 0 L 12.9883 -24.4629 L 45.7031 -24.4629 L 55.0781 0 L 57.7148 0 L 30.6152 -70.459 L 28.125 -70.459 Z M 29.2969 -67.1387 L 29.3945 -67.1387 L 44.873 -26.709 L 13.8672 -26.709 Z"/>
  </g>
  <line id="Baseline-M" style="fill:none;stroke:#27AAE1;opacity:1;stroke-width:0.5;" x1="263" x2="3036" y1="1126" y2="1126"/>
  <line id="Capline-M" style="fill:none;stroke:#27AAE1;opacity:1;stroke-width:0.5;" x1="263" x2="3036" y1="1055.54" y2="1055.54"/>
  <g id="H-reference" style="fill:#27AAE1;stroke:none;" transform="matrix(1 0 0 1 339 1556)">
   <path d="M 0.976562 0 L 3.66211 0 L 12.9883 -24.4629 L 45.7031 -24.4629 L 55.0781 0 L 57.7148 0 L 30.6152 -70.459 L 28.125 -70.459 Z M 29.2969 -67.1387 L 29.3945 -67.1387 L 44.873 -26.709 L 13.8672 -26.709 Z"/>
  </g>
  <line id="Baseline-L" style="fill:none;stroke:#27AAE1;opacity:1;stroke-width:0.5;" x1="263" x2="3036" y1="1556" y2="1556"/>
  <line id="Capline-L" style="fill:none;stroke:#27AAE1;opacity:1;stroke-width:0.5;" x1="263" x2="3036" y1="1485.54" y2="1485.54"/>
  <line id="left-margin" style="fill:none;stroke:#00AEEF;stroke-width:0.5;opacity:1.0;" x1="1391.3" x2="1391.3" y1="1030.79" y2="1150.12"/>
  <line id="right-margin" style="fill:none;stroke:#00AEEF;stroke-width:0.5;opacity:1.0;" x1="1508.39" x2="1508.39" y1="1030.79" y2="1150.12"/>
 </g>
 <g id="Symbols">
  <g id="Black-L" transform="matrix(1 0 0 1 2854.05 1556)">
   <path d="M 79.3457 32.9102 C 116.748 32.9102 147.412 2.29492 147.412 -35.1074 C 147.412 -72.5586 116.748 -103.174 79.2969 -103.174 C 41.8945 -103.174 11.2793 -72.5586 11.2793 -35.1074 C 11.2793 2.29492 41.9434 32.9102 79.3457 32.9102 Z M 49.6094 -50.9277 L 50.9277 -53.125 C 53.2715 -57.2754 55.2246 -57.8125 59.4238 -55.3711 L 71.4844 -48.1445 L 71.4844 -62.5 C 71.4844 -67.0898 72.998 -68.6035 77.9785 -68.6035 L 80.6152 -68.6035 C 85.498 -68.6035 87.0117 -67.0898 87.0117 -62.5 L 87.0117 -48.1445 L 99.0723 -55.3711 C 103.271 -57.9102 105.225 -57.2754 107.617 -53.125 L 108.936 -50.9277 C 111.328 -46.7773 110.742 -44.7266 106.543 -42.4316 L 93.7988 -35.4492 L 106.592 -28.1738 C 110.596 -25.8789 111.084 -24.0723 108.74 -19.8242 L 107.422 -17.4805 C 105.127 -13.2812 103.125 -12.8418 99.1211 -15.1855 L 87.0117 -22.4121 L 87.0117 -7.91016 C 87.0117 -3.22266 85.498 -1.75781 80.6152 -1.75781 L 77.9785 -1.75781 C 72.9492 -1.75781 71.4355 -3.22266 71.4844 -7.8125 L 71.4844 -22.4121 L 59.4238 -15.1855 C 55.4199 -12.8906 53.5156 -13.3789 51.0742 -17.4805 L 49.8047 -19.8242 C 47.2656 -23.9746 47.8516 -25.9277 51.9531 -28.1738 L 64.6973 -35.4492 L 51.9531 -42.4316 C 47.8027 -44.7266 47.2168 -46.7285 49.6094 -50.9277 Z"/>
  </g>
  <g id="Heavy-L" transform="matrix(1 0 0 1 2558.39 1556)">
   <path d="M 78.2715 31.8848 C 115.088 31.8848 145.312 1.66016 145.312 -35.1562 C 145.312 -71.9238 115.039 -102.148 78.2715 -102.148 C 41.4551 -102.148 11.2793 -71.9238 11.2793 -35.1562 C 11.2793 1.66016 41.5039 31.8848 78.2715 31.8848 Z M 48.584 -51.123 L 49.6582 -52.9785 C 51.9043 -57.0312 53.8086 -57.5195 57.959 -55.1758 L 70.8984 -47.4609 L 70.8984 -62.793 C 70.8984 -67.2363 72.3633 -68.7012 77.1973 -68.7012 L 79.2969 -68.7012 C 84.082 -68.7012 85.5469 -67.2363 85.5469 -62.793 L 85.5469 -47.4609 L 98.4863 -55.1758 C 102.588 -57.6172 104.492 -57.0312 106.787 -52.9785 L 107.861 -51.123 C 110.156 -47.0703 109.57 -45.1172 105.566 -42.9199 L 91.9434 -35.4492 L 105.566 -27.6367 C 109.473 -25.4395 109.912 -23.6328 107.715 -19.4824 L 106.641 -17.627 C 104.443 -13.5254 102.49 -13.0371 98.5352 -15.3809 L 85.5469 -23.0957 L 85.5469 -7.66602 C 85.5469 -3.07617 84.082 -1.66016 79.2969 -1.66016 L 77.1973 -1.66016 C 72.3145 -1.66016 70.8496 -3.07617 70.8984 -7.61719 L 70.8984 -23.0957 L 57.9102 -15.3809 C 54.0039 -13.0859 52.0996 -13.623 49.7559 -17.627 L 48.7305 -19.4824 C 46.3379 -23.584 46.875 -25.4395 50.8789 -27.6367 L 64.502 -35.4492 L 50.8789 -42.9199 C 46.875 -45.0684 46.3379 -47.0215 48.584 -51.123 Z"/>
  </g>
  <g id="Bold-L" transform="matrix(1 0 0 1 2262.88 1556)">
   <path d="M 77.0996 30.6641 C 113.232 30.6641 142.92 0.927734 142.92 -35.1562 C 142.92 -71.2891 113.184 -100.977 77.0508 -100.977 C 40.9668 -100.977 11.2793 -71.2891 11.2793 -35.1562 C 11.2793 0.927734 41.0156 30.6641 77.0996 30.6641 Z M 47.4609 -51.416 L 48.2422 -52.7344 C 50.3418 -56.7871 52.2461 -57.2266 56.2988 -54.9316 L 70.2148 -46.7285 L 70.2148 -63.0859 C 70.2148 -67.4316 71.6797 -68.8477 76.3184 -68.8477 L 77.832 -68.8477 C 82.4219 -68.8477 83.8867 -67.4316 83.8867 -63.0859 L 83.8867 -46.7285 L 97.8027 -54.9316 C 101.855 -57.3242 103.711 -56.7383 105.859 -52.7344 L 106.641 -51.416 C 108.838 -47.4609 108.252 -45.5078 104.395 -43.457 L 89.7949 -35.498 L 104.443 -27.0508 C 108.154 -24.9512 108.643 -23.1445 106.494 -19.0918 L 105.762 -17.8223 C 103.662 -13.7695 101.758 -13.2812 97.9004 -15.625 L 83.8867 -23.8281 L 83.8867 -7.37305 C 83.8867 -2.92969 82.4219 -1.51367 77.832 -1.51367 L 76.3184 -1.51367 C 71.6309 -1.51367 70.2148 -2.92969 70.2148 -7.32422 L 70.2148 -23.8281 L 56.2012 -15.625 C 52.4414 -13.3789 50.5371 -13.8672 48.291 -17.8223 L 47.6074 -19.0918 C 45.3125 -23.0957 45.8008 -24.9023 49.6582 -27.0508 L 64.3066 -35.498 L 49.707 -43.457 C 45.8496 -45.5078 45.3125 -47.4121 47.4609 -51.416 Z"/>
  </g>
  <g id="Semibold-L" transform="matrix(1 0 0 1 1966.97 1556)">
   <path d="M 76.2695 29.834 C 111.914 29.834 141.309 0.439453 141.309 -35.1562 C 141.309 -70.8008 111.865 -100.195 76.2695 -100.195 C 40.625 -100.195 11.2793 -70.8008 11.2793 -35.1562 C 11.2793 0.439453 40.6738 29.834 76.2695 29.834 Z M 46.6797 -51.6113 L 47.2656 -52.6367 C 49.3164 -56.5918 51.1719 -57.0312 55.127 -54.7363 L 69.7754 -46.1914 L 69.7754 -63.2812 C 69.7754 -67.5293 71.1914 -68.9453 75.7324 -68.9453 L 76.8555 -68.9453 C 81.2988 -68.9453 82.7148 -67.5293 82.7148 -63.2812 L 82.7148 -46.1914 L 97.3633 -54.7363 C 101.318 -57.1289 103.174 -56.543 105.225 -52.6367 L 105.811 -51.6113 C 107.91 -47.7051 107.373 -45.8496 103.613 -43.7988 L 88.3301 -35.498 L 103.711 -26.6602 C 107.275 -24.5605 107.715 -22.8027 105.713 -18.8477 L 105.176 -17.9199 C 103.125 -13.9648 101.27 -13.4277 97.4121 -15.7715 L 82.7148 -24.3164 L 82.7148 -7.17773 C 82.7148 -2.83203 81.2988 -1.46484 76.8555 -1.46484 L 75.7324 -1.46484 C 71.1426 -1.46484 69.7266 -2.83203 69.7754 -7.12891 L 69.7754 -24.3164 L 55.0781 -15.7715 C 51.3184 -13.5254 49.5117 -14.0137 47.3145 -17.9199 L 46.7773 -18.8477 C 44.5801 -22.7539 45.0684 -24.5605 48.7793 -26.6602 L 64.1602 -35.498 L 48.877 -43.7988 C 45.1172 -45.8008 44.6289 -47.6562 46.6797 -51.6113 Z"/>
  </g>
  <g id="Medium-L" transform="matrix(1 0 0 1 1670.87 1556)">
   <path d="M 75.6836 29.1992 C 110.938 29.1992 140.088 0.0976562 140.088 -35.1562 C 140.088 -70.459 110.889 -99.5605 75.6348 -99.5605 C 40.3809 -99.5605 11.2793 -70.459 11.2793 -35.1562 C 11.2793 0.0976562 40.3809 29.1992 75.6836 29.1992 Z M 46.0938 -51.7578 L 46.5332 -52.4902 C 48.4863 -56.4453 50.3418 -56.8848 54.248 -54.6387 L 69.3848 -45.8008 L 69.3848 -63.4766 C 69.3848 -67.627 70.8008 -68.9941 75.2441 -68.9941 L 76.0742 -68.9941 C 80.4688 -68.9941 81.8848 -67.627 81.8848 -63.4766 L 81.8848 -45.8008 L 97.0215 -54.6387 C 100.928 -56.9824 102.783 -56.4453 104.736 -52.4902 L 105.176 -51.7578 C 107.178 -47.9004 106.689 -46.0449 103.027 -44.0918 L 87.2559 -35.498 L 103.125 -26.3672 C 106.641 -24.3164 107.08 -22.5586 105.078 -18.6523 L 104.688 -18.0176 C 102.686 -14.0625 100.879 -13.5742 97.0703 -15.8691 L 81.8848 -24.707 L 81.8848 -7.03125 C 81.8848 -2.73438 80.4688 -1.41602 76.0742 -1.41602 L 75.2441 -1.41602 C 70.8008 -1.41602 69.3848 -2.73438 69.3848 -6.98242 L 69.3848 -24.707 L 54.1992 -15.8691 C 50.4883 -13.6719 48.6816 -14.1602 46.5332 -18.0176 L 46.1914 -18.6523 C 44.043 -22.5098 44.5312 -24.2676 48.1445 -26.3672 L 64.0137 -35.498 L 48.2422 -44.0918 C 44.5801 -46.0449 44.0918 -47.8516 46.0938 -51.7578 Z"/>
  </g>
  <g id="Regular-L" transform="matrix(1 0 0 1 1374.97 1556)">
   <path d="M 74.8535 28.418 C 109.668 28.418 138.477 -0.390625 138.477 -35.2051 C 138.477 -69.9707 109.619 -98.7793 74.8047 -98.7793 C 40.0391 -98.7793 11.2793 -69.9707 11.2793 -35.2051 C 11.2793 -0.390625 40.0879 28.418 74.8535 28.418 Z M 45.3125 -51.9043 L 45.5566 -52.3438 C 47.4609 -56.25 49.2676 -56.6895 53.125 -54.4922 L 68.9453 -45.2637 L 68.9453 -63.6719 C 68.9453 -67.7734 70.3125 -69.0918 74.6582 -69.0918 L 75.0977 -69.0918 C 79.3457 -69.0918 80.7129 -67.7734 80.7129 -63.6719 L 80.7129 -45.2637 L 96.5332 -54.4922 C 100.439 -56.7383 102.246 -56.25 104.102 -52.3438 L 104.346 -51.9043 C 106.299 -48.1445 105.811 -46.3379 102.246 -44.4336 L 85.791 -35.5469 L 102.344 -25.9766 C 105.762 -23.9746 106.201 -22.2168 104.297 -18.4082 L 104.102 -18.1152 C 102.148 -14.2578 100.391 -13.7207 96.6309 -16.0156 L 80.7129 -25.1953 L 80.7129 -6.83594 C 80.7129 -2.63672 79.3457 -1.31836 75.0977 -1.31836 L 74.6582 -1.31836 C 70.3125 -1.31836 68.9453 -2.63672 68.9453 -6.83594 L 68.9453 -25.1953 L 53.0273 -16.0156 C 49.4141 -13.8184 47.6074 -14.3066 45.5566 -18.1152 L 45.4102 -18.4082 C 43.3105 -22.168 43.7988 -23.9258 47.3145 -25.9766 L 63.8672 -35.5469 L 47.4121 -44.4336 C 43.8477 -46.3379 43.4082 -48.0957 45.3125 -51.9043 Z"/>
  </g>
  <g id="Light-L" transform="matrix(1 0 0 1 1079.18 1556)">
   <path d="M 73.9258 27.4902 C 108.301 27.4902 136.621 -0.830078 136.621 -35.2051 C 136.621 -69.5312 108.252 -97.8516 73.9258 -97.8516 C 39.5508 -97.8516 11.2793 -69.5312 11.2793 -35.2051 C 11.2793 -0.830078 39.5996 27.4902 73.9258 27.4902 Z M 45.3125 -51.416 L 45.5566 -51.8555 C 47.3633 -55.5176 48.9258 -55.9082 52.4902 -53.8086 L 68.5059 -44.5312 L 68.5059 -63.0859 C 68.5059 -66.8945 69.7266 -68.0664 73.7305 -68.0664 L 74.1699 -68.0664 C 78.125 -68.0664 79.2969 -66.8945 79.2969 -63.0859 L 79.2969 -44.5312 L 95.3613 -53.8086 C 98.9746 -55.9082 100.488 -55.4688 102.246 -51.8555 L 102.49 -51.416 C 104.297 -47.9492 103.857 -46.3867 100.586 -44.5801 L 83.9844 -35.5957 L 100.635 -25.9277 C 103.809 -24.0723 104.199 -22.5098 102.441 -18.9941 L 102.246 -18.75 C 100.439 -15.0879 98.9258 -14.6484 95.4102 -16.7969 L 79.2969 -26.0254 L 79.2969 -7.51953 C 79.2969 -3.61328 78.125 -2.49023 74.1699 -2.49023 L 73.7305 -2.49023 C 69.7266 -2.49023 68.5059 -3.61328 68.5059 -7.51953 L 68.5059 -26.0254 L 52.3926 -16.7969 C 49.0234 -14.7461 47.4609 -15.1367 45.5566 -18.75 L 45.4102 -18.9941 C 43.457 -22.5098 43.8965 -24.0234 47.168 -25.9277 L 63.8672 -35.5957 L 47.2656 -44.5801 C 43.9941 -46.3379 43.5547 -47.9004 45.3125 -51.416 Z"/>
  </g>
  <g id="Thin-L" transform="matrix(1 0 0 1 783.693 1556)">
   <path d="M 72.7051 26.2695 C 106.494 26.2695 134.18 -1.41602 134.18 -35.2051 C 134.18 -68.9453 106.494 -96.6309 72.7051 -96.6309 C 38.9648 -96.6309 11.2793 -68.9453 11.2793 -35.2051 C 11.2793 -1.41602 38.9648 26.2695 72.7051 26.2695 Z M 45.3613 -50.7812 L 45.6055 -51.2207 C 47.2168 -54.5898 48.4375 -54.834 51.6113 -52.8809 L 67.9199 -43.5547 L 67.9199 -62.3535 C 67.9199 -65.7227 68.8965 -66.6504 72.4609 -66.6504 L 72.9492 -66.6504 C 76.5137 -66.6504 77.4414 -65.7227 77.4414 -62.3535 L 77.4414 -43.5547 L 93.7988 -52.8809 C 97.0215 -54.7852 98.2422 -54.4434 99.8047 -51.2207 L 100.049 -50.7812 C 101.611 -47.7051 101.27 -46.4355 98.291 -44.7754 L 81.543 -35.6445 L 98.3887 -25.8789 C 101.27 -24.1699 101.611 -22.9492 99.9512 -19.7754 L 99.8047 -19.5312 C 98.1445 -16.2109 96.9238 -15.8691 93.7988 -17.8711 L 77.4414 -27.1484 L 77.4414 -8.39844 C 77.4414 -4.93164 76.5137 -4.00391 72.9492 -4.00391 L 72.4609 -4.00391 C 68.8965 -4.00391 67.9199 -4.93164 67.9199 -8.39844 L 67.9199 -27.1484 L 51.6113 -17.8711 C 48.4863 -15.918 47.2656 -16.2598 45.6055 -19.5312 L 45.4102 -19.7754 C 43.7012 -22.9492 44.043 -24.2188 47.0215 -25.8789 L 63.8672 -35.6445 L 47.0703 -44.7754 C 44.0918 -46.3379 43.75 -47.6562 45.3613 -50.7812 Z"/>
  </g>
  <g id="Ultralight-L" transform="matrix(1 0 0 1 487.616 1556)">
   <path d="M 72.1191 25.6348 C 105.566 25.6348 132.91 -1.70898 132.91 -35.2051 C 132.91 -68.6523 105.566 -95.9961 72.1191 -95.9961 C 38.623 -95.9961 11.2793 -68.6523 11.2793 -35.2051 C 11.2793 -1.70898 38.623 25.6348 72.1191 25.6348 Z M 45.3613 -50.4883 L 45.6055 -50.8789 C 47.168 -54.1016 48.1934 -54.2969 51.1719 -52.3926 L 67.627 -43.0664 L 67.627 -61.9629 C 67.627 -65.1367 68.457 -65.9668 71.8262 -65.9668 L 72.3145 -65.9668 C 75.6836 -65.9668 76.5137 -65.1367 76.5137 -61.9629 L 76.5137 -43.0664 L 92.9688 -52.3926 C 95.9961 -54.1992 97.0703 -53.9062 98.5352 -50.8789 L 98.7793 -50.4883 C 100.244 -47.6074 99.9512 -46.4844 97.168 -44.873 L 80.2734 -35.6934 L 97.2168 -25.8301 C 99.9512 -24.2188 100.293 -23.1445 98.7305 -20.166 L 98.5352 -19.9707 C 96.9727 -16.7969 95.9473 -16.5039 92.9688 -18.4082 L 76.5137 -27.7344 L 76.5137 -8.88672 C 76.5137 -5.61523 75.6836 -4.78516 72.3145 -4.78516 L 71.8262 -4.78516 C 68.457 -4.78516 67.627 -5.61523 67.627 -8.88672 L 67.627 -27.7344 L 51.1719 -18.4082 C 48.1934 -16.5039 47.168 -16.7969 45.6055 -19.9707 L 45.459 -20.166 C 43.7988 -23.1445 44.0918 -24.3164 46.9238 -25.8301 L 63.8672 -35.6934 L 46.9727 -44.873 C 44.1895 -46.3867 43.8965 -47.5098 45.3613 -50.4883 Z"/>
  </g>
  <g id="Black-M" transform="matrix(1 0 0 1 2870.97 1126)">
   <path d="M 62.4023 18.5547 C 91.9922 18.5547 116.113 -5.56641 116.113 -35.1562 C 116.113 -64.7461 91.9922 -88.8184 62.4023 -88.8184 C 32.8125 -88.8184 8.74023 -64.7461 8.74023 -35.1562 C 8.74023 -5.56641 32.8125 18.5547 62.4023 18.5547 Z M 39.7949 -46.8262 L 41.2109 -49.0723 C 43.0664 -52.2949 44.5312 -52.6367 47.7539 -50.7812 L 56.0059 -45.752 L 56.0059 -55.7129 C 56.0059 -59.2773 57.1289 -60.4004 60.9863 -60.4004 L 63.7207 -60.4004 C 67.627 -60.4004 68.7012 -59.2773 68.7012 -55.7129 L 68.7012 -45.752 L 77.002 -50.7812 C 80.1758 -52.6855 81.5918 -52.1973 83.5449 -49.0723 L 84.9121 -46.8262 C 86.8652 -43.6523 86.377 -42.0898 83.0566 -40.2832 L 74.3164 -35.4004 L 83.0566 -30.4688 C 86.2305 -28.6621 86.6211 -27.3438 84.7168 -24.0234 L 83.3496 -21.6309 C 81.543 -18.3594 80.0293 -18.0664 77.002 -19.873 L 68.7012 -24.9023 L 68.7012 -14.7461 C 68.7012 -11.1328 67.627 -10.0098 63.7207 -10.0098 L 60.9863 -10.0098 C 57.0801 -10.0098 55.957 -11.1328 56.0059 -14.6973 L 56.0059 -24.9023 L 47.7539 -19.873 C 44.6289 -18.0664 43.2617 -18.457 41.3574 -21.6309 L 39.9902 -24.0234 C 37.9883 -27.2949 38.4277 -28.7109 41.6992 -30.4688 L 50.4395 -35.4004 L 41.6992 -40.2832 C 38.3789 -42.0898 37.9395 -43.5547 39.7949 -46.8262 Z"/>
  </g>
  <g id="Heavy-M" transform="matrix(1 0 0 1 2575.19 1126)">
   <path d="M 61.5234 17.627 C 90.5273 17.627 114.258 -6.10352 114.258 -35.1562 C 114.258 -64.1602 90.5273 -87.8906 61.4746 -87.8906 C 32.4707 -87.8906 8.74023 -64.1602 8.74023 -35.1562 C 8.74023 -6.10352 32.4707 17.627 61.5234 17.627 Z M 38.7207 -47.168 L 39.7949 -49.0234 C 41.6016 -52.1973 43.0664 -52.5879 46.2891 -50.7324 L 55.4688 -45.2148 L 55.4688 -56.1523 C 55.4688 -59.668 56.5918 -60.791 60.4004 -60.791 L 62.5488 -60.791 C 66.3086 -60.791 67.4805 -59.668 67.4805 -56.1523 L 67.4805 -45.2148 L 76.6113 -50.7324 C 79.7852 -52.6367 81.25 -52.1484 83.1055 -49.0234 L 84.2285 -47.168 C 86.084 -44.043 85.5957 -42.4805 82.373 -40.7227 L 72.7051 -35.4004 L 82.4219 -29.8828 C 85.498 -28.125 85.8398 -26.7578 84.082 -23.5352 L 82.959 -21.6309 C 81.2012 -18.4082 79.6875 -18.0664 76.6602 -19.873 L 67.4805 -25.3906 L 67.4805 -14.3066 C 67.4805 -10.7422 66.3086 -9.61914 62.5488 -9.61914 L 60.4004 -9.61914 C 56.543 -9.61914 55.4199 -10.7422 55.4688 -14.2578 L 55.4688 -25.3906 L 46.2891 -19.873 C 43.2129 -18.0664 41.7969 -18.457 39.8926 -21.6309 L 38.8672 -23.5352 C 36.9141 -26.709 37.3535 -28.1738 40.5273 -29.8828 L 50.2441 -35.4004 L 40.5273 -40.7227 C 37.3047 -42.4805 36.9141 -43.9941 38.7207 -47.168 Z"/>
  </g>
  <g id="Bold-M" transform="matrix(1 0 0 1 2279.5 1126)">
   <path d="M 60.498 16.5527 C 88.8672 16.5527 112.207 -6.73828 112.207 -35.1562 C 112.207 -63.5742 88.8672 -86.9141 60.4492 -86.9141 C 32.0312 -86.9141 8.74023 -63.5742 8.74023 -35.1562 C 8.74023 -6.73828 32.0801 16.5527 60.498 16.5527 Z M 37.4512 -47.6074 L 38.2812 -48.9258 C 39.9902 -52.0996 41.4551 -52.4902 44.6289 -50.6348 L 54.834 -44.6289 L 54.834 -56.6406 C 54.834 -60.1074 56.0059 -61.2305 59.7168 -61.2305 L 61.2305 -61.2305 C 64.8926 -61.2305 66.0645 -60.1074 66.0645 -56.6406 L 66.0645 -44.6289 L 76.2207 -50.6348 C 79.3945 -52.5391 80.9082 -52.0996 82.6172 -48.9258 L 83.4473 -47.6074 C 85.2051 -44.4824 84.7168 -42.9688 81.6406 -41.2598 L 70.8984 -35.4004 L 81.6895 -29.248 C 84.668 -27.5391 85.0098 -26.1719 83.3008 -22.9492 L 82.5195 -21.6309 C 80.8594 -18.457 79.3457 -18.0664 76.2695 -19.873 L 66.0645 -25.9277 L 66.0645 -13.7695 C 66.0645 -10.3027 64.8926 -9.17969 61.2305 -9.17969 L 59.7168 -9.17969 C 55.957 -9.17969 54.834 -10.3027 54.834 -13.7695 L 54.834 -25.9277 L 44.6289 -19.873 C 41.6016 -18.1152 40.1367 -18.5059 38.3301 -21.6309 L 37.5977 -22.9492 C 35.7422 -26.0742 36.1816 -27.5391 39.209 -29.248 L 49.9512 -35.4004 L 39.2578 -41.2598 C 36.1816 -42.9199 35.7422 -44.4336 37.4512 -47.6074 Z"/>
  </g>
  <g id="Semibold-M" transform="matrix(1 0 0 1 1983.5 1126)">
   <path d="M 59.7656 15.8691 C 87.7441 15.8691 110.791 -7.22656 110.791 -35.1562 C 110.791 -63.1348 87.6953 -86.2305 59.7656 -86.2305 C 31.7871 -86.2305 8.74023 -63.1348 8.74023 -35.1562 C 8.74023 -7.22656 31.7871 15.8691 59.7656 15.8691 Z M 36.6211 -47.9004 L 37.207 -48.877 C 38.8184 -52.0508 40.332 -52.4414 43.5059 -50.5859 L 54.4434 -44.1895 L 54.4434 -56.9824 C 54.4434 -60.4004 55.5664 -61.5234 59.2285 -61.5234 L 60.3516 -61.5234 C 63.916 -61.5234 65.0879 -60.4004 65.0879 -56.9824 L 65.0879 -44.1895 L 75.9766 -50.5859 C 79.1504 -52.4902 80.6641 -52.0508 82.3242 -48.877 L 82.8613 -47.9004 C 84.5703 -44.8242 84.1309 -43.2617 81.1523 -41.6504 L 69.6777 -35.4004 L 81.1523 -28.8086 C 84.082 -27.1484 84.4238 -25.7324 82.7637 -22.5586 L 82.2266 -21.6309 C 80.6152 -18.457 79.1016 -18.0664 76.0254 -19.873 L 65.0879 -26.3184 L 65.0879 -13.4277 C 65.0879 -9.96094 63.916 -8.83789 60.3516 -8.83789 L 59.2285 -8.83789 C 55.5664 -8.83789 54.3945 -9.96094 54.4434 -13.4277 L 54.4434 -26.3184 L 43.457 -19.873 C 40.4785 -18.1152 39.0137 -18.5059 37.207 -21.6309 L 36.7188 -22.5586 C 34.9121 -25.6836 35.3516 -27.0996 38.3301 -28.8086 L 49.8047 -35.4004 L 38.3789 -41.6504 C 35.3516 -43.2617 34.9609 -44.7754 36.6211 -47.9004 Z"/>
  </g>
  <g id="Medium-M" transform="matrix(1 0 0 1 1687.3 1126)">
   <path d="M 59.2285 15.332 C 86.9141 15.332 109.766 -7.51953 109.766 -35.2051 C 109.766 -62.8418 86.8652 -85.6934 59.1797 -85.6934 C 31.543 -85.6934 8.74023 -62.8418 8.74023 -35.2051 C 8.74023 -7.51953 31.5918 15.332 59.2285 15.332 Z M 35.9863 -48.1445 L 36.377 -48.8281 C 37.9883 -52.002 39.502 -52.3926 42.6758 -50.5859 L 54.1016 -43.8477 L 54.1016 -57.2754 C 54.1016 -60.6445 55.2734 -61.7676 58.8867 -61.7676 L 59.6191 -61.7676 C 63.1836 -61.7676 64.3555 -60.6445 64.3555 -57.2754 L 64.3555 -43.8477 L 75.7812 -50.5859 C 78.9551 -52.4414 80.4688 -52.002 82.0801 -48.8281 L 82.4707 -48.1445 C 84.1309 -45.0195 83.6914 -43.5059 80.7617 -41.9434 L 68.75 -35.4004 L 80.8105 -28.5156 C 83.6426 -26.8555 83.9844 -25.3906 82.373 -22.2656 L 82.0312 -21.6309 C 80.4199 -18.457 78.9062 -18.0664 75.8301 -19.873 L 64.3555 -26.6113 L 64.3555 -13.1836 C 64.3555 -9.7168 63.1836 -8.59375 59.6191 -8.59375 L 58.8867 -8.59375 C 55.2734 -8.59375 54.1016 -9.7168 54.1016 -13.1836 L 54.1016 -26.6113 L 42.5781 -19.873 C 39.6484 -18.1152 38.1348 -18.5059 36.377 -21.6309 L 36.0352 -22.2656 C 34.2773 -25.3418 34.7168 -26.8066 37.6465 -28.5156 L 49.6582 -35.4004 L 37.6953 -41.9434 C 34.7656 -43.5059 34.3262 -45.0195 35.9863 -48.1445 Z"/>
  </g>
  <g id="Regular-M" transform="matrix(1 0 0 1 1391.3 1126)">
   <path d="M 58.5449 14.5996 C 85.791 14.5996 108.35 -7.95898 108.35 -35.2051 C 108.35 -62.4023 85.7422 -85.0098 58.4961 -85.0098 C 31.2988 -85.0098 8.74023 -62.4023 8.74023 -35.2051 C 8.74023 -7.95898 31.3477 14.5996 58.5449 14.5996 Z M 35.1074 -48.4375 L 35.3027 -48.7793 C 36.8652 -51.9531 38.4277 -52.2949 41.5527 -50.5371 L 53.6621 -43.457 L 53.6621 -57.5684 C 53.6621 -60.9375 54.834 -62.0605 58.3984 -62.0605 L 58.7402 -62.0605 C 62.207 -62.0605 63.3789 -60.9375 63.3789 -57.5684 L 63.3789 -43.457 L 75.4883 -50.5371 C 78.6621 -52.3926 80.2246 -51.9531 81.7383 -48.7793 L 81.9336 -48.4375 C 83.4961 -45.3613 83.1055 -43.8477 80.2246 -42.2852 L 67.5293 -35.4492 L 80.2734 -28.0762 C 83.0566 -26.4648 83.3984 -24.9512 81.8848 -21.875 L 81.7383 -21.6309 C 80.1758 -18.5059 78.6621 -18.0664 75.5859 -19.873 L 63.3789 -26.9531 L 63.3789 -12.8418 C 63.3789 -9.42383 62.207 -8.30078 58.7402 -8.30078 L 58.3984 -8.30078 C 54.834 -8.30078 53.6621 -9.42383 53.6621 -12.8418 L 53.6621 -26.9531 L 41.4551 -19.873 C 38.5742 -18.1641 37.0117 -18.5547 35.3027 -21.6309 L 35.2051 -21.875 C 33.4961 -24.9023 33.8867 -26.3672 36.7676 -28.0762 L 49.5117 -35.4492 L 36.8164 -42.2852 C 33.9355 -43.7988 33.5449 -45.3125 35.1074 -48.4375 Z"/>
  </g>
  <g id="Light-M" transform="matrix(1 0 0 1 1095.42 1126)">
   <path d="M 57.7148 13.7695 C 84.5215 13.7695 106.689 -8.34961 106.689 -35.2051 C 106.689 -62.0117 84.5215 -84.1797 57.666 -84.1797 C 30.8594 -84.1797 8.74023 -62.0117 8.74023 -35.2051 C 8.74023 -8.34961 30.9082 13.7695 57.7148 13.7695 Z M 35.1562 -47.998 L 35.3027 -48.3398 C 36.7676 -51.2695 38.0859 -51.6113 40.9668 -49.9023 L 53.2715 -42.7734 L 53.2715 -57.0801 C 53.2715 -60.1562 54.2969 -61.1328 57.5684 -61.1328 L 57.9102 -61.1328 C 61.084 -61.1328 62.1094 -60.1562 62.1094 -57.0801 L 62.1094 -42.7734 L 74.4141 -49.9023 C 77.3438 -51.6602 78.6621 -51.2695 80.0781 -48.3398 L 80.2734 -47.998 C 81.6895 -45.166 81.3477 -43.8477 78.7109 -42.4316 L 65.918 -35.498 L 78.7598 -28.0273 C 81.3477 -26.5137 81.6406 -25.2441 80.2246 -22.4121 L 80.0781 -22.168 C 78.6133 -19.2383 77.3438 -18.8965 74.5117 -20.6055 L 62.1094 -27.7344 L 62.1094 -13.4277 C 62.1094 -10.3027 61.084 -9.32617 57.9102 -9.32617 L 57.5684 -9.32617 C 54.2969 -9.32617 53.2715 -10.3027 53.2715 -13.4277 L 53.2715 -27.7344 L 40.918 -20.6055 C 38.1836 -18.9453 36.8652 -19.2871 35.3027 -22.168 L 35.2051 -22.4121 C 33.6426 -25.1953 33.9844 -26.5137 36.6211 -28.0273 L 49.5117 -35.498 L 36.7188 -42.4316 C 34.0332 -43.8477 33.6914 -45.166 35.1562 -47.998 Z"/>
  </g>
  <g id="Thin-M" transform="matrix(1 0 0 1 799.806 1126)">
   <path d="M 56.6406 12.6953 C 82.9102 12.6953 104.492 -8.88672 104.492 -35.2051 C 104.492 -61.4746 82.9102 -83.0566 56.5918 -83.0566 C 30.3223 -83.0566 8.74023 -61.4746 8.74023 -35.2051 C 8.74023 -8.88672 30.3223 12.6953 56.6406 12.6953 Z M 35.1562 -47.4121 L 35.3516 -47.7539 C 36.6211 -50.4395 37.6465 -50.6836 40.1855 -49.1211 L 52.7832 -41.8945 L 52.7832 -56.3965 C 52.7832 -59.1309 53.5645 -59.9121 56.4453 -59.9121 L 56.7871 -59.9121 C 59.668 -59.9121 60.4492 -59.1309 60.4492 -56.3965 L 60.4492 -41.8945 L 73.0469 -49.1211 C 75.5859 -50.6348 76.6113 -50.3418 77.8809 -47.7539 L 78.0762 -47.4121 C 79.3457 -44.9707 79.0527 -43.8965 76.6602 -42.5781 L 63.7207 -35.5469 L 76.7578 -27.9785 C 79.0527 -26.6113 79.2969 -25.6348 78.0273 -23.0957 L 77.8809 -22.9004 C 76.5625 -20.2637 75.5371 -19.9707 73.0469 -21.5332 L 60.4492 -28.7598 L 60.4492 -14.2578 C 60.4492 -11.4746 59.668 -10.6934 56.7871 -10.6934 L 56.4453 -10.6934 C 53.5645 -10.6934 52.7832 -11.4746 52.7832 -14.2578 L 52.7832 -28.7598 L 40.1855 -21.5332 C 37.6953 -19.9707 36.6699 -20.2637 35.3516 -22.9004 L 35.2051 -23.0957 C 33.8379 -25.5859 34.082 -26.6602 36.4746 -27.9785 L 49.5117 -35.5469 L 36.5234 -42.5781 C 34.1797 -43.8477 33.8867 -44.9219 35.1562 -47.4121 Z"/>
  </g>
  <g id="Ultralight-M" transform="matrix(1 0 0 1 503.656 1126)">
   <path d="M 56.0547 12.1094 C 82.0801 12.1094 103.369 -9.17969 103.369 -35.2051 C 103.369 -61.2305 82.0801 -82.5195 56.0547 -82.5195 C 30.0293 -82.5195 8.74023 -61.2305 8.74023 -35.2051 C 8.74023 -9.17969 30.0293 12.1094 56.0547 12.1094 Z M 35.1562 -47.1191 L 35.3516 -47.4609 C 36.5723 -50 37.4512 -50.1953 39.7949 -48.6816 L 52.5391 -41.4551 L 52.5391 -56.0547 C 52.5391 -58.5938 53.1738 -59.2773 55.8594 -59.2773 L 56.25 -59.2773 C 58.8867 -59.2773 59.5703 -58.5938 59.5703 -56.0547 L 59.5703 -41.4551 L 72.3145 -48.6816 C 74.707 -50.0977 75.5859 -49.8535 76.7578 -47.4609 L 76.9531 -47.1191 C 78.125 -44.873 77.8809 -43.9453 75.6348 -42.6758 L 62.5977 -35.5957 L 75.6836 -27.9785 C 77.8809 -26.6602 78.125 -25.7812 76.9043 -23.4375 L 76.7578 -23.2422 C 75.5371 -20.8008 74.6582 -20.5566 72.3145 -22.0215 L 59.5703 -29.248 L 59.5703 -14.6484 C 59.5703 -12.0605 58.8867 -11.377 56.25 -11.377 L 55.8594 -11.377 C 53.1738 -11.377 52.5391 -12.0605 52.5391 -14.6484 L 52.5391 -29.248 L 39.7949 -22.0215 C 37.4512 -20.5566 36.5723 -20.8008 35.3516 -23.2422 L 35.2051 -23.4375 C 33.9355 -25.7812 34.1797 -26.709 36.377 -27.9785 L 49.4629 -35.5957 L 36.4746 -42.6758 C 34.2285 -43.8477 33.9844 -44.7754 35.1562 -47.1191 Z"/>
  </g>
  <g id="Black-S" transform="matrix(1 0 0 1 2884.57 696)">
   <path d="M 48.8281 6.83594 C 71.9727 6.83594 90.8203 -12.0117 90.8203 -35.1562 C 90.8203 -58.3008 71.9727 -77.1484 48.8281 -77.1484 C 25.6836 -77.1484 6.83594 -58.3008 6.83594 -35.1562 C 6.83594 -12.0117 25.6836 6.83594 48.8281 6.83594 Z M 31.1035 -44.3359 L 32.1777 -46.0938 C 33.6426 -48.584 34.7656 -48.877 37.3047 -47.4121 L 43.8477 -43.457 L 43.8477 -51.3184 C 43.8477 -54.1016 44.7266 -54.9805 47.7539 -54.9805 L 49.8535 -54.9805 C 52.8809 -54.9805 53.7598 -54.1016 53.7598 -51.3184 L 53.7598 -43.457 L 60.3027 -47.4121 C 62.793 -48.9258 63.916 -48.5352 65.4297 -46.0938 L 66.5039 -44.3359 C 68.0176 -41.8457 67.627 -40.625 65.0391 -39.209 L 58.1055 -35.3516 L 65.0391 -31.4453 C 67.5293 -30.0293 67.8223 -29.0039 66.3574 -26.416 L 65.2832 -24.5605 C 63.8672 -22.0215 62.6953 -21.7773 60.3027 -23.1934 L 53.7598 -27.1484 L 53.7598 -19.1406 C 53.7598 -16.3086 52.8809 -15.4297 49.8535 -15.4297 L 47.7539 -15.4297 C 44.6777 -15.4297 43.7988 -16.3086 43.8477 -19.0918 L 43.8477 -27.1484 L 37.3047 -23.1934 C 34.8633 -21.7773 33.7891 -22.0703 32.2754 -24.5605 L 31.25 -26.416 C 29.6875 -28.9551 30.0293 -30.0781 32.5684 -31.4453 L 39.502 -35.3516 L 32.5684 -39.209 C 29.9805 -40.625 29.6387 -41.7969 31.1035 -44.3359 Z"/>
  </g>
  <g id="Heavy-S" transform="matrix(1 0 0 1 2588.47 696)">
   <path d="M 48.2422 6.20117 C 70.9961 6.20117 89.5996 -12.4023 89.5996 -35.1562 C 89.5996 -57.9102 70.9961 -76.5625 48.1934 -76.5625 C 25.4395 -76.5625 6.83594 -57.9102 6.83594 -35.1562 C 6.83594 -12.4023 25.4395 6.20117 48.2422 6.20117 Z M 30.2246 -44.6777 L 31.1035 -46.0938 C 32.5195 -48.584 33.6914 -48.877 36.2305 -47.4121 L 43.457 -43.1152 L 43.457 -51.709 C 43.457 -54.4922 44.3848 -55.3711 47.3633 -55.3711 L 49.0234 -55.3711 C 52.002 -55.3711 52.9297 -54.4922 52.9297 -51.709 L 52.9297 -43.1152 L 60.1562 -47.4121 C 62.6465 -48.9746 63.8184 -48.584 65.2832 -46.0938 L 66.1133 -44.6777 C 67.5781 -42.1875 67.2363 -40.918 64.6973 -39.5508 L 57.0312 -35.3516 L 64.6973 -31.0059 C 67.1387 -29.6387 67.4316 -28.5645 66.0156 -25.9766 L 65.1855 -24.5117 C 63.7695 -21.9727 62.5977 -21.6797 60.1562 -23.0957 L 52.9297 -27.4414 L 52.9297 -18.7012 C 52.9297 -15.918 52.002 -14.9902 49.0234 -14.9902 L 47.3633 -14.9902 C 44.3359 -14.9902 43.4082 -15.918 43.457 -18.7012 L 43.457 -27.4414 L 36.2305 -23.0957 C 33.7891 -21.6797 32.666 -22.0215 31.1523 -24.5117 L 30.3711 -25.9766 C 28.8574 -28.5156 29.1992 -29.6387 31.6895 -31.0059 L 39.3066 -35.3516 L 31.6895 -39.5508 C 29.1504 -40.918 28.8086 -42.1387 30.2246 -44.6777 Z"/>
  </g>
  <g id="Bold-S" transform="matrix(1 0 0 1 2292.44 696)">
   <path d="M 47.5586 5.51758 C 69.873 5.51758 88.2324 -12.8418 88.2324 -35.2051 C 88.2324 -57.5195 69.873 -75.8789 47.5098 -75.8789 C 25.1953 -75.8789 6.83594 -57.5195 6.83594 -35.2051 C 6.83594 -12.8418 25.1953 5.51758 47.5586 5.51758 Z M 29.2969 -45.0684 L 29.8828 -46.0938 C 31.25 -48.584 32.4707 -48.9258 35.0586 -47.4609 L 43.0176 -42.7246 L 43.0176 -52.1484 C 43.0176 -54.9316 43.9941 -55.8594 46.9727 -55.8594 L 48.1445 -55.8594 C 51.0742 -55.8594 52.002 -54.9316 52.002 -52.1484 L 52.002 -42.7246 L 59.9609 -47.4609 C 62.5 -48.9746 63.7207 -48.584 65.1367 -46.0938 L 65.7227 -45.0684 C 67.1387 -42.5293 66.7969 -41.3086 64.3066 -39.9414 L 55.9082 -35.3516 L 64.3066 -30.5176 C 66.6992 -29.1992 66.9922 -28.0273 65.625 -25.4395 L 65.0391 -24.4141 C 63.6719 -21.875 62.4512 -21.582 60.0098 -23.0469 L 52.002 -27.7832 L 52.002 -18.2617 C 52.002 -15.4297 51.0742 -14.5508 48.1445 -14.5508 L 46.9727 -14.5508 C 43.9453 -14.5508 43.0176 -15.4297 43.0176 -18.2129 L 43.0176 -27.7832 L 35.0098 -23.0469 C 32.6172 -21.6309 31.3965 -21.9238 29.9316 -24.4141 L 29.3945 -25.4395 C 27.9297 -27.9785 28.2715 -29.1504 30.7129 -30.5176 L 39.1113 -35.3516 L 30.7129 -39.9414 C 28.2715 -41.3086 27.9297 -42.5293 29.2969 -45.0684 Z"/>
  </g>
  <g id="Semibold-S" transform="matrix(1 0 0 1 1996.2 696)">
   <path d="M 47.0703 5.0293 C 69.0918 5.0293 87.3047 -13.1348 87.3047 -35.2051 C 87.3047 -57.2266 69.0918 -75.4395 47.0215 -75.4395 C 25 -75.4395 6.83594 -57.2266 6.83594 -35.2051 C 6.83594 -13.1348 25.0488 5.0293 47.0703 5.0293 Z M 28.6621 -45.3125 L 29.1016 -46.0938 C 30.4199 -48.6328 31.6895 -48.9258 34.2285 -47.4609 L 42.7246 -42.4316 L 42.7246 -52.4414 C 42.7246 -55.2246 43.7012 -56.1523 46.6797 -56.1523 L 47.5098 -56.1523 C 50.3906 -56.1523 51.3672 -55.2246 51.3672 -52.4414 L 51.3672 -42.4316 L 59.8633 -47.4609 C 62.4023 -49.0234 63.6719 -48.6328 65.0391 -46.0938 L 65.4785 -45.3125 C 66.8457 -42.7734 66.4551 -41.5039 64.0625 -40.2344 L 55.0781 -35.3516 L 64.0625 -30.2246 C 66.4062 -28.8574 66.6992 -27.6855 65.3809 -25.0977 L 64.9902 -24.3652 C 63.623 -21.8262 62.4023 -21.4844 59.9121 -22.9492 L 51.3672 -27.9785 L 51.3672 -17.9199 C 51.3672 -15.1367 50.3906 -14.209 47.5098 -14.209 L 46.6797 -14.209 C 43.7012 -14.209 42.7246 -15.1367 42.7246 -17.9199 L 42.7246 -27.9785 L 34.1797 -22.9492 C 31.7871 -21.582 30.5664 -21.875 29.1016 -24.3652 L 28.7109 -25.0977 C 27.2949 -27.6367 27.5879 -28.8086 30.0293 -30.2246 L 39.0137 -35.3516 L 30.0781 -40.2344 C 27.6367 -41.5039 27.2949 -42.7734 28.6621 -45.3125 Z"/>
  </g>
  <g id="Medium-S" transform="matrix(1 0 0 1 1699.83 696)">
   <path d="M 46.7285 4.6875 C 68.5547 4.6875 86.6211 -13.3789 86.6211 -35.2051 C 86.6211 -57.0312 68.5059 -75.0977 46.6797 -75.0977 C 24.8535 -75.0977 6.83594 -57.0312 6.83594 -35.2051 C 6.83594 -13.3789 24.9023 4.6875 46.7285 4.6875 Z M 28.125 -45.5078 L 28.4668 -46.0938 C 29.7363 -48.6328 31.0547 -48.9258 33.6426 -47.5098 L 42.5293 -42.2363 L 42.5293 -52.6855 C 42.5293 -55.4199 43.5059 -56.3965 46.4355 -56.3965 L 47.0215 -56.3965 C 49.9023 -56.3965 50.8789 -55.4199 50.8789 -52.6855 L 50.8789 -42.2363 L 59.7656 -47.5098 C 62.3535 -49.0234 63.623 -48.6328 64.9414 -46.0938 L 65.2344 -45.5078 C 66.6016 -42.9688 66.2598 -41.6992 63.8672 -40.4297 L 54.4922 -35.3516 L 63.8672 -29.9805 C 66.2109 -28.6133 66.5039 -27.3926 65.1855 -24.8535 L 64.8926 -24.3652 C 63.5742 -21.7773 62.3047 -21.4355 59.8633 -22.9004 L 50.8789 -28.1738 L 50.8789 -17.6758 C 50.8789 -14.8926 49.9023 -13.9648 47.0215 -13.9648 L 46.4355 -13.9648 C 43.5059 -13.9648 42.5293 -14.8926 42.5293 -17.6758 L 42.5293 -28.1738 L 33.5449 -22.9004 C 31.1523 -21.5332 29.8828 -21.8262 28.4668 -24.3652 L 28.2227 -24.8535 C 26.8066 -27.3438 27.0996 -28.5645 29.4922 -29.9805 L 38.916 -35.3516 L 29.541 -40.4297 C 27.1484 -41.6992 26.8066 -42.9688 28.125 -45.5078 Z"/>
  </g>
  <g id="Regular-S" transform="matrix(1 0 0 1 1403.58 696)">
   <path d="M 46.2402 4.19922 C 67.7734 4.19922 85.6934 -13.6719 85.6934 -35.2051 C 85.6934 -56.7383 67.7246 -74.6094 46.1914 -74.6094 C 24.707 -74.6094 6.83594 -56.7383 6.83594 -35.2051 C 6.83594 -13.6719 24.7559 4.19922 46.2402 4.19922 Z M 27.4902 -45.8008 L 27.6367 -46.0938 C 28.9062 -48.6328 30.2246 -48.9746 32.8125 -47.5098 L 42.2363 -41.9922 L 42.2363 -52.9785 C 42.2363 -55.7617 43.2129 -56.6895 46.1426 -56.6895 L 46.3867 -56.6895 C 49.2676 -56.6895 50.2441 -55.7617 50.2441 -52.9785 L 50.2441 -41.9922 L 59.668 -47.5098 C 62.2559 -49.0723 63.5742 -48.6816 64.8438 -46.0938 L 64.9902 -45.8008 C 66.2598 -43.2129 65.9668 -41.9434 63.5742 -40.6738 L 53.7109 -35.3516 L 63.623 -29.6387 C 65.918 -28.3203 66.2109 -27.0508 64.9414 -24.5117 L 64.8438 -24.3164 C 63.5254 -21.7285 62.2559 -21.3867 59.7656 -22.8516 L 50.2441 -28.3691 L 50.2441 -17.3828 C 50.2441 -14.5996 49.2676 -13.623 46.3867 -13.623 L 46.1426 -13.623 C 43.2129 -13.623 42.2363 -14.5996 42.2363 -17.3828 L 42.2363 -28.3691 L 32.7148 -22.8516 C 30.3711 -21.4844 29.0527 -21.7773 27.6367 -24.3164 L 27.5391 -24.5117 C 26.1719 -27.002 26.4648 -28.2227 28.8574 -29.6387 L 38.7695 -35.3516 L 28.9062 -40.6738 C 26.5137 -41.9434 26.2207 -43.2129 27.4902 -45.8008 Z"/>
  </g>
  <g id="Light-S" transform="matrix(1 0 0 1 1107.6 696)">
   <path d="M 45.5078 3.4668 C 66.6992 3.4668 84.2285 -14.0137 84.2285 -35.2051 C 84.2285 -56.3965 66.6504 -73.877 45.5078 -73.877 C 24.3164 -73.877 6.83594 -56.3965 6.83594 -35.2051 C 6.83594 -14.0137 24.3652 3.4668 45.5078 3.4668 Z M 27.4902 -45.4102 L 27.6367 -45.6543 C 28.8086 -48.0469 29.9316 -48.3398 32.3242 -46.9727 L 41.8945 -41.4062 L 41.8945 -52.5391 C 41.8945 -55.0293 42.7246 -55.8594 45.4102 -55.8594 L 45.6543 -55.8594 C 48.291 -55.8594 49.1211 -55.0293 49.1211 -52.5391 L 49.1211 -41.4062 L 58.6914 -46.9727 C 61.084 -48.3887 62.207 -48.0469 63.3789 -45.6543 L 63.5254 -45.4102 C 64.6973 -43.0664 64.4043 -41.9922 62.2559 -40.8203 L 52.2461 -35.4004 L 62.3047 -29.5898 C 64.3555 -28.3691 64.6484 -27.2949 63.4766 -24.9512 L 63.3789 -24.8047 C 62.1582 -22.4121 61.084 -22.1191 58.7891 -23.4863 L 49.1211 -29.0527 L 49.1211 -17.9199 C 49.1211 -15.3809 48.291 -14.5508 45.6543 -14.5508 L 45.4102 -14.5508 C 42.7246 -14.5508 41.8945 -15.3809 41.8945 -17.9199 L 41.8945 -29.0527 L 32.2266 -23.4863 C 30.0293 -22.168 28.9062 -22.4609 27.6367 -24.8047 L 27.5391 -24.9512 C 26.2695 -27.2461 26.5625 -28.3203 28.7598 -29.5898 L 38.7695 -35.4004 L 28.8086 -40.8203 C 26.6113 -41.9434 26.3184 -43.0664 27.4902 -45.4102 Z"/>
  </g>
  <g id="Thin-S" transform="matrix(1 0 0 1 811.867 696)">
   <path d="M 44.5801 2.53906 C 65.2832 2.53906 82.2754 -14.502 82.2754 -35.2051 C 82.2754 -55.9082 65.2344 -72.9492 44.5312 -72.9492 C 23.8281 -72.9492 6.83594 -55.9082 6.83594 -35.2051 C 6.83594 -14.502 23.877 2.53906 44.5801 2.53906 Z M 27.5391 -44.9219 L 27.6855 -45.166 C 28.7109 -47.3145 29.5898 -47.5098 31.6406 -46.2402 L 41.4551 -40.625 L 41.4551 -51.9531 C 41.4551 -54.1504 42.0898 -54.7852 44.4336 -54.7852 L 44.6777 -54.7852 C 46.9727 -54.7852 47.6562 -54.1504 47.6562 -51.9531 L 47.6562 -40.625 L 57.4707 -46.2402 C 59.5703 -47.5098 60.4004 -47.2656 61.4258 -45.166 L 61.5723 -44.9219 C 62.5977 -42.9199 62.3535 -41.9922 60.4492 -40.9668 L 50.3418 -35.4492 L 60.498 -29.5898 C 62.3535 -28.4668 62.5488 -27.6367 61.5234 -25.5859 L 61.4258 -25.4395 C 60.3516 -23.291 59.5215 -23.0469 57.4707 -24.3164 L 47.6562 -29.9316 L 47.6562 -18.6523 C 47.6562 -16.4062 46.9727 -15.7227 44.6777 -15.7227 L 44.4336 -15.7227 C 42.0898 -15.7227 41.4551 -16.4062 41.4551 -18.6523 L 41.4551 -29.9316 L 31.5918 -24.3164 C 29.5898 -23.0957 28.7598 -23.3398 27.6855 -25.4395 L 27.5879 -25.5859 C 26.4648 -27.5879 26.6602 -28.4668 28.6133 -29.5898 L 38.7695 -35.4492 L 28.6621 -40.9668 C 26.709 -41.9922 26.5137 -42.8711 27.5391 -44.9219 Z"/>
  </g>
  <g id="Ultralight-S" transform="matrix(1 0 0 1 515.644 696)">
   <path d="M 44.043 2.00195 C 64.502 2.00195 81.2988 -14.7461 81.2988 -35.2051 C 81.2988 -55.6641 64.502 -72.4121 44.043 -72.4121 C 23.584 -72.4121 6.83594 -55.6641 6.83594 -35.2051 C 6.83594 -14.7461 23.584 2.00195 44.043 2.00195 Z M 27.5391 -44.6289 L 27.6855 -44.873 C 28.6621 -46.9238 29.3945 -47.0703 31.25 -45.8984 L 41.2109 -40.2344 L 41.2109 -51.6113 C 41.2109 -53.6621 41.748 -54.248 43.8965 -54.248 L 44.1895 -54.248 C 46.3379 -54.248 46.875 -53.6621 46.875 -51.6113 L 46.875 -40.2344 L 56.8359 -45.8984 C 58.7402 -47.0215 59.4727 -46.8262 60.4004 -44.873 L 60.5469 -44.6289 C 61.5234 -42.7734 61.3281 -42.041 59.5215 -41.0645 L 49.3164 -35.498 L 59.5703 -29.541 C 61.3281 -28.5156 61.5234 -27.7832 60.498 -25.9277 L 60.4004 -25.7324 C 59.4238 -23.7793 58.7402 -23.584 56.8359 -24.7559 L 46.875 -30.4199 L 46.875 -18.9941 C 46.875 -16.9434 46.3379 -16.3574 44.1895 -16.3574 L 43.8965 -16.3574 C 41.748 -16.3574 41.2109 -16.9434 41.2109 -18.9941 L 41.2109 -30.4199 L 31.25 -24.7559 C 29.3945 -23.584 28.6621 -23.7793 27.6855 -25.7324 L 27.5879 -25.9277 C 26.5137 -27.7832 26.709 -28.5645 28.5156 -29.541 L 38.7695 -35.498 L 28.5645 -41.0645 C 26.7578 -41.9922 26.5625 -42.7734 27.5391 -44.6289 Z"/>
  </g>
 </g>
</svg>
