<?xml version="1.0" encoding="UTF-8"?>
<!--Generator: Apple Native CoreSVG 148-->
<!DOCTYPE svg
PUBLIC "-//W3C//DTD SVG 1.1//EN"
       "http://www.w3.org/Graphics/SVG/1.1/DTD/svg11.dtd">
<svg version="1.1" xmlns="http://www.w3.org/2000/svg" xmlns:xlink="http://www.w3.org/1999/xlink" width="3300" height="2200">
 <!--glyph: "uni100A8F.medium", point size: 100.000000, font version: "Version 16.0d11e1", template writer version: "8"-->
 <g id="Notes">
  <rect height="2200" id="artboard" style="fill:white;opacity:1" width="3300" x="0" y="0"/>
  <line id="" style="fill:none;stroke:black;opacity:1;stroke-width:0.5;" x1="263" x2="3036" y1="292" y2="292"/>
  <text style="stroke:none;fill:black;font-family:-apple-system,&quot;SF Pro Display&quot;,&quot;SF Pro Text&quot;,Helvetica,sans-serif;font-weight:bold;" transform="matrix(1 0 0 1 263 322)">Weight/Scale Variations</text>
  <text style="stroke:none;fill:black;font-family:-apple-system,&quot;SF Pro Display&quot;,&quot;SF Pro Text&quot;,Helvetica,sans-serif;text-anchor:middle;" transform="matrix(1 0 0 1 559.711 322)">Ultralight</text>
  <text style="stroke:none;fill:black;font-family:-apple-system,&quot;SF Pro Display&quot;,&quot;SF Pro Text&quot;,Helvetica,sans-serif;text-anchor:middle;" transform="matrix(1 0 0 1 856.422 322)">Thin</text>
  <text style="stroke:none;fill:black;font-family:-apple-system,&quot;SF Pro Display&quot;,&quot;SF Pro Text&quot;,Helvetica,sans-serif;text-anchor:middle;" transform="matrix(1 0 0 1 1153.13 322)">Light</text>
  <text style="stroke:none;fill:black;font-family:-apple-system,&quot;SF Pro Display&quot;,&quot;SF Pro Text&quot;,Helvetica,sans-serif;text-anchor:middle;" transform="matrix(1 0 0 1 1449.84 322)">Regular</text>
  <text style="stroke:none;fill:black;font-family:-apple-system,&quot;SF Pro Display&quot;,&quot;SF Pro Text&quot;,Helvetica,sans-serif;text-anchor:middle;" transform="matrix(1 0 0 1 1746.56 322)">Medium</text>
  <text style="stroke:none;fill:black;font-family:-apple-system,&quot;SF Pro Display&quot;,&quot;SF Pro Text&quot;,Helvetica,sans-serif;text-anchor:middle;" transform="matrix(1 0 0 1 2043.27 322)">Semibold</text>
  <text style="stroke:none;fill:black;font-family:-apple-system,&quot;SF Pro Display&quot;,&quot;SF Pro Text&quot;,Helvetica,sans-serif;text-anchor:middle;" transform="matrix(1 0 0 1 2339.98 322)">Bold</text>
  <text style="stroke:none;fill:black;font-family:-apple-system,&quot;SF Pro Display&quot;,&quot;SF Pro Text&quot;,Helvetica,sans-serif;text-anchor:middle;" transform="matrix(1 0 0 1 2636.69 322)">Heavy</text>
  <text style="stroke:none;fill:black;font-family:-apple-system,&quot;SF Pro Display&quot;,&quot;SF Pro Text&quot;,Helvetica,sans-serif;text-anchor:middle;" transform="matrix(1 0 0 1 2933.4 322)">Black</text>
  <line id="" style="fill:none;stroke:black;opacity:1;stroke-width:0.5;" x1="263" x2="3036" y1="1903" y2="1903"/>
  <g id="" transform="matrix(1 0 0 1 263 1933)">
   <path d="M 9.24805 0.830078 C 13.5547 0.830078 17.1387 -2.74414 17.1387 -7.05078 C 17.1387 -11.3574 13.5449 -14.9316 9.23828 -14.9316 C 4.94141 -14.9316 1.36719 -11.3574 1.36719 -7.05078 C 1.36719 -2.74414 4.95117 0.830078 9.24805 0.830078 Z M 9.24805 -0.654297 C 5.70312 -0.654297 2.87109 -3.49609 2.87109 -7.05078 C 2.87109 -10.6055 5.69336 -13.4473 9.23828 -13.4473 C 12.793 -13.4473 15.6348 -10.6055 15.6445 -7.05078 C 15.6543 -3.49609 12.8027 -0.654297 9.24805 -0.654297 Z M 9.22852 -3.62305 C 9.69727 -3.62305 9.9707 -3.93555 9.9707 -4.45312 L 9.9707 -6.31836 L 12.002 -6.31836 C 12.5 -6.31836 12.832 -6.57227 12.832 -7.04102 C 12.832 -7.51953 12.5195 -7.7832 12.002 -7.7832 L 9.9707 -7.7832 L 9.9707 -9.81445 C 9.9707 -10.332 9.69727 -10.6543 9.22852 -10.6543 C 8.75977 -10.6543 8.50586 -10.3125 8.50586 -9.81445 L 8.50586 -7.7832 L 6.49414 -7.7832 C 5.97656 -7.7832 5.64453 -7.51953 5.64453 -7.04102 C 5.64453 -6.57227 5.99609 -6.31836 6.49414 -6.31836 L 8.50586 -6.31836 L 8.50586 -4.45312 C 8.50586 -3.95508 8.75977 -3.62305 9.22852 -3.62305 Z"/>
  </g>
  <g id="" transform="matrix(1 0 0 1 281.506 1933)">
   <path d="M 11.709 2.91016 C 17.1582 2.91016 21.6699 -1.61133 21.6699 -7.05078 C 21.6699 -12.5 17.1484 -17.0117 11.6992 -17.0117 C 6.25977 -17.0117 1.74805 -12.5 1.74805 -7.05078 C 1.74805 -1.61133 6.26953 2.91016 11.709 2.91016 Z M 11.709 1.25 C 7.09961 1.25 3.41797 -2.44141 3.41797 -7.05078 C 3.41797 -11.6602 7.08984 -15.3516 11.6992 -15.3516 C 16.3086 -15.3516 20 -11.6602 20.0098 -7.05078 C 20.0195 -2.44141 16.3184 1.25 11.709 1.25 Z M 11.6797 -2.66602 C 12.207 -2.66602 12.5098 -3.01758 12.5098 -3.59375 L 12.5098 -6.23047 L 15.3223 -6.23047 C 15.8691 -6.23047 16.25 -6.51367 16.25 -7.03125 C 16.25 -7.55859 15.8887 -7.86133 15.3223 -7.86133 L 12.5098 -7.86133 L 12.5098 -10.6836 C 12.5098 -11.25 12.207 -11.6113 11.6797 -11.6113 C 11.1621 -11.6113 10.8789 -11.2305 10.8789 -10.6836 L 10.8789 -7.86133 L 8.07617 -7.86133 C 7.50977 -7.86133 7.13867 -7.55859 7.13867 -7.03125 C 7.13867 -6.51367 7.5293 -6.23047 8.07617 -6.23047 L 10.8789 -6.23047 L 10.8789 -3.59375 C 10.8789 -3.03711 11.1621 -2.66602 11.6797 -2.66602 Z"/>
  </g>
  <g id="" transform="matrix(1 0 0 1 304.924 1933)">
   <path d="M 14.9707 5.66406 C 21.9336 5.66406 27.6953 -0.0976562 27.6953 -7.05078 C 27.6953 -14.0137 21.9238 -19.7754 14.9609 -19.7754 C 8.00781 -19.7754 2.25586 -14.0137 2.25586 -7.05078 C 2.25586 -0.0976562 8.01758 5.66406 14.9707 5.66406 Z M 14.9707 3.84766 C 8.93555 3.84766 4.08203 -1.01562 4.08203 -7.05078 C 4.08203 -13.0957 8.92578 -17.9492 14.9609 -17.9492 C 21.0059 -17.9492 25.8594 -13.0957 25.8691 -7.05078 C 25.8789 -1.01562 21.0156 3.84766 14.9707 3.84766 Z M 14.9414 -1.38672 C 15.5176 -1.38672 15.8594 -1.77734 15.8594 -2.38281 L 15.8594 -6.13281 L 19.7754 -6.13281 C 20.3711 -6.13281 20.7812 -6.46484 20.7812 -7.02148 C 20.7812 -7.59766 20.3906 -7.93945 19.7754 -7.93945 L 15.8594 -7.93945 L 15.8594 -11.8652 C 15.8594 -12.4805 15.5176 -12.8711 14.9414 -12.8711 C 14.375 -12.8711 14.0527 -12.4609 14.0527 -11.8652 L 14.0527 -7.93945 L 10.1465 -7.93945 C 9.53125 -7.93945 9.13086 -7.59766 9.13086 -7.02148 C 9.13086 -6.46484 9.55078 -6.13281 10.1465 -6.13281 L 14.0527 -6.13281 L 14.0527 -2.38281 C 14.0527 -1.79688 14.375 -1.38672 14.9414 -1.38672 Z"/>
  </g>
  <text style="stroke:none;fill:black;font-family:-apple-system,&quot;SF Pro Display&quot;,&quot;SF Pro Text&quot;,Helvetica,sans-serif;font-weight:bold;" transform="matrix(1 0 0 1 263 1953)">Design Variations</text>
  <text style="stroke:none;fill:black;font-family:-apple-system,&quot;SF Pro Display&quot;,&quot;SF Pro Text&quot;,Helvetica,sans-serif;" transform="matrix(1 0 0 1 263 1971)">Symbols are supported in up to nine weights and three scales.</text>
  <text style="stroke:none;fill:black;font-family:-apple-system,&quot;SF Pro Display&quot;,&quot;SF Pro Text&quot;,Helvetica,sans-serif;" transform="matrix(1 0 0 1 263 1989)">For optimal layout with text and other symbols, vertically align</text>
  <text style="stroke:none;fill:black;font-family:-apple-system,&quot;SF Pro Display&quot;,&quot;SF Pro Text&quot;,Helvetica,sans-serif;" transform="matrix(1 0 0 1 263 2007)">symbols with the adjacent text.</text>
  <line id="" style="fill:none;stroke:#00AEEF;stroke-width:0.5;opacity:1.0;" x1="776" x2="776" y1="1919" y2="1933"/>
  <g id="" transform="matrix(1 0 0 1 776 1933)">
   <path d="M 3.31055 0.126953 C 3.82812 0.126953 4.08203 -0.0683594 4.26758 -0.605469 L 5.52734 -4.0625 L 11.2891 -4.0625 L 12.5488 -0.605469 C 12.7344 -0.0683594 12.9883 0.126953 13.4961 0.126953 C 14.0137 0.126953 14.3457 -0.185547 14.3457 -0.673828 C 14.3457 -0.839844 14.3164 -0.986328 14.2383 -1.20117 L 9.6582 -13.3887 C 9.43359 -13.9941 9.0332 -14.2871 8.4082 -14.2871 C 7.80273 -14.2871 7.39258 -13.9941 7.17773 -13.3984 L 2.59766 -1.19141 C 2.51953 -0.976562 2.49023 -0.830078 2.49023 -0.664062 C 2.49023 -0.175781 2.80273 0.126953 3.31055 0.126953 Z M 6.00586 -5.53711 L 8.37891 -12.1094 L 8.42773 -12.1094 L 10.8008 -5.53711 Z"/>
  </g>
  <line id="" style="fill:none;stroke:#00AEEF;stroke-width:0.5;opacity:1.0;" x1="792.836" x2="792.836" y1="1919" y2="1933"/>
  <text style="stroke:none;fill:black;font-family:-apple-system,&quot;SF Pro Display&quot;,&quot;SF Pro Text&quot;,Helvetica,sans-serif;font-weight:bold;" transform="matrix(1 0 0 1 776 1953)">Margins</text>
  <text style="stroke:none;fill:black;font-family:-apple-system,&quot;SF Pro Display&quot;,&quot;SF Pro Text&quot;,Helvetica,sans-serif;" transform="matrix(1 0 0 1 776 1971)">Leading and trailing margins on the left and right side of each symbol</text>
  <text style="stroke:none;fill:black;font-family:-apple-system,&quot;SF Pro Display&quot;,&quot;SF Pro Text&quot;,Helvetica,sans-serif;" transform="matrix(1 0 0 1 776 1989)">can be adjusted by modifying the x-location of the margin guidelines.</text>
  <text style="stroke:none;fill:black;font-family:-apple-system,&quot;SF Pro Display&quot;,&quot;SF Pro Text&quot;,Helvetica,sans-serif;" transform="matrix(1 0 0 1 776 2007)">Modifications are automatically applied proportionally to all</text>
  <text style="stroke:none;fill:black;font-family:-apple-system,&quot;SF Pro Display&quot;,&quot;SF Pro Text&quot;,Helvetica,sans-serif;" transform="matrix(1 0 0 1 776 2025)">scales and weights.</text>
  <g id="" transform="matrix(1 0 0 1 1289 1933)">
   <path d="M 2.8418 1.86523 L 4.54102 3.57422 C 5.40039 4.44336 6.38672 4.38477 7.31445 3.35938 L 17.4902 -7.85156 C 17.7539 -7.76367 18.0273 -7.7832 18.3398 -7.8418 L 19.4043 -8.03711 L 20.0684 -7.36328 L 20.0293 -6.80664 C 19.9902 -6.30859 20.1172 -5.92773 20.6055 -5.44922 L 21.3672 -4.70703 C 21.8457 -4.22852 22.4609 -4.19922 22.9297 -4.66797 L 25.8398 -7.58789 C 26.3086 -8.05664 26.2891 -8.65234 25.8105 -9.13086 L 25.0391 -9.89258 C 24.5605 -10.3711 24.1895 -10.5273 23.7109 -10.4883 L 23.1348 -10.4395 L 22.4902 -11.0742 L 22.7344 -12.1973 C 22.8613 -12.7637 22.7051 -13.2031 22.1191 -13.7891 L 19.9219 -15.9766 C 16.582 -19.2969 12.1484 -19.2188 9.25781 -16.3281 C 8.83789 -15.918 8.80859 -15.3418 9.04297 -14.9512 C 9.27734 -14.5898 9.73633 -14.3555 10.3809 -14.5215 C 11.8457 -14.8633 13.3691 -14.9219 14.7949 -13.9844 L 14.209 -12.5293 C 14.0137 -12.0508 13.9844 -11.6504 14.1113 -11.2891 L 3.04688 -0.898438 C 2.06055 0.0195312 1.98242 0.996094 2.8418 1.86523 Z M 10.752 -15.957 C 13.1836 -17.7344 16.4746 -17.4316 18.7012 -15.2051 L 21.1328 -12.793 C 21.3672 -12.5586 21.4062 -12.373 21.3379 -12.0312 L 21.0156 -10.5469 L 22.5195 -9.0625 L 23.5059 -9.12109 C 23.7598 -9.13086 23.8379 -9.11133 24.0332 -8.91602 L 24.6094 -8.33984 L 22.168 -5.89844 L 21.5918 -6.47461 C 21.3965 -6.66992 21.3672 -6.74805 21.377 -7.01172 L 21.4453 -7.98828 L 19.9512 -9.47266 L 18.4277 -9.21875 C 18.1055 -9.15039 17.959 -9.17969 17.7148 -9.41406 L 15.7129 -11.416 C 15.459 -11.6504 15.4297 -11.8164 15.5859 -12.1875 L 16.4648 -14.2773 C 14.9023 -15.7324 12.8711 -16.3574 10.8398 -15.7617 C 10.6836 -15.7227 10.625 -15.8496 10.752 -15.957 Z M 5.27344 2.30469 L 4.10156 1.14258 C 3.63281 0.683594 3.74023 0.341797 4.14062 -0.0195312 L 14.9512 -10.1953 L 16.416 -8.71094 L 6.42578 2.27539 C 6.07422 2.67578 5.74219 2.77344 5.27344 2.30469 Z"/>
  </g>
  <text style="stroke:none;fill:black;font-family:-apple-system,&quot;SF Pro Display&quot;,&quot;SF Pro Text&quot;,Helvetica,sans-serif;font-weight:bold;" transform="matrix(1 0 0 1 1289 1953)">Exporting</text>
  <text style="stroke:none;fill:black;font-family:-apple-system,&quot;SF Pro Display&quot;,&quot;SF Pro Text&quot;,Helvetica,sans-serif;" transform="matrix(1 0 0 1 1289 1971)">Symbols should be outlined when exporting to ensure the</text>
  <text style="stroke:none;fill:black;font-family:-apple-system,&quot;SF Pro Display&quot;,&quot;SF Pro Text&quot;,Helvetica,sans-serif;" transform="matrix(1 0 0 1 1289 1989)">design is preserved when submitting to Xcode.</text>
  <text id="template-version" style="stroke:none;fill:black;font-family:-apple-system,&quot;SF Pro Display&quot;,&quot;SF Pro Text&quot;,Helvetica,sans-serif;text-anchor:end;" transform="matrix(1 0 0 1 3036 1933)">Template v.2.0</text>
  <text style="stroke:none;fill:black;font-family:-apple-system,&quot;SF Pro Display&quot;,&quot;SF Pro Text&quot;,Helvetica,sans-serif;text-anchor:end;" transform="matrix(1 0 0 1 3036 1951)">Requires Xcode 12 or greater</text>
  <text style="stroke:none;fill:black;font-family:-apple-system,&quot;SF Pro Display&quot;,&quot;SF Pro Text&quot;,Helvetica,sans-serif;text-anchor:end;" transform="matrix(1 0 0 1 3036 1969)">Generated from terminal.fill</text>
  <text style="stroke:none;fill:black;font-family:-apple-system,&quot;SF Pro Display&quot;,&quot;SF Pro Text&quot;,Helvetica,sans-serif;text-anchor:end;" transform="matrix(1 0 0 1 3036 1987)">Typeset at 100 points</text>
  <text style="stroke:none;fill:black;font-family:-apple-system,&quot;SF Pro Display&quot;,&quot;SF Pro Text&quot;,Helvetica,sans-serif;" transform="matrix(1 0 0 1 263 726)">Small</text>
  <text style="stroke:none;fill:black;font-family:-apple-system,&quot;SF Pro Display&quot;,&quot;SF Pro Text&quot;,Helvetica,sans-serif;" transform="matrix(1 0 0 1 263 1156)">Medium</text>
  <text style="stroke:none;fill:black;font-family:-apple-system,&quot;SF Pro Display&quot;,&quot;SF Pro Text&quot;,Helvetica,sans-serif;" transform="matrix(1 0 0 1 263 1586)">Large</text>
 </g>
 <g id="Guides">
  <g id="H-reference" style="fill:#27AAE1;stroke:none;" transform="matrix(1 0 0 1 339 696)">
   <path d="M 0.976562 0 L 3.66211 0 L 12.9883 -24.4629 L 45.7031 -24.4629 L 55.0781 0 L 57.7148 0 L 30.6152 -70.459 L 28.125 -70.459 Z M 29.2969 -67.1387 L 29.3945 -67.1387 L 44.873 -26.709 L 13.8672 -26.709 Z"/>
  </g>
  <line id="Baseline-S" style="fill:none;stroke:#27AAE1;opacity:1;stroke-width:0.5;" x1="263" x2="3036" y1="696" y2="696"/>
  <line id="Capline-S" style="fill:none;stroke:#27AAE1;opacity:1;stroke-width:0.5;" x1="263" x2="3036" y1="625.541" y2="625.541"/>
  <g id="H-reference" style="fill:#27AAE1;stroke:none;" transform="matrix(1 0 0 1 339 1126)">
   <path d="M 0.976562 0 L 3.66211 0 L 12.9883 -24.4629 L 45.7031 -24.4629 L 55.0781 0 L 57.7148 0 L 30.6152 -70.459 L 28.125 -70.459 Z M 29.2969 -67.1387 L 29.3945 -67.1387 L 44.873 -26.709 L 13.8672 -26.709 Z"/>
  </g>
  <line id="Baseline-M" style="fill:none;stroke:#27AAE1;opacity:1;stroke-width:0.5;" x1="263" x2="3036" y1="1126" y2="1126"/>
  <line id="Capline-M" style="fill:none;stroke:#27AAE1;opacity:1;stroke-width:0.5;" x1="263" x2="3036" y1="1055.54" y2="1055.54"/>
  <g id="H-reference" style="fill:#27AAE1;stroke:none;" transform="matrix(1 0 0 1 339 1556)">
   <path d="M 0.976562 0 L 3.66211 0 L 12.9883 -24.4629 L 45.7031 -24.4629 L 55.0781 0 L 57.7148 0 L 30.6152 -70.459 L 28.125 -70.459 Z M 29.2969 -67.1387 L 29.3945 -67.1387 L 44.873 -26.709 L 13.8672 -26.709 Z"/>
  </g>
  <line id="Baseline-L" style="fill:none;stroke:#27AAE1;opacity:1;stroke-width:0.5;" x1="263" x2="3036" y1="1556" y2="1556"/>
  <line id="Capline-L" style="fill:none;stroke:#27AAE1;opacity:1;stroke-width:0.5;" x1="263" x2="3036" y1="1485.54" y2="1485.54"/>
  <line id="left-margin" style="fill:none;stroke:#00AEEF;stroke-width:0.5;opacity:1.0;" x1="1379.82" x2="1379.82" y1="1030.79" y2="1150.12"/>
  <line id="right-margin" style="fill:none;stroke:#00AEEF;stroke-width:0.5;opacity:1.0;" x1="1519.86" x2="1519.86" y1="1030.79" y2="1150.12"/>
 </g>
 <g id="Symbols">
  <g id="Black-L" transform="matrix(1 0 0 1 2841.51 1556)">
   <path d="M 39.9902 26.5137 L 143.799 26.5137 C 159.082 26.5137 167.725 17.8711 167.725 2.68555 L 167.725 -73.0957 C 167.725 -88.2812 159.082 -96.875 143.799 -96.875 L 39.9902 -96.875 C 24.7559 -96.875 16.0645 -88.2812 16.0645 -73.0957 L 16.0645 2.68555 C 16.0645 17.8711 24.7559 26.5137 39.9902 26.5137 Z M 47.7051 -43.1152 L 59.1797 -50.0488 L 47.6562 -57.0801 C 39.8438 -61.7188 46.6309 -73.7793 55.0781 -68.4082 L 72.9004 -57.2754 C 78.0273 -54.0527 78.1738 -46.1914 72.9004 -42.9199 L 55.0781 -31.6406 C 46.582 -26.3184 39.8438 -38.3301 47.7051 -43.1152 Z M 75.7324 -33.4473 C 75.7324 -37.1582 78.7598 -40.0391 82.4219 -40.0391 L 106.348 -40.0391 C 110.107 -40.0391 112.988 -37.1582 112.988 -33.4473 C 112.988 -29.7852 110.107 -26.7578 106.348 -26.7578 L 82.4219 -26.7578 C 78.6621 -26.7578 75.7324 -29.7852 75.7324 -33.4473 Z"/>
  </g>
  <g id="Heavy-L" transform="matrix(1 0 0 1 2545.23 1556)">
   <path d="M 38.8184 25.4883 L 144.092 25.4883 C 158.74 25.4883 166.846 17.4316 166.846 2.88086 L 166.846 -73.2422 C 166.846 -87.793 158.74 -95.8496 144.092 -95.8496 L 38.8184 -95.8496 C 24.2188 -95.8496 16.0645 -87.793 16.0645 -73.2422 L 16.0645 2.88086 C 16.0645 17.4316 24.2188 25.4883 38.8184 25.4883 Z M 46.3379 -43.4082 L 58.9355 -51.0742 L 46.2891 -58.6914 C 39.2578 -62.9395 45.3613 -73.7305 52.9297 -68.8477 L 70.9961 -57.6172 C 75.6836 -54.6875 75.7812 -47.5586 70.9961 -44.5312 L 52.9297 -33.1543 C 45.3125 -28.3691 39.2578 -39.1602 46.3379 -43.4082 Z M 74.0723 -34.4238 C 74.0723 -37.793 76.709 -40.332 80.0293 -40.332 L 104.102 -40.332 C 107.471 -40.332 110.01 -37.793 110.01 -34.4238 C 110.01 -31.1523 107.471 -28.4668 104.102 -28.4668 L 80.0293 -28.4668 C 76.6602 -28.4668 74.0723 -31.1523 74.0723 -34.4238 Z"/>
  </g>
  <g id="Bold-L" transform="matrix(1 0 0 1 2249.01 1556)">
   <path d="M 37.5 24.3652 L 144.385 24.3652 C 158.35 24.3652 165.869 16.8945 165.869 3.07617 L 165.869 -73.3887 C 165.869 -87.207 158.35 -94.7266 144.385 -94.7266 L 37.5 -94.7266 C 23.6328 -94.7266 16.0645 -87.2559 16.0645 -73.3887 L 16.0645 3.07617 C 16.0645 16.8945 23.6328 24.3652 37.5 24.3652 Z M 44.8242 -43.75 L 58.6426 -52.1484 L 44.7754 -60.5469 C 38.5742 -64.2578 43.8965 -73.6328 50.5859 -69.3848 L 68.8965 -57.959 C 72.998 -55.3711 73.1445 -49.0234 68.8965 -46.3867 L 50.5859 -34.8633 C 43.8965 -30.6641 38.623 -40.0391 44.8242 -43.75 Z M 72.168 -35.5469 C 72.168 -38.4277 74.4629 -40.6738 77.3438 -40.6738 L 101.562 -40.6738 C 104.492 -40.6738 106.738 -38.4277 106.738 -35.5469 C 106.738 -32.7148 104.492 -30.3711 101.562 -30.3711 L 77.3438 -30.3711 C 74.4629 -30.3711 72.168 -32.7148 72.168 -35.5469 Z"/>
  </g>
  <g id="Semibold-L" transform="matrix(1 0 0 1 1952.64 1556)">
   <path d="M 36.6211 23.584 L 144.629 23.584 C 158.057 23.584 165.186 16.5039 165.186 3.17383 L 165.186 -73.5352 C 165.186 -86.8164 158.057 -93.9453 144.629 -93.9453 L 36.6211 -93.9453 C 23.1934 -93.9453 16.0645 -86.8652 16.0645 -73.5352 L 16.0645 3.17383 C 16.0645 16.5527 23.1934 23.584 36.6211 23.584 Z M 43.75 -43.9941 L 58.4473 -52.9297 L 43.75 -61.8164 C 38.1348 -65.1855 42.9199 -73.584 48.9258 -69.7754 L 67.4316 -58.2031 C 71.1426 -55.8594 71.2891 -50.0488 67.4316 -47.6562 L 48.9258 -36.0352 C 42.9199 -32.2266 38.1836 -40.6738 43.75 -43.9941 Z M 70.8984 -36.3281 C 70.8984 -38.916 72.9004 -40.918 75.4883 -40.918 L 99.8535 -40.918 C 102.49 -40.918 104.443 -38.916 104.443 -36.3281 C 104.443 -33.7891 102.49 -31.6895 99.8535 -31.6895 L 75.4883 -31.6895 C 72.9004 -31.6895 70.8984 -33.7891 70.8984 -36.3281 Z"/>
  </g>
  <g id="Medium-L" transform="matrix(1 0 0 1 1656.2 1556)">
   <path d="M 35.9375 22.998 L 144.775 22.998 C 157.861 22.998 164.648 16.2109 164.648 3.27148 L 164.648 -73.6328 C 164.648 -86.5234 157.861 -93.3105 144.775 -93.3105 L 35.9375 -93.3105 C 22.9004 -93.3105 16.0645 -86.5723 16.0645 -73.6328 L 16.0645 3.27148 C 16.0645 16.2598 22.9004 22.998 35.9375 22.998 Z M 42.9688 -44.1895 L 58.3008 -53.5156 L 42.9688 -62.7441 C 37.793 -65.8691 42.1875 -73.5352 47.7051 -70.0195 L 66.3086 -58.3984 C 69.7754 -56.2012 69.9219 -50.8301 66.3086 -48.584 L 47.7051 -36.9141 C 42.1875 -33.4473 37.8418 -41.1621 42.9688 -44.1895 Z M 69.9219 -36.9141 C 69.9219 -39.2578 71.7285 -41.1133 74.0723 -41.1133 L 98.5352 -41.1133 C 100.928 -41.1133 102.734 -39.2578 102.734 -36.9141 C 102.734 -34.5703 100.928 -32.7148 98.5352 -32.7148 L 74.0723 -32.7148 C 71.7285 -32.7148 69.9219 -34.5703 69.9219 -36.9141 Z"/>
  </g>
  <g id="Regular-L" transform="matrix(1 0 0 1 1359.81 1556)">
   <path d="M 35.0586 22.2168 L 144.971 22.2168 C 157.617 22.2168 164.014 15.8691 164.014 3.41797 L 164.014 -73.7305 C 164.014 -86.1816 157.617 -92.5293 144.971 -92.5293 L 35.0586 -92.5293 C 22.4609 -92.5293 16.0645 -86.2305 16.0645 -73.7305 L 16.0645 3.41797 C 16.0645 15.918 22.4609 22.2168 35.0586 22.2168 Z M 41.9434 -44.4336 L 58.1055 -54.248 L 41.9434 -64.0137 C 37.3535 -66.7969 41.2109 -73.4863 46.0449 -70.4102 L 64.8438 -58.6426 C 67.9199 -56.6895 68.1152 -51.8555 64.8438 -49.8535 L 46.0449 -38.0371 C 41.2109 -35.0098 37.4512 -41.748 41.9434 -44.4336 Z M 68.6035 -37.6953 C 68.6035 -39.7461 70.2148 -41.3086 72.2656 -41.3086 L 96.8262 -41.3086 C 98.9258 -41.3086 100.488 -39.7461 100.488 -37.6953 C 100.488 -35.6445 98.9258 -34.0332 96.8262 -34.0332 L 72.2656 -34.0332 C 70.2148 -34.0332 68.6035 -35.6445 68.6035 -37.6953 Z"/>
  </g>
  <g id="Light-L" transform="matrix(1 0 0 1 1063.56 1556)">
   <path d="M 34.0332 21.4355 L 145.117 21.4355 C 157.031 21.4355 163.086 15.2344 163.086 3.56445 L 163.086 -73.8281 C 163.086 -85.5469 157.031 -91.6992 145.117 -91.6992 L 34.0332 -91.6992 C 22.168 -91.6992 16.0645 -85.6445 16.0645 -73.8281 L 16.0645 3.56445 C 16.0645 15.3809 22.168 21.4355 34.0332 21.4355 Z M 41.3574 -44.6777 L 58.3496 -54.9805 L 41.3574 -65.2344 C 37.5977 -67.5293 40.7715 -72.7539 44.5801 -70.3613 L 63.5254 -58.4961 C 65.9668 -56.9336 66.1621 -53.0273 63.5254 -51.416 L 44.5801 -39.5508 C 40.7715 -37.1582 37.7441 -42.5293 41.3574 -44.6777 Z M 67.1387 -38.5742 C 67.1387 -40.1855 68.3594 -41.4551 70.0195 -41.4551 L 94.3359 -41.4551 C 96.0449 -41.4551 97.2656 -40.1855 97.2656 -38.5742 C 97.2656 -36.9141 96.0449 -35.6445 94.3359 -35.6445 L 70.0195 -35.6445 C 68.3594 -35.6445 67.1387 -36.9141 67.1387 -38.5742 Z"/>
  </g>
  <g id="Thin-L" transform="matrix(1 0 0 1 767.433 1556)">
   <path d="M 32.666 20.3613 L 145.312 20.3613 C 156.201 20.3613 161.914 14.4531 161.914 3.75977 L 161.914 -73.9746 C 161.914 -84.7168 156.201 -90.5762 145.312 -90.5762 L 32.666 -90.5762 C 21.7773 -90.5762 16.0645 -84.8633 16.0645 -73.9746 L 16.0645 3.75977 C 16.0645 14.6484 21.7773 20.3613 32.666 20.3613 Z M 40.5762 -45.0195 L 58.6914 -55.9082 L 40.5762 -66.8457 C 37.9395 -68.457 40.2344 -71.7773 42.6758 -70.2637 L 61.7676 -58.3008 C 63.4277 -57.2754 63.5742 -54.6387 61.7676 -53.5156 L 42.6758 -41.5527 C 40.2344 -40.0391 38.0859 -43.5059 40.5762 -45.0195 Z M 65.1855 -39.6973 C 65.1855 -40.8203 65.9668 -41.6016 67.041 -41.6016 L 91.1133 -41.6016 C 92.2363 -41.6016 92.9688 -40.8203 92.9688 -39.6973 C 92.9688 -38.623 92.2363 -37.8418 91.1133 -37.8418 L 67.041 -37.8418 C 65.9668 -37.8418 65.1855 -38.623 65.1855 -39.6973 Z"/>
  </g>
  <g id="Ultralight-L" transform="matrix(1 0 0 1 471.015 1556)">
   <path d="M 31.9824 19.7754 L 145.41 19.7754 C 155.811 19.7754 161.328 14.0625 161.328 3.85742 L 161.328 -74.0723 C 161.328 -84.2773 155.811 -89.9902 145.41 -89.9902 L 31.9824 -89.9902 C 21.582 -89.9902 16.0645 -84.4727 16.0645 -74.0723 L 16.0645 3.85742 C 16.0645 14.2578 21.582 19.7754 31.9824 19.7754 Z M 40.1855 -45.166 L 58.8867 -56.3965 L 40.1855 -67.6758 C 38.1348 -68.9453 39.9414 -71.2891 41.6992 -70.2148 L 60.8398 -58.2031 C 62.1094 -57.4707 62.2559 -55.4688 60.8398 -54.5898 L 41.6992 -42.5781 C 39.9414 -41.5527 38.3301 -44.043 40.1855 -45.166 Z M 64.209 -40.2832 C 64.209 -41.1133 64.6973 -41.6504 65.5273 -41.6504 L 89.4531 -41.6504 C 90.2832 -41.6504 90.7715 -41.1133 90.7715 -40.2832 C 90.7715 -39.4531 90.2832 -38.9648 89.4531 -38.9648 L 65.5273 -38.9648 C 64.6973 -38.9648 64.209 -39.4531 64.209 -40.2832 Z"/>
  </g>
  <g id="Black-M" transform="matrix(1 0 0 1 2861.84 1126)">
   <path d="M 31.9824 13.5742 L 111.133 13.5742 C 123.389 13.5742 130.664 6.29883 130.664 -5.95703 L 130.664 -64.4043 C 130.664 -76.6602 123.389 -83.9355 111.133 -83.9355 L 31.9824 -83.9355 C 19.7266 -83.9355 12.4512 -76.6602 12.4512 -64.4043 L 12.4512 -5.95703 C 12.4512 6.29883 19.7266 13.5742 31.9824 13.5742 Z M 38.5254 -41.0156 L 46.3379 -45.8008 L 38.4277 -50.5859 C 31.7871 -54.541 37.6465 -64.8438 44.7754 -60.2539 L 58.3496 -51.8066 C 62.6953 -49.1211 62.7441 -42.5781 58.3496 -39.8438 L 44.7754 -31.25 C 37.5488 -26.709 31.7871 -36.9629 38.5254 -41.0156 Z M 60.2051 -32.959 C 60.2051 -36.1328 62.7441 -38.5742 65.918 -38.5742 L 84.1309 -38.5742 C 87.3535 -38.5742 89.7949 -36.1328 89.7949 -32.959 C 89.7949 -29.7852 87.3535 -27.2461 84.1309 -27.2461 L 65.918 -27.2461 C 62.6953 -27.2461 60.2051 -29.7852 60.2051 -32.959 Z"/>
  </g>
  <g id="Heavy-M" transform="matrix(1 0 0 1 2565.5 1126)">
   <path d="M 31.0059 12.6465 L 111.426 12.6465 C 123.193 12.6465 129.932 5.9082 129.932 -5.81055 L 129.932 -64.5508 C 129.932 -76.2695 123.193 -83.0566 111.426 -83.0566 L 31.0059 -83.0566 C 19.2383 -83.0566 12.4512 -76.3184 12.4512 -64.5508 L 12.4512 -5.81055 C 12.4512 5.9082 19.2383 12.6465 31.0059 12.6465 Z M 37.1582 -41.3086 L 45.9961 -46.6797 L 37.1094 -52.0508 C 31.1035 -55.6641 36.3281 -64.9414 42.8223 -60.791 L 56.6406 -52.1973 C 60.5957 -49.707 60.6445 -43.7012 56.6406 -41.2109 L 42.8223 -32.4707 C 36.2793 -28.3691 31.1035 -37.6465 37.1582 -41.3086 Z M 58.7402 -33.8379 C 58.7402 -36.7188 61.0352 -38.916 63.8672 -38.916 L 82.3242 -38.916 C 85.2051 -38.916 87.4023 -36.7188 87.4023 -33.8379 C 87.4023 -31.0059 85.2051 -28.6621 82.3242 -28.6621 L 63.8672 -28.6621 C 60.9863 -28.6621 58.7402 -31.0059 58.7402 -33.8379 Z"/>
  </g>
  <g id="Bold-M" transform="matrix(1 0 0 1 2269.18 1126)">
   <path d="M 29.8828 11.6699 L 111.719 11.6699 C 122.949 11.6699 129.15 5.46875 129.15 -5.66406 L 129.15 -64.6973 C 129.15 -75.8789 122.949 -82.0312 111.719 -82.0312 L 29.8828 -82.0312 C 18.6523 -82.0312 12.4512 -75.8789 12.4512 -64.6973 L 12.4512 -5.66406 C 12.4512 5.51758 18.6523 11.6699 29.8828 11.6699 Z M 35.6445 -41.6504 L 45.6055 -47.6562 L 35.6445 -53.7109 C 30.3223 -56.9336 34.9121 -65.0391 40.6738 -61.377 L 54.6875 -52.6367 C 58.2031 -50.3906 58.3008 -45.0195 54.6875 -42.7246 L 40.6738 -33.8867 C 34.8633 -30.2734 30.3223 -38.4277 35.6445 -41.6504 Z M 57.1289 -34.8145 C 57.1289 -37.3047 59.1309 -39.2578 61.5723 -39.2578 L 80.2734 -39.2578 C 82.8125 -39.2578 84.7656 -37.3047 84.7656 -34.8145 C 84.7656 -32.3242 82.8125 -30.2734 80.2734 -30.2734 L 61.5723 -30.2734 C 59.082 -30.2734 57.1289 -32.3242 57.1289 -34.8145 Z"/>
  </g>
  <g id="Semibold-M" transform="matrix(1 0 0 1 1972.76 1126)">
   <path d="M 29.1016 10.9863 L 111.914 10.9863 C 122.803 10.9863 128.564 5.17578 128.564 -5.56641 L 128.564 -64.8438 C 128.564 -75.5859 122.803 -81.3477 111.914 -81.3477 L 29.1016 -81.3477 C 18.2617 -81.3477 12.4512 -75.5859 12.4512 -64.8438 L 12.4512 -5.56641 C 12.4512 5.22461 18.2617 10.9863 29.1016 10.9863 Z M 34.6191 -41.8457 L 45.3613 -48.3398 L 34.6191 -54.834 C 29.7852 -57.7637 33.9355 -65.1367 39.1602 -61.8164 L 53.3691 -52.9297 C 56.5918 -50.8789 56.6895 -45.8984 53.3691 -43.7988 L 39.1602 -34.8633 C 33.8867 -31.543 29.7852 -38.916 34.6191 -41.8457 Z M 56.0059 -35.4492 C 56.0059 -37.7441 57.7637 -39.502 60.0098 -39.502 L 78.9062 -39.502 C 81.2012 -39.502 82.9102 -37.7441 82.9102 -35.4492 C 82.9102 -33.2031 81.2012 -31.3965 78.9062 -31.3965 L 60.0098 -31.3965 C 57.7637 -31.3965 56.0059 -33.2031 56.0059 -35.4492 Z"/>
  </g>
  <g id="Medium-M" transform="matrix(1 0 0 1 1676.24 1126)">
   <path d="M 28.5156 10.4492 L 112.061 10.4492 C 122.656 10.4492 128.174 4.98047 128.174 -5.46875 L 128.174 -64.8926 C 128.174 -75.3418 122.656 -80.8105 112.061 -80.8105 L 28.5156 -80.8105 C 17.9688 -80.8105 12.4512 -75.3906 12.4512 -64.8926 L 12.4512 -5.46875 C 12.4512 4.98047 17.9688 10.4492 28.5156 10.4492 Z M 33.8379 -41.9922 L 45.166 -48.877 L 33.8379 -55.7129 C 29.3457 -58.4473 33.1543 -65.1855 38.0371 -62.1094 L 52.3438 -53.1738 C 55.3711 -51.2695 55.4688 -46.5332 52.3438 -44.5801 L 38.0371 -35.5957 C 33.1543 -32.5195 29.3945 -39.3555 33.8379 -41.9922 Z M 55.127 -35.9863 C 55.127 -38.0371 56.7871 -39.6484 58.8379 -39.6484 L 77.832 -39.6484 C 79.9316 -39.6484 81.543 -38.0371 81.543 -35.9863 C 81.543 -33.9355 79.9316 -32.2266 77.832 -32.2266 L 58.8379 -32.2266 C 56.7871 -32.2266 55.127 -33.9355 55.127 -35.9863 Z"/>
  </g>
  <g id="Regular-M" transform="matrix(1 0 0 1 1379.82 1126)">
   <path d="M 27.7832 9.76562 L 112.256 9.76562 C 122.51 9.76562 127.588 4.6875 127.588 -5.37109 L 127.588 -64.9902 C 127.588 -75.0488 122.51 -80.127 112.256 -80.127 L 27.7832 -80.127 C 17.5781 -80.127 12.4512 -75.0977 12.4512 -64.9902 L 12.4512 -5.37109 C 12.4512 4.73633 17.5781 9.76562 27.7832 9.76562 Z M 32.8125 -42.2363 L 44.873 -49.5605 L 32.8125 -56.8359 C 28.8086 -59.2773 32.1777 -65.2832 36.5234 -62.5 L 51.0254 -53.4668 C 53.7598 -51.709 53.9062 -47.4121 51.0254 -45.6543 L 36.5234 -36.5723 C 32.1777 -33.7891 28.8574 -39.8438 32.8125 -42.2363 Z M 54.0527 -36.6211 C 54.0527 -38.4766 55.4688 -39.8926 57.2754 -39.8926 L 76.416 -39.8926 C 78.3203 -39.8926 79.7363 -38.4766 79.7363 -36.6211 C 79.7363 -34.8145 78.3203 -33.3496 76.416 -33.3496 L 57.2754 -33.3496 C 55.4688 -33.3496 54.0527 -34.8145 54.0527 -36.6211 Z"/>
  </g>
  <g id="Light-M" transform="matrix(1 0 0 1 1083.5 1126)">
   <path d="M 26.8555 9.0332 L 112.402 9.0332 C 121.973 9.0332 126.807 4.15039 126.807 -5.22461 L 126.807 -65.0879 C 126.807 -74.5117 121.973 -79.3945 112.402 -79.3945 L 26.8555 -79.3945 C 17.334 -79.3945 12.4512 -74.5605 12.4512 -65.0879 L 12.4512 -5.22461 C 12.4512 4.19922 17.334 9.0332 26.8555 9.0332 Z M 32.3242 -42.4316 L 45.1172 -50.1953 L 32.3242 -57.959 C 29.0527 -59.9121 31.7871 -64.6484 35.2051 -62.4512 L 49.8535 -53.3203 C 52.002 -51.9531 52.1484 -48.4863 49.8535 -47.0703 L 35.2051 -37.9395 C 31.7871 -35.7422 29.1016 -40.5273 32.3242 -42.4316 Z M 52.6855 -37.4023 C 52.6855 -38.8672 53.8086 -39.9902 55.2734 -39.9902 L 74.2188 -39.9902 C 75.7324 -39.9902 76.8555 -38.8672 76.8555 -37.4023 C 76.8555 -35.9863 75.7324 -34.8145 74.2188 -34.8145 L 55.2734 -34.8145 C 53.8086 -34.8145 52.6855 -35.9863 52.6855 -37.4023 Z"/>
  </g>
  <g id="Thin-M" transform="matrix(1 0 0 1 787.33 1126)">
   <path d="M 25.6348 8.05664 L 112.598 8.05664 C 121.24 8.05664 125.732 3.4668 125.732 -5.0293 L 125.732 -65.2344 C 125.732 -73.7305 121.24 -78.3691 112.598 -78.3691 L 25.6348 -78.3691 C 16.9922 -78.3691 12.4512 -73.877 12.4512 -65.2344 L 12.4512 -5.0293 C 12.4512 3.56445 16.9922 8.05664 25.6348 8.05664 Z M 31.6406 -42.7246 L 45.4102 -51.0742 L 31.6406 -59.375 C 29.3457 -60.791 31.2988 -63.7695 33.4961 -62.4023 L 48.2422 -53.1738 C 49.707 -52.2461 49.8535 -49.9023 48.2422 -48.9746 L 33.4961 -39.6973 C 31.2988 -38.3301 29.4434 -41.4551 31.6406 -42.7246 Z M 50.9277 -38.4766 C 50.9277 -39.4043 51.6602 -40.1367 52.6367 -40.1367 L 71.3379 -40.1367 C 72.3145 -40.1367 72.998 -39.4043 72.998 -38.4766 C 72.998 -37.5 72.3145 -36.7676 71.3379 -36.7676 L 52.6367 -36.7676 C 51.6602 -36.7676 50.9277 -37.5 50.9277 -38.4766 Z"/>
  </g>
  <g id="Ultralight-M" transform="matrix(1 0 0 1 490.888 1126)">
   <path d="M 25 7.56836 L 112.695 7.56836 C 120.85 7.56836 125.195 3.125 125.195 -4.98047 L 125.195 -65.2832 C 125.195 -73.3887 120.85 -77.832 112.695 -77.832 L 25 -77.832 C 16.7969 -77.832 12.4512 -73.4863 12.4512 -65.2832 L 12.4512 -4.98047 C 12.4512 3.22266 16.7969 7.56836 25 7.56836 Z M 31.2988 -42.8711 L 45.6055 -51.5137 L 31.2988 -60.1074 C 29.4922 -61.2305 31.0547 -63.3301 32.6172 -62.3535 L 47.4609 -53.0762 C 48.5352 -52.3926 48.6816 -50.6348 47.4609 -49.9023 L 32.6172 -40.625 C 31.0547 -39.6484 29.6387 -41.8945 31.2988 -42.8711 Z M 50.0488 -38.9648 C 50.0488 -39.6973 50.5371 -40.1855 51.2695 -40.1855 L 69.8242 -40.1855 C 70.5566 -40.1855 71.0449 -39.6973 71.0449 -38.9648 C 71.0449 -38.2324 70.5566 -37.793 69.8242 -37.793 L 51.2695 -37.793 C 50.5371 -37.793 50.0488 -38.2324 50.0488 -38.9648 Z"/>
  </g>
  <g id="Black-S" transform="matrix(1 0 0 1 2877.35 696)">
   <path d="M 25 2.92969 L 87.1094 2.92969 C 96.6797 2.92969 102.344 -2.73438 102.344 -12.3047 L 102.344 -58.1055 C 102.344 -67.6758 96.6797 -73.3398 87.1094 -73.3398 L 25 -73.3398 C 15.4297 -73.3398 9.76562 -67.6758 9.76562 -58.1055 L 9.76562 -12.3047 C 9.76562 -2.73438 15.4297 2.92969 25 2.92969 Z M 30.0781 -39.7949 L 36.2793 -43.5547 L 30.0293 -47.3633 C 24.8535 -50.4395 29.3945 -58.4473 34.9609 -54.8828 L 45.6055 -48.2422 C 48.9746 -46.1426 49.0234 -41.0645 45.6055 -38.916 L 34.9609 -32.1777 C 29.3457 -28.6621 24.8535 -36.6211 30.0781 -39.7949 Z M 47.0703 -33.4961 C 47.0703 -35.9863 49.0723 -37.8906 51.5137 -37.8906 L 65.8203 -37.8906 C 68.3105 -37.8906 70.2148 -35.9863 70.2148 -33.4961 C 70.2148 -31.0547 68.3105 -29.0527 65.8203 -29.0527 L 51.5137 -29.0527 C 49.0234 -29.0527 47.0703 -31.0547 47.0703 -33.4961 Z"/>
  </g>
  <g id="Heavy-S" transform="matrix(1 0 0 1 2580.88 696)">
   <path d="M 24.3652 2.34375 L 87.3047 2.34375 C 96.582 2.34375 101.855 -2.97852 101.855 -12.207 L 101.855 -58.2031 C 101.855 -67.4316 96.582 -72.7539 87.3047 -72.7539 L 24.3652 -72.7539 C 15.0879 -72.7539 9.76562 -67.4316 9.76562 -58.2031 L 9.76562 -12.207 C 9.76562 -2.97852 15.0879 2.34375 24.3652 2.34375 Z M 29.1016 -39.9902 L 35.9863 -44.1895 L 29.0527 -48.3887 C 24.2676 -51.2207 28.418 -58.5938 33.5938 -55.2734 L 44.3848 -48.584 C 47.5098 -46.582 47.6074 -41.7969 44.3848 -39.7949 L 33.5938 -33.0078 C 28.3691 -29.7363 24.2676 -37.0605 29.1016 -39.9902 Z M 46.0938 -34.082 C 46.0938 -36.377 47.9004 -38.1348 50.1465 -38.1348 L 64.6484 -38.1348 C 66.9434 -38.1348 68.7012 -36.377 68.7012 -34.082 C 68.7012 -31.8359 66.9434 -29.9805 64.6484 -29.9805 L 50.1465 -29.9805 C 47.8516 -29.9805 46.0938 -31.8359 46.0938 -34.082 Z"/>
  </g>
  <g id="Bold-S" transform="matrix(1 0 0 1 2284.41 696)">
   <path d="M 23.6328 1.66016 L 87.5 1.66016 C 96.4844 1.66016 101.367 -3.22266 101.367 -12.1094 L 101.367 -58.3008 C 101.367 -67.1875 96.4844 -72.0703 87.5 -72.0703 L 23.6328 -72.0703 C 14.6973 -72.0703 9.76562 -67.1875 9.76562 -58.3008 L 9.76562 -12.1094 C 9.76562 -3.22266 14.6973 1.66016 23.6328 1.66016 Z M 27.9785 -40.1855 L 35.6445 -44.873 L 27.9785 -49.5117 C 23.6328 -52.0996 27.3926 -58.7402 32.0801 -55.7617 L 43.0664 -48.9258 C 45.9473 -47.0703 46.0449 -42.6758 43.0664 -40.8203 L 32.0801 -33.8867 C 27.3438 -30.9082 23.6328 -37.5977 27.9785 -40.1855 Z M 45.0195 -34.7168 C 45.0195 -36.7676 46.6309 -38.3789 48.6816 -38.3789 L 63.3789 -38.3789 C 65.4297 -38.3789 67.041 -36.7676 67.041 -34.7168 C 67.041 -32.7148 65.4297 -31.0547 63.3789 -31.0547 L 48.6816 -31.0547 C 46.6309 -31.0547 45.0195 -32.7148 45.0195 -34.7168 Z"/>
  </g>
  <g id="Semibold-S" transform="matrix(1 0 0 1 1987.9 696)">
   <path d="M 23.0957 1.17188 L 87.6465 1.17188 C 96.3867 1.17188 100.977 -3.36914 100.977 -12.0117 L 100.977 -58.3984 C 100.977 -67.041 96.3867 -71.582 87.6465 -71.582 L 23.0957 -71.582 C 14.4043 -71.582 9.76562 -67.041 9.76562 -58.3984 L 9.76562 -12.0117 C 9.76562 -3.36914 14.4043 1.17188 23.0957 1.17188 Z M 27.2461 -40.332 L 35.4492 -45.3125 L 27.2461 -50.293 C 23.1934 -52.6855 26.6602 -58.8867 31.0547 -56.0547 L 42.1387 -49.1699 C 44.873 -47.4121 44.9219 -43.2617 42.1387 -41.5039 L 31.0547 -34.5215 C 26.6602 -31.7383 23.1934 -37.9395 27.2461 -40.332 Z M 44.2383 -35.1562 C 44.2383 -37.0605 45.752 -38.5254 47.6562 -38.5254 L 62.5 -38.5254 C 64.4043 -38.5254 65.8691 -37.0605 65.8691 -35.1562 C 65.8691 -33.3008 64.4043 -31.7871 62.5 -31.7871 L 47.6562 -31.7871 C 45.752 -31.7871 44.2383 -33.3008 44.2383 -35.1562 Z"/>
  </g>
  <g id="Medium-S" transform="matrix(1 0 0 1 1691.31 696)">
   <path d="M 22.7051 0.830078 L 87.7441 0.830078 C 96.3379 0.830078 100.732 -3.51562 100.732 -11.9629 L 100.732 -58.4473 C 100.732 -66.8945 96.3379 -71.2402 87.7441 -71.2402 L 22.7051 -71.2402 C 14.209 -71.2402 9.76562 -66.8945 9.76562 -58.4473 L 9.76562 -11.9629 C 9.76562 -3.51562 14.209 0.830078 22.7051 0.830078 Z M 26.709 -40.4785 L 35.2539 -45.7031 L 26.6602 -50.8789 C 22.9004 -53.1738 26.123 -58.9844 30.2734 -56.2988 L 41.4551 -49.3652 C 44.043 -47.7051 44.0918 -43.7012 41.4551 -42.041 L 30.2734 -35.0098 C 26.0742 -32.373 22.9004 -38.1836 26.709 -40.4785 Z M 43.7012 -35.498 C 43.7012 -37.2559 45.1172 -38.6719 46.875 -38.6719 L 61.8164 -38.6719 C 63.623 -38.6719 64.9902 -37.2559 64.9902 -35.498 C 64.9902 -33.7402 63.623 -32.3242 61.8164 -32.3242 L 46.875 -32.3242 C 45.0684 -32.3242 43.7012 -33.7402 43.7012 -35.498 Z"/>
  </g>
  <g id="Regular-S" transform="matrix(1 0 0 1 1394.79 696)">
   <path d="M 22.2168 0.390625 L 87.8906 0.390625 C 96.2402 0.390625 100.342 -3.71094 100.342 -11.9141 L 100.342 -58.4961 C 100.342 -66.6992 96.2402 -70.8008 87.8906 -70.8008 L 22.2168 -70.8008 C 13.916 -70.8008 9.76562 -66.6992 9.76562 -58.4961 L 9.76562 -11.9141 C 9.76562 -3.71094 13.916 0.390625 22.2168 0.390625 Z M 25.9277 -40.625 L 35.0586 -46.1426 L 25.9277 -51.6113 C 22.4609 -53.7598 25.3906 -59.082 29.248 -56.6406 L 40.5273 -49.6094 C 42.9688 -48.0469 43.0664 -44.2383 40.5273 -42.7246 L 29.248 -35.5957 C 25.3906 -33.1543 22.4609 -38.5254 25.9277 -40.625 Z M 42.9688 -35.9375 C 42.9688 -37.5488 44.2383 -38.8184 45.8496 -38.8184 L 60.9375 -38.8184 C 62.5977 -38.8184 63.8672 -37.5488 63.8672 -35.9375 C 63.8672 -34.375 62.5977 -33.0566 60.9375 -33.0566 L 45.8496 -33.0566 C 44.2383 -33.0566 42.9688 -34.375 42.9688 -35.9375 Z"/>
  </g>
  <g id="Light-S" transform="matrix(1 0 0 1 1098.42 696)">
   <path d="M 21.3867 -0.292969 L 88.0371 -0.292969 C 95.752 -0.292969 99.6582 -4.15039 99.6582 -11.7676 L 99.6582 -58.5938 C 99.6582 -66.2109 95.752 -70.1172 88.0371 -70.1172 L 21.3867 -70.1172 C 13.6719 -70.1172 9.76562 -66.2598 9.76562 -58.5938 L 9.76562 -11.7676 C 9.76562 -4.15039 13.6719 -0.292969 21.3867 -0.292969 Z M 25.4883 -40.8203 L 35.2539 -46.7285 L 25.4883 -52.5879 C 22.6562 -54.3457 25.0488 -58.4961 28.0762 -56.5918 L 39.502 -49.4629 C 41.4062 -48.2422 41.5039 -45.2148 39.502 -43.9453 L 28.0762 -36.8164 C 25.0488 -34.9121 22.7051 -39.1113 25.4883 -40.8203 Z M 41.7969 -36.6699 C 41.7969 -37.9395 42.7734 -38.916 44.043 -38.916 L 58.9844 -38.916 C 60.3027 -38.916 61.2793 -37.9395 61.2793 -36.6699 C 61.2793 -35.3516 60.3027 -34.3262 58.9844 -34.3262 L 44.043 -34.3262 C 42.7734 -34.3262 41.7969 -35.3516 41.7969 -36.6699 Z"/>
  </g>
  <g id="Thin-S" transform="matrix(1 0 0 1 802.174 696)">
   <path d="M 20.3125 -1.12305 L 88.1836 -1.12305 C 95.1172 -1.12305 98.7305 -4.78516 98.7305 -11.6211 L 98.7305 -58.6914 C 98.7305 -65.5762 95.1172 -69.2383 88.1836 -69.2383 L 20.3125 -69.2383 C 13.3789 -69.2383 9.76562 -65.625 9.76562 -58.6914 L 9.76562 -11.6211 C 9.76562 -4.6875 13.3789 -1.12305 20.3125 -1.12305 Z M 24.9023 -41.0645 L 35.5469 -47.4609 L 24.9023 -53.8574 C 22.9492 -55.0781 24.6094 -57.7637 26.5625 -56.543 L 38.0859 -49.3164 C 39.3555 -48.4863 39.4531 -46.4844 38.0859 -45.6055 L 26.5625 -38.3789 C 24.6094 -37.1582 22.998 -39.9414 24.9023 -41.0645 Z M 40.2344 -37.5488 C 40.2344 -38.4277 40.8691 -39.0137 41.6992 -39.0137 L 56.3965 -39.0137 C 57.2754 -39.0137 57.9102 -38.4277 57.9102 -37.5488 C 57.9102 -36.7188 57.2754 -36.084 56.3965 -36.084 L 41.6992 -36.084 C 40.8691 -36.084 40.2344 -36.7188 40.2344 -37.5488 Z"/>
  </g>
  <g id="Ultralight-S" transform="matrix(1 0 0 1 505.707 696)">
   <path d="M 19.7754 -1.5625 L 88.2812 -1.5625 C 94.8242 -1.5625 98.2422 -5.12695 98.2422 -11.5234 L 98.2422 -58.7891 C 98.2422 -65.2344 94.8242 -68.75 88.2812 -68.75 L 19.7754 -68.75 C 13.2324 -68.75 9.76562 -65.2832 9.76562 -58.7891 L 9.76562 -11.5234 C 9.76562 -5.0293 13.2324 -1.5625 19.7754 -1.5625 Z M 24.5605 -41.1621 L 35.6445 -47.8516 L 24.5605 -54.541 C 23.0469 -55.4688 24.3652 -57.373 25.7812 -56.4941 L 37.3535 -49.2188 C 38.3301 -48.6328 38.4277 -47.1191 37.3535 -46.4844 L 25.7812 -39.209 C 24.3652 -38.3301 23.1445 -40.332 24.5605 -41.1621 Z M 39.4531 -38.0371 C 39.4531 -38.6719 39.8926 -39.1113 40.5273 -39.1113 L 55.0781 -39.1113 C 55.7129 -39.1113 56.1523 -38.6719 56.1523 -38.0371 C 56.1523 -37.4023 55.7129 -36.9629 55.0781 -36.9629 L 40.5273 -36.9629 C 39.8926 -36.9629 39.4531 -37.4023 39.4531 -38.0371 Z"/>
  </g>
 </g>
</svg>
