<?xml version="1.0" encoding="UTF-8"?>
<!--Generator: Apple Native CoreSVG 148-->
<!DOCTYPE svg
PUBLIC "-//W3C//DTD SVG 1.1//EN"
       "http://www.w3.org/Graphics/SVG/1.1/DTD/svg11.dtd">
<svg version="1.1" xmlns="http://www.w3.org/2000/svg" xmlns:xlink="http://www.w3.org/1999/xlink" width="3300" height="2200">
 <!--glyph: "uni100150.medium", point size: 100.000000, font version: "Version 16.0d11e1", template writer version: "8"-->
 <g id="Notes">
  <rect height="2200" id="artboard" style="fill:white;opacity:1" width="3300" x="0" y="0"/>
  <line id="" style="fill:none;stroke:black;opacity:1;stroke-width:0.5;" x1="263" x2="3036" y1="292" y2="292"/>
  <text style="stroke:none;fill:black;font-family:-apple-system,&quot;SF Pro Display&quot;,&quot;SF Pro Text&quot;,Helvetica,sans-serif;font-weight:bold;" transform="matrix(1 0 0 1 263 322)">Weight/Scale Variations</text>
  <text style="stroke:none;fill:black;font-family:-apple-system,&quot;SF Pro Display&quot;,&quot;SF Pro Text&quot;,Helvetica,sans-serif;text-anchor:middle;" transform="matrix(1 0 0 1 559.711 322)">Ultralight</text>
  <text style="stroke:none;fill:black;font-family:-apple-system,&quot;SF Pro Display&quot;,&quot;SF Pro Text&quot;,Helvetica,sans-serif;text-anchor:middle;" transform="matrix(1 0 0 1 856.422 322)">Thin</text>
  <text style="stroke:none;fill:black;font-family:-apple-system,&quot;SF Pro Display&quot;,&quot;SF Pro Text&quot;,Helvetica,sans-serif;text-anchor:middle;" transform="matrix(1 0 0 1 1153.13 322)">Light</text>
  <text style="stroke:none;fill:black;font-family:-apple-system,&quot;SF Pro Display&quot;,&quot;SF Pro Text&quot;,Helvetica,sans-serif;text-anchor:middle;" transform="matrix(1 0 0 1 1449.84 322)">Regular</text>
  <text style="stroke:none;fill:black;font-family:-apple-system,&quot;SF Pro Display&quot;,&quot;SF Pro Text&quot;,Helvetica,sans-serif;text-anchor:middle;" transform="matrix(1 0 0 1 1746.56 322)">Medium</text>
  <text style="stroke:none;fill:black;font-family:-apple-system,&quot;SF Pro Display&quot;,&quot;SF Pro Text&quot;,Helvetica,sans-serif;text-anchor:middle;" transform="matrix(1 0 0 1 2043.27 322)">Semibold</text>
  <text style="stroke:none;fill:black;font-family:-apple-system,&quot;SF Pro Display&quot;,&quot;SF Pro Text&quot;,Helvetica,sans-serif;text-anchor:middle;" transform="matrix(1 0 0 1 2339.98 322)">Bold</text>
  <text style="stroke:none;fill:black;font-family:-apple-system,&quot;SF Pro Display&quot;,&quot;SF Pro Text&quot;,Helvetica,sans-serif;text-anchor:middle;" transform="matrix(1 0 0 1 2636.69 322)">Heavy</text>
  <text style="stroke:none;fill:black;font-family:-apple-system,&quot;SF Pro Display&quot;,&quot;SF Pro Text&quot;,Helvetica,sans-serif;text-anchor:middle;" transform="matrix(1 0 0 1 2933.4 322)">Black</text>
  <line id="" style="fill:none;stroke:black;opacity:1;stroke-width:0.5;" x1="263" x2="3036" y1="1903" y2="1903"/>
  <g id="" transform="matrix(1 0 0 1 263 1933)">
   <path d="M 9.24805 0.830078 C 13.5547 0.830078 17.1387 -2.74414 17.1387 -7.05078 C 17.1387 -11.3574 13.5449 -14.9316 9.23828 -14.9316 C 4.94141 -14.9316 1.36719 -11.3574 1.36719 -7.05078 C 1.36719 -2.74414 4.95117 0.830078 9.24805 0.830078 Z M 9.24805 -0.654297 C 5.70312 -0.654297 2.87109 -3.49609 2.87109 -7.05078 C 2.87109 -10.6055 5.69336 -13.4473 9.23828 -13.4473 C 12.793 -13.4473 15.6348 -10.6055 15.6445 -7.05078 C 15.6543 -3.49609 12.8027 -0.654297 9.24805 -0.654297 Z M 9.22852 -3.62305 C 9.69727 -3.62305 9.9707 -3.93555 9.9707 -4.45312 L 9.9707 -6.31836 L 12.002 -6.31836 C 12.5 -6.31836 12.832 -6.57227 12.832 -7.04102 C 12.832 -7.51953 12.5195 -7.7832 12.002 -7.7832 L 9.9707 -7.7832 L 9.9707 -9.81445 C 9.9707 -10.332 9.69727 -10.6543 9.22852 -10.6543 C 8.75977 -10.6543 8.50586 -10.3125 8.50586 -9.81445 L 8.50586 -7.7832 L 6.49414 -7.7832 C 5.97656 -7.7832 5.64453 -7.51953 5.64453 -7.04102 C 5.64453 -6.57227 5.99609 -6.31836 6.49414 -6.31836 L 8.50586 -6.31836 L 8.50586 -4.45312 C 8.50586 -3.95508 8.75977 -3.62305 9.22852 -3.62305 Z"/>
  </g>
  <g id="" transform="matrix(1 0 0 1 281.506 1933)">
   <path d="M 11.709 2.91016 C 17.1582 2.91016 21.6699 -1.61133 21.6699 -7.05078 C 21.6699 -12.5 17.1484 -17.0117 11.6992 -17.0117 C 6.25977 -17.0117 1.74805 -12.5 1.74805 -7.05078 C 1.74805 -1.61133 6.26953 2.91016 11.709 2.91016 Z M 11.709 1.25 C 7.09961 1.25 3.41797 -2.44141 3.41797 -7.05078 C 3.41797 -11.6602 7.08984 -15.3516 11.6992 -15.3516 C 16.3086 -15.3516 20 -11.6602 20.0098 -7.05078 C 20.0195 -2.44141 16.3184 1.25 11.709 1.25 Z M 11.6797 -2.66602 C 12.207 -2.66602 12.5098 -3.01758 12.5098 -3.59375 L 12.5098 -6.23047 L 15.3223 -6.23047 C 15.8691 -6.23047 16.25 -6.51367 16.25 -7.03125 C 16.25 -7.55859 15.8887 -7.86133 15.3223 -7.86133 L 12.5098 -7.86133 L 12.5098 -10.6836 C 12.5098 -11.25 12.207 -11.6113 11.6797 -11.6113 C 11.1621 -11.6113 10.8789 -11.2305 10.8789 -10.6836 L 10.8789 -7.86133 L 8.07617 -7.86133 C 7.50977 -7.86133 7.13867 -7.55859 7.13867 -7.03125 C 7.13867 -6.51367 7.5293 -6.23047 8.07617 -6.23047 L 10.8789 -6.23047 L 10.8789 -3.59375 C 10.8789 -3.03711 11.1621 -2.66602 11.6797 -2.66602 Z"/>
  </g>
  <g id="" transform="matrix(1 0 0 1 304.924 1933)">
   <path d="M 14.9707 5.66406 C 21.9336 5.66406 27.6953 -0.0976562 27.6953 -7.05078 C 27.6953 -14.0137 21.9238 -19.7754 14.9609 -19.7754 C 8.00781 -19.7754 2.25586 -14.0137 2.25586 -7.05078 C 2.25586 -0.0976562 8.01758 5.66406 14.9707 5.66406 Z M 14.9707 3.84766 C 8.93555 3.84766 4.08203 -1.01562 4.08203 -7.05078 C 4.08203 -13.0957 8.92578 -17.9492 14.9609 -17.9492 C 21.0059 -17.9492 25.8594 -13.0957 25.8691 -7.05078 C 25.8789 -1.01562 21.0156 3.84766 14.9707 3.84766 Z M 14.9414 -1.38672 C 15.5176 -1.38672 15.8594 -1.77734 15.8594 -2.38281 L 15.8594 -6.13281 L 19.7754 -6.13281 C 20.3711 -6.13281 20.7812 -6.46484 20.7812 -7.02148 C 20.7812 -7.59766 20.3906 -7.93945 19.7754 -7.93945 L 15.8594 -7.93945 L 15.8594 -11.8652 C 15.8594 -12.4805 15.5176 -12.8711 14.9414 -12.8711 C 14.375 -12.8711 14.0527 -12.4609 14.0527 -11.8652 L 14.0527 -7.93945 L 10.1465 -7.93945 C 9.53125 -7.93945 9.13086 -7.59766 9.13086 -7.02148 C 9.13086 -6.46484 9.55078 -6.13281 10.1465 -6.13281 L 14.0527 -6.13281 L 14.0527 -2.38281 C 14.0527 -1.79688 14.375 -1.38672 14.9414 -1.38672 Z"/>
  </g>
  <text style="stroke:none;fill:black;font-family:-apple-system,&quot;SF Pro Display&quot;,&quot;SF Pro Text&quot;,Helvetica,sans-serif;font-weight:bold;" transform="matrix(1 0 0 1 263 1953)">Design Variations</text>
  <text style="stroke:none;fill:black;font-family:-apple-system,&quot;SF Pro Display&quot;,&quot;SF Pro Text&quot;,Helvetica,sans-serif;" transform="matrix(1 0 0 1 263 1971)">Symbols are supported in up to nine weights and three scales.</text>
  <text style="stroke:none;fill:black;font-family:-apple-system,&quot;SF Pro Display&quot;,&quot;SF Pro Text&quot;,Helvetica,sans-serif;" transform="matrix(1 0 0 1 263 1989)">For optimal layout with text and other symbols, vertically align</text>
  <text style="stroke:none;fill:black;font-family:-apple-system,&quot;SF Pro Display&quot;,&quot;SF Pro Text&quot;,Helvetica,sans-serif;" transform="matrix(1 0 0 1 263 2007)">symbols with the adjacent text.</text>
  <line id="" style="fill:none;stroke:#00AEEF;stroke-width:0.5;opacity:1.0;" x1="776" x2="776" y1="1919" y2="1933"/>
  <g id="" transform="matrix(1 0 0 1 776 1933)">
   <path d="M 3.31055 0.126953 C 3.82812 0.126953 4.08203 -0.0683594 4.26758 -0.605469 L 5.52734 -4.0625 L 11.2891 -4.0625 L 12.5488 -0.605469 C 12.7344 -0.0683594 12.9883 0.126953 13.4961 0.126953 C 14.0137 0.126953 14.3457 -0.185547 14.3457 -0.673828 C 14.3457 -0.839844 14.3164 -0.986328 14.2383 -1.20117 L 9.6582 -13.3887 C 9.43359 -13.9941 9.0332 -14.2871 8.4082 -14.2871 C 7.80273 -14.2871 7.39258 -13.9941 7.17773 -13.3984 L 2.59766 -1.19141 C 2.51953 -0.976562 2.49023 -0.830078 2.49023 -0.664062 C 2.49023 -0.175781 2.80273 0.126953 3.31055 0.126953 Z M 6.00586 -5.53711 L 8.37891 -12.1094 L 8.42773 -12.1094 L 10.8008 -5.53711 Z"/>
  </g>
  <line id="" style="fill:none;stroke:#00AEEF;stroke-width:0.5;opacity:1.0;" x1="792.836" x2="792.836" y1="1919" y2="1933"/>
  <text style="stroke:none;fill:black;font-family:-apple-system,&quot;SF Pro Display&quot;,&quot;SF Pro Text&quot;,Helvetica,sans-serif;font-weight:bold;" transform="matrix(1 0 0 1 776 1953)">Margins</text>
  <text style="stroke:none;fill:black;font-family:-apple-system,&quot;SF Pro Display&quot;,&quot;SF Pro Text&quot;,Helvetica,sans-serif;" transform="matrix(1 0 0 1 776 1971)">Leading and trailing margins on the left and right side of each symbol</text>
  <text style="stroke:none;fill:black;font-family:-apple-system,&quot;SF Pro Display&quot;,&quot;SF Pro Text&quot;,Helvetica,sans-serif;" transform="matrix(1 0 0 1 776 1989)">can be adjusted by modifying the x-location of the margin guidelines.</text>
  <text style="stroke:none;fill:black;font-family:-apple-system,&quot;SF Pro Display&quot;,&quot;SF Pro Text&quot;,Helvetica,sans-serif;" transform="matrix(1 0 0 1 776 2007)">Modifications are automatically applied proportionally to all</text>
  <text style="stroke:none;fill:black;font-family:-apple-system,&quot;SF Pro Display&quot;,&quot;SF Pro Text&quot;,Helvetica,sans-serif;" transform="matrix(1 0 0 1 776 2025)">scales and weights.</text>
  <g id="" transform="matrix(1 0 0 1 1289 1933)">
   <path d="M 2.8418 1.86523 L 4.54102 3.57422 C 5.40039 4.44336 6.38672 4.38477 7.31445 3.35938 L 17.4902 -7.85156 C 17.7539 -7.76367 18.0273 -7.7832 18.3398 -7.8418 L 19.4043 -8.03711 L 20.0684 -7.36328 L 20.0293 -6.80664 C 19.9902 -6.30859 20.1172 -5.92773 20.6055 -5.44922 L 21.3672 -4.70703 C 21.8457 -4.22852 22.4609 -4.19922 22.9297 -4.66797 L 25.8398 -7.58789 C 26.3086 -8.05664 26.2891 -8.65234 25.8105 -9.13086 L 25.0391 -9.89258 C 24.5605 -10.3711 24.1895 -10.5273 23.7109 -10.4883 L 23.1348 -10.4395 L 22.4902 -11.0742 L 22.7344 -12.1973 C 22.8613 -12.7637 22.7051 -13.2031 22.1191 -13.7891 L 19.9219 -15.9766 C 16.582 -19.2969 12.1484 -19.2188 9.25781 -16.3281 C 8.83789 -15.918 8.80859 -15.3418 9.04297 -14.9512 C 9.27734 -14.5898 9.73633 -14.3555 10.3809 -14.5215 C 11.8457 -14.8633 13.3691 -14.9219 14.7949 -13.9844 L 14.209 -12.5293 C 14.0137 -12.0508 13.9844 -11.6504 14.1113 -11.2891 L 3.04688 -0.898438 C 2.06055 0.0195312 1.98242 0.996094 2.8418 1.86523 Z M 10.752 -15.957 C 13.1836 -17.7344 16.4746 -17.4316 18.7012 -15.2051 L 21.1328 -12.793 C 21.3672 -12.5586 21.4062 -12.373 21.3379 -12.0312 L 21.0156 -10.5469 L 22.5195 -9.0625 L 23.5059 -9.12109 C 23.7598 -9.13086 23.8379 -9.11133 24.0332 -8.91602 L 24.6094 -8.33984 L 22.168 -5.89844 L 21.5918 -6.47461 C 21.3965 -6.66992 21.3672 -6.74805 21.377 -7.01172 L 21.4453 -7.98828 L 19.9512 -9.47266 L 18.4277 -9.21875 C 18.1055 -9.15039 17.959 -9.17969 17.7148 -9.41406 L 15.7129 -11.416 C 15.459 -11.6504 15.4297 -11.8164 15.5859 -12.1875 L 16.4648 -14.2773 C 14.9023 -15.7324 12.8711 -16.3574 10.8398 -15.7617 C 10.6836 -15.7227 10.625 -15.8496 10.752 -15.957 Z M 5.27344 2.30469 L 4.10156 1.14258 C 3.63281 0.683594 3.74023 0.341797 4.14062 -0.0195312 L 14.9512 -10.1953 L 16.416 -8.71094 L 6.42578 2.27539 C 6.07422 2.67578 5.74219 2.77344 5.27344 2.30469 Z"/>
  </g>
  <text style="stroke:none;fill:black;font-family:-apple-system,&quot;SF Pro Display&quot;,&quot;SF Pro Text&quot;,Helvetica,sans-serif;font-weight:bold;" transform="matrix(1 0 0 1 1289 1953)">Exporting</text>
  <text style="stroke:none;fill:black;font-family:-apple-system,&quot;SF Pro Display&quot;,&quot;SF Pro Text&quot;,Helvetica,sans-serif;" transform="matrix(1 0 0 1 1289 1971)">Symbols should be outlined when exporting to ensure the</text>
  <text style="stroke:none;fill:black;font-family:-apple-system,&quot;SF Pro Display&quot;,&quot;SF Pro Text&quot;,Helvetica,sans-serif;" transform="matrix(1 0 0 1 1289 1989)">design is preserved when submitting to Xcode.</text>
  <text id="template-version" style="stroke:none;fill:black;font-family:-apple-system,&quot;SF Pro Display&quot;,&quot;SF Pro Text&quot;,Helvetica,sans-serif;text-anchor:end;" transform="matrix(1 0 0 1 3036 1933)">Template v.2.0</text>
  <text style="stroke:none;fill:black;font-family:-apple-system,&quot;SF Pro Display&quot;,&quot;SF Pro Text&quot;,Helvetica,sans-serif;text-anchor:end;" transform="matrix(1 0 0 1 3036 1951)">Requires Xcode 12 or greater</text>
  <text style="stroke:none;fill:black;font-family:-apple-system,&quot;SF Pro Display&quot;,&quot;SF Pro Text&quot;,Helvetica,sans-serif;text-anchor:end;" transform="matrix(1 0 0 1 3036 1969)">Generated from textformat.size</text>
  <text style="stroke:none;fill:black;font-family:-apple-system,&quot;SF Pro Display&quot;,&quot;SF Pro Text&quot;,Helvetica,sans-serif;text-anchor:end;" transform="matrix(1 0 0 1 3036 1987)">Typeset at 100 points</text>
  <text style="stroke:none;fill:black;font-family:-apple-system,&quot;SF Pro Display&quot;,&quot;SF Pro Text&quot;,Helvetica,sans-serif;" transform="matrix(1 0 0 1 263 726)">Small</text>
  <text style="stroke:none;fill:black;font-family:-apple-system,&quot;SF Pro Display&quot;,&quot;SF Pro Text&quot;,Helvetica,sans-serif;" transform="matrix(1 0 0 1 263 1156)">Medium</text>
  <text style="stroke:none;fill:black;font-family:-apple-system,&quot;SF Pro Display&quot;,&quot;SF Pro Text&quot;,Helvetica,sans-serif;" transform="matrix(1 0 0 1 263 1586)">Large</text>
 </g>
 <g id="Guides">
  <g id="H-reference" style="fill:#27AAE1;stroke:none;" transform="matrix(1 0 0 1 339 696)">
   <path d="M 0.976562 0 L 3.66211 0 L 12.9883 -24.4629 L 45.7031 -24.4629 L 55.0781 0 L 57.7148 0 L 30.6152 -70.459 L 28.125 -70.459 Z M 29.2969 -67.1387 L 29.3945 -67.1387 L 44.873 -26.709 L 13.8672 -26.709 Z"/>
  </g>
  <line id="Baseline-S" style="fill:none;stroke:#27AAE1;opacity:1;stroke-width:0.5;" x1="263" x2="3036" y1="696" y2="696"/>
  <line id="Capline-S" style="fill:none;stroke:#27AAE1;opacity:1;stroke-width:0.5;" x1="263" x2="3036" y1="625.541" y2="625.541"/>
  <g id="H-reference" style="fill:#27AAE1;stroke:none;" transform="matrix(1 0 0 1 339 1126)">
   <path d="M 0.976562 0 L 3.66211 0 L 12.9883 -24.4629 L 45.7031 -24.4629 L 55.0781 0 L 57.7148 0 L 30.6152 -70.459 L 28.125 -70.459 Z M 29.2969 -67.1387 L 29.3945 -67.1387 L 44.873 -26.709 L 13.8672 -26.709 Z"/>
  </g>
  <line id="Baseline-M" style="fill:none;stroke:#27AAE1;opacity:1;stroke-width:0.5;" x1="263" x2="3036" y1="1126" y2="1126"/>
  <line id="Capline-M" style="fill:none;stroke:#27AAE1;opacity:1;stroke-width:0.5;" x1="263" x2="3036" y1="1055.54" y2="1055.54"/>
  <g id="H-reference" style="fill:#27AAE1;stroke:none;" transform="matrix(1 0 0 1 339 1556)">
   <path d="M 0.976562 0 L 3.66211 0 L 12.9883 -24.4629 L 45.7031 -24.4629 L 55.0781 0 L 57.7148 0 L 30.6152 -70.459 L 28.125 -70.459 Z M 29.2969 -67.1387 L 29.3945 -67.1387 L 44.873 -26.709 L 13.8672 -26.709 Z"/>
  </g>
  <line id="Baseline-L" style="fill:none;stroke:#27AAE1;opacity:1;stroke-width:0.5;" x1="263" x2="3036" y1="1556" y2="1556"/>
  <line id="Capline-L" style="fill:none;stroke:#27AAE1;opacity:1;stroke-width:0.5;" x1="263" x2="3036" y1="1485.54" y2="1485.54"/>
  <line id="left-margin" style="fill:none;stroke:#00AEEF;stroke-width:0.5;opacity:1.0;" x1="1381.78" x2="1381.78" y1="1030.79" y2="1150.12"/>
  <line id="right-margin" style="fill:none;stroke:#00AEEF;stroke-width:0.5;opacity:1.0;" x1="1517.91" x2="1517.91" y1="1030.79" y2="1150.12"/>
 </g>
 <g id="Symbols">
  <g id="Black-L" transform="matrix(1 0 0 1 2831.2 1556)">
   <path d="M 110.107 14.502 C 117.529 14.502 121.68 11.1816 123.633 3.36914 L 126.66 -6.68945 L 158.252 -6.68945 L 161.23 3.36914 C 163.232 11.1816 167.334 14.502 174.805 14.502 C 183.008 14.502 188.33 9.57031 188.33 2.05078 C 188.33 -0.976562 187.891 -3.36914 186.865 -6.39648 L 164.893 -69.6777 C 161.377 -80.0293 154.346 -84.9121 142.676 -84.9121 C 131.689 -84.9121 124.756 -79.9805 121.191 -69.7266 L 98.584 -5.22461 C 97.6562 -2.49023 97.2168 0.0976562 97.2168 2.44141 C 97.2168 9.91211 102.148 14.502 110.107 14.502 Z M 26.8066 14.8926 C 32.4219 14.8926 35.6934 11.8652 37.5977 4.73633 L 39.4531 -1.66016 L 63.2812 -1.66016 L 65.1855 5.0293 C 66.9922 12.0117 70.166 14.8926 76.3184 14.8926 C 82.4219 14.8926 86.8652 10.6934 86.8652 4.63867 C 86.8652 2.24609 86.4258 0.146484 85.4004 -2.63672 L 68.3105 -49.7559 C 65.0879 -58.5938 59.9609 -62.5 51.123 -62.5 C 42.8711 -62.5 37.793 -58.4473 34.6191 -49.7559 L 17.627 -2.63672 C 16.6992 -0.0976562 16.0645 2.68555 16.0645 4.63867 C 16.0645 11.0352 20.1172 14.8926 26.8066 14.8926 Z M 132.129 -26.0254 L 142.48 -61.4258 L 143.018 -61.4258 L 153.369 -26.0254 Z M 43.5059 -17.3828 L 50.5859 -43.2617 L 51.5137 -43.2617 L 58.9844 -17.3828 Z"/>
  </g>
  <g id="Heavy-L" transform="matrix(1 0 0 1 2538.06 1556)">
   <path d="M 104.59 13.6719 C 110.938 13.6719 114.404 10.8398 116.162 4.19922 L 120.605 -9.17969 L 153.76 -9.17969 L 158.203 4.19922 C 159.961 10.8398 163.428 13.6719 169.775 13.6719 C 176.709 13.6719 181.201 9.47266 181.201 3.125 C 181.201 0.585938 180.859 -1.46484 179.98 -4.05273 L 155.957 -71.4844 C 152.979 -80.127 147.07 -84.2773 137.354 -84.2773 C 128.174 -84.2773 122.363 -80.127 119.385 -71.4844 L 94.873 -3.125 C 94.0918 -0.78125 93.7012 1.41602 93.7012 3.41797 C 93.7012 9.7168 97.8516 13.6719 104.59 13.6719 Z M 125.391 -25.8789 L 137.158 -63.4277 L 137.646 -63.4277 L 149.414 -25.8789 Z M 25.3418 14.1113 C 30.1758 14.1113 32.959 11.5723 34.6191 5.51758 L 37.4512 -3.41797 L 61.7188 -3.41797 L 64.5508 5.71289 C 66.1621 11.6699 68.8965 14.1113 74.1699 14.1113 C 79.4434 14.1113 83.252 10.5469 83.252 5.32227 C 83.252 3.27148 82.8613 1.41602 81.9824 -0.976562 L 64.0625 -49.7559 C 61.3281 -57.3242 56.8848 -60.6445 49.4141 -60.6445 C 42.3828 -60.6445 37.9883 -57.2266 35.2539 -49.7559 L 17.3828 -0.976562 C 16.6016 1.2207 16.0645 3.56445 16.0645 5.32227 C 16.0645 10.8398 19.5801 14.1113 25.3418 14.1113 Z M 41.1133 -17.0898 L 48.8281 -43.4082 L 49.8535 -43.4082 L 57.8613 -17.0898 Z"/>
  </g>
  <g id="Bold-L" transform="matrix(1 0 0 1 2245.32 1556)">
   <path d="M 98.4375 12.6953 C 103.564 12.6953 106.299 10.498 107.812 5.12695 L 113.818 -12.0117 L 148.828 -12.0117 L 154.834 5.12695 C 156.299 10.498 159.082 12.6953 164.16 12.6953 C 169.678 12.6953 173.242 9.375 173.242 4.29688 C 173.242 2.29492 172.949 0.683594 172.217 -1.41602 L 145.898 -73.4375 C 143.555 -80.2246 138.965 -83.4961 131.445 -83.4961 C 124.268 -83.4961 119.727 -80.2246 117.383 -73.4863 L 90.7227 -0.78125 C 90.0391 1.17188 89.7461 2.88086 89.7461 4.49219 C 89.7461 9.57031 93.0664 12.6953 98.4375 12.6953 Z M 117.871 -25.7812 L 131.25 -65.6738 L 131.689 -65.6738 L 145.02 -25.7812 Z M 23.6816 13.2812 C 27.5879 13.2812 29.9316 11.2305 31.2988 6.34766 L 35.2539 -5.37109 L 59.9121 -5.37109 L 63.8184 6.49414 C 65.2832 11.3281 67.4805 13.2812 71.7285 13.2812 C 76.0742 13.2812 79.248 10.3516 79.248 6.10352 C 79.248 4.39453 78.9062 2.83203 78.1738 0.878906 L 59.3262 -49.8047 C 57.1289 -55.8594 53.418 -58.6426 47.4609 -58.6426 C 41.7969 -58.6426 38.1836 -55.8105 35.9375 -49.8047 L 17.1387 0.878906 C 16.4551 2.68555 16.0645 4.58984 16.0645 6.10352 C 16.0645 10.5957 18.9453 13.2812 23.6816 13.2812 Z M 38.5254 -16.748 L 46.875 -43.6035 L 47.9492 -43.6035 L 56.543 -16.748 Z"/>
  </g>
  <g id="Semibold-L" transform="matrix(1 0 0 1 1951.35 1556)">
   <path d="M 94.1895 12.0605 C 98.4375 12.0605 100.684 10.2539 102.051 5.76172 L 109.131 -13.9648 L 145.361 -13.9648 L 152.49 5.76172 C 153.809 10.2539 156.055 12.0605 160.303 12.0605 C 164.844 12.0605 167.773 9.32617 167.773 5.07812 C 167.773 3.51562 167.529 2.14844 166.895 0.439453 L 139.014 -74.8535 C 137.061 -80.3223 133.35 -83.0078 127.344 -83.0078 C 121.582 -83.0078 117.871 -80.3223 115.967 -74.8535 L 87.8418 0.830078 C 87.3047 2.49023 87.0117 3.85742 87.0117 5.22461 C 87.0117 9.47266 89.7461 12.0605 94.1895 12.0605 Z M 112.695 -25.6836 L 127.148 -67.2363 L 127.539 -67.2363 L 141.992 -25.6836 Z M 22.5098 12.6953 C 25.8301 12.6953 27.832 10.9863 29.0527 6.93359 L 33.7402 -6.73828 L 58.6914 -6.73828 L 63.3789 7.03125 C 64.6484 11.0352 66.5039 12.6953 70.0684 12.6953 C 73.7793 12.6953 76.4648 10.2539 76.4648 6.64062 C 76.4648 5.17578 76.1719 3.80859 75.5371 2.14844 L 56.0547 -49.8535 C 54.1992 -54.834 51.0742 -57.2266 46.0938 -57.2266 C 41.4062 -57.2266 38.3301 -54.834 36.4258 -49.8535 L 16.9434 2.14844 C 16.4062 3.66211 16.0645 5.27344 16.0645 6.64062 C 16.0645 10.4004 18.5547 12.6953 22.5098 12.6953 Z M 36.6699 -16.5527 L 45.5566 -43.75 L 46.6309 -43.75 L 55.6641 -16.5527 Z"/>
  </g>
  <g id="Medium-L" transform="matrix(1 0 0 1 1656.71 1556)">
   <path d="M 90.9668 11.5234 C 94.5801 11.5234 96.4844 10.0586 97.6562 6.25 L 105.566 -15.4785 L 142.773 -15.4785 L 150.684 6.25 C 151.904 10.0586 153.76 11.5234 157.373 11.5234 C 161.133 11.5234 163.623 9.27734 163.623 5.71289 C 163.623 4.39453 163.379 3.27148 162.891 1.80664 L 133.74 -75.8789 C 132.129 -80.3711 129.102 -82.6172 124.219 -82.6172 C 119.531 -82.6172 116.504 -80.3711 114.893 -75.9277 L 85.6934 2.05078 C 85.1562 3.4668 84.9609 4.63867 84.9609 5.81055 C 84.9609 9.375 87.2559 11.5234 90.9668 11.5234 Z M 108.74 -25.5859 L 124.023 -68.457 L 124.414 -68.457 L 139.697 -25.5859 Z M 21.6309 12.2559 C 24.5117 12.2559 26.2207 10.791 27.2949 7.37305 L 32.5684 -7.71484 L 57.7148 -7.71484 L 62.9883 7.42188 C 64.1602 10.8398 65.7715 12.2559 68.7988 12.2559 C 72.0215 12.2559 74.3652 10.1562 74.3652 7.08008 C 74.3652 5.76172 74.0723 4.54102 73.5352 3.125 L 53.5645 -49.8535 C 52.002 -54.0527 49.2676 -56.1523 45.0684 -56.1523 C 41.0645 -56.1523 38.4277 -54.1016 36.8164 -49.8535 L 16.8457 3.125 C 16.3086 4.44336 16.0645 5.81055 16.0645 7.08008 C 16.0645 10.2539 18.2617 12.2559 21.6309 12.2559 Z M 35.3027 -16.3574 L 44.5312 -43.8477 L 45.6543 -43.8477 L 54.9805 -16.3574 Z"/>
  </g>
  <g id="Regular-L" transform="matrix(1 0 0 1 1362.71 1556)">
   <path d="M 86.7676 10.8887 C 89.5508 10.8887 90.918 9.81445 91.9922 6.83594 L 100.977 -17.3828 L 139.404 -17.3828 L 148.389 6.83594 C 149.414 9.81445 150.781 10.8887 153.564 10.8887 C 156.348 10.8887 158.203 9.17969 158.203 6.49414 C 158.203 5.56641 158.008 4.73633 157.617 3.61328 L 126.904 -77.2461 C 125.684 -80.4688 123.535 -82.0801 120.166 -82.0801 C 116.895 -82.0801 114.697 -80.4688 113.525 -77.2949 L 82.8613 3.66211 C 82.4219 4.78516 82.2754 5.61523 82.2754 6.54297 C 82.2754 9.22852 83.9844 10.8887 86.7676 10.8887 Z M 103.613 -25.4883 L 119.971 -69.9707 L 120.312 -69.9707 L 136.67 -25.4883 Z M 20.5078 11.7188 C 22.7539 11.7188 24.1699 10.5469 25.0488 7.95898 L 31.0547 -9.08203 L 56.4941 -9.08203 L 62.5 7.95898 C 63.5742 10.5957 64.7949 11.7188 67.1387 11.7188 C 69.7754 11.7188 71.582 10.0586 71.582 7.61719 C 71.582 6.54297 71.3867 5.51758 70.8984 4.39453 L 50.3418 -49.8535 C 49.1211 -53.0762 46.875 -54.7363 43.75 -54.7363 C 40.6738 -54.7363 38.5742 -53.125 37.3047 -49.8535 L 16.6504 4.39453 C 16.2598 5.41992 16.0645 6.49414 16.0645 7.61719 C 16.0645 10.1074 17.8223 11.7188 20.5078 11.7188 Z M 33.5449 -16.1621 L 43.1641 -43.9453 L 44.3848 -43.9453 L 54.1016 -16.1621 Z"/>
  </g>
  <g id="Light-L" transform="matrix(1 0 0 1 1066.95 1556)">
   <path d="M 84.5215 10.6445 C 86.6211 10.6445 87.6465 9.81445 88.4277 7.61719 L 98.584 -19.2871 L 138.721 -19.2871 L 148.926 7.61719 C 149.707 9.81445 150.732 10.6445 152.783 10.6445 C 154.883 10.6445 156.299 9.375 156.299 7.32422 C 156.299 6.64062 156.152 5.95703 155.811 5.07812 L 123.633 -78.6621 C 122.754 -80.957 121.191 -82.2266 118.701 -82.2266 C 116.211 -82.2266 114.6 -81.0059 113.77 -78.6621 L 81.5918 5.12695 C 81.25 6.00586 81.1035 6.68945 81.1035 7.37305 C 81.1035 9.42383 82.4219 10.6445 84.5215 10.6445 Z M 100.684 -25.4883 L 118.506 -72.8027 L 118.799 -72.8027 L 136.621 -25.4883 Z M 19.4824 11.1328 C 21.2402 11.1328 22.2656 10.2539 22.998 8.25195 L 30.0293 -10.8887 L 56.5918 -10.8887 L 63.623 8.25195 C 64.4531 10.3027 65.332 11.1328 67.2363 11.1328 C 69.1895 11.1328 70.6055 9.86328 70.6055 8.00781 C 70.6055 7.17773 70.459 6.39648 70.1172 5.51758 L 48.1445 -51.709 C 47.2656 -54.0527 45.6055 -55.2734 43.3105 -55.2734 C 40.9668 -55.2734 39.4531 -54.1016 38.5254 -51.709 L 16.5039 5.51758 C 16.2109 6.29883 16.0645 7.17773 16.0645 8.00781 C 16.0645 9.91211 17.4316 11.1328 19.4824 11.1328 Z M 32.0312 -16.5039 L 42.9199 -46.3867 L 43.7012 -46.3867 L 54.5898 -16.5039 Z"/>
  </g>
  <g id="Thin-L" transform="matrix(1 0 0 1 771.51 1556)">
   <path d="M 81.5918 10.3516 C 82.7148 10.3516 83.252 9.86328 83.7402 8.59375 L 95.459 -21.8262 L 137.891 -21.8262 L 149.609 8.59375 C 150.098 9.86328 150.635 10.3516 151.758 10.3516 C 152.979 10.3516 153.76 9.61914 153.76 8.44727 C 153.76 8.00781 153.662 7.56836 153.467 7.08008 L 119.287 -80.5176 C 118.848 -81.6406 118.066 -82.4219 116.699 -82.4219 C 115.381 -82.4219 114.502 -81.7383 114.111 -80.5176 L 79.8828 7.08008 C 79.6875 7.56836 79.5898 8.05664 79.5898 8.44727 C 79.5898 9.61914 80.3711 10.3516 81.5918 10.3516 Z M 96.7773 -25.4883 L 116.553 -76.5137 L 116.797 -76.5137 L 136.572 -25.4883 Z M 18.1152 10.3516 C 19.2383 10.3516 19.7754 9.86328 20.2637 8.69141 L 28.6621 -13.3301 L 56.7383 -13.3301 L 65.1367 8.69141 C 65.625 9.86328 66.0645 10.3516 67.334 10.3516 C 68.4082 10.3516 69.3359 9.66797 69.3359 8.49609 C 69.3359 8.00781 69.2383 7.51953 69.043 7.03125 L 45.2148 -54.1504 C 44.7754 -55.3711 43.9453 -56.0059 42.6758 -56.0059 C 41.3574 -56.0059 40.625 -55.3711 40.1367 -54.1504 L 16.3574 7.03125 C 16.1621 7.51953 16.0645 8.00781 16.0645 8.49609 C 16.0645 9.66797 16.9434 10.3516 18.1152 10.3516 Z M 30.0781 -16.9922 L 42.5293 -49.5605 L 42.8223 -49.5605 L 55.2734 -16.9922 Z"/>
  </g>
  <g id="Ultralight-L" transform="matrix(1 0 0 1 475.434 1556)">
   <path d="M 80.0781 10.1562 C 80.7129 10.1562 81.0059 9.86328 81.3477 9.13086 L 93.8477 -23.0957 L 137.451 -23.0957 L 150 9.13086 C 150.293 9.86328 150.586 10.1562 151.221 10.1562 C 152.002 10.1562 152.49 9.76562 152.49 8.98438 C 152.49 8.74023 152.393 8.39844 152.295 8.10547 L 117.041 -81.4941 C 116.846 -81.9824 116.455 -82.5195 115.674 -82.5195 C 114.941 -82.5195 114.453 -82.0801 114.258 -81.4941 L 79.0039 8.05664 C 78.9062 8.39844 78.8086 8.74023 78.8086 8.98438 C 78.8086 9.7168 79.3457 10.1562 80.0781 10.1562 Z M 94.7754 -25.4395 L 115.527 -78.418 L 115.771 -78.418 L 136.523 -25.4395 Z M 17.4316 9.96094 C 18.2129 9.96094 18.5059 9.66797 18.8477 8.88672 L 27.9297 -14.5508 L 56.7871 -14.5508 L 65.8691 8.88672 C 66.2109 9.66797 66.4062 9.96094 67.3828 9.96094 C 67.9688 9.96094 68.6523 9.57031 68.6523 8.78906 C 68.6523 8.44727 68.6035 8.10547 68.457 7.8125 L 43.75 -55.4199 C 43.5059 -56.0059 43.0664 -56.3477 42.3828 -56.3477 C 41.5527 -56.3477 41.2109 -56.0059 41.0156 -55.4199 L 16.2598 7.8125 C 16.1133 8.1543 16.0645 8.44727 16.0645 8.78906 C 16.0645 9.52148 16.6504 9.96094 17.4316 9.96094 Z M 29.1016 -17.1875 L 42.334 -51.1719 L 42.3828 -51.1719 L 55.6152 -17.1875 Z"/>
  </g>
  <g id="Black-M" transform="matrix(1 0 0 1 2849.93 1126)">
   <path d="M 91.5527 4.3457 C 98.4375 4.3457 102.295 1.17188 104.004 -6.00586 L 105.078 -10.6934 L 128.271 -10.6934 L 129.346 -6.00586 C 131.055 1.17188 134.912 4.3457 141.797 4.3457 C 149.512 4.3457 154.492 -0.292969 154.492 -7.27539 C 154.492 -10.2051 154.15 -12.5 153.174 -15.2832 L 138.135 -60.3027 C 134.863 -70.1172 128.125 -74.707 116.943 -74.707 C 106.396 -74.707 99.8535 -70.0684 96.4844 -60.3027 L 80.7617 -13.9648 C 79.9316 -11.5234 79.4922 -9.08203 79.4922 -6.93359 C 79.4922 0.0488281 84.082 4.3457 91.5527 4.3457 Z M 22.2168 4.29688 C 27.3926 4.29688 30.3223 1.51367 32.0312 -5.12695 L 32.7148 -7.86133 L 51.2695 -7.86133 L 51.9531 -4.78516 C 53.4668 1.66016 56.3477 4.29688 62.1094 4.29688 C 67.5781 4.29688 71.6309 0.439453 71.6309 -5.07812 C 71.6309 -7.22656 71.2402 -9.08203 70.3613 -11.5723 L 57.5195 -47.4121 C 54.541 -55.6641 49.9512 -59.1309 41.748 -59.1309 C 34.082 -59.1309 29.4922 -55.4688 26.6602 -47.4121 L 13.916 -11.5723 C 13.0859 -9.22852 12.4512 -6.73828 12.4512 -5.07812 C 12.4512 0.830078 16.1133 4.29688 22.2168 4.29688 Z M 109.912 -28.2227 L 116.797 -54.2969 L 117.236 -54.2969 L 124.121 -28.2227 Z M 36.084 -21.9727 L 41.4062 -42.5293 L 41.8457 -42.5293 L 47.5586 -21.9727 Z"/>
  </g>
  <g id="Heavy-M" transform="matrix(1 0 0 1 2556.85 1126)">
   <path d="M 86.1328 3.4668 C 91.9922 3.4668 95.2148 0.830078 96.7285 -5.32227 L 99.0723 -12.9883 L 123.584 -12.9883 L 125.879 -5.32227 C 127.393 0.830078 130.664 3.4668 136.523 3.4668 C 143.018 3.4668 147.217 -0.439453 147.217 -6.34766 C 147.217 -8.78906 146.924 -10.6934 146.094 -13.0859 L 129.199 -61.8652 C 126.416 -70.0684 120.801 -73.9746 111.523 -73.9746 C 102.783 -73.9746 97.2656 -70.0195 94.4336 -61.8652 L 77.002 -12.1094 C 76.3184 -9.96094 75.9277 -7.91016 75.9277 -6.05469 C 75.9277 -0.195312 79.834 3.4668 86.1328 3.4668 Z M 20.8984 3.66211 C 25.293 3.66211 27.832 1.26953 29.2969 -4.3457 L 30.8105 -9.27734 L 49.5117 -9.27734 L 50.9766 -4.10156 C 52.3438 1.36719 54.834 3.66211 59.7168 3.66211 C 64.502 3.66211 67.9688 0.341797 67.9688 -4.44336 C 67.9688 -6.29883 67.627 -7.91016 66.8457 -10.0586 L 53.418 -46.9727 C 50.9277 -53.9551 46.9238 -56.9824 39.9414 -56.9824 C 33.4473 -56.9824 29.4434 -53.8086 27.002 -46.9727 L 13.6719 -10.0586 C 12.9883 -8.05664 12.4512 -5.9082 12.4512 -4.44336 C 12.4512 0.634766 15.625 3.66211 20.8984 3.66211 Z M 103.32 -28.125 L 111.377 -55.7617 L 111.768 -55.7617 L 119.824 -28.125 Z M 33.8867 -21.582 L 39.5996 -42.0898 L 40.1855 -42.0898 L 46.1426 -21.582 Z"/>
  </g>
  <g id="Bold-M" transform="matrix(1 0 0 1 2264.2 1126)">
   <path d="M 80.0293 2.49023 C 84.7656 2.49023 87.3047 0.390625 88.623 -4.54102 L 92.334 -15.5273 L 118.359 -15.5273 L 122.021 -4.54102 C 123.34 0.390625 125.928 2.49023 130.615 2.49023 C 135.742 2.49023 139.111 -0.585938 139.111 -5.32227 C 139.111 -7.22656 138.818 -8.74023 138.184 -10.6445 L 119.189 -63.623 C 116.992 -70.0684 112.598 -73.0957 105.469 -73.0957 C 98.6816 -73.0957 94.3848 -70.0195 92.1875 -63.6719 L 72.8516 -9.96094 C 72.2168 -8.20312 71.9238 -6.5918 71.9238 -5.12695 C 71.9238 -0.390625 75.0488 2.49023 80.0293 2.49023 Z M 95.9473 -27.9785 L 105.322 -57.4219 L 105.664 -57.4219 L 115.039 -27.9785 Z M 19.3848 2.88086 C 22.9492 2.88086 25.0488 0.976562 26.3184 -3.51562 L 28.6621 -10.8887 L 47.5098 -10.8887 L 49.9023 -3.36914 C 51.123 1.07422 53.125 2.88086 57.0312 2.88086 C 60.9863 2.88086 63.8672 0.195312 63.8672 -3.66211 C 63.8672 -5.22461 63.5742 -6.5918 62.8906 -8.39844 L 48.877 -46.4844 C 46.8262 -52.0508 43.5059 -54.5898 37.9395 -54.5898 C 32.7148 -54.5898 29.4434 -52.002 27.4414 -46.4844 L 13.4277 -8.39844 C 12.8418 -6.73828 12.4512 -4.98047 12.4512 -3.66211 C 12.4512 0.439453 15.0879 2.88086 19.3848 2.88086 Z M 31.4453 -21.0938 L 37.5488 -41.5527 L 38.3301 -41.5527 L 44.5801 -21.0938 Z"/>
  </g>
  <g id="Semibold-M" transform="matrix(1 0 0 1 1970.29 1126)">
   <path d="M 75.8301 1.80664 C 79.7852 1.80664 81.8848 0.146484 83.0566 -4.00391 L 87.6953 -17.2852 L 114.697 -17.2852 L 119.336 -4.00391 C 120.557 0.146484 122.656 1.80664 126.562 1.80664 C 130.762 1.80664 133.496 -0.732422 133.496 -4.63867 C 133.496 -6.10352 133.252 -7.32422 132.715 -8.93555 L 112.305 -64.8438 C 110.449 -70.0195 106.982 -72.5098 101.27 -72.5098 C 95.8496 -72.5098 92.3828 -70.0195 90.5762 -64.8926 L 69.9707 -8.49609 C 69.4336 -7.03125 69.1895 -5.71289 69.1895 -4.44336 C 69.1895 -0.585938 71.7285 1.80664 75.8301 1.80664 Z M 90.8691 -27.8809 L 101.123 -58.5938 L 101.465 -58.5938 L 111.719 -27.8809 Z M 18.3105 2.39258 C 21.3379 2.39258 23.1445 0.78125 24.2188 -2.92969 L 27.1973 -11.9629 L 46.1426 -11.9629 L 49.1211 -2.83203 C 50.2441 0.830078 51.9531 2.39258 55.1758 2.39258 C 58.5938 2.39258 60.9863 0.0976562 60.9863 -3.17383 C 60.9863 -4.49219 60.7422 -5.71289 60.1562 -7.22656 L 45.752 -46.1426 C 44.043 -50.7812 41.1621 -52.9297 36.5723 -52.9297 C 32.2266 -52.9297 29.4434 -50.7324 27.6855 -46.1426 L 13.2812 -7.22656 C 12.7441 -5.85938 12.4512 -4.3457 12.4512 -3.17383 C 12.4512 0.292969 14.6973 2.39258 18.3105 2.39258 Z M 29.7852 -20.8008 L 36.084 -41.2109 L 37.0117 -41.2109 L 43.5059 -20.8008 Z"/>
  </g>
  <g id="Medium-M" transform="matrix(1 0 0 1 1675.71 1126)">
   <path d="M 72.6562 1.31836 C 75.9766 1.31836 77.7344 -0.0488281 78.8086 -3.56445 L 84.1797 -18.6035 L 111.963 -18.6035 L 117.334 -3.56445 C 118.408 -0.0488281 120.166 1.31836 123.486 1.31836 C 126.953 1.31836 129.248 -0.78125 129.248 -4.05273 C 129.248 -5.27344 129.004 -6.29883 128.564 -7.66602 L 107.031 -65.7715 C 105.518 -70.0195 102.686 -72.0215 98.1445 -72.0215 C 93.75 -72.0215 90.918 -70.0195 89.4043 -65.8203 L 67.7734 -7.37305 C 67.334 -6.10352 67.1387 -5.0293 67.1387 -3.95508 C 67.1387 -0.683594 69.2383 1.31836 72.6562 1.31836 Z M 87.0117 -27.7832 L 97.9492 -59.4238 L 98.291 -59.4238 L 109.229 -27.7832 Z M 17.5293 1.95312 C 20.1172 1.95312 21.6797 0.634766 22.6562 -2.49023 L 26.123 -12.8418 L 45.1172 -12.8418 L 48.5352 -2.44141 C 49.6094 0.683594 51.0742 1.95312 53.8086 1.95312 C 56.7871 1.95312 58.8379 0.0488281 58.8379 -2.7832 C 58.8379 -3.90625 58.5938 -5.0293 58.1055 -6.34766 L 43.3594 -45.8496 C 41.8945 -49.8047 39.4043 -51.6602 35.5469 -51.6602 C 31.8359 -51.6602 29.4434 -49.8047 27.9297 -45.8496 L 13.1348 -6.34766 C 12.6953 -5.12695 12.4512 -3.85742 12.4512 -2.7832 C 12.4512 0.146484 14.4043 1.95312 17.5293 1.95312 Z M 28.5156 -20.5566 L 35.0098 -40.9668 L 36.0352 -40.9668 L 42.6758 -20.5566 Z"/>
  </g>
  <g id="Regular-M" transform="matrix(1 0 0 1 1381.78 1126)">
   <path d="M 68.5059 0.634766 C 71.0449 0.634766 72.3633 -0.341797 73.291 -3.02734 L 79.5898 -20.3125 L 108.398 -20.3125 L 114.697 -3.02734 C 115.625 -0.341797 116.895 0.634766 119.434 0.634766 C 122.021 0.634766 123.682 -0.927734 123.682 -3.36914 C 123.682 -4.19922 123.535 -4.93164 123.145 -6.00586 L 100.244 -66.9434 C 99.1211 -69.9707 97.1191 -71.4355 93.9941 -71.4355 C 90.9668 -71.4355 88.916 -69.9707 87.8418 -66.9922 L 64.9414 -5.95703 C 64.5508 -4.88281 64.4043 -4.15039 64.4043 -3.32031 C 64.4043 -0.878906 65.9668 0.634766 68.5059 0.634766 Z M 81.9824 -27.6855 L 93.8477 -60.5469 L 94.0918 -60.5469 L 105.957 -27.6855 Z M 16.5039 1.46484 C 18.5059 1.46484 19.7754 0.439453 20.6055 -1.95312 L 24.6582 -13.916 L 43.75 -13.916 L 47.8027 -1.95312 C 48.7305 0.488281 49.9023 1.46484 51.9531 1.46484 C 54.3945 1.46484 56.0547 -0.0488281 56.0547 -2.24609 C 56.0547 -3.22266 55.8594 -4.15039 55.4199 -5.17578 L 40.2344 -45.5078 C 39.1113 -48.4863 37.0605 -50.0488 34.1797 -50.0488 C 31.3477 -50.0488 29.3945 -48.5352 28.1738 -45.5078 L 12.9883 -5.17578 C 12.5977 -4.24805 12.4512 -3.27148 12.4512 -2.24609 C 12.4512 0 14.0137 1.46484 16.5039 1.46484 Z M 26.8066 -20.2637 L 33.6426 -40.625 L 34.7656 -40.625 L 41.6016 -20.2637 Z"/>
  </g>
  <g id="Light-M" transform="matrix(1 0 0 1 1085.92 1126)">
   <path d="M 66.5039 0.439453 C 68.4082 0.439453 69.3848 -0.341797 70.1172 -2.34375 L 77.4902 -22.0215 L 107.812 -22.0215 L 115.186 -2.34375 C 115.869 -0.341797 116.846 0.439453 118.75 0.439453 C 120.703 0.439453 121.973 -0.732422 121.973 -2.63672 C 121.973 -3.27148 121.826 -3.85742 121.582 -4.63867 L 97.2656 -68.2617 C 96.4355 -70.459 94.9707 -71.582 92.6758 -71.582 C 90.3809 -71.582 88.8672 -70.459 88.0859 -68.2617 L 63.7695 -4.63867 C 63.4766 -3.80859 63.3789 -3.22266 63.3789 -2.58789 C 63.3789 -0.732422 64.5996 0.439453 66.5039 0.439453 Z M 79.3457 -27.6855 L 92.4805 -63.0859 L 92.7734 -63.0859 L 105.908 -27.6855 Z M 15.5762 0.927734 C 17.1387 0.927734 18.1152 0.146484 18.75 -1.66016 L 23.7305 -15.5762 L 43.8477 -15.5762 L 48.8281 -1.66016 C 49.5605 0.195312 50.3906 0.927734 52.0508 0.927734 C 53.8574 0.927734 55.1758 -0.195312 55.1758 -1.9043 C 55.1758 -2.63672 55.0293 -3.36914 54.6875 -4.15039 L 38.2812 -47.168 C 37.4512 -49.3652 35.9375 -50.5371 33.7402 -50.5371 C 31.6406 -50.5371 30.1758 -49.4141 29.2969 -47.168 L 12.8418 -4.15039 C 12.5977 -3.41797 12.4512 -2.68555 12.4512 -1.9043 C 12.4512 -0.146484 13.6719 0.927734 15.5762 0.927734 Z M 25.4883 -20.5566 L 33.3984 -42.7734 L 34.1797 -42.7734 L 42.0898 -20.5566 Z"/>
  </g>
  <g id="Thin-M" transform="matrix(1 0 0 1 790.333 1126)">
   <path d="M 63.8672 0.146484 C 64.9414 0.146484 65.4785 -0.292969 65.918 -1.46484 L 74.6582 -24.2676 L 107.031 -24.2676 L 115.82 -1.46484 C 116.26 -0.292969 116.748 0.146484 117.822 0.146484 C 118.945 0.146484 119.727 -0.537109 119.727 -1.61133 C 119.727 -2.00195 119.629 -2.39258 119.434 -2.88086 L 93.3594 -69.9219 C 92.9199 -71.0449 92.1875 -71.7773 90.8691 -71.7773 C 89.5996 -71.7773 88.7695 -71.0938 88.3301 -69.9219 L 62.2559 -2.88086 C 62.1094 -2.39258 62.0117 -2.00195 62.0117 -1.61133 C 62.0117 -0.537109 62.7441 0.146484 63.8672 0.146484 Z M 75.8301 -27.6855 L 90.7227 -66.4062 L 90.9668 -66.4062 L 105.859 -27.6855 Z M 14.3555 0.292969 C 15.332 0.292969 15.8691 -0.195312 16.3086 -1.26953 L 22.5098 -17.7246 L 43.9453 -17.7246 L 50.1465 -1.26953 C 50.5859 -0.195312 51.0254 0.292969 52.1484 0.292969 C 53.1738 0.292969 54.0039 -0.390625 54.0039 -1.46484 C 54.0039 -1.9043 53.9062 -2.34375 53.7109 -2.7832 L 35.6934 -49.3652 C 35.2539 -50.5371 34.4238 -51.1719 33.2031 -51.1719 C 31.9824 -51.1719 31.2012 -50.5371 30.7617 -49.3652 L 12.6953 -2.7832 C 12.5488 -2.34375 12.4512 -1.9043 12.4512 -1.46484 C 12.4512 -0.390625 13.2324 0.292969 14.3555 0.292969 Z M 23.7305 -20.9961 L 33.0566 -45.6543 L 33.3984 -45.6543 L 42.7246 -20.9961 Z"/>
  </g>
  <g id="Ultralight-M" transform="matrix(1 0 0 1 494.208 1126)">
   <path d="M 62.5 0 C 63.1836 0 63.4766 -0.292969 63.7695 -1.02539 L 73.2422 -25.4395 L 106.641 -25.4395 L 116.113 -1.02539 C 116.406 -0.292969 116.699 0 117.383 0 C 118.066 0 118.555 -0.390625 118.555 -1.12305 C 118.555 -1.36719 118.506 -1.66016 118.359 -1.95312 L 91.3574 -70.8008 C 91.1621 -71.3867 90.7227 -71.875 89.9902 -71.875 C 89.209 -71.875 88.7207 -71.4355 88.4766 -70.8008 L 61.5234 -1.95312 C 61.377 -1.66016 61.3281 -1.36719 61.3281 -1.12305 C 61.3281 -0.390625 61.8164 0 62.5 0 Z M 74.0723 -27.6367 L 89.8438 -68.1152 L 90.0391 -68.1152 L 105.811 -27.6367 Z M 13.7207 -0.0976562 C 14.4531 -0.0976562 14.7461 -0.390625 15.0391 -1.07422 L 21.875 -18.8477 L 43.9941 -18.8477 L 50.8301 -1.07422 C 51.123 -0.390625 51.3672 -0.0976562 52.1973 -0.0976562 C 52.832 -0.0976562 53.418 -0.488281 53.418 -1.2207 C 53.418 -1.51367 53.3691 -1.80664 53.2227 -2.09961 L 34.3262 -50.4883 C 34.1309 -51.123 33.6426 -51.5137 32.9102 -51.5137 C 32.1777 -51.5137 31.7383 -51.123 31.543 -50.4883 L 12.6465 -2.09961 C 12.5 -1.80664 12.4512 -1.51367 12.4512 -1.2207 C 12.4512 -0.488281 12.9883 -0.0976562 13.7207 -0.0976562 Z M 22.8516 -21.1914 L 32.8613 -47.1191 L 33.0078 -47.1191 L 43.0176 -21.1914 Z"/>
  </g>
  <g id="Black-S" transform="matrix(1 0 0 1 2868.26 696)">
   <path d="M 71.3379 -4.29688 C 76.6602 -4.29688 79.6387 -6.73828 80.957 -12.3047 L 81.8848 -16.1621 L 100.146 -16.1621 L 101.074 -12.3047 C 102.393 -6.73828 105.371 -4.29688 110.693 -4.29688 C 116.65 -4.29688 120.508 -7.86133 120.508 -13.2812 C 120.508 -15.5273 120.215 -17.2852 119.482 -19.4336 L 107.568 -54.9805 C 105.029 -62.5488 99.8535 -66.1133 91.2109 -66.1133 C 83.1055 -66.1133 78.0273 -62.5 75.4395 -54.9805 L 62.9883 -18.457 C 62.3535 -16.5527 62.0117 -14.6484 62.0117 -12.9883 C 62.0117 -7.61719 65.5762 -4.29688 71.3379 -4.29688 Z M 17.334 -4.29688 C 21.3379 -4.29688 23.584 -6.44531 24.9023 -11.5723 L 25.4883 -13.8672 L 40.0391 -13.8672 L 40.625 -11.3281 C 41.7969 -6.34766 44.043 -4.29688 48.4863 -4.29688 C 52.7344 -4.29688 55.8594 -7.27539 55.8594 -11.5723 C 55.8594 -13.2324 55.5664 -14.6484 54.8828 -16.6016 L 44.7754 -44.7266 C 42.4805 -51.0742 38.916 -53.7598 32.5684 -53.7598 C 26.6602 -53.7598 23.0957 -50.9277 20.8984 -44.7266 L 10.8887 -16.6016 C 10.2539 -14.7949 9.76562 -12.8418 9.76562 -11.5723 C 9.76562 -6.98242 12.5977 -4.29688 17.334 -4.29688 Z M 85.6445 -29.7363 L 91.1133 -50.2441 L 91.4551 -50.2441 L 96.9238 -29.7363 Z M 28.125 -24.8047 L 32.3242 -40.8691 L 32.666 -40.8691 L 37.1582 -24.8047 Z"/>
  </g>
  <g id="Heavy-S" transform="matrix(1 0 0 1 2574.24 696)">
   <path d="M 67.3828 -4.93164 C 72.0215 -4.93164 74.5605 -7.03125 75.7812 -11.8652 L 77.5391 -17.7246 L 96.6309 -17.7246 L 98.3887 -11.8652 C 99.5605 -7.03125 102.148 -4.93164 106.738 -4.93164 C 111.816 -4.93164 115.137 -8.00781 115.137 -12.6465 C 115.137 -14.5508 114.893 -16.0645 114.258 -17.9199 L 101.074 -56.0547 C 98.877 -62.4512 94.4824 -65.5273 87.207 -65.5273 C 80.3711 -65.5273 76.0742 -62.4512 73.877 -56.0547 L 60.2539 -17.1387 C 59.7168 -15.4785 59.4238 -13.8672 59.4238 -12.4023 C 59.4238 -7.8125 62.4512 -4.93164 67.3828 -4.93164 Z M 16.4062 -4.73633 C 19.873 -4.73633 21.875 -6.64062 23.0469 -11.0352 L 24.1211 -14.7949 L 38.6719 -14.7949 L 39.7461 -10.8398 C 40.8691 -6.54297 42.8223 -4.73633 46.6309 -4.73633 C 50.3906 -4.73633 53.125 -7.37305 53.125 -11.084 C 53.125 -12.5488 52.8809 -13.8672 52.2461 -15.5762 L 41.8945 -44.1895 C 39.8926 -49.707 36.7188 -52.0508 31.25 -52.0508 C 26.123 -52.0508 22.998 -49.6094 21.0449 -44.1895 L 10.7422 -15.5762 C 10.1562 -13.9648 9.76562 -12.2559 9.76562 -11.084 C 9.76562 -7.12891 12.2559 -4.73633 16.4062 -4.73633 Z M 80.9082 -29.6387 L 87.1094 -51.0742 L 87.4512 -51.0742 L 93.6523 -29.6387 Z M 26.6113 -24.4629 L 30.957 -40.2832 L 31.4453 -40.2832 L 36.0352 -24.4629 Z"/>
  </g>
  <g id="Bold-S" transform="matrix(1 0 0 1 2280.53 696)">
   <path d="M 62.9883 -5.66406 C 66.7969 -5.66406 68.8965 -7.32422 69.9707 -11.3281 L 72.6562 -19.4336 L 92.6758 -19.4336 L 95.3613 -11.3281 C 96.4355 -7.32422 98.4863 -5.66406 102.295 -5.66406 C 106.445 -5.66406 109.131 -8.1543 109.131 -11.9629 C 109.131 -13.4766 108.887 -14.6484 108.35 -16.2109 L 93.75 -57.2266 C 91.9922 -62.4023 88.4766 -64.8438 82.7637 -64.8438 C 77.3438 -64.8438 73.877 -62.3535 72.0703 -57.2754 L 57.2266 -15.6738 C 56.7383 -14.2578 56.4941 -12.9883 56.4941 -11.7676 C 56.4941 -8.00781 58.9844 -5.66406 62.9883 -5.66406 Z M 75.5859 -29.541 L 82.6172 -52.0508 L 82.9102 -52.0508 L 89.9902 -29.541 Z M 15.3809 -5.27344 C 18.2617 -5.27344 19.9707 -6.78711 20.9961 -10.4492 L 22.6562 -15.8203 L 37.1582 -15.8203 L 38.8184 -10.3027 C 39.7949 -6.73828 41.4551 -5.27344 44.5801 -5.27344 C 47.8027 -5.27344 50.0977 -7.42188 50.0977 -10.5469 C 50.0977 -11.8164 49.8535 -12.9395 49.3164 -14.4043 L 38.623 -43.6035 C 36.9629 -48.1445 34.2773 -50.1953 29.7852 -50.1953 C 25.5371 -50.1953 22.9004 -48.0957 21.2402 -43.6035 L 10.5469 -14.4043 C 10.0586 -13.0859 9.76562 -11.6699 9.76562 -10.5469 C 9.76562 -7.27539 11.8652 -5.27344 15.3809 -5.27344 Z M 24.9023 -24.0723 L 29.3945 -39.6484 L 30.127 -39.6484 L 34.7656 -24.0723 Z"/>
  </g>
  <g id="Semibold-S" transform="matrix(1 0 0 1 1985.89 696)">
   <path d="M 59.9609 -6.15234 C 63.2324 -6.15234 64.9902 -7.51953 65.9668 -10.9863 L 69.2871 -20.6543 L 89.9414 -20.6543 L 93.2617 -10.9863 C 94.2383 -7.51953 95.9961 -6.15234 99.2676 -6.15234 C 102.734 -6.15234 104.98 -8.25195 104.98 -11.4746 C 104.98 -12.6953 104.785 -13.7207 104.346 -15.0391 L 88.7207 -58.0566 C 87.2559 -62.3535 84.3262 -64.3555 79.6875 -64.3555 C 75.1953 -64.3555 72.3633 -62.3047 70.8496 -58.0566 L 55.127 -14.6973 C 54.6875 -13.4277 54.4922 -12.4023 54.4922 -11.3281 C 54.4922 -8.1543 56.5918 -6.15234 59.9609 -6.15234 Z M 71.9238 -29.4922 L 79.541 -52.6855 L 79.834 -52.6855 L 87.4512 -29.4922 Z M 14.6484 -5.61523 C 17.1387 -5.61523 18.6523 -6.93359 19.5312 -10.0098 L 21.582 -16.5039 L 36.084 -16.5039 L 38.1348 -9.91211 C 39.0625 -6.88477 40.5273 -5.61523 43.1641 -5.61523 C 45.9961 -5.61523 47.998 -7.4707 47.998 -10.2051 C 47.998 -11.3281 47.8027 -12.3535 47.3145 -13.5742 L 36.4258 -43.2129 C 34.9609 -47.0703 32.5684 -48.877 28.7598 -48.877 C 25.1465 -48.877 22.8027 -47.0703 21.3379 -43.2129 L 10.4492 -13.5742 C 10.0098 -12.4512 9.76562 -11.2305 9.76562 -10.2051 C 9.76562 -7.37305 11.6211 -5.61523 14.6484 -5.61523 Z M 23.7305 -23.8281 L 28.3203 -39.209 L 29.1504 -39.209 L 33.8867 -23.8281 Z"/>
  </g>
  <g id="Medium-S" transform="matrix(1 0 0 1 1690.75 696)">
   <path d="M 57.666 -6.54297 C 60.498 -6.54297 62.0117 -7.71484 62.9395 -10.6934 L 66.6992 -21.5332 L 87.8906 -21.5332 L 91.6992 -10.6934 C 92.627 -7.71484 94.0918 -6.54297 96.9727 -6.54297 C 99.9023 -6.54297 101.855 -8.30078 101.855 -11.084 C 101.855 -12.1094 101.66 -12.9883 101.27 -14.1602 L 84.9121 -58.6426 C 83.6426 -62.3047 81.2012 -64.0137 77.3438 -64.0137 C 73.6328 -64.0137 71.1914 -62.3047 69.9219 -58.6914 L 53.5156 -13.916 C 53.125 -12.793 52.9297 -11.9141 52.9297 -11.0352 C 52.9297 -8.25195 54.7363 -6.54297 57.666 -6.54297 Z M 69.1406 -29.3945 L 77.1973 -53.2227 L 77.4902 -53.2227 L 85.5469 -29.3945 Z M 14.1113 -5.85938 C 16.2598 -5.85938 17.627 -7.03125 18.457 -9.7168 L 20.8008 -17.041 L 35.3027 -17.041 L 37.6465 -9.66797 C 38.5254 -6.98242 39.8438 -5.85938 42.0898 -5.85938 C 44.6777 -5.85938 46.4355 -7.51953 46.4355 -9.91211 C 46.4355 -10.9375 46.1914 -11.8652 45.8008 -12.9883 L 34.7168 -42.8711 C 33.4473 -46.2402 31.2988 -47.9004 27.9785 -47.9004 C 24.8535 -47.9004 22.7539 -46.2891 21.4355 -42.8711 L 10.3516 -12.9883 C 9.96094 -11.9629 9.76562 -10.8887 9.76562 -9.91211 C 9.76562 -7.42188 11.4258 -5.85938 14.1113 -5.85938 Z M 22.8516 -23.584 L 27.5391 -38.8672 L 28.4668 -38.8672 L 33.252 -23.584 Z"/>
  </g>
  <g id="Regular-S" transform="matrix(1 0 0 1 1396.08 696)">
   <path d="M 54.6875 -7.03125 C 56.9824 -7.03125 58.1543 -7.91016 58.9844 -10.3516 L 63.3789 -22.7051 L 85.2051 -22.7051 L 89.6484 -10.3516 C 90.4785 -7.91016 91.6504 -7.03125 93.9453 -7.03125 C 96.2402 -7.03125 97.7539 -8.39844 97.7539 -10.6445 C 97.7539 -11.377 97.6074 -12.0605 97.2656 -12.9883 L 79.9805 -59.4727 C 78.9551 -62.207 77.0996 -63.5254 74.3164 -63.5254 C 71.5332 -63.5254 69.7266 -62.2559 68.75 -59.5215 L 51.416 -12.9395 C 51.123 -12.0117 50.9766 -11.3281 50.9766 -10.5957 C 50.9766 -8.39844 52.3926 -7.03125 54.6875 -7.03125 Z M 65.5273 -29.3457 L 74.1699 -53.8574 L 74.4141 -53.8574 L 83.0566 -29.3457 Z M 13.3789 -6.25 C 15.1855 -6.25 16.3574 -7.17773 17.041 -9.27734 L 19.7754 -17.7246 L 34.2285 -17.7246 L 36.9629 -9.27734 C 37.8418 -7.12891 38.916 -6.25 40.6738 -6.25 C 42.8711 -6.25 44.3359 -7.56836 44.3359 -9.57031 C 44.3359 -10.4004 44.1406 -11.2793 43.7988 -12.207 L 32.5195 -42.4805 C 31.4941 -45.2148 29.5898 -46.6309 27.002 -46.6309 C 24.4629 -46.6309 22.6562 -45.2637 21.582 -42.4805 L 10.2539 -12.207 C 9.91211 -11.3281 9.76562 -10.4492 9.76562 -9.57031 C 9.76562 -7.56836 11.1816 -6.25 13.3789 -6.25 Z M 21.6797 -23.3398 L 26.4648 -38.4277 L 27.5391 -38.4277 L 32.373 -23.3398 Z"/>
  </g>
  <g id="Light-S" transform="matrix(1 0 0 1 1100.13 696)">
   <path d="M 52.8809 -7.22656 C 54.6387 -7.22656 55.5176 -7.91016 56.1523 -9.76562 L 61.5234 -24.2188 L 84.7168 -24.2188 L 90.0391 -9.76562 C 90.7227 -7.91016 91.6016 -7.22656 93.3105 -7.22656 C 95.0684 -7.22656 96.2402 -8.25195 96.2402 -9.96094 C 96.2402 -10.5469 96.0938 -11.084 95.8496 -11.7676 L 77.3438 -60.5957 C 76.6113 -62.6465 75.2441 -63.6719 73.0957 -63.6719 C 71.0449 -63.6719 69.6777 -62.6465 68.9453 -60.6445 L 50.4395 -11.7676 C 50.1465 -11.0352 50.0488 -10.498 50.0488 -9.91211 C 50.0488 -8.25195 51.123 -7.22656 52.8809 -7.22656 Z M 63.1836 -29.3457 L 72.998 -56.1035 L 73.1934 -56.1035 L 83.0078 -29.3457 Z M 12.5488 -6.68945 C 13.9648 -6.68945 14.8438 -7.42188 15.3809 -9.0332 L 18.9453 -19.1895 L 34.3262 -19.1895 L 37.8906 -9.0332 C 38.5254 -7.37305 39.3066 -6.68945 40.7715 -6.68945 C 42.4316 -6.68945 43.5547 -7.71484 43.5547 -9.27734 C 43.5547 -9.91211 43.4082 -10.5469 43.1152 -11.2793 L 30.7617 -43.9453 C 29.9805 -45.9961 28.6133 -47.0215 26.6113 -47.0215 C 24.707 -47.0215 23.3887 -45.9961 22.5586 -43.9453 L 10.1562 -11.2793 C 9.86328 -10.6445 9.76562 -9.96094 9.76562 -9.27734 C 9.76562 -7.71484 10.8887 -6.68945 12.5488 -6.68945 Z M 20.5078 -23.6328 L 26.2695 -40.332 L 27.002 -40.332 L 32.8125 -23.6328 Z"/>
  </g>
  <g id="Thin-S" transform="matrix(1 0 0 1 804.42 696)">
   <path d="M 50.5371 -7.4707 C 51.5625 -7.4707 52.0508 -7.86133 52.4414 -8.93555 L 59.0332 -26.2207 L 84.0332 -26.2207 L 90.625 -8.93555 C 91.0156 -7.86133 91.5039 -7.4707 92.5293 -7.4707 C 93.5547 -7.4707 94.2383 -8.10547 94.2383 -9.08203 C 94.2383 -9.42383 94.1406 -9.81445 93.9941 -10.2051 L 73.9258 -62.1094 C 73.4863 -63.1836 72.7539 -63.8184 71.5332 -63.8184 C 70.3613 -63.8184 69.5801 -63.2324 69.1895 -62.1094 L 49.0723 -10.2051 C 48.9258 -9.76562 48.877 -9.42383 48.877 -9.08203 C 48.877 -8.05664 49.5117 -7.4707 50.5371 -7.4707 Z M 60.1074 -29.2969 L 71.4355 -59.0332 L 71.6309 -59.0332 L 82.959 -29.2969 Z M 11.4746 -7.27539 C 12.4023 -7.27539 12.8906 -7.71484 13.2324 -8.69141 L 17.8711 -21.0938 L 34.4238 -21.0938 L 39.0625 -8.69141 C 39.4531 -7.71484 39.8926 -7.27539 40.8691 -7.27539 C 41.7969 -7.27539 42.5293 -7.91016 42.5293 -8.83789 C 42.5293 -9.27734 42.4805 -9.66797 42.2852 -10.1074 L 28.4668 -45.8984 C 28.0273 -47.0215 27.2461 -47.6074 26.123 -47.6074 C 25 -47.6074 24.2676 -47.0215 23.8281 -45.8984 L 10.0098 -10.1074 C 9.86328 -9.66797 9.76562 -9.27734 9.76562 -8.83789 C 9.76562 -7.86133 10.4492 -7.27539 11.4746 -7.27539 Z M 18.9453 -23.9746 L 25.9766 -42.8223 L 26.3184 -42.8223 L 33.3496 -23.9746 Z"/>
  </g>
  <g id="Ultralight-S" transform="matrix(1 0 0 1 508.222 696)">
   <path d="M 49.3652 -7.56836 C 49.9512 -7.56836 50.2441 -7.86133 50.5371 -8.54492 L 57.7637 -27.2461 L 83.6914 -27.2461 L 90.918 -8.54492 C 91.1621 -7.86133 91.4551 -7.56836 92.0898 -7.56836 C 92.7734 -7.56836 93.2129 -7.95898 93.2129 -8.64258 C 93.2129 -8.88672 93.1641 -9.13086 93.0176 -9.42383 L 72.1191 -62.8418 C 71.875 -63.4766 71.4844 -63.916 70.752 -63.916 C 70.0195 -63.916 69.5312 -63.5254 69.2871 -62.8418 L 48.3887 -9.42383 C 48.291 -9.13086 48.2422 -8.88672 48.2422 -8.64258 C 48.2422 -7.95898 48.6816 -7.56836 49.3652 -7.56836 Z M 58.4961 -29.2969 L 70.6543 -60.5469 L 70.8008 -60.5469 L 82.9102 -29.2969 Z M 10.9375 -7.61719 C 11.5723 -7.61719 11.8652 -7.86133 12.1094 -8.54492 L 17.334 -22.0703 L 34.4727 -22.0703 L 39.6484 -8.54492 C 39.9414 -7.86133 40.1855 -7.61719 40.918 -7.61719 C 41.4551 -7.61719 41.9922 -8.00781 41.9922 -8.64258 C 41.9922 -8.93555 41.9434 -9.17969 41.8457 -9.47266 L 27.2949 -46.875 C 27.0508 -47.5586 26.5625 -47.9004 25.8789 -47.9004 C 25.1465 -47.9004 24.7559 -47.5586 24.5117 -46.875 L 9.91211 -9.47266 C 9.81445 -9.17969 9.76562 -8.93555 9.76562 -8.64258 C 9.76562 -8.00781 10.2539 -7.61719 10.9375 -7.61719 Z M 18.1641 -24.1699 L 25.8301 -44.1406 L 25.9766 -44.1406 L 33.6426 -24.1699 Z"/>
  </g>
 </g>
</svg>
