<?xml version="1.0" encoding="UTF-8"?>
<!--Generator: Apple Native CoreSVG 148-->
<!DOCTYPE svg
PUBLIC "-//W3C//DTD SVG 1.1//EN"
       "http://www.w3.org/Graphics/SVG/1.1/DTD/svg11.dtd">
<svg version="1.1" xmlns="http://www.w3.org/2000/svg" xmlns:xlink="http://www.w3.org/1999/xlink" width="3300" height="2200">
 <!--glyph: "uni1009CE.medium", point size: 100.000000, font version: "Version 16.0d11e1", template writer version: "8"-->
 <g id="Notes">
  <rect height="2200" id="artboard" style="fill:white;opacity:1" width="3300" x="0" y="0"/>
  <line id="" style="fill:none;stroke:black;opacity:1;stroke-width:0.5;" x1="263" x2="3036" y1="292" y2="292"/>
  <text style="stroke:none;fill:black;font-family:-apple-system,&quot;SF Pro Display&quot;,&quot;SF Pro Text&quot;,Helvetica,sans-serif;font-weight:bold;" transform="matrix(1 0 0 1 263 322)">Weight/Scale Variations</text>
  <text style="stroke:none;fill:black;font-family:-apple-system,&quot;SF Pro Display&quot;,&quot;SF Pro Text&quot;,Helvetica,sans-serif;text-anchor:middle;" transform="matrix(1 0 0 1 559.711 322)">Ultralight</text>
  <text style="stroke:none;fill:black;font-family:-apple-system,&quot;SF Pro Display&quot;,&quot;SF Pro Text&quot;,Helvetica,sans-serif;text-anchor:middle;" transform="matrix(1 0 0 1 856.422 322)">Thin</text>
  <text style="stroke:none;fill:black;font-family:-apple-system,&quot;SF Pro Display&quot;,&quot;SF Pro Text&quot;,Helvetica,sans-serif;text-anchor:middle;" transform="matrix(1 0 0 1 1153.13 322)">Light</text>
  <text style="stroke:none;fill:black;font-family:-apple-system,&quot;SF Pro Display&quot;,&quot;SF Pro Text&quot;,Helvetica,sans-serif;text-anchor:middle;" transform="matrix(1 0 0 1 1449.84 322)">Regular</text>
  <text style="stroke:none;fill:black;font-family:-apple-system,&quot;SF Pro Display&quot;,&quot;SF Pro Text&quot;,Helvetica,sans-serif;text-anchor:middle;" transform="matrix(1 0 0 1 1746.56 322)">Medium</text>
  <text style="stroke:none;fill:black;font-family:-apple-system,&quot;SF Pro Display&quot;,&quot;SF Pro Text&quot;,Helvetica,sans-serif;text-anchor:middle;" transform="matrix(1 0 0 1 2043.27 322)">Semibold</text>
  <text style="stroke:none;fill:black;font-family:-apple-system,&quot;SF Pro Display&quot;,&quot;SF Pro Text&quot;,Helvetica,sans-serif;text-anchor:middle;" transform="matrix(1 0 0 1 2339.98 322)">Bold</text>
  <text style="stroke:none;fill:black;font-family:-apple-system,&quot;SF Pro Display&quot;,&quot;SF Pro Text&quot;,Helvetica,sans-serif;text-anchor:middle;" transform="matrix(1 0 0 1 2636.69 322)">Heavy</text>
  <text style="stroke:none;fill:black;font-family:-apple-system,&quot;SF Pro Display&quot;,&quot;SF Pro Text&quot;,Helvetica,sans-serif;text-anchor:middle;" transform="matrix(1 0 0 1 2933.4 322)">Black</text>
  <line id="" style="fill:none;stroke:black;opacity:1;stroke-width:0.5;" x1="263" x2="3036" y1="1903" y2="1903"/>
  <g id="" transform="matrix(1 0 0 1 263 1933)">
   <path d="M 9.24805 0.830078 C 13.5547 0.830078 17.1387 -2.74414 17.1387 -7.05078 C 17.1387 -11.3574 13.5449 -14.9316 9.23828 -14.9316 C 4.94141 -14.9316 1.36719 -11.3574 1.36719 -7.05078 C 1.36719 -2.74414 4.95117 0.830078 9.24805 0.830078 Z M 9.24805 -0.654297 C 5.70312 -0.654297 2.87109 -3.49609 2.87109 -7.05078 C 2.87109 -10.6055 5.69336 -13.4473 9.23828 -13.4473 C 12.793 -13.4473 15.6348 -10.6055 15.6445 -7.05078 C 15.6543 -3.49609 12.8027 -0.654297 9.24805 -0.654297 Z M 9.22852 -3.62305 C 9.69727 -3.62305 9.9707 -3.93555 9.9707 -4.45312 L 9.9707 -6.31836 L 12.002 -6.31836 C 12.5 -6.31836 12.832 -6.57227 12.832 -7.04102 C 12.832 -7.51953 12.5195 -7.7832 12.002 -7.7832 L 9.9707 -7.7832 L 9.9707 -9.81445 C 9.9707 -10.332 9.69727 -10.6543 9.22852 -10.6543 C 8.75977 -10.6543 8.50586 -10.3125 8.50586 -9.81445 L 8.50586 -7.7832 L 6.49414 -7.7832 C 5.97656 -7.7832 5.64453 -7.51953 5.64453 -7.04102 C 5.64453 -6.57227 5.99609 -6.31836 6.49414 -6.31836 L 8.50586 -6.31836 L 8.50586 -4.45312 C 8.50586 -3.95508 8.75977 -3.62305 9.22852 -3.62305 Z"/>
  </g>
  <g id="" transform="matrix(1 0 0 1 281.506 1933)">
   <path d="M 11.709 2.91016 C 17.1582 2.91016 21.6699 -1.61133 21.6699 -7.05078 C 21.6699 -12.5 17.1484 -17.0117 11.6992 -17.0117 C 6.25977 -17.0117 1.74805 -12.5 1.74805 -7.05078 C 1.74805 -1.61133 6.26953 2.91016 11.709 2.91016 Z M 11.709 1.25 C 7.09961 1.25 3.41797 -2.44141 3.41797 -7.05078 C 3.41797 -11.6602 7.08984 -15.3516 11.6992 -15.3516 C 16.3086 -15.3516 20 -11.6602 20.0098 -7.05078 C 20.0195 -2.44141 16.3184 1.25 11.709 1.25 Z M 11.6797 -2.66602 C 12.207 -2.66602 12.5098 -3.01758 12.5098 -3.59375 L 12.5098 -6.23047 L 15.3223 -6.23047 C 15.8691 -6.23047 16.25 -6.51367 16.25 -7.03125 C 16.25 -7.55859 15.8887 -7.86133 15.3223 -7.86133 L 12.5098 -7.86133 L 12.5098 -10.6836 C 12.5098 -11.25 12.207 -11.6113 11.6797 -11.6113 C 11.1621 -11.6113 10.8789 -11.2305 10.8789 -10.6836 L 10.8789 -7.86133 L 8.07617 -7.86133 C 7.50977 -7.86133 7.13867 -7.55859 7.13867 -7.03125 C 7.13867 -6.51367 7.5293 -6.23047 8.07617 -6.23047 L 10.8789 -6.23047 L 10.8789 -3.59375 C 10.8789 -3.03711 11.1621 -2.66602 11.6797 -2.66602 Z"/>
  </g>
  <g id="" transform="matrix(1 0 0 1 304.924 1933)">
   <path d="M 14.9707 5.66406 C 21.9336 5.66406 27.6953 -0.0976562 27.6953 -7.05078 C 27.6953 -14.0137 21.9238 -19.7754 14.9609 -19.7754 C 8.00781 -19.7754 2.25586 -14.0137 2.25586 -7.05078 C 2.25586 -0.0976562 8.01758 5.66406 14.9707 5.66406 Z M 14.9707 3.84766 C 8.93555 3.84766 4.08203 -1.01562 4.08203 -7.05078 C 4.08203 -13.0957 8.92578 -17.9492 14.9609 -17.9492 C 21.0059 -17.9492 25.8594 -13.0957 25.8691 -7.05078 C 25.8789 -1.01562 21.0156 3.84766 14.9707 3.84766 Z M 14.9414 -1.38672 C 15.5176 -1.38672 15.8594 -1.77734 15.8594 -2.38281 L 15.8594 -6.13281 L 19.7754 -6.13281 C 20.3711 -6.13281 20.7812 -6.46484 20.7812 -7.02148 C 20.7812 -7.59766 20.3906 -7.93945 19.7754 -7.93945 L 15.8594 -7.93945 L 15.8594 -11.8652 C 15.8594 -12.4805 15.5176 -12.8711 14.9414 -12.8711 C 14.375 -12.8711 14.0527 -12.4609 14.0527 -11.8652 L 14.0527 -7.93945 L 10.1465 -7.93945 C 9.53125 -7.93945 9.13086 -7.59766 9.13086 -7.02148 C 9.13086 -6.46484 9.55078 -6.13281 10.1465 -6.13281 L 14.0527 -6.13281 L 14.0527 -2.38281 C 14.0527 -1.79688 14.375 -1.38672 14.9414 -1.38672 Z"/>
  </g>
  <text style="stroke:none;fill:black;font-family:-apple-system,&quot;SF Pro Display&quot;,&quot;SF Pro Text&quot;,Helvetica,sans-serif;font-weight:bold;" transform="matrix(1 0 0 1 263 1953)">Design Variations</text>
  <text style="stroke:none;fill:black;font-family:-apple-system,&quot;SF Pro Display&quot;,&quot;SF Pro Text&quot;,Helvetica,sans-serif;" transform="matrix(1 0 0 1 263 1971)">Symbols are supported in up to nine weights and three scales.</text>
  <text style="stroke:none;fill:black;font-family:-apple-system,&quot;SF Pro Display&quot;,&quot;SF Pro Text&quot;,Helvetica,sans-serif;" transform="matrix(1 0 0 1 263 1989)">For optimal layout with text and other symbols, vertically align</text>
  <text style="stroke:none;fill:black;font-family:-apple-system,&quot;SF Pro Display&quot;,&quot;SF Pro Text&quot;,Helvetica,sans-serif;" transform="matrix(1 0 0 1 263 2007)">symbols with the adjacent text.</text>
  <line id="" style="fill:none;stroke:#00AEEF;stroke-width:0.5;opacity:1.0;" x1="776" x2="776" y1="1919" y2="1933"/>
  <g id="" transform="matrix(1 0 0 1 776 1933)">
   <path d="M 3.31055 0.126953 C 3.82812 0.126953 4.08203 -0.0683594 4.26758 -0.605469 L 5.52734 -4.0625 L 11.2891 -4.0625 L 12.5488 -0.605469 C 12.7344 -0.0683594 12.9883 0.126953 13.4961 0.126953 C 14.0137 0.126953 14.3457 -0.185547 14.3457 -0.673828 C 14.3457 -0.839844 14.3164 -0.986328 14.2383 -1.20117 L 9.6582 -13.3887 C 9.43359 -13.9941 9.0332 -14.2871 8.4082 -14.2871 C 7.80273 -14.2871 7.39258 -13.9941 7.17773 -13.3984 L 2.59766 -1.19141 C 2.51953 -0.976562 2.49023 -0.830078 2.49023 -0.664062 C 2.49023 -0.175781 2.80273 0.126953 3.31055 0.126953 Z M 6.00586 -5.53711 L 8.37891 -12.1094 L 8.42773 -12.1094 L 10.8008 -5.53711 Z"/>
  </g>
  <line id="" style="fill:none;stroke:#00AEEF;stroke-width:0.5;opacity:1.0;" x1="792.836" x2="792.836" y1="1919" y2="1933"/>
  <text style="stroke:none;fill:black;font-family:-apple-system,&quot;SF Pro Display&quot;,&quot;SF Pro Text&quot;,Helvetica,sans-serif;font-weight:bold;" transform="matrix(1 0 0 1 776 1953)">Margins</text>
  <text style="stroke:none;fill:black;font-family:-apple-system,&quot;SF Pro Display&quot;,&quot;SF Pro Text&quot;,Helvetica,sans-serif;" transform="matrix(1 0 0 1 776 1971)">Leading and trailing margins on the left and right side of each symbol</text>
  <text style="stroke:none;fill:black;font-family:-apple-system,&quot;SF Pro Display&quot;,&quot;SF Pro Text&quot;,Helvetica,sans-serif;" transform="matrix(1 0 0 1 776 1989)">can be adjusted by modifying the x-location of the margin guidelines.</text>
  <text style="stroke:none;fill:black;font-family:-apple-system,&quot;SF Pro Display&quot;,&quot;SF Pro Text&quot;,Helvetica,sans-serif;" transform="matrix(1 0 0 1 776 2007)">Modifications are automatically applied proportionally to all</text>
  <text style="stroke:none;fill:black;font-family:-apple-system,&quot;SF Pro Display&quot;,&quot;SF Pro Text&quot;,Helvetica,sans-serif;" transform="matrix(1 0 0 1 776 2025)">scales and weights.</text>
  <g id="" transform="matrix(1 0 0 1 1289 1933)">
   <path d="M 2.8418 1.86523 L 4.54102 3.57422 C 5.40039 4.44336 6.38672 4.38477 7.31445 3.35938 L 17.4902 -7.85156 C 17.7539 -7.76367 18.0273 -7.7832 18.3398 -7.8418 L 19.4043 -8.03711 L 20.0684 -7.36328 L 20.0293 -6.80664 C 19.9902 -6.30859 20.1172 -5.92773 20.6055 -5.44922 L 21.3672 -4.70703 C 21.8457 -4.22852 22.4609 -4.19922 22.9297 -4.66797 L 25.8398 -7.58789 C 26.3086 -8.05664 26.2891 -8.65234 25.8105 -9.13086 L 25.0391 -9.89258 C 24.5605 -10.3711 24.1895 -10.5273 23.7109 -10.4883 L 23.1348 -10.4395 L 22.4902 -11.0742 L 22.7344 -12.1973 C 22.8613 -12.7637 22.7051 -13.2031 22.1191 -13.7891 L 19.9219 -15.9766 C 16.582 -19.2969 12.1484 -19.2188 9.25781 -16.3281 C 8.83789 -15.918 8.80859 -15.3418 9.04297 -14.9512 C 9.27734 -14.5898 9.73633 -14.3555 10.3809 -14.5215 C 11.8457 -14.8633 13.3691 -14.9219 14.7949 -13.9844 L 14.209 -12.5293 C 14.0137 -12.0508 13.9844 -11.6504 14.1113 -11.2891 L 3.04688 -0.898438 C 2.06055 0.0195312 1.98242 0.996094 2.8418 1.86523 Z M 10.752 -15.957 C 13.1836 -17.7344 16.4746 -17.4316 18.7012 -15.2051 L 21.1328 -12.793 C 21.3672 -12.5586 21.4062 -12.373 21.3379 -12.0312 L 21.0156 -10.5469 L 22.5195 -9.0625 L 23.5059 -9.12109 C 23.7598 -9.13086 23.8379 -9.11133 24.0332 -8.91602 L 24.6094 -8.33984 L 22.168 -5.89844 L 21.5918 -6.47461 C 21.3965 -6.66992 21.3672 -6.74805 21.377 -7.01172 L 21.4453 -7.98828 L 19.9512 -9.47266 L 18.4277 -9.21875 C 18.1055 -9.15039 17.959 -9.17969 17.7148 -9.41406 L 15.7129 -11.416 C 15.459 -11.6504 15.4297 -11.8164 15.5859 -12.1875 L 16.4648 -14.2773 C 14.9023 -15.7324 12.8711 -16.3574 10.8398 -15.7617 C 10.6836 -15.7227 10.625 -15.8496 10.752 -15.957 Z M 5.27344 2.30469 L 4.10156 1.14258 C 3.63281 0.683594 3.74023 0.341797 4.14062 -0.0195312 L 14.9512 -10.1953 L 16.416 -8.71094 L 6.42578 2.27539 C 6.07422 2.67578 5.74219 2.77344 5.27344 2.30469 Z"/>
  </g>
  <text style="stroke:none;fill:black;font-family:-apple-system,&quot;SF Pro Display&quot;,&quot;SF Pro Text&quot;,Helvetica,sans-serif;font-weight:bold;" transform="matrix(1 0 0 1 1289 1953)">Exporting</text>
  <text style="stroke:none;fill:black;font-family:-apple-system,&quot;SF Pro Display&quot;,&quot;SF Pro Text&quot;,Helvetica,sans-serif;" transform="matrix(1 0 0 1 1289 1971)">Symbols should be outlined when exporting to ensure the</text>
  <text style="stroke:none;fill:black;font-family:-apple-system,&quot;SF Pro Display&quot;,&quot;SF Pro Text&quot;,Helvetica,sans-serif;" transform="matrix(1 0 0 1 1289 1989)">design is preserved when submitting to Xcode.</text>
  <text id="template-version" style="stroke:none;fill:black;font-family:-apple-system,&quot;SF Pro Display&quot;,&quot;SF Pro Text&quot;,Helvetica,sans-serif;text-anchor:end;" transform="matrix(1 0 0 1 3036 1933)">Template v.2.0</text>
  <text style="stroke:none;fill:black;font-family:-apple-system,&quot;SF Pro Display&quot;,&quot;SF Pro Text&quot;,Helvetica,sans-serif;text-anchor:end;" transform="matrix(1 0 0 1 3036 1951)">Requires Xcode 12 or greater</text>
  <text style="stroke:none;fill:black;font-family:-apple-system,&quot;SF Pro Display&quot;,&quot;SF Pro Text&quot;,Helvetica,sans-serif;text-anchor:end;" transform="matrix(1 0 0 1 3036 1969)">Generated from text.redaction</text>
  <text style="stroke:none;fill:black;font-family:-apple-system,&quot;SF Pro Display&quot;,&quot;SF Pro Text&quot;,Helvetica,sans-serif;text-anchor:end;" transform="matrix(1 0 0 1 3036 1987)">Typeset at 100 points</text>
  <text style="stroke:none;fill:black;font-family:-apple-system,&quot;SF Pro Display&quot;,&quot;SF Pro Text&quot;,Helvetica,sans-serif;" transform="matrix(1 0 0 1 263 726)">Small</text>
  <text style="stroke:none;fill:black;font-family:-apple-system,&quot;SF Pro Display&quot;,&quot;SF Pro Text&quot;,Helvetica,sans-serif;" transform="matrix(1 0 0 1 263 1156)">Medium</text>
  <text style="stroke:none;fill:black;font-family:-apple-system,&quot;SF Pro Display&quot;,&quot;SF Pro Text&quot;,Helvetica,sans-serif;" transform="matrix(1 0 0 1 263 1586)">Large</text>
 </g>
 <g id="Guides">
  <g id="H-reference" style="fill:#27AAE1;stroke:none;" transform="matrix(1 0 0 1 339 696)">
   <path d="M 0.976562 0 L 3.66211 0 L 12.9883 -24.4629 L 45.7031 -24.4629 L 55.0781 0 L 57.7148 0 L 30.6152 -70.459 L 28.125 -70.459 Z M 29.2969 -67.1387 L 29.3945 -67.1387 L 44.873 -26.709 L 13.8672 -26.709 Z"/>
  </g>
  <line id="Baseline-S" style="fill:none;stroke:#27AAE1;opacity:1;stroke-width:0.5;" x1="263" x2="3036" y1="696" y2="696"/>
  <line id="Capline-S" style="fill:none;stroke:#27AAE1;opacity:1;stroke-width:0.5;" x1="263" x2="3036" y1="625.541" y2="625.541"/>
  <g id="H-reference" style="fill:#27AAE1;stroke:none;" transform="matrix(1 0 0 1 339 1126)">
   <path d="M 0.976562 0 L 3.66211 0 L 12.9883 -24.4629 L 45.7031 -24.4629 L 55.0781 0 L 57.7148 0 L 30.6152 -70.459 L 28.125 -70.459 Z M 29.2969 -67.1387 L 29.3945 -67.1387 L 44.873 -26.709 L 13.8672 -26.709 Z"/>
  </g>
  <line id="Baseline-M" style="fill:none;stroke:#27AAE1;opacity:1;stroke-width:0.5;" x1="263" x2="3036" y1="1126" y2="1126"/>
  <line id="Capline-M" style="fill:none;stroke:#27AAE1;opacity:1;stroke-width:0.5;" x1="263" x2="3036" y1="1055.54" y2="1055.54"/>
  <g id="H-reference" style="fill:#27AAE1;stroke:none;" transform="matrix(1 0 0 1 339 1556)">
   <path d="M 0.976562 0 L 3.66211 0 L 12.9883 -24.4629 L 45.7031 -24.4629 L 55.0781 0 L 57.7148 0 L 30.6152 -70.459 L 28.125 -70.459 Z M 29.2969 -67.1387 L 29.3945 -67.1387 L 44.873 -26.709 L 13.8672 -26.709 Z"/>
  </g>
  <line id="Baseline-L" style="fill:none;stroke:#27AAE1;opacity:1;stroke-width:0.5;" x1="263" x2="3036" y1="1556" y2="1556"/>
  <line id="Capline-L" style="fill:none;stroke:#27AAE1;opacity:1;stroke-width:0.5;" x1="263" x2="3036" y1="1485.54" y2="1485.54"/>
  <line id="left-margin" style="fill:none;stroke:#00AEEF;stroke-width:0.5;opacity:1.0;" x1="1388.2" x2="1388.2" y1="1030.79" y2="1150.12"/>
  <line id="right-margin" style="fill:none;stroke:#00AEEF;stroke-width:0.5;opacity:1.0;" x1="1511.49" x2="1511.49" y1="1030.79" y2="1150.12"/>
 </g>
 <g id="Symbols">
  <g id="Black-L" transform="matrix(1 0 0 1 2847.17 1556)">
   <path d="M 24.9023 -77.2461 L 147.559 -77.2461 C 152.49 -77.2461 156.396 -81.543 156.396 -86.377 C 156.396 -91.3574 152.539 -95.5078 147.559 -95.5078 L 24.9023 -95.5078 C 19.9707 -95.5078 16.0645 -91.2598 16.0645 -86.377 C 16.0645 -81.6406 20.0195 -77.2461 24.9023 -77.2461 Z M 25.1465 -40.4297 L 147.412 -40.4297 C 153.223 -40.4297 156.396 -43.6523 156.396 -49.4141 L 156.396 -57.2266 C 156.396 -62.9883 153.223 -66.1621 147.412 -66.1621 L 25.1465 -66.1621 C 19.3359 -66.1621 16.1133 -62.9883 16.1133 -57.2266 L 16.1133 -49.4141 C 16.1133 -43.6523 19.3359 -40.4297 25.1465 -40.4297 Z M 25.1465 -7.37305 L 72.6074 -7.37305 C 78.418 -7.37305 81.6406 -10.5469 81.6406 -16.3574 L 81.6406 -24.1211 C 81.6406 -29.8828 78.418 -33.1055 72.6074 -33.1055 L 25.1465 -33.1055 C 19.3359 -33.1055 16.1133 -29.8828 16.1133 -24.1211 L 16.1133 -16.3574 C 16.1133 -10.5469 19.3359 -7.37305 25.1465 -7.37305 Z M 102.441 -11.1328 L 147.559 -11.1328 C 152.49 -11.1328 156.396 -15.4297 156.396 -20.2637 C 156.396 -25.2441 152.539 -29.3945 147.559 -29.3945 L 102.441 -29.3945 C 97.5098 -29.3945 93.6035 -25.1465 93.6035 -20.2637 C 93.6035 -15.5273 97.5586 -11.1328 102.441 -11.1328 Z M 24.9023 21.9238 L 147.559 21.9238 C 152.49 21.9238 156.396 17.627 156.396 12.793 C 156.396 7.76367 152.539 3.66211 147.559 3.66211 L 24.9023 3.66211 C 19.9707 3.66211 16.0645 7.91016 16.0645 12.793 C 16.0645 17.4805 20.0195 21.9238 24.9023 21.9238 Z"/>
  </g>
  <g id="Heavy-L" transform="matrix(1 0 0 1 2552.19 1556)">
   <path d="M 23.7793 -78.0762 L 145.166 -78.0762 C 149.512 -78.0762 152.93 -81.7871 152.93 -86.0352 C 152.93 -90.3809 149.561 -93.9941 145.166 -93.9941 L 23.7793 -93.9941 C 19.4824 -93.9941 16.0645 -90.332 16.0645 -86.0352 C 16.0645 -81.8848 19.4824 -78.0762 23.7793 -78.0762 Z M 24.6582 -40.918 L 144.385 -40.918 C 149.902 -40.918 152.93 -43.9453 152.93 -49.4629 L 152.93 -56.4941 C 152.93 -62.0117 149.902 -65.0391 144.385 -65.0391 L 24.6582 -65.0391 C 19.1406 -65.0391 16.1133 -62.0117 16.1133 -56.4941 L 16.1133 -49.4629 C 16.1133 -43.9453 19.1406 -40.918 24.6582 -40.918 Z M 24.6582 -7.86133 L 72.168 -7.86133 C 77.7344 -7.86133 80.7617 -10.8398 80.7617 -16.4062 L 80.7617 -23.4375 C 80.7617 -28.9062 77.7344 -31.9336 72.168 -31.9336 L 24.6582 -31.9336 C 19.1406 -31.9336 16.1133 -28.9062 16.1133 -23.4375 L 16.1133 -16.4062 C 16.1133 -10.8398 19.1406 -7.86133 24.6582 -7.86133 Z M 99.4629 -11.9629 L 145.166 -11.9629 C 149.512 -11.9629 152.93 -15.6738 152.93 -19.9219 C 152.93 -24.3164 149.561 -27.8809 145.166 -27.8809 L 99.4629 -27.8809 C 95.166 -27.8809 91.748 -24.2188 91.748 -19.9219 C 91.748 -15.7715 95.166 -11.9629 99.4629 -11.9629 Z M 23.7793 21.0449 L 145.166 21.0449 C 149.512 21.0449 152.93 17.334 152.93 13.0859 C 152.93 8.74023 149.561 5.17578 145.166 5.17578 L 23.7793 5.17578 C 19.4824 5.17578 16.0645 8.83789 16.0645 13.0859 C 16.0645 17.2363 19.4824 21.0449 23.7793 21.0449 Z"/>
  </g>
  <g id="Bold-L" transform="matrix(1 0 0 1 2257.43 1556)">
   <path d="M 22.5098 -79.0527 L 142.529 -79.0527 C 146.143 -79.0527 149.023 -82.0801 149.023 -85.6445 C 149.023 -89.3066 146.191 -92.2852 142.529 -92.2852 L 22.5098 -92.2852 C 18.8965 -92.2852 16.0645 -89.2578 16.0645 -85.6445 C 16.0645 -82.1289 18.9453 -79.0527 22.5098 -79.0527 Z M 24.1699 -41.4551 L 140.967 -41.4551 C 146.191 -41.4551 149.023 -44.2383 149.023 -49.5117 L 149.023 -55.7129 C 149.023 -60.9375 146.191 -63.7207 140.967 -63.7207 L 24.1699 -63.7207 C 18.8965 -63.7207 16.1133 -60.9375 16.1133 -55.7129 L 16.1133 -49.5117 C 16.1133 -44.2383 18.8965 -41.4551 24.1699 -41.4551 Z M 24.1699 -8.39844 L 71.6797 -8.39844 C 76.9531 -8.39844 79.7852 -11.1816 79.7852 -16.4551 L 79.7852 -22.6562 C 79.7852 -27.8809 76.9531 -30.6641 71.6797 -30.6641 L 24.1699 -30.6641 C 18.8965 -30.6641 16.1133 -27.8809 16.1133 -22.6562 L 16.1133 -16.4551 C 16.1133 -11.1816 18.8965 -8.39844 24.1699 -8.39844 Z M 96.1426 -12.9395 L 142.529 -12.9395 C 146.143 -12.9395 149.023 -16.0156 149.023 -19.5801 C 149.023 -23.1934 146.191 -26.1719 142.529 -26.1719 L 96.1426 -26.1719 C 92.4805 -26.1719 89.6484 -23.1445 89.6484 -19.5801 C 89.6484 -16.0645 92.5293 -12.9395 96.1426 -12.9395 Z M 22.5098 20.0684 L 142.529 20.0684 C 146.143 20.0684 149.023 17.041 149.023 13.4766 C 149.023 9.81445 146.191 6.88477 142.529 6.88477 L 22.5098 6.88477 C 18.8965 6.88477 16.0645 9.86328 16.0645 13.4766 C 16.0645 16.9922 18.9453 20.0684 22.5098 20.0684 Z"/>
  </g>
  <g id="Semibold-L" transform="matrix(1 0 0 1 1962.07 1556)">
   <path d="M 21.6797 -79.6875 L 140.723 -79.6875 C 143.848 -79.6875 146.338 -82.2754 146.338 -85.4004 C 146.338 -88.5742 143.848 -91.0645 140.723 -91.0645 L 21.6797 -91.0645 C 18.5059 -91.0645 16.0645 -88.5254 16.0645 -85.4004 C 16.0645 -82.3242 18.5547 -79.6875 21.6797 -79.6875 Z M 23.8281 -41.8457 L 138.574 -41.8457 C 143.652 -41.8457 146.338 -44.4824 146.338 -49.5605 L 146.338 -55.1758 C 146.338 -60.2051 143.652 -62.8418 138.574 -62.8418 L 23.8281 -62.8418 C 18.75 -62.8418 16.0645 -60.2051 16.0645 -55.1758 L 16.0645 -49.5605 C 16.0645 -44.4824 18.75 -41.8457 23.8281 -41.8457 Z M 23.8281 -8.78906 L 71.3379 -8.78906 C 76.416 -8.78906 79.1016 -11.4258 79.1016 -16.5039 L 79.1016 -22.168 C 79.1016 -27.1484 76.416 -29.7852 71.3379 -29.7852 L 23.8281 -29.7852 C 18.75 -29.7852 16.0645 -27.1484 16.0645 -22.168 L 16.0645 -16.5039 C 16.0645 -11.4258 18.75 -8.78906 23.8281 -8.78906 Z M 93.7988 -13.623 L 140.723 -13.623 C 143.848 -13.623 146.338 -16.2109 146.338 -19.2871 C 146.338 -22.4609 143.848 -25 140.723 -25 L 93.7988 -25 C 90.6738 -25 88.2324 -22.4121 88.2324 -19.2871 C 88.2324 -16.2598 90.6738 -13.623 93.7988 -13.623 Z M 21.6797 19.4336 L 140.723 19.4336 C 143.848 19.4336 146.338 16.8457 146.338 13.7207 C 146.338 10.5469 143.848 8.05664 140.723 8.05664 L 21.6797 8.05664 C 18.5059 8.05664 16.0645 10.5957 16.0645 13.7207 C 16.0645 16.7969 18.5547 19.4336 21.6797 19.4336 Z"/>
  </g>
  <g id="Medium-L" transform="matrix(1 0 0 1 1666.38 1556)">
   <path d="M 20.9961 -80.2246 L 139.307 -80.2246 C 142.09 -80.2246 144.287 -82.4219 144.287 -85.2051 C 144.287 -87.9883 142.09 -90.1855 139.307 -90.1855 L 20.9961 -90.1855 C 18.2129 -90.1855 16.0645 -87.9395 16.0645 -85.2051 C 16.0645 -82.4707 18.2129 -80.2246 20.9961 -80.2246 Z M 23.5352 -42.1387 L 136.816 -42.1387 C 141.748 -42.1387 144.287 -44.6289 144.287 -49.5605 L 144.287 -54.7852 C 144.287 -59.6191 141.748 -62.1582 136.816 -62.1582 L 23.5352 -62.1582 C 18.6523 -62.1582 16.0645 -59.6191 16.0645 -54.7852 L 16.0645 -49.5605 C 16.0645 -44.6289 18.6523 -42.1387 23.5352 -42.1387 Z M 23.5352 -9.08203 L 71.0938 -9.08203 C 76.0254 -9.08203 78.5645 -11.6211 78.5645 -16.5039 L 78.5645 -21.7285 C 78.5645 -26.5625 76.0254 -29.1504 71.0938 -29.1504 L 23.5352 -29.1504 C 18.6523 -29.1504 16.0645 -26.5625 16.0645 -21.7285 L 16.0645 -16.5039 C 16.0645 -11.6211 18.6523 -9.08203 23.5352 -9.08203 Z M 92.0898 -14.1113 L 139.307 -14.1113 C 142.09 -14.1113 144.287 -16.3574 144.287 -19.1406 C 144.287 -21.9238 142.09 -24.1211 139.307 -24.1211 L 92.0898 -24.1211 C 89.3066 -24.1211 87.1094 -21.875 87.1094 -19.1406 C 87.1094 -16.4062 89.3066 -14.1113 92.0898 -14.1113 Z M 20.9961 18.8965 L 139.307 18.8965 C 142.09 18.8965 144.287 16.6504 144.287 13.916 C 144.287 11.1328 142.09 8.93555 139.307 8.93555 L 20.9961 8.93555 C 18.2129 8.93555 16.0645 11.1328 16.0645 13.916 C 16.0645 16.6504 18.2129 18.8965 20.9961 18.8965 Z"/>
  </g>
  <g id="Regular-L" transform="matrix(1 0 0 1 1370.99 1556)">
   <path d="M 20.166 -80.8594 L 137.5 -80.8594 C 139.795 -80.8594 141.65 -82.6172 141.65 -84.9609 C 141.65 -87.2559 139.795 -89.0137 137.5 -89.0137 L 20.166 -89.0137 C 17.8223 -89.0137 16.0645 -87.2559 16.0645 -84.9609 C 16.0645 -82.6172 17.8223 -80.8594 20.166 -80.8594 Z M 23.1934 -42.5293 L 134.473 -42.5293 C 139.209 -42.5293 141.65 -44.873 141.65 -49.6094 L 141.65 -54.248 C 141.65 -58.8867 139.209 -61.2793 134.473 -61.2793 L 23.1934 -61.2793 C 18.5059 -61.2793 16.0645 -58.8867 16.0645 -54.248 L 16.0645 -49.6094 C 16.0645 -44.873 18.5059 -42.5293 23.1934 -42.5293 Z M 23.1934 -9.47266 L 70.752 -9.47266 C 75.4883 -9.47266 77.9297 -11.8164 77.9297 -16.5527 L 77.9297 -21.2402 C 77.9297 -25.8301 75.4883 -28.2715 70.752 -28.2715 L 23.1934 -28.2715 C 18.5059 -28.2715 16.0645 -25.8301 16.0645 -21.2402 L 16.0645 -16.5527 C 16.0645 -11.8164 18.5059 -9.47266 23.1934 -9.47266 Z M 89.7949 -14.7949 L 137.5 -14.7949 C 139.795 -14.7949 141.65 -16.5527 141.65 -18.8477 C 141.65 -21.1914 139.795 -22.9492 137.5 -22.9492 L 89.7949 -22.9492 C 87.5 -22.9492 85.6934 -21.1914 85.6934 -18.8477 C 85.6934 -16.5527 87.5 -14.7949 89.7949 -14.7949 Z M 20.166 18.2617 L 137.5 18.2617 C 139.795 18.2617 141.65 16.4551 141.65 14.1602 C 141.65 11.8652 139.795 10.1074 137.5 10.1074 L 20.166 10.1074 C 17.8223 10.1074 16.0645 11.8652 16.0645 14.1602 C 16.0645 16.4551 17.8223 18.2617 20.166 18.2617 Z"/>
  </g>
  <g id="Light-L" transform="matrix(1 0 0 1 1075.2 1556)">
   <path d="M 19.2383 -81.7871 L 136.621 -81.7871 C 138.379 -81.7871 139.795 -83.1055 139.795 -84.9121 C 139.795 -86.7188 138.379 -88.0859 136.621 -88.0859 L 19.2383 -88.0859 C 17.4316 -88.0859 16.0645 -86.7188 16.0645 -84.9121 C 16.0645 -83.1055 17.4316 -81.7871 19.2383 -81.7871 Z M 22.1191 -43.5547 L 133.74 -43.5547 C 137.695 -43.5547 139.795 -45.6055 139.795 -49.5605 L 139.795 -54.1504 C 139.795 -58.0566 137.695 -60.1562 133.74 -60.1562 L 22.1191 -60.1562 C 18.1641 -60.1562 16.0645 -58.0566 16.0645 -54.1504 L 16.0645 -49.5605 C 16.0645 -45.6055 18.1641 -43.5547 22.1191 -43.5547 Z M 22.1191 -10.498 L 70.4102 -10.498 C 74.3652 -10.498 76.4648 -12.5488 76.4648 -16.5039 L 76.4648 -21.0938 C 76.4648 -25 74.3652 -27.0508 70.4102 -27.0508 L 22.1191 -27.0508 C 18.1641 -27.0508 16.0645 -25 16.0645 -21.0938 L 16.0645 -16.5039 C 16.0645 -12.5488 18.1641 -10.498 22.1191 -10.498 Z M 86.2793 -15.625 L 136.621 -15.625 C 138.379 -15.625 139.795 -16.9922 139.795 -18.7988 C 139.795 -20.5566 138.379 -21.9238 136.621 -21.9238 L 86.2793 -21.9238 C 84.4727 -21.9238 83.1055 -20.5566 83.1055 -18.7988 C 83.1055 -16.9922 84.4727 -15.625 86.2793 -15.625 Z M 19.2383 17.4316 L 136.621 17.4316 C 138.379 17.4316 139.795 16.1133 139.795 14.3066 C 139.795 12.5 138.379 11.1328 136.621 11.1328 L 19.2383 11.1328 C 17.4316 11.1328 16.0645 12.5 16.0645 14.3066 C 16.0645 16.1133 17.4316 17.4316 19.2383 17.4316 Z"/>
  </g>
  <g id="Thin-L" transform="matrix(1 0 0 1 779.713 1556)">
   <path d="M 18.0176 -82.959 L 135.4 -82.959 C 136.523 -82.959 137.354 -83.7402 137.354 -84.9121 C 137.354 -86.0352 136.523 -86.8164 135.4 -86.8164 L 18.0176 -86.8164 C 16.8457 -86.8164 16.0645 -86.0352 16.0645 -84.9121 C 16.0645 -83.7402 16.8457 -82.959 18.0176 -82.959 Z M 20.6543 -44.9707 L 132.764 -44.9707 C 135.693 -44.9707 137.354 -46.582 137.354 -49.5117 L 137.354 -54.0527 C 137.354 -56.9336 135.693 -58.5938 132.764 -58.5938 L 20.6543 -58.5938 C 17.7246 -58.5938 16.0645 -56.9336 16.0645 -54.0527 L 16.0645 -49.5117 C 16.0645 -46.582 17.7246 -44.9707 20.6543 -44.9707 Z M 20.6543 -11.8164 L 69.9219 -11.8164 C 72.8516 -11.8164 74.4629 -13.4766 74.4629 -16.4062 L 74.4629 -20.8984 C 74.4629 -23.8281 72.8516 -25.4883 69.9219 -25.4883 L 20.6543 -25.4883 C 17.7246 -25.4883 16.0645 -23.8281 16.0645 -20.8984 L 16.0645 -16.4062 C 16.0645 -13.4766 17.7246 -11.8164 20.6543 -11.8164 Z M 81.6406 -16.6992 L 135.4 -16.6992 C 136.523 -16.6992 137.354 -17.5293 137.354 -18.6523 C 137.354 -19.7754 136.523 -20.6055 135.4 -20.6055 L 81.6406 -20.6055 C 80.4688 -20.6055 79.6875 -19.7754 79.6875 -18.6523 C 79.6875 -17.5293 80.4688 -16.6992 81.6406 -16.6992 Z M 18.0176 16.4062 L 135.4 16.4062 C 136.523 16.4062 137.354 15.625 137.354 14.4531 C 137.354 13.3301 136.523 12.5488 135.4 12.5488 L 18.0176 12.5488 C 16.8457 12.5488 16.0645 13.3301 16.0645 14.4531 C 16.0645 15.625 16.8457 16.4062 18.0176 16.4062 Z"/>
  </g>
  <g id="Ultralight-L" transform="matrix(1 0 0 1 483.637 1556)">
   <path d="M 17.3828 -83.5938 L 134.766 -83.5938 C 135.596 -83.5938 136.084 -84.082 136.084 -84.8633 C 136.084 -85.6934 135.596 -86.1816 134.766 -86.1816 L 17.3828 -86.1816 C 16.5527 -86.1816 16.0645 -85.6934 16.0645 -84.8633 C 16.0645 -84.082 16.5527 -83.5938 17.3828 -83.5938 Z M 19.873 -45.6543 L 132.275 -45.6543 C 134.668 -45.6543 136.084 -47.0703 136.084 -49.5117 L 136.084 -53.9551 C 136.084 -56.3965 134.668 -57.8125 132.275 -57.8125 L 19.873 -57.8125 C 17.4805 -57.8125 16.0645 -56.3965 16.0645 -53.9551 L 16.0645 -49.5117 C 16.0645 -47.0703 17.4805 -45.6543 19.873 -45.6543 Z M 19.873 -12.5 L 69.6777 -12.5 C 72.0703 -12.5 73.4863 -13.9648 73.4863 -16.3574 L 73.4863 -20.8496 C 73.4863 -23.2422 72.0703 -24.6582 69.6777 -24.6582 L 19.873 -24.6582 C 17.4805 -24.6582 16.0645 -23.2422 16.0645 -20.8496 L 16.0645 -16.3574 C 16.0645 -13.9648 17.4805 -12.5 19.873 -12.5 Z M 79.248 -17.2852 L 134.766 -17.2852 C 135.596 -17.2852 136.084 -17.7734 136.084 -18.6035 C 136.084 -19.3848 135.596 -19.9219 134.766 -19.9219 L 79.248 -19.9219 C 78.4668 -19.9219 77.9297 -19.3848 77.9297 -18.6035 C 77.9297 -17.7734 78.4668 -17.2852 79.248 -17.2852 Z M 17.3828 15.8691 L 134.766 15.8691 C 135.596 15.8691 136.084 15.332 136.084 14.5508 C 136.084 13.7695 135.596 13.2324 134.766 13.2324 L 17.3828 13.2324 C 16.5527 13.2324 16.0645 13.7695 16.0645 14.5508 C 16.0645 15.332 16.5527 15.8691 17.3828 15.8691 Z"/>
  </g>
  <g id="Black-M" transform="matrix(1 0 0 1 2864.7 1126)">
   <path d="M 20.3125 -67.1387 L 117.09 -67.1387 C 121.484 -67.1387 124.951 -71.0449 124.951 -75.293 C 124.951 -79.7852 121.533 -83.4961 117.09 -83.4961 L 20.3125 -83.4961 C 15.918 -83.4961 12.4512 -79.6387 12.4512 -75.293 C 12.4512 -71.1426 15.9668 -67.1387 20.3125 -67.1387 Z M 19.4824 -39.1602 L 117.969 -39.1602 C 122.363 -39.1602 124.951 -41.748 124.951 -46.1426 L 124.951 -53.1738 C 124.951 -57.5684 122.363 -60.1562 117.969 -60.1562 L 19.4824 -60.1562 C 15.0879 -60.1562 12.5 -57.5684 12.5 -53.1738 L 12.5 -46.1426 C 12.5 -41.748 15.0879 -39.1602 19.4824 -39.1602 Z M 19.4824 -13.4766 L 56.6895 -13.4766 C 61.084 -13.4766 63.6719 -16.0645 63.6719 -20.459 L 63.6719 -27.4902 C 63.6719 -31.8848 61.084 -34.4727 56.6895 -34.4727 L 19.4824 -34.4727 C 15.0879 -34.4727 12.5 -31.8848 12.5 -27.4902 L 12.5 -20.459 C 12.5 -16.0645 15.0879 -13.4766 19.4824 -13.4766 Z M 81.543 -15.8203 L 117.09 -15.8203 C 121.484 -15.8203 124.951 -19.7266 124.951 -24.0234 C 124.951 -28.4668 121.533 -32.2266 117.09 -32.2266 L 81.543 -32.2266 C 77.1484 -32.2266 73.6816 -28.3691 73.6816 -24.0234 C 73.6816 -19.873 77.1973 -15.8203 81.543 -15.8203 Z M 20.3125 9.81445 L 117.09 9.81445 C 121.484 9.81445 124.951 5.9082 124.951 1.61133 C 124.951 -2.88086 121.533 -6.5918 117.09 -6.5918 L 20.3125 -6.5918 C 15.918 -6.5918 12.4512 -2.73438 12.4512 1.61133 C 12.4512 5.76172 15.9668 9.81445 20.3125 9.81445 Z"/>
  </g>
  <g id="Heavy-M" transform="matrix(1 0 0 1 2569.65 1126)">
   <path d="M 19.3359 -67.8223 L 114.697 -67.8223 C 118.555 -67.8223 121.631 -71.1914 121.631 -74.9512 C 121.631 -78.8574 118.604 -82.0801 114.697 -82.0801 L 19.3359 -82.0801 C 15.4785 -82.0801 12.4512 -78.7598 12.4512 -74.9512 C 12.4512 -71.2891 15.5273 -67.8223 19.3359 -67.8223 Z M 19.2871 -39.4531 L 114.795 -39.4531 C 119.141 -39.4531 121.631 -41.8457 121.631 -46.1914 L 121.631 -52.4414 C 121.631 -56.7383 119.141 -59.1797 114.795 -59.1797 L 19.2871 -59.1797 C 14.9414 -59.1797 12.5 -56.7383 12.5 -52.4414 L 12.5 -46.1914 C 12.5 -41.8457 14.9414 -39.4531 19.2871 -39.4531 Z M 19.2871 -13.7695 L 56.2988 -13.7695 C 60.6445 -13.7695 63.0859 -16.2109 63.0859 -20.5566 L 63.0859 -26.7578 C 63.0859 -31.1035 60.6445 -33.5449 56.2988 -33.5449 L 19.2871 -33.5449 C 14.9414 -33.5449 12.5 -31.1035 12.5 -26.7578 L 12.5 -20.5566 C 12.5 -16.2109 14.9414 -13.7695 19.2871 -13.7695 Z M 79.1992 -16.5527 L 114.697 -16.5527 C 118.555 -16.5527 121.631 -19.9219 121.631 -23.6816 C 121.631 -27.5879 118.604 -30.8105 114.697 -30.8105 L 79.1992 -30.8105 C 75.3418 -30.8105 72.3145 -27.4902 72.3145 -23.6816 C 72.3145 -20.0195 75.3906 -16.5527 79.1992 -16.5527 Z M 19.3359 9.08203 L 114.697 9.08203 C 118.555 9.08203 121.631 5.66406 121.631 1.9043 C 121.631 -1.95312 118.604 -5.22461 114.697 -5.22461 L 19.3359 -5.22461 C 15.4785 -5.22461 12.4512 -1.85547 12.4512 1.9043 C 12.4512 5.56641 15.5273 9.08203 19.3359 9.08203 Z"/>
  </g>
  <g id="Bold-M" transform="matrix(1 0 0 1 2274.82 1126)">
   <path d="M 18.2129 -68.6035 L 112.061 -68.6035 C 115.332 -68.6035 117.871 -71.3867 117.871 -74.5605 C 117.871 -77.7832 115.332 -80.4688 112.061 -80.4688 L 18.2129 -80.4688 C 14.9902 -80.4688 12.4512 -77.7344 12.4512 -74.5605 C 12.4512 -71.4355 15.0391 -68.6035 18.2129 -68.6035 Z M 19.043 -39.7461 L 111.328 -39.7461 C 115.576 -39.7461 117.871 -41.9922 117.871 -46.2891 L 117.871 -51.6113 C 117.871 -55.8105 115.576 -58.1055 111.328 -58.1055 L 19.043 -58.1055 C 14.7949 -58.1055 12.5 -55.8105 12.5 -51.6113 L 12.5 -46.2891 C 12.5 -41.9922 14.7949 -39.7461 19.043 -39.7461 Z M 19.043 -14.1113 L 55.8594 -14.1113 C 60.1074 -14.1113 62.4512 -16.4062 62.4512 -20.6543 L 62.4512 -25.9766 C 62.4512 -30.1758 60.1074 -32.4707 55.8594 -32.4707 L 19.043 -32.4707 C 14.7949 -32.4707 12.5 -30.1758 12.5 -25.9766 L 12.5 -20.6543 C 12.5 -16.4062 14.7949 -14.1113 19.043 -14.1113 Z M 76.5625 -17.3828 L 112.061 -17.3828 C 115.332 -17.3828 117.871 -20.1172 117.871 -23.291 C 117.871 -26.5625 115.332 -29.248 112.061 -29.248 L 76.5625 -29.248 C 73.3398 -29.248 70.8008 -26.5137 70.8008 -23.291 C 70.8008 -20.2148 73.3887 -17.3828 76.5625 -17.3828 Z M 18.2129 8.25195 L 112.061 8.25195 C 115.332 8.25195 117.871 5.46875 117.871 2.29492 C 117.871 -0.976562 115.332 -3.66211 112.061 -3.66211 L 18.2129 -3.66211 C 14.9902 -3.66211 12.4512 -0.927734 12.4512 2.29492 C 12.4512 5.41992 15.0391 8.25195 18.2129 8.25195 Z"/>
  </g>
  <g id="Semibold-M" transform="matrix(1 0 0 1 1979.38 1126)">
   <path d="M 17.4805 -69.1406 L 110.254 -69.1406 C 113.086 -69.1406 115.332 -71.4844 115.332 -74.2676 C 115.332 -77.0996 113.086 -79.3945 110.254 -79.3945 L 17.4805 -79.3945 C 14.6484 -79.3945 12.4512 -77.0508 12.4512 -74.2676 C 12.4512 -71.5332 14.6973 -69.1406 17.4805 -69.1406 Z M 18.8965 -39.9414 L 108.887 -39.9414 C 113.086 -39.9414 115.332 -42.0898 115.332 -46.3379 L 115.332 -51.0254 C 115.332 -55.1758 113.086 -57.373 108.887 -57.373 L 18.8965 -57.373 C 14.6973 -57.373 12.4512 -55.1758 12.4512 -51.0254 L 12.4512 -46.3379 C 12.4512 -42.0898 14.6973 -39.9414 18.8965 -39.9414 Z M 18.8965 -14.3066 L 55.5664 -14.3066 C 59.7656 -14.3066 62.0117 -16.5039 62.0117 -20.7031 L 62.0117 -25.3906 C 62.0117 -29.541 59.7656 -31.7871 55.5664 -31.7871 L 18.8965 -31.7871 C 14.6973 -31.7871 12.4512 -29.541 12.4512 -25.3906 L 12.4512 -20.7031 C 12.4512 -16.5039 14.6973 -14.3066 18.8965 -14.3066 Z M 74.7559 -17.9199 L 110.254 -17.9199 C 113.086 -17.9199 115.332 -20.2637 115.332 -23.0469 C 115.332 -25.8789 113.086 -28.1738 110.254 -28.1738 L 74.7559 -28.1738 C 71.9238 -28.1738 69.7266 -25.8301 69.7266 -23.0469 C 69.7266 -20.3125 71.9727 -17.9199 74.7559 -17.9199 Z M 17.4805 7.66602 L 110.254 7.66602 C 113.086 7.66602 115.332 5.32227 115.332 2.53906 C 115.332 -0.292969 113.086 -2.58789 110.254 -2.58789 L 17.4805 -2.58789 C 14.6484 -2.58789 12.4512 -0.244141 12.4512 2.53906 C 12.4512 5.27344 14.6973 7.66602 17.4805 7.66602 Z"/>
  </g>
  <g id="Medium-M" transform="matrix(1 0 0 1 1683.64 1126)">
   <path d="M 16.8945 -69.5312 L 108.887 -69.5312 C 111.377 -69.5312 113.379 -71.582 113.379 -74.0234 C 113.379 -76.5625 111.377 -78.5156 108.887 -78.5156 L 16.8945 -78.5156 C 14.4043 -78.5156 12.4512 -76.5137 12.4512 -74.0234 C 12.4512 -71.582 14.4043 -69.5312 16.8945 -69.5312 Z M 18.7988 -40.0879 L 107.031 -40.0879 C 111.23 -40.0879 113.379 -42.1875 113.379 -46.3379 L 113.379 -50.5859 C 113.379 -54.6875 111.23 -56.8359 107.031 -56.8359 L 18.7988 -56.8359 C 14.5996 -56.8359 12.4512 -54.6875 12.4512 -50.5859 L 12.4512 -46.3379 C 12.4512 -42.1875 14.5996 -40.0879 18.7988 -40.0879 Z M 18.7988 -14.4531 L 55.3711 -14.4531 C 59.5215 -14.4531 61.6699 -16.6016 61.6699 -20.752 L 61.6699 -25 C 61.6699 -29.0527 59.5215 -31.25 55.3711 -31.25 L 18.7988 -31.25 C 14.5996 -31.25 12.4512 -29.0527 12.4512 -25 L 12.4512 -20.752 C 12.4512 -16.6016 14.5996 -14.4531 18.7988 -14.4531 Z M 73.3887 -18.3594 L 108.887 -18.3594 C 111.377 -18.3594 113.379 -20.4102 113.379 -22.8516 C 113.379 -25.3418 111.377 -27.3438 108.887 -27.3438 L 73.3887 -27.3438 C 70.8984 -27.3438 68.9453 -25.3418 68.9453 -22.8516 C 68.9453 -20.4102 70.8984 -18.3594 73.3887 -18.3594 Z M 16.8945 7.22656 L 108.887 7.22656 C 111.377 7.22656 113.379 5.17578 113.379 2.73438 C 113.379 0.244141 111.377 -1.75781 108.887 -1.75781 L 16.8945 -1.75781 C 14.4043 -1.75781 12.4512 0.244141 12.4512 2.73438 C 12.4512 5.17578 14.4043 7.22656 16.8945 7.22656 Z"/>
  </g>
  <g id="Regular-M" transform="matrix(1 0 0 1 1388.2 1126)">
   <path d="M 16.1133 -70.0684 L 107.08 -70.0684 C 109.131 -70.0684 110.84 -71.6797 110.84 -73.7793 C 110.84 -75.8301 109.131 -77.4414 107.08 -77.4414 L 16.1133 -77.4414 C 14.0625 -77.4414 12.4512 -75.8301 12.4512 -73.7793 C 12.4512 -71.6797 14.0625 -70.0684 16.1133 -70.0684 Z M 18.6035 -40.2832 L 104.639 -40.2832 C 108.74 -40.2832 110.84 -42.2852 110.84 -46.3867 L 110.84 -50.0488 C 110.84 -54.0527 108.74 -56.1035 104.639 -56.1035 L 18.6035 -56.1035 C 14.502 -56.1035 12.4512 -54.0527 12.4512 -50.0488 L 12.4512 -46.3867 C 12.4512 -42.2852 14.502 -40.2832 18.6035 -40.2832 Z M 18.6035 -14.6973 L 55.0781 -14.6973 C 59.1797 -14.6973 61.2305 -16.6992 61.2305 -20.8008 L 61.2305 -24.4629 C 61.2305 -28.4668 59.1797 -30.5176 55.0781 -30.5176 L 18.6035 -30.5176 C 14.502 -30.5176 12.4512 -28.4668 12.4512 -24.4629 L 12.4512 -20.8008 C 12.4512 -16.6992 14.502 -14.6973 18.6035 -14.6973 Z M 71.582 -18.8965 L 107.08 -18.8965 C 109.131 -18.8965 110.84 -20.5566 110.84 -22.6074 C 110.84 -24.6582 109.131 -26.2695 107.08 -26.2695 L 71.582 -26.2695 C 69.5312 -26.2695 67.9199 -24.6582 67.9199 -22.6074 C 67.9199 -20.5566 69.5312 -18.8965 71.582 -18.8965 Z M 16.1133 6.64062 L 107.08 6.64062 C 109.131 6.64062 110.84 5.0293 110.84 2.97852 C 110.84 0.927734 109.131 -0.732422 107.08 -0.732422 L 16.1133 -0.732422 C 14.0625 -0.732422 12.4512 0.927734 12.4512 2.97852 C 12.4512 5.0293 14.0625 6.64062 16.1133 6.64062 Z"/>
  </g>
  <g id="Light-M" transform="matrix(1 0 0 1 1092.32 1126)">
   <path d="M 15.332 -70.8984 L 106.25 -70.8984 C 107.91 -70.8984 109.18 -72.1191 109.18 -73.7305 C 109.18 -75.3418 107.91 -76.6113 106.25 -76.6113 L 15.332 -76.6113 C 13.6719 -76.6113 12.4512 -75.3418 12.4512 -73.7305 C 12.4512 -72.1191 13.6719 -70.8984 15.332 -70.8984 Z M 17.627 -41.2109 L 104.004 -41.2109 C 107.373 -41.2109 109.18 -42.9688 109.18 -46.3379 L 109.18 -49.9512 C 109.18 -53.2715 107.373 -55.0293 104.004 -55.0293 L 17.627 -55.0293 C 14.209 -55.0293 12.4512 -53.2715 12.4512 -49.9512 L 12.4512 -46.3379 C 12.4512 -42.9688 14.209 -41.2109 17.627 -41.2109 Z M 17.627 -15.625 L 54.7363 -15.625 C 58.1543 -15.625 59.9121 -17.334 59.9121 -20.752 L 59.9121 -24.3164 C 59.9121 -27.6855 58.1543 -29.4434 54.7363 -29.4434 L 17.627 -29.4434 C 14.209 -29.4434 12.4512 -27.6855 12.4512 -24.3164 L 12.4512 -20.752 C 12.4512 -17.334 14.209 -15.625 17.627 -15.625 Z M 68.457 -19.6777 L 106.25 -19.6777 C 107.91 -19.6777 109.18 -20.8984 109.18 -22.5098 C 109.18 -24.1211 107.91 -25.3906 106.25 -25.3906 L 68.457 -25.3906 C 66.7969 -25.3906 65.5762 -24.1211 65.5762 -22.5098 C 65.5762 -20.8984 66.7969 -19.6777 68.457 -19.6777 Z M 15.332 5.95703 L 106.25 5.95703 C 107.91 5.95703 109.18 4.6875 109.18 3.07617 C 109.18 1.46484 107.91 0.244141 106.25 0.244141 L 15.332 0.244141 C 13.6719 0.244141 12.4512 1.46484 12.4512 3.07617 C 12.4512 4.6875 13.6719 5.95703 15.332 5.95703 Z"/>
  </g>
  <g id="Thin-M" transform="matrix(1 0 0 1 796.705 1126)">
   <path d="M 14.209 -71.9727 L 105.176 -71.9727 C 106.201 -71.9727 106.982 -72.7051 106.982 -73.7305 C 106.982 -74.7559 106.201 -75.4883 105.176 -75.4883 L 14.209 -75.4883 C 13.1836 -75.4883 12.4512 -74.7559 12.4512 -73.7305 C 12.4512 -72.7051 13.1836 -71.9727 14.209 -71.9727 Z M 16.3086 -42.4805 L 103.125 -42.4805 C 105.615 -42.4805 106.982 -43.7988 106.982 -46.2891 L 106.982 -49.8535 C 106.982 -52.2949 105.615 -53.6621 103.125 -53.6621 L 16.3086 -53.6621 C 13.8184 -53.6621 12.4512 -52.2949 12.4512 -49.8535 L 12.4512 -46.2891 C 12.4512 -43.7988 13.8184 -42.4805 16.3086 -42.4805 Z M 16.3086 -16.7969 L 54.2969 -16.7969 C 56.7871 -16.7969 58.1543 -18.1641 58.1543 -20.6543 L 58.1543 -24.1699 C 58.1543 -26.6602 56.7871 -28.0273 54.2969 -28.0273 L 16.3086 -28.0273 C 13.8184 -28.0273 12.4512 -26.6602 12.4512 -24.1699 L 12.4512 -20.6543 C 12.4512 -18.1641 13.8184 -16.7969 16.3086 -16.7969 Z M 64.2578 -20.6543 L 105.176 -20.6543 C 106.201 -20.6543 106.982 -21.3867 106.982 -22.4121 C 106.982 -23.4375 106.201 -24.1699 105.176 -24.1699 L 64.2578 -24.1699 C 63.2324 -24.1699 62.5 -23.4375 62.5 -22.4121 C 62.5 -21.3867 63.2324 -20.6543 64.2578 -20.6543 Z M 14.209 5.0293 L 105.176 5.0293 C 106.201 5.0293 106.982 4.24805 106.982 3.22266 C 106.982 2.19727 106.201 1.46484 105.176 1.46484 L 14.209 1.46484 C 13.1836 1.46484 12.4512 2.19727 12.4512 3.22266 C 12.4512 4.24805 13.1836 5.0293 14.209 5.0293 Z"/>
  </g>
  <g id="Ultralight-M" transform="matrix(1 0 0 1 500.556 1126)">
   <path d="M 13.6719 -72.5098 L 104.639 -72.5098 C 105.371 -72.5098 105.859 -72.998 105.859 -73.7305 C 105.859 -74.4141 105.371 -74.9023 104.639 -74.9023 L 13.6719 -74.9023 C 12.9395 -74.9023 12.4512 -74.4141 12.4512 -73.7305 C 12.4512 -72.998 12.9395 -72.5098 13.6719 -72.5098 Z M 15.625 -43.1152 L 102.637 -43.1152 C 104.688 -43.1152 105.859 -44.2871 105.859 -46.2891 L 105.859 -49.7559 C 105.859 -51.8066 104.688 -52.9785 102.637 -52.9785 L 15.625 -52.9785 C 13.623 -52.9785 12.4512 -51.8066 12.4512 -49.7559 L 12.4512 -46.2891 C 12.4512 -44.2871 13.623 -43.1152 15.625 -43.1152 Z M 15.625 -17.4316 L 54.0527 -17.4316 C 56.1035 -17.4316 57.2754 -18.6035 57.2754 -20.6055 L 57.2754 -24.1211 C 57.2754 -26.123 56.1035 -27.2949 54.0527 -27.2949 L 15.625 -27.2949 C 13.623 -27.2949 12.4512 -26.123 12.4512 -24.1211 L 12.4512 -20.6055 C 12.4512 -18.6035 13.623 -17.4316 15.625 -17.4316 Z M 62.1582 -21.1426 L 104.639 -21.1426 C 105.371 -21.1426 105.859 -21.6309 105.859 -22.3633 C 105.859 -23.0957 105.371 -23.5352 104.639 -23.5352 L 62.1582 -23.5352 C 61.4258 -23.5352 60.9375 -23.0957 60.9375 -22.3633 C 60.9375 -21.6309 61.4258 -21.1426 62.1582 -21.1426 Z M 13.6719 4.54102 L 104.639 4.54102 C 105.371 4.54102 105.859 4.05273 105.859 3.32031 C 105.859 2.58789 105.371 2.09961 104.639 2.09961 L 13.6719 2.09961 C 12.9395 2.09961 12.4512 2.58789 12.4512 3.32031 C 12.4512 4.05273 12.9395 4.54102 13.6719 4.54102 Z"/>
  </g>
  <g id="Black-S" transform="matrix(1 0 0 1 2879.69 696)">
   <path d="M 15.8691 -60.2539 L 91.5527 -60.2539 C 94.9707 -60.2539 97.6562 -63.2812 97.6562 -66.6016 C 97.6562 -70.0684 95.0195 -72.9492 91.5527 -72.9492 L 15.8691 -72.9492 C 12.4512 -72.9492 9.76562 -69.9707 9.76562 -66.6016 C 9.76562 -63.3789 12.5 -60.2539 15.8691 -60.2539 Z M 15.2832 -38.3301 L 92.1875 -38.3301 C 95.6543 -38.3301 97.6562 -40.332 97.6562 -43.7988 L 97.6562 -49.2188 C 97.6562 -52.6855 95.6543 -54.6875 92.1875 -54.6875 L 15.2832 -54.6875 C 11.8164 -54.6875 9.81445 -52.6855 9.81445 -49.2188 L 9.81445 -43.7988 C 9.81445 -40.332 11.8164 -38.3301 15.2832 -38.3301 Z M 15.2832 -18.2129 L 44.3848 -18.2129 C 47.8516 -18.2129 49.8535 -20.2148 49.8535 -23.6816 L 49.8535 -29.1016 C 49.8535 -32.5684 47.8516 -34.5703 44.3848 -34.5703 L 15.2832 -34.5703 C 11.8164 -34.5703 9.81445 -32.5684 9.81445 -29.1016 L 9.81445 -23.6816 C 9.81445 -20.2148 11.8164 -18.2129 15.2832 -18.2129 Z M 63.7695 -20.0684 L 91.5527 -20.0684 C 94.9707 -20.0684 97.6562 -23.0957 97.6562 -26.416 C 97.6562 -29.8828 95.0195 -32.7637 91.5527 -32.7637 L 63.7695 -32.7637 C 60.3516 -32.7637 57.666 -29.7852 57.666 -26.416 C 57.666 -23.1934 60.4004 -20.0684 63.7695 -20.0684 Z M 15.8691 0 L 91.5527 0 C 94.9707 0 97.6562 -3.02734 97.6562 -6.34766 C 97.6562 -9.81445 95.0195 -12.6953 91.5527 -12.6953 L 15.8691 -12.6953 C 12.4512 -12.6953 9.76562 -9.7168 9.76562 -6.34766 C 9.76562 -3.125 12.5 0 15.8691 0 Z"/>
  </g>
  <g id="Heavy-S" transform="matrix(1 0 0 1 2584.15 696)">
   <path d="M 15.1855 -60.6934 L 89.8438 -60.6934 C 92.8711 -60.6934 95.3125 -63.3789 95.3125 -66.3086 C 95.3125 -69.3848 92.9199 -71.9727 89.8438 -71.9727 L 15.1855 -71.9727 C 12.1582 -71.9727 9.76562 -69.3359 9.76562 -66.3086 C 9.76562 -63.4277 12.207 -60.6934 15.1855 -60.6934 Z M 15.2344 -38.4277 L 89.8438 -38.4277 C 93.3594 -38.4277 95.3125 -40.332 95.3125 -43.8477 L 95.3125 -48.6816 C 95.3125 -52.1484 93.3594 -54.0527 89.8438 -54.0527 L 15.2344 -54.0527 C 11.7676 -54.0527 9.81445 -52.1484 9.81445 -48.6816 L 9.81445 -43.8477 C 9.81445 -40.332 11.7676 -38.4277 15.2344 -38.4277 Z M 15.2344 -18.3105 L 44.1406 -18.3105 C 47.6074 -18.3105 49.5605 -20.2637 49.5605 -23.7305 L 49.5605 -28.5645 C 49.5605 -32.0312 47.6074 -33.9844 44.1406 -33.9844 L 15.2344 -33.9844 C 11.7676 -33.9844 9.81445 -32.0312 9.81445 -28.5645 L 9.81445 -23.7305 C 9.81445 -20.2637 11.7676 -18.3105 15.2344 -18.3105 Z M 62.3047 -20.5566 L 89.8438 -20.5566 C 92.8711 -20.5566 95.3125 -23.1934 95.3125 -26.1719 C 95.3125 -29.248 92.9199 -31.7871 89.8438 -31.7871 L 62.3047 -31.7871 C 59.2773 -31.7871 56.8848 -29.1992 56.8848 -26.1719 C 56.8848 -23.291 59.3262 -20.5566 62.3047 -20.5566 Z M 15.1855 -0.488281 L 89.8438 -0.488281 C 92.8711 -0.488281 95.3125 -3.125 95.3125 -6.10352 C 95.3125 -9.17969 92.9199 -11.7188 89.8438 -11.7188 L 15.1855 -11.7188 C 12.1582 -11.7188 9.76562 -9.13086 9.76562 -6.10352 C 9.76562 -3.22266 12.207 -0.488281 15.1855 -0.488281 Z"/>
  </g>
  <g id="Bold-S" transform="matrix(1 0 0 1 2288.78 696)">
   <path d="M 14.4531 -61.1816 L 87.9395 -61.1816 C 90.5762 -61.1816 92.627 -63.4277 92.627 -66.0156 C 92.627 -68.6523 90.5762 -70.8496 87.9395 -70.8496 L 14.4531 -70.8496 C 11.8164 -70.8496 9.76562 -68.6035 9.76562 -66.0156 C 9.76562 -63.4766 11.8652 -61.1816 14.4531 -61.1816 Z M 15.1855 -38.5254 L 87.2559 -38.5254 C 90.7715 -38.5254 92.627 -40.3809 92.627 -43.8965 L 92.627 -48.0469 C 92.627 -51.5137 90.7715 -53.3691 87.2559 -53.3691 L 15.1855 -53.3691 C 11.6699 -53.3691 9.81445 -51.5137 9.81445 -48.0469 L 9.81445 -43.8965 C 9.81445 -40.3809 11.6699 -38.5254 15.1855 -38.5254 Z M 15.1855 -18.457 L 43.8477 -18.457 C 47.3633 -18.457 49.2188 -20.3125 49.2188 -23.8281 L 49.2188 -27.9785 C 49.2188 -31.4453 47.3633 -33.3008 43.8477 -33.3008 L 15.1855 -33.3008 C 11.6699 -33.3008 9.81445 -31.4453 9.81445 -27.9785 L 9.81445 -23.8281 C 9.81445 -20.3125 11.6699 -18.457 15.1855 -18.457 Z M 60.6934 -21.0938 L 87.9395 -21.0938 C 90.5762 -21.0938 92.627 -23.3398 92.627 -25.8789 C 92.627 -28.5645 90.5762 -30.7129 87.9395 -30.7129 L 60.6934 -30.7129 C 58.0566 -30.7129 56.0059 -28.5156 56.0059 -25.8789 C 56.0059 -23.3887 58.1055 -21.0938 60.6934 -21.0938 Z M 14.4531 -1.02539 L 87.9395 -1.02539 C 90.5762 -1.02539 92.627 -3.27148 92.627 -5.85938 C 92.627 -8.49609 90.5762 -10.6934 87.9395 -10.6934 L 14.4531 -10.6934 C 11.8164 -10.6934 9.76562 -8.44727 9.76562 -5.85938 C 9.76562 -3.32031 11.8652 -1.02539 14.4531 -1.02539 Z"/>
  </g>
  <g id="Semibold-S" transform="matrix(1 0 0 1 1992.97 696)">
   <path d="M 13.9648 -61.5234 L 86.6211 -61.5234 C 88.9648 -61.5234 90.8203 -63.4766 90.8203 -65.8203 C 90.8203 -68.1641 88.9648 -70.0684 86.6211 -70.0684 L 13.9648 -70.0684 C 11.6211 -70.0684 9.76562 -68.1152 9.76562 -65.8203 C 9.76562 -63.5254 11.6211 -61.5234 13.9648 -61.5234 Z M 15.1367 -38.5742 L 85.4492 -38.5742 C 88.9648 -38.5742 90.8203 -40.3809 90.8203 -43.9453 L 90.8203 -47.6074 C 90.8203 -51.0742 88.9648 -52.9297 85.4492 -52.9297 L 15.1367 -52.9297 C 11.6211 -52.9297 9.76562 -51.0742 9.76562 -47.6074 L 9.76562 -43.9453 C 9.76562 -40.3809 11.6211 -38.5742 15.1367 -38.5742 Z M 15.1367 -18.5547 L 43.6523 -18.5547 C 47.168 -18.5547 49.0234 -20.3613 49.0234 -23.877 L 49.0234 -27.5391 C 49.0234 -31.0059 47.168 -32.8613 43.6523 -32.8613 L 15.1367 -32.8613 C 11.6211 -32.8613 9.76562 -31.0059 9.76562 -27.5391 L 9.76562 -23.877 C 9.76562 -20.3613 11.6211 -18.5547 15.1367 -18.5547 Z M 59.5703 -21.4355 L 86.6211 -21.4355 C 88.9648 -21.4355 90.8203 -23.3887 90.8203 -25.6836 C 90.8203 -28.0762 88.9648 -29.9805 86.6211 -29.9805 L 59.5703 -29.9805 C 57.2266 -29.9805 55.3711 -28.0273 55.3711 -25.6836 C 55.3711 -23.4375 57.2266 -21.4355 59.5703 -21.4355 Z M 13.9648 -1.41602 L 86.6211 -1.41602 C 88.9648 -1.41602 90.8203 -3.36914 90.8203 -5.66406 C 90.8203 -8.00781 88.9648 -9.91211 86.6211 -9.91211 L 13.9648 -9.91211 C 11.6211 -9.91211 9.76562 -8.00781 9.76562 -5.66406 C 9.76562 -3.36914 11.6211 -1.41602 13.9648 -1.41602 Z"/>
  </g>
  <g id="Medium-S" transform="matrix(1 0 0 1 1696.95 696)">
   <path d="M 13.5742 -61.8164 L 85.5957 -61.8164 C 87.7441 -61.8164 89.4531 -63.5254 89.4531 -65.625 C 89.4531 -67.7734 87.7441 -69.4824 85.5957 -69.4824 L 13.5742 -69.4824 C 11.4258 -69.4824 9.76562 -67.7734 9.76562 -65.625 C 9.76562 -63.5742 11.4746 -61.8164 13.5742 -61.8164 Z M 15.1367 -38.6719 L 84.082 -38.6719 C 87.6465 -38.6719 89.4531 -40.4297 89.4531 -43.9453 L 89.4531 -47.2656 C 89.4531 -50.7324 87.6465 -52.5391 84.082 -52.5391 L 15.1367 -52.5391 C 11.5723 -52.5391 9.76562 -50.7324 9.76562 -47.2656 L 9.76562 -43.9453 C 9.76562 -40.4297 11.5723 -38.6719 15.1367 -38.6719 Z M 15.1367 -18.6035 L 43.5059 -18.6035 C 47.0215 -18.6035 48.8281 -20.3613 48.8281 -23.9258 L 48.8281 -27.2461 C 48.8281 -30.7129 47.0215 -32.5195 43.5059 -32.5195 L 15.1367 -32.5195 C 11.5723 -32.5195 9.76562 -30.7129 9.76562 -27.2461 L 9.76562 -23.9258 C 9.76562 -20.3613 11.5723 -18.6035 15.1367 -18.6035 Z M 58.7402 -21.7285 L 85.5957 -21.7285 C 87.7441 -21.7285 89.4531 -23.4863 89.4531 -25.5859 C 89.4531 -27.6855 87.7441 -29.3945 85.5957 -29.3945 L 58.7402 -29.3945 C 56.5918 -29.3945 54.9316 -27.6855 54.9316 -25.5859 C 54.9316 -23.4863 56.5918 -21.7285 58.7402 -21.7285 Z M 13.5742 -1.70898 L 85.5957 -1.70898 C 87.7441 -1.70898 89.4531 -3.41797 89.4531 -5.51758 C 89.4531 -7.66602 87.7441 -9.375 85.5957 -9.375 L 13.5742 -9.375 C 11.4258 -9.375 9.76562 -7.66602 9.76562 -5.51758 C 9.76562 -3.4668 11.4746 -1.70898 13.5742 -1.70898 Z"/>
  </g>
  <g id="Regular-S" transform="matrix(1 0 0 1 1401.14 696)">
   <path d="M 13.0371 -62.1582 L 84.2773 -62.1582 C 86.1328 -62.1582 87.6465 -63.5742 87.6465 -65.4297 C 87.6465 -67.2852 86.1328 -68.7012 84.2773 -68.7012 L 13.0371 -68.7012 C 11.2305 -68.7012 9.76562 -67.2852 9.76562 -65.4297 C 9.76562 -63.5742 11.2305 -62.1582 13.0371 -62.1582 Z M 15.0879 -38.7207 L 82.3242 -38.7207 C 85.8887 -38.7207 87.6465 -40.4297 87.6465 -43.9941 L 87.6465 -46.875 C 87.6465 -50.3418 85.8887 -52.0996 82.3242 -52.0996 L 15.0879 -52.0996 C 11.5234 -52.0996 9.76562 -50.3418 9.76562 -46.875 L 9.76562 -43.9941 C 9.76562 -40.4297 11.5234 -38.7207 15.0879 -38.7207 Z M 15.0879 -18.7012 L 43.3105 -18.7012 C 46.875 -18.7012 48.6328 -20.4102 48.6328 -23.9746 L 48.6328 -26.8555 C 48.6328 -30.3223 46.875 -32.0801 43.3105 -32.0801 L 15.0879 -32.0801 C 11.5234 -32.0801 9.76562 -30.3223 9.76562 -26.8555 L 9.76562 -23.9746 C 9.76562 -20.4102 11.5234 -18.7012 15.0879 -18.7012 Z M 57.6172 -22.0703 L 84.2773 -22.0703 C 86.1328 -22.0703 87.6465 -23.5352 87.6465 -25.3906 C 87.6465 -27.1973 86.1328 -28.6621 84.2773 -28.6621 L 57.6172 -28.6621 C 55.7617 -28.6621 54.3457 -27.1973 54.3457 -25.3906 C 54.3457 -23.5352 55.7617 -22.0703 57.6172 -22.0703 Z M 13.0371 -2.05078 L 84.2773 -2.05078 C 86.1328 -2.05078 87.6465 -3.51562 87.6465 -5.37109 C 87.6465 -7.17773 86.1328 -8.64258 84.2773 -8.64258 L 13.0371 -8.64258 C 11.2305 -8.64258 9.76562 -7.17773 9.76562 -5.37109 C 9.76562 -3.51562 11.2305 -2.05078 13.0371 -2.05078 Z"/>
  </g>
  <g id="Light-S" transform="matrix(1 0 0 1 1105.16 696)">
   <path d="M 12.3047 -62.8418 L 83.5938 -62.8418 C 85.0098 -62.8418 86.1816 -63.9648 86.1816 -65.4297 C 86.1816 -66.8457 85.0098 -67.9688 83.5938 -67.9688 L 12.3047 -67.9688 C 10.8887 -67.9688 9.76562 -66.8457 9.76562 -65.4297 C 9.76562 -63.9648 10.8887 -62.8418 12.3047 -62.8418 Z M 14.209 -39.5508 L 81.7383 -39.5508 C 84.668 -39.5508 86.1816 -41.0156 86.1816 -43.9453 L 86.1816 -46.7773 C 86.1816 -49.6582 84.668 -51.1719 81.7383 -51.1719 L 14.209 -51.1719 C 11.2793 -51.1719 9.76562 -49.6582 9.76562 -46.7773 L 9.76562 -43.9453 C 9.76562 -41.0156 11.2793 -39.5508 14.209 -39.5508 Z M 14.209 -19.4824 L 43.0176 -19.4824 C 45.9473 -19.4824 47.4609 -20.9473 47.4609 -23.9258 L 47.4609 -26.7578 C 47.4609 -29.5898 45.9473 -31.1035 43.0176 -31.1035 L 14.209 -31.1035 C 11.2793 -31.1035 9.76562 -29.5898 9.76562 -26.7578 L 9.76562 -23.9258 C 9.76562 -20.9473 11.2793 -19.4824 14.209 -19.4824 Z M 54.834 -22.7539 L 83.5938 -22.7539 C 85.0098 -22.7539 86.1816 -23.877 86.1816 -25.293 C 86.1816 -26.7578 85.0098 -27.8809 83.5938 -27.8809 L 54.834 -27.8809 C 53.3691 -27.8809 52.2949 -26.7578 52.2949 -25.293 C 52.2949 -23.877 53.3691 -22.7539 54.834 -22.7539 Z M 12.3047 -2.68555 L 83.5938 -2.68555 C 85.0098 -2.68555 86.1816 -3.80859 86.1816 -5.27344 C 86.1816 -6.68945 85.0098 -7.8125 83.5938 -7.8125 L 12.3047 -7.8125 C 10.8887 -7.8125 9.76562 -6.68945 9.76562 -5.27344 C 9.76562 -3.80859 10.8887 -2.68555 12.3047 -2.68555 Z"/>
  </g>
  <g id="Thin-S" transform="matrix(1 0 0 1 809.425 696)">
   <path d="M 11.377 -63.8184 L 82.6172 -63.8184 C 83.5449 -63.8184 84.2285 -64.4531 84.2285 -65.3809 C 84.2285 -66.3086 83.5449 -66.9922 82.6172 -66.9922 L 11.377 -66.9922 C 10.4492 -66.9922 9.76562 -66.3086 9.76562 -65.3809 C 9.76562 -64.4531 10.4492 -63.8184 11.377 -63.8184 Z M 13.0371 -40.6738 L 80.957 -40.6738 C 83.1055 -40.6738 84.2285 -41.7969 84.2285 -43.9453 L 84.2285 -46.6797 C 84.2285 -48.7793 83.1055 -49.9512 80.957 -49.9512 L 13.0371 -49.9512 C 10.9375 -49.9512 9.76562 -48.7793 9.76562 -46.6797 L 9.76562 -43.9453 C 9.76562 -41.7969 10.9375 -40.6738 13.0371 -40.6738 Z M 13.0371 -20.5566 L 42.627 -20.5566 C 44.7754 -20.5566 45.8984 -21.6797 45.8984 -23.8281 L 45.8984 -26.6113 C 45.8984 -28.7109 44.7754 -29.834 42.627 -29.834 L 13.0371 -29.834 C 10.9375 -29.834 9.76562 -28.7109 9.76562 -26.6113 L 9.76562 -23.8281 C 9.76562 -21.6797 10.9375 -20.5566 13.0371 -20.5566 Z M 51.1719 -23.6328 L 82.6172 -23.6328 C 83.5449 -23.6328 84.2285 -24.2676 84.2285 -25.1953 C 84.2285 -26.123 83.5449 -26.8066 82.6172 -26.8066 L 51.1719 -26.8066 C 50.2441 -26.8066 49.5605 -26.123 49.5605 -25.1953 C 49.5605 -24.2676 50.2441 -23.6328 51.1719 -23.6328 Z M 11.377 -3.51562 L 82.6172 -3.51562 C 83.5449 -3.51562 84.2285 -4.19922 84.2285 -5.12695 C 84.2285 -6.05469 83.5449 -6.68945 82.6172 -6.68945 L 11.377 -6.68945 C 10.4492 -6.68945 9.76562 -6.05469 9.76562 -5.12695 C 9.76562 -4.19922 10.4492 -3.51562 11.377 -3.51562 Z"/>
  </g>
  <g id="Ultralight-S" transform="matrix(1 0 0 1 513.202 696)">
   <path d="M 10.8398 -64.3066 L 82.1289 -64.3066 C 82.8125 -64.3066 83.252 -64.7461 83.252 -65.3809 C 83.252 -66.0156 82.8125 -66.4551 82.1289 -66.4551 L 10.8398 -66.4551 C 10.2051 -66.4551 9.76562 -66.0156 9.76562 -65.3809 C 9.76562 -64.7461 10.2051 -64.3066 10.8398 -64.3066 Z M 12.4512 -41.2109 L 80.5664 -41.2109 C 82.2754 -41.2109 83.252 -42.1875 83.252 -43.8965 L 83.252 -46.6309 C 83.252 -48.3398 82.2754 -49.3164 80.5664 -49.3164 L 12.4512 -49.3164 C 10.7422 -49.3164 9.76562 -48.3398 9.76562 -46.6309 L 9.76562 -43.8965 C 9.76562 -42.1875 10.7422 -41.2109 12.4512 -41.2109 Z M 12.4512 -21.0938 L 42.4316 -21.0938 C 44.1406 -21.0938 45.1172 -22.0703 45.1172 -23.7793 L 45.1172 -26.5137 C 45.1172 -28.2227 44.1406 -29.1992 42.4316 -29.1992 L 12.4512 -29.1992 C 10.7422 -29.1992 9.76562 -28.2227 9.76562 -26.5137 L 9.76562 -23.7793 C 9.76562 -22.0703 10.7422 -21.0938 12.4512 -21.0938 Z M 49.2676 -24.0723 L 82.1289 -24.0723 C 82.8125 -24.0723 83.252 -24.5117 83.252 -25.1465 C 83.252 -25.7812 82.8125 -26.2695 82.1289 -26.2695 L 49.2676 -26.2695 C 48.6328 -26.2695 48.1934 -25.7812 48.1934 -25.1465 C 48.1934 -24.5117 48.6328 -24.0723 49.2676 -24.0723 Z M 10.8398 -3.95508 L 82.1289 -3.95508 C 82.8125 -3.95508 83.252 -4.39453 83.252 -5.0293 C 83.252 -5.71289 82.8125 -6.15234 82.1289 -6.15234 L 10.8398 -6.15234 C 10.2051 -6.15234 9.76562 -5.71289 9.76562 -5.0293 C 9.76562 -4.39453 10.2051 -3.95508 10.8398 -3.95508 Z"/>
  </g>
 </g>
</svg>
