<?xml version="1.0" encoding="UTF-8"?>
<!--Generator: Apple Native CoreSVG 148-->
<!DOCTYPE svg
PUBLIC "-//W3C//DTD SVG 1.1//EN"
       "http://www.w3.org/Graphics/SVG/1.1/DTD/svg11.dtd">
<svg version="1.1" xmlns="http://www.w3.org/2000/svg" xmlns:xlink="http://www.w3.org/1999/xlink" width="3300" height="2200">
 <!--glyph: "uni10048C.medium", point size: 100.000000, font version: "Version 16.0d11e1", template writer version: "8"-->
 <g id="Notes">
  <rect height="2200" id="artboard" style="fill:white;opacity:1" width="3300" x="0" y="0"/>
  <line id="" style="fill:none;stroke:black;opacity:1;stroke-width:0.5;" x1="263" x2="3036" y1="292" y2="292"/>
  <text style="stroke:none;fill:black;font-family:-apple-system,&quot;SF Pro Display&quot;,&quot;SF Pro Text&quot;,Helvetica,sans-serif;font-weight:bold;" transform="matrix(1 0 0 1 263 322)">Weight/Scale Variations</text>
  <text style="stroke:none;fill:black;font-family:-apple-system,&quot;SF Pro Display&quot;,&quot;SF Pro Text&quot;,Helvetica,sans-serif;text-anchor:middle;" transform="matrix(1 0 0 1 559.711 322)">Ultralight</text>
  <text style="stroke:none;fill:black;font-family:-apple-system,&quot;SF Pro Display&quot;,&quot;SF Pro Text&quot;,Helvetica,sans-serif;text-anchor:middle;" transform="matrix(1 0 0 1 856.422 322)">Thin</text>
  <text style="stroke:none;fill:black;font-family:-apple-system,&quot;SF Pro Display&quot;,&quot;SF Pro Text&quot;,Helvetica,sans-serif;text-anchor:middle;" transform="matrix(1 0 0 1 1153.13 322)">Light</text>
  <text style="stroke:none;fill:black;font-family:-apple-system,&quot;SF Pro Display&quot;,&quot;SF Pro Text&quot;,Helvetica,sans-serif;text-anchor:middle;" transform="matrix(1 0 0 1 1449.84 322)">Regular</text>
  <text style="stroke:none;fill:black;font-family:-apple-system,&quot;SF Pro Display&quot;,&quot;SF Pro Text&quot;,Helvetica,sans-serif;text-anchor:middle;" transform="matrix(1 0 0 1 1746.56 322)">Medium</text>
  <text style="stroke:none;fill:black;font-family:-apple-system,&quot;SF Pro Display&quot;,&quot;SF Pro Text&quot;,Helvetica,sans-serif;text-anchor:middle;" transform="matrix(1 0 0 1 2043.27 322)">Semibold</text>
  <text style="stroke:none;fill:black;font-family:-apple-system,&quot;SF Pro Display&quot;,&quot;SF Pro Text&quot;,Helvetica,sans-serif;text-anchor:middle;" transform="matrix(1 0 0 1 2339.98 322)">Bold</text>
  <text style="stroke:none;fill:black;font-family:-apple-system,&quot;SF Pro Display&quot;,&quot;SF Pro Text&quot;,Helvetica,sans-serif;text-anchor:middle;" transform="matrix(1 0 0 1 2636.69 322)">Heavy</text>
  <text style="stroke:none;fill:black;font-family:-apple-system,&quot;SF Pro Display&quot;,&quot;SF Pro Text&quot;,Helvetica,sans-serif;text-anchor:middle;" transform="matrix(1 0 0 1 2933.4 322)">Black</text>
  <line id="" style="fill:none;stroke:black;opacity:1;stroke-width:0.5;" x1="263" x2="3036" y1="1903" y2="1903"/>
  <g id="" transform="matrix(1 0 0 1 263 1933)">
   <path d="M 9.24805 0.830078 C 13.5547 0.830078 17.1387 -2.74414 17.1387 -7.05078 C 17.1387 -11.3574 13.5449 -14.9316 9.23828 -14.9316 C 4.94141 -14.9316 1.36719 -11.3574 1.36719 -7.05078 C 1.36719 -2.74414 4.95117 0.830078 9.24805 0.830078 Z M 9.24805 -0.654297 C 5.70312 -0.654297 2.87109 -3.49609 2.87109 -7.05078 C 2.87109 -10.6055 5.69336 -13.4473 9.23828 -13.4473 C 12.793 -13.4473 15.6348 -10.6055 15.6445 -7.05078 C 15.6543 -3.49609 12.8027 -0.654297 9.24805 -0.654297 Z M 9.22852 -3.62305 C 9.69727 -3.62305 9.9707 -3.93555 9.9707 -4.45312 L 9.9707 -6.31836 L 12.002 -6.31836 C 12.5 -6.31836 12.832 -6.57227 12.832 -7.04102 C 12.832 -7.51953 12.5195 -7.7832 12.002 -7.7832 L 9.9707 -7.7832 L 9.9707 -9.81445 C 9.9707 -10.332 9.69727 -10.6543 9.22852 -10.6543 C 8.75977 -10.6543 8.50586 -10.3125 8.50586 -9.81445 L 8.50586 -7.7832 L 6.49414 -7.7832 C 5.97656 -7.7832 5.64453 -7.51953 5.64453 -7.04102 C 5.64453 -6.57227 5.99609 -6.31836 6.49414 -6.31836 L 8.50586 -6.31836 L 8.50586 -4.45312 C 8.50586 -3.95508 8.75977 -3.62305 9.22852 -3.62305 Z"/>
  </g>
  <g id="" transform="matrix(1 0 0 1 281.506 1933)">
   <path d="M 11.709 2.91016 C 17.1582 2.91016 21.6699 -1.61133 21.6699 -7.05078 C 21.6699 -12.5 17.1484 -17.0117 11.6992 -17.0117 C 6.25977 -17.0117 1.74805 -12.5 1.74805 -7.05078 C 1.74805 -1.61133 6.26953 2.91016 11.709 2.91016 Z M 11.709 1.25 C 7.09961 1.25 3.41797 -2.44141 3.41797 -7.05078 C 3.41797 -11.6602 7.08984 -15.3516 11.6992 -15.3516 C 16.3086 -15.3516 20 -11.6602 20.0098 -7.05078 C 20.0195 -2.44141 16.3184 1.25 11.709 1.25 Z M 11.6797 -2.66602 C 12.207 -2.66602 12.5098 -3.01758 12.5098 -3.59375 L 12.5098 -6.23047 L 15.3223 -6.23047 C 15.8691 -6.23047 16.25 -6.51367 16.25 -7.03125 C 16.25 -7.55859 15.8887 -7.86133 15.3223 -7.86133 L 12.5098 -7.86133 L 12.5098 -10.6836 C 12.5098 -11.25 12.207 -11.6113 11.6797 -11.6113 C 11.1621 -11.6113 10.8789 -11.2305 10.8789 -10.6836 L 10.8789 -7.86133 L 8.07617 -7.86133 C 7.50977 -7.86133 7.13867 -7.55859 7.13867 -7.03125 C 7.13867 -6.51367 7.5293 -6.23047 8.07617 -6.23047 L 10.8789 -6.23047 L 10.8789 -3.59375 C 10.8789 -3.03711 11.1621 -2.66602 11.6797 -2.66602 Z"/>
  </g>
  <g id="" transform="matrix(1 0 0 1 304.924 1933)">
   <path d="M 14.9707 5.66406 C 21.9336 5.66406 27.6953 -0.0976562 27.6953 -7.05078 C 27.6953 -14.0137 21.9238 -19.7754 14.9609 -19.7754 C 8.00781 -19.7754 2.25586 -14.0137 2.25586 -7.05078 C 2.25586 -0.0976562 8.01758 5.66406 14.9707 5.66406 Z M 14.9707 3.84766 C 8.93555 3.84766 4.08203 -1.01562 4.08203 -7.05078 C 4.08203 -13.0957 8.92578 -17.9492 14.9609 -17.9492 C 21.0059 -17.9492 25.8594 -13.0957 25.8691 -7.05078 C 25.8789 -1.01562 21.0156 3.84766 14.9707 3.84766 Z M 14.9414 -1.38672 C 15.5176 -1.38672 15.8594 -1.77734 15.8594 -2.38281 L 15.8594 -6.13281 L 19.7754 -6.13281 C 20.3711 -6.13281 20.7812 -6.46484 20.7812 -7.02148 C 20.7812 -7.59766 20.3906 -7.93945 19.7754 -7.93945 L 15.8594 -7.93945 L 15.8594 -11.8652 C 15.8594 -12.4805 15.5176 -12.8711 14.9414 -12.8711 C 14.375 -12.8711 14.0527 -12.4609 14.0527 -11.8652 L 14.0527 -7.93945 L 10.1465 -7.93945 C 9.53125 -7.93945 9.13086 -7.59766 9.13086 -7.02148 C 9.13086 -6.46484 9.55078 -6.13281 10.1465 -6.13281 L 14.0527 -6.13281 L 14.0527 -2.38281 C 14.0527 -1.79688 14.375 -1.38672 14.9414 -1.38672 Z"/>
  </g>
  <text style="stroke:none;fill:black;font-family:-apple-system,&quot;SF Pro Display&quot;,&quot;SF Pro Text&quot;,Helvetica,sans-serif;font-weight:bold;" transform="matrix(1 0 0 1 263 1953)">Design Variations</text>
  <text style="stroke:none;fill:black;font-family:-apple-system,&quot;SF Pro Display&quot;,&quot;SF Pro Text&quot;,Helvetica,sans-serif;" transform="matrix(1 0 0 1 263 1971)">Symbols are supported in up to nine weights and three scales.</text>
  <text style="stroke:none;fill:black;font-family:-apple-system,&quot;SF Pro Display&quot;,&quot;SF Pro Text&quot;,Helvetica,sans-serif;" transform="matrix(1 0 0 1 263 1989)">For optimal layout with text and other symbols, vertically align</text>
  <text style="stroke:none;fill:black;font-family:-apple-system,&quot;SF Pro Display&quot;,&quot;SF Pro Text&quot;,Helvetica,sans-serif;" transform="matrix(1 0 0 1 263 2007)">symbols with the adjacent text.</text>
  <line id="" style="fill:none;stroke:#00AEEF;stroke-width:0.5;opacity:1.0;" x1="776" x2="776" y1="1919" y2="1933"/>
  <g id="" transform="matrix(1 0 0 1 776 1933)">
   <path d="M 3.31055 0.126953 C 3.82812 0.126953 4.08203 -0.0683594 4.26758 -0.605469 L 5.52734 -4.0625 L 11.2891 -4.0625 L 12.5488 -0.605469 C 12.7344 -0.0683594 12.9883 0.126953 13.4961 0.126953 C 14.0137 0.126953 14.3457 -0.185547 14.3457 -0.673828 C 14.3457 -0.839844 14.3164 -0.986328 14.2383 -1.20117 L 9.6582 -13.3887 C 9.43359 -13.9941 9.0332 -14.2871 8.4082 -14.2871 C 7.80273 -14.2871 7.39258 -13.9941 7.17773 -13.3984 L 2.59766 -1.19141 C 2.51953 -0.976562 2.49023 -0.830078 2.49023 -0.664062 C 2.49023 -0.175781 2.80273 0.126953 3.31055 0.126953 Z M 6.00586 -5.53711 L 8.37891 -12.1094 L 8.42773 -12.1094 L 10.8008 -5.53711 Z"/>
  </g>
  <line id="" style="fill:none;stroke:#00AEEF;stroke-width:0.5;opacity:1.0;" x1="792.836" x2="792.836" y1="1919" y2="1933"/>
  <text style="stroke:none;fill:black;font-family:-apple-system,&quot;SF Pro Display&quot;,&quot;SF Pro Text&quot;,Helvetica,sans-serif;font-weight:bold;" transform="matrix(1 0 0 1 776 1953)">Margins</text>
  <text style="stroke:none;fill:black;font-family:-apple-system,&quot;SF Pro Display&quot;,&quot;SF Pro Text&quot;,Helvetica,sans-serif;" transform="matrix(1 0 0 1 776 1971)">Leading and trailing margins on the left and right side of each symbol</text>
  <text style="stroke:none;fill:black;font-family:-apple-system,&quot;SF Pro Display&quot;,&quot;SF Pro Text&quot;,Helvetica,sans-serif;" transform="matrix(1 0 0 1 776 1989)">can be adjusted by modifying the x-location of the margin guidelines.</text>
  <text style="stroke:none;fill:black;font-family:-apple-system,&quot;SF Pro Display&quot;,&quot;SF Pro Text&quot;,Helvetica,sans-serif;" transform="matrix(1 0 0 1 776 2007)">Modifications are automatically applied proportionally to all</text>
  <text style="stroke:none;fill:black;font-family:-apple-system,&quot;SF Pro Display&quot;,&quot;SF Pro Text&quot;,Helvetica,sans-serif;" transform="matrix(1 0 0 1 776 2025)">scales and weights.</text>
  <g id="" transform="matrix(1 0 0 1 1289 1933)">
   <path d="M 2.8418 1.86523 L 4.54102 3.57422 C 5.40039 4.44336 6.38672 4.38477 7.31445 3.35938 L 17.4902 -7.85156 C 17.7539 -7.76367 18.0273 -7.7832 18.3398 -7.8418 L 19.4043 -8.03711 L 20.0684 -7.36328 L 20.0293 -6.80664 C 19.9902 -6.30859 20.1172 -5.92773 20.6055 -5.44922 L 21.3672 -4.70703 C 21.8457 -4.22852 22.4609 -4.19922 22.9297 -4.66797 L 25.8398 -7.58789 C 26.3086 -8.05664 26.2891 -8.65234 25.8105 -9.13086 L 25.0391 -9.89258 C 24.5605 -10.3711 24.1895 -10.5273 23.7109 -10.4883 L 23.1348 -10.4395 L 22.4902 -11.0742 L 22.7344 -12.1973 C 22.8613 -12.7637 22.7051 -13.2031 22.1191 -13.7891 L 19.9219 -15.9766 C 16.582 -19.2969 12.1484 -19.2188 9.25781 -16.3281 C 8.83789 -15.918 8.80859 -15.3418 9.04297 -14.9512 C 9.27734 -14.5898 9.73633 -14.3555 10.3809 -14.5215 C 11.8457 -14.8633 13.3691 -14.9219 14.7949 -13.9844 L 14.209 -12.5293 C 14.0137 -12.0508 13.9844 -11.6504 14.1113 -11.2891 L 3.04688 -0.898438 C 2.06055 0.0195312 1.98242 0.996094 2.8418 1.86523 Z M 10.752 -15.957 C 13.1836 -17.7344 16.4746 -17.4316 18.7012 -15.2051 L 21.1328 -12.793 C 21.3672 -12.5586 21.4062 -12.373 21.3379 -12.0312 L 21.0156 -10.5469 L 22.5195 -9.0625 L 23.5059 -9.12109 C 23.7598 -9.13086 23.8379 -9.11133 24.0332 -8.91602 L 24.6094 -8.33984 L 22.168 -5.89844 L 21.5918 -6.47461 C 21.3965 -6.66992 21.3672 -6.74805 21.377 -7.01172 L 21.4453 -7.98828 L 19.9512 -9.47266 L 18.4277 -9.21875 C 18.1055 -9.15039 17.959 -9.17969 17.7148 -9.41406 L 15.7129 -11.416 C 15.459 -11.6504 15.4297 -11.8164 15.5859 -12.1875 L 16.4648 -14.2773 C 14.9023 -15.7324 12.8711 -16.3574 10.8398 -15.7617 C 10.6836 -15.7227 10.625 -15.8496 10.752 -15.957 Z M 5.27344 2.30469 L 4.10156 1.14258 C 3.63281 0.683594 3.74023 0.341797 4.14062 -0.0195312 L 14.9512 -10.1953 L 16.416 -8.71094 L 6.42578 2.27539 C 6.07422 2.67578 5.74219 2.77344 5.27344 2.30469 Z"/>
  </g>
  <text style="stroke:none;fill:black;font-family:-apple-system,&quot;SF Pro Display&quot;,&quot;SF Pro Text&quot;,Helvetica,sans-serif;font-weight:bold;" transform="matrix(1 0 0 1 1289 1953)">Exporting</text>
  <text style="stroke:none;fill:black;font-family:-apple-system,&quot;SF Pro Display&quot;,&quot;SF Pro Text&quot;,Helvetica,sans-serif;" transform="matrix(1 0 0 1 1289 1971)">Symbols should be outlined when exporting to ensure the</text>
  <text style="stroke:none;fill:black;font-family:-apple-system,&quot;SF Pro Display&quot;,&quot;SF Pro Text&quot;,Helvetica,sans-serif;" transform="matrix(1 0 0 1 1289 1989)">design is preserved when submitting to Xcode.</text>
  <text id="template-version" style="stroke:none;fill:black;font-family:-apple-system,&quot;SF Pro Display&quot;,&quot;SF Pro Text&quot;,Helvetica,sans-serif;text-anchor:end;" transform="matrix(1 0 0 1 3036 1933)">Template v.2.0</text>
  <text style="stroke:none;fill:black;font-family:-apple-system,&quot;SF Pro Display&quot;,&quot;SF Pro Text&quot;,Helvetica,sans-serif;text-anchor:end;" transform="matrix(1 0 0 1 3036 1951)">Requires Xcode 12 or greater</text>
  <text style="stroke:none;fill:black;font-family:-apple-system,&quot;SF Pro Display&quot;,&quot;SF Pro Text&quot;,Helvetica,sans-serif;text-anchor:end;" transform="matrix(1 0 0 1 3036 1969)">Generated from tray.circle</text>
  <text style="stroke:none;fill:black;font-family:-apple-system,&quot;SF Pro Display&quot;,&quot;SF Pro Text&quot;,Helvetica,sans-serif;text-anchor:end;" transform="matrix(1 0 0 1 3036 1987)">Typeset at 100 points</text>
  <text style="stroke:none;fill:black;font-family:-apple-system,&quot;SF Pro Display&quot;,&quot;SF Pro Text&quot;,Helvetica,sans-serif;" transform="matrix(1 0 0 1 263 726)">Small</text>
  <text style="stroke:none;fill:black;font-family:-apple-system,&quot;SF Pro Display&quot;,&quot;SF Pro Text&quot;,Helvetica,sans-serif;" transform="matrix(1 0 0 1 263 1156)">Medium</text>
  <text style="stroke:none;fill:black;font-family:-apple-system,&quot;SF Pro Display&quot;,&quot;SF Pro Text&quot;,Helvetica,sans-serif;" transform="matrix(1 0 0 1 263 1586)">Large</text>
 </g>
 <g id="Guides">
  <g id="H-reference" style="fill:#27AAE1;stroke:none;" transform="matrix(1 0 0 1 339 696)">
   <path d="M 0.976562 0 L 3.66211 0 L 12.9883 -24.4629 L 45.7031 -24.4629 L 55.0781 0 L 57.7148 0 L 30.6152 -70.459 L 28.125 -70.459 Z M 29.2969 -67.1387 L 29.3945 -67.1387 L 44.873 -26.709 L 13.8672 -26.709 Z"/>
  </g>
  <line id="Baseline-S" style="fill:none;stroke:#27AAE1;opacity:1;stroke-width:0.5;" x1="263" x2="3036" y1="696" y2="696"/>
  <line id="Capline-S" style="fill:none;stroke:#27AAE1;opacity:1;stroke-width:0.5;" x1="263" x2="3036" y1="625.541" y2="625.541"/>
  <g id="H-reference" style="fill:#27AAE1;stroke:none;" transform="matrix(1 0 0 1 339 1126)">
   <path d="M 0.976562 0 L 3.66211 0 L 12.9883 -24.4629 L 45.7031 -24.4629 L 55.0781 0 L 57.7148 0 L 30.6152 -70.459 L 28.125 -70.459 Z M 29.2969 -67.1387 L 29.3945 -67.1387 L 44.873 -26.709 L 13.8672 -26.709 Z"/>
  </g>
  <line id="Baseline-M" style="fill:none;stroke:#27AAE1;opacity:1;stroke-width:0.5;" x1="263" x2="3036" y1="1126" y2="1126"/>
  <line id="Capline-M" style="fill:none;stroke:#27AAE1;opacity:1;stroke-width:0.5;" x1="263" x2="3036" y1="1055.54" y2="1055.54"/>
  <g id="H-reference" style="fill:#27AAE1;stroke:none;" transform="matrix(1 0 0 1 339 1556)">
   <path d="M 0.976562 0 L 3.66211 0 L 12.9883 -24.4629 L 45.7031 -24.4629 L 55.0781 0 L 57.7148 0 L 30.6152 -70.459 L 28.125 -70.459 Z M 29.2969 -67.1387 L 29.3945 -67.1387 L 44.873 -26.709 L 13.8672 -26.709 Z"/>
  </g>
  <line id="Baseline-L" style="fill:none;stroke:#27AAE1;opacity:1;stroke-width:0.5;" x1="263" x2="3036" y1="1556" y2="1556"/>
  <line id="Capline-L" style="fill:none;stroke:#27AAE1;opacity:1;stroke-width:0.5;" x1="263" x2="3036" y1="1485.54" y2="1485.54"/>
  <line id="left-margin" style="fill:none;stroke:#00AEEF;stroke-width:0.5;opacity:1.0;" x1="1391.3" x2="1391.3" y1="1030.79" y2="1150.12"/>
  <line id="right-margin" style="fill:none;stroke:#00AEEF;stroke-width:0.5;opacity:1.0;" x1="1508.39" x2="1508.39" y1="1030.79" y2="1150.12"/>
 </g>
 <g id="Symbols">
  <g id="Black-L" transform="matrix(1 0 0 1 2854.05 1556)">
   <path d="M 79.3457 32.8613 C 116.748 32.8613 147.412 2.19727 147.412 -35.2051 C 147.412 -72.6074 116.748 -103.271 79.2969 -103.271 C 41.8945 -103.271 11.2793 -72.6074 11.2793 -35.2051 C 11.2793 2.19727 41.9434 32.8613 79.3457 32.8613 Z M 79.3457 12.4023 C 52.9785 12.4023 31.7383 -8.83789 31.7383 -35.2051 C 31.7383 -61.5723 52.9297 -82.8125 79.2969 -82.8125 C 105.664 -82.8125 126.953 -61.5723 126.953 -35.2051 C 127.002 -8.83789 105.713 12.4023 79.3457 12.4023 Z M 55.5176 -10.4004 L 103.125 -10.4004 C 110.059 -10.4004 113.965 -14.3066 113.965 -21.2402 L 113.965 -38.0371 C 113.965 -43.0176 113.477 -45.166 111.084 -47.9004 L 102.637 -57.8613 C 98.2422 -62.8418 96.5332 -64.6484 90.8691 -64.6484 L 67.7734 -64.6484 C 62.1582 -64.6484 60.4004 -62.8418 56.0547 -57.8613 L 47.5586 -47.9004 C 45.166 -45.166 44.6777 -43.0176 44.6777 -38.0371 L 44.6777 -21.2402 C 44.6777 -14.3066 48.6328 -10.4004 55.5176 -10.4004 Z M 55.957 -41.1133 C 54.5898 -41.1133 54.4434 -42.2852 55.0781 -43.1641 L 65.332 -55.3223 C 66.1621 -56.3965 67.1387 -56.9336 68.5547 -56.9336 L 90.1367 -56.9336 C 91.5527 -56.9336 92.5293 -56.3965 93.3594 -55.3223 L 103.564 -43.1641 C 104.248 -42.334 104.053 -41.1133 102.686 -41.1133 L 88.9648 -41.1133 C 87.1582 -41.1133 86.3281 -39.6973 86.3281 -38.3301 L 86.3281 -37.5488 C 86.3281 -33.6426 83.6914 -31.3477 79.3457 -31.3477 C 74.9512 -31.3477 72.3145 -33.6426 72.3145 -37.5488 L 72.3145 -38.3301 C 72.3145 -39.6973 71.4844 -41.1133 69.6777 -41.1133 Z"/>
  </g>
  <g id="Heavy-L" transform="matrix(1 0 0 1 2558.39 1556)">
   <path d="M 78.2715 31.7871 C 115.088 31.7871 145.312 1.5625 145.312 -35.2051 C 145.312 -72.0215 115.039 -102.246 78.2715 -102.246 C 41.4551 -102.246 11.2793 -72.0215 11.2793 -35.2051 C 11.2793 1.5625 41.5039 31.7871 78.2715 31.7871 Z M 78.2715 14.0137 C 51.0254 14.0137 29.0527 -7.95898 29.0527 -35.2051 C 29.0527 -62.5 50.9766 -84.4727 78.2715 -84.4727 C 105.518 -84.4727 127.49 -62.5 127.539 -35.2051 C 127.539 -7.95898 105.566 14.0137 78.2715 14.0137 Z M 53.6133 -10.3027 L 102.979 -10.3027 C 109.766 -10.3027 113.477 -14.0625 113.477 -20.8008 L 113.477 -37.7441 C 113.477 -42.1387 112.988 -44.043 110.889 -46.5332 L 101.66 -57.8125 C 97.5098 -62.6953 95.7031 -64.3555 90.1855 -64.3555 L 66.3574 -64.3555 C 60.8398 -64.3555 59.0332 -62.6953 54.8828 -57.8125 L 45.6543 -46.5332 C 43.5547 -44.043 43.0664 -42.1387 43.0664 -37.7441 L 43.0664 -20.8008 C 43.0664 -14.0137 46.8262 -10.3027 53.6133 -10.3027 Z M 53.5645 -40.5273 C 52.2949 -40.5273 52.0996 -41.6016 52.7344 -42.3828 L 63.2324 -55.3223 C 64.209 -56.5918 65.2344 -57.1777 66.8945 -57.1777 L 89.6973 -57.1777 C 91.3574 -57.1777 92.3828 -56.543 93.3105 -55.3223 L 103.857 -42.3828 C 104.443 -41.6504 104.248 -40.5273 103.027 -40.5273 L 88.0371 -40.5273 C 86.2793 -40.5273 85.498 -39.209 85.498 -37.8418 L 85.498 -37.1094 C 85.498 -33.0566 82.7148 -30.5664 78.2715 -30.5664 C 73.8281 -30.5664 71.0938 -33.0566 71.0938 -37.1094 L 71.0938 -37.8418 C 71.0938 -39.209 70.2637 -40.5273 68.5547 -40.5273 Z"/>
  </g>
  <g id="Bold-L" transform="matrix(1 0 0 1 2262.88 1556)">
   <path d="M 77.0996 30.5664 C 113.232 30.5664 142.92 0.878906 142.92 -35.2539 C 142.92 -71.3379 113.184 -101.074 77.0508 -101.074 C 40.9668 -101.074 11.2793 -71.3379 11.2793 -35.2539 C 11.2793 0.878906 41.0156 30.5664 77.0996 30.5664 Z M 77.0996 15.8203 C 48.8281 15.8203 26.0742 -6.98242 26.0742 -35.2539 C 26.0742 -63.5254 48.7793 -86.2793 77.0508 -86.2793 C 105.371 -86.2793 128.125 -63.5254 128.174 -35.2539 C 128.174 -6.98242 105.371 15.8203 77.0996 15.8203 Z M 51.416 -10.2051 L 102.783 -10.2051 C 109.375 -10.2051 112.939 -13.7695 112.939 -20.3613 L 112.939 -37.3535 C 112.939 -41.1621 112.451 -42.8223 110.693 -44.9707 L 100.586 -57.8125 C 96.6797 -62.5977 94.8242 -64.0625 89.4043 -64.0625 L 64.7949 -64.0625 C 59.375 -64.0625 57.4707 -62.5977 53.6133 -57.8125 L 43.5059 -44.9707 C 41.748 -42.8223 41.2598 -41.1621 41.2598 -37.3535 L 41.2598 -20.3613 C 41.2598 -13.7695 44.8242 -10.2051 51.416 -10.2051 Z M 50.8301 -39.8926 C 49.707 -39.8926 49.5605 -40.8203 50.0977 -41.5527 L 60.8887 -55.3711 C 61.9629 -56.7871 63.0859 -57.4219 64.9902 -57.4219 L 89.2578 -57.4219 C 91.1133 -57.4219 92.2363 -56.7383 93.3105 -55.3711 L 104.15 -41.5527 C 104.688 -40.8691 104.492 -39.8926 103.369 -39.8926 L 86.9629 -39.8926 C 85.3027 -39.8926 84.5703 -38.623 84.5703 -37.3535 L 84.5703 -36.6211 C 84.5703 -32.373 81.6406 -29.7363 77.0996 -29.7363 C 72.5586 -29.7363 69.6777 -32.373 69.6777 -36.6211 L 69.6777 -37.3535 C 69.6777 -38.623 68.8965 -39.8926 67.2363 -39.8926 Z"/>
  </g>
  <g id="Semibold-L" transform="matrix(1 0 0 1 1966.97 1556)">
   <path d="M 76.2695 29.7363 C 111.914 29.7363 141.309 0.390625 141.309 -35.2539 C 141.309 -70.8984 111.865 -100.244 76.2695 -100.244 C 40.625 -100.244 11.2793 -70.8984 11.2793 -35.2539 C 11.2793 0.390625 40.6738 29.7363 76.2695 29.7363 Z M 76.2695 17.041 C 47.3145 17.041 24.0234 -6.25 24.0234 -35.2539 C 24.0234 -64.209 47.2656 -87.5488 76.2695 -87.5488 C 105.225 -87.5488 128.564 -64.209 128.613 -35.2539 C 128.662 -6.25 105.273 17.041 76.2695 17.041 Z M 49.9512 -10.1562 L 102.637 -10.1562 C 109.131 -10.1562 112.549 -13.5742 112.549 -20.0195 L 112.549 -37.1094 C 112.549 -40.4785 112.109 -41.9434 110.547 -43.9453 L 99.8535 -57.8125 C 96.1426 -62.5 94.1895 -63.8184 88.8672 -63.8184 L 63.6719 -63.8184 C 58.3496 -63.8184 56.3965 -62.5 52.7344 -57.8125 L 42.041 -43.9453 C 40.4785 -41.9434 39.9902 -40.4785 39.9902 -37.1094 L 39.9902 -20.0195 C 39.9902 -13.5742 43.457 -10.1562 49.9512 -10.1562 Z M 48.9746 -39.4043 C 47.9492 -39.4043 47.7539 -40.2832 48.291 -40.9668 L 59.2773 -55.3711 C 60.4492 -56.9336 61.6211 -57.6172 63.6719 -57.6172 L 88.9648 -57.6172 C 90.9668 -57.6172 92.1387 -56.8848 93.2617 -55.3711 L 104.346 -40.9668 C 104.834 -40.332 104.639 -39.4043 103.613 -39.4043 L 86.2305 -39.4043 C 84.6191 -39.4043 83.8867 -38.2324 83.8867 -36.9629 L 83.8867 -36.2793 C 83.8867 -31.8848 80.8594 -29.1504 76.2695 -29.1504 C 71.6797 -29.1504 68.7012 -31.8848 68.7012 -36.2793 L 68.7012 -36.9629 C 68.7012 -38.2324 67.9199 -39.4043 66.3574 -39.4043 Z"/>
  </g>
  <g id="Medium-L" transform="matrix(1 0 0 1 1670.87 1556)">
   <path d="M 75.6836 29.1504 C 110.938 29.1504 140.088 0 140.088 -35.2539 C 140.088 -70.5078 110.889 -99.6582 75.6348 -99.6582 C 40.3809 -99.6582 11.2793 -70.5078 11.2793 -35.2539 C 11.2793 0 40.3809 29.1504 75.6836 29.1504 Z M 75.6836 18.0176 C 46.1426 18.0176 22.4609 -5.76172 22.4609 -35.2539 C 22.4609 -64.7461 46.1426 -88.5254 75.6348 -88.5254 C 105.127 -88.5254 128.906 -64.7461 128.906 -35.2539 C 128.955 -5.76172 105.176 18.0176 75.6836 18.0176 Z M 48.8281 -10.0586 L 102.539 -10.0586 C 108.936 -10.0586 112.256 -13.4277 112.256 -19.7266 L 112.256 -36.9141 C 112.256 -39.9414 111.816 -41.3086 110.4 -43.1152 L 99.2676 -57.8125 C 95.7031 -62.4023 93.75 -63.6719 88.4766 -63.6719 L 62.8418 -63.6719 C 57.6172 -63.6719 55.6152 -62.4023 52.0508 -57.8125 L 40.918 -43.1152 C 39.502 -41.3086 39.0625 -39.9414 39.0625 -36.9141 L 39.0625 -19.7266 C 39.0625 -13.3789 42.4316 -10.0586 48.8281 -10.0586 Z M 47.5586 -39.0625 C 46.582 -39.0625 46.4355 -39.8926 46.875 -40.5273 L 58.0566 -55.3711 C 59.2773 -57.0312 60.498 -57.7148 62.6465 -57.7148 L 88.7207 -57.7148 C 90.8691 -57.7148 92.0898 -56.9824 93.2617 -55.3711 L 104.492 -40.5273 C 104.932 -39.9414 104.736 -39.0625 103.809 -39.0625 L 85.6445 -39.0625 C 84.1309 -39.0625 83.3984 -37.9395 83.3984 -36.6699 L 83.3984 -36.0352 C 83.3984 -31.543 80.3223 -28.6621 75.6836 -28.6621 C 71.0449 -28.6621 67.9688 -31.543 67.9688 -36.0352 L 67.9688 -36.6699 C 67.9688 -37.9395 67.2363 -39.0625 65.6738 -39.0625 Z"/>
  </g>
  <g id="Regular-L" transform="matrix(1 0 0 1 1374.97 1556)">
   <path d="M 74.8535 28.3203 C 109.668 28.3203 138.477 -0.488281 138.477 -35.2539 C 138.477 -70.0684 109.619 -98.877 74.8047 -98.877 C 40.0391 -98.877 11.2793 -70.0684 11.2793 -35.2539 C 11.2793 -0.488281 40.0879 28.3203 74.8535 28.3203 Z M 74.8535 19.2383 C 44.6777 19.2383 20.4102 -5.07812 20.4102 -35.2539 C 20.4102 -65.4785 44.6289 -89.7461 74.8047 -89.7461 C 105.029 -89.7461 129.297 -65.4785 129.346 -35.2539 C 129.395 -5.07812 105.078 19.2383 74.8535 19.2383 Z M 47.3145 -10.0098 L 102.393 -10.0098 C 108.691 -10.0098 111.914 -13.2324 111.914 -19.4336 L 111.914 -36.6699 C 111.914 -39.3066 111.475 -40.4297 110.254 -42.0898 L 98.5352 -57.8125 C 95.1172 -62.3535 93.1152 -63.4277 87.9395 -63.4277 L 61.7676 -63.4277 C 56.5918 -63.4277 54.541 -62.3535 51.1719 -57.8125 L 39.4531 -42.0898 C 38.2812 -40.4297 37.8418 -39.3066 37.8418 -36.6699 L 37.8418 -19.4336 C 37.8418 -13.1836 41.0645 -10.0098 47.3145 -10.0098 Z M 45.7031 -38.623 C 44.8242 -38.623 44.6777 -39.3555 45.1172 -39.9414 L 56.4941 -55.3711 C 57.7637 -57.1777 59.0332 -57.9102 61.377 -57.9102 L 88.4277 -57.9102 C 90.7227 -57.9102 91.9922 -57.1289 93.2617 -55.3711 L 104.688 -39.9414 C 105.078 -39.4043 104.883 -38.623 104.053 -38.623 L 84.9121 -38.623 C 83.4473 -38.623 82.7637 -37.5488 82.7637 -36.3281 L 82.7637 -35.6934 C 82.7637 -31.1035 79.541 -28.0762 74.8535 -28.0762 C 70.166 -28.0762 67.041 -31.1035 67.041 -35.6934 L 67.041 -36.3281 C 67.041 -37.5488 66.2598 -38.623 64.7949 -38.623 Z"/>
  </g>
  <g id="Light-L" transform="matrix(1 0 0 1 1079.18 1556)">
   <path d="M 73.9258 27.3926 C 108.301 27.3926 136.621 -0.927734 136.621 -35.2539 C 136.621 -69.6289 108.252 -97.9492 73.9258 -97.9492 C 39.5508 -97.9492 11.2793 -69.6289 11.2793 -35.2539 C 11.2793 -0.927734 39.5996 27.3926 73.9258 27.3926 Z M 73.9258 20.5078 C 43.1152 20.5078 18.2129 -4.44336 18.2129 -35.2539 C 18.2129 -66.1133 43.0664 -91.0156 73.9258 -91.0156 C 104.736 -91.0156 129.688 -66.1133 129.736 -35.2539 C 129.736 -4.44336 104.785 20.5078 73.9258 20.5078 Z M 45.8008 -10.3516 L 102.051 -10.3516 C 108.057 -10.3516 111.133 -13.4766 111.133 -19.3359 L 111.133 -36.6699 C 111.133 -38.916 110.791 -39.8926 109.717 -41.3086 L 97.168 -57.959 C 94.1406 -61.9141 92.2852 -62.9395 87.5 -62.9395 L 60.4004 -62.9395 C 55.6152 -62.9395 53.7109 -61.9141 50.7324 -57.959 L 38.1348 -41.3086 C 37.1094 -39.8926 36.7188 -38.916 36.7188 -36.6699 L 36.7188 -19.3359 C 36.7188 -13.4277 39.8438 -10.3516 45.8008 -10.3516 Z M 43.3105 -38.4766 C 42.5781 -38.4766 42.4805 -39.0625 42.8223 -39.5508 L 54.9316 -55.7617 C 56.25 -57.6172 57.4219 -58.3984 59.9121 -58.3984 L 87.9883 -58.3984 C 90.4785 -58.3984 91.6504 -57.5684 92.9688 -55.7617 L 105.127 -39.5508 C 105.469 -39.1113 105.273 -38.4766 104.59 -38.4766 L 84.1309 -38.4766 C 82.9102 -38.4766 82.3242 -37.5977 82.3242 -36.5234 L 82.3242 -36.0352 C 82.3242 -31.1523 78.8086 -27.7832 73.9258 -27.7832 C 69.0918 -27.7832 65.625 -31.1523 65.625 -36.0352 L 65.625 -36.5234 C 65.625 -37.5977 64.9902 -38.4766 63.7207 -38.4766 Z"/>
  </g>
  <g id="Thin-L" transform="matrix(1 0 0 1 783.693 1556)">
   <path d="M 72.7051 26.1719 C 106.494 26.1719 134.18 -1.51367 134.18 -35.2539 C 134.18 -69.043 106.494 -96.7285 72.7051 -96.7285 C 38.9648 -96.7285 11.2793 -69.043 11.2793 -35.2539 C 11.2793 -1.51367 38.9648 26.1719 72.7051 26.1719 Z M 72.7051 22.168 C 41.0156 22.168 15.2832 -3.56445 15.2832 -35.2539 C 15.2832 -66.9922 41.0156 -92.7246 72.7051 -92.7246 C 104.395 -92.7246 130.176 -66.9922 130.176 -35.2539 C 130.176 -3.56445 104.443 22.168 72.7051 22.168 Z M 43.7988 -10.791 L 101.611 -10.791 C 107.178 -10.791 110.156 -13.7695 110.156 -19.2871 L 110.156 -36.6211 C 110.156 -38.3789 109.863 -39.1602 109.033 -40.2832 L 95.3125 -58.1543 C 92.7734 -61.377 91.1133 -62.207 86.8652 -62.207 L 58.5449 -62.207 C 54.2969 -62.207 52.6367 -61.377 50.0977 -58.1543 L 36.4258 -40.2832 C 35.5469 -39.1602 35.3027 -38.3789 35.3027 -36.6211 L 35.3027 -19.2871 C 35.3027 -13.7207 38.2324 -10.791 43.7988 -10.791 Z M 40.1855 -38.2812 C 39.6484 -38.2812 39.5508 -38.6719 39.7949 -39.0137 L 52.832 -56.2988 C 54.248 -58.2031 55.2734 -59.082 58.0078 -59.082 L 87.4023 -59.082 C 90.1855 -59.082 91.1621 -58.2031 92.5781 -56.2988 L 105.713 -39.0137 C 105.957 -38.6719 105.811 -38.2812 105.322 -38.2812 L 83.1055 -38.2812 C 82.1777 -38.2812 81.7383 -37.6465 81.7383 -36.8164 L 81.7383 -36.5234 C 81.7383 -31.25 77.7832 -27.3926 72.7051 -27.3926 C 67.627 -27.3926 63.7207 -31.25 63.7207 -36.5234 L 63.7207 -36.8164 C 63.7207 -37.6465 63.2812 -38.2812 62.3047 -38.2812 Z"/>
  </g>
  <g id="Ultralight-L" transform="matrix(1 0 0 1 487.616 1556)">
   <path d="M 72.1191 25.5371 C 105.566 25.5371 132.91 -1.80664 132.91 -35.2539 C 132.91 -68.75 105.566 -96.0938 72.1191 -96.0938 C 38.623 -96.0938 11.2793 -68.75 11.2793 -35.2539 C 11.2793 -1.80664 38.623 25.5371 72.1191 25.5371 Z M 72.1191 23.0469 C 39.9414 23.0469 13.7695 -3.125 13.7695 -35.2539 C 13.7695 -67.4316 39.9414 -93.6035 72.1191 -93.6035 C 104.248 -93.6035 130.42 -67.4316 130.42 -35.2539 C 130.42 -3.125 104.248 23.0469 72.1191 23.0469 Z M 42.7734 -11.0352 L 101.416 -11.0352 C 106.738 -11.0352 109.619 -13.9648 109.619 -19.2383 L 109.619 -36.6211 C 109.619 -38.1348 109.424 -38.7695 108.643 -39.7461 L 94.3848 -58.252 C 92.0898 -61.1328 90.5273 -61.8652 86.5723 -61.8652 L 57.6172 -61.8652 C 53.6621 -61.8652 52.0996 -61.1328 49.8047 -58.252 L 35.5469 -39.7461 C 34.7656 -38.7695 34.5703 -38.1348 34.5703 -36.6211 L 34.5703 -19.2383 C 34.5703 -13.8672 37.4023 -11.0352 42.7734 -11.0352 Z M 38.5742 -38.1836 C 38.1348 -38.1836 38.0371 -38.4766 38.2812 -38.7695 L 51.7578 -56.543 C 53.2227 -58.4961 54.1504 -59.375 57.0312 -59.375 L 87.1094 -59.375 C 89.9902 -59.375 90.918 -58.4961 92.3828 -56.543 L 106.006 -38.7695 C 106.201 -38.4766 106.055 -38.1836 105.713 -38.1836 L 82.6172 -38.1836 C 81.7871 -38.1836 81.3965 -37.6953 81.3965 -36.9629 L 81.3965 -36.7676 C 81.3965 -31.25 77.2949 -27.1973 72.0703 -27.1973 C 66.8945 -27.1973 62.7441 -31.25 62.7441 -36.7676 L 62.7441 -36.9629 C 62.7441 -37.6953 62.4023 -38.1836 61.5723 -38.1836 Z"/>
  </g>
  <g id="Black-M" transform="matrix(1 0 0 1 2870.97 1126)">
   <path d="M 62.4023 18.457 C 91.9922 18.457 116.113 -5.61523 116.113 -35.2051 C 116.113 -64.7949 91.9922 -88.8672 62.4023 -88.8672 C 32.8125 -88.8672 8.74023 -64.7949 8.74023 -35.2051 C 8.74023 -5.61523 32.8125 18.457 62.4023 18.457 Z M 62.4023 0.195312 C 42.8711 0.195312 27.002 -15.625 27.002 -35.2051 C 27.002 -54.7363 42.8711 -70.6055 62.4023 -70.6055 C 81.9824 -70.6055 97.8027 -54.7363 97.8027 -35.2051 C 97.8027 -15.625 81.9824 0.195312 62.4023 0.195312 Z M 44.873 -16.2598 L 79.9805 -16.2598 C 85.4004 -16.2598 88.623 -19.4824 88.623 -24.9512 L 88.623 -37.8418 C 88.623 -42.2363 88.2324 -44.1406 86.084 -46.4844 L 80.0781 -52.832 C 76.6113 -56.5918 75.4395 -58.1543 71.1426 -58.1543 L 53.7109 -58.1543 C 49.4141 -58.1543 48.2422 -56.5918 44.7266 -52.832 L 38.7695 -46.4844 C 36.6211 -44.1406 36.2305 -42.2363 36.2305 -37.8418 L 36.2305 -24.9512 C 36.2305 -19.4824 39.4043 -16.2598 44.873 -16.2598 Z M 45.3613 -40.4785 C 44.2383 -40.4785 44.0918 -41.5039 44.6777 -42.1875 L 52.5879 -50.9766 C 53.125 -51.6602 53.7598 -52.002 54.6875 -52.002 L 70.166 -52.002 C 71.0938 -52.002 71.6797 -51.6602 72.2656 -50.9766 L 80.1758 -42.1875 C 80.7129 -41.5039 80.6152 -40.4785 79.4922 -40.4785 L 69.8242 -40.4785 C 68.457 -40.4785 67.8223 -39.4531 67.8223 -38.3789 L 67.8223 -37.8418 C 67.8223 -34.8145 65.7715 -33.1055 62.4023 -33.1055 C 59.0332 -33.1055 56.9824 -34.8145 56.9824 -37.8418 L 56.9824 -38.3789 C 56.9824 -39.4531 56.3965 -40.4785 55.0293 -40.4785 Z"/>
  </g>
  <g id="Heavy-M" transform="matrix(1 0 0 1 2575.19 1126)">
   <path d="M 61.5234 17.5293 C 90.5273 17.5293 114.258 -6.20117 114.258 -35.2051 C 114.258 -64.2578 90.5273 -87.9883 61.4746 -87.9883 C 32.4707 -87.9883 8.74023 -64.2578 8.74023 -35.2051 C 8.74023 -6.20117 32.4707 17.5293 61.5234 17.5293 Z M 61.5234 1.61133 C 41.1133 1.61133 24.6582 -14.8438 24.6582 -35.2051 C 24.6582 -55.6152 41.1133 -72.0703 61.4746 -72.0703 C 81.8848 -72.0703 98.3398 -55.6152 98.3398 -35.2051 C 98.3398 -14.8438 81.8848 1.61133 61.5234 1.61133 Z M 43.1152 -16.1133 L 79.8828 -16.1133 C 85.2051 -16.1133 88.2812 -19.1406 88.2812 -24.5117 L 88.2812 -37.5 C 88.2812 -41.4062 87.8906 -43.0664 85.9863 -45.166 L 79.3945 -52.7832 C 76.0742 -56.543 74.7559 -57.959 70.5078 -57.959 L 52.5391 -57.959 C 48.2422 -57.959 46.9727 -56.543 43.6035 -52.7832 L 37.0117 -45.166 C 35.1074 -43.0664 34.7656 -41.4062 34.7656 -37.5 L 34.7656 -24.5117 C 34.7656 -19.1406 37.793 -16.1133 43.1152 -16.1133 Z M 43.3594 -39.8926 C 42.2852 -39.8926 42.1875 -40.8203 42.6758 -41.4551 L 50.7324 -50.8789 C 51.3672 -51.709 52.0996 -52.1484 53.1738 -52.1484 L 69.8242 -52.1484 C 70.9473 -52.1484 71.6309 -51.709 72.2656 -50.8789 L 80.3223 -41.4551 C 80.8594 -40.8203 80.7129 -39.8926 79.6875 -39.8926 L 68.9941 -39.8926 C 67.627 -39.8926 67.041 -38.8672 67.041 -37.793 L 67.041 -37.2559 C 67.041 -34.1797 64.8926 -32.3242 61.5234 -32.3242 C 58.1055 -32.3242 56.0059 -34.1797 56.0059 -37.2559 L 56.0059 -37.793 C 56.0059 -38.8672 55.3711 -39.8926 54.0039 -39.8926 Z"/>
  </g>
  <g id="Bold-M" transform="matrix(1 0 0 1 2279.5 1126)">
   <path d="M 60.498 16.5039 C 88.8672 16.5039 112.207 -6.83594 112.207 -35.2051 C 112.207 -63.623 88.8672 -86.9629 60.4492 -86.9629 C 32.0312 -86.9629 8.74023 -63.623 8.74023 -35.2051 C 8.74023 -6.83594 32.0801 16.5039 60.498 16.5039 Z M 60.498 3.22266 C 39.1602 3.22266 22.0703 -13.916 22.0703 -35.2051 C 22.0703 -56.543 39.1602 -73.6816 60.4492 -73.6816 C 81.7383 -73.6816 98.9258 -56.543 98.9258 -35.2051 C 98.9746 -13.916 81.7871 3.22266 60.498 3.22266 Z M 41.2109 -15.8691 L 79.7852 -15.8691 C 85.0098 -15.8691 87.8906 -18.75 87.8906 -23.9746 L 87.8906 -37.1094 C 87.8906 -40.4297 87.5 -41.8457 85.9375 -43.75 L 78.6133 -52.7344 C 75.4395 -56.4941 74.0234 -57.7637 69.7754 -57.7637 L 51.1719 -57.7637 C 46.9238 -57.7637 45.5078 -56.4941 42.334 -52.7344 L 35.0586 -43.75 C 33.4473 -41.8457 33.1055 -40.4297 33.1055 -37.1094 L 33.1055 -23.9746 C 33.1055 -18.75 35.9863 -15.8691 41.2109 -15.8691 Z M 41.0645 -39.209 C 40.1367 -39.209 39.9902 -40.0391 40.4785 -40.625 L 48.6328 -50.7812 C 49.4141 -51.8066 50.2441 -52.2461 51.5137 -52.2461 L 69.4824 -52.2461 C 70.752 -52.2461 71.582 -51.8066 72.3145 -50.7812 L 80.5176 -40.625 C 81.0059 -40.0879 80.8594 -39.209 79.8828 -39.209 L 68.0664 -39.209 C 66.748 -39.209 66.1133 -38.2324 66.1133 -37.1582 L 66.1133 -36.6211 C 66.1133 -33.3984 63.9648 -31.4941 60.498 -31.4941 C 57.0312 -31.4941 54.8828 -33.3984 54.8828 -36.6211 L 54.8828 -37.1582 C 54.8828 -38.2324 54.248 -39.209 52.9297 -39.209 Z"/>
  </g>
  <g id="Semibold-M" transform="matrix(1 0 0 1 1983.5 1126)">
   <path d="M 59.7656 15.8203 C 87.7441 15.8203 110.791 -7.27539 110.791 -35.2539 C 110.791 -63.2324 87.6953 -86.2793 59.7656 -86.2793 C 31.7871 -86.2793 8.74023 -63.2324 8.74023 -35.2539 C 8.74023 -7.27539 31.7871 15.8203 59.7656 15.8203 Z M 59.7656 4.3457 C 37.8418 4.3457 20.2637 -13.3301 20.2637 -35.2539 C 20.2637 -57.1777 37.793 -74.8047 59.7656 -74.8047 C 81.6895 -74.8047 99.3164 -57.1777 99.3652 -35.2539 C 99.3652 -13.3301 81.6895 4.3457 59.7656 4.3457 Z M 39.8926 -15.7227 L 79.6875 -15.7227 C 84.8633 -15.7227 87.5977 -18.5059 87.5977 -23.6328 L 87.5977 -36.8164 C 87.5977 -39.7461 87.2559 -41.0645 85.8398 -42.7246 L 78.0762 -52.6855 C 75.0488 -56.4941 73.5352 -57.6172 69.2871 -57.6172 L 50.293 -57.6172 C 45.9961 -57.6172 44.4824 -56.4941 41.4551 -52.6855 L 33.6914 -42.7246 C 32.3242 -41.0645 31.9336 -39.7461 31.9336 -36.8164 L 31.9336 -23.6328 C 31.9336 -18.5059 34.7168 -15.7227 39.8926 -15.7227 Z M 39.502 -38.7695 C 38.623 -38.7695 38.4766 -39.502 38.916 -40.0879 L 47.2168 -50.7324 C 48.0469 -51.8555 48.9258 -52.3438 50.3906 -52.3438 L 69.1895 -52.3438 C 70.6543 -52.3438 71.5332 -51.8555 72.3633 -50.7324 L 80.6641 -40.0879 C 81.1035 -39.5508 80.9082 -38.7695 80.0293 -38.7695 L 67.3828 -38.7695 C 66.1133 -38.7695 65.4785 -37.7441 65.4785 -36.7188 L 65.4785 -36.1816 C 65.4785 -32.9102 63.2812 -30.9082 59.7656 -30.9082 C 56.2988 -30.9082 54.1016 -32.9102 54.1016 -36.1816 L 54.1016 -36.7188 C 54.1016 -37.7441 53.4668 -38.7695 52.1484 -38.7695 Z"/>
  </g>
  <g id="Medium-M" transform="matrix(1 0 0 1 1687.3 1126)">
   <path d="M 59.2285 15.2344 C 86.9141 15.2344 109.766 -7.61719 109.766 -35.2539 C 109.766 -62.8906 86.8652 -85.7422 59.1797 -85.7422 C 31.543 -85.7422 8.74023 -62.8906 8.74023 -35.2539 C 8.74023 -7.61719 31.5918 15.2344 59.2285 15.2344 Z M 59.2285 5.17578 C 36.8164 5.17578 18.8965 -12.8418 18.8965 -35.2539 C 18.8965 -57.666 36.8164 -75.6348 59.1797 -75.6348 C 81.5918 -75.6348 99.6094 -57.666 99.6582 -35.2539 C 99.707 -12.8418 81.6406 5.17578 59.2285 5.17578 Z M 38.8672 -15.625 L 79.6387 -15.625 C 84.7656 -15.625 87.4023 -18.3105 87.4023 -23.3398 L 87.4023 -36.6211 C 87.4023 -39.2578 87.0117 -40.4297 85.8398 -41.9922 L 77.6855 -52.6855 C 74.707 -56.4941 73.1445 -57.5195 68.8965 -57.5195 L 49.5605 -57.5195 C 45.3125 -57.5195 43.75 -56.4941 40.8203 -52.6855 L 32.666 -41.9922 C 31.4453 -40.4297 31.0547 -39.2578 31.0547 -36.6211 L 31.0547 -23.3398 C 31.0547 -18.3105 33.7891 -15.625 38.8672 -15.625 Z M 38.3301 -38.4277 C 37.5 -38.4277 37.3535 -39.1113 37.7441 -39.6484 L 46.0938 -50.6836 C 47.0215 -51.9043 47.9492 -52.4414 49.5117 -52.4414 L 68.9941 -52.4414 C 70.5566 -52.4414 71.5332 -51.8555 72.4121 -50.6836 L 80.7617 -39.6484 C 81.1523 -39.1602 81.0059 -38.4277 80.1758 -38.4277 L 66.8945 -38.4277 C 65.625 -38.4277 64.9902 -37.4023 64.9902 -36.4258 L 64.9902 -35.8398 C 64.9902 -32.5195 62.7441 -30.4688 59.2285 -30.4688 C 55.7129 -30.4688 53.5156 -32.5195 53.5156 -35.8398 L 53.5156 -36.4258 C 53.5156 -37.4023 52.8809 -38.4277 51.6113 -38.4277 Z"/>
  </g>
  <g id="Regular-M" transform="matrix(1 0 0 1 1391.3 1126)">
   <path d="M 58.5449 14.5508 C 85.791 14.5508 108.35 -8.05664 108.35 -35.2539 C 108.35 -62.5 85.7422 -85.0586 58.4961 -85.0586 C 31.2988 -85.0586 8.74023 -62.5 8.74023 -35.2539 C 8.74023 -8.05664 31.3477 14.5508 58.5449 14.5508 Z M 58.5449 6.25 C 35.498 6.25 17.0898 -12.207 17.0898 -35.2539 C 17.0898 -58.3008 35.4492 -76.7578 58.4961 -76.7578 C 81.543 -76.7578 100 -58.3008 100.049 -35.2539 C 100.098 -12.207 81.5918 6.25 58.5449 6.25 Z M 37.5488 -15.4785 L 79.541 -15.4785 C 84.6191 -15.4785 87.1582 -18.0664 87.1582 -22.998 L 87.1582 -36.377 C 87.1582 -38.5742 86.7676 -39.5996 85.7422 -40.9668 L 77.1484 -52.6367 C 74.3164 -56.4453 72.6562 -57.373 68.4082 -57.373 L 48.6816 -57.373 C 44.4336 -57.373 42.7246 -56.4453 39.9414 -52.6367 L 31.3477 -40.9668 C 30.3223 -39.5996 29.9316 -38.5742 29.9316 -36.377 L 29.9316 -22.998 C 29.9316 -18.0176 32.5195 -15.4785 37.5488 -15.4785 Z M 36.7676 -37.9395 C 36.0352 -37.9395 35.8887 -38.5742 36.2305 -39.1113 L 44.6777 -50.6348 C 45.6543 -51.9531 46.6797 -52.5391 48.3887 -52.5391 L 68.75 -52.5391 C 70.459 -52.5391 71.4844 -51.9043 72.4121 -50.6348 L 80.9082 -39.1113 C 81.25 -38.623 81.0547 -37.9395 80.3223 -37.9395 L 66.2598 -37.9395 C 64.9902 -37.9395 64.4043 -36.9629 64.4043 -35.9863 L 64.4043 -35.4004 C 64.4043 -31.9824 62.1094 -29.8828 58.5449 -29.8828 C 54.9805 -29.8828 52.7832 -31.9824 52.7832 -35.4004 L 52.7832 -35.9863 C 52.7832 -36.9629 52.0996 -37.9395 50.8301 -37.9395 Z"/>
  </g>
  <g id="Light-M" transform="matrix(1 0 0 1 1095.42 1126)">
   <path d="M 57.7148 13.7207 C 84.5215 13.7207 106.689 -8.44727 106.689 -35.2539 C 106.689 -62.1094 84.5215 -84.2285 57.666 -84.2285 C 30.8594 -84.2285 8.74023 -62.1094 8.74023 -35.2539 C 8.74023 -8.44727 30.9082 13.7207 57.7148 13.7207 Z M 57.7148 7.37305 C 34.082 7.37305 15.0879 -11.6699 15.0879 -35.2539 C 15.0879 -58.8867 34.082 -77.9297 57.666 -77.9297 C 81.2988 -77.9297 100.342 -58.8867 100.391 -35.2539 C 100.391 -11.6699 81.3477 7.37305 57.7148 7.37305 Z M 36.1816 -15.8203 L 79.248 -15.8203 C 84.0332 -15.8203 86.4746 -18.2617 86.4746 -22.9492 L 86.4746 -36.3281 C 86.4746 -38.2324 86.1816 -39.1113 85.2539 -40.2832 L 75.9277 -52.7832 C 73.3887 -56.1035 71.875 -56.9336 68.0176 -56.9336 L 47.4121 -56.9336 C 43.5547 -56.9336 41.9922 -56.1035 39.5508 -52.7832 L 30.1758 -40.2832 C 29.2969 -39.1113 28.9551 -38.2324 28.9551 -36.3281 L 28.9551 -22.9492 C 28.9551 -18.2129 31.4453 -15.8203 36.1816 -15.8203 Z M 34.668 -37.8418 C 34.0332 -37.8418 33.8867 -38.3301 34.2285 -38.7207 L 43.2617 -50.9766 C 44.2871 -52.3926 45.2148 -52.9785 47.0703 -52.9785 L 68.3594 -52.9785 C 70.2637 -52.9785 71.1914 -52.3438 72.168 -50.9766 L 81.2988 -38.7207 C 81.5918 -38.3789 81.4453 -37.8418 80.8105 -37.8418 L 65.5762 -37.8418 C 64.502 -37.8418 63.9648 -37.0117 63.9648 -36.1328 L 63.9648 -35.6934 C 63.9648 -32.0312 61.4258 -29.5898 57.7148 -29.5898 C 54.0039 -29.5898 51.4648 -32.0312 51.4648 -35.6934 L 51.4648 -36.1328 C 51.4648 -37.0117 50.9277 -37.8418 49.8535 -37.8418 Z"/>
  </g>
  <g id="Thin-M" transform="matrix(1 0 0 1 799.806 1126)">
   <path d="M 56.6406 12.5977 C 82.9102 12.5977 104.492 -8.98438 104.492 -35.2539 C 104.492 -61.5723 82.9102 -83.1543 56.5918 -83.1543 C 30.3223 -83.1543 8.74023 -61.5723 8.74023 -35.2539 C 8.74023 -8.98438 30.3223 12.5977 56.6406 12.5977 Z M 56.6406 8.88672 C 32.2266 8.88672 12.4512 -10.8887 12.4512 -35.2539 C 12.4512 -59.6191 32.2266 -79.4434 56.5918 -79.4434 C 81.0059 -79.4434 100.781 -59.6191 100.781 -35.2539 C 100.781 -10.8887 81.0059 8.88672 56.6406 8.88672 Z M 34.375 -16.2109 L 78.8574 -16.2109 C 83.252 -16.2109 85.5957 -18.5547 85.5957 -22.9004 L 85.5957 -36.3281 C 85.5957 -37.793 85.3516 -38.4277 84.6191 -39.3555 L 74.2676 -52.9297 C 72.2168 -55.6152 70.8496 -56.2988 67.4805 -56.2988 L 45.8008 -56.2988 C 42.3828 -56.2988 41.0645 -55.6152 38.9648 -52.9297 L 28.6133 -39.3555 C 27.8809 -38.4277 27.6855 -37.793 27.6855 -36.3281 L 27.6855 -22.9004 C 27.6855 -18.5059 29.9805 -16.2109 34.375 -16.2109 Z M 31.8359 -37.6465 C 31.3477 -37.6465 31.2988 -37.9883 31.4941 -38.2812 L 41.4062 -51.416 C 42.4805 -52.8809 43.3105 -53.5645 45.3613 -53.5645 L 67.8711 -53.5645 C 69.9707 -53.5645 70.752 -52.8809 71.8262 -51.416 L 81.7871 -38.2812 C 82.0312 -37.9883 81.8848 -37.6465 81.4941 -37.6465 L 64.6484 -37.6465 C 63.8184 -37.6465 63.4766 -37.1094 63.4766 -36.377 L 63.4766 -36.1328 C 63.4766 -32.1289 60.498 -29.248 56.6406 -29.248 C 52.7344 -29.248 49.8047 -32.1289 49.8047 -36.1328 L 49.8047 -36.377 C 49.8047 -37.1094 49.4141 -37.6465 48.584 -37.6465 Z"/>
  </g>
  <g id="Ultralight-M" transform="matrix(1 0 0 1 503.656 1126)">
   <path d="M 56.0547 12.0605 C 82.0801 12.0605 103.369 -9.22852 103.369 -35.2539 C 103.369 -61.2793 82.0801 -82.5684 56.0547 -82.5684 C 30.0293 -82.5684 8.74023 -61.2793 8.74023 -35.2539 C 8.74023 -9.22852 30.0293 12.0605 56.0547 12.0605 Z M 56.0547 9.66797 C 31.2988 9.66797 11.1328 -10.498 11.1328 -35.2539 C 11.1328 -60.0586 31.2988 -80.1758 56.0547 -80.1758 C 80.8594 -80.1758 100.977 -60.0586 100.977 -35.2539 C 100.977 -10.498 80.8594 9.66797 56.0547 9.66797 Z M 33.4961 -16.4062 L 78.6621 -16.4062 C 82.8613 -16.4062 85.1074 -18.7012 85.1074 -22.8516 L 85.1074 -36.3281 C 85.1074 -37.5488 84.9121 -38.0859 84.3262 -38.916 L 73.4375 -53.0273 C 71.582 -55.3711 70.3613 -56.0059 67.1875 -56.0059 L 44.9707 -56.0059 C 41.7969 -56.0059 40.5273 -55.3711 38.7207 -53.0273 L 27.832 -38.916 C 27.1973 -38.0859 27.002 -37.5488 27.002 -36.3281 L 27.002 -22.8516 C 27.002 -18.6523 29.248 -16.4062 33.4961 -16.4062 Z M 30.3711 -37.5488 C 30.0293 -37.5488 29.9316 -37.793 30.127 -38.0371 L 40.4297 -51.6602 C 41.5527 -53.1738 42.334 -53.8574 44.5312 -53.8574 L 67.627 -53.8574 C 69.8242 -53.8574 70.5566 -53.1738 71.6797 -51.6602 L 82.0801 -38.0371 C 82.2266 -37.793 82.1289 -37.5488 81.8359 -37.5488 L 64.1602 -37.5488 C 63.4766 -37.5488 63.1836 -37.1094 63.1836 -36.5234 L 63.1836 -36.3281 C 63.1836 -32.1289 60.0586 -29.0527 56.0547 -29.0527 C 52.0508 -29.0527 48.9258 -32.1289 48.9258 -36.3281 L 48.9258 -36.5234 C 48.9258 -37.1094 48.6328 -37.5488 47.9492 -37.5488 Z"/>
  </g>
  <g id="Black-S" transform="matrix(1 0 0 1 2884.57 696)">
   <path d="M 48.8281 6.78711 C 71.9727 6.78711 90.8203 -12.0605 90.8203 -35.2051 C 90.8203 -58.3496 71.9727 -77.1973 48.8281 -77.1973 C 25.6836 -77.1973 6.83594 -58.3496 6.83594 -35.2051 C 6.83594 -12.0605 25.6836 6.78711 48.8281 6.78711 Z M 48.8281 -7.37305 C 33.4473 -7.37305 20.9961 -19.8242 20.9961 -35.2051 C 20.9961 -50.5859 33.4473 -63.0371 48.8281 -63.0371 C 64.209 -63.0371 76.6602 -50.5859 76.6602 -35.2051 C 76.6602 -19.8242 64.209 -7.37305 48.8281 -7.37305 Z M 35.0098 -20.3613 L 62.6465 -20.3613 C 66.8945 -20.3613 69.3848 -22.8516 69.3848 -27.1484 L 69.3848 -37.2559 C 69.3848 -40.6738 69.0918 -42.1387 67.4316 -43.9453 L 62.6953 -49.0234 C 59.9609 -51.9531 59.0332 -53.1738 55.6641 -53.1738 L 41.9922 -53.1738 C 38.623 -53.1738 37.6953 -51.9531 34.9609 -49.0234 L 30.2246 -43.9453 C 28.5645 -42.1387 28.2715 -40.6738 28.2715 -37.2559 L 28.2715 -27.1484 C 28.2715 -22.8516 30.7617 -20.3613 35.0098 -20.3613 Z M 35.4004 -39.3066 C 34.5215 -39.3066 34.4238 -40.0879 34.8633 -40.625 L 41.0645 -47.5586 C 41.5039 -48.0957 41.9922 -48.3887 42.7246 -48.3887 L 54.9316 -48.3887 C 55.6641 -48.3887 56.1523 -48.0957 56.5918 -47.5586 L 62.793 -40.625 C 63.2324 -40.0879 63.1348 -39.3066 62.2559 -39.3066 L 54.6387 -39.3066 C 53.5645 -39.3066 53.0762 -38.4766 53.0762 -37.6465 L 53.0762 -37.207 C 53.0762 -34.8633 51.4648 -33.4961 48.8281 -33.4961 C 46.1914 -33.4961 44.5801 -34.8633 44.5801 -37.207 L 44.5801 -37.6465 C 44.5801 -38.4766 44.0918 -39.3066 43.0176 -39.3066 Z"/>
  </g>
  <g id="Heavy-S" transform="matrix(1 0 0 1 2588.47 696)">
   <path d="M 48.2422 6.15234 C 70.9961 6.15234 89.5996 -12.4512 89.5996 -35.2051 C 89.5996 -57.959 70.9961 -76.6113 48.1934 -76.6113 C 25.4395 -76.6113 6.83594 -57.959 6.83594 -35.2051 C 6.83594 -12.4512 25.4395 6.15234 48.2422 6.15234 Z M 48.2422 -6.39648 C 32.2754 -6.39648 19.4336 -19.2871 19.4336 -35.2051 C 19.4336 -51.1719 32.2754 -64.0137 48.1934 -64.0137 C 64.1602 -64.0137 77.002 -51.1719 77.0508 -35.2051 C 77.0508 -19.2871 64.1602 -6.39648 48.2422 -6.39648 Z M 33.8379 -20.166 L 62.5977 -20.166 C 66.7969 -20.166 69.1895 -22.5586 69.1895 -26.8066 L 69.1895 -37.0117 C 69.1895 -40.0391 68.8965 -41.3574 67.4316 -43.0176 L 62.3047 -48.9746 C 59.668 -51.9531 58.6426 -53.0762 55.2246 -53.0762 L 41.2109 -53.0762 C 37.8418 -53.0762 36.7676 -51.9531 34.1309 -48.9746 L 29.0039 -43.0176 C 27.5391 -41.3574 27.2461 -40.0391 27.2461 -37.0117 L 27.2461 -26.8066 C 27.2461 -22.5586 29.6387 -20.166 33.8379 -20.166 Z M 34.082 -38.8672 C 33.252 -38.8672 33.1543 -39.5996 33.5449 -40.0879 L 39.7949 -47.4609 C 40.2832 -48.0957 40.8691 -48.4375 41.748 -48.4375 L 54.7363 -48.4375 C 55.5664 -48.4375 56.1523 -48.0957 56.6406 -47.4609 L 62.8906 -40.0879 C 63.2812 -39.5996 63.1836 -38.8672 62.3535 -38.8672 L 54.0527 -38.8672 C 52.9785 -38.8672 52.4902 -38.0371 52.4902 -37.207 L 52.4902 -36.7188 C 52.4902 -34.3262 50.8789 -32.959 48.2422 -32.959 C 45.5566 -32.959 43.9453 -34.3262 43.9453 -36.7188 L 43.9453 -37.207 C 43.9453 -38.0371 43.457 -38.8672 42.3828 -38.8672 Z"/>
  </g>
  <g id="Bold-S" transform="matrix(1 0 0 1 2292.44 696)">
   <path d="M 47.5586 5.46875 C 69.873 5.46875 88.2324 -12.8906 88.2324 -35.2539 C 88.2324 -57.5684 69.873 -75.9277 47.5098 -75.9277 C 25.1953 -75.9277 6.83594 -57.5684 6.83594 -35.2539 C 6.83594 -12.8906 25.1953 5.46875 47.5586 5.46875 Z M 47.5586 -5.32227 C 30.957 -5.32227 17.6758 -18.6523 17.6758 -35.2539 C 17.6758 -51.8066 30.957 -65.1367 47.5098 -65.1367 C 64.1113 -65.1367 77.4414 -51.8066 77.4414 -35.2539 C 77.4414 -18.6523 64.1113 -5.32227 47.5586 -5.32227 Z M 32.5195 -19.9707 L 62.5488 -19.9707 C 66.748 -19.9707 68.9941 -22.2656 68.9941 -26.416 L 68.9941 -36.6699 C 68.9941 -39.3555 68.7012 -40.5273 67.4316 -41.9922 L 61.8652 -48.9258 C 59.3262 -52.002 58.1543 -52.9785 54.7363 -52.9785 L 40.3809 -52.9785 C 36.9141 -52.9785 35.7422 -52.002 33.2031 -48.9258 L 27.6855 -41.9922 C 26.416 -40.5273 26.0742 -39.3555 26.0742 -36.6699 L 26.0742 -26.416 C 26.0742 -22.2656 28.3691 -19.9707 32.5195 -19.9707 Z M 32.6172 -38.3789 C 31.8359 -38.3789 31.7383 -39.0625 32.1289 -39.502 L 38.3789 -47.3633 C 38.9648 -48.1445 39.6484 -48.4863 40.625 -48.4863 L 54.4922 -48.4863 C 55.4688 -48.4863 56.1523 -48.0957 56.7383 -47.3633 L 62.9883 -39.502 C 63.3789 -39.0625 63.2324 -38.3789 62.4512 -38.3789 L 53.418 -38.3789 C 52.3438 -38.3789 51.8555 -37.5488 51.8555 -36.6699 L 51.8555 -36.2305 C 51.8555 -33.7891 50.1953 -32.3242 47.5586 -32.3242 C 44.873 -32.3242 43.2617 -33.7891 43.2617 -36.2305 L 43.2617 -36.6699 C 43.2617 -37.5488 42.7246 -38.3789 41.6504 -38.3789 Z"/>
  </g>
  <g id="Semibold-S" transform="matrix(1 0 0 1 1996.2 696)">
   <path d="M 47.0703 4.98047 C 69.0918 4.98047 87.3047 -13.1836 87.3047 -35.2539 C 87.3047 -57.2754 69.0918 -75.4883 47.0215 -75.4883 C 25 -75.4883 6.83594 -57.2754 6.83594 -35.2539 C 6.83594 -13.1836 25.0488 4.98047 47.0703 4.98047 Z M 47.0703 -4.58984 C 30.0781 -4.58984 16.4551 -18.2129 16.4551 -35.2539 C 16.4551 -52.2461 30.0293 -65.8691 47.0215 -65.8691 C 64.0625 -65.8691 77.6855 -52.2461 77.7344 -35.2539 C 77.7344 -18.2129 64.0625 -4.58984 47.0703 -4.58984 Z M 31.6406 -19.873 L 62.5 -19.873 C 66.6504 -19.873 68.8477 -22.0215 68.8477 -26.123 L 68.8477 -36.4746 C 68.8477 -38.8672 68.5059 -39.9414 67.4316 -41.3086 L 61.5723 -48.877 C 59.082 -52.002 57.8613 -52.9297 54.3945 -52.9297 L 39.7461 -52.9297 C 36.2793 -52.9297 35.0586 -52.002 32.5684 -48.877 L 26.7578 -41.3086 C 25.6348 -39.9414 25.293 -38.8672 25.293 -36.4746 L 25.293 -26.123 C 25.293 -22.0215 27.5391 -19.873 31.6406 -19.873 Z M 31.5918 -38.0371 C 30.8594 -38.0371 30.7617 -38.6719 31.1035 -39.1113 L 37.4023 -47.2656 C 38.0371 -48.1445 38.7695 -48.4863 39.8438 -48.4863 L 54.3457 -48.4863 C 55.4199 -48.4863 56.1523 -48.0957 56.7871 -47.2656 L 63.0859 -39.1113 C 63.3789 -38.6719 63.2812 -38.0371 62.5488 -38.0371 L 52.9785 -38.0371 C 51.9043 -38.0371 51.416 -37.207 51.416 -36.3281 L 51.416 -35.8398 C 51.416 -33.3496 49.7559 -31.8848 47.0703 -31.8848 C 44.3848 -31.8848 42.7734 -33.3496 42.7734 -35.8398 L 42.7734 -36.3281 C 42.7734 -37.207 42.2363 -38.0371 41.1621 -38.0371 Z"/>
  </g>
  <g id="Medium-S" transform="matrix(1 0 0 1 1699.83 696)">
   <path d="M 46.7285 4.63867 C 68.5547 4.63867 86.6211 -13.4277 86.6211 -35.2539 C 86.6211 -57.0801 68.5059 -75.1465 46.6797 -75.1465 C 24.8535 -75.1465 6.83594 -57.0801 6.83594 -35.2539 C 6.83594 -13.4277 24.9023 4.63867 46.7285 4.63867 Z M 46.7285 -4.00391 C 29.3945 -4.00391 15.5273 -17.9199 15.5273 -35.2539 C 15.5273 -52.5879 29.3457 -66.4551 46.6797 -66.4551 C 64.0137 -66.4551 77.8809 -52.5879 77.9297 -35.2539 C 77.9785 -17.9199 64.0625 -4.00391 46.7285 -4.00391 Z M 30.957 -19.7754 L 62.5 -19.7754 C 66.6016 -19.7754 68.75 -21.875 68.75 -25.9277 L 68.75 -36.3281 C 68.75 -38.5254 68.4082 -39.4531 67.4316 -40.7715 L 61.3281 -48.8281 C 58.8867 -52.0508 57.6172 -52.8809 54.1504 -52.8809 L 39.3066 -52.8809 C 35.8398 -52.8809 34.5215 -52.0508 32.1289 -48.8281 L 26.0254 -40.7715 C 25.0488 -39.4531 24.707 -38.5254 24.707 -36.3281 L 24.707 -25.9277 C 24.707 -21.875 26.8555 -19.7754 30.957 -19.7754 Z M 30.8594 -37.7441 C 30.127 -37.7441 30.0293 -38.3789 30.3711 -38.8184 L 36.6211 -47.2168 C 37.3047 -48.1445 38.1348 -48.5352 39.2578 -48.5352 L 54.1992 -48.5352 C 55.3711 -48.5352 56.1523 -48.0957 56.7871 -47.2168 L 63.1348 -38.8184 C 63.4277 -38.4277 63.2812 -37.7441 62.5977 -37.7441 L 52.6855 -37.7441 C 51.5625 -37.7441 51.0742 -36.9141 51.0742 -36.084 L 51.0742 -35.5469 C 51.0742 -33.0566 49.4141 -31.5918 46.7285 -31.5918 C 44.043 -31.5918 42.4316 -33.0566 42.4316 -35.5469 L 42.4316 -36.084 C 42.4316 -36.9141 41.8457 -37.7441 40.7715 -37.7441 Z"/>
  </g>
  <g id="Regular-S" transform="matrix(1 0 0 1 1403.58 696)">
   <path d="M 46.2402 4.15039 C 67.7734 4.15039 85.6934 -13.7207 85.6934 -35.2539 C 85.6934 -56.7871 67.7246 -74.6582 46.1914 -74.6582 C 24.707 -74.6582 6.83594 -56.7871 6.83594 -35.2539 C 6.83594 -13.7207 24.7559 4.15039 46.2402 4.15039 Z M 46.2402 -3.27148 C 28.5156 -3.27148 14.3555 -17.4805 14.3555 -35.2539 C 14.3555 -53.0273 28.4668 -67.2363 46.1914 -67.2363 C 63.9648 -67.2363 78.1738 -53.0273 78.2227 -35.2539 C 78.2715 -17.4805 64.0137 -3.27148 46.2402 -3.27148 Z M 30.0781 -19.6289 L 62.4512 -19.6289 C 66.5527 -19.6289 68.6035 -21.6797 68.6035 -25.6836 L 68.6035 -36.1328 C 68.6035 -38.0371 68.2617 -38.8672 67.3828 -40.0879 L 61.0352 -48.7793 C 58.6426 -52.0508 57.3242 -52.832 53.8086 -52.832 L 38.7207 -52.832 C 35.2051 -52.832 33.8379 -52.0508 31.4941 -48.7793 L 25.0977 -40.0879 C 24.2676 -38.8672 23.9258 -38.0371 23.9258 -36.1328 L 23.9258 -25.6836 C 23.9258 -21.6797 26.0254 -19.6289 30.0781 -19.6289 Z M 29.834 -37.4512 C 29.1992 -37.4512 29.0527 -37.9883 29.3945 -38.4277 L 35.6934 -47.1191 C 36.4258 -48.1445 37.2559 -48.5352 38.5254 -48.5352 L 54.0527 -48.5352 C 55.2734 -48.5352 56.1523 -48.0957 56.8359 -47.1191 L 63.1836 -38.4277 C 63.4766 -38.0371 63.3301 -37.4512 62.6953 -37.4512 L 52.2461 -37.4512 C 51.123 -37.4512 50.6348 -36.5723 50.6348 -35.7422 L 50.6348 -35.2051 C 50.6348 -32.666 48.9746 -31.1523 46.2402 -31.1523 C 43.5547 -31.1523 41.9434 -32.666 41.9434 -35.2051 L 41.9434 -35.7422 C 41.9434 -36.5723 41.3574 -37.4512 40.2832 -37.4512 Z"/>
  </g>
  <g id="Light-S" transform="matrix(1 0 0 1 1107.6 696)">
   <path d="M 45.5078 3.41797 C 66.6992 3.41797 84.2285 -14.0625 84.2285 -35.2539 C 84.2285 -56.4453 66.6504 -73.9258 45.5078 -73.9258 C 24.3164 -73.9258 6.83594 -56.4453 6.83594 -35.2539 C 6.83594 -14.0625 24.3652 3.41797 45.5078 3.41797 Z M 45.5078 -2.29492 C 27.2461 -2.29492 12.5977 -16.9922 12.5977 -35.2539 C 12.5977 -53.5156 27.1973 -68.2129 45.5078 -68.2129 C 63.7695 -68.2129 78.4668 -53.5156 78.5156 -35.2539 C 78.5156 -16.9922 63.8184 -2.29492 45.5078 -2.29492 Z M 28.8574 -19.873 L 62.207 -19.873 C 66.0645 -19.873 68.0176 -21.875 68.0176 -25.6348 L 68.0176 -36.1328 C 68.0176 -37.7441 67.7246 -38.4277 66.9922 -39.4531 L 59.9609 -48.9258 C 57.8613 -51.709 56.5918 -52.3926 53.418 -52.3926 L 37.6465 -52.3926 C 34.4238 -52.3926 33.1543 -51.709 31.1035 -48.9258 L 24.0723 -39.4531 C 23.3398 -38.4277 23.0469 -37.7441 23.0469 -36.1328 L 23.0469 -25.6348 C 23.0469 -21.8262 25.0488 -19.873 28.8574 -19.873 Z M 27.9297 -37.3047 C 27.3926 -37.3047 27.2949 -37.7441 27.5879 -38.1348 L 34.4238 -47.4121 C 35.2051 -48.4863 35.9863 -48.9746 37.3535 -48.9746 L 53.7109 -48.9746 C 55.0781 -48.9746 55.8594 -48.4863 56.6406 -47.4121 L 63.5254 -38.1348 C 63.7695 -37.793 63.623 -37.3047 63.1348 -37.3047 L 51.6113 -37.3047 C 50.6836 -37.3047 50.293 -36.6211 50.293 -35.8887 L 50.293 -35.498 C 50.293 -32.7148 48.3887 -30.9082 45.5078 -30.9082 C 42.6758 -30.9082 40.8203 -32.7148 40.8203 -35.498 L 40.8203 -35.8887 C 40.8203 -36.6211 40.332 -37.3047 39.4531 -37.3047 Z"/>
  </g>
  <g id="Thin-S" transform="matrix(1 0 0 1 811.867 696)">
   <path d="M 44.5801 2.49023 C 65.2832 2.49023 82.2754 -14.5508 82.2754 -35.2539 C 82.2754 -55.957 65.2344 -72.998 44.5312 -72.998 C 23.8281 -72.998 6.83594 -55.957 6.83594 -35.2539 C 6.83594 -14.5508 23.877 2.49023 44.5801 2.49023 Z M 44.5801 -0.927734 C 25.5859 -0.927734 10.2539 -16.3086 10.2539 -35.2539 C 10.2539 -54.1992 25.5859 -69.5801 44.5312 -69.5801 C 63.5254 -69.5801 78.8574 -54.1992 78.8574 -35.2539 C 78.8574 -16.3086 63.5254 -0.927734 44.5801 -0.927734 Z M 27.2949 -20.2148 L 61.8652 -20.2148 C 65.3809 -20.2148 67.1875 -22.1191 67.1875 -25.5859 L 67.1875 -36.084 C 67.1875 -37.3047 66.9922 -37.8906 66.4062 -38.6719 L 58.4961 -49.0723 C 56.7871 -51.3184 55.7129 -51.8555 52.9297 -51.8555 L 36.1816 -51.8555 C 33.3984 -51.8555 32.3242 -51.3184 30.6152 -49.0723 L 22.7051 -38.6719 C 22.1191 -37.8906 21.9238 -37.3047 21.9238 -36.084 L 21.9238 -25.5859 C 21.9238 -22.0703 23.7793 -20.2148 27.2949 -20.2148 Z M 25.4395 -37.1582 C 25.0488 -37.1582 25 -37.4512 25.1953 -37.6953 L 32.7637 -47.8516 C 33.6426 -48.9746 34.2773 -49.4629 35.8887 -49.4629 L 53.2715 -49.4629 C 54.834 -49.4629 55.5176 -48.9746 56.3477 -47.8516 L 63.9648 -37.6953 C 64.1602 -37.4512 64.0625 -37.1582 63.6719 -37.1582 L 50.8301 -37.1582 C 50.1465 -37.1582 49.8047 -36.6699 49.8047 -36.084 L 49.8047 -35.8398 C 49.8047 -32.7637 47.5586 -30.6152 44.5801 -30.6152 C 41.5527 -30.6152 39.3066 -32.7637 39.3066 -35.8398 L 39.3066 -36.084 C 39.3066 -36.6699 39.0137 -37.1582 38.3301 -37.1582 Z"/>
  </g>
  <g id="Ultralight-S" transform="matrix(1 0 0 1 515.644 696)">
   <path d="M 44.043 1.95312 C 64.502 1.95312 81.2988 -14.7949 81.2988 -35.2539 C 81.2988 -55.7129 64.502 -72.4609 44.043 -72.4609 C 23.584 -72.4609 6.83594 -55.7129 6.83594 -35.2539 C 6.83594 -14.7949 23.584 1.95312 44.043 1.95312 Z M 44.043 -0.244141 C 24.7559 -0.244141 9.08203 -15.9668 9.08203 -35.2539 C 9.08203 -54.541 24.7559 -70.2637 44.043 -70.2637 C 63.3789 -70.2637 79.0527 -54.541 79.0527 -35.2539 C 79.0527 -15.9668 63.3789 -0.244141 44.043 -0.244141 Z M 26.4648 -20.4102 L 61.6699 -20.4102 C 65.0391 -20.4102 66.7969 -22.2168 66.7969 -25.5371 L 66.7969 -36.084 C 66.7969 -37.1094 66.6504 -37.5488 66.1133 -38.2324 L 57.7637 -49.1699 C 56.25 -51.0742 55.2246 -51.5625 52.6855 -51.5625 L 35.4492 -51.5625 C 32.8613 -51.5625 31.8848 -51.0742 30.3711 -49.1699 L 21.9727 -38.2324 C 21.4844 -37.5488 21.3379 -37.1094 21.3379 -36.084 L 21.3379 -25.5371 C 21.3379 -22.168 23.0957 -20.4102 26.4648 -20.4102 Z M 24.1699 -37.0605 C 23.877 -37.0605 23.8281 -37.3047 23.9746 -37.5 L 31.9336 -48.0469 C 32.8125 -49.2188 33.3984 -49.7559 35.1074 -49.7559 L 53.0273 -49.7559 C 54.7363 -49.7559 55.3223 -49.2188 56.2012 -48.0469 L 64.209 -37.5 C 64.3555 -37.3047 64.2578 -37.0605 64.0137 -37.0605 L 50.3906 -37.0605 C 49.8047 -37.0605 49.5605 -36.7188 49.5605 -36.1816 L 49.5605 -36.0352 C 49.5605 -32.8125 47.168 -30.4688 44.043 -30.4688 C 40.9668 -30.4688 38.5742 -32.8125 38.5742 -36.0352 L 38.5742 -36.1816 C 38.5742 -36.7188 38.2812 -37.0605 37.7441 -37.0605 Z"/>
  </g>
 </g>
</svg>
