<?xml version="1.0" encoding="UTF-8"?>
<!--Generator: Apple Native CoreSVG 148-->
<!DOCTYPE svg
PUBLIC "-//W3C//DTD SVG 1.1//EN"
       "http://www.w3.org/Graphics/SVG/1.1/DTD/svg11.dtd">
<svg version="1.1" xmlns="http://www.w3.org/2000/svg" xmlns:xlink="http://www.w3.org/1999/xlink" width="3300" height="2200">
 <!--glyph: "uni100696.medium", point size: 100.000000, font version: "Version 16.0d11e1", template writer version: "8"-->
 <g id="Notes">
  <rect height="2200" id="artboard" style="fill:white;opacity:1" width="3300" x="0" y="0"/>
  <line id="" style="fill:none;stroke:black;opacity:1;stroke-width:0.5;" x1="263" x2="3036" y1="292" y2="292"/>
  <text style="stroke:none;fill:black;font-family:-apple-system,&quot;SF Pro Display&quot;,&quot;SF Pro Text&quot;,Helvetica,sans-serif;font-weight:bold;" transform="matrix(1 0 0 1 263 322)">Weight/Scale Variations</text>
  <text style="stroke:none;fill:black;font-family:-apple-system,&quot;SF Pro Display&quot;,&quot;SF Pro Text&quot;,Helvetica,sans-serif;text-anchor:middle;" transform="matrix(1 0 0 1 559.711 322)">Ultralight</text>
  <text style="stroke:none;fill:black;font-family:-apple-system,&quot;SF Pro Display&quot;,&quot;SF Pro Text&quot;,Helvetica,sans-serif;text-anchor:middle;" transform="matrix(1 0 0 1 856.422 322)">Thin</text>
  <text style="stroke:none;fill:black;font-family:-apple-system,&quot;SF Pro Display&quot;,&quot;SF Pro Text&quot;,Helvetica,sans-serif;text-anchor:middle;" transform="matrix(1 0 0 1 1153.13 322)">Light</text>
  <text style="stroke:none;fill:black;font-family:-apple-system,&quot;SF Pro Display&quot;,&quot;SF Pro Text&quot;,Helvetica,sans-serif;text-anchor:middle;" transform="matrix(1 0 0 1 1449.84 322)">Regular</text>
  <text style="stroke:none;fill:black;font-family:-apple-system,&quot;SF Pro Display&quot;,&quot;SF Pro Text&quot;,Helvetica,sans-serif;text-anchor:middle;" transform="matrix(1 0 0 1 1746.56 322)">Medium</text>
  <text style="stroke:none;fill:black;font-family:-apple-system,&quot;SF Pro Display&quot;,&quot;SF Pro Text&quot;,Helvetica,sans-serif;text-anchor:middle;" transform="matrix(1 0 0 1 2043.27 322)">Semibold</text>
  <text style="stroke:none;fill:black;font-family:-apple-system,&quot;SF Pro Display&quot;,&quot;SF Pro Text&quot;,Helvetica,sans-serif;text-anchor:middle;" transform="matrix(1 0 0 1 2339.98 322)">Bold</text>
  <text style="stroke:none;fill:black;font-family:-apple-system,&quot;SF Pro Display&quot;,&quot;SF Pro Text&quot;,Helvetica,sans-serif;text-anchor:middle;" transform="matrix(1 0 0 1 2636.69 322)">Heavy</text>
  <text style="stroke:none;fill:black;font-family:-apple-system,&quot;SF Pro Display&quot;,&quot;SF Pro Text&quot;,Helvetica,sans-serif;text-anchor:middle;" transform="matrix(1 0 0 1 2933.4 322)">Black</text>
  <line id="" style="fill:none;stroke:black;opacity:1;stroke-width:0.5;" x1="263" x2="3036" y1="1903" y2="1903"/>
  <g id="" transform="matrix(1 0 0 1 263 1933)">
   <path d="M 9.24805 0.830078 C 13.5547 0.830078 17.1387 -2.74414 17.1387 -7.05078 C 17.1387 -11.3574 13.5449 -14.9316 9.23828 -14.9316 C 4.94141 -14.9316 1.36719 -11.3574 1.36719 -7.05078 C 1.36719 -2.74414 4.95117 0.830078 9.24805 0.830078 Z M 9.24805 -0.654297 C 5.70312 -0.654297 2.87109 -3.49609 2.87109 -7.05078 C 2.87109 -10.6055 5.69336 -13.4473 9.23828 -13.4473 C 12.793 -13.4473 15.6348 -10.6055 15.6445 -7.05078 C 15.6543 -3.49609 12.8027 -0.654297 9.24805 -0.654297 Z M 9.22852 -3.62305 C 9.69727 -3.62305 9.9707 -3.93555 9.9707 -4.45312 L 9.9707 -6.31836 L 12.002 -6.31836 C 12.5 -6.31836 12.832 -6.57227 12.832 -7.04102 C 12.832 -7.51953 12.5195 -7.7832 12.002 -7.7832 L 9.9707 -7.7832 L 9.9707 -9.81445 C 9.9707 -10.332 9.69727 -10.6543 9.22852 -10.6543 C 8.75977 -10.6543 8.50586 -10.3125 8.50586 -9.81445 L 8.50586 -7.7832 L 6.49414 -7.7832 C 5.97656 -7.7832 5.64453 -7.51953 5.64453 -7.04102 C 5.64453 -6.57227 5.99609 -6.31836 6.49414 -6.31836 L 8.50586 -6.31836 L 8.50586 -4.45312 C 8.50586 -3.95508 8.75977 -3.62305 9.22852 -3.62305 Z"/>
  </g>
  <g id="" transform="matrix(1 0 0 1 281.506 1933)">
   <path d="M 11.709 2.91016 C 17.1582 2.91016 21.6699 -1.61133 21.6699 -7.05078 C 21.6699 -12.5 17.1484 -17.0117 11.6992 -17.0117 C 6.25977 -17.0117 1.74805 -12.5 1.74805 -7.05078 C 1.74805 -1.61133 6.26953 2.91016 11.709 2.91016 Z M 11.709 1.25 C 7.09961 1.25 3.41797 -2.44141 3.41797 -7.05078 C 3.41797 -11.6602 7.08984 -15.3516 11.6992 -15.3516 C 16.3086 -15.3516 20 -11.6602 20.0098 -7.05078 C 20.0195 -2.44141 16.3184 1.25 11.709 1.25 Z M 11.6797 -2.66602 C 12.207 -2.66602 12.5098 -3.01758 12.5098 -3.59375 L 12.5098 -6.23047 L 15.3223 -6.23047 C 15.8691 -6.23047 16.25 -6.51367 16.25 -7.03125 C 16.25 -7.55859 15.8887 -7.86133 15.3223 -7.86133 L 12.5098 -7.86133 L 12.5098 -10.6836 C 12.5098 -11.25 12.207 -11.6113 11.6797 -11.6113 C 11.1621 -11.6113 10.8789 -11.2305 10.8789 -10.6836 L 10.8789 -7.86133 L 8.07617 -7.86133 C 7.50977 -7.86133 7.13867 -7.55859 7.13867 -7.03125 C 7.13867 -6.51367 7.5293 -6.23047 8.07617 -6.23047 L 10.8789 -6.23047 L 10.8789 -3.59375 C 10.8789 -3.03711 11.1621 -2.66602 11.6797 -2.66602 Z"/>
  </g>
  <g id="" transform="matrix(1 0 0 1 304.924 1933)">
   <path d="M 14.9707 5.66406 C 21.9336 5.66406 27.6953 -0.0976562 27.6953 -7.05078 C 27.6953 -14.0137 21.9238 -19.7754 14.9609 -19.7754 C 8.00781 -19.7754 2.25586 -14.0137 2.25586 -7.05078 C 2.25586 -0.0976562 8.01758 5.66406 14.9707 5.66406 Z M 14.9707 3.84766 C 8.93555 3.84766 4.08203 -1.01562 4.08203 -7.05078 C 4.08203 -13.0957 8.92578 -17.9492 14.9609 -17.9492 C 21.0059 -17.9492 25.8594 -13.0957 25.8691 -7.05078 C 25.8789 -1.01562 21.0156 3.84766 14.9707 3.84766 Z M 14.9414 -1.38672 C 15.5176 -1.38672 15.8594 -1.77734 15.8594 -2.38281 L 15.8594 -6.13281 L 19.7754 -6.13281 C 20.3711 -6.13281 20.7812 -6.46484 20.7812 -7.02148 C 20.7812 -7.59766 20.3906 -7.93945 19.7754 -7.93945 L 15.8594 -7.93945 L 15.8594 -11.8652 C 15.8594 -12.4805 15.5176 -12.8711 14.9414 -12.8711 C 14.375 -12.8711 14.0527 -12.4609 14.0527 -11.8652 L 14.0527 -7.93945 L 10.1465 -7.93945 C 9.53125 -7.93945 9.13086 -7.59766 9.13086 -7.02148 C 9.13086 -6.46484 9.55078 -6.13281 10.1465 -6.13281 L 14.0527 -6.13281 L 14.0527 -2.38281 C 14.0527 -1.79688 14.375 -1.38672 14.9414 -1.38672 Z"/>
  </g>
  <text style="stroke:none;fill:black;font-family:-apple-system,&quot;SF Pro Display&quot;,&quot;SF Pro Text&quot;,Helvetica,sans-serif;font-weight:bold;" transform="matrix(1 0 0 1 263 1953)">Design Variations</text>
  <text style="stroke:none;fill:black;font-family:-apple-system,&quot;SF Pro Display&quot;,&quot;SF Pro Text&quot;,Helvetica,sans-serif;" transform="matrix(1 0 0 1 263 1971)">Symbols are supported in up to nine weights and three scales.</text>
  <text style="stroke:none;fill:black;font-family:-apple-system,&quot;SF Pro Display&quot;,&quot;SF Pro Text&quot;,Helvetica,sans-serif;" transform="matrix(1 0 0 1 263 1989)">For optimal layout with text and other symbols, vertically align</text>
  <text style="stroke:none;fill:black;font-family:-apple-system,&quot;SF Pro Display&quot;,&quot;SF Pro Text&quot;,Helvetica,sans-serif;" transform="matrix(1 0 0 1 263 2007)">symbols with the adjacent text.</text>
  <line id="" style="fill:none;stroke:#00AEEF;stroke-width:0.5;opacity:1.0;" x1="776" x2="776" y1="1919" y2="1933"/>
  <g id="" transform="matrix(1 0 0 1 776 1933)">
   <path d="M 3.31055 0.126953 C 3.82812 0.126953 4.08203 -0.0683594 4.26758 -0.605469 L 5.52734 -4.0625 L 11.2891 -4.0625 L 12.5488 -0.605469 C 12.7344 -0.0683594 12.9883 0.126953 13.4961 0.126953 C 14.0137 0.126953 14.3457 -0.185547 14.3457 -0.673828 C 14.3457 -0.839844 14.3164 -0.986328 14.2383 -1.20117 L 9.6582 -13.3887 C 9.43359 -13.9941 9.0332 -14.2871 8.4082 -14.2871 C 7.80273 -14.2871 7.39258 -13.9941 7.17773 -13.3984 L 2.59766 -1.19141 C 2.51953 -0.976562 2.49023 -0.830078 2.49023 -0.664062 C 2.49023 -0.175781 2.80273 0.126953 3.31055 0.126953 Z M 6.00586 -5.53711 L 8.37891 -12.1094 L 8.42773 -12.1094 L 10.8008 -5.53711 Z"/>
  </g>
  <line id="" style="fill:none;stroke:#00AEEF;stroke-width:0.5;opacity:1.0;" x1="792.836" x2="792.836" y1="1919" y2="1933"/>
  <text style="stroke:none;fill:black;font-family:-apple-system,&quot;SF Pro Display&quot;,&quot;SF Pro Text&quot;,Helvetica,sans-serif;font-weight:bold;" transform="matrix(1 0 0 1 776 1953)">Margins</text>
  <text style="stroke:none;fill:black;font-family:-apple-system,&quot;SF Pro Display&quot;,&quot;SF Pro Text&quot;,Helvetica,sans-serif;" transform="matrix(1 0 0 1 776 1971)">Leading and trailing margins on the left and right side of each symbol</text>
  <text style="stroke:none;fill:black;font-family:-apple-system,&quot;SF Pro Display&quot;,&quot;SF Pro Text&quot;,Helvetica,sans-serif;" transform="matrix(1 0 0 1 776 1989)">can be adjusted by modifying the x-location of the margin guidelines.</text>
  <text style="stroke:none;fill:black;font-family:-apple-system,&quot;SF Pro Display&quot;,&quot;SF Pro Text&quot;,Helvetica,sans-serif;" transform="matrix(1 0 0 1 776 2007)">Modifications are automatically applied proportionally to all</text>
  <text style="stroke:none;fill:black;font-family:-apple-system,&quot;SF Pro Display&quot;,&quot;SF Pro Text&quot;,Helvetica,sans-serif;" transform="matrix(1 0 0 1 776 2025)">scales and weights.</text>
  <g id="" transform="matrix(1 0 0 1 1289 1933)">
   <path d="M 2.8418 1.86523 L 4.54102 3.57422 C 5.40039 4.44336 6.38672 4.38477 7.31445 3.35938 L 17.4902 -7.85156 C 17.7539 -7.76367 18.0273 -7.7832 18.3398 -7.8418 L 19.4043 -8.03711 L 20.0684 -7.36328 L 20.0293 -6.80664 C 19.9902 -6.30859 20.1172 -5.92773 20.6055 -5.44922 L 21.3672 -4.70703 C 21.8457 -4.22852 22.4609 -4.19922 22.9297 -4.66797 L 25.8398 -7.58789 C 26.3086 -8.05664 26.2891 -8.65234 25.8105 -9.13086 L 25.0391 -9.89258 C 24.5605 -10.3711 24.1895 -10.5273 23.7109 -10.4883 L 23.1348 -10.4395 L 22.4902 -11.0742 L 22.7344 -12.1973 C 22.8613 -12.7637 22.7051 -13.2031 22.1191 -13.7891 L 19.9219 -15.9766 C 16.582 -19.2969 12.1484 -19.2188 9.25781 -16.3281 C 8.83789 -15.918 8.80859 -15.3418 9.04297 -14.9512 C 9.27734 -14.5898 9.73633 -14.3555 10.3809 -14.5215 C 11.8457 -14.8633 13.3691 -14.9219 14.7949 -13.9844 L 14.209 -12.5293 C 14.0137 -12.0508 13.9844 -11.6504 14.1113 -11.2891 L 3.04688 -0.898438 C 2.06055 0.0195312 1.98242 0.996094 2.8418 1.86523 Z M 10.752 -15.957 C 13.1836 -17.7344 16.4746 -17.4316 18.7012 -15.2051 L 21.1328 -12.793 C 21.3672 -12.5586 21.4062 -12.373 21.3379 -12.0312 L 21.0156 -10.5469 L 22.5195 -9.0625 L 23.5059 -9.12109 C 23.7598 -9.13086 23.8379 -9.11133 24.0332 -8.91602 L 24.6094 -8.33984 L 22.168 -5.89844 L 21.5918 -6.47461 C 21.3965 -6.66992 21.3672 -6.74805 21.377 -7.01172 L 21.4453 -7.98828 L 19.9512 -9.47266 L 18.4277 -9.21875 C 18.1055 -9.15039 17.959 -9.17969 17.7148 -9.41406 L 15.7129 -11.416 C 15.459 -11.6504 15.4297 -11.8164 15.5859 -12.1875 L 16.4648 -14.2773 C 14.9023 -15.7324 12.8711 -16.3574 10.8398 -15.7617 C 10.6836 -15.7227 10.625 -15.8496 10.752 -15.957 Z M 5.27344 2.30469 L 4.10156 1.14258 C 3.63281 0.683594 3.74023 0.341797 4.14062 -0.0195312 L 14.9512 -10.1953 L 16.416 -8.71094 L 6.42578 2.27539 C 6.07422 2.67578 5.74219 2.77344 5.27344 2.30469 Z"/>
  </g>
  <text style="stroke:none;fill:black;font-family:-apple-system,&quot;SF Pro Display&quot;,&quot;SF Pro Text&quot;,Helvetica,sans-serif;font-weight:bold;" transform="matrix(1 0 0 1 1289 1953)">Exporting</text>
  <text style="stroke:none;fill:black;font-family:-apple-system,&quot;SF Pro Display&quot;,&quot;SF Pro Text&quot;,Helvetica,sans-serif;" transform="matrix(1 0 0 1 1289 1971)">Symbols should be outlined when exporting to ensure the</text>
  <text style="stroke:none;fill:black;font-family:-apple-system,&quot;SF Pro Display&quot;,&quot;SF Pro Text&quot;,Helvetica,sans-serif;" transform="matrix(1 0 0 1 1289 1989)">design is preserved when submitting to Xcode.</text>
  <text id="template-version" style="stroke:none;fill:black;font-family:-apple-system,&quot;SF Pro Display&quot;,&quot;SF Pro Text&quot;,Helvetica,sans-serif;text-anchor:end;" transform="matrix(1 0 0 1 3036 1933)">Template v.2.0</text>
  <text style="stroke:none;fill:black;font-family:-apple-system,&quot;SF Pro Display&quot;,&quot;SF Pro Text&quot;,Helvetica,sans-serif;text-anchor:end;" transform="matrix(1 0 0 1 3036 1951)">Requires Xcode 12 or greater</text>
  <text style="stroke:none;fill:black;font-family:-apple-system,&quot;SF Pro Display&quot;,&quot;SF Pro Text&quot;,Helvetica,sans-serif;text-anchor:end;" transform="matrix(1 0 0 1 3036 1969)">Generated from triangle.righthalf.fill</text>
  <text style="stroke:none;fill:black;font-family:-apple-system,&quot;SF Pro Display&quot;,&quot;SF Pro Text&quot;,Helvetica,sans-serif;text-anchor:end;" transform="matrix(1 0 0 1 3036 1987)">Typeset at 100 points</text>
  <text style="stroke:none;fill:black;font-family:-apple-system,&quot;SF Pro Display&quot;,&quot;SF Pro Text&quot;,Helvetica,sans-serif;" transform="matrix(1 0 0 1 263 726)">Small</text>
  <text style="stroke:none;fill:black;font-family:-apple-system,&quot;SF Pro Display&quot;,&quot;SF Pro Text&quot;,Helvetica,sans-serif;" transform="matrix(1 0 0 1 263 1156)">Medium</text>
  <text style="stroke:none;fill:black;font-family:-apple-system,&quot;SF Pro Display&quot;,&quot;SF Pro Text&quot;,Helvetica,sans-serif;" transform="matrix(1 0 0 1 263 1586)">Large</text>
 </g>
 <g id="Guides">
  <g id="H-reference" style="fill:#27AAE1;stroke:none;" transform="matrix(1 0 0 1 339 696)">
   <path d="M 0.976562 0 L 3.66211 0 L 12.9883 -24.4629 L 45.7031 -24.4629 L 55.0781 0 L 57.7148 0 L 30.6152 -70.459 L 28.125 -70.459 Z M 29.2969 -67.1387 L 29.3945 -67.1387 L 44.873 -26.709 L 13.8672 -26.709 Z"/>
  </g>
  <line id="Baseline-S" style="fill:none;stroke:#27AAE1;opacity:1;stroke-width:0.5;" x1="263" x2="3036" y1="696" y2="696"/>
  <line id="Capline-S" style="fill:none;stroke:#27AAE1;opacity:1;stroke-width:0.5;" x1="263" x2="3036" y1="625.541" y2="625.541"/>
  <g id="H-reference" style="fill:#27AAE1;stroke:none;" transform="matrix(1 0 0 1 339 1126)">
   <path d="M 0.976562 0 L 3.66211 0 L 12.9883 -24.4629 L 45.7031 -24.4629 L 55.0781 0 L 57.7148 0 L 30.6152 -70.459 L 28.125 -70.459 Z M 29.2969 -67.1387 L 29.3945 -67.1387 L 44.873 -26.709 L 13.8672 -26.709 Z"/>
  </g>
  <line id="Baseline-M" style="fill:none;stroke:#27AAE1;opacity:1;stroke-width:0.5;" x1="263" x2="3036" y1="1126" y2="1126"/>
  <line id="Capline-M" style="fill:none;stroke:#27AAE1;opacity:1;stroke-width:0.5;" x1="263" x2="3036" y1="1055.54" y2="1055.54"/>
  <g id="H-reference" style="fill:#27AAE1;stroke:none;" transform="matrix(1 0 0 1 339 1556)">
   <path d="M 0.976562 0 L 3.66211 0 L 12.9883 -24.4629 L 45.7031 -24.4629 L 55.0781 0 L 57.7148 0 L 30.6152 -70.459 L 28.125 -70.459 Z M 29.2969 -67.1387 L 29.3945 -67.1387 L 44.873 -26.709 L 13.8672 -26.709 Z"/>
  </g>
  <line id="Baseline-L" style="fill:none;stroke:#27AAE1;opacity:1;stroke-width:0.5;" x1="263" x2="3036" y1="1556" y2="1556"/>
  <line id="Capline-L" style="fill:none;stroke:#27AAE1;opacity:1;stroke-width:0.5;" x1="263" x2="3036" y1="1485.54" y2="1485.54"/>
  <line id="left-margin" style="fill:none;stroke:#00AEEF;stroke-width:0.5;opacity:1.0;" x1="1388.83" x2="1388.83" y1="1030.79" y2="1150.12"/>
  <line id="right-margin" style="fill:none;stroke:#00AEEF;stroke-width:0.5;opacity:1.0;" x1="1510.86" x2="1510.86" y1="1030.79" y2="1150.12"/>
 </g>
 <g id="Symbols">
  <g id="Black-L" transform="matrix(1 0 0 1 2851.95 1556)">
   <path d="M 129.541 28.2715 C 141.699 28.2715 150 18.7012 150 7.76367 C 150 4.3457 149.121 0.927734 147.363 -2.29492 L 99.1699 -86.5234 C 95.2637 -93.3105 88.3789 -96.8262 81.3965 -96.8262 C 74.4629 -96.8262 67.7246 -93.457 63.7695 -86.5234 L 15.5762 -2.34375 C 13.7207 0.878906 12.8906 4.3457 12.8906 7.76367 C 12.8906 18.7012 21.1914 28.2715 33.3008 28.2715 Z M 37.8418 9.32617 C 35.5469 9.32617 33.9355 7.37305 33.9355 5.22461 C 33.9355 4.73633 34.082 3.95508 34.4238 3.32031 L 78.125 -73.8281 C 78.8086 -75 80.127 -75.5859 81.3965 -75.5859 L 81.3965 9.32617 Z"/>
  </g>
  <g id="Heavy-L" transform="matrix(1 0 0 1 2555.98 1556)">
   <path d="M 128.955 27.2461 C 140.625 27.2461 148.535 18.1641 148.535 7.61719 C 148.535 4.39453 147.705 1.07422 145.996 -2.00195 L 97.6562 -86.4746 C 93.9453 -92.9688 87.3535 -96.3379 80.7129 -96.3379 C 74.0234 -96.3379 67.5781 -93.0664 63.8184 -86.4746 L 15.4785 -2.05078 C 13.6719 1.02539 12.8906 4.39453 12.8906 7.61719 C 12.8906 18.1641 20.8008 27.2461 32.4219 27.2461 Z M 35.9375 10.7422 C 33.0078 10.7422 31.0547 8.34961 31.0547 5.71289 C 31.0547 5.0293 31.2012 4.10156 31.6406 3.27148 L 76.5625 -75.8301 C 77.4414 -77.3926 79.0527 -78.0762 80.7129 -78.0762 L 80.7129 10.7422 Z"/>
  </g>
  <g id="Bold-L" transform="matrix(1 0 0 1 2260.09 1556)">
   <path d="M 128.271 26.123 C 139.453 26.123 146.875 17.5781 146.875 7.4707 C 146.875 4.39453 146.094 1.26953 144.482 -1.66016 L 95.9473 -86.4746 C 92.4316 -92.627 86.1816 -95.8496 79.8828 -95.8496 C 73.584 -95.8496 67.4316 -92.6758 63.8672 -86.4746 L 15.332 -1.70898 C 13.6719 1.2207 12.8906 4.39453 12.8906 7.4707 C 12.8906 17.5781 20.3125 26.123 31.4453 26.123 Z M 33.7891 12.4023 C 30.2246 12.4023 27.7832 9.47266 27.7832 6.20117 C 27.7832 5.32227 28.0273 4.19922 28.5645 3.22266 L 74.7559 -78.0273 C 75.8789 -80.0293 77.8809 -80.9082 79.8828 -80.9082 L 79.8828 12.4023 Z"/>
  </g>
  <g id="Semibold-L" transform="matrix(1 0 0 1 1963.95 1556)">
   <path d="M 127.832 25.3418 C 138.672 25.3418 145.752 17.1387 145.752 7.37305 C 145.752 4.39453 145.02 1.36719 143.408 -1.41602 L 94.7754 -86.4258 C 91.4062 -92.3828 85.3516 -95.459 79.2969 -95.459 C 73.2422 -95.459 67.2852 -92.3828 63.8672 -86.4258 L 15.2832 -1.46484 C 13.6719 1.36719 12.8906 4.39453 12.8906 7.37305 C 12.8906 17.1387 19.9707 25.3418 30.7617 25.3418 Z M 32.3242 13.5254 C 28.2715 13.5254 25.5371 10.2051 25.5371 6.54297 C 25.5371 5.51758 25.7812 4.29688 26.416 3.17383 L 73.5352 -79.5898 C 74.8047 -81.8359 77.0508 -82.8613 79.2969 -82.8613 L 79.2969 13.5254 Z"/>
  </g>
  <g id="Medium-L" transform="matrix(1 0 0 1 1667.65 1556)">
   <path d="M 127.49 24.707 C 138.037 24.707 144.922 16.8457 144.922 7.27539 C 144.922 4.39453 144.189 1.46484 142.627 -1.2207 L 93.8965 -86.4258 C 90.625 -92.1875 84.7656 -95.2148 78.9062 -95.2148 C 72.998 -95.2148 67.1875 -92.1875 63.916 -86.4258 L 15.2344 -1.26953 C 13.623 1.46484 12.8906 4.39453 12.8906 7.27539 C 12.8906 16.8457 19.7266 24.707 30.2734 24.707 Z M 31.2012 14.3555 C 26.8066 14.3555 23.8281 10.791 23.8281 6.83594 C 23.8281 5.71289 24.1211 4.3457 24.8047 3.125 L 72.6074 -80.7617 C 73.9746 -83.2031 76.416 -84.3262 78.9062 -84.3262 L 78.9062 14.3555 Z"/>
  </g>
  <g id="Regular-L" transform="matrix(1 0 0 1 1371.5 1556)">
   <path d="M 127.051 23.9258 C 137.256 23.9258 143.799 16.4551 143.799 7.17773 C 143.799 4.44336 143.066 1.61133 141.553 -0.976562 L 92.7246 -86.377 C 89.5996 -91.9434 83.9355 -94.8242 78.3203 -94.8242 C 72.6562 -94.8242 67.0898 -91.9434 63.9648 -86.377 L 15.1367 -1.07422 C 13.623 1.5625 12.8906 4.44336 12.8906 7.17773 C 12.8906 16.4551 19.3848 23.9258 29.5898 23.9258 Z M 29.7363 15.4785 C 24.9023 15.4785 21.582 11.5234 21.582 7.17773 C 21.582 5.9082 21.9238 4.44336 22.7051 3.07617 L 71.3867 -82.2754 C 72.9492 -85.0098 75.5859 -86.2305 78.3203 -86.2305 L 78.3203 15.4785 Z"/>
  </g>
  <g id="Light-L" transform="matrix(1 0 0 1 1075.37 1556)">
   <path d="M 126.807 23.4863 C 136.328 23.4863 142.627 16.2109 142.627 7.61719 C 142.627 4.98047 141.992 2.29492 140.576 -0.146484 L 91.4062 -86.5234 C 88.4277 -91.748 83.0566 -94.4824 77.7344 -94.4824 C 72.3633 -94.4824 67.0898 -91.748 64.1113 -86.5234 L 14.9902 -0.244141 C 13.5254 2.29492 12.8906 4.98047 12.8906 7.61719 C 12.8906 16.2109 19.1406 23.4863 28.6621 23.4863 Z M 28.7598 16.9434 C 23.3887 16.9434 19.6289 12.5 19.6289 7.61719 C 19.6289 6.15234 20.0195 4.49219 20.8496 2.92969 L 69.873 -83.3984 C 71.6309 -86.4746 74.6094 -87.8906 77.7344 -87.8906 L 77.7344 16.9434 Z"/>
  </g>
  <g id="Thin-L" transform="matrix(1 0 0 1 779.445 1556)">
   <path d="M 126.465 22.8516 C 135.059 22.8516 141.064 15.8691 141.064 8.1543 C 141.064 5.71289 140.527 3.22266 139.258 1.02539 L 89.5996 -86.6699 C 86.8652 -91.5527 81.8359 -94.043 76.9531 -94.043 C 72.0215 -94.043 67.0898 -91.5527 64.3555 -86.6699 L 14.7949 0.878906 C 13.4277 3.22266 12.8906 5.71289 12.8906 8.1543 C 12.8906 15.8691 18.8477 22.8516 27.4414 22.8516 Z M 27.5391 18.8965 C 21.3379 18.8965 16.9434 13.8184 16.9434 8.1543 C 16.9434 6.44531 17.4316 4.54102 18.457 2.73438 L 67.8711 -84.8145 C 69.873 -88.3789 73.291 -90.0391 76.9531 -90.0391 L 76.9531 18.8965 Z"/>
  </g>
  <g id="Ultralight-L" transform="matrix(1 0 0 1 483.124 1556)">
   <path d="M 126.27 22.5586 C 134.424 22.5586 140.283 15.7227 140.283 8.44727 C 140.283 6.10352 139.746 3.71094 138.574 1.61133 L 88.6719 -86.7676 C 86.084 -91.4062 81.2012 -93.7988 76.5625 -93.7988 C 71.8262 -93.7988 67.0898 -91.4062 64.502 -86.7676 L 14.6973 1.41602 C 13.3301 3.71094 12.8906 6.10352 12.8906 8.44727 C 12.8906 15.7227 18.7012 22.5586 26.8066 22.5586 Z M 26.9043 19.9219 C 20.2637 19.9219 15.625 14.502 15.625 8.44727 C 15.625 6.64062 16.1133 4.54102 17.1875 2.63672 L 66.8457 -85.5469 C 68.9941 -89.4043 72.6562 -91.1133 76.5625 -91.1133 L 76.5625 19.9219 Z"/>
  </g>
  <g id="Black-M" transform="matrix(1 0 0 1 2869.63 1126)">
   <path d="M 101.025 15.1367 C 110.693 15.1367 117.578 7.17773 117.578 -1.51367 C 117.578 -4.24805 116.895 -7.08008 115.479 -9.61914 L 78.125 -75.0977 C 75 -80.6152 69.3848 -83.3984 63.7207 -83.3984 C 58.1055 -83.3984 52.6855 -80.7129 49.4141 -75.0977 L 12.0605 -9.7168 C 10.5957 -7.08008 9.96094 -4.24805 9.96094 -1.51367 C 9.96094 7.17773 16.8457 15.1367 26.4648 15.1367 Z M 31.3965 -1.9043 C 30.0293 -1.9043 29.1504 -2.97852 29.1504 -4.24805 C 29.1504 -4.49219 29.1992 -4.98047 29.3945 -5.32227 L 61.8652 -62.9883 C 62.207 -63.6719 63.0371 -63.9648 63.7207 -63.9648 L 63.7207 -1.9043 Z"/>
  </g>
  <g id="Heavy-M" transform="matrix(1 0 0 1 2573.58 1126)">
   <path d="M 100.439 14.1113 C 109.766 14.1113 116.26 6.64062 116.26 -1.75781 C 116.26 -4.39453 115.625 -7.08008 114.209 -9.52148 L 76.8066 -75.0488 C 73.8281 -80.2734 68.457 -83.0078 63.0859 -83.0078 C 57.7148 -83.0078 52.4902 -80.3711 49.4141 -75.0488 L 12.0117 -9.57031 C 10.5957 -7.08008 9.96094 -4.39453 9.96094 -1.75781 C 9.96094 6.64062 16.4551 14.1113 25.7324 14.1113 Z M 29.541 -0.683594 C 27.7344 -0.683594 26.4648 -2.19727 26.4648 -3.85742 C 26.4648 -4.24805 26.5625 -4.88281 26.8555 -5.37109 L 60.498 -64.8926 C 61.0352 -65.8691 62.1094 -66.3086 63.0859 -66.3086 L 63.0859 -0.683594 Z"/>
  </g>
  <g id="Bold-M" transform="matrix(1 0 0 1 2277.58 1126)">
   <path d="M 99.8047 12.9883 C 108.789 12.9883 114.844 6.05469 114.844 -2.05078 C 114.844 -4.54102 114.209 -7.08008 112.842 -9.42383 L 75.3906 -74.9512 C 72.5098 -79.9316 67.4805 -82.5195 62.3535 -82.5195 C 57.2754 -82.5195 52.2949 -79.9805 49.4141 -74.9512 L 11.9141 -9.47266 C 10.5957 -7.08008 9.96094 -4.54102 9.96094 -2.05078 C 9.96094 6.05469 16.0156 12.9883 24.9512 12.9883 Z M 27.4414 0.683594 C 25.0977 0.683594 23.4863 -1.26953 23.4863 -3.41797 C 23.4863 -4.00391 23.6328 -4.73633 23.9746 -5.41992 L 59.0332 -67.041 C 59.7168 -68.3105 61.0352 -68.8965 62.3535 -68.8965 L 62.3535 0.683594 Z"/>
  </g>
  <g id="Semibold-M" transform="matrix(1 0 0 1 1981.38 1126)">
   <path d="M 99.3652 12.2559 C 108.105 12.2559 113.818 5.66406 113.818 -2.24609 C 113.818 -4.63867 113.184 -7.08008 111.914 -9.32617 L 74.3652 -74.9023 C 71.6309 -79.6875 66.7969 -82.1777 61.8652 -82.1777 C 56.9824 -82.1777 52.1973 -79.7363 49.4141 -74.9023 L 11.8652 -9.375 C 10.5957 -7.12891 9.96094 -4.63867 9.96094 -2.24609 C 9.96094 5.66406 15.6738 12.2559 24.4141 12.2559 Z M 26.0254 1.61133 C 23.291 1.61133 21.4355 -0.634766 21.4355 -3.125 C 21.4355 -3.80859 21.6309 -4.63867 22.0215 -5.41992 L 57.959 -68.5059 C 58.8379 -70.0195 60.3516 -70.7031 61.8652 -70.7031 L 61.8652 1.61133 Z"/>
  </g>
  <g id="Medium-M" transform="matrix(1 0 0 1 1685.06 1126)">
   <path d="M 99.0234 11.6699 C 107.568 11.6699 113.037 5.37109 113.037 -2.39258 C 113.037 -4.73633 112.451 -7.08008 111.182 -9.27734 L 73.584 -74.8535 C 70.9473 -79.4922 66.2598 -81.9336 61.5234 -81.9336 C 56.7383 -81.9336 52.0996 -79.541 49.4141 -74.8535 L 11.8164 -9.32617 C 10.5957 -7.12891 9.96094 -4.73633 9.96094 -2.39258 C 9.96094 5.37109 15.4297 11.6699 23.9746 11.6699 Z M 24.9512 2.29492 C 21.9238 2.29492 19.873 -0.195312 19.873 -2.88086 C 19.873 -3.66211 20.0684 -4.58984 20.5566 -5.41992 L 57.1777 -69.6289 C 58.1543 -71.2891 59.8145 -72.0703 61.5234 -72.0703 L 61.5234 2.29492 Z"/>
  </g>
  <g id="Regular-M" transform="matrix(1 0 0 1 1388.83 1126)">
   <path d="M 98.584 10.8887 C 106.885 10.8887 112.061 4.93164 112.061 -2.58789 C 112.061 -4.83398 111.475 -7.08008 110.254 -9.17969 L 72.6074 -74.8047 C 70.0684 -79.248 65.5762 -81.6406 60.9863 -81.6406 C 56.4453 -81.6406 51.9531 -79.248 49.4141 -74.8047 L 11.7676 -9.22852 C 10.5957 -7.12891 9.96094 -4.83398 9.96094 -2.58789 C 9.96094 4.93164 15.1367 10.8887 23.4375 10.8887 Z M 23.5352 3.22266 C 20.166 3.22266 17.8711 0.439453 17.8711 -2.58789 C 17.8711 -3.4668 18.0664 -4.49219 18.6035 -5.46875 L 56.1523 -71.0938 C 57.2266 -72.998 59.082 -73.8281 60.9863 -73.8281 L 60.9863 3.22266 Z"/>
  </g>
  <g id="Light-M" transform="matrix(1 0 0 1 1092.64 1126)">
   <path d="M 98.3398 10.498 C 106.006 10.498 111.035 4.73633 111.035 -2.24609 C 111.035 -4.29688 110.498 -6.44531 109.375 -8.39844 L 71.3867 -74.9023 C 68.9941 -79.1016 64.7461 -81.2988 60.498 -81.2988 C 56.2012 -81.2988 51.9531 -79.1016 49.6094 -74.9023 L 11.6699 -8.49609 C 10.498 -6.49414 9.96094 -4.29688 9.96094 -2.24609 C 9.96094 4.73633 14.9414 10.498 22.6074 10.498 Z M 22.7051 4.54102 C 18.7988 4.54102 16.0645 1.31836 16.0645 -2.24609 C 16.0645 -3.27148 16.3574 -4.49219 16.9434 -5.56641 L 54.7852 -72.0703 C 56.0547 -74.2676 58.2031 -75.293 60.498 -75.293 L 60.498 4.54102 Z"/>
  </g>
  <g id="Thin-M" transform="matrix(1 0 0 1 796.608 1126)">
   <path d="M 98.0469 9.91211 C 104.932 9.91211 109.668 4.44336 109.668 -1.70898 C 109.668 -3.66211 109.18 -5.61523 108.203 -7.37305 L 69.7754 -75.0977 C 67.627 -78.9062 63.623 -80.9082 59.7656 -80.9082 C 55.8594 -80.9082 51.9531 -78.9062 49.8047 -75.0977 L 11.4746 -7.4707 C 10.4004 -5.61523 9.96094 -3.66211 9.96094 -1.70898 C 9.96094 4.44336 14.6484 9.91211 21.4844 9.91211 Z M 21.582 6.29883 C 16.9434 6.29883 13.6719 2.49023 13.6719 -1.70898 C 13.6719 -2.97852 14.0137 -4.44336 14.7949 -5.76172 L 52.9785 -73.3398 C 54.4922 -76.0254 57.0801 -77.2461 59.7656 -77.2461 L 59.7656 6.29883 Z"/>
  </g>
  <g id="Ultralight-M" transform="matrix(1 0 0 1 500.263 1126)">
   <path d="M 97.9004 9.66797 C 104.346 9.66797 108.936 4.29688 108.936 -1.46484 C 108.936 -3.32031 108.496 -5.17578 107.568 -6.83594 L 68.9941 -75.1465 C 66.9434 -78.8086 63.0859 -80.6641 59.4238 -80.6641 C 55.7129 -80.6641 51.9531 -78.8086 49.9023 -75.1465 L 11.377 -6.98242 C 10.3516 -5.17578 9.96094 -3.32031 9.96094 -1.46484 C 9.96094 4.29688 14.502 9.66797 20.9473 9.66797 Z M 20.9961 7.17773 C 16.0156 7.17773 12.5 3.125 12.5 -1.46484 C 12.5 -2.83203 12.8418 -4.39453 13.6719 -5.85938 L 52.0996 -74.0234 C 53.7109 -76.9043 56.4453 -78.2227 59.4238 -78.2227 L 59.4238 7.17773 Z"/>
  </g>
  <g id="Black-S" transform="matrix(1 0 0 1 2883.47 696)">
   <path d="M 79.1016 4.15039 C 86.6699 4.15039 92.041 -2.05078 92.041 -8.83789 C 92.041 -10.9863 91.5039 -13.1836 90.3809 -15.1855 L 61.1328 -66.4551 C 58.6914 -70.752 54.2969 -72.9492 49.9023 -72.9492 C 45.5078 -72.9492 41.2598 -70.8496 38.7207 -66.4551 L 9.47266 -15.2344 C 8.30078 -13.1836 7.8125 -10.9863 7.8125 -8.83789 C 7.8125 -2.05078 13.1836 4.15039 20.7031 4.15039 Z M 24.4629 -9.0332 C 23.3887 -9.0332 22.6562 -9.91211 22.6562 -10.9375 C 22.6562 -11.1328 22.7051 -11.5234 22.8516 -11.8164 L 48.3887 -57.1289 C 48.6816 -57.666 49.3164 -57.9102 49.9023 -57.9102 L 49.9023 -9.0332 Z"/>
  </g>
  <g id="Heavy-S" transform="matrix(1 0 0 1 2587.2 696)">
   <path d="M 78.7109 3.41797 C 86.084 3.41797 91.1621 -2.44141 91.1621 -9.08203 C 91.1621 -11.1328 90.625 -13.2324 89.5508 -15.1855 L 60.2539 -66.4062 C 57.9102 -70.5078 53.7109 -72.6562 49.4629 -72.6562 C 45.2148 -72.6562 41.1133 -70.6055 38.7207 -66.4062 L 9.42383 -15.2344 C 8.30078 -13.2812 7.8125 -11.1328 7.8125 -9.08203 C 7.8125 -2.44141 12.8906 3.41797 20.2637 3.41797 Z M 23.1445 -8.25195 C 21.7773 -8.25195 20.8008 -9.375 20.8008 -10.6934 C 20.8008 -10.9863 20.8984 -11.4258 21.0938 -11.8164 L 47.5098 -58.4961 C 47.9004 -59.1797 48.7305 -59.5215 49.4629 -59.5215 L 49.4629 -8.25195 Z"/>
  </g>
  <g id="Bold-S" transform="matrix(1 0 0 1 2290.98 696)">
   <path d="M 78.2227 2.63672 C 85.4004 2.63672 90.1855 -2.83203 90.1855 -9.32617 C 90.1855 -11.3281 89.6484 -13.3301 88.623 -15.1855 L 59.3262 -66.3086 C 57.0312 -70.2637 53.0273 -72.3633 48.9746 -72.3633 C 44.9219 -72.3633 41.0156 -70.3125 38.6719 -66.3086 L 9.375 -15.2344 C 8.30078 -13.3301 7.8125 -11.3281 7.8125 -9.32617 C 7.8125 -2.83203 12.5977 2.63672 19.7266 2.63672 Z M 21.6797 -7.37305 C 19.9219 -7.37305 18.75 -8.83789 18.75 -10.4004 C 18.75 -10.791 18.8477 -11.3281 19.0918 -11.8164 L 46.5332 -60.0098 C 47.0703 -60.9375 48.0469 -61.3281 48.9746 -61.3281 L 48.9746 -7.37305 Z"/>
  </g>
  <g id="Semibold-S" transform="matrix(1 0 0 1 1994.61 696)">
   <path d="M 77.9297 2.09961 C 84.9609 2.09961 89.502 -3.125 89.502 -9.52148 C 89.502 -11.4258 89.0137 -13.3789 87.9395 -15.1855 L 58.6426 -66.2598 C 56.4453 -70.1172 52.5879 -72.1191 48.6328 -72.1191 C 44.7266 -72.1191 40.8691 -70.1172 38.6719 -66.2598 L 9.375 -15.2344 C 8.34961 -13.4277 7.8125 -11.4258 7.8125 -9.52148 C 7.8125 -3.125 12.3535 2.09961 19.3848 2.09961 Z M 20.6543 -6.78711 C 18.7012 -6.78711 17.334 -8.39844 17.334 -10.2051 C 17.334 -10.6934 17.4805 -11.2793 17.7734 -11.8164 L 45.8496 -61.0352 C 46.4355 -62.1094 47.5586 -62.5977 48.6328 -62.5977 L 48.6328 -6.78711 Z"/>
  </g>
  <g id="Medium-S" transform="matrix(1 0 0 1 1698.17 696)">
   <path d="M 77.6855 1.66016 C 84.6191 1.66016 88.9648 -3.36914 88.9648 -9.66797 C 88.9648 -11.5234 88.4766 -13.4277 87.4512 -15.1855 L 58.1543 -66.2109 C 56.0059 -69.9707 52.2461 -71.9727 48.3887 -71.9727 C 44.5312 -71.9727 40.8203 -69.9707 38.6719 -66.2109 L 9.32617 -15.2344 C 8.34961 -13.4766 7.8125 -11.5234 7.8125 -9.66797 C 7.8125 -3.36914 12.207 1.66016 19.1406 1.66016 Z M 19.873 -6.34766 C 17.7246 -6.34766 16.2598 -8.10547 16.2598 -10.0586 C 16.2598 -10.5957 16.4062 -11.2305 16.6992 -11.8164 L 45.3125 -61.8164 C 45.9961 -62.9883 47.2168 -63.5254 48.3887 -63.5254 L 48.3887 -6.34766 Z"/>
  </g>
  <g id="Regular-S" transform="matrix(1 0 0 1 1401.77 696)">
   <path d="M 77.3438 1.12305 C 84.1309 1.12305 88.3301 -3.66211 88.3301 -9.86328 C 88.3301 -11.6211 87.8418 -13.4766 86.8164 -15.2344 L 57.4707 -66.1621 C 55.4199 -69.8242 51.7578 -71.7285 48.0469 -71.7285 C 44.3359 -71.7285 40.7227 -69.8242 38.6719 -66.1621 L 9.32617 -15.2344 C 8.34961 -13.5254 7.8125 -11.6211 7.8125 -9.86328 C 7.8125 -3.66211 11.9629 1.12305 18.75 1.12305 Z M 18.8477 -5.76172 C 16.5039 -5.76172 14.8438 -7.71484 14.8438 -9.86328 C 14.8438 -10.4492 14.9902 -11.1816 15.3809 -11.8164 L 44.6777 -62.8418 C 45.4102 -64.1602 46.7285 -64.7949 48.0469 -64.7949 L 48.0469 -5.76172 Z"/>
  </g>
  <g id="Light-S" transform="matrix(1 0 0 1 1105.53 696)">
   <path d="M 77.1484 0.732422 C 83.3984 0.732422 87.4023 -3.85742 87.4023 -9.52148 C 87.4023 -11.1816 86.9629 -12.9395 86.0352 -14.502 L 56.3965 -66.2598 C 54.4922 -69.6777 51.0254 -71.4355 47.6074 -71.4355 C 44.1406 -71.4355 40.7227 -69.6777 38.8184 -66.2598 L 9.17969 -14.5508 C 8.25195 -12.9395 7.8125 -11.1816 7.8125 -9.52148 C 7.8125 -3.85742 11.7676 0.732422 18.0176 0.732422 Z M 18.1152 -4.58984 C 15.2344 -4.58984 13.2812 -6.93359 13.2812 -9.52148 C 13.2812 -10.2539 13.4766 -11.1328 13.916 -11.9629 L 43.457 -63.7207 C 44.3848 -65.332 45.9473 -66.0645 47.6074 -66.0645 L 47.6074 -4.58984 Z"/>
  </g>
  <g id="Thin-S" transform="matrix(1 0 0 1 809.425 696)">
   <path d="M 76.9043 0.244141 C 82.4219 0.244141 86.1816 -4.10156 86.1816 -9.08203 C 86.1816 -10.6445 85.791 -12.207 85.0098 -13.623 L 54.9805 -66.4062 C 53.2715 -69.4824 50.0977 -71.0938 46.9727 -71.0938 C 43.8477 -71.0938 40.7227 -69.4824 38.9648 -66.4062 L 9.0332 -13.6719 C 8.1543 -12.207 7.8125 -10.6445 7.8125 -9.08203 C 7.8125 -4.10156 11.5234 0.244141 17.0898 0.244141 Z M 17.1387 -3.02734 C 13.623 -3.02734 11.1816 -5.9082 11.1816 -9.08203 C 11.1816 -10.0098 11.4258 -11.1328 12.0117 -12.1094 L 41.8945 -64.8438 C 43.0176 -66.8457 44.9219 -67.7734 46.9727 -67.7734 L 46.9727 -3.02734 Z"/>
  </g>
  <g id="Ultralight-S" transform="matrix(1 0 0 1 513.031 696)">
   <path d="M 76.7578 0 C 81.8848 0 85.5469 -4.19922 85.5469 -8.83789 C 85.5469 -10.3027 85.2051 -11.8164 84.4727 -13.1348 L 54.248 -66.5039 C 52.6367 -69.3848 49.5605 -70.8984 46.6309 -70.8984 C 43.7012 -70.8984 40.7227 -69.3848 39.1113 -66.5039 L 8.93555 -13.2324 C 8.10547 -11.8164 7.8125 -10.3027 7.8125 -8.83789 C 7.8125 -4.19922 11.4258 0 16.5527 0 Z M 16.6016 -2.24609 C 12.793 -2.24609 10.1074 -5.37109 10.1074 -8.83789 C 10.1074 -9.91211 10.4004 -11.084 11.0352 -12.207 L 41.0645 -65.4297 C 42.2852 -67.627 44.3848 -68.6523 46.6309 -68.6523 L 46.6309 -2.24609 Z"/>
  </g>
 </g>
</svg>
