<?xml version="1.0" encoding="UTF-8"?>
<!--Generator: Apple Native CoreSVG 148-->
<!DOCTYPE svg
PUBLIC "-//W3C//DTD SVG 1.1//EN"
       "http://www.w3.org/Graphics/SVG/1.1/DTD/svg11.dtd">
<svg version="1.1" xmlns="http://www.w3.org/2000/svg" xmlns:xlink="http://www.w3.org/1999/xlink" width="3300" height="2200">
 <!--glyph: "uni1005E3.medium", point size: 100.000000, font version: "Version 16.0d11e1", template writer version: "8"-->
 <g id="Notes">
  <rect height="2200" id="artboard" style="fill:white;opacity:1" width="3300" x="0" y="0"/>
  <line id="" style="fill:none;stroke:black;opacity:1;stroke-width:0.5;" x1="263" x2="3036" y1="292" y2="292"/>
  <text style="stroke:none;fill:black;font-family:-apple-system,&quot;SF Pro Display&quot;,&quot;SF Pro Text&quot;,Helvetica,sans-serif;font-weight:bold;" transform="matrix(1 0 0 1 263 322)">Weight/Scale Variations</text>
  <text style="stroke:none;fill:black;font-family:-apple-system,&quot;SF Pro Display&quot;,&quot;SF Pro Text&quot;,Helvetica,sans-serif;text-anchor:middle;" transform="matrix(1 0 0 1 559.711 322)">Ultralight</text>
  <text style="stroke:none;fill:black;font-family:-apple-system,&quot;SF Pro Display&quot;,&quot;SF Pro Text&quot;,Helvetica,sans-serif;text-anchor:middle;" transform="matrix(1 0 0 1 856.422 322)">Thin</text>
  <text style="stroke:none;fill:black;font-family:-apple-system,&quot;SF Pro Display&quot;,&quot;SF Pro Text&quot;,Helvetica,sans-serif;text-anchor:middle;" transform="matrix(1 0 0 1 1153.13 322)">Light</text>
  <text style="stroke:none;fill:black;font-family:-apple-system,&quot;SF Pro Display&quot;,&quot;SF Pro Text&quot;,Helvetica,sans-serif;text-anchor:middle;" transform="matrix(1 0 0 1 1449.84 322)">Regular</text>
  <text style="stroke:none;fill:black;font-family:-apple-system,&quot;SF Pro Display&quot;,&quot;SF Pro Text&quot;,Helvetica,sans-serif;text-anchor:middle;" transform="matrix(1 0 0 1 1746.56 322)">Medium</text>
  <text style="stroke:none;fill:black;font-family:-apple-system,&quot;SF Pro Display&quot;,&quot;SF Pro Text&quot;,Helvetica,sans-serif;text-anchor:middle;" transform="matrix(1 0 0 1 2043.27 322)">Semibold</text>
  <text style="stroke:none;fill:black;font-family:-apple-system,&quot;SF Pro Display&quot;,&quot;SF Pro Text&quot;,Helvetica,sans-serif;text-anchor:middle;" transform="matrix(1 0 0 1 2339.98 322)">Bold</text>
  <text style="stroke:none;fill:black;font-family:-apple-system,&quot;SF Pro Display&quot;,&quot;SF Pro Text&quot;,Helvetica,sans-serif;text-anchor:middle;" transform="matrix(1 0 0 1 2636.69 322)">Heavy</text>
  <text style="stroke:none;fill:black;font-family:-apple-system,&quot;SF Pro Display&quot;,&quot;SF Pro Text&quot;,Helvetica,sans-serif;text-anchor:middle;" transform="matrix(1 0 0 1 2933.4 322)">Black</text>
  <line id="" style="fill:none;stroke:black;opacity:1;stroke-width:0.5;" x1="263" x2="3036" y1="1903" y2="1903"/>
  <g id="" transform="matrix(1 0 0 1 263 1933)">
   <path d="M 9.24805 0.830078 C 13.5547 0.830078 17.1387 -2.74414 17.1387 -7.05078 C 17.1387 -11.3574 13.5449 -14.9316 9.23828 -14.9316 C 4.94141 -14.9316 1.36719 -11.3574 1.36719 -7.05078 C 1.36719 -2.74414 4.95117 0.830078 9.24805 0.830078 Z M 9.24805 -0.654297 C 5.70312 -0.654297 2.87109 -3.49609 2.87109 -7.05078 C 2.87109 -10.6055 5.69336 -13.4473 9.23828 -13.4473 C 12.793 -13.4473 15.6348 -10.6055 15.6445 -7.05078 C 15.6543 -3.49609 12.8027 -0.654297 9.24805 -0.654297 Z M 9.22852 -3.62305 C 9.69727 -3.62305 9.9707 -3.93555 9.9707 -4.45312 L 9.9707 -6.31836 L 12.002 -6.31836 C 12.5 -6.31836 12.832 -6.57227 12.832 -7.04102 C 12.832 -7.51953 12.5195 -7.7832 12.002 -7.7832 L 9.9707 -7.7832 L 9.9707 -9.81445 C 9.9707 -10.332 9.69727 -10.6543 9.22852 -10.6543 C 8.75977 -10.6543 8.50586 -10.3125 8.50586 -9.81445 L 8.50586 -7.7832 L 6.49414 -7.7832 C 5.97656 -7.7832 5.64453 -7.51953 5.64453 -7.04102 C 5.64453 -6.57227 5.99609 -6.31836 6.49414 -6.31836 L 8.50586 -6.31836 L 8.50586 -4.45312 C 8.50586 -3.95508 8.75977 -3.62305 9.22852 -3.62305 Z"/>
  </g>
  <g id="" transform="matrix(1 0 0 1 281.506 1933)">
   <path d="M 11.709 2.91016 C 17.1582 2.91016 21.6699 -1.61133 21.6699 -7.05078 C 21.6699 -12.5 17.1484 -17.0117 11.6992 -17.0117 C 6.25977 -17.0117 1.74805 -12.5 1.74805 -7.05078 C 1.74805 -1.61133 6.26953 2.91016 11.709 2.91016 Z M 11.709 1.25 C 7.09961 1.25 3.41797 -2.44141 3.41797 -7.05078 C 3.41797 -11.6602 7.08984 -15.3516 11.6992 -15.3516 C 16.3086 -15.3516 20 -11.6602 20.0098 -7.05078 C 20.0195 -2.44141 16.3184 1.25 11.709 1.25 Z M 11.6797 -2.66602 C 12.207 -2.66602 12.5098 -3.01758 12.5098 -3.59375 L 12.5098 -6.23047 L 15.3223 -6.23047 C 15.8691 -6.23047 16.25 -6.51367 16.25 -7.03125 C 16.25 -7.55859 15.8887 -7.86133 15.3223 -7.86133 L 12.5098 -7.86133 L 12.5098 -10.6836 C 12.5098 -11.25 12.207 -11.6113 11.6797 -11.6113 C 11.1621 -11.6113 10.8789 -11.2305 10.8789 -10.6836 L 10.8789 -7.86133 L 8.07617 -7.86133 C 7.50977 -7.86133 7.13867 -7.55859 7.13867 -7.03125 C 7.13867 -6.51367 7.5293 -6.23047 8.07617 -6.23047 L 10.8789 -6.23047 L 10.8789 -3.59375 C 10.8789 -3.03711 11.1621 -2.66602 11.6797 -2.66602 Z"/>
  </g>
  <g id="" transform="matrix(1 0 0 1 304.924 1933)">
   <path d="M 14.9707 5.66406 C 21.9336 5.66406 27.6953 -0.0976562 27.6953 -7.05078 C 27.6953 -14.0137 21.9238 -19.7754 14.9609 -19.7754 C 8.00781 -19.7754 2.25586 -14.0137 2.25586 -7.05078 C 2.25586 -0.0976562 8.01758 5.66406 14.9707 5.66406 Z M 14.9707 3.84766 C 8.93555 3.84766 4.08203 -1.01562 4.08203 -7.05078 C 4.08203 -13.0957 8.92578 -17.9492 14.9609 -17.9492 C 21.0059 -17.9492 25.8594 -13.0957 25.8691 -7.05078 C 25.8789 -1.01562 21.0156 3.84766 14.9707 3.84766 Z M 14.9414 -1.38672 C 15.5176 -1.38672 15.8594 -1.77734 15.8594 -2.38281 L 15.8594 -6.13281 L 19.7754 -6.13281 C 20.3711 -6.13281 20.7812 -6.46484 20.7812 -7.02148 C 20.7812 -7.59766 20.3906 -7.93945 19.7754 -7.93945 L 15.8594 -7.93945 L 15.8594 -11.8652 C 15.8594 -12.4805 15.5176 -12.8711 14.9414 -12.8711 C 14.375 -12.8711 14.0527 -12.4609 14.0527 -11.8652 L 14.0527 -7.93945 L 10.1465 -7.93945 C 9.53125 -7.93945 9.13086 -7.59766 9.13086 -7.02148 C 9.13086 -6.46484 9.55078 -6.13281 10.1465 -6.13281 L 14.0527 -6.13281 L 14.0527 -2.38281 C 14.0527 -1.79688 14.375 -1.38672 14.9414 -1.38672 Z"/>
  </g>
  <text style="stroke:none;fill:black;font-family:-apple-system,&quot;SF Pro Display&quot;,&quot;SF Pro Text&quot;,Helvetica,sans-serif;font-weight:bold;" transform="matrix(1 0 0 1 263 1953)">Design Variations</text>
  <text style="stroke:none;fill:black;font-family:-apple-system,&quot;SF Pro Display&quot;,&quot;SF Pro Text&quot;,Helvetica,sans-serif;" transform="matrix(1 0 0 1 263 1971)">Symbols are supported in up to nine weights and three scales.</text>
  <text style="stroke:none;fill:black;font-family:-apple-system,&quot;SF Pro Display&quot;,&quot;SF Pro Text&quot;,Helvetica,sans-serif;" transform="matrix(1 0 0 1 263 1989)">For optimal layout with text and other symbols, vertically align</text>
  <text style="stroke:none;fill:black;font-family:-apple-system,&quot;SF Pro Display&quot;,&quot;SF Pro Text&quot;,Helvetica,sans-serif;" transform="matrix(1 0 0 1 263 2007)">symbols with the adjacent text.</text>
  <line id="" style="fill:none;stroke:#00AEEF;stroke-width:0.5;opacity:1.0;" x1="776" x2="776" y1="1919" y2="1933"/>
  <g id="" transform="matrix(1 0 0 1 776 1933)">
   <path d="M 3.31055 0.126953 C 3.82812 0.126953 4.08203 -0.0683594 4.26758 -0.605469 L 5.52734 -4.0625 L 11.2891 -4.0625 L 12.5488 -0.605469 C 12.7344 -0.0683594 12.9883 0.126953 13.4961 0.126953 C 14.0137 0.126953 14.3457 -0.185547 14.3457 -0.673828 C 14.3457 -0.839844 14.3164 -0.986328 14.2383 -1.20117 L 9.6582 -13.3887 C 9.43359 -13.9941 9.0332 -14.2871 8.4082 -14.2871 C 7.80273 -14.2871 7.39258 -13.9941 7.17773 -13.3984 L 2.59766 -1.19141 C 2.51953 -0.976562 2.49023 -0.830078 2.49023 -0.664062 C 2.49023 -0.175781 2.80273 0.126953 3.31055 0.126953 Z M 6.00586 -5.53711 L 8.37891 -12.1094 L 8.42773 -12.1094 L 10.8008 -5.53711 Z"/>
  </g>
  <line id="" style="fill:none;stroke:#00AEEF;stroke-width:0.5;opacity:1.0;" x1="792.836" x2="792.836" y1="1919" y2="1933"/>
  <text style="stroke:none;fill:black;font-family:-apple-system,&quot;SF Pro Display&quot;,&quot;SF Pro Text&quot;,Helvetica,sans-serif;font-weight:bold;" transform="matrix(1 0 0 1 776 1953)">Margins</text>
  <text style="stroke:none;fill:black;font-family:-apple-system,&quot;SF Pro Display&quot;,&quot;SF Pro Text&quot;,Helvetica,sans-serif;" transform="matrix(1 0 0 1 776 1971)">Leading and trailing margins on the left and right side of each symbol</text>
  <text style="stroke:none;fill:black;font-family:-apple-system,&quot;SF Pro Display&quot;,&quot;SF Pro Text&quot;,Helvetica,sans-serif;" transform="matrix(1 0 0 1 776 1989)">can be adjusted by modifying the x-location of the margin guidelines.</text>
  <text style="stroke:none;fill:black;font-family:-apple-system,&quot;SF Pro Display&quot;,&quot;SF Pro Text&quot;,Helvetica,sans-serif;" transform="matrix(1 0 0 1 776 2007)">Modifications are automatically applied proportionally to all</text>
  <text style="stroke:none;fill:black;font-family:-apple-system,&quot;SF Pro Display&quot;,&quot;SF Pro Text&quot;,Helvetica,sans-serif;" transform="matrix(1 0 0 1 776 2025)">scales and weights.</text>
  <g id="" transform="matrix(1 0 0 1 1289 1933)">
   <path d="M 2.8418 1.86523 L 4.54102 3.57422 C 5.40039 4.44336 6.38672 4.38477 7.31445 3.35938 L 17.4902 -7.85156 C 17.7539 -7.76367 18.0273 -7.7832 18.3398 -7.8418 L 19.4043 -8.03711 L 20.0684 -7.36328 L 20.0293 -6.80664 C 19.9902 -6.30859 20.1172 -5.92773 20.6055 -5.44922 L 21.3672 -4.70703 C 21.8457 -4.22852 22.4609 -4.19922 22.9297 -4.66797 L 25.8398 -7.58789 C 26.3086 -8.05664 26.2891 -8.65234 25.8105 -9.13086 L 25.0391 -9.89258 C 24.5605 -10.3711 24.1895 -10.5273 23.7109 -10.4883 L 23.1348 -10.4395 L 22.4902 -11.0742 L 22.7344 -12.1973 C 22.8613 -12.7637 22.7051 -13.2031 22.1191 -13.7891 L 19.9219 -15.9766 C 16.582 -19.2969 12.1484 -19.2188 9.25781 -16.3281 C 8.83789 -15.918 8.80859 -15.3418 9.04297 -14.9512 C 9.27734 -14.5898 9.73633 -14.3555 10.3809 -14.5215 C 11.8457 -14.8633 13.3691 -14.9219 14.7949 -13.9844 L 14.209 -12.5293 C 14.0137 -12.0508 13.9844 -11.6504 14.1113 -11.2891 L 3.04688 -0.898438 C 2.06055 0.0195312 1.98242 0.996094 2.8418 1.86523 Z M 10.752 -15.957 C 13.1836 -17.7344 16.4746 -17.4316 18.7012 -15.2051 L 21.1328 -12.793 C 21.3672 -12.5586 21.4062 -12.373 21.3379 -12.0312 L 21.0156 -10.5469 L 22.5195 -9.0625 L 23.5059 -9.12109 C 23.7598 -9.13086 23.8379 -9.11133 24.0332 -8.91602 L 24.6094 -8.33984 L 22.168 -5.89844 L 21.5918 -6.47461 C 21.3965 -6.66992 21.3672 -6.74805 21.377 -7.01172 L 21.4453 -7.98828 L 19.9512 -9.47266 L 18.4277 -9.21875 C 18.1055 -9.15039 17.959 -9.17969 17.7148 -9.41406 L 15.7129 -11.416 C 15.459 -11.6504 15.4297 -11.8164 15.5859 -12.1875 L 16.4648 -14.2773 C 14.9023 -15.7324 12.8711 -16.3574 10.8398 -15.7617 C 10.6836 -15.7227 10.625 -15.8496 10.752 -15.957 Z M 5.27344 2.30469 L 4.10156 1.14258 C 3.63281 0.683594 3.74023 0.341797 4.14062 -0.0195312 L 14.9512 -10.1953 L 16.416 -8.71094 L 6.42578 2.27539 C 6.07422 2.67578 5.74219 2.77344 5.27344 2.30469 Z"/>
  </g>
  <text style="stroke:none;fill:black;font-family:-apple-system,&quot;SF Pro Display&quot;,&quot;SF Pro Text&quot;,Helvetica,sans-serif;font-weight:bold;" transform="matrix(1 0 0 1 1289 1953)">Exporting</text>
  <text style="stroke:none;fill:black;font-family:-apple-system,&quot;SF Pro Display&quot;,&quot;SF Pro Text&quot;,Helvetica,sans-serif;" transform="matrix(1 0 0 1 1289 1971)">Symbols should be outlined when exporting to ensure the</text>
  <text style="stroke:none;fill:black;font-family:-apple-system,&quot;SF Pro Display&quot;,&quot;SF Pro Text&quot;,Helvetica,sans-serif;" transform="matrix(1 0 0 1 1289 1989)">design is preserved when submitting to Xcode.</text>
  <text id="template-version" style="stroke:none;fill:black;font-family:-apple-system,&quot;SF Pro Display&quot;,&quot;SF Pro Text&quot;,Helvetica,sans-serif;text-anchor:end;" transform="matrix(1 0 0 1 3036 1933)">Template v.2.0</text>
  <text style="stroke:none;fill:black;font-family:-apple-system,&quot;SF Pro Display&quot;,&quot;SF Pro Text&quot;,Helvetica,sans-serif;text-anchor:end;" transform="matrix(1 0 0 1 3036 1951)">Requires Xcode 12 or greater</text>
  <text style="stroke:none;fill:black;font-family:-apple-system,&quot;SF Pro Display&quot;,&quot;SF Pro Text&quot;,Helvetica,sans-serif;text-anchor:end;" transform="matrix(1 0 0 1 3036 1969)">Generated from turkishlirasign.square</text>
  <text style="stroke:none;fill:black;font-family:-apple-system,&quot;SF Pro Display&quot;,&quot;SF Pro Text&quot;,Helvetica,sans-serif;text-anchor:end;" transform="matrix(1 0 0 1 3036 1987)">Typeset at 100 points</text>
  <text style="stroke:none;fill:black;font-family:-apple-system,&quot;SF Pro Display&quot;,&quot;SF Pro Text&quot;,Helvetica,sans-serif;" transform="matrix(1 0 0 1 263 726)">Small</text>
  <text style="stroke:none;fill:black;font-family:-apple-system,&quot;SF Pro Display&quot;,&quot;SF Pro Text&quot;,Helvetica,sans-serif;" transform="matrix(1 0 0 1 263 1156)">Medium</text>
  <text style="stroke:none;fill:black;font-family:-apple-system,&quot;SF Pro Display&quot;,&quot;SF Pro Text&quot;,Helvetica,sans-serif;" transform="matrix(1 0 0 1 263 1586)">Large</text>
 </g>
 <g id="Guides">
  <g id="H-reference" style="fill:#27AAE1;stroke:none;" transform="matrix(1 0 0 1 339 696)">
   <path d="M 0.976562 0 L 3.66211 0 L 12.9883 -24.4629 L 45.7031 -24.4629 L 55.0781 0 L 57.7148 0 L 30.6152 -70.459 L 28.125 -70.459 Z M 29.2969 -67.1387 L 29.3945 -67.1387 L 44.873 -26.709 L 13.8672 -26.709 Z"/>
  </g>
  <line id="Baseline-S" style="fill:none;stroke:#27AAE1;opacity:1;stroke-width:0.5;" x1="263" x2="3036" y1="696" y2="696"/>
  <line id="Capline-S" style="fill:none;stroke:#27AAE1;opacity:1;stroke-width:0.5;" x1="263" x2="3036" y1="625.541" y2="625.541"/>
  <g id="H-reference" style="fill:#27AAE1;stroke:none;" transform="matrix(1 0 0 1 339 1126)">
   <path d="M 0.976562 0 L 3.66211 0 L 12.9883 -24.4629 L 45.7031 -24.4629 L 55.0781 0 L 57.7148 0 L 30.6152 -70.459 L 28.125 -70.459 Z M 29.2969 -67.1387 L 29.3945 -67.1387 L 44.873 -26.709 L 13.8672 -26.709 Z"/>
  </g>
  <line id="Baseline-M" style="fill:none;stroke:#27AAE1;opacity:1;stroke-width:0.5;" x1="263" x2="3036" y1="1126" y2="1126"/>
  <line id="Capline-M" style="fill:none;stroke:#27AAE1;opacity:1;stroke-width:0.5;" x1="263" x2="3036" y1="1055.54" y2="1055.54"/>
  <g id="H-reference" style="fill:#27AAE1;stroke:none;" transform="matrix(1 0 0 1 339 1556)">
   <path d="M 0.976562 0 L 3.66211 0 L 12.9883 -24.4629 L 45.7031 -24.4629 L 55.0781 0 L 57.7148 0 L 30.6152 -70.459 L 28.125 -70.459 Z M 29.2969 -67.1387 L 29.3945 -67.1387 L 44.873 -26.709 L 13.8672 -26.709 Z"/>
  </g>
  <line id="Baseline-L" style="fill:none;stroke:#27AAE1;opacity:1;stroke-width:0.5;" x1="263" x2="3036" y1="1556" y2="1556"/>
  <line id="Capline-L" style="fill:none;stroke:#27AAE1;opacity:1;stroke-width:0.5;" x1="263" x2="3036" y1="1485.54" y2="1485.54"/>
  <line id="left-margin" style="fill:none;stroke:#00AEEF;stroke-width:0.5;opacity:1.0;" x1="1392.45" x2="1392.45" y1="1030.79" y2="1150.12"/>
  <line id="right-margin" style="fill:none;stroke:#00AEEF;stroke-width:0.5;opacity:1.0;" x1="1507.24" x2="1507.24" y1="1030.79" y2="1150.12"/>
 </g>
 <g id="Symbols">
  <g id="Black-L" transform="matrix(1 0 0 1 2855.62 1556)">
   <path d="M 39.9902 26.5137 L 115.576 26.5137 C 130.811 26.5137 139.502 17.8711 139.502 2.68555 L 139.502 -73.0957 C 139.502 -88.2812 130.811 -96.875 115.576 -96.875 L 39.9902 -96.875 C 24.7559 -96.875 16.0645 -88.2812 16.0645 -73.0957 L 16.0645 2.68555 C 16.0645 17.8711 24.7559 26.5137 39.9902 26.5137 Z M 42.6758 6.29883 C 38.4766 6.29883 36.3281 4.39453 36.3281 -0.146484 L 36.3281 -70.2148 C 36.3281 -74.7559 38.4766 -76.6602 42.6758 -76.6602 L 112.842 -76.6602 C 117.09 -76.6602 119.238 -74.7559 119.238 -70.2148 L 119.238 -0.146484 C 119.238 4.39453 117.09 6.29883 112.842 6.29883 Z M 74.5605 -8.78906 C 91.5527 -8.78906 101.367 -17.5293 101.367 -28.2227 C 101.367 -32.0801 98.6328 -34.7656 94.4824 -34.7656 C 90.918 -34.7656 88.6719 -32.7148 87.793 -29.1992 C 86.9141 -25.0977 83.2031 -21.582 77.4902 -21.582 L 77.4902 -36.4746 L 88.7695 -40.5762 C 89.9414 -41.0156 90.5762 -41.8457 90.5762 -43.1152 C 90.5762 -44.6777 89.5996 -45.8008 87.9883 -45.8008 C 87.4023 -45.8008 86.7676 -45.6543 86.1328 -45.4102 L 77.4902 -42.2852 L 77.4902 -47.0215 L 88.7695 -51.123 C 89.9414 -51.5137 90.5762 -52.3926 90.5762 -53.6621 C 90.5762 -55.2246 89.5996 -56.3477 87.9883 -56.3477 C 87.4023 -56.3477 86.7676 -56.2012 86.1328 -55.957 L 77.4902 -52.832 L 77.4902 -57.3242 C 77.4902 -61.7676 74.5117 -64.5508 70.4102 -64.5508 C 66.3574 -64.5508 63.3789 -61.7676 63.3789 -57.3242 L 63.3789 -47.7539 L 56.1035 -45.1172 C 54.9316 -44.6777 54.2969 -43.7988 54.2969 -42.5781 C 54.2969 -41.0156 55.3223 -39.8438 56.8848 -39.8438 C 57.4707 -39.8438 58.1055 -40.0391 58.7402 -40.2832 L 63.3789 -41.9434 L 63.3789 -37.207 L 56.1035 -34.5703 C 54.9316 -34.1309 54.2969 -33.3008 54.2969 -32.0312 C 54.2969 -30.4688 55.3223 -29.3457 56.8848 -29.3457 C 57.4707 -29.3457 58.1055 -29.4922 58.7402 -29.7363 L 63.3789 -31.4453 L 63.3789 -18.7012 C 63.3789 -12.5977 67.4316 -8.78906 74.5605 -8.78906 Z"/>
  </g>
  <g id="Heavy-L" transform="matrix(1 0 0 1 2559.93 1556)">
   <path d="M 38.8184 25.4883 L 114.697 25.4883 C 129.346 25.4883 137.451 17.4316 137.451 2.88086 L 137.451 -73.2422 C 137.451 -87.793 129.346 -95.8496 114.697 -95.8496 L 38.8184 -95.8496 C 24.2188 -95.8496 16.0645 -87.793 16.0645 -73.2422 L 16.0645 2.88086 C 16.0645 17.4316 24.2188 25.4883 38.8184 25.4883 Z M 40.918 8.00781 C 36.084 8.00781 33.5938 5.71289 33.5938 0.585938 L 33.5938 -70.9473 C 33.5938 -76.0742 36.084 -78.3691 40.918 -78.3691 L 112.549 -78.3691 C 117.383 -78.3691 119.922 -76.0742 119.922 -70.9473 L 119.922 0.585938 C 119.922 5.71289 117.383 8.00781 112.549 8.00781 Z M 72.6562 -8.1543 C 89.7461 -8.1543 99.707 -17.9688 99.707 -28.8574 C 99.707 -32.3242 97.3633 -34.7168 93.7012 -34.7168 C 90.5273 -34.7168 88.5742 -32.9102 87.793 -29.6387 C 86.9141 -24.3164 82.2754 -19.5312 75.4395 -19.5312 L 75.4395 -35.7422 L 87.2559 -40.2344 C 88.4277 -40.7227 89.0625 -41.5527 89.0625 -42.8223 C 89.0625 -44.3848 88.0371 -45.5078 86.4258 -45.5078 C 85.8887 -45.5078 85.3027 -45.3613 84.7168 -45.1172 L 75.4395 -41.6016 L 75.4395 -46.6797 L 87.2559 -51.1719 C 88.4277 -51.6602 89.0625 -52.4902 89.0625 -53.7598 C 89.0625 -55.3223 88.0371 -56.4453 86.4258 -56.4453 C 85.8887 -56.4453 85.3027 -56.2988 84.7168 -56.1035 L 75.4395 -52.5391 L 75.4395 -58.1055 C 75.4395 -62.0605 72.8027 -64.502 69.2383 -64.502 C 65.625 -64.502 63.0859 -62.0605 63.0859 -58.1055 L 63.0859 -47.998 L 55.7129 -45.2148 C 54.4922 -44.7754 53.8574 -43.8965 53.8574 -42.627 C 53.8574 -41.0645 54.8828 -39.9414 56.4941 -39.9414 C 57.0312 -39.9414 57.6172 -40.0879 58.252 -40.332 L 63.0859 -42.1875 L 63.0859 -37.0605 L 55.7129 -34.2773 C 54.4922 -33.7891 53.8574 -32.959 53.8574 -31.6895 C 53.8574 -30.127 54.8828 -29.0039 56.4941 -29.0039 C 57.0312 -29.0039 57.6172 -29.1504 58.252 -29.3945 L 63.0859 -31.25 L 63.0859 -16.6992 C 63.0859 -11.4258 66.5039 -8.1543 72.6562 -8.1543 Z"/>
  </g>
  <g id="Bold-L" transform="matrix(1 0 0 1 2264.37 1556)">
   <path d="M 37.5 24.3652 L 113.721 24.3652 C 127.637 24.3652 135.156 16.8945 135.156 3.07617 L 135.156 -73.3887 C 135.156 -87.207 127.637 -94.7266 113.721 -94.7266 L 37.5 -94.7266 C 23.6328 -94.7266 16.0645 -87.2559 16.0645 -73.3887 L 16.0645 3.07617 C 16.0645 16.8945 23.6328 24.3652 37.5 24.3652 Z M 38.9648 9.91211 C 33.4473 9.91211 30.5176 7.17773 30.5176 1.41602 L 30.5176 -71.7285 C 30.5176 -77.5391 33.4473 -80.2734 38.9648 -80.2734 L 112.256 -80.2734 C 117.725 -80.2734 120.703 -77.5391 120.703 -71.7285 L 120.703 1.41602 C 120.703 7.17773 117.725 9.91211 112.256 9.91211 Z M 70.5566 -7.37305 C 87.6953 -7.37305 97.9004 -18.5059 97.9004 -29.5898 C 97.9004 -32.6172 95.8984 -34.7168 92.8223 -34.7168 C 90.1367 -34.7168 88.3789 -33.1055 87.793 -30.127 C 86.9141 -23.3887 81.2012 -17.2852 73.0957 -17.2852 L 73.0957 -34.9609 L 85.5469 -39.8926 C 86.7676 -40.3809 87.4023 -41.2598 87.4023 -42.4805 C 87.4023 -44.043 86.3281 -45.2148 84.7168 -45.2148 C 84.2285 -45.2148 83.6914 -45.0684 83.1055 -44.8242 L 73.0957 -40.8203 L 73.0957 -46.3379 L 85.5469 -51.2695 C 86.7676 -51.8066 87.4023 -52.6367 87.4023 -53.9062 C 87.4023 -55.4688 86.3281 -56.5918 84.7168 -56.5918 C 84.2285 -56.5918 83.6914 -56.4453 83.1055 -56.2012 L 73.0957 -52.1973 L 73.0957 -59.0332 C 73.0957 -62.3535 70.9473 -64.502 67.8711 -64.502 C 64.8438 -64.502 62.6953 -62.3535 62.6953 -59.0332 L 62.6953 -48.291 L 55.2246 -45.3125 C 54.0039 -44.8242 53.418 -43.9941 53.418 -42.7246 C 53.418 -41.1621 54.4434 -40.0391 56.0547 -40.0391 C 56.543 -40.0391 57.1289 -40.1855 57.666 -40.3809 L 62.6953 -42.3828 L 62.6953 -36.9141 L 55.2246 -33.9355 C 54.0039 -33.4473 53.418 -32.6172 53.418 -31.3477 C 53.418 -29.7852 54.4434 -28.6133 56.0547 -28.6133 C 56.543 -28.6133 57.1289 -28.7598 57.666 -29.0039 L 62.6953 -31.0059 L 62.6953 -14.502 C 62.6953 -10.1562 65.4785 -7.37305 70.5566 -7.37305 Z"/>
  </g>
  <g id="Semibold-L" transform="matrix(1 0 0 1 1968.44 1556)">
   <path d="M 36.6211 23.584 L 113.037 23.584 C 126.514 23.584 133.594 16.5039 133.594 3.17383 L 133.594 -73.5352 C 133.594 -86.8164 126.514 -93.9453 113.037 -93.9453 L 36.6211 -93.9453 C 23.1934 -93.9453 16.0645 -86.8652 16.0645 -73.5352 L 16.0645 3.17383 C 16.0645 16.5527 23.1934 23.584 36.6211 23.584 Z M 37.5977 11.2793 C 31.6406 11.2793 28.418 8.20312 28.418 1.95312 L 28.418 -72.3145 C 28.418 -78.5156 31.6406 -81.5918 37.5977 -81.5918 L 112.061 -81.5918 C 117.969 -81.5918 121.24 -78.5156 121.24 -72.3145 L 121.24 1.95312 C 121.24 8.20312 117.969 11.2793 112.061 11.2793 Z M 69.1406 -6.83594 C 86.2793 -6.83594 96.6309 -18.8477 96.6309 -30.0781 C 96.6309 -32.8613 94.9219 -34.7168 92.2363 -34.7168 C 89.8438 -34.7168 88.2812 -33.252 87.793 -30.4688 C 86.8652 -22.7539 80.4688 -15.7227 71.5332 -15.7227 L 71.5332 -34.4238 L 84.375 -39.6484 C 85.6445 -40.1855 86.2305 -41.0156 86.2305 -42.2852 C 86.2305 -43.8477 85.1562 -44.9707 83.5449 -44.9707 C 83.0566 -44.9707 82.5684 -44.8242 81.9824 -44.6289 L 71.5332 -40.2832 L 71.5332 -46.0938 L 84.375 -51.3672 C 85.6445 -51.9043 86.2305 -52.6855 86.2305 -53.9551 C 86.2305 -55.5176 85.1562 -56.6895 83.5449 -56.6895 C 83.0566 -56.6895 82.5684 -56.543 81.9824 -56.2988 L 71.5332 -52.002 L 71.5332 -59.668 C 71.5332 -62.5977 69.6777 -64.4531 66.9922 -64.4531 C 64.2578 -64.4531 62.4512 -62.5977 62.4512 -59.668 L 62.4512 -48.4863 L 54.9316 -45.4102 C 53.6621 -44.873 53.0762 -44.043 53.0762 -42.7734 C 53.0762 -41.2109 54.1504 -40.0879 55.7129 -40.0879 C 56.2012 -40.0879 56.7383 -40.2344 57.2754 -40.4297 L 62.4512 -42.5781 L 62.4512 -36.7676 L 54.9316 -33.6914 C 53.6621 -33.1543 53.0762 -32.373 53.0762 -31.1035 C 53.0762 -29.541 54.1504 -28.3691 55.7129 -28.3691 C 56.2012 -28.3691 56.7383 -28.5156 57.2754 -28.7598 L 62.4512 -30.8594 L 62.4512 -12.9395 C 62.4512 -9.27734 64.7949 -6.83594 69.1406 -6.83594 Z"/>
  </g>
  <g id="Medium-L" transform="matrix(1 0 0 1 1672.31 1556)">
   <path d="M 35.9375 22.998 L 112.5 22.998 C 125.635 22.998 132.422 16.2109 132.422 3.27148 L 132.422 -73.6328 C 132.422 -86.5234 125.635 -93.3105 112.5 -93.3105 L 35.9375 -93.3105 C 22.9004 -93.3105 16.0645 -86.5723 16.0645 -73.6328 L 16.0645 3.27148 C 16.0645 16.2598 22.9004 22.998 35.9375 22.998 Z M 36.5723 12.2559 C 30.2246 12.2559 26.8066 8.98438 26.8066 2.39258 L 26.8066 -72.7051 C 26.8066 -79.2969 30.2246 -82.6172 36.5723 -82.6172 L 111.865 -82.6172 C 118.115 -82.6172 121.68 -79.2969 121.68 -72.7051 L 121.68 2.39258 C 121.68 8.98438 118.115 12.2559 111.865 12.2559 Z M 68.0176 -6.44531 C 85.2051 -6.44531 95.7031 -19.1406 95.7031 -30.4688 C 95.7031 -33.0078 94.1406 -34.668 91.748 -34.668 C 89.5996 -34.668 88.2324 -33.3984 87.7441 -30.7129 C 86.8652 -22.2656 79.8828 -14.5508 70.3125 -14.5508 L 70.3125 -33.9844 L 83.4961 -39.502 C 84.7656 -40.0391 85.3027 -40.8203 85.3027 -42.0898 C 85.3027 -43.6523 84.2285 -44.8242 82.666 -44.8242 C 82.1777 -44.8242 81.6895 -44.6777 81.1523 -44.4824 L 70.3125 -39.8926 L 70.3125 -45.8984 L 83.4961 -51.416 C 84.7656 -51.9531 85.3027 -52.7832 85.3027 -54.0527 C 85.3027 -55.6152 84.2285 -56.7383 82.666 -56.7383 C 82.1777 -56.7383 81.6895 -56.5918 81.1523 -56.3965 L 70.3125 -51.8555 L 70.3125 -60.1074 C 70.3125 -62.7441 68.7012 -64.4043 66.2598 -64.4043 C 63.8672 -64.4043 62.2559 -62.7441 62.2559 -60.1074 L 62.2559 -48.6328 L 54.6875 -45.459 C 53.3691 -44.9219 52.832 -44.0918 52.832 -42.8223 C 52.832 -41.2598 53.9062 -40.1367 55.4688 -40.1367 C 55.957 -40.1367 56.4453 -40.2344 56.9824 -40.4785 L 62.2559 -42.6758 L 62.2559 -36.6699 L 54.6875 -33.4961 C 53.3691 -32.959 52.832 -32.1777 52.832 -30.9082 C 52.832 -29.3457 53.9062 -28.1738 55.4688 -28.1738 C 55.957 -28.1738 56.4453 -28.3203 56.9824 -28.5645 L 62.2559 -30.7617 L 62.2559 -11.7676 C 62.2559 -8.64258 64.209 -6.44531 68.0176 -6.44531 Z"/>
  </g>
  <g id="Regular-L" transform="matrix(1 0 0 1 1376.38 1556)">
   <path d="M 35.0586 22.2168 L 111.816 22.2168 C 124.463 22.2168 130.859 15.8691 130.859 3.41797 L 130.859 -73.7305 C 130.859 -86.1816 124.463 -92.5293 111.816 -92.5293 L 35.0586 -92.5293 C 22.4609 -92.5293 16.0645 -86.2305 16.0645 -73.7305 L 16.0645 3.41797 C 16.0645 15.918 22.4609 22.2168 35.0586 22.2168 Z M 35.2539 13.5742 C 28.418 13.5742 24.707 9.96094 24.707 2.97852 L 24.707 -73.291 C 24.707 -80.2734 28.418 -83.8867 35.2539 -83.8867 L 111.67 -83.8867 C 118.359 -83.8867 122.217 -80.2734 122.217 -73.291 L 122.217 2.97852 C 122.217 9.96094 118.359 13.5742 111.67 13.5742 Z M 66.6016 -5.95703 C 83.8379 -5.95703 94.4336 -19.4824 94.4336 -30.957 C 94.4336 -33.2031 93.1641 -34.668 91.1621 -34.668 C 89.3555 -34.668 88.1348 -33.5449 87.7441 -31.0547 C 86.8652 -21.6309 79.1992 -13.0371 68.75 -13.0371 L 68.75 -33.4473 L 82.3242 -39.2578 C 83.6426 -39.7949 84.1797 -40.625 84.1797 -41.8945 C 84.1797 -43.457 83.0566 -44.5801 81.4941 -44.5801 C 81.0059 -44.5801 80.5664 -44.4824 80.0781 -44.2383 L 68.75 -39.4043 L 68.75 -45.7031 L 82.3242 -51.4648 C 83.6426 -52.0508 84.1797 -52.832 84.1797 -54.1016 C 84.1797 -55.7129 83.0566 -56.8359 81.4941 -56.8359 C 81.0059 -56.8359 80.5664 -56.6895 80.0781 -56.4941 L 68.75 -51.6113 L 68.75 -60.7422 C 68.75 -62.9883 67.4316 -64.4043 65.3809 -64.4043 C 63.3301 -64.4043 61.9629 -62.9883 61.9629 -60.7422 L 61.9629 -48.7793 L 54.3457 -45.5078 C 53.0273 -44.9707 52.4902 -44.1406 52.4902 -42.8711 C 52.4902 -41.3086 53.6133 -40.1855 55.1758 -40.1855 C 55.6641 -40.1855 56.1035 -40.332 56.5918 -40.5273 L 61.9629 -42.8711 L 61.9629 -36.5723 L 54.3457 -33.3008 C 53.0273 -32.7148 52.4902 -31.9336 52.4902 -30.6641 C 52.4902 -29.1016 53.6133 -27.9297 55.1758 -27.9297 C 55.6641 -27.9297 56.1035 -28.0762 56.5918 -28.2715 L 61.9629 -30.6152 L 61.9629 -10.2539 C 61.9629 -7.76367 63.5254 -5.95703 66.6016 -5.95703 Z"/>
  </g>
  <g id="Light-L" transform="matrix(1 0 0 1 1080.5 1556)">
   <path d="M 34.0332 21.4355 L 111.23 21.4355 C 123.096 21.4355 129.199 15.2344 129.199 3.56445 L 129.199 -73.8281 C 129.199 -85.5469 123.096 -91.6992 111.23 -91.6992 L 34.0332 -91.6992 C 22.168 -91.6992 16.0645 -85.6445 16.0645 -73.8281 L 16.0645 3.56445 C 16.0645 15.3809 22.168 21.4355 34.0332 21.4355 Z M 34.1797 14.7949 C 26.709 14.7949 22.7051 10.8398 22.7051 3.22266 L 22.7051 -73.4863 C 22.7051 -81.1523 26.709 -85.0586 34.1797 -85.0586 L 111.035 -85.0586 C 118.359 -85.0586 122.559 -81.1523 122.559 -73.4863 L 122.559 3.22266 C 122.559 10.8398 118.359 14.7949 111.035 14.7949 Z M 65.7715 -6.78711 C 81.8359 -6.78711 92.4316 -19.3848 92.4316 -31.0547 C 92.4316 -32.8125 91.4551 -34.0332 89.7949 -34.0332 C 88.2324 -34.0332 87.2559 -33.0566 87.0605 -31.1035 C 86.5234 -21.3867 78.2227 -12.4023 67.5293 -12.4023 L 67.5293 -33.3008 L 81.6406 -39.502 C 82.7637 -39.9902 83.2031 -40.625 83.2031 -41.6992 C 83.2031 -43.0176 82.2754 -43.9453 80.957 -43.9453 C 80.5176 -43.9453 80.1758 -43.8477 79.7363 -43.6523 L 67.5293 -38.2812 L 67.5293 -45.0195 L 81.6406 -51.2207 C 82.7637 -51.709 83.2031 -52.3438 83.2031 -53.418 C 83.2031 -54.7363 82.2754 -55.6641 80.957 -55.6641 C 80.5176 -55.6641 80.1758 -55.5664 79.7363 -55.3711 L 67.5293 -50 L 67.5293 -60.5469 C 67.5293 -62.4023 66.4551 -63.4766 64.8438 -63.4766 C 63.1836 -63.4766 62.1094 -62.4023 62.1094 -60.5469 L 62.1094 -47.7051 L 54.3457 -44.2871 C 53.2715 -43.8477 52.832 -43.1641 52.832 -42.1387 C 52.832 -40.8203 53.7598 -39.8438 55.0781 -39.8438 C 55.5176 -39.8438 55.8594 -39.9414 56.2988 -40.1367 L 62.1094 -42.7246 L 62.1094 -35.9863 L 54.3457 -32.5684 C 53.2715 -32.1289 52.832 -31.4453 52.832 -30.3711 C 52.832 -29.1016 53.7598 -28.125 55.0781 -28.125 C 55.5176 -28.125 55.8594 -28.2227 56.2988 -28.418 L 62.1094 -31.0059 L 62.1094 -10.1562 C 62.1094 -8.20312 63.3789 -6.78711 65.7715 -6.78711 Z"/>
  </g>
  <g id="Thin-L" transform="matrix(1 0 0 1 784.889 1556)">
   <path d="M 32.666 20.3613 L 110.352 20.3613 C 121.24 20.3613 127.002 14.4531 127.002 3.75977 L 127.002 -73.9746 C 127.002 -84.7168 121.24 -90.5762 110.352 -90.5762 L 32.666 -90.5762 C 21.7773 -90.5762 16.0645 -84.8633 16.0645 -73.9746 L 16.0645 3.75977 C 16.0645 14.6484 21.7773 20.3613 32.666 20.3613 Z M 32.8125 16.4062 C 24.4141 16.4062 19.9707 12.0117 19.9707 3.56445 L 19.9707 -73.7793 C 19.9707 -82.2754 24.4141 -86.6699 32.8125 -86.6699 L 110.205 -86.6699 C 118.359 -86.6699 123.047 -82.2754 123.047 -73.7793 L 123.047 3.56445 C 123.047 12.0117 118.359 16.4062 110.205 16.4062 Z M 64.6973 -7.86133 C 79.1992 -7.86133 89.7949 -19.2383 89.7949 -31.1523 C 89.7949 -32.3242 89.209 -33.1543 87.9883 -33.1543 C 86.7676 -33.1543 86.1816 -32.373 86.1328 -31.1523 C 86.0352 -21.0449 76.9043 -11.6211 65.9668 -11.6211 L 65.9668 -33.1543 L 80.8105 -39.8438 C 81.5918 -40.1855 81.8848 -40.6738 81.8848 -41.4551 C 81.8848 -42.4316 81.2012 -43.1152 80.2246 -43.1152 C 79.8828 -43.1152 79.6875 -43.0664 79.248 -42.8711 L 65.9668 -36.8652 L 65.9668 -44.1895 L 80.8105 -50.8789 C 81.5918 -51.2207 81.8848 -51.709 81.8848 -52.4902 C 81.8848 -53.4668 81.2012 -54.1504 80.2246 -54.1504 C 79.8828 -54.1504 79.6875 -54.1016 79.248 -53.9062 L 65.9668 -47.9004 L 65.9668 -60.3516 C 65.9668 -61.6211 65.2344 -62.3047 64.1113 -62.3047 C 63.0371 -62.3047 62.2559 -61.6211 62.2559 -60.3516 L 62.2559 -46.2891 L 54.3457 -42.6758 C 53.5645 -42.334 53.2715 -41.8945 53.2715 -41.1133 C 53.2715 -40.1367 54.0039 -39.4043 54.9805 -39.4043 C 55.3223 -39.4043 55.5176 -39.502 55.9082 -39.6484 L 62.2559 -42.5293 L 62.2559 -35.2051 L 54.3457 -31.6406 C 53.5645 -31.2988 53.2715 -30.8594 53.2715 -30.0293 C 53.2715 -29.1016 54.0039 -28.3691 54.9805 -28.3691 C 55.3223 -28.3691 55.5176 -28.4668 55.9082 -28.6133 L 62.2559 -31.4941 L 62.2559 -10.0586 C 62.2559 -8.74023 63.1836 -7.86133 64.6973 -7.86133 Z"/>
  </g>
  <g id="Ultralight-L" transform="matrix(1 0 0 1 488.739 1556)">
   <path d="M 31.9824 19.7754 L 109.961 19.7754 C 120.312 19.7754 125.879 14.0625 125.879 3.85742 L 125.879 -74.0723 C 125.879 -84.2773 120.312 -89.9902 109.961 -89.9902 L 31.9824 -89.9902 C 21.582 -89.9902 16.0645 -84.4727 16.0645 -74.0723 L 16.0645 3.85742 C 16.0645 14.2578 21.582 19.7754 31.9824 19.7754 Z M 32.1289 17.2363 C 23.1934 17.2363 18.6035 12.6465 18.6035 3.75977 L 18.6035 -73.9258 C 18.6035 -82.8125 23.1934 -87.4512 32.1289 -87.4512 L 109.766 -87.4512 C 118.359 -87.4512 123.291 -82.8125 123.291 -73.9258 L 123.291 3.75977 C 123.291 12.6465 118.359 17.2363 109.766 17.2363 Z M 64.1602 -8.44727 C 77.832 -8.44727 88.4766 -19.1406 88.4766 -31.2012 C 88.4766 -32.0801 88.0859 -32.7148 87.0605 -32.7148 C 85.9863 -32.7148 85.5957 -32.0312 85.6445 -31.2012 C 85.791 -20.8496 76.2207 -11.1816 65.1367 -11.1816 L 65.1367 -33.0566 L 80.3711 -40.0391 C 81.0059 -40.332 81.2012 -40.6738 81.2012 -41.3086 C 81.2012 -42.1387 80.6152 -42.7246 79.834 -42.7246 C 79.541 -42.7246 79.3945 -42.627 79.0039 -42.4805 L 65.1367 -36.1328 L 65.1367 -43.75 L 80.3711 -50.6836 C 81.0059 -50.9766 81.2012 -51.3672 81.2012 -52.002 C 81.2012 -52.832 80.6152 -53.3691 79.834 -53.3691 C 79.541 -53.3691 79.3945 -53.3203 79.0039 -53.1738 L 65.1367 -46.8262 L 65.1367 -60.2051 C 65.1367 -61.2305 64.5996 -61.6699 63.7695 -61.6699 C 62.9395 -61.6699 62.3535 -61.2305 62.3535 -60.2051 L 62.3535 -45.5078 L 54.3457 -41.8457 C 53.7109 -41.5527 53.5156 -41.2109 53.5156 -40.5762 C 53.5156 -39.7461 54.1016 -39.1602 54.8828 -39.1602 C 55.1758 -39.1602 55.3223 -39.2578 55.7129 -39.4043 L 62.3535 -42.4805 L 62.3535 -34.8633 L 54.3457 -31.2012 C 53.7109 -30.9082 53.5156 -30.5176 53.5156 -29.8828 C 53.5156 -29.1016 54.1016 -28.5156 54.8828 -28.5156 C 55.1758 -28.5156 55.3223 -28.5645 55.7129 -28.7109 L 62.3535 -31.7871 L 62.3535 -10.0098 C 62.3535 -9.0332 63.0859 -8.44727 64.1602 -8.44727 Z"/>
  </g>
  <g id="Black-M" transform="matrix(1 0 0 1 2872.19 1126)">
   <path d="M 31.9824 13.5742 L 90.4297 13.5742 C 102.686 13.5742 109.961 6.29883 109.961 -5.95703 L 109.961 -64.4043 C 109.961 -76.6602 102.686 -83.9355 90.4297 -83.9355 L 31.9824 -83.9355 C 19.7266 -83.9355 12.4512 -76.6602 12.4512 -64.4043 L 12.4512 -5.95703 C 12.4512 6.29883 19.7266 13.5742 31.9824 13.5742 Z M 34.9121 -4.73633 C 32.0801 -4.73633 30.7617 -5.81055 30.7617 -8.88672 L 30.7617 -61.4746 C 30.7617 -64.5508 32.0801 -65.6738 34.9121 -65.6738 L 87.5 -65.6738 C 90.332 -65.6738 91.6504 -64.5508 91.6504 -61.4746 L 91.6504 -8.88672 C 91.6504 -5.81055 90.332 -4.73633 87.5 -4.73633 Z M 59.8633 -16.1133 C 72.3633 -16.1133 79.6875 -20.8008 79.6875 -28.9551 C 79.6875 -32.2266 77.2949 -34.5703 73.584 -34.5703 C 70.3613 -34.5703 68.457 -32.7148 67.6758 -29.9805 C 67.1875 -28.3691 65.2344 -27.0508 62.207 -27.0508 L 62.207 -37.0605 L 70.5078 -39.9414 C 71.2402 -40.1367 71.7285 -40.7715 71.7285 -41.6504 C 71.7285 -42.6758 71.0449 -43.5059 69.9707 -43.5059 C 69.5312 -43.5059 68.9941 -43.3594 68.5059 -43.1641 L 62.207 -41.0156 L 62.207 -44.4336 L 70.5078 -47.2656 C 71.2402 -47.5098 71.7285 -48.1445 71.7285 -48.9746 C 71.7285 -50.0488 71.0449 -50.8301 69.9707 -50.8301 C 69.5312 -50.8301 68.9941 -50.7324 68.5059 -50.5371 L 62.207 -48.3887 L 62.207 -51.1719 C 62.207 -55.0781 59.4727 -57.5195 55.9082 -57.5195 C 52.2949 -57.5195 49.6582 -55.0781 49.6582 -51.1719 L 49.6582 -44.043 L 44.043 -42.1387 C 43.3105 -41.8945 42.8223 -41.2598 42.8223 -40.3809 C 42.8223 -39.3555 43.5059 -38.5254 44.5801 -38.5254 C 45.0195 -38.5254 45.5566 -38.6719 46.0449 -38.8672 L 49.6582 -40.0879 L 49.6582 -36.6699 L 44.043 -34.7656 C 43.3105 -34.5215 42.8223 -33.8867 42.8223 -33.0566 C 42.8223 -31.9824 43.5059 -31.2012 44.5801 -31.2012 C 45.0195 -31.2012 45.5566 -31.2988 46.0449 -31.4941 L 49.6582 -32.7637 L 49.6582 -25.0488 C 49.6582 -19.4336 53.4668 -16.1133 59.8633 -16.1133 Z"/>
  </g>
  <g id="Heavy-M" transform="matrix(1 0 0 1 2576.39 1126)">
   <path d="M 31.0059 12.6465 L 89.6484 12.6465 C 101.416 12.6465 108.154 5.9082 108.154 -5.81055 L 108.154 -64.5508 C 108.154 -76.2695 101.416 -83.0566 89.6484 -83.0566 L 31.0059 -83.0566 C 19.2383 -83.0566 12.4512 -76.3184 12.4512 -64.5508 L 12.4512 -5.81055 C 12.4512 5.9082 19.2383 12.6465 31.0059 12.6465 Z M 33.252 -3.17383 C 29.9316 -3.17383 28.2715 -4.63867 28.2715 -8.1543 L 28.2715 -62.207 C 28.2715 -65.7715 29.9316 -67.2363 33.252 -67.2363 L 87.3535 -67.2363 C 90.6738 -67.2363 92.334 -65.7715 92.334 -62.207 L 92.334 -8.1543 C 92.334 -4.63867 90.6738 -3.17383 87.3535 -3.17383 Z M 58.0566 -15.1367 C 70.8496 -15.1367 78.418 -21.3379 78.418 -29.6387 C 78.418 -32.6172 76.3184 -34.7168 73.0469 -34.7168 C 70.2637 -34.7168 68.5547 -33.0566 67.8223 -30.4688 C 67.2363 -27.5391 64.4531 -25 60.2539 -25 L 60.2539 -36.3281 L 68.9941 -39.502 C 69.8242 -39.7949 70.3125 -40.4297 70.3125 -41.3574 C 70.3125 -42.4805 69.5801 -43.3594 68.4082 -43.3594 C 68.0176 -43.3594 67.5293 -43.2129 67.041 -43.0176 L 60.2539 -40.5762 L 60.2539 -44.2383 L 68.9941 -47.4121 C 69.8242 -47.7539 70.3125 -48.3887 70.3125 -49.3164 C 70.3125 -50.4395 69.5801 -51.2695 68.4082 -51.2695 C 68.0176 -51.2695 67.5293 -51.123 67.041 -50.9766 L 60.2539 -48.4863 L 60.2539 -52.0996 C 60.2539 -55.5664 57.9102 -57.7148 54.7363 -57.7148 C 51.5625 -57.7148 49.2676 -55.5664 49.2676 -52.0996 L 49.2676 -44.5801 L 43.6035 -42.5293 C 42.7734 -42.2363 42.2852 -41.6016 42.2852 -40.6738 C 42.2852 -39.5508 43.0176 -38.7207 44.1895 -38.7207 C 44.6289 -38.7207 45.0684 -38.8184 45.5566 -39.0137 L 49.2676 -40.3809 L 49.2676 -36.6699 L 43.6035 -34.6191 C 42.7734 -34.3262 42.2852 -33.6914 42.2852 -32.7637 C 42.2852 -31.6406 43.0176 -30.8105 44.1895 -30.8105 C 44.6289 -30.8105 45.0684 -30.9082 45.5566 -31.1035 L 49.2676 -32.4219 L 49.2676 -22.9004 C 49.2676 -18.1152 52.4902 -15.1367 58.0566 -15.1367 Z"/>
  </g>
  <g id="Bold-M" transform="matrix(1 0 0 1 2280.68 1126)">
   <path d="M 29.8828 11.6699 L 88.7207 11.6699 C 99.9512 11.6699 106.152 5.46875 106.152 -5.66406 L 106.152 -64.6973 C 106.152 -75.8789 99.9512 -82.0312 88.7207 -82.0312 L 29.8828 -82.0312 C 18.6523 -82.0312 12.4512 -75.8789 12.4512 -64.6973 L 12.4512 -5.66406 C 12.4512 5.51758 18.6523 11.6699 29.8828 11.6699 Z M 31.3965 -1.41602 C 27.5391 -1.41602 25.5371 -3.27148 25.5371 -7.32422 L 25.5371 -63.0371 C 25.5371 -67.1387 27.5391 -68.9453 31.3965 -68.9453 L 87.207 -68.9453 C 91.0156 -68.9453 93.0664 -67.1387 93.0664 -63.0371 L 93.0664 -7.32422 C 93.0664 -3.27148 91.0156 -1.41602 87.207 -1.41602 Z M 55.957 -14.1113 C 69.2383 -14.1113 77.002 -21.9238 77.002 -30.4199 C 77.002 -33.0566 75.2441 -34.8633 72.5098 -34.8633 C 70.1172 -34.8633 68.6035 -33.4473 68.0176 -30.957 C 67.334 -26.6113 63.5742 -22.7051 58.0566 -22.7051 L 58.0566 -35.498 L 67.334 -39.0625 C 68.2617 -39.4043 68.75 -40.0879 68.75 -41.0645 C 68.75 -42.2852 67.9688 -43.1641 66.6992 -43.1641 C 66.3086 -43.1641 65.8203 -43.0664 65.3809 -42.8711 L 58.0566 -40.0391 L 58.0566 -44.043 L 67.334 -47.6074 C 68.2617 -47.998 68.75 -48.6328 68.75 -49.6094 C 68.75 -50.8301 67.9688 -51.709 66.6992 -51.709 C 66.3086 -51.709 65.8203 -51.6113 65.3809 -51.416 L 58.0566 -48.6328 L 58.0566 -53.125 C 58.0566 -56.1035 56.1523 -57.959 53.418 -57.959 C 50.7324 -57.959 48.8281 -56.1035 48.8281 -53.125 L 48.8281 -45.2148 L 43.0664 -43.0176 C 42.1387 -42.627 41.6504 -41.9922 41.6504 -41.0156 C 41.6504 -39.7949 42.4805 -38.916 43.7012 -38.916 C 44.1406 -38.916 44.5801 -39.0137 45.0195 -39.209 L 48.8281 -40.6738 L 48.8281 -36.6211 L 43.0664 -34.4238 C 42.1387 -34.082 41.6504 -33.3984 41.6504 -32.4219 C 41.6504 -31.25 42.4805 -30.3223 43.7012 -30.3223 C 44.1406 -30.3223 44.5801 -30.4688 45.0195 -30.6152 L 48.8281 -32.0801 L 48.8281 -20.5078 C 48.8281 -16.5527 51.3672 -14.1113 55.957 -14.1113 Z"/>
  </g>
  <g id="Semibold-M" transform="matrix(1 0 0 1 1984.65 1126)">
   <path d="M 29.1016 10.9863 L 88.0859 10.9863 C 98.9746 10.9863 104.785 5.17578 104.785 -5.56641 L 104.785 -64.8438 C 104.785 -75.5859 98.9746 -81.3477 88.0859 -81.3477 L 29.1016 -81.3477 C 18.2617 -81.3477 12.4512 -75.5859 12.4512 -64.8438 L 12.4512 -5.56641 C 12.4512 5.22461 18.2617 10.9863 29.1016 10.9863 Z M 30.127 -0.195312 C 25.8789 -0.195312 23.6328 -2.34375 23.6328 -6.78711 L 23.6328 -63.623 C 23.6328 -68.0664 25.8789 -70.166 30.127 -70.166 L 87.1094 -70.166 C 91.2598 -70.166 93.6035 -68.0664 93.6035 -63.623 L 93.6035 -6.78711 C 93.6035 -2.34375 91.2598 -0.195312 87.1094 -0.195312 Z M 54.541 -13.3301 C 68.0664 -13.3301 76.0254 -22.3633 76.0254 -30.957 C 76.0254 -33.3496 74.4629 -34.9609 72.1191 -34.9609 C 70.0195 -34.9609 68.6523 -33.7402 68.1641 -31.3477 C 67.4316 -25.9766 62.9883 -21.1426 56.5918 -21.1426 L 56.5918 -34.9121 L 66.1621 -38.7207 C 67.1875 -39.1602 67.6758 -39.8438 67.6758 -40.8691 C 67.6758 -42.1387 66.8457 -43.0664 65.5273 -43.0664 C 65.1367 -43.0664 64.6973 -42.9199 64.2578 -42.7734 L 56.5918 -39.6973 L 56.5918 -43.9453 L 66.1621 -47.7539 C 67.1875 -48.1445 67.6758 -48.8281 67.6758 -49.8535 C 67.6758 -51.123 66.8457 -52.0508 65.5273 -52.0508 C 65.1367 -52.0508 64.6973 -51.9531 64.2578 -51.7578 L 56.5918 -48.6816 L 56.5918 -53.8574 C 56.5918 -56.4453 54.9316 -58.1055 52.5391 -58.1055 C 50.1465 -58.1055 48.4863 -56.4453 48.4863 -53.8574 L 48.4863 -45.6055 L 42.7246 -43.3105 C 41.748 -42.9199 41.2598 -42.2363 41.2598 -41.2109 C 41.2598 -39.9414 42.0898 -39.0137 43.3594 -39.0137 C 43.7988 -39.0137 44.2383 -39.1602 44.6777 -39.3066 L 48.4863 -40.8691 L 48.4863 -36.6211 L 42.7246 -34.3262 C 41.748 -33.9355 41.2598 -33.252 41.2598 -32.2266 C 41.2598 -30.957 42.0898 -30.0293 43.3594 -30.0293 C 43.7988 -30.0293 44.2383 -30.127 44.6777 -30.3223 L 48.4863 -31.8359 L 48.4863 -18.8477 C 48.4863 -15.5273 50.6348 -13.3301 54.541 -13.3301 Z"/>
  </g>
  <g id="Medium-M" transform="matrix(1 0 0 1 1688.47 1126)">
   <path d="M 28.5156 10.4492 L 87.6465 10.4492 C 98.2422 10.4492 103.711 4.98047 103.711 -5.46875 L 103.711 -64.8926 C 103.711 -75.3418 98.2422 -80.8105 87.6465 -80.8105 L 28.5156 -80.8105 C 17.9688 -80.8105 12.4512 -75.3906 12.4512 -64.8926 L 12.4512 -5.46875 C 12.4512 4.98047 17.9688 10.4492 28.5156 10.4492 Z M 29.1504 0.732422 C 24.6582 0.732422 22.168 -1.61133 22.168 -6.34766 L 22.168 -64.0137 C 22.168 -68.75 24.6582 -71.0938 29.1504 -71.0938 L 87.0117 -71.0938 C 91.4551 -71.0938 93.9941 -68.75 93.9941 -64.0137 L 93.9941 -6.34766 C 93.9941 -1.61133 91.4551 0.732422 87.0117 0.732422 Z M 53.4668 -12.793 C 67.2363 -12.793 75.293 -22.6562 75.293 -31.3477 C 75.293 -33.5938 73.9258 -35.0586 71.8262 -35.0586 C 69.9707 -35.0586 68.7012 -33.9355 68.2617 -31.6406 C 67.4805 -25.4883 62.5 -19.9219 55.4688 -19.9219 L 55.4688 -34.4727 L 65.2832 -38.5254 C 66.3574 -38.9648 66.8457 -39.6484 66.8457 -40.6738 C 66.8457 -41.9922 65.9668 -42.9688 64.6484 -42.9688 C 64.2578 -42.9688 63.8184 -42.8223 63.3789 -42.6758 L 55.4688 -39.4043 L 55.4688 -43.8477 L 65.2832 -47.8516 C 66.3574 -48.291 66.8457 -48.9746 66.8457 -50.0488 C 66.8457 -51.3672 65.9668 -52.2949 64.6484 -52.2949 C 64.2578 -52.2949 63.8184 -52.1973 63.3789 -52.002 L 55.4688 -48.7793 L 55.4688 -54.3945 C 55.4688 -56.7383 54.0039 -58.2031 51.8555 -58.2031 C 49.707 -58.2031 48.2422 -56.7383 48.2422 -54.3945 L 48.2422 -45.9473 L 42.4805 -43.6035 C 41.4062 -43.1152 40.918 -42.4316 40.918 -41.4062 C 40.918 -40.0879 41.7969 -39.1113 43.1152 -39.1113 C 43.5547 -39.1113 43.9453 -39.2578 44.3848 -39.4043 L 48.2422 -41.0156 L 48.2422 -36.6211 L 42.4805 -34.2285 C 41.4062 -33.7891 40.918 -33.1055 40.918 -32.0312 C 40.918 -30.7617 41.7969 -29.7852 43.1152 -29.7852 C 43.5547 -29.7852 43.9453 -29.8828 44.3848 -30.0781 L 48.2422 -31.6895 L 48.2422 -17.5781 C 48.2422 -14.7461 50.0488 -12.793 53.4668 -12.793 Z"/>
  </g>
  <g id="Regular-M" transform="matrix(1 0 0 1 1392.45 1126)">
   <path d="M 27.7832 9.76562 L 87.0117 9.76562 C 97.2656 9.76562 102.344 4.6875 102.344 -5.37109 L 102.344 -64.9902 C 102.344 -75.0488 97.2656 -80.127 87.0117 -80.127 L 27.7832 -80.127 C 17.5781 -80.127 12.4512 -75.0977 12.4512 -64.9902 L 12.4512 -5.37109 C 12.4512 4.73633 17.5781 9.76562 27.7832 9.76562 Z M 27.8809 1.9043 C 22.998 1.9043 20.3125 -0.683594 20.3125 -5.76172 L 20.3125 -64.5996 C 20.3125 -69.6777 22.998 -72.2656 27.8809 -72.2656 L 86.9141 -72.2656 C 91.748 -72.2656 94.4824 -69.6777 94.4824 -64.5996 L 94.4824 -5.76172 C 94.4824 -0.683594 91.748 1.9043 86.9141 1.9043 Z M 52.0508 -12.0605 C 66.1133 -12.0605 74.3164 -23.0957 74.3164 -31.8848 C 74.3164 -33.8867 73.1934 -35.1562 71.4355 -35.1562 C 69.873 -35.1562 68.75 -34.2285 68.4082 -31.9824 C 67.5293 -24.8535 61.9141 -18.3594 53.9551 -18.3594 L 53.9551 -33.9355 L 64.1602 -38.1836 C 65.2832 -38.6719 65.7715 -39.4043 65.7715 -40.4785 C 65.7715 -41.8457 64.8438 -42.8223 63.4766 -42.8223 C 63.0859 -42.8223 62.6465 -42.7246 62.2559 -42.5781 L 53.9551 -39.0625 L 53.9551 -43.7012 L 64.1602 -47.9492 C 65.2832 -48.4863 65.7715 -49.1699 65.7715 -50.2441 C 65.7715 -51.6113 64.8438 -52.6367 63.4766 -52.6367 C 63.0859 -52.6367 62.6465 -52.4902 62.2559 -52.3438 L 53.9551 -48.877 L 53.9551 -55.0781 C 53.9551 -57.0801 52.7832 -58.3496 50.9766 -58.3496 C 49.1211 -58.3496 47.9492 -57.0801 47.9492 -55.0781 L 47.9492 -46.3867 L 42.1387 -43.8965 C 40.9668 -43.4082 40.5273 -42.7246 40.5273 -41.6016 C 40.5273 -40.2344 41.4551 -39.2578 42.8223 -39.2578 C 43.2129 -39.2578 43.6035 -39.3555 44.043 -39.5508 L 47.9492 -41.2109 L 47.9492 -36.5723 L 42.1387 -34.1309 C 40.9668 -33.6426 40.5273 -32.9102 40.5273 -31.8359 C 40.5273 -30.4688 41.4551 -29.4922 42.8223 -29.4922 C 43.2129 -29.4922 43.6035 -29.5898 44.043 -29.7363 L 47.9492 -31.4453 L 47.9492 -15.918 C 47.9492 -13.6719 49.3164 -12.0605 52.0508 -12.0605 Z"/>
  </g>
  <g id="Light-M" transform="matrix(1 0 0 1 1096.47 1126)">
   <path d="M 26.8555 9.0332 L 86.4746 9.0332 C 95.9961 9.0332 100.879 4.15039 100.879 -5.22461 L 100.879 -65.0879 C 100.879 -74.5117 95.9961 -79.3945 86.4746 -79.3945 L 26.8555 -79.3945 C 17.334 -79.3945 12.4512 -74.5605 12.4512 -65.0879 L 12.4512 -5.22461 C 12.4512 4.19922 17.334 9.0332 26.8555 9.0332 Z M 26.9531 2.97852 C 21.4844 2.97852 18.5059 0.0976562 18.5059 -5.56641 L 18.5059 -64.7949 C 18.5059 -70.4102 21.4844 -73.3398 26.9531 -73.3398 L 86.3281 -73.3398 C 91.748 -73.3398 94.8242 -70.4102 94.8242 -64.7949 L 94.8242 -5.56641 C 94.8242 0.0976562 91.748 2.97852 86.3281 2.97852 Z M 51.3184 -12.793 C 64.3066 -12.793 72.5586 -22.998 72.5586 -31.9336 C 72.5586 -33.5449 71.6309 -34.5703 70.2148 -34.5703 C 68.8477 -34.5703 68.0176 -33.7402 67.7734 -32.0312 C 67.1875 -24.6094 61.0352 -17.8223 52.8809 -17.8223 L 52.8809 -33.7891 L 63.5742 -38.4277 C 64.502 -38.8184 64.8926 -39.4043 64.8926 -40.332 C 64.8926 -41.4551 64.1113 -42.2852 62.9883 -42.2852 C 62.6465 -42.2852 62.3047 -42.1875 61.9629 -42.041 L 52.8809 -38.0859 L 52.8809 -43.1152 L 63.5742 -47.7539 C 64.502 -48.1445 64.8926 -48.7305 64.8926 -49.6582 C 64.8926 -50.7812 64.1113 -51.6113 62.9883 -51.6113 C 62.6465 -51.6113 62.3047 -51.5137 61.9629 -51.3184 L 52.8809 -47.4121 L 52.8809 -54.9316 C 52.8809 -56.543 51.9531 -57.5195 50.4883 -57.5195 C 49.0234 -57.5195 48.0957 -56.543 48.0957 -54.9316 L 48.0957 -45.4102 L 42.1387 -42.8223 C 41.1621 -42.3828 40.8203 -41.8457 40.8203 -40.918 C 40.8203 -39.7949 41.6016 -38.9648 42.7246 -38.9648 C 43.0664 -38.9648 43.4082 -39.0625 43.75 -39.209 L 48.0957 -41.1133 L 48.0957 -36.084 L 42.1387 -33.4961 C 41.1621 -33.1055 40.8203 -32.5195 40.8203 -31.5918 C 40.8203 -30.4688 41.6016 -29.6387 42.7246 -29.6387 C 43.0664 -29.6387 43.4082 -29.7363 43.75 -29.8828 L 48.0957 -31.7871 L 48.0957 -15.8691 C 48.0957 -14.0625 49.1699 -12.793 51.3184 -12.793 Z"/>
  </g>
  <g id="Thin-M" transform="matrix(1 0 0 1 800.758 1126)">
   <path d="M 25.6348 8.05664 L 85.7422 8.05664 C 94.3848 8.05664 98.877 3.4668 98.877 -5.0293 L 98.877 -65.2344 C 98.877 -73.7305 94.3848 -78.3691 85.7422 -78.3691 L 25.6348 -78.3691 C 16.9922 -78.3691 12.4512 -73.877 12.4512 -65.2344 L 12.4512 -5.0293 C 12.4512 3.56445 16.9922 8.05664 25.6348 8.05664 Z M 25.7324 4.44336 C 19.3848 4.44336 16.0645 1.12305 16.0645 -5.22461 L 16.0645 -65.0391 C 16.0645 -71.4355 19.3848 -74.7559 25.7324 -74.7559 L 85.5957 -74.7559 C 91.748 -74.7559 95.2637 -71.4355 95.2637 -65.0391 L 95.2637 -5.22461 C 95.2637 1.12305 91.748 4.44336 85.5957 4.44336 Z M 50.3906 -13.7695 C 61.9629 -13.7695 70.166 -22.8516 70.166 -32.0312 C 70.166 -33.1055 69.6289 -33.8379 68.5547 -33.8379 C 67.5781 -33.8379 67.041 -33.1543 66.9434 -32.0801 C 66.748 -24.3164 59.8633 -17.0898 51.4648 -17.0898 L 51.4648 -33.6426 L 62.793 -38.7207 C 63.4766 -39.0137 63.7207 -39.4043 63.7207 -40.0879 C 63.7207 -40.918 63.1348 -41.5527 62.3047 -41.5527 C 62.0605 -41.5527 61.8652 -41.4551 61.5234 -41.3086 L 51.4648 -36.8164 L 51.4648 -42.334 L 62.793 -47.4121 C 63.4766 -47.7539 63.7207 -48.1445 63.7207 -48.7793 C 63.7207 -49.6094 63.1348 -50.2441 62.3047 -50.2441 C 62.0605 -50.2441 61.8652 -50.1465 61.5234 -50.0488 L 51.4648 -45.5078 L 51.4648 -54.7363 C 51.4648 -55.8594 50.8301 -56.4453 49.8535 -56.4453 C 48.877 -56.4453 48.2422 -55.8594 48.2422 -54.7363 L 48.2422 -44.0918 L 42.1387 -41.3574 C 41.4551 -41.0645 41.2109 -40.6738 41.2109 -39.9902 C 41.2109 -39.1602 41.7969 -38.5742 42.627 -38.5742 C 42.9199 -38.5742 43.0664 -38.623 43.4082 -38.7695 L 48.2422 -40.918 L 48.2422 -35.4004 L 42.1387 -32.666 C 41.4551 -32.373 41.2109 -31.9824 41.2109 -31.2988 C 41.2109 -30.4688 41.7969 -29.8828 42.627 -29.8828 C 42.9199 -29.8828 43.0664 -29.9316 43.4082 -30.0781 L 48.2422 -32.2266 L 48.2422 -15.7227 C 48.2422 -14.5996 49.0234 -13.7695 50.3906 -13.7695 Z"/>
  </g>
  <g id="Ultralight-M" transform="matrix(1 0 0 1 504.535 1126)">
   <path d="M 25 7.56836 L 85.3516 7.56836 C 93.5059 7.56836 97.9004 3.125 97.9004 -4.98047 L 97.9004 -65.2832 C 97.9004 -73.3887 93.5059 -77.832 85.3516 -77.832 L 25 -77.832 C 16.7969 -77.832 12.4512 -73.4863 12.4512 -65.2832 L 12.4512 -4.98047 C 12.4512 3.22266 16.7969 7.56836 25 7.56836 Z M 25.0977 5.17578 C 18.3594 5.17578 14.8438 1.66016 14.8438 -5.07812 L 14.8438 -65.1855 C 14.8438 -71.9727 18.3594 -75.4395 25.0977 -75.4395 L 85.2051 -75.4395 C 91.748 -75.4395 95.5078 -71.9727 95.5078 -65.1855 L 95.5078 -5.07812 C 95.5078 1.66016 91.748 5.17578 85.2051 5.17578 Z M 49.9023 -14.3066 C 60.7422 -14.3066 68.9453 -22.8027 68.9453 -32.0801 C 68.9453 -32.8613 68.6035 -33.3984 67.7246 -33.3984 C 66.8945 -33.3984 66.5039 -32.8613 66.5039 -32.0801 C 66.5527 -24.1699 59.2773 -16.6992 50.7324 -16.6992 L 50.7324 -33.5938 L 62.4023 -38.8672 C 62.9883 -39.1113 63.1348 -39.4531 63.1348 -39.9902 C 63.1348 -40.6738 62.6465 -41.1621 61.9629 -41.1621 C 61.7188 -41.1621 61.6211 -41.1133 61.3281 -40.9668 L 50.7324 -36.1328 L 50.7324 -41.9434 L 62.4023 -47.2656 C 62.9883 -47.5098 63.1348 -47.8027 63.1348 -48.3887 C 63.1348 -49.0723 62.6465 -49.5605 61.9629 -49.5605 C 61.7188 -49.5605 61.6211 -49.4629 61.3281 -49.3652 L 50.7324 -44.5312 L 50.7324 -54.6387 C 50.7324 -55.4688 50.2441 -55.9082 49.5117 -55.9082 C 48.7793 -55.9082 48.291 -55.4688 48.291 -54.6387 L 48.291 -43.457 L 42.1387 -40.625 C 41.6016 -40.3809 41.4062 -40.0879 41.4062 -39.502 C 41.4062 -38.8672 41.8945 -38.3789 42.5781 -38.3789 C 42.8223 -38.3789 42.9199 -38.4277 43.2617 -38.5254 L 48.291 -40.8691 L 48.291 -35.0586 L 42.1387 -32.2266 C 41.6016 -31.9824 41.4062 -31.6895 41.4062 -31.1523 C 41.4062 -30.4688 41.8945 -29.9805 42.5781 -29.9805 C 42.8223 -29.9805 42.9199 -30.0293 43.2617 -30.1758 L 48.291 -32.4707 L 48.291 -15.6738 C 48.291 -14.8438 48.9258 -14.3066 49.9023 -14.3066 Z"/>
  </g>
  <g id="Black-S" transform="matrix(1 0 0 1 2885.5 696)">
   <path d="M 25 2.92969 L 70.8008 2.92969 C 80.3711 2.92969 86.0352 -2.73438 86.0352 -12.3047 L 86.0352 -58.1055 C 86.0352 -67.6758 80.3711 -73.3398 70.8008 -73.3398 L 25 -73.3398 C 15.4297 -73.3398 9.76562 -67.6758 9.76562 -58.1055 L 9.76562 -12.3047 C 9.76562 -2.73438 15.4297 2.92969 25 2.92969 Z M 27.2461 -11.2305 C 25 -11.2305 23.9258 -12.1094 23.9258 -14.5508 L 23.9258 -55.8594 C 23.9258 -58.3008 25 -59.1797 27.2461 -59.1797 L 68.5547 -59.1797 C 70.8008 -59.1797 71.875 -58.3008 71.875 -55.8594 L 71.875 -14.5508 C 71.875 -12.1094 70.8008 -11.2305 68.5547 -11.2305 Z M 46.7773 -20.166 C 56.5918 -20.166 62.3535 -23.9746 62.3535 -30.3711 C 62.3535 -32.9102 60.498 -34.7168 57.6172 -34.7168 C 55.127 -34.7168 53.6621 -33.3008 53.0273 -31.1523 C 52.6367 -29.7852 51.0742 -28.6621 48.584 -28.6621 L 48.584 -36.6211 L 55.127 -38.8672 C 55.7129 -39.0625 56.1035 -39.5508 56.1035 -40.2344 C 56.1035 -41.0645 55.5664 -41.6992 54.6875 -41.6992 C 54.3457 -41.6992 53.9551 -41.6016 53.5645 -41.4551 L 48.584 -39.7461 L 48.584 -42.4316 L 55.127 -44.6777 C 55.7129 -44.873 56.1035 -45.3613 56.1035 -46.0449 C 56.1035 -46.875 55.5664 -47.5098 54.6875 -47.5098 C 54.3457 -47.5098 53.9551 -47.4121 53.5645 -47.2656 L 48.584 -45.5566 L 48.584 -47.8027 C 48.584 -50.8301 46.4844 -52.7344 43.7012 -52.7344 C 40.918 -52.7344 38.8672 -50.8301 38.8672 -47.8027 L 38.8672 -42.1875 L 34.4727 -40.6738 C 33.8867 -40.4785 33.4961 -39.9902 33.4961 -39.3066 C 33.4961 -38.4766 34.0332 -37.8418 34.9121 -37.8418 C 35.2539 -37.8418 35.6445 -37.9395 36.0352 -38.0859 L 38.8672 -39.0625 L 38.8672 -36.377 L 34.4727 -34.8633 C 33.8867 -34.668 33.4961 -34.1797 33.4961 -33.4961 C 33.4961 -32.666 34.0332 -32.0312 34.9121 -32.0312 C 35.2539 -32.0312 35.6445 -32.1289 36.0352 -32.2754 L 38.8672 -33.252 L 38.8672 -27.0996 C 38.8672 -22.7539 41.7969 -20.166 46.7773 -20.166 Z"/>
  </g>
  <g id="Heavy-S" transform="matrix(1 0 0 1 2589.4 696)">
   <path d="M 24.3652 2.34375 L 70.2637 2.34375 C 79.541 2.34375 84.8145 -2.97852 84.8145 -12.207 L 84.8145 -58.2031 C 84.8145 -67.4316 79.541 -72.7539 70.2637 -72.7539 L 24.3652 -72.7539 C 15.0879 -72.7539 9.76562 -67.4316 9.76562 -58.2031 L 9.76562 -12.207 C 9.76562 -2.97852 15.0879 2.34375 24.3652 2.34375 Z M 26.0742 -10.1562 C 23.5352 -10.1562 22.2656 -11.2793 22.2656 -14.0137 L 22.2656 -56.3965 C 22.2656 -59.1309 23.5352 -60.2539 26.0742 -60.2539 L 68.5059 -60.2539 C 71.0449 -60.2539 72.3633 -59.1309 72.3633 -56.3965 L 72.3633 -14.0137 C 72.3633 -11.2793 71.0449 -10.1562 68.5059 -10.1562 Z M 45.459 -19.3359 C 55.6641 -19.3359 61.5723 -24.4141 61.5723 -30.9082 C 61.5723 -33.252 59.9121 -34.9121 57.373 -34.9121 C 55.127 -34.9121 53.8086 -33.6426 53.2227 -31.4941 C 52.7344 -29.1992 50.5859 -27.1484 47.2168 -27.1484 L 47.2168 -36.084 L 54.0527 -38.5254 C 54.7363 -38.7695 55.127 -39.3066 55.127 -40.0391 C 55.127 -40.9668 54.541 -41.6504 53.5645 -41.6504 C 53.2227 -41.6504 52.832 -41.5527 52.4902 -41.4062 L 47.2168 -39.502 L 47.2168 -42.3828 L 54.0527 -44.8242 C 54.7363 -45.0684 55.127 -45.6055 55.127 -46.3379 C 55.127 -47.2656 54.541 -47.9492 53.5645 -47.9492 C 53.2227 -47.9492 52.832 -47.8516 52.4902 -47.7051 L 47.2168 -45.8008 L 47.2168 -48.5352 C 47.2168 -51.2695 45.3613 -52.9785 42.8711 -52.9785 C 40.3809 -52.9785 38.5254 -51.2695 38.5254 -48.5352 L 38.5254 -42.7246 L 34.1309 -41.1133 C 33.4473 -40.8691 33.0566 -40.332 33.0566 -39.5996 C 33.0566 -38.6719 33.6426 -37.9883 34.6191 -37.9883 C 34.9609 -37.9883 35.3027 -38.0859 35.6934 -38.2324 L 38.5254 -39.2578 L 38.5254 -36.4258 L 34.1309 -34.8145 C 33.4473 -34.5703 33.0566 -34.0332 33.0566 -33.3008 C 33.0566 -32.373 33.6426 -31.6895 34.6191 -31.6895 C 34.9609 -31.6895 35.3027 -31.7871 35.6934 -31.9336 L 38.5254 -32.959 L 38.5254 -25.4395 C 38.5254 -21.6797 41.0645 -19.3359 45.459 -19.3359 Z"/>
  </g>
  <g id="Bold-S" transform="matrix(1 0 0 1 2293.35 696)">
   <path d="M 23.6328 1.66016 L 69.6289 1.66016 C 78.6133 1.66016 83.4961 -3.22266 83.4961 -12.1094 L 83.4961 -58.3008 C 83.4961 -67.1875 78.6133 -72.0703 69.6289 -72.0703 L 23.6328 -72.0703 C 14.6973 -72.0703 9.76562 -67.1875 9.76562 -58.3008 L 9.76562 -12.1094 C 9.76562 -3.22266 14.6973 1.66016 23.6328 1.66016 Z M 24.8047 -8.93555 C 21.9238 -8.93555 20.3613 -10.3516 20.3613 -13.4277 L 20.3613 -56.9824 C 20.3613 -60.0586 21.9238 -61.4746 24.8047 -61.4746 L 68.457 -61.4746 C 71.3379 -61.4746 72.9004 -60.0586 72.9004 -56.9824 L 72.9004 -13.4277 C 72.9004 -10.3516 71.3379 -8.93555 68.457 -8.93555 Z M 43.9453 -18.457 C 54.6387 -18.457 60.7422 -24.8535 60.7422 -31.4941 C 60.7422 -33.5938 59.2773 -35.1074 57.0801 -35.1074 C 55.1758 -35.1074 53.9551 -33.9844 53.4668 -31.9336 C 52.832 -28.5156 50 -25.4883 45.7031 -25.4883 L 45.7031 -35.4492 L 52.832 -38.1348 C 53.6133 -38.4766 54.0527 -39.0137 54.0527 -39.8438 C 54.0527 -40.8203 53.3691 -41.6016 52.3438 -41.6016 C 52.002 -41.6016 51.6113 -41.5039 51.2695 -41.3574 L 45.7031 -39.209 L 45.7031 -42.2852 L 52.832 -45.0195 C 53.6133 -45.3125 54.0527 -45.8496 54.0527 -46.6797 C 54.0527 -47.7051 53.3691 -48.4375 52.3438 -48.4375 C 52.002 -48.4375 51.6113 -48.3398 51.2695 -48.1934 L 45.7031 -46.0938 L 45.7031 -49.3164 C 45.7031 -51.709 44.1406 -53.2227 41.9434 -53.2227 C 39.7461 -53.2227 38.1836 -51.709 38.1836 -49.3164 L 38.1836 -43.3105 L 33.7402 -41.6016 C 32.959 -41.3086 32.5195 -40.7715 32.5195 -39.9414 C 32.5195 -38.916 33.2031 -38.1836 34.2285 -38.1836 C 34.5703 -38.1836 34.9609 -38.2812 35.3516 -38.4277 L 38.1836 -39.502 L 38.1836 -36.4746 L 33.7402 -34.7656 C 32.959 -34.4727 32.5195 -33.8867 32.5195 -33.1055 C 32.5195 -32.0801 33.2031 -31.3477 34.2285 -31.3477 C 34.5703 -31.3477 34.9609 -31.4453 35.3516 -31.5918 L 38.1836 -32.666 L 38.1836 -23.6328 C 38.1836 -20.459 40.2344 -18.457 43.9453 -18.457 Z"/>
  </g>
  <g id="Semibold-S" transform="matrix(1 0 0 1 1997.1 696)">
   <path d="M 23.0957 1.17188 L 69.1895 1.17188 C 77.9297 1.17188 82.5684 -3.36914 82.5684 -12.0117 L 82.5684 -58.3984 C 82.5684 -67.041 77.9297 -71.582 69.1895 -71.582 L 23.0957 -71.582 C 14.4043 -71.582 9.76562 -67.041 9.76562 -58.3984 L 9.76562 -12.0117 C 9.76562 -3.36914 14.4043 1.17188 23.0957 1.17188 Z M 23.877 -8.10547 C 20.752 -8.10547 19.0918 -9.7168 19.0918 -12.9883 L 19.0918 -57.4219 C 19.0918 -60.6934 20.752 -62.3047 23.877 -62.3047 L 68.4082 -62.3047 C 71.5332 -62.3047 73.2422 -60.6934 73.2422 -57.4219 L 73.2422 -12.9883 C 73.2422 -9.7168 71.5332 -8.10547 68.4082 -8.10547 Z M 42.9199 -17.8223 C 53.9062 -17.8223 60.1562 -25.1953 60.1562 -31.8848 C 60.1562 -33.8867 58.8379 -35.2051 56.8848 -35.2051 C 55.1758 -35.2051 54.0527 -34.2285 53.6133 -32.1777 C 52.9297 -28.0273 49.6094 -24.3164 44.6289 -24.3164 L 44.6289 -35.0098 L 52.002 -37.8906 C 52.8809 -38.2324 53.2715 -38.8184 53.2715 -39.6973 C 53.2715 -40.7715 52.5391 -41.5527 51.4648 -41.5527 C 51.123 -41.5527 50.7324 -41.4551 50.3906 -41.3086 L 44.6289 -39.0625 L 44.6289 -42.2363 L 52.002 -45.1172 C 52.8809 -45.459 53.2715 -46.0449 53.2715 -46.9238 C 53.2715 -47.998 52.5391 -48.7793 51.4648 -48.7793 C 51.123 -48.7793 50.7324 -48.6816 50.3906 -48.5352 L 44.6289 -46.2891 L 44.6289 -49.9023 C 44.6289 -52.0508 43.2617 -53.418 41.3086 -53.418 C 39.3066 -53.418 37.9395 -52.0508 37.9395 -49.9023 L 37.9395 -43.7012 L 33.4961 -41.9434 C 32.6172 -41.6016 32.1777 -41.0156 32.1777 -40.1855 C 32.1777 -39.1113 32.9102 -38.3301 33.9844 -38.3301 C 34.3262 -38.3301 34.7168 -38.4277 35.0586 -38.5742 L 37.9395 -39.6973 L 37.9395 -36.4746 L 33.4961 -34.7168 C 32.6172 -34.375 32.1777 -33.7891 32.1777 -32.959 C 32.1777 -31.8848 32.9102 -31.1035 33.9844 -31.1035 C 34.3262 -31.1035 34.7168 -31.2012 35.0586 -31.3477 L 37.9395 -32.4707 L 37.9395 -22.3633 C 37.9395 -19.6289 39.6973 -17.8223 42.9199 -17.8223 Z"/>
  </g>
  <g id="Medium-S" transform="matrix(1 0 0 1 1700.75 696)">
   <path d="M 22.7051 0.830078 L 68.8965 0.830078 C 77.4414 0.830078 81.8359 -3.51562 81.8359 -11.9629 L 81.8359 -58.4473 C 81.8359 -66.8945 77.4414 -71.2402 68.8965 -71.2402 L 22.7051 -71.2402 C 14.209 -71.2402 9.76562 -66.8945 9.76562 -58.4473 L 9.76562 -11.9629 C 9.76562 -3.51562 14.209 0.830078 22.7051 0.830078 Z M 23.1934 -7.4707 C 19.9219 -7.4707 18.0664 -9.22852 18.0664 -12.6953 L 18.0664 -57.7148 C 18.0664 -61.1816 19.9219 -62.9395 23.1934 -62.9395 L 68.4082 -62.9395 C 71.6797 -62.9395 73.5352 -61.1816 73.5352 -57.7148 L 73.5352 -12.6953 C 73.5352 -9.22852 71.6797 -7.4707 68.4082 -7.4707 Z M 42.1387 -17.334 C 53.3691 -17.334 59.668 -25.4395 59.668 -32.1777 C 59.668 -34.082 58.4961 -35.3027 56.7383 -35.3027 C 55.2246 -35.3027 54.1504 -34.4238 53.7598 -32.4219 C 52.9785 -27.6855 49.3164 -23.4375 43.8477 -23.4375 L 43.8477 -34.668 L 51.3672 -37.6953 C 52.2949 -38.0859 52.6855 -38.6719 52.6855 -39.5508 C 52.6855 -40.6738 51.9531 -41.5039 50.8301 -41.5039 C 50.4883 -41.5039 50.0977 -41.4062 49.7559 -41.2598 L 43.8477 -38.916 L 43.8477 -42.1875 L 51.3672 -45.2148 C 52.2949 -45.6055 52.6855 -46.1914 52.6855 -47.0703 C 52.6855 -48.1934 51.9531 -49.0234 50.8301 -49.0234 C 50.4883 -49.0234 50.0977 -48.9258 49.7559 -48.7793 L 43.8477 -46.4355 L 43.8477 -50.293 C 43.8477 -52.2949 42.627 -53.5645 40.8203 -53.5645 C 38.9648 -53.5645 37.7441 -52.2949 37.7441 -50.293 L 37.7441 -44.043 L 33.252 -42.2363 C 32.373 -41.8457 31.9336 -41.2598 31.9336 -40.332 C 31.9336 -39.209 32.7148 -38.4277 33.8379 -38.4277 C 34.1797 -38.4277 34.5215 -38.4766 34.8633 -38.623 L 37.7441 -39.7949 L 37.7441 -36.5234 L 33.252 -34.7168 C 32.373 -34.3262 31.9336 -33.7402 31.9336 -32.8125 C 31.9336 -31.6895 32.7148 -30.9082 33.8379 -30.9082 C 34.1797 -30.9082 34.5215 -31.0059 34.8633 -31.1523 L 37.7441 -32.2754 L 37.7441 -21.3867 C 37.7441 -18.9941 39.2578 -17.334 42.1387 -17.334 Z"/>
  </g>
  <g id="Regular-S" transform="matrix(1 0 0 1 1404.51 696)">
   <path d="M 22.2168 0.390625 L 68.457 0.390625 C 76.8066 0.390625 80.9082 -3.71094 80.9082 -11.9141 L 80.9082 -58.4961 C 80.9082 -66.6992 76.8066 -70.8008 68.457 -70.8008 L 22.2168 -70.8008 C 13.916 -70.8008 9.76562 -66.6992 9.76562 -58.4961 L 9.76562 -11.9141 C 9.76562 -3.71094 13.916 0.390625 22.2168 0.390625 Z M 22.3145 -6.68945 C 18.7988 -6.68945 16.7969 -8.54492 16.7969 -12.2559 L 16.7969 -58.1543 C 16.7969 -61.8164 18.7988 -63.7207 22.3145 -63.7207 L 68.3594 -63.7207 C 71.875 -63.7207 73.877 -61.8164 73.877 -58.1543 L 73.877 -12.2559 C 73.877 -8.54492 71.875 -6.68945 68.3594 -6.68945 Z M 41.1621 -16.6992 C 52.6367 -16.6992 59.082 -25.7812 59.082 -32.5684 C 59.082 -34.3262 58.0566 -35.4492 56.543 -35.4492 C 55.2246 -35.4492 54.248 -34.668 53.9062 -32.666 C 53.0762 -27.1973 48.9258 -22.2656 42.8223 -22.2656 L 42.8223 -34.2773 L 50.5371 -37.4512 C 51.5625 -37.8418 51.9531 -38.4766 51.9531 -39.4043 C 51.9531 -40.625 51.1719 -41.4551 49.9512 -41.4551 C 49.6582 -41.4551 49.2676 -41.3574 48.9258 -41.2109 L 42.8223 -38.7207 L 42.8223 -42.1387 L 50.5371 -45.3125 C 51.5625 -45.752 51.9531 -46.3867 51.9531 -47.3145 C 51.9531 -48.4863 51.1719 -49.3652 49.9512 -49.3652 C 49.6582 -49.3652 49.2676 -49.2676 48.9258 -49.1211 L 42.8223 -46.582 L 42.8223 -50.8789 C 42.8223 -52.5879 41.748 -53.7109 40.1367 -53.7109 C 38.5742 -53.7109 37.5 -52.5879 37.5 -50.8789 L 37.5 -44.4336 L 33.0078 -42.5781 C 32.0312 -42.1387 31.5918 -41.5039 31.5918 -40.5762 C 31.5918 -39.4043 32.373 -38.5254 33.5938 -38.5254 C 33.9355 -38.5254 34.2773 -38.623 34.6191 -38.7695 L 37.5 -39.9902 L 37.5 -36.5234 L 33.0078 -34.668 C 32.0312 -34.2285 31.5918 -33.6426 31.5918 -32.666 C 31.5918 -31.4941 32.373 -30.6641 33.5938 -30.6641 C 33.9355 -30.6641 34.2773 -30.7129 34.6191 -30.8594 L 37.5 -32.0801 L 37.5 -20.166 C 37.5 -18.1641 38.7207 -16.6992 41.1621 -16.6992 Z"/>
  </g>
  <g id="Light-S" transform="matrix(1 0 0 1 1108.46 696)">
   <path d="M 21.3867 -0.292969 L 67.9688 -0.292969 C 75.7324 -0.292969 79.5898 -4.15039 79.5898 -11.7676 L 79.5898 -58.5938 C 79.5898 -66.2109 75.7324 -70.1172 67.9688 -70.1172 L 21.3867 -70.1172 C 13.6719 -70.1172 9.76562 -66.2598 9.76562 -58.5938 L 9.76562 -11.7676 C 9.76562 -4.15039 13.6719 -0.292969 21.3867 -0.292969 Z M 21.4844 -5.71289 C 17.4316 -5.71289 15.1855 -7.86133 15.1855 -12.0605 L 15.1855 -58.3008 C 15.1855 -62.5 17.4316 -64.6973 21.4844 -64.6973 L 67.8711 -64.6973 C 71.875 -64.6973 74.1699 -62.5 74.1699 -58.3008 L 74.1699 -12.0605 C 74.1699 -7.86133 71.875 -5.71289 67.8711 -5.71289 Z M 40.4785 -17.3828 C 51.0742 -17.3828 57.5195 -25.6836 57.5195 -32.6172 C 57.5195 -34.0332 56.7383 -34.9609 55.4688 -34.9609 C 54.3457 -34.9609 53.5645 -34.2285 53.3691 -32.7148 C 52.7832 -27.002 48.1445 -21.7773 41.8457 -21.7773 L 41.8457 -34.1797 L 50.0488 -37.6465 C 50.8301 -37.9883 51.1719 -38.4766 51.1719 -39.2578 C 51.1719 -40.2832 50.4883 -40.9668 49.5117 -40.9668 C 49.2188 -40.9668 48.9746 -40.8691 48.6328 -40.7715 L 41.8457 -37.8418 L 41.8457 -41.6504 L 50.0488 -45.1172 C 50.8301 -45.459 51.1719 -45.9473 51.1719 -46.7773 C 51.1719 -47.7539 50.4883 -48.4375 49.5117 -48.4375 C 49.2188 -48.4375 48.9746 -48.3398 48.6328 -48.2422 L 41.8457 -45.3125 L 41.8457 -50.7324 C 41.8457 -52.1484 41.0156 -53.0273 39.7461 -53.0273 C 38.4766 -53.0273 37.5977 -52.1484 37.5977 -50.7324 L 37.5977 -43.5547 L 33.0078 -41.6016 C 32.1777 -41.2109 31.8359 -40.7227 31.8359 -39.9414 C 31.8359 -38.9648 32.5195 -38.2812 33.4961 -38.2812 C 33.7891 -38.2812 34.082 -38.3301 34.375 -38.4766 L 37.5977 -39.8926 L 37.5977 -36.084 L 33.0078 -34.1309 C 32.1777 -33.7402 31.8359 -33.252 31.8359 -32.4707 C 31.8359 -31.4941 32.5195 -30.8105 33.4961 -30.8105 C 33.7891 -30.8105 34.082 -30.8594 34.375 -31.0059 L 37.5977 -32.373 L 37.5977 -20.0684 C 37.5977 -18.5059 38.5742 -17.3828 40.4785 -17.3828 Z"/>
  </g>
  <g id="Thin-S" transform="matrix(1 0 0 1 812.599 696)">
   <path d="M 20.3125 -1.12305 L 67.334 -1.12305 C 74.2676 -1.12305 77.8809 -4.78516 77.8809 -11.6211 L 77.8809 -58.6914 C 77.8809 -65.5762 74.2676 -69.2383 67.334 -69.2383 L 20.3125 -69.2383 C 13.3789 -69.2383 9.76562 -65.625 9.76562 -58.6914 L 9.76562 -11.6211 C 9.76562 -4.6875 13.3789 -1.12305 20.3125 -1.12305 Z M 20.4102 -4.44336 C 15.625 -4.44336 13.0859 -6.93359 13.0859 -11.8164 L 13.0859 -58.5449 C 13.0859 -63.3789 15.625 -65.918 20.4102 -65.918 L 67.2363 -65.918 C 71.875 -65.918 74.5605 -63.3789 74.5605 -58.5449 L 74.5605 -11.8164 C 74.5605 -6.93359 71.875 -4.44336 67.2363 -4.44336 Z M 39.6484 -18.2617 C 48.9746 -18.2617 55.4199 -25.5859 55.4199 -32.7148 C 55.4199 -33.6426 54.9316 -34.2773 54.0527 -34.2773 C 53.1738 -34.2773 52.6855 -33.7402 52.6367 -32.7148 C 52.3926 -26.7578 47.1191 -21.1426 40.5762 -21.1426 L 40.5762 -34.0332 L 49.3652 -37.8906 C 49.9512 -38.1836 50.1465 -38.5254 50.1465 -39.1113 C 50.1465 -39.7949 49.6582 -40.332 48.9746 -40.332 C 48.7305 -40.332 48.5352 -40.2344 48.291 -40.1367 L 40.5762 -36.7188 L 40.5762 -40.9668 L 49.3652 -44.873 C 49.9512 -45.1172 50.1465 -45.459 50.1465 -46.0449 C 50.1465 -46.7285 49.6582 -47.2656 48.9746 -47.2656 C 48.7305 -47.2656 48.5352 -47.168 48.291 -47.0703 L 40.5762 -43.6523 L 40.5762 -50.5371 C 40.5762 -51.5137 40.0391 -52.0508 39.1602 -52.0508 C 38.3301 -52.0508 37.7441 -51.5137 37.7441 -50.5371 L 37.7441 -42.4316 L 33.0078 -40.332 C 32.4219 -40.0391 32.1777 -39.6973 32.1777 -39.1602 C 32.1777 -38.4277 32.7148 -37.9395 33.3984 -37.9395 C 33.6426 -37.9395 33.8379 -37.9883 34.082 -38.0859 L 37.7441 -39.7461 L 37.7441 -35.498 L 33.0078 -33.3984 C 32.4219 -33.1055 32.1777 -32.7637 32.1777 -32.2266 C 32.1777 -31.4941 32.7148 -30.957 33.3984 -30.957 C 33.6426 -30.957 33.8379 -31.0547 34.082 -31.1523 L 37.7441 -32.8125 L 37.7441 -19.9707 C 37.7441 -18.9453 38.4277 -18.2617 39.6484 -18.2617 Z"/>
  </g>
  <g id="Ultralight-S" transform="matrix(1 0 0 1 516.352 696)">
   <path d="M 19.7754 -1.5625 L 66.9922 -1.5625 C 73.5352 -1.5625 76.9531 -5.12695 76.9531 -11.5234 L 76.9531 -58.7891 C 76.9531 -65.2344 73.5352 -68.75 66.9922 -68.75 L 19.7754 -68.75 C 13.2324 -68.75 9.76562 -65.2832 9.76562 -58.7891 L 9.76562 -11.5234 C 9.76562 -5.0293 13.2324 -1.5625 19.7754 -1.5625 Z M 19.873 -3.75977 C 14.6484 -3.75977 11.9629 -6.44531 11.9629 -11.6699 L 11.9629 -58.6426 C 11.9629 -63.8672 14.6484 -66.5527 19.873 -66.5527 L 66.8945 -66.5527 C 71.875 -66.5527 74.7559 -63.8672 74.7559 -58.6426 L 74.7559 -11.6699 C 74.7559 -6.44531 71.875 -3.75977 66.8945 -3.75977 Z M 39.209 -18.7012 C 47.9004 -18.7012 54.3457 -25.4883 54.3457 -32.7637 C 54.3457 -33.4473 54.0039 -33.9355 53.2715 -33.9355 C 52.5879 -33.9355 52.2461 -33.4473 52.2461 -32.7637 C 52.1973 -26.6113 46.582 -20.8496 39.9414 -20.8496 L 39.9414 -33.9355 L 49.0234 -38.0371 C 49.4629 -38.2812 49.6094 -38.5254 49.6094 -38.9648 C 49.6094 -39.5508 49.2188 -39.9902 48.6328 -39.9902 C 48.4375 -39.9902 48.3398 -39.9414 48.0957 -39.7949 L 39.9414 -36.1328 L 39.9414 -40.625 L 49.0234 -44.7266 C 49.4629 -44.9219 49.6094 -45.166 49.6094 -45.6543 C 49.6094 -46.1914 49.2188 -46.6309 48.6328 -46.6309 C 48.4375 -46.6309 48.3398 -46.582 48.0957 -46.4844 L 39.9414 -42.7734 L 39.9414 -50.4395 C 39.9414 -51.1719 39.502 -51.5625 38.8672 -51.5625 C 38.2324 -51.5625 37.8418 -51.1719 37.8418 -50.4395 L 37.8418 -41.8457 L 33.0078 -39.6484 C 32.5195 -39.4531 32.373 -39.1602 32.373 -38.7207 C 32.373 -38.1348 32.8125 -37.7441 33.3496 -37.7441 C 33.5449 -37.7441 33.6914 -37.793 33.9355 -37.8906 L 37.8418 -39.6484 L 37.8418 -35.1562 L 33.0078 -33.0078 C 32.5195 -32.8125 32.373 -32.5195 32.373 -32.0801 C 32.373 -31.4941 32.8125 -31.1035 33.3496 -31.1035 C 33.5449 -31.1035 33.6914 -31.1523 33.9355 -31.25 L 37.8418 -33.0078 L 37.8418 -19.9219 C 37.8418 -19.1895 38.3301 -18.7012 39.209 -18.7012 Z"/>
  </g>
 </g>
</svg>
