<?xml version="1.0" encoding="UTF-8"?>
<!--Generator: Apple Native CoreSVG 148-->
<!DOCTYPE svg
PUBLIC "-//W3C//DTD SVG 1.1//EN"
       "http://www.w3.org/Graphics/SVG/1.1/DTD/svg11.dtd">
<svg version="1.1" xmlns="http://www.w3.org/2000/svg" xmlns:xlink="http://www.w3.org/1999/xlink" width="3300" height="2200">
 <!--glyph: "uni1007FE.medium", point size: 100.000000, font version: "Version 16.0d11e1", template writer version: "8"-->
 <g id="Notes">
  <rect height="2200" id="artboard" style="fill:white;opacity:1" width="3300" x="0" y="0"/>
  <line id="" style="fill:none;stroke:black;opacity:1;stroke-width:0.5;" x1="263" x2="3036" y1="292" y2="292"/>
  <text style="stroke:none;fill:black;font-family:-apple-system,&quot;SF Pro Display&quot;,&quot;SF Pro Text&quot;,Helvetica,sans-serif;font-weight:bold;" transform="matrix(1 0 0 1 263 322)">Weight/Scale Variations</text>
  <text style="stroke:none;fill:black;font-family:-apple-system,&quot;SF Pro Display&quot;,&quot;SF Pro Text&quot;,Helvetica,sans-serif;text-anchor:middle;" transform="matrix(1 0 0 1 559.711 322)">Ultralight</text>
  <text style="stroke:none;fill:black;font-family:-apple-system,&quot;SF Pro Display&quot;,&quot;SF Pro Text&quot;,Helvetica,sans-serif;text-anchor:middle;" transform="matrix(1 0 0 1 856.422 322)">Thin</text>
  <text style="stroke:none;fill:black;font-family:-apple-system,&quot;SF Pro Display&quot;,&quot;SF Pro Text&quot;,Helvetica,sans-serif;text-anchor:middle;" transform="matrix(1 0 0 1 1153.13 322)">Light</text>
  <text style="stroke:none;fill:black;font-family:-apple-system,&quot;SF Pro Display&quot;,&quot;SF Pro Text&quot;,Helvetica,sans-serif;text-anchor:middle;" transform="matrix(1 0 0 1 1449.84 322)">Regular</text>
  <text style="stroke:none;fill:black;font-family:-apple-system,&quot;SF Pro Display&quot;,&quot;SF Pro Text&quot;,Helvetica,sans-serif;text-anchor:middle;" transform="matrix(1 0 0 1 1746.56 322)">Medium</text>
  <text style="stroke:none;fill:black;font-family:-apple-system,&quot;SF Pro Display&quot;,&quot;SF Pro Text&quot;,Helvetica,sans-serif;text-anchor:middle;" transform="matrix(1 0 0 1 2043.27 322)">Semibold</text>
  <text style="stroke:none;fill:black;font-family:-apple-system,&quot;SF Pro Display&quot;,&quot;SF Pro Text&quot;,Helvetica,sans-serif;text-anchor:middle;" transform="matrix(1 0 0 1 2339.98 322)">Bold</text>
  <text style="stroke:none;fill:black;font-family:-apple-system,&quot;SF Pro Display&quot;,&quot;SF Pro Text&quot;,Helvetica,sans-serif;text-anchor:middle;" transform="matrix(1 0 0 1 2636.69 322)">Heavy</text>
  <text style="stroke:none;fill:black;font-family:-apple-system,&quot;SF Pro Display&quot;,&quot;SF Pro Text&quot;,Helvetica,sans-serif;text-anchor:middle;" transform="matrix(1 0 0 1 2933.4 322)">Black</text>
  <line id="" style="fill:none;stroke:black;opacity:1;stroke-width:0.5;" x1="263" x2="3036" y1="1903" y2="1903"/>
  <g id="" transform="matrix(1 0 0 1 263 1933)">
   <path d="M 9.24805 0.830078 C 13.5547 0.830078 17.1387 -2.74414 17.1387 -7.05078 C 17.1387 -11.3574 13.5449 -14.9316 9.23828 -14.9316 C 4.94141 -14.9316 1.36719 -11.3574 1.36719 -7.05078 C 1.36719 -2.74414 4.95117 0.830078 9.24805 0.830078 Z M 9.24805 -0.654297 C 5.70312 -0.654297 2.87109 -3.49609 2.87109 -7.05078 C 2.87109 -10.6055 5.69336 -13.4473 9.23828 -13.4473 C 12.793 -13.4473 15.6348 -10.6055 15.6445 -7.05078 C 15.6543 -3.49609 12.8027 -0.654297 9.24805 -0.654297 Z M 9.22852 -3.62305 C 9.69727 -3.62305 9.9707 -3.93555 9.9707 -4.45312 L 9.9707 -6.31836 L 12.002 -6.31836 C 12.5 -6.31836 12.832 -6.57227 12.832 -7.04102 C 12.832 -7.51953 12.5195 -7.7832 12.002 -7.7832 L 9.9707 -7.7832 L 9.9707 -9.81445 C 9.9707 -10.332 9.69727 -10.6543 9.22852 -10.6543 C 8.75977 -10.6543 8.50586 -10.3125 8.50586 -9.81445 L 8.50586 -7.7832 L 6.49414 -7.7832 C 5.97656 -7.7832 5.64453 -7.51953 5.64453 -7.04102 C 5.64453 -6.57227 5.99609 -6.31836 6.49414 -6.31836 L 8.50586 -6.31836 L 8.50586 -4.45312 C 8.50586 -3.95508 8.75977 -3.62305 9.22852 -3.62305 Z"/>
  </g>
  <g id="" transform="matrix(1 0 0 1 281.506 1933)">
   <path d="M 11.709 2.91016 C 17.1582 2.91016 21.6699 -1.61133 21.6699 -7.05078 C 21.6699 -12.5 17.1484 -17.0117 11.6992 -17.0117 C 6.25977 -17.0117 1.74805 -12.5 1.74805 -7.05078 C 1.74805 -1.61133 6.26953 2.91016 11.709 2.91016 Z M 11.709 1.25 C 7.09961 1.25 3.41797 -2.44141 3.41797 -7.05078 C 3.41797 -11.6602 7.08984 -15.3516 11.6992 -15.3516 C 16.3086 -15.3516 20 -11.6602 20.0098 -7.05078 C 20.0195 -2.44141 16.3184 1.25 11.709 1.25 Z M 11.6797 -2.66602 C 12.207 -2.66602 12.5098 -3.01758 12.5098 -3.59375 L 12.5098 -6.23047 L 15.3223 -6.23047 C 15.8691 -6.23047 16.25 -6.51367 16.25 -7.03125 C 16.25 -7.55859 15.8887 -7.86133 15.3223 -7.86133 L 12.5098 -7.86133 L 12.5098 -10.6836 C 12.5098 -11.25 12.207 -11.6113 11.6797 -11.6113 C 11.1621 -11.6113 10.8789 -11.2305 10.8789 -10.6836 L 10.8789 -7.86133 L 8.07617 -7.86133 C 7.50977 -7.86133 7.13867 -7.55859 7.13867 -7.03125 C 7.13867 -6.51367 7.5293 -6.23047 8.07617 -6.23047 L 10.8789 -6.23047 L 10.8789 -3.59375 C 10.8789 -3.03711 11.1621 -2.66602 11.6797 -2.66602 Z"/>
  </g>
  <g id="" transform="matrix(1 0 0 1 304.924 1933)">
   <path d="M 14.9707 5.66406 C 21.9336 5.66406 27.6953 -0.0976562 27.6953 -7.05078 C 27.6953 -14.0137 21.9238 -19.7754 14.9609 -19.7754 C 8.00781 -19.7754 2.25586 -14.0137 2.25586 -7.05078 C 2.25586 -0.0976562 8.01758 5.66406 14.9707 5.66406 Z M 14.9707 3.84766 C 8.93555 3.84766 4.08203 -1.01562 4.08203 -7.05078 C 4.08203 -13.0957 8.92578 -17.9492 14.9609 -17.9492 C 21.0059 -17.9492 25.8594 -13.0957 25.8691 -7.05078 C 25.8789 -1.01562 21.0156 3.84766 14.9707 3.84766 Z M 14.9414 -1.38672 C 15.5176 -1.38672 15.8594 -1.77734 15.8594 -2.38281 L 15.8594 -6.13281 L 19.7754 -6.13281 C 20.3711 -6.13281 20.7812 -6.46484 20.7812 -7.02148 C 20.7812 -7.59766 20.3906 -7.93945 19.7754 -7.93945 L 15.8594 -7.93945 L 15.8594 -11.8652 C 15.8594 -12.4805 15.5176 -12.8711 14.9414 -12.8711 C 14.375 -12.8711 14.0527 -12.4609 14.0527 -11.8652 L 14.0527 -7.93945 L 10.1465 -7.93945 C 9.53125 -7.93945 9.13086 -7.59766 9.13086 -7.02148 C 9.13086 -6.46484 9.55078 -6.13281 10.1465 -6.13281 L 14.0527 -6.13281 L 14.0527 -2.38281 C 14.0527 -1.79688 14.375 -1.38672 14.9414 -1.38672 Z"/>
  </g>
  <text style="stroke:none;fill:black;font-family:-apple-system,&quot;SF Pro Display&quot;,&quot;SF Pro Text&quot;,Helvetica,sans-serif;font-weight:bold;" transform="matrix(1 0 0 1 263 1953)">Design Variations</text>
  <text style="stroke:none;fill:black;font-family:-apple-system,&quot;SF Pro Display&quot;,&quot;SF Pro Text&quot;,Helvetica,sans-serif;" transform="matrix(1 0 0 1 263 1971)">Symbols are supported in up to nine weights and three scales.</text>
  <text style="stroke:none;fill:black;font-family:-apple-system,&quot;SF Pro Display&quot;,&quot;SF Pro Text&quot;,Helvetica,sans-serif;" transform="matrix(1 0 0 1 263 1989)">For optimal layout with text and other symbols, vertically align</text>
  <text style="stroke:none;fill:black;font-family:-apple-system,&quot;SF Pro Display&quot;,&quot;SF Pro Text&quot;,Helvetica,sans-serif;" transform="matrix(1 0 0 1 263 2007)">symbols with the adjacent text.</text>
  <line id="" style="fill:none;stroke:#00AEEF;stroke-width:0.5;opacity:1.0;" x1="776" x2="776" y1="1919" y2="1933"/>
  <g id="" transform="matrix(1 0 0 1 776 1933)">
   <path d="M 3.31055 0.126953 C 3.82812 0.126953 4.08203 -0.0683594 4.26758 -0.605469 L 5.52734 -4.0625 L 11.2891 -4.0625 L 12.5488 -0.605469 C 12.7344 -0.0683594 12.9883 0.126953 13.4961 0.126953 C 14.0137 0.126953 14.3457 -0.185547 14.3457 -0.673828 C 14.3457 -0.839844 14.3164 -0.986328 14.2383 -1.20117 L 9.6582 -13.3887 C 9.43359 -13.9941 9.0332 -14.2871 8.4082 -14.2871 C 7.80273 -14.2871 7.39258 -13.9941 7.17773 -13.3984 L 2.59766 -1.19141 C 2.51953 -0.976562 2.49023 -0.830078 2.49023 -0.664062 C 2.49023 -0.175781 2.80273 0.126953 3.31055 0.126953 Z M 6.00586 -5.53711 L 8.37891 -12.1094 L 8.42773 -12.1094 L 10.8008 -5.53711 Z"/>
  </g>
  <line id="" style="fill:none;stroke:#00AEEF;stroke-width:0.5;opacity:1.0;" x1="792.836" x2="792.836" y1="1919" y2="1933"/>
  <text style="stroke:none;fill:black;font-family:-apple-system,&quot;SF Pro Display&quot;,&quot;SF Pro Text&quot;,Helvetica,sans-serif;font-weight:bold;" transform="matrix(1 0 0 1 776 1953)">Margins</text>
  <text style="stroke:none;fill:black;font-family:-apple-system,&quot;SF Pro Display&quot;,&quot;SF Pro Text&quot;,Helvetica,sans-serif;" transform="matrix(1 0 0 1 776 1971)">Leading and trailing margins on the left and right side of each symbol</text>
  <text style="stroke:none;fill:black;font-family:-apple-system,&quot;SF Pro Display&quot;,&quot;SF Pro Text&quot;,Helvetica,sans-serif;" transform="matrix(1 0 0 1 776 1989)">can be adjusted by modifying the x-location of the margin guidelines.</text>
  <text style="stroke:none;fill:black;font-family:-apple-system,&quot;SF Pro Display&quot;,&quot;SF Pro Text&quot;,Helvetica,sans-serif;" transform="matrix(1 0 0 1 776 2007)">Modifications are automatically applied proportionally to all</text>
  <text style="stroke:none;fill:black;font-family:-apple-system,&quot;SF Pro Display&quot;,&quot;SF Pro Text&quot;,Helvetica,sans-serif;" transform="matrix(1 0 0 1 776 2025)">scales and weights.</text>
  <g id="" transform="matrix(1 0 0 1 1289 1933)">
   <path d="M 2.8418 1.86523 L 4.54102 3.57422 C 5.40039 4.44336 6.38672 4.38477 7.31445 3.35938 L 17.4902 -7.85156 C 17.7539 -7.76367 18.0273 -7.7832 18.3398 -7.8418 L 19.4043 -8.03711 L 20.0684 -7.36328 L 20.0293 -6.80664 C 19.9902 -6.30859 20.1172 -5.92773 20.6055 -5.44922 L 21.3672 -4.70703 C 21.8457 -4.22852 22.4609 -4.19922 22.9297 -4.66797 L 25.8398 -7.58789 C 26.3086 -8.05664 26.2891 -8.65234 25.8105 -9.13086 L 25.0391 -9.89258 C 24.5605 -10.3711 24.1895 -10.5273 23.7109 -10.4883 L 23.1348 -10.4395 L 22.4902 -11.0742 L 22.7344 -12.1973 C 22.8613 -12.7637 22.7051 -13.2031 22.1191 -13.7891 L 19.9219 -15.9766 C 16.582 -19.2969 12.1484 -19.2188 9.25781 -16.3281 C 8.83789 -15.918 8.80859 -15.3418 9.04297 -14.9512 C 9.27734 -14.5898 9.73633 -14.3555 10.3809 -14.5215 C 11.8457 -14.8633 13.3691 -14.9219 14.7949 -13.9844 L 14.209 -12.5293 C 14.0137 -12.0508 13.9844 -11.6504 14.1113 -11.2891 L 3.04688 -0.898438 C 2.06055 0.0195312 1.98242 0.996094 2.8418 1.86523 Z M 10.752 -15.957 C 13.1836 -17.7344 16.4746 -17.4316 18.7012 -15.2051 L 21.1328 -12.793 C 21.3672 -12.5586 21.4062 -12.373 21.3379 -12.0312 L 21.0156 -10.5469 L 22.5195 -9.0625 L 23.5059 -9.12109 C 23.7598 -9.13086 23.8379 -9.11133 24.0332 -8.91602 L 24.6094 -8.33984 L 22.168 -5.89844 L 21.5918 -6.47461 C 21.3965 -6.66992 21.3672 -6.74805 21.377 -7.01172 L 21.4453 -7.98828 L 19.9512 -9.47266 L 18.4277 -9.21875 C 18.1055 -9.15039 17.959 -9.17969 17.7148 -9.41406 L 15.7129 -11.416 C 15.459 -11.6504 15.4297 -11.8164 15.5859 -12.1875 L 16.4648 -14.2773 C 14.9023 -15.7324 12.8711 -16.3574 10.8398 -15.7617 C 10.6836 -15.7227 10.625 -15.8496 10.752 -15.957 Z M 5.27344 2.30469 L 4.10156 1.14258 C 3.63281 0.683594 3.74023 0.341797 4.14062 -0.0195312 L 14.9512 -10.1953 L 16.416 -8.71094 L 6.42578 2.27539 C 6.07422 2.67578 5.74219 2.77344 5.27344 2.30469 Z"/>
  </g>
  <text style="stroke:none;fill:black;font-family:-apple-system,&quot;SF Pro Display&quot;,&quot;SF Pro Text&quot;,Helvetica,sans-serif;font-weight:bold;" transform="matrix(1 0 0 1 1289 1953)">Exporting</text>
  <text style="stroke:none;fill:black;font-family:-apple-system,&quot;SF Pro Display&quot;,&quot;SF Pro Text&quot;,Helvetica,sans-serif;" transform="matrix(1 0 0 1 1289 1971)">Symbols should be outlined when exporting to ensure the</text>
  <text style="stroke:none;fill:black;font-family:-apple-system,&quot;SF Pro Display&quot;,&quot;SF Pro Text&quot;,Helvetica,sans-serif;" transform="matrix(1 0 0 1 1289 1989)">design is preserved when submitting to Xcode.</text>
  <text id="template-version" style="stroke:none;fill:black;font-family:-apple-system,&quot;SF Pro Display&quot;,&quot;SF Pro Text&quot;,Helvetica,sans-serif;text-anchor:end;" transform="matrix(1 0 0 1 3036 1933)">Template v.2.0</text>
  <text style="stroke:none;fill:black;font-family:-apple-system,&quot;SF Pro Display&quot;,&quot;SF Pro Text&quot;,Helvetica,sans-serif;text-anchor:end;" transform="matrix(1 0 0 1 3036 1951)">Requires Xcode 12 or greater</text>
  <text style="stroke:none;fill:black;font-family:-apple-system,&quot;SF Pro Display&quot;,&quot;SF Pro Text&quot;,Helvetica,sans-serif;text-anchor:end;" transform="matrix(1 0 0 1 3036 1969)">Generated from wallet.pass</text>
  <text style="stroke:none;fill:black;font-family:-apple-system,&quot;SF Pro Display&quot;,&quot;SF Pro Text&quot;,Helvetica,sans-serif;text-anchor:end;" transform="matrix(1 0 0 1 3036 1987)">Typeset at 100 points</text>
  <text style="stroke:none;fill:black;font-family:-apple-system,&quot;SF Pro Display&quot;,&quot;SF Pro Text&quot;,Helvetica,sans-serif;" transform="matrix(1 0 0 1 263 726)">Small</text>
  <text style="stroke:none;fill:black;font-family:-apple-system,&quot;SF Pro Display&quot;,&quot;SF Pro Text&quot;,Helvetica,sans-serif;" transform="matrix(1 0 0 1 263 1156)">Medium</text>
  <text style="stroke:none;fill:black;font-family:-apple-system,&quot;SF Pro Display&quot;,&quot;SF Pro Text&quot;,Helvetica,sans-serif;" transform="matrix(1 0 0 1 263 1586)">Large</text>
 </g>
 <g id="Guides">
  <g id="H-reference" style="fill:#27AAE1;stroke:none;" transform="matrix(1 0 0 1 339 696)">
   <path d="M 0.976562 0 L 3.66211 0 L 12.9883 -24.4629 L 45.7031 -24.4629 L 55.0781 0 L 57.7148 0 L 30.6152 -70.459 L 28.125 -70.459 Z M 29.2969 -67.1387 L 29.3945 -67.1387 L 44.873 -26.709 L 13.8672 -26.709 Z"/>
  </g>
  <line id="Baseline-S" style="fill:none;stroke:#27AAE1;opacity:1;stroke-width:0.5;" x1="263" x2="3036" y1="696" y2="696"/>
  <line id="Capline-S" style="fill:none;stroke:#27AAE1;opacity:1;stroke-width:0.5;" x1="263" x2="3036" y1="625.541" y2="625.541"/>
  <g id="H-reference" style="fill:#27AAE1;stroke:none;" transform="matrix(1 0 0 1 339 1126)">
   <path d="M 0.976562 0 L 3.66211 0 L 12.9883 -24.4629 L 45.7031 -24.4629 L 55.0781 0 L 57.7148 0 L 30.6152 -70.459 L 28.125 -70.459 Z M 29.2969 -67.1387 L 29.3945 -67.1387 L 44.873 -26.709 L 13.8672 -26.709 Z"/>
  </g>
  <line id="Baseline-M" style="fill:none;stroke:#27AAE1;opacity:1;stroke-width:0.5;" x1="263" x2="3036" y1="1126" y2="1126"/>
  <line id="Capline-M" style="fill:none;stroke:#27AAE1;opacity:1;stroke-width:0.5;" x1="263" x2="3036" y1="1055.54" y2="1055.54"/>
  <g id="H-reference" style="fill:#27AAE1;stroke:none;" transform="matrix(1 0 0 1 339 1556)">
   <path d="M 0.976562 0 L 3.66211 0 L 12.9883 -24.4629 L 45.7031 -24.4629 L 55.0781 0 L 57.7148 0 L 30.6152 -70.459 L 28.125 -70.459 Z M 29.2969 -67.1387 L 29.3945 -67.1387 L 44.873 -26.709 L 13.8672 -26.709 Z"/>
  </g>
  <line id="Baseline-L" style="fill:none;stroke:#27AAE1;opacity:1;stroke-width:0.5;" x1="263" x2="3036" y1="1556" y2="1556"/>
  <line id="Capline-L" style="fill:none;stroke:#27AAE1;opacity:1;stroke-width:0.5;" x1="263" x2="3036" y1="1485.54" y2="1485.54"/>
  <line id="left-margin" style="fill:none;stroke:#00AEEF;stroke-width:0.5;opacity:1.0;" x1="1396.33" x2="1396.33" y1="1030.79" y2="1150.12"/>
  <line id="right-margin" style="fill:none;stroke:#00AEEF;stroke-width:0.5;opacity:1.0;" x1="1503.36" x2="1503.36" y1="1030.79" y2="1150.12"/>
 </g>
 <g id="Symbols">
  <g id="Black-L" transform="matrix(1 0 0 1 2859.65 1556)">
   <path d="M 39.8926 35.2539 L 107.617 35.2539 C 122.803 35.2539 131.445 26.5625 131.445 11.3281 L 131.445 -81.8359 C 131.445 -97.0703 122.803 -105.664 107.617 -105.664 L 88.3789 -105.664 C 85.3516 -105.664 83.7402 -104.297 83.7402 -101.807 C 83.7402 -96.7773 80.1758 -91.748 73.7793 -91.748 C 67.334 -91.748 63.7207 -96.7773 63.7207 -101.807 C 63.7207 -104.297 62.1582 -105.664 59.1309 -105.664 L 39.8926 -105.664 C 24.707 -105.664 16.0645 -97.0703 16.0645 -81.8359 L 16.0645 11.3281 C 16.0645 26.5625 24.707 35.2539 39.8926 35.2539 Z M 42.7246 14.9902 C 38.1836 14.9902 36.3281 12.8418 36.3281 8.59375 L 36.3281 -79.1016 C 36.3281 -83.3008 38.1836 -85.498 42.7246 -85.498 L 52.7344 -85.498 C 56.3477 -77.6855 64.0137 -73.1445 73.7793 -73.1445 C 83.4961 -73.1445 91.1621 -77.6855 94.7754 -85.498 L 104.785 -85.498 C 109.326 -85.498 111.23 -83.3008 111.23 -79.1016 L 111.23 8.59375 C 111.23 12.8418 109.326 14.9902 104.785 14.9902 Z M 53.6133 -52.2949 L 93.8477 -52.2949 C 96.4355 -52.2949 98.3398 -54.2969 98.3398 -56.8848 C 98.3398 -59.375 96.4355 -61.2793 93.8477 -61.2793 L 53.6133 -61.2793 C 50.9766 -61.2793 49.0723 -59.375 49.0723 -56.8848 C 49.0723 -54.2969 50.9766 -52.2949 53.6133 -52.2949 Z M 53.6133 -32.2754 L 74.6094 -32.2754 C 77.1973 -32.2754 79.1504 -34.2285 79.1504 -36.7188 C 79.1504 -39.3066 77.1973 -41.3086 74.6094 -41.3086 L 53.6133 -41.3086 C 50.9766 -41.3086 49.0723 -39.3066 49.0723 -36.7188 C 49.0723 -34.2285 50.9766 -32.2754 53.6133 -32.2754 Z"/>
  </g>
  <g id="Heavy-L" transform="matrix(1 0 0 1 2564.18 1556)">
   <path d="M 38.7207 34.4727 L 106.348 34.4727 C 120.85 34.4727 128.955 26.3672 128.955 11.7188 L 128.955 -82.2266 C 128.955 -96.8262 120.898 -104.932 106.348 -104.932 L 87.207 -104.932 C 84.4238 -104.932 82.959 -103.564 82.959 -101.221 C 82.959 -95.752 79.1016 -90.7715 72.5098 -90.7715 C 65.918 -90.7715 62.0605 -95.752 62.0605 -101.221 C 62.0605 -103.564 60.5469 -104.932 57.8125 -104.932 L 38.7207 -104.932 C 24.1211 -104.932 16.0645 -96.8262 16.0645 -82.2266 L 16.0645 11.7188 C 16.0645 26.3672 24.1699 34.4727 38.7207 34.4727 Z M 41.0156 16.9922 C 35.8887 16.9922 33.5938 14.4043 33.5938 9.61914 L 33.5938 -80.0781 C 33.5938 -84.9121 35.8887 -87.4512 41.0156 -87.4512 L 51.709 -87.4512 C 55.0293 -79.3457 62.6953 -74.5605 72.5098 -74.5605 C 82.3242 -74.5605 89.9902 -79.3457 93.3105 -87.4512 L 104.053 -87.4512 C 109.18 -87.4512 111.475 -84.9121 111.475 -80.0781 L 111.475 9.61914 C 111.475 14.4043 109.18 16.9922 104.053 16.9922 Z M 51.3672 -53.3691 L 93.6523 -53.3691 C 96.0449 -53.3691 97.9004 -55.2734 97.9004 -57.7148 C 97.9004 -60.0586 96.0449 -61.8652 93.6523 -61.8652 L 51.3672 -61.8652 C 48.877 -61.8652 47.0703 -60.0586 47.0703 -57.7148 C 47.0703 -55.2734 48.877 -53.3691 51.3672 -53.3691 Z M 51.3672 -32.7148 L 72.9492 -32.7148 C 75.3418 -32.7148 77.1973 -34.5703 77.1973 -36.9141 C 77.1973 -39.3066 75.3418 -41.2109 72.9492 -41.2109 L 51.3672 -41.2109 C 48.877 -41.2109 47.0703 -39.3066 47.0703 -36.9141 C 47.0703 -34.5703 48.877 -32.7148 51.3672 -32.7148 Z"/>
  </g>
  <g id="Bold-L" transform="matrix(1 0 0 1 2268.86 1556)">
   <path d="M 37.4023 33.6426 L 104.883 33.6426 C 118.652 33.6426 126.172 26.123 126.172 12.207 L 126.172 -82.666 C 126.172 -96.582 118.701 -104.053 104.883 -104.053 L 85.8887 -104.053 C 83.4473 -104.053 82.0801 -102.734 82.0801 -100.537 C 82.0801 -94.6289 77.8809 -89.6484 71.1426 -89.6484 C 64.3555 -89.6484 60.1562 -94.6289 60.1562 -100.537 C 60.1562 -102.734 58.7402 -104.053 56.3477 -104.053 L 37.4023 -104.053 C 23.5352 -104.053 16.0645 -96.582 16.0645 -82.666 L 16.0645 12.207 C 16.0645 26.123 23.584 33.6426 37.4023 33.6426 Z M 39.0625 19.1895 C 33.252 19.1895 30.5176 16.2109 30.5176 10.7422 L 30.5176 -81.2012 C 30.5176 -86.7188 33.252 -89.6484 39.0625 -89.6484 L 50.6836 -89.6484 C 53.5645 -81.25 61.1816 -76.1719 71.1426 -76.1719 C 81.0547 -76.1719 88.6719 -81.25 91.5527 -89.6484 L 103.223 -89.6484 C 108.984 -89.6484 111.719 -86.7188 111.719 -81.2012 L 111.719 10.7422 C 111.719 16.2109 108.984 19.1895 103.223 19.1895 Z M 48.877 -54.5898 L 93.4082 -54.5898 C 95.6543 -54.5898 97.3633 -56.3477 97.3633 -58.5938 C 97.3633 -60.8398 95.6543 -62.5 93.4082 -62.5 L 48.877 -62.5 C 46.5332 -62.5 44.8242 -60.8398 44.8242 -58.5938 C 44.8242 -56.3477 46.5332 -54.5898 48.877 -54.5898 Z M 48.877 -33.2031 L 71.0449 -33.2031 C 73.3398 -33.2031 75 -34.9121 75 -37.1094 C 75 -39.3555 73.3398 -41.1133 71.0449 -41.1133 L 48.877 -41.1133 C 46.5332 -41.1133 44.8242 -39.3555 44.8242 -37.1094 C 44.8242 -34.9121 46.5332 -33.2031 48.877 -33.2031 Z"/>
  </g>
  <g id="Semibold-L" transform="matrix(1 0 0 1 1973.1 1556)">
   <path d="M 36.4746 33.0566 L 103.857 33.0566 C 117.139 33.0566 124.268 25.9277 124.268 12.5 L 124.268 -82.959 C 124.268 -96.4355 117.188 -103.516 103.857 -103.516 L 84.9609 -103.516 C 82.7637 -103.516 81.4453 -102.197 81.4453 -100.098 C 81.4453 -93.8477 77.002 -88.916 70.166 -88.916 C 63.2812 -88.916 58.8379 -93.8477 58.8379 -100.098 C 58.8379 -102.197 57.5195 -103.516 55.3223 -103.516 L 36.4746 -103.516 C 23.0957 -103.516 16.0645 -96.4355 16.0645 -82.959 L 16.0645 12.5 C 16.0645 25.9277 23.1445 33.0566 36.4746 33.0566 Z M 37.6953 20.752 C 31.4453 20.752 28.418 17.4316 28.418 11.5234 L 28.418 -81.9824 C 28.418 -87.9395 31.4453 -91.1621 37.6953 -91.1621 L 49.9512 -91.1621 C 52.5879 -82.5195 60.1562 -77.2461 70.166 -77.2461 C 80.127 -77.2461 87.6953 -82.5195 90.332 -91.1621 L 102.637 -91.1621 C 108.838 -91.1621 111.914 -87.9395 111.914 -81.9824 L 111.914 11.5234 C 111.914 17.4316 108.838 20.752 102.637 20.752 Z M 47.1191 -55.4199 L 93.2617 -55.4199 C 95.3613 -55.4199 96.9727 -57.0801 96.9727 -59.2285 C 96.9727 -61.3281 95.3613 -62.9395 93.2617 -62.9395 L 47.1191 -62.9395 C 44.9219 -62.9395 43.3105 -61.3281 43.3105 -59.2285 C 43.3105 -57.0801 44.9219 -55.4199 47.1191 -55.4199 Z M 47.1191 -33.5449 L 69.7754 -33.5449 C 71.9238 -33.5449 73.5352 -35.1562 73.5352 -37.2559 C 73.5352 -39.3555 71.9238 -41.0645 69.7754 -41.0645 L 47.1191 -41.0645 C 44.9219 -41.0645 43.3105 -39.3555 43.3105 -37.2559 C 43.3105 -35.1562 44.9219 -33.5449 47.1191 -33.5449 Z"/>
  </g>
  <g id="Medium-L" transform="matrix(1 0 0 1 1677.12 1556)">
   <path d="M 35.791 32.666 L 103.076 32.666 C 116.016 32.666 122.803 25.8301 122.803 12.7441 L 122.803 -83.2031 C 122.803 -96.2891 116.064 -103.076 103.076 -103.076 L 84.2773 -103.076 C 82.2266 -103.076 80.957 -101.758 80.957 -99.7559 C 80.957 -93.2617 76.3672 -88.3301 69.4336 -88.3301 C 62.5 -88.3301 57.8613 -93.2617 57.8613 -99.7559 C 57.8613 -101.758 56.5918 -103.076 54.541 -103.076 L 35.791 -103.076 C 22.8027 -103.076 16.0645 -96.2891 16.0645 -83.2031 L 16.0645 12.7441 C 16.0645 25.8301 22.8516 32.666 35.791 32.666 Z M 36.6699 21.9238 C 30.127 21.9238 26.8066 18.3594 26.8066 12.1094 L 26.8066 -82.5684 C 26.8066 -88.916 30.127 -92.334 36.6699 -92.334 L 49.4629 -92.334 C 51.8555 -83.5449 59.4238 -78.0762 69.4336 -78.0762 C 79.4434 -78.0762 86.9629 -83.5449 89.4043 -92.334 L 102.197 -92.334 C 108.74 -92.334 112.061 -88.916 112.061 -82.5684 L 112.061 12.1094 C 112.061 18.3594 108.74 21.9238 102.197 21.9238 Z M 45.8008 -56.0547 L 93.1152 -56.0547 C 95.166 -56.0547 96.7285 -57.666 96.7285 -59.7168 C 96.7285 -61.7676 95.166 -63.2812 93.1152 -63.2812 L 45.8008 -63.2812 C 43.7012 -63.2812 42.1387 -61.7676 42.1387 -59.7168 C 42.1387 -57.666 43.7012 -56.0547 45.8008 -56.0547 Z M 45.8008 -33.8379 L 68.75 -33.8379 C 70.8496 -33.8379 72.3633 -35.3516 72.3633 -37.3535 C 72.3633 -39.4043 70.8496 -41.0156 68.75 -41.0156 L 45.8008 -41.0156 C 43.7012 -41.0156 42.1387 -39.4043 42.1387 -37.3535 C 42.1387 -35.3516 43.7012 -33.8379 45.8008 -33.8379 Z"/>
  </g>
  <g id="Regular-L" transform="matrix(1 0 0 1 1381.36 1556)">
   <path d="M 34.8633 32.0801 L 102.1 32.0801 C 114.502 32.0801 120.898 25.6348 120.898 13.0859 L 120.898 -83.4961 C 120.898 -96.1426 114.6 -102.49 102.1 -102.49 L 83.3984 -102.49 C 81.543 -102.49 80.3711 -101.221 80.3711 -99.2676 C 80.3711 -92.4805 75.5371 -87.5488 68.5059 -87.5488 C 61.4258 -87.5488 56.543 -92.4805 56.543 -99.2676 C 56.543 -101.221 55.3711 -102.49 53.5156 -102.49 L 34.8633 -102.49 C 22.3633 -102.49 16.0645 -96.1426 16.0645 -83.4961 L 16.0645 13.0859 C 16.0645 25.6348 22.4609 32.0801 34.8633 32.0801 Z M 35.3516 23.4375 C 28.3203 23.4375 24.707 19.5801 24.707 12.8906 L 24.707 -83.3008 C 24.707 -90.1367 28.3203 -93.8477 35.3516 -93.8477 L 48.8281 -93.8477 C 50.9277 -84.8633 58.3984 -79.1504 68.5059 -79.1504 C 78.5645 -79.1504 86.0352 -84.8633 88.1348 -93.8477 L 101.611 -93.8477 C 108.643 -93.8477 112.256 -90.1367 112.256 -83.3008 L 112.256 12.8906 C 112.256 19.5801 108.643 23.4375 101.611 23.4375 Z M 44.0918 -56.8848 L 92.9688 -56.8848 C 94.873 -56.8848 96.3379 -58.3984 96.3379 -60.3516 C 96.3379 -62.2559 94.873 -63.7207 92.9688 -63.7207 L 44.0918 -63.7207 C 42.0898 -63.7207 40.625 -62.2559 40.625 -60.3516 C 40.625 -58.3984 42.0898 -56.8848 44.0918 -56.8848 Z M 44.0918 -34.1309 L 67.4805 -34.1309 C 69.4336 -34.1309 70.8984 -35.5957 70.8984 -37.5 C 70.8984 -39.4043 69.4336 -40.918 67.4805 -40.918 L 44.0918 -40.918 C 42.0898 -40.918 40.625 -39.4043 40.625 -37.5 C 40.625 -35.5957 42.0898 -34.1309 44.0918 -34.1309 Z"/>
  </g>
  <g id="Light-L" transform="matrix(1 0 0 1 1085.43 1556)">
   <path d="M 33.9355 31.7871 L 101.514 31.7871 C 113.184 31.7871 119.336 25.6348 119.336 13.7695 L 119.336 -84.1309 C 119.336 -95.9961 113.281 -102.1 101.514 -102.1 L 82.8125 -102.1 C 81.4453 -102.1 80.5176 -101.123 80.5176 -99.6582 C 80.5176 -92.4805 75.293 -87.1094 67.7246 -87.1094 C 60.1074 -87.1094 54.834 -92.4805 54.834 -99.6582 C 54.834 -101.123 53.9551 -102.1 52.5879 -102.1 L 33.9355 -102.1 C 22.1191 -102.1 16.0645 -95.9961 16.0645 -84.1309 L 16.0645 13.7695 C 16.0645 25.6348 22.2168 31.7871 33.9355 31.7871 Z M 34.2773 25.1465 C 26.6113 25.1465 22.7051 20.9473 22.7051 13.623 L 22.7051 -83.9844 C 22.7051 -91.4551 26.6113 -95.5078 34.2773 -95.5078 L 48.8281 -95.5078 C 50.5371 -86.4746 57.8613 -80.6641 67.7246 -80.6641 C 77.5879 -80.6641 84.8633 -86.4746 86.6211 -95.5078 L 101.172 -95.5078 C 108.789 -95.5078 112.744 -91.4551 112.744 -83.9844 L 112.744 13.623 C 112.744 20.9473 108.789 25.1465 101.172 25.1465 Z M 42.5781 -58.3008 L 92.9199 -58.3008 C 94.4824 -58.3008 95.6543 -59.4727 95.6543 -61.0352 C 95.6543 -62.6465 94.4824 -63.7695 92.9199 -63.7695 L 42.5781 -63.7695 C 40.9668 -63.7695 39.7461 -62.6465 39.7461 -61.0352 C 39.7461 -59.4727 40.9668 -58.3008 42.5781 -58.3008 Z M 42.5781 -35.0098 L 67.041 -35.0098 C 68.6035 -35.0098 69.7754 -36.2305 69.7754 -37.6953 C 69.7754 -39.2578 68.6035 -40.4785 67.041 -40.4785 L 42.5781 -40.4785 C 40.9668 -40.4785 39.7461 -39.2578 39.7461 -37.6953 C 39.7461 -36.2305 40.9668 -35.0098 42.5781 -35.0098 Z"/>
  </g>
  <g id="Thin-L" transform="matrix(1 0 0 1 789.747 1556)">
   <path d="M 32.666 31.3477 L 100.732 31.3477 C 111.426 31.3477 117.285 25.6348 117.285 14.7461 L 117.285 -84.9609 C 117.285 -95.8496 111.572 -101.611 100.732 -101.611 L 82.0312 -101.611 C 81.25 -101.611 80.7617 -101.025 80.7617 -100.195 C 80.7617 -92.5293 74.9512 -86.5723 66.6992 -86.5723 C 58.3984 -86.5723 52.5879 -92.5293 52.5879 -100.195 C 52.5879 -101.025 52.0996 -101.611 51.3184 -101.611 L 32.666 -101.611 C 21.7773 -101.611 16.0645 -95.8496 16.0645 -84.9609 L 16.0645 14.7461 C 16.0645 25.6348 21.9238 31.3477 32.666 31.3477 Z M 32.8613 27.4414 C 24.3652 27.4414 19.9707 22.7051 19.9707 14.5996 L 19.9707 -84.8145 C 19.9707 -93.2617 24.3652 -97.6562 32.8613 -97.6562 L 48.877 -97.6562 C 50 -88.623 57.0801 -82.666 66.6992 -82.666 C 76.2695 -82.666 83.3496 -88.623 84.4727 -97.6562 L 100.537 -97.6562 C 108.984 -97.6562 113.379 -93.2617 113.379 -84.8145 L 113.379 14.5996 C 113.379 22.7051 108.984 27.4414 100.537 27.4414 Z M 40.5762 -60.1074 L 92.8711 -60.1074 C 93.8965 -60.1074 94.7266 -60.8887 94.7266 -61.9629 C 94.7266 -63.1348 93.8965 -63.8672 92.8711 -63.8672 L 40.5762 -63.8672 C 39.4531 -63.8672 38.623 -63.1348 38.623 -61.9629 C 38.623 -60.8887 39.4531 -60.1074 40.5762 -60.1074 Z M 40.5762 -36.1816 L 66.4062 -36.1816 C 67.4805 -36.1816 68.3105 -37.0117 68.3105 -37.9883 C 68.3105 -39.0137 67.4805 -39.8438 66.4062 -39.8438 L 40.5762 -39.8438 C 39.4531 -39.8438 38.623 -39.0137 38.623 -37.9883 C 38.623 -37.0117 39.4531 -36.1816 40.5762 -36.1816 Z"/>
  </g>
  <g id="Ultralight-L" transform="matrix(1 0 0 1 493.549 1556)">
   <path d="M 31.9824 31.1523 L 100.293 31.1523 C 110.547 31.1523 116.26 25.5859 116.26 15.2344 L 116.26 -85.4004 C 116.26 -95.8008 110.693 -101.318 100.293 -101.318 L 81.6406 -101.318 C 81.1523 -101.318 80.8594 -100.928 80.8594 -100.439 C 80.8594 -92.5293 74.7559 -86.2793 66.1621 -86.2793 C 57.5195 -86.2793 51.4648 -92.5293 51.4648 -100.439 C 51.4648 -100.928 51.1719 -101.318 50.6348 -101.318 L 31.9824 -101.318 C 21.6309 -101.318 16.0645 -95.8008 16.0645 -85.4004 L 16.0645 15.2344 C 16.0645 25.5859 21.7773 31.1523 31.9824 31.1523 Z M 32.1289 28.5645 C 23.2422 28.5645 18.6035 23.6328 18.6035 15.0879 L 18.6035 -85.2539 C 18.6035 -94.1895 23.2422 -98.7793 32.1289 -98.7793 L 48.9258 -98.7793 C 49.7559 -89.6973 56.7383 -83.6914 66.1621 -83.6914 C 75.5859 -83.6914 82.5195 -89.6973 83.3984 -98.7793 L 100.195 -98.7793 C 109.082 -98.7793 113.672 -94.1895 113.672 -85.2539 L 113.672 15.0879 C 113.672 23.6328 109.082 28.5645 100.195 28.5645 Z M 39.5508 -61.0352 L 92.8711 -61.0352 C 93.6035 -61.0352 94.2383 -61.5723 94.2383 -62.4512 C 94.2383 -63.3789 93.6035 -63.916 92.8711 -63.916 L 39.5508 -63.916 C 38.6719 -63.916 38.0859 -63.3789 38.0859 -62.4512 C 38.0859 -61.5723 38.6719 -61.0352 39.5508 -61.0352 Z M 39.5508 -36.7676 L 66.1133 -36.7676 C 66.9434 -36.7676 67.5781 -37.4023 67.5781 -38.1348 C 67.5781 -38.916 66.9434 -39.5508 66.1133 -39.5508 L 39.5508 -39.5508 C 38.6719 -39.5508 38.0859 -38.916 38.0859 -38.1348 C 38.0859 -37.4023 38.6719 -36.7676 39.5508 -36.7676 Z"/>
  </g>
  <g id="Black-M" transform="matrix(1 0 0 1 2874.98 1126)">
   <path d="M 31.9824 20.2148 L 84.8633 20.2148 C 97.1191 20.2148 104.395 12.9395 104.395 0.683594 L 104.395 -71.1426 C 104.395 -83.3984 97.1191 -90.625 84.8633 -90.625 L 69.7754 -90.625 C 67.2852 -90.625 66.0645 -89.6973 66.0645 -87.8418 C 66.0645 -84.2773 63.4766 -80.1758 58.4473 -80.1758 C 53.3691 -80.1758 50.7812 -84.2773 50.7812 -87.8418 C 50.7812 -89.6973 49.6094 -90.625 47.0703 -90.625 L 31.9824 -90.625 C 19.7266 -90.625 12.4512 -83.3984 12.4512 -71.1426 L 12.4512 0.683594 C 12.4512 12.9395 19.7266 20.2148 31.9824 20.2148 Z M 34.9121 1.9043 C 31.8359 1.9043 30.7617 0.585938 30.7617 -2.24609 L 30.7617 -68.2129 C 30.7617 -71.0449 31.8359 -72.3633 34.9121 -72.3633 L 42.1875 -72.3633 C 45.2148 -66.748 51.123 -63.5254 58.4473 -63.5254 C 65.7227 -63.5254 71.6309 -66.748 74.6582 -72.3633 L 81.9336 -72.3633 C 85.0098 -72.3633 86.1328 -71.0449 86.1328 -68.2129 L 86.1328 -2.24609 C 86.1328 0.585938 85.0098 1.9043 81.9336 1.9043 Z M 43.7988 -47.7051 L 72.998 -47.7051 C 75 -47.7051 76.4648 -49.2676 76.4648 -51.2695 C 76.4648 -53.2227 75 -54.6875 72.998 -54.6875 L 43.7988 -54.6875 C 41.748 -54.6875 40.2344 -53.2227 40.2344 -51.2695 C 40.2344 -49.2676 41.748 -47.7051 43.7988 -47.7051 Z M 43.7988 -32.8125 L 59.8633 -32.8125 C 61.8652 -32.8125 63.3301 -34.3262 63.3301 -36.2305 C 63.3301 -38.2324 61.8652 -39.7949 59.8633 -39.7949 L 43.7988 -39.7949 C 41.748 -39.7949 40.2344 -38.2324 40.2344 -36.2305 C 40.2344 -34.3262 41.748 -32.8125 43.7988 -32.8125 Z"/>
  </g>
  <g id="Heavy-M" transform="matrix(1 0 0 1 2579.41 1126)">
   <path d="M 30.957 19.4824 L 83.5938 19.4824 C 95.3125 19.4824 102.1 12.6953 102.1 0.927734 L 102.1 -71.3867 C 102.1 -83.2031 95.3125 -89.8926 83.5938 -89.8926 L 68.6523 -89.8926 C 66.3086 -89.8926 65.1855 -88.916 65.1855 -87.0605 C 65.1855 -83.2031 62.3535 -79.1992 57.2754 -79.1992 C 52.1973 -79.1992 49.3652 -83.2031 49.3652 -87.0605 C 49.3652 -88.916 48.1934 -89.8926 45.8984 -89.8926 L 30.957 -89.8926 C 19.1895 -89.8926 12.4512 -83.2031 12.4512 -71.3867 L 12.4512 0.927734 C 12.4512 12.6953 19.1895 19.4824 30.957 19.4824 Z M 33.3008 3.66211 C 29.7363 3.66211 28.2715 1.95312 28.2715 -1.31836 L 28.2715 -69.1406 C 28.2715 -72.4609 29.7363 -74.1211 33.3008 -74.1211 L 41.1133 -74.1211 C 43.8477 -68.1152 49.8047 -64.6973 57.2754 -64.6973 C 64.7461 -64.6973 70.6543 -68.1152 73.4375 -74.1211 L 81.25 -74.1211 C 84.8145 -74.1211 86.2793 -72.4609 86.2793 -69.1406 L 86.2793 -1.31836 C 86.2793 1.95312 84.8145 3.66211 81.25 3.66211 Z M 41.748 -48.5352 L 72.7539 -48.5352 C 74.707 -48.5352 76.123 -50.0488 76.123 -52.002 C 76.123 -53.8574 74.707 -55.3223 72.7539 -55.3223 L 41.748 -55.3223 C 39.7461 -55.3223 38.2812 -53.8574 38.2812 -52.002 C 38.2812 -50.0488 39.7461 -48.5352 41.748 -48.5352 Z M 41.748 -33.0566 L 58.1543 -33.0566 C 60.0586 -33.0566 61.5234 -34.5215 61.5234 -36.377 C 61.5234 -38.3301 60.0586 -39.8438 58.1543 -39.8438 L 41.748 -39.8438 C 39.7461 -39.8438 38.2812 -38.3301 38.2812 -36.377 C 38.2812 -34.5215 39.7461 -33.0566 41.748 -33.0566 Z"/>
  </g>
  <g id="Bold-M" transform="matrix(1 0 0 1 2284 1126)">
   <path d="M 29.7852 18.6523 L 82.1777 18.6523 C 93.3105 18.6523 99.5117 12.4512 99.5117 1.2207 L 99.5117 -71.6797 C 99.5117 -82.959 93.3105 -89.1113 82.1777 -89.1113 L 67.334 -89.1113 C 65.2832 -89.1113 64.1113 -88.0371 64.1113 -86.2305 C 64.1113 -81.9336 61.084 -78.0762 55.957 -78.0762 C 50.8789 -78.0762 47.8027 -81.9336 47.8027 -86.2305 C 47.8027 -88.0371 46.6309 -89.1113 44.5801 -89.1113 L 29.7852 -89.1113 C 18.6035 -89.1113 12.4512 -82.959 12.4512 -71.6797 L 12.4512 1.2207 C 12.4512 12.4512 18.6035 18.6523 29.7852 18.6523 Z M 31.4453 5.56641 C 27.3926 5.56641 25.5371 3.51562 25.5371 -0.292969 L 25.5371 -70.166 C 25.5371 -74.0234 27.3926 -76.0742 31.4453 -76.0742 L 39.8926 -76.0742 C 42.3828 -69.7266 48.3398 -65.9668 55.957 -65.9668 C 63.623 -65.9668 69.5312 -69.7266 72.0215 -76.0742 L 80.4688 -76.0742 C 84.5703 -76.0742 86.4258 -74.0234 86.4258 -70.166 L 86.4258 -0.292969 C 86.4258 3.51562 84.5703 5.56641 80.4688 5.56641 Z M 39.4043 -49.4629 L 72.5098 -49.4629 C 74.3652 -49.4629 75.7812 -50.9277 75.7812 -52.7832 C 75.7812 -54.5898 74.3652 -55.957 72.5098 -55.957 L 39.4043 -55.957 C 37.5 -55.957 36.084 -54.5898 36.084 -52.7832 C 36.084 -50.9277 37.5 -49.4629 39.4043 -49.4629 Z M 39.4043 -33.3496 L 56.2012 -33.3496 C 58.0566 -33.3496 59.4727 -34.7656 59.4727 -36.5723 C 59.4727 -38.4277 58.0566 -39.8438 56.2012 -39.8438 L 39.4043 -39.8438 C 37.5 -39.8438 36.084 -38.4277 36.084 -36.5723 C 36.084 -34.7656 37.5 -33.3496 39.4043 -33.3496 Z"/>
  </g>
  <g id="Semibold-M" transform="matrix(1 0 0 1 1988.19 1126)">
   <path d="M 29.0039 18.1152 L 81.1523 18.1152 C 91.9434 18.1152 97.7051 12.2559 97.7051 1.41602 L 97.7051 -71.9238 C 97.7051 -82.7637 91.9434 -88.5254 81.1523 -88.5254 L 66.4551 -88.5254 C 64.5508 -88.5254 63.4277 -87.4512 63.4277 -85.6445 C 63.4277 -81.1035 60.2051 -77.3438 55.0781 -77.3438 C 49.9512 -77.3438 46.6797 -81.1035 46.6797 -85.6445 C 46.6797 -87.4512 45.5566 -88.5254 43.6523 -88.5254 L 29.0039 -88.5254 C 18.2129 -88.5254 12.4512 -82.7637 12.4512 -71.9238 L 12.4512 1.41602 C 12.4512 12.2559 18.2129 18.1152 29.0039 18.1152 Z M 30.1758 6.93359 C 25.7324 6.93359 23.6328 4.58984 23.6328 0.439453 L 23.6328 -70.8984 C 23.6328 -75.0977 25.7324 -77.3926 30.1758 -77.3926 L 39.1113 -77.3926 C 41.4062 -70.8008 47.3145 -66.8457 55.0781 -66.8457 C 62.8418 -66.8457 68.75 -70.8008 71.0449 -77.3926 L 79.9805 -77.3926 C 84.375 -77.3926 86.5234 -75.0977 86.5234 -70.8984 L 86.5234 0.439453 C 86.5234 4.58984 84.375 6.93359 79.9805 6.93359 Z M 37.793 -50.0977 L 72.3633 -50.0977 C 74.1699 -50.0977 75.5371 -51.5137 75.5371 -53.3203 C 75.5371 -55.0781 74.1699 -56.4453 72.3633 -56.4453 L 37.793 -56.4453 C 35.9375 -56.4453 34.5703 -55.0781 34.5703 -53.3203 C 34.5703 -51.5137 35.9375 -50.0977 37.793 -50.0977 Z M 37.793 -33.5449 L 54.8828 -33.5449 C 56.6895 -33.5449 58.0566 -34.9121 58.0566 -36.6699 C 58.0566 -38.4766 56.6895 -39.8926 54.8828 -39.8926 L 37.793 -39.8926 C 35.9375 -39.8926 34.5703 -38.4766 34.5703 -36.6699 C 34.5703 -34.9121 35.9375 -33.5449 37.793 -33.5449 Z"/>
  </g>
  <g id="Medium-M" transform="matrix(1 0 0 1 1692.16 1126)">
   <path d="M 28.3691 17.6758 L 80.4199 17.6758 C 90.8691 17.6758 96.3379 12.1582 96.3379 1.61133 L 96.3379 -72.0703 C 96.3379 -82.666 90.918 -88.1348 80.4199 -88.1348 L 65.8203 -88.1348 C 64.0137 -88.1348 62.8906 -87.0117 62.8906 -85.2051 C 62.8906 -80.4199 59.5703 -76.7578 54.3945 -76.7578 C 49.2676 -76.7578 45.8984 -80.4199 45.8984 -85.2051 C 45.8984 -87.0117 44.7754 -88.1348 42.9688 -88.1348 L 28.3691 -88.1348 C 17.9199 -88.1348 12.4512 -82.666 12.4512 -72.0703 L 12.4512 1.61133 C 12.4512 12.1582 17.9199 17.6758 28.3691 17.6758 Z M 29.248 7.91016 C 24.5117 7.91016 22.168 5.41992 22.168 0.976562 L 22.168 -71.4355 C 22.168 -75.9277 24.5117 -78.418 29.248 -78.418 L 38.5742 -78.418 C 40.6738 -71.6797 46.582 -67.5293 54.3945 -67.5293 C 62.207 -67.5293 68.1152 -71.6797 70.2148 -78.418 L 79.541 -78.418 C 84.2773 -78.418 86.6211 -75.9277 86.6211 -71.4355 L 86.6211 0.976562 C 86.6211 5.41992 84.2773 7.91016 79.541 7.91016 Z M 36.6211 -50.5859 L 72.2168 -50.5859 C 73.9746 -50.5859 75.3418 -51.9531 75.3418 -53.7598 C 75.3418 -55.4688 73.9746 -56.7871 72.2168 -56.7871 L 36.6211 -56.7871 C 34.7656 -56.7871 33.4473 -55.4688 33.4473 -53.7598 C 33.4473 -51.9531 34.7656 -50.5859 36.6211 -50.5859 Z M 36.6211 -33.6914 L 53.8574 -33.6914 C 55.6641 -33.6914 56.9824 -35.0586 56.9824 -36.7676 C 56.9824 -38.5254 55.6641 -39.8926 53.8574 -39.8926 L 36.6211 -39.8926 C 34.7656 -39.8926 33.4473 -38.5254 33.4473 -36.7676 C 33.4473 -35.0586 34.7656 -33.6914 36.6211 -33.6914 Z"/>
  </g>
  <g id="Regular-M" transform="matrix(1 0 0 1 1396.33 1126)">
   <path d="M 27.5879 17.0898 L 79.4434 17.0898 C 89.502 17.0898 94.5801 11.9629 94.5801 1.80664 L 94.5801 -72.2656 C 94.5801 -82.4707 89.5508 -87.5977 79.4434 -87.5977 L 64.9414 -87.5977 C 63.2812 -87.5977 62.207 -86.4258 62.207 -84.668 C 62.207 -79.5898 58.6914 -76.0254 53.5156 -76.0254 C 48.3398 -76.0254 44.7754 -79.5898 44.7754 -84.668 C 44.7754 -86.4258 43.7012 -87.5977 42.041 -87.5977 L 27.5879 -87.5977 C 17.4805 -87.5977 12.4512 -82.4707 12.4512 -72.2656 L 12.4512 1.80664 C 12.4512 11.9629 17.5293 17.0898 27.5879 17.0898 Z M 27.9785 9.22852 C 22.9004 9.22852 20.3125 6.49414 20.3125 1.66016 L 20.3125 -72.1191 C 20.3125 -77.002 22.9004 -79.7363 27.9785 -79.7363 L 37.8418 -79.7363 C 39.6973 -72.7539 45.6055 -68.4082 53.5156 -68.4082 C 61.4258 -68.4082 67.334 -72.7539 69.1895 -79.7363 L 79.0527 -79.7363 C 84.1309 -79.7363 86.7188 -77.002 86.7188 -72.1191 L 86.7188 1.66016 C 86.7188 6.49414 84.1309 9.22852 79.0527 9.22852 Z M 35.0098 -51.2207 L 72.0703 -51.2207 C 73.7793 -51.2207 75.0488 -52.5391 75.0488 -54.2969 C 75.0488 -55.957 73.7793 -57.2754 72.0703 -57.2754 L 35.0098 -57.2754 C 33.252 -57.2754 31.9824 -55.957 31.9824 -54.2969 C 31.9824 -52.5391 33.252 -51.2207 35.0098 -51.2207 Z M 35.0098 -33.8867 L 52.5391 -33.8867 C 54.2969 -33.8867 55.5664 -35.2051 55.5664 -36.8652 C 55.5664 -38.5742 54.2969 -39.8926 52.5391 -39.8926 L 35.0098 -39.8926 C 33.252 -39.8926 31.9824 -38.5742 31.9824 -36.8652 C 31.9824 -35.2051 33.252 -33.8867 35.0098 -33.8867 Z"/>
  </g>
  <g id="Light-M" transform="matrix(1 0 0 1 1100.33 1126)">
   <path d="M 26.709 16.8457 L 78.9062 16.8457 C 88.3301 16.8457 93.1641 11.9629 93.1641 2.44141 L 93.1641 -72.8516 C 93.1641 -82.373 88.3789 -87.207 78.9062 -87.207 L 64.4531 -87.207 C 63.1836 -87.207 62.3535 -86.3281 62.3535 -85.0098 C 62.3535 -79.5898 58.4473 -75.6348 52.832 -75.6348 C 47.168 -75.6348 43.2617 -79.5898 43.2617 -85.0098 C 43.2617 -86.3281 42.4316 -87.207 41.1621 -87.207 L 26.709 -87.207 C 17.2852 -87.207 12.4512 -82.373 12.4512 -72.8516 L 12.4512 2.44141 C 12.4512 11.9629 17.334 16.8457 26.709 16.8457 Z M 27.0508 10.791 C 21.3867 10.791 18.5059 7.71484 18.5059 2.29492 L 18.5059 -72.7051 C 18.5059 -78.2227 21.3867 -81.2012 27.0508 -81.2012 L 37.8418 -81.2012 C 39.3555 -74.2188 45.0684 -69.7754 52.832 -69.7754 C 60.5469 -69.7754 66.3086 -74.2188 67.8223 -81.2012 L 78.6133 -81.2012 C 84.2285 -81.2012 87.1582 -78.2227 87.1582 -72.7051 L 87.1582 2.29492 C 87.1582 7.71484 84.2285 10.791 78.6133 10.791 Z M 33.6426 -52.4902 L 72.0215 -52.4902 C 73.3887 -52.4902 74.4629 -53.5156 74.4629 -54.9316 C 74.4629 -56.2988 73.3887 -57.3242 72.0215 -57.3242 L 33.6426 -57.3242 C 32.2266 -57.3242 31.2012 -56.2988 31.2012 -54.9316 C 31.2012 -53.5156 32.2266 -52.4902 33.6426 -52.4902 Z M 33.6426 -34.668 L 52.1484 -34.668 C 53.5156 -34.668 54.5898 -35.7422 54.5898 -37.0605 C 54.5898 -38.4277 53.5156 -39.502 52.1484 -39.502 L 33.6426 -39.502 C 32.2266 -39.502 31.2012 -38.4277 31.2012 -37.0605 C 31.2012 -35.7422 32.2266 -34.668 33.6426 -34.668 Z"/>
  </g>
  <g id="Thin-M" transform="matrix(1 0 0 1 804.518 1126)">
   <path d="M 25.5859 16.4551 L 78.2227 16.4551 C 86.7188 16.4551 91.3574 11.9141 91.3574 3.27148 L 91.3574 -73.584 C 91.3574 -82.2754 86.8164 -86.7676 78.2227 -86.7676 L 63.7695 -86.7676 C 62.9883 -86.7676 62.5488 -86.2305 62.5488 -85.4492 C 62.5488 -79.6387 58.1543 -75.1465 51.9043 -75.1465 C 45.6543 -75.1465 41.2598 -79.6387 41.2598 -85.4492 C 41.2598 -86.2305 40.7715 -86.7676 40.0391 -86.7676 L 25.5859 -86.7676 C 16.9434 -86.7676 12.4512 -82.2754 12.4512 -73.584 L 12.4512 3.27148 C 12.4512 11.9141 17.041 16.4551 25.5859 16.4551 Z M 25.7812 12.8418 C 19.3848 12.8418 16.0645 9.27734 16.0645 3.17383 L 16.0645 -73.4863 C 16.0645 -79.834 19.3848 -83.1543 25.7812 -83.1543 L 37.8418 -83.1543 C 38.8672 -76.123 44.4336 -71.582 51.9043 -71.582 C 59.375 -71.582 64.9414 -76.123 65.918 -83.1543 L 78.0273 -83.1543 C 84.4238 -83.1543 87.7441 -79.834 87.7441 -73.4863 L 87.7441 3.17383 C 87.7441 9.27734 84.4238 12.8418 78.0273 12.8418 Z M 31.8848 -54.1016 L 71.9727 -54.1016 C 72.9004 -54.1016 73.6328 -54.7852 73.6328 -55.7617 C 73.6328 -56.7383 72.9004 -57.4219 71.9727 -57.4219 L 31.8848 -57.4219 C 30.9082 -57.4219 30.1758 -56.7383 30.1758 -55.7617 C 30.1758 -54.7852 30.9082 -54.1016 31.8848 -54.1016 Z M 31.8848 -35.6934 L 51.6113 -35.6934 C 52.5391 -35.6934 53.2715 -36.4258 53.2715 -37.3047 C 53.2715 -38.2324 52.5391 -38.9648 51.6113 -38.9648 L 31.8848 -38.9648 C 30.9082 -38.9648 30.1758 -38.2324 30.1758 -37.3047 C 30.1758 -36.4258 30.9082 -35.6934 31.8848 -35.6934 Z"/>
  </g>
  <g id="Ultralight-M" transform="matrix(1 0 0 1 508.295 1126)">
   <path d="M 25 16.2598 L 77.8809 16.2598 C 85.9375 16.2598 90.3809 11.9141 90.3809 3.71094 L 90.3809 -73.9746 C 90.3809 -82.1777 86.0352 -86.5234 77.8809 -86.5234 L 63.4277 -86.5234 C 62.9395 -86.5234 62.6465 -86.1816 62.6465 -85.6934 C 62.6465 -79.6387 58.0078 -74.8535 51.416 -74.8535 C 44.873 -74.8535 40.2344 -79.6387 40.2344 -85.6934 C 40.2344 -86.1816 39.9414 -86.5234 39.4531 -86.5234 L 25 -86.5234 C 16.7969 -86.5234 12.4512 -82.1777 12.4512 -73.9746 L 12.4512 3.71094 C 12.4512 11.9141 16.9434 16.2598 25 16.2598 Z M 25.0977 13.8672 C 18.3594 13.8672 14.8438 10.1074 14.8438 3.61328 L 14.8438 -73.877 C 14.8438 -80.6152 18.3594 -84.1309 25.0977 -84.1309 L 37.8906 -84.1309 C 38.623 -77.0996 44.0918 -72.4609 51.416 -72.4609 C 58.7891 -72.4609 64.209 -77.0996 64.9414 -84.1309 L 77.7344 -84.1309 C 84.5215 -84.1309 87.9883 -80.6152 87.9883 -73.877 L 87.9883 3.61328 C 87.9883 10.1074 84.5215 13.8672 77.7344 13.8672 Z M 30.957 -54.9805 L 71.9727 -54.9805 C 72.6562 -54.9805 73.1934 -55.4199 73.1934 -56.1523 C 73.1934 -56.9824 72.6562 -57.4707 71.9727 -57.4707 L 30.957 -57.4707 C 30.2246 -57.4707 29.6875 -56.9824 29.6875 -56.1523 C 29.6875 -55.4199 30.2246 -54.9805 30.957 -54.9805 Z M 30.957 -36.2305 L 51.3184 -36.2305 C 52.0508 -36.2305 52.5879 -36.7676 52.5879 -37.4512 C 52.5879 -38.1348 52.0508 -38.6719 51.3184 -38.6719 L 30.957 -38.6719 C 30.2246 -38.6719 29.6875 -38.1348 29.6875 -37.4512 C 29.6875 -36.7676 30.2246 -36.2305 30.957 -36.2305 Z"/>
  </g>
  <g id="Black-S" transform="matrix(1 0 0 1 2887.7 696)">
   <path d="M 25 8.1543 L 66.4062 8.1543 C 75.9766 8.1543 81.6406 2.49023 81.6406 -7.08008 L 81.6406 -63.3789 C 81.6406 -72.9492 75.9766 -78.5645 66.4062 -78.5645 L 54.5898 -78.5645 C 52.6367 -78.5645 51.709 -77.832 51.709 -76.3672 C 51.709 -73.584 49.6582 -70.3613 45.7031 -70.3613 C 41.748 -70.3613 39.6973 -73.584 39.6973 -76.3672 C 39.6973 -77.832 38.7695 -78.5645 36.8164 -78.5645 L 25 -78.5645 C 15.4297 -78.5645 9.76562 -72.9492 9.76562 -63.3789 L 9.76562 -7.08008 C 9.76562 2.49023 15.4297 8.1543 25 8.1543 Z M 27.2461 -6.00586 C 24.8047 -6.00586 23.9258 -7.08008 23.9258 -9.32617 L 23.9258 -61.1328 C 23.9258 -63.3789 24.8047 -64.4531 27.2461 -64.4531 L 33.0078 -64.4531 C 35.3516 -60.0098 39.9414 -57.4707 45.7031 -57.4707 C 51.4648 -57.4707 56.0547 -60.0098 58.3984 -64.4531 L 64.1602 -64.4531 C 66.6016 -64.4531 67.4805 -63.3789 67.4805 -61.1328 L 67.4805 -9.32617 C 67.4805 -7.08008 66.6016 -6.00586 64.1602 -6.00586 Z M 34.1797 -45.0684 L 57.1777 -45.0684 C 58.7402 -45.0684 59.9121 -46.2891 59.9121 -47.8516 C 59.9121 -49.3652 58.7402 -50.5371 57.1777 -50.5371 L 34.1797 -50.5371 C 32.5684 -50.5371 31.3965 -49.3652 31.3965 -47.8516 C 31.3965 -46.2891 32.5684 -45.0684 34.1797 -45.0684 Z M 34.1797 -33.3496 L 46.7773 -33.3496 C 48.3398 -33.3496 49.5117 -34.5215 49.5117 -36.0352 C 49.5117 -37.5977 48.3398 -38.8184 46.7773 -38.8184 L 34.1797 -38.8184 C 32.5684 -38.8184 31.3965 -37.5977 31.3965 -36.0352 C 31.3965 -34.5215 32.5684 -33.3496 34.1797 -33.3496 Z"/>
  </g>
  <g id="Heavy-S" transform="matrix(1 0 0 1 2591.79 696)">
   <path d="M 24.3164 7.61719 L 65.4785 7.61719 C 74.7559 7.61719 80.0293 2.29492 80.0293 -6.93359 L 80.0293 -63.5254 C 80.0293 -72.8027 74.7559 -78.0762 65.4785 -78.0762 L 53.7598 -78.0762 C 51.9531 -78.0762 50.9766 -77.2461 50.9766 -75.7812 C 50.9766 -72.7539 48.8281 -69.6777 44.873 -69.6777 C 40.9668 -69.6777 38.7695 -72.7539 38.7695 -75.7812 C 38.7695 -77.2461 37.8418 -78.0762 35.9863 -78.0762 L 24.3164 -78.0762 C 15.0391 -78.0762 9.76562 -72.8027 9.76562 -63.5254 L 9.76562 -6.93359 C 9.76562 2.29492 15.0391 7.61719 24.3164 7.61719 Z M 26.123 -4.83398 C 23.3887 -4.83398 22.2656 -6.15234 22.2656 -8.69141 L 22.2656 -61.7676 C 22.2656 -64.3066 23.3887 -65.625 26.123 -65.625 L 32.1777 -65.625 C 34.375 -60.9375 39.0137 -58.2031 44.873 -58.2031 C 50.7812 -58.2031 55.4199 -60.9375 57.6172 -65.625 L 63.6719 -65.625 C 66.4062 -65.625 67.5293 -64.3066 67.5293 -61.7676 L 67.5293 -8.69141 C 67.5293 -6.15234 66.4062 -4.83398 63.6719 -4.83398 Z M 32.7637 -45.5566 L 57.0312 -45.5566 C 58.5449 -45.5566 59.7168 -46.7773 59.7168 -48.3398 C 59.7168 -49.8047 58.5449 -50.9766 57.0312 -50.9766 L 32.7637 -50.9766 C 31.1523 -50.9766 29.9805 -49.8047 29.9805 -48.3398 C 29.9805 -46.7773 31.1523 -45.5566 32.7637 -45.5566 Z M 32.7637 -33.4473 L 45.5078 -33.4473 C 47.0703 -33.4473 48.2422 -34.6191 48.2422 -36.1328 C 48.2422 -37.6953 47.0703 -38.8672 45.5078 -38.8672 L 32.7637 -38.8672 C 31.1523 -38.8672 29.9805 -37.6953 29.9805 -36.1328 C 29.9805 -34.6191 31.1523 -33.4473 32.7637 -33.4473 Z"/>
  </g>
  <g id="Bold-S" transform="matrix(1 0 0 1 2295.98 696)">
   <path d="M 23.5352 7.03125 L 64.4531 7.03125 C 73.3398 7.03125 78.2227 2.09961 78.2227 -6.78711 L 78.2227 -63.6719 C 78.2227 -72.6074 73.3398 -77.4902 64.4531 -77.4902 L 52.8809 -77.4902 C 51.123 -77.4902 50.1953 -76.6113 50.1953 -75.0977 C 50.1953 -71.7773 47.9004 -68.8477 43.9941 -68.8477 C 40.0879 -68.8477 37.793 -71.7773 37.793 -75.0977 C 37.793 -76.6113 36.8164 -77.4902 35.1074 -77.4902 L 23.5352 -77.4902 C 14.6484 -77.4902 9.76562 -72.6074 9.76562 -63.6719 L 9.76562 -6.78711 C 9.76562 2.09961 14.6484 7.03125 23.5352 7.03125 Z M 24.8047 -3.56445 C 21.7773 -3.56445 20.3613 -5.12695 20.3613 -7.95898 L 20.3613 -62.5 C 20.3613 -65.3809 21.7773 -66.8945 24.8047 -66.8945 L 31.25 -66.8945 C 33.3008 -61.9629 37.9395 -59.0332 43.9941 -59.0332 C 50 -59.0332 54.6875 -61.9629 56.6895 -66.8945 L 63.1348 -66.8945 C 66.2109 -66.8945 67.627 -65.3809 67.627 -62.5 L 67.627 -7.95898 C 67.627 -5.12695 66.2109 -3.56445 63.1348 -3.56445 Z M 31.1523 -46.0938 L 56.8359 -46.0938 C 58.3496 -46.0938 59.5215 -47.3145 59.5215 -48.877 C 59.5215 -50.3418 58.3496 -51.5137 56.8359 -51.5137 L 31.1523 -51.5137 C 29.541 -51.5137 28.418 -50.3418 28.418 -48.877 C 28.418 -47.3145 29.541 -46.0938 31.1523 -46.0938 Z M 31.1523 -33.5938 L 44.0918 -33.5938 C 45.6055 -33.5938 46.7773 -34.7168 46.7773 -36.2305 C 46.7773 -37.7441 45.6055 -38.9648 44.0918 -38.9648 L 31.1523 -38.9648 C 29.541 -38.9648 28.418 -37.7441 28.418 -36.2305 C 28.418 -34.7168 29.541 -33.5938 31.1523 -33.5938 Z"/>
  </g>
  <g id="Semibold-S" transform="matrix(1 0 0 1 1999.91 696)">
   <path d="M 22.998 6.64062 L 63.7695 6.64062 C 72.3633 6.64062 76.9531 2.00195 76.9531 -6.68945 L 76.9531 -63.7695 C 76.9531 -72.5098 72.4121 -77.0996 63.7695 -77.0996 L 52.2461 -77.0996 C 50.5859 -77.0996 49.6094 -76.1719 49.6094 -74.6094 C 49.6094 -71.1426 47.2168 -68.3105 43.3594 -68.3105 C 39.502 -68.3105 37.0605 -71.1426 37.0605 -74.6094 C 37.0605 -76.1719 36.084 -77.0996 34.4727 -77.0996 L 22.998 -77.0996 C 14.3555 -77.0996 9.76562 -72.5098 9.76562 -63.7695 L 9.76562 -6.68945 C 9.76562 2.00195 14.3555 6.64062 22.998 6.64062 Z M 23.9258 -2.68555 C 20.6543 -2.68555 19.0918 -4.39453 19.0918 -7.4707 L 19.0918 -62.9883 C 19.0918 -66.1133 20.6543 -67.8223 23.9258 -67.8223 L 30.6641 -67.8223 C 32.5684 -62.6465 37.2559 -59.5703 43.3594 -59.5703 C 49.5117 -59.5703 54.1992 -62.6465 56.0547 -67.8223 L 62.793 -67.8223 C 66.0645 -67.8223 67.6758 -66.1133 67.6758 -62.9883 L 67.6758 -7.4707 C 67.6758 -4.39453 66.0645 -2.68555 62.793 -2.68555 Z M 30.0293 -46.4844 L 56.6895 -46.4844 C 58.252 -46.4844 59.375 -47.7051 59.375 -49.2188 C 59.375 -50.6836 58.252 -51.8555 56.6895 -51.8555 L 30.0293 -51.8555 C 28.4668 -51.8555 27.3438 -50.6836 27.3438 -49.2188 C 27.3438 -47.7051 28.4668 -46.4844 30.0293 -46.4844 Z M 30.0293 -33.6426 L 43.1152 -33.6426 C 44.6289 -33.6426 45.8008 -34.8145 45.8008 -36.2793 C 45.8008 -37.793 44.6289 -39.0137 43.1152 -39.0137 L 30.0293 -39.0137 C 28.4668 -39.0137 27.3438 -37.793 27.3438 -36.2793 C 27.3438 -34.8145 28.4668 -33.6426 30.0293 -33.6426 Z"/>
  </g>
  <g id="Medium-S" transform="matrix(1 0 0 1 1703.66 696)">
   <path d="M 22.5586 6.29883 L 63.2324 6.29883 C 71.6797 6.29883 76.0254 1.9043 76.0254 -6.64062 L 76.0254 -63.8672 C 76.0254 -72.4121 71.6797 -76.8066 63.2324 -76.8066 L 51.7578 -76.8066 C 50.1953 -76.8066 49.2188 -75.8301 49.2188 -74.2676 C 49.2188 -70.6055 46.7285 -67.9199 42.8711 -67.9199 C 39.0137 -67.9199 36.5234 -70.6055 36.5234 -74.2676 C 36.5234 -75.8301 35.5469 -76.8066 33.9844 -76.8066 L 22.5586 -76.8066 C 14.1113 -76.8066 9.76562 -72.4121 9.76562 -63.8672 L 9.76562 -6.64062 C 9.76562 1.9043 14.1113 6.29883 22.5586 6.29883 Z M 23.291 -2.00195 C 19.8242 -2.00195 18.0664 -3.85742 18.0664 -7.12891 L 18.0664 -63.3789 C 18.0664 -66.6504 19.8242 -68.5059 23.291 -68.5059 L 30.2246 -68.5059 C 31.9824 -63.2324 36.6699 -60.0098 42.8711 -60.0098 C 49.0723 -60.0098 53.7598 -63.2324 55.5664 -68.5059 L 62.5 -68.5059 C 65.9668 -68.5059 67.6758 -66.6504 67.6758 -63.3789 L 67.6758 -7.12891 C 67.6758 -3.85742 65.9668 -2.00195 62.5 -2.00195 Z M 29.1992 -46.7773 L 56.5918 -46.7773 C 58.1543 -46.7773 59.2773 -47.9492 59.2773 -49.5117 C 59.2773 -50.9766 58.1543 -52.0996 56.5918 -52.0996 L 29.1992 -52.0996 C 27.6367 -52.0996 26.5137 -50.9766 26.5137 -49.5117 C 26.5137 -47.9492 27.6367 -46.7773 29.1992 -46.7773 Z M 29.1992 -33.7402 L 42.3828 -33.7402 C 43.8965 -33.7402 45.0195 -34.8633 45.0195 -36.3281 C 45.0195 -37.8418 43.8965 -39.0625 42.3828 -39.0625 L 29.1992 -39.0625 C 27.6367 -39.0625 26.5137 -37.8418 26.5137 -36.3281 C 26.5137 -34.8633 27.6367 -33.7402 29.1992 -33.7402 Z"/>
  </g>
  <g id="Regular-S" transform="matrix(1 0 0 1 1407.56 696)">
   <path d="M 22.0215 5.9082 L 62.5 5.9082 C 70.7031 5.9082 74.8047 1.75781 74.8047 -6.54297 L 74.8047 -63.9648 C 74.8047 -72.3145 70.7031 -76.416 62.5 -76.416 L 51.123 -76.416 C 49.6582 -76.416 48.6328 -75.3906 48.6328 -73.7793 C 48.6328 -69.9707 46.0938 -67.3828 42.2852 -67.3828 C 38.4277 -67.3828 35.8398 -69.9707 35.8398 -73.7793 C 35.8398 -75.3906 34.8633 -76.416 33.3496 -76.416 L 22.0215 -76.416 C 13.8184 -76.416 9.76562 -72.3145 9.76562 -63.9648 L 9.76562 -6.54297 C 9.76562 1.75781 13.8184 5.9082 22.0215 5.9082 Z M 22.4121 -1.12305 C 18.7012 -1.12305 16.7969 -3.125 16.7969 -6.64062 L 16.7969 -63.8672 C 16.7969 -67.3828 18.7012 -69.3848 22.4121 -69.3848 L 29.6875 -69.3848 C 31.2988 -63.916 35.9863 -60.5469 42.2852 -60.5469 C 48.584 -60.5469 53.2715 -63.916 54.8828 -69.3848 L 62.1582 -69.3848 C 65.8203 -69.3848 67.7246 -67.3828 67.7246 -63.8672 L 67.7246 -6.64062 C 67.7246 -3.125 65.8203 -1.12305 62.1582 -1.12305 Z M 28.125 -47.168 L 56.4941 -47.168 C 58.0078 -47.168 59.1309 -48.3398 59.1309 -49.8535 C 59.1309 -51.3184 58.0078 -52.4414 56.4941 -52.4414 L 28.125 -52.4414 C 26.5625 -52.4414 25.4395 -51.3184 25.4395 -49.8535 C 25.4395 -48.3398 26.5625 -47.168 28.125 -47.168 Z M 28.125 -33.7891 L 41.4062 -33.7891 C 42.9199 -33.7891 44.043 -34.9609 44.043 -36.4258 C 44.043 -37.9395 42.9199 -39.1113 41.4062 -39.1113 L 28.125 -39.1113 C 26.5625 -39.1113 25.4395 -37.9395 25.4395 -36.4258 C 25.4395 -34.9609 26.5625 -33.7891 28.125 -33.7891 Z"/>
  </g>
  <g id="Light-S" transform="matrix(1 0 0 1 1111.48 696)">
   <path d="M 21.2891 5.66406 L 62.0605 5.66406 C 69.6777 5.66406 73.5352 1.75781 73.5352 -5.95703 L 73.5352 -64.4531 C 73.5352 -72.2168 69.6777 -76.123 62.0605 -76.123 L 50.6836 -76.123 C 49.5605 -76.123 48.7793 -75.293 48.7793 -74.0723 C 48.7793 -69.9707 45.8984 -67.041 41.6504 -67.041 C 37.4023 -67.041 34.5215 -69.9707 34.5215 -74.0723 C 34.5215 -75.293 33.7402 -76.123 32.6172 -76.123 L 21.2891 -76.123 C 13.623 -76.123 9.76562 -72.2168 9.76562 -64.4531 L 9.76562 -5.95703 C 9.76562 1.75781 13.6719 5.66406 21.2891 5.66406 Z M 21.582 0.244141 C 17.3828 0.244141 15.1855 -2.05078 15.1855 -6.05469 L 15.1855 -64.3555 C 15.1855 -68.457 17.3828 -70.6543 21.582 -70.6543 L 29.6387 -70.6543 C 30.957 -65.2344 35.5469 -61.7676 41.6504 -61.7676 C 47.8027 -61.7676 52.3438 -65.2344 53.6621 -70.6543 L 61.7676 -70.6543 C 65.9668 -70.6543 68.1152 -68.457 68.1152 -64.3555 L 68.1152 -6.05469 C 68.1152 -2.05078 65.9668 0.244141 61.7676 0.244141 Z M 26.9043 -48.2422 L 56.4453 -48.2422 C 57.666 -48.2422 58.5938 -49.1699 58.5938 -50.3906 C 58.5938 -51.6113 57.666 -52.4902 56.4453 -52.4902 L 26.9043 -52.4902 C 25.6348 -52.4902 24.7559 -51.6113 24.7559 -50.3906 C 24.7559 -49.1699 25.6348 -48.2422 26.9043 -48.2422 Z M 26.9043 -34.5215 L 41.0156 -34.5215 C 42.2363 -34.5215 43.1641 -35.4004 43.1641 -36.5723 C 43.1641 -37.793 42.2363 -38.7207 41.0156 -38.7207 L 26.9043 -38.7207 C 25.6348 -38.7207 24.7559 -37.793 24.7559 -36.5723 C 24.7559 -35.4004 25.6348 -34.5215 26.9043 -34.5215 Z"/>
  </g>
  <g id="Thin-S" transform="matrix(1 0 0 1 815.578 696)">
   <path d="M 20.2637 5.32227 L 61.4258 5.32227 C 68.2617 5.32227 71.9238 1.70898 71.9238 -5.22461 L 71.9238 -65.1367 C 71.9238 -72.1191 68.3594 -75.6836 61.4258 -75.6836 L 50.0977 -75.6836 C 49.4141 -75.6836 48.9746 -75.1953 48.9746 -74.5117 C 48.9746 -70.0195 45.6543 -66.6016 40.8691 -66.6016 C 36.084 -66.6016 32.7148 -70.0195 32.7148 -74.5117 C 32.7148 -75.1953 32.2754 -75.6836 31.5918 -75.6836 L 20.2637 -75.6836 C 13.3789 -75.6836 9.76562 -72.1191 9.76562 -65.1367 L 9.76562 -5.22461 C 9.76562 1.70898 13.4277 5.32227 20.2637 5.32227 Z M 20.459 2.05078 C 15.5762 2.05078 13.0859 -0.634766 13.0859 -5.32227 L 13.0859 -65.0391 C 13.0859 -69.873 15.5762 -72.4121 20.459 -72.4121 L 29.6387 -72.4121 C 30.5664 -66.8945 34.9121 -63.3301 40.8691 -63.3301 C 46.7773 -63.3301 51.123 -66.8945 52.0508 -72.4121 L 61.2793 -72.4121 C 66.1133 -72.4121 68.6035 -69.873 68.6035 -65.0391 L 68.6035 -5.32227 C 68.6035 -0.634766 66.1133 2.05078 61.2793 2.05078 Z M 25.3418 -49.707 L 56.4453 -49.707 C 57.2266 -49.707 57.8613 -50.293 57.8613 -51.123 C 57.8613 -52.002 57.2266 -52.5879 56.4453 -52.5879 L 25.3418 -52.5879 C 24.4629 -52.5879 23.877 -52.002 23.877 -51.123 C 23.877 -50.293 24.4629 -49.707 25.3418 -49.707 Z M 25.3418 -35.4004 L 40.5273 -35.4004 C 41.3574 -35.4004 41.9922 -36.0352 41.9922 -36.8164 C 41.9922 -37.5977 41.3574 -38.2324 40.5273 -38.2324 L 25.3418 -38.2324 C 24.4629 -38.2324 23.877 -37.5977 23.877 -36.8164 C 23.877 -36.0352 24.4629 -35.4004 25.3418 -35.4004 Z"/>
  </g>
  <g id="Ultralight-S" transform="matrix(1 0 0 1 519.281 696)">
   <path d="M 19.7266 5.17578 L 61.084 5.17578 C 67.5293 5.17578 71.0938 1.70898 71.0938 -4.83398 L 71.0938 -65.4785 C 71.0938 -72.0215 67.627 -75.4883 61.084 -75.4883 L 49.7559 -75.4883 C 49.3164 -75.4883 49.0723 -75.1465 49.0723 -74.707 C 49.0723 -70.0195 45.5078 -66.3574 40.4297 -66.3574 C 35.3516 -66.3574 31.7871 -70.0195 31.7871 -74.707 C 31.7871 -75.1465 31.543 -75.4883 31.0547 -75.4883 L 19.7266 -75.4883 C 13.2324 -75.4883 9.76562 -72.0215 9.76562 -65.4785 L 9.76562 -4.83398 C 9.76562 1.70898 13.3301 5.17578 19.7266 5.17578 Z M 19.873 2.97852 C 14.6484 2.97852 11.9629 0.0976562 11.9629 -4.93164 L 11.9629 -65.3809 C 11.9629 -70.6055 14.6484 -73.291 19.873 -73.291 L 29.6875 -73.291 C 30.3711 -67.7734 34.6191 -64.1602 40.4297 -64.1602 C 46.2402 -64.1602 50.4883 -67.7734 51.1719 -73.291 L 60.9863 -73.291 C 66.2109 -73.291 68.8965 -70.6055 68.8965 -65.3809 L 68.8965 -4.93164 C 68.8965 0.0976562 66.2109 2.97852 60.9863 2.97852 Z M 24.5117 -50.4395 L 56.3965 -50.4395 C 56.9824 -50.4395 57.4707 -50.8789 57.4707 -51.5137 C 57.4707 -52.1973 56.9824 -52.6367 56.3965 -52.6367 L 24.5117 -52.6367 C 23.877 -52.6367 23.3887 -52.1973 23.3887 -51.5137 C 23.3887 -50.8789 23.877 -50.4395 24.5117 -50.4395 Z M 24.5117 -35.8887 L 40.2832 -35.8887 C 40.918 -35.8887 41.4062 -36.377 41.4062 -36.9141 C 41.4062 -37.5 40.918 -37.9883 40.2832 -37.9883 L 24.5117 -37.9883 C 23.877 -37.9883 23.3887 -37.5 23.3887 -36.9141 C 23.3887 -36.377 23.877 -35.8887 24.5117 -35.8887 Z"/>
  </g>
 </g>
</svg>
