<?xml version="1.0" encoding="UTF-8"?>
<!--Generator: Apple Native CoreSVG 148-->
<!DOCTYPE svg
PUBLIC "-//W3C//DTD SVG 1.1//EN"
       "http://www.w3.org/Graphics/SVG/1.1/DTD/svg11.dtd">
<svg version="1.1" xmlns="http://www.w3.org/2000/svg" xmlns:xlink="http://www.w3.org/1999/xlink" width="3300" height="2200">
 <!--glyph: "uni10059B.medium", point size: 100.000000, font version: "Version 16.0d11e1", template writer version: "8"-->
 <g id="Notes">
  <rect height="2200" id="artboard" style="fill:white;opacity:1" width="3300" x="0" y="0"/>
  <line id="" style="fill:none;stroke:black;opacity:1;stroke-width:0.5;" x1="263" x2="3036" y1="292" y2="292"/>
  <text style="stroke:none;fill:black;font-family:-apple-system,&quot;SF Pro Display&quot;,&quot;SF Pro Text&quot;,Helvetica,sans-serif;font-weight:bold;" transform="matrix(1 0 0 1 263 322)">Weight/Scale Variations</text>
  <text style="stroke:none;fill:black;font-family:-apple-system,&quot;SF Pro Display&quot;,&quot;SF Pro Text&quot;,Helvetica,sans-serif;text-anchor:middle;" transform="matrix(1 0 0 1 559.711 322)">Ultralight</text>
  <text style="stroke:none;fill:black;font-family:-apple-system,&quot;SF Pro Display&quot;,&quot;SF Pro Text&quot;,Helvetica,sans-serif;text-anchor:middle;" transform="matrix(1 0 0 1 856.422 322)">Thin</text>
  <text style="stroke:none;fill:black;font-family:-apple-system,&quot;SF Pro Display&quot;,&quot;SF Pro Text&quot;,Helvetica,sans-serif;text-anchor:middle;" transform="matrix(1 0 0 1 1153.13 322)">Light</text>
  <text style="stroke:none;fill:black;font-family:-apple-system,&quot;SF Pro Display&quot;,&quot;SF Pro Text&quot;,Helvetica,sans-serif;text-anchor:middle;" transform="matrix(1 0 0 1 1449.84 322)">Regular</text>
  <text style="stroke:none;fill:black;font-family:-apple-system,&quot;SF Pro Display&quot;,&quot;SF Pro Text&quot;,Helvetica,sans-serif;text-anchor:middle;" transform="matrix(1 0 0 1 1746.56 322)">Medium</text>
  <text style="stroke:none;fill:black;font-family:-apple-system,&quot;SF Pro Display&quot;,&quot;SF Pro Text&quot;,Helvetica,sans-serif;text-anchor:middle;" transform="matrix(1 0 0 1 2043.27 322)">Semibold</text>
  <text style="stroke:none;fill:black;font-family:-apple-system,&quot;SF Pro Display&quot;,&quot;SF Pro Text&quot;,Helvetica,sans-serif;text-anchor:middle;" transform="matrix(1 0 0 1 2339.98 322)">Bold</text>
  <text style="stroke:none;fill:black;font-family:-apple-system,&quot;SF Pro Display&quot;,&quot;SF Pro Text&quot;,Helvetica,sans-serif;text-anchor:middle;" transform="matrix(1 0 0 1 2636.69 322)">Heavy</text>
  <text style="stroke:none;fill:black;font-family:-apple-system,&quot;SF Pro Display&quot;,&quot;SF Pro Text&quot;,Helvetica,sans-serif;text-anchor:middle;" transform="matrix(1 0 0 1 2933.4 322)">Black</text>
  <line id="" style="fill:none;stroke:black;opacity:1;stroke-width:0.5;" x1="263" x2="3036" y1="1903" y2="1903"/>
  <g id="" transform="matrix(1 0 0 1 263 1933)">
   <path d="M 9.24805 0.830078 C 13.5547 0.830078 17.1387 -2.74414 17.1387 -7.05078 C 17.1387 -11.3574 13.5449 -14.9316 9.23828 -14.9316 C 4.94141 -14.9316 1.36719 -11.3574 1.36719 -7.05078 C 1.36719 -2.74414 4.95117 0.830078 9.24805 0.830078 Z M 9.24805 -0.654297 C 5.70312 -0.654297 2.87109 -3.49609 2.87109 -7.05078 C 2.87109 -10.6055 5.69336 -13.4473 9.23828 -13.4473 C 12.793 -13.4473 15.6348 -10.6055 15.6445 -7.05078 C 15.6543 -3.49609 12.8027 -0.654297 9.24805 -0.654297 Z M 9.22852 -3.62305 C 9.69727 -3.62305 9.9707 -3.93555 9.9707 -4.45312 L 9.9707 -6.31836 L 12.002 -6.31836 C 12.5 -6.31836 12.832 -6.57227 12.832 -7.04102 C 12.832 -7.51953 12.5195 -7.7832 12.002 -7.7832 L 9.9707 -7.7832 L 9.9707 -9.81445 C 9.9707 -10.332 9.69727 -10.6543 9.22852 -10.6543 C 8.75977 -10.6543 8.50586 -10.3125 8.50586 -9.81445 L 8.50586 -7.7832 L 6.49414 -7.7832 C 5.97656 -7.7832 5.64453 -7.51953 5.64453 -7.04102 C 5.64453 -6.57227 5.99609 -6.31836 6.49414 -6.31836 L 8.50586 -6.31836 L 8.50586 -4.45312 C 8.50586 -3.95508 8.75977 -3.62305 9.22852 -3.62305 Z"/>
  </g>
  <g id="" transform="matrix(1 0 0 1 281.506 1933)">
   <path d="M 11.709 2.91016 C 17.1582 2.91016 21.6699 -1.61133 21.6699 -7.05078 C 21.6699 -12.5 17.1484 -17.0117 11.6992 -17.0117 C 6.25977 -17.0117 1.74805 -12.5 1.74805 -7.05078 C 1.74805 -1.61133 6.26953 2.91016 11.709 2.91016 Z M 11.709 1.25 C 7.09961 1.25 3.41797 -2.44141 3.41797 -7.05078 C 3.41797 -11.6602 7.08984 -15.3516 11.6992 -15.3516 C 16.3086 -15.3516 20 -11.6602 20.0098 -7.05078 C 20.0195 -2.44141 16.3184 1.25 11.709 1.25 Z M 11.6797 -2.66602 C 12.207 -2.66602 12.5098 -3.01758 12.5098 -3.59375 L 12.5098 -6.23047 L 15.3223 -6.23047 C 15.8691 -6.23047 16.25 -6.51367 16.25 -7.03125 C 16.25 -7.55859 15.8887 -7.86133 15.3223 -7.86133 L 12.5098 -7.86133 L 12.5098 -10.6836 C 12.5098 -11.25 12.207 -11.6113 11.6797 -11.6113 C 11.1621 -11.6113 10.8789 -11.2305 10.8789 -10.6836 L 10.8789 -7.86133 L 8.07617 -7.86133 C 7.50977 -7.86133 7.13867 -7.55859 7.13867 -7.03125 C 7.13867 -6.51367 7.5293 -6.23047 8.07617 -6.23047 L 10.8789 -6.23047 L 10.8789 -3.59375 C 10.8789 -3.03711 11.1621 -2.66602 11.6797 -2.66602 Z"/>
  </g>
  <g id="" transform="matrix(1 0 0 1 304.924 1933)">
   <path d="M 14.9707 5.66406 C 21.9336 5.66406 27.6953 -0.0976562 27.6953 -7.05078 C 27.6953 -14.0137 21.9238 -19.7754 14.9609 -19.7754 C 8.00781 -19.7754 2.25586 -14.0137 2.25586 -7.05078 C 2.25586 -0.0976562 8.01758 5.66406 14.9707 5.66406 Z M 14.9707 3.84766 C 8.93555 3.84766 4.08203 -1.01562 4.08203 -7.05078 C 4.08203 -13.0957 8.92578 -17.9492 14.9609 -17.9492 C 21.0059 -17.9492 25.8594 -13.0957 25.8691 -7.05078 C 25.8789 -1.01562 21.0156 3.84766 14.9707 3.84766 Z M 14.9414 -1.38672 C 15.5176 -1.38672 15.8594 -1.77734 15.8594 -2.38281 L 15.8594 -6.13281 L 19.7754 -6.13281 C 20.3711 -6.13281 20.7812 -6.46484 20.7812 -7.02148 C 20.7812 -7.59766 20.3906 -7.93945 19.7754 -7.93945 L 15.8594 -7.93945 L 15.8594 -11.8652 C 15.8594 -12.4805 15.5176 -12.8711 14.9414 -12.8711 C 14.375 -12.8711 14.0527 -12.4609 14.0527 -11.8652 L 14.0527 -7.93945 L 10.1465 -7.93945 C 9.53125 -7.93945 9.13086 -7.59766 9.13086 -7.02148 C 9.13086 -6.46484 9.55078 -6.13281 10.1465 -6.13281 L 14.0527 -6.13281 L 14.0527 -2.38281 C 14.0527 -1.79688 14.375 -1.38672 14.9414 -1.38672 Z"/>
  </g>
  <text style="stroke:none;fill:black;font-family:-apple-system,&quot;SF Pro Display&quot;,&quot;SF Pro Text&quot;,Helvetica,sans-serif;font-weight:bold;" transform="matrix(1 0 0 1 263 1953)">Design Variations</text>
  <text style="stroke:none;fill:black;font-family:-apple-system,&quot;SF Pro Display&quot;,&quot;SF Pro Text&quot;,Helvetica,sans-serif;" transform="matrix(1 0 0 1 263 1971)">Symbols are supported in up to nine weights and three scales.</text>
  <text style="stroke:none;fill:black;font-family:-apple-system,&quot;SF Pro Display&quot;,&quot;SF Pro Text&quot;,Helvetica,sans-serif;" transform="matrix(1 0 0 1 263 1989)">For optimal layout with text and other symbols, vertically align</text>
  <text style="stroke:none;fill:black;font-family:-apple-system,&quot;SF Pro Display&quot;,&quot;SF Pro Text&quot;,Helvetica,sans-serif;" transform="matrix(1 0 0 1 263 2007)">symbols with the adjacent text.</text>
  <line id="" style="fill:none;stroke:#00AEEF;stroke-width:0.5;opacity:1.0;" x1="776" x2="776" y1="1919" y2="1933"/>
  <g id="" transform="matrix(1 0 0 1 776 1933)">
   <path d="M 3.31055 0.126953 C 3.82812 0.126953 4.08203 -0.0683594 4.26758 -0.605469 L 5.52734 -4.0625 L 11.2891 -4.0625 L 12.5488 -0.605469 C 12.7344 -0.0683594 12.9883 0.126953 13.4961 0.126953 C 14.0137 0.126953 14.3457 -0.185547 14.3457 -0.673828 C 14.3457 -0.839844 14.3164 -0.986328 14.2383 -1.20117 L 9.6582 -13.3887 C 9.43359 -13.9941 9.0332 -14.2871 8.4082 -14.2871 C 7.80273 -14.2871 7.39258 -13.9941 7.17773 -13.3984 L 2.59766 -1.19141 C 2.51953 -0.976562 2.49023 -0.830078 2.49023 -0.664062 C 2.49023 -0.175781 2.80273 0.126953 3.31055 0.126953 Z M 6.00586 -5.53711 L 8.37891 -12.1094 L 8.42773 -12.1094 L 10.8008 -5.53711 Z"/>
  </g>
  <line id="" style="fill:none;stroke:#00AEEF;stroke-width:0.5;opacity:1.0;" x1="792.836" x2="792.836" y1="1919" y2="1933"/>
  <text style="stroke:none;fill:black;font-family:-apple-system,&quot;SF Pro Display&quot;,&quot;SF Pro Text&quot;,Helvetica,sans-serif;font-weight:bold;" transform="matrix(1 0 0 1 776 1953)">Margins</text>
  <text style="stroke:none;fill:black;font-family:-apple-system,&quot;SF Pro Display&quot;,&quot;SF Pro Text&quot;,Helvetica,sans-serif;" transform="matrix(1 0 0 1 776 1971)">Leading and trailing margins on the left and right side of each symbol</text>
  <text style="stroke:none;fill:black;font-family:-apple-system,&quot;SF Pro Display&quot;,&quot;SF Pro Text&quot;,Helvetica,sans-serif;" transform="matrix(1 0 0 1 776 1989)">can be adjusted by modifying the x-location of the margin guidelines.</text>
  <text style="stroke:none;fill:black;font-family:-apple-system,&quot;SF Pro Display&quot;,&quot;SF Pro Text&quot;,Helvetica,sans-serif;" transform="matrix(1 0 0 1 776 2007)">Modifications are automatically applied proportionally to all</text>
  <text style="stroke:none;fill:black;font-family:-apple-system,&quot;SF Pro Display&quot;,&quot;SF Pro Text&quot;,Helvetica,sans-serif;" transform="matrix(1 0 0 1 776 2025)">scales and weights.</text>
  <g id="" transform="matrix(1 0 0 1 1289 1933)">
   <path d="M 2.8418 1.86523 L 4.54102 3.57422 C 5.40039 4.44336 6.38672 4.38477 7.31445 3.35938 L 17.4902 -7.85156 C 17.7539 -7.76367 18.0273 -7.7832 18.3398 -7.8418 L 19.4043 -8.03711 L 20.0684 -7.36328 L 20.0293 -6.80664 C 19.9902 -6.30859 20.1172 -5.92773 20.6055 -5.44922 L 21.3672 -4.70703 C 21.8457 -4.22852 22.4609 -4.19922 22.9297 -4.66797 L 25.8398 -7.58789 C 26.3086 -8.05664 26.2891 -8.65234 25.8105 -9.13086 L 25.0391 -9.89258 C 24.5605 -10.3711 24.1895 -10.5273 23.7109 -10.4883 L 23.1348 -10.4395 L 22.4902 -11.0742 L 22.7344 -12.1973 C 22.8613 -12.7637 22.7051 -13.2031 22.1191 -13.7891 L 19.9219 -15.9766 C 16.582 -19.2969 12.1484 -19.2188 9.25781 -16.3281 C 8.83789 -15.918 8.80859 -15.3418 9.04297 -14.9512 C 9.27734 -14.5898 9.73633 -14.3555 10.3809 -14.5215 C 11.8457 -14.8633 13.3691 -14.9219 14.7949 -13.9844 L 14.209 -12.5293 C 14.0137 -12.0508 13.9844 -11.6504 14.1113 -11.2891 L 3.04688 -0.898438 C 2.06055 0.0195312 1.98242 0.996094 2.8418 1.86523 Z M 10.752 -15.957 C 13.1836 -17.7344 16.4746 -17.4316 18.7012 -15.2051 L 21.1328 -12.793 C 21.3672 -12.5586 21.4062 -12.373 21.3379 -12.0312 L 21.0156 -10.5469 L 22.5195 -9.0625 L 23.5059 -9.12109 C 23.7598 -9.13086 23.8379 -9.11133 24.0332 -8.91602 L 24.6094 -8.33984 L 22.168 -5.89844 L 21.5918 -6.47461 C 21.3965 -6.66992 21.3672 -6.74805 21.377 -7.01172 L 21.4453 -7.98828 L 19.9512 -9.47266 L 18.4277 -9.21875 C 18.1055 -9.15039 17.959 -9.17969 17.7148 -9.41406 L 15.7129 -11.416 C 15.459 -11.6504 15.4297 -11.8164 15.5859 -12.1875 L 16.4648 -14.2773 C 14.9023 -15.7324 12.8711 -16.3574 10.8398 -15.7617 C 10.6836 -15.7227 10.625 -15.8496 10.752 -15.957 Z M 5.27344 2.30469 L 4.10156 1.14258 C 3.63281 0.683594 3.74023 0.341797 4.14062 -0.0195312 L 14.9512 -10.1953 L 16.416 -8.71094 L 6.42578 2.27539 C 6.07422 2.67578 5.74219 2.77344 5.27344 2.30469 Z"/>
  </g>
  <text style="stroke:none;fill:black;font-family:-apple-system,&quot;SF Pro Display&quot;,&quot;SF Pro Text&quot;,Helvetica,sans-serif;font-weight:bold;" transform="matrix(1 0 0 1 1289 1953)">Exporting</text>
  <text style="stroke:none;fill:black;font-family:-apple-system,&quot;SF Pro Display&quot;,&quot;SF Pro Text&quot;,Helvetica,sans-serif;" transform="matrix(1 0 0 1 1289 1971)">Symbols should be outlined when exporting to ensure the</text>
  <text style="stroke:none;fill:black;font-family:-apple-system,&quot;SF Pro Display&quot;,&quot;SF Pro Text&quot;,Helvetica,sans-serif;" transform="matrix(1 0 0 1 1289 1989)">design is preserved when submitting to Xcode.</text>
  <text id="template-version" style="stroke:none;fill:black;font-family:-apple-system,&quot;SF Pro Display&quot;,&quot;SF Pro Text&quot;,Helvetica,sans-serif;text-anchor:end;" transform="matrix(1 0 0 1 3036 1933)">Template v.2.0</text>
  <text style="stroke:none;fill:black;font-family:-apple-system,&quot;SF Pro Display&quot;,&quot;SF Pro Text&quot;,Helvetica,sans-serif;text-anchor:end;" transform="matrix(1 0 0 1 3036 1951)">Requires Xcode 12 or greater</text>
  <text style="stroke:none;fill:black;font-family:-apple-system,&quot;SF Pro Display&quot;,&quot;SF Pro Text&quot;,Helvetica,sans-serif;text-anchor:end;" transform="matrix(1 0 0 1 3036 1969)">Generated from yensign.circle</text>
  <text style="stroke:none;fill:black;font-family:-apple-system,&quot;SF Pro Display&quot;,&quot;SF Pro Text&quot;,Helvetica,sans-serif;text-anchor:end;" transform="matrix(1 0 0 1 3036 1987)">Typeset at 100 points</text>
  <text style="stroke:none;fill:black;font-family:-apple-system,&quot;SF Pro Display&quot;,&quot;SF Pro Text&quot;,Helvetica,sans-serif;" transform="matrix(1 0 0 1 263 726)">Small</text>
  <text style="stroke:none;fill:black;font-family:-apple-system,&quot;SF Pro Display&quot;,&quot;SF Pro Text&quot;,Helvetica,sans-serif;" transform="matrix(1 0 0 1 263 1156)">Medium</text>
  <text style="stroke:none;fill:black;font-family:-apple-system,&quot;SF Pro Display&quot;,&quot;SF Pro Text&quot;,Helvetica,sans-serif;" transform="matrix(1 0 0 1 263 1586)">Large</text>
 </g>
 <g id="Guides">
  <g id="H-reference" style="fill:#27AAE1;stroke:none;" transform="matrix(1 0 0 1 339 696)">
   <path d="M 0.976562 0 L 3.66211 0 L 12.9883 -24.4629 L 45.7031 -24.4629 L 55.0781 0 L 57.7148 0 L 30.6152 -70.459 L 28.125 -70.459 Z M 29.2969 -67.1387 L 29.3945 -67.1387 L 44.873 -26.709 L 13.8672 -26.709 Z"/>
  </g>
  <line id="Baseline-S" style="fill:none;stroke:#27AAE1;opacity:1;stroke-width:0.5;" x1="263" x2="3036" y1="696" y2="696"/>
  <line id="Capline-S" style="fill:none;stroke:#27AAE1;opacity:1;stroke-width:0.5;" x1="263" x2="3036" y1="625.541" y2="625.541"/>
  <g id="H-reference" style="fill:#27AAE1;stroke:none;" transform="matrix(1 0 0 1 339 1126)">
   <path d="M 0.976562 0 L 3.66211 0 L 12.9883 -24.4629 L 45.7031 -24.4629 L 55.0781 0 L 57.7148 0 L 30.6152 -70.459 L 28.125 -70.459 Z M 29.2969 -67.1387 L 29.3945 -67.1387 L 44.873 -26.709 L 13.8672 -26.709 Z"/>
  </g>
  <line id="Baseline-M" style="fill:none;stroke:#27AAE1;opacity:1;stroke-width:0.5;" x1="263" x2="3036" y1="1126" y2="1126"/>
  <line id="Capline-M" style="fill:none;stroke:#27AAE1;opacity:1;stroke-width:0.5;" x1="263" x2="3036" y1="1055.54" y2="1055.54"/>
  <g id="H-reference" style="fill:#27AAE1;stroke:none;" transform="matrix(1 0 0 1 339 1556)">
   <path d="M 0.976562 0 L 3.66211 0 L 12.9883 -24.4629 L 45.7031 -24.4629 L 55.0781 0 L 57.7148 0 L 30.6152 -70.459 L 28.125 -70.459 Z M 29.2969 -67.1387 L 29.3945 -67.1387 L 44.873 -26.709 L 13.8672 -26.709 Z"/>
  </g>
  <line id="Baseline-L" style="fill:none;stroke:#27AAE1;opacity:1;stroke-width:0.5;" x1="263" x2="3036" y1="1556" y2="1556"/>
  <line id="Capline-L" style="fill:none;stroke:#27AAE1;opacity:1;stroke-width:0.5;" x1="263" x2="3036" y1="1485.54" y2="1485.54"/>
  <line id="left-margin" style="fill:none;stroke:#00AEEF;stroke-width:0.5;opacity:1.0;" x1="1391.3" x2="1391.3" y1="1030.79" y2="1150.12"/>
  <line id="right-margin" style="fill:none;stroke:#00AEEF;stroke-width:0.5;opacity:1.0;" x1="1508.39" x2="1508.39" y1="1030.79" y2="1150.12"/>
 </g>
 <g id="Symbols">
  <g id="Black-L" transform="matrix(1 0 0 1 2854.05 1556)">
   <path d="M 79.3457 32.8613 C 116.748 32.8613 147.412 2.19727 147.412 -35.2051 C 147.412 -72.6074 116.748 -103.271 79.2969 -103.271 C 41.8945 -103.271 11.2793 -72.6074 11.2793 -35.2051 C 11.2793 2.19727 41.9434 32.8613 79.3457 32.8613 Z M 79.3457 12.4023 C 52.9785 12.4023 31.7383 -8.83789 31.7383 -35.2051 C 31.7383 -61.5723 52.9297 -82.8125 79.2969 -82.8125 C 105.664 -82.8125 126.953 -61.5723 126.953 -35.2051 C 127.002 -8.83789 105.713 12.4023 79.3457 12.4023 Z M 79.3457 -5.46875 C 84.082 -5.46875 86.6699 -8.44727 86.6699 -13.2812 L 86.6699 -16.0156 L 97.3633 -16.0156 C 99.0723 -16.0156 100.146 -17.1387 100.146 -18.7012 C 100.146 -20.2637 99.0723 -21.3379 97.3633 -21.3379 L 86.6699 -21.3379 L 86.6699 -25.4395 L 97.3633 -25.4395 C 99.0723 -25.4395 100.146 -26.5625 100.146 -28.125 C 100.146 -29.6387 99.0723 -30.7617 97.3633 -30.7617 L 89.7461 -30.7617 L 102.197 -51.2695 C 103.174 -52.9297 103.711 -54.541 103.711 -56.2988 C 103.711 -60.3516 100.537 -63.3789 96.2402 -63.3789 C 93.3105 -63.3789 91.0156 -62.0117 89.4043 -58.6914 L 79.4434 -39.3066 L 69.4824 -58.6426 C 67.7246 -62.207 65.6738 -63.3789 62.5 -63.3789 C 58.1055 -63.3789 54.9316 -60.2539 54.9316 -56.1523 C 54.9316 -54.4434 55.3711 -52.832 56.3965 -51.1719 L 68.7988 -30.7617 L 61.3281 -30.7617 C 59.668 -30.7617 58.5938 -29.6387 58.5938 -28.125 C 58.5938 -26.5625 59.668 -25.4395 61.3281 -25.4395 L 71.9727 -25.4395 L 71.9727 -21.3379 L 61.3281 -21.3379 C 59.668 -21.3379 58.5938 -20.2637 58.5938 -18.7012 C 58.5938 -17.1387 59.668 -16.0156 61.3281 -16.0156 L 71.9727 -16.0156 L 71.9727 -13.2324 C 71.9727 -8.39844 74.6582 -5.46875 79.3457 -5.46875 Z"/>
  </g>
  <g id="Heavy-L" transform="matrix(1 0 0 1 2558.39 1556)">
   <path d="M 78.2715 31.7871 C 115.088 31.7871 145.312 1.5625 145.312 -35.2051 C 145.312 -72.0215 115.039 -102.246 78.2715 -102.246 C 41.4551 -102.246 11.2793 -72.0215 11.2793 -35.2051 C 11.2793 1.5625 41.5039 31.7871 78.2715 31.7871 Z M 78.2715 14.0137 C 51.0254 14.0137 29.0527 -7.95898 29.0527 -35.2051 C 29.0527 -62.5 50.9766 -84.4727 78.2715 -84.4727 C 105.518 -84.4727 127.49 -62.5 127.539 -35.2051 C 127.539 -7.95898 105.566 14.0137 78.2715 14.0137 Z M 78.2715 -5.12695 C 82.373 -5.12695 84.668 -7.71484 84.668 -11.9141 L 84.668 -16.4062 L 95.7031 -16.4062 C 97.3633 -16.4062 98.4375 -17.5293 98.4375 -19.0918 C 98.4375 -20.6055 97.3633 -21.7773 95.7031 -21.7773 L 84.668 -21.7773 L 84.668 -26.0742 L 95.7031 -26.0742 C 97.3633 -26.0742 98.4375 -27.1973 98.4375 -28.7598 C 98.4375 -30.3223 97.3633 -31.4453 95.7031 -31.4453 L 87.6953 -31.4453 L 100.83 -52.9297 C 101.709 -54.3457 102.148 -55.7617 102.148 -57.3242 C 102.148 -60.8398 99.3652 -63.4766 95.6543 -63.4766 C 93.0664 -63.4766 91.0645 -62.3047 89.6484 -59.4727 L 78.3691 -38.5254 L 67.041 -59.4727 C 65.5273 -62.5 63.7207 -63.4766 60.9863 -63.4766 C 57.1289 -63.4766 54.3457 -60.791 54.3457 -57.2266 C 54.3457 -55.7129 54.7852 -54.2969 55.6152 -52.8809 L 68.7988 -31.4453 L 60.9863 -31.4453 C 59.3262 -31.4453 58.252 -30.3223 58.252 -28.7598 C 58.252 -27.1973 59.3262 -26.0742 60.9863 -26.0742 L 71.8262 -26.0742 L 71.8262 -21.7773 L 60.9863 -21.7773 C 59.3262 -21.7773 58.252 -20.6055 58.252 -19.0918 C 58.252 -17.5293 59.3262 -16.4062 60.9863 -16.4062 L 71.8262 -16.4062 L 71.8262 -11.9141 C 71.8262 -7.71484 74.2188 -5.12695 78.2715 -5.12695 Z"/>
  </g>
  <g id="Bold-L" transform="matrix(1 0 0 1 2262.88 1556)">
   <path d="M 77.0996 30.5664 C 113.232 30.5664 142.92 0.878906 142.92 -35.2539 C 142.92 -71.3379 113.184 -101.074 77.0508 -101.074 C 40.9668 -101.074 11.2793 -71.3379 11.2793 -35.2539 C 11.2793 0.878906 41.0156 30.5664 77.0996 30.5664 Z M 77.0996 15.8203 C 48.8281 15.8203 26.0742 -6.98242 26.0742 -35.2539 C 26.0742 -63.5254 48.7793 -86.2793 77.0508 -86.2793 C 105.371 -86.2793 128.125 -63.5254 128.174 -35.2539 C 128.174 -6.98242 105.371 15.8203 77.0996 15.8203 Z M 77.0996 -4.73633 C 80.4688 -4.73633 82.4707 -6.93359 82.4707 -10.4492 L 82.4707 -16.7969 L 93.7988 -16.7969 C 95.459 -16.7969 96.5332 -17.9688 96.5332 -19.4824 C 96.5332 -21.0449 95.459 -22.2168 93.7988 -22.2168 L 82.4707 -22.2168 L 82.4707 -26.7578 L 93.7988 -26.7578 C 95.459 -26.7578 96.5332 -27.9297 96.5332 -29.4922 C 96.5332 -31.0547 95.459 -32.2266 93.7988 -32.2266 L 85.3516 -32.2266 L 99.3164 -54.7852 C 100.049 -55.957 100.439 -57.1289 100.439 -58.4473 C 100.439 -61.377 98.0957 -63.623 94.9219 -63.623 C 92.8223 -63.623 91.1621 -62.6465 89.9414 -60.3516 L 77.1484 -37.6953 L 64.3066 -60.3516 C 63.0371 -62.793 61.5234 -63.623 59.2285 -63.623 C 56.0547 -63.623 53.7109 -61.3281 53.7109 -58.3984 C 53.7109 -57.1289 54.0527 -55.957 54.7852 -54.7363 L 68.75 -32.2266 L 60.5957 -32.2266 C 58.9355 -32.2266 57.8613 -31.0547 57.8613 -29.4922 C 57.8613 -27.9297 58.9844 -26.7578 60.5957 -26.7578 L 71.6797 -26.7578 L 71.6797 -22.2168 L 60.5957 -22.2168 C 58.9355 -22.2168 57.8613 -21.0449 57.8613 -19.4824 C 57.8613 -17.9688 58.9844 -16.7969 60.5957 -16.7969 L 71.6797 -16.7969 L 71.6797 -10.4492 C 71.6797 -6.93359 73.7305 -4.73633 77.0996 -4.73633 Z"/>
  </g>
  <g id="Semibold-L" transform="matrix(1 0 0 1 1966.97 1556)">
   <path d="M 76.2695 29.7363 C 111.914 29.7363 141.309 0.390625 141.309 -35.2539 C 141.309 -70.8984 111.865 -100.244 76.2695 -100.244 C 40.625 -100.244 11.2793 -70.8984 11.2793 -35.2539 C 11.2793 0.390625 40.6738 29.7363 76.2695 29.7363 Z M 76.2695 17.041 C 47.3145 17.041 24.0234 -6.25 24.0234 -35.2539 C 24.0234 -64.209 47.2656 -87.5488 76.2695 -87.5488 C 105.225 -87.5488 128.564 -64.209 128.613 -35.2539 C 128.662 -6.25 105.273 17.041 76.2695 17.041 Z M 76.2695 -4.44336 C 79.1504 -4.44336 80.957 -6.34766 80.957 -9.42383 L 80.957 -17.041 L 92.4805 -17.041 C 94.1406 -17.041 95.2148 -18.2129 95.2148 -19.8242 C 95.2148 -21.3867 94.1406 -22.5586 92.4805 -22.5586 L 80.957 -22.5586 L 80.957 -27.1973 L 92.4805 -27.1973 C 94.1406 -27.1973 95.2148 -28.418 95.2148 -29.9805 C 95.2148 -31.543 94.1406 -32.7148 92.4805 -32.7148 L 83.7402 -32.7148 L 98.2422 -56.0547 C 98.9258 -57.0801 99.2188 -58.1055 99.2188 -59.1797 C 99.2188 -61.7188 97.2168 -63.6719 94.4824 -63.6719 C 92.627 -63.6719 91.2109 -62.8906 90.1855 -60.9375 L 76.3184 -37.1094 L 62.4023 -60.9375 C 61.3281 -62.9883 59.9609 -63.7207 58.0566 -63.7207 C 55.3223 -63.7207 53.2715 -61.7676 53.2715 -59.1797 C 53.2715 -58.0566 53.5645 -57.0801 54.1992 -56.0547 L 68.75 -32.7148 L 60.3516 -32.7148 C 58.6914 -32.7148 57.6172 -31.543 57.6172 -29.9805 C 57.6172 -28.418 58.7402 -27.1973 60.3516 -27.1973 L 71.5332 -27.1973 L 71.5332 -22.5586 L 60.3516 -22.5586 C 58.6914 -22.5586 57.6172 -21.3867 57.6172 -19.8242 C 57.6172 -18.2129 58.7402 -17.041 60.3516 -17.041 L 71.5332 -17.041 L 71.5332 -9.42383 C 71.5332 -6.39648 73.3887 -4.44336 76.2695 -4.44336 Z"/>
  </g>
  <g id="Medium-L" transform="matrix(1 0 0 1 1670.87 1556)">
   <path d="M 75.6836 29.1504 C 110.938 29.1504 140.088 0 140.088 -35.2539 C 140.088 -70.5078 110.889 -99.6582 75.6348 -99.6582 C 40.3809 -99.6582 11.2793 -70.5078 11.2793 -35.2539 C 11.2793 0 40.3809 29.1504 75.6836 29.1504 Z M 75.6836 18.0176 C 46.1426 18.0176 22.4609 -5.76172 22.4609 -35.2539 C 22.4609 -64.7461 46.1426 -88.5254 75.6348 -88.5254 C 105.127 -88.5254 128.906 -64.7461 128.906 -35.2539 C 128.955 -5.76172 105.176 18.0176 75.6836 18.0176 Z M 75.6348 -4.24805 C 78.1738 -4.24805 79.834 -5.95703 79.834 -8.64258 L 79.834 -17.2363 L 91.5039 -17.2363 C 93.1152 -17.2363 94.1895 -18.457 94.1895 -20.0195 C 94.1895 -21.582 93.1152 -22.8027 91.5039 -22.8027 L 79.834 -22.8027 L 79.834 -27.5879 L 91.5039 -27.5879 C 93.1152 -27.5879 94.1895 -28.7598 94.1895 -30.3711 C 94.1895 -31.9336 93.1152 -33.1055 91.5039 -33.1055 L 82.5195 -33.1055 L 97.4609 -57.0312 C 98.0469 -57.959 98.291 -58.7891 98.291 -59.7656 C 98.291 -62.0117 96.5332 -63.7695 94.0918 -63.7695 C 92.4805 -63.7695 91.2598 -63.0859 90.332 -61.377 L 75.6836 -36.6699 L 60.9863 -61.4258 C 60.0098 -63.1348 58.8379 -63.7695 57.1777 -63.7695 C 54.7363 -63.7695 52.9297 -62.0605 52.9297 -59.8145 C 52.9297 -58.7891 53.2227 -57.959 53.7598 -57.0312 L 68.7012 -33.1055 L 60.1562 -33.1055 C 58.4961 -33.1055 57.4219 -31.9336 57.4219 -30.3711 C 57.4219 -28.7598 58.5449 -27.5879 60.1562 -27.5879 L 71.4844 -27.5879 L 71.4844 -22.8027 L 60.1562 -22.8027 C 58.4961 -22.8027 57.4219 -21.582 57.4219 -20.0195 C 57.4219 -18.457 58.5449 -17.2363 60.1562 -17.2363 L 71.4844 -17.2363 L 71.4844 -8.64258 C 71.4844 -5.95703 73.1445 -4.24805 75.6348 -4.24805 Z"/>
  </g>
  <g id="Regular-L" transform="matrix(1 0 0 1 1374.97 1556)">
   <path d="M 74.8535 28.3203 C 109.668 28.3203 138.477 -0.488281 138.477 -35.2539 C 138.477 -70.0684 109.619 -98.877 74.8047 -98.877 C 40.0391 -98.877 11.2793 -70.0684 11.2793 -35.2539 C 11.2793 -0.488281 40.0879 28.3203 74.8535 28.3203 Z M 74.8535 19.2383 C 44.6777 19.2383 20.4102 -5.07812 20.4102 -35.2539 C 20.4102 -65.4785 44.6289 -89.7461 74.8047 -89.7461 C 105.029 -89.7461 129.297 -65.4785 129.346 -35.2539 C 129.395 -5.07812 105.078 19.2383 74.8535 19.2383 Z M 74.8047 -4.00391 C 76.8555 -4.00391 78.3203 -5.41992 78.3203 -7.61719 L 78.3203 -17.5293 L 90.1855 -17.5293 C 91.7969 -17.5293 92.9199 -18.75 92.9199 -20.3125 C 92.9199 -21.875 91.7969 -23.0957 90.1855 -23.0957 L 78.3203 -23.0957 L 78.3203 -28.0762 L 90.1855 -28.0762 C 91.7969 -28.0762 92.9199 -29.248 92.9199 -30.8594 C 92.9199 -32.4219 91.7969 -33.6426 90.1855 -33.6426 L 80.957 -33.6426 L 96.4355 -58.3008 C 96.9238 -59.0332 97.1191 -59.7656 97.1191 -60.5469 C 97.1191 -62.3535 95.6543 -63.8184 93.6523 -63.8184 C 92.2852 -63.8184 91.3086 -63.2812 90.5273 -61.9629 L 74.8535 -36.1328 L 59.082 -62.0117 C 58.3008 -63.3301 57.3242 -63.8672 56.0059 -63.8672 C 54.0039 -63.8672 52.4902 -62.4512 52.4902 -60.6445 C 52.4902 -59.7656 52.7344 -59.082 53.2227 -58.3496 L 68.7012 -33.6426 L 59.9121 -33.6426 C 58.252 -33.6426 57.1777 -32.4219 57.1777 -30.8594 C 57.1777 -29.248 58.3008 -28.0762 59.9121 -28.0762 L 71.3379 -28.0762 L 71.3379 -23.0957 L 59.9121 -23.0957 C 58.252 -23.0957 57.1777 -21.875 57.1777 -20.3125 C 57.1777 -18.75 58.3008 -17.5293 59.9121 -17.5293 L 71.3379 -17.5293 L 71.3379 -7.66602 C 71.3379 -5.46875 72.8027 -4.00391 74.8047 -4.00391 Z"/>
  </g>
  <g id="Light-L" transform="matrix(1 0 0 1 1079.18 1556)">
   <path d="M 73.9258 27.3926 C 108.301 27.3926 136.621 -0.927734 136.621 -35.2539 C 136.621 -69.6289 108.252 -97.9492 73.9258 -97.9492 C 39.5508 -97.9492 11.2793 -69.6289 11.2793 -35.2539 C 11.2793 -0.927734 39.5996 27.3926 73.9258 27.3926 Z M 73.9258 20.5078 C 43.1152 20.5078 18.2129 -4.44336 18.2129 -35.2539 C 18.2129 -66.1133 43.0664 -91.0156 73.9258 -91.0156 C 104.736 -91.0156 129.688 -66.1133 129.736 -35.2539 C 129.736 -4.44336 104.785 20.5078 73.9258 20.5078 Z M 73.9258 -4.88281 C 75.5859 -4.88281 76.709 -5.95703 76.709 -7.76367 L 76.709 -18.7012 L 88.8672 -18.7012 C 90.2344 -18.7012 91.1621 -19.7266 91.1621 -21.0449 C 91.1621 -22.3633 90.2344 -23.3887 88.8672 -23.3887 L 76.709 -23.3887 L 76.709 -28.5156 L 88.8672 -28.5156 C 90.2344 -28.5156 91.1621 -29.541 91.1621 -30.8594 C 91.1621 -32.1777 90.2344 -33.2031 88.8672 -33.2031 L 79.0039 -33.2031 L 94.7266 -57.8613 C 95.1172 -58.4473 95.3125 -59.0332 95.3125 -59.668 C 95.3125 -61.1816 94.1406 -62.3535 92.5293 -62.3535 C 91.4551 -62.3535 90.6738 -61.9141 89.9902 -60.8398 L 73.9258 -34.9609 L 57.8125 -60.8398 C 57.1289 -61.9629 56.3477 -62.4023 55.2734 -62.4023 C 53.7109 -62.4023 52.4902 -61.2305 52.4902 -59.7656 C 52.4902 -59.0332 52.7344 -58.4473 53.0762 -57.9102 L 68.7988 -33.2031 L 59.7656 -33.2031 C 58.3984 -33.2031 57.4707 -32.1777 57.4707 -30.8594 C 57.4707 -29.541 58.3984 -28.5156 59.7656 -28.5156 L 71.1426 -28.5156 L 71.1426 -23.3887 L 59.7656 -23.3887 C 58.3984 -23.3887 57.4707 -22.3633 57.4707 -21.0449 C 57.4707 -19.7266 58.3984 -18.7012 59.7656 -18.7012 L 71.1426 -18.7012 L 71.1426 -7.8125 C 71.1426 -6.00586 72.3633 -4.88281 73.9258 -4.88281 Z"/>
  </g>
  <g id="Thin-L" transform="matrix(1 0 0 1 783.693 1556)">
   <path d="M 72.7051 26.1719 C 106.494 26.1719 134.18 -1.51367 134.18 -35.2539 C 134.18 -69.043 106.494 -96.7285 72.7051 -96.7285 C 38.9648 -96.7285 11.2793 -69.043 11.2793 -35.2539 C 11.2793 -1.51367 38.9648 26.1719 72.7051 26.1719 Z M 72.7051 22.168 C 41.0156 22.168 15.2832 -3.56445 15.2832 -35.2539 C 15.2832 -66.9922 41.0156 -92.7246 72.7051 -92.7246 C 104.395 -92.7246 130.176 -66.9922 130.176 -35.2539 C 130.176 -3.56445 104.443 22.168 72.7051 22.168 Z M 72.7539 -6.00586 C 73.877 -6.00586 74.6094 -6.68945 74.6094 -7.95898 L 74.6094 -20.2148 L 87.1582 -20.2148 C 88.1348 -20.2148 88.8184 -20.9961 88.8184 -21.9727 C 88.8184 -22.9492 88.1348 -23.7305 87.1582 -23.7305 L 74.6094 -23.7305 L 74.6094 -29.1016 L 87.1582 -29.1016 C 88.1348 -29.1016 88.8184 -29.8828 88.8184 -30.8594 C 88.8184 -31.8359 88.1348 -32.6172 87.1582 -32.6172 L 76.4648 -32.6172 L 92.4316 -57.2754 C 92.7246 -57.666 92.8711 -58.1055 92.8711 -58.5449 C 92.8711 -59.5703 92.1387 -60.4004 91.0156 -60.4004 C 90.2832 -60.4004 89.8438 -60.1074 89.3066 -59.3262 L 72.7051 -33.4961 L 56.1035 -59.3262 C 55.5664 -60.1074 55.127 -60.4004 54.3945 -60.4004 C 53.3691 -60.4004 52.5391 -59.668 52.5391 -58.6426 C 52.5391 -58.0566 52.7832 -57.6172 52.9785 -57.2754 L 68.9453 -32.6172 L 59.5703 -32.6172 C 58.5938 -32.6172 57.8613 -31.8359 57.8613 -30.8594 C 57.8613 -29.8828 58.4961 -29.1016 59.5703 -29.1016 L 70.8496 -29.1016 L 70.8496 -23.7305 L 59.5703 -23.7305 C 58.5938 -23.7305 57.8613 -22.9492 57.8613 -21.9727 C 57.8613 -20.9961 58.4961 -20.2148 59.5703 -20.2148 L 70.8496 -20.2148 L 70.8496 -7.95898 C 70.8496 -6.68945 71.7285 -6.00586 72.7539 -6.00586 Z"/>
  </g>
  <g id="Ultralight-L" transform="matrix(1 0 0 1 487.616 1556)">
   <path d="M 72.1191 25.5371 C 105.566 25.5371 132.91 -1.80664 132.91 -35.2539 C 132.91 -68.75 105.566 -96.0938 72.1191 -96.0938 C 38.623 -96.0938 11.2793 -68.75 11.2793 -35.2539 C 11.2793 -1.80664 38.623 25.5371 72.1191 25.5371 Z M 72.1191 23.0469 C 39.9414 23.0469 13.7695 -3.125 13.7695 -35.2539 C 13.7695 -67.4316 39.9414 -93.6035 72.1191 -93.6035 C 104.248 -93.6035 130.42 -67.4316 130.42 -35.2539 C 130.42 -3.125 104.248 23.0469 72.1191 23.0469 Z M 72.168 -6.5918 C 72.998 -6.5918 73.5352 -7.08008 73.5352 -8.05664 L 73.5352 -20.9961 L 86.2793 -20.9961 C 87.0605 -20.9961 87.6465 -21.6797 87.6465 -22.4609 C 87.6465 -23.291 87.0605 -23.9258 86.2793 -23.9258 L 73.5352 -23.9258 L 73.5352 -29.3945 L 86.2793 -29.3945 C 87.0605 -29.3945 87.6465 -30.0293 87.6465 -30.8594 C 87.6465 -31.6406 87.0605 -32.3242 86.2793 -32.3242 L 75.1465 -32.3242 L 91.3086 -56.9824 C 91.5039 -57.2754 91.6504 -57.6172 91.6504 -58.0078 C 91.6504 -58.7402 91.1133 -59.375 90.2832 -59.375 C 89.6973 -59.375 89.4043 -59.1797 88.9648 -58.5449 L 72.0703 -32.7148 L 55.2246 -58.5449 C 54.7852 -59.1797 54.4434 -59.375 53.9062 -59.375 C 53.1738 -59.375 52.5391 -58.8379 52.5391 -58.0566 C 52.5391 -57.5684 52.7832 -57.1777 52.8809 -56.9824 L 69.043 -32.3242 L 59.4727 -32.3242 C 58.6914 -32.3242 58.1055 -31.6406 58.1055 -30.8594 C 58.1055 -30.0293 58.5938 -29.3945 59.4727 -29.3945 L 70.7031 -29.3945 L 70.7031 -23.9258 L 59.4727 -23.9258 C 58.6914 -23.9258 58.1055 -23.291 58.1055 -22.4609 C 58.1055 -21.6797 58.5938 -20.9961 59.4727 -20.9961 L 70.7031 -20.9961 L 70.7031 -8.05664 C 70.7031 -7.08008 71.4355 -6.5918 72.168 -6.5918 Z"/>
  </g>
  <g id="Black-M" transform="matrix(1 0 0 1 2870.97 1126)">
   <path d="M 62.4023 18.457 C 91.9922 18.457 116.113 -5.61523 116.113 -35.2051 C 116.113 -64.7949 91.9922 -88.8672 62.4023 -88.8672 C 32.8125 -88.8672 8.74023 -64.7949 8.74023 -35.2051 C 8.74023 -5.61523 32.8125 18.457 62.4023 18.457 Z M 62.4023 0.195312 C 42.8711 0.195312 27.002 -15.625 27.002 -35.2051 C 27.002 -54.7363 42.8711 -70.6055 62.4023 -70.6055 C 81.9824 -70.6055 97.8027 -54.7363 97.8027 -35.2051 C 97.8027 -15.625 81.9824 0.195312 62.4023 0.195312 Z M 62.4512 -13.0859 C 66.748 -13.0859 68.9453 -15.7227 68.9453 -20.0684 L 68.9453 -20.5078 L 77.0508 -20.5078 C 78.2227 -20.5078 78.9551 -21.2402 78.9551 -22.2656 C 78.9551 -23.3398 78.2227 -24.0723 77.0508 -24.0723 L 68.9453 -24.0723 L 68.9453 -27.0508 L 77.0508 -27.0508 C 78.2227 -27.0508 78.9551 -27.7832 78.9551 -28.8086 C 78.9551 -29.8828 78.2227 -30.6152 77.0508 -30.6152 L 71.2891 -30.6152 L 80.0781 -45.2148 C 80.957 -46.6797 81.4941 -48.1934 81.4941 -49.7559 C 81.4941 -53.418 78.6621 -56.1035 74.8047 -56.1035 C 72.168 -56.1035 70.0684 -54.8828 68.6035 -51.7578 L 62.5 -38.7695 L 56.4453 -51.709 C 54.834 -55.0293 53.0273 -56.0547 50.0977 -56.0547 C 46.1426 -56.0547 43.3105 -53.2715 43.3105 -49.5605 C 43.3105 -48.0469 43.75 -46.5332 44.6289 -45.0684 L 53.418 -30.6152 L 47.9004 -30.6152 C 46.7285 -30.6152 45.9961 -29.8828 45.9961 -28.8086 C 45.9961 -27.7832 46.7285 -27.0508 47.9004 -27.0508 L 55.8594 -27.0508 L 55.8594 -24.0723 L 47.9004 -24.0723 C 46.7285 -24.0723 45.9961 -23.3398 45.9961 -22.2656 C 45.9961 -21.2402 46.7285 -20.5078 47.9004 -20.5078 L 55.8594 -20.5078 L 55.8594 -20.0195 C 55.8594 -15.6738 58.1543 -13.0859 62.4512 -13.0859 Z"/>
  </g>
  <g id="Heavy-M" transform="matrix(1 0 0 1 2575.19 1126)">
   <path d="M 61.5234 17.5293 C 90.5273 17.5293 114.258 -6.20117 114.258 -35.2051 C 114.258 -64.2578 90.5273 -87.9883 61.4746 -87.9883 C 32.4707 -87.9883 8.74023 -64.2578 8.74023 -35.2051 C 8.74023 -6.20117 32.4707 17.5293 61.5234 17.5293 Z M 61.5234 1.61133 C 41.1133 1.61133 24.6582 -14.8438 24.6582 -35.2051 C 24.6582 -55.6152 41.1133 -72.0703 61.4746 -72.0703 C 81.8848 -72.0703 98.3398 -55.6152 98.3398 -35.2051 C 98.3398 -14.8438 81.8848 1.61133 61.5234 1.61133 Z M 61.5234 -12.5 C 65.2344 -12.5 67.2363 -14.7949 67.2363 -18.6035 L 67.2363 -20.6055 L 75.5371 -20.6055 C 76.7578 -20.6055 77.5391 -21.3867 77.5391 -22.5098 C 77.5391 -23.6328 76.7578 -24.4629 75.5371 -24.4629 L 67.2363 -24.4629 L 67.2363 -27.5879 L 75.5371 -27.5879 C 76.7578 -27.5879 77.5391 -28.418 77.5391 -29.541 C 77.5391 -30.6641 76.7578 -31.4941 75.5371 -31.4941 L 69.5312 -31.4941 L 79.0527 -47.1191 C 79.834 -48.3887 80.2734 -49.707 80.2734 -51.0742 C 80.2734 -54.248 77.7832 -56.6406 74.4141 -56.6406 C 72.1191 -56.6406 70.3125 -55.5664 69.043 -52.9297 L 61.5723 -38.2812 L 54.1016 -52.8809 C 52.7344 -55.7129 51.123 -56.5918 48.6328 -56.5918 C 45.166 -56.5918 42.6758 -54.1504 42.6758 -50.9277 C 42.6758 -49.6094 43.0664 -48.291 43.8477 -47.0703 L 53.3691 -31.4941 L 47.5586 -31.4941 C 46.3379 -31.4941 45.5566 -30.6641 45.5566 -29.541 C 45.5566 -28.418 46.3379 -27.5879 47.5586 -27.5879 L 55.7617 -27.5879 L 55.7617 -24.4629 L 47.5586 -24.4629 C 46.3379 -24.4629 45.5566 -23.6328 45.5566 -22.5098 C 45.5566 -21.3867 46.3379 -20.6055 47.5586 -20.6055 L 55.7617 -20.6055 L 55.7617 -18.5547 C 55.7617 -14.7461 57.8125 -12.5 61.5234 -12.5 Z"/>
  </g>
  <g id="Bold-M" transform="matrix(1 0 0 1 2279.5 1126)">
   <path d="M 60.498 16.5039 C 88.8672 16.5039 112.207 -6.83594 112.207 -35.2051 C 112.207 -63.623 88.8672 -86.9629 60.4492 -86.9629 C 32.0312 -86.9629 8.74023 -63.623 8.74023 -35.2051 C 8.74023 -6.83594 32.0801 16.5039 60.498 16.5039 Z M 60.498 3.22266 C 39.1602 3.22266 22.0703 -13.916 22.0703 -35.2051 C 22.0703 -56.543 39.1602 -73.6816 60.4492 -73.6816 C 81.7383 -73.6816 98.9258 -56.543 98.9258 -35.2051 C 98.9746 -13.916 81.7871 3.22266 60.498 3.22266 Z M 60.498 -11.8164 C 63.5254 -11.8164 65.2832 -13.7695 65.2832 -16.8945 L 65.2832 -20.6543 L 73.877 -20.6543 C 75.1465 -20.6543 75.9766 -21.582 75.9766 -22.7539 C 75.9766 -23.9746 75.1465 -24.8535 73.877 -24.8535 L 65.2832 -24.8535 L 65.2832 -28.2227 L 73.877 -28.2227 C 75.1465 -28.2227 75.9766 -29.1016 75.9766 -30.3223 C 75.9766 -31.543 75.1465 -32.4219 73.877 -32.4219 L 67.5781 -32.4219 L 77.9297 -49.2676 C 78.5645 -50.3418 78.9062 -51.416 78.9062 -52.5391 C 78.9062 -55.1758 76.8066 -57.1777 74.0234 -57.1777 C 72.1191 -57.1777 70.6055 -56.2988 69.5801 -54.1992 L 60.5469 -37.6465 L 51.5137 -54.1992 C 50.3906 -56.4453 49.0234 -57.1777 46.9727 -57.1777 C 44.0918 -57.1777 41.9922 -55.127 41.9922 -52.4902 C 41.9922 -51.3672 42.334 -50.293 42.9688 -49.2188 L 53.3203 -32.4219 L 47.2168 -32.4219 C 45.8984 -32.4219 45.0684 -31.543 45.0684 -30.3223 C 45.0684 -29.1016 45.9473 -28.2227 47.2168 -28.2227 L 55.6641 -28.2227 L 55.6641 -24.8535 L 47.2168 -24.8535 C 45.8984 -24.8535 45.0684 -23.9746 45.0684 -22.7539 C 45.0684 -21.582 45.9473 -20.6543 47.2168 -20.6543 L 55.6641 -20.6543 L 55.6641 -16.8945 C 55.6641 -13.7695 57.4219 -11.8164 60.498 -11.8164 Z"/>
  </g>
  <g id="Semibold-M" transform="matrix(1 0 0 1 1983.5 1126)">
   <path d="M 59.7656 15.8203 C 87.7441 15.8203 110.791 -7.27539 110.791 -35.2539 C 110.791 -63.2324 87.6953 -86.2793 59.7656 -86.2793 C 31.7871 -86.2793 8.74023 -63.2324 8.74023 -35.2539 C 8.74023 -7.27539 31.7871 15.8203 59.7656 15.8203 Z M 59.7656 4.3457 C 37.8418 4.3457 20.2637 -13.3301 20.2637 -35.2539 C 20.2637 -57.1777 37.793 -74.8047 59.7656 -74.8047 C 81.6895 -74.8047 99.3164 -57.1777 99.3652 -35.2539 C 99.3652 -13.3301 81.6895 4.3457 59.7656 4.3457 Z M 59.7656 -11.3281 C 62.4023 -11.3281 63.9648 -13.0371 63.9648 -15.7715 L 63.9648 -20.752 L 72.7051 -20.752 C 74.0234 -20.752 74.9023 -21.6797 74.9023 -22.9492 C 74.9023 -24.2188 74.0234 -25.1465 72.7051 -25.1465 L 63.9648 -25.1465 L 63.9648 -28.6621 L 72.7051 -28.6621 C 74.0234 -28.6621 74.9023 -29.5898 74.9023 -30.8594 C 74.9023 -32.1289 74.0234 -33.1055 72.7051 -33.1055 L 66.2109 -33.1055 L 77.0996 -50.7324 C 77.6855 -51.6602 77.9785 -52.5879 77.9785 -53.5645 C 77.9785 -55.8105 76.1719 -57.5684 73.7305 -57.5684 C 72.0703 -57.5684 70.8008 -56.8359 69.9219 -55.0781 L 59.8145 -37.2559 L 49.707 -55.0781 C 48.7305 -56.9336 47.5586 -57.5684 45.8008 -57.5684 C 43.3594 -57.5684 41.5527 -55.8105 41.5527 -53.5156 C 41.5527 -52.5391 41.7969 -51.6602 42.3828 -50.7324 L 53.2715 -33.1055 L 46.9727 -33.1055 C 45.6055 -33.1055 44.7266 -32.1289 44.7266 -30.8594 C 44.7266 -29.5898 45.6543 -28.6621 46.9727 -28.6621 L 55.5664 -28.6621 L 55.5664 -25.1465 L 46.9727 -25.1465 C 45.6055 -25.1465 44.7266 -24.2188 44.7266 -22.9492 C 44.7266 -21.6797 45.6543 -20.752 46.9727 -20.752 L 55.5664 -20.752 L 55.5664 -15.7715 C 55.5664 -13.0371 57.1777 -11.3281 59.7656 -11.3281 Z"/>
  </g>
  <g id="Medium-M" transform="matrix(1 0 0 1 1687.3 1126)">
   <path d="M 59.2285 15.2344 C 86.9141 15.2344 109.766 -7.61719 109.766 -35.2539 C 109.766 -62.8906 86.8652 -85.7422 59.1797 -85.7422 C 31.543 -85.7422 8.74023 -62.8906 8.74023 -35.2539 C 8.74023 -7.61719 31.5918 15.2344 59.2285 15.2344 Z M 59.2285 5.17578 C 36.8164 5.17578 18.8965 -12.8418 18.8965 -35.2539 C 18.8965 -57.666 36.8164 -75.6348 59.1797 -75.6348 C 81.5918 -75.6348 99.6094 -57.666 99.6582 -35.2539 C 99.707 -12.8418 81.6406 5.17578 59.2285 5.17578 Z M 59.2285 -10.9863 C 61.4746 -10.9863 62.9395 -12.5 62.9395 -14.8926 L 62.9395 -20.8008 L 71.8262 -20.8008 C 73.1934 -20.8008 74.0723 -21.7773 74.0723 -23.0957 C 74.0723 -24.4141 73.1934 -25.3906 71.8262 -25.3906 L 62.9395 -25.3906 L 62.9395 -29.0039 L 71.8262 -29.0039 C 73.1934 -29.0039 74.0723 -29.9805 74.0723 -31.2988 C 74.0723 -32.6172 73.1934 -33.5938 71.8262 -33.5938 L 65.1855 -33.5938 L 76.5137 -51.8555 C 77.0508 -52.6855 77.2461 -53.4668 77.2461 -54.3457 C 77.2461 -56.2988 75.6836 -57.8613 73.5352 -57.8613 C 72.0703 -57.8613 70.9473 -57.2266 70.166 -55.7617 L 59.2773 -36.9629 L 48.3398 -55.7617 C 47.5098 -57.3242 46.4355 -57.8613 44.9707 -57.8613 C 42.7734 -57.8613 41.2109 -56.3477 41.2109 -54.3457 C 41.2109 -53.4668 41.4062 -52.6855 41.9434 -51.9043 L 53.2227 -33.5938 L 46.7773 -33.5938 C 45.4102 -33.5938 44.4824 -32.6172 44.4824 -31.2988 C 44.4824 -29.9805 45.4102 -29.0039 46.7773 -29.0039 L 55.5176 -29.0039 L 55.5176 -25.3906 L 46.7773 -25.3906 C 45.4102 -25.3906 44.4824 -24.4141 44.4824 -23.0957 C 44.4824 -21.7773 45.4102 -20.8008 46.7773 -20.8008 L 55.5176 -20.8008 L 55.5176 -14.8926 C 55.5176 -12.5488 56.9824 -10.9863 59.2285 -10.9863 Z"/>
  </g>
  <g id="Regular-M" transform="matrix(1 0 0 1 1391.3 1126)">
   <path d="M 58.5449 14.5508 C 85.791 14.5508 108.35 -8.05664 108.35 -35.2539 C 108.35 -62.5 85.7422 -85.0586 58.4961 -85.0586 C 31.2988 -85.0586 8.74023 -62.5 8.74023 -35.2539 C 8.74023 -8.05664 31.3477 14.5508 58.5449 14.5508 Z M 58.5449 6.25 C 35.498 6.25 17.0898 -12.207 17.0898 -35.2539 C 17.0898 -58.3008 35.4492 -76.7578 58.4961 -76.7578 C 81.543 -76.7578 100 -58.3008 100.049 -35.2539 C 100.098 -12.207 81.5918 6.25 58.5449 6.25 Z M 58.4961 -10.5469 C 60.3516 -10.5469 61.6211 -11.8164 61.6211 -13.7207 L 61.6211 -20.8496 L 70.6543 -20.8496 C 72.0703 -20.8496 73.0469 -21.875 73.0469 -23.2422 C 73.0469 -24.6094 72.0703 -25.6836 70.6543 -25.6836 L 61.6211 -25.6836 L 61.6211 -29.3945 L 70.6543 -29.3945 C 72.0703 -29.3945 73.0469 -30.4688 73.0469 -31.8359 C 73.0469 -33.2031 72.0703 -34.2285 70.6543 -34.2285 L 63.8672 -34.2285 L 75.7324 -53.3203 C 76.1719 -54.0039 76.3184 -54.6387 76.3184 -55.3223 C 76.3184 -56.9336 75 -58.252 73.2422 -58.252 C 72.0703 -58.252 71.1426 -57.7637 70.5078 -56.5918 L 58.5449 -36.5723 L 46.582 -56.6406 C 45.8984 -57.8125 45.0195 -58.3008 43.7988 -58.3008 C 42.041 -58.3008 40.7227 -56.9824 40.7227 -55.3711 C 40.7227 -54.6875 40.918 -54.0527 41.3086 -53.3691 L 53.2227 -34.2285 L 46.5332 -34.2285 C 45.1172 -34.2285 44.1895 -33.2031 44.1895 -31.8359 C 44.1895 -30.4688 45.166 -29.3945 46.5332 -29.3945 L 55.4688 -29.3945 L 55.4688 -25.6836 L 46.5332 -25.6836 C 45.1172 -25.6836 44.1895 -24.6094 44.1895 -23.2422 C 44.1895 -21.875 45.166 -20.8496 46.5332 -20.8496 L 55.4688 -20.8496 L 55.4688 -13.7695 C 55.4688 -11.8652 56.6895 -10.5469 58.4961 -10.5469 Z"/>
  </g>
  <g id="Light-M" transform="matrix(1 0 0 1 1095.42 1126)">
   <path d="M 57.7148 13.7207 C 84.5215 13.7207 106.689 -8.44727 106.689 -35.2539 C 106.689 -62.1094 84.5215 -84.2285 57.666 -84.2285 C 30.8594 -84.2285 8.74023 -62.1094 8.74023 -35.2539 C 8.74023 -8.44727 30.9082 13.7207 57.7148 13.7207 Z M 57.7148 7.37305 C 34.082 7.37305 15.0879 -11.6699 15.0879 -35.2539 C 15.0879 -58.8867 34.082 -77.9297 57.666 -77.9297 C 81.2988 -77.9297 100.342 -58.8867 100.391 -35.2539 C 100.391 -11.6699 81.3477 7.37305 57.7148 7.37305 Z M 57.7148 -11.3281 C 59.1797 -11.3281 60.2051 -12.3047 60.2051 -13.8672 L 60.2051 -21.875 L 69.4824 -21.875 C 70.6543 -21.875 71.4355 -22.7539 71.4355 -23.9258 C 71.4355 -25.0488 70.6543 -25.9277 69.4824 -25.9277 L 60.2051 -25.9277 L 60.2051 -29.834 L 69.4824 -29.834 C 70.6543 -29.834 71.4355 -30.7129 71.4355 -31.8359 C 71.4355 -32.959 70.6543 -33.8379 69.4824 -33.8379 L 62.1094 -33.8379 L 74.1699 -52.9297 C 74.5605 -53.5156 74.707 -54.0039 74.707 -54.5898 C 74.707 -55.8594 73.6328 -56.9336 72.2168 -56.9336 C 71.2891 -56.9336 70.5566 -56.543 70.0195 -55.5664 L 57.7148 -35.5469 L 45.4102 -55.6152 C 44.8242 -56.543 44.1406 -56.9336 43.2129 -56.9336 C 41.7969 -56.9336 40.7227 -55.9082 40.7227 -54.6387 C 40.7227 -54.0039 40.918 -53.5156 41.2109 -52.9785 L 53.3203 -33.8379 L 46.3867 -33.8379 C 45.2148 -33.8379 44.4336 -32.959 44.4336 -31.8359 C 44.4336 -30.7129 45.2148 -29.834 46.3867 -29.834 L 55.2734 -29.834 L 55.2734 -25.9277 L 46.3867 -25.9277 C 45.2148 -25.9277 44.4336 -25.0488 44.4336 -23.9258 C 44.4336 -22.7539 45.2148 -21.875 46.3867 -21.875 L 55.2734 -21.875 L 55.2734 -13.916 C 55.2734 -12.3047 56.2988 -11.3281 57.7148 -11.3281 Z"/>
  </g>
  <g id="Thin-M" transform="matrix(1 0 0 1 799.806 1126)">
   <path d="M 56.6406 12.5977 C 82.9102 12.5977 104.492 -8.98438 104.492 -35.2539 C 104.492 -61.5723 82.9102 -83.1543 56.5918 -83.1543 C 30.3223 -83.1543 8.74023 -61.5723 8.74023 -35.2539 C 8.74023 -8.98438 30.3223 12.5977 56.6406 12.5977 Z M 56.6406 8.88672 C 32.2266 8.88672 12.4512 -10.8887 12.4512 -35.2539 C 12.4512 -59.6191 32.2266 -79.4434 56.5918 -79.4434 C 81.0059 -79.4434 100.781 -59.6191 100.781 -35.2539 C 100.781 -10.8887 81.0059 8.88672 56.6406 8.88672 Z M 56.6895 -12.3535 C 57.666 -12.3535 58.3008 -12.9395 58.3008 -14.0625 L 58.3008 -23.291 L 67.9199 -23.291 C 68.7988 -23.291 69.3848 -23.9258 69.3848 -24.7559 C 69.3848 -25.5859 68.7988 -26.2695 67.9199 -26.2695 L 58.3008 -26.2695 L 58.3008 -30.3223 L 67.9199 -30.3223 C 68.7988 -30.3223 69.3848 -31.0059 69.3848 -31.8359 C 69.3848 -32.666 68.7988 -33.3496 67.9199 -33.3496 L 59.8145 -33.3496 L 72.168 -52.4414 C 72.4121 -52.7832 72.5098 -53.1738 72.5098 -53.5645 C 72.5098 -54.4434 71.875 -55.1758 70.8984 -55.1758 C 70.2637 -55.1758 69.8242 -54.9316 69.3848 -54.1992 L 56.6406 -34.2285 L 43.8477 -54.248 C 43.457 -54.9316 43.0176 -55.1758 42.334 -55.1758 C 41.4551 -55.1758 40.7227 -54.4922 40.7227 -53.6133 C 40.7227 -53.125 40.918 -52.7344 41.1133 -52.4414 L 53.418 -33.3496 L 46.2402 -33.3496 C 45.3613 -33.3496 44.7754 -32.666 44.7754 -31.8359 C 44.7754 -31.0059 45.3613 -30.3223 46.2402 -30.3223 L 54.9805 -30.3223 L 54.9805 -26.2695 L 46.2402 -26.2695 C 45.3613 -26.2695 44.7754 -25.5859 44.7754 -24.7559 C 44.7754 -23.9258 45.3613 -23.291 46.2402 -23.291 L 54.9805 -23.291 L 54.9805 -14.0625 C 54.9805 -12.9395 55.7617 -12.3535 56.6895 -12.3535 Z"/>
  </g>
  <g id="Ultralight-M" transform="matrix(1 0 0 1 503.656 1126)">
   <path d="M 56.0547 12.0605 C 82.0801 12.0605 103.369 -9.22852 103.369 -35.2539 C 103.369 -61.2793 82.0801 -82.5684 56.0547 -82.5684 C 30.0293 -82.5684 8.74023 -61.2793 8.74023 -35.2539 C 8.74023 -9.22852 30.0293 12.0605 56.0547 12.0605 Z M 56.0547 9.66797 C 31.2988 9.66797 11.1328 -10.498 11.1328 -35.2539 C 11.1328 -60.0586 31.2988 -80.1758 56.0547 -80.1758 C 80.8594 -80.1758 100.977 -60.0586 100.977 -35.2539 C 100.977 -10.498 80.8594 9.66797 56.0547 9.66797 Z M 56.1523 -12.8906 C 56.8359 -12.8906 57.3242 -13.2812 57.3242 -14.1602 L 57.3242 -23.9746 L 67.1387 -23.9746 C 67.8223 -23.9746 68.3105 -24.5117 68.3105 -25.1953 C 68.3105 -25.8789 67.8223 -26.416 67.1387 -26.416 L 57.3242 -26.416 L 57.3242 -30.6152 L 67.1387 -30.6152 C 67.8223 -30.6152 68.3105 -31.1523 68.3105 -31.8359 C 68.3105 -32.5195 67.8223 -33.0566 67.1387 -33.0566 L 58.6426 -33.0566 L 71.0938 -52.1973 C 71.2891 -52.4414 71.4355 -52.7344 71.4355 -53.0273 C 71.4355 -53.7109 70.9473 -54.248 70.2148 -54.248 C 69.7266 -54.248 69.4336 -54.1016 69.043 -53.5156 L 56.0547 -33.5449 L 43.0664 -53.5156 C 42.7246 -54.0527 42.4316 -54.248 41.9434 -54.248 C 41.2598 -54.248 40.7227 -53.7598 40.7227 -53.125 C 40.7227 -52.6855 40.918 -52.3926 41.0156 -52.1973 L 53.5156 -33.0566 L 46.1426 -33.0566 C 45.459 -33.0566 44.9707 -32.5195 44.9707 -31.8359 C 44.9707 -31.1523 45.4102 -30.6152 46.1426 -30.6152 L 54.834 -30.6152 L 54.834 -26.416 L 46.1426 -26.416 C 45.459 -26.416 44.9707 -25.8789 44.9707 -25.1953 C 44.9707 -24.5117 45.4102 -23.9746 46.1426 -23.9746 L 54.834 -23.9746 L 54.834 -14.1602 C 54.834 -13.2812 55.4688 -12.8906 56.1523 -12.8906 Z"/>
  </g>
  <g id="Black-S" transform="matrix(1 0 0 1 2884.57 696)">
   <path d="M 48.8281 6.78711 C 71.9727 6.78711 90.8203 -12.0605 90.8203 -35.2051 C 90.8203 -58.3496 71.9727 -77.1973 48.8281 -77.1973 C 25.6836 -77.1973 6.83594 -58.3496 6.83594 -35.2051 C 6.83594 -12.0605 25.6836 6.78711 48.8281 6.78711 Z M 48.8281 -7.37305 C 33.4473 -7.37305 20.9961 -19.8242 20.9961 -35.2051 C 20.9961 -50.5859 33.4473 -63.0371 48.8281 -63.0371 C 64.209 -63.0371 76.6602 -50.5859 76.6602 -35.2051 C 76.6602 -19.8242 64.209 -7.37305 48.8281 -7.37305 Z M 48.877 -17.8223 C 52.1973 -17.8223 53.9062 -19.873 53.9062 -23.2422 L 53.9062 -23.6816 L 60.2539 -23.6816 C 61.1816 -23.6816 61.7676 -24.2676 61.7676 -25.0977 C 61.7676 -25.9277 61.1816 -26.5137 60.2539 -26.5137 L 53.9062 -26.5137 L 53.9062 -28.8574 L 60.2539 -28.8574 C 61.1816 -28.8574 61.7676 -29.4434 61.7676 -30.2734 C 61.7676 -31.1035 61.1816 -31.6895 60.2539 -31.6895 L 55.7617 -31.6895 L 62.6953 -43.2129 C 63.3789 -44.3359 63.7695 -45.5078 63.7695 -46.7285 C 63.7695 -49.5605 61.5723 -51.6602 58.5938 -51.6602 C 56.543 -51.6602 54.9316 -50.6836 53.8086 -48.291 L 48.9258 -37.9883 L 44.043 -48.2422 C 42.8223 -50.8301 41.4062 -51.6113 39.1602 -51.6113 C 36.084 -51.6113 33.8867 -49.4629 33.8867 -46.582 C 33.8867 -45.4102 34.2285 -44.2383 34.9121 -43.1152 L 41.8457 -31.6895 L 37.5 -31.6895 C 36.5723 -31.6895 35.9863 -31.1035 35.9863 -30.2734 C 35.9863 -29.4434 36.5723 -28.8574 37.5 -28.8574 L 43.75 -28.8574 L 43.75 -26.5137 L 37.5 -26.5137 C 36.5723 -26.5137 35.9863 -25.9277 35.9863 -25.0977 C 35.9863 -24.2676 36.5723 -23.6816 37.5 -23.6816 L 43.75 -23.6816 L 43.75 -23.1934 C 43.75 -19.8242 45.5566 -17.8223 48.877 -17.8223 Z"/>
  </g>
  <g id="Heavy-S" transform="matrix(1 0 0 1 2588.47 696)">
   <path d="M 48.2422 6.15234 C 70.9961 6.15234 89.5996 -12.4512 89.5996 -35.2051 C 89.5996 -57.959 70.9961 -76.6113 48.1934 -76.6113 C 25.4395 -76.6113 6.83594 -57.959 6.83594 -35.2051 C 6.83594 -12.4512 25.4395 6.15234 48.2422 6.15234 Z M 48.2422 -6.39648 C 32.2754 -6.39648 19.4336 -19.2871 19.4336 -35.2051 C 19.4336 -51.1719 32.2754 -64.0137 48.1934 -64.0137 C 64.1602 -64.0137 77.002 -51.1719 77.0508 -35.2051 C 77.0508 -19.2871 64.1602 -6.39648 48.2422 -6.39648 Z M 48.2422 -17.2852 C 51.1719 -17.2852 52.7344 -19.0918 52.7344 -22.0703 L 52.7344 -23.6328 L 59.2285 -23.6328 C 60.2539 -23.6328 60.8887 -24.2676 60.8887 -25.1953 C 60.8887 -26.123 60.2539 -26.7578 59.2285 -26.7578 L 52.7344 -26.7578 L 52.7344 -29.248 L 59.2285 -29.248 C 60.2539 -29.248 60.8887 -29.8828 60.8887 -30.8105 C 60.8887 -31.7383 60.2539 -32.373 59.2285 -32.373 L 54.5898 -32.373 L 62.0605 -44.7266 C 62.6953 -45.7031 63.0371 -46.7285 63.0371 -47.8027 C 63.0371 -50.293 61.084 -52.1973 58.3984 -52.1973 C 56.5918 -52.1973 55.1758 -51.3184 54.1992 -49.2676 L 48.291 -37.6953 L 42.3828 -49.2676 C 41.3086 -51.4648 40.0391 -52.1484 38.0859 -52.1484 C 35.3516 -52.1484 33.3984 -50.2441 33.3984 -47.7051 C 33.3984 -46.6797 33.6914 -45.6543 34.3262 -44.6777 L 41.7969 -32.373 L 37.2559 -32.373 C 36.2793 -32.373 35.6445 -31.7383 35.6445 -30.8105 C 35.6445 -29.8828 36.2793 -29.248 37.2559 -29.248 L 43.7012 -29.248 L 43.7012 -26.7578 L 37.2559 -26.7578 C 36.2793 -26.7578 35.6445 -26.123 35.6445 -25.1953 C 35.6445 -24.2676 36.2793 -23.6328 37.2559 -23.6328 L 43.7012 -23.6328 L 43.7012 -22.0703 C 43.7012 -19.0918 45.3125 -17.2852 48.2422 -17.2852 Z"/>
  </g>
  <g id="Bold-S" transform="matrix(1 0 0 1 2292.44 696)">
   <path d="M 47.5586 5.46875 C 69.873 5.46875 88.2324 -12.8906 88.2324 -35.2539 C 88.2324 -57.5684 69.873 -75.9277 47.5098 -75.9277 C 25.1953 -75.9277 6.83594 -57.5684 6.83594 -35.2539 C 6.83594 -12.8906 25.1953 5.46875 47.5586 5.46875 Z M 47.5586 -5.32227 C 30.957 -5.32227 17.6758 -18.6523 17.6758 -35.2539 C 17.6758 -51.8066 30.957 -65.1367 47.5098 -65.1367 C 64.1113 -65.1367 77.4414 -51.8066 77.4414 -35.2539 C 77.4414 -18.6523 64.1113 -5.32227 47.5586 -5.32227 Z M 47.5586 -16.6504 C 50 -16.6504 51.416 -18.2617 51.416 -20.8008 L 51.416 -23.584 L 58.1055 -23.584 C 59.1797 -23.584 59.8633 -24.3164 59.8633 -25.3418 C 59.8633 -26.3184 59.1797 -27.0508 58.1055 -27.0508 L 51.416 -27.0508 L 51.416 -29.6875 L 58.1055 -29.6875 C 59.1797 -29.6875 59.8633 -30.4199 59.8633 -31.3965 C 59.8633 -32.4219 59.1797 -33.1543 58.1055 -33.1543 L 53.3203 -33.1543 L 61.377 -46.3867 C 61.9141 -47.2656 62.1582 -48.1445 62.1582 -49.0234 C 62.1582 -51.1719 60.498 -52.7832 58.2031 -52.7832 C 56.6895 -52.7832 55.4688 -52.0996 54.6387 -50.3906 L 47.6074 -37.3535 L 40.5273 -50.3906 C 39.6484 -52.1973 38.5254 -52.7832 36.9141 -52.7832 C 34.5703 -52.7832 32.9102 -51.123 32.9102 -48.9746 C 32.9102 -48.0957 33.1543 -47.2656 33.6426 -46.3867 L 41.748 -33.1543 L 37.0117 -33.1543 C 35.9375 -33.1543 35.2051 -32.4219 35.2051 -31.3965 C 35.2051 -30.4199 35.9375 -29.6875 37.0117 -29.6875 L 43.6523 -29.6875 L 43.6523 -27.0508 L 37.0117 -27.0508 C 35.9375 -27.0508 35.2051 -26.3184 35.2051 -25.3418 C 35.2051 -24.3164 35.9375 -23.584 37.0117 -23.584 L 43.6523 -23.584 L 43.6523 -20.8008 C 43.6523 -18.2617 45.0684 -16.6504 47.5586 -16.6504 Z"/>
  </g>
  <g id="Semibold-S" transform="matrix(1 0 0 1 1996.2 696)">
   <path d="M 47.0703 4.98047 C 69.0918 4.98047 87.3047 -13.1836 87.3047 -35.2539 C 87.3047 -57.2754 69.0918 -75.4883 47.0215 -75.4883 C 25 -75.4883 6.83594 -57.2754 6.83594 -35.2539 C 6.83594 -13.1836 25.0488 4.98047 47.0703 4.98047 Z M 47.0703 -4.58984 C 30.0781 -4.58984 16.4551 -18.2129 16.4551 -35.2539 C 16.4551 -52.2461 30.0293 -65.8691 47.0215 -65.8691 C 64.0625 -65.8691 77.6855 -52.2461 77.7344 -35.2539 C 77.7344 -18.2129 64.0625 -4.58984 47.0703 -4.58984 Z M 47.0703 -16.2598 C 49.2188 -16.2598 50.5371 -17.6758 50.5371 -19.873 L 50.5371 -23.5352 L 57.3242 -23.5352 C 58.4473 -23.5352 59.1797 -24.3164 59.1797 -25.3906 C 59.1797 -26.4648 58.4473 -27.2949 57.3242 -27.2949 L 50.5371 -27.2949 L 50.5371 -29.9805 L 57.3242 -29.9805 C 58.4473 -29.9805 59.1797 -30.7617 59.1797 -31.8359 C 59.1797 -32.9102 58.4473 -33.6914 57.3242 -33.6914 L 52.3926 -33.6914 L 60.8887 -47.5586 C 61.377 -48.3398 61.6211 -49.0723 61.6211 -49.9023 C 61.6211 -51.7578 60.1074 -53.1738 58.1055 -53.1738 C 56.7383 -53.1738 55.6641 -52.5879 54.9316 -51.123 L 47.1191 -37.1582 L 39.2578 -51.1719 C 38.4766 -52.6855 37.5 -53.2227 36.084 -53.2227 C 34.0332 -53.2227 32.5195 -51.7578 32.5195 -49.8535 C 32.5195 -49.0723 32.7148 -48.3398 33.2031 -47.5586 L 41.6992 -33.6914 L 36.8164 -33.6914 C 35.6934 -33.6914 34.9609 -32.9102 34.9609 -31.8359 C 34.9609 -30.7617 35.6934 -29.9805 36.8164 -29.9805 L 43.6035 -29.9805 L 43.6035 -27.2949 L 36.8164 -27.2949 C 35.6934 -27.2949 34.9609 -26.4648 34.9609 -25.3906 C 34.9609 -24.3164 35.6934 -23.5352 36.8164 -23.5352 L 43.6035 -23.5352 L 43.6035 -19.9219 C 43.6035 -17.6758 44.9219 -16.2598 47.0703 -16.2598 Z"/>
  </g>
  <g id="Medium-S" transform="matrix(1 0 0 1 1699.83 696)">
   <path d="M 46.7285 4.63867 C 68.5547 4.63867 86.6211 -13.4277 86.6211 -35.2539 C 86.6211 -57.0801 68.5059 -75.1465 46.6797 -75.1465 C 24.8535 -75.1465 6.83594 -57.0801 6.83594 -35.2539 C 6.83594 -13.4277 24.9023 4.63867 46.7285 4.63867 Z M 46.7285 -4.00391 C 29.3945 -4.00391 15.5273 -17.9199 15.5273 -35.2539 C 15.5273 -52.5879 29.3457 -66.4551 46.6797 -66.4551 C 64.0137 -66.4551 77.8809 -52.5879 77.9297 -35.2539 C 77.9785 -17.9199 64.0625 -4.00391 46.7285 -4.00391 Z M 46.6797 -15.918 C 48.6328 -15.918 49.8535 -17.2363 49.8535 -19.2383 L 49.8535 -23.4863 L 56.6895 -23.4863 C 57.8613 -23.4863 58.6426 -24.3164 58.6426 -25.4395 C 58.6426 -26.5625 57.8613 -27.4414 56.6895 -27.4414 L 49.8535 -27.4414 L 49.8535 -30.1758 L 56.6895 -30.1758 C 57.8613 -30.1758 58.6426 -31.0547 58.6426 -32.1777 C 58.6426 -33.252 57.8613 -34.1309 56.6895 -34.1309 L 51.7578 -34.1309 L 60.5469 -48.4375 C 60.9863 -49.1699 61.1816 -49.8047 61.1816 -50.5371 C 61.1816 -52.1973 59.8145 -53.5156 58.0078 -53.5156 C 56.7871 -53.5156 55.8105 -52.9785 55.127 -51.709 L 46.7285 -36.9629 L 38.2812 -51.7578 C 37.5977 -53.0273 36.6699 -53.5156 35.4492 -53.5156 C 33.5938 -53.5156 32.2266 -52.1973 32.2266 -50.5371 C 32.2266 -49.8047 32.4219 -49.1699 32.8613 -48.4863 L 41.6504 -34.1309 L 36.6699 -34.1309 C 35.498 -34.1309 34.7168 -33.252 34.7168 -32.1777 C 34.7168 -31.0547 35.5469 -30.1758 36.6699 -30.1758 L 43.5547 -30.1758 L 43.5547 -27.4414 L 36.6699 -27.4414 C 35.498 -27.4414 34.7168 -26.5625 34.7168 -25.4395 C 34.7168 -24.3164 35.5469 -23.4863 36.6699 -23.4863 L 43.5547 -23.4863 L 43.5547 -19.2383 C 43.5547 -17.2363 44.7754 -15.918 46.6797 -15.918 Z"/>
  </g>
  <g id="Regular-S" transform="matrix(1 0 0 1 1403.58 696)">
   <path d="M 46.2402 4.15039 C 67.7734 4.15039 85.6934 -13.7207 85.6934 -35.2539 C 85.6934 -56.7871 67.7246 -74.6582 46.1914 -74.6582 C 24.707 -74.6582 6.83594 -56.7871 6.83594 -35.2539 C 6.83594 -13.7207 24.7559 4.15039 46.2402 4.15039 Z M 46.2402 -3.27148 C 28.5156 -3.27148 14.3555 -17.4805 14.3555 -35.2539 C 14.3555 -53.0273 28.4668 -67.2363 46.1914 -67.2363 C 63.9648 -67.2363 78.1738 -53.0273 78.2227 -35.2539 C 78.2715 -17.4805 64.0137 -3.27148 46.2402 -3.27148 Z M 46.2402 -15.4785 C 47.8027 -15.4785 48.9746 -16.6504 48.9746 -18.3105 L 48.9746 -23.4375 L 55.9082 -23.4375 C 57.1777 -23.4375 57.959 -24.3652 57.959 -25.5371 C 57.959 -26.709 57.1777 -27.6367 55.9082 -27.6367 L 48.9746 -27.6367 L 48.9746 -30.4688 L 55.9082 -30.4688 C 57.1777 -30.4688 57.959 -31.3965 57.959 -32.5684 C 57.959 -33.7402 57.1777 -34.668 55.9082 -34.668 L 50.8789 -34.668 L 60.0586 -49.6094 C 60.4492 -50.1953 60.5957 -50.7324 60.5957 -51.3672 C 60.5957 -52.7832 59.4238 -53.9062 57.8613 -53.9062 C 56.8359 -53.9062 56.0059 -53.4668 55.4688 -52.4902 L 46.2402 -36.7676 L 37.0117 -52.5391 C 36.4746 -53.5156 35.6445 -53.9551 34.6191 -53.9551 C 33.0566 -53.9551 31.8848 -52.832 31.8848 -51.416 C 31.8848 -50.7812 32.0312 -50.2441 32.4219 -49.6582 L 41.6016 -34.668 L 36.5234 -34.668 C 35.2539 -34.668 34.4727 -33.7402 34.4727 -32.5684 C 34.4727 -31.3965 35.3027 -30.4688 36.5234 -30.4688 L 43.5059 -30.4688 L 43.5059 -27.6367 L 36.5234 -27.6367 C 35.2539 -27.6367 34.4727 -26.709 34.4727 -25.5371 C 34.4727 -24.3652 35.3027 -23.4375 36.5234 -23.4375 L 43.5059 -23.4375 L 43.5059 -18.3594 C 43.5059 -16.6992 44.6289 -15.4785 46.2402 -15.4785 Z"/>
  </g>
  <g id="Light-S" transform="matrix(1 0 0 1 1107.6 696)">
   <path d="M 45.5078 3.41797 C 66.6992 3.41797 84.2285 -14.0625 84.2285 -35.2539 C 84.2285 -56.4453 66.6504 -73.9258 45.5078 -73.9258 C 24.3164 -73.9258 6.83594 -56.4453 6.83594 -35.2539 C 6.83594 -14.0625 24.3652 3.41797 45.5078 3.41797 Z M 45.5078 -2.29492 C 27.2461 -2.29492 12.5977 -16.9922 12.5977 -35.2539 C 12.5977 -53.5156 27.1973 -68.2129 45.5078 -68.2129 C 63.7695 -68.2129 78.4668 -53.5156 78.5156 -35.2539 C 78.5156 -16.9922 63.8184 -2.29492 45.5078 -2.29492 Z M 45.5078 -16.2109 C 46.7773 -16.2109 47.7051 -17.0898 47.7051 -18.457 L 47.7051 -24.3652 L 54.8828 -24.3652 C 55.9082 -24.3652 56.5918 -25.1465 56.5918 -26.123 C 56.5918 -27.0996 55.9082 -27.832 54.8828 -27.832 L 47.7051 -27.832 L 47.7051 -30.8105 L 54.8828 -30.8105 C 55.9082 -30.8105 56.5918 -31.5918 56.5918 -32.5684 C 56.5918 -33.5449 55.9082 -34.3262 54.8828 -34.3262 L 49.3164 -34.3262 L 58.6914 -49.2676 C 59.0332 -49.7559 59.1309 -50.1953 59.1309 -50.6836 C 59.1309 -51.8066 58.2031 -52.7344 56.9824 -52.7344 C 56.1523 -52.7344 55.5176 -52.3926 55.0293 -51.5625 L 45.5566 -35.8398 L 35.9863 -51.6113 C 35.5469 -52.4414 34.9121 -52.7344 34.082 -52.7344 C 32.8613 -52.7344 31.8848 -51.8555 31.8848 -50.7324 C 31.8848 -50.1953 32.0312 -49.7559 32.3242 -49.3164 L 41.6992 -34.3262 L 36.377 -34.3262 C 35.4004 -34.3262 34.7168 -33.5449 34.7168 -32.5684 C 34.7168 -31.5918 35.4004 -30.8105 36.377 -30.8105 L 43.3594 -30.8105 L 43.3594 -27.832 L 36.377 -27.832 C 35.4004 -27.832 34.7168 -27.0996 34.7168 -26.123 C 34.7168 -25.1465 35.4004 -24.3652 36.377 -24.3652 L 43.3594 -24.3652 L 43.3594 -18.457 C 43.3594 -17.0898 44.2383 -16.2109 45.5078 -16.2109 Z"/>
  </g>
  <g id="Thin-S" transform="matrix(1 0 0 1 811.867 696)">
   <path d="M 44.5801 2.49023 C 65.2832 2.49023 82.2754 -14.5508 82.2754 -35.2539 C 82.2754 -55.957 65.2344 -72.998 44.5312 -72.998 C 23.8281 -72.998 6.83594 -55.957 6.83594 -35.2539 C 6.83594 -14.5508 23.877 2.49023 44.5801 2.49023 Z M 44.5801 -0.927734 C 25.5859 -0.927734 10.2539 -16.3086 10.2539 -35.2539 C 10.2539 -54.1992 25.5859 -69.5801 44.5312 -69.5801 C 63.5254 -69.5801 78.8574 -54.1992 78.8574 -35.2539 C 78.8574 -16.3086 63.5254 -0.927734 44.5801 -0.927734 Z M 44.5801 -17.0898 C 45.459 -17.0898 46.0449 -17.627 46.0449 -18.6035 L 46.0449 -25.5859 L 53.5156 -25.5859 C 54.248 -25.5859 54.7363 -26.1719 54.7363 -26.8555 C 54.7363 -27.5879 54.248 -28.125 53.5156 -28.125 L 46.0449 -28.125 L 46.0449 -31.2988 L 53.5156 -31.2988 C 54.248 -31.2988 54.7363 -31.8359 54.7363 -32.5684 C 54.7363 -33.3008 54.248 -33.8379 53.5156 -33.8379 L 47.3145 -33.8379 L 56.9336 -48.8281 C 57.1289 -49.1211 57.2266 -49.4629 57.2266 -49.8047 C 57.2266 -50.5371 56.6406 -51.1719 55.8105 -51.1719 C 55.2246 -51.1719 54.834 -50.9766 54.4922 -50.3906 L 44.5801 -34.668 L 34.668 -50.3906 C 34.2773 -50.9766 33.8867 -51.1719 33.3496 -51.1719 C 32.5195 -51.1719 31.8848 -50.5859 31.8848 -49.8535 C 31.8848 -49.4141 32.0312 -49.1211 32.2266 -48.8281 L 41.8457 -33.8379 L 36.2305 -33.8379 C 35.5469 -33.8379 35.0098 -33.3008 35.0098 -32.5684 C 35.0098 -31.8359 35.498 -31.2988 36.2305 -31.2988 L 43.1152 -31.2988 L 43.1152 -28.125 L 36.2305 -28.125 C 35.5469 -28.125 35.0098 -27.5879 35.0098 -26.8555 C 35.0098 -26.1719 35.498 -25.5859 36.2305 -25.5859 L 43.1152 -25.5859 L 43.1152 -18.6035 C 43.1152 -17.6758 43.7988 -17.0898 44.5801 -17.0898 Z"/>
  </g>
  <g id="Ultralight-S" transform="matrix(1 0 0 1 515.644 696)">
   <path d="M 44.043 1.95312 C 64.502 1.95312 81.2988 -14.7949 81.2988 -35.2539 C 81.2988 -55.7129 64.502 -72.4609 44.043 -72.4609 C 23.584 -72.4609 6.83594 -55.7129 6.83594 -35.2539 C 6.83594 -14.7949 23.584 1.95312 44.043 1.95312 Z M 44.043 -0.244141 C 24.7559 -0.244141 9.08203 -15.9668 9.08203 -35.2539 C 9.08203 -54.541 24.7559 -70.2637 44.043 -70.2637 C 63.3789 -70.2637 79.0527 -54.541 79.0527 -35.2539 C 79.0527 -15.9668 63.3789 -0.244141 44.043 -0.244141 Z M 44.1406 -17.5781 C 44.7754 -17.5781 45.166 -17.9688 45.166 -18.7012 L 45.166 -26.2207 L 52.832 -26.2207 C 53.3691 -26.2207 53.8086 -26.709 53.8086 -27.2461 C 53.8086 -27.832 53.3691 -28.2715 52.832 -28.2715 L 45.166 -28.2715 L 45.166 -31.543 L 52.832 -31.543 C 53.3691 -31.543 53.8086 -31.9824 53.8086 -32.5684 C 53.8086 -33.1543 53.3691 -33.5938 52.832 -33.5938 L 46.2402 -33.5938 L 56.0059 -48.584 C 56.1523 -48.7793 56.25 -49.0723 56.25 -49.3164 C 56.25 -49.9023 55.8105 -50.3906 55.1758 -50.3906 C 54.7852 -50.3906 54.4922 -50.1953 54.1992 -49.7559 L 44.0918 -34.082 L 33.9844 -49.7559 C 33.6426 -50.2441 33.3984 -50.3906 32.959 -50.3906 C 32.373 -50.3906 31.8848 -49.9512 31.8848 -49.3652 C 31.8848 -49.0234 32.0312 -48.7793 32.1777 -48.584 L 41.8945 -33.5938 L 36.1816 -33.5938 C 35.5957 -33.5938 35.2051 -33.1543 35.2051 -32.5684 C 35.2051 -31.9824 35.5469 -31.543 36.1816 -31.543 L 43.0176 -31.543 L 43.0176 -28.2715 L 36.1816 -28.2715 C 35.5957 -28.2715 35.2051 -27.832 35.2051 -27.2461 C 35.2051 -26.709 35.5469 -26.2207 36.1816 -26.2207 L 43.0176 -26.2207 L 43.0176 -18.7012 C 43.0176 -17.9688 43.5547 -17.5781 44.1406 -17.5781 Z"/>
  </g>
 </g>
</svg>
