<?xml version="1.0" encoding="UTF-8"?>
<!--Generator: Apple Native CoreSVG 148-->
<!DOCTYPE svg
PUBLIC "-//W3C//DTD SVG 1.1//EN"
       "http://www.w3.org/Graphics/SVG/1.1/DTD/svg11.dtd">
<svg version="1.1" xmlns="http://www.w3.org/2000/svg" xmlns:xlink="http://www.w3.org/1999/xlink" width="3300" height="2200">
 <!--glyph: "uni100A1C.medium", point size: 100.000000, font version: "Version 16.0d11e1", template writer version: "8"-->
 <g id="Notes">
  <rect height="2200" id="artboard" style="fill:white;opacity:1" width="3300" x="0" y="0"/>
  <line id="" style="fill:none;stroke:black;opacity:1;stroke-width:0.5;" x1="263" x2="3036" y1="292" y2="292"/>
  <text style="stroke:none;fill:black;font-family:-apple-system,&quot;SF Pro Display&quot;,&quot;SF Pro Text&quot;,Helvetica,sans-serif;font-weight:bold;" transform="matrix(1 0 0 1 263 322)">Weight/Scale Variations</text>
  <text style="stroke:none;fill:black;font-family:-apple-system,&quot;SF Pro Display&quot;,&quot;SF Pro Text&quot;,Helvetica,sans-serif;text-anchor:middle;" transform="matrix(1 0 0 1 559.711 322)">Ultralight</text>
  <text style="stroke:none;fill:black;font-family:-apple-system,&quot;SF Pro Display&quot;,&quot;SF Pro Text&quot;,Helvetica,sans-serif;text-anchor:middle;" transform="matrix(1 0 0 1 856.422 322)">Thin</text>
  <text style="stroke:none;fill:black;font-family:-apple-system,&quot;SF Pro Display&quot;,&quot;SF Pro Text&quot;,Helvetica,sans-serif;text-anchor:middle;" transform="matrix(1 0 0 1 1153.13 322)">Light</text>
  <text style="stroke:none;fill:black;font-family:-apple-system,&quot;SF Pro Display&quot;,&quot;SF Pro Text&quot;,Helvetica,sans-serif;text-anchor:middle;" transform="matrix(1 0 0 1 1449.84 322)">Regular</text>
  <text style="stroke:none;fill:black;font-family:-apple-system,&quot;SF Pro Display&quot;,&quot;SF Pro Text&quot;,Helvetica,sans-serif;text-anchor:middle;" transform="matrix(1 0 0 1 1746.56 322)">Medium</text>
  <text style="stroke:none;fill:black;font-family:-apple-system,&quot;SF Pro Display&quot;,&quot;SF Pro Text&quot;,Helvetica,sans-serif;text-anchor:middle;" transform="matrix(1 0 0 1 2043.27 322)">Semibold</text>
  <text style="stroke:none;fill:black;font-family:-apple-system,&quot;SF Pro Display&quot;,&quot;SF Pro Text&quot;,Helvetica,sans-serif;text-anchor:middle;" transform="matrix(1 0 0 1 2339.98 322)">Bold</text>
  <text style="stroke:none;fill:black;font-family:-apple-system,&quot;SF Pro Display&quot;,&quot;SF Pro Text&quot;,Helvetica,sans-serif;text-anchor:middle;" transform="matrix(1 0 0 1 2636.69 322)">Heavy</text>
  <text style="stroke:none;fill:black;font-family:-apple-system,&quot;SF Pro Display&quot;,&quot;SF Pro Text&quot;,Helvetica,sans-serif;text-anchor:middle;" transform="matrix(1 0 0 1 2933.4 322)">Black</text>
  <line id="" style="fill:none;stroke:black;opacity:1;stroke-width:0.5;" x1="263" x2="3036" y1="1903" y2="1903"/>
  <g id="" transform="matrix(1 0 0 1 263 1933)">
   <path d="M 9.24805 0.830078 C 13.5547 0.830078 17.1387 -2.74414 17.1387 -7.05078 C 17.1387 -11.3574 13.5449 -14.9316 9.23828 -14.9316 C 4.94141 -14.9316 1.36719 -11.3574 1.36719 -7.05078 C 1.36719 -2.74414 4.95117 0.830078 9.24805 0.830078 Z M 9.24805 -0.654297 C 5.70312 -0.654297 2.87109 -3.49609 2.87109 -7.05078 C 2.87109 -10.6055 5.69336 -13.4473 9.23828 -13.4473 C 12.793 -13.4473 15.6348 -10.6055 15.6445 -7.05078 C 15.6543 -3.49609 12.8027 -0.654297 9.24805 -0.654297 Z M 9.22852 -3.62305 C 9.69727 -3.62305 9.9707 -3.93555 9.9707 -4.45312 L 9.9707 -6.31836 L 12.002 -6.31836 C 12.5 -6.31836 12.832 -6.57227 12.832 -7.04102 C 12.832 -7.51953 12.5195 -7.7832 12.002 -7.7832 L 9.9707 -7.7832 L 9.9707 -9.81445 C 9.9707 -10.332 9.69727 -10.6543 9.22852 -10.6543 C 8.75977 -10.6543 8.50586 -10.3125 8.50586 -9.81445 L 8.50586 -7.7832 L 6.49414 -7.7832 C 5.97656 -7.7832 5.64453 -7.51953 5.64453 -7.04102 C 5.64453 -6.57227 5.99609 -6.31836 6.49414 -6.31836 L 8.50586 -6.31836 L 8.50586 -4.45312 C 8.50586 -3.95508 8.75977 -3.62305 9.22852 -3.62305 Z"/>
  </g>
  <g id="" transform="matrix(1 0 0 1 281.506 1933)">
   <path d="M 11.709 2.91016 C 17.1582 2.91016 21.6699 -1.61133 21.6699 -7.05078 C 21.6699 -12.5 17.1484 -17.0117 11.6992 -17.0117 C 6.25977 -17.0117 1.74805 -12.5 1.74805 -7.05078 C 1.74805 -1.61133 6.26953 2.91016 11.709 2.91016 Z M 11.709 1.25 C 7.09961 1.25 3.41797 -2.44141 3.41797 -7.05078 C 3.41797 -11.6602 7.08984 -15.3516 11.6992 -15.3516 C 16.3086 -15.3516 20 -11.6602 20.0098 -7.05078 C 20.0195 -2.44141 16.3184 1.25 11.709 1.25 Z M 11.6797 -2.66602 C 12.207 -2.66602 12.5098 -3.01758 12.5098 -3.59375 L 12.5098 -6.23047 L 15.3223 -6.23047 C 15.8691 -6.23047 16.25 -6.51367 16.25 -7.03125 C 16.25 -7.55859 15.8887 -7.86133 15.3223 -7.86133 L 12.5098 -7.86133 L 12.5098 -10.6836 C 12.5098 -11.25 12.207 -11.6113 11.6797 -11.6113 C 11.1621 -11.6113 10.8789 -11.2305 10.8789 -10.6836 L 10.8789 -7.86133 L 8.07617 -7.86133 C 7.50977 -7.86133 7.13867 -7.55859 7.13867 -7.03125 C 7.13867 -6.51367 7.5293 -6.23047 8.07617 -6.23047 L 10.8789 -6.23047 L 10.8789 -3.59375 C 10.8789 -3.03711 11.1621 -2.66602 11.6797 -2.66602 Z"/>
  </g>
  <g id="" transform="matrix(1 0 0 1 304.924 1933)">
   <path d="M 14.9707 5.66406 C 21.9336 5.66406 27.6953 -0.0976562 27.6953 -7.05078 C 27.6953 -14.0137 21.9238 -19.7754 14.9609 -19.7754 C 8.00781 -19.7754 2.25586 -14.0137 2.25586 -7.05078 C 2.25586 -0.0976562 8.01758 5.66406 14.9707 5.66406 Z M 14.9707 3.84766 C 8.93555 3.84766 4.08203 -1.01562 4.08203 -7.05078 C 4.08203 -13.0957 8.92578 -17.9492 14.9609 -17.9492 C 21.0059 -17.9492 25.8594 -13.0957 25.8691 -7.05078 C 25.8789 -1.01562 21.0156 3.84766 14.9707 3.84766 Z M 14.9414 -1.38672 C 15.5176 -1.38672 15.8594 -1.77734 15.8594 -2.38281 L 15.8594 -6.13281 L 19.7754 -6.13281 C 20.3711 -6.13281 20.7812 -6.46484 20.7812 -7.02148 C 20.7812 -7.59766 20.3906 -7.93945 19.7754 -7.93945 L 15.8594 -7.93945 L 15.8594 -11.8652 C 15.8594 -12.4805 15.5176 -12.8711 14.9414 -12.8711 C 14.375 -12.8711 14.0527 -12.4609 14.0527 -11.8652 L 14.0527 -7.93945 L 10.1465 -7.93945 C 9.53125 -7.93945 9.13086 -7.59766 9.13086 -7.02148 C 9.13086 -6.46484 9.55078 -6.13281 10.1465 -6.13281 L 14.0527 -6.13281 L 14.0527 -2.38281 C 14.0527 -1.79688 14.375 -1.38672 14.9414 -1.38672 Z"/>
  </g>
  <text style="stroke:none;fill:black;font-family:-apple-system,&quot;SF Pro Display&quot;,&quot;SF Pro Text&quot;,Helvetica,sans-serif;font-weight:bold;" transform="matrix(1 0 0 1 263 1953)">Design Variations</text>
  <text style="stroke:none;fill:black;font-family:-apple-system,&quot;SF Pro Display&quot;,&quot;SF Pro Text&quot;,Helvetica,sans-serif;" transform="matrix(1 0 0 1 263 1971)">Symbols are supported in up to nine weights and three scales.</text>
  <text style="stroke:none;fill:black;font-family:-apple-system,&quot;SF Pro Display&quot;,&quot;SF Pro Text&quot;,Helvetica,sans-serif;" transform="matrix(1 0 0 1 263 1989)">For optimal layout with text and other symbols, vertically align</text>
  <text style="stroke:none;fill:black;font-family:-apple-system,&quot;SF Pro Display&quot;,&quot;SF Pro Text&quot;,Helvetica,sans-serif;" transform="matrix(1 0 0 1 263 2007)">symbols with the adjacent text.</text>
  <line id="" style="fill:none;stroke:#00AEEF;stroke-width:0.5;opacity:1.0;" x1="776" x2="776" y1="1919" y2="1933"/>
  <g id="" transform="matrix(1 0 0 1 776 1933)">
   <path d="M 3.31055 0.126953 C 3.82812 0.126953 4.08203 -0.0683594 4.26758 -0.605469 L 5.52734 -4.0625 L 11.2891 -4.0625 L 12.5488 -0.605469 C 12.7344 -0.0683594 12.9883 0.126953 13.4961 0.126953 C 14.0137 0.126953 14.3457 -0.185547 14.3457 -0.673828 C 14.3457 -0.839844 14.3164 -0.986328 14.2383 -1.20117 L 9.6582 -13.3887 C 9.43359 -13.9941 9.0332 -14.2871 8.4082 -14.2871 C 7.80273 -14.2871 7.39258 -13.9941 7.17773 -13.3984 L 2.59766 -1.19141 C 2.51953 -0.976562 2.49023 -0.830078 2.49023 -0.664062 C 2.49023 -0.175781 2.80273 0.126953 3.31055 0.126953 Z M 6.00586 -5.53711 L 8.37891 -12.1094 L 8.42773 -12.1094 L 10.8008 -5.53711 Z"/>
  </g>
  <line id="" style="fill:none;stroke:#00AEEF;stroke-width:0.5;opacity:1.0;" x1="792.836" x2="792.836" y1="1919" y2="1933"/>
  <text style="stroke:none;fill:black;font-family:-apple-system,&quot;SF Pro Display&quot;,&quot;SF Pro Text&quot;,Helvetica,sans-serif;font-weight:bold;" transform="matrix(1 0 0 1 776 1953)">Margins</text>
  <text style="stroke:none;fill:black;font-family:-apple-system,&quot;SF Pro Display&quot;,&quot;SF Pro Text&quot;,Helvetica,sans-serif;" transform="matrix(1 0 0 1 776 1971)">Leading and trailing margins on the left and right side of each symbol</text>
  <text style="stroke:none;fill:black;font-family:-apple-system,&quot;SF Pro Display&quot;,&quot;SF Pro Text&quot;,Helvetica,sans-serif;" transform="matrix(1 0 0 1 776 1989)">can be adjusted by modifying the x-location of the margin guidelines.</text>
  <text style="stroke:none;fill:black;font-family:-apple-system,&quot;SF Pro Display&quot;,&quot;SF Pro Text&quot;,Helvetica,sans-serif;" transform="matrix(1 0 0 1 776 2007)">Modifications are automatically applied proportionally to all</text>
  <text style="stroke:none;fill:black;font-family:-apple-system,&quot;SF Pro Display&quot;,&quot;SF Pro Text&quot;,Helvetica,sans-serif;" transform="matrix(1 0 0 1 776 2025)">scales and weights.</text>
  <g id="" transform="matrix(1 0 0 1 1289 1933)">
   <path d="M 2.8418 1.86523 L 4.54102 3.57422 C 5.40039 4.44336 6.38672 4.38477 7.31445 3.35938 L 17.4902 -7.85156 C 17.7539 -7.76367 18.0273 -7.7832 18.3398 -7.8418 L 19.4043 -8.03711 L 20.0684 -7.36328 L 20.0293 -6.80664 C 19.9902 -6.30859 20.1172 -5.92773 20.6055 -5.44922 L 21.3672 -4.70703 C 21.8457 -4.22852 22.4609 -4.19922 22.9297 -4.66797 L 25.8398 -7.58789 C 26.3086 -8.05664 26.2891 -8.65234 25.8105 -9.13086 L 25.0391 -9.89258 C 24.5605 -10.3711 24.1895 -10.5273 23.7109 -10.4883 L 23.1348 -10.4395 L 22.4902 -11.0742 L 22.7344 -12.1973 C 22.8613 -12.7637 22.7051 -13.2031 22.1191 -13.7891 L 19.9219 -15.9766 C 16.582 -19.2969 12.1484 -19.2188 9.25781 -16.3281 C 8.83789 -15.918 8.80859 -15.3418 9.04297 -14.9512 C 9.27734 -14.5898 9.73633 -14.3555 10.3809 -14.5215 C 11.8457 -14.8633 13.3691 -14.9219 14.7949 -13.9844 L 14.209 -12.5293 C 14.0137 -12.0508 13.9844 -11.6504 14.1113 -11.2891 L 3.04688 -0.898438 C 2.06055 0.0195312 1.98242 0.996094 2.8418 1.86523 Z M 10.752 -15.957 C 13.1836 -17.7344 16.4746 -17.4316 18.7012 -15.2051 L 21.1328 -12.793 C 21.3672 -12.5586 21.4062 -12.373 21.3379 -12.0312 L 21.0156 -10.5469 L 22.5195 -9.0625 L 23.5059 -9.12109 C 23.7598 -9.13086 23.8379 -9.11133 24.0332 -8.91602 L 24.6094 -8.33984 L 22.168 -5.89844 L 21.5918 -6.47461 C 21.3965 -6.66992 21.3672 -6.74805 21.377 -7.01172 L 21.4453 -7.98828 L 19.9512 -9.47266 L 18.4277 -9.21875 C 18.1055 -9.15039 17.959 -9.17969 17.7148 -9.41406 L 15.7129 -11.416 C 15.459 -11.6504 15.4297 -11.8164 15.5859 -12.1875 L 16.4648 -14.2773 C 14.9023 -15.7324 12.8711 -16.3574 10.8398 -15.7617 C 10.6836 -15.7227 10.625 -15.8496 10.752 -15.957 Z M 5.27344 2.30469 L 4.10156 1.14258 C 3.63281 0.683594 3.74023 0.341797 4.14062 -0.0195312 L 14.9512 -10.1953 L 16.416 -8.71094 L 6.42578 2.27539 C 6.07422 2.67578 5.74219 2.77344 5.27344 2.30469 Z"/>
  </g>
  <text style="stroke:none;fill:black;font-family:-apple-system,&quot;SF Pro Display&quot;,&quot;SF Pro Text&quot;,Helvetica,sans-serif;font-weight:bold;" transform="matrix(1 0 0 1 1289 1953)">Exporting</text>
  <text style="stroke:none;fill:black;font-family:-apple-system,&quot;SF Pro Display&quot;,&quot;SF Pro Text&quot;,Helvetica,sans-serif;" transform="matrix(1 0 0 1 1289 1971)">Symbols should be outlined when exporting to ensure the</text>
  <text style="stroke:none;fill:black;font-family:-apple-system,&quot;SF Pro Display&quot;,&quot;SF Pro Text&quot;,Helvetica,sans-serif;" transform="matrix(1 0 0 1 1289 1989)">design is preserved when submitting to Xcode.</text>
  <text id="template-version" style="stroke:none;fill:black;font-family:-apple-system,&quot;SF Pro Display&quot;,&quot;SF Pro Text&quot;,Helvetica,sans-serif;text-anchor:end;" transform="matrix(1 0 0 1 3036 1933)">Template v.2.0</text>
  <text style="stroke:none;fill:black;font-family:-apple-system,&quot;SF Pro Display&quot;,&quot;SF Pro Text&quot;,Helvetica,sans-serif;text-anchor:end;" transform="matrix(1 0 0 1 3036 1951)">Requires Xcode 12 or greater</text>
  <text style="stroke:none;fill:black;font-family:-apple-system,&quot;SF Pro Display&quot;,&quot;SF Pro Text&quot;,Helvetica,sans-serif;text-anchor:end;" transform="matrix(1 0 0 1 3036 1969)">Generated from zl.rectangle.roundedtop.fill</text>
  <text style="stroke:none;fill:black;font-family:-apple-system,&quot;SF Pro Display&quot;,&quot;SF Pro Text&quot;,Helvetica,sans-serif;text-anchor:end;" transform="matrix(1 0 0 1 3036 1987)">Typeset at 100 points</text>
  <text style="stroke:none;fill:black;font-family:-apple-system,&quot;SF Pro Display&quot;,&quot;SF Pro Text&quot;,Helvetica,sans-serif;" transform="matrix(1 0 0 1 263 726)">Small</text>
  <text style="stroke:none;fill:black;font-family:-apple-system,&quot;SF Pro Display&quot;,&quot;SF Pro Text&quot;,Helvetica,sans-serif;" transform="matrix(1 0 0 1 263 1156)">Medium</text>
  <text style="stroke:none;fill:black;font-family:-apple-system,&quot;SF Pro Display&quot;,&quot;SF Pro Text&quot;,Helvetica,sans-serif;" transform="matrix(1 0 0 1 263 1586)">Large</text>
 </g>
 <g id="Guides">
  <g id="H-reference" style="fill:#27AAE1;stroke:none;" transform="matrix(1 0 0 1 339 696)">
   <path d="M 0.976562 0 L 3.66211 0 L 12.9883 -24.4629 L 45.7031 -24.4629 L 55.0781 0 L 57.7148 0 L 30.6152 -70.459 L 28.125 -70.459 Z M 29.2969 -67.1387 L 29.3945 -67.1387 L 44.873 -26.709 L 13.8672 -26.709 Z"/>
  </g>
  <line id="Baseline-S" style="fill:none;stroke:#27AAE1;opacity:1;stroke-width:0.5;" x1="263" x2="3036" y1="696" y2="696"/>
  <line id="Capline-S" style="fill:none;stroke:#27AAE1;opacity:1;stroke-width:0.5;" x1="263" x2="3036" y1="625.541" y2="625.541"/>
  <g id="H-reference" style="fill:#27AAE1;stroke:none;" transform="matrix(1 0 0 1 339 1126)">
   <path d="M 0.976562 0 L 3.66211 0 L 12.9883 -24.4629 L 45.7031 -24.4629 L 55.0781 0 L 57.7148 0 L 30.6152 -70.459 L 28.125 -70.459 Z M 29.2969 -67.1387 L 29.3945 -67.1387 L 44.873 -26.709 L 13.8672 -26.709 Z"/>
  </g>
  <line id="Baseline-M" style="fill:none;stroke:#27AAE1;opacity:1;stroke-width:0.5;" x1="263" x2="3036" y1="1126" y2="1126"/>
  <line id="Capline-M" style="fill:none;stroke:#27AAE1;opacity:1;stroke-width:0.5;" x1="263" x2="3036" y1="1055.54" y2="1055.54"/>
  <g id="H-reference" style="fill:#27AAE1;stroke:none;" transform="matrix(1 0 0 1 339 1556)">
   <path d="M 0.976562 0 L 3.66211 0 L 12.9883 -24.4629 L 45.7031 -24.4629 L 55.0781 0 L 57.7148 0 L 30.6152 -70.459 L 28.125 -70.459 Z M 29.2969 -67.1387 L 29.3945 -67.1387 L 44.873 -26.709 L 13.8672 -26.709 Z"/>
  </g>
  <line id="Baseline-L" style="fill:none;stroke:#27AAE1;opacity:1;stroke-width:0.5;" x1="263" x2="3036" y1="1556" y2="1556"/>
  <line id="Capline-L" style="fill:none;stroke:#27AAE1;opacity:1;stroke-width:0.5;" x1="263" x2="3036" y1="1485.54" y2="1485.54"/>
  <line id="left-margin" style="fill:none;stroke:#00AEEF;stroke-width:0.5;opacity:1.0;" x1="1382.07" x2="1382.07" y1="1030.79" y2="1150.12"/>
  <line id="right-margin" style="fill:none;stroke:#00AEEF;stroke-width:0.5;opacity:1.0;" x1="1517.62" x2="1517.62" y1="1030.79" y2="1150.12"/>
 </g>
 <g id="Symbols">
  <g id="Black-L" transform="matrix(1 0 0 1 2844.48 1556)">
   <path d="M 65.8691 -96.875 C 27.2949 -96.875 11.2793 -80.5664 11.2793 -41.748 L 11.2793 2.68555 C 11.2793 17.8711 19.9707 26.5137 35.2051 26.5137 L 142.676 26.5137 C 157.91 26.5137 166.553 17.8711 166.553 2.68555 L 166.553 -41.748 C 166.553 -80.5664 150.537 -96.875 112.012 -96.875 Z M 107.422 -7.56836 C 100.879 -7.56836 97.2168 -11.7676 97.2168 -18.8477 L 97.2168 -52.9297 C 97.2168 -60.0098 100.879 -64.209 107.422 -64.209 C 113.818 -64.209 117.529 -60.0098 117.529 -52.9297 L 117.529 -23.291 L 132.178 -23.291 C 137.451 -23.291 140.771 -20.3613 140.771 -15.4297 C 140.771 -10.4492 137.451 -7.56836 132.178 -7.56836 Z M 50.7812 -7.56836 C 45.8984 -7.56836 42.5293 -10.791 42.5293 -15.4297 C 42.5293 -18.5059 43.5059 -20.8008 46.0938 -23.7305 L 65.7715 -47.7539 L 65.7715 -48.4375 L 49.6582 -48.4375 C 44.5801 -48.4375 41.2598 -51.2207 41.2598 -55.8105 C 41.2598 -60.4004 44.4824 -63.1348 49.6582 -63.1348 L 80.2246 -63.1348 C 85.2051 -63.1348 88.623 -59.9121 88.623 -55.1758 C 88.623 -51.8066 87.9395 -50.1465 85.1562 -46.9727 L 65.3809 -22.8516 L 65.3809 -22.2168 L 82.1289 -22.2168 C 87.3535 -22.2168 90.5762 -19.5312 90.5762 -14.8926 C 90.5762 -10.3516 87.207 -7.56836 82.1289 -7.56836 Z"/>
  </g>
  <g id="Heavy-L" transform="matrix(1 0 0 1 2548.29 1556)">
   <path d="M 65.4297 -95.8496 C 27.2949 -95.8496 11.2793 -79.3457 11.2793 -41.6016 L 11.2793 2.88086 C 11.2793 17.4316 19.4336 25.4883 34.0332 25.4883 L 142.773 25.4883 C 157.422 25.4883 165.527 17.4316 165.527 2.88086 L 165.527 -41.6016 C 165.527 -79.3457 149.561 -95.8496 111.377 -95.8496 Z M 106.348 -7.22656 C 100.684 -7.22656 97.5098 -10.8887 97.5098 -16.9922 L 97.5098 -54.6387 C 97.5098 -60.791 100.684 -64.4531 106.348 -64.4531 C 111.914 -64.4531 115.137 -60.791 115.137 -54.6387 L 115.137 -20.9473 L 132.324 -20.9473 C 136.865 -20.9473 139.795 -18.4082 139.795 -14.1113 C 139.795 -9.7168 136.865 -7.22656 132.324 -7.22656 Z M 49.7559 -7.22656 C 45.4102 -7.22656 42.3828 -10.0586 42.3828 -14.1602 C 42.3828 -16.8457 43.2617 -18.75 45.5078 -21.4355 L 67.8223 -49.8535 L 67.8223 -50.4883 L 48.7305 -50.4883 C 44.3359 -50.4883 41.4062 -52.9297 41.4062 -56.9824 C 41.4062 -61.0352 44.2383 -63.4766 48.7305 -63.4766 L 80.5664 -63.4766 C 84.9609 -63.4766 87.9883 -60.5957 87.9883 -56.3965 C 87.9883 -53.4668 87.3535 -52.0508 85.0098 -49.2188 L 62.5977 -20.752 L 62.5977 -20.166 L 82.5684 -20.166 C 87.0605 -20.166 89.8926 -17.7246 89.8926 -13.7207 C 89.8926 -9.7168 86.9629 -7.22656 82.5684 -7.22656 Z"/>
  </g>
  <g id="Bold-L" transform="matrix(1 0 0 1 2252.16 1556)">
   <path d="M 64.9414 -94.7266 C 27.2461 -94.7266 11.2793 -78.0273 11.2793 -41.4062 L 11.2793 3.07617 C 11.2793 16.8945 18.8477 24.3652 32.7148 24.3652 L 142.92 24.3652 C 156.836 24.3652 164.355 16.8945 164.355 3.07617 L 164.355 -41.4062 C 164.355 -78.0273 148.438 -94.7266 110.693 -94.7266 Z M 105.127 -6.78711 C 100.439 -6.78711 97.8516 -9.91211 97.8516 -14.9414 L 97.8516 -56.543 C 97.8516 -61.5723 100.439 -64.6973 105.127 -64.6973 C 109.766 -64.6973 112.451 -61.6211 112.451 -56.543 L 112.451 -18.3594 L 132.471 -18.3594 C 136.23 -18.3594 138.672 -16.2109 138.672 -12.5977 C 138.672 -8.93555 136.23 -6.78711 132.471 -6.78711 Z M 48.5352 -6.78711 C 44.8242 -6.78711 42.2852 -9.22852 42.2852 -12.7441 C 42.2852 -14.9414 42.9688 -16.5039 44.873 -18.8965 L 70.1172 -52.1973 L 70.1172 -52.7344 L 47.7051 -52.7344 C 44.043 -52.7344 41.6016 -54.834 41.6016 -58.3008 C 41.6016 -61.7188 43.9941 -63.8184 47.7051 -63.8184 L 80.8594 -63.8184 C 84.668 -63.8184 87.2559 -61.3281 87.2559 -57.7637 C 87.2559 -55.3711 86.7676 -54.1504 84.7656 -51.7578 L 59.5215 -18.4082 L 59.5215 -17.8223 L 83.0566 -17.8223 C 86.7676 -17.8223 89.1602 -15.7715 89.1602 -12.3535 C 89.1602 -8.93555 86.7188 -6.78711 83.0566 -6.78711 Z"/>
  </g>
  <g id="Semibold-L" transform="matrix(1 0 0 1 1955.84 1556)">
   <path d="M 64.5996 -93.9453 C 27.1973 -93.9453 11.2793 -77.1484 11.2793 -41.3086 L 11.2793 3.17383 C 11.2793 16.5527 18.4082 23.584 31.8359 23.584 L 143.018 23.584 C 156.445 23.584 163.574 16.5039 163.574 3.17383 L 163.574 -41.3086 C 163.574 -77.1484 147.656 -93.9453 110.254 -93.9453 Z M 104.297 -6.54297 C 100.293 -6.54297 98.0469 -9.27734 98.0469 -13.5254 L 98.0469 -57.8613 C 98.0469 -62.1582 100.244 -64.8926 104.297 -64.8926 C 108.35 -64.8926 110.596 -62.207 110.596 -57.8613 L 110.596 -16.6016 L 132.617 -16.6016 C 135.791 -16.6016 137.939 -14.6973 137.939 -11.5723 C 137.939 -8.39844 135.791 -6.54297 132.617 -6.54297 Z M 47.7051 -6.54297 C 44.4336 -6.54297 42.1875 -8.69141 42.1875 -11.7676 C 42.1875 -13.6719 42.7246 -14.9414 44.4336 -17.0898 L 71.7285 -53.8086 L 71.7285 -54.3457 L 46.9727 -54.3457 C 43.8477 -54.3457 41.6992 -56.1523 41.6992 -59.2285 C 41.6992 -62.207 43.8477 -64.0625 46.9727 -64.0625 L 81.1035 -64.0625 C 84.4238 -64.0625 86.7676 -61.8652 86.7676 -58.6914 C 86.7676 -56.6895 86.3281 -55.5664 84.668 -53.4668 L 57.373 -16.748 L 57.373 -16.2598 L 83.3984 -16.2598 C 86.5723 -16.2598 88.6719 -14.4043 88.6719 -11.4258 C 88.6719 -8.39844 86.5234 -6.54297 83.3984 -6.54297 Z"/>
  </g>
  <g id="Medium-L" transform="matrix(1 0 0 1 1659.42 1556)">
   <path d="M 64.3555 -93.3105 C 27.1973 -93.3105 11.2793 -76.416 11.2793 -41.2109 L 11.2793 3.27148 C 11.2793 16.2598 18.1152 22.998 31.1523 22.998 L 143.066 22.998 C 156.152 22.998 162.988 16.2109 162.988 3.27148 L 162.988 -41.2109 C 162.988 -76.416 147.07 -93.3105 109.912 -93.3105 Z M 103.662 -6.29883 C 100.146 -6.29883 98.2422 -8.74023 98.2422 -12.4512 L 98.2422 -58.8867 C 98.2422 -62.5977 100.146 -64.9902 103.662 -64.9902 C 107.227 -64.9902 109.18 -62.6953 109.18 -58.8867 L 109.18 -15.2344 L 132.715 -15.2344 C 135.449 -15.2344 137.354 -13.5742 137.354 -10.791 C 137.354 -8.00781 135.449 -6.29883 132.715 -6.29883 Z M 47.0703 -6.29883 C 44.1406 -6.29883 42.0898 -8.25195 42.0898 -11.0352 C 42.0898 -12.6953 42.5781 -13.7695 44.0918 -15.7715 L 72.9492 -55.0293 L 72.9492 -55.5176 L 46.4355 -55.5176 C 43.7012 -55.5176 41.7969 -57.1777 41.7969 -59.9121 C 41.7969 -62.5488 43.7012 -64.2578 46.4355 -64.2578 L 81.2988 -64.2578 C 84.2773 -64.2578 86.377 -62.2559 86.377 -59.4238 C 86.377 -57.666 85.9863 -56.6895 84.5215 -54.7852 L 55.7617 -15.5273 L 55.7617 -15.0391 L 83.6914 -15.0391 C 86.4258 -15.0391 88.2812 -13.3789 88.2812 -10.6934 C 88.2812 -8.00781 86.377 -6.29883 83.6914 -6.29883 Z"/>
  </g>
  <g id="Regular-L" transform="matrix(1 0 0 1 1363.13 1556)">
   <path d="M 64.0137 -92.5293 C 27.1484 -92.5293 11.2793 -75.5371 11.2793 -41.0645 L 11.2793 3.41797 C 11.2793 15.918 17.6758 22.2168 30.2734 22.2168 L 143.164 22.2168 C 155.762 22.2168 162.158 15.8691 162.158 3.41797 L 162.158 -41.0645 C 162.158 -75.5371 146.289 -92.5293 109.424 -92.5293 Z M 102.832 -6.05469 C 100 -6.05469 98.4375 -8.10547 98.4375 -11.0352 L 98.4375 -60.2051 C 98.4375 -63.1836 100 -65.1855 102.832 -65.1855 C 105.762 -65.1855 107.373 -63.2812 107.373 -60.2051 L 107.373 -13.4277 L 132.812 -13.4277 C 135.01 -13.4277 136.572 -12.0605 136.572 -9.76562 C 136.572 -7.4707 135.059 -6.05469 132.812 -6.05469 Z M 46.2891 -6.05469 C 43.75 -6.05469 41.9922 -7.71484 41.9922 -10.0586 C 41.9922 -11.4258 42.3828 -12.207 43.6035 -14.0137 L 74.5117 -56.5918 L 74.5117 -57.0801 L 45.7031 -57.0801 C 43.5059 -57.0801 41.9434 -58.4961 41.9434 -60.791 C 41.9434 -63.0371 43.5059 -64.502 45.7031 -64.502 L 81.4941 -64.502 C 84.082 -64.502 85.8887 -62.7441 85.8887 -60.3516 C 85.8887 -58.9355 85.5469 -58.1055 84.4238 -56.543 L 53.6133 -13.916 L 53.6133 -13.4277 L 84.0332 -13.4277 C 86.2305 -13.4277 87.793 -12.0117 87.793 -9.76562 C 87.793 -7.51953 86.2305 -6.05469 84.0332 -6.05469 Z"/>
  </g>
  <g id="Light-L" transform="matrix(1 0 0 1 1067.42 1556)">
   <path d="M 62.1094 -91.6992 C 26.123 -91.6992 11.2793 -74.9512 11.2793 -41.6992 L 11.2793 3.56445 C 11.2793 15.3809 17.3828 21.4355 29.248 21.4355 L 142.188 21.4355 C 154.053 21.4355 160.156 15.2344 160.156 3.56445 L 160.156 -41.6992 C 160.156 -74.9512 145.361 -91.6992 109.375 -91.6992 Z M 100.781 -6.20117 C 98.6328 -6.20117 97.3633 -7.76367 97.3633 -9.96094 L 97.3633 -60.3516 C 97.3633 -62.6465 98.584 -64.1113 100.781 -64.1113 C 102.979 -64.1113 104.199 -62.6953 104.199 -60.3516 L 104.199 -12.0605 L 130.811 -12.0605 C 132.52 -12.0605 133.789 -10.9375 133.789 -9.13086 C 133.789 -7.32422 132.568 -6.20117 130.811 -6.20117 Z M 45.752 -6.20117 C 43.6035 -6.20117 42.0898 -7.61719 42.0898 -9.57031 C 42.0898 -10.791 42.3828 -11.4258 43.457 -12.9883 L 75.7324 -57.2754 L 75.7324 -57.7148 L 45.166 -57.7148 C 43.4082 -57.7148 42.1875 -58.8379 42.1875 -60.6445 C 42.1875 -62.3535 43.4082 -63.5254 45.166 -63.5254 L 80.6152 -63.5254 C 82.7637 -63.5254 84.2773 -62.0605 84.2773 -60.0586 C 84.2773 -58.7891 84.0332 -58.1055 83.0078 -56.7383 L 50.9277 -12.4512 L 50.9277 -12.0605 L 83.0078 -12.0605 C 84.7656 -12.0605 85.9863 -10.8887 85.9863 -9.13086 C 85.9863 -7.37305 84.7656 -6.20117 83.0078 -6.20117 Z"/>
  </g>
  <g id="Thin-L" transform="matrix(1 0 0 1 772.023 1556)">
   <path d="M 59.5703 -90.5762 C 24.7559 -90.5762 11.2793 -74.1699 11.2793 -42.4805 L 11.2793 3.75977 C 11.2793 14.6484 16.9922 20.3613 27.8809 20.3613 L 140.918 20.3613 C 151.807 20.3613 157.52 14.4531 157.52 3.75977 L 157.52 -42.4805 C 157.52 -74.1699 144.092 -90.5762 109.277 -90.5762 Z M 97.998 -6.44531 C 96.7773 -6.44531 95.9473 -7.32422 95.9473 -8.54492 L 95.9473 -60.5957 C 95.9473 -61.9141 96.7285 -62.7441 97.998 -62.7441 C 99.3164 -62.7441 100.049 -61.9141 100.049 -60.5957 L 100.049 -10.2051 L 128.125 -10.2051 C 129.248 -10.2051 130.029 -9.42383 130.029 -8.30078 C 130.029 -7.17773 129.346 -6.44531 128.125 -6.44531 Z M 45.0195 -6.44531 C 43.3594 -6.44531 42.2363 -7.4707 42.2363 -8.98438 C 42.2363 -10.0098 42.4316 -10.4492 43.2617 -11.6699 L 77.3926 -58.2031 L 77.3926 -58.5449 L 44.3848 -58.5449 C 43.2617 -58.5449 42.4805 -59.3262 42.4805 -60.4004 C 42.4805 -61.4746 43.2617 -62.3047 44.3848 -62.3047 L 79.3945 -62.3047 C 81.0547 -62.3047 82.2266 -61.1816 82.2266 -59.668 C 82.2266 -58.6426 82.0312 -58.1055 81.2012 -56.9824 L 47.3145 -10.5469 L 47.3145 -10.2051 L 81.6895 -10.2051 C 82.8125 -10.2051 83.5938 -9.375 83.5938 -8.30078 C 83.5938 -7.22656 82.8125 -6.44531 81.6895 -6.44531 Z"/>
  </g>
  <g id="Ultralight-L" transform="matrix(1 0 0 1 475.971 1556)">
   <path d="M 58.252 -89.9902 C 24.0723 -89.9902 11.2793 -73.7793 11.2793 -42.8711 L 11.2793 3.85742 C 11.2793 14.2578 16.7969 19.7754 27.1973 19.7754 L 140.283 19.7754 C 150.635 19.7754 156.201 14.0625 156.201 3.85742 L 156.201 -42.8711 C 156.201 -73.7793 143.408 -89.9902 109.229 -89.9902 Z M 96.582 -6.54297 C 95.8496 -6.54297 95.2148 -7.08008 95.2148 -7.8125 L 95.2148 -60.7422 C 95.2148 -61.5723 95.752 -62.0117 96.582 -62.0117 C 97.4121 -62.0117 97.9492 -61.5234 97.9492 -60.7422 L 97.9492 -9.22852 L 126.758 -9.22852 C 127.588 -9.22852 128.125 -8.69141 128.125 -7.86133 C 128.125 -7.08008 127.686 -6.54297 126.758 -6.54297 Z M 44.6777 -6.54297 C 43.2617 -6.54297 42.2852 -7.42188 42.2852 -8.64258 C 42.2852 -9.57031 42.4316 -9.91211 43.1641 -10.9863 L 78.2227 -58.6426 L 78.2227 -58.9355 L 43.9941 -58.9355 C 43.2129 -58.9355 42.6758 -59.6191 42.6758 -60.3027 C 42.6758 -61.0352 43.2129 -61.6699 43.9941 -61.6699 L 78.8086 -61.6699 C 80.2246 -61.6699 81.1523 -60.6934 81.1523 -59.4727 C 81.1523 -58.5449 81.0059 -58.1055 80.2734 -57.1289 L 45.459 -9.52148 L 45.459 -9.22852 L 81.0059 -9.22852 C 81.8359 -9.22852 82.373 -8.59375 82.373 -7.86133 C 82.373 -7.17773 81.8359 -6.54297 81.0059 -6.54297 Z"/>
  </g>
  <g id="Black-M" transform="matrix(1 0 0 1 2864.31 1126)">
   <path d="M 50.5859 -83.9355 C 20.6543 -83.9355 8.74023 -71.6309 8.74023 -40.7715 L 8.74023 -5.95703 C 8.74023 6.29883 16.0156 13.5742 28.2715 13.5742 L 109.912 13.5742 C 122.168 13.5742 129.443 6.29883 129.443 -5.95703 L 129.443 -40.7715 C 129.443 -71.6309 117.48 -83.9355 87.5977 -83.9355 Z M 83.5938 -14.3555 C 77.7344 -14.3555 74.3652 -18.0176 74.3652 -24.4629 L 74.3652 -46.7285 C 74.3652 -53.1738 77.7344 -56.8359 83.5938 -56.8359 C 89.2578 -56.8359 92.6758 -53.0762 92.6758 -46.7285 L 92.6758 -28.3691 L 101.172 -28.3691 C 105.957 -28.3691 108.936 -25.7812 108.936 -21.3379 C 108.936 -16.8945 105.957 -14.3555 101.172 -14.3555 Z M 40.5273 -14.3555 C 36.1816 -14.3555 33.1543 -17.1875 33.1543 -21.3379 C 33.1543 -24.2188 34.082 -26.3672 36.4258 -28.8574 L 48.877 -42.4805 L 48.877 -43.0176 L 39.4531 -43.0176 C 34.8633 -43.0176 31.8848 -45.5078 31.8848 -49.5117 C 31.8848 -53.5645 34.7168 -55.957 39.4531 -55.957 L 61.2793 -55.957 C 65.7227 -55.957 68.75 -53.125 68.75 -48.877 C 68.75 -45.7031 68.1152 -44.2871 65.5273 -41.3574 L 52.9785 -27.6855 L 52.9785 -27.1973 L 62.5488 -27.1973 C 67.2363 -27.1973 70.0684 -24.8047 70.0684 -20.8008 C 70.0684 -16.7969 67.1387 -14.3555 62.5488 -14.3555 Z"/>
  </g>
  <g id="Heavy-M" transform="matrix(1 0 0 1 2567.91 1126)">
   <path d="M 50.6348 -83.0566 C 20.8984 -83.0566 8.74023 -70.5078 8.74023 -40.4785 L 8.74023 -5.81055 C 8.74023 5.9082 15.5273 12.6465 27.2949 12.6465 L 110.254 12.6465 C 122.021 12.6465 128.809 5.9082 128.809 -5.81055 L 128.809 -40.4785 C 128.809 -70.5078 116.65 -83.0566 86.9141 -83.0566 Z M 82.959 -13.916 C 77.832 -13.916 74.9512 -17.1387 74.9512 -22.7051 L 74.9512 -48.5352 C 74.9512 -54.1016 77.832 -57.3242 82.959 -57.3242 C 87.8906 -57.3242 90.8203 -54.1016 90.8203 -48.5352 L 90.8203 -26.1719 L 101.855 -26.1719 C 105.957 -26.1719 108.545 -23.9258 108.545 -20.0684 C 108.545 -16.1621 105.957 -13.916 101.855 -13.916 Z M 39.502 -13.916 C 35.6445 -13.916 33.0078 -16.4551 33.0078 -20.0684 C 33.0078 -22.5098 33.7891 -24.3164 35.8398 -26.6113 L 50.7812 -44.5801 L 50.7812 -45.1172 L 38.5742 -45.1172 C 34.5703 -45.1172 31.9824 -47.2656 31.9824 -50.8301 C 31.9824 -54.3945 34.4727 -56.543 38.5742 -56.543 L 61.8652 -56.543 C 65.7227 -56.543 68.4082 -54.0039 68.4082 -50.293 C 68.4082 -47.6074 67.8711 -46.3379 65.6738 -43.7988 L 50.6348 -25.7812 L 50.6348 -25.293 L 63.2812 -25.293 C 67.334 -25.293 69.8242 -23.1934 69.8242 -19.6289 C 69.8242 -16.1133 67.2363 -13.916 63.2812 -13.916 Z"/>
  </g>
  <g id="Bold-M" transform="matrix(1 0 0 1 2271.55 1126)">
   <path d="M 50.6348 -82.0312 C 21.1426 -82.0312 8.74023 -69.2383 8.74023 -40.0879 L 8.74023 -5.66406 C 8.74023 5.51758 14.9414 11.6699 26.1719 11.6699 L 110.693 11.6699 C 121.924 11.6699 128.125 5.46875 128.125 -5.66406 L 128.125 -40.0879 C 128.125 -69.2383 115.723 -82.0312 86.2305 -82.0312 Z M 82.2266 -13.4277 C 77.9785 -13.4277 75.6348 -16.2109 75.6348 -20.752 L 75.6348 -50.5859 C 75.6348 -55.1758 77.9785 -57.9102 82.2266 -57.9102 C 86.377 -57.9102 88.8184 -55.1758 88.8184 -50.5859 L 88.8184 -23.7305 L 102.588 -23.7305 C 105.957 -23.7305 108.154 -21.8262 108.154 -18.6035 C 108.154 -15.332 106.006 -13.4277 102.588 -13.4277 Z M 38.3301 -13.4277 C 35.0586 -13.4277 32.8125 -15.5762 32.8125 -18.6523 C 32.8125 -20.6543 33.4473 -22.0703 35.1562 -24.1211 L 52.9297 -46.9238 L 52.9297 -47.4121 L 37.5977 -47.4121 C 34.2773 -47.4121 32.1289 -49.2676 32.1289 -52.3438 C 32.1289 -55.3711 34.2285 -57.1777 37.5977 -57.1777 L 62.4512 -57.1777 C 65.7715 -57.1777 68.0664 -55.0293 68.0664 -51.8555 C 68.0664 -49.707 67.627 -48.6328 65.8203 -46.4844 L 47.998 -23.6328 L 47.998 -23.1934 L 64.0625 -23.1934 C 67.4316 -23.1934 69.5801 -21.3379 69.5801 -18.3105 C 69.5801 -15.332 67.3828 -13.4277 64.0625 -13.4277 Z"/>
  </g>
  <g id="Semibold-M" transform="matrix(1 0 0 1 1975.08 1126)">
   <path d="M 50.6836 -81.3477 C 21.3379 -81.3477 8.74023 -68.3594 8.74023 -39.8438 L 8.74023 -5.56641 C 8.74023 5.22461 14.5508 10.9863 25.3906 10.9863 L 110.986 10.9863 C 121.826 10.9863 127.637 5.17578 127.637 -5.56641 L 127.637 -39.8438 C 127.637 -68.3594 115.039 -81.3477 85.6934 -81.3477 Z M 81.7383 -13.0859 C 78.0762 -13.0859 76.0742 -15.5273 76.0742 -19.4336 L 76.0742 -52.002 C 76.0742 -55.9082 78.0762 -58.3496 81.7383 -58.3496 C 85.3516 -58.3496 87.4023 -55.957 87.4023 -52.002 L 87.4023 -22.0703 L 103.125 -22.0703 C 106.006 -22.0703 107.91 -20.4102 107.91 -17.627 C 107.91 -14.7949 106.006 -13.0859 103.125 -13.0859 Z M 37.5 -13.0859 C 34.668 -13.0859 32.666 -14.9902 32.666 -17.6758 C 32.666 -19.3848 33.2031 -20.5078 34.668 -22.4121 L 54.3945 -48.584 L 54.3945 -49.0234 L 36.9141 -49.0234 C 34.082 -49.0234 32.1777 -50.6348 32.1777 -53.3691 C 32.1777 -56.0059 34.082 -57.666 36.9141 -57.666 L 62.8906 -57.666 C 65.8203 -57.666 67.8223 -55.7129 67.8223 -52.9785 C 67.8223 -51.1719 67.4316 -50.1953 65.9668 -48.3398 L 46.1914 -22.1191 L 46.1914 -21.7285 L 64.6484 -21.7285 C 67.4805 -21.7285 69.3848 -20.1172 69.3848 -17.4316 C 69.3848 -14.7461 67.4316 -13.0859 64.6484 -13.0859 Z"/>
  </g>
  <g id="Medium-M" transform="matrix(1 0 0 1 1678.54 1126)">
   <path d="M 50.6836 -80.8105 C 21.4355 -80.8105 8.74023 -67.6758 8.74023 -39.6973 L 8.74023 -5.46875 C 8.74023 4.98047 14.2578 10.4492 24.8047 10.4492 L 111.23 10.4492 C 121.777 10.4492 127.295 4.98047 127.295 -5.46875 L 127.295 -39.6973 C 127.295 -67.6758 114.551 -80.8105 85.3516 -80.8105 Z M 81.3477 -12.8418 C 78.1738 -12.8418 76.416 -15.0391 76.416 -18.4082 L 76.416 -53.0762 C 76.416 -56.4453 78.125 -58.6426 81.3477 -58.6426 C 84.5703 -58.6426 86.3281 -56.543 86.3281 -53.0762 L 86.3281 -20.8008 L 103.516 -20.8008 C 106.006 -20.8008 107.715 -19.3359 107.715 -16.8457 C 107.715 -14.3555 106.006 -12.8418 103.516 -12.8418 Z M 36.9141 -12.8418 C 34.375 -12.8418 32.5684 -14.5508 32.5684 -16.9434 C 32.5684 -18.4082 33.0078 -19.3359 34.3262 -21.0938 L 55.5176 -49.8047 L 55.5176 -50.2441 L 36.377 -50.2441 C 33.9355 -50.2441 32.2266 -51.709 32.2266 -54.1504 C 32.2266 -56.4941 33.9355 -58.0078 36.377 -58.0078 L 63.2324 -58.0078 C 65.8203 -58.0078 67.627 -56.25 67.627 -53.8086 C 67.627 -52.2461 67.2852 -51.416 66.0645 -49.7559 L 44.8242 -20.9961 L 44.8242 -20.6055 L 65.0879 -20.6055 C 67.5293 -20.6055 69.2383 -19.1406 69.2383 -16.748 C 69.2383 -14.3555 67.5293 -12.8418 65.0879 -12.8418 Z"/>
  </g>
  <g id="Regular-M" transform="matrix(1 0 0 1 1382.07 1126)">
   <path d="M 50.7324 -80.127 C 21.6309 -80.127 8.74023 -66.7969 8.74023 -39.4531 L 8.74023 -5.37109 C 8.74023 4.73633 13.8672 9.76562 24.0723 9.76562 L 111.475 9.76562 C 121.68 9.76562 126.807 4.6875 126.807 -5.37109 L 126.807 -39.4531 C 126.807 -66.7969 113.916 -80.127 84.8633 -80.127 Z M 80.8594 -12.5 C 78.2715 -12.5 76.8555 -14.4043 76.8555 -17.0898 L 76.8555 -54.4434 C 76.8555 -57.1777 78.2227 -59.0332 80.8594 -59.0332 C 83.5449 -59.0332 84.9609 -57.2754 84.9609 -54.4434 L 84.9609 -19.1406 L 104.053 -19.1406 C 106.006 -19.1406 107.422 -17.9199 107.422 -15.8691 C 107.422 -13.7695 106.006 -12.5 104.053 -12.5 Z M 36.1328 -12.5 C 33.9844 -12.5 32.4707 -13.9648 32.4707 -15.9668 C 32.4707 -17.0898 32.7637 -17.8223 33.8379 -19.3848 L 56.9824 -51.416 L 56.9824 -51.8066 L 35.7422 -51.8066 C 33.7402 -51.8066 32.3242 -53.0273 32.3242 -55.127 C 32.3242 -57.1289 33.7402 -58.4473 35.7422 -58.4473 L 63.6719 -58.4473 C 65.8691 -58.4473 67.3828 -56.9336 67.3828 -54.8828 C 67.3828 -53.6621 67.1387 -52.9785 66.1621 -51.6113 L 43.0664 -19.5312 L 43.0664 -19.1406 L 65.625 -19.1406 C 67.627 -19.1406 69.043 -17.9199 69.043 -15.8691 C 69.043 -13.8184 67.627 -12.5 65.625 -12.5 Z"/>
  </g>
  <g id="Light-M" transform="matrix(1 0 0 1 1086.24 1126)">
   <path d="M 48.9746 -79.3945 C 20.7031 -79.3945 8.74023 -66.2598 8.74023 -39.9414 L 8.74023 -5.22461 C 8.74023 4.19922 13.623 9.0332 23.1445 9.0332 L 110.645 9.0332 C 120.166 9.0332 125.049 4.15039 125.049 -5.22461 L 125.049 -39.9414 C 125.049 -66.2598 113.086 -79.3945 84.7656 -79.3945 Z M 79.0039 -12.6465 C 77.002 -12.6465 75.9277 -14.1113 75.9277 -16.1133 L 75.9277 -54.6387 C 75.9277 -56.6895 77.002 -58.1055 79.0039 -58.1055 C 81.0059 -58.1055 82.1289 -56.7871 82.1289 -54.6387 L 82.1289 -17.8711 L 102.246 -17.8711 C 103.809 -17.8711 104.883 -16.8945 104.883 -15.2832 C 104.883 -13.6719 103.809 -12.6465 102.246 -12.6465 Z M 35.6445 -12.6465 C 33.8379 -12.6465 32.5684 -13.8672 32.5684 -15.5762 C 32.5684 -16.5527 32.8125 -17.1387 33.7402 -18.457 L 58.1055 -52.002 L 58.1055 -52.3438 L 35.2051 -52.3438 C 33.6426 -52.3438 32.5684 -53.3691 32.5684 -54.9805 C 32.5684 -56.543 33.6426 -57.6172 35.2051 -57.6172 L 62.8418 -57.6172 C 64.6973 -57.6172 66.0156 -56.3477 66.0156 -54.5898 C 66.0156 -53.5645 65.7715 -52.9785 64.9414 -51.8066 L 40.625 -18.2129 L 40.625 -17.8711 L 64.7461 -17.8711 C 66.3086 -17.8711 67.4316 -16.8945 67.4316 -15.2832 C 67.4316 -13.7207 66.3086 -12.6465 64.7461 -12.6465 Z"/>
  </g>
  <g id="Thin-M" transform="matrix(1 0 0 1 790.724 1126)">
   <path d="M 46.7285 -78.3691 C 19.4824 -78.3691 8.74023 -65.5762 8.74023 -40.6738 L 8.74023 -5.0293 C 8.74023 3.56445 13.2812 8.05664 21.9238 8.05664 L 109.473 8.05664 C 118.115 8.05664 122.656 3.4668 122.656 -5.0293 L 122.656 -40.6738 C 122.656 -65.5762 111.914 -78.3691 84.7168 -78.3691 Z M 76.5137 -12.8418 C 75.3906 -12.8418 74.6582 -13.6719 74.6582 -14.8438 L 74.6582 -54.834 C 74.6582 -56.0547 75.3418 -56.8359 76.5137 -56.8359 C 77.7344 -56.8359 78.418 -56.1035 78.418 -54.834 L 78.418 -16.2109 L 99.8535 -16.2109 C 100.879 -16.2109 101.562 -15.5762 101.562 -14.5508 C 101.562 -13.5254 100.928 -12.8418 99.8535 -12.8418 Z M 35.0098 -12.8418 C 33.6426 -12.8418 32.666 -13.7695 32.666 -14.9902 C 32.666 -15.8203 32.8613 -16.2598 33.5449 -17.2363 L 59.5703 -52.832 L 59.5703 -53.125 L 34.5215 -53.125 C 33.5449 -53.125 32.8613 -53.8086 32.8613 -54.7852 C 32.8613 -55.7617 33.5449 -56.4941 34.5215 -56.4941 L 61.7676 -56.4941 C 63.1836 -56.4941 64.1602 -55.5176 64.1602 -54.248 C 64.1602 -53.418 63.9648 -52.9785 63.2812 -52.0508 L 37.4023 -16.5039 L 37.4023 -16.2109 L 63.5742 -16.2109 C 64.5996 -16.2109 65.2832 -15.5273 65.2832 -14.5508 C 65.2832 -13.5742 64.5996 -12.8418 63.5742 -12.8418 Z"/>
  </g>
  <g id="Ultralight-M" transform="matrix(1 0 0 1 494.623 1126)">
   <path d="M 45.5566 -77.832 C 18.8477 -77.832 8.74023 -65.1855 8.74023 -41.0156 L 8.74023 -4.98047 C 8.74023 3.22266 13.0859 7.56836 21.2891 7.56836 L 108.887 7.56836 C 117.09 7.56836 121.436 3.125 121.436 -4.98047 L 121.436 -41.0156 C 121.436 -65.1855 111.328 -77.832 84.668 -77.832 Z M 75.2441 -12.9395 C 74.5605 -12.9395 74.0234 -13.4766 74.0234 -14.209 L 74.0234 -54.9805 C 74.0234 -55.7617 74.4629 -56.2012 75.2441 -56.2012 C 76.0254 -56.2012 76.5137 -55.7129 76.5137 -54.9805 L 76.5137 -15.3809 L 98.6328 -15.3809 C 99.3652 -15.3809 99.8535 -14.8926 99.8535 -14.1602 C 99.8535 -13.4277 99.4141 -12.9395 98.6328 -12.9395 Z M 34.7168 -12.9395 C 33.5449 -12.9395 32.7148 -13.6719 32.7148 -14.7461 C 32.7148 -15.4785 32.8613 -15.7715 33.4961 -16.6504 L 60.3516 -53.2227 L 60.3516 -53.4668 L 34.1797 -53.4668 C 33.4961 -53.4668 33.0078 -54.0527 33.0078 -54.6875 C 33.0078 -55.3711 33.4961 -55.9082 34.1797 -55.9082 L 61.2305 -55.9082 C 62.4023 -55.9082 63.1836 -55.127 63.1836 -54.0527 C 63.1836 -53.3203 63.0859 -52.9785 62.4512 -52.1484 L 35.791 -15.625 L 35.791 -15.3809 L 62.9883 -15.3809 C 63.7207 -15.3809 64.1602 -14.8438 64.1602 -14.1602 C 64.1602 -13.5254 63.7207 -12.9395 62.9883 -12.9395 Z"/>
  </g>
  <g id="Black-S" transform="matrix(1 0 0 1 2879.3 696)">
   <path d="M 39.6484 -73.3398 C 16.2109 -73.3398 6.83594 -63.6719 6.83594 -39.5508 L 6.83594 -12.3047 C 6.83594 -2.73438 12.5 2.92969 22.0703 2.92969 L 86.1328 2.92969 C 95.7031 2.92969 101.367 -2.73438 101.367 -12.3047 L 101.367 -39.5508 C 101.367 -63.6719 91.9922 -73.3398 68.5547 -73.3398 Z M 65.4297 -18.8477 C 60.8887 -18.8477 58.3008 -21.6797 58.3008 -26.6602 L 58.3008 -44.3848 C 58.3008 -49.3652 60.8887 -52.1973 65.4297 -52.1973 C 69.8242 -52.1973 72.4609 -49.3164 72.4609 -44.3848 L 72.4609 -29.6875 L 79.2969 -29.6875 C 83.0078 -29.6875 85.3027 -27.6855 85.3027 -24.2676 C 85.3027 -20.8008 83.0078 -18.8477 79.2969 -18.8477 Z M 31.6406 -18.8477 C 28.2715 -18.8477 25.9277 -21.0449 25.9277 -24.2676 C 25.9277 -26.4648 26.6602 -28.125 28.4668 -30.0781 L 38.3789 -41.0645 L 38.3789 -41.5039 L 30.8105 -41.5039 C 27.2461 -41.5039 24.9512 -43.4082 24.9512 -46.5332 C 24.9512 -49.6582 27.1484 -51.5137 30.8105 -51.5137 L 48.0469 -51.5137 C 51.4648 -51.5137 53.8086 -49.3164 53.8086 -46.0449 C 53.8086 -43.6035 53.3203 -42.4805 51.3184 -40.2344 L 41.3086 -29.1992 L 41.3086 -28.8086 L 49.0234 -28.8086 C 52.6855 -28.8086 54.8828 -26.9531 54.8828 -23.8281 C 54.8828 -20.752 52.5879 -18.8477 49.0234 -18.8477 Z"/>
  </g>
  <g id="Heavy-S" transform="matrix(1 0 0 1 2582.73 696)">
   <path d="M 39.8438 -72.7539 C 16.5039 -72.7539 6.83594 -62.8418 6.83594 -39.2578 L 6.83594 -12.207 C 6.83594 -2.97852 12.1582 2.34375 21.4355 2.34375 L 86.5234 2.34375 C 95.8008 2.34375 101.074 -2.97852 101.074 -12.207 L 101.074 -39.2578 C 101.074 -62.8418 91.4551 -72.7539 68.0664 -72.7539 Z M 65.1367 -18.5059 C 61.1328 -18.5059 58.8867 -21.0449 58.8867 -25.4395 L 58.8867 -45.752 C 58.8867 -50.1465 61.1328 -52.6855 65.1367 -52.6855 C 69.0918 -52.6855 71.3867 -50.1465 71.3867 -45.752 L 71.3867 -28.1738 L 80.0293 -28.1738 C 83.252 -28.1738 85.3027 -26.3672 85.3027 -23.3398 C 85.3027 -20.2637 83.252 -18.5059 80.0293 -18.5059 Z M 30.9082 -18.5059 C 27.8809 -18.5059 25.7812 -20.459 25.7812 -23.3398 C 25.7812 -25.2441 26.416 -26.6602 28.0273 -28.4668 L 39.7461 -42.627 L 39.7461 -43.0176 L 30.2246 -43.0176 C 27.0508 -43.0176 25 -44.7266 25 -47.5586 C 25 -50.3906 27.002 -52.0508 30.2246 -52.0508 L 48.584 -52.0508 C 51.6113 -52.0508 53.7109 -50.0977 53.7109 -47.168 C 53.7109 -45.0684 53.3203 -44.043 51.5625 -42.041 L 39.7949 -27.8809 L 39.7949 -27.4902 L 49.707 -27.4902 C 52.8809 -27.4902 54.8828 -25.8301 54.8828 -22.998 C 54.8828 -20.2148 52.832 -18.5059 49.707 -18.5059 Z"/>
  </g>
  <g id="Bold-S" transform="matrix(1 0 0 1 2286.17 696)">
   <path d="M 40.0879 -72.0703 C 16.7969 -72.0703 6.83594 -61.9629 6.83594 -38.916 L 6.83594 -12.1094 C 6.83594 -3.22266 11.7676 1.66016 20.7031 1.66016 L 86.9629 1.66016 C 95.8984 1.66016 100.781 -3.22266 100.781 -12.1094 L 100.781 -38.916 C 100.781 -61.9629 90.8203 -72.0703 67.5293 -72.0703 Z M 64.8438 -18.1152 C 61.377 -18.1152 59.4727 -20.3613 59.4727 -24.0723 L 59.4727 -47.3145 C 59.4727 -51.0254 61.377 -53.2715 64.8438 -53.2715 C 68.2129 -53.2715 70.166 -51.0254 70.166 -47.3145 L 70.166 -26.4648 L 80.8594 -26.4648 C 83.5449 -26.4648 85.3516 -24.9023 85.3516 -22.3145 C 85.3516 -19.6289 83.5449 -18.1152 80.8594 -18.1152 Z M 30.0781 -18.1152 C 27.4902 -18.1152 25.6836 -19.8242 25.6836 -22.3145 C 25.6836 -23.877 26.1719 -25 27.5391 -26.6602 L 41.2598 -44.3359 L 41.2598 -44.7266 L 29.541 -44.7266 C 26.8555 -44.7266 25.0977 -46.2402 25.0977 -48.7305 C 25.0977 -51.1719 26.8066 -52.6855 29.541 -52.6855 L 49.1699 -52.6855 C 51.8066 -52.6855 53.6621 -50.9277 53.6621 -48.3887 C 53.6621 -46.6797 53.2715 -45.8008 51.8555 -44.0918 L 38.1348 -26.3672 L 38.1348 -26.0254 L 50.4395 -26.0254 C 53.125 -26.0254 54.8828 -24.5605 54.8828 -22.0703 C 54.8828 -19.6289 53.0762 -18.1152 50.4395 -18.1152 Z"/>
  </g>
  <g id="Semibold-S" transform="matrix(1 0 0 1 1989.56 696)">
   <path d="M 40.2832 -71.582 C 16.9922 -71.582 6.83594 -61.3281 6.83594 -38.6719 L 6.83594 -12.0117 C 6.83594 -3.36914 11.4746 1.17188 20.166 1.17188 L 87.2559 1.17188 C 95.9473 1.17188 100.586 -3.36914 100.586 -12.0117 L 100.586 -38.6719 C 100.586 -61.3281 90.3809 -71.582 67.1387 -71.582 Z M 64.6484 -17.8223 C 61.5723 -17.8223 59.9121 -19.873 59.9121 -23.1445 L 59.9121 -48.3887 C 59.9121 -51.6113 61.5723 -53.6621 64.6484 -53.6621 C 67.6758 -53.6621 69.3359 -51.6602 69.3359 -48.3887 L 69.3359 -25.293 L 81.3965 -25.293 C 83.7891 -25.293 85.3516 -23.9258 85.3516 -21.582 C 85.3516 -19.2383 83.7891 -17.8223 81.3965 -17.8223 Z M 29.541 -17.8223 C 27.1973 -17.8223 25.5859 -19.3848 25.5859 -21.582 C 25.5859 -22.9492 25.9766 -23.877 27.1973 -25.4395 L 42.2852 -45.5078 L 42.2852 -45.8984 L 29.0527 -45.8984 C 26.709 -45.8984 25.1465 -47.2168 25.1465 -49.5117 C 25.1465 -51.709 26.709 -53.0762 29.0527 -53.0762 L 49.5605 -53.0762 C 51.9531 -53.0762 53.5645 -51.5137 53.5645 -49.2676 C 53.5645 -47.8027 53.2715 -47.0215 52.0996 -45.5078 L 36.9629 -25.3418 L 36.9629 -25 L 50.9766 -25 C 53.3203 -25 54.8828 -23.6816 54.8828 -21.4355 C 54.8828 -19.1895 53.2715 -17.8223 50.9766 -17.8223 Z"/>
  </g>
  <g id="Medium-S" transform="matrix(1 0 0 1 1692.92 696)">
   <path d="M 40.3809 -71.2402 C 17.1875 -71.2402 6.83594 -60.8398 6.83594 -38.4766 L 6.83594 -11.9629 C 6.83594 -3.51562 11.2793 0.830078 19.7754 0.830078 L 87.4512 0.830078 C 95.9961 0.830078 100.439 -3.51562 100.439 -11.9629 L 100.439 -38.4766 C 100.439 -60.8398 90.0879 -71.2402 66.8457 -71.2402 Z M 64.4531 -17.627 C 61.7188 -17.627 60.2539 -19.5312 60.2539 -22.4121 L 60.2539 -49.1699 C 60.2539 -52.0508 61.7188 -53.9551 64.4531 -53.9551 C 67.2363 -53.9551 68.75 -52.1484 68.75 -49.1699 L 68.75 -24.4141 L 81.8359 -24.4141 C 83.9355 -24.4141 85.3516 -23.1445 85.3516 -21.0449 C 85.3516 -18.8965 83.9355 -17.627 81.8359 -17.627 Z M 29.1016 -17.627 C 26.9531 -17.627 25.4883 -19.043 25.4883 -21.0449 C 25.4883 -22.2168 25.8301 -23.0469 26.9043 -24.4629 L 43.0664 -46.4355 L 43.0664 -46.7773 L 28.7109 -46.7773 C 26.6113 -46.7773 25.1465 -47.998 25.1465 -50.0977 C 25.1465 -52.1484 26.6113 -53.418 28.7109 -53.418 L 49.8535 -53.418 C 52.0508 -53.418 53.5645 -51.9531 53.5645 -49.9023 C 53.5645 -48.6328 53.2715 -47.9492 52.2461 -46.582 L 36.084 -24.6094 L 36.084 -24.2676 L 51.3672 -24.2676 C 53.418 -24.2676 54.8828 -22.998 54.8828 -20.9473 C 54.8828 -18.8965 53.418 -17.627 51.3672 -17.627 Z"/>
  </g>
  <g id="Regular-S" transform="matrix(1 0 0 1 1396.33 696)">
   <path d="M 40.5762 -70.8008 C 17.3828 -70.8008 6.83594 -60.2051 6.83594 -38.2812 L 6.83594 -11.9141 C 6.83594 -3.71094 10.9863 0.390625 19.2871 0.390625 L 87.7441 0.390625 C 96.0449 0.390625 100.195 -3.71094 100.195 -11.9141 L 100.195 -38.2812 C 100.195 -60.2051 89.6484 -70.8008 66.5039 -70.8008 Z M 64.2578 -17.334 C 61.9141 -17.334 60.6934 -19.043 60.6934 -21.4844 L 60.6934 -50.2441 C 60.6934 -52.6367 61.9141 -54.3457 64.2578 -54.3457 C 66.6504 -54.3457 67.9199 -52.7344 67.9199 -50.2441 L 67.9199 -23.2422 L 82.373 -23.2422 C 84.1309 -23.2422 85.4004 -22.168 85.4004 -20.3125 C 85.4004 -18.5059 84.1309 -17.334 82.373 -17.334 Z M 28.5156 -17.334 C 26.6602 -17.334 25.3906 -18.6035 25.3906 -20.3613 C 25.3906 -21.2891 25.6836 -21.9238 26.5625 -23.2422 L 44.0918 -47.6074 L 44.0918 -47.9492 L 28.2227 -47.9492 C 26.4648 -47.9492 25.1953 -49.0234 25.1953 -50.9277 C 25.1953 -52.6855 26.4648 -53.8086 28.2227 -53.8086 L 50.2441 -53.8086 C 52.1484 -53.8086 53.4668 -52.5391 53.4668 -50.7324 C 53.4668 -49.7559 53.2227 -49.1211 52.4414 -47.998 L 34.9121 -23.584 L 34.9121 -23.2422 L 51.8555 -23.2422 C 53.6133 -23.2422 54.8828 -22.168 54.8828 -20.3125 C 54.8828 -18.5059 53.6133 -17.334 51.8555 -17.334 Z"/>
  </g>
  <g id="Light-S" transform="matrix(1 0 0 1 1100.4 696)">
   <path d="M 39.0137 -70.1172 C 16.5527 -70.1172 6.83594 -59.7656 6.83594 -38.7207 L 6.83594 -11.7676 C 6.83594 -4.15039 10.7422 -0.292969 18.457 -0.292969 L 87.0117 -0.292969 C 94.7266 -0.292969 98.6328 -4.15039 98.6328 -11.7676 L 98.6328 -38.7207 C 98.6328 -59.7656 88.916 -70.1172 66.4551 -70.1172 Z M 62.5977 -17.4805 C 60.791 -17.4805 59.8145 -18.7988 59.8145 -20.6543 L 59.8145 -50.3906 C 59.8145 -52.2461 60.791 -53.5156 62.5977 -53.5156 C 64.4531 -53.5156 65.4297 -52.2949 65.4297 -50.3906 L 65.4297 -22.1191 L 80.7617 -22.1191 C 82.1777 -22.1191 83.1543 -21.2402 83.1543 -19.8242 C 83.1543 -18.4082 82.1777 -17.4805 80.7617 -17.4805 Z M 28.125 -17.4805 C 26.5625 -17.4805 25.4883 -18.5059 25.4883 -19.9707 C 25.4883 -20.8008 25.6836 -21.3379 26.4648 -22.4609 L 45.1172 -48.1445 L 45.1172 -48.4375 L 27.7832 -48.4375 C 26.416 -48.4375 25.3906 -49.3164 25.3906 -50.7812 C 25.3906 -52.1484 26.416 -53.0762 27.7832 -53.0762 L 49.5605 -53.0762 C 51.123 -53.0762 52.2461 -52.002 52.2461 -50.4883 C 52.2461 -49.6582 52.0508 -49.1211 51.3184 -48.1445 L 32.7637 -22.4121 L 32.7637 -22.1191 L 51.0742 -22.1191 C 52.4414 -22.1191 53.418 -21.2402 53.418 -19.8242 C 53.418 -18.4082 52.4414 -17.4805 51.0742 -17.4805 Z"/>
  </g>
  <g id="Thin-S" transform="matrix(1 0 0 1 804.738 696)">
   <path d="M 37.0117 -69.2383 C 15.4785 -69.2383 6.83594 -59.1309 6.83594 -39.3555 L 6.83594 -11.6211 C 6.83594 -4.6875 10.4492 -1.12305 17.3828 -1.12305 L 85.9863 -1.12305 C 92.9199 -1.12305 96.5332 -4.78516 96.5332 -11.6211 L 96.5332 -39.3555 C 96.5332 -59.1309 87.8906 -69.2383 66.3574 -69.2383 Z M 60.4004 -17.6758 C 59.375 -17.6758 58.7402 -18.457 58.7402 -19.5312 L 58.7402 -50.5371 C 58.7402 -51.6602 59.3262 -52.3926 60.4004 -52.3926 C 61.5234 -52.3926 62.1582 -51.709 62.1582 -50.5371 L 62.1582 -20.6543 L 78.6621 -20.6543 C 79.5898 -20.6543 80.1758 -20.0684 80.1758 -19.1895 C 80.1758 -18.2617 79.5898 -17.6758 78.6621 -17.6758 Z M 27.5391 -17.6758 C 26.3672 -17.6758 25.5859 -18.4082 25.5859 -19.4824 C 25.5859 -20.166 25.7324 -20.5078 26.3184 -21.3867 L 46.3867 -48.877 L 46.3867 -49.0723 L 27.1973 -49.0723 C 26.3184 -49.0723 25.6836 -49.707 25.6836 -50.5859 C 25.6836 -51.4648 26.3184 -52.0996 27.1973 -52.0996 L 48.584 -52.0996 C 49.8047 -52.0996 50.5859 -51.2695 50.5859 -50.1953 C 50.5859 -49.5117 50.4883 -49.1211 49.9023 -48.3398 L 29.9316 -20.8984 L 29.9316 -20.6543 L 50.0488 -20.6543 C 50.9277 -20.6543 51.5625 -20.0684 51.5625 -19.1895 C 51.5625 -18.3105 50.9277 -17.6758 50.0488 -17.6758 Z"/>
  </g>
  <g id="Ultralight-S" transform="matrix(1 0 0 1 508.564 696)">
   <path d="M 35.9863 -68.75 C 14.9414 -68.75 6.83594 -58.7891 6.83594 -39.6973 L 6.83594 -11.5234 C 6.83594 -5.0293 10.3027 -1.5625 16.8457 -1.5625 L 85.4492 -1.5625 C 91.9922 -1.5625 95.459 -5.12695 95.459 -11.5234 L 95.459 -39.6973 C 95.459 -58.7891 87.3535 -68.75 66.3086 -68.75 Z M 59.2773 -17.7734 C 58.6426 -17.7734 58.1543 -18.2617 58.1543 -18.9453 L 58.1543 -50.6836 C 58.1543 -51.3672 58.5938 -51.8555 59.2773 -51.8555 C 60.0098 -51.8555 60.4492 -51.3672 60.4492 -50.6836 L 60.4492 -19.9219 L 77.5879 -19.9219 C 78.2227 -19.9219 78.6621 -19.4824 78.6621 -18.8477 C 78.6621 -18.1641 78.2715 -17.7734 77.5879 -17.7734 Z M 27.2461 -17.7734 C 26.2695 -17.7734 25.6348 -18.3594 25.6348 -19.2383 C 25.6348 -19.873 25.7324 -20.1172 26.2207 -20.8496 L 47.0703 -49.2188 L 47.0703 -49.4141 L 26.9043 -49.4141 C 26.2207 -49.4141 25.7812 -49.9023 25.7812 -50.4883 C 25.7812 -51.123 26.2207 -51.5625 26.9043 -51.5625 L 48.0957 -51.5625 C 49.0723 -51.5625 49.7559 -50.9277 49.7559 -50.0488 C 49.7559 -49.4141 49.6582 -49.1211 49.1699 -48.4375 L 28.4668 -20.1172 L 28.4668 -19.9219 L 49.5117 -19.9219 C 50.1465 -19.9219 50.5859 -19.4336 50.5859 -18.8477 C 50.5859 -18.2129 50.1465 -17.7734 49.5117 -17.7734 Z"/>
  </g>
 </g>
</svg>
